<svg xmlns="http://www.w3.org/2000/svg" id="sprotty_root" class="sprotty-graph sprotty-state-machine statemachine" style="font-family:&quot;Noto Sans&quot;, Helvetica, Arial, sans-serif;perspective-origin:0px 0px;transform-origin:0px 0px;" version="1.1" viewBox="10 10 327.9375 288" width="327.9375" height="288"><g transform="scale(1) translate(0,0)"><g id="sprotty_fsm$aes_ctrl_cs" transform="translate(15, 15)" class="statemachine"><g class="sprotty-block" style="fill:rgb(255, 255, 255);stroke:rgb(48, 48, 48);stroke-dasharray:0px;"><rect x="0" y="0" rx="1" ry="1" width="317.9375" height="278"/><text x="158.96875" y="12" class="sprotty-block-name" style="cursor:pointer;font-weight:700;perspective-origin:159px 0px;fill:rgb(48, 48, 48);stroke:rgba(0, 0, 0, 0);dominant-baseline:middle;text-anchor:middle;">aes_ctrl_cs</text><line x1="0" y1="20" x2="317.9375" y2="20"/></g><g id="sprotty_fsm$aes_ctrl_cs/state$LOAD" transform="translate(161.5625, 36)" class="state"><ellipse cx="26.3125" cy="20" rx="26.3125" ry="20" class="sprotty-node clickable" style="fill:rgb(255, 255, 255);stroke:rgb(48, 48, 48);"/><text class="clickable sprotty-label state" id="sprotty_fsm$aes_ctrl_cs/state$LOAD/label" transform="translate(6, 8) translate(20.3125, 19)" style="cursor:default;perspective-origin:0px 0px;fill:rgb(48, 48, 48);text-anchor:middle;">LOAD</text></g><g id="sprotty_fsm$aes_ctrl_cs/state$IDLE" transform="translate(143.90625, 226)" class="state"><ellipse cx="25" cy="20" rx="25" ry="20" class="sprotty-node clickable" style="fill:rgb(255, 255, 255);stroke:rgb(48, 48, 48);"/><text class="clickable sprotty-label state" id="sprotty_fsm$aes_ctrl_cs/state$IDLE/label" transform="translate(8.109375, 8) translate(16.890625, 19)" style="cursor:default;perspective-origin:0px 0px;fill:rgb(48, 48, 48);text-anchor:middle;">IDLE</text></g><g id="sprotty_fsm$aes_ctrl_cs/state$UPDATE_PRNG" transform="translate(122.40625, 96)" class="state"><ellipse cx="62" cy="20" rx="62" ry="20" class="sprotty-node clickable" style="fill:rgb(255, 255, 255);stroke:rgb(48, 48, 48);"/><text class="clickable sprotty-label state" id="sprotty_fsm$aes_ctrl_cs/state$UPDATE_PRNG/label" transform="translate(6, 8) translate(56, 19)" style="cursor:default;perspective-origin:0px 0px;fill:rgb(48, 48, 48);text-anchor:middle;">UPDATE_PRNG</text></g><g id="sprotty_fsm$aes_ctrl_cs/state$ERROR" transform="translate(12, 36)" class="dead state"><ellipse cx="31.890625" cy="20" rx="31.890625" ry="20" class="sprotty-node clickable" style="fill:rgb(194, 94, 95);stroke:rgb(135, 51, 52);"/><text class="clickable sprotty-label state" id="sprotty_fsm$aes_ctrl_cs/state$ERROR/label" transform="translate(6, 8) translate(25.890625, 19)" style="cursor:default;perspective-origin:0px 0px;fill:rgb(48, 48, 48);text-anchor:middle;">ERROR</text></g><g id="sprotty_fsm$aes_ctrl_cs/state$CLEAR" transform="translate(157.78125, 156)" class="state"><ellipse cx="30.09375" cy="20" rx="30.09375" ry="20" class="sprotty-node clickable" style="fill:rgb(255, 255, 255);stroke:rgb(48, 48, 48);"/><text class="clickable sprotty-label state" id="sprotty_fsm$aes_ctrl_cs/state$CLEAR/label" transform="translate(6, 8) translate(24.09375, 19)" style="cursor:default;perspective-origin:0px 0px;fill:rgb(48, 48, 48);text-anchor:middle;">CLEAR</text></g><g id="sprotty_fsm$aes_ctrl_cs/state$FINISH" transform="translate(242.96875, 156)" class="state"><ellipse cx="31.484375" cy="20" rx="31.484375" ry="20" class="sprotty-node clickable" style="fill:rgb(255, 255, 255);stroke:rgb(48, 48, 48);"/><text class="clickable sprotty-label state" id="sprotty_fsm$aes_ctrl_cs/state$FINISH/label" transform="translate(6, 8) translate(25.484375, 19)" style="cursor:default;perspective-origin:0px 0px;fill:rgb(48, 48, 48);text-anchor:middle;">FINISH</text></g><g id="sprotty_fsm$aes_ctrl_cs/state$IDLE_to_fsm$aes_ctrl_cs/state$UPDATE_PRNG" class="sprotty-edge transition" style="fill:none;stroke:rgb(48, 48, 48);stroke-linejoin:round;"><g><path d=" M163.90625,226 C146.78125,211 146.78125,203.5 146.78125,196.41666666666666 C146.78125,189.33333333333331 146.78125,182.66666666666666 146.78125,176 C146.78125,169.33333333333331 146.78125,162.66666666666666 146.78125,156.83333333333331 C146.78125,151 146.78125,146 153.40625,136"/><path d=" M163.90625,226 C146.78125,211 146.78125,203.5 146.78125,196.41666666666666 C146.78125,189.33333333333331 146.78125,182.66666666666666 146.78125,176 C146.78125,169.33333333333331 146.78125,162.66666666666666 146.78125,156.83333333333331 C146.78125,151 146.78125,146 153.40625,136" class="clickable"/></g><path d="M 153.40625,136 L 160.40625,133.5 L 160.40625,138.5 Z" transform="rotate(123.52447324857697 153.40625 136)" class="arrow" style="fill:rgb(48, 48, 48);stroke-linejoin:miter;stroke-miterlimit:2;"/></g><g id="sprotty_fsm$aes_ctrl_cs/state$IDLE_to_fsm$aes_ctrl_cs/state$LOAD" class="sprotty-edge transition" style="fill:none;stroke:rgb(48, 48, 48);stroke-linejoin:round;"><g><path d=" M153.90625,226 C95.78125,211 95.78125,203.5 95.78125,191.4166666666667 C95.78125,179.33333333333337 95.78125,162.66666666666669 95.78125,150.16666666666669 C95.78125,137.66666666666669 95.78125,129.33333333333331 95.78125000000003,121 C95.78125000000003,112.66666666666666 95.78125,104.33333333333334 95.78125,97.66666666666669 C95.78125,91 95.78125,86 174.71875,76"/><path d=" M153.90625,226 C95.78125,211 95.78125,203.5 95.78125,191.4166666666667 C95.78125,179.33333333333337 95.78125,162.66666666666669 95.78125,150.16666666666669 C95.78125,137.66666666666669 95.78125,129.33333333333331 95.78125000000003,121 C95.78125000000003,112.66666666666666 95.78125,104.33333333333334 95.78125,97.66666666666669 C95.78125,91 95.78125,86 174.71875,76" class="clickable"/></g><path d="M 174.71875,76 L 181.71875,73.5 L 181.71875,78.5 Z" transform="rotate(172.78008620750333 174.71875 76)" class="arrow" style="fill:rgb(48, 48, 48);stroke-linejoin:miter;stroke-miterlimit:2;"/></g><g id="sprotty_fsm$aes_ctrl_cs/state$LOAD_to_fsm$aes_ctrl_cs/state$UPDATE_PRNG" class="sprotty-edge transition" style="fill:none;stroke:rgb(48, 48, 48);stroke-linejoin:round;"><g><path d=" M187.875,76 C187.875,76 184.753125,86 184.40625,96"/><path d=" M187.875,76 C187.875,76 184.753125,86 184.40625,96" class="clickable"/></g><path d="M 184.40625,96 L 191.40625,93.5 L 191.40625,98.5 Z" transform="rotate(-88.01334918706468 184.40625 96)" class="arrow" style="fill:rgb(48, 48, 48);stroke-linejoin:miter;stroke-miterlimit:2;"/></g><g id="sprotty_fsm$aes_ctrl_cs/state$LOAD_to_fsm$aes_ctrl_cs/state$FINISH" class="sprotty-edge transition" style="fill:none;stroke:rgb(48, 48, 48);stroke-linejoin:round;"><g><path d=" M201.03125,76 C284.9479166666667,86 284.9479166666667,91 284.9479166666667,97.66666666666667 C284.9479166666667,104.33333333333334 284.9479166666667,112.66666666666666 284.9479166666667,123.0833333333333 C284.9479166666667,133.5 284.9479166666667,146 284.9479166666667,156"/><path d=" M201.03125,76 C284.9479166666667,86 284.9479166666667,91 284.9479166666667,97.66666666666667 C284.9479166666667,104.33333333333334 284.9479166666667,112.66666666666666 284.9479166666667,123.0833333333333 C284.9479166666667,133.5 284.9479166666667,146 284.9479166666667,156" class="clickable"/></g><path d="M 284.9479166666667,156 L 291.9479166666667,153.5 L 291.9479166666667,158.5 Z" transform="rotate(-90 284.9479166666667 156)" class="arrow" style="fill:rgb(48, 48, 48);stroke-linejoin:miter;stroke-miterlimit:2;"/></g><g id="sprotty_fsm$aes_ctrl_cs/state$UPDATE_PRNG_to_fsm$aes_ctrl_cs/state$FINISH" class="sprotty-edge transition" style="fill:none;stroke:rgb(48, 48, 48);stroke-linejoin:round;"><g><path d=" M215.40625,136 C215.40625,136 259.103125,146 263.95833333333337,156"/><path d=" M215.40625,136 C215.40625,136 259.103125,146 263.95833333333337,156" class="clickable"/></g><path d="M 263.95833333333337,156 L 270.95833333333337,153.5 L 270.95833333333337,158.5 Z" transform="rotate(-115.89753908384016 263.95833333333337 156)" class="arrow" style="fill:rgb(48, 48, 48);stroke-linejoin:miter;stroke-miterlimit:2;"/></g><g id="sprotty_fsm$aes_ctrl_cs/state$UPDATE_PRNG_to_fsm$aes_ctrl_cs/state$CLEAR" class="sprotty-edge transition" style="fill:none;stroke:rgb(48, 48, 48);stroke-linejoin:round;"><g><path d=" M184.40625,136 C184.40625,136 187.528125,146 187.875,156"/><path d=" M184.40625,136 C184.40625,136 187.528125,146 187.875,156" class="clickable"/></g><path d="M 187.875,156 L 194.875,153.5 L 194.875,158.5 Z" transform="rotate(-91.98665081293535 187.875 156)" class="arrow" style="fill:rgb(48, 48, 48);stroke-linejoin:miter;stroke-miterlimit:2;"/></g><g id="sprotty_fsm$aes_ctrl_cs/state$FINISH_to_fsm$aes_ctrl_cs/state$IDLE" class="sprotty-edge transition" style="fill:none;stroke:rgb(48, 48, 48);stroke-linejoin:round;"><g><path d=" M274.453125,196 C274.453125,196 265.3984375,211 183.90625,226"/><path d=" M274.453125,196 C274.453125,196 265.3984375,211 183.90625,226" class="clickable"/></g><path d="M 183.90625,226 L 190.90625,223.5 L 190.90625,228.5 Z" transform="rotate(-10.42950630287924 183.90625 226)" class="arrow" style="fill:rgb(48, 48, 48);stroke-linejoin:miter;stroke-miterlimit:2;"/></g><g id="sprotty_fsm$aes_ctrl_cs/state$CLEAR_to_fsm$aes_ctrl_cs/state$IDLE" class="sprotty-edge transition" style="fill:none;stroke:rgb(48, 48, 48);stroke-linejoin:round;"><g><path d=" M187.875,196 C187.875,196 186.478125,211 173.90625,226"/><path d=" M187.875,196 C187.875,196 186.478125,211 173.90625,226" class="clickable"/></g><path d="M 173.90625,226 L 180.90625,223.5 L 180.90625,228.5 Z" transform="rotate(-50.032785309751205 173.90625 226)" class="arrow" style="fill:rgb(48, 48, 48);stroke-linejoin:miter;stroke-miterlimit:2;"/></g></g></g></svg>