<svg xmlns="http://www.w3.org/2000/svg" id="sprotty_root" class="sprotty-graph sprotty-state-machine statemachine" style="font-family:&quot;Noto Sans&quot;, Helvetica, Arial, sans-serif;perspective-origin:0px 0px;transform-origin:0px 0px;" version="1.1" viewBox="10 10 166.40625 158" width="166.40625" height="158"><g transform="scale(1) translate(0,0)"><g id="sprotty_fsm$aes_ctr_cs" transform="translate(15, 15)" class="statemachine"><g class="sprotty-block" style="fill:rgb(255, 255, 255);stroke:rgb(48, 48, 48);stroke-dasharray:0px;"><rect x="0" y="0" rx="1" ry="1" width="156.40625" height="148"/><text x="78.203125" y="12" class="sprotty-block-name" style="cursor:pointer;font-weight:700;perspective-origin:78.2344px 0px;fill:rgb(48, 48, 48);stroke:rgba(0, 0, 0, 0);dominant-baseline:middle;text-anchor:middle;">aes_ctr_cs</text><line x1="0" y1="20" x2="156.40625" y2="20"/></g><g id="sprotty_fsm$aes_ctr_cs/state$IDLE" transform="translate(97.203125, 96)" class="state"><ellipse cx="22.890625" cy="20" rx="22.890625" ry="20" class="sprotty-node clickable" style="fill:rgb(255, 255, 255);stroke:rgb(48, 48, 48);"/><text class="clickable sprotty-label state" id="sprotty_fsm$aes_ctr_cs/state$IDLE/label" transform="translate(6, 8) translate(16.890625, 19)" style="cursor:default;perspective-origin:0px 0px;fill:rgb(48, 48, 48);text-anchor:middle;">IDLE</text></g><g id="sprotty_fsm$aes_ctr_cs/state$INCR" transform="translate(95.78125, 36)" class="state"><ellipse cx="24.3125" cy="20" rx="24.3125" ry="20" class="sprotty-node clickable" style="fill:rgb(255, 255, 255);stroke:rgb(48, 48, 48);"/><text class="clickable sprotty-label state" id="sprotty_fsm$aes_ctr_cs/state$INCR/label" transform="translate(6, 8) translate(18.3125, 19)" style="cursor:default;perspective-origin:0px 0px;fill:rgb(48, 48, 48);text-anchor:middle;">INCR</text></g><g id="sprotty_fsm$aes_ctr_cs/state$ERROR" transform="translate(12, 36)" class="dead state"><ellipse cx="31.890625" cy="20" rx="31.890625" ry="20" class="sprotty-node clickable" style="fill:rgb(194, 94, 95);stroke:rgb(135, 51, 52);"/><text class="clickable sprotty-label state" id="sprotty_fsm$aes_ctr_cs/state$ERROR/label" transform="translate(6, 8) translate(25.890625, 19)" style="cursor:default;perspective-origin:0px 0px;fill:rgb(48, 48, 48);text-anchor:middle;">ERROR</text></g><g id="sprotty_fsm$aes_ctr_cs/state$IDLE_to_fsm$aes_ctr_cs/state$INCR" class="sprotty-edge transition" style="fill:none;stroke:rgb(48, 48, 48);stroke-linejoin:round;"><g><path d=" M127.72395833333334,96 C127.9609375,86 128.19791666666666,76 128.19791666666666,76"/><path d=" M127.72395833333334,96 C127.9609375,86 128.19791666666666,76 128.19791666666666,76" class="clickable"/></g><path d="M 128.19791666666666,76 L 135.19791666666666,73.5 L 135.19791666666666,78.5 Z" transform="rotate(91.35753651942004 128.19791666666666 76)" class="arrow" style="fill:rgb(48, 48, 48);stroke-linejoin:miter;stroke-miterlimit:2;"/></g><g id="sprotty_fsm$aes_ctr_cs/state$INCR_to_fsm$aes_ctr_cs/state$IDLE" class="sprotty-edge transition" style="fill:none;stroke:rgb(48, 48, 48);stroke-linejoin:round;"><g><path d=" M111.98958333333333,76 C111.98958333333333,76 112.2265625,86 112.46354166666667,96"/><path d=" M111.98958333333333,76 C111.98958333333333,76 112.2265625,86 112.46354166666667,96" class="clickable"/></g><path d="M 112.46354166666667,96 L 119.46354166666667,93.5 L 119.46354166666667,98.5 Z" transform="rotate(-91.35753651942011 112.46354166666667 96)" class="arrow" style="fill:rgb(48, 48, 48);stroke-linejoin:miter;stroke-miterlimit:2;"/></g></g></g></svg>