<svg xmlns="http://www.w3.org/2000/svg" id="sprotty_root" class="sprotty-graph sprotty-state-machine statemachine" style="font-family:&quot;Noto Sans&quot;, Helvetica, Arial, sans-serif;perspective-origin:0px 0px;transform-origin:0px 0px;" version="1.1" viewBox="10 10 318.73958333333337 348" width="318.73958333333337" height="348"><g transform="scale(1) translate(0,0)"><g id="sprotty_fsm$aes_cipher_ctrl_cs" transform="translate(15, 15)" class="statemachine"><g class="sprotty-block" style="fill:rgb(255, 255, 255);stroke:rgb(48, 48, 48);stroke-dasharray:0px;"><rect x="0" y="0" rx="1" ry="1" width="308.73958333333337" height="338"/><text x="154.36979166666669" y="12" class="sprotty-block-name" style="cursor:pointer;font-weight:700;perspective-origin:154.406px 0px;fill:rgb(48, 48, 48);stroke:rgba(0, 0, 0, 0);dominant-baseline:middle;text-anchor:middle;">aes_cipher_ctrl_cs</text><line x1="0" y1="20" x2="308.73958333333337" y2="20"/></g><g id="sprotty_fsm$aes_cipher_ctrl_cs/state$INIT" transform="translate(253.78645833333334, 226)" class="state"><ellipse cx="21.4765625" cy="20" rx="21.4765625" ry="20" class="sprotty-node clickable" style="fill:rgb(255, 255, 255);stroke:rgb(48, 48, 48);"/><text class="clickable sprotty-label state" id="sprotty_fsm$aes_cipher_ctrl_cs/state$INIT/label" transform="translate(6, 8) translate(15.265625, 19)" style="cursor:default;perspective-origin:0.203125px 0px;fill:rgb(48, 48, 48);text-anchor:middle;">INIT</text></g><g id="sprotty_fsm$aes_cipher_ctrl_cs/state$IDLE" transform="translate(183.57877604166669, 156)" class="state"><ellipse cx="25" cy="20" rx="25" ry="20" class="sprotty-node clickable" style="fill:rgb(255, 255, 255);stroke:rgb(48, 48, 48);"/><text class="clickable sprotty-label state" id="sprotty_fsm$aes_cipher_ctrl_cs/state$IDLE/label" transform="translate(8.109375, 8) translate(16.890625, 19)" style="cursor:default;perspective-origin:0px 0px;fill:rgb(48, 48, 48);text-anchor:middle;">IDLE</text></g><g id="sprotty_fsm$aes_cipher_ctrl_cs/state$ROUND" transform="translate(196.609375, 36)" class="state"><ellipse cx="34.0703125" cy="20" rx="34.0703125" ry="20" class="sprotty-node clickable" style="fill:rgb(255, 255, 255);stroke:rgb(48, 48, 48);"/><text class="clickable sprotty-label state" id="sprotty_fsm$aes_cipher_ctrl_cs/state$ROUND/label" transform="translate(6, 8) translate(28.0625, 19)" style="cursor:default;perspective-origin:0px 0px;fill:rgb(48, 48, 48);text-anchor:middle;">ROUND</text></g><g id="sprotty_fsm$aes_cipher_ctrl_cs/state$CLEAR_KD" transform="translate(137.85221354166669, 286)" class="state"><ellipse cx="45.2265625" cy="20" rx="45.2265625" ry="20" class="sprotty-node clickable" style="fill:rgb(255, 255, 255);stroke:rgb(48, 48, 48);"/><text class="clickable sprotty-label state" id="sprotty_fsm$aes_cipher_ctrl_cs/state$CLEAR_KD/label" transform="translate(6, 8) translate(39.21875, 19)" style="cursor:default;perspective-origin:0px 0px;fill:rgb(48, 48, 48);text-anchor:middle;">CLEAR_KD</text></g><g id="sprotty_fsm$aes_cipher_ctrl_cs/state$ERROR" transform="translate(12, 36)" class="dead state"><ellipse cx="31.890625" cy="20" rx="31.890625" ry="20" class="sprotty-node clickable" style="fill:rgb(194, 94, 95);stroke:rgb(135, 51, 52);"/><text class="clickable sprotty-label state" id="sprotty_fsm$aes_cipher_ctrl_cs/state$ERROR/label" transform="translate(6, 8) translate(25.890625, 19)" style="cursor:default;perspective-origin:0px 0px;fill:rgb(48, 48, 48);text-anchor:middle;">ERROR</text></g><g id="sprotty_fsm$aes_cipher_ctrl_cs/state$CLEAR_S" transform="translate(95.78125, 226)" class="state"><ellipse cx="39.328125" cy="20" rx="39.328125" ry="20" class="sprotty-node clickable" style="fill:rgb(255, 255, 255);stroke:rgb(48, 48, 48);"/><text class="clickable sprotty-label state" id="sprotty_fsm$aes_cipher_ctrl_cs/state$CLEAR_S/label" transform="translate(6, 8) translate(33.328125, 19)" style="cursor:default;perspective-origin:0px 0px;fill:rgb(48, 48, 48);text-anchor:middle;">CLEAR_S</text></g><g id="sprotty_fsm$aes_cipher_ctrl_cs/state$FINISH" transform="translate(156.35221354166669, 96)" class="state"><ellipse cx="31.484375" cy="20" rx="31.484375" ry="20" class="sprotty-node clickable" style="fill:rgb(255, 255, 255);stroke:rgb(48, 48, 48);"/><text class="clickable sprotty-label state" id="sprotty_fsm$aes_cipher_ctrl_cs/state$FINISH/label" transform="translate(6, 8) translate(25.484375, 19)" style="cursor:default;perspective-origin:0px 0px;fill:rgb(48, 48, 48);text-anchor:middle;">FINISH</text></g><g id="sprotty_fsm$aes_cipher_ctrl_cs/state$IDLE_to_fsm$aes_cipher_ctrl_cs/state$CLEAR_S" class="sprotty-edge transition" style="fill:none;stroke:rgb(48, 48, 48);stroke-linejoin:round;"><g><path d=" M193.57877604166669,196 C193.57877604166669,196 140.95631510416666,211 135.109375,226"/><path d=" M193.57877604166669,196 C193.57877604166669,196 140.95631510416666,211 135.109375,226" class="clickable"/></g><path d="M 135.109375,226 L 142.109375,223.5 L 142.109375,228.5 Z" transform="rotate(-68.70436198426115 135.109375 226)" class="arrow" style="fill:rgb(48, 48, 48);stroke-linejoin:miter;stroke-miterlimit:2;"/></g><g id="sprotty_fsm$aes_cipher_ctrl_cs/state$IDLE_to_fsm$aes_cipher_ctrl_cs/state$CLEAR_KD" class="sprotty-edge transition" style="fill:none;stroke:rgb(48, 48, 48);stroke-linejoin:round;"><g><path d=" M203.57877604166669,196 C184.4375,211 184.4375,218.5 184.4375,225.58333333333331 C184.4375,232.66666666666666 184.4375,239.33333333333331 184.4375,246 C184.4375,252.66666666666666 184.4375,259.3333333333333 184.4375,265.16666666666663 C184.4375,271 184.4375,276 183.07877604166669,286"/><path d=" M203.57877604166669,196 C184.4375,211 184.4375,218.5 184.4375,225.58333333333331 C184.4375,232.66666666666666 184.4375,239.33333333333331 184.4375,246 C184.4375,252.66666666666666 184.4375,259.3333333333333 184.4375,265.16666666666663 C184.4375,271 184.4375,276 183.07877604166669,286" class="clickable"/></g><path d="M 183.07877604166669,286 L 190.07877604166669,283.5 L 190.07877604166669,288.5 Z" transform="rotate(-82.26246798421201 183.07877604166669 286)" class="arrow" style="fill:rgb(48, 48, 48);stroke-linejoin:miter;stroke-miterlimit:2;"/></g><g id="sprotty_fsm$aes_cipher_ctrl_cs/state$IDLE_to_fsm$aes_cipher_ctrl_cs/state$INIT" class="sprotty-edge transition" style="fill:none;stroke:rgb(48, 48, 48);stroke-linejoin:round;"><g><path d=" M223.57877604166669,196 C223.57877604166669,196 263.6516276041667,211 268.1041666666667,226"/><path d=" M223.57877604166669,196 C223.57877604166669,196 263.6516276041667,211 268.1041666666667,226" class="clickable"/></g><path d="M 268.1041666666667,226 L 275.1041666666667,223.5 L 275.1041666666667,228.5 Z" transform="rotate(-106.53278099792863 268.1041666666667 226)" class="arrow" style="fill:rgb(48, 48, 48);stroke-linejoin:miter;stroke-miterlimit:2;"/></g><g id="sprotty_fsm$aes_cipher_ctrl_cs/state$INIT_to_fsm$aes_cipher_ctrl_cs/state$ROUND" class="sprotty-edge transition" style="fill:none;stroke:rgb(48, 48, 48);stroke-linejoin:round;"><g><path d=" M282.421875,226 C282.421875,211 282.421875,178.5 282.421875,158.08333333333331 C282.421875,137.66666666666666 282.421875,129.33333333333331 282.421875,121 C282.421875,112.66666666666666 282.421875,104.33333333333333 282.421875,97.66666666666666 C282.421875,91 282.421875,86 247.71484375,76"/><path d=" M282.421875,226 C282.421875,211 282.421875,178.5 282.421875,158.08333333333331 C282.421875,137.66666666666666 282.421875,129.33333333333331 282.421875,121 C282.421875,112.66666666666666 282.421875,104.33333333333333 282.421875,97.66666666666666 C282.421875,91 282.421875,86 247.71484375,76" class="clickable"/></g><path d="M 247.71484375,76 L 254.71484375,73.5 L 254.71484375,78.5 Z" transform="rotate(16.073069565069506 247.71484375 76)" class="arrow" style="fill:rgb(48, 48, 48);stroke-linejoin:miter;stroke-miterlimit:2;"/></g><g id="sprotty_fsm$aes_cipher_ctrl_cs/state$ROUND_to_fsm$aes_cipher_ctrl_cs/state$FINISH" class="sprotty-edge transition" style="fill:none;stroke:rgb(48, 48, 48);stroke-linejoin:round;"><g><path d=" M213.64453125,76 C213.64453125,76 190.41738281250002,86 187.83658854166669,96"/><path d=" M213.64453125,76 C213.64453125,76 190.41738281250002,86 187.83658854166669,96" class="clickable"/></g><path d="M 187.83658854166669,96 L 194.83658854166669,93.5 L 194.83658854166669,98.5 Z" transform="rotate(-75.52890491190222 187.83658854166669 96)" class="arrow" style="fill:rgb(48, 48, 48);stroke-linejoin:miter;stroke-miterlimit:2;"/></g><g id="sprotty_fsm$aes_cipher_ctrl_cs/state$ROUND_to_fsm$aes_cipher_ctrl_cs/state$IDLE" class="sprotty-edge transition" style="fill:none;stroke:rgb(48, 48, 48);stroke-linejoin:round;"><g><path d=" M230.6796875,76 C229.32096354166669,86 229.32096354166669,91 229.32096354166669,96.83333333333333 C229.32096354166669,102.66666666666666 229.32096354166669,109.33333333333333 229.32096354166669,116 C229.32096354166669,122.66666666666666 229.32096354166669,129.33333333333331 229.32096354166669,135.16666666666666 C229.32096354166669,141 229.32096354166669,146 216.91210937500003,156"/><path d=" M230.6796875,76 C229.32096354166669,86 229.32096354166669,91 229.32096354166669,96.83333333333333 C229.32096354166669,102.66666666666666 229.32096354166669,109.33333333333333 229.32096354166669,116 C229.32096354166669,122.66666666666666 229.32096354166669,129.33333333333331 229.32096354166669,135.16666666666666 C229.32096354166669,141 229.32096354166669,146 216.91210937500003,156" class="clickable"/></g><path d="M 216.91210937500003,156 L 223.91210937500003,153.5 L 223.91210937500003,158.5 Z" transform="rotate(-38.86451349847819 216.91210937500003 156)" class="arrow" style="fill:rgb(48, 48, 48);stroke-linejoin:miter;stroke-miterlimit:2;"/></g><g id="sprotty_fsm$aes_cipher_ctrl_cs/state$FINISH_to_fsm$aes_cipher_ctrl_cs/state$IDLE" class="sprotty-edge transition" style="fill:none;stroke:rgb(48, 48, 48);stroke-linejoin:round;"><g><path d=" M187.83658854166669,136 C187.83658854166669,136 189.07747395833337,146 200.24544270833334,156"/><path d=" M187.83658854166669,136 C187.83658854166669,136 189.07747395833337,146 200.24544270833334,156" class="clickable"/></g><path d="M 200.24544270833334,156 L 207.24544270833334,153.5 L 207.24544270833334,158.5 Z" transform="rotate(-138.1581628868951 200.24544270833334 156)" class="arrow" style="fill:rgb(48, 48, 48);stroke-linejoin:miter;stroke-miterlimit:2;"/></g><g id="sprotty_fsm$aes_cipher_ctrl_cs/state$CLEAR_S_to_fsm$aes_cipher_ctrl_cs/state$CLEAR_KD" class="sprotty-edge transition" style="fill:none;stroke:rgb(48, 48, 48);stroke-linejoin:round;"><g><path d=" M135.109375,266 C135.109375,266 137.64498697916667,276 160.46549479166669,286"/><path d=" M135.109375,266 C135.109375,266 137.64498697916667,276 160.46549479166669,286" class="clickable"/></g><path d="M 160.46549479166669,286 L 167.46549479166669,283.5 L 167.46549479166669,288.5 Z" transform="rotate(-156.3368546695564 160.46549479166669 286)" class="arrow" style="fill:rgb(48, 48, 48);stroke-linejoin:miter;stroke-miterlimit:2;"/></g><g id="sprotty_fsm$aes_cipher_ctrl_cs/state$CLEAR_KD_to_fsm$aes_cipher_ctrl_cs/state$IDLE" class="sprotty-edge transition" style="fill:none;stroke:rgb(48, 48, 48);stroke-linejoin:round;"><g><path d=" M205.69205729166669,286 C235.4375,276 235.4375,271 235.4375,265.16666666666663 C235.4375,259.3333333333333 235.4375,252.66666666666666 235.4375,246 C235.4375,239.33333333333331 235.4375,232.66666666666666 235.4375,225.58333333333331 C235.4375,218.5 235.4375,211 213.57877604166669,196"/><path d=" M205.69205729166669,286 C235.4375,276 235.4375,271 235.4375,265.16666666666663 C235.4375,259.3333333333333 235.4375,252.66666666666666 235.4375,246 C235.4375,239.33333333333331 235.4375,232.66666666666666 235.4375,225.58333333333331 C235.4375,218.5 235.4375,211 213.57877604166669,196" class="clickable"/></g><path d="M 213.57877604166669,196 L 220.57877604166669,193.5 L 220.57877604166669,198.5 Z" transform="rotate(34.4588826973386 213.57877604166669 196)" class="arrow" style="fill:rgb(48, 48, 48);stroke-linejoin:miter;stroke-miterlimit:2;"/></g></g></g></svg>