<svg xmlns="http://www.w3.org/2000/svg" id="sprotty_root" class="sprotty-graph sprotty-state-machine statemachine" style="font-family:&quot;Noto Sans&quot;, Helvetica, Arial, sans-serif;perspective-origin:0px 0px;transform-origin:0px 0px;" version="1.1" viewBox="10 10 110.390625 218" width="110.390625" height="218"><g transform="scale(1) translate(0,0)"><g id="sprotty_fsm$key_len" transform="translate(15, 15)" class="statemachine"><g class="sprotty-block" style="fill:rgb(255, 255, 255);stroke:rgb(48, 48, 48);stroke-dasharray:0px;"><rect x="0" y="0" rx="1" ry="1" width="100.390625" height="208"/><text x="50.1953125" y="12" class="sprotty-block-name" style="cursor:pointer;font-weight:700;perspective-origin:50.1875px 0px;fill:rgb(48, 48, 48);stroke:rgba(0, 0, 0, 0);dominant-baseline:middle;text-anchor:middle;">key_len</text><line x1="0" y1="20" x2="100.390625" y2="20"/></g><g id="sprotty_fsm$key_len/state$AES_256" transform="translate(12, 156)" class="state"><ellipse cx="38.1953125" cy="20" rx="38.1953125" ry="20" class="sprotty-node clickable" style="fill:rgb(255, 255, 255);stroke:rgb(48, 48, 48);"/><text class="clickable sprotty-label state" id="sprotty_fsm$key_len/state$AES_256/label" transform="translate(6, 8) translate(32.140625, 19)" style="cursor:default;perspective-origin:0.046875px 0px;fill:rgb(48, 48, 48);text-anchor:middle;">AES_256</text></g><g id="sprotty_fsm$key_len/state$AES_128" transform="translate(12, 36)" class="dead state"><ellipse cx="38.1953125" cy="20" rx="38.1953125" ry="20" class="sprotty-node clickable" style="fill:rgb(194, 94, 95);stroke:rgb(135, 51, 52);"/><text class="clickable sprotty-label state" id="sprotty_fsm$key_len/state$AES_128/label" transform="translate(6, 8) translate(32.140625, 19)" style="cursor:default;perspective-origin:0.046875px 0px;fill:rgb(48, 48, 48);text-anchor:middle;">AES_128</text></g><g id="sprotty_fsm$key_len/state$AES_192" transform="translate(12, 96)" class="state"><ellipse cx="38.1953125" cy="20" rx="38.1953125" ry="20" class="sprotty-node clickable" style="fill:rgb(255, 255, 255);stroke:rgb(48, 48, 48);"/><text class="clickable sprotty-label state" id="sprotty_fsm$key_len/state$AES_192/label" transform="translate(6, 8) translate(32.140625, 19)" style="cursor:default;perspective-origin:0.046875px 0px;fill:rgb(48, 48, 48);text-anchor:middle;">AES_192</text></g><g id="sprotty_fsm$key_len/state$AES_192_to_fsm$key_len/state$AES_256" class="sprotty-edge transition" style="fill:none;stroke:rgb(48, 48, 48);stroke-linejoin:round;"><g><path d=" M50.1953125,136 C50.1953125,136 50.1953125,146 50.1953125,156"/><path d=" M50.1953125,136 C50.1953125,136 50.1953125,146 50.1953125,156" class="clickable"/></g><path d="M 50.1953125,156 L 57.1953125,153.5 L 57.1953125,158.5 Z" transform="rotate(-90 50.1953125 156)" class="arrow" style="fill:rgb(48, 48, 48);stroke-linejoin:miter;stroke-miterlimit:2;"/></g></g></g></svg>