<svg xmlns="http://www.w3.org/2000/svg" id="sprotty_root" class="sprotty-graph sprotty-state-machine statemachine" style="font-family:&quot;Noto Sans&quot;, Helvetica, Arial, sans-serif;perspective-origin:0px 0px;transform-origin:0px 0px;" version="1.1" viewBox="10 10 161.90625 158" width="161.90625" height="158"><g transform="scale(1) translate(0,0)"><g id="sprotty_fsm$state_q" transform="translate(15, 15)" class="statemachine"><g class="sprotty-block" style="fill:rgb(255, 255, 255);stroke:rgb(48, 48, 48);stroke-dasharray:0px;"><rect x="0" y="0" rx="1" ry="1" width="151.90625" height="148"/><text x="75.953125" y="12" class="sprotty-block-name" style="cursor:pointer;font-weight:700;perspective-origin:75.9531px 0px;fill:rgb(48, 48, 48);stroke:rgba(0, 0, 0, 0);dominant-baseline:middle;text-anchor:middle;">state_q</text><line x1="0" y1="20" x2="151.90625" y2="20"/></g><g id="sprotty_fsm$state_q/state$Init" transform="translate(103, 36)" class="state"><ellipse cx="18.453125" cy="20" rx="18.453125" ry="20" class="sprotty-node clickable" style="fill:rgb(255, 255, 255);stroke:rgb(48, 48, 48);"/><text class="clickable sprotty-label state" id="sprotty_fsm$state_q/state$Init/label" transform="translate(6, 8) translate(12.453125, 19)" style="cursor:default;perspective-origin:0px 0px;fill:rgb(48, 48, 48);text-anchor:middle;">Init</text></g><g id="sprotty_fsm$state_q/state$RespWait" transform="translate(14.4375, 96)" class="state"><ellipse cx="40.75" cy="20" rx="40.75" ry="20" class="sprotty-node clickable" style="fill:rgb(255, 255, 255);stroke:rgb(48, 48, 48);"/><text class="clickable sprotty-label state" id="sprotty_fsm$state_q/state$RespWait/label" transform="translate(6, 8) translate(34.75, 19)" style="cursor:default;perspective-origin:0px 0px;fill:rgb(48, 48, 48);text-anchor:middle;">RespWait</text></g><g id="sprotty_fsm$state_q/state$DoPing" transform="translate(12, 36)" class="state"><ellipse cx="33" cy="20" rx="33" ry="20" class="sprotty-node clickable" style="fill:rgb(255, 255, 255);stroke:rgb(48, 48, 48);"/><text class="clickable sprotty-label state" id="sprotty_fsm$state_q/state$DoPing/label" transform="translate(6, 8) translate(27, 19)" style="cursor:default;perspective-origin:0px 0px;fill:rgb(48, 48, 48);text-anchor:middle;">DoPing</text></g><g id="sprotty_fsm$state_q/state$Init_to_fsm$state_q/state$RespWait" class="sprotty-edge transition" style="fill:none;stroke:rgb(48, 48, 48);stroke-linejoin:round;"><g><path d=" M121.453125,76 C121.453125,76 116.8640625,86 75.5625,96"/><path d=" M121.453125,76 C121.453125,76 116.8640625,86 75.5625,96" class="clickable"/></g><path d="M 75.5625,96 L 82.5625,93.5 L 82.5625,98.5 Z" transform="rotate(-13.610615579380992 75.5625 96)" class="arrow" style="fill:rgb(48, 48, 48);stroke-linejoin:miter;stroke-miterlimit:2;"/></g><g id="sprotty_fsm$state_q/state$RespWait_to_fsm$state_q/state$DoPing" class="sprotty-edge transition" style="fill:none;stroke:rgb(48, 48, 48);stroke-linejoin:round;"><g><path d=" M55.1875,96 C55.91875,86 56,76 56,76"/><path d=" M55.1875,96 C55.91875,86 56,76 56,76" class="clickable"/></g><path d="M 56,76 L 63,73.5 L 63,78.5 Z" transform="rotate(90.46551796490431 56 76)" class="arrow" style="fill:rgb(48, 48, 48);stroke-linejoin:miter;stroke-miterlimit:2;"/></g><g id="sprotty_fsm$state_q/state$DoPing_to_fsm$state_q/state$RespWait" class="sprotty-edge transition" style="fill:none;stroke:rgb(48, 48, 48);stroke-linejoin:round;"><g><path d=" M34,76 C34,76 34.08125,86 34.8125,96"/><path d=" M34,76 C34,76 34.08125,86 34.8125,96" class="clickable"/></g><path d="M 34.8125,96 L 41.8125,93.5 L 41.8125,98.5 Z" transform="rotate(-94.18230983653417 34.8125 96)" class="arrow" style="fill:rgb(48, 48, 48);stroke-linejoin:miter;stroke-miterlimit:2;"/></g></g></g></svg>