<svg xmlns="http://www.w3.org/2000/svg" id="sprotty_root" class="sprotty-graph sprotty-state-machine statemachine" style="font-family:&quot;Noto Sans&quot;, Helvetica, Arial, sans-serif;perspective-origin:0px 0px;transform-origin:0px 0px;" version="1.1" viewBox="10 10 381.20833333333337 368" width="381.20833333333337" height="368"><g transform="scale(1) translate(0,0)"><g id="sprotty_fsm$state_q" transform="translate(15, 15)" class="statemachine"><g class="sprotty-block" style="fill:rgb(255, 255, 255);stroke:rgb(48, 48, 48);stroke-dasharray:0px;"><rect x="0" y="0" rx="1" ry="1" width="371.20833333333337" height="358"/><text x="185.60416666666669" y="12" class="sprotty-block-name" style="cursor:pointer;font-weight:700;perspective-origin:185.609px 0px;fill:rgb(48, 48, 48);stroke:rgba(0, 0, 0, 0);dominant-baseline:middle;text-anchor:middle;">state_q</text><line x1="0" y1="20" x2="371.20833333333337" y2="20"/></g><g id="sprotty_fsm$state_q/state$Phase3" transform="translate(265.37630208333337, 156)" class="state"><ellipse cx="33.046875" cy="20" rx="33.046875" ry="20" class="sprotty-node clickable" style="fill:rgb(255, 255, 255);stroke:rgb(48, 48, 48);"/><text class="clickable sprotty-label state" id="sprotty_fsm$state_q/state$Phase3/label" transform="translate(6, 8) translate(27.046875, 19)" style="cursor:default;perspective-origin:0px 0px;fill:rgb(48, 48, 48);text-anchor:middle;">Phase3</text></g><g id="sprotty_fsm$state_q/state$Idle" transform="translate(100.90755208333331, 306)" class="state"><ellipse cx="45" cy="20" rx="45" ry="20" class="sprotty-node clickable" style="fill:rgb(255, 255, 255);stroke:rgb(48, 48, 48);"/><text class="clickable sprotty-label state" id="sprotty_fsm$state_q/state$Idle/label" transform="translate(30.90625, 8) translate(14.03125, 19)" style="cursor:default;perspective-origin:0.0625px 0px;fill:rgb(48, 48, 48);text-anchor:middle;">Idle</text></g><g id="sprotty_fsm$state_q/state$Timeout" transform="translate(87.84505208333331, 156)" class="state"><ellipse cx="37.5625" cy="20" rx="37.5625" ry="20" class="sprotty-node clickable" style="fill:rgb(255, 255, 255);stroke:rgb(48, 48, 48);"/><text class="clickable sprotty-label state" id="sprotty_fsm$state_q/state$Timeout/label" transform="translate(6, 8) translate(31.5625, 19)" style="cursor:default;perspective-origin:0px 0px;fill:rgb(48, 48, 48);text-anchor:middle;">Timeout</text></g><g id="sprotty_fsm$state_q/state$Phase2" transform="translate(234.30598958333331, 96)" class="state"><ellipse cx="33.109375" cy="20" rx="33.109375" ry="20" class="sprotty-node clickable" style="fill:rgb(255, 255, 255);stroke:rgb(48, 48, 48);"/><text class="clickable sprotty-label state" id="sprotty_fsm$state_q/state$Phase2/label" transform="translate(6, 8) translate(27.046875, 19)" style="cursor:default;perspective-origin:0.0625px 0px;fill:rgb(48, 48, 48);text-anchor:middle;">Phase2</text></g><g id="sprotty_fsm$state_q/state$Phase1" transform="translate(29.953125, 36)" class="state"><ellipse cx="33.046875" cy="20" rx="33.046875" ry="20" class="sprotty-node clickable" style="fill:rgb(255, 255, 255);stroke:rgb(48, 48, 48);"/><text class="clickable sprotty-label state" id="sprotty_fsm$state_q/state$Phase1/label" transform="translate(6, 8) translate(27.046875, 19)" style="cursor:default;perspective-origin:0px 0px;fill:rgb(48, 48, 48);text-anchor:middle;">Phase1</text></g><g id="sprotty_fsm$state_q/state$Terminal" transform="translate(281.1458333333333, 216)" class="state"><ellipse cx="39.03125" cy="20" rx="39.03125" ry="20" class="sprotty-node clickable" style="fill:rgb(255, 255, 255);stroke:rgb(48, 48, 48);"/><text class="clickable sprotty-label state" id="sprotty_fsm$state_q/state$Terminal/label" transform="translate(6, 8) translate(33.03125, 19)" style="cursor:default;perspective-origin:0px 0px;fill:rgb(48, 48, 48);text-anchor:middle;">Terminal</text></g><g id="sprotty_fsm$state_q/state$Phase0" transform="translate(40.927083333333314, 216)" class="state"><ellipse cx="33.109375" cy="20" rx="33.109375" ry="20" class="sprotty-node clickable" style="fill:rgb(255, 255, 255);stroke:rgb(48, 48, 48);"/><text class="clickable sprotty-label state" id="sprotty_fsm$state_q/state$Phase0/label" transform="translate(6, 8) translate(27.046875, 19)" style="cursor:default;perspective-origin:0.0625px 0px;fill:rgb(48, 48, 48);text-anchor:middle;">Phase0</text></g><g id="sprotty_fsm$state_q/state$Idle_to_fsm$state_q/state$Phase0" class="sprotty-edge transition" style="fill:none;stroke:rgb(48, 48, 48);stroke-linejoin:round;"><g><path d=" M120.90755208333331,306 C68.79075520833328,281 62.99999999999997,256 62.99999999999998,256"/><path d=" M120.90755208333331,306 C68.79075520833328,281 62.99999999999997,256 62.99999999999998,256" class="clickable"/></g><path d="M 62.99999999999998,256 L 69.99999999999997,253.5 L 69.99999999999997,258.5 Z" transform="rotate(76.95855590412081 62.99999999999998 256)" class="arrow" style="fill:rgb(48, 48, 48);stroke-linejoin:miter;stroke-miterlimit:2;"/></g><g id="sprotty_fsm$state_q/state$Idle_to_fsm$state_q/state$Timeout" class="sprotty-edge transition" style="fill:none;stroke:rgb(48, 48, 48);stroke-linejoin:round;"><g><path d=" M140.90755208333331,306 C117.14583333333331,281 117.14583333333331,268.5 117.14583333333331,258.91666666666663 C117.14583333333331,249.33333333333331 117.14583333333331,242.66666666666666 117.14583333333331,236 C117.14583333333331,229.33333333333331 117.14583333333331,222.66666666666666 117.14583333333331,216.83333333333331 C117.14583333333331,211 117.14583333333331,206 125.40755208333331,196"/><path d=" M140.90755208333331,306 C117.14583333333331,281 117.14583333333331,268.5 117.14583333333331,258.91666666666663 C117.14583333333331,249.33333333333331 117.14583333333331,242.66666666666666 117.14583333333331,236 C117.14583333333331,229.33333333333331 117.14583333333331,222.66666666666666 117.14583333333331,216.83333333333331 C117.14583333333331,211 117.14583333333331,206 125.40755208333331,196" class="clickable"/></g><path d="M 125.40755208333331,196 L 132.40755208333331,193.5 L 132.40755208333331,198.5 Z" transform="rotate(129.5625597965554 125.40755208333331 196)" class="arrow" style="fill:rgb(48, 48, 48);stroke-linejoin:miter;stroke-miterlimit:2;"/></g><g id="sprotty_fsm$state_q/state$Timeout_to_fsm$state_q/state$Phase0" class="sprotty-edge transition" style="fill:none;stroke:rgb(48, 48, 48);stroke-linejoin:round;"><g><path d=" M106.62630208333331,196 C106.62630208333331,196 87.22825520833331,206 85.07291666666664,216"/><path d=" M106.62630208333331,196 C106.62630208333331,196 87.22825520833331,206 85.07291666666664,216" class="clickable"/></g><path d="M 85.07291666666664,216 L 92.07291666666664,213.5 L 92.07291666666664,218.5 Z" transform="rotate(-77.83688688936421 85.07291666666664 216)" class="arrow" style="fill:rgb(48, 48, 48);stroke-linejoin:miter;stroke-miterlimit:2;"/></g><g id="sprotty_fsm$state_q/state$Timeout_to_fsm$state_q/state$Idle" class="sprotty-edge transition" style="fill:none;stroke:rgb(48, 48, 48);stroke-linejoin:round;"><g><path d=" M144.18880208333331,196 C168.14583333333331,206 168.14583333333331,211 168.14583333333331,216.83333333333331 C168.14583333333331,222.66666666666666 168.14583333333331,229.33333333333331 168.14583333333331,236 C168.14583333333331,242.66666666666666 168.14583333333331,249.33333333333331 168.14583333333331,258.91666666666663 C168.14583333333331,268.5 168.14583333333331,281 150.90755208333331,306"/><path d=" M144.18880208333331,196 C168.14583333333331,206 168.14583333333331,211 168.14583333333331,216.83333333333331 C168.14583333333331,222.66666666666666 168.14583333333331,229.33333333333331 168.14583333333331,236 C168.14583333333331,242.66666666666666 168.14583333333331,249.33333333333331 168.14583333333331,258.91666666666663 C168.14583333333331,268.5 168.14583333333331,281 150.90755208333331,306" class="clickable"/></g><path d="M 150.90755208333331,306 L 157.90755208333331,303.5 L 157.90755208333331,308.5 Z" transform="rotate(-55.412523270883774 150.90755208333331 306)" class="arrow" style="fill:rgb(48, 48, 48);stroke-linejoin:miter;stroke-miterlimit:2;"/></g><g id="sprotty_fsm$state_q/state$Phase0_to_fsm$state_q/state$Idle" class="sprotty-edge transition" style="fill:none;stroke:rgb(48, 48, 48);stroke-linejoin:round;"><g><path d=" M85.07291666666664,256 C85.07291666666663,256 89.6563802083333,281 130.90755208333331,306"/><path d=" M85.07291666666664,256 C85.07291666666663,256 89.6563802083333,281 130.90755208333331,306" class="clickable"/></g><path d="M 130.90755208333331,306 L 137.90755208333331,303.5 L 137.90755208333331,308.5 Z" transform="rotate(-148.78231870882036 130.90755208333331 306)" class="arrow" style="fill:rgb(48, 48, 48);stroke-linejoin:miter;stroke-miterlimit:2;"/></g><g id="sprotty_fsm$state_q/state$Phase0_to_fsm$state_q/state$Phase1" class="sprotty-edge transition" style="fill:none;stroke:rgb(48, 48, 48);stroke-linejoin:round;"><g><path d=" M62.99999999999998,216 C63,206 63.00000000000003,176 63.00000000000003,156 C63.00000000000003,136 63,126 63,113.5 C63,101 63,86 63,76"/><path d=" M62.99999999999998,216 C63,206 63.00000000000003,176 63.00000000000003,156 C63.00000000000003,136 63,126 63,113.5 C63,101 63,86 63,76" class="clickable"/></g><path d="M 63,76 L 70,73.5 L 70,78.5 Z" transform="rotate(90 63 76)" class="arrow" style="fill:rgb(48, 48, 48);stroke-linejoin:miter;stroke-miterlimit:2;"/></g><g id="sprotty_fsm$state_q/state$Phase1_to_fsm$state_q/state$Idle" class="sprotty-edge transition" style="fill:none;stroke:rgb(48, 48, 48);stroke-linejoin:round;"><g><path d=" M46.4765625,76 C12,86 12,91 12,97.66666666666666 C12,104.33333333333333 12,112.66666666666667 12,121 C12,129.33333333333334 12,137.66666666666669 12,151.83333333333331 C12,166 12,186 12,200.16666666666666 C12,214.33333333333331 12,222.66666666666666 12,230.99999999999997 C12,239.3333333333333 12,247.66666666666663 12,258.08333333333326 C12,268.49999999999994 12,281 110.90755208333331,306"/><path d=" M46.4765625,76 C12,86 12,91 12,97.66666666666666 C12,104.33333333333333 12,112.66666666666667 12,121 C12,129.33333333333334 12,137.66666666666669 12,151.83333333333331 C12,166 12,186 12,200.16666666666666 C12,214.33333333333331 12,222.66666666666666 12,230.99999999999997 C12,239.3333333333333 12,247.66666666666663 12,258.08333333333326 C12,268.49999999999994 12,281 110.90755208333331,306" class="clickable"/></g><path d="M 110.90755208333331,306 L 117.90755208333331,303.5 L 117.90755208333331,308.5 Z" transform="rotate(-165.81495001987304 110.90755208333331 306)" class="arrow" style="fill:rgb(48, 48, 48);stroke-linejoin:miter;stroke-miterlimit:2;"/></g><g id="sprotty_fsm$state_q/state$Phase1_to_fsm$state_q/state$Phase2" class="sprotty-edge transition" style="fill:none;stroke:rgb(48, 48, 48);stroke-linejoin:round;"><g><path d=" M79.5234375,76 C79.5234375,76 248.62617187499998,86 267.4153645833333,96"/><path d=" M79.5234375,76 C79.5234375,76 248.62617187499998,86 267.4153645833333,96" class="clickable"/></g><path d="M 267.4153645833333,96 L 274.4153645833333,93.5 L 274.4153645833333,98.5 Z" transform="rotate(-151.97716129107576 267.4153645833333 96)" class="arrow" style="fill:rgb(48, 48, 48);stroke-linejoin:miter;stroke-miterlimit:2;"/></g><g id="sprotty_fsm$state_q/state$Phase2_to_fsm$state_q/state$Idle" class="sprotty-edge transition" style="fill:none;stroke:rgb(48, 48, 48);stroke-linejoin:round;"><g><path d=" M256.37890625,136 C219.14583333333331,146 219.14583333333331,151 219.14583333333331,157.66666666666669 C219.14583333333331,164.33333333333334 219.14583333333331,172.66666666666666 219.14583333333331,180.99999999999997 C219.14583333333331,189.33333333333331 219.14583333333331,197.66666666666663 219.14583333333331,210.16666666666663 C219.14583333333331,222.66666666666669 219.14583333333331,239.33333333333337 219.14583333333331,253.9166666666667 C219.14583333333331,268.5 219.14583333333331,281 160.90755208333331,306"/><path d=" M256.37890625,136 C219.14583333333331,146 219.14583333333331,151 219.14583333333331,157.66666666666669 C219.14583333333331,164.33333333333334 219.14583333333331,172.66666666666666 219.14583333333331,180.99999999999997 C219.14583333333331,189.33333333333331 219.14583333333331,197.66666666666663 219.14583333333331,210.16666666666663 C219.14583333333331,222.66666666666669 219.14583333333331,239.33333333333337 219.14583333333331,253.9166666666667 C219.14583333333331,268.5 219.14583333333331,281 160.90755208333331,306" class="clickable"/></g><path d="M 160.90755208333331,306 L 167.90755208333331,303.5 L 167.90755208333331,308.5 Z" transform="rotate(-23.232440383089944 160.90755208333331 306)" class="arrow" style="fill:rgb(48, 48, 48);stroke-linejoin:miter;stroke-miterlimit:2;"/></g><g id="sprotty_fsm$state_q/state$Phase2_to_fsm$state_q/state$Phase3" class="sprotty-edge transition" style="fill:none;stroke:rgb(48, 48, 48);stroke-linejoin:round;"><g><path d=" M278.45182291666663,136 C278.45182291666663,136 296.42604166666666,146 298.42317708333337,156"/><path d=" M278.45182291666663,136 C278.45182291666663,136 296.42604166666666,146 298.42317708333337,156" class="clickable"/></g><path d="M 298.42317708333337,156 L 305.42317708333337,153.5 L 305.42317708333337,158.5 Z" transform="rotate(-101.29415001508332 298.42317708333337 156)" class="arrow" style="fill:rgb(48, 48, 48);stroke-linejoin:miter;stroke-miterlimit:2;"/></g><g id="sprotty_fsm$state_q/state$Phase3_to_fsm$state_q/state$Idle" class="sprotty-edge transition" style="fill:none;stroke:rgb(48, 48, 48);stroke-linejoin:round;"><g><path d=" M287.40755208333337,196 C270.1458333333333,206 270.1458333333333,211 270.1458333333333,216.83333333333331 C270.1458333333333,222.66666666666666 270.1458333333333,229.33333333333331 270.1458333333333,236 C270.1458333333333,242.66666666666666 270.1458333333333,249.33333333333331 270.1458333333333,258.91666666666663 C270.1458333333333,268.5 270.1458333333333,281 170.90755208333331,306"/><path d=" M287.40755208333337,196 C270.1458333333333,206 270.1458333333333,211 270.1458333333333,216.83333333333331 C270.1458333333333,222.66666666666666 270.1458333333333,229.33333333333331 270.1458333333333,236 C270.1458333333333,242.66666666666666 270.1458333333333,249.33333333333331 270.1458333333333,258.91666666666663 C270.1458333333333,268.5 270.1458333333333,281 170.90755208333331,306" class="clickable"/></g><path d="M 170.90755208333331,306 L 177.90755208333331,303.5 L 177.90755208333331,308.5 Z" transform="rotate(-14.139674914588944 170.90755208333331 306)" class="arrow" style="fill:rgb(48, 48, 48);stroke-linejoin:miter;stroke-miterlimit:2;"/></g><g id="sprotty_fsm$state_q/state$Phase3_to_fsm$state_q/state$Terminal" class="sprotty-edge transition" style="fill:none;stroke:rgb(48, 48, 48);stroke-linejoin:round;"><g><path d=" M309.43880208333337,196 C309.43880208333337,196 319.10325520833334,206 320.1770833333333,216"/><path d=" M309.43880208333337,196 C309.43880208333337,196 319.10325520833334,206 320.1770833333333,216" class="clickable"/></g><path d="M 320.1770833333333,216 L 327.1770833333333,213.5 L 327.1770833333333,218.5 Z" transform="rotate(-96.12909561465096 320.1770833333333 216)" class="arrow" style="fill:rgb(48, 48, 48);stroke-linejoin:miter;stroke-miterlimit:2;"/></g><g id="sprotty_fsm$state_q/state$Terminal_to_fsm$state_q/state$Idle" class="sprotty-edge transition" style="fill:none;stroke:rgb(48, 48, 48);stroke-linejoin:round;"><g><path d=" M320.1770833333333,256 C320.17708333333337,256 306.25013020833336,281 180.90755208333331,306"/><path d=" M320.1770833333333,256 C320.17708333333337,256 306.25013020833336,281 180.90755208333331,306" class="clickable"/></g><path d="M 180.90755208333331,306 L 187.90755208333331,303.5 L 187.90755208333331,308.5 Z" transform="rotate(-11.279814489259605 180.90755208333331 306)" class="arrow" style="fill:rgb(48, 48, 48);stroke-linejoin:miter;stroke-miterlimit:2;"/></g></g></g></svg>