<svg xmlns="http://www.w3.org/2000/svg" id="sprotty_root" class="sprotty-graph sprotty-state-machine statemachine" style="font-family:&quot;Noto Sans&quot;, Helvetica, Arial, sans-serif;perspective-origin:0px 0px;transform-origin:0px 0px;" version="1.1" viewBox="10 10 597.890625 361.72135416666663" width="597.890625" height="361.72135416666663"><g transform="scale(1) translate(0,0)"><g id="sprotty_fsm$state_q" transform="translate(15, 15)" class="statemachine"><g class="sprotty-block" style="fill:rgb(255, 255, 255);stroke:rgb(48, 48, 48);stroke-dasharray:0px;"><rect x="0" y="0" rx="1" ry="1" width="587.890625" height="351.72135416666663"/><text x="293.9453125" y="12" class="sprotty-block-name" style="cursor:pointer;font-weight:700;perspective-origin:293.938px 0px;fill:rgb(48, 48, 48);stroke:rgba(0, 0, 0, 0);dominant-baseline:middle;text-anchor:middle;">state_q</text><line x1="0" y1="20" x2="587.890625" y2="20"/></g><g id="sprotty_fsm$state_q/state$InstantReq" transform="translate(302.6966145833333, 299.72135416666663)" class="state"><ellipse cx="46.4375" cy="20" rx="46.4375" ry="20" class="sprotty-node clickable" style="fill:rgb(255, 255, 255);stroke:rgb(48, 48, 48);"/><text class="clickable sprotty-label state" id="sprotty_fsm$state_q/state$InstantReq/label" transform="translate(6, 8) translate(40.4375, 19)" style="cursor:default;perspective-origin:0px 0px;fill:rgb(48, 48, 48);text-anchor:middle;">InstantReq</text></g><g id="sprotty_fsm$state_q/state$ReseedPrep" transform="translate(82.359375, 239.72135416666666)" class="state"><ellipse cx="50.5078125" cy="20" rx="50.5078125" ry="20" class="sprotty-node clickable" style="fill:rgb(255, 255, 255);stroke:rgb(48, 48, 48);"/><text class="clickable sprotty-label state" id="sprotty_fsm$state_q/state$ReseedPrep/label" transform="translate(6, 8) translate(44.46875, 19)" style="cursor:default;perspective-origin:0.03125px 0px;fill:rgb(48, 48, 48);text-anchor:middle;">ReseedPrep</text></g><g id="sprotty_fsm$state_q/state$Idle" transform="translate(364.83854166666663, 159.72135416666666)" class="state"><ellipse cx="40" cy="20" rx="40" ry="20" class="sprotty-node clickable" style="fill:rgb(255, 255, 255);stroke:rgb(48, 48, 48);"/><text class="clickable sprotty-label state" id="sprotty_fsm$state_q/state$Idle/label" transform="translate(25.90625, 8) translate(14.03125, 19)" style="cursor:default;perspective-origin:0.0625px 0px;fill:rgb(48, 48, 48);text-anchor:middle;">Idle</text></g><g id="sprotty_fsm$state_q/state$UpdateReq" transform="translate(396.44010416666663, 96)" class="state"><ellipse cx="47.796875" cy="20" rx="47.796875" ry="20" class="sprotty-node clickable" style="fill:rgb(255, 255, 255);stroke:rgb(48, 48, 48);"/><text class="clickable sprotty-label state" id="sprotty_fsm$state_q/state$UpdateReq/label" transform="translate(6, 8) translate(41.796875, 19)" style="cursor:default;perspective-origin:0px 0px;fill:rgb(48, 48, 48);text-anchor:middle;">UpdateReq</text></g><g id="sprotty_fsm$state_q/state$InstantPrep" transform="translate(208.375, 239.72135416666666)" class="state"><ellipse cx="49.5546875" cy="20" rx="49.5546875" ry="20" class="sprotty-node clickable" style="fill:rgb(255, 255, 255);stroke:rgb(48, 48, 48);"/><text class="clickable sprotty-label state" id="sprotty_fsm$state_q/state$InstantPrep/label" transform="translate(6, 8) translate(43.515625, 19)" style="cursor:default;perspective-origin:0.03125px 0px;fill:rgb(48, 48, 48);text-anchor:middle;">InstantPrep</text></g><g id="sprotty_fsm$state_q/state$Error" transform="translate(12, 36)" class="dead state"><ellipse cx="25.1796875" cy="20" rx="25.1796875" ry="20" class="sprotty-node clickable" style="fill:rgb(194, 94, 95);stroke:rgb(135, 51, 52);"/><text class="clickable sprotty-label state" id="sprotty_fsm$state_q/state$Error/label" transform="translate(6, 8) translate(18.78125, 19)" style="cursor:default;perspective-origin:0.390625px 0px;fill:rgb(48, 48, 48);text-anchor:middle;">Error</text></g><g id="sprotty_fsm$state_q/state$GenerateReq" transform="translate(332.484375, 239.72135416666666)" class="state"><ellipse cx="54.265625" cy="20" rx="54.265625" ry="20" class="sprotty-node clickable" style="fill:rgb(255, 255, 255);stroke:rgb(48, 48, 48);"/><text class="clickable sprotty-label state" id="sprotty_fsm$state_q/state$GenerateReq/label" transform="translate(6, 8) translate(48.265625, 19)" style="cursor:default;perspective-origin:0px 0px;fill:rgb(48, 48, 48);text-anchor:middle;">GenerateReq</text></g><g id="sprotty_fsm$state_q/state$UpdatePrep" transform="translate(363.92447916666663, 36)" class="state"><ellipse cx="50.9140625" cy="20" rx="50.9140625" ry="20" class="sprotty-node clickable" style="fill:rgb(255, 255, 255);stroke:rgb(48, 48, 48);"/><text class="clickable sprotty-label state" id="sprotty_fsm$state_q/state$UpdatePrep/label" transform="translate(6, 8) translate(44.875, 19)" style="cursor:default;perspective-origin:0.03125px 0px;fill:rgb(48, 48, 48);text-anchor:middle;">UpdatePrep</text></g><g id="sprotty_fsm$state_q/state$ReseedReq" transform="translate(84.4375, 96)" class="state"><ellipse cx="47.390625" cy="20" rx="47.390625" ry="20" class="sprotty-node clickable" style="fill:rgb(255, 255, 255);stroke:rgb(48, 48, 48);"/><text class="clickable sprotty-label state" id="sprotty_fsm$state_q/state$ReseedReq/label" transform="translate(6, 8) translate(41.390625, 19)" style="cursor:default;perspective-origin:0px 0px;fill:rgb(48, 48, 48);text-anchor:middle;">ReseedReq</text></g><g id="sprotty_fsm$state_q/state$UninstantReq" transform="translate(462.015625, 239.72135416666666)" class="state"><ellipse cx="56.9375" cy="20" rx="56.9375" ry="20" class="sprotty-node clickable" style="fill:rgb(255, 255, 255);stroke:rgb(48, 48, 48);"/><text class="clickable sprotty-label state" id="sprotty_fsm$state_q/state$UninstantReq/label" transform="translate(6, 8) translate(50.9375, 19)" style="cursor:default;perspective-origin:0px 0px;fill:rgb(48, 48, 48);text-anchor:middle;">UninstantReq</text></g><g id="sprotty_fsm$state_q/state$Idle_to_fsm$state_q/state$InstantPrep" class="sprotty-edge transition" style="fill:none;stroke:rgb(48, 48, 48);stroke-linejoin:round;"><g><path d=" M384.83854166666663,199.72135416666666 C384.83854166666663,199.72135416666666 270.6205729166667,219.72135416666666 257.9296875,239.72135416666666"/><path d=" M384.83854166666663,199.72135416666666 C384.83854166666663,199.72135416666666 270.6205729166667,219.72135416666666 257.9296875,239.72135416666666" class="clickable"/></g><path d="M 257.9296875,239.72135416666666 L 264.9296875,237.22135416666666 L 264.9296875,242.22135416666666 Z" transform="rotate(-57.60306461263506 257.9296875 239.72135416666666)" class="arrow" style="fill:rgb(48, 48, 48);stroke-linejoin:miter;stroke-miterlimit:2;"/></g><g id="sprotty_fsm$state_q/state$Idle_to_fsm$state_q/state$ReseedPrep" class="sprotty-edge transition" style="fill:none;stroke:rgb(48, 48, 48);stroke-linejoin:round;"><g><path d=" M374.83854166666663,199.72135416666666 C374.83854166666663,199.72135416666666 172.21666666666664,219.72135416666666 149.703125,239.72135416666666"/><path d=" M374.83854166666663,199.72135416666666 C374.83854166666663,199.72135416666666 172.21666666666664,219.72135416666666 149.703125,239.72135416666666" class="clickable"/></g><path d="M 149.703125,239.72135416666666 L 156.703125,237.22135416666666 L 156.703125,242.22135416666666 Z" transform="rotate(-41.616422215337764 149.703125 239.72135416666666)" class="arrow" style="fill:rgb(48, 48, 48);stroke-linejoin:miter;stroke-miterlimit:2;"/></g><g id="sprotty_fsm$state_q/state$Idle_to_fsm$state_q/state$GenerateReq" class="sprotty-edge transition" style="fill:none;stroke:rgb(48, 48, 48);stroke-linejoin:round;"><g><path d=" M394.83854166666663,199.72135416666666 C394.83854166666663,199.72135416666666 371.2791666666667,219.72135416666666 368.6614583333333,239.72135416666666"/><path d=" M394.83854166666663,199.72135416666666 C394.83854166666663,199.72135416666666 371.2791666666667,219.72135416666666 368.6614583333333,239.72135416666666" class="clickable"/></g><path d="M 368.6614583333333,239.72135416666666 L 375.6614583333333,237.22135416666666 L 375.6614583333333,242.22135416666666 Z" transform="rotate(-82.5432059915939 368.6614583333333 239.72135416666666)" class="arrow" style="fill:rgb(48, 48, 48);stroke-linejoin:miter;stroke-miterlimit:2;"/></g><g id="sprotty_fsm$state_q/state$Idle_to_fsm$state_q/state$UpdatePrep" class="sprotty-edge transition" style="fill:none;stroke:rgb(48, 48, 48);stroke-linejoin:round;"><g><path d=" M404.83854166666663,159.72135416666666 C385.44010416666663,147.86067708333331 385.44010416666663,141.93033854166666 385.44010416666663,135.6318359375 C385.44010416666663,129.33333333333331 385.44010416666663,122.66666666666666 385.44010416666663,116 C385.44010416666663,109.33333333333333 385.44010416666663,102.66666666666666 385.44010416666663,96.83333333333333 C385.44010416666663,91 385.44010416666663,86 397.86718749999994,76"/><path d=" M404.83854166666663,159.72135416666666 C385.44010416666663,147.86067708333331 385.44010416666663,141.93033854166666 385.44010416666663,135.6318359375 C385.44010416666663,129.33333333333331 385.44010416666663,122.66666666666666 385.44010416666663,116 C385.44010416666663,109.33333333333333 385.44010416666663,102.66666666666666 385.44010416666663,96.83333333333333 C385.44010416666663,91 385.44010416666663,86 397.86718749999994,76" class="clickable"/></g><path d="M 397.86718749999994,76 L 404.86718749999994,73.5 L 404.86718749999994,78.5 Z" transform="rotate(141.17657344244776 397.86718749999994 76)" class="arrow" style="fill:rgb(48, 48, 48);stroke-linejoin:miter;stroke-miterlimit:2;"/></g><g id="sprotty_fsm$state_q/state$Idle_to_fsm$state_q/state$UninstantReq" class="sprotty-edge transition" style="fill:none;stroke:rgb(48, 48, 48);stroke-linejoin:round;"><g><path d=" M424.83854166666663,199.72135416666666 C424.83854166666663,199.72135416666666 492.4604166666667,219.72135416666666 499.9739583333333,239.72135416666666"/><path d=" M424.83854166666663,199.72135416666666 C424.83854166666663,199.72135416666666 492.4604166666667,219.72135416666666 499.9739583333333,239.72135416666666" class="clickable"/></g><path d="M 499.9739583333333,239.72135416666666 L 506.9739583333333,237.22135416666666 L 506.9739583333333,242.22135416666666 Z" transform="rotate(-110.59004883960962 499.9739583333333 239.72135416666666)" class="arrow" style="fill:rgb(48, 48, 48);stroke-linejoin:miter;stroke-miterlimit:2;"/></g><g id="sprotty_fsm$state_q/state$InstantPrep_to_fsm$state_q/state$InstantReq" class="sprotty-edge transition" style="fill:none;stroke:rgb(48, 48, 48);stroke-linejoin:round;"><g><path d=" M257.9296875,279.72135416666663 C257.9296875,279.72135416666663 265.50221354166666,289.72135416666663 333.65494791666663,299.72135416666663"/><path d=" M257.9296875,279.72135416666663 C257.9296875,279.72135416666663 265.50221354166666,289.72135416666663 333.65494791666663,299.72135416666663" class="clickable"/></g><path d="M 333.65494791666663,299.72135416666663 L 340.65494791666663,297.22135416666663 L 340.65494791666663,302.22135416666663 Z" transform="rotate(-171.65259786710376 333.65494791666663 299.72135416666663)" class="arrow" style="fill:rgb(48, 48, 48);stroke-linejoin:miter;stroke-miterlimit:2;"/></g><g id="sprotty_fsm$state_q/state$InstantReq_to_fsm$state_q/state$Idle" class="sprotty-edge transition" style="fill:none;stroke:rgb(48, 48, 48);stroke-linejoin:round;"><g><path d=" M364.61328125,299.72135416666663 C451.015625,289.72135416666663 451.015625,284.72135416666663 451.015625,278.8880208333333 C451.015625,273.0546875 451.015625,266.3880208333333 451.015625,259.72135416666663 C451.015625,253.0546875 451.015625,246.38802083333331 451.015625,238.0546875 C451.015625,229.72135416666666 451.015625,219.72135416666666 414.83854166666663,199.72135416666666"/><path d=" M364.61328125,299.72135416666663 C451.015625,289.72135416666663 451.015625,284.72135416666663 451.015625,278.8880208333333 C451.015625,273.0546875 451.015625,266.3880208333333 451.015625,259.72135416666663 C451.015625,253.0546875 451.015625,246.38802083333331 451.015625,238.0546875 C451.015625,229.72135416666666 451.015625,219.72135416666666 414.83854166666663,199.72135416666666" class="clickable"/></g><path d="M 414.83854166666663,199.72135416666666 L 421.83854166666663,197.22135416666666 L 421.83854166666663,202.22135416666666 Z" transform="rotate(28.935404592692556 414.83854166666663 199.72135416666666)" class="arrow" style="fill:rgb(48, 48, 48);stroke-linejoin:miter;stroke-miterlimit:2;"/></g><g id="sprotty_fsm$state_q/state$ReseedPrep_to_fsm$state_q/state$ReseedReq" class="sprotty-edge transition" style="fill:none;stroke:rgb(48, 48, 48);stroke-linejoin:round;"><g><path d=" M116.03125,239.72135416666666 C116.03125,219.72135416666666 116.03125,201.75618489583331 116.03125,183.791015625 C116.03125,165.82584635416666 116.03125,147.86067708333331 116.03125,136"/><path d=" M116.03125,239.72135416666666 C116.03125,219.72135416666666 116.03125,201.75618489583331 116.03125,183.791015625 C116.03125,165.82584635416666 116.03125,147.86067708333331 116.03125,136" class="clickable"/></g><path d="M 116.03125,136 L 123.03125,133.5 L 123.03125,138.5 Z" transform="rotate(90 116.03125 136)" class="arrow" style="fill:rgb(48, 48, 48);stroke-linejoin:miter;stroke-miterlimit:2;"/></g><g id="sprotty_fsm$state_q/state$ReseedReq_to_fsm$state_q/state$Idle" class="sprotty-edge transition" style="fill:none;stroke:rgb(48, 48, 48);stroke-linejoin:round;"><g><path d=" M147.625,136 C147.625,136 171.34635416666666,147.86067708333331 384.83854166666663,159.72135416666666"/><path d=" M147.625,136 C147.625,136 171.34635416666666,147.86067708333331 384.83854166666663,159.72135416666666" class="clickable"/></g><path d="M 384.83854166666663,159.72135416666666 L 391.83854166666663,157.22135416666666 L 391.83854166666663,162.22135416666666 Z" transform="rotate(-176.82016988013578 384.83854166666663 159.72135416666666)" class="arrow" style="fill:rgb(48, 48, 48);stroke-linejoin:miter;stroke-miterlimit:2;"/></g><g id="sprotty_fsm$state_q/state$GenerateReq_to_fsm$state_q/state$Idle" class="sprotty-edge transition" style="fill:none;stroke:rgb(48, 48, 48);stroke-linejoin:round;"><g><path d=" M404.83854166666663,239.72135416666666 C404.83854166666663,219.72135416666666 404.83854166666663,199.72135416666666 404.83854166666663,199.72135416666666"/><path d=" M404.83854166666663,239.72135416666666 C404.83854166666663,219.72135416666666 404.83854166666663,199.72135416666666 404.83854166666663,199.72135416666666" class="clickable"/></g><path d="M 404.83854166666663,199.72135416666666 L 411.83854166666663,197.22135416666666 L 411.83854166666663,202.22135416666666 Z" transform="rotate(90 404.83854166666663 199.72135416666666)" class="arrow" style="fill:rgb(48, 48, 48);stroke-linejoin:miter;stroke-miterlimit:2;"/></g><g id="sprotty_fsm$state_q/state$UpdatePrep_to_fsm$state_q/state$UpdateReq" class="sprotty-edge transition" style="fill:none;stroke:rgb(48, 48, 48);stroke-linejoin:round;"><g><path d=" M431.80989583333326,76 C431.80989583333326,76 442.9942708333333,86 444.23697916666663,96"/><path d=" M431.80989583333326,76 C431.80989583333326,76 442.9942708333333,86 444.23697916666663,96" class="clickable"/></g><path d="M 444.23697916666663,96 L 451.23697916666663,93.5 L 451.23697916666663,98.5 Z" transform="rotate(-97.08387723255353 444.23697916666663 96)" class="arrow" style="fill:rgb(48, 48, 48);stroke-linejoin:miter;stroke-miterlimit:2;"/></g><g id="sprotty_fsm$state_q/state$UpdateReq_to_fsm$state_q/state$Idle" class="sprotty-edge transition" style="fill:none;stroke:rgb(48, 48, 48);stroke-linejoin:round;"><g><path d=" M444.23697916666663,136 C444.23697916666663,136 442.2971354166666,147.86067708333331 424.83854166666663,159.72135416666666"/><path d=" M444.23697916666663,136 C444.23697916666663,136 442.2971354166666,147.86067708333331 424.83854166666663,159.72135416666666" class="clickable"/></g><path d="M 424.83854166666663,159.72135416666666 L 431.83854166666663,157.22135416666666 L 431.83854166666663,162.22135416666666 Z" transform="rotate(-34.190635274343414 424.83854166666663 159.72135416666666)" class="arrow" style="fill:rgb(48, 48, 48);stroke-linejoin:miter;stroke-miterlimit:2;"/></g><g id="sprotty_fsm$state_q/state$UninstantReq_to_fsm$state_q/state$Idle" class="sprotty-edge transition" style="fill:none;stroke:rgb(48, 48, 48);stroke-linejoin:round;"><g><path d=" M537.9322916666666,239.72135416666666 C527.6229166666667,219.72135416666666 434.83854166666663,199.72135416666666 434.83854166666663,199.72135416666666"/><path d=" M537.9322916666666,239.72135416666666 C527.6229166666667,219.72135416666666 434.83854166666663,199.72135416666666 434.83854166666663,199.72135416666666" class="clickable"/></g><path d="M 434.83854166666663,199.72135416666666 L 441.83854166666663,197.22135416666666 L 441.83854166666663,202.22135416666666 Z" transform="rotate(12.16419066242378 434.83854166666663 199.72135416666666)" class="arrow" style="fill:rgb(48, 48, 48);stroke-linejoin:miter;stroke-miterlimit:2;"/></g></g></g></svg>