<svg xmlns="http://www.w3.org/2000/svg" id="sprotty_root" class="sprotty-graph sprotty-state-machine statemachine" style="font-family:&quot;Noto Sans&quot;, Helvetica, Arial, sans-serif;perspective-origin:0px 0px;transform-origin:0px 0px;" version="1.1" viewBox="10 10 255.609375 218" width="255.609375" height="218"><g transform="scale(1) translate(0,0)"><g id="sprotty_fsm$outblk_state_q" transform="translate(15, 15)" class="statemachine"><g class="sprotty-block" style="fill:rgb(255, 255, 255);stroke:rgb(48, 48, 48);stroke-dasharray:0px;"><rect x="0" y="0" rx="1" ry="1" width="245.609375" height="208"/><text x="122.8046875" y="12" class="sprotty-block-name" style="cursor:pointer;font-weight:700;perspective-origin:122.797px 0px;fill:rgb(48, 48, 48);stroke:rgba(0, 0, 0, 0);dominant-baseline:middle;text-anchor:middle;">outblk_state_q</text><line x1="0" y1="20" x2="245.609375" y2="20"/></g><g id="sprotty_fsm$outblk_state_q/state$Shift" transform="translate(132.52734375, 36)" class="state"><ellipse cx="23.453125" cy="20" rx="23.453125" ry="20" class="sprotty-node clickable" style="fill:rgb(255, 255, 255);stroke:rgb(48, 48, 48);"/><text class="clickable sprotty-label state" id="sprotty_fsm$outblk_state_q/state$Shift/label" transform="translate(6, 8) translate(17.453125, 19)" style="cursor:default;perspective-origin:0px 0px;fill:rgb(48, 48, 48);text-anchor:middle;">Shift</text></g><g id="sprotty_fsm$outblk_state_q/state$Load" transform="translate(131.296875, 156)" class="state"><ellipse cx="24.4375" cy="20" rx="24.4375" ry="20" class="sprotty-node clickable" style="fill:rgb(255, 255, 255);stroke:rgb(48, 48, 48);"/><text class="clickable sprotty-label state" id="sprotty_fsm$outblk_state_q/state$Load/label" transform="translate(6, 8) translate(18.4375, 19)" style="cursor:default;perspective-origin:0px 0px;fill:rgb(48, 48, 48);text-anchor:middle;">Load</text></g><g id="sprotty_fsm$outblk_state_q/state$AckIdle" transform="translate(166.734375, 96)" class="state"><ellipse cx="33.4375" cy="20" rx="33.4375" ry="20" class="sprotty-node clickable" style="fill:rgb(255, 255, 255);stroke:rgb(48, 48, 48);"/><text class="clickable sprotty-label state" id="sprotty_fsm$outblk_state_q/state$AckIdle/label" transform="translate(6, 8) translate(27.375, 19)" style="cursor:default;perspective-origin:0.0625px 0px;fill:rgb(48, 48, 48);text-anchor:middle;">AckIdle</text></g><g id="sprotty_fsm$outblk_state_q/state$OBError" transform="translate(12, 36)" class="dead state"><ellipse cx="36.3671875" cy="20" rx="36.3671875" ry="20" class="sprotty-node clickable" style="fill:rgb(194, 94, 95);stroke:rgb(135, 51, 52);"/><text class="clickable sprotty-label state" id="sprotty_fsm$outblk_state_q/state$OBError/label" transform="translate(6, 8) translate(29.96875, 19)" style="cursor:default;perspective-origin:0.390625px 0px;fill:rgb(48, 48, 48);text-anchor:middle;">OBError</text></g><g id="sprotty_fsm$outblk_state_q/state$AckIdle_to_fsm$outblk_state_q/state$Load" class="sprotty-edge transition" style="fill:none;stroke:rgb(48, 48, 48);stroke-linejoin:round;"><g><path d=" M200.171875,136 C200.171875,136 196.95,146 167.953125,156"/><path d=" M200.171875,136 C200.171875,136 196.95,146 167.953125,156" class="clickable"/></g><path d="M 167.953125,156 L 174.953125,153.5 L 174.953125,158.5 Z" transform="rotate(-19.0275089765304 167.953125 156)" class="arrow" style="fill:rgb(48, 48, 48);stroke-linejoin:miter;stroke-miterlimit:2;"/></g><g id="sprotty_fsm$outblk_state_q/state$Load_to_fsm$outblk_state_q/state$Shift" class="sprotty-edge transition" style="fill:none;stroke:rgb(48, 48, 48);stroke-linejoin:round;"><g><path d=" M155.734375,156 C155.734375,146 155.734375,133.5 155.734375,123.0833333333333 C155.734375,112.66666666666666 155.734375,104.33333333333334 155.734375,97.66666666666667 C155.734375,91 155.734375,86 155.98046875,76"/><path d=" M155.734375,156 C155.734375,146 155.734375,133.5 155.734375,123.0833333333333 C155.734375,112.66666666666666 155.734375,104.33333333333334 155.734375,97.66666666666667 C155.734375,91 155.734375,86 155.98046875,76" class="clickable"/></g><path d="M 155.98046875,76 L 162.98046875,73.5 L 162.98046875,78.5 Z" transform="rotate(91.40972878262363 155.98046875 76)" class="arrow" style="fill:rgb(48, 48, 48);stroke-linejoin:miter;stroke-miterlimit:2;"/></g><g id="sprotty_fsm$outblk_state_q/state$Shift_to_fsm$outblk_state_q/state$AckIdle" class="sprotty-edge transition" style="fill:none;stroke:rgb(48, 48, 48);stroke-linejoin:round;"><g><path d=" M167.70703125,76 C167.70703125,76 196.925390625,86 200.171875,96"/><path d=" M167.70703125,76 C167.70703125,76 196.925390625,86 200.171875,96" class="clickable"/></g><path d="M 200.171875,96 L 207.171875,93.5 L 207.171875,98.5 Z" transform="rotate(-107.98594102601544 200.171875 96)" class="arrow" style="fill:rgb(48, 48, 48);stroke-linejoin:miter;stroke-miterlimit:2;"/></g><g id="sprotty_fsm$outblk_state_q/state$Shift_to_fsm$outblk_state_q/state$Load" class="sprotty-edge transition" style="fill:none;stroke:rgb(48, 48, 48);stroke-linejoin:round;"><g><path d=" M144.25390625,76 C104.734375,86 104.734375,91 104.734375,96.83333333333333 C104.734375,102.66666666666666 104.734375,109.33333333333333 104.734375,116 C104.734375,122.66666666666666 104.734375,129.33333333333331 104.734375,135.16666666666666 C104.734375,141 104.734375,146 143.515625,156"/><path d=" M144.25390625,76 C104.734375,86 104.734375,91 104.734375,96.83333333333333 C104.734375,102.66666666666666 104.734375,109.33333333333333 104.734375,116 C104.734375,122.66666666666666 104.734375,129.33333333333331 104.734375,135.16666666666666 C104.734375,141 104.734375,146 143.515625,156" class="clickable"/></g><path d="M 143.515625,156 L 150.515625,153.5 L 150.515625,158.5 Z" transform="rotate(-165.54087711755727 143.515625 156)" class="arrow" style="fill:rgb(48, 48, 48);stroke-linejoin:miter;stroke-miterlimit:2;"/></g></g></g></svg>