<svg xmlns="http://www.w3.org/2000/svg" id="sprotty_root" class="sprotty-graph sprotty-state-machine statemachine" style="font-family:&quot;Noto Sans&quot;, Helvetica, Arial, sans-serif;perspective-origin:0px 0px;transform-origin:0px 0px;" version="1.1" viewBox="10 10 365.77473958333337 238" width="365.77473958333337" height="238"><g transform="scale(1) translate(0,0)"><g id="sprotty_fsm$state_q" transform="translate(15, 15)" class="statemachine"><g class="sprotty-block" style="fill:rgb(255, 255, 255);stroke:rgb(48, 48, 48);stroke-dasharray:0px;"><rect x="0" y="0" rx="1" ry="1" width="355.77473958333337" height="228"/><text x="177.88736979166669" y="12" class="sprotty-block-name" style="cursor:pointer;font-weight:700;perspective-origin:177.891px 0px;fill:rgb(48, 48, 48);stroke:rgba(0, 0, 0, 0);dominant-baseline:middle;text-anchor:middle;">state_q</text><line x1="0" y1="20" x2="355.77473958333337" y2="20"/></g><g id="sprotty_fsm$state_q/state$GenReq" transform="translate(103.68489583333334, 106)" class="state"><ellipse cx="35.21875" cy="20" rx="35.21875" ry="20" class="sprotty-node clickable" style="fill:rgb(255, 255, 255);stroke:rgb(48, 48, 48);"/><text class="clickable sprotty-label state" id="sprotty_fsm$state_q/state$GenReq/label" transform="translate(6, 8) translate(29.21875, 19)" style="cursor:default;perspective-origin:0px 0px;fill:rgb(48, 48, 48);text-anchor:middle;">GenReq</text></g><g id="sprotty_fsm$state_q/state$Idle" transform="translate(82.359375, 176)" class="state"><ellipse cx="20.09375" cy="20" rx="20.09375" ry="20" class="sprotty-node clickable" style="fill:rgb(255, 255, 255);stroke:rgb(48, 48, 48);"/><text class="clickable sprotty-label state" id="sprotty_fsm$state_q/state$Idle/label" transform="translate(6, 8) translate(14.03125, 19)" style="cursor:default;perspective-origin:0.0625px 0px;fill:rgb(48, 48, 48);text-anchor:middle;">Idle</text></g><g id="sprotty_fsm$state_q/state$SendSOP" transform="translate(202.99088541666669, 36)" class="state"><ellipse cx="40.828125" cy="20" rx="40.828125" ry="20" class="sprotty-node clickable" style="fill:rgb(255, 255, 255);stroke:rgb(48, 48, 48);"/><text class="clickable sprotty-label state" id="sprotty_fsm$state_q/state$SendSOP/label" transform="translate(6, 8) translate(34.828125, 19)" style="cursor:default;perspective-origin:0px 0px;fill:rgb(48, 48, 48);text-anchor:middle;">SendSOP</text></g><g id="sprotty_fsm$state_q/state$Error" transform="translate(12, 36)" class="dead state"><ellipse cx="25.1796875" cy="20" rx="25.1796875" ry="20" class="sprotty-node clickable" style="fill:rgb(194, 94, 95);stroke:rgb(135, 51, 52);"/><text class="clickable sprotty-label state" id="sprotty_fsm$state_q/state$Error/label" transform="translate(6, 8) translate(18.78125, 19)" style="cursor:default;perspective-origin:0.390625px 0px;fill:rgb(48, 48, 48);text-anchor:middle;">Error</text></g><g id="sprotty_fsm$state_q/state$CmdAck" transform="translate(104.17838541666669, 36)" class="state"><ellipse cx="36.90625" cy="20" rx="36.90625" ry="20" class="sprotty-node clickable" style="fill:rgb(255, 255, 255);stroke:rgb(48, 48, 48);"/><text class="clickable sprotty-label state" id="sprotty_fsm$state_q/state$CmdAck/label" transform="translate(6, 8) translate(30.828125, 19)" style="cursor:default;perspective-origin:0.078125px 0px;fill:rgb(48, 48, 48);text-anchor:middle;">CmdAck</text></g><g id="sprotty_fsm$state_q/state$SendMOP" transform="translate(258.68098958333337, 106)" class="state"><ellipse cx="42.546875" cy="20" rx="42.546875" ry="20" class="sprotty-node clickable" style="fill:rgb(255, 255, 255);stroke:rgb(48, 48, 48);"/><text class="clickable sprotty-label state" id="sprotty_fsm$state_q/state$SendMOP/label" transform="translate(6, 8) translate(36.546875, 19)" style="cursor:default;perspective-origin:0px 0px;fill:rgb(48, 48, 48);text-anchor:middle;">SendMOP</text></g><g id="sprotty_fsm$state_q/state$GenCmdChk" transform="translate(180.14322916666669, 176)" class="state"><ellipse cx="52.7734375" cy="20" rx="52.7734375" ry="20" class="sprotty-node clickable" style="fill:rgb(255, 255, 255);stroke:rgb(48, 48, 48);"/><text class="clickable sprotty-label state" id="sprotty_fsm$state_q/state$GenCmdChk/label" transform="translate(6, 8) translate(46.6875, 19)" style="cursor:default;perspective-origin:0.078125px 0px;fill:rgb(48, 48, 48);text-anchor:middle;">GenCmdChk</text></g><g id="sprotty_fsm$state_q/state$Idle_to_fsm$state_q/state$SendSOP" class="sprotty-edge transition" style="fill:none;stroke:rgb(48, 48, 48);stroke-linejoin:round;"><g><path d=" M95.75520833333333,176 C85.21354166666666,161 85.21354166666666,153.5 85.21354166666666,146.41666666666666 C85.21354166666666,139.33333333333331 85.21354166666666,132.66666666666666 85.21354166666666,126 C85.21354166666666,119.33333333333333 85.21354166666666,112.66666666666666 85.21354166666666,105.58333333333333 C85.21354166666666,98.5 85.21354166666666,91 223.40494791666669,76"/><path d=" M95.75520833333333,176 C85.21354166666666,161 85.21354166666666,153.5 85.21354166666666,146.41666666666666 C85.21354166666666,139.33333333333331 85.21354166666666,132.66666666666666 85.21354166666666,126 C85.21354166666666,119.33333333333333 85.21354166666666,112.66666666666666 85.21354166666666,105.58333333333333 C85.21354166666666,98.5 85.21354166666666,91 223.40494791666669,76" class="clickable"/></g><path d="M 223.40494791666669,76 L 230.40494791666669,73.5 L 230.40494791666669,78.5 Z" transform="rotate(173.8050775206036 223.40494791666669 76)" class="arrow" style="fill:rgb(48, 48, 48);stroke-linejoin:miter;stroke-miterlimit:2;"/></g><g id="sprotty_fsm$state_q/state$SendSOP_to_fsm$state_q/state$GenCmdChk" class="sprotty-edge transition" style="fill:none;stroke:rgb(48, 48, 48);stroke-linejoin:round;"><g><path d=" M243.81901041666669,76 C247.68098958333334,91 247.68098958333334,98.5 247.68098958333334,105.58333333333333 C247.68098958333334,112.66666666666666 247.68098958333334,119.33333333333333 247.68098958333334,126 C247.68098958333334,132.66666666666666 247.68098958333334,139.33333333333331 247.68098958333334,146.41666666666666 C247.68098958333334,153.5 247.68098958333334,161 243.47135416666669,176"/><path d=" M243.81901041666669,76 C247.68098958333334,91 247.68098958333334,98.5 247.68098958333334,105.58333333333333 C247.68098958333334,112.66666666666666 247.68098958333334,119.33333333333333 247.68098958333334,126 C247.68098958333334,132.66666666666666 247.68098958333334,139.33333333333331 247.68098958333334,146.41666666666666 C247.68098958333334,153.5 247.68098958333334,161 243.47135416666669,176" class="clickable"/></g><path d="M 243.47135416666669,176 L 250.47135416666669,173.5 L 250.47135416666669,178.5 Z" transform="rotate(-74.32363036140664 243.47135416666669 176)" class="arrow" style="fill:rgb(48, 48, 48);stroke-linejoin:miter;stroke-miterlimit:2;"/></g><g id="sprotty_fsm$state_q/state$SendSOP_to_fsm$state_q/state$SendMOP" class="sprotty-edge transition" style="fill:none;stroke:rgb(48, 48, 48);stroke-linejoin:round;"><g><path d=" M264.2330729166667,76 C264.2330729166667,76 297.52838541666665,91 301.22786458333337,106"/><path d=" M264.2330729166667,76 C264.2330729166667,76 297.52838541666665,91 301.22786458333337,106" class="clickable"/></g><path d="M 301.22786458333337,106 L 308.22786458333337,103.5 L 308.22786458333337,108.5 Z" transform="rotate(-103.85447615337566 301.22786458333337 106)" class="arrow" style="fill:rgb(48, 48, 48);stroke-linejoin:miter;stroke-miterlimit:2;"/></g><g id="sprotty_fsm$state_q/state$SendMOP_to_fsm$state_q/state$GenCmdChk" class="sprotty-edge transition" style="fill:none;stroke:rgb(48, 48, 48);stroke-linejoin:round;"><g><path d=" M301.22786458333337,146 C301.22786458333337,146 297.5631510416667,161 264.5807291666667,176"/><path d=" M301.22786458333337,146 C301.22786458333337,146 297.5631510416667,161 264.5807291666667,176" class="clickable"/></g><path d="M 264.5807291666667,176 L 271.5807291666667,173.5 L 271.5807291666667,178.5 Z" transform="rotate(-24.45545703126506 264.5807291666667 176)" class="arrow" style="fill:rgb(48, 48, 48);stroke-linejoin:miter;stroke-miterlimit:2;"/></g><g id="sprotty_fsm$state_q/state$GenCmdChk_to_fsm$state_q/state$CmdAck" class="sprotty-edge transition" style="fill:none;stroke:rgb(48, 48, 48);stroke-linejoin:round;"><g><path d=" M222.36197916666669,176 C184.12239583333334,161 184.12239583333334,153.5 184.12239583333334,146.41666666666666 C184.12239583333334,139.33333333333331 184.12239583333334,132.66666666666666 184.12239583333334,126 C184.12239583333334,119.33333333333333 184.12239583333334,112.66666666666666 184.12239583333334,105.58333333333333 C184.12239583333334,98.5 184.12239583333334,91 153.38671875,76"/><path d=" M222.36197916666669,176 C184.12239583333334,161 184.12239583333334,153.5 184.12239583333334,146.41666666666666 C184.12239583333334,139.33333333333331 184.12239583333334,132.66666666666666 184.12239583333334,126 C184.12239583333334,119.33333333333333 184.12239583333334,112.66666666666666 184.12239583333334,105.58333333333333 C184.12239583333334,98.5 184.12239583333334,91 153.38671875,76" class="clickable"/></g><path d="M 153.38671875,76 L 160.38671875,73.5 L 160.38671875,78.5 Z" transform="rotate(26.013865806747642 153.38671875 76)" class="arrow" style="fill:rgb(48, 48, 48);stroke-linejoin:miter;stroke-miterlimit:2;"/></g><g id="sprotty_fsm$state_q/state$CmdAck_to_fsm$state_q/state$GenReq" class="sprotty-edge transition" style="fill:none;stroke:rgb(48, 48, 48);stroke-linejoin:round;"><g><path d=" M128.78255208333334,76 C128.78255208333334,76 137.89153645833335,91 138.90364583333334,106"/><path d=" M128.78255208333334,76 C128.78255208333334,76 137.89153645833335,91 138.90364583333334,106" class="clickable"/></g><path d="M 138.90364583333334,106 L 145.90364583333334,103.5 L 145.90364583333334,108.5 Z" transform="rotate(-93.8601220969292 138.90364583333334 106)" class="arrow" style="fill:rgb(48, 48, 48);stroke-linejoin:miter;stroke-miterlimit:2;"/></g><g id="sprotty_fsm$state_q/state$GenReq_to_fsm$state_q/state$Idle" class="sprotty-edge transition" style="fill:none;stroke:rgb(48, 48, 48);stroke-linejoin:round;"><g><path d=" M127.1640625,146 C127.1640625,146 118.15755208333334,161 109.15104166666667,176"/><path d=" M127.1640625,146 C127.1640625,146 118.15755208333334,161 109.15104166666667,176" class="clickable"/></g><path d="M 109.15104166666667,176 L 116.15104166666667,173.5 L 116.15104166666667,178.5 Z" transform="rotate(-59.01796170458949 109.15104166666667 176)" class="arrow" style="fill:rgb(48, 48, 48);stroke-linejoin:miter;stroke-miterlimit:2;"/></g><g id="sprotty_fsm$state_q/state$GenReq_to_fsm$state_q/state$GenCmdChk" class="sprotty-edge transition" style="fill:none;stroke:rgb(48, 48, 48);stroke-linejoin:round;"><g><path d=" M150.64322916666669,146 C150.64322916666669,146 155.70416666666668,161 201.25260416666669,176"/><path d=" M150.64322916666669,146 C150.64322916666669,146 155.70416666666668,161 201.25260416666669,176" class="clickable"/></g><path d="M 201.25260416666669,176 L 208.25260416666669,173.5 L 208.25260416666669,178.5 Z" transform="rotate(-161.7722650800889 201.25260416666669 176)" class="arrow" style="fill:rgb(48, 48, 48);stroke-linejoin:miter;stroke-miterlimit:2;"/></g></g></g></svg>