<svg xmlns="http://www.w3.org/2000/svg" id="sprotty_root" class="sprotty-graph sprotty-state-machine statemachine" style="font-family:&quot;Noto Sans&quot;, Helvetica, Arial, sans-serif;perspective-origin:0px 0px;transform-origin:0px 0px;" version="1.1" viewBox="10 10 113.125 218" width="113.125" height="218"><g transform="scale(1) translate(0,0)"><g id="sprotty_fsm$state_q" transform="translate(15, 15)" class="statemachine"><g class="sprotty-block" style="fill:rgb(255, 255, 255);stroke:rgb(48, 48, 48);stroke-dasharray:0px;"><rect x="0" y="0" rx="1" ry="1" width="103.125" height="208"/><text x="51.5625" y="12" class="sprotty-block-name" style="cursor:pointer;font-weight:700;perspective-origin:51.5625px 0px;fill:rgb(48, 48, 48);stroke:rgba(0, 0, 0, 0);dominant-baseline:middle;text-anchor:middle;">state_q</text><line x1="0" y1="20" x2="103.125" y2="20"/></g><g id="sprotty_fsm$state_q/state$ReqIdle" transform="translate(16.9765625, 156)" class="state"><ellipse cx="34.4765625" cy="20" rx="34.4765625" ry="20" class="sprotty-node clickable" style="fill:rgb(255, 255, 255);stroke:rgb(48, 48, 48);"/><text class="clickable sprotty-label state" id="sprotty_fsm$state_q/state$ReqIdle/label" transform="translate(6, 8) translate(28.40625, 19)" style="cursor:default;perspective-origin:0.0625px 0px;fill:rgb(48, 48, 48);text-anchor:middle;">ReqIdle</text></g><g id="sprotty_fsm$state_q/state$ReqError" transform="translate(12, 36)" class="dead state"><ellipse cx="39.5625" cy="20" rx="39.5625" ry="20" class="sprotty-node clickable" style="fill:rgb(194, 94, 95);stroke:rgb(135, 51, 52);"/><text class="clickable sprotty-label state" id="sprotty_fsm$state_q/state$ReqError/label" transform="translate(6, 8) translate(33.171875, 19)" style="cursor:default;perspective-origin:0.390625px 0px;fill:rgb(48, 48, 48);text-anchor:middle;">ReqError</text></g><g id="sprotty_fsm$state_q/state$ReqSend" transform="translate(12, 96)" class="state"><ellipse cx="39.453125" cy="20" rx="39.453125" ry="20" class="sprotty-node clickable" style="fill:rgb(255, 255, 255);stroke:rgb(48, 48, 48);"/><text class="clickable sprotty-label state" id="sprotty_fsm$state_q/state$ReqSend/label" transform="translate(6, 8) translate(33.453125, 19)" style="cursor:default;perspective-origin:0px 0px;fill:rgb(48, 48, 48);text-anchor:middle;">ReqSend</text></g><g id="sprotty_fsm$state_q/state$ReqIdle_to_fsm$state_q/state$ReqSend" class="sprotty-edge transition" style="fill:none;stroke:rgb(48, 48, 48);stroke-linejoin:round;"><g><path d=" M62.9453125,156 C63.77473958333333,146 64.60416666666666,136 64.60416666666666,136"/><path d=" M62.9453125,156 C63.77473958333333,146 64.60416666666666,136 64.60416666666666,136" class="clickable"/></g><path d="M 64.60416666666666,136 L 71.60416666666666,133.5 L 71.60416666666666,138.5 Z" transform="rotate(94.74141416226085 64.60416666666666 136)" class="arrow" style="fill:rgb(48, 48, 48);stroke-linejoin:miter;stroke-miterlimit:2;"/></g><g id="sprotty_fsm$state_q/state$ReqSend_to_fsm$state_q/state$ReqIdle" class="sprotty-edge transition" style="fill:none;stroke:rgb(48, 48, 48);stroke-linejoin:round;"><g><path d=" M38.30208333333333,136 C38.30208333333333,136 39.131510416666664,146 39.9609375,156"/><path d=" M38.30208333333333,136 C38.30208333333333,136 39.131510416666664,146 39.9609375,156" class="clickable"/></g><path d="M 39.9609375,156 L 46.9609375,153.5 L 46.9609375,158.5 Z" transform="rotate(-94.7414141622609 39.9609375 156)" class="arrow" style="fill:rgb(48, 48, 48);stroke-linejoin:miter;stroke-miterlimit:2;"/></g></g></g></svg>