<svg xmlns="http://www.w3.org/2000/svg" id="sprotty_root" class="sprotty-graph sprotty-state-machine statemachine" style="font-family:&quot;Noto Sans&quot;, Helvetica, Arial, sans-serif;perspective-origin:0px 0px;transform-origin:0px 0px;" version="1.1" viewBox="10 10 174.640625 228" width="174.640625" height="228"><g transform="scale(1) translate(0,0)"><g id="sprotty_fsm$state_q" transform="translate(15, 15)" class="statemachine"><g class="sprotty-block" style="fill:rgb(255, 255, 255);stroke:rgb(48, 48, 48);stroke-dasharray:0px;"><rect x="0" y="0" rx="1" ry="1" width="164.640625" height="218"/><text x="82.3203125" y="12" class="sprotty-block-name" style="cursor:pointer;font-weight:700;perspective-origin:82.3125px 0px;fill:rgb(48, 48, 48);stroke:rgba(0, 0, 0, 0);dominant-baseline:middle;text-anchor:middle;">state_q</text><line x1="0" y1="20" x2="164.640625" y2="20"/></g><g id="sprotty_fsm$state_q/state$CmdExecuting" transform="translate(14.4140625, 166)" class="state"><ellipse cx="59.71875" cy="20" rx="59.71875" ry="20" class="sprotty-node clickable" style="fill:rgb(255, 255, 255);stroke:rgb(48, 48, 48);"/><text class="clickable sprotty-label state" id="sprotty_fsm$state_q/state$CmdExecuting/label" transform="translate(6, 8) translate(53.71875, 19)" style="cursor:default;perspective-origin:0px 0px;fill:rgb(48, 48, 48);text-anchor:middle;">CmdExecuting</text></g><g id="sprotty_fsm$state_q/state$Idle" transform="translate(41.369791666666664, 36)" class="state"><ellipse cx="25" cy="20" rx="25" ry="20" class="sprotty-node clickable" style="fill:rgb(255, 255, 255);stroke:rgb(48, 48, 48);"/><text class="clickable sprotty-label state" id="sprotty_fsm$state_q/state$Idle/label" transform="translate(10.90625, 8) translate(14.03125, 19)" style="cursor:default;perspective-origin:0.0625px 0px;fill:rgb(48, 48, 48);text-anchor:middle;">Idle</text></g><g id="sprotty_fsm$state_q/state$Go" transform="translate(119.890625, 106)" class="state"><ellipse cx="16.375" cy="20" rx="16.375" ry="20" class="sprotty-node clickable" style="fill:rgb(255, 255, 255);stroke:rgb(48, 48, 48);"/><text class="clickable sprotty-label state" id="sprotty_fsm$state_q/state$Go/label" transform="translate(6, 8) translate(10.375, 19)" style="cursor:default;perspective-origin:0px 0px;fill:rgb(48, 48, 48);text-anchor:middle;">Go</text></g><g id="sprotty_fsm$state_q/state$Resume" transform="translate(23, 106)" class="state"><ellipse cx="35.9453125" cy="20" rx="35.9453125" ry="20" class="sprotty-node clickable" style="fill:rgb(255, 255, 255);stroke:rgb(48, 48, 48);"/><text class="clickable sprotty-label state" id="sprotty_fsm$state_q/state$Resume/label" transform="translate(6, 8) translate(29.875, 19)" style="cursor:default;perspective-origin:0.0625px 0px;fill:rgb(48, 48, 48);text-anchor:middle;">Resume</text></g><g id="sprotty_fsm$state_q/state$Idle_to_fsm$state_q/state$Go" class="sprotty-edge transition" style="fill:none;stroke:rgb(48, 48, 48);stroke-linejoin:round;"><g><path d=" M81.36979166666666,76 C81.36979166666666,76 130.77604166666666,91 136.265625,106"/><path d=" M81.36979166666666,76 C81.36979166666666,76 130.77604166666666,91 136.265625,106" class="clickable"/></g><path d="M 136.265625,106 L 143.265625,103.5 L 143.265625,108.5 Z" transform="rotate(-110.1012222361222 136.265625 106)" class="arrow" style="fill:rgb(48, 48, 48);stroke-linejoin:miter;stroke-miterlimit:2;"/></g><g id="sprotty_fsm$state_q/state$Idle_to_fsm$state_q/state$Resume" class="sprotty-edge transition" style="fill:none;stroke:rgb(48, 48, 48);stroke-linejoin:round;"><g><path d=" M71.36979166666666,76 C71.36979166666666,76 70.97135416666666,91 70.92708333333333,106"/><path d=" M71.36979166666666,76 C71.36979166666666,76 70.97135416666666,91 70.92708333333333,106" class="clickable"/></g><path d="M 70.92708333333333,106 L 77.92708333333333,103.5 L 77.92708333333333,108.5 Z" transform="rotate(-89.83089836396141 70.92708333333333 106)" class="arrow" style="fill:rgb(48, 48, 48);stroke-linejoin:miter;stroke-miterlimit:2;"/></g><g id="sprotty_fsm$state_q/state$Go_to_fsm$state_q/state$CmdExecuting" class="sprotty-edge transition" style="fill:none;stroke:rgb(48, 48, 48);stroke-linejoin:round;"><g><path d=" M136.265625,146 C136.265625,146 132.04296875,156 94.0390625,166"/><path d=" M136.265625,146 C136.265625,146 132.04296875,156 94.0390625,166" class="clickable"/></g><path d="M 94.0390625,166 L 101.0390625,163.5 L 101.0390625,168.5 Z" transform="rotate(-14.74211341856997 94.0390625 166)" class="arrow" style="fill:rgb(48, 48, 48);stroke-linejoin:miter;stroke-miterlimit:2;"/></g><g id="sprotty_fsm$state_q/state$Resume_to_fsm$state_q/state$Idle" class="sprotty-edge transition" style="fill:none;stroke:rgb(48, 48, 48);stroke-linejoin:round;"><g><path d=" M46.963541666666664,106 C48.40416666666667,91 61.369791666666664,76 61.369791666666664,76"/><path d=" M46.963541666666664,106 C48.40416666666667,91 61.369791666666664,76 61.369791666666664,76" class="clickable"/></g><path d="M 61.369791666666664,76 L 68.36979166666666,73.5 L 68.36979166666666,78.5 Z" transform="rotate(130.83931554165977 61.369791666666664 76)" class="arrow" style="fill:rgb(48, 48, 48);stroke-linejoin:miter;stroke-miterlimit:2;"/></g><g id="sprotty_fsm$state_q/state$CmdExecuting_to_fsm$state_q/state$Idle" class="sprotty-edge transition" style="fill:none;stroke:rgb(48, 48, 48);stroke-linejoin:round;"><g><path d=" M54.2265625,166 C12,156 12,151 12,145.16666666666666 C12,139.33333333333331 12,132.66666666666666 12,126 C12,119.33333333333333 12,112.66666666666666 12,105.58333333333333 C12,98.5 12,91 51.369791666666664,76"/><path d=" M54.2265625,166 C12,156 12,151 12,145.16666666666666 C12,139.33333333333331 12,132.66666666666666 12,126 C12,119.33333333333333 12,112.66666666666666 12,105.58333333333333 C12,98.5 12,91 51.369791666666664,76" class="clickable"/></g><path d="M 51.369791666666664,76 L 58.369791666666664,73.5 L 58.369791666666664,78.5 Z" transform="rotate(159.14302040272904 51.369791666666664 76)" class="arrow" style="fill:rgb(48, 48, 48);stroke-linejoin:miter;stroke-miterlimit:2;"/></g></g></g></svg>