<svg xmlns="http://www.w3.org/2000/svg" id="sprotty_root" class="sprotty-graph sprotty-state-machine statemachine" style="font-family:&quot;Noto Sans&quot;, Helvetica, Arial, sans-serif;perspective-origin:0px 0px;transform-origin:0px 0px;" version="1.1" viewBox="10 10 306.4375 228" width="306.4375" height="228"><g transform="scale(1) translate(0,0)"><g id="sprotty_fsm$state_q" transform="translate(15, 15)" class="statemachine"><g class="sprotty-block" style="fill:rgb(255, 255, 255);stroke:rgb(48, 48, 48);stroke-dasharray:0px;"><rect x="0" y="0" rx="1" ry="1" width="296.4375" height="218"/><text x="148.21875" y="12" class="sprotty-block-name" style="cursor:pointer;font-weight:700;perspective-origin:148.219px 0px;fill:rgb(48, 48, 48);stroke:rgba(0, 0, 0, 0);dominant-baseline:middle;text-anchor:middle;">state_q</text><line x1="0" y1="20" x2="296.4375" y2="20"/></g><g id="sprotty_fsm$state_q/state$Read" transform="translate(22.5859375, 36)" class="state"><ellipse cx="24.78125" cy="20" rx="24.78125" ry="20" class="sprotty-node clickable" style="fill:rgb(255, 255, 255);stroke:rgb(48, 48, 48);"/><text class="clickable sprotty-label state" id="sprotty_fsm$state_q/state$Read/label" transform="translate(6, 8) translate(18.78125, 19)" style="cursor:default;perspective-origin:0px 0px;fill:rgb(48, 48, 48);text-anchor:middle;">Read</text></g><g id="sprotty_fsm$state_q/state$Write" transform="translate(162.484375, 36)" class="state"><ellipse cx="25.7265625" cy="20" rx="25.7265625" ry="20" class="sprotty-node clickable" style="fill:rgb(255, 255, 255);stroke:rgb(48, 48, 48);"/><text class="clickable sprotty-label state" id="sprotty_fsm$state_q/state$Write/label" transform="translate(6, 8) translate(19.65625, 19)" style="cursor:default;perspective-origin:0.0625px 0px;fill:rgb(48, 48, 48);text-anchor:middle;">Write</text></g><g id="sprotty_fsm$state_q/state$WaitWriteValid" transform="translate(163.46875, 96)" class="state"><ellipse cx="60.484375" cy="20" rx="60.484375" ry="20" class="sprotty-node clickable" style="fill:rgb(255, 255, 255);stroke:rgb(48, 48, 48);"/><text class="clickable sprotty-label state" id="sprotty_fsm$state_q/state$WaitWriteValid/label" transform="translate(6, 8) translate(54.484375, 19)" style="cursor:default;perspective-origin:0px 0px;fill:rgb(48, 48, 48);text-anchor:middle;">WaitWriteValid</text></g><g id="sprotty_fsm$state_q/state$Idle" transform="translate(92.60156249999997, 166)" class="state"><ellipse cx="25" cy="20" rx="25" ry="20" class="sprotty-node clickable" style="fill:rgb(255, 255, 255);stroke:rgb(48, 48, 48);"/><text class="clickable sprotty-label state" id="sprotty_fsm$state_q/state$Idle/label" transform="translate(10.90625, 8) translate(14.03125, 19)" style="cursor:default;perspective-origin:0.0625px 0px;fill:rgb(48, 48, 48);text-anchor:middle;">Idle</text></g><g id="sprotty_fsm$state_q/state$WaitReadValid" transform="translate(22.99999999999997, 96)" class="state"><ellipse cx="59.734375" cy="20" rx="59.734375" ry="20" class="sprotty-node clickable" style="fill:rgb(255, 255, 255);stroke:rgb(48, 48, 48);"/><text class="clickable sprotty-label state" id="sprotty_fsm$state_q/state$WaitReadValid/label" transform="translate(6, 8) translate(53.734375, 19)" style="cursor:default;perspective-origin:0px 0px;fill:rgb(48, 48, 48);text-anchor:middle;">WaitReadValid</text></g><g id="sprotty_fsm$state_q/state$Idle_to_fsm$state_q/state$Read" class="sprotty-edge transition" style="fill:none;stroke:rgb(48, 48, 48);stroke-linejoin:round;"><g><path d=" M102.60156249999997,166 C12,151 12,143.5 12,136.41666666666666 C12,129.33333333333331 12,122.66666666666666 12,116 C12,109.33333333333333 12,102.66666666666666 12,96.83333333333333 C12,91 12,86 39.10677083333333,76"/><path d=" M102.60156249999997,166 C12,151 12,143.5 12,136.41666666666666 C12,129.33333333333331 12,122.66666666666666 12,116 C12,109.33333333333333 12,102.66666666666666 12,96.83333333333333 C12,91 12,86 39.10677083333333,76" class="clickable"/></g><path d="M 39.10677083333333,76 L 46.10677083333333,73.5 L 46.10677083333333,78.5 Z" transform="rotate(159.75040134992176 39.10677083333333 76)" class="arrow" style="fill:rgb(48, 48, 48);stroke-linejoin:miter;stroke-miterlimit:2;"/></g><g id="sprotty_fsm$state_q/state$Idle_to_fsm$state_q/state$Write" class="sprotty-edge transition" style="fill:none;stroke:rgb(48, 48, 48);stroke-linejoin:round;"><g><path d=" M122.60156249999997,166 C152.46875,151 152.46875,143.5 152.46875,136.41666666666666 C152.46875,129.33333333333331 152.46875,122.66666666666666 152.46875,116 C152.46875,109.33333333333333 152.46875,102.66666666666666 152.46875,96.83333333333333 C152.46875,91 152.46875,86 179.63541666666666,76"/><path d=" M122.60156249999997,166 C152.46875,151 152.46875,143.5 152.46875,136.41666666666666 C152.46875,129.33333333333331 152.46875,122.66666666666666 152.46875,116 C152.46875,109.33333333333333 152.46875,102.66666666666666 152.46875,96.83333333333333 C152.46875,91 152.46875,86 179.63541666666666,76" class="clickable"/></g><path d="M 179.63541666666666,76 L 186.63541666666666,73.5 L 186.63541666666666,78.5 Z" transform="rotate(159.79143166293744 179.63541666666666 76)" class="arrow" style="fill:rgb(48, 48, 48);stroke-linejoin:miter;stroke-miterlimit:2;"/></g><g id="sprotty_fsm$state_q/state$Read_to_fsm$state_q/state$WaitReadValid" class="sprotty-edge transition" style="fill:none;stroke:rgb(48, 48, 48);stroke-linejoin:round;"><g><path d=" M55.627604166666664,76 C55.62760416666666,76 80.02369791666663,86 82.73437499999997,96"/><path d=" M55.627604166666664,76 C55.62760416666666,76 80.02369791666663,86 82.73437499999997,96" class="clickable"/></g><path d="M 82.73437499999997,96 L 89.73437499999997,93.5 L 89.73437499999997,98.5 Z" transform="rotate(-105.16657831752607 82.73437499999997 96)" class="arrow" style="fill:rgb(48, 48, 48);stroke-linejoin:miter;stroke-miterlimit:2;"/></g><g id="sprotty_fsm$state_q/state$WaitReadValid_to_fsm$state_q/state$Idle" class="sprotty-edge transition" style="fill:none;stroke:rgb(48, 48, 48);stroke-linejoin:round;"><g><path d=" M82.73437499999997,136 C82.73437499999997,136 85.72109374999997,151 112.60156249999997,166"/><path d=" M82.73437499999997,136 C82.73437499999997,136 85.72109374999997,151 112.60156249999997,166" class="clickable"/></g><path d="M 112.60156249999997,166 L 119.60156249999997,163.5 L 119.60156249999997,168.5 Z" transform="rotate(-150.83734754706924 112.60156249999997 166)" class="arrow" style="fill:rgb(48, 48, 48);stroke-linejoin:miter;stroke-miterlimit:2;"/></g><g id="sprotty_fsm$state_q/state$Write_to_fsm$state_q/state$WaitWriteValid" class="sprotty-edge transition" style="fill:none;stroke:rgb(48, 48, 48);stroke-linejoin:round;"><g><path d=" M196.78645833333334,76 C196.78645833333331,76 221.2364583333333,86 223.953125,96"/><path d=" M196.78645833333334,76 C196.78645833333331,76 221.2364583333333,86 223.953125,96" class="clickable"/></g><path d="M 223.953125,96 L 230.953125,93.5 L 230.953125,98.5 Z" transform="rotate(-105.19854227108767 223.953125 96)" class="arrow" style="fill:rgb(48, 48, 48);stroke-linejoin:miter;stroke-miterlimit:2;"/></g><g id="sprotty_fsm$state_q/state$WaitWriteValid_to_fsm$state_q/state$Idle" class="sprotty-edge transition" style="fill:none;stroke:rgb(48, 48, 48);stroke-linejoin:round;"><g><path d=" M223.953125,136 C223.953125,136 214.81796874999998,151 132.60156249999997,166"/><path d=" M223.953125,136 C223.953125,136 214.81796874999998,151 132.60156249999997,166" class="clickable"/></g><path d="M 132.60156249999997,166 L 139.60156249999997,163.5 L 139.60156249999997,168.5 Z" transform="rotate(-10.339626140471468 132.60156249999997 166)" class="arrow" style="fill:rgb(48, 48, 48);stroke-linejoin:miter;stroke-miterlimit:2;"/></g></g></g></svg>