<svg xmlns="http://www.w3.org/2000/svg" id="sprotty_root" class="sprotty-graph sprotty-state-machine statemachine" style="font-family:&quot;Noto Sans&quot;, Helvetica, Arial, sans-serif;perspective-origin:0px 0px;transform-origin:0px 0px;" version="1.1" viewBox="10 10 609.1712239583334 468" width="609.1712239583334" height="468"><g transform="scale(1) translate(0,0)"><g id="sprotty_fsm$tap_state_q" transform="translate(15, 15)" class="statemachine"><g class="sprotty-block" style="fill:rgb(255, 255, 255);stroke:rgb(48, 48, 48);stroke-dasharray:0px;"><rect x="0" y="0" rx="1" ry="1" width="599.1712239583334" height="458"/><text x="299.5856119791667" y="12" class="sprotty-block-name" style="cursor:pointer;font-weight:700;perspective-origin:299.578px 0px;fill:rgb(48, 48, 48);stroke:rgba(0, 0, 0, 0);dominant-baseline:middle;text-anchor:middle;">tap_state_q</text><line x1="0" y1="20" x2="599.1712239583334" y2="20"/></g><g id="sprotty_fsm$tap_state_q/state$PauseIr" transform="translate(44.70963541666666, 156)" class="state"><ellipse cx="34.0703125" cy="20" rx="34.0703125" ry="20" class="sprotty-node clickable" style="fill:rgb(255, 255, 255);stroke:rgb(48, 48, 48);"/><text class="clickable sprotty-label state" id="sprotty_fsm$tap_state_q/state$PauseIr/label" transform="translate(6, 8) translate(27.671875, 19)" style="cursor:default;perspective-origin:0.390625px 0px;fill:rgb(48, 48, 48);text-anchor:middle;">PauseIr</text></g><g id="sprotty_fsm$tap_state_q/state$CaptureIr" transform="translate(150.732421875, 36)" class="state"><ellipse cx="41.59375" cy="20" rx="41.59375" ry="20" class="sprotty-node clickable" style="fill:rgb(255, 255, 255);stroke:rgb(48, 48, 48);"/><text class="clickable sprotty-label state" id="sprotty_fsm$tap_state_q/state$CaptureIr/label" transform="translate(6, 8) translate(35.203125, 19)" style="cursor:default;perspective-origin:0.390625px 0px;fill:rgb(48, 48, 48);text-anchor:middle;">CaptureIr</text></g><g id="sprotty_fsm$tap_state_q/state$ShiftDr" transform="translate(460.77473958333337, 276)" class="state"><ellipse cx="32.453125" cy="20" rx="32.453125" ry="20" class="sprotty-node clickable" style="fill:rgb(255, 255, 255);stroke:rgb(48, 48, 48);"/><text class="clickable sprotty-label state" id="sprotty_fsm$tap_state_q/state$ShiftDr/label" transform="translate(6, 8) translate(26.0625, 19)" style="cursor:default;perspective-origin:0.390625px 0px;fill:rgb(48, 48, 48);text-anchor:middle;">ShiftDr</text></g><g id="sprotty_fsm$tap_state_q/state$RunTestIdle" transform="translate(215.77799479166666, 336)" class="state"><ellipse cx="49.9140625" cy="20" rx="49.9140625" ry="20" class="sprotty-node clickable" style="fill:rgb(255, 255, 255);stroke:rgb(48, 48, 48);"/><text class="clickable sprotty-label state" id="sprotty_fsm$tap_state_q/state$RunTestIdle/label" transform="translate(6, 8) translate(43.84375, 19)" style="cursor:default;perspective-origin:0.0625px 0px;fill:rgb(48, 48, 48);text-anchor:middle;">RunTestIdle</text></g><g id="sprotty_fsm$tap_state_q/state$TestLogicReset" transform="translate(204.08268229166666, 276)" class="state"><ellipse cx="61.609375" cy="20" rx="61.609375" ry="20" class="sprotty-node clickable" style="fill:rgb(255, 255, 255);stroke:rgb(48, 48, 48);"/><text class="clickable sprotty-label state" id="sprotty_fsm$tap_state_q/state$TestLogicReset/label" transform="translate(6, 8) translate(55.609375, 19)" style="cursor:default;perspective-origin:0px 0px;fill:rgb(48, 48, 48);text-anchor:middle;">TestLogicReset</text></g><g id="sprotty_fsm$tap_state_q/state$SelectDrScan" transform="translate(265.96549479166663, 406)" class="state"><ellipse cx="55.6875" cy="20" rx="55.6875" ry="20" class="sprotty-node clickable" style="fill:rgb(255, 255, 255);stroke:rgb(48, 48, 48);"/><text class="clickable sprotty-label state" id="sprotty_fsm$tap_state_q/state$SelectDrScan/label" transform="translate(6, 8) translate(49.6875, 19)" style="cursor:default;perspective-origin:0px 0px;fill:rgb(48, 48, 48);text-anchor:middle;">SelectDrScan</text></g><g id="sprotty_fsm$tap_state_q/state$Exit1Ir" transform="translate(54.14843749999997, 96)" class="state"><ellipse cx="29.921875" cy="20" rx="29.921875" ry="20" class="sprotty-node clickable" style="fill:rgb(255, 255, 255);stroke:rgb(48, 48, 48);"/><text class="clickable sprotty-label state" id="sprotty_fsm$tap_state_q/state$Exit1Ir/label" transform="translate(6, 8) translate(23.53125, 19)" style="cursor:default;perspective-origin:0.390625px 0px;fill:rgb(48, 48, 48);text-anchor:middle;">Exit1Ir</text></g><g id="sprotty_fsm$tap_state_q/state$Exit2Ir" transform="translate(48.85807291666666, 216)" class="state"><ellipse cx="29.921875" cy="20" rx="29.921875" ry="20" class="sprotty-node clickable" style="fill:rgb(255, 255, 255);stroke:rgb(48, 48, 48);"/><text class="clickable sprotty-label state" id="sprotty_fsm$tap_state_q/state$Exit2Ir/label" transform="translate(6, 8) translate(23.53125, 19)" style="cursor:default;perspective-origin:0.390625px 0px;fill:rgb(48, 48, 48);text-anchor:middle;">Exit2Ir</text></g><g id="sprotty_fsm$tap_state_q/state$Exit1Dr" transform="translate(408.52669270833337, 96)" class="state"><ellipse cx="33.078125" cy="20" rx="33.078125" ry="20" class="sprotty-node clickable" style="fill:rgb(255, 255, 255);stroke:rgb(48, 48, 48);"/><text class="clickable sprotty-label state" id="sprotty_fsm$tap_state_q/state$Exit1Dr/label" transform="translate(6, 8) translate(26.6875, 19)" style="cursor:default;perspective-origin:0.390625px 0px;fill:rgb(48, 48, 48);text-anchor:middle;">Exit1Dr</text></g><g id="sprotty_fsm$tap_state_q/state$Exit2Dr" transform="translate(394.59049479166674, 216)" class="state"><ellipse cx="33.078125" cy="20" rx="33.078125" ry="20" class="sprotty-node clickable" style="fill:rgb(255, 255, 255);stroke:rgb(48, 48, 48);"/><text class="clickable sprotty-label state" id="sprotty_fsm$tap_state_q/state$Exit2Dr/label" transform="translate(6, 8) translate(26.6875, 19)" style="cursor:default;perspective-origin:0.390625px 0px;fill:rgb(48, 48, 48);text-anchor:middle;">Exit2Dr</text></g><g id="sprotty_fsm$tap_state_q/state$SelectIrScan" transform="translate(233.59244791666669, 216)" class="state"><ellipse cx="52.53125" cy="20" rx="52.53125" ry="20" class="sprotty-node clickable" style="fill:rgb(255, 255, 255);stroke:rgb(48, 48, 48);"/><text class="clickable sprotty-label state" id="sprotty_fsm$tap_state_q/state$SelectIrScan/label" transform="translate(6, 8) translate(46.53125, 19)" style="cursor:default;perspective-origin:0px 0px;fill:rgb(48, 48, 48);text-anchor:middle;">SelectIrScan</text></g><g id="sprotty_fsm$tap_state_q/state$UpdateDr" transform="translate(350.94661458333337, 276)" class="state"><ellipse cx="42.4140625" cy="20" rx="42.4140625" ry="20" class="sprotty-node clickable" style="fill:rgb(255, 255, 255);stroke:rgb(48, 48, 48);"/><text class="clickable sprotty-label state" id="sprotty_fsm$tap_state_q/state$UpdateDr/label" transform="translate(6, 8) translate(36.015625, 19)" style="cursor:default;perspective-origin:0.390625px 0px;fill:rgb(48, 48, 48);text-anchor:middle;">UpdateDr</text></g><g id="sprotty_fsm$tap_state_q/state$CaptureDr" transform="translate(494.04622395833337, 36)" class="state"><ellipse cx="44.75" cy="20" rx="44.75" ry="20" class="sprotty-node clickable" style="fill:rgb(255, 255, 255);stroke:rgb(48, 48, 48);"/><text class="clickable sprotty-label state" id="sprotty_fsm$tap_state_q/state$CaptureDr/label" transform="translate(6, 8) translate(38.359375, 19)" style="cursor:default;perspective-origin:0.390625px 0px;fill:rgb(48, 48, 48);text-anchor:middle;">CaptureDr</text></g><g id="sprotty_fsm$tap_state_q/state$PauseDr" transform="translate(390.44986979166674, 156)" class="state"><ellipse cx="37.21875" cy="20" rx="37.21875" ry="20" class="sprotty-node clickable" style="fill:rgb(255, 255, 255);stroke:rgb(48, 48, 48);"/><text class="clickable sprotty-label state" id="sprotty_fsm$tap_state_q/state$PauseDr/label" transform="translate(6, 8) translate(30.828125, 19)" style="cursor:default;perspective-origin:0.390625px 0px;fill:rgb(48, 48, 48);text-anchor:middle;">PauseDr</text></g><g id="sprotty_fsm$tap_state_q/state$UpdateIr" transform="translate(12, 276)" class="state"><ellipse cx="39.2578125" cy="20" rx="39.2578125" ry="20" class="sprotty-node clickable" style="fill:rgb(255, 255, 255);stroke:rgb(48, 48, 48);"/><text class="clickable sprotty-label state" id="sprotty_fsm$tap_state_q/state$UpdateIr/label" transform="translate(6, 8) translate(32.859375, 19)" style="cursor:default;perspective-origin:0.390625px 0px;fill:rgb(48, 48, 48);text-anchor:middle;">UpdateIr</text></g><g id="sprotty_fsm$tap_state_q/state$ShiftIr" transform="translate(120.47330729166666, 276)" class="state"><ellipse cx="29.3046875" cy="20" rx="29.3046875" ry="20" class="sprotty-node clickable" style="fill:rgb(255, 255, 255);stroke:rgb(48, 48, 48);"/><text class="clickable sprotty-label state" id="sprotty_fsm$tap_state_q/state$ShiftIr/label" transform="translate(6, 8) translate(22.90625, 19)" style="cursor:default;perspective-origin:0.390625px 0px;fill:rgb(48, 48, 48);text-anchor:middle;">ShiftIr</text></g><g id="sprotty_fsm$tap_state_q/state$TestLogicReset_to_fsm$tap_state_q/state$RunTestIdle" class="sprotty-edge transition" style="fill:none;stroke:rgb(48, 48, 48);stroke-linejoin:round;"><g><path d=" M265.69205729166663,316 C265.69205729166663,316 265.69205729166663,326 265.69205729166663,336"/><path d=" M265.69205729166663,316 C265.69205729166663,316 265.69205729166663,326 265.69205729166663,336" class="clickable"/></g><path d="M 265.69205729166663,336 L 272.69205729166663,333.5 L 272.69205729166663,338.5 Z" transform="rotate(-90 265.69205729166663 336)" class="arrow" style="fill:rgb(48, 48, 48);stroke-linejoin:miter;stroke-miterlimit:2;"/></g><g id="sprotty_fsm$tap_state_q/state$RunTestIdle_to_fsm$tap_state_q/state$SelectDrScan" class="sprotty-edge transition" style="fill:none;stroke:rgb(48, 48, 48);stroke-linejoin:round;"><g><path d=" M265.69205729166663,376 C265.69205729166663,376 269.43190104166666,391 303.09049479166663,406"/><path d=" M265.69205729166663,376 C265.69205729166663,376 269.43190104166666,391 303.09049479166663,406" class="clickable"/></g><path d="M 303.09049479166663,406 L 310.09049479166663,403.5 L 310.09049479166663,408.5 Z" transform="rotate(-155.97978938317544 303.09049479166663 406)" class="arrow" style="fill:rgb(48, 48, 48);stroke-linejoin:miter;stroke-miterlimit:2;"/></g><g id="sprotty_fsm$tap_state_q/state$SelectDrScan_to_fsm$tap_state_q/state$SelectIrScan" class="sprotty-edge transition" style="fill:none;stroke:rgb(48, 48, 48);stroke-linejoin:round;"><g><path d=" M321.65299479166663,406 C337.30143229166663,391 337.30143229166663,383.5 337.30143229166663,371.41666666666674 C337.30143229166663,359.33333333333337 337.30143229166663,342.6666666666667 337.30143229166663,330.16666666666663 C337.30143229166663,317.66666666666663 337.30143229166663,309.3333333333333 337.30143229166663,300.99999999999994 C337.30143229166663,292.66666666666663 337.30143229166663,284.33333333333337 337.30143229166663,277.6666666666667 C337.30143229166663,271 337.30143229166663,266 303.63411458333337,256"/><path d=" M321.65299479166663,406 C337.30143229166663,391 337.30143229166663,383.5 337.30143229166663,371.41666666666674 C337.30143229166663,359.33333333333337 337.30143229166663,342.6666666666667 337.30143229166663,330.16666666666663 C337.30143229166663,317.66666666666663 337.30143229166663,309.3333333333333 337.30143229166663,300.99999999999994 C337.30143229166663,292.66666666666663 337.30143229166663,284.33333333333337 337.30143229166663,277.6666666666667 C337.30143229166663,271 337.30143229166663,266 303.63411458333337,256" class="clickable"/></g><path d="M 303.63411458333337,256 L 310.63411458333337,253.5 L 310.63411458333337,258.5 Z" transform="rotate(16.542680989021214 303.63411458333337 256)" class="arrow" style="fill:rgb(48, 48, 48);stroke-linejoin:miter;stroke-miterlimit:2;"/></g><g id="sprotty_fsm$tap_state_q/state$SelectDrScan_to_fsm$tap_state_q/state$CaptureDr" class="sprotty-edge transition" style="fill:none;stroke:rgb(48, 48, 48);stroke-linejoin:round;"><g><path d=" M358.77799479166663,406 C586.1712239583334,391 586.1712239583334,383.5 586.1712239583334,375.58333333333337 C586.1712239583334,367.66666666666663 586.1712239583334,359.33333333333337 586.1712239583334,351.00000000000006 C586.1712239583334,342.6666666666667 586.1712239583334,334.33333333333337 586.1712239583334,320.1666666666667 C586.1712239583334,306 586.1712239583334,286 586.1712239583334,271 C586.1712239583334,256 586.1712239583334,246 586.1712239583334,236 C586.1712239583334,226 586.1712239583334,216 586.1712239583334,201.00000000000003 C586.1712239583334,186.00000000000003 586.1712239583334,166 586.1712239583334,151.83333333333334 C586.1712239583334,137.66666666666669 586.1712239583334,129.33333333333331 586.1712239583334,121 C586.1712239583334,112.66666666666666 586.1712239583334,104.33333333333334 586.1712239583334,97.66666666666669 C586.1712239583334,91 586.1712239583334,86 561.1712239583334,76"/><path d=" M358.77799479166663,406 C586.1712239583334,391 586.1712239583334,383.5 586.1712239583334,375.58333333333337 C586.1712239583334,367.66666666666663 586.1712239583334,359.33333333333337 586.1712239583334,351.00000000000006 C586.1712239583334,342.6666666666667 586.1712239583334,334.33333333333337 586.1712239583334,320.1666666666667 C586.1712239583334,306 586.1712239583334,286 586.1712239583334,271 C586.1712239583334,256 586.1712239583334,246 586.1712239583334,236 C586.1712239583334,226 586.1712239583334,216 586.1712239583334,201.00000000000003 C586.1712239583334,186.00000000000003 586.1712239583334,166 586.1712239583334,151.83333333333334 C586.1712239583334,137.66666666666669 586.1712239583334,129.33333333333331 586.1712239583334,121 C586.1712239583334,112.66666666666666 586.1712239583334,104.33333333333334 586.1712239583334,97.66666666666669 C586.1712239583334,91 586.1712239583334,86 561.1712239583334,76" class="clickable"/></g><path d="M 561.1712239583334,76 L 568.1712239583334,73.5 L 568.1712239583334,78.5 Z" transform="rotate(21.80140948635181 561.1712239583334 76)" class="arrow" style="fill:rgb(48, 48, 48);stroke-linejoin:miter;stroke-miterlimit:2;"/></g><g id="sprotty_fsm$tap_state_q/state$CaptureDr_to_fsm$tap_state_q/state$Exit1Dr" class="sprotty-edge transition" style="fill:none;stroke:rgb(48, 48, 48);stroke-linejoin:round;"><g><path d=" M516.4212239583334,76 C516.4212239583334,76 449.0864583333333,86 441.60481770833337,96"/><path d=" M516.4212239583334,76 C516.4212239583334,76 449.0864583333333,86 441.60481770833337,96" class="clickable"/></g><path d="M 441.60481770833337,96 L 448.60481770833337,93.5 L 448.60481770833337,98.5 Z" transform="rotate(-53.1974842443377 441.60481770833337 96)" class="arrow" style="fill:rgb(48, 48, 48);stroke-linejoin:miter;stroke-miterlimit:2;"/></g><g id="sprotty_fsm$tap_state_q/state$CaptureDr_to_fsm$tap_state_q/state$ShiftDr" class="sprotty-edge transition" style="fill:none;stroke:rgb(48, 48, 48);stroke-linejoin:round;"><g><path d=" M538.7962239583334,76 C535.1712239583334,86 535.1712239583334,91 535.1712239583334,97.66666666666666 C535.1712239583334,104.33333333333333 535.1712239583334,112.66666666666667 535.1712239583334,121 C535.1712239583334,129.33333333333334 535.1712239583334,137.66666666666669 535.1712239583334,151.83333333333331 C535.1712239583334,166 535.1712239583334,186 535.1712239583334,200.16666666666666 C535.1712239583334,214.33333333333331 535.1712239583334,222.66666666666666 535.1712239583334,230.99999999999997 C535.1712239583334,239.3333333333333 535.1712239583334,247.66666666666663 535.1712239583334,254.3333333333333 C535.1712239583334,261 535.1712239583334,266 509.45442708333337,276"/><path d=" M538.7962239583334,76 C535.1712239583334,86 535.1712239583334,91 535.1712239583334,97.66666666666666 C535.1712239583334,104.33333333333333 535.1712239583334,112.66666666666667 535.1712239583334,121 C535.1712239583334,129.33333333333334 535.1712239583334,137.66666666666669 535.1712239583334,151.83333333333331 C535.1712239583334,166 535.1712239583334,186 535.1712239583334,200.16666666666666 C535.1712239583334,214.33333333333331 535.1712239583334,222.66666666666666 535.1712239583334,230.99999999999997 C535.1712239583334,239.3333333333333 535.1712239583334,247.66666666666663 535.1712239583334,254.3333333333333 C535.1712239583334,261 535.1712239583334,266 509.45442708333337,276" class="clickable"/></g><path d="M 509.45442708333337,276 L 516.4544270833334,273.5 L 516.4544270833334,278.5 Z" transform="rotate(-21.24861556916299 509.45442708333337 276)" class="arrow" style="fill:rgb(48, 48, 48);stroke-linejoin:miter;stroke-miterlimit:2;"/></g><g id="sprotty_fsm$tap_state_q/state$ShiftDr_to_fsm$tap_state_q/state$Exit1Dr" class="sprotty-edge transition" style="fill:none;stroke:rgb(48, 48, 48);stroke-linejoin:round;"><g><path d=" M493.22786458333337,276 C484.17122395833337,266 484.17122395833337,261 484.17122395833337,250.1666666666667 C484.17122395833337,239.33333333333337 484.17122395833337,222.66666666666669 484.17122395833337,210.16666666666663 C484.17122395833337,197.66666666666663 484.17122395833326,189.33333333333331 484.17122395833337,180.99999999999997 C484.17122395833337,172.66666666666666 484.17122395833337,164.33333333333334 484.17122395833337,157.66666666666669 C484.17122395833337,151 484.17122395833337,146 458.14388020833337,136"/><path d=" M493.22786458333337,276 C484.17122395833337,266 484.17122395833337,261 484.17122395833337,250.1666666666667 C484.17122395833337,239.33333333333337 484.17122395833337,222.66666666666669 484.17122395833337,210.16666666666663 C484.17122395833337,197.66666666666663 484.17122395833326,189.33333333333331 484.17122395833337,180.99999999999997 C484.17122395833337,172.66666666666666 484.17122395833337,164.33333333333334 484.17122395833337,157.66666666666669 C484.17122395833337,151 484.17122395833337,146 458.14388020833337,136" class="clickable"/></g><path d="M 458.14388020833337,136 L 465.14388020833337,133.5 L 465.14388020833337,138.5 Z" transform="rotate(21.01734031157323 458.14388020833337 136)" class="arrow" style="fill:rgb(48, 48, 48);stroke-linejoin:miter;stroke-miterlimit:2;"/></g><g id="sprotty_fsm$tap_state_q/state$Exit1Dr_to_fsm$tap_state_q/state$UpdateDr" class="sprotty-edge transition" style="fill:none;stroke:rgb(48, 48, 48);stroke-linejoin:round;"><g><path d=" M425.06575520833337,136 C379.22265625,146 379.22265625,151 379.22265625,157.66666666666666 C379.22265625,164.33333333333331 379.22265625,172.66666666666666 379.22265625,181 C379.22265625,189.33333333333331 379.22265625,197.66666666666666 379.22265625,216.83333333333331 C379.22265625,236 379.22265625,266 379.22265625000006,276"/><path d=" M425.06575520833337,136 C379.22265625,146 379.22265625,151 379.22265625,157.66666666666666 C379.22265625,164.33333333333331 379.22265625,172.66666666666666 379.22265625,181 C379.22265625,189.33333333333331 379.22265625,197.66666666666666 379.22265625,216.83333333333331 C379.22265625,236 379.22265625,266 379.22265625000006,276" class="clickable"/></g><path d="M 379.22265625000006,276 L 386.22265625000006,273.5 L 386.22265625000006,278.5 Z" transform="rotate(-90.00000000000033 379.22265625000006 276)" class="arrow" style="fill:rgb(48, 48, 48);stroke-linejoin:miter;stroke-miterlimit:2;"/></g><g id="sprotty_fsm$tap_state_q/state$Exit1Dr_to_fsm$tap_state_q/state$PauseDr" class="sprotty-edge transition" style="fill:none;stroke:rgb(48, 48, 48);stroke-linejoin:round;"><g><path d=" M441.60481770833337,136 C441.60481770833337,136 429.0622395833334,146 427.66861979166674,156"/><path d=" M441.60481770833337,136 C441.60481770833337,136 429.0622395833334,146 427.66861979166674,156" class="clickable"/></g><path d="M 427.66861979166674,156 L 434.66861979166674,153.5 L 434.66861979166674,158.5 Z" transform="rotate(-82.06624592091005 427.66861979166674 156)" class="arrow" style="fill:rgb(48, 48, 48);stroke-linejoin:miter;stroke-miterlimit:2;"/></g><g id="sprotty_fsm$tap_state_q/state$PauseDr_to_fsm$tap_state_q/state$Exit2Dr" class="sprotty-edge transition" style="fill:none;stroke:rgb(48, 48, 48);stroke-linejoin:round;"><g><path d=" M427.66861979166674,196 C427.66861979166674,196 427.66861979166674,206 427.66861979166674,216"/><path d=" M427.66861979166674,196 C427.66861979166674,196 427.66861979166674,206 427.66861979166674,216" class="clickable"/></g><path d="M 427.66861979166674,216 L 434.66861979166674,213.5 L 434.66861979166674,218.5 Z" transform="rotate(-90 427.66861979166674 216)" class="arrow" style="fill:rgb(48, 48, 48);stroke-linejoin:miter;stroke-miterlimit:2;"/></g><g id="sprotty_fsm$tap_state_q/state$Exit2Dr_to_fsm$tap_state_q/state$UpdateDr" class="sprotty-edge transition" style="fill:none;stroke:rgb(48, 48, 48);stroke-linejoin:round;"><g><path d=" M416.64257812500006,256 C416.642578125,256 412.07063802083337,266 407.4986979166667,276"/><path d=" M416.64257812500006,256 C416.642578125,256 412.07063802083337,266 407.4986979166667,276" class="clickable"/></g><path d="M 407.4986979166667,276 L 414.4986979166667,273.5 L 414.4986979166667,278.5 Z" transform="rotate(-65.43040447800826 407.4986979166667 276)" class="arrow" style="fill:rgb(48, 48, 48);stroke-linejoin:miter;stroke-miterlimit:2;"/></g><g id="sprotty_fsm$tap_state_q/state$Exit2Dr_to_fsm$tap_state_q/state$ShiftDr" class="sprotty-edge transition" style="fill:none;stroke:rgb(48, 48, 48);stroke-linejoin:round;"><g><path d=" M438.6946614583334,256 C438.69466145833337,256 442.52532552083335,266 477.00130208333337,276"/><path d=" M438.6946614583334,256 C438.69466145833337,256 442.52532552083335,266 477.00130208333337,276" class="clickable"/></g><path d="M 477.00130208333337,276 L 484.00130208333337,273.5 L 484.00130208333337,278.5 Z" transform="rotate(-163.82482596841436 477.00130208333337 276)" class="arrow" style="fill:rgb(48, 48, 48);stroke-linejoin:miter;stroke-miterlimit:2;"/></g><g id="sprotty_fsm$tap_state_q/state$UpdateDr_to_fsm$tap_state_q/state$SelectDrScan" class="sprotty-edge transition" style="fill:none;stroke:rgb(48, 48, 48);stroke-linejoin:round;"><g><path d=" M407.4986979166667,316 C407.49869791666674,326 407.49869791666674,338.5 407.49869791666674,348.9166666666667 C407.49869791666674,359.33333333333337 407.49869791666674,367.6666666666667 407.49869791666674,375.5833333333333 C407.49869791666674,383.5 407.49869791666674,391 340.21549479166663,406"/><path d=" M407.4986979166667,316 C407.49869791666674,326 407.49869791666674,338.5 407.49869791666674,348.9166666666667 C407.49869791666674,359.33333333333337 407.49869791666674,367.6666666666667 407.49869791666674,375.5833333333333 C407.49869791666674,383.5 407.49869791666674,391 340.21549479166663,406" class="clickable"/></g><path d="M 340.21549479166663,406 L 347.21549479166663,403.5 L 347.21549479166663,408.5 Z" transform="rotate(-12.567896897809398 340.21549479166663 406)" class="arrow" style="fill:rgb(48, 48, 48);stroke-linejoin:miter;stroke-miterlimit:2;"/></g><g id="sprotty_fsm$tap_state_q/state$UpdateDr_to_fsm$tap_state_q/state$RunTestIdle" class="sprotty-edge transition" style="fill:none;stroke:rgb(48, 48, 48);stroke-linejoin:round;"><g><path d=" M379.22265625000006,316 C379.22265625,316 370.36529947916665,326 290.64908854166663,336"/><path d=" M379.22265625000006,316 C379.22265625,316 370.36529947916665,326 290.64908854166663,336" class="clickable"/></g><path d="M 290.64908854166663,336 L 297.64908854166663,333.5 L 297.64908854166663,338.5 Z" transform="rotate(-7.150119281230837 290.64908854166663 336)" class="arrow" style="fill:rgb(48, 48, 48);stroke-linejoin:miter;stroke-miterlimit:2;"/></g><g id="sprotty_fsm$tap_state_q/state$SelectIrScan_to_fsm$tap_state_q/state$TestLogicReset" class="sprotty-edge transition" style="fill:none;stroke:rgb(48, 48, 48);stroke-linejoin:round;"><g><path d=" M268.61328125,256 C268.61328125,256 265.9841796875,266 265.69205729166663,276"/><path d=" M268.61328125,256 C268.61328125,256 265.9841796875,266 265.69205729166663,276" class="clickable"/></g><path d="M 265.69205729166663,276 L 272.69205729166663,273.5 L 272.69205729166663,278.5 Z" transform="rotate(-88.32673781567212 265.69205729166663 276)" class="arrow" style="fill:rgb(48, 48, 48);stroke-linejoin:miter;stroke-miterlimit:2;"/></g><g id="sprotty_fsm$tap_state_q/state$SelectIrScan_to_fsm$tap_state_q/state$CaptureIr" class="sprotty-edge transition" style="fill:none;stroke:rgb(48, 48, 48);stroke-linejoin:round;"><g><path d=" M286.1236979166667,216 C286.12369791666674,206 286.12369791666674,176 286.12369791666674,156.83333333333331 C286.12369791666674,137.66666666666666 286.12369791666674,129.33333333333331 286.12369791666674,121 C286.12369791666674,112.66666666666666 286.12369791666674,104.33333333333333 286.12369791666674,97.66666666666666 C286.12369791666674,91 286.12369791666674,86 213.123046875,76"/><path d=" M286.1236979166667,216 C286.12369791666674,206 286.12369791666674,176 286.12369791666674,156.83333333333331 C286.12369791666674,137.66666666666666 286.12369791666674,129.33333333333331 286.12369791666674,121 C286.12369791666674,112.66666666666666 286.12369791666674,104.33333333333333 286.12369791666674,97.66666666666666 C286.12369791666674,91 286.12369791666674,86 213.123046875,76" class="clickable"/></g><path d="M 213.123046875,76 L 220.123046875,73.5 L 220.123046875,78.5 Z" transform="rotate(7.8001191761079305 213.123046875 76)" class="arrow" style="fill:rgb(48, 48, 48);stroke-linejoin:miter;stroke-miterlimit:2;"/></g><g id="sprotty_fsm$tap_state_q/state$CaptureIr_to_fsm$tap_state_q/state$Exit1Ir" class="sprotty-edge transition" style="fill:none;stroke:rgb(48, 48, 48);stroke-linejoin:round;"><g><path d=" M171.529296875,76 C171.529296875,76 92.81621093749997,86 84.07031249999997,96"/><path d=" M171.529296875,76 C171.529296875,76 92.81621093749997,86 84.07031249999997,96" class="clickable"/></g><path d="M 84.07031249999997,96 L 91.07031249999997,93.5 L 91.07031249999997,98.5 Z" transform="rotate(-48.827387400291705 84.07031249999997 96)" class="arrow" style="fill:rgb(48, 48, 48);stroke-linejoin:miter;stroke-miterlimit:2;"/></g><g id="sprotty_fsm$tap_state_q/state$CaptureIr_to_fsm$tap_state_q/state$ShiftIr" class="sprotty-edge transition" style="fill:none;stroke:rgb(48, 48, 48);stroke-linejoin:round;"><g><path d=" M192.326171875,76 C212.86979166666669,86 212.86979166666669,91 212.86979166666669,97.66666666666666 C212.8697916666667,104.33333333333333 212.86979166666669,112.66666666666667 212.86979166666669,121 C212.8697916666667,129.33333333333334 212.86979166666669,137.66666666666669 212.86979166666669,151.83333333333331 C212.86979166666666,166 212.86979166666669,186 212.8697916666667,200.16666666666666 C212.8697916666667,214.33333333333331 212.86979166666669,222.66666666666666 212.86979166666669,230.99999999999997 C212.86979166666666,239.3333333333333 212.86979166666669,247.66666666666663 212.86979166666669,254.3333333333333 C212.86979166666669,261 212.86979166666669,266 164.43033854166666,276"/><path d=" M192.326171875,76 C212.86979166666669,86 212.86979166666669,91 212.86979166666669,97.66666666666666 C212.8697916666667,104.33333333333333 212.86979166666669,112.66666666666667 212.86979166666669,121 C212.8697916666667,129.33333333333334 212.86979166666669,137.66666666666669 212.86979166666669,151.83333333333331 C212.86979166666666,166 212.86979166666669,186 212.8697916666667,200.16666666666666 C212.8697916666667,214.33333333333331 212.86979166666669,222.66666666666666 212.86979166666669,230.99999999999997 C212.86979166666666,239.3333333333333 212.86979166666669,247.66666666666663 212.86979166666669,254.3333333333333 C212.86979166666669,261 212.86979166666669,266 164.43033854166666,276" class="clickable"/></g><path d="M 164.43033854166666,276 L 171.43033854166666,273.5 L 171.43033854166666,278.5 Z" transform="rotate(-11.664462917887315 164.43033854166666 276)" class="arrow" style="fill:rgb(48, 48, 48);stroke-linejoin:miter;stroke-miterlimit:2;"/></g><g id="sprotty_fsm$tap_state_q/state$ShiftIr_to_fsm$tap_state_q/state$Exit1Ir" class="sprotty-edge transition" style="fill:none;stroke:rgb(48, 48, 48);stroke-linejoin:round;"><g><path d=" M149.77799479166666,276 C134.12955729166666,266 134.12955729166666,261 134.12955729166666,250.1666666666667 C134.12955729166666,239.33333333333337 134.12955729166663,222.66666666666669 134.12955729166666,210.16666666666663 C134.12955729166666,197.66666666666663 134.12955729166666,189.33333333333331 134.12955729166663,180.99999999999997 C134.12955729166663,172.66666666666666 134.12955729166663,164.33333333333334 134.12955729166663,157.66666666666669 C134.12955729166666,151 134.12955729166666,146 99.03124999999997,136"/><path d=" M149.77799479166666,276 C134.12955729166666,266 134.12955729166666,261 134.12955729166666,250.1666666666667 C134.12955729166666,239.33333333333337 134.12955729166663,222.66666666666669 134.12955729166666,210.16666666666663 C134.12955729166666,197.66666666666663 134.12955729166666,189.33333333333331 134.12955729166663,180.99999999999997 C134.12955729166663,172.66666666666666 134.12955729166663,164.33333333333334 134.12955729166663,157.66666666666669 C134.12955729166666,151 134.12955729166666,146 99.03124999999997,136" class="clickable"/></g><path d="M 99.03124999999997,136 L 106.03124999999997,133.5 L 106.03124999999997,138.5 Z" transform="rotate(15.902995877755936 99.03124999999997 136)" class="arrow" style="fill:rgb(48, 48, 48);stroke-linejoin:miter;stroke-miterlimit:2;"/></g><g id="sprotty_fsm$tap_state_q/state$Exit1Ir_to_fsm$tap_state_q/state$UpdateIr" class="sprotty-edge transition" style="fill:none;stroke:rgb(48, 48, 48);stroke-linejoin:round;"><g><path d=" M69.10937499999997,136 C33.70963541666666,146 33.70963541666666,151 33.70963541666666,157.66666666666669 C33.70963541666666,164.33333333333334 33.70963541666666,172.66666666666666 33.70963541666666,180.99999999999997 C33.70963541666666,189.33333333333331 33.70963541666666,197.66666666666663 33.70963541666666,210.16666666666663 C33.70963541666666,222.66666666666669 33.70963541666666,239.33333333333337 33.70963541666666,250.1666666666667 C33.70963541666666,261 33.70963541666666,266 38.171875,276"/><path d=" M69.10937499999997,136 C33.70963541666666,146 33.70963541666666,151 33.70963541666666,157.66666666666669 C33.70963541666666,164.33333333333334 33.70963541666666,172.66666666666666 33.70963541666666,180.99999999999997 C33.70963541666666,189.33333333333331 33.70963541666666,197.66666666666663 33.70963541666666,210.16666666666663 C33.70963541666666,222.66666666666669 33.70963541666666,239.33333333333337 33.70963541666666,250.1666666666667 C33.70963541666666,261 33.70963541666666,266 38.171875,276" class="clickable"/></g><path d="M 38.171875,276 L 45.171875,273.5 L 45.171875,278.5 Z" transform="rotate(-114.04757343514385 38.171875 276)" class="arrow" style="fill:rgb(48, 48, 48);stroke-linejoin:miter;stroke-miterlimit:2;"/></g><g id="sprotty_fsm$tap_state_q/state$Exit1Ir_to_fsm$tap_state_q/state$PauseIr" class="sprotty-edge transition" style="fill:none;stroke:rgb(48, 48, 48);stroke-linejoin:round;"><g><path d=" M84.07031249999997,136 C84.07031249999997,136 79.308984375,146 78.77994791666666,156"/><path d=" M84.07031249999997,136 C84.07031249999997,136 79.308984375,146 78.77994791666666,156" class="clickable"/></g><path d="M 78.77994791666666,156 L 85.77994791666666,153.5 L 85.77994791666666,158.5 Z" transform="rotate(-86.97166749542465 78.77994791666666 156)" class="arrow" style="fill:rgb(48, 48, 48);stroke-linejoin:miter;stroke-miterlimit:2;"/></g><g id="sprotty_fsm$tap_state_q/state$PauseIr_to_fsm$tap_state_q/state$Exit2Ir" class="sprotty-edge transition" style="fill:none;stroke:rgb(48, 48, 48);stroke-linejoin:round;"><g><path d=" M78.77994791666666,196 C78.77994791666666,196 78.77994791666666,206 78.77994791666666,216"/><path d=" M78.77994791666666,196 C78.77994791666666,196 78.77994791666666,206 78.77994791666666,216" class="clickable"/></g><path d="M 78.77994791666666,216 L 85.77994791666666,213.5 L 85.77994791666666,218.5 Z" transform="rotate(-90 78.77994791666666 216)" class="arrow" style="fill:rgb(48, 48, 48);stroke-linejoin:miter;stroke-miterlimit:2;"/></g><g id="sprotty_fsm$tap_state_q/state$Exit2Ir_to_fsm$tap_state_q/state$UpdateIr" class="sprotty-edge transition" style="fill:none;stroke:rgb(48, 48, 48);stroke-linejoin:round;"><g><path d=" M68.80598958333331,256 C68.80598958333331,256 66.57486979166666,266 64.34375,276"/><path d=" M68.80598958333331,256 C68.80598958333331,256 66.57486979166666,266 64.34375,276" class="clickable"/></g><path d="M 64.34375,276 L 71.34375,273.5 L 71.34375,278.5 Z" transform="rotate(-77.42262116322141 64.34375 276)" class="arrow" style="fill:rgb(48, 48, 48);stroke-linejoin:miter;stroke-miterlimit:2;"/></g><g id="sprotty_fsm$tap_state_q/state$Exit2Ir_to_fsm$tap_state_q/state$ShiftIr" class="sprotty-edge transition" style="fill:none;stroke:rgb(48, 48, 48);stroke-linejoin:round;"><g><path d=" M88.75390624999999,256 C88.75390624999999,256 93.39108072916665,266 135.12565104166666,276"/><path d=" M88.75390624999999,256 C88.75390624999999,256 93.39108072916665,266 135.12565104166666,276" class="clickable"/></g><path d="M 135.12565104166666,276 L 142.12565104166666,273.5 L 142.12565104166666,278.5 Z" transform="rotate(-166.52542342488192 135.12565104166666 276)" class="arrow" style="fill:rgb(48, 48, 48);stroke-linejoin:miter;stroke-miterlimit:2;"/></g><g id="sprotty_fsm$tap_state_q/state$UpdateIr_to_fsm$tap_state_q/state$SelectDrScan" class="sprotty-edge transition" style="fill:none;stroke:rgb(48, 48, 48);stroke-linejoin:round;"><g><path d=" M38.171875,316 C38.171875,326 38.171875,338.5 38.171875,348.9166666666667 C38.171875,359.33333333333337 38.171875,367.6666666666667 38.17187499999999,375.5833333333333 C38.171875,383.5 38.171875,391 284.52799479166663,406"/><path d=" M38.171875,316 C38.171875,326 38.171875,338.5 38.171875,348.9166666666667 C38.171875,359.33333333333337 38.171875,367.6666666666667 38.17187499999999,375.5833333333333 C38.171875,383.5 38.171875,391 284.52799479166663,406" class="clickable"/></g><path d="M 284.52799479166663,406 L 291.52799479166663,403.5 L 291.52799479166663,408.5 Z" transform="rotate(-176.5157066482366 284.52799479166663 406)" class="arrow" style="fill:rgb(48, 48, 48);stroke-linejoin:miter;stroke-miterlimit:2;"/></g><g id="sprotty_fsm$tap_state_q/state$UpdateIr_to_fsm$tap_state_q/state$RunTestIdle" class="sprotty-edge transition" style="fill:none;stroke:rgb(48, 48, 48);stroke-linejoin:round;"><g><path d=" M64.34375,316 C64.34375,316 81.98287760416667,326 240.73502604166666,336"/><path d=" M64.34375,316 C64.34375,316 81.98287760416667,326 240.73502604166666,336" class="clickable"/></g><path d="M 240.73502604166666,336 L 247.73502604166666,333.5 L 247.73502604166666,338.5 Z" transform="rotate(-176.39562811186786 240.73502604166666 336)" class="arrow" style="fill:rgb(48, 48, 48);stroke-linejoin:miter;stroke-miterlimit:2;"/></g></g></g></svg>