<svg xmlns="http://www.w3.org/2000/svg" id="sprotty_root" class="sprotty-graph sprotty-state-machine statemachine" style="font-family:&quot;Noto Sans&quot;, Helvetica, Arial, sans-serif;perspective-origin:0px 0px;transform-origin:0px 0px;" version="1.1" viewBox="10 10 465.265625 278" width="465.265625" height="278"><g transform="scale(1) translate(0,0)"><g id="sprotty_fsm$state_q" transform="translate(15, 15)" class="statemachine"><g class="sprotty-block" style="fill:rgb(255, 255, 255);stroke:rgb(48, 48, 48);stroke-dasharray:0px;"><rect x="0" y="0" rx="1" ry="1" width="455.265625" height="268"/><text x="227.6328125" y="12" class="sprotty-block-name" style="cursor:pointer;font-weight:700;perspective-origin:227.625px 0px;fill:rgb(48, 48, 48);stroke:rgba(0, 0, 0, 0);dominant-baseline:middle;text-anchor:middle;">state_q</text><line x1="0" y1="20" x2="455.265625" y2="20"/></g><g id="sprotty_fsm$state_q/state$SendReseedCmd" transform="translate(82.359375, 156)" class="state"><ellipse cx="69.53125" cy="20" rx="69.53125" ry="20" class="sprotty-node clickable" style="fill:rgb(255, 255, 255);stroke:rgb(48, 48, 48);"/><text class="clickable sprotty-label state" id="sprotty_fsm$state_q/state$SendReseedCmd/label" transform="translate(6, 8) translate(63.53125, 19)" style="cursor:default;perspective-origin:0px 0px;fill:rgb(48, 48, 48);text-anchor:middle;">SendReseedCmd</text></g><g id="sprotty_fsm$state_q/state$Idle" transform="translate(246.421875, 156)" class="state"><ellipse cx="20.09375" cy="20" rx="20.09375" ry="20" class="sprotty-node clickable" style="fill:rgb(255, 255, 255);stroke:rgb(48, 48, 48);"/><text class="clickable sprotty-label state" id="sprotty_fsm$state_q/state$Idle/label" transform="translate(6, 8) translate(14.03125, 19)" style="cursor:default;perspective-origin:0.0625px 0px;fill:rgb(48, 48, 48);text-anchor:middle;">Idle</text></g><g id="sprotty_fsm$state_q/state$CaptReseedCnt" transform="translate(88.4375, 96)" class="state"><ellipse cx="63.453125" cy="20" rx="63.453125" ry="20" class="sprotty-node clickable" style="fill:rgb(255, 255, 255);stroke:rgb(48, 48, 48);"/><text class="clickable sprotty-label state" id="sprotty_fsm$state_q/state$CaptReseedCnt/label" transform="translate(6, 8) translate(57.453125, 19)" style="cursor:default;perspective-origin:0px 0px;fill:rgb(48, 48, 48);text-anchor:middle;">CaptReseedCnt</text></g><g id="sprotty_fsm$state_q/state$SendGenCmd" transform="translate(328.515625, 156)" class="state"><ellipse cx="57.375" cy="20" rx="57.375" ry="20" class="sprotty-node clickable" style="fill:rgb(255, 255, 255);stroke:rgb(48, 48, 48);"/><text class="clickable sprotty-label state" id="sprotty_fsm$state_q/state$SendGenCmd/label" transform="translate(6, 8) translate(51.375, 19)" style="cursor:default;perspective-origin:0px 0px;fill:rgb(48, 48, 48);text-anchor:middle;">SendGenCmd</text></g><g id="sprotty_fsm$state_q/state$Dispatch" transform="translate(253.515625, 36)" class="state"><ellipse cx="38.5" cy="20" rx="38.5" ry="20" class="sprotty-node clickable" style="fill:rgb(255, 255, 255);stroke:rgb(48, 48, 48);"/><text class="clickable sprotty-label state" id="sprotty_fsm$state_q/state$Dispatch/label" transform="translate(6, 8) translate(32.5, 19)" style="cursor:default;perspective-origin:0px 0px;fill:rgb(48, 48, 48);text-anchor:middle;">Dispatch</text></g><g id="sprotty_fsm$state_q/state$Error" transform="translate(12, 36)" class="dead state"><ellipse cx="25.1796875" cy="20" rx="25.1796875" ry="20" class="sprotty-node clickable" style="fill:rgb(194, 94, 95);stroke:rgb(135, 51, 52);"/><text class="clickable sprotty-label state" id="sprotty_fsm$state_q/state$Error/label" transform="translate(6, 8) translate(18.78125, 19)" style="cursor:default;perspective-origin:0.390625px 0px;fill:rgb(48, 48, 48);text-anchor:middle;">Error</text></g><g id="sprotty_fsm$state_q/state$CaptGenCnt" transform="translate(334.609375, 96)" class="state"><ellipse cx="51.28125" cy="20" rx="51.28125" ry="20" class="sprotty-node clickable" style="fill:rgb(255, 255, 255);stroke:rgb(48, 48, 48);"/><text class="clickable sprotty-label state" id="sprotty_fsm$state_q/state$CaptGenCnt/label" transform="translate(6, 8) translate(45.28125, 19)" style="cursor:default;perspective-origin:0px 0px;fill:rgb(48, 48, 48);text-anchor:middle;">CaptGenCnt</text></g><g id="sprotty_fsm$state_q/state$AckWait" transform="translate(256.0625, 216)" class="state"><ellipse cx="35.953125" cy="20" rx="35.953125" ry="20" class="sprotty-node clickable" style="fill:rgb(255, 255, 255);stroke:rgb(48, 48, 48);"/><text class="clickable sprotty-label state" id="sprotty_fsm$state_q/state$AckWait/label" transform="translate(6, 8) translate(29.953125, 19)" style="cursor:default;perspective-origin:0px 0px;fill:rgb(48, 48, 48);text-anchor:middle;">AckWait</text></g><g id="sprotty_fsm$state_q/state$Idle_to_fsm$state_q/state$AckWait" class="sprotty-edge transition" style="fill:none;stroke:rgb(48, 48, 48);stroke-linejoin:round;"><g><path d=" M266.515625,196 C266.515625,196 268.3465625,206 284.825,216"/><path d=" M266.515625,196 C266.515625,196 268.3465625,206 284.825,216" class="clickable"/></g><path d="M 284.825,216 L 291.825,213.5 L 291.825,218.5 Z" transform="rotate(-148.74837703364392 284.825 216)" class="arrow" style="fill:rgb(48, 48, 48);stroke-linejoin:miter;stroke-miterlimit:2;"/></g><g id="sprotty_fsm$state_q/state$AckWait_to_fsm$state_q/state$Dispatch" class="sprotty-edge transition" style="fill:none;stroke:rgb(48, 48, 48);stroke-linejoin:round;"><g><path d=" M299.20625,216 C317.515625,206 317.515625,201 317.515625,190.1666666666667 C317.515625,179.33333333333337 317.515625,162.66666666666669 317.515625,150.16666666666669 C317.515625,137.66666666666669 317.515625,129.33333333333331 317.515625,121 C317.515625,112.66666666666666 317.515625,104.33333333333334 317.515625,97.66666666666669 C317.515625,91 317.515625,86 299.715625,76"/><path d=" M299.20625,216 C317.515625,206 317.515625,201 317.515625,190.1666666666667 C317.515625,179.33333333333337 317.515625,162.66666666666669 317.515625,150.16666666666669 C317.515625,137.66666666666669 317.515625,129.33333333333331 317.515625,121 C317.515625,112.66666666666666 317.515625,104.33333333333334 317.515625,97.66666666666669 C317.515625,91 317.515625,86 299.715625,76" class="clickable"/></g><path d="M 299.715625,76 L 306.715625,73.5 L 306.715625,78.5 Z" transform="rotate(29.327179490456786 299.715625 76)" class="arrow" style="fill:rgb(48, 48, 48);stroke-linejoin:miter;stroke-miterlimit:2;"/></g><g id="sprotty_fsm$state_q/state$Dispatch_to_fsm$state_q/state$Idle" class="sprotty-edge transition" style="fill:none;stroke:rgb(48, 48, 48);stroke-linejoin:round;"><g><path d=" M284.315625,76 C266.515625,86 266.515625,91 266.515625,97.66666666666667 C266.515625,104.33333333333334 266.515625,112.66666666666666 266.515625,123.0833333333333 C266.515625,133.5 266.515625,146 266.515625,156"/><path d=" M284.315625,76 C266.515625,86 266.515625,91 266.515625,97.66666666666667 C266.515625,104.33333333333334 266.515625,112.66666666666666 266.515625,123.0833333333333 C266.515625,133.5 266.515625,146 266.515625,156" class="clickable"/></g><path d="M 266.515625,156 L 273.515625,153.5 L 273.515625,158.5 Z" transform="rotate(-90 266.515625 156)" class="arrow" style="fill:rgb(48, 48, 48);stroke-linejoin:miter;stroke-miterlimit:2;"/></g><g id="sprotty_fsm$state_q/state$Dispatch_to_fsm$state_q/state$CaptReseedCnt" class="sprotty-edge transition" style="fill:none;stroke:rgb(48, 48, 48);stroke-linejoin:round;"><g><path d=" M268.915625,76 C268.915625,76 163.593125,86 151.890625,96"/><path d=" M268.915625,76 C268.915625,76 163.593125,86 151.890625,96" class="clickable"/></g><path d="M 151.890625,96 L 158.890625,93.5 L 158.890625,98.5 Z" transform="rotate(-40.51449362912473 151.890625 96)" class="arrow" style="fill:rgb(48, 48, 48);stroke-linejoin:miter;stroke-miterlimit:2;"/></g><g id="sprotty_fsm$state_q/state$Dispatch_to_fsm$state_q/state$CaptGenCnt" class="sprotty-edge transition" style="fill:none;stroke:rgb(48, 48, 48);stroke-linejoin:round;"><g><path d=" M315.115625,76 C315.115625,76 378.813125,86 385.890625,96"/><path d=" M315.115625,76 C315.115625,76 378.813125,86 385.890625,96" class="clickable"/></g><path d="M 385.890625,96 L 392.890625,93.5 L 392.890625,98.5 Z" transform="rotate(-125.28895138261906 385.890625 96)" class="arrow" style="fill:rgb(48, 48, 48);stroke-linejoin:miter;stroke-miterlimit:2;"/></g><g id="sprotty_fsm$state_q/state$CaptGenCnt_to_fsm$state_q/state$SendGenCmd" class="sprotty-edge transition" style="fill:none;stroke:rgb(48, 48, 48);stroke-linejoin:round;"><g><path d=" M385.890625,136 C385.890625,136 385.890625,146 385.890625,156"/><path d=" M385.890625,136 C385.890625,136 385.890625,146 385.890625,156" class="clickable"/></g><path d="M 385.890625,156 L 392.890625,153.5 L 392.890625,158.5 Z" transform="rotate(-90 385.890625 156)" class="arrow" style="fill:rgb(48, 48, 48);stroke-linejoin:miter;stroke-miterlimit:2;"/></g><g id="sprotty_fsm$state_q/state$SendGenCmd_to_fsm$state_q/state$AckWait" class="sprotty-edge transition" style="fill:none;stroke:rgb(48, 48, 48);stroke-linejoin:round;"><g><path d=" M385.890625,196 C385.890625,196 378.6603125,206 313.5875,216"/><path d=" M385.890625,196 C385.890625,196 378.6603125,206 313.5875,216" class="clickable"/></g><path d="M 313.5875,216 L 320.5875,213.5 L 320.5875,218.5 Z" transform="rotate(-8.736526913014877 313.5875 216)" class="arrow" style="fill:rgb(48, 48, 48);stroke-linejoin:miter;stroke-miterlimit:2;"/></g><g id="sprotty_fsm$state_q/state$CaptReseedCnt_to_fsm$state_q/state$SendReseedCmd" class="sprotty-edge transition" style="fill:none;stroke:rgb(48, 48, 48);stroke-linejoin:round;"><g><path d=" M151.890625,136 C151.890625,136 151.890625,146 151.890625,156"/><path d=" M151.890625,136 C151.890625,136 151.890625,146 151.890625,156" class="clickable"/></g><path d="M 151.890625,156 L 158.890625,153.5 L 158.890625,158.5 Z" transform="rotate(-90 151.890625 156)" class="arrow" style="fill:rgb(48, 48, 48);stroke-linejoin:miter;stroke-miterlimit:2;"/></g><g id="sprotty_fsm$state_q/state$SendReseedCmd_to_fsm$state_q/state$AckWait" class="sprotty-edge transition" style="fill:none;stroke:rgb(48, 48, 48);stroke-linejoin:round;"><g><path d=" M151.890625,196 C151.890625,196 163.74593750000003,206 270.44375,216"/><path d=" M151.890625,196 C151.890625,196 163.74593750000003,206 270.44375,216" class="clickable"/></g><path d="M 270.44375,216 L 277.44375,213.5 L 277.44375,218.5 Z" transform="rotate(-174.6457292723228 270.44375 216)" class="arrow" style="fill:rgb(48, 48, 48);stroke-linejoin:miter;stroke-miterlimit:2;"/></g></g></g></svg>