<svg xmlns="http://www.w3.org/2000/svg" id="sprotty_root" class="sprotty-graph sprotty-state-machine statemachine" style="font-family:&quot;Noto Sans&quot;, Helvetica, Arial, sans-serif;perspective-origin:0px 0px;transform-origin:0px 0px;" version="1.1" viewBox="10 10 194.828125 218" width="194.828125" height="218"><g transform="scale(1) translate(0,0)"><g id="sprotty_fsm$state_q" transform="translate(15, 15)" class="statemachine"><g class="sprotty-block" style="fill:rgb(255, 255, 255);stroke:rgb(48, 48, 48);stroke-dasharray:0px;"><rect x="0" y="0" rx="1" ry="1" width="184.828125" height="208"/><text x="92.4140625" y="12" class="sprotty-block-name" style="cursor:pointer;font-weight:700;perspective-origin:92.4062px 0px;fill:rgb(48, 48, 48);stroke:rgba(0, 0, 0, 0);dominant-baseline:middle;text-anchor:middle;">state_q</text><line x1="0" y1="20" x2="184.828125" y2="20"/></g><g id="sprotty_fsm$state_q/state$DataWait" transform="translate(93.203125, 36)" class="state"><ellipse cx="39.8125" cy="20" rx="39.8125" ry="20" class="sprotty-node clickable" style="fill:rgb(255, 255, 255);stroke:rgb(48, 48, 48);"/><text class="clickable sprotty-label state" id="sprotty_fsm$state_q/state$DataWait/label" transform="translate(6, 8) translate(33.8125, 19)" style="cursor:default;perspective-origin:0px 0px;fill:rgb(48, 48, 48);text-anchor:middle;">DataWait</text></g><g id="sprotty_fsm$state_q/state$AckPls" transform="translate(82.359375, 96)" class="state"><ellipse cx="30.4375" cy="20" rx="30.4375" ry="20" class="sprotty-node clickable" style="fill:rgb(255, 255, 255);stroke:rgb(48, 48, 48);"/><text class="clickable sprotty-label state" id="sprotty_fsm$state_q/state$AckPls/label" transform="translate(6, 8) translate(24.4375, 19)" style="cursor:default;perspective-origin:0px 0px;fill:rgb(48, 48, 48);text-anchor:middle;">AckPls</text></g><g id="sprotty_fsm$state_q/state$Idle" transform="translate(112.921875, 156)" class="state"><ellipse cx="20.09375" cy="20" rx="20.09375" ry="20" class="sprotty-node clickable" style="fill:rgb(255, 255, 255);stroke:rgb(48, 48, 48);"/><text class="clickable sprotty-label state" id="sprotty_fsm$state_q/state$Idle/label" transform="translate(6, 8) translate(14.03125, 19)" style="cursor:default;perspective-origin:0.0625px 0px;fill:rgb(48, 48, 48);text-anchor:middle;">Idle</text></g><g id="sprotty_fsm$state_q/state$Error" transform="translate(12, 36)" class="dead state"><ellipse cx="25.1796875" cy="20" rx="25.1796875" ry="20" class="sprotty-node clickable" style="fill:rgb(194, 94, 95);stroke:rgb(135, 51, 52);"/><text class="clickable sprotty-label state" id="sprotty_fsm$state_q/state$Error/label" transform="translate(6, 8) translate(18.78125, 19)" style="cursor:default;perspective-origin:0.390625px 0px;fill:rgb(48, 48, 48);text-anchor:middle;">Error</text></g><g id="sprotty_fsm$state_q/state$Idle_to_fsm$state_q/state$DataWait" class="sprotty-edge transition" style="fill:none;stroke:rgb(48, 48, 48);stroke-linejoin:round;"><g><path d=" M139.71354166666669,156 C153.234375,146 153.234375,141 153.234375,135.16666666666666 C153.234375,129.33333333333331 153.234375,122.66666666666666 153.234375,116 C153.234375,109.33333333333333 153.234375,102.66666666666666 153.234375,96.83333333333333 C153.234375,91 153.234375,86 146.28645833333334,76"/><path d=" M139.71354166666669,156 C153.234375,146 153.234375,141 153.234375,135.16666666666666 C153.234375,129.33333333333331 153.234375,122.66666666666666 153.234375,116 C153.234375,109.33333333333333 153.234375,102.66666666666666 153.234375,96.83333333333333 C153.234375,91 153.234375,86 146.28645833333334,76" class="clickable"/></g><path d="M 146.28645833333334,76 L 153.28645833333334,73.5 L 153.28645833333334,78.5 Z" transform="rotate(55.20874910906146 146.28645833333334 76)" class="arrow" style="fill:rgb(48, 48, 48);stroke-linejoin:miter;stroke-miterlimit:2;"/></g><g id="sprotty_fsm$state_q/state$DataWait_to_fsm$state_q/state$AckPls" class="sprotty-edge transition" style="fill:none;stroke:rgb(48, 48, 48);stroke-linejoin:round;"><g><path d=" M119.74479166666667,76 C119.74479166666667,76 113.49166666666667,86 112.796875,96"/><path d=" M119.74479166666667,76 C119.74479166666667,76 113.49166666666667,86 112.796875,96" class="clickable"/></g><path d="M 112.796875,96 L 119.796875,93.5 L 119.796875,98.5 Z" transform="rotate(-86.02552417528699 112.796875 96)" class="arrow" style="fill:rgb(48, 48, 48);stroke-linejoin:miter;stroke-miterlimit:2;"/></g><g id="sprotty_fsm$state_q/state$AckPls_to_fsm$state_q/state$Idle" class="sprotty-edge transition" style="fill:none;stroke:rgb(48, 48, 48);stroke-linejoin:round;"><g><path d=" M112.796875,136 C112.796875,136 114.14895833333334,146 126.31770833333333,156"/><path d=" M112.796875,136 C112.796875,136 114.14895833333334,146 126.31770833333333,156" class="clickable"/></g><path d="M 126.31770833333333,156 L 133.31770833333331,153.5 L 133.31770833333331,158.5 Z" transform="rotate(-140.587417879218 126.31770833333333 156)" class="arrow" style="fill:rgb(48, 48, 48);stroke-linejoin:miter;stroke-miterlimit:2;"/></g></g></g></svg>