<svg xmlns="http://www.w3.org/2000/svg" id="sprotty_root" class="sprotty-graph sprotty-state-machine statemachine" style="font-family:&quot;Noto Sans&quot;, Helvetica, Arial, sans-serif;perspective-origin:0px 0px;transform-origin:0px 0px;" version="1.1" viewBox="10 10 369.7109375 348" width="369.7109375" height="348"><g transform="scale(1) translate(0,0)"><g id="sprotty_fsm$state_q" transform="translate(15, 15)" class="statemachine"><g class="sprotty-block" style="fill:rgb(255, 255, 255);stroke:rgb(48, 48, 48);stroke-dasharray:0px;"><rect x="0" y="0" rx="1" ry="1" width="359.7109375" height="338"/><text x="179.85546875" y="12" class="sprotty-block-name" style="cursor:pointer;font-weight:700;perspective-origin:179.859px 0px;fill:rgb(48, 48, 48);stroke:rgba(0, 0, 0, 0);dominant-baseline:middle;text-anchor:middle;">state_q</text><line x1="0" y1="20" x2="359.7109375" y2="20"/></g><g id="sprotty_fsm$state_q/state$FlowModeChk" transform="translate(156.3515625, 156)" class="state"><ellipse cx="59.1328125" cy="20" rx="59.1328125" ry="20" class="sprotty-node clickable" style="fill:rgb(255, 255, 255);stroke:rgb(48, 48, 48);"/><text class="clickable sprotty-label state" id="sprotty_fsm$state_q/state$FlowModeChk/label" transform="translate(6, 8) translate(53.046875, 19)" style="cursor:default;perspective-origin:0.078125px 0px;fill:rgb(48, 48, 48);text-anchor:middle;">FlowModeChk</text></g><g id="sprotty_fsm$state_q/state$BypassMode" transform="translate(228.8828125, 216)" class="state"><ellipse cx="52.9453125" cy="20" rx="52.9453125" ry="20" class="sprotty-node clickable" style="fill:rgb(255, 255, 255);stroke:rgb(48, 48, 48);"/><text class="clickable sprotty-label state" id="sprotty_fsm$state_q/state$BypassMode/label" transform="translate(6, 8) translate(46.875, 19)" style="cursor:default;perspective-origin:0.0625px 0px;fill:rgb(48, 48, 48);text-anchor:middle;">BypassMode</text></g><g id="sprotty_fsm$state_q/state$Idle" transform="translate(190.484375, 286)" class="state"><ellipse cx="25" cy="20" rx="25" ry="20" class="sprotty-node clickable" style="fill:rgb(255, 255, 255);stroke:rgb(48, 48, 48);"/><text class="clickable sprotty-label state" id="sprotty_fsm$state_q/state$Idle/label" transform="translate(10.90625, 8) translate(14.03125, 19)" style="cursor:default;perspective-origin:0.0625px 0px;fill:rgb(48, 48, 48);text-anchor:middle;">Idle</text></g><g id="sprotty_fsm$state_q/state$Error" transform="translate(12, 36)" class="dead state"><ellipse cx="25.1796875" cy="20" rx="25.1796875" ry="20" class="sprotty-node clickable" style="fill:rgb(194, 94, 95);stroke:rgb(135, 51, 52);"/><text class="clickable sprotty-label state" id="sprotty_fsm$state_q/state$Error/label" transform="translate(6, 8) translate(18.78125, 19)" style="cursor:default;perspective-origin:0.390625px 0px;fill:rgb(48, 48, 48);text-anchor:middle;">Error</text></g><g id="sprotty_fsm$state_q/state$HealthTestDone" transform="translate(149.953125, 36)" class="state"><ellipse cx="65.53125" cy="20" rx="65.53125" ry="20" class="sprotty-node clickable" style="fill:rgb(255, 255, 255);stroke:rgb(48, 48, 48);"/><text class="clickable sprotty-label state" id="sprotty_fsm$state_q/state$HealthTestDone/label" transform="translate(6, 8) translate(59.46875, 19)" style="cursor:default;perspective-origin:0.0625px 0px;fill:rgb(48, 48, 48);text-anchor:middle;">HealthTestDone</text></g><g id="sprotty_fsm$state_q/state$PostHealthTestChk" transform="translate(138.953125, 96)" class="state"><ellipse cx="76.53125" cy="20" rx="76.53125" ry="20" class="sprotty-node clickable" style="fill:rgb(255, 255, 255);stroke:rgb(48, 48, 48);"/><text class="clickable sprotty-label state" id="sprotty_fsm$state_q/state$PostHealthTestChk/label" transform="translate(6, 8) translate(70.453125, 19)" style="cursor:default;perspective-origin:0.078125px 0px;fill:rgb(48, 48, 48);text-anchor:middle;">PostHealthTestChk</text></g><g id="sprotty_fsm$state_q/state$NormalMode" transform="translate(94.3984375, 216)" class="state"><ellipse cx="54.7421875" cy="20" rx="54.7421875" ry="20" class="sprotty-node clickable" style="fill:rgb(255, 255, 255);stroke:rgb(48, 48, 48);"/><text class="clickable sprotty-label state" id="sprotty_fsm$state_q/state$NormalMode/label" transform="translate(6, 8) translate(48.671875, 19)" style="cursor:default;perspective-origin:0.0625px 0px;fill:rgb(48, 48, 48);text-anchor:middle;">NormalMode</text></g><g id="sprotty_fsm$state_q/state$Idle_to_fsm$state_q/state$HealthTestDone" class="sprotty-edge transition" style="fill:none;stroke:rgb(48, 48, 48);stroke-linejoin:round;"><g><path d=" M200.484375,286 C82.359375,271 82.359375,263.5 82.359375,255.5833333333333 C82.359375,247.66666666666663 82.359375,239.3333333333333 82.359375,230.99999999999997 C82.359375,222.66666666666666 82.359375,214.33333333333331 82.359375,200.16666666666666 C82.359375,186 82.359375,166 82.359375,151.83333333333331 C82.359375,137.66666666666669 82.359375,129.33333333333334 82.359375,121 C82.359375,112.66666666666667 82.359375,104.33333333333333 82.359375,97.66666666666666 C82.359375,91 82.359375,86 182.71875,76"/><path d=" M200.484375,286 C82.359375,271 82.359375,263.5 82.359375,255.5833333333333 C82.359375,247.66666666666663 82.359375,239.3333333333333 82.359375,230.99999999999997 C82.359375,222.66666666666666 82.359375,214.33333333333331 82.359375,200.16666666666666 C82.359375,186 82.359375,166 82.359375,151.83333333333331 C82.359375,137.66666666666669 82.359375,129.33333333333334 82.359375,121 C82.359375,112.66666666666667 82.359375,104.33333333333333 82.359375,97.66666666666666 C82.359375,91 82.359375,86 182.71875,76" class="clickable"/></g><path d="M 182.71875,76 L 189.71875,73.5 L 189.71875,78.5 Z" transform="rotate(174.3097213819019 182.71875 76)" class="arrow" style="fill:rgb(48, 48, 48);stroke-linejoin:miter;stroke-miterlimit:2;"/></g><g id="sprotty_fsm$state_q/state$HealthTestDone_to_fsm$state_q/state$Idle" class="sprotty-edge transition" style="fill:none;stroke:rgb(48, 48, 48);stroke-linejoin:round;"><g><path d=" M248.25,76 C346.7109375,86 346.7109375,91 346.7109375,97.66666666666666 C346.7109375,104.33333333333333 346.7109375,112.66666666666667 346.7109375,121 C346.7109375,129.33333333333334 346.7109375,137.66666666666669 346.7109375,151.83333333333331 C346.7109375,166 346.7109375,186 346.7109375,200.16666666666666 C346.7109375,214.33333333333331 346.7109375,222.66666666666666 346.7109375,230.99999999999997 C346.7109375,239.3333333333333 346.7109375,247.66666666666663 346.7109375,255.5833333333333 C346.7109375,263.5 346.7109375,271 230.484375,286"/><path d=" M248.25,76 C346.7109375,86 346.7109375,91 346.7109375,97.66666666666666 C346.7109375,104.33333333333333 346.7109375,112.66666666666667 346.7109375,121 C346.7109375,129.33333333333334 346.7109375,137.66666666666669 346.7109375,151.83333333333331 C346.7109375,166 346.7109375,186 346.7109375,200.16666666666666 C346.7109375,214.33333333333331 346.7109375,222.66666666666666 346.7109375,230.99999999999997 C346.7109375,239.3333333333333 346.7109375,247.66666666666663 346.7109375,255.5833333333333 C346.7109375,263.5 346.7109375,271 230.484375,286" class="clickable"/></g><path d="M 230.484375,286 L 237.484375,283.5 L 237.484375,288.5 Z" transform="rotate(-7.35384576583265 230.484375 286)" class="arrow" style="fill:rgb(48, 48, 48);stroke-linejoin:miter;stroke-miterlimit:2;"/></g><g id="sprotty_fsm$state_q/state$HealthTestDone_to_fsm$state_q/state$PostHealthTestChk" class="sprotty-edge transition" style="fill:none;stroke:rgb(48, 48, 48);stroke-linejoin:round;"><g><path d=" M215.484375,76 C215.484375,76 215.484375,86 215.484375,96"/><path d=" M215.484375,76 C215.484375,76 215.484375,86 215.484375,96" class="clickable"/></g><path d="M 215.484375,96 L 222.484375,93.5 L 222.484375,98.5 Z" transform="rotate(-90 215.484375 96)" class="arrow" style="fill:rgb(48, 48, 48);stroke-linejoin:miter;stroke-miterlimit:2;"/></g><g id="sprotty_fsm$state_q/state$PostHealthTestChk_to_fsm$state_q/state$FlowModeChk" class="sprotty-edge transition" style="fill:none;stroke:rgb(48, 48, 48);stroke-linejoin:round;"><g><path d=" M215.484375,136 C215.484375,136 215.484375,146 215.484375,156"/><path d=" M215.484375,136 C215.484375,136 215.484375,146 215.484375,156" class="clickable"/></g><path d="M 215.484375,156 L 222.484375,153.5 L 222.484375,158.5 Z" transform="rotate(-90 215.484375 156)" class="arrow" style="fill:rgb(48, 48, 48);stroke-linejoin:miter;stroke-miterlimit:2;"/></g><g id="sprotty_fsm$state_q/state$FlowModeChk_to_fsm$state_q/state$BypassMode" class="sprotty-edge transition" style="fill:none;stroke:rgb(48, 48, 48);stroke-linejoin:round;"><g><path d=" M235.1953125,196 C235.1953125,196 277.16484375,206 281.828125,216"/><path d=" M235.1953125,196 C235.1953125,196 277.16484375,206 281.828125,216" class="clickable"/></g><path d="M 281.828125,216 L 288.828125,213.5 L 288.828125,218.5 Z" transform="rotate(-115.00096321126124 281.828125 216)" class="arrow" style="fill:rgb(48, 48, 48);stroke-linejoin:miter;stroke-miterlimit:2;"/></g><g id="sprotty_fsm$state_q/state$FlowModeChk_to_fsm$state_q/state$NormalMode" class="sprotty-edge transition" style="fill:none;stroke:rgb(48, 48, 48);stroke-linejoin:round;"><g><path d=" M195.7734375,196 C195.7734375,196 153.80390625,206 149.140625,216"/><path d=" M195.7734375,196 C195.7734375,196 153.80390625,206 149.140625,216" class="clickable"/></g><path d="M 149.140625,216 L 156.140625,213.5 L 156.140625,218.5 Z" transform="rotate(-64.99903678873876 149.140625 216)" class="arrow" style="fill:rgb(48, 48, 48);stroke-linejoin:miter;stroke-miterlimit:2;"/></g><g id="sprotty_fsm$state_q/state$BypassMode_to_fsm$state_q/state$Idle" class="sprotty-edge transition" style="fill:none;stroke:rgb(48, 48, 48);stroke-linejoin:round;"><g><path d=" M281.828125,256 C281.828125,256 275.69375,271 220.484375,286"/><path d=" M281.828125,256 C281.828125,256 275.69375,271 220.484375,286" class="clickable"/></g><path d="M 220.484375,286 L 227.484375,283.5 L 227.484375,288.5 Z" transform="rotate(-15.19994665343256 220.484375 286)" class="arrow" style="fill:rgb(48, 48, 48);stroke-linejoin:miter;stroke-miterlimit:2;"/></g><g id="sprotty_fsm$state_q/state$NormalMode_to_fsm$state_q/state$Idle" class="sprotty-edge transition" style="fill:none;stroke:rgb(48, 48, 48);stroke-linejoin:round;"><g><path d=" M149.140625,256 C149.140625,256 155.275,271 210.484375,286"/><path d=" M149.140625,256 C149.140625,256 155.275,271 210.484375,286" class="clickable"/></g><path d="M 210.484375,286 L 217.484375,283.5 L 217.484375,288.5 Z" transform="rotate(-164.80005334656744 210.484375 286)" class="arrow" style="fill:rgb(48, 48, 48);stroke-linejoin:miter;stroke-miterlimit:2;"/></g></g></g></svg>