<svg xmlns="http://www.w3.org/2000/svg" id="sprotty_root" class="sprotty-graph sprotty-state-machine statemachine" style="font-family:&quot;Noto Sans&quot;, Helvetica, Arial, sans-serif;perspective-origin:0px 0px;transform-origin:0px 0px;" version="1.1" viewBox="10 10 222.71875 228" width="222.71875" height="228"><g transform="scale(1) translate(0,0)"><g id="sprotty_fsm$state_q" transform="translate(15, 15)" class="statemachine"><g class="sprotty-block" style="fill:rgb(255, 255, 255);stroke:rgb(48, 48, 48);stroke-dasharray:0px;"><rect x="0" y="0" rx="1" ry="1" width="212.71875" height="218"/><text x="106.359375" y="12" class="sprotty-block-name" style="cursor:pointer;font-weight:700;perspective-origin:106.359px 0px;fill:rgb(48, 48, 48);stroke:rgba(0, 0, 0, 0);dominant-baseline:middle;text-anchor:middle;">state_q</text><line x1="0" y1="20" x2="212.71875" y2="20"/></g><g id="sprotty_fsm$state_q/state$Idle" transform="translate(87.99479166666667, 96)" class="state"><ellipse cx="25" cy="20" rx="25" ry="20" class="sprotty-node clickable" style="fill:rgb(255, 255, 255);stroke:rgb(48, 48, 48);"/><text class="clickable sprotty-label state" id="sprotty_fsm$state_q/state$Idle/label" transform="translate(10.90625, 8) translate(14.03125, 19)" style="cursor:default;perspective-origin:0.0625px 0px;fill:rgb(48, 48, 48);text-anchor:middle;">Idle</text></g><g id="sprotty_fsm$state_q/state$Error" transform="translate(12, 36)" class="dead state"><ellipse cx="25.1796875" cy="20" rx="25.1796875" ry="20" class="sprotty-node clickable" style="fill:rgb(194, 94, 95);stroke:rgb(135, 51, 52);"/><text class="clickable sprotty-label state" id="sprotty_fsm$state_q/state$Error/label" transform="translate(6, 8) translate(18.78125, 19)" style="cursor:default;perspective-origin:0.390625px 0px;fill:rgb(48, 48, 48);text-anchor:middle;">Error</text></g><g id="sprotty_fsm$state_q/state$AckImmed" transform="translate(12, 166)" class="state"><ellipse cx="45.90625" cy="20" rx="45.90625" ry="20" class="sprotty-node clickable" style="fill:rgb(255, 255, 255);stroke:rgb(48, 48, 48);"/><text class="clickable sprotty-label state" id="sprotty_fsm$state_q/state$AckImmed/label" transform="translate(6, 8) translate(39.90625, 19)" style="cursor:default;perspective-origin:0px 0px;fill:rgb(48, 48, 48);text-anchor:middle;">AckImmed</text></g><g id="sprotty_fsm$state_q/state$AckWait" transform="translate(128.8125, 166)" class="state"><ellipse cx="35.953125" cy="20" rx="35.953125" ry="20" class="sprotty-node clickable" style="fill:rgb(255, 255, 255);stroke:rgb(48, 48, 48);"/><text class="clickable sprotty-label state" id="sprotty_fsm$state_q/state$AckWait/label" transform="translate(6, 8) translate(29.953125, 19)" style="cursor:default;perspective-origin:0px 0px;fill:rgb(48, 48, 48);text-anchor:middle;">AckWait</text></g><g id="sprotty_fsm$state_q/state$Idle_to_fsm$state_q/state$AckImmed" class="sprotty-edge transition" style="fill:none;stroke:rgb(48, 48, 48);stroke-linejoin:round;"><g><path d=" M107.99479166666667,136 C107.99479166666667,136 76.68697916666666,151 73.20833333333334,166"/><path d=" M107.99479166666667,136 C107.99479166666667,136 76.68697916666666,151 73.20833333333334,166" class="clickable"/></g><path d="M 73.20833333333334,166 L 80.20833333333334,163.5 L 80.20833333333334,168.5 Z" transform="rotate(-76.94335736290445 73.20833333333334 166)" class="arrow" style="fill:rgb(48, 48, 48);stroke-linejoin:miter;stroke-miterlimit:2;"/></g><g id="sprotty_fsm$state_q/state$Idle_to_fsm$state_q/state$AckWait" class="sprotty-edge transition" style="fill:none;stroke:rgb(48, 48, 48);stroke-linejoin:round;"><g><path d=" M127.99479166666667,136 C127.99479166666667,136 171.87447916666667,151 176.75,166"/><path d=" M127.99479166666667,136 C127.99479166666667,136 171.87447916666667,151 176.75,166" class="clickable"/></g><path d="M 176.75,166 L 183.75,163.5 L 183.75,168.5 Z" transform="rotate(-108.00596096508373 176.75 166)" class="arrow" style="fill:rgb(48, 48, 48);stroke-linejoin:miter;stroke-miterlimit:2;"/></g><g id="sprotty_fsm$state_q/state$AckImmed_to_fsm$state_q/state$Idle" class="sprotty-edge transition" style="fill:none;stroke:rgb(48, 48, 48);stroke-linejoin:round;"><g><path d=" M42.60416666666667,166 C48.14322916666667,151 97.99479166666667,136 97.99479166666667,136"/><path d=" M42.60416666666667,166 C48.14322916666667,151 97.99479166666667,136 97.99479166666667,136" class="clickable"/></g><path d="M 97.99479166666667,136 L 104.99479166666667,133.5 L 104.99479166666667,138.5 Z" transform="rotate(163.25381227453772 97.99479166666667 136)" class="arrow" style="fill:rgb(48, 48, 48);stroke-linejoin:miter;stroke-miterlimit:2;"/></g><g id="sprotty_fsm$state_q/state$AckWait_to_fsm$state_q/state$Idle" class="sprotty-edge transition" style="fill:none;stroke:rgb(48, 48, 48);stroke-linejoin:round;"><g><path d=" M152.78125,166 C149.30260416666667,151 117.99479166666667,136 117.99479166666667,136"/><path d=" M152.78125,166 C149.30260416666667,151 117.99479166666667,136 117.99479166666667,136" class="clickable"/></g><path d="M 117.99479166666667,136 L 124.99479166666667,133.5 L 124.99479166666667,138.5 Z" transform="rotate(25.599716602637343 117.99479166666667 136)" class="arrow" style="fill:rgb(48, 48, 48);stroke-linejoin:miter;stroke-miterlimit:2;"/></g></g></g></svg>