<svg xmlns="http://www.w3.org/2000/svg" id="sprotty_root" class="sprotty-graph sprotty-state-machine statemachine" style="font-family:&quot;Noto Sans&quot;, Helvetica, Arial, sans-serif;perspective-origin:0px 0px;transform-origin:0px 0px;" version="1.1" viewBox="10 10 315.703125 398" width="315.703125" height="398"><g transform="scale(1) translate(0,0)"><g id="sprotty_fsm$rma_state_q" transform="translate(15, 15)" class="statemachine"><g class="sprotty-block" style="fill:rgb(255, 255, 255);stroke:rgb(48, 48, 48);stroke-dasharray:0px;"><rect x="0" y="0" rx="1" ry="1" width="305.703125" height="388"/><text x="152.8515625" y="12" class="sprotty-block-name" style="cursor:pointer;font-weight:700;perspective-origin:152.844px 0px;fill:rgb(48, 48, 48);stroke:rgba(0, 0, 0, 0);dominant-baseline:middle;text-anchor:middle;">rma_state_q</text><line x1="0" y1="20" x2="305.703125" y2="20"/></g><g id="sprotty_fsm$rma_state_q/state$StRmaErase" transform="translate(12, 156)" class="state"><ellipse cx="50.9296875" cy="20" rx="50.9296875" ry="20" class="sprotty-node clickable" style="fill:rgb(255, 255, 255);stroke:rgb(48, 48, 48);"/><text class="clickable sprotty-label state" id="sprotty_fsm$rma_state_q/state$StRmaErase/label" transform="translate(6, 8) translate(44.859375, 19)" style="cursor:default;perspective-origin:0.0625px 0px;fill:rgb(48, 48, 48);text-anchor:middle;">StRmaErase</text></g><g id="sprotty_fsm$rma_state_q/state$StRmaProgram" transform="translate(106.2578125, 36)" class="state"><ellipse cx="62.8125" cy="20" rx="62.8125" ry="20" class="sprotty-node clickable" style="fill:rgb(255, 255, 255);stroke:rgb(48, 48, 48);"/><text class="clickable sprotty-label state" id="sprotty_fsm$rma_state_q/state$StRmaProgram/label" transform="translate(6, 8) translate(56.8125, 19)" style="cursor:default;perspective-origin:0px 0px;fill:rgb(48, 48, 48);text-anchor:middle;">StRmaProgram</text></g><g id="sprotty_fsm$rma_state_q/state$StRmaRdVerify" transform="translate(152.4453125, 156)" class="state"><ellipse cx="61.8359375" cy="20" rx="61.8359375" ry="20" class="sprotty-node clickable" style="fill:rgb(255, 255, 255);stroke:rgb(48, 48, 48);"/><text class="clickable sprotty-label state" id="sprotty_fsm$rma_state_q/state$StRmaRdVerify/label" transform="translate(6, 8) translate(55.5, 19)" style="cursor:default;perspective-origin:0.328125px 0px;fill:rgb(48, 48, 48);text-anchor:middle;">StRmaRdVerify</text></g><g id="sprotty_fsm$rma_state_q/state$StRmaProgramWait" transform="translate(134.859375, 96)" class="state"><ellipse cx="79.421875" cy="20" rx="79.421875" ry="20" class="sprotty-node clickable" style="fill:rgb(255, 255, 255);stroke:rgb(48, 48, 48);"/><text class="clickable sprotty-label state" id="sprotty_fsm$rma_state_q/state$StRmaProgramWait/label" transform="translate(6, 8) translate(73.421875, 19)" style="cursor:default;perspective-origin:0px 0px;fill:rgb(48, 48, 48);text-anchor:middle;">StRmaProgramWait</text></g><g id="sprotty_fsm$rma_state_q/state$StRmaIdle" transform="translate(40.2421875, 336)" class="state"><ellipse cx="44.6640625" cy="20" rx="44.6640625" ry="20" class="sprotty-node clickable" style="fill:rgb(255, 255, 255);stroke:rgb(48, 48, 48);"/><text class="clickable sprotty-label state" id="sprotty_fsm$rma_state_q/state$StRmaIdle/label" transform="translate(6, 8) translate(38.59375, 19)" style="cursor:default;perspective-origin:0.0625px 0px;fill:rgb(48, 48, 48);text-anchor:middle;">StRmaIdle</text></g><g id="sprotty_fsm$rma_state_q/state$StRmaWordSel" transform="translate(64.95572916666667, 216)" class="state"><ellipse cx="61.890625" cy="20" rx="61.890625" ry="20" class="sprotty-node clickable" style="fill:rgb(255, 255, 255);stroke:rgb(48, 48, 48);"/><text class="clickable sprotty-label state" id="sprotty_fsm$rma_state_q/state$StRmaWordSel/label" transform="translate(6, 8) translate(55.890625, 19)" style="cursor:default;perspective-origin:0px 0px;fill:rgb(48, 48, 48);text-anchor:middle;">StRmaWordSel</text></g><g id="sprotty_fsm$rma_state_q/state$StRmaPageSel" transform="translate(25.015625000000014, 276)" class="state"><ellipse cx="59.890625" cy="20" rx="59.890625" ry="20" class="sprotty-node clickable" style="fill:rgb(255, 255, 255);stroke:rgb(48, 48, 48);"/><text class="clickable sprotty-label state" id="sprotty_fsm$rma_state_q/state$StRmaPageSel/label" transform="translate(6, 8) translate(53.890625, 19)" style="cursor:default;perspective-origin:0px 0px;fill:rgb(48, 48, 48);text-anchor:middle;">StRmaPageSel</text></g><g id="sprotty_fsm$rma_state_q/state$StRmaIdle_to_fsm$rma_state_q/state$StRmaPageSel" class="sprotty-edge transition" style="fill:none;stroke:rgb(48, 48, 48);stroke-linejoin:round;"><g><path d=" M70.01822916666667,336 C67.48046875,326 64.94270833333334,316 64.94270833333334,316"/><path d=" M70.01822916666667,336 C67.48046875,326 64.94270833333334,316 64.94270833333334,316" class="clickable"/></g><path d="M 64.94270833333334,316 L 71.94270833333334,313.5 L 71.94270833333334,318.5 Z" transform="rotate(75.76031343642866 64.94270833333334 316)" class="arrow" style="fill:rgb(48, 48, 48);stroke-linejoin:miter;stroke-miterlimit:2;"/></g><g id="sprotty_fsm$rma_state_q/state$StRmaPageSel_to_fsm$rma_state_q/state$StRmaErase" class="sprotty-edge transition" style="fill:none;stroke:rgb(48, 48, 48);stroke-linejoin:round;"><g><path d=" M64.94270833333334,276 C45.953125,266 45.953125000000014,261 45.95312500000003,254.3333333333333 C45.953125000000014,247.66666666666669 45.953125,239.33333333333337 45.953125,228.91666666666669 C45.953125,218.5 45.953125,206 45.953125,196"/><path d=" M64.94270833333334,276 C45.953125,266 45.953125000000014,261 45.95312500000003,254.3333333333333 C45.953125000000014,247.66666666666669 45.953125,239.33333333333337 45.953125,228.91666666666669 C45.953125,218.5 45.953125,206 45.953125,196" class="clickable"/></g><path d="M 45.953125,196 L 52.953125,193.5 L 52.953125,198.5 Z" transform="rotate(90 45.953125 196)" class="arrow" style="fill:rgb(48, 48, 48);stroke-linejoin:miter;stroke-miterlimit:2;"/></g><g id="sprotty_fsm$rma_state_q/state$StRmaPageSel_to_fsm$rma_state_q/state$StRmaIdle" class="sprotty-edge transition" style="fill:none;stroke:rgb(48, 48, 48);stroke-linejoin:round;"><g><path d=" M104.86979166666667,316 C104.86979166666667,316 102.33203125,326 99.79427083333334,336"/><path d=" M104.86979166666667,316 C104.86979166666667,316 102.33203125,326 99.79427083333334,336" class="clickable"/></g><path d="M 99.79427083333334,336 L 106.79427083333334,333.5 L 106.79427083333334,338.5 Z" transform="rotate(-75.76031343642866 99.79427083333334 336)" class="arrow" style="fill:rgb(48, 48, 48);stroke-linejoin:miter;stroke-miterlimit:2;"/></g><g id="sprotty_fsm$rma_state_q/state$StRmaErase_to_fsm$rma_state_q/state$StRmaWordSel" class="sprotty-edge transition" style="fill:none;stroke:rgb(48, 48, 48);stroke-linejoin:round;"><g><path d=" M79.90625,196 C79.90625,196 81.50572916666667,206 95.90104166666667,216"/><path d=" M79.90625,196 C79.90625,196 81.50572916666667,206 95.90104166666667,216" class="clickable"/></g><path d="M 95.90104166666667,216 L 102.90104166666667,213.5 L 102.90104166666667,218.5 Z" transform="rotate(-145.21342862324263 95.90104166666667 216)" class="arrow" style="fill:rgb(48, 48, 48);stroke-linejoin:miter;stroke-miterlimit:2;"/></g><g id="sprotty_fsm$rma_state_q/state$StRmaWordSel_to_fsm$rma_state_q/state$StRmaProgram" class="sprotty-edge transition" style="fill:none;stroke:rgb(48, 48, 48);stroke-linejoin:round;"><g><path d=" M126.84635416666667,216 C123.859375,206 123.859375,201 123.859375,190.1666666666667 C123.859375,179.33333333333337 123.859375,162.66666666666669 123.859375,150.16666666666669 C123.859375,137.66666666666669 123.859375,129.33333333333331 123.85937500000001,121 C123.85937500000001,112.66666666666666 123.859375,104.33333333333334 123.859375,97.66666666666669 C123.859375,91 123.859375,86 148.1328125,76"/><path d=" M126.84635416666667,216 C123.859375,206 123.859375,201 123.859375,190.1666666666667 C123.859375,179.33333333333337 123.859375,162.66666666666669 123.859375,150.16666666666669 C123.859375,137.66666666666669 123.859375,129.33333333333331 123.85937500000001,121 C123.85937500000001,112.66666666666666 123.859375,104.33333333333334 123.859375,97.66666666666669 C123.859375,91 123.859375,86 148.1328125,76" class="clickable"/></g><path d="M 148.1328125,76 L 155.1328125,73.5 L 155.1328125,78.5 Z" transform="rotate(157.60966320362917 148.1328125 76)" class="arrow" style="fill:rgb(48, 48, 48);stroke-linejoin:miter;stroke-miterlimit:2;"/></g><g id="sprotty_fsm$rma_state_q/state$StRmaWordSel_to_fsm$rma_state_q/state$StRmaPageSel" class="sprotty-edge transition" style="fill:none;stroke:rgb(48, 48, 48);stroke-linejoin:round;"><g><path d=" M126.84635416666667,256 C126.84635416666667,256 124.64869791666668,266 104.86979166666667,276"/><path d=" M126.84635416666667,256 C126.84635416666667,256 124.64869791666668,266 104.86979166666667,276" class="clickable"/></g><path d="M 104.86979166666667,276 L 111.86979166666667,273.5 L 111.86979166666667,278.5 Z" transform="rotate(-26.820664854714824 104.86979166666667 276)" class="arrow" style="fill:rgb(48, 48, 48);stroke-linejoin:miter;stroke-miterlimit:2;"/></g><g id="sprotty_fsm$rma_state_q/state$StRmaProgram_to_fsm$rma_state_q/state$StRmaProgramWait" class="sprotty-edge transition" style="fill:none;stroke:rgb(48, 48, 48);stroke-linejoin:round;"><g><path d=" M190.0078125,76 C190.0078125,76 211.85390625,86 214.28125,96"/><path d=" M190.0078125,76 C190.0078125,76 211.85390625,86 214.28125,96" class="clickable"/></g><path d="M 214.28125,96 L 221.28125,93.5 L 221.28125,98.5 Z" transform="rotate(-103.64377662894907 214.28125 96)" class="arrow" style="fill:rgb(48, 48, 48);stroke-linejoin:miter;stroke-miterlimit:2;"/></g><g id="sprotty_fsm$rma_state_q/state$StRmaProgramWait_to_fsm$rma_state_q/state$StRmaRdVerify" class="sprotty-edge transition" style="fill:none;stroke:rgb(48, 48, 48);stroke-linejoin:round;"><g><path d=" M214.28125,136 C214.28125,136 214.28125,146 214.28125,156"/><path d=" M214.28125,136 C214.28125,136 214.28125,146 214.28125,156" class="clickable"/></g><path d="M 214.28125,156 L 221.28125,153.5 L 221.28125,158.5 Z" transform="rotate(-90 214.28125 156)" class="arrow" style="fill:rgb(48, 48, 48);stroke-linejoin:miter;stroke-miterlimit:2;"/></g><g id="sprotty_fsm$rma_state_q/state$StRmaRdVerify_to_fsm$rma_state_q/state$StRmaWordSel" class="sprotty-edge transition" style="fill:none;stroke:rgb(48, 48, 48);stroke-linejoin:round;"><g><path d=" M214.28125,196 C214.28125,196 208.63229166666667,206 157.79166666666669,216"/><path d=" M214.28125,196 C214.28125,196 208.63229166666667,206 157.79166666666669,216" class="clickable"/></g><path d="M 157.79166666666669,216 L 164.79166666666669,213.5 L 164.79166666666669,218.5 Z" transform="rotate(-11.127632956841516 157.79166666666669 216)" class="arrow" style="fill:rgb(48, 48, 48);stroke-linejoin:miter;stroke-miterlimit:2;"/></g></g></g></svg>