<svg xmlns="http://www.w3.org/2000/svg" id="sprotty_root" class="sprotty-graph sprotty-state-machine statemachine" style="font-family:&quot;Noto Sans&quot;, Helvetica, Arial, sans-serif;perspective-origin:0px 0px;transform-origin:0px 0px;" version="1.1" viewBox="10 10 441.65625 188" width="441.65625" height="188"><g transform="scale(1) translate(0,0)"><g id="sprotty_fsm$state_q" transform="translate(15, 15)" class="statemachine"><g class="sprotty-block" style="fill:rgb(255, 255, 255);stroke:rgb(48, 48, 48);stroke-dasharray:0px;"><rect x="0" y="0" rx="1" ry="1" width="431.65625" height="178"/><text x="215.828125" y="12" class="sprotty-block-name" style="cursor:pointer;font-weight:700;perspective-origin:215.828px 0px;fill:rgb(48, 48, 48);stroke:rgba(0, 0, 0, 0);dominant-baseline:middle;text-anchor:middle;">state_q</text><line x1="0" y1="20" x2="431.65625" y2="20"/></g><g id="sprotty_fsm$state_q/state$StIdle" transform="translate(192.63020833333331, 36)" class="state"><ellipse cx="45" cy="20" rx="45" ry="20" class="sprotty-node clickable" style="fill:rgb(255, 255, 255);stroke:rgb(48, 48, 48);"/><text class="clickable sprotty-label state" id="sprotty_fsm$state_q/state$StIdle/label" transform="translate(23.3359375, 8) translate(21.59375, 19)" style="cursor:default;perspective-origin:0.0625px 0px;fill:rgb(48, 48, 48);text-anchor:middle;">StIdle</text></g><g id="sprotty_fsm$state_q/state$StCtrlProg" transform="translate(331.125, 126)" class="state"><ellipse cx="44.265625" cy="20" rx="44.265625" ry="20" class="sprotty-node clickable" style="fill:rgb(255, 255, 255);stroke:rgb(48, 48, 48);"/><text class="clickable sprotty-label state" id="sprotty_fsm$state_q/state$StCtrlProg/label" transform="translate(6, 8) translate(38.265625, 19)" style="cursor:default;perspective-origin:0px 0px;fill:rgb(48, 48, 48);text-anchor:middle;">StCtrlProg</text></g><g id="sprotty_fsm$state_q/state$StCtrlRead" transform="translate(136.21875, 126)" class="state"><ellipse cx="45.609375" cy="20" rx="45.609375" ry="20" class="sprotty-node clickable" style="fill:rgb(255, 255, 255);stroke:rgb(48, 48, 48);"/><text class="clickable sprotty-label state" id="sprotty_fsm$state_q/state$StCtrlRead/label" transform="translate(6, 8) translate(39.609375, 19)" style="cursor:default;perspective-origin:0px 0px;fill:rgb(48, 48, 48);text-anchor:middle;">StCtrlRead</text></g><g id="sprotty_fsm$state_q/state$StCtrl" transform="translate(252.4375, 126)" class="state"><ellipse cx="26.84375" cy="20" rx="26.84375" ry="20" class="sprotty-node clickable" style="fill:rgb(255, 255, 255);stroke:rgb(48, 48, 48);"/><text class="clickable sprotty-label state" id="sprotty_fsm$state_q/state$StCtrl/label" transform="translate(6, 8) translate(20.84375, 19)" style="cursor:default;perspective-origin:0px 0px;fill:rgb(48, 48, 48);text-anchor:middle;">StCtrl</text></g><g id="sprotty_fsm$state_q/state$StHostRead" transform="translate(12, 126)" class="state"><ellipse cx="49.609375" cy="20" rx="49.609375" ry="20" class="sprotty-node clickable" style="fill:rgb(255, 255, 255);stroke:rgb(48, 48, 48);"/><text class="clickable sprotty-label state" id="sprotty_fsm$state_q/state$StHostRead/label" transform="translate(6, 8) translate(43.609375, 19)" style="cursor:default;perspective-origin:0px 0px;fill:rgb(48, 48, 48);text-anchor:middle;">StHostRead</text></g><g id="sprotty_fsm$state_q/state$StIdle_to_fsm$state_q/state$StHostRead" class="sprotty-edge transition" style="fill:none;stroke:rgb(48, 48, 48);stroke-linejoin:round;"><g><path d=" M212.63020833333331,76 C212.63020833333331,76 91.59427083333333,101 78.14583333333334,126"/><path d=" M212.63020833333331,76 C212.63020833333331,76 91.59427083333333,101 78.14583333333334,126" class="clickable"/></g><path d="M 78.14583333333334,126 L 85.14583333333334,123.5 L 85.14583333333334,128.5 Z" transform="rotate(-61.72252573596833 78.14583333333334 126)" class="arrow" style="fill:rgb(48, 48, 48);stroke-linejoin:miter;stroke-miterlimit:2;"/></g><g id="sprotty_fsm$state_q/state$StIdle_to_fsm$state_q/state$StCtrlRead" class="sprotty-edge transition" style="fill:none;stroke:rgb(48, 48, 48);stroke-linejoin:round;"><g><path d=" M232.63020833333331,76 C232.63020833333331,76 200.59114583333334,101 197.03125,126"/><path d=" M232.63020833333331,76 C232.63020833333331,76 200.59114583333334,101 197.03125,126" class="clickable"/></g><path d="M 197.03125,126 L 204.03125,123.5 L 204.03125,128.5 Z" transform="rotate(-81.89580178404293 197.03125 126)" class="arrow" style="fill:rgb(48, 48, 48);stroke-linejoin:miter;stroke-miterlimit:2;"/></g><g id="sprotty_fsm$state_q/state$StIdle_to_fsm$state_q/state$StCtrlProg" class="sprotty-edge transition" style="fill:none;stroke:rgb(48, 48, 48);stroke-linejoin:round;"><g><path d=" M272.6302083333333,76 C272.6302083333333,76 378.39427083333334,101 390.1458333333333,126"/><path d=" M272.6302083333333,76 C272.6302083333333,76 378.39427083333334,101 390.1458333333333,126" class="clickable"/></g><path d="M 390.1458333333333,126 L 397.1458333333333,123.5 L 397.1458333333333,128.5 Z" transform="rotate(-115.17645752482461 390.1458333333333 126)" class="arrow" style="fill:rgb(48, 48, 48);stroke-linejoin:miter;stroke-miterlimit:2;"/></g><g id="sprotty_fsm$state_q/state$StIdle_to_fsm$state_q/state$StCtrl" class="sprotty-edge transition" style="fill:none;stroke:rgb(48, 48, 48);stroke-linejoin:round;"><g><path d=" M252.63020833333331,76 C252.63020833333331,76 284.66927083333337,101 288.2291666666667,126"/><path d=" M252.63020833333331,76 C252.63020833333331,76 284.66927083333337,101 288.2291666666667,126" class="clickable"/></g><path d="M 288.2291666666667,126 L 295.2291666666667,123.5 L 295.2291666666667,128.5 Z" transform="rotate(-98.10419821595703 288.2291666666667 126)" class="arrow" style="fill:rgb(48, 48, 48);stroke-linejoin:miter;stroke-miterlimit:2;"/></g><g id="sprotty_fsm$state_q/state$StHostRead_to_fsm$state_q/state$StIdle" class="sprotty-edge transition" style="fill:none;stroke:rgb(48, 48, 48);stroke-linejoin:round;"><g><path d=" M45.07291666666667,126 C60.82864583333335,101 202.63020833333331,76 202.63020833333331,76"/><path d=" M45.07291666666667,126 C60.82864583333335,101 202.63020833333331,76 202.63020833333331,76" class="clickable"/></g><path d="M 202.63020833333331,76 L 209.63020833333331,73.5 L 209.63020833333331,78.5 Z" transform="rotate(170.0013485851782 202.63020833333331 76)" class="arrow" style="fill:rgb(48, 48, 48);stroke-linejoin:miter;stroke-miterlimit:2;"/></g><g id="sprotty_fsm$state_q/state$StCtrlRead_to_fsm$state_q/state$StIdle" class="sprotty-edge transition" style="fill:none;stroke:rgb(48, 48, 48);stroke-linejoin:round;"><g><path d=" M166.625,126 C172.22552083333332,101 222.63020833333331,76 222.63020833333331,76"/><path d=" M166.625,126 C172.22552083333332,101 222.63020833333331,76 222.63020833333331,76" class="clickable"/></g><path d="M 222.63020833333331,76 L 229.63020833333331,73.5 L 229.63020833333331,78.5 Z" transform="rotate(153.6192499197265 222.63020833333331 76)" class="arrow" style="fill:rgb(48, 48, 48);stroke-linejoin:miter;stroke-miterlimit:2;"/></g><g id="sprotty_fsm$state_q/state$StCtrlProg_to_fsm$state_q/state$StIdle" class="sprotty-edge transition" style="fill:none;stroke:rgb(48, 48, 48);stroke-linejoin:round;"><g><path d=" M360.6354166666667,126 C350.83489583333335,101 262.6302083333333,76 262.6302083333333,76"/><path d=" M360.6354166666667,126 C350.83489583333335,101 262.6302083333333,76 262.6302083333333,76" class="clickable"/></g><path d="M 262.6302083333333,76 L 269.6302083333333,73.5 L 269.6302083333333,78.5 Z" transform="rotate(15.824408263342233 262.6302083333333 76)" class="arrow" style="fill:rgb(48, 48, 48);stroke-linejoin:miter;stroke-miterlimit:2;"/></g><g id="sprotty_fsm$state_q/state$StCtrl_to_fsm$state_q/state$StIdle" class="sprotty-edge transition" style="fill:none;stroke:rgb(48, 48, 48);stroke-linejoin:round;"><g><path d=" M270.3333333333333,126 C267.5630208333333,101 242.63020833333331,76 242.63020833333331,76"/><path d=" M270.3333333333333,126 C267.5630208333333,101 242.63020833333331,76 242.63020833333331,76" class="clickable"/></g><path d="M 242.63020833333331,76 L 249.63020833333331,73.5 L 249.63020833333331,78.5 Z" transform="rotate(45.077094753330655 242.63020833333331 76)" class="arrow" style="fill:rgb(48, 48, 48);stroke-linejoin:miter;stroke-miterlimit:2;"/></g></g></g></svg>