<svg xmlns="http://www.w3.org/2000/svg" id="sprotty_root" class="sprotty-graph sprotty-state-machine statemachine" style="font-family:&quot;Noto Sans&quot;, Helvetica, Arial, sans-serif;perspective-origin:0px 0px;transform-origin:0px 0px;" version="1.1" viewBox="10 10 309 528" width="309" height="528"><g transform="scale(1) translate(0,0)"><g id="sprotty_fsm$state_q" transform="translate(15, 15)" class="statemachine"><g class="sprotty-block" style="fill:rgb(255, 255, 255);stroke:rgb(48, 48, 48);stroke-dasharray:0px;"><rect x="0" y="0" rx="1" ry="1" width="299" height="518"/><text x="149.5" y="12" class="sprotty-block-name" style="cursor:pointer;font-weight:700;perspective-origin:149.5px 0px;fill:rgb(48, 48, 48);stroke:rgba(0, 0, 0, 0);dominant-baseline:middle;text-anchor:middle;">state_q</text><line x1="0" y1="20" x2="299" y2="20"/></g><g id="sprotty_fsm$state_q/state$StCalcEcc" transform="translate(17.911458333333314, 36)" class="state"><ellipse cx="42.125" cy="20" rx="42.125" ry="20" class="sprotty-node clickable" style="fill:rgb(255, 255, 255);stroke:rgb(48, 48, 48);"/><text class="clickable sprotty-label state" id="sprotty_fsm$state_q/state$StCalcEcc/label" transform="translate(6, 8) translate(36.125, 19)" style="cursor:default;perspective-origin:0px 0px;fill:rgb(48, 48, 48);text-anchor:middle;">StCalcEcc</text></g><g id="sprotty_fsm$state_q/state$StIdle" transform="translate(126.33593749999999, 216)" class="state"><ellipse cx="27.6640625" cy="20" rx="27.6640625" ry="20" class="sprotty-node clickable" style="fill:rgb(255, 255, 255);stroke:rgb(48, 48, 48);"/><text class="clickable sprotty-label state" id="sprotty_fsm$state_q/state$StIdle/label" transform="translate(6, 8) translate(21.59375, 19)" style="cursor:default;perspective-origin:0.0625px 0px;fill:rgb(48, 48, 48);text-anchor:middle;">StIdle</text></g><g id="sprotty_fsm$state_q/state$StCalcMask" transform="translate(168.12252604166665, 406)" class="state"><ellipse cx="48.8046875" cy="20" rx="48.8046875" ry="20" class="sprotty-node clickable" style="fill:rgb(255, 255, 255);stroke:rgb(48, 48, 48);"/><text class="clickable sprotty-label state" id="sprotty_fsm$state_q/state$StCalcMask/label" transform="translate(6, 8) translate(42.71875, 19)" style="cursor:default;perspective-origin:0.078125px 0px;fill:rgb(48, 48, 48);text-anchor:middle;">StCalcMask</text></g><g id="sprotty_fsm$state_q/state$StPrePack" transform="translate(83.234375, 276)" class="state"><ellipse cx="43.84375" cy="20" rx="43.84375" ry="20" class="sprotty-node clickable" style="fill:rgb(255, 255, 255);stroke:rgb(48, 48, 48);"/><text class="clickable sprotty-label state" id="sprotty_fsm$state_q/state$StPrePack/label" transform="translate(6, 8) translate(37.765625, 19)" style="cursor:default;perspective-origin:0.078125px 0px;fill:rgb(48, 48, 48);text-anchor:middle;">StPrePack</text></g><g id="sprotty_fsm$state_q/state$StPostPack" transform="translate(178.93684895833331, 36)" class="state"><ellipse cx="47.6171875" cy="20" rx="47.6171875" ry="20" class="sprotty-node clickable" style="fill:rgb(255, 255, 255);stroke:rgb(48, 48, 48);"/><text class="clickable sprotty-label state" id="sprotty_fsm$state_q/state$StPostPack/label" transform="translate(6, 8) translate(41.53125, 19)" style="cursor:default;perspective-origin:0.078125px 0px;fill:rgb(48, 48, 48);text-anchor:middle;">StPostPack</text></g><g id="sprotty_fsm$state_q/state$StPackData" transform="translate(112.59440104166666, 346)" class="state"><ellipse cx="48.484375" cy="20" rx="48.484375" ry="20" class="sprotty-node clickable" style="fill:rgb(255, 255, 255);stroke:rgb(48, 48, 48);"/><text class="clickable sprotty-label state" id="sprotty_fsm$state_q/state$StPackData/label" transform="translate(6, 8) translate(42.484375, 19)" style="cursor:default;perspective-origin:0px 0px;fill:rgb(48, 48, 48);text-anchor:middle;">StPackData</text></g><g id="sprotty_fsm$state_q/state$StWaitFlash" transform="translate(74, 156)" class="state"><ellipse cx="50" cy="20" rx="50" ry="20" class="sprotty-node clickable" style="fill:rgb(255, 255, 255);stroke:rgb(48, 48, 48);"/><text class="clickable sprotty-label state" id="sprotty_fsm$state_q/state$StWaitFlash/label" transform="translate(6, 8) translate(44, 19)" style="cursor:default;perspective-origin:0px 0px;fill:rgb(48, 48, 48);text-anchor:middle;">StWaitFlash</text></g><g id="sprotty_fsm$state_q/state$StScrambleData" transform="translate(74.74088541666666, 466)" class="state"><ellipse cx="66.125" cy="20" rx="66.125" ry="20" class="sprotty-node clickable" style="fill:rgb(255, 255, 255);stroke:rgb(48, 48, 48);"/><text class="clickable sprotty-label state" id="sprotty_fsm$state_q/state$StScrambleData/label" transform="translate(6, 8) translate(60.125, 19)" style="cursor:default;perspective-origin:0px 0px;fill:rgb(48, 48, 48);text-anchor:middle;">StScrambleData</text></g><g id="sprotty_fsm$state_q/state$StReqFlash" transform="translate(82.79752604166666, 96)" class="state"><ellipse cx="47.78125" cy="20" rx="47.78125" ry="20" class="sprotty-node clickable" style="fill:rgb(255, 255, 255);stroke:rgb(48, 48, 48);"/><text class="clickable sprotty-label state" id="sprotty_fsm$state_q/state$StReqFlash/label" transform="translate(6, 8) translate(41.78125, 19)" style="cursor:default;perspective-origin:0px 0px;fill:rgb(48, 48, 48);text-anchor:middle;">StReqFlash</text></g><g id="sprotty_fsm$state_q/state$StIdle_to_fsm$state_q/state$StPrePack" class="sprotty-edge transition" style="fill:none;stroke:rgb(48, 48, 48);stroke-linejoin:round;"><g><path d=" M144.77864583333331,256 C144.77864583333331,256 128.84817708333333,266 127.078125,276"/><path d=" M144.77864583333331,256 C144.77864583333331,256 128.84817708333333,266 127.078125,276" class="clickable"/></g><path d="M 127.078125,276 L 134.078125,273.5 L 134.078125,278.5 Z" transform="rotate(-79.96231655537478 127.078125 276)" class="arrow" style="fill:rgb(48, 48, 48);stroke-linejoin:miter;stroke-miterlimit:2;"/></g><g id="sprotty_fsm$state_q/state$StIdle_to_fsm$state_q/state$StPackData" class="sprotty-edge transition" style="fill:none;stroke:rgb(48, 48, 48);stroke-linejoin:round;"><g><path d=" M163.22135416666666,256 C180.921875,266 180.921875,271 180.921875,276.8333333333333 C180.921875,282.66666666666663 180.921875,289.3333333333333 180.921875,296 C180.921875,302.66666666666663 180.921875,309.3333333333333 180.921875,316.41666666666663 C180.921875,323.5 180.921875,331 170.77565104166666,346"/><path d=" M163.22135416666666,256 C180.921875,266 180.921875,271 180.921875,276.8333333333333 C180.921875,282.66666666666663 180.921875,289.3333333333333 180.921875,296 C180.921875,302.66666666666663 180.921875,309.3333333333333 180.921875,316.41666666666663 C180.921875,323.5 180.921875,331 170.77565104166666,346" class="clickable"/></g><path d="M 170.77565104166666,346 L 177.77565104166666,343.5 L 177.77565104166666,348.5 Z" transform="rotate(-55.92499256651144 170.77565104166666 346)" class="arrow" style="fill:rgb(48, 48, 48);stroke-linejoin:miter;stroke-miterlimit:2;"/></g><g id="sprotty_fsm$state_q/state$StPrePack_to_fsm$state_q/state$StPackData" class="sprotty-edge transition" style="fill:none;stroke:rgb(48, 48, 48);stroke-linejoin:round;"><g><path d=" M127.078125,316 C127.078125,316 129.50850260416667,331 151.38190104166665,346"/><path d=" M127.078125,316 C127.078125,316 129.50850260416667,331 151.38190104166665,346" class="clickable"/></g><path d="M 151.38190104166665,346 L 158.38190104166665,343.5 L 158.38190104166665,348.5 Z" transform="rotate(-145.55905407491503 151.38190104166665 346)" class="arrow" style="fill:rgb(48, 48, 48);stroke-linejoin:miter;stroke-miterlimit:2;"/></g><g id="sprotty_fsm$state_q/state$StPackData_to_fsm$state_q/state$StCalcMask" class="sprotty-edge transition" style="fill:none;stroke:rgb(48, 48, 48);stroke-linejoin:round;"><g><path d=" M161.07877604166666,386 C161.07877604166666,386 165.036796875,396 200.658984375,406"/><path d=" M161.07877604166666,386 C161.07877604166666,386 165.036796875,396 200.658984375,406" class="clickable"/></g><path d="M 200.658984375,406 L 207.658984375,403.5 L 207.658984375,408.5 Z" transform="rotate(-164.31929881679886 200.658984375 406)" class="arrow" style="fill:rgb(48, 48, 48);stroke-linejoin:miter;stroke-miterlimit:2;"/></g><g id="sprotty_fsm$state_q/state$StPackData_to_fsm$state_q/state$StReqFlash" class="sprotty-edge transition" style="fill:none;stroke:rgb(48, 48, 48);stroke-linejoin:round;"><g><path d=" M131.98815104166664,346 C63,331 63,323.5 63,315.5833333333333 C63,307.6666666666667 63,299.3333333333333 63,291 C63,282.6666666666667 63,274.33333333333337 63.000000000000014,260.16666666666663 C63.000000000000014,245.99999999999997 63.000000000000014,225.99999999999997 63.000000000000014,211.8333333333333 C63,197.66666666666666 63,189.33333333333334 63,181 C63,172.66666666666666 63,164.33333333333334 63,157.66666666666666 C63,151 63,146 106.68815104166666,136"/><path d=" M131.98815104166664,346 C63,331 63,323.5 63,315.5833333333333 C63,307.6666666666667 63,299.3333333333333 63,291 C63,282.6666666666667 63,274.33333333333337 63.000000000000014,260.16666666666663 C63.000000000000014,245.99999999999997 63.000000000000014,225.99999999999997 63.000000000000014,211.8333333333333 C63,197.66666666666666 63,189.33333333333334 63,181 C63,172.66666666666666 63,164.33333333333334 63,157.66666666666666 C63,151 63,146 106.68815104166666,136" class="clickable"/></g><path d="M 106.68815104166666,136 L 113.68815104166666,133.5 L 113.68815104166666,138.5 Z" transform="rotate(167.10738006205588 106.68815104166666 136)" class="arrow" style="fill:rgb(48, 48, 48);stroke-linejoin:miter;stroke-miterlimit:2;"/></g><g id="sprotty_fsm$state_q/state$StPackData_to_fsm$state_q/state$StPostPack" class="sprotty-edge transition" style="fill:none;stroke:rgb(48, 48, 48);stroke-linejoin:round;"><g><path d=" M190.16940104166667,346 C235,331 235,323.5 235,311.41666666666663 C235,299.3333333333333 235,282.66666666666663 235,269.3333333333333 C235,256 235,246 235,236 C235,226 235,216 235,201 C235,186 235,166 235,151.83333333333331 C235,137.66666666666666 235,129.33333333333331 235,121 C235,112.66666666666666 235,104.33333333333333 235,97.66666666666666 C235,91 235,86 226.55403645833331,76"/><path d=" M190.16940104166667,346 C235,331 235,323.5 235,311.41666666666663 C235,299.3333333333333 235,282.66666666666663 235,269.3333333333333 C235,256 235,246 235,236 C235,226 235,216 235,201 C235,186 235,166 235,151.83333333333331 C235,137.66666666666666 235,129.33333333333331 235,121 C235,112.66666666666666 235,104.33333333333333 235,97.66666666666666 C235,91 235,86 226.55403645833331,76" class="clickable"/></g><path d="M 226.55403645833331,76 L 233.55403645833331,73.5 L 233.55403645833331,78.5 Z" transform="rotate(49.81568569562084 226.55403645833331 76)" class="arrow" style="fill:rgb(48, 48, 48);stroke-linejoin:miter;stroke-miterlimit:2;"/></g><g id="sprotty_fsm$state_q/state$StPostPack_to_fsm$state_q/state$StCalcMask" class="sprotty-edge transition" style="fill:none;stroke:rgb(48, 48, 48);stroke-linejoin:round;"><g><path d=" M250.36263020833331,76 C286,86 286,91 286,97.66666666666669 C286,104.33333333333334 286,112.66666666666666 286,121 C286,129.33333333333331 286,137.66666666666669 286,151.83333333333334 C286,166 286,186.00000000000003 286,201.00000000000003 C286,216 286,226 286,236 C286,246 286,256 286,271.8333333333333 C286,287.66666666666663 286,309.3333333333333 286,324.74999999999994 C286,340.1666666666667 286,349.3333333333333 286,358.5 C286,367.6666666666667 286,376.83333333333337 286,383.91666666666663 C286,391 286,396 233.1954427083333,406"/><path d=" M250.36263020833331,76 C286,86 286,91 286,97.66666666666669 C286,104.33333333333334 286,112.66666666666666 286,121 C286,129.33333333333331 286,137.66666666666669 286,151.83333333333334 C286,166 286,186.00000000000003 286,201.00000000000003 C286,216 286,226 286,236 C286,246 286,256 286,271.8333333333333 C286,287.66666666666663 286,309.3333333333333 286,324.74999999999994 C286,340.1666666666667 286,349.3333333333333 286,358.5 C286,367.6666666666667 286,376.83333333333337 286,383.91666666666663 C286,391 286,396 233.1954427083333,406" class="clickable"/></g><path d="M 233.1954427083333,406 L 240.1954427083333,403.5 L 240.1954427083333,408.5 Z" transform="rotate(-10.723544429821867 233.1954427083333 406)" class="arrow" style="fill:rgb(48, 48, 48);stroke-linejoin:miter;stroke-miterlimit:2;"/></g><g id="sprotty_fsm$state_q/state$StPostPack_to_fsm$state_q/state$StReqFlash" class="sprotty-edge transition" style="fill:none;stroke:rgb(48, 48, 48);stroke-linejoin:round;"><g><path d=" M202.74544270833331,76 C202.74544270833331,76 152.12981770833332,86 146.505859375,96"/><path d=" M202.74544270833331,76 C202.74544270833331,76 152.12981770833332,86 146.505859375,96" class="clickable"/></g><path d="M 146.505859375,96 L 153.505859375,93.5 L 153.505859375,98.5 Z" transform="rotate(-60.646780449672825 146.505859375 96)" class="arrow" style="fill:rgb(48, 48, 48);stroke-linejoin:miter;stroke-miterlimit:2;"/></g><g id="sprotty_fsm$state_q/state$StCalcMask_to_fsm$state_q/state$StScrambleData" class="sprotty-edge transition" style="fill:none;stroke:rgb(48, 48, 48);stroke-linejoin:round;"><g><path d=" M216.92721354166665,446 C216.92721354166665,446 211.52524739583333,456 162.90755208333331,466"/><path d=" M216.92721354166665,446 C216.92721354166665,446 211.52524739583333,456 162.90755208333331,466" class="clickable"/></g><path d="M 162.90755208333331,466 L 169.90755208333331,463.5 L 169.90755208333331,468.5 Z" transform="rotate(-11.622864291988064 162.90755208333331 466)" class="arrow" style="fill:rgb(48, 48, 48);stroke-linejoin:miter;stroke-miterlimit:2;"/></g><g id="sprotty_fsm$state_q/state$StScrambleData_to_fsm$state_q/state$StCalcEcc" class="sprotty-edge transition" style="fill:none;stroke:rgb(48, 48, 48);stroke-linejoin:round;"><g><path d=" M118.82421875,466 C12,456 12,451.00000000000006 12,440.16666666666674 C12,429.33333333333337 12,412.6666666666667 12,398.9166666666667 C12,385.1666666666667 12,374.3333333333333 12,363.5 C12,352.66666666666663 12,341.8333333333333 12,325.5833333333333 C12,309.3333333333333 12,287.66666666666663 12,271.8333333333333 C12,256 12,246 12,236 C12,226 12,216 12,201.00000000000003 C12,186 12,166 11.999999999999972,151.83333333333331 C11.999999999999972,137.66666666666666 11.999999999999972,129.33333333333334 12,121 C12,112.66666666666667 11.999999999999972,104.33333333333334 11.999999999999972,97.66666666666667 C12,91 12,86 45.99479166666664,76"/><path d=" M118.82421875,466 C12,456 12,451.00000000000006 12,440.16666666666674 C12,429.33333333333337 12,412.6666666666667 12,398.9166666666667 C12,385.1666666666667 12,374.3333333333333 12,363.5 C12,352.66666666666663 12,341.8333333333333 12,325.5833333333333 C12,309.3333333333333 12,287.66666666666663 12,271.8333333333333 C12,256 12,246 12,236 C12,226 12,216 12,201.00000000000003 C12,186 12,166 11.999999999999972,151.83333333333331 C11.999999999999972,137.66666666666666 11.999999999999972,129.33333333333334 12,121 C12,112.66666666666667 11.999999999999972,104.33333333333334 11.999999999999972,97.66666666666667 C12,91 12,86 45.99479166666664,76" class="clickable"/></g><path d="M 45.99479166666664,76 L 52.99479166666664,73.5 L 52.99479166666664,78.5 Z" transform="rotate(163.60808341120693 45.99479166666664 76)" class="arrow" style="fill:rgb(48, 48, 48);stroke-linejoin:miter;stroke-miterlimit:2;"/></g><g id="sprotty_fsm$state_q/state$StCalcEcc_to_fsm$state_q/state$StReqFlash" class="sprotty-edge transition" style="fill:none;stroke:rgb(48, 48, 48);stroke-linejoin:round;"><g><path d=" M74.07812499999997,76 C74.07812499999997,76 94.36490885416666,86 114.65169270833333,96"/><path d=" M74.07812499999997,76 C74.07812499999997,76 94.36490885416666,86 114.65169270833333,96" class="clickable"/></g><path d="M 114.65169270833333,96 L 121.65169270833333,93.5 L 121.65169270833333,98.5 Z" transform="rotate(-153.75984835246499 114.65169270833333 96)" class="arrow" style="fill:rgb(48, 48, 48);stroke-linejoin:miter;stroke-miterlimit:2;"/></g><g id="sprotty_fsm$state_q/state$StReqFlash_to_fsm$state_q/state$StWaitFlash" class="sprotty-edge transition" style="fill:none;stroke:rgb(48, 48, 48);stroke-linejoin:round;"><g><path d=" M130.57877604166666,136 C130.57877604166666,136 124.65787760416666,146 124,156"/><path d=" M130.57877604166666,136 C130.57877604166666,136 124.65787760416666,146 124,156" class="clickable"/></g><path d="M 124,156 L 131,153.5 L 131,158.5 Z" transform="rotate(-86.23606287506131 124 156)" class="arrow" style="fill:rgb(48, 48, 48);stroke-linejoin:miter;stroke-miterlimit:2;"/></g><g id="sprotty_fsm$state_q/state$StReqFlash_to_fsm$state_q/state$StIdle" class="sprotty-edge transition" style="fill:none;stroke:rgb(48, 48, 48);stroke-linejoin:round;"><g><path d=" M154.46940104166666,136 C184,146 184,151 184,156.83333333333331 C184,162.66666666666666 184,169.33333333333331 184,176 C184,182.66666666666666 184,189.33333333333331 184,195.16666666666666 C184,201 184,206 163.22135416666666,216"/><path d=" M154.46940104166666,136 C184,146 184,151 184,156.83333333333331 C184,162.66666666666666 184,169.33333333333331 184,176 C184,182.66666666666666 184,189.33333333333331 184,195.16666666666666 C184,201 184,206 163.22135416666666,216" class="clickable"/></g><path d="M 163.22135416666666,216 L 170.22135416666666,213.5 L 170.22135416666666,218.5 Z" transform="rotate(-25.699805406347977 163.22135416666666 216)" class="arrow" style="fill:rgb(48, 48, 48);stroke-linejoin:miter;stroke-miterlimit:2;"/></g><g id="sprotty_fsm$state_q/state$StWaitFlash_to_fsm$state_q/state$StIdle" class="sprotty-edge transition" style="fill:none;stroke:rgb(48, 48, 48);stroke-linejoin:round;"><g><path d=" M124,196 C124,196 126.07786458333334,206 144.77864583333331,216"/><path d=" M124,196 C124,196 126.07786458333334,206 144.77864583333331,216" class="clickable"/></g><path d="M 144.77864583333331,216 L 151.77864583333331,213.5 L 151.77864583333331,218.5 Z" transform="rotate(-151.86493478155788 144.77864583333331 216)" class="arrow" style="fill:rgb(48, 48, 48);stroke-linejoin:miter;stroke-miterlimit:2;"/></g></g></g></svg>