<svg xmlns="http://www.w3.org/2000/svg" id="sprotty_root" class="sprotty-graph sprotty-state-machine statemachine" style="font-family:&quot;Noto Sans&quot;, Helvetica, Arial, sans-serif;perspective-origin:0px 0px;transform-origin:0px 0px;" version="1.1" viewBox="10 10 128.875 278" width="128.875" height="278"><g transform="scale(1) translate(0,0)"><g id="sprotty_fsm$state_q" transform="translate(15, 15)" class="statemachine"><g class="sprotty-block" style="fill:rgb(255, 255, 255);stroke:rgb(48, 48, 48);stroke-dasharray:0px;"><rect x="0" y="0" rx="1" ry="1" width="118.875" height="268"/><text x="59.4375" y="12" class="sprotty-block-name" style="cursor:pointer;font-weight:700;perspective-origin:59.4375px 0px;fill:rgb(48, 48, 48);stroke:rgba(0, 0, 0, 0);dominant-baseline:middle;text-anchor:middle;">state_q</text><line x1="0" y1="20" x2="118.875" y2="20"/></g><g id="sprotty_fsm$state_q/state$StReset" transform="translate(25.328125, 36)" class="state"><ellipse cx="34.109375" cy="20" rx="34.109375" ry="20" class="sprotty-node clickable" style="fill:rgb(255, 255, 255);stroke:rgb(48, 48, 48);"/><text class="clickable sprotty-label state" id="sprotty_fsm$state_q/state$StReset/label" transform="translate(6, 8) translate(28.109375, 19)" style="cursor:default;perspective-origin:0px 0px;fill:rgb(48, 48, 48);text-anchor:middle;">StReset</text></g><g id="sprotty_fsm$state_q/state$StSwActive" transform="translate(12, 216)" class="state"><ellipse cx="47.4375" cy="20" rx="47.4375" ry="20" class="sprotty-node clickable" style="fill:rgb(255, 255, 255);stroke:rgb(48, 48, 48);"/><text class="clickable sprotty-label state" id="sprotty_fsm$state_q/state$StSwActive/label" transform="translate(6, 8) translate(41.375, 19)" style="cursor:default;perspective-origin:0.0625px 0px;fill:rgb(48, 48, 48);text-anchor:middle;">StSwActive</text></g><g id="sprotty_fsm$state_q/state$StHw" transform="translate(33.53125, 96)" class="state"><ellipse cx="25.90625" cy="20" rx="25.90625" ry="20" class="sprotty-node clickable" style="fill:rgb(255, 255, 255);stroke:rgb(48, 48, 48);"/><text class="clickable sprotty-label state" id="sprotty_fsm$state_q/state$StHw/label" transform="translate(6, 8) translate(19.828125, 19)" style="cursor:default;perspective-origin:0.078125px 0px;fill:rgb(48, 48, 48);text-anchor:middle;">StHw</text></g><g id="sprotty_fsm$state_q/state$StSwIdle" transform="translate(20.578125, 156)" class="state"><ellipse cx="38.859375" cy="20" rx="38.859375" ry="20" class="sprotty-node clickable" style="fill:rgb(255, 255, 255);stroke:rgb(48, 48, 48);"/><text class="clickable sprotty-label state" id="sprotty_fsm$state_q/state$StSwIdle/label" transform="translate(6, 8) translate(32.796875, 19)" style="cursor:default;perspective-origin:0.0625px 0px;fill:rgb(48, 48, 48);text-anchor:middle;">StSwIdle</text></g><g id="sprotty_fsm$state_q/state$StReset_to_fsm$state_q/state$StHw" class="sprotty-edge transition" style="fill:none;stroke:rgb(48, 48, 48);stroke-linejoin:round;"><g><path d=" M59.4375,76 C59.4375,76 59.4375,86 59.4375,96"/><path d=" M59.4375,76 C59.4375,76 59.4375,86 59.4375,96" class="clickable"/></g><path d="M 59.4375,96 L 66.4375,93.5 L 66.4375,98.5 Z" transform="rotate(-90 59.4375 96)" class="arrow" style="fill:rgb(48, 48, 48);stroke-linejoin:miter;stroke-miterlimit:2;"/></g><g id="sprotty_fsm$state_q/state$StHw_to_fsm$state_q/state$StSwIdle" class="sprotty-edge transition" style="fill:none;stroke:rgb(48, 48, 48);stroke-linejoin:round;"><g><path d=" M50.80208333333333,136 C50.80208333333333,136 48.643229166666664,146 46.484375,156"/><path d=" M50.80208333333333,136 C50.80208333333333,136 48.643229166666664,146 46.484375,156" class="clickable"/></g><path d="M 46.484375,156 L 53.484375,153.5 L 53.484375,158.5 Z" transform="rotate(-77.81763943838564 46.484375 156)" class="arrow" style="fill:rgb(48, 48, 48);stroke-linejoin:miter;stroke-miterlimit:2;"/></g><g id="sprotty_fsm$state_q/state$StSwIdle_to_fsm$state_q/state$StHw" class="sprotty-edge transition" style="fill:none;stroke:rgb(48, 48, 48);stroke-linejoin:round;"><g><path d=" M72.390625,156 C70.23177083333333,146 68.07291666666666,136 68.07291666666666,136"/><path d=" M72.390625,156 C70.23177083333333,146 68.07291666666666,136 68.07291666666666,136" class="clickable"/></g><path d="M 68.07291666666666,136 L 75.07291666666666,133.5 L 75.07291666666666,138.5 Z" transform="rotate(77.8176394383856 68.07291666666666 136)" class="arrow" style="fill:rgb(48, 48, 48);stroke-linejoin:miter;stroke-miterlimit:2;"/></g><g id="sprotty_fsm$state_q/state$StSwIdle_to_fsm$state_q/state$StSwActive" class="sprotty-edge transition" style="fill:none;stroke:rgb(48, 48, 48);stroke-linejoin:round;"><g><path d=" M46.484375,196 C46.484375,196 45.0546875,206 43.625,216"/><path d=" M46.484375,196 C46.484375,196 45.0546875,206 43.625,216" class="clickable"/></g><path d="M 43.625,216 L 50.625,213.5 L 50.625,218.5 Z" transform="rotate(-81.86363101790081 43.625 216)" class="arrow" style="fill:rgb(48, 48, 48);stroke-linejoin:miter;stroke-miterlimit:2;"/></g><g id="sprotty_fsm$state_q/state$StSwActive_to_fsm$state_q/state$StSwIdle" class="sprotty-edge transition" style="fill:none;stroke:rgb(48, 48, 48);stroke-linejoin:round;"><g><path d=" M75.25,216 C73.8203125,206 72.390625,196 72.390625,196"/><path d=" M75.25,216 C73.8203125,206 72.390625,196 72.390625,196" class="clickable"/></g><path d="M 72.390625,196 L 79.390625,193.5 L 79.390625,198.5 Z" transform="rotate(81.86363101790081 72.390625 196)" class="arrow" style="fill:rgb(48, 48, 48);stroke-linejoin:miter;stroke-miterlimit:2;"/></g></g></g></svg>