<svg xmlns="http://www.w3.org/2000/svg" id="sprotty_root" class="sprotty-graph sprotty-state-machine statemachine" style="font-family:&quot;Noto Sans&quot;, Helvetica, Arial, sans-serif;perspective-origin:0px 0px;transform-origin:0px 0px;" version="1.1" viewBox="10 10 191.1953125 578" width="191.1953125" height="578"><g transform="scale(1) translate(0,0)"><g id="sprotty_fsm$state_q" transform="translate(15, 15)" class="statemachine"><g class="sprotty-block" style="fill:rgb(255, 255, 255);stroke:rgb(48, 48, 48);stroke-dasharray:0px;"><rect x="0" y="0" rx="1" ry="1" width="181.1953125" height="568"/><text x="90.59765625" y="12" class="sprotty-block-name" style="cursor:pointer;font-weight:700;perspective-origin:90.5938px 0px;fill:rgb(48, 48, 48);stroke:rgba(0, 0, 0, 0);dominant-baseline:middle;text-anchor:middle;">state_q</text><line x1="0" y1="20" x2="181.1953125" y2="20"/></g><g id="sprotty_fsm$state_q/state$StIdle" transform="translate(71.390625, 36)" class="state"><ellipse cx="27.6640625" cy="20" rx="27.6640625" ry="20" class="sprotty-node clickable" style="fill:rgb(255, 255, 255);stroke:rgb(48, 48, 48);"/><text class="clickable sprotty-label state" id="sprotty_fsm$state_q/state$StIdle/label" transform="translate(6, 8) translate(21.59375, 19)" style="cursor:default;perspective-origin:0.0625px 0px;fill:rgb(48, 48, 48);text-anchor:middle;">StIdle</text></g><g id="sprotty_fsm$state_q/state$StReqAddrKey" transform="translate(39.13281249999999, 96)" class="state"><ellipse cx="59.921875" cy="20" rx="59.921875" ry="20" class="sprotty-node clickable" style="fill:rgb(255, 255, 255);stroke:rgb(48, 48, 48);"/><text class="clickable sprotty-label state" id="sprotty_fsm$state_q/state$StReqAddrKey/label" transform="translate(6, 8) translate(53.59375, 19)" style="cursor:default;perspective-origin:0.328125px 0px;fill:rgb(48, 48, 48);text-anchor:middle;">StReqAddrKey</text></g><g id="sprotty_fsm$state_q/state$StRmaRsp" transform="translate(27.433593750000007, 456)" class="state"><ellipse cx="44.4140625" cy="20" rx="44.4140625" ry="20" class="sprotty-node clickable" style="fill:rgb(255, 255, 255);stroke:rgb(48, 48, 48);"/><text class="clickable sprotty-label state" id="sprotty_fsm$state_q/state$StRmaRsp/label" transform="translate(6, 8) translate(38.375, 19)" style="cursor:default;perspective-origin:0.03125px 0px;fill:rgb(48, 48, 48);text-anchor:middle;">StRmaRsp</text></g><g id="sprotty_fsm$state_q/state$StInvalid" transform="translate(60.28906250000001, 516)" class="state"><ellipse cx="38.765625" cy="20" rx="38.765625" ry="20" class="sprotty-node clickable" style="fill:rgb(255, 255, 255);stroke:rgb(48, 48, 48);"/><text class="clickable sprotty-label state" id="sprotty_fsm$state_q/state$StInvalid/label" transform="translate(6, 8) translate(32.765625, 19)" style="cursor:default;perspective-origin:0px 0px;fill:rgb(48, 48, 48);text-anchor:middle;">StInvalid</text></g><g id="sprotty_fsm$state_q/state$StEntropyReseed" transform="translate(28.9140625, 336)" class="state"><ellipse cx="70.140625" cy="20" rx="70.140625" ry="20" class="sprotty-node clickable" style="fill:rgb(255, 255, 255);stroke:rgb(48, 48, 48);"/><text class="clickable sprotty-label state" id="sprotty_fsm$state_q/state$StEntropyReseed/label" transform="translate(6, 8) translate(64.140625, 19)" style="cursor:default;perspective-origin:0px 0px;fill:rgb(48, 48, 48);text-anchor:middle;">StEntropyReseed</text></g><g id="sprotty_fsm$state_q/state$StReqDataKey" transform="translate(39.78906249999999, 156)" class="state"><ellipse cx="59.265625" cy="20" rx="59.265625" ry="20" class="sprotty-node clickable" style="fill:rgb(255, 255, 255);stroke:rgb(48, 48, 48);"/><text class="clickable sprotty-label state" id="sprotty_fsm$state_q/state$StReqDataKey/label" transform="translate(6, 8) translate(52.9375, 19)" style="cursor:default;perspective-origin:0.328125px 0px;fill:rgb(48, 48, 48);text-anchor:middle;">StReqDataKey</text></g><g id="sprotty_fsm$state_q/state$StReadSeeds" transform="translate(12, 216)" class="state"><ellipse cx="54.703125" cy="20" rx="54.703125" ry="20" class="sprotty-node clickable" style="fill:rgb(255, 255, 255);stroke:rgb(48, 48, 48);"/><text class="clickable sprotty-label state" id="sprotty_fsm$state_q/state$StReadSeeds/label" transform="translate(6, 8) translate(48.703125, 19)" style="cursor:default;perspective-origin:0px 0px;fill:rgb(48, 48, 48);text-anchor:middle;">StReadSeeds</text></g><g id="sprotty_fsm$state_q/state$StWait" transform="translate(68.8671875, 276)" class="state"><ellipse cx="30.1875" cy="20" rx="30.1875" ry="20" class="sprotty-node clickable" style="fill:rgb(255, 255, 255);stroke:rgb(48, 48, 48);"/><text class="clickable sprotty-label state" id="sprotty_fsm$state_q/state$StWait/label" transform="translate(6, 8) translate(24.1875, 19)" style="cursor:default;perspective-origin:0px 0px;fill:rgb(48, 48, 48);text-anchor:middle;">StWait</text></g><g id="sprotty_fsm$state_q/state$StRmaWipe" transform="translate(49.8203125, 396)" class="state"><ellipse cx="49.234375" cy="20" rx="49.234375" ry="20" class="sprotty-node clickable" style="fill:rgb(255, 255, 255);stroke:rgb(48, 48, 48);"/><text class="clickable sprotty-label state" id="sprotty_fsm$state_q/state$StRmaWipe/label" transform="translate(6, 8) translate(43.171875, 19)" style="cursor:default;perspective-origin:0.0625px 0px;fill:rgb(48, 48, 48);text-anchor:middle;">StRmaWipe</text></g><g id="sprotty_fsm$state_q/state$StIdle_to_fsm$state_q/state$StReqAddrKey" class="sprotty-edge transition" style="fill:none;stroke:rgb(48, 48, 48);stroke-linejoin:round;"><g><path d=" M99.0546875,76 C99.0546875,76 99.0546875,86 99.0546875,96"/><path d=" M99.0546875,76 C99.0546875,76 99.0546875,86 99.0546875,96" class="clickable"/></g><path d="M 99.0546875,96 L 106.0546875,93.5 L 106.0546875,98.5 Z" transform="rotate(-90 99.0546875 96)" class="arrow" style="fill:rgb(48, 48, 48);stroke-linejoin:miter;stroke-miterlimit:2;"/></g><g id="sprotty_fsm$state_q/state$StReqAddrKey_to_fsm$state_q/state$StReqDataKey" class="sprotty-edge transition" style="fill:none;stroke:rgb(48, 48, 48);stroke-linejoin:round;"><g><path d=" M99.0546875,136 C99.0546875,136 99.0546875,146 99.0546875,156"/><path d=" M99.0546875,136 C99.0546875,136 99.0546875,146 99.0546875,156" class="clickable"/></g><path d="M 99.0546875,156 L 106.0546875,153.5 L 106.0546875,158.5 Z" transform="rotate(-90 99.0546875 156)" class="arrow" style="fill:rgb(48, 48, 48);stroke-linejoin:miter;stroke-miterlimit:2;"/></g><g id="sprotty_fsm$state_q/state$StReqDataKey_to_fsm$state_q/state$StReadSeeds" class="sprotty-edge transition" style="fill:none;stroke:rgb(48, 48, 48);stroke-linejoin:round;"><g><path d=" M79.29947916666666,196 C79.29947916666666,196 67.96276041666667,206 66.703125,216"/><path d=" M79.29947916666666,196 C79.29947916666666,196 67.96276041666667,206 66.703125,216" class="clickable"/></g><path d="M 66.703125,216 L 73.703125,213.5 L 73.703125,218.5 Z" transform="rotate(-82.82063257847268 66.703125 216)" class="arrow" style="fill:rgb(48, 48, 48);stroke-linejoin:miter;stroke-miterlimit:2;"/></g><g id="sprotty_fsm$state_q/state$StReqDataKey_to_fsm$state_q/state$StWait" class="sprotty-edge transition" style="fill:none;stroke:rgb(48, 48, 48);stroke-linejoin:round;"><g><path d=" M118.80989583333334,196 C131.40625,206 131.40625,211 131.40625,216.83333333333331 C131.40625,222.66666666666666 131.40625,229.33333333333331 131.40625,236 C131.40625,242.66666666666666 131.40625,249.33333333333331 131.40625,255.16666666666666 C131.40625,261 131.40625,266 109.1171875,276"/><path d=" M118.80989583333334,196 C131.40625,206 131.40625,211 131.40625,216.83333333333331 C131.40625,222.66666666666666 131.40625,229.33333333333331 131.40625,236 C131.40625,242.66666666666666 131.40625,249.33333333333331 131.40625,255.16666666666666 C131.40625,261 131.40625,266 109.1171875,276" class="clickable"/></g><path d="M 109.1171875,276 L 116.1171875,273.5 L 116.1171875,278.5 Z" transform="rotate(-24.16341500053449 109.1171875 276)" class="arrow" style="fill:rgb(48, 48, 48);stroke-linejoin:miter;stroke-miterlimit:2;"/></g><g id="sprotty_fsm$state_q/state$StReadSeeds_to_fsm$state_q/state$StWait" class="sprotty-edge transition" style="fill:none;stroke:rgb(48, 48, 48);stroke-linejoin:round;"><g><path d=" M66.703125,256 C66.703125,256 68.93203125,266 88.9921875,276"/><path d=" M66.703125,256 C66.703125,256 68.93203125,266 88.9921875,276" class="clickable"/></g><path d="M 88.9921875,276 L 95.9921875,273.5 L 95.9921875,278.5 Z" transform="rotate(-153.50371730039842 88.9921875 276)" class="arrow" style="fill:rgb(48, 48, 48);stroke-linejoin:miter;stroke-miterlimit:2;"/></g><g id="sprotty_fsm$state_q/state$StWait_to_fsm$state_q/state$StEntropyReseed" class="sprotty-edge transition" style="fill:none;stroke:rgb(48, 48, 48);stroke-linejoin:round;"><g><path d=" M99.0546875,316 C99.0546875,316 99.0546875,326 99.0546875,336"/><path d=" M99.0546875,316 C99.0546875,316 99.0546875,326 99.0546875,336" class="clickable"/></g><path d="M 99.0546875,336 L 106.0546875,333.5 L 106.0546875,338.5 Z" transform="rotate(-90 99.0546875 336)" class="arrow" style="fill:rgb(48, 48, 48);stroke-linejoin:miter;stroke-miterlimit:2;"/></g><g id="sprotty_fsm$state_q/state$StEntropyReseed_to_fsm$state_q/state$StRmaWipe" class="sprotty-edge transition" style="fill:none;stroke:rgb(48, 48, 48);stroke-linejoin:round;"><g><path d=" M99.0546875,376 C99.0546875,376 99.0546875,386 99.0546875,396"/><path d=" M99.0546875,376 C99.0546875,376 99.0546875,386 99.0546875,396" class="clickable"/></g><path d="M 99.0546875,396 L 106.0546875,393.5 L 106.0546875,398.5 Z" transform="rotate(-90 99.0546875 396)" class="arrow" style="fill:rgb(48, 48, 48);stroke-linejoin:miter;stroke-miterlimit:2;"/></g><g id="sprotty_fsm$state_q/state$StRmaWipe_to_fsm$state_q/state$StInvalid" class="sprotty-edge transition" style="fill:none;stroke:rgb(48, 48, 48);stroke-linejoin:round;"><g><path d=" M115.46614583333334,436 C126.26171875,446 126.26171875,451 126.26171875,456.8333333333333 C126.26171875,462.66666666666663 126.26171875,469.3333333333333 126.26171875,476 C126.26171875,482.66666666666663 126.26171875,489.3333333333333 126.26171875,495.16666666666663 C126.26171875,501 126.26171875,506 111.9765625,516"/><path d=" M115.46614583333334,436 C126.26171875,446 126.26171875,451 126.26171875,456.8333333333333 C126.26171875,462.66666666666663 126.26171875,469.3333333333333 126.26171875,476 C126.26171875,482.66666666666663 126.26171875,489.3333333333333 126.26171875,495.16666666666663 C126.26171875,501 126.26171875,506 111.9765625,516" class="clickable"/></g><path d="M 111.9765625,516 L 118.9765625,513.5 L 118.9765625,518.5 Z" transform="rotate(-34.99307169019945 111.9765625 516)" class="arrow" style="fill:rgb(48, 48, 48);stroke-linejoin:miter;stroke-miterlimit:2;"/></g><g id="sprotty_fsm$state_q/state$StRmaWipe_to_fsm$state_q/state$StRmaRsp" class="sprotty-edge transition" style="fill:none;stroke:rgb(48, 48, 48);stroke-linejoin:round;"><g><path d=" M82.64322916666667,436 C82.64322916666667,436 72.92721354166667,446 71.84765625,456"/><path d=" M82.64322916666667,436 C82.64322916666667,436 72.92721354166667,446 71.84765625,456" class="clickable"/></g><path d="M 71.84765625,456 L 78.84765625,453.5 L 78.84765625,458.5 Z" transform="rotate(-83.83845485593034 71.84765625 456)" class="arrow" style="fill:rgb(48, 48, 48);stroke-linejoin:miter;stroke-miterlimit:2;"/></g><g id="sprotty_fsm$state_q/state$StRmaRsp_to_fsm$state_q/state$StInvalid" class="sprotty-edge transition" style="fill:none;stroke:rgb(48, 48, 48);stroke-linejoin:round;"><g><path d=" M71.84765625,496 C71.84765625,496 73.276171875,506 86.1328125,516"/><path d=" M71.84765625,496 C71.84765625,496 73.276171875,506 86.1328125,516" class="clickable"/></g><path d="M 86.1328125,516 L 93.1328125,513.5 L 93.1328125,518.5 Z" transform="rotate(-142.12393169686882 86.1328125 516)" class="arrow" style="fill:rgb(48, 48, 48);stroke-linejoin:miter;stroke-miterlimit:2;"/></g></g></g></svg>