<svg xmlns="http://www.w3.org/2000/svg" id="sprotty_root" class="sprotty-graph sprotty-state-machine statemachine" style="font-family:&quot;Noto Sans&quot;, Helvetica, Arial, sans-serif;perspective-origin:0px 0px;transform-origin:0px 0px;" version="1.1" viewBox="10 10 103.4375 158" width="103.4375" height="158"><g transform="scale(1) translate(0,0)"><g id="sprotty_fsm$st" transform="translate(15, 15)" class="statemachine"><g class="sprotty-block" style="fill:rgb(255, 255, 255);stroke:rgb(48, 48, 48);stroke-dasharray:0px;"><rect x="0" y="0" rx="1" ry="1" width="93.4375" height="148"/><text x="46.71875" y="12" class="sprotty-block-name" style="cursor:pointer;font-weight:700;perspective-origin:46.8594px 0px;fill:rgb(48, 48, 48);stroke:rgba(0, 0, 0, 0);dominant-baseline:middle;text-anchor:middle;">st</text><line x1="0" y1="20" x2="93.4375" y2="20"/></g><g id="sprotty_fsm$st/state$StErr" transform="translate(21.828125000000004, 96)" class="state"><ellipse cx="24.890625" cy="20" rx="24.890625" ry="20" class="sprotty-node clickable" style="fill:rgb(255, 255, 255);stroke:rgb(48, 48, 48);"/><text class="clickable sprotty-label state" id="sprotty_fsm$st/state$StErr/label" transform="translate(6, 8) translate(18.5, 19)" style="cursor:default;perspective-origin:0.390625px 0px;fill:rgb(48, 48, 48);text-anchor:middle;">StErr</text></g><g id="sprotty_fsm$st/state$StNorm" transform="translate(12, 36)" class="state"><ellipse cx="34.71875" cy="20" rx="34.71875" ry="20" class="sprotty-node clickable" style="fill:rgb(255, 255, 255);stroke:rgb(48, 48, 48);"/><text class="clickable sprotty-label state" id="sprotty_fsm$st/state$StNorm/label" transform="translate(6, 8) translate(28.71875, 19)" style="cursor:default;perspective-origin:0px 0px;fill:rgb(48, 48, 48);text-anchor:middle;">StNorm</text></g><g id="sprotty_fsm$st/state$StNorm_to_fsm$st/state$StErr" class="sprotty-edge transition" style="fill:none;stroke:rgb(48, 48, 48);stroke-linejoin:round;"><g><path d=" M58.29166666666667,76 C58.29166666666667,76 56.653645833333336,86 55.015625,96"/><path d=" M58.29166666666667,76 C58.29166666666667,76 56.653645833333336,86 55.015625,96" class="clickable"/></g><path d="M 55.015625,96 L 62.015625,93.5 L 62.015625,98.5 Z" transform="rotate(-80.69744422261539 55.015625 96)" class="arrow" style="fill:rgb(48, 48, 48);stroke-linejoin:miter;stroke-miterlimit:2;"/></g><g id="sprotty_fsm$st/state$StErr_to_fsm$st/state$StNorm" class="sprotty-edge transition" style="fill:none;stroke:rgb(48, 48, 48);stroke-linejoin:round;"><g><path d=" M38.421875,96 C36.78385416666667,86 35.145833333333336,76 35.145833333333336,76"/><path d=" M38.421875,96 C36.78385416666667,86 35.145833333333336,76 35.145833333333336,76" class="clickable"/></g><path d="M 35.145833333333336,76 L 42.145833333333336,73.5 L 42.145833333333336,78.5 Z" transform="rotate(80.69744422261539 35.145833333333336 76)" class="arrow" style="fill:rgb(48, 48, 48);stroke-linejoin:miter;stroke-miterlimit:2;"/></g></g></g></svg>