<svg xmlns="http://www.w3.org/2000/svg" id="sprotty_root" class="sprotty-graph sprotty-state-machine statemachine" style="font-family:&quot;Noto Sans&quot;, Helvetica, Arial, sans-serif;perspective-origin:0px 0px;transform-origin:0px 0px;" version="1.1" viewBox="10 10 138.4375 158" width="138.4375" height="158"><g transform="scale(1) translate(0,0)"><g id="sprotty_fsm$state_q" transform="translate(15, 15)" class="statemachine"><g class="sprotty-block" style="fill:rgb(255, 255, 255);stroke:rgb(48, 48, 48);stroke-dasharray:0px;"><rect x="0" y="0" rx="1" ry="1" width="128.4375" height="148"/><text x="64.21875" y="12" class="sprotty-block-name" style="cursor:pointer;font-weight:700;perspective-origin:64.2188px 0px;fill:rgb(48, 48, 48);stroke:rgba(0, 0, 0, 0);dominant-baseline:middle;text-anchor:middle;">state_q</text><line x1="0" y1="20" x2="128.4375" y2="20"/></g><g id="sprotty_fsm$state_q/state$StEraseBusy" transform="translate(12, 96)" class="state"><ellipse cx="52.21875" cy="20" rx="52.21875" ry="20" class="sprotty-node clickable" style="fill:rgb(255, 255, 255);stroke:rgb(48, 48, 48);"/><text class="clickable sprotty-label state" id="sprotty_fsm$state_q/state$StEraseBusy/label" transform="translate(6, 8) translate(45.890625, 19)" style="cursor:default;perspective-origin:0.328125px 0px;fill:rgb(48, 48, 48);text-anchor:middle;">StEraseBusy</text></g><g id="sprotty_fsm$state_q/state$StEraseIdle" transform="translate(16.2734375, 36)" class="state"><ellipse cx="47.9453125" cy="20" rx="47.9453125" ry="20" class="sprotty-node clickable" style="fill:rgb(255, 255, 255);stroke:rgb(48, 48, 48);"/><text class="clickable sprotty-label state" id="sprotty_fsm$state_q/state$StEraseIdle/label" transform="translate(6, 8) translate(41.875, 19)" style="cursor:default;perspective-origin:0.0625px 0px;fill:rgb(48, 48, 48);text-anchor:middle;">StEraseIdle</text></g><g id="sprotty_fsm$state_q/state$StEraseIdle_to_fsm$state_q/state$StEraseBusy" class="sprotty-edge transition" style="fill:none;stroke:rgb(48, 48, 48);stroke-linejoin:round;"><g><path d=" M80.20052083333333,76 C80.20052083333333,76 80.91276041666666,86 81.625,96"/><path d=" M80.20052083333333,76 C80.20052083333333,76 80.91276041666666,86 81.625,96" class="clickable"/></g><path d="M 81.625,96 L 88.625,93.5 L 88.625,98.5 Z" transform="rotate(-94.0739526537211 81.625 96)" class="arrow" style="fill:rgb(48, 48, 48);stroke-linejoin:miter;stroke-miterlimit:2;"/></g><g id="sprotty_fsm$state_q/state$StEraseBusy_to_fsm$state_q/state$StEraseIdle" class="sprotty-edge transition" style="fill:none;stroke:rgb(48, 48, 48);stroke-linejoin:round;"><g><path d=" M46.8125,96 C47.52473958333333,86 48.236979166666664,76 48.236979166666664,76"/><path d=" M46.8125,96 C47.52473958333333,86 48.236979166666664,76 48.236979166666664,76" class="clickable"/></g><path d="M 48.236979166666664,76 L 55.236979166666664,73.5 L 55.236979166666664,78.5 Z" transform="rotate(94.07395265372105 48.236979166666664 76)" class="arrow" style="fill:rgb(48, 48, 48);stroke-linejoin:miter;stroke-miterlimit:2;"/></g></g></g></svg>