<svg xmlns="http://www.w3.org/2000/svg" id="sprotty_root" class="sprotty-graph sprotty-state-machine statemachine" style="font-family:&quot;Noto Sans&quot;, Helvetica, Arial, sans-serif;perspective-origin:0px 0px;transform-origin:0px 0px;" version="1.1" viewBox="10 10 260.921875 338" width="260.921875" height="338"><g transform="scale(1) translate(0,0)"><g id="sprotty_fsm$st_q" transform="translate(15, 15)" class="statemachine"><g class="sprotty-block" style="fill:rgb(255, 255, 255);stroke:rgb(48, 48, 48);stroke-dasharray:0px;"><rect x="0" y="0" rx="1" ry="1" width="250.921875" height="328"/><text x="125.4609375" y="12" class="sprotty-block-name" style="cursor:pointer;font-weight:700;perspective-origin:125.453px 0px;fill:rgb(48, 48, 48);stroke:rgba(0, 0, 0, 0);dominant-baseline:middle;text-anchor:middle;">st_q</text><line x1="0" y1="20" x2="250.921875" y2="20"/></g><g id="sprotty_fsm$st_q/state$StIdle" transform="translate(177.9375, 156)" class="state"><ellipse cx="27.6640625" cy="20" rx="27.6640625" ry="20" class="sprotty-node clickable" style="fill:rgb(255, 255, 255);stroke:rgb(48, 48, 48);"/><text class="clickable sprotty-label state" id="sprotty_fsm$st_q/state$StIdle/label" transform="translate(6, 8) translate(21.59375, 19)" style="cursor:default;perspective-origin:0.0625px 0px;fill:rgb(48, 48, 48);text-anchor:middle;">StIdle</text></g><g id="sprotty_fsm$st_q/state$StDone" transform="translate(172.28125, 96)" class="state"><ellipse cx="33.3203125" cy="20" rx="33.3203125" ry="20" class="sprotty-node clickable" style="fill:rgb(255, 255, 255);stroke:rgb(48, 48, 48);"/><text class="clickable sprotty-label state" id="sprotty_fsm$st_q/state$StDone/label" transform="translate(6, 8) translate(27.25, 19)" style="cursor:default;perspective-origin:0.0625px 0px;fill:rgb(48, 48, 48);text-anchor:middle;">StDone</text></g><g id="sprotty_fsm$st_q/state$StMsg" transform="translate(132.953125, 276)" class="state"><ellipse cx="28.328125" cy="20" rx="28.328125" ry="20" class="sprotty-node clickable" style="fill:rgb(255, 255, 255);stroke:rgb(48, 48, 48);"/><text class="clickable sprotty-label state" id="sprotty_fsm$st_q/state$StMsg/label" transform="translate(6, 8) translate(22.328125, 19)" style="cursor:default;perspective-origin:0px 0px;fill:rgb(48, 48, 48);text-anchor:middle;">StMsg</text></g><g id="sprotty_fsm$st_q/state$StIPad" transform="translate(175.5234375, 216)" class="state"><ellipse cx="30.078125" cy="20" rx="30.078125" ry="20" class="sprotty-node clickable" style="fill:rgb(255, 255, 255);stroke:rgb(48, 48, 48);"/><text class="clickable sprotty-label state" id="sprotty_fsm$st_q/state$StIPad/label" transform="translate(6, 8) translate(24.078125, 19)" style="cursor:default;perspective-origin:0px 0px;fill:rgb(48, 48, 48);text-anchor:middle;">StIPad</text></g><g id="sprotty_fsm$st_q/state$StWaitResp" transform="translate(112.921875, 36)" class="state"><ellipse cx="48.359375" cy="20" rx="48.359375" ry="20" class="sprotty-node clickable" style="fill:rgb(255, 255, 255);stroke:rgb(48, 48, 48);"/><text class="clickable sprotty-label state" id="sprotty_fsm$st_q/state$StWaitResp/label" transform="translate(6, 8) translate(42.3125, 19)" style="cursor:default;perspective-origin:0.046875px 0px;fill:rgb(48, 48, 48);text-anchor:middle;">StWaitResp</text></g><g id="sprotty_fsm$st_q/state$StPushToMsgFifo" transform="translate(12, 96)" class="state"><ellipse cx="69.640625" cy="20" rx="69.640625" ry="20" class="sprotty-node clickable" style="fill:rgb(255, 255, 255);stroke:rgb(48, 48, 48);"/><text class="clickable sprotty-label state" id="sprotty_fsm$st_q/state$StPushToMsgFifo/label" transform="translate(6, 8) translate(63.640625, 19)" style="cursor:default;perspective-origin:0px 0px;fill:rgb(48, 48, 48);text-anchor:middle;">StPushToMsgFifo</text></g><g id="sprotty_fsm$st_q/state$StOPad" transform="translate(47.984375, 216)" class="state"><ellipse cx="33.65625" cy="20" rx="33.65625" ry="20" class="sprotty-node clickable" style="fill:rgb(255, 255, 255);stroke:rgb(48, 48, 48);"/><text class="clickable sprotty-label state" id="sprotty_fsm$st_q/state$StOPad/label" transform="translate(6, 8) translate(27.65625, 19)" style="cursor:default;perspective-origin:0px 0px;fill:rgb(48, 48, 48);text-anchor:middle;">StOPad</text></g><g id="sprotty_fsm$st_q/state$StIdle_to_fsm$st_q/state$StIPad" class="sprotty-edge transition" style="fill:none;stroke:rgb(48, 48, 48);stroke-linejoin:round;"><g><path d=" M205.6015625,196 C205.6015625,196 205.6015625,206 205.6015625,216"/><path d=" M205.6015625,196 C205.6015625,196 205.6015625,206 205.6015625,216" class="clickable"/></g><path d="M 205.6015625,216 L 212.6015625,213.5 L 212.6015625,218.5 Z" transform="rotate(-90 205.6015625 216)" class="arrow" style="fill:rgb(48, 48, 48);stroke-linejoin:miter;stroke-miterlimit:2;"/></g><g id="sprotty_fsm$st_q/state$StIPad_to_fsm$st_q/state$StMsg" class="sprotty-edge transition" style="fill:none;stroke:rgb(48, 48, 48);stroke-linejoin:round;"><g><path d=" M205.6015625,256 C205.6015625,256 202.5859375,266 175.4453125,276"/><path d=" M205.6015625,256 C205.6015625,256 202.5859375,266 175.4453125,276" class="clickable"/></g><path d="M 175.4453125,276 L 182.4453125,273.5 L 182.4453125,278.5 Z" transform="rotate(-20.22638801157785 175.4453125 276)" class="arrow" style="fill:rgb(48, 48, 48);stroke-linejoin:miter;stroke-miterlimit:2;"/></g><g id="sprotty_fsm$st_q/state$StMsg_to_fsm$st_q/state$StWaitResp" class="sprotty-edge transition" style="fill:none;stroke:rgb(48, 48, 48);stroke-linejoin:round;"><g><path d=" M161.28125,276 C161.28125,266 161.28125,251 161.28125,238.5 C161.28125,226 161.28125,216 161.28125,201 C161.28125,186 161.28125,166 161.28124999999997,151 C161.28124999999997,136 161.28125,126 161.28125,113.5 C161.28125,101 161.28125,86 161.28125,76"/><path d=" M161.28125,276 C161.28125,266 161.28125,251 161.28125,238.5 C161.28125,226 161.28125,216 161.28125,201 C161.28125,186 161.28125,166 161.28124999999997,151 C161.28124999999997,136 161.28125,126 161.28125,113.5 C161.28125,101 161.28125,86 161.28125,76" class="clickable"/></g><path d="M 161.28125,76 L 168.28125,73.5 L 168.28125,78.5 Z" transform="rotate(90 161.28125 76)" class="arrow" style="fill:rgb(48, 48, 48);stroke-linejoin:miter;stroke-miterlimit:2;"/></g><g id="sprotty_fsm$st_q/state$StWaitResp_to_fsm$st_q/state$StDone" class="sprotty-edge transition" style="fill:none;stroke:rgb(48, 48, 48);stroke-linejoin:round;"><g><path d=" M185.4609375,76 C185.4609375,76 203.5875,86 205.6015625,96"/><path d=" M185.4609375,76 C185.4609375,76 203.5875,86 205.6015625,96" class="clickable"/></g><path d="M 205.6015625,96 L 212.6015625,93.5 L 212.6015625,98.5 Z" transform="rotate(-101.38738474076274 205.6015625 96)" class="arrow" style="fill:rgb(48, 48, 48);stroke-linejoin:miter;stroke-miterlimit:2;"/></g><g id="sprotty_fsm$st_q/state$StWaitResp_to_fsm$st_q/state$StPushToMsgFifo" class="sprotty-edge transition" style="fill:none;stroke:rgb(48, 48, 48);stroke-linejoin:round;"><g><path d=" M137.1015625,76 C137.1015625,76 87.18671875,86 81.640625,96"/><path d=" M137.1015625,76 C137.1015625,76 87.18671875,86 81.640625,96" class="clickable"/></g><path d="M 81.640625,96 L 88.640625,93.5 L 88.640625,98.5 Z" transform="rotate(-60.98683880797212 81.640625 96)" class="arrow" style="fill:rgb(48, 48, 48);stroke-linejoin:miter;stroke-miterlimit:2;"/></g><g id="sprotty_fsm$st_q/state$StPushToMsgFifo_to_fsm$st_q/state$StOPad" class="sprotty-edge transition" style="fill:none;stroke:rgb(48, 48, 48);stroke-linejoin:round;"><g><path d=" M81.640625,136 C81.640625,146 81.640625,161 81.640625,176 C81.640625,191 81.640625,206 81.640625,216"/><path d=" M81.640625,136 C81.640625,146 81.640625,161 81.640625,176 C81.640625,191 81.640625,206 81.640625,216" class="clickable"/></g><path d="M 81.640625,216 L 88.640625,213.5 L 88.640625,218.5 Z" transform="rotate(-90 81.640625 216)" class="arrow" style="fill:rgb(48, 48, 48);stroke-linejoin:miter;stroke-miterlimit:2;"/></g><g id="sprotty_fsm$st_q/state$StOPad_to_fsm$st_q/state$StMsg" class="sprotty-edge transition" style="fill:none;stroke:rgb(48, 48, 48);stroke-linejoin:round;"><g><path d=" M81.640625,256 C81.640625,256 88.18828125,266 147.1171875,276"/><path d=" M81.640625,256 C81.640625,256 88.18828125,266 147.1171875,276" class="clickable"/></g><path d="M 147.1171875,276 L 154.1171875,273.5 L 154.1171875,278.5 Z" transform="rotate(-170.3688839047768 147.1171875 276)" class="arrow" style="fill:rgb(48, 48, 48);stroke-linejoin:miter;stroke-miterlimit:2;"/></g><g id="sprotty_fsm$st_q/state$StDone_to_fsm$st_q/state$StIdle" class="sprotty-edge transition" style="fill:none;stroke:rgb(48, 48, 48);stroke-linejoin:round;"><g><path d=" M205.6015625,136 C205.6015625,136 205.6015625,146 205.6015625,156"/><path d=" M205.6015625,136 C205.6015625,136 205.6015625,146 205.6015625,156" class="clickable"/></g><path d="M 205.6015625,156 L 212.6015625,153.5 L 212.6015625,158.5 Z" transform="rotate(-90 205.6015625 156)" class="arrow" style="fill:rgb(48, 48, 48);stroke-linejoin:miter;stroke-miterlimit:2;"/></g></g></g></svg>