<svg xmlns="http://www.w3.org/2000/svg" id="sprotty_root" class="sprotty-graph sprotty-state-machine statemachine" style="font-family:&quot;Noto Sans&quot;, Helvetica, Arial, sans-serif;perspective-origin:0px 0px;transform-origin:0px 0px;" version="1.1" viewBox="10 10 302.9375 478" width="302.9375" height="478"><g transform="scale(1) translate(0,0)"><g id="sprotty_fsm$md_state_q" transform="translate(15, 15)" class="statemachine"><g class="sprotty-block" style="fill:rgb(255, 255, 255);stroke:rgb(48, 48, 48);stroke-dasharray:0px;"><rect x="0" y="0" rx="1" ry="1" width="292.9375" height="468"/><text x="146.46875" y="12" class="sprotty-block-name" style="cursor:pointer;font-weight:700;perspective-origin:146.469px 0px;fill:rgb(48, 48, 48);stroke:rgba(0, 0, 0, 0);dominant-baseline:middle;text-anchor:middle;">md_state_q</text><line x1="0" y1="20" x2="292.9375" y2="20"/></g><g id="sprotty_fsm$md_state_q/state$MD_COMP" transform="translate(104.640625, 236)" class="state"><ellipse cx="44.8125" cy="20" rx="44.8125" ry="20" class="sprotty-node clickable" style="fill:rgb(255, 255, 255);stroke:rgb(48, 48, 48);"/><text class="clickable sprotty-label state" id="sprotty_fsm$md_state_q/state$MD_COMP/label" transform="translate(6, 8) translate(38.8125, 19)" style="cursor:default;perspective-origin:0px 0px;fill:rgb(48, 48, 48);text-anchor:middle;">MD_COMP</text></g><g id="sprotty_fsm$md_state_q/state$MD_LAST" transform="translate(108.1640625, 296)" class="state"><ellipse cx="41.2890625" cy="20" rx="41.2890625" ry="20" class="sprotty-node clickable" style="fill:rgb(255, 255, 255);stroke:rgb(48, 48, 48);"/><text class="clickable sprotty-label state" id="sprotty_fsm$md_state_q/state$MD_LAST/label" transform="translate(6, 8) translate(35.078125, 19)" style="cursor:default;perspective-origin:0.203125px 0px;fill:rgb(48, 48, 48);text-anchor:middle;">MD_LAST</text></g><g id="sprotty_fsm$md_state_q/state$MD_IDLE" transform="translate(110.59375, 36)" class="state"><ellipse cx="39.359375" cy="20" rx="39.359375" ry="20" class="sprotty-node clickable" style="fill:rgb(255, 255, 255);stroke:rgb(48, 48, 48);"/><text class="clickable sprotty-label state" id="sprotty_fsm$md_state_q/state$MD_IDLE/label" transform="translate(6, 8) translate(33.359375, 19)" style="cursor:default;perspective-origin:0px 0px;fill:rgb(48, 48, 48);text-anchor:middle;">MD_IDLE</text></g><g id="sprotty_fsm$md_state_q/state$MD_FINISH" transform="translate(101.5, 416)" class="state"><ellipse cx="47.953125" cy="20" rx="47.953125" ry="20" class="sprotty-node clickable" style="fill:rgb(255, 255, 255);stroke:rgb(48, 48, 48);"/><text class="clickable sprotty-label state" id="sprotty_fsm$md_state_q/state$MD_FINISH/label" transform="translate(6, 8) translate(41.953125, 19)" style="cursor:default;perspective-origin:0px 0px;fill:rgb(48, 48, 48);text-anchor:middle;">MD_FINISH</text></g><g id="sprotty_fsm$md_state_q/state$MD_ABS_B" transform="translate(74, 176)" class="state"><ellipse cx="46.96875" cy="20" rx="46.96875" ry="20" class="sprotty-node clickable" style="fill:rgb(255, 255, 255);stroke:rgb(48, 48, 48);"/><text class="clickable sprotty-label state" id="sprotty_fsm$md_state_q/state$MD_ABS_B/label" transform="translate(6, 8) translate(40.96875, 19)" style="cursor:default;perspective-origin:0px 0px;fill:rgb(48, 48, 48);text-anchor:middle;">MD_ABS_B</text></g><g id="sprotty_fsm$md_state_q/state$MD_CHANGE_SIGN" transform="translate(72.328125, 356)" class="state"><ellipse cx="77.125" cy="20" rx="77.125" ry="20" class="sprotty-node clickable" style="fill:rgb(255, 255, 255);stroke:rgb(48, 48, 48);"/><text class="clickable sprotty-label state" id="sprotty_fsm$md_state_q/state$MD_CHANGE_SIGN/label" transform="translate(6, 8) translate(71.125, 19)" style="cursor:default;perspective-origin:0px 0px;fill:rgb(48, 48, 48);text-anchor:middle;">MD_CHANGE_SIGN</text></g><g id="sprotty_fsm$md_state_q/state$MD_ABS_A" transform="translate(74.2578125, 116)" class="state"><ellipse cx="46.7109375" cy="20" rx="46.7109375" ry="20" class="sprotty-node clickable" style="fill:rgb(255, 255, 255);stroke:rgb(48, 48, 48);"/><text class="clickable sprotty-label state" id="sprotty_fsm$md_state_q/state$MD_ABS_A/label" transform="translate(6, 8) translate(40.5625, 19)" style="cursor:default;perspective-origin:0.140625px 0px;fill:rgb(48, 48, 48);text-anchor:middle;">MD_ABS_A</text></g><g id="sprotty_fsm$md_state_q/state$MD_IDLE_to_fsm$md_state_q/state$MD_LAST" class="sprotty-edge transition" style="fill:none;stroke:rgb(48, 48, 48);stroke-linejoin:round;"><g><path d=" M166.82142857142856,76 C228.9375,96 228.9375,106 228.9375,115.16666666666666 C228.9375,124.33333333333333 228.9375,132.66666666666666 228.9375,141 C228.9375,149.33333333333334 228.9375,157.66666666666666 228.9375,171.83333333333334 C228.9375,186 228.9375,206 228.9375,220.16666666666669 C228.9375,234.33333333333334 228.9375,242.66666666666669 228.9375,251 C228.9375,259.3333333333333 228.9375,267.66666666666663 228.9375,274.3333333333333 C228.9375,281 228.9375,286 170.09765625,296"/><path d=" M166.82142857142856,76 C228.9375,96 228.9375,106 228.9375,115.16666666666666 C228.9375,124.33333333333333 228.9375,132.66666666666666 228.9375,141 C228.9375,149.33333333333334 228.9375,157.66666666666666 228.9375,171.83333333333334 C228.9375,186 228.9375,206 228.9375,220.16666666666669 C228.9375,234.33333333333334 228.9375,242.66666666666669 228.9375,251 C228.9375,259.3333333333333 228.9375,267.66666666666663 228.9375,274.3333333333333 C228.9375,281 228.9375,286 170.09765625,296" class="clickable"/></g><path d="M 170.09765625,296 L 177.09765625,293.5 L 177.09765625,298.5 Z" transform="rotate(-9.64542049493016 170.09765625 296)" class="arrow" style="fill:rgb(48, 48, 48);stroke-linejoin:miter;stroke-miterlimit:2;"/></g><g id="sprotty_fsm$md_state_q/state$MD_IDLE_to_fsm$md_state_q/state$MD_COMP" class="sprotty-edge transition" style="fill:none;stroke:rgb(48, 48, 48);stroke-linejoin:round;"><g><path d=" M155.57589285714286,76 C177.9375,96 177.9375,106 177.9375,115.16666666666667 C177.9375,124.33333333333334 177.9375,132.66666666666666 177.9375,141 C177.9375,149.33333333333331 177.9375,157.66666666666669 177.9375,170.16666666666669 C177.9375,182.66666666666669 177.9375,199.33333333333337 177.9375,210.1666666666667 C177.9375,221 177.9375,226 164.390625,236"/><path d=" M155.57589285714286,76 C177.9375,96 177.9375,106 177.9375,115.16666666666667 C177.9375,124.33333333333334 177.9375,132.66666666666666 177.9375,141 C177.9375,149.33333333333331 177.9375,157.66666666666669 177.9375,170.16666666666669 C177.9375,182.66666666666669 177.9375,199.33333333333337 177.9375,210.1666666666667 C177.9375,221 177.9375,226 164.390625,236" class="clickable"/></g><path d="M 164.390625,236 L 171.390625,233.5 L 171.390625,238.5 Z" transform="rotate(-36.43391367778273 164.390625 236)" class="arrow" style="fill:rgb(48, 48, 48);stroke-linejoin:miter;stroke-miterlimit:2;"/></g><g id="sprotty_fsm$md_state_q/state$MD_IDLE_to_fsm$md_state_q/state$MD_FINISH" class="sprotty-edge transition" style="fill:none;stroke:rgb(48, 48, 48);stroke-linejoin:round;"><g><path d=" M178.06696428571428,76 C279.9375,96 279.9375,106 279.9375,115.16666666666667 C279.9375,124.33333333333334 279.9375,132.66666666666666 279.9375,141 C279.9375,149.33333333333331 279.9375,157.66666666666669 279.9375,171.83333333333337 C279.9375,186 279.9375,206 279.9375,221 C279.9375,236 279.9375,246 279.9375,256 C279.9375,266 279.9375,276 279.9375,291 C279.9375,306 279.9375,325.99999999999994 279.9375,340.16666666666663 C279.9375,354.33333333333337 279.9375,362.6666666666667 279.9375,371 C279.9375,379.33333333333337 279.9375,387.66666666666663 279.9375,394.33333333333337 C279.9375,401 279.9375,406 173.4296875,416"/><path d=" M178.06696428571428,76 C279.9375,96 279.9375,106 279.9375,115.16666666666667 C279.9375,124.33333333333334 279.9375,132.66666666666666 279.9375,141 C279.9375,149.33333333333331 279.9375,157.66666666666669 279.9375,171.83333333333337 C279.9375,186 279.9375,206 279.9375,221 C279.9375,236 279.9375,246 279.9375,256 C279.9375,266 279.9375,276 279.9375,291 C279.9375,306 279.9375,325.99999999999994 279.9375,340.16666666666663 C279.9375,354.33333333333337 279.9375,362.6666666666667 279.9375,371 C279.9375,379.33333333333337 279.9375,387.66666666666663 279.9375,394.33333333333337 C279.9375,401 279.9375,406 173.4296875,416" class="clickable"/></g><path d="M 173.4296875,416 L 180.4296875,413.5 L 180.4296875,418.5 Z" transform="rotate(-5.363766588626831 173.4296875 416)" class="arrow" style="fill:rgb(48, 48, 48);stroke-linejoin:miter;stroke-miterlimit:2;"/></g><g id="sprotty_fsm$md_state_q/state$MD_IDLE_to_fsm$md_state_q/state$MD_ABS_A" class="sprotty-edge transition" style="fill:none;stroke:rgb(48, 48, 48);stroke-linejoin:round;"><g><path d=" M144.33035714285714,76 C144.33035714285714,76 123.30491071428571,96 120.96875,116"/><path d=" M144.33035714285714,76 C144.33035714285714,76 123.30491071428571,96 120.96875,116" class="clickable"/></g><path d="M 120.96875,116 L 127.96875,113.5 L 127.96875,118.5 Z" transform="rotate(-83.33758400179701 120.96875 116)" class="arrow" style="fill:rgb(48, 48, 48);stroke-linejoin:miter;stroke-miterlimit:2;"/></g><g id="sprotty_fsm$md_state_q/state$MD_ABS_A_to_fsm$md_state_q/state$MD_ABS_B" class="sprotty-edge transition" style="fill:none;stroke:rgb(48, 48, 48);stroke-linejoin:round;"><g><path d=" M120.96875,156 C120.96875,156 120.96875,166 120.96875,176"/><path d=" M120.96875,156 C120.96875,156 120.96875,166 120.96875,176" class="clickable"/></g><path d="M 120.96875,176 L 127.96875,173.5 L 127.96875,178.5 Z" transform="rotate(-90 120.96875 176)" class="arrow" style="fill:rgb(48, 48, 48);stroke-linejoin:miter;stroke-miterlimit:2;"/></g><g id="sprotty_fsm$md_state_q/state$MD_ABS_B_to_fsm$md_state_q/state$MD_COMP" class="sprotty-edge transition" style="fill:none;stroke:rgb(48, 48, 48);stroke-linejoin:round;"><g><path d=" M120.96875,216 C120.96875,216 122.3234375,226 134.515625,236"/><path d=" M120.96875,216 C120.96875,216 122.3234375,226 134.515625,236" class="clickable"/></g><path d="M 134.515625,236 L 141.515625,233.5 L 141.515625,238.5 Z" transform="rotate(-140.64148655080672 134.515625 236)" class="arrow" style="fill:rgb(48, 48, 48);stroke-linejoin:miter;stroke-miterlimit:2;"/></g><g id="sprotty_fsm$md_state_q/state$MD_COMP_to_fsm$md_state_q/state$MD_LAST" class="sprotty-edge transition" style="fill:none;stroke:rgb(48, 48, 48);stroke-linejoin:round;"><g><path d=" M149.453125,276 C149.453125,276 149.453125,286 149.453125,296"/><path d=" M149.453125,276 C149.453125,276 149.453125,286 149.453125,296" class="clickable"/></g><path d="M 149.453125,296 L 156.453125,293.5 L 156.453125,298.5 Z" transform="rotate(-90 149.453125 296)" class="arrow" style="fill:rgb(48, 48, 48);stroke-linejoin:miter;stroke-miterlimit:2;"/></g><g id="sprotty_fsm$md_state_q/state$MD_LAST_to_fsm$md_state_q/state$MD_IDLE" class="sprotty-edge transition" style="fill:none;stroke:rgb(48, 48, 48);stroke-linejoin:round;"><g><path d=" M128.80859375,296 C63,286 63,281 63,274.3333333333333 C63,267.66666666666663 63,259.3333333333333 63,251 C63,242.66666666666669 63,234.33333333333334 63,220.16666666666669 C63,206 63,186 63,171.83333333333334 C63,157.66666666666666 63,149.33333333333334 63,141 C63,132.66666666666666 63,124.33333333333333 63,115.16666666666666 C63,106 63,96 133.08482142857144,76"/><path d=" M128.80859375,296 C63,286 63,281 63,274.3333333333333 C63,267.66666666666663 63,259.3333333333333 63,251 C63,242.66666666666669 63,234.33333333333334 63,220.16666666666669 C63,206 63,186 63,171.83333333333334 C63,157.66666666666666 63,149.33333333333334 63,141 C63,132.66666666666666 63,124.33333333333333 63,115.16666666666666 C63,106 63,96 133.08482142857144,76" class="clickable"/></g><path d="M 133.08482142857144,76 L 140.08482142857144,73.5 L 140.08482142857144,78.5 Z" transform="rotate(164.0729228587829 133.08482142857144 76)" class="arrow" style="fill:rgb(48, 48, 48);stroke-linejoin:miter;stroke-miterlimit:2;"/></g><g id="sprotty_fsm$md_state_q/state$MD_LAST_to_fsm$md_state_q/state$MD_CHANGE_SIGN" class="sprotty-edge transition" style="fill:none;stroke:rgb(48, 48, 48);stroke-linejoin:round;"><g><path d=" M149.453125,336 C149.453125,336 149.453125,346 149.453125,356"/><path d=" M149.453125,336 C149.453125,336 149.453125,346 149.453125,356" class="clickable"/></g><path d="M 149.453125,356 L 156.453125,353.5 L 156.453125,358.5 Z" transform="rotate(-90 149.453125 356)" class="arrow" style="fill:rgb(48, 48, 48);stroke-linejoin:miter;stroke-miterlimit:2;"/></g><g id="sprotty_fsm$md_state_q/state$MD_CHANGE_SIGN_to_fsm$md_state_q/state$MD_FINISH" class="sprotty-edge transition" style="fill:none;stroke:rgb(48, 48, 48);stroke-linejoin:round;"><g><path d=" M149.453125,396 C149.453125,396 149.453125,406 149.453125,416"/><path d=" M149.453125,396 C149.453125,396 149.453125,406 149.453125,416" class="clickable"/></g><path d="M 149.453125,416 L 156.453125,413.5 L 156.453125,418.5 Z" transform="rotate(-90 149.453125 416)" class="arrow" style="fill:rgb(48, 48, 48);stroke-linejoin:miter;stroke-miterlimit:2;"/></g><g id="sprotty_fsm$md_state_q/state$MD_FINISH_to_fsm$md_state_q/state$MD_IDLE" class="sprotty-edge transition" style="fill:none;stroke:rgb(48, 48, 48);stroke-linejoin:round;"><g><path d=" M125.4765625,416 C12,406 12,401 12,394.33333333333337 C12,387.66666666666663 12,379.33333333333337 12,371 C12,362.6666666666667 12,354.33333333333337 12,340.16666666666663 C12,325.99999999999994 12,306 12,291 C12,276 12,266 12,256 C12,246 12,236 11.999999999999972,221 C11.999999999999972,206 12,186 11.999999999999972,171.83333333333337 C11.999999999999972,157.66666666666669 12,149.33333333333331 12,141 C12,132.66666666666666 12,124.33333333333334 11.999999999999972,115.16666666666667 C11.999999999999972,106 12,96 121.83928571428571,76"/><path d=" M125.4765625,416 C12,406 12,401 12,394.33333333333337 C12,387.66666666666663 12,379.33333333333337 12,371 C12,362.6666666666667 12,354.33333333333337 12,340.16666666666663 C12,325.99999999999994 12,306 12,291 C12,276 12,266 12,256 C12,246 12,236 11.999999999999972,221 C11.999999999999972,206 12,186 11.999999999999972,171.83333333333337 C11.999999999999972,157.66666666666669 12,149.33333333333331 12,141 C12,132.66666666666666 12,124.33333333333334 11.999999999999972,115.16666666666667 C11.999999999999972,106 12,96 121.83928571428571,76" class="clickable"/></g><path d="M 121.83928571428571,76 L 128.83928571428572,73.5 L 128.83928571428572,78.5 Z" transform="rotate(169.68039946464782 121.83928571428571 76)" class="arrow" style="fill:rgb(48, 48, 48);stroke-linejoin:miter;stroke-miterlimit:2;"/></g></g></g></svg>