<svg xmlns="http://www.w3.org/2000/svg" id="sprotty_root" class="sprotty-graph sprotty-state-machine statemachine" style="font-family:&quot;Noto Sans&quot;, Helvetica, Arial, sans-serif;perspective-origin:0px 0px;transform-origin:0px 0px;" version="1.1" viewBox="10 10 146.90625 158" width="146.90625" height="158"><g transform="scale(1) translate(0,0)"><g id="sprotty_fsm$id_fsm_q" transform="translate(15, 15)" class="statemachine"><g class="sprotty-block" style="fill:rgb(255, 255, 255);stroke:rgb(48, 48, 48);stroke-dasharray:0px;"><rect x="0" y="0" rx="1" ry="1" width="136.90625" height="148"/><text x="68.453125" y="12" class="sprotty-block-name" style="cursor:pointer;font-weight:700;perspective-origin:68.4531px 0px;fill:rgb(48, 48, 48);stroke:rgba(0, 0, 0, 0);dominant-baseline:middle;text-anchor:middle;">id_fsm_q</text><line x1="0" y1="20" x2="136.90625" y2="20"/></g><g id="sprotty_fsm$id_fsm_q/state$MULTI_CYCLE" transform="translate(12, 96)" class="state"><ellipse cx="56.453125" cy="20" rx="56.453125" ry="20" class="sprotty-node clickable" style="fill:rgb(255, 255, 255);stroke:rgb(48, 48, 48);"/><text class="clickable sprotty-label state" id="sprotty_fsm$id_fsm_q/state$MULTI_CYCLE/label" transform="translate(6, 8) translate(50.453125, 19)" style="cursor:default;perspective-origin:0px 0px;fill:rgb(48, 48, 48);text-anchor:middle;">MULTI_CYCLE</text></g><g id="sprotty_fsm$id_fsm_q/state$FIRST_CYCLE" transform="translate(13.546875, 36)" class="state"><ellipse cx="54.90625" cy="20" rx="54.90625" ry="20" class="sprotty-node clickable" style="fill:rgb(255, 255, 255);stroke:rgb(48, 48, 48);"/><text class="clickable sprotty-label state" id="sprotty_fsm$id_fsm_q/state$FIRST_CYCLE/label" transform="translate(6, 8) translate(48.90625, 19)" style="cursor:default;perspective-origin:0px 0px;fill:rgb(48, 48, 48);text-anchor:middle;">FIRST_CYCLE</text></g><g id="sprotty_fsm$id_fsm_q/state$FIRST_CYCLE_to_fsm$id_fsm_q/state$MULTI_CYCLE" class="sprotty-edge transition" style="fill:none;stroke:rgb(48, 48, 48);stroke-linejoin:round;"><g><path d=" M86.75520833333334,76 C86.75520833333334,76 87.01302083333334,86 87.27083333333334,96"/><path d=" M86.75520833333334,76 C86.75520833333334,76 87.01302083333334,86 87.27083333333334,96" class="clickable"/></g><path d="M 87.27083333333334,96 L 94.27083333333334,93.5 L 94.27083333333334,98.5 Z" transform="rotate(-91.47682967068407 87.27083333333334 96)" class="arrow" style="fill:rgb(48, 48, 48);stroke-linejoin:miter;stroke-miterlimit:2;"/></g><g id="sprotty_fsm$id_fsm_q/state$MULTI_CYCLE_to_fsm$id_fsm_q/state$FIRST_CYCLE" class="sprotty-edge transition" style="fill:none;stroke:rgb(48, 48, 48);stroke-linejoin:round;"><g><path d=" M49.63541666666667,96 C49.89322916666667,86 50.15104166666667,76 50.15104166666667,76"/><path d=" M49.63541666666667,96 C49.89322916666667,86 50.15104166666667,76 50.15104166666667,76" class="clickable"/></g><path d="M 50.15104166666667,76 L 57.15104166666667,73.5 L 57.15104166666667,78.5 Z" transform="rotate(91.47682967068407 50.15104166666667 76)" class="arrow" style="fill:rgb(48, 48, 48);stroke-linejoin:miter;stroke-miterlimit:2;"/></g></g></g></svg>