<svg xmlns="http://www.w3.org/2000/svg" id="sprotty_root" class="sprotty-graph sprotty-state-machine statemachine" style="font-family:&quot;Noto Sans&quot;, Helvetica, Arial, sans-serif;perspective-origin:0px 0px;transform-origin:0px 0px;" version="1.1" viewBox="10 10 487.1015625 518" width="487.1015625" height="518"><g transform="scale(1) translate(0,0)"><g id="sprotty_fsm$ctrl_fsm_cs" transform="translate(15, 15)" class="statemachine"><g class="sprotty-block" style="fill:rgb(255, 255, 255);stroke:rgb(48, 48, 48);stroke-dasharray:0px;"><rect x="0" y="0" rx="1" ry="1" width="477.1015625" height="508"/><text x="238.55078125" y="12" class="sprotty-block-name" style="cursor:pointer;font-weight:700;perspective-origin:238.578px 0px;fill:rgb(48, 48, 48);stroke:rgba(0, 0, 0, 0);dominant-baseline:middle;text-anchor:middle;">ctrl_fsm_cs</text><line x1="0" y1="20" x2="477.1015625" y2="20"/></g><g id="sprotty_fsm$ctrl_fsm_cs/state$BOOT_SET" transform="translate(194.69531250000003, 176)" class="state"><ellipse cx="46.6640625" cy="20" rx="46.6640625" ry="20" class="sprotty-node clickable" style="fill:rgb(255, 255, 255);stroke:rgb(48, 48, 48);"/><text class="clickable sprotty-label state" id="sprotty_fsm$ctrl_fsm_cs/state$BOOT_SET/label" transform="translate(6, 8) translate(40.453125, 19)" style="cursor:default;perspective-origin:0.203125px 0px;fill:rgb(48, 48, 48);text-anchor:middle;">BOOT_SET</text></g><g id="sprotty_fsm$ctrl_fsm_cs/state$FIRST_FETCH" transform="translate(232.296875, 236)" class="state"><ellipse cx="56.21875" cy="20" rx="56.21875" ry="20" class="sprotty-node clickable" style="fill:rgb(255, 255, 255);stroke:rgb(48, 48, 48);"/><text class="clickable sprotty-label state" id="sprotty_fsm$ctrl_fsm_cs/state$FIRST_FETCH/label" transform="translate(6, 8) translate(50.21875, 19)" style="cursor:default;perspective-origin:0px 0px;fill:rgb(48, 48, 48);text-anchor:middle;">FIRST_FETCH</text></g><g id="sprotty_fsm$ctrl_fsm_cs/state$SLEEP" transform="translate(320.1328125, 176)" class="state"><ellipse cx="29.578125" cy="20" rx="29.578125" ry="20" class="sprotty-node clickable" style="fill:rgb(255, 255, 255);stroke:rgb(48, 48, 48);"/><text class="clickable sprotty-label state" id="sprotty_fsm$ctrl_fsm_cs/state$SLEEP/label" transform="translate(6, 8) translate(23.578125, 19)" style="cursor:default;perspective-origin:0px 0px;fill:rgb(48, 48, 48);text-anchor:middle;">SLEEP</text></g><g id="sprotty_fsm$ctrl_fsm_cs/state$WAIT_SLEEP" transform="translate(296.6328125, 116)" class="state"><ellipse cx="53.078125" cy="20" rx="53.078125" ry="20" class="sprotty-node clickable" style="fill:rgb(255, 255, 255);stroke:rgb(48, 48, 48);"/><text class="clickable sprotty-label state" id="sprotty_fsm$ctrl_fsm_cs/state$WAIT_SLEEP/label" transform="translate(6, 8) translate(47.078125, 19)" style="cursor:default;perspective-origin:0px 0px;fill:rgb(48, 48, 48);text-anchor:middle;">WAIT_SLEEP</text></g><g id="sprotty_fsm$ctrl_fsm_cs/state$DBG_TAKEN_IF" transform="translate(243.01067708333335, 306)" class="state"><ellipse cx="62.9921875" cy="20" rx="62.9921875" ry="20" class="sprotty-node clickable" style="fill:rgb(255, 255, 255);stroke:rgb(48, 48, 48);"/><text class="clickable sprotty-label state" id="sprotty_fsm$ctrl_fsm_cs/state$DBG_TAKEN_IF/label" transform="translate(6, 8) translate(56.90625, 19)" style="cursor:default;perspective-origin:0.078125px 0px;fill:rgb(48, 48, 48);text-anchor:middle;">DBG_TAKEN_IF</text></g><g id="sprotty_fsm$ctrl_fsm_cs/state$IRQ_TAKEN" transform="translate(194.41770833333337, 456)" class="state"><ellipse cx="48.78125" cy="20" rx="48.78125" ry="20" class="sprotty-node clickable" style="fill:rgb(255, 255, 255);stroke:rgb(48, 48, 48);"/><text class="clickable sprotty-label state" id="sprotty_fsm$ctrl_fsm_cs/state$IRQ_TAKEN/label" transform="translate(6, 8) translate(42.78125, 19)" style="cursor:default;perspective-origin:0px 0px;fill:rgb(48, 48, 48);text-anchor:middle;">IRQ_TAKEN</text></g><g id="sprotty_fsm$ctrl_fsm_cs/state$DBG_TAKEN_ID" transform="translate(74, 236)" class="state"><ellipse cx="63.9921875" cy="20" rx="63.9921875" ry="20" class="sprotty-node clickable" style="fill:rgb(255, 255, 255);stroke:rgb(48, 48, 48);"/><text class="clickable sprotty-label state" id="sprotty_fsm$ctrl_fsm_cs/state$DBG_TAKEN_ID/label" transform="translate(6, 8) translate(57.984375, 19)" style="cursor:default;perspective-origin:0px 0px;fill:rgb(48, 48, 48);text-anchor:middle;">DBG_TAKEN_ID</text></g><g id="sprotty_fsm$ctrl_fsm_cs/state$FLUSH" transform="translate(166.85833333333335, 36)" class="state"><ellipse cx="35" cy="20" rx="35" ry="20" class="sprotty-node clickable" style="fill:rgb(255, 255, 255);stroke:rgb(48, 48, 48);"/><text class="clickable sprotty-label state" id="sprotty_fsm$ctrl_fsm_cs/state$FLUSH/label" transform="translate(10.21875, 8) translate(24.78125, 19)" style="cursor:default;perspective-origin:0px 0px;fill:rgb(48, 48, 48);text-anchor:middle;">FLUSH</text></g><g id="sprotty_fsm$ctrl_fsm_cs/state$RESET" transform="translate(211.08593750000003, 116)" class="state"><ellipse cx="30.2734375" cy="20" rx="30.2734375" ry="20" class="sprotty-node clickable" style="fill:rgb(255, 255, 255);stroke:rgb(48, 48, 48);"/><text class="clickable sprotty-label state" id="sprotty_fsm$ctrl_fsm_cs/state$RESET/label" transform="translate(6, 8) translate(24.0625, 19)" style="cursor:default;perspective-origin:0.203125px 0px;fill:rgb(48, 48, 48);text-anchor:middle;">RESET</text></g><g id="sprotty_fsm$ctrl_fsm_cs/state$DECODE" transform="translate(126.3046875, 386)" class="state"><ellipse cx="37.1875" cy="20" rx="37.1875" ry="20" class="sprotty-node clickable" style="fill:rgb(255, 255, 255);stroke:rgb(48, 48, 48);"/><text class="clickable sprotty-label state" id="sprotty_fsm$ctrl_fsm_cs/state$DECODE/label" transform="translate(6, 8) translate(31.1875, 19)" style="cursor:default;perspective-origin:0px 0px;fill:rgb(48, 48, 48);text-anchor:middle;">DECODE</text></g><g id="sprotty_fsm$ctrl_fsm_cs/state$RESET_to_fsm$ctrl_fsm_cs/state$BOOT_SET" class="sprotty-edge transition" style="fill:none;stroke:rgb(48, 48, 48);stroke-linejoin:round;"><g><path d=" M241.35937500000003,156 C241.35937500000003,156 241.35937500000003,166 241.35937500000003,176"/><path d=" M241.35937500000003,156 C241.35937500000003,156 241.35937500000003,166 241.35937500000003,176" class="clickable"/></g><path d="M 241.35937500000003,176 L 248.35937500000003,173.5 L 248.35937500000003,178.5 Z" transform="rotate(-90 241.35937500000003 176)" class="arrow" style="fill:rgb(48, 48, 48);stroke-linejoin:miter;stroke-miterlimit:2;"/></g><g id="sprotty_fsm$ctrl_fsm_cs/state$BOOT_SET_to_fsm$ctrl_fsm_cs/state$FIRST_FETCH" class="sprotty-edge transition" style="fill:none;stroke:rgb(48, 48, 48);stroke-linejoin:round;"><g><path d=" M241.35937500000003,216 C241.35937500000003,216 244.2010416666667,226 269.7760416666667,236"/><path d=" M241.35937500000003,216 C241.35937500000003,216 244.2010416666667,226 269.7760416666667,236" class="clickable"/></g><path d="M 269.7760416666667,236 L 276.7760416666667,233.5 L 276.7760416666667,238.5 Z" transform="rotate(-158.64416155784141 269.7760416666667 236)" class="arrow" style="fill:rgb(48, 48, 48);stroke-linejoin:miter;stroke-miterlimit:2;"/></g><g id="sprotty_fsm$ctrl_fsm_cs/state$WAIT_SLEEP_to_fsm$ctrl_fsm_cs/state$SLEEP" class="sprotty-edge transition" style="fill:none;stroke:rgb(48, 48, 48);stroke-linejoin:round;"><g><path d=" M349.7109375,156 C349.7109375,156 349.7109375,166 349.7109375,176"/><path d=" M349.7109375,156 C349.7109375,156 349.7109375,166 349.7109375,176" class="clickable"/></g><path d="M 349.7109375,176 L 356.7109375,173.5 L 356.7109375,178.5 Z" transform="rotate(-90 349.7109375 176)" class="arrow" style="fill:rgb(48, 48, 48);stroke-linejoin:miter;stroke-miterlimit:2;"/></g><g id="sprotty_fsm$ctrl_fsm_cs/state$SLEEP_to_fsm$ctrl_fsm_cs/state$FIRST_FETCH" class="sprotty-edge transition" style="fill:none;stroke:rgb(48, 48, 48);stroke-linejoin:round;"><g><path d=" M349.7109375,216 C349.7109375,216 345.4653645833334,226 307.25520833333337,236"/><path d=" M349.7109375,216 C349.7109375,216 345.4653645833334,226 307.25520833333337,236" class="clickable"/></g><path d="M 307.25520833333337,236 L 314.25520833333337,233.5 L 314.25520833333337,238.5 Z" transform="rotate(-14.665977991706447 307.25520833333337 236)" class="arrow" style="fill:rgb(48, 48, 48);stroke-linejoin:miter;stroke-miterlimit:2;"/></g><g id="sprotty_fsm$ctrl_fsm_cs/state$FIRST_FETCH_to_fsm$ctrl_fsm_cs/state$DECODE" class="sprotty-edge transition" style="fill:none;stroke:rgb(48, 48, 48);stroke-linejoin:round;"><g><path d=" M260.40625,276 C211.4026041666667,291 211.4026041666667,298.5 211.4026041666667,305.5833333333333 C211.4026041666667,312.66666666666663 211.4026041666667,319.3333333333333 211.4026041666667,326 C211.4026041666667,332.66666666666663 211.4026041666667,339.3333333333333 211.4026041666667,347.66666666666663 C211.4026041666667,356 211.4026041666667,366 168.8046875,386"/><path d=" M260.40625,276 C211.4026041666667,291 211.4026041666667,298.5 211.4026041666667,305.5833333333333 C211.4026041666667,312.66666666666663 211.4026041666667,319.3333333333333 211.4026041666667,326 C211.4026041666667,332.66666666666663 211.4026041666667,339.3333333333333 211.4026041666667,347.66666666666663 C211.4026041666667,356 211.4026041666667,366 168.8046875,386" class="clickable"/></g><path d="M 168.8046875,386 L 175.8046875,383.5 L 175.8046875,388.5 Z" transform="rotate(-25.150361962576806 168.8046875 386)" class="arrow" style="fill:rgb(48, 48, 48);stroke-linejoin:miter;stroke-miterlimit:2;"/></g><g id="sprotty_fsm$ctrl_fsm_cs/state$FIRST_FETCH_to_fsm$ctrl_fsm_cs/state$IRQ_TAKEN" class="sprotty-edge transition" style="fill:none;stroke:rgb(48, 48, 48);stroke-linejoin:round;"><g><path d=" M316.625,276 C378.99505208333335,291 378.99505208333335,298.5 378.99505208333335,307.25 C378.99505208333335,316 378.99505208333335,325.99999999999994 378.99505208333335,335.99999999999994 C378.99505208333335,346 378.99505208333335,356 378.99505208333335,371 C378.99505208333335,386 378.99505208333335,406 378.99505208333335,419.75 C378.99505208333335,433.5 378.99505208333335,441 252.95520833333336,456"/><path d=" M316.625,276 C378.99505208333335,291 378.99505208333335,298.5 378.99505208333335,307.25 C378.99505208333335,316 378.99505208333335,325.99999999999994 378.99505208333335,335.99999999999994 C378.99505208333335,346 378.99505208333335,356 378.99505208333335,371 C378.99505208333335,386 378.99505208333335,406 378.99505208333335,419.75 C378.99505208333335,433.5 378.99505208333335,441 252.95520833333336,456" class="clickable"/></g><path d="M 252.95520833333336,456 L 259.95520833333336,453.5 L 259.95520833333336,458.5 Z" transform="rotate(-6.786848463826456 252.95520833333336 456)" class="arrow" style="fill:rgb(48, 48, 48);stroke-linejoin:miter;stroke-miterlimit:2;"/></g><g id="sprotty_fsm$ctrl_fsm_cs/state$FIRST_FETCH_to_fsm$ctrl_fsm_cs/state$DBG_TAKEN_IF" class="sprotty-edge transition" style="fill:none;stroke:rgb(48, 48, 48);stroke-linejoin:round;"><g><path d=" M288.515625,276 C288.515625,276 285.35648437500004,291 285.00546875000003,306"/><path d=" M288.515625,276 C288.515625,276 285.35648437500004,291 285.00546875000003,306" class="clickable"/></g><path d="M 285.00546875000003,306 L 292.00546875000003,303.5 L 292.00546875000003,308.5 Z" transform="rotate(-88.65946373703059 285.00546875000003 306)" class="arrow" style="fill:rgb(48, 48, 48);stroke-linejoin:miter;stroke-miterlimit:2;"/></g><g id="sprotty_fsm$ctrl_fsm_cs/state$DECODE_to_fsm$ctrl_fsm_cs/state$FLUSH" class="sprotty-edge transition" style="fill:none;stroke:rgb(48, 48, 48);stroke-linejoin:round;"><g><path d=" M136.9296875,386 C12,366 12,356 12,341.8333333333333 C12,327.66666666666663 12.000000000000057,309.3333333333333 12,294.75 C12,280.16666666666663 12.000000000000057,269.3333333333333 12,258.5 C12,247.66666666666666 12.000000000000057,236.83333333333331 12,221.41666666666666 C12,206 12.000000000000057,186 12,171.83333333333331 C12,157.66666666666666 12.000000000000057,149.33333333333331 12,141 C12,132.66666666666666 12.000000000000057,124.33333333333333 12,115.16666666666666 C12,106 12,96 176.85833333333335,76"/><path d=" M136.9296875,386 C12,366 12,356 12,341.8333333333333 C12,327.66666666666663 12.000000000000057,309.3333333333333 12,294.75 C12,280.16666666666663 12.000000000000057,269.3333333333333 12,258.5 C12,247.66666666666666 12.000000000000057,236.83333333333331 12,221.41666666666666 C12,206 12.000000000000057,186 12,171.83333333333331 C12,157.66666666666666 12.000000000000057,149.33333333333331 12,141 C12,132.66666666666666 12.000000000000057,124.33333333333333 12,115.16666666666666 C12,106 12,96 176.85833333333335,76" class="clickable"/></g><path d="M 176.85833333333335,76 L 183.85833333333335,73.5 L 183.85833333333335,78.5 Z" transform="rotate(173.08289141416375 176.85833333333335 76)" class="arrow" style="fill:rgb(48, 48, 48);stroke-linejoin:miter;stroke-miterlimit:2;"/></g><g id="sprotty_fsm$ctrl_fsm_cs/state$DECODE_to_fsm$ctrl_fsm_cs/state$DBG_TAKEN_IF" class="sprotty-edge transition" style="fill:none;stroke:rgb(48, 48, 48);stroke-linejoin:round;"><g><path d=" M179.4296875,386 C274.447890625,366 285.00546875000003,346 285.00546875000003,346"/><path d=" M179.4296875,386 C274.447890625,366 285.00546875000003,346 285.00546875000003,346" class="clickable"/></g><path d="M 285.00546875000003,346 L 292.00546875000003,343.5 L 292.00546875000003,348.5 Z" transform="rotate(117.82862807684299 285.00546875000003 346)" class="arrow" style="fill:rgb(48, 48, 48);stroke-linejoin:miter;stroke-miterlimit:2;"/></g><g id="sprotty_fsm$ctrl_fsm_cs/state$DECODE_to_fsm$ctrl_fsm_cs/state$IRQ_TAKEN" class="sprotty-edge transition" style="fill:none;stroke:rgb(48, 48, 48);stroke-linejoin:round;"><g><path d=" M151.09635416666666,426 C151.09635416666666,426 157.37973958333333,441 213.93020833333335,456"/><path d=" M151.09635416666666,426 C151.09635416666666,426 157.37973958333333,441 213.93020833333335,456" class="clickable"/></g><path d="M 213.93020833333335,456 L 220.93020833333335,453.5 L 220.93020833333335,458.5 Z" transform="rotate(-165.14440092449087 213.93020833333335 456)" class="arrow" style="fill:rgb(48, 48, 48);stroke-linejoin:miter;stroke-miterlimit:2;"/></g><g id="sprotty_fsm$ctrl_fsm_cs/state$IRQ_TAKEN_to_fsm$ctrl_fsm_cs/state$DECODE" class="sprotty-edge transition" style="fill:none;stroke:rgb(48, 48, 48);stroke-linejoin:round;"><g><path d=" M233.44270833333337,456 C181.64348958333332,441 175.88802083333331,426 175.88802083333331,426"/><path d=" M233.44270833333337,456 C181.64348958333332,441 175.88802083333331,426 175.88802083333331,426" class="clickable"/></g><path d="M 175.88802083333331,426 L 182.88802083333331,423.5 L 182.88802083333331,428.5 Z" transform="rotate(69.00829598389274 175.88802083333331 426)" class="arrow" style="fill:rgb(48, 48, 48);stroke-linejoin:miter;stroke-miterlimit:2;"/></g><g id="sprotty_fsm$ctrl_fsm_cs/state$DBG_TAKEN_IF_to_fsm$ctrl_fsm_cs/state$DECODE" class="sprotty-edge transition" style="fill:none;stroke:rgb(48, 48, 48);stroke-linejoin:round;"><g><path d=" M327.0002604166667,346 C327.0002604166667,346 313.30570312500004,366 190.0546875,386"/><path d=" M327.0002604166667,346 C327.0002604166667,346 313.30570312500004,366 190.0546875,386" class="clickable"/></g><path d="M 190.0546875,386 L 197.0546875,383.5 L 197.0546875,388.5 Z" transform="rotate(-9.217072909340544 190.0546875 386)" class="arrow" style="fill:rgb(48, 48, 48);stroke-linejoin:miter;stroke-miterlimit:2;"/></g><g id="sprotty_fsm$ctrl_fsm_cs/state$DBG_TAKEN_ID_to_fsm$ctrl_fsm_cs/state$DECODE" class="sprotty-edge transition" style="fill:none;stroke:rgb(48, 48, 48);stroke-linejoin:round;"><g><path d=" M137.9921875,276 C137.9921875,291 137.9921875,304.75 137.9921875,316.2083333333333 C137.9921875,327.6666666666667 137.9921875,336.8333333333333 137.9921875,346.4166666666666 C137.9921875,355.99999999999994 137.9921875,366 158.1796875,386"/><path d=" M137.9921875,276 C137.9921875,291 137.9921875,304.75 137.9921875,316.2083333333333 C137.9921875,327.6666666666667 137.9921875,336.8333333333333 137.9921875,346.4166666666666 C137.9921875,355.99999999999994 137.9921875,366 158.1796875,386" class="clickable"/></g><path d="M 158.1796875,386 L 165.1796875,383.5 L 165.1796875,388.5 Z" transform="rotate(-135.2673189600858 158.1796875 386)" class="arrow" style="fill:rgb(48, 48, 48);stroke-linejoin:miter;stroke-miterlimit:2;"/></g><g id="sprotty_fsm$ctrl_fsm_cs/state$FLUSH_to_fsm$ctrl_fsm_cs/state$DECODE" class="sprotty-edge transition" style="fill:none;stroke:rgb(48, 48, 48);stroke-linejoin:round;"><g><path d=" M186.85833333333335,76 C63,96 63,106 63,115.16666666666666 C63,124.33333333333333 63,132.66666666666666 63,141 C63,149.33333333333331 63,157.66666666666666 63,171.83333333333331 C63,186 63,206 63,221.41666666666666 C63,236.83333333333331 63,247.66666666666666 63,258.5 C63,269.3333333333333 63,280.16666666666663 63,294.75 C63,309.3333333333333 63,327.66666666666663 63,341.8333333333333 C63,356 63,366 147.5546875,386"/><path d=" M186.85833333333335,76 C63,96 63,106 63,115.16666666666666 C63,124.33333333333333 63,132.66666666666666 63,141 C63,149.33333333333331 63,157.66666666666666 63,171.83333333333331 C63,186 63,206 63,221.41666666666666 C63,236.83333333333331 63,247.66666666666666 63,258.5 C63,269.3333333333333 63,280.16666666666663 63,294.75 C63,309.3333333333333 63,327.66666666666663 63,341.8333333333333 C63,356 63,366 147.5546875,386" class="clickable"/></g><path d="M 147.5546875,386 L 154.5546875,383.5 L 154.5546875,388.5 Z" transform="rotate(-166.69222289245553 147.5546875 386)" class="arrow" style="fill:rgb(48, 48, 48);stroke-linejoin:miter;stroke-miterlimit:2;"/></g><g id="sprotty_fsm$ctrl_fsm_cs/state$FLUSH_to_fsm$ctrl_fsm_cs/state$DBG_TAKEN_ID" class="sprotty-edge transition" style="fill:none;stroke:rgb(48, 48, 48);stroke-linejoin:round;"><g><path d=" M196.85833333333335,76 C137.9921875,96 137.9921875,106 137.9921875,115.16666666666666 C137.9921875,124.33333333333333 137.9921875,132.66666666666666 137.9921875,141 C137.9921875,149.33333333333331 137.9921875,157.66666666666666 137.9921875,176.83333333333331 C137.9921875,196 137.9921875,226 137.9921875,236"/><path d=" M196.85833333333335,76 C137.9921875,96 137.9921875,106 137.9921875,115.16666666666666 C137.9921875,124.33333333333333 137.9921875,132.66666666666666 137.9921875,141 C137.9921875,149.33333333333331 137.9921875,157.66666666666666 137.9921875,176.83333333333331 C137.9921875,196 137.9921875,226 137.9921875,236" class="clickable"/></g><path d="M 137.9921875,236 L 144.9921875,233.5 L 144.9921875,238.5 Z" transform="rotate(-90 137.9921875 236)" class="arrow" style="fill:rgb(48, 48, 48);stroke-linejoin:miter;stroke-miterlimit:2;"/></g><g id="sprotty_fsm$ctrl_fsm_cs/state$FLUSH_to_fsm$ctrl_fsm_cs/state$WAIT_SLEEP" class="sprotty-edge transition" style="fill:none;stroke:rgb(48, 48, 48);stroke-linejoin:round;"><g><path d=" M206.85833333333335,76 C206.85833333333335,76 335.42567708333337,96 349.7109375,116"/><path d=" M206.85833333333335,76 C206.85833333333335,76 335.42567708333337,96 349.7109375,116" class="clickable"/></g><path d="M 349.7109375,116 L 356.7109375,113.5 L 356.7109375,118.5 Z" transform="rotate(-125.53681681363645 349.7109375 116)" class="arrow" style="fill:rgb(48, 48, 48);stroke-linejoin:miter;stroke-miterlimit:2;"/></g><g id="sprotty_fsm$ctrl_fsm_cs/state$FLUSH_to_fsm$ctrl_fsm_cs/state$IRQ_TAKEN" class="sprotty-edge transition" style="fill:none;stroke:rgb(48, 48, 48);stroke-linejoin:round;"><g><path d=" M226.85833333333335,76 C464.1015625,96 464.10156250000006,106 464.10156250000006,115.16666666666667 C464.10156250000006,124.33333333333334 464.1015625,132.66666666666666 464.1015625,141 C464.1015625,149.33333333333331 464.1015625,157.66666666666669 464.10156250000006,171.83333333333337 C464.10156250000006,186 464.10156250000006,206 464.10156250000006,221.41666666666669 C464.1015625,236.83333333333334 464.1015625,247.66666666666669 464.1015625,258.5 C464.1015625,269.3333333333333 464.1015625,280.16666666666663 464.1015625,298.0833333333333 C464.1015625,316 464.1015625,340.99999999999994 464.1015625,358.5 C464.1015625,376.00000000000006 464.1015625,386 464.1015625,396 C464.1015625,406.00000000000006 464.1015625,416.00000000000006 464.1015625,424.75000000000006 C464.1015625,433.5 464.1015625,441 272.46770833333335,456"/><path d=" M226.85833333333335,76 C464.1015625,96 464.10156250000006,106 464.10156250000006,115.16666666666667 C464.10156250000006,124.33333333333334 464.1015625,132.66666666666666 464.1015625,141 C464.1015625,149.33333333333331 464.1015625,157.66666666666669 464.10156250000006,171.83333333333337 C464.10156250000006,186 464.10156250000006,206 464.10156250000006,221.41666666666669 C464.1015625,236.83333333333334 464.1015625,247.66666666666669 464.1015625,258.5 C464.1015625,269.3333333333333 464.1015625,280.16666666666663 464.1015625,298.0833333333333 C464.1015625,316 464.1015625,340.99999999999994 464.1015625,358.5 C464.1015625,376.00000000000006 464.1015625,386 464.1015625,396 C464.1015625,406.00000000000006 464.1015625,416.00000000000006 464.1015625,424.75000000000006 C464.1015625,433.5 464.1015625,441 272.46770833333335,456" class="clickable"/></g><path d="M 272.46770833333335,456 L 279.46770833333335,453.5 L 279.46770833333335,458.5 Z" transform="rotate(-4.475659607376454 272.46770833333335 456)" class="arrow" style="fill:rgb(48, 48, 48);stroke-linejoin:miter;stroke-miterlimit:2;"/></g><g id="sprotty_fsm$ctrl_fsm_cs/state$FLUSH_to_fsm$ctrl_fsm_cs/state$DBG_TAKEN_IF" class="sprotty-edge transition" style="fill:none;stroke:rgb(48, 48, 48);stroke-linejoin:round;"><g><path d=" M216.85833333333335,76 C412.78906250000006,96 412.78906250000006,106 412.78906250000006,115.16666666666666 C412.78906250000006,124.33333333333333 412.78906250000006,132.66666666666666 412.78906250000006,141 C412.78906250000006,149.33333333333334 412.78906250000006,157.66666666666666 412.78906250000006,171.83333333333334 C412.78906250000006,186 412.78906250000006,206 412.78906250000006,220.16666666666669 C412.78906250000006,234.33333333333334 412.78906250000006,242.66666666666669 412.78906250000006,251 C412.78906250000006,259.3333333333333 412.78906250000006,267.66666666666663 412.78906250000006,275.58333333333326 C412.78906250000006,283.5 412.78906250000006,291 327.0002604166667,306"/><path d=" M216.85833333333335,76 C412.78906250000006,96 412.78906250000006,106 412.78906250000006,115.16666666666666 C412.78906250000006,124.33333333333333 412.78906250000006,132.66666666666666 412.78906250000006,141 C412.78906250000006,149.33333333333334 412.78906250000006,157.66666666666666 412.78906250000006,171.83333333333334 C412.78906250000006,186 412.78906250000006,206 412.78906250000006,220.16666666666669 C412.78906250000006,234.33333333333334 412.78906250000006,242.66666666666669 412.78906250000006,251 C412.78906250000006,259.3333333333333 412.78906250000006,267.66666666666663 412.78906250000006,275.58333333333326 C412.78906250000006,283.5 412.78906250000006,291 327.0002604166667,306" class="clickable"/></g><path d="M 327.0002604166667,306 L 334.0002604166667,303.5 L 334.0002604166667,308.5 Z" transform="rotate(-9.917794814215531 327.0002604166667 306)" class="arrow" style="fill:rgb(48, 48, 48);stroke-linejoin:miter;stroke-miterlimit:2;"/></g></g></g></svg>