<svg xmlns="http://www.w3.org/2000/svg" id="sprotty_root" class="sprotty-graph sprotty-state-machine statemachine" style="font-family:&quot;Noto Sans&quot;, Helvetica, Arial, sans-serif;perspective-origin:0px 0px;transform-origin:0px 0px;" version="1.1" viewBox="10 10 466.9765625 299.09921875" width="466.9765625" height="299.09921875"><g transform="scale(1) translate(0,0)"><g id="sprotty_fsm$ls_fsm_cs" transform="translate(15, 15)" class="statemachine"><g class="sprotty-block" style="fill:rgb(255, 255, 255);stroke:rgb(48, 48, 48);stroke-dasharray:0px;"><rect x="0" y="0" rx="1" ry="1" width="456.9765625" height="289.09921875"/><text x="228.48828125" y="12" class="sprotty-block-name" style="cursor:pointer;font-weight:700;perspective-origin:228.531px 0px;fill:rgb(48, 48, 48);stroke:rgba(0, 0, 0, 0);dominant-baseline:middle;text-anchor:middle;">ls_fsm_cs</text><line x1="0" y1="20" x2="456.9765625" y2="20"/></g><g id="sprotty_fsm$ls_fsm_cs/state$WAIT_RVALID_MIS" transform="translate(123.1015625, 36)" class="state"><ellipse cx="74.21875" cy="20" rx="74.21875" ry="20" class="sprotty-node clickable" style="fill:rgb(255, 255, 255);stroke:rgb(48, 48, 48);"/><text class="clickable sprotty-label state" id="sprotty_fsm$ls_fsm_cs/state$WAIT_RVALID_MIS/label" transform="translate(6, 8) translate(68.21875, 19)" style="cursor:default;perspective-origin:0px 0px;fill:rgb(48, 48, 48);text-anchor:middle;">WAIT_RVALID_MIS</text></g><g id="sprotty_fsm$ls_fsm_cs/state$WAIT_RVALID_MIS_GNTS_DONE" transform="translate(182.8203125, 106)" class="state"><ellipse cx="125.578125" cy="20" rx="125.578125" ry="20" class="sprotty-node clickable" style="fill:rgb(255, 255, 255);stroke:rgb(48, 48, 48);"/><text class="clickable sprotty-label state" id="sprotty_fsm$ls_fsm_cs/state$WAIT_RVALID_MIS_GNTS_DONE/label" transform="translate(6, 8) translate(119.578125, 19)" style="cursor:default;perspective-origin:0px 0px;fill:rgb(48, 48, 48);text-anchor:middle;">WAIT_RVALID_MIS_GNTS_DONE</text></g><g id="sprotty_fsm$ls_fsm_cs/state$IDLE" transform="translate(170.03515625, 176)" class="state"><ellipse cx="22.890625" cy="20" rx="22.890625" ry="20" class="sprotty-node clickable" style="fill:rgb(255, 255, 255);stroke:rgb(48, 48, 48);"/><text class="clickable sprotty-label state" id="sprotty_fsm$ls_fsm_cs/state$IDLE/label" transform="translate(6, 8) translate(16.890625, 19)" style="cursor:default;perspective-origin:0px 0px;fill:rgb(48, 48, 48);text-anchor:middle;">IDLE</text></g><g id="sprotty_fsm$ls_fsm_cs/state$WAIT_GNT" transform="translate(164.3125, 237.09921875)" class="state"><ellipse cx="45.78125" cy="20" rx="45.78125" ry="20" class="sprotty-node clickable" style="fill:rgb(255, 255, 255);stroke:rgb(48, 48, 48);"/><text class="clickable sprotty-label state" id="sprotty_fsm$ls_fsm_cs/state$WAIT_GNT/label" transform="translate(6, 8) translate(39.578125, 19)" style="cursor:default;perspective-origin:0.203125px 0px;fill:rgb(48, 48, 48);text-anchor:middle;">WAIT_GNT</text></g><g id="sprotty_fsm$ls_fsm_cs/state$WAIT_GNT_MIS" transform="translate(12, 237.09921875)" class="state"><ellipse cx="63.65625" cy="20" rx="63.65625" ry="20" class="sprotty-node clickable" style="fill:rgb(255, 255, 255);stroke:rgb(48, 48, 48);"/><text class="clickable sprotty-label state" id="sprotty_fsm$ls_fsm_cs/state$WAIT_GNT_MIS/label" transform="translate(6, 8) translate(57.65625, 19)" style="cursor:default;perspective-origin:0px 0px;fill:rgb(48, 48, 48);text-anchor:middle;">WAIT_GNT_MIS</text></g><g id="sprotty_fsm$ls_fsm_cs/state$IDLE_to_fsm$ls_fsm_cs/state$WAIT_RVALID_MIS" class="sprotty-edge transition" style="fill:none;stroke:rgb(48, 48, 48);stroke-linejoin:round;"><g><path d=" M181.48046875,176 C105.4375,161 105.4375,153.5 105.4375,146.41666666666666 C105.4375,139.33333333333331 105.4375,132.66666666666666 105.4375,126 C105.4375,119.33333333333333 105.4375,112.66666666666666 105.4375,105.58333333333333 C105.4375,98.5 105.4375,91 172.58072916666669,76"/><path d=" M181.48046875,176 C105.4375,161 105.4375,153.5 105.4375,146.41666666666666 C105.4375,139.33333333333331 105.4375,132.66666666666666 105.4375,126 C105.4375,119.33333333333333 105.4375,112.66666666666666 105.4375,105.58333333333333 C105.4375,98.5 105.4375,91 172.58072916666669,76" class="clickable"/></g><path d="M 172.58072916666669,76 L 179.58072916666669,73.5 L 179.58072916666669,78.5 Z" transform="rotate(167.40673759475183 172.58072916666669 76)" class="arrow" style="fill:rgb(48, 48, 48);stroke-linejoin:miter;stroke-miterlimit:2;"/></g><g id="sprotty_fsm$ls_fsm_cs/state$IDLE_to_fsm$ls_fsm_cs/state$WAIT_GNT_MIS" class="sprotty-edge transition" style="fill:none;stroke:rgb(48, 48, 48);stroke-linejoin:round;"><g><path d=" M181.48046875,216 C181.48046875,216 105.335546875,226.549609375 96.875,237.09921875"/><path d=" M181.48046875,216 C181.48046875,216 105.335546875,226.549609375 96.875,237.09921875" class="clickable"/></g><path d="M 96.875,237.09921875 L 103.875,234.59921875 L 103.875,239.59921875 Z" transform="rotate(-51.271179715775425 96.875 237.09921875)" class="arrow" style="fill:rgb(48, 48, 48);stroke-linejoin:miter;stroke-miterlimit:2;"/></g><g id="sprotty_fsm$ls_fsm_cs/state$IDLE_to_fsm$ls_fsm_cs/state$WAIT_GNT" class="sprotty-edge transition" style="fill:none;stroke:rgb(48, 48, 48);stroke-linejoin:round;"><g><path d=" M192.92578125,216 C192.92578125,216 190.064453125,226.549609375 187.203125,237.09921875"/><path d=" M192.92578125,216 C192.92578125,216 190.064453125,226.549609375 187.203125,237.09921875" class="clickable"/></g><path d="M 187.203125,237.09921875 L 194.203125,234.59921875 L 194.203125,239.59921875 Z" transform="rotate(-74.82497451377802 187.203125 237.09921875)" class="arrow" style="fill:rgb(48, 48, 48);stroke-linejoin:miter;stroke-miterlimit:2;"/></g><g id="sprotty_fsm$ls_fsm_cs/state$WAIT_GNT_MIS_to_fsm$ls_fsm_cs/state$WAIT_RVALID_MIS" class="sprotty-edge transition" style="fill:none;stroke:rgb(48, 48, 48);stroke-linejoin:round;"><g><path d=" M54.4375,237.09921875 C54.4375,226.549609375 54.4375,193.7748046875 54.4375,172.80406901041667 C54.4375,151.83333333333331 54.4375,142.66666666666666 54.4375,133.5 C54.4375,124.33333333333333 54.4375,115.16666666666666 54.4375,106.83333333333333 C54.4375,98.5 54.4375,91 147.84114583333334,76"/><path d=" M54.4375,237.09921875 C54.4375,226.549609375 54.4375,193.7748046875 54.4375,172.80406901041667 C54.4375,151.83333333333331 54.4375,142.66666666666666 54.4375,133.5 C54.4375,124.33333333333333 54.4375,115.16666666666666 54.4375,106.83333333333333 C54.4375,98.5 54.4375,91 147.84114583333334,76" class="clickable"/></g><path d="M 147.84114583333334,76 L 154.84114583333334,73.5 L 154.84114583333334,78.5 Z" transform="rotate(170.87658090872125 147.84114583333334 76)" class="arrow" style="fill:rgb(48, 48, 48);stroke-linejoin:miter;stroke-miterlimit:2;"/></g><g id="sprotty_fsm$ls_fsm_cs/state$WAIT_RVALID_MIS_to_fsm$ls_fsm_cs/state$IDLE" class="sprotty-edge transition" style="fill:none;stroke:rgb(48, 48, 48);stroke-linejoin:round;"><g><path d=" M197.3203125,76 C171.8203125,91 171.8203125,98.5 171.8203125,105.58333333333333 C171.8203125,112.66666666666666 171.8203125,119.33333333333333 171.8203125,126 C171.8203125,132.66666666666666 171.8203125,139.33333333333331 171.8203125,146.41666666666666 C171.8203125,153.5 171.8203125,161 192.92578125,176"/><path d=" M197.3203125,76 C171.8203125,91 171.8203125,98.5 171.8203125,105.58333333333333 C171.8203125,112.66666666666666 171.8203125,119.33333333333333 171.8203125,126 C171.8203125,132.66666666666666 171.8203125,139.33333333333331 171.8203125,146.41666666666666 C171.8203125,153.5 171.8203125,161 192.92578125,176" class="clickable"/></g><path d="M 192.92578125,176 L 199.92578125,173.5 L 199.92578125,178.5 Z" transform="rotate(-144.5979725084789 192.92578125 176)" class="arrow" style="fill:rgb(48, 48, 48);stroke-linejoin:miter;stroke-miterlimit:2;"/></g><g id="sprotty_fsm$ls_fsm_cs/state$WAIT_RVALID_MIS_to_fsm$ls_fsm_cs/state$WAIT_GNT" class="sprotty-edge transition" style="fill:none;stroke:rgb(48, 48, 48);stroke-linejoin:round;"><g><path d=" M246.79947916666669,76 C443.9765625,91 443.9765625,98.5 443.9765625,106.83333333333334 C443.9765625,115.16666666666667 443.9765625,124.33333333333331 443.9765625,133.49999999999997 C443.9765625,142.66666666666666 443.9765625,151.83333333333331 443.9765625,165.58333333333331 C443.9765625,179.33333333333334 443.9765625,197.66666666666669 443.9765625,209.47073567708335 C443.9765625,221.2748046875 443.9765625,226.549609375 232.984375,237.09921875"/><path d=" M246.79947916666669,76 C443.9765625,91 443.9765625,98.5 443.9765625,106.83333333333334 C443.9765625,115.16666666666667 443.9765625,124.33333333333331 443.9765625,133.49999999999997 C443.9765625,142.66666666666666 443.9765625,151.83333333333331 443.9765625,165.58333333333331 C443.9765625,179.33333333333334 443.9765625,197.66666666666669 443.9765625,209.47073567708335 C443.9765625,221.2748046875 443.9765625,226.549609375 232.984375,237.09921875" class="clickable"/></g><path d="M 232.984375,237.09921875 L 239.984375,234.59921875 L 239.984375,239.59921875 Z" transform="rotate(-2.8624052261117523 232.984375 237.09921875)" class="arrow" style="fill:rgb(48, 48, 48);stroke-linejoin:miter;stroke-miterlimit:2;"/></g><g id="sprotty_fsm$ls_fsm_cs/state$WAIT_RVALID_MIS_to_fsm$ls_fsm_cs/state$WAIT_RVALID_MIS_GNTS_DONE" class="sprotty-edge transition" style="fill:none;stroke:rgb(48, 48, 48);stroke-linejoin:round;"><g><path d=" M222.05989583333334,76 C222.05989583333334,76 299.76458333333335,91 308.3984375,106"/><path d=" M222.05989583333334,76 C222.05989583333334,76 299.76458333333335,91 308.3984375,106" class="clickable"/></g><path d="M 308.3984375,106 L 315.3984375,103.5 L 315.3984375,108.5 Z" transform="rotate(-119.92431230259287 308.3984375 106)" class="arrow" style="fill:rgb(48, 48, 48);stroke-linejoin:miter;stroke-miterlimit:2;"/></g><g id="sprotty_fsm$ls_fsm_cs/state$WAIT_GNT_to_fsm$ls_fsm_cs/state$IDLE" class="sprotty-edge transition" style="fill:none;stroke:rgb(48, 48, 48);stroke-linejoin:round;"><g><path d=" M210.09375,237.09921875 C207.232421875,226.549609375 204.37109375,216 204.37109375,216"/><path d=" M210.09375,237.09921875 C207.232421875,226.549609375 204.37109375,216 204.37109375,216" class="clickable"/></g><path d="M 204.37109375,216 L 211.37109375,213.5 L 211.37109375,218.5 Z" transform="rotate(74.82497451377797 204.37109375 216)" class="arrow" style="fill:rgb(48, 48, 48);stroke-linejoin:miter;stroke-miterlimit:2;"/></g><g id="sprotty_fsm$ls_fsm_cs/state$WAIT_RVALID_MIS_GNTS_DONE_to_fsm$ls_fsm_cs/state$IDLE" class="sprotty-edge transition" style="fill:none;stroke:rgb(48, 48, 48);stroke-linejoin:round;"><g><path d=" M308.3984375,146 C308.3984375,146 297.995703125,161 204.37109375,176"/><path d=" M308.3984375,146 C308.3984375,146 297.995703125,161 204.37109375,176" class="clickable"/></g><path d="M 204.37109375,176 L 211.37109375,173.5 L 211.37109375,178.5 Z" transform="rotate(-9.10224777461946 204.37109375 176)" class="arrow" style="fill:rgb(48, 48, 48);stroke-linejoin:miter;stroke-miterlimit:2;"/></g></g></g></svg>