<svg xmlns="http://www.w3.org/2000/svg" id="sprotty_root" class="sprotty-graph sprotty-state-machine statemachine" style="font-family:&quot;Noto Sans&quot;, Helvetica, Arial, sans-serif;perspective-origin:0px 0px;transform-origin:0px 0px;" version="1.1" viewBox="10 10 210.25 458" width="210.25" height="458"><g transform="scale(1) translate(0,0)"><g id="sprotty_fsm$md_state_q" transform="translate(15, 15)" class="statemachine"><g class="sprotty-block" style="fill:rgb(255, 255, 255);stroke:rgb(48, 48, 48);stroke-dasharray:0px;"><rect x="0" y="0" rx="1" ry="1" width="200.25" height="448"/><text x="100.125" y="12" class="sprotty-block-name" style="cursor:pointer;font-weight:700;perspective-origin:100.125px 0px;fill:rgb(48, 48, 48);stroke:rgba(0, 0, 0, 0);dominant-baseline:middle;text-anchor:middle;">md_state_q</text><line x1="0" y1="20" x2="200.25" y2="20"/></g><g id="sprotty_fsm$md_state_q/state$MD_COMP" transform="translate(55.3125, 216)" class="state"><ellipse cx="44.8125" cy="20" rx="44.8125" ry="20" class="sprotty-node clickable" style="fill:rgb(255, 255, 255);stroke:rgb(48, 48, 48);"/><text class="clickable sprotty-label state" id="sprotty_fsm$md_state_q/state$MD_COMP/label" transform="translate(6, 8) translate(38.8125, 19)" style="cursor:default;perspective-origin:0px 0px;fill:rgb(48, 48, 48);text-anchor:middle;">MD_COMP</text></g><g id="sprotty_fsm$md_state_q/state$MD_LAST" transform="translate(58.8359375, 276)" class="state"><ellipse cx="41.2890625" cy="20" rx="41.2890625" ry="20" class="sprotty-node clickable" style="fill:rgb(255, 255, 255);stroke:rgb(48, 48, 48);"/><text class="clickable sprotty-label state" id="sprotty_fsm$md_state_q/state$MD_LAST/label" transform="translate(6, 8) translate(35.078125, 19)" style="cursor:default;perspective-origin:0.203125px 0px;fill:rgb(48, 48, 48);text-anchor:middle;">MD_LAST</text></g><g id="sprotty_fsm$md_state_q/state$MD_IDLE" transform="translate(60.765625, 36)" class="state"><ellipse cx="39.359375" cy="20" rx="39.359375" ry="20" class="sprotty-node clickable" style="fill:rgb(255, 255, 255);stroke:rgb(48, 48, 48);"/><text class="clickable sprotty-label state" id="sprotty_fsm$md_state_q/state$MD_IDLE/label" transform="translate(6, 8) translate(33.359375, 19)" style="cursor:default;perspective-origin:0px 0px;fill:rgb(48, 48, 48);text-anchor:middle;">MD_IDLE</text></g><g id="sprotty_fsm$md_state_q/state$MD_FINISH" transform="translate(52.171875, 396)" class="state"><ellipse cx="47.953125" cy="20" rx="47.953125" ry="20" class="sprotty-node clickable" style="fill:rgb(255, 255, 255);stroke:rgb(48, 48, 48);"/><text class="clickable sprotty-label state" id="sprotty_fsm$md_state_q/state$MD_FINISH/label" transform="translate(6, 8) translate(41.953125, 19)" style="cursor:default;perspective-origin:0px 0px;fill:rgb(48, 48, 48);text-anchor:middle;">MD_FINISH</text></g><g id="sprotty_fsm$md_state_q/state$MD_ABS_B" transform="translate(53.15625, 156)" class="state"><ellipse cx="46.96875" cy="20" rx="46.96875" ry="20" class="sprotty-node clickable" style="fill:rgb(255, 255, 255);stroke:rgb(48, 48, 48);"/><text class="clickable sprotty-label state" id="sprotty_fsm$md_state_q/state$MD_ABS_B/label" transform="translate(6, 8) translate(40.96875, 19)" style="cursor:default;perspective-origin:0px 0px;fill:rgb(48, 48, 48);text-anchor:middle;">MD_ABS_B</text></g><g id="sprotty_fsm$md_state_q/state$MD_CHANGE_SIGN" transform="translate(23, 336)" class="state"><ellipse cx="77.125" cy="20" rx="77.125" ry="20" class="sprotty-node clickable" style="fill:rgb(255, 255, 255);stroke:rgb(48, 48, 48);"/><text class="clickable sprotty-label state" id="sprotty_fsm$md_state_q/state$MD_CHANGE_SIGN/label" transform="translate(6, 8) translate(71.125, 19)" style="cursor:default;perspective-origin:0px 0px;fill:rgb(48, 48, 48);text-anchor:middle;">MD_CHANGE_SIGN</text></g><g id="sprotty_fsm$md_state_q/state$MD_ABS_A" transform="translate(53.4140625, 96)" class="state"><ellipse cx="46.7109375" cy="20" rx="46.7109375" ry="20" class="sprotty-node clickable" style="fill:rgb(255, 255, 255);stroke:rgb(48, 48, 48);"/><text class="clickable sprotty-label state" id="sprotty_fsm$md_state_q/state$MD_ABS_A/label" transform="translate(6, 8) translate(40.5625, 19)" style="cursor:default;perspective-origin:0.140625px 0px;fill:rgb(48, 48, 48);text-anchor:middle;">MD_ABS_A</text></g><g id="sprotty_fsm$md_state_q/state$MD_IDLE_to_fsm$md_state_q/state$MD_FINISH" class="sprotty-edge transition" style="fill:none;stroke:rgb(48, 48, 48);stroke-linejoin:round;"><g><path d=" M119.8046875,76 C187.25,86 187.25,91 187.25,97.66666666666669 C187.25,104.33333333333334 187.25,112.66666666666666 187.25,121 C187.25,129.33333333333331 187.25,137.66666666666669 187.25,151.83333333333334 C187.25,166 187.25,186.00000000000003 187.25,201.00000000000003 C187.25,216 187.25,226 187.25,236 C187.25,246 187.25,256 187.25,271 C187.25,286 187.25,306 187.25,320.1666666666667 C187.25,334.33333333333337 187.25,342.6666666666667 187.25,351.00000000000006 C187.25,359.33333333333337 187.25,367.66666666666663 187.25,374.33333333333337 C187.25,381 187.25,386 124.1015625,396"/><path d=" M119.8046875,76 C187.25,86 187.25,91 187.25,97.66666666666669 C187.25,104.33333333333334 187.25,112.66666666666666 187.25,121 C187.25,129.33333333333331 187.25,137.66666666666669 187.25,151.83333333333334 C187.25,166 187.25,186.00000000000003 187.25,201.00000000000003 C187.25,216 187.25,226 187.25,236 C187.25,246 187.25,256 187.25,271 C187.25,286 187.25,306 187.25,320.1666666666667 C187.25,334.33333333333337 187.25,342.6666666666667 187.25,351.00000000000006 C187.25,359.33333333333337 187.25,367.66666666666663 187.25,374.33333333333337 C187.25,381 187.25,386 124.1015625,396" class="clickable"/></g><path d="M 124.1015625,396 L 131.1015625,393.5 L 131.1015625,398.5 Z" transform="rotate(-8.998468805190827 124.1015625 396)" class="arrow" style="fill:rgb(48, 48, 48);stroke-linejoin:miter;stroke-miterlimit:2;"/></g><g id="sprotty_fsm$md_state_q/state$MD_IDLE_to_fsm$md_state_q/state$MD_ABS_A" class="sprotty-edge transition" style="fill:none;stroke:rgb(48, 48, 48);stroke-linejoin:round;"><g><path d=" M100.125,76 C100.125,76 100.125,86 100.125,96"/><path d=" M100.125,76 C100.125,76 100.125,86 100.125,96" class="clickable"/></g><path d="M 100.125,96 L 107.125,93.5 L 107.125,98.5 Z" transform="rotate(-90 100.125 96)" class="arrow" style="fill:rgb(48, 48, 48);stroke-linejoin:miter;stroke-miterlimit:2;"/></g><g id="sprotty_fsm$md_state_q/state$MD_ABS_A_to_fsm$md_state_q/state$MD_ABS_B" class="sprotty-edge transition" style="fill:none;stroke:rgb(48, 48, 48);stroke-linejoin:round;"><g><path d=" M100.125,136 C100.125,136 100.125,146 100.125,156"/><path d=" M100.125,136 C100.125,136 100.125,146 100.125,156" class="clickable"/></g><path d="M 100.125,156 L 107.125,153.5 L 107.125,158.5 Z" transform="rotate(-90 100.125 156)" class="arrow" style="fill:rgb(48, 48, 48);stroke-linejoin:miter;stroke-miterlimit:2;"/></g><g id="sprotty_fsm$md_state_q/state$MD_ABS_B_to_fsm$md_state_q/state$MD_COMP" class="sprotty-edge transition" style="fill:none;stroke:rgb(48, 48, 48);stroke-linejoin:round;"><g><path d=" M100.125,196 C100.125,196 100.125,206 100.125,216"/><path d=" M100.125,196 C100.125,196 100.125,206 100.125,216" class="clickable"/></g><path d="M 100.125,216 L 107.125,213.5 L 107.125,218.5 Z" transform="rotate(-90 100.125 216)" class="arrow" style="fill:rgb(48, 48, 48);stroke-linejoin:miter;stroke-miterlimit:2;"/></g><g id="sprotty_fsm$md_state_q/state$MD_COMP_to_fsm$md_state_q/state$MD_LAST" class="sprotty-edge transition" style="fill:none;stroke:rgb(48, 48, 48);stroke-linejoin:round;"><g><path d=" M100.125,256 C100.125,256 100.125,266 100.125,276"/><path d=" M100.125,256 C100.125,256 100.125,266 100.125,276" class="clickable"/></g><path d="M 100.125,276 L 107.125,273.5 L 107.125,278.5 Z" transform="rotate(-90 100.125 276)" class="arrow" style="fill:rgb(48, 48, 48);stroke-linejoin:miter;stroke-miterlimit:2;"/></g><g id="sprotty_fsm$md_state_q/state$MD_LAST_to_fsm$md_state_q/state$MD_CHANGE_SIGN" class="sprotty-edge transition" style="fill:none;stroke:rgb(48, 48, 48);stroke-linejoin:round;"><g><path d=" M100.125,316 C100.125,316 100.125,326 100.125,336"/><path d=" M100.125,316 C100.125,316 100.125,326 100.125,336" class="clickable"/></g><path d="M 100.125,336 L 107.125,333.5 L 107.125,338.5 Z" transform="rotate(-90 100.125 336)" class="arrow" style="fill:rgb(48, 48, 48);stroke-linejoin:miter;stroke-miterlimit:2;"/></g><g id="sprotty_fsm$md_state_q/state$MD_CHANGE_SIGN_to_fsm$md_state_q/state$MD_FINISH" class="sprotty-edge transition" style="fill:none;stroke:rgb(48, 48, 48);stroke-linejoin:round;"><g><path d=" M100.125,376 C100.125,376 100.125,386 100.125,396"/><path d=" M100.125,376 C100.125,376 100.125,386 100.125,396" class="clickable"/></g><path d="M 100.125,396 L 107.125,393.5 L 107.125,398.5 Z" transform="rotate(-90 100.125 396)" class="arrow" style="fill:rgb(48, 48, 48);stroke-linejoin:miter;stroke-miterlimit:2;"/></g><g id="sprotty_fsm$md_state_q/state$MD_FINISH_to_fsm$md_state_q/state$MD_IDLE" class="sprotty-edge transition" style="fill:none;stroke:rgb(48, 48, 48);stroke-linejoin:round;"><g><path d=" M76.1484375,396 C12,386 12,381 12,374.33333333333337 C12,367.66666666666663 12,359.33333333333337 11.999999999999986,351.00000000000006 C11.999999999999986,342.6666666666667 12,334.33333333333337 11.999999999999986,320.1666666666667 C11.999999999999986,306 12,286 12,271 C12,256 12,246 12,236 C12,226 12,216 11.999999999999986,201.00000000000003 C11.999999999999986,186.00000000000003 12,166 11.999999999999986,151.83333333333334 C11.999999999999986,137.66666666666669 12,129.33333333333331 12,121 C12,112.66666666666666 12,104.33333333333334 11.999999999999986,97.66666666666669 C11.999999999999986,91 12,86 80.4453125,76"/><path d=" M76.1484375,396 C12,386 12,381 12,374.33333333333337 C12,367.66666666666663 12,359.33333333333337 11.999999999999986,351.00000000000006 C11.999999999999986,342.6666666666667 12,334.33333333333337 11.999999999999986,320.1666666666667 C11.999999999999986,306 12,286 12,271 C12,256 12,246 12,236 C12,226 12,216 11.999999999999986,201.00000000000003 C11.999999999999986,186.00000000000003 12,166 11.999999999999986,151.83333333333334 C11.999999999999986,137.66666666666669 12,129.33333333333331 12,121 C12,112.66666666666666 12,104.33333333333334 11.999999999999986,97.66666666666669 C11.999999999999986,91 12,86 80.4453125,76" class="clickable"/></g><path d="M 80.4453125,76 L 87.4453125,73.5 L 87.4453125,78.5 Z" transform="rotate(171.68778028317232 80.4453125 76)" class="arrow" style="fill:rgb(48, 48, 48);stroke-linejoin:miter;stroke-miterlimit:2;"/></g></g></g></svg>