<svg xmlns="http://www.w3.org/2000/svg" id="sprotty_root" class="sprotty-graph sprotty-state-machine statemachine" style="font-family:&quot;Noto Sans&quot;, Helvetica, Arial, sans-serif;perspective-origin:0px 0px;transform-origin:0px 0px;" version="1.1" viewBox="10 10 122.59375 278" width="122.59375" height="278"><g transform="scale(1) translate(0,0)"><g id="sprotty_fsm$mult_state_q" transform="translate(15, 15)" class="statemachine"><g class="sprotty-block" style="fill:rgb(255, 255, 255);stroke:rgb(48, 48, 48);stroke-dasharray:0px;"><rect x="0" y="0" rx="1" ry="1" width="112.59375" height="268"/><text x="56.296875" y="12" class="sprotty-block-name" style="cursor:pointer;font-weight:700;perspective-origin:56.2969px 0px;fill:rgb(48, 48, 48);stroke:rgba(0, 0, 0, 0);dominant-baseline:middle;text-anchor:middle;">mult_state_q</text><line x1="0" y1="20" x2="112.59375" y2="20"/></g><g id="sprotty_fsm$mult_state_q/state$AHBH" transform="translate(23, 96)" class="state"><ellipse cx="27.765625" cy="20" rx="27.765625" ry="20" class="sprotty-node clickable" style="fill:rgb(255, 255, 255);stroke:rgb(48, 48, 48);"/><text class="clickable sprotty-label state" id="sprotty_fsm$mult_state_q/state$AHBH/label" transform="translate(6, 8) translate(21.765625, 19)" style="cursor:default;perspective-origin:0px 0px;fill:rgb(48, 48, 48);text-anchor:middle;">AHBH</text></g><g id="sprotty_fsm$mult_state_q/state$ALBL" transform="translate(44.6875, 156)" class="state"><ellipse cx="24.9609375" cy="20" rx="24.9609375" ry="20" class="sprotty-node clickable" style="fill:rgb(255, 255, 255);stroke:rgb(48, 48, 48);"/><text class="clickable sprotty-label state" id="sprotty_fsm$mult_state_q/state$ALBL/label" transform="translate(6, 8) translate(18.796875, 19)" style="cursor:default;perspective-origin:0.15625px 0px;fill:rgb(48, 48, 48);text-anchor:middle;">ALBL</text></g><g id="sprotty_fsm$mult_state_q/state$ALBH" transform="translate(19.824218750000004, 216)" class="state"><ellipse cx="26.28125" cy="20" rx="26.28125" ry="20" class="sprotty-node clickable" style="fill:rgb(255, 255, 255);stroke:rgb(48, 48, 48);"/><text class="clickable sprotty-label state" id="sprotty_fsm$mult_state_q/state$ALBH/label" transform="translate(6, 8) translate(20.28125, 19)" style="cursor:default;perspective-origin:0px 0px;fill:rgb(48, 48, 48);text-anchor:middle;">ALBH</text></g><g id="sprotty_fsm$mult_state_q/state$AHBL" transform="translate(24.3203125, 36)" class="state"><ellipse cx="26.4453125" cy="20" rx="26.4453125" ry="20" class="sprotty-node clickable" style="fill:rgb(255, 255, 255);stroke:rgb(48, 48, 48);"/><text class="clickable sprotty-label state" id="sprotty_fsm$mult_state_q/state$AHBL/label" transform="translate(6, 8) translate(20.28125, 19)" style="cursor:default;perspective-origin:0.15625px 0px;fill:rgb(48, 48, 48);text-anchor:middle;">AHBL</text></g><g id="sprotty_fsm$mult_state_q/state$ALBL_to_fsm$mult_state_q/state$ALBH" class="sprotty-edge transition" style="fill:none;stroke:rgb(48, 48, 48);stroke-linejoin:round;"><g><path d=" M69.6484375,196 C69.6484375,196 68.17018229166666,206 54.86588541666667,216"/><path d=" M69.6484375,196 C69.6484375,196 68.17018229166666,206 54.86588541666667,216" class="clickable"/></g><path d="M 54.86588541666667,216 L 61.86588541666667,213.5 L 61.86588541666667,218.5 Z" transform="rotate(-36.92987320943291 54.86588541666667 216)" class="arrow" style="fill:rgb(48, 48, 48);stroke-linejoin:miter;stroke-miterlimit:2;"/></g><g id="sprotty_fsm$mult_state_q/state$ALBH_to_fsm$mult_state_q/state$AHBL" class="sprotty-edge transition" style="fill:none;stroke:rgb(48, 48, 48);stroke-linejoin:round;"><g><path d=" M37.345052083333336,216 C12,206 12,201 12,190.1666666666667 C12,179.33333333333337 12,162.66666666666669 12,150.16666666666669 C12,137.66666666666669 12.000000000000004,129.33333333333331 12,121 C12,112.66666666666666 12,104.33333333333334 12,97.66666666666669 C12,91 12,86 37.54296875,76"/><path d=" M37.345052083333336,216 C12,206 12,201 12,190.1666666666667 C12,179.33333333333337 12,162.66666666666669 12,150.16666666666669 C12,137.66666666666669 12.000000000000004,129.33333333333331 12,121 C12,112.66666666666666 12,104.33333333333334 12,97.66666666666669 C12,91 12,86 37.54296875,76" class="clickable"/></g><path d="M 37.54296875,76 L 44.54296875,73.5 L 44.54296875,78.5 Z" transform="rotate(158.6197974358501 37.54296875 76)" class="arrow" style="fill:rgb(48, 48, 48);stroke-linejoin:miter;stroke-miterlimit:2;"/></g><g id="sprotty_fsm$mult_state_q/state$AHBL_to_fsm$mult_state_q/state$ALBL" class="sprotty-edge transition" style="fill:none;stroke:rgb(48, 48, 48);stroke-linejoin:round;"><g><path d=" M63.98828125,76 C88.53125,86 88.53125,91 88.53125,96.83333333333333 C88.53125,102.66666666666666 88.53125,109.33333333333333 88.53125,116 C88.53125,122.66666666666666 88.53125,129.33333333333331 88.53125,135.16666666666666 C88.53125,141 88.53125,146 77.96875,156"/><path d=" M63.98828125,76 C88.53125,86 88.53125,91 88.53125,96.83333333333333 C88.53125,102.66666666666666 88.53125,109.33333333333333 88.53125,116 C88.53125,122.66666666666666 88.53125,129.33333333333331 88.53125,135.16666666666666 C88.53125,141 88.53125,146 77.96875,156" class="clickable"/></g><path d="M 77.96875,156 L 84.96875,153.5 L 84.96875,158.5 Z" transform="rotate(-43.43302904295145 77.96875 156)" class="arrow" style="fill:rgb(48, 48, 48);stroke-linejoin:miter;stroke-miterlimit:2;"/></g><g id="sprotty_fsm$mult_state_q/state$AHBL_to_fsm$mult_state_q/state$AHBH" class="sprotty-edge transition" style="fill:none;stroke:rgb(48, 48, 48);stroke-linejoin:round;"><g><path d=" M50.765625,76 C50.765625,76 50.765625,86 50.765625,96"/><path d=" M50.765625,76 C50.765625,76 50.765625,86 50.765625,96" class="clickable"/></g><path d="M 50.765625,96 L 57.765625,93.5 L 57.765625,98.5 Z" transform="rotate(-90 50.765625 96)" class="arrow" style="fill:rgb(48, 48, 48);stroke-linejoin:miter;stroke-miterlimit:2;"/></g><g id="sprotty_fsm$mult_state_q/state$AHBH_to_fsm$mult_state_q/state$ALBL" class="sprotty-edge transition" style="fill:none;stroke:rgb(48, 48, 48);stroke-linejoin:round;"><g><path d=" M50.765625,136 C50.765625,136 51.821875,146 61.328125,156"/><path d=" M50.765625,136 C50.765625,136 51.821875,146 61.328125,156" class="clickable"/></g><path d="M 61.328125,156 L 68.328125,153.5 L 68.328125,158.5 Z" transform="rotate(-133.55001594186575 61.328125 156)" class="arrow" style="fill:rgb(48, 48, 48);stroke-linejoin:miter;stroke-miterlimit:2;"/></g></g></g></svg>