<svg xmlns="http://www.w3.org/2000/svg" id="sprotty_root" class="sprotty-graph sprotty-state-machine statemachine" style="font-family:&quot;Noto Sans&quot;, Helvetica, Arial, sans-serif;perspective-origin:0px 0px;transform-origin:0px 0px;" version="1.1" viewBox="10 10 247.11263020833334 278" width="247.11263020833334" height="278"><g transform="scale(1) translate(0,0)"><g id="sprotty_fsm$keccak_st" transform="translate(15, 15)" class="statemachine"><g class="sprotty-block" style="fill:rgb(255, 255, 255);stroke:rgb(48, 48, 48);stroke-dasharray:0px;"><rect x="0" y="0" rx="1" ry="1" width="237.11263020833334" height="268"/><text x="118.55631510416667" y="12" class="sprotty-block-name" style="cursor:pointer;font-weight:700;perspective-origin:118.688px 0px;fill:rgb(48, 48, 48);stroke:rgba(0, 0, 0, 0);dominant-baseline:middle;text-anchor:middle;">keccak_st</text><line x1="0" y1="20" x2="237.11263020833334" y2="20"/></g><g id="sprotty_fsm$keccak_st/state$StIdle" transform="translate(152.27669270833334, 96)" class="state"><ellipse cx="27.6640625" cy="20" rx="27.6640625" ry="20" class="sprotty-node clickable" style="fill:rgb(255, 255, 255);stroke:rgb(48, 48, 48);"/><text class="clickable sprotty-label state" id="sprotty_fsm$keccak_st/state$StIdle/label" transform="translate(6, 8) translate(21.59375, 19)" style="cursor:default;perspective-origin:0.0625px 0px;fill:rgb(48, 48, 48);text-anchor:middle;">StIdle</text></g><g id="sprotty_fsm$keccak_st/state$StPhase3" transform="translate(17.43033854166667, 36)" class="state"><ellipse cx="40.625" cy="20" rx="40.625" ry="20" class="sprotty-node clickable" style="fill:rgb(255, 255, 255);stroke:rgb(48, 48, 48);"/><text class="clickable sprotty-label state" id="sprotty_fsm$keccak_st/state$StPhase3/label" transform="translate(6, 8) translate(34.625, 19)" style="cursor:default;perspective-origin:0px 0px;fill:rgb(48, 48, 48);text-anchor:middle;">StPhase3</text></g><g id="sprotty_fsm$keccak_st/state$StPhase2" transform="translate(12, 216)" class="state"><ellipse cx="40.6875" cy="20" rx="40.6875" ry="20" class="sprotty-node clickable" style="fill:rgb(255, 255, 255);stroke:rgb(48, 48, 48);"/><text class="clickable sprotty-label state" id="sprotty_fsm$keccak_st/state$StPhase2/label" transform="translate(6, 8) translate(34.625, 19)" style="cursor:default;perspective-origin:0.0625px 0px;fill:rgb(48, 48, 48);text-anchor:middle;">StPhase2</text></g><g id="sprotty_fsm$keccak_st/state$StPhase1" transform="translate(46.31575520833334, 156)" class="state"><ellipse cx="40.625" cy="20" rx="40.625" ry="20" class="sprotty-node clickable" style="fill:rgb(255, 255, 255);stroke:rgb(48, 48, 48);"/><text class="clickable sprotty-label state" id="sprotty_fsm$keccak_st/state$StPhase1/label" transform="translate(6, 8) translate(34.625, 19)" style="cursor:default;perspective-origin:0px 0px;fill:rgb(48, 48, 48);text-anchor:middle;">StPhase1</text></g><g id="sprotty_fsm$keccak_st/state$StError" transform="translate(156.404296875, 36)" class="state"><ellipse cx="32.7578125" cy="20" rx="32.7578125" ry="20" class="sprotty-node clickable" style="fill:rgb(255, 255, 255);stroke:rgb(48, 48, 48);"/><text class="clickable sprotty-label state" id="sprotty_fsm$keccak_st/state$StError/label" transform="translate(6, 8) translate(26.359375, 19)" style="cursor:default;perspective-origin:0.390625px 0px;fill:rgb(48, 48, 48);text-anchor:middle;">StError</text></g><g id="sprotty_fsm$keccak_st/state$StActive" transform="translate(152.56575520833334, 156)" class="state"><ellipse cx="36.2734375" cy="20" rx="36.2734375" ry="20" class="sprotty-node clickable" style="fill:rgb(255, 255, 255);stroke:rgb(48, 48, 48);"/><text class="clickable sprotty-label state" id="sprotty_fsm$keccak_st/state$StActive/label" transform="translate(6, 8) translate(30.203125, 19)" style="cursor:default;perspective-origin:0.0625px 0px;fill:rgb(48, 48, 48);text-anchor:middle;">StActive</text></g><g id="sprotty_fsm$keccak_st/state$StIdle_to_fsm$keccak_st/state$StPhase1" class="sprotty-edge transition" style="fill:none;stroke:rgb(48, 48, 48);stroke-linejoin:round;"><g><path d=" M166.10872395833334,136 C166.10872395833334,136 107.04505208333333,146 100.482421875,156"/><path d=" M166.10872395833334,136 C166.10872395833334,136 107.04505208333333,146 100.482421875,156" class="clickable"/></g><path d="M 100.482421875,156 L 107.482421875,153.5 L 107.482421875,158.5 Z" transform="rotate(-56.72459055498486 100.482421875 156)" class="arrow" style="fill:rgb(48, 48, 48);stroke-linejoin:miter;stroke-miterlimit:2;"/></g><g id="sprotty_fsm$keccak_st/state$StIdle_to_fsm$keccak_st/state$StActive" class="sprotty-edge transition" style="fill:none;stroke:rgb(48, 48, 48);stroke-linejoin:round;"><g><path d=" M179.94075520833334,136 C179.94075520833334,136 177.06731770833335,146 176.748046875,156"/><path d=" M179.94075520833334,136 C179.94075520833334,136 177.06731770833335,146 176.748046875,156" class="clickable"/></g><path d="M 176.748046875,156 L 183.748046875,153.5 L 183.748046875,158.5 Z" transform="rotate(-88.17133404732638 176.748046875 156)" class="arrow" style="fill:rgb(48, 48, 48);stroke-linejoin:miter;stroke-miterlimit:2;"/></g><g id="sprotty_fsm$keccak_st/state$StActive_to_fsm$keccak_st/state$StIdle" class="sprotty-edge transition" style="fill:none;stroke:rgb(48, 48, 48);stroke-linejoin:round;"><g><path d=" M200.93033854166669,156 C200.21458333333334,146 193.77278645833334,136 193.77278645833334,136"/><path d=" M200.93033854166669,156 C200.21458333333334,146 193.77278645833334,136 193.77278645833334,136" class="clickable"/></g><path d="M 193.77278645833334,136 L 200.77278645833334,133.5 L 200.77278645833334,138.5 Z" transform="rotate(57.21118814493099 193.77278645833334 136)" class="arrow" style="fill:rgb(48, 48, 48);stroke-linejoin:miter;stroke-miterlimit:2;"/></g><g id="sprotty_fsm$keccak_st/state$StPhase1_to_fsm$keccak_st/state$StPhase2" class="sprotty-edge transition" style="fill:none;stroke:rgb(48, 48, 48);stroke-linejoin:round;"><g><path d=" M86.94075520833334,196 C86.94075520833334,196 84.8716796875,206 66.25,216"/><path d=" M86.94075520833334,196 C86.94075520833334,196 84.8716796875,206 66.25,216" class="clickable"/></g><path d="M 66.25,216 L 73.25,213.5 L 73.25,218.5 Z" transform="rotate(-28.236175815457113 66.25 216)" class="arrow" style="fill:rgb(48, 48, 48);stroke-linejoin:miter;stroke-miterlimit:2;"/></g><g id="sprotty_fsm$keccak_st/state$StPhase2_to_fsm$keccak_st/state$StPhase3" class="sprotty-edge transition" style="fill:none;stroke:rgb(48, 48, 48);stroke-linejoin:round;"><g><path d=" M39.125,216 C22.39908854166667,206 22.399088541666657,201 22.399088541666643,190.1666666666667 C22.399088541666657,179.33333333333337 22.39908854166667,162.66666666666669 22.399088541666657,150.16666666666669 C22.399088541666657,137.66666666666669 22.399088541666686,129.33333333333331 22.3990885416667,121 C22.399088541666686,112.66666666666666 22.39908854166667,104.33333333333334 22.399088541666657,97.66666666666669 C22.399088541666657,91 22.39908854166667,86 37.74283854166667,76"/><path d=" M39.125,216 C22.39908854166667,206 22.399088541666657,201 22.399088541666643,190.1666666666667 C22.399088541666657,179.33333333333337 22.39908854166667,162.66666666666669 22.399088541666657,150.16666666666669 C22.399088541666657,137.66666666666669 22.399088541666686,129.33333333333331 22.3990885416667,121 C22.399088541666686,112.66666666666666 22.39908854166667,104.33333333333334 22.399088541666657,97.66666666666669 C22.399088541666657,91 22.39908854166667,86 37.74283854166667,76" class="clickable"/></g><path d="M 37.74283854166667,76 L 44.74283854166667,73.5 L 44.74283854166667,78.5 Z" transform="rotate(146.90645949916612 37.74283854166667 76)" class="arrow" style="fill:rgb(48, 48, 48);stroke-linejoin:miter;stroke-miterlimit:2;"/></g><g id="sprotty_fsm$keccak_st/state$StPhase3_to_fsm$keccak_st/state$StIdle" class="sprotty-edge transition" style="fill:none;stroke:rgb(48, 48, 48);stroke-linejoin:round;"><g><path d=" M78.36783854166667,76 C78.36783854166667,76 161.48424479166667,86 170.71940104166669,96"/><path d=" M78.36783854166667,76 C78.36783854166667,76 161.48424479166667,86 170.71940104166669,96" class="clickable"/></g><path d="M 170.71940104166669,96 L 177.71940104166669,93.5 L 177.71940104166669,98.5 Z" transform="rotate(-132.72295869925537 170.71940104166669 96)" class="arrow" style="fill:rgb(48, 48, 48);stroke-linejoin:miter;stroke-miterlimit:2;"/></g><g id="sprotty_fsm$keccak_st/state$StPhase3_to_fsm$keccak_st/state$StPhase1" class="sprotty-edge transition" style="fill:none;stroke:rgb(48, 48, 48);stroke-linejoin:round;"><g><path d=" M58.05533854166667,76 C73.39908854166667,86 73.39908854166667,91 73.39908854166667,97.66666666666667 C73.39908854166667,104.33333333333334 73.39908854166667,112.66666666666666 73.39908854166667,123.0833333333333 C73.39908854166667,133.5 73.39908854166667,146 73.39908854166667,156"/><path d=" M58.05533854166667,76 C73.39908854166667,86 73.39908854166667,91 73.39908854166667,97.66666666666667 C73.39908854166667,104.33333333333334 73.39908854166667,112.66666666666666 73.39908854166667,123.0833333333333 C73.39908854166667,133.5 73.39908854166667,146 73.39908854166667,156" class="clickable"/></g><path d="M 73.39908854166667,156 L 80.39908854166667,153.5 L 80.39908854166667,158.5 Z" transform="rotate(-90 73.39908854166667 156)" class="arrow" style="fill:rgb(48, 48, 48);stroke-linejoin:miter;stroke-miterlimit:2;"/></g><g id="sprotty_fsm$keccak_st/state$StError_to_fsm$keccak_st/state$StIdle" class="sprotty-edge transition" style="fill:none;stroke:rgb(48, 48, 48);stroke-linejoin:round;"><g><path d=" M189.162109375,76 C189.162109375,76 189.162109375,86 189.162109375,96"/><path d=" M189.162109375,76 C189.162109375,76 189.162109375,86 189.162109375,96" class="clickable"/></g><path d="M 189.162109375,96 L 196.162109375,93.5 L 196.162109375,98.5 Z" transform="rotate(-90 189.162109375 96)" class="arrow" style="fill:rgb(48, 48, 48);stroke-linejoin:miter;stroke-miterlimit:2;"/></g></g></g></svg>