<svg xmlns="http://www.w3.org/2000/svg" id="sprotty_root" class="sprotty-graph sprotty-state-machine statemachine" style="font-family:&quot;Noto Sans&quot;, Helvetica, Arial, sans-serif;perspective-origin:0px 0px;transform-origin:0px 0px;" version="1.1" viewBox="10 10 191.73697916666666 278" width="191.73697916666666" height="278"><g transform="scale(1) translate(0,0)"><g id="sprotty_fsm$data_st_q" transform="translate(15, 15)" class="statemachine"><g class="sprotty-block" style="fill:rgb(255, 255, 255);stroke:rgb(48, 48, 48);stroke-dasharray:0px;"><rect x="0" y="0" rx="1" ry="1" width="181.73697916666666" height="268"/><text x="90.86848958333333" y="12" class="sprotty-block-name" style="cursor:pointer;font-weight:700;perspective-origin:90.875px 0px;fill:rgb(48, 48, 48);stroke:rgba(0, 0, 0, 0);dominant-baseline:middle;text-anchor:middle;">data_st_q</text><line x1="0" y1="20" x2="181.73697916666666" y2="20"/></g><g id="sprotty_fsm$data_st_q/state$StCtrlDataWait" transform="translate(12, 216)" class="state"><ellipse cx="60.640625" cy="20" rx="60.640625" ry="20" class="sprotty-node clickable" style="fill:rgb(255, 255, 255);stroke:rgb(48, 48, 48);"/><text class="clickable sprotty-label state" id="sprotty_fsm$data_st_q/state$StCtrlDataWait/label" transform="translate(6, 8) translate(54.640625, 19)" style="cursor:default;perspective-origin:0px 0px;fill:rgb(48, 48, 48);text-anchor:middle;">StCtrlDataWait</text></g><g id="sprotty_fsm$data_st_q/state$StCtrlDataDis" transform="translate(58.70572916666666, 156)" class="state"><ellipse cx="55.515625" cy="20" rx="55.515625" ry="20" class="sprotty-node clickable" style="fill:rgb(255, 255, 255);stroke:rgb(48, 48, 48);"/><text class="clickable sprotty-label state" id="sprotty_fsm$data_st_q/state$StCtrlDataDis/label" transform="translate(6, 8) translate(49.515625, 19)" style="cursor:default;perspective-origin:0px 0px;fill:rgb(48, 48, 48);text-anchor:middle;">StCtrlDataDis</text></g><g id="sprotty_fsm$data_st_q/state$StCtrlDataIdle" transform="translate(23.736979166666664, 36)" class="state"><ellipse cx="58.15625" cy="20" rx="58.15625" ry="20" class="sprotty-node clickable" style="fill:rgb(255, 255, 255);stroke:rgb(48, 48, 48);"/><text class="clickable sprotty-label state" id="sprotty_fsm$data_st_q/state$StCtrlDataIdle/label" transform="translate(6, 8) translate(52.09375, 19)" style="cursor:default;perspective-origin:0.0625px 0px;fill:rgb(48, 48, 48);text-anchor:middle;">StCtrlDataIdle</text></g><g id="sprotty_fsm$data_st_q/state$StCtrlDataEn" transform="translate(28.736979166666664, 96)" class="state"><ellipse cx="53.65625" cy="20" rx="53.65625" ry="20" class="sprotty-node clickable" style="fill:rgb(255, 255, 255);stroke:rgb(48, 48, 48);"/><text class="clickable sprotty-label state" id="sprotty_fsm$data_st_q/state$StCtrlDataEn/label" transform="translate(6, 8) translate(47.65625, 19)" style="cursor:default;perspective-origin:0px 0px;fill:rgb(48, 48, 48);text-anchor:middle;">StCtrlDataEn</text></g><g id="sprotty_fsm$data_st_q/state$StCtrlDataIdle_to_fsm$data_st_q/state$StCtrlDataDis" class="sprotty-edge transition" style="fill:none;stroke:rgb(48, 48, 48);stroke-linejoin:round;"><g><path d=" M110.97135416666666,76 C146.04947916666666,86 146.04947916666666,91 146.04947916666666,96.83333333333333 C146.04947916666666,102.66666666666666 146.04947916666666,109.33333333333333 146.04947916666666,116 C146.04947916666666,122.66666666666666 146.04947916666666,129.33333333333331 146.04947916666666,135.16666666666666 C146.04947916666666,141 146.04947916666666,146 132.7265625,156"/><path d=" M110.97135416666666,76 C146.04947916666666,86 146.04947916666666,91 146.04947916666666,96.83333333333333 C146.04947916666666,102.66666666666666 146.04947916666666,109.33333333333333 146.04947916666666,116 C146.04947916666666,122.66666666666666 146.04947916666666,129.33333333333331 146.04947916666666,135.16666666666666 C146.04947916666666,141 146.04947916666666,146 132.7265625,156" class="clickable"/></g><path d="M 132.7265625,156 L 139.7265625,153.5 L 139.7265625,158.5 Z" transform="rotate(-36.89139431048561 132.7265625 156)" class="arrow" style="fill:rgb(48, 48, 48);stroke-linejoin:miter;stroke-miterlimit:2;"/></g><g id="sprotty_fsm$data_st_q/state$StCtrlDataIdle_to_fsm$data_st_q/state$StCtrlDataEn" class="sprotty-edge transition" style="fill:none;stroke:rgb(48, 48, 48);stroke-linejoin:round;"><g><path d=" M81.89322916666666,76 C81.89322916666666,76 82.34322916666667,86 82.39322916666666,96"/><path d=" M81.89322916666666,76 C81.89322916666666,76 82.34322916666667,86 82.39322916666666,96" class="clickable"/></g><path d="M 82.39322916666666,96 L 89.39322916666666,93.5 L 89.39322916666666,98.5 Z" transform="rotate(-90.28647651027698 82.39322916666666 96)" class="arrow" style="fill:rgb(48, 48, 48);stroke-linejoin:miter;stroke-miterlimit:2;"/></g><g id="sprotty_fsm$data_st_q/state$StCtrlDataEn_to_fsm$data_st_q/state$StCtrlDataDis" class="sprotty-edge transition" style="fill:none;stroke:rgb(48, 48, 48);stroke-linejoin:round;"><g><path d=" M82.39322916666666,136 C82.39322916666666,136 83.72552083333333,146 95.71614583333333,156"/><path d=" M82.39322916666666,136 C82.39322916666666,136 83.72552083333333,146 95.71614583333333,156" class="clickable"/></g><path d="M 95.71614583333333,156 L 102.71614583333333,153.5 L 102.71614583333333,158.5 Z" transform="rotate(-140.1724044945739 95.71614583333333 156)" class="arrow" style="fill:rgb(48, 48, 48);stroke-linejoin:miter;stroke-miterlimit:2;"/></g><g id="sprotty_fsm$data_st_q/state$StCtrlDataDis_to_fsm$data_st_q/state$StCtrlDataWait" class="sprotty-edge transition" style="fill:none;stroke:rgb(48, 48, 48);stroke-linejoin:round;"><g><path d=" M114.22135416666666,196 C114.22135416666666,196 112.08463541666666,206 92.85416666666666,216"/><path d=" M114.22135416666666,196 C114.22135416666666,196 112.08463541666666,206 92.85416666666666,216" class="clickable"/></g><path d="M 92.85416666666666,216 L 99.85416666666666,213.5 L 99.85416666666666,218.5 Z" transform="rotate(-27.474798073013805 92.85416666666666 216)" class="arrow" style="fill:rgb(48, 48, 48);stroke-linejoin:miter;stroke-miterlimit:2;"/></g><g id="sprotty_fsm$data_st_q/state$StCtrlDataWait_to_fsm$data_st_q/state$StCtrlDataIdle" class="sprotty-edge transition" style="fill:none;stroke:rgb(48, 48, 48);stroke-linejoin:round;"><g><path d=" M52.42708333333333,216 C17.736979166666664,206 17.736979166666664,201 17.736979166666664,190.1666666666667 C17.736979166666664,179.33333333333337 17.736979166666664,162.66666666666669 17.736979166666664,150.16666666666669 C17.736979166666664,137.66666666666669 17.736979166666664,129.33333333333331 17.736979166666664,121 C17.736979166666664,112.66666666666666 17.736979166666664,104.33333333333334 17.736979166666664,97.66666666666669 C17.736979166666664,91 17.736979166666664,86 52.815104166666664,76"/><path d=" M52.42708333333333,216 C17.736979166666664,206 17.736979166666664,201 17.736979166666664,190.1666666666667 C17.736979166666664,179.33333333333337 17.736979166666664,162.66666666666669 17.736979166666664,150.16666666666669 C17.736979166666664,137.66666666666669 17.736979166666664,129.33333333333331 17.736979166666664,121 C17.736979166666664,112.66666666666666 17.736979166666664,104.33333333333334 17.736979166666664,97.66666666666669 C17.736979166666664,91 17.736979166666664,86 52.815104166666664,76" class="clickable"/></g><path d="M 52.815104166666664,76 L 59.815104166666664,73.5 L 59.815104166666664,78.5 Z" transform="rotate(164.08831741058094 52.815104166666664 76)" class="arrow" style="fill:rgb(48, 48, 48);stroke-linejoin:miter;stroke-miterlimit:2;"/></g></g></g></svg>