<svg xmlns="http://www.w3.org/2000/svg" id="sprotty_root" class="sprotty-graph sprotty-state-machine statemachine" style="font-family:&quot;Noto Sans&quot;, Helvetica, Arial, sans-serif;perspective-origin:0px 0px;transform-origin:0px 0px;" version="1.1" viewBox="10 10 391.40625 638" width="391.40625" height="638"><g transform="scale(1) translate(0,0)"><g id="sprotty_fsm$state_q" transform="translate(15, 15)" class="statemachine"><g class="sprotty-block" style="fill:rgb(255, 255, 255);stroke:rgb(48, 48, 48);stroke-dasharray:0px;"><rect x="0" y="0" rx="1" ry="1" width="381.40625" height="628"/><text x="190.703125" y="12" class="sprotty-block-name" style="cursor:pointer;font-weight:700;perspective-origin:190.703px 0px;fill:rgb(48, 48, 48);stroke:rgba(0, 0, 0, 0);dominant-baseline:middle;text-anchor:middle;">state_q</text><line x1="0" y1="20" x2="381.40625" y2="20"/></g><g id="sprotty_fsm$state_q/state$StCtrlReset" transform="translate(143.328125, 36)" class="state"><ellipse cx="47.375" cy="20" rx="47.375" ry="20" class="sprotty-node clickable" style="fill:rgb(255, 255, 255);stroke:rgb(48, 48, 48);"/><text class="clickable sprotty-label state" id="sprotty_fsm$state_q/state$StCtrlReset/label" transform="translate(6, 8) translate(41.375, 19)" style="cursor:default;perspective-origin:0px 0px;fill:rgb(48, 48, 48);text-anchor:middle;">StCtrlReset</text></g><g id="sprotty_fsm$state_q/state$StCtrlDisabled" transform="translate(30.979166666666686, 516)" class="state"><ellipse cx="59.421875" cy="20" rx="59.421875" ry="20" class="sprotty-node clickable" style="fill:rgb(255, 255, 255);stroke:rgb(48, 48, 48);"/><text class="clickable sprotty-label state" id="sprotty_fsm$state_q/state$StCtrlDisabled/label" transform="translate(6, 8) translate(53.421875, 19)" style="cursor:default;perspective-origin:0px 0px;fill:rgb(48, 48, 48);text-anchor:middle;">StCtrlDisabled</text></g><g id="sprotty_fsm$state_q/state$StCtrlEntropyReseed" transform="translate(107.296875, 96)" class="state"><ellipse cx="83.40625" cy="20" rx="83.40625" ry="20" class="sprotty-node clickable" style="fill:rgb(255, 255, 255);stroke:rgb(48, 48, 48);"/><text class="clickable sprotty-label state" id="sprotty_fsm$state_q/state$StCtrlEntropyReseed/label" transform="translate(6, 8) translate(77.40625, 19)" style="cursor:default;perspective-origin:0px 0px;fill:rgb(48, 48, 48);text-anchor:middle;">StCtrlEntropyReseed</text></g><g id="sprotty_fsm$state_q/state$StCtrlOwnerIntKey" transform="translate(114.7578125, 396)" class="state"><ellipse cx="75.9453125" cy="20" rx="75.9453125" ry="20" class="sprotty-node clickable" style="fill:rgb(255, 255, 255);stroke:rgb(48, 48, 48);"/><text class="clickable sprotty-label state" id="sprotty_fsm$state_q/state$StCtrlOwnerIntKey/label" transform="translate(6, 8) translate(69.609375, 19)" style="cursor:default;perspective-origin:0.328125px 0px;fill:rgb(48, 48, 48);text-anchor:middle;">StCtrlOwnerIntKey</text></g><g id="sprotty_fsm$state_q/state$StCtrlWipe" transform="translate(246.7203125, 516)" class="state"><ellipse cx="45.53125" cy="20" rx="45.53125" ry="20" class="sprotty-node clickable" style="fill:rgb(255, 255, 255);stroke:rgb(48, 48, 48);"/><text class="clickable sprotty-label state" id="sprotty_fsm$state_q/state$StCtrlWipe/label" transform="translate(6, 8) translate(39.46875, 19)" style="cursor:default;perspective-origin:0.0625px 0px;fill:rgb(48, 48, 48);text-anchor:middle;">StCtrlWipe</text></g><g id="sprotty_fsm$state_q/state$StCtrlInvalid" transform="translate(240.2203125, 576)" class="state"><ellipse cx="52.03125" cy="20" rx="52.03125" ry="20" class="sprotty-node clickable" style="fill:rgb(255, 255, 255);stroke:rgb(48, 48, 48);"/><text class="clickable sprotty-label state" id="sprotty_fsm$state_q/state$StCtrlInvalid/label" transform="translate(6, 8) translate(46.03125, 19)" style="cursor:default;perspective-origin:0px 0px;fill:rgb(48, 48, 48);text-anchor:middle;">StCtrlInvalid</text></g><g id="sprotty_fsm$state_q/state$StCtrlRandom" transform="translate(132.1875, 156)" class="state"><ellipse cx="58.515625" cy="20" rx="58.515625" ry="20" class="sprotty-node clickable" style="fill:rgb(255, 255, 255);stroke:rgb(48, 48, 48);"/><text class="clickable sprotty-label state" id="sprotty_fsm$state_q/state$StCtrlRandom/label" transform="translate(6, 8) translate(52.515625, 19)" style="cursor:default;perspective-origin:0px 0px;fill:rgb(48, 48, 48);text-anchor:middle;">StCtrlRandom</text></g><g id="sprotty_fsm$state_q/state$StCtrlInit" transform="translate(151.40625, 276)" class="state"><ellipse cx="39.296875" cy="20" rx="39.296875" ry="20" class="sprotty-node clickable" style="fill:rgb(255, 255, 255);stroke:rgb(48, 48, 48);"/><text class="clickable sprotty-label state" id="sprotty_fsm$state_q/state$StCtrlInit/label" transform="translate(6, 8) translate(33.296875, 19)" style="cursor:default;perspective-origin:0px 0px;fill:rgb(48, 48, 48);text-anchor:middle;">StCtrlInit</text></g><g id="sprotty_fsm$state_q/state$StCtrlCreatorRootKey" transform="translate(104.5625, 336)" class="state"><ellipse cx="86.140625" cy="20" rx="86.140625" ry="20" class="sprotty-node clickable" style="fill:rgb(255, 255, 255);stroke:rgb(48, 48, 48);"/><text class="clickable sprotty-label state" id="sprotty_fsm$state_q/state$StCtrlCreatorRootKey/label" transform="translate(6, 8) translate(79.8125, 19)" style="cursor:default;perspective-origin:0.328125px 0px;fill:rgb(48, 48, 48);text-anchor:middle;">StCtrlCreatorRootKey</text></g><g id="sprotty_fsm$state_q/state$StCtrlOwnerKey" transform="translate(125, 456)" class="state"><ellipse cx="65.703125" cy="20" rx="65.703125" ry="20" class="sprotty-node clickable" style="fill:rgb(255, 255, 255);stroke:rgb(48, 48, 48);"/><text class="clickable sprotty-label state" id="sprotty_fsm$state_q/state$StCtrlOwnerKey/label" transform="translate(6, 8) translate(59.375, 19)" style="cursor:default;perspective-origin:0.328125px 0px;fill:rgb(48, 48, 48);text-anchor:middle;">StCtrlOwnerKey</text></g><g id="sprotty_fsm$state_q/state$StCtrlRootKey" transform="translate(132.2265625, 216)" class="state"><ellipse cx="58.4765625" cy="20" rx="58.4765625" ry="20" class="sprotty-node clickable" style="fill:rgb(255, 255, 255);stroke:rgb(48, 48, 48);"/><text class="clickable sprotty-label state" id="sprotty_fsm$state_q/state$StCtrlRootKey/label" transform="translate(6, 8) translate(52.140625, 19)" style="cursor:default;perspective-origin:0.328125px 0px;fill:rgb(48, 48, 48);text-anchor:middle;">StCtrlRootKey</text></g><g id="sprotty_fsm$state_q/state$StCtrlReset_to_fsm$state_q/state$StCtrlEntropyReseed" class="sprotty-edge transition" style="fill:none;stroke:rgb(48, 48, 48);stroke-linejoin:round;"><g><path d=" M190.703125,76 C190.703125,76 190.703125,86 190.703125,96"/><path d=" M190.703125,76 C190.703125,76 190.703125,86 190.703125,96" class="clickable"/></g><path d="M 190.703125,96 L 197.703125,93.5 L 197.703125,98.5 Z" transform="rotate(-90 190.703125 96)" class="arrow" style="fill:rgb(48, 48, 48);stroke-linejoin:miter;stroke-miterlimit:2;"/></g><g id="sprotty_fsm$state_q/state$StCtrlEntropyReseed_to_fsm$state_q/state$StCtrlRandom" class="sprotty-edge transition" style="fill:none;stroke:rgb(48, 48, 48);stroke-linejoin:round;"><g><path d=" M190.703125,136 C190.703125,136 190.703125,146 190.703125,156"/><path d=" M190.703125,136 C190.703125,136 190.703125,146 190.703125,156" class="clickable"/></g><path d="M 190.703125,156 L 197.703125,153.5 L 197.703125,158.5 Z" transform="rotate(-90 190.703125 156)" class="arrow" style="fill:rgb(48, 48, 48);stroke-linejoin:miter;stroke-miterlimit:2;"/></g><g id="sprotty_fsm$state_q/state$StCtrlRandom_to_fsm$state_q/state$StCtrlRootKey" class="sprotty-edge transition" style="fill:none;stroke:rgb(48, 48, 48);stroke-linejoin:round;"><g><path d=" M190.703125,196 C190.703125,196 190.703125,206 190.703125,216"/><path d=" M190.703125,196 C190.703125,196 190.703125,206 190.703125,216" class="clickable"/></g><path d="M 190.703125,216 L 197.703125,213.5 L 197.703125,218.5 Z" transform="rotate(-90 190.703125 216)" class="arrow" style="fill:rgb(48, 48, 48);stroke-linejoin:miter;stroke-miterlimit:2;"/></g><g id="sprotty_fsm$state_q/state$StCtrlRootKey_to_fsm$state_q/state$StCtrlInit" class="sprotty-edge transition" style="fill:none;stroke:rgb(48, 48, 48);stroke-linejoin:round;"><g><path d=" M190.703125,256 C190.703125,256 190.703125,266 190.703125,276"/><path d=" M190.703125,256 C190.703125,256 190.703125,266 190.703125,276" class="clickable"/></g><path d="M 190.703125,276 L 197.703125,273.5 L 197.703125,278.5 Z" transform="rotate(-90 190.703125 276)" class="arrow" style="fill:rgb(48, 48, 48);stroke-linejoin:miter;stroke-miterlimit:2;"/></g><g id="sprotty_fsm$state_q/state$StCtrlInit_to_fsm$state_q/state$StCtrlWipe" class="sprotty-edge transition" style="fill:none;stroke:rgb(48, 48, 48);stroke-linejoin:round;"><g><path d=" M210.3515625,316 C368.40625,326 368.40625,331 368.40625,337.6666666666667 C368.40625,344.33333333333337 368.40625,352.6666666666667 368.40625,361 C368.40625,369.3333333333333 368.40625,377.6666666666667 368.40625,391.8333333333333 C368.40625,406 368.40625,426 368.40625,440.16666666666663 C368.40625,454.3333333333333 368.40625,462.66666666666663 368.40625,470.99999999999994 C368.40625,479.33333333333326 368.40625,487.66666666666663 368.40625,494.33333333333326 C368.40625,500.9999999999999 368.40625,506 319.5703125,516"/><path d=" M210.3515625,316 C368.40625,326 368.40625,331 368.40625,337.6666666666667 C368.40625,344.33333333333337 368.40625,352.6666666666667 368.40625,361 C368.40625,369.3333333333333 368.40625,377.6666666666667 368.40625,391.8333333333333 C368.40625,406 368.40625,426 368.40625,440.16666666666663 C368.40625,454.3333333333333 368.40625,462.66666666666663 368.40625,470.99999999999994 C368.40625,479.33333333333326 368.40625,487.66666666666663 368.40625,494.33333333333326 C368.40625,500.9999999999999 368.40625,506 319.5703125,516" class="clickable"/></g><path d="M 319.5703125,516 L 326.5703125,513.5 L 326.5703125,518.5 Z" transform="rotate(-11.57232717093469 319.5703125 516)" class="arrow" style="fill:rgb(48, 48, 48);stroke-linejoin:miter;stroke-miterlimit:2;"/></g><g id="sprotty_fsm$state_q/state$StCtrlInit_to_fsm$state_q/state$StCtrlDisabled" class="sprotty-edge transition" style="fill:none;stroke:rgb(48, 48, 48);stroke-linejoin:round;"><g><path d=" M171.0546875,316 C12,326 12.000000000000057,331 12.000000000000114,337.6666666666667 C12,344.33333333333337 12.000000000000057,352.6666666666667 12.000000000000114,361 C12,369.3333333333333 12.000000000000057,377.6666666666667 12.000000000000114,391.8333333333333 C12.000000000000057,406 12,426 12,440.16666666666663 C12,454.3333333333333 12.000000000000057,462.66666666666663 12.000000000000114,470.99999999999994 C12.000000000000057,479.33333333333326 12.000000000000114,487.66666666666663 12.000000000000114,494.33333333333326 C12.000000000000057,500.9999999999999 12,506 54.74791666666668,516"/><path d=" M171.0546875,316 C12,326 12.000000000000057,331 12.000000000000114,337.6666666666667 C12,344.33333333333337 12.000000000000057,352.6666666666667 12.000000000000114,361 C12,369.3333333333333 12.000000000000057,377.6666666666667 12.000000000000114,391.8333333333333 C12.000000000000057,406 12,426 12,440.16666666666663 C12,454.3333333333333 12.000000000000057,462.66666666666663 12.000000000000114,470.99999999999994 C12.000000000000057,479.33333333333326 12.000000000000114,487.66666666666663 12.000000000000114,494.33333333333326 C12.000000000000057,500.9999999999999 12,506 54.74791666666668,516" class="clickable"/></g><path d="M 54.74791666666668,516 L 61.74791666666668,513.5 L 61.74791666666668,518.5 Z" transform="rotate(-166.83358625709073 54.74791666666668 516)" class="arrow" style="fill:rgb(48, 48, 48);stroke-linejoin:miter;stroke-miterlimit:2;"/></g><g id="sprotty_fsm$state_q/state$StCtrlInit_to_fsm$state_q/state$StCtrlCreatorRootKey" class="sprotty-edge transition" style="fill:none;stroke:rgb(48, 48, 48);stroke-linejoin:round;"><g><path d=" M190.703125,316 C190.703125,316 190.703125,326 190.703125,336"/><path d=" M190.703125,316 C190.703125,316 190.703125,326 190.703125,336" class="clickable"/></g><path d="M 190.703125,336 L 197.703125,333.5 L 197.703125,338.5 Z" transform="rotate(-90 190.703125 336)" class="arrow" style="fill:rgb(48, 48, 48);stroke-linejoin:miter;stroke-miterlimit:2;"/></g><g id="sprotty_fsm$state_q/state$StCtrlCreatorRootKey_to_fsm$state_q/state$StCtrlWipe" class="sprotty-edge transition" style="fill:none;stroke:rgb(48, 48, 48);stroke-linejoin:round;"><g><path d=" M233.7734375,376 C317.40625,386 317.40625,391 317.40625,397.66666666666674 C317.40625,404.33333333333337 317.40625,412.66666666666663 317.40625,421 C317.40625,429.3333333333333 317.40625,437.66666666666674 317.40625,450.16666666666674 C317.40625,462.6666666666667 317.40625,479.33333333333337 317.40625,490.16666666666674 C317.40625,501 317.40625,506 301.3578125,516"/><path d=" M233.7734375,376 C317.40625,386 317.40625,391 317.40625,397.66666666666674 C317.40625,404.33333333333337 317.40625,412.66666666666663 317.40625,421 C317.40625,429.3333333333333 317.40625,437.66666666666674 317.40625,450.16666666666674 C317.40625,462.6666666666667 317.40625,479.33333333333337 317.40625,490.16666666666674 C317.40625,501 317.40625,506 301.3578125,516" class="clickable"/></g><path d="M 301.3578125,516 L 308.3578125,513.5 L 308.3578125,518.5 Z" transform="rotate(-31.92759573376398 301.3578125 516)" class="arrow" style="fill:rgb(48, 48, 48);stroke-linejoin:miter;stroke-miterlimit:2;"/></g><g id="sprotty_fsm$state_q/state$StCtrlCreatorRootKey_to_fsm$state_q/state$StCtrlDisabled" class="sprotty-edge transition" style="fill:none;stroke:rgb(48, 48, 48);stroke-linejoin:round;"><g><path d=" M147.6328125,376 C63,386 63,391 63.00000000000003,397.66666666666674 C63.00000000000003,404.33333333333337 63.00000000000003,412.66666666666663 63.00000000000003,421 C63,429.3333333333333 63,437.66666666666674 63,450.16666666666674 C63.00000000000003,462.6666666666667 63,479.33333333333337 63,490.16666666666674 C63,501 63,506 78.51666666666668,516"/><path d=" M147.6328125,376 C63,386 63,391 63.00000000000003,397.66666666666674 C63.00000000000003,404.33333333333337 63.00000000000003,412.66666666666663 63.00000000000003,421 C63,429.3333333333333 63,437.66666666666674 63,450.16666666666674 C63.00000000000003,462.6666666666667 63,479.33333333333337 63,490.16666666666674 C63,501 63,506 78.51666666666668,516" class="clickable"/></g><path d="M 78.51666666666668,516 L 85.51666666666668,513.5 L 85.51666666666668,518.5 Z" transform="rotate(-147.19950244389136 78.51666666666668 516)" class="arrow" style="fill:rgb(48, 48, 48);stroke-linejoin:miter;stroke-miterlimit:2;"/></g><g id="sprotty_fsm$state_q/state$StCtrlCreatorRootKey_to_fsm$state_q/state$StCtrlOwnerIntKey" class="sprotty-edge transition" style="fill:none;stroke:rgb(48, 48, 48);stroke-linejoin:round;"><g><path d=" M190.703125,376 C190.703125,376 190.703125,386 190.703125,396"/><path d=" M190.703125,376 C190.703125,376 190.703125,386 190.703125,396" class="clickable"/></g><path d="M 190.703125,396 L 197.703125,393.5 L 197.703125,398.5 Z" transform="rotate(-90 190.703125 396)" class="arrow" style="fill:rgb(48, 48, 48);stroke-linejoin:miter;stroke-miterlimit:2;"/></g><g id="sprotty_fsm$state_q/state$StCtrlOwnerIntKey_to_fsm$state_q/state$StCtrlWipe" class="sprotty-edge transition" style="fill:none;stroke:rgb(48, 48, 48);stroke-linejoin:round;"><g><path d=" M228.67578125,436 C266.40625,446 266.40625,451 266.40625,456.8333333333333 C266.40625,462.66666666666663 266.40625,469.3333333333333 266.40625,476 C266.40625,482.66666666666663 266.40625,489.3333333333333 266.40625,495.16666666666663 C266.40625,501 266.40625,506 283.1453125,516"/><path d=" M228.67578125,436 C266.40625,446 266.40625,451 266.40625,456.8333333333333 C266.40625,462.66666666666663 266.40625,469.3333333333333 266.40625,476 C266.40625,482.66666666666663 266.40625,489.3333333333333 266.40625,495.16666666666663 C266.40625,501 266.40625,506 283.1453125,516" class="clickable"/></g><path d="M 283.1453125,516 L 290.1453125,513.5 L 290.1453125,518.5 Z" transform="rotate(-149.14569311631627 283.1453125 516)" class="arrow" style="fill:rgb(48, 48, 48);stroke-linejoin:miter;stroke-miterlimit:2;"/></g><g id="sprotty_fsm$state_q/state$StCtrlOwnerIntKey_to_fsm$state_q/state$StCtrlDisabled" class="sprotty-edge transition" style="fill:none;stroke:rgb(48, 48, 48);stroke-linejoin:round;"><g><path d=" M152.73046875,436 C114,446 114,451 114,456.8333333333333 C114,462.66666666666663 114,469.3333333333333 114,476 C114,482.66666666666663 114,489.3333333333333 114,495.16666666666663 C114,501 114,506 102.28541666666669,516"/><path d=" M152.73046875,436 C114,446 114,451 114,456.8333333333333 C114,462.66666666666663 114,469.3333333333333 114,476 C114,482.66666666666663 114,489.3333333333333 114,495.16666666666663 C114,501 114,506 102.28541666666669,516" class="clickable"/></g><path d="M 102.28541666666669,516 L 109.28541666666669,513.5 L 109.28541666666669,518.5 Z" transform="rotate(-40.48529272646935 102.28541666666669 516)" class="arrow" style="fill:rgb(48, 48, 48);stroke-linejoin:miter;stroke-miterlimit:2;"/></g><g id="sprotty_fsm$state_q/state$StCtrlOwnerIntKey_to_fsm$state_q/state$StCtrlOwnerKey" class="sprotty-edge transition" style="fill:none;stroke:rgb(48, 48, 48);stroke-linejoin:round;"><g><path d=" M190.703125,436 C190.703125,436 190.703125,446 190.703125,456"/><path d=" M190.703125,436 C190.703125,436 190.703125,446 190.703125,456" class="clickable"/></g><path d="M 190.703125,456 L 197.703125,453.5 L 197.703125,458.5 Z" transform="rotate(-90 190.703125 456)" class="arrow" style="fill:rgb(48, 48, 48);stroke-linejoin:miter;stroke-miterlimit:2;"/></g><g id="sprotty_fsm$state_q/state$StCtrlOwnerKey_to_fsm$state_q/state$StCtrlWipe" class="sprotty-edge transition" style="fill:none;stroke:rgb(48, 48, 48);stroke-linejoin:round;"><g><path d=" M212.60416666666669,496 C212.60416666666669,496 217.83703125,506 264.9328125,516"/><path d=" M212.60416666666669,496 C212.60416666666669,496 217.83703125,506 264.9328125,516" class="clickable"/></g><path d="M 264.9328125,516 L 271.9328125,513.5 L 271.9328125,518.5 Z" transform="rotate(-168.01224262937214 264.9328125 516)" class="arrow" style="fill:rgb(48, 48, 48);stroke-linejoin:miter;stroke-miterlimit:2;"/></g><g id="sprotty_fsm$state_q/state$StCtrlOwnerKey_to_fsm$state_q/state$StCtrlDisabled" class="sprotty-edge transition" style="fill:none;stroke:rgb(48, 48, 48);stroke-linejoin:round;"><g><path d=" M168.80208333333334,496 C168.80208333333334,496 164.52729166666668,506 126.05416666666669,516"/><path d=" M168.80208333333334,496 C168.80208333333334,496 164.52729166666668,506 126.05416666666669,516" class="clickable"/></g><path d="M 126.05416666666669,516 L 133.05416666666667,513.5 L 133.05416666666667,518.5 Z" transform="rotate(-14.570013850750247 126.05416666666669 516)" class="arrow" style="fill:rgb(48, 48, 48);stroke-linejoin:miter;stroke-miterlimit:2;"/></g><g id="sprotty_fsm$state_q/state$StCtrlWipe_to_fsm$state_q/state$StCtrlInvalid" class="sprotty-edge transition" style="fill:none;stroke:rgb(48, 48, 48);stroke-linejoin:round;"><g><path d=" M292.2515625,556 C292.2515625,556 292.2515625,566 292.2515625,576"/><path d=" M292.2515625,556 C292.2515625,556 292.2515625,566 292.2515625,576" class="clickable"/></g><path d="M 292.2515625,576 L 299.2515625,573.5 L 299.2515625,578.5 Z" transform="rotate(-90 292.2515625 576)" class="arrow" style="fill:rgb(48, 48, 48);stroke-linejoin:miter;stroke-miterlimit:2;"/></g></g></g></svg>