<svg xmlns="http://www.w3.org/2000/svg" id="sprotty_root" class="sprotty-graph sprotty-state-machine statemachine" style="font-family:&quot;Noto Sans&quot;, Helvetica, Arial, sans-serif;perspective-origin:0px 0px;transform-origin:0px 0px;" version="1.1" viewBox="10 10 203.296875 338" width="203.296875" height="338"><g transform="scale(1) translate(0,0)"><g id="sprotty_fsm$state_q" transform="translate(15, 15)" class="statemachine"><g class="sprotty-block" style="fill:rgb(255, 255, 255);stroke:rgb(48, 48, 48);stroke-dasharray:0px;"><rect x="0" y="0" rx="1" ry="1" width="193.296875" height="328"/><text x="96.6484375" y="12" class="sprotty-block-name" style="cursor:pointer;font-weight:700;perspective-origin:96.6406px 0px;fill:rgb(48, 48, 48);stroke:rgba(0, 0, 0, 0);dominant-baseline:middle;text-anchor:middle;">state_q</text><line x1="0" y1="20" x2="193.296875" y2="20"/></g><g id="sprotty_fsm$state_q/state$StSideloadClear" transform="translate(12, 156)" class="state"><ellipse cx="66.125" cy="20" rx="66.125" ry="20" class="sprotty-node clickable" style="fill:rgb(255, 255, 255);stroke:rgb(48, 48, 48);"/><text class="clickable sprotty-label state" id="sprotty_fsm$state_q/state$StSideloadClear/label" transform="translate(6, 8) translate(59.734375, 19)" style="cursor:default;perspective-origin:0.390625px 0px;fill:rgb(48, 48, 48);text-anchor:middle;">StSideloadClear</text></g><g id="sprotty_fsm$state_q/state$StSideloadWipe" transform="translate(51.078125, 216)" class="state"><ellipse cx="65.109375" cy="20" rx="65.109375" ry="20" class="sprotty-node clickable" style="fill:rgb(255, 255, 255);stroke:rgb(48, 48, 48);"/><text class="clickable sprotty-label state" id="sprotty_fsm$state_q/state$StSideloadWipe/label" transform="translate(6, 8) translate(59.046875, 19)" style="cursor:default;perspective-origin:0.0625px 0px;fill:rgb(48, 48, 48);text-anchor:middle;">StSideloadWipe</text></g><g id="sprotty_fsm$state_q/state$StSideloadIdle" transform="translate(44.65885416666667, 96)" class="state"><ellipse cx="60.5078125" cy="20" rx="60.5078125" ry="20" class="sprotty-node clickable" style="fill:rgb(255, 255, 255);stroke:rgb(48, 48, 48);"/><text class="clickable sprotty-label state" id="sprotty_fsm$state_q/state$StSideloadIdle/label" transform="translate(6, 8) translate(54.4375, 19)" style="cursor:default;perspective-origin:0.0625px 0px;fill:rgb(48, 48, 48);text-anchor:middle;">StSideloadIdle</text></g><g id="sprotty_fsm$state_q/state$StSideloadReset" transform="translate(38.21354166666667, 36)" class="state"><ellipse cx="66.953125" cy="20" rx="66.953125" ry="20" class="sprotty-node clickable" style="fill:rgb(255, 255, 255);stroke:rgb(48, 48, 48);"/><text class="clickable sprotty-label state" id="sprotty_fsm$state_q/state$StSideloadReset/label" transform="translate(6, 8) translate(60.953125, 19)" style="cursor:default;perspective-origin:0px 0px;fill:rgb(48, 48, 48);text-anchor:middle;">StSideloadReset</text></g><g id="sprotty_fsm$state_q/state$StSideloadStop" transform="translate(52.4609375, 276)" class="state"><ellipse cx="63.7265625" cy="20" rx="63.7265625" ry="20" class="sprotty-node clickable" style="fill:rgb(255, 255, 255);stroke:rgb(48, 48, 48);"/><text class="clickable sprotty-label state" id="sprotty_fsm$state_q/state$StSideloadStop/label" transform="translate(6, 8) translate(57.6875, 19)" style="cursor:default;perspective-origin:0.03125px 0px;fill:rgb(48, 48, 48);text-anchor:middle;">StSideloadStop</text></g><g id="sprotty_fsm$state_q/state$StSideloadReset_to_fsm$state_q/state$StSideloadIdle" class="sprotty-edge transition" style="fill:none;stroke:rgb(48, 48, 48);stroke-linejoin:round;"><g><path d=" M105.16666666666667,76 C105.16666666666667,76 105.16666666666667,86 105.16666666666667,96"/><path d=" M105.16666666666667,76 C105.16666666666667,76 105.16666666666667,86 105.16666666666667,96" class="clickable"/></g><path d="M 105.16666666666667,96 L 112.16666666666667,93.5 L 112.16666666666667,98.5 Z" transform="rotate(-90 105.16666666666667 96)" class="arrow" style="fill:rgb(48, 48, 48);stroke-linejoin:miter;stroke-miterlimit:2;"/></g><g id="sprotty_fsm$state_q/state$StSideloadIdle_to_fsm$state_q/state$StSideloadWipe" class="sprotty-edge transition" style="fill:none;stroke:rgb(48, 48, 48);stroke-linejoin:round;"><g><path d=" M135.42057291666669,136 C154.25,146 154.25,151 154.25,156.83333333333331 C154.25,162.66666666666666 154.25,169.33333333333331 154.25,176 C154.25,182.66666666666666 154.25,189.33333333333331 154.25,195.16666666666666 C154.25,201 154.25,206 137.890625,216"/><path d=" M135.42057291666669,136 C154.25,146 154.25,151 154.25,156.83333333333331 C154.25,162.66666666666666 154.25,169.33333333333331 154.25,176 C154.25,182.66666666666666 154.25,189.33333333333331 154.25,195.16666666666666 C154.25,201 154.25,206 137.890625,216" class="clickable"/></g><path d="M 137.890625,216 L 144.890625,213.5 L 144.890625,218.5 Z" transform="rotate(-31.43620578086532 137.890625 216)" class="arrow" style="fill:rgb(48, 48, 48);stroke-linejoin:miter;stroke-miterlimit:2;"/></g><g id="sprotty_fsm$state_q/state$StSideloadIdle_to_fsm$state_q/state$StSideloadClear" class="sprotty-edge transition" style="fill:none;stroke:rgb(48, 48, 48);stroke-linejoin:round;"><g><path d=" M105.16666666666667,136 C105.16666666666667,136 100.66666666666667,146 100.16666666666667,156"/><path d=" M105.16666666666667,136 C105.16666666666667,136 100.66666666666667,146 100.16666666666667,156" class="clickable"/></g><path d="M 100.16666666666667,156 L 107.16666666666667,153.5 L 107.16666666666667,158.5 Z" transform="rotate(-87.13759477388825 100.16666666666667 156)" class="arrow" style="fill:rgb(48, 48, 48);stroke-linejoin:miter;stroke-miterlimit:2;"/></g><g id="sprotty_fsm$state_q/state$StSideloadClear_to_fsm$state_q/state$StSideloadWipe" class="sprotty-edge transition" style="fill:none;stroke:rgb(48, 48, 48);stroke-linejoin:round;"><g><path d=" M78.125,196 C78.125,196 79.7609375,206 94.484375,216"/><path d=" M78.125,196 C78.125,196 79.7609375,206 94.484375,216" class="clickable"/></g><path d="M 94.484375,216 L 101.484375,213.5 L 101.484375,218.5 Z" transform="rotate(-145.81607570499241 94.484375 216)" class="arrow" style="fill:rgb(48, 48, 48);stroke-linejoin:miter;stroke-miterlimit:2;"/></g><g id="sprotty_fsm$state_q/state$StSideloadClear_to_fsm$state_q/state$StSideloadIdle" class="sprotty-edge transition" style="fill:none;stroke:rgb(48, 48, 48);stroke-linejoin:round;"><g><path d=" M56.083333333333336,156 C57.96627604166667,146 74.91276041666667,136 74.91276041666667,136"/><path d=" M56.083333333333336,156 C57.96627604166667,146 74.91276041666667,136 74.91276041666667,136" class="clickable"/></g><path d="M 74.91276041666667,136 L 81.91276041666667,133.5 L 81.91276041666667,138.5 Z" transform="rotate(149.45544723042056 74.91276041666667 136)" class="arrow" style="fill:rgb(48, 48, 48);stroke-linejoin:miter;stroke-miterlimit:2;"/></g><g id="sprotty_fsm$state_q/state$StSideloadWipe_to_fsm$state_q/state$StSideloadStop" class="sprotty-edge transition" style="fill:none;stroke:rgb(48, 48, 48);stroke-linejoin:round;"><g><path d=" M116.1875,256 C116.1875,256 116.1875,266 116.1875,276"/><path d=" M116.1875,256 C116.1875,256 116.1875,266 116.1875,276" class="clickable"/></g><path d="M 116.1875,276 L 123.1875,273.5 L 123.1875,278.5 Z" transform="rotate(-90 116.1875 276)" class="arrow" style="fill:rgb(48, 48, 48);stroke-linejoin:miter;stroke-miterlimit:2;"/></g></g></g></svg>