<svg xmlns="http://www.w3.org/2000/svg" id="sprotty_root" class="sprotty-graph sprotty-state-machine statemachine" style="font-family:&quot;Noto Sans&quot;, Helvetica, Arial, sans-serif;perspective-origin:0px 0px;transform-origin:0px 0px;" version="1.1" viewBox="10 10 135.8125 338" width="135.8125" height="338"><g transform="scale(1) translate(0,0)"><g id="sprotty_fsm$state_q" transform="translate(15, 15)" class="statemachine"><g class="sprotty-block" style="fill:rgb(255, 255, 255);stroke:rgb(48, 48, 48);stroke-dasharray:0px;"><rect x="0" y="0" rx="1" ry="1" width="125.8125" height="328"/><text x="62.90625" y="12" class="sprotty-block-name" style="cursor:pointer;font-weight:700;perspective-origin:62.9062px 0px;fill:rgb(48, 48, 48);stroke:rgba(0, 0, 0, 0);dominant-baseline:middle;text-anchor:middle;">state_q</text><line x1="0" y1="20" x2="125.8125" y2="20"/></g><g id="sprotty_fsm$state_q/state$StTxLast" transform="translate(35.40625, 156)" class="state"><ellipse cx="37.3125" cy="20" rx="37.3125" ry="20" class="sprotty-node clickable" style="fill:rgb(255, 255, 255);stroke:rgb(48, 48, 48);"/><text class="clickable sprotty-label state" id="sprotty_fsm$state_q/state$StTxLast/label" transform="translate(6, 8) translate(31.3125, 19)" style="cursor:default;perspective-origin:0px 0px;fill:rgb(48, 48, 48);text-anchor:middle;">StTxLast</text></g><g id="sprotty_fsm$state_q/state$StOpWait" transform="translate(31.625000000000004, 216)" class="state"><ellipse cx="41.09375" cy="20" rx="41.09375" ry="20" class="sprotty-node clickable" style="fill:rgb(255, 255, 255);stroke:rgb(48, 48, 48);"/><text class="clickable sprotty-label state" id="sprotty_fsm$state_q/state$StOpWait/label" transform="translate(6, 8) translate(35.09375, 19)" style="cursor:default;perspective-origin:0px 0px;fill:rgb(48, 48, 48);text-anchor:middle;">StOpWait</text></g><g id="sprotty_fsm$state_q/state$StIdle" transform="translate(25.226562500000004, 36)" class="state"><ellipse cx="27.6640625" cy="20" rx="27.6640625" ry="20" class="sprotty-node clickable" style="fill:rgb(255, 255, 255);stroke:rgb(48, 48, 48);"/><text class="clickable sprotty-label state" id="sprotty_fsm$state_q/state$StIdle/label" transform="translate(6, 8) translate(21.59375, 19)" style="cursor:default;perspective-origin:0.0625px 0px;fill:rgb(48, 48, 48);text-anchor:middle;">StIdle</text></g><g id="sprotty_fsm$state_q/state$StTx" transform="translate(34.859375, 96)" class="state"><ellipse cx="21.90625" cy="20" rx="21.90625" ry="20" class="sprotty-node clickable" style="fill:rgb(255, 255, 255);stroke:rgb(48, 48, 48);"/><text class="clickable sprotty-label state" id="sprotty_fsm$state_q/state$StTx/label" transform="translate(6, 8) translate(15.890625, 19)" style="cursor:default;perspective-origin:0.015625px 0px;fill:rgb(48, 48, 48);text-anchor:middle;">StTx</text></g><g id="sprotty_fsm$state_q/state$StClean" transform="translate(12, 276)" class="state"><ellipse cx="34.671875" cy="20" rx="34.671875" ry="20" class="sprotty-node clickable" style="fill:rgb(255, 255, 255);stroke:rgb(48, 48, 48);"/><text class="clickable sprotty-label state" id="sprotty_fsm$state_q/state$StClean/label" transform="translate(6, 8) translate(28.671875, 19)" style="cursor:default;perspective-origin:0px 0px;fill:rgb(48, 48, 48);text-anchor:middle;">StClean</text></g><g id="sprotty_fsm$state_q/state$StIdle_to_fsm$state_q/state$StTxLast" class="sprotty-edge transition" style="fill:none;stroke:rgb(48, 48, 48);stroke-linejoin:round;"><g><path d=" M66.72265625,76 C88.671875,86 88.671875,91 88.671875,96.83333333333333 C88.671875,102.66666666666666 88.671875,109.33333333333333 88.671875,116 C88.671875,122.66666666666666 88.671875,129.33333333333331 88.671875,135.16666666666666 C88.671875,141 88.671875,146 85.15625,156"/><path d=" M66.72265625,76 C88.671875,86 88.671875,91 88.671875,96.83333333333333 C88.671875,102.66666666666666 88.671875,109.33333333333333 88.671875,116 C88.671875,122.66666666666666 88.671875,129.33333333333331 88.671875,135.16666666666666 C88.671875,141 88.671875,146 85.15625,156" class="clickable"/></g><path d="M 85.15625,156 L 92.15625,153.5 L 92.15625,158.5 Z" transform="rotate(-70.63023796509864 85.15625 156)" class="arrow" style="fill:rgb(48, 48, 48);stroke-linejoin:miter;stroke-miterlimit:2;"/></g><g id="sprotty_fsm$state_q/state$StIdle_to_fsm$state_q/state$StTx" class="sprotty-edge transition" style="fill:none;stroke:rgb(48, 48, 48);stroke-linejoin:round;"><g><path d=" M52.890625,76 C52.89062500000001,76 56.378125000000004,86 56.765625,96"/><path d=" M52.890625,76 C52.89062500000001,76 56.378125000000004,86 56.765625,96" class="clickable"/></g><path d="M 56.765625,96 L 63.765625,93.5 L 63.765625,98.5 Z" transform="rotate(-92.21910119414885 56.765625 96)" class="arrow" style="fill:rgb(48, 48, 48);stroke-linejoin:miter;stroke-miterlimit:2;"/></g><g id="sprotty_fsm$state_q/state$StTx_to_fsm$state_q/state$StTxLast" class="sprotty-edge transition" style="fill:none;stroke:rgb(48, 48, 48);stroke-linejoin:round;"><g><path d=" M56.765625,136 C56.76562500000001,136 57.11718750000001,146 60.28125,156"/><path d=" M56.765625,136 C56.76562500000001,136 57.11718750000001,146 60.28125,156" class="clickable"/></g><path d="M 60.28125,156 L 67.28125,153.5 L 67.28125,158.5 Z" transform="rotate(-107.55769684484869 60.28125 156)" class="arrow" style="fill:rgb(48, 48, 48);stroke-linejoin:miter;stroke-miterlimit:2;"/></g><g id="sprotty_fsm$state_q/state$StTxLast_to_fsm$state_q/state$StOpWait" class="sprotty-edge transition" style="fill:none;stroke:rgb(48, 48, 48);stroke-linejoin:round;"><g><path d=" M72.71875,196 C72.71875,196 72.71875,206 72.71875,216"/><path d=" M72.71875,196 C72.71875,196 72.71875,206 72.71875,216" class="clickable"/></g><path d="M 72.71875,216 L 79.71875,213.5 L 79.71875,218.5 Z" transform="rotate(-90 72.71875 216)" class="arrow" style="fill:rgb(48, 48, 48);stroke-linejoin:miter;stroke-miterlimit:2;"/></g><g id="sprotty_fsm$state_q/state$StOpWait_to_fsm$state_q/state$StClean" class="sprotty-edge transition" style="fill:none;stroke:rgb(48, 48, 48);stroke-linejoin:round;"><g><path d=" M72.71875,256 C72.71875,256 71.26979166666666,266 58.22916666666667,276"/><path d=" M72.71875,256 C72.71875,256 71.26979166666666,266 58.22916666666667,276" class="clickable"/></g><path d="M 58.22916666666667,276 L 65.22916666666667,273.5 L 65.22916666666667,278.5 Z" transform="rotate(-37.482232236874744 58.22916666666667 276)" class="arrow" style="fill:rgb(48, 48, 48);stroke-linejoin:miter;stroke-miterlimit:2;"/></g><g id="sprotty_fsm$state_q/state$StClean_to_fsm$state_q/state$StIdle" class="sprotty-edge transition" style="fill:none;stroke:rgb(48, 48, 48);stroke-linejoin:round;"><g><path d=" M35.114583333333336,276 C20.484375000000004,266 20.484375000000004,261 20.484375000000004,254.3333333333333 C20.484375000000004,247.66666666666663 20.484375000000004,239.3333333333333 20.484375000000004,230.99999999999997 C20.484375000000004,222.66666666666666 20.484375000000004,214.33333333333331 20.484375000000004,200.16666666666666 C20.484375000000004,186 20.484375000000004,166 20.484375000000004,151.83333333333331 C20.484375000000004,137.66666666666669 20.484375000000004,129.33333333333334 20.484375,121 C20.484375000000004,112.66666666666667 20.484375000000004,104.33333333333333 20.484375,97.66666666666666 C20.484375000000004,91 20.484375000000004,86 39.05859375,76"/><path d=" M35.114583333333336,276 C20.484375000000004,266 20.484375000000004,261 20.484375000000004,254.3333333333333 C20.484375000000004,247.66666666666663 20.484375000000004,239.3333333333333 20.484375000000004,230.99999999999997 C20.484375000000004,222.66666666666666 20.484375000000004,214.33333333333331 20.484375000000004,200.16666666666666 C20.484375000000004,186 20.484375000000004,166 20.484375000000004,151.83333333333331 C20.484375000000004,137.66666666666669 20.484375000000004,129.33333333333334 20.484375,121 C20.484375000000004,112.66666666666667 20.484375000000004,104.33333333333333 20.484375,97.66666666666666 C20.484375000000004,91 20.484375000000004,86 39.05859375,76" class="clickable"/></g><path d="M 39.05859375,76 L 46.05859375,73.5 L 46.05859375,78.5 Z" transform="rotate(151.70283712164886 39.05859375 76)" class="arrow" style="fill:rgb(48, 48, 48);stroke-linejoin:miter;stroke-miterlimit:2;"/></g></g></g></svg>