<svg xmlns="http://www.w3.org/2000/svg" id="sprotty_root" class="sprotty-graph sprotty-state-machine statemachine" style="font-family:&quot;Noto Sans&quot;, Helvetica, Arial, sans-serif;perspective-origin:0px 0px;transform-origin:0px 0px;" version="1.1" viewBox="10 10 171.3203125 278" width="171.3203125" height="278"><g transform="scale(1) translate(0,0)"><g id="sprotty_fsm$st" transform="translate(15, 15)" class="statemachine"><g class="sprotty-block" style="fill:rgb(255, 255, 255);stroke:rgb(48, 48, 48);stroke-dasharray:0px;"><rect x="0" y="0" rx="1" ry="1" width="161.3203125" height="268"/><text x="80.66015625" y="12" class="sprotty-block-name" style="cursor:pointer;font-weight:700;perspective-origin:80.7969px 0px;fill:rgb(48, 48, 48);stroke:rgba(0, 0, 0, 0);dominant-baseline:middle;text-anchor:middle;">st</text><line x1="0" y1="20" x2="161.3203125" y2="20"/></g><g id="sprotty_fsm$st/state$StKmacIdle" transform="translate(45.60156249999999, 156)" class="state"><ellipse cx="48.828125" cy="20" rx="48.828125" ry="20" class="sprotty-node clickable" style="fill:rgb(255, 255, 255);stroke:rgb(48, 48, 48);"/><text class="clickable sprotty-label state" id="sprotty_fsm$st/state$StKmacIdle/label" transform="translate(6, 8) translate(42.765625, 19)" style="cursor:default;perspective-origin:0.0625px 0px;fill:rgb(48, 48, 48);text-anchor:middle;">StKmacIdle</text></g><g id="sprotty_fsm$st/state$StKey" transform="translate(33.82812499999999, 216)" class="state"><ellipse cx="27.65625" cy="20" rx="27.65625" ry="20" class="sprotty-node clickable" style="fill:rgb(255, 255, 255);stroke:rgb(48, 48, 48);"/><text class="clickable sprotty-label state" id="sprotty_fsm$st/state$StKey/label" transform="translate(6, 8) translate(21.328125, 19)" style="cursor:default;perspective-origin:0.328125px 0px;fill:rgb(48, 48, 48);text-anchor:middle;">StKey</text></g><g id="sprotty_fsm$st/state$StKmacFlush" transform="translate(39.53906249999999, 96)" class="state"><ellipse cx="54.890625" cy="20" rx="54.890625" ry="20" class="sprotty-node clickable" style="fill:rgb(255, 255, 255);stroke:rgb(48, 48, 48);"/><text class="clickable sprotty-label state" id="sprotty_fsm$st/state$StKmacFlush/label" transform="translate(6, 8) translate(48.890625, 19)" style="cursor:default;perspective-origin:0px 0px;fill:rgb(48, 48, 48);text-anchor:middle;">StKmacFlush</text></g><g id="sprotty_fsm$st/state$StKmacMsg" transform="translate(12, 36)" class="state"><ellipse cx="49.484375" cy="20" rx="49.484375" ry="20" class="sprotty-node clickable" style="fill:rgb(255, 255, 255);stroke:rgb(48, 48, 48);"/><text class="clickable sprotty-label state" id="sprotty_fsm$st/state$StKmacMsg/label" transform="translate(6, 8) translate(43.484375, 19)" style="cursor:default;perspective-origin:0px 0px;fill:rgb(48, 48, 48);text-anchor:middle;">StKmacMsg</text></g><g id="sprotty_fsm$st/state$StKmacIdle_to_fsm$st/state$StKey" class="sprotty-edge transition" style="fill:none;stroke:rgb(48, 48, 48);stroke-linejoin:round;"><g><path d=" M94.4296875,196 C94.4296875,196 92.05703125000001,206 70.703125,216"/><path d=" M94.4296875,196 C94.4296875,196 92.05703125000001,206 70.703125,216" class="clickable"/></g><path d="M 70.703125,216 L 77.703125,213.5 L 77.703125,218.5 Z" transform="rotate(-25.093617331587943 70.703125 216)" class="arrow" style="fill:rgb(48, 48, 48);stroke-linejoin:miter;stroke-miterlimit:2;"/></g><g id="sprotty_fsm$st/state$StKey_to_fsm$st/state$StKmacMsg" class="sprotty-edge transition" style="fill:none;stroke:rgb(48, 48, 48);stroke-linejoin:round;"><g><path d=" M52.26562499999999,216 C28.539062499999993,206 28.539062499999993,201 28.539062499999993,190.1666666666667 C28.539062499999993,179.33333333333337 28.539062499999993,162.66666666666669 28.539062499999993,150.16666666666669 C28.539062499999993,137.66666666666669 28.539062499999993,129.33333333333331 28.539062499999993,121 C28.539062499999993,112.66666666666666 28.539062499999993,104.33333333333334 28.539062499999993,97.66666666666669 C28.539062499999993,91 28.539062499999993,86 44.98958333333333,76"/><path d=" M52.26562499999999,216 C28.539062499999993,206 28.539062499999993,201 28.539062499999993,190.1666666666667 C28.539062499999993,179.33333333333337 28.539062499999993,162.66666666666669 28.539062499999993,150.16666666666669 C28.539062499999993,137.66666666666669 28.539062499999993,129.33333333333331 28.539062499999993,121 C28.539062499999993,112.66666666666666 28.539062499999993,104.33333333333334 28.539062499999993,97.66666666666669 C28.539062499999993,91 28.539062499999993,86 44.98958333333333,76" class="clickable"/></g><path d="M 44.98958333333333,76 L 51.98958333333333,73.5 L 51.98958333333333,78.5 Z" transform="rotate(148.70527280526733 44.98958333333333 76)" class="arrow" style="fill:rgb(48, 48, 48);stroke-linejoin:miter;stroke-miterlimit:2;"/></g><g id="sprotty_fsm$st/state$StKmacMsg_to_fsm$st/state$StKmacFlush" class="sprotty-edge transition" style="fill:none;stroke:rgb(48, 48, 48);stroke-linejoin:round;"><g><path d=" M77.97916666666666,76 C77.97916666666666,76 92.78463541666666,86 94.4296875,96"/><path d=" M77.97916666666666,76 C77.97916666666666,76 92.78463541666666,86 94.4296875,96" class="clickable"/></g><path d="M 94.4296875,96 L 101.4296875,93.5 L 101.4296875,98.5 Z" transform="rotate(-99.34178478949372 94.4296875 96)" class="arrow" style="fill:rgb(48, 48, 48);stroke-linejoin:miter;stroke-miterlimit:2;"/></g><g id="sprotty_fsm$st/state$StKmacFlush_to_fsm$st/state$StKmacIdle" class="sprotty-edge transition" style="fill:none;stroke:rgb(48, 48, 48);stroke-linejoin:round;"><g><path d=" M94.4296875,136 C94.4296875,136 94.4296875,146 94.4296875,156"/><path d=" M94.4296875,136 C94.4296875,136 94.4296875,146 94.4296875,156" class="clickable"/></g><path d="M 94.4296875,156 L 101.4296875,153.5 L 101.4296875,158.5 Z" transform="rotate(-90 94.4296875 156)" class="arrow" style="fill:rgb(48, 48, 48);stroke-linejoin:miter;stroke-miterlimit:2;"/></g></g></g></svg>