<svg xmlns="http://www.w3.org/2000/svg" id="sprotty_root" class="sprotty-graph sprotty-state-machine statemachine" style="font-family:&quot;Noto Sans&quot;, Helvetica, Arial, sans-serif;perspective-origin:0px 0px;transform-origin:0px 0px;" version="1.1" viewBox="10 10 327.6783854166667 408" width="327.6783854166667" height="408"><g transform="scale(1) translate(0,0)"><g id="sprotty_fsm$st" transform="translate(15, 15)" class="statemachine"><g class="sprotty-block" style="fill:rgb(255, 255, 255);stroke:rgb(48, 48, 48);stroke-dasharray:0px;"><rect x="0" y="0" rx="1" ry="1" width="317.6783854166667" height="398"/><text x="158.83919270833334" y="12" class="sprotty-block-name" style="cursor:pointer;font-weight:700;perspective-origin:158.984px 0px;fill:rgb(48, 48, 48);stroke:rgba(0, 0, 0, 0);dominant-baseline:middle;text-anchor:middle;">st</text><line x1="0" y1="20" x2="317.6783854166667" y2="20"/></g><g id="sprotty_fsm$st/state$StKeyMgrWait" transform="translate(177.47526041666669, 216)" class="state"><ellipse cx="58.046875" cy="20" rx="58.046875" ry="20" class="sprotty-node clickable" style="fill:rgb(255, 255, 255);stroke:rgb(48, 48, 48);"/><text class="clickable sprotty-label state" id="sprotty_fsm$st/state$StKeyMgrWait/label" transform="translate(6, 8) translate(52.046875, 19)" style="cursor:default;perspective-origin:0px 0px;fill:rgb(48, 48, 48);text-anchor:middle;">StKeyMgrWait</text></g><g id="sprotty_fsm$st/state$StIdle" transform="translate(198.63671875, 276)" class="state"><ellipse cx="27.6640625" cy="20" rx="27.6640625" ry="20" class="sprotty-node clickable" style="fill:rgb(255, 255, 255);stroke:rgb(48, 48, 48);"/><text class="clickable sprotty-label state" id="sprotty_fsm$st/state$StIdle/label" transform="translate(6, 8) translate(21.59375, 19)" style="cursor:default;perspective-origin:0.0625px 0px;fill:rgb(48, 48, 48);text-anchor:middle;">StIdle</text></g><g id="sprotty_fsm$st/state$StSw" transform="translate(232.84375, 346)" class="state"><ellipse cx="24.859375" cy="20" rx="24.859375" ry="20" class="sprotty-node clickable" style="fill:rgb(255, 255, 255);stroke:rgb(48, 48, 48);"/><text class="clickable sprotty-label state" id="sprotty_fsm$st/state$StSw/label" transform="translate(6, 8) translate(18.78125, 19)" style="cursor:default;perspective-origin:0.078125px 0px;fill:rgb(48, 48, 48);text-anchor:middle;">StSw</text></g><g id="sprotty_fsm$st/state$StKeyMgrProcess" transform="translate(165.36588541666669, 156)" class="state"><ellipse cx="70.15625" cy="20" rx="70.15625" ry="20" class="sprotty-node clickable" style="fill:rgb(255, 255, 255);stroke:rgb(48, 48, 48);"/><text class="clickable sprotty-label state" id="sprotty_fsm$st/state$StKeyMgrProcess/label" transform="translate(6, 8) translate(64.15625, 19)" style="cursor:default;perspective-origin:0px 0px;fill:rgb(48, 48, 48);text-anchor:middle;">StKeyMgrProcess</text></g><g id="sprotty_fsm$st/state$StKeyMgrErrKeyNotValid" transform="translate(12, 346)" class="state"><ellipse cx="97.921875" cy="20" rx="97.921875" ry="20" class="sprotty-node clickable" style="fill:rgb(255, 255, 255);stroke:rgb(48, 48, 48);"/><text class="clickable sprotty-label state" id="sprotty_fsm$st/state$StKeyMgrErrKeyNotValid/label" transform="translate(6, 8) translate(91.921875, 19)" style="cursor:default;perspective-origin:0px 0px;fill:rgb(48, 48, 48);text-anchor:middle;">StKeyMgrErrKeyNotValid</text></g><g id="sprotty_fsm$st/state$StKeyMgrMsg" transform="translate(160.62630208333331, 36)" class="state"><ellipse cx="56.171875" cy="20" rx="56.171875" ry="20" class="sprotty-node clickable" style="fill:rgb(255, 255, 255);stroke:rgb(48, 48, 48);"/><text class="clickable sprotty-label state" id="sprotty_fsm$st/state$StKeyMgrMsg/label" transform="translate(6, 8) translate(50.171875, 19)" style="cursor:default;perspective-origin:0px 0px;fill:rgb(48, 48, 48);text-anchor:middle;">StKeyMgrMsg</text></g><g id="sprotty_fsm$st/state$StKeyMgrOutLen" transform="translate(166.72526041666669, 96)" class="state"><ellipse cx="68.796875" cy="20" rx="68.796875" ry="20" class="sprotty-node clickable" style="fill:rgb(255, 255, 255);stroke:rgb(48, 48, 48);"/><text class="clickable sprotty-label state" id="sprotty_fsm$st/state$StKeyMgrOutLen/label" transform="translate(6, 8) translate(62.796875, 19)" style="cursor:default;perspective-origin:0px 0px;fill:rgb(48, 48, 48);text-anchor:middle;">StKeyMgrOutLen</text></g><g id="sprotty_fsm$st/state$StIdle_to_fsm$st/state$StKeyMgrMsg" class="sprotty-edge transition" style="fill:none;stroke:rgb(48, 48, 48);stroke-linejoin:round;"><g><path d=" M217.07942708333334,276 C154.36588541666669,266 154.36588541666669,261 154.36588541666669,254.3333333333333 C154.36588541666669,247.66666666666663 154.36588541666669,239.3333333333333 154.36588541666669,230.99999999999997 C154.36588541666669,222.66666666666666 154.36588541666669,214.33333333333331 154.36588541666669,200.16666666666666 C154.36588541666669,186 154.36588541666669,166 154.36588541666669,151.83333333333331 C154.36588541666669,137.66666666666669 154.36588541666669,129.33333333333334 154.36588541666669,121 C154.36588541666669,112.66666666666667 154.36588541666669,104.33333333333333 154.36588541666669,97.66666666666666 C154.36588541666669,91 154.36588541666669,86 198.07421875,76"/><path d=" M217.07942708333334,276 C154.36588541666669,266 154.36588541666669,261 154.36588541666669,254.3333333333333 C154.36588541666669,247.66666666666663 154.36588541666669,239.3333333333333 154.36588541666669,230.99999999999997 C154.36588541666669,222.66666666666666 154.36588541666669,214.33333333333331 154.36588541666669,200.16666666666666 C154.36588541666669,186 154.36588541666669,166 154.36588541666669,151.83333333333331 C154.36588541666669,137.66666666666669 154.36588541666669,129.33333333333334 154.36588541666669,121 C154.36588541666669,112.66666666666667 154.36588541666669,104.33333333333333 154.36588541666669,97.66666666666666 C154.36588541666669,91 154.36588541666669,86 198.07421875,76" class="clickable"/></g><path d="M 198.07421875,76 L 205.07421875,73.5 L 205.07421875,78.5 Z" transform="rotate(167.11313442512795 198.07421875 76)" class="arrow" style="fill:rgb(48, 48, 48);stroke-linejoin:miter;stroke-miterlimit:2;"/></g><g id="sprotty_fsm$st/state$StIdle_to_fsm$st/state$StKeyMgrErrKeyNotValid" class="sprotty-edge transition" style="fill:none;stroke:rgb(48, 48, 48);stroke-linejoin:round;"><g><path d=" M212.46875,316 C212.46875,316 120.17656249999999,331 109.921875,346"/><path d=" M212.46875,316 C212.46875,316 120.17656249999999,331 109.921875,346" class="clickable"/></g><path d="M 109.921875,346 L 116.921875,343.5 L 116.921875,348.5 Z" transform="rotate(-55.6416987807203 109.921875 346)" class="arrow" style="fill:rgb(48, 48, 48);stroke-linejoin:miter;stroke-miterlimit:2;"/></g><g id="sprotty_fsm$st/state$StIdle_to_fsm$st/state$StSw" class="sprotty-edge transition" style="fill:none;stroke:rgb(48, 48, 48);stroke-linejoin:round;"><g><path d=" M226.30078125,316 C226.30078125,316 247.10507812499998,331 249.41666666666666,346"/><path d=" M226.30078125,316 C226.30078125,316 247.10507812499998,331 249.41666666666666,346" class="clickable"/></g><path d="M 249.41666666666666,346 L 256.41666666666663,343.5 L 256.41666666666663,348.5 Z" transform="rotate(-98.76070010778729 249.41666666666666 346)" class="arrow" style="fill:rgb(48, 48, 48);stroke-linejoin:miter;stroke-miterlimit:2;"/></g><g id="sprotty_fsm$st/state$StKeyMgrMsg_to_fsm$st/state$StKeyMgrOutLen" class="sprotty-edge transition" style="fill:none;stroke:rgb(48, 48, 48);stroke-linejoin:round;"><g><path d=" M235.52213541666666,76 C235.52213541666669,76 235.52213541666669,86 235.52213541666669,96"/><path d=" M235.52213541666666,76 C235.52213541666669,76 235.52213541666669,86 235.52213541666669,96" class="clickable"/></g><path d="M 235.52213541666669,96 L 242.52213541666669,93.5 L 242.52213541666669,98.5 Z" transform="rotate(-90 235.52213541666669 96)" class="arrow" style="fill:rgb(48, 48, 48);stroke-linejoin:miter;stroke-miterlimit:2;"/></g><g id="sprotty_fsm$st/state$StKeyMgrOutLen_to_fsm$st/state$StKeyMgrProcess" class="sprotty-edge transition" style="fill:none;stroke:rgb(48, 48, 48);stroke-linejoin:round;"><g><path d=" M235.52213541666669,136 C235.52213541666669,136 235.52213541666669,146 235.52213541666669,156"/><path d=" M235.52213541666669,136 C235.52213541666669,136 235.52213541666669,146 235.52213541666669,156" class="clickable"/></g><path d="M 235.52213541666669,156 L 242.52213541666669,153.5 L 242.52213541666669,158.5 Z" transform="rotate(-90 235.52213541666669 156)" class="arrow" style="fill:rgb(48, 48, 48);stroke-linejoin:miter;stroke-miterlimit:2;"/></g><g id="sprotty_fsm$st/state$StKeyMgrProcess_to_fsm$st/state$StKeyMgrWait" class="sprotty-edge transition" style="fill:none;stroke:rgb(48, 48, 48);stroke-linejoin:round;"><g><path d=" M235.52213541666669,196 C235.52213541666669,196 235.52213541666669,206 235.52213541666669,216"/><path d=" M235.52213541666669,196 C235.52213541666669,196 235.52213541666669,206 235.52213541666669,216" class="clickable"/></g><path d="M 235.52213541666669,216 L 242.52213541666669,213.5 L 242.52213541666669,218.5 Z" transform="rotate(-90 235.52213541666669 216)" class="arrow" style="fill:rgb(48, 48, 48);stroke-linejoin:miter;stroke-miterlimit:2;"/></g><g id="sprotty_fsm$st/state$StKeyMgrWait_to_fsm$st/state$StIdle" class="sprotty-edge transition" style="fill:none;stroke:rgb(48, 48, 48);stroke-linejoin:round;"><g><path d=" M235.52213541666669,256 C235.52213541666669,256 235.52213541666669,266 235.52213541666669,276"/><path d=" M235.52213541666669,256 C235.52213541666669,256 235.52213541666669,266 235.52213541666669,276" class="clickable"/></g><path d="M 235.52213541666669,276 L 242.52213541666669,273.5 L 242.52213541666669,278.5 Z" transform="rotate(-90 235.52213541666669 276)" class="arrow" style="fill:rgb(48, 48, 48);stroke-linejoin:miter;stroke-miterlimit:2;"/></g><g id="sprotty_fsm$st/state$StSw_to_fsm$st/state$StIdle" class="sprotty-edge transition" style="fill:none;stroke:rgb(48, 48, 48);stroke-linejoin:round;"><g><path d=" M265.98958333333337,346 C263.40390625000003,331 240.1328125,316 240.1328125,316"/><path d=" M265.98958333333337,346 C263.40390625000003,331 240.1328125,316 240.1328125,316" class="clickable"/></g><path d="M 240.1328125,316 L 247.1328125,313.5 L 247.1328125,318.5 Z" transform="rotate(32.80487666201595 240.1328125 316)" class="arrow" style="fill:rgb(48, 48, 48);stroke-linejoin:miter;stroke-miterlimit:2;"/></g></g></g></svg>