<svg xmlns="http://www.w3.org/2000/svg" id="sprotty_root" class="sprotty-graph sprotty-state-machine statemachine" style="font-family:&quot;Noto Sans&quot;, Helvetica, Arial, sans-serif;perspective-origin:0px 0px;transform-origin:0px 0px;" version="1.1" viewBox="10 10 162.76171875000003 278" width="162.76171875000003" height="278"><g transform="scale(1) translate(0,0)"><g id="sprotty_fsm$flush_st" transform="translate(15, 15)" class="statemachine"><g class="sprotty-block" style="fill:rgb(255, 255, 255);stroke:rgb(48, 48, 48);stroke-dasharray:0px;"><rect x="0" y="0" rx="1" ry="1" width="152.76171875000003" height="268"/><text x="76.38085937500001" y="12" class="sprotty-block-name" style="cursor:pointer;font-weight:700;perspective-origin:76.5156px 0px;fill:rgb(48, 48, 48);stroke:rgba(0, 0, 0, 0);dominant-baseline:middle;text-anchor:middle;">flush_st</text><line x1="0" y1="20" x2="152.76171875000003" y2="20"/></g><g id="sprotty_fsm$flush_st/state$FlushFifo" transform="translate(49.01953125, 156)" class="state"><ellipse cx="40.140625" cy="20" rx="40.140625" ry="20" class="sprotty-node clickable" style="fill:rgb(255, 255, 255);stroke:rgb(48, 48, 48);"/><text class="clickable sprotty-label state" id="sprotty_fsm$flush_st/state$FlushFifo/label" transform="translate(6, 8) translate(34.140625, 19)" style="cursor:default;perspective-origin:0px 0px;fill:rgb(48, 48, 48);text-anchor:middle;">FlushFifo</text></g><g id="sprotty_fsm$flush_st/state$FlushPacker" transform="translate(37.55859375, 96)" class="state"><ellipse cx="51.6015625" cy="20" rx="51.6015625" ry="20" class="sprotty-node clickable" style="fill:rgb(255, 255, 255);stroke:rgb(48, 48, 48);"/><text class="clickable sprotty-label state" id="sprotty_fsm$flush_st/state$FlushPacker/label" transform="translate(6, 8) translate(45.203125, 19)" style="cursor:default;perspective-origin:0.390625px 0px;fill:rgb(48, 48, 48);text-anchor:middle;">FlushPacker</text></g><g id="sprotty_fsm$flush_st/state$FlushClear" transform="translate(12, 216)" class="state"><ellipse cx="45.859375" cy="20" rx="45.859375" ry="20" class="sprotty-node clickable" style="fill:rgb(255, 255, 255);stroke:rgb(48, 48, 48);"/><text class="clickable sprotty-label state" id="sprotty_fsm$flush_st/state$FlushClear/label" transform="translate(6, 8) translate(39.46875, 19)" style="cursor:default;perspective-origin:0.390625px 0px;fill:rgb(48, 48, 48);text-anchor:middle;">FlushClear</text></g><g id="sprotty_fsm$flush_st/state$FlushIdle" transform="translate(17.6171875, 36)" class="state"><ellipse cx="40.2421875" cy="20" rx="40.2421875" ry="20" class="sprotty-node clickable" style="fill:rgb(255, 255, 255);stroke:rgb(48, 48, 48);"/><text class="clickable sprotty-label state" id="sprotty_fsm$flush_st/state$FlushIdle/label" transform="translate(6, 8) translate(34.171875, 19)" style="cursor:default;perspective-origin:0.0625px 0px;fill:rgb(48, 48, 48);text-anchor:middle;">FlushIdle</text></g><g id="sprotty_fsm$flush_st/state$FlushIdle_to_fsm$flush_st/state$FlushPacker" class="sprotty-edge transition" style="fill:none;stroke:rgb(48, 48, 48);stroke-linejoin:round;"><g><path d=" M71.2734375,76 C71.2734375,76 87.371484375,86 89.16015625,96"/><path d=" M71.2734375,76 C71.2734375,76 87.371484375,86 89.16015625,96" class="clickable"/></g><path d="M 89.16015625,96 L 96.16015625,93.5 L 96.16015625,98.5 Z" transform="rotate(-100.14109288972307 89.16015625 96)" class="arrow" style="fill:rgb(48, 48, 48);stroke-linejoin:miter;stroke-miterlimit:2;"/></g><g id="sprotty_fsm$flush_st/state$FlushPacker_to_fsm$flush_st/state$FlushFifo" class="sprotty-edge transition" style="fill:none;stroke:rgb(48, 48, 48);stroke-linejoin:round;"><g><path d=" M89.16015625,136 C89.16015625,136 89.16015625,146 89.16015625,156"/><path d=" M89.16015625,136 C89.16015625,136 89.16015625,146 89.16015625,156" class="clickable"/></g><path d="M 89.16015625,156 L 96.16015625,153.5 L 96.16015625,158.5 Z" transform="rotate(-90 89.16015625 156)" class="arrow" style="fill:rgb(48, 48, 48);stroke-linejoin:miter;stroke-miterlimit:2;"/></g><g id="sprotty_fsm$flush_st/state$FlushFifo_to_fsm$flush_st/state$FlushClear" class="sprotty-edge transition" style="fill:none;stroke:rgb(48, 48, 48);stroke-linejoin:round;"><g><path d=" M89.16015625,196 C89.16015625,196 87.55872395833335,206 73.14583333333334,216"/><path d=" M89.16015625,196 C89.16015625,196 87.55872395833335,206 73.14583333333334,216" class="clickable"/></g><path d="M 73.14583333333334,216 L 80.14583333333334,213.5 L 80.14583333333334,218.5 Z" transform="rotate(-34.75381612099876 73.14583333333334 216)" class="arrow" style="fill:rgb(48, 48, 48);stroke-linejoin:miter;stroke-miterlimit:2;"/></g><g id="sprotty_fsm$flush_st/state$FlushClear_to_fsm$flush_st/state$FlushIdle" class="sprotty-edge transition" style="fill:none;stroke:rgb(48, 48, 48);stroke-linejoin:round;"><g><path d=" M42.57291666666667,216 C26.55859375,206 26.55859375,201 26.558593750000004,190.1666666666667 C26.558593750000004,179.33333333333337 26.558593750000004,162.66666666666669 26.558593750000004,150.16666666666669 C26.55859375,137.66666666666669 26.55859375,129.33333333333331 26.55859375,121 C26.55859375,112.66666666666666 26.558593750000004,104.33333333333334 26.558593750000007,97.66666666666669 C26.558593750000004,91 26.55859375,86 44.4453125,76"/><path d=" M42.57291666666667,216 C26.55859375,206 26.55859375,201 26.558593750000004,190.1666666666667 C26.558593750000004,179.33333333333337 26.558593750000004,162.66666666666669 26.558593750000004,150.16666666666669 C26.55859375,137.66666666666669 26.55859375,129.33333333333331 26.55859375,121 C26.55859375,112.66666666666666 26.558593750000004,104.33333333333334 26.558593750000007,97.66666666666669 C26.558593750000004,91 26.55859375,86 44.4453125,76" class="clickable"/></g><path d="M 44.4453125,76 L 51.4453125,73.5 L 51.4453125,78.5 Z" transform="rotate(150.79157782552372 44.4453125 76)" class="arrow" style="fill:rgb(48, 48, 48);stroke-linejoin:miter;stroke-miterlimit:2;"/></g></g></g></svg>