<svg xmlns="http://www.w3.org/2000/svg" id="sprotty_root" class="sprotty-graph sprotty-state-machine statemachine" style="font-family:&quot;Noto Sans&quot;, Helvetica, Arial, sans-serif;perspective-origin:0px 0px;transform-origin:0px 0px;" version="1.1" viewBox="10 10 619.1658854166667 288" width="619.1658854166667" height="288"><g transform="scale(1) translate(0,0)"><g id="sprotty_fsm$st" transform="translate(15, 15)" class="statemachine"><g class="sprotty-block" style="fill:rgb(255, 255, 255);stroke:rgb(48, 48, 48);stroke-dasharray:0px;"><rect x="0" y="0" rx="1" ry="1" width="609.1658854166667" height="278"/><text x="304.58294270833335" y="12" class="sprotty-block-name" style="cursor:pointer;font-weight:700;perspective-origin:304.719px 0px;fill:rgb(48, 48, 48);stroke:rgba(0, 0, 0, 0);dominant-baseline:middle;text-anchor:middle;">st</text><line x1="0" y1="20" x2="609.1658854166667" y2="20"/></g><g id="sprotty_fsm$st/state$StRandEdn" transform="translate(286.3020833333333, 106)" class="state"><ellipse cx="47.453125" cy="20" rx="47.453125" ry="20" class="sprotty-node clickable" style="fill:rgb(255, 255, 255);stroke:rgb(48, 48, 48);"/><text class="clickable sprotty-label state" id="sprotty_fsm$st/state$StRandEdn/label" transform="translate(6, 8) translate(41.453125, 19)" style="cursor:default;perspective-origin:0px 0px;fill:rgb(48, 48, 48);text-anchor:middle;">StRandEdn</text></g><g id="sprotty_fsm$st/state$StRandReady" transform="translate(484.6502604166667, 36)" class="state"><ellipse cx="56.2578125" cy="20" rx="56.2578125" ry="20" class="sprotty-node clickable" style="fill:rgb(255, 255, 255);stroke:rgb(48, 48, 48);"/><text class="clickable sprotty-label state" id="sprotty_fsm$st/state$StRandReady/label" transform="translate(6, 8) translate(49.921875, 19)" style="cursor:default;perspective-origin:0.328125px 0px;fill:rgb(48, 48, 48);text-anchor:middle;">StRandReady</text></g><g id="sprotty_fsm$st/state$StRandErrIncorrectMode" transform="translate(12, 166)" class="state"><ellipse cx="98.21875" cy="20" rx="98.21875" ry="20" class="sprotty-node clickable" style="fill:rgb(255, 255, 255);stroke:rgb(48, 48, 48);"/><text class="clickable sprotty-label state" id="sprotty_fsm$st/state$StRandErrIncorrectMode/label" transform="translate(6, 8) translate(92.15625, 19)" style="cursor:default;perspective-origin:0.0625px 0px;fill:rgb(48, 48, 48);text-anchor:middle;">StRandErrIncorrectMode</text></g><g id="sprotty_fsm$st/state$StRandErr" transform="translate(167.2828125, 226)" class="state"><ellipse cx="44.3046875" cy="20" rx="44.3046875" ry="20" class="sprotty-node clickable" style="fill:rgb(255, 255, 255);stroke:rgb(48, 48, 48);"/><text class="clickable sprotty-label state" id="sprotty_fsm$st/state$StRandErr/label" transform="translate(6, 8) translate(37.90625, 19)" style="cursor:default;perspective-origin:0.390625px 0px;fill:rgb(48, 48, 48);text-anchor:middle;">StRandErr</text></g><g id="sprotty_fsm$st/state$StSwSeedWait" transform="translate(413.0682291666667, 106)" class="state"><ellipse cx="59.984375" cy="20" rx="59.984375" ry="20" class="sprotty-node clickable" style="fill:rgb(255, 255, 255);stroke:rgb(48, 48, 48);"/><text class="clickable sprotty-label state" id="sprotty_fsm$st/state$StSwSeedWait/label" transform="translate(6, 8) translate(53.984375, 19)" style="cursor:default;perspective-origin:0px 0px;fill:rgb(48, 48, 48);text-anchor:middle;">StSwSeedWait</text></g><g id="sprotty_fsm$st/state$StRandReset" transform="translate(214.671875, 36)" class="state"><ellipse cx="53.515625" cy="20" rx="53.515625" ry="20" class="sprotty-node clickable" style="fill:rgb(255, 255, 255);stroke:rgb(48, 48, 48);"/><text class="clickable sprotty-label state" id="sprotty_fsm$st/state$StRandReset/label" transform="translate(6, 8) translate(47.515625, 19)" style="cursor:default;perspective-origin:0px 0px;fill:rgb(48, 48, 48);text-anchor:middle;">StRandReset</text></g><g id="sprotty_fsm$st/state$StRandErrWaitExpired" transform="translate(229.4375, 166)" class="state"><ellipse cx="88.5" cy="20" rx="88.5" ry="20" class="sprotty-node clickable" style="fill:rgb(255, 255, 255);stroke:rgb(48, 48, 48);"/><text class="clickable sprotty-label state" id="sprotty_fsm$st/state$StRandErrWaitExpired/label" transform="translate(6, 8) translate(82.5, 19)" style="cursor:default;perspective-origin:0px 0px;fill:rgb(48, 48, 48);text-anchor:middle;">StRandErrWaitExpired</text></g><g id="sprotty_fsm$st/state$StRandExpand" transform="translate(445.5053385416667, 166)" class="state"><ellipse cx="60.59375" cy="20" rx="60.59375" ry="20" class="sprotty-node clickable" style="fill:rgb(255, 255, 255);stroke:rgb(48, 48, 48);"/><text class="clickable sprotty-label state" id="sprotty_fsm$st/state$StRandExpand/label" transform="translate(6, 8) translate(54.59375, 19)" style="cursor:default;perspective-origin:0px 0px;fill:rgb(48, 48, 48);text-anchor:middle;">StRandExpand</text></g><g id="sprotty_fsm$st/state$StRandReset_to_fsm$st/state$StSwSeedWait" class="sprotty-edge transition" style="fill:none;stroke:rgb(48, 48, 48);stroke-linejoin:round;"><g><path d=" M300.296875,76 C300.296875,76 455.77703125000005,91 473.0526041666667,106"/><path d=" M300.296875,76 C300.296875,76 455.77703125000005,91 473.0526041666667,106" class="clickable"/></g><path d="M 473.0526041666667,106 L 480.0526041666667,103.5 L 480.0526041666667,108.5 Z" transform="rotate(-139.03293632274926 473.0526041666667 106)" class="arrow" style="fill:rgb(48, 48, 48);stroke-linejoin:miter;stroke-miterlimit:2;"/></g><g id="sprotty_fsm$st/state$StRandReset_to_fsm$st/state$StRandEdn" class="sprotty-edge transition" style="fill:none;stroke:rgb(48, 48, 48);stroke-linejoin:round;"><g><path d=" M278.890625,76 C278.890625,76 314.0328125,91 317.9375,106"/><path d=" M278.890625,76 C278.890625,76 314.0328125,91 317.9375,106" class="clickable"/></g><path d="M 317.9375,106 L 324.9375,103.5 L 324.9375,108.5 Z" transform="rotate(-104.59098611938619 317.9375 106)" class="arrow" style="fill:rgb(48, 48, 48);stroke-linejoin:miter;stroke-miterlimit:2;"/></g><g id="sprotty_fsm$st/state$StRandReset_to_fsm$st/state$StRandErrIncorrectMode" class="sprotty-edge transition" style="fill:none;stroke:rgb(48, 48, 48);stroke-linejoin:round;"><g><path d=" M236.078125,76 C110.21875,91 110.21875,98.5 110.21875,106.41666666666666 C110.21875,114.33333333333334 110.21875,122.66666666666667 110.21875,133.08333333333331 C110.21875,143.5 110.21875,156 110.21875,166"/><path d=" M236.078125,76 C110.21875,91 110.21875,98.5 110.21875,106.41666666666666 C110.21875,114.33333333333334 110.21875,122.66666666666667 110.21875,133.08333333333331 C110.21875,143.5 110.21875,156 110.21875,166" class="clickable"/></g><path d="M 110.21875,166 L 117.21875,163.5 L 117.21875,168.5 Z" transform="rotate(-90 110.21875 166)" class="arrow" style="fill:rgb(48, 48, 48);stroke-linejoin:miter;stroke-miterlimit:2;"/></g><g id="sprotty_fsm$st/state$StRandReady_to_fsm$st/state$StRandExpand" class="sprotty-edge transition" style="fill:none;stroke:rgb(48, 48, 48);stroke-linejoin:round;"><g><path d=" M540.9080729166667,76 C543.0369791666667,91 543.0369791666667,98.5 543.0369791666667,105.58333333333333 C543.0369791666667,112.66666666666666 543.0369791666667,119.33333333333333 543.0369791666667,126 C543.0369791666667,132.66666666666666 543.0369791666667,139.33333333333331 543.0369791666667,145.16666666666666 C543.0369791666667,151 543.0369791666667,156 518.2178385416667,166"/><path d=" M540.9080729166667,76 C543.0369791666667,91 543.0369791666667,98.5 543.0369791666667,105.58333333333333 C543.0369791666667,112.66666666666666 543.0369791666667,119.33333333333333 543.0369791666667,126 C543.0369791666667,132.66666666666666 543.0369791666667,139.33333333333331 543.0369791666667,145.16666666666666 C543.0369791666667,151 543.0369791666667,156 518.2178385416667,166" class="clickable"/></g><path d="M 518.2178385416667,166 L 525.2178385416667,163.5 L 525.2178385416667,168.5 Z" transform="rotate(-21.945236913291474 518.2178385416667 166)" class="arrow" style="fill:rgb(48, 48, 48);stroke-linejoin:miter;stroke-miterlimit:2;"/></g><g id="sprotty_fsm$st/state$StRandReady_to_fsm$st/state$StRandEdn" class="sprotty-edge transition" style="fill:none;stroke:rgb(48, 48, 48);stroke-linejoin:round;"><g><path d=" M512.7791666666667,76 C512.7791666666667,76 365.89354166666664,91 349.57291666666663,106"/><path d=" M512.7791666666667,76 C512.7791666666667,76 365.89354166666664,91 349.57291666666663,106" class="clickable"/></g><path d="M 349.57291666666663,106 L 356.57291666666663,103.5 L 356.57291666666663,108.5 Z" transform="rotate(-42.585570364564276 349.57291666666663 106)" class="arrow" style="fill:rgb(48, 48, 48);stroke-linejoin:miter;stroke-miterlimit:2;"/></g><g id="sprotty_fsm$st/state$StRandEdn_to_fsm$st/state$StRandErrWaitExpired" class="sprotty-edge transition" style="fill:none;stroke:rgb(48, 48, 48);stroke-linejoin:round;"><g><path d=" M317.9375,146 C317.9375,146 317.9375,156 317.9375,166"/><path d=" M317.9375,146 C317.9375,146 317.9375,156 317.9375,166" class="clickable"/></g><path d="M 317.9375,166 L 324.9375,163.5 L 324.9375,168.5 Z" transform="rotate(-90 317.9375 166)" class="arrow" style="fill:rgb(48, 48, 48);stroke-linejoin:miter;stroke-miterlimit:2;"/></g><g id="sprotty_fsm$st/state$StRandEdn_to_fsm$st/state$StRandExpand" class="sprotty-edge transition" style="fill:none;stroke:rgb(48, 48, 48);stroke-linejoin:round;"><g><path d=" M349.57291666666663,146 C349.57291666666663,146 361.5899088541666,156 469.7428385416667,166"/><path d=" M349.57291666666663,146 C349.57291666666663,146 361.5899088541666,156 469.7428385416667,166" class="clickable"/></g><path d="M 469.7428385416667,166 L 476.7428385416667,163.5 L 476.7428385416667,168.5 Z" transform="rotate(-174.7173566906467 469.7428385416667 166)" class="arrow" style="fill:rgb(48, 48, 48);stroke-linejoin:miter;stroke-miterlimit:2;"/></g><g id="sprotty_fsm$st/state$StSwSeedWait_to_fsm$st/state$StRandExpand" class="sprotty-edge transition" style="fill:none;stroke:rgb(48, 48, 48);stroke-linejoin:round;"><g><path d=" M473.0526041666667,146 C473.0526041666667,146 475.1453776041667,156 493.9803385416667,166"/><path d=" M473.0526041666667,146 C473.0526041666667,146 475.1453776041667,156 493.9803385416667,166" class="clickable"/></g><path d="M 493.9803385416667,166 L 500.9803385416667,163.5 L 500.9803385416667,168.5 Z" transform="rotate(-152.03493529006292 493.9803385416667 166)" class="arrow" style="fill:rgb(48, 48, 48);stroke-linejoin:miter;stroke-miterlimit:2;"/></g><g id="sprotty_fsm$st/state$StRandExpand_to_fsm$st/state$StRandReady" class="sprotty-edge transition" style="fill:none;stroke:rgb(48, 48, 48);stroke-linejoin:round;"><g><path d=" M542.4553385416667,166 C594.0369791666667,156 594.0369791666667,151 594.0369791666667,145.16666666666666 C594.0369791666667,139.33333333333331 594.0369791666667,132.66666666666666 594.0369791666667,126 C594.0369791666667,119.33333333333333 594.0369791666667,112.66666666666666 594.0369791666667,105.58333333333333 C594.0369791666667,98.5 594.0369791666667,91 569.0369791666667,76"/><path d=" M542.4553385416667,166 C594.0369791666667,156 594.0369791666667,151 594.0369791666667,145.16666666666666 C594.0369791666667,139.33333333333331 594.0369791666667,132.66666666666666 594.0369791666667,126 C594.0369791666667,119.33333333333333 594.0369791666667,112.66666666666666 594.0369791666667,105.58333333333333 C594.0369791666667,98.5 594.0369791666667,91 569.0369791666667,76" class="clickable"/></g><path d="M 569.0369791666667,76 L 576.0369791666667,73.5 L 576.0369791666667,78.5 Z" transform="rotate(30.96375653207352 569.0369791666667 76)" class="arrow" style="fill:rgb(48, 48, 48);stroke-linejoin:miter;stroke-miterlimit:2;"/></g><g id="sprotty_fsm$st/state$StRandErrWaitExpired_to_fsm$st/state$StRandErr" class="sprotty-edge transition" style="fill:none;stroke:rgb(48, 48, 48);stroke-linejoin:round;"><g><path d=" M317.9375,206 C317.9375,206 309.517734375,216 233.73984375,226"/><path d=" M317.9375,206 C317.9375,206 309.517734375,216 233.73984375,226" class="clickable"/></g><path d="M 233.73984375,226 L 240.73984375,223.5 L 240.73984375,228.5 Z" transform="rotate(-7.51757750525053 233.73984375 226)" class="arrow" style="fill:rgb(48, 48, 48);stroke-linejoin:miter;stroke-miterlimit:2;"/></g><g id="sprotty_fsm$st/state$StRandErrIncorrectMode_to_fsm$st/state$StRandErr" class="sprotty-edge transition" style="fill:none;stroke:rgb(48, 48, 48);stroke-linejoin:round;"><g><path d=" M110.21875,206 C110.21875,206 118.14039062499998,216 189.43515625,226"/><path d=" M110.21875,206 C110.21875,206 118.14039062499998,216 189.43515625,226" class="clickable"/></g><path d="M 189.43515625,226 L 196.43515625,223.5 L 196.43515625,228.5 Z" transform="rotate(-172.01562497906937 189.43515625 226)" class="arrow" style="fill:rgb(48, 48, 48);stroke-linejoin:miter;stroke-miterlimit:2;"/></g><g id="sprotty_fsm$st/state$StRandErr_to_fsm$st/state$StRandReset" class="sprotty-edge transition" style="fill:none;stroke:rgb(48, 48, 48);stroke-linejoin:round;"><g><path d=" M211.5875,226 C218.4375,216 218.4375,211 218.43750000000003,200.1666666666667 C218.43750000000003,189.33333333333337 218.43750000000003,172.66666666666669 218.43750000000003,160.16666666666669 C218.4375,147.66666666666666 218.4375,139.33333333333331 218.4375,131 C218.4375,122.66666666666666 218.43750000000003,114.33333333333334 218.43750000000006,106.41666666666669 C218.43750000000003,98.5 218.4375,91 257.484375,76"/><path d=" M211.5875,226 C218.4375,216 218.4375,211 218.43750000000003,200.1666666666667 C218.43750000000003,189.33333333333337 218.43750000000003,172.66666666666669 218.43750000000003,160.16666666666669 C218.4375,147.66666666666666 218.4375,139.33333333333331 218.4375,131 C218.4375,122.66666666666666 218.43750000000003,114.33333333333334 218.43750000000006,106.41666666666669 C218.43750000000003,98.5 218.4375,91 257.484375,76" class="clickable"/></g><path d="M 257.484375,76 L 264.484375,73.5 L 264.484375,78.5 Z" transform="rotate(158.98553820477463 257.484375 76)" class="arrow" style="fill:rgb(48, 48, 48);stroke-linejoin:miter;stroke-miterlimit:2;"/></g></g></g></svg>