<svg xmlns="http://www.w3.org/2000/svg" id="sprotty_root" class="sprotty-graph sprotty-state-machine statemachine" style="font-family:&quot;Noto Sans&quot;, Helvetica, Arial, sans-serif;perspective-origin:0px 0px;transform-origin:0px 0px;" version="1.1" viewBox="10 10 230.734375 338" width="230.734375" height="338"><g transform="scale(1) translate(0,0)"><g id="sprotty_fsm$kmac_st" transform="translate(15, 15)" class="statemachine"><g class="sprotty-block" style="fill:rgb(255, 255, 255);stroke:rgb(48, 48, 48);stroke-dasharray:0px;"><rect x="0" y="0" rx="1" ry="1" width="220.734375" height="328"/><text x="110.3671875" y="12" class="sprotty-block-name" style="cursor:pointer;font-weight:700;perspective-origin:110.5px 0px;fill:rgb(48, 48, 48);stroke:rgba(0, 0, 0, 0);dominant-baseline:middle;text-anchor:middle;">kmac_st</text><line x1="0" y1="20" x2="220.734375" y2="20"/></g><g id="sprotty_fsm$kmac_st/state$KmacKeyBlock" transform="translate(23, 156)" class="state"><ellipse cx="61.8671875" cy="20" rx="61.8671875" ry="20" class="sprotty-node clickable" style="fill:rgb(255, 255, 255);stroke:rgb(48, 48, 48);"/><text class="clickable sprotty-label state" id="sprotty_fsm$kmac_st/state$KmacKeyBlock/label" transform="translate(6, 8) translate(55.78125, 19)" style="cursor:default;perspective-origin:0.078125px 0px;fill:rgb(48, 48, 48);text-anchor:middle;">KmacKeyBlock</text></g><g id="sprotty_fsm$kmac_st/state$KmacIdle" transform="translate(74.85546874999999, 36)" class="state"><ellipse cx="41.25" cy="20" rx="41.25" ry="20" class="sprotty-node clickable" style="fill:rgb(255, 255, 255);stroke:rgb(48, 48, 48);"/><text class="clickable sprotty-label state" id="sprotty_fsm$kmac_st/state$KmacIdle/label" transform="translate(6, 8) translate(35.1875, 19)" style="cursor:default;perspective-origin:0.0625px 0px;fill:rgb(48, 48, 48);text-anchor:middle;">KmacIdle</text></g><g id="sprotty_fsm$kmac_st/state$KmacMsgFeed" transform="translate(85.74479166666666, 216)" class="state"><ellipse cx="60.03125" cy="20" rx="60.03125" ry="20" class="sprotty-node clickable" style="fill:rgb(255, 255, 255);stroke:rgb(48, 48, 48);"/><text class="clickable sprotty-label state" id="sprotty_fsm$kmac_st/state$KmacMsgFeed/label" transform="translate(6, 8) translate(54.03125, 19)" style="cursor:default;perspective-origin:0px 0px;fill:rgb(48, 48, 48);text-anchor:middle;">KmacMsgFeed</text></g><g id="sprotty_fsm$kmac_st/state$KmacDigest" transform="translate(34.101562499999986, 276)" class="state"><ellipse cx="50.265625" cy="20" rx="50.265625" ry="20" class="sprotty-node clickable" style="fill:rgb(255, 255, 255);stroke:rgb(48, 48, 48);"/><text class="clickable sprotty-label state" id="sprotty_fsm$kmac_st/state$KmacDigest/label" transform="translate(6, 8) translate(44.265625, 19)" style="cursor:default;perspective-origin:0px 0px;fill:rgb(48, 48, 48);text-anchor:middle;">KmacDigest</text></g><g id="sprotty_fsm$kmac_st/state$KmacPrefix" transform="translate(69.20572916666666, 96)" class="state"><ellipse cx="48.625" cy="20" rx="48.625" ry="20" class="sprotty-node clickable" style="fill:rgb(255, 255, 255);stroke:rgb(48, 48, 48);"/><text class="clickable sprotty-label state" id="sprotty_fsm$kmac_st/state$KmacPrefix/label" transform="translate(6, 8) translate(42.609375, 19)" style="cursor:default;perspective-origin:0.015625px 0px;fill:rgb(48, 48, 48);text-anchor:middle;">KmacPrefix</text></g><g id="sprotty_fsm$kmac_st/state$KmacIdle_to_fsm$kmac_st/state$KmacPrefix" class="sprotty-edge transition" style="fill:none;stroke:rgb(48, 48, 48);stroke-linejoin:round;"><g><path d=" M116.10546874999999,76 C116.10546874999999,76 117.65820312499999,86 117.83072916666666,96"/><path d=" M116.10546874999999,76 C116.10546874999999,76 117.65820312499999,86 117.83072916666666,96" class="clickable"/></g><path d="M 117.83072916666666,96 L 124.83072916666666,93.5 L 124.83072916666666,98.5 Z" transform="rotate(-90.98840334528293 117.83072916666666 96)" class="arrow" style="fill:rgb(48, 48, 48);stroke-linejoin:miter;stroke-miterlimit:2;"/></g><g id="sprotty_fsm$kmac_st/state$KmacIdle_to_fsm$kmac_st/state$KmacMsgFeed" class="sprotty-edge transition" style="fill:none;stroke:rgb(48, 48, 48);stroke-linejoin:round;"><g><path d=" M136.73046875,76 C207.734375,86 207.734375,91 207.734375,97.66666666666669 C207.734375,104.33333333333334 207.734375,112.66666666666666 207.734375,121 C207.734375,129.33333333333331 207.734375,137.66666666666669 207.734375,150.16666666666669 C207.734375,162.66666666666669 207.734375,179.33333333333337 207.734375,190.1666666666667 C207.734375,201 207.734375,206 175.79166666666666,216"/><path d=" M136.73046875,76 C207.734375,86 207.734375,91 207.734375,97.66666666666669 C207.734375,104.33333333333334 207.734375,112.66666666666666 207.734375,121 C207.734375,129.33333333333331 207.734375,137.66666666666669 207.734375,150.16666666666669 C207.734375,162.66666666666669 207.734375,179.33333333333337 207.734375,190.1666666666667 C207.734375,201 207.734375,206 175.79166666666666,216" class="clickable"/></g><path d="M 175.79166666666666,216 L 182.79166666666666,213.5 L 182.79166666666666,218.5 Z" transform="rotate(-17.38327671185374 175.79166666666666 216)" class="arrow" style="fill:rgb(48, 48, 48);stroke-linejoin:miter;stroke-miterlimit:2;"/></g><g id="sprotty_fsm$kmac_st/state$KmacPrefix_to_fsm$kmac_st/state$KmacKeyBlock" class="sprotty-edge transition" style="fill:none;stroke:rgb(48, 48, 48);stroke-linejoin:round;"><g><path d=" M101.62239583333333,136 C101.62239583333333,136 86.54270833333334,146 84.8671875,156"/><path d=" M101.62239583333333,136 C101.62239583333333,136 86.54270833333334,146 84.8671875,156" class="clickable"/></g><path d="M 84.8671875,156 L 91.8671875,153.5 L 91.8671875,158.5 Z" transform="rotate(-80.4883253504754 84.8671875 156)" class="arrow" style="fill:rgb(48, 48, 48);stroke-linejoin:miter;stroke-miterlimit:2;"/></g><g id="sprotty_fsm$kmac_st/state$KmacPrefix_to_fsm$kmac_st/state$KmacMsgFeed" class="sprotty-edge transition" style="fill:none;stroke:rgb(48, 48, 48);stroke-linejoin:round;"><g><path d=" M134.0390625,136 C156.734375,146 156.734375,151 156.734375,156.83333333333331 C156.734375,162.66666666666666 156.734375,169.33333333333331 156.734375,176 C156.734375,182.66666666666666 156.734375,189.33333333333331 156.734375,195.16666666666666 C156.734375,201 156.734375,206 145.77604166666666,216"/><path d=" M134.0390625,136 C156.734375,146 156.734375,151 156.734375,156.83333333333331 C156.734375,162.66666666666666 156.734375,169.33333333333331 156.734375,176 C156.734375,182.66666666666666 156.734375,189.33333333333331 156.734375,195.16666666666666 C156.734375,201 156.734375,206 145.77604166666666,216" class="clickable"/></g><path d="M 145.77604166666666,216 L 152.77604166666666,213.5 L 152.77604166666666,218.5 Z" transform="rotate(-42.38193709100313 145.77604166666666 216)" class="arrow" style="fill:rgb(48, 48, 48);stroke-linejoin:miter;stroke-miterlimit:2;"/></g><g id="sprotty_fsm$kmac_st/state$KmacKeyBlock_to_fsm$kmac_st/state$KmacMsgFeed" class="sprotty-edge transition" style="fill:none;stroke:rgb(48, 48, 48);stroke-linejoin:round;"><g><path d=" M84.8671875,196 C84.8671875,196 87.95651041666667,206 115.76041666666666,216"/><path d=" M84.8671875,196 C84.8671875,196 87.95651041666667,206 115.76041666666666,216" class="clickable"/></g><path d="M 115.76041666666666,216 L 122.76041666666666,213.5 L 122.76041666666666,218.5 Z" transform="rotate(-160.2182851541625 115.76041666666666 216)" class="arrow" style="fill:rgb(48, 48, 48);stroke-linejoin:miter;stroke-miterlimit:2;"/></g><g id="sprotty_fsm$kmac_st/state$KmacMsgFeed_to_fsm$kmac_st/state$KmacDigest" class="sprotty-edge transition" style="fill:none;stroke:rgb(48, 48, 48);stroke-linejoin:round;"><g><path d=" M145.77604166666666,256 C145.77604166666666,256 141.31067708333333,266 101.12239583333333,276"/><path d=" M145.77604166666666,256 C145.77604166666666,256 141.31067708333333,266 101.12239583333333,276" class="clickable"/></g><path d="M 101.12239583333333,276 L 108.12239583333333,273.5 L 108.12239583333333,278.5 Z" transform="rotate(-13.973066195976703 101.12239583333333 276)" class="arrow" style="fill:rgb(48, 48, 48);stroke-linejoin:miter;stroke-miterlimit:2;"/></g><g id="sprotty_fsm$kmac_st/state$KmacDigest_to_fsm$kmac_st/state$KmacIdle" class="sprotty-edge transition" style="fill:none;stroke:rgb(48, 48, 48);stroke-linejoin:round;"><g><path d=" M67.61197916666666,276 C12,266 12,261 12,254.3333333333333 C12,247.66666666666663 12,239.3333333333333 12,230.99999999999997 C12,222.66666666666666 12,214.33333333333331 12,200.16666666666666 C12,186 12,166 12,151.83333333333331 C12,137.66666666666669 12,129.33333333333334 12,121 C12,112.66666666666667 12,104.33333333333333 12,97.66666666666666 C12,91 12,86 95.48046874999999,76"/><path d=" M67.61197916666666,276 C12,266 12,261 12,254.3333333333333 C12,247.66666666666663 12,239.3333333333333 12,230.99999999999997 C12,222.66666666666666 12,214.33333333333331 12,200.16666666666666 C12,186 12,166 12,151.83333333333331 C12,137.66666666666669 12,129.33333333333334 12,121 C12,112.66666666666667 12,104.33333333333333 12,97.66666666666666 C12,91 12,86 95.48046874999999,76" class="clickable"/></g><path d="M 95.48046874999999,76 L 102.48046874999999,73.5 L 102.48046874999999,78.5 Z" transform="rotate(173.16917300910364 95.48046874999999 76)" class="arrow" style="fill:rgb(48, 48, 48);stroke-linejoin:miter;stroke-miterlimit:2;"/></g></g></g></svg>