<svg xmlns="http://www.w3.org/2000/svg" id="sprotty_root" class="sprotty-graph sprotty-state-machine statemachine" style="font-family:&quot;Noto Sans&quot;, Helvetica, Arial, sans-serif;perspective-origin:0px 0px;transform-origin:0px 0px;" version="1.1" viewBox="10 10 106.515625 1058" width="106.515625" height="1058"><g transform="scale(1) translate(0,0)"><g id="sprotty_fsm$lc_cnt_i" transform="translate(15, 15)" class="statemachine"><g class="sprotty-block" style="fill:rgb(255, 255, 255);stroke:rgb(48, 48, 48);stroke-dasharray:0px;"><rect x="0" y="0" rx="1" ry="1" width="96.515625" height="1048"/><text x="48.2578125" y="12" class="sprotty-block-name" style="cursor:pointer;font-weight:700;perspective-origin:48.25px 0px;fill:rgb(48, 48, 48);stroke:rgba(0, 0, 0, 0);dominant-baseline:middle;text-anchor:middle;">lc_cnt_i</text><line x1="0" y1="20" x2="96.515625" y2="20"/></g><g id="sprotty_fsm$lc_cnt_i/state$LcCnt5" transform="translate(16.4375, 336)" class="state"><ellipse cx="31.8203125" cy="20" rx="31.8203125" ry="20" class="sprotty-node clickable" style="fill:rgb(255, 255, 255);stroke:rgb(48, 48, 48);"/><text class="clickable sprotty-label state" id="sprotty_fsm$lc_cnt_i/state$LcCnt5/label" transform="translate(6, 8) translate(25.765625, 19)" style="cursor:default;perspective-origin:0.046875px 0px;fill:rgb(48, 48, 48);text-anchor:middle;">LcCnt5</text></g><g id="sprotty_fsm$lc_cnt_i/state$LcCnt4" transform="translate(16.4375, 276)" class="state"><ellipse cx="31.8203125" cy="20" rx="31.8203125" ry="20" class="sprotty-node clickable" style="fill:rgb(255, 255, 255);stroke:rgb(48, 48, 48);"/><text class="clickable sprotty-label state" id="sprotty_fsm$lc_cnt_i/state$LcCnt4/label" transform="translate(6, 8) translate(25.765625, 19)" style="cursor:default;perspective-origin:0.046875px 0px;fill:rgb(48, 48, 48);text-anchor:middle;">LcCnt4</text></g><g id="sprotty_fsm$lc_cnt_i/state$LcCnt3" transform="translate(16.4921875, 216)" class="state"><ellipse cx="31.765625" cy="20" rx="31.765625" ry="20" class="sprotty-node clickable" style="fill:rgb(255, 255, 255);stroke:rgb(48, 48, 48);"/><text class="clickable sprotty-label state" id="sprotty_fsm$lc_cnt_i/state$LcCnt3/label" transform="translate(6, 8) translate(25.765625, 19)" style="cursor:default;perspective-origin:0px 0px;fill:rgb(48, 48, 48);text-anchor:middle;">LcCnt3</text></g><g id="sprotty_fsm$lc_cnt_i/state$LcCnt2" transform="translate(16.4375, 156)" class="state"><ellipse cx="31.8203125" cy="20" rx="31.8203125" ry="20" class="sprotty-node clickable" style="fill:rgb(255, 255, 255);stroke:rgb(48, 48, 48);"/><text class="clickable sprotty-label state" id="sprotty_fsm$lc_cnt_i/state$LcCnt2/label" transform="translate(6, 8) translate(25.765625, 19)" style="cursor:default;perspective-origin:0.046875px 0px;fill:rgb(48, 48, 48);text-anchor:middle;">LcCnt2</text></g><g id="sprotty_fsm$lc_cnt_i/state$LcCnt9" transform="translate(16.4921875, 576)" class="state"><ellipse cx="31.765625" cy="20" rx="31.765625" ry="20" class="sprotty-node clickable" style="fill:rgb(255, 255, 255);stroke:rgb(48, 48, 48);"/><text class="clickable sprotty-label state" id="sprotty_fsm$lc_cnt_i/state$LcCnt9/label" transform="translate(6, 8) translate(25.765625, 19)" style="cursor:default;perspective-origin:0px 0px;fill:rgb(48, 48, 48);text-anchor:middle;">LcCnt9</text></g><g id="sprotty_fsm$lc_cnt_i/state$LcCnt8" transform="translate(16.4375, 516)" class="state"><ellipse cx="31.8203125" cy="20" rx="31.8203125" ry="20" class="sprotty-node clickable" style="fill:rgb(255, 255, 255);stroke:rgb(48, 48, 48);"/><text class="clickable sprotty-label state" id="sprotty_fsm$lc_cnt_i/state$LcCnt8/label" transform="translate(6, 8) translate(25.765625, 19)" style="cursor:default;perspective-origin:0.046875px 0px;fill:rgb(48, 48, 48);text-anchor:middle;">LcCnt8</text></g><g id="sprotty_fsm$lc_cnt_i/state$LcCnt7" transform="translate(16.4375, 456)" class="state"><ellipse cx="31.8203125" cy="20" rx="31.8203125" ry="20" class="sprotty-node clickable" style="fill:rgb(255, 255, 255);stroke:rgb(48, 48, 48);"/><text class="clickable sprotty-label state" id="sprotty_fsm$lc_cnt_i/state$LcCnt7/label" transform="translate(6, 8) translate(25.765625, 19)" style="cursor:default;perspective-origin:0.046875px 0px;fill:rgb(48, 48, 48);text-anchor:middle;">LcCnt7</text></g><g id="sprotty_fsm$lc_cnt_i/state$LcCnt6" transform="translate(16.4375, 396)" class="state"><ellipse cx="31.8203125" cy="20" rx="31.8203125" ry="20" class="sprotty-node clickable" style="fill:rgb(255, 255, 255);stroke:rgb(48, 48, 48);"/><text class="clickable sprotty-label state" id="sprotty_fsm$lc_cnt_i/state$LcCnt6/label" transform="translate(6, 8) translate(25.765625, 19)" style="cursor:default;perspective-origin:0.046875px 0px;fill:rgb(48, 48, 48);text-anchor:middle;">LcCnt6</text></g><g id="sprotty_fsm$lc_cnt_i/state$LcCnt14" transform="translate(12, 876)" class="state"><ellipse cx="36.2578125" cy="20" rx="36.2578125" ry="20" class="sprotty-node clickable" style="fill:rgb(255, 255, 255);stroke:rgb(48, 48, 48);"/><text class="clickable sprotty-label state" id="sprotty_fsm$lc_cnt_i/state$LcCnt14/label" transform="translate(6, 8) translate(30.203125, 19)" style="cursor:default;perspective-origin:0.046875px 0px;fill:rgb(48, 48, 48);text-anchor:middle;">LcCnt14</text></g><g id="sprotty_fsm$lc_cnt_i/state$LcCnt13" transform="translate(12.0546875, 816)" class="state"><ellipse cx="36.203125" cy="20" rx="36.203125" ry="20" class="sprotty-node clickable" style="fill:rgb(255, 255, 255);stroke:rgb(48, 48, 48);"/><text class="clickable sprotty-label state" id="sprotty_fsm$lc_cnt_i/state$LcCnt13/label" transform="translate(6, 8) translate(30.203125, 19)" style="cursor:default;perspective-origin:0px 0px;fill:rgb(48, 48, 48);text-anchor:middle;">LcCnt13</text></g><g id="sprotty_fsm$lc_cnt_i/state$LcCnt16" transform="translate(12, 996)" class="state"><ellipse cx="36.2578125" cy="20" rx="36.2578125" ry="20" class="sprotty-node clickable" style="fill:rgb(255, 255, 255);stroke:rgb(48, 48, 48);"/><text class="clickable sprotty-label state" id="sprotty_fsm$lc_cnt_i/state$LcCnt16/label" transform="translate(6, 8) translate(30.203125, 19)" style="cursor:default;perspective-origin:0.046875px 0px;fill:rgb(48, 48, 48);text-anchor:middle;">LcCnt16</text></g><g id="sprotty_fsm$lc_cnt_i/state$LcCnt15" transform="translate(12, 936)" class="state"><ellipse cx="36.2578125" cy="20" rx="36.2578125" ry="20" class="sprotty-node clickable" style="fill:rgb(255, 255, 255);stroke:rgb(48, 48, 48);"/><text class="clickable sprotty-label state" id="sprotty_fsm$lc_cnt_i/state$LcCnt15/label" transform="translate(6, 8) translate(30.203125, 19)" style="cursor:default;perspective-origin:0.046875px 0px;fill:rgb(48, 48, 48);text-anchor:middle;">LcCnt15</text></g><g id="sprotty_fsm$lc_cnt_i/state$LcCnt1" transform="translate(16.4921875, 96)" class="state"><ellipse cx="31.765625" cy="20" rx="31.765625" ry="20" class="sprotty-node clickable" style="fill:rgb(255, 255, 255);stroke:rgb(48, 48, 48);"/><text class="clickable sprotty-label state" id="sprotty_fsm$lc_cnt_i/state$LcCnt1/label" transform="translate(6, 8) translate(25.765625, 19)" style="cursor:default;perspective-origin:0px 0px;fill:rgb(48, 48, 48);text-anchor:middle;">LcCnt1</text></g><g id="sprotty_fsm$lc_cnt_i/state$LcCnt10" transform="translate(12, 636)" class="state"><ellipse cx="36.2578125" cy="20" rx="36.2578125" ry="20" class="sprotty-node clickable" style="fill:rgb(255, 255, 255);stroke:rgb(48, 48, 48);"/><text class="clickable sprotty-label state" id="sprotty_fsm$lc_cnt_i/state$LcCnt10/label" transform="translate(6, 8) translate(30.203125, 19)" style="cursor:default;perspective-origin:0.046875px 0px;fill:rgb(48, 48, 48);text-anchor:middle;">LcCnt10</text></g><g id="sprotty_fsm$lc_cnt_i/state$LcCnt0" transform="translate(16.4375, 36)" class="state"><ellipse cx="31.8203125" cy="20" rx="31.8203125" ry="20" class="sprotty-node clickable" style="fill:rgb(255, 255, 255);stroke:rgb(48, 48, 48);"/><text class="clickable sprotty-label state" id="sprotty_fsm$lc_cnt_i/state$LcCnt0/label" transform="translate(6, 8) translate(25.765625, 19)" style="cursor:default;perspective-origin:0.046875px 0px;fill:rgb(48, 48, 48);text-anchor:middle;">LcCnt0</text></g><g id="sprotty_fsm$lc_cnt_i/state$LcCnt12" transform="translate(12, 756)" class="state"><ellipse cx="36.2578125" cy="20" rx="36.2578125" ry="20" class="sprotty-node clickable" style="fill:rgb(255, 255, 255);stroke:rgb(48, 48, 48);"/><text class="clickable sprotty-label state" id="sprotty_fsm$lc_cnt_i/state$LcCnt12/label" transform="translate(6, 8) translate(30.203125, 19)" style="cursor:default;perspective-origin:0.046875px 0px;fill:rgb(48, 48, 48);text-anchor:middle;">LcCnt12</text></g><g id="sprotty_fsm$lc_cnt_i/state$LcCnt11" transform="translate(12.0546875, 696)" class="state"><ellipse cx="36.203125" cy="20" rx="36.203125" ry="20" class="sprotty-node clickable" style="fill:rgb(255, 255, 255);stroke:rgb(48, 48, 48);"/><text class="clickable sprotty-label state" id="sprotty_fsm$lc_cnt_i/state$LcCnt11/label" transform="translate(6, 8) translate(30.203125, 19)" style="cursor:default;perspective-origin:0px 0px;fill:rgb(48, 48, 48);text-anchor:middle;">LcCnt11</text></g><g id="sprotty_fsm$lc_cnt_i/state$LcCnt0_to_fsm$lc_cnt_i/state$LcCnt1" class="sprotty-edge transition" style="fill:none;stroke:rgb(48, 48, 48);stroke-linejoin:round;"><g><path d=" M48.2578125,76 C48.2578125,76 48.2578125,86 48.2578125,96"/><path d=" M48.2578125,76 C48.2578125,76 48.2578125,86 48.2578125,96" class="clickable"/></g><path d="M 48.2578125,96 L 55.2578125,93.5 L 55.2578125,98.5 Z" transform="rotate(-90 48.2578125 96)" class="arrow" style="fill:rgb(48, 48, 48);stroke-linejoin:miter;stroke-miterlimit:2;"/></g><g id="sprotty_fsm$lc_cnt_i/state$LcCnt1_to_fsm$lc_cnt_i/state$LcCnt2" class="sprotty-edge transition" style="fill:none;stroke:rgb(48, 48, 48);stroke-linejoin:round;"><g><path d=" M48.2578125,136 C48.2578125,136 48.2578125,146 48.2578125,156"/><path d=" M48.2578125,136 C48.2578125,136 48.2578125,146 48.2578125,156" class="clickable"/></g><path d="M 48.2578125,156 L 55.2578125,153.5 L 55.2578125,158.5 Z" transform="rotate(-90 48.2578125 156)" class="arrow" style="fill:rgb(48, 48, 48);stroke-linejoin:miter;stroke-miterlimit:2;"/></g><g id="sprotty_fsm$lc_cnt_i/state$LcCnt2_to_fsm$lc_cnt_i/state$LcCnt3" class="sprotty-edge transition" style="fill:none;stroke:rgb(48, 48, 48);stroke-linejoin:round;"><g><path d=" M48.2578125,196 C48.2578125,196 48.2578125,206 48.2578125,216"/><path d=" M48.2578125,196 C48.2578125,196 48.2578125,206 48.2578125,216" class="clickable"/></g><path d="M 48.2578125,216 L 55.2578125,213.5 L 55.2578125,218.5 Z" transform="rotate(-90 48.2578125 216)" class="arrow" style="fill:rgb(48, 48, 48);stroke-linejoin:miter;stroke-miterlimit:2;"/></g><g id="sprotty_fsm$lc_cnt_i/state$LcCnt3_to_fsm$lc_cnt_i/state$LcCnt4" class="sprotty-edge transition" style="fill:none;stroke:rgb(48, 48, 48);stroke-linejoin:round;"><g><path d=" M48.2578125,256 C48.2578125,256 48.2578125,266 48.2578125,276"/><path d=" M48.2578125,256 C48.2578125,256 48.2578125,266 48.2578125,276" class="clickable"/></g><path d="M 48.2578125,276 L 55.2578125,273.5 L 55.2578125,278.5 Z" transform="rotate(-90 48.2578125 276)" class="arrow" style="fill:rgb(48, 48, 48);stroke-linejoin:miter;stroke-miterlimit:2;"/></g><g id="sprotty_fsm$lc_cnt_i/state$LcCnt4_to_fsm$lc_cnt_i/state$LcCnt5" class="sprotty-edge transition" style="fill:none;stroke:rgb(48, 48, 48);stroke-linejoin:round;"><g><path d=" M48.2578125,316 C48.2578125,316 48.2578125,326 48.2578125,336"/><path d=" M48.2578125,316 C48.2578125,316 48.2578125,326 48.2578125,336" class="clickable"/></g><path d="M 48.2578125,336 L 55.2578125,333.5 L 55.2578125,338.5 Z" transform="rotate(-90 48.2578125 336)" class="arrow" style="fill:rgb(48, 48, 48);stroke-linejoin:miter;stroke-miterlimit:2;"/></g><g id="sprotty_fsm$lc_cnt_i/state$LcCnt5_to_fsm$lc_cnt_i/state$LcCnt6" class="sprotty-edge transition" style="fill:none;stroke:rgb(48, 48, 48);stroke-linejoin:round;"><g><path d=" M48.2578125,376 C48.2578125,376 48.2578125,386 48.2578125,396"/><path d=" M48.2578125,376 C48.2578125,376 48.2578125,386 48.2578125,396" class="clickable"/></g><path d="M 48.2578125,396 L 55.2578125,393.5 L 55.2578125,398.5 Z" transform="rotate(-90 48.2578125 396)" class="arrow" style="fill:rgb(48, 48, 48);stroke-linejoin:miter;stroke-miterlimit:2;"/></g><g id="sprotty_fsm$lc_cnt_i/state$LcCnt6_to_fsm$lc_cnt_i/state$LcCnt7" class="sprotty-edge transition" style="fill:none;stroke:rgb(48, 48, 48);stroke-linejoin:round;"><g><path d=" M48.2578125,436 C48.2578125,436 48.2578125,446 48.2578125,456"/><path d=" M48.2578125,436 C48.2578125,436 48.2578125,446 48.2578125,456" class="clickable"/></g><path d="M 48.2578125,456 L 55.2578125,453.5 L 55.2578125,458.5 Z" transform="rotate(-90 48.2578125 456)" class="arrow" style="fill:rgb(48, 48, 48);stroke-linejoin:miter;stroke-miterlimit:2;"/></g><g id="sprotty_fsm$lc_cnt_i/state$LcCnt7_to_fsm$lc_cnt_i/state$LcCnt8" class="sprotty-edge transition" style="fill:none;stroke:rgb(48, 48, 48);stroke-linejoin:round;"><g><path d=" M48.2578125,496 C48.2578125,496 48.2578125,506 48.2578125,516"/><path d=" M48.2578125,496 C48.2578125,496 48.2578125,506 48.2578125,516" class="clickable"/></g><path d="M 48.2578125,516 L 55.2578125,513.5 L 55.2578125,518.5 Z" transform="rotate(-90 48.2578125 516)" class="arrow" style="fill:rgb(48, 48, 48);stroke-linejoin:miter;stroke-miterlimit:2;"/></g><g id="sprotty_fsm$lc_cnt_i/state$LcCnt8_to_fsm$lc_cnt_i/state$LcCnt9" class="sprotty-edge transition" style="fill:none;stroke:rgb(48, 48, 48);stroke-linejoin:round;"><g><path d=" M48.2578125,556 C48.2578125,556 48.2578125,566 48.2578125,576"/><path d=" M48.2578125,556 C48.2578125,556 48.2578125,566 48.2578125,576" class="clickable"/></g><path d="M 48.2578125,576 L 55.2578125,573.5 L 55.2578125,578.5 Z" transform="rotate(-90 48.2578125 576)" class="arrow" style="fill:rgb(48, 48, 48);stroke-linejoin:miter;stroke-miterlimit:2;"/></g><g id="sprotty_fsm$lc_cnt_i/state$LcCnt9_to_fsm$lc_cnt_i/state$LcCnt10" class="sprotty-edge transition" style="fill:none;stroke:rgb(48, 48, 48);stroke-linejoin:round;"><g><path d=" M48.2578125,616 C48.2578125,616 48.2578125,626 48.2578125,636"/><path d=" M48.2578125,616 C48.2578125,616 48.2578125,626 48.2578125,636" class="clickable"/></g><path d="M 48.2578125,636 L 55.2578125,633.5 L 55.2578125,638.5 Z" transform="rotate(-90 48.2578125 636)" class="arrow" style="fill:rgb(48, 48, 48);stroke-linejoin:miter;stroke-miterlimit:2;"/></g><g id="sprotty_fsm$lc_cnt_i/state$LcCnt10_to_fsm$lc_cnt_i/state$LcCnt11" class="sprotty-edge transition" style="fill:none;stroke:rgb(48, 48, 48);stroke-linejoin:round;"><g><path d=" M48.2578125,676 C48.2578125,676 48.2578125,686 48.2578125,696"/><path d=" M48.2578125,676 C48.2578125,676 48.2578125,686 48.2578125,696" class="clickable"/></g><path d="M 48.2578125,696 L 55.2578125,693.5 L 55.2578125,698.5 Z" transform="rotate(-90 48.2578125 696)" class="arrow" style="fill:rgb(48, 48, 48);stroke-linejoin:miter;stroke-miterlimit:2;"/></g><g id="sprotty_fsm$lc_cnt_i/state$LcCnt11_to_fsm$lc_cnt_i/state$LcCnt12" class="sprotty-edge transition" style="fill:none;stroke:rgb(48, 48, 48);stroke-linejoin:round;"><g><path d=" M48.2578125,736 C48.2578125,736 48.2578125,746 48.2578125,756"/><path d=" M48.2578125,736 C48.2578125,736 48.2578125,746 48.2578125,756" class="clickable"/></g><path d="M 48.2578125,756 L 55.2578125,753.5 L 55.2578125,758.5 Z" transform="rotate(-90 48.2578125 756)" class="arrow" style="fill:rgb(48, 48, 48);stroke-linejoin:miter;stroke-miterlimit:2;"/></g><g id="sprotty_fsm$lc_cnt_i/state$LcCnt12_to_fsm$lc_cnt_i/state$LcCnt13" class="sprotty-edge transition" style="fill:none;stroke:rgb(48, 48, 48);stroke-linejoin:round;"><g><path d=" M48.2578125,796 C48.2578125,796 48.2578125,806 48.2578125,816"/><path d=" M48.2578125,796 C48.2578125,796 48.2578125,806 48.2578125,816" class="clickable"/></g><path d="M 48.2578125,816 L 55.2578125,813.5 L 55.2578125,818.5 Z" transform="rotate(-90 48.2578125 816)" class="arrow" style="fill:rgb(48, 48, 48);stroke-linejoin:miter;stroke-miterlimit:2;"/></g><g id="sprotty_fsm$lc_cnt_i/state$LcCnt13_to_fsm$lc_cnt_i/state$LcCnt14" class="sprotty-edge transition" style="fill:none;stroke:rgb(48, 48, 48);stroke-linejoin:round;"><g><path d=" M48.2578125,856 C48.2578125,856 48.2578125,866 48.2578125,876"/><path d=" M48.2578125,856 C48.2578125,856 48.2578125,866 48.2578125,876" class="clickable"/></g><path d="M 48.2578125,876 L 55.2578125,873.5 L 55.2578125,878.5 Z" transform="rotate(-90 48.2578125 876)" class="arrow" style="fill:rgb(48, 48, 48);stroke-linejoin:miter;stroke-miterlimit:2;"/></g><g id="sprotty_fsm$lc_cnt_i/state$LcCnt14_to_fsm$lc_cnt_i/state$LcCnt15" class="sprotty-edge transition" style="fill:none;stroke:rgb(48, 48, 48);stroke-linejoin:round;"><g><path d=" M48.2578125,916 C48.2578125,916 48.2578125,926 48.2578125,936"/><path d=" M48.2578125,916 C48.2578125,916 48.2578125,926 48.2578125,936" class="clickable"/></g><path d="M 48.2578125,936 L 55.2578125,933.5 L 55.2578125,938.5 Z" transform="rotate(-90 48.2578125 936)" class="arrow" style="fill:rgb(48, 48, 48);stroke-linejoin:miter;stroke-miterlimit:2;"/></g><g id="sprotty_fsm$lc_cnt_i/state$LcCnt15_to_fsm$lc_cnt_i/state$LcCnt16" class="sprotty-edge transition" style="fill:none;stroke:rgb(48, 48, 48);stroke-linejoin:round;"><g><path d=" M48.2578125,976 C48.2578125,976 48.2578125,986 48.2578125,996"/><path d=" M48.2578125,976 C48.2578125,976 48.2578125,986 48.2578125,996" class="clickable"/></g><path d="M 48.2578125,996 L 55.2578125,993.5 L 55.2578125,998.5 Z" transform="rotate(-90 48.2578125 996)" class="arrow" style="fill:rgb(48, 48, 48);stroke-linejoin:miter;stroke-miterlimit:2;"/></g></g></g></svg>