<svg xmlns="http://www.w3.org/2000/svg" id="sprotty_root" class="sprotty-graph sprotty-state-machine statemachine" style="font-family:&quot;Noto Sans&quot;, Helvetica, Arial, sans-serif;perspective-origin:0px 0px;transform-origin:0px 0px;" version="1.1" viewBox="10 10 593.3125 778" width="593.3125" height="778"><g transform="scale(1) translate(0,0)"><g id="sprotty_fsm$fsm_state_q" transform="translate(15, 15)" class="statemachine"><g class="sprotty-block" style="fill:rgb(255, 255, 255);stroke:rgb(48, 48, 48);stroke-dasharray:0px;"><rect x="0" y="0" rx="1" ry="1" width="583.3125" height="768"/><text x="291.65625" y="12" class="sprotty-block-name" style="cursor:pointer;font-weight:700;perspective-origin:291.656px 0px;fill:rgb(48, 48, 48);stroke:rgba(0, 0, 0, 0);dominant-baseline:middle;text-anchor:middle;">fsm_state_q</text><line x1="0" y1="20" x2="583.3125" y2="20"/></g><g id="sprotty_fsm$fsm_state_q/state$EscalateSt" transform="translate(109.53125, 36)" class="dead state"><ellipse cx="44.359375" cy="20" rx="44.359375" ry="20" class="sprotty-node clickable" style="fill:rgb(194, 94, 95);stroke:rgb(135, 51, 52);"/><text class="clickable sprotty-label state" id="sprotty_fsm$fsm_state_q/state$EscalateSt/label" transform="translate(6, 8) translate(38.359375, 19)" style="cursor:default;perspective-origin:0px 0px;fill:rgb(48, 48, 48);text-anchor:middle;">EscalateSt</text></g><g id="sprotty_fsm$fsm_state_q/state$TokenHashSt" transform="translate(452.90625, 396)" class="state"><ellipse cx="55.140625" cy="20" rx="55.140625" ry="20" class="sprotty-node clickable" style="fill:rgb(255, 255, 255);stroke:rgb(48, 48, 48);"/><text class="clickable sprotty-label state" id="sprotty_fsm$fsm_state_q/state$TokenHashSt/label" transform="translate(6, 8) translate(49.140625, 19)" style="cursor:default;perspective-origin:0px 0px;fill:rgb(48, 48, 48);text-anchor:middle;">TokenHashSt</text></g><g id="sprotty_fsm$fsm_state_q/state$ResetSt" transform="translate(334.16666666666663, 36)" class="state"><ellipse cx="34.109375" cy="20" rx="34.109375" ry="20" class="sprotty-node clickable" style="fill:rgb(255, 255, 255);stroke:rgb(48, 48, 48);"/><text class="clickable sprotty-label state" id="sprotty_fsm$fsm_state_q/state$ResetSt/label" transform="translate(6, 8) translate(28.109375, 19)" style="cursor:default;perspective-origin:0px 0px;fill:rgb(48, 48, 48);text-anchor:middle;">ResetSt</text></g><g id="sprotty_fsm$fsm_state_q/state$IdleSt" transform="translate(340.85416666666663, 96)" class="state"><ellipse cx="27.421875" cy="20" rx="27.421875" ry="20" class="sprotty-node clickable" style="fill:rgb(255, 255, 255);stroke:rgb(48, 48, 48);"/><text class="clickable sprotty-label state" id="sprotty_fsm$fsm_state_q/state$IdleSt/label" transform="translate(6, 8) translate(21.421875, 19)" style="cursor:default;perspective-origin:0px 0px;fill:rgb(48, 48, 48);text-anchor:middle;">IdleSt</text></g><g id="sprotty_fsm$fsm_state_q/state$TokenCheck1St" transform="translate(382.25, 576)" class="state"><ellipse cx="63.53125" cy="20" rx="63.53125" ry="20" class="sprotty-node clickable" style="fill:rgb(255, 255, 255);stroke:rgb(48, 48, 48);"/><text class="clickable sprotty-label state" id="sprotty_fsm$fsm_state_q/state$TokenCheck1St/label" transform="translate(6, 8) translate(57.53125, 19)" style="cursor:default;perspective-origin:0px 0px;fill:rgb(48, 48, 48);text-anchor:middle;">TokenCheck1St</text></g><g id="sprotty_fsm$fsm_state_q/state$TokenCheck0St" transform="translate(382.25, 516)" class="state"><ellipse cx="63.53125" cy="20" rx="63.53125" ry="20" class="sprotty-node clickable" style="fill:rgb(255, 255, 255);stroke:rgb(48, 48, 48);"/><text class="clickable sprotty-label state" id="sprotty_fsm$fsm_state_q/state$TokenCheck0St/label" transform="translate(6, 8) translate(57.53125, 19)" style="cursor:default;perspective-origin:0px 0px;fill:rgb(48, 48, 48);text-anchor:middle;">TokenCheck0St</text></g><g id="sprotty_fsm$fsm_state_q/state$ClkMuxSt" transform="translate(327.58854166666663, 156)" class="state"><ellipse cx="40.6875" cy="20" rx="40.6875" ry="20" class="sprotty-node clickable" style="fill:rgb(255, 255, 255);stroke:rgb(48, 48, 48);"/><text class="clickable sprotty-label state" id="sprotty_fsm$fsm_state_q/state$ClkMuxSt/label" transform="translate(6, 8) translate(34.6875, 19)" style="cursor:default;perspective-origin:0px 0px;fill:rgb(48, 48, 48);text-anchor:middle;">ClkMuxSt</text></g><g id="sprotty_fsm$fsm_state_q/state$CntIncrSt" transform="translate(327.27604166666663, 216)" class="state"><ellipse cx="41" cy="20" rx="41" ry="20" class="sprotty-node clickable" style="fill:rgb(255, 255, 255);stroke:rgb(48, 48, 48);"/><text class="clickable sprotty-label state" id="sprotty_fsm$fsm_state_q/state$CntIncrSt/label" transform="translate(6, 8) translate(35, 19)" style="cursor:default;perspective-origin:0px 0px;fill:rgb(48, 48, 48);text-anchor:middle;">CntIncrSt</text></g><g id="sprotty_fsm$fsm_state_q/state$InvalidSt" transform="translate(12, 36)" class="dead state"><ellipse cx="38.765625" cy="20" rx="38.765625" ry="20" class="sprotty-node clickable" style="fill:rgb(194, 94, 95);stroke:rgb(135, 51, 52);"/><text class="clickable sprotty-label state" id="sprotty_fsm$fsm_state_q/state$InvalidSt/label" transform="translate(6, 8) translate(32.765625, 19)" style="cursor:default;perspective-origin:0px 0px;fill:rgb(48, 48, 48);text-anchor:middle;">InvalidSt</text></g><g id="sprotty_fsm$fsm_state_q/state$FlashRmaSt" transform="translate(395.390625, 456)" class="state"><ellipse cx="50.390625" cy="20" rx="50.390625" ry="20" class="sprotty-node clickable" style="fill:rgb(255, 255, 255);stroke:rgb(48, 48, 48);"/><text class="clickable sprotty-label state" id="sprotty_fsm$fsm_state_q/state$FlashRmaSt/label" transform="translate(6, 8) translate(44.390625, 19)" style="cursor:default;perspective-origin:0px 0px;fill:rgb(48, 48, 48);text-anchor:middle;">FlashRmaSt</text></g><g id="sprotty_fsm$fsm_state_q/state$TransCheckSt" transform="translate(379.2161458333333, 336)" class="state"><ellipse cx="56.875" cy="20" rx="56.875" ry="20" class="sprotty-node clickable" style="fill:rgb(255, 255, 255);stroke:rgb(48, 48, 48);"/><text class="clickable sprotty-label state" id="sprotty_fsm$fsm_state_q/state$TransCheckSt/label" transform="translate(6, 8) translate(50.875, 19)" style="cursor:default;perspective-origin:0px 0px;fill:rgb(48, 48, 48);text-anchor:middle;">TransCheckSt</text></g><g id="sprotty_fsm$fsm_state_q/state$TransProgSt" transform="translate(336.96875, 636)" class="state"><ellipse cx="51.421875" cy="20" rx="51.421875" ry="20" class="sprotty-node clickable" style="fill:rgb(255, 255, 255);stroke:rgb(48, 48, 48);"/><text class="clickable sprotty-label state" id="sprotty_fsm$fsm_state_q/state$TransProgSt/label" transform="translate(6, 8) translate(45.421875, 19)" style="cursor:default;perspective-origin:0px 0px;fill:rgb(48, 48, 48);text-anchor:middle;">TransProgSt</text></g><g id="sprotty_fsm$fsm_state_q/state$PostTransSt" transform="translate(338.25, 716)" class="state"><ellipse cx="50.140625" cy="20" rx="50.140625" ry="20" class="sprotty-node clickable" style="fill:rgb(255, 255, 255);stroke:rgb(48, 48, 48);"/><text class="clickable sprotty-label state" id="sprotty_fsm$fsm_state_q/state$PostTransSt/label" transform="translate(6, 8) translate(44.140625, 19)" style="cursor:default;perspective-origin:0px 0px;fill:rgb(48, 48, 48);text-anchor:middle;">PostTransSt</text></g><g id="sprotty_fsm$fsm_state_q/state$CntProgSt" transform="translate(357.09635416666663, 276)" class="state"><ellipse cx="44.015625" cy="20" rx="44.015625" ry="20" class="sprotty-node clickable" style="fill:rgb(255, 255, 255);stroke:rgb(48, 48, 48);"/><text class="clickable sprotty-label state" id="sprotty_fsm$fsm_state_q/state$CntProgSt/label" transform="translate(6, 8) translate(38.015625, 19)" style="cursor:default;perspective-origin:0px 0px;fill:rgb(48, 48, 48);text-anchor:middle;">CntProgSt</text></g><g id="sprotty_fsm$fsm_state_q/state$ResetSt_to_fsm$fsm_state_q/state$IdleSt" class="sprotty-edge transition" style="fill:none;stroke:rgb(48, 48, 48);stroke-linejoin:round;"><g><path d=" M368.27604166666663,76 C368.27604166666663,76 368.27604166666663,86 368.27604166666663,96"/><path d=" M368.27604166666663,76 C368.27604166666663,76 368.27604166666663,86 368.27604166666663,96" class="clickable"/></g><path d="M 368.27604166666663,96 L 375.27604166666663,93.5 L 375.27604166666663,98.5 Z" transform="rotate(-90 368.27604166666663 96)" class="arrow" style="fill:rgb(48, 48, 48);stroke-linejoin:miter;stroke-miterlimit:2;"/></g><g id="sprotty_fsm$fsm_state_q/state$IdleSt_to_fsm$fsm_state_q/state$ClkMuxSt" class="sprotty-edge transition" style="fill:none;stroke:rgb(48, 48, 48);stroke-linejoin:round;"><g><path d=" M368.27604166666663,136 C368.27604166666663,136 368.27604166666663,146 368.27604166666663,156"/><path d=" M368.27604166666663,136 C368.27604166666663,136 368.27604166666663,146 368.27604166666663,156" class="clickable"/></g><path d="M 368.27604166666663,156 L 375.27604166666663,153.5 L 375.27604166666663,158.5 Z" transform="rotate(-90 368.27604166666663 156)" class="arrow" style="fill:rgb(48, 48, 48);stroke-linejoin:miter;stroke-miterlimit:2;"/></g><g id="sprotty_fsm$fsm_state_q/state$ClkMuxSt_to_fsm$fsm_state_q/state$CntIncrSt" class="sprotty-edge transition" style="fill:none;stroke:rgb(48, 48, 48);stroke-linejoin:round;"><g><path d=" M368.27604166666663,196 C368.27604166666663,196 368.27604166666663,206 368.27604166666663,216"/><path d=" M368.27604166666663,196 C368.27604166666663,196 368.27604166666663,206 368.27604166666663,216" class="clickable"/></g><path d="M 368.27604166666663,216 L 375.27604166666663,213.5 L 375.27604166666663,218.5 Z" transform="rotate(-90 368.27604166666663 216)" class="arrow" style="fill:rgb(48, 48, 48);stroke-linejoin:miter;stroke-miterlimit:2;"/></g><g id="sprotty_fsm$fsm_state_q/state$CntIncrSt_to_fsm$fsm_state_q/state$PostTransSt" class="sprotty-edge transition" style="fill:none;stroke:rgb(48, 48, 48);stroke-linejoin:round;"><g><path d=" M354.60937499999994,256 C218.25,266 218.25,271.00000000000006 218.25,277.66666666666674 C218.25,284.33333333333337 218.25,292.6666666666667 218.25,301 C218.25,309.3333333333333 218.25,317.6666666666667 218.25,331.8333333333333 C218.25,346 218.25,366 218.25,381 C218.25,396 218.25,406 218.25,416.00000000000006 C218.25,426 218.25,436 218.25,451 C218.25,465.99999999999994 218.25,486 218.25,500.99999999999994 C218.25,516 218.25,526 218.25,536 C218.25,546 218.25,556.0000000000001 218.25,571.0000000000001 C218.25,586 218.25,606.0000000000001 218.25,620.1666666666667 C218.25,634.3333333333334 218.25,642.6666666666667 218.25,651 C218.25,659.3333333333333 218.25,667.6666666666667 218.25,676.8333333333334 C218.25,686 218.25,696 350.78515625,716"/><path d=" M354.60937499999994,256 C218.25,266 218.25,271.00000000000006 218.25,277.66666666666674 C218.25,284.33333333333337 218.25,292.6666666666667 218.25,301 C218.25,309.3333333333333 218.25,317.6666666666667 218.25,331.8333333333333 C218.25,346 218.25,366 218.25,381 C218.25,396 218.25,406 218.25,416.00000000000006 C218.25,426 218.25,436 218.25,451 C218.25,465.99999999999994 218.25,486 218.25,500.99999999999994 C218.25,516 218.25,526 218.25,536 C218.25,546 218.25,556.0000000000001 218.25,571.0000000000001 C218.25,586 218.25,606.0000000000001 218.25,620.1666666666667 C218.25,634.3333333333334 218.25,642.6666666666667 218.25,651 C218.25,659.3333333333333 218.25,667.6666666666667 218.25,676.8333333333334 C218.25,686 218.25,696 350.78515625,716" class="clickable"/></g><path d="M 350.78515625,716 L 357.78515625,713.5 L 357.78515625,718.5 Z" transform="rotate(-171.41862150751754 350.78515625 716)" class="arrow" style="fill:rgb(48, 48, 48);stroke-linejoin:miter;stroke-miterlimit:2;"/></g><g id="sprotty_fsm$fsm_state_q/state$CntIncrSt_to_fsm$fsm_state_q/state$CntProgSt" class="sprotty-edge transition" style="fill:none;stroke:rgb(48, 48, 48);stroke-linejoin:round;"><g><path d=" M381.9427083333333,256 C381.9427083333333,256 399.19505208333334,266 401.11197916666663,276"/><path d=" M381.9427083333333,256 C381.9427083333333,256 399.19505208333334,266 401.11197916666663,276" class="clickable"/></g><path d="M 401.11197916666663,276 L 408.11197916666663,273.5 L 408.11197916666663,278.5 Z" transform="rotate(-100.85154382960091 401.11197916666663 276)" class="arrow" style="fill:rgb(48, 48, 48);stroke-linejoin:miter;stroke-miterlimit:2;"/></g><g id="sprotty_fsm$fsm_state_q/state$CntProgSt_to_fsm$fsm_state_q/state$PostTransSt" class="sprotty-edge transition" style="fill:none;stroke:rgb(48, 48, 48);stroke-linejoin:round;"><g><path d=" M386.44010416666663,316 C269.25,326 269.25,331 269.25,337.66666666666674 C269.25,344.33333333333337 269.25,352.66666666666674 269.25,361.00000000000006 C269.25,369.33333333333337 269.25,377.6666666666667 269.25,391.83333333333337 C269.25,406 269.25,426 269.25,441 C269.25,456 269.25,466 269.25,476 C269.25,486 269.25,495.99999999999994 269.25,511 C269.25,526 269.25,546 269.25,561.0000000000001 C269.25,576.0000000000001 269.25,586 269.25,596 C269.25,606 269.25,616 269.25,629.3333333333334 C269.25,642.6666666666666 269.25,659.3333333333333 269.25,672.6666666666666 C269.25,686 269.25,696 363.3203125,716"/><path d=" M386.44010416666663,316 C269.25,326 269.25,331 269.25,337.66666666666674 C269.25,344.33333333333337 269.25,352.66666666666674 269.25,361.00000000000006 C269.25,369.33333333333337 269.25,377.6666666666667 269.25,391.83333333333337 C269.25,406 269.25,426 269.25,441 C269.25,456 269.25,466 269.25,476 C269.25,486 269.25,495.99999999999994 269.25,511 C269.25,526 269.25,546 269.25,561.0000000000001 C269.25,576.0000000000001 269.25,586 269.25,596 C269.25,606 269.25,616 269.25,629.3333333333334 C269.25,642.6666666666666 269.25,659.3333333333333 269.25,672.6666666666666 C269.25,686 269.25,696 363.3203125,716" class="clickable"/></g><path d="M 363.3203125,716 L 370.3203125,713.5 L 370.3203125,718.5 Z" transform="rotate(-167.9972390857303 363.3203125 716)" class="arrow" style="fill:rgb(48, 48, 48);stroke-linejoin:miter;stroke-miterlimit:2;"/></g><g id="sprotty_fsm$fsm_state_q/state$CntProgSt_to_fsm$fsm_state_q/state$TransCheckSt" class="sprotty-edge transition" style="fill:none;stroke:rgb(48, 48, 48);stroke-linejoin:round;"><g><path d=" M415.78385416666663,316 C415.78385416666663,316 434.0604166666667,326 436.0911458333333,336"/><path d=" M415.78385416666663,316 C415.78385416666663,316 434.0604166666667,326 436.0911458333333,336" class="clickable"/></g><path d="M 436.0911458333333,336 L 443.0911458333333,333.5 L 443.0911458333333,338.5 Z" transform="rotate(-101.47912541716052 436.0911458333333 336)" class="arrow" style="fill:rgb(48, 48, 48);stroke-linejoin:miter;stroke-miterlimit:2;"/></g><g id="sprotty_fsm$fsm_state_q/state$TransCheckSt_to_fsm$fsm_state_q/state$PostTransSt" class="sprotty-edge transition" style="fill:none;stroke:rgb(48, 48, 48);stroke-linejoin:round;"><g><path d=" M417.1328125,376 C320.25,386 320.25,391 320.25,397.66666666666674 C320.25,404.33333333333337 320.25,412.66666666666663 320.24999999999994,421 C320.25,429.3333333333333 320.25,437.66666666666674 320.25,451.8333333333334 C320.25,466 320.25,486 320.25,501 C320.25,516 320.25,526 320.24999999999994,536 C320.25,545.9999999999999 320.25,556 320.25,571 C320.25,586 320.25,605.9999999999999 320.25,620.1666666666666 C320.25,634.3333333333334 320.25,642.6666666666666 320.25,651 C320.25,659.3333333333334 320.25,667.6666666666666 320.24999999999994,676.8333333333333 C320.25,686 320.25,696 375.85546875,716"/><path d=" M417.1328125,376 C320.25,386 320.25,391 320.25,397.66666666666674 C320.25,404.33333333333337 320.25,412.66666666666663 320.24999999999994,421 C320.25,429.3333333333333 320.25,437.66666666666674 320.25,451.8333333333334 C320.25,466 320.25,486 320.25,501 C320.25,516 320.25,526 320.24999999999994,536 C320.25,545.9999999999999 320.25,556 320.25,571 C320.25,586 320.25,605.9999999999999 320.25,620.1666666666666 C320.25,634.3333333333334 320.25,642.6666666666666 320.25,651 C320.25,659.3333333333334 320.25,667.6666666666666 320.24999999999994,676.8333333333333 C320.25,686 320.25,696 375.85546875,716" class="clickable"/></g><path d="M 375.85546875,716 L 382.85546875,713.5 L 382.85546875,718.5 Z" transform="rotate(-160.2175160636916 375.85546875 716)" class="arrow" style="fill:rgb(48, 48, 48);stroke-linejoin:miter;stroke-miterlimit:2;"/></g><g id="sprotty_fsm$fsm_state_q/state$TransCheckSt_to_fsm$fsm_state_q/state$TokenHashSt" class="sprotty-edge transition" style="fill:none;stroke:rgb(48, 48, 48);stroke-linejoin:round;"><g><path d=" M455.04947916666663,376 C455.04947916666663,376 502.74713541666665,386 508.046875,396"/><path d=" M455.04947916666663,376 C455.04947916666663,376 502.74713541666665,386 508.046875,396" class="clickable"/></g><path d="M 508.046875,396 L 515.046875,393.5 L 515.046875,398.5 Z" transform="rotate(-117.92242483601517 508.046875 396)" class="arrow" style="fill:rgb(48, 48, 48);stroke-linejoin:miter;stroke-miterlimit:2;"/></g><g id="sprotty_fsm$fsm_state_q/state$TokenHashSt_to_fsm$fsm_state_q/state$FlashRmaSt" class="sprotty-edge transition" style="fill:none;stroke:rgb(48, 48, 48);stroke-linejoin:round;"><g><path d=" M489.6666666666667,436 C489.66666666666663,436 450.1697916666667,446 445.78125,456"/><path d=" M489.6666666666667,436 C489.66666666666663,436 450.1697916666667,446 445.78125,456" class="clickable"/></g><path d="M 445.78125,456 L 452.78125,453.5 L 452.78125,458.5 Z" transform="rotate(-66.30553159305751 445.78125 456)" class="arrow" style="fill:rgb(48, 48, 48);stroke-linejoin:miter;stroke-miterlimit:2;"/></g><g id="sprotty_fsm$fsm_state_q/state$TokenHashSt_to_fsm$fsm_state_q/state$PostTransSt" class="sprotty-edge transition" style="fill:none;stroke:rgb(48, 48, 48);stroke-linejoin:round;"><g><path d=" M526.4270833333334,436 C570.3125,446 570.3125,451 570.3125,457.66666666666663 C570.3125,464.3333333333333 570.3125,472.66666666666663 570.3125,481 C570.3125,489.3333333333333 570.3125,497.66666666666663 570.3125,511.8333333333333 C570.3125,526 570.3125,546 570.3125,561 C570.3125,576 570.3125,586 570.3125,596 C570.3125,606 570.3125,616 570.3125,629.3333333333333 C570.3125,642.6666666666666 570.3125,659.3333333333333 570.3125,672.6666666666666 C570.3125,686 570.3125,696 425.99609375,716"/><path d=" M526.4270833333334,436 C570.3125,446 570.3125,451 570.3125,457.66666666666663 C570.3125,464.3333333333333 570.3125,472.66666666666663 570.3125,481 C570.3125,489.3333333333333 570.3125,497.66666666666663 570.3125,511.8333333333333 C570.3125,526 570.3125,546 570.3125,561 C570.3125,576 570.3125,586 570.3125,596 C570.3125,606 570.3125,616 570.3125,629.3333333333333 C570.3125,642.6666666666666 570.3125,659.3333333333333 570.3125,672.6666666666666 C570.3125,686 570.3125,696 425.99609375,716" class="clickable"/></g><path d="M 425.99609375,716 L 432.99609375,713.5 L 432.99609375,718.5 Z" transform="rotate(-7.890045229025929 425.99609375 716)" class="arrow" style="fill:rgb(48, 48, 48);stroke-linejoin:miter;stroke-miterlimit:2;"/></g><g id="sprotty_fsm$fsm_state_q/state$FlashRmaSt_to_fsm$fsm_state_q/state$TokenCheck0St" class="sprotty-edge transition" style="fill:none;stroke:rgb(48, 48, 48);stroke-linejoin:round;"><g><path d=" M445.78125,496 C445.78125,496 445.78125,506 445.78125,516"/><path d=" M445.78125,496 C445.78125,496 445.78125,506 445.78125,516" class="clickable"/></g><path d="M 445.78125,516 L 452.78125,513.5 L 452.78125,518.5 Z" transform="rotate(-90 445.78125 516)" class="arrow" style="fill:rgb(48, 48, 48);stroke-linejoin:miter;stroke-miterlimit:2;"/></g><g id="sprotty_fsm$fsm_state_q/state$TokenCheck0St_to_fsm$fsm_state_q/state$PostTransSt" class="sprotty-edge transition" style="fill:none;stroke:rgb(48, 48, 48);stroke-linejoin:round;"><g><path d=" M477.546875,556 C519.3125,566 519.3125,571 519.3125,577.6666666666667 C519.3125,584.3333333333334 519.3125,592.6666666666665 519.3125,600.9999999999999 C519.3125,609.3333333333333 519.3125,617.6666666666666 519.3125,630.1666666666667 C519.3125,642.6666666666667 519.3125,659.3333333333335 519.3125,672.6666666666669 C519.3125,686 519.3125,696 413.4609375,716"/><path d=" M477.546875,556 C519.3125,566 519.3125,571 519.3125,577.6666666666667 C519.3125,584.3333333333334 519.3125,592.6666666666665 519.3125,600.9999999999999 C519.3125,609.3333333333333 519.3125,617.6666666666666 519.3125,630.1666666666667 C519.3125,642.6666666666667 519.3125,659.3333333333335 519.3125,672.6666666666669 C519.3125,686 519.3125,696 413.4609375,716" class="clickable"/></g><path d="M 413.4609375,716 L 420.4609375,713.5 L 420.4609375,718.5 Z" transform="rotate(-10.699550347810273 413.4609375 716)" class="arrow" style="fill:rgb(48, 48, 48);stroke-linejoin:miter;stroke-miterlimit:2;"/></g><g id="sprotty_fsm$fsm_state_q/state$TokenCheck1St_to_fsm$fsm_state_q/state$PostTransSt" class="sprotty-edge transition" style="fill:none;stroke:rgb(48, 48, 48);stroke-linejoin:round;"><g><path d=" M466.9583333333333,616 C466.9583333333333,626 466.95833333333326,638.5 466.95833333333326,648.9166666666666 C466.9583333333333,659.3333333333334 466.95833333333326,667.6666666666665 466.95833333333326,676.8333333333331 C466.95833333333326,686 466.9583333333333,696 400.92578125,716"/><path d=" M466.9583333333333,616 C466.9583333333333,626 466.95833333333326,638.5 466.95833333333326,648.9166666666666 C466.9583333333333,659.3333333333334 466.95833333333326,667.6666666666665 466.95833333333326,676.8333333333331 C466.95833333333326,686 466.9583333333333,696 400.92578125,716" class="clickable"/></g><path d="M 400.92578125,716 L 407.92578125,713.5 L 407.92578125,718.5 Z" transform="rotate(-16.850559176341683 400.92578125 716)" class="arrow" style="fill:rgb(48, 48, 48);stroke-linejoin:miter;stroke-miterlimit:2;"/></g><g id="sprotty_fsm$fsm_state_q/state$TokenCheck0St_to_fsm$fsm_state_q/state$TransProgSt" class="sprotty-edge transition" style="fill:none;stroke:rgb(48, 48, 48);stroke-linejoin:round;"><g><path d=" M414.015625,556 C371.25,566 371.25,571 371.25,577.6666666666666 C371.25,584.3333333333334 371.25,592.6666666666665 371.25,603.083333333333 C371.25,613.4999999999999 371.25,626 371.25,636"/><path d=" M414.015625,556 C371.25,566 371.25,571 371.25,577.6666666666666 C371.25,584.3333333333334 371.25,592.6666666666665 371.25,603.083333333333 C371.25,613.4999999999999 371.25,626 371.25,636" class="clickable"/></g><path d="M 371.25,636 L 378.25,633.5 L 378.25,638.5 Z" transform="rotate(-90 371.25 636)" class="arrow" style="fill:rgb(48, 48, 48);stroke-linejoin:miter;stroke-miterlimit:2;"/></g><g id="sprotty_fsm$fsm_state_q/state$TokenCheck1St_to_fsm$fsm_state_q/state$TransProgSt" class="sprotty-edge transition" style="fill:none;stroke:rgb(48, 48, 48);stroke-linejoin:round;"><g><path d=" M424.6041666666667,616 C424.60416666666663,616 415.0677083333333,626 405.53125,636"/><path d=" M424.6041666666667,616 C424.60416666666663,616 415.0677083333333,626 405.53125,636" class="clickable"/></g><path d="M 405.53125,636 L 412.53125,633.5 L 412.53125,638.5 Z" transform="rotate(-46.3592022863658 405.53125 636)" class="arrow" style="fill:rgb(48, 48, 48);stroke-linejoin:miter;stroke-miterlimit:2;"/></g><g id="sprotty_fsm$fsm_state_q/state$TokenCheck0St_to_fsm$fsm_state_q/state$TokenCheck1St" class="sprotty-edge transition" style="fill:none;stroke:rgb(48, 48, 48);stroke-linejoin:round;"><g><path d=" M445.78125,556 C445.78125,556 445.78125,566 445.78125,576"/><path d=" M445.78125,556 C445.78125,556 445.78125,566 445.78125,576" class="clickable"/></g><path d="M 445.78125,576 L 452.78125,573.5 L 452.78125,578.5 Z" transform="rotate(-90 445.78125 576)" class="arrow" style="fill:rgb(48, 48, 48);stroke-linejoin:miter;stroke-miterlimit:2;"/></g><g id="sprotty_fsm$fsm_state_q/state$TransProgSt_to_fsm$fsm_state_q/state$PostTransSt" class="sprotty-edge transition" style="fill:none;stroke:rgb(48, 48, 48);stroke-linejoin:round;"><g><path d=" M388.390625,676 C388.390625,676 388.390625,696 388.390625,716"/><path d=" M388.390625,676 C388.390625,676 388.390625,696 388.390625,716" class="clickable"/></g><path d="M 388.390625,716 L 395.390625,713.5 L 395.390625,718.5 Z" transform="rotate(-90 388.390625 716)" class="arrow" style="fill:rgb(48, 48, 48);stroke-linejoin:miter;stroke-miterlimit:2;"/></g></g></g></svg>