<svg xmlns="http://www.w3.org/2000/svg" id="sprotty_root" class="sprotty-graph sprotty-state-machine statemachine" style="font-family:&quot;Noto Sans&quot;, Helvetica, Arial, sans-serif;perspective-origin:0px 0px;transform-origin:0px 0px;" version="1.1" viewBox="10 10 154.34375 218" width="154.34375" height="218"><g transform="scale(1) translate(0,0)"><g id="sprotty_fsm$state_q" transform="translate(15, 15)" class="statemachine"><g class="sprotty-block" style="fill:rgb(255, 255, 255);stroke:rgb(48, 48, 48);stroke-dasharray:0px;"><rect x="0" y="0" rx="1" ry="1" width="144.34375" height="208"/><text x="72.171875" y="12" class="sprotty-block-name" style="cursor:pointer;font-weight:700;perspective-origin:72.1719px 0px;fill:rgb(48, 48, 48);stroke:rgba(0, 0, 0, 0);dominant-baseline:middle;text-anchor:middle;">state_q</text><line x1="0" y1="20" x2="144.34375" y2="20"/></g><g id="sprotty_fsm$state_q/state$OtbnStateHalt" transform="translate(12.640624999999993, 36)" class="state"><ellipse cx="59.53125" cy="20" rx="59.53125" ry="20" class="sprotty-node clickable" style="fill:rgb(255, 255, 255);stroke:rgb(48, 48, 48);"/><text class="clickable sprotty-label state" id="sprotty_fsm$state_q/state$OtbnStateHalt/label" transform="translate(6, 8) translate(53.53125, 19)" style="cursor:default;perspective-origin:0px 0px;fill:rgb(48, 48, 48);text-anchor:middle;">OtbnStateHalt</text></g><g id="sprotty_fsm$state_q/state$OtbnStateStall" transform="translate(12, 156)" class="state"><ellipse cx="60.171875" cy="20" rx="60.171875" ry="20" class="sprotty-node clickable" style="fill:rgb(255, 255, 255);stroke:rgb(48, 48, 48);"/><text class="clickable sprotty-label state" id="sprotty_fsm$state_q/state$OtbnStateStall/label" transform="translate(6, 8) translate(54.171875, 19)" style="cursor:default;perspective-origin:0px 0px;fill:rgb(48, 48, 48);text-anchor:middle;">OtbnStateStall</text></g><g id="sprotty_fsm$state_q/state$OtbnStateRun" transform="translate(13.453125, 96)" class="state"><ellipse cx="58.71875" cy="20" rx="58.71875" ry="20" class="sprotty-node clickable" style="fill:rgb(255, 255, 255);stroke:rgb(48, 48, 48);"/><text class="clickable sprotty-label state" id="sprotty_fsm$state_q/state$OtbnStateRun/label" transform="translate(6, 8) translate(52.71875, 19)" style="cursor:default;perspective-origin:0px 0px;fill:rgb(48, 48, 48);text-anchor:middle;">OtbnStateRun</text></g><g id="sprotty_fsm$state_q/state$OtbnStateHalt_to_fsm$state_q/state$OtbnStateRun" class="sprotty-edge transition" style="fill:none;stroke:rgb(48, 48, 48);stroke-linejoin:round;"><g><path d=" M52.32812499999999,76 C52.32812499999999,76 52.46354166666666,86 52.59895833333333,96"/><path d=" M52.32812499999999,76 C52.32812499999999,76 52.46354166666666,86 52.59895833333333,96" class="clickable"/></g><path d="M 52.59895833333333,96 L 59.59895833333333,93.5 L 59.59895833333333,98.5 Z" transform="rotate(-90.7758329266552 52.59895833333333 96)" class="arrow" style="fill:rgb(48, 48, 48);stroke-linejoin:miter;stroke-miterlimit:2;"/></g><g id="sprotty_fsm$state_q/state$OtbnStateRun_to_fsm$state_q/state$OtbnStateHalt" class="sprotty-edge transition" style="fill:none;stroke:rgb(48, 48, 48);stroke-linejoin:round;"><g><path d=" M91.74479166666666,96 C91.88020833333333,86 92.015625,76 92.015625,76"/><path d=" M91.74479166666666,96 C91.88020833333333,86 92.015625,76 92.015625,76" class="clickable"/></g><path d="M 92.015625,76 L 99.015625,73.5 L 99.015625,78.5 Z" transform="rotate(90.7758329266552 92.015625 76)" class="arrow" style="fill:rgb(48, 48, 48);stroke-linejoin:miter;stroke-miterlimit:2;"/></g><g id="sprotty_fsm$state_q/state$OtbnStateRun_to_fsm$state_q/state$OtbnStateStall" class="sprotty-edge transition" style="fill:none;stroke:rgb(48, 48, 48);stroke-linejoin:round;"><g><path d=" M52.59895833333333,136 C52.59895833333333,136 52.35677083333333,146 52.11458333333333,156"/><path d=" M52.59895833333333,136 C52.59895833333333,136 52.35677083333333,146 52.11458333333333,156" class="clickable"/></g><path d="M 52.11458333333333,156 L 59.11458333333333,153.5 L 59.11458333333333,158.5 Z" transform="rotate(-88.61263904869853 52.11458333333333 156)" class="arrow" style="fill:rgb(48, 48, 48);stroke-linejoin:miter;stroke-miterlimit:2;"/></g><g id="sprotty_fsm$state_q/state$OtbnStateStall_to_fsm$state_q/state$OtbnStateRun" class="sprotty-edge transition" style="fill:none;stroke:rgb(48, 48, 48);stroke-linejoin:round;"><g><path d=" M92.22916666666666,156 C91.98697916666666,146 91.74479166666666,136 91.74479166666666,136"/><path d=" M92.22916666666666,156 C91.98697916666666,146 91.74479166666666,136 91.74479166666666,136" class="clickable"/></g><path d="M 91.74479166666666,136 L 98.74479166666666,133.5 L 98.74479166666666,138.5 Z" transform="rotate(88.61263904869853 91.74479166666666 136)" class="arrow" style="fill:rgb(48, 48, 48);stroke-linejoin:miter;stroke-miterlimit:2;"/></g></g></g></svg>