<svg xmlns="http://www.w3.org/2000/svg" id="sprotty_root" class="sprotty-graph sprotty-state-machine statemachine" style="font-family:&quot;Noto Sans&quot;, Helvetica, Arial, sans-serif;perspective-origin:0px 0px;transform-origin:0px 0px;" version="1.1" viewBox="10 10 304.1875 288" width="304.1875" height="288"><g transform="scale(1) translate(0,0)"><g id="sprotty_fsm$state_q" transform="translate(15, 15)" class="statemachine"><g class="sprotty-block" style="fill:rgb(255, 255, 255);stroke:rgb(48, 48, 48);stroke-dasharray:0px;"><rect x="0" y="0" rx="1" ry="1" width="294.1875" height="278"/><text x="147.09375" y="12" class="sprotty-block-name" style="cursor:pointer;font-weight:700;perspective-origin:147.094px 0px;fill:rgb(48, 48, 48);stroke:rgba(0, 0, 0, 0);dominant-baseline:middle;text-anchor:middle;">state_q</text><line x1="0" y1="20" x2="294.1875" y2="20"/></g><g id="sprotty_fsm$state_q/state$InitSt" transform="translate(28.609375, 96)" class="state"><ellipse cx="26.03125" cy="20" rx="26.03125" ry="20" class="sprotty-node clickable" style="fill:rgb(255, 255, 255);stroke:rgb(48, 48, 48);"/><text class="clickable sprotty-label state" id="sprotty_fsm$state_q/state$InitSt/label" transform="translate(6, 8) translate(20.03125, 19)" style="cursor:default;perspective-origin:0px 0px;fill:rgb(48, 48, 48);text-anchor:middle;">InitSt</text></g><g id="sprotty_fsm$state_q/state$IdleSt" transform="translate(178.84244791666669, 226)" class="state"><ellipse cx="27.421875" cy="20" rx="27.421875" ry="20" class="sprotty-node clickable" style="fill:rgb(255, 255, 255);stroke:rgb(48, 48, 48);"/><text class="clickable sprotty-label state" id="sprotty_fsm$state_q/state$IdleSt/label" transform="translate(6, 8) translate(21.421875, 19)" style="cursor:default;perspective-origin:0px 0px;fill:rgb(48, 48, 48);text-anchor:middle;">IdleSt</text></g><g id="sprotty_fsm$state_q/state$InitWaitSt" transform="translate(12, 156)" class="state"><ellipse cx="42.640625" cy="20" rx="42.640625" ry="20" class="sprotty-node clickable" style="fill:rgb(255, 255, 255);stroke:rgb(48, 48, 48);"/><text class="clickable sprotty-label state" id="sprotty_fsm$state_q/state$InitWaitSt/label" transform="translate(6, 8) translate(36.640625, 19)" style="cursor:default;perspective-origin:0px 0px;fill:rgb(48, 48, 48);text-anchor:middle;">InitWaitSt</text></g><g id="sprotty_fsm$state_q/state$ErrorSt" transform="translate(60.602864583333336, 226)" class="state"><ellipse cx="32.359375" cy="20" rx="32.359375" ry="20" class="sprotty-node clickable" style="fill:rgb(255, 255, 255);stroke:rgb(48, 48, 48);"/><text class="clickable sprotty-label state" id="sprotty_fsm$state_q/state$ErrorSt/label" transform="translate(6, 8) translate(26.359375, 19)" style="cursor:default;perspective-origin:0px 0px;fill:rgb(48, 48, 48);text-anchor:middle;">ErrorSt</text></g><g id="sprotty_fsm$state_q/state$ReadWaitSt" transform="translate(122.28125, 156)" class="state"><ellipse cx="48.953125" cy="20" rx="48.953125" ry="20" class="sprotty-node clickable" style="fill:rgb(255, 255, 255);stroke:rgb(48, 48, 48);"/><text class="clickable sprotty-label state" id="sprotty_fsm$state_q/state$ReadWaitSt/label" transform="translate(6, 8) translate(42.953125, 19)" style="cursor:default;perspective-origin:0px 0px;fill:rgb(48, 48, 48);text-anchor:middle;">ReadWaitSt</text></g><g id="sprotty_fsm$state_q/state$ResetSt" transform="translate(20.53125, 36)" class="state"><ellipse cx="34.109375" cy="20" rx="34.109375" ry="20" class="sprotty-node clickable" style="fill:rgb(255, 255, 255);stroke:rgb(48, 48, 48);"/><text class="clickable sprotty-label state" id="sprotty_fsm$state_q/state$ResetSt/label" transform="translate(6, 8) translate(28.109375, 19)" style="cursor:default;perspective-origin:0px 0px;fill:rgb(48, 48, 48);text-anchor:middle;">ResetSt</text></g><g id="sprotty_fsm$state_q/state$ReadSt" transform="translate(197.828125, 96)" class="state"><ellipse cx="32.359375" cy="20" rx="32.359375" ry="20" class="sprotty-node clickable" style="fill:rgb(255, 255, 255);stroke:rgb(48, 48, 48);"/><text class="clickable sprotty-label state" id="sprotty_fsm$state_q/state$ReadSt/label" transform="translate(6, 8) translate(26.359375, 19)" style="cursor:default;perspective-origin:0px 0px;fill:rgb(48, 48, 48);text-anchor:middle;">ReadSt</text></g><g id="sprotty_fsm$state_q/state$ResetSt_to_fsm$state_q/state$InitSt" class="sprotty-edge transition" style="fill:none;stroke:rgb(48, 48, 48);stroke-linejoin:round;"><g><path d=" M54.640625,76 C54.640625,76 54.640625,86 54.640625,96"/><path d=" M54.640625,76 C54.640625,76 54.640625,86 54.640625,96" class="clickable"/></g><path d="M 54.640625,96 L 61.640625,93.5 L 61.640625,98.5 Z" transform="rotate(-90 54.640625 96)" class="arrow" style="fill:rgb(48, 48, 48);stroke-linejoin:miter;stroke-miterlimit:2;"/></g><g id="sprotty_fsm$state_q/state$InitSt_to_fsm$state_q/state$InitWaitSt" class="sprotty-edge transition" style="fill:none;stroke:rgb(48, 48, 48);stroke-linejoin:round;"><g><path d=" M54.640625,136 C54.640625,136 54.640625,146 54.640625,156"/><path d=" M54.640625,136 C54.640625,136 54.640625,146 54.640625,156" class="clickable"/></g><path d="M 54.640625,156 L 61.640625,153.5 L 61.640625,158.5 Z" transform="rotate(-90 54.640625 156)" class="arrow" style="fill:rgb(48, 48, 48);stroke-linejoin:miter;stroke-miterlimit:2;"/></g><g id="sprotty_fsm$state_q/state$InitWaitSt_to_fsm$state_q/state$ErrorSt" class="sprotty-edge transition" style="fill:none;stroke:rgb(48, 48, 48);stroke-linejoin:round;"><g><path d=" M40.42708333333333,196 C40.42708333333333,196 61.301432291666664,211 82.17578125,226"/><path d=" M40.42708333333333,196 C40.42708333333333,196 61.301432291666664,211 82.17578125,226" class="clickable"/></g><path d="M 82.17578125,226 L 89.17578125,223.5 L 89.17578125,228.5 Z" transform="rotate(-144.29953185453078 82.17578125 226)" class="arrow" style="fill:rgb(48, 48, 48);stroke-linejoin:miter;stroke-miterlimit:2;"/></g><g id="sprotty_fsm$state_q/state$InitWaitSt_to_fsm$state_q/state$IdleSt" class="sprotty-edge transition" style="fill:none;stroke:rgb(48, 48, 48);stroke-linejoin:round;"><g><path d=" M68.85416666666666,196 C68.85416666666666,196 80.94986979166666,211 189.81119791666669,226"/><path d=" M68.85416666666666,196 C68.85416666666666,196 80.94986979166666,211 189.81119791666669,226" class="clickable"/></g><path d="M 189.81119791666669,226 L 196.81119791666669,223.5 L 196.81119791666669,228.5 Z" transform="rotate(-172.15461790630545 189.81119791666669 226)" class="arrow" style="fill:rgb(48, 48, 48);stroke-linejoin:miter;stroke-miterlimit:2;"/></g><g id="sprotty_fsm$state_q/state$IdleSt_to_fsm$state_q/state$ReadSt" class="sprotty-edge transition" style="fill:none;stroke:rgb(48, 48, 48);stroke-linejoin:round;"><g><path d=" M211.74869791666669,226 C230.1875,211 230.1875,203.49999999999997 230.1875,195.58333333333331 C230.1875,187.66666666666666 230.1875,179.33333333333334 230.1875,168.91666666666669 C230.1875,158.5 230.1875,146 230.1875,136"/><path d=" M211.74869791666669,226 C230.1875,211 230.1875,203.49999999999997 230.1875,195.58333333333331 C230.1875,187.66666666666666 230.1875,179.33333333333334 230.1875,168.91666666666669 C230.1875,158.5 230.1875,146 230.1875,136" class="clickable"/></g><path d="M 230.1875,136 L 237.1875,133.5 L 237.1875,138.5 Z" transform="rotate(90 230.1875 136)" class="arrow" style="fill:rgb(48, 48, 48);stroke-linejoin:miter;stroke-miterlimit:2;"/></g><g id="sprotty_fsm$state_q/state$ReadSt_to_fsm$state_q/state$ReadWaitSt" class="sprotty-edge transition" style="fill:none;stroke:rgb(48, 48, 48);stroke-linejoin:round;"><g><path d=" M214.0078125,136 C214.0078125,136 175.51171875,146 171.234375,156"/><path d=" M214.0078125,136 C214.0078125,136 175.51171875,146 171.234375,156" class="clickable"/></g><path d="M 171.234375,156 L 178.234375,153.5 L 178.234375,158.5 Z" transform="rotate(-66.84193938728772 171.234375 156)" class="arrow" style="fill:rgb(48, 48, 48);stroke-linejoin:miter;stroke-miterlimit:2;"/></g><g id="sprotty_fsm$state_q/state$ReadSt_to_fsm$state_q/state$IdleSt" class="sprotty-edge transition" style="fill:none;stroke:rgb(48, 48, 48);stroke-linejoin:round;"><g><path d=" M246.3671875,136 C281.1875,146 281.1875,151 281.1875,156.83333333333331 C281.1875,162.66666666666666 281.1875,169.33333333333331 281.1875,176 C281.1875,182.66666666666666 281.1875,189.33333333333331 281.1875,196.41666666666666 C281.1875,203.5 281.1875,211 222.71744791666669,226"/><path d=" M246.3671875,136 C281.1875,146 281.1875,151 281.1875,156.83333333333331 C281.1875,162.66666666666666 281.1875,169.33333333333331 281.1875,176 C281.1875,182.66666666666666 281.1875,189.33333333333331 281.1875,196.41666666666666 C281.1875,203.5 281.1875,211 222.71744791666669,226" class="clickable"/></g><path d="M 222.71744791666669,226 L 229.71744791666669,223.5 L 229.71744791666669,228.5 Z" transform="rotate(-14.388454898898187 222.71744791666669 226)" class="arrow" style="fill:rgb(48, 48, 48);stroke-linejoin:miter;stroke-miterlimit:2;"/></g><g id="sprotty_fsm$state_q/state$ReadWaitSt_to_fsm$state_q/state$ErrorSt" class="sprotty-edge transition" style="fill:none;stroke:rgb(48, 48, 48);stroke-linejoin:round;"><g><path d=" M154.91666666666669,196 C154.91666666666669,196 129.33268229166669,211 103.74869791666666,226"/><path d=" M154.91666666666669,196 C154.91666666666669,196 129.33268229166669,211 103.74869791666666,226" class="clickable"/></g><path d="M 103.74869791666666,226 L 110.74869791666666,223.5 L 110.74869791666666,228.5 Z" transform="rotate(-30.383279254095093 103.74869791666666 226)" class="arrow" style="fill:rgb(48, 48, 48);stroke-linejoin:miter;stroke-miterlimit:2;"/></g><g id="sprotty_fsm$state_q/state$ReadWaitSt_to_fsm$state_q/state$IdleSt" class="sprotty-edge transition" style="fill:none;stroke:rgb(48, 48, 48);stroke-linejoin:round;"><g><path d=" M187.55208333333334,196 C187.55208333333334,196 188.87486979166667,211 200.77994791666669,226"/><path d=" M187.55208333333334,196 C187.55208333333334,196 188.87486979166667,211 200.77994791666669,226" class="clickable"/></g><path d="M 200.77994791666669,226 L 207.77994791666669,223.5 L 207.77994791666669,228.5 Z" transform="rotate(-128.43804256326683 200.77994791666669 226)" class="arrow" style="fill:rgb(48, 48, 48);stroke-linejoin:miter;stroke-miterlimit:2;"/></g></g></g></svg>