<svg xmlns="http://www.w3.org/2000/svg" id="sprotty_root" class="sprotty-graph sprotty-state-machine statemachine" style="font-family:&quot;Noto Sans&quot;, Helvetica, Arial, sans-serif;perspective-origin:0px 0px;transform-origin:0px 0px;" version="1.1" viewBox="10 10 867.2369791666666 822.1975260416666" width="867.2369791666666" height="822.1975260416666"><g transform="scale(1) translate(0,0)"><g id="sprotty_fsm$state_q" transform="translate(15, 15)" class="statemachine"><g class="sprotty-block" style="fill:rgb(255, 255, 255);stroke:rgb(48, 48, 48);stroke-dasharray:0px;"><rect x="0" y="0" rx="1" ry="1" width="857.2369791666666" height="812.1975260416666"/><text x="428.6184895833333" y="12" class="sprotty-block-name" style="cursor:pointer;font-weight:700;perspective-origin:428.609px 0px;fill:rgb(48, 48, 48);stroke:rgba(0, 0, 0, 0);dominant-baseline:middle;text-anchor:middle;">state_q</text><line x1="0" y1="20" x2="857.2369791666666" y2="20"/></g><g id="sprotty_fsm$state_q/state$ScrSt" transform="translate(406.92187500000006, 166.11927083333333)" class="state"><ellipse cx="25.53125" cy="20" rx="25.53125" ry="20" class="sprotty-node clickable" style="fill:rgb(255, 255, 255);stroke:rgb(48, 48, 48);"/><text class="clickable sprotty-label state" id="sprotty_fsm$state_q/state$ScrSt/label" transform="translate(6, 8) translate(19.53125, 19)" style="cursor:default;perspective-origin:0px 0px;fill:rgb(48, 48, 48);text-anchor:middle;">ScrSt</text></g><g id="sprotty_fsm$state_q/state$WriteSt" transform="translate(591.8307291666666, 296.1192708333333)" class="state"><ellipse cx="33.0625" cy="20" rx="33.0625" ry="20" class="sprotty-node clickable" style="fill:rgb(255, 255, 255);stroke:rgb(48, 48, 48);"/><text class="clickable sprotty-label state" id="sprotty_fsm$state_q/state$WriteSt/label" transform="translate(6, 8) translate(27.0625, 19)" style="cursor:default;perspective-origin:0px 0px;fill:rgb(48, 48, 48);text-anchor:middle;">WriteSt</text></g><g id="sprotty_fsm$state_q/state$DigPadSt" transform="translate(571.03125, 106.11927083333333)" class="state"><ellipse cx="39.921875" cy="20" rx="39.921875" ry="20" class="sprotty-node clickable" style="fill:rgb(255, 255, 255);stroke:rgb(48, 48, 48);"/><text class="clickable sprotty-label state" id="sprotty_fsm$state_q/state$DigPadSt/label" transform="translate(6, 8) translate(33.921875, 19)" style="cursor:default;perspective-origin:0px 0px;fill:rgb(48, 48, 48);text-anchor:middle;">DigPadSt</text></g><g id="sprotty_fsm$state_q/state$DescrSt" transform="translate(284.3802083333333, 296.1192708333333)" class="state"><ellipse cx="34.4375" cy="20" rx="34.4375" ry="20" class="sprotty-node clickable" style="fill:rgb(255, 255, 255);stroke:rgb(48, 48, 48);"/><text class="clickable sprotty-label state" id="sprotty_fsm$state_q/state$DescrSt/label" transform="translate(6, 8) translate(28.4375, 19)" style="cursor:default;perspective-origin:0px 0px;fill:rgb(48, 48, 48);text-anchor:middle;">DescrSt</text></g><g id="sprotty_fsm$state_q/state$DigFinSt" transform="translate(598.6328125, 166.11927083333333)" class="state"><ellipse cx="37.28125" cy="20" rx="37.28125" ry="20" class="sprotty-node clickable" style="fill:rgb(255, 255, 255);stroke:rgb(48, 48, 48);"/><text class="clickable sprotty-label state" id="sprotty_fsm$state_q/state$DigFinSt/label" transform="translate(6, 8) translate(31.28125, 19)" style="cursor:default;perspective-origin:0px 0px;fill:rgb(48, 48, 48);text-anchor:middle;">DigFinSt</text></g><g id="sprotty_fsm$state_q/state$InitOtpSt" transform="translate(765.3619791666666, 296.1192708333333)" class="state"><ellipse cx="39.9375" cy="20" rx="39.9375" ry="20" class="sprotty-node clickable" style="fill:rgb(255, 255, 255);stroke:rgb(48, 48, 48);"/><text class="clickable sprotty-label state" id="sprotty_fsm$state_q/state$InitOtpSt/label" transform="translate(6, 8) translate(33.9375, 19)" style="cursor:default;perspective-origin:0px 0px;fill:rgb(48, 48, 48);text-anchor:middle;">InitOtpSt</text></g><g id="sprotty_fsm$state_q/state$ReadWaitSt" transform="translate(171.60468750000007, 226.11927083333333)" class="state"><ellipse cx="48.953125" cy="20" rx="48.953125" ry="20" class="sprotty-node clickable" style="fill:rgb(255, 255, 255);stroke:rgb(48, 48, 48);"/><text class="clickable sprotty-label state" id="sprotty_fsm$state_q/state$ReadWaitSt/label" transform="translate(6, 8) translate(42.953125, 19)" style="cursor:default;perspective-origin:0px 0px;fill:rgb(48, 48, 48);text-anchor:middle;">ReadWaitSt</text></g><g id="sprotty_fsm$state_q/state$ResetSt" transform="translate(771.1901041666666, 226.11927083333333)" class="state"><ellipse cx="34.109375" cy="20" rx="34.109375" ry="20" class="sprotty-node clickable" style="fill:rgb(255, 255, 255);stroke:rgb(48, 48, 48);"/><text class="clickable sprotty-label state" id="sprotty_fsm$state_q/state$ResetSt/label" transform="translate(6, 8) translate(28.109375, 19)" style="cursor:default;perspective-origin:0px 0px;fill:rgb(48, 48, 48);text-anchor:middle;">ResetSt</text></g><g id="sprotty_fsm$state_q/state$DigClrSt" transform="translate(400.6145833333333, 536.1192708333333)" class="state"><ellipse cx="36.265625" cy="20" rx="36.265625" ry="20" class="sprotty-node clickable" style="fill:rgb(255, 255, 255);stroke:rgb(48, 48, 48);"/><text class="clickable sprotty-label state" id="sprotty_fsm$state_q/state$DigClrSt/label" transform="translate(6, 8) translate(30.265625, 19)" style="cursor:default;perspective-origin:0px 0px;fill:rgb(48, 48, 48);text-anchor:middle;">DigClrSt</text></g><g id="sprotty_fsm$state_q/state$DigSt" transform="translate(318.43229166666674, 36)" class="state"><ellipse cx="25.78125" cy="20" rx="25.78125" ry="20" class="sprotty-node clickable" style="fill:rgb(255, 255, 255);stroke:rgb(48, 48, 48);"/><text class="clickable sprotty-label state" id="sprotty_fsm$state_q/state$DigSt/label" transform="translate(6, 8) translate(19.78125, 19)" style="cursor:default;perspective-origin:0px 0px;fill:rgb(48, 48, 48);text-anchor:middle;">DigSt</text></g><g id="sprotty_fsm$state_q/state$DigReadSt" transform="translate(357.5638020833333, 606.1192708333333)" class="state"><ellipse cx="44.546875" cy="20" rx="44.546875" ry="20" class="sprotty-node clickable" style="fill:rgb(255, 255, 255);stroke:rgb(48, 48, 48);"/><text class="clickable sprotty-label state" id="sprotty_fsm$state_q/state$DigReadSt/label" transform="translate(6, 8) translate(38.546875, 19)" style="cursor:default;perspective-origin:0px 0px;fill:rgb(48, 48, 48);text-anchor:middle;">DigReadSt</text></g><g id="sprotty_fsm$state_q/state$WriteWaitSt" transform="translate(613.7760416666667, 366.1192708333333)" class="state"><ellipse cx="49.765625" cy="20" rx="49.765625" ry="20" class="sprotty-node clickable" style="fill:rgb(255, 255, 255);stroke:rgb(48, 48, 48);"/><text class="clickable sprotty-label state" id="sprotty_fsm$state_q/state$WriteWaitSt/label" transform="translate(6, 8) translate(43.765625, 19)" style="cursor:default;perspective-origin:0px 0px;fill:rgb(48, 48, 48);text-anchor:middle;">WriteWaitSt</text></g><g id="sprotty_fsm$state_q/state$IdleSt" transform="translate(350.2473958333333, 466.1192708333333)" class="state"><ellipse cx="45" cy="20" rx="45" ry="20" class="sprotty-node clickable" style="fill:rgb(255, 255, 255);stroke:rgb(48, 48, 48);"/><text class="clickable sprotty-label state" id="sprotty_fsm$state_q/state$IdleSt/label" transform="translate(23.578125, 8) translate(21.421875, 19)" style="cursor:default;perspective-origin:0px 0px;fill:rgb(48, 48, 48);text-anchor:middle;">IdleSt</text></g><g id="sprotty_fsm$state_q/state$ScrWaitSt" transform="translate(467.40364583333337, 226.11927083333333)" class="state"><ellipse cx="42.140625" cy="20" rx="42.140625" ry="20" class="sprotty-node clickable" style="fill:rgb(255, 255, 255);stroke:rgb(48, 48, 48);"/><text class="clickable sprotty-label state" id="sprotty_fsm$state_q/state$ScrWaitSt/label" transform="translate(6, 8) translate(36.140625, 19)" style="cursor:default;perspective-origin:0px 0px;fill:rgb(48, 48, 48);text-anchor:middle;">ScrWaitSt</text></g><g id="sprotty_fsm$state_q/state$DigWaitSt" transform="translate(593.5234375, 226.11927083333333)" class="state"><ellipse cx="42.390625" cy="20" rx="42.390625" ry="20" class="sprotty-node clickable" style="fill:rgb(255, 255, 255);stroke:rgb(48, 48, 48);"/><text class="clickable sprotty-label state" id="sprotty_fsm$state_q/state$DigWaitSt/label" transform="translate(6, 8) translate(36.390625, 19)" style="cursor:default;perspective-origin:0px 0px;fill:rgb(48, 48, 48);text-anchor:middle;">DigWaitSt</text></g><g id="sprotty_fsm$state_q/state$InitPartSt" transform="translate(738.3072916666666, 366.1192708333333)" class="state"><ellipse cx="41.328125" cy="20" rx="41.328125" ry="20" class="sprotty-node clickable" style="fill:rgb(255, 255, 255);stroke:rgb(48, 48, 48);"/><text class="clickable sprotty-label state" id="sprotty_fsm$state_q/state$InitPartSt/label" transform="translate(6, 8) translate(35.328125, 19)" style="cursor:default;perspective-origin:0px 0px;fill:rgb(48, 48, 48);text-anchor:middle;">InitPartSt</text></g><g id="sprotty_fsm$state_q/state$DescrWaitSt" transform="translate(267.77083333333337, 366.1192708333333)" class="state"><ellipse cx="51.046875" cy="20" rx="51.046875" ry="20" class="sprotty-node clickable" style="fill:rgb(255, 255, 255);stroke:rgb(48, 48, 48);"/><text class="clickable sprotty-label state" id="sprotty_fsm$state_q/state$DescrWaitSt/label" transform="translate(6, 8) translate(45.046875, 19)" style="cursor:default;perspective-origin:0px 0px;fill:rgb(48, 48, 48);text-anchor:middle;">DescrWaitSt</text></g><g id="sprotty_fsm$state_q/state$ErrorSt" transform="translate(494.5833333333333, 760.1975260416666)" class="state"><ellipse cx="32.359375" cy="20" rx="32.359375" ry="20" class="sprotty-node clickable" style="fill:rgb(255, 255, 255);stroke:rgb(48, 48, 48);"/><text class="clickable sprotty-label state" id="sprotty_fsm$state_q/state$ErrorSt/label" transform="translate(6, 8) translate(26.359375, 19)" style="cursor:default;perspective-origin:0px 0px;fill:rgb(48, 48, 48);text-anchor:middle;">ErrorSt</text></g><g id="sprotty_fsm$state_q/state$ReadSt" transform="translate(265.23567708333337, 536.1192708333333)" class="state"><ellipse cx="32.359375" cy="20" rx="32.359375" ry="20" class="sprotty-node clickable" style="fill:rgb(255, 255, 255);stroke:rgb(48, 48, 48);"/><text class="clickable sprotty-label state" id="sprotty_fsm$state_q/state$ReadSt/label" transform="translate(6, 8) translate(26.359375, 19)" style="cursor:default;perspective-origin:0px 0px;fill:rgb(48, 48, 48);text-anchor:middle;">ReadSt</text></g><g id="sprotty_fsm$state_q/state$DigReadWaitSt" transform="translate(12, 676.976171875)" class="state"><ellipse cx="61.15625" cy="20" rx="61.15625" ry="20" class="sprotty-node clickable" style="fill:rgb(255, 255, 255);stroke:rgb(48, 48, 48);"/><text class="clickable sprotty-label state" id="sprotty_fsm$state_q/state$DigReadWaitSt/label" transform="translate(6, 8) translate(55.15625, 19)" style="cursor:default;perspective-origin:0px 0px;fill:rgb(48, 48, 48);text-anchor:middle;">DigReadWaitSt</text></g><g id="sprotty_fsm$state_q/state$ResetSt_to_fsm$state_q/state$InitOtpSt" class="sprotty-edge transition" style="fill:none;stroke:rgb(48, 48, 48);stroke-linejoin:round;"><g><path d=" M805.2994791666666,266.1192708333333 C805.2994791666666,266.1192708333333 805.2994791666666,281.1192708333333 805.2994791666666,296.1192708333333"/><path d=" M805.2994791666666,266.1192708333333 C805.2994791666666,266.1192708333333 805.2994791666666,281.1192708333333 805.2994791666666,296.1192708333333" class="clickable"/></g><path d="M 805.2994791666666,296.1192708333333 L 812.2994791666666,293.6192708333333 L 812.2994791666666,298.6192708333333 Z" transform="rotate(-90 805.2994791666666 296.1192708333333)" class="arrow" style="fill:rgb(48, 48, 48);stroke-linejoin:miter;stroke-miterlimit:2;"/></g><g id="sprotty_fsm$state_q/state$InitOtpSt_to_fsm$state_q/state$ErrorSt" class="sprotty-edge transition" style="fill:none;stroke:rgb(48, 48, 48);stroke-linejoin:round;"><g><path d=" M818.6119791666666,336.1192708333333 C830.9635416666666,351.1192708333333 830.9635416666666,358.6192708333333 830.9635416666665,368.2026041666666 C830.9635416666665,377.7859375 830.9635416666665,389.4526041666666 830.9635416666665,401.11927083333325 C830.9635416666666,412.7859375 830.9635416666667,424.4526041666666 830.9635416666667,444.4526041666666 C830.9635416666666,464.4526041666666 830.9635416666667,492.78593750000005 830.9635416666667,512.7859375 C830.9635416666667,532.7859375 830.9635416666666,544.4526041666666 830.9635416666666,556.1192708333333 C830.9635416666666,567.7859374999999 830.9635416666666,579.4526041666666 830.9635416666666,597.0240125868055 C830.9635416666667,614.5954210069445 830.9635416666669,638.0715711805556 830.9635416666669,654.4286838107639 C830.9635416666667,670.7857964409724 830.9635416666666,680.0238715277778 830.9635416666669,689.2619466145834 C830.9635416666667,698.500021701389 830.9635416666666,707.7380967881944 830.9635416666666,717.7598036024306 C830.9635416666666,727.7815104166666 830.9635416666666,738.5868489583333 548.515625,760.1975260416666"/><path d=" M818.6119791666666,336.1192708333333 C830.9635416666666,351.1192708333333 830.9635416666666,358.6192708333333 830.9635416666665,368.2026041666666 C830.9635416666665,377.7859375 830.9635416666665,389.4526041666666 830.9635416666665,401.11927083333325 C830.9635416666666,412.7859375 830.9635416666667,424.4526041666666 830.9635416666667,444.4526041666666 C830.9635416666666,464.4526041666666 830.9635416666667,492.78593750000005 830.9635416666667,512.7859375 C830.9635416666667,532.7859375 830.9635416666666,544.4526041666666 830.9635416666666,556.1192708333333 C830.9635416666666,567.7859374999999 830.9635416666666,579.4526041666666 830.9635416666666,597.0240125868055 C830.9635416666667,614.5954210069445 830.9635416666669,638.0715711805556 830.9635416666669,654.4286838107639 C830.9635416666667,670.7857964409724 830.9635416666666,680.0238715277778 830.9635416666669,689.2619466145834 C830.9635416666667,698.500021701389 830.9635416666666,707.7380967881944 830.9635416666666,717.7598036024306 C830.9635416666666,727.7815104166666 830.9635416666666,738.5868489583333 548.515625,760.1975260416666" class="clickable"/></g><path d="M 548.515625,760.1975260416666 L 555.515625,757.6975260416666 L 555.515625,762.6975260416666 Z" transform="rotate(-4.375294648015118 548.515625 760.1975260416666)" class="arrow" style="fill:rgb(48, 48, 48);stroke-linejoin:miter;stroke-miterlimit:2;"/></g><g id="sprotty_fsm$state_q/state$InitOtpSt_to_fsm$state_q/state$InitPartSt" class="sprotty-edge transition" style="fill:none;stroke:rgb(48, 48, 48);stroke-linejoin:round;"><g><path d=" M791.9869791666666,336.1192708333333 C791.9869791666666,336.1192708333333 780.8705729166667,351.1192708333333 779.6354166666666,366.1192708333333"/><path d=" M791.9869791666666,336.1192708333333 C791.9869791666666,336.1192708333333 780.8705729166667,351.1192708333333 779.6354166666666,366.1192708333333" class="clickable"/></g><path d="M 779.6354166666666,366.1192708333333 L 786.6354166666666,363.6192708333333 L 786.6354166666666,368.6192708333333 Z" transform="rotate(-85.29267082418943 779.6354166666666 366.1192708333333)" class="arrow" style="fill:rgb(48, 48, 48);stroke-linejoin:miter;stroke-miterlimit:2;"/></g><g id="sprotty_fsm$state_q/state$InitPartSt_to_fsm$state_q/state$IdleSt" class="sprotty-edge transition" style="fill:none;stroke:rgb(48, 48, 48);stroke-linejoin:round;"><g><path d=" M779.6354166666666,406.1192708333333 C779.6354166666666,406.1192708333333 744.6966145833334,436.1192708333333 430.2473958333333,466.1192708333333"/><path d=" M779.6354166666666,406.1192708333333 C779.6354166666666,406.1192708333333 744.6966145833334,436.1192708333333 430.2473958333333,466.1192708333333" class="clickable"/></g><path d="M 430.2473958333333,466.1192708333333 L 437.2473958333333,463.6192708333333 L 437.2473958333333,468.6192708333333 Z" transform="rotate(-5.449803856702715 430.2473958333333 466.1192708333333)" class="arrow" style="fill:rgb(48, 48, 48);stroke-linejoin:miter;stroke-miterlimit:2;"/></g><g id="sprotty_fsm$state_q/state$IdleSt_to_fsm$state_q/state$ReadSt" class="sprotty-edge transition" style="fill:none;stroke:rgb(48, 48, 48);stroke-linejoin:round;"><g><path d=" M386.2473958333333,506.1192708333333 C386.2473958333333,506.1192708333333 321.0220052083334,521.1192708333333 313.77473958333337,536.1192708333333"/><path d=" M386.2473958333333,506.1192708333333 C386.2473958333333,506.1192708333333 321.0220052083334,521.1192708333333 313.77473958333337,536.1192708333333" class="clickable"/></g><path d="M 313.77473958333337,536.1192708333333 L 320.77473958333337,533.6192708333333 L 320.77473958333337,538.6192708333333 Z" transform="rotate(-64.21244075178159 313.77473958333337 536.1192708333333)" class="arrow" style="fill:rgb(48, 48, 48);stroke-linejoin:miter;stroke-miterlimit:2;"/></g><g id="sprotty_fsm$state_q/state$IdleSt_to_fsm$state_q/state$ScrSt" class="sprotty-edge transition" style="fill:none;stroke:rgb(48, 48, 48);stroke-linejoin:round;"><g><path d=" M390.2473958333333,466.1192708333333 C430.86458333333337,436.1192708333333 430.86458333333337,421.1192708333333 430.86458333333337,409.0359375 C430.86458333333337,396.9526041666667 430.86458333333337,387.7859375 430.8645833333334,378.6192708333333 C430.8645833333334,369.4526041666666 430.8645833333334,360.2859375 430.8645833333334,344.03593749999993 C430.86458333333337,327.78593749999993 430.8645833333333,304.4526041666666 430.86458333333337,288.2026041666666 C430.8645833333334,271.9526041666666 430.8645833333334,262.7859375 430.8645833333334,253.61927083333333 C430.8645833333334,244.45260416666665 430.8645833333334,235.2859375 430.8645833333334,228.20260416666665 C430.86458333333337,221.1192708333333 430.86458333333337,216.11927083333333 432.45312500000006,206.11927083333333"/><path d=" M390.2473958333333,466.1192708333333 C430.86458333333337,436.1192708333333 430.86458333333337,421.1192708333333 430.86458333333337,409.0359375 C430.86458333333337,396.9526041666667 430.86458333333337,387.7859375 430.8645833333334,378.6192708333333 C430.8645833333334,369.4526041666666 430.8645833333334,360.2859375 430.8645833333334,344.03593749999993 C430.86458333333337,327.78593749999993 430.8645833333333,304.4526041666666 430.86458333333337,288.2026041666666 C430.8645833333334,271.9526041666666 430.8645833333334,262.7859375 430.8645833333334,253.61927083333333 C430.8645833333334,244.45260416666665 430.8645833333334,235.2859375 430.8645833333334,228.20260416666665 C430.86458333333337,221.1192708333333 430.86458333333337,216.11927083333333 432.45312500000006,206.11927083333333" class="clickable"/></g><path d="M 432.45312500000006,206.11927083333333 L 439.45312500000006,203.61927083333333 L 439.45312500000006,208.61927083333333 Z" transform="rotate(99.02625281351635 432.45312500000006 206.11927083333333)" class="arrow" style="fill:rgb(48, 48, 48);stroke-linejoin:miter;stroke-miterlimit:2;"/></g><g id="sprotty_fsm$state_q/state$IdleSt_to_fsm$state_q/state$WriteSt" class="sprotty-edge transition" style="fill:none;stroke:rgb(48, 48, 48);stroke-linejoin:round;"><g><path d=" M400.2473958333333,466.1192708333333 C546.4973958333334,436.1192708333333 546.4973958333334,421.1192708333333 546.4973958333334,410.28593749999993 C546.4973958333334,399.4526041666666 546.4973958333334,392.78593749999993 546.4973958333334,386.1192708333333 C546.4973958333334,379.4526041666666 546.4973958333334,372.78593749999993 546.4973958333334,365.7026041666666 C546.4973958333334,358.6192708333333 546.4973958333334,351.1192708333333 608.3619791666666,336.1192708333333"/><path d=" M400.2473958333333,466.1192708333333 C546.4973958333334,436.1192708333333 546.4973958333334,421.1192708333333 546.4973958333334,410.28593749999993 C546.4973958333334,399.4526041666666 546.4973958333334,392.78593749999993 546.4973958333334,386.1192708333333 C546.4973958333334,379.4526041666666 546.4973958333334,372.78593749999993 546.4973958333334,365.7026041666666 C546.4973958333334,358.6192708333333 546.4973958333334,351.1192708333333 608.3619791666666,336.1192708333333" class="clickable"/></g><path d="M 608.3619791666666,336.1192708333333 L 615.3619791666666,333.6192708333333 L 615.3619791666666,338.6192708333333 Z" transform="rotate(166.37079622071835 608.3619791666666 336.1192708333333)" class="arrow" style="fill:rgb(48, 48, 48);stroke-linejoin:miter;stroke-miterlimit:2;"/></g><g id="sprotty_fsm$state_q/state$IdleSt_to_fsm$state_q/state$DigClrSt" class="sprotty-edge transition" style="fill:none;stroke:rgb(48, 48, 48);stroke-linejoin:round;"><g><path d=" M422.2473958333333,506.1192708333333 C422.2473958333333,506.1192708333333 435.4169270833333,521.1192708333333 436.8802083333333,536.1192708333333"/><path d=" M422.2473958333333,506.1192708333333 C422.2473958333333,506.1192708333333 435.4169270833333,521.1192708333333 436.8802083333333,536.1192708333333" class="clickable"/></g><path d="M 436.8802083333333,536.1192708333333 L 443.8802083333333,533.6192708333333 L 443.8802083333333,538.6192708333333 Z" transform="rotate(-95.57169311729712 436.8802083333333 536.1192708333333)" class="arrow" style="fill:rgb(48, 48, 48);stroke-linejoin:miter;stroke-miterlimit:2;"/></g><g id="sprotty_fsm$state_q/state$ReadSt_to_fsm$state_q/state$ReadWaitSt" class="sprotty-edge transition" style="fill:none;stroke:rgb(48, 48, 48);stroke-linejoin:round;"><g><path d=" M281.41536458333337,536.1192708333333 C205.77083333333334,521.1192708333333 205.77083333333331,513.6192708333333 205.77083333333331,504.03593749999993 C205.77083333333331,494.45260416666656 205.77083333333331,482.7859375 205.77083333333331,471.11927083333325 C205.77083333333334,459.4526041666666 205.77083333333337,447.78593749999993 205.77083333333334,427.78593749999993 C205.77083333333334,407.78593749999993 205.77083333333331,379.4526041666666 205.77083333333334,360.7026041666666 C205.77083333333337,341.9526041666666 205.77083333333337,332.7859375 205.77083333333337,323.6192708333333 C205.77083333333337,314.4526041666666 205.77083333333337,305.2859375 205.77083333333337,296.9526041666666 C205.77083333333334,288.6192708333333 205.77083333333334,281.1192708333333 210.76718750000006,266.1192708333333"/><path d=" M281.41536458333337,536.1192708333333 C205.77083333333334,521.1192708333333 205.77083333333331,513.6192708333333 205.77083333333331,504.03593749999993 C205.77083333333331,494.45260416666656 205.77083333333331,482.7859375 205.77083333333331,471.11927083333325 C205.77083333333334,459.4526041666666 205.77083333333337,447.78593749999993 205.77083333333334,427.78593749999993 C205.77083333333334,407.78593749999993 205.77083333333331,379.4526041666666 205.77083333333334,360.7026041666666 C205.77083333333337,341.9526041666666 205.77083333333337,332.7859375 205.77083333333337,323.6192708333333 C205.77083333333337,314.4526041666666 205.77083333333337,305.2859375 205.77083333333337,296.9526041666666 C205.77083333333334,288.6192708333333 205.77083333333334,281.1192708333333 210.76718750000006,266.1192708333333" class="clickable"/></g><path d="M 210.76718750000006,266.1192708333333 L 217.76718750000006,263.6192708333333 L 217.76718750000006,268.6192708333333 Z" transform="rotate(108.42241445738951 210.76718750000006 266.1192708333333)" class="arrow" style="fill:rgb(48, 48, 48);stroke-linejoin:miter;stroke-miterlimit:2;"/></g><g id="sprotty_fsm$state_q/state$ReadSt_to_fsm$state_q/state$IdleSt" class="sprotty-edge transition" style="fill:none;stroke:rgb(48, 48, 48);stroke-linejoin:round;"><g><path d=" M297.59505208333337,536.1192708333333 C304.6602864583334,521.1192708333333 368.2473958333333,506.1192708333333 368.2473958333333,506.1192708333333"/><path d=" M297.59505208333337,536.1192708333333 C304.6602864583334,521.1192708333333 368.2473958333333,506.1192708333333 368.2473958333333,506.1192708333333" class="clickable"/></g><path d="M 368.2473958333333,506.1192708333333 L 375.2473958333333,503.6192708333333 L 375.2473958333333,508.6192708333333 Z" transform="rotate(166.72676106330223 368.2473958333333 506.1192708333333)" class="arrow" style="fill:rgb(48, 48, 48);stroke-linejoin:miter;stroke-miterlimit:2;"/></g><g id="sprotty_fsm$state_q/state$ReadWaitSt_to_fsm$state_q/state$ErrorSt" class="sprotty-edge transition" style="fill:none;stroke:rgb(48, 48, 48);stroke-linejoin:round;"><g><path d=" M191.18593750000008,266.1192708333333 C154.77083333333334,281.1192708333333 154.77083333333334,288.6192708333333 154.77083333333334,296.9526041666667 C154.77083333333334,305.2859375 154.77083333333334,314.4526041666667 154.77083333333337,323.61927083333336 C154.77083333333337,332.7859375 154.77083333333334,341.9526041666667 154.77083333333334,360.7026041666666 C154.77083333333334,379.4526041666666 154.77083333333334,407.7859375 154.77083333333334,429.03593749999993 C154.77083333333334,450.28593749999993 154.77083333333334,464.4526041666666 154.77083333333334,478.6192708333333 C154.77083333333334,492.78593749999993 154.77083333333334,506.95260416666656 154.77083333333334,525.7026041666666 C154.77083333333331,544.4526041666666 154.77083333333334,567.7859374999999 154.77083333333334,585.3216417100695 C154.77083333333334,602.857345920139 154.77083333333334,614.5954210069444 154.77083333333334,626.33349609375 C154.77083333333334,638.0715711805556 154.77083333333334,649.8096462673611 154.77083333333334,664.9167588975694 C154.77083333333334,680.0238715277777 154.77083333333334,698.500021701389 154.77083333333334,713.1407660590279 C154.77083333333334,727.7815104166666 154.77083333333334,738.5868489583333 516.15625,760.1975260416666"/><path d=" M191.18593750000008,266.1192708333333 C154.77083333333334,281.1192708333333 154.77083333333334,288.6192708333333 154.77083333333334,296.9526041666667 C154.77083333333334,305.2859375 154.77083333333334,314.4526041666667 154.77083333333337,323.61927083333336 C154.77083333333337,332.7859375 154.77083333333334,341.9526041666667 154.77083333333334,360.7026041666666 C154.77083333333334,379.4526041666666 154.77083333333334,407.7859375 154.77083333333334,429.03593749999993 C154.77083333333334,450.28593749999993 154.77083333333334,464.4526041666666 154.77083333333334,478.6192708333333 C154.77083333333334,492.78593749999993 154.77083333333334,506.95260416666656 154.77083333333334,525.7026041666666 C154.77083333333331,544.4526041666666 154.77083333333334,567.7859374999999 154.77083333333334,585.3216417100695 C154.77083333333334,602.857345920139 154.77083333333334,614.5954210069444 154.77083333333334,626.33349609375 C154.77083333333334,638.0715711805556 154.77083333333334,649.8096462673611 154.77083333333334,664.9167588975694 C154.77083333333334,680.0238715277777 154.77083333333334,698.500021701389 154.77083333333334,713.1407660590279 C154.77083333333334,727.7815104166666 154.77083333333334,738.5868489583333 516.15625,760.1975260416666" class="clickable"/></g><path d="M 516.15625,760.1975260416666 L 523.15625,757.6975260416666 L 523.15625,762.6975260416666 Z" transform="rotate(-176.57781481307129 516.15625 760.1975260416666)" class="arrow" style="fill:rgb(48, 48, 48);stroke-linejoin:miter;stroke-miterlimit:2;"/></g><g id="sprotty_fsm$state_q/state$ReadWaitSt_to_fsm$state_q/state$DescrSt" class="sprotty-edge transition" style="fill:none;stroke:rgb(48, 48, 48);stroke-linejoin:round;"><g><path d=" M249.92968750000006,266.1192708333333 C249.92968750000006,266.1192708333333 311.92890625,281.1192708333333 318.8177083333333,296.1192708333333"/><path d=" M249.92968750000006,266.1192708333333 C249.92968750000006,266.1192708333333 311.92890625,281.1192708333333 318.8177083333333,296.1192708333333" class="clickable"/></g><path d="M 318.8177083333333,296.1192708333333 L 325.8177083333333,293.6192708333333 L 325.8177083333333,298.6192708333333 Z" transform="rotate(-114.66711740830904 318.8177083333333 296.1192708333333)" class="arrow" style="fill:rgb(48, 48, 48);stroke-linejoin:miter;stroke-miterlimit:2;"/></g><g id="sprotty_fsm$state_q/state$ReadWaitSt_to_fsm$state_q/state$IdleSt" class="sprotty-edge transition" style="fill:none;stroke:rgb(48, 48, 48);stroke-linejoin:round;"><g><path d=" M230.34843750000007,266.1192708333333 C256.77083333333337,281.1192708333333 256.77083333333337,288.6192708333333 256.77083333333337,296.9526041666667 C256.77083333333337,305.2859375 256.77083333333337,314.4526041666666 256.77083333333337,323.61927083333325 C256.77083333333337,332.7859375 256.77083333333337,341.9526041666667 256.77083333333337,355.7026041666667 C256.77083333333337,369.4526041666666 256.77083333333337,387.7859375 256.77083333333337,404.4526041666666 C256.77083333333337,421.1192708333333 256.77083333333337,436.1192708333333 360.2473958333333,466.1192708333333"/><path d=" M230.34843750000007,266.1192708333333 C256.77083333333337,281.1192708333333 256.77083333333337,288.6192708333333 256.77083333333337,296.9526041666667 C256.77083333333337,305.2859375 256.77083333333337,314.4526041666666 256.77083333333337,323.61927083333325 C256.77083333333337,332.7859375 256.77083333333337,341.9526041666667 256.77083333333337,355.7026041666667 C256.77083333333337,369.4526041666666 256.77083333333337,387.7859375 256.77083333333337,404.4526041666666 C256.77083333333337,421.1192708333333 256.77083333333337,436.1192708333333 360.2473958333333,466.1192708333333" class="clickable"/></g><path d="M 360.2473958333333,466.1192708333333 L 367.2473958333333,463.6192708333333 L 367.2473958333333,468.6192708333333 Z" transform="rotate(-163.83203084732259 360.2473958333333 466.1192708333333)" class="arrow" style="fill:rgb(48, 48, 48);stroke-linejoin:miter;stroke-miterlimit:2;"/></g><g id="sprotty_fsm$state_q/state$DescrSt_to_fsm$state_q/state$DescrWaitSt" class="sprotty-edge transition" style="fill:none;stroke:rgb(48, 48, 48);stroke-linejoin:round;"><g><path d=" M318.8177083333333,336.1192708333333 C318.8177083333333,336.1192708333333 318.81770833333337,351.1192708333333 318.81770833333337,366.1192708333333"/><path d=" M318.8177083333333,336.1192708333333 C318.8177083333333,336.1192708333333 318.81770833333337,351.1192708333333 318.81770833333337,366.1192708333333" class="clickable"/></g><path d="M 318.81770833333337,366.1192708333333 L 325.81770833333337,363.6192708333333 L 325.81770833333337,368.6192708333333 Z" transform="rotate(-90 318.81770833333337 366.1192708333333)" class="arrow" style="fill:rgb(48, 48, 48);stroke-linejoin:miter;stroke-miterlimit:2;"/></g><g id="sprotty_fsm$state_q/state$DescrWaitSt_to_fsm$state_q/state$IdleSt" class="sprotty-edge transition" style="fill:none;stroke:rgb(48, 48, 48);stroke-linejoin:round;"><g><path d=" M318.81770833333337,406.1192708333333 C318.81770833333337,406.1192708333333 323.9606770833334,436.1192708333333 370.2473958333333,466.1192708333333"/><path d=" M318.81770833333337,406.1192708333333 C318.81770833333337,406.1192708333333 323.9606770833334,436.1192708333333 370.2473958333333,466.1192708333333" class="clickable"/></g><path d="M 370.2473958333333,466.1192708333333 L 377.2473958333333,463.6192708333333 L 377.2473958333333,468.6192708333333 Z" transform="rotate(-147.05135237587388 370.2473958333333 466.1192708333333)" class="arrow" style="fill:rgb(48, 48, 48);stroke-linejoin:miter;stroke-miterlimit:2;"/></g><g id="sprotty_fsm$state_q/state$WriteSt_to_fsm$state_q/state$WriteWaitSt" class="sprotty-edge transition" style="fill:none;stroke:rgb(48, 48, 48);stroke-linejoin:round;"><g><path d=" M641.4244791666666,336.1192708333333 C641.4244791666666,336.1192708333333 661.3299479166668,351.1192708333333 663.5416666666667,366.1192708333333"/><path d=" M641.4244791666666,336.1192708333333 C641.4244791666666,336.1192708333333 661.3299479166668,351.1192708333333 663.5416666666667,366.1192708333333" class="clickable"/></g><path d="M 663.5416666666667,366.1192708333333 L 670.5416666666667,363.6192708333333 L 670.5416666666667,368.6192708333333 Z" transform="rotate(-98.38770637771174 663.5416666666667 366.1192708333333)" class="arrow" style="fill:rgb(48, 48, 48);stroke-linejoin:miter;stroke-miterlimit:2;"/></g><g id="sprotty_fsm$state_q/state$WriteSt_to_fsm$state_q/state$IdleSt" class="sprotty-edge transition" style="fill:none;stroke:rgb(48, 48, 48);stroke-linejoin:round;"><g><path d=" M624.8932291666666,336.1192708333333 C602.7760416666667,351.1192708333333 602.7760416666667,358.6192708333333 602.7760416666667,365.7026041666666 C602.7760416666667,372.78593749999993 602.7760416666667,379.4526041666666 602.7760416666667,386.1192708333333 C602.7760416666667,392.78593749999993 602.7760416666667,399.4526041666666 602.7760416666667,410.28593749999993 C602.7760416666667,421.1192708333333 602.7760416666667,436.1192708333333 410.2473958333333,466.1192708333333"/><path d=" M624.8932291666666,336.1192708333333 C602.7760416666667,351.1192708333333 602.7760416666667,358.6192708333333 602.7760416666667,365.7026041666666 C602.7760416666667,372.78593749999993 602.7760416666667,379.4526041666666 602.7760416666667,386.1192708333333 C602.7760416666667,392.78593749999993 602.7760416666667,399.4526041666666 602.7760416666667,410.28593749999993 C602.7760416666667,421.1192708333333 602.7760416666667,436.1192708333333 410.2473958333333,466.1192708333333" class="clickable"/></g><path d="M 410.2473958333333,466.1192708333333 L 417.2473958333333,463.6192708333333 L 417.2473958333333,468.6192708333333 Z" transform="rotate(-8.856661706934885 410.2473958333333 466.1192708333333)" class="arrow" style="fill:rgb(48, 48, 48);stroke-linejoin:miter;stroke-miterlimit:2;"/></g><g id="sprotty_fsm$state_q/state$WriteWaitSt_to_fsm$state_q/state$ErrorSt" class="sprotty-edge transition" style="fill:none;stroke:rgb(48, 48, 48);stroke-linejoin:round;"><g><path d=" M680.1302083333334,406.1192708333333 C680.1302083333333,436.1192708333333 680.1302083333333,457.3692708333333 680.1302083333333,475.0776041666666 C680.1302083333333,492.7859375 680.1302083333333,506.9526041666666 680.1302083333333,525.7026041666666 C680.1302083333333,544.4526041666666 680.1302083333333,567.7859374999999 680.1302083333333,585.3216417100695 C680.1302083333333,602.8573459201389 680.1302083333333,614.5954210069444 680.1302083333333,626.33349609375 C680.1302083333333,638.0715711805557 680.1302083333333,649.8096462673611 680.1302083333333,664.9167588975694 C680.1302083333333,680.0238715277777 680.1302083333333,698.5000217013887 680.1302083333333,713.1407660590277 C680.1302083333333,727.7815104166666 680.1302083333333,738.5868489583333 537.7291666666666,760.1975260416666"/><path d=" M680.1302083333334,406.1192708333333 C680.1302083333333,436.1192708333333 680.1302083333333,457.3692708333333 680.1302083333333,475.0776041666666 C680.1302083333333,492.7859375 680.1302083333333,506.9526041666666 680.1302083333333,525.7026041666666 C680.1302083333333,544.4526041666666 680.1302083333333,567.7859374999999 680.1302083333333,585.3216417100695 C680.1302083333333,602.8573459201389 680.1302083333333,614.5954210069444 680.1302083333333,626.33349609375 C680.1302083333333,638.0715711805557 680.1302083333333,649.8096462673611 680.1302083333333,664.9167588975694 C680.1302083333333,680.0238715277777 680.1302083333333,698.5000217013887 680.1302083333333,713.1407660590277 C680.1302083333333,727.7815104166666 680.1302083333333,738.5868489583333 537.7291666666666,760.1975260416666" class="clickable"/></g><path d="M 537.7291666666666,760.1975260416666 L 544.7291666666666,757.6975260416666 L 544.7291666666666,762.6975260416666 Z" transform="rotate(-8.629320346084297 537.7291666666666 760.1975260416666)" class="arrow" style="fill:rgb(48, 48, 48);stroke-linejoin:miter;stroke-miterlimit:2;"/></g><g id="sprotty_fsm$state_q/state$WriteWaitSt_to_fsm$state_q/state$IdleSt" class="sprotty-edge transition" style="fill:none;stroke:rgb(48, 48, 48);stroke-linejoin:round;"><g><path d=" M646.9531250000001,406.1192708333333 C646.9531250000001,406.1192708333333 624.2825520833335,436.1192708333333 420.2473958333333,466.1192708333333"/><path d=" M646.9531250000001,406.1192708333333 C646.9531250000001,406.1192708333333 624.2825520833335,436.1192708333333 420.2473958333333,466.1192708333333" class="clickable"/></g><path d="M 420.2473958333333,466.1192708333333 L 427.2473958333333,463.6192708333333 L 427.2473958333333,468.6192708333333 Z" transform="rotate(-8.36446503666355 420.2473958333333 466.1192708333333)" class="arrow" style="fill:rgb(48, 48, 48);stroke-linejoin:miter;stroke-miterlimit:2;"/></g><g id="sprotty_fsm$state_q/state$ScrSt_to_fsm$state_q/state$ScrWaitSt" class="sprotty-edge transition" style="fill:none;stroke:rgb(48, 48, 48);stroke-linejoin:round;"><g><path d=" M445.21875000000006,206.11927083333333 C445.21875000000006,206.11927083333333 503.1117187500001,216.11927083333333 509.54427083333337,226.11927083333333"/><path d=" M445.21875000000006,206.11927083333333 C445.21875000000006,206.11927083333333 503.1117187500001,216.11927083333333 509.54427083333337,226.11927083333333" class="clickable"/></g><path d="M 509.54427083333337,226.11927083333333 L 516.5442708333334,223.61927083333333 L 516.5442708333334,228.61927083333333 Z" transform="rotate(-122.7513614889448 509.54427083333337 226.11927083333333)" class="arrow" style="fill:rgb(48, 48, 48);stroke-linejoin:miter;stroke-miterlimit:2;"/></g><g id="sprotty_fsm$state_q/state$ScrSt_to_fsm$state_q/state$IdleSt" class="sprotty-edge transition" style="fill:none;stroke:rgb(48, 48, 48);stroke-linejoin:round;"><g><path d=" M419.68750000000006,206.11927083333333 C379.86458333333337,216.11927083333333 379.86458333333337,221.1192708333333 379.86458333333337,228.20260416666665 C379.86458333333337,235.2859375 379.86458333333337,244.45260416666665 379.86458333333337,253.61927083333333 C379.86458333333337,262.7859375 379.86458333333337,271.9526041666666 379.8645833333333,288.2026041666666 C379.8645833333333,304.4526041666666 379.8645833333333,327.78593749999993 379.8645833333333,344.03593749999993 C379.86458333333337,360.2859375 379.86458333333337,369.4526041666666 379.8645833333333,378.6192708333333 C379.8645833333333,387.7859375 379.8645833333333,396.9526041666667 379.8645833333333,409.0359375 C379.86458333333337,421.1192708333333 379.86458333333337,436.1192708333333 380.2473958333333,466.1192708333333"/><path d=" M419.68750000000006,206.11927083333333 C379.86458333333337,216.11927083333333 379.86458333333337,221.1192708333333 379.86458333333337,228.20260416666665 C379.86458333333337,235.2859375 379.86458333333337,244.45260416666665 379.86458333333337,253.61927083333333 C379.86458333333337,262.7859375 379.86458333333337,271.9526041666666 379.8645833333333,288.2026041666666 C379.8645833333333,304.4526041666666 379.8645833333333,327.78593749999993 379.8645833333333,344.03593749999993 C379.86458333333337,360.2859375 379.86458333333337,369.4526041666666 379.8645833333333,378.6192708333333 C379.8645833333333,387.7859375 379.8645833333333,396.9526041666667 379.8645833333333,409.0359375 C379.86458333333337,421.1192708333333 379.86458333333337,436.1192708333333 380.2473958333333,466.1192708333333" class="clickable"/></g><path d="M 380.2473958333333,466.1192708333333 L 387.2473958333333,463.6192708333333 L 387.2473958333333,468.6192708333333 Z" transform="rotate(-90.73107834148612 380.2473958333333 466.1192708333333)" class="arrow" style="fill:rgb(48, 48, 48);stroke-linejoin:miter;stroke-miterlimit:2;"/></g><g id="sprotty_fsm$state_q/state$ScrWaitSt_to_fsm$state_q/state$WriteSt" class="sprotty-edge transition" style="fill:none;stroke:rgb(48, 48, 48);stroke-linejoin:round;"><g><path d=" M523.5911458333334,266.1192708333333 C523.5911458333334,266.1192708333333 568.7317708333333,281.1192708333333 613.8723958333333,296.1192708333333"/><path d=" M523.5911458333334,266.1192708333333 C523.5911458333334,266.1192708333333 568.7317708333333,281.1192708333333 613.8723958333333,296.1192708333333" class="clickable"/></g><path d="M 613.8723958333333,296.1192708333333 L 620.8723958333333,293.6192708333333 L 620.8723958333333,298.6192708333333 Z" transform="rotate(-161.6186153056114 613.8723958333333 296.1192708333333)" class="arrow" style="fill:rgb(48, 48, 48);stroke-linejoin:miter;stroke-miterlimit:2;"/></g><g id="sprotty_fsm$state_q/state$ScrWaitSt_to_fsm$state_q/state$ErrorSt" class="sprotty-edge transition" style="fill:none;stroke:rgb(48, 48, 48);stroke-linejoin:round;"><g><path d=" M495.49739583333337,266.1192708333333 C495.49739583333337,281.1192708333333 495.4973958333334,298.6192708333333 495.4973958333334,313.2026041666667 C495.49739583333337,327.7859375 495.49739583333337,339.4526041666666 495.49739583333337,359.4526041666666 C495.49739583333337,379.4526041666666 495.4973958333334,407.7859375 495.4973958333334,429.03593750000005 C495.49739583333337,450.2859375 495.4973958333334,464.4526041666667 495.4973958333334,478.6192708333333 C495.49739583333337,492.7859375 495.49739583333337,506.9526041666666 495.49739583333337,525.7026041666666 C495.4973958333334,544.4526041666666 495.49739583333337,567.7859374999999 495.49739583333337,585.3216417100695 C495.49739583333337,602.8573459201389 495.4973958333334,614.5954210069444 495.4973958333334,626.33349609375 C495.49739583333337,638.0715711805557 495.4973958333334,649.8096462673612 495.4973958333334,664.9167588975695 C495.49739583333337,680.0238715277778 495.49739583333337,698.5000217013888 495.49739583333337,713.1407660590278 C495.49739583333337,727.7815104166666 495.49739583333337,738.5868489583333 526.9427083333333,760.1975260416666"/><path d=" M495.49739583333337,266.1192708333333 C495.49739583333337,281.1192708333333 495.4973958333334,298.6192708333333 495.4973958333334,313.2026041666667 C495.49739583333337,327.7859375 495.49739583333337,339.4526041666666 495.49739583333337,359.4526041666666 C495.49739583333337,379.4526041666666 495.4973958333334,407.7859375 495.4973958333334,429.03593750000005 C495.49739583333337,450.2859375 495.4973958333334,464.4526041666667 495.4973958333334,478.6192708333333 C495.49739583333337,492.7859375 495.49739583333337,506.9526041666666 495.49739583333337,525.7026041666666 C495.4973958333334,544.4526041666666 495.49739583333337,567.7859374999999 495.49739583333337,585.3216417100695 C495.49739583333337,602.8573459201389 495.4973958333334,614.5954210069444 495.4973958333334,626.33349609375 C495.49739583333337,638.0715711805557 495.4973958333334,649.8096462673612 495.4973958333334,664.9167588975695 C495.49739583333337,680.0238715277778 495.49739583333337,698.5000217013888 495.49739583333337,713.1407660590278 C495.49739583333337,727.7815104166666 495.49739583333337,738.5868489583333 526.9427083333333,760.1975260416666" class="clickable"/></g><path d="M 526.9427083333333,760.1975260416666 L 533.9427083333333,757.6975260416666 L 533.9427083333333,762.6975260416666 Z" transform="rotate(-145.50134575047767 526.9427083333333 760.1975260416666)" class="arrow" style="fill:rgb(48, 48, 48);stroke-linejoin:miter;stroke-miterlimit:2;"/></g><g id="sprotty_fsm$state_q/state$DigClrSt_to_fsm$state_q/state$DigReadSt" class="sprotty-edge transition" style="fill:none;stroke:rgb(48, 48, 48);stroke-linejoin:round;"><g><path d=" M436.8802083333333,576.1192708333333 C436.8802083333333,576.1192708333333 435.63059895833334,591.1192708333333 424.3841145833333,606.1192708333333"/><path d=" M436.8802083333333,576.1192708333333 C436.8802083333333,576.1192708333333 435.63059895833334,591.1192708333333 424.3841145833333,606.1192708333333" class="clickable"/></g><path d="M 424.3841145833333,606.1192708333333 L 431.3841145833333,603.6192708333333 L 431.3841145833333,608.6192708333333 Z" transform="rotate(-53.13869768799348 424.3841145833333 606.1192708333333)" class="arrow" style="fill:rgb(48, 48, 48);stroke-linejoin:miter;stroke-miterlimit:2;"/></g><g id="sprotty_fsm$state_q/state$DigReadSt_to_fsm$state_q/state$DigReadWaitSt" class="sprotty-edge transition" style="fill:none;stroke:rgb(48, 48, 48);stroke-linejoin:round;"><g><path d=" M402.1106770833333,646.1192708333333 C402.1106770833333,646.1192708333333 371.25377604166664,661.5477213541667 93.54166666666666,676.976171875"/><path d=" M402.1106770833333,646.1192708333333 C402.1106770833333,646.1192708333333 371.25377604166664,661.5477213541667 93.54166666666666,676.976171875" class="clickable"/></g><path d="M 93.54166666666666,676.976171875 L 100.54166666666666,674.476171875 L 100.54166666666666,679.476171875 Z" transform="rotate(-3.179830119864224 93.54166666666666 676.976171875)" class="arrow" style="fill:rgb(48, 48, 48);stroke-linejoin:miter;stroke-miterlimit:2;"/></g><g id="sprotty_fsm$state_q/state$DigReadSt_to_fsm$state_q/state$IdleSt" class="sprotty-edge transition" style="fill:none;stroke:rgb(48, 48, 48);stroke-linejoin:round;"><g><path d=" M402.1106770833333,606.1192708333333 C389.6145833333333,591.1192708333333 389.6145833333333,583.6192708333333 389.6145833333333,576.5359374999999 C389.6145833333333,569.4526041666666 389.6145833333333,562.7859374999999 389.6145833333333,556.1192708333333 C389.6145833333333,549.4526041666666 389.6145833333333,542.7859374999999 389.6145833333333,535.7026041666666 C389.6145833333333,528.6192708333333 389.6145833333333,521.1192708333333 404.2473958333333,506.1192708333333"/><path d=" M402.1106770833333,606.1192708333333 C389.6145833333333,591.1192708333333 389.6145833333333,583.6192708333333 389.6145833333333,576.5359374999999 C389.6145833333333,569.4526041666666 389.6145833333333,562.7859374999999 389.6145833333333,556.1192708333333 C389.6145833333333,549.4526041666666 389.6145833333333,542.7859374999999 389.6145833333333,535.7026041666666 C389.6145833333333,528.6192708333333 389.6145833333333,521.1192708333333 404.2473958333333,506.1192708333333" class="clickable"/></g><path d="M 404.2473958333333,506.1192708333333 L 411.2473958333333,503.6192708333333 L 411.2473958333333,508.6192708333333 Z" transform="rotate(134.2900701754787 404.2473958333333 506.1192708333333)" class="arrow" style="fill:rgb(48, 48, 48);stroke-linejoin:miter;stroke-miterlimit:2;"/></g><g id="sprotty_fsm$state_q/state$DigReadWaitSt_to_fsm$state_q/state$ErrorSt" class="sprotty-edge transition" style="fill:none;stroke:rgb(48, 48, 48);stroke-linejoin:round;"><g><path d=" M73.15625,716.976171875 C73.15625,716.976171875 116.37760416666666,738.5868489583333 505.36979166666663,760.1975260416666"/><path d=" M73.15625,716.976171875 C73.15625,716.976171875 116.37760416666666,738.5868489583333 505.36979166666663,760.1975260416666" class="clickable"/></g><path d="M 505.36979166666663,760.1975260416666 L 512.3697916666666,757.6975260416666 L 512.3697916666666,762.6975260416666 Z" transform="rotate(-176.82016988013578 505.36979166666663 760.1975260416666)" class="arrow" style="fill:rgb(48, 48, 48);stroke-linejoin:miter;stroke-miterlimit:2;"/></g><g id="sprotty_fsm$state_q/state$DigReadWaitSt_to_fsm$state_q/state$DigSt" class="sprotty-edge transition" style="fill:none;stroke:rgb(48, 48, 48);stroke-linejoin:round;"><g><path d=" M52.77083333333333,676.976171875 C52.77083333333334,661.5477213541667 52.77083333333334,626.3334960937501 52.77083333333335,602.8930501302084 C52.77083333333335,579.4526041666666 52.77083333333334,567.7859374999999 52.77083333333335,556.1192708333333 C52.77083333333336,544.4526041666667 52.77083333333335,532.7859375 52.77083333333336,512.7859375 C52.77083333333335,492.78593750000005 52.77083333333334,464.45260416666656 52.77083333333335,443.2026041666666 C52.77083333333336,421.9526041666666 52.77083333333335,407.7859375 52.77083333333336,393.61927083333336 C52.77083333333335,379.4526041666667 52.77083333333334,365.2859375 52.77083333333335,346.5359375 C52.77083333333336,327.78593749999993 52.77083333333335,304.4526041666666 52.77083333333335,287.3692708333333 C52.77083333333335,270.28593749999993 52.77083333333334,259.45260416666656 52.77083333333335,248.61927083333327 C52.77083333333336,237.7859375 52.77083333333335,226.95260416666665 52.77083333333336,211.5359375 C52.77083333333336,196.11927083333333 52.77083333333335,176.11927083333333 52.77083333333336,161.95260416666667 C52.77083333333336,147.7859375 52.77083333333335,139.45260416666667 52.77083333333336,131.11927083333333 C52.77083333333336,122.7859375 52.77083333333335,114.45260416666666 52.77083333333336,106.52102864583333 C52.77083333333336,98.589453125 52.77083333333335,91.05963541666667 328.74479166666674,76"/><path d=" M52.77083333333333,676.976171875 C52.77083333333334,661.5477213541667 52.77083333333334,626.3334960937501 52.77083333333335,602.8930501302084 C52.77083333333335,579.4526041666666 52.77083333333334,567.7859374999999 52.77083333333335,556.1192708333333 C52.77083333333336,544.4526041666667 52.77083333333335,532.7859375 52.77083333333336,512.7859375 C52.77083333333335,492.78593750000005 52.77083333333334,464.45260416666656 52.77083333333335,443.2026041666666 C52.77083333333336,421.9526041666666 52.77083333333335,407.7859375 52.77083333333336,393.61927083333336 C52.77083333333335,379.4526041666667 52.77083333333334,365.2859375 52.77083333333335,346.5359375 C52.77083333333336,327.78593749999993 52.77083333333335,304.4526041666666 52.77083333333335,287.3692708333333 C52.77083333333335,270.28593749999993 52.77083333333334,259.45260416666656 52.77083333333335,248.61927083333327 C52.77083333333336,237.7859375 52.77083333333335,226.95260416666665 52.77083333333336,211.5359375 C52.77083333333336,196.11927083333333 52.77083333333335,176.11927083333333 52.77083333333336,161.95260416666667 C52.77083333333336,147.7859375 52.77083333333335,139.45260416666667 52.77083333333336,131.11927083333333 C52.77083333333336,122.7859375 52.77083333333335,114.45260416666666 52.77083333333336,106.52102864583333 C52.77083333333336,98.589453125 52.77083333333335,91.05963541666667 328.74479166666674,76" class="clickable"/></g><path d="M 328.74479166666674,76 L 335.74479166666674,73.5 L 335.74479166666674,78.5 Z" transform="rotate(176.87652190202311 328.74479166666674 76)" class="arrow" style="fill:rgb(48, 48, 48);stroke-linejoin:miter;stroke-miterlimit:2;"/></g><g id="sprotty_fsm$state_q/state$DigSt_to_fsm$state_q/state$DigFinSt" class="sprotty-edge transition" style="fill:none;stroke:rgb(48, 48, 48);stroke-linejoin:round;"><g><path d=" M359.68229166666674,76 C660.875,91.05963541666667 660.875,98.589453125 660.875,105.6876953125 C660.875,112.78593749999999 660.875,119.45260416666666 660.875,126.11927083333333 C660.875,132.7859375 660.875,139.45260416666667 660.875,145.2859375 C660.875,151.11927083333333 660.875,156.11927083333333 648.3411458333334,166.11927083333333"/><path d=" M359.68229166666674,76 C660.875,91.05963541666667 660.875,98.589453125 660.875,105.6876953125 C660.875,112.78593749999999 660.875,119.45260416666666 660.875,126.11927083333333 C660.875,132.7859375 660.875,139.45260416666667 660.875,145.2859375 C660.875,151.11927083333333 660.875,156.11927083333333 648.3411458333334,166.11927083333333" class="clickable"/></g><path d="M 648.3411458333334,166.11927083333333 L 655.3411458333334,163.61927083333333 L 655.3411458333334,168.61927083333333 Z" transform="rotate(-38.5842374536594 648.3411458333334 166.11927083333333)" class="arrow" style="fill:rgb(48, 48, 48);stroke-linejoin:miter;stroke-miterlimit:2;"/></g><g id="sprotty_fsm$state_q/state$DigSt_to_fsm$state_q/state$DigPadSt" class="sprotty-edge transition" style="fill:none;stroke:rgb(48, 48, 48);stroke-linejoin:round;"><g><path d=" M349.36979166666674,76 C349.36979166666674,76 584.7947916666667,91.05963541666667 610.953125,106.11927083333333"/><path d=" M349.36979166666674,76 C349.36979166666674,76 584.7947916666667,91.05963541666667 610.953125,106.11927083333333" class="clickable"/></g><path d="M 610.953125,106.11927083333333 L 617.953125,103.61927083333333 L 617.953125,108.61927083333333 Z" transform="rotate(-150.07050034378912 610.953125 106.11927083333333)" class="arrow" style="fill:rgb(48, 48, 48);stroke-linejoin:miter;stroke-miterlimit:2;"/></g><g id="sprotty_fsm$state_q/state$DigSt_to_fsm$state_q/state$DigReadSt" class="sprotty-edge transition" style="fill:none;stroke:rgb(48, 48, 48);stroke-linejoin:round;"><g><path d=" M339.05729166666674,76 C103.77083333333334,91.05963541666667 103.77083333333334,98.589453125 103.77083333333334,106.52102864583333 C103.77083333333333,114.45260416666666 103.77083333333334,122.7859375 103.77083333333334,131.11927083333333 C103.77083333333333,139.45260416666667 103.77083333333334,147.7859375 103.77083333333334,161.95260416666667 C103.77083333333333,176.11927083333333 103.77083333333334,196.11927083333333 103.77083333333334,211.5359375 C103.77083333333333,226.95260416666665 103.77083333333334,237.7859375 103.77083333333334,248.61927083333327 C103.77083333333334,259.45260416666656 103.77083333333334,270.28593749999993 103.77083333333334,287.3692708333333 C103.77083333333333,304.4526041666666 103.77083333333334,327.78593749999993 103.77083333333334,346.5359375 C103.77083333333334,365.2859375 103.77083333333334,379.4526041666667 103.77083333333334,393.61927083333336 C103.77083333333334,407.7859375 103.77083333333334,421.9526041666666 103.77083333333334,443.2026041666666 C103.77083333333334,464.45260416666656 103.77083333333334,492.78593750000005 103.77083333333334,511.53593750000005 C103.77083333333334,530.2859375 103.77083333333334,539.4526041666667 103.77083333333334,548.6192708333333 C103.77083333333334,557.7859374999999 103.77083333333334,566.9526041666667 103.77083333333334,575.2859374999999 C103.77083333333334,583.6192708333333 103.77083333333334,591.1192708333333 379.8372395833333,606.1192708333333"/><path d=" M339.05729166666674,76 C103.77083333333334,91.05963541666667 103.77083333333334,98.589453125 103.77083333333334,106.52102864583333 C103.77083333333333,114.45260416666666 103.77083333333334,122.7859375 103.77083333333334,131.11927083333333 C103.77083333333333,139.45260416666667 103.77083333333334,147.7859375 103.77083333333334,161.95260416666667 C103.77083333333333,176.11927083333333 103.77083333333334,196.11927083333333 103.77083333333334,211.5359375 C103.77083333333333,226.95260416666665 103.77083333333334,237.7859375 103.77083333333334,248.61927083333327 C103.77083333333334,259.45260416666656 103.77083333333334,270.28593749999993 103.77083333333334,287.3692708333333 C103.77083333333333,304.4526041666666 103.77083333333334,327.78593749999993 103.77083333333334,346.5359375 C103.77083333333334,365.2859375 103.77083333333334,379.4526041666667 103.77083333333334,393.61927083333336 C103.77083333333334,407.7859375 103.77083333333334,421.9526041666666 103.77083333333334,443.2026041666666 C103.77083333333334,464.45260416666656 103.77083333333334,492.78593750000005 103.77083333333334,511.53593750000005 C103.77083333333334,530.2859375 103.77083333333334,539.4526041666667 103.77083333333334,548.6192708333333 C103.77083333333334,557.7859374999999 103.77083333333334,566.9526041666667 103.77083333333334,575.2859374999999 C103.77083333333334,583.6192708333333 103.77083333333334,591.1192708333333 379.8372395833333,606.1192708333333" class="clickable"/></g><path d="M 379.8372395833333,606.1192708333333 L 386.8372395833333,603.6192708333333 L 386.8372395833333,608.6192708333333 Z" transform="rotate(-176.88990617285896 379.8372395833333 606.1192708333333)" class="arrow" style="fill:rgb(48, 48, 48);stroke-linejoin:miter;stroke-miterlimit:2;"/></g><g id="sprotty_fsm$state_q/state$DigPadSt_to_fsm$state_q/state$DigFinSt" class="sprotty-edge transition" style="fill:none;stroke:rgb(48, 48, 48);stroke-linejoin:round;"><g><path d=" M610.953125,146.11927083333333 C610.953125,146.11927083333333 612.2065104166666,156.11927083333333 623.4869791666666,166.11927083333333"/><path d=" M610.953125,146.11927083333333 C610.953125,146.11927083333333 612.2065104166666,156.11927083333333 623.4869791666666,166.11927083333333" class="clickable"/></g><path d="M 623.4869791666666,166.11927083333333 L 630.4869791666666,163.61927083333333 L 630.4869791666666,168.61927083333333 Z" transform="rotate(-138.44339716236414 623.4869791666666 166.11927083333333)" class="arrow" style="fill:rgb(48, 48, 48);stroke-linejoin:miter;stroke-miterlimit:2;"/></g><g id="sprotty_fsm$state_q/state$DigFinSt_to_fsm$state_q/state$DigWaitSt" class="sprotty-edge transition" style="fill:none;stroke:rgb(48, 48, 48);stroke-linejoin:round;"><g><path d=" M635.9140625,206.11927083333333 C635.9140625,206.11927083333333 635.9140625,216.11927083333333 635.9140625,226.11927083333333"/><path d=" M635.9140625,206.11927083333333 C635.9140625,206.11927083333333 635.9140625,216.11927083333333 635.9140625,226.11927083333333" class="clickable"/></g><path d="M 635.9140625,226.11927083333333 L 642.9140625,223.61927083333333 L 642.9140625,228.61927083333333 Z" transform="rotate(-90 635.9140625 226.11927083333333)" class="arrow" style="fill:rgb(48, 48, 48);stroke-linejoin:miter;stroke-miterlimit:2;"/></g><g id="sprotty_fsm$state_q/state$DigWaitSt_to_fsm$state_q/state$WriteSt" class="sprotty-edge transition" style="fill:none;stroke:rgb(48, 48, 48);stroke-linejoin:round;"><g><path d=" M635.9140625,266.1192708333333 C635.9140625,266.1192708333333 635.9140625,281.1192708333333 635.9140625,296.1192708333333"/><path d=" M635.9140625,266.1192708333333 C635.9140625,266.1192708333333 635.9140625,281.1192708333333 635.9140625,296.1192708333333" class="clickable"/></g><path d="M 635.9140625,296.1192708333333 L 642.9140625,293.6192708333333 L 642.9140625,298.6192708333333 Z" transform="rotate(-90 635.9140625 296.1192708333333)" class="arrow" style="fill:rgb(48, 48, 48);stroke-linejoin:miter;stroke-miterlimit:2;"/></g></g></g></svg>