<svg xmlns="http://www.w3.org/2000/svg" id="sprotty_root" class="sprotty-graph sprotty-state-machine statemachine" style="font-family:&quot;Noto Sans&quot;, Helvetica, Arial, sans-serif;perspective-origin:0px 0px;transform-origin:0px 0px;" version="1.1" viewBox="10 10 267.0703125 228" width="267.0703125" height="228"><g transform="scale(1) translate(0,0)"><g id="sprotty_fsm$state_q" transform="translate(15, 15)" class="statemachine"><g class="sprotty-block" style="fill:rgb(255, 255, 255);stroke:rgb(48, 48, 48);stroke-dasharray:0px;"><rect x="0" y="0" rx="1" ry="1" width="257.0703125" height="218"/><text x="128.53515625" y="12" class="sprotty-block-name" style="cursor:pointer;font-weight:700;perspective-origin:128.531px 0px;fill:rgb(48, 48, 48);stroke:rgba(0, 0, 0, 0);dominant-baseline:middle;text-anchor:middle;">state_q</text><line x1="0" y1="20" x2="257.0703125" y2="20"/></g><g id="sprotty_fsm$state_q/state$IdleSt" transform="translate(174.3984375, 106)" class="state"><ellipse cx="27.421875" cy="20" rx="27.421875" ry="20" class="sprotty-node clickable" style="fill:rgb(255, 255, 255);stroke:rgb(48, 48, 48);"/><text class="clickable sprotty-label state" id="sprotty_fsm$state_q/state$IdleSt/label" transform="translate(6, 8) translate(21.421875, 19)" style="cursor:default;perspective-origin:0px 0px;fill:rgb(48, 48, 48);text-anchor:middle;">IdleSt</text></g><g id="sprotty_fsm$state_q/state$WriteSt" transform="translate(113.1015625, 166)" class="state"><ellipse cx="33.0625" cy="20" rx="33.0625" ry="20" class="sprotty-node clickable" style="fill:rgb(255, 255, 255);stroke:rgb(48, 48, 48);"/><text class="clickable sprotty-label state" id="sprotty_fsm$state_q/state$WriteSt/label" transform="translate(6, 8) translate(27.0625, 19)" style="cursor:default;perspective-origin:0px 0px;fill:rgb(48, 48, 48);text-anchor:middle;">WriteSt</text></g><g id="sprotty_fsm$state_q/state$ErrorSt" transform="translate(12, 106)" class="state"><ellipse cx="32.359375" cy="20" rx="32.359375" ry="20" class="sprotty-node clickable" style="fill:rgb(255, 255, 255);stroke:rgb(48, 48, 48);"/><text class="clickable sprotty-label state" id="sprotty_fsm$state_q/state$ErrorSt/label" transform="translate(6, 8) translate(26.359375, 19)" style="cursor:default;perspective-origin:0px 0px;fill:rgb(48, 48, 48);text-anchor:middle;">ErrorSt</text></g><g id="sprotty_fsm$state_q/state$ResetSt" transform="translate(176.8515625, 36)" class="state"><ellipse cx="34.109375" cy="20" rx="34.109375" ry="20" class="sprotty-node clickable" style="fill:rgb(255, 255, 255);stroke:rgb(48, 48, 48);"/><text class="clickable sprotty-label state" id="sprotty_fsm$state_q/state$ResetSt/label" transform="translate(6, 8) translate(28.109375, 19)" style="cursor:default;perspective-origin:0px 0px;fill:rgb(48, 48, 48);text-anchor:middle;">ResetSt</text></g><g id="sprotty_fsm$state_q/state$WriteWaitSt" transform="translate(52.3203125, 36)" class="state"><ellipse cx="49.765625" cy="20" rx="49.765625" ry="20" class="sprotty-node clickable" style="fill:rgb(255, 255, 255);stroke:rgb(48, 48, 48);"/><text class="clickable sprotty-label state" id="sprotty_fsm$state_q/state$WriteWaitSt/label" transform="translate(6, 8) translate(43.765625, 19)" style="cursor:default;perspective-origin:0px 0px;fill:rgb(48, 48, 48);text-anchor:middle;">WriteWaitSt</text></g><g id="sprotty_fsm$state_q/state$ResetSt_to_fsm$state_q/state$IdleSt" class="sprotty-edge transition" style="fill:none;stroke:rgb(48, 48, 48);stroke-linejoin:round;"><g><path d=" M210.9609375,76 C210.9609375,76 210.9609375,91 210.9609375,106"/><path d=" M210.9609375,76 C210.9609375,76 210.9609375,91 210.9609375,106" class="clickable"/></g><path d="M 210.9609375,106 L 217.9609375,103.5 L 217.9609375,108.5 Z" transform="rotate(-90 210.9609375 106)" class="arrow" style="fill:rgb(48, 48, 48);stroke-linejoin:miter;stroke-miterlimit:2;"/></g><g id="sprotty_fsm$state_q/state$IdleSt_to_fsm$state_q/state$WriteSt" class="sprotty-edge transition" style="fill:none;stroke:rgb(48, 48, 48);stroke-linejoin:round;"><g><path d=" M201.8203125,146 C201.8203125,146 197.9078125,156 162.6953125,166"/><path d=" M201.8203125,146 C201.8203125,146 197.9078125,156 162.6953125,166" class="clickable"/></g><path d="M 162.6953125,166 L 169.6953125,163.5 L 169.6953125,168.5 Z" transform="rotate(-15.854019436180188 162.6953125 166)" class="arrow" style="fill:rgb(48, 48, 48);stroke-linejoin:miter;stroke-miterlimit:2;"/></g><g id="sprotty_fsm$state_q/state$WriteSt_to_fsm$state_q/state$WriteWaitSt" class="sprotty-edge transition" style="fill:none;stroke:rgb(48, 48, 48);stroke-linejoin:round;"><g><path d=" M146.1640625,166 C137.71875,156 137.71875,151 137.71875,145.16666666666666 C137.71875,139.33333333333331 137.71875,132.66666666666666 137.71875,126 C137.71875,119.33333333333333 137.71875,112.66666666666666 137.71875,105.58333333333333 C137.71875,98.5 137.71875,91 112.0390625,76"/><path d=" M146.1640625,166 C137.71875,156 137.71875,151 137.71875,145.16666666666666 C137.71875,139.33333333333331 137.71875,132.66666666666666 137.71875,126 C137.71875,119.33333333333333 137.71875,112.66666666666666 137.71875,105.58333333333333 C137.71875,98.5 137.71875,91 112.0390625,76" class="clickable"/></g><path d="M 112.0390625,76 L 119.0390625,73.5 L 119.0390625,78.5 Z" transform="rotate(30.290023294711947 112.0390625 76)" class="arrow" style="fill:rgb(48, 48, 48);stroke-linejoin:miter;stroke-miterlimit:2;"/></g><g id="sprotty_fsm$state_q/state$WriteWaitSt_to_fsm$state_q/state$ErrorSt" class="sprotty-edge transition" style="fill:none;stroke:rgb(48, 48, 48);stroke-linejoin:round;"><g><path d=" M72.2265625,76 C72.2265625,76 47.14609375,91 44.359375,106"/><path d=" M72.2265625,76 C72.2265625,76 47.14609375,91 44.359375,106" class="clickable"/></g><path d="M 44.359375,106 L 51.359375,103.5 L 51.359375,108.5 Z" transform="rotate(-79.47550687736239 44.359375 106)" class="arrow" style="fill:rgb(48, 48, 48);stroke-linejoin:miter;stroke-miterlimit:2;"/></g><g id="sprotty_fsm$state_q/state$WriteWaitSt_to_fsm$state_q/state$IdleSt" class="sprotty-edge transition" style="fill:none;stroke:rgb(48, 48, 48);stroke-linejoin:round;"><g><path d=" M131.9453125,76 C131.9453125,76 186.60625,91 192.6796875,106"/><path d=" M131.9453125,76 C131.9453125,76 186.60625,91 192.6796875,106" class="clickable"/></g><path d="M 192.6796875,106 L 199.6796875,103.5 L 199.6796875,108.5 Z" transform="rotate(-112.04281997345842 192.6796875 106)" class="arrow" style="fill:rgb(48, 48, 48);stroke-linejoin:miter;stroke-miterlimit:2;"/></g><g id="sprotty_fsm$state_q/state$WriteWaitSt_to_fsm$state_q/state$WriteSt" class="sprotty-edge transition" style="fill:none;stroke:rgb(48, 48, 48);stroke-linejoin:round;"><g><path d=" M92.1328125,76 C86.71875,91 86.71875,98.5 86.71875,105.58333333333333 C86.71875,112.66666666666666 86.71875,119.33333333333333 86.71875,126 C86.71875,132.66666666666666 86.71875,139.33333333333331 86.71875,145.16666666666666 C86.71875,151 86.71875,156 129.6328125,166"/><path d=" M92.1328125,76 C86.71875,91 86.71875,98.5 86.71875,105.58333333333333 C86.71875,112.66666666666666 86.71875,119.33333333333333 86.71875,126 C86.71875,132.66666666666666 86.71875,139.33333333333331 86.71875,145.16666666666666 C86.71875,151 86.71875,156 129.6328125,166" class="clickable"/></g><path d="M 129.6328125,166 L 136.6328125,163.5 L 136.6328125,168.5 Z" transform="rotate(-166.88279544710727 129.6328125 166)" class="arrow" style="fill:rgb(48, 48, 48);stroke-linejoin:miter;stroke-miterlimit:2;"/></g></g></g></svg>