<svg xmlns="http://www.w3.org/2000/svg" id="sprotty_root" class="sprotty-graph sprotty-state-machine statemachine" style="font-family:&quot;Noto Sans&quot;, Helvetica, Arial, sans-serif;perspective-origin:0px 0px;transform-origin:0px 0px;" version="1.1" viewBox="10 10 867.9401041666667 580.0283333333333" width="867.9401041666667" height="580.0283333333333"><g transform="scale(1) translate(0,0)"><g id="sprotty_fsm$state_q" transform="translate(15, 15)" class="statemachine"><g class="sprotty-block" style="fill:rgb(255, 255, 255);stroke:rgb(48, 48, 48);stroke-dasharray:0px;"><rect x="0" y="0" rx="1" ry="1" width="857.9401041666667" height="570.0283333333333"/><text x="428.97005208333337" y="12" class="sprotty-block-name" style="cursor:pointer;font-weight:700;perspective-origin:428.969px 0px;fill:rgb(48, 48, 48);stroke:rgba(0, 0, 0, 0);dominant-baseline:middle;text-anchor:middle;">state_q</text><line x1="0" y1="20" x2="857.9401041666667" y2="20"/></g><g id="sprotty_fsm$state_q/state$InitSt" transform="translate(743.9536458333333, 250.82958333333332)" class="state"><ellipse cx="26.03125" cy="20" rx="26.03125" ry="20" class="sprotty-node clickable" style="fill:rgb(255, 255, 255);stroke:rgb(48, 48, 48);"/><text class="clickable sprotty-label state" id="sprotty_fsm$state_q/state$InitSt/label" transform="translate(6, 8) translate(20.03125, 19)" style="cursor:default;perspective-origin:0px 0px;fill:rgb(48, 48, 48);text-anchor:middle;">InitSt</text></g><g id="sprotty_fsm$state_q/state$IntegDigClrSt" transform="translate(431.89479166666666, 120.82958333333332)" class="state"><ellipse cx="55.25" cy="20" rx="55.25" ry="20" class="sprotty-node clickable" style="fill:rgb(255, 255, 255);stroke:rgb(48, 48, 48);"/><text class="clickable sprotty-label state" id="sprotty_fsm$state_q/state$IntegDigClrSt/label" transform="translate(6, 8) translate(49.25, 19)" style="cursor:default;perspective-origin:0px 0px;fill:rgb(48, 48, 48);text-anchor:middle;">IntegDigClrSt</text></g><g id="sprotty_fsm$state_q/state$InitWaitSt" transform="translate(595.4885416666666, 36)" class="state"><ellipse cx="42.640625" cy="20" rx="42.640625" ry="20" class="sprotty-node clickable" style="fill:rgb(255, 255, 255);stroke:rgb(48, 48, 48);"/><text class="clickable sprotty-label state" id="sprotty_fsm$state_q/state$InitWaitSt/label" transform="translate(6, 8) translate(36.640625, 19)" style="cursor:default;perspective-origin:0px 0px;fill:rgb(48, 48, 48);text-anchor:middle;">InitWaitSt</text></g><g id="sprotty_fsm$state_q/state$CnstyReadWaitSt" transform="translate(12, 370.8295833333333)" class="state"><ellipse cx="69.703125" cy="20" rx="69.703125" ry="20" class="sprotty-node clickable" style="fill:rgb(255, 255, 255);stroke:rgb(48, 48, 48);"/><text class="clickable sprotty-label state" id="sprotty_fsm$state_q/state$CnstyReadWaitSt/label" transform="translate(6, 8) translate(63.703125, 19)" style="cursor:default;perspective-origin:0px 0px;fill:rgb(48, 48, 48);text-anchor:middle;">CnstyReadWaitSt</text></g><g id="sprotty_fsm$state_q/state$IntegScrSt" transform="translate(391.3984375, 250.82958333333332)" class="state"><ellipse cx="44.515625" cy="20" rx="44.515625" ry="20" class="sprotty-node clickable" style="fill:rgb(255, 255, 255);stroke:rgb(48, 48, 48);"/><text class="clickable sprotty-label state" id="sprotty_fsm$state_q/state$IntegScrSt/label" transform="translate(6, 8) translate(38.515625, 19)" style="cursor:default;perspective-origin:0px 0px;fill:rgb(48, 48, 48);text-anchor:middle;">IntegScrSt</text></g><g id="sprotty_fsm$state_q/state$IntegDigPadSt" transform="translate(172.40625, 250.82958333333332)" class="state"><ellipse cx="58.90625" cy="20" rx="58.90625" ry="20" class="sprotty-node clickable" style="fill:rgb(255, 255, 255);stroke:rgb(48, 48, 48);"/><text class="clickable sprotty-label state" id="sprotty_fsm$state_q/state$IntegDigPadSt/label" transform="translate(6, 8) translate(52.90625, 19)" style="cursor:default;perspective-origin:0px 0px;fill:rgb(48, 48, 48);text-anchor:middle;">IntegDigPadSt</text></g><g id="sprotty_fsm$state_q/state$ResetSt" transform="translate(715.7213541666667, 180.82958333333332)" class="state"><ellipse cx="34.109375" cy="20" rx="34.109375" ry="20" class="sprotty-node clickable" style="fill:rgb(255, 255, 255);stroke:rgb(48, 48, 48);"/><text class="clickable sprotty-label state" id="sprotty_fsm$state_q/state$ResetSt/label" transform="translate(6, 8) translate(28.109375, 19)" style="cursor:default;perspective-origin:0px 0px;fill:rgb(48, 48, 48);text-anchor:middle;">ResetSt</text></g><g id="sprotty_fsm$state_q/state$InitDescrWaitSt" transform="translate(563.7526041666667, 180.82958333333332)" class="state"><ellipse cx="63.484375" cy="20" rx="63.484375" ry="20" class="sprotty-node clickable" style="fill:rgb(255, 255, 255);stroke:rgb(48, 48, 48);"/><text class="clickable sprotty-label state" id="sprotty_fsm$state_q/state$InitDescrWaitSt/label" transform="translate(6, 8) translate(57.484375, 19)" style="cursor:default;perspective-origin:0px 0px;fill:rgb(48, 48, 48);text-anchor:middle;">InitDescrWaitSt</text></g><g id="sprotty_fsm$state_q/state$CnstyReadSt" transform="translate(37.915104166666694, 518.0283333333333)" class="state"><ellipse cx="53.09375" cy="20" rx="53.09375" ry="20" class="sprotty-node clickable" style="fill:rgb(255, 255, 255);stroke:rgb(48, 48, 48);"/><text class="clickable sprotty-label state" id="sprotty_fsm$state_q/state$CnstyReadSt/label" transform="translate(6, 8) translate(47.09375, 19)" style="cursor:default;perspective-origin:0px 0px;fill:rgb(48, 48, 48);text-anchor:middle;">CnstyReadSt</text></g><g id="sprotty_fsm$state_q/state$IdleSt" transform="translate(362.1213541666667, 450.8295833333333)" class="state"><ellipse cx="27.421875" cy="20" rx="27.421875" ry="20" class="sprotty-node clickable" style="fill:rgb(255, 255, 255);stroke:rgb(48, 48, 48);"/><text class="clickable sprotty-label state" id="sprotty_fsm$state_q/state$IdleSt/label" transform="translate(6, 8) translate(21.421875, 19)" style="cursor:default;perspective-origin:0px 0px;fill:rgb(48, 48, 48);text-anchor:middle;">IdleSt</text></g><g id="sprotty_fsm$state_q/state$InitDescrSt" transform="translate(580.3619791666667, 120.82958333333332)" class="state"><ellipse cx="46.875" cy="20" rx="46.875" ry="20" class="sprotty-node clickable" style="fill:rgb(255, 255, 255);stroke:rgb(48, 48, 48);"/><text class="clickable sprotty-label state" id="sprotty_fsm$state_q/state$InitDescrSt/label" transform="translate(6, 8) translate(40.875, 19)" style="cursor:default;perspective-origin:0px 0px;fill:rgb(48, 48, 48);text-anchor:middle;">InitDescrSt</text></g><g id="sprotty_fsm$state_q/state$ErrorSt" transform="translate(152.9604166666667, 450.8295833333333)" class="state"><ellipse cx="32.359375" cy="20" rx="32.359375" ry="20" class="sprotty-node clickable" style="fill:rgb(255, 255, 255);stroke:rgb(48, 48, 48);"/><text class="clickable sprotty-label state" id="sprotty_fsm$state_q/state$ErrorSt/label" transform="translate(6, 8) translate(26.359375, 19)" style="cursor:default;perspective-origin:0px 0px;fill:rgb(48, 48, 48);text-anchor:middle;">ErrorSt</text></g><g id="sprotty_fsm$state_q/state$IntegDigFinSt" transform="translate(209.50000000000003, 310.8295833333333)" class="state"><ellipse cx="56.265625" cy="20" rx="56.265625" ry="20" class="sprotty-node clickable" style="fill:rgb(255, 255, 255);stroke:rgb(48, 48, 48);"/><text class="clickable sprotty-label state" id="sprotty_fsm$state_q/state$IntegDigFinSt/label" transform="translate(6, 8) translate(50.265625, 19)" style="cursor:default;perspective-origin:0px 0px;fill:rgb(48, 48, 48);text-anchor:middle;">IntegDigFinSt</text></g><g id="sprotty_fsm$state_q/state$IntegDigSt" transform="translate(298.9468750000001, 180.82958333333332)" class="state"><ellipse cx="44.765625" cy="20" rx="44.765625" ry="20" class="sprotty-node clickable" style="fill:rgb(255, 255, 255);stroke:rgb(48, 48, 48);"/><text class="clickable sprotty-label state" id="sprotty_fsm$state_q/state$IntegDigSt/label" transform="translate(6, 8) translate(38.765625, 19)" style="cursor:default;perspective-origin:0px 0px;fill:rgb(48, 48, 48);text-anchor:middle;">IntegDigSt</text></g><g id="sprotty_fsm$state_q/state$IntegScrWaitSt" transform="translate(347.03125, 310.8295833333333)" class="state"><ellipse cx="61.125" cy="20" rx="61.125" ry="20" class="sprotty-node clickable" style="fill:rgb(255, 255, 255);stroke:rgb(48, 48, 48);"/><text class="clickable sprotty-label state" id="sprotty_fsm$state_q/state$IntegScrWaitSt/label" transform="translate(6, 8) translate(55.125, 19)" style="cursor:default;perspective-origin:0px 0px;fill:rgb(48, 48, 48);text-anchor:middle;">IntegScrWaitSt</text></g><g id="sprotty_fsm$state_q/state$IntegDigWaitSt" transform="translate(204.39062500000003, 370.8295833333333)" class="state"><ellipse cx="61.375" cy="20" rx="61.375" ry="20" class="sprotty-node clickable" style="fill:rgb(255, 255, 255);stroke:rgb(48, 48, 48);"/><text class="clickable sprotty-label state" id="sprotty_fsm$state_q/state$IntegDigWaitSt/label" transform="translate(6, 8) translate(55.375, 19)" style="cursor:default;perspective-origin:0px 0px;fill:rgb(48, 48, 48);text-anchor:middle;">IntegDigWaitSt</text></g><g id="sprotty_fsm$state_q/state$ResetSt_to_fsm$state_q/state$InitSt" class="sprotty-edge transition" style="fill:none;stroke:rgb(48, 48, 48);stroke-linejoin:round;"><g><path d=" M749.8307291666667,220.82958333333332 C749.8307291666667,220.82958333333332 751.3255208333334,235.82958333333332 764.7786458333334,250.82958333333332"/><path d=" M749.8307291666667,220.82958333333332 C749.8307291666667,220.82958333333332 751.3255208333334,235.82958333333332 764.7786458333334,250.82958333333332" class="clickable"/></g><path d="M 764.7786458333334,250.82958333333332 L 771.7786458333334,248.32958333333332 L 771.7786458333334,253.32958333333332 Z" transform="rotate(-131.8881363719961 764.7786458333334 250.82958333333332)" class="arrow" style="fill:rgb(48, 48, 48);stroke-linejoin:miter;stroke-miterlimit:2;"/></g><g id="sprotty_fsm$state_q/state$InitSt_to_fsm$state_q/state$InitWaitSt" class="sprotty-edge transition" style="fill:none;stroke:rgb(48, 48, 48);stroke-linejoin:round;"><g><path d=" M775.1911458333333,250.82958333333332 C793.9401041666667,235.82958333333332 793.9401041666667,228.32958333333335 793.9401041666669,216.24625 C793.9401041666669,204.1629166666667 793.9401041666669,187.49624999999997 793.9401041666669,174.99625 C793.9401041666667,162.49625 793.9401041666667,154.16291666666666 793.9401041666667,145.8295833333333 C793.9401041666667,137.49624999999997 793.9401041666669,129.16291666666666 793.940104166667,119.39255208333333 C793.9401041666669,109.6221875 793.9401041666667,98.41479166666666 652.3427083333332,76"/><path d=" M775.1911458333333,250.82958333333332 C793.9401041666667,235.82958333333332 793.9401041666667,228.32958333333335 793.9401041666669,216.24625 C793.9401041666669,204.1629166666667 793.9401041666669,187.49624999999997 793.9401041666669,174.99625 C793.9401041666667,162.49625 793.9401041666667,154.16291666666666 793.9401041666667,145.8295833333333 C793.9401041666667,137.49624999999997 793.9401041666669,129.16291666666666 793.940104166667,119.39255208333333 C793.9401041666669,109.6221875 793.9401041666667,98.41479166666666 652.3427083333332,76" class="clickable"/></g><path d="M 652.3427083333332,76 L 659.3427083333332,73.5 L 659.3427083333332,78.5 Z" transform="rotate(8.99525022255798 652.3427083333332 76)" class="arrow" style="fill:rgb(48, 48, 48);stroke-linejoin:miter;stroke-miterlimit:2;"/></g><g id="sprotty_fsm$state_q/state$InitWaitSt_to_fsm$state_q/state$ErrorSt" class="sprotty-edge transition" style="fill:none;stroke:rgb(48, 48, 48);stroke-linejoin:round;"><g><path d=" M609.7020833333332,76 C161.40625,98.41479166666666 161.40625,109.6221875 161.40625,119.39255208333333 C161.40625,129.16291666666666 161.40624999999997,137.49624999999997 161.40624999999997,145.8295833333333 C161.40625,154.16291666666666 161.40625,162.49625 161.40625,177.49624999999997 C161.40625,192.49624999999997 161.40625,214.16291666666666 161.40625,230.41291666666666 C161.40625,246.66291666666666 161.40624999999997,257.49625 161.40624999999997,268.3295833333333 C161.40625,279.16291666666666 161.40624999999997,289.9962499999999 161.40624999999997,305.4129166666666 C161.40625,320.8295833333333 161.40625,340.82958333333323 161.40625,354.9962499999999 C161.40625,369.16291666666666 161.40625,377.49625 161.40625,385.8295833333333 C161.40625,394.16291666666666 161.40624999999997,402.4962499999999 161.40624999999997,411.66291666666666 C161.40624999999997,420.8295833333333 161.40625,430.8295833333333 185.3197916666667,450.8295833333333"/><path d=" M609.7020833333332,76 C161.40625,98.41479166666666 161.40625,109.6221875 161.40625,119.39255208333333 C161.40625,129.16291666666666 161.40624999999997,137.49624999999997 161.40624999999997,145.8295833333333 C161.40625,154.16291666666666 161.40625,162.49625 161.40625,177.49624999999997 C161.40625,192.49624999999997 161.40625,214.16291666666666 161.40625,230.41291666666666 C161.40625,246.66291666666666 161.40624999999997,257.49625 161.40624999999997,268.3295833333333 C161.40625,279.16291666666666 161.40624999999997,289.9962499999999 161.40624999999997,305.4129166666666 C161.40625,320.8295833333333 161.40625,340.82958333333323 161.40625,354.9962499999999 C161.40625,369.16291666666666 161.40625,377.49625 161.40625,385.8295833333333 C161.40625,394.16291666666666 161.40624999999997,402.4962499999999 161.40624999999997,411.66291666666666 C161.40624999999997,420.8295833333333 161.40625,430.8295833333333 185.3197916666667,450.8295833333333" class="clickable"/></g><path d="M 185.3197916666667,450.8295833333333 L 192.3197916666667,448.3295833333333 L 192.3197916666667,453.3295833333333 Z" transform="rotate(-140.09270254485017 185.3197916666667 450.8295833333333)" class="arrow" style="fill:rgb(48, 48, 48);stroke-linejoin:miter;stroke-miterlimit:2;"/></g><g id="sprotty_fsm$state_q/state$InitWaitSt_to_fsm$state_q/state$IntegDigClrSt" class="sprotty-edge transition" style="fill:none;stroke:rgb(48, 48, 48);stroke-linejoin:round;"><g><path d=" M623.915625,76 C623.915625,76 500.82187500000003,98.41479166666666 487.14479166666666,120.82958333333332"/><path d=" M623.915625,76 C623.915625,76 500.82187500000003,98.41479166666666 487.14479166666666,120.82958333333332" class="clickable"/></g><path d="M 487.14479166666666,120.82958333333332 L 494.14479166666666,118.32958333333332 L 494.14479166666666,123.32958333333332 Z" transform="rotate(-58.609245182833355 487.14479166666666 120.82958333333332)" class="arrow" style="fill:rgb(48, 48, 48);stroke-linejoin:miter;stroke-miterlimit:2;"/></g><g id="sprotty_fsm$state_q/state$InitWaitSt_to_fsm$state_q/state$InitDescrSt" class="sprotty-edge transition" style="fill:none;stroke:rgb(48, 48, 48);stroke-linejoin:round;"><g><path d=" M638.1291666666666,76 C638.1291666666666,76 628.3261979166667,98.41479166666666 627.2369791666667,120.82958333333332"/><path d=" M638.1291666666666,76 C638.1291666666666,76 628.3261979166667,98.41479166666666 627.2369791666667,120.82958333333332" class="clickable"/></g><path d="M 627.2369791666667,120.82958333333332 L 634.2369791666667,118.32958333333332 L 634.2369791666667,123.32958333333332 Z" transform="rotate(-87.21797170336737 627.2369791666667 120.82958333333332)" class="arrow" style="fill:rgb(48, 48, 48);stroke-linejoin:miter;stroke-miterlimit:2;"/></g><g id="sprotty_fsm$state_q/state$InitWaitSt_to_fsm$state_q/state$InitSt" class="sprotty-edge transition" style="fill:none;stroke:rgb(48, 48, 48);stroke-linejoin:round;"><g><path d=" M666.55625,76 C844.9401041666667,98.41479166666666 844.9401041666667,109.6221875 844.9401041666666,119.39255208333333 C844.9401041666666,129.16291666666666 844.9401041666666,137.49624999999997 844.9401041666666,145.8295833333333 C844.9401041666667,154.16291666666666 844.940104166667,162.49625 844.940104166667,174.99625 C844.9401041666667,187.49624999999997 844.940104166667,204.1629166666667 844.940104166667,216.24625 C844.940104166667,228.32958333333335 844.9401041666667,235.82958333333332 785.6036458333333,250.82958333333332"/><path d=" M666.55625,76 C844.9401041666667,98.41479166666666 844.9401041666667,109.6221875 844.9401041666666,119.39255208333333 C844.9401041666666,129.16291666666666 844.9401041666666,137.49624999999997 844.9401041666666,145.8295833333333 C844.9401041666667,154.16291666666666 844.940104166667,162.49625 844.940104166667,174.99625 C844.9401041666667,187.49624999999997 844.940104166667,204.1629166666667 844.940104166667,216.24625 C844.940104166667,228.32958333333335 844.9401041666667,235.82958333333332 785.6036458333333,250.82958333333332" class="clickable"/></g><path d="M 785.6036458333333,250.82958333333332 L 792.6036458333333,248.32958333333332 L 792.6036458333333,253.32958333333332 Z" transform="rotate(-14.18690198646483 785.6036458333333 250.82958333333332)" class="arrow" style="fill:rgb(48, 48, 48);stroke-linejoin:miter;stroke-miterlimit:2;"/></g><g id="sprotty_fsm$state_q/state$InitDescrSt_to_fsm$state_q/state$InitDescrWaitSt" class="sprotty-edge transition" style="fill:none;stroke:rgb(48, 48, 48);stroke-linejoin:round;"><g><path d=" M627.2369791666667,160.82958333333332 C627.2369791666667,160.82958333333332 627.2369791666667,170.82958333333332 627.2369791666667,180.82958333333332"/><path d=" M627.2369791666667,160.82958333333332 C627.2369791666667,160.82958333333332 627.2369791666667,170.82958333333332 627.2369791666667,180.82958333333332" class="clickable"/></g><path d="M 627.2369791666667,180.82958333333332 L 634.2369791666667,178.32958333333332 L 634.2369791666667,183.32958333333332 Z" transform="rotate(-90 627.2369791666667 180.82958333333332)" class="arrow" style="fill:rgb(48, 48, 48);stroke-linejoin:miter;stroke-miterlimit:2;"/></g><g id="sprotty_fsm$state_q/state$InitDescrWaitSt_to_fsm$state_q/state$InitSt" class="sprotty-edge transition" style="fill:none;stroke:rgb(48, 48, 48);stroke-linejoin:round;"><g><path d=" M627.2369791666667,220.82958333333332 C627.2369791666667,220.82958333333332 639.9498958333334,235.82958333333332 754.3661458333333,250.82958333333332"/><path d=" M627.2369791666667,220.82958333333332 C627.2369791666667,220.82958333333332 639.9498958333334,235.82958333333332 754.3661458333333,250.82958333333332" class="clickable"/></g><path d="M 754.3661458333333,250.82958333333332 L 761.3661458333333,248.32958333333332 L 761.3661458333333,253.32958333333332 Z" transform="rotate(-172.53110409502625 754.3661458333333 250.82958333333332)" class="arrow" style="fill:rgb(48, 48, 48);stroke-linejoin:miter;stroke-miterlimit:2;"/></g><g id="sprotty_fsm$state_q/state$IdleSt_to_fsm$state_q/state$IntegDigClrSt" class="sprotty-edge transition" style="fill:none;stroke:rgb(48, 48, 48);stroke-linejoin:round;"><g><path d=" M395.0276041666667,450.8295833333333 C501.7526041666667,430.8295833333333 501.7526041666667,420.8295833333333 501.75260416666663,407.49625 C501.75260416666663,394.16291666666666 501.75260416666663,377.49625 501.75260416666663,364.16291666666666 C501.75260416666663,350.8295833333333 501.75260416666663,340.8295833333333 501.75260416666663,330.8295833333333 C501.75260416666663,320.8295833333333 501.75260416666663,310.8295833333333 501.75260416666663,294.99625 C501.75260416666663,279.16291666666666 501.75260416666663,257.49625 501.75260416666663,242.07958333333332 C501.75260416666663,226.66291666666666 501.75260416666663,217.49624999999997 501.75260416666663,208.32958333333332 C501.75260416666663,199.16291666666666 501.75260416666663,189.99624999999997 501.75260416666663,182.91291666666666 C501.7526041666667,175.82958333333332 501.7526041666667,170.82958333333332 498.1947916666667,160.82958333333332"/><path d=" M395.0276041666667,450.8295833333333 C501.7526041666667,430.8295833333333 501.7526041666667,420.8295833333333 501.75260416666663,407.49625 C501.75260416666663,394.16291666666666 501.75260416666663,377.49625 501.75260416666663,364.16291666666666 C501.75260416666663,350.8295833333333 501.75260416666663,340.8295833333333 501.75260416666663,330.8295833333333 C501.75260416666663,320.8295833333333 501.75260416666663,310.8295833333333 501.75260416666663,294.99625 C501.75260416666663,279.16291666666666 501.75260416666663,257.49625 501.75260416666663,242.07958333333332 C501.75260416666663,226.66291666666666 501.75260416666663,217.49624999999997 501.75260416666663,208.32958333333332 C501.75260416666663,199.16291666666666 501.75260416666663,189.99624999999997 501.75260416666663,182.91291666666666 C501.7526041666667,175.82958333333332 501.7526041666667,170.82958333333332 498.1947916666667,160.82958333333332" class="clickable"/></g><path d="M 498.1947916666667,160.82958333333332 L 505.1947916666667,158.32958333333332 L 505.1947916666667,163.32958333333332 Z" transform="rotate(70.41539495169965 498.1947916666667 160.82958333333332)" class="arrow" style="fill:rgb(48, 48, 48);stroke-linejoin:miter;stroke-miterlimit:2;"/></g><g id="sprotty_fsm$state_q/state$IdleSt_to_fsm$state_q/state$CnstyReadSt" class="sprotty-edge transition" style="fill:none;stroke:rgb(48, 48, 48);stroke-linejoin:round;"><g><path d=" M389.5432291666667,490.8295833333333 C389.5432291666667,490.8295833333333 362.3444791666667,504.4289583333333 117.5557291666667,518.0283333333333"/><path d=" M389.5432291666667,490.8295833333333 C389.5432291666667,490.8295833333333 362.3444791666667,504.4289583333333 117.5557291666667,518.0283333333333" class="clickable"/></g><path d="M 117.5557291666667,518.0283333333333 L 124.5557291666667,515.5283333333333 L 124.5557291666667,520.5283333333333 Z" transform="rotate(-3.1798301198642367 117.5557291666667 518.0283333333333)" class="arrow" style="fill:rgb(48, 48, 48);stroke-linejoin:miter;stroke-miterlimit:2;"/></g><g id="sprotty_fsm$state_q/state$CnstyReadSt_to_fsm$state_q/state$CnstyReadWaitSt" class="sprotty-edge transition" style="fill:none;stroke:rgb(48, 48, 48);stroke-linejoin:round;"><g><path d=" M91.0088541666667,518.0283333333333 C78.65468750000002,504.4289583333333 78.65468750000002,497.6292708333333 78.65468750000002,490.89609375 C78.65468750000002,484.16291666666666 78.65468750000002,477.49625 78.65468750000002,470.8295833333333 C78.65468750000002,464.16291666666666 78.65468750000002,457.49625 78.65468750000002,449.16291666666666 C78.65468750000002,440.8295833333333 78.65468750000002,430.8295833333333 67.7625,410.8295833333333"/><path d=" M91.0088541666667,518.0283333333333 C78.65468750000002,504.4289583333333 78.65468750000002,497.6292708333333 78.65468750000002,490.89609375 C78.65468750000002,484.16291666666666 78.65468750000002,477.49625 78.65468750000002,470.8295833333333 C78.65468750000002,464.16291666666666 78.65468750000002,457.49625 78.65468750000002,449.16291666666666 C78.65468750000002,440.8295833333333 78.65468750000002,430.8295833333333 67.7625,410.8295833333333" class="clickable"/></g><path d="M 67.7625,410.8295833333333 L 74.7625,408.3295833333333 L 74.7625,413.3295833333333 Z" transform="rotate(61.426874540539195 67.7625 410.8295833333333)" class="arrow" style="fill:rgb(48, 48, 48);stroke-linejoin:miter;stroke-miterlimit:2;"/></g><g id="sprotty_fsm$state_q/state$CnstyReadWaitSt_to_fsm$state_q/state$ErrorSt" class="sprotty-edge transition" style="fill:none;stroke:rgb(48, 48, 48);stroke-linejoin:round;"><g><path d=" M95.64375000000001,410.8295833333333 C95.64375000000001,410.8295833333333 161.79046875000003,430.8295833333333 169.1401041666667,450.8295833333333"/><path d=" M95.64375000000001,410.8295833333333 C95.64375000000001,410.8295833333333 161.79046875000003,430.8295833333333 169.1401041666667,450.8295833333333" class="clickable"/></g><path d="M 169.1401041666667,450.8295833333333 L 176.1401041666667,448.3295833333333 L 176.1401041666667,453.3295833333333 Z" transform="rotate(-110.17745989061613 169.1401041666667 450.8295833333333)" class="arrow" style="fill:rgb(48, 48, 48);stroke-linejoin:miter;stroke-miterlimit:2;"/></g><g id="sprotty_fsm$state_q/state$CnstyReadWaitSt_to_fsm$state_q/state$IdleSt" class="sprotty-edge transition" style="fill:none;stroke:rgb(48, 48, 48);stroke-linejoin:round;"><g><path d=" M123.525,410.8295833333333 C123.525,410.8295833333333 248.30755208333335,430.8295833333333 373.0901041666667,450.8295833333333"/><path d=" M123.525,410.8295833333333 C123.525,410.8295833333333 248.30755208333335,430.8295833333333 373.0901041666667,450.8295833333333" class="clickable"/></g><path d="M 373.0901041666667,450.8295833333333 L 380.0901041666667,448.3295833333333 L 380.0901041666667,453.3295833333333 Z" transform="rotate(-170.89414739655007 373.0901041666667 450.8295833333333)" class="arrow" style="fill:rgb(48, 48, 48);stroke-linejoin:miter;stroke-miterlimit:2;"/></g><g id="sprotty_fsm$state_q/state$CnstyReadWaitSt_to_fsm$state_q/state$CnstyReadSt" class="sprotty-edge transition" style="fill:none;stroke:rgb(48, 48, 48);stroke-linejoin:round;"><g><path d=" M39.88125,410.8295833333333 C27.654687500000023,430.8295833333333 27.654687500000023,440.8295833333333 27.654687500000023,449.16291666666666 C27.654687500000023,457.49625 27.654687500000023,464.16291666666666 27.654687500000023,470.8295833333333 C27.654687500000023,477.49625 27.654687500000023,484.16291666666666 27.654687500000023,490.89609375 C27.654687500000023,497.6292708333333 27.654687500000023,504.4289583333333 64.4619791666667,518.0283333333333"/><path d=" M39.88125,410.8295833333333 C27.654687500000023,430.8295833333333 27.654687500000023,440.8295833333333 27.654687500000023,449.16291666666666 C27.654687500000023,457.49625 27.654687500000023,464.16291666666666 27.654687500000023,470.8295833333333 C27.654687500000023,477.49625 27.654687500000023,484.16291666666666 27.654687500000023,490.89609375 C27.654687500000023,497.6292708333333 27.654687500000023,504.4289583333333 64.4619791666667,518.0283333333333" class="clickable"/></g><path d="M 64.4619791666667,518.0283333333333 L 71.4619791666667,515.5283333333333 L 71.4619791666667,520.5283333333333 Z" transform="rotate(-159.7219877230436 64.4619791666667 518.0283333333333)" class="arrow" style="fill:rgb(48, 48, 48);stroke-linejoin:miter;stroke-miterlimit:2;"/></g><g id="sprotty_fsm$state_q/state$IntegDigClrSt_to_fsm$state_q/state$IntegScrSt" class="sprotty-edge transition" style="fill:none;stroke:rgb(48, 48, 48);stroke-linejoin:round;"><g><path d=" M476.09479166666665,160.82958333333332 C450.7526041666667,170.82958333333332 450.7526041666667,175.8295833333333 450.7526041666667,182.91291666666666 C450.75260416666674,189.99625 450.75260416666663,199.16291666666663 450.75260416666663,210.62124999999995 C450.75260416666663,222.0795833333333 450.7526041666667,235.82958333333332 450.7526041666667,250.82958333333332"/><path d=" M476.09479166666665,160.82958333333332 C450.7526041666667,170.82958333333332 450.7526041666667,175.8295833333333 450.7526041666667,182.91291666666666 C450.75260416666674,189.99625 450.75260416666663,199.16291666666663 450.75260416666663,210.62124999999995 C450.75260416666663,222.0795833333333 450.7526041666667,235.82958333333332 450.7526041666667,250.82958333333332" class="clickable"/></g><path d="M 450.7526041666667,250.82958333333332 L 457.7526041666667,248.32958333333332 L 457.7526041666667,253.32958333333332 Z" transform="rotate(-90 450.7526041666667 250.82958333333332)" class="arrow" style="fill:rgb(48, 48, 48);stroke-linejoin:miter;stroke-miterlimit:2;"/></g><g id="sprotty_fsm$state_q/state$IntegDigClrSt_to_fsm$state_q/state$IntegDigSt" class="sprotty-edge transition" style="fill:none;stroke:rgb(48, 48, 48);stroke-linejoin:round;"><g><path d=" M453.9947916666667,160.82958333333332 C453.9947916666667,160.82958333333332 354.74072916666677,170.82958333333332 343.7125000000001,180.82958333333332"/><path d=" M453.9947916666667,160.82958333333332 C453.9947916666667,160.82958333333332 354.74072916666677,170.82958333333332 343.7125000000001,180.82958333333332" class="clickable"/></g><path d="M 343.7125000000001,180.82958333333332 L 350.7125000000001,178.32958333333332 L 350.7125000000001,183.32958333333332 Z" transform="rotate(-42.200605664827485 343.7125000000001 180.82958333333332)" class="arrow" style="fill:rgb(48, 48, 48);stroke-linejoin:miter;stroke-miterlimit:2;"/></g><g id="sprotty_fsm$state_q/state$IntegDigClrSt_to_fsm$state_q/state$IdleSt" class="sprotty-edge transition" style="fill:none;stroke:rgb(48, 48, 48);stroke-linejoin:round;"><g><path d=" M520.2947916666667,160.82958333333332 C552.7526041666667,170.82958333333332 552.7526041666667,175.82958333333332 552.7526041666667,182.91291666666666 C552.7526041666667,189.99624999999997 552.7526041666667,199.16291666666666 552.7526041666667,208.32958333333332 C552.7526041666667,217.49624999999997 552.7526041666667,226.66291666666666 552.7526041666667,242.07958333333332 C552.7526041666667,257.49625 552.7526041666667,279.16291666666666 552.7526041666667,294.99625 C552.7526041666667,310.8295833333333 552.7526041666667,320.8295833333333 552.7526041666667,330.8295833333333 C552.7526041666667,340.8295833333333 552.7526041666667,350.8295833333333 552.7526041666667,364.16291666666666 C552.7526041666667,377.49625 552.7526041666667,394.16291666666666 552.7526041666667,407.49625 C552.7526041666667,420.8295833333333 552.7526041666667,430.8295833333333 405.9963541666667,450.8295833333333"/><path d=" M520.2947916666667,160.82958333333332 C552.7526041666667,170.82958333333332 552.7526041666667,175.82958333333332 552.7526041666667,182.91291666666666 C552.7526041666667,189.99624999999997 552.7526041666667,199.16291666666666 552.7526041666667,208.32958333333332 C552.7526041666667,217.49624999999997 552.7526041666667,226.66291666666666 552.7526041666667,242.07958333333332 C552.7526041666667,257.49625 552.7526041666667,279.16291666666666 552.7526041666667,294.99625 C552.7526041666667,310.8295833333333 552.7526041666667,320.8295833333333 552.7526041666667,330.8295833333333 C552.7526041666667,340.8295833333333 552.7526041666667,350.8295833333333 552.7526041666667,364.16291666666666 C552.7526041666667,377.49625 552.7526041666667,394.16291666666666 552.7526041666667,407.49625 C552.7526041666667,420.8295833333333 552.7526041666667,430.8295833333333 405.9963541666667,450.8295833333333" class="clickable"/></g><path d="M 405.9963541666667,450.8295833333333 L 412.9963541666667,448.3295833333333 L 412.9963541666667,453.3295833333333 Z" transform="rotate(-7.7604837630202095 405.9963541666667 450.8295833333333)" class="arrow" style="fill:rgb(48, 48, 48);stroke-linejoin:miter;stroke-miterlimit:2;"/></g><g id="sprotty_fsm$state_q/state$IntegScrSt_to_fsm$state_q/state$IntegScrWaitSt" class="sprotty-edge transition" style="fill:none;stroke:rgb(48, 48, 48);stroke-linejoin:round;"><g><path d=" M435.9140625,290.8295833333333 C435.9140625,290.8295833333333 435.17578125,300.8295833333333 428.53125,310.8295833333333"/><path d=" M435.9140625,290.8295833333333 C435.9140625,290.8295833333333 435.17578125,300.8295833333333 428.53125,310.8295833333333" class="clickable"/></g><path d="M 428.53125,310.8295833333333 L 435.53125,308.3295833333333 L 435.53125,313.3295833333333 Z" transform="rotate(-56.397825226925015 428.53125 310.8295833333333)" class="arrow" style="fill:rgb(48, 48, 48);stroke-linejoin:miter;stroke-miterlimit:2;"/></g><g id="sprotty_fsm$state_q/state$IntegScrWaitSt_to_fsm$state_q/state$IntegDigSt" class="sprotty-edge transition" style="fill:none;stroke:rgb(48, 48, 48);stroke-linejoin:round;"><g><path d=" M387.78125,310.8295833333333 C380.3984375,300.8295833333333 380.3984375,295.8295833333333 380.3984375,289.99625 C380.3984375,284.16291666666666 380.3984375,277.49625 380.3984375,270.8295833333333 C380.3984375,264.16291666666666 380.3984375,257.49625 380.3984375,250.41291666666666 C380.3984375,243.32958333333332 380.3984375,235.82958333333332 352.6656250000001,220.82958333333332"/><path d=" M387.78125,310.8295833333333 C380.3984375,300.8295833333333 380.3984375,295.8295833333333 380.3984375,289.99625 C380.3984375,284.16291666666666 380.3984375,277.49625 380.3984375,270.8295833333333 C380.3984375,264.16291666666666 380.3984375,257.49625 380.3984375,250.41291666666666 C380.3984375,243.32958333333332 380.3984375,235.82958333333332 352.6656250000001,220.82958333333332" class="clickable"/></g><path d="M 352.6656250000001,220.82958333333332 L 359.6656250000001,218.32958333333332 L 359.6656250000001,223.32958333333332 Z" transform="rotate(28.407871404574745 352.6656250000001 220.82958333333332)" class="arrow" style="fill:rgb(48, 48, 48);stroke-linejoin:miter;stroke-miterlimit:2;"/></g><g id="sprotty_fsm$state_q/state$IntegDigSt_to_fsm$state_q/state$IntegDigFinSt" class="sprotty-edge transition" style="fill:none;stroke:rgb(48, 48, 48);stroke-linejoin:round;"><g><path d=" M334.7593750000001,220.82958333333332 C300.21875,235.82958333333332 300.21875,243.32958333333332 300.21875,250.41291666666666 C300.21875,257.49625 300.21875,264.16291666666666 300.21875,270.8295833333333 C300.21875,277.49625 300.21875,284.16291666666666 300.21875,289.99625 C300.21875,295.8295833333333 300.21875,300.8295833333333 284.52083333333337,310.8295833333333"/><path d=" M334.7593750000001,220.82958333333332 C300.21875,235.82958333333332 300.21875,243.32958333333332 300.21875,250.41291666666666 C300.21875,257.49625 300.21875,264.16291666666666 300.21875,270.8295833333333 C300.21875,277.49625 300.21875,284.16291666666666 300.21875,289.99625 C300.21875,295.8295833333333 300.21875,300.8295833333333 284.52083333333337,310.8295833333333" class="clickable"/></g><path d="M 284.52083333333337,310.8295833333333 L 291.52083333333337,308.3295833333333 L 291.52083333333337,313.3295833333333 Z" transform="rotate(-32.4982452816975 284.52083333333337 310.8295833333333)" class="arrow" style="fill:rgb(48, 48, 48);stroke-linejoin:miter;stroke-miterlimit:2;"/></g><g id="sprotty_fsm$state_q/state$IntegDigSt_to_fsm$state_q/state$IntegDigPadSt" class="sprotty-edge transition" style="fill:none;stroke:rgb(48, 48, 48);stroke-linejoin:round;"><g><path d=" M316.8531250000001,220.82958333333332 C316.8531250000001,220.82958333333332 239.86656250000001,235.82958333333332 231.3125,250.82958333333332"/><path d=" M316.8531250000001,220.82958333333332 C316.8531250000001,220.82958333333332 239.86656250000001,235.82958333333332 231.3125,250.82958333333332" class="clickable"/></g><path d="M 231.3125,250.82958333333332 L 238.3125,248.32958333333332 L 238.3125,253.32958333333332 Z" transform="rotate(-60.30514890015662 231.3125 250.82958333333332)" class="arrow" style="fill:rgb(48, 48, 48);stroke-linejoin:miter;stroke-miterlimit:2;"/></g><g id="sprotty_fsm$state_q/state$IntegDigSt_to_fsm$state_q/state$IntegScrSt" class="sprotty-edge transition" style="fill:none;stroke:rgb(48, 48, 48);stroke-linejoin:round;"><g><path d=" M370.5718750000001,220.82958333333332 C370.5718750000001,220.82958333333332 416.02515624999995,235.82958333333332 421.0755208333333,250.82958333333332"/><path d=" M370.5718750000001,220.82958333333332 C370.5718750000001,220.82958333333332 416.02515624999995,235.82958333333332 421.0755208333333,250.82958333333332" class="clickable"/></g><path d="M 421.0755208333333,250.82958333333332 L 428.0755208333333,248.32958333333332 L 428.0755208333333,253.32958333333332 Z" transform="rotate(-108.60791475353612 421.0755208333333 250.82958333333332)" class="arrow" style="fill:rgb(48, 48, 48);stroke-linejoin:miter;stroke-miterlimit:2;"/></g><g id="sprotty_fsm$state_q/state$IntegDigPadSt_to_fsm$state_q/state$IntegDigFinSt" class="sprotty-edge transition" style="fill:none;stroke:rgb(48, 48, 48);stroke-linejoin:round;"><g><path d=" M231.3125,290.8295833333333 C231.3125,290.8295833333333 232.88229166666667,300.8295833333333 247.01041666666669,310.8295833333333"/><path d=" M231.3125,290.8295833333333 C231.3125,290.8295833333333 232.88229166666667,300.8295833333333 247.01041666666669,310.8295833333333" class="clickable"/></g><path d="M 247.01041666666669,310.8295833333333 L 254.01041666666669,308.3295833333333 L 254.01041666666669,313.3295833333333 Z" transform="rotate(-144.70883431425233 247.01041666666669 310.8295833333333)" class="arrow" style="fill:rgb(48, 48, 48);stroke-linejoin:miter;stroke-miterlimit:2;"/></g><g id="sprotty_fsm$state_q/state$IntegDigFinSt_to_fsm$state_q/state$IntegDigWaitSt" class="sprotty-edge transition" style="fill:none;stroke:rgb(48, 48, 48);stroke-linejoin:round;"><g><path d=" M265.765625,350.8295833333333 C265.765625,350.8295833333333 265.765625,360.8295833333333 265.765625,370.8295833333333"/><path d=" M265.765625,350.8295833333333 C265.765625,350.8295833333333 265.765625,360.8295833333333 265.765625,370.8295833333333" class="clickable"/></g><path d="M 265.765625,370.8295833333333 L 272.765625,368.3295833333333 L 272.765625,373.3295833333333 Z" transform="rotate(-90 265.765625 370.8295833333333)" class="arrow" style="fill:rgb(48, 48, 48);stroke-linejoin:miter;stroke-miterlimit:2;"/></g><g id="sprotty_fsm$state_q/state$IntegDigWaitSt_to_fsm$state_q/state$IdleSt" class="sprotty-edge transition" style="fill:none;stroke:rgb(48, 48, 48);stroke-linejoin:round;"><g><path d=" M286.22395833333337,410.8295833333333 C286.22395833333337,410.8295833333333 296.0074479166667,430.8295833333333 384.0588541666667,450.8295833333333"/><path d=" M286.22395833333337,410.8295833333333 C286.22395833333337,410.8295833333333 296.0074479166667,430.8295833333333 384.0588541666667,450.8295833333333" class="clickable"/></g><path d="M 384.0588541666667,450.8295833333333 L 391.0588541666667,448.3295833333333 L 391.0588541666667,453.3295833333333 Z" transform="rotate(-167.20296312429488 384.0588541666667 450.8295833333333)" class="arrow" style="fill:rgb(48, 48, 48);stroke-linejoin:miter;stroke-miterlimit:2;"/></g><g id="sprotty_fsm$state_q/state$IntegDigWaitSt_to_fsm$state_q/state$ErrorSt" class="sprotty-edge transition" style="fill:none;stroke:rgb(48, 48, 48);stroke-linejoin:round;"><g><path d=" M245.30729166666669,410.8295833333333 C245.30729166666669,410.8295833333333 240.9265104166667,430.8295833333333 201.4994791666667,450.8295833333333"/><path d=" M245.30729166666669,410.8295833333333 C245.30729166666669,410.8295833333333 240.9265104166667,430.8295833333333 201.4994791666667,450.8295833333333" class="clickable"/></g><path d="M 201.4994791666667,450.8295833333333 L 208.4994791666667,448.3295833333333 L 208.4994791666667,453.3295833333333 Z" transform="rotate(-26.897139942273736 201.4994791666667 450.8295833333333)" class="arrow" style="fill:rgb(48, 48, 48);stroke-linejoin:miter;stroke-miterlimit:2;"/></g></g></g></svg>