<svg xmlns="http://www.w3.org/2000/svg" id="sprotty_root" class="sprotty-graph sprotty-state-machine statemachine" style="font-family:&quot;Noto Sans&quot;, Helvetica, Arial, sans-serif;perspective-origin:0px 0px;transform-origin:0px 0px;" version="1.1" viewBox="10 10 314.6875 228" width="314.6875" height="228"><g transform="scale(1) translate(0,0)"><g id="sprotty_fsm$state_q" transform="translate(15, 15)" class="statemachine"><g class="sprotty-block" style="fill:rgb(255, 255, 255);stroke:rgb(48, 48, 48);stroke-dasharray:0px;"><rect x="0" y="0" rx="1" ry="1" width="304.6875" height="218"/><text x="152.34375" y="12" class="sprotty-block-name" style="cursor:pointer;font-weight:700;perspective-origin:152.344px 0px;fill:rgb(48, 48, 48);stroke:rgba(0, 0, 0, 0);dominant-baseline:middle;text-anchor:middle;">state_q</text><line x1="0" y1="20" x2="304.6875" y2="20"/></g><g id="sprotty_fsm$state_q/state$IdleSt" transform="translate(167.5, 106)" class="state"><ellipse cx="27.421875" cy="20" rx="27.421875" ry="20" class="sprotty-node clickable" style="fill:rgb(255, 255, 255);stroke:rgb(48, 48, 48);"/><text class="clickable sprotty-label state" id="sprotty_fsm$state_q/state$IdleSt/label" transform="translate(6, 8) translate(21.421875, 19)" style="cursor:default;perspective-origin:0px 0px;fill:rgb(48, 48, 48);text-anchor:middle;">IdleSt</text></g><g id="sprotty_fsm$state_q/state$DigestSt" transform="translate(158.234375, 166)" class="state"><ellipse cx="36.6875" cy="20" rx="36.6875" ry="20" class="sprotty-node clickable" style="fill:rgb(255, 255, 255);stroke:rgb(48, 48, 48);"/><text class="clickable sprotty-label state" id="sprotty_fsm$state_q/state$DigestSt/label" transform="translate(6, 8) translate(30.6875, 19)" style="cursor:default;perspective-origin:0px 0px;fill:rgb(48, 48, 48);text-anchor:middle;">DigestSt</text></g><g id="sprotty_fsm$state_q/state$EncryptSt" transform="translate(207.53125, 36)" class="state"><ellipse cx="42.578125" cy="20" rx="42.578125" ry="20" class="sprotty-node clickable" style="fill:rgb(255, 255, 255);stroke:rgb(48, 48, 48);"/><text class="clickable sprotty-label state" id="sprotty_fsm$state_q/state$EncryptSt/label" transform="translate(6, 8) translate(36.578125, 19)" style="cursor:default;perspective-origin:0px 0px;fill:rgb(48, 48, 48);text-anchor:middle;">EncryptSt</text></g><g id="sprotty_fsm$state_q/state$ErrorSt" transform="translate(12, 36)" class="state dead"><ellipse cx="32.359375" cy="20" rx="32.359375" ry="20" class="sprotty-node clickable" style="fill:rgb(194, 94, 95);stroke:rgb(135, 51, 52);"/><text class="clickable sprotty-label state" id="sprotty_fsm$state_q/state$ErrorSt/label" transform="translate(6, 8) translate(26.359375, 19)" style="cursor:default;perspective-origin:0px 0px;fill:rgb(48, 48, 48);text-anchor:middle;">ErrorSt</text></g><g id="sprotty_fsm$state_q/state$DecryptSt" transform="translate(96.71875, 36)" class="state"><ellipse cx="42.90625" cy="20" rx="42.90625" ry="20" class="sprotty-node clickable" style="fill:rgb(255, 255, 255);stroke:rgb(48, 48, 48);"/><text class="clickable sprotty-label state" id="sprotty_fsm$state_q/state$DecryptSt/label" transform="translate(6, 8) translate(36.90625, 19)" style="cursor:default;perspective-origin:0px 0px;fill:rgb(48, 48, 48);text-anchor:middle;">DecryptSt</text></g><g id="sprotty_fsm$state_q/state$IdleSt_to_fsm$state_q/state$DecryptSt" class="sprotty-edge transition" style="fill:none;stroke:rgb(48, 48, 48);stroke-linejoin:round;"><g><path d=" M178.46875,106 C130.6375,91 125.32291666666667,76 125.32291666666667,76"/><path d=" M178.46875,106 C130.6375,91 125.32291666666667,76 125.32291666666667,76" class="clickable"/></g><path d="M 125.32291666666667,76 L 132.32291666666669,73.5 L 132.32291666666669,78.5 Z" transform="rotate(70.49048097732319 125.32291666666667 76)" class="arrow" style="fill:rgb(48, 48, 48);stroke-linejoin:miter;stroke-miterlimit:2;"/></g><g id="sprotty_fsm$state_q/state$IdleSt_to_fsm$state_q/state$EncryptSt" class="sprotty-edge transition" style="fill:none;stroke:rgb(48, 48, 48);stroke-linejoin:round;"><g><path d=" M200.40625,106 C232.365625,91 235.91666666666666,76 235.91666666666666,76"/><path d=" M200.40625,106 C232.365625,91 235.91666666666666,76 235.91666666666666,76" class="clickable"/></g><path d="M 235.91666666666666,76 L 242.91666666666666,73.5 L 242.91666666666666,78.5 Z" transform="rotate(103.31878067448507 235.91666666666666 76)" class="arrow" style="fill:rgb(48, 48, 48);stroke-linejoin:miter;stroke-miterlimit:2;"/></g><g id="sprotty_fsm$state_q/state$IdleSt_to_fsm$state_q/state$DigestSt" class="sprotty-edge transition" style="fill:none;stroke:rgb(48, 48, 48);stroke-linejoin:round;"><g><path d=" M185.78125,146 C185.78125,146 184.23697916666669,156 182.69270833333334,166"/><path d=" M185.78125,146 C185.78125,146 184.23697916666669,156 182.69270833333334,166" class="clickable"/></g><path d="M 182.69270833333334,166 L 189.69270833333334,163.5 L 189.69270833333334,168.5 Z" transform="rotate(-81.22132536262498 182.69270833333334 166)" class="arrow" style="fill:rgb(48, 48, 48);stroke-linejoin:miter;stroke-miterlimit:2;"/></g><g id="sprotty_fsm$state_q/state$DecryptSt_to_fsm$state_q/state$IdleSt" class="sprotty-edge transition" style="fill:none;stroke:rgb(48, 48, 48);stroke-linejoin:round;"><g><path d=" M153.92708333333334,76 C153.92708333333334,76 157.478125,91 189.4375,106"/><path d=" M153.92708333333334,76 C153.92708333333334,76 157.478125,91 189.4375,106" class="clickable"/></g><path d="M 189.4375,106 L 196.4375,103.5 L 196.4375,108.5 Z" transform="rotate(-154.8571819345137 189.4375 106)" class="arrow" style="fill:rgb(48, 48, 48);stroke-linejoin:miter;stroke-miterlimit:2;"/></g><g id="sprotty_fsm$state_q/state$EncryptSt_to_fsm$state_q/state$IdleSt" class="sprotty-edge transition" style="fill:none;stroke:rgb(48, 48, 48);stroke-linejoin:round;"><g><path d=" M264.30208333333337,76 C264.30208333333337,76 259.00937500000003,91 211.375,106"/><path d=" M264.30208333333337,76 C264.30208333333337,76 259.00937500000003,91 211.375,106" class="clickable"/></g><path d="M 211.375,106 L 218.375,103.5 L 218.375,108.5 Z" transform="rotate(-17.479144006055858 211.375 106)" class="arrow" style="fill:rgb(48, 48, 48);stroke-linejoin:miter;stroke-miterlimit:2;"/></g><g id="sprotty_fsm$state_q/state$DigestSt_to_fsm$state_q/state$IdleSt" class="sprotty-edge transition" style="fill:none;stroke:rgb(48, 48, 48);stroke-linejoin:round;"><g><path d=" M207.15104166666669,166 C205.60677083333334,156 204.0625,146 204.0625,146"/><path d=" M207.15104166666669,166 C205.60677083333334,156 204.0625,146 204.0625,146" class="clickable"/></g><path d="M 204.0625,146 L 211.0625,143.5 L 211.0625,148.5 Z" transform="rotate(81.22132536262498 204.0625 146)" class="arrow" style="fill:rgb(48, 48, 48);stroke-linejoin:miter;stroke-miterlimit:2;"/></g></g></g></svg>