<svg xmlns="http://www.w3.org/2000/svg" id="sprotty_root" class="sprotty-graph sprotty-state-machine statemachine" style="font-family:&quot;Noto Sans&quot;, Helvetica, Arial, sans-serif;perspective-origin:0px 0px;transform-origin:0px 0px;" version="1.1" viewBox="10 10 464.1875 588" width="464.1875" height="588"><g transform="scale(1) translate(0,0)"><g id="sprotty_fsm$state_q" transform="translate(15, 15)" class="statemachine"><g class="sprotty-block" style="fill:rgb(255, 255, 255);stroke:rgb(48, 48, 48);stroke-dasharray:0px;"><rect x="0" y="0" rx="1" ry="1" width="454.1875" height="578"/><text x="227.09375" y="12" class="sprotty-block-name" style="cursor:pointer;font-weight:700;perspective-origin:227.094px 0px;fill:rgb(48, 48, 48);stroke:rgba(0, 0, 0, 0);dominant-baseline:middle;text-anchor:middle;">state_q</text><line x1="0" y1="20" x2="454.1875" y2="20"/></g><g id="sprotty_fsm$state_q/state$IdleSt" transform="translate(335.4114583333333, 226)" class="state"><ellipse cx="27.421875" cy="20" rx="27.421875" ry="20" class="sprotty-node clickable" style="fill:rgb(255, 255, 255);stroke:rgb(48, 48, 48);"/><text class="clickable sprotty-label state" id="sprotty_fsm$state_q/state$IdleSt/label" transform="translate(6, 8) translate(21.421875, 19)" style="cursor:default;perspective-origin:0px 0px;fill:rgb(48, 48, 48);text-anchor:middle;">IdleSt</text></g><g id="sprotty_fsm$state_q/state$DigWaitSt" transform="translate(170.38802083333331, 36)" class="state"><ellipse cx="42.390625" cy="20" rx="42.390625" ry="20" class="sprotty-node clickable" style="fill:rgb(255, 255, 255);stroke:rgb(48, 48, 48);"/><text class="clickable sprotty-label state" id="sprotty_fsm$state_q/state$DigWaitSt/label" transform="translate(6, 8) translate(36.390625, 19)" style="cursor:default;perspective-origin:0px 0px;fill:rgb(48, 48, 48);text-anchor:middle;">DigWaitSt</text></g><g id="sprotty_fsm$state_q/state$FetchEntropySt" transform="translate(185.97135416666666, 406)" class="state"><ellipse cx="63.609375" cy="20" rx="63.609375" ry="20" class="sprotty-node clickable" style="fill:rgb(255, 255, 255);stroke:rgb(48, 48, 48);"/><text class="clickable sprotty-label state" id="sprotty_fsm$state_q/state$FetchEntropySt/label" transform="translate(6, 8) translate(57.609375, 19)" style="cursor:default;perspective-origin:0px 0px;fill:rgb(48, 48, 48);text-anchor:middle;">FetchEntropySt</text></g><g id="sprotty_fsm$state_q/state$FetchNonceSt" transform="translate(221.5234375, 106)" class="state"><ellipse cx="57.703125" cy="20" rx="57.703125" ry="20" class="sprotty-node clickable" style="fill:rgb(255, 255, 255);stroke:rgb(48, 48, 48);"/><text class="clickable sprotty-label state" id="sprotty_fsm$state_q/state$FetchNonceSt/label" transform="translate(6, 8) translate(51.703125, 19)" style="cursor:default;perspective-origin:0px 0px;fill:rgb(48, 48, 48);text-anchor:middle;">FetchNonceSt</text></g><g id="sprotty_fsm$state_q/state$DigFinSt" transform="translate(210.04427083333331, 526)" class="state"><ellipse cx="37.28125" cy="20" rx="37.28125" ry="20" class="sprotty-node clickable" style="fill:rgb(255, 255, 255);stroke:rgb(48, 48, 48);"/><text class="clickable sprotty-label state" id="sprotty_fsm$state_q/state$DigFinSt/label" transform="translate(6, 8) translate(31.28125, 19)" style="cursor:default;perspective-origin:0px 0px;fill:rgb(48, 48, 48);text-anchor:middle;">DigFinSt</text></g><g id="sprotty_fsm$state_q/state$FinishSt" transform="translate(277.1875, 166)" class="state"><ellipse cx="35.890625" cy="20" rx="35.890625" ry="20" class="sprotty-node clickable" style="fill:rgb(255, 255, 255);stroke:rgb(48, 48, 48);"/><text class="clickable sprotty-label state" id="sprotty_fsm$state_q/state$FinishSt/label" transform="translate(6, 8) translate(29.890625, 19)" style="cursor:default;perspective-origin:0px 0px;fill:rgb(48, 48, 48);text-anchor:middle;">FinishSt</text></g><g id="sprotty_fsm$state_q/state$ErrorSt" transform="translate(12, 36)" class="state dead"><ellipse cx="32.359375" cy="20" rx="32.359375" ry="20" class="sprotty-node clickable" style="fill:rgb(194, 94, 95);stroke:rgb(135, 51, 52);"/><text class="clickable sprotty-label state" id="sprotty_fsm$state_q/state$ErrorSt/label" transform="translate(6, 8) translate(26.359375, 19)" style="cursor:default;perspective-origin:0px 0px;fill:rgb(48, 48, 48);text-anchor:middle;">ErrorSt</text></g><g id="sprotty_fsm$state_q/state$DigEntropySt" transform="translate(194.22135416666666, 466)" class="state"><ellipse cx="55.359375" cy="20" rx="55.359375" ry="20" class="sprotty-node clickable" style="fill:rgb(255, 255, 255);stroke:rgb(48, 48, 48);"/><text class="clickable sprotty-label state" id="sprotty_fsm$state_q/state$DigEntropySt/label" transform="translate(6, 8) translate(49.359375, 19)" style="cursor:default;perspective-origin:0px 0px;fill:rgb(48, 48, 48);text-anchor:middle;">DigEntropySt</text></g><g id="sprotty_fsm$state_q/state$ResetSt" transform="translate(373.96875, 166)" class="state"><ellipse cx="34.109375" cy="20" rx="34.109375" ry="20" class="sprotty-node clickable" style="fill:rgb(255, 255, 255);stroke:rgb(48, 48, 48);"/><text class="clickable sprotty-label state" id="sprotty_fsm$state_q/state$ResetSt/label" transform="translate(6, 8) translate(28.109375, 19)" style="cursor:default;perspective-origin:0px 0px;fill:rgb(48, 48, 48);text-anchor:middle;">ResetSt</text></g><g id="sprotty_fsm$state_q/state$DigClrSt" transform="translate(281.6640625, 286)" class="state"><ellipse cx="36.265625" cy="20" rx="36.265625" ry="20" class="sprotty-node clickable" style="fill:rgb(255, 255, 255);stroke:rgb(48, 48, 48);"/><text class="clickable sprotty-label state" id="sprotty_fsm$state_q/state$DigClrSt/label" transform="translate(6, 8) translate(30.265625, 19)" style="cursor:default;perspective-origin:0px 0px;fill:rgb(48, 48, 48);text-anchor:middle;">DigClrSt</text></g><g id="sprotty_fsm$state_q/state$DigLoadSt" transform="translate(242.18229166666666, 346)" class="state"><ellipse cx="44.203125" cy="20" rx="44.203125" ry="20" class="sprotty-node clickable" style="fill:rgb(255, 255, 255);stroke:rgb(48, 48, 48);"/><text class="clickable sprotty-label state" id="sprotty_fsm$state_q/state$DigLoadSt/label" transform="translate(6, 8) translate(38.203125, 19)" style="cursor:default;perspective-origin:0px 0px;fill:rgb(48, 48, 48);text-anchor:middle;">DigLoadSt</text></g><g id="sprotty_fsm$state_q/state$ResetSt_to_fsm$state_q/state$IdleSt" class="sprotty-edge transition" style="fill:none;stroke:rgb(48, 48, 48);stroke-linejoin:round;"><g><path d=" M408.078125,206 C408.078125,206 404.4677083333333,216 371.9739583333333,226"/><path d=" M408.078125,206 C408.078125,206 404.4677083333333,216 371.9739583333333,226" class="clickable"/></g><path d="M 371.9739583333333,226 L 378.9739583333333,223.5 L 378.9739583333333,228.5 Z" transform="rotate(-17.105826582387554 371.9739583333333 226)" class="arrow" style="fill:rgb(48, 48, 48);stroke-linejoin:miter;stroke-miterlimit:2;"/></g><g id="sprotty_fsm$state_q/state$IdleSt_to_fsm$state_q/state$DigClrSt" class="sprotty-edge transition" style="fill:none;stroke:rgb(48, 48, 48);stroke-linejoin:round;"><g><path d=" M362.8333333333333,266 C362.8333333333333,266 359.55182291666665,276 330.0182291666667,286"/><path d=" M362.8333333333333,266 C362.8333333333333,266 359.55182291666665,276 330.0182291666667,286" class="clickable"/></g><path d="M 330.0182291666667,286 L 337.0182291666667,283.5 L 337.0182291666667,288.5 Z" transform="rotate(-18.705970107087165 330.0182291666667 286)" class="arrow" style="fill:rgb(48, 48, 48);stroke-linejoin:miter;stroke-miterlimit:2;"/></g><g id="sprotty_fsm$state_q/state$DigClrSt_to_fsm$state_q/state$DigLoadSt" class="sprotty-edge transition" style="fill:none;stroke:rgb(48, 48, 48);stroke-linejoin:round;"><g><path d=" M317.9296875,326 C317.9296875,326 316.24869791666663,336 301.11979166666663,346"/><path d=" M317.9296875,326 C317.9296875,326 316.24869791666663,336 301.11979166666663,346" class="clickable"/></g><path d="M 301.11979166666663,346 L 308.11979166666663,343.5 L 308.11979166666663,348.5 Z" transform="rotate(-33.46415786281339 301.11979166666663 346)" class="arrow" style="fill:rgb(48, 48, 48);stroke-linejoin:miter;stroke-miterlimit:2;"/></g><g id="sprotty_fsm$state_q/state$DigLoadSt_to_fsm$state_q/state$FetchEntropySt" class="sprotty-edge transition" style="fill:none;stroke:rgb(48, 48, 48);stroke-linejoin:round;"><g><path d=" M271.65104166666663,386 C271.65104166666663,386 251.78776041666666,396 249.58072916666666,406"/><path d=" M271.65104166666663,386 C271.65104166666663,386 251.78776041666666,396 249.58072916666666,406" class="clickable"/></g><path d="M 249.58072916666666,406 L 256.58072916666663,403.5 L 256.58072916666663,408.5 Z" transform="rotate(-77.554160883371 249.58072916666666 406)" class="arrow" style="fill:rgb(48, 48, 48);stroke-linejoin:miter;stroke-miterlimit:2;"/></g><g id="sprotty_fsm$state_q/state$DigLoadSt_to_fsm$state_q/state$DigFinSt" class="sprotty-edge transition" style="fill:none;stroke:rgb(48, 48, 48);stroke-linejoin:round;"><g><path d=" M301.11979166666663,386 C323.19010416666663,396 323.19010416666663,401 323.19010416666663,407.66666666666674 C323.19010416666663,414.33333333333337 323.19010416666663,422.66666666666663 323.19010416666663,431 C323.19010416666663,439.3333333333333 323.19010416666663,447.66666666666674 323.19010416666663,460.16666666666674 C323.19010416666663,472.6666666666667 323.19010416666663,489.33333333333337 323.19010416666663,500.16666666666674 C323.19010416666663,511 323.19010416666663,516 265.9661458333333,526"/><path d=" M301.11979166666663,386 C323.19010416666663,396 323.19010416666663,401 323.19010416666663,407.66666666666674 C323.19010416666663,414.33333333333337 323.19010416666663,422.66666666666663 323.19010416666663,431 C323.19010416666663,439.3333333333333 323.19010416666663,447.66666666666674 323.19010416666663,460.16666666666674 C323.19010416666663,472.6666666666667 323.19010416666663,489.33333333333337 323.19010416666663,500.16666666666674 C323.19010416666663,511 323.19010416666663,516 265.9661458333333,526" class="clickable"/></g><path d="M 265.9661458333333,526 L 272.9661458333333,523.5 L 272.9661458333333,528.5 Z" transform="rotate(-9.912456670110252 265.9661458333333 526)" class="arrow" style="fill:rgb(48, 48, 48);stroke-linejoin:miter;stroke-miterlimit:2;"/></g><g id="sprotty_fsm$state_q/state$FetchEntropySt_to_fsm$state_q/state$DigEntropySt" class="sprotty-edge transition" style="fill:none;stroke:rgb(48, 48, 48);stroke-linejoin:round;"><g><path d=" M249.58072916666666,446 C249.58072916666666,446 249.58072916666666,456 249.58072916666666,466"/><path d=" M249.58072916666666,446 C249.58072916666666,446 249.58072916666666,456 249.58072916666666,466" class="clickable"/></g><path d="M 249.58072916666666,466 L 256.58072916666663,463.5 L 256.58072916666663,468.5 Z" transform="rotate(-90 249.58072916666666 466)" class="arrow" style="fill:rgb(48, 48, 48);stroke-linejoin:miter;stroke-miterlimit:2;"/></g><g id="sprotty_fsm$state_q/state$DigEntropySt_to_fsm$state_q/state$DigFinSt" class="sprotty-edge transition" style="fill:none;stroke:rgb(48, 48, 48);stroke-linejoin:round;"><g><path d=" M249.58072916666666,506 C249.58072916666666,506 249.35520833333334,516 247.32552083333331,526"/><path d=" M249.58072916666666,506 C249.58072916666666,506 249.35520833333334,516 247.32552083333331,526" class="clickable"/></g><path d="M 247.32552083333331,526 L 254.32552083333331,523.5 L 254.32552083333331,528.5 Z" transform="rotate(-78.52660663267301 247.32552083333331 526)" class="arrow" style="fill:rgb(48, 48, 48);stroke-linejoin:miter;stroke-miterlimit:2;"/></g><g id="sprotty_fsm$state_q/state$DigFinSt_to_fsm$state_q/state$DigWaitSt" class="sprotty-edge transition" style="fill:none;stroke:rgb(48, 48, 48);stroke-linejoin:round;"><g><path d=" M228.68489583333331,526 C96.71875,516 96.71875,511 96.71875,504.33333333333337 C96.71875,497.66666666666663 96.71875,489.3333333333333 96.71875,481.00000000000006 C96.71875,472.6666666666667 96.71875,464.3333333333333 96.71875,450.1666666666667 C96.71875,436.00000000000006 96.71875,416 96.71875,401.00000000000006 C96.71875,386 96.71875,376 96.71875,366 C96.71875,356 96.71875,345.99999999999994 96.71875,330.99999999999994 C96.71875,316 96.71875,296 96.71875,281 C96.71875,266 96.71875,256 96.71875,246 C96.71875,236 96.71875,226 96.71875,211.00000000000003 C96.71875,196 96.71875,175.99999999999997 96.71875,161.83333333333331 C96.71875,147.66666666666669 96.71875,139.33333333333331 96.71875,131 C96.71875,122.66666666666669 96.71875,114.33333333333334 96.71875,106.41666666666669 C96.71875,98.5 96.71875,91 184.51822916666666,76"/><path d=" M228.68489583333331,526 C96.71875,516 96.71875,511 96.71875,504.33333333333337 C96.71875,497.66666666666663 96.71875,489.3333333333333 96.71875,481.00000000000006 C96.71875,472.6666666666667 96.71875,464.3333333333333 96.71875,450.1666666666667 C96.71875,436.00000000000006 96.71875,416 96.71875,401.00000000000006 C96.71875,386 96.71875,376 96.71875,366 C96.71875,356 96.71875,345.99999999999994 96.71875,330.99999999999994 C96.71875,316 96.71875,296 96.71875,281 C96.71875,266 96.71875,256 96.71875,246 C96.71875,236 96.71875,226 96.71875,211.00000000000003 C96.71875,196 96.71875,175.99999999999997 96.71875,161.83333333333331 C96.71875,147.66666666666669 96.71875,139.33333333333331 96.71875,131 C96.71875,122.66666666666669 96.71875,114.33333333333334 96.71875,106.41666666666669 C96.71875,98.5 96.71875,91 184.51822916666666,76" class="clickable"/></g><path d="M 184.51822916666666,76 L 191.51822916666666,73.5 L 191.51822916666666,78.5 Z" transform="rotate(170.30497090673518 184.51822916666666 76)" class="arrow" style="fill:rgb(48, 48, 48);stroke-linejoin:miter;stroke-miterlimit:2;"/></g><g id="sprotty_fsm$state_q/state$DigWaitSt_to_fsm$state_q/state$DigLoadSt" class="sprotty-edge transition" style="fill:none;stroke:rgb(48, 48, 48);stroke-linejoin:round;"><g><path d=" M198.64843749999997,76 C159.5234375,91 159.5234375,98.5 159.5234375,106.41666666666666 C159.5234375,114.33333333333333 159.5234375,122.66666666666666 159.5234375,131 C159.5234375,139.33333333333331 159.5234375,147.66666666666666 159.5234375,161.83333333333331 C159.5234375,176 159.5234375,196 159.5234375,211 C159.5234375,226 159.5234375,236 159.5234375,246 C159.5234375,256 159.5234375,266 159.5234375,279.3333333333333 C159.5234375,292.66666666666663 159.5234375,309.3333333333333 159.5234375,320.16666666666663 C159.5234375,331 159.5234375,336 271.65104166666663,346"/><path d=" M198.64843749999997,76 C159.5234375,91 159.5234375,98.5 159.5234375,106.41666666666666 C159.5234375,114.33333333333333 159.5234375,122.66666666666666 159.5234375,131 C159.5234375,139.33333333333331 159.5234375,147.66666666666666 159.5234375,161.83333333333331 C159.5234375,176 159.5234375,196 159.5234375,211 C159.5234375,226 159.5234375,236 159.5234375,246 C159.5234375,256 159.5234375,266 159.5234375,279.3333333333333 C159.5234375,292.66666666666663 159.5234375,309.3333333333333 159.5234375,320.16666666666663 C159.5234375,331 159.5234375,336 271.65104166666663,346" class="clickable"/></g><path d="M 271.65104166666663,346 L 278.65104166666663,343.5 L 278.65104166666663,348.5 Z" transform="rotate(-174.90361055085924 271.65104166666663 346)" class="arrow" style="fill:rgb(48, 48, 48);stroke-linejoin:miter;stroke-miterlimit:2;"/></g><g id="sprotty_fsm$state_q/state$DigWaitSt_to_fsm$state_q/state$DigClrSt" class="sprotty-edge transition" style="fill:none;stroke:rgb(48, 48, 48);stroke-linejoin:round;"><g><path d=" M212.77864583333331,76 C210.5234375,91 210.52343749999997,98.5 210.52343749999997,106.41666666666667 C210.52343749999997,114.33333333333333 210.52343749999997,122.66666666666666 210.52343749999997,131 C210.52343749999997,139.33333333333334 210.52343749999997,147.66666666666669 210.52343749999997,161.83333333333331 C210.5234375,175.99999999999997 210.5234375,195.99999999999997 210.5234375,210.16666666666666 C210.52343749999997,224.33333333333334 210.52343749999997,232.66666666666666 210.52343749999997,241 C210.5234375,249.33333333333334 210.52343749999997,257.66666666666663 210.52343749999994,264.33333333333326 C210.52343749999997,271 210.5234375,276 305.8411458333333,286"/><path d=" M212.77864583333331,76 C210.5234375,91 210.52343749999997,98.5 210.52343749999997,106.41666666666667 C210.52343749999997,114.33333333333333 210.52343749999997,122.66666666666666 210.52343749999997,131 C210.52343749999997,139.33333333333334 210.52343749999997,147.66666666666669 210.52343749999997,161.83333333333331 C210.5234375,175.99999999999997 210.5234375,195.99999999999997 210.5234375,210.16666666666666 C210.52343749999997,224.33333333333334 210.52343749999997,232.66666666666666 210.52343749999997,241 C210.5234375,249.33333333333334 210.52343749999997,257.66666666666663 210.52343749999994,264.33333333333326 C210.52343749999997,271 210.5234375,276 305.8411458333333,286" class="clickable"/></g><path d="M 305.8411458333333,286 L 312.8411458333333,283.5 L 312.8411458333333,288.5 Z" transform="rotate(-174.0108771483853 305.8411458333333 286)" class="arrow" style="fill:rgb(48, 48, 48);stroke-linejoin:miter;stroke-miterlimit:2;"/></g><g id="sprotty_fsm$state_q/state$DigWaitSt_to_fsm$state_q/state$FetchNonceSt" class="sprotty-edge transition" style="fill:none;stroke:rgb(48, 48, 48);stroke-linejoin:round;"><g><path d=" M226.90885416666663,76 C226.90885416666666,76 273.99479166666663,91 279.2265625,106"/><path d=" M226.90885416666663,76 C226.90885416666666,76 273.99479166666663,91 279.2265625,106" class="clickable"/></g><path d="M 279.2265625,106 L 286.2265625,103.5 L 286.2265625,108.5 Z" transform="rotate(-109.22799129244731 279.2265625 106)" class="arrow" style="fill:rgb(48, 48, 48);stroke-linejoin:miter;stroke-miterlimit:2;"/></g><g id="sprotty_fsm$state_q/state$DigWaitSt_to_fsm$state_q/state$FinishSt" class="sprotty-edge transition" style="fill:none;stroke:rgb(48, 48, 48);stroke-linejoin:round;"><g><path d=" M241.03906249999997,76 C346.9296875,91 346.9296875,98.5 346.9296875,105.58333333333333 C346.9296875,112.66666666666666 346.9296875,119.33333333333333 346.9296875,126 C346.9296875,132.66666666666666 346.9296875,139.33333333333331 346.9296875,145.16666666666666 C346.9296875,151 346.9296875,156 325.0416666666667,166"/><path d=" M241.03906249999997,76 C346.9296875,91 346.9296875,98.5 346.9296875,105.58333333333333 C346.9296875,112.66666666666666 346.9296875,119.33333333333333 346.9296875,126 C346.9296875,132.66666666666666 346.9296875,139.33333333333331 346.9296875,145.16666666666666 C346.9296875,151 346.9296875,156 325.0416666666667,166" class="clickable"/></g><path d="M 325.0416666666667,166 L 332.0416666666667,163.5 L 332.0416666666667,168.5 Z" transform="rotate(-24.554281925374127 325.0416666666667 166)" class="arrow" style="fill:rgb(48, 48, 48);stroke-linejoin:miter;stroke-miterlimit:2;"/></g><g id="sprotty_fsm$state_q/state$FetchNonceSt_to_fsm$state_q/state$FinishSt" class="sprotty-edge transition" style="fill:none;stroke:rgb(48, 48, 48);stroke-linejoin:round;"><g><path d=" M279.2265625,146 C279.2265625,146 281.41536458333337,156 301.1145833333333,166"/><path d=" M279.2265625,146 C279.2265625,146 281.41536458333337,156 301.1145833333333,166" class="clickable"/></g><path d="M 301.1145833333333,166 L 308.1145833333333,163.5 L 308.1145833333333,168.5 Z" transform="rotate(-153.0860859016587 301.1145833333333 166)" class="arrow" style="fill:rgb(48, 48, 48);stroke-linejoin:miter;stroke-miterlimit:2;"/></g><g id="sprotty_fsm$state_q/state$FinishSt_to_fsm$state_q/state$IdleSt" class="sprotty-edge transition" style="fill:none;stroke:rgb(48, 48, 48);stroke-linejoin:round;"><g><path d=" M313.078125,206 C313.078125,206 317.13958333333335,216 353.6927083333333,226"/><path d=" M313.078125,206 C313.078125,206 317.13958333333335,216 353.6927083333333,226" class="clickable"/></g><path d="M 353.6927083333333,226 L 360.6927083333333,223.5 L 360.6927083333333,228.5 Z" transform="rotate(-164.69971333442624 353.6927083333333 226)" class="arrow" style="fill:rgb(48, 48, 48);stroke-linejoin:miter;stroke-miterlimit:2;"/></g></g></g></svg>