<svg xmlns="http://www.w3.org/2000/svg" id="sprotty_root" class="sprotty-graph sprotty-state-machine statemachine" style="font-family:&quot;Noto Sans&quot;, Helvetica, Arial, sans-serif;perspective-origin:0px 0px;transform-origin:0px 0px;" version="1.1" viewBox="10 10 259.21875 288" width="259.21875" height="288"><g transform="scale(1) translate(0,0)"><g id="sprotty_fsm$state_q" transform="translate(15, 15)" class="statemachine"><g class="sprotty-block" style="fill:rgb(255, 255, 255);stroke:rgb(48, 48, 48);stroke-dasharray:0px;"><rect x="0" y="0" rx="1" ry="1" width="249.21875" height="278"/><text x="124.609375" y="12" class="sprotty-block-name" style="cursor:pointer;font-weight:700;perspective-origin:124.609px 0px;fill:rgb(48, 48, 48);stroke:rgba(0, 0, 0, 0);dominant-baseline:middle;text-anchor:middle;">state_q</text><line x1="0" y1="20" x2="249.21875" y2="20"/></g><g id="sprotty_fsm$state_q/state$IdleSt" transform="translate(98.36458333333333, 96)" class="state"><ellipse cx="27.421875" cy="20" rx="27.421875" ry="20" class="sprotty-node clickable" style="fill:rgb(255, 255, 255);stroke:rgb(48, 48, 48);"/><text class="clickable sprotty-label state" id="sprotty_fsm$state_q/state$IdleSt/label" transform="translate(6, 8) translate(21.421875, 19)" style="cursor:default;perspective-origin:0px 0px;fill:rgb(48, 48, 48);text-anchor:middle;">IdleSt</text></g><g id="sprotty_fsm$state_q/state$ErrorSt" transform="translate(93.13281250000001, 226)" class="state"><ellipse cx="32.359375" cy="20" rx="32.359375" ry="20" class="sprotty-node clickable" style="fill:rgb(255, 255, 255);stroke:rgb(48, 48, 48);"/><text class="clickable sprotty-label state" id="sprotty_fsm$state_q/state$ErrorSt/label" transform="translate(6, 8) translate(26.359375, 19)" style="cursor:default;perspective-origin:0px 0px;fill:rgb(48, 48, 48);text-anchor:middle;">ErrorSt</text></g><g id="sprotty_fsm$state_q/state$IntegWaitSt" transform="translate(138.875, 166)" class="state"><ellipse cx="49.171875" cy="20" rx="49.171875" ry="20" class="sprotty-node clickable" style="fill:rgb(255, 255, 255);stroke:rgb(48, 48, 48);"/><text class="clickable sprotty-label state" id="sprotty_fsm$state_q/state$IntegWaitSt/label" transform="translate(6, 8) translate(43.171875, 19)" style="cursor:default;perspective-origin:0px 0px;fill:rgb(48, 48, 48);text-anchor:middle;">IntegWaitSt</text></g><g id="sprotty_fsm$state_q/state$ResetSt" transform="translate(91.67708333333333, 36)" class="state"><ellipse cx="34.109375" cy="20" rx="34.109375" ry="20" class="sprotty-node clickable" style="fill:rgb(255, 255, 255);stroke:rgb(48, 48, 48);"/><text class="clickable sprotty-label state" id="sprotty_fsm$state_q/state$ResetSt/label" transform="translate(6, 8) translate(28.109375, 19)" style="cursor:default;perspective-origin:0px 0px;fill:rgb(48, 48, 48);text-anchor:middle;">ResetSt</text></g><g id="sprotty_fsm$state_q/state$CnstyWaitSt" transform="translate(12, 166)" class="state"><ellipse cx="50.9375" cy="20" rx="50.9375" ry="20" class="sprotty-node clickable" style="fill:rgb(255, 255, 255);stroke:rgb(48, 48, 48);"/><text class="clickable sprotty-label state" id="sprotty_fsm$state_q/state$CnstyWaitSt/label" transform="translate(6, 8) translate(44.9375, 19)" style="cursor:default;perspective-origin:0px 0px;fill:rgb(48, 48, 48);text-anchor:middle;">CnstyWaitSt</text></g><g id="sprotty_fsm$state_q/state$ResetSt_to_fsm$state_q/state$IdleSt" class="sprotty-edge transition" style="fill:none;stroke:rgb(48, 48, 48);stroke-linejoin:round;"><g><path d=" M125.78645833333333,76 C125.78645833333333,76 125.78645833333333,86 125.78645833333333,96"/><path d=" M125.78645833333333,76 C125.78645833333333,76 125.78645833333333,86 125.78645833333333,96" class="clickable"/></g><path d="M 125.78645833333333,96 L 132.78645833333331,93.5 L 132.78645833333331,98.5 Z" transform="rotate(-90 125.78645833333333 96)" class="arrow" style="fill:rgb(48, 48, 48);stroke-linejoin:miter;stroke-miterlimit:2;"/></g><g id="sprotty_fsm$state_q/state$IdleSt_to_fsm$state_q/state$IntegWaitSt" class="sprotty-edge transition" style="fill:none;stroke:rgb(48, 48, 48);stroke-linejoin:round;"><g><path d=" M142.23958333333331,136 C142.23958333333331,136 198.21770833333335,151 204.4375,166"/><path d=" M142.23958333333331,136 C142.23958333333331,136 198.21770833333335,151 204.4375,166" class="clickable"/></g><path d="M 204.4375,166 L 211.4375,163.5 L 211.4375,168.5 Z" transform="rotate(-112.52147649637615 204.4375 166)" class="arrow" style="fill:rgb(48, 48, 48);stroke-linejoin:miter;stroke-miterlimit:2;"/></g><g id="sprotty_fsm$state_q/state$IdleSt_to_fsm$state_q/state$CnstyWaitSt" class="sprotty-edge transition" style="fill:none;stroke:rgb(48, 48, 48);stroke-linejoin:round;"><g><path d=" M120.30208333333333,136 C120.30208333333333,136 83.95520833333333,151 79.91666666666666,166"/><path d=" M120.30208333333333,136 C120.30208333333333,136 83.95520833333333,151 79.91666666666666,166" class="clickable"/></g><path d="M 79.91666666666666,166 L 86.91666666666666,163.5 L 86.91666666666666,168.5 Z" transform="rotate(-74.93122645961319 79.91666666666666 166)" class="arrow" style="fill:rgb(48, 48, 48);stroke-linejoin:miter;stroke-miterlimit:2;"/></g><g id="sprotty_fsm$state_q/state$IntegWaitSt_to_fsm$state_q/state$ErrorSt" class="sprotty-edge transition" style="fill:none;stroke:rgb(48, 48, 48);stroke-linejoin:round;"><g><path d=" M188.046875,206 C188.046875,206 182.87005208333335,216 136.27864583333334,226"/><path d=" M188.046875,206 C188.046875,206 182.87005208333335,216 136.27864583333334,226" class="clickable"/></g><path d="M 136.27864583333334,226 L 143.27864583333334,223.5 L 143.27864583333334,228.5 Z" transform="rotate(-12.113717501135783 136.27864583333334 226)" class="arrow" style="fill:rgb(48, 48, 48);stroke-linejoin:miter;stroke-miterlimit:2;"/></g><g id="sprotty_fsm$state_q/state$IntegWaitSt_to_fsm$state_q/state$IdleSt" class="sprotty-edge transition" style="fill:none;stroke:rgb(48, 48, 48);stroke-linejoin:round;"><g><path d=" M171.65625,166 C167.61770833333333,151 131.27083333333331,136 131.27083333333331,136"/><path d=" M171.65625,166 C167.61770833333333,151 131.27083333333331,136 131.27083333333331,136" class="clickable"/></g><path d="M 131.27083333333331,136 L 138.27083333333331,133.5 L 138.27083333333331,138.5 Z" transform="rotate(22.425461042715625 131.27083333333331 136)" class="arrow" style="fill:rgb(48, 48, 48);stroke-linejoin:miter;stroke-miterlimit:2;"/></g><g id="sprotty_fsm$state_q/state$CnstyWaitSt_to_fsm$state_q/state$ErrorSt" class="sprotty-edge transition" style="fill:none;stroke:rgb(48, 48, 48);stroke-linejoin:round;"><g><path d=" M62.9375,206 C62.9375,206 68.11432291666667,216 114.70572916666669,226"/><path d=" M62.9375,206 C62.9375,206 68.11432291666667,216 114.70572916666669,226" class="clickable"/></g><path d="M 114.70572916666669,226 L 121.70572916666669,223.5 L 121.70572916666669,228.5 Z" transform="rotate(-167.8862824988642 114.70572916666669 226)" class="arrow" style="fill:rgb(48, 48, 48);stroke-linejoin:miter;stroke-miterlimit:2;"/></g><g id="sprotty_fsm$state_q/state$CnstyWaitSt_to_fsm$state_q/state$IdleSt" class="sprotty-edge transition" style="fill:none;stroke:rgb(48, 48, 48);stroke-linejoin:round;"><g><path d=" M45.95833333333333,166 C52.29583333333333,151 109.33333333333333,136 109.33333333333333,136"/><path d=" M45.95833333333333,166 C52.29583333333333,151 109.33333333333333,136 109.33333333333333,136" class="clickable"/></g><path d="M 109.33333333333333,136 L 116.33333333333333,133.5 L 116.33333333333333,138.5 Z" transform="rotate(165.2657086252292 109.33333333333333 136)" class="arrow" style="fill:rgb(48, 48, 48);stroke-linejoin:miter;stroke-miterlimit:2;"/></g></g></g></svg>