<svg xmlns="http://www.w3.org/2000/svg" id="sprotty_root" class="sprotty-graph sprotty-state-machine statemachine" style="font-family:&quot;Noto Sans&quot;, Helvetica, Arial, sans-serif;perspective-origin:0px 0px;transform-origin:0px 0px;" version="1.1" viewBox="10 10 116.75 218" width="116.75" height="218"><g transform="scale(1) translate(0,0)"><g id="sprotty_fsm$state_q" transform="translate(15, 15)" class="statemachine"><g class="sprotty-block" style="fill:rgb(255, 255, 255);stroke:rgb(48, 48, 48);stroke-dasharray:0px;"><rect x="0" y="0" rx="1" ry="1" width="106.75" height="208"/><text x="53.375" y="12" class="sprotty-block-name" style="cursor:pointer;font-weight:700;perspective-origin:53.375px 0px;fill:rgb(48, 48, 48);stroke:rgba(0, 0, 0, 0);dominant-baseline:middle;text-anchor:middle;">state_q</text><line x1="0" y1="20" x2="106.75" y2="20"/></g><g id="sprotty_fsm$state_q/state$IsStd" transform="translate(18.515625, 96)" class="state"><ellipse cx="24.515625" cy="20" rx="24.515625" ry="20" class="sprotty-node clickable" style="fill:rgb(255, 255, 255);stroke:rgb(48, 48, 48);"/><text class="clickable sprotty-label state" id="sprotty_fsm$state_q/state$IsStd/label" transform="translate(6, 8) translate(18.515625, 19)" style="cursor:default;perspective-origin:0px 0px;fill:rgb(48, 48, 48);text-anchor:middle;">IsStd</text></g><g id="sprotty_fsm$state_q/state$SigInt" transform="translate(22.23046875, 156)" class="state"><ellipse cx="27.734375" cy="20" rx="27.734375" ry="20" class="sprotty-node clickable" style="fill:rgb(255, 255, 255);stroke:rgb(48, 48, 48);"/><text class="clickable sprotty-label state" id="sprotty_fsm$state_q/state$SigInt/label" transform="translate(6, 8) translate(21.734375, 19)" style="cursor:default;perspective-origin:0px 0px;fill:rgb(48, 48, 48);text-anchor:middle;">SigInt</text></g><g id="sprotty_fsm$state_q/state$IsSkewed" transform="translate(12, 36)" class="state"><ellipse cx="41.375" cy="20" rx="41.375" ry="20" class="sprotty-node clickable" style="fill:rgb(255, 255, 255);stroke:rgb(48, 48, 48);"/><text class="clickable sprotty-label state" id="sprotty_fsm$state_q/state$IsSkewed/label" transform="translate(6, 8) translate(35.375, 19)" style="cursor:default;perspective-origin:0px 0px;fill:rgb(48, 48, 48);text-anchor:middle;">IsSkewed</text></g><g id="sprotty_fsm$state_q/state$IsStd_to_fsm$state_q/state$IsSkewed" class="sprotty-edge transition" style="fill:none;stroke:rgb(48, 48, 48);stroke-linejoin:round;"><g><path d=" M34.859375,96 C34.6421875,86 32.6875,76 32.6875,76"/><path d=" M34.859375,96 C34.6421875,86 32.6875,76 32.6875,76" class="clickable"/></g><path d="M 32.6875,76 L 39.6875,73.5 L 39.6875,78.5 Z" transform="rotate(78.93991972194881 32.6875 76)" class="arrow" style="fill:rgb(48, 48, 48);stroke-linejoin:miter;stroke-miterlimit:2;"/></g><g id="sprotty_fsm$state_q/state$IsStd_to_fsm$state_q/state$SigInt" class="sprotty-edge transition" style="fill:none;stroke:rgb(48, 48, 48);stroke-linejoin:round;"><g><path d=" M34.859375,136 C34.859375,136 34.983203125,146 36.09765625,156"/><path d=" M34.859375,136 C34.859375,136 34.983203125,146 36.09765625,156" class="clickable"/></g><path d="M 36.09765625,156 L 43.09765625,153.5 L 43.09765625,158.5 Z" transform="rotate(-96.35910586432317 36.09765625 156)" class="arrow" style="fill:rgb(48, 48, 48);stroke-linejoin:miter;stroke-miterlimit:2;"/></g><g id="sprotty_fsm$state_q/state$IsSkewed_to_fsm$state_q/state$IsStd" class="sprotty-edge transition" style="fill:none;stroke:rgb(48, 48, 48);stroke-linejoin:round;"><g><path d=" M53.375,76 C53.375,76 51.4203125,86 51.203125,96"/><path d=" M53.375,76 C53.375,76 51.4203125,86 51.203125,96" class="clickable"/></g><path d="M 51.203125,96 L 58.203125,93.5 L 58.203125,98.5 Z" transform="rotate(-88.75580289505751 51.203125 96)" class="arrow" style="fill:rgb(48, 48, 48);stroke-linejoin:miter;stroke-miterlimit:2;"/></g><g id="sprotty_fsm$state_q/state$IsSkewed_to_fsm$state_q/state$SigInt" class="sprotty-edge transition" style="fill:none;stroke:rgb(48, 48, 48);stroke-linejoin:round;"><g><path d=" M74.0625,76 C77.546875,86 77.546875,91 77.546875,96.83333333333333 C77.546875,102.66666666666666 77.546875,109.33333333333333 77.546875,116 C77.546875,122.66666666666666 77.546875,129.33333333333331 77.546875,135.16666666666666 C77.546875,141 77.546875,146 63.83203125,156"/><path d=" M74.0625,76 C77.546875,86 77.546875,91 77.546875,96.83333333333333 C77.546875,102.66666666666666 77.546875,109.33333333333333 77.546875,116 C77.546875,122.66666666666666 77.546875,129.33333333333331 77.546875,135.16666666666666 C77.546875,141 77.546875,146 63.83203125,156" class="clickable"/></g><path d="M 63.83203125,156 L 70.83203125,153.5 L 70.83203125,158.5 Z" transform="rotate(-36.09717413439892 63.83203125 156)" class="arrow" style="fill:rgb(48, 48, 48);stroke-linejoin:miter;stroke-miterlimit:2;"/></g><g id="sprotty_fsm$state_q/state$SigInt_to_fsm$state_q/state$IsStd" class="sprotty-edge transition" style="fill:none;stroke:rgb(48, 48, 48);stroke-linejoin:round;"><g><path d=" M49.96484375,156 C51.079296875,146 51.203125,136 51.203125,136"/><path d=" M49.96484375,156 C51.079296875,146 51.203125,136 51.203125,136" class="clickable"/></g><path d="M 51.203125,136 L 58.203125,133.5 L 58.203125,138.5 Z" transform="rotate(90.70944663546021 51.203125 136)" class="arrow" style="fill:rgb(48, 48, 48);stroke-linejoin:miter;stroke-miterlimit:2;"/></g></g></g></svg>