<svg xmlns="http://www.w3.org/2000/svg" id="sprotty_root" class="sprotty-graph sprotty-state-machine statemachine" style="font-family:&quot;Noto Sans&quot;, Helvetica, Arial, sans-serif;perspective-origin:0px 0px;transform-origin:0px 0px;" version="1.1" viewBox="10 10 104.890625 158" width="104.890625" height="158"><g transform="scale(1) translate(0,0)"><g id="sprotty_fsm$src_fsm_cs" transform="translate(15, 15)" class="statemachine"><g class="sprotty-block" style="fill:rgb(255, 255, 255);stroke:rgb(48, 48, 48);stroke-dasharray:0px;"><rect x="0" y="0" rx="1" ry="1" width="94.890625" height="148"/><text x="47.4453125" y="12" class="sprotty-block-name" style="cursor:pointer;font-weight:700;perspective-origin:47.4844px 0px;fill:rgb(48, 48, 48);stroke:rgba(0, 0, 0, 0);dominant-baseline:middle;text-anchor:middle;">src_fsm_cs</text><line x1="0" y1="20" x2="94.890625" y2="20"/></g><g id="sprotty_fsm$src_fsm_cs/state$EVEN" transform="translate(12, 96)" class="state"><ellipse cx="25.796875" cy="20" rx="25.796875" ry="20" class="sprotty-node clickable" style="fill:rgb(255, 255, 255);stroke:rgb(48, 48, 48);"/><text class="clickable sprotty-label state" id="sprotty_fsm$src_fsm_cs/state$EVEN/label" transform="translate(6, 8) translate(19.796875, 19)" style="cursor:default;perspective-origin:0px 0px;fill:rgb(48, 48, 48);text-anchor:middle;">EVEN</text></g><g id="sprotty_fsm$src_fsm_cs/state$ODD" transform="translate(14.859375, 36)" class="state"><ellipse cx="22.9375" cy="20" rx="22.9375" ry="20" class="sprotty-node clickable" style="fill:rgb(255, 255, 255);stroke:rgb(48, 48, 48);"/><text class="clickable sprotty-label state" id="sprotty_fsm$src_fsm_cs/state$ODD/label" transform="translate(6, 8) translate(16.9375, 19)" style="cursor:default;perspective-origin:0px 0px;fill:rgb(48, 48, 48);text-anchor:middle;">ODD</text></g><g id="sprotty_fsm$src_fsm_cs/state$EVEN_to_fsm$src_fsm_cs/state$ODD" class="sprotty-edge transition" style="fill:none;stroke:rgb(48, 48, 48);stroke-linejoin:round;"><g><path d=" M46.395833333333336,96 C45.919270833333336,86 45.442708333333336,76 45.442708333333336,76"/><path d=" M46.395833333333336,96 C45.919270833333336,86 45.442708333333336,76 45.442708333333336,76" class="clickable"/></g><path d="M 45.442708333333336,76 L 52.442708333333336,73.5 L 52.442708333333336,78.5 Z" transform="rotate(87.2715622929247 45.442708333333336 76)" class="arrow" style="fill:rgb(48, 48, 48);stroke-linejoin:miter;stroke-miterlimit:2;"/></g><g id="sprotty_fsm$src_fsm_cs/state$ODD_to_fsm$src_fsm_cs/state$EVEN" class="sprotty-edge transition" style="fill:none;stroke:rgb(48, 48, 48);stroke-linejoin:round;"><g><path d=" M30.151041666666668,76 C30.151041666666668,76 29.674479166666668,86 29.197916666666668,96"/><path d=" M30.151041666666668,76 C30.151041666666668,76 29.674479166666668,86 29.197916666666668,96" class="clickable"/></g><path d="M 29.197916666666668,96 L 36.19791666666667,93.5 L 36.19791666666667,98.5 Z" transform="rotate(-87.2715622929247 29.197916666666668 96)" class="arrow" style="fill:rgb(48, 48, 48);stroke-linejoin:miter;stroke-miterlimit:2;"/></g></g></g></svg>