<svg xmlns="http://www.w3.org/2000/svg" id="sprotty_root" class="sprotty-graph sprotty-state-machine statemachine" style="font-family:&quot;Noto Sans&quot;, Helvetica, Arial, sans-serif;perspective-origin:0px 0px;transform-origin:0px 0px;" version="1.1" viewBox="10 10 508.2 448" width="508.2" height="448"><g transform="scale(1) translate(0,0)"><g id="sprotty_fsm$state_q" transform="translate(15, 15)" class="statemachine"><g class="sprotty-block" style="fill:rgb(255, 255, 255);stroke:rgb(48, 48, 48);stroke-dasharray:0px;"><rect x="0" y="0" rx="1" ry="1" width="498.2" height="438"/><text x="249.1" y="12" class="sprotty-block-name" style="cursor:pointer;font-weight:700;perspective-origin:249.094px 0px;fill:rgb(48, 48, 48);stroke:rgba(0, 0, 0, 0);dominant-baseline:middle;text-anchor:middle;">state_q</text><line x1="0" y1="20" x2="498.2" y2="20"/></g><g id="sprotty_fsm$state_q/state$CheckEscRespLo" transform="translate(231.2734375, 236)" class="state"><ellipse cx="68.609375" cy="20" rx="68.609375" ry="20" class="sprotty-node clickable" style="fill:rgb(255, 255, 255);stroke:rgb(48, 48, 48);"/><text class="clickable sprotty-label state" id="sprotty_fsm$state_q/state$CheckEscRespLo/label" transform="translate(6, 8) translate(62.609375, 19)" style="cursor:default;perspective-origin:0px 0px;fill:rgb(48, 48, 48);text-anchor:middle;">CheckEscRespLo</text></g><g id="sprotty_fsm$state_q/state$Idle" transform="translate(172.59791666666663, 386)" class="state"><ellipse cx="45" cy="20" rx="45" ry="20" class="sprotty-node clickable" style="fill:rgb(255, 255, 255);stroke:rgb(48, 48, 48);"/><text class="clickable sprotty-label state" id="sprotty_fsm$state_q/state$Idle/label" transform="translate(30.90625, 8) translate(14.03125, 19)" style="cursor:default;perspective-origin:0.0625px 0px;fill:rgb(48, 48, 48);text-anchor:middle;">Idle</text></g><g id="sprotty_fsm$state_q/state$CheckPingResp1" transform="translate(152.1640625, 106)" class="state"><ellipse cx="68.109375" cy="20" rx="68.109375" ry="20" class="sprotty-node clickable" style="fill:rgb(255, 255, 255);stroke:rgb(48, 48, 48);"/><text class="clickable sprotty-label state" id="sprotty_fsm$state_q/state$CheckPingResp1/label" transform="translate(6, 8) translate(62.109375, 19)" style="cursor:default;perspective-origin:0px 0px;fill:rgb(48, 48, 48);text-anchor:middle;">CheckPingResp1</text></g><g id="sprotty_fsm$state_q/state$CheckPingResp0" transform="translate(261.4265625, 36)" class="state"><ellipse cx="68.1640625" cy="20" rx="68.1640625" ry="20" class="sprotty-node clickable" style="fill:rgb(255, 255, 255);stroke:rgb(48, 48, 48);"/><text class="clickable sprotty-label state" id="sprotty_fsm$state_q/state$CheckPingResp0/label" transform="translate(6, 8) translate(62.109375, 19)" style="cursor:default;perspective-origin:0.046875px 0px;fill:rgb(48, 48, 48);text-anchor:middle;">CheckPingResp0</text></g><g id="sprotty_fsm$state_q/state$CheckPingResp3" transform="translate(74, 236)" class="state"><ellipse cx="68.109375" cy="20" rx="68.109375" ry="20" class="sprotty-node clickable" style="fill:rgb(255, 255, 255);stroke:rgb(48, 48, 48);"/><text class="clickable sprotty-label state" id="sprotty_fsm$state_q/state$CheckPingResp3/label" transform="translate(6, 8) translate(62.109375, 19)" style="cursor:default;perspective-origin:0px 0px;fill:rgb(48, 48, 48);text-anchor:middle;">CheckPingResp3</text></g><g id="sprotty_fsm$state_q/state$CheckPingResp2" transform="translate(60.064453125, 166)" class="state"><ellipse cx="68.1640625" cy="20" rx="68.1640625" ry="20" class="sprotty-node clickable" style="fill:rgb(255, 255, 255);stroke:rgb(48, 48, 48);"/><text class="clickable sprotty-label state" id="sprotty_fsm$state_q/state$CheckPingResp2/label" transform="translate(6, 8) translate(62.109375, 19)" style="cursor:default;perspective-origin:0.046875px 0px;fill:rgb(48, 48, 48);text-anchor:middle;">CheckPingResp2</text></g><g id="sprotty_fsm$state_q/state$CheckEscRespHi" transform="translate(179.00312499999998, 296)" class="state"><ellipse cx="67.5625" cy="20" rx="67.5625" ry="20" class="sprotty-node clickable" style="fill:rgb(255, 255, 255);stroke:rgb(48, 48, 48);"/><text class="clickable sprotty-label state" id="sprotty_fsm$state_q/state$CheckEscRespHi/label" transform="translate(6, 8) translate(61.5625, 19)" style="cursor:default;perspective-origin:0px 0px;fill:rgb(48, 48, 48);text-anchor:middle;">CheckEscRespHi</text></g><g id="sprotty_fsm$state_q/state$Idle_to_fsm$state_q/state$CheckEscRespHi" class="sprotty-edge transition" style="fill:none;stroke:rgb(48, 48, 48);stroke-linejoin:round;"><g><path d=" M212.59791666666663,386 C222.90010416666667,361 224.04479166666664,336 224.04479166666664,336"/><path d=" M212.59791666666663,386 C222.90010416666667,361 224.04479166666664,336 224.04479166666664,336" class="clickable"/></g><path d="M 224.04479166666664,336 L 231.04479166666664,333.5 L 231.04479166666664,338.5 Z" transform="rotate(92.62159947070752 224.04479166666664 336)" class="arrow" style="fill:rgb(48, 48, 48);stroke-linejoin:miter;stroke-miterlimit:2;"/></g><g id="sprotty_fsm$state_q/state$Idle_to_fsm$state_q/state$CheckPingResp0" class="sprotty-edge transition" style="fill:none;stroke:rgb(48, 48, 48);stroke-linejoin:round;"><g><path d=" M182.59791666666663,386 C12,361 12,348.5 12,333.91666666666663 C12,319.3333333333333 12,302.66666666666663 12,288.91666666666663 C12,275.16666666666663 12,264.3333333333333 12,253.5 C12,242.66666666666666 12,231.83333333333331 12,215.58333333333331 C12,199.33333333333331 12,177.66666666666666 12,162.66666666666666 C12,147.66666666666666 12,139.33333333333331 12,131 C12,122.66666666666666 12,114.33333333333333 12,106.41666666666666 C12,98.5 12,91 288.6921875,76"/><path d=" M182.59791666666663,386 C12,361 12,348.5 12,333.91666666666663 C12,319.3333333333333 12,302.66666666666663 12,288.91666666666663 C12,275.16666666666663 12,264.3333333333333 12,253.5 C12,242.66666666666666 12,231.83333333333331 12,215.58333333333331 C12,199.33333333333331 12,177.66666666666666 12,162.66666666666666 C12,147.66666666666666 12,139.33333333333331 12,131 C12,122.66666666666666 12,114.33333333333333 12,106.41666666666666 C12,98.5 12,91 288.6921875,76" class="clickable"/></g><path d="M 288.6921875,76 L 295.6921875,73.5 L 295.6921875,78.5 Z" transform="rotate(176.89692635862897 288.6921875 76)" class="arrow" style="fill:rgb(48, 48, 48);stroke-linejoin:miter;stroke-miterlimit:2;"/></g><g id="sprotty_fsm$state_q/state$CheckEscRespLo_to_fsm$state_q/state$CheckEscRespHi" class="sprotty-edge transition" style="fill:none;stroke:rgb(48, 48, 48);stroke-linejoin:round;"><g><path d=" M265.578125,276 C265.578125,276 265.02812500000005,286 260.078125,296"/><path d=" M265.578125,276 C265.578125,276 265.02812500000005,286 260.078125,296" class="clickable"/></g><path d="M 260.078125,296 L 267.078125,293.5 L 267.078125,298.5 Z" transform="rotate(-63.66458999611844 260.078125 296)" class="arrow" style="fill:rgb(48, 48, 48);stroke-linejoin:miter;stroke-miterlimit:2;"/></g><g id="sprotty_fsm$state_q/state$CheckEscRespLo_to_fsm$state_q/state$Idle" class="sprotty-edge transition" style="fill:none;stroke:rgb(48, 48, 48);stroke-linejoin:round;"><g><path d=" M334.1875,276 C324.128125,286 324.128125,291 324.128125,296.8333333333333 C324.128125,302.66666666666663 324.128125,309.3333333333333 324.128125,316 C324.128125,322.66666666666663 324.128125,329.3333333333333 324.128125,338.91666666666663 C324.128125,348.5 324.128125,361 232.59791666666663,386"/><path d=" M334.1875,276 C324.128125,286 324.128125,291 324.128125,296.8333333333333 C324.128125,302.66666666666663 324.128125,309.3333333333333 324.128125,316 C324.128125,322.66666666666663 324.128125,329.3333333333333 324.128125,338.91666666666663 C324.128125,348.5 324.128125,361 232.59791666666663,386" class="clickable"/></g><path d="M 232.59791666666663,386 L 239.59791666666663,383.5 L 239.59791666666663,388.5 Z" transform="rotate(-15.27679993664572 232.59791666666663 386)" class="arrow" style="fill:rgb(48, 48, 48);stroke-linejoin:miter;stroke-miterlimit:2;"/></g><g id="sprotty_fsm$state_q/state$CheckEscRespHi_to_fsm$state_q/state$CheckEscRespLo" class="sprotty-edge transition" style="fill:none;stroke:rgb(48, 48, 48);stroke-linejoin:round;"><g><path d=" M287.103125,296 C298.60484375,286 299.8828125,276 299.8828125,276"/><path d=" M287.103125,296 C298.60484375,286 299.8828125,276 299.8828125,276" class="clickable"/></g><path d="M 299.8828125,276 L 306.8828125,273.5 L 306.8828125,278.5 Z" transform="rotate(97.28274541716345 299.8828125 276)" class="arrow" style="fill:rgb(48, 48, 48);stroke-linejoin:miter;stroke-miterlimit:2;"/></g><g id="sprotty_fsm$state_q/state$CheckEscRespHi_to_fsm$state_q/state$Idle" class="sprotty-edge transition" style="fill:none;stroke:rgb(48, 48, 48);stroke-linejoin:round;"><g><path d=" M269.0864583333333,336 C269.0864583333333,336 264.43760416666663,361 222.59791666666663,386"/><path d=" M269.0864583333333,336 C269.0864583333333,336 264.43760416666663,361 222.59791666666663,386" class="clickable"/></g><path d="M 222.59791666666663,386 L 229.59791666666663,383.5 L 229.59791666666663,388.5 Z" transform="rotate(-30.859111138008373 222.59791666666663 386)" class="arrow" style="fill:rgb(48, 48, 48);stroke-linejoin:miter;stroke-miterlimit:2;"/></g><g id="sprotty_fsm$state_q/state$CheckPingResp0_to_fsm$state_q/state$CheckPingResp1" class="sprotty-edge transition" style="fill:none;stroke:rgb(48, 48, 48);stroke-linejoin:round;"><g><path d=" M315.9578125,76 C315.9578125,76 229.84187499999996,91 220.2734375,106"/><path d=" M315.9578125,76 C315.9578125,76 229.84187499999996,91 220.2734375,106" class="clickable"/></g><path d="M 220.2734375,106 L 227.2734375,103.5 L 227.2734375,108.5 Z" transform="rotate(-57.466366369112144 220.2734375 106)" class="arrow" style="fill:rgb(48, 48, 48);stroke-linejoin:miter;stroke-miterlimit:2;"/></g><g id="sprotty_fsm$state_q/state$CheckPingResp0_to_fsm$state_q/state$CheckEscRespLo" class="sprotty-edge transition" style="fill:none;stroke:rgb(48, 48, 48);stroke-linejoin:round;"><g><path d=" M343.2234375,76 C434.2,91 434.2,98.5 434.19999999999993,106.41666666666669 C434.19999999999993,114.33333333333334 434.19999999999993,122.66666666666666 434.19999999999993,131 C434.2,139.33333333333331 434.2,147.66666666666666 434.2,160.16666666666669 C434.19999999999993,172.66666666666669 434.2,189.33333333333337 434.2,201.4166666666667 C434.2,213.5 434.2,221 322.7526041666667,236"/><path d=" M343.2234375,76 C434.2,91 434.2,98.5 434.19999999999993,106.41666666666669 C434.19999999999993,114.33333333333334 434.19999999999993,122.66666666666666 434.19999999999993,131 C434.2,139.33333333333331 434.2,147.66666666666666 434.2,160.16666666666669 C434.19999999999993,172.66666666666669 434.2,189.33333333333337 434.2,201.4166666666667 C434.2,213.5 434.2,221 322.7526041666667,236" class="clickable"/></g><path d="M 322.7526041666667,236 L 329.7526041666667,233.5 L 329.7526041666667,238.5 Z" transform="rotate(-7.665524672991504 322.7526041666667 236)" class="arrow" style="fill:rgb(48, 48, 48);stroke-linejoin:miter;stroke-miterlimit:2;"/></g><g id="sprotty_fsm$state_q/state$CheckPingResp0_to_fsm$state_q/state$Idle" class="sprotty-edge transition" style="fill:none;stroke:rgb(48, 48, 48);stroke-linejoin:round;"><g><path d=" M370.4890625,76 C485.2,91 485.2,98.5 485.2,106.41666666666666 C485.2,114.33333333333333 485.2,122.66666666666666 485.2,131 C485.2,139.33333333333331 485.2,147.66666666666666 485.2,162.66666666666666 C485.2,177.66666666666666 485.2,199.33333333333331 485.2,215.58333333333331 C485.2,231.83333333333331 485.2,242.66666666666666 485.2,253.5 C485.2,264.3333333333333 485.2,275.16666666666663 485.2,288.91666666666663 C485.2,302.66666666666663 485.2,319.3333333333333 485.2,333.91666666666663 C485.2,348.5 485.2,361 252.59791666666663,386"/><path d=" M370.4890625,76 C485.2,91 485.2,98.5 485.2,106.41666666666666 C485.2,114.33333333333333 485.2,122.66666666666666 485.2,131 C485.2,139.33333333333331 485.2,147.66666666666666 485.2,162.66666666666666 C485.2,177.66666666666666 485.2,199.33333333333331 485.2,215.58333333333331 C485.2,231.83333333333331 485.2,242.66666666666666 485.2,253.5 C485.2,264.3333333333333 485.2,275.16666666666663 485.2,288.91666666666663 C485.2,302.66666666666663 485.2,319.3333333333333 485.2,333.91666666666663 C485.2,348.5 485.2,361 252.59791666666663,386" class="clickable"/></g><path d="M 252.59791666666663,386 L 259.5979166666666,383.5 L 259.5979166666666,388.5 Z" transform="rotate(-6.1345830007997915 252.59791666666663 386)" class="arrow" style="fill:rgb(48, 48, 48);stroke-linejoin:miter;stroke-miterlimit:2;"/></g><g id="sprotty_fsm$state_q/state$CheckPingResp1_to_fsm$state_q/state$CheckPingResp2" class="sprotty-edge transition" style="fill:none;stroke:rgb(48, 48, 48);stroke-linejoin:round;"><g><path d=" M186.21875,146 C186.21875,146 134.0275390625,156 128.228515625,166"/><path d=" M186.21875,146 C186.21875,146 134.0275390625,156 128.228515625,166" class="clickable"/></g><path d="M 128.228515625,166 L 135.228515625,163.5 L 135.228515625,168.5 Z" transform="rotate(-59.890453864965814 128.228515625 166)" class="arrow" style="fill:rgb(48, 48, 48);stroke-linejoin:miter;stroke-miterlimit:2;"/></g><g id="sprotty_fsm$state_q/state$CheckPingResp1_to_fsm$state_q/state$CheckEscRespHi" class="sprotty-edge transition" style="fill:none;stroke:rgb(48, 48, 48);stroke-linejoin:round;"><g><path d=" M220.2734375,146 C220.2734375,156 220.2734375,172.25 220.2734375,185.79166666666666 C220.2734375,199.33333333333331 220.2734375,210.16666666666666 220.2734375,224.75 C220.2734375,239.33333333333331 220.2734375,257.66666666666663 220.2734375,269.3333333333333 C220.2734375,281 220.2734375,286 233.05312499999997,296"/><path d=" M220.2734375,146 C220.2734375,156 220.2734375,172.25 220.2734375,185.79166666666666 C220.2734375,199.33333333333331 220.2734375,210.16666666666666 220.2734375,224.75 C220.2734375,239.33333333333331 220.2734375,257.66666666666663 220.2734375,269.3333333333333 C220.2734375,281 220.2734375,286 233.05312499999997,296" class="clickable"/></g><path d="M 233.05312499999997,296 L 240.05312499999997,293.5 L 240.05312499999997,298.5 Z" transform="rotate(-141.95711321001187 233.05312499999997 296)" class="arrow" style="fill:rgb(48, 48, 48);stroke-linejoin:miter;stroke-miterlimit:2;"/></g><g id="sprotty_fsm$state_q/state$CheckPingResp1_to_fsm$state_q/state$Idle" class="sprotty-edge transition" style="fill:none;stroke:rgb(48, 48, 48);stroke-linejoin:round;"><g><path d=" M254.328125,146 C383.2,156 383.2,160.99999999999997 383.2,168.0833333333333 C383.20000000000005,175.16666666666666 383.2,184.33333333333331 383.2,193.5 C383.20000000000005,202.66666666666669 383.2,211.83333333333334 383.2,227.25 C383.2,242.66666666666666 383.20000000000005,264.3333333333333 383.20000000000005,279.33333333333337 C383.20000000000005,294.33333333333337 383.2,302.6666666666667 383.2,311 C383.2,319.3333333333333 383.2,327.66666666666663 383.2,338.08333333333326 C383.2,348.5 383.2,361 242.59791666666663,386"/><path d=" M254.328125,146 C383.2,156 383.2,160.99999999999997 383.2,168.0833333333333 C383.20000000000005,175.16666666666666 383.2,184.33333333333331 383.2,193.5 C383.20000000000005,202.66666666666669 383.2,211.83333333333334 383.2,227.25 C383.2,242.66666666666666 383.20000000000005,264.3333333333333 383.20000000000005,279.33333333333337 C383.20000000000005,294.33333333333337 383.2,302.6666666666667 383.2,311 C383.2,319.3333333333333 383.2,327.66666666666663 383.2,338.08333333333326 C383.2,348.5 383.2,361 242.59791666666663,386" class="clickable"/></g><path d="M 242.59791666666663,386 L 249.59791666666663,383.5 L 249.59791666666663,388.5 Z" transform="rotate(-10.082207314241712 242.59791666666663 386)" class="arrow" style="fill:rgb(48, 48, 48);stroke-linejoin:miter;stroke-miterlimit:2;"/></g><g id="sprotty_fsm$state_q/state$CheckPingResp2_to_fsm$state_q/state$CheckPingResp3" class="sprotty-edge transition" style="fill:none;stroke:rgb(48, 48, 48);stroke-linejoin:round;"><g><path d=" M128.228515625,206 C128.228515625,206 140.7212890625,221 142.109375,236"/><path d=" M128.228515625,206 C128.228515625,206 140.7212890625,221 142.109375,236" class="clickable"/></g><path d="M 142.109375,236 L 149.109375,233.5 L 149.109375,238.5 Z" transform="rotate(-95.28704021352263 142.109375 236)" class="arrow" style="fill:rgb(48, 48, 48);stroke-linejoin:miter;stroke-miterlimit:2;"/></g><g id="sprotty_fsm$state_q/state$CheckPingResp2_to_fsm$state_q/state$CheckEscRespLo" class="sprotty-edge transition" style="fill:none;stroke:rgb(48, 48, 48);stroke-linejoin:round;"><g><path d=" M162.310546875,206 C162.310546875,206 265.5427734375,221 277.0130208333333,236"/><path d=" M162.310546875,206 C162.310546875,206 265.5427734375,221 277.0130208333333,236" class="clickable"/></g><path d="M 277.0130208333333,236 L 284.0130208333333,233.5 L 284.0130208333333,238.5 Z" transform="rotate(-127.4045351109761 277.0130208333333 236)" class="arrow" style="fill:rgb(48, 48, 48);stroke-linejoin:miter;stroke-miterlimit:2;"/></g><g id="sprotty_fsm$state_q/state$CheckPingResp2_to_fsm$state_q/state$Idle" class="sprotty-edge transition" style="fill:none;stroke:rgb(48, 48, 48);stroke-linejoin:round;"><g><path d=" M94.146484375,206 C63,221 63,228.5 62.99999999999999,236.41666666666669 C62.99999999999999,244.33333333333334 62.99999999999999,252.66666666666663 62.99999999999999,260.99999999999994 C63,269.3333333333333 63.000000000000014,277.66666666666663 63.000000000000014,290.1666666666667 C63,302.6666666666667 63.000000000000014,319.33333333333337 63.000000000000014,333.91666666666674 C63.000000000000014,348.50000000000006 63,361 192.59791666666663,386"/><path d=" M94.146484375,206 C63,221 63,228.5 62.99999999999999,236.41666666666669 C62.99999999999999,244.33333333333334 62.99999999999999,252.66666666666663 62.99999999999999,260.99999999999994 C63,269.3333333333333 63.000000000000014,277.66666666666663 63.000000000000014,290.1666666666667 C63,302.6666666666667 63.000000000000014,319.33333333333337 63.000000000000014,333.91666666666674 C63.000000000000014,348.50000000000006 63,361 192.59791666666663,386" class="clickable"/></g><path d="M 192.59791666666663,386 L 199.59791666666663,383.5 L 199.59791666666663,388.5 Z" transform="rotate(-169.08151061408321 192.59791666666663 386)" class="arrow" style="fill:rgb(48, 48, 48);stroke-linejoin:miter;stroke-miterlimit:2;"/></g><g id="sprotty_fsm$state_q/state$CheckPingResp3_to_fsm$state_q/state$Idle" class="sprotty-edge transition" style="fill:none;stroke:rgb(48, 48, 48);stroke-linejoin:round;"><g><path d=" M119.40625,276 C119.40625,286 119.40625,298.5 119.40625,308.9166666666667 C119.40625000000001,319.33333333333337 119.40624999999999,327.66666666666663 119.40624999999999,338.08333333333326 C119.40624999999999,348.49999999999994 119.40625,361 202.59791666666663,386"/><path d=" M119.40625,276 C119.40625,286 119.40625,298.5 119.40625,308.9166666666667 C119.40625000000001,319.33333333333337 119.40624999999999,327.66666666666663 119.40624999999999,338.08333333333326 C119.40624999999999,348.49999999999994 119.40625,361 202.59791666666663,386" class="clickable"/></g><path d="M 202.59791666666663,386 L 209.59791666666663,383.5 L 209.59791666666663,388.5 Z" transform="rotate(-163.27390577481586 202.59791666666663 386)" class="arrow" style="fill:rgb(48, 48, 48);stroke-linejoin:miter;stroke-miterlimit:2;"/></g><g id="sprotty_fsm$state_q/state$CheckPingResp3_to_fsm$state_q/state$CheckEscRespHi" class="sprotty-edge transition" style="fill:none;stroke:rgb(48, 48, 48);stroke-linejoin:round;"><g><path d=" M164.8125,276 C164.8125,276 168.9340625,286 206.028125,296"/><path d=" M164.8125,276 C164.8125,276 168.9340625,286 206.028125,296" class="clickable"/></g><path d="M 206.028125,296 L 213.028125,293.5 L 213.028125,298.5 Z" transform="rotate(-164.9125934087355 206.028125 296)" class="arrow" style="fill:rgb(48, 48, 48);stroke-linejoin:miter;stroke-miterlimit:2;"/></g></g></g></svg>