<svg xmlns="http://www.w3.org/2000/svg" id="sprotty_root" class="sprotty-graph sprotty-state-machine statemachine" style="font-family:&quot;Noto Sans&quot;, Helvetica, Arial, sans-serif;perspective-origin:0px 0px;transform-origin:0px 0px;" version="1.1" viewBox="10 10 134.015625 278" width="134.015625" height="278"><g transform="scale(1) translate(0,0)"><g id="sprotty_fsm$state_q" transform="translate(15, 15)" class="statemachine"><g class="sprotty-block" style="fill:rgb(255, 255, 255);stroke:rgb(48, 48, 48);stroke-dasharray:0px;"><rect x="0" y="0" rx="1" ry="1" width="124.015625" height="268"/><text x="62.0078125" y="12" class="sprotty-block-name" style="cursor:pointer;font-weight:700;perspective-origin:62px 0px;fill:rgb(48, 48, 48);stroke:rgba(0, 0, 0, 0);dominant-baseline:middle;text-anchor:middle;">state_q</text><line x1="0" y1="20" x2="124.015625" y2="20"/></g><g id="sprotty_fsm$state_q/state$Idle" transform="translate(59.265625, 156)" class="state"><ellipse cx="20.09375" cy="20" rx="20.09375" ry="20" class="sprotty-node clickable" style="fill:rgb(255, 255, 255);stroke:rgb(48, 48, 48);"/><text class="clickable sprotty-label state" id="sprotty_fsm$state_q/state$Idle/label" transform="translate(6, 8) translate(14.03125, 19)" style="cursor:default;perspective-origin:0.0625px 0px;fill:rgb(48, 48, 48);text-anchor:middle;">Idle</text></g><g id="sprotty_fsm$state_q/state$Pause1" transform="translate(46.703125, 96)" class="state"><ellipse cx="32.65625" cy="20" rx="32.65625" ry="20" class="sprotty-node clickable" style="fill:rgb(255, 255, 255);stroke:rgb(48, 48, 48);"/><text class="clickable sprotty-label state" id="sprotty_fsm$state_q/state$Pause1/label" transform="translate(6, 8) translate(26.65625, 19)" style="cursor:default;perspective-origin:0px 0px;fill:rgb(48, 48, 48);text-anchor:middle;">Pause1</text></g><g id="sprotty_fsm$state_q/state$HsAckWait" transform="translate(12, 216)" class="state"><ellipse cx="45.53125" cy="20" rx="45.53125" ry="20" class="sprotty-node clickable" style="fill:rgb(255, 255, 255);stroke:rgb(48, 48, 48);"/><text class="clickable sprotty-label state" id="sprotty_fsm$state_q/state$HsAckWait/label" transform="translate(6, 8) translate(39.53125, 19)" style="cursor:default;perspective-origin:0px 0px;fill:rgb(48, 48, 48);text-anchor:middle;">HsAckWait</text></g><g id="sprotty_fsm$state_q/state$Pause0" transform="translate(24.8125, 36)" class="state"><ellipse cx="32.71875" cy="20" rx="32.71875" ry="20" class="sprotty-node clickable" style="fill:rgb(255, 255, 255);stroke:rgb(48, 48, 48);"/><text class="clickable sprotty-label state" id="sprotty_fsm$state_q/state$Pause0/label" transform="translate(6, 8) translate(26.65625, 19)" style="cursor:default;perspective-origin:0.0625px 0px;fill:rgb(48, 48, 48);text-anchor:middle;">Pause0</text></g><g id="sprotty_fsm$state_q/state$Idle_to_fsm$state_q/state$HsAckWait" class="sprotty-edge transition" style="fill:none;stroke:rgb(48, 48, 48);stroke-linejoin:round;"><g><path d=" M79.359375,196 C79.359375,196 78.69427083333333,206 72.70833333333334,216"/><path d=" M79.359375,196 C79.359375,196 78.69427083333333,206 72.70833333333334,216" class="clickable"/></g><path d="M 72.70833333333334,216 L 79.70833333333334,213.5 L 79.70833333333334,218.5 Z" transform="rotate(-59.0955244822981 72.70833333333334 216)" class="arrow" style="fill:rgb(48, 48, 48);stroke-linejoin:miter;stroke-miterlimit:2;"/></g><g id="sprotty_fsm$state_q/state$HsAckWait_to_fsm$state_q/state$Pause0" class="sprotty-edge transition" style="fill:none;stroke:rgb(48, 48, 48);stroke-linejoin:round;"><g><path d=" M42.35416666666667,216 C35.703125,206 35.703125,201 35.703125,190.1666666666667 C35.703125,179.33333333333337 35.703125,162.66666666666669 35.703125,150.16666666666669 C35.703125,137.66666666666669 35.703125,129.33333333333331 35.703125,121 C35.703125,112.66666666666666 35.703125,104.33333333333334 35.703125,97.66666666666669 C35.703125,91 35.703125,86 46.625,76"/><path d=" M42.35416666666667,216 C35.703125,206 35.703125,201 35.703125,190.1666666666667 C35.703125,179.33333333333337 35.703125,162.66666666666669 35.703125,150.16666666666669 C35.703125,137.66666666666669 35.703125,129.33333333333331 35.703125,121 C35.703125,112.66666666666666 35.703125,104.33333333333334 35.703125,97.66666666666669 C35.703125,91 35.703125,86 46.625,76" class="clickable"/></g><path d="M 46.625,76 L 53.625,73.5 L 53.625,78.5 Z" transform="rotate(137.5229766941747 46.625 76)" class="arrow" style="fill:rgb(48, 48, 48);stroke-linejoin:miter;stroke-miterlimit:2;"/></g><g id="sprotty_fsm$state_q/state$Pause0_to_fsm$state_q/state$Pause1" class="sprotty-edge transition" style="fill:none;stroke:rgb(48, 48, 48);stroke-linejoin:round;"><g><path d=" M68.4375,76 C68.4375,76 78.2671875,86 79.359375,96"/><path d=" M68.4375,76 C68.4375,76 78.2671875,86 79.359375,96" class="clickable"/></g><path d="M 79.359375,96 L 86.359375,93.5 L 86.359375,98.5 Z" transform="rotate(-96.23306756385125 79.359375 96)" class="arrow" style="fill:rgb(48, 48, 48);stroke-linejoin:miter;stroke-miterlimit:2;"/></g><g id="sprotty_fsm$state_q/state$Pause1_to_fsm$state_q/state$Idle" class="sprotty-edge transition" style="fill:none;stroke:rgb(48, 48, 48);stroke-linejoin:round;"><g><path d=" M79.359375,136 C79.359375,136 79.359375,146 79.359375,156"/><path d=" M79.359375,136 C79.359375,136 79.359375,146 79.359375,156" class="clickable"/></g><path d="M 79.359375,156 L 86.359375,153.5 L 86.359375,158.5 Z" transform="rotate(-90 79.359375 156)" class="arrow" style="fill:rgb(48, 48, 48);stroke-linejoin:miter;stroke-miterlimit:2;"/></g></g></g></svg>