<svg xmlns="http://www.w3.org/2000/svg" id="sprotty_root" class="sprotty-graph sprotty-state-machine statemachine" style="font-family:&quot;Noto Sans&quot;, Helvetica, Arial, sans-serif;perspective-origin:0px 0px;transform-origin:0px 0px;" version="1.1" viewBox="10 10 376.62109375 288" width="376.62109375" height="288"><g transform="scale(1) translate(0,0)"><g id="sprotty_fsm$state_q" transform="translate(15, 15)" class="statemachine"><g class="sprotty-block" style="fill:rgb(255, 255, 255);stroke:rgb(48, 48, 48);stroke-dasharray:0px;"><rect x="0" y="0" rx="1" ry="1" width="366.62109375" height="278"/><text x="183.310546875" y="12" class="sprotty-block-name" style="cursor:pointer;font-weight:700;perspective-origin:183.312px 0px;fill:rgb(48, 48, 48);stroke:rgba(0, 0, 0, 0);dominant-baseline:middle;text-anchor:middle;">state_q</text><line x1="0" y1="20" x2="366.62109375" y2="20"/></g><g id="sprotty_fsm$state_q/state$InitSt" transform="translate(134.90625, 96)" class="state"><ellipse cx="26.03125" cy="20" rx="26.03125" ry="20" class="sprotty-node clickable" style="fill:rgb(255, 255, 255);stroke:rgb(48, 48, 48);"/><text class="clickable sprotty-label state" id="sprotty_fsm$state_q/state$InitSt/label" transform="translate(6, 8) translate(20.03125, 19)" style="cursor:default;perspective-origin:0px 0px;fill:rgb(48, 48, 48);text-anchor:middle;">InitSt</text></g><g id="sprotty_fsm$state_q/state$IdleSt" transform="translate(160.64453125, 166)" class="state"><ellipse cx="27.421875" cy="20" rx="27.421875" ry="20" class="sprotty-node clickable" style="fill:rgb(255, 255, 255);stroke:rgb(48, 48, 48);"/><text class="clickable sprotty-label state" id="sprotty_fsm$state_q/state$IdleSt/label" transform="translate(6, 8) translate(21.421875, 19)" style="cursor:default;perspective-origin:0px 0px;fill:rgb(48, 48, 48);text-anchor:middle;">IdleSt</text></g><g id="sprotty_fsm$state_q/state$WriteSt" transform="translate(226.49609375, 96)" class="state"><ellipse cx="33.0625" cy="20" rx="33.0625" ry="20" class="sprotty-node clickable" style="fill:rgb(255, 255, 255);stroke:rgb(48, 48, 48);"/><text class="clickable sprotty-label state" id="sprotty_fsm$state_q/state$WriteSt/label" transform="translate(6, 8) translate(27.0625, 19)" style="cursor:default;perspective-origin:0px 0px;fill:rgb(48, 48, 48);text-anchor:middle;">WriteSt</text></g><g id="sprotty_fsm$state_q/state$ReadWaitSt" transform="translate(12, 96)" class="state"><ellipse cx="48.953125" cy="20" rx="48.953125" ry="20" class="sprotty-node clickable" style="fill:rgb(255, 255, 255);stroke:rgb(48, 48, 48);"/><text class="clickable sprotty-label state" id="sprotty_fsm$state_q/state$ReadWaitSt/label" transform="translate(6, 8) translate(42.953125, 19)" style="cursor:default;perspective-origin:0px 0px;fill:rgb(48, 48, 48);text-anchor:middle;">ReadWaitSt</text></g><g id="sprotty_fsm$state_q/state$ResetSt" transform="translate(126.828125, 36)" class="state"><ellipse cx="34.109375" cy="20" rx="34.109375" ry="20" class="sprotty-node clickable" style="fill:rgb(255, 255, 255);stroke:rgb(48, 48, 48);"/><text class="clickable sprotty-label state" id="sprotty_fsm$state_q/state$ResetSt/label" transform="translate(6, 8) translate(28.109375, 19)" style="cursor:default;perspective-origin:0px 0px;fill:rgb(48, 48, 48);text-anchor:middle;">ResetSt</text></g><g id="sprotty_fsm$state_q/state$WriteCheckSt" transform="translate(236.3828125, 226)" class="state"><ellipse cx="56.125" cy="20" rx="56.125" ry="20" class="sprotty-node clickable" style="fill:rgb(255, 255, 255);stroke:rgb(48, 48, 48);"/><text class="clickable sprotty-label state" id="sprotty_fsm$state_q/state$WriteCheckSt/label" transform="translate(6, 8) translate(50.125, 19)" style="cursor:default;perspective-origin:0px 0px;fill:rgb(48, 48, 48);text-anchor:middle;">WriteCheckSt</text></g><g id="sprotty_fsm$state_q/state$ReadSt" transform="translate(41.85546875, 226)" class="state"><ellipse cx="32.359375" cy="20" rx="32.359375" ry="20" class="sprotty-node clickable" style="fill:rgb(255, 255, 255);stroke:rgb(48, 48, 48);"/><text class="clickable sprotty-label state" id="sprotty_fsm$state_q/state$ReadSt/label" transform="translate(6, 8) translate(26.359375, 19)" style="cursor:default;perspective-origin:0px 0px;fill:rgb(48, 48, 48);text-anchor:middle;">ReadSt</text></g><g id="sprotty_fsm$state_q/state$WriteWaitSt" transform="translate(228.13671875, 36)" class="state"><ellipse cx="49.765625" cy="20" rx="49.765625" ry="20" class="sprotty-node clickable" style="fill:rgb(255, 255, 255);stroke:rgb(48, 48, 48);"/><text class="clickable sprotty-label state" id="sprotty_fsm$state_q/state$WriteWaitSt/label" transform="translate(6, 8) translate(43.765625, 19)" style="cursor:default;perspective-origin:0px 0px;fill:rgb(48, 48, 48);text-anchor:middle;">WriteWaitSt</text></g><g id="sprotty_fsm$state_q/state$ResetSt_to_fsm$state_q/state$InitSt" class="sprotty-edge transition" style="fill:none;stroke:rgb(48, 48, 48);stroke-linejoin:round;"><g><path d=" M160.9375,76 C160.9375,76 160.9375,86 160.9375,96"/><path d=" M160.9375,76 C160.9375,76 160.9375,86 160.9375,96" class="clickable"/></g><path d="M 160.9375,96 L 167.9375,93.5 L 167.9375,98.5 Z" transform="rotate(-90 160.9375 96)" class="arrow" style="fill:rgb(48, 48, 48);stroke-linejoin:miter;stroke-miterlimit:2;"/></g><g id="sprotty_fsm$state_q/state$InitSt_to_fsm$state_q/state$IdleSt" class="sprotty-edge transition" style="fill:none;stroke:rgb(48, 48, 48);stroke-linejoin:round;"><g><path d=" M160.9375,136 C160.9375,136 163.101953125,151 182.58203125,166"/><path d=" M160.9375,136 C160.9375,136 163.101953125,151 182.58203125,166" class="clickable"/></g><path d="M 182.58203125,166 L 189.58203125,163.5 L 189.58203125,168.5 Z" transform="rotate(-142.4031013451005 182.58203125 166)" class="arrow" style="fill:rgb(48, 48, 48);stroke-linejoin:miter;stroke-miterlimit:2;"/></g><g id="sprotty_fsm$state_q/state$IdleSt_to_fsm$state_q/state$ReadSt" class="sprotty-edge transition" style="fill:none;stroke:rgb(48, 48, 48);stroke-linejoin:round;"><g><path d=" M178.92578125,206 C178.92578125,206 170.07265625,216 90.39453125,226"/><path d=" M178.92578125,206 C178.92578125,206 170.07265625,216 90.39453125,226" class="clickable"/></g><path d="M 90.39453125,226 L 97.39453125,223.5 L 97.39453125,228.5 Z" transform="rotate(-7.153501621344679 90.39453125 226)" class="arrow" style="fill:rgb(48, 48, 48);stroke-linejoin:miter;stroke-miterlimit:2;"/></g><g id="sprotty_fsm$state_q/state$IdleSt_to_fsm$state_q/state$WriteCheckSt" class="sprotty-edge transition" style="fill:none;stroke:rgb(48, 48, 48);stroke-linejoin:round;"><g><path d=" M197.20703125,206 C197.20703125,206 203.930859375,216 264.4453125,226"/><path d=" M197.20703125,206 C197.20703125,206 203.930859375,216 264.4453125,226" class="clickable"/></g><path d="M 264.4453125,226 L 271.4453125,223.5 L 271.4453125,228.5 Z" transform="rotate(-170.6166834832967 264.4453125 226)" class="arrow" style="fill:rgb(48, 48, 48);stroke-linejoin:miter;stroke-miterlimit:2;"/></g><g id="sprotty_fsm$state_q/state$ReadSt_to_fsm$state_q/state$ReadWaitSt" class="sprotty-edge transition" style="fill:none;stroke:rgb(48, 48, 48);stroke-linejoin:round;"><g><path d=" M58.03515625,226 C19.06640625,216 19.06640625,211 19.06640625,205.16666666666666 C19.06640625,199.33333333333331 19.06640625,192.66666666666666 19.06640625,186 C19.06640625,179.33333333333331 19.06640625,172.66666666666666 19.06640625,165.58333333333331 C19.06640625,158.5 19.06640625,151 36.4765625,136"/><path d=" M58.03515625,226 C19.06640625,216 19.06640625,211 19.06640625,205.16666666666666 C19.06640625,199.33333333333331 19.06640625,192.66666666666666 19.06640625,186 C19.06640625,179.33333333333331 19.06640625,172.66666666666666 19.06640625,165.58333333333331 C19.06640625,158.5 19.06640625,151 36.4765625,136" class="clickable"/></g><path d="M 36.4765625,136 L 43.4765625,133.5 L 43.4765625,138.5 Z" transform="rotate(139.25292832165334 36.4765625 136)" class="arrow" style="fill:rgb(48, 48, 48);stroke-linejoin:miter;stroke-miterlimit:2;"/></g><g id="sprotty_fsm$state_q/state$ReadWaitSt_to_fsm$state_q/state$IdleSt" class="sprotty-edge transition" style="fill:none;stroke:rgb(48, 48, 48);stroke-linejoin:round;"><g><path d=" M85.4296875,136 C85.4296875,136 94.04804687500001,151 171.61328125,166"/><path d=" M85.4296875,136 C85.4296875,136 94.04804687500001,151 171.61328125,166" class="clickable"/></g><path d="M 171.61328125,166 L 178.61328125,163.5 L 178.61328125,168.5 Z" transform="rotate(-169.05492742509094 171.61328125 166)" class="arrow" style="fill:rgb(48, 48, 48);stroke-linejoin:miter;stroke-miterlimit:2;"/></g><g id="sprotty_fsm$state_q/state$ReadWaitSt_to_fsm$state_q/state$ReadSt" class="sprotty-edge transition" style="fill:none;stroke:rgb(48, 48, 48);stroke-linejoin:round;"><g><path d=" M60.953125,136 C70.06640625,151 70.06640625,158.5 70.06640625,165.58333333333331 C70.06640625,172.66666666666666 70.06640625,179.33333333333331 70.06640625,186 C70.06640625,192.66666666666666 70.06640625,199.33333333333331 70.06640625,205.16666666666666 C70.06640625,211 70.06640625,216 74.21484375,226"/><path d=" M60.953125,136 C70.06640625,151 70.06640625,158.5 70.06640625,165.58333333333331 C70.06640625,172.66666666666666 70.06640625,179.33333333333331 70.06640625,186 C70.06640625,192.66666666666666 70.06640625,199.33333333333331 70.06640625,205.16666666666666 C70.06640625,211 70.06640625,216 74.21484375,226" class="clickable"/></g><path d="M 74.21484375,226 L 81.21484375,223.5 L 81.21484375,228.5 Z" transform="rotate(-112.53081246208242 74.21484375 226)" class="arrow" style="fill:rgb(48, 48, 48);stroke-linejoin:miter;stroke-miterlimit:2;"/></g><g id="sprotty_fsm$state_q/state$WriteCheckSt_to_fsm$state_q/state$WriteWaitSt" class="sprotty-edge transition" style="fill:none;stroke:rgb(48, 48, 48);stroke-linejoin:round;"><g><path d=" M292.5078125,226 C302.62109375,216 302.62109375,211 302.62109375,199.33333333333337 C302.62109375,187.66666666666669 302.62109375,169.33333333333334 302.62109375,155.58333333333337 C302.62109375,141.83333333333334 302.62109375,132.66666666666666 302.62109375,123.49999999999999 C302.62109375,114.33333333333331 302.62109375,105.16666666666667 302.62109375,98.08333333333334 C302.62109375,91 302.62109375,86 287.85546875,76"/><path d=" M292.5078125,226 C302.62109375,216 302.62109375,211 302.62109375,199.33333333333337 C302.62109375,187.66666666666669 302.62109375,169.33333333333334 302.62109375,155.58333333333337 C302.62109375,141.83333333333334 302.62109375,132.66666666666666 302.62109375,123.49999999999999 C302.62109375,114.33333333333331 302.62109375,105.16666666666667 302.62109375,98.08333333333334 C302.62109375,91 302.62109375,86 287.85546875,76" class="clickable"/></g><path d="M 287.85546875,76 L 294.85546875,73.5 L 294.85546875,78.5 Z" transform="rotate(34.10776933246521 287.85546875 76)" class="arrow" style="fill:rgb(48, 48, 48);stroke-linejoin:miter;stroke-miterlimit:2;"/></g><g id="sprotty_fsm$state_q/state$WriteWaitSt_to_fsm$state_q/state$IdleSt" class="sprotty-edge transition" style="fill:none;stroke:rgb(48, 48, 48);stroke-linejoin:round;"><g><path d=" M248.04296875,76 C206.08203125,86 206.08203125,91 206.08203125,96.83333333333333 C206.08203125,102.66666666666666 206.08203125,109.33333333333333 206.08203125,116 C206.08203125,122.66666666666666 206.08203125,129.33333333333331 206.08203125,136.41666666666666 C206.08203125,143.5 206.08203125,151 193.55078125,166"/><path d=" M248.04296875,76 C206.08203125,86 206.08203125,91 206.08203125,96.83333333333333 C206.08203125,102.66666666666666 206.08203125,109.33333333333333 206.08203125,116 C206.08203125,122.66666666666666 206.08203125,129.33333333333331 206.08203125,136.41666666666666 C206.08203125,143.5 206.08203125,151 193.55078125,166" class="clickable"/></g><path d="M 193.55078125,166 L 200.55078125,163.5 L 200.55078125,168.5 Z" transform="rotate(-50.12405541659743 193.55078125 166)" class="arrow" style="fill:rgb(48, 48, 48);stroke-linejoin:miter;stroke-miterlimit:2;"/></g><g id="sprotty_fsm$state_q/state$WriteWaitSt_to_fsm$state_q/state$WriteSt" class="sprotty-edge transition" style="fill:none;stroke:rgb(48, 48, 48);stroke-linejoin:round;"><g><path d=" M267.94921875,76 C267.94921875,76 260.39765625,86 259.55859375,96"/><path d=" M267.94921875,76 C267.94921875,76 260.39765625,86 259.55859375,96" class="clickable"/></g><path d="M 259.55859375,96 L 266.55859375,93.5 L 266.55859375,98.5 Z" transform="rotate(-85.20376053554881 259.55859375 96)" class="arrow" style="fill:rgb(48, 48, 48);stroke-linejoin:miter;stroke-miterlimit:2;"/></g><g id="sprotty_fsm$state_q/state$WriteWaitSt_to_fsm$state_q/state$WriteCheckSt" class="sprotty-edge transition" style="fill:none;stroke:rgb(48, 48, 48);stroke-linejoin:round;"><g><path d=" M307.76171875,76 C353.62109375,86 353.62109375,91 353.62109375,98.08333333333334 C353.62109375,105.16666666666667 353.62109375,114.33333333333331 353.62109375,123.49999999999999 C353.62109375,132.66666666666666 353.62109375,141.83333333333334 353.62109375,155.58333333333337 C353.62109375,169.33333333333334 353.62109375,187.66666666666669 353.62109375,199.33333333333337 C353.62109375,211 353.62109375,216 320.5703125,226"/><path d=" M307.76171875,76 C353.62109375,86 353.62109375,91 353.62109375,98.08333333333334 C353.62109375,105.16666666666667 353.62109375,114.33333333333331 353.62109375,123.49999999999999 C353.62109375,132.66666666666666 353.62109375,141.83333333333334 353.62109375,155.58333333333337 C353.62109375,169.33333333333334 353.62109375,187.66666666666669 353.62109375,199.33333333333337 C353.62109375,211 353.62109375,216 320.5703125,226" class="clickable"/></g><path d="M 320.5703125,226 L 327.5703125,223.5 L 327.5703125,228.5 Z" transform="rotate(-16.833962635141933 320.5703125 226)" class="arrow" style="fill:rgb(48, 48, 48);stroke-linejoin:miter;stroke-miterlimit:2;"/></g><g id="sprotty_fsm$state_q/state$WriteSt_to_fsm$state_q/state$IdleSt" class="sprotty-edge transition" style="fill:none;stroke:rgb(48, 48, 48);stroke-linejoin:round;"><g><path d=" M259.55859375,136 C259.55859375,136 254.0546875,151 204.51953125,166"/><path d=" M259.55859375,136 C259.55859375,136 254.0546875,151 204.51953125,166" class="clickable"/></g><path d="M 204.51953125,166 L 211.51953125,163.5 L 211.51953125,168.5 Z" transform="rotate(-16.84711199857163 204.51953125 166)" class="arrow" style="fill:rgb(48, 48, 48);stroke-linejoin:miter;stroke-miterlimit:2;"/></g></g></g></svg>