<svg xmlns="http://www.w3.org/2000/svg" id="sprotty_root" class="sprotty-graph sprotty-state-machine statemachine" style="font-family:&quot;Noto Sans&quot;, Helvetica, Arial, sans-serif;perspective-origin:0px 0px;transform-origin:0px 0px;" version="1.1" viewBox="10 10 230.71354166666666 288" width="230.71354166666666" height="288"><g transform="scale(1) translate(0,0)"><g id="sprotty_fsm$state_q" transform="translate(15, 15)" class="statemachine"><g class="sprotty-block" style="fill:rgb(255, 255, 255);stroke:rgb(48, 48, 48);stroke-dasharray:0px;"><rect x="0" y="0" rx="1" ry="1" width="220.71354166666666" height="278"/><text x="110.35677083333333" y="12" class="sprotty-block-name" style="cursor:pointer;font-weight:700;perspective-origin:110.359px 0px;fill:rgb(48, 48, 48);stroke:rgba(0, 0, 0, 0);dominant-baseline:middle;text-anchor:middle;">state_q</text><line x1="0" y1="20" x2="220.71354166666666" y2="20"/></g><g id="sprotty_fsm$state_q/state$EscResp" transform="translate(42.31770833333333, 156)" class="state"><ellipse cx="36.6953125" cy="20" rx="36.6953125" ry="20" class="sprotty-node clickable" style="fill:rgb(255, 255, 255);stroke:rgb(48, 48, 48);"/><text class="clickable sprotty-label state" id="sprotty_fsm$state_q/state$EscResp/label" transform="translate(6, 8) translate(30.65625, 19)" style="cursor:default;perspective-origin:0.03125px 0px;fill:rgb(48, 48, 48);text-anchor:middle;">EscResp</text></g><g id="sprotty_fsm$state_q/state$PingResp" transform="translate(50.42447916666666, 36)" class="state"><ellipse cx="40.8203125" cy="20" rx="40.8203125" ry="20" class="sprotty-node clickable" style="fill:rgb(255, 255, 255);stroke:rgb(48, 48, 48);"/><text class="clickable sprotty-label state" id="sprotty_fsm$state_q/state$PingResp/label" transform="translate(6, 8) translate(34.78125, 19)" style="cursor:default;perspective-origin:0.03125px 0px;fill:rgb(48, 48, 48);text-anchor:middle;">PingResp</text></g><g id="sprotty_fsm$state_q/state$Idle" transform="translate(85.62890625, 226)" class="state"><ellipse cx="25" cy="20" rx="25" ry="20" class="sprotty-node clickable" style="fill:rgb(255, 255, 255);stroke:rgb(48, 48, 48);"/><text class="clickable sprotty-label state" id="sprotty_fsm$state_q/state$Idle/label" transform="translate(10.90625, 8) translate(14.03125, 19)" style="cursor:default;perspective-origin:0.0625px 0px;fill:rgb(48, 48, 48);text-anchor:middle;">Idle</text></g><g id="sprotty_fsm$state_q/state$SigInt" transform="translate(153.24479166666666, 156)" class="state"><ellipse cx="27.734375" cy="20" rx="27.734375" ry="20" class="sprotty-node clickable" style="fill:rgb(255, 255, 255);stroke:rgb(48, 48, 48);"/><text class="clickable sprotty-label state" id="sprotty_fsm$state_q/state$SigInt/label" transform="translate(6, 8) translate(21.734375, 19)" style="cursor:default;perspective-origin:0px 0px;fill:rgb(48, 48, 48);text-anchor:middle;">SigInt</text></g><g id="sprotty_fsm$state_q/state$Check" transform="translate(12, 96)" class="state"><ellipse cx="28.9765625" cy="20" rx="28.9765625" ry="20" class="sprotty-node clickable" style="fill:rgb(255, 255, 255);stroke:rgb(48, 48, 48);"/><text class="clickable sprotty-label state" id="sprotty_fsm$state_q/state$Check/label" transform="translate(6, 8) translate(22.890625, 19)" style="cursor:default;perspective-origin:0.078125px 0px;fill:rgb(48, 48, 48);text-anchor:middle;">Check</text></g><g id="sprotty_fsm$state_q/state$Idle_to_fsm$state_q/state$Check" class="sprotty-edge transition" style="fill:none;stroke:rgb(48, 48, 48);stroke-linejoin:round;"><g><path d=" M95.62890625,226 C31.31770833333334,211 31.317708333333336,203.49999999999997 31.317708333333336,195.58333333333331 C31.317708333333336,187.66666666666666 31.317708333333336,179.33333333333334 31.317708333333336,168.91666666666669 C31.317708333333336,158.5 31.317708333333336,146 31.317708333333336,136"/><path d=" M95.62890625,226 C31.31770833333334,211 31.317708333333336,203.49999999999997 31.317708333333336,195.58333333333331 C31.317708333333336,187.66666666666666 31.317708333333336,179.33333333333334 31.317708333333336,168.91666666666669 C31.317708333333336,158.5 31.317708333333336,146 31.317708333333336,136" class="clickable"/></g><path d="M 31.317708333333336,136 L 38.317708333333336,133.5 L 38.317708333333336,138.5 Z" transform="rotate(90 31.317708333333336 136)" class="arrow" style="fill:rgb(48, 48, 48);stroke-linejoin:miter;stroke-miterlimit:2;"/></g><g id="sprotty_fsm$state_q/state$Check_to_fsm$state_q/state$PingResp" class="sprotty-edge transition" style="fill:none;stroke:rgb(48, 48, 48);stroke-linejoin:round;"><g><path d=" M40.9765625,96 C43.96236979166667,86 70.83463541666666,76 70.83463541666666,76"/><path d=" M40.9765625,96 C43.96236979166667,86 70.83463541666666,76 70.83463541666666,76" class="clickable"/></g><path d="M 70.83463541666666,76 L 77.83463541666666,73.5 L 77.83463541666666,78.5 Z" transform="rotate(159.58821167306758 70.83463541666666 76)" class="arrow" style="fill:rgb(48, 48, 48);stroke-linejoin:miter;stroke-miterlimit:2;"/></g><g id="sprotty_fsm$state_q/state$Check_to_fsm$state_q/state$EscResp" class="sprotty-edge transition" style="fill:none;stroke:rgb(48, 48, 48);stroke-linejoin:round;"><g><path d=" M50.63541666666667,136 C50.63541666666667,136 58.708333333333336,146 66.78125,156"/><path d=" M50.63541666666667,136 C50.63541666666667,136 58.708333333333336,146 66.78125,156" class="clickable"/></g><path d="M 66.78125,156 L 73.78125,153.5 L 73.78125,158.5 Z" transform="rotate(-128.91364865441716 66.78125 156)" class="arrow" style="fill:rgb(48, 48, 48);stroke-linejoin:miter;stroke-miterlimit:2;"/></g><g id="sprotty_fsm$state_q/state$PingResp_to_fsm$state_q/state$Idle" class="sprotty-edge transition" style="fill:none;stroke:rgb(48, 48, 48);stroke-linejoin:round;"><g><path d=" M111.65494791666666,76 C142.24479166666666,86 142.24479166666666,91 142.24479166666666,97.66666666666669 C142.24479166666666,104.33333333333334 142.24479166666663,112.66666666666666 142.24479166666663,121 C142.24479166666666,129.33333333333331 142.24479166666666,137.66666666666669 142.24479166666666,150.16666666666669 C142.24479166666666,162.66666666666669 142.24479166666666,179.33333333333337 142.24479166666666,191.4166666666667 C142.24479166666666,203.5 142.24479166666666,211 115.62890625,226"/><path d=" M111.65494791666666,76 C142.24479166666666,86 142.24479166666666,91 142.24479166666666,97.66666666666669 C142.24479166666666,104.33333333333334 142.24479166666663,112.66666666666666 142.24479166666663,121 C142.24479166666666,129.33333333333331 142.24479166666666,137.66666666666669 142.24479166666666,150.16666666666669 C142.24479166666666,162.66666666666669 142.24479166666666,179.33333333333337 142.24479166666666,191.4166666666667 C142.24479166666666,203.5 142.24479166666666,211 115.62890625,226" class="clickable"/></g><path d="M 115.62890625,226 L 122.62890625,223.5 L 122.62890625,228.5 Z" transform="rotate(-29.404442963126833 115.62890625 226)" class="arrow" style="fill:rgb(48, 48, 48);stroke-linejoin:miter;stroke-miterlimit:2;"/></g><g id="sprotty_fsm$state_q/state$PingResp_to_fsm$state_q/state$EscResp" class="sprotty-edge transition" style="fill:none;stroke:rgb(48, 48, 48);stroke-linejoin:round;"><g><path d=" M91.24479166666666,76 C91.24479166666666,86 91.24479166666666,101 91.24479166666666,116 C91.24479166666666,131 91.24479166666666,146 91.24479166666666,156"/><path d=" M91.24479166666666,76 C91.24479166666666,86 91.24479166666666,101 91.24479166666666,116 C91.24479166666666,131 91.24479166666666,146 91.24479166666666,156" class="clickable"/></g><path d="M 91.24479166666666,156 L 98.24479166666666,153.5 L 98.24479166666666,158.5 Z" transform="rotate(-90 91.24479166666666 156)" class="arrow" style="fill:rgb(48, 48, 48);stroke-linejoin:miter;stroke-miterlimit:2;"/></g><g id="sprotty_fsm$state_q/state$EscResp_to_fsm$state_q/state$Idle" class="sprotty-edge transition" style="fill:none;stroke:rgb(48, 48, 48);stroke-linejoin:round;"><g><path d=" M79.01302083333333,196 C79.01302083333333,196 81.67460937499999,211 105.62890625,226"/><path d=" M79.01302083333333,196 C79.01302083333333,196 81.67460937499999,211 105.62890625,226" class="clickable"/></g><path d="M 105.62890625,226 L 112.62890625,223.5 L 112.62890625,228.5 Z" transform="rotate(-147.9455121794312 105.62890625 226)" class="arrow" style="fill:rgb(48, 48, 48);stroke-linejoin:miter;stroke-miterlimit:2;"/></g><g id="sprotty_fsm$state_q/state$SigInt_to_fsm$state_q/state$Idle" class="sprotty-edge transition" style="fill:none;stroke:rgb(48, 48, 48);stroke-linejoin:round;"><g><path d=" M180.97916666666666,196 C180.97916666666666,196 175.444140625,211 125.62890625,226"/><path d=" M180.97916666666666,196 C180.97916666666666,196 175.444140625,211 125.62890625,226" class="clickable"/></g><path d="M 125.62890625,226 L 132.62890625,223.5 L 132.62890625,228.5 Z" transform="rotate(-16.757715601879767 125.62890625 226)" class="arrow" style="fill:rgb(48, 48, 48);stroke-linejoin:miter;stroke-miterlimit:2;"/></g></g></g></svg>