<svg xmlns="http://www.w3.org/2000/svg" id="sprotty_root" class="sprotty-graph sprotty-state-machine statemachine" style="font-family:&quot;Noto Sans&quot;, Helvetica, Arial, sans-serif;perspective-origin:0px 0px;transform-origin:0px 0px;" version="1.1" viewBox="10 10 124.4375 158" width="124.4375" height="158"><g transform="scale(1) translate(0,0)"><g id="sprotty_fsm$flush_st" transform="translate(15, 15)" class="statemachine"><g class="sprotty-block" style="fill:rgb(255, 255, 255);stroke:rgb(48, 48, 48);stroke-dasharray:0px;"><rect x="0" y="0" rx="1" ry="1" width="114.4375" height="148"/><text x="57.21875" y="12" class="sprotty-block-name" style="cursor:pointer;font-weight:700;perspective-origin:57.3438px 0px;fill:rgb(48, 48, 48);stroke:rgba(0, 0, 0, 0);dominant-baseline:middle;text-anchor:middle;">flush_st</text><line x1="0" y1="20" x2="114.4375" y2="20"/></g><g id="sprotty_fsm$flush_st/state$FlushSend" transform="translate(12, 96)" class="state"><ellipse cx="45.21875" cy="20" rx="45.21875" ry="20" class="sprotty-node clickable" style="fill:rgb(255, 255, 255);stroke:rgb(48, 48, 48);"/><text class="clickable sprotty-label state" id="sprotty_fsm$flush_st/state$FlushSend/label" transform="translate(6, 8) translate(39.21875, 19)" style="cursor:default;perspective-origin:0px 0px;fill:rgb(48, 48, 48);text-anchor:middle;">FlushSend</text></g><g id="sprotty_fsm$flush_st/state$FlushIdle" transform="translate(16.9765625, 36)" class="state"><ellipse cx="40.2421875" cy="20" rx="40.2421875" ry="20" class="sprotty-node clickable" style="fill:rgb(255, 255, 255);stroke:rgb(48, 48, 48);"/><text class="clickable sprotty-label state" id="sprotty_fsm$flush_st/state$FlushIdle/label" transform="translate(6, 8) translate(34.171875, 19)" style="cursor:default;perspective-origin:0.0625px 0px;fill:rgb(48, 48, 48);text-anchor:middle;">FlushIdle</text></g><g id="sprotty_fsm$flush_st/state$FlushIdle_to_fsm$flush_st/state$FlushSend" class="sprotty-edge transition" style="fill:none;stroke:rgb(48, 48, 48);stroke-linejoin:round;"><g><path d=" M70.6328125,76 C70.6328125,76 71.46223958333333,86 72.29166666666666,96"/><path d=" M70.6328125,76 C70.6328125,76 71.46223958333333,86 72.29166666666666,96" class="clickable"/></g><path d="M 72.29166666666666,96 L 79.29166666666666,93.5 L 79.29166666666666,98.5 Z" transform="rotate(-94.74141416226085 72.29166666666666 96)" class="arrow" style="fill:rgb(48, 48, 48);stroke-linejoin:miter;stroke-miterlimit:2;"/></g><g id="sprotty_fsm$flush_st/state$FlushSend_to_fsm$flush_st/state$FlushIdle" class="sprotty-edge transition" style="fill:none;stroke:rgb(48, 48, 48);stroke-linejoin:round;"><g><path d=" M42.14583333333333,96 C42.975260416666664,86 43.8046875,76 43.8046875,76"/><path d=" M42.14583333333333,96 C42.975260416666664,86 43.8046875,76 43.8046875,76" class="clickable"/></g><path d="M 43.8046875,76 L 50.8046875,73.5 L 50.8046875,78.5 Z" transform="rotate(94.7414141622609 43.8046875 76)" class="arrow" style="fill:rgb(48, 48, 48);stroke-linejoin:miter;stroke-miterlimit:2;"/></g></g></g></svg>