<svg xmlns="http://www.w3.org/2000/svg" id="sprotty_root" class="sprotty-graph sprotty-state-machine statemachine" style="font-family:&quot;Noto Sans&quot;, Helvetica, Arial, sans-serif;perspective-origin:0px 0px;transform-origin:0px 0px;" version="1.1" viewBox="10 10 243.171875 288" width="243.171875" height="288"><g transform="scale(1) translate(0,0)"><g id="sprotty_fsm$st_q" transform="translate(15, 15)" class="statemachine"><g class="sprotty-block" style="fill:rgb(255, 255, 255);stroke:rgb(48, 48, 48);stroke-dasharray:0px;"><rect x="0" y="0" rx="1" ry="1" width="233.171875" height="278"/><text x="116.5859375" y="12" class="sprotty-block-name" style="cursor:pointer;font-weight:700;perspective-origin:116.578px 0px;fill:rgb(48, 48, 48);stroke:rgba(0, 0, 0, 0);dominant-baseline:middle;text-anchor:middle;">st_q</text><line x1="0" y1="20" x2="233.171875" y2="20"/></g><g id="sprotty_fsm$st_q/state$StProg" transform="translate(74, 96)" class="state"><ellipse cx="31.015625" cy="20" rx="31.015625" ry="20" class="sprotty-node clickable" style="fill:rgb(255, 255, 255);stroke:rgb(48, 48, 48);"/><text class="clickable sprotty-label state" id="sprotty_fsm$st_q/state$StProg/label" transform="translate(6, 8) translate(25.015625, 19)" style="cursor:default;perspective-origin:0px 0px;fill:rgb(48, 48, 48);text-anchor:middle;">StProg</text></g><g id="sprotty_fsm$st_q/state$StIdle" transform="translate(56.34375, 166)" class="state"><ellipse cx="27.6640625" cy="20" rx="27.6640625" ry="20" class="sprotty-node clickable" style="fill:rgb(255, 255, 255);stroke:rgb(48, 48, 48);"/><text class="clickable sprotty-label state" id="sprotty_fsm$st_q/state$StIdle/label" transform="translate(6, 8) translate(21.59375, 19)" style="cursor:default;perspective-origin:0.0625px 0px;fill:rgb(48, 48, 48);text-anchor:middle;">StIdle</text></g><g id="sprotty_fsm$st_q/state$StReset" transform="translate(152.953125, 36)" class="state"><ellipse cx="34.109375" cy="20" rx="34.109375" ry="20" class="sprotty-node clickable" style="fill:rgb(255, 255, 255);stroke:rgb(48, 48, 48);"/><text class="clickable sprotty-label state" id="sprotty_fsm$st_q/state$StReset/label" transform="translate(6, 8) translate(28.109375, 19)" style="cursor:default;perspective-origin:0px 0px;fill:rgb(48, 48, 48);text-anchor:middle;">StReset</text></g><g id="sprotty_fsm$st_q/state$StInit" transform="translate(161.03125, 96)" class="state"><ellipse cx="26.03125" cy="20" rx="26.03125" ry="20" class="sprotty-node clickable" style="fill:rgb(255, 255, 255);stroke:rgb(48, 48, 48);"/><text class="clickable sprotty-label state" id="sprotty_fsm$st_q/state$StInit/label" transform="translate(6, 8) translate(20.03125, 19)" style="cursor:default;perspective-origin:0px 0px;fill:rgb(48, 48, 48);text-anchor:middle;">StInit</text></g><g id="sprotty_fsm$st_q/state$StRead" transform="translate(32.26067708333332, 36)" class="state"><ellipse cx="32.359375" cy="20" rx="32.359375" ry="20" class="sprotty-node clickable" style="fill:rgb(255, 255, 255);stroke:rgb(48, 48, 48);"/><text class="clickable sprotty-label state" id="sprotty_fsm$st_q/state$StRead/label" transform="translate(6, 8) translate(26.359375, 19)" style="cursor:default;perspective-origin:0px 0px;fill:rgb(48, 48, 48);text-anchor:middle;">StRead</text></g><g id="sprotty_fsm$st_q/state$StErase" transform="translate(52.16666666666666, 226)" class="state"><ellipse cx="33.9296875" cy="20" rx="33.9296875" ry="20" class="sprotty-node clickable" style="fill:rgb(255, 255, 255);stroke:rgb(48, 48, 48);"/><text class="clickable sprotty-label state" id="sprotty_fsm$st_q/state$StErase/label" transform="translate(6, 8) translate(27.859375, 19)" style="cursor:default;perspective-origin:0.0625px 0px;fill:rgb(48, 48, 48);text-anchor:middle;">StErase</text></g><g id="sprotty_fsm$st_q/state$StReset_to_fsm$st_q/state$StInit" class="sprotty-edge transition" style="fill:none;stroke:rgb(48, 48, 48);stroke-linejoin:round;"><g><path d=" M187.0625,76 C187.0625,76 187.0625,86 187.0625,96"/><path d=" M187.0625,76 C187.0625,76 187.0625,86 187.0625,96" class="clickable"/></g><path d="M 187.0625,96 L 194.0625,93.5 L 194.0625,98.5 Z" transform="rotate(-90 187.0625 96)" class="arrow" style="fill:rgb(48, 48, 48);stroke-linejoin:miter;stroke-miterlimit:2;"/></g><g id="sprotty_fsm$st_q/state$StInit_to_fsm$st_q/state$StIdle" class="sprotty-edge transition" style="fill:none;stroke:rgb(48, 48, 48);stroke-linejoin:round;"><g><path d=" M187.0625,136 C187.0625,136 178.416875,151 100.60625,166"/><path d=" M187.0625,136 C187.0625,136 178.416875,151 100.60625,166" class="clickable"/></g><path d="M 100.60625,166 L 107.60625,163.5 L 107.60625,168.5 Z" transform="rotate(-10.91138499835509 100.60625 166)" class="arrow" style="fill:rgb(48, 48, 48);stroke-linejoin:miter;stroke-miterlimit:2;"/></g><g id="sprotty_fsm$st_q/state$StIdle_to_fsm$st_q/state$StRead" class="sprotty-edge transition" style="fill:none;stroke:rgb(48, 48, 48);stroke-linejoin:round;"><g><path d=" M67.409375,166 C12,151 12,143.5 12,136.41666666666666 C12,129.33333333333331 12,122.66666666666666 12,116 C12,109.33333333333333 12,102.66666666666666 12,96.83333333333333 C12,91 12,86 48.44036458333332,76"/><path d=" M67.409375,166 C12,151 12,143.5 12,136.41666666666666 C12,129.33333333333331 12,122.66666666666666 12,116 C12,109.33333333333333 12,102.66666666666666 12,96.83333333333333 C12,91 12,86 48.44036458333332,76" class="clickable"/></g><path d="M 48.44036458333332,76 L 55.44036458333332,73.5 L 55.44036458333332,78.5 Z" transform="rotate(164.65459704167935 48.44036458333332 76)" class="arrow" style="fill:rgb(48, 48, 48);stroke-linejoin:miter;stroke-miterlimit:2;"/></g><g id="sprotty_fsm$st_q/state$StIdle_to_fsm$st_q/state$StErase" class="sprotty-edge transition" style="fill:none;stroke:rgb(48, 48, 48);stroke-linejoin:round;"><g><path d=" M74.78645833333334,206 C74.78645833333334,206 74.78645833333333,216 74.78645833333331,226"/><path d=" M74.78645833333334,206 C74.78645833333334,206 74.78645833333333,216 74.78645833333331,226" class="clickable"/></g><path d="M 74.78645833333331,226 L 81.78645833333331,223.5 L 81.78645833333331,228.5 Z" transform="rotate(-89.99999999999993 74.78645833333331 226)" class="arrow" style="fill:rgb(48, 48, 48);stroke-linejoin:miter;stroke-miterlimit:2;"/></g><g id="sprotty_fsm$st_q/state$StRead_to_fsm$st_q/state$StIdle" class="sprotty-edge transition" style="fill:none;stroke:rgb(48, 48, 48);stroke-linejoin:round;"><g><path d=" M64.62005208333332,76 C63,86 63,91 63,96.83333333333333 C63,102.66666666666666 63,109.33333333333333 63,116 C63,122.66666666666666 63,129.33333333333331 63,136.41666666666666 C63,143.5 63,151 78.475,166"/><path d=" M64.62005208333332,76 C63,86 63,91 63,96.83333333333333 C63,102.66666666666666 63,109.33333333333333 63,116 C63,122.66666666666666 63,129.33333333333331 63,136.41666666666666 C63,143.5 63,151 78.475,166" class="clickable"/></g><path d="M 78.475,166 L 85.475,163.5 L 85.475,168.5 Z" transform="rotate(-135.89297101477374 78.475 166)" class="arrow" style="fill:rgb(48, 48, 48);stroke-linejoin:miter;stroke-miterlimit:2;"/></g><g id="sprotty_fsm$st_q/state$StRead_to_fsm$st_q/state$StProg" class="sprotty-edge transition" style="fill:none;stroke:rgb(48, 48, 48);stroke-linejoin:round;"><g><path d=" M80.79973958333332,76 C80.79973958333332,76 102.59403645833333,86 105.015625,96"/><path d=" M80.79973958333332,76 C80.79973958333332,76 102.59403645833333,86 105.015625,96" class="clickable"/></g><path d="M 105.015625,96 L 112.015625,93.5 L 112.015625,98.5 Z" transform="rotate(-103.61263238476003 105.015625 96)" class="arrow" style="fill:rgb(48, 48, 48);stroke-linejoin:miter;stroke-miterlimit:2;"/></g><g id="sprotty_fsm$st_q/state$StProg_to_fsm$st_q/state$StIdle" class="sprotty-edge transition" style="fill:none;stroke:rgb(48, 48, 48);stroke-linejoin:round;"><g><path d=" M105.015625,136 C105.015625,136 103.468125,151 89.540625,166"/><path d=" M105.015625,136 C105.015625,136 103.468125,151 89.540625,166" class="clickable"/></g><path d="M 89.540625,166 L 96.540625,163.5 L 96.540625,168.5 Z" transform="rotate(-47.123294121273 89.540625 166)" class="arrow" style="fill:rgb(48, 48, 48);stroke-linejoin:miter;stroke-miterlimit:2;"/></g><g id="sprotty_fsm$st_q/state$StErase_to_fsm$st_q/state$StIdle" class="sprotty-edge transition" style="fill:none;stroke:rgb(48, 48, 48);stroke-linejoin:round;"><g><path d=" M97.40624999999999,226 C95.31770833333333,216 93.22916666666667,206 93.22916666666667,206"/><path d=" M97.40624999999999,226 C95.31770833333333,216 93.22916666666667,206 93.22916666666667,206" class="clickable"/></g><path d="M 93.22916666666667,206 L 100.22916666666667,203.5 L 100.22916666666667,208.5 Z" transform="rotate(78.20311382155897 93.22916666666667 206)" class="arrow" style="fill:rgb(48, 48, 48);stroke-linejoin:miter;stroke-miterlimit:2;"/></g></g></g></svg>