<svg xmlns="http://www.w3.org/2000/svg" id="sprotty_root" class="sprotty-graph sprotty-state-machine statemachine" style="font-family:&quot;Noto Sans&quot;, Helvetica, Arial, sans-serif;perspective-origin:0px 0px;transform-origin:0px 0px;" version="1.1" viewBox="10 10 309.375 398" width="309.375" height="398"><g transform="scale(1) translate(0,0)"><g id="sprotty_fsm$state_q" transform="translate(15, 15)" class="statemachine"><g class="sprotty-block" style="fill:rgb(255, 255, 255);stroke:rgb(48, 48, 48);stroke-dasharray:0px;"><rect x="0" y="0" rx="1" ry="1" width="299.375" height="388"/><text x="149.6875" y="12" class="sprotty-block-name" style="cursor:pointer;font-weight:700;perspective-origin:149.688px 0px;fill:rgb(48, 48, 48);stroke:rgba(0, 0, 0, 0);dominant-baseline:middle;text-anchor:middle;">state_q</text><line x1="0" y1="20" x2="299.375" y2="20"/></g><g id="sprotty_fsm$state_q/state$PingHsPhase2" transform="translate(23, 216)" class="state"><ellipse cx="59.328125" cy="20" rx="59.328125" ry="20" class="sprotty-node clickable" style="fill:rgb(255, 255, 255);stroke:rgb(48, 48, 48);"/><text class="clickable sprotty-label state" id="sprotty_fsm$state_q/state$PingHsPhase2/label" transform="translate(6, 8) translate(53.265625, 19)" style="cursor:default;perspective-origin:0.0625px 0px;fill:rgb(48, 48, 48);text-anchor:middle;">PingHsPhase2</text></g><g id="sprotty_fsm$state_q/state$Idle" transform="translate(62.234374999999986, 96)" class="state"><ellipse cx="20.09375" cy="20" rx="20.09375" ry="20" class="sprotty-node clickable" style="fill:rgb(255, 255, 255);stroke:rgb(48, 48, 48);"/><text class="clickable sprotty-label state" id="sprotty_fsm$state_q/state$Idle/label" transform="translate(6, 8) translate(14.03125, 19)" style="cursor:default;perspective-origin:0.0625px 0px;fill:rgb(48, 48, 48);text-anchor:middle;">Idle</text></g><g id="sprotty_fsm$state_q/state$PingHsPhase1" transform="translate(23.0625, 156)" class="state"><ellipse cx="59.265625" cy="20" rx="59.265625" ry="20" class="sprotty-node clickable" style="fill:rgb(255, 255, 255);stroke:rgb(48, 48, 48);"/><text class="clickable sprotty-label state" id="sprotty_fsm$state_q/state$PingHsPhase1/label" transform="translate(6, 8) translate(53.265625, 19)" style="cursor:default;perspective-origin:0px 0px;fill:rgb(48, 48, 48);text-anchor:middle;">PingHsPhase1</text></g><g id="sprotty_fsm$state_q/state$SigInt" transform="translate(54.593749999999986, 36)" class="state"><ellipse cx="27.734375" cy="20" rx="27.734375" ry="20" class="sprotty-node clickable" style="fill:rgb(255, 255, 255);stroke:rgb(48, 48, 48);"/><text class="clickable sprotty-label state" id="sprotty_fsm$state_q/state$SigInt/label" transform="translate(6, 8) translate(21.734375, 19)" style="cursor:default;perspective-origin:0px 0px;fill:rgb(48, 48, 48);text-anchor:middle;">SigInt</text></g><g id="sprotty_fsm$state_q/state$Pause1" transform="translate(81.39843749999997, 336)" class="state"><ellipse cx="32.65625" cy="20" rx="32.65625" ry="20" class="sprotty-node clickable" style="fill:rgb(255, 255, 255);stroke:rgb(48, 48, 48);"/><text class="clickable sprotty-label state" id="sprotty_fsm$state_q/state$Pause1/label" transform="translate(6, 8) translate(26.65625, 19)" style="cursor:default;perspective-origin:0px 0px;fill:rgb(48, 48, 48);text-anchor:middle;">Pause1</text></g><g id="sprotty_fsm$state_q/state$Pause0" transform="translate(121.95312499999999, 276)" class="state"><ellipse cx="32.71875" cy="20" rx="32.71875" ry="20" class="sprotty-node clickable" style="fill:rgb(255, 255, 255);stroke:rgb(48, 48, 48);"/><text class="clickable sprotty-label state" id="sprotty_fsm$state_q/state$Pause0/label" transform="translate(6, 8) translate(26.65625, 19)" style="cursor:default;perspective-origin:0.0625px 0px;fill:rgb(48, 48, 48);text-anchor:middle;">Pause0</text></g><g id="sprotty_fsm$state_q/state$AlertHsPhase2" transform="translate(166.65625, 216)" class="state"><ellipse cx="60.359375" cy="20" rx="60.359375" ry="20" class="sprotty-node clickable" style="fill:rgb(255, 255, 255);stroke:rgb(48, 48, 48);"/><text class="clickable sprotty-label state" id="sprotty_fsm$state_q/state$AlertHsPhase2/label" transform="translate(6, 8) translate(54.296875, 19)" style="cursor:default;perspective-origin:0.0625px 0px;fill:rgb(48, 48, 48);text-anchor:middle;">AlertHsPhase2</text></g><g id="sprotty_fsm$state_q/state$AlertHsPhase1" transform="translate(166.71875, 156)" class="state"><ellipse cx="60.296875" cy="20" rx="60.296875" ry="20" class="sprotty-node clickable" style="fill:rgb(255, 255, 255);stroke:rgb(48, 48, 48);"/><text class="clickable sprotty-label state" id="sprotty_fsm$state_q/state$AlertHsPhase1/label" transform="translate(6, 8) translate(54.296875, 19)" style="cursor:default;perspective-origin:0px 0px;fill:rgb(48, 48, 48);text-anchor:middle;">AlertHsPhase1</text></g><g id="sprotty_fsm$state_q/state$Idle_to_fsm$state_q/state$AlertHsPhase1" class="sprotty-edge transition" style="fill:none;stroke:rgb(48, 48, 48);stroke-linejoin:round;"><g><path d=" M92.37499999999999,136 C92.37499999999999,136 213.5515625,146 227.015625,156"/><path d=" M92.37499999999999,136 C92.37499999999999,136 213.5515625,146 227.015625,156" class="clickable"/></g><path d="M 227.015625,156 L 234.015625,153.5 L 234.015625,158.5 Z" transform="rotate(-143.39806717124512 227.015625 156)" class="arrow" style="fill:rgb(48, 48, 48);stroke-linejoin:miter;stroke-miterlimit:2;"/></g><g id="sprotty_fsm$state_q/state$Idle_to_fsm$state_q/state$PingHsPhase1" class="sprotty-edge transition" style="fill:none;stroke:rgb(48, 48, 48);stroke-linejoin:round;"><g><path d=" M82.32812499999999,136 C82.32812499999999,136 82.328125,146 82.328125,156"/><path d=" M82.32812499999999,136 C82.32812499999999,136 82.328125,146 82.328125,156" class="clickable"/></g><path d="M 82.328125,156 L 89.328125,153.5 L 89.328125,158.5 Z" transform="rotate(-90 82.328125 156)" class="arrow" style="fill:rgb(48, 48, 48);stroke-linejoin:miter;stroke-miterlimit:2;"/></g><g id="sprotty_fsm$state_q/state$AlertHsPhase1_to_fsm$state_q/state$AlertHsPhase2" class="sprotty-edge transition" style="fill:none;stroke:rgb(48, 48, 48);stroke-linejoin:round;"><g><path d=" M227.015625,196 C227.015625,196 227.015625,206 227.015625,216"/><path d=" M227.015625,196 C227.015625,196 227.015625,206 227.015625,216" class="clickable"/></g><path d="M 227.015625,216 L 234.015625,213.5 L 234.015625,218.5 Z" transform="rotate(-90 227.015625 216)" class="arrow" style="fill:rgb(48, 48, 48);stroke-linejoin:miter;stroke-miterlimit:2;"/></g><g id="sprotty_fsm$state_q/state$AlertHsPhase2_to_fsm$state_q/state$Pause0" class="sprotty-edge transition" style="fill:none;stroke:rgb(48, 48, 48);stroke-linejoin:round;"><g><path d=" M227.015625,256 C227.015625,256 220.871875,266 165.578125,276"/><path d=" M227.015625,256 C227.015625,256 220.871875,266 165.578125,276" class="clickable"/></g><path d="M 165.578125,276 L 172.578125,273.5 L 172.578125,278.5 Z" transform="rotate(-10.251265465510784 165.578125 276)" class="arrow" style="fill:rgb(48, 48, 48);stroke-linejoin:miter;stroke-miterlimit:2;"/></g><g id="sprotty_fsm$state_q/state$PingHsPhase1_to_fsm$state_q/state$PingHsPhase2" class="sprotty-edge transition" style="fill:none;stroke:rgb(48, 48, 48);stroke-linejoin:round;"><g><path d=" M82.328125,196 C82.328125,196 82.328125,206 82.328125,216"/><path d=" M82.328125,196 C82.328125,196 82.328125,206 82.328125,216" class="clickable"/></g><path d="M 82.328125,216 L 89.328125,213.5 L 89.328125,218.5 Z" transform="rotate(-90 82.328125 216)" class="arrow" style="fill:rgb(48, 48, 48);stroke-linejoin:miter;stroke-miterlimit:2;"/></g><g id="sprotty_fsm$state_q/state$PingHsPhase2_to_fsm$state_q/state$Pause0" class="sprotty-edge transition" style="fill:none;stroke:rgb(48, 48, 48);stroke-linejoin:round;"><g><path d=" M82.328125,256 C82.328125,256 88.471875,266 143.765625,276"/><path d=" M82.328125,256 C82.328125,256 88.471875,266 143.765625,276" class="clickable"/></g><path d="M 143.765625,276 L 150.765625,273.5 L 150.765625,278.5 Z" transform="rotate(-169.74873453448922 143.765625 276)" class="arrow" style="fill:rgb(48, 48, 48);stroke-linejoin:miter;stroke-miterlimit:2;"/></g><g id="sprotty_fsm$state_q/state$Pause0_to_fsm$state_q/state$Pause1" class="sprotty-edge transition" style="fill:none;stroke:rgb(48, 48, 48);stroke-linejoin:round;"><g><path d=" M154.671875,316 C154.671875,316 151.69869791666665,326 124.94010416666664,336"/><path d=" M154.671875,316 C154.671875,316 151.69869791666665,326 124.94010416666664,336" class="clickable"/></g><path d="M 124.94010416666664,336 L 131.94010416666663,333.5 L 131.94010416666663,338.5 Z" transform="rotate(-20.49130487503229 124.94010416666664 336)" class="arrow" style="fill:rgb(48, 48, 48);stroke-linejoin:miter;stroke-miterlimit:2;"/></g><g id="sprotty_fsm$state_q/state$Pause1_to_fsm$state_q/state$Idle" class="sprotty-edge transition" style="fill:none;stroke:rgb(48, 48, 48);stroke-linejoin:round;"><g><path d=" M103.16927083333331,336 C12,326 12,320.99999999999994 12,314.3333333333333 C12,307.6666666666667 12,299.3333333333333 12,291 C12,282.6666666666667 12,274.33333333333337 12,260.16666666666663 C12,245.99999999999997 12,225.99999999999997 12.000000000000057,211.8333333333333 C12.000000000000028,197.66666666666666 12,189.33333333333334 12.000000000000057,181 C12.000000000000028,172.66666666666666 12,164.33333333333334 12.000000000000057,157.66666666666666 C12.000000000000028,151 12,146 72.28124999999999,136"/><path d=" M103.16927083333331,336 C12,326 12,320.99999999999994 12,314.3333333333333 C12,307.6666666666667 12,299.3333333333333 12,291 C12,282.6666666666667 12,274.33333333333337 12,260.16666666666663 C12,245.99999999999997 12,225.99999999999997 12.000000000000057,211.8333333333333 C12.000000000000028,197.66666666666666 12,189.33333333333334 12.000000000000057,181 C12.000000000000028,172.66666666666666 12,164.33333333333334 12.000000000000057,157.66666666666666 C12.000000000000028,151 12,146 72.28124999999999,136" class="clickable"/></g><path d="M 72.28124999999999,136 L 79.28124999999999,133.5 L 79.28124999999999,138.5 Z" transform="rotate(170.58103258575278 72.28124999999999 136)" class="arrow" style="fill:rgb(48, 48, 48);stroke-linejoin:miter;stroke-miterlimit:2;"/></g><g id="sprotty_fsm$state_q/state$SigInt_to_fsm$state_q/state$Idle" class="sprotty-edge transition" style="fill:none;stroke:rgb(48, 48, 48);stroke-linejoin:round;"><g><path d=" M82.32812499999999,76 C82.32812499999999,76 82.32812499999999,86 82.32812499999999,96"/><path d=" M82.32812499999999,76 C82.32812499999999,76 82.32812499999999,86 82.32812499999999,96" class="clickable"/></g><path d="M 82.32812499999999,96 L 89.32812499999999,93.5 L 89.32812499999999,98.5 Z" transform="rotate(-90 82.32812499999999 96)" class="arrow" style="fill:rgb(48, 48, 48);stroke-linejoin:miter;stroke-miterlimit:2;"/></g></g></g></svg>