<svg xmlns="http://www.w3.org/2000/svg" id="sprotty_root" class="sprotty-graph sprotty-state-machine statemachine" style="font-family:&quot;Noto Sans&quot;, Helvetica, Arial, sans-serif;perspective-origin:0px 0px;transform-origin:0px 0px;" version="1.1" viewBox="10 10 446.51171875 518" width="446.51171875" height="518"><g transform="scale(1) translate(0,0)"><g id="sprotty_fsm$state_q" transform="translate(15, 15)" class="statemachine"><g class="sprotty-block" style="fill:rgb(255, 255, 255);stroke:rgb(48, 48, 48);stroke-dasharray:0px;"><rect x="0" y="0" rx="1" ry="1" width="436.51171875" height="508"/><text x="218.255859375" y="12" class="sprotty-block-name" style="cursor:pointer;font-weight:700;perspective-origin:218.25px 0px;fill:rgb(48, 48, 48);stroke:rgba(0, 0, 0, 0);dominant-baseline:middle;text-anchor:middle;">state_q</text><line x1="0" y1="20" x2="436.51171875" y2="20"/></g><g id="sprotty_fsm$state_q/state$SlowPwrStateReset" transform="translate(267.51171875, 276)" class="state"><ellipse cx="78.5" cy="20" rx="78.5" ry="20" class="sprotty-node clickable" style="fill:rgb(255, 255, 255);stroke:rgb(48, 48, 48);"/><text class="clickable sprotty-label state" id="sprotty_fsm$state_q/state$SlowPwrStateReset/label" transform="translate(6, 8) translate(72.5, 19)" style="cursor:default;perspective-origin:0px 0px;fill:rgb(48, 48, 48);text-anchor:middle;">SlowPwrStateReset</text></g><g id="sprotty_fsm$state_q/state$SlowPwrStateLowPower" transform="translate(47.683593750000014, 276)" class="state"><ellipse cx="97.4140625" cy="20" rx="97.4140625" ry="20" class="sprotty-node clickable" style="fill:rgb(255, 255, 255);stroke:rgb(48, 48, 48);"/><text class="clickable sprotty-label state" id="sprotty_fsm$state_q/state$SlowPwrStateLowPower/label" transform="translate(6, 8) translate(91.015625, 19)" style="cursor:default;perspective-origin:0.390625px 0px;fill:rgb(48, 48, 48);text-anchor:middle;">SlowPwrStateLowPower</text></g><g id="sprotty_fsm$state_q/state$SlowPwrStateIdle" transform="translate(12, 36)" class="state"><ellipse cx="72.0546875" cy="20" rx="72.0546875" ry="20" class="sprotty-node clickable" style="fill:rgb(255, 255, 255);stroke:rgb(48, 48, 48);"/><text class="clickable sprotty-label state" id="sprotty_fsm$state_q/state$SlowPwrStateIdle/label" transform="translate(6, 8) translate(65.984375, 19)" style="cursor:default;perspective-origin:0.0625px 0px;fill:rgb(48, 48, 48);text-anchor:middle;">SlowPwrStateIdle</text></g><g id="sprotty_fsm$state_q/state$SlowPwrStateReqPwrUp" transform="translate(68.39713541666669, 456)" class="state"><ellipse cx="97.703125" cy="20" rx="97.703125" ry="20" class="sprotty-node clickable" style="fill:rgb(255, 255, 255);stroke:rgb(48, 48, 48);"/><text class="clickable sprotty-label state" id="sprotty_fsm$state_q/state$SlowPwrStateReqPwrUp/label" transform="translate(6, 8) translate(91.65625, 19)" style="cursor:default;perspective-origin:0.046875px 0px;fill:rgb(48, 48, 48);text-anchor:middle;">SlowPwrStateReqPwrUp</text></g><g id="sprotty_fsm$state_q/state$SlowPwrStateMainPowerOn" transform="translate(135.0859375, 336)" class="state"><ellipse cx="110.46875" cy="20" rx="110.46875" ry="20" class="sprotty-node clickable" style="fill:rgb(255, 255, 255);stroke:rgb(48, 48, 48);"/><text class="clickable sprotty-label state" id="sprotty_fsm$state_q/state$SlowPwrStateMainPowerOn/label" transform="translate(6, 8) translate(104.46875, 19)" style="cursor:default;perspective-origin:0px 0px;fill:rgb(48, 48, 48);text-anchor:middle;">SlowPwrStateMainPowerOn</text></g><g id="sprotty_fsm$state_q/state$SlowPwrStateClocksOn" transform="translate(152.2890625, 396)" class="state"><ellipse cx="93.265625" cy="20" rx="93.265625" ry="20" class="sprotty-node clickable" style="fill:rgb(255, 255, 255);stroke:rgb(48, 48, 48);"/><text class="clickable sprotty-label state" id="sprotty_fsm$state_q/state$SlowPwrStateClocksOn/label" transform="translate(6, 8) translate(87.265625, 19)" style="cursor:default;perspective-origin:0px 0px;fill:rgb(48, 48, 48);text-anchor:middle;">SlowPwrStateClocksOn</text></g><g id="sprotty_fsm$state_q/state$SlowPwrStateClocksOff" transform="translate(51.222656250000014, 156)" class="state"><ellipse cx="93.875" cy="20" rx="93.875" ry="20" class="sprotty-node clickable" style="fill:rgb(255, 255, 255);stroke:rgb(48, 48, 48);"/><text class="clickable sprotty-label state" id="sprotty_fsm$state_q/state$SlowPwrStateClocksOff/label" transform="translate(6, 8) translate(87.515625, 19)" style="cursor:default;perspective-origin:0.359375px 0px;fill:rgb(48, 48, 48);text-anchor:middle;">SlowPwrStateClocksOff</text></g><g id="sprotty_fsm$state_q/state$SlowPwrStateAckPwrDn" transform="translate(48.816406250000014, 96)" class="state"><ellipse cx="96.28125" cy="20" rx="96.28125" ry="20" class="sprotty-node clickable" style="fill:rgb(255, 255, 255);stroke:rgb(48, 48, 48);"/><text class="clickable sprotty-label state" id="sprotty_fsm$state_q/state$SlowPwrStateAckPwrDn/label" transform="translate(6, 8) translate(90.28125, 19)" style="cursor:default;perspective-origin:0px 0px;fill:rgb(48, 48, 48);text-anchor:middle;">SlowPwrStateAckPwrDn</text></g><g id="sprotty_fsm$state_q/state$SlowPwrStateMainPowerOff" transform="translate(34.011718750000014, 216)" class="state"><ellipse cx="111.0859375" cy="20" rx="111.0859375" ry="20" class="sprotty-node clickable" style="fill:rgb(255, 255, 255);stroke:rgb(48, 48, 48);"/><text class="clickable sprotty-label state" id="sprotty_fsm$state_q/state$SlowPwrStateMainPowerOff/label" transform="translate(6, 8) translate(104.734375, 19)" style="cursor:default;perspective-origin:0.34375px 0px;fill:rgb(48, 48, 48);text-anchor:middle;">SlowPwrStateMainPowerOff</text></g><g id="sprotty_fsm$state_q/state$SlowPwrStateReset_to_fsm$state_q/state$SlowPwrStateMainPowerOn" class="sprotty-edge transition" style="fill:none;stroke:rgb(48, 48, 48);stroke-linejoin:round;"><g><path d=" M346.01171875,316 C346.01171875,316 339.6483072916667,326 282.3776041666667,336"/><path d=" M346.01171875,316 C346.01171875,316 339.6483072916667,326 282.3776041666667,336" class="clickable"/></g><path d="M 282.3776041666667,336 L 289.3776041666667,333.5 L 289.3776041666667,338.5 Z" transform="rotate(-9.904526329625448 282.3776041666667 336)" class="arrow" style="fill:rgb(48, 48, 48);stroke-linejoin:miter;stroke-miterlimit:2;"/></g><g id="sprotty_fsm$state_q/state$SlowPwrStateLowPower_to_fsm$state_q/state$SlowPwrStateMainPowerOn" class="sprotty-edge transition" style="fill:none;stroke:rgb(48, 48, 48);stroke-linejoin:round;"><g><path d=" M145.09765625,316 C145.09765625,316 151.46106770833336,326 208.73177083333334,336"/><path d=" M145.09765625,316 C145.09765625,316 151.46106770833336,326 208.73177083333334,336" class="clickable"/></g><path d="M 208.73177083333334,336 L 215.73177083333334,333.5 L 215.73177083333334,338.5 Z" transform="rotate(-170.09547367037456 208.73177083333334 336)" class="arrow" style="fill:rgb(48, 48, 48);stroke-linejoin:miter;stroke-miterlimit:2;"/></g><g id="sprotty_fsm$state_q/state$SlowPwrStateMainPowerOn_to_fsm$state_q/state$SlowPwrStateClocksOn" class="sprotty-edge transition" style="fill:none;stroke:rgb(48, 48, 48);stroke-linejoin:round;"><g><path d=" M245.5546875,376 C245.5546875,376 245.5546875,386 245.5546875,396"/><path d=" M245.5546875,376 C245.5546875,376 245.5546875,386 245.5546875,396" class="clickable"/></g><path d="M 245.5546875,396 L 252.5546875,393.5 L 252.5546875,398.5 Z" transform="rotate(-90 245.5546875 396)" class="arrow" style="fill:rgb(48, 48, 48);stroke-linejoin:miter;stroke-miterlimit:2;"/></g><g id="sprotty_fsm$state_q/state$SlowPwrStateClocksOn_to_fsm$state_q/state$SlowPwrStateReqPwrUp" class="sprotty-edge transition" style="fill:none;stroke:rgb(48, 48, 48);stroke-linejoin:round;"><g><path d=" M245.5546875,436 C245.5546875,436 240.866015625,446 198.66796875,456"/><path d=" M245.5546875,436 C245.5546875,436 240.866015625,446 198.66796875,456" class="clickable"/></g><path d="M 198.66796875,456 L 205.66796875,453.5 L 205.66796875,458.5 Z" transform="rotate(-13.33189241832921 198.66796875 456)" class="arrow" style="fill:rgb(48, 48, 48);stroke-linejoin:miter;stroke-miterlimit:2;"/></g><g id="sprotty_fsm$state_q/state$SlowPwrStateReqPwrUp_to_fsm$state_q/state$SlowPwrStateIdle" class="sprotty-edge transition" style="fill:none;stroke:rgb(48, 48, 48);stroke-linejoin:round;"><g><path d=" M133.53255208333334,456 C23.011718750000014,446 23.011718750000014,441 23.01171875000003,430.1666666666667 C23.01171875000003,419.3333333333333 23.01171875000003,402.6666666666667 23.01171875000003,389.3333333333333 C23.011718750000014,376 23.01171875000003,366 23.011718750000043,356 C23.011718750000014,346 23.011718750000014,336 23.011718750000043,321 C23.011718750000043,306 23.01171875000003,286 23.01171875000003,271 C23.01171875000003,256 23.01171875000003,246 23.011718750000014,236 C23.011718750000014,226 23.01171875000003,216 23.01171875000003,201.00000000000003 C23.011718750000014,186 23.01171875000003,166 23.01171875,151.83333333333331 C23.01171875,137.66666666666666 23.01171875,129.33333333333334 23.011718750000014,121 C23.011718750000014,112.66666666666667 23.01171875000003,104.33333333333334 23.011718750000014,97.66666666666667 C23.011718750000014,91 23.011718750000014,86 60.036458333333336,76"/><path d=" M133.53255208333334,456 C23.011718750000014,446 23.011718750000014,441 23.01171875000003,430.1666666666667 C23.01171875000003,419.3333333333333 23.01171875000003,402.6666666666667 23.01171875000003,389.3333333333333 C23.011718750000014,376 23.01171875000003,366 23.011718750000043,356 C23.011718750000014,346 23.011718750000014,336 23.011718750000043,321 C23.011718750000043,306 23.01171875000003,286 23.01171875000003,271 C23.01171875000003,256 23.01171875000003,246 23.011718750000014,236 C23.011718750000014,226 23.01171875000003,216 23.01171875000003,201.00000000000003 C23.011718750000014,186 23.01171875000003,166 23.01171875,151.83333333333331 C23.01171875,137.66666666666666 23.01171875,129.33333333333334 23.011718750000014,121 C23.011718750000014,112.66666666666667 23.01171875000003,104.33333333333334 23.011718750000014,97.66666666666667 C23.011718750000014,91 23.011718750000014,86 60.036458333333336,76" class="clickable"/></g><path d="M 60.036458333333336,76 L 67.03645833333334,73.5 L 67.03645833333334,78.5 Z" transform="rotate(164.88563592512097 60.036458333333336 76)" class="arrow" style="fill:rgb(48, 48, 48);stroke-linejoin:miter;stroke-miterlimit:2;"/></g><g id="sprotty_fsm$state_q/state$SlowPwrStateIdle_to_fsm$state_q/state$SlowPwrStateAckPwrDn" class="sprotty-edge transition" style="fill:none;stroke:rgb(48, 48, 48);stroke-linejoin:round;"><g><path d=" M108.07291666666667,76 C108.07291666666667,76 141.39518229166669,86 145.09765625,96"/><path d=" M108.07291666666667,76 C108.07291666666667,76 141.39518229166669,86 145.09765625,96" class="clickable"/></g><path d="M 145.09765625,96 L 152.09765625,93.5 L 152.09765625,98.5 Z" transform="rotate(-110.31694058982788 145.09765625 96)" class="arrow" style="fill:rgb(48, 48, 48);stroke-linejoin:miter;stroke-miterlimit:2;"/></g><g id="sprotty_fsm$state_q/state$SlowPwrStateAckPwrDn_to_fsm$state_q/state$SlowPwrStateClocksOff" class="sprotty-edge transition" style="fill:none;stroke:rgb(48, 48, 48);stroke-linejoin:round;"><g><path d=" M145.09765625,136 C145.09765625,136 145.09765625,146 145.09765625,156"/><path d=" M145.09765625,136 C145.09765625,136 145.09765625,146 145.09765625,156" class="clickable"/></g><path d="M 145.09765625,156 L 152.09765625,153.5 L 152.09765625,158.5 Z" transform="rotate(-90 145.09765625 156)" class="arrow" style="fill:rgb(48, 48, 48);stroke-linejoin:miter;stroke-miterlimit:2;"/></g><g id="sprotty_fsm$state_q/state$SlowPwrStateClocksOff_to_fsm$state_q/state$SlowPwrStateMainPowerOff" class="sprotty-edge transition" style="fill:none;stroke:rgb(48, 48, 48);stroke-linejoin:round;"><g><path d=" M145.09765625,196 C145.09765625,196 145.09765625,206 145.09765625,216"/><path d=" M145.09765625,196 C145.09765625,196 145.09765625,206 145.09765625,216" class="clickable"/></g><path d="M 145.09765625,216 L 152.09765625,213.5 L 152.09765625,218.5 Z" transform="rotate(-90 145.09765625 216)" class="arrow" style="fill:rgb(48, 48, 48);stroke-linejoin:miter;stroke-miterlimit:2;"/></g><g id="sprotty_fsm$state_q/state$SlowPwrStateMainPowerOff_to_fsm$state_q/state$SlowPwrStateLowPower" class="sprotty-edge transition" style="fill:none;stroke:rgb(48, 48, 48);stroke-linejoin:round;"><g><path d=" M145.09765625,256 C145.09765625,256 145.09765625,266 145.09765625,276"/><path d=" M145.09765625,256 C145.09765625,256 145.09765625,266 145.09765625,276" class="clickable"/></g><path d="M 145.09765625,276 L 152.09765625,273.5 L 152.09765625,278.5 Z" transform="rotate(-90 145.09765625 276)" class="arrow" style="fill:rgb(48, 48, 48);stroke-linejoin:miter;stroke-miterlimit:2;"/></g></g></g></svg>