<svg xmlns="http://www.w3.org/2000/svg" id="sprotty_root" class="sprotty-graph sprotty-state-machine statemachine" style="font-family:&quot;Noto Sans&quot;, Helvetica, Arial, sans-serif;perspective-origin:0px 0px;transform-origin:0px 0px;" version="1.1" viewBox="10 10 763.3580729166666 732.163203125" width="763.3580729166666" height="732.163203125"><g transform="scale(1) translate(0,0)"><g id="sprotty_fsm$state_q" transform="translate(15, 15)" class="statemachine"><g class="sprotty-block" style="fill:rgb(255, 255, 255);stroke:rgb(48, 48, 48);stroke-dasharray:0px;"><rect x="0" y="0" rx="1" ry="1" width="753.3580729166666" height="722.163203125"/><text x="376.6790364583333" y="12" class="sprotty-block-name" style="cursor:pointer;font-weight:700;perspective-origin:376.672px 0px;fill:rgb(48, 48, 48);stroke:rgba(0, 0, 0, 0);dominant-baseline:middle;text-anchor:middle;">state_q</text><line x1="0" y1="20" x2="753.3580729166666" y2="20"/></g><g id="sprotty_fsm$state_q/state$FastPwrStateOtpInit" transform="translate(455.0078125, 416.98697916666663)" class="state"><ellipse cx="81.25" cy="20" rx="81.25" ry="20" class="sprotty-node clickable" style="fill:rgb(255, 255, 255);stroke:rgb(48, 48, 48);"/><text class="clickable sprotty-label state" id="sprotty_fsm$state_q/state$FastPwrStateOtpInit/label" transform="translate(6, 8) translate(75.25, 19)" style="cursor:default;perspective-origin:0px 0px;fill:rgb(48, 48, 48);text-anchor:middle;">FastPwrStateOtpInit</text></g><g id="sprotty_fsm$state_q/state$FastPwrStateFallThrough" transform="translate(35.09244791666667, 116.98697916666666)" class="state"><ellipse cx="99.8125" cy="20" rx="99.8125" ry="20" class="sprotty-node clickable" style="fill:rgb(255, 255, 255);stroke:rgb(48, 48, 48);"/><text class="clickable sprotty-label state" id="sprotty_fsm$state_q/state$FastPwrStateFallThrough/label" transform="translate(6, 8) translate(93.8125, 19)" style="cursor:default;perspective-origin:0px 0px;fill:rgb(48, 48, 48);text-anchor:middle;">FastPwrStateFallThrough</text></g><g id="sprotty_fsm$state_q/state$FastPwrStateReqPwrDn" transform="translate(276.92838541666663, 176.98697916666666)" class="state"><ellipse cx="94.234375" cy="20" rx="94.234375" ry="20" class="sprotty-node clickable" style="fill:rgb(255, 255, 255);stroke:rgb(48, 48, 48);"/><text class="clickable sprotty-label state" id="sprotty_fsm$state_q/state$FastPwrStateReqPwrDn/label" transform="translate(6, 8) translate(88.234375, 19)" style="cursor:default;perspective-origin:0px 0px;fill:rgb(48, 48, 48);text-anchor:middle;">FastPwrStateReqPwrDn</text></g><g id="sprotty_fsm$state_q/state$FastPwrStateFlashInit" transform="translate(449.1015625, 536.9869791666666)" class="state"><ellipse cx="87.15625" cy="20" rx="87.15625" ry="20" class="sprotty-node clickable" style="fill:rgb(255, 255, 255);stroke:rgb(48, 48, 48);"/><text class="clickable sprotty-label state" id="sprotty_fsm$state_q/state$FastPwrStateFlashInit/label" transform="translate(6, 8) translate(81.15625, 19)" style="cursor:default;perspective-origin:0px 0px;fill:rgb(48, 48, 48);text-anchor:middle;">FastPwrStateFlashInit</text></g><g id="sprotty_fsm$state_q/state$FastPwrStateAckPwrUp" transform="translate(442.671875, 596.9869791666666)" class="state"><ellipse cx="93.5859375" cy="20" rx="93.5859375" ry="20" class="sprotty-node clickable" style="fill:rgb(255, 255, 255);stroke:rgb(48, 48, 48);"/><text class="clickable sprotty-label state" id="sprotty_fsm$state_q/state$FastPwrStateAckPwrUp/label" transform="translate(6, 8) translate(87.546875, 19)" style="cursor:default;perspective-origin:0.03125px 0px;fill:rgb(48, 48, 48);text-anchor:middle;">FastPwrStateAckPwrUp</text></g><g id="sprotty_fsm$state_q/state$FastPwrStateNvmIdleChk" transform="translate(12, 36)" class="state"><ellipse cx="100.7265625" cy="20" rx="100.7265625" ry="20" class="sprotty-node clickable" style="fill:rgb(255, 255, 255);stroke:rgb(48, 48, 48);"/><text class="clickable sprotty-label state" id="sprotty_fsm$state_q/state$FastPwrStateNvmIdleChk/label" transform="translate(6, 8) translate(94.640625, 19)" style="cursor:default;perspective-origin:0.078125px 0px;fill:rgb(48, 48, 48);text-anchor:middle;">FastPwrStateNvmIdleChk</text></g><g id="sprotty_fsm$state_q/state$FastPwrStateDisClks" transform="translate(537.1080729166666, 36)" class="state"><ellipse cx="81.875" cy="20" rx="81.875" ry="20" class="sprotty-node clickable" style="fill:rgb(255, 255, 255);stroke:rgb(48, 48, 48);"/><text class="clickable sprotty-label state" id="sprotty_fsm$state_q/state$FastPwrStateDisClks/label" transform="translate(6, 8) translate(75.875, 19)" style="cursor:default;perspective-origin:0px 0px;fill:rgb(48, 48, 48);text-anchor:middle;">FastPwrStateDisClks</text></g><g id="sprotty_fsm$state_q/state$FastPwrStateLcInit" transform="translate(460.6171875, 476.98697916666663)" class="state"><ellipse cx="75.640625" cy="20" rx="75.640625" ry="20" class="sprotty-node clickable" style="fill:rgb(255, 255, 255);stroke:rgb(48, 48, 48);"/><text class="clickable sprotty-label state" id="sprotty_fsm$state_q/state$FastPwrStateLcInit/label" transform="translate(6, 8) translate(69.640625, 19)" style="cursor:default;perspective-origin:0px 0px;fill:rgb(48, 48, 48);text-anchor:middle;">FastPwrStateLcInit</text></g><g id="sprotty_fsm$state_q/state$FastPwrStateLowPowerPrep" transform="translate(259.71744791666663, 116.98697916666666)" class="state"><ellipse cx="111.4453125" cy="20" rx="111.4453125" ry="20" class="sprotty-node clickable" style="fill:rgb(255, 255, 255);stroke:rgb(48, 48, 48);"/><text class="clickable sprotty-label state" id="sprotty_fsm$state_q/state$FastPwrStateLowPowerPrep/label" transform="translate(6, 8) translate(105.40625, 19)" style="cursor:default;perspective-origin:0.03125px 0px;fill:rgb(48, 48, 48);text-anchor:middle;">FastPwrStateLowPowerPrep</text></g><g id="sprotty_fsm$state_q/state$FastPwrStateNvmShutDown" transform="translate(507.60807291666663, 116.98697916666666)" class="state"><ellipse cx="111.375" cy="20" rx="111.375" ry="20" class="sprotty-node clickable" style="fill:rgb(255, 255, 255);stroke:rgb(48, 48, 48);"/><text class="clickable sprotty-label state" id="sprotty_fsm$state_q/state$FastPwrStateNvmShutDown/label" transform="translate(6, 8) translate(105.375, 19)" style="cursor:default;perspective-origin:0px 0px;fill:rgb(48, 48, 48);text-anchor:middle;">FastPwrStateNvmShutDown</text></g><g id="sprotty_fsm$state_q/state$FastPwrStateEnableClocks" transform="translate(431.1328125, 296.98697916666663)" class="state"><ellipse cx="105.125" cy="20" rx="105.125" ry="20" class="sprotty-node clickable" style="fill:rgb(255, 255, 255);stroke:rgb(48, 48, 48);"/><text class="clickable sprotty-label state" id="sprotty_fsm$state_q/state$FastPwrStateEnableClocks/label" transform="translate(6, 8) translate(99.125, 19)" style="cursor:default;perspective-origin:0px 0px;fill:rgb(48, 48, 48);text-anchor:middle;">FastPwrStateEnableClocks</text></g><g id="sprotty_fsm$state_q/state$FastPwrStateLowPower" transform="translate(441.921875, 236.98697916666666)" class="state"><ellipse cx="94.3359375" cy="20" rx="94.3359375" ry="20" class="sprotty-node clickable" style="fill:rgb(255, 255, 255);stroke:rgb(48, 48, 48);"/><text class="clickable sprotty-label state" id="sprotty_fsm$state_q/state$FastPwrStateLowPower/label" transform="translate(6, 8) translate(87.9375, 19)" style="cursor:default;perspective-origin:0.390625px 0px;fill:rgb(48, 48, 48);text-anchor:middle;">FastPwrStateLowPower</text></g><g id="sprotty_fsm$state_q/state$FastPwrStateActive" transform="translate(324.8203125, 670.163203125)" class="state"><ellipse cx="77.5859375" cy="20" rx="77.5859375" ry="20" class="sprotty-node clickable" style="fill:rgb(255, 255, 255);stroke:rgb(48, 48, 48);"/><text class="clickable sprotty-label state" id="sprotty_fsm$state_q/state$FastPwrStateActive/label" transform="translate(6, 8) translate(71.515625, 19)" style="cursor:default;perspective-origin:0.0625px 0px;fill:rgb(48, 48, 48);text-anchor:middle;">FastPwrStateActive</text></g><g id="sprotty_fsm$state_q/state$FastPwrStateReleaseLcRst" transform="translate(432.6953125, 356.98697916666663)" class="state"><ellipse cx="103.5625" cy="20" rx="103.5625" ry="20" class="sprotty-node clickable" style="fill:rgb(255, 255, 255);stroke:rgb(48, 48, 48);"/><text class="clickable sprotty-label state" id="sprotty_fsm$state_q/state$FastPwrStateReleaseLcRst/label" transform="translate(6, 8) translate(97.5625, 19)" style="cursor:default;perspective-origin:0px 0px;fill:rgb(48, 48, 48);text-anchor:middle;">FastPwrStateReleaseLcRst</text></g><g id="sprotty_fsm$state_q/state$FastPwrStateResetPrep" transform="translate(526.0533854166666, 176.98697916666666)" class="state"><ellipse cx="92.9296875" cy="20" rx="92.9296875" ry="20" class="sprotty-node clickable" style="fill:rgb(255, 255, 255);stroke:rgb(48, 48, 48);"/><text class="clickable sprotty-label state" id="sprotty_fsm$state_q/state$FastPwrStateResetPrep/label" transform="translate(6, 8) translate(86.890625, 19)" style="cursor:default;perspective-origin:0.03125px 0px;fill:rgb(48, 48, 48);text-anchor:middle;">FastPwrStateResetPrep</text></g><g id="sprotty_fsm$state_q/state$FastPwrStateLowPower_to_fsm$state_q/state$FastPwrStateEnableClocks" class="sprotty-edge transition" style="fill:none;stroke:rgb(48, 48, 48);stroke-linejoin:round;"><g><path d=" M536.2578125,276.98697916666663 C536.2578125,276.98697916666663 536.2578125,286.98697916666663 536.2578125,296.98697916666663"/><path d=" M536.2578125,276.98697916666663 C536.2578125,276.98697916666663 536.2578125,286.98697916666663 536.2578125,296.98697916666663" class="clickable"/></g><path d="M 536.2578125,296.98697916666663 L 543.2578125,294.48697916666663 L 543.2578125,299.48697916666663 Z" transform="rotate(-90 536.2578125 296.98697916666663)" class="arrow" style="fill:rgb(48, 48, 48);stroke-linejoin:miter;stroke-miterlimit:2;"/></g><g id="sprotty_fsm$state_q/state$FastPwrStateEnableClocks_to_fsm$state_q/state$FastPwrStateReleaseLcRst" class="sprotty-edge transition" style="fill:none;stroke:rgb(48, 48, 48);stroke-linejoin:round;"><g><path d=" M536.2578125,336.98697916666663 C536.2578125,336.98697916666663 536.2578125,346.98697916666663 536.2578125,356.98697916666663"/><path d=" M536.2578125,336.98697916666663 C536.2578125,336.98697916666663 536.2578125,346.98697916666663 536.2578125,356.98697916666663" class="clickable"/></g><path d="M 536.2578125,356.98697916666663 L 543.2578125,354.48697916666663 L 543.2578125,359.48697916666663 Z" transform="rotate(-90 536.2578125 356.98697916666663)" class="arrow" style="fill:rgb(48, 48, 48);stroke-linejoin:miter;stroke-miterlimit:2;"/></g><g id="sprotty_fsm$state_q/state$FastPwrStateReleaseLcRst_to_fsm$state_q/state$FastPwrStateOtpInit" class="sprotty-edge transition" style="fill:none;stroke:rgb(48, 48, 48);stroke-linejoin:round;"><g><path d=" M536.2578125,396.98697916666663 C536.2578125,396.98697916666663 536.2578125,406.98697916666663 536.2578125,416.98697916666663"/><path d=" M536.2578125,396.98697916666663 C536.2578125,396.98697916666663 536.2578125,406.98697916666663 536.2578125,416.98697916666663" class="clickable"/></g><path d="M 536.2578125,416.98697916666663 L 543.2578125,414.48697916666663 L 543.2578125,419.48697916666663 Z" transform="rotate(-90 536.2578125 416.98697916666663)" class="arrow" style="fill:rgb(48, 48, 48);stroke-linejoin:miter;stroke-miterlimit:2;"/></g><g id="sprotty_fsm$state_q/state$FastPwrStateOtpInit_to_fsm$state_q/state$FastPwrStateLcInit" class="sprotty-edge transition" style="fill:none;stroke:rgb(48, 48, 48);stroke-linejoin:round;"><g><path d=" M536.2578125,456.98697916666663 C536.2578125,456.98697916666663 536.2578125,466.98697916666663 536.2578125,476.98697916666663"/><path d=" M536.2578125,456.98697916666663 C536.2578125,456.98697916666663 536.2578125,466.98697916666663 536.2578125,476.98697916666663" class="clickable"/></g><path d="M 536.2578125,476.98697916666663 L 543.2578125,474.48697916666663 L 543.2578125,479.48697916666663 Z" transform="rotate(-90 536.2578125 476.98697916666663)" class="arrow" style="fill:rgb(48, 48, 48);stroke-linejoin:miter;stroke-miterlimit:2;"/></g><g id="sprotty_fsm$state_q/state$FastPwrStateLcInit_to_fsm$state_q/state$FastPwrStateFlashInit" class="sprotty-edge transition" style="fill:none;stroke:rgb(48, 48, 48);stroke-linejoin:round;"><g><path d=" M536.2578125,516.9869791666666 C536.2578125,516.9869791666666 536.2578125,526.9869791666666 536.2578125,536.9869791666666"/><path d=" M536.2578125,516.9869791666666 C536.2578125,516.9869791666666 536.2578125,526.9869791666666 536.2578125,536.9869791666666" class="clickable"/></g><path d="M 536.2578125,536.9869791666666 L 543.2578125,534.4869791666666 L 543.2578125,539.4869791666666 Z" transform="rotate(-90 536.2578125 536.9869791666666)" class="arrow" style="fill:rgb(48, 48, 48);stroke-linejoin:miter;stroke-miterlimit:2;"/></g><g id="sprotty_fsm$state_q/state$FastPwrStateFlashInit_to_fsm$state_q/state$FastPwrStateAckPwrUp" class="sprotty-edge transition" style="fill:none;stroke:rgb(48, 48, 48);stroke-linejoin:round;"><g><path d=" M536.2578125,576.9869791666666 C536.2578125,576.9869791666666 536.2578125,586.9869791666666 536.2578125,596.9869791666666"/><path d=" M536.2578125,576.9869791666666 C536.2578125,576.9869791666666 536.2578125,586.9869791666666 536.2578125,596.9869791666666" class="clickable"/></g><path d="M 536.2578125,596.9869791666666 L 543.2578125,594.4869791666666 L 543.2578125,599.4869791666666 Z" transform="rotate(-90 536.2578125 596.9869791666666)" class="arrow" style="fill:rgb(48, 48, 48);stroke-linejoin:miter;stroke-miterlimit:2;"/></g><g id="sprotty_fsm$state_q/state$FastPwrStateAckPwrUp_to_fsm$state_q/state$FastPwrStateActive" class="sprotty-edge transition" style="fill:none;stroke:rgb(48, 48, 48);stroke-linejoin:round;"><g><path d=" M536.2578125,636.9869791666666 C536.2578125,636.9869791666666 524.424375,653.5750911458333 417.9234375,670.163203125"/><path d=" M536.2578125,636.9869791666666 C536.2578125,636.9869791666666 524.424375,653.5750911458333 417.9234375,670.163203125" class="clickable"/></g><path d="M 417.9234375,670.163203125 L 424.9234375,667.663203125 L 424.9234375,672.663203125 Z" transform="rotate(-8.853002271828599 417.9234375 670.163203125)" class="arrow" style="fill:rgb(48, 48, 48);stroke-linejoin:miter;stroke-miterlimit:2;"/></g><g id="sprotty_fsm$state_q/state$FastPwrStateActive_to_fsm$state_q/state$FastPwrStateDisClks" class="sprotty-edge transition" style="fill:none;stroke:rgb(48, 48, 48);stroke-linejoin:round;"><g><path d=" M448.9578125,670.163203125 C740.3580729166666,653.5750911458333 740.3580729166666,645.28103515625 740.3580729166665,636.9673404947916 C740.3580729166665,628.6536458333333 740.3580729166665,620.3203125 740.3580729166665,611.9869791666666 C740.3580729166665,603.6536458333333 740.3580729166665,595.3203125 740.3580729166665,581.1536458333333 C740.3580729166665,566.9869791666666 740.3580729166665,546.9869791666666 740.3580729166665,531.9869791666666 C740.3580729166665,516.9869791666666 740.3580729166665,506.98697916666663 740.3580729166665,496.98697916666663 C740.3580729166665,486.98697916666663 740.3580729166665,476.98697916666663 740.3580729166665,461.98697916666663 C740.3580729166665,446.98697916666663 740.3580729166665,426.98697916666663 740.3580729166665,411.98697916666663 C740.3580729166665,396.98697916666663 740.3580729166665,386.98697916666663 740.3580729166665,376.98697916666663 C740.3580729166665,366.98697916666663 740.3580729166665,356.98697916666663 740.3580729166665,341.98697916666663 C740.3580729166665,326.98697916666663 740.3580729166665,306.98697916666663 740.3580729166665,291.98697916666663 C740.3580729166665,276.98697916666663 740.3580729166665,266.98697916666663 740.3580729166665,256.98697916666663 C740.3580729166665,246.98697916666663 740.3580729166665,236.98697916666666 740.3580729166665,221.98697916666666 C740.3580729166665,206.98697916666666 740.3580729166665,186.98697916666666 740.3580729166665,172.8203125 C740.3580729166665,158.65364583333331 740.3580729166665,150.3203125 740.3580729166665,141.98697916666666 C740.3580729166665,133.65364583333331 740.3580729166665,125.3203125 740.3580729166665,116.0302734375 C740.3580729166666,106.740234375 740.3580729166666,96.49348958333333 659.9205729166666,76"/><path d=" M448.9578125,670.163203125 C740.3580729166666,653.5750911458333 740.3580729166666,645.28103515625 740.3580729166665,636.9673404947916 C740.3580729166665,628.6536458333333 740.3580729166665,620.3203125 740.3580729166665,611.9869791666666 C740.3580729166665,603.6536458333333 740.3580729166665,595.3203125 740.3580729166665,581.1536458333333 C740.3580729166665,566.9869791666666 740.3580729166665,546.9869791666666 740.3580729166665,531.9869791666666 C740.3580729166665,516.9869791666666 740.3580729166665,506.98697916666663 740.3580729166665,496.98697916666663 C740.3580729166665,486.98697916666663 740.3580729166665,476.98697916666663 740.3580729166665,461.98697916666663 C740.3580729166665,446.98697916666663 740.3580729166665,426.98697916666663 740.3580729166665,411.98697916666663 C740.3580729166665,396.98697916666663 740.3580729166665,386.98697916666663 740.3580729166665,376.98697916666663 C740.3580729166665,366.98697916666663 740.3580729166665,356.98697916666663 740.3580729166665,341.98697916666663 C740.3580729166665,326.98697916666663 740.3580729166665,306.98697916666663 740.3580729166665,291.98697916666663 C740.3580729166665,276.98697916666663 740.3580729166665,266.98697916666663 740.3580729166665,256.98697916666663 C740.3580729166665,246.98697916666663 740.3580729166665,236.98697916666666 740.3580729166665,221.98697916666666 C740.3580729166665,206.98697916666666 740.3580729166665,186.98697916666666 740.3580729166665,172.8203125 C740.3580729166665,158.65364583333331 740.3580729166665,150.3203125 740.3580729166665,141.98697916666666 C740.3580729166665,133.65364583333331 740.3580729166665,125.3203125 740.3580729166665,116.0302734375 C740.3580729166666,106.740234375 740.3580729166666,96.49348958333333 659.9205729166666,76" class="clickable"/></g><path d="M 659.9205729166666,76 L 666.9205729166666,73.5 L 666.9205729166666,78.5 Z" transform="rotate(14.293463807152362 659.9205729166666 76)" class="arrow" style="fill:rgb(48, 48, 48);stroke-linejoin:miter;stroke-miterlimit:2;"/></g><g id="sprotty_fsm$state_q/state$FastPwrStateDisClks_to_fsm$state_q/state$FastPwrStateNvmShutDown" class="sprotty-edge transition" style="fill:none;stroke:rgb(48, 48, 48);stroke-linejoin:round;"><g><path d=" M618.9830729166666,76 C618.9830729166666,76 618.9830729166666,96.49348958333333 618.9830729166666,116.98697916666666"/><path d=" M618.9830729166666,76 C618.9830729166666,76 618.9830729166666,96.49348958333333 618.9830729166666,116.98697916666666" class="clickable"/></g><path d="M 618.9830729166666,116.98697916666666 L 625.9830729166666,114.48697916666666 L 625.9830729166666,119.48697916666666 Z" transform="rotate(-90 618.9830729166666 116.98697916666666)" class="arrow" style="fill:rgb(48, 48, 48);stroke-linejoin:miter;stroke-miterlimit:2;"/></g><g id="sprotty_fsm$state_q/state$FastPwrStateDisClks_to_fsm$state_q/state$FastPwrStateFallThrough" class="sprotty-edge transition" style="fill:none;stroke:rgb(48, 48, 48);stroke-linejoin:round;"><g><path d=" M578.0455729166666,76 C578.0455729166666,76 209.16276041666669,96.49348958333333 168.17578125,116.98697916666666"/><path d=" M578.0455729166666,76 C578.0455729166666,76 209.16276041666669,96.49348958333333 168.17578125,116.98697916666666" class="clickable"/></g><path d="M 168.17578125,116.98697916666666 L 175.17578125,114.48697916666666 L 175.17578125,119.48697916666666 Z" transform="rotate(-26.565051177077976 168.17578125 116.98697916666666)" class="arrow" style="fill:rgb(48, 48, 48);stroke-linejoin:miter;stroke-miterlimit:2;"/></g><g id="sprotty_fsm$state_q/state$FastPwrStateFallThrough_to_fsm$state_q/state$FastPwrStateActive" class="sprotty-edge transition" style="fill:none;stroke:rgb(48, 48, 48);stroke-linejoin:round;"><g><path d=" M134.90494791666669,156.98697916666666 C134.90494791666669,166.98697916666666 134.90494791666669,181.98697916666666 134.90494791666669,194.48697916666666 C134.90494791666669,206.98697916666666 134.90494791666669,216.98697916666669 134.90494791666669,231.98697916666666 C134.90494791666669,246.98697916666666 134.90494791666669,266.98697916666663 134.90494791666669,281.98697916666663 C134.90494791666669,296.98697916666663 134.90494791666669,306.98697916666663 134.90494791666669,316.98697916666663 C134.90494791666669,326.98697916666663 134.90494791666669,336.9869791666667 134.90494791666666,351.98697916666663 C134.90494791666666,366.98697916666663 134.90494791666666,386.98697916666663 134.90494791666666,401.98697916666663 C134.90494791666669,416.98697916666663 134.90494791666669,426.98697916666663 134.90494791666666,436.9869791666667 C134.90494791666666,446.98697916666663 134.90494791666666,456.9869791666667 134.90494791666666,471.9869791666668 C134.90494791666669,486.9869791666667 134.90494791666669,506.98697916666663 134.90494791666666,521.9869791666666 C134.90494791666666,536.9869791666665 134.90494791666666,546.9869791666666 134.90494791666666,556.9869791666667 C134.90494791666669,566.9869791666666 134.90494791666669,576.9869791666666 134.90494791666666,590.3203125 C134.90494791666666,603.6536458333334 134.90494791666666,620.3203125000001 134.90494791666666,632.8006738281251 C134.90494791666669,645.28103515625 134.90494791666669,653.5750911458333 386.8890625,670.163203125"/><path d=" M134.90494791666669,156.98697916666666 C134.90494791666669,166.98697916666666 134.90494791666669,181.98697916666666 134.90494791666669,194.48697916666666 C134.90494791666669,206.98697916666666 134.90494791666669,216.98697916666669 134.90494791666669,231.98697916666666 C134.90494791666669,246.98697916666666 134.90494791666669,266.98697916666663 134.90494791666669,281.98697916666663 C134.90494791666669,296.98697916666663 134.90494791666669,306.98697916666663 134.90494791666669,316.98697916666663 C134.90494791666669,326.98697916666663 134.90494791666669,336.9869791666667 134.90494791666666,351.98697916666663 C134.90494791666666,366.98697916666663 134.90494791666666,386.98697916666663 134.90494791666666,401.98697916666663 C134.90494791666669,416.98697916666663 134.90494791666669,426.98697916666663 134.90494791666666,436.9869791666667 C134.90494791666666,446.98697916666663 134.90494791666666,456.9869791666667 134.90494791666666,471.9869791666668 C134.90494791666669,486.9869791666667 134.90494791666669,506.98697916666663 134.90494791666666,521.9869791666666 C134.90494791666666,536.9869791666665 134.90494791666666,546.9869791666666 134.90494791666666,556.9869791666667 C134.90494791666669,566.9869791666666 134.90494791666669,576.9869791666666 134.90494791666666,590.3203125 C134.90494791666666,603.6536458333334 134.90494791666666,620.3203125000001 134.90494791666666,632.8006738281251 C134.90494791666669,645.28103515625 134.90494791666669,653.5750911458333 386.8890625,670.163203125" class="clickable"/></g><path d="M 386.8890625,670.163203125 L 393.8890625,667.663203125 L 393.8890625,672.663203125 Z" transform="rotate(-176.23365367827662 386.8890625 670.163203125)" class="arrow" style="fill:rgb(48, 48, 48);stroke-linejoin:miter;stroke-miterlimit:2;"/></g><g id="sprotty_fsm$state_q/state$FastPwrStateFallThrough_to_fsm$state_q/state$FastPwrStateNvmIdleChk" class="sprotty-edge transition" style="fill:none;stroke:rgb(48, 48, 48);stroke-linejoin:round;"><g><path d=" M101.63411458333333,116.98697916666666 C102.74335937500001,96.49348958333333 112.7265625,76 112.7265625,76"/><path d=" M101.63411458333333,116.98697916666666 C102.74335937500001,96.49348958333333 112.7265625,76 112.7265625,76" class="clickable"/></g><path d="M 112.7265625,76 L 119.7265625,73.5 L 119.7265625,78.5 Z" transform="rotate(115.97257587719106 112.7265625 76)" class="arrow" style="fill:rgb(48, 48, 48);stroke-linejoin:miter;stroke-miterlimit:2;"/></g><g id="sprotty_fsm$state_q/state$FastPwrStateNvmIdleChk_to_fsm$state_q/state$FastPwrStateLowPowerPrep" class="sprotty-edge transition" style="fill:none;stroke:rgb(48, 48, 48);stroke-linejoin:round;"><g><path d=" M163.08984375,76 C163.08984375,76 350.35546875,96.49348958333333 371.16276041666663,116.98697916666666"/><path d=" M163.08984375,76 C163.08984375,76 350.35546875,96.49348958333333 371.16276041666663,116.98697916666666" class="clickable"/></g><path d="M 371.16276041666663,116.98697916666666 L 378.16276041666663,114.48697916666666 L 378.16276041666663,119.48697916666666 Z" transform="rotate(-135.4353232182102 371.16276041666663 116.98697916666666)" class="arrow" style="fill:rgb(48, 48, 48);stroke-linejoin:miter;stroke-miterlimit:2;"/></g><g id="sprotty_fsm$state_q/state$FastPwrStateNvmIdleChk_to_fsm$state_q/state$FastPwrStateActive" class="sprotty-edge transition" style="fill:none;stroke:rgb(48, 48, 48);stroke-linejoin:round;"><g><path d=" M62.36328125,76 C24.09244791666667,96.49348958333333 24.09244791666667,106.740234375 24.09244791666667,116.0302734375 C24.09244791666667,125.3203125 24.09244791666667,133.65364583333331 24.09244791666667,141.98697916666666 C24.09244791666667,150.3203125 24.09244791666667,158.65364583333331 24.09244791666667,172.8203125 C24.09244791666667,186.98697916666666 24.09244791666667,206.98697916666666 24.09244791666667,221.98697916666666 C24.09244791666667,236.98697916666666 24.09244791666667,246.98697916666663 24.09244791666667,256.98697916666663 C24.09244791666667,266.98697916666663 24.09244791666667,276.98697916666663 24.09244791666667,291.98697916666663 C24.09244791666667,306.98697916666663 24.09244791666667,326.98697916666663 24.09244791666667,341.98697916666663 C24.09244791666667,356.98697916666663 24.09244791666667,366.98697916666663 24.09244791666667,376.98697916666663 C24.09244791666667,386.98697916666663 24.09244791666667,396.98697916666663 24.09244791666667,411.98697916666663 C24.09244791666667,426.98697916666663 24.09244791666667,446.98697916666663 24.09244791666667,461.98697916666663 C24.09244791666667,476.98697916666663 24.09244791666667,486.98697916666663 24.09244791666667,496.98697916666663 C24.09244791666667,506.98697916666663 24.09244791666667,516.9869791666666 24.09244791666667,531.9869791666666 C24.09244791666667,546.9869791666666 24.09244791666667,566.9869791666666 24.09244791666667,581.1536458333333 C24.09244791666667,595.3203125 24.09244791666667,603.6536458333333 24.09244791666667,611.9869791666666 C24.09244791666667,620.3203125 24.09244791666667,628.6536458333333 24.09244791666667,636.9673404947916 C24.09244791666667,645.28103515625 24.09244791666667,653.5750911458333 355.8546875,670.163203125"/><path d=" M62.36328125,76 C24.09244791666667,96.49348958333333 24.09244791666667,106.740234375 24.09244791666667,116.0302734375 C24.09244791666667,125.3203125 24.09244791666667,133.65364583333331 24.09244791666667,141.98697916666666 C24.09244791666667,150.3203125 24.09244791666667,158.65364583333331 24.09244791666667,172.8203125 C24.09244791666667,186.98697916666666 24.09244791666667,206.98697916666666 24.09244791666667,221.98697916666666 C24.09244791666667,236.98697916666666 24.09244791666667,246.98697916666663 24.09244791666667,256.98697916666663 C24.09244791666667,266.98697916666663 24.09244791666667,276.98697916666663 24.09244791666667,291.98697916666663 C24.09244791666667,306.98697916666663 24.09244791666667,326.98697916666663 24.09244791666667,341.98697916666663 C24.09244791666667,356.98697916666663 24.09244791666667,366.98697916666663 24.09244791666667,376.98697916666663 C24.09244791666667,386.98697916666663 24.09244791666667,396.98697916666663 24.09244791666667,411.98697916666663 C24.09244791666667,426.98697916666663 24.09244791666667,446.98697916666663 24.09244791666667,461.98697916666663 C24.09244791666667,476.98697916666663 24.09244791666667,486.98697916666663 24.09244791666667,496.98697916666663 C24.09244791666667,506.98697916666663 24.09244791666667,516.9869791666666 24.09244791666667,531.9869791666666 C24.09244791666667,546.9869791666666 24.09244791666667,566.9869791666666 24.09244791666667,581.1536458333333 C24.09244791666667,595.3203125 24.09244791666667,603.6536458333333 24.09244791666667,611.9869791666666 C24.09244791666667,620.3203125 24.09244791666667,628.6536458333333 24.09244791666667,636.9673404947916 C24.09244791666667,645.28103515625 24.09244791666667,653.5750911458333 355.8546875,670.163203125" class="clickable"/></g><path d="M 355.8546875,670.163203125 L 362.8546875,667.663203125 L 362.8546875,672.663203125 Z" transform="rotate(-177.13759477388828 355.8546875 670.163203125)" class="arrow" style="fill:rgb(48, 48, 48);stroke-linejoin:miter;stroke-miterlimit:2;"/></g><g id="sprotty_fsm$state_q/state$FastPwrStateLowPowerPrep_to_fsm$state_q/state$FastPwrStateReqPwrDn" class="sprotty-edge transition" style="fill:none;stroke:rgb(48, 48, 48);stroke-linejoin:round;"><g><path d=" M371.16276041666663,156.98697916666666 C371.16276041666663,156.98697916666666 371.16276041666663,166.98697916666666 371.16276041666663,176.98697916666666"/><path d=" M371.16276041666663,156.98697916666666 C371.16276041666663,156.98697916666666 371.16276041666663,166.98697916666666 371.16276041666663,176.98697916666666" class="clickable"/></g><path d="M 371.16276041666663,176.98697916666666 L 378.16276041666663,174.48697916666666 L 378.16276041666663,179.48697916666666 Z" transform="rotate(-90 371.16276041666663 176.98697916666666)" class="arrow" style="fill:rgb(48, 48, 48);stroke-linejoin:miter;stroke-miterlimit:2;"/></g><g id="sprotty_fsm$state_q/state$FastPwrStateReqPwrDn_to_fsm$state_q/state$FastPwrStateLowPower" class="sprotty-edge transition" style="fill:none;stroke:rgb(48, 48, 48);stroke-linejoin:round;"><g><path d=" M371.16276041666663,216.98697916666666 C371.16276041666663,216.98697916666666 384.52773437499997,226.98697916666666 504.8125,236.98697916666666"/><path d=" M371.16276041666663,216.98697916666666 C371.16276041666663,216.98697916666666 384.52773437499997,226.98697916666666 504.8125,236.98697916666666" class="clickable"/></g><path d="M 504.8125,236.98697916666666 L 511.8125,234.48697916666666 L 511.8125,239.48697916666666 Z" transform="rotate(-175.2475841764195 504.8125 236.98697916666666)" class="arrow" style="fill:rgb(48, 48, 48);stroke-linejoin:miter;stroke-miterlimit:2;"/></g><g id="sprotty_fsm$state_q/state$FastPwrStateNvmShutDown_to_fsm$state_q/state$FastPwrStateResetPrep" class="sprotty-edge transition" style="fill:none;stroke:rgb(48, 48, 48);stroke-linejoin:round;"><g><path d=" M618.9830729166666,156.98697916666666 C618.9830729166666,156.98697916666666 618.9830729166666,166.98697916666666 618.9830729166666,176.98697916666666"/><path d=" M618.9830729166666,156.98697916666666 C618.9830729166666,156.98697916666666 618.9830729166666,166.98697916666666 618.9830729166666,176.98697916666666" class="clickable"/></g><path d="M 618.9830729166666,176.98697916666666 L 625.9830729166666,174.48697916666666 L 625.9830729166666,179.48697916666666 Z" transform="rotate(-90 618.9830729166666 176.98697916666666)" class="arrow" style="fill:rgb(48, 48, 48);stroke-linejoin:miter;stroke-miterlimit:2;"/></g><g id="sprotty_fsm$state_q/state$FastPwrStateResetPrep_to_fsm$state_q/state$FastPwrStateLowPower" class="sprotty-edge transition" style="fill:none;stroke:rgb(48, 48, 48);stroke-linejoin:round;"><g><path d=" M618.9830729166666,216.98697916666666 C618.9830729166666,216.98697916666666 613.8550781249999,226.98697916666666 567.703125,236.98697916666666"/><path d=" M618.9830729166666,216.98697916666666 C618.9830729166666,216.98697916666666 613.8550781249999,226.98697916666666 567.703125,236.98697916666666" class="clickable"/></g><path d="M 567.703125,236.98697916666666 L 574.703125,234.48697916666666 L 574.703125,239.48697916666666 Z" transform="rotate(-12.225609035283448 567.703125 236.98697916666666)" class="arrow" style="fill:rgb(48, 48, 48);stroke-linejoin:miter;stroke-miterlimit:2;"/></g></g></g></svg>