<svg xmlns="http://www.w3.org/2000/svg" id="sprotty_root" class="sprotty-graph sprotty-state-machine statemachine" style="font-family:&quot;Noto Sans&quot;, Helvetica, Arial, sans-serif;perspective-origin:0px 0px;transform-origin:0px 0px;" version="1.1" viewBox="10 10 156.046875 398" width="156.046875" height="398"><g transform="scale(1) translate(0,0)"><g id="sprotty_fsm$st_q" transform="translate(15, 15)" class="statemachine"><g class="sprotty-block" style="fill:rgb(255, 255, 255);stroke:rgb(48, 48, 48);stroke-dasharray:0px;"><rect x="0" y="0" rx="1" ry="1" width="146.046875" height="388"/><text x="73.0234375" y="12" class="sprotty-block-name" style="cursor:pointer;font-weight:700;perspective-origin:73.0156px 0px;fill:rgb(48, 48, 48);stroke:rgba(0, 0, 0, 0);dominant-baseline:middle;text-anchor:middle;">st_q</text><line x1="0" y1="20" x2="146.046875" y2="20"/></g><g id="sprotty_fsm$st_q/state$StLenHi" transform="translate(62.671875, 156)" class="state"><ellipse cx="35.15625" cy="20" rx="35.15625" ry="20" class="sprotty-node clickable" style="fill:rgb(255, 255, 255);stroke:rgb(48, 48, 48);"/><text class="clickable sprotty-label state" id="sprotty_fsm$st_q/state$StLenHi/label" transform="translate(6, 8) translate(29.15625, 19)" style="cursor:default;perspective-origin:0px 0px;fill:rgb(48, 48, 48);text-anchor:middle;">StLenHi</text></g><g id="sprotty_fsm$st_q/state$StIdle" transform="translate(70.1640625, 276)" class="state"><ellipse cx="27.6640625" cy="20" rx="27.6640625" ry="20" class="sprotty-node clickable" style="fill:rgb(255, 255, 255);stroke:rgb(48, 48, 48);"/><text class="clickable sprotty-label state" id="sprotty_fsm$st_q/state$StIdle/label" transform="translate(6, 8) translate(21.59375, 19)" style="cursor:default;perspective-origin:0.0625px 0px;fill:rgb(48, 48, 48);text-anchor:middle;">StIdle</text></g><g id="sprotty_fsm$st_q/state$StFifoReceive" transform="translate(12, 336)" class="state"><ellipse cx="56.1328125" cy="20" rx="56.1328125" ry="20" class="sprotty-node clickable" style="fill:rgb(255, 255, 255);stroke:rgb(48, 48, 48);"/><text class="clickable sprotty-label state" id="sprotty_fsm$st_q/state$StFifoReceive/label" transform="translate(6, 8) translate(50.0625, 19)" style="cursor:default;perspective-origin:0.0625px 0px;fill:rgb(48, 48, 48);text-anchor:middle;">StFifoReceive</text></g><g id="sprotty_fsm$st_q/state$StLenLo" transform="translate(61.609375, 216)" class="state"><ellipse cx="36.21875" cy="20" rx="36.21875" ry="20" class="sprotty-node clickable" style="fill:rgb(255, 255, 255);stroke:rgb(48, 48, 48);"/><text class="clickable sprotty-label state" id="sprotty_fsm$st_q/state$StLenLo/label" transform="translate(6, 8) translate(30.21875, 19)" style="cursor:default;perspective-origin:0px 0px;fill:rgb(48, 48, 48);text-anchor:middle;">StLenLo</text></g><g id="sprotty_fsm$st_q/state$StPad80" transform="translate(37.3203125, 36)" class="state"><ellipse cx="36.671875" cy="20" rx="36.671875" ry="20" class="sprotty-node clickable" style="fill:rgb(255, 255, 255);stroke:rgb(48, 48, 48);"/><text class="clickable sprotty-label state" id="sprotty_fsm$st_q/state$StPad80/label" transform="translate(6, 8) translate(30.609375, 19)" style="cursor:default;perspective-origin:0.0625px 0px;fill:rgb(48, 48, 48);text-anchor:middle;">StPad80</text></g><g id="sprotty_fsm$st_q/state$StPad00" transform="translate(37.8203125, 96)" class="state"><ellipse cx="36.671875" cy="20" rx="36.671875" ry="20" class="sprotty-node clickable" style="fill:rgb(255, 255, 255);stroke:rgb(48, 48, 48);"/><text class="clickable sprotty-label state" id="sprotty_fsm$st_q/state$StPad00/label" transform="translate(6, 8) translate(30.609375, 19)" style="cursor:default;perspective-origin:0.0625px 0px;fill:rgb(48, 48, 48);text-anchor:middle;">StPad00</text></g><g id="sprotty_fsm$st_q/state$StIdle_to_fsm$st_q/state$StFifoReceive" class="sprotty-edge transition" style="fill:none;stroke:rgb(48, 48, 48);stroke-linejoin:round;"><g><path d=" M97.828125,316 C97.828125,316 96.7296875,326 86.84375,336"/><path d=" M97.828125,316 C97.828125,316 96.7296875,326 86.84375,336" class="clickable"/></g><path d="M 86.84375,336 L 93.84375,333.5 L 93.84375,338.5 Z" transform="rotate(-45.32863565934696 86.84375 336)" class="arrow" style="fill:rgb(48, 48, 48);stroke-linejoin:miter;stroke-miterlimit:2;"/></g><g id="sprotty_fsm$st_q/state$StFifoReceive_to_fsm$st_q/state$StPad80" class="sprotty-edge transition" style="fill:none;stroke:rgb(48, 48, 48);stroke-linejoin:round;"><g><path d=" M49.421875,336 C26.8203125,326 26.8203125,321 26.8203125,310.16666666666663 C26.8203125,299.3333333333333 26.8203125,282.66666666666663 26.8203125,269.3333333333333 C26.8203125,256 26.8203125,246 26.8203125,236 C26.8203125,226 26.8203125,216 26.8203125,201 C26.8203125,186 26.8203125,166 26.8203125,151.83333333333331 C26.8203125,137.66666666666666 26.8203125,129.33333333333331 26.8203125,121 C26.8203125,112.66666666666666 26.8203125,104.33333333333333 26.8203125,97.66666666666666 C26.8203125,91 26.8203125,86 55.65625,76"/><path d=" M49.421875,336 C26.8203125,326 26.8203125,321 26.8203125,310.16666666666663 C26.8203125,299.3333333333333 26.8203125,282.66666666666663 26.8203125,269.3333333333333 C26.8203125,256 26.8203125,246 26.8203125,236 C26.8203125,226 26.8203125,216 26.8203125,201 C26.8203125,186 26.8203125,166 26.8203125,151.83333333333331 C26.8203125,137.66666666666666 26.8203125,129.33333333333331 26.8203125,121 C26.8203125,112.66666666666666 26.8203125,104.33333333333333 26.8203125,97.66666666666666 C26.8203125,91 26.8203125,86 55.65625,76" class="clickable"/></g><path d="M 55.65625,76 L 62.65625,73.5 L 62.65625,78.5 Z" transform="rotate(160.87399174460606 55.65625 76)" class="arrow" style="fill:rgb(48, 48, 48);stroke-linejoin:miter;stroke-miterlimit:2;"/></g><g id="sprotty_fsm$st_q/state$StPad80_to_fsm$st_q/state$StLenHi" class="sprotty-edge transition" style="fill:none;stroke:rgb(48, 48, 48);stroke-linejoin:round;"><g><path d=" M92.328125,76 C121.1640625,86 121.1640625,91 121.1640625,96.83333333333333 C121.1640625,102.66666666666666 121.1640625,109.33333333333333 121.1640625,116 C121.1640625,122.66666666666666 121.1640625,129.33333333333331 121.1640625,135.16666666666666 C121.1640625,141 121.1640625,146 109.546875,156"/><path d=" M92.328125,76 C121.1640625,86 121.1640625,91 121.1640625,96.83333333333333 C121.1640625,102.66666666666666 121.1640625,109.33333333333333 121.1640625,116 C121.1640625,122.66666666666666 121.1640625,129.33333333333331 121.1640625,135.16666666666666 C121.1640625,141 121.1640625,146 109.546875,156" class="clickable"/></g><path d="M 109.546875,156 L 116.546875,153.5 L 116.546875,158.5 Z" transform="rotate(-40.72165709836041 109.546875 156)" class="arrow" style="fill:rgb(48, 48, 48);stroke-linejoin:miter;stroke-miterlimit:2;"/></g><g id="sprotty_fsm$st_q/state$StPad80_to_fsm$st_q/state$StPad00" class="sprotty-edge transition" style="fill:none;stroke:rgb(48, 48, 48);stroke-linejoin:round;"><g><path d=" M73.9921875,76 C73.9921875,76 74.4421875,86 74.4921875,96"/><path d=" M73.9921875,76 C73.9921875,76 74.4421875,86 74.4921875,96" class="clickable"/></g><path d="M 74.4921875,96 L 81.4921875,93.5 L 81.4921875,98.5 Z" transform="rotate(-90.28647651027707 74.4921875 96)" class="arrow" style="fill:rgb(48, 48, 48);stroke-linejoin:miter;stroke-miterlimit:2;"/></g><g id="sprotty_fsm$st_q/state$StPad00_to_fsm$st_q/state$StLenHi" class="sprotty-edge transition" style="fill:none;stroke:rgb(48, 48, 48);stroke-linejoin:round;"><g><path d=" M74.4921875,136 C74.4921875,136 75.65390625,146 86.109375,156"/><path d=" M74.4921875,136 C74.4921875,136 75.65390625,146 86.109375,156" class="clickable"/></g><path d="M 86.109375,156 L 93.109375,153.5 L 93.109375,158.5 Z" transform="rotate(-136.27555745052751 86.109375 156)" class="arrow" style="fill:rgb(48, 48, 48);stroke-linejoin:miter;stroke-miterlimit:2;"/></g><g id="sprotty_fsm$st_q/state$StLenHi_to_fsm$st_q/state$StLenLo" class="sprotty-edge transition" style="fill:none;stroke:rgb(48, 48, 48);stroke-linejoin:round;"><g><path d=" M97.828125,196 C97.828125,196 97.828125,206 97.828125,216"/><path d=" M97.828125,196 C97.828125,196 97.828125,206 97.828125,216" class="clickable"/></g><path d="M 97.828125,216 L 104.828125,213.5 L 104.828125,218.5 Z" transform="rotate(-90 97.828125 216)" class="arrow" style="fill:rgb(48, 48, 48);stroke-linejoin:miter;stroke-miterlimit:2;"/></g><g id="sprotty_fsm$st_q/state$StLenLo_to_fsm$st_q/state$StIdle" class="sprotty-edge transition" style="fill:none;stroke:rgb(48, 48, 48);stroke-linejoin:round;"><g><path d=" M97.828125,256 C97.828125,256 97.828125,266 97.828125,276"/><path d=" M97.828125,256 C97.828125,256 97.828125,266 97.828125,276" class="clickable"/></g><path d="M 97.828125,276 L 104.828125,273.5 L 104.828125,278.5 Z" transform="rotate(-90 97.828125 276)" class="arrow" style="fill:rgb(48, 48, 48);stroke-linejoin:miter;stroke-miterlimit:2;"/></g></g></g></svg>