<svg xmlns="http://www.w3.org/2000/svg" id="sprotty_root" class="sprotty-graph sprotty-state-machine statemachine" style="font-family:&quot;Noto Sans&quot;, Helvetica, Arial, sans-serif;perspective-origin:0px 0px;transform-origin:0px 0px;" version="1.1" viewBox="10 10 184.2421875 218" width="184.2421875" height="218"><g transform="scale(1) translate(0,0)"><g id="sprotty_fsm$sha_st_q" transform="translate(15, 15)" class="statemachine"><g class="sprotty-block" style="fill:rgb(255, 255, 255);stroke:rgb(48, 48, 48);stroke-dasharray:0px;"><rect x="0" y="0" rx="1" ry="1" width="174.2421875" height="208"/><text x="87.12109375" y="12" class="sprotty-block-name" style="cursor:pointer;font-weight:700;perspective-origin:87.1094px 0px;fill:rgb(48, 48, 48);stroke:rgba(0, 0, 0, 0);dominant-baseline:middle;text-anchor:middle;">sha_st_q</text><line x1="0" y1="20" x2="174.2421875" y2="20"/></g><g id="sprotty_fsm$sha_st_q/state$ShaCompress" transform="translate(24.15625, 156)" class="state"><ellipse cx="57.40625" cy="20" rx="57.40625" ry="20" class="sprotty-node clickable" style="fill:rgb(255, 255, 255);stroke:rgb(48, 48, 48);"/><text class="clickable sprotty-label state" id="sprotty_fsm$sha_st_q/state$ShaCompress/label" transform="translate(6, 8) translate(51.40625, 19)" style="cursor:default;perspective-origin:0px 0px;fill:rgb(48, 48, 48);text-anchor:middle;">ShaCompress</text></g><g id="sprotty_fsm$sha_st_q/state$ShaUpdateDigest" transform="translate(12, 36)" class="state"><ellipse cx="70.65625" cy="20" rx="70.65625" ry="20" class="sprotty-node clickable" style="fill:rgb(255, 255, 255);stroke:rgb(48, 48, 48);"/><text class="clickable sprotty-label state" id="sprotty_fsm$sha_st_q/state$ShaUpdateDigest/label" transform="translate(6, 8) translate(64.65625, 19)" style="cursor:default;perspective-origin:0px 0px;fill:rgb(48, 48, 48);text-anchor:middle;">ShaUpdateDigest</text></g><g id="sprotty_fsm$sha_st_q/state$ShaIdle" transform="translate(93.7734375, 96)" class="state"><ellipse cx="34.234375" cy="20" rx="34.234375" ry="20" class="sprotty-node clickable" style="fill:rgb(255, 255, 255);stroke:rgb(48, 48, 48);"/><text class="clickable sprotty-label state" id="sprotty_fsm$sha_st_q/state$ShaIdle/label" transform="translate(6, 8) translate(28.171875, 19)" style="cursor:default;perspective-origin:0.0625px 0px;fill:rgb(48, 48, 48);text-anchor:middle;">ShaIdle</text></g><g id="sprotty_fsm$sha_st_q/state$ShaIdle_to_fsm$sha_st_q/state$ShaCompress" class="sprotty-edge transition" style="fill:none;stroke:rgb(48, 48, 48);stroke-linejoin:round;"><g><path d=" M128.0078125,136 C128.0078125,136 126.23359375,146 110.265625,156"/><path d=" M128.0078125,136 C128.0078125,136 126.23359375,146 110.265625,156" class="clickable"/></g><path d="M 110.265625,156 L 117.265625,153.5 L 117.265625,158.5 Z" transform="rotate(-32.05700963491571 110.265625 156)" class="arrow" style="fill:rgb(48, 48, 48);stroke-linejoin:miter;stroke-miterlimit:2;"/></g><g id="sprotty_fsm$sha_st_q/state$ShaCompress_to_fsm$sha_st_q/state$ShaUpdateDigest" class="sprotty-edge transition" style="fill:none;stroke:rgb(48, 48, 48);stroke-linejoin:round;"><g><path d=" M81.5625,156 C82.7734375,146 82.7734375,141 82.76855468749999,134.33333333333331 C82.76367187499999,127.66666666666666 82.75390625,119.33333333333334 82.74169921875,108.91666666666667 C82.7294921875,98.5 82.71484375,86 82.65625,76"/><path d=" M81.5625,156 C82.7734375,146 82.7734375,141 82.76855468749999,134.33333333333331 C82.76367187499999,127.66666666666666 82.75390625,119.33333333333334 82.74169921875,108.91666666666667 C82.7294921875,98.5 82.71484375,86 82.65625,76" class="clickable"/></g><path d="M 82.65625,76 L 89.65625,73.5 L 89.65625,78.5 Z" transform="rotate(89.6642863838178 82.65625 76)" class="arrow" style="fill:rgb(48, 48, 48);stroke-linejoin:miter;stroke-miterlimit:2;"/></g><g id="sprotty_fsm$sha_st_q/state$ShaUpdateDigest_to_fsm$sha_st_q/state$ShaCompress" class="sprotty-edge transition" style="fill:none;stroke:rgb(48, 48, 48);stroke-linejoin:round;"><g><path d=" M47.328125,76 C31.7734375,86 31.7734375,91 31.7734375,96.83333333333333 C31.7734375,102.66666666666666 31.7734375,109.33333333333333 31.7734375,116 C31.7734375,122.66666666666666 31.7734375,129.33333333333331 31.7734375,135.16666666666666 C31.7734375,141 31.7734375,146 52.859375,156"/><path d=" M47.328125,76 C31.7734375,86 31.7734375,91 31.7734375,96.83333333333333 C31.7734375,102.66666666666666 31.7734375,109.33333333333333 31.7734375,116 C31.7734375,122.66666666666666 31.7734375,129.33333333333331 31.7734375,135.16666666666666 C31.7734375,141 31.7734375,146 52.859375,156" class="clickable"/></g><path d="M 52.859375,156 L 59.859375,153.5 L 59.859375,158.5 Z" transform="rotate(-154.62736623910496 52.859375 156)" class="arrow" style="fill:rgb(48, 48, 48);stroke-linejoin:miter;stroke-miterlimit:2;"/></g><g id="sprotty_fsm$sha_st_q/state$ShaUpdateDigest_to_fsm$sha_st_q/state$ShaIdle" class="sprotty-edge transition" style="fill:none;stroke:rgb(48, 48, 48);stroke-linejoin:round;"><g><path d=" M117.984375,76 C117.984375,76 127.00546875,86 128.0078125,96"/><path d=" M117.984375,76 C117.984375,76 127.00546875,86 128.0078125,96" class="clickable"/></g><path d="M 128.0078125,96 L 135.0078125,93.5 L 135.0078125,98.5 Z" transform="rotate(-95.72388856964879 128.0078125 96)" class="arrow" style="fill:rgb(48, 48, 48);stroke-linejoin:miter;stroke-miterlimit:2;"/></g></g></g></svg>