<svg xmlns="http://www.w3.org/2000/svg" id="sprotty_root" class="sprotty-graph sprotty-state-machine statemachine" style="font-family:&quot;Noto Sans&quot;, Helvetica, Arial, sans-serif;perspective-origin:0px 0px;transform-origin:0px 0px;" version="1.1" viewBox="10 10 188.78125 218" width="188.78125" height="218"><g transform="scale(1) translate(0,0)"><g id="sprotty_fsm$fifo_st_q" transform="translate(15, 15)" class="statemachine"><g class="sprotty-block" style="fill:rgb(255, 255, 255);stroke:rgb(48, 48, 48);stroke-dasharray:0px;"><rect x="0" y="0" rx="1" ry="1" width="178.78125" height="208"/><text x="89.390625" y="12" class="sprotty-block-name" style="cursor:pointer;font-weight:700;perspective-origin:89.3906px 0px;fill:rgb(48, 48, 48);stroke:rgba(0, 0, 0, 0);dominant-baseline:middle;text-anchor:middle;">fifo_st_q</text><line x1="0" y1="20" x2="178.78125" y2="20"/></g><g id="sprotty_fsm$fifo_st_q/state$FifoLoadFromFifo" transform="translate(12, 96)" class="state"><ellipse cx="71.890625" cy="20" rx="71.890625" ry="20" class="sprotty-node clickable" style="fill:rgb(255, 255, 255);stroke:rgb(48, 48, 48);"/><text class="clickable sprotty-label state" id="sprotty_fsm$fifo_st_q/state$FifoLoadFromFifo/label" transform="translate(6, 8) translate(65.890625, 19)" style="cursor:default;perspective-origin:0px 0px;fill:rgb(48, 48, 48);text-anchor:middle;">FifoLoadFromFifo</text></g><g id="sprotty_fsm$fifo_st_q/state$FifoWait" transform="translate(71.26041666666667, 36)" class="state"><ellipse cx="36.59375" cy="20" rx="36.59375" ry="20" class="sprotty-node clickable" style="fill:rgb(255, 255, 255);stroke:rgb(48, 48, 48);"/><text class="clickable sprotty-label state" id="sprotty_fsm$fifo_st_q/state$FifoWait/label" transform="translate(6, 8) translate(30.59375, 19)" style="cursor:default;perspective-origin:0px 0px;fill:rgb(48, 48, 48);text-anchor:middle;">FifoWait</text></g><g id="sprotty_fsm$fifo_st_q/state$FifoIdle" transform="translate(66.35546875, 156)" class="state"><ellipse cx="34.0703125" cy="20" rx="34.0703125" ry="20" class="sprotty-node clickable" style="fill:rgb(255, 255, 255);stroke:rgb(48, 48, 48);"/><text class="clickable sprotty-label state" id="sprotty_fsm$fifo_st_q/state$FifoIdle/label" transform="translate(6, 8) translate(28, 19)" style="cursor:default;perspective-origin:0.0625px 0px;fill:rgb(48, 48, 48);text-anchor:middle;">FifoIdle</text></g><g id="sprotty_fsm$fifo_st_q/state$FifoIdle_to_fsm$fifo_st_q/state$FifoLoadFromFifo" class="sprotty-edge transition" style="fill:none;stroke:rgb(48, 48, 48);stroke-linejoin:round;"><g><path d=" M83.390625,156 C62.27343750000001,146 59.927083333333336,136 59.927083333333336,136"/><path d=" M83.390625,156 C62.27343750000001,146 59.927083333333336,136 59.927083333333336,136" class="clickable"/></g><path d="M 59.927083333333336,136 L 66.92708333333334,133.5 L 66.92708333333334,138.5 Z" transform="rotate(76.79524627433497 59.927083333333336 136)" class="arrow" style="fill:rgb(48, 48, 48);stroke-linejoin:miter;stroke-miterlimit:2;"/></g><g id="sprotty_fsm$fifo_st_q/state$FifoLoadFromFifo_to_fsm$fifo_st_q/state$FifoIdle" class="sprotty-edge transition" style="fill:none;stroke:rgb(48, 48, 48);stroke-linejoin:round;"><g><path d=" M107.85416666666667,136 C107.85416666666667,136 107.11132812500001,146 100.42578125,156"/><path d=" M107.85416666666667,136 C107.85416666666667,136 107.11132812500001,146 100.42578125,156" class="clickable"/></g><path d="M 100.42578125,156 L 107.42578125,153.5 L 107.42578125,158.5 Z" transform="rotate(-56.23510690159534 100.42578125 156)" class="arrow" style="fill:rgb(48, 48, 48);stroke-linejoin:miter;stroke-miterlimit:2;"/></g><g id="sprotty_fsm$fifo_st_q/state$FifoLoadFromFifo_to_fsm$fifo_st_q/state$FifoWait" class="sprotty-edge transition" style="fill:none;stroke:rgb(48, 48, 48);stroke-linejoin:round;"><g><path d=" M59.927083333333336,96 C62.89010416666667,86 89.55729166666667,76 89.55729166666667,76"/><path d=" M59.927083333333336,96 C62.89010416666667,86 89.55729166666667,76 89.55729166666667,76" class="clickable"/></g><path d="M 89.55729166666667,76 L 96.55729166666667,73.5 L 96.55729166666667,78.5 Z" transform="rotate(159.44432268365992 89.55729166666667 76)" class="arrow" style="fill:rgb(48, 48, 48);stroke-linejoin:miter;stroke-miterlimit:2;"/></g><g id="sprotty_fsm$fifo_st_q/state$FifoWait_to_fsm$fifo_st_q/state$FifoIdle" class="sprotty-edge transition" style="fill:none;stroke:rgb(48, 48, 48);stroke-linejoin:round;"><g><path d=" M126.15104166666667,76 C165.78125,86 165.78125,91 165.78125,96.83333333333333 C165.78125,102.66666666666666 165.78125,109.33333333333333 165.78125,116 C165.78125,122.66666666666666 165.78125,129.33333333333331 165.78125,135.16666666666666 C165.78125,141 165.78125,146 117.4609375,156"/><path d=" M126.15104166666667,76 C165.78125,86 165.78125,91 165.78125,96.83333333333333 C165.78125,102.66666666666666 165.78125,109.33333333333333 165.78125,116 C165.78125,122.66666666666666 165.78125,129.33333333333331 165.78125,135.16666666666666 C165.78125,141 165.78125,146 117.4609375,156" class="clickable"/></g><path d="M 117.4609375,156 L 124.4609375,153.5 L 124.4609375,158.5 Z" transform="rotate(-11.692432383729097 117.4609375 156)" class="arrow" style="fill:rgb(48, 48, 48);stroke-linejoin:miter;stroke-miterlimit:2;"/></g><g id="sprotty_fsm$fifo_st_q/state$FifoWait_to_fsm$fifo_st_q/state$FifoLoadFromFifo" class="sprotty-edge transition" style="fill:none;stroke:rgb(48, 48, 48);stroke-linejoin:round;"><g><path d=" M107.85416666666667,76 C107.85416666666667,76 107.85416666666667,86 107.85416666666667,96"/><path d=" M107.85416666666667,76 C107.85416666666667,76 107.85416666666667,86 107.85416666666667,96" class="clickable"/></g><path d="M 107.85416666666667,96 L 114.85416666666667,93.5 L 114.85416666666667,98.5 Z" transform="rotate(-90 107.85416666666667 96)" class="arrow" style="fill:rgb(48, 48, 48);stroke-linejoin:miter;stroke-miterlimit:2;"/></g></g></g></svg>