<svg xmlns="http://www.w3.org/2000/svg" id="sprotty_root" class="sprotty-graph sprotty-state-machine statemachine" style="font-family:&quot;Noto Sans&quot;, Helvetica, Arial, sans-serif;perspective-origin:0px 0px;transform-origin:0px 0px;" version="1.1" viewBox="10 10 249.375 278" width="249.375" height="278"><g transform="scale(1) translate(0,0)"><g id="sprotty_fsm$st" transform="translate(15, 15)" class="statemachine"><g class="sprotty-block" style="fill:rgb(255, 255, 255);stroke:rgb(48, 48, 48);stroke-dasharray:0px;"><rect x="0" y="0" rx="1" ry="1" width="239.375" height="268"/><text x="119.6875" y="12" class="sprotty-block-name" style="cursor:pointer;font-weight:700;perspective-origin:119.828px 0px;fill:rgb(48, 48, 48);stroke:rgba(0, 0, 0, 0);dominant-baseline:middle;text-anchor:middle;">st</text><line x1="0" y1="20" x2="239.375" y2="20"/></g><g id="sprotty_fsm$st/state$StSqueeze" transform="translate(43.31354166666665, 36)" class="state"><ellipse cx="45.2421875" cy="20" rx="45.2421875" ry="20" class="sprotty-node clickable" style="fill:rgb(255, 255, 255);stroke:rgb(48, 48, 48);"/><text class="clickable sprotty-label state" id="sprotty_fsm$st/state$StSqueeze/label" transform="translate(6, 8) translate(39.171875, 19)" style="cursor:default;perspective-origin:0.0625px 0px;fill:rgb(48, 48, 48);text-anchor:middle;">StSqueeze</text></g><g id="sprotty_fsm$st/state$StIdle" transform="translate(165.9765625, 156)" class="state"><ellipse cx="27.6640625" cy="20" rx="27.6640625" ry="20" class="sprotty-node clickable" style="fill:rgb(255, 255, 255);stroke:rgb(48, 48, 48);"/><text class="clickable sprotty-label state" id="sprotty_fsm$st/state$StIdle/label" transform="translate(6, 8) translate(21.59375, 19)" style="cursor:default;perspective-origin:0.0625px 0px;fill:rgb(48, 48, 48);text-anchor:middle;">StIdle</text></g><g id="sprotty_fsm$st/state$StAbsorb" transform="translate(62.734375, 216)" class="state"><ellipse cx="40.0859375" cy="20" rx="40.0859375" ry="20" class="sprotty-node clickable" style="fill:rgb(255, 255, 255);stroke:rgb(48, 48, 48);"/><text class="clickable sprotty-label state" id="sprotty_fsm$st/state$StAbsorb/label" transform="translate(6, 8) translate(34.03125, 19)" style="cursor:default;perspective-origin:0.046875px 0px;fill:rgb(48, 48, 48);text-anchor:middle;">StAbsorb</text></g><g id="sprotty_fsm$st/state$StManualRun" transform="translate(23, 96)" class="state"><ellipse cx="55.953125" cy="20" rx="55.953125" ry="20" class="sprotty-node clickable" style="fill:rgb(255, 255, 255);stroke:rgb(48, 48, 48);"/><text class="clickable sprotty-label state" id="sprotty_fsm$st/state$StManualRun/label" transform="translate(6, 8) translate(49.953125, 19)" style="cursor:default;perspective-origin:0px 0px;fill:rgb(48, 48, 48);text-anchor:middle;">StManualRun</text></g><g id="sprotty_fsm$st/state$StFlush" transform="translate(159.90625, 96)" class="state"><ellipse cx="33.734375" cy="20" rx="33.734375" ry="20" class="sprotty-node clickable" style="fill:rgb(255, 255, 255);stroke:rgb(48, 48, 48);"/><text class="clickable sprotty-label state" id="sprotty_fsm$st/state$StFlush/label" transform="translate(6, 8) translate(27.734375, 19)" style="cursor:default;perspective-origin:0px 0px;fill:rgb(48, 48, 48);text-anchor:middle;">StFlush</text></g><g id="sprotty_fsm$st/state$StIdle_to_fsm$st/state$StAbsorb" class="sprotty-edge transition" style="fill:none;stroke:rgb(48, 48, 48);stroke-linejoin:round;"><g><path d=" M193.640625,196 C193.640625,196 185.89479166666666,206 116.18229166666666,216"/><path d=" M193.640625,196 C193.640625,196 185.89479166666666,206 116.18229166666666,216" class="clickable"/></g><path d="M 116.18229166666666,216 L 123.18229166666666,213.5 L 123.18229166666666,218.5 Z" transform="rotate(-8.163180563508417 116.18229166666666 216)" class="arrow" style="fill:rgb(48, 48, 48);stroke-linejoin:miter;stroke-miterlimit:2;"/></g><g id="sprotty_fsm$st/state$StAbsorb_to_fsm$st/state$StSqueeze" class="sprotty-edge transition" style="fill:none;stroke:rgb(48, 48, 48);stroke-linejoin:round;"><g><path d=" M89.45833333333333,216 C12,206 11.999999999999986,201 11.999999999999986,190.1666666666667 C11.999999999999986,179.33333333333337 12,162.66666666666669 11.999999999999986,150.16666666666669 C12,137.66666666666669 12.000000000000014,129.33333333333331 12.000000000000028,121 C12.000000000000028,112.66666666666666 12,104.33333333333334 12,97.66666666666669 C12,91 12,86 61.41041666666665,76"/><path d=" M89.45833333333333,216 C12,206 11.999999999999986,201 11.999999999999986,190.1666666666667 C11.999999999999986,179.33333333333337 12,162.66666666666669 11.999999999999986,150.16666666666669 C12,137.66666666666669 12.000000000000014,129.33333333333331 12.000000000000028,121 C12.000000000000028,112.66666666666666 12,104.33333333333334 12,97.66666666666669 C12,91 12,86 61.41041666666665,76" class="clickable"/></g><path d="M 61.41041666666665,76 L 68.41041666666665,73.5 L 68.41041666666665,78.5 Z" transform="rotate(168.55865222291683 61.41041666666665 76)" class="arrow" style="fill:rgb(48, 48, 48);stroke-linejoin:miter;stroke-miterlimit:2;"/></g><g id="sprotty_fsm$st/state$StSqueeze_to_fsm$st/state$StManualRun" class="sprotty-edge transition" style="fill:none;stroke:rgb(48, 48, 48);stroke-linejoin:round;"><g><path d=" M97.60416666666666,76 C97.60416666666666,76 97.60416666666666,86 97.60416666666666,96"/><path d=" M97.60416666666666,76 C97.60416666666666,76 97.60416666666666,86 97.60416666666666,96" class="clickable"/></g><path d="M 97.60416666666666,96 L 104.60416666666666,93.5 L 104.60416666666666,98.5 Z" transform="rotate(-90 97.60416666666666 96)" class="arrow" style="fill:rgb(48, 48, 48);stroke-linejoin:miter;stroke-miterlimit:2;"/></g><g id="sprotty_fsm$st/state$StSqueeze_to_fsm$st/state$StFlush" class="sprotty-edge transition" style="fill:none;stroke:rgb(48, 48, 48);stroke-linejoin:round;"><g><path d=" M115.70104166666665,76 C115.70104166666665,76 185.84666666666664,86 193.640625,96"/><path d=" M115.70104166666665,76 C115.70104166666665,76 185.84666666666664,86 193.640625,96" class="clickable"/></g><path d="M 193.640625,96 L 200.640625,93.5 L 200.640625,98.5 Z" transform="rotate(-127.93270243458858 193.640625 96)" class="arrow" style="fill:rgb(48, 48, 48);stroke-linejoin:miter;stroke-miterlimit:2;"/></g><g id="sprotty_fsm$st/state$StManualRun_to_fsm$st/state$StSqueeze" class="sprotty-edge transition" style="fill:none;stroke:rgb(48, 48, 48);stroke-linejoin:round;"><g><path d=" M60.30208333333333,96 C62.22260416666666,86 79.50729166666665,76 79.50729166666665,76"/><path d=" M60.30208333333333,96 C62.22260416666666,86 79.50729166666665,76 79.50729166666665,76" class="clickable"/></g><path d="M 79.50729166666665,76 L 86.50729166666665,73.5 L 86.50729166666665,78.5 Z" transform="rotate(149.9486111104959 79.50729166666665 76)" class="arrow" style="fill:rgb(48, 48, 48);stroke-linejoin:miter;stroke-miterlimit:2;"/></g><g id="sprotty_fsm$st/state$StFlush_to_fsm$st/state$StIdle" class="sprotty-edge transition" style="fill:none;stroke:rgb(48, 48, 48);stroke-linejoin:round;"><g><path d=" M193.640625,136 C193.640625,136 193.640625,146 193.640625,156"/><path d=" M193.640625,136 C193.640625,136 193.640625,146 193.640625,156" class="clickable"/></g><path d="M 193.640625,156 L 200.640625,153.5 L 200.640625,158.5 Z" transform="rotate(-90 193.640625 156)" class="arrow" style="fill:rgb(48, 48, 48);stroke-linejoin:miter;stroke-miterlimit:2;"/></g></g></g></svg>