<svg xmlns="http://www.w3.org/2000/svg" id="sprotty_root" class="sprotty-graph sprotty-state-machine statemachine" style="font-family:&quot;Noto Sans&quot;, Helvetica, Arial, sans-serif;perspective-origin:0px 0px;transform-origin:0px 0px;" version="1.1" viewBox="10 10 231.84895833333334 518" width="231.84895833333334" height="518"><g transform="scale(1) translate(0,0)"><g id="sprotty_fsm$st" transform="translate(15, 15)" class="statemachine"><g class="sprotty-block" style="fill:rgb(255, 255, 255);stroke:rgb(48, 48, 48);stroke-dasharray:0px;"><rect x="0" y="0" rx="1" ry="1" width="221.84895833333334" height="508"/><text x="110.92447916666667" y="12" class="sprotty-block-name" style="cursor:pointer;font-weight:700;perspective-origin:111.062px 0px;fill:rgb(48, 48, 48);stroke:rgba(0, 0, 0, 0);dominant-baseline:middle;text-anchor:middle;">st</text><line x1="0" y1="20" x2="221.84895833333334" y2="20"/></g><g id="sprotty_fsm$st/state$StPrefixWait" transform="translate(47.46744791666666, 336)" class="state"><ellipse cx="51.640625" cy="20" rx="51.640625" ry="20" class="sprotty-node clickable" style="fill:rgb(255, 255, 255);stroke:rgb(48, 48, 48);"/><text class="clickable sprotty-label state" id="sprotty_fsm$st/state$StPrefixWait/label" transform="translate(6, 8) translate(45.640625, 19)" style="cursor:default;perspective-origin:0px 0px;fill:rgb(48, 48, 48);text-anchor:middle;">StPrefixWait</text></g><g id="sprotty_fsm$st/state$StMessageWait" transform="translate(33.97916666666666, 456)" class="state"><ellipse cx="61.84375" cy="20" rx="61.84375" ry="20" class="sprotty-node clickable" style="fill:rgb(255, 255, 255);stroke:rgb(48, 48, 48);"/><text class="clickable sprotty-label state" id="sprotty_fsm$st/state$StMessageWait/label" transform="translate(6, 8) translate(55.84375, 19)" style="cursor:default;perspective-origin:0px 0px;fill:rgb(48, 48, 48);text-anchor:middle;">StMessageWait</text></g><g id="sprotty_fsm$st/state$StPadIdle" transform="translate(94.728515625, 216)" class="state"><ellipse cx="41.8125" cy="20" rx="41.8125" ry="20" class="sprotty-node clickable" style="fill:rgb(255, 255, 255);stroke:rgb(48, 48, 48);"/><text class="clickable sprotty-label state" id="sprotty_fsm$st/state$StPadIdle/label" transform="translate(6, 8) translate(35.75, 19)" style="cursor:default;perspective-origin:0.0625px 0px;fill:rgb(48, 48, 48);text-anchor:middle;">StPadIdle</text></g><g id="sprotty_fsm$st/state$StPadRun" transform="translate(26.536458333333343, 96)" class="state"><ellipse cx="42.546875" cy="20" rx="42.546875" ry="20" class="sprotty-node clickable" style="fill:rgb(255, 255, 255);stroke:rgb(48, 48, 48);"/><text class="clickable sprotty-label state" id="sprotty_fsm$st/state$StPadRun/label" transform="translate(6, 8) translate(36.546875, 19)" style="cursor:default;perspective-origin:0px 0px;fill:rgb(48, 48, 48);text-anchor:middle;">StPadRun</text></g><g id="sprotty_fsm$st/state$StPad" transform="translate(56.72851562500001, 36)" class="state"><ellipse cx="27.734375" cy="20" rx="27.734375" ry="20" class="sprotty-node clickable" style="fill:rgb(255, 255, 255);stroke:rgb(48, 48, 48);"/><text class="clickable sprotty-label state" id="sprotty_fsm$st/state$StPad/label" transform="translate(6, 8) translate(21.734375, 19)" style="cursor:default;perspective-origin:0px 0px;fill:rgb(48, 48, 48);text-anchor:middle;">StPad</text></g><g id="sprotty_fsm$st/state$StPadFlush" transform="translate(88.666015625, 156)" class="state"><ellipse cx="47.875" cy="20" rx="47.875" ry="20" class="sprotty-node clickable" style="fill:rgb(255, 255, 255);stroke:rgb(48, 48, 48);"/><text class="clickable sprotty-label state" id="sprotty_fsm$st/state$StPadFlush/label" transform="translate(6, 8) translate(41.875, 19)" style="cursor:default;perspective-origin:0px 0px;fill:rgb(48, 48, 48);text-anchor:middle;">StPadFlush</text></g><g id="sprotty_fsm$st/state$StPrefix" transform="translate(64.06119791666666, 276)" class="state"><ellipse cx="35.046875" cy="20" rx="35.046875" ry="20" class="sprotty-node clickable" style="fill:rgb(255, 255, 255);stroke:rgb(48, 48, 48);"/><text class="clickable sprotty-label state" id="sprotty_fsm$st/state$StPrefix/label" transform="translate(6, 8) translate(29.03125, 19)" style="cursor:default;perspective-origin:0.015625px 0px;fill:rgb(48, 48, 48);text-anchor:middle;">StPrefix</text></g><g id="sprotty_fsm$st/state$StMessage" transform="translate(44.94270833333333, 396)" class="state"><ellipse cx="45.3984375" cy="20" rx="45.3984375" ry="20" class="sprotty-node clickable" style="fill:rgb(255, 255, 255);stroke:rgb(48, 48, 48);"/><text class="clickable sprotty-label state" id="sprotty_fsm$st/state$StMessage/label" transform="translate(6, 8) translate(39.328125, 19)" style="cursor:default;perspective-origin:0.0625px 0px;fill:rgb(48, 48, 48);text-anchor:middle;">StMessage</text></g><g id="sprotty_fsm$st/state$StPad01" transform="translate(136.63020833333334, 96)" class="state"><ellipse cx="36.609375" cy="20" rx="36.609375" ry="20" class="sprotty-node clickable" style="fill:rgb(255, 255, 255);stroke:rgb(48, 48, 48);"/><text class="clickable sprotty-label state" id="sprotty_fsm$st/state$StPad01/label" transform="translate(6, 8) translate(30.609375, 19)" style="cursor:default;perspective-origin:0px 0px;fill:rgb(48, 48, 48);text-anchor:middle;">StPad01</text></g><g id="sprotty_fsm$st/state$StPadIdle_to_fsm$st/state$StPrefix" class="sprotty-edge transition" style="fill:none;stroke:rgb(48, 48, 48);stroke-linejoin:round;"><g><path d=" M122.603515625,256 C122.603515625,256 101.45761718749999,266 99.10807291666666,276"/><path d=" M122.603515625,256 C122.603515625,256 101.45761718749999,266 99.10807291666666,276" class="clickable"/></g><path d="M 99.10807291666666,276 L 106.10807291666666,273.5 L 106.10807291666666,278.5 Z" transform="rotate(-76.77792331538869 99.10807291666666 276)" class="arrow" style="fill:rgb(48, 48, 48);stroke-linejoin:miter;stroke-miterlimit:2;"/></g><g id="sprotty_fsm$st/state$StPadIdle_to_fsm$st/state$StMessage" class="sprotty-edge transition" style="fill:none;stroke:rgb(48, 48, 48);stroke-linejoin:round;"><g><path d=" M150.478515625,256 C160.74869791666666,266 160.74869791666666,271 160.74869791666666,277.6666666666667 C160.74869791666666,284.33333333333337 160.74869791666666,292.66666666666663 160.74869791666666,300.99999999999994 C160.74869791666666,309.3333333333333 160.74869791666666,317.66666666666663 160.74869791666666,330.16666666666663 C160.74869791666666,342.6666666666667 160.74869791666666,359.33333333333337 160.74869791666666,370.16666666666674 C160.74869791666666,381 160.74869791666666,386 113.04036458333333,396"/><path d=" M150.478515625,256 C160.74869791666666,266 160.74869791666666,271 160.74869791666666,277.6666666666667 C160.74869791666666,284.33333333333337 160.74869791666666,292.66666666666663 160.74869791666666,300.99999999999994 C160.74869791666666,309.3333333333333 160.74869791666666,317.66666666666663 160.74869791666666,330.16666666666663 C160.74869791666666,342.6666666666667 160.74869791666666,359.33333333333337 160.74869791666666,370.16666666666674 C160.74869791666666,381 160.74869791666666,386 113.04036458333333,396" class="clickable"/></g><path d="M 113.04036458333333,396 L 120.04036458333333,393.5 L 120.04036458333333,398.5 Z" transform="rotate(-11.838210525027797 113.04036458333333 396)" class="arrow" style="fill:rgb(48, 48, 48);stroke-linejoin:miter;stroke-miterlimit:2;"/></g><g id="sprotty_fsm$st/state$StPrefix_to_fsm$st/state$StPrefixWait" class="sprotty-edge transition" style="fill:none;stroke:rgb(48, 48, 48);stroke-linejoin:round;"><g><path d=" M99.10807291666666,316 C99.10807291666666,316 99.10807291666666,326 99.10807291666666,336"/><path d=" M99.10807291666666,316 C99.10807291666666,316 99.10807291666666,326 99.10807291666666,336" class="clickable"/></g><path d="M 99.10807291666666,336 L 106.10807291666666,333.5 L 106.10807291666666,338.5 Z" transform="rotate(-90 99.10807291666666 336)" class="arrow" style="fill:rgb(48, 48, 48);stroke-linejoin:miter;stroke-miterlimit:2;"/></g><g id="sprotty_fsm$st/state$StPrefixWait_to_fsm$st/state$StMessage" class="sprotty-edge transition" style="fill:none;stroke:rgb(48, 48, 48);stroke-linejoin:round;"><g><path d=" M99.10807291666666,376 C99.10807291666666,376 98.23138020833332,386 90.34114583333333,396"/><path d=" M99.10807291666666,376 C99.10807291666666,376 98.23138020833332,386 90.34114583333333,396" class="clickable"/></g><path d="M 90.34114583333333,396 L 97.34114583333333,393.5 L 97.34114583333333,398.5 Z" transform="rotate(-51.725732442195714 90.34114583333333 396)" class="arrow" style="fill:rgb(48, 48, 48);stroke-linejoin:miter;stroke-miterlimit:2;"/></g><g id="sprotty_fsm$st/state$StMessage_to_fsm$st/state$StMessageWait" class="sprotty-edge transition" style="fill:none;stroke:rgb(48, 48, 48);stroke-linejoin:round;"><g><path d=" M75.20833333333333,436 C75.20833333333333,436 75.20833333333333,446 75.20833333333333,456"/><path d=" M75.20833333333333,436 C75.20833333333333,436 75.20833333333333,446 75.20833333333333,456" class="clickable"/></g><path d="M 75.20833333333333,456 L 82.20833333333333,453.5 L 82.20833333333333,458.5 Z" transform="rotate(-90 75.20833333333333 456)" class="arrow" style="fill:rgb(48, 48, 48);stroke-linejoin:miter;stroke-miterlimit:2;"/></g><g id="sprotty_fsm$st/state$StMessage_to_fsm$st/state$StPad" class="sprotty-edge transition" style="fill:none;stroke:rgb(48, 48, 48);stroke-linejoin:round;"><g><path d=" M67.64192708333333,396 C12,386 12,381 12,374.33333333333337 C12,367.66666666666663 11.999999999999986,359.33333333333337 11.999999999999986,351.00000000000006 C11.999999999999986,342.6666666666667 11.999999999999986,334.33333333333337 11.999999999999986,320.1666666666667 C11.999999999999986,306 11.999999999999986,286 12,271 C12,256 11.999999999999986,246 12,236 C12,226 12,216 12,201.00000000000003 C12,186.00000000000003 12,166 12,151.83333333333334 C12,137.66666666666669 12,129.33333333333331 12,121 C12,112.66666666666666 12,104.33333333333334 12,97.66666666666669 C12,91 12,86 70.595703125,76"/><path d=" M67.64192708333333,396 C12,386 12,381 12,374.33333333333337 C12,367.66666666666663 11.999999999999986,359.33333333333337 11.999999999999986,351.00000000000006 C11.999999999999986,342.6666666666667 11.999999999999986,334.33333333333337 11.999999999999986,320.1666666666667 C11.999999999999986,306 11.999999999999986,286 12,271 C12,256 11.999999999999986,246 12,236 C12,226 12,216 12,201.00000000000003 C12,186.00000000000003 12,166 12,151.83333333333334 C12,137.66666666666669 12,129.33333333333331 12,121 C12,112.66666666666666 12,104.33333333333334 12,97.66666666666669 C12,91 12,86 70.595703125,76" class="clickable"/></g><path d="M 70.595703125,76 L 77.595703125,73.5 L 77.595703125,78.5 Z" transform="rotate(170.31515119745544 70.595703125 76)" class="arrow" style="fill:rgb(48, 48, 48);stroke-linejoin:miter;stroke-miterlimit:2;"/></g><g id="sprotty_fsm$st/state$StMessageWait_to_fsm$st/state$StMessage" class="sprotty-edge transition" style="fill:none;stroke:rgb(48, 48, 48);stroke-linejoin:round;"><g><path d=" M116.4375,456 C110.95572916666666,446 105.47395833333333,436 105.47395833333333,436"/><path d=" M116.4375,456 C110.95572916666666,446 105.47395833333333,436 105.47395833333333,436" class="clickable"/></g><path d="M 105.47395833333333,436 L 112.47395833333333,433.5 L 112.47395833333333,438.5 Z" transform="rotate(61.26945640845975 105.47395833333333 436)" class="arrow" style="fill:rgb(48, 48, 48);stroke-linejoin:miter;stroke-miterlimit:2;"/></g><g id="sprotty_fsm$st/state$StPad_to_fsm$st/state$StPadRun" class="sprotty-edge transition" style="fill:none;stroke:rgb(48, 48, 48);stroke-linejoin:round;"><g><path d=" M84.462890625,76 C84.462890625,76 70.62128906250001,86 69.08333333333334,96"/><path d=" M84.462890625,76 C84.462890625,76 70.62128906250001,86 69.08333333333334,96" class="clickable"/></g><path d="M 69.08333333333334,96 L 76.08333333333334,93.5 L 76.08333333333334,98.5 Z" transform="rotate(-81.25666882526087 69.08333333333334 96)" class="arrow" style="fill:rgb(48, 48, 48);stroke-linejoin:miter;stroke-miterlimit:2;"/></g><g id="sprotty_fsm$st/state$StPad_to_fsm$st/state$StPad01" class="sprotty-edge transition" style="fill:none;stroke:rgb(48, 48, 48);stroke-linejoin:round;"><g><path d=" M98.330078125,76 C98.330078125,76 165.7486328125,86 173.23958333333334,96"/><path d=" M98.330078125,76 C98.330078125,76 165.7486328125,86 173.23958333333334,96" class="clickable"/></g><path d="M 173.23958333333334,96 L 180.23958333333334,93.5 L 180.23958333333334,98.5 Z" transform="rotate(-126.83669942344508 173.23958333333334 96)" class="arrow" style="fill:rgb(48, 48, 48);stroke-linejoin:miter;stroke-miterlimit:2;"/></g><g id="sprotty_fsm$st/state$StPadRun_to_fsm$st/state$StPadFlush" class="sprotty-edge transition" style="fill:none;stroke:rgb(48, 48, 48);stroke-linejoin:round;"><g><path d=" M69.08333333333334,136 C69.08333333333334,136 74.23326822916667,146 120.58268229166667,156"/><path d=" M69.08333333333334,136 C69.08333333333334,136 74.23326822916667,146 120.58268229166667,156" class="clickable"/></g><path d="M 120.58268229166667,156 L 127.58268229166667,153.5 L 127.58268229166667,158.5 Z" transform="rotate(-167.824918384821 120.58268229166667 156)" class="arrow" style="fill:rgb(48, 48, 48);stroke-linejoin:miter;stroke-miterlimit:2;"/></g><g id="sprotty_fsm$st/state$StPad01_to_fsm$st/state$StPadFlush" class="sprotty-edge transition" style="fill:none;stroke:rgb(48, 48, 48);stroke-linejoin:round;"><g><path d=" M173.23958333333334,136 C173.23958333333334,136 171.16555989583333,146 152.49934895833334,156"/><path d=" M173.23958333333334,136 C173.23958333333334,136 171.16555989583333,146 152.49934895833334,156" class="clickable"/></g><path d="M 152.49934895833334,156 L 159.49934895833334,153.5 L 159.49934895833334,158.5 Z" transform="rotate(-28.17917238617006 152.49934895833334 156)" class="arrow" style="fill:rgb(48, 48, 48);stroke-linejoin:miter;stroke-miterlimit:2;"/></g><g id="sprotty_fsm$st/state$StPadFlush_to_fsm$st/state$StPadIdle" class="sprotty-edge transition" style="fill:none;stroke:rgb(48, 48, 48);stroke-linejoin:round;"><g><path d=" M136.541015625,196 C136.541015625,196 136.541015625,206 136.541015625,216"/><path d=" M136.541015625,196 C136.541015625,196 136.541015625,206 136.541015625,216" class="clickable"/></g><path d="M 136.541015625,216 L 143.541015625,213.5 L 143.541015625,218.5 Z" transform="rotate(-90 136.541015625 216)" class="arrow" style="fill:rgb(48, 48, 48);stroke-linejoin:miter;stroke-miterlimit:2;"/></g></g></g></svg>