<svg xmlns="http://www.w3.org/2000/svg" id="sprotty_root" class="sprotty-graph sprotty-state-machine statemachine" style="font-family:&quot;Noto Sans&quot;, Helvetica, Arial, sans-serif;perspective-origin:0px 0px;transform-origin:0px 0px;" version="1.1" viewBox="10 10 135.22265625 338" width="135.22265625" height="338"><g transform="scale(1) translate(0,0)"><g id="sprotty_fsm$st" transform="translate(15, 15)" class="statemachine"><g class="sprotty-block" style="fill:rgb(255, 255, 255);stroke:rgb(48, 48, 48);stroke-dasharray:0px;"><rect x="0" y="0" rx="1" ry="1" width="125.22265625" height="328"/><text x="62.611328125" y="12" class="sprotty-block-name" style="cursor:pointer;font-weight:700;perspective-origin:62.75px 0px;fill:rgb(48, 48, 48);stroke:rgba(0, 0, 0, 0);dominant-baseline:middle;text-anchor:middle;">st</text><line x1="0" y1="20" x2="125.22265625" y2="20"/></g><g id="sprotty_fsm$st/state$StPush" transform="translate(14.046874999999993, 36)" class="state"><ellipse cx="32.09375" cy="20" rx="32.09375" ry="20" class="sprotty-node clickable" style="fill:rgb(255, 255, 255);stroke:rgb(48, 48, 48);"/><text class="clickable sprotty-label state" id="sprotty_fsm$st/state$StPush/label" transform="translate(6, 8) translate(26.09375, 19)" style="cursor:default;perspective-origin:0px 0px;fill:rgb(48, 48, 48);text-anchor:middle;">StPush</text></g><g id="sprotty_fsm$st/state$StIdle" transform="translate(44.50390625, 156)" class="state"><ellipse cx="27.6640625" cy="20" rx="27.6640625" ry="20" class="sprotty-node clickable" style="fill:rgb(255, 255, 255);stroke:rgb(48, 48, 48);"/><text class="clickable sprotty-label state" id="sprotty_fsm$st/state$StIdle/label" transform="translate(6, 8) translate(21.59375, 19)" style="cursor:default;perspective-origin:0.0625px 0px;fill:rgb(48, 48, 48);text-anchor:middle;">StIdle</text></g><g id="sprotty_fsm$st/state$StUpdate" transform="translate(31.113281249999996, 96)" class="state"><ellipse cx="41.0546875" cy="20" rx="41.0546875" ry="20" class="sprotty-node clickable" style="fill:rgb(255, 255, 255);stroke:rgb(48, 48, 48);"/><text class="clickable sprotty-label state" id="sprotty_fsm$st/state$StUpdate/label" transform="translate(6, 8) translate(34.984375, 19)" style="cursor:default;perspective-origin:0.0625px 0px;fill:rgb(48, 48, 48);text-anchor:middle;">StUpdate</text></g><g id="sprotty_fsm$st/state$StLatch" transform="translate(12, 276)" class="state"><ellipse cx="34.140625" cy="20" rx="34.140625" ry="20" class="sprotty-node clickable" style="fill:rgb(255, 255, 255);stroke:rgb(48, 48, 48);"/><text class="clickable sprotty-label state" id="sprotty_fsm$st/state$StLatch/label" transform="translate(6, 8) translate(28.140625, 19)" style="cursor:default;perspective-origin:0px 0px;fill:rgb(48, 48, 48);text-anchor:middle;">StLatch</text></g><g id="sprotty_fsm$st/state$StRead" transform="translate(39.80859375, 216)" class="state"><ellipse cx="32.359375" cy="20" rx="32.359375" ry="20" class="sprotty-node clickable" style="fill:rgb(255, 255, 255);stroke:rgb(48, 48, 48);"/><text class="clickable sprotty-label state" id="sprotty_fsm$st/state$StRead/label" transform="translate(6, 8) translate(26.359375, 19)" style="cursor:default;perspective-origin:0px 0px;fill:rgb(48, 48, 48);text-anchor:middle;">StRead</text></g><g id="sprotty_fsm$st/state$StIdle_to_fsm$st/state$StRead" class="sprotty-edge transition" style="fill:none;stroke:rgb(48, 48, 48);stroke-linejoin:round;"><g><path d=" M72.16796875,196 C72.16796875,196 72.16796875,206 72.16796875,216"/><path d=" M72.16796875,196 C72.16796875,196 72.16796875,206 72.16796875,216" class="clickable"/></g><path d="M 72.16796875,216 L 79.16796875,213.5 L 79.16796875,218.5 Z" transform="rotate(-90 72.16796875 216)" class="arrow" style="fill:rgb(48, 48, 48);stroke-linejoin:miter;stroke-miterlimit:2;"/></g><g id="sprotty_fsm$st/state$StRead_to_fsm$st/state$StLatch" class="sprotty-edge transition" style="fill:none;stroke:rgb(48, 48, 48);stroke-linejoin:round;"><g><path d=" M72.16796875,256 C72.16796875,256 70.70325520833333,266 57.52083333333333,276"/><path d=" M72.16796875,256 C72.16796875,256 70.70325520833333,266 57.52083333333333,276" class="clickable"/></g><path d="M 57.52083333333333,276 L 64.52083333333333,273.5 L 64.52083333333333,278.5 Z" transform="rotate(-37.18344300991609 57.52083333333333 276)" class="arrow" style="fill:rgb(48, 48, 48);stroke-linejoin:miter;stroke-miterlimit:2;"/></g><g id="sprotty_fsm$st/state$StLatch_to_fsm$st/state$StPush" class="sprotty-edge transition" style="fill:none;stroke:rgb(48, 48, 48);stroke-linejoin:round;"><g><path d=" M34.760416666666664,276 C20.113281249999996,266 20.113281249999996,261 20.113281249999996,254.3333333333333 C20.113281249999996,247.66666666666663 20.113281249999996,239.3333333333333 20.113281249999996,230.99999999999997 C20.113281249999996,222.66666666666666 20.113281249999996,214.33333333333331 20.113281249999996,200.16666666666666 C20.113281249999996,186 20.113281249999996,166 20.113281249999996,151.83333333333331 C20.113281249999996,137.66666666666669 20.113281249999996,129.33333333333334 20.113281249999996,121 C20.113281249999996,112.66666666666667 20.113281249999996,104.33333333333333 20.113281249999996,97.66666666666666 C20.113281249999996,91 20.113281249999996,86 35.44270833333333,76"/><path d=" M34.760416666666664,276 C20.113281249999996,266 20.113281249999996,261 20.113281249999996,254.3333333333333 C20.113281249999996,247.66666666666663 20.113281249999996,239.3333333333333 20.113281249999996,230.99999999999997 C20.113281249999996,222.66666666666666 20.113281249999996,214.33333333333331 20.113281249999996,200.16666666666666 C20.113281249999996,186 20.113281249999996,166 20.113281249999996,151.83333333333331 C20.113281249999996,137.66666666666669 20.113281249999996,129.33333333333334 20.113281249999996,121 C20.113281249999996,112.66666666666667 20.113281249999996,104.33333333333333 20.113281249999996,97.66666666666666 C20.113281249999996,91 20.113281249999996,86 35.44270833333333,76" class="clickable"/></g><path d="M 35.44270833333333,76 L 42.44270833333333,73.5 L 42.44270833333333,78.5 Z" transform="rotate(146.88197811645492 35.44270833333333 76)" class="arrow" style="fill:rgb(48, 48, 48);stroke-linejoin:miter;stroke-miterlimit:2;"/></g><g id="sprotty_fsm$st/state$StPush_to_fsm$st/state$StUpdate" class="sprotty-edge transition" style="fill:none;stroke:rgb(48, 48, 48);stroke-linejoin:round;"><g><path d=" M56.838541666666664,76 C56.838541666666664,76 70.63502604166666,86 72.16796875,96"/><path d=" M56.838541666666664,76 C56.838541666666664,76 70.63502604166666,86 72.16796875,96" class="clickable"/></g><path d="M 72.16796875,96 L 79.16796875,93.5 L 79.16796875,98.5 Z" transform="rotate(-98.71527024727013 72.16796875 96)" class="arrow" style="fill:rgb(48, 48, 48);stroke-linejoin:miter;stroke-miterlimit:2;"/></g><g id="sprotty_fsm$st/state$StUpdate_to_fsm$st/state$StIdle" class="sprotty-edge transition" style="fill:none;stroke:rgb(48, 48, 48);stroke-linejoin:round;"><g><path d=" M72.16796875,136 C72.16796875,136 72.16796875,146 72.16796875,156"/><path d=" M72.16796875,136 C72.16796875,136 72.16796875,146 72.16796875,156" class="clickable"/></g><path d="M 72.16796875,156 L 79.16796875,153.5 L 79.16796875,158.5 Z" transform="rotate(-90 72.16796875 156)" class="arrow" style="fill:rgb(48, 48, 48);stroke-linejoin:miter;stroke-miterlimit:2;"/></g></g></g></svg>