<svg xmlns="http://www.w3.org/2000/svg" id="sprotty_root" class="sprotty-graph sprotty-state-machine statemachine" style="font-family:&quot;Noto Sans&quot;, Helvetica, Arial, sans-serif;perspective-origin:0px 0px;transform-origin:0px 0px;" version="1.1" viewBox="10 10 241.25260416666669 348" width="241.25260416666669" height="348"><g transform="scale(1) translate(0,0)"><g id="sprotty_fsm$st" transform="translate(15, 15)" class="statemachine"><g class="sprotty-block" style="fill:rgb(255, 255, 255);stroke:rgb(48, 48, 48);stroke-dasharray:0px;"><rect x="0" y="0" rx="1" ry="1" width="231.25260416666669" height="338"/><text x="115.62630208333334" y="12" class="sprotty-block-name" style="cursor:pointer;font-weight:700;perspective-origin:115.766px 0px;fill:rgb(48, 48, 48);stroke:rgba(0, 0, 0, 0);dominant-baseline:middle;text-anchor:middle;">st</text><line x1="0" y1="20" x2="231.25260416666669" y2="20"/></g><g id="sprotty_fsm$st/state$StIdle" transform="translate(12, 36)" class="state"><ellipse cx="27.6640625" cy="20" rx="27.6640625" ry="20" class="sprotty-node clickable" style="fill:rgb(255, 255, 255);stroke:rgb(48, 48, 48);"/><text class="clickable sprotty-label state" id="sprotty_fsm$st/state$StIdle/label" transform="translate(6, 8) translate(21.59375, 19)" style="cursor:default;perspective-origin:0.0625px 0px;fill:rgb(48, 48, 48);text-anchor:middle;">StIdle</text></g><g id="sprotty_fsm$st/state$StUpdate" transform="translate(52.15364583333334, 286)" class="state"><ellipse cx="41.0546875" cy="20" rx="41.0546875" ry="20" class="sprotty-node clickable" style="fill:rgb(255, 255, 255);stroke:rgb(48, 48, 48);"/><text class="clickable sprotty-label state" id="sprotty_fsm$st/state$StUpdate/label" transform="translate(6, 8) translate(34.984375, 19)" style="cursor:default;perspective-origin:0.0625px 0px;fill:rgb(48, 48, 48);text-anchor:middle;">StUpdate</text></g><g id="sprotty_fsm$st/state$StPop" transform="translate(66.15885416666667, 106)" class="state"><ellipse cx="28.2734375" cy="20" rx="28.2734375" ry="20" class="sprotty-node clickable" style="fill:rgb(255, 255, 255);stroke:rgb(48, 48, 48);"/><text class="clickable sprotty-label state" id="sprotty_fsm$st/state$StPop/label" transform="translate(6, 8) translate(22.234375, 19)" style="cursor:default;perspective-origin:0.03125px 0px;fill:rgb(48, 48, 48);text-anchor:middle;">StPop</text></g><g id="sprotty_fsm$st/state$StWrite" transform="translate(104.42252604166667, 226)" class="state"><ellipse cx="33.3046875" cy="20" rx="33.3046875" ry="20" class="sprotty-node clickable" style="fill:rgb(255, 255, 255);stroke:rgb(48, 48, 48);"/><text class="clickable sprotty-label state" id="sprotty_fsm$st/state$StWrite/label" transform="translate(6, 8) translate(27.234375, 19)" style="cursor:default;perspective-origin:0.0625px 0px;fill:rgb(48, 48, 48);text-anchor:middle;">StWrite</text></g><g id="sprotty_fsm$st/state$StWait" transform="translate(96.79166666666667, 36)" class="state"><ellipse cx="30.1875" cy="20" rx="30.1875" ry="20" class="sprotty-node clickable" style="fill:rgb(255, 255, 255);stroke:rgb(48, 48, 48);"/><text class="clickable sprotty-label state" id="sprotty_fsm$st/state$StWait/label" transform="translate(6, 8) translate(24.1875, 19)" style="cursor:default;perspective-origin:0px 0px;fill:rgb(48, 48, 48);text-anchor:middle;">StWait</text></g><g id="sprotty_fsm$st/state$StRead" transform="translate(147.70572916666669, 106)" class="state"><ellipse cx="32.359375" cy="20" rx="32.359375" ry="20" class="sprotty-node clickable" style="fill:rgb(255, 255, 255);stroke:rgb(48, 48, 48);"/><text class="clickable sprotty-label state" id="sprotty_fsm$st/state$StRead/label" transform="translate(6, 8) translate(26.359375, 19)" style="cursor:default;perspective-origin:0px 0px;fill:rgb(48, 48, 48);text-anchor:middle;">StRead</text></g><g id="sprotty_fsm$st/state$StModify" transform="translate(140.87760416666669, 166)" class="state"><ellipse cx="39.1875" cy="20" rx="39.1875" ry="20" class="sprotty-node clickable" style="fill:rgb(255, 255, 255);stroke:rgb(48, 48, 48);"/><text class="clickable sprotty-label state" id="sprotty_fsm$st/state$StModify/label" transform="translate(6, 8) translate(32.859375, 19)" style="cursor:default;perspective-origin:0.328125px 0px;fill:rgb(48, 48, 48);text-anchor:middle;">StModify</text></g><g id="sprotty_fsm$st/state$StIdle_to_fsm$st/state$StPop" class="sprotty-edge transition" style="fill:none;stroke:rgb(48, 48, 48);stroke-linejoin:round;"><g><path d=" M48.88541666666667,76 C48.88541666666667,76 52.026432291666666,91 80.29557291666667,106"/><path d=" M48.88541666666667,76 C48.88541666666667,76 52.026432291666666,91 80.29557291666667,106" class="clickable"/></g><path d="M 80.29557291666667,106 L 87.29557291666667,103.5 L 87.29557291666667,108.5 Z" transform="rotate(-152.0489553254789 80.29557291666667 106)" class="arrow" style="fill:rgb(48, 48, 48);stroke-linejoin:miter;stroke-miterlimit:2;"/></g><g id="sprotty_fsm$st/state$StPop_to_fsm$st/state$StWrite" class="sprotty-edge transition" style="fill:none;stroke:rgb(48, 48, 48);stroke-linejoin:round;"><g><path d=" M94.43229166666667,146 C94.43229166666667,156 94.43229166666667,168.5 94.43229166666667,178.91666666666666 C94.43229166666667,189.33333333333334 94.43229166666667,197.66666666666666 94.43229166666667,204.3333333333333 C94.43229166666667,210.99999999999997 94.43229166666667,216 126.62565104166667,226"/><path d=" M94.43229166666667,146 C94.43229166666667,156 94.43229166666667,168.5 94.43229166666667,178.91666666666666 C94.43229166666667,189.33333333333334 94.43229166666667,197.66666666666666 94.43229166666667,204.3333333333333 C94.43229166666667,210.99999999999997 94.43229166666667,216 126.62565104166667,226" class="clickable"/></g><path d="M 126.62565104166667,226 L 133.62565104166669,223.5 L 133.62565104166669,228.5 Z" transform="rotate(-162.74400038443255 126.62565104166667 226)" class="arrow" style="fill:rgb(48, 48, 48);stroke-linejoin:miter;stroke-miterlimit:2;"/></g><g id="sprotty_fsm$st/state$StPop_to_fsm$st/state$StWait" class="sprotty-edge transition" style="fill:none;stroke:rgb(48, 48, 48);stroke-linejoin:round;"><g><path d=" M94.43229166666667,106 C103.15885416666667,91 111.88541666666667,76 111.88541666666667,76"/><path d=" M94.43229166666667,106 C103.15885416666667,91 111.88541666666667,76 111.88541666666667,76" class="clickable"/></g><path d="M 111.88541666666667,76 L 118.88541666666667,73.5 L 118.88541666666667,78.5 Z" transform="rotate(120.18959614059419 111.88541666666667 76)" class="arrow" style="fill:rgb(48, 48, 48);stroke-linejoin:miter;stroke-miterlimit:2;"/></g><g id="sprotty_fsm$st/state$StWait_to_fsm$st/state$StPop" class="sprotty-edge transition" style="fill:none;stroke:rgb(48, 48, 48);stroke-linejoin:round;"><g><path d=" M126.97916666666667,76 C126.97916666666667,76 117.77408854166667,91 108.56901041666667,106"/><path d=" M126.97916666666667,76 C126.97916666666667,76 117.77408854166667,91 108.56901041666667,106" class="clickable"/></g><path d="M 108.56901041666667,106 L 115.56901041666667,103.5 L 115.56901041666667,108.5 Z" transform="rotate(-58.46373003759403 108.56901041666667 106)" class="arrow" style="fill:rgb(48, 48, 48);stroke-linejoin:miter;stroke-miterlimit:2;"/></g><g id="sprotty_fsm$st/state$StWait_to_fsm$st/state$StRead" class="sprotty-edge transition" style="fill:none;stroke:rgb(48, 48, 48);stroke-linejoin:round;"><g><path d=" M142.07291666666669,76 C142.07291666666669,76 176.26588541666666,91 180.06510416666669,106"/><path d=" M142.07291666666669,76 C142.07291666666669,76 176.26588541666666,91 180.06510416666669,106" class="clickable"/></g><path d="M 180.06510416666669,106 L 187.06510416666669,103.5 L 187.06510416666669,108.5 Z" transform="rotate(-104.21304925031635 180.06510416666669 106)" class="arrow" style="fill:rgb(48, 48, 48);stroke-linejoin:miter;stroke-miterlimit:2;"/></g><g id="sprotty_fsm$st/state$StRead_to_fsm$st/state$StModify" class="sprotty-edge transition" style="fill:none;stroke:rgb(48, 48, 48);stroke-linejoin:round;"><g><path d=" M180.06510416666669,146 C180.06510416666669,146 180.06510416666669,156 180.06510416666669,166"/><path d=" M180.06510416666669,146 C180.06510416666669,146 180.06510416666669,156 180.06510416666669,166" class="clickable"/></g><path d="M 180.06510416666669,166 L 187.06510416666669,163.5 L 187.06510416666669,168.5 Z" transform="rotate(-90 180.06510416666669 166)" class="arrow" style="fill:rgb(48, 48, 48);stroke-linejoin:miter;stroke-miterlimit:2;"/></g><g id="sprotty_fsm$st/state$StModify_to_fsm$st/state$StWrite" class="sprotty-edge transition" style="fill:none;stroke:rgb(48, 48, 48);stroke-linejoin:round;"><g><path d=" M180.06510416666669,206 C180.06510416666669,206 176.94147135416668,216 148.82877604166669,226"/><path d=" M180.06510416666669,206 C180.06510416666669,206 176.94147135416668,216 148.82877604166669,226" class="clickable"/></g><path d="M 148.82877604166669,226 L 155.82877604166669,223.5 L 155.82877604166669,228.5 Z" transform="rotate(-19.58104129864428 148.82877604166669 226)" class="arrow" style="fill:rgb(48, 48, 48);stroke-linejoin:miter;stroke-miterlimit:2;"/></g><g id="sprotty_fsm$st/state$StWrite_to_fsm$st/state$StUpdate" class="sprotty-edge transition" style="fill:none;stroke:rgb(48, 48, 48);stroke-linejoin:round;"><g><path d=" M137.72721354166669,266 C137.72721354166669,266 134.64381510416666,276 106.89322916666669,286"/><path d=" M137.72721354166669,266 C137.72721354166669,266 134.64381510416666,276 106.89322916666669,286" class="clickable"/></g><path d="M 106.89322916666669,286 L 113.89322916666669,283.5 L 113.89322916666669,288.5 Z" transform="rotate(-19.81676667241343 106.89322916666669 286)" class="arrow" style="fill:rgb(48, 48, 48);stroke-linejoin:miter;stroke-miterlimit:2;"/></g><g id="sprotty_fsm$st/state$StUpdate_to_fsm$st/state$StIdle" class="sprotty-edge transition" style="fill:none;stroke:rgb(48, 48, 48);stroke-linejoin:round;"><g><path d=" M79.52343750000001,286 C30.442708333333343,276 30.442708333333343,271 30.442708333333343,264.3333333333333 C30.442708333333343,257.66666666666663 30.442708333333343,249.33333333333331 30.44270833333333,241 C30.44270833333333,232.66666666666669 30.44270833333333,224.33333333333337 30.442708333333343,210.16666666666669 C30.442708333333343,196 30.442708333333343,176 30.442708333333357,160.58333333333331 C30.442708333333357,145.16666666666666 30.442708333333343,134.33333333333334 30.442708333333343,120.79166666666667 C30.442708333333343,107.25 30.442708333333343,91 30.442708333333336,76"/><path d=" M79.52343750000001,286 C30.442708333333343,276 30.442708333333343,271 30.442708333333343,264.3333333333333 C30.442708333333343,257.66666666666663 30.442708333333343,249.33333333333331 30.44270833333333,241 C30.44270833333333,232.66666666666669 30.44270833333333,224.33333333333337 30.442708333333343,210.16666666666669 C30.442708333333343,196 30.442708333333343,176 30.442708333333357,160.58333333333331 C30.442708333333357,145.16666666666666 30.442708333333343,134.33333333333334 30.442708333333343,120.79166666666667 C30.442708333333343,107.25 30.442708333333343,91 30.442708333333336,76" class="clickable"/></g><path d="M 30.442708333333336,76 L 37.442708333333336,73.5 L 37.442708333333336,78.5 Z" transform="rotate(89.99999999999997 30.442708333333336 76)" class="arrow" style="fill:rgb(48, 48, 48);stroke-linejoin:miter;stroke-miterlimit:2;"/></g></g></g></svg>