<svg xmlns="http://www.w3.org/2000/svg" id="sprotty_root" class="sprotty-graph sprotty-state-machine statemachine" style="font-family:&quot;Noto Sans&quot;, Helvetica, Arial, sans-serif;perspective-origin:0px 0px;transform-origin:0px 0px;" version="1.1" viewBox="10 10 124.421875 158" width="124.421875" height="158"><g transform="scale(1) translate(0,0)"><g id="sprotty_fsm$break_st_q" transform="translate(15, 15)" class="statemachine"><g class="sprotty-block" style="fill:rgb(255, 255, 255);stroke:rgb(48, 48, 48);stroke-dasharray:0px;"><rect x="0" y="0" rx="1" ry="1" width="114.421875" height="148"/><text x="57.2109375" y="12" class="sprotty-block-name" style="cursor:pointer;font-weight:700;perspective-origin:57.2031px 0px;fill:rgb(48, 48, 48);stroke:rgba(0, 0, 0, 0);dominant-baseline:middle;text-anchor:middle;">break_st_q</text><line x1="0" y1="20" x2="114.421875" y2="20"/></g><g id="sprotty_fsm$break_st_q/state$BRK_WAIT" transform="translate(12, 96)" class="state"><ellipse cx="45.2109375" cy="20" rx="45.2109375" ry="20" class="sprotty-node clickable" style="fill:rgb(255, 255, 255);stroke:rgb(48, 48, 48);"/><text class="clickable sprotty-label state" id="sprotty_fsm$break_st_q/state$BRK_WAIT/label" transform="translate(6, 8) translate(39, 19)" style="cursor:default;perspective-origin:0.203125px 0px;fill:rgb(48, 48, 48);text-anchor:middle;">BRK_WAIT</text></g><g id="sprotty_fsm$break_st_q/state$BRK_CHK" transform="translate(14.796874999999998, 36)" class="state"><ellipse cx="42.4140625" cy="20" rx="42.4140625" ry="20" class="sprotty-node clickable" style="fill:rgb(255, 255, 255);stroke:rgb(48, 48, 48);"/><text class="clickable sprotty-label state" id="sprotty_fsm$break_st_q/state$BRK_CHK/label" transform="translate(6, 8) translate(36.078125, 19)" style="cursor:default;perspective-origin:0.328125px 0px;fill:rgb(48, 48, 48);text-anchor:middle;">BRK_CHK</text></g><g id="sprotty_fsm$break_st_q/state$BRK_CHK_to_fsm$break_st_q/state$BRK_WAIT" class="sprotty-edge transition" style="fill:none;stroke:rgb(48, 48, 48);stroke-linejoin:round;"><g><path d=" M71.34895833333334,76 C71.34895833333334,76 71.81510416666667,86 72.28125,96"/><path d=" M71.34895833333334,76 C71.34895833333334,76 71.81510416666667,86 72.28125,96" class="clickable"/></g><path d="M 72.28125,96 L 79.28125,93.5 L 79.28125,98.5 Z" transform="rotate(-92.66888691557519 72.28125 96)" class="arrow" style="fill:rgb(48, 48, 48);stroke-linejoin:miter;stroke-miterlimit:2;"/></g><g id="sprotty_fsm$break_st_q/state$BRK_WAIT_to_fsm$break_st_q/state$BRK_CHK" class="sprotty-edge transition" style="fill:none;stroke:rgb(48, 48, 48);stroke-linejoin:round;"><g><path d=" M42.140625,96 C42.60677083333333,86 43.072916666666664,76 43.072916666666664,76"/><path d=" M42.140625,96 C42.60677083333333,86 43.072916666666664,76 43.072916666666664,76" class="clickable"/></g><path d="M 43.072916666666664,76 L 50.072916666666664,73.5 L 50.072916666666664,78.5 Z" transform="rotate(92.66888691557523 43.072916666666664 76)" class="arrow" style="fill:rgb(48, 48, 48);stroke-linejoin:miter;stroke-miterlimit:2;"/></g></g></g></svg>