<svg xmlns="http://www.w3.org/2000/svg" id="sprotty_root" class="sprotty-graph sprotty-state-machine statemachine" style="font-family:&quot;Noto Sans&quot;, Helvetica, Arial, sans-serif;perspective-origin:0px 0px;transform-origin:0px 0px;" version="1.1" viewBox="10 10 160.7421875 218" width="160.7421875" height="218"><g transform="scale(1) translate(0,0)"><g id="sprotty_fsm$out_state_q" transform="translate(15, 15)" class="statemachine"><g class="sprotty-block" style="fill:rgb(255, 255, 255);stroke:rgb(48, 48, 48);stroke-dasharray:0px;"><rect x="0" y="0" rx="1" ry="1" width="150.7421875" height="208"/><text x="75.37109375" y="12" class="sprotty-block-name" style="cursor:pointer;font-weight:700;perspective-origin:75.375px 0px;fill:rgb(48, 48, 48);stroke:rgba(0, 0, 0, 0);dominant-baseline:middle;text-anchor:middle;">out_state_q</text><line x1="0" y1="20" x2="150.7421875" y2="20"/></g><g id="sprotty_fsm$out_state_q/state$OsWaitByte" transform="translate(40.75781250000001, 36)" class="state"><ellipse cx="48.9921875" cy="20" rx="48.9921875" ry="20" class="sprotty-node clickable" style="fill:rgb(255, 255, 255);stroke:rgb(48, 48, 48);"/><text class="clickable sprotty-label state" id="sprotty_fsm$out_state_q/state$OsWaitByte/label" transform="translate(6, 8) translate(42.921875, 19)" style="cursor:default;perspective-origin:0.0625px 0px;fill:rgb(48, 48, 48);text-anchor:middle;">OsWaitByte</text></g><g id="sprotty_fsm$out_state_q/state$OsIdle" transform="translate(59.97656249999999, 156)" class="state"><ellipse cx="29.7734375" cy="20" rx="29.7734375" ry="20" class="sprotty-node clickable" style="fill:rgb(255, 255, 255);stroke:rgb(48, 48, 48);"/><text class="clickable sprotty-label state" id="sprotty_fsm$out_state_q/state$OsIdle/label" transform="translate(6, 8) translate(23.703125, 19)" style="cursor:default;perspective-origin:0.0625px 0px;fill:rgb(48, 48, 48);text-anchor:middle;">OsIdle</text></g><g id="sprotty_fsm$out_state_q/state$OsTransmit" transform="translate(12, 96)" class="state"><ellipse cx="48.5" cy="20" rx="48.5" ry="20" class="sprotty-node clickable" style="fill:rgb(255, 255, 255);stroke:rgb(48, 48, 48);"/><text class="clickable sprotty-label state" id="sprotty_fsm$out_state_q/state$OsTransmit/label" transform="translate(6, 8) translate(42.5, 19)" style="cursor:default;perspective-origin:0px 0px;fill:rgb(48, 48, 48);text-anchor:middle;">OsTransmit</text></g><g id="sprotty_fsm$out_state_q/state$OsIdle_to_fsm$out_state_q/state$OsWaitByte" class="sprotty-edge transition" style="fill:none;stroke:rgb(48, 48, 48);stroke-linejoin:round;"><g><path d=" M99.67447916666666,156 C119,146 119,141 119,135.16666666666666 C119,129.33333333333331 119,122.66666666666666 119,116 C119,109.33333333333333 119,102.66666666666666 119,96.83333333333333 C119,91 119,86 106.08072916666666,76"/><path d=" M99.67447916666666,156 C119,146 119,141 119,135.16666666666666 C119,129.33333333333331 119,122.66666666666666 119,116 C119,109.33333333333333 119,102.66666666666666 119,96.83333333333333 C119,91 119,86 106.08072916666666,76" class="clickable"/></g><path d="M 106.08072916666666,76 L 113.08072916666666,73.5 L 113.08072916666666,78.5 Z" transform="rotate(37.7412144415011 106.08072916666666 76)" class="arrow" style="fill:rgb(48, 48, 48);stroke-linejoin:miter;stroke-miterlimit:2;"/></g><g id="sprotty_fsm$out_state_q/state$OsWaitByte_to_fsm$out_state_q/state$OsTransmit" class="sprotty-edge transition" style="fill:none;stroke:rgb(48, 48, 48);stroke-linejoin:round;"><g><path d=" M73.41927083333334,76 C73.41927083333334,76 61.79192708333333,86 60.5,96"/><path d=" M73.41927083333334,76 C73.41927083333334,76 61.79192708333333,86 60.5,96" class="clickable"/></g><path d="M 60.5,96 L 67.5,93.5 L 67.5,98.5 Z" transform="rotate(-82.63857825378216 60.5 96)" class="arrow" style="fill:rgb(48, 48, 48);stroke-linejoin:miter;stroke-miterlimit:2;"/></g><g id="sprotty_fsm$out_state_q/state$OsTransmit_to_fsm$out_state_q/state$OsIdle" class="sprotty-edge transition" style="fill:none;stroke:rgb(48, 48, 48);stroke-linejoin:round;"><g><path d=" M60.5,136 C60.5,136 62.432552083333334,146 79.82552083333333,156"/><path d=" M60.5,136 C60.5,136 62.432552083333334,146 79.82552083333333,156" class="clickable"/></g><path d="M 79.82552083333333,156 L 86.82552083333333,153.5 L 86.82552083333333,158.5 Z" transform="rotate(-150.10346751391094 79.82552083333333 156)" class="arrow" style="fill:rgb(48, 48, 48);stroke-linejoin:miter;stroke-miterlimit:2;"/></g></g></g></svg>