<svg xmlns="http://www.w3.org/2000/svg" id="sprotty_root" class="sprotty-graph sprotty-state-machine statemachine" style="font-family:&quot;Noto Sans&quot;, Helvetica, Arial, sans-serif;perspective-origin:0px 0px;transform-origin:0px 0px;" version="1.1" viewBox="10 10 300.640625 332" width="300.640625" height="332"><g transform="scale(1) translate(0,0)"><g id="sprotty_fsm$in_xfr_state" transform="translate(15, 15)" class="statemachine"><g class="sprotty-block" style="fill:rgb(255, 255, 255);stroke:rgb(48, 48, 48);stroke-dasharray:0px;"><rect x="0" y="0" rx="1" ry="1" width="290.640625" height="322"/><text x="145.3203125" y="12" class="sprotty-block-name" style="cursor:pointer;font-weight:700;perspective-origin:145.312px 0px;fill:rgb(48, 48, 48);stroke:rgba(0, 0, 0, 0);dominant-baseline:middle;text-anchor:middle;">in_xfr_state</text><line x1="0" y1="20" x2="290.640625" y2="20"/></g><g id="sprotty_fsm$in_xfr_state/state$StIdle" transform="translate(170.193359375, 270)" class="state"><ellipse cx="27.6640625" cy="20" rx="27.6640625" ry="20" class="sprotty-node clickable" style="fill:rgb(255, 255, 255);stroke:rgb(48, 48, 48);"/><text class="clickable sprotty-label state" id="sprotty_fsm$in_xfr_state/state$StIdle/label" transform="translate(6, 8) translate(21.59375, 19)" style="cursor:default;perspective-origin:0.0625px 0px;fill:rgb(48, 48, 48);text-anchor:middle;">StIdle</text></g><g id="sprotty_fsm$in_xfr_state/state$StRcvdIn" transform="translate(198.513671875, 96)" class="state"><ellipse cx="39.03125" cy="20" rx="39.03125" ry="20" class="sprotty-node clickable" style="fill:rgb(255, 255, 255);stroke:rgb(48, 48, 48);"/><text class="clickable sprotty-label state" id="sprotty_fsm$in_xfr_state/state$StRcvdIn/label" transform="translate(6, 8) translate(33.03125, 19)" style="cursor:default;perspective-origin:0px 0px;fill:rgb(48, 48, 48);text-anchor:middle;">StRcvdIn</text></g><g id="sprotty_fsm$in_xfr_state/state$StWaitAck" transform="translate(106.54427083333331, 36)" class="state"><ellipse cx="43.6171875" cy="20" rx="43.6171875" ry="20" class="sprotty-node clickable" style="fill:rgb(255, 255, 255);stroke:rgb(48, 48, 48);"/><text class="clickable sprotty-label state" id="sprotty_fsm$in_xfr_state/state$StWaitAck/label" transform="translate(6, 8) translate(37.53125, 19)" style="cursor:default;perspective-origin:0.078125px 0px;fill:rgb(48, 48, 48);text-anchor:middle;">StWaitAck</text></g><g id="sprotty_fsm$in_xfr_state/state$StSendData" transform="translate(116.921875, 156)" class="state"><ellipse cx="49.859375" cy="20" rx="49.859375" ry="20" class="sprotty-node clickable" style="fill:rgb(255, 255, 255);stroke:rgb(48, 48, 48);"/><text class="clickable sprotty-label state" id="sprotty_fsm$in_xfr_state/state$StSendData/label" transform="translate(6, 8) translate(43.859375, 19)" style="cursor:default;perspective-origin:0px 0px;fill:rgb(48, 48, 48);text-anchor:middle;">StSendData</text></g><g id="sprotty_fsm$in_xfr_state/state$StIdle_to_fsm$in_xfr_state/state$StRcvdIn" class="sprotty-edge transition" style="fill:none;stroke:rgb(48, 48, 48);stroke-linejoin:round;"><g><path d=" M203.390234375,270 C226.640625,255 226.640625,247.5 226.640625,238.08333333333337 C226.640625,228.66666666666666 226.640625,217.33333333333331 226.640625,207.5 C226.640625,197.66666666666663 226.640625,189.33333333333331 226.640625,180.99999999999997 C226.640625,172.66666666666666 226.640625,164.33333333333334 226.640625,157.66666666666669 C226.640625,151 226.640625,146 237.544921875,136"/><path d=" M203.390234375,270 C226.640625,255 226.640625,247.5 226.640625,238.08333333333337 C226.640625,228.66666666666666 226.640625,217.33333333333331 226.640625,207.5 C226.640625,197.66666666666663 226.640625,189.33333333333331 226.640625,180.99999999999997 C226.640625,172.66666666666666 226.640625,164.33333333333334 226.640625,157.66666666666669 C226.640625,151 226.640625,146 237.544921875,136" class="clickable"/></g><path d="M 237.544921875,136 L 244.544921875,133.5 L 244.544921875,138.5 Z" transform="rotate(137.47700802902392 237.544921875 136)" class="arrow" style="fill:rgb(48, 48, 48);stroke-linejoin:miter;stroke-miterlimit:2;"/></g><g id="sprotty_fsm$in_xfr_state/state$StRcvdIn_to_fsm$in_xfr_state/state$StIdle" class="sprotty-edge transition" style="fill:none;stroke:rgb(48, 48, 48);stroke-linejoin:round;"><g><path d=" M257.060546875,136 C277.640625,146 277.640625,151 277.640625,157.66666666666669 C277.640625,164.33333333333334 277.640625,172.66666666666666 277.640625,180.99999999999997 C277.640625,189.33333333333331 277.640625,197.66666666666663 277.640625,207.5 C277.640625,217.33333333333331 277.640625,228.66666666666666 277.640625,238.08333333333337 C277.640625,247.5 277.640625,255 214.455859375,270"/><path d=" M257.060546875,136 C277.640625,146 277.640625,151 277.640625,157.66666666666669 C277.640625,164.33333333333334 277.640625,172.66666666666666 277.640625,180.99999999999997 C277.640625,189.33333333333331 277.640625,197.66666666666663 277.640625,207.5 C277.640625,217.33333333333331 277.640625,228.66666666666666 277.640625,238.08333333333337 C277.640625,247.5 277.640625,255 214.455859375,270" class="clickable"/></g><path d="M 214.455859375,270 L 221.455859375,267.5 L 221.455859375,272.5 Z" transform="rotate(-13.354740283820723 214.455859375 270)" class="arrow" style="fill:rgb(48, 48, 48);stroke-linejoin:miter;stroke-miterlimit:2;"/></g><g id="sprotty_fsm$in_xfr_state/state$StRcvdIn_to_fsm$in_xfr_state/state$StSendData" class="sprotty-edge transition" style="fill:none;stroke:rgb(48, 48, 48);stroke-linejoin:round;"><g><path d=" M218.029296875,136 C218.029296875,136 186.86386718749998,146 183.40104166666666,156"/><path d=" M218.029296875,136 C218.029296875,136 186.86386718749998,146 183.40104166666666,156" class="clickable"/></g><path d="M 183.40104166666666,156 L 190.40104166666666,153.5 L 190.40104166666666,158.5 Z" transform="rotate(-70.8999230155118 183.40104166666666 156)" class="arrow" style="fill:rgb(48, 48, 48);stroke-linejoin:miter;stroke-miterlimit:2;"/></g><g id="sprotty_fsm$in_xfr_state/state$StSendData_to_fsm$in_xfr_state/state$StIdle" class="sprotty-edge transition" style="fill:none;stroke:rgb(48, 48, 48);stroke-linejoin:round;"><g><path d=" M166.78125,196 C166.78125,206 166.78125,214.5 166.78125,221.58333333333334 C166.78125,228.66666666666669 166.78125,234.33333333333331 166.78125,240.9166666666666 C166.78125,247.49999999999997 166.78125,255 192.324609375,270"/><path d=" M166.78125,196 C166.78125,206 166.78125,214.5 166.78125,221.58333333333334 C166.78125,228.66666666666669 166.78125,234.33333333333331 166.78125,240.9166666666666 C166.78125,247.49999999999997 166.78125,255 192.324609375,270" class="clickable"/></g><path d="M 192.324609375,270 L 199.324609375,267.5 L 199.324609375,272.5 Z" transform="rotate(-149.5769773492192 192.324609375 270)" class="arrow" style="fill:rgb(48, 48, 48);stroke-linejoin:miter;stroke-miterlimit:2;"/><text class="clickable sprotty-label transition" id="sprotty_fsm$in_xfr_state/state$StSendData_to_fsm$in_xfr_state/state$StIdle/label0" transform="translate(23, 216) translate(68.890625, 19)" style="cursor:default;perspective-origin:0px 0px;fill:rgb(48, 48, 48);stroke:none;text-anchor:middle;">no ACK for ISO EPs</text></g><g id="sprotty_fsm$in_xfr_state/state$StSendData_to_fsm$in_xfr_state/state$StWaitAck" class="sprotty-edge transition" style="fill:none;stroke:rgb(48, 48, 48);stroke-linejoin:round;"><g><path d=" M150.16145833333331,156 C150.16145833333331,146 150.16145833333331,131 150.16145833333331,116 C150.16145833333331,101 150.16145833333331,86 150.16145833333331,76"/><path d=" M150.16145833333331,156 C150.16145833333331,146 150.16145833333331,131 150.16145833333331,116 C150.16145833333331,101 150.16145833333331,86 150.16145833333331,76" class="clickable"/></g><path d="M 150.16145833333331,76 L 157.16145833333331,73.5 L 157.16145833333331,78.5 Z" transform="rotate(90 150.16145833333331 76)" class="arrow" style="fill:rgb(48, 48, 48);stroke-linejoin:miter;stroke-miterlimit:2;"/></g><g id="sprotty_fsm$in_xfr_state/state$StWaitAck_to_fsm$in_xfr_state/state$StIdle" class="sprotty-edge transition" style="fill:none;stroke:rgb(48, 48, 48);stroke-linejoin:round;"><g><path d=" M128.35286458333331,76 C12,86 12.000000000000028,91 12.000000000000028,97.66666666666666 C12,104.33333333333333 12.000000000000028,112.66666666666667 12.000000000000028,121 C12,129.33333333333334 12.000000000000028,137.66666666666669 12.000000000000028,151.83333333333331 C12,166 12,186 12,198.83333333333331 C12,211.66666666666666 12.000000000000028,217.33333333333334 12.000000000000028,223 C12,228.66666666666666 12.000000000000028,234.33333333333331 12.000000000000028,240.91666666666663 C12.000000000000028,247.49999999999997 12,255 181.258984375,270"/><path d=" M128.35286458333331,76 C12,86 12.000000000000028,91 12.000000000000028,97.66666666666666 C12,104.33333333333333 12.000000000000028,112.66666666666667 12.000000000000028,121 C12,129.33333333333334 12.000000000000028,137.66666666666669 12.000000000000028,151.83333333333331 C12,166 12,186 12,198.83333333333331 C12,211.66666666666666 12.000000000000028,217.33333333333334 12.000000000000028,223 C12,228.66666666666666 12.000000000000028,234.33333333333331 12.000000000000028,240.91666666666663 C12.000000000000028,247.49999999999997 12,255 181.258984375,270" class="clickable"/></g><path d="M 181.258984375,270 L 188.258984375,267.5 L 188.258984375,272.5 Z" transform="rotate(-174.9355876429814 181.258984375 270)" class="arrow" style="fill:rgb(48, 48, 48);stroke-linejoin:miter;stroke-miterlimit:2;"/></g><g id="sprotty_fsm$in_xfr_state/state$StWaitAck_to_fsm$in_xfr_state/state$StRcvdIn" class="sprotty-edge transition" style="fill:none;stroke:rgb(48, 48, 48);stroke-linejoin:round;"><g><path d=" M171.97005208333331,76 C171.97005208333331,76 230.98743489583333,86 237.544921875,96"/><path d=" M171.97005208333331,76 C171.97005208333331,76 230.98743489583333,86 237.544921875,96" class="clickable"/></g><path d="M 237.544921875,96 L 244.544921875,93.5 L 244.544921875,98.5 Z" transform="rotate(-123.25480703121693 237.544921875 96)" class="arrow" style="fill:rgb(48, 48, 48);stroke-linejoin:miter;stroke-miterlimit:2;"/></g></g></g></svg>