<svg xmlns="http://www.w3.org/2000/svg" id="sprotty_root" class="sprotty-graph sprotty-state-machine statemachine" style="font-family:&quot;Noto Sans&quot;, Helvetica, Arial, sans-serif;perspective-origin:0px 0px;transform-origin:0px 0px;" version="1.1" viewBox="10 10 357.1875 288" width="357.1875" height="288"><g transform="scale(1) translate(0,0)"><g id="sprotty_fsm$out_xfr_state" transform="translate(15, 15)" class="statemachine"><g class="sprotty-block" style="fill:rgb(255, 255, 255);stroke:rgb(48, 48, 48);stroke-dasharray:0px;"><rect x="0" y="0" rx="1" ry="1" width="347.1875" height="278"/><text x="173.59375" y="12" class="sprotty-block-name" style="cursor:pointer;font-weight:700;perspective-origin:173.594px 0px;fill:rgb(48, 48, 48);stroke:rgba(0, 0, 0, 0);dominant-baseline:middle;text-anchor:middle;">out_xfr_state</text><line x1="0" y1="20" x2="347.1875" y2="20"/></g><g id="sprotty_fsm$out_xfr_state/state$StRcvdDataStart" transform="translate(112.015625, 36)" class="state"><ellipse cx="67.046875" cy="20" rx="67.046875" ry="20" class="sprotty-node clickable" style="fill:rgb(255, 255, 255);stroke:rgb(48, 48, 48);"/><text class="clickable sprotty-label state" id="sprotty_fsm$out_xfr_state/state$StRcvdDataStart/label" transform="translate(6, 8) translate(61.046875, 19)" style="cursor:default;perspective-origin:0px 0px;fill:rgb(48, 48, 48);text-anchor:middle;">StRcvdDataStart</text></g><g id="sprotty_fsm$out_xfr_state/state$StRcvdDataEnd" transform="translate(197.03125, 106)" class="state"><ellipse cx="63.578125" cy="20" rx="63.578125" ry="20" class="sprotty-node clickable" style="fill:rgb(255, 255, 255);stroke:rgb(48, 48, 48);"/><text class="clickable sprotty-label state" id="sprotty_fsm$out_xfr_state/state$StRcvdDataEnd/label" transform="translate(6, 8) translate(57.578125, 19)" style="cursor:default;perspective-origin:0px 0px;fill:rgb(48, 48, 48);text-anchor:middle;">StRcvdDataEnd</text></g><g id="sprotty_fsm$out_xfr_state/state$StIdle" transform="translate(227.823046875, 166)" class="state"><ellipse cx="27.6640625" cy="20" rx="27.6640625" ry="20" class="sprotty-node clickable" style="fill:rgb(255, 255, 255);stroke:rgb(48, 48, 48);"/><text class="clickable sprotty-label state" id="sprotty_fsm$out_xfr_state/state$StIdle/label" transform="translate(6, 8) translate(21.59375, 19)" style="cursor:default;perspective-origin:0.0625px 0px;fill:rgb(48, 48, 48);text-anchor:middle;">StIdle</text></g><g id="sprotty_fsm$out_xfr_state/state$StRcvdIsoDataEnd" transform="translate(23, 106)" class="state"><ellipse cx="74.515625" cy="20" rx="74.515625" ry="20" class="sprotty-node clickable" style="fill:rgb(255, 255, 255);stroke:rgb(48, 48, 48);"/><text class="clickable sprotty-label state" id="sprotty_fsm$out_xfr_state/state$StRcvdIsoDataEnd/label" transform="translate(6, 8) translate(68.515625, 19)" style="cursor:default;perspective-origin:0px 0px;fill:rgb(48, 48, 48);text-anchor:middle;">StRcvdIsoDataEnd</text></g><g id="sprotty_fsm$out_xfr_state/state$StRcvdOut" transform="translate(85.57304687499999, 226)" class="state"><ellipse cx="45.609375" cy="20" rx="45.609375" ry="20" class="sprotty-node clickable" style="fill:rgb(255, 255, 255);stroke:rgb(48, 48, 48);"/><text class="clickable sprotty-label state" id="sprotty_fsm$out_xfr_state/state$StRcvdOut/label" transform="translate(6, 8) translate(39.609375, 19)" style="cursor:default;perspective-origin:0px 0px;fill:rgb(48, 48, 48);text-anchor:middle;">StRcvdOut</text></g><g id="sprotty_fsm$out_xfr_state/state$StIdle_to_fsm$out_xfr_state/state$StRcvdOut" class="sprotty-edge transition" style="fill:none;stroke:rgb(48, 48, 48);stroke-linejoin:round;"><g><path d=" M255.487109375,206 C255.487109375,206 244.576953125,216 146.385546875,226"/><path d=" M255.487109375,206 C255.487109375,206 244.576953125,216 146.385546875,226" class="clickable"/></g><path d="M 146.385546875,226 L 153.385546875,223.5 L 153.385546875,228.5 Z" transform="rotate(-5.815062544488634 146.385546875 226)" class="arrow" style="fill:rgb(48, 48, 48);stroke-linejoin:miter;stroke-miterlimit:2;"/></g><g id="sprotty_fsm$out_xfr_state/state$StRcvdOut_to_fsm$out_xfr_state/state$StRcvdDataStart" class="sprotty-edge transition" style="fill:none;stroke:rgb(48, 48, 48);stroke-linejoin:round;"><g><path d=" M115.97929687499999,226 C12,216 11.999999999999972,211 11.999999999999943,200.1666666666667 C11.999999999999943,189.33333333333337 11.999999999999972,172.66666666666669 11.999999999999943,160.16666666666669 C11.999999999999972,147.66666666666666 12,139.33333333333331 12,131 C12,122.66666666666666 11.999999999999972,114.33333333333334 11.999999999999943,106.41666666666669 C11.999999999999972,98.5 12,91 138.834375,76"/><path d=" M115.97929687499999,226 C12,216 11.999999999999972,211 11.999999999999943,200.1666666666667 C11.999999999999943,189.33333333333337 11.999999999999972,172.66666666666669 11.999999999999943,160.16666666666669 C11.999999999999972,147.66666666666666 12,139.33333333333331 12,131 C12,122.66666666666666 11.999999999999972,114.33333333333334 11.999999999999943,106.41666666666669 C11.999999999999972,98.5 12,91 138.834375,76" class="clickable"/></g><path d="M 138.834375,76 L 145.834375,73.5 L 145.834375,78.5 Z" transform="rotate(173.25527363858907 138.834375 76)" class="arrow" style="fill:rgb(48, 48, 48);stroke-linejoin:miter;stroke-miterlimit:2;"/></g><g id="sprotty_fsm$out_xfr_state/state$StRcvdDataStart_to_fsm$out_xfr_state/state$StRcvdIsoDataEnd" class="sprotty-edge transition" style="fill:none;stroke:rgb(48, 48, 48);stroke-linejoin:round;"><g><path d=" M165.653125,76 C165.653125,76 104.329375,91 97.515625,106"/><path d=" M165.653125,76 C165.653125,76 104.329375,91 97.515625,106" class="clickable"/></g><path d="M 97.515625,106 L 104.515625,103.5 L 104.515625,108.5 Z" transform="rotate(-65.5700763982362 97.515625 106)" class="arrow" style="fill:rgb(48, 48, 48);stroke-linejoin:miter;stroke-miterlimit:2;"/></g><g id="sprotty_fsm$out_xfr_state/state$StRcvdDataStart_to_fsm$out_xfr_state/state$StIdle" class="sprotty-edge transition" style="fill:none;stroke:rgb(48, 48, 48);stroke-linejoin:round;"><g><path d=" M219.290625,76 C334.1875,91 334.1875,98.5 334.1875,105.58333333333333 C334.1875,112.66666666666666 334.1875,119.33333333333333 334.1875,126 C334.1875,132.66666666666666 334.1875,139.33333333333331 334.1875,145.16666666666666 C334.1875,151 334.1875,156 269.319140625,166"/><path d=" M219.290625,76 C334.1875,91 334.1875,98.5 334.1875,105.58333333333333 C334.1875,112.66666666666666 334.1875,119.33333333333333 334.1875,126 C334.1875,132.66666666666666 334.1875,139.33333333333331 334.1875,145.16666666666666 C334.1875,151 334.1875,156 269.319140625,166" class="clickable"/></g><path d="M 269.319140625,166 L 276.319140625,163.5 L 276.319140625,168.5 Z" transform="rotate(-8.763636028253401 269.319140625 166)" class="arrow" style="fill:rgb(48, 48, 48);stroke-linejoin:miter;stroke-miterlimit:2;"/></g><g id="sprotty_fsm$out_xfr_state/state$StRcvdDataStart_to_fsm$out_xfr_state/state$StRcvdDataEnd" class="sprotty-edge transition" style="fill:none;stroke:rgb(48, 48, 48);stroke-linejoin:round;"><g><path d=" M192.471875,76 C192.471875,76 253.795625,91 260.609375,106"/><path d=" M192.471875,76 C192.471875,76 253.795625,91 260.609375,106" class="clickable"/></g><path d="M 260.609375,106 L 267.609375,103.5 L 267.609375,108.5 Z" transform="rotate(-114.4299236017638 260.609375 106)" class="arrow" style="fill:rgb(48, 48, 48);stroke-linejoin:miter;stroke-miterlimit:2;"/></g><g id="sprotty_fsm$out_xfr_state/state$StRcvdDataEnd_to_fsm$out_xfr_state/state$StIdle" class="sprotty-edge transition" style="fill:none;stroke:rgb(48, 48, 48);stroke-linejoin:round;"><g><path d=" M260.609375,146 C260.609375,146 260.0971484375,156 255.487109375,166"/><path d=" M260.609375,146 C260.609375,146 260.0971484375,156 255.487109375,166" class="clickable"/></g><path d="M 255.487109375,166 L 262.487109375,163.5 L 262.487109375,168.5 Z" transform="rotate(-65.25011379420276 255.487109375 166)" class="arrow" style="fill:rgb(48, 48, 48);stroke-linejoin:miter;stroke-miterlimit:2;"/></g><g id="sprotty_fsm$out_xfr_state/state$StRcvdIsoDataEnd_to_fsm$out_xfr_state/state$StIdle" class="sprotty-edge transition" style="fill:none;stroke:rgb(48, 48, 48);stroke-linejoin:round;"><g><path d=" M97.515625,146 C97.515625,146 111.9295703125,156 241.655078125,166"/><path d=" M97.515625,146 C97.515625,146 111.9295703125,156 241.655078125,166" class="clickable"/></g><path d="M 241.655078125,166 L 248.655078125,163.5 L 248.655078125,168.5 Z" transform="rotate(-175.59202386526815 241.655078125 166)" class="arrow" style="fill:rgb(48, 48, 48);stroke-linejoin:miter;stroke-miterlimit:2;"/></g></g></g></svg>