<svg xmlns="http://www.w3.org/2000/svg" id="sprotty_root" class="sprotty-graph sprotty-state-machine statemachine" style="font-family:&quot;Noto Sans&quot;, Helvetica, Arial, sans-serif;perspective-origin:0px 0px;transform-origin:0px 0px;" version="1.1" viewBox="10 10 194.72526041666669 398" width="194.72526041666669" height="398"><g transform="scale(1) translate(0,0)"><g id="sprotty_fsm$state_q" transform="translate(15, 15)" class="statemachine"><g class="sprotty-block" style="fill:rgb(255, 255, 255);stroke:rgb(48, 48, 48);stroke-dasharray:0px;"><rect x="0" y="0" rx="1" ry="1" width="184.72526041666669" height="388"/><text x="92.36263020833334" y="12" class="sprotty-block-name" style="cursor:pointer;font-weight:700;perspective-origin:92.3594px 0px;fill:rgb(48, 48, 48);stroke:rgba(0, 0, 0, 0);dominant-baseline:middle;text-anchor:middle;">state_q</text><line x1="0" y1="20" x2="184.72526041666669" y2="20"/></g><g id="sprotty_fsm$state_q/state$Crc161" transform="translate(67.46744791666666, 156)" class="state"><ellipse cx="31.515625" cy="20" rx="31.515625" ry="20" class="sprotty-node clickable" style="fill:rgb(255, 255, 255);stroke:rgb(48, 48, 48);"/><text class="clickable sprotty-label state" id="sprotty_fsm$state_q/state$Crc161/label" transform="translate(6, 8) translate(25.515625, 19)" style="cursor:default;perspective-origin:0px 0px;fill:rgb(48, 48, 48);text-anchor:middle;">Crc161</text></g><g id="sprotty_fsm$state_q/state$OscTest" transform="translate(103.13151041666667, 336)" class="state"><ellipse cx="34.796875" cy="20" rx="34.796875" ry="20" class="sprotty-node clickable" style="fill:rgb(255, 255, 255);stroke:rgb(48, 48, 48);"/><text class="clickable sprotty-label state" id="sprotty_fsm$state_q/state$OscTest/label" transform="translate(6, 8) translate(28.796875, 19)" style="cursor:default;perspective-origin:0px 0px;fill:rgb(48, 48, 48);text-anchor:middle;">OscTest</text></g><g id="sprotty_fsm$state_q/state$Idle" transform="translate(112.81119791666667, 276)" class="state"><ellipse cx="20.09375" cy="20" rx="20.09375" ry="20" class="sprotty-node clickable" style="fill:rgb(255, 255, 255);stroke:rgb(48, 48, 48);"/><text class="clickable sprotty-label state" id="sprotty_fsm$state_q/state$Idle/label" transform="translate(6, 8) translate(14.03125, 19)" style="cursor:default;perspective-origin:0.0625px 0px;fill:rgb(48, 48, 48);text-anchor:middle;">Idle</text></g><g id="sprotty_fsm$state_q/state$Eop" transform="translate(112.42838541666667, 216)" class="state"><ellipse cx="20.4765625" cy="20" rx="20.4765625" ry="20" class="sprotty-node clickable" style="fill:rgb(255, 255, 255);stroke:rgb(48, 48, 48);"/><text class="clickable sprotty-label state" id="sprotty_fsm$state_q/state$Eop/label" transform="translate(6, 8) translate(14.4375, 19)" style="cursor:default;perspective-origin:0.03125px 0px;fill:rgb(48, 48, 48);text-anchor:middle;">Eop</text></g><g id="sprotty_fsm$state_q/state$Pid" transform="translate(85.55859375, 36)" class="state"><ellipse cx="20" cy="20" rx="20" ry="20" class="sprotty-node clickable" style="fill:rgb(255, 255, 255);stroke:rgb(48, 48, 48);"/><text class="clickable sprotty-label state" id="sprotty_fsm$state_q/state$Pid/label" transform="translate(7.78125, 8) translate(12.21875, 19)" style="cursor:default;perspective-origin:0px 0px;fill:rgb(48, 48, 48);text-anchor:middle;">Pid</text></g><g id="sprotty_fsm$state_q/state$Sync" transform="translate(12, 336)" class="state"><ellipse cx="23.90625" cy="20" rx="23.90625" ry="20" class="sprotty-node clickable" style="fill:rgb(255, 255, 255);stroke:rgb(48, 48, 48);"/><text class="clickable sprotty-label state" id="sprotty_fsm$state_q/state$Sync/label" transform="translate(6, 8) translate(17.90625, 19)" style="cursor:default;perspective-origin:0px 0px;fill:rgb(48, 48, 48);text-anchor:middle;">Sync</text></g><g id="sprotty_fsm$state_q/state$DataOrCrc160" transform="translate(41.139322916666664, 96)" class="state"><ellipse cx="57.84375" cy="20" rx="57.84375" ry="20" class="sprotty-node clickable" style="fill:rgb(255, 255, 255);stroke:rgb(48, 48, 48);"/><text class="clickable sprotty-label state" id="sprotty_fsm$state_q/state$DataOrCrc160/label" transform="translate(6, 8) translate(51.78125, 19)" style="cursor:default;perspective-origin:0.0625px 0px;fill:rgb(48, 48, 48);text-anchor:middle;">DataOrCrc160</text></g><g id="sprotty_fsm$state_q/state$Idle_to_fsm$state_q/state$OscTest" class="sprotty-edge transition" style="fill:none;stroke:rgb(48, 48, 48);stroke-linejoin:round;"><g><path d=" M132.90494791666669,316 C132.90494791666669,316 126.98697916666666,326 126.32942708333334,336"/><path d=" M132.90494791666669,316 C132.90494791666669,316 126.98697916666666,326 126.32942708333334,336" class="clickable"/></g><path d="M 126.32942708333334,336 L 133.32942708333334,333.5 L 133.32942708333334,338.5 Z" transform="rotate(-86.23791993860138 126.32942708333334 336)" class="arrow" style="fill:rgb(48, 48, 48);stroke-linejoin:miter;stroke-miterlimit:2;"/></g><g id="sprotty_fsm$state_q/state$Idle_to_fsm$state_q/state$Sync" class="sprotty-edge transition" style="fill:none;stroke:rgb(48, 48, 48);stroke-linejoin:round;"><g><path d=" M122.85807291666667,316 C122.85807291666667,316 51.77330729166667,326 43.875,336"/><path d=" M122.85807291666667,316 C122.85807291666667,316 51.77330729166667,326 43.875,336" class="clickable"/></g><path d="M 43.875,336 L 50.875,333.5 L 50.875,338.5 Z" transform="rotate(-51.69723654198129 43.875 336)" class="arrow" style="fill:rgb(48, 48, 48);stroke-linejoin:miter;stroke-miterlimit:2;"/></g><g id="sprotty_fsm$state_q/state$Sync_to_fsm$state_q/state$Pid" class="sprotty-edge transition" style="fill:none;stroke:rgb(48, 48, 48);stroke-linejoin:round;"><g><path d=" M27.9375,336 C27.9375,326 27.9375,296 27.9375,275.99999999999994 C27.9375,255.99999999999997 27.9375,245.99999999999997 27.9375,236 C27.9375,225.99999999999997 27.9375,216 27.9375,201 C27.9375,186 27.9375,166 27.9375,151.83333333333331 C27.9375,137.66666666666669 27.9375,129.33333333333334 27.9375,121 C27.9375,112.66666666666667 27.9375,104.33333333333333 27.9375,97.66666666666666 C27.9375,91 27.9375,86 95.55859375,76"/><path d=" M27.9375,336 C27.9375,326 27.9375,296 27.9375,275.99999999999994 C27.9375,255.99999999999997 27.9375,245.99999999999997 27.9375,236 C27.9375,225.99999999999997 27.9375,216 27.9375,201 C27.9375,186 27.9375,166 27.9375,151.83333333333331 C27.9375,137.66666666666669 27.9375,129.33333333333334 27.9375,121 C27.9375,112.66666666666667 27.9375,104.33333333333333 27.9375,97.66666666666666 C27.9375,91 27.9375,86 95.55859375,76" class="clickable"/></g><path d="M 95.55859375,76 L 102.55859375,73.5 L 102.55859375,78.5 Z" transform="rotate(171.58790561448768 95.55859375 76)" class="arrow" style="fill:rgb(48, 48, 48);stroke-linejoin:miter;stroke-miterlimit:2;"/></g><g id="sprotty_fsm$state_q/state$Pid_to_fsm$state_q/state$DataOrCrc160" class="sprotty-edge transition" style="fill:none;stroke:rgb(48, 48, 48);stroke-linejoin:round;"><g><path d=" M105.55859375,76 C105.55859375,76 99.640625,86 98.98307291666666,96"/><path d=" M105.55859375,76 C105.55859375,76 99.640625,86 98.98307291666666,96" class="clickable"/></g><path d="M 98.98307291666666,96 L 105.98307291666666,93.5 L 105.98307291666666,98.5 Z" transform="rotate(-86.23791993860122 98.98307291666666 96)" class="arrow" style="fill:rgb(48, 48, 48);stroke-linejoin:miter;stroke-miterlimit:2;"/></g><g id="sprotty_fsm$state_q/state$Pid_to_fsm$state_q/state$Eop" class="sprotty-edge transition" style="fill:none;stroke:rgb(48, 48, 48);stroke-linejoin:round;"><g><path d=" M115.55859375,76 C166.82682291666663,86 166.82682291666663,91 166.82682291666663,97.66666666666669 C166.82682291666663,104.33333333333334 166.82682291666663,112.66666666666666 166.82682291666663,121 C166.82682291666663,129.33333333333331 166.82682291666663,137.66666666666669 166.82682291666663,150.16666666666669 C166.82682291666663,162.66666666666669 166.82682291666663,179.33333333333337 166.82682291666663,190.1666666666667 C166.82682291666663,201 166.82682291666663,206 139.73046875,216"/><path d=" M115.55859375,76 C166.82682291666663,86 166.82682291666663,91 166.82682291666663,97.66666666666669 C166.82682291666663,104.33333333333334 166.82682291666663,112.66666666666666 166.82682291666663,121 C166.82682291666663,129.33333333333331 166.82682291666663,137.66666666666669 166.82682291666663,150.16666666666669 C166.82682291666663,162.66666666666669 166.82682291666663,179.33333333333337 166.82682291666663,190.1666666666667 C166.82682291666663,201 166.82682291666663,206 139.73046875,216" class="clickable"/></g><path d="M 139.73046875,216 L 146.73046875,213.5 L 146.73046875,218.5 Z" transform="rotate(-20.25675065547854 139.73046875 216)" class="arrow" style="fill:rgb(48, 48, 48);stroke-linejoin:miter;stroke-miterlimit:2;"/></g><g id="sprotty_fsm$state_q/state$DataOrCrc160_to_fsm$state_q/state$Crc161" class="sprotty-edge transition" style="fill:none;stroke:rgb(48, 48, 48);stroke-linejoin:round;"><g><path d=" M98.98307291666666,136 C98.98307291666667,136 98.98307291666667,146 98.98307291666666,156"/><path d=" M98.98307291666666,136 C98.98307291666667,136 98.98307291666667,146 98.98307291666666,156" class="clickable"/></g><path d="M 98.98307291666666,156 L 105.98307291666666,153.5 L 105.98307291666666,158.5 Z" transform="rotate(-89.99999999999993 98.98307291666666 156)" class="arrow" style="fill:rgb(48, 48, 48);stroke-linejoin:miter;stroke-miterlimit:2;"/></g><g id="sprotty_fsm$state_q/state$Crc161_to_fsm$state_q/state$Eop" class="sprotty-edge transition" style="fill:none;stroke:rgb(48, 48, 48);stroke-linejoin:round;"><g><path d=" M98.98307291666666,196 C98.98307291666667,196 101.69270833333334,206 126.07942708333334,216"/><path d=" M98.98307291666666,196 C98.98307291666667,196 101.69270833333334,206 126.07942708333334,216" class="clickable"/></g><path d="M 126.07942708333334,216 L 133.07942708333334,213.5 L 133.07942708333334,218.5 Z" transform="rotate(-157.70346386084708 126.07942708333334 216)" class="arrow" style="fill:rgb(48, 48, 48);stroke-linejoin:miter;stroke-miterlimit:2;"/></g><g id="sprotty_fsm$state_q/state$Eop_to_fsm$state_q/state$Idle" class="sprotty-edge transition" style="fill:none;stroke:rgb(48, 48, 48);stroke-linejoin:round;"><g><path d=" M132.90494791666669,256 C132.90494791666669,256 132.90494791666669,266 132.90494791666669,276"/><path d=" M132.90494791666669,256 C132.90494791666669,256 132.90494791666669,266 132.90494791666669,276" class="clickable"/></g><path d="M 132.90494791666669,276 L 139.90494791666669,273.5 L 139.90494791666669,278.5 Z" transform="rotate(-90 132.90494791666669 276)" class="arrow" style="fill:rgb(48, 48, 48);stroke-linejoin:miter;stroke-miterlimit:2;"/></g><g id="sprotty_fsm$state_q/state$OscTest_to_fsm$state_q/state$Idle" class="sprotty-edge transition" style="fill:none;stroke:rgb(48, 48, 48);stroke-linejoin:round;"><g><path d=" M149.52734375,336 C148.86979166666666,326 142.95182291666669,316 142.95182291666669,316"/><path d=" M149.52734375,336 C148.86979166666666,326 142.95182291666669,316 142.95182291666669,316" class="clickable"/></g><path d="M 142.95182291666669,316 L 149.95182291666669,313.5 L 149.95182291666669,318.5 Z" transform="rotate(59.38308597941535 142.95182291666669 316)" class="arrow" style="fill:rgb(48, 48, 48);stroke-linejoin:miter;stroke-miterlimit:2;"/></g></g></g></svg>