<svg xmlns="http://www.w3.org/2000/svg" id="sprotty_root" class="sprotty-graph sprotty-state-machine statemachine" style="font-family:&quot;Noto Sans&quot;, Helvetica, Arial, sans-serif;perspective-origin:0px 0px;transform-origin:0px 0px;" version="1.1" viewBox="10 10 169.59375 218" width="169.59375" height="218"><g transform="scale(1) translate(0,0)"><g id="sprotty_fsm$link_rst_state_q" transform="translate(15, 15)" class="statemachine"><g class="sprotty-block" style="fill:rgb(255, 255, 255);stroke:rgb(48, 48, 48);stroke-dasharray:0px;"><rect x="0" y="0" rx="1" ry="1" width="159.59375" height="208"/><text x="79.796875" y="12" class="sprotty-block-name" style="cursor:pointer;font-weight:700;perspective-origin:79.7969px 0px;fill:rgb(48, 48, 48);stroke:rgba(0, 0, 0, 0);dominant-baseline:middle;text-anchor:middle;">link_rst_state_q</text><line x1="0" y1="20" x2="159.59375" y2="20"/></g><g id="sprotty_fsm$link_rst_state_q/state$RstCnt" transform="translate(64.90625, 36)" class="state"><ellipse cx="30.6875" cy="20" rx="30.6875" ry="20" class="sprotty-node clickable" style="fill:rgb(255, 255, 255);stroke:rgb(48, 48, 48);"/><text class="clickable sprotty-label state" id="sprotty_fsm$link_rst_state_q/state$RstCnt/label" transform="translate(6, 8) translate(24.6875, 19)" style="cursor:default;perspective-origin:0px 0px;fill:rgb(48, 48, 48);text-anchor:middle;">RstCnt</text></g><g id="sprotty_fsm$link_rst_state_q/state$RstPend" transform="translate(12, 96)" class="state"><ellipse cx="36.796875" cy="20" rx="36.796875" ry="20" class="sprotty-node clickable" style="fill:rgb(255, 255, 255);stroke:rgb(48, 48, 48);"/><text class="clickable sprotty-label state" id="sprotty_fsm$link_rst_state_q/state$RstPend/label" transform="translate(6, 8) translate(30.796875, 19)" style="cursor:default;perspective-origin:0px 0px;fill:rgb(48, 48, 48);text-anchor:middle;">RstPend</text></g><g id="sprotty_fsm$link_rst_state_q/state$NoRst" transform="translate(66.69921875, 156)" class="state"><ellipse cx="28.296875" cy="20" rx="28.296875" ry="20" class="sprotty-node clickable" style="fill:rgb(255, 255, 255);stroke:rgb(48, 48, 48);"/><text class="clickable sprotty-label state" id="sprotty_fsm$link_rst_state_q/state$NoRst/label" transform="translate(6, 8) translate(22.296875, 19)" style="cursor:default;perspective-origin:0px 0px;fill:rgb(48, 48, 48);text-anchor:middle;">NoRst</text></g><g id="sprotty_fsm$link_rst_state_q/state$NoRst_to_fsm$link_rst_state_q/state$RstCnt" class="sprotty-edge transition" style="fill:none;stroke:rgb(48, 48, 48);stroke-linejoin:round;"><g><path d=" M109.14453125,156 C146.59375,146 146.59375,141 146.59375,135.16666666666666 C146.59375,129.33333333333331 146.59375,122.66666666666666 146.59375,116 C146.59375,109.33333333333333 146.59375,102.66666666666666 146.59375,96.83333333333333 C146.59375,91 146.59375,86 110.9375,76"/><path d=" M109.14453125,156 C146.59375,146 146.59375,141 146.59375,135.16666666666666 C146.59375,129.33333333333331 146.59375,122.66666666666666 146.59375,116 C146.59375,109.33333333333333 146.59375,102.66666666666666 146.59375,96.83333333333333 C146.59375,91 146.59375,86 110.9375,76" class="clickable"/></g><path d="M 110.9375,76 L 117.9375,73.5 L 117.9375,78.5 Z" transform="rotate(15.66645725159644 110.9375 76)" class="arrow" style="fill:rgb(48, 48, 48);stroke-linejoin:miter;stroke-miterlimit:2;"/></g><g id="sprotty_fsm$link_rst_state_q/state$RstCnt_to_fsm$link_rst_state_q/state$NoRst" class="sprotty-edge transition" style="fill:none;stroke:rgb(48, 48, 48);stroke-linejoin:round;"><g><path d=" M95.59375,76 C95.59375,86 95.59375,98.5 95.59375,108.91666666666667 C95.59375,119.33333333333334 95.59375,127.66666666666666 95.59375,134.33333333333331 C95.59375,141 95.59375,146 94.99609375,156"/><path d=" M95.59375,76 C95.59375,86 95.59375,98.5 95.59375,108.91666666666667 C95.59375,119.33333333333334 95.59375,127.66666666666666 95.59375,134.33333333333331 C95.59375,141 95.59375,146 94.99609375,156" class="clickable"/></g><path d="M 94.99609375,156 L 101.99609375,153.5 L 101.99609375,158.5 Z" transform="rotate(-86.57975035321863 94.99609375 156)" class="arrow" style="fill:rgb(48, 48, 48);stroke-linejoin:miter;stroke-miterlimit:2;"/></g><g id="sprotty_fsm$link_rst_state_q/state$RstCnt_to_fsm$link_rst_state_q/state$RstPend" class="sprotty-edge transition" style="fill:none;stroke:rgb(48, 48, 48);stroke-linejoin:round;"><g><path d=" M80.25,76 C80.25,76 51.9421875,86 48.796875,96"/><path d=" M80.25,76 C80.25,76 51.9421875,86 48.796875,96" class="clickable"/></g><path d="M 48.796875,96 L 55.796875,93.5 L 55.796875,98.5 Z" transform="rotate(-72.54000898708178 48.796875 96)" class="arrow" style="fill:rgb(48, 48, 48);stroke-linejoin:miter;stroke-miterlimit:2;"/></g><g id="sprotty_fsm$link_rst_state_q/state$RstPend_to_fsm$link_rst_state_q/state$NoRst" class="sprotty-edge transition" style="fill:none;stroke:rgb(48, 48, 48);stroke-linejoin:round;"><g><path d=" M48.796875,136 C48.796875,136 52.001953125,146 80.84765625,156"/><path d=" M48.796875,136 C48.796875,136 52.001953125,146 80.84765625,156" class="clickable"/></g><path d="M 80.84765625,156 L 87.84765625,153.5 L 87.84765625,158.5 Z" transform="rotate(-160.87999661005728 80.84765625 156)" class="arrow" style="fill:rgb(48, 48, 48);stroke-linejoin:miter;stroke-miterlimit:2;"/></g></g></g></svg>