<svg xmlns="http://www.w3.org/2000/svg" id="sprotty_root" class="sprotty-graph sprotty-state-machine statemachine" style="font-family:&quot;Noto Sans&quot;, Helvetica, Arial, sans-serif;perspective-origin:0px 0px;transform-origin:0px 0px;" version="1.1" viewBox="10 10 241.2421875 338" width="241.2421875" height="338"><g transform="scale(1) translate(0,0)"><g id="sprotty_fsm$astate_q" transform="translate(15, 15)" class="statemachine"><g class="sprotty-block" style="fill:rgb(255, 255, 255);stroke:rgb(48, 48, 48);stroke-dasharray:0px;"><rect x="0" y="0" rx="1" ry="1" width="231.2421875" height="328"/><text x="115.62109375" y="12" class="sprotty-block-name" style="cursor:pointer;font-weight:700;perspective-origin:115.609px 0px;fill:rgb(48, 48, 48);stroke:rgba(0, 0, 0, 0);dominant-baseline:middle;text-anchor:middle;">astate_q</text><line x1="0" y1="20" x2="231.2421875" y2="20"/></g><g id="sprotty_fsm$astate_q/state$AwkWoken" transform="translate(125.02343750000001, 96)" class="state"><ellipse cx="47.109375" cy="20" rx="47.109375" ry="20" class="sprotty-node clickable" style="fill:rgb(255, 255, 255);stroke:rgb(48, 48, 48);"/><text class="clickable sprotty-label state" id="sprotty_fsm$astate_q/state$AwkWoken/label" transform="translate(6, 8) translate(41.109375, 19)" style="cursor:default;perspective-origin:0px 0px;fill:rgb(48, 48, 48);text-anchor:middle;">AwkWoken</text></g><g id="sprotty_fsm$astate_q/state$AwkTrigUoff" transform="translate(73.7734375, 276)" class="state"><ellipse cx="51.65625" cy="20" rx="51.65625" ry="20" class="sprotty-node clickable" style="fill:rgb(255, 255, 255);stroke:rgb(48, 48, 48);"/><text class="clickable sprotty-label state" id="sprotty_fsm$astate_q/state$AwkTrigUoff/label" transform="translate(6, 8) translate(45.296875, 19)" style="cursor:default;perspective-origin:0.359375px 0px;fill:rgb(48, 48, 48);text-anchor:middle;">AwkTrigUoff</text></g><g id="sprotty_fsm$astate_q/state$AwkIdle" transform="translate(90.19010416666667, 156)" class="state"><ellipse cx="35.75" cy="20" rx="35.75" ry="20" class="sprotty-node clickable" style="fill:rgb(255, 255, 255);stroke:rgb(48, 48, 48);"/><text class="clickable sprotty-label state" id="sprotty_fsm$astate_q/state$AwkIdle/label" transform="translate(6, 8) translate(29.6875, 19)" style="cursor:default;perspective-origin:0.0625px 0px;fill:rgb(48, 48, 48);text-anchor:middle;">AwkIdle</text></g><g id="sprotty_fsm$astate_q/state$AwkTrigUon" transform="translate(12, 216)" class="state"><ellipse cx="51.046875" cy="20" rx="51.046875" ry="20" class="sprotty-node clickable" style="fill:rgb(255, 255, 255);stroke:rgb(48, 48, 48);"/><text class="clickable sprotty-label state" id="sprotty_fsm$astate_q/state$AwkTrigUon/label" transform="translate(6, 8) translate(45.046875, 19)" style="cursor:default;perspective-origin:0px 0px;fill:rgb(48, 48, 48);text-anchor:middle;">AwkTrigUon</text></g><g id="sprotty_fsm$astate_q/state$AwkWokenUon" transform="translate(26.153906250000006, 36)" class="state"><ellipse cx="62.609375" cy="20" rx="62.609375" ry="20" class="sprotty-node clickable" style="fill:rgb(255, 255, 255);stroke:rgb(48, 48, 48);"/><text class="clickable sprotty-label state" id="sprotty_fsm$astate_q/state$AwkWokenUon/label" transform="translate(6, 8) translate(56.609375, 19)" style="cursor:default;perspective-origin:0px 0px;fill:rgb(48, 48, 48);text-anchor:middle;">AwkWokenUon</text></g><g id="sprotty_fsm$astate_q/state$AwkIdle_to_fsm$astate_q/state$AwkTrigUon" class="sprotty-edge transition" style="fill:none;stroke:rgb(48, 48, 48);stroke-linejoin:round;"><g><path d=" M125.94010416666667,196 C125.94010416666667,196 122.203125,206 88.5703125,216"/><path d=" M125.94010416666667,196 C125.94010416666667,196 122.203125,206 88.5703125,216" class="clickable"/></g><path d="M 88.5703125,216 L 95.5703125,213.5 L 95.5703125,218.5 Z" transform="rotate(-16.558723836614856 88.5703125 216)" class="arrow" style="fill:rgb(48, 48, 48);stroke-linejoin:miter;stroke-miterlimit:2;"/></g><g id="sprotty_fsm$astate_q/state$AwkTrigUon_to_fsm$astate_q/state$AwkWokenUon" class="sprotty-edge transition" style="fill:none;stroke:rgb(48, 48, 48);stroke-linejoin:round;"><g><path d=" M37.5234375,216 C12.0234375,206 12.0234375,201 12.023437499999986,190.1666666666667 C12.023437499999986,179.33333333333337 12.023437499999986,162.66666666666669 12.023437499999986,150.16666666666669 C12.0234375,137.66666666666669 12.0234375,129.33333333333331 12.0234375,121 C12.0234375,112.66666666666666 12.023437499999986,104.33333333333334 12.023437499999986,97.66666666666669 C12.023437499999986,91 12.0234375,86 51.19765625000001,76"/><path d=" M37.5234375,216 C12.0234375,206 12.0234375,201 12.023437499999986,190.1666666666667 C12.023437499999986,179.33333333333337 12.023437499999986,162.66666666666669 12.023437499999986,150.16666666666669 C12.0234375,137.66666666666669 12.0234375,129.33333333333331 12.0234375,121 C12.0234375,112.66666666666666 12.023437499999986,104.33333333333334 12.023437499999986,97.66666666666669 C12.023437499999986,91 12.0234375,86 51.19765625000001,76" class="clickable"/></g><path d="M 51.19765625000001,76 L 58.19765625000001,73.5 L 58.19765625000001,78.5 Z" transform="rotate(165.67992761563755 51.19765625000001 76)" class="arrow" style="fill:rgb(48, 48, 48);stroke-linejoin:miter;stroke-miterlimit:2;"/></g><g id="sprotty_fsm$astate_q/state$AwkTrigUon_to_fsm$astate_q/state$AwkTrigUoff" class="sprotty-edge transition" style="fill:none;stroke:rgb(48, 48, 48);stroke-linejoin:round;"><g><path d=" M63.046875,256 C63.046875,256 67.56328125,266 108.2109375,276"/><path d=" M63.046875,256 C63.046875,256 67.56328125,266 108.2109375,276" class="clickable"/></g><path d="M 108.2109375,276 L 115.2109375,273.5 L 115.2109375,278.5 Z" transform="rotate(-166.17876123189885 108.2109375 276)" class="arrow" style="fill:rgb(48, 48, 48);stroke-linejoin:miter;stroke-miterlimit:2;"/></g><g id="sprotty_fsm$astate_q/state$AwkTrigUoff_to_fsm$astate_q/state$AwkWoken" class="sprotty-edge transition" style="fill:none;stroke:rgb(48, 48, 48);stroke-linejoin:round;"><g><path d=" M142.6484375,276 C187.8359375,266 187.8359375,261 187.8359375,250.16666666666666 C187.8359375,239.33333333333331 187.8359375,222.66666666666666 187.8359375,209.33333333333331 C187.8359375,196 187.8359375,186 187.8359375,173.5 C187.8359375,161 187.8359375,146 187.8359375,136"/><path d=" M142.6484375,276 C187.8359375,266 187.8359375,261 187.8359375,250.16666666666666 C187.8359375,239.33333333333331 187.8359375,222.66666666666666 187.8359375,209.33333333333331 C187.8359375,196 187.8359375,186 187.8359375,173.5 C187.8359375,161 187.8359375,146 187.8359375,136" class="clickable"/></g><path d="M 187.8359375,136 L 194.8359375,133.5 L 194.8359375,138.5 Z" transform="rotate(90 187.8359375 136)" class="arrow" style="fill:rgb(48, 48, 48);stroke-linejoin:miter;stroke-miterlimit:2;"/></g><g id="sprotty_fsm$astate_q/state$AwkWokenUon_to_fsm$astate_q/state$AwkIdle" class="sprotty-edge transition" style="fill:none;stroke:rgb(48, 48, 48);stroke-linejoin:round;"><g><path d=" M101.28515625,76 C114.02343750000001,86 114.02343750000001,91 114.02343750000001,97.66666666666667 C114.02343750000001,104.33333333333334 114.02343750000001,112.66666666666666 114.02343750000001,123.0833333333333 C114.02343750000001,133.5 114.02343750000001,146 114.0234375,156"/><path d=" M101.28515625,76 C114.02343750000001,86 114.02343750000001,91 114.02343750000001,97.66666666666667 C114.02343750000001,104.33333333333334 114.02343750000001,112.66666666666666 114.02343750000001,123.0833333333333 C114.02343750000001,133.5 114.02343750000001,146 114.0234375,156" class="clickable"/></g><path d="M 114.0234375,156 L 121.0234375,153.5 L 121.0234375,158.5 Z" transform="rotate(-89.99999999999993 114.0234375 156)" class="arrow" style="fill:rgb(48, 48, 48);stroke-linejoin:miter;stroke-miterlimit:2;"/></g><g id="sprotty_fsm$astate_q/state$AwkWokenUon_to_fsm$astate_q/state$AwkTrigUon" class="sprotty-edge transition" style="fill:none;stroke:rgb(48, 48, 48);stroke-linejoin:round;"><g><path d=" M76.24140625000001,76 C63.02343750000001,86 63.02343750000001,91 63.023437500000014,97.66666666666666 C63.023437500000014,104.33333333333333 63.023437500000014,112.66666666666666 63.023437500000014,121 C63.023437500000014,129.33333333333331 63.023437500000014,137.66666666666666 63.02636718750001,156.83333333333331 C63.029296875,176 63.03515625,206 63.046875,216"/><path d=" M76.24140625000001,76 C63.02343750000001,86 63.02343750000001,91 63.023437500000014,97.66666666666666 C63.023437500000014,104.33333333333333 63.023437500000014,112.66666666666666 63.023437500000014,121 C63.023437500000014,129.33333333333331 63.023437500000014,137.66666666666666 63.02636718750001,156.83333333333331 C63.029296875,176 63.03515625,206 63.046875,216" class="clickable"/></g><path d="M 63.046875,216 L 70.046875,213.5 L 70.046875,218.5 Z" transform="rotate(-90.06714346088107 63.046875 216)" class="arrow" style="fill:rgb(48, 48, 48);stroke-linejoin:miter;stroke-miterlimit:2;"/></g><g id="sprotty_fsm$astate_q/state$AwkWokenUon_to_fsm$astate_q/state$AwkWoken" class="sprotty-edge transition" style="fill:none;stroke:rgb(48, 48, 48);stroke-linejoin:round;"><g><path d=" M126.32890625,76 C126.32890625,76 167.55242187500002,86 172.1328125,96"/><path d=" M126.32890625,76 C126.32890625,76 167.55242187500002,86 172.1328125,96" class="clickable"/></g><path d="M 172.1328125,96 L 179.1328125,93.5 L 179.1328125,98.5 Z" transform="rotate(-114.60962975457996 172.1328125 96)" class="arrow" style="fill:rgb(48, 48, 48);stroke-linejoin:miter;stroke-miterlimit:2;"/></g><g id="sprotty_fsm$astate_q/state$AwkWoken_to_fsm$astate_q/state$AwkIdle" class="sprotty-edge transition" style="fill:none;stroke:rgb(48, 48, 48);stroke-linejoin:round;"><g><path d=" M156.4296875,136 C156.4296875,136 147.14322916666669,146 137.85677083333334,156"/><path d=" M156.4296875,136 C156.4296875,136 147.14322916666669,146 137.85677083333334,156" class="clickable"/></g><path d="M 137.85677083333334,156 L 144.85677083333334,153.5 L 144.85677083333334,158.5 Z" transform="rotate(-47.11880726665553 137.85677083333334 156)" class="arrow" style="fill:rgb(48, 48, 48);stroke-linejoin:miter;stroke-miterlimit:2;"/></g></g></g></svg>