<svg xmlns="http://www.w3.org/2000/svg" id="sprotty_root" class="sprotty-graph sprotty-state-machine statemachine" style="font-family:&quot;Noto Sans&quot;, Helvetica, Arial, sans-serif;perspective-origin:0px 0px;transform-origin:0px 0px;" version="1.1" viewBox="10 10 404.10703125 318" width="404.10703125" height="318"><g transform="scale(1) translate(0,0)"><g id="sprotty_fsm$link_state_q" transform="translate(15, 15)" class="statemachine"><g class="sprotty-block" style="fill:rgb(255, 255, 255);stroke:rgb(48, 48, 48);stroke-dasharray:0px;"><rect x="0" y="0" rx="1" ry="1" width="394.10703125" height="308"/><text x="197.053515625" y="12" class="sprotty-block-name" style="cursor:pointer;font-weight:700;perspective-origin:197.047px 0px;fill:rgb(48, 48, 48);stroke:rgba(0, 0, 0, 0);dominant-baseline:middle;text-anchor:middle;">link_state_q</text><line x1="0" y1="20" x2="394.10703125" y2="20"/></g><g id="sprotty_fsm$link_state_q/state$LinkDisconnect" transform="translate(12, 36)" class="state"><ellipse cx="63.21875" cy="20" rx="63.21875" ry="20" class="sprotty-node clickable" style="fill:rgb(255, 255, 255);stroke:rgb(48, 48, 48);"/><text class="clickable sprotty-label state" id="sprotty_fsm$link_state_q/state$LinkDisconnect/label" transform="translate(6, 8) translate(57.21875, 19)" style="cursor:default;perspective-origin:0px 0px;fill:rgb(48, 48, 48);text-anchor:middle;">LinkDisconnect</text></g><g id="sprotty_fsm$link_state_q/state$LinkPowered" transform="translate(108.26562499999999, 116)" class="state"><ellipse cx="54.734375" cy="20" rx="54.734375" ry="20" class="sprotty-node clickable" style="fill:rgb(255, 255, 255);stroke:rgb(48, 48, 48);"/><text class="clickable sprotty-label state" id="sprotty_fsm$link_state_q/state$LinkPowered/label" transform="translate(6, 8) translate(48.734375, 19)" style="cursor:default;perspective-origin:0px 0px;fill:rgb(48, 48, 48);text-anchor:middle;">LinkPowered</text></g><g id="sprotty_fsm$link_state_q/state$LinkPoweredSuspend" transform="translate(163.4375, 36)" class="state"><ellipse cx="87.34375" cy="20" rx="87.34375" ry="20" class="sprotty-node clickable" style="fill:rgb(255, 255, 255);stroke:rgb(48, 48, 48);"/><text class="clickable sprotty-label state" id="sprotty_fsm$link_state_q/state$LinkPoweredSuspend/label" transform="translate(6, 8) translate(81.34375, 19)" style="cursor:default;perspective-origin:0px 0px;fill:rgb(48, 48, 48);text-anchor:middle;">LinkPoweredSuspend</text></g><g id="sprotty_fsm$link_state_q/state$LinkActiveNoSOF" transform="translate(173.31640625, 186)" class="state"><ellipse cx="70.3046875" cy="20" rx="70.3046875" ry="20" class="sprotty-node clickable" style="fill:rgb(255, 255, 255);stroke:rgb(48, 48, 48);"/><text class="clickable sprotty-label state" id="sprotty_fsm$link_state_q/state$LinkActiveNoSOF/label" transform="translate(6, 8) translate(64.21875, 19)" style="cursor:default;perspective-origin:0.078125px 0px;fill:rgb(48, 48, 48);text-anchor:middle;">LinkActiveNoSOF</text></g><g id="sprotty_fsm$link_state_q/state$LinkSuspend" transform="translate(273.16953125, 116)" class="state"><ellipse cx="54.46875" cy="20" rx="54.46875" ry="20" class="sprotty-node clickable" style="fill:rgb(255, 255, 255);stroke:rgb(48, 48, 48);"/><text class="clickable sprotty-label state" id="sprotty_fsm$link_state_q/state$LinkSuspend/label" transform="translate(6, 8) translate(48.46875, 19)" style="cursor:default;perspective-origin:0px 0px;fill:rgb(48, 48, 48);text-anchor:middle;">LinkSuspend</text></g><g id="sprotty_fsm$link_state_q/state$LinkActive" transform="translate(287.07109375, 256)" class="state"><ellipse cx="44.5390625" cy="20" rx="44.5390625" ry="20" class="sprotty-node clickable" style="fill:rgb(255, 255, 255);stroke:rgb(48, 48, 48);"/><text class="clickable sprotty-label state" id="sprotty_fsm$link_state_q/state$LinkActive/label" transform="translate(6, 8) translate(38.46875, 19)" style="cursor:default;perspective-origin:0.0625px 0px;fill:rgb(48, 48, 48);text-anchor:middle;">LinkActive</text></g><g id="sprotty_fsm$link_state_q/state$LinkDisconnect_to_fsm$link_state_q/state$LinkPowered" class="sprotty-edge transition" style="fill:none;stroke:rgb(48, 48, 48);stroke-linejoin:round;"><g><path d=" M75.21875,76 C75.21875,76 81.26015625,96 135.6328125,116"/><path d=" M75.21875,76 C75.21875,76 81.26015625,96 135.6328125,116" class="clickable"/></g><path d="M 135.6328125,116 L 142.6328125,113.5 L 142.6328125,118.5 Z" transform="rotate(-159.80486559717696 135.6328125 116)" class="arrow" style="fill:rgb(48, 48, 48);stroke-linejoin:miter;stroke-miterlimit:2;"/></g><g id="sprotty_fsm$link_state_q/state$LinkPowered_to_fsm$link_state_q/state$LinkActiveNoSOF" class="sprotty-edge transition" style="fill:none;stroke:rgb(48, 48, 48);stroke-linejoin:round;"><g><path d=" M163,156 C163,156 166.843828125,171 201.43828125,186"/><path d=" M163,156 C163,156 166.843828125,171 201.43828125,186" class="clickable"/></g><path d="M 201.43828125,186 L 208.43828125,183.5 L 208.43828125,188.5 Z" transform="rotate(-156.5586609439595 201.43828125 186)" class="arrow" style="fill:rgb(48, 48, 48);stroke-linejoin:miter;stroke-miterlimit:2;"/></g><g id="sprotty_fsm$link_state_q/state$LinkPowered_to_fsm$link_state_q/state$LinkPoweredSuspend" class="sprotty-edge transition" style="fill:none;stroke:rgb(48, 48, 48);stroke-linejoin:round;"><g><path d=" M163,116 C185.0546875,96 207.109375,76 207.109375,76"/><path d=" M163,116 C185.0546875,96 207.109375,76 207.109375,76" class="clickable"/></g><path d="M 207.109375,76 L 214.109375,73.5 L 214.109375,78.5 Z" transform="rotate(137.79710517117644 207.109375 76)" class="arrow" style="fill:rgb(48, 48, 48);stroke-linejoin:miter;stroke-miterlimit:2;"/></g><g id="sprotty_fsm$link_state_q/state$LinkPoweredSuspend_to_fsm$link_state_q/state$LinkActiveNoSOF" class="sprotty-edge transition" style="fill:none;stroke:rgb(48, 48, 48);stroke-linejoin:round;"><g><path d=" M294.453125,76 C229.56015624999998,96 229.56015624999998,106 229.56015624999998,115.58333333333334 C229.56015624999998,125.16666666666667 229.56015624999995,134.33333333333331 229.56015624999992,145.79166666666663 C229.56015624999995,157.25 229.56015624999998,171 229.56015625,186"/><path d=" M294.453125,76 C229.56015624999998,96 229.56015624999998,106 229.56015624999998,115.58333333333334 C229.56015624999998,125.16666666666667 229.56015624999995,134.33333333333331 229.56015624999992,145.79166666666663 C229.56015624999995,157.25 229.56015624999998,171 229.56015625,186" class="clickable"/></g><path d="M 229.56015625,186 L 236.56015625,183.5 L 236.56015625,188.5 Z" transform="rotate(-90.00000000000011 229.56015625 186)" class="arrow" style="fill:rgb(48, 48, 48);stroke-linejoin:miter;stroke-miterlimit:2;"/></g><g id="sprotty_fsm$link_state_q/state$LinkPoweredSuspend_to_fsm$link_state_q/state$LinkPowered" class="sprotty-edge transition" style="fill:none;stroke:rgb(48, 48, 48);stroke-linejoin:round;"><g><path d=" M250.78125,76 C250.78125,76 220.57421875,96 190.3671875,116"/><path d=" M250.78125,76 C250.78125,76 220.57421875,96 190.3671875,116" class="clickable"/></g><path d="M 190.3671875,116 L 197.3671875,113.5 L 197.3671875,118.5 Z" transform="rotate(-33.508443306187615 190.3671875 116)" class="arrow" style="fill:rgb(48, 48, 48);stroke-linejoin:miter;stroke-miterlimit:2;"/></g><g id="sprotty_fsm$link_state_q/state$LinkActiveNoSOF_to_fsm$link_state_q/state$LinkSuspend" class="sprotty-edge transition" style="fill:none;stroke:rgb(48, 48, 48);stroke-linejoin:round;"><g><path d=" M257.68203125,186 C276.31953124999995,171 294.95703125,156 294.95703125,156"/><path d=" M257.68203125,186 C276.31953124999995,171 294.95703125,156 294.95703125,156" class="clickable"/></g><path d="M 294.95703125,156 L 301.95703125,153.5 L 301.95703125,158.5 Z" transform="rotate(141.17188149463345 294.95703125 156)" class="arrow" style="fill:rgb(48, 48, 48);stroke-linejoin:miter;stroke-miterlimit:2;"/></g><g id="sprotty_fsm$link_state_q/state$LinkActiveNoSOF_to_fsm$link_state_q/state$LinkActive" class="sprotty-edge transition" style="fill:none;stroke:rgb(48, 48, 48);stroke-linejoin:round;"><g><path d=" M220.18619791666666,226 C220.18619791666666,226 228.65624999999997,241 304.88671875,256"/><path d=" M220.18619791666666,226 C220.18619791666666,226 228.65624999999997,241 304.88671875,256" class="clickable"/></g><path d="M 304.88671875,256 L 311.88671875,253.5 L 311.88671875,258.5 Z" transform="rotate(-168.8680304753146 304.88671875 256)" class="arrow" style="fill:rgb(48, 48, 48);stroke-linejoin:miter;stroke-miterlimit:2;"/></g><g id="sprotty_fsm$link_state_q/state$LinkActive_to_fsm$link_state_q/state$LinkSuspend" class="sprotty-edge transition" style="fill:none;stroke:rgb(48, 48, 48);stroke-linejoin:round;"><g><path d=" M340.51796875,256 C323.92578125,241 323.92578125,233.5 323.92578125,226.41666666666666 C323.92578125,219.33333333333331 323.92578125,212.66666666666666 323.92578125,206 C323.92578125,199.33333333333331 323.92578125,192.66666666666666 323.92578125,185.58333333333331 C323.92578125,178.5 323.92578125,171 338.53203125,156"/><path d=" M340.51796875,256 C323.92578125,241 323.92578125,233.5 323.92578125,226.41666666666666 C323.92578125,219.33333333333331 323.92578125,212.66666666666666 323.92578125,206 C323.92578125,199.33333333333331 323.92578125,192.66666666666666 323.92578125,185.58333333333331 C323.92578125,178.5 323.92578125,171 338.53203125,156" class="clickable"/></g><path d="M 338.53203125,156 L 345.53203125,153.5 L 345.53203125,158.5 Z" transform="rotate(134.23803645555483 338.53203125 156)" class="arrow" style="fill:rgb(48, 48, 48);stroke-linejoin:miter;stroke-miterlimit:2;"/></g><g id="sprotty_fsm$link_state_q/state$LinkActive_to_fsm$link_state_q/state$LinkActiveNoSOF" class="sprotty-edge transition" style="fill:none;stroke:rgb(48, 48, 48);stroke-linejoin:round;"><g><path d=" M322.70234375,256 C272.620625,241 267.0559895833333,226 267.0559895833333,226"/><path d=" M322.70234375,256 C272.620625,241 267.0559895833333,226 267.0559895833333,226" class="clickable"/></g><path d="M 267.0559895833333,226 L 274.0559895833333,223.5 L 274.0559895833333,228.5 Z" transform="rotate(69.64637032698099 267.0559895833333 226)" class="arrow" style="fill:rgb(48, 48, 48);stroke-linejoin:miter;stroke-miterlimit:2;"/></g><g id="sprotty_fsm$link_state_q/state$LinkSuspend_to_fsm$link_state_q/state$LinkActiveNoSOF" class="sprotty-edge transition" style="fill:none;stroke:rgb(48, 48, 48);stroke-linejoin:round;"><g><path d=" M316.74453124999997,156 C316.74453124999997,156 301.27421875,171 285.80390625,186"/><path d=" M316.74453124999997,156 C316.74453124999997,156 301.27421875,171 285.80390625,186" class="clickable"/></g><path d="M 285.80390625,186 L 292.80390625,183.5 L 292.80390625,188.5 Z" transform="rotate(-44.11570379723388 285.80390625 186)" class="arrow" style="fill:rgb(48, 48, 48);stroke-linejoin:miter;stroke-miterlimit:2;"/></g><g id="sprotty_fsm$link_state_q/state$LinkSuspend_to_fsm$link_state_q/state$LinkActive" class="sprotty-edge transition" style="fill:none;stroke:rgb(48, 48, 48);stroke-linejoin:round;"><g><path d=" M360.31953124999995,156 C374.92578124999994,171 374.92578124999994,178.5 374.92578124999994,185.58333333333331 C374.92578124999994,192.66666666666666 374.92578124999994,199.33333333333331 374.92578124999994,206 C374.92578124999994,212.66666666666666 374.92578124999994,219.33333333333331 374.92578124999994,226.41666666666666 C374.92578124999994,233.5 374.92578124999994,241 358.33359375,256"/><path d=" M360.31953124999995,156 C374.92578124999994,171 374.92578124999994,178.5 374.92578124999994,185.58333333333331 C374.92578124999994,192.66666666666666 374.92578124999994,199.33333333333331 374.92578124999994,206 C374.92578124999994,212.66666666666666 374.92578124999994,219.33333333333331 374.92578124999994,226.41666666666666 C374.92578124999994,233.5 374.92578124999994,241 358.33359375,256" class="clickable"/></g><path d="M 358.33359375,256 L 365.33359375,253.5 L 365.33359375,258.5 Z" transform="rotate(-42.11484035166074 358.33359375 256)" class="arrow" style="fill:rgb(48, 48, 48);stroke-linejoin:miter;stroke-miterlimit:2;"/></g></g></g></svg>