<svg xmlns="http://www.w3.org/2000/svg" id="sprotty_root" class="sprotty-graph sprotty-state-machine statemachine" style="font-family:&quot;Noto Sans&quot;, Helvetica, Arial, sans-serif;perspective-origin:0px 0px;transform-origin:0px 0px;" version="1.1" viewBox="10 10 183.75 218" width="183.75" height="218"><g transform="scale(1) translate(0,0)"><g id="sprotty_fsm$link_inac_state_q" transform="translate(15, 15)" class="statemachine"><g class="sprotty-block" style="fill:rgb(255, 255, 255);stroke:rgb(48, 48, 48);stroke-dasharray:0px;"><rect x="0" y="0" rx="1" ry="1" width="173.75" height="208"/><text x="86.875" y="12" class="sprotty-block-name" style="cursor:pointer;font-weight:700;perspective-origin:86.875px 0px;fill:rgb(48, 48, 48);stroke:rgba(0, 0, 0, 0);dominant-baseline:middle;text-anchor:middle;">link_inac_state_q</text><line x1="0" y1="20" x2="173.75" y2="20"/></g><g id="sprotty_fsm$link_inac_state_q/state$InactPend" transform="translate(12, 96)" class="state"><ellipse cx="43.875" cy="20" rx="43.875" ry="20" class="sprotty-node clickable" style="fill:rgb(255, 255, 255);stroke:rgb(48, 48, 48);"/><text class="clickable sprotty-label state" id="sprotty_fsm$link_inac_state_q/state$InactPend/label" transform="translate(6, 8) translate(37.875, 19)" style="cursor:default;perspective-origin:0px 0px;fill:rgb(48, 48, 48);text-anchor:middle;">InactPend</text></g><g id="sprotty_fsm$link_inac_state_q/state$Active" transform="translate(78.787109375, 156)" class="state"><ellipse cx="28.6953125" cy="20" rx="28.6953125" ry="20" class="sprotty-node clickable" style="fill:rgb(255, 255, 255);stroke:rgb(48, 48, 48);"/><text class="clickable sprotty-label state" id="sprotty_fsm$link_inac_state_q/state$Active/label" transform="translate(6, 8) translate(22.625, 19)" style="cursor:default;perspective-origin:0.0625px 0px;fill:rgb(48, 48, 48);text-anchor:middle;">Active</text></g><g id="sprotty_fsm$link_inac_state_q/state$InactCnt" transform="translate(71.984375, 36)" class="state"><ellipse cx="37.765625" cy="20" rx="37.765625" ry="20" class="sprotty-node clickable" style="fill:rgb(255, 255, 255);stroke:rgb(48, 48, 48);"/><text class="clickable sprotty-label state" id="sprotty_fsm$link_inac_state_q/state$InactCnt/label" transform="translate(6, 8) translate(31.765625, 19)" style="cursor:default;perspective-origin:0px 0px;fill:rgb(48, 48, 48);text-anchor:middle;">InactCnt</text></g><g id="sprotty_fsm$link_inac_state_q/state$Active_to_fsm$link_inac_state_q/state$InactCnt" class="sprotty-edge transition" style="fill:none;stroke:rgb(48, 48, 48);stroke-linejoin:round;"><g><path d=" M121.830078125,156 C160.75,146 160.75,141 160.75,135.16666666666666 C160.75,129.33333333333331 160.75,122.66666666666666 160.75,116 C160.75,109.33333333333333 160.75,102.66666666666666 160.75,96.83333333333333 C160.75,91 160.75,86 128.6328125,76"/><path d=" M121.830078125,156 C160.75,146 160.75,141 160.75,135.16666666666666 C160.75,129.33333333333331 160.75,122.66666666666666 160.75,116 C160.75,109.33333333333333 160.75,102.66666666666666 160.75,96.83333333333333 C160.75,91 160.75,86 128.6328125,76" class="clickable"/></g><path d="M 128.6328125,76 L 135.6328125,73.5 L 135.6328125,78.5 Z" transform="rotate(17.294487090306916 128.6328125 76)" class="arrow" style="fill:rgb(48, 48, 48);stroke-linejoin:miter;stroke-miterlimit:2;"/></g><g id="sprotty_fsm$link_inac_state_q/state$InactCnt_to_fsm$link_inac_state_q/state$Active" class="sprotty-edge transition" style="fill:none;stroke:rgb(48, 48, 48);stroke-linejoin:round;"><g><path d=" M109.75,76 C109.75,86 109.75,98.5 109.75,108.91666666666667 C109.75,119.33333333333334 109.75,127.66666666666666 109.75,134.33333333333331 C109.75,141 109.75,146 107.482421875,156"/><path d=" M109.75,76 C109.75,86 109.75,98.5 109.75,108.91666666666667 C109.75,119.33333333333334 109.75,127.66666666666666 109.75,134.33333333333331 C109.75,141 109.75,146 107.482421875,156" class="clickable"/></g><path d="M 107.482421875,156 L 114.482421875,153.5 L 114.482421875,158.5 Z" transform="rotate(-77.22379045838369 107.482421875 156)" class="arrow" style="fill:rgb(48, 48, 48);stroke-linejoin:miter;stroke-miterlimit:2;"/></g><g id="sprotty_fsm$link_inac_state_q/state$InactCnt_to_fsm$link_inac_state_q/state$InactPend" class="sprotty-edge transition" style="fill:none;stroke:rgb(48, 48, 48);stroke-linejoin:round;"><g><path d=" M90.8671875,76 C90.8671875,76 59.37421875,86 55.875,96"/><path d=" M90.8671875,76 C90.8671875,76 59.37421875,86 55.875,96" class="clickable"/></g><path d="M 55.875,96 L 62.875,93.5 L 62.875,98.5 Z" transform="rotate(-70.7139416131583 55.875 96)" class="arrow" style="fill:rgb(48, 48, 48);stroke-linejoin:miter;stroke-miterlimit:2;"/></g><g id="sprotty_fsm$link_inac_state_q/state$InactPend_to_fsm$link_inac_state_q/state$Active" class="sprotty-edge transition" style="fill:none;stroke:rgb(48, 48, 48);stroke-linejoin:round;"><g><path d=" M55.875,136 C55.875,136 59.6009765625,146 93.134765625,156"/><path d=" M55.875,136 C55.875,136 59.6009765625,146 93.134765625,156" class="clickable"/></g><path d="M 93.134765625,156 L 100.134765625,153.5 L 100.134765625,158.5 Z" transform="rotate(-163.39506783038908 93.134765625 156)" class="arrow" style="fill:rgb(48, 48, 48);stroke-linejoin:miter;stroke-miterlimit:2;"/></g></g></g></svg>