<svg xmlns="http://www.w3.org/2000/svg" id="sprotty_work.prim_sync_slow_fast" class="sprotty-graph sprotty-block-diagram blockdiagram" style="font-family:&quot;Noto Sans&quot;, Helvetica, Arial, sans-serif;perspective-origin:0px 0px;transform-origin:0px 0px;" version="1.1" viewBox="7 7 668.0625 258" width="668.0625" height="258"><g transform="scale(1) translate(0,0)"><g id="sprotty_ArchitectureBlockImpl$prim_sync_slow_fast" transform="translate(12, 12)" class="architecture"><g class="sprotty-block" style="fill:rgb(255, 255, 255);stroke:rgb(48, 48, 48);stroke-dasharray:0px;"><rect x="0" y="0" rx="1" ry="1" width="658.0625" height="248"/><text x="329.03125" y="12" class="sprotty-block-name" style="cursor:pointer;font-weight:700;perspective-origin:329.172px 0px;fill:rgb(48, 48, 48);stroke:rgba(0, 0, 0, 0);dominant-baseline:middle;text-anchor:middle;">prim_sync_slow_fast</text><line x1="0" y1="20" x2="658.0625" y2="20"/></g><g id="sprotty_ArchitectureBlockImpl$prim_sync_slow_fast/AssignmentBlockImpl$rdata_o/GPortImpl$rdata_oOUT_to_ArchitectureBlockImpl$prim_sync_slow_fast/BPortImpl$rdata_o" class="sprotty-edge thick edge" style="fill:none;stroke:rgb(112, 112, 112);stroke-linejoin:round;stroke-width:3px;"><g><path d="M 593.5 60 L 658.0625 60 "/><path d="M 593.5 60 L 658.0625 60 " class="clickable"/></g></g><g id="sprotty_ArchitectureBlockImpl$prim_sync_slow_fast/BPortImpl$clk_fast_i_to_ArchitectureBlockImpl$prim_sync_slow_fast/InstantiationBlockImpl$sync_slow_clk/BPortImpl$clk_i" class="sprotty-edge edge" style="fill:none;stroke:rgb(112, 112, 112);stroke-linejoin:round;"><g><path d="M 0 87 L 87.8125 87 C 88.8125 87 89.8125 88 89.8125 89 L 89.8125 145 C 89.8125 146 90.8125 147 91.8125 147 L 109.8125 147 "/><path d="M 0 87 L 87.8125 87 C 88.8125 87 89.8125 88 89.8125 89 L 89.8125 145 C 89.8125 146 90.8125 147 91.8125 147 L 109.8125 147 " class="clickable"/></g><circle r="2" id="sprotty_ArchitectureBlockImpl$prim_sync_slow_fast/BPortImpl$clk_fast_i_to_ArchitectureBlockImpl$prim_sync_slow_fast/InstantiationBlockImpl$sync_slow_clk/BPortImpl$clk_i/junction0" transform="translate(89.8125, 87)" class="sprotty-junction junction" style="fill:rgb(112, 112, 112);stroke:none;"/></g><g id="sprotty_ArchitectureBlockImpl$prim_sync_slow_fast/BPortImpl$rst_fast_ni_to_ArchitectureBlockImpl$prim_sync_slow_fast/InstantiationBlockImpl$sync_slow_clk/BPortImpl$rst_ni" class="sprotty-edge edge" style="fill:none;stroke:rgb(112, 112, 112);stroke-linejoin:round;"><g><path d="M 0 175 L 109.8125 175 "/><path d="M 0 175 L 109.8125 175 " class="clickable"/></g></g><g id="sprotty_ArchitectureBlockImpl$prim_sync_slow_fast/BPortImpl$clk_slow_i_to_ArchitectureBlockImpl$prim_sync_slow_fast/InstantiationBlockImpl$sync_slow_clk/BPortImpl$d_i" class="sprotty-edge edge" style="fill:none;stroke:rgb(112, 112, 112);stroke-linejoin:round;"><g><path d="M 0 209 L 87.8125 209 C 88.8125 209 89.8125 208 89.8125 207 L 89.8125 205 C 89.8125 204 90.8125 203 91.8125 203 L 109.8125 203 "/><path d="M 0 209 L 87.8125 209 C 88.8125 209 89.8125 208 89.8125 207 L 89.8125 205 C 89.8125 204 90.8125 203 91.8125 203 L 109.8125 203 " class="clickable"/></g></g><g id="sprotty_ArchitectureBlockImpl$prim_sync_slow_fast/BPortImpl$clk_fast_i_to_ArchitectureBlockImpl$prim_sync_slow_fast/AlwaysBlockImpl$null6/GPortImpl$clk_fast_iIN" class="sprotty-edge edge" style="fill:none;stroke:rgb(112, 112, 112);stroke-linejoin:round;"><g><path d="M 0 87 L 396.28125 87 "/><path d="M 0 87 L 396.28125 87 " class="clickable"/></g></g><g id="sprotty_ArchitectureBlockImpl$prim_sync_slow_fast/BPortImpl$rst_fast_ni_to_ArchitectureBlockImpl$prim_sync_slow_fast/AlwaysBlockImpl$null6/GPortImpl$rst_fast_niIN" class="sprotty-edge edge" style="fill:none;stroke:rgb(112, 112, 112);stroke-linejoin:round;"><g><path d="M 0 175 L 97.8125 175 C 98.8125 175 99.8125 174 99.8125 173 L 99.8125 99 C 99.8125 98 100.8125 97 101.8125 97 L 396.28125 97 "/><path d="M 0 175 L 97.8125 175 C 98.8125 175 99.8125 174 99.8125 173 L 99.8125 99 C 99.8125 98 100.8125 97 101.8125 97 L 396.28125 97 " class="clickable"/></g><circle r="2" id="sprotty_ArchitectureBlockImpl$prim_sync_slow_fast/BPortImpl$rst_fast_ni_to_ArchitectureBlockImpl$prim_sync_slow_fast/AlwaysBlockImpl$null6/GPortImpl$rst_fast_niIN/junction0" transform="translate(99.8125, 175)" class="sprotty-junction junction" style="fill:rgb(112, 112, 112);stroke:none;"/><circle r="2" id="sprotty_ArchitectureBlockImpl$prim_sync_slow_fast/BPortImpl$rst_fast_ni_to_ArchitectureBlockImpl$prim_sync_slow_fast/AlwaysBlockImpl$null6/GPortImpl$rst_fast_niIN/junction1" transform="translate(99.8125, 97)" class="sprotty-junction junction" style="fill:rgb(112, 112, 112);stroke:none;"/></g><g id="sprotty_ArchitectureBlockImpl$prim_sync_slow_fast/BPortImpl$clk_fast_i_to_ArchitectureBlockImpl$prim_sync_slow_fast/AlwaysBlockImpl$null5/GPortImpl$clk_fast_iIN" class="sprotty-edge edge" style="fill:none;stroke:rgb(112, 112, 112);stroke-linejoin:round;"><g><path d="M 0 87 L 87.8125 87 C 88.8125 87 89.8125 86 89.8125 85 L 89.8125 57 C 89.8125 56 90.8125 55 91.8125 55 L 504.890625 55 "/><path d="M 0 87 L 87.8125 87 C 88.8125 87 89.8125 86 89.8125 85 L 89.8125 57 C 89.8125 56 90.8125 55 91.8125 55 L 504.890625 55 " class="clickable"/></g></g><g id="sprotty_ArchitectureBlockImpl$prim_sync_slow_fast/BPortImpl$rst_fast_ni_to_ArchitectureBlockImpl$prim_sync_slow_fast/AlwaysBlockImpl$null5/GPortImpl$rst_fast_niIN" class="sprotty-edge edge" style="fill:none;stroke:rgb(112, 112, 112);stroke-linejoin:round;"><g><path d="M 0 175 L 97.8125 175 C 98.8125 175 99.8125 174 99.8125 173 L 99.8125 67 C 99.8125 66 100.8125 65 101.8125 65 L 504.890625 65 "/><path d="M 0 175 L 97.8125 175 C 98.8125 175 99.8125 174 99.8125 173 L 99.8125 67 C 99.8125 66 100.8125 65 101.8125 65 L 504.890625 65 " class="clickable"/></g></g><g id="sprotty_ArchitectureBlockImpl$prim_sync_slow_fast/BPortImpl$wdata_i_to_ArchitectureBlockImpl$prim_sync_slow_fast/AlwaysBlockImpl$null5/GPortImpl$wdata_iIN" class="sprotty-edge thick edge" style="fill:none;stroke:rgb(112, 112, 112);stroke-linejoin:round;stroke-width:3px;"><g><path d="M 0 45 L 504.890625 45 "/><path d="M 0 45 L 504.890625 45 " class="clickable"/></g></g><g id="sprotty_ArchitectureBlockImpl$prim_sync_slow_fast/InstantiationBlockImpl$sync_slow_clk/BPortImpl$q_o_to_ArchitectureBlockImpl$prim_sync_slow_fast/AssignmentBlockImpl$wdata_en/GPortImpl$sync_clk_slowIN" class="sprotty-edge edge" style="fill:none;stroke:rgb(112, 112, 112);stroke-linejoin:round;"><g><path d="M 376.28125 175 L 465.171875 175 "/><path d="M 376.28125 175 L 465.171875 175 " class="clickable"/></g></g><g id="sprotty_ArchitectureBlockImpl$prim_sync_slow_fast/InstantiationBlockImpl$sync_slow_clk/BPortImpl$q_o_to_ArchitectureBlockImpl$prim_sync_slow_fast/AlwaysBlockImpl$null6/GPortImpl$sync_clk_slowIN" class="sprotty-edge edge" style="fill:none;stroke:rgb(112, 112, 112);stroke-linejoin:round;"><g><path d="M 376.28125 175 L 384.28125 175 C 385.28125 175 386.28125 174 386.28125 173 L 386.28125 109 C 386.28125 108 387.28125 107 388.28125 107 L 396.28125 107 "/><path d="M 376.28125 175 L 384.28125 175 C 385.28125 175 386.28125 174 386.28125 173 L 386.28125 109 C 386.28125 108 387.28125 107 388.28125 107 L 396.28125 107 " class="clickable"/></g><circle r="2" id="sprotty_ArchitectureBlockImpl$prim_sync_slow_fast/InstantiationBlockImpl$sync_slow_clk/BPortImpl$q_o_to_ArchitectureBlockImpl$prim_sync_slow_fast/AlwaysBlockImpl$null6/GPortImpl$sync_clk_slowIN/junction0" transform="translate(386.28125, 175)" class="sprotty-junction junction" style="fill:rgb(112, 112, 112);stroke:none;"/></g><g id="sprotty_ArchitectureBlockImpl$prim_sync_slow_fast/AlwaysBlockImpl$null6/GPortImpl$sync_clk_slow_qOUT_to_ArchitectureBlockImpl$prim_sync_slow_fast/AssignmentBlockImpl$wdata_en/GPortImpl$sync_clk_slow_qIN" class="sprotty-edge edge" style="fill:none;stroke:rgb(112, 112, 112);stroke-linejoin:round;"><g><path d="M 445.171875 97 L 453.171875 97 C 454.171875 97 455.171875 98 455.171875 99 L 455.171875 163 C 455.171875 164 456.171875 165 457.171875 165 L 465.171875 165 "/><path d="M 445.171875 97 L 453.171875 97 C 454.171875 97 455.171875 98 455.171875 99 L 455.171875 163 C 455.171875 164 456.171875 165 457.171875 165 L 465.171875 165 " class="clickable"/></g></g><g id="sprotty_ArchitectureBlockImpl$prim_sync_slow_fast/AssignmentBlockImpl$wdata_en/GPortImpl$sync_clk_slowOUT_to_ArchitectureBlockImpl$prim_sync_slow_fast/AlwaysBlockImpl$null5/GPortImpl$wdata_enIN" class="sprotty-edge edge" style="fill:none;stroke:rgb(112, 112, 112);stroke-linejoin:round;"><g><path d="M 484.890625 170 L 492.890625 170 C 493.890625 170 494.890625 169 494.890625 168 L 494.890625 77 C 494.890625 76 495.890625 75 496.890625 75 L 504.890625 75 "/><path d="M 484.890625 170 L 492.890625 170 C 493.890625 170 494.890625 169 494.890625 168 L 494.890625 77 C 494.890625 76 495.890625 75 496.890625 75 L 504.890625 75 " class="clickable"/></g></g><g id="sprotty_ArchitectureBlockImpl$prim_sync_slow_fast/AlwaysBlockImpl$null5/GPortImpl$wdata_qOUT_to_ArchitectureBlockImpl$prim_sync_slow_fast/AssignmentBlockImpl$rdata_o/GPortImpl$wdata_qIN" class="sprotty-edge thick edge" style="fill:none;stroke:rgb(112, 112, 112);stroke-linejoin:round;stroke-width:3px;"><g><path d="M 553.78125 60 L 573.78125 60 "/><path d="M 553.78125 60 L 573.78125 60 " class="clickable"/></g></g><g id="sprotty_ArchitectureBlockImpl$prim_sync_slow_fast/AlwaysBlockImpl$null5" transform="translate(504.890625, 35)" class="statement"><rect x="0" y="0" rx="10" ry="5" width="48.890625" height="50" class="sprotty-node" style="fill:rgb(245, 245, 245);stroke:rgb(112, 112, 112);"/><text class="clickable sprotty-label statementtype" id="sprotty_ArchitectureBlockImpl$prim_sync_slow_fast/AlwaysBlockImpl$null5/labeltype" transform="translate(5, 19) translate(18.828125, 9)" style="cursor:default;font-size:8px;font-weight:700;perspective-origin:0.609375px 0px;fill:rgb(112, 112, 112);text-anchor:middle;">always_ff</text><g id="sprotty_ArchitectureBlockImpl$prim_sync_slow_fast/AlwaysBlockImpl$null5/GPortImpl$wdata_iIN" transform="translate(0, 10)" class="sprotty-hidden hidden" style="display:block;height:0px;width:0px;"/><g id="sprotty_ArchitectureBlockImpl$prim_sync_slow_fast/AlwaysBlockImpl$null5/GPortImpl$wdata_enIN" transform="translate(0, 40)" class="sprotty-hidden hidden" style="display:block;height:0px;width:0px;"/><g id="sprotty_ArchitectureBlockImpl$prim_sync_slow_fast/AlwaysBlockImpl$null5/GPortImpl$rst_fast_niIN" transform="translate(0, 30)" class="sprotty-hidden hidden" style="display:block;height:0px;width:0px;"/><g id="sprotty_ArchitectureBlockImpl$prim_sync_slow_fast/AlwaysBlockImpl$null5/GPortImpl$clk_fast_iIN" transform="translate(0, 20)" class="sprotty-hidden hidden" style="display:block;height:0px;width:0px;"/><g id="sprotty_ArchitectureBlockImpl$prim_sync_slow_fast/AlwaysBlockImpl$null5/GPortImpl$wdata_qOUT" transform="translate(48.890625, 25)" class="sprotty-hidden hidden" style="display:block;height:0px;width:0px;"/></g><g id="sprotty_ArchitectureBlockImpl$prim_sync_slow_fast/AlwaysBlockImpl$null6" transform="translate(396.28125, 77)" class="statement"><rect x="0" y="0" rx="10" ry="5" width="48.890625" height="40" class="sprotty-node" style="fill:rgb(245, 245, 245);stroke:rgb(112, 112, 112);"/><text class="clickable sprotty-label statementtype" id="sprotty_ArchitectureBlockImpl$prim_sync_slow_fast/AlwaysBlockImpl$null6/labeltype" transform="translate(5, 14) translate(18.828125, 9)" style="cursor:default;font-size:8px;font-weight:700;perspective-origin:0.609375px 0px;fill:rgb(112, 112, 112);text-anchor:middle;">always_ff</text><g id="sprotty_ArchitectureBlockImpl$prim_sync_slow_fast/AlwaysBlockImpl$null6/GPortImpl$sync_clk_slowIN" transform="translate(0, 30)" class="sprotty-hidden hidden" style="display:block;height:0px;width:0px;"/><g id="sprotty_ArchitectureBlockImpl$prim_sync_slow_fast/AlwaysBlockImpl$null6/GPortImpl$rst_fast_niIN" transform="translate(0, 20)" class="sprotty-hidden hidden" style="display:block;height:0px;width:0px;"/><g id="sprotty_ArchitectureBlockImpl$prim_sync_slow_fast/AlwaysBlockImpl$null6/GPortImpl$clk_fast_iIN" transform="translate(0, 10)" class="sprotty-hidden hidden" style="display:block;height:0px;width:0px;"/><g id="sprotty_ArchitectureBlockImpl$prim_sync_slow_fast/AlwaysBlockImpl$null6/GPortImpl$sync_clk_slow_qOUT" transform="translate(48.890625, 20)" class="sprotty-hidden hidden" style="display:block;height:0px;width:0px;"/></g><g id="sprotty_ArchitectureBlockImpl$prim_sync_slow_fast/AssignmentBlockImpl$rdata_o" transform="translate(573.78125, 49)" class="statement"><rect x="0" y="0" rx="10" ry="5" width="19.71875" height="22" class="sprotty-node" style="fill:rgb(245, 245, 245);stroke:rgb(112, 112, 112);"/><text class="clickable sprotty-label statementtype" id="sprotty_ArchitectureBlockImpl$prim_sync_slow_fast/AssignmentBlockImpl$rdata_o/labeltype" transform="translate(5, 5) translate(4.71875, 9)" style="cursor:default;font-size:8px;font-weight:700;perspective-origin:0.140625px 0px;fill:rgb(112, 112, 112);text-anchor:middle;">&lt;=</text><g id="sprotty_ArchitectureBlockImpl$prim_sync_slow_fast/AssignmentBlockImpl$rdata_o/GPortImpl$wdata_qIN" transform="translate(0, 11)" class="sprotty-hidden hidden" style="display:block;height:0px;width:0px;"/><g id="sprotty_ArchitectureBlockImpl$prim_sync_slow_fast/AssignmentBlockImpl$rdata_o/GPortImpl$rdata_oOUT" transform="translate(19.71875, 11)" class="sprotty-hidden hidden" style="display:block;height:0px;width:0px;"/></g><g id="sprotty_ArchitectureBlockImpl$prim_sync_slow_fast/AssignmentBlockImpl$wdata_en" transform="translate(465.171875, 155)" class="statement"><rect x="0" y="0" rx="10" ry="5" width="19.71875" height="30" class="sprotty-node" style="fill:rgb(245, 245, 245);stroke:rgb(112, 112, 112);"/><text class="clickable sprotty-label statementtype" id="sprotty_ArchitectureBlockImpl$prim_sync_slow_fast/AssignmentBlockImpl$wdata_en/labeltype" transform="translate(5, 9) translate(4.71875, 9)" style="cursor:default;font-size:8px;font-weight:700;perspective-origin:0.140625px 0px;fill:rgb(112, 112, 112);text-anchor:middle;">&lt;=</text><g id="sprotty_ArchitectureBlockImpl$prim_sync_slow_fast/AssignmentBlockImpl$wdata_en/GPortImpl$sync_clk_slowIN" transform="translate(0, 20)" class="sprotty-hidden hidden" style="display:block;height:0px;width:0px;"/><g id="sprotty_ArchitectureBlockImpl$prim_sync_slow_fast/AssignmentBlockImpl$wdata_en/GPortImpl$sync_clk_slow_qIN" transform="translate(0, 10)" class="sprotty-hidden hidden" style="display:block;height:0px;width:0px;"/><g id="sprotty_ArchitectureBlockImpl$prim_sync_slow_fast/AssignmentBlockImpl$wdata_en/GPortImpl$sync_clk_slowOUT" transform="translate(19.71875, 15)" class="sprotty-hidden hidden" style="display:block;height:0px;width:0px;"/></g><g id="sprotty_ArchitectureBlockImpl$prim_sync_slow_fast/InstantiationBlockImpl$sync_slow_clk" transform="translate(109.8125, 109)" class="instantiation"><g class="sprotty-block" style="fill:rgb(255, 255, 255);stroke:rgb(48, 48, 48);stroke-dasharray:0px;"><rect x="0" y="0" rx="1" ry="1" width="266.46875" height="112"/><text x="133.234375" y="12" class="sprotty-block-name" style="cursor:pointer;font-weight:700;perspective-origin:133.234px 0px;fill:rgb(48, 48, 48);stroke:rgba(0, 0, 0, 0);dominant-baseline:middle;text-anchor:middle;">sync_slow_clk : prim_flop_2sync</text><line x1="0" y1="20" x2="266.46875" y2="20"/></g><g id="sprotty_ArchitectureBlockImpl$prim_sync_slow_fast/InstantiationBlockImpl$sync_slow_clk/BPortImpl$d_i" transform="translate(0, 94)" class="triangle"><path d="M 0,0 L 5,2.5 L 0,5 Z" transform="translate(-1.67, -2.5)" class="sprotty-port" style="fill:rgb(48, 48, 48);stroke:rgb(48, 48, 48);"/><text class="clickable sprotty-label port" id="sprotty_ArchitectureBlockImpl$prim_sync_slow_fast/InstantiationBlockImpl$sync_slow_clk/BPortImpl$d_i/label" transform="translate(6, -9) translate(8.734375, 14)" style="cursor:default;font-size:12px;perspective-origin:0px 0px;fill:rgb(48, 48, 48);text-anchor:middle;">d_i</text></g><g id="sprotty_ArchitectureBlockImpl$prim_sync_slow_fast/InstantiationBlockImpl$sync_slow_clk/BPortImpl$rst_ni" transform="translate(0, 66)" class="triangle"><path d="M 0,0 L 5,2.5 L 0,5 Z" transform="translate(-1.67, -2.5)" class="sprotty-port" style="fill:rgb(48, 48, 48);stroke:rgb(48, 48, 48);"/><text class="clickable sprotty-label port" id="sprotty_ArchitectureBlockImpl$prim_sync_slow_fast/InstantiationBlockImpl$sync_slow_clk/BPortImpl$rst_ni/label" transform="translate(6, -9) translate(15.921875, 14)" style="cursor:default;font-size:12px;perspective-origin:0px 0px;fill:rgb(48, 48, 48);text-anchor:middle;">rst_ni</text></g><g id="sprotty_ArchitectureBlockImpl$prim_sync_slow_fast/InstantiationBlockImpl$sync_slow_clk/BPortImpl$clk_i" transform="translate(0, 38)" class="triangle"><path d="M 0,0 L 5,2.5 L 0,5 Z" transform="translate(-1.67, -2.5)" class="sprotty-port" style="fill:rgb(48, 48, 48);stroke:rgb(48, 48, 48);"/><text class="clickable sprotty-label port" id="sprotty_ArchitectureBlockImpl$prim_sync_slow_fast/InstantiationBlockImpl$sync_slow_clk/BPortImpl$clk_i/label" transform="translate(6, -9) translate(13.09375, 14)" style="cursor:default;font-size:12px;perspective-origin:0px 0px;fill:rgb(48, 48, 48);text-anchor:middle;">clk_i</text></g><g id="sprotty_ArchitectureBlockImpl$prim_sync_slow_fast/InstantiationBlockImpl$sync_slow_clk/BPortImpl$q_o" transform="translate(266.46875, 66)" class="triangle"><path d="M 0,0 L 5,2.5 L 0,5 Z" transform="translate(-1.67, -2.5)" class="sprotty-port" style="fill:rgb(48, 48, 48);stroke:rgb(48, 48, 48);"/><text class="clickable sprotty-label port" id="sprotty_ArchitectureBlockImpl$prim_sync_slow_fast/InstantiationBlockImpl$sync_slow_clk/BPortImpl$q_o/label" transform="translate(-27.4375, -9) translate(10.71875, 14)" style="cursor:default;font-size:12px;perspective-origin:0px 0px;fill:rgb(48, 48, 48);text-anchor:middle;">q_o</text></g></g><g id="sprotty_ArchitectureBlockImpl$prim_sync_slow_fast/BPortImpl$wdata_i" transform="translate(0, 45)" class="triangle"><path d="M 0,0 L 5,2.5 L 0,5 Z" transform="translate(-1.67, -2.5)" class="sprotty-port" style="fill:rgb(48, 48, 48);stroke:rgb(48, 48, 48);"/><text class="clickable sprotty-label port" id="sprotty_ArchitectureBlockImpl$prim_sync_slow_fast/BPortImpl$wdata_i/label" transform="translate(6, 6) translate(22.3125, 14)" style="cursor:default;font-size:12px;perspective-origin:0px 0px;fill:rgb(48, 48, 48);text-anchor:middle;">wdata_i</text></g><g id="sprotty_ArchitectureBlockImpl$prim_sync_slow_fast/BPortImpl$rst_fast_ni" transform="translate(0, 175)" class="triangle"><path d="M 0,0 L 5,2.5 L 0,5 Z" transform="translate(-1.67, -2.5)" class="sprotty-port" style="fill:rgb(48, 48, 48);stroke:rgb(48, 48, 48);"/><text class="clickable sprotty-label port" id="sprotty_ArchitectureBlockImpl$prim_sync_slow_fast/BPortImpl$rst_fast_ni/label" transform="translate(6, 6) translate(29.40625, 14)" style="cursor:default;font-size:12px;perspective-origin:0px 0px;fill:rgb(48, 48, 48);text-anchor:middle;">rst_fast_ni</text></g><g id="sprotty_ArchitectureBlockImpl$prim_sync_slow_fast/BPortImpl$clk_fast_i" transform="translate(0, 87)" class="triangle"><path d="M 0,0 L 5,2.5 L 0,5 Z" transform="translate(-1.67, -2.5)" class="sprotty-port" style="fill:rgb(48, 48, 48);stroke:rgb(48, 48, 48);"/><text class="clickable sprotty-label port" id="sprotty_ArchitectureBlockImpl$prim_sync_slow_fast/BPortImpl$clk_fast_i/label" transform="translate(6, 6) translate(26.578125, 14)" style="cursor:default;font-size:12px;perspective-origin:0px 0px;fill:rgb(48, 48, 48);text-anchor:middle;">clk_fast_i</text></g><g id="sprotty_ArchitectureBlockImpl$prim_sync_slow_fast/BPortImpl$clk_slow_i" transform="translate(0, 209)" class="triangle"><path d="M 0,0 L 5,2.5 L 0,5 Z" transform="translate(-1.67, -2.5)" class="sprotty-port" style="fill:rgb(48, 48, 48);stroke:rgb(48, 48, 48);"/><text class="clickable sprotty-label port" id="sprotty_ArchitectureBlockImpl$prim_sync_slow_fast/BPortImpl$clk_slow_i/label" transform="translate(6, 6) translate(29.390625, 14)" style="cursor:default;font-size:12px;perspective-origin:0px 0px;fill:rgb(48, 48, 48);text-anchor:middle;">clk_slow_i</text></g><g id="sprotty_ArchitectureBlockImpl$prim_sync_slow_fast/BPortImpl$rdata_o" transform="translate(658.0625, 60)" class="triangle"><path d="M 0,0 L 5,2.5 L 0,5 Z" transform="translate(-1.67, -2.5)" class="sprotty-port" style="fill:rgb(48, 48, 48);stroke:rgb(48, 48, 48);"/><text class="clickable sprotty-label port" id="sprotty_ArchitectureBlockImpl$prim_sync_slow_fast/BPortImpl$rdata_o/label" transform="translate(-49.5625, 6) translate(21.78125, 14)" style="cursor:default;font-size:12px;perspective-origin:0px 0px;fill:rgb(48, 48, 48);text-anchor:middle;">rdata_o</text></g></g></g></svg>