<svg xmlns="http://www.w3.org/2000/svg" id="sprotty_work.prim_clock_gating_sync" class="sprotty-graph sprotty-block-diagram blockdiagram" style="font-family:&quot;Noto Sans&quot;, Helvetica, Arial, sans-serif;perspective-origin:0px 0px;transform-origin:0px 0px;" version="1.1" viewBox="7 7 397.375 310" width="397.375" height="310"><g transform="scale(1) translate(0,0)"><g id="sprotty_ArchitectureBlockImpl$prim_clock_gating_sync" transform="translate(12, 12)" class="architecture"><g class="sprotty-block" style="fill:rgb(255, 255, 255);stroke:rgb(48, 48, 48);stroke-dasharray:0px;"><rect x="0" y="0" rx="1" ry="1" width="387.375" height="300"/><text x="193.6875" y="12" class="sprotty-block-name" style="cursor:pointer;font-weight:700;perspective-origin:193.688px 0px;fill:rgb(48, 48, 48);stroke:rgba(0, 0, 0, 0);dominant-baseline:middle;text-anchor:middle;">prim_clock_gating_sync</text><line x1="0" y1="20" x2="387.375" y2="20"/></g><g id="sprotty_ArchitectureBlockImpl$prim_clock_gating_sync/InstantiationBlockImpl$i_sync/BPortImpl$q_o_to_ArchitectureBlockImpl$prim_clock_gating_sync/BPortImpl$en_o" class="sprotty-edge edge" style="fill:none;stroke:rgb(112, 112, 112);stroke-linejoin:round;"><g><path d="M 316.21875 233 L 387.375 233 "/><path d="M 316.21875 233 L 387.375 233 " class="clickable"/></g></g><g id="sprotty_ArchitectureBlockImpl$prim_clock_gating_sync/InstantiationBlockImpl$i_cg/BPortImpl$clk_o_to_ArchitectureBlockImpl$prim_clock_gating_sync/BPortImpl$clk_o" class="sprotty-edge edge" style="fill:none;stroke:rgb(112, 112, 112);stroke-linejoin:round;"><g><path d="M 314.8671875 101 L 387.375 101 "/><path d="M 314.8671875 101 L 387.375 101 " class="clickable"/></g></g><g id="sprotty_ArchitectureBlockImpl$prim_clock_gating_sync/BPortImpl$clk_i_to_ArchitectureBlockImpl$prim_clock_gating_sync/InstantiationBlockImpl$i_sync/BPortImpl$clk_i" class="sprotty-edge edge" style="fill:none;stroke:rgb(112, 112, 112);stroke-linejoin:round;"><g><path d="M 0 95 L 91.78125 95 C 92.78125 95 93.78125 96 93.78125 97 L 93.78125 203 C 93.78125 204 94.78125 205 95.78125 205 L 113.78125 205 "/><path d="M 0 95 L 91.78125 95 C 92.78125 95 93.78125 96 93.78125 97 L 93.78125 203 C 93.78125 204 94.78125 205 95.78125 205 L 113.78125 205 " class="clickable"/></g><circle r="2" id="sprotty_ArchitectureBlockImpl$prim_clock_gating_sync/BPortImpl$clk_i_to_ArchitectureBlockImpl$prim_clock_gating_sync/InstantiationBlockImpl$i_sync/BPortImpl$clk_i/junction0" transform="translate(93.78125, 95)" class="sprotty-junction junction" style="fill:rgb(112, 112, 112);stroke:none;"/></g><g id="sprotty_ArchitectureBlockImpl$prim_clock_gating_sync/BPortImpl$rst_ni_to_ArchitectureBlockImpl$prim_clock_gating_sync/InstantiationBlockImpl$i_sync/BPortImpl$rst_ni" class="sprotty-edge edge" style="fill:none;stroke:rgb(112, 112, 112);stroke-linejoin:round;"><g><path d="M 0 227 L 91.78125 227 C 92.78125 227 93.78125 228 93.78125 229 L 93.78125 231 C 93.78125 232 94.78125 233 95.78125 233 L 113.78125 233 "/><path d="M 0 227 L 91.78125 227 C 92.78125 227 93.78125 228 93.78125 229 L 93.78125 231 C 93.78125 232 94.78125 233 95.78125 233 L 113.78125 233 " class="clickable"/></g></g><g id="sprotty_ArchitectureBlockImpl$prim_clock_gating_sync/BPortImpl$async_en_i_to_ArchitectureBlockImpl$prim_clock_gating_sync/InstantiationBlockImpl$i_sync/BPortImpl$d_i" class="sprotty-edge edge" style="fill:none;stroke:rgb(112, 112, 112);stroke-linejoin:round;"><g><path d="M 0 261 L 113.78125 261 "/><path d="M 0 261 L 113.78125 261 " class="clickable"/></g></g><g id="sprotty_ArchitectureBlockImpl$prim_clock_gating_sync/BPortImpl$clk_i_to_ArchitectureBlockImpl$prim_clock_gating_sync/InstantiationBlockImpl$i_cg/BPortImpl$clk_i" class="sprotty-edge edge" style="fill:none;stroke:rgb(112, 112, 112);stroke-linejoin:round;"><g><path d="M 0 95 L 91.78125 95 C 92.78125 95 93.78125 94 93.78125 93 L 93.78125 75 C 93.78125 74 94.78125 73 95.78125 73 L 115.1328125 73 "/><path d="M 0 95 L 91.78125 95 C 92.78125 95 93.78125 94 93.78125 93 L 93.78125 75 C 93.78125 74 94.78125 73 95.78125 73 L 115.1328125 73 " class="clickable"/></g></g><g id="sprotty_ArchitectureBlockImpl$prim_clock_gating_sync/BPortImpl$en_o_to_ArchitectureBlockImpl$prim_clock_gating_sync/InstantiationBlockImpl$i_cg/BPortImpl$en_i" class="sprotty-edge edge" style="fill:none;stroke:rgb(112, 112, 112);stroke-linejoin:round;"><g><path d="M 387.375 233 L 328.21875 233 C 327.21875 233 326.21875 232 326.21875 231 L 326.21875 159 C 326.21875 158 325.21875 157 324.21875 157 L 105.78125 157 C 104.78125 157 103.78125 156 103.78125 155 L 103.78125 103 C 103.78125 102 104.78125 101 105.78125 101 L 115.1328125 101 "/><path d="M 387.375 233 L 328.21875 233 C 327.21875 233 326.21875 232 326.21875 231 L 326.21875 159 C 326.21875 158 325.21875 157 324.21875 157 L 105.78125 157 C 104.78125 157 103.78125 156 103.78125 155 L 103.78125 103 C 103.78125 102 104.78125 101 105.78125 101 L 115.1328125 101 " class="clickable"/></g><circle r="2" id="sprotty_ArchitectureBlockImpl$prim_clock_gating_sync/BPortImpl$en_o_to_ArchitectureBlockImpl$prim_clock_gating_sync/InstantiationBlockImpl$i_cg/BPortImpl$en_i/junction0" transform="translate(326.21875, 233)" class="sprotty-junction junction" style="fill:rgb(112, 112, 112);stroke:none;"/></g><g id="sprotty_ArchitectureBlockImpl$prim_clock_gating_sync/BPortImpl$test_en_i_to_ArchitectureBlockImpl$prim_clock_gating_sync/InstantiationBlockImpl$i_cg/BPortImpl$test_en_i" class="sprotty-edge edge" style="fill:none;stroke:rgb(112, 112, 112);stroke-linejoin:round;"><g><path d="M 0 129 L 115.1328125 129 "/><path d="M 0 129 L 115.1328125 129 " class="clickable"/></g></g><g id="sprotty_ArchitectureBlockImpl$prim_clock_gating_sync/InstantiationBlockImpl$i_cg" transform="translate(115.1328125, 35)" class="instantiation"><g class="sprotty-block" style="fill:rgb(255, 255, 255);stroke:rgb(48, 48, 48);stroke-dasharray:0px;"><rect x="0" y="0" rx="1" ry="1" width="199.734375" height="112"/><text x="99.8671875" y="12" class="sprotty-block-name" style="cursor:pointer;font-weight:700;perspective-origin:100.094px 0px;fill:rgb(48, 48, 48);stroke:rgba(0, 0, 0, 0);dominant-baseline:middle;text-anchor:middle;">i_cg : prim_clock_gating</text><line x1="0" y1="20" x2="199.734375" y2="20"/></g><g id="sprotty_ArchitectureBlockImpl$prim_clock_gating_sync/InstantiationBlockImpl$i_cg/BPortImpl$test_en_i" transform="translate(0, 94)" class="triangle"><path d="M 0,0 L 5,2.5 L 0,5 Z" transform="translate(-1.67, -2.5)" class="sprotty-port" style="fill:rgb(48, 48, 48);stroke:rgb(48, 48, 48);"/><text class="clickable sprotty-label port" id="sprotty_ArchitectureBlockImpl$prim_clock_gating_sync/InstantiationBlockImpl$i_cg/BPortImpl$test_en_i/label" transform="translate(6, -9) translate(25.796875, 14)" style="cursor:default;font-size:12px;perspective-origin:0px 0px;fill:rgb(48, 48, 48);text-anchor:middle;">test_en_i</text></g><g id="sprotty_ArchitectureBlockImpl$prim_clock_gating_sync/InstantiationBlockImpl$i_cg/BPortImpl$en_i" transform="translate(0, 66)" class="triangle"><path d="M 0,0 L 5,2.5 L 0,5 Z" transform="translate(-1.67, -2.5)" class="sprotty-port" style="fill:rgb(48, 48, 48);stroke:rgb(48, 48, 48);"/><text class="clickable sprotty-label port" id="sprotty_ArchitectureBlockImpl$prim_clock_gating_sync/InstantiationBlockImpl$i_cg/BPortImpl$en_i/label" transform="translate(6, -9) translate(12, 14)" style="cursor:default;font-size:12px;perspective-origin:0px 0px;fill:rgb(48, 48, 48);text-anchor:middle;">en_i</text></g><g id="sprotty_ArchitectureBlockImpl$prim_clock_gating_sync/InstantiationBlockImpl$i_cg/BPortImpl$clk_i" transform="translate(0, 38)" class="triangle"><path d="M 0,0 L 5,2.5 L 0,5 Z" transform="translate(-1.67, -2.5)" class="sprotty-port" style="fill:rgb(48, 48, 48);stroke:rgb(48, 48, 48);"/><text class="clickable sprotty-label port" id="sprotty_ArchitectureBlockImpl$prim_clock_gating_sync/InstantiationBlockImpl$i_cg/BPortImpl$clk_i/label" transform="translate(6, -9) translate(13.09375, 14)" style="cursor:default;font-size:12px;perspective-origin:0px 0px;fill:rgb(48, 48, 48);text-anchor:middle;">clk_i</text></g><g id="sprotty_ArchitectureBlockImpl$prim_clock_gating_sync/InstantiationBlockImpl$i_cg/BPortImpl$clk_o" transform="translate(199.734375, 66)" class="triangle"><path d="M 0,0 L 5,2.5 L 0,5 Z" transform="translate(-1.67, -2.5)" class="sprotty-port" style="fill:rgb(48, 48, 48);stroke:rgb(48, 48, 48);"/><text class="clickable sprotty-label port" id="sprotty_ArchitectureBlockImpl$prim_clock_gating_sync/InstantiationBlockImpl$i_cg/BPortImpl$clk_o/label" transform="translate(-36.15625, -9) translate(15.078125, 14)" style="cursor:default;font-size:12px;perspective-origin:0px 0px;fill:rgb(48, 48, 48);text-anchor:middle;">clk_o</text></g></g><g id="sprotty_ArchitectureBlockImpl$prim_clock_gating_sync/InstantiationBlockImpl$i_sync" transform="translate(113.78125, 167)" class="instantiation"><g class="sprotty-block" style="fill:rgb(255, 255, 255);stroke:rgb(48, 48, 48);stroke-dasharray:0px;"><rect x="0" y="0" rx="1" ry="1" width="202.4375" height="112"/><text x="101.21875" y="12" class="sprotty-block-name" style="cursor:pointer;font-weight:700;perspective-origin:101.219px 0px;fill:rgb(48, 48, 48);stroke:rgba(0, 0, 0, 0);dominant-baseline:middle;text-anchor:middle;">i_sync : prim_flop_2sync</text><line x1="0" y1="20" x2="202.4375" y2="20"/></g><g id="sprotty_ArchitectureBlockImpl$prim_clock_gating_sync/InstantiationBlockImpl$i_sync/BPortImpl$d_i" transform="translate(0, 94)" class="triangle"><path d="M 0,0 L 5,2.5 L 0,5 Z" transform="translate(-1.67, -2.5)" class="sprotty-port" style="fill:rgb(48, 48, 48);stroke:rgb(48, 48, 48);"/><text class="clickable sprotty-label port" id="sprotty_ArchitectureBlockImpl$prim_clock_gating_sync/InstantiationBlockImpl$i_sync/BPortImpl$d_i/label" transform="translate(6, -9) translate(8.734375, 14)" style="cursor:default;font-size:12px;perspective-origin:0px 0px;fill:rgb(48, 48, 48);text-anchor:middle;">d_i</text></g><g id="sprotty_ArchitectureBlockImpl$prim_clock_gating_sync/InstantiationBlockImpl$i_sync/BPortImpl$rst_ni" transform="translate(0, 66)" class="triangle"><path d="M 0,0 L 5,2.5 L 0,5 Z" transform="translate(-1.67, -2.5)" class="sprotty-port" style="fill:rgb(48, 48, 48);stroke:rgb(48, 48, 48);"/><text class="clickable sprotty-label port" id="sprotty_ArchitectureBlockImpl$prim_clock_gating_sync/InstantiationBlockImpl$i_sync/BPortImpl$rst_ni/label" transform="translate(6, -9) translate(15.921875, 14)" style="cursor:default;font-size:12px;perspective-origin:0px 0px;fill:rgb(48, 48, 48);text-anchor:middle;">rst_ni</text></g><g id="sprotty_ArchitectureBlockImpl$prim_clock_gating_sync/InstantiationBlockImpl$i_sync/BPortImpl$clk_i" transform="translate(0, 38)" class="triangle"><path d="M 0,0 L 5,2.5 L 0,5 Z" transform="translate(-1.67, -2.5)" class="sprotty-port" style="fill:rgb(48, 48, 48);stroke:rgb(48, 48, 48);"/><text class="clickable sprotty-label port" id="sprotty_ArchitectureBlockImpl$prim_clock_gating_sync/InstantiationBlockImpl$i_sync/BPortImpl$clk_i/label" transform="translate(6, -9) translate(13.09375, 14)" style="cursor:default;font-size:12px;perspective-origin:0px 0px;fill:rgb(48, 48, 48);text-anchor:middle;">clk_i</text></g><g id="sprotty_ArchitectureBlockImpl$prim_clock_gating_sync/InstantiationBlockImpl$i_sync/BPortImpl$q_o" transform="translate(202.4375, 66)" class="triangle"><path d="M 0,0 L 5,2.5 L 0,5 Z" transform="translate(-1.67, -2.5)" class="sprotty-port" style="fill:rgb(48, 48, 48);stroke:rgb(48, 48, 48);"/><text class="clickable sprotty-label port" id="sprotty_ArchitectureBlockImpl$prim_clock_gating_sync/InstantiationBlockImpl$i_sync/BPortImpl$q_o/label" transform="translate(-27.4375, -9) translate(10.71875, 14)" style="cursor:default;font-size:12px;perspective-origin:0px 0px;fill:rgb(48, 48, 48);text-anchor:middle;">q_o</text></g></g><g id="sprotty_ArchitectureBlockImpl$prim_clock_gating_sync/BPortImpl$async_en_i" transform="translate(0, 261)" class="triangle"><path d="M 0,0 L 5,2.5 L 0,5 Z" transform="translate(-1.67, -2.5)" class="sprotty-port" style="fill:rgb(48, 48, 48);stroke:rgb(48, 48, 48);"/><text class="clickable sprotty-label port" id="sprotty_ArchitectureBlockImpl$prim_clock_gating_sync/BPortImpl$async_en_i/label" transform="translate(6, 6) translate(31.390625, 14)" style="cursor:default;font-size:12px;perspective-origin:0px 0px;fill:rgb(48, 48, 48);text-anchor:middle;">async_en_i</text></g><g id="sprotty_ArchitectureBlockImpl$prim_clock_gating_sync/BPortImpl$test_en_i" transform="translate(0, 129)" class="triangle"><path d="M 0,0 L 5,2.5 L 0,5 Z" transform="translate(-1.67, -2.5)" class="sprotty-port" style="fill:rgb(48, 48, 48);stroke:rgb(48, 48, 48);"/><text class="clickable sprotty-label port" id="sprotty_ArchitectureBlockImpl$prim_clock_gating_sync/BPortImpl$test_en_i/label" transform="translate(6, 6) translate(25.796875, 14)" style="cursor:default;font-size:12px;perspective-origin:0px 0px;fill:rgb(48, 48, 48);text-anchor:middle;">test_en_i</text></g><g id="sprotty_ArchitectureBlockImpl$prim_clock_gating_sync/BPortImpl$rst_ni" transform="translate(0, 227)" class="triangle"><path d="M 0,0 L 5,2.5 L 0,5 Z" transform="translate(-1.67, -2.5)" class="sprotty-port" style="fill:rgb(48, 48, 48);stroke:rgb(48, 48, 48);"/><text class="clickable sprotty-label port" id="sprotty_ArchitectureBlockImpl$prim_clock_gating_sync/BPortImpl$rst_ni/label" transform="translate(6, 6) translate(15.921875, 14)" style="cursor:default;font-size:12px;perspective-origin:0px 0px;fill:rgb(48, 48, 48);text-anchor:middle;">rst_ni</text></g><g id="sprotty_ArchitectureBlockImpl$prim_clock_gating_sync/BPortImpl$clk_i" transform="translate(0, 95)" class="triangle"><path d="M 0,0 L 5,2.5 L 0,5 Z" transform="translate(-1.67, -2.5)" class="sprotty-port" style="fill:rgb(48, 48, 48);stroke:rgb(48, 48, 48);"/><text class="clickable sprotty-label port" id="sprotty_ArchitectureBlockImpl$prim_clock_gating_sync/BPortImpl$clk_i/label" transform="translate(6, 6) translate(13.09375, 14)" style="cursor:default;font-size:12px;perspective-origin:0px 0px;fill:rgb(48, 48, 48);text-anchor:middle;">clk_i</text></g><g id="sprotty_ArchitectureBlockImpl$prim_clock_gating_sync/BPortImpl$en_o" transform="translate(387.375, 233)" class="triangle"><path d="M 0,0 L 5,2.5 L 0,5 Z" transform="translate(-1.67, -2.5)" class="sprotty-port" style="fill:rgb(48, 48, 48);stroke:rgb(48, 48, 48);"/><text class="clickable sprotty-label port" id="sprotty_ArchitectureBlockImpl$prim_clock_gating_sync/BPortImpl$en_o/label" transform="translate(-33.96875, 6) translate(13.984375, 14)" style="cursor:default;font-size:12px;perspective-origin:0px 0px;fill:rgb(48, 48, 48);text-anchor:middle;">en_o</text></g><g id="sprotty_ArchitectureBlockImpl$prim_clock_gating_sync/BPortImpl$clk_o" transform="translate(387.375, 101)" class="triangle"><path d="M 0,0 L 5,2.5 L 0,5 Z" transform="translate(-1.67, -2.5)" class="sprotty-port" style="fill:rgb(48, 48, 48);stroke:rgb(48, 48, 48);"/><text class="clickable sprotty-label port" id="sprotty_ArchitectureBlockImpl$prim_clock_gating_sync/BPortImpl$clk_o/label" transform="translate(-36.15625, 6) translate(15.078125, 14)" style="cursor:default;font-size:12px;perspective-origin:0px 0px;fill:rgb(48, 48, 48);text-anchor:middle;">clk_o</text></g></g></g></svg>