<svg xmlns="http://www.w3.org/2000/svg" id="sprotty_work.prim_clock_inv" class="sprotty-graph sprotty-block-diagram blockdiagram" style="font-family:&quot;Noto Sans&quot;, Helvetica, Arial, sans-serif;perspective-origin:0px 0px;transform-origin:0px 0px;" version="1.1" viewBox="7 7 539.5625 174" width="539.5625" height="174"><g transform="scale(1) translate(0,0)"><g id="sprotty_ArchitectureBlockImpl$prim_clock_inv" transform="translate(12, 12)" class="architecture"><g class="sprotty-block" style="fill:rgb(255, 255, 255);stroke:rgb(48, 48, 48);stroke-dasharray:0px;"><rect x="0" y="0" rx="1" ry="1" width="529.5625" height="164"/><text x="264.78125" y="12" class="sprotty-block-name" style="cursor:pointer;font-weight:700;perspective-origin:264.781px 0px;fill:rgb(48, 48, 48);stroke:rgba(0, 0, 0, 0);dominant-baseline:middle;text-anchor:middle;">prim_clock_inv</text><line x1="0" y1="20" x2="529.5625" y2="20"/></g><g id="sprotty_ArchitectureBlockImpl$prim_clock_inv/GenerateStatementBlockImpl$null3/GPortImpl$clk_no_to_ArchitectureBlockImpl$prim_clock_inv/BPortImpl$clk_no" class="sprotty-edge edge" style="fill:none;stroke:rgb(112, 112, 112);stroke-linejoin:round;"><g><path d="M 471.09375 102 L 529.5625 102 "/><path d="M 471.09375 102 L 529.5625 102 " class="clickable"/></g></g><g id="sprotty_ArchitectureBlockImpl$prim_clock_inv/BPortImpl$clk_i_to_ArchitectureBlockImpl$prim_clock_inv/GenerateStatementBlockImpl$null3/GPortImpl$clk_i" class="sprotty-edge edge" style="fill:none;stroke:rgb(112, 112, 112);stroke-linejoin:round;"><g><path d="M 0 88 L 109.1875 88 "/><path d="M 0 88 L 109.1875 88 " class="clickable"/></g></g><g id="sprotty_ArchitectureBlockImpl$prim_clock_inv/BPortImpl$scanmode_i_to_ArchitectureBlockImpl$prim_clock_inv/GenerateStatementBlockImpl$null3/GPortImpl$scanmode_i" class="sprotty-edge edge" style="fill:none;stroke:rgb(112, 112, 112);stroke-linejoin:round;"><g><path d="M 0 122 L 97.1875 122 C 98.1875 122 99.1875 121 99.1875 120 L 99.1875 118 C 99.1875 117 100.1875 116 101.1875 116 L 109.1875 116 "/><path d="M 0 122 L 97.1875 122 C 98.1875 122 99.1875 121 99.1875 120 L 99.1875 118 C 99.1875 117 100.1875 116 101.1875 116 L 109.1875 116 " class="clickable"/></g></g><g id="sprotty_ArchitectureBlockImpl$prim_clock_inv/GenerateStatementBlockImpl$null3" transform="translate(109.1875, 35)" class="generate"><g class="sprotty-block sprotty-block-generate" style="fill:rgb(255, 255, 255);stroke:rgb(48, 48, 48);stroke-dasharray:0px;"><rect x="0" y="0" rx="1" ry="1" width="361.90625" height="114" style="stroke-dasharray:3px, 1px;"/><text x="180.953125" y="12" class="sprotty-block-name" style="cursor:pointer;font-weight:700;fill:rgb(48, 48, 48);stroke:rgba(0, 0, 0, 0);dominant-baseline:middle;text-anchor:middle;"/>undefined</g><g id="sprotty_ArchitectureBlockImpl$prim_clock_inv/GenerateStatementBlockImpl$null3/InstantiationBlockImpl$u_impl_generic/BPortImpl$clk_no_to_ArchitectureBlockImpl$prim_clock_inv/GenerateStatementBlockImpl$null3/GPortImpl$clk_no" class="sprotty-edge edge" style="fill:none;stroke:rgb(112, 112, 112);stroke-linejoin:round;"><g><path d="M 346.90625 67 L 361.90625 67 "/><path d="M 346.90625 67 L 361.90625 67 " class="clickable"/></g></g><g id="sprotty_ArchitectureBlockImpl$prim_clock_inv/GenerateStatementBlockImpl$null3/GPortImpl$clk_i_to_ArchitectureBlockImpl$prim_clock_inv/GenerateStatementBlockImpl$null3/InstantiationBlockImpl$u_impl_generic/BPortImpl$clk_i" class="sprotty-edge edge" style="fill:none;stroke:rgb(112, 112, 112);stroke-linejoin:round;"><g><path d="M 0 53 L 15 53 "/><path d="M 0 53 L 15 53 " class="clickable"/></g></g><g id="sprotty_ArchitectureBlockImpl$prim_clock_inv/GenerateStatementBlockImpl$null3/GPortImpl$scanmode_i_to_ArchitectureBlockImpl$prim_clock_inv/GenerateStatementBlockImpl$null3/InstantiationBlockImpl$u_impl_generic/BPortImpl$scanmode_i" class="sprotty-edge edge" style="fill:none;stroke:rgb(112, 112, 112);stroke-linejoin:round;"><g><path d="M 0 81 L 15 81 "/><path d="M 0 81 L 15 81 " class="clickable"/></g></g><g id="sprotty_ArchitectureBlockImpl$prim_clock_inv/GenerateStatementBlockImpl$null3/InstantiationBlockImpl$u_impl_generic" transform="translate(15, 15)" class="instantiation"><g class="sprotty-block" style="fill:rgb(255, 255, 255);stroke:rgb(48, 48, 48);stroke-dasharray:0px;"><rect x="0" y="0" rx="1" ry="1" width="331.90625" height="84"/><text x="165.953125" y="12" class="sprotty-block-name" style="cursor:pointer;font-weight:700;perspective-origin:165.953px 0px;fill:rgb(48, 48, 48);stroke:rgba(0, 0, 0, 0);dominant-baseline:middle;text-anchor:middle;">u_impl_generic : prim_generic_clock_inv</text><line x1="0" y1="20" x2="331.90625" y2="20"/></g><g id="sprotty_ArchitectureBlockImpl$prim_clock_inv/GenerateStatementBlockImpl$null3/InstantiationBlockImpl$u_impl_generic/BPortImpl$scanmode_i" transform="translate(0, 66)" class="triangle"><path d="M 0,0 L 5,2.5 L 0,5 Z" transform="translate(-1.67, -2.5)" class="sprotty-port" style="fill:rgb(48, 48, 48);stroke:rgb(48, 48, 48);"/><text class="clickable sprotty-label port" id="sprotty_ArchitectureBlockImpl$prim_clock_inv/GenerateStatementBlockImpl$null3/InstantiationBlockImpl$u_impl_generic/BPortImpl$scanmode_i/label" transform="translate(6, -9) translate(34.09375, 14)" style="cursor:default;font-size:12px;perspective-origin:0px 0px;fill:rgb(48, 48, 48);text-anchor:middle;">scanmode_i</text></g><g id="sprotty_ArchitectureBlockImpl$prim_clock_inv/GenerateStatementBlockImpl$null3/InstantiationBlockImpl$u_impl_generic/BPortImpl$clk_i" transform="translate(0, 38)" class="triangle"><path d="M 0,0 L 5,2.5 L 0,5 Z" transform="translate(-1.67, -2.5)" class="sprotty-port" style="fill:rgb(48, 48, 48);stroke:rgb(48, 48, 48);"/><text class="clickable sprotty-label port" id="sprotty_ArchitectureBlockImpl$prim_clock_inv/GenerateStatementBlockImpl$null3/InstantiationBlockImpl$u_impl_generic/BPortImpl$clk_i/label" transform="translate(6, -9) translate(13.09375, 14)" style="cursor:default;font-size:12px;perspective-origin:0px 0px;fill:rgb(48, 48, 48);text-anchor:middle;">clk_i</text></g><g id="sprotty_ArchitectureBlockImpl$prim_clock_inv/GenerateStatementBlockImpl$null3/InstantiationBlockImpl$u_impl_generic/BPortImpl$clk_no" transform="translate(331.90625, 52)" class="triangle"><path d="M 0,0 L 5,2.5 L 0,5 Z" transform="translate(-1.67, -2.5)" class="sprotty-port" style="fill:rgb(48, 48, 48);stroke:rgb(48, 48, 48);"/><text class="clickable sprotty-label port" id="sprotty_ArchitectureBlockImpl$prim_clock_inv/GenerateStatementBlockImpl$null3/InstantiationBlockImpl$u_impl_generic/BPortImpl$clk_no/label" transform="translate(-43.46875, -9) translate(18.734375, 14)" style="cursor:default;font-size:12px;perspective-origin:0px 0px;fill:rgb(48, 48, 48);text-anchor:middle;">clk_no</text></g></g><g id="sprotty_ArchitectureBlockImpl$prim_clock_inv/GenerateStatementBlockImpl$null3/GPortImpl$scanmode_i" transform="translate(0, 81)" class="triangle"><path d="M 0,0 L 5,2.5 L 0,5 Z" transform="translate(-1.67, -2.5)" class="sprotty-port" style="fill:rgb(48, 48, 48);stroke:rgb(48, 48, 48);"/></g><g id="sprotty_ArchitectureBlockImpl$prim_clock_inv/GenerateStatementBlockImpl$null3/GPortImpl$clk_i" transform="translate(0, 53)" class="triangle"><path d="M 0,0 L 5,2.5 L 0,5 Z" transform="translate(-1.67, -2.5)" class="sprotty-port" style="fill:rgb(48, 48, 48);stroke:rgb(48, 48, 48);"/></g><g id="sprotty_ArchitectureBlockImpl$prim_clock_inv/GenerateStatementBlockImpl$null3/GPortImpl$clk_no" transform="translate(361.90625, 67)" class="triangle"><path d="M 0,0 L 5,2.5 L 0,5 Z" transform="translate(-1.67, -2.5)" class="sprotty-port" style="fill:rgb(48, 48, 48);stroke:rgb(48, 48, 48);"/></g></g><g id="sprotty_ArchitectureBlockImpl$prim_clock_inv/BPortImpl$scanmode_i" transform="translate(0, 122)" class="triangle"><path d="M 0,0 L 5,2.5 L 0,5 Z" transform="translate(-1.67, -2.5)" class="sprotty-port" style="fill:rgb(48, 48, 48);stroke:rgb(48, 48, 48);"/><text class="clickable sprotty-label port" id="sprotty_ArchitectureBlockImpl$prim_clock_inv/BPortImpl$scanmode_i/label" transform="translate(6, 6) translate(34.09375, 14)" style="cursor:default;font-size:12px;perspective-origin:0px 0px;fill:rgb(48, 48, 48);text-anchor:middle;">scanmode_i</text></g><g id="sprotty_ArchitectureBlockImpl$prim_clock_inv/BPortImpl$clk_i" transform="translate(0, 88)" class="triangle"><path d="M 0,0 L 5,2.5 L 0,5 Z" transform="translate(-1.67, -2.5)" class="sprotty-port" style="fill:rgb(48, 48, 48);stroke:rgb(48, 48, 48);"/><text class="clickable sprotty-label port" id="sprotty_ArchitectureBlockImpl$prim_clock_inv/BPortImpl$clk_i/label" transform="translate(6, 6) translate(13.09375, 14)" style="cursor:default;font-size:12px;perspective-origin:0px 0px;fill:rgb(48, 48, 48);text-anchor:middle;">clk_i</text></g><g id="sprotty_ArchitectureBlockImpl$prim_clock_inv/BPortImpl$clk_no" transform="translate(529.5625, 102)" class="triangle"><path d="M 0,0 L 5,2.5 L 0,5 Z" transform="translate(-1.67, -2.5)" class="sprotty-port" style="fill:rgb(48, 48, 48);stroke:rgb(48, 48, 48);"/><text class="clickable sprotty-label port" id="sprotty_ArchitectureBlockImpl$prim_clock_inv/BPortImpl$clk_no/label" transform="translate(-43.46875, 6) translate(18.734375, 14)" style="cursor:default;font-size:12px;perspective-origin:0px 0px;fill:rgb(48, 48, 48);text-anchor:middle;">clk_no</text></g></g></g></svg>