<svg xmlns="http://www.w3.org/2000/svg" id="sprotty_work.prim_filter" class="sprotty-graph sprotty-block-diagram blockdiagram" style="font-family:&quot;Noto Sans&quot;, Helvetica, Arial, sans-serif;perspective-origin:0px 0px;transform-origin:0px 0px;" version="1.1" viewBox="7 7 417.6875 234" width="417.6875" height="234"><g transform="scale(1) translate(0,0)"><g id="sprotty_ArchitectureBlockImpl$prim_filter" transform="translate(12, 12)" class="architecture"><g class="sprotty-block" style="fill:rgb(255, 255, 255);stroke:rgb(48, 48, 48);stroke-dasharray:0px;"><rect x="0" y="0" rx="1" ry="1" width="407.6875" height="224"/><text x="203.84375" y="12" class="sprotty-block-name" style="cursor:pointer;font-weight:700;perspective-origin:203.844px 0px;fill:rgb(48, 48, 48);stroke:rgba(0, 0, 0, 0);dominant-baseline:middle;text-anchor:middle;">prim_filter</text><line x1="0" y1="20" x2="407.6875" y2="20"/></g><g id="sprotty_ArchitectureBlockImpl$prim_filter/AssignmentBlockImpl$filter_o/GPortImpl$filter_oOUT_to_ArchitectureBlockImpl$prim_filter/BPortImpl$filter_o" class="sprotty-edge edge" style="fill:none;stroke:rgb(112, 112, 112);stroke-linejoin:round;"><g><path d="M 346.1875 146 L 407.6875 146 "/><path d="M 346.1875 146 L 407.6875 146 " class="clickable"/></g></g><g id="sprotty_ArchitectureBlockImpl$prim_filter/BPortImpl$filter_i_to_ArchitectureBlockImpl$prim_filter/AssignmentBlockImpl$stored_vector_d/GPortImpl$filter_iIN" class="sprotty-edge edge" style="fill:none;stroke:rgb(112, 112, 112);stroke-linejoin:round;"><g><path d="M 0 185 L 156.140625 185 C 157.140625 185 158.140625 184 158.140625 183 L 158.140625 129 C 158.140625 128 159.140625 127 160.140625 127 L 168.140625 127 "/><path d="M 0 185 L 156.140625 185 C 157.140625 185 158.140625 184 158.140625 183 L 158.140625 129 C 158.140625 128 159.140625 127 160.140625 127 L 168.140625 127 " class="clickable"/></g><circle r="2" id="sprotty_ArchitectureBlockImpl$prim_filter/BPortImpl$filter_i_to_ArchitectureBlockImpl$prim_filter/AssignmentBlockImpl$stored_vector_d/GPortImpl$filter_iIN/junction0" transform="translate(158.140625, 185)" class="sprotty-junction junction" style="fill:rgb(112, 112, 112);stroke:none;"/></g><g id="sprotty_ArchitectureBlockImpl$prim_filter/BPortImpl$enable_i_to_ArchitectureBlockImpl$prim_filter/AssignmentBlockImpl$filter_o/GPortImpl$enable_iIN" class="sprotty-edge edge" style="fill:none;stroke:rgb(112, 112, 112);stroke-linejoin:round;"><g><path d="M 0 36 L 314.46875 36 C 315.46875 36 316.46875 37 316.46875 38 L 316.46875 134 C 316.46875 135 317.46875 136 318.46875 136 L 326.46875 136 "/><path d="M 0 36 L 314.46875 36 C 315.46875 36 316.46875 37 316.46875 38 L 316.46875 134 C 316.46875 135 317.46875 136 318.46875 136 L 326.46875 136 " class="clickable"/></g></g><g id="sprotty_ArchitectureBlockImpl$prim_filter/BPortImpl$filter_i_to_ArchitectureBlockImpl$prim_filter/AssignmentBlockImpl$filter_o/GPortImpl$filter_iIN" class="sprotty-edge edge" style="fill:none;stroke:rgb(112, 112, 112);stroke-linejoin:round;"><g><path d="M 0 185 L 314.46875 185 C 315.46875 185 316.46875 184 316.46875 183 L 316.46875 158 C 316.46875 157 317.46875 156 318.46875 156 L 326.46875 156 "/><path d="M 0 185 L 314.46875 185 C 315.46875 185 316.46875 184 316.46875 183 L 316.46875 158 C 316.46875 157 317.46875 156 318.46875 156 L 326.46875 156 " class="clickable"/></g></g><g id="sprotty_ArchitectureBlockImpl$prim_filter/BPortImpl$clk_i_to_ArchitectureBlockImpl$prim_filter/AlwaysBlockImpl$null6/GPortImpl$clk_iIN" class="sprotty-edge edge" style="fill:none;stroke:rgb(112, 112, 112);stroke-linejoin:round;"><g><path d="M 0 117 L 77.25 117 C 78.25 117 79.25 116 79.25 115 L 79.25 48 C 79.25 47 80.25 46 81.25 46 L 245.578125 46 C 246.578125 46 247.578125 47 247.578125 48 L 247.578125 129 C 247.578125 130 248.578125 131 249.578125 131 L 257.578125 131 "/><path d="M 0 117 L 77.25 117 C 78.25 117 79.25 116 79.25 115 L 79.25 48 C 79.25 47 80.25 46 81.25 46 L 245.578125 46 C 246.578125 46 247.578125 47 247.578125 48 L 247.578125 129 C 247.578125 130 248.578125 131 249.578125 131 L 257.578125 131 " class="clickable"/></g><circle r="2" id="sprotty_ArchitectureBlockImpl$prim_filter/BPortImpl$clk_i_to_ArchitectureBlockImpl$prim_filter/AlwaysBlockImpl$null6/GPortImpl$clk_iIN/junction0" transform="translate(79.25, 117)" class="sprotty-junction junction" style="fill:rgb(112, 112, 112);stroke:none;"/></g><g id="sprotty_ArchitectureBlockImpl$prim_filter/BPortImpl$rst_ni_to_ArchitectureBlockImpl$prim_filter/AlwaysBlockImpl$null6/GPortImpl$rst_niIN" class="sprotty-edge edge" style="fill:none;stroke:rgb(112, 112, 112);stroke-linejoin:round;"><g><path d="M 0 151 L 257.578125 151 "/><path d="M 0 151 L 257.578125 151 " class="clickable"/></g></g><g id="sprotty_ArchitectureBlockImpl$prim_filter/BPortImpl$filter_i_to_ArchitectureBlockImpl$prim_filter/AlwaysBlockImpl$null6/GPortImpl$filter_iIN" class="sprotty-edge edge" style="fill:none;stroke:rgb(112, 112, 112);stroke-linejoin:round;"><g><path d="M 0 185 L 235.578125 185 C 236.578125 185 237.578125 184 237.578125 183 L 237.578125 163 C 237.578125 162 238.578125 161 239.578125 161 L 257.578125 161 "/><path d="M 0 185 L 235.578125 185 C 236.578125 185 237.578125 184 237.578125 183 L 237.578125 163 C 237.578125 162 238.578125 161 239.578125 161 L 257.578125 161 " class="clickable"/></g><circle r="2" id="sprotty_ArchitectureBlockImpl$prim_filter/BPortImpl$filter_i_to_ArchitectureBlockImpl$prim_filter/AlwaysBlockImpl$null6/GPortImpl$filter_iIN/junction0" transform="translate(237.578125, 185)" class="sprotty-junction junction" style="fill:rgb(112, 112, 112);stroke:none;"/></g><g id="sprotty_ArchitectureBlockImpl$prim_filter/BPortImpl$clk_i_to_ArchitectureBlockImpl$prim_filter/AlwaysBlockImpl$null5/GPortImpl$clk_iIN" class="sprotty-edge edge" style="fill:none;stroke:rgb(112, 112, 112);stroke-linejoin:round;"><g><path d="M 0 117 L 99.25 117 "/><path d="M 0 117 L 99.25 117 " class="clickable"/></g></g><g id="sprotty_ArchitectureBlockImpl$prim_filter/BPortImpl$rst_ni_to_ArchitectureBlockImpl$prim_filter/AlwaysBlockImpl$null5/GPortImpl$rst_niIN" class="sprotty-edge edge" style="fill:none;stroke:rgb(112, 112, 112);stroke-linejoin:round;"><g><path d="M 0 151 L 77.25 151 C 78.25 151 79.25 150 79.25 149 L 79.25 129 C 79.25 128 80.25 127 81.25 127 L 99.25 127 "/><path d="M 0 151 L 77.25 151 C 78.25 151 79.25 150 79.25 149 L 79.25 129 C 79.25 128 80.25 127 81.25 127 L 99.25 127 " class="clickable"/></g><circle r="2" id="sprotty_ArchitectureBlockImpl$prim_filter/BPortImpl$rst_ni_to_ArchitectureBlockImpl$prim_filter/AlwaysBlockImpl$null5/GPortImpl$rst_niIN/junction0" transform="translate(79.25, 151)" class="sprotty-junction junction" style="fill:rgb(112, 112, 112);stroke:none;"/></g><g id="sprotty_ArchitectureBlockImpl$prim_filter/AlwaysBlockImpl$null5/GPortImpl$stored_vector_qOUT_to_ArchitectureBlockImpl$prim_filter/AssignmentBlockImpl$stored_vector_d/GPortImpl$stored_vector_qIN" class="sprotty-edge thick edge" style="fill:none;stroke:rgb(112, 112, 112);stroke-linejoin:round;stroke-width:3px;"><g><path d="M 148.140625 117 L 168.140625 117 "/><path d="M 148.140625 117 L 168.140625 117 " class="clickable"/></g></g><g id="sprotty_ArchitectureBlockImpl$prim_filter/AlwaysBlockImpl$null5/GPortImpl$stored_vector_qOUT_to_ArchitectureBlockImpl$prim_filter/AssignmentBlockImpl$unused_stored_vector_q_msb/GPortImpl$stored_vector_qIN" class="sprotty-edge thick edge" style="fill:none;stroke:rgb(112, 112, 112);stroke-linejoin:round;stroke-width:3px;"><g><path d="M 148.140625 117 L 156.140625 117 C 157.140625 117 158.140625 116 158.140625 115 L 158.140625 78 C 158.140625 77 159.140625 76 160.140625 76 L 168.140625 76 "/><path d="M 148.140625 117 L 156.140625 117 C 157.140625 117 158.140625 116 158.140625 115 L 158.140625 78 C 158.140625 77 159.140625 76 160.140625 76 L 168.140625 76 " class="clickable"/></g><circle r="3" id="sprotty_ArchitectureBlockImpl$prim_filter/AlwaysBlockImpl$null5/GPortImpl$stored_vector_qOUT_to_ArchitectureBlockImpl$prim_filter/AssignmentBlockImpl$unused_stored_vector_q_msb/GPortImpl$stored_vector_qIN/junction0" transform="translate(158.140625, 117)" class="sprotty-junction thick" style="fill:rgb(112, 112, 112);stroke:none;"/></g><g id="sprotty_ArchitectureBlockImpl$prim_filter/AssignmentBlockImpl$stored_vector_d/GPortImpl$stored_vector_dOUT_to_ArchitectureBlockImpl$prim_filter/AssignmentBlockImpl$update_stored_value/GPortImpl$stored_vector_dIN" class="sprotty-edge thick edge" style="fill:none;stroke:rgb(112, 112, 112);stroke-linejoin:round;stroke-width:3px;"><g><path d="M 187.859375 122 L 207.859375 122 "/><path d="M 187.859375 122 L 207.859375 122 " class="clickable"/></g></g><g id="sprotty_ArchitectureBlockImpl$prim_filter/AssignmentBlockImpl$stored_vector_d/GPortImpl$stored_vector_dOUT_to_ArchitectureBlockImpl$prim_filter/AlwaysBlockImpl$null5/GPortImpl$stored_vector_dIN" class="sprotty-edge thick edge" style="fill:none;stroke:rgb(112, 112, 112);stroke-linejoin:round;stroke-width:3px;"><g><path d="M 187.859375 122 L 195.859375 122 C 196.859375 122 197.859375 121 197.859375 120 L 197.859375 57 C 197.859375 56 196.859375 55 195.859375 55 L 91.25 55 C 90.25 55 89.25 56 89.25 57 L 89.25 105 C 89.25 106 90.25 107 91.25 107 L 99.25 107 "/><path d="M 187.859375 122 L 195.859375 122 C 196.859375 122 197.859375 121 197.859375 120 L 197.859375 57 C 197.859375 56 196.859375 55 195.859375 55 L 91.25 55 C 90.25 55 89.25 56 89.25 57 L 89.25 105 C 89.25 106 90.25 107 91.25 107 L 99.25 107 " class="clickable"/></g><circle r="3" id="sprotty_ArchitectureBlockImpl$prim_filter/AssignmentBlockImpl$stored_vector_d/GPortImpl$stored_vector_dOUT_to_ArchitectureBlockImpl$prim_filter/AlwaysBlockImpl$null5/GPortImpl$stored_vector_dIN/junction0" transform="translate(197.859375, 122)" class="sprotty-junction thick" style="fill:rgb(112, 112, 112);stroke:none;"/></g><g id="sprotty_ArchitectureBlockImpl$prim_filter/AlwaysBlockImpl$null6/GPortImpl$stored_value_qOUT_to_ArchitectureBlockImpl$prim_filter/AssignmentBlockImpl$filter_o/GPortImpl$stored_value_qIN" class="sprotty-edge edge" style="fill:none;stroke:rgb(112, 112, 112);stroke-linejoin:round;"><g><path d="M 306.46875 146 L 326.46875 146 "/><path d="M 306.46875 146 L 326.46875 146 " class="clickable"/></g></g><g id="sprotty_ArchitectureBlockImpl$prim_filter/AssignmentBlockImpl$update_stored_value/GPortImpl$stored_vector_dOUT_to_ArchitectureBlockImpl$prim_filter/AlwaysBlockImpl$null6/GPortImpl$update_stored_valueIN" class="sprotty-edge thick edge" style="fill:none;stroke:rgb(112, 112, 112);stroke-linejoin:round;stroke-width:3px;"><g><path d="M 227.578125 122 L 235.578125 122 C 236.578125 122 237.578125 123 237.578125 124 L 237.578125 139 C 237.578125 140 238.578125 141 239.578125 141 L 257.578125 141 "/><path d="M 227.578125 122 L 235.578125 122 C 236.578125 122 237.578125 123 237.578125 124 L 237.578125 139 C 237.578125 140 238.578125 141 239.578125 141 L 257.578125 141 " class="clickable"/></g></g><g id="sprotty_ArchitectureBlockImpl$prim_filter/AlwaysBlockImpl$null5" transform="translate(99.25, 97)" class="statement"><rect x="0" y="0" rx="10" ry="5" width="48.890625" height="40" class="sprotty-node" style="fill:rgb(245, 245, 245);stroke:rgb(112, 112, 112);"/><text class="clickable sprotty-label statementtype" id="sprotty_ArchitectureBlockImpl$prim_filter/AlwaysBlockImpl$null5/labeltype" transform="translate(5, 14) translate(18.828125, 9)" style="cursor:default;font-size:8px;font-weight:700;perspective-origin:0.609375px 0px;fill:rgb(112, 112, 112);text-anchor:middle;">always_ff</text><g id="sprotty_ArchitectureBlockImpl$prim_filter/AlwaysBlockImpl$null5/GPortImpl$stored_vector_dIN" transform="translate(0, 10)" class="sprotty-hidden hidden" style="display:block;height:0px;width:0px;"/><g id="sprotty_ArchitectureBlockImpl$prim_filter/AlwaysBlockImpl$null5/GPortImpl$rst_niIN" transform="translate(0, 30)" class="sprotty-hidden hidden" style="display:block;height:0px;width:0px;"/><g id="sprotty_ArchitectureBlockImpl$prim_filter/AlwaysBlockImpl$null5/GPortImpl$clk_iIN" transform="translate(0, 20)" class="sprotty-hidden hidden" style="display:block;height:0px;width:0px;"/><g id="sprotty_ArchitectureBlockImpl$prim_filter/AlwaysBlockImpl$null5/GPortImpl$stored_vector_qOUT" transform="translate(48.890625, 20)" class="sprotty-hidden hidden" style="display:block;height:0px;width:0px;"/></g><g id="sprotty_ArchitectureBlockImpl$prim_filter/AlwaysBlockImpl$null6" transform="translate(257.578125, 121)" class="statement"><rect x="0" y="0" rx="10" ry="5" width="48.890625" height="50" class="sprotty-node" style="fill:rgb(245, 245, 245);stroke:rgb(112, 112, 112);"/><text class="clickable sprotty-label statementtype" id="sprotty_ArchitectureBlockImpl$prim_filter/AlwaysBlockImpl$null6/labeltype" transform="translate(5, 19) translate(18.828125, 9)" style="cursor:default;font-size:8px;font-weight:700;perspective-origin:0.609375px 0px;fill:rgb(112, 112, 112);text-anchor:middle;">always_ff</text><g id="sprotty_ArchitectureBlockImpl$prim_filter/AlwaysBlockImpl$null6/GPortImpl$filter_iIN" transform="translate(0, 40)" class="sprotty-hidden hidden" style="display:block;height:0px;width:0px;"/><g id="sprotty_ArchitectureBlockImpl$prim_filter/AlwaysBlockImpl$null6/GPortImpl$update_stored_valueIN" transform="translate(0, 20)" class="sprotty-hidden hidden" style="display:block;height:0px;width:0px;"/><g id="sprotty_ArchitectureBlockImpl$prim_filter/AlwaysBlockImpl$null6/GPortImpl$rst_niIN" transform="translate(0, 30)" class="sprotty-hidden hidden" style="display:block;height:0px;width:0px;"/><g id="sprotty_ArchitectureBlockImpl$prim_filter/AlwaysBlockImpl$null6/GPortImpl$clk_iIN" transform="translate(0, 10)" class="sprotty-hidden hidden" style="display:block;height:0px;width:0px;"/><g id="sprotty_ArchitectureBlockImpl$prim_filter/AlwaysBlockImpl$null6/GPortImpl$stored_value_qOUT" transform="translate(48.890625, 25)" class="sprotty-hidden hidden" style="display:block;height:0px;width:0px;"/></g><g id="sprotty_ArchitectureBlockImpl$prim_filter/AssignmentBlockImpl$filter_o" transform="translate(326.46875, 126)" class="statement"><rect x="0" y="0" rx="10" ry="5" width="19.71875" height="40" class="sprotty-node" style="fill:rgb(245, 245, 245);stroke:rgb(112, 112, 112);"/><text class="clickable sprotty-label statementtype" id="sprotty_ArchitectureBlockImpl$prim_filter/AssignmentBlockImpl$filter_o/labeltype" transform="translate(5, 14) translate(4.71875, 9)" style="cursor:default;font-size:8px;font-weight:700;perspective-origin:0.140625px 0px;fill:rgb(112, 112, 112);text-anchor:middle;">&lt;=</text><g id="sprotty_ArchitectureBlockImpl$prim_filter/AssignmentBlockImpl$filter_o/GPortImpl$filter_iIN" transform="translate(0, 30)" class="sprotty-hidden hidden" style="display:block;height:0px;width:0px;"/><g id="sprotty_ArchitectureBlockImpl$prim_filter/AssignmentBlockImpl$filter_o/GPortImpl$stored_value_qIN" transform="translate(0, 20)" class="sprotty-hidden hidden" style="display:block;height:0px;width:0px;"/><g id="sprotty_ArchitectureBlockImpl$prim_filter/AssignmentBlockImpl$filter_o/GPortImpl$enable_iIN" transform="translate(0, 10)" class="sprotty-hidden hidden" style="display:block;height:0px;width:0px;"/><g id="sprotty_ArchitectureBlockImpl$prim_filter/AssignmentBlockImpl$filter_o/GPortImpl$filter_oOUT" transform="translate(19.71875, 20)" class="sprotty-hidden hidden" style="display:block;height:0px;width:0px;"/></g><g id="sprotty_ArchitectureBlockImpl$prim_filter/AssignmentBlockImpl$update_stored_value" transform="translate(207.859375, 111)" class="statement"><rect x="0" y="0" rx="10" ry="5" width="19.71875" height="22" class="sprotty-node" style="fill:rgb(245, 245, 245);stroke:rgb(112, 112, 112);"/><text class="clickable sprotty-label statementtype" id="sprotty_ArchitectureBlockImpl$prim_filter/AssignmentBlockImpl$update_stored_value/labeltype" transform="translate(5, 5) translate(4.71875, 9)" style="cursor:default;font-size:8px;font-weight:700;perspective-origin:0.140625px 0px;fill:rgb(112, 112, 112);text-anchor:middle;">&lt;=</text><g id="sprotty_ArchitectureBlockImpl$prim_filter/AssignmentBlockImpl$update_stored_value/GPortImpl$stored_vector_dIN" transform="translate(0, 11)" class="sprotty-hidden hidden" style="display:block;height:0px;width:0px;"/><g id="sprotty_ArchitectureBlockImpl$prim_filter/AssignmentBlockImpl$update_stored_value/GPortImpl$stored_vector_dOUT" transform="translate(19.71875, 11)" class="sprotty-hidden hidden" style="display:block;height:0px;width:0px;"/></g><g id="sprotty_ArchitectureBlockImpl$prim_filter/AssignmentBlockImpl$unused_stored_vector_q_msb" transform="translate(168.140625, 65)" class="statement"><rect x="0" y="0" rx="10" ry="5" width="19.71875" height="22" class="sprotty-node" style="fill:rgb(245, 245, 245);stroke:rgb(112, 112, 112);"/><text class="clickable sprotty-label statementtype" id="sprotty_ArchitectureBlockImpl$prim_filter/AssignmentBlockImpl$unused_stored_vector_q_msb/labeltype" transform="translate(5, 5) translate(4.71875, 9)" style="cursor:default;font-size:8px;font-weight:700;perspective-origin:0.140625px 0px;fill:rgb(112, 112, 112);text-anchor:middle;">&lt;=</text><g id="sprotty_ArchitectureBlockImpl$prim_filter/AssignmentBlockImpl$unused_stored_vector_q_msb/GPortImpl$stored_vector_qIN" transform="translate(0, 11)" class="sprotty-hidden hidden" style="display:block;height:0px;width:0px;"/></g><g id="sprotty_ArchitectureBlockImpl$prim_filter/AssignmentBlockImpl$stored_vector_d" transform="translate(168.140625, 107)" class="statement"><rect x="0" y="0" rx="10" ry="5" width="19.71875" height="30" class="sprotty-node" style="fill:rgb(245, 245, 245);stroke:rgb(112, 112, 112);"/><text class="clickable sprotty-label statementtype" id="sprotty_ArchitectureBlockImpl$prim_filter/AssignmentBlockImpl$stored_vector_d/labeltype" transform="translate(5, 9) translate(4.71875, 9)" style="cursor:default;font-size:8px;font-weight:700;perspective-origin:0.140625px 0px;fill:rgb(112, 112, 112);text-anchor:middle;">&lt;=</text><g id="sprotty_ArchitectureBlockImpl$prim_filter/AssignmentBlockImpl$stored_vector_d/GPortImpl$filter_iIN" transform="translate(0, 20)" class="sprotty-hidden hidden" style="display:block;height:0px;width:0px;"/><g id="sprotty_ArchitectureBlockImpl$prim_filter/AssignmentBlockImpl$stored_vector_d/GPortImpl$stored_vector_qIN" transform="translate(0, 10)" class="sprotty-hidden hidden" style="display:block;height:0px;width:0px;"/><g id="sprotty_ArchitectureBlockImpl$prim_filter/AssignmentBlockImpl$stored_vector_d/GPortImpl$stored_vector_dOUT" transform="translate(19.71875, 15)" class="sprotty-hidden hidden" style="display:block;height:0px;width:0px;"/></g><g id="sprotty_ArchitectureBlockImpl$prim_filter/BPortImpl$filter_i" transform="translate(0, 185)" class="triangle"><path d="M 0,0 L 5,2.5 L 0,5 Z" transform="translate(-1.67, -2.5)" class="sprotty-port" style="fill:rgb(48, 48, 48);stroke:rgb(48, 48, 48);"/><text class="clickable sprotty-label port" id="sprotty_ArchitectureBlockImpl$prim_filter/BPortImpl$filter_i/label" transform="translate(6, 6) translate(18.265625, 14)" style="cursor:default;font-size:12px;perspective-origin:0px 0px;fill:rgb(48, 48, 48);text-anchor:middle;">filter_i</text></g><g id="sprotty_ArchitectureBlockImpl$prim_filter/BPortImpl$enable_i" transform="translate(0, 36)" class="triangle"><path d="M 0,0 L 5,2.5 L 0,5 Z" transform="translate(-1.67, -2.5)" class="sprotty-port" style="fill:rgb(48, 48, 48);stroke:rgb(48, 48, 48);"/><text class="clickable sprotty-label port" id="sprotty_ArchitectureBlockImpl$prim_filter/BPortImpl$enable_i/label" transform="translate(6, 6) translate(24.125, 14)" style="cursor:default;font-size:12px;perspective-origin:0px 0px;fill:rgb(48, 48, 48);text-anchor:middle;">enable_i</text></g><g id="sprotty_ArchitectureBlockImpl$prim_filter/BPortImpl$rst_ni" transform="translate(0, 151)" class="triangle"><path d="M 0,0 L 5,2.5 L 0,5 Z" transform="translate(-1.67, -2.5)" class="sprotty-port" style="fill:rgb(48, 48, 48);stroke:rgb(48, 48, 48);"/><text class="clickable sprotty-label port" id="sprotty_ArchitectureBlockImpl$prim_filter/BPortImpl$rst_ni/label" transform="translate(6, 6) translate(15.921875, 14)" style="cursor:default;font-size:12px;perspective-origin:0px 0px;fill:rgb(48, 48, 48);text-anchor:middle;">rst_ni</text></g><g id="sprotty_ArchitectureBlockImpl$prim_filter/BPortImpl$clk_i" transform="translate(0, 117)" class="triangle"><path d="M 0,0 L 5,2.5 L 0,5 Z" transform="translate(-1.67, -2.5)" class="sprotty-port" style="fill:rgb(48, 48, 48);stroke:rgb(48, 48, 48);"/><text class="clickable sprotty-label port" id="sprotty_ArchitectureBlockImpl$prim_filter/BPortImpl$clk_i/label" transform="translate(6, 6) translate(13.09375, 14)" style="cursor:default;font-size:12px;perspective-origin:0px 0px;fill:rgb(48, 48, 48);text-anchor:middle;">clk_i</text></g><g id="sprotty_ArchitectureBlockImpl$prim_filter/BPortImpl$filter_o" transform="translate(407.6875, 146)" class="triangle"><path d="M 0,0 L 5,2.5 L 0,5 Z" transform="translate(-1.67, -2.5)" class="sprotty-port" style="fill:rgb(48, 48, 48);stroke:rgb(48, 48, 48);"/><text class="clickable sprotty-label port" id="sprotty_ArchitectureBlockImpl$prim_filter/BPortImpl$filter_o/label" transform="translate(-46.5, 6) translate(20.25, 14)" style="cursor:default;font-size:12px;perspective-origin:0px 0px;fill:rgb(48, 48, 48);text-anchor:middle;">filter_o</text></g></g></g></svg>