<svg xmlns="http://www.w3.org/2000/svg" id="sprotty_work.sys_clk" class="sprotty-graph sprotty-block-diagram blockdiagram" style="font-family:&quot;Noto Sans&quot;, Helvetica, Arial, sans-serif;perspective-origin:0px 0px;transform-origin:0px 0px;" version="1.1" viewBox="7 7 555.171875 242" width="555.171875" height="242"><g transform="scale(1) translate(0,0)"><g id="sprotty_ArchitectureBlockImpl$sys_clk" transform="translate(12, 12)" class="architecture"><g class="sprotty-block" style="fill:rgb(255, 255, 255);stroke:rgb(48, 48, 48);stroke-dasharray:0px;"><rect x="0" y="0" rx="1" ry="1" width="545.171875" height="232"/><text x="272.5859375" y="12" class="sprotty-block-name" style="cursor:pointer;font-weight:700;perspective-origin:272.734px 0px;fill:rgb(48, 48, 48);stroke:rgba(0, 0, 0, 0);dominant-baseline:middle;text-anchor:middle;">sys_clk</text><line x1="0" y1="20" x2="545.171875" y2="20"/></g><g id="sprotty_ArchitectureBlockImpl$sys_clk/AssignmentBlockImpl$clk_src_sys_o/GPortImpl$clk_src_sys_oOUT_to_ArchitectureBlockImpl$sys_clk/BPortImpl$clk_src_sys_o" class="sprotty-edge edge" style="fill:none;stroke:rgb(112, 112, 112);stroke-linejoin:round;"><g><path d="M 409.3984375 68 L 545.171875 68 "/><path d="M 409.3984375 68 L 545.171875 68 " class="clickable"/></g></g><g id="sprotty_ArchitectureBlockImpl$sys_clk/AlwaysBlockImpl$null7/GPortImpl$clk_src_sys_val_oOUT_to_ArchitectureBlockImpl$sys_clk/BPortImpl$clk_src_sys_val_o" class="sprotty-edge edge" style="fill:none;stroke:rgb(112, 112, 112);stroke-linejoin:round;"><g><path d="M 423.984375 110 L 545.171875 110 "/><path d="M 423.984375 110 L 545.171875 110 " class="clickable"/></g></g><g id="sprotty_ArchitectureBlockImpl$sys_clk/BPortImpl$vcore_pok_h_i_to_ArchitectureBlockImpl$sys_clk/InstantiationBlockImpl$u_sys_osc/BPortImpl$vcore_pok_h_i" class="sprotty-edge edge" style="fill:none;stroke:rgb(112, 112, 112);stroke-linejoin:round;"><g><path d="M 0 36 L 166.03125 36 C 167.03125 36 168.03125 37 168.03125 38 L 168.03125 80 C 168.03125 81 169.03125 82 170.03125 82 L 178.03125 82 "/><path d="M 0 36 L 166.03125 36 C 167.03125 36 168.03125 37 168.03125 38 L 168.03125 80 C 168.03125 81 169.03125 82 170.03125 82 L 178.03125 82 " class="clickable"/></g></g><g id="sprotty_ArchitectureBlockImpl$sys_clk/BPortImpl$clk_src_sys_jen_i_to_ArchitectureBlockImpl$sys_clk/InstantiationBlockImpl$u_sys_osc/BPortImpl$sys_jen_i" class="sprotty-edge edge" style="fill:none;stroke:rgb(112, 112, 112);stroke-linejoin:round;"><g><path d="M 0 138 L 178.03125 138 "/><path d="M 0 138 L 178.03125 138 " class="clickable"/></g></g><g id="sprotty_ArchitectureBlockImpl$sys_clk/BPortImpl$rst_sys_clk_ni_to_ArchitectureBlockImpl$sys_clk/AssignmentBlockImpl$rst_n/GPortImpl$rst_sys_clk_niIN" class="sprotty-edge edge" style="fill:none;stroke:rgb(112, 112, 112);stroke-linejoin:round;"><g><path d="M 0 193 L 99.90625 193 "/><path d="M 0 193 L 99.90625 193 " class="clickable"/></g></g><g id="sprotty_ArchitectureBlockImpl$sys_clk/BPortImpl$clk_src_sys_en_i_to_ArchitectureBlockImpl$sys_clk/AssignmentBlockImpl$sys_clk_en/GPortImpl$clk_src_sys_en_iIN" class="sprotty-edge edge" style="fill:none;stroke:rgb(112, 112, 112);stroke-linejoin:round;"><g><path d="M 0 70 L 126.3125 70 C 127.3125 70 128.3125 71 128.3125 72 L 128.3125 92 C 128.3125 93 129.3125 94 130.3125 94 L 138.3125 94 "/><path d="M 0 70 L 126.3125 70 C 127.3125 70 128.3125 71 128.3125 72 L 128.3125 92 C 128.3125 93 129.3125 94 130.3125 94 L 138.3125 94 " class="clickable"/></g></g><g id="sprotty_ArchitectureBlockImpl$sys_clk/BPortImpl$clk_sys_pd_ni_to_ArchitectureBlockImpl$sys_clk/AssignmentBlockImpl$sys_clk_en/GPortImpl$clk_sys_pd_niIN" class="sprotty-edge edge" style="fill:none;stroke:rgb(112, 112, 112);stroke-linejoin:round;"><g><path d="M 0 104 L 138.3125 104 "/><path d="M 0 104 L 138.3125 104 " class="clickable"/></g></g><g id="sprotty_ArchitectureBlockImpl$sys_clk/InstantiationBlockImpl$u_sys_osc/BPortImpl$sys_clk_o_to_ArchitectureBlockImpl$sys_clk/AssignmentBlockImpl$clk_src_sys_o/GPortImpl$clkIN" class="sprotty-edge edge" style="fill:none;stroke:rgb(112, 112, 112);stroke-linejoin:round;"><g><path d="M 355.09375 110 L 363.09375 110 C 364.09375 110 365.09375 109 365.09375 108 L 365.09375 70 C 365.09375 69 366.09375 68 367.09375 68 L 389.6796875 68 "/><path d="M 355.09375 110 L 363.09375 110 C 364.09375 110 365.09375 109 365.09375 108 L 365.09375 70 C 365.09375 69 366.09375 68 367.09375 68 L 389.6796875 68 " class="clickable"/></g><circle r="2" id="sprotty_ArchitectureBlockImpl$sys_clk/InstantiationBlockImpl$u_sys_osc/BPortImpl$sys_clk_o_to_ArchitectureBlockImpl$sys_clk/AssignmentBlockImpl$clk_src_sys_o/GPortImpl$clkIN/junction0" transform="translate(365.09375, 110)" class="sprotty-junction junction" style="fill:rgb(112, 112, 112);stroke:none;"/></g><g id="sprotty_ArchitectureBlockImpl$sys_clk/InstantiationBlockImpl$u_sys_osc/BPortImpl$sys_clk_o_to_ArchitectureBlockImpl$sys_clk/AlwaysBlockImpl$null7/GPortImpl$clkIN" class="sprotty-edge edge" style="fill:none;stroke:rgb(112, 112, 112);stroke-linejoin:round;"><g><path d="M 355.09375 110 L 375.09375 110 "/><path d="M 355.09375 110 L 375.09375 110 " class="clickable"/></g></g><g id="sprotty_ArchitectureBlockImpl$sys_clk/AssignmentBlockImpl$sys_clk_en/GPortImpl$sys_clk_enOUT_to_ArchitectureBlockImpl$sys_clk/InstantiationBlockImpl$u_sys_osc/BPortImpl$sys_en_i" class="sprotty-edge edge" style="fill:none;stroke:rgb(112, 112, 112);stroke-linejoin:round;"><g><path d="M 158.03125 99 L 166.03125 99 C 167.03125 99 168.03125 100 168.03125 101 L 168.03125 108 C 168.03125 109 169.03125 110 170.03125 110 L 178.03125 110 "/><path d="M 158.03125 99 L 166.03125 99 C 167.03125 99 168.03125 100 168.03125 101 L 168.03125 108 C 168.03125 109 169.03125 110 170.03125 110 L 178.03125 110 " class="clickable"/></g></g><g id="sprotty_ArchitectureBlockImpl$sys_clk/AlwaysBlockImpl$null7" transform="translate(375.09375, 99)" class="statement"><rect x="0" y="0" rx="10" ry="5" width="48.890625" height="22" class="sprotty-node" style="fill:rgb(245, 245, 245);stroke:rgb(112, 112, 112);"/><text class="clickable sprotty-label statementtype" id="sprotty_ArchitectureBlockImpl$sys_clk/AlwaysBlockImpl$null7/labeltype" transform="translate(5, 5) translate(18.828125, 9)" style="cursor:default;font-size:8px;font-weight:700;perspective-origin:0.609375px 0px;fill:rgb(112, 112, 112);text-anchor:middle;">always_ff</text><g id="sprotty_ArchitectureBlockImpl$sys_clk/AlwaysBlockImpl$null7/GPortImpl$clkIN" transform="translate(0, 11)" class="sprotty-hidden hidden" style="display:block;height:0px;width:0px;"/><g id="sprotty_ArchitectureBlockImpl$sys_clk/AlwaysBlockImpl$null7/GPortImpl$clk_src_sys_val_oOUT" transform="translate(48.890625, 11)" class="sprotty-hidden hidden" style="display:block;height:0px;width:0px;"/></g><g id="sprotty_ArchitectureBlockImpl$sys_clk/AssignmentBlockImpl$clk_src_sys_o" transform="translate(389.6796875, 57)" class="statement"><rect x="0" y="0" rx="10" ry="5" width="19.71875" height="22" class="sprotty-node" style="fill:rgb(245, 245, 245);stroke:rgb(112, 112, 112);"/><text class="clickable sprotty-label statementtype" id="sprotty_ArchitectureBlockImpl$sys_clk/AssignmentBlockImpl$clk_src_sys_o/labeltype" transform="translate(5, 5) translate(4.71875, 9)" style="cursor:default;font-size:8px;font-weight:700;perspective-origin:0.140625px 0px;fill:rgb(112, 112, 112);text-anchor:middle;">&lt;=</text><g id="sprotty_ArchitectureBlockImpl$sys_clk/AssignmentBlockImpl$clk_src_sys_o/GPortImpl$clkIN" transform="translate(0, 11)" class="sprotty-hidden hidden" style="display:block;height:0px;width:0px;"/><g id="sprotty_ArchitectureBlockImpl$sys_clk/AssignmentBlockImpl$clk_src_sys_o/GPortImpl$clk_src_sys_oOUT" transform="translate(19.71875, 11)" class="sprotty-hidden hidden" style="display:block;height:0px;width:0px;"/></g><g id="sprotty_ArchitectureBlockImpl$sys_clk/AssignmentBlockImpl$sys_clk_en" transform="translate(138.3125, 84)" class="statement"><rect x="0" y="0" rx="10" ry="5" width="19.71875" height="30" class="sprotty-node" style="fill:rgb(245, 245, 245);stroke:rgb(112, 112, 112);"/><text class="clickable sprotty-label statementtype" id="sprotty_ArchitectureBlockImpl$sys_clk/AssignmentBlockImpl$sys_clk_en/labeltype" transform="translate(5, 9) translate(4.71875, 9)" style="cursor:default;font-size:8px;font-weight:700;perspective-origin:0.140625px 0px;fill:rgb(112, 112, 112);text-anchor:middle;">&lt;=</text><g id="sprotty_ArchitectureBlockImpl$sys_clk/AssignmentBlockImpl$sys_clk_en/GPortImpl$clk_sys_pd_niIN" transform="translate(0, 20)" class="sprotty-hidden hidden" style="display:block;height:0px;width:0px;"/><g id="sprotty_ArchitectureBlockImpl$sys_clk/AssignmentBlockImpl$sys_clk_en/GPortImpl$clk_src_sys_en_iIN" transform="translate(0, 10)" class="sprotty-hidden hidden" style="display:block;height:0px;width:0px;"/><g id="sprotty_ArchitectureBlockImpl$sys_clk/AssignmentBlockImpl$sys_clk_en/GPortImpl$sys_clk_enOUT" transform="translate(19.71875, 15)" class="sprotty-hidden hidden" style="display:block;height:0px;width:0px;"/></g><g id="sprotty_ArchitectureBlockImpl$sys_clk/AssignmentBlockImpl$rst_n" transform="translate(99.90625, 182)" class="statement"><rect x="0" y="0" rx="10" ry="5" width="19.71875" height="22" class="sprotty-node" style="fill:rgb(245, 245, 245);stroke:rgb(112, 112, 112);"/><text class="clickable sprotty-label statementtype" id="sprotty_ArchitectureBlockImpl$sys_clk/AssignmentBlockImpl$rst_n/labeltype" transform="translate(5, 5) translate(4.71875, 9)" style="cursor:default;font-size:8px;font-weight:700;perspective-origin:0.140625px 0px;fill:rgb(112, 112, 112);text-anchor:middle;">&lt;=</text><g id="sprotty_ArchitectureBlockImpl$sys_clk/AssignmentBlockImpl$rst_n/GPortImpl$rst_sys_clk_niIN" transform="translate(0, 11)" class="sprotty-hidden hidden" style="display:block;height:0px;width:0px;"/></g><g id="sprotty_ArchitectureBlockImpl$sys_clk/InstantiationBlockImpl$u_sys_osc" transform="translate(178.03125, 44)" class="instantiation"><g class="sprotty-block" style="fill:rgb(255, 255, 255);stroke:rgb(48, 48, 48);stroke-dasharray:0px;"><rect x="0" y="0" rx="1" ry="1" width="177.0625" height="112"/><text x="88.53125" y="12" class="sprotty-block-name" style="cursor:pointer;font-weight:700;perspective-origin:88.5312px 0px;fill:rgb(48, 48, 48);stroke:rgba(0, 0, 0, 0);dominant-baseline:middle;text-anchor:middle;">u_sys_osc : sys_osc</text><line x1="0" y1="20" x2="177.0625" y2="20"/></g><g id="sprotty_ArchitectureBlockImpl$sys_clk/InstantiationBlockImpl$u_sys_osc/BPortImpl$sys_jen_i" transform="translate(0, 94)" class="triangle"><path d="M 0,0 L 5,2.5 L 0,5 Z" transform="translate(-1.67, -2.5)" class="sprotty-port" style="fill:rgb(48, 48, 48);stroke:rgb(48, 48, 48);"/><text class="clickable sprotty-label port" id="sprotty_ArchitectureBlockImpl$sys_clk/InstantiationBlockImpl$u_sys_osc/BPortImpl$sys_jen_i/label" transform="translate(6, -9) translate(25.75, 14)" style="cursor:default;font-size:12px;perspective-origin:0px 0px;fill:rgb(48, 48, 48);text-anchor:middle;">sys_jen_i</text></g><g id="sprotty_ArchitectureBlockImpl$sys_clk/InstantiationBlockImpl$u_sys_osc/BPortImpl$sys_en_i" transform="translate(0, 66)" class="triangle"><path d="M 0,0 L 5,2.5 L 0,5 Z" transform="translate(-1.67, -2.5)" class="sprotty-port" style="fill:rgb(48, 48, 48);stroke:rgb(48, 48, 48);"/><text class="clickable sprotty-label port" id="sprotty_ArchitectureBlockImpl$sys_clk/InstantiationBlockImpl$u_sys_osc/BPortImpl$sys_en_i/label" transform="translate(6, -9) translate(24.09375, 14)" style="cursor:default;font-size:12px;perspective-origin:0px 0px;fill:rgb(48, 48, 48);text-anchor:middle;">sys_en_i</text></g><g id="sprotty_ArchitectureBlockImpl$sys_clk/InstantiationBlockImpl$u_sys_osc/BPortImpl$vcore_pok_h_i" transform="translate(0, 38)" class="triangle"><path d="M 0,0 L 5,2.5 L 0,5 Z" transform="translate(-1.67, -2.5)" class="sprotty-port" style="fill:rgb(48, 48, 48);stroke:rgb(48, 48, 48);"/><text class="clickable sprotty-label port" id="sprotty_ArchitectureBlockImpl$sys_clk/InstantiationBlockImpl$u_sys_osc/BPortImpl$vcore_pok_h_i/label" transform="translate(6, -9) translate(41.265625, 14)" style="cursor:default;font-size:12px;perspective-origin:0px 0px;fill:rgb(48, 48, 48);text-anchor:middle;">vcore_pok_h_i</text></g><g id="sprotty_ArchitectureBlockImpl$sys_clk/InstantiationBlockImpl$u_sys_osc/BPortImpl$sys_clk_o" transform="translate(177.0625, 66)" class="triangle"><path d="M 0,0 L 5,2.5 L 0,5 Z" transform="translate(-1.67, -2.5)" class="sprotty-port" style="fill:rgb(48, 48, 48);stroke:rgb(48, 48, 48);"/><text class="clickable sprotty-label port" id="sprotty_ArchitectureBlockImpl$sys_clk/InstantiationBlockImpl$u_sys_osc/BPortImpl$sys_clk_o/label" transform="translate(-60.34375, -9) translate(27.171875, 14)" style="cursor:default;font-size:12px;perspective-origin:0px 0px;fill:rgb(48, 48, 48);text-anchor:middle;">sys_clk_o</text></g></g><g id="sprotty_ArchitectureBlockImpl$sys_clk/BPortImpl$vcore_pok_h_i" transform="translate(0, 36)" class="triangle"><path d="M 0,0 L 5,2.5 L 0,5 Z" transform="translate(-1.67, -2.5)" class="sprotty-port" style="fill:rgb(48, 48, 48);stroke:rgb(48, 48, 48);"/><text class="clickable sprotty-label port" id="sprotty_ArchitectureBlockImpl$sys_clk/BPortImpl$vcore_pok_h_i/label" transform="translate(6, 6) translate(41.265625, 14)" style="cursor:default;font-size:12px;perspective-origin:0px 0px;fill:rgb(48, 48, 48);text-anchor:middle;">vcore_pok_h_i</text></g><g id="sprotty_ArchitectureBlockImpl$sys_clk/BPortImpl$rst_sys_clk_ni" transform="translate(0, 193)" class="triangle"><path d="M 0,0 L 5,2.5 L 0,5 Z" transform="translate(-1.67, -2.5)" class="sprotty-port" style="fill:rgb(48, 48, 48);stroke:rgb(48, 48, 48);"/><text class="clickable sprotty-label port" id="sprotty_ArchitectureBlockImpl$sys_clk/BPortImpl$rst_sys_clk_ni/label" transform="translate(6, 6) translate(39.453125, 14)" style="cursor:default;font-size:12px;perspective-origin:0px 0px;fill:rgb(48, 48, 48);text-anchor:middle;">rst_sys_clk_ni</text></g><g id="sprotty_ArchitectureBlockImpl$sys_clk/BPortImpl$clk_sys_pd_ni" transform="translate(0, 104)" class="triangle"><path d="M 0,0 L 5,2.5 L 0,5 Z" transform="translate(-1.67, -2.5)" class="sprotty-port" style="fill:rgb(48, 48, 48);stroke:rgb(48, 48, 48);"/><text class="clickable sprotty-label port" id="sprotty_ArchitectureBlockImpl$sys_clk/BPortImpl$clk_sys_pd_ni/label" transform="translate(6, 6) translate(39.640625, 14)" style="cursor:default;font-size:12px;perspective-origin:0px 0px;fill:rgb(48, 48, 48);text-anchor:middle;">clk_sys_pd_ni</text></g><g id="sprotty_ArchitectureBlockImpl$sys_clk/BPortImpl$clk_src_sys_jen_i" transform="translate(0, 138)" class="triangle"><path d="M 0,0 L 5,2.5 L 0,5 Z" transform="translate(-1.67, -2.5)" class="sprotty-port" style="fill:rgb(48, 48, 48);stroke:rgb(48, 48, 48);"/><text class="clickable sprotty-label port" id="sprotty_ArchitectureBlockImpl$sys_clk/BPortImpl$clk_src_sys_jen_i/label" transform="translate(6, 6) translate(48.65625, 14)" style="cursor:default;font-size:12px;perspective-origin:0px 0px;fill:rgb(48, 48, 48);text-anchor:middle;">clk_src_sys_jen_i</text></g><g id="sprotty_ArchitectureBlockImpl$sys_clk/BPortImpl$clk_src_sys_en_i" transform="translate(0, 70)" class="triangle"><path d="M 0,0 L 5,2.5 L 0,5 Z" transform="translate(-1.67, -2.5)" class="sprotty-port" style="fill:rgb(48, 48, 48);stroke:rgb(48, 48, 48);"/><text class="clickable sprotty-label port" id="sprotty_ArchitectureBlockImpl$sys_clk/BPortImpl$clk_src_sys_en_i/label" transform="translate(6, 6) translate(47, 14)" style="cursor:default;font-size:12px;perspective-origin:0px 0px;fill:rgb(48, 48, 48);text-anchor:middle;">clk_src_sys_en_i</text></g><g id="sprotty_ArchitectureBlockImpl$sys_clk/BPortImpl$clk_src_sys_o" transform="translate(545.171875, 68)" class="triangle"><path d="M 0,0 L 5,2.5 L 0,5 Z" transform="translate(-1.67, -2.5)" class="sprotty-port" style="fill:rgb(48, 48, 48);stroke:rgb(48, 48, 48);"/><text class="clickable sprotty-label port" id="sprotty_ArchitectureBlockImpl$sys_clk/BPortImpl$clk_src_sys_o/label" transform="translate(-83.28125, 6) translate(38.640625, 14)" style="cursor:default;font-size:12px;perspective-origin:0px 0px;fill:rgb(48, 48, 48);text-anchor:middle;">clk_src_sys_o</text></g><g id="sprotty_ArchitectureBlockImpl$sys_clk/BPortImpl$clk_src_sys_val_o" transform="translate(545.171875, 110)" class="triangle"><path d="M 0,0 L 5,2.5 L 0,5 Z" transform="translate(-1.67, -2.5)" class="sprotty-port" style="fill:rgb(48, 48, 48);stroke:rgb(48, 48, 48);"/><text class="clickable sprotty-label port" id="sprotty_ArchitectureBlockImpl$sys_clk/BPortImpl$clk_src_sys_val_o/label" transform="translate(-106.1875, 6) translate(50.09375, 14)" style="cursor:default;font-size:12px;perspective-origin:0px 0px;fill:rgb(48, 48, 48);text-anchor:middle;">clk_src_sys_val_o</text></g></g></g></svg>