<svg xmlns="http://www.w3.org/2000/svg" id="sprotty_work.prim_clock_buf" class="sprotty-graph sprotty-block-diagram blockdiagram" style="font-family:&quot;Noto Sans&quot;, Helvetica, Arial, sans-serif;perspective-origin:0px 0px;transform-origin:0px 0px;" version="1.1" viewBox="7 7 513.421875 222" width="513.421875" height="222"><g transform="scale(1) translate(0,0)"><g id="sprotty_ArchitectureBlockImpl$prim_clock_buf" transform="translate(12, 12)" class="architecture"><g class="sprotty-block" style="fill:rgb(255, 255, 255);stroke:rgb(48, 48, 48);stroke-dasharray:0px;"><rect x="0" y="0" rx="1" ry="1" width="503.421875" height="212"/><text x="251.7109375" y="12" class="sprotty-block-name" style="cursor:pointer;font-weight:700;perspective-origin:252.234px 0px;fill:rgb(48, 48, 48);stroke:rgba(0, 0, 0, 0);dominant-baseline:middle;text-anchor:middle;">prim_clock_buf</text><line x1="0" y1="20" x2="503.421875" y2="20"/></g><g id="sprotty_ArchitectureBlockImpl$prim_clock_buf/GenerateStatementBlockImpl$null2/GPortImpl$clk_o_to_ArchitectureBlockImpl$prim_clock_buf/BPortImpl$clk_o" class="sprotty-edge edge" style="fill:none;stroke:rgb(112, 112, 112);stroke-linejoin:round;"><g><path d="M 452.265625 88 L 503.421875 88 "/><path d="M 452.265625 88 L 503.421875 88 " class="clickable"/></g></g><g id="sprotty_ArchitectureBlockImpl$prim_clock_buf/BPortImpl$clk_i_to_ArchitectureBlockImpl$prim_clock_buf/GenerateStatementBlockImpl$null2/GPortImpl$clk_i" class="sprotty-edge edge" style="fill:none;stroke:rgb(112, 112, 112);stroke-linejoin:round;"><g><path d="M 0 88 L 47.1875 88 "/><path d="M 0 88 L 47.1875 88 " class="clickable"/></g></g><g id="sprotty_ArchitectureBlockImpl$prim_clock_buf/GenerateStatementBlockImpl$null2" transform="translate(47.1875, 35)" class="generate"><g class="sprotty-block sprotty-block-generate" style="fill:rgb(255, 255, 255);stroke:rgb(48, 48, 48);stroke-dasharray:0px;"><rect x="0" y="0" rx="1" ry="1" width="405.078125" height="162" style="stroke-dasharray:3px, 1px;"/><text x="202.5390625" y="12" class="sprotty-block-name" style="cursor:pointer;font-weight:700;fill:rgb(48, 48, 48);stroke:rgba(0, 0, 0, 0);dominant-baseline:middle;text-anchor:middle;"/>undefined</g><g id="sprotty_ArchitectureBlockImpl$prim_clock_buf/GenerateStatementBlockImpl$null2/InstantiationBlockImpl$u_impl_xilinx/BPortImpl$clk_o_to_ArchitectureBlockImpl$prim_clock_buf/GenerateStatementBlockImpl$null2/GPortImpl$clk_o" class="sprotty-edge edge" style="fill:none;stroke:rgb(112, 112, 112);stroke-linejoin:round;"><g><path d="M 354.7109375 129 L 378.078125 129 C 379.078125 129 380.078125 128 380.078125 127 L 380.078125 55 C 380.078125 54 381.078125 53 382.078125 53 L 405.078125 53 "/><path d="M 354.7109375 129 L 378.078125 129 C 379.078125 129 380.078125 128 380.078125 127 L 380.078125 55 C 380.078125 54 381.078125 53 382.078125 53 L 405.078125 53 " class="clickable"/></g><circle r="2" id="sprotty_ArchitectureBlockImpl$prim_clock_buf/GenerateStatementBlockImpl$null2/InstantiationBlockImpl$u_impl_xilinx/BPortImpl$clk_o_to_ArchitectureBlockImpl$prim_clock_buf/GenerateStatementBlockImpl$null2/GPortImpl$clk_o/junction0" transform="translate(380.078125, 53)" class="sprotty-junction junction" style="fill:rgb(112, 112, 112);stroke:none;"/></g><g id="sprotty_ArchitectureBlockImpl$prim_clock_buf/GenerateStatementBlockImpl$null2/InstantiationBlockImpl$u_impl_generic/BPortImpl$clk_o_to_ArchitectureBlockImpl$prim_clock_buf/GenerateStatementBlockImpl$null2/GPortImpl$clk_o" class="sprotty-edge edge" style="fill:none;stroke:rgb(112, 112, 112);stroke-linejoin:round;"><g><path d="M 370.078125 53 L 405.078125 53 "/><path d="M 370.078125 53 L 405.078125 53 " class="clickable"/></g></g><g id="sprotty_ArchitectureBlockImpl$prim_clock_buf/GenerateStatementBlockImpl$null2/GPortImpl$clk_i_to_ArchitectureBlockImpl$prim_clock_buf/GenerateStatementBlockImpl$null2/InstantiationBlockImpl$u_impl_xilinx/BPortImpl$clk_i" class="sprotty-edge edge" style="fill:none;stroke:rgb(112, 112, 112);stroke-linejoin:round;"><g><path d="M 0 53 L 23 53 C 24 53 25 54 25 55 L 25 127 C 25 128 26 129 27 129 L 50.3671875 129 "/><path d="M 0 53 L 23 53 C 24 53 25 54 25 55 L 25 127 C 25 128 26 129 27 129 L 50.3671875 129 " class="clickable"/></g><circle r="2" id="sprotty_ArchitectureBlockImpl$prim_clock_buf/GenerateStatementBlockImpl$null2/GPortImpl$clk_i_to_ArchitectureBlockImpl$prim_clock_buf/GenerateStatementBlockImpl$null2/InstantiationBlockImpl$u_impl_xilinx/BPortImpl$clk_i/junction0" transform="translate(25, 53)" class="sprotty-junction junction" style="fill:rgb(112, 112, 112);stroke:none;"/></g><g id="sprotty_ArchitectureBlockImpl$prim_clock_buf/GenerateStatementBlockImpl$null2/GPortImpl$clk_i_to_ArchitectureBlockImpl$prim_clock_buf/GenerateStatementBlockImpl$null2/InstantiationBlockImpl$u_impl_generic/BPortImpl$clk_i" class="sprotty-edge edge" style="fill:none;stroke:rgb(112, 112, 112);stroke-linejoin:round;"><g><path d="M 0 53 L 35 53 "/><path d="M 0 53 L 35 53 " class="clickable"/></g></g><g id="sprotty_ArchitectureBlockImpl$prim_clock_buf/GenerateStatementBlockImpl$null2/InstantiationBlockImpl$u_impl_generic" transform="translate(35, 15)" class="instantiation"><g class="sprotty-block" style="fill:rgb(255, 255, 255);stroke:rgb(48, 48, 48);stroke-dasharray:0px;"><rect x="0" y="0" rx="1" ry="1" width="335.078125" height="56"/><text x="167.5390625" y="12" class="sprotty-block-name" style="cursor:pointer;font-weight:700;perspective-origin:168.062px 0px;fill:rgb(48, 48, 48);stroke:rgba(0, 0, 0, 0);dominant-baseline:middle;text-anchor:middle;">u_impl_generic : prim_generic_clock_buf</text><line x1="0" y1="20" x2="335.078125" y2="20"/></g><g id="sprotty_ArchitectureBlockImpl$prim_clock_buf/GenerateStatementBlockImpl$null2/InstantiationBlockImpl$u_impl_generic/BPortImpl$clk_i" transform="translate(0, 38)" class="triangle"><path d="M 0,0 L 5,2.5 L 0,5 Z" transform="translate(-1.67, -2.5)" class="sprotty-port" style="fill:rgb(48, 48, 48);stroke:rgb(48, 48, 48);"/><text class="clickable sprotty-label port" id="sprotty_ArchitectureBlockImpl$prim_clock_buf/GenerateStatementBlockImpl$null2/InstantiationBlockImpl$u_impl_generic/BPortImpl$clk_i/label" transform="translate(6, -9) translate(13.09375, 14)" style="cursor:default;font-size:12px;perspective-origin:0px 0px;fill:rgb(48, 48, 48);text-anchor:middle;">clk_i</text></g><g id="sprotty_ArchitectureBlockImpl$prim_clock_buf/GenerateStatementBlockImpl$null2/InstantiationBlockImpl$u_impl_generic/BPortImpl$clk_o" transform="translate(335.078125, 38)" class="triangle"><path d="M 0,0 L 5,2.5 L 0,5 Z" transform="translate(-1.67, -2.5)" class="sprotty-port" style="fill:rgb(48, 48, 48);stroke:rgb(48, 48, 48);"/><text class="clickable sprotty-label port" id="sprotty_ArchitectureBlockImpl$prim_clock_buf/GenerateStatementBlockImpl$null2/InstantiationBlockImpl$u_impl_generic/BPortImpl$clk_o/label" transform="translate(-36.15625, -9) translate(15.078125, 14)" style="cursor:default;font-size:12px;perspective-origin:0px 0px;fill:rgb(48, 48, 48);text-anchor:middle;">clk_o</text></g></g><g id="sprotty_ArchitectureBlockImpl$prim_clock_buf/GenerateStatementBlockImpl$null2/InstantiationBlockImpl$u_impl_xilinx" transform="translate(50.3671875, 91)" class="instantiation"><g class="sprotty-block" style="fill:rgb(255, 255, 255);stroke:rgb(48, 48, 48);stroke-dasharray:0px;"><rect x="0" y="0" rx="1" ry="1" width="304.34375" height="56"/><text x="152.171875" y="12" class="sprotty-block-name" style="cursor:pointer;font-weight:700;perspective-origin:152.703px 0px;fill:rgb(48, 48, 48);stroke:rgba(0, 0, 0, 0);dominant-baseline:middle;text-anchor:middle;">u_impl_xilinx : prim_xilinx_clock_buf</text><line x1="0" y1="20" x2="304.34375" y2="20"/></g><g id="sprotty_ArchitectureBlockImpl$prim_clock_buf/GenerateStatementBlockImpl$null2/InstantiationBlockImpl$u_impl_xilinx/BPortImpl$clk_i" transform="translate(0, 38)" class="triangle"><path d="M 0,0 L 5,2.5 L 0,5 Z" transform="translate(-1.67, -2.5)" class="sprotty-port" style="fill:rgb(48, 48, 48);stroke:rgb(48, 48, 48);"/><text class="clickable sprotty-label port" id="sprotty_ArchitectureBlockImpl$prim_clock_buf/GenerateStatementBlockImpl$null2/InstantiationBlockImpl$u_impl_xilinx/BPortImpl$clk_i/label" transform="translate(6, -9) translate(13.09375, 14)" style="cursor:default;font-size:12px;perspective-origin:0px 0px;fill:rgb(48, 48, 48);text-anchor:middle;">clk_i</text></g><g id="sprotty_ArchitectureBlockImpl$prim_clock_buf/GenerateStatementBlockImpl$null2/InstantiationBlockImpl$u_impl_xilinx/BPortImpl$clk_o" transform="translate(304.34375, 38)" class="triangle"><path d="M 0,0 L 5,2.5 L 0,5 Z" transform="translate(-1.67, -2.5)" class="sprotty-port" style="fill:rgb(48, 48, 48);stroke:rgb(48, 48, 48);"/><text class="clickable sprotty-label port" id="sprotty_ArchitectureBlockImpl$prim_clock_buf/GenerateStatementBlockImpl$null2/InstantiationBlockImpl$u_impl_xilinx/BPortImpl$clk_o/label" transform="translate(-36.15625, -9) translate(15.078125, 14)" style="cursor:default;font-size:12px;perspective-origin:0px 0px;fill:rgb(48, 48, 48);text-anchor:middle;">clk_o</text></g></g><g id="sprotty_ArchitectureBlockImpl$prim_clock_buf/GenerateStatementBlockImpl$null2/GPortImpl$clk_i" transform="translate(0, 53)" class="triangle"><path d="M 0,0 L 5,2.5 L 0,5 Z" transform="translate(-1.67, -2.5)" class="sprotty-port" style="fill:rgb(48, 48, 48);stroke:rgb(48, 48, 48);"/></g><g id="sprotty_ArchitectureBlockImpl$prim_clock_buf/GenerateStatementBlockImpl$null2/GPortImpl$clk_o" transform="translate(405.078125, 53)" class="triangle"><path d="M 0,0 L 5,2.5 L 0,5 Z" transform="translate(-1.67, -2.5)" class="sprotty-port" style="fill:rgb(48, 48, 48);stroke:rgb(48, 48, 48);"/></g></g><g id="sprotty_ArchitectureBlockImpl$prim_clock_buf/BPortImpl$clk_i" transform="translate(0, 88)" class="triangle"><path d="M 0,0 L 5,2.5 L 0,5 Z" transform="translate(-1.67, -2.5)" class="sprotty-port" style="fill:rgb(48, 48, 48);stroke:rgb(48, 48, 48);"/><text class="clickable sprotty-label port" id="sprotty_ArchitectureBlockImpl$prim_clock_buf/BPortImpl$clk_i/label" transform="translate(6, 6) translate(13.09375, 14)" style="cursor:default;font-size:12px;perspective-origin:0px 0px;fill:rgb(48, 48, 48);text-anchor:middle;">clk_i</text></g><g id="sprotty_ArchitectureBlockImpl$prim_clock_buf/BPortImpl$clk_o" transform="translate(503.421875, 88)" class="triangle"><path d="M 0,0 L 5,2.5 L 0,5 Z" transform="translate(-1.67, -2.5)" class="sprotty-port" style="fill:rgb(48, 48, 48);stroke:rgb(48, 48, 48);"/><text class="clickable sprotty-label port" id="sprotty_ArchitectureBlockImpl$prim_clock_buf/BPortImpl$clk_o/label" transform="translate(-36.15625, 6) translate(15.078125, 14)" style="cursor:default;font-size:12px;perspective-origin:0px 0px;fill:rgb(48, 48, 48);text-anchor:middle;">clk_o</text></g></g></g></svg>