<svg xmlns="http://www.w3.org/2000/svg" id="sprotty_work.alert" class="sprotty-graph sprotty-block-diagram blockdiagram" style="font-family:&quot;Noto Sans&quot;, Helvetica, Arial, sans-serif;perspective-origin:0px 0px;transform-origin:0px 0px;" version="1.1" viewBox="7 7 507.078125 350" width="507.078125" height="350"><g transform="scale(1) translate(0,0)"><g id="sprotty_ArchitectureBlockImpl$alert" transform="translate(12, 12)" class="architecture"><g class="sprotty-block" style="fill:rgb(255, 255, 255);stroke:rgb(48, 48, 48);stroke-dasharray:0px;"><rect x="0" y="0" rx="1" ry="1" width="497.078125" height="340"/><text x="248.5390625" y="12" class="sprotty-block-name" style="cursor:pointer;font-weight:700;perspective-origin:248.672px 0px;fill:rgb(48, 48, 48);stroke:rgba(0, 0, 0, 0);dominant-baseline:middle;text-anchor:middle;">alert</text><line x1="0" y1="20" x2="497.078125" y2="20"/></g><g id="sprotty_ArchitectureBlockImpl$alert/AssignmentBlockImpl$alert_req_o.p/GPortImpl$alert_req_oOUT_to_ArchitectureBlockImpl$alert/BPortImpl$alert_req_o" class="sprotty-edge thick edge" style="fill:none;stroke:rgb(112, 112, 112);stroke-linejoin:round;stroke-width:3px;"><g><path d="M 390.734375 80 L 497.078125 80 "/><path d="M 390.734375 80 L 497.078125 80 " class="clickable"/></g></g><g id="sprotty_ArchitectureBlockImpl$alert/AssignmentBlockImpl$alert_req_o.n/GPortImpl$alert_req_oOUT_to_ArchitectureBlockImpl$alert/BPortImpl$alert_req_o" class="sprotty-edge thick edge" style="fill:none;stroke:rgb(112, 112, 112);stroke-linejoin:round;stroke-width:3px;"><g><path d="M 390.734375 252 L 398.734375 252 C 399.734375 252 400.734375 251 400.734375 250 L 400.734375 82 C 400.734375 81 401.734375 80 402.734375 80 L 497.078125 80 "/><path d="M 390.734375 252 L 398.734375 252 C 399.734375 252 400.734375 251 400.734375 250 L 400.734375 82 C 400.734375 81 401.734375 80 402.734375 80 L 497.078125 80 " class="clickable"/></g><circle r="3" id="sprotty_ArchitectureBlockImpl$alert/AssignmentBlockImpl$alert_req_o.n/GPortImpl$alert_req_oOUT_to_ArchitectureBlockImpl$alert/BPortImpl$alert_req_o/junction0" transform="translate(400.734375, 80)" class="sprotty-junction thick" style="fill:rgb(112, 112, 112);stroke:none;"/></g><g id="sprotty_ArchitectureBlockImpl$alert/BPortImpl$alert_in_i_to_ArchitectureBlockImpl$alert/AssignmentBlockImpl$alert_in_p/GPortImpl$alert_in_iIN" class="sprotty-edge thick edge" style="fill:none;stroke:rgb(112, 112, 112);stroke-linejoin:round;stroke-width:3px;"><g><path d="M 0 162 L 103.25 162 "/><path d="M 0 162 L 103.25 162 " class="clickable"/></g></g><g id="sprotty_ArchitectureBlockImpl$alert/BPortImpl$alert_in_i_to_ArchitectureBlockImpl$alert/AssignmentBlockImpl$alert_in_n/GPortImpl$alert_in_iIN" class="sprotty-edge thick edge" style="fill:none;stroke:rgb(112, 112, 112);stroke-linejoin:round;stroke-width:3px;"><g><path d="M 0 162 L 91.25 162 C 92.25 162 93.25 163 93.25 164 L 93.25 202 C 93.25 203 94.25 204 95.25 204 L 103.25 204 "/><path d="M 0 162 L 91.25 162 C 92.25 162 93.25 163 93.25 164 L 93.25 202 C 93.25 203 94.25 204 95.25 204 L 103.25 204 " class="clickable"/></g><circle r="3" id="sprotty_ArchitectureBlockImpl$alert/BPortImpl$alert_in_i_to_ArchitectureBlockImpl$alert/AssignmentBlockImpl$alert_in_n/GPortImpl$alert_in_iIN/junction0" transform="translate(93.25, 162)" class="sprotty-junction thick" style="fill:rgb(112, 112, 112);stroke:none;"/></g><g id="sprotty_ArchitectureBlockImpl$alert/BPortImpl$alert_trig_i_to_ArchitectureBlockImpl$alert/AssignmentBlockImpl$alert_trig_p/GPortImpl$alert_trig_iIN" class="sprotty-edge thick edge" style="fill:none;stroke:rgb(112, 112, 112);stroke-linejoin:round;stroke-width:3px;"><g><path d="M 0 70 L 103.25 70 "/><path d="M 0 70 L 103.25 70 " class="clickable"/></g></g><g id="sprotty_ArchitectureBlockImpl$alert/BPortImpl$alert_trig_i_to_ArchitectureBlockImpl$alert/AssignmentBlockImpl$alert_trig_n/GPortImpl$alert_trig_iIN" class="sprotty-edge thick edge" style="fill:none;stroke:rgb(112, 112, 112);stroke-linejoin:round;stroke-width:3px;"><g><path d="M 0 70 L 91.25 70 C 92.25 70 93.25 71 93.25 72 L 93.25 118 C 93.25 119 94.25 120 95.25 120 L 103.25 120 "/><path d="M 0 70 L 91.25 70 C 92.25 70 93.25 71 93.25 72 L 93.25 118 C 93.25 119 94.25 120 95.25 120 L 103.25 120 " class="clickable"/></g><circle r="3" id="sprotty_ArchitectureBlockImpl$alert/BPortImpl$alert_trig_i_to_ArchitectureBlockImpl$alert/AssignmentBlockImpl$alert_trig_n/GPortImpl$alert_trig_iIN/junction0" transform="translate(93.25, 70)" class="sprotty-junction thick" style="fill:rgb(112, 112, 112);stroke:none;"/></g><g id="sprotty_ArchitectureBlockImpl$alert/BPortImpl$alert_ack_i_to_ArchitectureBlockImpl$alert/AssignmentBlockImpl$alert_ack_p/GPortImpl$alert_ack_iIN" class="sprotty-edge thick edge" style="fill:none;stroke:rgb(112, 112, 112);stroke-linejoin:round;stroke-width:3px;"><g><path d="M 0 226 L 152.96875 226 "/><path d="M 0 226 L 152.96875 226 " class="clickable"/></g></g><g id="sprotty_ArchitectureBlockImpl$alert/BPortImpl$alert_ack_i_to_ArchitectureBlockImpl$alert/AssignmentBlockImpl$alert_ack_n/GPortImpl$alert_ack_iIN" class="sprotty-edge thick edge" style="fill:none;stroke:rgb(112, 112, 112);stroke-linejoin:round;stroke-width:3px;"><g><path d="M 0 226 L 130.96875 226 C 131.96875 226 132.96875 227 132.96875 228 L 132.96875 277 C 132.96875 278 133.96875 279 134.96875 279 L 152.96875 279 "/><path d="M 0 226 L 130.96875 226 C 131.96875 226 132.96875 227 132.96875 228 L 132.96875 277 C 132.96875 278 133.96875 279 134.96875 279 L 152.96875 279 " class="clickable"/></g><circle r="3" id="sprotty_ArchitectureBlockImpl$alert/BPortImpl$alert_ack_i_to_ArchitectureBlockImpl$alert/AssignmentBlockImpl$alert_ack_n/GPortImpl$alert_ack_iIN/junction0" transform="translate(132.96875, 226)" class="sprotty-junction thick" style="fill:rgb(112, 112, 112);stroke:none;"/></g><g id="sprotty_ArchitectureBlockImpl$alert/BPortImpl$clk_i_to_ArchitectureBlockImpl$alert/AlwaysBlockImpl$null7/GPortImpl$clk_iIN" class="sprotty-edge edge" style="fill:none;stroke:rgb(112, 112, 112);stroke-linejoin:round;"><g><path d="M 0 301 L 240.40625 301 C 241.40625 301 242.40625 300 242.40625 299 L 242.40625 97 C 242.40625 96 243.40625 95 244.40625 95 L 262.40625 95 "/><path d="M 0 301 L 240.40625 301 C 241.40625 301 242.40625 300 242.40625 299 L 242.40625 97 C 242.40625 96 243.40625 95 244.40625 95 L 262.40625 95 " class="clickable"/></g></g><g id="sprotty_ArchitectureBlockImpl$alert/BPortImpl$rst_ni_to_ArchitectureBlockImpl$alert/AlwaysBlockImpl$null7/GPortImpl$rst_niIN" class="sprotty-edge edge" style="fill:none;stroke:rgb(112, 112, 112);stroke-linejoin:round;"><g><path d="M 0 36 L 250.40625 36 C 251.40625 36 252.40625 37 252.40625 38 L 252.40625 63 C 252.40625 64 253.40625 65 254.40625 65 L 262.40625 65 "/><path d="M 0 36 L 250.40625 36 C 251.40625 36 252.40625 37 252.40625 38 L 252.40625 63 C 252.40625 64 253.40625 65 254.40625 65 L 262.40625 65 " class="clickable"/></g><circle r="2" id="sprotty_ArchitectureBlockImpl$alert/BPortImpl$rst_ni_to_ArchitectureBlockImpl$alert/AlwaysBlockImpl$null7/GPortImpl$rst_niIN/junction0" transform="translate(252.40625, 65)" class="sprotty-junction junction" style="fill:rgb(112, 112, 112);stroke:none;"/></g><g id="sprotty_ArchitectureBlockImpl$alert/BPortImpl$clk_i_to_ArchitectureBlockImpl$alert/AlwaysBlockImpl$null6/GPortImpl$clk_iIN" class="sprotty-edge edge" style="fill:none;stroke:rgb(112, 112, 112);stroke-linejoin:round;"><g><path d="M 0 301 L 240.40625 301 C 241.40625 301 242.40625 300 242.40625 299 L 242.40625 269 C 242.40625 268 243.40625 267 244.40625 267 L 262.40625 267 "/><path d="M 0 301 L 240.40625 301 C 241.40625 301 242.40625 300 242.40625 299 L 242.40625 269 C 242.40625 268 243.40625 267 244.40625 267 L 262.40625 267 " class="clickable"/></g><circle r="2" id="sprotty_ArchitectureBlockImpl$alert/BPortImpl$clk_i_to_ArchitectureBlockImpl$alert/AlwaysBlockImpl$null6/GPortImpl$clk_iIN/junction0" transform="translate(242.40625, 267)" class="sprotty-junction junction" style="fill:rgb(112, 112, 112);stroke:none;"/></g><g id="sprotty_ArchitectureBlockImpl$alert/BPortImpl$rst_ni_to_ArchitectureBlockImpl$alert/AlwaysBlockImpl$null6/GPortImpl$rst_niIN" class="sprotty-edge edge" style="fill:none;stroke:rgb(112, 112, 112);stroke-linejoin:round;"><g><path d="M 0 36 L 250.40625 36 C 251.40625 36 252.40625 37 252.40625 38 L 252.40625 235 C 252.40625 236 253.40625 237 254.40625 237 L 262.40625 237 "/><path d="M 0 36 L 250.40625 36 C 251.40625 36 252.40625 37 252.40625 38 L 252.40625 235 C 252.40625 236 253.40625 237 254.40625 237 L 262.40625 237 " class="clickable"/></g></g><g id="sprotty_ArchitectureBlockImpl$alert/AssignmentBlockImpl$alert_in_p/GPortImpl$alert_in_pOUT_to_ArchitectureBlockImpl$alert/AssignmentBlockImpl$set_alert_p/GPortImpl$alert_in_pIN" class="sprotty-edge edge" style="fill:none;stroke:rgb(112, 112, 112);stroke-linejoin:round;"><g><path d="M 122.96875 162 L 130.96875 162 C 131.96875 162 132.96875 161 132.96875 160 L 132.96875 82 C 132.96875 81 133.96875 80 134.96875 80 L 152.96875 80 "/><path d="M 122.96875 162 L 130.96875 162 C 131.96875 162 132.96875 161 132.96875 160 L 132.96875 82 C 132.96875 81 133.96875 80 134.96875 80 L 152.96875 80 " class="clickable"/></g></g><g id="sprotty_ArchitectureBlockImpl$alert/AssignmentBlockImpl$alert_in_n/GPortImpl$alert_in_nOUT_to_ArchitectureBlockImpl$alert/AssignmentBlockImpl$set_alert_n/GPortImpl$alert_in_nIN" class="sprotty-edge edge" style="fill:none;stroke:rgb(112, 112, 112);stroke-linejoin:round;"><g><path d="M 122.96875 204 L 140.96875 204 C 141.96875 204 142.96875 203 142.96875 202 L 142.96875 132 C 142.96875 131 143.96875 130 144.96875 130 L 152.96875 130 "/><path d="M 122.96875 204 L 140.96875 204 C 141.96875 204 142.96875 203 142.96875 202 L 142.96875 132 C 142.96875 131 143.96875 130 144.96875 130 L 152.96875 130 " class="clickable"/></g></g><g id="sprotty_ArchitectureBlockImpl$alert/AssignmentBlockImpl$alert_trig_p/GPortImpl$alert_trig_pOUT_to_ArchitectureBlockImpl$alert/AssignmentBlockImpl$set_alert_p/GPortImpl$alert_trig_pIN" class="sprotty-edge edge" style="fill:none;stroke:rgb(112, 112, 112);stroke-linejoin:round;"><g><path d="M 122.96875 70 L 152.96875 70 "/><path d="M 122.96875 70 L 152.96875 70 " class="clickable"/></g></g><g id="sprotty_ArchitectureBlockImpl$alert/AssignmentBlockImpl$alert_trig_n/GPortImpl$alert_trig_nOUT_to_ArchitectureBlockImpl$alert/AssignmentBlockImpl$set_alert_n/GPortImpl$alert_trig_nIN" class="sprotty-edge edge" style="fill:none;stroke:rgb(112, 112, 112);stroke-linejoin:round;"><g><path d="M 122.96875 120 L 152.96875 120 "/><path d="M 122.96875 120 L 152.96875 120 " class="clickable"/></g></g><g id="sprotty_ArchitectureBlockImpl$alert/AssignmentBlockImpl$alert_ack_p/GPortImpl$alert_ack_pOUT_to_ArchitectureBlockImpl$alert/AssignmentBlockImpl$clr_alert_p/GPortImpl$alert_ack_pIN" class="sprotty-edge edge" style="fill:none;stroke:rgb(112, 112, 112);stroke-linejoin:round;"><g><path d="M 172.6875 226 L 202.6875 226 "/><path d="M 172.6875 226 L 202.6875 226 " class="clickable"/></g></g><g id="sprotty_ArchitectureBlockImpl$alert/AssignmentBlockImpl$alert_ack_n/GPortImpl$alert_ack_nOUT_to_ArchitectureBlockImpl$alert/AssignmentBlockImpl$clr_alert_n/GPortImpl$alert_ack_nIN" class="sprotty-edge edge" style="fill:none;stroke:rgb(112, 112, 112);stroke-linejoin:round;"><g><path d="M 172.6875 279 L 202.6875 279 "/><path d="M 172.6875 279 L 202.6875 279 " class="clickable"/></g></g><g id="sprotty_ArchitectureBlockImpl$alert/AssignmentBlockImpl$alert_req_p/GPortImpl$alert_pOUT_to_ArchitectureBlockImpl$alert/AssignmentBlockImpl$alert_req_o.p/GPortImpl$alert_req_pIN" class="sprotty-edge edge" style="fill:none;stroke:rgb(112, 112, 112);stroke-linejoin:round;"><g><path d="M 351.015625 80 L 371.015625 80 "/><path d="M 351.015625 80 L 371.015625 80 " class="clickable"/></g></g><g id="sprotty_ArchitectureBlockImpl$alert/AssignmentBlockImpl$alert_req_n/GPortImpl$alert_nOUT_to_ArchitectureBlockImpl$alert/AssignmentBlockImpl$alert_req_o.n/GPortImpl$alert_req_nIN" class="sprotty-edge edge" style="fill:none;stroke:rgb(112, 112, 112);stroke-linejoin:round;"><g><path d="M 351.015625 252 L 371.015625 252 "/><path d="M 351.015625 252 L 371.015625 252 " class="clickable"/></g></g><g id="sprotty_ArchitectureBlockImpl$alert/AlwaysBlockImpl$null7/GPortImpl$alert_pOUT_to_ArchitectureBlockImpl$alert/AssignmentBlockImpl$alert_req_p/GPortImpl$alert_pIN" class="sprotty-edge edge" style="fill:none;stroke:rgb(112, 112, 112);stroke-linejoin:round;"><g><path d="M 311.296875 80 L 331.296875 80 "/><path d="M 311.296875 80 L 331.296875 80 " class="clickable"/></g></g><g id="sprotty_ArchitectureBlockImpl$alert/AssignmentBlockImpl$set_alert_p/GPortImpl$alert_trig_pOUT_to_ArchitectureBlockImpl$alert/AssignmentBlockImpl$clr_alert_p/GPortImpl$set_alert_pIN" class="sprotty-edge edge" style="fill:none;stroke:rgb(112, 112, 112);stroke-linejoin:round;"><g><path d="M 172.6875 75 L 190.6875 75 C 191.6875 75 192.6875 76 192.6875 77 L 192.6875 214 C 192.6875 215 193.6875 216 194.6875 216 L 202.6875 216 "/><path d="M 172.6875 75 L 190.6875 75 C 191.6875 75 192.6875 76 192.6875 77 L 192.6875 214 C 192.6875 215 193.6875 216 194.6875 216 L 202.6875 216 " class="clickable"/></g><circle r="2" id="sprotty_ArchitectureBlockImpl$alert/AssignmentBlockImpl$set_alert_p/GPortImpl$alert_trig_pOUT_to_ArchitectureBlockImpl$alert/AssignmentBlockImpl$clr_alert_p/GPortImpl$set_alert_pIN/junction0" transform="translate(192.6875, 75)" class="sprotty-junction junction" style="fill:rgb(112, 112, 112);stroke:none;"/></g><g id="sprotty_ArchitectureBlockImpl$alert/AssignmentBlockImpl$set_alert_p/GPortImpl$alert_trig_pOUT_to_ArchitectureBlockImpl$alert/AlwaysBlockImpl$null7/GPortImpl$set_alert_pIN" class="sprotty-edge edge" style="fill:none;stroke:rgb(112, 112, 112);stroke-linejoin:round;"><g><path d="M 172.6875 75 L 262.40625 75 "/><path d="M 172.6875 75 L 262.40625 75 " class="clickable"/></g></g><g id="sprotty_ArchitectureBlockImpl$alert/AssignmentBlockImpl$clr_alert_p/GPortImpl$alert_ack_pOUT_to_ArchitectureBlockImpl$alert/AlwaysBlockImpl$null7/GPortImpl$clr_alert_pIN" class="sprotty-edge edge" style="fill:none;stroke:rgb(112, 112, 112);stroke-linejoin:round;"><g><path d="M 222.40625 221 L 230.40625 221 C 231.40625 221 232.40625 220 232.40625 219 L 232.40625 87 C 232.40625 86 233.40625 85 234.40625 85 L 262.40625 85 "/><path d="M 222.40625 221 L 230.40625 221 C 231.40625 221 232.40625 220 232.40625 219 L 232.40625 87 C 232.40625 86 233.40625 85 234.40625 85 L 262.40625 85 " class="clickable"/></g></g><g id="sprotty_ArchitectureBlockImpl$alert/AlwaysBlockImpl$null6/GPortImpl$alert_nOUT_to_ArchitectureBlockImpl$alert/AssignmentBlockImpl$alert_req_n/GPortImpl$alert_nIN" class="sprotty-edge edge" style="fill:none;stroke:rgb(112, 112, 112);stroke-linejoin:round;"><g><path d="M 311.296875 252 L 331.296875 252 "/><path d="M 311.296875 252 L 331.296875 252 " class="clickable"/></g></g><g id="sprotty_ArchitectureBlockImpl$alert/AssignmentBlockImpl$set_alert_n/GPortImpl$alert_trig_nOUT_to_ArchitectureBlockImpl$alert/AssignmentBlockImpl$clr_alert_n/GPortImpl$set_alert_nIN" class="sprotty-edge edge" style="fill:none;stroke:rgb(112, 112, 112);stroke-linejoin:round;"><g><path d="M 172.6875 125 L 180.6875 125 C 181.6875 125 182.6875 126 182.6875 127 L 182.6875 267 C 182.6875 268 183.6875 269 184.6875 269 L 202.6875 269 "/><path d="M 172.6875 125 L 180.6875 125 C 181.6875 125 182.6875 126 182.6875 127 L 182.6875 267 C 182.6875 268 183.6875 269 184.6875 269 L 202.6875 269 " class="clickable"/></g></g><g id="sprotty_ArchitectureBlockImpl$alert/AssignmentBlockImpl$set_alert_n/GPortImpl$alert_trig_nOUT_to_ArchitectureBlockImpl$alert/AlwaysBlockImpl$null6/GPortImpl$set_alert_nIN" class="sprotty-edge edge" style="fill:none;stroke:rgb(112, 112, 112);stroke-linejoin:round;"><g><path d="M 172.6875 125 L 180.6875 125 C 181.6875 125 182.6875 126 182.6875 127 L 182.6875 245 C 182.6875 246 183.6875 247 184.6875 247 L 262.40625 247 "/><path d="M 172.6875 125 L 180.6875 125 C 181.6875 125 182.6875 126 182.6875 127 L 182.6875 245 C 182.6875 246 183.6875 247 184.6875 247 L 262.40625 247 " class="clickable"/></g><circle r="2" id="sprotty_ArchitectureBlockImpl$alert/AssignmentBlockImpl$set_alert_n/GPortImpl$alert_trig_nOUT_to_ArchitectureBlockImpl$alert/AlwaysBlockImpl$null6/GPortImpl$set_alert_nIN/junction0" transform="translate(182.6875, 247)" class="sprotty-junction junction" style="fill:rgb(112, 112, 112);stroke:none;"/></g><g id="sprotty_ArchitectureBlockImpl$alert/AssignmentBlockImpl$clr_alert_n/GPortImpl$alert_ack_nOUT_to_ArchitectureBlockImpl$alert/AlwaysBlockImpl$null6/GPortImpl$clr_alert_nIN" class="sprotty-edge edge" style="fill:none;stroke:rgb(112, 112, 112);stroke-linejoin:round;"><g><path d="M 222.40625 274 L 230.40625 274 C 231.40625 274 232.40625 273 232.40625 272 L 232.40625 259 C 232.40625 258 233.40625 257 234.40625 257 L 262.40625 257 "/><path d="M 222.40625 274 L 230.40625 274 C 231.40625 274 232.40625 273 232.40625 272 L 232.40625 259 C 232.40625 258 233.40625 257 234.40625 257 L 262.40625 257 " class="clickable"/></g></g><g id="sprotty_ArchitectureBlockImpl$alert/AlwaysBlockImpl$null6" transform="translate(262.40625, 227)" class="statement"><rect x="0" y="0" rx="10" ry="5" width="48.890625" height="50" class="sprotty-node" style="fill:rgb(245, 245, 245);stroke:rgb(112, 112, 112);"/><text class="clickable sprotty-label statementtype" id="sprotty_ArchitectureBlockImpl$alert/AlwaysBlockImpl$null6/labeltype" transform="translate(5, 19) translate(18.828125, 9)" style="cursor:default;font-size:8px;font-weight:700;perspective-origin:0.609375px 0px;fill:rgb(112, 112, 112);text-anchor:middle;">always_ff</text><g id="sprotty_ArchitectureBlockImpl$alert/AlwaysBlockImpl$null6/GPortImpl$clr_alert_nIN" transform="translate(0, 30)" class="sprotty-hidden hidden" style="display:block;height:0px;width:0px;"/><g id="sprotty_ArchitectureBlockImpl$alert/AlwaysBlockImpl$null6/GPortImpl$set_alert_nIN" transform="translate(0, 20)" class="sprotty-hidden hidden" style="display:block;height:0px;width:0px;"/><g id="sprotty_ArchitectureBlockImpl$alert/AlwaysBlockImpl$null6/GPortImpl$rst_niIN" transform="translate(0, 10)" class="sprotty-hidden hidden" style="display:block;height:0px;width:0px;"/><g id="sprotty_ArchitectureBlockImpl$alert/AlwaysBlockImpl$null6/GPortImpl$clk_iIN" transform="translate(0, 40)" class="sprotty-hidden hidden" style="display:block;height:0px;width:0px;"/><g id="sprotty_ArchitectureBlockImpl$alert/AlwaysBlockImpl$null6/GPortImpl$alert_nOUT" transform="translate(48.890625, 25)" class="sprotty-hidden hidden" style="display:block;height:0px;width:0px;"/></g><g id="sprotty_ArchitectureBlockImpl$alert/AlwaysBlockImpl$null7" transform="translate(262.40625, 55)" class="statement"><rect x="0" y="0" rx="10" ry="5" width="48.890625" height="50" class="sprotty-node" style="fill:rgb(245, 245, 245);stroke:rgb(112, 112, 112);"/><text class="clickable sprotty-label statementtype" id="sprotty_ArchitectureBlockImpl$alert/AlwaysBlockImpl$null7/labeltype" transform="translate(5, 19) translate(18.828125, 9)" style="cursor:default;font-size:8px;font-weight:700;perspective-origin:0.609375px 0px;fill:rgb(112, 112, 112);text-anchor:middle;">always_ff</text><g id="sprotty_ArchitectureBlockImpl$alert/AlwaysBlockImpl$null7/GPortImpl$clr_alert_pIN" transform="translate(0, 30)" class="sprotty-hidden hidden" style="display:block;height:0px;width:0px;"/><g id="sprotty_ArchitectureBlockImpl$alert/AlwaysBlockImpl$null7/GPortImpl$set_alert_pIN" transform="translate(0, 20)" class="sprotty-hidden hidden" style="display:block;height:0px;width:0px;"/><g id="sprotty_ArchitectureBlockImpl$alert/AlwaysBlockImpl$null7/GPortImpl$rst_niIN" transform="translate(0, 10)" class="sprotty-hidden hidden" style="display:block;height:0px;width:0px;"/><g id="sprotty_ArchitectureBlockImpl$alert/AlwaysBlockImpl$null7/GPortImpl$clk_iIN" transform="translate(0, 40)" class="sprotty-hidden hidden" style="display:block;height:0px;width:0px;"/><g id="sprotty_ArchitectureBlockImpl$alert/AlwaysBlockImpl$null7/GPortImpl$alert_pOUT" transform="translate(48.890625, 25)" class="sprotty-hidden hidden" style="display:block;height:0px;width:0px;"/></g><g id="sprotty_ArchitectureBlockImpl$alert/AssignmentBlockImpl$alert_req_n" transform="translate(331.296875, 241)" class="statement"><rect x="0" y="0" rx="10" ry="5" width="19.71875" height="22" class="sprotty-node" style="fill:rgb(245, 245, 245);stroke:rgb(112, 112, 112);"/><text class="clickable sprotty-label statementtype" id="sprotty_ArchitectureBlockImpl$alert/AssignmentBlockImpl$alert_req_n/labeltype" transform="translate(5, 5) translate(4.71875, 9)" style="cursor:default;font-size:8px;font-weight:700;perspective-origin:0.140625px 0px;fill:rgb(112, 112, 112);text-anchor:middle;">&lt;=</text><g id="sprotty_ArchitectureBlockImpl$alert/AssignmentBlockImpl$alert_req_n/GPortImpl$alert_nIN" transform="translate(0, 11)" class="sprotty-hidden hidden" style="display:block;height:0px;width:0px;"/><g id="sprotty_ArchitectureBlockImpl$alert/AssignmentBlockImpl$alert_req_n/GPortImpl$alert_nOUT" transform="translate(19.71875, 11)" class="sprotty-hidden hidden" style="display:block;height:0px;width:0px;"/></g><g id="sprotty_ArchitectureBlockImpl$alert/AssignmentBlockImpl$clr_alert_n" transform="translate(202.6875, 259)" class="statement"><rect x="0" y="0" rx="10" ry="5" width="19.71875" height="30" class="sprotty-node" style="fill:rgb(245, 245, 245);stroke:rgb(112, 112, 112);"/><text class="clickable sprotty-label statementtype" id="sprotty_ArchitectureBlockImpl$alert/AssignmentBlockImpl$clr_alert_n/labeltype" transform="translate(5, 9) translate(4.71875, 9)" style="cursor:default;font-size:8px;font-weight:700;perspective-origin:0.140625px 0px;fill:rgb(112, 112, 112);text-anchor:middle;">&lt;=</text><g id="sprotty_ArchitectureBlockImpl$alert/AssignmentBlockImpl$clr_alert_n/GPortImpl$alert_ack_nIN" transform="translate(0, 20)" class="sprotty-hidden hidden" style="display:block;height:0px;width:0px;"/><g id="sprotty_ArchitectureBlockImpl$alert/AssignmentBlockImpl$clr_alert_n/GPortImpl$set_alert_nIN" transform="translate(0, 10)" class="sprotty-hidden hidden" style="display:block;height:0px;width:0px;"/><g id="sprotty_ArchitectureBlockImpl$alert/AssignmentBlockImpl$clr_alert_n/GPortImpl$alert_ack_nOUT" transform="translate(19.71875, 15)" class="sprotty-hidden hidden" style="display:block;height:0px;width:0px;"/></g><g id="sprotty_ArchitectureBlockImpl$alert/AssignmentBlockImpl$set_alert_n" transform="translate(152.96875, 110)" class="statement"><rect x="0" y="0" rx="10" ry="5" width="19.71875" height="30" class="sprotty-node" style="fill:rgb(245, 245, 245);stroke:rgb(112, 112, 112);"/><text class="clickable sprotty-label statementtype" id="sprotty_ArchitectureBlockImpl$alert/AssignmentBlockImpl$set_alert_n/labeltype" transform="translate(5, 9) translate(4.71875, 9)" style="cursor:default;font-size:8px;font-weight:700;perspective-origin:0.140625px 0px;fill:rgb(112, 112, 112);text-anchor:middle;">&lt;=</text><g id="sprotty_ArchitectureBlockImpl$alert/AssignmentBlockImpl$set_alert_n/GPortImpl$alert_trig_nIN" transform="translate(0, 10)" class="sprotty-hidden hidden" style="display:block;height:0px;width:0px;"/><g id="sprotty_ArchitectureBlockImpl$alert/AssignmentBlockImpl$set_alert_n/GPortImpl$alert_in_nIN" transform="translate(0, 20)" class="sprotty-hidden hidden" style="display:block;height:0px;width:0px;"/><g id="sprotty_ArchitectureBlockImpl$alert/AssignmentBlockImpl$set_alert_n/GPortImpl$alert_trig_nOUT" transform="translate(19.71875, 15)" class="sprotty-hidden hidden" style="display:block;height:0px;width:0px;"/></g><g id="sprotty_ArchitectureBlockImpl$alert/AssignmentBlockImpl$alert_req_p" transform="translate(331.296875, 69)" class="statement"><rect x="0" y="0" rx="10" ry="5" width="19.71875" height="22" class="sprotty-node" style="fill:rgb(245, 245, 245);stroke:rgb(112, 112, 112);"/><text class="clickable sprotty-label statementtype" id="sprotty_ArchitectureBlockImpl$alert/AssignmentBlockImpl$alert_req_p/labeltype" transform="translate(5, 5) translate(4.71875, 9)" style="cursor:default;font-size:8px;font-weight:700;perspective-origin:0.140625px 0px;fill:rgb(112, 112, 112);text-anchor:middle;">&lt;=</text><g id="sprotty_ArchitectureBlockImpl$alert/AssignmentBlockImpl$alert_req_p/GPortImpl$alert_pIN" transform="translate(0, 11)" class="sprotty-hidden hidden" style="display:block;height:0px;width:0px;"/><g id="sprotty_ArchitectureBlockImpl$alert/AssignmentBlockImpl$alert_req_p/GPortImpl$alert_pOUT" transform="translate(19.71875, 11)" class="sprotty-hidden hidden" style="display:block;height:0px;width:0px;"/></g><g id="sprotty_ArchitectureBlockImpl$alert/AssignmentBlockImpl$clr_alert_p" transform="translate(202.6875, 206)" class="statement"><rect x="0" y="0" rx="10" ry="5" width="19.71875" height="30" class="sprotty-node" style="fill:rgb(245, 245, 245);stroke:rgb(112, 112, 112);"/><text class="clickable sprotty-label statementtype" id="sprotty_ArchitectureBlockImpl$alert/AssignmentBlockImpl$clr_alert_p/labeltype" transform="translate(5, 9) translate(4.71875, 9)" style="cursor:default;font-size:8px;font-weight:700;perspective-origin:0.140625px 0px;fill:rgb(112, 112, 112);text-anchor:middle;">&lt;=</text><g id="sprotty_ArchitectureBlockImpl$alert/AssignmentBlockImpl$clr_alert_p/GPortImpl$alert_ack_pIN" transform="translate(0, 20)" class="sprotty-hidden hidden" style="display:block;height:0px;width:0px;"/><g id="sprotty_ArchitectureBlockImpl$alert/AssignmentBlockImpl$clr_alert_p/GPortImpl$set_alert_pIN" transform="translate(0, 10)" class="sprotty-hidden hidden" style="display:block;height:0px;width:0px;"/><g id="sprotty_ArchitectureBlockImpl$alert/AssignmentBlockImpl$clr_alert_p/GPortImpl$alert_ack_pOUT" transform="translate(19.71875, 15)" class="sprotty-hidden hidden" style="display:block;height:0px;width:0px;"/></g><g id="sprotty_ArchitectureBlockImpl$alert/AssignmentBlockImpl$set_alert_p" transform="translate(152.96875, 60)" class="statement"><rect x="0" y="0" rx="10" ry="5" width="19.71875" height="30" class="sprotty-node" style="fill:rgb(245, 245, 245);stroke:rgb(112, 112, 112);"/><text class="clickable sprotty-label statementtype" id="sprotty_ArchitectureBlockImpl$alert/AssignmentBlockImpl$set_alert_p/labeltype" transform="translate(5, 9) translate(4.71875, 9)" style="cursor:default;font-size:8px;font-weight:700;perspective-origin:0.140625px 0px;fill:rgb(112, 112, 112);text-anchor:middle;">&lt;=</text><g id="sprotty_ArchitectureBlockImpl$alert/AssignmentBlockImpl$set_alert_p/GPortImpl$alert_trig_pIN" transform="translate(0, 10)" class="sprotty-hidden hidden" style="display:block;height:0px;width:0px;"/><g id="sprotty_ArchitectureBlockImpl$alert/AssignmentBlockImpl$set_alert_p/GPortImpl$alert_in_pIN" transform="translate(0, 20)" class="sprotty-hidden hidden" style="display:block;height:0px;width:0px;"/><g id="sprotty_ArchitectureBlockImpl$alert/AssignmentBlockImpl$set_alert_p/GPortImpl$alert_trig_pOUT" transform="translate(19.71875, 15)" class="sprotty-hidden hidden" style="display:block;height:0px;width:0px;"/></g><g id="sprotty_ArchitectureBlockImpl$alert/AssignmentBlockImpl$alert_req_o.n" transform="translate(371.015625, 241)" class="statement"><rect x="0" y="0" rx="10" ry="5" width="19.71875" height="22" class="sprotty-node" style="fill:rgb(245, 245, 245);stroke:rgb(112, 112, 112);"/><text class="clickable sprotty-label statementtype" id="sprotty_ArchitectureBlockImpl$alert/AssignmentBlockImpl$alert_req_o.n/labeltype" transform="translate(5, 5) translate(4.71875, 9)" style="cursor:default;font-size:8px;font-weight:700;perspective-origin:0.140625px 0px;fill:rgb(112, 112, 112);text-anchor:middle;">&lt;=</text><g id="sprotty_ArchitectureBlockImpl$alert/AssignmentBlockImpl$alert_req_o.n/GPortImpl$alert_req_nIN" transform="translate(0, 11)" class="sprotty-hidden hidden" style="display:block;height:0px;width:0px;"/><g id="sprotty_ArchitectureBlockImpl$alert/AssignmentBlockImpl$alert_req_o.n/GPortImpl$alert_req_oOUT" transform="translate(19.71875, 11)" class="sprotty-hidden hidden" style="display:block;height:0px;width:0px;"/></g><g id="sprotty_ArchitectureBlockImpl$alert/AssignmentBlockImpl$alert_req_o.p" transform="translate(371.015625, 69)" class="statement"><rect x="0" y="0" rx="10" ry="5" width="19.71875" height="22" class="sprotty-node" style="fill:rgb(245, 245, 245);stroke:rgb(112, 112, 112);"/><text class="clickable sprotty-label statementtype" id="sprotty_ArchitectureBlockImpl$alert/AssignmentBlockImpl$alert_req_o.p/labeltype" transform="translate(5, 5) translate(4.71875, 9)" style="cursor:default;font-size:8px;font-weight:700;perspective-origin:0.140625px 0px;fill:rgb(112, 112, 112);text-anchor:middle;">&lt;=</text><g id="sprotty_ArchitectureBlockImpl$alert/AssignmentBlockImpl$alert_req_o.p/GPortImpl$alert_req_pIN" transform="translate(0, 11)" class="sprotty-hidden hidden" style="display:block;height:0px;width:0px;"/><g id="sprotty_ArchitectureBlockImpl$alert/AssignmentBlockImpl$alert_req_o.p/GPortImpl$alert_req_oOUT" transform="translate(19.71875, 11)" class="sprotty-hidden hidden" style="display:block;height:0px;width:0px;"/></g><g id="sprotty_ArchitectureBlockImpl$alert/AssignmentBlockImpl$alert_ack_n" transform="translate(152.96875, 268)" class="statement"><rect x="0" y="0" rx="10" ry="5" width="19.71875" height="22" class="sprotty-node" style="fill:rgb(245, 245, 245);stroke:rgb(112, 112, 112);"/><text class="clickable sprotty-label statementtype" id="sprotty_ArchitectureBlockImpl$alert/AssignmentBlockImpl$alert_ack_n/labeltype" transform="translate(5, 5) translate(4.71875, 9)" style="cursor:default;font-size:8px;font-weight:700;perspective-origin:0.140625px 0px;fill:rgb(112, 112, 112);text-anchor:middle;">&lt;=</text><g id="sprotty_ArchitectureBlockImpl$alert/AssignmentBlockImpl$alert_ack_n/GPortImpl$alert_ack_iIN" transform="translate(0, 11)" class="sprotty-hidden hidden" style="display:block;height:0px;width:0px;"/><g id="sprotty_ArchitectureBlockImpl$alert/AssignmentBlockImpl$alert_ack_n/GPortImpl$alert_ack_nOUT" transform="translate(19.71875, 11)" class="sprotty-hidden hidden" style="display:block;height:0px;width:0px;"/></g><g id="sprotty_ArchitectureBlockImpl$alert/AssignmentBlockImpl$alert_ack_p" transform="translate(152.96875, 215)" class="statement"><rect x="0" y="0" rx="10" ry="5" width="19.71875" height="22" class="sprotty-node" style="fill:rgb(245, 245, 245);stroke:rgb(112, 112, 112);"/><text class="clickable sprotty-label statementtype" id="sprotty_ArchitectureBlockImpl$alert/AssignmentBlockImpl$alert_ack_p/labeltype" transform="translate(5, 5) translate(4.71875, 9)" style="cursor:default;font-size:8px;font-weight:700;perspective-origin:0.140625px 0px;fill:rgb(112, 112, 112);text-anchor:middle;">&lt;=</text><g id="sprotty_ArchitectureBlockImpl$alert/AssignmentBlockImpl$alert_ack_p/GPortImpl$alert_ack_iIN" transform="translate(0, 11)" class="sprotty-hidden hidden" style="display:block;height:0px;width:0px;"/><g id="sprotty_ArchitectureBlockImpl$alert/AssignmentBlockImpl$alert_ack_p/GPortImpl$alert_ack_pOUT" transform="translate(19.71875, 11)" class="sprotty-hidden hidden" style="display:block;height:0px;width:0px;"/></g><g id="sprotty_ArchitectureBlockImpl$alert/AssignmentBlockImpl$alert_trig_n" transform="translate(103.25, 109)" class="statement"><rect x="0" y="0" rx="10" ry="5" width="19.71875" height="22" class="sprotty-node" style="fill:rgb(245, 245, 245);stroke:rgb(112, 112, 112);"/><text class="clickable sprotty-label statementtype" id="sprotty_ArchitectureBlockImpl$alert/AssignmentBlockImpl$alert_trig_n/labeltype" transform="translate(5, 5) translate(4.71875, 9)" style="cursor:default;font-size:8px;font-weight:700;perspective-origin:0.140625px 0px;fill:rgb(112, 112, 112);text-anchor:middle;">&lt;=</text><g id="sprotty_ArchitectureBlockImpl$alert/AssignmentBlockImpl$alert_trig_n/GPortImpl$alert_trig_iIN" transform="translate(0, 11)" class="sprotty-hidden hidden" style="display:block;height:0px;width:0px;"/><g id="sprotty_ArchitectureBlockImpl$alert/AssignmentBlockImpl$alert_trig_n/GPortImpl$alert_trig_nOUT" transform="translate(19.71875, 11)" class="sprotty-hidden hidden" style="display:block;height:0px;width:0px;"/></g><g id="sprotty_ArchitectureBlockImpl$alert/AssignmentBlockImpl$alert_trig_p" transform="translate(103.25, 59)" class="statement"><rect x="0" y="0" rx="10" ry="5" width="19.71875" height="22" class="sprotty-node" style="fill:rgb(245, 245, 245);stroke:rgb(112, 112, 112);"/><text class="clickable sprotty-label statementtype" id="sprotty_ArchitectureBlockImpl$alert/AssignmentBlockImpl$alert_trig_p/labeltype" transform="translate(5, 5) translate(4.71875, 9)" style="cursor:default;font-size:8px;font-weight:700;perspective-origin:0.140625px 0px;fill:rgb(112, 112, 112);text-anchor:middle;">&lt;=</text><g id="sprotty_ArchitectureBlockImpl$alert/AssignmentBlockImpl$alert_trig_p/GPortImpl$alert_trig_iIN" transform="translate(0, 11)" class="sprotty-hidden hidden" style="display:block;height:0px;width:0px;"/><g id="sprotty_ArchitectureBlockImpl$alert/AssignmentBlockImpl$alert_trig_p/GPortImpl$alert_trig_pOUT" transform="translate(19.71875, 11)" class="sprotty-hidden hidden" style="display:block;height:0px;width:0px;"/></g><g id="sprotty_ArchitectureBlockImpl$alert/AssignmentBlockImpl$alert_in_n" transform="translate(103.25, 193)" class="statement"><rect x="0" y="0" rx="10" ry="5" width="19.71875" height="22" class="sprotty-node" style="fill:rgb(245, 245, 245);stroke:rgb(112, 112, 112);"/><text class="clickable sprotty-label statementtype" id="sprotty_ArchitectureBlockImpl$alert/AssignmentBlockImpl$alert_in_n/labeltype" transform="translate(5, 5) translate(4.71875, 9)" style="cursor:default;font-size:8px;font-weight:700;perspective-origin:0.140625px 0px;fill:rgb(112, 112, 112);text-anchor:middle;">&lt;=</text><g id="sprotty_ArchitectureBlockImpl$alert/AssignmentBlockImpl$alert_in_n/GPortImpl$alert_in_iIN" transform="translate(0, 11)" class="sprotty-hidden hidden" style="display:block;height:0px;width:0px;"/><g id="sprotty_ArchitectureBlockImpl$alert/AssignmentBlockImpl$alert_in_n/GPortImpl$alert_in_nOUT" transform="translate(19.71875, 11)" class="sprotty-hidden hidden" style="display:block;height:0px;width:0px;"/></g><g id="sprotty_ArchitectureBlockImpl$alert/AssignmentBlockImpl$alert_in_p" transform="translate(103.25, 151)" class="statement"><rect x="0" y="0" rx="10" ry="5" width="19.71875" height="22" class="sprotty-node" style="fill:rgb(245, 245, 245);stroke:rgb(112, 112, 112);"/><text class="clickable sprotty-label statementtype" id="sprotty_ArchitectureBlockImpl$alert/AssignmentBlockImpl$alert_in_p/labeltype" transform="translate(5, 5) translate(4.71875, 9)" style="cursor:default;font-size:8px;font-weight:700;perspective-origin:0.140625px 0px;fill:rgb(112, 112, 112);text-anchor:middle;">&lt;=</text><g id="sprotty_ArchitectureBlockImpl$alert/AssignmentBlockImpl$alert_in_p/GPortImpl$alert_in_iIN" transform="translate(0, 11)" class="sprotty-hidden hidden" style="display:block;height:0px;width:0px;"/><g id="sprotty_ArchitectureBlockImpl$alert/AssignmentBlockImpl$alert_in_p/GPortImpl$alert_in_pOUT" transform="translate(19.71875, 11)" class="sprotty-hidden hidden" style="display:block;height:0px;width:0px;"/></g><g id="sprotty_ArchitectureBlockImpl$alert/BPortImpl$alert_ack_i" transform="translate(0, 226)" class="triangle"><path d="M 0,0 L 5,2.5 L 0,5 Z" transform="translate(-1.67, -2.5)" class="sprotty-port" style="fill:rgb(48, 48, 48);stroke:rgb(48, 48, 48);"/><text class="clickable sprotty-label port" id="sprotty_ArchitectureBlockImpl$alert/BPortImpl$alert_ack_i/label" transform="translate(6, 6) translate(31.125, 14)" style="cursor:default;font-size:12px;perspective-origin:0px 0px;fill:rgb(48, 48, 48);text-anchor:middle;">alert_ack_i</text></g><g id="sprotty_ArchitectureBlockImpl$alert/BPortImpl$alert_trig_i" transform="translate(0, 70)" class="triangle"><path d="M 0,0 L 5,2.5 L 0,5 Z" transform="translate(-1.67, -2.5)" class="sprotty-port" style="fill:rgb(48, 48, 48);stroke:rgb(48, 48, 48);"/><text class="clickable sprotty-label port" id="sprotty_ArchitectureBlockImpl$alert/BPortImpl$alert_trig_i/label" transform="translate(6, 6) translate(30.984375, 14)" style="cursor:default;font-size:12px;perspective-origin:0px 0px;fill:rgb(48, 48, 48);text-anchor:middle;">alert_trig_i</text></g><g id="sprotty_ArchitectureBlockImpl$alert/BPortImpl$alert_in_i" transform="translate(0, 162)" class="triangle"><path d="M 0,0 L 5,2.5 L 0,5 Z" transform="translate(-1.67, -2.5)" class="sprotty-port" style="fill:rgb(48, 48, 48);stroke:rgb(48, 48, 48);"/><text class="clickable sprotty-label port" id="sprotty_ArchitectureBlockImpl$alert/BPortImpl$alert_in_i/label" transform="translate(6, 6) translate(26.6875, 14)" style="cursor:default;font-size:12px;perspective-origin:0px 0px;fill:rgb(48, 48, 48);text-anchor:middle;">alert_in_i</text></g><g id="sprotty_ArchitectureBlockImpl$alert/BPortImpl$rst_ni" transform="translate(0, 36)" class="triangle"><path d="M 0,0 L 5,2.5 L 0,5 Z" transform="translate(-1.67, -2.5)" class="sprotty-port" style="fill:rgb(48, 48, 48);stroke:rgb(48, 48, 48);"/><text class="clickable sprotty-label port" id="sprotty_ArchitectureBlockImpl$alert/BPortImpl$rst_ni/label" transform="translate(6, 6) translate(15.921875, 14)" style="cursor:default;font-size:12px;perspective-origin:0px 0px;fill:rgb(48, 48, 48);text-anchor:middle;">rst_ni</text></g><g id="sprotty_ArchitectureBlockImpl$alert/BPortImpl$clk_i" transform="translate(0, 301)" class="triangle"><path d="M 0,0 L 5,2.5 L 0,5 Z" transform="translate(-1.67, -2.5)" class="sprotty-port" style="fill:rgb(48, 48, 48);stroke:rgb(48, 48, 48);"/><text class="clickable sprotty-label port" id="sprotty_ArchitectureBlockImpl$alert/BPortImpl$clk_i/label" transform="translate(6, 6) translate(13.09375, 14)" style="cursor:default;font-size:12px;perspective-origin:0px 0px;fill:rgb(48, 48, 48);text-anchor:middle;">clk_i</text></g><g id="sprotty_ArchitectureBlockImpl$alert/BPortImpl$alert_req_o" transform="translate(497.078125, 80)" class="triangle"><path d="M 0,0 L 5,2.5 L 0,5 Z" transform="translate(-1.67, -2.5)" class="sprotty-port" style="fill:rgb(48, 48, 48);stroke:rgb(48, 48, 48);"/><text class="clickable sprotty-label port" id="sprotty_ArchitectureBlockImpl$alert/BPortImpl$alert_req_o/label" transform="translate(-71.34375, 6) translate(32.671875, 14)" style="cursor:default;font-size:12px;perspective-origin:0px 0px;fill:rgb(48, 48, 48);text-anchor:middle;">alert_req_o</text></g></g></g></svg>