<svg xmlns="http://www.w3.org/2000/svg" id="sprotty_work.prim_dom_and_2share" class="sprotty-graph sprotty-block-diagram blockdiagram" style="font-family:&quot;Noto Sans&quot;, Helvetica, Arial, sans-serif;perspective-origin:0px 0px;transform-origin:0px 0px;" version="1.1" viewBox="7 7 507.890625 419" width="507.890625" height="419"><g transform="scale(1) translate(0,0)"><g id="sprotty_ArchitectureBlockImpl$prim_dom_and_2share" transform="translate(12, 12)" class="architecture"><g class="sprotty-block" style="fill:rgb(255, 255, 255);stroke:rgb(48, 48, 48);stroke-dasharray:0px;"><rect x="0" y="0" rx="1" ry="1" width="497.890625" height="409"/><text x="248.9453125" y="12" class="sprotty-block-name" style="cursor:pointer;font-weight:700;perspective-origin:248.938px 0px;fill:rgb(48, 48, 48);stroke:rgba(0, 0, 0, 0);dominant-baseline:middle;text-anchor:middle;">prim_dom_and_2share</text><line x1="0" y1="20" x2="497.890625" y2="20"/></g><g id="sprotty_ArchitectureBlockImpl$prim_dom_and_2share/AssignmentBlockImpl$q0_o/GPortImpl$q0_oOUT_to_ArchitectureBlockImpl$prim_dom_and_2share/BPortImpl$q0_o" class="sprotty-edge thick edge" style="fill:none;stroke:rgb(112, 112, 112);stroke-linejoin:round;stroke-width:3px;"><g><path d="M 448.796875 55 L 497.890625 55 "/><path d="M 448.796875 55 L 497.890625 55 " class="clickable"/></g></g><g id="sprotty_ArchitectureBlockImpl$prim_dom_and_2share/AssignmentBlockImpl$q1_o/GPortImpl$q1_oOUT_to_ArchitectureBlockImpl$prim_dom_and_2share/BPortImpl$q1_o" class="sprotty-edge thick edge" style="fill:none;stroke:rgb(112, 112, 112);stroke-linejoin:round;stroke-width:3px;"><g><path d="M 448.796875 110 L 497.890625 110 "/><path d="M 448.796875 110 L 497.890625 110 " class="clickable"/></g></g><g id="sprotty_ArchitectureBlockImpl$prim_dom_and_2share/BPortImpl$a0_i_to_ArchitectureBlockImpl$prim_dom_and_2share/AssignmentBlockImpl$t_a0b1/GPortImpl$a0_iIN" class="sprotty-edge thick edge" style="fill:none;stroke:rgb(112, 112, 112);stroke-linejoin:round;stroke-width:3px;"><g><path d="M 0 113 L 78.75 113 C 79.75 113 80.75 114 80.75 115 L 80.75 187 C 80.75 188 81.75 189 82.75 189 L 90.75 189 "/><path d="M 0 113 L 78.75 113 C 79.75 113 80.75 114 80.75 115 L 80.75 187 C 80.75 188 81.75 189 82.75 189 L 90.75 189 " class="clickable"/></g><circle r="3" id="sprotty_ArchitectureBlockImpl$prim_dom_and_2share/BPortImpl$a0_i_to_ArchitectureBlockImpl$prim_dom_and_2share/AssignmentBlockImpl$t_a0b1/GPortImpl$a0_iIN/junction0" transform="translate(80.75, 113)" class="sprotty-junction thick" style="fill:rgb(112, 112, 112);stroke:none;"/></g><g id="sprotty_ArchitectureBlockImpl$prim_dom_and_2share/BPortImpl$b1_i_to_ArchitectureBlockImpl$prim_dom_and_2share/AssignmentBlockImpl$t_a0b1/GPortImpl$b1_iIN" class="sprotty-edge thick edge" style="fill:none;stroke:rgb(112, 112, 112);stroke-linejoin:round;stroke-width:3px;"><g><path d="M 0 199 L 90.75 199 "/><path d="M 0 199 L 90.75 199 " class="clickable"/></g></g><g id="sprotty_ArchitectureBlockImpl$prim_dom_and_2share/BPortImpl$a1_i_to_ArchitectureBlockImpl$prim_dom_and_2share/AssignmentBlockImpl$t_a1b0/GPortImpl$a1_iIN" class="sprotty-edge thick edge" style="fill:none;stroke:rgb(112, 112, 112);stroke-linejoin:round;stroke-width:3px;"><g><path d="M 0 79 L 90.75 79 "/><path d="M 0 79 L 90.75 79 " class="clickable"/></g></g><g id="sprotty_ArchitectureBlockImpl$prim_dom_and_2share/BPortImpl$b0_i_to_ArchitectureBlockImpl$prim_dom_and_2share/AssignmentBlockImpl$t_a1b0/GPortImpl$b0_iIN" class="sprotty-edge thick edge" style="fill:none;stroke:rgb(112, 112, 112);stroke-linejoin:round;stroke-width:3px;"><g><path d="M 0 45 L 78.75 45 C 79.75 45 80.75 46 80.75 47 L 80.75 67 C 80.75 68 81.75 69 82.75 69 L 90.75 69 "/><path d="M 0 45 L 78.75 45 C 79.75 45 80.75 46 80.75 47 L 80.75 67 C 80.75 68 81.75 69 82.75 69 L 90.75 69 " class="clickable"/></g><circle r="3" id="sprotty_ArchitectureBlockImpl$prim_dom_and_2share/BPortImpl$b0_i_to_ArchitectureBlockImpl$prim_dom_and_2share/AssignmentBlockImpl$t_a1b0/GPortImpl$b0_iIN/junction0" transform="translate(80.75, 45)" class="sprotty-junction thick" style="fill:rgb(112, 112, 112);stroke:none;"/></g><g id="sprotty_ArchitectureBlockImpl$prim_dom_and_2share/BPortImpl$c0_i_to_ArchitectureBlockImpl$prim_dom_and_2share/AssignmentBlockImpl$t0_d/GPortImpl$c0_iIN" class="sprotty-edge thick edge" style="fill:none;stroke:rgb(112, 112, 112);stroke-linejoin:round;stroke-width:3px;"><g><path d="M 0 302 L 140.46875 302 "/><path d="M 0 302 L 140.46875 302 " class="clickable"/></g></g><g id="sprotty_ArchitectureBlockImpl$prim_dom_and_2share/BPortImpl$c1_i_to_ArchitectureBlockImpl$prim_dom_and_2share/AssignmentBlockImpl$t1_d/GPortImpl$c1_iIN" class="sprotty-edge thick edge" style="fill:none;stroke:rgb(112, 112, 112);stroke-linejoin:round;stroke-width:3px;"><g><path d="M 0 252 L 140.46875 252 "/><path d="M 0 252 L 140.46875 252 " class="clickable"/></g></g><g id="sprotty_ArchitectureBlockImpl$prim_dom_and_2share/BPortImpl$a0_i_to_ArchitectureBlockImpl$prim_dom_and_2share/AssignmentBlockImpl$t_a0b0/GPortImpl$a0_iIN" class="sprotty-edge thick edge" style="fill:none;stroke:rgb(112, 112, 112);stroke-linejoin:round;stroke-width:3px;"><g><path d="M 0 113 L 168.1875 113 C 169.1875 113 170.1875 112 170.1875 111 L 170.1875 57 C 170.1875 56 171.1875 55 172.1875 55 L 279.9114583333333 55 "/><path d="M 0 113 L 168.1875 113 C 169.1875 113 170.1875 112 170.1875 111 L 170.1875 57 C 170.1875 56 171.1875 55 172.1875 55 L 279.9114583333333 55 " class="clickable"/></g></g><g id="sprotty_ArchitectureBlockImpl$prim_dom_and_2share/BPortImpl$b0_i_to_ArchitectureBlockImpl$prim_dom_and_2share/AssignmentBlockImpl$t_a0b0/GPortImpl$b0_iIN" class="sprotty-edge thick edge" style="fill:none;stroke:rgb(112, 112, 112);stroke-linejoin:round;stroke-width:3px;"><g><path d="M 0 45 L 279.9114583333333 45 "/><path d="M 0 45 L 279.9114583333333 45 " class="clickable"/></g></g><g id="sprotty_ArchitectureBlockImpl$prim_dom_and_2share/BPortImpl$a1_i_to_ArchitectureBlockImpl$prim_dom_and_2share/AssignmentBlockImpl$t_a1b1/GPortImpl$a1_iIN" class="sprotty-edge thick edge" style="fill:none;stroke:rgb(112, 112, 112);stroke-linejoin:round;stroke-width:3px;"><g><path d="M 0 79 L 78.75 79 C 79.75 79 80.75 80 80.75 81 L 80.75 98 C 80.75 99 81.75 100 82.75 100 L 279.9114583333333 100 "/><path d="M 0 79 L 78.75 79 C 79.75 79 80.75 80 80.75 81 L 80.75 98 C 80.75 99 81.75 100 82.75 100 L 279.9114583333333 100 " class="clickable"/></g><circle r="3" id="sprotty_ArchitectureBlockImpl$prim_dom_and_2share/BPortImpl$a1_i_to_ArchitectureBlockImpl$prim_dom_and_2share/AssignmentBlockImpl$t_a1b1/GPortImpl$a1_iIN/junction0" transform="translate(80.75, 79)" class="sprotty-junction thick" style="fill:rgb(112, 112, 112);stroke:none;"/></g><g id="sprotty_ArchitectureBlockImpl$prim_dom_and_2share/BPortImpl$b1_i_to_ArchitectureBlockImpl$prim_dom_and_2share/AssignmentBlockImpl$t_a1b1/GPortImpl$b1_iIN" class="sprotty-edge thick edge" style="fill:none;stroke:rgb(112, 112, 112);stroke-linejoin:round;stroke-width:3px;"><g><path d="M 0 199 L 78.75 199 C 79.75 199 80.75 200 80.75 201 L 80.75 218 C 80.75 219 81.75 220 82.75 220 L 178.1875 220 C 179.1875 220 180.1875 219 180.1875 218 L 180.1875 112 C 180.1875 111 181.1875 110 182.1875 110 L 279.9114583333333 110 "/><path d="M 0 199 L 78.75 199 C 79.75 199 80.75 200 80.75 201 L 80.75 218 C 80.75 219 81.75 220 82.75 220 L 178.1875 220 C 179.1875 220 180.1875 219 180.1875 218 L 180.1875 112 C 180.1875 111 181.1875 110 182.1875 110 L 279.9114583333333 110 " class="clickable"/></g><circle r="3" id="sprotty_ArchitectureBlockImpl$prim_dom_and_2share/BPortImpl$b1_i_to_ArchitectureBlockImpl$prim_dom_and_2share/AssignmentBlockImpl$t_a1b1/GPortImpl$b1_iIN/junction0" transform="translate(80.75, 199)" class="sprotty-junction thick" style="fill:rgb(112, 112, 112);stroke:none;"/></g><g id="sprotty_ArchitectureBlockImpl$prim_dom_and_2share/BPortImpl$clk_i_to_ArchitectureBlockImpl$prim_dom_and_2share/GenerateStatementBlockImpl$null11/GPortImpl$clk_i" class="sprotty-edge edge" style="fill:none;stroke:rgb(112, 112, 112);stroke-linejoin:round;"><g><path d="M 0 165 L 230.1875 165 "/><path d="M 0 165 L 230.1875 165 " class="clickable"/></g></g><g id="sprotty_ArchitectureBlockImpl$prim_dom_and_2share/BPortImpl$rst_ni_to_ArchitectureBlockImpl$prim_dom_and_2share/GenerateStatementBlockImpl$null11/GPortImpl$rst_ni" class="sprotty-edge edge" style="fill:none;stroke:rgb(112, 112, 112);stroke-linejoin:round;"><g><path d="M 0 370 L 218.1875 370 C 219.1875 370 220.1875 369 220.1875 368 L 220.1875 207 C 220.1875 206 221.1875 205 222.1875 205 L 230.1875 205 "/><path d="M 0 370 L 218.1875 370 C 219.1875 370 220.1875 369 220.1875 368 L 220.1875 207 C 220.1875 206 221.1875 205 222.1875 205 L 230.1875 205 " class="clickable"/></g></g><g id="sprotty_ArchitectureBlockImpl$prim_dom_and_2share/BPortImpl$c_valid_i_to_ArchitectureBlockImpl$prim_dom_and_2share/GenerateStatementBlockImpl$null11/GPortImpl$c_valid_i" class="sprotty-edge edge" style="fill:none;stroke:rgb(112, 112, 112);stroke-linejoin:round;"><g><path d="M 0 336 L 208.1875 336 C 209.1875 336 210.1875 335 210.1875 334 L 210.1875 197 C 210.1875 196 211.1875 195 212.1875 195 L 230.1875 195 "/><path d="M 0 336 L 208.1875 336 C 209.1875 336 210.1875 335 210.1875 334 L 210.1875 197 C 210.1875 196 211.1875 195 212.1875 195 L 230.1875 195 " class="clickable"/></g></g><g id="sprotty_ArchitectureBlockImpl$prim_dom_and_2share/AssignmentBlockImpl$t0_d/GPortImpl$t0_dOUT_to_ArchitectureBlockImpl$prim_dom_and_2share/GenerateStatementBlockImpl$null11/GPortImpl$t0_d" class="sprotty-edge thick edge" style="fill:none;stroke:rgb(112, 112, 112);stroke-linejoin:round;stroke-width:3px;"><g><path d="M 160.1875 297 L 198.1875 297 C 199.1875 297 200.1875 296 200.1875 295 L 200.1875 187 C 200.1875 186 201.1875 185 202.1875 185 L 230.1875 185 "/><path d="M 160.1875 297 L 198.1875 297 C 199.1875 297 200.1875 296 200.1875 295 L 200.1875 187 C 200.1875 186 201.1875 185 202.1875 185 L 230.1875 185 " class="clickable"/></g></g><g id="sprotty_ArchitectureBlockImpl$prim_dom_and_2share/GenerateStatementBlockImpl$null11/GPortImpl$t0_q_to_ArchitectureBlockImpl$prim_dom_and_2share/AssignmentBlockImpl$q0_o/GPortImpl$t0_qIN" class="sprotty-edge thick edge" style="fill:none;stroke:rgb(112, 112, 112);stroke-linejoin:round;stroke-width:3px;"><g><path d="M 399.078125 175 L 407.078125 175 C 408.078125 175 409.078125 174 409.078125 173 L 409.078125 62 C 409.078125 61 410.078125 60 411.078125 60 L 429.078125 60 "/><path d="M 399.078125 175 L 407.078125 175 C 408.078125 175 409.078125 174 409.078125 173 L 409.078125 62 C 409.078125 61 410.078125 60 411.078125 60 L 429.078125 60 " class="clickable"/></g></g><g id="sprotty_ArchitectureBlockImpl$prim_dom_and_2share/AssignmentBlockImpl$t1_d/GPortImpl$t1_dOUT_to_ArchitectureBlockImpl$prim_dom_and_2share/GenerateStatementBlockImpl$null11/GPortImpl$t1_d" class="sprotty-edge thick edge" style="fill:none;stroke:rgb(112, 112, 112);stroke-linejoin:round;stroke-width:3px;"><g><path d="M 160.1875 247 L 188.1875 247 C 189.1875 247 190.1875 246 190.1875 245 L 190.1875 177 C 190.1875 176 191.1875 175 192.1875 175 L 230.1875 175 "/><path d="M 160.1875 247 L 188.1875 247 C 189.1875 247 190.1875 246 190.1875 245 L 190.1875 177 C 190.1875 176 191.1875 175 192.1875 175 L 230.1875 175 " class="clickable"/></g></g><g id="sprotty_ArchitectureBlockImpl$prim_dom_and_2share/GenerateStatementBlockImpl$null11/GPortImpl$t1_q_to_ArchitectureBlockImpl$prim_dom_and_2share/AssignmentBlockImpl$q1_o/GPortImpl$t1_qIN" class="sprotty-edge thick edge" style="fill:none;stroke:rgb(112, 112, 112);stroke-linejoin:round;stroke-width:3px;"><g><path d="M 399.078125 275 L 417.078125 275 C 418.078125 275 419.078125 274 419.078125 273 L 419.078125 117 C 419.078125 116 420.078125 115 421.078125 115 L 429.078125 115 "/><path d="M 399.078125 275 L 417.078125 275 C 418.078125 275 419.078125 274 419.078125 273 L 419.078125 117 C 419.078125 116 420.078125 115 421.078125 115 L 429.078125 115 " class="clickable"/></g></g><g id="sprotty_ArchitectureBlockImpl$prim_dom_and_2share/AssignmentBlockImpl$t_a0b1/GPortImpl$t_a0b1OUT_to_ArchitectureBlockImpl$prim_dom_and_2share/AssignmentBlockImpl$t0_d/GPortImpl$t_a0b1IN" class="sprotty-edge thick edge" style="fill:none;stroke:rgb(112, 112, 112);stroke-linejoin:round;stroke-width:3px;"><g><path d="M 110.46875 194 L 118.46875 194 C 119.46875 194 120.46875 195 120.46875 196 L 120.46875 290 C 120.46875 291 121.46875 292 122.46875 292 L 140.46875 292 "/><path d="M 110.46875 194 L 118.46875 194 C 119.46875 194 120.46875 195 120.46875 196 L 120.46875 290 C 120.46875 291 121.46875 292 122.46875 292 L 140.46875 292 " class="clickable"/></g></g><g id="sprotty_ArchitectureBlockImpl$prim_dom_and_2share/AssignmentBlockImpl$t_a1b0/GPortImpl$t_a1b0OUT_to_ArchitectureBlockImpl$prim_dom_and_2share/AssignmentBlockImpl$t1_d/GPortImpl$t_a1b0IN" class="sprotty-edge thick edge" style="fill:none;stroke:rgb(112, 112, 112);stroke-linejoin:round;stroke-width:3px;"><g><path d="M 110.46875 74 L 128.46875 74 C 129.46875 74 130.46875 75 130.46875 76 L 130.46875 240 C 130.46875 241 131.46875 242 132.46875 242 L 140.46875 242 "/><path d="M 110.46875 74 L 128.46875 74 C 129.46875 74 130.46875 75 130.46875 76 L 130.46875 240 C 130.46875 241 131.46875 242 132.46875 242 L 140.46875 242 " class="clickable"/></g></g><g id="sprotty_ArchitectureBlockImpl$prim_dom_and_2share/AssignmentBlockImpl$t_a0b0/GPortImpl$t_a0b0OUT_to_ArchitectureBlockImpl$prim_dom_and_2share/AssignmentBlockImpl$q0_o/GPortImpl$t_a0b0IN" class="sprotty-edge thick edge" style="fill:none;stroke:rgb(112, 112, 112);stroke-linejoin:round;stroke-width:3px;"><g><path d="M 299.6302083333333 50 L 429.078125 50 "/><path d="M 299.6302083333333 50 L 429.078125 50 " class="clickable"/></g></g><g id="sprotty_ArchitectureBlockImpl$prim_dom_and_2share/AssignmentBlockImpl$t_a1b1/GPortImpl$t_a1b1OUT_to_ArchitectureBlockImpl$prim_dom_and_2share/AssignmentBlockImpl$q1_o/GPortImpl$t_a1b1IN" class="sprotty-edge thick edge" style="fill:none;stroke:rgb(112, 112, 112);stroke-linejoin:round;stroke-width:3px;"><g><path d="M 299.6302083333333 105 L 429.078125 105 "/><path d="M 299.6302083333333 105 L 429.078125 105 " class="clickable"/></g></g><g id="sprotty_ArchitectureBlockImpl$prim_dom_and_2share/GenerateStatementBlockImpl$null11" transform="translate(230.1875, 140)" class="generate"><g class="sprotty-block sprotty-block-generate" style="fill:rgb(255, 255, 255);stroke:rgb(48, 48, 48);stroke-dasharray:0px;"><rect x="0" y="0" rx="1" ry="1" width="168.890625" height="170" style="stroke-dasharray:3px, 1px;"/><text x="84.4453125" y="12" class="sprotty-block-name" style="cursor:pointer;font-weight:700;fill:rgb(48, 48, 48);stroke:rgba(0, 0, 0, 0);dominant-baseline:middle;text-anchor:middle;"/>undefined</g><g id="sprotty_ArchitectureBlockImpl$prim_dom_and_2share/GenerateStatementBlockImpl$null11/GPortImpl$clk_i_to_ArchitectureBlockImpl$prim_dom_and_2share/GenerateStatementBlockImpl$null11/AlwaysBlockImpl$null8/GPortImpl$clk_iIN" class="sprotty-edge edge" style="fill:none;stroke:rgb(112, 112, 112);stroke-linejoin:round;"><g><path d="M 0 25 L 75 25 "/><path d="M 0 25 L 75 25 " class="clickable"/></g></g><g id="sprotty_ArchitectureBlockImpl$prim_dom_and_2share/GenerateStatementBlockImpl$null11/GPortImpl$rst_ni_to_ArchitectureBlockImpl$prim_dom_and_2share/GenerateStatementBlockImpl$null11/AlwaysBlockImpl$null8/GPortImpl$rst_niIN" class="sprotty-edge edge" style="fill:none;stroke:rgb(112, 112, 112);stroke-linejoin:round;"><g><path d="M 0 65 L 75 65 "/><path d="M 0 65 L 75 65 " class="clickable"/></g></g><g id="sprotty_ArchitectureBlockImpl$prim_dom_and_2share/GenerateStatementBlockImpl$null11/GPortImpl$c_valid_i_to_ArchitectureBlockImpl$prim_dom_and_2share/GenerateStatementBlockImpl$null11/AlwaysBlockImpl$null8/GPortImpl$c_valid_iIN" class="sprotty-edge edge" style="fill:none;stroke:rgb(112, 112, 112);stroke-linejoin:round;"><g><path d="M 0 55 L 75 55 "/><path d="M 0 55 L 75 55 " class="clickable"/></g></g><g id="sprotty_ArchitectureBlockImpl$prim_dom_and_2share/GenerateStatementBlockImpl$null11/GPortImpl$clk_i_to_ArchitectureBlockImpl$prim_dom_and_2share/GenerateStatementBlockImpl$null11/AlwaysBlockImpl$null7/GPortImpl$clk_iIN" class="sprotty-edge edge" style="fill:none;stroke:rgb(112, 112, 112);stroke-linejoin:round;"><g><path d="M 0 25 L 63 25 C 64 25 65 26 65 27 L 65 103 C 65 104 66 105 67 105 L 75 105 "/><path d="M 0 25 L 63 25 C 64 25 65 26 65 27 L 65 103 C 65 104 66 105 67 105 L 75 105 " class="clickable"/></g><circle r="2" id="sprotty_ArchitectureBlockImpl$prim_dom_and_2share/GenerateStatementBlockImpl$null11/GPortImpl$clk_i_to_ArchitectureBlockImpl$prim_dom_and_2share/GenerateStatementBlockImpl$null11/AlwaysBlockImpl$null7/GPortImpl$clk_iIN/junction0" transform="translate(65, 25)" class="sprotty-junction junction" style="fill:rgb(112, 112, 112);stroke:none;"/></g><g id="sprotty_ArchitectureBlockImpl$prim_dom_and_2share/GenerateStatementBlockImpl$null11/GPortImpl$rst_ni_to_ArchitectureBlockImpl$prim_dom_and_2share/GenerateStatementBlockImpl$null11/AlwaysBlockImpl$null7/GPortImpl$rst_niIN" class="sprotty-edge edge" style="fill:none;stroke:rgb(112, 112, 112);stroke-linejoin:round;"><g><path d="M 0 65 L 23 65 C 24 65 25 66 25 67 L 25 143 C 25 144 26 145 27 145 L 75 145 "/><path d="M 0 65 L 23 65 C 24 65 25 66 25 67 L 25 143 C 25 144 26 145 27 145 L 75 145 " class="clickable"/></g><circle r="2" id="sprotty_ArchitectureBlockImpl$prim_dom_and_2share/GenerateStatementBlockImpl$null11/GPortImpl$rst_ni_to_ArchitectureBlockImpl$prim_dom_and_2share/GenerateStatementBlockImpl$null11/AlwaysBlockImpl$null7/GPortImpl$rst_niIN/junction0" transform="translate(25, 65)" class="sprotty-junction junction" style="fill:rgb(112, 112, 112);stroke:none;"/></g><g id="sprotty_ArchitectureBlockImpl$prim_dom_and_2share/GenerateStatementBlockImpl$null11/GPortImpl$c_valid_i_to_ArchitectureBlockImpl$prim_dom_and_2share/GenerateStatementBlockImpl$null11/AlwaysBlockImpl$null7/GPortImpl$c_valid_iIN" class="sprotty-edge edge" style="fill:none;stroke:rgb(112, 112, 112);stroke-linejoin:round;"><g><path d="M 0 55 L 33 55 C 34 55 35 56 35 57 L 35 133 C 35 134 36 135 37 135 L 75 135 "/><path d="M 0 55 L 33 55 C 34 55 35 56 35 57 L 35 133 C 35 134 36 135 37 135 L 75 135 " class="clickable"/></g><circle r="2" id="sprotty_ArchitectureBlockImpl$prim_dom_and_2share/GenerateStatementBlockImpl$null11/GPortImpl$c_valid_i_to_ArchitectureBlockImpl$prim_dom_and_2share/GenerateStatementBlockImpl$null11/AlwaysBlockImpl$null7/GPortImpl$c_valid_iIN/junction0" transform="translate(35, 55)" class="sprotty-junction junction" style="fill:rgb(112, 112, 112);stroke:none;"/></g><g id="sprotty_ArchitectureBlockImpl$prim_dom_and_2share/GenerateStatementBlockImpl$null11/GPortImpl$t0_d_to_ArchitectureBlockImpl$prim_dom_and_2share/GenerateStatementBlockImpl$null11/AlwaysBlockImpl$null8/GPortImpl$t0_dIN" class="sprotty-edge thick edge" style="fill:none;stroke:rgb(112, 112, 112);stroke-linejoin:round;stroke-width:3px;"><g><path d="M 0 45 L 75 45 "/><path d="M 0 45 L 75 45 " class="clickable"/></g></g><g id="sprotty_ArchitectureBlockImpl$prim_dom_and_2share/GenerateStatementBlockImpl$null11/GPortImpl$t0_d_to_ArchitectureBlockImpl$prim_dom_and_2share/GenerateStatementBlockImpl$null11/AlwaysBlockImpl$null7/GPortImpl$t0_dIN" class="sprotty-edge thick edge" style="fill:none;stroke:rgb(112, 112, 112);stroke-linejoin:round;stroke-width:3px;"><g><path d="M 0 45 L 43 45 C 44 45 45 46 45 47 L 45 123 C 45 124 46 125 47 125 L 75 125 "/><path d="M 0 45 L 43 45 C 44 45 45 46 45 47 L 45 123 C 45 124 46 125 47 125 L 75 125 " class="clickable"/></g><circle r="3" id="sprotty_ArchitectureBlockImpl$prim_dom_and_2share/GenerateStatementBlockImpl$null11/GPortImpl$t0_d_to_ArchitectureBlockImpl$prim_dom_and_2share/GenerateStatementBlockImpl$null11/AlwaysBlockImpl$null7/GPortImpl$t0_dIN/junction0" transform="translate(45, 45)" class="sprotty-junction thick" style="fill:rgb(112, 112, 112);stroke:none;"/></g><g id="sprotty_ArchitectureBlockImpl$prim_dom_and_2share/GenerateStatementBlockImpl$null11/AlwaysBlockImpl$null8/GPortImpl$t0_qOUT_to_ArchitectureBlockImpl$prim_dom_and_2share/GenerateStatementBlockImpl$null11/GPortImpl$t0_q" class="sprotty-edge thick edge" style="fill:none;stroke:rgb(112, 112, 112);stroke-linejoin:round;stroke-width:3px;"><g><path d="M 123.890625 35 L 168.890625 35 "/><path d="M 123.890625 35 L 168.890625 35 " class="clickable"/></g></g><g id="sprotty_ArchitectureBlockImpl$prim_dom_and_2share/GenerateStatementBlockImpl$null11/AlwaysBlockImpl$null7/GPortImpl$t0_qOUT_to_ArchitectureBlockImpl$prim_dom_and_2share/GenerateStatementBlockImpl$null11/GPortImpl$t0_q" class="sprotty-edge thick edge" style="fill:none;stroke:rgb(112, 112, 112);stroke-linejoin:round;stroke-width:3px;"><g><path d="M 123.890625 115 L 141.890625 115 C 142.890625 115 143.890625 114 143.890625 113 L 143.890625 37 C 143.890625 36 144.890625 35 145.890625 35 L 168.890625 35 "/><path d="M 123.890625 115 L 141.890625 115 C 142.890625 115 143.890625 114 143.890625 113 L 143.890625 37 C 143.890625 36 144.890625 35 145.890625 35 L 168.890625 35 " class="clickable"/></g><circle r="3" id="sprotty_ArchitectureBlockImpl$prim_dom_and_2share/GenerateStatementBlockImpl$null11/AlwaysBlockImpl$null7/GPortImpl$t0_qOUT_to_ArchitectureBlockImpl$prim_dom_and_2share/GenerateStatementBlockImpl$null11/GPortImpl$t0_q/junction0" transform="translate(143.890625, 35)" class="sprotty-junction thick" style="fill:rgb(112, 112, 112);stroke:none;"/></g><g id="sprotty_ArchitectureBlockImpl$prim_dom_and_2share/GenerateStatementBlockImpl$null11/GPortImpl$t1_d_to_ArchitectureBlockImpl$prim_dom_and_2share/GenerateStatementBlockImpl$null11/AlwaysBlockImpl$null8/GPortImpl$t1_dIN" class="sprotty-edge thick edge" style="fill:none;stroke:rgb(112, 112, 112);stroke-linejoin:round;stroke-width:3px;"><g><path d="M 0 35 L 75 35 "/><path d="M 0 35 L 75 35 " class="clickable"/></g></g><g id="sprotty_ArchitectureBlockImpl$prim_dom_and_2share/GenerateStatementBlockImpl$null11/GPortImpl$t1_d_to_ArchitectureBlockImpl$prim_dom_and_2share/GenerateStatementBlockImpl$null11/AlwaysBlockImpl$null7/GPortImpl$t1_dIN" class="sprotty-edge thick edge" style="fill:none;stroke:rgb(112, 112, 112);stroke-linejoin:round;stroke-width:3px;"><g><path d="M 0 35 L 53 35 C 54 35 55 36 55 37 L 55 113 C 55 114 56 115 57 115 L 75 115 "/><path d="M 0 35 L 53 35 C 54 35 55 36 55 37 L 55 113 C 55 114 56 115 57 115 L 75 115 " class="clickable"/></g><circle r="3" id="sprotty_ArchitectureBlockImpl$prim_dom_and_2share/GenerateStatementBlockImpl$null11/GPortImpl$t1_d_to_ArchitectureBlockImpl$prim_dom_and_2share/GenerateStatementBlockImpl$null11/AlwaysBlockImpl$null7/GPortImpl$t1_dIN/junction0" transform="translate(55, 35)" class="sprotty-junction thick" style="fill:rgb(112, 112, 112);stroke:none;"/></g><g id="sprotty_ArchitectureBlockImpl$prim_dom_and_2share/GenerateStatementBlockImpl$null11/AlwaysBlockImpl$null8/GPortImpl$t1_qOUT_to_ArchitectureBlockImpl$prim_dom_and_2share/GenerateStatementBlockImpl$null11/GPortImpl$t1_q" class="sprotty-edge thick edge" style="fill:none;stroke:rgb(112, 112, 112);stroke-linejoin:round;stroke-width:3px;"><g><path d="M 123.890625 55 L 131.890625 55 C 132.890625 55 133.890625 56 133.890625 57 L 133.890625 133 C 133.890625 134 134.890625 135 135.890625 135 L 168.890625 135 "/><path d="M 123.890625 55 L 131.890625 55 C 132.890625 55 133.890625 56 133.890625 57 L 133.890625 133 C 133.890625 134 134.890625 135 135.890625 135 L 168.890625 135 " class="clickable"/></g><circle r="3" id="sprotty_ArchitectureBlockImpl$prim_dom_and_2share/GenerateStatementBlockImpl$null11/AlwaysBlockImpl$null8/GPortImpl$t1_qOUT_to_ArchitectureBlockImpl$prim_dom_and_2share/GenerateStatementBlockImpl$null11/GPortImpl$t1_q/junction0" transform="translate(133.890625, 135)" class="sprotty-junction thick" style="fill:rgb(112, 112, 112);stroke:none;"/></g><g id="sprotty_ArchitectureBlockImpl$prim_dom_and_2share/GenerateStatementBlockImpl$null11/AlwaysBlockImpl$null7/GPortImpl$t1_qOUT_to_ArchitectureBlockImpl$prim_dom_and_2share/GenerateStatementBlockImpl$null11/GPortImpl$t1_q" class="sprotty-edge thick edge" style="fill:none;stroke:rgb(112, 112, 112);stroke-linejoin:round;stroke-width:3px;"><g><path d="M 123.890625 135 L 168.890625 135 "/><path d="M 123.890625 135 L 168.890625 135 " class="clickable"/></g></g><g id="sprotty_ArchitectureBlockImpl$prim_dom_and_2share/GenerateStatementBlockImpl$null11/AlwaysBlockImpl$null7" transform="translate(75, 95)" class="statement"><rect x="0" y="0" rx="10" ry="5" width="48.890625" height="60" class="sprotty-node" style="fill:rgb(245, 245, 245);stroke:rgb(112, 112, 112);"/><text class="clickable sprotty-label statementtype" id="sprotty_ArchitectureBlockImpl$prim_dom_and_2share/GenerateStatementBlockImpl$null11/AlwaysBlockImpl$null7/labeltype" transform="translate(5, 24) translate(18.828125, 9)" style="cursor:default;font-size:8px;font-weight:700;perspective-origin:0.609375px 0px;fill:rgb(112, 112, 112);text-anchor:middle;">always_ff</text><g id="sprotty_ArchitectureBlockImpl$prim_dom_and_2share/GenerateStatementBlockImpl$null11/AlwaysBlockImpl$null7/GPortImpl$t1_dIN" transform="translate(0, 20)" class="sprotty-hidden hidden" style="display:block;height:0px;width:0px;"/><g id="sprotty_ArchitectureBlockImpl$prim_dom_and_2share/GenerateStatementBlockImpl$null11/AlwaysBlockImpl$null7/GPortImpl$t0_dIN" transform="translate(0, 30)" class="sprotty-hidden hidden" style="display:block;height:0px;width:0px;"/><g id="sprotty_ArchitectureBlockImpl$prim_dom_and_2share/GenerateStatementBlockImpl$null11/AlwaysBlockImpl$null7/GPortImpl$c_valid_iIN" transform="translate(0, 40)" class="sprotty-hidden hidden" style="display:block;height:0px;width:0px;"/><g id="sprotty_ArchitectureBlockImpl$prim_dom_and_2share/GenerateStatementBlockImpl$null11/AlwaysBlockImpl$null7/GPortImpl$rst_niIN" transform="translate(0, 50)" class="sprotty-hidden hidden" style="display:block;height:0px;width:0px;"/><g id="sprotty_ArchitectureBlockImpl$prim_dom_and_2share/GenerateStatementBlockImpl$null11/AlwaysBlockImpl$null7/GPortImpl$clk_iIN" transform="translate(0, 10)" class="sprotty-hidden hidden" style="display:block;height:0px;width:0px;"/><g id="sprotty_ArchitectureBlockImpl$prim_dom_and_2share/GenerateStatementBlockImpl$null11/AlwaysBlockImpl$null7/GPortImpl$t0_qOUT" transform="translate(48.890625, 20)" class="sprotty-hidden hidden" style="display:block;height:0px;width:0px;"/><g id="sprotty_ArchitectureBlockImpl$prim_dom_and_2share/GenerateStatementBlockImpl$null11/AlwaysBlockImpl$null7/GPortImpl$t1_qOUT" transform="translate(48.890625, 40)" class="sprotty-hidden hidden" style="display:block;height:0px;width:0px;"/></g><g id="sprotty_ArchitectureBlockImpl$prim_dom_and_2share/GenerateStatementBlockImpl$null11/AlwaysBlockImpl$null8" transform="translate(75, 15)" class="statement"><rect x="0" y="0" rx="10" ry="5" width="48.890625" height="60" class="sprotty-node" style="fill:rgb(245, 245, 245);stroke:rgb(112, 112, 112);"/><text class="clickable sprotty-label statementtype" id="sprotty_ArchitectureBlockImpl$prim_dom_and_2share/GenerateStatementBlockImpl$null11/AlwaysBlockImpl$null8/labeltype" transform="translate(5, 24) translate(18.828125, 9)" style="cursor:default;font-size:8px;font-weight:700;perspective-origin:0.609375px 0px;fill:rgb(112, 112, 112);text-anchor:middle;">always_ff</text><g id="sprotty_ArchitectureBlockImpl$prim_dom_and_2share/GenerateStatementBlockImpl$null11/AlwaysBlockImpl$null8/GPortImpl$t1_dIN" transform="translate(0, 20)" class="sprotty-hidden hidden" style="display:block;height:0px;width:0px;"/><g id="sprotty_ArchitectureBlockImpl$prim_dom_and_2share/GenerateStatementBlockImpl$null11/AlwaysBlockImpl$null8/GPortImpl$t0_dIN" transform="translate(0, 30)" class="sprotty-hidden hidden" style="display:block;height:0px;width:0px;"/><g id="sprotty_ArchitectureBlockImpl$prim_dom_and_2share/GenerateStatementBlockImpl$null11/AlwaysBlockImpl$null8/GPortImpl$c_valid_iIN" transform="translate(0, 40)" class="sprotty-hidden hidden" style="display:block;height:0px;width:0px;"/><g id="sprotty_ArchitectureBlockImpl$prim_dom_and_2share/GenerateStatementBlockImpl$null11/AlwaysBlockImpl$null8/GPortImpl$rst_niIN" transform="translate(0, 50)" class="sprotty-hidden hidden" style="display:block;height:0px;width:0px;"/><g id="sprotty_ArchitectureBlockImpl$prim_dom_and_2share/GenerateStatementBlockImpl$null11/AlwaysBlockImpl$null8/GPortImpl$clk_iIN" transform="translate(0, 10)" class="sprotty-hidden hidden" style="display:block;height:0px;width:0px;"/><g id="sprotty_ArchitectureBlockImpl$prim_dom_and_2share/GenerateStatementBlockImpl$null11/AlwaysBlockImpl$null8/GPortImpl$t0_qOUT" transform="translate(48.890625, 20)" class="sprotty-hidden hidden" style="display:block;height:0px;width:0px;"/><g id="sprotty_ArchitectureBlockImpl$prim_dom_and_2share/GenerateStatementBlockImpl$null11/AlwaysBlockImpl$null8/GPortImpl$t1_qOUT" transform="translate(48.890625, 40)" class="sprotty-hidden hidden" style="display:block;height:0px;width:0px;"/></g><g id="sprotty_ArchitectureBlockImpl$prim_dom_and_2share/GenerateStatementBlockImpl$null11/GPortImpl$t1_d" transform="translate(0, 35)" class="triangle"><path d="M 0,0 L 5,2.5 L 0,5 Z" transform="translate(-1.67, -2.5)" class="sprotty-port" style="fill:rgb(48, 48, 48);stroke:rgb(48, 48, 48);"/></g><g id="sprotty_ArchitectureBlockImpl$prim_dom_and_2share/GenerateStatementBlockImpl$null11/GPortImpl$t0_d" transform="translate(0, 45)" class="triangle"><path d="M 0,0 L 5,2.5 L 0,5 Z" transform="translate(-1.67, -2.5)" class="sprotty-port" style="fill:rgb(48, 48, 48);stroke:rgb(48, 48, 48);"/></g><g id="sprotty_ArchitectureBlockImpl$prim_dom_and_2share/GenerateStatementBlockImpl$null11/GPortImpl$c_valid_i" transform="translate(0, 55)" class="triangle"><path d="M 0,0 L 5,2.5 L 0,5 Z" transform="translate(-1.67, -2.5)" class="sprotty-port" style="fill:rgb(48, 48, 48);stroke:rgb(48, 48, 48);"/></g><g id="sprotty_ArchitectureBlockImpl$prim_dom_and_2share/GenerateStatementBlockImpl$null11/GPortImpl$rst_ni" transform="translate(0, 65)" class="triangle"><path d="M 0,0 L 5,2.5 L 0,5 Z" transform="translate(-1.67, -2.5)" class="sprotty-port" style="fill:rgb(48, 48, 48);stroke:rgb(48, 48, 48);"/></g><g id="sprotty_ArchitectureBlockImpl$prim_dom_and_2share/GenerateStatementBlockImpl$null11/GPortImpl$clk_i" transform="translate(0, 25)" class="triangle"><path d="M 0,0 L 5,2.5 L 0,5 Z" transform="translate(-1.67, -2.5)" class="sprotty-port" style="fill:rgb(48, 48, 48);stroke:rgb(48, 48, 48);"/></g><g id="sprotty_ArchitectureBlockImpl$prim_dom_and_2share/GenerateStatementBlockImpl$null11/GPortImpl$t0_q" transform="translate(168.890625, 35)" class="triangle"><path d="M 0,0 L 5,2.5 L 0,5 Z" transform="translate(-1.67, -2.5)" class="sprotty-port" style="fill:rgb(48, 48, 48);stroke:rgb(48, 48, 48);"/></g><g id="sprotty_ArchitectureBlockImpl$prim_dom_and_2share/GenerateStatementBlockImpl$null11/GPortImpl$t1_q" transform="translate(168.890625, 135)" class="triangle"><path d="M 0,0 L 5,2.5 L 0,5 Z" transform="translate(-1.67, -2.5)" class="sprotty-port" style="fill:rgb(48, 48, 48);stroke:rgb(48, 48, 48);"/></g></g><g id="sprotty_ArchitectureBlockImpl$prim_dom_and_2share/AssignmentBlockImpl$q1_o" transform="translate(429.078125, 95)" class="statement"><rect x="0" y="0" rx="10" ry="5" width="19.71875" height="30" class="sprotty-node" style="fill:rgb(245, 245, 245);stroke:rgb(112, 112, 112);"/><text class="clickable sprotty-label statementtype" id="sprotty_ArchitectureBlockImpl$prim_dom_and_2share/AssignmentBlockImpl$q1_o/labeltype" transform="translate(5, 9) translate(4.71875, 9)" style="cursor:default;font-size:8px;font-weight:700;perspective-origin:0.140625px 0px;fill:rgb(112, 112, 112);text-anchor:middle;">&lt;=</text><g id="sprotty_ArchitectureBlockImpl$prim_dom_and_2share/AssignmentBlockImpl$q1_o/GPortImpl$t1_qIN" transform="translate(0, 20)" class="sprotty-hidden hidden" style="display:block;height:0px;width:0px;"/><g id="sprotty_ArchitectureBlockImpl$prim_dom_and_2share/AssignmentBlockImpl$q1_o/GPortImpl$t_a1b1IN" transform="translate(0, 10)" class="sprotty-hidden hidden" style="display:block;height:0px;width:0px;"/><g id="sprotty_ArchitectureBlockImpl$prim_dom_and_2share/AssignmentBlockImpl$q1_o/GPortImpl$q1_oOUT" transform="translate(19.71875, 15)" class="sprotty-hidden hidden" style="display:block;height:0px;width:0px;"/></g><g id="sprotty_ArchitectureBlockImpl$prim_dom_and_2share/AssignmentBlockImpl$q0_o" transform="translate(429.078125, 40)" class="statement"><rect x="0" y="0" rx="10" ry="5" width="19.71875" height="30" class="sprotty-node" style="fill:rgb(245, 245, 245);stroke:rgb(112, 112, 112);"/><text class="clickable sprotty-label statementtype" id="sprotty_ArchitectureBlockImpl$prim_dom_and_2share/AssignmentBlockImpl$q0_o/labeltype" transform="translate(5, 9) translate(4.71875, 9)" style="cursor:default;font-size:8px;font-weight:700;perspective-origin:0.140625px 0px;fill:rgb(112, 112, 112);text-anchor:middle;">&lt;=</text><g id="sprotty_ArchitectureBlockImpl$prim_dom_and_2share/AssignmentBlockImpl$q0_o/GPortImpl$t0_qIN" transform="translate(0, 20)" class="sprotty-hidden hidden" style="display:block;height:0px;width:0px;"/><g id="sprotty_ArchitectureBlockImpl$prim_dom_and_2share/AssignmentBlockImpl$q0_o/GPortImpl$t_a0b0IN" transform="translate(0, 10)" class="sprotty-hidden hidden" style="display:block;height:0px;width:0px;"/><g id="sprotty_ArchitectureBlockImpl$prim_dom_and_2share/AssignmentBlockImpl$q0_o/GPortImpl$q0_oOUT" transform="translate(19.71875, 15)" class="sprotty-hidden hidden" style="display:block;height:0px;width:0px;"/></g><g id="sprotty_ArchitectureBlockImpl$prim_dom_and_2share/AssignmentBlockImpl$t_a1b1" transform="translate(279.9114583333333, 90)" class="statement"><rect x="0" y="0" rx="10" ry="5" width="19.71875" height="30" class="sprotty-node" style="fill:rgb(245, 245, 245);stroke:rgb(112, 112, 112);"/><text class="clickable sprotty-label statementtype" id="sprotty_ArchitectureBlockImpl$prim_dom_and_2share/AssignmentBlockImpl$t_a1b1/labeltype" transform="translate(5, 9) translate(4.71875, 9)" style="cursor:default;font-size:8px;font-weight:700;perspective-origin:0.140625px 0px;fill:rgb(112, 112, 112);text-anchor:middle;">&lt;=</text><g id="sprotty_ArchitectureBlockImpl$prim_dom_and_2share/AssignmentBlockImpl$t_a1b1/GPortImpl$b1_iIN" transform="translate(0, 20)" class="sprotty-hidden hidden" style="display:block;height:0px;width:0px;"/><g id="sprotty_ArchitectureBlockImpl$prim_dom_and_2share/AssignmentBlockImpl$t_a1b1/GPortImpl$a1_iIN" transform="translate(0, 10)" class="sprotty-hidden hidden" style="display:block;height:0px;width:0px;"/><g id="sprotty_ArchitectureBlockImpl$prim_dom_and_2share/AssignmentBlockImpl$t_a1b1/GPortImpl$t_a1b1OUT" transform="translate(19.71875, 15)" class="sprotty-hidden hidden" style="display:block;height:0px;width:0px;"/></g><g id="sprotty_ArchitectureBlockImpl$prim_dom_and_2share/AssignmentBlockImpl$t_a0b0" transform="translate(279.9114583333333, 35)" class="statement"><rect x="0" y="0" rx="10" ry="5" width="19.71875" height="30" class="sprotty-node" style="fill:rgb(245, 245, 245);stroke:rgb(112, 112, 112);"/><text class="clickable sprotty-label statementtype" id="sprotty_ArchitectureBlockImpl$prim_dom_and_2share/AssignmentBlockImpl$t_a0b0/labeltype" transform="translate(5, 9) translate(4.71875, 9)" style="cursor:default;font-size:8px;font-weight:700;perspective-origin:0.140625px 0px;fill:rgb(112, 112, 112);text-anchor:middle;">&lt;=</text><g id="sprotty_ArchitectureBlockImpl$prim_dom_and_2share/AssignmentBlockImpl$t_a0b0/GPortImpl$b0_iIN" transform="translate(0, 10)" class="sprotty-hidden hidden" style="display:block;height:0px;width:0px;"/><g id="sprotty_ArchitectureBlockImpl$prim_dom_and_2share/AssignmentBlockImpl$t_a0b0/GPortImpl$a0_iIN" transform="translate(0, 20)" class="sprotty-hidden hidden" style="display:block;height:0px;width:0px;"/><g id="sprotty_ArchitectureBlockImpl$prim_dom_and_2share/AssignmentBlockImpl$t_a0b0/GPortImpl$t_a0b0OUT" transform="translate(19.71875, 15)" class="sprotty-hidden hidden" style="display:block;height:0px;width:0px;"/></g><g id="sprotty_ArchitectureBlockImpl$prim_dom_and_2share/AssignmentBlockImpl$t1_d" transform="translate(140.46875, 232)" class="statement"><rect x="0" y="0" rx="10" ry="5" width="19.71875" height="30" class="sprotty-node" style="fill:rgb(245, 245, 245);stroke:rgb(112, 112, 112);"/><text class="clickable sprotty-label statementtype" id="sprotty_ArchitectureBlockImpl$prim_dom_and_2share/AssignmentBlockImpl$t1_d/labeltype" transform="translate(5, 9) translate(4.71875, 9)" style="cursor:default;font-size:8px;font-weight:700;perspective-origin:0.140625px 0px;fill:rgb(112, 112, 112);text-anchor:middle;">&lt;=</text><g id="sprotty_ArchitectureBlockImpl$prim_dom_and_2share/AssignmentBlockImpl$t1_d/GPortImpl$c1_iIN" transform="translate(0, 20)" class="sprotty-hidden hidden" style="display:block;height:0px;width:0px;"/><g id="sprotty_ArchitectureBlockImpl$prim_dom_and_2share/AssignmentBlockImpl$t1_d/GPortImpl$t_a1b0IN" transform="translate(0, 10)" class="sprotty-hidden hidden" style="display:block;height:0px;width:0px;"/><g id="sprotty_ArchitectureBlockImpl$prim_dom_and_2share/AssignmentBlockImpl$t1_d/GPortImpl$t1_dOUT" transform="translate(19.71875, 15)" class="sprotty-hidden hidden" style="display:block;height:0px;width:0px;"/></g><g id="sprotty_ArchitectureBlockImpl$prim_dom_and_2share/AssignmentBlockImpl$t0_d" transform="translate(140.46875, 282)" class="statement"><rect x="0" y="0" rx="10" ry="5" width="19.71875" height="30" class="sprotty-node" style="fill:rgb(245, 245, 245);stroke:rgb(112, 112, 112);"/><text class="clickable sprotty-label statementtype" id="sprotty_ArchitectureBlockImpl$prim_dom_and_2share/AssignmentBlockImpl$t0_d/labeltype" transform="translate(5, 9) translate(4.71875, 9)" style="cursor:default;font-size:8px;font-weight:700;perspective-origin:0.140625px 0px;fill:rgb(112, 112, 112);text-anchor:middle;">&lt;=</text><g id="sprotty_ArchitectureBlockImpl$prim_dom_and_2share/AssignmentBlockImpl$t0_d/GPortImpl$c0_iIN" transform="translate(0, 20)" class="sprotty-hidden hidden" style="display:block;height:0px;width:0px;"/><g id="sprotty_ArchitectureBlockImpl$prim_dom_and_2share/AssignmentBlockImpl$t0_d/GPortImpl$t_a0b1IN" transform="translate(0, 10)" class="sprotty-hidden hidden" style="display:block;height:0px;width:0px;"/><g id="sprotty_ArchitectureBlockImpl$prim_dom_and_2share/AssignmentBlockImpl$t0_d/GPortImpl$t0_dOUT" transform="translate(19.71875, 15)" class="sprotty-hidden hidden" style="display:block;height:0px;width:0px;"/></g><g id="sprotty_ArchitectureBlockImpl$prim_dom_and_2share/AssignmentBlockImpl$t_a1b0" transform="translate(90.75, 59)" class="statement"><rect x="0" y="0" rx="10" ry="5" width="19.71875" height="30" class="sprotty-node" style="fill:rgb(245, 245, 245);stroke:rgb(112, 112, 112);"/><text class="clickable sprotty-label statementtype" id="sprotty_ArchitectureBlockImpl$prim_dom_and_2share/AssignmentBlockImpl$t_a1b0/labeltype" transform="translate(5, 9) translate(4.71875, 9)" style="cursor:default;font-size:8px;font-weight:700;perspective-origin:0.140625px 0px;fill:rgb(112, 112, 112);text-anchor:middle;">&lt;=</text><g id="sprotty_ArchitectureBlockImpl$prim_dom_and_2share/AssignmentBlockImpl$t_a1b0/GPortImpl$b0_iIN" transform="translate(0, 10)" class="sprotty-hidden hidden" style="display:block;height:0px;width:0px;"/><g id="sprotty_ArchitectureBlockImpl$prim_dom_and_2share/AssignmentBlockImpl$t_a1b0/GPortImpl$a1_iIN" transform="translate(0, 20)" class="sprotty-hidden hidden" style="display:block;height:0px;width:0px;"/><g id="sprotty_ArchitectureBlockImpl$prim_dom_and_2share/AssignmentBlockImpl$t_a1b0/GPortImpl$t_a1b0OUT" transform="translate(19.71875, 15)" class="sprotty-hidden hidden" style="display:block;height:0px;width:0px;"/></g><g id="sprotty_ArchitectureBlockImpl$prim_dom_and_2share/AssignmentBlockImpl$t_a0b1" transform="translate(90.75, 179)" class="statement"><rect x="0" y="0" rx="10" ry="5" width="19.71875" height="30" class="sprotty-node" style="fill:rgb(245, 245, 245);stroke:rgb(112, 112, 112);"/><text class="clickable sprotty-label statementtype" id="sprotty_ArchitectureBlockImpl$prim_dom_and_2share/AssignmentBlockImpl$t_a0b1/labeltype" transform="translate(5, 9) translate(4.71875, 9)" style="cursor:default;font-size:8px;font-weight:700;perspective-origin:0.140625px 0px;fill:rgb(112, 112, 112);text-anchor:middle;">&lt;=</text><g id="sprotty_ArchitectureBlockImpl$prim_dom_and_2share/AssignmentBlockImpl$t_a0b1/GPortImpl$b1_iIN" transform="translate(0, 20)" class="sprotty-hidden hidden" style="display:block;height:0px;width:0px;"/><g id="sprotty_ArchitectureBlockImpl$prim_dom_and_2share/AssignmentBlockImpl$t_a0b1/GPortImpl$a0_iIN" transform="translate(0, 10)" class="sprotty-hidden hidden" style="display:block;height:0px;width:0px;"/><g id="sprotty_ArchitectureBlockImpl$prim_dom_and_2share/AssignmentBlockImpl$t_a0b1/GPortImpl$t_a0b1OUT" transform="translate(19.71875, 15)" class="sprotty-hidden hidden" style="display:block;height:0px;width:0px;"/></g><g id="sprotty_ArchitectureBlockImpl$prim_dom_and_2share/BPortImpl$c1_i" transform="translate(0, 252)" class="triangle"><path d="M 0,0 L 5,2.5 L 0,5 Z" transform="translate(-1.67, -2.5)" class="sprotty-port" style="fill:rgb(48, 48, 48);stroke:rgb(48, 48, 48);"/><text class="clickable sprotty-label port" id="sprotty_ArchitectureBlockImpl$prim_dom_and_2share/BPortImpl$c1_i/label" transform="translate(6, 6) translate(11.390625, 14)" style="cursor:default;font-size:12px;perspective-origin:0px 0px;fill:rgb(48, 48, 48);text-anchor:middle;">c1_i</text></g><g id="sprotty_ArchitectureBlockImpl$prim_dom_and_2share/BPortImpl$c0_i" transform="translate(0, 302)" class="triangle"><path d="M 0,0 L 5,2.5 L 0,5 Z" transform="translate(-1.67, -2.5)" class="sprotty-port" style="fill:rgb(48, 48, 48);stroke:rgb(48, 48, 48);"/><text class="clickable sprotty-label port" id="sprotty_ArchitectureBlockImpl$prim_dom_and_2share/BPortImpl$c0_i/label" transform="translate(6, 6) translate(11.390625, 14)" style="cursor:default;font-size:12px;perspective-origin:0px 0px;fill:rgb(48, 48, 48);text-anchor:middle;">c0_i</text></g><g id="sprotty_ArchitectureBlockImpl$prim_dom_and_2share/BPortImpl$c_valid_i" transform="translate(0, 336)" class="triangle"><path d="M 0,0 L 5,2.5 L 0,5 Z" transform="translate(-1.67, -2.5)" class="sprotty-port" style="fill:rgb(48, 48, 48);stroke:rgb(48, 48, 48);"/><text class="clickable sprotty-label port" id="sprotty_ArchitectureBlockImpl$prim_dom_and_2share/BPortImpl$c_valid_i/label" transform="translate(6, 6) translate(24.875, 14)" style="cursor:default;font-size:12px;perspective-origin:0px 0px;fill:rgb(48, 48, 48);text-anchor:middle;">c_valid_i</text></g><g id="sprotty_ArchitectureBlockImpl$prim_dom_and_2share/BPortImpl$b1_i" transform="translate(0, 199)" class="triangle"><path d="M 0,0 L 5,2.5 L 0,5 Z" transform="translate(-1.67, -2.5)" class="sprotty-port" style="fill:rgb(48, 48, 48);stroke:rgb(48, 48, 48);"/><text class="clickable sprotty-label port" id="sprotty_ArchitectureBlockImpl$prim_dom_and_2share/BPortImpl$b1_i/label" transform="translate(6, 6) translate(12.046875, 14)" style="cursor:default;font-size:12px;perspective-origin:0px 0px;fill:rgb(48, 48, 48);text-anchor:middle;">b1_i</text></g><g id="sprotty_ArchitectureBlockImpl$prim_dom_and_2share/BPortImpl$b0_i" transform="translate(0, 45)" class="triangle"><path d="M 0,0 L 5,2.5 L 0,5 Z" transform="translate(-1.67, -2.5)" class="sprotty-port" style="fill:rgb(48, 48, 48);stroke:rgb(48, 48, 48);"/><text class="clickable sprotty-label port" id="sprotty_ArchitectureBlockImpl$prim_dom_and_2share/BPortImpl$b0_i/label" transform="translate(6, 6) translate(12.046875, 14)" style="cursor:default;font-size:12px;perspective-origin:0px 0px;fill:rgb(48, 48, 48);text-anchor:middle;">b0_i</text></g><g id="sprotty_ArchitectureBlockImpl$prim_dom_and_2share/BPortImpl$a1_i" transform="translate(0, 79)" class="triangle"><path d="M 0,0 L 5,2.5 L 0,5 Z" transform="translate(-1.67, -2.5)" class="sprotty-port" style="fill:rgb(48, 48, 48);stroke:rgb(48, 48, 48);"/><text class="clickable sprotty-label port" id="sprotty_ArchitectureBlockImpl$prim_dom_and_2share/BPortImpl$a1_i/label" transform="translate(6, 6) translate(11.71875, 14)" style="cursor:default;font-size:12px;perspective-origin:0px 0px;fill:rgb(48, 48, 48);text-anchor:middle;">a1_i</text></g><g id="sprotty_ArchitectureBlockImpl$prim_dom_and_2share/BPortImpl$a0_i" transform="translate(0, 113)" class="triangle"><path d="M 0,0 L 5,2.5 L 0,5 Z" transform="translate(-1.67, -2.5)" class="sprotty-port" style="fill:rgb(48, 48, 48);stroke:rgb(48, 48, 48);"/><text class="clickable sprotty-label port" id="sprotty_ArchitectureBlockImpl$prim_dom_and_2share/BPortImpl$a0_i/label" transform="translate(6, 6) translate(11.71875, 14)" style="cursor:default;font-size:12px;perspective-origin:0px 0px;fill:rgb(48, 48, 48);text-anchor:middle;">a0_i</text></g><g id="sprotty_ArchitectureBlockImpl$prim_dom_and_2share/BPortImpl$rst_ni" transform="translate(0, 370)" class="triangle"><path d="M 0,0 L 5,2.5 L 0,5 Z" transform="translate(-1.67, -2.5)" class="sprotty-port" style="fill:rgb(48, 48, 48);stroke:rgb(48, 48, 48);"/><text class="clickable sprotty-label port" id="sprotty_ArchitectureBlockImpl$prim_dom_and_2share/BPortImpl$rst_ni/label" transform="translate(6, 6) translate(15.921875, 14)" style="cursor:default;font-size:12px;perspective-origin:0px 0px;fill:rgb(48, 48, 48);text-anchor:middle;">rst_ni</text></g><g id="sprotty_ArchitectureBlockImpl$prim_dom_and_2share/BPortImpl$clk_i" transform="translate(0, 165)" class="triangle"><path d="M 0,0 L 5,2.5 L 0,5 Z" transform="translate(-1.67, -2.5)" class="sprotty-port" style="fill:rgb(48, 48, 48);stroke:rgb(48, 48, 48);"/><text class="clickable sprotty-label port" id="sprotty_ArchitectureBlockImpl$prim_dom_and_2share/BPortImpl$clk_i/label" transform="translate(6, 6) translate(13.09375, 14)" style="cursor:default;font-size:12px;perspective-origin:0px 0px;fill:rgb(48, 48, 48);text-anchor:middle;">clk_i</text></g><g id="sprotty_ArchitectureBlockImpl$prim_dom_and_2share/BPortImpl$q0_o" transform="translate(497.890625, 55)" class="triangle"><path d="M 0,0 L 5,2.5 L 0,5 Z" transform="translate(-1.67, -2.5)" class="sprotty-port" style="fill:rgb(48, 48, 48);stroke:rgb(48, 48, 48);"/><text class="clickable sprotty-label port" id="sprotty_ArchitectureBlockImpl$prim_dom_and_2share/BPortImpl$q0_o/label" transform="translate(-34.09375, 6) translate(14.046875, 14)" style="cursor:default;font-size:12px;perspective-origin:0px 0px;fill:rgb(48, 48, 48);text-anchor:middle;">q0_o</text></g><g id="sprotty_ArchitectureBlockImpl$prim_dom_and_2share/BPortImpl$q1_o" transform="translate(497.890625, 110)" class="triangle"><path d="M 0,0 L 5,2.5 L 0,5 Z" transform="translate(-1.67, -2.5)" class="sprotty-port" style="fill:rgb(48, 48, 48);stroke:rgb(48, 48, 48);"/><text class="clickable sprotty-label port" id="sprotty_ArchitectureBlockImpl$prim_dom_and_2share/BPortImpl$q1_o/label" transform="translate(-34.09375, 6) translate(14.046875, 14)" style="cursor:default;font-size:12px;perspective-origin:0px 0px;fill:rgb(48, 48, 48);text-anchor:middle;">q1_o</text></g></g></g></svg>