<svg xmlns="http://www.w3.org/2000/svg" id="sprotty_work.tlul_payload_chk" class="sprotty-graph sprotty-block-diagram blockdiagram" style="font-family:&quot;Noto Sans&quot;, Helvetica, Arial, sans-serif;perspective-origin:0px 0px;transform-origin:0px 0px;" version="1.1" viewBox="7 7 422.40625 259" width="422.40625" height="259"><g transform="scale(1) translate(0,0)"><g id="sprotty_ArchitectureBlockImpl$tlul_payload_chk" transform="translate(12, 12)" class="architecture"><g class="sprotty-block" style="fill:rgb(255, 255, 255);stroke:rgb(48, 48, 48);stroke-dasharray:0px;"><rect x="0" y="0" rx="1" ry="1" width="412.40625" height="249"/><text x="206.203125" y="12" class="sprotty-block-name" style="cursor:pointer;font-weight:700;perspective-origin:206.359px 0px;fill:rgb(48, 48, 48);stroke:rgba(0, 0, 0, 0);dominant-baseline:middle;text-anchor:middle;">tlul_payload_chk</text><line x1="0" y1="20" x2="412.40625" y2="20"/></g><g id="sprotty_ArchitectureBlockImpl$tlul_payload_chk/AssignmentBlockImpl$err_o/GPortImpl$err_oOUT_to_ArchitectureBlockImpl$tlul_payload_chk/BPortImpl$err_o" class="sprotty-edge edge" style="fill:none;stroke:rgb(112, 112, 112);stroke-linejoin:round;"><g><path d="M 361.4375 73 L 412.40625 73 "/><path d="M 361.4375 73 L 412.40625 73 " class="clickable"/></g></g><g id="sprotty_ArchitectureBlockImpl$tlul_payload_chk/BPortImpl$tl_i_to_ArchitectureBlockImpl$tlul_payload_chk/InstantiationBlockImpl$u_chk/BPortImpl$in" class="sprotty-edge thick edge" style="fill:none;stroke:rgb(112, 112, 112);stroke-linejoin:round;stroke-width:3px;"><g><path d="M 0 46 L 46.96875 46 C 47.96875 46 48.96875 47 48.96875 48 L 48.96875 186 C 48.96875 187 49.96875 188 50.96875 188 L 58.96875 188 "/><path d="M 0 46 L 46.96875 46 C 47.96875 46 48.96875 47 48.96875 48 L 48.96875 186 C 48.96875 187 49.96875 188 50.96875 188 L 58.96875 188 " class="clickable"/></g><circle r="3" id="sprotty_ArchitectureBlockImpl$tlul_payload_chk/BPortImpl$tl_i_to_ArchitectureBlockImpl$tlul_payload_chk/InstantiationBlockImpl$u_chk/BPortImpl$in/junction0" transform="translate(48.96875, 46)" class="sprotty-junction thick" style="fill:rgb(112, 112, 112);stroke:none;"/></g><g id="sprotty_ArchitectureBlockImpl$tlul_payload_chk/BPortImpl$tl_i_to_ArchitectureBlockImpl$tlul_payload_chk/AssignmentBlockImpl$cmd/GPortImpl$tl_iIN" class="sprotty-edge thick edge" style="fill:none;stroke:rgb(112, 112, 112);stroke-linejoin:round;stroke-width:3px;"><g><path d="M 0 46 L 46.96875 46 C 47.96875 46 48.96875 47 48.96875 48 L 48.96875 89 C 48.96875 90 49.96875 91 50.96875 91 L 58.96875 91 "/><path d="M 0 46 L 46.96875 46 C 47.96875 46 48.96875 47 48.96875 48 L 48.96875 89 C 48.96875 90 49.96875 91 50.96875 91 L 58.96875 91 " class="clickable"/></g><circle r="3" id="sprotty_ArchitectureBlockImpl$tlul_payload_chk/BPortImpl$tl_i_to_ArchitectureBlockImpl$tlul_payload_chk/AssignmentBlockImpl$cmd/GPortImpl$tl_iIN/junction0" transform="translate(48.96875, 91)" class="sprotty-junction thick" style="fill:rgb(112, 112, 112);stroke:none;"/></g><g id="sprotty_ArchitectureBlockImpl$tlul_payload_chk/BPortImpl$tl_i_to_ArchitectureBlockImpl$tlul_payload_chk/AssignmentBlockImpl$err_o/GPortImpl$tl_iIN" class="sprotty-edge thick edge" style="fill:none;stroke:rgb(112, 112, 112);stroke-linejoin:round;stroke-width:3px;"><g><path d="M 0 46 L 46.96875 46 C 47.96875 46 48.96875 47 48.96875 48 L 48.96875 66 C 48.96875 67 49.96875 68 50.96875 68 L 341.71875 68 "/><path d="M 0 46 L 46.96875 46 C 47.96875 46 48.96875 47 48.96875 48 L 48.96875 66 C 48.96875 67 49.96875 68 50.96875 68 L 341.71875 68 " class="clickable"/></g><circle r="3" id="sprotty_ArchitectureBlockImpl$tlul_payload_chk/BPortImpl$tl_i_to_ArchitectureBlockImpl$tlul_payload_chk/AssignmentBlockImpl$err_o/GPortImpl$tl_iIN/junction0" transform="translate(48.96875, 68)" class="sprotty-junction thick" style="fill:rgb(112, 112, 112);stroke:none;"/></g><g id="sprotty_ArchitectureBlockImpl$tlul_payload_chk/BPortImpl$tl_i_to_ArchitectureBlockImpl$tlul_payload_chk/AssignmentBlockImpl$unused_tl/GPortImpl$tl_iIN" class="sprotty-edge thick edge" style="fill:none;stroke:rgb(112, 112, 112);stroke-linejoin:round;stroke-width:3px;"><g><path d="M 0 46 L 58.96875 46 "/><path d="M 0 46 L 58.96875 46 " class="clickable"/></g></g><g id="sprotty_ArchitectureBlockImpl$tlul_payload_chk/InstantiationBlockImpl$u_chk/BPortImpl$err_o_to_ArchitectureBlockImpl$tlul_payload_chk/AssignmentBlockImpl$err_o/GPortImpl$errIN" class="sprotty-edge thick edge" style="fill:none;stroke:rgb(112, 112, 112);stroke-linejoin:round;stroke-width:3px;"><g><path d="M 321.71875 216 L 329.71875 216 C 330.71875 216 331.71875 215 331.71875 214 L 331.71875 80 C 331.71875 79 332.71875 78 333.71875 78 L 341.71875 78 "/><path d="M 321.71875 216 L 329.71875 216 C 330.71875 216 331.71875 215 331.71875 214 L 331.71875 80 C 331.71875 79 332.71875 78 333.71875 78 L 341.71875 78 " class="clickable"/></g></g><g id="sprotty_ArchitectureBlockImpl$tlul_payload_chk/AssignmentBlockImpl$unused_tl" transform="translate(58.96875, 35)" class="statement"><rect x="0" y="0" rx="10" ry="5" width="19.71875" height="22" class="sprotty-node" style="fill:rgb(245, 245, 245);stroke:rgb(112, 112, 112);"/><text class="clickable sprotty-label statementtype" id="sprotty_ArchitectureBlockImpl$tlul_payload_chk/AssignmentBlockImpl$unused_tl/labeltype" transform="translate(5, 5) translate(4.71875, 9)" style="cursor:default;font-size:8px;font-weight:700;perspective-origin:0.140625px 0px;fill:rgb(112, 112, 112);text-anchor:middle;">&lt;=</text><g id="sprotty_ArchitectureBlockImpl$tlul_payload_chk/AssignmentBlockImpl$unused_tl/GPortImpl$tl_iIN" transform="translate(0, 11)" class="sprotty-hidden hidden" style="display:block;height:0px;width:0px;"/></g><g id="sprotty_ArchitectureBlockImpl$tlul_payload_chk/AssignmentBlockImpl$err_o" transform="translate(341.71875, 58)" class="statement"><rect x="0" y="0" rx="10" ry="5" width="19.71875" height="30" class="sprotty-node" style="fill:rgb(245, 245, 245);stroke:rgb(112, 112, 112);"/><text class="clickable sprotty-label statementtype" id="sprotty_ArchitectureBlockImpl$tlul_payload_chk/AssignmentBlockImpl$err_o/labeltype" transform="translate(5, 9) translate(4.71875, 9)" style="cursor:default;font-size:8px;font-weight:700;perspective-origin:0.140625px 0px;fill:rgb(112, 112, 112);text-anchor:middle;">&lt;=</text><g id="sprotty_ArchitectureBlockImpl$tlul_payload_chk/AssignmentBlockImpl$err_o/GPortImpl$errIN" transform="translate(0, 20)" class="sprotty-hidden hidden" style="display:block;height:0px;width:0px;"/><g id="sprotty_ArchitectureBlockImpl$tlul_payload_chk/AssignmentBlockImpl$err_o/GPortImpl$tl_iIN" transform="translate(0, 10)" class="sprotty-hidden hidden" style="display:block;height:0px;width:0px;"/><g id="sprotty_ArchitectureBlockImpl$tlul_payload_chk/AssignmentBlockImpl$err_o/GPortImpl$err_oOUT" transform="translate(19.71875, 15)" class="sprotty-hidden hidden" style="display:block;height:0px;width:0px;"/></g><g id="sprotty_ArchitectureBlockImpl$tlul_payload_chk/AssignmentBlockImpl$cmd" transform="translate(58.96875, 80)" class="statement"><rect x="0" y="0" rx="10" ry="5" width="19.71875" height="22" class="sprotty-node" style="fill:rgb(245, 245, 245);stroke:rgb(112, 112, 112);"/><text class="clickable sprotty-label statementtype" id="sprotty_ArchitectureBlockImpl$tlul_payload_chk/AssignmentBlockImpl$cmd/labeltype" transform="translate(5, 5) translate(4.71875, 9)" style="cursor:default;font-size:8px;font-weight:700;perspective-origin:0.140625px 0px;fill:rgb(112, 112, 112);text-anchor:middle;">&lt;=</text><g id="sprotty_ArchitectureBlockImpl$tlul_payload_chk/AssignmentBlockImpl$cmd/GPortImpl$tl_iIN" transform="translate(0, 11)" class="sprotty-hidden hidden" style="display:block;height:0px;width:0px;"/></g><g id="sprotty_ArchitectureBlockImpl$tlul_payload_chk/InstantiationBlockImpl$u_chk" transform="translate(58.96875, 122)" class="instantiation"><g class="sprotty-block" style="fill:rgb(255, 255, 255);stroke:rgb(48, 48, 48);stroke-dasharray:0px;"><rect x="0" y="0" rx="1" ry="1" width="262.75" height="112"/><text x="131.375" y="12" class="sprotty-block-name" style="cursor:pointer;font-weight:700;perspective-origin:131.375px 0px;fill:rgb(48, 48, 48);stroke:rgba(0, 0, 0, 0);dominant-baseline:middle;text-anchor:middle;">u_chk : prim_secded_64_57_dec</text><line x1="0" y1="20" x2="262.75" y2="20"/></g><g id="sprotty_ArchitectureBlockImpl$tlul_payload_chk/InstantiationBlockImpl$u_chk/BPortImpl$in" transform="translate(0, 66)" class="triangle"><path d="M 0,0 L 5,2.5 L 0,5 Z" transform="translate(-1.67, -2.5)" class="sprotty-port" style="fill:rgb(48, 48, 48);stroke:rgb(48, 48, 48);"/><text class="clickable sprotty-label port" id="sprotty_ArchitectureBlockImpl$tlul_payload_chk/InstantiationBlockImpl$u_chk/BPortImpl$in/label" transform="translate(6, -9) translate(5.328125, 14)" style="cursor:default;font-size:12px;perspective-origin:0px 0px;fill:rgb(48, 48, 48);text-anchor:middle;">in</text></g><g id="sprotty_ArchitectureBlockImpl$tlul_payload_chk/InstantiationBlockImpl$u_chk/BPortImpl$d_o" transform="translate(262.75, 38)" class="triangle"><path d="M 0,0 L 5,2.5 L 0,5 Z" transform="translate(-1.67, -2.5)" class="sprotty-port" style="fill:rgb(48, 48, 48);stroke:rgb(48, 48, 48);"/><text class="clickable sprotty-label port" id="sprotty_ArchitectureBlockImpl$tlul_payload_chk/InstantiationBlockImpl$u_chk/BPortImpl$d_o/label" transform="translate(-27.4375, -9) translate(10.71875, 14)" style="cursor:default;font-size:12px;perspective-origin:0px 0px;fill:rgb(48, 48, 48);text-anchor:middle;">d_o</text></g><g id="sprotty_ArchitectureBlockImpl$tlul_payload_chk/InstantiationBlockImpl$u_chk/BPortImpl$syndrome_o" transform="translate(262.75, 66)" class="triangle"><path d="M 0,0 L 5,2.5 L 0,5 Z" transform="translate(-1.67, -2.5)" class="sprotty-port" style="fill:rgb(48, 48, 48);stroke:rgb(48, 48, 48);"/><text class="clickable sprotty-label port" id="sprotty_ArchitectureBlockImpl$tlul_payload_chk/InstantiationBlockImpl$u_chk/BPortImpl$syndrome_o/label" transform="translate(-76.1875, -9) translate(35.09375, 14)" style="cursor:default;font-size:12px;perspective-origin:0px 0px;fill:rgb(48, 48, 48);text-anchor:middle;">syndrome_o</text></g><g id="sprotty_ArchitectureBlockImpl$tlul_payload_chk/InstantiationBlockImpl$u_chk/BPortImpl$err_o" transform="translate(262.75, 94)" class="triangle"><path d="M 0,0 L 5,2.5 L 0,5 Z" transform="translate(-1.67, -2.5)" class="sprotty-port" style="fill:rgb(48, 48, 48);stroke:rgb(48, 48, 48);"/><text class="clickable sprotty-label port" id="sprotty_ArchitectureBlockImpl$tlul_payload_chk/InstantiationBlockImpl$u_chk/BPortImpl$err_o/label" transform="translate(-35.96875, -9) translate(14.984375, 14)" style="cursor:default;font-size:12px;perspective-origin:0px 0px;fill:rgb(48, 48, 48);text-anchor:middle;">err_o</text></g></g><g id="sprotty_ArchitectureBlockImpl$tlul_payload_chk/BPortImpl$tl_i" transform="translate(0, 46)" class="triangle"><path d="M 0,0 L 5,2.5 L 0,5 Z" transform="translate(-1.67, -2.5)" class="sprotty-port" style="fill:rgb(48, 48, 48);stroke:rgb(48, 48, 48);"/><text class="clickable sprotty-label port" id="sprotty_ArchitectureBlockImpl$tlul_payload_chk/BPortImpl$tl_i/label" transform="translate(6, 6) translate(8.984375, 14)" style="cursor:default;font-size:12px;perspective-origin:0px 0px;fill:rgb(48, 48, 48);text-anchor:middle;">tl_i</text></g><g id="sprotty_ArchitectureBlockImpl$tlul_payload_chk/BPortImpl$err_o" transform="translate(412.40625, 73)" class="triangle"><path d="M 0,0 L 5,2.5 L 0,5 Z" transform="translate(-1.67, -2.5)" class="sprotty-port" style="fill:rgb(48, 48, 48);stroke:rgb(48, 48, 48);"/><text class="clickable sprotty-label port" id="sprotty_ArchitectureBlockImpl$tlul_payload_chk/BPortImpl$err_o/label" transform="translate(-35.96875, 6) translate(14.984375, 14)" style="cursor:default;font-size:12px;perspective-origin:0px 0px;fill:rgb(48, 48, 48);text-anchor:middle;">err_o</text></g></g></g></svg>