<svg xmlns="http://www.w3.org/2000/svg" id="sprotty_work.uart_rx" class="sprotty-graph sprotty-block-diagram blockdiagram" style="font-family:&quot;Noto Sans&quot;, Helvetica, Arial, sans-serif;perspective-origin:0px 0px;transform-origin:0px 0px;" version="1.1" viewBox="7 7 519.828125 498" width="519.828125" height="498"><g transform="scale(1) translate(0,0)"><g id="sprotty_ArchitectureBlockImpl$uart_rx" transform="translate(12, 12)" class="architecture"><g class="sprotty-block" style="fill:rgb(255, 255, 255);stroke:rgb(48, 48, 48);stroke-dasharray:0px;"><rect x="0" y="0" rx="1" ry="1" width="509.828125" height="488"/><text x="254.9140625" y="12" class="sprotty-block-name" style="cursor:pointer;font-weight:700;perspective-origin:254.922px 0px;fill:rgb(48, 48, 48);stroke:rgba(0, 0, 0, 0);dominant-baseline:middle;text-anchor:middle;">uart_rx</text><line x1="0" y1="20" x2="509.828125" y2="20"/></g><g id="sprotty_ArchitectureBlockImpl$uart_rx/AssignmentBlockImpl$tick_baud/GPortImpl$tick_baudOUT_to_ArchitectureBlockImpl$uart_rx/BPortImpl$tick_baud" class="sprotty-edge edge" style="fill:none;stroke:rgb(112, 112, 112);stroke-linejoin:round;"><g><path d="M 323.96875 255 L 509.828125 255 "/><path d="M 323.96875 255 L 509.828125 255 " class="clickable"/></g></g><g id="sprotty_ArchitectureBlockImpl$uart_rx/AssignmentBlockImpl$rx_valid/GPortImpl$rx_validOUT_to_ArchitectureBlockImpl$uart_rx/BPortImpl$rx_valid" class="sprotty-edge edge" style="fill:none;stroke:rgb(112, 112, 112);stroke-linejoin:round;"><g><path d="M 415.703125 221 L 509.828125 221 "/><path d="M 415.703125 221 L 509.828125 221 " class="clickable"/></g></g><g id="sprotty_ArchitectureBlockImpl$uart_rx/AssignmentBlockImpl$rx_data/GPortImpl$rx_dataOUT_to_ArchitectureBlockImpl$uart_rx/BPortImpl$rx_data" class="sprotty-edge thick edge" style="fill:none;stroke:rgb(112, 112, 112);stroke-linejoin:round;stroke-width:3px;"><g><path d="M 316.6302083333333 449 L 509.828125 449 "/><path d="M 316.6302083333333 449 L 509.828125 449 " class="clickable"/></g></g><g id="sprotty_ArchitectureBlockImpl$uart_rx/AssignmentBlockImpl$idle/GPortImpl$idleOUT_to_ArchitectureBlockImpl$uart_rx/BPortImpl$idle" class="sprotty-edge edge" style="fill:none;stroke:rgb(112, 112, 112);stroke-linejoin:round;"><g><path d="M 323.96875 187 L 509.828125 187 "/><path d="M 323.96875 187 L 509.828125 187 " class="clickable"/></g></g><g id="sprotty_ArchitectureBlockImpl$uart_rx/AssignmentBlockImpl$frame_err/GPortImpl$frame_errOUT_to_ArchitectureBlockImpl$uart_rx/BPortImpl$frame_err" class="sprotty-edge edge" style="fill:none;stroke:rgb(112, 112, 112);stroke-linejoin:round;"><g><path d="M 415.703125 316 L 509.828125 316 "/><path d="M 415.703125 316 L 509.828125 316 " class="clickable"/></g></g><g id="sprotty_ArchitectureBlockImpl$uart_rx/AssignmentBlockImpl$rx_parity_err/GPortImpl$rx_parity_errOUT_to_ArchitectureBlockImpl$uart_rx/BPortImpl$rx_parity_err" class="sprotty-edge edge" style="fill:none;stroke:rgb(112, 112, 112);stroke-linejoin:round;"><g><path d="M 415.703125 376 L 509.828125 376 "/><path d="M 415.703125 376 L 509.828125 376 " class="clickable"/></g></g><g id="sprotty_ArchitectureBlockImpl$uart_rx/BPortImpl$parity_enable_to_ArchitectureBlockImpl$uart_rx/AssignmentBlockImpl$rx_data/GPortImpl$parity_enableIN" class="sprotty-edge edge" style="fill:none;stroke:rgb(112, 112, 112);stroke-linejoin:round;"><g><path d="M 0 415 L 111.34375 415 C 112.34375 415 113.34375 416 113.34375 417 L 113.34375 452 C 113.34375 453 114.34375 454 115.34375 454 L 296.9114583333333 454 "/><path d="M 0 415 L 111.34375 415 C 112.34375 415 113.34375 416 113.34375 417 L 113.34375 452 C 113.34375 453 114.34375 454 115.34375 454 L 296.9114583333333 454 " class="clickable"/></g><circle r="2" id="sprotty_ArchitectureBlockImpl$uart_rx/BPortImpl$parity_enable_to_ArchitectureBlockImpl$uart_rx/AssignmentBlockImpl$rx_data/GPortImpl$parity_enableIN/junction0" transform="translate(113.34375, 415)" class="sprotty-junction junction" style="fill:rgb(112, 112, 112);stroke:none;"/></g><g id="sprotty_ArchitectureBlockImpl$uart_rx/BPortImpl$parity_enable_to_ArchitectureBlockImpl$uart_rx/AssignmentBlockImpl$rx_parity_err/GPortImpl$parity_enableIN" class="sprotty-edge edge" style="fill:none;stroke:rgb(112, 112, 112);stroke-linejoin:round;"><g><path d="M 0 415 L 363.984375 415 C 364.984375 415 365.984375 414 365.984375 413 L 365.984375 393 C 365.984375 392 366.984375 391 367.984375 391 L 395.984375 391 "/><path d="M 0 415 L 363.984375 415 C 364.984375 415 365.984375 414 365.984375 413 L 365.984375 393 C 365.984375 392 366.984375 391 367.984375 391 L 395.984375 391 " class="clickable"/></g></g><g id="sprotty_ArchitectureBlockImpl$uart_rx/BPortImpl$parity_odd_to_ArchitectureBlockImpl$uart_rx/AssignmentBlockImpl$rx_parity_err/GPortImpl$parity_oddIN" class="sprotty-edge edge" style="fill:none;stroke:rgb(112, 112, 112);stroke-linejoin:round;"><g><path d="M 0 381 L 395.984375 381 "/><path d="M 0 381 L 395.984375 381 " class="clickable"/></g></g><g id="sprotty_ArchitectureBlockImpl$uart_rx/BPortImpl$clk_i_to_ArchitectureBlockImpl$uart_rx/AlwaysBlockImpl$null15/GPortImpl$clk_iIN" class="sprotty-edge edge" style="fill:none;stroke:rgb(112, 112, 112);stroke-linejoin:round;"><g><path d="M 0 210.33333333333331 L 153.34375 210.33333333333331 "/><path d="M 0 210.33333333333331 L 153.34375 210.33333333333331 " class="clickable"/></g></g><g id="sprotty_ArchitectureBlockImpl$uart_rx/BPortImpl$rst_ni_to_ArchitectureBlockImpl$uart_rx/AlwaysBlockImpl$null15/GPortImpl$rst_niIN" class="sprotty-edge edge" style="fill:none;stroke:rgb(112, 112, 112);stroke-linejoin:round;"><g><path d="M 0 326 L 111.34375 326 C 112.34375 326 113.34375 325 113.34375 324 L 113.34375 222.33333333333331 C 113.34375 221.33333333333331 114.34375 220.33333333333331 115.34375 220.33333333333331 L 153.34375 220.33333333333331 "/><path d="M 0 326 L 111.34375 326 C 112.34375 326 113.34375 325 113.34375 324 L 113.34375 222.33333333333331 C 113.34375 221.33333333333331 114.34375 220.33333333333331 115.34375 220.33333333333331 L 153.34375 220.33333333333331 " class="clickable"/></g><circle r="2" id="sprotty_ArchitectureBlockImpl$uart_rx/BPortImpl$rst_ni_to_ArchitectureBlockImpl$uart_rx/AlwaysBlockImpl$null15/GPortImpl$rst_niIN/junction0" transform="translate(113.34375, 326)" class="sprotty-junction junction" style="fill:rgb(112, 112, 112);stroke:none;"/></g><g id="sprotty_ArchitectureBlockImpl$uart_rx/BPortImpl$rx_enable_to_ArchitectureBlockImpl$uart_rx/AlwaysBlockImpl$null14/GPortImpl$rx_enableIN" class="sprotty-edge edge" style="fill:none;stroke:rgb(112, 112, 112);stroke-linejoin:round;"><g><path d="M 0 76 L 282.234375 76 "/><path d="M 0 76 L 282.234375 76 " class="clickable"/></g></g><g id="sprotty_ArchitectureBlockImpl$uart_rx/BPortImpl$tick_baud_x16_to_ArchitectureBlockImpl$uart_rx/AlwaysBlockImpl$null14/GPortImpl$tick_baud_x16IN" class="sprotty-edge edge" style="fill:none;stroke:rgb(112, 112, 112);stroke-linejoin:round;"><g><path d="M 0 144 L 220.234375 144 C 221.234375 144 222.234375 143 222.234375 142 L 222.234375 98 C 222.234375 97 223.234375 96 224.234375 96 L 282.234375 96 "/><path d="M 0 144 L 220.234375 144 C 221.234375 144 222.234375 143 222.234375 142 L 222.234375 98 C 222.234375 97 223.234375 96 224.234375 96 L 282.234375 96 " class="clickable"/></g></g><g id="sprotty_ArchitectureBlockImpl$uart_rx/BPortImpl$rx_to_ArchitectureBlockImpl$uart_rx/AlwaysBlockImpl$null14/GPortImpl$rxIN" class="sprotty-edge edge" style="fill:none;stroke:rgb(112, 112, 112);stroke-linejoin:round;"><g><path d="M 0 110 L 210.234375 110 C 211.234375 110 212.234375 109 212.234375 108 L 212.234375 88 C 212.234375 87 213.234375 86 214.234375 86 L 282.234375 86 "/><path d="M 0 110 L 210.234375 110 C 211.234375 110 212.234375 109 212.234375 108 L 212.234375 88 C 212.234375 87 213.234375 86 214.234375 86 L 282.234375 86 " class="clickable"/></g></g><g id="sprotty_ArchitectureBlockImpl$uart_rx/BPortImpl$clk_i_to_ArchitectureBlockImpl$uart_rx/AlwaysBlockImpl$null13/GPortImpl$clk_iIN" class="sprotty-edge edge" style="fill:none;stroke:rgb(112, 112, 112);stroke-linejoin:round;"><g><path d="M 0 210.33333333333331 L 131.34375 210.33333333333331 C 132.34375 210.33333333333331 133.34375 211.33333333333331 133.34375 212.33333333333331 L 133.34375 314 C 133.34375 315 134.34375 316 135.34375 316 L 285.20625 316 "/><path d="M 0 210.33333333333331 L 131.34375 210.33333333333331 C 132.34375 210.33333333333331 133.34375 211.33333333333331 133.34375 212.33333333333331 L 133.34375 314 C 133.34375 315 134.34375 316 135.34375 316 L 285.20625 316 " class="clickable"/></g><circle r="2" id="sprotty_ArchitectureBlockImpl$uart_rx/BPortImpl$clk_i_to_ArchitectureBlockImpl$uart_rx/AlwaysBlockImpl$null13/GPortImpl$clk_iIN/junction0" transform="translate(133.34375, 210.33333333333331)" class="sprotty-junction junction" style="fill:rgb(112, 112, 112);stroke:none;"/></g><g id="sprotty_ArchitectureBlockImpl$uart_rx/BPortImpl$rst_ni_to_ArchitectureBlockImpl$uart_rx/AlwaysBlockImpl$null13/GPortImpl$rst_niIN" class="sprotty-edge edge" style="fill:none;stroke:rgb(112, 112, 112);stroke-linejoin:round;"><g><path d="M 0 326 L 285.20625 326 "/><path d="M 0 326 L 285.20625 326 " class="clickable"/></g></g><g id="sprotty_ArchitectureBlockImpl$uart_rx/AlwaysBlockImpl$null13/GPortImpl$rx_valid_qOUT_to_ArchitectureBlockImpl$uart_rx/AssignmentBlockImpl$rx_valid/GPortImpl$rx_valid_qIN" class="sprotty-edge edge" style="fill:none;stroke:rgb(112, 112, 112);stroke-linejoin:round;"><g><path d="M 334.096875 311 L 373.984375 311 C 374.984375 311 375.984375 310 375.984375 309 L 375.984375 223 C 375.984375 222 376.984375 221 377.984375 221 L 395.984375 221 "/><path d="M 334.096875 311 L 373.984375 311 C 374.984375 311 375.984375 310 375.984375 309 L 375.984375 223 C 375.984375 222 376.984375 221 377.984375 221 L 395.984375 221 " class="clickable"/></g><circle r="2" id="sprotty_ArchitectureBlockImpl$uart_rx/AlwaysBlockImpl$null13/GPortImpl$rx_valid_qOUT_to_ArchitectureBlockImpl$uart_rx/AssignmentBlockImpl$rx_valid/GPortImpl$rx_valid_qIN/junction0" transform="translate(375.984375, 311)" class="sprotty-junction junction" style="fill:rgb(112, 112, 112);stroke:none;"/></g><g id="sprotty_ArchitectureBlockImpl$uart_rx/AlwaysBlockImpl$null13/GPortImpl$rx_valid_qOUT_to_ArchitectureBlockImpl$uart_rx/AssignmentBlockImpl$frame_err/GPortImpl$rx_valid_qIN" class="sprotty-edge edge" style="fill:none;stroke:rgb(112, 112, 112);stroke-linejoin:round;"><g><path d="M 334.096875 311 L 395.984375 311 "/><path d="M 334.096875 311 L 395.984375 311 " class="clickable"/></g></g><g id="sprotty_ArchitectureBlockImpl$uart_rx/AlwaysBlockImpl$null13/GPortImpl$rx_valid_qOUT_to_ArchitectureBlockImpl$uart_rx/AssignmentBlockImpl$rx_parity_err/GPortImpl$rx_valid_qIN" class="sprotty-edge edge" style="fill:none;stroke:rgb(112, 112, 112);stroke-linejoin:round;"><g><path d="M 334.096875 311 L 373.984375 311 C 374.984375 311 375.984375 312 375.984375 313 L 375.984375 359 C 375.984375 360 376.984375 361 377.984375 361 L 395.984375 361 "/><path d="M 334.096875 311 L 373.984375 311 C 374.984375 311 375.984375 312 375.984375 313 L 375.984375 359 C 375.984375 360 376.984375 361 377.984375 361 L 395.984375 361 " class="clickable"/></g></g><g id="sprotty_ArchitectureBlockImpl$uart_rx/AlwaysBlockImpl$null15/GPortImpl$sreg_qOUT_to_ArchitectureBlockImpl$uart_rx/AssignmentBlockImpl$rx_data/GPortImpl$sreg_qIN" class="sprotty-edge thick edge" style="fill:none;stroke:rgb(112, 112, 112);stroke-linejoin:round;stroke-width:3px;"><g><path d="M 202.234375 227 L 250.234375 227 C 251.234375 227 252.234375 228 252.234375 229 L 252.234375 442 C 252.234375 443 253.234375 444 254.234375 444 L 296.9114583333333 444 "/><path d="M 202.234375 227 L 250.234375 227 C 251.234375 227 252.234375 228 252.234375 229 L 252.234375 442 C 252.234375 443 253.234375 444 254.234375 444 L 296.9114583333333 444 " class="clickable"/></g><circle r="3" id="sprotty_ArchitectureBlockImpl$uart_rx/AlwaysBlockImpl$null15/GPortImpl$sreg_qOUT_to_ArchitectureBlockImpl$uart_rx/AssignmentBlockImpl$rx_data/GPortImpl$sreg_qIN/junction0" transform="translate(252.234375, 227)" class="sprotty-junction thick" style="fill:rgb(112, 112, 112);stroke:none;"/></g><g id="sprotty_ArchitectureBlockImpl$uart_rx/AlwaysBlockImpl$null15/GPortImpl$sreg_qOUT_to_ArchitectureBlockImpl$uart_rx/AssignmentBlockImpl$frame_err/GPortImpl$sreg_qIN" class="sprotty-edge thick edge" style="fill:none;stroke:rgb(112, 112, 112);stroke-linejoin:round;stroke-width:3px;"><g><path d="M 202.234375 227 L 250.234375 227 C 251.234375 227 252.234375 228 252.234375 229 L 252.234375 369 C 252.234375 370 253.234375 371 254.234375 371 L 363.984375 371 C 364.984375 371 365.984375 370 365.984375 369 L 365.984375 323 C 365.984375 322 366.984375 321 367.984375 321 L 395.984375 321 "/><path d="M 202.234375 227 L 250.234375 227 C 251.234375 227 252.234375 228 252.234375 229 L 252.234375 369 C 252.234375 370 253.234375 371 254.234375 371 L 363.984375 371 C 364.984375 371 365.984375 370 365.984375 369 L 365.984375 323 C 365.984375 322 366.984375 321 367.984375 321 L 395.984375 321 " class="clickable"/></g><circle r="3" id="sprotty_ArchitectureBlockImpl$uart_rx/AlwaysBlockImpl$null15/GPortImpl$sreg_qOUT_to_ArchitectureBlockImpl$uart_rx/AssignmentBlockImpl$frame_err/GPortImpl$sreg_qIN/junction0" transform="translate(252.234375, 371)" class="sprotty-junction thick" style="fill:rgb(112, 112, 112);stroke:none;"/><circle r="3" id="sprotty_ArchitectureBlockImpl$uart_rx/AlwaysBlockImpl$null15/GPortImpl$sreg_qOUT_to_ArchitectureBlockImpl$uart_rx/AssignmentBlockImpl$frame_err/GPortImpl$sreg_qIN/junction1" transform="translate(365.984375, 371)" class="sprotty-junction thick" style="fill:rgb(112, 112, 112);stroke:none;"/></g><g id="sprotty_ArchitectureBlockImpl$uart_rx/AlwaysBlockImpl$null15/GPortImpl$sreg_qOUT_to_ArchitectureBlockImpl$uart_rx/AssignmentBlockImpl$rx_parity_err/GPortImpl$sreg_qIN" class="sprotty-edge thick edge" style="fill:none;stroke:rgb(112, 112, 112);stroke-linejoin:round;stroke-width:3px;"><g><path d="M 202.234375 227 L 250.234375 227 C 251.234375 227 252.234375 228 252.234375 229 L 252.234375 369 C 252.234375 370 253.234375 371 254.234375 371 L 395.984375 371 "/><path d="M 202.234375 227 L 250.234375 227 C 251.234375 227 252.234375 228 252.234375 229 L 252.234375 369 C 252.234375 370 253.234375 371 254.234375 371 L 395.984375 371 " class="clickable"/></g></g><g id="sprotty_ArchitectureBlockImpl$uart_rx/AlwaysBlockImpl$null15/GPortImpl$sreg_qOUT_to_ArchitectureBlockImpl$uart_rx/AlwaysBlockImpl$null14/GPortImpl$sreg_qIN" class="sprotty-edge thick edge" style="fill:none;stroke:rgb(112, 112, 112);stroke-linejoin:round;stroke-width:3px;"><g><path d="M 202.234375 227 L 250.234375 227 C 251.234375 227 252.234375 226 252.234375 225 L 252.234375 148 C 252.234375 147 253.234375 146 254.234375 146 L 282.234375 146 "/><path d="M 202.234375 227 L 250.234375 227 C 251.234375 227 252.234375 226 252.234375 225 L 252.234375 148 C 252.234375 147 253.234375 146 254.234375 146 L 282.234375 146 " class="clickable"/></g></g><g id="sprotty_ArchitectureBlockImpl$uart_rx/AlwaysBlockImpl$null14/GPortImpl$sreg_dOUT_to_ArchitectureBlockImpl$uart_rx/AlwaysBlockImpl$null15/GPortImpl$sreg_dIN" class="sprotty-edge thick edge" style="fill:none;stroke:rgb(112, 112, 112);stroke-linejoin:round;stroke-width:3px;"><g><path d="M 345.984375 111 L 373.984375 111 C 374.984375 111 375.984375 110 375.984375 109 L 375.984375 44 C 375.984375 43 374.984375 42 373.984375 42 L 125.34375 42 C 124.34375 42 123.34375 43 123.34375 44 L 123.34375 188.33333333333331 C 123.34375 189.33333333333331 124.34375 190.33333333333331 125.34375 190.33333333333331 L 153.34375 190.33333333333331 "/><path d="M 345.984375 111 L 373.984375 111 C 374.984375 111 375.984375 110 375.984375 109 L 375.984375 44 C 375.984375 43 374.984375 42 373.984375 42 L 125.34375 42 C 124.34375 42 123.34375 43 123.34375 44 L 123.34375 188.33333333333331 C 123.34375 189.33333333333331 124.34375 190.33333333333331 125.34375 190.33333333333331 L 153.34375 190.33333333333331 " class="clickable"/></g></g><g id="sprotty_ArchitectureBlockImpl$uart_rx/AlwaysBlockImpl$null15/GPortImpl$bit_cnt_qOUT_to_ArchitectureBlockImpl$uart_rx/AlwaysBlockImpl$null14/GPortImpl$bit_cnt_qIN" class="sprotty-edge thick edge" style="fill:none;stroke:rgb(112, 112, 112);stroke-linejoin:round;stroke-width:3px;"><g><path d="M 202.234375 200.33333333333331 L 260.234375 200.33333333333331 C 261.234375 200.33333333333331 262.234375 199.33333333333331 262.234375 198.33333333333331 L 262.234375 128 C 262.234375 127 263.234375 126 264.234375 126 L 282.234375 126 "/><path d="M 202.234375 200.33333333333331 L 260.234375 200.33333333333331 C 261.234375 200.33333333333331 262.234375 199.33333333333331 262.234375 198.33333333333331 L 262.234375 128 C 262.234375 127 263.234375 126 264.234375 126 L 282.234375 126 " class="clickable"/></g><circle r="3" id="sprotty_ArchitectureBlockImpl$uart_rx/AlwaysBlockImpl$null15/GPortImpl$bit_cnt_qOUT_to_ArchitectureBlockImpl$uart_rx/AlwaysBlockImpl$null14/GPortImpl$bit_cnt_qIN/junction0" transform="translate(262.234375, 200.33333333333331)" class="sprotty-junction thick" style="fill:rgb(112, 112, 112);stroke:none;"/></g><g id="sprotty_ArchitectureBlockImpl$uart_rx/AlwaysBlockImpl$null15/GPortImpl$bit_cnt_qOUT_to_ArchitectureBlockImpl$uart_rx/AlwaysBlockImpl$null13/GPortImpl$bit_cnt_qIN" class="sprotty-edge thick edge" style="fill:none;stroke:rgb(112, 112, 112);stroke-linejoin:round;stroke-width:3px;"><g><path d="M 202.234375 200.33333333333331 L 260.234375 200.33333333333331 C 261.234375 200.33333333333331 262.234375 201.33333333333331 262.234375 202.33333333333331 L 262.234375 294 C 262.234375 295 263.234375 296 264.234375 296 L 285.20625 296 "/><path d="M 202.234375 200.33333333333331 L 260.234375 200.33333333333331 C 261.234375 200.33333333333331 262.234375 201.33333333333331 262.234375 202.33333333333331 L 262.234375 294 C 262.234375 295 263.234375 296 264.234375 296 L 285.20625 296 " class="clickable"/></g></g><g id="sprotty_ArchitectureBlockImpl$uart_rx/AlwaysBlockImpl$null14/GPortImpl$bit_cnt_dOUT_to_ArchitectureBlockImpl$uart_rx/AlwaysBlockImpl$null15/GPortImpl$bit_cnt_dIN" class="sprotty-edge thick edge" style="fill:none;stroke:rgb(112, 112, 112);stroke-linejoin:round;stroke-width:3px;"><g><path d="M 345.984375 126 L 383.984375 126 C 384.984375 126 385.984375 125 385.984375 124 L 385.984375 37 C 385.984375 36 384.984375 35 383.984375 35 L 115.34375 35 C 114.34375 35 113.34375 36 113.34375 37 L 113.34375 198.33333333333331 C 113.34375 199.33333333333331 114.34375 200.33333333333331 115.34375 200.33333333333331 L 153.34375 200.33333333333331 "/><path d="M 345.984375 126 L 383.984375 126 C 384.984375 126 385.984375 125 385.984375 124 L 385.984375 37 C 385.984375 36 384.984375 35 383.984375 35 L 115.34375 35 C 114.34375 35 113.34375 36 113.34375 37 L 113.34375 198.33333333333331 C 113.34375 199.33333333333331 114.34375 200.33333333333331 115.34375 200.33333333333331 L 153.34375 200.33333333333331 " class="clickable"/></g></g><g id="sprotty_ArchitectureBlockImpl$uart_rx/AlwaysBlockImpl$null15/GPortImpl$baud_div_qOUT_to_ArchitectureBlockImpl$uart_rx/AlwaysBlockImpl$null14/GPortImpl$baud_div_qIN" class="sprotty-edge thick edge" style="fill:none;stroke:rgb(112, 112, 112);stroke-linejoin:round;stroke-width:3px;"><g><path d="M 202.234375 173.66666666666666 L 230.234375 173.66666666666666 C 231.234375 173.66666666666666 232.234375 172.66666666666666 232.234375 171.66666666666666 L 232.234375 108 C 232.234375 107 233.234375 106 234.234375 106 L 282.234375 106 "/><path d="M 202.234375 173.66666666666666 L 230.234375 173.66666666666666 C 231.234375 173.66666666666666 232.234375 172.66666666666666 232.234375 171.66666666666666 L 232.234375 108 C 232.234375 107 233.234375 106 234.234375 106 L 282.234375 106 " class="clickable"/></g></g><g id="sprotty_ArchitectureBlockImpl$uart_rx/AlwaysBlockImpl$null14/GPortImpl$baud_div_dOUT_to_ArchitectureBlockImpl$uart_rx/AlwaysBlockImpl$null15/GPortImpl$baud_div_dIN" class="sprotty-edge thick edge" style="fill:none;stroke:rgb(112, 112, 112);stroke-linejoin:round;stroke-width:3px;"><g><path d="M 345.984375 81 L 353.984375 81 C 354.984375 81 355.984375 80 355.984375 79 L 355.984375 58 C 355.984375 57 354.984375 56 353.984375 56 L 145.34375 56 C 144.34375 56 143.34375 57 143.34375 58 L 143.34375 168.33333333333331 C 143.34375 169.33333333333331 144.34375 170.33333333333331 145.34375 170.33333333333331 L 153.34375 170.33333333333331 "/><path d="M 345.984375 81 L 353.984375 81 C 354.984375 81 355.984375 80 355.984375 79 L 355.984375 58 C 355.984375 57 354.984375 56 353.984375 56 L 145.34375 56 C 144.34375 56 143.34375 57 143.34375 58 L 143.34375 168.33333333333331 C 143.34375 169.33333333333331 144.34375 170.33333333333331 145.34375 170.33333333333331 L 153.34375 170.33333333333331 " class="clickable"/></g></g><g id="sprotty_ArchitectureBlockImpl$uart_rx/AlwaysBlockImpl$null14/GPortImpl$tick_baud_dOUT_to_ArchitectureBlockImpl$uart_rx/AlwaysBlockImpl$null15/GPortImpl$tick_baud_dIN" class="sprotty-edge edge" style="fill:none;stroke:rgb(112, 112, 112);stroke-linejoin:round;"><g><path d="M 345.984375 96 L 363.984375 96 C 364.984375 96 365.984375 95 365.984375 94 L 365.984375 51 C 365.984375 50 364.984375 49 363.984375 49 L 135.34375 49 C 134.34375 49 133.34375 50 133.34375 51 L 133.34375 178.33333333333331 C 133.34375 179.33333333333331 134.34375 180.33333333333331 135.34375 180.33333333333331 L 153.34375 180.33333333333331 "/><path d="M 345.984375 96 L 363.984375 96 C 364.984375 96 365.984375 95 365.984375 94 L 365.984375 51 C 365.984375 50 364.984375 49 363.984375 49 L 135.34375 49 C 134.34375 49 133.34375 50 133.34375 51 L 133.34375 178.33333333333331 C 133.34375 179.33333333333331 134.34375 180.33333333333331 135.34375 180.33333333333331 L 153.34375 180.33333333333331 " class="clickable"/></g></g><g id="sprotty_ArchitectureBlockImpl$uart_rx/AlwaysBlockImpl$null15/GPortImpl$tick_baud_qOUT_to_ArchitectureBlockImpl$uart_rx/AssignmentBlockImpl$tick_baud/GPortImpl$tick_baud_qIN" class="sprotty-edge edge" style="fill:none;stroke:rgb(112, 112, 112);stroke-linejoin:round;"><g><path d="M 202.234375 213.66666666666666 L 270.234375 213.66666666666666 C 271.234375 213.66666666666666 272.234375 214.66666666666666 272.234375 215.66666666666666 L 272.234375 253 C 272.234375 254 273.234375 255 274.234375 255 L 304.25 255 "/><path d="M 202.234375 213.66666666666666 L 270.234375 213.66666666666666 C 271.234375 213.66666666666666 272.234375 214.66666666666666 272.234375 215.66666666666666 L 272.234375 253 C 272.234375 254 273.234375 255 274.234375 255 L 304.25 255 " class="clickable"/></g><circle r="2" id="sprotty_ArchitectureBlockImpl$uart_rx/AlwaysBlockImpl$null15/GPortImpl$tick_baud_qOUT_to_ArchitectureBlockImpl$uart_rx/AssignmentBlockImpl$tick_baud/GPortImpl$tick_baud_qIN/junction0" transform="translate(272.234375, 213.66666666666666)" class="sprotty-junction junction" style="fill:rgb(112, 112, 112);stroke:none;"/><circle r="2" id="sprotty_ArchitectureBlockImpl$uart_rx/AlwaysBlockImpl$null15/GPortImpl$tick_baud_qOUT_to_ArchitectureBlockImpl$uart_rx/AssignmentBlockImpl$tick_baud/GPortImpl$tick_baud_qIN/junction1" transform="translate(272.234375, 255)" class="sprotty-junction junction" style="fill:rgb(112, 112, 112);stroke:none;"/></g><g id="sprotty_ArchitectureBlockImpl$uart_rx/AlwaysBlockImpl$null15/GPortImpl$tick_baud_qOUT_to_ArchitectureBlockImpl$uart_rx/AlwaysBlockImpl$null14/GPortImpl$tick_baud_qIN" class="sprotty-edge edge" style="fill:none;stroke:rgb(112, 112, 112);stroke-linejoin:round;"><g><path d="M 202.234375 213.66666666666666 L 270.234375 213.66666666666666 C 271.234375 213.66666666666666 272.234375 212.66666666666666 272.234375 211.66666666666666 L 272.234375 138 C 272.234375 137 273.234375 136 274.234375 136 L 282.234375 136 "/><path d="M 202.234375 213.66666666666666 L 270.234375 213.66666666666666 C 271.234375 213.66666666666666 272.234375 212.66666666666666 272.234375 211.66666666666666 L 272.234375 138 C 272.234375 137 273.234375 136 274.234375 136 L 282.234375 136 " class="clickable"/></g></g><g id="sprotty_ArchitectureBlockImpl$uart_rx/AlwaysBlockImpl$null15/GPortImpl$tick_baud_qOUT_to_ArchitectureBlockImpl$uart_rx/AlwaysBlockImpl$null13/GPortImpl$tick_baud_qIN" class="sprotty-edge edge" style="fill:none;stroke:rgb(112, 112, 112);stroke-linejoin:round;"><g><path d="M 202.234375 213.66666666666666 L 270.234375 213.66666666666666 C 271.234375 213.66666666666666 272.234375 214.66666666666666 272.234375 215.66666666666666 L 272.234375 304 C 272.234375 305 273.234375 306 274.234375 306 L 285.20625 306 "/><path d="M 202.234375 213.66666666666666 L 270.234375 213.66666666666666 C 271.234375 213.66666666666666 272.234375 214.66666666666666 272.234375 215.66666666666666 L 272.234375 304 C 272.234375 305 273.234375 306 274.234375 306 L 285.20625 306 " class="clickable"/></g></g><g id="sprotty_ArchitectureBlockImpl$uart_rx/AlwaysBlockImpl$null14/GPortImpl$idle_dOUT_to_ArchitectureBlockImpl$uart_rx/AlwaysBlockImpl$null15/GPortImpl$idle_dIN" class="sprotty-edge edge" style="fill:none;stroke:rgb(112, 112, 112);stroke-linejoin:round;"><g><path d="M 345.984375 141 L 353.984375 141 C 354.984375 141 355.984375 142 355.984375 143 L 355.984375 422 C 355.984375 423 354.984375 424 353.984375 424 L 125.34375 424 C 124.34375 424 123.34375 423 123.34375 422 L 123.34375 232.33333333333331 C 123.34375 231.33333333333331 124.34375 230.33333333333331 125.34375 230.33333333333331 L 153.34375 230.33333333333331 "/><path d="M 345.984375 141 L 353.984375 141 C 354.984375 141 355.984375 142 355.984375 143 L 355.984375 422 C 355.984375 423 354.984375 424 353.984375 424 L 125.34375 424 C 124.34375 424 123.34375 423 123.34375 422 L 123.34375 232.33333333333331 C 123.34375 231.33333333333331 124.34375 230.33333333333331 125.34375 230.33333333333331 L 153.34375 230.33333333333331 " class="clickable"/></g></g><g id="sprotty_ArchitectureBlockImpl$uart_rx/AlwaysBlockImpl$null15/GPortImpl$idle_qOUT_to_ArchitectureBlockImpl$uart_rx/AssignmentBlockImpl$idle/GPortImpl$idle_qIN" class="sprotty-edge edge" style="fill:none;stroke:rgb(112, 112, 112);stroke-linejoin:round;"><g><path d="M 202.234375 186.99999999999997 L 304.25 187 "/><path d="M 202.234375 186.99999999999997 L 304.25 187 " class="clickable"/></g></g><g id="sprotty_ArchitectureBlockImpl$uart_rx/AlwaysBlockImpl$null15/GPortImpl$idle_qOUT_to_ArchitectureBlockImpl$uart_rx/AlwaysBlockImpl$null14/GPortImpl$idle_qIN" class="sprotty-edge edge" style="fill:none;stroke:rgb(112, 112, 112);stroke-linejoin:round;"><g><path d="M 202.234375 186.99999999999997 L 240.234375 187 C 241.234375 187 242.234375 186 242.234375 185 L 242.234375 118 C 242.234375 117 243.234375 116 244.234375 116 L 282.234375 116 "/><path d="M 202.234375 186.99999999999997 L 240.234375 187 C 241.234375 187 242.234375 186 242.234375 185 L 242.234375 118 C 242.234375 117 243.234375 116 244.234375 116 L 282.234375 116 " class="clickable"/></g><circle r="2" id="sprotty_ArchitectureBlockImpl$uart_rx/AlwaysBlockImpl$null15/GPortImpl$idle_qOUT_to_ArchitectureBlockImpl$uart_rx/AlwaysBlockImpl$null14/GPortImpl$idle_qIN/junction0" transform="translate(242.234375, 187)" class="sprotty-junction junction" style="fill:rgb(112, 112, 112);stroke:none;"/></g><g id="sprotty_ArchitectureBlockImpl$uart_rx/AlwaysBlockImpl$null13" transform="translate(285.20625, 286)" class="statement"><rect x="0" y="0" rx="10" ry="5" width="48.890625" height="50" class="sprotty-node" style="fill:rgb(245, 245, 245);stroke:rgb(112, 112, 112);"/><text class="clickable sprotty-label statementtype" id="sprotty_ArchitectureBlockImpl$uart_rx/AlwaysBlockImpl$null13/labeltype" transform="translate(5, 19) translate(18.828125, 9)" style="cursor:default;font-size:8px;font-weight:700;perspective-origin:0.609375px 0px;fill:rgb(112, 112, 112);text-anchor:middle;">always_ff</text><g id="sprotty_ArchitectureBlockImpl$uart_rx/AlwaysBlockImpl$null13/GPortImpl$bit_cnt_qIN" transform="translate(0, 10)" class="sprotty-hidden hidden" style="display:block;height:0px;width:0px;"/><g id="sprotty_ArchitectureBlockImpl$uart_rx/AlwaysBlockImpl$null13/GPortImpl$tick_baud_qIN" transform="translate(0, 20)" class="sprotty-hidden hidden" style="display:block;height:0px;width:0px;"/><g id="sprotty_ArchitectureBlockImpl$uart_rx/AlwaysBlockImpl$null13/GPortImpl$rst_niIN" transform="translate(0, 40)" class="sprotty-hidden hidden" style="display:block;height:0px;width:0px;"/><g id="sprotty_ArchitectureBlockImpl$uart_rx/AlwaysBlockImpl$null13/GPortImpl$clk_iIN" transform="translate(0, 30)" class="sprotty-hidden hidden" style="display:block;height:0px;width:0px;"/><g id="sprotty_ArchitectureBlockImpl$uart_rx/AlwaysBlockImpl$null13/GPortImpl$rx_valid_qOUT" transform="translate(48.890625, 25)" class="sprotty-hidden hidden" style="display:block;height:0px;width:0px;"/></g><g id="sprotty_ArchitectureBlockImpl$uart_rx/AlwaysBlockImpl$null14" transform="translate(282.234375, 66)" class="statement"><rect x="0" y="0" rx="10" ry="5" width="63.75" height="90" class="sprotty-node" style="fill:rgb(245, 245, 245);stroke:rgb(112, 112, 112);"/><text class="clickable sprotty-label statementtype" id="sprotty_ArchitectureBlockImpl$uart_rx/AlwaysBlockImpl$null14/labeltype" transform="translate(5, 39) translate(26.875, 9)" style="cursor:default;font-size:8px;font-weight:700;perspective-origin:0px 0px;fill:rgb(112, 112, 112);text-anchor:middle;">always_comb</text><g id="sprotty_ArchitectureBlockImpl$uart_rx/AlwaysBlockImpl$null14/GPortImpl$tick_baud_qIN" transform="translate(0, 70)" class="sprotty-hidden hidden" style="display:block;height:0px;width:0px;"/><g id="sprotty_ArchitectureBlockImpl$uart_rx/AlwaysBlockImpl$null14/GPortImpl$rxIN" transform="translate(0, 20)" class="sprotty-hidden hidden" style="display:block;height:0px;width:0px;"/><g id="sprotty_ArchitectureBlockImpl$uart_rx/AlwaysBlockImpl$null14/GPortImpl$tick_baud_x16IN" transform="translate(0, 30)" class="sprotty-hidden hidden" style="display:block;height:0px;width:0px;"/><g id="sprotty_ArchitectureBlockImpl$uart_rx/AlwaysBlockImpl$null14/GPortImpl$idle_qIN" transform="translate(0, 50)" class="sprotty-hidden hidden" style="display:block;height:0px;width:0px;"/><g id="sprotty_ArchitectureBlockImpl$uart_rx/AlwaysBlockImpl$null14/GPortImpl$baud_div_qIN" transform="translate(0, 40)" class="sprotty-hidden hidden" style="display:block;height:0px;width:0px;"/><g id="sprotty_ArchitectureBlockImpl$uart_rx/AlwaysBlockImpl$null14/GPortImpl$bit_cnt_qIN" transform="translate(0, 60)" class="sprotty-hidden hidden" style="display:block;height:0px;width:0px;"/><g id="sprotty_ArchitectureBlockImpl$uart_rx/AlwaysBlockImpl$null14/GPortImpl$sreg_qIN" transform="translate(0, 80)" class="sprotty-hidden hidden" style="display:block;height:0px;width:0px;"/><g id="sprotty_ArchitectureBlockImpl$uart_rx/AlwaysBlockImpl$null14/GPortImpl$rx_enableIN" transform="translate(0, 10)" class="sprotty-hidden hidden" style="display:block;height:0px;width:0px;"/><g id="sprotty_ArchitectureBlockImpl$uart_rx/AlwaysBlockImpl$null14/GPortImpl$sreg_dOUT" transform="translate(63.75, 45)" class="sprotty-hidden hidden" style="display:block;height:0px;width:0px;"/><g id="sprotty_ArchitectureBlockImpl$uart_rx/AlwaysBlockImpl$null14/GPortImpl$bit_cnt_dOUT" transform="translate(63.75, 60)" class="sprotty-hidden hidden" style="display:block;height:0px;width:0px;"/><g id="sprotty_ArchitectureBlockImpl$uart_rx/AlwaysBlockImpl$null14/GPortImpl$baud_div_dOUT" transform="translate(63.75, 15)" class="sprotty-hidden hidden" style="display:block;height:0px;width:0px;"/><g id="sprotty_ArchitectureBlockImpl$uart_rx/AlwaysBlockImpl$null14/GPortImpl$tick_baud_dOUT" transform="translate(63.75, 30)" class="sprotty-hidden hidden" style="display:block;height:0px;width:0px;"/><g id="sprotty_ArchitectureBlockImpl$uart_rx/AlwaysBlockImpl$null14/GPortImpl$idle_dOUT" transform="translate(63.75, 75)" class="sprotty-hidden hidden" style="display:block;height:0px;width:0px;"/></g><g id="sprotty_ArchitectureBlockImpl$uart_rx/AlwaysBlockImpl$null15" transform="translate(153.34375, 160.33333333333331)" class="statement"><rect x="0" y="0" rx="10" ry="5" width="48.890625" height="80" class="sprotty-node" style="fill:rgb(245, 245, 245);stroke:rgb(112, 112, 112);"/><text class="clickable sprotty-label statementtype" id="sprotty_ArchitectureBlockImpl$uart_rx/AlwaysBlockImpl$null15/labeltype" transform="translate(5, 34) translate(18.828125, 9)" style="cursor:default;font-size:8px;font-weight:700;perspective-origin:0.609375px 0px;fill:rgb(112, 112, 112);text-anchor:middle;">always_ff</text><g id="sprotty_ArchitectureBlockImpl$uart_rx/AlwaysBlockImpl$null15/GPortImpl$idle_dIN" transform="translate(0, 70)" class="sprotty-hidden hidden" style="display:block;height:0px;width:0px;"/><g id="sprotty_ArchitectureBlockImpl$uart_rx/AlwaysBlockImpl$null15/GPortImpl$tick_baud_dIN" transform="translate(0, 20)" class="sprotty-hidden hidden" style="display:block;height:0px;width:0px;"/><g id="sprotty_ArchitectureBlockImpl$uart_rx/AlwaysBlockImpl$null15/GPortImpl$baud_div_dIN" transform="translate(0, 10)" class="sprotty-hidden hidden" style="display:block;height:0px;width:0px;"/><g id="sprotty_ArchitectureBlockImpl$uart_rx/AlwaysBlockImpl$null15/GPortImpl$bit_cnt_dIN" transform="translate(0, 40)" class="sprotty-hidden hidden" style="display:block;height:0px;width:0px;"/><g id="sprotty_ArchitectureBlockImpl$uart_rx/AlwaysBlockImpl$null15/GPortImpl$sreg_dIN" transform="translate(0, 30)" class="sprotty-hidden hidden" style="display:block;height:0px;width:0px;"/><g id="sprotty_ArchitectureBlockImpl$uart_rx/AlwaysBlockImpl$null15/GPortImpl$rst_niIN" transform="translate(0, 60)" class="sprotty-hidden hidden" style="display:block;height:0px;width:0px;"/><g id="sprotty_ArchitectureBlockImpl$uart_rx/AlwaysBlockImpl$null15/GPortImpl$clk_iIN" transform="translate(0, 50)" class="sprotty-hidden hidden" style="display:block;height:0px;width:0px;"/><g id="sprotty_ArchitectureBlockImpl$uart_rx/AlwaysBlockImpl$null15/GPortImpl$sreg_qOUT" transform="translate(48.890625, 66.66666666666667)" class="sprotty-hidden hidden" style="display:block;height:0px;width:0px;"/><g id="sprotty_ArchitectureBlockImpl$uart_rx/AlwaysBlockImpl$null15/GPortImpl$bit_cnt_qOUT" transform="translate(48.890625, 40)" class="sprotty-hidden hidden" style="display:block;height:0px;width:0px;"/><g id="sprotty_ArchitectureBlockImpl$uart_rx/AlwaysBlockImpl$null15/GPortImpl$baud_div_qOUT" transform="translate(48.890625, 13.333333333333334)" class="sprotty-hidden hidden" style="display:block;height:0px;width:0px;"/><g id="sprotty_ArchitectureBlockImpl$uart_rx/AlwaysBlockImpl$null15/GPortImpl$tick_baud_qOUT" transform="translate(48.890625, 53.333333333333336)" class="sprotty-hidden hidden" style="display:block;height:0px;width:0px;"/><g id="sprotty_ArchitectureBlockImpl$uart_rx/AlwaysBlockImpl$null15/GPortImpl$idle_qOUT" transform="translate(48.890625, 26.666666666666668)" class="sprotty-hidden hidden" style="display:block;height:0px;width:0px;"/></g><g id="sprotty_ArchitectureBlockImpl$uart_rx/AssignmentBlockImpl$rx_parity_err" transform="translate(395.984375, 351)" class="statement"><rect x="0" y="0" rx="10" ry="5" width="19.71875" height="50" class="sprotty-node" style="fill:rgb(245, 245, 245);stroke:rgb(112, 112, 112);"/><text class="clickable sprotty-label statementtype" id="sprotty_ArchitectureBlockImpl$uart_rx/AssignmentBlockImpl$rx_parity_err/labeltype" transform="translate(5, 19) translate(4.71875, 9)" style="cursor:default;font-size:8px;font-weight:700;perspective-origin:0.140625px 0px;fill:rgb(112, 112, 112);text-anchor:middle;">&lt;=</text><g id="sprotty_ArchitectureBlockImpl$uart_rx/AssignmentBlockImpl$rx_parity_err/GPortImpl$parity_oddIN" transform="translate(0, 30)" class="sprotty-hidden hidden" style="display:block;height:0px;width:0px;"/><g id="sprotty_ArchitectureBlockImpl$uart_rx/AssignmentBlockImpl$rx_parity_err/GPortImpl$sreg_qIN" transform="translate(0, 20)" class="sprotty-hidden hidden" style="display:block;height:0px;width:0px;"/><g id="sprotty_ArchitectureBlockImpl$uart_rx/AssignmentBlockImpl$rx_parity_err/GPortImpl$rx_valid_qIN" transform="translate(0, 10)" class="sprotty-hidden hidden" style="display:block;height:0px;width:0px;"/><g id="sprotty_ArchitectureBlockImpl$uart_rx/AssignmentBlockImpl$rx_parity_err/GPortImpl$parity_enableIN" transform="translate(0, 40)" class="sprotty-hidden hidden" style="display:block;height:0px;width:0px;"/><g id="sprotty_ArchitectureBlockImpl$uart_rx/AssignmentBlockImpl$rx_parity_err/GPortImpl$rx_parity_errOUT" transform="translate(19.71875, 25)" class="sprotty-hidden hidden" style="display:block;height:0px;width:0px;"/></g><g id="sprotty_ArchitectureBlockImpl$uart_rx/AssignmentBlockImpl$frame_err" transform="translate(395.984375, 301)" class="statement"><rect x="0" y="0" rx="10" ry="5" width="19.71875" height="30" class="sprotty-node" style="fill:rgb(245, 245, 245);stroke:rgb(112, 112, 112);"/><text class="clickable sprotty-label statementtype" id="sprotty_ArchitectureBlockImpl$uart_rx/AssignmentBlockImpl$frame_err/labeltype" transform="translate(5, 9) translate(4.71875, 9)" style="cursor:default;font-size:8px;font-weight:700;perspective-origin:0.140625px 0px;fill:rgb(112, 112, 112);text-anchor:middle;">&lt;=</text><g id="sprotty_ArchitectureBlockImpl$uart_rx/AssignmentBlockImpl$frame_err/GPortImpl$sreg_qIN" transform="translate(0, 20)" class="sprotty-hidden hidden" style="display:block;height:0px;width:0px;"/><g id="sprotty_ArchitectureBlockImpl$uart_rx/AssignmentBlockImpl$frame_err/GPortImpl$rx_valid_qIN" transform="translate(0, 10)" class="sprotty-hidden hidden" style="display:block;height:0px;width:0px;"/><g id="sprotty_ArchitectureBlockImpl$uart_rx/AssignmentBlockImpl$frame_err/GPortImpl$frame_errOUT" transform="translate(19.71875, 15)" class="sprotty-hidden hidden" style="display:block;height:0px;width:0px;"/></g><g id="sprotty_ArchitectureBlockImpl$uart_rx/AssignmentBlockImpl$rx_data" transform="translate(296.9114583333333, 434)" class="statement"><rect x="0" y="0" rx="10" ry="5" width="19.71875" height="30" class="sprotty-node" style="fill:rgb(245, 245, 245);stroke:rgb(112, 112, 112);"/><text class="clickable sprotty-label statementtype" id="sprotty_ArchitectureBlockImpl$uart_rx/AssignmentBlockImpl$rx_data/labeltype" transform="translate(5, 9) translate(4.71875, 9)" style="cursor:default;font-size:8px;font-weight:700;perspective-origin:0.140625px 0px;fill:rgb(112, 112, 112);text-anchor:middle;">&lt;=</text><g id="sprotty_ArchitectureBlockImpl$uart_rx/AssignmentBlockImpl$rx_data/GPortImpl$sreg_qIN" transform="translate(0, 10)" class="sprotty-hidden hidden" style="display:block;height:0px;width:0px;"/><g id="sprotty_ArchitectureBlockImpl$uart_rx/AssignmentBlockImpl$rx_data/GPortImpl$parity_enableIN" transform="translate(0, 20)" class="sprotty-hidden hidden" style="display:block;height:0px;width:0px;"/><g id="sprotty_ArchitectureBlockImpl$uart_rx/AssignmentBlockImpl$rx_data/GPortImpl$rx_dataOUT" transform="translate(19.71875, 15)" class="sprotty-hidden hidden" style="display:block;height:0px;width:0px;"/></g><g id="sprotty_ArchitectureBlockImpl$uart_rx/AssignmentBlockImpl$rx_valid" transform="translate(395.984375, 210)" class="statement"><rect x="0" y="0" rx="10" ry="5" width="19.71875" height="22" class="sprotty-node" style="fill:rgb(245, 245, 245);stroke:rgb(112, 112, 112);"/><text class="clickable sprotty-label statementtype" id="sprotty_ArchitectureBlockImpl$uart_rx/AssignmentBlockImpl$rx_valid/labeltype" transform="translate(5, 5) translate(4.71875, 9)" style="cursor:default;font-size:8px;font-weight:700;perspective-origin:0.140625px 0px;fill:rgb(112, 112, 112);text-anchor:middle;">&lt;=</text><g id="sprotty_ArchitectureBlockImpl$uart_rx/AssignmentBlockImpl$rx_valid/GPortImpl$rx_valid_qIN" transform="translate(0, 11)" class="sprotty-hidden hidden" style="display:block;height:0px;width:0px;"/><g id="sprotty_ArchitectureBlockImpl$uart_rx/AssignmentBlockImpl$rx_valid/GPortImpl$rx_validOUT" transform="translate(19.71875, 11)" class="sprotty-hidden hidden" style="display:block;height:0px;width:0px;"/></g><g id="sprotty_ArchitectureBlockImpl$uart_rx/AssignmentBlockImpl$idle" transform="translate(304.25, 176)" class="statement"><rect x="0" y="0" rx="10" ry="5" width="19.71875" height="22" class="sprotty-node" style="fill:rgb(245, 245, 245);stroke:rgb(112, 112, 112);"/><text class="clickable sprotty-label statementtype" id="sprotty_ArchitectureBlockImpl$uart_rx/AssignmentBlockImpl$idle/labeltype" transform="translate(5, 5) translate(4.71875, 9)" style="cursor:default;font-size:8px;font-weight:700;perspective-origin:0.140625px 0px;fill:rgb(112, 112, 112);text-anchor:middle;">&lt;=</text><g id="sprotty_ArchitectureBlockImpl$uart_rx/AssignmentBlockImpl$idle/GPortImpl$idle_qIN" transform="translate(0, 11)" class="sprotty-hidden hidden" style="display:block;height:0px;width:0px;"/><g id="sprotty_ArchitectureBlockImpl$uart_rx/AssignmentBlockImpl$idle/GPortImpl$idleOUT" transform="translate(19.71875, 11)" class="sprotty-hidden hidden" style="display:block;height:0px;width:0px;"/></g><g id="sprotty_ArchitectureBlockImpl$uart_rx/AssignmentBlockImpl$tick_baud" transform="translate(304.25, 244)" class="statement"><rect x="0" y="0" rx="10" ry="5" width="19.71875" height="22" class="sprotty-node" style="fill:rgb(245, 245, 245);stroke:rgb(112, 112, 112);"/><text class="clickable sprotty-label statementtype" id="sprotty_ArchitectureBlockImpl$uart_rx/AssignmentBlockImpl$tick_baud/labeltype" transform="translate(5, 5) translate(4.71875, 9)" style="cursor:default;font-size:8px;font-weight:700;perspective-origin:0.140625px 0px;fill:rgb(112, 112, 112);text-anchor:middle;">&lt;=</text><g id="sprotty_ArchitectureBlockImpl$uart_rx/AssignmentBlockImpl$tick_baud/GPortImpl$tick_baud_qIN" transform="translate(0, 11)" class="sprotty-hidden hidden" style="display:block;height:0px;width:0px;"/><g id="sprotty_ArchitectureBlockImpl$uart_rx/AssignmentBlockImpl$tick_baud/GPortImpl$tick_baudOUT" transform="translate(19.71875, 11)" class="sprotty-hidden hidden" style="display:block;height:0px;width:0px;"/></g><g id="sprotty_ArchitectureBlockImpl$uart_rx/BPortImpl$rx" transform="translate(0, 110)" class="triangle"><path d="M 0,0 L 5,2.5 L 0,5 Z" transform="translate(-1.67, -2.5)" class="sprotty-port" style="fill:rgb(48, 48, 48);stroke:rgb(48, 48, 48);"/><text class="clickable sprotty-label port" id="sprotty_ArchitectureBlockImpl$uart_rx/BPortImpl$rx/label" transform="translate(6, 6) translate(5.328125, 14)" style="cursor:default;font-size:12px;perspective-origin:0px 0px;fill:rgb(48, 48, 48);text-anchor:middle;">rx</text></g><g id="sprotty_ArchitectureBlockImpl$uart_rx/BPortImpl$parity_odd" transform="translate(0, 381)" class="triangle"><path d="M 0,0 L 5,2.5 L 0,5 Z" transform="translate(-1.67, -2.5)" class="sprotty-port" style="fill:rgb(48, 48, 48);stroke:rgb(48, 48, 48);"/><text class="clickable sprotty-label port" id="sprotty_ArchitectureBlockImpl$uart_rx/BPortImpl$parity_odd/label" transform="translate(6, 6) translate(30.8125, 14)" style="cursor:default;font-size:12px;perspective-origin:0px 0px;fill:rgb(48, 48, 48);text-anchor:middle;">parity_odd</text></g><g id="sprotty_ArchitectureBlockImpl$uart_rx/BPortImpl$parity_enable" transform="translate(0, 415)" class="triangle"><path d="M 0,0 L 5,2.5 L 0,5 Z" transform="translate(-1.67, -2.5)" class="sprotty-port" style="fill:rgb(48, 48, 48);stroke:rgb(48, 48, 48);"/><text class="clickable sprotty-label port" id="sprotty_ArchitectureBlockImpl$uart_rx/BPortImpl$parity_enable/label" transform="translate(6, 6) translate(38.859375, 14)" style="cursor:default;font-size:12px;perspective-origin:0.171875px 0px;fill:rgb(48, 48, 48);text-anchor:middle;">parity_enable</text></g><g id="sprotty_ArchitectureBlockImpl$uart_rx/BPortImpl$tick_baud_x16" transform="translate(0, 144)" class="triangle"><path d="M 0,0 L 5,2.5 L 0,5 Z" transform="translate(-1.67, -2.5)" class="sprotty-port" style="fill:rgb(48, 48, 48);stroke:rgb(48, 48, 48);"/><text class="clickable sprotty-label port" id="sprotty_ArchitectureBlockImpl$uart_rx/BPortImpl$tick_baud_x16/label" transform="translate(6, 6) translate(41, 14)" style="cursor:default;font-size:12px;perspective-origin:0.171875px 0px;fill:rgb(48, 48, 48);text-anchor:middle;">tick_baud_x16</text></g><g id="sprotty_ArchitectureBlockImpl$uart_rx/BPortImpl$rx_enable" transform="translate(0, 76)" class="triangle"><path d="M 0,0 L 5,2.5 L 0,5 Z" transform="translate(-1.67, -2.5)" class="sprotty-port" style="fill:rgb(48, 48, 48);stroke:rgb(48, 48, 48);"/><text class="clickable sprotty-label port" id="sprotty_ArchitectureBlockImpl$uart_rx/BPortImpl$rx_enable/label" transform="translate(6, 6) translate(27.796875, 14)" style="cursor:default;font-size:12px;perspective-origin:0.171875px 0px;fill:rgb(48, 48, 48);text-anchor:middle;">rx_enable</text></g><g id="sprotty_ArchitectureBlockImpl$uart_rx/BPortImpl$rst_ni" transform="translate(0, 326)" class="triangle"><path d="M 0,0 L 5,2.5 L 0,5 Z" transform="translate(-1.67, -2.5)" class="sprotty-port" style="fill:rgb(48, 48, 48);stroke:rgb(48, 48, 48);"/><text class="clickable sprotty-label port" id="sprotty_ArchitectureBlockImpl$uart_rx/BPortImpl$rst_ni/label" transform="translate(6, 6) translate(15.921875, 14)" style="cursor:default;font-size:12px;perspective-origin:0px 0px;fill:rgb(48, 48, 48);text-anchor:middle;">rst_ni</text></g><g id="sprotty_ArchitectureBlockImpl$uart_rx/BPortImpl$clk_i" transform="translate(0, 210.33333333333331)" class="triangle"><path d="M 0,0 L 5,2.5 L 0,5 Z" transform="translate(-1.67, -2.5)" class="sprotty-port" style="fill:rgb(48, 48, 48);stroke:rgb(48, 48, 48);"/><text class="clickable sprotty-label port" id="sprotty_ArchitectureBlockImpl$uart_rx/BPortImpl$clk_i/label" transform="translate(6, 6) translate(13.09375, 14)" style="cursor:default;font-size:12px;perspective-origin:0px 0px;fill:rgb(48, 48, 48);text-anchor:middle;">clk_i</text></g><g id="sprotty_ArchitectureBlockImpl$uart_rx/BPortImpl$tick_baud" transform="translate(509.828125, 255)" class="triangle"><path d="M 0,0 L 5,2.5 L 0,5 Z" transform="translate(-1.67, -2.5)" class="sprotty-port" style="fill:rgb(48, 48, 48);stroke:rgb(48, 48, 48);"/><text class="clickable sprotty-label port" id="sprotty_ArchitectureBlockImpl$uart_rx/BPortImpl$tick_baud/label" transform="translate(-62, 6) translate(28, 14)" style="cursor:default;font-size:12px;perspective-origin:0px 0px;fill:rgb(48, 48, 48);text-anchor:middle;">tick_baud</text></g><g id="sprotty_ArchitectureBlockImpl$uart_rx/BPortImpl$rx_valid" transform="translate(509.828125, 221)" class="triangle"><path d="M 0,0 L 5,2.5 L 0,5 Z" transform="translate(-1.67, -2.5)" class="sprotty-port" style="fill:rgb(48, 48, 48);stroke:rgb(48, 48, 48);"/><text class="clickable sprotty-label port" id="sprotty_ArchitectureBlockImpl$uart_rx/BPortImpl$rx_valid/label" transform="translate(-50.28125, 6) translate(22.140625, 14)" style="cursor:default;font-size:12px;perspective-origin:0px 0px;fill:rgb(48, 48, 48);text-anchor:middle;">rx_valid</text></g><g id="sprotty_ArchitectureBlockImpl$uart_rx/BPortImpl$rx_data" transform="translate(509.828125, 449)" class="triangle"><path d="M 0,0 L 5,2.5 L 0,5 Z" transform="translate(-1.67, -2.5)" class="sprotty-port" style="fill:rgb(48, 48, 48);stroke:rgb(48, 48, 48);"/><text class="clickable sprotty-label port" id="sprotty_ArchitectureBlockImpl$uart_rx/BPortImpl$rx_data/label" transform="translate(-48.375, 6) translate(21.1875, 14)" style="cursor:default;font-size:12px;perspective-origin:0px 0px;fill:rgb(48, 48, 48);text-anchor:middle;">rx_data</text></g><g id="sprotty_ArchitectureBlockImpl$uart_rx/BPortImpl$idle" transform="translate(509.828125, 187)" class="triangle"><path d="M 0,0 L 5,2.5 L 0,5 Z" transform="translate(-1.67, -2.5)" class="sprotty-port" style="fill:rgb(48, 48, 48);stroke:rgb(48, 48, 48);"/><text class="clickable sprotty-label port" id="sprotty_ArchitectureBlockImpl$uart_rx/BPortImpl$idle/label" transform="translate(-27.171875, 6) translate(10.40625, 14)" style="cursor:default;font-size:12px;perspective-origin:0.171875px 0px;fill:rgb(48, 48, 48);text-anchor:middle;">idle</text></g><g id="sprotty_ArchitectureBlockImpl$uart_rx/BPortImpl$frame_err" transform="translate(509.828125, 316)" class="triangle"><path d="M 0,0 L 5,2.5 L 0,5 Z" transform="translate(-1.67, -2.5)" class="sprotty-port" style="fill:rgb(48, 48, 48);stroke:rgb(48, 48, 48);"/><text class="clickable sprotty-label port" id="sprotty_ArchitectureBlockImpl$uart_rx/BPortImpl$frame_err/label" transform="translate(-61.78125, 6) translate(27.71875, 14)" style="cursor:default;font-size:12px;perspective-origin:0.171875px 0px;fill:rgb(48, 48, 48);text-anchor:middle;">frame_err</text></g><g id="sprotty_ArchitectureBlockImpl$uart_rx/BPortImpl$rx_parity_err" transform="translate(509.828125, 376)" class="triangle"><path d="M 0,0 L 5,2.5 L 0,5 Z" transform="translate(-1.67, -2.5)" class="sprotty-port" style="fill:rgb(48, 48, 48);stroke:rgb(48, 48, 48);"/><text class="clickable sprotty-label port" id="sprotty_ArchitectureBlockImpl$uart_rx/BPortImpl$rx_parity_err/label" transform="translate(-79.125, 6) translate(36.390625, 14)" style="cursor:default;font-size:12px;perspective-origin:0.171875px 0px;fill:rgb(48, 48, 48);text-anchor:middle;">rx_parity_err</text></g></g></g></svg>