<svg xmlns="http://www.w3.org/2000/svg" id="sprotty_work.otbn_rf_base_fpga" class="sprotty-graph sprotty-block-diagram blockdiagram" style="font-family:&quot;Noto Sans&quot;, Helvetica, Arial, sans-serif;perspective-origin:0px 0px;transform-origin:0px 0px;" version="1.1" viewBox="7 7 378.90625 310" width="378.90625" height="310"><g transform="scale(1) translate(0,0)"><g id="sprotty_ArchitectureBlockImpl$otbn_rf_base_fpga" transform="translate(12, 12)" class="architecture"><g class="sprotty-block" style="fill:rgb(255, 255, 255);stroke:rgb(48, 48, 48);stroke-dasharray:0px;"><rect x="0" y="0" rx="1" ry="1" width="368.90625" height="300"/><text x="184.453125" y="12" class="sprotty-block-name" style="cursor:pointer;font-weight:700;perspective-origin:184.453px 0px;fill:rgb(48, 48, 48);stroke:rgba(0, 0, 0, 0);dominant-baseline:middle;text-anchor:middle;">otbn_rf_base_fpga</text><line x1="0" y1="20" x2="368.90625" y2="20"/></g><g id="sprotty_ArchitectureBlockImpl$otbn_rf_base_fpga/AlwaysBlockImpl$g_rf_reg/GPortImpl$wr_addr_iOUT_to_ArchitectureBlockImpl$otbn_rf_base_fpga/BPortImpl$wr_addr_i" class="sprotty-edge thick edge" style="fill:none;stroke:rgb(112, 112, 112);stroke-linejoin:round;stroke-width:3px;"><g><path d="M 226.375 125.33333333333333 L 234.375 125.33333333333333 C 235.375 125.33333333333333 236.375 124.33333333333333 236.375 123.33333333333333 L 236.375 72 C 236.375 71 235.375 70 234.375 70 L 0 70 "/><path d="M 226.375 125.33333333333333 L 234.375 125.33333333333333 C 235.375 125.33333333333333 236.375 124.33333333333333 236.375 123.33333333333333 L 236.375 72 C 236.375 71 235.375 70 234.375 70 L 0 70 " class="clickable"/></g></g><g id="sprotty_ArchitectureBlockImpl$otbn_rf_base_fpga/AssignmentBlockImpl$rd_data_a_o/GPortImpl$rd_data_a_oOUT_to_ArchitectureBlockImpl$otbn_rf_base_fpga/BPortImpl$rd_data_a_o" class="sprotty-edge thick edge" style="fill:none;stroke:rgb(112, 112, 112);stroke-linejoin:round;stroke-width:3px;"><g><path d="M 276.09375 135.66666666666666 L 368.90625 135.66666666666666 "/><path d="M 276.09375 135.66666666666666 L 368.90625 135.66666666666666 " class="clickable"/></g></g><g id="sprotty_ArchitectureBlockImpl$otbn_rf_base_fpga/AssignmentBlockImpl$rd_data_b_o/GPortImpl$rd_data_b_oOUT_to_ArchitectureBlockImpl$otbn_rf_base_fpga/BPortImpl$rd_data_b_o" class="sprotty-edge thick edge" style="fill:none;stroke:rgb(112, 112, 112);stroke-linejoin:round;stroke-width:3px;"><g><path d="M 276.09375 201 L 368.90625 201 "/><path d="M 276.09375 201 L 368.90625 201 " class="clickable"/></g></g><g id="sprotty_ArchitectureBlockImpl$otbn_rf_base_fpga/BPortImpl$rst_ni_to_ArchitectureBlockImpl$otbn_rf_base_fpga/AssignmentBlockImpl$unused_rst_ni/GPortImpl$rst_niIN" class="sprotty-edge edge" style="fill:none;stroke:rgb(112, 112, 112);stroke-linejoin:round;"><g><path d="M 0 261 L 52.84375 261 "/><path d="M 0 261 L 52.84375 261 " class="clickable"/></g></g><g id="sprotty_ArchitectureBlockImpl$otbn_rf_base_fpga/BPortImpl$wr_addr_i_to_ArchitectureBlockImpl$otbn_rf_base_fpga/AssignmentBlockImpl$wr_en/GPortImpl$wr_addr_iIN" class="sprotty-edge thick edge" style="fill:none;stroke:rgb(112, 112, 112);stroke-linejoin:round;stroke-width:3px;"><g><path d="M 0 70 L 98.125 70 C 99.125 70 100.125 71 100.125 72 L 100.125 126 C 100.125 127 101.125 128 102.125 128 L 110.125 128 "/><path d="M 0 70 L 98.125 70 C 99.125 70 100.125 71 100.125 72 L 100.125 126 C 100.125 127 101.125 128 102.125 128 L 110.125 128 " class="clickable"/></g><circle r="3" id="sprotty_ArchitectureBlockImpl$otbn_rf_base_fpga/BPortImpl$wr_addr_i_to_ArchitectureBlockImpl$otbn_rf_base_fpga/AssignmentBlockImpl$wr_en/GPortImpl$wr_addr_iIN/junction0" transform="translate(100.125, 70)" class="sprotty-junction thick" style="fill:rgb(112, 112, 112);stroke:none;"/></g><g id="sprotty_ArchitectureBlockImpl$otbn_rf_base_fpga/BPortImpl$wr_en_i_to_ArchitectureBlockImpl$otbn_rf_base_fpga/AssignmentBlockImpl$wr_en/GPortImpl$wr_en_iIN" class="sprotty-edge edge" style="fill:none;stroke:rgb(112, 112, 112);stroke-linejoin:round;"><g><path d="M 0 138 L 110.125 138 "/><path d="M 0 138 L 110.125 138 " class="clickable"/></g></g><g id="sprotty_ArchitectureBlockImpl$otbn_rf_base_fpga/BPortImpl$rd_addr_a_i_to_ArchitectureBlockImpl$otbn_rf_base_fpga/AssignmentBlockImpl$rd_data_a_o/GPortImpl$rd_addr_a_iIN" class="sprotty-edge thick edge" style="fill:none;stroke:rgb(112, 112, 112);stroke-linejoin:round;stroke-width:3px;"><g><path d="M 0 36 L 244.375 36 C 245.375 36 246.375 37 246.375 38 L 246.375 128.66666666666666 C 246.375 129.66666666666666 247.375 130.66666666666666 248.375 130.66666666666666 L 256.375 130.66666666666666 "/><path d="M 0 36 L 244.375 36 C 245.375 36 246.375 37 246.375 38 L 246.375 128.66666666666666 C 246.375 129.66666666666666 247.375 130.66666666666666 248.375 130.66666666666666 L 256.375 130.66666666666666 " class="clickable"/></g></g><g id="sprotty_ArchitectureBlockImpl$otbn_rf_base_fpga/BPortImpl$rd_addr_b_i_to_ArchitectureBlockImpl$otbn_rf_base_fpga/AssignmentBlockImpl$rd_data_b_o/GPortImpl$rd_addr_b_iIN" class="sprotty-edge thick edge" style="fill:none;stroke:rgb(112, 112, 112);stroke-linejoin:round;stroke-width:3px;"><g><path d="M 0 206 L 256.375 206 "/><path d="M 0 206 L 256.375 206 " class="clickable"/></g></g><g id="sprotty_ArchitectureBlockImpl$otbn_rf_base_fpga/BPortImpl$clk_i_to_ArchitectureBlockImpl$otbn_rf_base_fpga/AlwaysBlockImpl$g_rf_reg/GPortImpl$clk_iIN" class="sprotty-edge edge" style="fill:none;stroke:rgb(112, 112, 112);stroke-linejoin:round;"><g><path d="M 0 104 L 137.84375 104 C 138.84375 104 139.84375 105 139.84375 106 L 139.84375 119.5 C 139.84375 120.5 140.84375 121.5 141.84375 121.5 L 149.84375 121.5 "/><path d="M 0 104 L 137.84375 104 C 138.84375 104 139.84375 105 139.84375 106 L 139.84375 119.5 C 139.84375 120.5 140.84375 121.5 141.84375 121.5 L 149.84375 121.5 " class="clickable"/></g></g><g id="sprotty_ArchitectureBlockImpl$otbn_rf_base_fpga/BPortImpl$wr_data_i_to_ArchitectureBlockImpl$otbn_rf_base_fpga/AlwaysBlockImpl$g_rf_reg/GPortImpl$wr_data_iIN" class="sprotty-edge thick edge" style="fill:none;stroke:rgb(112, 112, 112);stroke-linejoin:round;stroke-width:3px;"><g><path d="M 0 172 L 137.84375 172 C 138.84375 172 139.84375 171 139.84375 170 L 139.84375 146.5 C 139.84375 145.5 140.84375 144.5 141.84375 144.5 L 149.84375 144.5 "/><path d="M 0 172 L 137.84375 172 C 138.84375 172 139.84375 171 139.84375 170 L 139.84375 146.5 C 139.84375 145.5 140.84375 144.5 141.84375 144.5 L 149.84375 144.5 " class="clickable"/></g></g><g id="sprotty_ArchitectureBlockImpl$otbn_rf_base_fpga/AlwaysBlockImpl$g_rf_reg/GPortImpl$rf_regOUT_to_ArchitectureBlockImpl$otbn_rf_base_fpga/AssignmentBlockImpl$rd_data_a_o/GPortImpl$rf_regIN" class="sprotty-edge thick edge" style="fill:none;stroke:rgb(112, 112, 112);stroke-linejoin:round;stroke-width:3px;"><g><path d="M 226.375 140.66666666666666 L 256.375 140.66666666666666 "/><path d="M 226.375 140.66666666666666 L 256.375 140.66666666666666 " class="clickable"/></g></g><g id="sprotty_ArchitectureBlockImpl$otbn_rf_base_fpga/AlwaysBlockImpl$g_rf_reg/GPortImpl$rf_regOUT_to_ArchitectureBlockImpl$otbn_rf_base_fpga/AssignmentBlockImpl$rd_data_b_o/GPortImpl$rf_regIN" class="sprotty-edge thick edge" style="fill:none;stroke:rgb(112, 112, 112);stroke-linejoin:round;stroke-width:3px;"><g><path d="M 226.375 140.66666666666666 L 234.375 140.66666666666666 C 235.375 140.66666666666666 236.375 141.66666666666666 236.375 142.66666666666666 L 236.375 194 C 236.375 195 237.375 196 238.375 196 L 256.375 196 "/><path d="M 226.375 140.66666666666666 L 234.375 140.66666666666666 C 235.375 140.66666666666666 236.375 141.66666666666666 236.375 142.66666666666666 L 236.375 194 C 236.375 195 237.375 196 238.375 196 L 256.375 196 " class="clickable"/></g><circle r="3" id="sprotty_ArchitectureBlockImpl$otbn_rf_base_fpga/AlwaysBlockImpl$g_rf_reg/GPortImpl$rf_regOUT_to_ArchitectureBlockImpl$otbn_rf_base_fpga/AssignmentBlockImpl$rd_data_b_o/GPortImpl$rf_regIN/junction0" transform="translate(236.375, 140.66666666666666)" class="sprotty-junction thick" style="fill:rgb(112, 112, 112);stroke:none;"/></g><g id="sprotty_ArchitectureBlockImpl$otbn_rf_base_fpga/AssignmentBlockImpl$wr_en/GPortImpl$wr_enOUT_to_ArchitectureBlockImpl$otbn_rf_base_fpga/AlwaysBlockImpl$g_rf_reg/GPortImpl$wr_enIN" class="sprotty-edge edge" style="fill:none;stroke:rgb(112, 112, 112);stroke-linejoin:round;"><g><path d="M 129.84375 133 L 149.84375 133 "/><path d="M 129.84375 133 L 149.84375 133 " class="clickable"/></g></g><g id="sprotty_ArchitectureBlockImpl$otbn_rf_base_fpga/AlwaysBlockImpl$g_rf_reg" transform="translate(149.84375, 110)" class="statement"><rect x="0" y="0" rx="10" ry="5" width="76.53125" height="46" class="sprotty-node" style="fill:rgb(245, 245, 245);stroke:rgb(112, 112, 112);"/><text class="clickable sprotty-label statementtext" id="sprotty_ArchitectureBlockImpl$otbn_rf_base_fpga/AlwaysBlockImpl$g_rf_reg/labeltext" transform="translate(5, 5) translate(33.046875, 19)" style="cursor:default;font-weight:700;perspective-origin:0.21875px 0px;fill:rgb(112, 112, 112);text-anchor:middle;">g_rf_reg</text><text class="clickable sprotty-label statementtype" id="sprotty_ArchitectureBlockImpl$otbn_rf_base_fpga/AlwaysBlockImpl$g_rf_reg/labeltype" transform="translate(18.8203125, 29) translate(18.828125, 9)" style="cursor:default;font-size:8px;font-weight:700;perspective-origin:0.609375px 0px;fill:rgb(112, 112, 112);text-anchor:middle;">always_ff</text><g id="sprotty_ArchitectureBlockImpl$otbn_rf_base_fpga/AlwaysBlockImpl$g_rf_reg/GPortImpl$wr_data_iIN" transform="translate(0, 34.5)" class="sprotty-hidden hidden" style="display:block;height:0px;width:0px;"/><g id="sprotty_ArchitectureBlockImpl$otbn_rf_base_fpga/AlwaysBlockImpl$g_rf_reg/GPortImpl$wr_enIN" transform="translate(0, 23)" class="sprotty-hidden hidden" style="display:block;height:0px;width:0px;"/><g id="sprotty_ArchitectureBlockImpl$otbn_rf_base_fpga/AlwaysBlockImpl$g_rf_reg/GPortImpl$clk_iIN" transform="translate(0, 11.5)" class="sprotty-hidden hidden" style="display:block;height:0px;width:0px;"/><g id="sprotty_ArchitectureBlockImpl$otbn_rf_base_fpga/AlwaysBlockImpl$g_rf_reg/GPortImpl$wr_addr_iOUT" transform="translate(76.53125, 15.333333333333332)" class="sprotty-hidden hidden" style="display:block;height:0px;width:0px;"/><g id="sprotty_ArchitectureBlockImpl$otbn_rf_base_fpga/AlwaysBlockImpl$g_rf_reg/GPortImpl$rf_regOUT" transform="translate(76.53125, 30.666666666666664)" class="sprotty-hidden hidden" style="display:block;height:0px;width:0px;"/></g><g id="sprotty_ArchitectureBlockImpl$otbn_rf_base_fpga/AssignmentBlockImpl$rd_data_b_o" transform="translate(256.375, 186)" class="statement"><rect x="0" y="0" rx="10" ry="5" width="19.71875" height="30" class="sprotty-node" style="fill:rgb(245, 245, 245);stroke:rgb(112, 112, 112);"/><text class="clickable sprotty-label statementtype" id="sprotty_ArchitectureBlockImpl$otbn_rf_base_fpga/AssignmentBlockImpl$rd_data_b_o/labeltype" transform="translate(5, 9) translate(4.71875, 9)" style="cursor:default;font-size:8px;font-weight:700;perspective-origin:0.140625px 0px;fill:rgb(112, 112, 112);text-anchor:middle;">&lt;=</text><g id="sprotty_ArchitectureBlockImpl$otbn_rf_base_fpga/AssignmentBlockImpl$rd_data_b_o/GPortImpl$rf_regIN" transform="translate(0, 10)" class="sprotty-hidden hidden" style="display:block;height:0px;width:0px;"/><g id="sprotty_ArchitectureBlockImpl$otbn_rf_base_fpga/AssignmentBlockImpl$rd_data_b_o/GPortImpl$rd_addr_b_iIN" transform="translate(0, 20)" class="sprotty-hidden hidden" style="display:block;height:0px;width:0px;"/><g id="sprotty_ArchitectureBlockImpl$otbn_rf_base_fpga/AssignmentBlockImpl$rd_data_b_o/GPortImpl$rd_data_b_oOUT" transform="translate(19.71875, 15)" class="sprotty-hidden hidden" style="display:block;height:0px;width:0px;"/></g><g id="sprotty_ArchitectureBlockImpl$otbn_rf_base_fpga/AssignmentBlockImpl$rd_data_a_o" transform="translate(256.375, 120.66666666666666)" class="statement"><rect x="0" y="0" rx="10" ry="5" width="19.71875" height="30" class="sprotty-node" style="fill:rgb(245, 245, 245);stroke:rgb(112, 112, 112);"/><text class="clickable sprotty-label statementtype" id="sprotty_ArchitectureBlockImpl$otbn_rf_base_fpga/AssignmentBlockImpl$rd_data_a_o/labeltype" transform="translate(5, 9) translate(4.71875, 9)" style="cursor:default;font-size:8px;font-weight:700;perspective-origin:0.140625px 0px;fill:rgb(112, 112, 112);text-anchor:middle;">&lt;=</text><g id="sprotty_ArchitectureBlockImpl$otbn_rf_base_fpga/AssignmentBlockImpl$rd_data_a_o/GPortImpl$rf_regIN" transform="translate(0, 20)" class="sprotty-hidden hidden" style="display:block;height:0px;width:0px;"/><g id="sprotty_ArchitectureBlockImpl$otbn_rf_base_fpga/AssignmentBlockImpl$rd_data_a_o/GPortImpl$rd_addr_a_iIN" transform="translate(0, 10)" class="sprotty-hidden hidden" style="display:block;height:0px;width:0px;"/><g id="sprotty_ArchitectureBlockImpl$otbn_rf_base_fpga/AssignmentBlockImpl$rd_data_a_o/GPortImpl$rd_data_a_oOUT" transform="translate(19.71875, 15)" class="sprotty-hidden hidden" style="display:block;height:0px;width:0px;"/></g><g id="sprotty_ArchitectureBlockImpl$otbn_rf_base_fpga/AssignmentBlockImpl$wr_en" transform="translate(110.125, 118)" class="statement"><rect x="0" y="0" rx="10" ry="5" width="19.71875" height="30" class="sprotty-node" style="fill:rgb(245, 245, 245);stroke:rgb(112, 112, 112);"/><text class="clickable sprotty-label statementtype" id="sprotty_ArchitectureBlockImpl$otbn_rf_base_fpga/AssignmentBlockImpl$wr_en/labeltype" transform="translate(5, 9) translate(4.71875, 9)" style="cursor:default;font-size:8px;font-weight:700;perspective-origin:0.140625px 0px;fill:rgb(112, 112, 112);text-anchor:middle;">&lt;=</text><g id="sprotty_ArchitectureBlockImpl$otbn_rf_base_fpga/AssignmentBlockImpl$wr_en/GPortImpl$wr_en_iIN" transform="translate(0, 20)" class="sprotty-hidden hidden" style="display:block;height:0px;width:0px;"/><g id="sprotty_ArchitectureBlockImpl$otbn_rf_base_fpga/AssignmentBlockImpl$wr_en/GPortImpl$wr_addr_iIN" transform="translate(0, 10)" class="sprotty-hidden hidden" style="display:block;height:0px;width:0px;"/><g id="sprotty_ArchitectureBlockImpl$otbn_rf_base_fpga/AssignmentBlockImpl$wr_en/GPortImpl$wr_enOUT" transform="translate(19.71875, 15)" class="sprotty-hidden hidden" style="display:block;height:0px;width:0px;"/></g><g id="sprotty_ArchitectureBlockImpl$otbn_rf_base_fpga/AssignmentBlockImpl$unused_rst_ni" transform="translate(52.84375, 250)" class="statement"><rect x="0" y="0" rx="10" ry="5" width="19.71875" height="22" class="sprotty-node" style="fill:rgb(245, 245, 245);stroke:rgb(112, 112, 112);"/><text class="clickable sprotty-label statementtype" id="sprotty_ArchitectureBlockImpl$otbn_rf_base_fpga/AssignmentBlockImpl$unused_rst_ni/labeltype" transform="translate(5, 5) translate(4.71875, 9)" style="cursor:default;font-size:8px;font-weight:700;perspective-origin:0.140625px 0px;fill:rgb(112, 112, 112);text-anchor:middle;">&lt;=</text><g id="sprotty_ArchitectureBlockImpl$otbn_rf_base_fpga/AssignmentBlockImpl$unused_rst_ni/GPortImpl$rst_niIN" transform="translate(0, 11)" class="sprotty-hidden hidden" style="display:block;height:0px;width:0px;"/></g><g id="sprotty_ArchitectureBlockImpl$otbn_rf_base_fpga/BPortImpl$rd_addr_b_i" transform="translate(0, 206)" class="triangle"><path d="M 0,0 L 5,2.5 L 0,5 Z" transform="translate(-1.67, -2.5)" class="sprotty-port" style="fill:rgb(48, 48, 48);stroke:rgb(48, 48, 48);"/><text class="clickable sprotty-label port" id="sprotty_ArchitectureBlockImpl$otbn_rf_base_fpga/BPortImpl$rd_addr_b_i/label" transform="translate(6, 6) translate(34.5625, 14)" style="cursor:default;font-size:12px;perspective-origin:0px 0px;fill:rgb(48, 48, 48);text-anchor:middle;">rd_addr_b_i</text></g><g id="sprotty_ArchitectureBlockImpl$otbn_rf_base_fpga/BPortImpl$rd_addr_a_i" transform="translate(0, 36)" class="triangle"><path d="M 0,0 L 5,2.5 L 0,5 Z" transform="translate(-1.67, -2.5)" class="sprotty-port" style="fill:rgb(48, 48, 48);stroke:rgb(48, 48, 48);"/><text class="clickable sprotty-label port" id="sprotty_ArchitectureBlockImpl$otbn_rf_base_fpga/BPortImpl$rd_addr_a_i/label" transform="translate(6, 6) translate(34.234375, 14)" style="cursor:default;font-size:12px;perspective-origin:0px 0px;fill:rgb(48, 48, 48);text-anchor:middle;">rd_addr_a_i</text></g><g id="sprotty_ArchitectureBlockImpl$otbn_rf_base_fpga/BPortImpl$wr_data_i" transform="translate(0, 172)" class="triangle"><path d="M 0,0 L 5,2.5 L 0,5 Z" transform="translate(-1.67, -2.5)" class="sprotty-port" style="fill:rgb(48, 48, 48);stroke:rgb(48, 48, 48);"/><text class="clickable sprotty-label port" id="sprotty_ArchitectureBlockImpl$otbn_rf_base_fpga/BPortImpl$wr_data_i/label" transform="translate(6, 6) translate(28.015625, 14)" style="cursor:default;font-size:12px;perspective-origin:0px 0px;fill:rgb(48, 48, 48);text-anchor:middle;">wr_data_i</text></g><g id="sprotty_ArchitectureBlockImpl$otbn_rf_base_fpga/BPortImpl$wr_en_i" transform="translate(0, 138)" class="triangle"><path d="M 0,0 L 5,2.5 L 0,5 Z" transform="translate(-1.67, -2.5)" class="sprotty-port" style="fill:rgb(48, 48, 48);stroke:rgb(48, 48, 48);"/><text class="clickable sprotty-label port" id="sprotty_ArchitectureBlockImpl$otbn_rf_base_fpga/BPortImpl$wr_en_i/label" transform="translate(6, 6) translate(22.5, 14)" style="cursor:default;font-size:12px;perspective-origin:0px 0px;fill:rgb(48, 48, 48);text-anchor:middle;">wr_en_i</text></g><g id="sprotty_ArchitectureBlockImpl$otbn_rf_base_fpga/BPortImpl$wr_addr_i" transform="translate(0, 70)" class="triangle"><path d="M 0,0 L 5,2.5 L 0,5 Z" transform="translate(-1.67, -2.5)" class="sprotty-port" style="fill:rgb(48, 48, 48);stroke:rgb(48, 48, 48);"/><text class="clickable sprotty-label port" id="sprotty_ArchitectureBlockImpl$otbn_rf_base_fpga/BPortImpl$wr_addr_i/label" transform="translate(6, 6) translate(28.65625, 14)" style="cursor:default;font-size:12px;perspective-origin:0px 0px;fill:rgb(48, 48, 48);text-anchor:middle;">wr_addr_i</text></g><g id="sprotty_ArchitectureBlockImpl$otbn_rf_base_fpga/BPortImpl$rst_ni" transform="translate(0, 261)" class="triangle"><path d="M 0,0 L 5,2.5 L 0,5 Z" transform="translate(-1.67, -2.5)" class="sprotty-port" style="fill:rgb(48, 48, 48);stroke:rgb(48, 48, 48);"/><text class="clickable sprotty-label port" id="sprotty_ArchitectureBlockImpl$otbn_rf_base_fpga/BPortImpl$rst_ni/label" transform="translate(6, 6) translate(15.921875, 14)" style="cursor:default;font-size:12px;perspective-origin:0px 0px;fill:rgb(48, 48, 48);text-anchor:middle;">rst_ni</text></g><g id="sprotty_ArchitectureBlockImpl$otbn_rf_base_fpga/BPortImpl$clk_i" transform="translate(0, 104)" class="triangle"><path d="M 0,0 L 5,2.5 L 0,5 Z" transform="translate(-1.67, -2.5)" class="sprotty-port" style="fill:rgb(48, 48, 48);stroke:rgb(48, 48, 48);"/><text class="clickable sprotty-label port" id="sprotty_ArchitectureBlockImpl$otbn_rf_base_fpga/BPortImpl$clk_i/label" transform="translate(6, 6) translate(13.09375, 14)" style="cursor:default;font-size:12px;perspective-origin:0px 0px;fill:rgb(48, 48, 48);text-anchor:middle;">clk_i</text></g><g id="sprotty_ArchitectureBlockImpl$otbn_rf_base_fpga/BPortImpl$rd_data_a_o" transform="translate(368.90625, 135.66666666666666)" class="triangle"><path d="M 0,0 L 5,2.5 L 0,5 Z" transform="translate(-1.67, -2.5)" class="sprotty-port" style="fill:rgb(48, 48, 48);stroke:rgb(48, 48, 48);"/><text class="clickable sprotty-label port" id="sprotty_ArchitectureBlockImpl$otbn_rf_base_fpga/BPortImpl$rd_data_a_o/label" transform="translate(-77.1875, 6) translate(35.59375, 14)" style="cursor:default;font-size:12px;perspective-origin:0px 0px;fill:rgb(48, 48, 48);text-anchor:middle;">rd_data_a_o</text></g><g id="sprotty_ArchitectureBlockImpl$otbn_rf_base_fpga/BPortImpl$rd_data_b_o" transform="translate(368.90625, 201)" class="triangle"><path d="M 0,0 L 5,2.5 L 0,5 Z" transform="translate(-1.67, -2.5)" class="sprotty-port" style="fill:rgb(48, 48, 48);stroke:rgb(48, 48, 48);"/><text class="clickable sprotty-label port" id="sprotty_ArchitectureBlockImpl$otbn_rf_base_fpga/BPortImpl$rd_data_b_o/label" transform="translate(-77.8125, 6) translate(35.90625, 14)" style="cursor:default;font-size:12px;perspective-origin:0px 0px;fill:rgb(48, 48, 48);text-anchor:middle;">rd_data_b_o</text></g></g></g></svg>