<svg xmlns="http://www.w3.org/2000/svg" id="sprotty_work.prim_intr_hw" class="sprotty-graph sprotty-block-diagram blockdiagram" style="font-family:&quot;Noto Sans&quot;, Helvetica, Arial, sans-serif;perspective-origin:0px 0px;transform-origin:0px 0px;" version="1.1" viewBox="7 7 524.171875 388" width="524.171875" height="388"><g transform="scale(1) translate(0,0)"><g id="sprotty_ArchitectureBlockImpl$prim_intr_hw" transform="translate(12, 12)" class="architecture"><g class="sprotty-block" style="fill:rgb(255, 255, 255);stroke:rgb(48, 48, 48);stroke-dasharray:0px;"><rect x="0" y="0" rx="1" ry="1" width="514.171875" height="378"/><text x="257.0859375" y="12" class="sprotty-block-name" style="cursor:pointer;font-weight:700;perspective-origin:257.188px 0px;fill:rgb(48, 48, 48);stroke:rgba(0, 0, 0, 0);dominant-baseline:middle;text-anchor:middle;">prim_intr_hw</text><line x1="0" y1="20" x2="514.171875" y2="20"/></g><g id="sprotty_ArchitectureBlockImpl$prim_intr_hw/AssignmentBlockImpl$hw2reg_intr_state_de_o/GPortImpl$hw2reg_intr_state_de_oOUT_to_ArchitectureBlockImpl$prim_intr_hw/BPortImpl$hw2reg_intr_state_de_o" class="sprotty-edge edge" style="fill:none;stroke:rgb(112, 112, 112);stroke-linejoin:round;"><g><path d="M 356.609375 69 L 514.171875 69 "/><path d="M 356.609375 69 L 514.171875 69 " class="clickable"/></g></g><g id="sprotty_ArchitectureBlockImpl$prim_intr_hw/AssignmentBlockImpl$hw2reg_intr_state_d_o/GPortImpl$hw2reg_intr_state_d_oOUT_to_ArchitectureBlockImpl$prim_intr_hw/BPortImpl$hw2reg_intr_state_d_o" class="sprotty-edge thick edge" style="fill:none;stroke:rgb(112, 112, 112);stroke-linejoin:round;stroke-width:3px;"><g><path d="M 356.609375 132 L 514.171875 132 "/><path d="M 356.609375 132 L 514.171875 132 " class="clickable"/></g></g><g id="sprotty_ArchitectureBlockImpl$prim_intr_hw/GenerateStatementBlockImpl$null10/GPortImpl$intr_o_to_ArchitectureBlockImpl$prim_intr_hw/BPortImpl$intr_o" class="sprotty-edge thick edge" style="fill:none;stroke:rgb(112, 112, 112);stroke-linejoin:round;stroke-width:3px;"><g><path d="M 316.890625 179 L 514.171875 179 "/><path d="M 316.890625 179 L 514.171875 179 " class="clickable"/></g></g><g id="sprotty_ArchitectureBlockImpl$prim_intr_hw/BPortImpl$reg2hw_intr_test_qe_i_to_ArchitectureBlockImpl$prim_intr_hw/AssignmentBlockImpl$new_event/GPortImpl$reg2hw_intr_test_qe_iIN" class="sprotty-edge edge" style="fill:none;stroke:rgb(112, 112, 112);stroke-linejoin:round;"><g><path d="M 0 69 L 215.29296875 69 "/><path d="M 0 69 L 215.29296875 69 " class="clickable"/></g></g><g id="sprotty_ArchitectureBlockImpl$prim_intr_hw/BPortImpl$reg2hw_intr_test_q_i_to_ArchitectureBlockImpl$prim_intr_hw/AssignmentBlockImpl$new_event/GPortImpl$reg2hw_intr_test_q_iIN" class="sprotty-edge thick edge" style="fill:none;stroke:rgb(112, 112, 112);stroke-linejoin:round;stroke-width:3px;"><g><path d="M 0 35 L 166 35 C 167 35 168 36 168 37 L 168 57 C 168 58 169 59 170 59 L 215.29296875 59 "/><path d="M 0 35 L 166 35 C 167 35 168 36 168 37 L 168 57 C 168 58 169 59 170 59 L 215.29296875 59 " class="clickable"/></g></g><g id="sprotty_ArchitectureBlockImpl$prim_intr_hw/BPortImpl$event_intr_i_to_ArchitectureBlockImpl$prim_intr_hw/AssignmentBlockImpl$new_event/GPortImpl$event_intr_iIN" class="sprotty-edge thick edge" style="fill:none;stroke:rgb(112, 112, 112);stroke-linejoin:round;stroke-width:3px;"><g><path d="M 0 103 L 166 103 C 167 103 168 102 168 101 L 168 81 C 168 80 169 79 170 79 L 215.29296875 79 "/><path d="M 0 103 L 166 103 C 167 103 168 102 168 101 L 168 81 C 168 80 169 79 170 79 L 215.29296875 79 " class="clickable"/></g></g><g id="sprotty_ArchitectureBlockImpl$prim_intr_hw/BPortImpl$reg2hw_intr_state_q_i_to_ArchitectureBlockImpl$prim_intr_hw/AssignmentBlockImpl$hw2reg_intr_state_d_o/GPortImpl$reg2hw_intr_state_q_iIN" class="sprotty-edge thick edge" style="fill:none;stroke:rgb(112, 112, 112);stroke-linejoin:round;stroke-width:3px;"><g><path d="M 0 137 L 336.890625 137 "/><path d="M 0 137 L 336.890625 137 " class="clickable"/></g></g><g id="sprotty_ArchitectureBlockImpl$prim_intr_hw/BPortImpl$reg2hw_intr_state_q_i_to_ArchitectureBlockImpl$prim_intr_hw/GenerateStatementBlockImpl$null10/GPortImpl$reg2hw_intr_state_q_i" class="sprotty-edge thick edge" style="fill:none;stroke:rgb(112, 112, 112);stroke-linejoin:round;stroke-width:3px;"><g><path d="M 0 137 L 166 137 C 167 137 168 138 168 139 L 168 172 C 168 173 169 174 170 174 L 188 174 "/><path d="M 0 137 L 166 137 C 167 137 168 138 168 139 L 168 172 C 168 173 169 174 170 174 L 188 174 " class="clickable"/></g><circle r="3" id="sprotty_ArchitectureBlockImpl$prim_intr_hw/BPortImpl$reg2hw_intr_state_q_i_to_ArchitectureBlockImpl$prim_intr_hw/GenerateStatementBlockImpl$null10/GPortImpl$reg2hw_intr_state_q_i/junction0" transform="translate(168, 137)" class="sprotty-junction thick" style="fill:rgb(112, 112, 112);stroke:none;"/></g><g id="sprotty_ArchitectureBlockImpl$prim_intr_hw/BPortImpl$reg2hw_intr_enable_q_i_to_ArchitectureBlockImpl$prim_intr_hw/GenerateStatementBlockImpl$null10/GPortImpl$reg2hw_intr_enable_q_i" class="sprotty-edge thick edge" style="fill:none;stroke:rgb(112, 112, 112);stroke-linejoin:round;stroke-width:3px;"><g><path d="M 0 234 L 188 234 "/><path d="M 0 234 L 188 234 " class="clickable"/></g></g><g id="sprotty_ArchitectureBlockImpl$prim_intr_hw/BPortImpl$clk_i_to_ArchitectureBlockImpl$prim_intr_hw/GenerateStatementBlockImpl$null10/GPortImpl$clk_i" class="sprotty-edge edge" style="fill:none;stroke:rgb(112, 112, 112);stroke-linejoin:round;"><g><path d="M 0 268 L 166 268 C 167 268 168 267 168 266 L 168 246 C 168 245 169 244 170 244 L 188 244 "/><path d="M 0 268 L 166 268 C 167 268 168 267 168 266 L 168 246 C 168 245 169 244 170 244 L 188 244 " class="clickable"/></g></g><g id="sprotty_ArchitectureBlockImpl$prim_intr_hw/BPortImpl$rst_ni_to_ArchitectureBlockImpl$prim_intr_hw/GenerateStatementBlockImpl$null10/GPortImpl$rst_ni" class="sprotty-edge edge" style="fill:none;stroke:rgb(112, 112, 112);stroke-linejoin:round;"><g><path d="M 0 302 L 176 302 C 177 302 178 301 178 300 L 178 256 C 178 255 179 254 180 254 L 188 254 "/><path d="M 0 302 L 176 302 C 177 302 178 301 178 300 L 178 256 C 178 255 179 254 180 254 L 188 254 " class="clickable"/></g></g><g id="sprotty_ArchitectureBlockImpl$prim_intr_hw/AssignmentBlockImpl$new_event/GPortImpl$new_eventOUT_to_ArchitectureBlockImpl$prim_intr_hw/AssignmentBlockImpl$hw2reg_intr_state_de_o/GPortImpl$new_eventIN" class="sprotty-edge thick edge" style="fill:none;stroke:rgb(112, 112, 112);stroke-linejoin:round;stroke-width:3px;"><g><path d="M 235.01171875 69 L 336.890625 69 "/><path d="M 235.01171875 69 L 336.890625 69 " class="clickable"/></g></g><g id="sprotty_ArchitectureBlockImpl$prim_intr_hw/AssignmentBlockImpl$new_event/GPortImpl$new_eventOUT_to_ArchitectureBlockImpl$prim_intr_hw/AssignmentBlockImpl$hw2reg_intr_state_d_o/GPortImpl$new_eventIN" class="sprotty-edge thick edge" style="fill:none;stroke:rgb(112, 112, 112);stroke-linejoin:round;stroke-width:3px;"><g><path d="M 235.01171875 69 L 324.890625 69 C 325.890625 69 326.890625 70 326.890625 71 L 326.890625 125 C 326.890625 126 327.890625 127 328.890625 127 L 336.890625 127 "/><path d="M 235.01171875 69 L 324.890625 69 C 325.890625 69 326.890625 70 326.890625 71 L 326.890625 125 C 326.890625 126 327.890625 127 328.890625 127 L 336.890625 127 " class="clickable"/></g><circle r="3" id="sprotty_ArchitectureBlockImpl$prim_intr_hw/AssignmentBlockImpl$new_event/GPortImpl$new_eventOUT_to_ArchitectureBlockImpl$prim_intr_hw/AssignmentBlockImpl$hw2reg_intr_state_d_o/GPortImpl$new_eventIN/junction0" transform="translate(326.890625, 69)" class="sprotty-junction thick" style="fill:rgb(112, 112, 112);stroke:none;"/></g><g id="sprotty_ArchitectureBlockImpl$prim_intr_hw/GenerateStatementBlockImpl$null10" transform="translate(188, 149)" class="generate"><g class="sprotty-block sprotty-block-generate" style="fill:rgb(255, 255, 255);stroke:rgb(48, 48, 48);stroke-dasharray:0px;"><rect x="0" y="0" rx="1" ry="1" width="128.890625" height="214" style="stroke-dasharray:3px, 1px;"/><text x="64.4453125" y="12" class="sprotty-block-name" style="cursor:pointer;font-weight:700;fill:rgb(48, 48, 48);stroke:rgba(0, 0, 0, 0);dominant-baseline:middle;text-anchor:middle;"/>undefined</g><g id="sprotty_ArchitectureBlockImpl$prim_intr_hw/GenerateStatementBlockImpl$null10/AlwaysBlockImpl$null5/GPortImpl$intr_oOUT_to_ArchitectureBlockImpl$prim_intr_hw/GenerateStatementBlockImpl$null10/GPortImpl$intr_o" class="sprotty-edge thick edge" style="fill:none;stroke:rgb(112, 112, 112);stroke-linejoin:round;stroke-width:3px;"><g><path d="M 93.890625 90 L 101.890625 90 C 102.890625 90 103.890625 89 103.890625 88 L 103.890625 32 C 103.890625 31 104.890625 30 105.890625 30 L 128.890625 30 "/><path d="M 93.890625 90 L 101.890625 90 C 102.890625 90 103.890625 89 103.890625 88 L 103.890625 32 C 103.890625 31 104.890625 30 105.890625 30 L 128.890625 30 " class="clickable"/></g><circle r="3" id="sprotty_ArchitectureBlockImpl$prim_intr_hw/GenerateStatementBlockImpl$null10/AlwaysBlockImpl$null5/GPortImpl$intr_oOUT_to_ArchitectureBlockImpl$prim_intr_hw/GenerateStatementBlockImpl$null10/GPortImpl$intr_o/junction0" transform="translate(103.890625, 30)" class="sprotty-junction thick" style="fill:rgb(112, 112, 112);stroke:none;"/></g><g id="sprotty_ArchitectureBlockImpl$prim_intr_hw/GenerateStatementBlockImpl$null10/AssignmentBlockImpl$intr_o/GPortImpl$intr_oOUT_to_ArchitectureBlockImpl$prim_intr_hw/GenerateStatementBlockImpl$null10/GPortImpl$intr_o" class="sprotty-edge thick edge" style="fill:none;stroke:rgb(112, 112, 112);stroke-linejoin:round;stroke-width:3px;"><g><path d="M 74.44270833333333 30 L 128.890625 30 "/><path d="M 74.44270833333333 30 L 128.890625 30 " class="clickable"/></g></g><g id="sprotty_ArchitectureBlockImpl$prim_intr_hw/GenerateStatementBlockImpl$null10/GPortImpl$reg2hw_intr_state_q_i_to_ArchitectureBlockImpl$prim_intr_hw/GenerateStatementBlockImpl$null10/AssignmentBlockImpl$intr_o/GPortImpl$reg2hw_intr_state_q_iIN" class="sprotty-edge thick edge" style="fill:none;stroke:rgb(112, 112, 112);stroke-linejoin:round;stroke-width:3px;"><g><path d="M 0 25 L 54.72395833333333 25 "/><path d="M 0 25 L 54.72395833333333 25 " class="clickable"/></g></g><g id="sprotty_ArchitectureBlockImpl$prim_intr_hw/GenerateStatementBlockImpl$null10/GPortImpl$reg2hw_intr_enable_q_i_to_ArchitectureBlockImpl$prim_intr_hw/GenerateStatementBlockImpl$null10/AssignmentBlockImpl$intr_o/GPortImpl$reg2hw_intr_enable_q_iIN" class="sprotty-edge thick edge" style="fill:none;stroke:rgb(112, 112, 112);stroke-linejoin:round;stroke-width:3px;"><g><path d="M 0 85 L 23 85 C 24 85 25 84 25 83 L 25 37 C 25 36 26 35 27 35 L 54.72395833333333 35 "/><path d="M 0 85 L 23 85 C 24 85 25 84 25 83 L 25 37 C 25 36 26 35 27 35 L 54.72395833333333 35 " class="clickable"/></g><circle r="3" id="sprotty_ArchitectureBlockImpl$prim_intr_hw/GenerateStatementBlockImpl$null10/GPortImpl$reg2hw_intr_enable_q_i_to_ArchitectureBlockImpl$prim_intr_hw/GenerateStatementBlockImpl$null10/AssignmentBlockImpl$intr_o/GPortImpl$reg2hw_intr_enable_q_iIN/junction0" transform="translate(25, 85)" class="sprotty-junction thick" style="fill:rgb(112, 112, 112);stroke:none;"/></g><g id="sprotty_ArchitectureBlockImpl$prim_intr_hw/GenerateStatementBlockImpl$null10/GPortImpl$clk_i_to_ArchitectureBlockImpl$prim_intr_hw/GenerateStatementBlockImpl$null10/AlwaysBlockImpl$null5/GPortImpl$clk_iIN" class="sprotty-edge edge" style="fill:none;stroke:rgb(112, 112, 112);stroke-linejoin:round;"><g><path d="M 0 95 L 45 95 "/><path d="M 0 95 L 45 95 " class="clickable"/></g></g><g id="sprotty_ArchitectureBlockImpl$prim_intr_hw/GenerateStatementBlockImpl$null10/GPortImpl$rst_ni_to_ArchitectureBlockImpl$prim_intr_hw/GenerateStatementBlockImpl$null10/AlwaysBlockImpl$null5/GPortImpl$rst_niIN" class="sprotty-edge edge" style="fill:none;stroke:rgb(112, 112, 112);stroke-linejoin:round;"><g><path d="M 0 105 L 45 105 "/><path d="M 0 105 L 45 105 " class="clickable"/></g></g><g id="sprotty_ArchitectureBlockImpl$prim_intr_hw/GenerateStatementBlockImpl$null10/GPortImpl$reg2hw_intr_state_q_i_to_ArchitectureBlockImpl$prim_intr_hw/GenerateStatementBlockImpl$null10/AlwaysBlockImpl$null5/GPortImpl$reg2hw_intr_state_q_iIN" class="sprotty-edge thick edge" style="fill:none;stroke:rgb(112, 112, 112);stroke-linejoin:round;stroke-width:3px;"><g><path d="M 0 25 L 33 25 C 34 25 35 26 35 27 L 35 73 C 35 74 36 75 37 75 L 45 75 "/><path d="M 0 25 L 33 25 C 34 25 35 26 35 27 L 35 73 C 35 74 36 75 37 75 L 45 75 " class="clickable"/></g><circle r="3" id="sprotty_ArchitectureBlockImpl$prim_intr_hw/GenerateStatementBlockImpl$null10/GPortImpl$reg2hw_intr_state_q_i_to_ArchitectureBlockImpl$prim_intr_hw/GenerateStatementBlockImpl$null10/AlwaysBlockImpl$null5/GPortImpl$reg2hw_intr_state_q_iIN/junction0" transform="translate(35, 25)" class="sprotty-junction thick" style="fill:rgb(112, 112, 112);stroke:none;"/></g><g id="sprotty_ArchitectureBlockImpl$prim_intr_hw/GenerateStatementBlockImpl$null10/GPortImpl$reg2hw_intr_enable_q_i_to_ArchitectureBlockImpl$prim_intr_hw/GenerateStatementBlockImpl$null10/AlwaysBlockImpl$null5/GPortImpl$reg2hw_intr_enable_q_iIN" class="sprotty-edge thick edge" style="fill:none;stroke:rgb(112, 112, 112);stroke-linejoin:round;stroke-width:3px;"><g><path d="M 0 85 L 45 85 "/><path d="M 0 85 L 45 85 " class="clickable"/></g></g><g id="sprotty_ArchitectureBlockImpl$prim_intr_hw/GenerateStatementBlockImpl$null10/AlwaysBlockImpl$null5" transform="translate(45, 65)" class="statement"><rect x="0" y="0" rx="10" ry="5" width="48.890625" height="50" class="sprotty-node" style="fill:rgb(245, 245, 245);stroke:rgb(112, 112, 112);"/><text class="clickable sprotty-label statementtype" id="sprotty_ArchitectureBlockImpl$prim_intr_hw/GenerateStatementBlockImpl$null10/AlwaysBlockImpl$null5/labeltype" transform="translate(5, 19) translate(18.828125, 9)" style="cursor:default;font-size:8px;font-weight:700;perspective-origin:0.609375px 0px;fill:rgb(112, 112, 112);text-anchor:middle;">always_ff</text><g id="sprotty_ArchitectureBlockImpl$prim_intr_hw/GenerateStatementBlockImpl$null10/AlwaysBlockImpl$null5/GPortImpl$reg2hw_intr_enable_q_iIN" transform="translate(0, 20)" class="sprotty-hidden hidden" style="display:block;height:0px;width:0px;"/><g id="sprotty_ArchitectureBlockImpl$prim_intr_hw/GenerateStatementBlockImpl$null10/AlwaysBlockImpl$null5/GPortImpl$reg2hw_intr_state_q_iIN" transform="translate(0, 10)" class="sprotty-hidden hidden" style="display:block;height:0px;width:0px;"/><g id="sprotty_ArchitectureBlockImpl$prim_intr_hw/GenerateStatementBlockImpl$null10/AlwaysBlockImpl$null5/GPortImpl$rst_niIN" transform="translate(0, 40)" class="sprotty-hidden hidden" style="display:block;height:0px;width:0px;"/><g id="sprotty_ArchitectureBlockImpl$prim_intr_hw/GenerateStatementBlockImpl$null10/AlwaysBlockImpl$null5/GPortImpl$clk_iIN" transform="translate(0, 30)" class="sprotty-hidden hidden" style="display:block;height:0px;width:0px;"/><g id="sprotty_ArchitectureBlockImpl$prim_intr_hw/GenerateStatementBlockImpl$null10/AlwaysBlockImpl$null5/GPortImpl$intr_oOUT" transform="translate(48.890625, 25)" class="sprotty-hidden hidden" style="display:block;height:0px;width:0px;"/></g><g id="sprotty_ArchitectureBlockImpl$prim_intr_hw/GenerateStatementBlockImpl$null10/AssignmentBlockImpl$intr_o" transform="translate(54.72395833333333, 15)" class="statement"><rect x="0" y="0" rx="10" ry="5" width="19.71875" height="30" class="sprotty-node" style="fill:rgb(245, 245, 245);stroke:rgb(112, 112, 112);"/><text class="clickable sprotty-label statementtype" id="sprotty_ArchitectureBlockImpl$prim_intr_hw/GenerateStatementBlockImpl$null10/AssignmentBlockImpl$intr_o/labeltype" transform="translate(5, 9) translate(4.71875, 9)" style="cursor:default;font-size:8px;font-weight:700;perspective-origin:0.140625px 0px;fill:rgb(112, 112, 112);text-anchor:middle;">&lt;=</text><g id="sprotty_ArchitectureBlockImpl$prim_intr_hw/GenerateStatementBlockImpl$null10/AssignmentBlockImpl$intr_o/GPortImpl$reg2hw_intr_enable_q_iIN" transform="translate(0, 20)" class="sprotty-hidden hidden" style="display:block;height:0px;width:0px;"/><g id="sprotty_ArchitectureBlockImpl$prim_intr_hw/GenerateStatementBlockImpl$null10/AssignmentBlockImpl$intr_o/GPortImpl$reg2hw_intr_state_q_iIN" transform="translate(0, 10)" class="sprotty-hidden hidden" style="display:block;height:0px;width:0px;"/><g id="sprotty_ArchitectureBlockImpl$prim_intr_hw/GenerateStatementBlockImpl$null10/AssignmentBlockImpl$intr_o/GPortImpl$intr_oOUT" transform="translate(19.71875, 15)" class="sprotty-hidden hidden" style="display:block;height:0px;width:0px;"/></g><g id="sprotty_ArchitectureBlockImpl$prim_intr_hw/GenerateStatementBlockImpl$null10/AssignmentBlockImpl$unused_rst_n" transform="translate(15, 135)" class="statement"><rect x="0" y="0" rx="10" ry="5" width="19.71875" height="22" class="sprotty-node" style="fill:rgb(245, 245, 245);stroke:rgb(112, 112, 112);"/><text class="clickable sprotty-label statementtype" id="sprotty_ArchitectureBlockImpl$prim_intr_hw/GenerateStatementBlockImpl$null10/AssignmentBlockImpl$unused_rst_n/labeltype" transform="translate(5, 5) translate(4.71875, 9)" style="cursor:default;font-size:8px;font-weight:700;perspective-origin:0.140625px 0px;fill:rgb(112, 112, 112);text-anchor:middle;">&lt;=</text></g><g id="sprotty_ArchitectureBlockImpl$prim_intr_hw/GenerateStatementBlockImpl$null10/AssignmentBlockImpl$unused_clk" transform="translate(15, 177)" class="statement"><rect x="0" y="0" rx="10" ry="5" width="19.71875" height="22" class="sprotty-node" style="fill:rgb(245, 245, 245);stroke:rgb(112, 112, 112);"/><text class="clickable sprotty-label statementtype" id="sprotty_ArchitectureBlockImpl$prim_intr_hw/GenerateStatementBlockImpl$null10/AssignmentBlockImpl$unused_clk/labeltype" transform="translate(5, 5) translate(4.71875, 9)" style="cursor:default;font-size:8px;font-weight:700;perspective-origin:0.140625px 0px;fill:rgb(112, 112, 112);text-anchor:middle;">&lt;=</text></g><g id="sprotty_ArchitectureBlockImpl$prim_intr_hw/GenerateStatementBlockImpl$null10/GPortImpl$rst_ni" transform="translate(0, 105)" class="triangle"><path d="M 0,0 L 5,2.5 L 0,5 Z" transform="translate(-1.67, -2.5)" class="sprotty-port" style="fill:rgb(48, 48, 48);stroke:rgb(48, 48, 48);"/></g><g id="sprotty_ArchitectureBlockImpl$prim_intr_hw/GenerateStatementBlockImpl$null10/GPortImpl$clk_i" transform="translate(0, 95)" class="triangle"><path d="M 0,0 L 5,2.5 L 0,5 Z" transform="translate(-1.67, -2.5)" class="sprotty-port" style="fill:rgb(48, 48, 48);stroke:rgb(48, 48, 48);"/></g><g id="sprotty_ArchitectureBlockImpl$prim_intr_hw/GenerateStatementBlockImpl$null10/GPortImpl$reg2hw_intr_enable_q_i" transform="translate(0, 85)" class="triangle"><path d="M 0,0 L 5,2.5 L 0,5 Z" transform="translate(-1.67, -2.5)" class="sprotty-port" style="fill:rgb(48, 48, 48);stroke:rgb(48, 48, 48);"/></g><g id="sprotty_ArchitectureBlockImpl$prim_intr_hw/GenerateStatementBlockImpl$null10/GPortImpl$reg2hw_intr_state_q_i" transform="translate(0, 25)" class="triangle"><path d="M 0,0 L 5,2.5 L 0,5 Z" transform="translate(-1.67, -2.5)" class="sprotty-port" style="fill:rgb(48, 48, 48);stroke:rgb(48, 48, 48);"/></g><g id="sprotty_ArchitectureBlockImpl$prim_intr_hw/GenerateStatementBlockImpl$null10/GPortImpl$intr_o" transform="translate(128.890625, 30)" class="triangle"><path d="M 0,0 L 5,2.5 L 0,5 Z" transform="translate(-1.67, -2.5)" class="sprotty-port" style="fill:rgb(48, 48, 48);stroke:rgb(48, 48, 48);"/></g></g><g id="sprotty_ArchitectureBlockImpl$prim_intr_hw/AssignmentBlockImpl$hw2reg_intr_state_d_o" transform="translate(336.890625, 117)" class="statement"><rect x="0" y="0" rx="10" ry="5" width="19.71875" height="30" class="sprotty-node" style="fill:rgb(245, 245, 245);stroke:rgb(112, 112, 112);"/><text class="clickable sprotty-label statementtype" id="sprotty_ArchitectureBlockImpl$prim_intr_hw/AssignmentBlockImpl$hw2reg_intr_state_d_o/labeltype" transform="translate(5, 9) translate(4.71875, 9)" style="cursor:default;font-size:8px;font-weight:700;perspective-origin:0.140625px 0px;fill:rgb(112, 112, 112);text-anchor:middle;">&lt;=</text><g id="sprotty_ArchitectureBlockImpl$prim_intr_hw/AssignmentBlockImpl$hw2reg_intr_state_d_o/GPortImpl$reg2hw_intr_state_q_iIN" transform="translate(0, 20)" class="sprotty-hidden hidden" style="display:block;height:0px;width:0px;"/><g id="sprotty_ArchitectureBlockImpl$prim_intr_hw/AssignmentBlockImpl$hw2reg_intr_state_d_o/GPortImpl$new_eventIN" transform="translate(0, 10)" class="sprotty-hidden hidden" style="display:block;height:0px;width:0px;"/><g id="sprotty_ArchitectureBlockImpl$prim_intr_hw/AssignmentBlockImpl$hw2reg_intr_state_d_o/GPortImpl$hw2reg_intr_state_d_oOUT" transform="translate(19.71875, 15)" class="sprotty-hidden hidden" style="display:block;height:0px;width:0px;"/></g><g id="sprotty_ArchitectureBlockImpl$prim_intr_hw/AssignmentBlockImpl$hw2reg_intr_state_de_o" transform="translate(336.890625, 58)" class="statement"><rect x="0" y="0" rx="10" ry="5" width="19.71875" height="22" class="sprotty-node" style="fill:rgb(245, 245, 245);stroke:rgb(112, 112, 112);"/><text class="clickable sprotty-label statementtype" id="sprotty_ArchitectureBlockImpl$prim_intr_hw/AssignmentBlockImpl$hw2reg_intr_state_de_o/labeltype" transform="translate(5, 5) translate(4.71875, 9)" style="cursor:default;font-size:8px;font-weight:700;perspective-origin:0.140625px 0px;fill:rgb(112, 112, 112);text-anchor:middle;">&lt;=</text><g id="sprotty_ArchitectureBlockImpl$prim_intr_hw/AssignmentBlockImpl$hw2reg_intr_state_de_o/GPortImpl$new_eventIN" transform="translate(0, 11)" class="sprotty-hidden hidden" style="display:block;height:0px;width:0px;"/><g id="sprotty_ArchitectureBlockImpl$prim_intr_hw/AssignmentBlockImpl$hw2reg_intr_state_de_o/GPortImpl$hw2reg_intr_state_de_oOUT" transform="translate(19.71875, 11)" class="sprotty-hidden hidden" style="display:block;height:0px;width:0px;"/></g><g id="sprotty_ArchitectureBlockImpl$prim_intr_hw/AssignmentBlockImpl$new_event" transform="translate(215.29296875, 49)" class="statement"><rect x="0" y="0" rx="10" ry="5" width="19.71875" height="40" class="sprotty-node" style="fill:rgb(245, 245, 245);stroke:rgb(112, 112, 112);"/><text class="clickable sprotty-label statementtype" id="sprotty_ArchitectureBlockImpl$prim_intr_hw/AssignmentBlockImpl$new_event/labeltype" transform="translate(5, 14) translate(4.71875, 9)" style="cursor:default;font-size:8px;font-weight:700;perspective-origin:0.140625px 0px;fill:rgb(112, 112, 112);text-anchor:middle;">&lt;=</text><g id="sprotty_ArchitectureBlockImpl$prim_intr_hw/AssignmentBlockImpl$new_event/GPortImpl$event_intr_iIN" transform="translate(0, 30)" class="sprotty-hidden hidden" style="display:block;height:0px;width:0px;"/><g id="sprotty_ArchitectureBlockImpl$prim_intr_hw/AssignmentBlockImpl$new_event/GPortImpl$reg2hw_intr_test_q_iIN" transform="translate(0, 10)" class="sprotty-hidden hidden" style="display:block;height:0px;width:0px;"/><g id="sprotty_ArchitectureBlockImpl$prim_intr_hw/AssignmentBlockImpl$new_event/GPortImpl$reg2hw_intr_test_qe_iIN" transform="translate(0, 20)" class="sprotty-hidden hidden" style="display:block;height:0px;width:0px;"/><g id="sprotty_ArchitectureBlockImpl$prim_intr_hw/AssignmentBlockImpl$new_event/GPortImpl$new_eventOUT" transform="translate(19.71875, 20)" class="sprotty-hidden hidden" style="display:block;height:0px;width:0px;"/></g><g id="sprotty_ArchitectureBlockImpl$prim_intr_hw/BPortImpl$reg2hw_intr_state_q_i" transform="translate(0, 137)" class="triangle"><path d="M 0,0 L 5,2.5 L 0,5 Z" transform="translate(-1.67, -2.5)" class="sprotty-port" style="fill:rgb(48, 48, 48);stroke:rgb(48, 48, 48);"/><text class="clickable sprotty-label port" id="sprotty_ArchitectureBlockImpl$prim_intr_hw/BPortImpl$reg2hw_intr_state_q_i/label" transform="translate(6, 6) translate(62.96875, 14)" style="cursor:default;font-size:12px;perspective-origin:0px 0px;fill:rgb(48, 48, 48);text-anchor:middle;">reg2hw_intr_state_q_i</text></g><g id="sprotty_ArchitectureBlockImpl$prim_intr_hw/BPortImpl$reg2hw_intr_test_qe_i" transform="translate(0, 69)" class="triangle"><path d="M 0,0 L 5,2.5 L 0,5 Z" transform="translate(-1.67, -2.5)" class="sprotty-port" style="fill:rgb(48, 48, 48);stroke:rgb(48, 48, 48);"/><text class="clickable sprotty-label port" id="sprotty_ArchitectureBlockImpl$prim_intr_hw/BPortImpl$reg2hw_intr_test_qe_i/label" transform="translate(6, 6) translate(63.140625, 14)" style="cursor:default;font-size:12px;perspective-origin:0px 0px;fill:rgb(48, 48, 48);text-anchor:middle;">reg2hw_intr_test_qe_i</text></g><g id="sprotty_ArchitectureBlockImpl$prim_intr_hw/BPortImpl$reg2hw_intr_test_q_i" transform="translate(0, 35)" class="triangle"><path d="M 0,0 L 5,2.5 L 0,5 Z" transform="translate(-1.67, -2.5)" class="sprotty-port" style="fill:rgb(48, 48, 48);stroke:rgb(48, 48, 48);"/><text class="clickable sprotty-label port" id="sprotty_ArchitectureBlockImpl$prim_intr_hw/BPortImpl$reg2hw_intr_test_q_i/label" transform="translate(6, 6) translate(59.8125, 14)" style="cursor:default;font-size:12px;perspective-origin:0px 0px;fill:rgb(48, 48, 48);text-anchor:middle;">reg2hw_intr_test_q_i</text></g><g id="sprotty_ArchitectureBlockImpl$prim_intr_hw/BPortImpl$reg2hw_intr_enable_q_i" transform="translate(0, 234)" class="triangle"><path d="M 0,0 L 5,2.5 L 0,5 Z" transform="translate(-1.67, -2.5)" class="sprotty-port" style="fill:rgb(48, 48, 48);stroke:rgb(48, 48, 48);"/><text class="clickable sprotty-label port" id="sprotty_ArchitectureBlockImpl$prim_intr_hw/BPortImpl$reg2hw_intr_enable_q_i/label" transform="translate(6, 6) translate(68.5, 14)" style="cursor:default;font-size:12px;perspective-origin:0px 0px;fill:rgb(48, 48, 48);text-anchor:middle;">reg2hw_intr_enable_q_i</text></g><g id="sprotty_ArchitectureBlockImpl$prim_intr_hw/BPortImpl$event_intr_i" transform="translate(0, 103)" class="triangle"><path d="M 0,0 L 5,2.5 L 0,5 Z" transform="translate(-1.67, -2.5)" class="sprotty-port" style="fill:rgb(48, 48, 48);stroke:rgb(48, 48, 48);"/><text class="clickable sprotty-label port" id="sprotty_ArchitectureBlockImpl$prim_intr_hw/BPortImpl$event_intr_i/label" transform="translate(6, 6) translate(33.984375, 14)" style="cursor:default;font-size:12px;perspective-origin:0px 0px;fill:rgb(48, 48, 48);text-anchor:middle;">event_intr_i</text></g><g id="sprotty_ArchitectureBlockImpl$prim_intr_hw/BPortImpl$rst_ni" transform="translate(0, 302)" class="triangle"><path d="M 0,0 L 5,2.5 L 0,5 Z" transform="translate(-1.67, -2.5)" class="sprotty-port" style="fill:rgb(48, 48, 48);stroke:rgb(48, 48, 48);"/><text class="clickable sprotty-label port" id="sprotty_ArchitectureBlockImpl$prim_intr_hw/BPortImpl$rst_ni/label" transform="translate(6, 6) translate(15.921875, 14)" style="cursor:default;font-size:12px;perspective-origin:0px 0px;fill:rgb(48, 48, 48);text-anchor:middle;">rst_ni</text></g><g id="sprotty_ArchitectureBlockImpl$prim_intr_hw/BPortImpl$clk_i" transform="translate(0, 268)" class="triangle"><path d="M 0,0 L 5,2.5 L 0,5 Z" transform="translate(-1.67, -2.5)" class="sprotty-port" style="fill:rgb(48, 48, 48);stroke:rgb(48, 48, 48);"/><text class="clickable sprotty-label port" id="sprotty_ArchitectureBlockImpl$prim_intr_hw/BPortImpl$clk_i/label" transform="translate(6, 6) translate(13.09375, 14)" style="cursor:default;font-size:12px;perspective-origin:0px 0px;fill:rgb(48, 48, 48);text-anchor:middle;">clk_i</text></g><g id="sprotty_ArchitectureBlockImpl$prim_intr_hw/BPortImpl$hw2reg_intr_state_de_o" transform="translate(514.171875, 69)" class="triangle"><path d="M 0,0 L 5,2.5 L 0,5 Z" transform="translate(-1.67, -2.5)" class="sprotty-port" style="fill:rgb(48, 48, 48);stroke:rgb(48, 48, 48);"/><text class="clickable sprotty-label port" id="sprotty_ArchitectureBlockImpl$prim_intr_hw/BPortImpl$hw2reg_intr_state_de_o/label" transform="translate(-142.5625, 6) translate(68.28125, 14)" style="cursor:default;font-size:12px;perspective-origin:0px 0px;fill:rgb(48, 48, 48);text-anchor:middle;">hw2reg_intr_state_de_o</text></g><g id="sprotty_ArchitectureBlockImpl$prim_intr_hw/BPortImpl$hw2reg_intr_state_d_o" transform="translate(514.171875, 132)" class="triangle"><path d="M 0,0 L 5,2.5 L 0,5 Z" transform="translate(-1.67, -2.5)" class="sprotty-port" style="fill:rgb(48, 48, 48);stroke:rgb(48, 48, 48);"/><text class="clickable sprotty-label port" id="sprotty_ArchitectureBlockImpl$prim_intr_hw/BPortImpl$hw2reg_intr_state_d_o/label" transform="translate(-135.90625, 6) translate(64.953125, 14)" style="cursor:default;font-size:12px;perspective-origin:0px 0px;fill:rgb(48, 48, 48);text-anchor:middle;">hw2reg_intr_state_d_o</text></g><g id="sprotty_ArchitectureBlockImpl$prim_intr_hw/BPortImpl$intr_o" transform="translate(514.171875, 179)" class="triangle"><path d="M 0,0 L 5,2.5 L 0,5 Z" transform="translate(-1.67, -2.5)" class="sprotty-port" style="fill:rgb(48, 48, 48);stroke:rgb(48, 48, 48);"/><text class="clickable sprotty-label port" id="sprotty_ArchitectureBlockImpl$prim_intr_hw/BPortImpl$intr_o/label" transform="translate(-39.8125, 6) translate(16.90625, 14)" style="cursor:default;font-size:12px;perspective-origin:0px 0px;fill:rgb(48, 48, 48);text-anchor:middle;">intr_o</text></g></g></g></svg>