<svg xmlns="http://www.w3.org/2000/svg" id="sprotty_work.rv_plic_gateway" class="sprotty-graph sprotty-block-diagram blockdiagram" style="font-family:&quot;Noto Sans&quot;, Helvetica, Arial, sans-serif;perspective-origin:0px 0px;transform-origin:0px 0px;" version="1.1" viewBox="7 7 420.875 304" width="420.875" height="304"><g transform="scale(1) translate(0,0)"><g id="sprotty_ArchitectureBlockImpl$rv_plic_gateway" transform="translate(12, 12)" class="architecture"><g class="sprotty-block" style="fill:rgb(255, 255, 255);stroke:rgb(48, 48, 48);stroke-dasharray:0px;"><rect x="0" y="0" rx="1" ry="1" width="410.875" height="294"/><text x="205.4375" y="12" class="sprotty-block-name" style="cursor:pointer;font-weight:700;perspective-origin:205.438px 0px;fill:rgb(48, 48, 48);stroke:rgba(0, 0, 0, 0);dominant-baseline:middle;text-anchor:middle;">rv_plic_gateway</text><line x1="0" y1="20" x2="410.875" y2="20"/></g><g id="sprotty_ArchitectureBlockImpl$rv_plic_gateway/AlwaysBlockImpl$null8/GPortImpl$ip_oOUT_to_ArchitectureBlockImpl$rv_plic_gateway/BPortImpl$ip_o" class="sprotty-edge thick edge" style="fill:none;stroke:rgb(112, 112, 112);stroke-linejoin:round;stroke-width:3px;"><g><path d="M 345.125 119 L 353.125 119 C 354.125 119 355.125 120 355.125 121 L 355.125 179 C 355.125 180 356.125 181 357.125 181 L 410.875 181 "/><path d="M 345.125 119 L 353.125 119 C 354.125 119 355.125 120 355.125 121 L 355.125 179 C 355.125 180 356.125 181 357.125 181 L 410.875 181 " class="clickable"/></g><circle r="3" id="sprotty_ArchitectureBlockImpl$rv_plic_gateway/AlwaysBlockImpl$null8/GPortImpl$ip_oOUT_to_ArchitectureBlockImpl$rv_plic_gateway/BPortImpl$ip_o/junction0" transform="translate(355.125, 181)" class="sprotty-junction thick" style="fill:rgb(112, 112, 112);stroke:none;"/></g><g id="sprotty_ArchitectureBlockImpl$rv_plic_gateway/BPortImpl$clk_i_to_ArchitectureBlockImpl$rv_plic_gateway/AlwaysBlockImpl$null10/GPortImpl$clk_iIN" class="sprotty-edge edge" style="fill:none;stroke:rgb(112, 112, 112);stroke-linejoin:round;"><g><path d="M 0 104 L 91.59375 104 C 92.59375 104 93.59375 105 93.59375 106 L 93.59375 126 C 93.59375 127 94.59375 128 95.59375 128 L 103.59375 128 "/><path d="M 0 104 L 91.59375 104 C 92.59375 104 93.59375 105 93.59375 106 L 93.59375 126 C 93.59375 127 94.59375 128 95.59375 128 L 103.59375 128 " class="clickable"/></g><circle r="2" id="sprotty_ArchitectureBlockImpl$rv_plic_gateway/BPortImpl$clk_i_to_ArchitectureBlockImpl$rv_plic_gateway/AlwaysBlockImpl$null10/GPortImpl$clk_iIN/junction0" transform="translate(93.59375, 104)" class="sprotty-junction junction" style="fill:rgb(112, 112, 112);stroke:none;"/></g><g id="sprotty_ArchitectureBlockImpl$rv_plic_gateway/BPortImpl$rst_ni_to_ArchitectureBlockImpl$rv_plic_gateway/AlwaysBlockImpl$null10/GPortImpl$rst_niIN" class="sprotty-edge edge" style="fill:none;stroke:rgb(112, 112, 112);stroke-linejoin:round;"><g><path d="M 0 211 L 91.59375 211 C 92.59375 211 93.59375 210 93.59375 209 L 93.59375 150 C 93.59375 149 94.59375 148 95.59375 148 L 103.59375 148 "/><path d="M 0 211 L 91.59375 211 C 92.59375 211 93.59375 210 93.59375 209 L 93.59375 150 C 93.59375 149 94.59375 148 95.59375 148 L 103.59375 148 " class="clickable"/></g><circle r="2" id="sprotty_ArchitectureBlockImpl$rv_plic_gateway/BPortImpl$rst_ni_to_ArchitectureBlockImpl$rv_plic_gateway/AlwaysBlockImpl$null10/GPortImpl$rst_niIN/junction0" transform="translate(93.59375, 211)" class="sprotty-junction junction" style="fill:rgb(112, 112, 112);stroke:none;"/></g><g id="sprotty_ArchitectureBlockImpl$rv_plic_gateway/BPortImpl$src_i_to_ArchitectureBlockImpl$rv_plic_gateway/AlwaysBlockImpl$null10/GPortImpl$src_iIN" class="sprotty-edge thick edge" style="fill:none;stroke:rgb(112, 112, 112);stroke-linejoin:round;stroke-width:3px;"><g><path d="M 0 138 L 103.59375 138 "/><path d="M 0 138 L 103.59375 138 " class="clickable"/></g></g><g id="sprotty_ArchitectureBlockImpl$rv_plic_gateway/BPortImpl$clk_i_to_ArchitectureBlockImpl$rv_plic_gateway/AlwaysBlockImpl$null8/GPortImpl$clk_iIN" class="sprotty-edge edge" style="fill:none;stroke:rgb(112, 112, 112);stroke-linejoin:round;"><g><path d="M 0 104 L 185.34375 104 C 186.34375 104 187.34375 103 187.34375 102 L 187.34375 74 C 187.34375 73 188.34375 72 189.34375 72 L 264.234375 72 C 265.234375 72 266.234375 73 266.234375 74 L 266.234375 102 C 266.234375 103 267.234375 104 268.234375 104 L 296.234375 104 "/><path d="M 0 104 L 185.34375 104 C 186.34375 104 187.34375 103 187.34375 102 L 187.34375 74 C 187.34375 73 188.34375 72 189.34375 72 L 264.234375 72 C 265.234375 72 266.234375 73 266.234375 74 L 266.234375 102 C 266.234375 103 267.234375 104 268.234375 104 L 296.234375 104 " class="clickable"/></g><circle r="2" id="sprotty_ArchitectureBlockImpl$rv_plic_gateway/BPortImpl$clk_i_to_ArchitectureBlockImpl$rv_plic_gateway/AlwaysBlockImpl$null8/GPortImpl$clk_iIN/junction0" transform="translate(187.34375, 104)" class="sprotty-junction junction" style="fill:rgb(112, 112, 112);stroke:none;"/></g><g id="sprotty_ArchitectureBlockImpl$rv_plic_gateway/BPortImpl$rst_ni_to_ArchitectureBlockImpl$rv_plic_gateway/AlwaysBlockImpl$null8/GPortImpl$rst_niIN" class="sprotty-edge edge" style="fill:none;stroke:rgb(112, 112, 112);stroke-linejoin:round;"><g><path d="M 0 211 L 274.234375 211 C 275.234375 211 276.234375 210 276.234375 209 L 276.234375 136 C 276.234375 135 277.234375 134 278.234375 134 L 296.234375 134 "/><path d="M 0 211 L 274.234375 211 C 275.234375 211 276.234375 210 276.234375 209 L 276.234375 136 C 276.234375 135 277.234375 134 278.234375 134 L 296.234375 134 " class="clickable"/></g></g><g id="sprotty_ArchitectureBlockImpl$rv_plic_gateway/BPortImpl$ip_o_to_ArchitectureBlockImpl$rv_plic_gateway/AlwaysBlockImpl$null8/GPortImpl$ip_oIN" class="sprotty-edge thick edge" style="fill:none;stroke:rgb(112, 112, 112);stroke-linejoin:round;stroke-width:3px;"><g><path d="M 410.875 181 L 288.234375 181 C 287.234375 181 286.234375 180 286.234375 179 L 286.234375 146 C 286.234375 145 287.234375 144 288.234375 144 L 296.234375 144 "/><path d="M 410.875 181 L 288.234375 181 C 287.234375 181 286.234375 180 286.234375 179 L 286.234375 146 C 286.234375 145 287.234375 144 288.234375 144 L 296.234375 144 " class="clickable"/></g><circle r="3" id="sprotty_ArchitectureBlockImpl$rv_plic_gateway/BPortImpl$ip_o_to_ArchitectureBlockImpl$rv_plic_gateway/AlwaysBlockImpl$null8/GPortImpl$ip_oIN/junction0" transform="translate(286.234375, 181)" class="sprotty-junction thick" style="fill:rgb(112, 112, 112);stroke:none;"/></g><g id="sprotty_ArchitectureBlockImpl$rv_plic_gateway/BPortImpl$claim_i_to_ArchitectureBlockImpl$rv_plic_gateway/AlwaysBlockImpl$null8/GPortImpl$claim_iIN" class="sprotty-edge thick edge" style="fill:none;stroke:rgb(112, 112, 112);stroke-linejoin:round;stroke-width:3px;"><g><path d="M 0 36 L 274.234375 36 C 275.234375 36 276.234375 37 276.234375 38 L 276.234375 92 C 276.234375 93 277.234375 94 278.234375 94 L 296.234375 94 "/><path d="M 0 36 L 274.234375 36 C 275.234375 36 276.234375 37 276.234375 38 L 276.234375 92 C 276.234375 93 277.234375 94 278.234375 94 L 296.234375 94 " class="clickable"/></g></g><g id="sprotty_ArchitectureBlockImpl$rv_plic_gateway/BPortImpl$clk_i_to_ArchitectureBlockImpl$rv_plic_gateway/AlwaysBlockImpl$null7/GPortImpl$clk_iIN" class="sprotty-edge edge" style="fill:none;stroke:rgb(112, 112, 112);stroke-linejoin:round;"><g><path d="M 0 104 L 207.34375 104 "/><path d="M 0 104 L 207.34375 104 " class="clickable"/></g></g><g id="sprotty_ArchitectureBlockImpl$rv_plic_gateway/BPortImpl$rst_ni_to_ArchitectureBlockImpl$rv_plic_gateway/AlwaysBlockImpl$null7/GPortImpl$rst_niIN" class="sprotty-edge edge" style="fill:none;stroke:rgb(112, 112, 112);stroke-linejoin:round;"><g><path d="M 0 211 L 185.34375 211 C 186.34375 211 187.34375 210 187.34375 209 L 187.34375 126 C 187.34375 125 188.34375 124 189.34375 124 L 207.34375 124 "/><path d="M 0 211 L 185.34375 211 C 186.34375 211 187.34375 210 187.34375 209 L 187.34375 126 C 187.34375 125 188.34375 124 189.34375 124 L 207.34375 124 " class="clickable"/></g><circle r="2" id="sprotty_ArchitectureBlockImpl$rv_plic_gateway/BPortImpl$rst_ni_to_ArchitectureBlockImpl$rv_plic_gateway/AlwaysBlockImpl$null7/GPortImpl$rst_niIN/junction0" transform="translate(187.34375, 211)" class="sprotty-junction junction" style="fill:rgb(112, 112, 112);stroke:none;"/></g><g id="sprotty_ArchitectureBlockImpl$rv_plic_gateway/BPortImpl$complete_i_to_ArchitectureBlockImpl$rv_plic_gateway/AlwaysBlockImpl$null7/GPortImpl$complete_iIN" class="sprotty-edge thick edge" style="fill:none;stroke:rgb(112, 112, 112);stroke-linejoin:round;stroke-width:3px;"><g><path d="M 0 70 L 175.34375 70 C 176.34375 70 177.34375 71 177.34375 72 L 177.34375 92 C 177.34375 93 178.34375 94 179.34375 94 L 207.34375 94 "/><path d="M 0 70 L 175.34375 70 C 176.34375 70 177.34375 71 177.34375 72 L 177.34375 92 C 177.34375 93 178.34375 94 179.34375 94 L 207.34375 94 " class="clickable"/></g></g><g id="sprotty_ArchitectureBlockImpl$rv_plic_gateway/BPortImpl$ip_o_to_ArchitectureBlockImpl$rv_plic_gateway/AlwaysBlockImpl$null7/GPortImpl$ip_oIN" class="sprotty-edge thick edge" style="fill:none;stroke:rgb(112, 112, 112);stroke-linejoin:round;stroke-width:3px;"><g><path d="M 410.875 181 L 199.34375 181 C 198.34375 181 197.34375 180 197.34375 179 L 197.34375 136 C 197.34375 135 198.34375 134 199.34375 134 L 207.34375 134 "/><path d="M 410.875 181 L 199.34375 181 C 198.34375 181 197.34375 180 197.34375 179 L 197.34375 136 C 197.34375 135 198.34375 134 199.34375 134 L 207.34375 134 " class="clickable"/></g></g><g id="sprotty_ArchitectureBlockImpl$rv_plic_gateway/AlwaysBlockImpl$null7/GPortImpl$iaOUT_to_ArchitectureBlockImpl$rv_plic_gateway/AlwaysBlockImpl$null8/GPortImpl$iaIN" class="sprotty-edge thick edge" style="fill:none;stroke:rgb(112, 112, 112);stroke-linejoin:round;stroke-width:3px;"><g><path d="M 256.234375 114 L 296.234375 114 "/><path d="M 256.234375 114 L 296.234375 114 " class="clickable"/></g></g><g id="sprotty_ArchitectureBlockImpl$rv_plic_gateway/AlwaysBlockImpl$null9/GPortImpl$setOUT_to_ArchitectureBlockImpl$rv_plic_gateway/AlwaysBlockImpl$null8/GPortImpl$setIN" class="sprotty-edge thick edge" style="fill:none;stroke:rgb(112, 112, 112);stroke-linejoin:round;stroke-width:3px;"><g><path d="M 167.34375 189 L 264.234375 189 C 265.234375 189 266.234375 188 266.234375 187 L 266.234375 126 C 266.234375 125 267.234375 124 268.234375 124 L 296.234375 124 "/><path d="M 167.34375 189 L 264.234375 189 C 265.234375 189 266.234375 188 266.234375 187 L 266.234375 126 C 266.234375 125 267.234375 124 268.234375 124 L 296.234375 124 " class="clickable"/></g></g><g id="sprotty_ArchitectureBlockImpl$rv_plic_gateway/AlwaysBlockImpl$null9/GPortImpl$setOUT_to_ArchitectureBlockImpl$rv_plic_gateway/AlwaysBlockImpl$null7/GPortImpl$setIN" class="sprotty-edge thick edge" style="fill:none;stroke:rgb(112, 112, 112);stroke-linejoin:round;stroke-width:3px;"><g><path d="M 167.34375 189 L 175.34375 189 C 176.34375 189 177.34375 188 177.34375 187 L 177.34375 116 C 177.34375 115 178.34375 114 179.34375 114 L 207.34375 114 "/><path d="M 167.34375 189 L 175.34375 189 C 176.34375 189 177.34375 188 177.34375 187 L 177.34375 116 C 177.34375 115 178.34375 114 179.34375 114 L 207.34375 114 " class="clickable"/></g><circle r="3" id="sprotty_ArchitectureBlockImpl$rv_plic_gateway/AlwaysBlockImpl$null9/GPortImpl$setOUT_to_ArchitectureBlockImpl$rv_plic_gateway/AlwaysBlockImpl$null7/GPortImpl$setIN/junction0" transform="translate(177.34375, 189)" class="sprotty-junction thick" style="fill:rgb(112, 112, 112);stroke:none;"/></g><g id="sprotty_ArchitectureBlockImpl$rv_plic_gateway/AlwaysBlockImpl$null7" transform="translate(207.34375, 84)" class="statement"><rect x="0" y="0" rx="10" ry="5" width="48.890625" height="60" class="sprotty-node" style="fill:rgb(245, 245, 245);stroke:rgb(112, 112, 112);"/><text class="clickable sprotty-label statementtype" id="sprotty_ArchitectureBlockImpl$rv_plic_gateway/AlwaysBlockImpl$null7/labeltype" transform="translate(5, 24) translate(18.828125, 9)" style="cursor:default;font-size:8px;font-weight:700;perspective-origin:0.609375px 0px;fill:rgb(112, 112, 112);text-anchor:middle;">always_ff</text><g id="sprotty_ArchitectureBlockImpl$rv_plic_gateway/AlwaysBlockImpl$null7/GPortImpl$ip_oIN" transform="translate(0, 50)" class="sprotty-hidden hidden" style="display:block;height:0px;width:0px;"/><g id="sprotty_ArchitectureBlockImpl$rv_plic_gateway/AlwaysBlockImpl$null7/GPortImpl$complete_iIN" transform="translate(0, 10)" class="sprotty-hidden hidden" style="display:block;height:0px;width:0px;"/><g id="sprotty_ArchitectureBlockImpl$rv_plic_gateway/AlwaysBlockImpl$null7/GPortImpl$setIN" transform="translate(0, 30)" class="sprotty-hidden hidden" style="display:block;height:0px;width:0px;"/><g id="sprotty_ArchitectureBlockImpl$rv_plic_gateway/AlwaysBlockImpl$null7/GPortImpl$rst_niIN" transform="translate(0, 40)" class="sprotty-hidden hidden" style="display:block;height:0px;width:0px;"/><g id="sprotty_ArchitectureBlockImpl$rv_plic_gateway/AlwaysBlockImpl$null7/GPortImpl$clk_iIN" transform="translate(0, 20)" class="sprotty-hidden hidden" style="display:block;height:0px;width:0px;"/><g id="sprotty_ArchitectureBlockImpl$rv_plic_gateway/AlwaysBlockImpl$null7/GPortImpl$iaOUT" transform="translate(48.890625, 30)" class="sprotty-hidden hidden" style="display:block;height:0px;width:0px;"/></g><g id="sprotty_ArchitectureBlockImpl$rv_plic_gateway/AlwaysBlockImpl$null8" transform="translate(296.234375, 84)" class="statement"><rect x="0" y="0" rx="10" ry="5" width="48.890625" height="70" class="sprotty-node" style="fill:rgb(245, 245, 245);stroke:rgb(112, 112, 112);"/><text class="clickable sprotty-label statementtype" id="sprotty_ArchitectureBlockImpl$rv_plic_gateway/AlwaysBlockImpl$null8/labeltype" transform="translate(5, 29) translate(18.828125, 9)" style="cursor:default;font-size:8px;font-weight:700;perspective-origin:0.609375px 0px;fill:rgb(112, 112, 112);text-anchor:middle;">always_ff</text><g id="sprotty_ArchitectureBlockImpl$rv_plic_gateway/AlwaysBlockImpl$null8/GPortImpl$claim_iIN" transform="translate(0, 10)" class="sprotty-hidden hidden" style="display:block;height:0px;width:0px;"/><g id="sprotty_ArchitectureBlockImpl$rv_plic_gateway/AlwaysBlockImpl$null8/GPortImpl$iaIN" transform="translate(0, 30)" class="sprotty-hidden hidden" style="display:block;height:0px;width:0px;"/><g id="sprotty_ArchitectureBlockImpl$rv_plic_gateway/AlwaysBlockImpl$null8/GPortImpl$setIN" transform="translate(0, 40)" class="sprotty-hidden hidden" style="display:block;height:0px;width:0px;"/><g id="sprotty_ArchitectureBlockImpl$rv_plic_gateway/AlwaysBlockImpl$null8/GPortImpl$ip_oIN" transform="translate(0, 60)" class="sprotty-hidden hidden" style="display:block;height:0px;width:0px;"/><g id="sprotty_ArchitectureBlockImpl$rv_plic_gateway/AlwaysBlockImpl$null8/GPortImpl$rst_niIN" transform="translate(0, 50)" class="sprotty-hidden hidden" style="display:block;height:0px;width:0px;"/><g id="sprotty_ArchitectureBlockImpl$rv_plic_gateway/AlwaysBlockImpl$null8/GPortImpl$clk_iIN" transform="translate(0, 20)" class="sprotty-hidden hidden" style="display:block;height:0px;width:0px;"/><g id="sprotty_ArchitectureBlockImpl$rv_plic_gateway/AlwaysBlockImpl$null8/GPortImpl$ip_oOUT" transform="translate(48.890625, 35)" class="sprotty-hidden hidden" style="display:block;height:0px;width:0px;"/></g><g id="sprotty_ArchitectureBlockImpl$rv_plic_gateway/AlwaysBlockImpl$null9" transform="translate(103.59375, 178)" class="statement"><rect x="0" y="0" rx="10" ry="5" width="63.75" height="22" class="sprotty-node" style="fill:rgb(245, 245, 245);stroke:rgb(112, 112, 112);"/><text class="clickable sprotty-label statementtype" id="sprotty_ArchitectureBlockImpl$rv_plic_gateway/AlwaysBlockImpl$null9/labeltype" transform="translate(5, 5) translate(26.875, 9)" style="cursor:default;font-size:8px;font-weight:700;perspective-origin:0px 0px;fill:rgb(112, 112, 112);text-anchor:middle;">always_comb</text><g id="sprotty_ArchitectureBlockImpl$rv_plic_gateway/AlwaysBlockImpl$null9/GPortImpl$setOUT" transform="translate(63.75, 11)" class="sprotty-hidden hidden" style="display:block;height:0px;width:0px;"/></g><g id="sprotty_ArchitectureBlockImpl$rv_plic_gateway/AlwaysBlockImpl$null10" transform="translate(103.59375, 118)" class="statement"><rect x="0" y="0" rx="10" ry="5" width="48.890625" height="40" class="sprotty-node" style="fill:rgb(245, 245, 245);stroke:rgb(112, 112, 112);"/><text class="clickable sprotty-label statementtype" id="sprotty_ArchitectureBlockImpl$rv_plic_gateway/AlwaysBlockImpl$null10/labeltype" transform="translate(5, 14) translate(18.828125, 9)" style="cursor:default;font-size:8px;font-weight:700;perspective-origin:0.609375px 0px;fill:rgb(112, 112, 112);text-anchor:middle;">always_ff</text><g id="sprotty_ArchitectureBlockImpl$rv_plic_gateway/AlwaysBlockImpl$null10/GPortImpl$src_iIN" transform="translate(0, 20)" class="sprotty-hidden hidden" style="display:block;height:0px;width:0px;"/><g id="sprotty_ArchitectureBlockImpl$rv_plic_gateway/AlwaysBlockImpl$null10/GPortImpl$rst_niIN" transform="translate(0, 30)" class="sprotty-hidden hidden" style="display:block;height:0px;width:0px;"/><g id="sprotty_ArchitectureBlockImpl$rv_plic_gateway/AlwaysBlockImpl$null10/GPortImpl$clk_iIN" transform="translate(0, 10)" class="sprotty-hidden hidden" style="display:block;height:0px;width:0px;"/></g><g id="sprotty_ArchitectureBlockImpl$rv_plic_gateway/BPortImpl$complete_i" transform="translate(0, 70)" class="triangle"><path d="M 0,0 L 5,2.5 L 0,5 Z" transform="translate(-1.67, -2.5)" class="sprotty-port" style="fill:rgb(48, 48, 48);stroke:rgb(48, 48, 48);"/><text class="clickable sprotty-label port" id="sprotty_ArchitectureBlockImpl$rv_plic_gateway/BPortImpl$complete_i/label" transform="translate(6, 6) translate(31.296875, 14)" style="cursor:default;font-size:12px;perspective-origin:0px 0px;fill:rgb(48, 48, 48);text-anchor:middle;">complete_i</text></g><g id="sprotty_ArchitectureBlockImpl$rv_plic_gateway/BPortImpl$claim_i" transform="translate(0, 36)" class="triangle"><path d="M 0,0 L 5,2.5 L 0,5 Z" transform="translate(-1.67, -2.5)" class="sprotty-port" style="fill:rgb(48, 48, 48);stroke:rgb(48, 48, 48);"/><text class="clickable sprotty-label port" id="sprotty_ArchitectureBlockImpl$rv_plic_gateway/BPortImpl$claim_i/label" transform="translate(6, 6) translate(20.359375, 14)" style="cursor:default;font-size:12px;perspective-origin:0px 0px;fill:rgb(48, 48, 48);text-anchor:middle;">claim_i</text></g><g id="sprotty_ArchitectureBlockImpl$rv_plic_gateway/BPortImpl$le_i" transform="translate(0, 255)" class="triangle"><path d="M 0,0 L 5,2.5 L 0,5 Z" transform="translate(-1.67, -2.5)" class="sprotty-port" style="fill:rgb(48, 48, 48);stroke:rgb(48, 48, 48);"/><text class="clickable sprotty-label port" id="sprotty_ArchitectureBlockImpl$rv_plic_gateway/BPortImpl$le_i/label" transform="translate(6, 6) translate(10.046875, 14)" style="cursor:default;font-size:12px;perspective-origin:0px 0px;fill:rgb(48, 48, 48);text-anchor:middle;">le_i</text></g><g id="sprotty_ArchitectureBlockImpl$rv_plic_gateway/BPortImpl$src_i" transform="translate(0, 138)" class="triangle"><path d="M 0,0 L 5,2.5 L 0,5 Z" transform="translate(-1.67, -2.5)" class="sprotty-port" style="fill:rgb(48, 48, 48);stroke:rgb(48, 48, 48);"/><text class="clickable sprotty-label port" id="sprotty_ArchitectureBlockImpl$rv_plic_gateway/BPortImpl$src_i/label" transform="translate(6, 6) translate(13.140625, 14)" style="cursor:default;font-size:12px;perspective-origin:0px 0px;fill:rgb(48, 48, 48);text-anchor:middle;">src_i</text></g><g id="sprotty_ArchitectureBlockImpl$rv_plic_gateway/BPortImpl$rst_ni" transform="translate(0, 211)" class="triangle"><path d="M 0,0 L 5,2.5 L 0,5 Z" transform="translate(-1.67, -2.5)" class="sprotty-port" style="fill:rgb(48, 48, 48);stroke:rgb(48, 48, 48);"/><text class="clickable sprotty-label port" id="sprotty_ArchitectureBlockImpl$rv_plic_gateway/BPortImpl$rst_ni/label" transform="translate(6, 6) translate(15.921875, 14)" style="cursor:default;font-size:12px;perspective-origin:0px 0px;fill:rgb(48, 48, 48);text-anchor:middle;">rst_ni</text></g><g id="sprotty_ArchitectureBlockImpl$rv_plic_gateway/BPortImpl$clk_i" transform="translate(0, 104)" class="triangle"><path d="M 0,0 L 5,2.5 L 0,5 Z" transform="translate(-1.67, -2.5)" class="sprotty-port" style="fill:rgb(48, 48, 48);stroke:rgb(48, 48, 48);"/><text class="clickable sprotty-label port" id="sprotty_ArchitectureBlockImpl$rv_plic_gateway/BPortImpl$clk_i/label" transform="translate(6, 6) translate(13.09375, 14)" style="cursor:default;font-size:12px;perspective-origin:0px 0px;fill:rgb(48, 48, 48);text-anchor:middle;">clk_i</text></g><g id="sprotty_ArchitectureBlockImpl$rv_plic_gateway/BPortImpl$ip_o" transform="translate(410.875, 181)" class="triangle"><path d="M 0,0 L 5,2.5 L 0,5 Z" transform="translate(-1.67, -2.5)" class="sprotty-port" style="fill:rgb(48, 48, 48);stroke:rgb(48, 48, 48);"/><text class="clickable sprotty-label port" id="sprotty_ArchitectureBlockImpl$rv_plic_gateway/BPortImpl$ip_o/label" transform="translate(-30.75, 6) translate(12.375, 14)" style="cursor:default;font-size:12px;perspective-origin:0px 0px;fill:rgb(48, 48, 48);text-anchor:middle;">ip_o</text></g></g></g></svg>