<svg xmlns="http://www.w3.org/2000/svg" id="sprotty_work.ibex_register_file_ff" class="sprotty-graph sprotty-block-diagram blockdiagram" style="font-family:&quot;Noto Sans&quot;, Helvetica, Arial, sans-serif;perspective-origin:0px 0px;transform-origin:0px 0px;" version="1.1" viewBox="7 7 683.453125 540" width="683.453125" height="540"><g transform="scale(1) translate(0,0)"><g id="sprotty_ArchitectureBlockImpl$ibex_register_file_ff" transform="translate(12, 12)" class="architecture"><g class="sprotty-block" style="fill:rgb(255, 255, 255);stroke:rgb(48, 48, 48);stroke-dasharray:0px;"><rect x="0" y="0" rx="1" ry="1" width="673.453125" height="530"/><text x="336.7265625" y="12" class="sprotty-block-name" style="cursor:pointer;font-weight:700;perspective-origin:337.469px 0px;fill:rgb(48, 48, 48);stroke:rgba(0, 0, 0, 0);dominant-baseline:middle;text-anchor:middle;">ibex_register_file_ff</text><line x1="0" y1="20" x2="673.453125" y2="20"/></g><g id="sprotty_ArchitectureBlockImpl$ibex_register_file_ff/AssignmentBlockImpl$rdata_a_o/GPortImpl$rdata_a_oOUT_to_ArchitectureBlockImpl$ibex_register_file_ff/BPortImpl$rdata_a_o" class="sprotty-edge thick edge" style="fill:none;stroke:rgb(112, 112, 112);stroke-linejoin:round;stroke-width:3px;"><g><path d="M 594.765625 244 L 673.453125 244 "/><path d="M 594.765625 244 L 673.453125 244 " class="clickable"/></g></g><g id="sprotty_ArchitectureBlockImpl$ibex_register_file_ff/AssignmentBlockImpl$rdata_b_o/GPortImpl$rdata_b_oOUT_to_ArchitectureBlockImpl$ibex_register_file_ff/BPortImpl$rdata_b_o" class="sprotty-edge thick edge" style="fill:none;stroke:rgb(112, 112, 112);stroke-linejoin:round;stroke-width:3px;"><g><path d="M 594.765625 61 L 673.453125 61 "/><path d="M 594.765625 61 L 673.453125 61 " class="clickable"/></g></g><g id="sprotty_ArchitectureBlockImpl$ibex_register_file_ff/BPortImpl$test_en_i_to_ArchitectureBlockImpl$ibex_register_file_ff/AssignmentBlockImpl$unused_test_en/GPortImpl$test_en_iIN" class="sprotty-edge edge" style="fill:none;stroke:rgb(112, 112, 112);stroke-linejoin:round;"><g><path d="M 0 491 L 72.59375 491 "/><path d="M 0 491 L 72.59375 491 " class="clickable"/></g></g><g id="sprotty_ArchitectureBlockImpl$ibex_register_file_ff/BPortImpl$clk_i_to_ArchitectureBlockImpl$ibex_register_file_ff/GenerateStatementBlockImpl$g_rf_flops/GPortImpl$clk_i" class="sprotty-edge edge" style="fill:none;stroke:rgb(112, 112, 112);stroke-linejoin:round;"><g><path d="M 0 120 L 151.53125 120 C 152.53125 120 153.53125 121 153.53125 122 L 153.53125 178 C 153.53125 179 154.53125 180 155.53125 180 L 316.296875 180 C 317.296875 180 318.296875 181 318.296875 182 L 318.296875 227 C 318.296875 228 319.296875 229 320.296875 229 L 328.296875 229 "/><path d="M 0 120 L 151.53125 120 C 152.53125 120 153.53125 121 153.53125 122 L 153.53125 178 C 153.53125 179 154.53125 180 155.53125 180 L 316.296875 180 C 317.296875 180 318.296875 181 318.296875 182 L 318.296875 227 C 318.296875 228 319.296875 229 320.296875 229 L 328.296875 229 " class="clickable"/></g><circle r="2" id="sprotty_ArchitectureBlockImpl$ibex_register_file_ff/BPortImpl$clk_i_to_ArchitectureBlockImpl$ibex_register_file_ff/GenerateStatementBlockImpl$g_rf_flops/GPortImpl$clk_i/junction0" transform="translate(153.53125, 120)" class="sprotty-junction junction" style="fill:rgb(112, 112, 112);stroke:none;"/></g><g id="sprotty_ArchitectureBlockImpl$ibex_register_file_ff/BPortImpl$rst_ni_to_ArchitectureBlockImpl$ibex_register_file_ff/GenerateStatementBlockImpl$g_rf_flops/GPortImpl$rst_ni" class="sprotty-edge edge" style="fill:none;stroke:rgb(112, 112, 112);stroke-linejoin:round;"><g><path d="M 0 154 L 131.53125 154 C 132.53125 154 133.53125 155 133.53125 156 L 133.53125 257 C 133.53125 258 134.53125 259 135.53125 259 L 328.296875 259 "/><path d="M 0 154 L 131.53125 154 C 132.53125 154 133.53125 155 133.53125 156 L 133.53125 257 C 133.53125 258 134.53125 259 135.53125 259 L 328.296875 259 " class="clickable"/></g><circle r="2" id="sprotty_ArchitectureBlockImpl$ibex_register_file_ff/BPortImpl$rst_ni_to_ArchitectureBlockImpl$ibex_register_file_ff/GenerateStatementBlockImpl$g_rf_flops/GPortImpl$rst_ni/junction0" transform="translate(133.53125, 154)" class="sprotty-junction junction" style="fill:rgb(112, 112, 112);stroke:none;"/></g><g id="sprotty_ArchitectureBlockImpl$ibex_register_file_ff/BPortImpl$wdata_a_i_to_ArchitectureBlockImpl$ibex_register_file_ff/GenerateStatementBlockImpl$g_rf_flops/GPortImpl$wdata_a_i" class="sprotty-edge thick edge" style="fill:none;stroke:rgb(112, 112, 112);stroke-linejoin:round;stroke-width:3px;"><g><path d="M 0 190 L 306.296875 190 C 307.296875 190 308.296875 191 308.296875 192 L 308.296875 237 C 308.296875 238 309.296875 239 310.296875 239 L 328.296875 239 "/><path d="M 0 190 L 306.296875 190 C 307.296875 190 308.296875 191 308.296875 192 L 308.296875 237 C 308.296875 238 309.296875 239 310.296875 239 L 328.296875 239 " class="clickable"/></g></g><g id="sprotty_ArchitectureBlockImpl$ibex_register_file_ff/BPortImpl$dummy_instr_id_i_to_ArchitectureBlockImpl$ibex_register_file_ff/GenerateStatementBlockImpl$null11/GPortImpl$dummy_instr_id_i" class="sprotty-edge edge" style="fill:none;stroke:rgb(112, 112, 112);stroke-linejoin:round;"><g><path d="M 0 86 L 424.15625 86 C 425.15625 86 426.15625 87 426.15625 88 L 426.15625 101 C 426.15625 102 427.15625 103 428.15625 103 L 436.15625 103 "/><path d="M 0 86 L 424.15625 86 C 425.15625 86 426.15625 87 426.15625 88 L 426.15625 101 C 426.15625 102 427.15625 103 428.15625 103 L 436.15625 103 " class="clickable"/></g></g><g id="sprotty_ArchitectureBlockImpl$ibex_register_file_ff/BPortImpl$clk_i_to_ArchitectureBlockImpl$ibex_register_file_ff/GenerateStatementBlockImpl$null11/GPortImpl$clk_i" class="sprotty-edge edge" style="fill:none;stroke:rgb(112, 112, 112);stroke-linejoin:round;"><g><path d="M 0 120 L 424.15625 120 C 425.15625 120 426.15625 121 426.15625 122 L 426.15625 142 C 426.15625 143 427.15625 144 428.15625 144 L 436.15625 144 "/><path d="M 0 120 L 424.15625 120 C 425.15625 120 426.15625 121 426.15625 122 L 426.15625 142 C 426.15625 143 427.15625 144 428.15625 144 L 436.15625 144 " class="clickable"/></g></g><g id="sprotty_ArchitectureBlockImpl$ibex_register_file_ff/BPortImpl$rst_ni_to_ArchitectureBlockImpl$ibex_register_file_ff/GenerateStatementBlockImpl$null11/GPortImpl$rst_ni" class="sprotty-edge edge" style="fill:none;stroke:rgb(112, 112, 112);stroke-linejoin:round;"><g><path d="M 0 154 L 436.15625 154 "/><path d="M 0 154 L 436.15625 154 " class="clickable"/></g></g><g id="sprotty_ArchitectureBlockImpl$ibex_register_file_ff/BPortImpl$wdata_a_i_to_ArchitectureBlockImpl$ibex_register_file_ff/GenerateStatementBlockImpl$null11/GPortImpl$wdata_a_i" class="sprotty-edge thick edge" style="fill:none;stroke:rgb(112, 112, 112);stroke-linejoin:round;stroke-width:3px;"><g><path d="M 0 190 L 141.53125 190 C 142.53125 190 143.53125 189 143.53125 188 L 143.53125 166 C 143.53125 165 144.53125 164 145.53125 164 L 436.15625 164 "/><path d="M 0 190 L 141.53125 190 C 142.53125 190 143.53125 189 143.53125 188 L 143.53125 166 C 143.53125 165 144.53125 164 145.53125 164 L 436.15625 164 " class="clickable"/></g><circle r="3" id="sprotty_ArchitectureBlockImpl$ibex_register_file_ff/BPortImpl$wdata_a_i_to_ArchitectureBlockImpl$ibex_register_file_ff/GenerateStatementBlockImpl$null11/GPortImpl$wdata_a_i/junction0" transform="translate(143.53125, 190)" class="sprotty-junction thick" style="fill:rgb(112, 112, 112);stroke:none;"/></g><g id="sprotty_ArchitectureBlockImpl$ibex_register_file_ff/GenerateStatementBlockImpl$null11/GPortImpl$rf_reg_to_ArchitectureBlockImpl$ibex_register_file_ff/AssignmentBlockImpl$rdata_a_o/GPortImpl$rf_regIN" class="sprotty-edge thick edge" style="fill:none;stroke:rgb(112, 112, 112);stroke-linejoin:round;stroke-width:3px;"><g><path d="M 555.046875 61 L 563.046875 61 C 564.046875 61 565.046875 62 565.046875 63 L 565.046875 242 C 565.046875 243 566.046875 244 567.046875 244 L 575.046875 244 "/><path d="M 555.046875 61 L 563.046875 61 C 564.046875 61 565.046875 62 565.046875 63 L 565.046875 242 C 565.046875 243 566.046875 244 567.046875 244 L 575.046875 244 " class="clickable"/></g><circle r="3" id="sprotty_ArchitectureBlockImpl$ibex_register_file_ff/GenerateStatementBlockImpl$null11/GPortImpl$rf_reg_to_ArchitectureBlockImpl$ibex_register_file_ff/AssignmentBlockImpl$rdata_a_o/GPortImpl$rf_regIN/junction0" transform="translate(565.046875, 61)" class="sprotty-junction thick" style="fill:rgb(112, 112, 112);stroke:none;"/><circle r="3" id="sprotty_ArchitectureBlockImpl$ibex_register_file_ff/GenerateStatementBlockImpl$null11/GPortImpl$rf_reg_to_ArchitectureBlockImpl$ibex_register_file_ff/AssignmentBlockImpl$rdata_a_o/GPortImpl$rf_regIN/junction1" transform="translate(565.046875, 244)" class="sprotty-junction thick" style="fill:rgb(112, 112, 112);stroke:none;"/></g><g id="sprotty_ArchitectureBlockImpl$ibex_register_file_ff/GenerateStatementBlockImpl$null11/GPortImpl$rf_reg_to_ArchitectureBlockImpl$ibex_register_file_ff/AssignmentBlockImpl$rdata_b_o/GPortImpl$rf_regIN" class="sprotty-edge thick edge" style="fill:none;stroke:rgb(112, 112, 112);stroke-linejoin:round;stroke-width:3px;"><g><path d="M 555.046875 61 L 575.046875 61 "/><path d="M 555.046875 61 L 575.046875 61 " class="clickable"/></g></g><g id="sprotty_ArchitectureBlockImpl$ibex_register_file_ff/AssignmentBlockImpl$rf_reg/GPortImpl$rf_reg_qOUT_to_ArchitectureBlockImpl$ibex_register_file_ff/AssignmentBlockImpl$rdata_a_o/GPortImpl$rf_regIN" class="sprotty-edge thick edge" style="fill:none;stroke:rgb(112, 112, 112);stroke-linejoin:round;stroke-width:3px;"><g><path d="M 505.4609375 244 L 575.046875 244 "/><path d="M 505.4609375 244 L 575.046875 244 " class="clickable"/></g></g><g id="sprotty_ArchitectureBlockImpl$ibex_register_file_ff/GenerateStatementBlockImpl$g_rf_flops/GPortImpl$rf_reg_q_to_ArchitectureBlockImpl$ibex_register_file_ff/AssignmentBlockImpl$rf_reg/GPortImpl$rf_reg_qIN" class="sprotty-edge thick edge" style="fill:none;stroke:rgb(112, 112, 112);stroke-linejoin:round;stroke-width:3px;"><g><path d="M 416.15625 244 L 485.7421875 244 "/><path d="M 416.15625 244 L 485.7421875 244 " class="clickable"/></g></g><g id="sprotty_ArchitectureBlockImpl$ibex_register_file_ff/AlwaysBlockImpl$we_a_decoder/GPortImpl$we_a_decOUT_to_ArchitectureBlockImpl$ibex_register_file_ff/GenerateStatementBlockImpl$g_rf_flops/GPortImpl$we_a_dec" class="sprotty-edge thick edge" style="fill:none;stroke:rgb(112, 112, 112);stroke-linejoin:round;stroke-width:3px;"><g><path d="M 288.296875 225 L 296.296875 225 C 297.296875 225 298.296875 226 298.296875 227 L 298.296875 247 C 298.296875 248 299.296875 249 300.296875 249 L 328.296875 249 "/><path d="M 288.296875 225 L 296.296875 225 C 297.296875 225 298.296875 226 298.296875 227 L 298.296875 247 C 298.296875 248 299.296875 249 300.296875 249 L 328.296875 249 " class="clickable"/></g></g><g id="sprotty_ArchitectureBlockImpl$ibex_register_file_ff/GenerateStatementBlockImpl$null11" transform="translate(436.15625, 35)" class="generate"><g class="sprotty-block sprotty-block-generate" style="fill:rgb(255, 255, 255);stroke:rgb(48, 48, 48);stroke-dasharray:0px;"><rect x="0" y="0" rx="1" ry="1" width="118.890625" height="178" style="stroke-dasharray:3px, 1px;"/><text x="59.4453125" y="12" class="sprotty-block-name" style="cursor:pointer;font-weight:700;fill:rgb(48, 48, 48);stroke:rgba(0, 0, 0, 0);dominant-baseline:middle;text-anchor:middle;"/>undefined</g><g id="sprotty_ArchitectureBlockImpl$ibex_register_file_ff/GenerateStatementBlockImpl$null11/GPortImpl$dummy_instr_id_i_to_ArchitectureBlockImpl$ibex_register_file_ff/GenerateStatementBlockImpl$null11/AssignmentBlockImpl$rf_reg1/GPortImpl$dummy_instr_id_iIN" class="sprotty-edge edge" style="fill:none;stroke:rgb(112, 112, 112);stroke-linejoin:round;"><g><path d="M 0 68 L 15 68 "/><path d="M 0 68 L 15 68 " class="clickable"/></g></g><g id="sprotty_ArchitectureBlockImpl$ibex_register_file_ff/GenerateStatementBlockImpl$null11/GPortImpl$clk_i_to_ArchitectureBlockImpl$ibex_register_file_ff/GenerateStatementBlockImpl$null11/AlwaysBlockImpl$null5/GPortImpl$clk_iIN" class="sprotty-edge edge" style="fill:none;stroke:rgb(112, 112, 112);stroke-linejoin:round;"><g><path d="M 0 109 L 15 109 "/><path d="M 0 109 L 15 109 " class="clickable"/></g></g><g id="sprotty_ArchitectureBlockImpl$ibex_register_file_ff/GenerateStatementBlockImpl$null11/GPortImpl$rst_ni_to_ArchitectureBlockImpl$ibex_register_file_ff/GenerateStatementBlockImpl$null11/AlwaysBlockImpl$null5/GPortImpl$rst_niIN" class="sprotty-edge edge" style="fill:none;stroke:rgb(112, 112, 112);stroke-linejoin:round;"><g><path d="M 0 119 L 15 119 "/><path d="M 0 119 L 15 119 " class="clickable"/></g></g><g id="sprotty_ArchitectureBlockImpl$ibex_register_file_ff/GenerateStatementBlockImpl$null11/GPortImpl$wdata_a_i_to_ArchitectureBlockImpl$ibex_register_file_ff/GenerateStatementBlockImpl$null11/AlwaysBlockImpl$null5/GPortImpl$wdata_a_iIN" class="sprotty-edge thick edge" style="fill:none;stroke:rgb(112, 112, 112);stroke-linejoin:round;stroke-width:3px;"><g><path d="M 0 129 L 15 129 "/><path d="M 0 129 L 15 129 " class="clickable"/></g></g><g id="sprotty_ArchitectureBlockImpl$ibex_register_file_ff/GenerateStatementBlockImpl$null11/AssignmentBlockImpl$rf_reg1/GPortImpl$rf_regOUT_to_ArchitectureBlockImpl$ibex_register_file_ff/GenerateStatementBlockImpl$null11/GPortImpl$rf_reg" class="sprotty-edge thick edge" style="fill:none;stroke:rgb(112, 112, 112);stroke-linejoin:round;stroke-width:3px;"><g><path d="M 34.71875 68 L 42.71875 68 C 43.71875 68 44.71875 67 44.71875 66 L 44.71875 28 C 44.71875 27 45.71875 26 46.71875 26 L 118.890625 26 "/><path d="M 34.71875 68 L 42.71875 68 C 43.71875 68 44.71875 67 44.71875 66 L 44.71875 28 C 44.71875 27 45.71875 26 46.71875 26 L 118.890625 26 " class="clickable"/></g><circle r="3" id="sprotty_ArchitectureBlockImpl$ibex_register_file_ff/GenerateStatementBlockImpl$null11/AssignmentBlockImpl$rf_reg1/GPortImpl$rf_regOUT_to_ArchitectureBlockImpl$ibex_register_file_ff/GenerateStatementBlockImpl$null11/GPortImpl$rf_reg/junction0" transform="translate(44.71875, 26)" class="sprotty-junction thick" style="fill:rgb(112, 112, 112);stroke:none;"/></g><g id="sprotty_ArchitectureBlockImpl$ibex_register_file_ff/GenerateStatementBlockImpl$null11/AssignmentBlockImpl$rf_reg/GPortImpl$rf_regOUT_to_ArchitectureBlockImpl$ibex_register_file_ff/GenerateStatementBlockImpl$null11/GPortImpl$rf_reg" class="sprotty-edge thick edge" style="fill:none;stroke:rgb(112, 112, 112);stroke-linejoin:round;stroke-width:3px;"><g><path d="M 34.71875 26 L 118.890625 26 "/><path d="M 34.71875 26 L 118.890625 26 " class="clickable"/></g></g><g id="sprotty_ArchitectureBlockImpl$ibex_register_file_ff/GenerateStatementBlockImpl$null11/AlwaysBlockImpl$null5" transform="translate(15, 99)" class="statement"><rect x="0" y="0" rx="10" ry="5" width="48.890625" height="40" class="sprotty-node" style="fill:rgb(245, 245, 245);stroke:rgb(112, 112, 112);"/><text class="clickable sprotty-label statementtype" id="sprotty_ArchitectureBlockImpl$ibex_register_file_ff/GenerateStatementBlockImpl$null11/AlwaysBlockImpl$null5/labeltype" transform="translate(5, 14) translate(18.828125, 9)" style="cursor:default;font-size:8px;font-weight:700;perspective-origin:0.609375px 0px;fill:rgb(112, 112, 112);text-anchor:middle;">always_ff</text><g id="sprotty_ArchitectureBlockImpl$ibex_register_file_ff/GenerateStatementBlockImpl$null11/AlwaysBlockImpl$null5/GPortImpl$wdata_a_iIN" transform="translate(0, 30)" class="sprotty-hidden hidden" style="display:block;height:0px;width:0px;"/><g id="sprotty_ArchitectureBlockImpl$ibex_register_file_ff/GenerateStatementBlockImpl$null11/AlwaysBlockImpl$null5/GPortImpl$rst_niIN" transform="translate(0, 20)" class="sprotty-hidden hidden" style="display:block;height:0px;width:0px;"/><g id="sprotty_ArchitectureBlockImpl$ibex_register_file_ff/GenerateStatementBlockImpl$null11/AlwaysBlockImpl$null5/GPortImpl$clk_iIN" transform="translate(0, 10)" class="sprotty-hidden hidden" style="display:block;height:0px;width:0px;"/></g><g id="sprotty_ArchitectureBlockImpl$ibex_register_file_ff/GenerateStatementBlockImpl$null11/AssignmentBlockImpl$rf_reg" transform="translate(15, 15)" class="statement"><rect x="0" y="0" rx="10" ry="5" width="19.71875" height="22" class="sprotty-node" style="fill:rgb(245, 245, 245);stroke:rgb(112, 112, 112);"/><text class="clickable sprotty-label statementtype" id="sprotty_ArchitectureBlockImpl$ibex_register_file_ff/GenerateStatementBlockImpl$null11/AssignmentBlockImpl$rf_reg/labeltype" transform="translate(5, 5) translate(4.71875, 9)" style="cursor:default;font-size:8px;font-weight:700;perspective-origin:0.140625px 0px;fill:rgb(112, 112, 112);text-anchor:middle;">&lt;=</text><g id="sprotty_ArchitectureBlockImpl$ibex_register_file_ff/GenerateStatementBlockImpl$null11/AssignmentBlockImpl$rf_reg/GPortImpl$rf_regOUT" transform="translate(19.71875, 11)" class="sprotty-hidden hidden" style="display:block;height:0px;width:0px;"/></g><g id="sprotty_ArchitectureBlockImpl$ibex_register_file_ff/GenerateStatementBlockImpl$null11/AssignmentBlockImpl$unused_dummy_instr_id" transform="translate(83.890625, 99)" class="statement"><rect x="0" y="0" rx="10" ry="5" width="19.71875" height="22" class="sprotty-node" style="fill:rgb(245, 245, 245);stroke:rgb(112, 112, 112);"/><text class="clickable sprotty-label statementtype" id="sprotty_ArchitectureBlockImpl$ibex_register_file_ff/GenerateStatementBlockImpl$null11/AssignmentBlockImpl$unused_dummy_instr_id/labeltype" transform="translate(5, 5) translate(4.71875, 9)" style="cursor:default;font-size:8px;font-weight:700;perspective-origin:0.140625px 0px;fill:rgb(112, 112, 112);text-anchor:middle;">&lt;=</text></g><g id="sprotty_ArchitectureBlockImpl$ibex_register_file_ff/GenerateStatementBlockImpl$null11/AssignmentBlockImpl$rf_reg1" transform="translate(15, 57)" class="statement"><rect x="0" y="0" rx="10" ry="5" width="19.71875" height="22" class="sprotty-node" style="fill:rgb(245, 245, 245);stroke:rgb(112, 112, 112);"/><text class="clickable sprotty-label statementtype" id="sprotty_ArchitectureBlockImpl$ibex_register_file_ff/GenerateStatementBlockImpl$null11/AssignmentBlockImpl$rf_reg1/labeltype" transform="translate(5, 5) translate(4.71875, 9)" style="cursor:default;font-size:8px;font-weight:700;perspective-origin:0.140625px 0px;fill:rgb(112, 112, 112);text-anchor:middle;">&lt;=</text><g id="sprotty_ArchitectureBlockImpl$ibex_register_file_ff/GenerateStatementBlockImpl$null11/AssignmentBlockImpl$rf_reg1/GPortImpl$dummy_instr_id_iIN" transform="translate(0, 11)" class="sprotty-hidden hidden" style="display:block;height:0px;width:0px;"/><g id="sprotty_ArchitectureBlockImpl$ibex_register_file_ff/GenerateStatementBlockImpl$null11/AssignmentBlockImpl$rf_reg1/GPortImpl$rf_regOUT" transform="translate(19.71875, 11)" class="sprotty-hidden hidden" style="display:block;height:0px;width:0px;"/></g><g id="sprotty_ArchitectureBlockImpl$ibex_register_file_ff/GenerateStatementBlockImpl$null11/AssignmentBlockImpl$we_r0_dummy" transform="translate(83.890625, 141)" class="statement"><rect x="0" y="0" rx="10" ry="5" width="19.71875" height="22" class="sprotty-node" style="fill:rgb(245, 245, 245);stroke:rgb(112, 112, 112);"/><text class="clickable sprotty-label statementtype" id="sprotty_ArchitectureBlockImpl$ibex_register_file_ff/GenerateStatementBlockImpl$null11/AssignmentBlockImpl$we_r0_dummy/labeltype" transform="translate(5, 5) translate(4.71875, 9)" style="cursor:default;font-size:8px;font-weight:700;perspective-origin:0.140625px 0px;fill:rgb(112, 112, 112);text-anchor:middle;">&lt;=</text></g><g id="sprotty_ArchitectureBlockImpl$ibex_register_file_ff/GenerateStatementBlockImpl$null11/GPortImpl$wdata_a_i" transform="translate(0, 129)" class="triangle"><path d="M 0,0 L 5,2.5 L 0,5 Z" transform="translate(-1.67, -2.5)" class="sprotty-port" style="fill:rgb(48, 48, 48);stroke:rgb(48, 48, 48);"/></g><g id="sprotty_ArchitectureBlockImpl$ibex_register_file_ff/GenerateStatementBlockImpl$null11/GPortImpl$rst_ni" transform="translate(0, 119)" class="triangle"><path d="M 0,0 L 5,2.5 L 0,5 Z" transform="translate(-1.67, -2.5)" class="sprotty-port" style="fill:rgb(48, 48, 48);stroke:rgb(48, 48, 48);"/></g><g id="sprotty_ArchitectureBlockImpl$ibex_register_file_ff/GenerateStatementBlockImpl$null11/GPortImpl$clk_i" transform="translate(0, 109)" class="triangle"><path d="M 0,0 L 5,2.5 L 0,5 Z" transform="translate(-1.67, -2.5)" class="sprotty-port" style="fill:rgb(48, 48, 48);stroke:rgb(48, 48, 48);"/></g><g id="sprotty_ArchitectureBlockImpl$ibex_register_file_ff/GenerateStatementBlockImpl$null11/GPortImpl$dummy_instr_id_i" transform="translate(0, 68)" class="triangle"><path d="M 0,0 L 5,2.5 L 0,5 Z" transform="translate(-1.67, -2.5)" class="sprotty-port" style="fill:rgb(48, 48, 48);stroke:rgb(48, 48, 48);"/></g><g id="sprotty_ArchitectureBlockImpl$ibex_register_file_ff/GenerateStatementBlockImpl$null11/GPortImpl$rf_reg" transform="translate(118.890625, 26)" class="triangle"><path d="M 0,0 L 5,2.5 L 0,5 Z" transform="translate(-1.67, -2.5)" class="sprotty-port" style="fill:rgb(48, 48, 48);stroke:rgb(48, 48, 48);"/></g></g><g id="sprotty_ArchitectureBlockImpl$ibex_register_file_ff/GenerateStatementBlockImpl$g_rf_flops" transform="translate(328.296875, 184)" class="generate"><g class="sprotty-block sprotty-block-generate" style="fill:rgb(255, 255, 255);stroke:rgb(48, 48, 48);stroke-dasharray:0px;"><rect x="0" y="0" rx="1" ry="1" width="87.859375" height="100" style="stroke-dasharray:3px, 1px;"/><text x="43.9296875" y="12" class="sprotty-block-name" style="cursor:pointer;font-weight:700;perspective-origin:43.9688px 0px;fill:rgb(48, 48, 48);stroke:rgba(0, 0, 0, 0);dominant-baseline:middle;text-anchor:middle;">g_rf_flops</text><line x1="0" y1="20" x2="87.859375" y2="20" style="stroke-dasharray:3px, 1px;"/></g><g id="sprotty_ArchitectureBlockImpl$ibex_register_file_ff/GenerateStatementBlockImpl$g_rf_flops/GPortImpl$clk_i_to_ArchitectureBlockImpl$ibex_register_file_ff/GenerateStatementBlockImpl$g_rf_flops/AlwaysBlockImpl$null5/GPortImpl$clk_iIN" class="sprotty-edge edge" style="fill:none;stroke:rgb(112, 112, 112);stroke-linejoin:round;"><g><path d="M 0 45 L 15 45 "/><path d="M 0 45 L 15 45 " class="clickable"/></g></g><g id="sprotty_ArchitectureBlockImpl$ibex_register_file_ff/GenerateStatementBlockImpl$g_rf_flops/GPortImpl$rst_ni_to_ArchitectureBlockImpl$ibex_register_file_ff/GenerateStatementBlockImpl$g_rf_flops/AlwaysBlockImpl$null5/GPortImpl$rst_niIN" class="sprotty-edge edge" style="fill:none;stroke:rgb(112, 112, 112);stroke-linejoin:round;"><g><path d="M 0 75 L 15 75 "/><path d="M 0 75 L 15 75 " class="clickable"/></g></g><g id="sprotty_ArchitectureBlockImpl$ibex_register_file_ff/GenerateStatementBlockImpl$g_rf_flops/GPortImpl$wdata_a_i_to_ArchitectureBlockImpl$ibex_register_file_ff/GenerateStatementBlockImpl$g_rf_flops/AlwaysBlockImpl$null5/GPortImpl$wdata_a_iIN" class="sprotty-edge thick edge" style="fill:none;stroke:rgb(112, 112, 112);stroke-linejoin:round;stroke-width:3px;"><g><path d="M 0 55 L 15 55 "/><path d="M 0 55 L 15 55 " class="clickable"/></g></g><g id="sprotty_ArchitectureBlockImpl$ibex_register_file_ff/GenerateStatementBlockImpl$g_rf_flops/AlwaysBlockImpl$null5/GPortImpl$rf_reg_qOUT_to_ArchitectureBlockImpl$ibex_register_file_ff/GenerateStatementBlockImpl$g_rf_flops/GPortImpl$rf_reg_q" class="sprotty-edge thick edge" style="fill:none;stroke:rgb(112, 112, 112);stroke-linejoin:round;stroke-width:3px;"><g><path d="M 63.890625 60 L 87.859375 60 "/><path d="M 63.890625 60 L 87.859375 60 " class="clickable"/></g></g><g id="sprotty_ArchitectureBlockImpl$ibex_register_file_ff/GenerateStatementBlockImpl$g_rf_flops/GPortImpl$we_a_dec_to_ArchitectureBlockImpl$ibex_register_file_ff/GenerateStatementBlockImpl$g_rf_flops/AlwaysBlockImpl$null5/GPortImpl$we_a_decIN" class="sprotty-edge thick edge" style="fill:none;stroke:rgb(112, 112, 112);stroke-linejoin:round;stroke-width:3px;"><g><path d="M 0 65 L 15 65 "/><path d="M 0 65 L 15 65 " class="clickable"/></g></g><g id="sprotty_ArchitectureBlockImpl$ibex_register_file_ff/GenerateStatementBlockImpl$g_rf_flops/AlwaysBlockImpl$null5" transform="translate(15, 35)" class="statement"><rect x="0" y="0" rx="10" ry="5" width="48.890625" height="50" class="sprotty-node" style="fill:rgb(245, 245, 245);stroke:rgb(112, 112, 112);"/><text class="clickable sprotty-label statementtype" id="sprotty_ArchitectureBlockImpl$ibex_register_file_ff/GenerateStatementBlockImpl$g_rf_flops/AlwaysBlockImpl$null5/labeltype" transform="translate(5, 19) translate(18.828125, 9)" style="cursor:default;font-size:8px;font-weight:700;perspective-origin:0.609375px 0px;fill:rgb(112, 112, 112);text-anchor:middle;">always_ff</text><g id="sprotty_ArchitectureBlockImpl$ibex_register_file_ff/GenerateStatementBlockImpl$g_rf_flops/AlwaysBlockImpl$null5/GPortImpl$wdata_a_iIN" transform="translate(0, 20)" class="sprotty-hidden hidden" style="display:block;height:0px;width:0px;"/><g id="sprotty_ArchitectureBlockImpl$ibex_register_file_ff/GenerateStatementBlockImpl$g_rf_flops/AlwaysBlockImpl$null5/GPortImpl$we_a_decIN" transform="translate(0, 30)" class="sprotty-hidden hidden" style="display:block;height:0px;width:0px;"/><g id="sprotty_ArchitectureBlockImpl$ibex_register_file_ff/GenerateStatementBlockImpl$g_rf_flops/AlwaysBlockImpl$null5/GPortImpl$rst_niIN" transform="translate(0, 40)" class="sprotty-hidden hidden" style="display:block;height:0px;width:0px;"/><g id="sprotty_ArchitectureBlockImpl$ibex_register_file_ff/GenerateStatementBlockImpl$g_rf_flops/AlwaysBlockImpl$null5/GPortImpl$clk_iIN" transform="translate(0, 10)" class="sprotty-hidden hidden" style="display:block;height:0px;width:0px;"/><g id="sprotty_ArchitectureBlockImpl$ibex_register_file_ff/GenerateStatementBlockImpl$g_rf_flops/AlwaysBlockImpl$null5/GPortImpl$rf_reg_qOUT" transform="translate(48.890625, 25)" class="sprotty-hidden hidden" style="display:block;height:0px;width:0px;"/></g><g id="sprotty_ArchitectureBlockImpl$ibex_register_file_ff/GenerateStatementBlockImpl$g_rf_flops/GPortImpl$we_a_dec" transform="translate(0, 65)" class="triangle"><path d="M 0,0 L 5,2.5 L 0,5 Z" transform="translate(-1.67, -2.5)" class="sprotty-port" style="fill:rgb(48, 48, 48);stroke:rgb(48, 48, 48);"/></g><g id="sprotty_ArchitectureBlockImpl$ibex_register_file_ff/GenerateStatementBlockImpl$g_rf_flops/GPortImpl$wdata_a_i" transform="translate(0, 55)" class="triangle"><path d="M 0,0 L 5,2.5 L 0,5 Z" transform="translate(-1.67, -2.5)" class="sprotty-port" style="fill:rgb(48, 48, 48);stroke:rgb(48, 48, 48);"/></g><g id="sprotty_ArchitectureBlockImpl$ibex_register_file_ff/GenerateStatementBlockImpl$g_rf_flops/GPortImpl$rst_ni" transform="translate(0, 75)" class="triangle"><path d="M 0,0 L 5,2.5 L 0,5 Z" transform="translate(-1.67, -2.5)" class="sprotty-port" style="fill:rgb(48, 48, 48);stroke:rgb(48, 48, 48);"/></g><g id="sprotty_ArchitectureBlockImpl$ibex_register_file_ff/GenerateStatementBlockImpl$g_rf_flops/GPortImpl$clk_i" transform="translate(0, 45)" class="triangle"><path d="M 0,0 L 5,2.5 L 0,5 Z" transform="translate(-1.67, -2.5)" class="sprotty-port" style="fill:rgb(48, 48, 48);stroke:rgb(48, 48, 48);"/></g><g id="sprotty_ArchitectureBlockImpl$ibex_register_file_ff/GenerateStatementBlockImpl$g_rf_flops/GPortImpl$rf_reg_q" transform="translate(87.859375, 60)" class="triangle"><path d="M 0,0 L 5,2.5 L 0,5 Z" transform="translate(-1.67, -2.5)" class="sprotty-port" style="fill:rgb(48, 48, 48);stroke:rgb(48, 48, 48);"/></g></g><g id="sprotty_ArchitectureBlockImpl$ibex_register_file_ff/AlwaysBlockImpl$we_a_decoder" transform="translate(163.53125, 202)" class="statement"><rect x="0" y="0" rx="10" ry="5" width="124.765625" height="46" class="sprotty-node" style="fill:rgb(245, 245, 245);stroke:rgb(112, 112, 112);"/><text class="clickable sprotty-label statementtext" id="sprotty_ArchitectureBlockImpl$ibex_register_file_ff/AlwaysBlockImpl$we_a_decoder/labeltext" transform="translate(5, 5) translate(57.375, 19)" style="cursor:default;font-weight:700;perspective-origin:0px 0px;fill:rgb(112, 112, 112);text-anchor:middle;">we_a_decoder</text><text class="clickable sprotty-label statementtype" id="sprotty_ArchitectureBlockImpl$ibex_register_file_ff/AlwaysBlockImpl$we_a_decoder/labeltype" transform="translate(35.5078125, 29) translate(26.875, 9)" style="cursor:default;font-size:8px;font-weight:700;perspective-origin:0px 0px;fill:rgb(112, 112, 112);text-anchor:middle;">always_comb</text><g id="sprotty_ArchitectureBlockImpl$ibex_register_file_ff/AlwaysBlockImpl$we_a_decoder/GPortImpl$we_a_decOUT" transform="translate(124.765625, 23)" class="sprotty-hidden hidden" style="display:block;height:0px;width:0px;"/></g><g id="sprotty_ArchitectureBlockImpl$ibex_register_file_ff/AssignmentBlockImpl$unused_test_en" transform="translate(72.59375, 480)" class="statement"><rect x="0" y="0" rx="10" ry="5" width="19.71875" height="22" class="sprotty-node" style="fill:rgb(245, 245, 245);stroke:rgb(112, 112, 112);"/><text class="clickable sprotty-label statementtype" id="sprotty_ArchitectureBlockImpl$ibex_register_file_ff/AssignmentBlockImpl$unused_test_en/labeltype" transform="translate(5, 5) translate(4.71875, 9)" style="cursor:default;font-size:8px;font-weight:700;perspective-origin:0.140625px 0px;fill:rgb(112, 112, 112);text-anchor:middle;">&lt;=</text><g id="sprotty_ArchitectureBlockImpl$ibex_register_file_ff/AssignmentBlockImpl$unused_test_en/GPortImpl$test_en_iIN" transform="translate(0, 11)" class="sprotty-hidden hidden" style="display:block;height:0px;width:0px;"/></g><g id="sprotty_ArchitectureBlockImpl$ibex_register_file_ff/AssignmentBlockImpl$rdata_b_o" transform="translate(575.046875, 50)" class="statement"><rect x="0" y="0" rx="10" ry="5" width="19.71875" height="22" class="sprotty-node" style="fill:rgb(245, 245, 245);stroke:rgb(112, 112, 112);"/><text class="clickable sprotty-label statementtype" id="sprotty_ArchitectureBlockImpl$ibex_register_file_ff/AssignmentBlockImpl$rdata_b_o/labeltype" transform="translate(5, 5) translate(4.71875, 9)" style="cursor:default;font-size:8px;font-weight:700;perspective-origin:0.140625px 0px;fill:rgb(112, 112, 112);text-anchor:middle;">&lt;=</text><g id="sprotty_ArchitectureBlockImpl$ibex_register_file_ff/AssignmentBlockImpl$rdata_b_o/GPortImpl$rf_regIN" transform="translate(0, 11)" class="sprotty-hidden hidden" style="display:block;height:0px;width:0px;"/><g id="sprotty_ArchitectureBlockImpl$ibex_register_file_ff/AssignmentBlockImpl$rdata_b_o/GPortImpl$rdata_b_oOUT" transform="translate(19.71875, 11)" class="sprotty-hidden hidden" style="display:block;height:0px;width:0px;"/></g><g id="sprotty_ArchitectureBlockImpl$ibex_register_file_ff/AssignmentBlockImpl$rdata_a_o" transform="translate(575.046875, 233)" class="statement"><rect x="0" y="0" rx="10" ry="5" width="19.71875" height="22" class="sprotty-node" style="fill:rgb(245, 245, 245);stroke:rgb(112, 112, 112);"/><text class="clickable sprotty-label statementtype" id="sprotty_ArchitectureBlockImpl$ibex_register_file_ff/AssignmentBlockImpl$rdata_a_o/labeltype" transform="translate(5, 5) translate(4.71875, 9)" style="cursor:default;font-size:8px;font-weight:700;perspective-origin:0.140625px 0px;fill:rgb(112, 112, 112);text-anchor:middle;">&lt;=</text><g id="sprotty_ArchitectureBlockImpl$ibex_register_file_ff/AssignmentBlockImpl$rdata_a_o/GPortImpl$rf_regIN" transform="translate(0, 11)" class="sprotty-hidden hidden" style="display:block;height:0px;width:0px;"/><g id="sprotty_ArchitectureBlockImpl$ibex_register_file_ff/AssignmentBlockImpl$rdata_a_o/GPortImpl$rdata_a_oOUT" transform="translate(19.71875, 11)" class="sprotty-hidden hidden" style="display:block;height:0px;width:0px;"/></g><g id="sprotty_ArchitectureBlockImpl$ibex_register_file_ff/AssignmentBlockImpl$rf_reg" transform="translate(485.7421875, 233)" class="statement"><rect x="0" y="0" rx="10" ry="5" width="19.71875" height="22" class="sprotty-node" style="fill:rgb(245, 245, 245);stroke:rgb(112, 112, 112);"/><text class="clickable sprotty-label statementtype" id="sprotty_ArchitectureBlockImpl$ibex_register_file_ff/AssignmentBlockImpl$rf_reg/labeltype" transform="translate(5, 5) translate(4.71875, 9)" style="cursor:default;font-size:8px;font-weight:700;perspective-origin:0.140625px 0px;fill:rgb(112, 112, 112);text-anchor:middle;">&lt;=</text><g id="sprotty_ArchitectureBlockImpl$ibex_register_file_ff/AssignmentBlockImpl$rf_reg/GPortImpl$rf_reg_qIN" transform="translate(0, 11)" class="sprotty-hidden hidden" style="display:block;height:0px;width:0px;"/><g id="sprotty_ArchitectureBlockImpl$ibex_register_file_ff/AssignmentBlockImpl$rf_reg/GPortImpl$rf_reg_qOUT" transform="translate(19.71875, 11)" class="sprotty-hidden hidden" style="display:block;height:0px;width:0px;"/></g><g id="sprotty_ArchitectureBlockImpl$ibex_register_file_ff/BPortImpl$we_a_i" transform="translate(0, 304)" class="triangle"><path d="M 0,0 L 5,2.5 L 0,5 Z" transform="translate(-1.67, -2.5)" class="sprotty-port" style="fill:rgb(48, 48, 48);stroke:rgb(48, 48, 48);"/><text class="clickable sprotty-label port" id="sprotty_ArchitectureBlockImpl$ibex_register_file_ff/BPortImpl$we_a_i/label" transform="translate(6, 6) translate(19.859375, 14)" style="cursor:default;font-size:12px;perspective-origin:0px 0px;fill:rgb(48, 48, 48);text-anchor:middle;">we_a_i</text></g><g id="sprotty_ArchitectureBlockImpl$ibex_register_file_ff/BPortImpl$wdata_a_i" transform="translate(0, 190)" class="triangle"><path d="M 0,0 L 5,2.5 L 0,5 Z" transform="translate(-1.67, -2.5)" class="sprotty-port" style="fill:rgb(48, 48, 48);stroke:rgb(48, 48, 48);"/><text class="clickable sprotty-label port" id="sprotty_ArchitectureBlockImpl$ibex_register_file_ff/BPortImpl$wdata_a_i/label" transform="translate(6, 6) translate(29.046875, 14)" style="cursor:default;font-size:12px;perspective-origin:0px 0px;fill:rgb(48, 48, 48);text-anchor:middle;">wdata_a_i</text></g><g id="sprotty_ArchitectureBlockImpl$ibex_register_file_ff/BPortImpl$waddr_a_i" transform="translate(0, 348)" class="triangle"><path d="M 0,0 L 5,2.5 L 0,5 Z" transform="translate(-1.67, -2.5)" class="sprotty-port" style="fill:rgb(48, 48, 48);stroke:rgb(48, 48, 48);"/><text class="clickable sprotty-label port" id="sprotty_ArchitectureBlockImpl$ibex_register_file_ff/BPortImpl$waddr_a_i/label" transform="translate(6, 6) translate(29.640625, 14)" style="cursor:default;font-size:12px;perspective-origin:0px 0px;fill:rgb(48, 48, 48);text-anchor:middle;">waddr_a_i</text></g><g id="sprotty_ArchitectureBlockImpl$ibex_register_file_ff/BPortImpl$raddr_b_i" transform="translate(0, 392)" class="triangle"><path d="M 0,0 L 5,2.5 L 0,5 Z" transform="translate(-1.67, -2.5)" class="sprotty-port" style="fill:rgb(48, 48, 48);stroke:rgb(48, 48, 48);"/><text class="clickable sprotty-label port" id="sprotty_ArchitectureBlockImpl$ibex_register_file_ff/BPortImpl$raddr_b_i/label" transform="translate(6, 6) translate(27.390625, 14)" style="cursor:default;font-size:12px;perspective-origin:0px 0px;fill:rgb(48, 48, 48);text-anchor:middle;">raddr_b_i</text></g><g id="sprotty_ArchitectureBlockImpl$ibex_register_file_ff/BPortImpl$raddr_a_i" transform="translate(0, 436)" class="triangle"><path d="M 0,0 L 5,2.5 L 0,5 Z" transform="translate(-1.67, -2.5)" class="sprotty-port" style="fill:rgb(48, 48, 48);stroke:rgb(48, 48, 48);"/><text class="clickable sprotty-label port" id="sprotty_ArchitectureBlockImpl$ibex_register_file_ff/BPortImpl$raddr_a_i/label" transform="translate(6, 6) translate(27.0625, 14)" style="cursor:default;font-size:12px;perspective-origin:0px 0px;fill:rgb(48, 48, 48);text-anchor:middle;">raddr_a_i</text></g><g id="sprotty_ArchitectureBlockImpl$ibex_register_file_ff/BPortImpl$dummy_instr_id_i" transform="translate(0, 86)" class="triangle"><path d="M 0,0 L 5,2.5 L 0,5 Z" transform="translate(-1.67, -2.5)" class="sprotty-port" style="fill:rgb(48, 48, 48);stroke:rgb(48, 48, 48);"/><text class="clickable sprotty-label port" id="sprotty_ArchitectureBlockImpl$ibex_register_file_ff/BPortImpl$dummy_instr_id_i/label" transform="translate(6, 6) translate(51.265625, 14)" style="cursor:default;font-size:12px;perspective-origin:0px 0px;fill:rgb(48, 48, 48);text-anchor:middle;">dummy_instr_id_i</text></g><g id="sprotty_ArchitectureBlockImpl$ibex_register_file_ff/BPortImpl$test_en_i" transform="translate(0, 491)" class="triangle"><path d="M 0,0 L 5,2.5 L 0,5 Z" transform="translate(-1.67, -2.5)" class="sprotty-port" style="fill:rgb(48, 48, 48);stroke:rgb(48, 48, 48);"/><text class="clickable sprotty-label port" id="sprotty_ArchitectureBlockImpl$ibex_register_file_ff/BPortImpl$test_en_i/label" transform="translate(6, 6) translate(25.796875, 14)" style="cursor:default;font-size:12px;perspective-origin:0px 0px;fill:rgb(48, 48, 48);text-anchor:middle;">test_en_i</text></g><g id="sprotty_ArchitectureBlockImpl$ibex_register_file_ff/BPortImpl$rst_ni" transform="translate(0, 154)" class="triangle"><path d="M 0,0 L 5,2.5 L 0,5 Z" transform="translate(-1.67, -2.5)" class="sprotty-port" style="fill:rgb(48, 48, 48);stroke:rgb(48, 48, 48);"/><text class="clickable sprotty-label port" id="sprotty_ArchitectureBlockImpl$ibex_register_file_ff/BPortImpl$rst_ni/label" transform="translate(6, 6) translate(15.921875, 14)" style="cursor:default;font-size:12px;perspective-origin:0px 0px;fill:rgb(48, 48, 48);text-anchor:middle;">rst_ni</text></g><g id="sprotty_ArchitectureBlockImpl$ibex_register_file_ff/BPortImpl$clk_i" transform="translate(0, 120)" class="triangle"><path d="M 0,0 L 5,2.5 L 0,5 Z" transform="translate(-1.67, -2.5)" class="sprotty-port" style="fill:rgb(48, 48, 48);stroke:rgb(48, 48, 48);"/><text class="clickable sprotty-label port" id="sprotty_ArchitectureBlockImpl$ibex_register_file_ff/BPortImpl$clk_i/label" transform="translate(6, 6) translate(13.09375, 14)" style="cursor:default;font-size:12px;perspective-origin:0px 0px;fill:rgb(48, 48, 48);text-anchor:middle;">clk_i</text></g><g id="sprotty_ArchitectureBlockImpl$ibex_register_file_ff/BPortImpl$rdata_a_o" transform="translate(673.453125, 244)" class="triangle"><path d="M 0,0 L 5,2.5 L 0,5 Z" transform="translate(-1.67, -2.5)" class="sprotty-port" style="fill:rgb(48, 48, 48);stroke:rgb(48, 48, 48);"/><text class="clickable sprotty-label port" id="sprotty_ArchitectureBlockImpl$ibex_register_file_ff/BPortImpl$rdata_a_o/label" transform="translate(-63.03125, 6) translate(28.515625, 14)" style="cursor:default;font-size:12px;perspective-origin:0px 0px;fill:rgb(48, 48, 48);text-anchor:middle;">rdata_a_o</text></g><g id="sprotty_ArchitectureBlockImpl$ibex_register_file_ff/BPortImpl$rdata_b_o" transform="translate(673.453125, 61)" class="triangle"><path d="M 0,0 L 5,2.5 L 0,5 Z" transform="translate(-1.67, -2.5)" class="sprotty-port" style="fill:rgb(48, 48, 48);stroke:rgb(48, 48, 48);"/><text class="clickable sprotty-label port" id="sprotty_ArchitectureBlockImpl$ibex_register_file_ff/BPortImpl$rdata_b_o/label" transform="translate(-63.6875, 6) translate(28.84375, 14)" style="cursor:default;font-size:12px;perspective-origin:0px 0px;fill:rgb(48, 48, 48);text-anchor:middle;">rdata_b_o</text></g></g></g></svg>