<svg xmlns="http://www.w3.org/2000/svg" id="sprotty_work.otbn_rf_bignum_ff" class="sprotty-graph sprotty-block-diagram blockdiagram" style="font-family:&quot;Noto Sans&quot;, Helvetica, Arial, sans-serif;perspective-origin:0px 0px;transform-origin:0px 0px;" version="1.1" viewBox="7 7 419.453125 323" width="419.453125" height="323"><g transform="scale(1) translate(0,0)"><g id="sprotty_ArchitectureBlockImpl$otbn_rf_bignum_ff" transform="translate(12, 12)" class="architecture"><g class="sprotty-block" style="fill:rgb(255, 255, 255);stroke:rgb(48, 48, 48);stroke-dasharray:0px;"><rect x="0" y="0" rx="1" ry="1" width="409.453125" height="313"/><text x="204.7265625" y="12" class="sprotty-block-name" style="cursor:pointer;font-weight:700;perspective-origin:205.469px 0px;fill:rgb(48, 48, 48);stroke:rgba(0, 0, 0, 0);dominant-baseline:middle;text-anchor:middle;">otbn_rf_bignum_ff</text><line x1="0" y1="20" x2="409.453125" y2="20"/></g><g id="sprotty_ArchitectureBlockImpl$otbn_rf_bignum_ff/AssignmentBlockImpl$rd_data_a_o/GPortImpl$rd_data_a_oOUT_to_ArchitectureBlockImpl$otbn_rf_bignum_ff/BPortImpl$rd_data_a_o" class="sprotty-edge thick edge" style="fill:none;stroke:rgb(112, 112, 112);stroke-linejoin:round;stroke-width:3px;"><g><path d="M 316.640625 58 L 409.453125 58 "/><path d="M 316.640625 58 L 409.453125 58 " class="clickable"/></g></g><g id="sprotty_ArchitectureBlockImpl$otbn_rf_bignum_ff/AssignmentBlockImpl$rd_data_b_o/GPortImpl$rd_data_b_oOUT_to_ArchitectureBlockImpl$otbn_rf_bignum_ff/BPortImpl$rd_data_b_o" class="sprotty-edge thick edge" style="fill:none;stroke:rgb(112, 112, 112);stroke-linejoin:round;stroke-width:3px;"><g><path d="M 316.640625 100 L 409.453125 100 "/><path d="M 316.640625 100 L 409.453125 100 " class="clickable"/></g></g><g id="sprotty_ArchitectureBlockImpl$otbn_rf_bignum_ff/BPortImpl$wr_en_i_to_ArchitectureBlockImpl$otbn_rf_bignum_ff/GenerateStatementBlockImpl$g_rf/GPortImpl$wr_en_i" class="sprotty-edge thick edge" style="fill:none;stroke:rgb(112, 112, 112);stroke-linejoin:round;stroke-width:3px;"><g><path d="M 0 83 L 86.3125 83 C 87.3125 83 88.3125 84 88.3125 85 L 88.3125 88 C 88.3125 89 89.3125 90 90.3125 90 L 108.3125 90 "/><path d="M 0 83 L 86.3125 83 C 87.3125 83 88.3125 84 88.3125 85 L 88.3125 88 C 88.3125 89 89.3125 90 90.3125 90 L 108.3125 90 " class="clickable"/></g></g><g id="sprotty_ArchitectureBlockImpl$otbn_rf_bignum_ff/BPortImpl$wr_addr_i_to_ArchitectureBlockImpl$otbn_rf_bignum_ff/GenerateStatementBlockImpl$g_rf/GPortImpl$wr_addr_i" class="sprotty-edge thick edge" style="fill:none;stroke:rgb(112, 112, 112);stroke-linejoin:round;stroke-width:3px;"><g><path d="M 0 49 L 96.3125 49 C 97.3125 49 98.3125 50 98.3125 51 L 98.3125 78 C 98.3125 79 99.3125 80 100.3125 80 L 108.3125 80 "/><path d="M 0 49 L 96.3125 49 C 97.3125 49 98.3125 50 98.3125 51 L 98.3125 78 C 98.3125 79 99.3125 80 100.3125 80 L 108.3125 80 " class="clickable"/></g></g><g id="sprotty_ArchitectureBlockImpl$otbn_rf_bignum_ff/BPortImpl$clk_i_to_ArchitectureBlockImpl$otbn_rf_bignum_ff/GenerateStatementBlockImpl$g_rf/GPortImpl$clk_i" class="sprotty-edge edge" style="fill:none;stroke:rgb(112, 112, 112);stroke-linejoin:round;"><g><path d="M 0 151 L 86.3125 151 C 87.3125 151 88.3125 152 88.3125 153 L 88.3125 173 C 88.3125 174 89.3125 175 90.3125 175 L 108.3125 175 "/><path d="M 0 151 L 86.3125 151 C 87.3125 151 88.3125 152 88.3125 153 L 88.3125 173 C 88.3125 174 89.3125 175 90.3125 175 L 108.3125 175 " class="clickable"/></g></g><g id="sprotty_ArchitectureBlockImpl$otbn_rf_bignum_ff/BPortImpl$rst_ni_to_ArchitectureBlockImpl$otbn_rf_bignum_ff/GenerateStatementBlockImpl$g_rf/GPortImpl$rst_ni" class="sprotty-edge edge" style="fill:none;stroke:rgb(112, 112, 112);stroke-linejoin:round;"><g><path d="M 0 117 L 96.3125 117 C 97.3125 117 98.3125 118 98.3125 119 L 98.3125 163 C 98.3125 164 99.3125 165 100.3125 165 L 108.3125 165 "/><path d="M 0 117 L 96.3125 117 C 97.3125 117 98.3125 118 98.3125 119 L 98.3125 163 C 98.3125 164 99.3125 165 100.3125 165 L 108.3125 165 " class="clickable"/></g></g><g id="sprotty_ArchitectureBlockImpl$otbn_rf_bignum_ff/BPortImpl$wr_data_i_to_ArchitectureBlockImpl$otbn_rf_bignum_ff/GenerateStatementBlockImpl$g_rf/GPortImpl$wr_data_i" class="sprotty-edge thick edge" style="fill:none;stroke:rgb(112, 112, 112);stroke-linejoin:round;stroke-width:3px;"><g><path d="M 0 185 L 108.3125 185 "/><path d="M 0 185 L 108.3125 185 " class="clickable"/></g></g><g id="sprotty_ArchitectureBlockImpl$otbn_rf_bignum_ff/GenerateStatementBlockImpl$g_rf/GPortImpl$rf_to_ArchitectureBlockImpl$otbn_rf_bignum_ff/AssignmentBlockImpl$rd_data_a_o/GPortImpl$rfIN" class="sprotty-edge thick edge" style="fill:none;stroke:rgb(112, 112, 112);stroke-linejoin:round;stroke-width:3px;"><g><path d="M 276.921875 100 L 284.921875 100 C 285.921875 100 286.921875 99 286.921875 98 L 286.921875 60 C 286.921875 59 287.921875 58 288.921875 58 L 296.921875 58 "/><path d="M 276.921875 100 L 284.921875 100 C 285.921875 100 286.921875 99 286.921875 98 L 286.921875 60 C 286.921875 59 287.921875 58 288.921875 58 L 296.921875 58 " class="clickable"/></g><circle r="3" id="sprotty_ArchitectureBlockImpl$otbn_rf_bignum_ff/GenerateStatementBlockImpl$g_rf/GPortImpl$rf_to_ArchitectureBlockImpl$otbn_rf_bignum_ff/AssignmentBlockImpl$rd_data_a_o/GPortImpl$rfIN/junction0" transform="translate(286.921875, 100)" class="sprotty-junction thick" style="fill:rgb(112, 112, 112);stroke:none;"/></g><g id="sprotty_ArchitectureBlockImpl$otbn_rf_bignum_ff/GenerateStatementBlockImpl$g_rf/GPortImpl$rf_to_ArchitectureBlockImpl$otbn_rf_bignum_ff/AssignmentBlockImpl$rd_data_b_o/GPortImpl$rfIN" class="sprotty-edge thick edge" style="fill:none;stroke:rgb(112, 112, 112);stroke-linejoin:round;stroke-width:3px;"><g><path d="M 276.921875 100 L 296.921875 100 "/><path d="M 276.921875 100 L 296.921875 100 " class="clickable"/></g></g><g id="sprotty_ArchitectureBlockImpl$otbn_rf_bignum_ff/GenerateStatementBlockImpl$g_rf" transform="translate(108.3125, 35)" class="generate"><g class="sprotty-block sprotty-block-generate" style="fill:rgb(255, 255, 255);stroke:rgb(48, 48, 48);stroke-dasharray:0px;"><rect x="0" y="0" rx="1" ry="1" width="168.609375" height="175" style="stroke-dasharray:3px, 1px;"/><text x="84.3046875" y="12" class="sprotty-block-name" style="cursor:pointer;font-weight:700;perspective-origin:84.8281px 0px;fill:rgb(48, 48, 48);stroke:rgba(0, 0, 0, 0);dominant-baseline:middle;text-anchor:middle;">g_rf</text><line x1="0" y1="20" x2="168.609375" y2="20" style="stroke-dasharray:3px, 1px;"/></g><g id="sprotty_ArchitectureBlockImpl$otbn_rf_bignum_ff/GenerateStatementBlockImpl$g_rf/GPortImpl$wr_en_i_to_ArchitectureBlockImpl$otbn_rf_bignum_ff/GenerateStatementBlockImpl$g_rf/AssignmentBlockImpl$we_onehot/GPortImpl$wr_en_iIN" class="sprotty-edge thick edge" style="fill:none;stroke:rgb(112, 112, 112);stroke-linejoin:round;stroke-width:3px;"><g><path d="M 0 55 L 15 55 "/><path d="M 0 55 L 15 55 " class="clickable"/></g></g><g id="sprotty_ArchitectureBlockImpl$otbn_rf_bignum_ff/GenerateStatementBlockImpl$g_rf/GPortImpl$wr_addr_i_to_ArchitectureBlockImpl$otbn_rf_bignum_ff/GenerateStatementBlockImpl$g_rf/AssignmentBlockImpl$we_onehot/GPortImpl$wr_addr_iIN" class="sprotty-edge thick edge" style="fill:none;stroke:rgb(112, 112, 112);stroke-linejoin:round;stroke-width:3px;"><g><path d="M 0 45 L 15 45 "/><path d="M 0 45 L 15 45 " class="clickable"/></g></g><g id="sprotty_ArchitectureBlockImpl$otbn_rf_bignum_ff/GenerateStatementBlockImpl$g_rf/GPortImpl$clk_i_to_ArchitectureBlockImpl$otbn_rf_bignum_ff/GenerateStatementBlockImpl$g_rf/AlwaysBlockImpl$null7/GPortImpl$clk_iIN" class="sprotty-edge edge" style="fill:none;stroke:rgb(112, 112, 112);stroke-linejoin:round;"><g><path d="M 0 140 L 52.71875 140 C 53.71875 140 54.71875 139 54.71875 138 L 54.71875 72 C 54.71875 71 55.71875 70 56.71875 70 L 84.71875 70 "/><path d="M 0 140 L 52.71875 140 C 53.71875 140 54.71875 139 54.71875 138 L 54.71875 72 C 54.71875 71 55.71875 70 56.71875 70 L 84.71875 70 " class="clickable"/></g><circle r="2" id="sprotty_ArchitectureBlockImpl$otbn_rf_bignum_ff/GenerateStatementBlockImpl$g_rf/GPortImpl$clk_i_to_ArchitectureBlockImpl$otbn_rf_bignum_ff/GenerateStatementBlockImpl$g_rf/AlwaysBlockImpl$null7/GPortImpl$clk_iIN/junction0" transform="translate(54.71875, 140)" class="sprotty-junction junction" style="fill:rgb(112, 112, 112);stroke:none;"/></g><g id="sprotty_ArchitectureBlockImpl$otbn_rf_bignum_ff/GenerateStatementBlockImpl$g_rf/GPortImpl$rst_ni_to_ArchitectureBlockImpl$otbn_rf_bignum_ff/GenerateStatementBlockImpl$g_rf/AlwaysBlockImpl$null7/GPortImpl$rst_niIN" class="sprotty-edge edge" style="fill:none;stroke:rgb(112, 112, 112);stroke-linejoin:round;"><g><path d="M 0 130 L 42.71875 130 C 43.71875 130 44.71875 129 44.71875 128 L 44.71875 62 C 44.71875 61 45.71875 60 46.71875 60 L 84.71875 60 "/><path d="M 0 130 L 42.71875 130 C 43.71875 130 44.71875 129 44.71875 128 L 44.71875 62 C 44.71875 61 45.71875 60 46.71875 60 L 84.71875 60 " class="clickable"/></g><circle r="2" id="sprotty_ArchitectureBlockImpl$otbn_rf_bignum_ff/GenerateStatementBlockImpl$g_rf/GPortImpl$rst_ni_to_ArchitectureBlockImpl$otbn_rf_bignum_ff/GenerateStatementBlockImpl$g_rf/AlwaysBlockImpl$null7/GPortImpl$rst_niIN/junction0" transform="translate(44.71875, 130)" class="sprotty-junction junction" style="fill:rgb(112, 112, 112);stroke:none;"/></g><g id="sprotty_ArchitectureBlockImpl$otbn_rf_bignum_ff/GenerateStatementBlockImpl$g_rf/GPortImpl$wr_data_i_to_ArchitectureBlockImpl$otbn_rf_bignum_ff/GenerateStatementBlockImpl$g_rf/AlwaysBlockImpl$null7/GPortImpl$wr_data_iIN" class="sprotty-edge thick edge" style="fill:none;stroke:rgb(112, 112, 112);stroke-linejoin:round;stroke-width:3px;"><g><path d="M 0 150 L 62.71875 150 C 63.71875 150 64.71875 149 64.71875 148 L 64.71875 82 C 64.71875 81 65.71875 80 66.71875 80 L 84.71875 80 "/><path d="M 0 150 L 62.71875 150 C 63.71875 150 64.71875 149 64.71875 148 L 64.71875 82 C 64.71875 81 65.71875 80 66.71875 80 L 84.71875 80 " class="clickable"/></g><circle r="3" id="sprotty_ArchitectureBlockImpl$otbn_rf_bignum_ff/GenerateStatementBlockImpl$g_rf/GPortImpl$wr_data_i_to_ArchitectureBlockImpl$otbn_rf_bignum_ff/GenerateStatementBlockImpl$g_rf/AlwaysBlockImpl$null7/GPortImpl$wr_data_iIN/junction0" transform="translate(64.71875, 150)" class="sprotty-junction thick" style="fill:rgb(112, 112, 112);stroke:none;"/></g><g id="sprotty_ArchitectureBlockImpl$otbn_rf_bignum_ff/GenerateStatementBlockImpl$g_rf/GPortImpl$clk_i_to_ArchitectureBlockImpl$otbn_rf_bignum_ff/GenerateStatementBlockImpl$g_rf/AlwaysBlockImpl$null6/GPortImpl$clk_iIN" class="sprotty-edge edge" style="fill:none;stroke:rgb(112, 112, 112);stroke-linejoin:round;"><g><path d="M 0 140 L 84.71875 140 "/><path d="M 0 140 L 84.71875 140 " class="clickable"/></g></g><g id="sprotty_ArchitectureBlockImpl$otbn_rf_bignum_ff/GenerateStatementBlockImpl$g_rf/GPortImpl$rst_ni_to_ArchitectureBlockImpl$otbn_rf_bignum_ff/GenerateStatementBlockImpl$g_rf/AlwaysBlockImpl$null6/GPortImpl$rst_niIN" class="sprotty-edge edge" style="fill:none;stroke:rgb(112, 112, 112);stroke-linejoin:round;"><g><path d="M 0 130 L 84.71875 130 "/><path d="M 0 130 L 84.71875 130 " class="clickable"/></g></g><g id="sprotty_ArchitectureBlockImpl$otbn_rf_bignum_ff/GenerateStatementBlockImpl$g_rf/GPortImpl$wr_data_i_to_ArchitectureBlockImpl$otbn_rf_bignum_ff/GenerateStatementBlockImpl$g_rf/AlwaysBlockImpl$null6/GPortImpl$wr_data_iIN" class="sprotty-edge thick edge" style="fill:none;stroke:rgb(112, 112, 112);stroke-linejoin:round;stroke-width:3px;"><g><path d="M 0 150 L 84.71875 150 "/><path d="M 0 150 L 84.71875 150 " class="clickable"/></g></g><g id="sprotty_ArchitectureBlockImpl$otbn_rf_bignum_ff/GenerateStatementBlockImpl$g_rf/AlwaysBlockImpl$null7/GPortImpl$rfOUT_to_ArchitectureBlockImpl$otbn_rf_bignum_ff/GenerateStatementBlockImpl$g_rf/GPortImpl$rf" class="sprotty-edge thick edge" style="fill:none;stroke:rgb(112, 112, 112);stroke-linejoin:round;stroke-width:3px;"><g><path d="M 133.609375 65 L 168.609375 65 "/><path d="M 133.609375 65 L 168.609375 65 " class="clickable"/></g></g><g id="sprotty_ArchitectureBlockImpl$otbn_rf_bignum_ff/GenerateStatementBlockImpl$g_rf/AlwaysBlockImpl$null6/GPortImpl$rfOUT_to_ArchitectureBlockImpl$otbn_rf_bignum_ff/GenerateStatementBlockImpl$g_rf/GPortImpl$rf" class="sprotty-edge thick edge" style="fill:none;stroke:rgb(112, 112, 112);stroke-linejoin:round;stroke-width:3px;"><g><path d="M 133.609375 135 L 141.609375 135 C 142.609375 135 143.609375 134 143.609375 133 L 143.609375 67 C 143.609375 66 144.609375 65 145.609375 65 L 168.609375 65 "/><path d="M 133.609375 135 L 141.609375 135 C 142.609375 135 143.609375 134 143.609375 133 L 143.609375 67 C 143.609375 66 144.609375 65 145.609375 65 L 168.609375 65 " class="clickable"/></g><circle r="3" id="sprotty_ArchitectureBlockImpl$otbn_rf_bignum_ff/GenerateStatementBlockImpl$g_rf/AlwaysBlockImpl$null6/GPortImpl$rfOUT_to_ArchitectureBlockImpl$otbn_rf_bignum_ff/GenerateStatementBlockImpl$g_rf/GPortImpl$rf/junction0" transform="translate(143.609375, 65)" class="sprotty-junction thick" style="fill:rgb(112, 112, 112);stroke:none;"/></g><g id="sprotty_ArchitectureBlockImpl$otbn_rf_bignum_ff/GenerateStatementBlockImpl$g_rf/AssignmentBlockImpl$we_onehot/GPortImpl$we_onehotOUT_to_ArchitectureBlockImpl$otbn_rf_bignum_ff/GenerateStatementBlockImpl$g_rf/AlwaysBlockImpl$null6/GPortImpl$we_onehotIN" class="sprotty-edge thick edge" style="fill:none;stroke:rgb(112, 112, 112);stroke-linejoin:round;stroke-width:3px;"><g><path d="M 34.71875 50 L 72.71875 50 C 73.71875 50 74.71875 51 74.71875 52 L 74.71875 118 C 74.71875 119 75.71875 120 76.71875 120 L 84.71875 120 "/><path d="M 34.71875 50 L 72.71875 50 C 73.71875 50 74.71875 51 74.71875 52 L 74.71875 118 C 74.71875 119 75.71875 120 76.71875 120 L 84.71875 120 " class="clickable"/></g><circle r="3" id="sprotty_ArchitectureBlockImpl$otbn_rf_bignum_ff/GenerateStatementBlockImpl$g_rf/AssignmentBlockImpl$we_onehot/GPortImpl$we_onehotOUT_to_ArchitectureBlockImpl$otbn_rf_bignum_ff/GenerateStatementBlockImpl$g_rf/AlwaysBlockImpl$null6/GPortImpl$we_onehotIN/junction0" transform="translate(74.71875, 50)" class="sprotty-junction thick" style="fill:rgb(112, 112, 112);stroke:none;"/></g><g id="sprotty_ArchitectureBlockImpl$otbn_rf_bignum_ff/GenerateStatementBlockImpl$g_rf/AssignmentBlockImpl$we_onehot/GPortImpl$we_onehotOUT_to_ArchitectureBlockImpl$otbn_rf_bignum_ff/GenerateStatementBlockImpl$g_rf/AlwaysBlockImpl$null7/GPortImpl$we_onehotIN" class="sprotty-edge thick edge" style="fill:none;stroke:rgb(112, 112, 112);stroke-linejoin:round;stroke-width:3px;"><g><path d="M 34.71875 50 L 84.71875 50 "/><path d="M 34.71875 50 L 84.71875 50 " class="clickable"/></g></g><g id="sprotty_ArchitectureBlockImpl$otbn_rf_bignum_ff/GenerateStatementBlockImpl$g_rf/AlwaysBlockImpl$null6" transform="translate(84.71875, 110)" class="statement"><rect x="0" y="0" rx="10" ry="5" width="48.890625" height="50" class="sprotty-node" style="fill:rgb(245, 245, 245);stroke:rgb(112, 112, 112);"/><text class="clickable sprotty-label statementtype" id="sprotty_ArchitectureBlockImpl$otbn_rf_bignum_ff/GenerateStatementBlockImpl$g_rf/AlwaysBlockImpl$null6/labeltype" transform="translate(5, 19) translate(18.828125, 9)" style="cursor:default;font-size:8px;font-weight:700;perspective-origin:0.609375px 0px;fill:rgb(112, 112, 112);text-anchor:middle;">always_ff</text><g id="sprotty_ArchitectureBlockImpl$otbn_rf_bignum_ff/GenerateStatementBlockImpl$g_rf/AlwaysBlockImpl$null6/GPortImpl$wr_data_iIN" transform="translate(0, 40)" class="sprotty-hidden hidden" style="display:block;height:0px;width:0px;"/><g id="sprotty_ArchitectureBlockImpl$otbn_rf_bignum_ff/GenerateStatementBlockImpl$g_rf/AlwaysBlockImpl$null6/GPortImpl$we_onehotIN" transform="translate(0, 10)" class="sprotty-hidden hidden" style="display:block;height:0px;width:0px;"/><g id="sprotty_ArchitectureBlockImpl$otbn_rf_bignum_ff/GenerateStatementBlockImpl$g_rf/AlwaysBlockImpl$null6/GPortImpl$rst_niIN" transform="translate(0, 20)" class="sprotty-hidden hidden" style="display:block;height:0px;width:0px;"/><g id="sprotty_ArchitectureBlockImpl$otbn_rf_bignum_ff/GenerateStatementBlockImpl$g_rf/AlwaysBlockImpl$null6/GPortImpl$clk_iIN" transform="translate(0, 30)" class="sprotty-hidden hidden" style="display:block;height:0px;width:0px;"/><g id="sprotty_ArchitectureBlockImpl$otbn_rf_bignum_ff/GenerateStatementBlockImpl$g_rf/AlwaysBlockImpl$null6/GPortImpl$rfOUT" transform="translate(48.890625, 25)" class="sprotty-hidden hidden" style="display:block;height:0px;width:0px;"/></g><g id="sprotty_ArchitectureBlockImpl$otbn_rf_bignum_ff/GenerateStatementBlockImpl$g_rf/AlwaysBlockImpl$null7" transform="translate(84.71875, 40)" class="statement"><rect x="0" y="0" rx="10" ry="5" width="48.890625" height="50" class="sprotty-node" style="fill:rgb(245, 245, 245);stroke:rgb(112, 112, 112);"/><text class="clickable sprotty-label statementtype" id="sprotty_ArchitectureBlockImpl$otbn_rf_bignum_ff/GenerateStatementBlockImpl$g_rf/AlwaysBlockImpl$null7/labeltype" transform="translate(5, 19) translate(18.828125, 9)" style="cursor:default;font-size:8px;font-weight:700;perspective-origin:0.609375px 0px;fill:rgb(112, 112, 112);text-anchor:middle;">always_ff</text><g id="sprotty_ArchitectureBlockImpl$otbn_rf_bignum_ff/GenerateStatementBlockImpl$g_rf/AlwaysBlockImpl$null7/GPortImpl$wr_data_iIN" transform="translate(0, 40)" class="sprotty-hidden hidden" style="display:block;height:0px;width:0px;"/><g id="sprotty_ArchitectureBlockImpl$otbn_rf_bignum_ff/GenerateStatementBlockImpl$g_rf/AlwaysBlockImpl$null7/GPortImpl$we_onehotIN" transform="translate(0, 10)" class="sprotty-hidden hidden" style="display:block;height:0px;width:0px;"/><g id="sprotty_ArchitectureBlockImpl$otbn_rf_bignum_ff/GenerateStatementBlockImpl$g_rf/AlwaysBlockImpl$null7/GPortImpl$rst_niIN" transform="translate(0, 20)" class="sprotty-hidden hidden" style="display:block;height:0px;width:0px;"/><g id="sprotty_ArchitectureBlockImpl$otbn_rf_bignum_ff/GenerateStatementBlockImpl$g_rf/AlwaysBlockImpl$null7/GPortImpl$clk_iIN" transform="translate(0, 30)" class="sprotty-hidden hidden" style="display:block;height:0px;width:0px;"/><g id="sprotty_ArchitectureBlockImpl$otbn_rf_bignum_ff/GenerateStatementBlockImpl$g_rf/AlwaysBlockImpl$null7/GPortImpl$rfOUT" transform="translate(48.890625, 25)" class="sprotty-hidden hidden" style="display:block;height:0px;width:0px;"/></g><g id="sprotty_ArchitectureBlockImpl$otbn_rf_bignum_ff/GenerateStatementBlockImpl$g_rf/AssignmentBlockImpl$we_onehot" transform="translate(15, 35)" class="statement"><rect x="0" y="0" rx="10" ry="5" width="19.71875" height="30" class="sprotty-node" style="fill:rgb(245, 245, 245);stroke:rgb(112, 112, 112);"/><text class="clickable sprotty-label statementtype" id="sprotty_ArchitectureBlockImpl$otbn_rf_bignum_ff/GenerateStatementBlockImpl$g_rf/AssignmentBlockImpl$we_onehot/labeltype" transform="translate(5, 9) translate(4.71875, 9)" style="cursor:default;font-size:8px;font-weight:700;perspective-origin:0.140625px 0px;fill:rgb(112, 112, 112);text-anchor:middle;">&lt;=</text><g id="sprotty_ArchitectureBlockImpl$otbn_rf_bignum_ff/GenerateStatementBlockImpl$g_rf/AssignmentBlockImpl$we_onehot/GPortImpl$wr_addr_iIN" transform="translate(0, 10)" class="sprotty-hidden hidden" style="display:block;height:0px;width:0px;"/><g id="sprotty_ArchitectureBlockImpl$otbn_rf_bignum_ff/GenerateStatementBlockImpl$g_rf/AssignmentBlockImpl$we_onehot/GPortImpl$wr_en_iIN" transform="translate(0, 20)" class="sprotty-hidden hidden" style="display:block;height:0px;width:0px;"/><g id="sprotty_ArchitectureBlockImpl$otbn_rf_bignum_ff/GenerateStatementBlockImpl$g_rf/AssignmentBlockImpl$we_onehot/GPortImpl$we_onehotOUT" transform="translate(19.71875, 15)" class="sprotty-hidden hidden" style="display:block;height:0px;width:0px;"/></g><g id="sprotty_ArchitectureBlockImpl$otbn_rf_bignum_ff/GenerateStatementBlockImpl$g_rf/GPortImpl$wr_data_i" transform="translate(0, 150)" class="triangle"><path d="M 0,0 L 5,2.5 L 0,5 Z" transform="translate(-1.67, -2.5)" class="sprotty-port" style="fill:rgb(48, 48, 48);stroke:rgb(48, 48, 48);"/></g><g id="sprotty_ArchitectureBlockImpl$otbn_rf_bignum_ff/GenerateStatementBlockImpl$g_rf/GPortImpl$rst_ni" transform="translate(0, 130)" class="triangle"><path d="M 0,0 L 5,2.5 L 0,5 Z" transform="translate(-1.67, -2.5)" class="sprotty-port" style="fill:rgb(48, 48, 48);stroke:rgb(48, 48, 48);"/></g><g id="sprotty_ArchitectureBlockImpl$otbn_rf_bignum_ff/GenerateStatementBlockImpl$g_rf/GPortImpl$clk_i" transform="translate(0, 140)" class="triangle"><path d="M 0,0 L 5,2.5 L 0,5 Z" transform="translate(-1.67, -2.5)" class="sprotty-port" style="fill:rgb(48, 48, 48);stroke:rgb(48, 48, 48);"/></g><g id="sprotty_ArchitectureBlockImpl$otbn_rf_bignum_ff/GenerateStatementBlockImpl$g_rf/GPortImpl$wr_addr_i" transform="translate(0, 45)" class="triangle"><path d="M 0,0 L 5,2.5 L 0,5 Z" transform="translate(-1.67, -2.5)" class="sprotty-port" style="fill:rgb(48, 48, 48);stroke:rgb(48, 48, 48);"/></g><g id="sprotty_ArchitectureBlockImpl$otbn_rf_bignum_ff/GenerateStatementBlockImpl$g_rf/GPortImpl$wr_en_i" transform="translate(0, 55)" class="triangle"><path d="M 0,0 L 5,2.5 L 0,5 Z" transform="translate(-1.67, -2.5)" class="sprotty-port" style="fill:rgb(48, 48, 48);stroke:rgb(48, 48, 48);"/></g><g id="sprotty_ArchitectureBlockImpl$otbn_rf_bignum_ff/GenerateStatementBlockImpl$g_rf/GPortImpl$rf" transform="translate(168.609375, 65)" class="triangle"><path d="M 0,0 L 5,2.5 L 0,5 Z" transform="translate(-1.67, -2.5)" class="sprotty-port" style="fill:rgb(48, 48, 48);stroke:rgb(48, 48, 48);"/></g></g><g id="sprotty_ArchitectureBlockImpl$otbn_rf_bignum_ff/AssignmentBlockImpl$rd_data_b_o" transform="translate(296.921875, 89)" class="statement"><rect x="0" y="0" rx="10" ry="5" width="19.71875" height="22" class="sprotty-node" style="fill:rgb(245, 245, 245);stroke:rgb(112, 112, 112);"/><text class="clickable sprotty-label statementtype" id="sprotty_ArchitectureBlockImpl$otbn_rf_bignum_ff/AssignmentBlockImpl$rd_data_b_o/labeltype" transform="translate(5, 5) translate(4.71875, 9)" style="cursor:default;font-size:8px;font-weight:700;perspective-origin:0.140625px 0px;fill:rgb(112, 112, 112);text-anchor:middle;">&lt;=</text><g id="sprotty_ArchitectureBlockImpl$otbn_rf_bignum_ff/AssignmentBlockImpl$rd_data_b_o/GPortImpl$rfIN" transform="translate(0, 11)" class="sprotty-hidden hidden" style="display:block;height:0px;width:0px;"/><g id="sprotty_ArchitectureBlockImpl$otbn_rf_bignum_ff/AssignmentBlockImpl$rd_data_b_o/GPortImpl$rd_data_b_oOUT" transform="translate(19.71875, 11)" class="sprotty-hidden hidden" style="display:block;height:0px;width:0px;"/></g><g id="sprotty_ArchitectureBlockImpl$otbn_rf_bignum_ff/AssignmentBlockImpl$rd_data_a_o" transform="translate(296.921875, 47)" class="statement"><rect x="0" y="0" rx="10" ry="5" width="19.71875" height="22" class="sprotty-node" style="fill:rgb(245, 245, 245);stroke:rgb(112, 112, 112);"/><text class="clickable sprotty-label statementtype" id="sprotty_ArchitectureBlockImpl$otbn_rf_bignum_ff/AssignmentBlockImpl$rd_data_a_o/labeltype" transform="translate(5, 5) translate(4.71875, 9)" style="cursor:default;font-size:8px;font-weight:700;perspective-origin:0.140625px 0px;fill:rgb(112, 112, 112);text-anchor:middle;">&lt;=</text><g id="sprotty_ArchitectureBlockImpl$otbn_rf_bignum_ff/AssignmentBlockImpl$rd_data_a_o/GPortImpl$rfIN" transform="translate(0, 11)" class="sprotty-hidden hidden" style="display:block;height:0px;width:0px;"/><g id="sprotty_ArchitectureBlockImpl$otbn_rf_bignum_ff/AssignmentBlockImpl$rd_data_a_o/GPortImpl$rd_data_a_oOUT" transform="translate(19.71875, 11)" class="sprotty-hidden hidden" style="display:block;height:0px;width:0px;"/></g><g id="sprotty_ArchitectureBlockImpl$otbn_rf_bignum_ff/BPortImpl$rd_addr_b_i" transform="translate(0, 230)" class="triangle"><path d="M 0,0 L 5,2.5 L 0,5 Z" transform="translate(-1.67, -2.5)" class="sprotty-port" style="fill:rgb(48, 48, 48);stroke:rgb(48, 48, 48);"/><text class="clickable sprotty-label port" id="sprotty_ArchitectureBlockImpl$otbn_rf_bignum_ff/BPortImpl$rd_addr_b_i/label" transform="translate(6, 6) translate(34.5625, 14)" style="cursor:default;font-size:12px;perspective-origin:0px 0px;fill:rgb(48, 48, 48);text-anchor:middle;">rd_addr_b_i</text></g><g id="sprotty_ArchitectureBlockImpl$otbn_rf_bignum_ff/BPortImpl$rd_addr_a_i" transform="translate(0, 274)" class="triangle"><path d="M 0,0 L 5,2.5 L 0,5 Z" transform="translate(-1.67, -2.5)" class="sprotty-port" style="fill:rgb(48, 48, 48);stroke:rgb(48, 48, 48);"/><text class="clickable sprotty-label port" id="sprotty_ArchitectureBlockImpl$otbn_rf_bignum_ff/BPortImpl$rd_addr_a_i/label" transform="translate(6, 6) translate(34.234375, 14)" style="cursor:default;font-size:12px;perspective-origin:0px 0px;fill:rgb(48, 48, 48);text-anchor:middle;">rd_addr_a_i</text></g><g id="sprotty_ArchitectureBlockImpl$otbn_rf_bignum_ff/BPortImpl$wr_data_i" transform="translate(0, 185)" class="triangle"><path d="M 0,0 L 5,2.5 L 0,5 Z" transform="translate(-1.67, -2.5)" class="sprotty-port" style="fill:rgb(48, 48, 48);stroke:rgb(48, 48, 48);"/><text class="clickable sprotty-label port" id="sprotty_ArchitectureBlockImpl$otbn_rf_bignum_ff/BPortImpl$wr_data_i/label" transform="translate(6, 6) translate(28.015625, 14)" style="cursor:default;font-size:12px;perspective-origin:0px 0px;fill:rgb(48, 48, 48);text-anchor:middle;">wr_data_i</text></g><g id="sprotty_ArchitectureBlockImpl$otbn_rf_bignum_ff/BPortImpl$wr_en_i" transform="translate(0, 83)" class="triangle"><path d="M 0,0 L 5,2.5 L 0,5 Z" transform="translate(-1.67, -2.5)" class="sprotty-port" style="fill:rgb(48, 48, 48);stroke:rgb(48, 48, 48);"/><text class="clickable sprotty-label port" id="sprotty_ArchitectureBlockImpl$otbn_rf_bignum_ff/BPortImpl$wr_en_i/label" transform="translate(6, 6) translate(22.5, 14)" style="cursor:default;font-size:12px;perspective-origin:0px 0px;fill:rgb(48, 48, 48);text-anchor:middle;">wr_en_i</text></g><g id="sprotty_ArchitectureBlockImpl$otbn_rf_bignum_ff/BPortImpl$wr_addr_i" transform="translate(0, 49)" class="triangle"><path d="M 0,0 L 5,2.5 L 0,5 Z" transform="translate(-1.67, -2.5)" class="sprotty-port" style="fill:rgb(48, 48, 48);stroke:rgb(48, 48, 48);"/><text class="clickable sprotty-label port" id="sprotty_ArchitectureBlockImpl$otbn_rf_bignum_ff/BPortImpl$wr_addr_i/label" transform="translate(6, 6) translate(28.65625, 14)" style="cursor:default;font-size:12px;perspective-origin:0px 0px;fill:rgb(48, 48, 48);text-anchor:middle;">wr_addr_i</text></g><g id="sprotty_ArchitectureBlockImpl$otbn_rf_bignum_ff/BPortImpl$rst_ni" transform="translate(0, 117)" class="triangle"><path d="M 0,0 L 5,2.5 L 0,5 Z" transform="translate(-1.67, -2.5)" class="sprotty-port" style="fill:rgb(48, 48, 48);stroke:rgb(48, 48, 48);"/><text class="clickable sprotty-label port" id="sprotty_ArchitectureBlockImpl$otbn_rf_bignum_ff/BPortImpl$rst_ni/label" transform="translate(6, 6) translate(15.921875, 14)" style="cursor:default;font-size:12px;perspective-origin:0px 0px;fill:rgb(48, 48, 48);text-anchor:middle;">rst_ni</text></g><g id="sprotty_ArchitectureBlockImpl$otbn_rf_bignum_ff/BPortImpl$clk_i" transform="translate(0, 151)" class="triangle"><path d="M 0,0 L 5,2.5 L 0,5 Z" transform="translate(-1.67, -2.5)" class="sprotty-port" style="fill:rgb(48, 48, 48);stroke:rgb(48, 48, 48);"/><text class="clickable sprotty-label port" id="sprotty_ArchitectureBlockImpl$otbn_rf_bignum_ff/BPortImpl$clk_i/label" transform="translate(6, 6) translate(13.09375, 14)" style="cursor:default;font-size:12px;perspective-origin:0px 0px;fill:rgb(48, 48, 48);text-anchor:middle;">clk_i</text></g><g id="sprotty_ArchitectureBlockImpl$otbn_rf_bignum_ff/BPortImpl$rd_data_a_o" transform="translate(409.453125, 58)" class="triangle"><path d="M 0,0 L 5,2.5 L 0,5 Z" transform="translate(-1.67, -2.5)" class="sprotty-port" style="fill:rgb(48, 48, 48);stroke:rgb(48, 48, 48);"/><text class="clickable sprotty-label port" id="sprotty_ArchitectureBlockImpl$otbn_rf_bignum_ff/BPortImpl$rd_data_a_o/label" transform="translate(-77.1875, 6) translate(35.59375, 14)" style="cursor:default;font-size:12px;perspective-origin:0px 0px;fill:rgb(48, 48, 48);text-anchor:middle;">rd_data_a_o</text></g><g id="sprotty_ArchitectureBlockImpl$otbn_rf_bignum_ff/BPortImpl$rd_data_b_o" transform="translate(409.453125, 100)" class="triangle"><path d="M 0,0 L 5,2.5 L 0,5 Z" transform="translate(-1.67, -2.5)" class="sprotty-port" style="fill:rgb(48, 48, 48);stroke:rgb(48, 48, 48);"/><text class="clickable sprotty-label port" id="sprotty_ArchitectureBlockImpl$otbn_rf_bignum_ff/BPortImpl$rd_data_b_o/label" transform="translate(-77.8125, 6) translate(35.90625, 14)" style="cursor:default;font-size:12px;perspective-origin:0px 0px;fill:rgb(48, 48, 48);text-anchor:middle;">rd_data_b_o</text></g></g></g></svg>