<svg xmlns="http://www.w3.org/2000/svg" id="sprotty_work.ibex_register_file_fpga" class="sprotty-graph sprotty-block-diagram blockdiagram" style="font-family:&quot;Noto Sans&quot;, Helvetica, Arial, sans-serif;perspective-origin:0px 0px;transform-origin:0px 0px;" version="1.1" viewBox="7 7 374.65625 420" width="374.65625" height="420"><g transform="scale(1) translate(0,0)"><g id="sprotty_ArchitectureBlockImpl$ibex_register_file_fpga" transform="translate(12, 12)" class="architecture"><g class="sprotty-block" style="fill:rgb(255, 255, 255);stroke:rgb(48, 48, 48);stroke-dasharray:0px;"><rect x="0" y="0" rx="1" ry="1" width="364.65625" height="410"/><text x="182.328125" y="12" class="sprotty-block-name" style="cursor:pointer;font-weight:700;perspective-origin:182.328px 0px;fill:rgb(48, 48, 48);stroke:rgba(0, 0, 0, 0);dominant-baseline:middle;text-anchor:middle;">ibex_register_file_fpga</text><line x1="0" y1="20" x2="364.65625" y2="20"/></g><g id="sprotty_ArchitectureBlockImpl$ibex_register_file_fpga/AssignmentBlockImpl$rdata_a_o/GPortImpl$rdata_a_oOUT_to_ArchitectureBlockImpl$ibex_register_file_fpga/BPortImpl$rdata_a_o" class="sprotty-edge thick edge" style="fill:none;stroke:rgb(112, 112, 112);stroke-linejoin:round;stroke-width:3px;"><g><path d="M 285.96875 91.33333333333333 L 364.65625 91.33333333333333 "/><path d="M 285.96875 91.33333333333333 L 364.65625 91.33333333333333 " class="clickable"/></g></g><g id="sprotty_ArchitectureBlockImpl$ibex_register_file_fpga/AssignmentBlockImpl$rdata_b_o/GPortImpl$rdata_b_oOUT_to_ArchitectureBlockImpl$ibex_register_file_fpga/BPortImpl$rdata_b_o" class="sprotty-edge thick edge" style="fill:none;stroke:rgb(112, 112, 112);stroke-linejoin:round;stroke-width:3px;"><g><path d="M 285.96875 201 L 364.65625 201 "/><path d="M 285.96875 201 L 364.65625 201 " class="clickable"/></g></g><g id="sprotty_ArchitectureBlockImpl$ibex_register_file_fpga/AlwaysBlockImpl$sync_write/GPortImpl$waddr_a_iOUT_to_ArchitectureBlockImpl$ibex_register_file_fpga/BPortImpl$waddr_a_i" class="sprotty-edge thick edge" style="fill:none;stroke:rgb(112, 112, 112);stroke-linejoin:round;stroke-width:3px;"><g><path d="M 236.25 111.66666666666666 L 244.25 111.66666666666666 C 245.25 111.66666666666666 246.25 112.66666666666666 246.25 113.66666666666666 L 246.25 170 C 246.25 171 245.25 172 244.25 172 L 0 172 "/><path d="M 236.25 111.66666666666666 L 244.25 111.66666666666666 C 245.25 111.66666666666666 246.25 112.66666666666666 246.25 113.66666666666666 L 246.25 170 C 246.25 171 245.25 172 244.25 172 L 0 172 " class="clickable"/></g></g><g id="sprotty_ArchitectureBlockImpl$ibex_register_file_fpga/BPortImpl$raddr_a_i_to_ArchitectureBlockImpl$ibex_register_file_fpga/AssignmentBlockImpl$rdata_a_o/GPortImpl$raddr_a_iIN" class="sprotty-edge thick edge" style="fill:none;stroke:rgb(112, 112, 112);stroke-linejoin:round;stroke-width:3px;"><g><path d="M 0 36 L 244.25 36 C 245.25 36 246.25 37 246.25 38 L 246.25 84.33333333333333 C 246.25 85.33333333333333 247.25 86.33333333333333 248.25 86.33333333333333 L 266.25 86.33333333333333 "/><path d="M 0 36 L 244.25 36 C 245.25 36 246.25 37 246.25 38 L 246.25 84.33333333333333 C 246.25 85.33333333333333 247.25 86.33333333333333 248.25 86.33333333333333 L 266.25 86.33333333333333 " class="clickable"/></g></g><g id="sprotty_ArchitectureBlockImpl$ibex_register_file_fpga/BPortImpl$raddr_b_i_to_ArchitectureBlockImpl$ibex_register_file_fpga/AssignmentBlockImpl$rdata_b_o/GPortImpl$raddr_b_iIN" class="sprotty-edge thick edge" style="fill:none;stroke:rgb(112, 112, 112);stroke-linejoin:round;stroke-width:3px;"><g><path d="M 0 206 L 266.25 206 "/><path d="M 0 206 L 266.25 206 " class="clickable"/></g></g><g id="sprotty_ArchitectureBlockImpl$ibex_register_file_fpga/BPortImpl$waddr_a_i_to_ArchitectureBlockImpl$ibex_register_file_fpga/AssignmentBlockImpl$we/GPortImpl$waddr_a_iIN" class="sprotty-edge thick edge" style="fill:none;stroke:rgb(112, 112, 112);stroke-linejoin:round;stroke-width:3px;"><g><path d="M 0 172 L 88.28125 172 C 89.28125 172 90.28125 171 90.28125 170 L 90.28125 150 C 90.28125 149 91.28125 148 92.28125 148 L 100.28125 148 "/><path d="M 0 172 L 88.28125 172 C 89.28125 172 90.28125 171 90.28125 170 L 90.28125 150 C 90.28125 149 91.28125 148 92.28125 148 L 100.28125 148 " class="clickable"/></g><circle r="3" id="sprotty_ArchitectureBlockImpl$ibex_register_file_fpga/BPortImpl$waddr_a_i_to_ArchitectureBlockImpl$ibex_register_file_fpga/AssignmentBlockImpl$we/GPortImpl$waddr_a_iIN/junction0" transform="translate(90.28125, 172)" class="sprotty-junction thick" style="fill:rgb(112, 112, 112);stroke:none;"/></g><g id="sprotty_ArchitectureBlockImpl$ibex_register_file_fpga/BPortImpl$we_a_i_to_ArchitectureBlockImpl$ibex_register_file_fpga/AssignmentBlockImpl$we/GPortImpl$we_a_iIN" class="sprotty-edge edge" style="fill:none;stroke:rgb(112, 112, 112);stroke-linejoin:round;"><g><path d="M 0 138 L 100.28125 138 "/><path d="M 0 138 L 100.28125 138 " class="clickable"/></g></g><g id="sprotty_ArchitectureBlockImpl$ibex_register_file_fpga/BPortImpl$rst_ni_to_ArchitectureBlockImpl$ibex_register_file_fpga/AssignmentBlockImpl$unused_rst_ni/GPortImpl$rst_niIN" class="sprotty-edge edge" style="fill:none;stroke:rgb(112, 112, 112);stroke-linejoin:round;"><g><path d="M 0 371 L 52.84375 371 "/><path d="M 0 371 L 52.84375 371 " class="clickable"/></g></g><g id="sprotty_ArchitectureBlockImpl$ibex_register_file_fpga/BPortImpl$dummy_instr_id_i_to_ArchitectureBlockImpl$ibex_register_file_fpga/AssignmentBlockImpl$unused_dummy_instr/GPortImpl$dummy_instr_id_iIN" class="sprotty-edge edge" style="fill:none;stroke:rgb(112, 112, 112);stroke-linejoin:round;"><g><path d="M 0 261 L 123.53125 261 "/><path d="M 0 261 L 123.53125 261 " class="clickable"/></g></g><g id="sprotty_ArchitectureBlockImpl$ibex_register_file_fpga/BPortImpl$test_en_i_to_ArchitectureBlockImpl$ibex_register_file_fpga/AssignmentBlockImpl$unused_test_en/GPortImpl$test_en_iIN" class="sprotty-edge edge" style="fill:none;stroke:rgb(112, 112, 112);stroke-linejoin:round;"><g><path d="M 0 316 L 72.59375 316 "/><path d="M 0 316 L 72.59375 316 " class="clickable"/></g></g><g id="sprotty_ArchitectureBlockImpl$ibex_register_file_fpga/BPortImpl$clk_i_to_ArchitectureBlockImpl$ibex_register_file_fpga/AlwaysBlockImpl$sync_write/GPortImpl$clk_iIN" class="sprotty-edge edge" style="fill:none;stroke:rgb(112, 112, 112);stroke-linejoin:round;"><g><path d="M 0 70 L 128 70 C 129 70 130 71 130 72 L 130 90.5 C 130 91.5 131 92.5 132 92.5 L 140 92.5 "/><path d="M 0 70 L 128 70 C 129 70 130 71 130 72 L 130 90.5 C 130 91.5 131 92.5 132 92.5 L 140 92.5 " class="clickable"/></g></g><g id="sprotty_ArchitectureBlockImpl$ibex_register_file_fpga/BPortImpl$wdata_a_i_to_ArchitectureBlockImpl$ibex_register_file_fpga/AlwaysBlockImpl$sync_write/GPortImpl$wdata_a_iIN" class="sprotty-edge thick edge" style="fill:none;stroke:rgb(112, 112, 112);stroke-linejoin:round;stroke-width:3px;"><g><path d="M 0 104 L 140 104 "/><path d="M 0 104 L 140 104 " class="clickable"/></g></g><g id="sprotty_ArchitectureBlockImpl$ibex_register_file_fpga/AlwaysBlockImpl$sync_write/GPortImpl$memOUT_to_ArchitectureBlockImpl$ibex_register_file_fpga/AssignmentBlockImpl$rdata_a_o/GPortImpl$memIN" class="sprotty-edge thick edge" style="fill:none;stroke:rgb(112, 112, 112);stroke-linejoin:round;stroke-width:3px;"><g><path d="M 236.25 96.33333333333333 L 266.25 96.33333333333333 "/><path d="M 236.25 96.33333333333333 L 266.25 96.33333333333333 " class="clickable"/></g></g><g id="sprotty_ArchitectureBlockImpl$ibex_register_file_fpga/AlwaysBlockImpl$sync_write/GPortImpl$memOUT_to_ArchitectureBlockImpl$ibex_register_file_fpga/AssignmentBlockImpl$rdata_b_o/GPortImpl$memIN" class="sprotty-edge thick edge" style="fill:none;stroke:rgb(112, 112, 112);stroke-linejoin:round;stroke-width:3px;"><g><path d="M 236.25 96.33333333333333 L 254.25 96.33333333333333 C 255.25 96.33333333333333 256.25 97.33333333333333 256.25 98.33333333333333 L 256.25 194 C 256.25 195 257.25 196 258.25 196 L 266.25 196 "/><path d="M 236.25 96.33333333333333 L 254.25 96.33333333333333 C 255.25 96.33333333333333 256.25 97.33333333333333 256.25 98.33333333333333 L 256.25 194 C 256.25 195 257.25 196 258.25 196 L 266.25 196 " class="clickable"/></g><circle r="3" id="sprotty_ArchitectureBlockImpl$ibex_register_file_fpga/AlwaysBlockImpl$sync_write/GPortImpl$memOUT_to_ArchitectureBlockImpl$ibex_register_file_fpga/AssignmentBlockImpl$rdata_b_o/GPortImpl$memIN/junction0" transform="translate(256.25, 96.33333333333333)" class="sprotty-junction thick" style="fill:rgb(112, 112, 112);stroke:none;"/></g><g id="sprotty_ArchitectureBlockImpl$ibex_register_file_fpga/AssignmentBlockImpl$we/GPortImpl$weOUT_to_ArchitectureBlockImpl$ibex_register_file_fpga/AlwaysBlockImpl$sync_write/GPortImpl$weIN" class="sprotty-edge edge" style="fill:none;stroke:rgb(112, 112, 112);stroke-linejoin:round;"><g><path d="M 120 143 L 128 143 C 129 143 130 142 130 141 L 130 117.5 C 130 116.5 131 115.5 132 115.5 L 140 115.5 "/><path d="M 120 143 L 128 143 C 129 143 130 142 130 141 L 130 117.5 C 130 116.5 131 115.5 132 115.5 L 140 115.5 " class="clickable"/></g></g><g id="sprotty_ArchitectureBlockImpl$ibex_register_file_fpga/AlwaysBlockImpl$sync_write" transform="translate(140, 81)" class="statement"><rect x="0" y="0" rx="10" ry="5" width="96.25" height="46" class="sprotty-node" style="fill:rgb(245, 245, 245);stroke:rgb(112, 112, 112);"/><text class="clickable sprotty-label statementtext" id="sprotty_ArchitectureBlockImpl$ibex_register_file_fpga/AlwaysBlockImpl$sync_write/labeltext" transform="translate(5, 5) translate(43.125, 19)" style="cursor:default;font-weight:700;perspective-origin:0px 0px;fill:rgb(112, 112, 112);text-anchor:middle;">sync_write</text><text class="clickable sprotty-label statementtype" id="sprotty_ArchitectureBlockImpl$ibex_register_file_fpga/AlwaysBlockImpl$sync_write/labeltype" transform="translate(28.6796875, 29) translate(18.828125, 9)" style="cursor:default;font-size:8px;font-weight:700;perspective-origin:0.609375px 0px;fill:rgb(112, 112, 112);text-anchor:middle;">always_ff</text><g id="sprotty_ArchitectureBlockImpl$ibex_register_file_fpga/AlwaysBlockImpl$sync_write/GPortImpl$wdata_a_iIN" transform="translate(0, 23)" class="sprotty-hidden hidden" style="display:block;height:0px;width:0px;"/><g id="sprotty_ArchitectureBlockImpl$ibex_register_file_fpga/AlwaysBlockImpl$sync_write/GPortImpl$weIN" transform="translate(0, 34.5)" class="sprotty-hidden hidden" style="display:block;height:0px;width:0px;"/><g id="sprotty_ArchitectureBlockImpl$ibex_register_file_fpga/AlwaysBlockImpl$sync_write/GPortImpl$clk_iIN" transform="translate(0, 11.5)" class="sprotty-hidden hidden" style="display:block;height:0px;width:0px;"/><g id="sprotty_ArchitectureBlockImpl$ibex_register_file_fpga/AlwaysBlockImpl$sync_write/GPortImpl$waddr_a_iOUT" transform="translate(96.25, 30.666666666666664)" class="sprotty-hidden hidden" style="display:block;height:0px;width:0px;"/><g id="sprotty_ArchitectureBlockImpl$ibex_register_file_fpga/AlwaysBlockImpl$sync_write/GPortImpl$memOUT" transform="translate(96.25, 15.333333333333332)" class="sprotty-hidden hidden" style="display:block;height:0px;width:0px;"/></g><g id="sprotty_ArchitectureBlockImpl$ibex_register_file_fpga/AssignmentBlockImpl$unused_test_en" transform="translate(72.59375, 305)" class="statement"><rect x="0" y="0" rx="10" ry="5" width="19.71875" height="22" class="sprotty-node" style="fill:rgb(245, 245, 245);stroke:rgb(112, 112, 112);"/><text class="clickable sprotty-label statementtype" id="sprotty_ArchitectureBlockImpl$ibex_register_file_fpga/AssignmentBlockImpl$unused_test_en/labeltype" transform="translate(5, 5) translate(4.71875, 9)" style="cursor:default;font-size:8px;font-weight:700;perspective-origin:0.140625px 0px;fill:rgb(112, 112, 112);text-anchor:middle;">&lt;=</text><g id="sprotty_ArchitectureBlockImpl$ibex_register_file_fpga/AssignmentBlockImpl$unused_test_en/GPortImpl$test_en_iIN" transform="translate(0, 11)" class="sprotty-hidden hidden" style="display:block;height:0px;width:0px;"/></g><g id="sprotty_ArchitectureBlockImpl$ibex_register_file_fpga/AssignmentBlockImpl$unused_dummy_instr" transform="translate(123.53125, 250)" class="statement"><rect x="0" y="0" rx="10" ry="5" width="19.71875" height="22" class="sprotty-node" style="fill:rgb(245, 245, 245);stroke:rgb(112, 112, 112);"/><text class="clickable sprotty-label statementtype" id="sprotty_ArchitectureBlockImpl$ibex_register_file_fpga/AssignmentBlockImpl$unused_dummy_instr/labeltype" transform="translate(5, 5) translate(4.71875, 9)" style="cursor:default;font-size:8px;font-weight:700;perspective-origin:0.140625px 0px;fill:rgb(112, 112, 112);text-anchor:middle;">&lt;=</text><g id="sprotty_ArchitectureBlockImpl$ibex_register_file_fpga/AssignmentBlockImpl$unused_dummy_instr/GPortImpl$dummy_instr_id_iIN" transform="translate(0, 11)" class="sprotty-hidden hidden" style="display:block;height:0px;width:0px;"/></g><g id="sprotty_ArchitectureBlockImpl$ibex_register_file_fpga/AssignmentBlockImpl$unused_rst_ni" transform="translate(52.84375, 360)" class="statement"><rect x="0" y="0" rx="10" ry="5" width="19.71875" height="22" class="sprotty-node" style="fill:rgb(245, 245, 245);stroke:rgb(112, 112, 112);"/><text class="clickable sprotty-label statementtype" id="sprotty_ArchitectureBlockImpl$ibex_register_file_fpga/AssignmentBlockImpl$unused_rst_ni/labeltype" transform="translate(5, 5) translate(4.71875, 9)" style="cursor:default;font-size:8px;font-weight:700;perspective-origin:0.140625px 0px;fill:rgb(112, 112, 112);text-anchor:middle;">&lt;=</text><g id="sprotty_ArchitectureBlockImpl$ibex_register_file_fpga/AssignmentBlockImpl$unused_rst_ni/GPortImpl$rst_niIN" transform="translate(0, 11)" class="sprotty-hidden hidden" style="display:block;height:0px;width:0px;"/></g><g id="sprotty_ArchitectureBlockImpl$ibex_register_file_fpga/AssignmentBlockImpl$we" transform="translate(100.28125, 128)" class="statement"><rect x="0" y="0" rx="10" ry="5" width="19.71875" height="30" class="sprotty-node" style="fill:rgb(245, 245, 245);stroke:rgb(112, 112, 112);"/><text class="clickable sprotty-label statementtype" id="sprotty_ArchitectureBlockImpl$ibex_register_file_fpga/AssignmentBlockImpl$we/labeltype" transform="translate(5, 9) translate(4.71875, 9)" style="cursor:default;font-size:8px;font-weight:700;perspective-origin:0.140625px 0px;fill:rgb(112, 112, 112);text-anchor:middle;">&lt;=</text><g id="sprotty_ArchitectureBlockImpl$ibex_register_file_fpga/AssignmentBlockImpl$we/GPortImpl$we_a_iIN" transform="translate(0, 10)" class="sprotty-hidden hidden" style="display:block;height:0px;width:0px;"/><g id="sprotty_ArchitectureBlockImpl$ibex_register_file_fpga/AssignmentBlockImpl$we/GPortImpl$waddr_a_iIN" transform="translate(0, 20)" class="sprotty-hidden hidden" style="display:block;height:0px;width:0px;"/><g id="sprotty_ArchitectureBlockImpl$ibex_register_file_fpga/AssignmentBlockImpl$we/GPortImpl$weOUT" transform="translate(19.71875, 15)" class="sprotty-hidden hidden" style="display:block;height:0px;width:0px;"/></g><g id="sprotty_ArchitectureBlockImpl$ibex_register_file_fpga/AssignmentBlockImpl$rdata_b_o" transform="translate(266.25, 186)" class="statement"><rect x="0" y="0" rx="10" ry="5" width="19.71875" height="30" class="sprotty-node" style="fill:rgb(245, 245, 245);stroke:rgb(112, 112, 112);"/><text class="clickable sprotty-label statementtype" id="sprotty_ArchitectureBlockImpl$ibex_register_file_fpga/AssignmentBlockImpl$rdata_b_o/labeltype" transform="translate(5, 9) translate(4.71875, 9)" style="cursor:default;font-size:8px;font-weight:700;perspective-origin:0.140625px 0px;fill:rgb(112, 112, 112);text-anchor:middle;">&lt;=</text><g id="sprotty_ArchitectureBlockImpl$ibex_register_file_fpga/AssignmentBlockImpl$rdata_b_o/GPortImpl$memIN" transform="translate(0, 10)" class="sprotty-hidden hidden" style="display:block;height:0px;width:0px;"/><g id="sprotty_ArchitectureBlockImpl$ibex_register_file_fpga/AssignmentBlockImpl$rdata_b_o/GPortImpl$raddr_b_iIN" transform="translate(0, 20)" class="sprotty-hidden hidden" style="display:block;height:0px;width:0px;"/><g id="sprotty_ArchitectureBlockImpl$ibex_register_file_fpga/AssignmentBlockImpl$rdata_b_o/GPortImpl$rdata_b_oOUT" transform="translate(19.71875, 15)" class="sprotty-hidden hidden" style="display:block;height:0px;width:0px;"/></g><g id="sprotty_ArchitectureBlockImpl$ibex_register_file_fpga/AssignmentBlockImpl$rdata_a_o" transform="translate(266.25, 76.33333333333333)" class="statement"><rect x="0" y="0" rx="10" ry="5" width="19.71875" height="30" class="sprotty-node" style="fill:rgb(245, 245, 245);stroke:rgb(112, 112, 112);"/><text class="clickable sprotty-label statementtype" id="sprotty_ArchitectureBlockImpl$ibex_register_file_fpga/AssignmentBlockImpl$rdata_a_o/labeltype" transform="translate(5, 9) translate(4.71875, 9)" style="cursor:default;font-size:8px;font-weight:700;perspective-origin:0.140625px 0px;fill:rgb(112, 112, 112);text-anchor:middle;">&lt;=</text><g id="sprotty_ArchitectureBlockImpl$ibex_register_file_fpga/AssignmentBlockImpl$rdata_a_o/GPortImpl$memIN" transform="translate(0, 20)" class="sprotty-hidden hidden" style="display:block;height:0px;width:0px;"/><g id="sprotty_ArchitectureBlockImpl$ibex_register_file_fpga/AssignmentBlockImpl$rdata_a_o/GPortImpl$raddr_a_iIN" transform="translate(0, 10)" class="sprotty-hidden hidden" style="display:block;height:0px;width:0px;"/><g id="sprotty_ArchitectureBlockImpl$ibex_register_file_fpga/AssignmentBlockImpl$rdata_a_o/GPortImpl$rdata_a_oOUT" transform="translate(19.71875, 15)" class="sprotty-hidden hidden" style="display:block;height:0px;width:0px;"/></g><g id="sprotty_ArchitectureBlockImpl$ibex_register_file_fpga/BPortImpl$we_a_i" transform="translate(0, 138)" class="triangle"><path d="M 0,0 L 5,2.5 L 0,5 Z" transform="translate(-1.67, -2.5)" class="sprotty-port" style="fill:rgb(48, 48, 48);stroke:rgb(48, 48, 48);"/><text class="clickable sprotty-label port" id="sprotty_ArchitectureBlockImpl$ibex_register_file_fpga/BPortImpl$we_a_i/label" transform="translate(6, 6) translate(19.859375, 14)" style="cursor:default;font-size:12px;perspective-origin:0px 0px;fill:rgb(48, 48, 48);text-anchor:middle;">we_a_i</text></g><g id="sprotty_ArchitectureBlockImpl$ibex_register_file_fpga/BPortImpl$wdata_a_i" transform="translate(0, 104)" class="triangle"><path d="M 0,0 L 5,2.5 L 0,5 Z" transform="translate(-1.67, -2.5)" class="sprotty-port" style="fill:rgb(48, 48, 48);stroke:rgb(48, 48, 48);"/><text class="clickable sprotty-label port" id="sprotty_ArchitectureBlockImpl$ibex_register_file_fpga/BPortImpl$wdata_a_i/label" transform="translate(6, 6) translate(29.046875, 14)" style="cursor:default;font-size:12px;perspective-origin:0px 0px;fill:rgb(48, 48, 48);text-anchor:middle;">wdata_a_i</text></g><g id="sprotty_ArchitectureBlockImpl$ibex_register_file_fpga/BPortImpl$waddr_a_i" transform="translate(0, 172)" class="triangle"><path d="M 0,0 L 5,2.5 L 0,5 Z" transform="translate(-1.67, -2.5)" class="sprotty-port" style="fill:rgb(48, 48, 48);stroke:rgb(48, 48, 48);"/><text class="clickable sprotty-label port" id="sprotty_ArchitectureBlockImpl$ibex_register_file_fpga/BPortImpl$waddr_a_i/label" transform="translate(6, 6) translate(29.640625, 14)" style="cursor:default;font-size:12px;perspective-origin:0px 0px;fill:rgb(48, 48, 48);text-anchor:middle;">waddr_a_i</text></g><g id="sprotty_ArchitectureBlockImpl$ibex_register_file_fpga/BPortImpl$raddr_b_i" transform="translate(0, 206)" class="triangle"><path d="M 0,0 L 5,2.5 L 0,5 Z" transform="translate(-1.67, -2.5)" class="sprotty-port" style="fill:rgb(48, 48, 48);stroke:rgb(48, 48, 48);"/><text class="clickable sprotty-label port" id="sprotty_ArchitectureBlockImpl$ibex_register_file_fpga/BPortImpl$raddr_b_i/label" transform="translate(6, 6) translate(27.390625, 14)" style="cursor:default;font-size:12px;perspective-origin:0px 0px;fill:rgb(48, 48, 48);text-anchor:middle;">raddr_b_i</text></g><g id="sprotty_ArchitectureBlockImpl$ibex_register_file_fpga/BPortImpl$raddr_a_i" transform="translate(0, 36)" class="triangle"><path d="M 0,0 L 5,2.5 L 0,5 Z" transform="translate(-1.67, -2.5)" class="sprotty-port" style="fill:rgb(48, 48, 48);stroke:rgb(48, 48, 48);"/><text class="clickable sprotty-label port" id="sprotty_ArchitectureBlockImpl$ibex_register_file_fpga/BPortImpl$raddr_a_i/label" transform="translate(6, 6) translate(27.0625, 14)" style="cursor:default;font-size:12px;perspective-origin:0px 0px;fill:rgb(48, 48, 48);text-anchor:middle;">raddr_a_i</text></g><g id="sprotty_ArchitectureBlockImpl$ibex_register_file_fpga/BPortImpl$dummy_instr_id_i" transform="translate(0, 261)" class="triangle"><path d="M 0,0 L 5,2.5 L 0,5 Z" transform="translate(-1.67, -2.5)" class="sprotty-port" style="fill:rgb(48, 48, 48);stroke:rgb(48, 48, 48);"/><text class="clickable sprotty-label port" id="sprotty_ArchitectureBlockImpl$ibex_register_file_fpga/BPortImpl$dummy_instr_id_i/label" transform="translate(6, 6) translate(51.265625, 14)" style="cursor:default;font-size:12px;perspective-origin:0px 0px;fill:rgb(48, 48, 48);text-anchor:middle;">dummy_instr_id_i</text></g><g id="sprotty_ArchitectureBlockImpl$ibex_register_file_fpga/BPortImpl$test_en_i" transform="translate(0, 316)" class="triangle"><path d="M 0,0 L 5,2.5 L 0,5 Z" transform="translate(-1.67, -2.5)" class="sprotty-port" style="fill:rgb(48, 48, 48);stroke:rgb(48, 48, 48);"/><text class="clickable sprotty-label port" id="sprotty_ArchitectureBlockImpl$ibex_register_file_fpga/BPortImpl$test_en_i/label" transform="translate(6, 6) translate(25.796875, 14)" style="cursor:default;font-size:12px;perspective-origin:0px 0px;fill:rgb(48, 48, 48);text-anchor:middle;">test_en_i</text></g><g id="sprotty_ArchitectureBlockImpl$ibex_register_file_fpga/BPortImpl$rst_ni" transform="translate(0, 371)" class="triangle"><path d="M 0,0 L 5,2.5 L 0,5 Z" transform="translate(-1.67, -2.5)" class="sprotty-port" style="fill:rgb(48, 48, 48);stroke:rgb(48, 48, 48);"/><text class="clickable sprotty-label port" id="sprotty_ArchitectureBlockImpl$ibex_register_file_fpga/BPortImpl$rst_ni/label" transform="translate(6, 6) translate(15.921875, 14)" style="cursor:default;font-size:12px;perspective-origin:0px 0px;fill:rgb(48, 48, 48);text-anchor:middle;">rst_ni</text></g><g id="sprotty_ArchitectureBlockImpl$ibex_register_file_fpga/BPortImpl$clk_i" transform="translate(0, 70)" class="triangle"><path d="M 0,0 L 5,2.5 L 0,5 Z" transform="translate(-1.67, -2.5)" class="sprotty-port" style="fill:rgb(48, 48, 48);stroke:rgb(48, 48, 48);"/><text class="clickable sprotty-label port" id="sprotty_ArchitectureBlockImpl$ibex_register_file_fpga/BPortImpl$clk_i/label" transform="translate(6, 6) translate(13.09375, 14)" style="cursor:default;font-size:12px;perspective-origin:0px 0px;fill:rgb(48, 48, 48);text-anchor:middle;">clk_i</text></g><g id="sprotty_ArchitectureBlockImpl$ibex_register_file_fpga/BPortImpl$rdata_a_o" transform="translate(364.65625, 91.33333333333333)" class="triangle"><path d="M 0,0 L 5,2.5 L 0,5 Z" transform="translate(-1.67, -2.5)" class="sprotty-port" style="fill:rgb(48, 48, 48);stroke:rgb(48, 48, 48);"/><text class="clickable sprotty-label port" id="sprotty_ArchitectureBlockImpl$ibex_register_file_fpga/BPortImpl$rdata_a_o/label" transform="translate(-63.03125, 6) translate(28.515625, 14)" style="cursor:default;font-size:12px;perspective-origin:0px 0px;fill:rgb(48, 48, 48);text-anchor:middle;">rdata_a_o</text></g><g id="sprotty_ArchitectureBlockImpl$ibex_register_file_fpga/BPortImpl$rdata_b_o" transform="translate(364.65625, 201)" class="triangle"><path d="M 0,0 L 5,2.5 L 0,5 Z" transform="translate(-1.67, -2.5)" class="sprotty-port" style="fill:rgb(48, 48, 48);stroke:rgb(48, 48, 48);"/><text class="clickable sprotty-label port" id="sprotty_ArchitectureBlockImpl$ibex_register_file_fpga/BPortImpl$rdata_b_o/label" transform="translate(-63.6875, 6) translate(28.84375, 14)" style="cursor:default;font-size:12px;perspective-origin:0px 0px;fill:rgb(48, 48, 48);text-anchor:middle;">rdata_b_o</text></g></g></g></svg>