<svg xmlns="http://www.w3.org/2000/svg" id="sprotty_work.prim_flop" class="sprotty-graph sprotty-block-diagram blockdiagram" style="font-family:&quot;Noto Sans&quot;, Helvetica, Arial, sans-serif;perspective-origin:0px 0px;transform-origin:0px 0px;" version="1.1" viewBox="7 7 483.5 334" width="483.5" height="334"><g transform="scale(1) translate(0,0)"><g id="sprotty_ArchitectureBlockImpl$prim_flop" transform="translate(12, 12)" class="architecture"><g class="sprotty-block" style="fill:rgb(255, 255, 255);stroke:rgb(48, 48, 48);stroke-dasharray:0px;"><rect x="0" y="0" rx="1" ry="1" width="473.5" height="324"/><text x="236.75" y="12" class="sprotty-block-name" style="cursor:pointer;font-weight:700;perspective-origin:236.75px 0px;fill:rgb(48, 48, 48);stroke:rgba(0, 0, 0, 0);dominant-baseline:middle;text-anchor:middle;">prim_flop</text><line x1="0" y1="20" x2="473.5" y2="20"/></g><g id="sprotty_ArchitectureBlockImpl$prim_flop/GenerateStatementBlockImpl$null4/GPortImpl$q_o_to_ArchitectureBlockImpl$prim_flop/BPortImpl$q_o" class="sprotty-edge thick edge" style="fill:none;stroke:rgb(112, 112, 112);stroke-linejoin:round;stroke-width:3px;"><g><path d="M 431.0625 248 L 473.5 248 "/><path d="M 431.0625 248 L 473.5 248 " class="clickable"/></g></g><g id="sprotty_ArchitectureBlockImpl$prim_flop/BPortImpl$clk_i_to_ArchitectureBlockImpl$prim_flop/GenerateStatementBlockImpl$null4/GPortImpl$clk_i" class="sprotty-edge edge" style="fill:none;stroke:rgb(112, 112, 112);stroke-linejoin:round;"><g><path d="M 0 82 L 60.84375 82 C 61.84375 82 62.84375 83 62.84375 84 L 62.84375 86 C 62.84375 87 63.84375 88 64.84375 88 L 72.84375 88 "/><path d="M 0 82 L 60.84375 82 C 61.84375 82 62.84375 83 62.84375 84 L 62.84375 86 C 62.84375 87 63.84375 88 64.84375 88 L 72.84375 88 " class="clickable"/></g></g><g id="sprotty_ArchitectureBlockImpl$prim_flop/BPortImpl$rst_ni_to_ArchitectureBlockImpl$prim_flop/GenerateStatementBlockImpl$null4/GPortImpl$rst_ni" class="sprotty-edge edge" style="fill:none;stroke:rgb(112, 112, 112);stroke-linejoin:round;"><g><path d="M 0 116 L 72.84375 116 "/><path d="M 0 116 L 72.84375 116 " class="clickable"/></g></g><g id="sprotty_ArchitectureBlockImpl$prim_flop/BPortImpl$d_i_to_ArchitectureBlockImpl$prim_flop/GenerateStatementBlockImpl$null4/GPortImpl$d_i" class="sprotty-edge thick edge" style="fill:none;stroke:rgb(112, 112, 112);stroke-linejoin:round;stroke-width:3px;"><g><path d="M 0 150 L 60.84375 150 C 61.84375 150 62.84375 149 62.84375 148 L 62.84375 146 C 62.84375 145 63.84375 144 64.84375 144 L 72.84375 144 "/><path d="M 0 150 L 60.84375 150 C 61.84375 150 62.84375 149 62.84375 148 L 62.84375 146 C 62.84375 145 63.84375 144 64.84375 144 L 72.84375 144 " class="clickable"/></g></g><g id="sprotty_ArchitectureBlockImpl$prim_flop/GenerateStatementBlockImpl$null4" transform="translate(72.84375, 35)" class="generate"><g class="sprotty-block sprotty-block-generate" style="fill:rgb(255, 255, 255);stroke:rgb(48, 48, 48);stroke-dasharray:0px;"><rect x="0" y="0" rx="1" ry="1" width="358.21875" height="274" style="stroke-dasharray:3px, 1px;"/><text x="179.109375" y="12" class="sprotty-block-name" style="cursor:pointer;font-weight:700;fill:rgb(48, 48, 48);stroke:rgba(0, 0, 0, 0);dominant-baseline:middle;text-anchor:middle;"/>undefined</g><g id="sprotty_ArchitectureBlockImpl$prim_flop/GenerateStatementBlockImpl$null4/InstantiationBlockImpl$u_impl_generic/BPortImpl$q_o_to_ArchitectureBlockImpl$prim_flop/GenerateStatementBlockImpl$null4/GPortImpl$q_o" class="sprotty-edge thick edge" style="fill:none;stroke:rgb(112, 112, 112);stroke-linejoin:round;stroke-width:3px;"><g><path d="M 343.21875 213 L 358.21875 213 "/><path d="M 343.21875 213 L 358.21875 213 " class="clickable"/></g></g><g id="sprotty_ArchitectureBlockImpl$prim_flop/GenerateStatementBlockImpl$null4/GPortImpl$clk_i_to_ArchitectureBlockImpl$prim_flop/GenerateStatementBlockImpl$null4/InstantiationBlockImpl$u_impl_xilinx/BPortImpl$clk_i" class="sprotty-edge edge" style="fill:none;stroke:rgb(112, 112, 112);stroke-linejoin:round;"><g><path d="M 0 53 L 55 53 "/><path d="M 0 53 L 55 53 " class="clickable"/></g></g><g id="sprotty_ArchitectureBlockImpl$prim_flop/GenerateStatementBlockImpl$null4/GPortImpl$rst_ni_to_ArchitectureBlockImpl$prim_flop/GenerateStatementBlockImpl$null4/InstantiationBlockImpl$u_impl_xilinx/BPortImpl$rst_ni" class="sprotty-edge edge" style="fill:none;stroke:rgb(112, 112, 112);stroke-linejoin:round;"><g><path d="M 0 81 L 55 81 "/><path d="M 0 81 L 55 81 " class="clickable"/></g></g><g id="sprotty_ArchitectureBlockImpl$prim_flop/GenerateStatementBlockImpl$null4/GPortImpl$d_i_to_ArchitectureBlockImpl$prim_flop/GenerateStatementBlockImpl$null4/InstantiationBlockImpl$u_impl_xilinx/BPortImpl$d_i" class="sprotty-edge thick edge" style="fill:none;stroke:rgb(112, 112, 112);stroke-linejoin:round;stroke-width:3px;"><g><path d="M 0 109 L 55 109 "/><path d="M 0 109 L 55 109 " class="clickable"/></g></g><g id="sprotty_ArchitectureBlockImpl$prim_flop/GenerateStatementBlockImpl$null4/GPortImpl$clk_i_to_ArchitectureBlockImpl$prim_flop/GenerateStatementBlockImpl$null4/InstantiationBlockImpl$u_impl_generic/BPortImpl$clk_i" class="sprotty-edge edge" style="fill:none;stroke:rgb(112, 112, 112);stroke-linejoin:round;"><g><path d="M 0 53 L 43 53 C 44 53 45 54 45 55 L 45 183 C 45 184 46 185 47 185 L 55 185 "/><path d="M 0 53 L 43 53 C 44 53 45 54 45 55 L 45 183 C 45 184 46 185 47 185 L 55 185 " class="clickable"/></g><circle r="2" id="sprotty_ArchitectureBlockImpl$prim_flop/GenerateStatementBlockImpl$null4/GPortImpl$clk_i_to_ArchitectureBlockImpl$prim_flop/GenerateStatementBlockImpl$null4/InstantiationBlockImpl$u_impl_generic/BPortImpl$clk_i/junction0" transform="translate(45, 53)" class="sprotty-junction junction" style="fill:rgb(112, 112, 112);stroke:none;"/></g><g id="sprotty_ArchitectureBlockImpl$prim_flop/GenerateStatementBlockImpl$null4/GPortImpl$rst_ni_to_ArchitectureBlockImpl$prim_flop/GenerateStatementBlockImpl$null4/InstantiationBlockImpl$u_impl_generic/BPortImpl$rst_ni" class="sprotty-edge edge" style="fill:none;stroke:rgb(112, 112, 112);stroke-linejoin:round;"><g><path d="M 0 81 L 33 81 C 34 81 35 82 35 83 L 35 211 C 35 212 36 213 37 213 L 55 213 "/><path d="M 0 81 L 33 81 C 34 81 35 82 35 83 L 35 211 C 35 212 36 213 37 213 L 55 213 " class="clickable"/></g><circle r="2" id="sprotty_ArchitectureBlockImpl$prim_flop/GenerateStatementBlockImpl$null4/GPortImpl$rst_ni_to_ArchitectureBlockImpl$prim_flop/GenerateStatementBlockImpl$null4/InstantiationBlockImpl$u_impl_generic/BPortImpl$rst_ni/junction0" transform="translate(35, 81)" class="sprotty-junction junction" style="fill:rgb(112, 112, 112);stroke:none;"/></g><g id="sprotty_ArchitectureBlockImpl$prim_flop/GenerateStatementBlockImpl$null4/GPortImpl$d_i_to_ArchitectureBlockImpl$prim_flop/GenerateStatementBlockImpl$null4/InstantiationBlockImpl$u_impl_generic/BPortImpl$d_i" class="sprotty-edge thick edge" style="fill:none;stroke:rgb(112, 112, 112);stroke-linejoin:round;stroke-width:3px;"><g><path d="M 0 109 L 23 109 C 24 109 25 110 25 111 L 25 239 C 25 240 26 241 27 241 L 55 241 "/><path d="M 0 109 L 23 109 C 24 109 25 110 25 111 L 25 239 C 25 240 26 241 27 241 L 55 241 " class="clickable"/></g><circle r="3" id="sprotty_ArchitectureBlockImpl$prim_flop/GenerateStatementBlockImpl$null4/GPortImpl$d_i_to_ArchitectureBlockImpl$prim_flop/GenerateStatementBlockImpl$null4/InstantiationBlockImpl$u_impl_generic/BPortImpl$d_i/junction0" transform="translate(25, 109)" class="sprotty-junction thick" style="fill:rgb(112, 112, 112);stroke:none;"/></g><g id="sprotty_ArchitectureBlockImpl$prim_flop/GenerateStatementBlockImpl$null4/InstantiationBlockImpl$u_impl_generic" transform="translate(55, 147)" class="instantiation"><g class="sprotty-block" style="fill:rgb(255, 255, 255);stroke:rgb(48, 48, 48);stroke-dasharray:0px;"><rect x="0" y="0" rx="1" ry="1" width="288.21875" height="112"/><text x="144.109375" y="12" class="sprotty-block-name" style="cursor:pointer;font-weight:700;perspective-origin:144.109px 0px;fill:rgb(48, 48, 48);stroke:rgba(0, 0, 0, 0);dominant-baseline:middle;text-anchor:middle;">u_impl_generic : prim_generic_flop</text><line x1="0" y1="20" x2="288.21875" y2="20"/></g><g id="sprotty_ArchitectureBlockImpl$prim_flop/GenerateStatementBlockImpl$null4/InstantiationBlockImpl$u_impl_generic/BPortImpl$d_i" transform="translate(0, 94)" class="triangle"><path d="M 0,0 L 5,2.5 L 0,5 Z" transform="translate(-1.67, -2.5)" class="sprotty-port" style="fill:rgb(48, 48, 48);stroke:rgb(48, 48, 48);"/><text class="clickable sprotty-label port" id="sprotty_ArchitectureBlockImpl$prim_flop/GenerateStatementBlockImpl$null4/InstantiationBlockImpl$u_impl_generic/BPortImpl$d_i/label" transform="translate(6, -9) translate(8.734375, 14)" style="cursor:default;font-size:12px;perspective-origin:0px 0px;fill:rgb(48, 48, 48);text-anchor:middle;">d_i</text></g><g id="sprotty_ArchitectureBlockImpl$prim_flop/GenerateStatementBlockImpl$null4/InstantiationBlockImpl$u_impl_generic/BPortImpl$rst_ni" transform="translate(0, 66)" class="triangle"><path d="M 0,0 L 5,2.5 L 0,5 Z" transform="translate(-1.67, -2.5)" class="sprotty-port" style="fill:rgb(48, 48, 48);stroke:rgb(48, 48, 48);"/><text class="clickable sprotty-label port" id="sprotty_ArchitectureBlockImpl$prim_flop/GenerateStatementBlockImpl$null4/InstantiationBlockImpl$u_impl_generic/BPortImpl$rst_ni/label" transform="translate(6, -9) translate(15.921875, 14)" style="cursor:default;font-size:12px;perspective-origin:0px 0px;fill:rgb(48, 48, 48);text-anchor:middle;">rst_ni</text></g><g id="sprotty_ArchitectureBlockImpl$prim_flop/GenerateStatementBlockImpl$null4/InstantiationBlockImpl$u_impl_generic/BPortImpl$clk_i" transform="translate(0, 38)" class="triangle"><path d="M 0,0 L 5,2.5 L 0,5 Z" transform="translate(-1.67, -2.5)" class="sprotty-port" style="fill:rgb(48, 48, 48);stroke:rgb(48, 48, 48);"/><text class="clickable sprotty-label port" id="sprotty_ArchitectureBlockImpl$prim_flop/GenerateStatementBlockImpl$null4/InstantiationBlockImpl$u_impl_generic/BPortImpl$clk_i/label" transform="translate(6, -9) translate(13.09375, 14)" style="cursor:default;font-size:12px;perspective-origin:0px 0px;fill:rgb(48, 48, 48);text-anchor:middle;">clk_i</text></g><g id="sprotty_ArchitectureBlockImpl$prim_flop/GenerateStatementBlockImpl$null4/InstantiationBlockImpl$u_impl_generic/BPortImpl$q_o" transform="translate(288.21875, 66)" class="triangle"><path d="M 0,0 L 5,2.5 L 0,5 Z" transform="translate(-1.67, -2.5)" class="sprotty-port" style="fill:rgb(48, 48, 48);stroke:rgb(48, 48, 48);"/><text class="clickable sprotty-label port" id="sprotty_ArchitectureBlockImpl$prim_flop/GenerateStatementBlockImpl$null4/InstantiationBlockImpl$u_impl_generic/BPortImpl$q_o/label" transform="translate(-27.4375, -9) translate(10.71875, 14)" style="cursor:default;font-size:12px;perspective-origin:0px 0px;fill:rgb(48, 48, 48);text-anchor:middle;">q_o</text></g></g><g id="sprotty_ArchitectureBlockImpl$prim_flop/GenerateStatementBlockImpl$null4/InstantiationBlockImpl$u_impl_xilinx" transform="translate(55, 15)" class="instantiation"><g class="sprotty-block" style="fill:rgb(255, 255, 255);stroke:rgb(48, 48, 48);stroke-dasharray:0px;"><rect x="0" y="0" rx="1" ry="1" width="257.5" height="112"/><text x="128.75" y="12" class="sprotty-block-name" style="cursor:pointer;font-weight:700;perspective-origin:128.75px 0px;fill:rgb(48, 48, 48);stroke:rgba(0, 0, 0, 0);dominant-baseline:middle;text-anchor:middle;">u_impl_xilinx : prim_xilinx_flop</text><line x1="0" y1="20" x2="257.5" y2="20"/></g><g id="sprotty_ArchitectureBlockImpl$prim_flop/GenerateStatementBlockImpl$null4/InstantiationBlockImpl$u_impl_xilinx/BPortImpl$d_i" transform="translate(0, 94)" class="triangle"><path d="M 0,0 L 5,2.5 L 0,5 Z" transform="translate(-1.67, -2.5)" class="sprotty-port" style="fill:rgb(48, 48, 48);stroke:rgb(48, 48, 48);"/><text class="clickable sprotty-label port" id="sprotty_ArchitectureBlockImpl$prim_flop/GenerateStatementBlockImpl$null4/InstantiationBlockImpl$u_impl_xilinx/BPortImpl$d_i/label" transform="translate(6, -9) translate(8.734375, 14)" style="cursor:default;font-size:12px;perspective-origin:0px 0px;fill:rgb(48, 48, 48);text-anchor:middle;">d_i</text></g><g id="sprotty_ArchitectureBlockImpl$prim_flop/GenerateStatementBlockImpl$null4/InstantiationBlockImpl$u_impl_xilinx/BPortImpl$rst_ni" transform="translate(0, 66)" class="triangle"><path d="M 0,0 L 5,2.5 L 0,5 Z" transform="translate(-1.67, -2.5)" class="sprotty-port" style="fill:rgb(48, 48, 48);stroke:rgb(48, 48, 48);"/><text class="clickable sprotty-label port" id="sprotty_ArchitectureBlockImpl$prim_flop/GenerateStatementBlockImpl$null4/InstantiationBlockImpl$u_impl_xilinx/BPortImpl$rst_ni/label" transform="translate(6, -9) translate(15.921875, 14)" style="cursor:default;font-size:12px;perspective-origin:0px 0px;fill:rgb(48, 48, 48);text-anchor:middle;">rst_ni</text></g><g id="sprotty_ArchitectureBlockImpl$prim_flop/GenerateStatementBlockImpl$null4/InstantiationBlockImpl$u_impl_xilinx/BPortImpl$clk_i" transform="translate(0, 38)" class="triangle"><path d="M 0,0 L 5,2.5 L 0,5 Z" transform="translate(-1.67, -2.5)" class="sprotty-port" style="fill:rgb(48, 48, 48);stroke:rgb(48, 48, 48);"/><text class="clickable sprotty-label port" id="sprotty_ArchitectureBlockImpl$prim_flop/GenerateStatementBlockImpl$null4/InstantiationBlockImpl$u_impl_xilinx/BPortImpl$clk_i/label" transform="translate(6, -9) translate(13.09375, 14)" style="cursor:default;font-size:12px;perspective-origin:0px 0px;fill:rgb(48, 48, 48);text-anchor:middle;">clk_i</text></g><g id="sprotty_ArchitectureBlockImpl$prim_flop/GenerateStatementBlockImpl$null4/InstantiationBlockImpl$u_impl_xilinx/BPortImpl$q_o" transform="translate(257.5, 66)" class="triangle"><path d="M 0,0 L 5,2.5 L 0,5 Z" transform="translate(-1.67, -2.5)" class="sprotty-port" style="fill:rgb(48, 48, 48);stroke:rgb(48, 48, 48);"/><text class="clickable sprotty-label port" id="sprotty_ArchitectureBlockImpl$prim_flop/GenerateStatementBlockImpl$null4/InstantiationBlockImpl$u_impl_xilinx/BPortImpl$q_o/label" transform="translate(-27.4375, -9) translate(10.71875, 14)" style="cursor:default;font-size:12px;perspective-origin:0px 0px;fill:rgb(48, 48, 48);text-anchor:middle;">q_o</text></g></g><g id="sprotty_ArchitectureBlockImpl$prim_flop/GenerateStatementBlockImpl$null4/GPortImpl$d_i" transform="translate(0, 109)" class="triangle"><path d="M 0,0 L 5,2.5 L 0,5 Z" transform="translate(-1.67, -2.5)" class="sprotty-port" style="fill:rgb(48, 48, 48);stroke:rgb(48, 48, 48);"/></g><g id="sprotty_ArchitectureBlockImpl$prim_flop/GenerateStatementBlockImpl$null4/GPortImpl$rst_ni" transform="translate(0, 81)" class="triangle"><path d="M 0,0 L 5,2.5 L 0,5 Z" transform="translate(-1.67, -2.5)" class="sprotty-port" style="fill:rgb(48, 48, 48);stroke:rgb(48, 48, 48);"/></g><g id="sprotty_ArchitectureBlockImpl$prim_flop/GenerateStatementBlockImpl$null4/GPortImpl$clk_i" transform="translate(0, 53)" class="triangle"><path d="M 0,0 L 5,2.5 L 0,5 Z" transform="translate(-1.67, -2.5)" class="sprotty-port" style="fill:rgb(48, 48, 48);stroke:rgb(48, 48, 48);"/></g><g id="sprotty_ArchitectureBlockImpl$prim_flop/GenerateStatementBlockImpl$null4/GPortImpl$q_o" transform="translate(358.21875, 213)" class="triangle"><path d="M 0,0 L 5,2.5 L 0,5 Z" transform="translate(-1.67, -2.5)" class="sprotty-port" style="fill:rgb(48, 48, 48);stroke:rgb(48, 48, 48);"/></g></g><g id="sprotty_ArchitectureBlockImpl$prim_flop/BPortImpl$d_i" transform="translate(0, 150)" class="triangle"><path d="M 0,0 L 5,2.5 L 0,5 Z" transform="translate(-1.67, -2.5)" class="sprotty-port" style="fill:rgb(48, 48, 48);stroke:rgb(48, 48, 48);"/><text class="clickable sprotty-label port" id="sprotty_ArchitectureBlockImpl$prim_flop/BPortImpl$d_i/label" transform="translate(6, 6) translate(8.734375, 14)" style="cursor:default;font-size:12px;perspective-origin:0px 0px;fill:rgb(48, 48, 48);text-anchor:middle;">d_i</text></g><g id="sprotty_ArchitectureBlockImpl$prim_flop/BPortImpl$rst_ni" transform="translate(0, 116)" class="triangle"><path d="M 0,0 L 5,2.5 L 0,5 Z" transform="translate(-1.67, -2.5)" class="sprotty-port" style="fill:rgb(48, 48, 48);stroke:rgb(48, 48, 48);"/><text class="clickable sprotty-label port" id="sprotty_ArchitectureBlockImpl$prim_flop/BPortImpl$rst_ni/label" transform="translate(6, 6) translate(15.921875, 14)" style="cursor:default;font-size:12px;perspective-origin:0px 0px;fill:rgb(48, 48, 48);text-anchor:middle;">rst_ni</text></g><g id="sprotty_ArchitectureBlockImpl$prim_flop/BPortImpl$clk_i" transform="translate(0, 82)" class="triangle"><path d="M 0,0 L 5,2.5 L 0,5 Z" transform="translate(-1.67, -2.5)" class="sprotty-port" style="fill:rgb(48, 48, 48);stroke:rgb(48, 48, 48);"/><text class="clickable sprotty-label port" id="sprotty_ArchitectureBlockImpl$prim_flop/BPortImpl$clk_i/label" transform="translate(6, 6) translate(13.09375, 14)" style="cursor:default;font-size:12px;perspective-origin:0px 0px;fill:rgb(48, 48, 48);text-anchor:middle;">clk_i</text></g><g id="sprotty_ArchitectureBlockImpl$prim_flop/BPortImpl$q_o" transform="translate(473.5, 248)" class="triangle"><path d="M 0,0 L 5,2.5 L 0,5 Z" transform="translate(-1.67, -2.5)" class="sprotty-port" style="fill:rgb(48, 48, 48);stroke:rgb(48, 48, 48);"/><text class="clickable sprotty-label port" id="sprotty_ArchitectureBlockImpl$prim_flop/BPortImpl$q_o/label" transform="translate(-27.4375, 6) translate(10.71875, 14)" style="cursor:default;font-size:12px;perspective-origin:0px 0px;fill:rgb(48, 48, 48);text-anchor:middle;">q_o</text></g></g></g></svg>