<svg xmlns="http://www.w3.org/2000/svg" id="sprotty_work.entropy_src_bucket_ht" class="sprotty-graph sprotty-block-diagram blockdiagram" style="font-family:&quot;Noto Sans&quot;, Helvetica, Arial, sans-serif;perspective-origin:0px 0px;transform-origin:0px 0px;" version="1.1" viewBox="7 7 675.203125 420" width="675.203125" height="420"><g transform="scale(1) translate(0,0)"><g id="sprotty_ArchitectureBlockImpl$entropy_src_bucket_ht" transform="translate(12, 12)" class="architecture"><g class="sprotty-block" style="fill:rgb(255, 255, 255);stroke:rgb(48, 48, 48);stroke-dasharray:0px;"><rect x="0" y="0" rx="1" ry="1" width="665.203125" height="410"/><text x="332.6015625" y="12" class="sprotty-block-name" style="cursor:pointer;font-weight:700;perspective-origin:332.734px 0px;fill:rgb(48, 48, 48);stroke:rgba(0, 0, 0, 0);dominant-baseline:middle;text-anchor:middle;">entropy_src_bucket_ht</text><line x1="0" y1="20" x2="665.203125" y2="20"/></g><g id="sprotty_ArchitectureBlockImpl$entropy_src_bucket_ht/AssignmentBlockImpl$test_cnt_o/GPortImpl$test_cnt_oOUT_to_ArchitectureBlockImpl$entropy_src_bucket_ht/BPortImpl$test_cnt_o" class="sprotty-edge thick edge" style="fill:none;stroke:rgb(112, 112, 112);stroke-linejoin:round;stroke-width:3px;"><g><path d="M 548.390625 143.33333333333334 L 665.203125 143.33333333333334 "/><path d="M 548.390625 143.33333333333334 L 665.203125 143.33333333333334 " class="clickable"/></g></g><g id="sprotty_ArchitectureBlockImpl$entropy_src_bucket_ht/AssignmentBlockImpl$test_fail_pulse_o/GPortImpl$test_fail_pulse_oOUT_to_ArchitectureBlockImpl$entropy_src_bucket_ht/BPortImpl$test_fail_pulse_o" class="sprotty-edge edge" style="fill:none;stroke:rgb(112, 112, 112);stroke-linejoin:round;"><g><path d="M 548.390625 55 L 665.203125 55 "/><path d="M 548.390625 55 L 665.203125 55 " class="clickable"/></g></g><g id="sprotty_ArchitectureBlockImpl$entropy_src_bucket_ht/BPortImpl$active_i_to_ArchitectureBlockImpl$entropy_src_bucket_ht/AssignmentBlockImpl$test_cnt_d/GPortImpl$active_iIN" class="sprotty-edge edge" style="fill:none;stroke:rgb(112, 112, 112);stroke-linejoin:round;"><g><path d="M 0 45 L 348.0625 45 C 349.0625 45 350.0625 46 350.0625 47 L 350.0625 103 C 350.0625 104 351.0625 105 352.0625 105 L 390.0625 105 "/><path d="M 0 45 L 348.0625 45 C 349.0625 45 350.0625 46 350.0625 47 L 350.0625 103 C 350.0625 104 351.0625 105 352.0625 105 L 390.0625 105 " class="clickable"/></g><circle r="2" id="sprotty_ArchitectureBlockImpl$entropy_src_bucket_ht/BPortImpl$active_i_to_ArchitectureBlockImpl$entropy_src_bucket_ht/AssignmentBlockImpl$test_cnt_d/GPortImpl$active_iIN/junction0" transform="translate(350.0625, 45)" class="sprotty-junction junction" style="fill:rgb(112, 112, 112);stroke:none;"/></g><g id="sprotty_ArchitectureBlockImpl$entropy_src_bucket_ht/BPortImpl$clear_i_to_ArchitectureBlockImpl$entropy_src_bucket_ht/AssignmentBlockImpl$test_cnt_d/GPortImpl$clear_iIN" class="sprotty-edge edge" style="fill:none;stroke:rgb(112, 112, 112);stroke-linejoin:round;"><g><path d="M 0 303 L 368.0625 303 C 369.0625 303 370.0625 302 370.0625 301 L 370.0625 147 C 370.0625 146 371.0625 145 372.0625 145 L 390.0625 145 "/><path d="M 0 303 L 368.0625 303 C 369.0625 303 370.0625 302 370.0625 301 L 370.0625 147 C 370.0625 146 371.0625 145 372.0625 145 L 390.0625 145 " class="clickable"/></g></g><g id="sprotty_ArchitectureBlockImpl$entropy_src_bucket_ht/BPortImpl$window_wrap_pulse_i_to_ArchitectureBlockImpl$entropy_src_bucket_ht/AssignmentBlockImpl$test_cnt_d/GPortImpl$window_wrap_pulse_iIN" class="sprotty-edge edge" style="fill:none;stroke:rgb(112, 112, 112);stroke-linejoin:round;"><g><path d="M 0 269 L 358.0625 269 C 359.0625 269 360.0625 268 360.0625 267 L 360.0625 137 C 360.0625 136 361.0625 135 362.0625 135 L 390.0625 135 "/><path d="M 0 269 L 358.0625 269 C 359.0625 269 360.0625 268 360.0625 267 L 360.0625 137 C 360.0625 136 361.0625 135 362.0625 135 L 390.0625 135 " class="clickable"/></g><circle r="2" id="sprotty_ArchitectureBlockImpl$entropy_src_bucket_ht/BPortImpl$window_wrap_pulse_i_to_ArchitectureBlockImpl$entropy_src_bucket_ht/AssignmentBlockImpl$test_cnt_d/GPortImpl$window_wrap_pulse_iIN/junction0" transform="translate(360.0625, 269)" class="sprotty-junction junction" style="fill:rgb(112, 112, 112);stroke:none;"/></g><g id="sprotty_ArchitectureBlockImpl$entropy_src_bucket_ht/BPortImpl$entropy_bit_vld_i_to_ArchitectureBlockImpl$entropy_src_bucket_ht/AssignmentBlockImpl$test_cnt_d/GPortImpl$entropy_bit_vld_iIN" class="sprotty-edge edge" style="fill:none;stroke:rgb(112, 112, 112);stroke-linejoin:round;"><g><path d="M 0 235 L 348.0625 235 C 349.0625 235 350.0625 234 350.0625 233 L 350.0625 127 C 350.0625 126 351.0625 125 352.0625 125 L 390.0625 125 "/><path d="M 0 235 L 348.0625 235 C 349.0625 235 350.0625 234 350.0625 233 L 350.0625 127 C 350.0625 126 351.0625 125 352.0625 125 L 390.0625 125 " class="clickable"/></g></g><g id="sprotty_ArchitectureBlockImpl$entropy_src_bucket_ht/BPortImpl$active_i_to_ArchitectureBlockImpl$entropy_src_bucket_ht/AssignmentBlockImpl$test_fail_pulse_o/GPortImpl$active_iIN" class="sprotty-edge edge" style="fill:none;stroke:rgb(112, 112, 112);stroke-linejoin:round;"><g><path d="M 0 45 L 528.671875 45 "/><path d="M 0 45 L 528.671875 45 " class="clickable"/></g></g><g id="sprotty_ArchitectureBlockImpl$entropy_src_bucket_ht/BPortImpl$window_wrap_pulse_i_to_ArchitectureBlockImpl$entropy_src_bucket_ht/AssignmentBlockImpl$test_fail_pulse_o/GPortImpl$window_wrap_pulse_iIN" class="sprotty-edge edge" style="fill:none;stroke:rgb(112, 112, 112);stroke-linejoin:round;"><g><path d="M 0 269 L 516.671875 269 C 517.671875 269 518.671875 268 518.671875 267 L 518.671875 67 C 518.671875 66 519.671875 65 520.671875 65 L 528.671875 65 "/><path d="M 0 269 L 516.671875 269 C 517.671875 269 518.671875 268 518.671875 267 L 518.671875 67 C 518.671875 66 519.671875 65 520.671875 65 L 528.671875 65 " class="clickable"/></g></g><g id="sprotty_ArchitectureBlockImpl$entropy_src_bucket_ht/BPortImpl$clk_i_to_ArchitectureBlockImpl$entropy_src_bucket_ht/AlwaysBlockImpl$null11/GPortImpl$clk_iIN" class="sprotty-edge edge" style="fill:none;stroke:rgb(112, 112, 112);stroke-linejoin:round;"><g><path d="M 0 371 L 427.78125 371 C 428.78125 371 429.78125 370 429.78125 369 L 429.78125 152 C 429.78125 151 430.78125 150 431.78125 150 L 439.78125 150 "/><path d="M 0 371 L 427.78125 371 C 428.78125 371 429.78125 370 429.78125 369 L 429.78125 152 C 429.78125 151 430.78125 150 431.78125 150 L 439.78125 150 " class="clickable"/></g></g><g id="sprotty_ArchitectureBlockImpl$entropy_src_bucket_ht/BPortImpl$rst_ni_to_ArchitectureBlockImpl$entropy_src_bucket_ht/AlwaysBlockImpl$null11/GPortImpl$rst_niIN" class="sprotty-edge edge" style="fill:none;stroke:rgb(112, 112, 112);stroke-linejoin:round;"><g><path d="M 0 337 L 417.78125 337 C 418.78125 337 419.78125 336 419.78125 335 L 419.78125 142 C 419.78125 141 420.78125 140 421.78125 140 L 439.78125 140 "/><path d="M 0 337 L 417.78125 337 C 418.78125 337 419.78125 336 419.78125 335 L 419.78125 142 C 419.78125 141 420.78125 140 421.78125 140 L 439.78125 140 " class="clickable"/></g></g><g id="sprotty_ArchitectureBlockImpl$entropy_src_bucket_ht/BPortImpl$entropy_bit_vld_i_to_ArchitectureBlockImpl$entropy_src_bucket_ht/GenerateStatementBlockImpl$gen_symbol_match/GPortImpl$entropy_bit_vld_i" class="sprotty-edge edge" style="fill:none;stroke:rgb(112, 112, 112);stroke-linejoin:round;"><g><path d="M 0 235 L 155.5625 235 C 156.5625 235 157.5625 234 157.5625 233 L 157.5625 188 C 157.5625 187 158.5625 186 159.5625 186 L 177.5625 186 "/><path d="M 0 235 L 155.5625 235 C 156.5625 235 157.5625 234 157.5625 233 L 157.5625 188 C 157.5625 187 158.5625 186 159.5625 186 L 177.5625 186 " class="clickable"/></g><circle r="2" id="sprotty_ArchitectureBlockImpl$entropy_src_bucket_ht/BPortImpl$entropy_bit_vld_i_to_ArchitectureBlockImpl$entropy_src_bucket_ht/GenerateStatementBlockImpl$gen_symbol_match/GPortImpl$entropy_bit_vld_i/junction0" transform="translate(157.5625, 235)" class="sprotty-junction junction" style="fill:rgb(112, 112, 112);stroke:none;"/></g><g id="sprotty_ArchitectureBlockImpl$entropy_src_bucket_ht/BPortImpl$entropy_bit_i_to_ArchitectureBlockImpl$entropy_src_bucket_ht/GenerateStatementBlockImpl$gen_symbol_match/GPortImpl$entropy_bit_i" class="sprotty-edge thick edge" style="fill:none;stroke:rgb(112, 112, 112);stroke-linejoin:round;stroke-width:3px;"><g><path d="M 0 176 L 177.5625 176 "/><path d="M 0 176 L 177.5625 176 " class="clickable"/></g></g><g id="sprotty_ArchitectureBlockImpl$entropy_src_bucket_ht/BPortImpl$window_wrap_pulse_i_to_ArchitectureBlockImpl$entropy_src_bucket_ht/GenerateStatementBlockImpl$gen_symbol_match/GPortImpl$window_wrap_pulse_i" class="sprotty-edge edge" style="fill:none;stroke:rgb(112, 112, 112);stroke-linejoin:round;"><g><path d="M 0 269 L 165.5625 269 C 166.5625 269 167.5625 268 167.5625 267 L 167.5625 209 C 167.5625 208 168.5625 207 169.5625 207 L 177.5625 207 "/><path d="M 0 269 L 165.5625 269 C 166.5625 269 167.5625 268 167.5625 267 L 167.5625 209 C 167.5625 208 168.5625 207 169.5625 207 L 177.5625 207 " class="clickable"/></g><circle r="2" id="sprotty_ArchitectureBlockImpl$entropy_src_bucket_ht/BPortImpl$window_wrap_pulse_i_to_ArchitectureBlockImpl$entropy_src_bucket_ht/GenerateStatementBlockImpl$gen_symbol_match/GPortImpl$window_wrap_pulse_i/junction0" transform="translate(167.5625, 269)" class="sprotty-junction junction" style="fill:rgb(112, 112, 112);stroke:none;"/></g><g id="sprotty_ArchitectureBlockImpl$entropy_src_bucket_ht/BPortImpl$active_i_to_ArchitectureBlockImpl$entropy_src_bucket_ht/GenerateStatementBlockImpl$gen_symbol_match/GPortImpl$active_i" class="sprotty-edge edge" style="fill:none;stroke:rgb(112, 112, 112);stroke-linejoin:round;"><g><path d="M 0 45 L 155.5625 45 C 156.5625 45 157.5625 46 157.5625 47 L 157.5625 152 C 157.5625 153 158.5625 154 159.5625 154 L 177.5625 154 "/><path d="M 0 45 L 155.5625 45 C 156.5625 45 157.5625 46 157.5625 47 L 157.5625 152 C 157.5625 153 158.5625 154 159.5625 154 L 177.5625 154 " class="clickable"/></g><circle r="2" id="sprotty_ArchitectureBlockImpl$entropy_src_bucket_ht/BPortImpl$active_i_to_ArchitectureBlockImpl$entropy_src_bucket_ht/GenerateStatementBlockImpl$gen_symbol_match/GPortImpl$active_i/junction0" transform="translate(157.5625, 45)" class="sprotty-junction junction" style="fill:rgb(112, 112, 112);stroke:none;"/></g><g id="sprotty_ArchitectureBlockImpl$entropy_src_bucket_ht/BPortImpl$thresh_i_to_ArchitectureBlockImpl$entropy_src_bucket_ht/GenerateStatementBlockImpl$gen_symbol_match/GPortImpl$thresh_i" class="sprotty-edge thick edge" style="fill:none;stroke:rgb(112, 112, 112);stroke-linejoin:round;stroke-width:3px;"><g><path d="M 0 110 L 177.5625 110 "/><path d="M 0 110 L 177.5625 110 " class="clickable"/></g></g><g id="sprotty_ArchitectureBlockImpl$entropy_src_bucket_ht/GenerateStatementBlockImpl$gen_symbol_match/GPortImpl$bin_cnt_exceeds_thresh_to_ArchitectureBlockImpl$entropy_src_bucket_ht/AssignmentBlockImpl$test_cnt_d/GPortImpl$bin_cnt_exceeds_threshIN" class="sprotty-edge thick edge" style="fill:none;stroke:rgb(112, 112, 112);stroke-linejoin:round;stroke-width:3px;"><g><path d="M 340.0625 115 L 390.0625 115 "/><path d="M 340.0625 115 L 390.0625 115 " class="clickable"/></g></g><g id="sprotty_ArchitectureBlockImpl$entropy_src_bucket_ht/AlwaysBlockImpl$null11/GPortImpl$test_cnt_qOUT_to_ArchitectureBlockImpl$entropy_src_bucket_ht/AssignmentBlockImpl$test_cnt_d/GPortImpl$test_cnt_qIN" class="sprotty-edge thick edge" style="fill:none;stroke:rgb(112, 112, 112);stroke-linejoin:round;stroke-width:3px;"><g><path d="M 488.671875 143.33333333333334 L 506.671875 143.33333333333334 C 507.671875 143.33333333333334 508.671875 144.33333333333334 508.671875 145.33333333333334 L 508.671875 173 C 508.671875 174 507.671875 175 506.671875 175 L 382.0625 175 C 381.0625 175 380.0625 174 380.0625 173 L 380.0625 157 C 380.0625 156 381.0625 155 382.0625 155 L 390.0625 155 "/><path d="M 488.671875 143.33333333333334 L 506.671875 143.33333333333334 C 507.671875 143.33333333333334 508.671875 144.33333333333334 508.671875 145.33333333333334 L 508.671875 173 C 508.671875 174 507.671875 175 506.671875 175 L 382.0625 175 C 381.0625 175 380.0625 174 380.0625 173 L 380.0625 157 C 380.0625 156 381.0625 155 382.0625 155 L 390.0625 155 " class="clickable"/></g></g><g id="sprotty_ArchitectureBlockImpl$entropy_src_bucket_ht/AlwaysBlockImpl$null11/GPortImpl$test_cnt_qOUT_to_ArchitectureBlockImpl$entropy_src_bucket_ht/AssignmentBlockImpl$test_fail_pulse_o/GPortImpl$test_cnt_qIN" class="sprotty-edge thick edge" style="fill:none;stroke:rgb(112, 112, 112);stroke-linejoin:round;stroke-width:3px;"><g><path d="M 488.671875 143.33333333333334 L 506.671875 143.33333333333334 C 507.671875 143.33333333333334 508.671875 142.33333333333334 508.671875 141.33333333333334 L 508.671875 57 C 508.671875 56 509.671875 55 510.671875 55 L 528.671875 55 "/><path d="M 488.671875 143.33333333333334 L 506.671875 143.33333333333334 C 507.671875 143.33333333333334 508.671875 142.33333333333334 508.671875 141.33333333333334 L 508.671875 57 C 508.671875 56 509.671875 55 510.671875 55 L 528.671875 55 " class="clickable"/></g><circle r="3" id="sprotty_ArchitectureBlockImpl$entropy_src_bucket_ht/AlwaysBlockImpl$null11/GPortImpl$test_cnt_qOUT_to_ArchitectureBlockImpl$entropy_src_bucket_ht/AssignmentBlockImpl$test_fail_pulse_o/GPortImpl$test_cnt_qIN/junction0" transform="translate(508.671875, 143.33333333333334)" class="sprotty-junction thick" style="fill:rgb(112, 112, 112);stroke:none;"/></g><g id="sprotty_ArchitectureBlockImpl$entropy_src_bucket_ht/AlwaysBlockImpl$null11/GPortImpl$test_cnt_qOUT_to_ArchitectureBlockImpl$entropy_src_bucket_ht/AssignmentBlockImpl$test_cnt_o/GPortImpl$test_cnt_qIN" class="sprotty-edge thick edge" style="fill:none;stroke:rgb(112, 112, 112);stroke-linejoin:round;stroke-width:3px;"><g><path d="M 488.671875 143.33333333333334 L 528.671875 143.33333333333334 "/><path d="M 488.671875 143.33333333333334 L 528.671875 143.33333333333334 " class="clickable"/></g></g><g id="sprotty_ArchitectureBlockImpl$entropy_src_bucket_ht/AssignmentBlockImpl$test_cnt_d/GPortImpl$test_cnt_qOUT_to_ArchitectureBlockImpl$entropy_src_bucket_ht/AlwaysBlockImpl$null11/GPortImpl$test_cnt_dIN" class="sprotty-edge thick edge" style="fill:none;stroke:rgb(112, 112, 112);stroke-linejoin:round;stroke-width:3px;"><g><path d="M 409.78125 130 L 439.78125 130 "/><path d="M 409.78125 130 L 439.78125 130 " class="clickable"/></g></g><g id="sprotty_ArchitectureBlockImpl$entropy_src_bucket_ht/AlwaysBlockImpl$null11/GPortImpl$bin_cntr_qOUT_to_ArchitectureBlockImpl$entropy_src_bucket_ht/GenerateStatementBlockImpl$gen_symbol_match/GPortImpl$bin_cntr_q" class="sprotty-edge thick edge" style="fill:none;stroke:rgb(112, 112, 112);stroke-linejoin:round;stroke-width:3px;"><g><path d="M 488.671875 126.66666666666667 L 496.671875 126.66666666666667 C 497.671875 126.66666666666667 498.671875 125.66666666666667 498.671875 124.66666666666667 L 498.671875 57 C 498.671875 56 497.671875 55 496.671875 55 L 169.5625 55 C 168.5625 55 167.5625 56 167.5625 57 L 167.5625 139 C 167.5625 140 168.5625 141 169.5625 141 L 177.5625 141 "/><path d="M 488.671875 126.66666666666667 L 496.671875 126.66666666666667 C 497.671875 126.66666666666667 498.671875 125.66666666666667 498.671875 124.66666666666667 L 498.671875 57 C 498.671875 56 497.671875 55 496.671875 55 L 169.5625 55 C 168.5625 55 167.5625 56 167.5625 57 L 167.5625 139 C 167.5625 140 168.5625 141 169.5625 141 L 177.5625 141 " class="clickable"/></g></g><g id="sprotty_ArchitectureBlockImpl$entropy_src_bucket_ht/GenerateStatementBlockImpl$gen_symbol_match/GPortImpl$bin_cntr_q_to_ArchitectureBlockImpl$entropy_src_bucket_ht/AlwaysBlockImpl$null11/GPortImpl$bin_cntr_dIN" class="sprotty-edge thick edge" style="fill:none;stroke:rgb(112, 112, 112);stroke-linejoin:round;stroke-width:3px;"><g><path d="M 177.5625 141 L 169.5625 141 C 168.5625 141 167.5625 140 167.5625 139 L 167.5625 57 C 167.5625 56 168.5625 55 169.5625 55 L 417.78125 55 C 418.78125 55 419.78125 56 419.78125 57 L 419.78125 118 C 419.78125 119 420.78125 120 421.78125 120 L 439.78125 120 "/><path d="M 177.5625 141 L 169.5625 141 C 168.5625 141 167.5625 140 167.5625 139 L 167.5625 57 C 167.5625 56 168.5625 55 169.5625 55 L 417.78125 55 C 418.78125 55 419.78125 56 419.78125 57 L 419.78125 118 C 419.78125 119 420.78125 120 421.78125 120 L 439.78125 120 " class="clickable"/></g><circle r="3" id="sprotty_ArchitectureBlockImpl$entropy_src_bucket_ht/GenerateStatementBlockImpl$gen_symbol_match/GPortImpl$bin_cntr_q_to_ArchitectureBlockImpl$entropy_src_bucket_ht/AlwaysBlockImpl$null11/GPortImpl$bin_cntr_dIN/junction0" transform="translate(419.78125, 55)" class="sprotty-junction thick" style="fill:rgb(112, 112, 112);stroke:none;"/></g><g id="sprotty_ArchitectureBlockImpl$entropy_src_bucket_ht/GenerateStatementBlockImpl$gen_symbol_match" transform="translate(177.5625, 65)" class="generate"><g class="sprotty-block sprotty-block-generate" style="fill:rgb(255, 255, 255);stroke:rgb(48, 48, 48);stroke-dasharray:0px;"><rect x="0" y="0" rx="1" ry="1" width="162.5" height="159" style="stroke-dasharray:3px, 1px;"/><text x="81.25" y="12" class="sprotty-block-name" style="cursor:pointer;font-weight:700;perspective-origin:81.25px 0px;fill:rgb(48, 48, 48);stroke:rgba(0, 0, 0, 0);dominant-baseline:middle;text-anchor:middle;">gen_symbol_match</text><line x1="0" y1="20" x2="162.5" y2="20" style="stroke-dasharray:3px, 1px;"/></g><g id="sprotty_ArchitectureBlockImpl$entropy_src_bucket_ht/GenerateStatementBlockImpl$gen_symbol_match/GPortImpl$entropy_bit_vld_i_to_ArchitectureBlockImpl$entropy_src_bucket_ht/GenerateStatementBlockImpl$gen_symbol_match/AssignmentBlockImpl$bin_incr/GPortImpl$entropy_bit_vld_iIN" class="sprotty-edge edge" style="fill:none;stroke:rgb(112, 112, 112);stroke-linejoin:round;"><g><path d="M 0 121 L 35 121 "/><path d="M 0 121 L 35 121 " class="clickable"/></g></g><g id="sprotty_ArchitectureBlockImpl$entropy_src_bucket_ht/GenerateStatementBlockImpl$gen_symbol_match/GPortImpl$entropy_bit_i_to_ArchitectureBlockImpl$entropy_src_bucket_ht/GenerateStatementBlockImpl$gen_symbol_match/AssignmentBlockImpl$bin_incr/GPortImpl$entropy_bit_iIN" class="sprotty-edge thick edge" style="fill:none;stroke:rgb(112, 112, 112);stroke-linejoin:round;stroke-width:3px;"><g><path d="M 0 111 L 35 111 "/><path d="M 0 111 L 35 111 " class="clickable"/></g></g><g id="sprotty_ArchitectureBlockImpl$entropy_src_bucket_ht/GenerateStatementBlockImpl$gen_symbol_match/GPortImpl$window_wrap_pulse_i_to_ArchitectureBlockImpl$entropy_src_bucket_ht/GenerateStatementBlockImpl$gen_symbol_match/AssignmentBlockImpl$bin_cntr_d/GPortImpl$window_wrap_pulse_iIN" class="sprotty-edge edge" style="fill:none;stroke:rgb(112, 112, 112);stroke-linejoin:round;"><g><path d="M 0 142 L 62.71875 142 C 63.71875 142 64.71875 141 64.71875 140 L 64.71875 128 C 64.71875 127 65.71875 126 66.71875 126 L 84.71875 126 "/><path d="M 0 142 L 62.71875 142 C 63.71875 142 64.71875 141 64.71875 140 L 64.71875 128 C 64.71875 127 65.71875 126 66.71875 126 L 84.71875 126 " class="clickable"/></g></g><g id="sprotty_ArchitectureBlockImpl$entropy_src_bucket_ht/GenerateStatementBlockImpl$gen_symbol_match/GPortImpl$active_i_to_ArchitectureBlockImpl$entropy_src_bucket_ht/GenerateStatementBlockImpl$gen_symbol_match/AssignmentBlockImpl$bin_cntr_d/GPortImpl$active_iIN" class="sprotty-edge edge" style="fill:none;stroke:rgb(112, 112, 112);stroke-linejoin:round;"><g><path d="M 0 89 L 62.71875 89 C 63.71875 89 64.71875 90 64.71875 91 L 64.71875 104 C 64.71875 105 65.71875 106 66.71875 106 L 84.71875 106 "/><path d="M 0 89 L 62.71875 89 C 63.71875 89 64.71875 90 64.71875 91 L 64.71875 104 C 64.71875 105 65.71875 106 66.71875 106 L 84.71875 106 " class="clickable"/></g></g><g id="sprotty_ArchitectureBlockImpl$entropy_src_bucket_ht/GenerateStatementBlockImpl$gen_symbol_match/GPortImpl$thresh_i_to_ArchitectureBlockImpl$entropy_src_bucket_ht/GenerateStatementBlockImpl$gen_symbol_match/AssignmentBlockImpl$bin_cnt_exceeds_thresh/GPortImpl$thresh_iIN" class="sprotty-edge thick edge" style="fill:none;stroke:rgb(112, 112, 112);stroke-linejoin:round;stroke-width:3px;"><g><path d="M 0 45 L 35 45 "/><path d="M 0 45 L 35 45 " class="clickable"/></g></g><g id="sprotty_ArchitectureBlockImpl$entropy_src_bucket_ht/GenerateStatementBlockImpl$gen_symbol_match/AssignmentBlockImpl$bin_cnt_exceeds_thresh/GPortImpl$bin_cnt_exceeds_threshOUT_to_ArchitectureBlockImpl$entropy_src_bucket_ht/GenerateStatementBlockImpl$gen_symbol_match/GPortImpl$bin_cnt_exceeds_thresh" class="sprotty-edge thick edge" style="fill:none;stroke:rgb(112, 112, 112);stroke-linejoin:round;stroke-width:3px;"><g><path d="M 54.71875 50 L 162.5 50 "/><path d="M 54.71875 50 L 162.5 50 " class="clickable"/></g></g><g id="sprotty_ArchitectureBlockImpl$entropy_src_bucket_ht/GenerateStatementBlockImpl$gen_symbol_match/GPortImpl$bin_cntr_q_to_ArchitectureBlockImpl$entropy_src_bucket_ht/GenerateStatementBlockImpl$gen_symbol_match/AssignmentBlockImpl$bin_cntr_d/GPortImpl$bin_cntr_qIN" class="sprotty-edge thick edge" style="fill:none;stroke:rgb(112, 112, 112);stroke-linejoin:round;stroke-width:3px;"><g><path d="M 0 76 L 72.71875 76 C 73.71875 76 74.71875 77 74.71875 78 L 74.71875 94 C 74.71875 95 75.71875 96 76.71875 96 L 84.71875 96 "/><path d="M 0 76 L 72.71875 76 C 73.71875 76 74.71875 77 74.71875 78 L 74.71875 94 C 74.71875 95 75.71875 96 76.71875 96 L 84.71875 96 " class="clickable"/></g><circle r="3" id="sprotty_ArchitectureBlockImpl$entropy_src_bucket_ht/GenerateStatementBlockImpl$gen_symbol_match/GPortImpl$bin_cntr_q_to_ArchitectureBlockImpl$entropy_src_bucket_ht/GenerateStatementBlockImpl$gen_symbol_match/AssignmentBlockImpl$bin_cntr_d/GPortImpl$bin_cntr_qIN/junction0" transform="translate(74.71875, 76)" class="sprotty-junction thick" style="fill:rgb(112, 112, 112);stroke:none;"/></g><g id="sprotty_ArchitectureBlockImpl$entropy_src_bucket_ht/GenerateStatementBlockImpl$gen_symbol_match/GPortImpl$bin_cntr_q_to_ArchitectureBlockImpl$entropy_src_bucket_ht/GenerateStatementBlockImpl$gen_symbol_match/AssignmentBlockImpl$bin_cnt_exceeds_thresh/GPortImpl$bin_cntr_qIN" class="sprotty-edge thick edge" style="fill:none;stroke:rgb(112, 112, 112);stroke-linejoin:round;stroke-width:3px;"><g><path d="M 0 76 L 23 76 C 24 76 25 75 25 74 L 25 57 C 25 56 26 55 27 55 L 35 55 "/><path d="M 0 76 L 23 76 C 24 76 25 75 25 74 L 25 57 C 25 56 26 55 27 55 L 35 55 " class="clickable"/></g><circle r="3" id="sprotty_ArchitectureBlockImpl$entropy_src_bucket_ht/GenerateStatementBlockImpl$gen_symbol_match/GPortImpl$bin_cntr_q_to_ArchitectureBlockImpl$entropy_src_bucket_ht/GenerateStatementBlockImpl$gen_symbol_match/AssignmentBlockImpl$bin_cnt_exceeds_thresh/GPortImpl$bin_cntr_qIN/junction0" transform="translate(25, 76)" class="sprotty-junction thick" style="fill:rgb(112, 112, 112);stroke:none;"/></g><g id="sprotty_ArchitectureBlockImpl$entropy_src_bucket_ht/GenerateStatementBlockImpl$gen_symbol_match/AssignmentBlockImpl$bin_cntr_d/GPortImpl$bin_cntr_qOUT_to_ArchitectureBlockImpl$entropy_src_bucket_ht/GenerateStatementBlockImpl$gen_symbol_match/GPortImpl$bin_cntr_q" class="sprotty-edge thick edge" style="fill:none;stroke:rgb(112, 112, 112);stroke-linejoin:round;stroke-width:3px;"><g><path d="M 104.4375 111 L 112.4375 111 C 113.4375 111 114.4375 110 114.4375 109 L 114.4375 78 C 114.4375 77 113.4375 76 112.4375 76 L 0 76 "/><path d="M 104.4375 111 L 112.4375 111 C 113.4375 111 114.4375 110 114.4375 109 L 114.4375 78 C 114.4375 77 113.4375 76 112.4375 76 L 0 76 " class="clickable"/></g></g><g id="sprotty_ArchitectureBlockImpl$entropy_src_bucket_ht/GenerateStatementBlockImpl$gen_symbol_match/AssignmentBlockImpl$bin_incr/GPortImpl$bin_incrOUT_to_ArchitectureBlockImpl$entropy_src_bucket_ht/GenerateStatementBlockImpl$gen_symbol_match/AssignmentBlockImpl$bin_cntr_d/GPortImpl$bin_incrIN" class="sprotty-edge thick edge" style="fill:none;stroke:rgb(112, 112, 112);stroke-linejoin:round;stroke-width:3px;"><g><path d="M 54.71875 116 L 84.71875 116 "/><path d="M 54.71875 116 L 84.71875 116 " class="clickable"/></g></g><g id="sprotty_ArchitectureBlockImpl$entropy_src_bucket_ht/GenerateStatementBlockImpl$gen_symbol_match/AssignmentBlockImpl$bin_cnt_exceeds_thresh" transform="translate(35, 35)" class="statement"><rect x="0" y="0" rx="10" ry="5" width="19.71875" height="30" class="sprotty-node" style="fill:rgb(245, 245, 245);stroke:rgb(112, 112, 112);"/><text class="clickable sprotty-label statementtype" id="sprotty_ArchitectureBlockImpl$entropy_src_bucket_ht/GenerateStatementBlockImpl$gen_symbol_match/AssignmentBlockImpl$bin_cnt_exceeds_thresh/labeltype" transform="translate(5, 9) translate(4.71875, 9)" style="cursor:default;font-size:8px;font-weight:700;perspective-origin:0.140625px 0px;fill:rgb(112, 112, 112);text-anchor:middle;">&lt;=</text><g id="sprotty_ArchitectureBlockImpl$entropy_src_bucket_ht/GenerateStatementBlockImpl$gen_symbol_match/AssignmentBlockImpl$bin_cnt_exceeds_thresh/GPortImpl$thresh_iIN" transform="translate(0, 10)" class="sprotty-hidden hidden" style="display:block;height:0px;width:0px;"/><g id="sprotty_ArchitectureBlockImpl$entropy_src_bucket_ht/GenerateStatementBlockImpl$gen_symbol_match/AssignmentBlockImpl$bin_cnt_exceeds_thresh/GPortImpl$bin_cntr_qIN" transform="translate(0, 20)" class="sprotty-hidden hidden" style="display:block;height:0px;width:0px;"/><g id="sprotty_ArchitectureBlockImpl$entropy_src_bucket_ht/GenerateStatementBlockImpl$gen_symbol_match/AssignmentBlockImpl$bin_cnt_exceeds_thresh/GPortImpl$bin_cnt_exceeds_threshOUT" transform="translate(19.71875, 15)" class="sprotty-hidden hidden" style="display:block;height:0px;width:0px;"/></g><g id="sprotty_ArchitectureBlockImpl$entropy_src_bucket_ht/GenerateStatementBlockImpl$gen_symbol_match/AssignmentBlockImpl$bin_cntr_d" transform="translate(84.71875, 86)" class="statement"><rect x="0" y="0" rx="10" ry="5" width="19.71875" height="50" class="sprotty-node" style="fill:rgb(245, 245, 245);stroke:rgb(112, 112, 112);"/><text class="clickable sprotty-label statementtype" id="sprotty_ArchitectureBlockImpl$entropy_src_bucket_ht/GenerateStatementBlockImpl$gen_symbol_match/AssignmentBlockImpl$bin_cntr_d/labeltype" transform="translate(5, 19) translate(4.71875, 9)" style="cursor:default;font-size:8px;font-weight:700;perspective-origin:0.140625px 0px;fill:rgb(112, 112, 112);text-anchor:middle;">&lt;=</text><g id="sprotty_ArchitectureBlockImpl$entropy_src_bucket_ht/GenerateStatementBlockImpl$gen_symbol_match/AssignmentBlockImpl$bin_cntr_d/GPortImpl$bin_cntr_qIN" transform="translate(0, 10)" class="sprotty-hidden hidden" style="display:block;height:0px;width:0px;"/><g id="sprotty_ArchitectureBlockImpl$entropy_src_bucket_ht/GenerateStatementBlockImpl$gen_symbol_match/AssignmentBlockImpl$bin_cntr_d/GPortImpl$bin_incrIN" transform="translate(0, 30)" class="sprotty-hidden hidden" style="display:block;height:0px;width:0px;"/><g id="sprotty_ArchitectureBlockImpl$entropy_src_bucket_ht/GenerateStatementBlockImpl$gen_symbol_match/AssignmentBlockImpl$bin_cntr_d/GPortImpl$active_iIN" transform="translate(0, 20)" class="sprotty-hidden hidden" style="display:block;height:0px;width:0px;"/><g id="sprotty_ArchitectureBlockImpl$entropy_src_bucket_ht/GenerateStatementBlockImpl$gen_symbol_match/AssignmentBlockImpl$bin_cntr_d/GPortImpl$window_wrap_pulse_iIN" transform="translate(0, 40)" class="sprotty-hidden hidden" style="display:block;height:0px;width:0px;"/><g id="sprotty_ArchitectureBlockImpl$entropy_src_bucket_ht/GenerateStatementBlockImpl$gen_symbol_match/AssignmentBlockImpl$bin_cntr_d/GPortImpl$bin_cntr_qOUT" transform="translate(19.71875, 25)" class="sprotty-hidden hidden" style="display:block;height:0px;width:0px;"/></g><g id="sprotty_ArchitectureBlockImpl$entropy_src_bucket_ht/GenerateStatementBlockImpl$gen_symbol_match/AssignmentBlockImpl$bin_incr" transform="translate(35, 101)" class="statement"><rect x="0" y="0" rx="10" ry="5" width="19.71875" height="30" class="sprotty-node" style="fill:rgb(245, 245, 245);stroke:rgb(112, 112, 112);"/><text class="clickable sprotty-label statementtype" id="sprotty_ArchitectureBlockImpl$entropy_src_bucket_ht/GenerateStatementBlockImpl$gen_symbol_match/AssignmentBlockImpl$bin_incr/labeltype" transform="translate(5, 9) translate(4.71875, 9)" style="cursor:default;font-size:8px;font-weight:700;perspective-origin:0.140625px 0px;fill:rgb(112, 112, 112);text-anchor:middle;">&lt;=</text><g id="sprotty_ArchitectureBlockImpl$entropy_src_bucket_ht/GenerateStatementBlockImpl$gen_symbol_match/AssignmentBlockImpl$bin_incr/GPortImpl$entropy_bit_iIN" transform="translate(0, 10)" class="sprotty-hidden hidden" style="display:block;height:0px;width:0px;"/><g id="sprotty_ArchitectureBlockImpl$entropy_src_bucket_ht/GenerateStatementBlockImpl$gen_symbol_match/AssignmentBlockImpl$bin_incr/GPortImpl$entropy_bit_vld_iIN" transform="translate(0, 20)" class="sprotty-hidden hidden" style="display:block;height:0px;width:0px;"/><g id="sprotty_ArchitectureBlockImpl$entropy_src_bucket_ht/GenerateStatementBlockImpl$gen_symbol_match/AssignmentBlockImpl$bin_incr/GPortImpl$bin_incrOUT" transform="translate(19.71875, 15)" class="sprotty-hidden hidden" style="display:block;height:0px;width:0px;"/></g><g id="sprotty_ArchitectureBlockImpl$entropy_src_bucket_ht/GenerateStatementBlockImpl$gen_symbol_match/GPortImpl$bin_cntr_q" transform="translate(0, 76)" class="triangle"><path d="M 0,0 L 5,2.5 L 0,5 Z" transform="translate(-1.67, -2.5)" class="sprotty-port" style="fill:rgb(48, 48, 48);stroke:rgb(48, 48, 48);"/></g><g id="sprotty_ArchitectureBlockImpl$entropy_src_bucket_ht/GenerateStatementBlockImpl$gen_symbol_match/GPortImpl$thresh_i" transform="translate(0, 45)" class="triangle"><path d="M 0,0 L 5,2.5 L 0,5 Z" transform="translate(-1.67, -2.5)" class="sprotty-port" style="fill:rgb(48, 48, 48);stroke:rgb(48, 48, 48);"/></g><g id="sprotty_ArchitectureBlockImpl$entropy_src_bucket_ht/GenerateStatementBlockImpl$gen_symbol_match/GPortImpl$active_i" transform="translate(0, 89)" class="triangle"><path d="M 0,0 L 5,2.5 L 0,5 Z" transform="translate(-1.67, -2.5)" class="sprotty-port" style="fill:rgb(48, 48, 48);stroke:rgb(48, 48, 48);"/></g><g id="sprotty_ArchitectureBlockImpl$entropy_src_bucket_ht/GenerateStatementBlockImpl$gen_symbol_match/GPortImpl$window_wrap_pulse_i" transform="translate(0, 142)" class="triangle"><path d="M 0,0 L 5,2.5 L 0,5 Z" transform="translate(-1.67, -2.5)" class="sprotty-port" style="fill:rgb(48, 48, 48);stroke:rgb(48, 48, 48);"/></g><g id="sprotty_ArchitectureBlockImpl$entropy_src_bucket_ht/GenerateStatementBlockImpl$gen_symbol_match/GPortImpl$entropy_bit_i" transform="translate(0, 111)" class="triangle"><path d="M 0,0 L 5,2.5 L 0,5 Z" transform="translate(-1.67, -2.5)" class="sprotty-port" style="fill:rgb(48, 48, 48);stroke:rgb(48, 48, 48);"/></g><g id="sprotty_ArchitectureBlockImpl$entropy_src_bucket_ht/GenerateStatementBlockImpl$gen_symbol_match/GPortImpl$entropy_bit_vld_i" transform="translate(0, 121)" class="triangle"><path d="M 0,0 L 5,2.5 L 0,5 Z" transform="translate(-1.67, -2.5)" class="sprotty-port" style="fill:rgb(48, 48, 48);stroke:rgb(48, 48, 48);"/></g><g id="sprotty_ArchitectureBlockImpl$entropy_src_bucket_ht/GenerateStatementBlockImpl$gen_symbol_match/GPortImpl$bin_cnt_exceeds_thresh" transform="translate(162.5, 50)" class="triangle"><path d="M 0,0 L 5,2.5 L 0,5 Z" transform="translate(-1.67, -2.5)" class="sprotty-port" style="fill:rgb(48, 48, 48);stroke:rgb(48, 48, 48);"/></g></g><g id="sprotty_ArchitectureBlockImpl$entropy_src_bucket_ht/AlwaysBlockImpl$null11" transform="translate(439.78125, 110)" class="statement"><rect x="0" y="0" rx="10" ry="5" width="48.890625" height="50" class="sprotty-node" style="fill:rgb(245, 245, 245);stroke:rgb(112, 112, 112);"/><text class="clickable sprotty-label statementtype" id="sprotty_ArchitectureBlockImpl$entropy_src_bucket_ht/AlwaysBlockImpl$null11/labeltype" transform="translate(5, 19) translate(18.828125, 9)" style="cursor:default;font-size:8px;font-weight:700;perspective-origin:0.609375px 0px;fill:rgb(112, 112, 112);text-anchor:middle;">always_ff</text><g id="sprotty_ArchitectureBlockImpl$entropy_src_bucket_ht/AlwaysBlockImpl$null11/GPortImpl$bin_cntr_dIN" transform="translate(0, 10)" class="sprotty-hidden hidden" style="display:block;height:0px;width:0px;"/><g id="sprotty_ArchitectureBlockImpl$entropy_src_bucket_ht/AlwaysBlockImpl$null11/GPortImpl$test_cnt_dIN" transform="translate(0, 20)" class="sprotty-hidden hidden" style="display:block;height:0px;width:0px;"/><g id="sprotty_ArchitectureBlockImpl$entropy_src_bucket_ht/AlwaysBlockImpl$null11/GPortImpl$rst_niIN" transform="translate(0, 30)" class="sprotty-hidden hidden" style="display:block;height:0px;width:0px;"/><g id="sprotty_ArchitectureBlockImpl$entropy_src_bucket_ht/AlwaysBlockImpl$null11/GPortImpl$clk_iIN" transform="translate(0, 40)" class="sprotty-hidden hidden" style="display:block;height:0px;width:0px;"/><g id="sprotty_ArchitectureBlockImpl$entropy_src_bucket_ht/AlwaysBlockImpl$null11/GPortImpl$test_cnt_qOUT" transform="translate(48.890625, 33.333333333333336)" class="sprotty-hidden hidden" style="display:block;height:0px;width:0px;"/><g id="sprotty_ArchitectureBlockImpl$entropy_src_bucket_ht/AlwaysBlockImpl$null11/GPortImpl$bin_cntr_qOUT" transform="translate(48.890625, 16.666666666666668)" class="sprotty-hidden hidden" style="display:block;height:0px;width:0px;"/></g><g id="sprotty_ArchitectureBlockImpl$entropy_src_bucket_ht/AssignmentBlockImpl$test_cnt_o" transform="translate(528.671875, 132.33333333333334)" class="statement"><rect x="0" y="0" rx="10" ry="5" width="19.71875" height="22" class="sprotty-node" style="fill:rgb(245, 245, 245);stroke:rgb(112, 112, 112);"/><text class="clickable sprotty-label statementtype" id="sprotty_ArchitectureBlockImpl$entropy_src_bucket_ht/AssignmentBlockImpl$test_cnt_o/labeltype" transform="translate(5, 5) translate(4.71875, 9)" style="cursor:default;font-size:8px;font-weight:700;perspective-origin:0.140625px 0px;fill:rgb(112, 112, 112);text-anchor:middle;">&lt;=</text><g id="sprotty_ArchitectureBlockImpl$entropy_src_bucket_ht/AssignmentBlockImpl$test_cnt_o/GPortImpl$test_cnt_qIN" transform="translate(0, 11)" class="sprotty-hidden hidden" style="display:block;height:0px;width:0px;"/><g id="sprotty_ArchitectureBlockImpl$entropy_src_bucket_ht/AssignmentBlockImpl$test_cnt_o/GPortImpl$test_cnt_oOUT" transform="translate(19.71875, 11)" class="sprotty-hidden hidden" style="display:block;height:0px;width:0px;"/></g><g id="sprotty_ArchitectureBlockImpl$entropy_src_bucket_ht/AssignmentBlockImpl$test_fail_pulse_o" transform="translate(528.671875, 35)" class="statement"><rect x="0" y="0" rx="10" ry="5" width="19.71875" height="40" class="sprotty-node" style="fill:rgb(245, 245, 245);stroke:rgb(112, 112, 112);"/><text class="clickable sprotty-label statementtype" id="sprotty_ArchitectureBlockImpl$entropy_src_bucket_ht/AssignmentBlockImpl$test_fail_pulse_o/labeltype" transform="translate(5, 14) translate(4.71875, 9)" style="cursor:default;font-size:8px;font-weight:700;perspective-origin:0.140625px 0px;fill:rgb(112, 112, 112);text-anchor:middle;">&lt;=</text><g id="sprotty_ArchitectureBlockImpl$entropy_src_bucket_ht/AssignmentBlockImpl$test_fail_pulse_o/GPortImpl$test_cnt_qIN" transform="translate(0, 20)" class="sprotty-hidden hidden" style="display:block;height:0px;width:0px;"/><g id="sprotty_ArchitectureBlockImpl$entropy_src_bucket_ht/AssignmentBlockImpl$test_fail_pulse_o/GPortImpl$window_wrap_pulse_iIN" transform="translate(0, 30)" class="sprotty-hidden hidden" style="display:block;height:0px;width:0px;"/><g id="sprotty_ArchitectureBlockImpl$entropy_src_bucket_ht/AssignmentBlockImpl$test_fail_pulse_o/GPortImpl$active_iIN" transform="translate(0, 10)" class="sprotty-hidden hidden" style="display:block;height:0px;width:0px;"/><g id="sprotty_ArchitectureBlockImpl$entropy_src_bucket_ht/AssignmentBlockImpl$test_fail_pulse_o/GPortImpl$test_fail_pulse_oOUT" transform="translate(19.71875, 20)" class="sprotty-hidden hidden" style="display:block;height:0px;width:0px;"/></g><g id="sprotty_ArchitectureBlockImpl$entropy_src_bucket_ht/AssignmentBlockImpl$test_cnt_d" transform="translate(390.0625, 95)" class="statement"><rect x="0" y="0" rx="10" ry="5" width="19.71875" height="70" class="sprotty-node" style="fill:rgb(245, 245, 245);stroke:rgb(112, 112, 112);"/><text class="clickable sprotty-label statementtype" id="sprotty_ArchitectureBlockImpl$entropy_src_bucket_ht/AssignmentBlockImpl$test_cnt_d/labeltype" transform="translate(5, 29) translate(4.71875, 9)" style="cursor:default;font-size:8px;font-weight:700;perspective-origin:0.140625px 0px;fill:rgb(112, 112, 112);text-anchor:middle;">&lt;=</text><g id="sprotty_ArchitectureBlockImpl$entropy_src_bucket_ht/AssignmentBlockImpl$test_cnt_d/GPortImpl$test_cnt_qIN" transform="translate(0, 60)" class="sprotty-hidden hidden" style="display:block;height:0px;width:0px;"/><g id="sprotty_ArchitectureBlockImpl$entropy_src_bucket_ht/AssignmentBlockImpl$test_cnt_d/GPortImpl$bin_cnt_exceeds_threshIN" transform="translate(0, 20)" class="sprotty-hidden hidden" style="display:block;height:0px;width:0px;"/><g id="sprotty_ArchitectureBlockImpl$entropy_src_bucket_ht/AssignmentBlockImpl$test_cnt_d/GPortImpl$entropy_bit_vld_iIN" transform="translate(0, 30)" class="sprotty-hidden hidden" style="display:block;height:0px;width:0px;"/><g id="sprotty_ArchitectureBlockImpl$entropy_src_bucket_ht/AssignmentBlockImpl$test_cnt_d/GPortImpl$window_wrap_pulse_iIN" transform="translate(0, 40)" class="sprotty-hidden hidden" style="display:block;height:0px;width:0px;"/><g id="sprotty_ArchitectureBlockImpl$entropy_src_bucket_ht/AssignmentBlockImpl$test_cnt_d/GPortImpl$clear_iIN" transform="translate(0, 50)" class="sprotty-hidden hidden" style="display:block;height:0px;width:0px;"/><g id="sprotty_ArchitectureBlockImpl$entropy_src_bucket_ht/AssignmentBlockImpl$test_cnt_d/GPortImpl$active_iIN" transform="translate(0, 10)" class="sprotty-hidden hidden" style="display:block;height:0px;width:0px;"/><g id="sprotty_ArchitectureBlockImpl$entropy_src_bucket_ht/AssignmentBlockImpl$test_cnt_d/GPortImpl$test_cnt_qOUT" transform="translate(19.71875, 35)" class="sprotty-hidden hidden" style="display:block;height:0px;width:0px;"/></g><g id="sprotty_ArchitectureBlockImpl$entropy_src_bucket_ht/BPortImpl$window_wrap_pulse_i" transform="translate(0, 269)" class="triangle"><path d="M 0,0 L 5,2.5 L 0,5 Z" transform="translate(-1.67, -2.5)" class="sprotty-port" style="fill:rgb(48, 48, 48);stroke:rgb(48, 48, 48);"/><text class="clickable sprotty-label port" id="sprotty_ArchitectureBlockImpl$entropy_src_bucket_ht/BPortImpl$window_wrap_pulse_i/label" transform="translate(6, 6) translate(63.28125, 14)" style="cursor:default;font-size:12px;perspective-origin:0px 0px;fill:rgb(48, 48, 48);text-anchor:middle;">window_wrap_pulse_i</text></g><g id="sprotty_ArchitectureBlockImpl$entropy_src_bucket_ht/BPortImpl$thresh_i" transform="translate(0, 110)" class="triangle"><path d="M 0,0 L 5,2.5 L 0,5 Z" transform="translate(-1.67, -2.5)" class="sprotty-port" style="fill:rgb(48, 48, 48);stroke:rgb(48, 48, 48);"/><text class="clickable sprotty-label port" id="sprotty_ArchitectureBlockImpl$entropy_src_bucket_ht/BPortImpl$thresh_i/label" transform="translate(6, 6) translate(22.953125, 14)" style="cursor:default;font-size:12px;perspective-origin:0px 0px;fill:rgb(48, 48, 48);text-anchor:middle;">thresh_i</text></g><g id="sprotty_ArchitectureBlockImpl$entropy_src_bucket_ht/BPortImpl$active_i" transform="translate(0, 45)" class="triangle"><path d="M 0,0 L 5,2.5 L 0,5 Z" transform="translate(-1.67, -2.5)" class="sprotty-port" style="fill:rgb(48, 48, 48);stroke:rgb(48, 48, 48);"/><text class="clickable sprotty-label port" id="sprotty_ArchitectureBlockImpl$entropy_src_bucket_ht/BPortImpl$active_i/label" transform="translate(6, 6) translate(21.71875, 14)" style="cursor:default;font-size:12px;perspective-origin:0px 0px;fill:rgb(48, 48, 48);text-anchor:middle;">active_i</text></g><g id="sprotty_ArchitectureBlockImpl$entropy_src_bucket_ht/BPortImpl$clear_i" transform="translate(0, 303)" class="triangle"><path d="M 0,0 L 5,2.5 L 0,5 Z" transform="translate(-1.67, -2.5)" class="sprotty-port" style="fill:rgb(48, 48, 48);stroke:rgb(48, 48, 48);"/><text class="clickable sprotty-label port" id="sprotty_ArchitectureBlockImpl$entropy_src_bucket_ht/BPortImpl$clear_i/label" transform="translate(6, 6) translate(18.71875, 14)" style="cursor:default;font-size:12px;perspective-origin:0px 0px;fill:rgb(48, 48, 48);text-anchor:middle;">clear_i</text></g><g id="sprotty_ArchitectureBlockImpl$entropy_src_bucket_ht/BPortImpl$entropy_bit_vld_i" transform="translate(0, 235)" class="triangle"><path d="M 0,0 L 5,2.5 L 0,5 Z" transform="translate(-1.67, -2.5)" class="sprotty-port" style="fill:rgb(48, 48, 48);stroke:rgb(48, 48, 48);"/><text class="clickable sprotty-label port" id="sprotty_ArchitectureBlockImpl$entropy_src_bucket_ht/BPortImpl$entropy_bit_vld_i/label" transform="translate(6, 6) translate(49.875, 14)" style="cursor:default;font-size:12px;perspective-origin:0px 0px;fill:rgb(48, 48, 48);text-anchor:middle;">entropy_bit_vld_i</text></g><g id="sprotty_ArchitectureBlockImpl$entropy_src_bucket_ht/BPortImpl$entropy_bit_i" transform="translate(0, 176)" class="triangle"><path d="M 0,0 L 5,2.5 L 0,5 Z" transform="translate(-1.67, -2.5)" class="sprotty-port" style="fill:rgb(48, 48, 48);stroke:rgb(48, 48, 48);"/><text class="clickable sprotty-label port" id="sprotty_ArchitectureBlockImpl$entropy_src_bucket_ht/BPortImpl$entropy_bit_i/label" transform="translate(6, 6) translate(37.953125, 14)" style="cursor:default;font-size:12px;perspective-origin:0px 0px;fill:rgb(48, 48, 48);text-anchor:middle;">entropy_bit_i</text></g><g id="sprotty_ArchitectureBlockImpl$entropy_src_bucket_ht/BPortImpl$rst_ni" transform="translate(0, 337)" class="triangle"><path d="M 0,0 L 5,2.5 L 0,5 Z" transform="translate(-1.67, -2.5)" class="sprotty-port" style="fill:rgb(48, 48, 48);stroke:rgb(48, 48, 48);"/><text class="clickable sprotty-label port" id="sprotty_ArchitectureBlockImpl$entropy_src_bucket_ht/BPortImpl$rst_ni/label" transform="translate(6, 6) translate(15.921875, 14)" style="cursor:default;font-size:12px;perspective-origin:0px 0px;fill:rgb(48, 48, 48);text-anchor:middle;">rst_ni</text></g><g id="sprotty_ArchitectureBlockImpl$entropy_src_bucket_ht/BPortImpl$clk_i" transform="translate(0, 371)" class="triangle"><path d="M 0,0 L 5,2.5 L 0,5 Z" transform="translate(-1.67, -2.5)" class="sprotty-port" style="fill:rgb(48, 48, 48);stroke:rgb(48, 48, 48);"/><text class="clickable sprotty-label port" id="sprotty_ArchitectureBlockImpl$entropy_src_bucket_ht/BPortImpl$clk_i/label" transform="translate(6, 6) translate(13.09375, 14)" style="cursor:default;font-size:12px;perspective-origin:0px 0px;fill:rgb(48, 48, 48);text-anchor:middle;">clk_i</text></g><g id="sprotty_ArchitectureBlockImpl$entropy_src_bucket_ht/BPortImpl$test_cnt_o" transform="translate(665.203125, 143.33333333333334)" class="triangle"><path d="M 0,0 L 5,2.5 L 0,5 Z" transform="translate(-1.67, -2.5)" class="sprotty-port" style="fill:rgb(48, 48, 48);stroke:rgb(48, 48, 48);"/><text class="clickable sprotty-label port" id="sprotty_ArchitectureBlockImpl$entropy_src_bucket_ht/BPortImpl$test_cnt_o/label" transform="translate(-65.53125, 6) translate(29.765625, 14)" style="cursor:default;font-size:12px;perspective-origin:0px 0px;fill:rgb(48, 48, 48);text-anchor:middle;">test_cnt_o</text></g><g id="sprotty_ArchitectureBlockImpl$entropy_src_bucket_ht/BPortImpl$test_fail_pulse_o" transform="translate(665.203125, 55)" class="triangle"><path d="M 0,0 L 5,2.5 L 0,5 Z" transform="translate(-1.67, -2.5)" class="sprotty-port" style="fill:rgb(48, 48, 48);stroke:rgb(48, 48, 48);"/><text class="clickable sprotty-label port" id="sprotty_ArchitectureBlockImpl$entropy_src_bucket_ht/BPortImpl$test_fail_pulse_o/label" transform="translate(-101.8125, 6) translate(47.90625, 14)" style="cursor:default;font-size:12px;perspective-origin:0px 0px;fill:rgb(48, 48, 48);text-anchor:middle;">test_fail_pulse_o</text></g></g></g></svg>