<svg xmlns="http://www.w3.org/2000/svg" id="sprotty_work.entropy_src_cntr_reg" class="sprotty-graph sprotty-block-diagram blockdiagram" style="font-family:&quot;Noto Sans&quot;, Helvetica, Arial, sans-serif;perspective-origin:0px 0px;transform-origin:0px 0px;" version="1.1" viewBox="7 7 288.140625 221" width="288.140625" height="221"><g transform="scale(1) translate(0,0)"><g id="sprotty_ArchitectureBlockImpl$entropy_src_cntr_reg" transform="translate(12, 12)" class="architecture"><g class="sprotty-block" style="fill:rgb(255, 255, 255);stroke:rgb(48, 48, 48);stroke-dasharray:0px;"><rect x="0" y="0" rx="1" ry="1" width="278.140625" height="211"/><text x="139.0703125" y="12" class="sprotty-block-name" style="cursor:pointer;font-weight:700;perspective-origin:139.297px 0px;fill:rgb(48, 48, 48);stroke:rgba(0, 0, 0, 0);dominant-baseline:middle;text-anchor:middle;">entropy_src_cntr_reg</text><line x1="0" y1="20" x2="278.140625" y2="20"/></g><g id="sprotty_ArchitectureBlockImpl$entropy_src_cntr_reg/AssignmentBlockImpl$value_o/GPortImpl$value_oOUT_to_ArchitectureBlockImpl$entropy_src_cntr_reg/BPortImpl$value_o" class="sprotty-edge thick edge" style="fill:none;stroke:rgb(112, 112, 112);stroke-linejoin:round;stroke-width:3px;"><g><path d="M 193.046875 148 L 278.140625 148 "/><path d="M 193.046875 148 L 278.140625 148 " class="clickable"/></g></g><g id="sprotty_ArchitectureBlockImpl$entropy_src_cntr_reg/BPortImpl$active_i_to_ArchitectureBlockImpl$entropy_src_cntr_reg/AssignmentBlockImpl$event_cntr_d/GPortImpl$active_iIN" class="sprotty-edge edge" style="fill:none;stroke:rgb(112, 112, 112);stroke-linejoin:round;"><g><path d="M 0 36 L 151.328125 36 C 152.328125 36 153.328125 37 153.328125 38 L 153.328125 58 C 153.328125 59 154.328125 60 155.328125 60 L 173.328125 60 "/><path d="M 0 36 L 151.328125 36 C 152.328125 36 153.328125 37 153.328125 38 L 153.328125 58 C 153.328125 59 154.328125 60 155.328125 60 L 173.328125 60 " class="clickable"/></g></g><g id="sprotty_ArchitectureBlockImpl$entropy_src_cntr_reg/BPortImpl$clear_i_to_ArchitectureBlockImpl$entropy_src_cntr_reg/AssignmentBlockImpl$event_cntr_d/GPortImpl$clear_iIN" class="sprotty-edge edge" style="fill:none;stroke:rgb(112, 112, 112);stroke-linejoin:round;"><g><path d="M 0 104 L 151.328125 104 C 152.328125 104 153.328125 103 153.328125 102 L 153.328125 82 C 153.328125 81 154.328125 80 155.328125 80 L 173.328125 80 "/><path d="M 0 104 L 151.328125 104 C 152.328125 104 153.328125 103 153.328125 102 L 153.328125 82 C 153.328125 81 154.328125 80 155.328125 80 L 173.328125 80 " class="clickable"/></g></g><g id="sprotty_ArchitectureBlockImpl$entropy_src_cntr_reg/BPortImpl$event_i_to_ArchitectureBlockImpl$entropy_src_cntr_reg/AssignmentBlockImpl$event_cntr_d/GPortImpl$event_iIN" class="sprotty-edge edge" style="fill:none;stroke:rgb(112, 112, 112);stroke-linejoin:round;"><g><path d="M 0 70 L 173.328125 70 "/><path d="M 0 70 L 173.328125 70 " class="clickable"/></g></g><g id="sprotty_ArchitectureBlockImpl$entropy_src_cntr_reg/BPortImpl$clk_i_to_ArchitectureBlockImpl$entropy_src_cntr_reg/AlwaysBlockImpl$null6/GPortImpl$clk_iIN" class="sprotty-edge edge" style="fill:none;stroke:rgb(112, 112, 112);stroke-linejoin:round;"><g><path d="M 0 138 L 94.4375 138 "/><path d="M 0 138 L 94.4375 138 " class="clickable"/></g></g><g id="sprotty_ArchitectureBlockImpl$entropy_src_cntr_reg/BPortImpl$rst_ni_to_ArchitectureBlockImpl$entropy_src_cntr_reg/AlwaysBlockImpl$null6/GPortImpl$rst_niIN" class="sprotty-edge edge" style="fill:none;stroke:rgb(112, 112, 112);stroke-linejoin:round;"><g><path d="M 0 172 L 72.4375 172 C 73.4375 172 74.4375 171 74.4375 170 L 74.4375 150 C 74.4375 149 75.4375 148 76.4375 148 L 94.4375 148 "/><path d="M 0 172 L 72.4375 172 C 73.4375 172 74.4375 171 74.4375 170 L 74.4375 150 C 74.4375 149 75.4375 148 76.4375 148 L 94.4375 148 " class="clickable"/></g></g><g id="sprotty_ArchitectureBlockImpl$entropy_src_cntr_reg/AlwaysBlockImpl$null6/GPortImpl$event_cntr_qOUT_to_ArchitectureBlockImpl$entropy_src_cntr_reg/AssignmentBlockImpl$event_cntr_d/GPortImpl$event_cntr_qIN" class="sprotty-edge thick edge" style="fill:none;stroke:rgb(112, 112, 112);stroke-linejoin:round;stroke-width:3px;"><g><path d="M 143.328125 148 L 161.328125 148 C 162.328125 148 163.328125 147 163.328125 146 L 163.328125 92 C 163.328125 91 164.328125 90 165.328125 90 L 173.328125 90 "/><path d="M 143.328125 148 L 161.328125 148 C 162.328125 148 163.328125 147 163.328125 146 L 163.328125 92 C 163.328125 91 164.328125 90 165.328125 90 L 173.328125 90 " class="clickable"/></g><circle r="3" id="sprotty_ArchitectureBlockImpl$entropy_src_cntr_reg/AlwaysBlockImpl$null6/GPortImpl$event_cntr_qOUT_to_ArchitectureBlockImpl$entropy_src_cntr_reg/AssignmentBlockImpl$event_cntr_d/GPortImpl$event_cntr_qIN/junction0" transform="translate(163.328125, 148)" class="sprotty-junction thick" style="fill:rgb(112, 112, 112);stroke:none;"/></g><g id="sprotty_ArchitectureBlockImpl$entropy_src_cntr_reg/AlwaysBlockImpl$null6/GPortImpl$event_cntr_qOUT_to_ArchitectureBlockImpl$entropy_src_cntr_reg/AssignmentBlockImpl$value_o/GPortImpl$event_cntr_qIN" class="sprotty-edge thick edge" style="fill:none;stroke:rgb(112, 112, 112);stroke-linejoin:round;stroke-width:3px;"><g><path d="M 143.328125 148 L 173.328125 148 "/><path d="M 143.328125 148 L 173.328125 148 " class="clickable"/></g></g><g id="sprotty_ArchitectureBlockImpl$entropy_src_cntr_reg/AssignmentBlockImpl$event_cntr_d/GPortImpl$event_cntr_qOUT_to_ArchitectureBlockImpl$entropy_src_cntr_reg/AlwaysBlockImpl$null6/GPortImpl$event_cntr_dIN" class="sprotty-edge thick edge" style="fill:none;stroke:rgb(112, 112, 112);stroke-linejoin:round;stroke-width:3px;"><g><path d="M 193.046875 75 L 201.046875 75 C 202.046875 75 203.046875 76 203.046875 77 L 203.046875 176 C 203.046875 177 202.046875 178 201.046875 178 L 86.4375 178 C 85.4375 178 84.4375 177 84.4375 176 L 84.4375 160 C 84.4375 159 85.4375 158 86.4375 158 L 94.4375 158 "/><path d="M 193.046875 75 L 201.046875 75 C 202.046875 75 203.046875 76 203.046875 77 L 203.046875 176 C 203.046875 177 202.046875 178 201.046875 178 L 86.4375 178 C 85.4375 178 84.4375 177 84.4375 176 L 84.4375 160 C 84.4375 159 85.4375 158 86.4375 158 L 94.4375 158 " class="clickable"/></g></g><g id="sprotty_ArchitectureBlockImpl$entropy_src_cntr_reg/AlwaysBlockImpl$null6" transform="translate(94.4375, 128)" class="statement"><rect x="0" y="0" rx="10" ry="5" width="48.890625" height="40" class="sprotty-node" style="fill:rgb(245, 245, 245);stroke:rgb(112, 112, 112);"/><text class="clickable sprotty-label statementtype" id="sprotty_ArchitectureBlockImpl$entropy_src_cntr_reg/AlwaysBlockImpl$null6/labeltype" transform="translate(5, 14) translate(18.828125, 9)" style="cursor:default;font-size:8px;font-weight:700;perspective-origin:0.609375px 0px;fill:rgb(112, 112, 112);text-anchor:middle;">always_ff</text><g id="sprotty_ArchitectureBlockImpl$entropy_src_cntr_reg/AlwaysBlockImpl$null6/GPortImpl$event_cntr_dIN" transform="translate(0, 30)" class="sprotty-hidden hidden" style="display:block;height:0px;width:0px;"/><g id="sprotty_ArchitectureBlockImpl$entropy_src_cntr_reg/AlwaysBlockImpl$null6/GPortImpl$rst_niIN" transform="translate(0, 20)" class="sprotty-hidden hidden" style="display:block;height:0px;width:0px;"/><g id="sprotty_ArchitectureBlockImpl$entropy_src_cntr_reg/AlwaysBlockImpl$null6/GPortImpl$clk_iIN" transform="translate(0, 10)" class="sprotty-hidden hidden" style="display:block;height:0px;width:0px;"/><g id="sprotty_ArchitectureBlockImpl$entropy_src_cntr_reg/AlwaysBlockImpl$null6/GPortImpl$event_cntr_qOUT" transform="translate(48.890625, 20)" class="sprotty-hidden hidden" style="display:block;height:0px;width:0px;"/></g><g id="sprotty_ArchitectureBlockImpl$entropy_src_cntr_reg/AssignmentBlockImpl$value_o" transform="translate(173.328125, 137)" class="statement"><rect x="0" y="0" rx="10" ry="5" width="19.71875" height="22" class="sprotty-node" style="fill:rgb(245, 245, 245);stroke:rgb(112, 112, 112);"/><text class="clickable sprotty-label statementtype" id="sprotty_ArchitectureBlockImpl$entropy_src_cntr_reg/AssignmentBlockImpl$value_o/labeltype" transform="translate(5, 5) translate(4.71875, 9)" style="cursor:default;font-size:8px;font-weight:700;perspective-origin:0.140625px 0px;fill:rgb(112, 112, 112);text-anchor:middle;">&lt;=</text><g id="sprotty_ArchitectureBlockImpl$entropy_src_cntr_reg/AssignmentBlockImpl$value_o/GPortImpl$event_cntr_qIN" transform="translate(0, 11)" class="sprotty-hidden hidden" style="display:block;height:0px;width:0px;"/><g id="sprotty_ArchitectureBlockImpl$entropy_src_cntr_reg/AssignmentBlockImpl$value_o/GPortImpl$value_oOUT" transform="translate(19.71875, 11)" class="sprotty-hidden hidden" style="display:block;height:0px;width:0px;"/></g><g id="sprotty_ArchitectureBlockImpl$entropy_src_cntr_reg/AssignmentBlockImpl$event_cntr_d" transform="translate(173.328125, 50)" class="statement"><rect x="0" y="0" rx="10" ry="5" width="19.71875" height="50" class="sprotty-node" style="fill:rgb(245, 245, 245);stroke:rgb(112, 112, 112);"/><text class="clickable sprotty-label statementtype" id="sprotty_ArchitectureBlockImpl$entropy_src_cntr_reg/AssignmentBlockImpl$event_cntr_d/labeltype" transform="translate(5, 19) translate(4.71875, 9)" style="cursor:default;font-size:8px;font-weight:700;perspective-origin:0.140625px 0px;fill:rgb(112, 112, 112);text-anchor:middle;">&lt;=</text><g id="sprotty_ArchitectureBlockImpl$entropy_src_cntr_reg/AssignmentBlockImpl$event_cntr_d/GPortImpl$event_cntr_qIN" transform="translate(0, 40)" class="sprotty-hidden hidden" style="display:block;height:0px;width:0px;"/><g id="sprotty_ArchitectureBlockImpl$entropy_src_cntr_reg/AssignmentBlockImpl$event_cntr_d/GPortImpl$event_iIN" transform="translate(0, 20)" class="sprotty-hidden hidden" style="display:block;height:0px;width:0px;"/><g id="sprotty_ArchitectureBlockImpl$entropy_src_cntr_reg/AssignmentBlockImpl$event_cntr_d/GPortImpl$clear_iIN" transform="translate(0, 30)" class="sprotty-hidden hidden" style="display:block;height:0px;width:0px;"/><g id="sprotty_ArchitectureBlockImpl$entropy_src_cntr_reg/AssignmentBlockImpl$event_cntr_d/GPortImpl$active_iIN" transform="translate(0, 10)" class="sprotty-hidden hidden" style="display:block;height:0px;width:0px;"/><g id="sprotty_ArchitectureBlockImpl$entropy_src_cntr_reg/AssignmentBlockImpl$event_cntr_d/GPortImpl$event_cntr_qOUT" transform="translate(19.71875, 25)" class="sprotty-hidden hidden" style="display:block;height:0px;width:0px;"/></g><g id="sprotty_ArchitectureBlockImpl$entropy_src_cntr_reg/BPortImpl$event_i" transform="translate(0, 70)" class="triangle"><path d="M 0,0 L 5,2.5 L 0,5 Z" transform="translate(-1.67, -2.5)" class="sprotty-port" style="fill:rgb(48, 48, 48);stroke:rgb(48, 48, 48);"/><text class="clickable sprotty-label port" id="sprotty_ArchitectureBlockImpl$entropy_src_cntr_reg/BPortImpl$event_i/label" transform="translate(6, 6) translate(20.71875, 14)" style="cursor:default;font-size:12px;perspective-origin:0px 0px;fill:rgb(48, 48, 48);text-anchor:middle;">event_i</text></g><g id="sprotty_ArchitectureBlockImpl$entropy_src_cntr_reg/BPortImpl$active_i" transform="translate(0, 36)" class="triangle"><path d="M 0,0 L 5,2.5 L 0,5 Z" transform="translate(-1.67, -2.5)" class="sprotty-port" style="fill:rgb(48, 48, 48);stroke:rgb(48, 48, 48);"/><text class="clickable sprotty-label port" id="sprotty_ArchitectureBlockImpl$entropy_src_cntr_reg/BPortImpl$active_i/label" transform="translate(6, 6) translate(21.71875, 14)" style="cursor:default;font-size:12px;perspective-origin:0px 0px;fill:rgb(48, 48, 48);text-anchor:middle;">active_i</text></g><g id="sprotty_ArchitectureBlockImpl$entropy_src_cntr_reg/BPortImpl$clear_i" transform="translate(0, 104)" class="triangle"><path d="M 0,0 L 5,2.5 L 0,5 Z" transform="translate(-1.67, -2.5)" class="sprotty-port" style="fill:rgb(48, 48, 48);stroke:rgb(48, 48, 48);"/><text class="clickable sprotty-label port" id="sprotty_ArchitectureBlockImpl$entropy_src_cntr_reg/BPortImpl$clear_i/label" transform="translate(6, 6) translate(18.71875, 14)" style="cursor:default;font-size:12px;perspective-origin:0px 0px;fill:rgb(48, 48, 48);text-anchor:middle;">clear_i</text></g><g id="sprotty_ArchitectureBlockImpl$entropy_src_cntr_reg/BPortImpl$rst_ni" transform="translate(0, 172)" class="triangle"><path d="M 0,0 L 5,2.5 L 0,5 Z" transform="translate(-1.67, -2.5)" class="sprotty-port" style="fill:rgb(48, 48, 48);stroke:rgb(48, 48, 48);"/><text class="clickable sprotty-label port" id="sprotty_ArchitectureBlockImpl$entropy_src_cntr_reg/BPortImpl$rst_ni/label" transform="translate(6, 6) translate(15.921875, 14)" style="cursor:default;font-size:12px;perspective-origin:0px 0px;fill:rgb(48, 48, 48);text-anchor:middle;">rst_ni</text></g><g id="sprotty_ArchitectureBlockImpl$entropy_src_cntr_reg/BPortImpl$clk_i" transform="translate(0, 138)" class="triangle"><path d="M 0,0 L 5,2.5 L 0,5 Z" transform="translate(-1.67, -2.5)" class="sprotty-port" style="fill:rgb(48, 48, 48);stroke:rgb(48, 48, 48);"/><text class="clickable sprotty-label port" id="sprotty_ArchitectureBlockImpl$entropy_src_cntr_reg/BPortImpl$clk_i/label" transform="translate(6, 6) translate(13.09375, 14)" style="cursor:default;font-size:12px;perspective-origin:0px 0px;fill:rgb(48, 48, 48);text-anchor:middle;">clk_i</text></g><g id="sprotty_ArchitectureBlockImpl$entropy_src_cntr_reg/BPortImpl$value_o" transform="translate(278.140625, 148)" class="triangle"><path d="M 0,0 L 5,2.5 L 0,5 Z" transform="translate(-1.67, -2.5)" class="sprotty-port" style="fill:rgb(48, 48, 48);stroke:rgb(48, 48, 48);"/><text class="clickable sprotty-label port" id="sprotty_ArchitectureBlockImpl$entropy_src_cntr_reg/BPortImpl$value_o/label" transform="translate(-50.09375, 6) translate(22.046875, 14)" style="cursor:default;font-size:12px;perspective-origin:0px 0px;fill:rgb(48, 48, 48);text-anchor:middle;">value_o</text></g></g></g></svg>