<svg xmlns="http://www.w3.org/2000/svg" id="sprotty_work.tlul_fifo_async" class="sprotty-graph sprotty-block-diagram blockdiagram" style="font-family:&quot;Noto Sans&quot;, Helvetica, Arial, sans-serif;perspective-origin:0px 0px;transform-origin:0px 0px;" version="1.1" viewBox="7 7 435.75 536" width="435.75" height="536"><g transform="scale(1) translate(0,0)"><g id="sprotty_ArchitectureBlockImpl$tlul_fifo_async" transform="translate(12, 12)" class="architecture"><g class="sprotty-block" style="fill:rgb(255, 255, 255);stroke:rgb(48, 48, 48);stroke-dasharray:0px;"><rect x="0" y="0" rx="1" ry="1" width="425.75" height="526"/><text x="212.875" y="12" class="sprotty-block-name" style="cursor:pointer;font-weight:700;perspective-origin:212.875px 0px;fill:rgb(48, 48, 48);stroke:rgba(0, 0, 0, 0);dominant-baseline:middle;text-anchor:middle;">tlul_fifo_async</text><line x1="0" y1="20" x2="425.75" y2="20"/></g><g id="sprotty_ArchitectureBlockImpl$tlul_fifo_async/InstantiationBlockImpl$reqfifo/BPortImpl$wready_o_to_ArchitectureBlockImpl$tlul_fifo_async/BPortImpl$tl_h_o" class="sprotty-edge thick edge" style="fill:none;stroke:rgb(112, 112, 112);stroke-linejoin:round;stroke-width:3px;"><g><path d="M 338.65625 81 L 356.65625 81 C 357.65625 81 358.65625 82 358.65625 83 L 358.65625 407 C 358.65625 408 359.65625 409 360.65625 409 L 425.75 409 "/><path d="M 338.65625 81 L 356.65625 81 C 357.65625 81 358.65625 82 358.65625 83 L 358.65625 407 C 358.65625 408 359.65625 409 360.65625 409 L 425.75 409 " class="clickable"/></g><circle r="3" id="sprotty_ArchitectureBlockImpl$tlul_fifo_async/InstantiationBlockImpl$reqfifo/BPortImpl$wready_o_to_ArchitectureBlockImpl$tlul_fifo_async/BPortImpl$tl_h_o/junction0" transform="translate(358.65625, 409)" class="sprotty-junction thick" style="fill:rgb(112, 112, 112);stroke:none;"/></g><g id="sprotty_ArchitectureBlockImpl$tlul_fifo_async/InstantiationBlockImpl$rspfifo/BPortImpl$rvalid_o_to_ArchitectureBlockImpl$tlul_fifo_async/BPortImpl$tl_h_o" class="sprotty-edge thick edge" style="fill:none;stroke:rgb(112, 112, 112);stroke-linejoin:round;stroke-width:3px;"><g><path d="M 337.671875 409 L 425.75 409 "/><path d="M 337.671875 409 L 425.75 409 " class="clickable"/></g></g><g id="sprotty_ArchitectureBlockImpl$tlul_fifo_async/InstantiationBlockImpl$rspfifo/BPortImpl$rdata_o_to_ArchitectureBlockImpl$tlul_fifo_async/BPortImpl$tl_h_o" class="sprotty-edge thick edge" style="fill:none;stroke:rgb(112, 112, 112);stroke-linejoin:round;stroke-width:3px;"><g><path d="M 337.671875 451 L 356.65625 451 C 357.65625 451 358.65625 450 358.65625 449 L 358.65625 411 C 358.65625 410 359.65625 409 360.65625 409 L 425.75 409 "/><path d="M 337.671875 451 L 356.65625 451 C 357.65625 451 358.65625 450 358.65625 449 L 358.65625 411 C 358.65625 410 359.65625 409 360.65625 409 L 425.75 409 " class="clickable"/></g></g><g id="sprotty_ArchitectureBlockImpl$tlul_fifo_async/InstantiationBlockImpl$reqfifo/BPortImpl$rvalid_o_to_ArchitectureBlockImpl$tlul_fifo_async/BPortImpl$tl_d_o" class="sprotty-edge thick edge" style="fill:none;stroke:rgb(112, 112, 112);stroke-linejoin:round;stroke-width:3px;"><g><path d="M 338.65625 165 L 425.75 165 "/><path d="M 338.65625 165 L 425.75 165 " class="clickable"/></g></g><g id="sprotty_ArchitectureBlockImpl$tlul_fifo_async/InstantiationBlockImpl$reqfifo/BPortImpl$rdata_o_to_ArchitectureBlockImpl$tlul_fifo_async/BPortImpl$tl_d_o" class="sprotty-edge thick edge" style="fill:none;stroke:rgb(112, 112, 112);stroke-linejoin:round;stroke-width:3px;"><g><path d="M 338.65625 207 L 346.65625 207 C 347.65625 207 348.65625 206 348.65625 205 L 348.65625 167 C 348.65625 166 349.65625 165 350.65625 165 L 425.75 165 "/><path d="M 338.65625 207 L 346.65625 207 C 347.65625 207 348.65625 206 348.65625 205 L 348.65625 167 C 348.65625 166 349.65625 165 350.65625 165 L 425.75 165 " class="clickable"/></g><circle r="3" id="sprotty_ArchitectureBlockImpl$tlul_fifo_async/InstantiationBlockImpl$reqfifo/BPortImpl$rdata_o_to_ArchitectureBlockImpl$tlul_fifo_async/BPortImpl$tl_d_o/junction0" transform="translate(348.65625, 207)" class="sprotty-junction thick" style="fill:rgb(112, 112, 112);stroke:none;"/><circle r="3" id="sprotty_ArchitectureBlockImpl$tlul_fifo_async/InstantiationBlockImpl$reqfifo/BPortImpl$rdata_o_to_ArchitectureBlockImpl$tlul_fifo_async/BPortImpl$tl_d_o/junction1" transform="translate(348.65625, 165)" class="sprotty-junction thick" style="fill:rgb(112, 112, 112);stroke:none;"/></g><g id="sprotty_ArchitectureBlockImpl$tlul_fifo_async/InstantiationBlockImpl$rspfifo/BPortImpl$wready_o_to_ArchitectureBlockImpl$tlul_fifo_async/BPortImpl$tl_d_o" class="sprotty-edge thick edge" style="fill:none;stroke:rgb(112, 112, 112);stroke-linejoin:round;stroke-width:3px;"><g><path d="M 337.671875 325 L 346.65625 325 C 347.65625 325 348.65625 324 348.65625 323 L 348.65625 167 C 348.65625 166 349.65625 165 350.65625 165 L 425.75 165 "/><path d="M 337.671875 325 L 346.65625 325 C 347.65625 325 348.65625 324 348.65625 323 L 348.65625 167 C 348.65625 166 349.65625 165 350.65625 165 L 425.75 165 " class="clickable"/></g></g><g id="sprotty_ArchitectureBlockImpl$tlul_fifo_async/BPortImpl$clk_h_i_to_ArchitectureBlockImpl$tlul_fifo_async/InstantiationBlockImpl$reqfifo/BPortImpl$clk_wr_i" class="sprotty-edge edge" style="fill:none;stroke:rgb(112, 112, 112);stroke-linejoin:round;"><g><path d="M 0 69 L 95 69 C 96 69 97 70 97 71 L 97 79 C 97 80 98 81 99 81 L 137 81 "/><path d="M 0 69 L 95 69 C 96 69 97 70 97 71 L 97 79 C 97 80 98 81 99 81 L 137 81 " class="clickable"/></g><circle r="2" id="sprotty_ArchitectureBlockImpl$tlul_fifo_async/BPortImpl$clk_h_i_to_ArchitectureBlockImpl$tlul_fifo_async/InstantiationBlockImpl$reqfifo/BPortImpl$clk_wr_i/junction0" transform="translate(97, 81)" class="sprotty-junction junction" style="fill:rgb(112, 112, 112);stroke:none;"/></g><g id="sprotty_ArchitectureBlockImpl$tlul_fifo_async/BPortImpl$rst_h_ni_to_ArchitectureBlockImpl$tlul_fifo_async/InstantiationBlockImpl$reqfifo/BPortImpl$rst_wr_ni" class="sprotty-edge edge" style="fill:none;stroke:rgb(112, 112, 112);stroke-linejoin:round;"><g><path d="M 0 103 L 75 103 C 76 103 77 104 77 105 L 77 107 C 77 108 78 109 79 109 L 137 109 "/><path d="M 0 103 L 75 103 C 76 103 77 104 77 105 L 77 107 C 77 108 78 109 79 109 L 137 109 " class="clickable"/></g><circle r="2" id="sprotty_ArchitectureBlockImpl$tlul_fifo_async/BPortImpl$rst_h_ni_to_ArchitectureBlockImpl$tlul_fifo_async/InstantiationBlockImpl$reqfifo/BPortImpl$rst_wr_ni/junction0" transform="translate(77, 109)" class="sprotty-junction junction" style="fill:rgb(112, 112, 112);stroke:none;"/></g><g id="sprotty_ArchitectureBlockImpl$tlul_fifo_async/BPortImpl$tl_h_i_to_ArchitectureBlockImpl$tlul_fifo_async/InstantiationBlockImpl$reqfifo/BPortImpl$wvalid_i" class="sprotty-edge thick edge" style="fill:none;stroke:rgb(112, 112, 112);stroke-linejoin:round;stroke-width:3px;"><g><path d="M 0 137 L 137 137 "/><path d="M 0 137 L 137 137 " class="clickable"/></g></g><g id="sprotty_ArchitectureBlockImpl$tlul_fifo_async/BPortImpl$tl_h_i_to_ArchitectureBlockImpl$tlul_fifo_async/InstantiationBlockImpl$reqfifo/BPortImpl$wdata_i" class="sprotty-edge thick edge" style="fill:none;stroke:rgb(112, 112, 112);stroke-linejoin:round;stroke-width:3px;"><g><path d="M 0 137 L 85 137 C 86 137 87 138 87 139 L 87 163 C 87 164 88 165 89 165 L 137 165 "/><path d="M 0 137 L 85 137 C 86 137 87 138 87 139 L 87 163 C 87 164 88 165 89 165 L 137 165 " class="clickable"/></g><circle r="3" id="sprotty_ArchitectureBlockImpl$tlul_fifo_async/BPortImpl$tl_h_i_to_ArchitectureBlockImpl$tlul_fifo_async/InstantiationBlockImpl$reqfifo/BPortImpl$wdata_i/junction0" transform="translate(87, 137)" class="sprotty-junction thick" style="fill:rgb(112, 112, 112);stroke:none;"/><circle r="3" id="sprotty_ArchitectureBlockImpl$tlul_fifo_async/BPortImpl$tl_h_i_to_ArchitectureBlockImpl$tlul_fifo_async/InstantiationBlockImpl$reqfifo/BPortImpl$wdata_i/junction1" transform="translate(87, 165)" class="sprotty-junction thick" style="fill:rgb(112, 112, 112);stroke:none;"/></g><g id="sprotty_ArchitectureBlockImpl$tlul_fifo_async/BPortImpl$clk_d_i_to_ArchitectureBlockImpl$tlul_fifo_async/InstantiationBlockImpl$reqfifo/BPortImpl$clk_rd_i" class="sprotty-edge edge" style="fill:none;stroke:rgb(112, 112, 112);stroke-linejoin:round;"><g><path d="M 0 35 L 125 35 C 126 35 127 36 127 37 L 127 191 C 127 192 128 193 129 193 L 137 193 "/><path d="M 0 35 L 125 35 C 126 35 127 36 127 37 L 127 191 C 127 192 128 193 129 193 L 137 193 " class="clickable"/></g><circle r="2" id="sprotty_ArchitectureBlockImpl$tlul_fifo_async/BPortImpl$clk_d_i_to_ArchitectureBlockImpl$tlul_fifo_async/InstantiationBlockImpl$reqfifo/BPortImpl$clk_rd_i/junction0" transform="translate(127, 193)" class="sprotty-junction junction" style="fill:rgb(112, 112, 112);stroke:none;"/></g><g id="sprotty_ArchitectureBlockImpl$tlul_fifo_async/BPortImpl$rst_d_ni_to_ArchitectureBlockImpl$tlul_fifo_async/InstantiationBlockImpl$reqfifo/BPortImpl$rst_rd_ni" class="sprotty-edge edge" style="fill:none;stroke:rgb(112, 112, 112);stroke-linejoin:round;"><g><path d="M 0 221 L 137 221 "/><path d="M 0 221 L 137 221 " class="clickable"/></g></g><g id="sprotty_ArchitectureBlockImpl$tlul_fifo_async/BPortImpl$tl_d_i_to_ArchitectureBlockImpl$tlul_fifo_async/InstantiationBlockImpl$reqfifo/BPortImpl$rready_i" class="sprotty-edge thick edge" style="fill:none;stroke:rgb(112, 112, 112);stroke-linejoin:round;stroke-width:3px;"><g><path d="M 0 255 L 105 255 C 106 255 107 254 107 253 L 107 251 C 107 250 108 249 109 249 L 137 249 "/><path d="M 0 255 L 105 255 C 106 255 107 254 107 253 L 107 251 C 107 250 108 249 109 249 L 137 249 " class="clickable"/></g><circle r="3" id="sprotty_ArchitectureBlockImpl$tlul_fifo_async/BPortImpl$tl_d_i_to_ArchitectureBlockImpl$tlul_fifo_async/InstantiationBlockImpl$reqfifo/BPortImpl$rready_i/junction0" transform="translate(107, 255)" class="sprotty-junction thick" style="fill:rgb(112, 112, 112);stroke:none;"/></g><g id="sprotty_ArchitectureBlockImpl$tlul_fifo_async/BPortImpl$clk_d_i_to_ArchitectureBlockImpl$tlul_fifo_async/InstantiationBlockImpl$rspfifo/BPortImpl$clk_wr_i" class="sprotty-edge edge" style="fill:none;stroke:rgb(112, 112, 112);stroke-linejoin:round;"><g><path d="M 0 35 L 125 35 C 126 35 127 36 127 37 L 127 323 C 127 324 128 325 129 325 L 137.421875 325 "/><path d="M 0 35 L 125 35 C 126 35 127 36 127 37 L 127 323 C 127 324 128 325 129 325 L 137.421875 325 " class="clickable"/></g></g><g id="sprotty_ArchitectureBlockImpl$tlul_fifo_async/BPortImpl$rst_d_ni_to_ArchitectureBlockImpl$tlul_fifo_async/InstantiationBlockImpl$rspfifo/BPortImpl$rst_wr_ni" class="sprotty-edge edge" style="fill:none;stroke:rgb(112, 112, 112);stroke-linejoin:round;"><g><path d="M 0 221 L 115 221 C 116 221 117 222 117 223 L 117 351 C 117 352 118 353 119 353 L 137.421875 353 "/><path d="M 0 221 L 115 221 C 116 221 117 222 117 223 L 117 351 C 117 352 118 353 119 353 L 137.421875 353 " class="clickable"/></g><circle r="2" id="sprotty_ArchitectureBlockImpl$tlul_fifo_async/BPortImpl$rst_d_ni_to_ArchitectureBlockImpl$tlul_fifo_async/InstantiationBlockImpl$rspfifo/BPortImpl$rst_wr_ni/junction0" transform="translate(117, 221)" class="sprotty-junction junction" style="fill:rgb(112, 112, 112);stroke:none;"/></g><g id="sprotty_ArchitectureBlockImpl$tlul_fifo_async/BPortImpl$tl_d_i_to_ArchitectureBlockImpl$tlul_fifo_async/InstantiationBlockImpl$rspfifo/BPortImpl$wvalid_i" class="sprotty-edge thick edge" style="fill:none;stroke:rgb(112, 112, 112);stroke-linejoin:round;stroke-width:3px;"><g><path d="M 0 255 L 105 255 C 106 255 107 256 107 257 L 107 379 C 107 380 108 381 109 381 L 137.421875 381 "/><path d="M 0 255 L 105 255 C 106 255 107 256 107 257 L 107 379 C 107 380 108 381 109 381 L 137.421875 381 " class="clickable"/></g><circle r="3" id="sprotty_ArchitectureBlockImpl$tlul_fifo_async/BPortImpl$tl_d_i_to_ArchitectureBlockImpl$tlul_fifo_async/InstantiationBlockImpl$rspfifo/BPortImpl$wvalid_i/junction0" transform="translate(107, 381)" class="sprotty-junction thick" style="fill:rgb(112, 112, 112);stroke:none;"/></g><g id="sprotty_ArchitectureBlockImpl$tlul_fifo_async/BPortImpl$tl_d_i_to_ArchitectureBlockImpl$tlul_fifo_async/InstantiationBlockImpl$rspfifo/BPortImpl$wdata_i" class="sprotty-edge thick edge" style="fill:none;stroke:rgb(112, 112, 112);stroke-linejoin:round;stroke-width:3px;"><g><path d="M 0 255 L 105 255 C 106 255 107 256 107 257 L 107 407 C 107 408 108 409 109 409 L 137.421875 409 "/><path d="M 0 255 L 105 255 C 106 255 107 256 107 257 L 107 407 C 107 408 108 409 109 409 L 137.421875 409 " class="clickable"/></g></g><g id="sprotty_ArchitectureBlockImpl$tlul_fifo_async/BPortImpl$clk_h_i_to_ArchitectureBlockImpl$tlul_fifo_async/InstantiationBlockImpl$rspfifo/BPortImpl$clk_rd_i" class="sprotty-edge edge" style="fill:none;stroke:rgb(112, 112, 112);stroke-linejoin:round;"><g><path d="M 0 69 L 95 69 C 96 69 97 70 97 71 L 97 435 C 97 436 98 437 99 437 L 137.421875 437 "/><path d="M 0 69 L 95 69 C 96 69 97 70 97 71 L 97 435 C 97 436 98 437 99 437 L 137.421875 437 " class="clickable"/></g></g><g id="sprotty_ArchitectureBlockImpl$tlul_fifo_async/BPortImpl$rst_h_ni_to_ArchitectureBlockImpl$tlul_fifo_async/InstantiationBlockImpl$rspfifo/BPortImpl$rst_rd_ni" class="sprotty-edge edge" style="fill:none;stroke:rgb(112, 112, 112);stroke-linejoin:round;"><g><path d="M 0 103 L 75 103 C 76 103 77 104 77 105 L 77 463 C 77 464 78 465 79 465 L 137.421875 465 "/><path d="M 0 103 L 75 103 C 76 103 77 104 77 105 L 77 463 C 77 464 78 465 79 465 L 137.421875 465 " class="clickable"/></g></g><g id="sprotty_ArchitectureBlockImpl$tlul_fifo_async/BPortImpl$tl_h_i_to_ArchitectureBlockImpl$tlul_fifo_async/InstantiationBlockImpl$rspfifo/BPortImpl$rready_i" class="sprotty-edge thick edge" style="fill:none;stroke:rgb(112, 112, 112);stroke-linejoin:round;stroke-width:3px;"><g><path d="M 0 137 L 85 137 C 86 137 87 138 87 139 L 87 491 C 87 492 88 493 89 493 L 137.421875 493 "/><path d="M 0 137 L 85 137 C 86 137 87 138 87 139 L 87 491 C 87 492 88 493 89 493 L 137.421875 493 " class="clickable"/></g></g><g id="sprotty_ArchitectureBlockImpl$tlul_fifo_async/InstantiationBlockImpl$rspfifo" transform="translate(137.421875, 287)" class="instantiation"><g class="sprotty-block" style="fill:rgb(255, 255, 255);stroke:rgb(48, 48, 48);stroke-dasharray:0px;"><rect x="0" y="0" rx="1" ry="1" width="200.25" height="224"/><text x="100.125" y="12" class="sprotty-block-name" style="cursor:pointer;font-weight:700;perspective-origin:100.125px 0px;fill:rgb(48, 48, 48);stroke:rgba(0, 0, 0, 0);dominant-baseline:middle;text-anchor:middle;">rspfifo : prim_fifo_async</text><line x1="0" y1="20" x2="200.25" y2="20"/></g><g id="sprotty_ArchitectureBlockImpl$tlul_fifo_async/InstantiationBlockImpl$rspfifo/BPortImpl$rready_i" transform="translate(0, 206)" class="triangle"><path d="M 0,0 L 5,2.5 L 0,5 Z" transform="translate(-1.67, -2.5)" class="sprotty-port" style="fill:rgb(48, 48, 48);stroke:rgb(48, 48, 48);"/><text class="clickable sprotty-label port" id="sprotty_ArchitectureBlockImpl$tlul_fifo_async/InstantiationBlockImpl$rspfifo/BPortImpl$rready_i/label" transform="translate(6, -9) translate(23.0625, 14)" style="cursor:default;font-size:12px;perspective-origin:0px 0px;fill:rgb(48, 48, 48);text-anchor:middle;">rready_i</text></g><g id="sprotty_ArchitectureBlockImpl$tlul_fifo_async/InstantiationBlockImpl$rspfifo/BPortImpl$rst_rd_ni" transform="translate(0, 178)" class="triangle"><path d="M 0,0 L 5,2.5 L 0,5 Z" transform="translate(-1.67, -2.5)" class="sprotty-port" style="fill:rgb(48, 48, 48);stroke:rgb(48, 48, 48);"/><text class="clickable sprotty-label port" id="sprotty_ArchitectureBlockImpl$tlul_fifo_async/InstantiationBlockImpl$rspfifo/BPortImpl$rst_rd_ni/label" transform="translate(6, -9) translate(25.25, 14)" style="cursor:default;font-size:12px;perspective-origin:0px 0px;fill:rgb(48, 48, 48);text-anchor:middle;">rst_rd_ni</text></g><g id="sprotty_ArchitectureBlockImpl$tlul_fifo_async/InstantiationBlockImpl$rspfifo/BPortImpl$clk_rd_i" transform="translate(0, 150)" class="triangle"><path d="M 0,0 L 5,2.5 L 0,5 Z" transform="translate(-1.67, -2.5)" class="sprotty-port" style="fill:rgb(48, 48, 48);stroke:rgb(48, 48, 48);"/><text class="clickable sprotty-label port" id="sprotty_ArchitectureBlockImpl$tlul_fifo_async/InstantiationBlockImpl$rspfifo/BPortImpl$clk_rd_i/label" transform="translate(6, -9) translate(22.421875, 14)" style="cursor:default;font-size:12px;perspective-origin:0px 0px;fill:rgb(48, 48, 48);text-anchor:middle;">clk_rd_i</text></g><g id="sprotty_ArchitectureBlockImpl$tlul_fifo_async/InstantiationBlockImpl$rspfifo/BPortImpl$wdata_i" transform="translate(0, 122)" class="triangle"><path d="M 0,0 L 5,2.5 L 0,5 Z" transform="translate(-1.67, -2.5)" class="sprotty-port" style="fill:rgb(48, 48, 48);stroke:rgb(48, 48, 48);"/><text class="clickable sprotty-label port" id="sprotty_ArchitectureBlockImpl$tlul_fifo_async/InstantiationBlockImpl$rspfifo/BPortImpl$wdata_i/label" transform="translate(6, -9) translate(22.3125, 14)" style="cursor:default;font-size:12px;perspective-origin:0px 0px;fill:rgb(48, 48, 48);text-anchor:middle;">wdata_i</text></g><g id="sprotty_ArchitectureBlockImpl$tlul_fifo_async/InstantiationBlockImpl$rspfifo/BPortImpl$wvalid_i" transform="translate(0, 94)" class="triangle"><path d="M 0,0 L 5,2.5 L 0,5 Z" transform="translate(-1.67, -2.5)" class="sprotty-port" style="fill:rgb(48, 48, 48);stroke:rgb(48, 48, 48);"/><text class="clickable sprotty-label port" id="sprotty_ArchitectureBlockImpl$tlul_fifo_async/InstantiationBlockImpl$rspfifo/BPortImpl$wvalid_i/label" transform="translate(6, -9) translate(23.28125, 14)" style="cursor:default;font-size:12px;perspective-origin:0px 0px;fill:rgb(48, 48, 48);text-anchor:middle;">wvalid_i</text></g><g id="sprotty_ArchitectureBlockImpl$tlul_fifo_async/InstantiationBlockImpl$rspfifo/BPortImpl$rst_wr_ni" transform="translate(0, 66)" class="triangle"><path d="M 0,0 L 5,2.5 L 0,5 Z" transform="translate(-1.67, -2.5)" class="sprotty-port" style="fill:rgb(48, 48, 48);stroke:rgb(48, 48, 48);"/><text class="clickable sprotty-label port" id="sprotty_ArchitectureBlockImpl$tlul_fifo_async/InstantiationBlockImpl$rspfifo/BPortImpl$rst_wr_ni/label" transform="translate(6, -9) translate(26.40625, 14)" style="cursor:default;font-size:12px;perspective-origin:0px 0px;fill:rgb(48, 48, 48);text-anchor:middle;">rst_wr_ni</text></g><g id="sprotty_ArchitectureBlockImpl$tlul_fifo_async/InstantiationBlockImpl$rspfifo/BPortImpl$clk_wr_i" transform="translate(0, 38)" class="triangle"><path d="M 0,0 L 5,2.5 L 0,5 Z" transform="translate(-1.67, -2.5)" class="sprotty-port" style="fill:rgb(48, 48, 48);stroke:rgb(48, 48, 48);"/><text class="clickable sprotty-label port" id="sprotty_ArchitectureBlockImpl$tlul_fifo_async/InstantiationBlockImpl$rspfifo/BPortImpl$clk_wr_i/label" transform="translate(6, -9) translate(23.578125, 14)" style="cursor:default;font-size:12px;perspective-origin:0px 0px;fill:rgb(48, 48, 48);text-anchor:middle;">clk_wr_i</text></g><g id="sprotty_ArchitectureBlockImpl$tlul_fifo_async/InstantiationBlockImpl$rspfifo/BPortImpl$wready_o" transform="translate(200.25, 38)" class="triangle"><path d="M 0,0 L 5,2.5 L 0,5 Z" transform="translate(-1.67, -2.5)" class="sprotty-port" style="fill:rgb(48, 48, 48);stroke:rgb(48, 48, 48);"/><text class="clickable sprotty-label port" id="sprotty_ArchitectureBlockImpl$tlul_fifo_async/InstantiationBlockImpl$rspfifo/BPortImpl$wready_o/label" transform="translate(-61.0625, -9) translate(27.53125, 14)" style="cursor:default;font-size:12px;perspective-origin:0px 0px;fill:rgb(48, 48, 48);text-anchor:middle;">wready_o</text></g><g id="sprotty_ArchitectureBlockImpl$tlul_fifo_async/InstantiationBlockImpl$rspfifo/BPortImpl$wdepth_o" transform="translate(200.25, 80)" class="triangle"><path d="M 0,0 L 5,2.5 L 0,5 Z" transform="translate(-1.67, -2.5)" class="sprotty-port" style="fill:rgb(48, 48, 48);stroke:rgb(48, 48, 48);"/><text class="clickable sprotty-label port" id="sprotty_ArchitectureBlockImpl$tlul_fifo_async/InstantiationBlockImpl$rspfifo/BPortImpl$wdepth_o/label" transform="translate(-62.6875, -9) translate(28.34375, 14)" style="cursor:default;font-size:12px;perspective-origin:0px 0px;fill:rgb(48, 48, 48);text-anchor:middle;">wdepth_o</text></g><g id="sprotty_ArchitectureBlockImpl$tlul_fifo_async/InstantiationBlockImpl$rspfifo/BPortImpl$rvalid_o" transform="translate(200.25, 122)" class="triangle"><path d="M 0,0 L 5,2.5 L 0,5 Z" transform="translate(-1.67, -2.5)" class="sprotty-port" style="fill:rgb(48, 48, 48);stroke:rgb(48, 48, 48);"/><text class="clickable sprotty-label port" id="sprotty_ArchitectureBlockImpl$tlul_fifo_async/InstantiationBlockImpl$rspfifo/BPortImpl$rvalid_o/label" transform="translate(-51.90625, -9) translate(22.953125, 14)" style="cursor:default;font-size:12px;perspective-origin:0px 0px;fill:rgb(48, 48, 48);text-anchor:middle;">rvalid_o</text></g><g id="sprotty_ArchitectureBlockImpl$tlul_fifo_async/InstantiationBlockImpl$rspfifo/BPortImpl$rdata_o" transform="translate(200.25, 164)" class="triangle"><path d="M 0,0 L 5,2.5 L 0,5 Z" transform="translate(-1.67, -2.5)" class="sprotty-port" style="fill:rgb(48, 48, 48);stroke:rgb(48, 48, 48);"/><text class="clickable sprotty-label port" id="sprotty_ArchitectureBlockImpl$tlul_fifo_async/InstantiationBlockImpl$rspfifo/BPortImpl$rdata_o/label" transform="translate(-49.5625, -9) translate(21.78125, 14)" style="cursor:default;font-size:12px;perspective-origin:0px 0px;fill:rgb(48, 48, 48);text-anchor:middle;">rdata_o</text></g><g id="sprotty_ArchitectureBlockImpl$tlul_fifo_async/InstantiationBlockImpl$rspfifo/BPortImpl$rdepth_o" transform="translate(200.25, 206)" class="triangle"><path d="M 0,0 L 5,2.5 L 0,5 Z" transform="translate(-1.67, -2.5)" class="sprotty-port" style="fill:rgb(48, 48, 48);stroke:rgb(48, 48, 48);"/><text class="clickable sprotty-label port" id="sprotty_ArchitectureBlockImpl$tlul_fifo_async/InstantiationBlockImpl$rspfifo/BPortImpl$rdepth_o/label" transform="translate(-57.625, -9) translate(25.8125, 14)" style="cursor:default;font-size:12px;perspective-origin:0px 0px;fill:rgb(48, 48, 48);text-anchor:middle;">rdepth_o</text></g></g><g id="sprotty_ArchitectureBlockImpl$tlul_fifo_async/InstantiationBlockImpl$reqfifo" transform="translate(137, 43)" class="instantiation"><g class="sprotty-block" style="fill:rgb(255, 255, 255);stroke:rgb(48, 48, 48);stroke-dasharray:0px;"><rect x="0" y="0" rx="1" ry="1" width="201.65625" height="224"/><text x="100.828125" y="12" class="sprotty-block-name" style="cursor:pointer;font-weight:700;perspective-origin:100.828px 0px;fill:rgb(48, 48, 48);stroke:rgba(0, 0, 0, 0);dominant-baseline:middle;text-anchor:middle;">reqfifo : prim_fifo_async</text><line x1="0" y1="20" x2="201.65625" y2="20"/></g><g id="sprotty_ArchitectureBlockImpl$tlul_fifo_async/InstantiationBlockImpl$reqfifo/BPortImpl$rready_i" transform="translate(0, 206)" class="triangle"><path d="M 0,0 L 5,2.5 L 0,5 Z" transform="translate(-1.67, -2.5)" class="sprotty-port" style="fill:rgb(48, 48, 48);stroke:rgb(48, 48, 48);"/><text class="clickable sprotty-label port" id="sprotty_ArchitectureBlockImpl$tlul_fifo_async/InstantiationBlockImpl$reqfifo/BPortImpl$rready_i/label" transform="translate(6, -9) translate(23.0625, 14)" style="cursor:default;font-size:12px;perspective-origin:0px 0px;fill:rgb(48, 48, 48);text-anchor:middle;">rready_i</text></g><g id="sprotty_ArchitectureBlockImpl$tlul_fifo_async/InstantiationBlockImpl$reqfifo/BPortImpl$rst_rd_ni" transform="translate(0, 178)" class="triangle"><path d="M 0,0 L 5,2.5 L 0,5 Z" transform="translate(-1.67, -2.5)" class="sprotty-port" style="fill:rgb(48, 48, 48);stroke:rgb(48, 48, 48);"/><text class="clickable sprotty-label port" id="sprotty_ArchitectureBlockImpl$tlul_fifo_async/InstantiationBlockImpl$reqfifo/BPortImpl$rst_rd_ni/label" transform="translate(6, -9) translate(25.25, 14)" style="cursor:default;font-size:12px;perspective-origin:0px 0px;fill:rgb(48, 48, 48);text-anchor:middle;">rst_rd_ni</text></g><g id="sprotty_ArchitectureBlockImpl$tlul_fifo_async/InstantiationBlockImpl$reqfifo/BPortImpl$clk_rd_i" transform="translate(0, 150)" class="triangle"><path d="M 0,0 L 5,2.5 L 0,5 Z" transform="translate(-1.67, -2.5)" class="sprotty-port" style="fill:rgb(48, 48, 48);stroke:rgb(48, 48, 48);"/><text class="clickable sprotty-label port" id="sprotty_ArchitectureBlockImpl$tlul_fifo_async/InstantiationBlockImpl$reqfifo/BPortImpl$clk_rd_i/label" transform="translate(6, -9) translate(22.421875, 14)" style="cursor:default;font-size:12px;perspective-origin:0px 0px;fill:rgb(48, 48, 48);text-anchor:middle;">clk_rd_i</text></g><g id="sprotty_ArchitectureBlockImpl$tlul_fifo_async/InstantiationBlockImpl$reqfifo/BPortImpl$wdata_i" transform="translate(0, 122)" class="triangle"><path d="M 0,0 L 5,2.5 L 0,5 Z" transform="translate(-1.67, -2.5)" class="sprotty-port" style="fill:rgb(48, 48, 48);stroke:rgb(48, 48, 48);"/><text class="clickable sprotty-label port" id="sprotty_ArchitectureBlockImpl$tlul_fifo_async/InstantiationBlockImpl$reqfifo/BPortImpl$wdata_i/label" transform="translate(6, -9) translate(22.3125, 14)" style="cursor:default;font-size:12px;perspective-origin:0px 0px;fill:rgb(48, 48, 48);text-anchor:middle;">wdata_i</text></g><g id="sprotty_ArchitectureBlockImpl$tlul_fifo_async/InstantiationBlockImpl$reqfifo/BPortImpl$wvalid_i" transform="translate(0, 94)" class="triangle"><path d="M 0,0 L 5,2.5 L 0,5 Z" transform="translate(-1.67, -2.5)" class="sprotty-port" style="fill:rgb(48, 48, 48);stroke:rgb(48, 48, 48);"/><text class="clickable sprotty-label port" id="sprotty_ArchitectureBlockImpl$tlul_fifo_async/InstantiationBlockImpl$reqfifo/BPortImpl$wvalid_i/label" transform="translate(6, -9) translate(23.28125, 14)" style="cursor:default;font-size:12px;perspective-origin:0px 0px;fill:rgb(48, 48, 48);text-anchor:middle;">wvalid_i</text></g><g id="sprotty_ArchitectureBlockImpl$tlul_fifo_async/InstantiationBlockImpl$reqfifo/BPortImpl$rst_wr_ni" transform="translate(0, 66)" class="triangle"><path d="M 0,0 L 5,2.5 L 0,5 Z" transform="translate(-1.67, -2.5)" class="sprotty-port" style="fill:rgb(48, 48, 48);stroke:rgb(48, 48, 48);"/><text class="clickable sprotty-label port" id="sprotty_ArchitectureBlockImpl$tlul_fifo_async/InstantiationBlockImpl$reqfifo/BPortImpl$rst_wr_ni/label" transform="translate(6, -9) translate(26.40625, 14)" style="cursor:default;font-size:12px;perspective-origin:0px 0px;fill:rgb(48, 48, 48);text-anchor:middle;">rst_wr_ni</text></g><g id="sprotty_ArchitectureBlockImpl$tlul_fifo_async/InstantiationBlockImpl$reqfifo/BPortImpl$clk_wr_i" transform="translate(0, 38)" class="triangle"><path d="M 0,0 L 5,2.5 L 0,5 Z" transform="translate(-1.67, -2.5)" class="sprotty-port" style="fill:rgb(48, 48, 48);stroke:rgb(48, 48, 48);"/><text class="clickable sprotty-label port" id="sprotty_ArchitectureBlockImpl$tlul_fifo_async/InstantiationBlockImpl$reqfifo/BPortImpl$clk_wr_i/label" transform="translate(6, -9) translate(23.578125, 14)" style="cursor:default;font-size:12px;perspective-origin:0px 0px;fill:rgb(48, 48, 48);text-anchor:middle;">clk_wr_i</text></g><g id="sprotty_ArchitectureBlockImpl$tlul_fifo_async/InstantiationBlockImpl$reqfifo/BPortImpl$wready_o" transform="translate(201.65625, 38)" class="triangle"><path d="M 0,0 L 5,2.5 L 0,5 Z" transform="translate(-1.67, -2.5)" class="sprotty-port" style="fill:rgb(48, 48, 48);stroke:rgb(48, 48, 48);"/><text class="clickable sprotty-label port" id="sprotty_ArchitectureBlockImpl$tlul_fifo_async/InstantiationBlockImpl$reqfifo/BPortImpl$wready_o/label" transform="translate(-61.0625, -9) translate(27.53125, 14)" style="cursor:default;font-size:12px;perspective-origin:0px 0px;fill:rgb(48, 48, 48);text-anchor:middle;">wready_o</text></g><g id="sprotty_ArchitectureBlockImpl$tlul_fifo_async/InstantiationBlockImpl$reqfifo/BPortImpl$wdepth_o" transform="translate(201.65625, 80)" class="triangle"><path d="M 0,0 L 5,2.5 L 0,5 Z" transform="translate(-1.67, -2.5)" class="sprotty-port" style="fill:rgb(48, 48, 48);stroke:rgb(48, 48, 48);"/><text class="clickable sprotty-label port" id="sprotty_ArchitectureBlockImpl$tlul_fifo_async/InstantiationBlockImpl$reqfifo/BPortImpl$wdepth_o/label" transform="translate(-62.6875, -9) translate(28.34375, 14)" style="cursor:default;font-size:12px;perspective-origin:0px 0px;fill:rgb(48, 48, 48);text-anchor:middle;">wdepth_o</text></g><g id="sprotty_ArchitectureBlockImpl$tlul_fifo_async/InstantiationBlockImpl$reqfifo/BPortImpl$rvalid_o" transform="translate(201.65625, 122)" class="triangle"><path d="M 0,0 L 5,2.5 L 0,5 Z" transform="translate(-1.67, -2.5)" class="sprotty-port" style="fill:rgb(48, 48, 48);stroke:rgb(48, 48, 48);"/><text class="clickable sprotty-label port" id="sprotty_ArchitectureBlockImpl$tlul_fifo_async/InstantiationBlockImpl$reqfifo/BPortImpl$rvalid_o/label" transform="translate(-51.90625, -9) translate(22.953125, 14)" style="cursor:default;font-size:12px;perspective-origin:0px 0px;fill:rgb(48, 48, 48);text-anchor:middle;">rvalid_o</text></g><g id="sprotty_ArchitectureBlockImpl$tlul_fifo_async/InstantiationBlockImpl$reqfifo/BPortImpl$rdata_o" transform="translate(201.65625, 164)" class="triangle"><path d="M 0,0 L 5,2.5 L 0,5 Z" transform="translate(-1.67, -2.5)" class="sprotty-port" style="fill:rgb(48, 48, 48);stroke:rgb(48, 48, 48);"/><text class="clickable sprotty-label port" id="sprotty_ArchitectureBlockImpl$tlul_fifo_async/InstantiationBlockImpl$reqfifo/BPortImpl$rdata_o/label" transform="translate(-49.5625, -9) translate(21.78125, 14)" style="cursor:default;font-size:12px;perspective-origin:0px 0px;fill:rgb(48, 48, 48);text-anchor:middle;">rdata_o</text></g><g id="sprotty_ArchitectureBlockImpl$tlul_fifo_async/InstantiationBlockImpl$reqfifo/BPortImpl$rdepth_o" transform="translate(201.65625, 206)" class="triangle"><path d="M 0,0 L 5,2.5 L 0,5 Z" transform="translate(-1.67, -2.5)" class="sprotty-port" style="fill:rgb(48, 48, 48);stroke:rgb(48, 48, 48);"/><text class="clickable sprotty-label port" id="sprotty_ArchitectureBlockImpl$tlul_fifo_async/InstantiationBlockImpl$reqfifo/BPortImpl$rdepth_o/label" transform="translate(-57.625, -9) translate(25.8125, 14)" style="cursor:default;font-size:12px;perspective-origin:0px 0px;fill:rgb(48, 48, 48);text-anchor:middle;">rdepth_o</text></g></g><g id="sprotty_ArchitectureBlockImpl$tlul_fifo_async/BPortImpl$tl_d_i" transform="translate(0, 255)" class="triangle"><path d="M 0,0 L 5,2.5 L 0,5 Z" transform="translate(-1.67, -2.5)" class="sprotty-port" style="fill:rgb(48, 48, 48);stroke:rgb(48, 48, 48);"/><text class="clickable sprotty-label port" id="sprotty_ArchitectureBlockImpl$tlul_fifo_async/BPortImpl$tl_d_i/label" transform="translate(6, 6) translate(16.0625, 14)" style="cursor:default;font-size:12px;perspective-origin:0px 0px;fill:rgb(48, 48, 48);text-anchor:middle;">tl_d_i</text></g><g id="sprotty_ArchitectureBlockImpl$tlul_fifo_async/BPortImpl$tl_h_i" transform="translate(0, 137)" class="triangle"><path d="M 0,0 L 5,2.5 L 0,5 Z" transform="translate(-1.67, -2.5)" class="sprotty-port" style="fill:rgb(48, 48, 48);stroke:rgb(48, 48, 48);"/><text class="clickable sprotty-label port" id="sprotty_ArchitectureBlockImpl$tlul_fifo_async/BPortImpl$tl_h_i/label" transform="translate(6, 6) translate(15.984375, 14)" style="cursor:default;font-size:12px;perspective-origin:0px 0px;fill:rgb(48, 48, 48);text-anchor:middle;">tl_h_i</text></g><g id="sprotty_ArchitectureBlockImpl$tlul_fifo_async/BPortImpl$rst_d_ni" transform="translate(0, 221)" class="triangle"><path d="M 0,0 L 5,2.5 L 0,5 Z" transform="translate(-1.67, -2.5)" class="sprotty-port" style="fill:rgb(48, 48, 48);stroke:rgb(48, 48, 48);"/><text class="clickable sprotty-label port" id="sprotty_ArchitectureBlockImpl$tlul_fifo_async/BPortImpl$rst_d_ni/label" transform="translate(6, 6) translate(23, 14)" style="cursor:default;font-size:12px;perspective-origin:0px 0px;fill:rgb(48, 48, 48);text-anchor:middle;">rst_d_ni</text></g><g id="sprotty_ArchitectureBlockImpl$tlul_fifo_async/BPortImpl$clk_d_i" transform="translate(0, 35)" class="triangle"><path d="M 0,0 L 5,2.5 L 0,5 Z" transform="translate(-1.67, -2.5)" class="sprotty-port" style="fill:rgb(48, 48, 48);stroke:rgb(48, 48, 48);"/><text class="clickable sprotty-label port" id="sprotty_ArchitectureBlockImpl$tlul_fifo_async/BPortImpl$clk_d_i/label" transform="translate(6, 6) translate(20.15625, 14)" style="cursor:default;font-size:12px;perspective-origin:0px 0px;fill:rgb(48, 48, 48);text-anchor:middle;">clk_d_i</text></g><g id="sprotty_ArchitectureBlockImpl$tlul_fifo_async/BPortImpl$rst_h_ni" transform="translate(0, 103)" class="triangle"><path d="M 0,0 L 5,2.5 L 0,5 Z" transform="translate(-1.67, -2.5)" class="sprotty-port" style="fill:rgb(48, 48, 48);stroke:rgb(48, 48, 48);"/><text class="clickable sprotty-label port" id="sprotty_ArchitectureBlockImpl$tlul_fifo_async/BPortImpl$rst_h_ni/label" transform="translate(6, 6) translate(22.921875, 14)" style="cursor:default;font-size:12px;perspective-origin:0px 0px;fill:rgb(48, 48, 48);text-anchor:middle;">rst_h_ni</text></g><g id="sprotty_ArchitectureBlockImpl$tlul_fifo_async/BPortImpl$clk_h_i" transform="translate(0, 69)" class="triangle"><path d="M 0,0 L 5,2.5 L 0,5 Z" transform="translate(-1.67, -2.5)" class="sprotty-port" style="fill:rgb(48, 48, 48);stroke:rgb(48, 48, 48);"/><text class="clickable sprotty-label port" id="sprotty_ArchitectureBlockImpl$tlul_fifo_async/BPortImpl$clk_h_i/label" transform="translate(6, 6) translate(20.078125, 14)" style="cursor:default;font-size:12px;perspective-origin:0px 0px;fill:rgb(48, 48, 48);text-anchor:middle;">clk_h_i</text></g><g id="sprotty_ArchitectureBlockImpl$tlul_fifo_async/BPortImpl$tl_h_o" transform="translate(425.75, 409)" class="triangle"><path d="M 0,0 L 5,2.5 L 0,5 Z" transform="translate(-1.67, -2.5)" class="sprotty-port" style="fill:rgb(48, 48, 48);stroke:rgb(48, 48, 48);"/><text class="clickable sprotty-label port" id="sprotty_ArchitectureBlockImpl$tlul_fifo_async/BPortImpl$tl_h_o/label" transform="translate(-41.9375, 6) translate(17.96875, 14)" style="cursor:default;font-size:12px;perspective-origin:0px 0px;fill:rgb(48, 48, 48);text-anchor:middle;">tl_h_o</text></g><g id="sprotty_ArchitectureBlockImpl$tlul_fifo_async/BPortImpl$tl_d_o" transform="translate(425.75, 165)" class="triangle"><path d="M 0,0 L 5,2.5 L 0,5 Z" transform="translate(-1.67, -2.5)" class="sprotty-port" style="fill:rgb(48, 48, 48);stroke:rgb(48, 48, 48);"/><text class="clickable sprotty-label port" id="sprotty_ArchitectureBlockImpl$tlul_fifo_async/BPortImpl$tl_d_o/label" transform="translate(-42.09375, 6) translate(18.046875, 14)" style="cursor:default;font-size:12px;perspective-origin:0px 0px;fill:rgb(48, 48, 48);text-anchor:middle;">tl_d_o</text></g></g></g></svg>