<svg xmlns="http://www.w3.org/2000/svg" id="sprotty_work.prim_generic_flop" class="sprotty-graph sprotty-block-diagram blockdiagram" style="font-family:&quot;Noto Sans&quot;, Helvetica, Arial, sans-serif;perspective-origin:0px 0px;transform-origin:0px 0px;" version="1.1" viewBox="7 7 174.171875 152" width="174.171875" height="152"><g transform="scale(1) translate(0,0)"><g id="sprotty_ArchitectureBlockImpl$prim_generic_flop" transform="translate(12, 12)" class="architecture"><g class="sprotty-block" style="fill:rgb(255, 255, 255);stroke:rgb(48, 48, 48);stroke-dasharray:0px;"><rect x="0" y="0" rx="1" ry="1" width="164.171875" height="142"/><text x="82.0859375" y="12" class="sprotty-block-name" style="cursor:pointer;font-weight:700;perspective-origin:82.0781px 0px;fill:rgb(48, 48, 48);stroke:rgba(0, 0, 0, 0);dominant-baseline:middle;text-anchor:middle;">prim_generic_flop</text><line x1="0" y1="20" x2="164.171875" y2="20"/></g><g id="sprotty_ArchitectureBlockImpl$prim_generic_flop/AlwaysBlockImpl$null4/GPortImpl$q_oOUT_to_ArchitectureBlockImpl$prim_generic_flop/BPortImpl$q_o" class="sprotty-edge thick edge" style="fill:none;stroke:rgb(112, 112, 112);stroke-linejoin:round;stroke-width:3px;"><g><path d="M 121.734375 69 L 164.171875 69 "/><path d="M 121.734375 69 L 164.171875 69 " class="clickable"/></g></g><g id="sprotty_ArchitectureBlockImpl$prim_generic_flop/BPortImpl$clk_i_to_ArchitectureBlockImpl$prim_generic_flop/AlwaysBlockImpl$null4/GPortImpl$clk_iIN" class="sprotty-edge edge" style="fill:none;stroke:rgb(112, 112, 112);stroke-linejoin:round;"><g><path d="M 0 35 L 60.84375 35 C 61.84375 35 62.84375 36 62.84375 37 L 62.84375 57 C 62.84375 58 63.84375 59 64.84375 59 L 72.84375 59 "/><path d="M 0 35 L 60.84375 35 C 61.84375 35 62.84375 36 62.84375 37 L 62.84375 57 C 62.84375 58 63.84375 59 64.84375 59 L 72.84375 59 " class="clickable"/></g></g><g id="sprotty_ArchitectureBlockImpl$prim_generic_flop/BPortImpl$rst_ni_to_ArchitectureBlockImpl$prim_generic_flop/AlwaysBlockImpl$null4/GPortImpl$rst_niIN" class="sprotty-edge edge" style="fill:none;stroke:rgb(112, 112, 112);stroke-linejoin:round;"><g><path d="M 0 69 L 72.84375 69 "/><path d="M 0 69 L 72.84375 69 " class="clickable"/></g></g><g id="sprotty_ArchitectureBlockImpl$prim_generic_flop/BPortImpl$d_i_to_ArchitectureBlockImpl$prim_generic_flop/AlwaysBlockImpl$null4/GPortImpl$d_iIN" class="sprotty-edge thick edge" style="fill:none;stroke:rgb(112, 112, 112);stroke-linejoin:round;stroke-width:3px;"><g><path d="M 0 103 L 60.84375 103 C 61.84375 103 62.84375 102 62.84375 101 L 62.84375 81 C 62.84375 80 63.84375 79 64.84375 79 L 72.84375 79 "/><path d="M 0 103 L 60.84375 103 C 61.84375 103 62.84375 102 62.84375 101 L 62.84375 81 C 62.84375 80 63.84375 79 64.84375 79 L 72.84375 79 " class="clickable"/></g></g><g id="sprotty_ArchitectureBlockImpl$prim_generic_flop/AlwaysBlockImpl$null4" transform="translate(72.84375, 49)" class="statement"><rect x="0" y="0" rx="10" ry="5" width="48.890625" height="40" class="sprotty-node" style="fill:rgb(245, 245, 245);stroke:rgb(112, 112, 112);"/><text class="clickable sprotty-label statementtype" id="sprotty_ArchitectureBlockImpl$prim_generic_flop/AlwaysBlockImpl$null4/labeltype" transform="translate(5, 14) translate(18.828125, 9)" style="cursor:default;font-size:8px;font-weight:700;perspective-origin:0.609375px 0px;fill:rgb(112, 112, 112);text-anchor:middle;">always_ff</text><g id="sprotty_ArchitectureBlockImpl$prim_generic_flop/AlwaysBlockImpl$null4/GPortImpl$d_iIN" transform="translate(0, 30)" class="sprotty-hidden hidden" style="display:block;height:0px;width:0px;"/><g id="sprotty_ArchitectureBlockImpl$prim_generic_flop/AlwaysBlockImpl$null4/GPortImpl$rst_niIN" transform="translate(0, 20)" class="sprotty-hidden hidden" style="display:block;height:0px;width:0px;"/><g id="sprotty_ArchitectureBlockImpl$prim_generic_flop/AlwaysBlockImpl$null4/GPortImpl$clk_iIN" transform="translate(0, 10)" class="sprotty-hidden hidden" style="display:block;height:0px;width:0px;"/><g id="sprotty_ArchitectureBlockImpl$prim_generic_flop/AlwaysBlockImpl$null4/GPortImpl$q_oOUT" transform="translate(48.890625, 20)" class="sprotty-hidden hidden" style="display:block;height:0px;width:0px;"/></g><g id="sprotty_ArchitectureBlockImpl$prim_generic_flop/BPortImpl$d_i" transform="translate(0, 103)" class="triangle"><path d="M 0,0 L 5,2.5 L 0,5 Z" transform="translate(-1.67, -2.5)" class="sprotty-port" style="fill:rgb(48, 48, 48);stroke:rgb(48, 48, 48);"/><text class="clickable sprotty-label port" id="sprotty_ArchitectureBlockImpl$prim_generic_flop/BPortImpl$d_i/label" transform="translate(6, 6) translate(8.734375, 14)" style="cursor:default;font-size:12px;perspective-origin:0px 0px;fill:rgb(48, 48, 48);text-anchor:middle;">d_i</text></g><g id="sprotty_ArchitectureBlockImpl$prim_generic_flop/BPortImpl$rst_ni" transform="translate(0, 69)" class="triangle"><path d="M 0,0 L 5,2.5 L 0,5 Z" transform="translate(-1.67, -2.5)" class="sprotty-port" style="fill:rgb(48, 48, 48);stroke:rgb(48, 48, 48);"/><text class="clickable sprotty-label port" id="sprotty_ArchitectureBlockImpl$prim_generic_flop/BPortImpl$rst_ni/label" transform="translate(6, 6) translate(15.921875, 14)" style="cursor:default;font-size:12px;perspective-origin:0px 0px;fill:rgb(48, 48, 48);text-anchor:middle;">rst_ni</text></g><g id="sprotty_ArchitectureBlockImpl$prim_generic_flop/BPortImpl$clk_i" transform="translate(0, 35)" class="triangle"><path d="M 0,0 L 5,2.5 L 0,5 Z" transform="translate(-1.67, -2.5)" class="sprotty-port" style="fill:rgb(48, 48, 48);stroke:rgb(48, 48, 48);"/><text class="clickable sprotty-label port" id="sprotty_ArchitectureBlockImpl$prim_generic_flop/BPortImpl$clk_i/label" transform="translate(6, 6) translate(13.09375, 14)" style="cursor:default;font-size:12px;perspective-origin:0px 0px;fill:rgb(48, 48, 48);text-anchor:middle;">clk_i</text></g><g id="sprotty_ArchitectureBlockImpl$prim_generic_flop/BPortImpl$q_o" transform="translate(164.171875, 69)" class="triangle"><path d="M 0,0 L 5,2.5 L 0,5 Z" transform="translate(-1.67, -2.5)" class="sprotty-port" style="fill:rgb(48, 48, 48);stroke:rgb(48, 48, 48);"/><text class="clickable sprotty-label port" id="sprotty_ArchitectureBlockImpl$prim_generic_flop/BPortImpl$q_o/label" transform="translate(-27.4375, 6) translate(10.71875, 14)" style="cursor:default;font-size:12px;perspective-origin:0px 0px;fill:rgb(48, 48, 48);text-anchor:middle;">q_o</text></g></g></g></svg>