<svg xmlns="http://www.w3.org/2000/svg" id="sprotty_work.flash_mp_data_region_sel" class="sprotty-graph sprotty-block-diagram blockdiagram" style="font-family:&quot;Noto Sans&quot;, Helvetica, Arial, sans-serif;perspective-origin:0px 0px;transform-origin:0px 0px;" version="1.1" viewBox="7 7 511.6875 247" width="511.6875" height="247"><g transform="scale(1) translate(0,0)"><g id="sprotty_ArchitectureBlockImpl$flash_mp_data_region_sel" transform="translate(12, 12)" class="architecture"><g class="sprotty-block" style="fill:rgb(255, 255, 255);stroke:rgb(48, 48, 48);stroke-dasharray:0px;"><rect x="0" y="0" rx="1" ry="1" width="501.6875" height="237"/><text x="250.84375" y="12" class="sprotty-block-name" style="cursor:pointer;font-weight:700;perspective-origin:250.844px 0px;fill:rgb(48, 48, 48);stroke:rgba(0, 0, 0, 0);dominant-baseline:middle;text-anchor:middle;">flash_mp_data_region_sel</text><line x1="0" y1="20" x2="501.6875" y2="20"/></g><g id="sprotty_ArchitectureBlockImpl$flash_mp_data_region_sel/AlwaysBlockImpl$null6/GPortImpl$sel_cfg_oOUT_to_ArchitectureBlockImpl$flash_mp_data_region_sel/BPortImpl$sel_cfg_o" class="sprotty-edge thick edge" style="fill:none;stroke:rgb(112, 112, 112);stroke-linejoin:round;stroke-width:3px;"><g><path d="M 427.71875 55 L 501.6875 55 "/><path d="M 427.71875 55 L 501.6875 55 " class="clickable"/></g></g><g id="sprotty_ArchitectureBlockImpl$flash_mp_data_region_sel/BPortImpl$addr_i_to_ArchitectureBlockImpl$flash_mp_data_region_sel/AlwaysBlockImpl$null7/GPortImpl$addr_iIN" class="sprotty-edge thick edge" style="fill:none;stroke:rgb(112, 112, 112);stroke-linejoin:round;stroke-width:3px;"><g><path d="M 0 45 L 94.78125 45 "/><path d="M 0 45 L 94.78125 45 " class="clickable"/></g></g><g id="sprotty_ArchitectureBlockImpl$flash_mp_data_region_sel/BPortImpl$phase_i_to_ArchitectureBlockImpl$flash_mp_data_region_sel/AlwaysBlockImpl$null7/GPortImpl$phase_iIN" class="sprotty-edge thick edge" style="fill:none;stroke:rgb(112, 112, 112);stroke-linejoin:round;stroke-width:3px;"><g><path d="M 0 79 L 72.78125 79 C 73.78125 79 74.78125 78 74.78125 77 L 74.78125 57 C 74.78125 56 75.78125 55 76.78125 55 L 94.78125 55 "/><path d="M 0 79 L 72.78125 79 C 73.78125 79 74.78125 78 74.78125 77 L 74.78125 57 C 74.78125 56 75.78125 55 76.78125 55 L 94.78125 55 " class="clickable"/></g></g><g id="sprotty_ArchitectureBlockImpl$flash_mp_data_region_sel/BPortImpl$req_i_to_ArchitectureBlockImpl$flash_mp_data_region_sel/AlwaysBlockImpl$null7/GPortImpl$req_iIN" class="sprotty-edge edge" style="fill:none;stroke:rgb(112, 112, 112);stroke-linejoin:round;"><g><path d="M 0 113 L 82.78125 113 C 83.78125 113 84.78125 112 84.78125 111 L 84.78125 67 C 84.78125 66 85.78125 65 86.78125 65 L 94.78125 65 "/><path d="M 0 113 L 82.78125 113 C 83.78125 113 84.78125 112 84.78125 111 L 84.78125 67 C 84.78125 66 85.78125 65 86.78125 65 L 94.78125 65 " class="clickable"/></g></g><g id="sprotty_ArchitectureBlockImpl$flash_mp_data_region_sel/AlwaysBlockImpl$null7/GPortImpl$region_matchOUT_to_ArchitectureBlockImpl$flash_mp_data_region_sel/AssignmentBlockImpl$region_sel/GPortImpl$region_matchIN" class="sprotty-edge thick edge" style="fill:none;stroke:rgb(112, 112, 112);stroke-linejoin:round;stroke-width:3px;"><g><path d="M 158.53125 55 L 251.390625 55 "/><path d="M 158.53125 55 L 251.390625 55 " class="clickable"/></g></g><g id="sprotty_ArchitectureBlockImpl$flash_mp_data_region_sel/AlwaysBlockImpl$null7/GPortImpl$region_matchOUT_to_ArchitectureBlockImpl$flash_mp_data_region_sel/GenerateStatementBlockImpl$gen_region_priority/GPortImpl$region_match" class="sprotty-edge thick edge" style="fill:none;stroke:rgb(112, 112, 112);stroke-linejoin:round;stroke-width:3px;"><g><path d="M 158.53125 55 L 166.53125 55 C 167.53125 55 168.53125 56 168.53125 57 L 168.53125 130 C 168.53125 131 169.53125 132 170.53125 132 L 178.53125 132 "/><path d="M 158.53125 55 L 166.53125 55 C 167.53125 55 168.53125 56 168.53125 57 L 168.53125 130 C 168.53125 131 169.53125 132 170.53125 132 L 178.53125 132 " class="clickable"/></g><circle r="3" id="sprotty_ArchitectureBlockImpl$flash_mp_data_region_sel/AlwaysBlockImpl$null7/GPortImpl$region_matchOUT_to_ArchitectureBlockImpl$flash_mp_data_region_sel/GenerateStatementBlockImpl$gen_region_priority/GPortImpl$region_match/junction0" transform="translate(168.53125, 55)" class="sprotty-junction thick" style="fill:rgb(112, 112, 112);stroke:none;"/><circle r="3" id="sprotty_ArchitectureBlockImpl$flash_mp_data_region_sel/AlwaysBlockImpl$null7/GPortImpl$region_matchOUT_to_ArchitectureBlockImpl$flash_mp_data_region_sel/GenerateStatementBlockImpl$gen_region_priority/GPortImpl$region_match/junction1" transform="translate(168.53125, 132)" class="sprotty-junction thick" style="fill:rgb(112, 112, 112);stroke:none;"/></g><g id="sprotty_ArchitectureBlockImpl$flash_mp_data_region_sel/AssignmentBlockImpl$region_sel/GPortImpl$region_matchOUT_to_ArchitectureBlockImpl$flash_mp_data_region_sel/AlwaysBlockImpl$null6/GPortImpl$region_selIN" class="sprotty-edge thick edge" style="fill:none;stroke:rgb(112, 112, 112);stroke-linejoin:round;stroke-width:3px;"><g><path d="M 271.109375 55 L 363.96875 55 "/><path d="M 271.109375 55 L 363.96875 55 " class="clickable"/></g></g><g id="sprotty_ArchitectureBlockImpl$flash_mp_data_region_sel/GenerateStatementBlockImpl$gen_region_priority/GPortImpl$region_match_to_ArchitectureBlockImpl$flash_mp_data_region_sel/AlwaysBlockImpl$null6/GPortImpl$region_selIN" class="sprotty-edge thick edge" style="fill:none;stroke:rgb(112, 112, 112);stroke-linejoin:round;stroke-width:3px;"><g><path d="M 178.53125 132 L 170.53125 132 C 169.53125 132 168.53125 133 168.53125 134 L 168.53125 176 C 168.53125 177 169.53125 178 170.53125 178 L 351.96875 178 C 352.96875 178 353.96875 177 353.96875 176 L 353.96875 57 C 353.96875 56 354.96875 55 355.96875 55 L 363.96875 55 "/><path d="M 178.53125 132 L 170.53125 132 C 169.53125 132 168.53125 133 168.53125 134 L 168.53125 176 C 168.53125 177 169.53125 178 170.53125 178 L 351.96875 178 C 352.96875 178 353.96875 177 353.96875 176 L 353.96875 57 C 353.96875 56 354.96875 55 355.96875 55 L 363.96875 55 " class="clickable"/></g><circle r="3" id="sprotty_ArchitectureBlockImpl$flash_mp_data_region_sel/GenerateStatementBlockImpl$gen_region_priority/GPortImpl$region_match_to_ArchitectureBlockImpl$flash_mp_data_region_sel/AlwaysBlockImpl$null6/GPortImpl$region_selIN/junction0" transform="translate(353.96875, 55)" class="sprotty-junction thick" style="fill:rgb(112, 112, 112);stroke:none;"/></g><g id="sprotty_ArchitectureBlockImpl$flash_mp_data_region_sel/GenerateStatementBlockImpl$gen_region_priority" transform="translate(178.53125, 86)" class="generate"><g class="sprotty-block sprotty-block-generate" style="fill:rgb(255, 255, 255);stroke:rgb(48, 48, 48);stroke-dasharray:0px;"><rect x="0" y="0" rx="1" ry="1" width="165.4375" height="82" style="stroke-dasharray:3px, 1px;"/><text x="82.71875" y="12" class="sprotty-block-name" style="cursor:pointer;font-weight:700;perspective-origin:82.7188px 0px;fill:rgb(48, 48, 48);stroke:rgba(0, 0, 0, 0);dominant-baseline:middle;text-anchor:middle;">gen_region_priority</text><line x1="0" y1="20" x2="165.4375" y2="20" style="stroke-dasharray:3px, 1px;"/></g><g id="sprotty_ArchitectureBlockImpl$flash_mp_data_region_sel/GenerateStatementBlockImpl$gen_region_priority/GPortImpl$region_match_to_ArchitectureBlockImpl$flash_mp_data_region_sel/GenerateStatementBlockImpl$gen_region_priority/AssignmentBlockImpl$region_sel/GPortImpl$region_matchIN" class="sprotty-edge thick edge" style="fill:none;stroke:rgb(112, 112, 112);stroke-linejoin:round;stroke-width:3px;"><g><path d="M 0 46 L 35 46 "/><path d="M 0 46 L 35 46 " class="clickable"/></g></g><g id="sprotty_ArchitectureBlockImpl$flash_mp_data_region_sel/GenerateStatementBlockImpl$gen_region_priority/AssignmentBlockImpl$region_sel/GPortImpl$region_matchOUT_to_ArchitectureBlockImpl$flash_mp_data_region_sel/GenerateStatementBlockImpl$gen_region_priority/GPortImpl$region_match" class="sprotty-edge thick edge" style="fill:none;stroke:rgb(112, 112, 112);stroke-linejoin:round;stroke-width:3px;"><g><path d="M 54.71875 46 L 62.71875 46 C 63.71875 46 64.71875 47 64.71875 48 L 64.71875 65 C 64.71875 66 63.71875 67 62.71875 67 L 27 67 C 26 67 25 66 25 65 L 25 48 C 25 47 24 46 23 46 L 0 46 "/><path d="M 54.71875 46 L 62.71875 46 C 63.71875 46 64.71875 47 64.71875 48 L 64.71875 65 C 64.71875 66 63.71875 67 62.71875 67 L 27 67 C 26 67 25 66 25 65 L 25 48 C 25 47 24 46 23 46 L 0 46 " class="clickable"/></g><circle r="3" id="sprotty_ArchitectureBlockImpl$flash_mp_data_region_sel/GenerateStatementBlockImpl$gen_region_priority/AssignmentBlockImpl$region_sel/GPortImpl$region_matchOUT_to_ArchitectureBlockImpl$flash_mp_data_region_sel/GenerateStatementBlockImpl$gen_region_priority/GPortImpl$region_match/junction0" transform="translate(25, 46)" class="sprotty-junction thick" style="fill:rgb(112, 112, 112);stroke:none;"/></g><g id="sprotty_ArchitectureBlockImpl$flash_mp_data_region_sel/GenerateStatementBlockImpl$gen_region_priority/AssignmentBlockImpl$region_sel" transform="translate(35, 35)" class="statement"><rect x="0" y="0" rx="10" ry="5" width="19.71875" height="22" class="sprotty-node" style="fill:rgb(245, 245, 245);stroke:rgb(112, 112, 112);"/><text class="clickable sprotty-label statementtype" id="sprotty_ArchitectureBlockImpl$flash_mp_data_region_sel/GenerateStatementBlockImpl$gen_region_priority/AssignmentBlockImpl$region_sel/labeltype" transform="translate(5, 5) translate(4.71875, 9)" style="cursor:default;font-size:8px;font-weight:700;perspective-origin:0.140625px 0px;fill:rgb(112, 112, 112);text-anchor:middle;">&lt;=</text><g id="sprotty_ArchitectureBlockImpl$flash_mp_data_region_sel/GenerateStatementBlockImpl$gen_region_priority/AssignmentBlockImpl$region_sel/GPortImpl$region_matchIN" transform="translate(0, 11)" class="sprotty-hidden hidden" style="display:block;height:0px;width:0px;"/><g id="sprotty_ArchitectureBlockImpl$flash_mp_data_region_sel/GenerateStatementBlockImpl$gen_region_priority/AssignmentBlockImpl$region_sel/GPortImpl$region_matchOUT" transform="translate(19.71875, 11)" class="sprotty-hidden hidden" style="display:block;height:0px;width:0px;"/></g><g id="sprotty_ArchitectureBlockImpl$flash_mp_data_region_sel/GenerateStatementBlockImpl$gen_region_priority/GPortImpl$region_match" transform="translate(0, 46)" class="triangle"><path d="M 0,0 L 5,2.5 L 0,5 Z" transform="translate(-1.67, -2.5)" class="sprotty-port" style="fill:rgb(48, 48, 48);stroke:rgb(48, 48, 48);"/></g></g><g id="sprotty_ArchitectureBlockImpl$flash_mp_data_region_sel/AlwaysBlockImpl$null6" transform="translate(363.96875, 44)" class="statement"><rect x="0" y="0" rx="10" ry="5" width="63.75" height="22" class="sprotty-node" style="fill:rgb(245, 245, 245);stroke:rgb(112, 112, 112);"/><text class="clickable sprotty-label statementtype" id="sprotty_ArchitectureBlockImpl$flash_mp_data_region_sel/AlwaysBlockImpl$null6/labeltype" transform="translate(5, 5) translate(26.875, 9)" style="cursor:default;font-size:8px;font-weight:700;perspective-origin:0px 0px;fill:rgb(112, 112, 112);text-anchor:middle;">always_comb</text><g id="sprotty_ArchitectureBlockImpl$flash_mp_data_region_sel/AlwaysBlockImpl$null6/GPortImpl$region_selIN" transform="translate(0, 11)" class="sprotty-hidden hidden" style="display:block;height:0px;width:0px;"/><g id="sprotty_ArchitectureBlockImpl$flash_mp_data_region_sel/AlwaysBlockImpl$null6/GPortImpl$sel_cfg_oOUT" transform="translate(63.75, 11)" class="sprotty-hidden hidden" style="display:block;height:0px;width:0px;"/></g><g id="sprotty_ArchitectureBlockImpl$flash_mp_data_region_sel/AlwaysBlockImpl$null7" transform="translate(94.78125, 35)" class="statement"><rect x="0" y="0" rx="10" ry="5" width="63.75" height="40" class="sprotty-node" style="fill:rgb(245, 245, 245);stroke:rgb(112, 112, 112);"/><text class="clickable sprotty-label statementtype" id="sprotty_ArchitectureBlockImpl$flash_mp_data_region_sel/AlwaysBlockImpl$null7/labeltype" transform="translate(5, 14) translate(26.875, 9)" style="cursor:default;font-size:8px;font-weight:700;perspective-origin:0px 0px;fill:rgb(112, 112, 112);text-anchor:middle;">always_comb</text><g id="sprotty_ArchitectureBlockImpl$flash_mp_data_region_sel/AlwaysBlockImpl$null7/GPortImpl$req_iIN" transform="translate(0, 30)" class="sprotty-hidden hidden" style="display:block;height:0px;width:0px;"/><g id="sprotty_ArchitectureBlockImpl$flash_mp_data_region_sel/AlwaysBlockImpl$null7/GPortImpl$phase_iIN" transform="translate(0, 20)" class="sprotty-hidden hidden" style="display:block;height:0px;width:0px;"/><g id="sprotty_ArchitectureBlockImpl$flash_mp_data_region_sel/AlwaysBlockImpl$null7/GPortImpl$addr_iIN" transform="translate(0, 10)" class="sprotty-hidden hidden" style="display:block;height:0px;width:0px;"/><g id="sprotty_ArchitectureBlockImpl$flash_mp_data_region_sel/AlwaysBlockImpl$null7/GPortImpl$region_matchOUT" transform="translate(63.75, 20)" class="sprotty-hidden hidden" style="display:block;height:0px;width:0px;"/></g><g id="sprotty_ArchitectureBlockImpl$flash_mp_data_region_sel/AssignmentBlockImpl$region_sel" transform="translate(251.390625, 44)" class="statement"><rect x="0" y="0" rx="10" ry="5" width="19.71875" height="22" class="sprotty-node" style="fill:rgb(245, 245, 245);stroke:rgb(112, 112, 112);"/><text class="clickable sprotty-label statementtype" id="sprotty_ArchitectureBlockImpl$flash_mp_data_region_sel/AssignmentBlockImpl$region_sel/labeltype" transform="translate(5, 5) translate(4.71875, 9)" style="cursor:default;font-size:8px;font-weight:700;perspective-origin:0.140625px 0px;fill:rgb(112, 112, 112);text-anchor:middle;">&lt;=</text><g id="sprotty_ArchitectureBlockImpl$flash_mp_data_region_sel/AssignmentBlockImpl$region_sel/GPortImpl$region_matchIN" transform="translate(0, 11)" class="sprotty-hidden hidden" style="display:block;height:0px;width:0px;"/><g id="sprotty_ArchitectureBlockImpl$flash_mp_data_region_sel/AssignmentBlockImpl$region_sel/GPortImpl$region_matchOUT" transform="translate(19.71875, 11)" class="sprotty-hidden hidden" style="display:block;height:0px;width:0px;"/></g><g id="sprotty_ArchitectureBlockImpl$flash_mp_data_region_sel/BPortImpl$region_attrs_i" transform="translate(0, 198)" class="triangle"><path d="M 0,0 L 5,2.5 L 0,5 Z" transform="translate(-1.67, -2.5)" class="sprotty-port" style="fill:rgb(48, 48, 48);stroke:rgb(48, 48, 48);"/><text class="clickable sprotty-label port" id="sprotty_ArchitectureBlockImpl$flash_mp_data_region_sel/BPortImpl$region_attrs_i/label" transform="translate(6, 6) translate(39.015625, 14)" style="cursor:default;font-size:12px;perspective-origin:0px 0px;fill:rgb(48, 48, 48);text-anchor:middle;">region_attrs_i</text></g><g id="sprotty_ArchitectureBlockImpl$flash_mp_data_region_sel/BPortImpl$addr_i" transform="translate(0, 45)" class="triangle"><path d="M 0,0 L 5,2.5 L 0,5 Z" transform="translate(-1.67, -2.5)" class="sprotty-port" style="fill:rgb(48, 48, 48);stroke:rgb(48, 48, 48);"/><text class="clickable sprotty-label port" id="sprotty_ArchitectureBlockImpl$flash_mp_data_region_sel/BPortImpl$addr_i/label" transform="translate(6, 6) translate(18.15625, 14)" style="cursor:default;font-size:12px;perspective-origin:0px 0px;fill:rgb(48, 48, 48);text-anchor:middle;">addr_i</text></g><g id="sprotty_ArchitectureBlockImpl$flash_mp_data_region_sel/BPortImpl$phase_i" transform="translate(0, 79)" class="triangle"><path d="M 0,0 L 5,2.5 L 0,5 Z" transform="translate(-1.67, -2.5)" class="sprotty-port" style="fill:rgb(48, 48, 48);stroke:rgb(48, 48, 48);"/><text class="clickable sprotty-label port" id="sprotty_ArchitectureBlockImpl$flash_mp_data_region_sel/BPortImpl$phase_i/label" transform="translate(6, 6) translate(21.890625, 14)" style="cursor:default;font-size:12px;perspective-origin:0px 0px;fill:rgb(48, 48, 48);text-anchor:middle;">phase_i</text></g><g id="sprotty_ArchitectureBlockImpl$flash_mp_data_region_sel/BPortImpl$req_i" transform="translate(0, 113)" class="triangle"><path d="M 0,0 L 5,2.5 L 0,5 Z" transform="translate(-1.67, -2.5)" class="sprotty-port" style="fill:rgb(48, 48, 48);stroke:rgb(48, 48, 48);"/><text class="clickable sprotty-label port" id="sprotty_ArchitectureBlockImpl$flash_mp_data_region_sel/BPortImpl$req_i/label" transform="translate(6, 6) translate(14.3125, 14)" style="cursor:default;font-size:12px;perspective-origin:0px 0px;fill:rgb(48, 48, 48);text-anchor:middle;">req_i</text></g><g id="sprotty_ArchitectureBlockImpl$flash_mp_data_region_sel/BPortImpl$sel_cfg_o" transform="translate(501.6875, 55)" class="triangle"><path d="M 0,0 L 5,2.5 L 0,5 Z" transform="translate(-1.67, -2.5)" class="sprotty-port" style="fill:rgb(48, 48, 48);stroke:rgb(48, 48, 48);"/><text class="clickable sprotty-label port" id="sprotty_ArchitectureBlockImpl$flash_mp_data_region_sel/BPortImpl$sel_cfg_o/label" transform="translate(-58.96875, 6) translate(26.484375, 14)" style="cursor:default;font-size:12px;perspective-origin:0px 0px;fill:rgb(48, 48, 48);text-anchor:middle;">sel_cfg_o</text></g></g></g></svg>