<svg xmlns="http://www.w3.org/2000/svg" id="sprotty_work.timer_core" class="sprotty-graph sprotty-block-diagram blockdiagram" style="font-family:&quot;Noto Sans&quot;, Helvetica, Arial, sans-serif;perspective-origin:0px 0px;transform-origin:0px 0px;" version="1.1" viewBox="7 7 352.515625 337" width="352.515625" height="337"><g transform="scale(1) translate(0,0)"><g id="sprotty_ArchitectureBlockImpl$timer_core" transform="translate(12, 12)" class="architecture"><g class="sprotty-block" style="fill:rgb(255, 255, 255);stroke:rgb(48, 48, 48);stroke-dasharray:0px;"><rect x="0" y="0" rx="1" ry="1" width="342.515625" height="327"/><text x="171.2578125" y="12" class="sprotty-block-name" style="cursor:pointer;font-weight:700;perspective-origin:171.25px 0px;fill:rgb(48, 48, 48);stroke:rgba(0, 0, 0, 0);dominant-baseline:middle;text-anchor:middle;">timer_core</text><line x1="0" y1="20" x2="342.515625" y2="20"/></g><g id="sprotty_ArchitectureBlockImpl$timer_core/AssignmentBlockImpl$tick/GPortImpl$tickOUT_to_ArchitectureBlockImpl$timer_core/BPortImpl$tick" class="sprotty-edge edge" style="fill:none;stroke:rgb(112, 112, 112);stroke-linejoin:round;"><g><path d="M 270.640625 225 L 342.515625 225 "/><path d="M 270.640625 225 L 342.515625 225 " class="clickable"/></g></g><g id="sprotty_ArchitectureBlockImpl$timer_core/AssignmentBlockImpl$mtime_d/GPortImpl$mtime_dOUT_to_ArchitectureBlockImpl$timer_core/BPortImpl$mtime_d" class="sprotty-edge thick edge" style="fill:none;stroke:rgb(112, 112, 112);stroke-linejoin:round;stroke-width:3px;"><g><path d="M 165.03645833333331 50 L 342.515625 50 "/><path d="M 165.03645833333331 50 L 342.515625 50 " class="clickable"/></g></g><g id="sprotty_ArchitectureBlockImpl$timer_core/GenerateStatementBlockImpl$gen_intr/GPortImpl$intr_to_ArchitectureBlockImpl$timer_core/BPortImpl$intr" class="sprotty-edge thick edge" style="fill:none;stroke:rgb(112, 112, 112);stroke-linejoin:round;stroke-width:3px;"><g><path d="M 202.01171875 140 L 342.515625 140 "/><path d="M 202.01171875 140 L 342.515625 140 " class="clickable"/></g></g><g id="sprotty_ArchitectureBlockImpl$timer_core/BPortImpl$active_to_ArchitectureBlockImpl$timer_core/AssignmentBlockImpl$tick/GPortImpl$activeIN" class="sprotty-edge edge" style="fill:none;stroke:rgb(112, 112, 112);stroke-linejoin:round;"><g><path d="M 0 186 L 238.921875 186 C 239.921875 186 240.921875 187 240.921875 188 L 240.921875 213 C 240.921875 214 241.921875 215 242.921875 215 L 250.921875 215 "/><path d="M 0 186 L 238.921875 186 C 239.921875 186 240.921875 187 240.921875 188 L 240.921875 213 C 240.921875 214 241.921875 215 242.921875 215 L 250.921875 215 " class="clickable"/></g></g><g id="sprotty_ArchitectureBlockImpl$timer_core/BPortImpl$prescaler_to_ArchitectureBlockImpl$timer_core/AssignmentBlockImpl$tick/GPortImpl$prescalerIN" class="sprotty-edge thick edge" style="fill:none;stroke:rgb(112, 112, 112);stroke-linejoin:round;stroke-width:3px;"><g><path d="M 0 288 L 238.921875 288 C 239.921875 288 240.921875 287 240.921875 286 L 240.921875 237 C 240.921875 236 241.921875 235 242.921875 235 L 250.921875 235 "/><path d="M 0 288 L 238.921875 288 C 239.921875 288 240.921875 287 240.921875 286 L 240.921875 237 C 240.921875 236 241.921875 235 242.921875 235 L 250.921875 235 " class="clickable"/></g></g><g id="sprotty_ArchitectureBlockImpl$timer_core/BPortImpl$mtime_to_ArchitectureBlockImpl$timer_core/AssignmentBlockImpl$mtime_d/GPortImpl$mtimeIN" class="sprotty-edge thick edge" style="fill:none;stroke:rgb(112, 112, 112);stroke-linejoin:round;stroke-width:3px;"><g><path d="M 0 79 L 100.375 79 C 101.375 79 102.375 78 102.375 77 L 102.375 57 C 102.375 56 103.375 55 104.375 55 L 145.31770833333331 55 "/><path d="M 0 79 L 100.375 79 C 101.375 79 102.375 78 102.375 77 L 102.375 57 C 102.375 56 103.375 55 104.375 55 L 145.31770833333331 55 " class="clickable"/></g><circle r="3" id="sprotty_ArchitectureBlockImpl$timer_core/BPortImpl$mtime_to_ArchitectureBlockImpl$timer_core/AssignmentBlockImpl$mtime_d/GPortImpl$mtimeIN/junction0" transform="translate(102.375, 79)" class="sprotty-junction thick" style="fill:rgb(112, 112, 112);stroke:none;"/></g><g id="sprotty_ArchitectureBlockImpl$timer_core/BPortImpl$step_to_ArchitectureBlockImpl$timer_core/AssignmentBlockImpl$mtime_d/GPortImpl$stepIN" class="sprotty-edge thick edge" style="fill:none;stroke:rgb(112, 112, 112);stroke-linejoin:round;stroke-width:3px;"><g><path d="M 0 45 L 145.31770833333331 45 "/><path d="M 0 45 L 145.31770833333331 45 " class="clickable"/></g></g><g id="sprotty_ArchitectureBlockImpl$timer_core/BPortImpl$clk_i_to_ArchitectureBlockImpl$timer_core/AlwaysBlockImpl$generate_tick/GPortImpl$clk_iIN" class="sprotty-edge edge" style="fill:none;stroke:rgb(112, 112, 112);stroke-linejoin:round;"><g><path d="M 0 220 L 112.375 220 "/><path d="M 0 220 L 112.375 220 " class="clickable"/></g></g><g id="sprotty_ArchitectureBlockImpl$timer_core/BPortImpl$rst_ni_to_ArchitectureBlockImpl$timer_core/AlwaysBlockImpl$generate_tick/GPortImpl$rst_niIN" class="sprotty-edge edge" style="fill:none;stroke:rgb(112, 112, 112);stroke-linejoin:round;"><g><path d="M 0 254 L 90.375 254 C 91.375 254 92.375 253 92.375 252 L 92.375 232 C 92.375 231 93.375 230 94.375 230 L 112.375 230 "/><path d="M 0 254 L 90.375 254 C 91.375 254 92.375 253 92.375 252 L 92.375 232 C 92.375 231 93.375 230 94.375 230 L 112.375 230 " class="clickable"/></g></g><g id="sprotty_ArchitectureBlockImpl$timer_core/BPortImpl$active_to_ArchitectureBlockImpl$timer_core/AlwaysBlockImpl$generate_tick/GPortImpl$activeIN" class="sprotty-edge edge" style="fill:none;stroke:rgb(112, 112, 112);stroke-linejoin:round;"><g><path d="M 0 186 L 90.375 186 C 91.375 186 92.375 187 92.375 188 L 92.375 208 C 92.375 209 93.375 210 94.375 210 L 112.375 210 "/><path d="M 0 186 L 90.375 186 C 91.375 186 92.375 187 92.375 188 L 92.375 208 C 92.375 209 93.375 210 94.375 210 L 112.375 210 " class="clickable"/></g><circle r="2" id="sprotty_ArchitectureBlockImpl$timer_core/BPortImpl$active_to_ArchitectureBlockImpl$timer_core/AlwaysBlockImpl$generate_tick/GPortImpl$activeIN/junction0" transform="translate(92.375, 186)" class="sprotty-junction junction" style="fill:rgb(112, 112, 112);stroke:none;"/></g><g id="sprotty_ArchitectureBlockImpl$timer_core/BPortImpl$prescaler_to_ArchitectureBlockImpl$timer_core/AlwaysBlockImpl$generate_tick/GPortImpl$prescalerIN" class="sprotty-edge thick edge" style="fill:none;stroke:rgb(112, 112, 112);stroke-linejoin:round;stroke-width:3px;"><g><path d="M 0 288 L 100.375 288 C 101.375 288 102.375 287 102.375 286 L 102.375 242 C 102.375 241 103.375 240 104.375 240 L 112.375 240 "/><path d="M 0 288 L 100.375 288 C 101.375 288 102.375 287 102.375 286 L 102.375 242 C 102.375 241 103.375 240 104.375 240 L 112.375 240 " class="clickable"/></g><circle r="3" id="sprotty_ArchitectureBlockImpl$timer_core/BPortImpl$prescaler_to_ArchitectureBlockImpl$timer_core/AlwaysBlockImpl$generate_tick/GPortImpl$prescalerIN/junction0" transform="translate(102.375, 288)" class="sprotty-junction thick" style="fill:rgb(112, 112, 112);stroke:none;"/></g><g id="sprotty_ArchitectureBlockImpl$timer_core/BPortImpl$active_to_ArchitectureBlockImpl$timer_core/GenerateStatementBlockImpl$gen_intr/GPortImpl$active" class="sprotty-edge edge" style="fill:none;stroke:rgb(112, 112, 112);stroke-linejoin:round;"><g><path d="M 0 186 L 90.375 186 C 91.375 186 92.375 185 92.375 184 L 92.375 132 C 92.375 131 93.375 130 94.375 130 L 122.01171875 130 "/><path d="M 0 186 L 90.375 186 C 91.375 186 92.375 185 92.375 184 L 92.375 132 C 92.375 131 93.375 130 94.375 130 L 122.01171875 130 " class="clickable"/></g></g><g id="sprotty_ArchitectureBlockImpl$timer_core/BPortImpl$mtime_to_ArchitectureBlockImpl$timer_core/GenerateStatementBlockImpl$gen_intr/GPortImpl$mtime" class="sprotty-edge thick edge" style="fill:none;stroke:rgb(112, 112, 112);stroke-linejoin:round;stroke-width:3px;"><g><path d="M 0 79 L 100.375 79 C 101.375 79 102.375 80 102.375 81 L 102.375 138 C 102.375 139 103.375 140 104.375 140 L 122.01171875 140 "/><path d="M 0 79 L 100.375 79 C 101.375 79 102.375 80 102.375 81 L 102.375 138 C 102.375 139 103.375 140 104.375 140 L 122.01171875 140 " class="clickable"/></g></g><g id="sprotty_ArchitectureBlockImpl$timer_core/BPortImpl$mtimecmp_to_ArchitectureBlockImpl$timer_core/GenerateStatementBlockImpl$gen_intr/GPortImpl$mtimecmp" class="sprotty-edge thick edge" style="fill:none;stroke:rgb(112, 112, 112);stroke-linejoin:round;stroke-width:3px;"><g><path d="M 0 150 L 122.01171875 150 "/><path d="M 0 150 L 122.01171875 150 " class="clickable"/></g></g><g id="sprotty_ArchitectureBlockImpl$timer_core/AlwaysBlockImpl$generate_tick/GPortImpl$tick_countOUT_to_ArchitectureBlockImpl$timer_core/AssignmentBlockImpl$tick/GPortImpl$tick_countIN" class="sprotty-edge thick edge" style="fill:none;stroke:rgb(112, 112, 112);stroke-linejoin:round;stroke-width:3px;"><g><path d="M 230.921875 225 L 250.921875 225 "/><path d="M 230.921875 225 L 250.921875 225 " class="clickable"/></g></g><g id="sprotty_ArchitectureBlockImpl$timer_core/GenerateStatementBlockImpl$gen_intr" transform="translate(122.01171875, 85)" class="generate"><g class="sprotty-block sprotty-block-generate" style="fill:rgb(255, 255, 255);stroke:rgb(48, 48, 48);stroke-dasharray:0px;"><rect x="0" y="0" rx="1" ry="1" width="80" height="90" style="stroke-dasharray:3px, 1px;"/><text x="40" y="12" class="sprotty-block-name" style="cursor:pointer;font-weight:700;perspective-origin:40px 0px;fill:rgb(48, 48, 48);stroke:rgba(0, 0, 0, 0);dominant-baseline:middle;text-anchor:middle;">gen_intr</text><line x1="0" y1="20" x2="80" y2="20" style="stroke-dasharray:3px, 1px;"/></g><g id="sprotty_ArchitectureBlockImpl$timer_core/GenerateStatementBlockImpl$gen_intr/AssignmentBlockImpl$intr/GPortImpl$intrOUT_to_ArchitectureBlockImpl$timer_core/GenerateStatementBlockImpl$gen_intr/GPortImpl$intr" class="sprotty-edge thick edge" style="fill:none;stroke:rgb(112, 112, 112);stroke-linejoin:round;stroke-width:3px;"><g><path d="M 34.71875 55 L 80 55 "/><path d="M 34.71875 55 L 80 55 " class="clickable"/></g></g><g id="sprotty_ArchitectureBlockImpl$timer_core/GenerateStatementBlockImpl$gen_intr/GPortImpl$active_to_ArchitectureBlockImpl$timer_core/GenerateStatementBlockImpl$gen_intr/AssignmentBlockImpl$intr/GPortImpl$activeIN" class="sprotty-edge edge" style="fill:none;stroke:rgb(112, 112, 112);stroke-linejoin:round;"><g><path d="M 0 45 L 15 45 "/><path d="M 0 45 L 15 45 " class="clickable"/></g></g><g id="sprotty_ArchitectureBlockImpl$timer_core/GenerateStatementBlockImpl$gen_intr/GPortImpl$mtime_to_ArchitectureBlockImpl$timer_core/GenerateStatementBlockImpl$gen_intr/AssignmentBlockImpl$intr/GPortImpl$mtimeIN" class="sprotty-edge thick edge" style="fill:none;stroke:rgb(112, 112, 112);stroke-linejoin:round;stroke-width:3px;"><g><path d="M 0 55 L 15 55 "/><path d="M 0 55 L 15 55 " class="clickable"/></g></g><g id="sprotty_ArchitectureBlockImpl$timer_core/GenerateStatementBlockImpl$gen_intr/GPortImpl$mtimecmp_to_ArchitectureBlockImpl$timer_core/GenerateStatementBlockImpl$gen_intr/AssignmentBlockImpl$intr/GPortImpl$mtimecmpIN" class="sprotty-edge thick edge" style="fill:none;stroke:rgb(112, 112, 112);stroke-linejoin:round;stroke-width:3px;"><g><path d="M 0 65 L 15 65 "/><path d="M 0 65 L 15 65 " class="clickable"/></g></g><g id="sprotty_ArchitectureBlockImpl$timer_core/GenerateStatementBlockImpl$gen_intr/AssignmentBlockImpl$intr" transform="translate(15, 35)" class="statement"><rect x="0" y="0" rx="10" ry="5" width="19.71875" height="40" class="sprotty-node" style="fill:rgb(245, 245, 245);stroke:rgb(112, 112, 112);"/><text class="clickable sprotty-label statementtype" id="sprotty_ArchitectureBlockImpl$timer_core/GenerateStatementBlockImpl$gen_intr/AssignmentBlockImpl$intr/labeltype" transform="translate(5, 14) translate(4.71875, 9)" style="cursor:default;font-size:8px;font-weight:700;perspective-origin:0.140625px 0px;fill:rgb(112, 112, 112);text-anchor:middle;">&lt;=</text><g id="sprotty_ArchitectureBlockImpl$timer_core/GenerateStatementBlockImpl$gen_intr/AssignmentBlockImpl$intr/GPortImpl$mtimecmpIN" transform="translate(0, 30)" class="sprotty-hidden hidden" style="display:block;height:0px;width:0px;"/><g id="sprotty_ArchitectureBlockImpl$timer_core/GenerateStatementBlockImpl$gen_intr/AssignmentBlockImpl$intr/GPortImpl$mtimeIN" transform="translate(0, 20)" class="sprotty-hidden hidden" style="display:block;height:0px;width:0px;"/><g id="sprotty_ArchitectureBlockImpl$timer_core/GenerateStatementBlockImpl$gen_intr/AssignmentBlockImpl$intr/GPortImpl$activeIN" transform="translate(0, 10)" class="sprotty-hidden hidden" style="display:block;height:0px;width:0px;"/><g id="sprotty_ArchitectureBlockImpl$timer_core/GenerateStatementBlockImpl$gen_intr/AssignmentBlockImpl$intr/GPortImpl$intrOUT" transform="translate(19.71875, 20)" class="sprotty-hidden hidden" style="display:block;height:0px;width:0px;"/></g><g id="sprotty_ArchitectureBlockImpl$timer_core/GenerateStatementBlockImpl$gen_intr/GPortImpl$mtimecmp" transform="translate(0, 65)" class="triangle"><path d="M 0,0 L 5,2.5 L 0,5 Z" transform="translate(-1.67, -2.5)" class="sprotty-port" style="fill:rgb(48, 48, 48);stroke:rgb(48, 48, 48);"/></g><g id="sprotty_ArchitectureBlockImpl$timer_core/GenerateStatementBlockImpl$gen_intr/GPortImpl$mtime" transform="translate(0, 55)" class="triangle"><path d="M 0,0 L 5,2.5 L 0,5 Z" transform="translate(-1.67, -2.5)" class="sprotty-port" style="fill:rgb(48, 48, 48);stroke:rgb(48, 48, 48);"/></g><g id="sprotty_ArchitectureBlockImpl$timer_core/GenerateStatementBlockImpl$gen_intr/GPortImpl$active" transform="translate(0, 45)" class="triangle"><path d="M 0,0 L 5,2.5 L 0,5 Z" transform="translate(-1.67, -2.5)" class="sprotty-port" style="fill:rgb(48, 48, 48);stroke:rgb(48, 48, 48);"/></g><g id="sprotty_ArchitectureBlockImpl$timer_core/GenerateStatementBlockImpl$gen_intr/GPortImpl$intr" transform="translate(80, 55)" class="triangle"><path d="M 0,0 L 5,2.5 L 0,5 Z" transform="translate(-1.67, -2.5)" class="sprotty-port" style="fill:rgb(48, 48, 48);stroke:rgb(48, 48, 48);"/></g></g><g id="sprotty_ArchitectureBlockImpl$timer_core/AlwaysBlockImpl$generate_tick" transform="translate(112.375, 200)" class="statement"><rect x="0" y="0" rx="10" ry="5" width="118.546875" height="50" class="sprotty-node" style="fill:rgb(245, 245, 245);stroke:rgb(112, 112, 112);"/><text class="clickable sprotty-label statementtext" id="sprotty_ArchitectureBlockImpl$timer_core/AlwaysBlockImpl$generate_tick/labeltext" transform="translate(5, 7) translate(54.109375, 19)" style="cursor:default;font-weight:700;perspective-origin:0.15625px 0px;fill:rgb(112, 112, 112);text-anchor:middle;">generate_tick</text><text class="clickable sprotty-label statementtype" id="sprotty_ArchitectureBlockImpl$timer_core/AlwaysBlockImpl$generate_tick/labeltype" transform="translate(39.828125, 31) translate(18.828125, 9)" style="cursor:default;font-size:8px;font-weight:700;perspective-origin:0.609375px 0px;fill:rgb(112, 112, 112);text-anchor:middle;">always_ff</text><g id="sprotty_ArchitectureBlockImpl$timer_core/AlwaysBlockImpl$generate_tick/GPortImpl$prescalerIN" transform="translate(0, 40)" class="sprotty-hidden hidden" style="display:block;height:0px;width:0px;"/><g id="sprotty_ArchitectureBlockImpl$timer_core/AlwaysBlockImpl$generate_tick/GPortImpl$activeIN" transform="translate(0, 10)" class="sprotty-hidden hidden" style="display:block;height:0px;width:0px;"/><g id="sprotty_ArchitectureBlockImpl$timer_core/AlwaysBlockImpl$generate_tick/GPortImpl$rst_niIN" transform="translate(0, 30)" class="sprotty-hidden hidden" style="display:block;height:0px;width:0px;"/><g id="sprotty_ArchitectureBlockImpl$timer_core/AlwaysBlockImpl$generate_tick/GPortImpl$clk_iIN" transform="translate(0, 20)" class="sprotty-hidden hidden" style="display:block;height:0px;width:0px;"/><g id="sprotty_ArchitectureBlockImpl$timer_core/AlwaysBlockImpl$generate_tick/GPortImpl$tick_countOUT" transform="translate(118.546875, 25)" class="sprotty-hidden hidden" style="display:block;height:0px;width:0px;"/></g><g id="sprotty_ArchitectureBlockImpl$timer_core/AssignmentBlockImpl$mtime_d" transform="translate(145.31770833333331, 35)" class="statement"><rect x="0" y="0" rx="10" ry="5" width="19.71875" height="30" class="sprotty-node" style="fill:rgb(245, 245, 245);stroke:rgb(112, 112, 112);"/><text class="clickable sprotty-label statementtype" id="sprotty_ArchitectureBlockImpl$timer_core/AssignmentBlockImpl$mtime_d/labeltype" transform="translate(5, 9) translate(4.71875, 9)" style="cursor:default;font-size:8px;font-weight:700;perspective-origin:0.140625px 0px;fill:rgb(112, 112, 112);text-anchor:middle;">&lt;=</text><g id="sprotty_ArchitectureBlockImpl$timer_core/AssignmentBlockImpl$mtime_d/GPortImpl$stepIN" transform="translate(0, 10)" class="sprotty-hidden hidden" style="display:block;height:0px;width:0px;"/><g id="sprotty_ArchitectureBlockImpl$timer_core/AssignmentBlockImpl$mtime_d/GPortImpl$mtimeIN" transform="translate(0, 20)" class="sprotty-hidden hidden" style="display:block;height:0px;width:0px;"/><g id="sprotty_ArchitectureBlockImpl$timer_core/AssignmentBlockImpl$mtime_d/GPortImpl$mtime_dOUT" transform="translate(19.71875, 15)" class="sprotty-hidden hidden" style="display:block;height:0px;width:0px;"/></g><g id="sprotty_ArchitectureBlockImpl$timer_core/AssignmentBlockImpl$tick" transform="translate(250.921875, 205)" class="statement"><rect x="0" y="0" rx="10" ry="5" width="19.71875" height="40" class="sprotty-node" style="fill:rgb(245, 245, 245);stroke:rgb(112, 112, 112);"/><text class="clickable sprotty-label statementtype" id="sprotty_ArchitectureBlockImpl$timer_core/AssignmentBlockImpl$tick/labeltype" transform="translate(5, 14) translate(4.71875, 9)" style="cursor:default;font-size:8px;font-weight:700;perspective-origin:0.140625px 0px;fill:rgb(112, 112, 112);text-anchor:middle;">&lt;=</text><g id="sprotty_ArchitectureBlockImpl$timer_core/AssignmentBlockImpl$tick/GPortImpl$prescalerIN" transform="translate(0, 30)" class="sprotty-hidden hidden" style="display:block;height:0px;width:0px;"/><g id="sprotty_ArchitectureBlockImpl$timer_core/AssignmentBlockImpl$tick/GPortImpl$tick_countIN" transform="translate(0, 20)" class="sprotty-hidden hidden" style="display:block;height:0px;width:0px;"/><g id="sprotty_ArchitectureBlockImpl$timer_core/AssignmentBlockImpl$tick/GPortImpl$activeIN" transform="translate(0, 10)" class="sprotty-hidden hidden" style="display:block;height:0px;width:0px;"/><g id="sprotty_ArchitectureBlockImpl$timer_core/AssignmentBlockImpl$tick/GPortImpl$tickOUT" transform="translate(19.71875, 20)" class="sprotty-hidden hidden" style="display:block;height:0px;width:0px;"/></g><g id="sprotty_ArchitectureBlockImpl$timer_core/BPortImpl$mtimecmp" transform="translate(0, 150)" class="triangle"><path d="M 0,0 L 5,2.5 L 0,5 Z" transform="translate(-1.67, -2.5)" class="sprotty-port" style="fill:rgb(48, 48, 48);stroke:rgb(48, 48, 48);"/><text class="clickable sprotty-label port" id="sprotty_ArchitectureBlockImpl$timer_core/BPortImpl$mtimecmp/label" transform="translate(6, 6) translate(30.6875, 14)" style="cursor:default;font-size:12px;perspective-origin:0px 0px;fill:rgb(48, 48, 48);text-anchor:middle;">mtimecmp</text></g><g id="sprotty_ArchitectureBlockImpl$timer_core/BPortImpl$mtime" transform="translate(0, 79)" class="triangle"><path d="M 0,0 L 5,2.5 L 0,5 Z" transform="translate(-1.67, -2.5)" class="sprotty-port" style="fill:rgb(48, 48, 48);stroke:rgb(48, 48, 48);"/><text class="clickable sprotty-label port" id="sprotty_ArchitectureBlockImpl$timer_core/BPortImpl$mtime/label" transform="translate(6, 6) translate(18.359375, 14)" style="cursor:default;font-size:12px;perspective-origin:0.171875px 0px;fill:rgb(48, 48, 48);text-anchor:middle;">mtime</text></g><g id="sprotty_ArchitectureBlockImpl$timer_core/BPortImpl$step" transform="translate(0, 45)" class="triangle"><path d="M 0,0 L 5,2.5 L 0,5 Z" transform="translate(-1.67, -2.5)" class="sprotty-port" style="fill:rgb(48, 48, 48);stroke:rgb(48, 48, 48);"/><text class="clickable sprotty-label port" id="sprotty_ArchitectureBlockImpl$timer_core/BPortImpl$step/label" transform="translate(6, 6) translate(11.90625, 14)" style="cursor:default;font-size:12px;perspective-origin:0px 0px;fill:rgb(48, 48, 48);text-anchor:middle;">step</text></g><g id="sprotty_ArchitectureBlockImpl$timer_core/BPortImpl$prescaler" transform="translate(0, 288)" class="triangle"><path d="M 0,0 L 5,2.5 L 0,5 Z" transform="translate(-1.67, -2.5)" class="sprotty-port" style="fill:rgb(48, 48, 48);stroke:rgb(48, 48, 48);"/><text class="clickable sprotty-label port" id="sprotty_ArchitectureBlockImpl$timer_core/BPortImpl$prescaler/label" transform="translate(6, 6) translate(25.859375, 14)" style="cursor:default;font-size:12px;perspective-origin:0.171875px 0px;fill:rgb(48, 48, 48);text-anchor:middle;">prescaler</text></g><g id="sprotty_ArchitectureBlockImpl$timer_core/BPortImpl$active" transform="translate(0, 186)" class="triangle"><path d="M 0,0 L 5,2.5 L 0,5 Z" transform="translate(-1.67, -2.5)" class="sprotty-port" style="fill:rgb(48, 48, 48);stroke:rgb(48, 48, 48);"/><text class="clickable sprotty-label port" id="sprotty_ArchitectureBlockImpl$timer_core/BPortImpl$active/label" transform="translate(6, 6) translate(16.71875, 14)" style="cursor:default;font-size:12px;perspective-origin:0.171875px 0px;fill:rgb(48, 48, 48);text-anchor:middle;">active</text></g><g id="sprotty_ArchitectureBlockImpl$timer_core/BPortImpl$rst_ni" transform="translate(0, 254)" class="triangle"><path d="M 0,0 L 5,2.5 L 0,5 Z" transform="translate(-1.67, -2.5)" class="sprotty-port" style="fill:rgb(48, 48, 48);stroke:rgb(48, 48, 48);"/><text class="clickable sprotty-label port" id="sprotty_ArchitectureBlockImpl$timer_core/BPortImpl$rst_ni/label" transform="translate(6, 6) translate(15.921875, 14)" style="cursor:default;font-size:12px;perspective-origin:0px 0px;fill:rgb(48, 48, 48);text-anchor:middle;">rst_ni</text></g><g id="sprotty_ArchitectureBlockImpl$timer_core/BPortImpl$clk_i" transform="translate(0, 220)" class="triangle"><path d="M 0,0 L 5,2.5 L 0,5 Z" transform="translate(-1.67, -2.5)" class="sprotty-port" style="fill:rgb(48, 48, 48);stroke:rgb(48, 48, 48);"/><text class="clickable sprotty-label port" id="sprotty_ArchitectureBlockImpl$timer_core/BPortImpl$clk_i/label" transform="translate(6, 6) translate(13.09375, 14)" style="cursor:default;font-size:12px;perspective-origin:0px 0px;fill:rgb(48, 48, 48);text-anchor:middle;">clk_i</text></g><g id="sprotty_ArchitectureBlockImpl$timer_core/BPortImpl$tick" transform="translate(342.515625, 225)" class="triangle"><path d="M 0,0 L 5,2.5 L 0,5 Z" transform="translate(-1.67, -2.5)" class="sprotty-port" style="fill:rgb(48, 48, 48);stroke:rgb(48, 48, 48);"/><text class="clickable sprotty-label port" id="sprotty_ArchitectureBlockImpl$timer_core/BPortImpl$tick/label" transform="translate(-26.9375, 6) translate(10.28125, 14)" style="cursor:default;font-size:12px;perspective-origin:0.1875px 0px;fill:rgb(48, 48, 48);text-anchor:middle;">tick</text></g><g id="sprotty_ArchitectureBlockImpl$timer_core/BPortImpl$mtime_d" transform="translate(342.515625, 50)" class="triangle"><path d="M 0,0 L 5,2.5 L 0,5 Z" transform="translate(-1.67, -2.5)" class="sprotty-port" style="fill:rgb(48, 48, 48);stroke:rgb(48, 48, 48);"/><text class="clickable sprotty-label port" id="sprotty_ArchitectureBlockImpl$timer_core/BPortImpl$mtime_d/label" transform="translate(-56.875, 6) translate(25.4375, 14)" style="cursor:default;font-size:12px;perspective-origin:0px 0px;fill:rgb(48, 48, 48);text-anchor:middle;">mtime_d</text></g><g id="sprotty_ArchitectureBlockImpl$timer_core/BPortImpl$intr" transform="translate(342.515625, 140)" class="triangle"><path d="M 0,0 L 5,2.5 L 0,5 Z" transform="translate(-1.67, -2.5)" class="sprotty-port" style="fill:rgb(48, 48, 48);stroke:rgb(48, 48, 48);"/><text class="clickable sprotty-label port" id="sprotty_ArchitectureBlockImpl$timer_core/BPortImpl$intr/label" transform="translate(-26.171875, 6) translate(9.90625, 14)" style="cursor:default;font-size:12px;perspective-origin:0.171875px 0px;fill:rgb(48, 48, 48);text-anchor:middle;">intr</text></g></g></g></svg>