<svg xmlns="http://www.w3.org/2000/svg" id="sprotty_work.prim_filter_ctr" class="sprotty-graph sprotty-block-diagram blockdiagram" style="font-family:&quot;Noto Sans&quot;, Helvetica, Arial, sans-serif;perspective-origin:0px 0px;transform-origin:0px 0px;" version="1.1" viewBox="7 7 457.6875 258" width="457.6875" height="258"><g transform="scale(1) translate(0,0)"><g id="sprotty_ArchitectureBlockImpl$prim_filter_ctr" transform="translate(12, 12)" class="architecture"><g class="sprotty-block" style="fill:rgb(255, 255, 255);stroke:rgb(48, 48, 48);stroke-dasharray:0px;"><rect x="0" y="0" rx="1" ry="1" width="447.6875" height="248"/><text x="223.84375" y="12" class="sprotty-block-name" style="cursor:pointer;font-weight:700;perspective-origin:223.844px 0px;fill:rgb(48, 48, 48);stroke:rgba(0, 0, 0, 0);dominant-baseline:middle;text-anchor:middle;">prim_filter_ctr</text><line x1="0" y1="20" x2="447.6875" y2="20"/></g><g id="sprotty_ArchitectureBlockImpl$prim_filter_ctr/AssignmentBlockImpl$filter_o/GPortImpl$filter_oOUT_to_ArchitectureBlockImpl$prim_filter_ctr/BPortImpl$filter_o" class="sprotty-edge edge" style="fill:none;stroke:rgb(112, 112, 112);stroke-linejoin:round;"><g><path d="M 386.1875 199 L 447.6875 199 "/><path d="M 386.1875 199 L 447.6875 199 " class="clickable"/></g></g><g id="sprotty_ArchitectureBlockImpl$prim_filter_ctr/BPortImpl$filter_i_to_ArchitectureBlockImpl$prim_filter_ctr/AssignmentBlockImpl$diff_ctr_d/GPortImpl$filter_iIN" class="sprotty-edge edge" style="fill:none;stroke:rgb(112, 112, 112);stroke-linejoin:round;"><g><path d="M 0 56 L 176.140625 56 C 177.140625 56 178.140625 57 178.140625 58 L 178.140625 128 C 178.140625 129 179.140625 130 180.140625 130 L 188.140625 130 "/><path d="M 0 56 L 176.140625 56 C 177.140625 56 178.140625 57 178.140625 58 L 178.140625 128 C 178.140625 129 179.140625 130 180.140625 130 L 188.140625 130 " class="clickable"/></g></g><g id="sprotty_ArchitectureBlockImpl$prim_filter_ctr/BPortImpl$enable_i_to_ArchitectureBlockImpl$prim_filter_ctr/AssignmentBlockImpl$filter_o/GPortImpl$enable_iIN" class="sprotty-edge edge" style="fill:none;stroke:rgb(112, 112, 112);stroke-linejoin:round;"><g><path d="M 0 209 L 366.46875 209 "/><path d="M 0 209 L 366.46875 209 " class="clickable"/></g></g><g id="sprotty_ArchitectureBlockImpl$prim_filter_ctr/BPortImpl$filter_i_to_ArchitectureBlockImpl$prim_filter_ctr/AssignmentBlockImpl$filter_o/GPortImpl$filter_iIN" class="sprotty-edge edge" style="fill:none;stroke:rgb(112, 112, 112);stroke-linejoin:round;"><g><path d="M 0 56 L 97.25 56 C 98.25 56 99.25 55 99.25 54 L 99.25 38 C 99.25 37 100.25 36 101.25 36 L 354.46875 36 C 355.46875 36 356.46875 37 356.46875 38 L 356.46875 187 C 356.46875 188 357.46875 189 358.46875 189 L 366.46875 189 "/><path d="M 0 56 L 97.25 56 C 98.25 56 99.25 55 99.25 54 L 99.25 38 C 99.25 37 100.25 36 101.25 36 L 354.46875 36 C 355.46875 36 356.46875 37 356.46875 38 L 356.46875 187 C 356.46875 188 357.46875 189 358.46875 189 L 366.46875 189 " class="clickable"/></g><circle r="2" id="sprotty_ArchitectureBlockImpl$prim_filter_ctr/BPortImpl$filter_i_to_ArchitectureBlockImpl$prim_filter_ctr/AssignmentBlockImpl$filter_o/GPortImpl$filter_iIN/junction0" transform="translate(99.25, 56)" class="sprotty-junction junction" style="fill:rgb(112, 112, 112);stroke:none;"/></g><g id="sprotty_ArchitectureBlockImpl$prim_filter_ctr/BPortImpl$clk_i_to_ArchitectureBlockImpl$prim_filter_ctr/AlwaysBlockImpl$null7/GPortImpl$clk_iIN" class="sprotty-edge edge" style="fill:none;stroke:rgb(112, 112, 112);stroke-linejoin:round;"><g><path d="M 0 90 L 109.25 90 "/><path d="M 0 90 L 109.25 90 " class="clickable"/></g></g><g id="sprotty_ArchitectureBlockImpl$prim_filter_ctr/BPortImpl$rst_ni_to_ArchitectureBlockImpl$prim_filter_ctr/AlwaysBlockImpl$null7/GPortImpl$rst_niIN" class="sprotty-edge edge" style="fill:none;stroke:rgb(112, 112, 112);stroke-linejoin:round;"><g><path d="M 0 150 L 77.25 150 C 78.25 150 79.25 149 79.25 148 L 79.25 102 C 79.25 101 80.25 100 81.25 100 L 109.25 100 "/><path d="M 0 150 L 77.25 150 C 78.25 150 79.25 149 79.25 148 L 79.25 102 C 79.25 101 80.25 100 81.25 100 L 109.25 100 " class="clickable"/></g><circle r="2" id="sprotty_ArchitectureBlockImpl$prim_filter_ctr/BPortImpl$rst_ni_to_ArchitectureBlockImpl$prim_filter_ctr/AlwaysBlockImpl$null7/GPortImpl$rst_niIN/junction0" transform="translate(79.25, 150)" class="sprotty-junction junction" style="fill:rgb(112, 112, 112);stroke:none;"/></g><g id="sprotty_ArchitectureBlockImpl$prim_filter_ctr/BPortImpl$filter_i_to_ArchitectureBlockImpl$prim_filter_ctr/AlwaysBlockImpl$null7/GPortImpl$filter_iIN" class="sprotty-edge edge" style="fill:none;stroke:rgb(112, 112, 112);stroke-linejoin:round;"><g><path d="M 0 56 L 97.25 56 C 98.25 56 99.25 57 99.25 58 L 99.25 78 C 99.25 79 100.25 80 101.25 80 L 109.25 80 "/><path d="M 0 56 L 97.25 56 C 98.25 56 99.25 57 99.25 58 L 99.25 78 C 99.25 79 100.25 80 101.25 80 L 109.25 80 " class="clickable"/></g></g><g id="sprotty_ArchitectureBlockImpl$prim_filter_ctr/BPortImpl$clk_i_to_ArchitectureBlockImpl$prim_filter_ctr/AlwaysBlockImpl$null6/GPortImpl$clk_iIN" class="sprotty-edge edge" style="fill:none;stroke:rgb(112, 112, 112);stroke-linejoin:round;"><g><path d="M 0 90 L 87.25 90 C 88.25 90 89.25 89 89.25 88 L 89.25 48 C 89.25 47 90.25 46 91.25 46 L 265.578125 46 C 266.578125 46 267.578125 47 267.578125 48 L 267.578125 166 C 267.578125 167 268.578125 168 269.578125 168 L 287.578125 168 "/><path d="M 0 90 L 87.25 90 C 88.25 90 89.25 89 89.25 88 L 89.25 48 C 89.25 47 90.25 46 91.25 46 L 265.578125 46 C 266.578125 46 267.578125 47 267.578125 48 L 267.578125 166 C 267.578125 167 268.578125 168 269.578125 168 L 287.578125 168 " class="clickable"/></g><circle r="2" id="sprotty_ArchitectureBlockImpl$prim_filter_ctr/BPortImpl$clk_i_to_ArchitectureBlockImpl$prim_filter_ctr/AlwaysBlockImpl$null6/GPortImpl$clk_iIN/junction0" transform="translate(89.25, 90)" class="sprotty-junction junction" style="fill:rgb(112, 112, 112);stroke:none;"/></g><g id="sprotty_ArchitectureBlockImpl$prim_filter_ctr/BPortImpl$rst_ni_to_ArchitectureBlockImpl$prim_filter_ctr/AlwaysBlockImpl$null6/GPortImpl$rst_niIN" class="sprotty-edge edge" style="fill:none;stroke:rgb(112, 112, 112);stroke-linejoin:round;"><g><path d="M 0 150 L 77.25 150 C 78.25 150 79.25 151 79.25 152 L 79.25 186 C 79.25 187 80.25 188 81.25 188 L 287.578125 188 "/><path d="M 0 150 L 77.25 150 C 78.25 150 79.25 151 79.25 152 L 79.25 186 C 79.25 187 80.25 188 81.25 188 L 287.578125 188 " class="clickable"/></g></g><g id="sprotty_ArchitectureBlockImpl$prim_filter_ctr/BPortImpl$filter_i_to_ArchitectureBlockImpl$prim_filter_ctr/AlwaysBlockImpl$null6/GPortImpl$filter_iIN" class="sprotty-edge edge" style="fill:none;stroke:rgb(112, 112, 112);stroke-linejoin:round;"><g><path d="M 0 56 L 97.25 56 C 98.25 56 99.25 55 99.25 54 L 99.25 38 C 99.25 37 100.25 36 101.25 36 L 275.578125 36 C 276.578125 36 277.578125 37 277.578125 38 L 277.578125 156 C 277.578125 157 278.578125 158 279.578125 158 L 287.578125 158 "/><path d="M 0 56 L 97.25 56 C 98.25 56 99.25 55 99.25 54 L 99.25 38 C 99.25 37 100.25 36 101.25 36 L 275.578125 36 C 276.578125 36 277.578125 37 277.578125 38 L 277.578125 156 C 277.578125 157 278.578125 158 279.578125 158 L 287.578125 158 " class="clickable"/></g><circle r="2" id="sprotty_ArchitectureBlockImpl$prim_filter_ctr/BPortImpl$filter_i_to_ArchitectureBlockImpl$prim_filter_ctr/AlwaysBlockImpl$null6/GPortImpl$filter_iIN/junction0" transform="translate(277.578125, 36)" class="sprotty-junction junction" style="fill:rgb(112, 112, 112);stroke:none;"/></g><g id="sprotty_ArchitectureBlockImpl$prim_filter_ctr/BPortImpl$clk_i_to_ArchitectureBlockImpl$prim_filter_ctr/AlwaysBlockImpl$null5/GPortImpl$clk_iIN" class="sprotty-edge edge" style="fill:none;stroke:rgb(112, 112, 112);stroke-linejoin:round;"><g><path d="M 0 90 L 87.25 90 C 88.25 90 89.25 91 89.25 92 L 89.25 138 C 89.25 139 90.25 140 91.25 140 L 109.25 140 "/><path d="M 0 90 L 87.25 90 C 88.25 90 89.25 91 89.25 92 L 89.25 138 C 89.25 139 90.25 140 91.25 140 L 109.25 140 " class="clickable"/></g></g><g id="sprotty_ArchitectureBlockImpl$prim_filter_ctr/BPortImpl$rst_ni_to_ArchitectureBlockImpl$prim_filter_ctr/AlwaysBlockImpl$null5/GPortImpl$rst_niIN" class="sprotty-edge edge" style="fill:none;stroke:rgb(112, 112, 112);stroke-linejoin:round;"><g><path d="M 0 150 L 109.25 150 "/><path d="M 0 150 L 109.25 150 " class="clickable"/></g></g><g id="sprotty_ArchitectureBlockImpl$prim_filter_ctr/AlwaysBlockImpl$null5/GPortImpl$diff_ctr_qOUT_to_ArchitectureBlockImpl$prim_filter_ctr/AssignmentBlockImpl$diff_ctr_d/GPortImpl$diff_ctr_qIN" class="sprotty-edge thick edge" style="fill:none;stroke:rgb(112, 112, 112);stroke-linejoin:round;stroke-width:3px;"><g><path d="M 158.140625 150 L 188.140625 150 "/><path d="M 158.140625 150 L 188.140625 150 " class="clickable"/></g></g><g id="sprotty_ArchitectureBlockImpl$prim_filter_ctr/AssignmentBlockImpl$diff_ctr_d/GPortImpl$diff_ctr_qOUT_to_ArchitectureBlockImpl$prim_filter_ctr/AssignmentBlockImpl$update_stored_value/GPortImpl$diff_ctr_dIN" class="sprotty-edge thick edge" style="fill:none;stroke:rgb(112, 112, 112);stroke-linejoin:round;stroke-width:3px;"><g><path d="M 207.859375 140 L 227.859375 140 "/><path d="M 207.859375 140 L 227.859375 140 " class="clickable"/></g></g><g id="sprotty_ArchitectureBlockImpl$prim_filter_ctr/AssignmentBlockImpl$diff_ctr_d/GPortImpl$diff_ctr_qOUT_to_ArchitectureBlockImpl$prim_filter_ctr/AlwaysBlockImpl$null5/GPortImpl$diff_ctr_dIN" class="sprotty-edge thick edge" style="fill:none;stroke:rgb(112, 112, 112);stroke-linejoin:round;stroke-width:3px;"><g><path d="M 207.859375 140 L 215.859375 140 C 216.859375 140 217.859375 141 217.859375 142 L 217.859375 178 C 217.859375 179 216.859375 180 215.859375 180 L 101.25 180 C 100.25 180 99.25 179 99.25 178 L 99.25 162 C 99.25 161 100.25 160 101.25 160 L 109.25 160 "/><path d="M 207.859375 140 L 215.859375 140 C 216.859375 140 217.859375 141 217.859375 142 L 217.859375 178 C 217.859375 179 216.859375 180 215.859375 180 L 101.25 180 C 100.25 180 99.25 179 99.25 178 L 99.25 162 C 99.25 161 100.25 160 101.25 160 L 109.25 160 " class="clickable"/></g><circle r="3" id="sprotty_ArchitectureBlockImpl$prim_filter_ctr/AssignmentBlockImpl$diff_ctr_d/GPortImpl$diff_ctr_qOUT_to_ArchitectureBlockImpl$prim_filter_ctr/AlwaysBlockImpl$null5/GPortImpl$diff_ctr_dIN/junction0" transform="translate(217.859375, 140)" class="sprotty-junction thick" style="fill:rgb(112, 112, 112);stroke:none;"/></g><g id="sprotty_ArchitectureBlockImpl$prim_filter_ctr/AlwaysBlockImpl$null7/GPortImpl$filter_qOUT_to_ArchitectureBlockImpl$prim_filter_ctr/AssignmentBlockImpl$diff_ctr_d/GPortImpl$filter_qIN" class="sprotty-edge edge" style="fill:none;stroke:rgb(112, 112, 112);stroke-linejoin:round;"><g><path d="M 158.140625 90 L 166.140625 90 C 167.140625 90 168.140625 91 168.140625 92 L 168.140625 138 C 168.140625 139 169.140625 140 170.140625 140 L 188.140625 140 "/><path d="M 158.140625 90 L 166.140625 90 C 167.140625 90 168.140625 91 168.140625 92 L 168.140625 138 C 168.140625 139 169.140625 140 170.140625 140 L 188.140625 140 " class="clickable"/></g></g><g id="sprotty_ArchitectureBlockImpl$prim_filter_ctr/AlwaysBlockImpl$null6/GPortImpl$stored_value_qOUT_to_ArchitectureBlockImpl$prim_filter_ctr/AssignmentBlockImpl$filter_o/GPortImpl$stored_value_qIN" class="sprotty-edge edge" style="fill:none;stroke:rgb(112, 112, 112);stroke-linejoin:round;"><g><path d="M 336.46875 173 L 344.46875 173 C 345.46875 173 346.46875 174 346.46875 175 L 346.46875 197 C 346.46875 198 347.46875 199 348.46875 199 L 366.46875 199 "/><path d="M 336.46875 173 L 344.46875 173 C 345.46875 173 346.46875 174 346.46875 175 L 346.46875 197 C 346.46875 198 347.46875 199 348.46875 199 L 366.46875 199 " class="clickable"/></g></g><g id="sprotty_ArchitectureBlockImpl$prim_filter_ctr/AssignmentBlockImpl$update_stored_value/GPortImpl$diff_ctr_dOUT_to_ArchitectureBlockImpl$prim_filter_ctr/AlwaysBlockImpl$null6/GPortImpl$update_stored_valueIN" class="sprotty-edge thick edge" style="fill:none;stroke:rgb(112, 112, 112);stroke-linejoin:round;stroke-width:3px;"><g><path d="M 247.578125 140 L 255.578125 140 C 256.578125 140 257.578125 141 257.578125 142 L 257.578125 176 C 257.578125 177 258.578125 178 259.578125 178 L 287.578125 178 "/><path d="M 247.578125 140 L 255.578125 140 C 256.578125 140 257.578125 141 257.578125 142 L 257.578125 176 C 257.578125 177 258.578125 178 259.578125 178 L 287.578125 178 " class="clickable"/></g></g><g id="sprotty_ArchitectureBlockImpl$prim_filter_ctr/AlwaysBlockImpl$null5" transform="translate(109.25, 130)" class="statement"><rect x="0" y="0" rx="10" ry="5" width="48.890625" height="40" class="sprotty-node" style="fill:rgb(245, 245, 245);stroke:rgb(112, 112, 112);"/><text class="clickable sprotty-label statementtype" id="sprotty_ArchitectureBlockImpl$prim_filter_ctr/AlwaysBlockImpl$null5/labeltype" transform="translate(5, 14) translate(18.828125, 9)" style="cursor:default;font-size:8px;font-weight:700;perspective-origin:0.609375px 0px;fill:rgb(112, 112, 112);text-anchor:middle;">always_ff</text><g id="sprotty_ArchitectureBlockImpl$prim_filter_ctr/AlwaysBlockImpl$null5/GPortImpl$diff_ctr_dIN" transform="translate(0, 30)" class="sprotty-hidden hidden" style="display:block;height:0px;width:0px;"/><g id="sprotty_ArchitectureBlockImpl$prim_filter_ctr/AlwaysBlockImpl$null5/GPortImpl$rst_niIN" transform="translate(0, 20)" class="sprotty-hidden hidden" style="display:block;height:0px;width:0px;"/><g id="sprotty_ArchitectureBlockImpl$prim_filter_ctr/AlwaysBlockImpl$null5/GPortImpl$clk_iIN" transform="translate(0, 10)" class="sprotty-hidden hidden" style="display:block;height:0px;width:0px;"/><g id="sprotty_ArchitectureBlockImpl$prim_filter_ctr/AlwaysBlockImpl$null5/GPortImpl$diff_ctr_qOUT" transform="translate(48.890625, 20)" class="sprotty-hidden hidden" style="display:block;height:0px;width:0px;"/></g><g id="sprotty_ArchitectureBlockImpl$prim_filter_ctr/AlwaysBlockImpl$null6" transform="translate(287.578125, 148)" class="statement"><rect x="0" y="0" rx="10" ry="5" width="48.890625" height="50" class="sprotty-node" style="fill:rgb(245, 245, 245);stroke:rgb(112, 112, 112);"/><text class="clickable sprotty-label statementtype" id="sprotty_ArchitectureBlockImpl$prim_filter_ctr/AlwaysBlockImpl$null6/labeltype" transform="translate(5, 19) translate(18.828125, 9)" style="cursor:default;font-size:8px;font-weight:700;perspective-origin:0.609375px 0px;fill:rgb(112, 112, 112);text-anchor:middle;">always_ff</text><g id="sprotty_ArchitectureBlockImpl$prim_filter_ctr/AlwaysBlockImpl$null6/GPortImpl$filter_iIN" transform="translate(0, 10)" class="sprotty-hidden hidden" style="display:block;height:0px;width:0px;"/><g id="sprotty_ArchitectureBlockImpl$prim_filter_ctr/AlwaysBlockImpl$null6/GPortImpl$update_stored_valueIN" transform="translate(0, 30)" class="sprotty-hidden hidden" style="display:block;height:0px;width:0px;"/><g id="sprotty_ArchitectureBlockImpl$prim_filter_ctr/AlwaysBlockImpl$null6/GPortImpl$rst_niIN" transform="translate(0, 40)" class="sprotty-hidden hidden" style="display:block;height:0px;width:0px;"/><g id="sprotty_ArchitectureBlockImpl$prim_filter_ctr/AlwaysBlockImpl$null6/GPortImpl$clk_iIN" transform="translate(0, 20)" class="sprotty-hidden hidden" style="display:block;height:0px;width:0px;"/><g id="sprotty_ArchitectureBlockImpl$prim_filter_ctr/AlwaysBlockImpl$null6/GPortImpl$stored_value_qOUT" transform="translate(48.890625, 25)" class="sprotty-hidden hidden" style="display:block;height:0px;width:0px;"/></g><g id="sprotty_ArchitectureBlockImpl$prim_filter_ctr/AlwaysBlockImpl$null7" transform="translate(109.25, 70)" class="statement"><rect x="0" y="0" rx="10" ry="5" width="48.890625" height="40" class="sprotty-node" style="fill:rgb(245, 245, 245);stroke:rgb(112, 112, 112);"/><text class="clickable sprotty-label statementtype" id="sprotty_ArchitectureBlockImpl$prim_filter_ctr/AlwaysBlockImpl$null7/labeltype" transform="translate(5, 14) translate(18.828125, 9)" style="cursor:default;font-size:8px;font-weight:700;perspective-origin:0.609375px 0px;fill:rgb(112, 112, 112);text-anchor:middle;">always_ff</text><g id="sprotty_ArchitectureBlockImpl$prim_filter_ctr/AlwaysBlockImpl$null7/GPortImpl$filter_iIN" transform="translate(0, 10)" class="sprotty-hidden hidden" style="display:block;height:0px;width:0px;"/><g id="sprotty_ArchitectureBlockImpl$prim_filter_ctr/AlwaysBlockImpl$null7/GPortImpl$rst_niIN" transform="translate(0, 30)" class="sprotty-hidden hidden" style="display:block;height:0px;width:0px;"/><g id="sprotty_ArchitectureBlockImpl$prim_filter_ctr/AlwaysBlockImpl$null7/GPortImpl$clk_iIN" transform="translate(0, 20)" class="sprotty-hidden hidden" style="display:block;height:0px;width:0px;"/><g id="sprotty_ArchitectureBlockImpl$prim_filter_ctr/AlwaysBlockImpl$null7/GPortImpl$filter_qOUT" transform="translate(48.890625, 20)" class="sprotty-hidden hidden" style="display:block;height:0px;width:0px;"/></g><g id="sprotty_ArchitectureBlockImpl$prim_filter_ctr/AssignmentBlockImpl$filter_o" transform="translate(366.46875, 179)" class="statement"><rect x="0" y="0" rx="10" ry="5" width="19.71875" height="40" class="sprotty-node" style="fill:rgb(245, 245, 245);stroke:rgb(112, 112, 112);"/><text class="clickable sprotty-label statementtype" id="sprotty_ArchitectureBlockImpl$prim_filter_ctr/AssignmentBlockImpl$filter_o/labeltype" transform="translate(5, 14) translate(4.71875, 9)" style="cursor:default;font-size:8px;font-weight:700;perspective-origin:0.140625px 0px;fill:rgb(112, 112, 112);text-anchor:middle;">&lt;=</text><g id="sprotty_ArchitectureBlockImpl$prim_filter_ctr/AssignmentBlockImpl$filter_o/GPortImpl$filter_iIN" transform="translate(0, 10)" class="sprotty-hidden hidden" style="display:block;height:0px;width:0px;"/><g id="sprotty_ArchitectureBlockImpl$prim_filter_ctr/AssignmentBlockImpl$filter_o/GPortImpl$stored_value_qIN" transform="translate(0, 20)" class="sprotty-hidden hidden" style="display:block;height:0px;width:0px;"/><g id="sprotty_ArchitectureBlockImpl$prim_filter_ctr/AssignmentBlockImpl$filter_o/GPortImpl$enable_iIN" transform="translate(0, 30)" class="sprotty-hidden hidden" style="display:block;height:0px;width:0px;"/><g id="sprotty_ArchitectureBlockImpl$prim_filter_ctr/AssignmentBlockImpl$filter_o/GPortImpl$filter_oOUT" transform="translate(19.71875, 20)" class="sprotty-hidden hidden" style="display:block;height:0px;width:0px;"/></g><g id="sprotty_ArchitectureBlockImpl$prim_filter_ctr/AssignmentBlockImpl$update_stored_value" transform="translate(227.859375, 129)" class="statement"><rect x="0" y="0" rx="10" ry="5" width="19.71875" height="22" class="sprotty-node" style="fill:rgb(245, 245, 245);stroke:rgb(112, 112, 112);"/><text class="clickable sprotty-label statementtype" id="sprotty_ArchitectureBlockImpl$prim_filter_ctr/AssignmentBlockImpl$update_stored_value/labeltype" transform="translate(5, 5) translate(4.71875, 9)" style="cursor:default;font-size:8px;font-weight:700;perspective-origin:0.140625px 0px;fill:rgb(112, 112, 112);text-anchor:middle;">&lt;=</text><g id="sprotty_ArchitectureBlockImpl$prim_filter_ctr/AssignmentBlockImpl$update_stored_value/GPortImpl$diff_ctr_dIN" transform="translate(0, 11)" class="sprotty-hidden hidden" style="display:block;height:0px;width:0px;"/><g id="sprotty_ArchitectureBlockImpl$prim_filter_ctr/AssignmentBlockImpl$update_stored_value/GPortImpl$diff_ctr_dOUT" transform="translate(19.71875, 11)" class="sprotty-hidden hidden" style="display:block;height:0px;width:0px;"/></g><g id="sprotty_ArchitectureBlockImpl$prim_filter_ctr/AssignmentBlockImpl$diff_ctr_d" transform="translate(188.140625, 120)" class="statement"><rect x="0" y="0" rx="10" ry="5" width="19.71875" height="40" class="sprotty-node" style="fill:rgb(245, 245, 245);stroke:rgb(112, 112, 112);"/><text class="clickable sprotty-label statementtype" id="sprotty_ArchitectureBlockImpl$prim_filter_ctr/AssignmentBlockImpl$diff_ctr_d/labeltype" transform="translate(5, 14) translate(4.71875, 9)" style="cursor:default;font-size:8px;font-weight:700;perspective-origin:0.140625px 0px;fill:rgb(112, 112, 112);text-anchor:middle;">&lt;=</text><g id="sprotty_ArchitectureBlockImpl$prim_filter_ctr/AssignmentBlockImpl$diff_ctr_d/GPortImpl$diff_ctr_qIN" transform="translate(0, 30)" class="sprotty-hidden hidden" style="display:block;height:0px;width:0px;"/><g id="sprotty_ArchitectureBlockImpl$prim_filter_ctr/AssignmentBlockImpl$diff_ctr_d/GPortImpl$filter_qIN" transform="translate(0, 20)" class="sprotty-hidden hidden" style="display:block;height:0px;width:0px;"/><g id="sprotty_ArchitectureBlockImpl$prim_filter_ctr/AssignmentBlockImpl$diff_ctr_d/GPortImpl$filter_iIN" transform="translate(0, 10)" class="sprotty-hidden hidden" style="display:block;height:0px;width:0px;"/><g id="sprotty_ArchitectureBlockImpl$prim_filter_ctr/AssignmentBlockImpl$diff_ctr_d/GPortImpl$diff_ctr_qOUT" transform="translate(19.71875, 20)" class="sprotty-hidden hidden" style="display:block;height:0px;width:0px;"/></g><g id="sprotty_ArchitectureBlockImpl$prim_filter_ctr/BPortImpl$filter_i" transform="translate(0, 56)" class="triangle"><path d="M 0,0 L 5,2.5 L 0,5 Z" transform="translate(-1.67, -2.5)" class="sprotty-port" style="fill:rgb(48, 48, 48);stroke:rgb(48, 48, 48);"/><text class="clickable sprotty-label port" id="sprotty_ArchitectureBlockImpl$prim_filter_ctr/BPortImpl$filter_i/label" transform="translate(6, 6) translate(18.265625, 14)" style="cursor:default;font-size:12px;perspective-origin:0px 0px;fill:rgb(48, 48, 48);text-anchor:middle;">filter_i</text></g><g id="sprotty_ArchitectureBlockImpl$prim_filter_ctr/BPortImpl$enable_i" transform="translate(0, 209)" class="triangle"><path d="M 0,0 L 5,2.5 L 0,5 Z" transform="translate(-1.67, -2.5)" class="sprotty-port" style="fill:rgb(48, 48, 48);stroke:rgb(48, 48, 48);"/><text class="clickable sprotty-label port" id="sprotty_ArchitectureBlockImpl$prim_filter_ctr/BPortImpl$enable_i/label" transform="translate(6, 6) translate(24.125, 14)" style="cursor:default;font-size:12px;perspective-origin:0px 0px;fill:rgb(48, 48, 48);text-anchor:middle;">enable_i</text></g><g id="sprotty_ArchitectureBlockImpl$prim_filter_ctr/BPortImpl$rst_ni" transform="translate(0, 150)" class="triangle"><path d="M 0,0 L 5,2.5 L 0,5 Z" transform="translate(-1.67, -2.5)" class="sprotty-port" style="fill:rgb(48, 48, 48);stroke:rgb(48, 48, 48);"/><text class="clickable sprotty-label port" id="sprotty_ArchitectureBlockImpl$prim_filter_ctr/BPortImpl$rst_ni/label" transform="translate(6, 6) translate(15.921875, 14)" style="cursor:default;font-size:12px;perspective-origin:0px 0px;fill:rgb(48, 48, 48);text-anchor:middle;">rst_ni</text></g><g id="sprotty_ArchitectureBlockImpl$prim_filter_ctr/BPortImpl$clk_i" transform="translate(0, 90)" class="triangle"><path d="M 0,0 L 5,2.5 L 0,5 Z" transform="translate(-1.67, -2.5)" class="sprotty-port" style="fill:rgb(48, 48, 48);stroke:rgb(48, 48, 48);"/><text class="clickable sprotty-label port" id="sprotty_ArchitectureBlockImpl$prim_filter_ctr/BPortImpl$clk_i/label" transform="translate(6, 6) translate(13.09375, 14)" style="cursor:default;font-size:12px;perspective-origin:0px 0px;fill:rgb(48, 48, 48);text-anchor:middle;">clk_i</text></g><g id="sprotty_ArchitectureBlockImpl$prim_filter_ctr/BPortImpl$filter_o" transform="translate(447.6875, 199)" class="triangle"><path d="M 0,0 L 5,2.5 L 0,5 Z" transform="translate(-1.67, -2.5)" class="sprotty-port" style="fill:rgb(48, 48, 48);stroke:rgb(48, 48, 48);"/><text class="clickable sprotty-label port" id="sprotty_ArchitectureBlockImpl$prim_filter_ctr/BPortImpl$filter_o/label" transform="translate(-46.5, 6) translate(20.25, 14)" style="cursor:default;font-size:12px;perspective-origin:0px 0px;fill:rgb(48, 48, 48);text-anchor:middle;">filter_o</text></g></g></g></svg>