<svg xmlns="http://www.w3.org/2000/svg" id="sprotty_work.otp_ctrl_ecc_reg" class="sprotty-graph sprotty-block-diagram blockdiagram" style="font-family:&quot;Noto Sans&quot;, Helvetica, Arial, sans-serif;perspective-origin:0px 0px;transform-origin:0px 0px;" version="1.1" viewBox="7 7 1149.625 430.33333333333337" width="1149.625" height="430.33333333333337"><g transform="scale(1) translate(0,0)"><g id="sprotty_ArchitectureBlockImpl$otp_ctrl_ecc_reg" transform="translate(12, 12)" class="architecture"><g class="sprotty-block" style="fill:rgb(255, 255, 255);stroke:rgb(48, 48, 48);stroke-dasharray:0px;"><rect x="0" y="0" rx="1" ry="1" width="1139.625" height="420.33333333333337"/><text x="569.8125" y="12" class="sprotty-block-name" style="cursor:pointer;font-weight:700;perspective-origin:570.031px 0px;fill:rgb(48, 48, 48);stroke:rgba(0, 0, 0, 0);dominant-baseline:middle;text-anchor:middle;">otp_ctrl_ecc_reg</text><line x1="0" y1="20" x2="1139.625" y2="20"/></g><g id="sprotty_ArchitectureBlockImpl$otp_ctrl_ecc_reg/GenerateStatementBlockImpl$null8/GPortImpl$addr_i_to_ArchitectureBlockImpl$otp_ctrl_ecc_reg/BPortImpl$addr_i" class="sprotty-edge thick edge" style="fill:none;stroke:rgb(112, 112, 112);stroke-linejoin:round;stroke-width:3px;"><g><path d="M 778.8828125 98.33333333333334 L 1021.65625 98.33333333333334 C 1022.65625 98.33333333333334 1023.65625 97.33333333333334 1023.65625 96.33333333333334 L 1023.65625 45 C 1023.65625 44 1022.65625 43 1021.65625 43 L 0 43 "/><path d="M 778.8828125 98.33333333333334 L 1021.65625 98.33333333333334 C 1022.65625 98.33333333333334 1023.65625 97.33333333333334 1023.65625 96.33333333333334 L 1023.65625 45 C 1023.65625 44 1022.65625 43 1021.65625 43 L 0 43 " class="clickable"/></g></g><g id="sprotty_ArchitectureBlockImpl$otp_ctrl_ecc_reg/GenerateStatementBlockImpl$null8/GPortImpl$data_o_to_ArchitectureBlockImpl$otp_ctrl_ecc_reg/BPortImpl$data_o" class="sprotty-edge thick edge" style="fill:none;stroke:rgb(112, 112, 112);stroke-linejoin:round;stroke-width:3px;"><g><path d="M 778.8828125 183.33333333333334 L 1139.625 183.33333333333334 "/><path d="M 778.8828125 183.33333333333334 L 1139.625 183.33333333333334 " class="clickable"/></g></g><g id="sprotty_ArchitectureBlockImpl$otp_ctrl_ecc_reg/AssignmentBlockImpl$ecc_err_o/GPortImpl$ecc_err_oOUT_to_ArchitectureBlockImpl$otp_ctrl_ecc_reg/BPortImpl$ecc_err_o" class="sprotty-edge edge" style="fill:none;stroke:rgb(112, 112, 112);stroke-linejoin:round;"><g><path d="M 1063.375 372.33333333333337 L 1139.625 372.33333333333337 "/><path d="M 1063.375 372.33333333333337 L 1139.625 372.33333333333337 " class="clickable"/></g></g><g id="sprotty_ArchitectureBlockImpl$otp_ctrl_ecc_reg/BPortImpl$wdata_i_to_ArchitectureBlockImpl$otp_ctrl_ecc_reg/InstantiationBlockImpl$u_prim_secded_72_64_enc/BPortImpl$in" class="sprotty-edge thick edge" style="fill:none;stroke:rgb(112, 112, 112);stroke-linejoin:round;stroke-width:3px;"><g><path d="M 0 93 L 95.625 93 "/><path d="M 0 93 L 95.625 93 " class="clickable"/></g></g><g id="sprotty_ArchitectureBlockImpl$otp_ctrl_ecc_reg/BPortImpl$clk_i_to_ArchitectureBlockImpl$otp_ctrl_ecc_reg/AlwaysBlockImpl$p_regs/GPortImpl$clk_iIN" class="sprotty-edge edge" style="fill:none;stroke:rgb(112, 112, 112);stroke-linejoin:round;"><g><path d="M 0 161 L 73.625 161 C 74.625 161 75.625 162 75.625 163 L 75.625 183 C 75.625 184 76.625 185 77.625 185 L 339.71875 185 "/><path d="M 0 161 L 73.625 161 C 74.625 161 75.625 162 75.625 163 L 75.625 183 C 75.625 184 76.625 185 77.625 185 L 339.71875 185 " class="clickable"/></g></g><g id="sprotty_ArchitectureBlockImpl$otp_ctrl_ecc_reg/BPortImpl$rst_ni_to_ArchitectureBlockImpl$otp_ctrl_ecc_reg/AlwaysBlockImpl$p_regs/GPortImpl$rst_niIN" class="sprotty-edge edge" style="fill:none;stroke:rgb(112, 112, 112);stroke-linejoin:round;"><g><path d="M 0 195 L 339.71875 195 "/><path d="M 0 195 L 339.71875 195 " class="clickable"/></g></g><g id="sprotty_ArchitectureBlockImpl$otp_ctrl_ecc_reg/BPortImpl$wren_i_to_ArchitectureBlockImpl$otp_ctrl_ecc_reg/GenerateStatementBlockImpl$null8/GPortImpl$wren_i" class="sprotty-edge edge" style="fill:none;stroke:rgb(112, 112, 112);stroke-linejoin:round;"><g><path d="M 0 127 L 542.59375 127 C 543.59375 127 544.59375 128 544.59375 129 L 544.59375 186.33333333333334 C 544.59375 187.33333333333334 545.59375 188.33333333333334 546.59375 188.33333333333334 L 588.1328125 188.33333333333334 "/><path d="M 0 127 L 542.59375 127 C 543.59375 127 544.59375 128 544.59375 129 L 544.59375 186.33333333333334 C 544.59375 187.33333333333334 545.59375 188.33333333333334 546.59375 188.33333333333334 L 588.1328125 188.33333333333334 " class="clickable"/></g></g><g id="sprotty_ArchitectureBlockImpl$otp_ctrl_ecc_reg/GenerateStatementBlockImpl$null8/GPortImpl$data_d_to_ArchitectureBlockImpl$otp_ctrl_ecc_reg/AlwaysBlockImpl$p_regs/GPortImpl$data_dIN" class="sprotty-edge thick edge" style="fill:none;stroke:rgb(112, 112, 112);stroke-linejoin:round;stroke-width:3px;"><g><path d="M 778.8828125 195.83333333333334 L 1021.65625 195.83333333333334 C 1022.65625 195.83333333333334 1023.65625 196.83333333333334 1023.65625 197.83333333333334 L 1023.65625 231.33333333333334 C 1023.65625 232.33333333333334 1022.65625 233.33333333333334 1021.65625 233.33333333333334 L 87.625 233.33333333333334 C 86.625 233.33333333333334 85.625 232.33333333333334 85.625 231.33333333333334 L 85.625 207 C 85.625 206 86.625 205 87.625 205 L 339.71875 205 "/><path d="M 778.8828125 195.83333333333334 L 1021.65625 195.83333333333334 C 1022.65625 195.83333333333334 1023.65625 196.83333333333334 1023.65625 197.83333333333334 L 1023.65625 231.33333333333334 C 1023.65625 232.33333333333334 1022.65625 233.33333333333334 1021.65625 233.33333333333334 L 87.625 233.33333333333334 C 86.625 233.33333333333334 85.625 232.33333333333334 85.625 231.33333333333334 L 85.625 207 C 85.625 206 86.625 205 87.625 205 L 339.71875 205 " class="clickable"/></g></g><g id="sprotty_ArchitectureBlockImpl$otp_ctrl_ecc_reg/AlwaysBlockImpl$p_regs/GPortImpl$data_qOUT_to_ArchitectureBlockImpl$otp_ctrl_ecc_reg/GenerateStatementBlockImpl$null8/GPortImpl$data_q" class="sprotty-edge thick edge" style="fill:none;stroke:rgb(112, 112, 112);stroke-linejoin:round;stroke-width:3px;"><g><path d="M 402.546875 181.66666666666666 L 532.59375 181.66666666666669 C 533.59375 181.66666666666669 534.59375 180.66666666666669 534.59375 179.66666666666669 L 534.59375 100.33333333333334 C 534.59375 99.33333333333334 535.59375 98.33333333333334 536.59375 98.33333333333334 L 588.1328125 98.33333333333334 "/><path d="M 402.546875 181.66666666666666 L 532.59375 181.66666666666669 C 533.59375 181.66666666666669 534.59375 180.66666666666669 534.59375 179.66666666666669 L 534.59375 100.33333333333334 C 534.59375 99.33333333333334 535.59375 98.33333333333334 536.59375 98.33333333333334 L 588.1328125 98.33333333333334 " class="clickable"/></g></g><g id="sprotty_ArchitectureBlockImpl$otp_ctrl_ecc_reg/GenerateStatementBlockImpl$null8/GPortImpl$ecc_d_to_ArchitectureBlockImpl$otp_ctrl_ecc_reg/AlwaysBlockImpl$p_regs/GPortImpl$ecc_dIN" class="sprotty-edge thick edge" style="fill:none;stroke:rgb(112, 112, 112);stroke-linejoin:round;stroke-width:3px;"><g><path d="M 778.8828125 170.83333333333334 L 1031.65625 170.83333333333334 C 1032.65625 170.83333333333334 1033.65625 169.83333333333334 1033.65625 168.83333333333334 L 1033.65625 37 C 1033.65625 36 1032.65625 35 1031.65625 35 L 87.625 35 C 86.625 35 85.625 36 85.625 37 L 85.625 173 C 85.625 174 86.625 175 87.625 175 L 339.71875 175 "/><path d="M 778.8828125 170.83333333333334 L 1031.65625 170.83333333333334 C 1032.65625 170.83333333333334 1033.65625 169.83333333333334 1033.65625 168.83333333333334 L 1033.65625 37 C 1033.65625 36 1032.65625 35 1031.65625 35 L 87.625 35 C 86.625 35 85.625 36 85.625 37 L 85.625 173 C 85.625 174 86.625 175 87.625 175 L 339.71875 175 " class="clickable"/></g></g><g id="sprotty_ArchitectureBlockImpl$otp_ctrl_ecc_reg/AlwaysBlockImpl$p_regs/GPortImpl$ecc_qOUT_to_ArchitectureBlockImpl$otp_ctrl_ecc_reg/GenerateStatementBlockImpl$null8/GPortImpl$ecc_q" class="sprotty-edge thick edge" style="fill:none;stroke:rgb(112, 112, 112);stroke-linejoin:round;stroke-width:3px;"><g><path d="M 402.546875 198.33333333333334 L 588.1328125 198.33333333333334 "/><path d="M 402.546875 198.33333333333334 L 588.1328125 198.33333333333334 " class="clickable"/></g></g><g id="sprotty_ArchitectureBlockImpl$otp_ctrl_ecc_reg/AlwaysBlockImpl$p_regs/GPortImpl$ecc_qOUT_to_ArchitectureBlockImpl$otp_ctrl_ecc_reg/GenerateStatementBlockImpl$gen_ecc_dec/GPortImpl$ecc_q" class="sprotty-edge thick edge" style="fill:none;stroke:rgb(112, 112, 112);stroke-linejoin:round;stroke-width:3px;"><g><path d="M 402.546875 198.33333333333334 L 532.59375 198.33333333333334 C 533.59375 198.33333333333334 534.59375 199.33333333333334 534.59375 200.33333333333334 L 534.59375 342.33333333333337 C 534.59375 343.33333333333337 535.59375 344.33333333333337 536.59375 344.33333333333337 L 554.59375 344.33333333333337 "/><path d="M 402.546875 198.33333333333334 L 532.59375 198.33333333333334 C 533.59375 198.33333333333334 534.59375 199.33333333333334 534.59375 200.33333333333334 L 534.59375 342.33333333333337 C 534.59375 343.33333333333337 535.59375 344.33333333333337 536.59375 344.33333333333337 L 554.59375 344.33333333333337 " class="clickable"/></g><circle r="3" id="sprotty_ArchitectureBlockImpl$otp_ctrl_ecc_reg/AlwaysBlockImpl$p_regs/GPortImpl$ecc_qOUT_to_ArchitectureBlockImpl$otp_ctrl_ecc_reg/GenerateStatementBlockImpl$gen_ecc_dec/GPortImpl$ecc_q/junction0" transform="translate(534.59375, 198.33333333333334)" class="sprotty-junction thick" style="fill:rgb(112, 112, 112);stroke:none;"/></g><g id="sprotty_ArchitectureBlockImpl$otp_ctrl_ecc_reg/InstantiationBlockImpl$u_prim_secded_72_64_enc/BPortImpl$out_to_ArchitectureBlockImpl$otp_ctrl_ecc_reg/GenerateStatementBlockImpl$null8/GPortImpl$ecc_enc" class="sprotty-edge thick edge" style="fill:none;stroke:rgb(112, 112, 112);stroke-linejoin:round;stroke-width:3px;"><g><path d="M 524.59375 93 L 542.59375 93 C 543.59375 93 544.59375 94 544.59375 95 L 544.59375 106.33333333333334 C 544.59375 107.33333333333334 545.59375 108.33333333333334 546.59375 108.33333333333334 L 588.1328125 108.33333333333334 "/><path d="M 524.59375 93 L 542.59375 93 C 543.59375 93 544.59375 94 544.59375 95 L 544.59375 106.33333333333334 C 544.59375 107.33333333333334 545.59375 108.33333333333334 546.59375 108.33333333333334 L 588.1328125 108.33333333333334 " class="clickable"/></g></g><g id="sprotty_ArchitectureBlockImpl$otp_ctrl_ecc_reg/GenerateStatementBlockImpl$gen_ecc_dec/GPortImpl$err_to_ArchitectureBlockImpl$otp_ctrl_ecc_reg/AssignmentBlockImpl$ecc_err_o/GPortImpl$errIN" class="sprotty-edge thick edge" style="fill:none;stroke:rgb(112, 112, 112);stroke-linejoin:round;stroke-width:3px;"><g><path d="M 1013.65625 372.33333333333337 L 1043.65625 372.33333333333337 "/><path d="M 1013.65625 372.33333333333337 L 1043.65625 372.33333333333337 " class="clickable"/></g></g><g id="sprotty_ArchitectureBlockImpl$otp_ctrl_ecc_reg/GenerateStatementBlockImpl$gen_ecc_dec" transform="translate(554.59375, 243.33333333333334)" class="generate"><g class="sprotty-block sprotty-block-generate" style="fill:rgb(255, 255, 255);stroke:rgb(48, 48, 48);stroke-dasharray:0px;"><rect x="0" y="0" rx="1" ry="1" width="459.0625" height="162" style="stroke-dasharray:3px, 1px;"/><text x="229.53125" y="12" class="sprotty-block-name" style="cursor:pointer;font-weight:700;perspective-origin:229.531px 0px;fill:rgb(48, 48, 48);stroke:rgba(0, 0, 0, 0);dominant-baseline:middle;text-anchor:middle;">gen_ecc_dec</text><line x1="0" y1="20" x2="459.0625" y2="20" style="stroke-dasharray:3px, 1px;"/></g><g id="sprotty_ArchitectureBlockImpl$otp_ctrl_ecc_reg/GenerateStatementBlockImpl$gen_ecc_dec/GPortImpl$ecc_q_to_ArchitectureBlockImpl$otp_ctrl_ecc_reg/GenerateStatementBlockImpl$gen_ecc_dec/InstantiationBlockImpl$u_prim_secded_72_64_dec/BPortImpl$in" class="sprotty-edge thick edge" style="fill:none;stroke:rgb(112, 112, 112);stroke-linejoin:round;stroke-width:3px;"><g><path d="M 0 101 L 15 101 "/><path d="M 0 101 L 15 101 " class="clickable"/></g></g><g id="sprotty_ArchitectureBlockImpl$otp_ctrl_ecc_reg/GenerateStatementBlockImpl$gen_ecc_dec/InstantiationBlockImpl$u_prim_secded_72_64_dec/BPortImpl$err_o_to_ArchitectureBlockImpl$otp_ctrl_ecc_reg/GenerateStatementBlockImpl$gen_ecc_dec/GPortImpl$err" class="sprotty-edge thick edge" style="fill:none;stroke:rgb(112, 112, 112);stroke-linejoin:round;stroke-width:3px;"><g><path d="M 444.0625 129 L 459.0625 129 "/><path d="M 444.0625 129 L 459.0625 129 " class="clickable"/></g></g><g id="sprotty_ArchitectureBlockImpl$otp_ctrl_ecc_reg/GenerateStatementBlockImpl$gen_ecc_dec/InstantiationBlockImpl$u_prim_secded_72_64_dec" transform="translate(15, 35)" class="instantiation"><g class="sprotty-block" style="fill:rgb(255, 255, 255);stroke:rgb(48, 48, 48);stroke-dasharray:0px;"><rect x="0" y="0" rx="1" ry="1" width="429.0625" height="112"/><text x="214.53125" y="12" class="sprotty-block-name" style="cursor:pointer;font-weight:700;perspective-origin:214.531px 0px;fill:rgb(48, 48, 48);stroke:rgba(0, 0, 0, 0);dominant-baseline:middle;text-anchor:middle;">u_prim_secded_72_64_dec : prim_secded_72_64_dec</text><line x1="0" y1="20" x2="429.0625" y2="20"/></g><g id="sprotty_ArchitectureBlockImpl$otp_ctrl_ecc_reg/GenerateStatementBlockImpl$gen_ecc_dec/InstantiationBlockImpl$u_prim_secded_72_64_dec/BPortImpl$in" transform="translate(0, 66)" class="triangle"><path d="M 0,0 L 5,2.5 L 0,5 Z" transform="translate(-1.67, -2.5)" class="sprotty-port" style="fill:rgb(48, 48, 48);stroke:rgb(48, 48, 48);"/><text class="clickable sprotty-label port" id="sprotty_ArchitectureBlockImpl$otp_ctrl_ecc_reg/GenerateStatementBlockImpl$gen_ecc_dec/InstantiationBlockImpl$u_prim_secded_72_64_dec/BPortImpl$in/label" transform="translate(6, -9) translate(5.328125, 14)" style="cursor:default;font-size:12px;perspective-origin:0px 0px;fill:rgb(48, 48, 48);text-anchor:middle;">in</text></g><g id="sprotty_ArchitectureBlockImpl$otp_ctrl_ecc_reg/GenerateStatementBlockImpl$gen_ecc_dec/InstantiationBlockImpl$u_prim_secded_72_64_dec/BPortImpl$d_o" transform="translate(429.0625, 38)" class="triangle"><path d="M 0,0 L 5,2.5 L 0,5 Z" transform="translate(-1.67, -2.5)" class="sprotty-port" style="fill:rgb(48, 48, 48);stroke:rgb(48, 48, 48);"/><text class="clickable sprotty-label port" id="sprotty_ArchitectureBlockImpl$otp_ctrl_ecc_reg/GenerateStatementBlockImpl$gen_ecc_dec/InstantiationBlockImpl$u_prim_secded_72_64_dec/BPortImpl$d_o/label" transform="translate(-27.4375, -9) translate(10.71875, 14)" style="cursor:default;font-size:12px;perspective-origin:0px 0px;fill:rgb(48, 48, 48);text-anchor:middle;">d_o</text></g><g id="sprotty_ArchitectureBlockImpl$otp_ctrl_ecc_reg/GenerateStatementBlockImpl$gen_ecc_dec/InstantiationBlockImpl$u_prim_secded_72_64_dec/BPortImpl$syndrome_o" transform="translate(429.0625, 66)" class="triangle"><path d="M 0,0 L 5,2.5 L 0,5 Z" transform="translate(-1.67, -2.5)" class="sprotty-port" style="fill:rgb(48, 48, 48);stroke:rgb(48, 48, 48);"/><text class="clickable sprotty-label port" id="sprotty_ArchitectureBlockImpl$otp_ctrl_ecc_reg/GenerateStatementBlockImpl$gen_ecc_dec/InstantiationBlockImpl$u_prim_secded_72_64_dec/BPortImpl$syndrome_o/label" transform="translate(-76.1875, -9) translate(35.09375, 14)" style="cursor:default;font-size:12px;perspective-origin:0px 0px;fill:rgb(48, 48, 48);text-anchor:middle;">syndrome_o</text></g><g id="sprotty_ArchitectureBlockImpl$otp_ctrl_ecc_reg/GenerateStatementBlockImpl$gen_ecc_dec/InstantiationBlockImpl$u_prim_secded_72_64_dec/BPortImpl$err_o" transform="translate(429.0625, 94)" class="triangle"><path d="M 0,0 L 5,2.5 L 0,5 Z" transform="translate(-1.67, -2.5)" class="sprotty-port" style="fill:rgb(48, 48, 48);stroke:rgb(48, 48, 48);"/><text class="clickable sprotty-label port" id="sprotty_ArchitectureBlockImpl$otp_ctrl_ecc_reg/GenerateStatementBlockImpl$gen_ecc_dec/InstantiationBlockImpl$u_prim_secded_72_64_dec/BPortImpl$err_o/label" transform="translate(-35.96875, -9) translate(14.984375, 14)" style="cursor:default;font-size:12px;perspective-origin:0px 0px;fill:rgb(48, 48, 48);text-anchor:middle;">err_o</text></g></g><g id="sprotty_ArchitectureBlockImpl$otp_ctrl_ecc_reg/GenerateStatementBlockImpl$gen_ecc_dec/GPortImpl$ecc_q" transform="translate(0, 101)" class="triangle"><path d="M 0,0 L 5,2.5 L 0,5 Z" transform="translate(-1.67, -2.5)" class="sprotty-port" style="fill:rgb(48, 48, 48);stroke:rgb(48, 48, 48);"/></g><g id="sprotty_ArchitectureBlockImpl$otp_ctrl_ecc_reg/GenerateStatementBlockImpl$gen_ecc_dec/GPortImpl$err" transform="translate(459.0625, 129)" class="triangle"><path d="M 0,0 L 5,2.5 L 0,5 Z" transform="translate(-1.67, -2.5)" class="sprotty-port" style="fill:rgb(48, 48, 48);stroke:rgb(48, 48, 48);"/></g></g><g id="sprotty_ArchitectureBlockImpl$otp_ctrl_ecc_reg/GenerateStatementBlockImpl$null8" transform="translate(588.1328125, 73.33333333333334)" class="generate"><g class="sprotty-block sprotty-block-generate" style="fill:rgb(255, 255, 255);stroke:rgb(48, 48, 48);stroke-dasharray:0px;"><rect x="0" y="0" rx="1" ry="1" width="190.75" height="150" style="stroke-dasharray:3px, 1px;"/><text x="95.375" y="12" class="sprotty-block-name" style="cursor:pointer;font-weight:700;fill:rgb(48, 48, 48);stroke:rgba(0, 0, 0, 0);dominant-baseline:middle;text-anchor:middle;"/>undefined</g><g id="sprotty_ArchitectureBlockImpl$otp_ctrl_ecc_reg/GenerateStatementBlockImpl$null8/AlwaysBlockImpl$p_write/GPortImpl$addr_iOUT_to_ArchitectureBlockImpl$otp_ctrl_ecc_reg/GenerateStatementBlockImpl$null8/GPortImpl$addr_i" class="sprotty-edge thick edge" style="fill:none;stroke:rgb(112, 112, 112);stroke-linejoin:round;stroke-width:3px;"><g><path d="M 135.75 25 L 190.75 25 "/><path d="M 135.75 25 L 190.75 25 " class="clickable"/></g></g><g id="sprotty_ArchitectureBlockImpl$otp_ctrl_ecc_reg/GenerateStatementBlockImpl$null8/AlwaysBlockImpl$p_write1/GPortImpl$data_oOUT_to_ArchitectureBlockImpl$otp_ctrl_ecc_reg/GenerateStatementBlockImpl$null8/GPortImpl$data_o" class="sprotty-edge thick edge" style="fill:none;stroke:rgb(112, 112, 112);stroke-linejoin:round;stroke-width:3px;"><g><path d="M 135.75 110 L 190.75 110 "/><path d="M 135.75 110 L 190.75 110 " class="clickable"/></g></g><g id="sprotty_ArchitectureBlockImpl$otp_ctrl_ecc_reg/GenerateStatementBlockImpl$null8/AlwaysBlockImpl$p_write/GPortImpl$data_oOUT_to_ArchitectureBlockImpl$otp_ctrl_ecc_reg/GenerateStatementBlockImpl$null8/GPortImpl$data_o" class="sprotty-edge thick edge" style="fill:none;stroke:rgb(112, 112, 112);stroke-linejoin:round;stroke-width:3px;"><g><path d="M 135.75 45 L 153.75 45 C 154.75 45 155.75 46 155.75 47 L 155.75 108 C 155.75 109 156.75 110 157.75 110 L 190.75 110 "/><path d="M 135.75 45 L 153.75 45 C 154.75 45 155.75 46 155.75 47 L 155.75 108 C 155.75 109 156.75 110 157.75 110 L 190.75 110 " class="clickable"/></g><circle r="3" id="sprotty_ArchitectureBlockImpl$otp_ctrl_ecc_reg/GenerateStatementBlockImpl$null8/AlwaysBlockImpl$p_write/GPortImpl$data_oOUT_to_ArchitectureBlockImpl$otp_ctrl_ecc_reg/GenerateStatementBlockImpl$null8/GPortImpl$data_o/junction0" transform="translate(155.75, 110)" class="sprotty-junction thick" style="fill:rgb(112, 112, 112);stroke:none;"/></g><g id="sprotty_ArchitectureBlockImpl$otp_ctrl_ecc_reg/GenerateStatementBlockImpl$null8/GPortImpl$wren_i_to_ArchitectureBlockImpl$otp_ctrl_ecc_reg/GenerateStatementBlockImpl$null8/AlwaysBlockImpl$p_write1/GPortImpl$wren_iIN" class="sprotty-edge edge" style="fill:none;stroke:rgb(112, 112, 112);stroke-linejoin:round;"><g><path d="M 0 115 L 65 115 "/><path d="M 0 115 L 65 115 " class="clickable"/></g></g><g id="sprotty_ArchitectureBlockImpl$otp_ctrl_ecc_reg/GenerateStatementBlockImpl$null8/GPortImpl$wren_i_to_ArchitectureBlockImpl$otp_ctrl_ecc_reg/GenerateStatementBlockImpl$null8/AlwaysBlockImpl$p_write/GPortImpl$wren_iIN" class="sprotty-edge edge" style="fill:none;stroke:rgb(112, 112, 112);stroke-linejoin:round;"><g><path d="M 0 115 L 33 115 C 34 115 35 114 35 113 L 35 47 C 35 46 36 45 37 45 L 65 45 "/><path d="M 0 115 L 33 115 C 34 115 35 114 35 113 L 35 47 C 35 46 36 45 37 45 L 65 45 " class="clickable"/></g><circle r="2" id="sprotty_ArchitectureBlockImpl$otp_ctrl_ecc_reg/GenerateStatementBlockImpl$null8/GPortImpl$wren_i_to_ArchitectureBlockImpl$otp_ctrl_ecc_reg/GenerateStatementBlockImpl$null8/AlwaysBlockImpl$p_write/GPortImpl$wren_iIN/junction0" transform="translate(35, 115)" class="sprotty-junction junction" style="fill:rgb(112, 112, 112);stroke:none;"/></g><g id="sprotty_ArchitectureBlockImpl$otp_ctrl_ecc_reg/GenerateStatementBlockImpl$null8/AlwaysBlockImpl$p_write1/GPortImpl$data_dOUT_to_ArchitectureBlockImpl$otp_ctrl_ecc_reg/GenerateStatementBlockImpl$null8/GPortImpl$data_d" class="sprotty-edge thick edge" style="fill:none;stroke:rgb(112, 112, 112);stroke-linejoin:round;stroke-width:3px;"><g><path d="M 135.75 122.5 L 190.75 122.5 "/><path d="M 135.75 122.5 L 190.75 122.5 " class="clickable"/></g></g><g id="sprotty_ArchitectureBlockImpl$otp_ctrl_ecc_reg/GenerateStatementBlockImpl$null8/AlwaysBlockImpl$p_write/GPortImpl$data_dOUT_to_ArchitectureBlockImpl$otp_ctrl_ecc_reg/GenerateStatementBlockImpl$null8/GPortImpl$data_d" class="sprotty-edge thick edge" style="fill:none;stroke:rgb(112, 112, 112);stroke-linejoin:round;stroke-width:3px;"><g><path d="M 135.75 55 L 143.75 55 C 144.75 55 145.75 56 145.75 57 L 145.75 120.5 C 145.75 121.5 146.75 122.5 147.75 122.5 L 190.75 122.5 "/><path d="M 135.75 55 L 143.75 55 C 144.75 55 145.75 56 145.75 57 L 145.75 120.5 C 145.75 121.5 146.75 122.5 147.75 122.5 L 190.75 122.5 " class="clickable"/></g><circle r="3" id="sprotty_ArchitectureBlockImpl$otp_ctrl_ecc_reg/GenerateStatementBlockImpl$null8/AlwaysBlockImpl$p_write/GPortImpl$data_dOUT_to_ArchitectureBlockImpl$otp_ctrl_ecc_reg/GenerateStatementBlockImpl$null8/GPortImpl$data_d/junction0" transform="translate(145.75, 122.5)" class="sprotty-junction thick" style="fill:rgb(112, 112, 112);stroke:none;"/></g><g id="sprotty_ArchitectureBlockImpl$otp_ctrl_ecc_reg/GenerateStatementBlockImpl$null8/GPortImpl$data_q_to_ArchitectureBlockImpl$otp_ctrl_ecc_reg/GenerateStatementBlockImpl$null8/AlwaysBlockImpl$p_write1/GPortImpl$data_qIN" class="sprotty-edge thick edge" style="fill:none;stroke:rgb(112, 112, 112);stroke-linejoin:round;stroke-width:3px;"><g><path d="M 0 25 L 53 25 C 54 25 55 26 55 27 L 55 93 C 55 94 56 95 57 95 L 65 95 "/><path d="M 0 25 L 53 25 C 54 25 55 26 55 27 L 55 93 C 55 94 56 95 57 95 L 65 95 " class="clickable"/></g><circle r="3" id="sprotty_ArchitectureBlockImpl$otp_ctrl_ecc_reg/GenerateStatementBlockImpl$null8/GPortImpl$data_q_to_ArchitectureBlockImpl$otp_ctrl_ecc_reg/GenerateStatementBlockImpl$null8/AlwaysBlockImpl$p_write1/GPortImpl$data_qIN/junction0" transform="translate(55, 25)" class="sprotty-junction thick" style="fill:rgb(112, 112, 112);stroke:none;"/></g><g id="sprotty_ArchitectureBlockImpl$otp_ctrl_ecc_reg/GenerateStatementBlockImpl$null8/GPortImpl$data_q_to_ArchitectureBlockImpl$otp_ctrl_ecc_reg/GenerateStatementBlockImpl$null8/AlwaysBlockImpl$p_write/GPortImpl$data_qIN" class="sprotty-edge thick edge" style="fill:none;stroke:rgb(112, 112, 112);stroke-linejoin:round;stroke-width:3px;"><g><path d="M 0 25 L 65 25 "/><path d="M 0 25 L 65 25 " class="clickable"/></g></g><g id="sprotty_ArchitectureBlockImpl$otp_ctrl_ecc_reg/GenerateStatementBlockImpl$null8/AlwaysBlockImpl$p_write1/GPortImpl$ecc_dOUT_to_ArchitectureBlockImpl$otp_ctrl_ecc_reg/GenerateStatementBlockImpl$null8/GPortImpl$ecc_d" class="sprotty-edge thick edge" style="fill:none;stroke:rgb(112, 112, 112);stroke-linejoin:round;stroke-width:3px;"><g><path d="M 135.75 97.5 L 190.75 97.5 "/><path d="M 135.75 97.5 L 190.75 97.5 " class="clickable"/></g></g><g id="sprotty_ArchitectureBlockImpl$otp_ctrl_ecc_reg/GenerateStatementBlockImpl$null8/AlwaysBlockImpl$p_write/GPortImpl$ecc_dOUT_to_ArchitectureBlockImpl$otp_ctrl_ecc_reg/GenerateStatementBlockImpl$null8/GPortImpl$ecc_d" class="sprotty-edge thick edge" style="fill:none;stroke:rgb(112, 112, 112);stroke-linejoin:round;stroke-width:3px;"><g><path d="M 135.75 35 L 163.75 35 C 164.75 35 165.75 36 165.75 37 L 165.75 95.5 C 165.75 96.5 166.75 97.5 167.75 97.5 L 190.75 97.5 "/><path d="M 135.75 35 L 163.75 35 C 164.75 35 165.75 36 165.75 37 L 165.75 95.5 C 165.75 96.5 166.75 97.5 167.75 97.5 L 190.75 97.5 " class="clickable"/></g><circle r="3" id="sprotty_ArchitectureBlockImpl$otp_ctrl_ecc_reg/GenerateStatementBlockImpl$null8/AlwaysBlockImpl$p_write/GPortImpl$ecc_dOUT_to_ArchitectureBlockImpl$otp_ctrl_ecc_reg/GenerateStatementBlockImpl$null8/GPortImpl$ecc_d/junction0" transform="translate(165.75, 97.5)" class="sprotty-junction thick" style="fill:rgb(112, 112, 112);stroke:none;"/></g><g id="sprotty_ArchitectureBlockImpl$otp_ctrl_ecc_reg/GenerateStatementBlockImpl$null8/GPortImpl$ecc_q_to_ArchitectureBlockImpl$otp_ctrl_ecc_reg/GenerateStatementBlockImpl$null8/AlwaysBlockImpl$p_write1/GPortImpl$ecc_qIN" class="sprotty-edge thick edge" style="fill:none;stroke:rgb(112, 112, 112);stroke-linejoin:round;stroke-width:3px;"><g><path d="M 0 125 L 65 125 "/><path d="M 0 125 L 65 125 " class="clickable"/></g></g><g id="sprotty_ArchitectureBlockImpl$otp_ctrl_ecc_reg/GenerateStatementBlockImpl$null8/GPortImpl$ecc_q_to_ArchitectureBlockImpl$otp_ctrl_ecc_reg/GenerateStatementBlockImpl$null8/AlwaysBlockImpl$p_write/GPortImpl$ecc_qIN" class="sprotty-edge thick edge" style="fill:none;stroke:rgb(112, 112, 112);stroke-linejoin:round;stroke-width:3px;"><g><path d="M 0 125 L 43 125 C 44 125 45 124 45 123 L 45 57 C 45 56 46 55 47 55 L 65 55 "/><path d="M 0 125 L 43 125 C 44 125 45 124 45 123 L 45 57 C 45 56 46 55 47 55 L 65 55 " class="clickable"/></g><circle r="3" id="sprotty_ArchitectureBlockImpl$otp_ctrl_ecc_reg/GenerateStatementBlockImpl$null8/GPortImpl$ecc_q_to_ArchitectureBlockImpl$otp_ctrl_ecc_reg/GenerateStatementBlockImpl$null8/AlwaysBlockImpl$p_write/GPortImpl$ecc_qIN/junction0" transform="translate(45, 125)" class="sprotty-junction thick" style="fill:rgb(112, 112, 112);stroke:none;"/></g><g id="sprotty_ArchitectureBlockImpl$otp_ctrl_ecc_reg/GenerateStatementBlockImpl$null8/GPortImpl$ecc_enc_to_ArchitectureBlockImpl$otp_ctrl_ecc_reg/GenerateStatementBlockImpl$null8/AlwaysBlockImpl$p_write1/GPortImpl$ecc_encIN" class="sprotty-edge thick edge" style="fill:none;stroke:rgb(112, 112, 112);stroke-linejoin:round;stroke-width:3px;"><g><path d="M 0 35 L 23 35 C 24 35 25 36 25 37 L 25 103 C 25 104 26 105 27 105 L 65 105 "/><path d="M 0 35 L 23 35 C 24 35 25 36 25 37 L 25 103 C 25 104 26 105 27 105 L 65 105 " class="clickable"/></g><circle r="3" id="sprotty_ArchitectureBlockImpl$otp_ctrl_ecc_reg/GenerateStatementBlockImpl$null8/GPortImpl$ecc_enc_to_ArchitectureBlockImpl$otp_ctrl_ecc_reg/GenerateStatementBlockImpl$null8/AlwaysBlockImpl$p_write1/GPortImpl$ecc_encIN/junction0" transform="translate(25, 35)" class="sprotty-junction thick" style="fill:rgb(112, 112, 112);stroke:none;"/></g><g id="sprotty_ArchitectureBlockImpl$otp_ctrl_ecc_reg/GenerateStatementBlockImpl$null8/GPortImpl$ecc_enc_to_ArchitectureBlockImpl$otp_ctrl_ecc_reg/GenerateStatementBlockImpl$null8/AlwaysBlockImpl$p_write/GPortImpl$ecc_encIN" class="sprotty-edge thick edge" style="fill:none;stroke:rgb(112, 112, 112);stroke-linejoin:round;stroke-width:3px;"><g><path d="M 0 35 L 65 35 "/><path d="M 0 35 L 65 35 " class="clickable"/></g></g><g id="sprotty_ArchitectureBlockImpl$otp_ctrl_ecc_reg/GenerateStatementBlockImpl$null8/AlwaysBlockImpl$p_write" transform="translate(65, 15)" class="statement"><rect x="0" y="0" rx="10" ry="5" width="70.75" height="50" class="sprotty-node" style="fill:rgb(245, 245, 245);stroke:rgb(112, 112, 112);"/><text class="clickable sprotty-label statementtext" id="sprotty_ArchitectureBlockImpl$otp_ctrl_ecc_reg/GenerateStatementBlockImpl$null8/AlwaysBlockImpl$p_write/labeltext" transform="translate(5, 7) translate(30.375, 19)" style="cursor:default;font-weight:700;perspective-origin:0px 0px;fill:rgb(112, 112, 112);text-anchor:middle;">p_write</text><text class="clickable sprotty-label statementtype" id="sprotty_ArchitectureBlockImpl$otp_ctrl_ecc_reg/GenerateStatementBlockImpl$null8/AlwaysBlockImpl$p_write/labeltype" transform="translate(8.5, 31) translate(26.875, 9)" style="cursor:default;font-size:8px;font-weight:700;perspective-origin:0px 0px;fill:rgb(112, 112, 112);text-anchor:middle;">always_comb</text><g id="sprotty_ArchitectureBlockImpl$otp_ctrl_ecc_reg/GenerateStatementBlockImpl$null8/AlwaysBlockImpl$p_write/GPortImpl$ecc_encIN" transform="translate(0, 20)" class="sprotty-hidden hidden" style="display:block;height:0px;width:0px;"/><g id="sprotty_ArchitectureBlockImpl$otp_ctrl_ecc_reg/GenerateStatementBlockImpl$null8/AlwaysBlockImpl$p_write/GPortImpl$wren_iIN" transform="translate(0, 30)" class="sprotty-hidden hidden" style="display:block;height:0px;width:0px;"/><g id="sprotty_ArchitectureBlockImpl$otp_ctrl_ecc_reg/GenerateStatementBlockImpl$null8/AlwaysBlockImpl$p_write/GPortImpl$ecc_qIN" transform="translate(0, 40)" class="sprotty-hidden hidden" style="display:block;height:0px;width:0px;"/><g id="sprotty_ArchitectureBlockImpl$otp_ctrl_ecc_reg/GenerateStatementBlockImpl$null8/AlwaysBlockImpl$p_write/GPortImpl$data_qIN" transform="translate(0, 10)" class="sprotty-hidden hidden" style="display:block;height:0px;width:0px;"/><g id="sprotty_ArchitectureBlockImpl$otp_ctrl_ecc_reg/GenerateStatementBlockImpl$null8/AlwaysBlockImpl$p_write/GPortImpl$data_oOUT" transform="translate(70.75, 30)" class="sprotty-hidden hidden" style="display:block;height:0px;width:0px;"/><g id="sprotty_ArchitectureBlockImpl$otp_ctrl_ecc_reg/GenerateStatementBlockImpl$null8/AlwaysBlockImpl$p_write/GPortImpl$data_dOUT" transform="translate(70.75, 40)" class="sprotty-hidden hidden" style="display:block;height:0px;width:0px;"/><g id="sprotty_ArchitectureBlockImpl$otp_ctrl_ecc_reg/GenerateStatementBlockImpl$null8/AlwaysBlockImpl$p_write/GPortImpl$ecc_dOUT" transform="translate(70.75, 20)" class="sprotty-hidden hidden" style="display:block;height:0px;width:0px;"/><g id="sprotty_ArchitectureBlockImpl$otp_ctrl_ecc_reg/GenerateStatementBlockImpl$null8/AlwaysBlockImpl$p_write/GPortImpl$addr_iOUT" transform="translate(70.75, 10)" class="sprotty-hidden hidden" style="display:block;height:0px;width:0px;"/></g><g id="sprotty_ArchitectureBlockImpl$otp_ctrl_ecc_reg/GenerateStatementBlockImpl$null8/AlwaysBlockImpl$p_write1" transform="translate(65, 85)" class="statement"><rect x="0" y="0" rx="10" ry="5" width="70.75" height="50" class="sprotty-node" style="fill:rgb(245, 245, 245);stroke:rgb(112, 112, 112);"/><text class="clickable sprotty-label statementtext" id="sprotty_ArchitectureBlockImpl$otp_ctrl_ecc_reg/GenerateStatementBlockImpl$null8/AlwaysBlockImpl$p_write1/labeltext" transform="translate(5, 7) translate(30.375, 19)" style="cursor:default;font-weight:700;perspective-origin:0px 0px;fill:rgb(112, 112, 112);text-anchor:middle;">p_write</text><text class="clickable sprotty-label statementtype" id="sprotty_ArchitectureBlockImpl$otp_ctrl_ecc_reg/GenerateStatementBlockImpl$null8/AlwaysBlockImpl$p_write1/labeltype" transform="translate(8.5, 31) translate(26.875, 9)" style="cursor:default;font-size:8px;font-weight:700;perspective-origin:0px 0px;fill:rgb(112, 112, 112);text-anchor:middle;">always_comb</text><g id="sprotty_ArchitectureBlockImpl$otp_ctrl_ecc_reg/GenerateStatementBlockImpl$null8/AlwaysBlockImpl$p_write1/GPortImpl$ecc_encIN" transform="translate(0, 20)" class="sprotty-hidden hidden" style="display:block;height:0px;width:0px;"/><g id="sprotty_ArchitectureBlockImpl$otp_ctrl_ecc_reg/GenerateStatementBlockImpl$null8/AlwaysBlockImpl$p_write1/GPortImpl$wren_iIN" transform="translate(0, 30)" class="sprotty-hidden hidden" style="display:block;height:0px;width:0px;"/><g id="sprotty_ArchitectureBlockImpl$otp_ctrl_ecc_reg/GenerateStatementBlockImpl$null8/AlwaysBlockImpl$p_write1/GPortImpl$ecc_qIN" transform="translate(0, 40)" class="sprotty-hidden hidden" style="display:block;height:0px;width:0px;"/><g id="sprotty_ArchitectureBlockImpl$otp_ctrl_ecc_reg/GenerateStatementBlockImpl$null8/AlwaysBlockImpl$p_write1/GPortImpl$data_qIN" transform="translate(0, 10)" class="sprotty-hidden hidden" style="display:block;height:0px;width:0px;"/><g id="sprotty_ArchitectureBlockImpl$otp_ctrl_ecc_reg/GenerateStatementBlockImpl$null8/AlwaysBlockImpl$p_write1/GPortImpl$data_oOUT" transform="translate(70.75, 25)" class="sprotty-hidden hidden" style="display:block;height:0px;width:0px;"/><g id="sprotty_ArchitectureBlockImpl$otp_ctrl_ecc_reg/GenerateStatementBlockImpl$null8/AlwaysBlockImpl$p_write1/GPortImpl$data_dOUT" transform="translate(70.75, 37.5)" class="sprotty-hidden hidden" style="display:block;height:0px;width:0px;"/><g id="sprotty_ArchitectureBlockImpl$otp_ctrl_ecc_reg/GenerateStatementBlockImpl$null8/AlwaysBlockImpl$p_write1/GPortImpl$ecc_dOUT" transform="translate(70.75, 12.5)" class="sprotty-hidden hidden" style="display:block;height:0px;width:0px;"/></g><g id="sprotty_ArchitectureBlockImpl$otp_ctrl_ecc_reg/GenerateStatementBlockImpl$null8/GPortImpl$ecc_enc" transform="translate(0, 35)" class="triangle"><path d="M 0,0 L 5,2.5 L 0,5 Z" transform="translate(-1.67, -2.5)" class="sprotty-port" style="fill:rgb(48, 48, 48);stroke:rgb(48, 48, 48);"/></g><g id="sprotty_ArchitectureBlockImpl$otp_ctrl_ecc_reg/GenerateStatementBlockImpl$null8/GPortImpl$ecc_q" transform="translate(0, 125)" class="triangle"><path d="M 0,0 L 5,2.5 L 0,5 Z" transform="translate(-1.67, -2.5)" class="sprotty-port" style="fill:rgb(48, 48, 48);stroke:rgb(48, 48, 48);"/></g><g id="sprotty_ArchitectureBlockImpl$otp_ctrl_ecc_reg/GenerateStatementBlockImpl$null8/GPortImpl$data_q" transform="translate(0, 25)" class="triangle"><path d="M 0,0 L 5,2.5 L 0,5 Z" transform="translate(-1.67, -2.5)" class="sprotty-port" style="fill:rgb(48, 48, 48);stroke:rgb(48, 48, 48);"/></g><g id="sprotty_ArchitectureBlockImpl$otp_ctrl_ecc_reg/GenerateStatementBlockImpl$null8/GPortImpl$wren_i" transform="translate(0, 115)" class="triangle"><path d="M 0,0 L 5,2.5 L 0,5 Z" transform="translate(-1.67, -2.5)" class="sprotty-port" style="fill:rgb(48, 48, 48);stroke:rgb(48, 48, 48);"/></g><g id="sprotty_ArchitectureBlockImpl$otp_ctrl_ecc_reg/GenerateStatementBlockImpl$null8/GPortImpl$addr_i" transform="translate(190.75, 25)" class="triangle"><path d="M 0,0 L 5,2.5 L 0,5 Z" transform="translate(-1.67, -2.5)" class="sprotty-port" style="fill:rgb(48, 48, 48);stroke:rgb(48, 48, 48);"/></g><g id="sprotty_ArchitectureBlockImpl$otp_ctrl_ecc_reg/GenerateStatementBlockImpl$null8/GPortImpl$data_o" transform="translate(190.75, 110)" class="triangle"><path d="M 0,0 L 5,2.5 L 0,5 Z" transform="translate(-1.67, -2.5)" class="sprotty-port" style="fill:rgb(48, 48, 48);stroke:rgb(48, 48, 48);"/></g><g id="sprotty_ArchitectureBlockImpl$otp_ctrl_ecc_reg/GenerateStatementBlockImpl$null8/GPortImpl$data_d" transform="translate(190.75, 122.5)" class="triangle"><path d="M 0,0 L 5,2.5 L 0,5 Z" transform="translate(-1.67, -2.5)" class="sprotty-port" style="fill:rgb(48, 48, 48);stroke:rgb(48, 48, 48);"/></g><g id="sprotty_ArchitectureBlockImpl$otp_ctrl_ecc_reg/GenerateStatementBlockImpl$null8/GPortImpl$ecc_d" transform="translate(190.75, 97.5)" class="triangle"><path d="M 0,0 L 5,2.5 L 0,5 Z" transform="translate(-1.67, -2.5)" class="sprotty-port" style="fill:rgb(48, 48, 48);stroke:rgb(48, 48, 48);"/></g></g><g id="sprotty_ArchitectureBlockImpl$otp_ctrl_ecc_reg/AlwaysBlockImpl$p_regs" transform="translate(339.71875, 165)" class="statement"><rect x="0" y="0" rx="10" ry="5" width="62.828125" height="50" class="sprotty-node" style="fill:rgb(245, 245, 245);stroke:rgb(112, 112, 112);"/><text class="clickable sprotty-label statementtext" id="sprotty_ArchitectureBlockImpl$otp_ctrl_ecc_reg/AlwaysBlockImpl$p_regs/labeltext" transform="translate(5, 7) translate(26.375, 19)" style="cursor:default;font-weight:700;perspective-origin:0.03125px 0px;fill:rgb(112, 112, 112);text-anchor:middle;">p_regs</text><text class="clickable sprotty-label statementtype" id="sprotty_ArchitectureBlockImpl$otp_ctrl_ecc_reg/AlwaysBlockImpl$p_regs/labeltype" transform="translate(11.96875, 31) translate(18.828125, 9)" style="cursor:default;font-size:8px;font-weight:700;perspective-origin:0.609375px 0px;fill:rgb(112, 112, 112);text-anchor:middle;">always_ff</text><g id="sprotty_ArchitectureBlockImpl$otp_ctrl_ecc_reg/AlwaysBlockImpl$p_regs/GPortImpl$data_dIN" transform="translate(0, 40)" class="sprotty-hidden hidden" style="display:block;height:0px;width:0px;"/><g id="sprotty_ArchitectureBlockImpl$otp_ctrl_ecc_reg/AlwaysBlockImpl$p_regs/GPortImpl$ecc_dIN" transform="translate(0, 10)" class="sprotty-hidden hidden" style="display:block;height:0px;width:0px;"/><g id="sprotty_ArchitectureBlockImpl$otp_ctrl_ecc_reg/AlwaysBlockImpl$p_regs/GPortImpl$rst_niIN" transform="translate(0, 30)" class="sprotty-hidden hidden" style="display:block;height:0px;width:0px;"/><g id="sprotty_ArchitectureBlockImpl$otp_ctrl_ecc_reg/AlwaysBlockImpl$p_regs/GPortImpl$clk_iIN" transform="translate(0, 20)" class="sprotty-hidden hidden" style="display:block;height:0px;width:0px;"/><g id="sprotty_ArchitectureBlockImpl$otp_ctrl_ecc_reg/AlwaysBlockImpl$p_regs/GPortImpl$ecc_qOUT" transform="translate(62.828125, 33.333333333333336)" class="sprotty-hidden hidden" style="display:block;height:0px;width:0px;"/><g id="sprotty_ArchitectureBlockImpl$otp_ctrl_ecc_reg/AlwaysBlockImpl$p_regs/GPortImpl$data_qOUT" transform="translate(62.828125, 16.666666666666668)" class="sprotty-hidden hidden" style="display:block;height:0px;width:0px;"/></g><g id="sprotty_ArchitectureBlockImpl$otp_ctrl_ecc_reg/AssignmentBlockImpl$ecc_err_o" transform="translate(1043.65625, 361.33333333333337)" class="statement"><rect x="0" y="0" rx="10" ry="5" width="19.71875" height="22" class="sprotty-node" style="fill:rgb(245, 245, 245);stroke:rgb(112, 112, 112);"/><text class="clickable sprotty-label statementtype" id="sprotty_ArchitectureBlockImpl$otp_ctrl_ecc_reg/AssignmentBlockImpl$ecc_err_o/labeltype" transform="translate(5, 5) translate(4.71875, 9)" style="cursor:default;font-size:8px;font-weight:700;perspective-origin:0.140625px 0px;fill:rgb(112, 112, 112);text-anchor:middle;">&lt;=</text><g id="sprotty_ArchitectureBlockImpl$otp_ctrl_ecc_reg/AssignmentBlockImpl$ecc_err_o/GPortImpl$errIN" transform="translate(0, 11)" class="sprotty-hidden hidden" style="display:block;height:0px;width:0px;"/><g id="sprotty_ArchitectureBlockImpl$otp_ctrl_ecc_reg/AssignmentBlockImpl$ecc_err_o/GPortImpl$ecc_err_oOUT" transform="translate(19.71875, 11)" class="sprotty-hidden hidden" style="display:block;height:0px;width:0px;"/></g><g id="sprotty_ArchitectureBlockImpl$otp_ctrl_ecc_reg/InstantiationBlockImpl$u_prim_secded_72_64_enc" transform="translate(95.625, 55)" class="instantiation"><g class="sprotty-block" style="fill:rgb(255, 255, 255);stroke:rgb(48, 48, 48);stroke-dasharray:0px;"><rect x="0" y="0" rx="1" ry="1" width="428.96875" height="56"/><text x="214.484375" y="12" class="sprotty-block-name" style="cursor:pointer;font-weight:700;perspective-origin:214.484px 0px;fill:rgb(48, 48, 48);stroke:rgba(0, 0, 0, 0);dominant-baseline:middle;text-anchor:middle;">u_prim_secded_72_64_enc : prim_secded_72_64_enc</text><line x1="0" y1="20" x2="428.96875" y2="20"/></g><g id="sprotty_ArchitectureBlockImpl$otp_ctrl_ecc_reg/InstantiationBlockImpl$u_prim_secded_72_64_enc/BPortImpl$in" transform="translate(0, 38)" class="triangle"><path d="M 0,0 L 5,2.5 L 0,5 Z" transform="translate(-1.67, -2.5)" class="sprotty-port" style="fill:rgb(48, 48, 48);stroke:rgb(48, 48, 48);"/><text class="clickable sprotty-label port" id="sprotty_ArchitectureBlockImpl$otp_ctrl_ecc_reg/InstantiationBlockImpl$u_prim_secded_72_64_enc/BPortImpl$in/label" transform="translate(6, -9) translate(5.328125, 14)" style="cursor:default;font-size:12px;perspective-origin:0px 0px;fill:rgb(48, 48, 48);text-anchor:middle;">in</text></g><g id="sprotty_ArchitectureBlockImpl$otp_ctrl_ecc_reg/InstantiationBlockImpl$u_prim_secded_72_64_enc/BPortImpl$out" transform="translate(428.96875, 38)" class="triangle"><path d="M 0,0 L 5,2.5 L 0,5 Z" transform="translate(-1.67, -2.5)" class="sprotty-port" style="fill:rgb(48, 48, 48);stroke:rgb(48, 48, 48);"/><text class="clickable sprotty-label port" id="sprotty_ArchitectureBlockImpl$otp_ctrl_ecc_reg/InstantiationBlockImpl$u_prim_secded_72_64_enc/BPortImpl$out/label" transform="translate(-25.578125, -9) translate(9.546875, 14)" style="cursor:default;font-size:12px;perspective-origin:0.234375px 0px;fill:rgb(48, 48, 48);text-anchor:middle;">out</text></g></g><g id="sprotty_ArchitectureBlockImpl$otp_ctrl_ecc_reg/BPortImpl$wdata_i" transform="translate(0, 93)" class="triangle"><path d="M 0,0 L 5,2.5 L 0,5 Z" transform="translate(-1.67, -2.5)" class="sprotty-port" style="fill:rgb(48, 48, 48);stroke:rgb(48, 48, 48);"/><text class="clickable sprotty-label port" id="sprotty_ArchitectureBlockImpl$otp_ctrl_ecc_reg/BPortImpl$wdata_i/label" transform="translate(6, 6) translate(22.3125, 14)" style="cursor:default;font-size:12px;perspective-origin:0px 0px;fill:rgb(48, 48, 48);text-anchor:middle;">wdata_i</text></g><g id="sprotty_ArchitectureBlockImpl$otp_ctrl_ecc_reg/BPortImpl$addr_i" transform="translate(0, 43)" class="triangle"><path d="M 0,0 L 5,2.5 L 0,5 Z" transform="translate(-1.67, -2.5)" class="sprotty-port" style="fill:rgb(48, 48, 48);stroke:rgb(48, 48, 48);"/><text class="clickable sprotty-label port" id="sprotty_ArchitectureBlockImpl$otp_ctrl_ecc_reg/BPortImpl$addr_i/label" transform="translate(6, 6) translate(18.15625, 14)" style="cursor:default;font-size:12px;perspective-origin:0px 0px;fill:rgb(48, 48, 48);text-anchor:middle;">addr_i</text></g><g id="sprotty_ArchitectureBlockImpl$otp_ctrl_ecc_reg/BPortImpl$wren_i" transform="translate(0, 127)" class="triangle"><path d="M 0,0 L 5,2.5 L 0,5 Z" transform="translate(-1.67, -2.5)" class="sprotty-port" style="fill:rgb(48, 48, 48);stroke:rgb(48, 48, 48);"/><text class="clickable sprotty-label port" id="sprotty_ArchitectureBlockImpl$otp_ctrl_ecc_reg/BPortImpl$wren_i/label" transform="translate(6, 6) translate(19.078125, 14)" style="cursor:default;font-size:12px;perspective-origin:0px 0px;fill:rgb(48, 48, 48);text-anchor:middle;">wren_i</text></g><g id="sprotty_ArchitectureBlockImpl$otp_ctrl_ecc_reg/BPortImpl$rst_ni" transform="translate(0, 195)" class="triangle"><path d="M 0,0 L 5,2.5 L 0,5 Z" transform="translate(-1.67, -2.5)" class="sprotty-port" style="fill:rgb(48, 48, 48);stroke:rgb(48, 48, 48);"/><text class="clickable sprotty-label port" id="sprotty_ArchitectureBlockImpl$otp_ctrl_ecc_reg/BPortImpl$rst_ni/label" transform="translate(6, 6) translate(15.921875, 14)" style="cursor:default;font-size:12px;perspective-origin:0px 0px;fill:rgb(48, 48, 48);text-anchor:middle;">rst_ni</text></g><g id="sprotty_ArchitectureBlockImpl$otp_ctrl_ecc_reg/BPortImpl$clk_i" transform="translate(0, 161)" class="triangle"><path d="M 0,0 L 5,2.5 L 0,5 Z" transform="translate(-1.67, -2.5)" class="sprotty-port" style="fill:rgb(48, 48, 48);stroke:rgb(48, 48, 48);"/><text class="clickable sprotty-label port" id="sprotty_ArchitectureBlockImpl$otp_ctrl_ecc_reg/BPortImpl$clk_i/label" transform="translate(6, 6) translate(13.09375, 14)" style="cursor:default;font-size:12px;perspective-origin:0px 0px;fill:rgb(48, 48, 48);text-anchor:middle;">clk_i</text></g><g id="sprotty_ArchitectureBlockImpl$otp_ctrl_ecc_reg/BPortImpl$data_o" transform="translate(1139.625, 183.33333333333334)" class="triangle"><path d="M 0,0 L 5,2.5 L 0,5 Z" transform="translate(-1.67, -2.5)" class="sprotty-port" style="fill:rgb(48, 48, 48);stroke:rgb(48, 48, 48);"/><text class="clickable sprotty-label port" id="sprotty_ArchitectureBlockImpl$otp_ctrl_ecc_reg/BPortImpl$data_o/label" transform="translate(-45.03125, 6) translate(19.515625, 14)" style="cursor:default;font-size:12px;perspective-origin:0px 0px;fill:rgb(48, 48, 48);text-anchor:middle;">data_o</text></g><g id="sprotty_ArchitectureBlockImpl$otp_ctrl_ecc_reg/BPortImpl$ecc_err_o" transform="translate(1139.625, 372.33333333333337)" class="triangle"><path d="M 0,0 L 5,2.5 L 0,5 Z" transform="translate(-1.67, -2.5)" class="sprotty-port" style="fill:rgb(48, 48, 48);stroke:rgb(48, 48, 48);"/><text class="clickable sprotty-label port" id="sprotty_ArchitectureBlockImpl$otp_ctrl_ecc_reg/BPortImpl$ecc_err_o/label" transform="translate(-61.25, 6) translate(27.625, 14)" style="cursor:default;font-size:12px;perspective-origin:0px 0px;fill:rgb(48, 48, 48);text-anchor:middle;">ecc_err_o</text></g></g></g></svg>