<svg xmlns="http://www.w3.org/2000/svg" id="sprotty_work.pwrmgr_wake_info" class="sprotty-graph sprotty-block-diagram blockdiagram" style="font-family:&quot;Noto Sans&quot;, Helvetica, Arial, sans-serif;perspective-origin:0px 0px;transform-origin:0px 0px;" version="1.1" viewBox="7 7 380.65625 357" width="380.65625" height="357"><g transform="scale(1) translate(0,0)"><g id="sprotty_ArchitectureBlockImpl$pwrmgr_wake_info" transform="translate(12, 12)" class="architecture"><g class="sprotty-block" style="fill:rgb(255, 255, 255);stroke:rgb(48, 48, 48);stroke-dasharray:0px;"><rect x="0" y="0" rx="1" ry="1" width="370.65625" height="347"/><text x="185.328125" y="12" class="sprotty-block-name" style="cursor:pointer;font-weight:700;perspective-origin:185.328px 0px;fill:rgb(48, 48, 48);stroke:rgba(0, 0, 0, 0);dominant-baseline:middle;text-anchor:middle;">pwrmgr_wake_info</text><line x1="0" y1="20" x2="370.65625" y2="20"/></g><g id="sprotty_ArchitectureBlockImpl$pwrmgr_wake_info/AlwaysBlockImpl$null10/GPortImpl$info_oOUT_to_ArchitectureBlockImpl$pwrmgr_wake_info/BPortImpl$info_o" class="sprotty-edge thick edge" style="fill:none;stroke:rgb(112, 112, 112);stroke-linejoin:round;stroke-width:3px;"><g><path d="M 294 148 L 370.65625 148 "/><path d="M 294 148 L 370.65625 148 " class="clickable"/></g></g><g id="sprotty_ArchitectureBlockImpl$pwrmgr_wake_info/BPortImpl$clk_i_to_ArchitectureBlockImpl$pwrmgr_wake_info/AlwaysBlockImpl$null11/GPortImpl$clk_iIN" class="sprotty-edge edge" style="fill:none;stroke:rgb(112, 112, 112);stroke-linejoin:round;"><g><path d="M 0 138 L 114.21875 138 C 115.21875 138 116.21875 139 116.21875 140 L 116.21875 160 C 116.21875 161 117.21875 162 118.21875 162 L 136.21875 162 "/><path d="M 0 138 L 114.21875 138 C 115.21875 138 116.21875 139 116.21875 140 L 116.21875 160 C 116.21875 161 117.21875 162 118.21875 162 L 136.21875 162 " class="clickable"/></g><circle r="2" id="sprotty_ArchitectureBlockImpl$pwrmgr_wake_info/BPortImpl$clk_i_to_ArchitectureBlockImpl$pwrmgr_wake_info/AlwaysBlockImpl$null11/GPortImpl$clk_iIN/junction0" transform="translate(116.21875, 138)" class="sprotty-junction junction" style="fill:rgb(112, 112, 112);stroke:none;"/></g><g id="sprotty_ArchitectureBlockImpl$pwrmgr_wake_info/BPortImpl$rst_ni_to_ArchitectureBlockImpl$pwrmgr_wake_info/AlwaysBlockImpl$null11/GPortImpl$rst_niIN" class="sprotty-edge edge" style="fill:none;stroke:rgb(112, 112, 112);stroke-linejoin:round;"><g><path d="M 0 240 L 124.21875 240 C 125.21875 240 126.21875 239 126.21875 238 L 126.21875 194 C 126.21875 193 127.21875 192 128.21875 192 L 136.21875 192 "/><path d="M 0 240 L 124.21875 240 C 125.21875 240 126.21875 239 126.21875 238 L 126.21875 194 C 126.21875 193 127.21875 192 128.21875 192 L 136.21875 192 " class="clickable"/></g><circle r="2" id="sprotty_ArchitectureBlockImpl$pwrmgr_wake_info/BPortImpl$rst_ni_to_ArchitectureBlockImpl$pwrmgr_wake_info/AlwaysBlockImpl$null11/GPortImpl$rst_niIN/junction0" transform="translate(126.21875, 240)" class="sprotty-junction junction" style="fill:rgb(112, 112, 112);stroke:none;"/></g><g id="sprotty_ArchitectureBlockImpl$pwrmgr_wake_info/BPortImpl$start_capture_i_to_ArchitectureBlockImpl$pwrmgr_wake_info/AlwaysBlockImpl$null11/GPortImpl$start_capture_iIN" class="sprotty-edge edge" style="fill:none;stroke:rgb(112, 112, 112);stroke-linejoin:round;"><g><path d="M 0 172 L 136.21875 172 "/><path d="M 0 172 L 136.21875 172 " class="clickable"/></g></g><g id="sprotty_ArchitectureBlockImpl$pwrmgr_wake_info/BPortImpl$record_dis_i_to_ArchitectureBlockImpl$pwrmgr_wake_info/AlwaysBlockImpl$null11/GPortImpl$record_dis_iIN" class="sprotty-edge edge" style="fill:none;stroke:rgb(112, 112, 112);stroke-linejoin:round;"><g><path d="M 0 206 L 114.21875 206 C 115.21875 206 116.21875 205 116.21875 204 L 116.21875 184 C 116.21875 183 117.21875 182 118.21875 182 L 136.21875 182 "/><path d="M 0 206 L 114.21875 206 C 115.21875 206 116.21875 205 116.21875 204 L 116.21875 184 C 116.21875 183 117.21875 182 118.21875 182 L 136.21875 182 " class="clickable"/></g></g><g id="sprotty_ArchitectureBlockImpl$pwrmgr_wake_info/BPortImpl$clk_i_to_ArchitectureBlockImpl$pwrmgr_wake_info/AlwaysBlockImpl$null10/GPortImpl$clk_iIN" class="sprotty-edge edge" style="fill:none;stroke:rgb(112, 112, 112);stroke-linejoin:round;"><g><path d="M 0 138 L 245.109375 138 "/><path d="M 0 138 L 245.109375 138 " class="clickable"/></g></g><g id="sprotty_ArchitectureBlockImpl$pwrmgr_wake_info/BPortImpl$rst_ni_to_ArchitectureBlockImpl$pwrmgr_wake_info/AlwaysBlockImpl$null10/GPortImpl$rst_niIN" class="sprotty-edge edge" style="fill:none;stroke:rgb(112, 112, 112);stroke-linejoin:round;"><g><path d="M 0 240 L 203.109375 240 C 204.109375 240 205.109375 239 205.109375 238 L 205.109375 160 C 205.109375 159 206.109375 158 207.109375 158 L 245.109375 158 "/><path d="M 0 240 L 203.109375 240 C 204.109375 240 205.109375 239 205.109375 238 L 205.109375 160 C 205.109375 159 206.109375 158 207.109375 158 L 245.109375 158 " class="clickable"/></g></g><g id="sprotty_ArchitectureBlockImpl$pwrmgr_wake_info/BPortImpl$wr_i_to_ArchitectureBlockImpl$pwrmgr_wake_info/AlwaysBlockImpl$null10/GPortImpl$wr_iIN" class="sprotty-edge edge" style="fill:none;stroke:rgb(112, 112, 112);stroke-linejoin:round;"><g><path d="M 0 274 L 213.109375 274 C 214.109375 274 215.109375 273 215.109375 272 L 215.109375 170 C 215.109375 169 216.109375 168 217.109375 168 L 245.109375 168 "/><path d="M 0 274 L 213.109375 274 C 214.109375 274 215.109375 273 215.109375 272 L 215.109375 170 C 215.109375 169 216.109375 168 217.109375 168 L 245.109375 168 " class="clickable"/></g></g><g id="sprotty_ArchitectureBlockImpl$pwrmgr_wake_info/BPortImpl$info_o_to_ArchitectureBlockImpl$pwrmgr_wake_info/AlwaysBlockImpl$null10/GPortImpl$info_oIN" class="sprotty-edge thick edge" style="fill:none;stroke:rgb(112, 112, 112);stroke-linejoin:round;stroke-width:3px;"><g><path d="M 370.65625 148 L 306 148 C 305 148 304 149 304 150 L 304 206 C 304 207 303 208 302 208 L 237.109375 208 C 236.109375 208 235.109375 207 235.109375 206 L 235.109375 190 C 235.109375 189 236.109375 188 237.109375 188 L 245.109375 188 "/><path d="M 370.65625 148 L 306 148 C 305 148 304 149 304 150 L 304 206 C 304 207 303 208 302 208 L 237.109375 208 C 236.109375 208 235.109375 207 235.109375 206 L 235.109375 190 C 235.109375 189 236.109375 188 237.109375 188 L 245.109375 188 " class="clickable"/></g><circle r="3" id="sprotty_ArchitectureBlockImpl$pwrmgr_wake_info/BPortImpl$info_o_to_ArchitectureBlockImpl$pwrmgr_wake_info/AlwaysBlockImpl$null10/GPortImpl$info_oIN/junction0" transform="translate(304, 148)" class="sprotty-junction thick" style="fill:rgb(112, 112, 112);stroke:none;"/></g><g id="sprotty_ArchitectureBlockImpl$pwrmgr_wake_info/BPortImpl$data_i_to_ArchitectureBlockImpl$pwrmgr_wake_info/AlwaysBlockImpl$null10/GPortImpl$data_iIN" class="sprotty-edge thick edge" style="fill:none;stroke:rgb(112, 112, 112);stroke-linejoin:round;stroke-width:3px;"><g><path d="M 0 36 L 213.109375 36 C 214.109375 36 215.109375 37 215.109375 38 L 215.109375 106 C 215.109375 107 216.109375 108 217.109375 108 L 245.109375 108 "/><path d="M 0 36 L 213.109375 36 C 214.109375 36 215.109375 37 215.109375 38 L 215.109375 106 C 215.109375 107 216.109375 108 217.109375 108 L 245.109375 108 " class="clickable"/></g></g><g id="sprotty_ArchitectureBlockImpl$pwrmgr_wake_info/BPortImpl$wakeups_i_to_ArchitectureBlockImpl$pwrmgr_wake_info/AlwaysBlockImpl$null10/GPortImpl$wakeups_iIN" class="sprotty-edge thick edge" style="fill:none;stroke:rgb(112, 112, 112);stroke-linejoin:round;stroke-width:3px;"><g><path d="M 0 308 L 223.109375 308 C 224.109375 308 225.109375 307 225.109375 306 L 225.109375 180 C 225.109375 179 226.109375 178 227.109375 178 L 245.109375 178 "/><path d="M 0 308 L 223.109375 308 C 224.109375 308 225.109375 307 225.109375 306 L 225.109375 180 C 225.109375 179 226.109375 178 227.109375 178 L 245.109375 178 " class="clickable"/></g></g><g id="sprotty_ArchitectureBlockImpl$pwrmgr_wake_info/BPortImpl$abort_i_to_ArchitectureBlockImpl$pwrmgr_wake_info/AlwaysBlockImpl$null10/GPortImpl$abort_iIN" class="sprotty-edge edge" style="fill:none;stroke:rgb(112, 112, 112);stroke-linejoin:round;"><g><path d="M 0 70 L 203.109375 70 C 204.109375 70 205.109375 71 205.109375 72 L 205.109375 116 C 205.109375 117 206.109375 118 207.109375 118 L 245.109375 118 "/><path d="M 0 70 L 203.109375 70 C 204.109375 70 205.109375 71 205.109375 72 L 205.109375 116 C 205.109375 117 206.109375 118 207.109375 118 L 245.109375 118 " class="clickable"/></g></g><g id="sprotty_ArchitectureBlockImpl$pwrmgr_wake_info/BPortImpl$fall_through_i_to_ArchitectureBlockImpl$pwrmgr_wake_info/AlwaysBlockImpl$null10/GPortImpl$fall_through_iIN" class="sprotty-edge edge" style="fill:none;stroke:rgb(112, 112, 112);stroke-linejoin:round;"><g><path d="M 0 104 L 193.109375 104 C 194.109375 104 195.109375 105 195.109375 106 L 195.109375 126 C 195.109375 127 196.109375 128 197.109375 128 L 245.109375 128 "/><path d="M 0 104 L 193.109375 104 C 194.109375 104 195.109375 105 195.109375 106 L 195.109375 126 C 195.109375 127 196.109375 128 197.109375 128 L 245.109375 128 " class="clickable"/></g></g><g id="sprotty_ArchitectureBlockImpl$pwrmgr_wake_info/AlwaysBlockImpl$null11/GPortImpl$record_enOUT_to_ArchitectureBlockImpl$pwrmgr_wake_info/AlwaysBlockImpl$null10/GPortImpl$record_enIN" class="sprotty-edge edge" style="fill:none;stroke:rgb(112, 112, 112);stroke-linejoin:round;"><g><path d="M 185.109375 177 L 193.109375 177 C 194.109375 177 195.109375 176 195.109375 175 L 195.109375 150 C 195.109375 149 196.109375 148 197.109375 148 L 245.109375 148 "/><path d="M 185.109375 177 L 193.109375 177 C 194.109375 177 195.109375 176 195.109375 175 L 195.109375 150 C 195.109375 149 196.109375 148 197.109375 148 L 245.109375 148 " class="clickable"/></g></g><g id="sprotty_ArchitectureBlockImpl$pwrmgr_wake_info/AlwaysBlockImpl$null10" transform="translate(245.109375, 98)" class="statement"><rect x="0" y="0" rx="10" ry="5" width="48.890625" height="100" class="sprotty-node" style="fill:rgb(245, 245, 245);stroke:rgb(112, 112, 112);"/><text class="clickable sprotty-label statementtype" id="sprotty_ArchitectureBlockImpl$pwrmgr_wake_info/AlwaysBlockImpl$null10/labeltype" transform="translate(5, 44) translate(18.828125, 9)" style="cursor:default;font-size:8px;font-weight:700;perspective-origin:0.609375px 0px;fill:rgb(112, 112, 112);text-anchor:middle;">always_ff</text><g id="sprotty_ArchitectureBlockImpl$pwrmgr_wake_info/AlwaysBlockImpl$null10/GPortImpl$fall_through_iIN" transform="translate(0, 30)" class="sprotty-hidden hidden" style="display:block;height:0px;width:0px;"/><g id="sprotty_ArchitectureBlockImpl$pwrmgr_wake_info/AlwaysBlockImpl$null10/GPortImpl$abort_iIN" transform="translate(0, 20)" class="sprotty-hidden hidden" style="display:block;height:0px;width:0px;"/><g id="sprotty_ArchitectureBlockImpl$pwrmgr_wake_info/AlwaysBlockImpl$null10/GPortImpl$wakeups_iIN" transform="translate(0, 80)" class="sprotty-hidden hidden" style="display:block;height:0px;width:0px;"/><g id="sprotty_ArchitectureBlockImpl$pwrmgr_wake_info/AlwaysBlockImpl$null10/GPortImpl$record_enIN" transform="translate(0, 50)" class="sprotty-hidden hidden" style="display:block;height:0px;width:0px;"/><g id="sprotty_ArchitectureBlockImpl$pwrmgr_wake_info/AlwaysBlockImpl$null10/GPortImpl$data_iIN" transform="translate(0, 10)" class="sprotty-hidden hidden" style="display:block;height:0px;width:0px;"/><g id="sprotty_ArchitectureBlockImpl$pwrmgr_wake_info/AlwaysBlockImpl$null10/GPortImpl$info_oIN" transform="translate(0, 90)" class="sprotty-hidden hidden" style="display:block;height:0px;width:0px;"/><g id="sprotty_ArchitectureBlockImpl$pwrmgr_wake_info/AlwaysBlockImpl$null10/GPortImpl$wr_iIN" transform="translate(0, 70)" class="sprotty-hidden hidden" style="display:block;height:0px;width:0px;"/><g id="sprotty_ArchitectureBlockImpl$pwrmgr_wake_info/AlwaysBlockImpl$null10/GPortImpl$rst_niIN" transform="translate(0, 60)" class="sprotty-hidden hidden" style="display:block;height:0px;width:0px;"/><g id="sprotty_ArchitectureBlockImpl$pwrmgr_wake_info/AlwaysBlockImpl$null10/GPortImpl$clk_iIN" transform="translate(0, 40)" class="sprotty-hidden hidden" style="display:block;height:0px;width:0px;"/><g id="sprotty_ArchitectureBlockImpl$pwrmgr_wake_info/AlwaysBlockImpl$null10/GPortImpl$info_oOUT" transform="translate(48.890625, 50)" class="sprotty-hidden hidden" style="display:block;height:0px;width:0px;"/></g><g id="sprotty_ArchitectureBlockImpl$pwrmgr_wake_info/AlwaysBlockImpl$null11" transform="translate(136.21875, 152)" class="statement"><rect x="0" y="0" rx="10" ry="5" width="48.890625" height="50" class="sprotty-node" style="fill:rgb(245, 245, 245);stroke:rgb(112, 112, 112);"/><text class="clickable sprotty-label statementtype" id="sprotty_ArchitectureBlockImpl$pwrmgr_wake_info/AlwaysBlockImpl$null11/labeltype" transform="translate(5, 19) translate(18.828125, 9)" style="cursor:default;font-size:8px;font-weight:700;perspective-origin:0.609375px 0px;fill:rgb(112, 112, 112);text-anchor:middle;">always_ff</text><g id="sprotty_ArchitectureBlockImpl$pwrmgr_wake_info/AlwaysBlockImpl$null11/GPortImpl$record_dis_iIN" transform="translate(0, 30)" class="sprotty-hidden hidden" style="display:block;height:0px;width:0px;"/><g id="sprotty_ArchitectureBlockImpl$pwrmgr_wake_info/AlwaysBlockImpl$null11/GPortImpl$start_capture_iIN" transform="translate(0, 20)" class="sprotty-hidden hidden" style="display:block;height:0px;width:0px;"/><g id="sprotty_ArchitectureBlockImpl$pwrmgr_wake_info/AlwaysBlockImpl$null11/GPortImpl$rst_niIN" transform="translate(0, 40)" class="sprotty-hidden hidden" style="display:block;height:0px;width:0px;"/><g id="sprotty_ArchitectureBlockImpl$pwrmgr_wake_info/AlwaysBlockImpl$null11/GPortImpl$clk_iIN" transform="translate(0, 10)" class="sprotty-hidden hidden" style="display:block;height:0px;width:0px;"/><g id="sprotty_ArchitectureBlockImpl$pwrmgr_wake_info/AlwaysBlockImpl$null11/GPortImpl$record_enOUT" transform="translate(48.890625, 25)" class="sprotty-hidden hidden" style="display:block;height:0px;width:0px;"/></g><g id="sprotty_ArchitectureBlockImpl$pwrmgr_wake_info/BPortImpl$abort_i" transform="translate(0, 70)" class="triangle"><path d="M 0,0 L 5,2.5 L 0,5 Z" transform="translate(-1.67, -2.5)" class="sprotty-port" style="fill:rgb(48, 48, 48);stroke:rgb(48, 48, 48);"/><text class="clickable sprotty-label port" id="sprotty_ArchitectureBlockImpl$pwrmgr_wake_info/BPortImpl$abort_i/label" transform="translate(6, 6) translate(20.328125, 14)" style="cursor:default;font-size:12px;perspective-origin:0px 0px;fill:rgb(48, 48, 48);text-anchor:middle;">abort_i</text></g><g id="sprotty_ArchitectureBlockImpl$pwrmgr_wake_info/BPortImpl$fall_through_i" transform="translate(0, 104)" class="triangle"><path d="M 0,0 L 5,2.5 L 0,5 Z" transform="translate(-1.67, -2.5)" class="sprotty-port" style="fill:rgb(48, 48, 48);stroke:rgb(48, 48, 48);"/><text class="clickable sprotty-label port" id="sprotty_ArchitectureBlockImpl$pwrmgr_wake_info/BPortImpl$fall_through_i/label" transform="translate(6, 6) translate(39.453125, 14)" style="cursor:default;font-size:12px;perspective-origin:0px 0px;fill:rgb(48, 48, 48);text-anchor:middle;">fall_through_i</text></g><g id="sprotty_ArchitectureBlockImpl$pwrmgr_wake_info/BPortImpl$wakeups_i" transform="translate(0, 308)" class="triangle"><path d="M 0,0 L 5,2.5 L 0,5 Z" transform="translate(-1.67, -2.5)" class="sprotty-port" style="fill:rgb(48, 48, 48);stroke:rgb(48, 48, 48);"/><text class="clickable sprotty-label port" id="sprotty_ArchitectureBlockImpl$pwrmgr_wake_info/BPortImpl$wakeups_i/label" transform="translate(6, 6) translate(29.828125, 14)" style="cursor:default;font-size:12px;perspective-origin:0px 0px;fill:rgb(48, 48, 48);text-anchor:middle;">wakeups_i</text></g><g id="sprotty_ArchitectureBlockImpl$pwrmgr_wake_info/BPortImpl$record_dis_i" transform="translate(0, 206)" class="triangle"><path d="M 0,0 L 5,2.5 L 0,5 Z" transform="translate(-1.67, -2.5)" class="sprotty-port" style="fill:rgb(48, 48, 48);stroke:rgb(48, 48, 48);"/><text class="clickable sprotty-label port" id="sprotty_ArchitectureBlockImpl$pwrmgr_wake_info/BPortImpl$record_dis_i/label" transform="translate(6, 6) translate(34.65625, 14)" style="cursor:default;font-size:12px;perspective-origin:0px 0px;fill:rgb(48, 48, 48);text-anchor:middle;">record_dis_i</text></g><g id="sprotty_ArchitectureBlockImpl$pwrmgr_wake_info/BPortImpl$start_capture_i" transform="translate(0, 172)" class="triangle"><path d="M 0,0 L 5,2.5 L 0,5 Z" transform="translate(-1.67, -2.5)" class="sprotty-port" style="fill:rgb(48, 48, 48);stroke:rgb(48, 48, 48);"/><text class="clickable sprotty-label port" id="sprotty_ArchitectureBlockImpl$pwrmgr_wake_info/BPortImpl$start_capture_i/label" transform="translate(6, 6) translate(42.609375, 14)" style="cursor:default;font-size:12px;perspective-origin:0px 0px;fill:rgb(48, 48, 48);text-anchor:middle;">start_capture_i</text></g><g id="sprotty_ArchitectureBlockImpl$pwrmgr_wake_info/BPortImpl$data_i" transform="translate(0, 36)" class="triangle"><path d="M 0,0 L 5,2.5 L 0,5 Z" transform="translate(-1.67, -2.5)" class="sprotty-port" style="fill:rgb(48, 48, 48);stroke:rgb(48, 48, 48);"/><text class="clickable sprotty-label port" id="sprotty_ArchitectureBlockImpl$pwrmgr_wake_info/BPortImpl$data_i/label" transform="translate(6, 6) translate(17.53125, 14)" style="cursor:default;font-size:12px;perspective-origin:0px 0px;fill:rgb(48, 48, 48);text-anchor:middle;">data_i</text></g><g id="sprotty_ArchitectureBlockImpl$pwrmgr_wake_info/BPortImpl$wr_i" transform="translate(0, 274)" class="triangle"><path d="M 0,0 L 5,2.5 L 0,5 Z" transform="translate(-1.67, -2.5)" class="sprotty-port" style="fill:rgb(48, 48, 48);stroke:rgb(48, 48, 48);"/><text class="clickable sprotty-label port" id="sprotty_ArchitectureBlockImpl$pwrmgr_wake_info/BPortImpl$wr_i/label" transform="translate(6, 6) translate(12.15625, 14)" style="cursor:default;font-size:12px;perspective-origin:0px 0px;fill:rgb(48, 48, 48);text-anchor:middle;">wr_i</text></g><g id="sprotty_ArchitectureBlockImpl$pwrmgr_wake_info/BPortImpl$rst_ni" transform="translate(0, 240)" class="triangle"><path d="M 0,0 L 5,2.5 L 0,5 Z" transform="translate(-1.67, -2.5)" class="sprotty-port" style="fill:rgb(48, 48, 48);stroke:rgb(48, 48, 48);"/><text class="clickable sprotty-label port" id="sprotty_ArchitectureBlockImpl$pwrmgr_wake_info/BPortImpl$rst_ni/label" transform="translate(6, 6) translate(15.921875, 14)" style="cursor:default;font-size:12px;perspective-origin:0px 0px;fill:rgb(48, 48, 48);text-anchor:middle;">rst_ni</text></g><g id="sprotty_ArchitectureBlockImpl$pwrmgr_wake_info/BPortImpl$clk_i" transform="translate(0, 138)" class="triangle"><path d="M 0,0 L 5,2.5 L 0,5 Z" transform="translate(-1.67, -2.5)" class="sprotty-port" style="fill:rgb(48, 48, 48);stroke:rgb(48, 48, 48);"/><text class="clickable sprotty-label port" id="sprotty_ArchitectureBlockImpl$pwrmgr_wake_info/BPortImpl$clk_i/label" transform="translate(6, 6) translate(13.09375, 14)" style="cursor:default;font-size:12px;perspective-origin:0px 0px;fill:rgb(48, 48, 48);text-anchor:middle;">clk_i</text></g><g id="sprotty_ArchitectureBlockImpl$pwrmgr_wake_info/BPortImpl$info_o" transform="translate(370.65625, 148)" class="triangle"><path d="M 0,0 L 5,2.5 L 0,5 Z" transform="translate(-1.67, -2.5)" class="sprotty-port" style="fill:rgb(48, 48, 48);stroke:rgb(48, 48, 48);"/><text class="clickable sprotty-label port" id="sprotty_ArchitectureBlockImpl$pwrmgr_wake_info/BPortImpl$info_o/label" transform="translate(-41.65625, 6) translate(17.828125, 14)" style="cursor:default;font-size:12px;perspective-origin:0px 0px;fill:rgb(48, 48, 48);text-anchor:middle;">info_o</text></g></g></g></svg>