<svg xmlns="http://www.w3.org/2000/svg" id="sprotty_work.prim_generic_clock_inv" class="sprotty-graph sprotty-block-diagram blockdiagram" style="font-family:&quot;Noto Sans&quot;, Helvetica, Arial, sans-serif;perspective-origin:0px 0px;transform-origin:0px 0px;" version="1.1" viewBox="7 7 533.6875 286" width="533.6875" height="286"><g transform="scale(1) translate(0,0)"><g id="sprotty_ArchitectureBlockImpl$prim_generic_clock_inv" transform="translate(12, 12)" class="architecture"><g class="sprotty-block" style="fill:rgb(255, 255, 255);stroke:rgb(48, 48, 48);stroke-dasharray:0px;"><rect x="0" y="0" rx="1" ry="1" width="523.6875" height="276"/><text x="261.84375" y="12" class="sprotty-block-name" style="cursor:pointer;font-weight:700;perspective-origin:261.844px 0px;fill:rgb(48, 48, 48);stroke:rgba(0, 0, 0, 0);dominant-baseline:middle;text-anchor:middle;">prim_generic_clock_inv</text><line x1="0" y1="20" x2="523.6875" y2="20"/></g><g id="sprotty_ArchitectureBlockImpl$prim_generic_clock_inv/GenerateStatementBlockImpl$null3/GPortImpl$clk_no_to_ArchitectureBlockImpl$prim_generic_clock_inv/BPortImpl$clk_no" class="sprotty-edge edge" style="fill:none;stroke:rgb(112, 112, 112);stroke-linejoin:round;"><g><path d="M 465.21875 61 L 523.6875 61 "/><path d="M 465.21875 61 L 523.6875 61 " class="clickable"/></g></g><g id="sprotty_ArchitectureBlockImpl$prim_generic_clock_inv/BPortImpl$clk_i_to_ArchitectureBlockImpl$prim_generic_clock_inv/GenerateStatementBlockImpl$null3/GPortImpl$clk_i" class="sprotty-edge edge" style="fill:none;stroke:rgb(112, 112, 112);stroke-linejoin:round;"><g><path d="M 0 61 L 109.1875 61 "/><path d="M 0 61 L 109.1875 61 " class="clickable"/></g></g><g id="sprotty_ArchitectureBlockImpl$prim_generic_clock_inv/BPortImpl$scanmode_i_to_ArchitectureBlockImpl$prim_generic_clock_inv/GenerateStatementBlockImpl$null3/GPortImpl$scanmode_i" class="sprotty-edge edge" style="fill:none;stroke:rgb(112, 112, 112);stroke-linejoin:round;"><g><path d="M 0 95 L 97.1875 95 C 98.1875 95 99.1875 94 99.1875 93 L 99.1875 73 C 99.1875 72 100.1875 71 101.1875 71 L 109.1875 71 "/><path d="M 0 95 L 97.1875 95 C 98.1875 95 99.1875 94 99.1875 93 L 99.1875 73 C 99.1875 72 100.1875 71 101.1875 71 L 109.1875 71 " class="clickable"/></g></g><g id="sprotty_ArchitectureBlockImpl$prim_generic_clock_inv/GenerateStatementBlockImpl$null3" transform="translate(109.1875, 35)" class="generate"><g class="sprotty-block sprotty-block-generate" style="fill:rgb(255, 255, 255);stroke:rgb(48, 48, 48);stroke-dasharray:0px;"><rect x="0" y="0" rx="1" ry="1" width="356.03125" height="226" style="stroke-dasharray:3px, 1px;"/><text x="178.015625" y="12" class="sprotty-block-name" style="cursor:pointer;font-weight:700;fill:rgb(48, 48, 48);stroke:rgba(0, 0, 0, 0);dominant-baseline:middle;text-anchor:middle;"/>undefined</g><g id="sprotty_ArchitectureBlockImpl$prim_generic_clock_inv/GenerateStatementBlockImpl$null3/InstantiationBlockImpl$i_dft_tck_mux/BPortImpl$clk_o_to_ArchitectureBlockImpl$prim_generic_clock_inv/GenerateStatementBlockImpl$null3/GPortImpl$clk_no" class="sprotty-edge edge" style="fill:none;stroke:rgb(112, 112, 112);stroke-linejoin:round;"><g><path d="M 321.03125 123 L 329.03125 123 C 330.03125 123 331.03125 122 331.03125 121 L 331.03125 28 C 331.03125 27 332.03125 26 333.03125 26 L 356.03125 26 "/><path d="M 321.03125 123 L 329.03125 123 C 330.03125 123 331.03125 122 331.03125 121 L 331.03125 28 C 331.03125 27 332.03125 26 333.03125 26 L 356.03125 26 " class="clickable"/></g><circle r="2" id="sprotty_ArchitectureBlockImpl$prim_generic_clock_inv/GenerateStatementBlockImpl$null3/InstantiationBlockImpl$i_dft_tck_mux/BPortImpl$clk_o_to_ArchitectureBlockImpl$prim_generic_clock_inv/GenerateStatementBlockImpl$null3/GPortImpl$clk_no/junction0" transform="translate(331.03125, 26)" class="sprotty-junction junction" style="fill:rgb(112, 112, 112);stroke:none;"/></g><g id="sprotty_ArchitectureBlockImpl$prim_generic_clock_inv/GenerateStatementBlockImpl$null3/AssignmentBlockImpl$clk_no/GPortImpl$clk_noOUT_to_ArchitectureBlockImpl$prim_generic_clock_inv/GenerateStatementBlockImpl$null3/GPortImpl$clk_no" class="sprotty-edge edge" style="fill:none;stroke:rgb(112, 112, 112);stroke-linejoin:round;"><g><path d="M 192.875 26 L 356.03125 26 "/><path d="M 192.875 26 L 356.03125 26 " class="clickable"/></g></g><g id="sprotty_ArchitectureBlockImpl$prim_generic_clock_inv/GenerateStatementBlockImpl$null3/GPortImpl$clk_i_to_ArchitectureBlockImpl$prim_generic_clock_inv/GenerateStatementBlockImpl$null3/InstantiationBlockImpl$i_dft_tck_mux/BPortImpl$clk0_i" class="sprotty-edge edge" style="fill:none;stroke:rgb(112, 112, 112);stroke-linejoin:round;"><g><path d="M 0 26 L 33 26 C 34 26 35 27 35 28 L 35 93 C 35 94 36 95 37 95 L 45 95 "/><path d="M 0 26 L 33 26 C 34 26 35 27 35 28 L 35 93 C 35 94 36 95 37 95 L 45 95 " class="clickable"/></g><circle r="2" id="sprotty_ArchitectureBlockImpl$prim_generic_clock_inv/GenerateStatementBlockImpl$null3/GPortImpl$clk_i_to_ArchitectureBlockImpl$prim_generic_clock_inv/GenerateStatementBlockImpl$null3/InstantiationBlockImpl$i_dft_tck_mux/BPortImpl$clk0_i/junction0" transform="translate(35, 26)" class="sprotty-junction junction" style="fill:rgb(112, 112, 112);stroke:none;"/><circle r="2" id="sprotty_ArchitectureBlockImpl$prim_generic_clock_inv/GenerateStatementBlockImpl$null3/GPortImpl$clk_i_to_ArchitectureBlockImpl$prim_generic_clock_inv/GenerateStatementBlockImpl$null3/InstantiationBlockImpl$i_dft_tck_mux/BPortImpl$clk0_i/junction1" transform="translate(35, 95)" class="sprotty-junction junction" style="fill:rgb(112, 112, 112);stroke:none;"/></g><g id="sprotty_ArchitectureBlockImpl$prim_generic_clock_inv/GenerateStatementBlockImpl$null3/GPortImpl$clk_i_to_ArchitectureBlockImpl$prim_generic_clock_inv/GenerateStatementBlockImpl$null3/InstantiationBlockImpl$i_dft_tck_mux/BPortImpl$clk1_i" class="sprotty-edge edge" style="fill:none;stroke:rgb(112, 112, 112);stroke-linejoin:round;"><g><path d="M 0 26 L 33 26 C 34 26 35 27 35 28 L 35 121 C 35 122 36 123 37 123 L 45 123 "/><path d="M 0 26 L 33 26 C 34 26 35 27 35 28 L 35 121 C 35 122 36 123 37 123 L 45 123 " class="clickable"/></g></g><g id="sprotty_ArchitectureBlockImpl$prim_generic_clock_inv/GenerateStatementBlockImpl$null3/GPortImpl$scanmode_i_to_ArchitectureBlockImpl$prim_generic_clock_inv/GenerateStatementBlockImpl$null3/InstantiationBlockImpl$i_dft_tck_mux/BPortImpl$sel_i" class="sprotty-edge edge" style="fill:none;stroke:rgb(112, 112, 112);stroke-linejoin:round;"><g><path d="M 0 36 L 23 36 C 24 36 25 37 25 38 L 25 149 C 25 150 26 151 27 151 L 45 151 "/><path d="M 0 36 L 23 36 C 24 36 25 37 25 38 L 25 149 C 25 150 26 151 27 151 L 45 151 " class="clickable"/></g></g><g id="sprotty_ArchitectureBlockImpl$prim_generic_clock_inv/GenerateStatementBlockImpl$null3/GPortImpl$clk_i_to_ArchitectureBlockImpl$prim_generic_clock_inv/GenerateStatementBlockImpl$null3/AssignmentBlockImpl$clk_no/GPortImpl$clk_iIN" class="sprotty-edge edge" style="fill:none;stroke:rgb(112, 112, 112);stroke-linejoin:round;"><g><path d="M 0 26 L 173.15625 26 "/><path d="M 0 26 L 173.15625 26 " class="clickable"/></g></g><g id="sprotty_ArchitectureBlockImpl$prim_generic_clock_inv/GenerateStatementBlockImpl$null3/AssignmentBlockImpl$clk_no" transform="translate(173.15625, 15)" class="statement"><rect x="0" y="0" rx="10" ry="5" width="19.71875" height="22" class="sprotty-node" style="fill:rgb(245, 245, 245);stroke:rgb(112, 112, 112);"/><text class="clickable sprotty-label statementtype" id="sprotty_ArchitectureBlockImpl$prim_generic_clock_inv/GenerateStatementBlockImpl$null3/AssignmentBlockImpl$clk_no/labeltype" transform="translate(5, 5) translate(4.71875, 9)" style="cursor:default;font-size:8px;font-weight:700;perspective-origin:0.140625px 0px;fill:rgb(112, 112, 112);text-anchor:middle;">&lt;=</text><g id="sprotty_ArchitectureBlockImpl$prim_generic_clock_inv/GenerateStatementBlockImpl$null3/AssignmentBlockImpl$clk_no/GPortImpl$clk_iIN" transform="translate(0, 11)" class="sprotty-hidden hidden" style="display:block;height:0px;width:0px;"/><g id="sprotty_ArchitectureBlockImpl$prim_generic_clock_inv/GenerateStatementBlockImpl$null3/AssignmentBlockImpl$clk_no/GPortImpl$clk_noOUT" transform="translate(19.71875, 11)" class="sprotty-hidden hidden" style="display:block;height:0px;width:0px;"/></g><g id="sprotty_ArchitectureBlockImpl$prim_generic_clock_inv/GenerateStatementBlockImpl$null3/AssignmentBlockImpl$unused_scanmode" transform="translate(15, 189)" class="statement"><rect x="0" y="0" rx="10" ry="5" width="19.71875" height="22" class="sprotty-node" style="fill:rgb(245, 245, 245);stroke:rgb(112, 112, 112);"/><text class="clickable sprotty-label statementtype" id="sprotty_ArchitectureBlockImpl$prim_generic_clock_inv/GenerateStatementBlockImpl$null3/AssignmentBlockImpl$unused_scanmode/labeltype" transform="translate(5, 5) translate(4.71875, 9)" style="cursor:default;font-size:8px;font-weight:700;perspective-origin:0.140625px 0px;fill:rgb(112, 112, 112);text-anchor:middle;">&lt;=</text></g><g id="sprotty_ArchitectureBlockImpl$prim_generic_clock_inv/GenerateStatementBlockImpl$null3/InstantiationBlockImpl$i_dft_tck_mux" transform="translate(45, 57)" class="instantiation"><g class="sprotty-block" style="fill:rgb(255, 255, 255);stroke:rgb(48, 48, 48);stroke-dasharray:0px;"><rect x="0" y="0" rx="1" ry="1" width="276.03125" height="112"/><text x="138.015625" y="12" class="sprotty-block-name" style="cursor:pointer;font-weight:700;perspective-origin:138.016px 0px;fill:rgb(48, 48, 48);stroke:rgba(0, 0, 0, 0);dominant-baseline:middle;text-anchor:middle;">i_dft_tck_mux : prim_clock_mux2</text><line x1="0" y1="20" x2="276.03125" y2="20"/></g><g id="sprotty_ArchitectureBlockImpl$prim_generic_clock_inv/GenerateStatementBlockImpl$null3/InstantiationBlockImpl$i_dft_tck_mux/BPortImpl$sel_i" transform="translate(0, 94)" class="triangle"><path d="M 0,0 L 5,2.5 L 0,5 Z" transform="translate(-1.67, -2.5)" class="sprotty-port" style="fill:rgb(48, 48, 48);stroke:rgb(48, 48, 48);"/><text class="clickable sprotty-label port" id="sprotty_ArchitectureBlockImpl$prim_generic_clock_inv/GenerateStatementBlockImpl$null3/InstantiationBlockImpl$i_dft_tck_mux/BPortImpl$sel_i/label" transform="translate(6, -9) translate(12.859375, 14)" style="cursor:default;font-size:12px;perspective-origin:0px 0px;fill:rgb(48, 48, 48);text-anchor:middle;">sel_i</text></g><g id="sprotty_ArchitectureBlockImpl$prim_generic_clock_inv/GenerateStatementBlockImpl$null3/InstantiationBlockImpl$i_dft_tck_mux/BPortImpl$clk1_i" transform="translate(0, 66)" class="triangle"><path d="M 0,0 L 5,2.5 L 0,5 Z" transform="translate(-1.67, -2.5)" class="sprotty-port" style="fill:rgb(48, 48, 48);stroke:rgb(48, 48, 48);"/><text class="clickable sprotty-label port" id="sprotty_ArchitectureBlockImpl$prim_generic_clock_inv/GenerateStatementBlockImpl$null3/InstantiationBlockImpl$i_dft_tck_mux/BPortImpl$clk1_i/label" transform="translate(6, -9) translate(16.421875, 14)" style="cursor:default;font-size:12px;perspective-origin:0px 0px;fill:rgb(48, 48, 48);text-anchor:middle;">clk1_i</text></g><g id="sprotty_ArchitectureBlockImpl$prim_generic_clock_inv/GenerateStatementBlockImpl$null3/InstantiationBlockImpl$i_dft_tck_mux/BPortImpl$clk0_i" transform="translate(0, 38)" class="triangle"><path d="M 0,0 L 5,2.5 L 0,5 Z" transform="translate(-1.67, -2.5)" class="sprotty-port" style="fill:rgb(48, 48, 48);stroke:rgb(48, 48, 48);"/><text class="clickable sprotty-label port" id="sprotty_ArchitectureBlockImpl$prim_generic_clock_inv/GenerateStatementBlockImpl$null3/InstantiationBlockImpl$i_dft_tck_mux/BPortImpl$clk0_i/label" transform="translate(6, -9) translate(16.421875, 14)" style="cursor:default;font-size:12px;perspective-origin:0px 0px;fill:rgb(48, 48, 48);text-anchor:middle;">clk0_i</text></g><g id="sprotty_ArchitectureBlockImpl$prim_generic_clock_inv/GenerateStatementBlockImpl$null3/InstantiationBlockImpl$i_dft_tck_mux/BPortImpl$clk_o" transform="translate(276.03125, 66)" class="triangle"><path d="M 0,0 L 5,2.5 L 0,5 Z" transform="translate(-1.67, -2.5)" class="sprotty-port" style="fill:rgb(48, 48, 48);stroke:rgb(48, 48, 48);"/><text class="clickable sprotty-label port" id="sprotty_ArchitectureBlockImpl$prim_generic_clock_inv/GenerateStatementBlockImpl$null3/InstantiationBlockImpl$i_dft_tck_mux/BPortImpl$clk_o/label" transform="translate(-36.15625, -9) translate(15.078125, 14)" style="cursor:default;font-size:12px;perspective-origin:0px 0px;fill:rgb(48, 48, 48);text-anchor:middle;">clk_o</text></g></g><g id="sprotty_ArchitectureBlockImpl$prim_generic_clock_inv/GenerateStatementBlockImpl$null3/GPortImpl$scanmode_i" transform="translate(0, 36)" class="triangle"><path d="M 0,0 L 5,2.5 L 0,5 Z" transform="translate(-1.67, -2.5)" class="sprotty-port" style="fill:rgb(48, 48, 48);stroke:rgb(48, 48, 48);"/></g><g id="sprotty_ArchitectureBlockImpl$prim_generic_clock_inv/GenerateStatementBlockImpl$null3/GPortImpl$clk_i" transform="translate(0, 26)" class="triangle"><path d="M 0,0 L 5,2.5 L 0,5 Z" transform="translate(-1.67, -2.5)" class="sprotty-port" style="fill:rgb(48, 48, 48);stroke:rgb(48, 48, 48);"/></g><g id="sprotty_ArchitectureBlockImpl$prim_generic_clock_inv/GenerateStatementBlockImpl$null3/GPortImpl$clk_no" transform="translate(356.03125, 26)" class="triangle"><path d="M 0,0 L 5,2.5 L 0,5 Z" transform="translate(-1.67, -2.5)" class="sprotty-port" style="fill:rgb(48, 48, 48);stroke:rgb(48, 48, 48);"/></g></g><g id="sprotty_ArchitectureBlockImpl$prim_generic_clock_inv/BPortImpl$scanmode_i" transform="translate(0, 95)" class="triangle"><path d="M 0,0 L 5,2.5 L 0,5 Z" transform="translate(-1.67, -2.5)" class="sprotty-port" style="fill:rgb(48, 48, 48);stroke:rgb(48, 48, 48);"/><text class="clickable sprotty-label port" id="sprotty_ArchitectureBlockImpl$prim_generic_clock_inv/BPortImpl$scanmode_i/label" transform="translate(6, 6) translate(34.09375, 14)" style="cursor:default;font-size:12px;perspective-origin:0px 0px;fill:rgb(48, 48, 48);text-anchor:middle;">scanmode_i</text></g><g id="sprotty_ArchitectureBlockImpl$prim_generic_clock_inv/BPortImpl$clk_i" transform="translate(0, 61)" class="triangle"><path d="M 0,0 L 5,2.5 L 0,5 Z" transform="translate(-1.67, -2.5)" class="sprotty-port" style="fill:rgb(48, 48, 48);stroke:rgb(48, 48, 48);"/><text class="clickable sprotty-label port" id="sprotty_ArchitectureBlockImpl$prim_generic_clock_inv/BPortImpl$clk_i/label" transform="translate(6, 6) translate(13.09375, 14)" style="cursor:default;font-size:12px;perspective-origin:0px 0px;fill:rgb(48, 48, 48);text-anchor:middle;">clk_i</text></g><g id="sprotty_ArchitectureBlockImpl$prim_generic_clock_inv/BPortImpl$clk_no" transform="translate(523.6875, 61)" class="triangle"><path d="M 0,0 L 5,2.5 L 0,5 Z" transform="translate(-1.67, -2.5)" class="sprotty-port" style="fill:rgb(48, 48, 48);stroke:rgb(48, 48, 48);"/><text class="clickable sprotty-label port" id="sprotty_ArchitectureBlockImpl$prim_generic_clock_inv/BPortImpl$clk_no/label" transform="translate(-43.46875, 6) translate(18.734375, 14)" style="cursor:default;font-size:12px;perspective-origin:0px 0px;fill:rgb(48, 48, 48);text-anchor:middle;">clk_no</text></g></g></g></svg>