<svg xmlns="http://www.w3.org/2000/svg" id="sprotty_work.debug_rom" class="sprotty-graph sprotty-block-diagram blockdiagram" style="font-family:&quot;Noto Sans&quot;, Helvetica, Arial, sans-serif;perspective-origin:0px 0px;transform-origin:0px 0px;" version="1.1" viewBox="7 7 311.703125 156" width="311.703125" height="156"><g transform="scale(1) translate(0,0)"><g id="sprotty_ArchitectureBlockImpl$debug_rom" transform="translate(12, 12)" class="architecture"><g class="sprotty-block" style="fill:rgb(255, 255, 255);stroke:rgb(48, 48, 48);stroke-dasharray:0px;"><rect x="0" y="0" rx="1" ry="1" width="301.703125" height="146"/><text x="150.8515625" y="12" class="sprotty-block-name" style="cursor:pointer;font-weight:700;perspective-origin:150.844px 0px;fill:rgb(48, 48, 48);stroke:rgba(0, 0, 0, 0);dominant-baseline:middle;text-anchor:middle;">debug_rom</text><line x1="0" y1="20" x2="301.703125" y2="20"/></g><g id="sprotty_ArchitectureBlockImpl$debug_rom/AlwaysBlockImpl$p_outmux/GPortImpl$rdata_oOUT_to_ArchitectureBlockImpl$debug_rom/BPortImpl$rdata_o" class="sprotty-edge thick edge" style="fill:none;stroke:rgb(112, 112, 112);stroke-linejoin:round;stroke-width:3px;"><g><path d="M 237.140625 76.66666666666667 L 301.703125 76.66666666666667 "/><path d="M 237.140625 76.66666666666667 L 301.703125 76.66666666666667 " class="clickable"/></g></g><g id="sprotty_ArchitectureBlockImpl$debug_rom/BPortImpl$clk_i_to_ArchitectureBlockImpl$debug_rom/AlwaysBlockImpl$null5/GPortImpl$clk_iIN" class="sprotty-edge edge" style="fill:none;stroke:rgb(112, 112, 112);stroke-linejoin:round;"><g><path d="M 0 35 L 65.3125 35 C 66.3125 35 67.3125 36 67.3125 37 L 67.3125 57 C 67.3125 58 68.3125 59 69.3125 59 L 77.3125 59 "/><path d="M 0 35 L 65.3125 35 C 66.3125 35 67.3125 36 67.3125 37 L 67.3125 57 C 67.3125 58 68.3125 59 69.3125 59 L 77.3125 59 " class="clickable"/></g></g><g id="sprotty_ArchitectureBlockImpl$debug_rom/BPortImpl$req_i_to_ArchitectureBlockImpl$debug_rom/AlwaysBlockImpl$null5/GPortImpl$req_iIN" class="sprotty-edge edge" style="fill:none;stroke:rgb(112, 112, 112);stroke-linejoin:round;"><g><path d="M 0 69 L 77.3125 69 "/><path d="M 0 69 L 77.3125 69 " class="clickable"/></g></g><g id="sprotty_ArchitectureBlockImpl$debug_rom/BPortImpl$addr_i_to_ArchitectureBlockImpl$debug_rom/AlwaysBlockImpl$null5/GPortImpl$addr_iIN" class="sprotty-edge thick edge" style="fill:none;stroke:rgb(112, 112, 112);stroke-linejoin:round;stroke-width:3px;"><g><path d="M 0 103 L 65.3125 103 C 66.3125 103 67.3125 102 67.3125 101 L 67.3125 81 C 67.3125 80 68.3125 79 69.3125 79 L 77.3125 79 "/><path d="M 0 103 L 65.3125 103 C 66.3125 103 67.3125 102 67.3125 101 L 67.3125 81 C 67.3125 80 68.3125 79 69.3125 79 L 77.3125 79 " class="clickable"/></g></g><g id="sprotty_ArchitectureBlockImpl$debug_rom/AssignmentBlockImpl$mem/GPortImpl$memOUT_to_ArchitectureBlockImpl$debug_rom/AlwaysBlockImpl$p_outmux/GPortImpl$memIN" class="sprotty-edge thick edge" style="fill:none;stroke:rgb(112, 112, 112);stroke-linejoin:round;stroke-width:3px;"><g><path d="M 126.203125 120 L 134.203125 120 C 135.203125 120 136.203125 119 136.203125 118 L 136.203125 86.33333333333333 C 136.203125 85.33333333333333 137.203125 84.33333333333333 138.203125 84.33333333333333 L 146.203125 84.33333333333334 "/><path d="M 126.203125 120 L 134.203125 120 C 135.203125 120 136.203125 119 136.203125 118 L 136.203125 86.33333333333333 C 136.203125 85.33333333333333 137.203125 84.33333333333333 138.203125 84.33333333333333 L 146.203125 84.33333333333334 " class="clickable"/></g></g><g id="sprotty_ArchitectureBlockImpl$debug_rom/AlwaysBlockImpl$null5/GPortImpl$addr_qOUT_to_ArchitectureBlockImpl$debug_rom/AlwaysBlockImpl$p_outmux/GPortImpl$addr_qIN" class="sprotty-edge thick edge" style="fill:none;stroke:rgb(112, 112, 112);stroke-linejoin:round;stroke-width:3px;"><g><path d="M 126.203125 69 L 146.203125 69 "/><path d="M 126.203125 69 L 146.203125 69 " class="clickable"/></g></g><g id="sprotty_ArchitectureBlockImpl$debug_rom/AlwaysBlockImpl$p_outmux" transform="translate(146.203125, 53.66666666666667)" class="statement"><rect x="0" y="0" rx="10" ry="5" width="90.9375" height="46" class="sprotty-node" style="fill:rgb(245, 245, 245);stroke:rgb(112, 112, 112);"/><text class="clickable sprotty-label statementtext" id="sprotty_ArchitectureBlockImpl$debug_rom/AlwaysBlockImpl$p_outmux/labeltext" transform="translate(5, 5) translate(40.46875, 19)" style="cursor:default;font-weight:700;perspective-origin:0px 0px;fill:rgb(112, 112, 112);text-anchor:middle;">p_outmux</text><text class="clickable sprotty-label statementtype" id="sprotty_ArchitectureBlockImpl$debug_rom/AlwaysBlockImpl$p_outmux/labeltype" transform="translate(18.59375, 29) translate(26.875, 9)" style="cursor:default;font-size:8px;font-weight:700;perspective-origin:0px 0px;fill:rgb(112, 112, 112);text-anchor:middle;">always_comb</text><g id="sprotty_ArchitectureBlockImpl$debug_rom/AlwaysBlockImpl$p_outmux/GPortImpl$memIN" transform="translate(0, 30.666666666666664)" class="sprotty-hidden hidden" style="display:block;height:0px;width:0px;"/><g id="sprotty_ArchitectureBlockImpl$debug_rom/AlwaysBlockImpl$p_outmux/GPortImpl$addr_qIN" transform="translate(0, 15.333333333333332)" class="sprotty-hidden hidden" style="display:block;height:0px;width:0px;"/><g id="sprotty_ArchitectureBlockImpl$debug_rom/AlwaysBlockImpl$p_outmux/GPortImpl$rdata_oOUT" transform="translate(90.9375, 23)" class="sprotty-hidden hidden" style="display:block;height:0px;width:0px;"/></g><g id="sprotty_ArchitectureBlockImpl$debug_rom/AlwaysBlockImpl$null5" transform="translate(77.3125, 49)" class="statement"><rect x="0" y="0" rx="10" ry="5" width="48.890625" height="40" class="sprotty-node" style="fill:rgb(245, 245, 245);stroke:rgb(112, 112, 112);"/><text class="clickable sprotty-label statementtype" id="sprotty_ArchitectureBlockImpl$debug_rom/AlwaysBlockImpl$null5/labeltype" transform="translate(5, 14) translate(18.828125, 9)" style="cursor:default;font-size:8px;font-weight:700;perspective-origin:0.609375px 0px;fill:rgb(112, 112, 112);text-anchor:middle;">always_ff</text><g id="sprotty_ArchitectureBlockImpl$debug_rom/AlwaysBlockImpl$null5/GPortImpl$addr_iIN" transform="translate(0, 30)" class="sprotty-hidden hidden" style="display:block;height:0px;width:0px;"/><g id="sprotty_ArchitectureBlockImpl$debug_rom/AlwaysBlockImpl$null5/GPortImpl$req_iIN" transform="translate(0, 20)" class="sprotty-hidden hidden" style="display:block;height:0px;width:0px;"/><g id="sprotty_ArchitectureBlockImpl$debug_rom/AlwaysBlockImpl$null5/GPortImpl$clk_iIN" transform="translate(0, 10)" class="sprotty-hidden hidden" style="display:block;height:0px;width:0px;"/><g id="sprotty_ArchitectureBlockImpl$debug_rom/AlwaysBlockImpl$null5/GPortImpl$addr_qOUT" transform="translate(48.890625, 20)" class="sprotty-hidden hidden" style="display:block;height:0px;width:0px;"/></g><g id="sprotty_ArchitectureBlockImpl$debug_rom/AssignmentBlockImpl$mem" transform="translate(106.484375, 109)" class="statement"><rect x="0" y="0" rx="10" ry="5" width="19.71875" height="22" class="sprotty-node" style="fill:rgb(245, 245, 245);stroke:rgb(112, 112, 112);"/><text class="clickable sprotty-label statementtype" id="sprotty_ArchitectureBlockImpl$debug_rom/AssignmentBlockImpl$mem/labeltype" transform="translate(5, 5) translate(4.71875, 9)" style="cursor:default;font-size:8px;font-weight:700;perspective-origin:0.140625px 0px;fill:rgb(112, 112, 112);text-anchor:middle;">&lt;=</text><g id="sprotty_ArchitectureBlockImpl$debug_rom/AssignmentBlockImpl$mem/GPortImpl$memOUT" transform="translate(19.71875, 11)" class="sprotty-hidden hidden" style="display:block;height:0px;width:0px;"/></g><g id="sprotty_ArchitectureBlockImpl$debug_rom/BPortImpl$addr_i" transform="translate(0, 103)" class="triangle"><path d="M 0,0 L 5,2.5 L 0,5 Z" transform="translate(-1.67, -2.5)" class="sprotty-port" style="fill:rgb(48, 48, 48);stroke:rgb(48, 48, 48);"/><text class="clickable sprotty-label port" id="sprotty_ArchitectureBlockImpl$debug_rom/BPortImpl$addr_i/label" transform="translate(6, 6) translate(18.15625, 14)" style="cursor:default;font-size:12px;perspective-origin:0px 0px;fill:rgb(48, 48, 48);text-anchor:middle;">addr_i</text></g><g id="sprotty_ArchitectureBlockImpl$debug_rom/BPortImpl$req_i" transform="translate(0, 69)" class="triangle"><path d="M 0,0 L 5,2.5 L 0,5 Z" transform="translate(-1.67, -2.5)" class="sprotty-port" style="fill:rgb(48, 48, 48);stroke:rgb(48, 48, 48);"/><text class="clickable sprotty-label port" id="sprotty_ArchitectureBlockImpl$debug_rom/BPortImpl$req_i/label" transform="translate(6, 6) translate(14.3125, 14)" style="cursor:default;font-size:12px;perspective-origin:0px 0px;fill:rgb(48, 48, 48);text-anchor:middle;">req_i</text></g><g id="sprotty_ArchitectureBlockImpl$debug_rom/BPortImpl$clk_i" transform="translate(0, 35)" class="triangle"><path d="M 0,0 L 5,2.5 L 0,5 Z" transform="translate(-1.67, -2.5)" class="sprotty-port" style="fill:rgb(48, 48, 48);stroke:rgb(48, 48, 48);"/><text class="clickable sprotty-label port" id="sprotty_ArchitectureBlockImpl$debug_rom/BPortImpl$clk_i/label" transform="translate(6, 6) translate(13.09375, 14)" style="cursor:default;font-size:12px;perspective-origin:0px 0px;fill:rgb(48, 48, 48);text-anchor:middle;">clk_i</text></g><g id="sprotty_ArchitectureBlockImpl$debug_rom/BPortImpl$rdata_o" transform="translate(301.703125, 76.66666666666667)" class="triangle"><path d="M 0,0 L 5,2.5 L 0,5 Z" transform="translate(-1.67, -2.5)" class="sprotty-port" style="fill:rgb(48, 48, 48);stroke:rgb(48, 48, 48);"/><text class="clickable sprotty-label port" id="sprotty_ArchitectureBlockImpl$debug_rom/BPortImpl$rdata_o/label" transform="translate(-49.5625, 6) translate(21.78125, 14)" style="cursor:default;font-size:12px;perspective-origin:0px 0px;fill:rgb(48, 48, 48);text-anchor:middle;">rdata_o</text></g></g></g></svg>