<svg xmlns="http://www.w3.org/2000/svg" id="sprotty_work.otbn_rf_base_ff" class="sprotty-graph sprotty-block-diagram blockdiagram" style="font-family:&quot;Noto Sans&quot;, Helvetica, Arial, sans-serif;perspective-origin:0px 0px;transform-origin:0px 0px;" version="1.1" viewBox="7 7 544.515625 311" width="544.515625" height="311"><g transform="scale(1) translate(0,0)"><g id="sprotty_ArchitectureBlockImpl$otbn_rf_base_ff" transform="translate(12, 12)" class="architecture"><g class="sprotty-block" style="fill:rgb(255, 255, 255);stroke:rgb(48, 48, 48);stroke-dasharray:0px;"><rect x="0" y="0" rx="1" ry="1" width="534.515625" height="301"/><text x="267.2578125" y="12" class="sprotty-block-name" style="cursor:pointer;font-weight:700;perspective-origin:268px 0px;fill:rgb(48, 48, 48);stroke:rgba(0, 0, 0, 0);dominant-baseline:middle;text-anchor:middle;">otbn_rf_base_ff</text><line x1="0" y1="20" x2="534.515625" y2="20"/></g><g id="sprotty_ArchitectureBlockImpl$otbn_rf_base_ff/AssignmentBlockImpl$rd_data_a_o/GPortImpl$rd_data_a_oOUT_to_ArchitectureBlockImpl$otbn_rf_base_ff/BPortImpl$rd_data_a_o" class="sprotty-edge thick edge" style="fill:none;stroke:rgb(112, 112, 112);stroke-linejoin:round;stroke-width:3px;"><g><path d="M 441.703125 46 L 534.515625 46 "/><path d="M 441.703125 46 L 534.515625 46 " class="clickable"/></g></g><g id="sprotty_ArchitectureBlockImpl$otbn_rf_base_ff/AssignmentBlockImpl$rd_data_b_o/GPortImpl$rd_data_b_oOUT_to_ArchitectureBlockImpl$otbn_rf_base_ff/BPortImpl$rd_data_b_o" class="sprotty-edge thick edge" style="fill:none;stroke:rgb(112, 112, 112);stroke-linejoin:round;stroke-width:3px;"><g><path d="M 441.703125 88 L 534.515625 88 "/><path d="M 441.703125 88 L 534.515625 88 " class="clickable"/></g></g><g id="sprotty_ArchitectureBlockImpl$otbn_rf_base_ff/BPortImpl$wr_addr_i_to_ArchitectureBlockImpl$otbn_rf_base_ff/GenerateStatementBlockImpl$g_we_onehot/GPortImpl$wr_addr_i" class="sprotty-edge thick edge" style="fill:none;stroke:rgb(112, 112, 112);stroke-linejoin:round;stroke-width:3px;"><g><path d="M 0 192 L 86.3125 192 C 87.3125 192 88.3125 193 88.3125 194 L 88.3125 214 C 88.3125 215 89.3125 216 90.3125 216 L 98.3125 216 "/><path d="M 0 192 L 86.3125 192 C 87.3125 192 88.3125 193 88.3125 194 L 88.3125 214 C 88.3125 215 89.3125 216 90.3125 216 L 98.3125 216 " class="clickable"/></g></g><g id="sprotty_ArchitectureBlockImpl$otbn_rf_base_ff/BPortImpl$wr_en_i_to_ArchitectureBlockImpl$otbn_rf_base_ff/GenerateStatementBlockImpl$g_we_onehot/GPortImpl$wr_en_i" class="sprotty-edge edge" style="fill:none;stroke:rgb(112, 112, 112);stroke-linejoin:round;"><g><path d="M 0 226 L 98.3125 226 "/><path d="M 0 226 L 98.3125 226 " class="clickable"/></g></g><g id="sprotty_ArchitectureBlockImpl$otbn_rf_base_ff/BPortImpl$clk_i_to_ArchitectureBlockImpl$otbn_rf_base_ff/GenerateStatementBlockImpl$g_rf_flops/GPortImpl$clk_i" class="sprotty-edge edge" style="fill:none;stroke:rgb(112, 112, 112);stroke-linejoin:round;"><g><path d="M 0 124 L 231.375 124 C 232.375 124 233.375 125 233.375 126 L 233.375 199 C 233.375 200 234.375 201 235.375 201 L 243.375 201 "/><path d="M 0 124 L 231.375 124 C 232.375 124 233.375 125 233.375 126 L 233.375 199 C 233.375 200 234.375 201 235.375 201 L 243.375 201 " class="clickable"/></g></g><g id="sprotty_ArchitectureBlockImpl$otbn_rf_base_ff/BPortImpl$rst_ni_to_ArchitectureBlockImpl$otbn_rf_base_ff/GenerateStatementBlockImpl$g_rf_flops/GPortImpl$rst_ni" class="sprotty-edge edge" style="fill:none;stroke:rgb(112, 112, 112);stroke-linejoin:round;"><g><path d="M 0 262 L 221.375 262 C 222.375 262 223.375 261 223.375 260 L 223.375 233 C 223.375 232 224.375 231 225.375 231 L 243.375 231 "/><path d="M 0 262 L 221.375 262 C 222.375 262 223.375 261 223.375 260 L 223.375 233 C 223.375 232 224.375 231 225.375 231 L 243.375 231 " class="clickable"/></g></g><g id="sprotty_ArchitectureBlockImpl$otbn_rf_base_ff/BPortImpl$wr_data_i_to_ArchitectureBlockImpl$otbn_rf_base_ff/GenerateStatementBlockImpl$g_rf_flops/GPortImpl$wr_data_i" class="sprotty-edge thick edge" style="fill:none;stroke:rgb(112, 112, 112);stroke-linejoin:round;stroke-width:3px;"><g><path d="M 0 158 L 221.375 158 C 222.375 158 223.375 159 223.375 160 L 223.375 209 C 223.375 210 224.375 211 225.375 211 L 243.375 211 "/><path d="M 0 158 L 221.375 158 C 222.375 158 223.375 159 223.375 160 L 223.375 209 C 223.375 210 224.375 211 225.375 211 L 243.375 211 " class="clickable"/></g></g><g id="sprotty_ArchitectureBlockImpl$otbn_rf_base_ff/AssignmentBlockImpl$rf_reg/GPortImpl$rf_regOUT_to_ArchitectureBlockImpl$otbn_rf_base_ff/AssignmentBlockImpl$rd_data_a_o/GPortImpl$rf_regIN" class="sprotty-edge thick edge" style="fill:none;stroke:rgb(112, 112, 112);stroke-linejoin:round;stroke-width:3px;"><g><path d="M 401.984375 46 L 421.984375 46 "/><path d="M 401.984375 46 L 421.984375 46 " class="clickable"/></g></g><g id="sprotty_ArchitectureBlockImpl$otbn_rf_base_ff/AssignmentBlockImpl$rf_reg/GPortImpl$rf_regOUT_to_ArchitectureBlockImpl$otbn_rf_base_ff/AssignmentBlockImpl$rd_data_b_o/GPortImpl$rf_regIN" class="sprotty-edge thick edge" style="fill:none;stroke:rgb(112, 112, 112);stroke-linejoin:round;stroke-width:3px;"><g><path d="M 401.984375 46 L 409.984375 46 C 410.984375 46 411.984375 47 411.984375 48 L 411.984375 86 C 411.984375 87 412.984375 88 413.984375 88 L 421.984375 88 "/><path d="M 401.984375 46 L 409.984375 46 C 410.984375 46 411.984375 47 411.984375 48 L 411.984375 86 C 411.984375 87 412.984375 88 413.984375 88 L 421.984375 88 " class="clickable"/></g><circle r="3" id="sprotty_ArchitectureBlockImpl$otbn_rf_base_ff/AssignmentBlockImpl$rf_reg/GPortImpl$rf_regOUT_to_ArchitectureBlockImpl$otbn_rf_base_ff/AssignmentBlockImpl$rd_data_b_o/GPortImpl$rf_regIN/junction0" transform="translate(411.984375, 46)" class="sprotty-junction thick" style="fill:rgb(112, 112, 112);stroke:none;"/></g><g id="sprotty_ArchitectureBlockImpl$otbn_rf_base_ff/GenerateStatementBlockImpl$g_we_onehot/GPortImpl$we_onehot_to_ArchitectureBlockImpl$otbn_rf_base_ff/GenerateStatementBlockImpl$g_rf_flops/GPortImpl$we_onehot" class="sprotty-edge thick edge" style="fill:none;stroke:rgb(112, 112, 112);stroke-linejoin:round;stroke-width:3px;"><g><path d="M 213.375 221 L 243.375 221 "/><path d="M 213.375 221 L 243.375 221 " class="clickable"/></g></g><g id="sprotty_ArchitectureBlockImpl$otbn_rf_base_ff/GenerateStatementBlockImpl$g_rf_flops" transform="translate(243.375, 156)" class="generate"><g class="sprotty-block sprotty-block-generate" style="fill:rgb(255, 255, 255);stroke:rgb(48, 48, 48);stroke-dasharray:0px;"><rect x="0" y="0" rx="1" ry="1" width="118.890625" height="100" style="stroke-dasharray:3px, 1px;"/><text x="59.4453125" y="12" class="sprotty-block-name" style="cursor:pointer;font-weight:700;perspective-origin:59.4844px 0px;fill:rgb(48, 48, 48);stroke:rgba(0, 0, 0, 0);dominant-baseline:middle;text-anchor:middle;">g_rf_flops</text><line x1="0" y1="20" x2="118.890625" y2="20" style="stroke-dasharray:3px, 1px;"/></g><g id="sprotty_ArchitectureBlockImpl$otbn_rf_base_ff/GenerateStatementBlockImpl$g_rf_flops/GPortImpl$clk_i_to_ArchitectureBlockImpl$otbn_rf_base_ff/GenerateStatementBlockImpl$g_rf_flops/AlwaysBlockImpl$null4/GPortImpl$clk_iIN" class="sprotty-edge edge" style="fill:none;stroke:rgb(112, 112, 112);stroke-linejoin:round;"><g><path d="M 0 45 L 15 45 "/><path d="M 0 45 L 15 45 " class="clickable"/></g></g><g id="sprotty_ArchitectureBlockImpl$otbn_rf_base_ff/GenerateStatementBlockImpl$g_rf_flops/GPortImpl$rst_ni_to_ArchitectureBlockImpl$otbn_rf_base_ff/GenerateStatementBlockImpl$g_rf_flops/AlwaysBlockImpl$null4/GPortImpl$rst_niIN" class="sprotty-edge edge" style="fill:none;stroke:rgb(112, 112, 112);stroke-linejoin:round;"><g><path d="M 0 75 L 15 75 "/><path d="M 0 75 L 15 75 " class="clickable"/></g></g><g id="sprotty_ArchitectureBlockImpl$otbn_rf_base_ff/GenerateStatementBlockImpl$g_rf_flops/GPortImpl$wr_data_i_to_ArchitectureBlockImpl$otbn_rf_base_ff/GenerateStatementBlockImpl$g_rf_flops/AlwaysBlockImpl$null4/GPortImpl$wr_data_iIN" class="sprotty-edge thick edge" style="fill:none;stroke:rgb(112, 112, 112);stroke-linejoin:round;stroke-width:3px;"><g><path d="M 0 55 L 15 55 "/><path d="M 0 55 L 15 55 " class="clickable"/></g></g><g id="sprotty_ArchitectureBlockImpl$otbn_rf_base_ff/GenerateStatementBlockImpl$g_rf_flops/GPortImpl$we_onehot_to_ArchitectureBlockImpl$otbn_rf_base_ff/GenerateStatementBlockImpl$g_rf_flops/AlwaysBlockImpl$null4/GPortImpl$we_onehotIN" class="sprotty-edge thick edge" style="fill:none;stroke:rgb(112, 112, 112);stroke-linejoin:round;stroke-width:3px;"><g><path d="M 0 65 L 15 65 "/><path d="M 0 65 L 15 65 " class="clickable"/></g></g><g id="sprotty_ArchitectureBlockImpl$otbn_rf_base_ff/GenerateStatementBlockImpl$g_rf_flops/AlwaysBlockImpl$null4" transform="translate(15, 35)" class="statement"><rect x="0" y="0" rx="10" ry="5" width="48.890625" height="50" class="sprotty-node" style="fill:rgb(245, 245, 245);stroke:rgb(112, 112, 112);"/><text class="clickable sprotty-label statementtype" id="sprotty_ArchitectureBlockImpl$otbn_rf_base_ff/GenerateStatementBlockImpl$g_rf_flops/AlwaysBlockImpl$null4/labeltype" transform="translate(5, 19) translate(18.828125, 9)" style="cursor:default;font-size:8px;font-weight:700;perspective-origin:0.609375px 0px;fill:rgb(112, 112, 112);text-anchor:middle;">always_ff</text><g id="sprotty_ArchitectureBlockImpl$otbn_rf_base_ff/GenerateStatementBlockImpl$g_rf_flops/AlwaysBlockImpl$null4/GPortImpl$wr_data_iIN" transform="translate(0, 20)" class="sprotty-hidden hidden" style="display:block;height:0px;width:0px;"/><g id="sprotty_ArchitectureBlockImpl$otbn_rf_base_ff/GenerateStatementBlockImpl$g_rf_flops/AlwaysBlockImpl$null4/GPortImpl$we_onehotIN" transform="translate(0, 30)" class="sprotty-hidden hidden" style="display:block;height:0px;width:0px;"/><g id="sprotty_ArchitectureBlockImpl$otbn_rf_base_ff/GenerateStatementBlockImpl$g_rf_flops/AlwaysBlockImpl$null4/GPortImpl$rst_niIN" transform="translate(0, 40)" class="sprotty-hidden hidden" style="display:block;height:0px;width:0px;"/><g id="sprotty_ArchitectureBlockImpl$otbn_rf_base_ff/GenerateStatementBlockImpl$g_rf_flops/AlwaysBlockImpl$null4/GPortImpl$clk_iIN" transform="translate(0, 10)" class="sprotty-hidden hidden" style="display:block;height:0px;width:0px;"/></g><g id="sprotty_ArchitectureBlockImpl$otbn_rf_base_ff/GenerateStatementBlockImpl$g_rf_flops/AssignmentBlockImpl$rf_reg" transform="translate(83.890625, 35)" class="statement"><rect x="0" y="0" rx="10" ry="5" width="19.71875" height="22" class="sprotty-node" style="fill:rgb(245, 245, 245);stroke:rgb(112, 112, 112);"/><text class="clickable sprotty-label statementtype" id="sprotty_ArchitectureBlockImpl$otbn_rf_base_ff/GenerateStatementBlockImpl$g_rf_flops/AssignmentBlockImpl$rf_reg/labeltype" transform="translate(5, 5) translate(4.71875, 9)" style="cursor:default;font-size:8px;font-weight:700;perspective-origin:0.140625px 0px;fill:rgb(112, 112, 112);text-anchor:middle;">&lt;=</text></g><g id="sprotty_ArchitectureBlockImpl$otbn_rf_base_ff/GenerateStatementBlockImpl$g_rf_flops/GPortImpl$we_onehot" transform="translate(0, 65)" class="triangle"><path d="M 0,0 L 5,2.5 L 0,5 Z" transform="translate(-1.67, -2.5)" class="sprotty-port" style="fill:rgb(48, 48, 48);stroke:rgb(48, 48, 48);"/></g><g id="sprotty_ArchitectureBlockImpl$otbn_rf_base_ff/GenerateStatementBlockImpl$g_rf_flops/GPortImpl$wr_data_i" transform="translate(0, 55)" class="triangle"><path d="M 0,0 L 5,2.5 L 0,5 Z" transform="translate(-1.67, -2.5)" class="sprotty-port" style="fill:rgb(48, 48, 48);stroke:rgb(48, 48, 48);"/></g><g id="sprotty_ArchitectureBlockImpl$otbn_rf_base_ff/GenerateStatementBlockImpl$g_rf_flops/GPortImpl$rst_ni" transform="translate(0, 75)" class="triangle"><path d="M 0,0 L 5,2.5 L 0,5 Z" transform="translate(-1.67, -2.5)" class="sprotty-port" style="fill:rgb(48, 48, 48);stroke:rgb(48, 48, 48);"/></g><g id="sprotty_ArchitectureBlockImpl$otbn_rf_base_ff/GenerateStatementBlockImpl$g_rf_flops/GPortImpl$clk_i" transform="translate(0, 45)" class="triangle"><path d="M 0,0 L 5,2.5 L 0,5 Z" transform="translate(-1.67, -2.5)" class="sprotty-port" style="fill:rgb(48, 48, 48);stroke:rgb(48, 48, 48);"/></g></g><g id="sprotty_ArchitectureBlockImpl$otbn_rf_base_ff/GenerateStatementBlockImpl$g_we_onehot" transform="translate(98.3125, 171)" class="generate"><g class="sprotty-block sprotty-block-generate" style="fill:rgb(255, 255, 255);stroke:rgb(48, 48, 48);stroke-dasharray:0px;"><rect x="0" y="0" rx="1" ry="1" width="115.0625" height="80" style="stroke-dasharray:3px, 1px;"/><text x="57.53125" y="12" class="sprotty-block-name" style="cursor:pointer;font-weight:700;perspective-origin:57.6719px 0px;fill:rgb(48, 48, 48);stroke:rgba(0, 0, 0, 0);dominant-baseline:middle;text-anchor:middle;">g_we_onehot</text><line x1="0" y1="20" x2="115.0625" y2="20" style="stroke-dasharray:3px, 1px;"/></g><g id="sprotty_ArchitectureBlockImpl$otbn_rf_base_ff/GenerateStatementBlockImpl$g_we_onehot/GPortImpl$wr_addr_i_to_ArchitectureBlockImpl$otbn_rf_base_ff/GenerateStatementBlockImpl$g_we_onehot/AssignmentBlockImpl$we_onehot/GPortImpl$wr_addr_iIN" class="sprotty-edge thick edge" style="fill:none;stroke:rgb(112, 112, 112);stroke-linejoin:round;stroke-width:3px;"><g><path d="M 0 45 L 15 45 "/><path d="M 0 45 L 15 45 " class="clickable"/></g></g><g id="sprotty_ArchitectureBlockImpl$otbn_rf_base_ff/GenerateStatementBlockImpl$g_we_onehot/GPortImpl$wr_en_i_to_ArchitectureBlockImpl$otbn_rf_base_ff/GenerateStatementBlockImpl$g_we_onehot/AssignmentBlockImpl$we_onehot/GPortImpl$wr_en_iIN" class="sprotty-edge edge" style="fill:none;stroke:rgb(112, 112, 112);stroke-linejoin:round;"><g><path d="M 0 55 L 15 55 "/><path d="M 0 55 L 15 55 " class="clickable"/></g></g><g id="sprotty_ArchitectureBlockImpl$otbn_rf_base_ff/GenerateStatementBlockImpl$g_we_onehot/AssignmentBlockImpl$we_onehot/GPortImpl$we_onehotOUT_to_ArchitectureBlockImpl$otbn_rf_base_ff/GenerateStatementBlockImpl$g_we_onehot/GPortImpl$we_onehot" class="sprotty-edge thick edge" style="fill:none;stroke:rgb(112, 112, 112);stroke-linejoin:round;stroke-width:3px;"><g><path d="M 34.71875 50 L 115.0625 50 "/><path d="M 34.71875 50 L 115.0625 50 " class="clickable"/></g></g><g id="sprotty_ArchitectureBlockImpl$otbn_rf_base_ff/GenerateStatementBlockImpl$g_we_onehot/AssignmentBlockImpl$we_onehot" transform="translate(15, 35)" class="statement"><rect x="0" y="0" rx="10" ry="5" width="19.71875" height="30" class="sprotty-node" style="fill:rgb(245, 245, 245);stroke:rgb(112, 112, 112);"/><text class="clickable sprotty-label statementtype" id="sprotty_ArchitectureBlockImpl$otbn_rf_base_ff/GenerateStatementBlockImpl$g_we_onehot/AssignmentBlockImpl$we_onehot/labeltype" transform="translate(5, 9) translate(4.71875, 9)" style="cursor:default;font-size:8px;font-weight:700;perspective-origin:0.140625px 0px;fill:rgb(112, 112, 112);text-anchor:middle;">&lt;=</text><g id="sprotty_ArchitectureBlockImpl$otbn_rf_base_ff/GenerateStatementBlockImpl$g_we_onehot/AssignmentBlockImpl$we_onehot/GPortImpl$wr_en_iIN" transform="translate(0, 20)" class="sprotty-hidden hidden" style="display:block;height:0px;width:0px;"/><g id="sprotty_ArchitectureBlockImpl$otbn_rf_base_ff/GenerateStatementBlockImpl$g_we_onehot/AssignmentBlockImpl$we_onehot/GPortImpl$wr_addr_iIN" transform="translate(0, 10)" class="sprotty-hidden hidden" style="display:block;height:0px;width:0px;"/><g id="sprotty_ArchitectureBlockImpl$otbn_rf_base_ff/GenerateStatementBlockImpl$g_we_onehot/AssignmentBlockImpl$we_onehot/GPortImpl$we_onehotOUT" transform="translate(19.71875, 15)" class="sprotty-hidden hidden" style="display:block;height:0px;width:0px;"/></g><g id="sprotty_ArchitectureBlockImpl$otbn_rf_base_ff/GenerateStatementBlockImpl$g_we_onehot/GPortImpl$wr_en_i" transform="translate(0, 55)" class="triangle"><path d="M 0,0 L 5,2.5 L 0,5 Z" transform="translate(-1.67, -2.5)" class="sprotty-port" style="fill:rgb(48, 48, 48);stroke:rgb(48, 48, 48);"/></g><g id="sprotty_ArchitectureBlockImpl$otbn_rf_base_ff/GenerateStatementBlockImpl$g_we_onehot/GPortImpl$wr_addr_i" transform="translate(0, 45)" class="triangle"><path d="M 0,0 L 5,2.5 L 0,5 Z" transform="translate(-1.67, -2.5)" class="sprotty-port" style="fill:rgb(48, 48, 48);stroke:rgb(48, 48, 48);"/></g><g id="sprotty_ArchitectureBlockImpl$otbn_rf_base_ff/GenerateStatementBlockImpl$g_we_onehot/GPortImpl$we_onehot" transform="translate(115.0625, 50)" class="triangle"><path d="M 0,0 L 5,2.5 L 0,5 Z" transform="translate(-1.67, -2.5)" class="sprotty-port" style="fill:rgb(48, 48, 48);stroke:rgb(48, 48, 48);"/></g></g><g id="sprotty_ArchitectureBlockImpl$otbn_rf_base_ff/AssignmentBlockImpl$rd_data_b_o" transform="translate(421.984375, 77)" class="statement"><rect x="0" y="0" rx="10" ry="5" width="19.71875" height="22" class="sprotty-node" style="fill:rgb(245, 245, 245);stroke:rgb(112, 112, 112);"/><text class="clickable sprotty-label statementtype" id="sprotty_ArchitectureBlockImpl$otbn_rf_base_ff/AssignmentBlockImpl$rd_data_b_o/labeltype" transform="translate(5, 5) translate(4.71875, 9)" style="cursor:default;font-size:8px;font-weight:700;perspective-origin:0.140625px 0px;fill:rgb(112, 112, 112);text-anchor:middle;">&lt;=</text><g id="sprotty_ArchitectureBlockImpl$otbn_rf_base_ff/AssignmentBlockImpl$rd_data_b_o/GPortImpl$rf_regIN" transform="translate(0, 11)" class="sprotty-hidden hidden" style="display:block;height:0px;width:0px;"/><g id="sprotty_ArchitectureBlockImpl$otbn_rf_base_ff/AssignmentBlockImpl$rd_data_b_o/GPortImpl$rd_data_b_oOUT" transform="translate(19.71875, 11)" class="sprotty-hidden hidden" style="display:block;height:0px;width:0px;"/></g><g id="sprotty_ArchitectureBlockImpl$otbn_rf_base_ff/AssignmentBlockImpl$rd_data_a_o" transform="translate(421.984375, 35)" class="statement"><rect x="0" y="0" rx="10" ry="5" width="19.71875" height="22" class="sprotty-node" style="fill:rgb(245, 245, 245);stroke:rgb(112, 112, 112);"/><text class="clickable sprotty-label statementtype" id="sprotty_ArchitectureBlockImpl$otbn_rf_base_ff/AssignmentBlockImpl$rd_data_a_o/labeltype" transform="translate(5, 5) translate(4.71875, 9)" style="cursor:default;font-size:8px;font-weight:700;perspective-origin:0.140625px 0px;fill:rgb(112, 112, 112);text-anchor:middle;">&lt;=</text><g id="sprotty_ArchitectureBlockImpl$otbn_rf_base_ff/AssignmentBlockImpl$rd_data_a_o/GPortImpl$rf_regIN" transform="translate(0, 11)" class="sprotty-hidden hidden" style="display:block;height:0px;width:0px;"/><g id="sprotty_ArchitectureBlockImpl$otbn_rf_base_ff/AssignmentBlockImpl$rd_data_a_o/GPortImpl$rd_data_a_oOUT" transform="translate(19.71875, 11)" class="sprotty-hidden hidden" style="display:block;height:0px;width:0px;"/></g><g id="sprotty_ArchitectureBlockImpl$otbn_rf_base_ff/AssignmentBlockImpl$rf_reg" transform="translate(382.265625, 35)" class="statement"><rect x="0" y="0" rx="10" ry="5" width="19.71875" height="22" class="sprotty-node" style="fill:rgb(245, 245, 245);stroke:rgb(112, 112, 112);"/><text class="clickable sprotty-label statementtype" id="sprotty_ArchitectureBlockImpl$otbn_rf_base_ff/AssignmentBlockImpl$rf_reg/labeltype" transform="translate(5, 5) translate(4.71875, 9)" style="cursor:default;font-size:8px;font-weight:700;perspective-origin:0.140625px 0px;fill:rgb(112, 112, 112);text-anchor:middle;">&lt;=</text><g id="sprotty_ArchitectureBlockImpl$otbn_rf_base_ff/AssignmentBlockImpl$rf_reg/GPortImpl$rf_regOUT" transform="translate(19.71875, 11)" class="sprotty-hidden hidden" style="display:block;height:0px;width:0px;"/></g><g id="sprotty_ArchitectureBlockImpl$otbn_rf_base_ff/BPortImpl$rd_addr_b_i" transform="translate(0, 35)" class="triangle"><path d="M 0,0 L 5,2.5 L 0,5 Z" transform="translate(-1.67, -2.5)" class="sprotty-port" style="fill:rgb(48, 48, 48);stroke:rgb(48, 48, 48);"/><text class="clickable sprotty-label port" id="sprotty_ArchitectureBlockImpl$otbn_rf_base_ff/BPortImpl$rd_addr_b_i/label" transform="translate(6, 6) translate(34.5625, 14)" style="cursor:default;font-size:12px;perspective-origin:0px 0px;fill:rgb(48, 48, 48);text-anchor:middle;">rd_addr_b_i</text></g><g id="sprotty_ArchitectureBlockImpl$otbn_rf_base_ff/BPortImpl$rd_addr_a_i" transform="translate(0, 79)" class="triangle"><path d="M 0,0 L 5,2.5 L 0,5 Z" transform="translate(-1.67, -2.5)" class="sprotty-port" style="fill:rgb(48, 48, 48);stroke:rgb(48, 48, 48);"/><text class="clickable sprotty-label port" id="sprotty_ArchitectureBlockImpl$otbn_rf_base_ff/BPortImpl$rd_addr_a_i/label" transform="translate(6, 6) translate(34.234375, 14)" style="cursor:default;font-size:12px;perspective-origin:0px 0px;fill:rgb(48, 48, 48);text-anchor:middle;">rd_addr_a_i</text></g><g id="sprotty_ArchitectureBlockImpl$otbn_rf_base_ff/BPortImpl$wr_data_i" transform="translate(0, 158)" class="triangle"><path d="M 0,0 L 5,2.5 L 0,5 Z" transform="translate(-1.67, -2.5)" class="sprotty-port" style="fill:rgb(48, 48, 48);stroke:rgb(48, 48, 48);"/><text class="clickable sprotty-label port" id="sprotty_ArchitectureBlockImpl$otbn_rf_base_ff/BPortImpl$wr_data_i/label" transform="translate(6, 6) translate(28.015625, 14)" style="cursor:default;font-size:12px;perspective-origin:0px 0px;fill:rgb(48, 48, 48);text-anchor:middle;">wr_data_i</text></g><g id="sprotty_ArchitectureBlockImpl$otbn_rf_base_ff/BPortImpl$wr_en_i" transform="translate(0, 226)" class="triangle"><path d="M 0,0 L 5,2.5 L 0,5 Z" transform="translate(-1.67, -2.5)" class="sprotty-port" style="fill:rgb(48, 48, 48);stroke:rgb(48, 48, 48);"/><text class="clickable sprotty-label port" id="sprotty_ArchitectureBlockImpl$otbn_rf_base_ff/BPortImpl$wr_en_i/label" transform="translate(6, 6) translate(22.5, 14)" style="cursor:default;font-size:12px;perspective-origin:0px 0px;fill:rgb(48, 48, 48);text-anchor:middle;">wr_en_i</text></g><g id="sprotty_ArchitectureBlockImpl$otbn_rf_base_ff/BPortImpl$wr_addr_i" transform="translate(0, 192)" class="triangle"><path d="M 0,0 L 5,2.5 L 0,5 Z" transform="translate(-1.67, -2.5)" class="sprotty-port" style="fill:rgb(48, 48, 48);stroke:rgb(48, 48, 48);"/><text class="clickable sprotty-label port" id="sprotty_ArchitectureBlockImpl$otbn_rf_base_ff/BPortImpl$wr_addr_i/label" transform="translate(6, 6) translate(28.65625, 14)" style="cursor:default;font-size:12px;perspective-origin:0px 0px;fill:rgb(48, 48, 48);text-anchor:middle;">wr_addr_i</text></g><g id="sprotty_ArchitectureBlockImpl$otbn_rf_base_ff/BPortImpl$rst_ni" transform="translate(0, 262)" class="triangle"><path d="M 0,0 L 5,2.5 L 0,5 Z" transform="translate(-1.67, -2.5)" class="sprotty-port" style="fill:rgb(48, 48, 48);stroke:rgb(48, 48, 48);"/><text class="clickable sprotty-label port" id="sprotty_ArchitectureBlockImpl$otbn_rf_base_ff/BPortImpl$rst_ni/label" transform="translate(6, 6) translate(15.921875, 14)" style="cursor:default;font-size:12px;perspective-origin:0px 0px;fill:rgb(48, 48, 48);text-anchor:middle;">rst_ni</text></g><g id="sprotty_ArchitectureBlockImpl$otbn_rf_base_ff/BPortImpl$clk_i" transform="translate(0, 124)" class="triangle"><path d="M 0,0 L 5,2.5 L 0,5 Z" transform="translate(-1.67, -2.5)" class="sprotty-port" style="fill:rgb(48, 48, 48);stroke:rgb(48, 48, 48);"/><text class="clickable sprotty-label port" id="sprotty_ArchitectureBlockImpl$otbn_rf_base_ff/BPortImpl$clk_i/label" transform="translate(6, 6) translate(13.09375, 14)" style="cursor:default;font-size:12px;perspective-origin:0px 0px;fill:rgb(48, 48, 48);text-anchor:middle;">clk_i</text></g><g id="sprotty_ArchitectureBlockImpl$otbn_rf_base_ff/BPortImpl$rd_data_a_o" transform="translate(534.515625, 46)" class="triangle"><path d="M 0,0 L 5,2.5 L 0,5 Z" transform="translate(-1.67, -2.5)" class="sprotty-port" style="fill:rgb(48, 48, 48);stroke:rgb(48, 48, 48);"/><text class="clickable sprotty-label port" id="sprotty_ArchitectureBlockImpl$otbn_rf_base_ff/BPortImpl$rd_data_a_o/label" transform="translate(-77.1875, 6) translate(35.59375, 14)" style="cursor:default;font-size:12px;perspective-origin:0px 0px;fill:rgb(48, 48, 48);text-anchor:middle;">rd_data_a_o</text></g><g id="sprotty_ArchitectureBlockImpl$otbn_rf_base_ff/BPortImpl$rd_data_b_o" transform="translate(534.515625, 88)" class="triangle"><path d="M 0,0 L 5,2.5 L 0,5 Z" transform="translate(-1.67, -2.5)" class="sprotty-port" style="fill:rgb(48, 48, 48);stroke:rgb(48, 48, 48);"/><text class="clickable sprotty-label port" id="sprotty_ArchitectureBlockImpl$otbn_rf_base_ff/BPortImpl$rd_data_b_o/label" transform="translate(-77.8125, 6) translate(35.90625, 14)" style="cursor:default;font-size:12px;perspective-origin:0px 0px;fill:rgb(48, 48, 48);text-anchor:middle;">rd_data_b_o</text></g></g></g></svg>