<svg xmlns="http://www.w3.org/2000/svg" id="sprotty_work.uart_tx" class="sprotty-graph sprotty-block-diagram blockdiagram" style="font-family:&quot;Noto Sans&quot;, Helvetica, Arial, sans-serif;perspective-origin:0px 0px;transform-origin:0px 0px;" version="1.1" viewBox="7 7 448.15625 444" width="448.15625" height="444"><g transform="scale(1) translate(0,0)"><g id="sprotty_ArchitectureBlockImpl$uart_tx" transform="translate(12, 12)" class="architecture"><g class="sprotty-block" style="fill:rgb(255, 255, 255);stroke:rgb(48, 48, 48);stroke-dasharray:0px;"><rect x="0" y="0" rx="1" ry="1" width="438.15625" height="434"/><text x="219.078125" y="12" class="sprotty-block-name" style="cursor:pointer;font-weight:700;perspective-origin:219.078px 0px;fill:rgb(48, 48, 48);stroke:rgba(0, 0, 0, 0);dominant-baseline:middle;text-anchor:middle;">uart_tx</text><line x1="0" y1="20" x2="438.15625" y2="20"/></g><g id="sprotty_ArchitectureBlockImpl$uart_tx/AssignmentBlockImpl$idle/GPortImpl$idleOUT_to_ArchitectureBlockImpl$uart_tx/BPortImpl$idle" class="sprotty-edge edge" style="fill:none;stroke:rgb(112, 112, 112);stroke-linejoin:round;"><g><path d="M 326.6302083333333 261 L 438.15625 261 "/><path d="M 326.6302083333333 261 L 438.15625 261 " class="clickable"/></g></g><g id="sprotty_ArchitectureBlockImpl$uart_tx/AssignmentBlockImpl$tx/GPortImpl$txOUT_to_ArchitectureBlockImpl$uart_tx/BPortImpl$tx" class="sprotty-edge edge" style="fill:none;stroke:rgb(112, 112, 112);stroke-linejoin:round;"><g><path d="M 333.96875 307 L 438.15625 307 "/><path d="M 333.96875 307 L 438.15625 307 " class="clickable"/></g></g><g id="sprotty_ArchitectureBlockImpl$uart_tx/BPortImpl$tx_enable_to_ArchitectureBlockImpl$uart_tx/AssignmentBlockImpl$idle/GPortImpl$tx_enableIN" class="sprotty-edge edge" style="fill:none;stroke:rgb(112, 112, 112);stroke-linejoin:round;"><g><path d="M 0 266 L 306.9114583333333 266 "/><path d="M 0 266 L 306.9114583333333 266 " class="clickable"/></g></g><g id="sprotty_ArchitectureBlockImpl$uart_tx/BPortImpl$clk_i_to_ArchitectureBlockImpl$uart_tx/AlwaysBlockImpl$null12/GPortImpl$clk_iIN" class="sprotty-edge edge" style="fill:none;stroke:rgb(112, 112, 112);stroke-linejoin:round;"><g><path d="M 0 186 L 121.34375 186 C 122.34375 186 123.34375 185 123.34375 184 L 123.34375 135 C 123.34375 134 124.34375 133 125.34375 133 L 173.34375 133 "/><path d="M 0 186 L 121.34375 186 C 122.34375 186 123.34375 185 123.34375 184 L 123.34375 135 C 123.34375 134 124.34375 133 125.34375 133 L 173.34375 133 " class="clickable"/></g><circle r="2" id="sprotty_ArchitectureBlockImpl$uart_tx/BPortImpl$clk_i_to_ArchitectureBlockImpl$uart_tx/AlwaysBlockImpl$null12/GPortImpl$clk_iIN/junction0" transform="translate(123.34375, 186)" class="sprotty-junction junction" style="fill:rgb(112, 112, 112);stroke:none;"/></g><g id="sprotty_ArchitectureBlockImpl$uart_tx/BPortImpl$rst_ni_to_ArchitectureBlockImpl$uart_tx/AlwaysBlockImpl$null12/GPortImpl$rst_niIN" class="sprotty-edge edge" style="fill:none;stroke:rgb(112, 112, 112);stroke-linejoin:round;"><g><path d="M 0 113 L 173.34375 113 "/><path d="M 0 113 L 173.34375 113 " class="clickable"/></g></g><g id="sprotty_ArchitectureBlockImpl$uart_tx/BPortImpl$tick_baud_x16_to_ArchitectureBlockImpl$uart_tx/AlwaysBlockImpl$null12/GPortImpl$tick_baud_x16IN" class="sprotty-edge edge" style="fill:none;stroke:rgb(112, 112, 112);stroke-linejoin:round;"><g><path d="M 0 147 L 111.34375 147 C 112.34375 147 113.34375 146 113.34375 145 L 113.34375 125 C 113.34375 124 114.34375 123 115.34375 123 L 173.34375 123 "/><path d="M 0 147 L 111.34375 147 C 112.34375 147 113.34375 146 113.34375 145 L 113.34375 125 C 113.34375 124 114.34375 123 115.34375 123 L 173.34375 123 " class="clickable"/></g></g><g id="sprotty_ArchitectureBlockImpl$uart_tx/BPortImpl$clk_i_to_ArchitectureBlockImpl$uart_tx/AlwaysBlockImpl$null11/GPortImpl$clk_iIN" class="sprotty-edge edge" style="fill:none;stroke:rgb(112, 112, 112);stroke-linejoin:round;"><g><path d="M 0 186 L 173.34375 186 "/><path d="M 0 186 L 173.34375 186 " class="clickable"/></g></g><g id="sprotty_ArchitectureBlockImpl$uart_tx/BPortImpl$rst_ni_to_ArchitectureBlockImpl$uart_tx/AlwaysBlockImpl$null11/GPortImpl$rst_niIN" class="sprotty-edge edge" style="fill:none;stroke:rgb(112, 112, 112);stroke-linejoin:round;"><g><path d="M 0 113 L 141.34375 113 C 142.34375 113 143.34375 114 143.34375 115 L 143.34375 174 C 143.34375 175 144.34375 176 145.34375 176 L 173.34375 176 "/><path d="M 0 113 L 141.34375 113 C 142.34375 113 143.34375 114 143.34375 115 L 143.34375 174 C 143.34375 175 144.34375 176 145.34375 176 L 173.34375 176 " class="clickable"/></g><circle r="2" id="sprotty_ArchitectureBlockImpl$uart_tx/BPortImpl$rst_ni_to_ArchitectureBlockImpl$uart_tx/AlwaysBlockImpl$null11/GPortImpl$rst_niIN/junction0" transform="translate(143.34375, 113)" class="sprotty-junction junction" style="fill:rgb(112, 112, 112);stroke:none;"/></g><g id="sprotty_ArchitectureBlockImpl$uart_tx/BPortImpl$tx_enable_to_ArchitectureBlockImpl$uart_tx/AlwaysBlockImpl$null10/GPortImpl$tx_enableIN" class="sprotty-edge edge" style="fill:none;stroke:rgb(112, 112, 112);stroke-linejoin:round;"><g><path d="M 0 266 L 131.34375 266 C 132.34375 266 133.34375 265 133.34375 264 L 133.34375 156 C 133.34375 155 134.34375 154 135.34375 154 L 250.234375 154 C 251.234375 154 252.234375 153 252.234375 152 L 252.234375 77 C 252.234375 76 253.234375 75 254.234375 75 L 292.234375 75 "/><path d="M 0 266 L 131.34375 266 C 132.34375 266 133.34375 265 133.34375 264 L 133.34375 156 C 133.34375 155 134.34375 154 135.34375 154 L 250.234375 154 C 251.234375 154 252.234375 153 252.234375 152 L 252.234375 77 C 252.234375 76 253.234375 75 254.234375 75 L 292.234375 75 " class="clickable"/></g><circle r="2" id="sprotty_ArchitectureBlockImpl$uart_tx/BPortImpl$tx_enable_to_ArchitectureBlockImpl$uart_tx/AlwaysBlockImpl$null10/GPortImpl$tx_enableIN/junction0" transform="translate(133.34375, 266)" class="sprotty-junction junction" style="fill:rgb(112, 112, 112);stroke:none;"/></g><g id="sprotty_ArchitectureBlockImpl$uart_tx/BPortImpl$wr_to_ArchitectureBlockImpl$uart_tx/AlwaysBlockImpl$null10/GPortImpl$wrIN" class="sprotty-edge edge" style="fill:none;stroke:rgb(112, 112, 112);stroke-linejoin:round;"><g><path d="M 0 45 L 292.234375 45 "/><path d="M 0 45 L 292.234375 45 " class="clickable"/></g></g><g id="sprotty_ArchitectureBlockImpl$uart_tx/BPortImpl$wr_data_to_ArchitectureBlockImpl$uart_tx/AlwaysBlockImpl$null10/GPortImpl$wr_dataIN" class="sprotty-edge thick edge" style="fill:none;stroke:rgb(112, 112, 112);stroke-linejoin:round;stroke-width:3px;"><g><path d="M 0 79 L 230.234375 79 C 231.234375 79 232.234375 78 232.234375 77 L 232.234375 57 C 232.234375 56 233.234375 55 234.234375 55 L 292.234375 55 "/><path d="M 0 79 L 230.234375 79 C 231.234375 79 232.234375 78 232.234375 77 L 232.234375 57 C 232.234375 56 233.234375 55 234.234375 55 L 292.234375 55 " class="clickable"/></g></g><g id="sprotty_ArchitectureBlockImpl$uart_tx/AlwaysBlockImpl$null12/GPortImpl$tick_baud_qOUT_to_ArchitectureBlockImpl$uart_tx/AlwaysBlockImpl$null10/GPortImpl$tick_baud_qIN" class="sprotty-edge edge" style="fill:none;stroke:rgb(112, 112, 112);stroke-linejoin:round;"><g><path d="M 222.234375 123 L 240.234375 123 C 241.234375 123 242.234375 122 242.234375 121 L 242.234375 67 C 242.234375 66 243.234375 65 244.234375 65 L 292.234375 65 "/><path d="M 222.234375 123 L 240.234375 123 C 241.234375 123 242.234375 122 242.234375 121 L 242.234375 67 C 242.234375 66 243.234375 65 244.234375 65 L 292.234375 65 " class="clickable"/></g></g><g id="sprotty_ArchitectureBlockImpl$uart_tx/AlwaysBlockImpl$null11/GPortImpl$bit_cnt_qOUT_to_ArchitectureBlockImpl$uart_tx/AssignmentBlockImpl$idle/GPortImpl$bit_cnt_qIN" class="sprotty-edge thick edge" style="fill:none;stroke:rgb(112, 112, 112);stroke-linejoin:round;stroke-width:3px;"><g><path d="M 222.234375 196 L 280.234375 196 C 281.234375 196 282.234375 197 282.234375 198 L 282.234375 254 C 282.234375 255 283.234375 256 284.234375 256 L 306.9114583333333 256 "/><path d="M 222.234375 196 L 280.234375 196 C 281.234375 196 282.234375 197 282.234375 198 L 282.234375 254 C 282.234375 255 283.234375 256 284.234375 256 L 306.9114583333333 256 " class="clickable"/></g><circle r="3" id="sprotty_ArchitectureBlockImpl$uart_tx/AlwaysBlockImpl$null11/GPortImpl$bit_cnt_qOUT_to_ArchitectureBlockImpl$uart_tx/AssignmentBlockImpl$idle/GPortImpl$bit_cnt_qIN/junction0" transform="translate(282.234375, 196)" class="sprotty-junction thick" style="fill:rgb(112, 112, 112);stroke:none;"/></g><g id="sprotty_ArchitectureBlockImpl$uart_tx/AlwaysBlockImpl$null11/GPortImpl$bit_cnt_qOUT_to_ArchitectureBlockImpl$uart_tx/AlwaysBlockImpl$null10/GPortImpl$bit_cnt_qIN" class="sprotty-edge thick edge" style="fill:none;stroke:rgb(112, 112, 112);stroke-linejoin:round;stroke-width:3px;"><g><path d="M 222.234375 196 L 280.234375 196 C 281.234375 196 282.234375 195 282.234375 194 L 282.234375 97 C 282.234375 96 283.234375 95 284.234375 95 L 292.234375 95 "/><path d="M 222.234375 196 L 280.234375 196 C 281.234375 196 282.234375 195 282.234375 194 L 282.234375 97 C 282.234375 96 283.234375 95 284.234375 95 L 292.234375 95 " class="clickable"/></g></g><g id="sprotty_ArchitectureBlockImpl$uart_tx/AlwaysBlockImpl$null10/GPortImpl$bit_cnt_dOUT_to_ArchitectureBlockImpl$uart_tx/AlwaysBlockImpl$null11/GPortImpl$bit_cnt_dIN" class="sprotty-edge thick edge" style="fill:none;stroke:rgb(112, 112, 112);stroke-linejoin:round;stroke-width:3px;"><g><path d="M 355.984375 95 L 363.984375 95 C 364.984375 95 365.984375 96 365.984375 97 L 365.984375 234 C 365.984375 235 364.984375 236 363.984375 236 L 165.34375 236 C 164.34375 236 163.34375 235 163.34375 234 L 163.34375 218 C 163.34375 217 164.34375 216 165.34375 216 L 173.34375 216 "/><path d="M 355.984375 95 L 363.984375 95 C 364.984375 95 365.984375 96 365.984375 97 L 365.984375 234 C 365.984375 235 364.984375 236 363.984375 236 L 165.34375 236 C 164.34375 236 163.34375 235 163.34375 234 L 163.34375 218 C 163.34375 217 164.34375 216 165.34375 216 L 173.34375 216 " class="clickable"/></g></g><g id="sprotty_ArchitectureBlockImpl$uart_tx/AlwaysBlockImpl$null11/GPortImpl$sreg_qOUT_to_ArchitectureBlockImpl$uart_tx/AlwaysBlockImpl$null10/GPortImpl$sreg_qIN" class="sprotty-edge thick edge" style="fill:none;stroke:rgb(112, 112, 112);stroke-linejoin:round;stroke-width:3px;"><g><path d="M 222.234375 181 L 260.234375 181 C 261.234375 181 262.234375 180 262.234375 179 L 262.234375 87 C 262.234375 86 263.234375 85 264.234375 85 L 292.234375 85 "/><path d="M 222.234375 181 L 260.234375 181 C 261.234375 181 262.234375 180 262.234375 179 L 262.234375 87 C 262.234375 86 263.234375 85 264.234375 85 L 292.234375 85 " class="clickable"/></g></g><g id="sprotty_ArchitectureBlockImpl$uart_tx/AlwaysBlockImpl$null10/GPortImpl$sreg_dOUT_to_ArchitectureBlockImpl$uart_tx/AlwaysBlockImpl$null11/GPortImpl$sreg_dIN" class="sprotty-edge thick edge" style="fill:none;stroke:rgb(112, 112, 112);stroke-linejoin:round;stroke-width:3px;"><g><path d="M 355.984375 55 L 383.984375 55 C 384.984375 55 385.984375 56 385.984375 57 L 385.984375 326 C 385.984375 327 384.984375 328 383.984375 328 L 145.34375 328 C 144.34375 328 143.34375 327 143.34375 326 L 143.34375 198 C 143.34375 197 144.34375 196 145.34375 196 L 173.34375 196 "/><path d="M 355.984375 55 L 383.984375 55 C 384.984375 55 385.984375 56 385.984375 57 L 385.984375 326 C 385.984375 327 384.984375 328 383.984375 328 L 145.34375 328 C 144.34375 328 143.34375 327 143.34375 326 L 143.34375 198 C 143.34375 197 144.34375 196 145.34375 196 L 173.34375 196 " class="clickable"/></g></g><g id="sprotty_ArchitectureBlockImpl$uart_tx/AlwaysBlockImpl$null11/GPortImpl$tx_qOUT_to_ArchitectureBlockImpl$uart_tx/AssignmentBlockImpl$tx/GPortImpl$tx_qIN" class="sprotty-edge edge" style="fill:none;stroke:rgb(112, 112, 112);stroke-linejoin:round;"><g><path d="M 222.234375 211 L 270.234375 211 C 271.234375 211 272.234375 212 272.234375 213 L 272.234375 305 C 272.234375 306 273.234375 307 274.234375 307 L 314.25 307 "/><path d="M 222.234375 211 L 270.234375 211 C 271.234375 211 272.234375 212 272.234375 213 L 272.234375 305 C 272.234375 306 273.234375 307 274.234375 307 L 314.25 307 " class="clickable"/></g><circle r="2" id="sprotty_ArchitectureBlockImpl$uart_tx/AlwaysBlockImpl$null11/GPortImpl$tx_qOUT_to_ArchitectureBlockImpl$uart_tx/AssignmentBlockImpl$tx/GPortImpl$tx_qIN/junction0" transform="translate(272.234375, 211)" class="sprotty-junction junction" style="fill:rgb(112, 112, 112);stroke:none;"/></g><g id="sprotty_ArchitectureBlockImpl$uart_tx/AlwaysBlockImpl$null11/GPortImpl$tx_qOUT_to_ArchitectureBlockImpl$uart_tx/AlwaysBlockImpl$null10/GPortImpl$tx_qIN" class="sprotty-edge edge" style="fill:none;stroke:rgb(112, 112, 112);stroke-linejoin:round;"><g><path d="M 222.234375 211 L 270.234375 211 C 271.234375 211 272.234375 210 272.234375 209 L 272.234375 107 C 272.234375 106 273.234375 105 274.234375 105 L 292.234375 105 "/><path d="M 222.234375 211 L 270.234375 211 C 271.234375 211 272.234375 210 272.234375 209 L 272.234375 107 C 272.234375 106 273.234375 105 274.234375 105 L 292.234375 105 " class="clickable"/></g></g><g id="sprotty_ArchitectureBlockImpl$uart_tx/AlwaysBlockImpl$null10/GPortImpl$tx_dOUT_to_ArchitectureBlockImpl$uart_tx/AlwaysBlockImpl$null11/GPortImpl$tx_dIN" class="sprotty-edge edge" style="fill:none;stroke:rgb(112, 112, 112);stroke-linejoin:round;"><g><path d="M 355.984375 75 L 373.984375 75 C 374.984375 75 375.984375 76 375.984375 77 L 375.984375 284 C 375.984375 285 374.984375 286 373.984375 286 L 155.34375 286 C 154.34375 286 153.34375 285 153.34375 284 L 153.34375 208 C 153.34375 207 154.34375 206 155.34375 206 L 173.34375 206 "/><path d="M 355.984375 75 L 373.984375 75 C 374.984375 75 375.984375 76 375.984375 77 L 375.984375 284 C 375.984375 285 374.984375 286 373.984375 286 L 155.34375 286 C 154.34375 286 153.34375 285 153.34375 284 L 153.34375 208 C 153.34375 207 154.34375 206 155.34375 206 L 173.34375 206 " class="clickable"/></g></g><g id="sprotty_ArchitectureBlockImpl$uart_tx/AlwaysBlockImpl$null10" transform="translate(292.234375, 35)" class="statement"><rect x="0" y="0" rx="10" ry="5" width="63.75" height="80" class="sprotty-node" style="fill:rgb(245, 245, 245);stroke:rgb(112, 112, 112);"/><text class="clickable sprotty-label statementtype" id="sprotty_ArchitectureBlockImpl$uart_tx/AlwaysBlockImpl$null10/labeltype" transform="translate(5, 34) translate(26.875, 9)" style="cursor:default;font-size:8px;font-weight:700;perspective-origin:0px 0px;fill:rgb(112, 112, 112);text-anchor:middle;">always_comb</text><g id="sprotty_ArchitectureBlockImpl$uart_tx/AlwaysBlockImpl$null10/GPortImpl$tick_baud_qIN" transform="translate(0, 30)" class="sprotty-hidden hidden" style="display:block;height:0px;width:0px;"/><g id="sprotty_ArchitectureBlockImpl$uart_tx/AlwaysBlockImpl$null10/GPortImpl$wr_dataIN" transform="translate(0, 20)" class="sprotty-hidden hidden" style="display:block;height:0px;width:0px;"/><g id="sprotty_ArchitectureBlockImpl$uart_tx/AlwaysBlockImpl$null10/GPortImpl$wrIN" transform="translate(0, 10)" class="sprotty-hidden hidden" style="display:block;height:0px;width:0px;"/><g id="sprotty_ArchitectureBlockImpl$uart_tx/AlwaysBlockImpl$null10/GPortImpl$tx_qIN" transform="translate(0, 70)" class="sprotty-hidden hidden" style="display:block;height:0px;width:0px;"/><g id="sprotty_ArchitectureBlockImpl$uart_tx/AlwaysBlockImpl$null10/GPortImpl$sreg_qIN" transform="translate(0, 50)" class="sprotty-hidden hidden" style="display:block;height:0px;width:0px;"/><g id="sprotty_ArchitectureBlockImpl$uart_tx/AlwaysBlockImpl$null10/GPortImpl$bit_cnt_qIN" transform="translate(0, 60)" class="sprotty-hidden hidden" style="display:block;height:0px;width:0px;"/><g id="sprotty_ArchitectureBlockImpl$uart_tx/AlwaysBlockImpl$null10/GPortImpl$tx_enableIN" transform="translate(0, 40)" class="sprotty-hidden hidden" style="display:block;height:0px;width:0px;"/><g id="sprotty_ArchitectureBlockImpl$uart_tx/AlwaysBlockImpl$null10/GPortImpl$bit_cnt_dOUT" transform="translate(63.75, 60)" class="sprotty-hidden hidden" style="display:block;height:0px;width:0px;"/><g id="sprotty_ArchitectureBlockImpl$uart_tx/AlwaysBlockImpl$null10/GPortImpl$sreg_dOUT" transform="translate(63.75, 20)" class="sprotty-hidden hidden" style="display:block;height:0px;width:0px;"/><g id="sprotty_ArchitectureBlockImpl$uart_tx/AlwaysBlockImpl$null10/GPortImpl$tx_dOUT" transform="translate(63.75, 40)" class="sprotty-hidden hidden" style="display:block;height:0px;width:0px;"/></g><g id="sprotty_ArchitectureBlockImpl$uart_tx/AlwaysBlockImpl$null11" transform="translate(173.34375, 166)" class="statement"><rect x="0" y="0" rx="10" ry="5" width="48.890625" height="60" class="sprotty-node" style="fill:rgb(245, 245, 245);stroke:rgb(112, 112, 112);"/><text class="clickable sprotty-label statementtype" id="sprotty_ArchitectureBlockImpl$uart_tx/AlwaysBlockImpl$null11/labeltype" transform="translate(5, 24) translate(18.828125, 9)" style="cursor:default;font-size:8px;font-weight:700;perspective-origin:0.609375px 0px;fill:rgb(112, 112, 112);text-anchor:middle;">always_ff</text><g id="sprotty_ArchitectureBlockImpl$uart_tx/AlwaysBlockImpl$null11/GPortImpl$tx_dIN" transform="translate(0, 40)" class="sprotty-hidden hidden" style="display:block;height:0px;width:0px;"/><g id="sprotty_ArchitectureBlockImpl$uart_tx/AlwaysBlockImpl$null11/GPortImpl$sreg_dIN" transform="translate(0, 30)" class="sprotty-hidden hidden" style="display:block;height:0px;width:0px;"/><g id="sprotty_ArchitectureBlockImpl$uart_tx/AlwaysBlockImpl$null11/GPortImpl$bit_cnt_dIN" transform="translate(0, 50)" class="sprotty-hidden hidden" style="display:block;height:0px;width:0px;"/><g id="sprotty_ArchitectureBlockImpl$uart_tx/AlwaysBlockImpl$null11/GPortImpl$rst_niIN" transform="translate(0, 10)" class="sprotty-hidden hidden" style="display:block;height:0px;width:0px;"/><g id="sprotty_ArchitectureBlockImpl$uart_tx/AlwaysBlockImpl$null11/GPortImpl$clk_iIN" transform="translate(0, 20)" class="sprotty-hidden hidden" style="display:block;height:0px;width:0px;"/><g id="sprotty_ArchitectureBlockImpl$uart_tx/AlwaysBlockImpl$null11/GPortImpl$bit_cnt_qOUT" transform="translate(48.890625, 30)" class="sprotty-hidden hidden" style="display:block;height:0px;width:0px;"/><g id="sprotty_ArchitectureBlockImpl$uart_tx/AlwaysBlockImpl$null11/GPortImpl$sreg_qOUT" transform="translate(48.890625, 15)" class="sprotty-hidden hidden" style="display:block;height:0px;width:0px;"/><g id="sprotty_ArchitectureBlockImpl$uart_tx/AlwaysBlockImpl$null11/GPortImpl$tx_qOUT" transform="translate(48.890625, 45)" class="sprotty-hidden hidden" style="display:block;height:0px;width:0px;"/></g><g id="sprotty_ArchitectureBlockImpl$uart_tx/AlwaysBlockImpl$null12" transform="translate(173.34375, 103)" class="statement"><rect x="0" y="0" rx="10" ry="5" width="48.890625" height="40" class="sprotty-node" style="fill:rgb(245, 245, 245);stroke:rgb(112, 112, 112);"/><text class="clickable sprotty-label statementtype" id="sprotty_ArchitectureBlockImpl$uart_tx/AlwaysBlockImpl$null12/labeltype" transform="translate(5, 14) translate(18.828125, 9)" style="cursor:default;font-size:8px;font-weight:700;perspective-origin:0.609375px 0px;fill:rgb(112, 112, 112);text-anchor:middle;">always_ff</text><g id="sprotty_ArchitectureBlockImpl$uart_tx/AlwaysBlockImpl$null12/GPortImpl$tick_baud_x16IN" transform="translate(0, 20)" class="sprotty-hidden hidden" style="display:block;height:0px;width:0px;"/><g id="sprotty_ArchitectureBlockImpl$uart_tx/AlwaysBlockImpl$null12/GPortImpl$rst_niIN" transform="translate(0, 10)" class="sprotty-hidden hidden" style="display:block;height:0px;width:0px;"/><g id="sprotty_ArchitectureBlockImpl$uart_tx/AlwaysBlockImpl$null12/GPortImpl$clk_iIN" transform="translate(0, 30)" class="sprotty-hidden hidden" style="display:block;height:0px;width:0px;"/><g id="sprotty_ArchitectureBlockImpl$uart_tx/AlwaysBlockImpl$null12/GPortImpl$tick_baud_qOUT" transform="translate(48.890625, 20)" class="sprotty-hidden hidden" style="display:block;height:0px;width:0px;"/></g><g id="sprotty_ArchitectureBlockImpl$uart_tx/AssignmentBlockImpl$idle" transform="translate(306.9114583333333, 246)" class="statement"><rect x="0" y="0" rx="10" ry="5" width="19.71875" height="30" class="sprotty-node" style="fill:rgb(245, 245, 245);stroke:rgb(112, 112, 112);"/><text class="clickable sprotty-label statementtype" id="sprotty_ArchitectureBlockImpl$uart_tx/AssignmentBlockImpl$idle/labeltype" transform="translate(5, 9) translate(4.71875, 9)" style="cursor:default;font-size:8px;font-weight:700;perspective-origin:0.140625px 0px;fill:rgb(112, 112, 112);text-anchor:middle;">&lt;=</text><g id="sprotty_ArchitectureBlockImpl$uart_tx/AssignmentBlockImpl$idle/GPortImpl$bit_cnt_qIN" transform="translate(0, 10)" class="sprotty-hidden hidden" style="display:block;height:0px;width:0px;"/><g id="sprotty_ArchitectureBlockImpl$uart_tx/AssignmentBlockImpl$idle/GPortImpl$tx_enableIN" transform="translate(0, 20)" class="sprotty-hidden hidden" style="display:block;height:0px;width:0px;"/><g id="sprotty_ArchitectureBlockImpl$uart_tx/AssignmentBlockImpl$idle/GPortImpl$idleOUT" transform="translate(19.71875, 15)" class="sprotty-hidden hidden" style="display:block;height:0px;width:0px;"/></g><g id="sprotty_ArchitectureBlockImpl$uart_tx/AssignmentBlockImpl$tx" transform="translate(314.25, 296)" class="statement"><rect x="0" y="0" rx="10" ry="5" width="19.71875" height="22" class="sprotty-node" style="fill:rgb(245, 245, 245);stroke:rgb(112, 112, 112);"/><text class="clickable sprotty-label statementtype" id="sprotty_ArchitectureBlockImpl$uart_tx/AssignmentBlockImpl$tx/labeltype" transform="translate(5, 5) translate(4.71875, 9)" style="cursor:default;font-size:8px;font-weight:700;perspective-origin:0.140625px 0px;fill:rgb(112, 112, 112);text-anchor:middle;">&lt;=</text><g id="sprotty_ArchitectureBlockImpl$uart_tx/AssignmentBlockImpl$tx/GPortImpl$tx_qIN" transform="translate(0, 11)" class="sprotty-hidden hidden" style="display:block;height:0px;width:0px;"/><g id="sprotty_ArchitectureBlockImpl$uart_tx/AssignmentBlockImpl$tx/GPortImpl$txOUT" transform="translate(19.71875, 11)" class="sprotty-hidden hidden" style="display:block;height:0px;width:0px;"/></g><g id="sprotty_ArchitectureBlockImpl$uart_tx/BPortImpl$wr_data" transform="translate(0, 79)" class="triangle"><path d="M 0,0 L 5,2.5 L 0,5 Z" transform="translate(-1.67, -2.5)" class="sprotty-port" style="fill:rgb(48, 48, 48);stroke:rgb(48, 48, 48);"/><text class="clickable sprotty-label port" id="sprotty_ArchitectureBlockImpl$uart_tx/BPortImpl$wr_data/label" transform="translate(6, 6) translate(23.015625, 14)" style="cursor:default;font-size:12px;perspective-origin:0px 0px;fill:rgb(48, 48, 48);text-anchor:middle;">wr_data</text></g><g id="sprotty_ArchitectureBlockImpl$uart_tx/BPortImpl$wr_parity" transform="translate(0, 351)" class="triangle"><path d="M 0,0 L 5,2.5 L 0,5 Z" transform="translate(-1.67, -2.5)" class="sprotty-port" style="fill:rgb(48, 48, 48);stroke:rgb(48, 48, 48);"/><text class="clickable sprotty-label port" id="sprotty_ArchitectureBlockImpl$uart_tx/BPortImpl$wr_parity/label" transform="translate(6, 6) translate(26.875, 14)" style="cursor:default;font-size:12px;perspective-origin:0.375px 0px;fill:rgb(48, 48, 48);text-anchor:middle;">wr_parity</text></g><g id="sprotty_ArchitectureBlockImpl$uart_tx/BPortImpl$wr" transform="translate(0, 45)" class="triangle"><path d="M 0,0 L 5,2.5 L 0,5 Z" transform="translate(-1.67, -2.5)" class="sprotty-port" style="fill:rgb(48, 48, 48);stroke:rgb(48, 48, 48);"/><text class="clickable sprotty-label port" id="sprotty_ArchitectureBlockImpl$uart_tx/BPortImpl$wr/label" transform="translate(6, 6) translate(7.140625, 14)" style="cursor:default;font-size:12px;perspective-origin:0.171875px 0px;fill:rgb(48, 48, 48);text-anchor:middle;">wr</text></g><g id="sprotty_ArchitectureBlockImpl$uart_tx/BPortImpl$parity_enable" transform="translate(0, 395)" class="triangle"><path d="M 0,0 L 5,2.5 L 0,5 Z" transform="translate(-1.67, -2.5)" class="sprotty-port" style="fill:rgb(48, 48, 48);stroke:rgb(48, 48, 48);"/><text class="clickable sprotty-label port" id="sprotty_ArchitectureBlockImpl$uart_tx/BPortImpl$parity_enable/label" transform="translate(6, 6) translate(38.859375, 14)" style="cursor:default;font-size:12px;perspective-origin:0.171875px 0px;fill:rgb(48, 48, 48);text-anchor:middle;">parity_enable</text></g><g id="sprotty_ArchitectureBlockImpl$uart_tx/BPortImpl$tick_baud_x16" transform="translate(0, 147)" class="triangle"><path d="M 0,0 L 5,2.5 L 0,5 Z" transform="translate(-1.67, -2.5)" class="sprotty-port" style="fill:rgb(48, 48, 48);stroke:rgb(48, 48, 48);"/><text class="clickable sprotty-label port" id="sprotty_ArchitectureBlockImpl$uart_tx/BPortImpl$tick_baud_x16/label" transform="translate(6, 6) translate(41, 14)" style="cursor:default;font-size:12px;perspective-origin:0.171875px 0px;fill:rgb(48, 48, 48);text-anchor:middle;">tick_baud_x16</text></g><g id="sprotty_ArchitectureBlockImpl$uart_tx/BPortImpl$tx_enable" transform="translate(0, 266)" class="triangle"><path d="M 0,0 L 5,2.5 L 0,5 Z" transform="translate(-1.67, -2.5)" class="sprotty-port" style="fill:rgb(48, 48, 48);stroke:rgb(48, 48, 48);"/><text class="clickable sprotty-label port" id="sprotty_ArchitectureBlockImpl$uart_tx/BPortImpl$tx_enable/label" transform="translate(6, 6) translate(27.625, 14)" style="cursor:default;font-size:12px;perspective-origin:0.171875px 0px;fill:rgb(48, 48, 48);text-anchor:middle;">tx_enable</text></g><g id="sprotty_ArchitectureBlockImpl$uart_tx/BPortImpl$rst_ni" transform="translate(0, 113)" class="triangle"><path d="M 0,0 L 5,2.5 L 0,5 Z" transform="translate(-1.67, -2.5)" class="sprotty-port" style="fill:rgb(48, 48, 48);stroke:rgb(48, 48, 48);"/><text class="clickable sprotty-label port" id="sprotty_ArchitectureBlockImpl$uart_tx/BPortImpl$rst_ni/label" transform="translate(6, 6) translate(15.921875, 14)" style="cursor:default;font-size:12px;perspective-origin:0px 0px;fill:rgb(48, 48, 48);text-anchor:middle;">rst_ni</text></g><g id="sprotty_ArchitectureBlockImpl$uart_tx/BPortImpl$clk_i" transform="translate(0, 186)" class="triangle"><path d="M 0,0 L 5,2.5 L 0,5 Z" transform="translate(-1.67, -2.5)" class="sprotty-port" style="fill:rgb(48, 48, 48);stroke:rgb(48, 48, 48);"/><text class="clickable sprotty-label port" id="sprotty_ArchitectureBlockImpl$uart_tx/BPortImpl$clk_i/label" transform="translate(6, 6) translate(13.09375, 14)" style="cursor:default;font-size:12px;perspective-origin:0px 0px;fill:rgb(48, 48, 48);text-anchor:middle;">clk_i</text></g><g id="sprotty_ArchitectureBlockImpl$uart_tx/BPortImpl$idle" transform="translate(438.15625, 261)" class="triangle"><path d="M 0,0 L 5,2.5 L 0,5 Z" transform="translate(-1.67, -2.5)" class="sprotty-port" style="fill:rgb(48, 48, 48);stroke:rgb(48, 48, 48);"/><text class="clickable sprotty-label port" id="sprotty_ArchitectureBlockImpl$uart_tx/BPortImpl$idle/label" transform="translate(-27.171875, 6) translate(10.40625, 14)" style="cursor:default;font-size:12px;perspective-origin:0.171875px 0px;fill:rgb(48, 48, 48);text-anchor:middle;">idle</text></g><g id="sprotty_ArchitectureBlockImpl$uart_tx/BPortImpl$tx" transform="translate(438.15625, 307)" class="triangle"><path d="M 0,0 L 5,2.5 L 0,5 Z" transform="translate(-1.67, -2.5)" class="sprotty-port" style="fill:rgb(48, 48, 48);stroke:rgb(48, 48, 48);"/><text class="clickable sprotty-label port" id="sprotty_ArchitectureBlockImpl$uart_tx/BPortImpl$tx/label" transform="translate(-16.328125, 6) translate(5.15625, 14)" style="cursor:default;font-size:12px;perspective-origin:0px 0px;fill:rgb(48, 48, 48);text-anchor:middle;">tx</text></g></g></g></svg>