<svg xmlns="http://www.w3.org/2000/svg" id="sprotty_work.aes_shift_rows" class="sprotty-graph sprotty-block-diagram blockdiagram" style="font-family:&quot;Noto Sans&quot;, Helvetica, Arial, sans-serif;perspective-origin:0px 0px;transform-origin:0px 0px;" version="1.1" viewBox="7 7 195.8125 224" width="195.8125" height="224"><g transform="scale(1) translate(0,0)"><g id="sprotty_ArchitectureBlockImpl$aes_shift_rows" transform="translate(12, 12)" class="architecture"><g class="sprotty-block" style="fill:rgb(255, 255, 255);stroke:rgb(48, 48, 48);stroke-dasharray:0px;"><rect x="0" y="0" rx="1" ry="1" width="185.8125" height="214"/><text x="92.90625" y="12" class="sprotty-block-name" style="cursor:pointer;font-weight:700;perspective-origin:92.9375px 0px;fill:rgb(48, 48, 48);stroke:rgba(0, 0, 0, 0);dominant-baseline:middle;text-anchor:middle;">aes_shift_rows</text><line x1="0" y1="20" x2="185.8125" y2="20"/></g><g id="sprotty_ArchitectureBlockImpl$aes_shift_rows/AssignmentBlockImpl$data_o3/GPortImpl$data_oOUT_to_ArchitectureBlockImpl$aes_shift_rows/BPortImpl$data_o" class="sprotty-edge thick edge" style="fill:none;stroke:rgb(112, 112, 112);stroke-linejoin:round;stroke-width:3px;"><g><path d="M 105.78125 188 L 113.78125 188 C 114.78125 188 115.78125 187 115.78125 186 L 115.78125 102 C 115.78125 101 116.78125 100 117.78125 100 L 185.8125 100 "/><path d="M 105.78125 188 L 113.78125 188 C 114.78125 188 115.78125 187 115.78125 186 L 115.78125 102 C 115.78125 101 116.78125 100 117.78125 100 L 185.8125 100 " class="clickable"/></g></g><g id="sprotty_ArchitectureBlockImpl$aes_shift_rows/AssignmentBlockImpl$data_o2/GPortImpl$data_oOUT_to_ArchitectureBlockImpl$aes_shift_rows/BPortImpl$data_o" class="sprotty-edge thick edge" style="fill:none;stroke:rgb(112, 112, 112);stroke-linejoin:round;stroke-width:3px;"><g><path d="M 105.78125 146 L 113.78125 146 C 114.78125 146 115.78125 145 115.78125 144 L 115.78125 102 C 115.78125 101 116.78125 100 117.78125 100 L 185.8125 100 "/><path d="M 105.78125 146 L 113.78125 146 C 114.78125 146 115.78125 145 115.78125 144 L 115.78125 102 C 115.78125 101 116.78125 100 117.78125 100 L 185.8125 100 " class="clickable"/></g><circle r="3" id="sprotty_ArchitectureBlockImpl$aes_shift_rows/AssignmentBlockImpl$data_o2/GPortImpl$data_oOUT_to_ArchitectureBlockImpl$aes_shift_rows/BPortImpl$data_o/junction0" transform="translate(115.78125, 146)" class="sprotty-junction thick" style="fill:rgb(112, 112, 112);stroke:none;"/></g><g id="sprotty_ArchitectureBlockImpl$aes_shift_rows/AssignmentBlockImpl$data_o1/GPortImpl$data_oOUT_to_ArchitectureBlockImpl$aes_shift_rows/BPortImpl$data_o" class="sprotty-edge thick edge" style="fill:none;stroke:rgb(112, 112, 112);stroke-linejoin:round;stroke-width:3px;"><g><path d="M 105.78125 50 L 113.78125 50 C 114.78125 50 115.78125 51 115.78125 52 L 115.78125 98 C 115.78125 99 116.78125 100 117.78125 100 L 185.8125 100 "/><path d="M 105.78125 50 L 113.78125 50 C 114.78125 50 115.78125 51 115.78125 52 L 115.78125 98 C 115.78125 99 116.78125 100 117.78125 100 L 185.8125 100 " class="clickable"/></g><circle r="3" id="sprotty_ArchitectureBlockImpl$aes_shift_rows/AssignmentBlockImpl$data_o1/GPortImpl$data_oOUT_to_ArchitectureBlockImpl$aes_shift_rows/BPortImpl$data_o/junction0" transform="translate(115.78125, 100)" class="sprotty-junction thick" style="fill:rgb(112, 112, 112);stroke:none;"/></g><g id="sprotty_ArchitectureBlockImpl$aes_shift_rows/AssignmentBlockImpl$data_o/GPortImpl$data_oOUT_to_ArchitectureBlockImpl$aes_shift_rows/BPortImpl$data_o" class="sprotty-edge thick edge" style="fill:none;stroke:rgb(112, 112, 112);stroke-linejoin:round;stroke-width:3px;"><g><path d="M 105.78125 100 L 185.8125 100 "/><path d="M 105.78125 100 L 185.8125 100 " class="clickable"/></g></g><g id="sprotty_ArchitectureBlockImpl$aes_shift_rows/BPortImpl$data_i_to_ArchitectureBlockImpl$aes_shift_rows/AssignmentBlockImpl$data_o3/GPortImpl$data_iIN" class="sprotty-edge thick edge" style="fill:none;stroke:rgb(112, 112, 112);stroke-linejoin:round;stroke-width:3px;"><g><path d="M 0 105 L 64.0625 105 C 65.0625 105 66.0625 106 66.0625 107 L 66.0625 186 C 66.0625 187 67.0625 188 68.0625 188 L 86.0625 188 "/><path d="M 0 105 L 64.0625 105 C 65.0625 105 66.0625 106 66.0625 107 L 66.0625 186 C 66.0625 187 67.0625 188 68.0625 188 L 86.0625 188 " class="clickable"/></g><circle r="3" id="sprotty_ArchitectureBlockImpl$aes_shift_rows/BPortImpl$data_i_to_ArchitectureBlockImpl$aes_shift_rows/AssignmentBlockImpl$data_o3/GPortImpl$data_iIN/junction0" transform="translate(66.0625, 105)" class="sprotty-junction thick" style="fill:rgb(112, 112, 112);stroke:none;"/></g><g id="sprotty_ArchitectureBlockImpl$aes_shift_rows/BPortImpl$data_i_to_ArchitectureBlockImpl$aes_shift_rows/AssignmentBlockImpl$data_o2/GPortImpl$data_iIN" class="sprotty-edge thick edge" style="fill:none;stroke:rgb(112, 112, 112);stroke-linejoin:round;stroke-width:3px;"><g><path d="M 0 105 L 64.0625 105 C 65.0625 105 66.0625 106 66.0625 107 L 66.0625 144 C 66.0625 145 67.0625 146 68.0625 146 L 86.0625 146 "/><path d="M 0 105 L 64.0625 105 C 65.0625 105 66.0625 106 66.0625 107 L 66.0625 144 C 66.0625 145 67.0625 146 68.0625 146 L 86.0625 146 " class="clickable"/></g><circle r="3" id="sprotty_ArchitectureBlockImpl$aes_shift_rows/BPortImpl$data_i_to_ArchitectureBlockImpl$aes_shift_rows/AssignmentBlockImpl$data_o2/GPortImpl$data_iIN/junction0" transform="translate(66.0625, 146)" class="sprotty-junction thick" style="fill:rgb(112, 112, 112);stroke:none;"/></g><g id="sprotty_ArchitectureBlockImpl$aes_shift_rows/BPortImpl$op_i_to_ArchitectureBlockImpl$aes_shift_rows/AssignmentBlockImpl$data_o1/GPortImpl$op_iIN" class="sprotty-edge thick edge" style="fill:none;stroke:rgb(112, 112, 112);stroke-linejoin:round;stroke-width:3px;"><g><path d="M 0 45 L 86.0625 45 "/><path d="M 0 45 L 86.0625 45 " class="clickable"/></g></g><g id="sprotty_ArchitectureBlockImpl$aes_shift_rows/BPortImpl$data_i_to_ArchitectureBlockImpl$aes_shift_rows/AssignmentBlockImpl$data_o1/GPortImpl$data_iIN" class="sprotty-edge thick edge" style="fill:none;stroke:rgb(112, 112, 112);stroke-linejoin:round;stroke-width:3px;"><g><path d="M 0 105 L 64.0625 105 C 65.0625 105 66.0625 104 66.0625 103 L 66.0625 57 C 66.0625 56 67.0625 55 68.0625 55 L 86.0625 55 "/><path d="M 0 105 L 64.0625 105 C 65.0625 105 66.0625 104 66.0625 103 L 66.0625 57 C 66.0625 56 67.0625 55 68.0625 55 L 86.0625 55 " class="clickable"/></g></g><g id="sprotty_ArchitectureBlockImpl$aes_shift_rows/BPortImpl$op_i_to_ArchitectureBlockImpl$aes_shift_rows/AssignmentBlockImpl$data_o/GPortImpl$op_iIN" class="sprotty-edge thick edge" style="fill:none;stroke:rgb(112, 112, 112);stroke-linejoin:round;stroke-width:3px;"><g><path d="M 0 45 L 74.0625 45 C 75.0625 45 76.0625 46 76.0625 47 L 76.0625 93 C 76.0625 94 77.0625 95 78.0625 95 L 86.0625 95 "/><path d="M 0 45 L 74.0625 45 C 75.0625 45 76.0625 46 76.0625 47 L 76.0625 93 C 76.0625 94 77.0625 95 78.0625 95 L 86.0625 95 " class="clickable"/></g><circle r="3" id="sprotty_ArchitectureBlockImpl$aes_shift_rows/BPortImpl$op_i_to_ArchitectureBlockImpl$aes_shift_rows/AssignmentBlockImpl$data_o/GPortImpl$op_iIN/junction0" transform="translate(76.0625, 45)" class="sprotty-junction thick" style="fill:rgb(112, 112, 112);stroke:none;"/></g><g id="sprotty_ArchitectureBlockImpl$aes_shift_rows/BPortImpl$data_i_to_ArchitectureBlockImpl$aes_shift_rows/AssignmentBlockImpl$data_o/GPortImpl$data_iIN" class="sprotty-edge thick edge" style="fill:none;stroke:rgb(112, 112, 112);stroke-linejoin:round;stroke-width:3px;"><g><path d="M 0 105 L 86.0625 105 "/><path d="M 0 105 L 86.0625 105 " class="clickable"/></g></g><g id="sprotty_ArchitectureBlockImpl$aes_shift_rows/AssignmentBlockImpl$data_o" transform="translate(86.0625, 85)" class="statement"><rect x="0" y="0" rx="10" ry="5" width="19.71875" height="30" class="sprotty-node" style="fill:rgb(245, 245, 245);stroke:rgb(112, 112, 112);"/><text class="clickable sprotty-label statementtype" id="sprotty_ArchitectureBlockImpl$aes_shift_rows/AssignmentBlockImpl$data_o/labeltype" transform="translate(5, 9) translate(4.71875, 9)" style="cursor:default;font-size:8px;font-weight:700;perspective-origin:0.140625px 0px;fill:rgb(112, 112, 112);text-anchor:middle;">&lt;=</text><g id="sprotty_ArchitectureBlockImpl$aes_shift_rows/AssignmentBlockImpl$data_o/GPortImpl$data_iIN" transform="translate(0, 20)" class="sprotty-hidden hidden" style="display:block;height:0px;width:0px;"/><g id="sprotty_ArchitectureBlockImpl$aes_shift_rows/AssignmentBlockImpl$data_o/GPortImpl$op_iIN" transform="translate(0, 10)" class="sprotty-hidden hidden" style="display:block;height:0px;width:0px;"/><g id="sprotty_ArchitectureBlockImpl$aes_shift_rows/AssignmentBlockImpl$data_o/GPortImpl$data_oOUT" transform="translate(19.71875, 15)" class="sprotty-hidden hidden" style="display:block;height:0px;width:0px;"/></g><g id="sprotty_ArchitectureBlockImpl$aes_shift_rows/AssignmentBlockImpl$data_o1" transform="translate(86.0625, 35)" class="statement"><rect x="0" y="0" rx="10" ry="5" width="19.71875" height="30" class="sprotty-node" style="fill:rgb(245, 245, 245);stroke:rgb(112, 112, 112);"/><text class="clickable sprotty-label statementtype" id="sprotty_ArchitectureBlockImpl$aes_shift_rows/AssignmentBlockImpl$data_o1/labeltype" transform="translate(5, 9) translate(4.71875, 9)" style="cursor:default;font-size:8px;font-weight:700;perspective-origin:0.140625px 0px;fill:rgb(112, 112, 112);text-anchor:middle;">&lt;=</text><g id="sprotty_ArchitectureBlockImpl$aes_shift_rows/AssignmentBlockImpl$data_o1/GPortImpl$data_iIN" transform="translate(0, 20)" class="sprotty-hidden hidden" style="display:block;height:0px;width:0px;"/><g id="sprotty_ArchitectureBlockImpl$aes_shift_rows/AssignmentBlockImpl$data_o1/GPortImpl$op_iIN" transform="translate(0, 10)" class="sprotty-hidden hidden" style="display:block;height:0px;width:0px;"/><g id="sprotty_ArchitectureBlockImpl$aes_shift_rows/AssignmentBlockImpl$data_o1/GPortImpl$data_oOUT" transform="translate(19.71875, 15)" class="sprotty-hidden hidden" style="display:block;height:0px;width:0px;"/></g><g id="sprotty_ArchitectureBlockImpl$aes_shift_rows/AssignmentBlockImpl$data_o2" transform="translate(86.0625, 135)" class="statement"><rect x="0" y="0" rx="10" ry="5" width="19.71875" height="22" class="sprotty-node" style="fill:rgb(245, 245, 245);stroke:rgb(112, 112, 112);"/><text class="clickable sprotty-label statementtype" id="sprotty_ArchitectureBlockImpl$aes_shift_rows/AssignmentBlockImpl$data_o2/labeltype" transform="translate(5, 5) translate(4.71875, 9)" style="cursor:default;font-size:8px;font-weight:700;perspective-origin:0.140625px 0px;fill:rgb(112, 112, 112);text-anchor:middle;">&lt;=</text><g id="sprotty_ArchitectureBlockImpl$aes_shift_rows/AssignmentBlockImpl$data_o2/GPortImpl$data_iIN" transform="translate(0, 11)" class="sprotty-hidden hidden" style="display:block;height:0px;width:0px;"/><g id="sprotty_ArchitectureBlockImpl$aes_shift_rows/AssignmentBlockImpl$data_o2/GPortImpl$data_oOUT" transform="translate(19.71875, 11)" class="sprotty-hidden hidden" style="display:block;height:0px;width:0px;"/></g><g id="sprotty_ArchitectureBlockImpl$aes_shift_rows/AssignmentBlockImpl$data_o3" transform="translate(86.0625, 177)" class="statement"><rect x="0" y="0" rx="10" ry="5" width="19.71875" height="22" class="sprotty-node" style="fill:rgb(245, 245, 245);stroke:rgb(112, 112, 112);"/><text class="clickable sprotty-label statementtype" id="sprotty_ArchitectureBlockImpl$aes_shift_rows/AssignmentBlockImpl$data_o3/labeltype" transform="translate(5, 5) translate(4.71875, 9)" style="cursor:default;font-size:8px;font-weight:700;perspective-origin:0.140625px 0px;fill:rgb(112, 112, 112);text-anchor:middle;">&lt;=</text><g id="sprotty_ArchitectureBlockImpl$aes_shift_rows/AssignmentBlockImpl$data_o3/GPortImpl$data_iIN" transform="translate(0, 11)" class="sprotty-hidden hidden" style="display:block;height:0px;width:0px;"/><g id="sprotty_ArchitectureBlockImpl$aes_shift_rows/AssignmentBlockImpl$data_o3/GPortImpl$data_oOUT" transform="translate(19.71875, 11)" class="sprotty-hidden hidden" style="display:block;height:0px;width:0px;"/></g><g id="sprotty_ArchitectureBlockImpl$aes_shift_rows/BPortImpl$data_i" transform="translate(0, 105)" class="triangle"><path d="M 0,0 L 5,2.5 L 0,5 Z" transform="translate(-1.67, -2.5)" class="sprotty-port" style="fill:rgb(48, 48, 48);stroke:rgb(48, 48, 48);"/><text class="clickable sprotty-label port" id="sprotty_ArchitectureBlockImpl$aes_shift_rows/BPortImpl$data_i/label" transform="translate(6, 6) translate(17.53125, 14)" style="cursor:default;font-size:12px;perspective-origin:0px 0px;fill:rgb(48, 48, 48);text-anchor:middle;">data_i</text></g><g id="sprotty_ArchitectureBlockImpl$aes_shift_rows/BPortImpl$op_i" transform="translate(0, 45)" class="triangle"><path d="M 0,0 L 5,2.5 L 0,5 Z" transform="translate(-1.67, -2.5)" class="sprotty-port" style="fill:rgb(48, 48, 48);stroke:rgb(48, 48, 48);"/><text class="clickable sprotty-label port" id="sprotty_ArchitectureBlockImpl$aes_shift_rows/BPortImpl$op_i/label" transform="translate(6, 6) translate(12.375, 14)" style="cursor:default;font-size:12px;perspective-origin:0px 0px;fill:rgb(48, 48, 48);text-anchor:middle;">op_i</text></g><g id="sprotty_ArchitectureBlockImpl$aes_shift_rows/BPortImpl$data_o" transform="translate(185.8125, 100)" class="triangle"><path d="M 0,0 L 5,2.5 L 0,5 Z" transform="translate(-1.67, -2.5)" class="sprotty-port" style="fill:rgb(48, 48, 48);stroke:rgb(48, 48, 48);"/><text class="clickable sprotty-label port" id="sprotty_ArchitectureBlockImpl$aes_shift_rows/BPortImpl$data_o/label" transform="translate(-45.03125, 6) translate(19.515625, 14)" style="cursor:default;font-size:12px;perspective-origin:0px 0px;fill:rgb(48, 48, 48);text-anchor:middle;">data_o</text></g></g></g></svg>