<svg xmlns="http://www.w3.org/2000/svg" id="sprotty_work.prim_subreg" class="sprotty-graph sprotty-block-diagram blockdiagram" style="font-family:&quot;Noto Sans&quot;, Helvetica, Arial, sans-serif;perspective-origin:0px 0px;transform-origin:0px 0px;" version="1.1" viewBox="7 7 513.53125 363" width="513.53125" height="363"><g transform="scale(1) translate(0,0)"><g id="sprotty_ArchitectureBlockImpl$prim_subreg" transform="translate(12, 12)" class="architecture"><g class="sprotty-block" style="fill:rgb(255, 255, 255);stroke:rgb(48, 48, 48);stroke-dasharray:0px;"><rect x="0" y="0" rx="1" ry="1" width="503.53125" height="353"/><text x="251.765625" y="12" class="sprotty-block-name" style="cursor:pointer;font-weight:700;perspective-origin:251.984px 0px;fill:rgb(48, 48, 48);stroke:rgba(0, 0, 0, 0);dominant-baseline:middle;text-anchor:middle;">prim_subreg</text><line x1="0" y1="20" x2="503.53125" y2="20"/></g><g id="sprotty_ArchitectureBlockImpl$prim_subreg/AlwaysBlockImpl$null10/GPortImpl$qeOUT_to_ArchitectureBlockImpl$prim_subreg/BPortImpl$qe" class="sprotty-edge edge" style="fill:none;stroke:rgb(112, 112, 112);stroke-linejoin:round;"><g><path d="M 191.09765625 70 L 503.53125 70 "/><path d="M 191.09765625 70 L 503.53125 70 " class="clickable"/></g></g><g id="sprotty_ArchitectureBlockImpl$prim_subreg/AlwaysBlockImpl$null9/GPortImpl$qOUT_to_ArchitectureBlockImpl$prim_subreg/BPortImpl$q" class="sprotty-edge thick edge" style="fill:none;stroke:rgb(112, 112, 112);stroke-linejoin:round;stroke-width:3px;"><g><path d="M 448.078125 107 L 503.53125 107 "/><path d="M 448.078125 107 L 503.53125 107 " class="clickable"/></g></g><g id="sprotty_ArchitectureBlockImpl$prim_subreg/BPortImpl$we_to_ArchitectureBlockImpl$prim_subreg/InstantiationBlockImpl$wr_en_data_arb/BPortImpl$we" class="sprotty-edge edge" style="fill:none;stroke:rgb(112, 112, 112);stroke-linejoin:round;"><g><path d="M 0 104 L 60.84375 104 C 61.84375 104 62.84375 105 62.84375 106 L 62.84375 150 C 62.84375 151 63.84375 152 64.84375 152 L 82.84375 152 "/><path d="M 0 104 L 60.84375 104 C 61.84375 104 62.84375 105 62.84375 106 L 62.84375 150 C 62.84375 151 63.84375 152 64.84375 152 L 82.84375 152 " class="clickable"/></g><circle r="2" id="sprotty_ArchitectureBlockImpl$prim_subreg/BPortImpl$we_to_ArchitectureBlockImpl$prim_subreg/InstantiationBlockImpl$wr_en_data_arb/BPortImpl$we/junction0" transform="translate(62.84375, 104)" class="sprotty-junction junction" style="fill:rgb(112, 112, 112);stroke:none;"/></g><g id="sprotty_ArchitectureBlockImpl$prim_subreg/BPortImpl$wd_to_ArchitectureBlockImpl$prim_subreg/InstantiationBlockImpl$wr_en_data_arb/BPortImpl$wd" class="sprotty-edge thick edge" style="fill:none;stroke:rgb(112, 112, 112);stroke-linejoin:round;stroke-width:3px;"><g><path d="M 0 180 L 82.84375 180 "/><path d="M 0 180 L 82.84375 180 " class="clickable"/></g></g><g id="sprotty_ArchitectureBlockImpl$prim_subreg/BPortImpl$de_to_ArchitectureBlockImpl$prim_subreg/InstantiationBlockImpl$wr_en_data_arb/BPortImpl$de" class="sprotty-edge edge" style="fill:none;stroke:rgb(112, 112, 112);stroke-linejoin:round;"><g><path d="M 0 214 L 60.84375 214 C 61.84375 214 62.84375 213 62.84375 212 L 62.84375 210 C 62.84375 209 63.84375 208 64.84375 208 L 82.84375 208 "/><path d="M 0 214 L 60.84375 214 C 61.84375 214 62.84375 213 62.84375 212 L 62.84375 210 C 62.84375 209 63.84375 208 64.84375 208 L 82.84375 208 " class="clickable"/></g></g><g id="sprotty_ArchitectureBlockImpl$prim_subreg/BPortImpl$d_to_ArchitectureBlockImpl$prim_subreg/InstantiationBlockImpl$wr_en_data_arb/BPortImpl$d" class="sprotty-edge thick edge" style="fill:none;stroke:rgb(112, 112, 112);stroke-linejoin:round;stroke-width:3px;"><g><path d="M 0 248 L 60.84375 248 C 61.84375 248 62.84375 247 62.84375 246 L 62.84375 238 C 62.84375 237 63.84375 236 64.84375 236 L 82.84375 236 "/><path d="M 0 248 L 60.84375 248 C 61.84375 248 62.84375 247 62.84375 246 L 62.84375 238 C 62.84375 237 63.84375 236 64.84375 236 L 82.84375 236 " class="clickable"/></g></g><g id="sprotty_ArchitectureBlockImpl$prim_subreg/BPortImpl$q_to_ArchitectureBlockImpl$prim_subreg/InstantiationBlockImpl$wr_en_data_arb/BPortImpl$q" class="sprotty-edge thick edge" style="fill:none;stroke:rgb(112, 112, 112);stroke-linejoin:round;stroke-width:3px;"><g><path d="M 503.53125 107 L 460.078125 107 C 459.078125 107 458.078125 108 458.078125 109 L 458.078125 290 C 458.078125 291 457.078125 292 456.078125 292 L 74.84375 292 C 73.84375 292 72.84375 291 72.84375 290 L 72.84375 266 C 72.84375 265 73.84375 264 74.84375 264 L 82.84375 264 "/><path d="M 503.53125 107 L 460.078125 107 C 459.078125 107 458.078125 108 458.078125 109 L 458.078125 290 C 458.078125 291 457.078125 292 456.078125 292 L 74.84375 292 C 73.84375 292 72.84375 291 72.84375 290 L 72.84375 266 C 72.84375 265 73.84375 264 74.84375 264 L 82.84375 264 " class="clickable"/></g><circle r="3" id="sprotty_ArchitectureBlockImpl$prim_subreg/BPortImpl$q_to_ArchitectureBlockImpl$prim_subreg/InstantiationBlockImpl$wr_en_data_arb/BPortImpl$q/junction0" transform="translate(458.078125, 107)" class="sprotty-junction thick" style="fill:rgb(112, 112, 112);stroke:none;"/></g><g id="sprotty_ArchitectureBlockImpl$prim_subreg/BPortImpl$clk_i_to_ArchitectureBlockImpl$prim_subreg/AlwaysBlockImpl$null10/GPortImpl$clk_iIN" class="sprotty-edge edge" style="fill:none;stroke:rgb(112, 112, 112);stroke-linejoin:round;"><g><path d="M 0 36 L 60.84375 36 C 61.84375 36 62.84375 37 62.84375 38 L 62.84375 58 C 62.84375 59 63.84375 60 64.84375 60 L 142.20703125 60 "/><path d="M 0 36 L 60.84375 36 C 61.84375 36 62.84375 37 62.84375 38 L 62.84375 58 C 62.84375 59 63.84375 60 64.84375 60 L 142.20703125 60 " class="clickable"/></g><circle r="2" id="sprotty_ArchitectureBlockImpl$prim_subreg/BPortImpl$clk_i_to_ArchitectureBlockImpl$prim_subreg/AlwaysBlockImpl$null10/GPortImpl$clk_iIN/junction0" transform="translate(62.84375, 36)" class="sprotty-junction junction" style="fill:rgb(112, 112, 112);stroke:none;"/></g><g id="sprotty_ArchitectureBlockImpl$prim_subreg/BPortImpl$rst_ni_to_ArchitectureBlockImpl$prim_subreg/AlwaysBlockImpl$null10/GPortImpl$rst_niIN" class="sprotty-edge edge" style="fill:none;stroke:rgb(112, 112, 112);stroke-linejoin:round;"><g><path d="M 0 70 L 142.20703125 70 "/><path d="M 0 70 L 142.20703125 70 " class="clickable"/></g></g><g id="sprotty_ArchitectureBlockImpl$prim_subreg/BPortImpl$we_to_ArchitectureBlockImpl$prim_subreg/AlwaysBlockImpl$null10/GPortImpl$weIN" class="sprotty-edge edge" style="fill:none;stroke:rgb(112, 112, 112);stroke-linejoin:round;"><g><path d="M 0 104 L 60.84375 104 C 61.84375 104 62.84375 103 62.84375 102 L 62.84375 82 C 62.84375 81 63.84375 80 64.84375 80 L 142.20703125 80 "/><path d="M 0 104 L 60.84375 104 C 61.84375 104 62.84375 103 62.84375 102 L 62.84375 82 C 62.84375 81 63.84375 80 64.84375 80 L 142.20703125 80 " class="clickable"/></g></g><g id="sprotty_ArchitectureBlockImpl$prim_subreg/BPortImpl$clk_i_to_ArchitectureBlockImpl$prim_subreg/AlwaysBlockImpl$null9/GPortImpl$clk_iIN" class="sprotty-edge edge" style="fill:none;stroke:rgb(112, 112, 112);stroke-linejoin:round;"><g><path d="M 0 36 L 377.1875 36 C 378.1875 36 379.1875 37 379.1875 38 L 379.1875 90 C 379.1875 91 380.1875 92 381.1875 92 L 399.1875 92 "/><path d="M 0 36 L 377.1875 36 C 378.1875 36 379.1875 37 379.1875 38 L 379.1875 90 C 379.1875 91 380.1875 92 381.1875 92 L 399.1875 92 " class="clickable"/></g></g><g id="sprotty_ArchitectureBlockImpl$prim_subreg/BPortImpl$rst_ni_to_ArchitectureBlockImpl$prim_subreg/AlwaysBlockImpl$null9/GPortImpl$rst_niIN" class="sprotty-edge edge" style="fill:none;stroke:rgb(112, 112, 112);stroke-linejoin:round;"><g><path d="M 0 70 L 70.84375 70 C 71.84375 70 72.84375 71 72.84375 72 L 72.84375 100 C 72.84375 101 73.84375 102 74.84375 102 L 399.1875 102 "/><path d="M 0 70 L 70.84375 70 C 71.84375 70 72.84375 71 72.84375 72 L 72.84375 100 C 72.84375 101 73.84375 102 74.84375 102 L 399.1875 102 " class="clickable"/></g><circle r="2" id="sprotty_ArchitectureBlockImpl$prim_subreg/BPortImpl$rst_ni_to_ArchitectureBlockImpl$prim_subreg/AlwaysBlockImpl$null9/GPortImpl$rst_niIN/junction0" transform="translate(72.84375, 70)" class="sprotty-junction junction" style="fill:rgb(112, 112, 112);stroke:none;"/></g><g id="sprotty_ArchitectureBlockImpl$prim_subreg/InstantiationBlockImpl$wr_en_data_arb/BPortImpl$wr_en_to_ArchitectureBlockImpl$prim_subreg/AlwaysBlockImpl$null9/GPortImpl$wr_enIN" class="sprotty-edge edge" style="fill:none;stroke:rgb(112, 112, 112);stroke-linejoin:round;"><g><path d="M 369.1875 152 L 377.1875 152 C 378.1875 152 379.1875 151 379.1875 150 L 379.1875 114 C 379.1875 113 380.1875 112 381.1875 112 L 399.1875 112 "/><path d="M 369.1875 152 L 377.1875 152 C 378.1875 152 379.1875 151 379.1875 150 L 379.1875 114 C 379.1875 113 380.1875 112 381.1875 112 L 399.1875 112 " class="clickable"/></g></g><g id="sprotty_ArchitectureBlockImpl$prim_subreg/InstantiationBlockImpl$wr_en_data_arb/BPortImpl$wr_data_to_ArchitectureBlockImpl$prim_subreg/AlwaysBlockImpl$null9/GPortImpl$wr_dataIN" class="sprotty-edge thick edge" style="fill:none;stroke:rgb(112, 112, 112);stroke-linejoin:round;stroke-width:3px;"><g><path d="M 369.1875 264 L 387.1875 264 C 388.1875 264 389.1875 263 389.1875 262 L 389.1875 124 C 389.1875 123 390.1875 122 391.1875 122 L 399.1875 122 "/><path d="M 369.1875 264 L 387.1875 264 C 388.1875 264 389.1875 263 389.1875 262 L 389.1875 124 C 389.1875 123 390.1875 122 391.1875 122 L 399.1875 122 " class="clickable"/></g></g><g id="sprotty_ArchitectureBlockImpl$prim_subreg/AlwaysBlockImpl$null9" transform="translate(399.1875, 82)" class="statement"><rect x="0" y="0" rx="10" ry="5" width="48.890625" height="50" class="sprotty-node" style="fill:rgb(245, 245, 245);stroke:rgb(112, 112, 112);"/><text class="clickable sprotty-label statementtype" id="sprotty_ArchitectureBlockImpl$prim_subreg/AlwaysBlockImpl$null9/labeltype" transform="translate(5, 19) translate(18.828125, 9)" style="cursor:default;font-size:8px;font-weight:700;perspective-origin:0.609375px 0px;fill:rgb(112, 112, 112);text-anchor:middle;">always_ff</text><g id="sprotty_ArchitectureBlockImpl$prim_subreg/AlwaysBlockImpl$null9/GPortImpl$wr_dataIN" transform="translate(0, 40)" class="sprotty-hidden hidden" style="display:block;height:0px;width:0px;"/><g id="sprotty_ArchitectureBlockImpl$prim_subreg/AlwaysBlockImpl$null9/GPortImpl$wr_enIN" transform="translate(0, 30)" class="sprotty-hidden hidden" style="display:block;height:0px;width:0px;"/><g id="sprotty_ArchitectureBlockImpl$prim_subreg/AlwaysBlockImpl$null9/GPortImpl$rst_niIN" transform="translate(0, 20)" class="sprotty-hidden hidden" style="display:block;height:0px;width:0px;"/><g id="sprotty_ArchitectureBlockImpl$prim_subreg/AlwaysBlockImpl$null9/GPortImpl$clk_iIN" transform="translate(0, 10)" class="sprotty-hidden hidden" style="display:block;height:0px;width:0px;"/><g id="sprotty_ArchitectureBlockImpl$prim_subreg/AlwaysBlockImpl$null9/GPortImpl$qOUT" transform="translate(48.890625, 25)" class="sprotty-hidden hidden" style="display:block;height:0px;width:0px;"/></g><g id="sprotty_ArchitectureBlockImpl$prim_subreg/AlwaysBlockImpl$null10" transform="translate(142.20703125, 50)" class="statement"><rect x="0" y="0" rx="10" ry="5" width="48.890625" height="40" class="sprotty-node" style="fill:rgb(245, 245, 245);stroke:rgb(112, 112, 112);"/><text class="clickable sprotty-label statementtype" id="sprotty_ArchitectureBlockImpl$prim_subreg/AlwaysBlockImpl$null10/labeltype" transform="translate(5, 14) translate(18.828125, 9)" style="cursor:default;font-size:8px;font-weight:700;perspective-origin:0.609375px 0px;fill:rgb(112, 112, 112);text-anchor:middle;">always_ff</text><g id="sprotty_ArchitectureBlockImpl$prim_subreg/AlwaysBlockImpl$null10/GPortImpl$weIN" transform="translate(0, 30)" class="sprotty-hidden hidden" style="display:block;height:0px;width:0px;"/><g id="sprotty_ArchitectureBlockImpl$prim_subreg/AlwaysBlockImpl$null10/GPortImpl$rst_niIN" transform="translate(0, 20)" class="sprotty-hidden hidden" style="display:block;height:0px;width:0px;"/><g id="sprotty_ArchitectureBlockImpl$prim_subreg/AlwaysBlockImpl$null10/GPortImpl$clk_iIN" transform="translate(0, 10)" class="sprotty-hidden hidden" style="display:block;height:0px;width:0px;"/><g id="sprotty_ArchitectureBlockImpl$prim_subreg/AlwaysBlockImpl$null10/GPortImpl$qeOUT" transform="translate(48.890625, 20)" class="sprotty-hidden hidden" style="display:block;height:0px;width:0px;"/></g><g id="sprotty_ArchitectureBlockImpl$prim_subreg/AssignmentBlockImpl$qs" transform="translate(15, 314)" class="statement"><rect x="0" y="0" rx="10" ry="5" width="19.71875" height="22" class="sprotty-node" style="fill:rgb(245, 245, 245);stroke:rgb(112, 112, 112);"/><text class="clickable sprotty-label statementtype" id="sprotty_ArchitectureBlockImpl$prim_subreg/AssignmentBlockImpl$qs/labeltype" transform="translate(5, 5) translate(4.71875, 9)" style="cursor:default;font-size:8px;font-weight:700;perspective-origin:0.140625px 0px;fill:rgb(112, 112, 112);text-anchor:middle;">&lt;=</text></g><g id="sprotty_ArchitectureBlockImpl$prim_subreg/InstantiationBlockImpl$wr_en_data_arb" transform="translate(82.84375, 114)" class="instantiation"><g class="sprotty-block" style="fill:rgb(255, 255, 255);stroke:rgb(48, 48, 48);stroke-dasharray:0px;"><rect x="0" y="0" rx="1" ry="1" width="286.34375" height="168"/><text x="143.171875" y="12" class="sprotty-block-name" style="cursor:pointer;font-weight:700;perspective-origin:143.172px 0px;fill:rgb(48, 48, 48);stroke:rgba(0, 0, 0, 0);dominant-baseline:middle;text-anchor:middle;">wr_en_data_arb : prim_subreg_arb</text><line x1="0" y1="20" x2="286.34375" y2="20"/></g><g id="sprotty_ArchitectureBlockImpl$prim_subreg/InstantiationBlockImpl$wr_en_data_arb/BPortImpl$q" transform="translate(0, 150)" class="triangle"><path d="M 0,0 L 5,2.5 L 0,5 Z" transform="translate(-1.67, -2.5)" class="sprotty-port" style="fill:rgb(48, 48, 48);stroke:rgb(48, 48, 48);"/><text class="clickable sprotty-label port" id="sprotty_ArchitectureBlockImpl$prim_subreg/InstantiationBlockImpl$wr_en_data_arb/BPortImpl$q/label" transform="translate(6, -9) translate(3.734375, 14)" style="cursor:default;font-size:12px;perspective-origin:0px 0px;fill:rgb(48, 48, 48);text-anchor:middle;">q</text></g><g id="sprotty_ArchitectureBlockImpl$prim_subreg/InstantiationBlockImpl$wr_en_data_arb/BPortImpl$d" transform="translate(0, 122)" class="triangle"><path d="M 0,0 L 5,2.5 L 0,5 Z" transform="translate(-1.67, -2.5)" class="sprotty-port" style="fill:rgb(48, 48, 48);stroke:rgb(48, 48, 48);"/><text class="clickable sprotty-label port" id="sprotty_ArchitectureBlockImpl$prim_subreg/InstantiationBlockImpl$wr_en_data_arb/BPortImpl$d/label" transform="translate(6, -9) translate(3.734375, 14)" style="cursor:default;font-size:12px;perspective-origin:0px 0px;fill:rgb(48, 48, 48);text-anchor:middle;">d</text></g><g id="sprotty_ArchitectureBlockImpl$prim_subreg/InstantiationBlockImpl$wr_en_data_arb/BPortImpl$de" transform="translate(0, 94)" class="triangle"><path d="M 0,0 L 5,2.5 L 0,5 Z" transform="translate(-1.67, -2.5)" class="sprotty-port" style="fill:rgb(48, 48, 48);stroke:rgb(48, 48, 48);"/><text class="clickable sprotty-label port" id="sprotty_ArchitectureBlockImpl$prim_subreg/InstantiationBlockImpl$wr_en_data_arb/BPortImpl$de/label" transform="translate(6, -9) translate(7.046875, 14)" style="cursor:default;font-size:12px;perspective-origin:0.171875px 0px;fill:rgb(48, 48, 48);text-anchor:middle;">de</text></g><g id="sprotty_ArchitectureBlockImpl$prim_subreg/InstantiationBlockImpl$wr_en_data_arb/BPortImpl$wd" transform="translate(0, 66)" class="triangle"><path d="M 0,0 L 5,2.5 L 0,5 Z" transform="translate(-1.67, -2.5)" class="sprotty-port" style="fill:rgb(48, 48, 48);stroke:rgb(48, 48, 48);"/><text class="clickable sprotty-label port" id="sprotty_ArchitectureBlockImpl$prim_subreg/InstantiationBlockImpl$wr_en_data_arb/BPortImpl$wd/label" transform="translate(6, -9) translate(8.515625, 14)" style="cursor:default;font-size:12px;perspective-origin:0px 0px;fill:rgb(48, 48, 48);text-anchor:middle;">wd</text></g><g id="sprotty_ArchitectureBlockImpl$prim_subreg/InstantiationBlockImpl$wr_en_data_arb/BPortImpl$we" transform="translate(0, 38)" class="triangle"><path d="M 0,0 L 5,2.5 L 0,5 Z" transform="translate(-1.67, -2.5)" class="sprotty-port" style="fill:rgb(48, 48, 48);stroke:rgb(48, 48, 48);"/><text class="clickable sprotty-label port" id="sprotty_ArchitectureBlockImpl$prim_subreg/InstantiationBlockImpl$wr_en_data_arb/BPortImpl$we/label" transform="translate(6, -9) translate(8.125, 14)" style="cursor:default;font-size:12px;perspective-origin:0.171875px 0px;fill:rgb(48, 48, 48);text-anchor:middle;">we</text></g><g id="sprotty_ArchitectureBlockImpl$prim_subreg/InstantiationBlockImpl$wr_en_data_arb/BPortImpl$wr_en" transform="translate(286.34375, 38)" class="triangle"><path d="M 0,0 L 5,2.5 L 0,5 Z" transform="translate(-1.67, -2.5)" class="sprotty-port" style="fill:rgb(48, 48, 48);stroke:rgb(48, 48, 48);"/><text class="clickable sprotty-label port" id="sprotty_ArchitectureBlockImpl$prim_subreg/InstantiationBlockImpl$wr_en_data_arb/BPortImpl$wr_en/label" transform="translate(-40.96875, -9) translate(17.484375, 14)" style="cursor:default;font-size:12px;perspective-origin:0px 0px;fill:rgb(48, 48, 48);text-anchor:middle;">wr_en</text></g><g id="sprotty_ArchitectureBlockImpl$prim_subreg/InstantiationBlockImpl$wr_en_data_arb/BPortImpl$wr_data" transform="translate(286.34375, 150)" class="triangle"><path d="M 0,0 L 5,2.5 L 0,5 Z" transform="translate(-1.67, -2.5)" class="sprotty-port" style="fill:rgb(48, 48, 48);stroke:rgb(48, 48, 48);"/><text class="clickable sprotty-label port" id="sprotty_ArchitectureBlockImpl$prim_subreg/InstantiationBlockImpl$wr_en_data_arb/BPortImpl$wr_data/label" transform="translate(-52.03125, -9) translate(23.015625, 14)" style="cursor:default;font-size:12px;perspective-origin:0px 0px;fill:rgb(48, 48, 48);text-anchor:middle;">wr_data</text></g></g><g id="sprotty_ArchitectureBlockImpl$prim_subreg/BPortImpl$d" transform="translate(0, 248)" class="triangle"><path d="M 0,0 L 5,2.5 L 0,5 Z" transform="translate(-1.67, -2.5)" class="sprotty-port" style="fill:rgb(48, 48, 48);stroke:rgb(48, 48, 48);"/><text class="clickable sprotty-label port" id="sprotty_ArchitectureBlockImpl$prim_subreg/BPortImpl$d/label" transform="translate(6, 6) translate(3.734375, 14)" style="cursor:default;font-size:12px;perspective-origin:0px 0px;fill:rgb(48, 48, 48);text-anchor:middle;">d</text></g><g id="sprotty_ArchitectureBlockImpl$prim_subreg/BPortImpl$de" transform="translate(0, 214)" class="triangle"><path d="M 0,0 L 5,2.5 L 0,5 Z" transform="translate(-1.67, -2.5)" class="sprotty-port" style="fill:rgb(48, 48, 48);stroke:rgb(48, 48, 48);"/><text class="clickable sprotty-label port" id="sprotty_ArchitectureBlockImpl$prim_subreg/BPortImpl$de/label" transform="translate(6, 6) translate(7.046875, 14)" style="cursor:default;font-size:12px;perspective-origin:0.171875px 0px;fill:rgb(48, 48, 48);text-anchor:middle;">de</text></g><g id="sprotty_ArchitectureBlockImpl$prim_subreg/BPortImpl$wd" transform="translate(0, 180)" class="triangle"><path d="M 0,0 L 5,2.5 L 0,5 Z" transform="translate(-1.67, -2.5)" class="sprotty-port" style="fill:rgb(48, 48, 48);stroke:rgb(48, 48, 48);"/><text class="clickable sprotty-label port" id="sprotty_ArchitectureBlockImpl$prim_subreg/BPortImpl$wd/label" transform="translate(6, 6) translate(8.515625, 14)" style="cursor:default;font-size:12px;perspective-origin:0px 0px;fill:rgb(48, 48, 48);text-anchor:middle;">wd</text></g><g id="sprotty_ArchitectureBlockImpl$prim_subreg/BPortImpl$we" transform="translate(0, 104)" class="triangle"><path d="M 0,0 L 5,2.5 L 0,5 Z" transform="translate(-1.67, -2.5)" class="sprotty-port" style="fill:rgb(48, 48, 48);stroke:rgb(48, 48, 48);"/><text class="clickable sprotty-label port" id="sprotty_ArchitectureBlockImpl$prim_subreg/BPortImpl$we/label" transform="translate(6, 6) translate(8.125, 14)" style="cursor:default;font-size:12px;perspective-origin:0.171875px 0px;fill:rgb(48, 48, 48);text-anchor:middle;">we</text></g><g id="sprotty_ArchitectureBlockImpl$prim_subreg/BPortImpl$rst_ni" transform="translate(0, 70)" class="triangle"><path d="M 0,0 L 5,2.5 L 0,5 Z" transform="translate(-1.67, -2.5)" class="sprotty-port" style="fill:rgb(48, 48, 48);stroke:rgb(48, 48, 48);"/><text class="clickable sprotty-label port" id="sprotty_ArchitectureBlockImpl$prim_subreg/BPortImpl$rst_ni/label" transform="translate(6, 6) translate(15.921875, 14)" style="cursor:default;font-size:12px;perspective-origin:0px 0px;fill:rgb(48, 48, 48);text-anchor:middle;">rst_ni</text></g><g id="sprotty_ArchitectureBlockImpl$prim_subreg/BPortImpl$clk_i" transform="translate(0, 36)" class="triangle"><path d="M 0,0 L 5,2.5 L 0,5 Z" transform="translate(-1.67, -2.5)" class="sprotty-port" style="fill:rgb(48, 48, 48);stroke:rgb(48, 48, 48);"/><text class="clickable sprotty-label port" id="sprotty_ArchitectureBlockImpl$prim_subreg/BPortImpl$clk_i/label" transform="translate(6, 6) translate(13.09375, 14)" style="cursor:default;font-size:12px;perspective-origin:0px 0px;fill:rgb(48, 48, 48);text-anchor:middle;">clk_i</text></g><g id="sprotty_ArchitectureBlockImpl$prim_subreg/BPortImpl$qe" transform="translate(503.53125, 70)" class="triangle"><path d="M 0,0 L 5,2.5 L 0,5 Z" transform="translate(-1.67, -2.5)" class="sprotty-port" style="fill:rgb(48, 48, 48);stroke:rgb(48, 48, 48);"/><text class="clickable sprotty-label port" id="sprotty_ArchitectureBlockImpl$prim_subreg/BPortImpl$qe/label" transform="translate(-20.453125, 6) translate(7.046875, 14)" style="cursor:default;font-size:12px;perspective-origin:0.171875px 0px;fill:rgb(48, 48, 48);text-anchor:middle;">qe</text></g><g id="sprotty_ArchitectureBlockImpl$prim_subreg/BPortImpl$q" transform="translate(503.53125, 107)" class="triangle"><path d="M 0,0 L 5,2.5 L 0,5 Z" transform="translate(-1.67, -2.5)" class="sprotty-port" style="fill:rgb(48, 48, 48);stroke:rgb(48, 48, 48);"/><text class="clickable sprotty-label port" id="sprotty_ArchitectureBlockImpl$prim_subreg/BPortImpl$q/label" transform="translate(-13.46875, 6) translate(3.734375, 14)" style="cursor:default;font-size:12px;perspective-origin:0px 0px;fill:rgb(48, 48, 48);text-anchor:middle;">q</text></g><g id="sprotty_ArchitectureBlockImpl$prim_subreg/BPortImpl$qs" transform="translate(503.53125, 314)" class="triangle"><path d="M 0,0 L 5,2.5 L 0,5 Z" transform="translate(-1.67, -2.5)" class="sprotty-port" style="fill:rgb(48, 48, 48);stroke:rgb(48, 48, 48);"/><text class="clickable sprotty-label port" id="sprotty_ArchitectureBlockImpl$prim_subreg/BPortImpl$qs/label" transform="translate(-19.453125, 6) translate(6.53125, 14)" style="cursor:default;font-size:12px;perspective-origin:0.1875px 0px;fill:rgb(48, 48, 48);text-anchor:middle;">qs</text></g></g></g></svg>