<svg xmlns="http://www.w3.org/2000/svg" id="sprotty_work.otbn_stack" class="sprotty-graph sprotty-block-diagram blockdiagram" style="font-family:&quot;Noto Sans&quot;, Helvetica, Arial, sans-serif;perspective-origin:0px 0px;transform-origin:0px 0px;" version="1.1" viewBox="7 7 539.578125 397" width="539.578125" height="397"><g transform="scale(1) translate(0,0)"><g id="sprotty_ArchitectureBlockImpl$otbn_stack" transform="translate(12, 12)" class="architecture"><g class="sprotty-block" style="fill:rgb(255, 255, 255);stroke:rgb(48, 48, 48);stroke-dasharray:0px;"><rect x="0" y="0" rx="1" ry="1" width="529.578125" height="387"/><text x="264.7890625" y="12" class="sprotty-block-name" style="cursor:pointer;font-weight:700;perspective-origin:264.938px 0px;fill:rgb(48, 48, 48);stroke:rgba(0, 0, 0, 0);dominant-baseline:middle;text-anchor:middle;">otbn_stack</text><line x1="0" y1="20" x2="529.578125" y2="20"/></g><g id="sprotty_ArchitectureBlockImpl$otbn_stack/AssignmentBlockImpl$full_o/GPortImpl$full_oOUT_to_ArchitectureBlockImpl$otbn_stack/BPortImpl$full_o" class="sprotty-edge edge" style="fill:none;stroke:rgb(112, 112, 112);stroke-linejoin:round;"><g><path d="M 392.171875 175 L 400.171875 175 C 401.171875 175 402.171875 176 402.171875 177 L 402.171875 204 C 402.171875 205 403.171875 206 404.171875 206 L 529.578125 206 "/><path d="M 392.171875 175 L 400.171875 175 C 401.171875 175 402.171875 176 402.171875 177 L 402.171875 204 C 402.171875 205 403.171875 206 404.171875 206 L 529.578125 206 " class="clickable"/></g><circle r="2" id="sprotty_ArchitectureBlockImpl$otbn_stack/AssignmentBlockImpl$full_o/GPortImpl$full_oOUT_to_ArchitectureBlockImpl$otbn_stack/BPortImpl$full_o/junction0" transform="translate(402.171875, 206)" class="sprotty-junction junction" style="fill:rgb(112, 112, 112);stroke:none;"/></g><g id="sprotty_ArchitectureBlockImpl$otbn_stack/AssignmentBlockImpl$top_data_o/GPortImpl$top_data_oOUT_to_ArchitectureBlockImpl$otbn_stack/BPortImpl$top_data_o" class="sprotty-edge thick edge" style="fill:none;stroke:rgb(112, 112, 112);stroke-linejoin:round;stroke-width:3px;"><g><path d="M 298.1484375 280 L 529.578125 280 "/><path d="M 298.1484375 280 L 529.578125 280 " class="clickable"/></g></g><g id="sprotty_ArchitectureBlockImpl$otbn_stack/AssignmentBlockImpl$top_valid_o/GPortImpl$top_valid_oOUT_to_ArchitectureBlockImpl$otbn_stack/BPortImpl$top_valid_o" class="sprotty-edge edge" style="fill:none;stroke:rgb(112, 112, 112);stroke-linejoin:round;"><g><path d="M 392.171875 69 L 529.578125 69 "/><path d="M 392.171875 69 L 529.578125 69 " class="clickable"/></g></g><g id="sprotty_ArchitectureBlockImpl$otbn_stack/BPortImpl$push_i_to_ArchitectureBlockImpl$otbn_stack/AssignmentBlockImpl$stack_write/GPortImpl$push_iIN" class="sprotty-edge edge" style="fill:none;stroke:rgb(112, 112, 112);stroke-linejoin:round;"><g><path d="M 0 246 L 120.375 246 "/><path d="M 0 246 L 120.375 246 " class="clickable"/></g></g><g id="sprotty_ArchitectureBlockImpl$otbn_stack/BPortImpl$full_o_to_ArchitectureBlockImpl$otbn_stack/AssignmentBlockImpl$stack_write/GPortImpl$full_oIN" class="sprotty-edge edge" style="fill:none;stroke:rgb(112, 112, 112);stroke-linejoin:round;"><g><path d="M 529.578125 206 L 112.375 206 C 111.375 206 110.375 207 110.375 208 L 110.375 224 C 110.375 225 111.375 226 112.375 226 L 120.375 226 "/><path d="M 529.578125 206 L 112.375 206 C 111.375 206 110.375 207 110.375 208 L 110.375 224 C 110.375 225 111.375 226 112.375 226 L 120.375 226 " class="clickable"/></g></g><g id="sprotty_ArchitectureBlockImpl$otbn_stack/BPortImpl$pop_i_to_ArchitectureBlockImpl$otbn_stack/AssignmentBlockImpl$stack_write/GPortImpl$pop_iIN" class="sprotty-edge edge" style="fill:none;stroke:rgb(112, 112, 112);stroke-linejoin:round;"><g><path d="M 0 110 L 98.375 110 C 99.375 110 100.375 111 100.375 112 L 100.375 234 C 100.375 235 101.375 236 102.375 236 L 120.375 236 "/><path d="M 0 110 L 98.375 110 C 99.375 110 100.375 111 100.375 112 L 100.375 234 C 100.375 235 101.375 236 102.375 236 L 120.375 236 " class="clickable"/></g><circle r="2" id="sprotty_ArchitectureBlockImpl$otbn_stack/BPortImpl$pop_i_to_ArchitectureBlockImpl$otbn_stack/AssignmentBlockImpl$stack_write/GPortImpl$pop_iIN/junction0" transform="translate(100.375, 110)" class="sprotty-junction junction" style="fill:rgb(112, 112, 112);stroke:none;"/></g><g id="sprotty_ArchitectureBlockImpl$otbn_stack/BPortImpl$top_valid_o_to_ArchitectureBlockImpl$otbn_stack/AssignmentBlockImpl$stack_read/GPortImpl$top_valid_oIN" class="sprotty-edge edge" style="fill:none;stroke:rgb(112, 112, 112);stroke-linejoin:round;"><g><path d="M 529.578125 69 L 414.171875 69 C 413.171875 69 412.171875 68 412.171875 67 L 412.171875 38 C 412.171875 37 411.171875 36 410.171875 36 L 112.375 36 C 111.375 36 110.375 37 110.375 38 L 110.375 98 C 110.375 99 111.375 100 112.375 100 L 120.375 100 "/><path d="M 529.578125 69 L 414.171875 69 C 413.171875 69 412.171875 68 412.171875 67 L 412.171875 38 C 412.171875 37 411.171875 36 410.171875 36 L 112.375 36 C 111.375 36 110.375 37 110.375 38 L 110.375 98 C 110.375 99 111.375 100 112.375 100 L 120.375 100 " class="clickable"/></g><circle r="2" id="sprotty_ArchitectureBlockImpl$otbn_stack/BPortImpl$top_valid_o_to_ArchitectureBlockImpl$otbn_stack/AssignmentBlockImpl$stack_read/GPortImpl$top_valid_oIN/junction0" transform="translate(412.171875, 69)" class="sprotty-junction junction" style="fill:rgb(112, 112, 112);stroke:none;"/></g><g id="sprotty_ArchitectureBlockImpl$otbn_stack/BPortImpl$pop_i_to_ArchitectureBlockImpl$otbn_stack/AssignmentBlockImpl$stack_read/GPortImpl$pop_iIN" class="sprotty-edge edge" style="fill:none;stroke:rgb(112, 112, 112);stroke-linejoin:round;"><g><path d="M 0 110 L 120.375 110 "/><path d="M 0 110 L 120.375 110 " class="clickable"/></g></g><g id="sprotty_ArchitectureBlockImpl$otbn_stack/BPortImpl$pop_i_to_ArchitectureBlockImpl$otbn_stack/AssignmentBlockImpl$stack_wr_idx/GPortImpl$pop_iIN" class="sprotty-edge edge" style="fill:none;stroke:rgb(112, 112, 112);stroke-linejoin:round;"><g><path d="M 0 110 L 98.375 110 C 99.375 110 100.375 109 100.375 108 L 100.375 48 C 100.375 47 101.375 46 102.375 46 L 400.171875 46 C 401.171875 46 402.171875 47 402.171875 48 L 402.171875 99 C 402.171875 100 403.171875 101 404.171875 101 L 422.171875 101 "/><path d="M 0 110 L 98.375 110 C 99.375 110 100.375 109 100.375 108 L 100.375 48 C 100.375 47 101.375 46 102.375 46 L 400.171875 46 C 401.171875 46 402.171875 47 402.171875 48 L 402.171875 99 C 402.171875 100 403.171875 101 404.171875 101 L 422.171875 101 " class="clickable"/></g></g><g id="sprotty_ArchitectureBlockImpl$otbn_stack/BPortImpl$clk_i_to_ArchitectureBlockImpl$otbn_stack/AlwaysBlockImpl$null9/GPortImpl$clk_iIN" class="sprotty-edge edge" style="fill:none;stroke:rgb(112, 112, 112);stroke-linejoin:round;"><g><path d="M 0 280 L 158.09375 280 C 159.09375 280 160.09375 279 160.09375 278 L 160.09375 250 C 160.09375 249 161.09375 248 162.09375 248 L 241.84375 248 C 242.84375 248 243.84375 247 243.84375 246 L 243.84375 177 C 243.84375 176 244.84375 175 245.84375 175 L 263.84375 175 "/><path d="M 0 280 L 158.09375 280 C 159.09375 280 160.09375 279 160.09375 278 L 160.09375 250 C 160.09375 249 161.09375 248 162.09375 248 L 241.84375 248 C 242.84375 248 243.84375 247 243.84375 246 L 243.84375 177 C 243.84375 176 244.84375 175 245.84375 175 L 263.84375 175 " class="clickable"/></g><circle r="2" id="sprotty_ArchitectureBlockImpl$otbn_stack/BPortImpl$clk_i_to_ArchitectureBlockImpl$otbn_stack/AlwaysBlockImpl$null9/GPortImpl$clk_iIN/junction0" transform="translate(160.09375, 280)" class="sprotty-junction junction" style="fill:rgb(112, 112, 112);stroke:none;"/></g><g id="sprotty_ArchitectureBlockImpl$otbn_stack/BPortImpl$rst_ni_to_ArchitectureBlockImpl$otbn_stack/AlwaysBlockImpl$null9/GPortImpl$rst_niIN" class="sprotty-edge edge" style="fill:none;stroke:rgb(112, 112, 112);stroke-linejoin:round;"><g><path d="M 0 314 L 251.84375 314 C 252.84375 314 253.84375 313 253.84375 312 L 253.84375 187 C 253.84375 186 254.84375 185 255.84375 185 L 263.84375 185 "/><path d="M 0 314 L 251.84375 314 C 252.84375 314 253.84375 313 253.84375 312 L 253.84375 187 C 253.84375 186 254.84375 185 255.84375 185 L 263.84375 185 " class="clickable"/></g></g><g id="sprotty_ArchitectureBlockImpl$otbn_stack/BPortImpl$clk_i_to_ArchitectureBlockImpl$otbn_stack/AlwaysBlockImpl$null8/GPortImpl$clk_iIN" class="sprotty-edge edge" style="fill:none;stroke:rgb(112, 112, 112);stroke-linejoin:round;"><g><path d="M 0 280 L 173.80859375 280 "/><path d="M 0 280 L 173.80859375 280 " class="clickable"/></g></g><g id="sprotty_ArchitectureBlockImpl$otbn_stack/BPortImpl$push_data_i_to_ArchitectureBlockImpl$otbn_stack/AlwaysBlockImpl$null8/GPortImpl$push_data_iIN" class="sprotty-edge thick edge" style="fill:none;stroke:rgb(112, 112, 112);stroke-linejoin:round;stroke-width:3px;"><g><path d="M 0 348 L 148.09375 348 C 149.09375 348 150.09375 347 150.09375 346 L 150.09375 292 C 150.09375 291 151.09375 290 152.09375 290 L 173.80859375 290 "/><path d="M 0 348 L 148.09375 348 C 149.09375 348 150.09375 347 150.09375 346 L 150.09375 292 C 150.09375 291 151.09375 290 152.09375 290 L 173.80859375 290 " class="clickable"/></g></g><g id="sprotty_ArchitectureBlockImpl$otbn_stack/AlwaysBlockImpl$null8/GPortImpl$stack_storageOUT_to_ArchitectureBlockImpl$otbn_stack/AssignmentBlockImpl$top_data_o/GPortImpl$stack_storageIN" class="sprotty-edge thick edge" style="fill:none;stroke:rgb(112, 112, 112);stroke-linejoin:round;stroke-width:3px;"><g><path d="M 222.69921875 280 L 278.4296875 280 "/><path d="M 222.69921875 280 L 278.4296875 280 " class="clickable"/></g></g><g id="sprotty_ArchitectureBlockImpl$otbn_stack/AlwaysBlockImpl$null9/GPortImpl$stack_wr_ptr_qOUT_to_ArchitectureBlockImpl$otbn_stack/AssignmentBlockImpl$stack_empty/GPortImpl$stack_wr_ptr_qIN" class="sprotty-edge thick edge" style="fill:none;stroke:rgb(112, 112, 112);stroke-linejoin:round;stroke-width:3px;"><g><path d="M 312.734375 175 L 320.734375 175 C 321.734375 175 322.734375 174 322.734375 173 L 322.734375 71 C 322.734375 70 323.734375 69 324.734375 69 L 332.734375 69 "/><path d="M 312.734375 175 L 320.734375 175 C 321.734375 175 322.734375 174 322.734375 173 L 322.734375 71 C 322.734375 70 323.734375 69 324.734375 69 L 332.734375 69 " class="clickable"/></g></g><g id="sprotty_ArchitectureBlockImpl$otbn_stack/AlwaysBlockImpl$null9/GPortImpl$stack_wr_ptr_qOUT_to_ArchitectureBlockImpl$otbn_stack/AssignmentBlockImpl$stack_full/GPortImpl$stack_wr_ptr_qIN" class="sprotty-edge thick edge" style="fill:none;stroke:rgb(112, 112, 112);stroke-linejoin:round;stroke-width:3px;"><g><path d="M 312.734375 175 L 332.734375 175 "/><path d="M 312.734375 175 L 332.734375 175 " class="clickable"/></g></g><g id="sprotty_ArchitectureBlockImpl$otbn_stack/AlwaysBlockImpl$null9/GPortImpl$stack_wr_ptr_qOUT_to_ArchitectureBlockImpl$otbn_stack/AssignmentBlockImpl$stack_top_idx/GPortImpl$stack_wr_ptr_qIN" class="sprotty-edge thick edge" style="fill:none;stroke:rgb(112, 112, 112);stroke-linejoin:round;stroke-width:3px;"><g><path d="M 312.734375 175 L 320.734375 175 C 321.734375 175 322.734375 174 322.734375 173 L 322.734375 135 C 322.734375 134 323.734375 133 324.734375 133 L 332.734375 133 "/><path d="M 312.734375 175 L 320.734375 175 C 321.734375 175 322.734375 174 322.734375 173 L 322.734375 135 C 322.734375 134 323.734375 133 324.734375 133 L 332.734375 133 " class="clickable"/></g><circle r="3" id="sprotty_ArchitectureBlockImpl$otbn_stack/AlwaysBlockImpl$null9/GPortImpl$stack_wr_ptr_qOUT_to_ArchitectureBlockImpl$otbn_stack/AssignmentBlockImpl$stack_top_idx/GPortImpl$stack_wr_ptr_qIN/junction0" transform="translate(322.734375, 133)" class="sprotty-junction thick" style="fill:rgb(112, 112, 112);stroke:none;"/></g><g id="sprotty_ArchitectureBlockImpl$otbn_stack/AlwaysBlockImpl$null9/GPortImpl$stack_wr_ptr_qOUT_to_ArchitectureBlockImpl$otbn_stack/AlwaysBlockImpl$null10/GPortImpl$stack_wr_ptr_qIN" class="sprotty-edge thick edge" style="fill:none;stroke:rgb(112, 112, 112);stroke-linejoin:round;stroke-width:3px;"><g><path d="M 312.734375 175 L 320.734375 175 C 321.734375 175 322.734375 174 322.734375 173 L 322.734375 147 C 322.734375 146 321.734375 145 320.734375 145 L 162.09375 145 C 161.09375 145 160.09375 144 160.09375 143 L 160.09375 127 C 160.09375 126 161.09375 125 162.09375 125 L 170.09375 125 "/><path d="M 312.734375 175 L 320.734375 175 C 321.734375 175 322.734375 174 322.734375 173 L 322.734375 147 C 322.734375 146 321.734375 145 320.734375 145 L 162.09375 145 C 161.09375 145 160.09375 144 160.09375 143 L 160.09375 127 C 160.09375 126 161.09375 125 162.09375 125 L 170.09375 125 " class="clickable"/></g><circle r="3" id="sprotty_ArchitectureBlockImpl$otbn_stack/AlwaysBlockImpl$null9/GPortImpl$stack_wr_ptr_qOUT_to_ArchitectureBlockImpl$otbn_stack/AlwaysBlockImpl$null10/GPortImpl$stack_wr_ptr_qIN/junction0" transform="translate(322.734375, 145)" class="sprotty-junction thick" style="fill:rgb(112, 112, 112);stroke:none;"/><circle r="3" id="sprotty_ArchitectureBlockImpl$otbn_stack/AlwaysBlockImpl$null9/GPortImpl$stack_wr_ptr_qOUT_to_ArchitectureBlockImpl$otbn_stack/AlwaysBlockImpl$null10/GPortImpl$stack_wr_ptr_qIN/junction1" transform="translate(322.734375, 175)" class="sprotty-junction thick" style="fill:rgb(112, 112, 112);stroke:none;"/></g><g id="sprotty_ArchitectureBlockImpl$otbn_stack/AlwaysBlockImpl$null10/GPortImpl$stack_wr_ptr_dOUT_to_ArchitectureBlockImpl$otbn_stack/AlwaysBlockImpl$null9/GPortImpl$stack_wr_ptr_dIN" class="sprotty-edge thick edge" style="fill:none;stroke:rgb(112, 112, 112);stroke-linejoin:round;stroke-width:3px;"><g><path d="M 233.84375 115 L 241.84375 115 C 242.84375 115 243.84375 116 243.84375 117 L 243.84375 163 C 243.84375 164 244.84375 165 245.84375 165 L 263.84375 165 "/><path d="M 233.84375 115 L 241.84375 115 C 242.84375 115 243.84375 116 243.84375 117 L 243.84375 163 C 243.84375 164 244.84375 165 245.84375 165 L 263.84375 165 " class="clickable"/></g></g><g id="sprotty_ArchitectureBlockImpl$otbn_stack/AssignmentBlockImpl$stack_top_idx/GPortImpl$stack_wr_ptr_qOUT_to_ArchitectureBlockImpl$otbn_stack/AssignmentBlockImpl$stack_rd_idx/GPortImpl$stack_top_idxIN" class="sprotty-edge thick edge" style="fill:none;stroke:rgb(112, 112, 112);stroke-linejoin:round;stroke-width:3px;"><g><path d="M 352.453125 133 L 360.453125 133 C 361.453125 133 362.453125 132 362.453125 131 L 362.453125 113 C 362.453125 112 363.453125 111 364.453125 111 L 372.453125 111 "/><path d="M 352.453125 133 L 360.453125 133 C 361.453125 133 362.453125 132 362.453125 131 L 362.453125 113 C 362.453125 112 363.453125 111 364.453125 111 L 372.453125 111 " class="clickable"/></g><circle r="3" id="sprotty_ArchitectureBlockImpl$otbn_stack/AssignmentBlockImpl$stack_top_idx/GPortImpl$stack_wr_ptr_qOUT_to_ArchitectureBlockImpl$otbn_stack/AssignmentBlockImpl$stack_rd_idx/GPortImpl$stack_top_idxIN/junction0" transform="translate(362.453125, 133)" class="sprotty-junction thick" style="fill:rgb(112, 112, 112);stroke:none;"/></g><g id="sprotty_ArchitectureBlockImpl$otbn_stack/AssignmentBlockImpl$stack_top_idx/GPortImpl$stack_wr_ptr_qOUT_to_ArchitectureBlockImpl$otbn_stack/AssignmentBlockImpl$stack_wr_idx/GPortImpl$stack_top_idxIN" class="sprotty-edge thick edge" style="fill:none;stroke:rgb(112, 112, 112);stroke-linejoin:round;stroke-width:3px;"><g><path d="M 352.453125 133 L 400.171875 133 C 401.171875 133 402.171875 132 402.171875 131 L 402.171875 123 C 402.171875 122 403.171875 121 404.171875 121 L 422.171875 121 "/><path d="M 352.453125 133 L 400.171875 133 C 401.171875 133 402.171875 132 402.171875 131 L 402.171875 123 C 402.171875 122 403.171875 121 404.171875 121 L 422.171875 121 " class="clickable"/></g></g><g id="sprotty_ArchitectureBlockImpl$otbn_stack/AssignmentBlockImpl$stack_rd_idx/GPortImpl$stack_top_idxOUT_to_ArchitectureBlockImpl$otbn_stack/AssignmentBlockImpl$stack_wr_idx/GPortImpl$stack_rd_idxIN" class="sprotty-edge thick edge" style="fill:none;stroke:rgb(112, 112, 112);stroke-linejoin:round;stroke-width:3px;"><g><path d="M 392.171875 111 L 422.171875 111 "/><path d="M 392.171875 111 L 422.171875 111 " class="clickable"/></g></g><g id="sprotty_ArchitectureBlockImpl$otbn_stack/AssignmentBlockImpl$stack_empty/GPortImpl$stack_wr_ptr_qOUT_to_ArchitectureBlockImpl$otbn_stack/AssignmentBlockImpl$top_valid_o/GPortImpl$stack_emptyIN" class="sprotty-edge thick edge" style="fill:none;stroke:rgb(112, 112, 112);stroke-linejoin:round;stroke-width:3px;"><g><path d="M 352.453125 69 L 372.453125 69 "/><path d="M 352.453125 69 L 372.453125 69 " class="clickable"/></g></g><g id="sprotty_ArchitectureBlockImpl$otbn_stack/AssignmentBlockImpl$stack_full/GPortImpl$stack_wr_ptr_qOUT_to_ArchitectureBlockImpl$otbn_stack/AssignmentBlockImpl$full_o/GPortImpl$stack_fullIN" class="sprotty-edge thick edge" style="fill:none;stroke:rgb(112, 112, 112);stroke-linejoin:round;stroke-width:3px;"><g><path d="M 352.453125 175 L 372.453125 175 "/><path d="M 352.453125 175 L 372.453125 175 " class="clickable"/></g></g><g id="sprotty_ArchitectureBlockImpl$otbn_stack/AssignmentBlockImpl$stack_write/GPortImpl$stack_writeOUT_to_ArchitectureBlockImpl$otbn_stack/AlwaysBlockImpl$null10/GPortImpl$stack_writeIN" class="sprotty-edge edge" style="fill:none;stroke:rgb(112, 112, 112);stroke-linejoin:round;"><g><path d="M 140.09375 236 L 148.09375 236 C 149.09375 236 150.09375 235 150.09375 234 L 150.09375 117 C 150.09375 116 151.09375 115 152.09375 115 L 170.09375 115 "/><path d="M 140.09375 236 L 148.09375 236 C 149.09375 236 150.09375 235 150.09375 234 L 150.09375 117 C 150.09375 116 151.09375 115 152.09375 115 L 170.09375 115 " class="clickable"/></g><circle r="2" id="sprotty_ArchitectureBlockImpl$otbn_stack/AssignmentBlockImpl$stack_write/GPortImpl$stack_writeOUT_to_ArchitectureBlockImpl$otbn_stack/AlwaysBlockImpl$null10/GPortImpl$stack_writeIN/junction0" transform="translate(150.09375, 236)" class="sprotty-junction junction" style="fill:rgb(112, 112, 112);stroke:none;"/></g><g id="sprotty_ArchitectureBlockImpl$otbn_stack/AssignmentBlockImpl$stack_write/GPortImpl$stack_writeOUT_to_ArchitectureBlockImpl$otbn_stack/AlwaysBlockImpl$null8/GPortImpl$stack_writeIN" class="sprotty-edge edge" style="fill:none;stroke:rgb(112, 112, 112);stroke-linejoin:round;"><g><path d="M 140.09375 236 L 148.09375 236 C 149.09375 236 150.09375 237 150.09375 238 L 150.09375 268 C 150.09375 269 151.09375 270 152.09375 270 L 173.80859375 270 "/><path d="M 140.09375 236 L 148.09375 236 C 149.09375 236 150.09375 237 150.09375 238 L 150.09375 268 C 150.09375 269 151.09375 270 152.09375 270 L 173.80859375 270 " class="clickable"/></g></g><g id="sprotty_ArchitectureBlockImpl$otbn_stack/AssignmentBlockImpl$stack_read/GPortImpl$stack_readOUT_to_ArchitectureBlockImpl$otbn_stack/AlwaysBlockImpl$null10/GPortImpl$stack_readIN" class="sprotty-edge edge" style="fill:none;stroke:rgb(112, 112, 112);stroke-linejoin:round;"><g><path d="M 140.09375 105 L 170.09375 105 "/><path d="M 140.09375 105 L 170.09375 105 " class="clickable"/></g></g><g id="sprotty_ArchitectureBlockImpl$otbn_stack/AlwaysBlockImpl$null8" transform="translate(173.80859375, 260)" class="statement"><rect x="0" y="0" rx="10" ry="5" width="48.890625" height="40" class="sprotty-node" style="fill:rgb(245, 245, 245);stroke:rgb(112, 112, 112);"/><text class="clickable sprotty-label statementtype" id="sprotty_ArchitectureBlockImpl$otbn_stack/AlwaysBlockImpl$null8/labeltype" transform="translate(5, 14) translate(18.828125, 9)" style="cursor:default;font-size:8px;font-weight:700;perspective-origin:0.609375px 0px;fill:rgb(112, 112, 112);text-anchor:middle;">always_ff</text><g id="sprotty_ArchitectureBlockImpl$otbn_stack/AlwaysBlockImpl$null8/GPortImpl$push_data_iIN" transform="translate(0, 30)" class="sprotty-hidden hidden" style="display:block;height:0px;width:0px;"/><g id="sprotty_ArchitectureBlockImpl$otbn_stack/AlwaysBlockImpl$null8/GPortImpl$stack_writeIN" transform="translate(0, 10)" class="sprotty-hidden hidden" style="display:block;height:0px;width:0px;"/><g id="sprotty_ArchitectureBlockImpl$otbn_stack/AlwaysBlockImpl$null8/GPortImpl$clk_iIN" transform="translate(0, 20)" class="sprotty-hidden hidden" style="display:block;height:0px;width:0px;"/><g id="sprotty_ArchitectureBlockImpl$otbn_stack/AlwaysBlockImpl$null8/GPortImpl$stack_storageOUT" transform="translate(48.890625, 20)" class="sprotty-hidden hidden" style="display:block;height:0px;width:0px;"/></g><g id="sprotty_ArchitectureBlockImpl$otbn_stack/AlwaysBlockImpl$null9" transform="translate(263.84375, 155)" class="statement"><rect x="0" y="0" rx="10" ry="5" width="48.890625" height="40" class="sprotty-node" style="fill:rgb(245, 245, 245);stroke:rgb(112, 112, 112);"/><text class="clickable sprotty-label statementtype" id="sprotty_ArchitectureBlockImpl$otbn_stack/AlwaysBlockImpl$null9/labeltype" transform="translate(5, 14) translate(18.828125, 9)" style="cursor:default;font-size:8px;font-weight:700;perspective-origin:0.609375px 0px;fill:rgb(112, 112, 112);text-anchor:middle;">always_ff</text><g id="sprotty_ArchitectureBlockImpl$otbn_stack/AlwaysBlockImpl$null9/GPortImpl$stack_wr_ptr_dIN" transform="translate(0, 10)" class="sprotty-hidden hidden" style="display:block;height:0px;width:0px;"/><g id="sprotty_ArchitectureBlockImpl$otbn_stack/AlwaysBlockImpl$null9/GPortImpl$rst_niIN" transform="translate(0, 30)" class="sprotty-hidden hidden" style="display:block;height:0px;width:0px;"/><g id="sprotty_ArchitectureBlockImpl$otbn_stack/AlwaysBlockImpl$null9/GPortImpl$clk_iIN" transform="translate(0, 20)" class="sprotty-hidden hidden" style="display:block;height:0px;width:0px;"/><g id="sprotty_ArchitectureBlockImpl$otbn_stack/AlwaysBlockImpl$null9/GPortImpl$stack_wr_ptr_qOUT" transform="translate(48.890625, 20)" class="sprotty-hidden hidden" style="display:block;height:0px;width:0px;"/></g><g id="sprotty_ArchitectureBlockImpl$otbn_stack/AlwaysBlockImpl$null10" transform="translate(170.09375, 95)" class="statement"><rect x="0" y="0" rx="10" ry="5" width="63.75" height="40" class="sprotty-node" style="fill:rgb(245, 245, 245);stroke:rgb(112, 112, 112);"/><text class="clickable sprotty-label statementtype" id="sprotty_ArchitectureBlockImpl$otbn_stack/AlwaysBlockImpl$null10/labeltype" transform="translate(5, 14) translate(26.875, 9)" style="cursor:default;font-size:8px;font-weight:700;perspective-origin:0px 0px;fill:rgb(112, 112, 112);text-anchor:middle;">always_comb</text><g id="sprotty_ArchitectureBlockImpl$otbn_stack/AlwaysBlockImpl$null10/GPortImpl$stack_readIN" transform="translate(0, 10)" class="sprotty-hidden hidden" style="display:block;height:0px;width:0px;"/><g id="sprotty_ArchitectureBlockImpl$otbn_stack/AlwaysBlockImpl$null10/GPortImpl$stack_writeIN" transform="translate(0, 20)" class="sprotty-hidden hidden" style="display:block;height:0px;width:0px;"/><g id="sprotty_ArchitectureBlockImpl$otbn_stack/AlwaysBlockImpl$null10/GPortImpl$stack_wr_ptr_qIN" transform="translate(0, 30)" class="sprotty-hidden hidden" style="display:block;height:0px;width:0px;"/><g id="sprotty_ArchitectureBlockImpl$otbn_stack/AlwaysBlockImpl$null10/GPortImpl$stack_wr_ptr_dOUT" transform="translate(63.75, 20)" class="sprotty-hidden hidden" style="display:block;height:0px;width:0px;"/></g><g id="sprotty_ArchitectureBlockImpl$otbn_stack/AssignmentBlockImpl$top_valid_o" transform="translate(372.453125, 58)" class="statement"><rect x="0" y="0" rx="10" ry="5" width="19.71875" height="22" class="sprotty-node" style="fill:rgb(245, 245, 245);stroke:rgb(112, 112, 112);"/><text class="clickable sprotty-label statementtype" id="sprotty_ArchitectureBlockImpl$otbn_stack/AssignmentBlockImpl$top_valid_o/labeltype" transform="translate(5, 5) translate(4.71875, 9)" style="cursor:default;font-size:8px;font-weight:700;perspective-origin:0.140625px 0px;fill:rgb(112, 112, 112);text-anchor:middle;">&lt;=</text><g id="sprotty_ArchitectureBlockImpl$otbn_stack/AssignmentBlockImpl$top_valid_o/GPortImpl$stack_emptyIN" transform="translate(0, 11)" class="sprotty-hidden hidden" style="display:block;height:0px;width:0px;"/><g id="sprotty_ArchitectureBlockImpl$otbn_stack/AssignmentBlockImpl$top_valid_o/GPortImpl$top_valid_oOUT" transform="translate(19.71875, 11)" class="sprotty-hidden hidden" style="display:block;height:0px;width:0px;"/></g><g id="sprotty_ArchitectureBlockImpl$otbn_stack/AssignmentBlockImpl$top_data_o" transform="translate(278.4296875, 269)" class="statement"><rect x="0" y="0" rx="10" ry="5" width="19.71875" height="22" class="sprotty-node" style="fill:rgb(245, 245, 245);stroke:rgb(112, 112, 112);"/><text class="clickable sprotty-label statementtype" id="sprotty_ArchitectureBlockImpl$otbn_stack/AssignmentBlockImpl$top_data_o/labeltype" transform="translate(5, 5) translate(4.71875, 9)" style="cursor:default;font-size:8px;font-weight:700;perspective-origin:0.140625px 0px;fill:rgb(112, 112, 112);text-anchor:middle;">&lt;=</text><g id="sprotty_ArchitectureBlockImpl$otbn_stack/AssignmentBlockImpl$top_data_o/GPortImpl$stack_storageIN" transform="translate(0, 11)" class="sprotty-hidden hidden" style="display:block;height:0px;width:0px;"/><g id="sprotty_ArchitectureBlockImpl$otbn_stack/AssignmentBlockImpl$top_data_o/GPortImpl$top_data_oOUT" transform="translate(19.71875, 11)" class="sprotty-hidden hidden" style="display:block;height:0px;width:0px;"/></g><g id="sprotty_ArchitectureBlockImpl$otbn_stack/AssignmentBlockImpl$full_o" transform="translate(372.453125, 164)" class="statement"><rect x="0" y="0" rx="10" ry="5" width="19.71875" height="22" class="sprotty-node" style="fill:rgb(245, 245, 245);stroke:rgb(112, 112, 112);"/><text class="clickable sprotty-label statementtype" id="sprotty_ArchitectureBlockImpl$otbn_stack/AssignmentBlockImpl$full_o/labeltype" transform="translate(5, 5) translate(4.71875, 9)" style="cursor:default;font-size:8px;font-weight:700;perspective-origin:0.140625px 0px;fill:rgb(112, 112, 112);text-anchor:middle;">&lt;=</text><g id="sprotty_ArchitectureBlockImpl$otbn_stack/AssignmentBlockImpl$full_o/GPortImpl$stack_fullIN" transform="translate(0, 11)" class="sprotty-hidden hidden" style="display:block;height:0px;width:0px;"/><g id="sprotty_ArchitectureBlockImpl$otbn_stack/AssignmentBlockImpl$full_o/GPortImpl$full_oOUT" transform="translate(19.71875, 11)" class="sprotty-hidden hidden" style="display:block;height:0px;width:0px;"/></g><g id="sprotty_ArchitectureBlockImpl$otbn_stack/AssignmentBlockImpl$stack_wr_idx" transform="translate(422.171875, 91)" class="statement"><rect x="0" y="0" rx="10" ry="5" width="19.71875" height="40" class="sprotty-node" style="fill:rgb(245, 245, 245);stroke:rgb(112, 112, 112);"/><text class="clickable sprotty-label statementtype" id="sprotty_ArchitectureBlockImpl$otbn_stack/AssignmentBlockImpl$stack_wr_idx/labeltype" transform="translate(5, 14) translate(4.71875, 9)" style="cursor:default;font-size:8px;font-weight:700;perspective-origin:0.140625px 0px;fill:rgb(112, 112, 112);text-anchor:middle;">&lt;=</text><g id="sprotty_ArchitectureBlockImpl$otbn_stack/AssignmentBlockImpl$stack_wr_idx/GPortImpl$stack_top_idxIN" transform="translate(0, 30)" class="sprotty-hidden hidden" style="display:block;height:0px;width:0px;"/><g id="sprotty_ArchitectureBlockImpl$otbn_stack/AssignmentBlockImpl$stack_wr_idx/GPortImpl$stack_rd_idxIN" transform="translate(0, 20)" class="sprotty-hidden hidden" style="display:block;height:0px;width:0px;"/><g id="sprotty_ArchitectureBlockImpl$otbn_stack/AssignmentBlockImpl$stack_wr_idx/GPortImpl$pop_iIN" transform="translate(0, 10)" class="sprotty-hidden hidden" style="display:block;height:0px;width:0px;"/></g><g id="sprotty_ArchitectureBlockImpl$otbn_stack/AssignmentBlockImpl$stack_rd_idx" transform="translate(372.453125, 100)" class="statement"><rect x="0" y="0" rx="10" ry="5" width="19.71875" height="22" class="sprotty-node" style="fill:rgb(245, 245, 245);stroke:rgb(112, 112, 112);"/><text class="clickable sprotty-label statementtype" id="sprotty_ArchitectureBlockImpl$otbn_stack/AssignmentBlockImpl$stack_rd_idx/labeltype" transform="translate(5, 5) translate(4.71875, 9)" style="cursor:default;font-size:8px;font-weight:700;perspective-origin:0.140625px 0px;fill:rgb(112, 112, 112);text-anchor:middle;">&lt;=</text><g id="sprotty_ArchitectureBlockImpl$otbn_stack/AssignmentBlockImpl$stack_rd_idx/GPortImpl$stack_top_idxIN" transform="translate(0, 11)" class="sprotty-hidden hidden" style="display:block;height:0px;width:0px;"/><g id="sprotty_ArchitectureBlockImpl$otbn_stack/AssignmentBlockImpl$stack_rd_idx/GPortImpl$stack_top_idxOUT" transform="translate(19.71875, 11)" class="sprotty-hidden hidden" style="display:block;height:0px;width:0px;"/></g><g id="sprotty_ArchitectureBlockImpl$otbn_stack/AssignmentBlockImpl$stack_top_idx" transform="translate(332.734375, 122)" class="statement"><rect x="0" y="0" rx="10" ry="5" width="19.71875" height="22" class="sprotty-node" style="fill:rgb(245, 245, 245);stroke:rgb(112, 112, 112);"/><text class="clickable sprotty-label statementtype" id="sprotty_ArchitectureBlockImpl$otbn_stack/AssignmentBlockImpl$stack_top_idx/labeltype" transform="translate(5, 5) translate(4.71875, 9)" style="cursor:default;font-size:8px;font-weight:700;perspective-origin:0.140625px 0px;fill:rgb(112, 112, 112);text-anchor:middle;">&lt;=</text><g id="sprotty_ArchitectureBlockImpl$otbn_stack/AssignmentBlockImpl$stack_top_idx/GPortImpl$stack_wr_ptr_qIN" transform="translate(0, 11)" class="sprotty-hidden hidden" style="display:block;height:0px;width:0px;"/><g id="sprotty_ArchitectureBlockImpl$otbn_stack/AssignmentBlockImpl$stack_top_idx/GPortImpl$stack_wr_ptr_qOUT" transform="translate(19.71875, 11)" class="sprotty-hidden hidden" style="display:block;height:0px;width:0px;"/></g><g id="sprotty_ArchitectureBlockImpl$otbn_stack/AssignmentBlockImpl$stack_read" transform="translate(120.375, 90)" class="statement"><rect x="0" y="0" rx="10" ry="5" width="19.71875" height="30" class="sprotty-node" style="fill:rgb(245, 245, 245);stroke:rgb(112, 112, 112);"/><text class="clickable sprotty-label statementtype" id="sprotty_ArchitectureBlockImpl$otbn_stack/AssignmentBlockImpl$stack_read/labeltype" transform="translate(5, 9) translate(4.71875, 9)" style="cursor:default;font-size:8px;font-weight:700;perspective-origin:0.140625px 0px;fill:rgb(112, 112, 112);text-anchor:middle;">&lt;=</text><g id="sprotty_ArchitectureBlockImpl$otbn_stack/AssignmentBlockImpl$stack_read/GPortImpl$pop_iIN" transform="translate(0, 20)" class="sprotty-hidden hidden" style="display:block;height:0px;width:0px;"/><g id="sprotty_ArchitectureBlockImpl$otbn_stack/AssignmentBlockImpl$stack_read/GPortImpl$top_valid_oIN" transform="translate(0, 10)" class="sprotty-hidden hidden" style="display:block;height:0px;width:0px;"/><g id="sprotty_ArchitectureBlockImpl$otbn_stack/AssignmentBlockImpl$stack_read/GPortImpl$stack_readOUT" transform="translate(19.71875, 15)" class="sprotty-hidden hidden" style="display:block;height:0px;width:0px;"/></g><g id="sprotty_ArchitectureBlockImpl$otbn_stack/AssignmentBlockImpl$stack_write" transform="translate(120.375, 216)" class="statement"><rect x="0" y="0" rx="10" ry="5" width="19.71875" height="40" class="sprotty-node" style="fill:rgb(245, 245, 245);stroke:rgb(112, 112, 112);"/><text class="clickable sprotty-label statementtype" id="sprotty_ArchitectureBlockImpl$otbn_stack/AssignmentBlockImpl$stack_write/labeltype" transform="translate(5, 14) translate(4.71875, 9)" style="cursor:default;font-size:8px;font-weight:700;perspective-origin:0.140625px 0px;fill:rgb(112, 112, 112);text-anchor:middle;">&lt;=</text><g id="sprotty_ArchitectureBlockImpl$otbn_stack/AssignmentBlockImpl$stack_write/GPortImpl$pop_iIN" transform="translate(0, 20)" class="sprotty-hidden hidden" style="display:block;height:0px;width:0px;"/><g id="sprotty_ArchitectureBlockImpl$otbn_stack/AssignmentBlockImpl$stack_write/GPortImpl$full_oIN" transform="translate(0, 10)" class="sprotty-hidden hidden" style="display:block;height:0px;width:0px;"/><g id="sprotty_ArchitectureBlockImpl$otbn_stack/AssignmentBlockImpl$stack_write/GPortImpl$push_iIN" transform="translate(0, 30)" class="sprotty-hidden hidden" style="display:block;height:0px;width:0px;"/><g id="sprotty_ArchitectureBlockImpl$otbn_stack/AssignmentBlockImpl$stack_write/GPortImpl$stack_writeOUT" transform="translate(19.71875, 20)" class="sprotty-hidden hidden" style="display:block;height:0px;width:0px;"/></g><g id="sprotty_ArchitectureBlockImpl$otbn_stack/AssignmentBlockImpl$stack_full" transform="translate(332.734375, 164)" class="statement"><rect x="0" y="0" rx="10" ry="5" width="19.71875" height="22" class="sprotty-node" style="fill:rgb(245, 245, 245);stroke:rgb(112, 112, 112);"/><text class="clickable sprotty-label statementtype" id="sprotty_ArchitectureBlockImpl$otbn_stack/AssignmentBlockImpl$stack_full/labeltype" transform="translate(5, 5) translate(4.71875, 9)" style="cursor:default;font-size:8px;font-weight:700;perspective-origin:0.140625px 0px;fill:rgb(112, 112, 112);text-anchor:middle;">&lt;=</text><g id="sprotty_ArchitectureBlockImpl$otbn_stack/AssignmentBlockImpl$stack_full/GPortImpl$stack_wr_ptr_qIN" transform="translate(0, 11)" class="sprotty-hidden hidden" style="display:block;height:0px;width:0px;"/><g id="sprotty_ArchitectureBlockImpl$otbn_stack/AssignmentBlockImpl$stack_full/GPortImpl$stack_wr_ptr_qOUT" transform="translate(19.71875, 11)" class="sprotty-hidden hidden" style="display:block;height:0px;width:0px;"/></g><g id="sprotty_ArchitectureBlockImpl$otbn_stack/AssignmentBlockImpl$stack_empty" transform="translate(332.734375, 58)" class="statement"><rect x="0" y="0" rx="10" ry="5" width="19.71875" height="22" class="sprotty-node" style="fill:rgb(245, 245, 245);stroke:rgb(112, 112, 112);"/><text class="clickable sprotty-label statementtype" id="sprotty_ArchitectureBlockImpl$otbn_stack/AssignmentBlockImpl$stack_empty/labeltype" transform="translate(5, 5) translate(4.71875, 9)" style="cursor:default;font-size:8px;font-weight:700;perspective-origin:0.140625px 0px;fill:rgb(112, 112, 112);text-anchor:middle;">&lt;=</text><g id="sprotty_ArchitectureBlockImpl$otbn_stack/AssignmentBlockImpl$stack_empty/GPortImpl$stack_wr_ptr_qIN" transform="translate(0, 11)" class="sprotty-hidden hidden" style="display:block;height:0px;width:0px;"/><g id="sprotty_ArchitectureBlockImpl$otbn_stack/AssignmentBlockImpl$stack_empty/GPortImpl$stack_wr_ptr_qOUT" transform="translate(19.71875, 11)" class="sprotty-hidden hidden" style="display:block;height:0px;width:0px;"/></g><g id="sprotty_ArchitectureBlockImpl$otbn_stack/BPortImpl$pop_i" transform="translate(0, 110)" class="triangle"><path d="M 0,0 L 5,2.5 L 0,5 Z" transform="translate(-1.67, -2.5)" class="sprotty-port" style="fill:rgb(48, 48, 48);stroke:rgb(48, 48, 48);"/><text class="clickable sprotty-label port" id="sprotty_ArchitectureBlockImpl$otbn_stack/BPortImpl$pop_i/label" transform="translate(6, 6) translate(16.09375, 14)" style="cursor:default;font-size:12px;perspective-origin:0px 0px;fill:rgb(48, 48, 48);text-anchor:middle;">pop_i</text></g><g id="sprotty_ArchitectureBlockImpl$otbn_stack/BPortImpl$push_data_i" transform="translate(0, 348)" class="triangle"><path d="M 0,0 L 5,2.5 L 0,5 Z" transform="translate(-1.67, -2.5)" class="sprotty-port" style="fill:rgb(48, 48, 48);stroke:rgb(48, 48, 48);"/><text class="clickable sprotty-label port" id="sprotty_ArchitectureBlockImpl$otbn_stack/BPortImpl$push_data_i/label" transform="translate(6, 6) translate(34.6875, 14)" style="cursor:default;font-size:12px;perspective-origin:0px 0px;fill:rgb(48, 48, 48);text-anchor:middle;">push_data_i</text></g><g id="sprotty_ArchitectureBlockImpl$otbn_stack/BPortImpl$push_i" transform="translate(0, 246)" class="triangle"><path d="M 0,0 L 5,2.5 L 0,5 Z" transform="translate(-1.67, -2.5)" class="sprotty-port" style="fill:rgb(48, 48, 48);stroke:rgb(48, 48, 48);"/><text class="clickable sprotty-label port" id="sprotty_ArchitectureBlockImpl$otbn_stack/BPortImpl$push_i/label" transform="translate(6, 6) translate(18.828125, 14)" style="cursor:default;font-size:12px;perspective-origin:0px 0px;fill:rgb(48, 48, 48);text-anchor:middle;">push_i</text></g><g id="sprotty_ArchitectureBlockImpl$otbn_stack/BPortImpl$rst_ni" transform="translate(0, 314)" class="triangle"><path d="M 0,0 L 5,2.5 L 0,5 Z" transform="translate(-1.67, -2.5)" class="sprotty-port" style="fill:rgb(48, 48, 48);stroke:rgb(48, 48, 48);"/><text class="clickable sprotty-label port" id="sprotty_ArchitectureBlockImpl$otbn_stack/BPortImpl$rst_ni/label" transform="translate(6, 6) translate(15.921875, 14)" style="cursor:default;font-size:12px;perspective-origin:0px 0px;fill:rgb(48, 48, 48);text-anchor:middle;">rst_ni</text></g><g id="sprotty_ArchitectureBlockImpl$otbn_stack/BPortImpl$clk_i" transform="translate(0, 280)" class="triangle"><path d="M 0,0 L 5,2.5 L 0,5 Z" transform="translate(-1.67, -2.5)" class="sprotty-port" style="fill:rgb(48, 48, 48);stroke:rgb(48, 48, 48);"/><text class="clickable sprotty-label port" id="sprotty_ArchitectureBlockImpl$otbn_stack/BPortImpl$clk_i/label" transform="translate(6, 6) translate(13.09375, 14)" style="cursor:default;font-size:12px;perspective-origin:0px 0px;fill:rgb(48, 48, 48);text-anchor:middle;">clk_i</text></g><g id="sprotty_ArchitectureBlockImpl$otbn_stack/BPortImpl$full_o" transform="translate(529.578125, 206)" class="triangle"><path d="M 0,0 L 5,2.5 L 0,5 Z" transform="translate(-1.67, -2.5)" class="sprotty-port" style="fill:rgb(48, 48, 48);stroke:rgb(48, 48, 48);"/><text class="clickable sprotty-label port" id="sprotty_ArchitectureBlockImpl$otbn_stack/BPortImpl$full_o/label" transform="translate(-38.03125, 6) translate(16.015625, 14)" style="cursor:default;font-size:12px;perspective-origin:0px 0px;fill:rgb(48, 48, 48);text-anchor:middle;">full_o</text></g><g id="sprotty_ArchitectureBlockImpl$otbn_stack/BPortImpl$top_data_o" transform="translate(529.578125, 280)" class="triangle"><path d="M 0,0 L 5,2.5 L 0,5 Z" transform="translate(-1.67, -2.5)" class="sprotty-port" style="fill:rgb(48, 48, 48);stroke:rgb(48, 48, 48);"/><text class="clickable sprotty-label port" id="sprotty_ArchitectureBlockImpl$otbn_stack/BPortImpl$top_data_o/label" transform="translate(-70.78125, 6) translate(32.390625, 14)" style="cursor:default;font-size:12px;perspective-origin:0px 0px;fill:rgb(48, 48, 48);text-anchor:middle;">top_data_o</text></g><g id="sprotty_ArchitectureBlockImpl$otbn_stack/BPortImpl$top_valid_o" transform="translate(529.578125, 69)" class="triangle"><path d="M 0,0 L 5,2.5 L 0,5 Z" transform="translate(-1.67, -2.5)" class="sprotty-port" style="fill:rgb(48, 48, 48);stroke:rgb(48, 48, 48);"/><text class="clickable sprotty-label port" id="sprotty_ArchitectureBlockImpl$otbn_stack/BPortImpl$top_valid_o/label" transform="translate(-72.6875, 6) translate(33.34375, 14)" style="cursor:default;font-size:12px;perspective-origin:0px 0px;fill:rgb(48, 48, 48);text-anchor:middle;">top_valid_o</text></g></g></g></svg>