<svg xmlns="http://www.w3.org/2000/svg" id="sprotty_work.prim_rom" class="sprotty-graph sprotty-block-diagram blockdiagram" style="font-family:&quot;Noto Sans&quot;, Helvetica, Arial, sans-serif;perspective-origin:0px 0px;transform-origin:0px 0px;" version="1.1" viewBox="7 7 471 202" width="471" height="202"><g transform="scale(1) translate(0,0)"><g id="sprotty_ArchitectureBlockImpl$prim_rom" transform="translate(12, 12)" class="architecture"><g class="sprotty-block" style="fill:rgb(255, 255, 255);stroke:rgb(48, 48, 48);stroke-dasharray:0px;"><rect x="0" y="0" rx="1" ry="1" width="461" height="192"/><text x="230.5" y="12" class="sprotty-block-name" style="cursor:pointer;font-weight:700;perspective-origin:230.5px 0px;fill:rgb(48, 48, 48);stroke:rgba(0, 0, 0, 0);dominant-baseline:middle;text-anchor:middle;">prim_rom</text><line x1="0" y1="20" x2="461" y2="20"/></g><g id="sprotty_ArchitectureBlockImpl$prim_rom/GenerateStatementBlockImpl$null4/GPortImpl$rdata_o_to_ArchitectureBlockImpl$prim_rom/BPortImpl$rdata_o" class="sprotty-edge thick edge" style="fill:none;stroke:rgb(112, 112, 112);stroke-linejoin:round;stroke-width:3px;"><g><path d="M 396.4375 116 L 461 116 "/><path d="M 396.4375 116 L 461 116 " class="clickable"/></g></g><g id="sprotty_ArchitectureBlockImpl$prim_rom/BPortImpl$clk_i_to_ArchitectureBlockImpl$prim_rom/GenerateStatementBlockImpl$null4/GPortImpl$clk_i" class="sprotty-edge edge" style="fill:none;stroke:rgb(112, 112, 112);stroke-linejoin:round;"><g><path d="M 0 82 L 65.3125 82 C 66.3125 82 67.3125 83 67.3125 84 L 67.3125 86 C 67.3125 87 68.3125 88 69.3125 88 L 77.3125 88 "/><path d="M 0 82 L 65.3125 82 C 66.3125 82 67.3125 83 67.3125 84 L 67.3125 86 C 67.3125 87 68.3125 88 69.3125 88 L 77.3125 88 " class="clickable"/></g></g><g id="sprotty_ArchitectureBlockImpl$prim_rom/BPortImpl$req_i_to_ArchitectureBlockImpl$prim_rom/GenerateStatementBlockImpl$null4/GPortImpl$req_i" class="sprotty-edge edge" style="fill:none;stroke:rgb(112, 112, 112);stroke-linejoin:round;"><g><path d="M 0 116 L 77.3125 116 "/><path d="M 0 116 L 77.3125 116 " class="clickable"/></g></g><g id="sprotty_ArchitectureBlockImpl$prim_rom/BPortImpl$addr_i_to_ArchitectureBlockImpl$prim_rom/GenerateStatementBlockImpl$null4/GPortImpl$addr_i" class="sprotty-edge thick edge" style="fill:none;stroke:rgb(112, 112, 112);stroke-linejoin:round;stroke-width:3px;"><g><path d="M 0 150 L 65.3125 150 C 66.3125 150 67.3125 149 67.3125 148 L 67.3125 146 C 67.3125 145 68.3125 144 69.3125 144 L 77.3125 144 "/><path d="M 0 150 L 65.3125 150 C 66.3125 150 67.3125 149 67.3125 148 L 67.3125 146 C 67.3125 145 68.3125 144 69.3125 144 L 77.3125 144 " class="clickable"/></g></g><g id="sprotty_ArchitectureBlockImpl$prim_rom/GenerateStatementBlockImpl$null4" transform="translate(77.3125, 35)" class="generate"><g class="sprotty-block sprotty-block-generate" style="fill:rgb(255, 255, 255);stroke:rgb(48, 48, 48);stroke-dasharray:0px;"><rect x="0" y="0" rx="1" ry="1" width="319.125" height="142" style="stroke-dasharray:3px, 1px;"/><text x="159.5625" y="12" class="sprotty-block-name" style="cursor:pointer;font-weight:700;fill:rgb(48, 48, 48);stroke:rgba(0, 0, 0, 0);dominant-baseline:middle;text-anchor:middle;"/>undefined</g><g id="sprotty_ArchitectureBlockImpl$prim_rom/GenerateStatementBlockImpl$null4/InstantiationBlockImpl$u_impl_generic/BPortImpl$rdata_o_to_ArchitectureBlockImpl$prim_rom/GenerateStatementBlockImpl$null4/GPortImpl$rdata_o" class="sprotty-edge thick edge" style="fill:none;stroke:rgb(112, 112, 112);stroke-linejoin:round;stroke-width:3px;"><g><path d="M 304.125 81 L 319.125 81 "/><path d="M 304.125 81 L 319.125 81 " class="clickable"/></g></g><g id="sprotty_ArchitectureBlockImpl$prim_rom/GenerateStatementBlockImpl$null4/GPortImpl$clk_i_to_ArchitectureBlockImpl$prim_rom/GenerateStatementBlockImpl$null4/InstantiationBlockImpl$u_impl_generic/BPortImpl$clk_i" class="sprotty-edge edge" style="fill:none;stroke:rgb(112, 112, 112);stroke-linejoin:round;"><g><path d="M 0 53 L 15 53 "/><path d="M 0 53 L 15 53 " class="clickable"/></g></g><g id="sprotty_ArchitectureBlockImpl$prim_rom/GenerateStatementBlockImpl$null4/GPortImpl$req_i_to_ArchitectureBlockImpl$prim_rom/GenerateStatementBlockImpl$null4/InstantiationBlockImpl$u_impl_generic/BPortImpl$req_i" class="sprotty-edge edge" style="fill:none;stroke:rgb(112, 112, 112);stroke-linejoin:round;"><g><path d="M 0 81 L 15 81 "/><path d="M 0 81 L 15 81 " class="clickable"/></g></g><g id="sprotty_ArchitectureBlockImpl$prim_rom/GenerateStatementBlockImpl$null4/GPortImpl$addr_i_to_ArchitectureBlockImpl$prim_rom/GenerateStatementBlockImpl$null4/InstantiationBlockImpl$u_impl_generic/BPortImpl$addr_i" class="sprotty-edge thick edge" style="fill:none;stroke:rgb(112, 112, 112);stroke-linejoin:round;stroke-width:3px;"><g><path d="M 0 109 L 15 109 "/><path d="M 0 109 L 15 109 " class="clickable"/></g></g><g id="sprotty_ArchitectureBlockImpl$prim_rom/GenerateStatementBlockImpl$null4/InstantiationBlockImpl$u_impl_generic" transform="translate(15, 15)" class="instantiation"><g class="sprotty-block" style="fill:rgb(255, 255, 255);stroke:rgb(48, 48, 48);stroke-dasharray:0px;"><rect x="0" y="0" rx="1" ry="1" width="289.125" height="112"/><text x="144.5625" y="12" class="sprotty-block-name" style="cursor:pointer;font-weight:700;perspective-origin:144.562px 0px;fill:rgb(48, 48, 48);stroke:rgba(0, 0, 0, 0);dominant-baseline:middle;text-anchor:middle;">u_impl_generic : prim_generic_rom</text><line x1="0" y1="20" x2="289.125" y2="20"/></g><g id="sprotty_ArchitectureBlockImpl$prim_rom/GenerateStatementBlockImpl$null4/InstantiationBlockImpl$u_impl_generic/BPortImpl$addr_i" transform="translate(0, 94)" class="triangle"><path d="M 0,0 L 5,2.5 L 0,5 Z" transform="translate(-1.67, -2.5)" class="sprotty-port" style="fill:rgb(48, 48, 48);stroke:rgb(48, 48, 48);"/><text class="clickable sprotty-label port" id="sprotty_ArchitectureBlockImpl$prim_rom/GenerateStatementBlockImpl$null4/InstantiationBlockImpl$u_impl_generic/BPortImpl$addr_i/label" transform="translate(6, -9) translate(18.15625, 14)" style="cursor:default;font-size:12px;perspective-origin:0px 0px;fill:rgb(48, 48, 48);text-anchor:middle;">addr_i</text></g><g id="sprotty_ArchitectureBlockImpl$prim_rom/GenerateStatementBlockImpl$null4/InstantiationBlockImpl$u_impl_generic/BPortImpl$req_i" transform="translate(0, 66)" class="triangle"><path d="M 0,0 L 5,2.5 L 0,5 Z" transform="translate(-1.67, -2.5)" class="sprotty-port" style="fill:rgb(48, 48, 48);stroke:rgb(48, 48, 48);"/><text class="clickable sprotty-label port" id="sprotty_ArchitectureBlockImpl$prim_rom/GenerateStatementBlockImpl$null4/InstantiationBlockImpl$u_impl_generic/BPortImpl$req_i/label" transform="translate(6, -9) translate(14.3125, 14)" style="cursor:default;font-size:12px;perspective-origin:0px 0px;fill:rgb(48, 48, 48);text-anchor:middle;">req_i</text></g><g id="sprotty_ArchitectureBlockImpl$prim_rom/GenerateStatementBlockImpl$null4/InstantiationBlockImpl$u_impl_generic/BPortImpl$clk_i" transform="translate(0, 38)" class="triangle"><path d="M 0,0 L 5,2.5 L 0,5 Z" transform="translate(-1.67, -2.5)" class="sprotty-port" style="fill:rgb(48, 48, 48);stroke:rgb(48, 48, 48);"/><text class="clickable sprotty-label port" id="sprotty_ArchitectureBlockImpl$prim_rom/GenerateStatementBlockImpl$null4/InstantiationBlockImpl$u_impl_generic/BPortImpl$clk_i/label" transform="translate(6, -9) translate(13.09375, 14)" style="cursor:default;font-size:12px;perspective-origin:0px 0px;fill:rgb(48, 48, 48);text-anchor:middle;">clk_i</text></g><g id="sprotty_ArchitectureBlockImpl$prim_rom/GenerateStatementBlockImpl$null4/InstantiationBlockImpl$u_impl_generic/BPortImpl$rdata_o" transform="translate(289.125, 66)" class="triangle"><path d="M 0,0 L 5,2.5 L 0,5 Z" transform="translate(-1.67, -2.5)" class="sprotty-port" style="fill:rgb(48, 48, 48);stroke:rgb(48, 48, 48);"/><text class="clickable sprotty-label port" id="sprotty_ArchitectureBlockImpl$prim_rom/GenerateStatementBlockImpl$null4/InstantiationBlockImpl$u_impl_generic/BPortImpl$rdata_o/label" transform="translate(-49.5625, -9) translate(21.78125, 14)" style="cursor:default;font-size:12px;perspective-origin:0px 0px;fill:rgb(48, 48, 48);text-anchor:middle;">rdata_o</text></g></g><g id="sprotty_ArchitectureBlockImpl$prim_rom/GenerateStatementBlockImpl$null4/GPortImpl$addr_i" transform="translate(0, 109)" class="triangle"><path d="M 0,0 L 5,2.5 L 0,5 Z" transform="translate(-1.67, -2.5)" class="sprotty-port" style="fill:rgb(48, 48, 48);stroke:rgb(48, 48, 48);"/></g><g id="sprotty_ArchitectureBlockImpl$prim_rom/GenerateStatementBlockImpl$null4/GPortImpl$req_i" transform="translate(0, 81)" class="triangle"><path d="M 0,0 L 5,2.5 L 0,5 Z" transform="translate(-1.67, -2.5)" class="sprotty-port" style="fill:rgb(48, 48, 48);stroke:rgb(48, 48, 48);"/></g><g id="sprotty_ArchitectureBlockImpl$prim_rom/GenerateStatementBlockImpl$null4/GPortImpl$clk_i" transform="translate(0, 53)" class="triangle"><path d="M 0,0 L 5,2.5 L 0,5 Z" transform="translate(-1.67, -2.5)" class="sprotty-port" style="fill:rgb(48, 48, 48);stroke:rgb(48, 48, 48);"/></g><g id="sprotty_ArchitectureBlockImpl$prim_rom/GenerateStatementBlockImpl$null4/GPortImpl$rdata_o" transform="translate(319.125, 81)" class="triangle"><path d="M 0,0 L 5,2.5 L 0,5 Z" transform="translate(-1.67, -2.5)" class="sprotty-port" style="fill:rgb(48, 48, 48);stroke:rgb(48, 48, 48);"/></g></g><g id="sprotty_ArchitectureBlockImpl$prim_rom/BPortImpl$addr_i" transform="translate(0, 150)" class="triangle"><path d="M 0,0 L 5,2.5 L 0,5 Z" transform="translate(-1.67, -2.5)" class="sprotty-port" style="fill:rgb(48, 48, 48);stroke:rgb(48, 48, 48);"/><text class="clickable sprotty-label port" id="sprotty_ArchitectureBlockImpl$prim_rom/BPortImpl$addr_i/label" transform="translate(6, 6) translate(18.15625, 14)" style="cursor:default;font-size:12px;perspective-origin:0px 0px;fill:rgb(48, 48, 48);text-anchor:middle;">addr_i</text></g><g id="sprotty_ArchitectureBlockImpl$prim_rom/BPortImpl$req_i" transform="translate(0, 116)" class="triangle"><path d="M 0,0 L 5,2.5 L 0,5 Z" transform="translate(-1.67, -2.5)" class="sprotty-port" style="fill:rgb(48, 48, 48);stroke:rgb(48, 48, 48);"/><text class="clickable sprotty-label port" id="sprotty_ArchitectureBlockImpl$prim_rom/BPortImpl$req_i/label" transform="translate(6, 6) translate(14.3125, 14)" style="cursor:default;font-size:12px;perspective-origin:0px 0px;fill:rgb(48, 48, 48);text-anchor:middle;">req_i</text></g><g id="sprotty_ArchitectureBlockImpl$prim_rom/BPortImpl$clk_i" transform="translate(0, 82)" class="triangle"><path d="M 0,0 L 5,2.5 L 0,5 Z" transform="translate(-1.67, -2.5)" class="sprotty-port" style="fill:rgb(48, 48, 48);stroke:rgb(48, 48, 48);"/><text class="clickable sprotty-label port" id="sprotty_ArchitectureBlockImpl$prim_rom/BPortImpl$clk_i/label" transform="translate(6, 6) translate(13.09375, 14)" style="cursor:default;font-size:12px;perspective-origin:0px 0px;fill:rgb(48, 48, 48);text-anchor:middle;">clk_i</text></g><g id="sprotty_ArchitectureBlockImpl$prim_rom/BPortImpl$rdata_o" transform="translate(461, 116)" class="triangle"><path d="M 0,0 L 5,2.5 L 0,5 Z" transform="translate(-1.67, -2.5)" class="sprotty-port" style="fill:rgb(48, 48, 48);stroke:rgb(48, 48, 48);"/><text class="clickable sprotty-label port" id="sprotty_ArchitectureBlockImpl$prim_rom/BPortImpl$rdata_o/label" transform="translate(-49.5625, 6) translate(21.78125, 14)" style="cursor:default;font-size:12px;perspective-origin:0px 0px;fill:rgb(48, 48, 48);text-anchor:middle;">rdata_o</text></g></g></g></svg>