<svg xmlns="http://www.w3.org/2000/svg" id="sprotty_work.aes_reg_status" class="sprotty-graph sprotty-block-diagram blockdiagram" style="font-family:&quot;Noto Sans&quot;, Helvetica, Arial, sans-serif;perspective-origin:0px 0px;transform-origin:0px 0px;" version="1.1" viewBox="7 7 557.9375 447" width="557.9375" height="447"><g transform="scale(1) translate(0,0)"><g id="sprotty_ArchitectureBlockImpl$aes_reg_status" transform="translate(12, 12)" class="architecture"><g class="sprotty-block" style="fill:rgb(255, 255, 255);stroke:rgb(48, 48, 48);stroke-dasharray:0px;"><rect x="0" y="0" rx="1" ry="1" width="547.9375" height="437"/><text x="273.96875" y="12" class="sprotty-block-name" style="cursor:pointer;font-weight:700;perspective-origin:274px 0px;fill:rgb(48, 48, 48);stroke:rgba(0, 0, 0, 0);dominant-baseline:middle;text-anchor:middle;">aes_reg_status</text><line x1="0" y1="20" x2="547.9375" y2="20"/></g><g id="sprotty_ArchitectureBlockImpl$aes_reg_status/AssignmentBlockImpl$new_o/GPortImpl$new_oOUT_to_ArchitectureBlockImpl$aes_reg_status/BPortImpl$new_o" class="sprotty-edge edge" style="fill:none;stroke:rgb(112, 112, 112);stroke-linejoin:round;"><g><path d="M 462.84375 284.33333333333337 L 547.9375 284.33333333333337 "/><path d="M 462.84375 284.33333333333337 L 547.9375 284.33333333333337 " class="clickable"/></g></g><g id="sprotty_ArchitectureBlockImpl$aes_reg_status/AssignmentBlockImpl$clean_o/GPortImpl$clean_oOUT_to_ArchitectureBlockImpl$aes_reg_status/BPortImpl$clean_o" class="sprotty-edge edge" style="fill:none;stroke:rgb(112, 112, 112);stroke-linejoin:round;"><g><path d="M 462.84375 242.33333333333334 L 547.9375 242.33333333333334 "/><path d="M 462.84375 242.33333333333334 L 547.9375 242.33333333333334 " class="clickable"/></g></g><g id="sprotty_ArchitectureBlockImpl$aes_reg_status/BPortImpl$clear_i_to_ArchitectureBlockImpl$aes_reg_status/AssignmentBlockImpl$we_d/GPortImpl$clear_iIN" class="sprotty-edge edge" style="fill:none;stroke:rgb(112, 112, 112);stroke-linejoin:round;"><g><path d="M 0 36 L 86.4375 36 C 87.4375 36 88.4375 37 88.4375 38 L 88.4375 148 C 88.4375 149 89.4375 150 90.4375 150 L 108.4375 150 "/><path d="M 0 36 L 86.4375 36 C 87.4375 36 88.4375 37 88.4375 38 L 88.4375 148 C 88.4375 149 89.4375 150 90.4375 150 L 108.4375 150 " class="clickable"/></g><circle r="2" id="sprotty_ArchitectureBlockImpl$aes_reg_status/BPortImpl$clear_i_to_ArchitectureBlockImpl$aes_reg_status/AssignmentBlockImpl$we_d/GPortImpl$clear_iIN/junction0" transform="translate(88.4375, 36)" class="sprotty-junction junction" style="fill:rgb(112, 112, 112);stroke:none;"/><circle r="2" id="sprotty_ArchitectureBlockImpl$aes_reg_status/BPortImpl$clear_i_to_ArchitectureBlockImpl$aes_reg_status/AssignmentBlockImpl$we_d/GPortImpl$clear_iIN/junction1" transform="translate(88.4375, 150)" class="sprotty-junction junction" style="fill:rgb(112, 112, 112);stroke:none;"/></g><g id="sprotty_ArchitectureBlockImpl$aes_reg_status/BPortImpl$use_i_to_ArchitectureBlockImpl$aes_reg_status/AssignmentBlockImpl$we_d/GPortImpl$use_iIN" class="sprotty-edge edge" style="fill:none;stroke:rgb(112, 112, 112);stroke-linejoin:round;"><g><path d="M 0 160 L 108.4375 160 "/><path d="M 0 160 L 108.4375 160 " class="clickable"/></g></g><g id="sprotty_ArchitectureBlockImpl$aes_reg_status/BPortImpl$we_i_to_ArchitectureBlockImpl$aes_reg_status/AssignmentBlockImpl$we_d/GPortImpl$we_iIN" class="sprotty-edge thick edge" style="fill:none;stroke:rgb(112, 112, 112);stroke-linejoin:round;stroke-width:3px;"><g><path d="M 0 330 L 76.4375 330 C 77.4375 330 78.4375 329 78.4375 328 L 78.4375 172 C 78.4375 171 79.4375 170 80.4375 170 L 108.4375 170 "/><path d="M 0 330 L 76.4375 330 C 77.4375 330 78.4375 329 78.4375 328 L 78.4375 172 C 78.4375 171 79.4375 170 80.4375 170 L 108.4375 170 " class="clickable"/></g><circle r="3" id="sprotty_ArchitectureBlockImpl$aes_reg_status/BPortImpl$we_i_to_ArchitectureBlockImpl$aes_reg_status/AssignmentBlockImpl$we_d/GPortImpl$we_iIN/junction0" transform="translate(78.4375, 330)" class="sprotty-junction thick" style="fill:rgb(112, 112, 112);stroke:none;"/></g><g id="sprotty_ArchitectureBlockImpl$aes_reg_status/BPortImpl$clear_i_to_ArchitectureBlockImpl$aes_reg_status/AssignmentBlockImpl$armed_d/GPortImpl$clear_iIN" class="sprotty-edge edge" style="fill:none;stroke:rgb(112, 112, 112);stroke-linejoin:round;"><g><path d="M 0 36 L 86.4375 36 C 87.4375 36 88.4375 37 88.4375 38 L 88.4375 308 C 88.4375 309 89.4375 310 90.4375 310 L 108.4375 310 "/><path d="M 0 36 L 86.4375 36 C 87.4375 36 88.4375 37 88.4375 38 L 88.4375 308 C 88.4375 309 89.4375 310 90.4375 310 L 108.4375 310 " class="clickable"/></g></g><g id="sprotty_ArchitectureBlockImpl$aes_reg_status/BPortImpl$use_i_to_ArchitectureBlockImpl$aes_reg_status/AssignmentBlockImpl$armed_d/GPortImpl$use_iIN" class="sprotty-edge edge" style="fill:none;stroke:rgb(112, 112, 112);stroke-linejoin:round;"><g><path d="M 0 160 L 66.4375 160 C 67.4375 160 68.4375 161 68.4375 162 L 68.4375 318 C 68.4375 319 69.4375 320 70.4375 320 L 108.4375 320 "/><path d="M 0 160 L 66.4375 160 C 67.4375 160 68.4375 161 68.4375 162 L 68.4375 318 C 68.4375 319 69.4375 320 70.4375 320 L 108.4375 320 " class="clickable"/></g><circle r="2" id="sprotty_ArchitectureBlockImpl$aes_reg_status/BPortImpl$use_i_to_ArchitectureBlockImpl$aes_reg_status/AssignmentBlockImpl$armed_d/GPortImpl$use_iIN/junction0" transform="translate(68.4375, 160)" class="sprotty-junction junction" style="fill:rgb(112, 112, 112);stroke:none;"/></g><g id="sprotty_ArchitectureBlockImpl$aes_reg_status/BPortImpl$we_i_to_ArchitectureBlockImpl$aes_reg_status/AssignmentBlockImpl$armed_d/GPortImpl$we_iIN" class="sprotty-edge thick edge" style="fill:none;stroke:rgb(112, 112, 112);stroke-linejoin:round;stroke-width:3px;"><g><path d="M 0 330 L 108.4375 330 "/><path d="M 0 330 L 108.4375 330 " class="clickable"/></g></g><g id="sprotty_ArchitectureBlockImpl$aes_reg_status/BPortImpl$arm_i_to_ArchitectureBlockImpl$aes_reg_status/AssignmentBlockImpl$armed_d/GPortImpl$arm_iIN" class="sprotty-edge edge" style="fill:none;stroke:rgb(112, 112, 112);stroke-linejoin:round;"><g><path d="M 0 364 L 66.4375 364 C 67.4375 364 68.4375 363 68.4375 362 L 68.4375 342 C 68.4375 341 69.4375 340 70.4375 340 L 108.4375 340 "/><path d="M 0 364 L 66.4375 364 C 67.4375 364 68.4375 363 68.4375 362 L 68.4375 342 C 68.4375 341 69.4375 340 70.4375 340 L 108.4375 340 " class="clickable"/></g></g><g id="sprotty_ArchitectureBlockImpl$aes_reg_status/BPortImpl$clear_i_to_ArchitectureBlockImpl$aes_reg_status/AssignmentBlockImpl$new_d/GPortImpl$clear_iIN" class="sprotty-edge edge" style="fill:none;stroke:rgb(112, 112, 112);stroke-linejoin:round;"><g><path d="M 0 36 L 248.921875 36 C 249.921875 36 250.921875 37 250.921875 38 L 250.921875 56 C 250.921875 57 251.921875 58 252.921875 58 L 270.921875 58 "/><path d="M 0 36 L 248.921875 36 C 249.921875 36 250.921875 37 250.921875 38 L 250.921875 56 C 250.921875 57 251.921875 58 252.921875 58 L 270.921875 58 " class="clickable"/></g><circle r="2" id="sprotty_ArchitectureBlockImpl$aes_reg_status/BPortImpl$clear_i_to_ArchitectureBlockImpl$aes_reg_status/AssignmentBlockImpl$new_d/GPortImpl$clear_iIN/junction0" transform="translate(250.921875, 36)" class="sprotty-junction junction" style="fill:rgb(112, 112, 112);stroke:none;"/></g><g id="sprotty_ArchitectureBlockImpl$aes_reg_status/BPortImpl$use_i_to_ArchitectureBlockImpl$aes_reg_status/AssignmentBlockImpl$new_d/GPortImpl$use_iIN" class="sprotty-edge edge" style="fill:none;stroke:rgb(112, 112, 112);stroke-linejoin:round;"><g><path d="M 0 160 L 66.4375 160 C 67.4375 160 68.4375 159 68.4375 158 L 68.4375 70 C 68.4375 69 69.4375 68 70.4375 68 L 270.921875 68 "/><path d="M 0 160 L 66.4375 160 C 67.4375 160 68.4375 159 68.4375 158 L 68.4375 70 C 68.4375 69 69.4375 68 70.4375 68 L 270.921875 68 " class="clickable"/></g></g><g id="sprotty_ArchitectureBlockImpl$aes_reg_status/BPortImpl$clear_i_to_ArchitectureBlockImpl$aes_reg_status/AssignmentBlockImpl$clean_d/GPortImpl$clear_iIN" class="sprotty-edge edge" style="fill:none;stroke:rgb(112, 112, 112);stroke-linejoin:round;"><g><path d="M 0 36 L 431.125 36 C 432.125 36 433.125 37 433.125 38 L 433.125 138 C 433.125 139 434.125 140 435.125 140 L 443.125 140 "/><path d="M 0 36 L 431.125 36 C 432.125 36 433.125 37 433.125 38 L 433.125 138 C 433.125 139 434.125 140 435.125 140 L 443.125 140 " class="clickable"/></g></g><g id="sprotty_ArchitectureBlockImpl$aes_reg_status/BPortImpl$clk_i_to_ArchitectureBlockImpl$aes_reg_status/AlwaysBlockImpl$reg_ops/GPortImpl$clk_iIN" class="sprotty-edge edge" style="fill:none;stroke:rgb(112, 112, 112);stroke-linejoin:round;"><g><path d="M 0 398 L 156.15625 398 C 157.15625 398 158.15625 397 158.15625 396 L 158.15625 252 C 158.15625 251 159.15625 250 160.15625 250 L 168.15625 250 "/><path d="M 0 398 L 156.15625 398 C 157.15625 398 158.15625 397 158.15625 396 L 158.15625 252 C 158.15625 251 159.15625 250 160.15625 250 L 168.15625 250 " class="clickable"/></g><circle r="2" id="sprotty_ArchitectureBlockImpl$aes_reg_status/BPortImpl$clk_i_to_ArchitectureBlockImpl$aes_reg_status/AlwaysBlockImpl$reg_ops/GPortImpl$clk_iIN/junction0" transform="translate(158.15625, 398)" class="sprotty-junction junction" style="fill:rgb(112, 112, 112);stroke:none;"/></g><g id="sprotty_ArchitectureBlockImpl$aes_reg_status/BPortImpl$rst_ni_to_ArchitectureBlockImpl$aes_reg_status/AlwaysBlockImpl$reg_ops/GPortImpl$rst_niIN" class="sprotty-edge edge" style="fill:none;stroke:rgb(112, 112, 112);stroke-linejoin:round;"><g><path d="M 0 271 L 136.15625 271 C 137.15625 271 138.15625 270 138.15625 269 L 138.15625 232 C 138.15625 231 139.15625 230 140.15625 230 L 168.15625 230 "/><path d="M 0 271 L 136.15625 271 C 137.15625 271 138.15625 270 138.15625 269 L 138.15625 232 C 138.15625 231 139.15625 230 140.15625 230 L 168.15625 230 " class="clickable"/></g><circle r="2" id="sprotty_ArchitectureBlockImpl$aes_reg_status/BPortImpl$rst_ni_to_ArchitectureBlockImpl$aes_reg_status/AlwaysBlockImpl$reg_ops/GPortImpl$rst_niIN/junction0" transform="translate(138.15625, 271)" class="sprotty-junction junction" style="fill:rgb(112, 112, 112);stroke:none;"/></g><g id="sprotty_ArchitectureBlockImpl$aes_reg_status/BPortImpl$clk_i_to_ArchitectureBlockImpl$aes_reg_status/AlwaysBlockImpl$reg_status/GPortImpl$clk_iIN" class="sprotty-edge edge" style="fill:none;stroke:rgb(112, 112, 112);stroke-linejoin:round;"><g><path d="M 0 398 L 298.640625 398 C 299.640625 398 300.640625 397 300.640625 396 L 300.640625 283 C 300.640625 282 301.640625 281 302.640625 281 L 320.640625 281 "/><path d="M 0 398 L 298.640625 398 C 299.640625 398 300.640625 397 300.640625 396 L 300.640625 283 C 300.640625 282 301.640625 281 302.640625 281 L 320.640625 281 " class="clickable"/></g></g><g id="sprotty_ArchitectureBlockImpl$aes_reg_status/BPortImpl$rst_ni_to_ArchitectureBlockImpl$aes_reg_status/AlwaysBlockImpl$reg_status/GPortImpl$rst_niIN" class="sprotty-edge edge" style="fill:none;stroke:rgb(112, 112, 112);stroke-linejoin:round;"><g><path d="M 0 271 L 320.640625 271 "/><path d="M 0 271 L 320.640625 271 " class="clickable"/></g></g><g id="sprotty_ArchitectureBlockImpl$aes_reg_status/AssignmentBlockImpl$we_d/GPortImpl$we_dOUT_to_ArchitectureBlockImpl$aes_reg_status/AssignmentBlockImpl$all_written/GPortImpl$we_dIN" class="sprotty-edge thick edge" style="fill:none;stroke:rgb(112, 112, 112);stroke-linejoin:round;stroke-width:3px;"><g><path d="M 128.15625 160 L 136.15625 160 C 137.15625 160 138.15625 159 138.15625 158 L 138.15625 101 C 138.15625 100 139.15625 99 140.15625 99 L 194.6796875 99 "/><path d="M 128.15625 160 L 136.15625 160 C 137.15625 160 138.15625 159 138.15625 158 L 138.15625 101 C 138.15625 100 139.15625 99 140.15625 99 L 194.6796875 99 " class="clickable"/></g><circle r="3" id="sprotty_ArchitectureBlockImpl$aes_reg_status/AssignmentBlockImpl$we_d/GPortImpl$we_dOUT_to_ArchitectureBlockImpl$aes_reg_status/AssignmentBlockImpl$all_written/GPortImpl$we_dIN/junction0" transform="translate(138.15625, 160)" class="sprotty-junction thick" style="fill:rgb(112, 112, 112);stroke:none;"/></g><g id="sprotty_ArchitectureBlockImpl$aes_reg_status/AssignmentBlockImpl$we_d/GPortImpl$we_dOUT_to_ArchitectureBlockImpl$aes_reg_status/AssignmentBlockImpl$none_written/GPortImpl$we_dIN" class="sprotty-edge thick edge" style="fill:none;stroke:rgb(112, 112, 112);stroke-linejoin:round;stroke-width:3px;"><g><path d="M 128.15625 160 L 270.921875 160 "/><path d="M 128.15625 160 L 270.921875 160 " class="clickable"/></g></g><g id="sprotty_ArchitectureBlockImpl$aes_reg_status/AssignmentBlockImpl$we_d/GPortImpl$we_dOUT_to_ArchitectureBlockImpl$aes_reg_status/AlwaysBlockImpl$reg_ops/GPortImpl$we_dIN" class="sprotty-edge thick edge" style="fill:none;stroke:rgb(112, 112, 112);stroke-linejoin:round;stroke-width:3px;"><g><path d="M 128.15625 160 L 136.15625 160 C 137.15625 160 138.15625 161 138.15625 162 L 138.15625 218 C 138.15625 219 139.15625 220 140.15625 220 L 168.15625 220 "/><path d="M 128.15625 160 L 136.15625 160 C 137.15625 160 138.15625 161 138.15625 162 L 138.15625 218 C 138.15625 219 139.15625 220 140.15625 220 L 168.15625 220 " class="clickable"/></g></g><g id="sprotty_ArchitectureBlockImpl$aes_reg_status/AlwaysBlockImpl$reg_ops/GPortImpl$we_qOUT_to_ArchitectureBlockImpl$aes_reg_status/AssignmentBlockImpl$we_d/GPortImpl$we_qIN" class="sprotty-edge thick edge" style="fill:none;stroke:rgb(112, 112, 112);stroke-linejoin:round;stroke-width:3px;"><g><path d="M 240.921875 243.33333333333334 L 248.921875 243.33333333333334 C 249.921875 243.33333333333334 250.921875 242.33333333333334 250.921875 241.33333333333334 L 250.921875 202 C 250.921875 201 249.921875 200 248.921875 200 L 100.4375 200 C 99.4375 200 98.4375 199 98.4375 198 L 98.4375 182 C 98.4375 181 99.4375 180 100.4375 180 L 108.4375 180 "/><path d="M 240.921875 243.33333333333334 L 248.921875 243.33333333333334 C 249.921875 243.33333333333334 250.921875 242.33333333333334 250.921875 241.33333333333334 L 250.921875 202 C 250.921875 201 249.921875 200 248.921875 200 L 100.4375 200 C 99.4375 200 98.4375 199 98.4375 198 L 98.4375 182 C 98.4375 181 99.4375 180 100.4375 180 L 108.4375 180 " class="clickable"/></g></g><g id="sprotty_ArchitectureBlockImpl$aes_reg_status/AssignmentBlockImpl$armed_d/GPortImpl$armed_dOUT_to_ArchitectureBlockImpl$aes_reg_status/AlwaysBlockImpl$reg_ops/GPortImpl$armed_dIN" class="sprotty-edge edge" style="fill:none;stroke:rgb(112, 112, 112);stroke-linejoin:round;"><g><path d="M 128.15625 320 L 146.15625 320 C 147.15625 320 148.15625 319 148.15625 318 L 148.15625 242 C 148.15625 241 149.15625 240 150.15625 240 L 168.15625 240 "/><path d="M 128.15625 320 L 146.15625 320 C 147.15625 320 148.15625 319 148.15625 318 L 148.15625 242 C 148.15625 241 149.15625 240 150.15625 240 L 168.15625 240 " class="clickable"/></g></g><g id="sprotty_ArchitectureBlockImpl$aes_reg_status/AlwaysBlockImpl$reg_ops/GPortImpl$armed_qOUT_to_ArchitectureBlockImpl$aes_reg_status/AssignmentBlockImpl$we_d/GPortImpl$armed_qIN" class="sprotty-edge edge" style="fill:none;stroke:rgb(112, 112, 112);stroke-linejoin:round;"><g><path d="M 240.921875 226.66666666666666 L 258.921875 226.66666666666666 C 259.921875 226.66666666666666 260.921875 225.66666666666666 260.921875 224.66666666666666 L 260.921875 122 C 260.921875 121 259.921875 120 258.921875 120 L 100.4375 120 C 99.4375 120 98.4375 121 98.4375 122 L 98.4375 138 C 98.4375 139 99.4375 140 100.4375 140 L 108.4375 140 "/><path d="M 240.921875 226.66666666666666 L 258.921875 226.66666666666666 C 259.921875 226.66666666666666 260.921875 225.66666666666666 260.921875 224.66666666666666 L 260.921875 122 C 260.921875 121 259.921875 120 258.921875 120 L 100.4375 120 C 99.4375 120 98.4375 121 98.4375 122 L 98.4375 138 C 98.4375 139 99.4375 140 100.4375 140 L 108.4375 140 " class="clickable"/></g><circle r="2" id="sprotty_ArchitectureBlockImpl$aes_reg_status/AlwaysBlockImpl$reg_ops/GPortImpl$armed_qOUT_to_ArchitectureBlockImpl$aes_reg_status/AssignmentBlockImpl$we_d/GPortImpl$armed_qIN/junction0" transform="translate(260.921875, 226.66666666666666)" class="sprotty-junction junction" style="fill:rgb(112, 112, 112);stroke:none;"/></g><g id="sprotty_ArchitectureBlockImpl$aes_reg_status/AlwaysBlockImpl$reg_ops/GPortImpl$armed_qOUT_to_ArchitectureBlockImpl$aes_reg_status/AssignmentBlockImpl$armed_d/GPortImpl$armed_qIN" class="sprotty-edge edge" style="fill:none;stroke:rgb(112, 112, 112);stroke-linejoin:round;"><g><path d="M 240.921875 226.66666666666666 L 258.921875 226.66666666666666 C 259.921875 226.66666666666666 260.921875 227.66666666666666 260.921875 228.66666666666666 L 260.921875 278 C 260.921875 279 259.921875 280 258.921875 280 L 100.4375 280 C 99.4375 280 98.4375 281 98.4375 282 L 98.4375 298 C 98.4375 299 99.4375 300 100.4375 300 L 108.4375 300 "/><path d="M 240.921875 226.66666666666666 L 258.921875 226.66666666666666 C 259.921875 226.66666666666666 260.921875 227.66666666666666 260.921875 228.66666666666666 L 260.921875 278 C 260.921875 279 259.921875 280 258.921875 280 L 100.4375 280 C 99.4375 280 98.4375 281 98.4375 282 L 98.4375 298 C 98.4375 299 99.4375 300 100.4375 300 L 108.4375 300 " class="clickable"/></g></g><g id="sprotty_ArchitectureBlockImpl$aes_reg_status/AssignmentBlockImpl$all_written/GPortImpl$we_dOUT_to_ArchitectureBlockImpl$aes_reg_status/AssignmentBlockImpl$new_d/GPortImpl$all_writtenIN" class="sprotty-edge thick edge" style="fill:none;stroke:rgb(112, 112, 112);stroke-linejoin:round;stroke-width:3px;"><g><path d="M 214.3984375 99 L 248.921875 99 C 249.921875 99 250.921875 98 250.921875 97 L 250.921875 80 C 250.921875 79 251.921875 78 252.921875 78 L 270.921875 78 "/><path d="M 214.3984375 99 L 248.921875 99 C 249.921875 99 250.921875 98 250.921875 97 L 250.921875 80 C 250.921875 79 251.921875 78 252.921875 78 L 270.921875 78 " class="clickable"/></g><circle r="3" id="sprotty_ArchitectureBlockImpl$aes_reg_status/AssignmentBlockImpl$all_written/GPortImpl$we_dOUT_to_ArchitectureBlockImpl$aes_reg_status/AssignmentBlockImpl$new_d/GPortImpl$all_writtenIN/junction0" transform="translate(250.921875, 99)" class="sprotty-junction thick" style="fill:rgb(112, 112, 112);stroke:none;"/></g><g id="sprotty_ArchitectureBlockImpl$aes_reg_status/AssignmentBlockImpl$all_written/GPortImpl$we_dOUT_to_ArchitectureBlockImpl$aes_reg_status/AssignmentBlockImpl$clean_d/GPortImpl$all_writtenIN" class="sprotty-edge thick edge" style="fill:none;stroke:rgb(112, 112, 112);stroke-linejoin:round;stroke-width:3px;"><g><path d="M 214.3984375 99 L 421.125 99 C 422.125 99 423.125 100 423.125 101 L 423.125 148 C 423.125 149 424.125 150 425.125 150 L 443.125 150 "/><path d="M 214.3984375 99 L 421.125 99 C 422.125 99 423.125 100 423.125 101 L 423.125 148 C 423.125 149 424.125 150 425.125 150 L 443.125 150 " class="clickable"/></g></g><g id="sprotty_ArchitectureBlockImpl$aes_reg_status/AssignmentBlockImpl$none_written/GPortImpl$we_dOUT_to_ArchitectureBlockImpl$aes_reg_status/AssignmentBlockImpl$clean_d/GPortImpl$none_writtenIN" class="sprotty-edge thick edge" style="fill:none;stroke:rgb(112, 112, 112);stroke-linejoin:round;stroke-width:3px;"><g><path d="M 290.640625 160 L 443.125 160 "/><path d="M 290.640625 160 L 443.125 160 " class="clickable"/></g></g><g id="sprotty_ArchitectureBlockImpl$aes_reg_status/AssignmentBlockImpl$new_d/GPortImpl$all_writtenOUT_to_ArchitectureBlockImpl$aes_reg_status/AlwaysBlockImpl$reg_status/GPortImpl$new_dIN" class="sprotty-edge edge" style="fill:none;stroke:rgb(112, 112, 112);stroke-linejoin:round;"><g><path d="M 290.640625 68 L 298.640625 68 C 299.640625 68 300.640625 69 300.640625 70 L 300.640625 259 C 300.640625 260 301.640625 261 302.640625 261 L 320.640625 261 "/><path d="M 290.640625 68 L 298.640625 68 C 299.640625 68 300.640625 69 300.640625 70 L 300.640625 259 C 300.640625 260 301.640625 261 302.640625 261 L 320.640625 261 " class="clickable"/></g></g><g id="sprotty_ArchitectureBlockImpl$aes_reg_status/AlwaysBlockImpl$reg_status/GPortImpl$new_qOUT_to_ArchitectureBlockImpl$aes_reg_status/AssignmentBlockImpl$new_o/GPortImpl$new_qIN" class="sprotty-edge edge" style="fill:none;stroke:rgb(112, 112, 112);stroke-linejoin:round;"><g><path d="M 413.125 284.3333333333333 L 443.125 284.33333333333337 "/><path d="M 413.125 284.3333333333333 L 443.125 284.33333333333337 " class="clickable"/></g></g><g id="sprotty_ArchitectureBlockImpl$aes_reg_status/AssignmentBlockImpl$clean_d/GPortImpl$clean_qOUT_to_ArchitectureBlockImpl$aes_reg_status/AlwaysBlockImpl$reg_status/GPortImpl$clean_dIN" class="sprotty-edge edge" style="fill:none;stroke:rgb(112, 112, 112);stroke-linejoin:round;"><g><path d="M 462.84375 155 L 470.84375 155 C 471.84375 155 472.84375 156 472.84375 157 L 472.84375 309 C 472.84375 310 471.84375 311 470.84375 311 L 312.640625 311 C 311.640625 311 310.640625 310 310.640625 309 L 310.640625 293 C 310.640625 292 311.640625 291 312.640625 291 L 320.640625 291 "/><path d="M 462.84375 155 L 470.84375 155 C 471.84375 155 472.84375 156 472.84375 157 L 472.84375 309 C 472.84375 310 471.84375 311 470.84375 311 L 312.640625 311 C 311.640625 311 310.640625 310 310.640625 309 L 310.640625 293 C 310.640625 292 311.640625 291 312.640625 291 L 320.640625 291 " class="clickable"/></g></g><g id="sprotty_ArchitectureBlockImpl$aes_reg_status/AlwaysBlockImpl$reg_status/GPortImpl$clean_qOUT_to_ArchitectureBlockImpl$aes_reg_status/AssignmentBlockImpl$clean_d/GPortImpl$clean_qIN" class="sprotty-edge edge" style="fill:none;stroke:rgb(112, 112, 112);stroke-linejoin:round;"><g><path d="M 413.125 267.6666666666667 L 421.125 267.66666666666663 C 422.125 267.66666666666663 423.125 266.66666666666663 423.125 265.66666666666663 L 423.125 172 C 423.125 171 424.125 170 425.125 170 L 443.125 170 "/><path d="M 413.125 267.6666666666667 L 421.125 267.66666666666663 C 422.125 267.66666666666663 423.125 266.66666666666663 423.125 265.66666666666663 L 423.125 172 C 423.125 171 424.125 170 425.125 170 L 443.125 170 " class="clickable"/></g></g><g id="sprotty_ArchitectureBlockImpl$aes_reg_status/AlwaysBlockImpl$reg_status/GPortImpl$clean_qOUT_to_ArchitectureBlockImpl$aes_reg_status/AssignmentBlockImpl$clean_o/GPortImpl$clean_qIN" class="sprotty-edge edge" style="fill:none;stroke:rgb(112, 112, 112);stroke-linejoin:round;"><g><path d="M 413.125 267.6666666666667 L 421.125 267.66666666666663 C 422.125 267.66666666666663 423.125 266.66666666666663 423.125 265.66666666666663 L 423.125 244.33333333333334 C 423.125 243.33333333333334 424.125 242.33333333333334 425.125 242.33333333333334 L 443.125 242.33333333333334 "/><path d="M 413.125 267.6666666666667 L 421.125 267.66666666666663 C 422.125 267.66666666666663 423.125 266.66666666666663 423.125 265.66666666666663 L 423.125 244.33333333333334 C 423.125 243.33333333333334 424.125 242.33333333333334 425.125 242.33333333333334 L 443.125 242.33333333333334 " class="clickable"/></g><circle r="2" id="sprotty_ArchitectureBlockImpl$aes_reg_status/AlwaysBlockImpl$reg_status/GPortImpl$clean_qOUT_to_ArchitectureBlockImpl$aes_reg_status/AssignmentBlockImpl$clean_o/GPortImpl$clean_qIN/junction0" transform="translate(423.125, 242.33333333333334)" class="sprotty-junction junction" style="fill:rgb(112, 112, 112);stroke:none;"/></g><g id="sprotty_ArchitectureBlockImpl$aes_reg_status/AlwaysBlockImpl$reg_status" transform="translate(320.640625, 251)" class="statement"><rect x="0" y="0" rx="10" ry="5" width="92.484375" height="50" class="sprotty-node" style="fill:rgb(245, 245, 245);stroke:rgb(112, 112, 112);"/><text class="clickable sprotty-label statementtext" id="sprotty_ArchitectureBlockImpl$aes_reg_status/AlwaysBlockImpl$reg_status/labeltext" transform="translate(5, 7) translate(41.203125, 19)" style="cursor:default;font-weight:700;perspective-origin:0.03125px 0px;fill:rgb(112, 112, 112);text-anchor:middle;">reg_status</text><text class="clickable sprotty-label statementtype" id="sprotty_ArchitectureBlockImpl$aes_reg_status/AlwaysBlockImpl$reg_status/labeltype" transform="translate(26.796875, 31) translate(18.828125, 9)" style="cursor:default;font-size:8px;font-weight:700;perspective-origin:0.609375px 0px;fill:rgb(112, 112, 112);text-anchor:middle;">always_ff</text><g id="sprotty_ArchitectureBlockImpl$aes_reg_status/AlwaysBlockImpl$reg_status/GPortImpl$clean_dIN" transform="translate(0, 40)" class="sprotty-hidden hidden" style="display:block;height:0px;width:0px;"/><g id="sprotty_ArchitectureBlockImpl$aes_reg_status/AlwaysBlockImpl$reg_status/GPortImpl$new_dIN" transform="translate(0, 10)" class="sprotty-hidden hidden" style="display:block;height:0px;width:0px;"/><g id="sprotty_ArchitectureBlockImpl$aes_reg_status/AlwaysBlockImpl$reg_status/GPortImpl$rst_niIN" transform="translate(0, 20)" class="sprotty-hidden hidden" style="display:block;height:0px;width:0px;"/><g id="sprotty_ArchitectureBlockImpl$aes_reg_status/AlwaysBlockImpl$reg_status/GPortImpl$clk_iIN" transform="translate(0, 30)" class="sprotty-hidden hidden" style="display:block;height:0px;width:0px;"/><g id="sprotty_ArchitectureBlockImpl$aes_reg_status/AlwaysBlockImpl$reg_status/GPortImpl$new_qOUT" transform="translate(92.484375, 33.333333333333336)" class="sprotty-hidden hidden" style="display:block;height:0px;width:0px;"/><g id="sprotty_ArchitectureBlockImpl$aes_reg_status/AlwaysBlockImpl$reg_status/GPortImpl$clean_qOUT" transform="translate(92.484375, 16.666666666666668)" class="sprotty-hidden hidden" style="display:block;height:0px;width:0px;"/></g><g id="sprotty_ArchitectureBlockImpl$aes_reg_status/AlwaysBlockImpl$reg_ops" transform="translate(168.15625, 210)" class="statement"><rect x="0" y="0" rx="10" ry="5" width="72.765625" height="50" class="sprotty-node" style="fill:rgb(245, 245, 245);stroke:rgb(112, 112, 112);"/><text class="clickable sprotty-label statementtext" id="sprotty_ArchitectureBlockImpl$aes_reg_status/AlwaysBlockImpl$reg_ops/labeltext" transform="translate(5, 7) translate(31.34375, 19)" style="cursor:default;font-weight:700;perspective-origin:0.03125px 0px;fill:rgb(112, 112, 112);text-anchor:middle;">reg_ops</text><text class="clickable sprotty-label statementtype" id="sprotty_ArchitectureBlockImpl$aes_reg_status/AlwaysBlockImpl$reg_ops/labeltype" transform="translate(16.9375, 31) translate(18.828125, 9)" style="cursor:default;font-size:8px;font-weight:700;perspective-origin:0.609375px 0px;fill:rgb(112, 112, 112);text-anchor:middle;">always_ff</text><g id="sprotty_ArchitectureBlockImpl$aes_reg_status/AlwaysBlockImpl$reg_ops/GPortImpl$armed_dIN" transform="translate(0, 30)" class="sprotty-hidden hidden" style="display:block;height:0px;width:0px;"/><g id="sprotty_ArchitectureBlockImpl$aes_reg_status/AlwaysBlockImpl$reg_ops/GPortImpl$we_dIN" transform="translate(0, 10)" class="sprotty-hidden hidden" style="display:block;height:0px;width:0px;"/><g id="sprotty_ArchitectureBlockImpl$aes_reg_status/AlwaysBlockImpl$reg_ops/GPortImpl$rst_niIN" transform="translate(0, 20)" class="sprotty-hidden hidden" style="display:block;height:0px;width:0px;"/><g id="sprotty_ArchitectureBlockImpl$aes_reg_status/AlwaysBlockImpl$reg_ops/GPortImpl$clk_iIN" transform="translate(0, 40)" class="sprotty-hidden hidden" style="display:block;height:0px;width:0px;"/><g id="sprotty_ArchitectureBlockImpl$aes_reg_status/AlwaysBlockImpl$reg_ops/GPortImpl$we_qOUT" transform="translate(72.765625, 33.333333333333336)" class="sprotty-hidden hidden" style="display:block;height:0px;width:0px;"/><g id="sprotty_ArchitectureBlockImpl$aes_reg_status/AlwaysBlockImpl$reg_ops/GPortImpl$armed_qOUT" transform="translate(72.765625, 16.666666666666668)" class="sprotty-hidden hidden" style="display:block;height:0px;width:0px;"/></g><g id="sprotty_ArchitectureBlockImpl$aes_reg_status/AssignmentBlockImpl$clean_o" transform="translate(443.125, 231.33333333333334)" class="statement"><rect x="0" y="0" rx="10" ry="5" width="19.71875" height="22" class="sprotty-node" style="fill:rgb(245, 245, 245);stroke:rgb(112, 112, 112);"/><text class="clickable sprotty-label statementtype" id="sprotty_ArchitectureBlockImpl$aes_reg_status/AssignmentBlockImpl$clean_o/labeltype" transform="translate(5, 5) translate(4.71875, 9)" style="cursor:default;font-size:8px;font-weight:700;perspective-origin:0.140625px 0px;fill:rgb(112, 112, 112);text-anchor:middle;">&lt;=</text><g id="sprotty_ArchitectureBlockImpl$aes_reg_status/AssignmentBlockImpl$clean_o/GPortImpl$clean_qIN" transform="translate(0, 11)" class="sprotty-hidden hidden" style="display:block;height:0px;width:0px;"/><g id="sprotty_ArchitectureBlockImpl$aes_reg_status/AssignmentBlockImpl$clean_o/GPortImpl$clean_oOUT" transform="translate(19.71875, 11)" class="sprotty-hidden hidden" style="display:block;height:0px;width:0px;"/></g><g id="sprotty_ArchitectureBlockImpl$aes_reg_status/AssignmentBlockImpl$new_o" transform="translate(443.125, 273.33333333333337)" class="statement"><rect x="0" y="0" rx="10" ry="5" width="19.71875" height="22" class="sprotty-node" style="fill:rgb(245, 245, 245);stroke:rgb(112, 112, 112);"/><text class="clickable sprotty-label statementtype" id="sprotty_ArchitectureBlockImpl$aes_reg_status/AssignmentBlockImpl$new_o/labeltype" transform="translate(5, 5) translate(4.71875, 9)" style="cursor:default;font-size:8px;font-weight:700;perspective-origin:0.140625px 0px;fill:rgb(112, 112, 112);text-anchor:middle;">&lt;=</text><g id="sprotty_ArchitectureBlockImpl$aes_reg_status/AssignmentBlockImpl$new_o/GPortImpl$new_qIN" transform="translate(0, 11)" class="sprotty-hidden hidden" style="display:block;height:0px;width:0px;"/><g id="sprotty_ArchitectureBlockImpl$aes_reg_status/AssignmentBlockImpl$new_o/GPortImpl$new_oOUT" transform="translate(19.71875, 11)" class="sprotty-hidden hidden" style="display:block;height:0px;width:0px;"/></g><g id="sprotty_ArchitectureBlockImpl$aes_reg_status/AssignmentBlockImpl$clean_d" transform="translate(443.125, 130)" class="statement"><rect x="0" y="0" rx="10" ry="5" width="19.71875" height="50" class="sprotty-node" style="fill:rgb(245, 245, 245);stroke:rgb(112, 112, 112);"/><text class="clickable sprotty-label statementtype" id="sprotty_ArchitectureBlockImpl$aes_reg_status/AssignmentBlockImpl$clean_d/labeltype" transform="translate(5, 19) translate(4.71875, 9)" style="cursor:default;font-size:8px;font-weight:700;perspective-origin:0.140625px 0px;fill:rgb(112, 112, 112);text-anchor:middle;">&lt;=</text><g id="sprotty_ArchitectureBlockImpl$aes_reg_status/AssignmentBlockImpl$clean_d/GPortImpl$clean_qIN" transform="translate(0, 40)" class="sprotty-hidden hidden" style="display:block;height:0px;width:0px;"/><g id="sprotty_ArchitectureBlockImpl$aes_reg_status/AssignmentBlockImpl$clean_d/GPortImpl$none_writtenIN" transform="translate(0, 30)" class="sprotty-hidden hidden" style="display:block;height:0px;width:0px;"/><g id="sprotty_ArchitectureBlockImpl$aes_reg_status/AssignmentBlockImpl$clean_d/GPortImpl$all_writtenIN" transform="translate(0, 20)" class="sprotty-hidden hidden" style="display:block;height:0px;width:0px;"/><g id="sprotty_ArchitectureBlockImpl$aes_reg_status/AssignmentBlockImpl$clean_d/GPortImpl$clear_iIN" transform="translate(0, 10)" class="sprotty-hidden hidden" style="display:block;height:0px;width:0px;"/><g id="sprotty_ArchitectureBlockImpl$aes_reg_status/AssignmentBlockImpl$clean_d/GPortImpl$clean_qOUT" transform="translate(19.71875, 25)" class="sprotty-hidden hidden" style="display:block;height:0px;width:0px;"/></g><g id="sprotty_ArchitectureBlockImpl$aes_reg_status/AssignmentBlockImpl$new_d" transform="translate(270.921875, 48)" class="statement"><rect x="0" y="0" rx="10" ry="5" width="19.71875" height="40" class="sprotty-node" style="fill:rgb(245, 245, 245);stroke:rgb(112, 112, 112);"/><text class="clickable sprotty-label statementtype" id="sprotty_ArchitectureBlockImpl$aes_reg_status/AssignmentBlockImpl$new_d/labeltype" transform="translate(5, 14) translate(4.71875, 9)" style="cursor:default;font-size:8px;font-weight:700;perspective-origin:0.140625px 0px;fill:rgb(112, 112, 112);text-anchor:middle;">&lt;=</text><g id="sprotty_ArchitectureBlockImpl$aes_reg_status/AssignmentBlockImpl$new_d/GPortImpl$all_writtenIN" transform="translate(0, 30)" class="sprotty-hidden hidden" style="display:block;height:0px;width:0px;"/><g id="sprotty_ArchitectureBlockImpl$aes_reg_status/AssignmentBlockImpl$new_d/GPortImpl$use_iIN" transform="translate(0, 20)" class="sprotty-hidden hidden" style="display:block;height:0px;width:0px;"/><g id="sprotty_ArchitectureBlockImpl$aes_reg_status/AssignmentBlockImpl$new_d/GPortImpl$clear_iIN" transform="translate(0, 10)" class="sprotty-hidden hidden" style="display:block;height:0px;width:0px;"/><g id="sprotty_ArchitectureBlockImpl$aes_reg_status/AssignmentBlockImpl$new_d/GPortImpl$all_writtenOUT" transform="translate(19.71875, 20)" class="sprotty-hidden hidden" style="display:block;height:0px;width:0px;"/></g><g id="sprotty_ArchitectureBlockImpl$aes_reg_status/AssignmentBlockImpl$none_written" transform="translate(270.921875, 149)" class="statement"><rect x="0" y="0" rx="10" ry="5" width="19.71875" height="22" class="sprotty-node" style="fill:rgb(245, 245, 245);stroke:rgb(112, 112, 112);"/><text class="clickable sprotty-label statementtype" id="sprotty_ArchitectureBlockImpl$aes_reg_status/AssignmentBlockImpl$none_written/labeltype" transform="translate(5, 5) translate(4.71875, 9)" style="cursor:default;font-size:8px;font-weight:700;perspective-origin:0.140625px 0px;fill:rgb(112, 112, 112);text-anchor:middle;">&lt;=</text><g id="sprotty_ArchitectureBlockImpl$aes_reg_status/AssignmentBlockImpl$none_written/GPortImpl$we_dIN" transform="translate(0, 11)" class="sprotty-hidden hidden" style="display:block;height:0px;width:0px;"/><g id="sprotty_ArchitectureBlockImpl$aes_reg_status/AssignmentBlockImpl$none_written/GPortImpl$we_dOUT" transform="translate(19.71875, 11)" class="sprotty-hidden hidden" style="display:block;height:0px;width:0px;"/></g><g id="sprotty_ArchitectureBlockImpl$aes_reg_status/AssignmentBlockImpl$all_written" transform="translate(194.6796875, 88)" class="statement"><rect x="0" y="0" rx="10" ry="5" width="19.71875" height="22" class="sprotty-node" style="fill:rgb(245, 245, 245);stroke:rgb(112, 112, 112);"/><text class="clickable sprotty-label statementtype" id="sprotty_ArchitectureBlockImpl$aes_reg_status/AssignmentBlockImpl$all_written/labeltype" transform="translate(5, 5) translate(4.71875, 9)" style="cursor:default;font-size:8px;font-weight:700;perspective-origin:0.140625px 0px;fill:rgb(112, 112, 112);text-anchor:middle;">&lt;=</text><g id="sprotty_ArchitectureBlockImpl$aes_reg_status/AssignmentBlockImpl$all_written/GPortImpl$we_dIN" transform="translate(0, 11)" class="sprotty-hidden hidden" style="display:block;height:0px;width:0px;"/><g id="sprotty_ArchitectureBlockImpl$aes_reg_status/AssignmentBlockImpl$all_written/GPortImpl$we_dOUT" transform="translate(19.71875, 11)" class="sprotty-hidden hidden" style="display:block;height:0px;width:0px;"/></g><g id="sprotty_ArchitectureBlockImpl$aes_reg_status/AssignmentBlockImpl$armed_d" transform="translate(108.4375, 290)" class="statement"><rect x="0" y="0" rx="10" ry="5" width="19.71875" height="60" class="sprotty-node" style="fill:rgb(245, 245, 245);stroke:rgb(112, 112, 112);"/><text class="clickable sprotty-label statementtype" id="sprotty_ArchitectureBlockImpl$aes_reg_status/AssignmentBlockImpl$armed_d/labeltype" transform="translate(5, 24) translate(4.71875, 9)" style="cursor:default;font-size:8px;font-weight:700;perspective-origin:0.140625px 0px;fill:rgb(112, 112, 112);text-anchor:middle;">&lt;=</text><g id="sprotty_ArchitectureBlockImpl$aes_reg_status/AssignmentBlockImpl$armed_d/GPortImpl$arm_iIN" transform="translate(0, 50)" class="sprotty-hidden hidden" style="display:block;height:0px;width:0px;"/><g id="sprotty_ArchitectureBlockImpl$aes_reg_status/AssignmentBlockImpl$armed_d/GPortImpl$we_iIN" transform="translate(0, 40)" class="sprotty-hidden hidden" style="display:block;height:0px;width:0px;"/><g id="sprotty_ArchitectureBlockImpl$aes_reg_status/AssignmentBlockImpl$armed_d/GPortImpl$armed_qIN" transform="translate(0, 10)" class="sprotty-hidden hidden" style="display:block;height:0px;width:0px;"/><g id="sprotty_ArchitectureBlockImpl$aes_reg_status/AssignmentBlockImpl$armed_d/GPortImpl$use_iIN" transform="translate(0, 30)" class="sprotty-hidden hidden" style="display:block;height:0px;width:0px;"/><g id="sprotty_ArchitectureBlockImpl$aes_reg_status/AssignmentBlockImpl$armed_d/GPortImpl$clear_iIN" transform="translate(0, 20)" class="sprotty-hidden hidden" style="display:block;height:0px;width:0px;"/><g id="sprotty_ArchitectureBlockImpl$aes_reg_status/AssignmentBlockImpl$armed_d/GPortImpl$armed_dOUT" transform="translate(19.71875, 30)" class="sprotty-hidden hidden" style="display:block;height:0px;width:0px;"/></g><g id="sprotty_ArchitectureBlockImpl$aes_reg_status/AssignmentBlockImpl$we_d" transform="translate(108.4375, 130)" class="statement"><rect x="0" y="0" rx="10" ry="5" width="19.71875" height="60" class="sprotty-node" style="fill:rgb(245, 245, 245);stroke:rgb(112, 112, 112);"/><text class="clickable sprotty-label statementtype" id="sprotty_ArchitectureBlockImpl$aes_reg_status/AssignmentBlockImpl$we_d/labeltype" transform="translate(5, 24) translate(4.71875, 9)" style="cursor:default;font-size:8px;font-weight:700;perspective-origin:0.140625px 0px;fill:rgb(112, 112, 112);text-anchor:middle;">&lt;=</text><g id="sprotty_ArchitectureBlockImpl$aes_reg_status/AssignmentBlockImpl$we_d/GPortImpl$we_qIN" transform="translate(0, 50)" class="sprotty-hidden hidden" style="display:block;height:0px;width:0px;"/><g id="sprotty_ArchitectureBlockImpl$aes_reg_status/AssignmentBlockImpl$we_d/GPortImpl$we_iIN" transform="translate(0, 40)" class="sprotty-hidden hidden" style="display:block;height:0px;width:0px;"/><g id="sprotty_ArchitectureBlockImpl$aes_reg_status/AssignmentBlockImpl$we_d/GPortImpl$armed_qIN" transform="translate(0, 10)" class="sprotty-hidden hidden" style="display:block;height:0px;width:0px;"/><g id="sprotty_ArchitectureBlockImpl$aes_reg_status/AssignmentBlockImpl$we_d/GPortImpl$use_iIN" transform="translate(0, 30)" class="sprotty-hidden hidden" style="display:block;height:0px;width:0px;"/><g id="sprotty_ArchitectureBlockImpl$aes_reg_status/AssignmentBlockImpl$we_d/GPortImpl$clear_iIN" transform="translate(0, 20)" class="sprotty-hidden hidden" style="display:block;height:0px;width:0px;"/><g id="sprotty_ArchitectureBlockImpl$aes_reg_status/AssignmentBlockImpl$we_d/GPortImpl$we_dOUT" transform="translate(19.71875, 30)" class="sprotty-hidden hidden" style="display:block;height:0px;width:0px;"/></g><g id="sprotty_ArchitectureBlockImpl$aes_reg_status/BPortImpl$arm_i" transform="translate(0, 364)" class="triangle"><path d="M 0,0 L 5,2.5 L 0,5 Z" transform="translate(-1.67, -2.5)" class="sprotty-port" style="fill:rgb(48, 48, 48);stroke:rgb(48, 48, 48);"/><text class="clickable sprotty-label port" id="sprotty_ArchitectureBlockImpl$aes_reg_status/BPortImpl$arm_i/label" transform="translate(6, 6) translate(16.28125, 14)" style="cursor:default;font-size:12px;perspective-origin:0px 0px;fill:rgb(48, 48, 48);text-anchor:middle;">arm_i</text></g><g id="sprotty_ArchitectureBlockImpl$aes_reg_status/BPortImpl$clear_i" transform="translate(0, 36)" class="triangle"><path d="M 0,0 L 5,2.5 L 0,5 Z" transform="translate(-1.67, -2.5)" class="sprotty-port" style="fill:rgb(48, 48, 48);stroke:rgb(48, 48, 48);"/><text class="clickable sprotty-label port" id="sprotty_ArchitectureBlockImpl$aes_reg_status/BPortImpl$clear_i/label" transform="translate(6, 6) translate(18.71875, 14)" style="cursor:default;font-size:12px;perspective-origin:0px 0px;fill:rgb(48, 48, 48);text-anchor:middle;">clear_i</text></g><g id="sprotty_ArchitectureBlockImpl$aes_reg_status/BPortImpl$use_i" transform="translate(0, 160)" class="triangle"><path d="M 0,0 L 5,2.5 L 0,5 Z" transform="translate(-1.67, -2.5)" class="sprotty-port" style="fill:rgb(48, 48, 48);stroke:rgb(48, 48, 48);"/><text class="clickable sprotty-label port" id="sprotty_ArchitectureBlockImpl$aes_reg_status/BPortImpl$use_i/label" transform="translate(6, 6) translate(14.78125, 14)" style="cursor:default;font-size:12px;perspective-origin:0px 0px;fill:rgb(48, 48, 48);text-anchor:middle;">use_i</text></g><g id="sprotty_ArchitectureBlockImpl$aes_reg_status/BPortImpl$we_i" transform="translate(0, 330)" class="triangle"><path d="M 0,0 L 5,2.5 L 0,5 Z" transform="translate(-1.67, -2.5)" class="sprotty-port" style="fill:rgb(48, 48, 48);stroke:rgb(48, 48, 48);"/><text class="clickable sprotty-label port" id="sprotty_ArchitectureBlockImpl$aes_reg_status/BPortImpl$we_i/label" transform="translate(6, 6) translate(13.125, 14)" style="cursor:default;font-size:12px;perspective-origin:0px 0px;fill:rgb(48, 48, 48);text-anchor:middle;">we_i</text></g><g id="sprotty_ArchitectureBlockImpl$aes_reg_status/BPortImpl$rst_ni" transform="translate(0, 271)" class="triangle"><path d="M 0,0 L 5,2.5 L 0,5 Z" transform="translate(-1.67, -2.5)" class="sprotty-port" style="fill:rgb(48, 48, 48);stroke:rgb(48, 48, 48);"/><text class="clickable sprotty-label port" id="sprotty_ArchitectureBlockImpl$aes_reg_status/BPortImpl$rst_ni/label" transform="translate(6, 6) translate(15.921875, 14)" style="cursor:default;font-size:12px;perspective-origin:0px 0px;fill:rgb(48, 48, 48);text-anchor:middle;">rst_ni</text></g><g id="sprotty_ArchitectureBlockImpl$aes_reg_status/BPortImpl$clk_i" transform="translate(0, 398)" class="triangle"><path d="M 0,0 L 5,2.5 L 0,5 Z" transform="translate(-1.67, -2.5)" class="sprotty-port" style="fill:rgb(48, 48, 48);stroke:rgb(48, 48, 48);"/><text class="clickable sprotty-label port" id="sprotty_ArchitectureBlockImpl$aes_reg_status/BPortImpl$clk_i/label" transform="translate(6, 6) translate(13.09375, 14)" style="cursor:default;font-size:12px;perspective-origin:0px 0px;fill:rgb(48, 48, 48);text-anchor:middle;">clk_i</text></g><g id="sprotty_ArchitectureBlockImpl$aes_reg_status/BPortImpl$new_o" transform="translate(547.9375, 284.33333333333337)" class="triangle"><path d="M 0,0 L 5,2.5 L 0,5 Z" transform="translate(-1.67, -2.5)" class="sprotty-port" style="fill:rgb(48, 48, 48);stroke:rgb(48, 48, 48);"/><text class="clickable sprotty-label port" id="sprotty_ArchitectureBlockImpl$aes_reg_status/BPortImpl$new_o/label" transform="translate(-43.65625, 6) translate(18.828125, 14)" style="cursor:default;font-size:12px;perspective-origin:0px 0px;fill:rgb(48, 48, 48);text-anchor:middle;">new_o</text></g><g id="sprotty_ArchitectureBlockImpl$aes_reg_status/BPortImpl$clean_o" transform="translate(547.9375, 242.33333333333334)" class="triangle"><path d="M 0,0 L 5,2.5 L 0,5 Z" transform="translate(-1.67, -2.5)" class="sprotty-port" style="fill:rgb(48, 48, 48);stroke:rgb(48, 48, 48);"/><text class="clickable sprotty-label port" id="sprotty_ArchitectureBlockImpl$aes_reg_status/BPortImpl$clean_o/label" transform="translate(-50.09375, 6) translate(22.046875, 14)" style="cursor:default;font-size:12px;perspective-origin:0px 0px;fill:rgb(48, 48, 48);text-anchor:middle;">clean_o</text></g></g></g></svg>