<svg xmlns="http://www.w3.org/2000/svg" id="sprotty_work.prim_sync_reqack_data" class="sprotty-graph sprotty-block-diagram blockdiagram" style="font-family:&quot;Noto Sans&quot;, Helvetica, Arial, sans-serif;perspective-origin:0px 0px;transform-origin:0px 0px;" version="1.1" viewBox="7 7 535.46875 530" width="535.46875" height="530"><g transform="scale(1) translate(0,0)"><g id="sprotty_ArchitectureBlockImpl$prim_sync_reqack_data" transform="translate(12, 12)" class="architecture"><g class="sprotty-block" style="fill:rgb(255, 255, 255);stroke:rgb(48, 48, 48);stroke-dasharray:0px;"><rect x="0" y="0" rx="1" ry="1" width="525.46875" height="520"/><text x="262.734375" y="12" class="sprotty-block-name" style="cursor:pointer;font-weight:700;perspective-origin:262.734px 0px;fill:rgb(48, 48, 48);stroke:rgba(0, 0, 0, 0);dominant-baseline:middle;text-anchor:middle;">prim_sync_reqack_data</text><line x1="0" y1="20" x2="525.46875" y2="20"/></g><g id="sprotty_ArchitectureBlockImpl$prim_sync_reqack_data/InstantiationBlockImpl$u_prim_sync_reqack/BPortImpl$src_ack_o_to_ArchitectureBlockImpl$prim_sync_reqack_data/BPortImpl$src_ack_o" class="sprotty-edge edge" style="fill:none;stroke:rgb(112, 112, 112);stroke-linejoin:round;"><g><path d="M 447.84375 271 L 525.46875 271 "/><path d="M 447.84375 271 L 525.46875 271 " class="clickable"/></g></g><g id="sprotty_ArchitectureBlockImpl$prim_sync_reqack_data/InstantiationBlockImpl$u_prim_sync_reqack/BPortImpl$dst_req_o_to_ArchitectureBlockImpl$prim_sync_reqack_data/BPortImpl$dst_req_o" class="sprotty-edge edge" style="fill:none;stroke:rgb(112, 112, 112);stroke-linejoin:round;"><g><path d="M 447.84375 411 L 525.46875 411 "/><path d="M 447.84375 411 L 525.46875 411 " class="clickable"/></g></g><g id="sprotty_ArchitectureBlockImpl$prim_sync_reqack_data/GenerateStatementBlockImpl$null11/GPortImpl$data_o_to_ArchitectureBlockImpl$prim_sync_reqack_data/BPortImpl$data_o" class="sprotty-edge thick edge" style="fill:none;stroke:rgb(112, 112, 112);stroke-linejoin:round;stroke-width:3px;"><g><path d="M 288.78515625 61 L 525.46875 61 "/><path d="M 288.78515625 61 L 525.46875 61 " class="clickable"/></g></g><g id="sprotty_ArchitectureBlockImpl$prim_sync_reqack_data/BPortImpl$clk_src_i_to_ArchitectureBlockImpl$prim_sync_reqack_data/InstantiationBlockImpl$u_prim_sync_reqack/BPortImpl$clk_src_i" class="sprotty-edge edge" style="fill:none;stroke:rgb(112, 112, 112);stroke-linejoin:round;"><g><path d="M 0 231 L 94.875 231 C 95.875 231 96.875 232 96.875 233 L 96.875 269 C 96.875 270 97.875 271 98.875 271 L 116.875 271 "/><path d="M 0 231 L 94.875 231 C 95.875 231 96.875 232 96.875 233 L 96.875 269 C 96.875 270 97.875 271 98.875 271 L 116.875 271 " class="clickable"/></g></g><g id="sprotty_ArchitectureBlockImpl$prim_sync_reqack_data/BPortImpl$rst_src_ni_to_ArchitectureBlockImpl$prim_sync_reqack_data/InstantiationBlockImpl$u_prim_sync_reqack/BPortImpl$rst_src_ni" class="sprotty-edge edge" style="fill:none;stroke:rgb(112, 112, 112);stroke-linejoin:round;"><g><path d="M 0 299 L 116.875 299 "/><path d="M 0 299 L 116.875 299 " class="clickable"/></g></g><g id="sprotty_ArchitectureBlockImpl$prim_sync_reqack_data/BPortImpl$clk_dst_i_to_ArchitectureBlockImpl$prim_sync_reqack_data/InstantiationBlockImpl$u_prim_sync_reqack/BPortImpl$clk_dst_i" class="sprotty-edge edge" style="fill:none;stroke:rgb(112, 112, 112);stroke-linejoin:round;"><g><path d="M 0 102 L 104.875 102 C 105.875 102 106.875 103 106.875 104 L 106.875 325 C 106.875 326 107.875 327 108.875 327 L 116.875 327 "/><path d="M 0 102 L 104.875 102 C 105.875 102 106.875 103 106.875 104 L 106.875 325 C 106.875 326 107.875 327 108.875 327 L 116.875 327 " class="clickable"/></g><circle r="2" id="sprotty_ArchitectureBlockImpl$prim_sync_reqack_data/BPortImpl$clk_dst_i_to_ArchitectureBlockImpl$prim_sync_reqack_data/InstantiationBlockImpl$u_prim_sync_reqack/BPortImpl$clk_dst_i/junction0" transform="translate(106.875, 102)" class="sprotty-junction junction" style="fill:rgb(112, 112, 112);stroke:none;"/></g><g id="sprotty_ArchitectureBlockImpl$prim_sync_reqack_data/BPortImpl$rst_dst_ni_to_ArchitectureBlockImpl$prim_sync_reqack_data/InstantiationBlockImpl$u_prim_sync_reqack/BPortImpl$rst_dst_ni" class="sprotty-edge edge" style="fill:none;stroke:rgb(112, 112, 112);stroke-linejoin:round;"><g><path d="M 0 265 L 84.875 265 C 85.875 265 86.875 266 86.875 267 L 86.875 353 C 86.875 354 87.875 355 88.875 355 L 116.875 355 "/><path d="M 0 265 L 84.875 265 C 85.875 265 86.875 266 86.875 267 L 86.875 353 C 86.875 354 87.875 355 88.875 355 L 116.875 355 " class="clickable"/></g><circle r="2" id="sprotty_ArchitectureBlockImpl$prim_sync_reqack_data/BPortImpl$rst_dst_ni_to_ArchitectureBlockImpl$prim_sync_reqack_data/InstantiationBlockImpl$u_prim_sync_reqack/BPortImpl$rst_dst_ni/junction0" transform="translate(86.875, 265)" class="sprotty-junction junction" style="fill:rgb(112, 112, 112);stroke:none;"/></g><g id="sprotty_ArchitectureBlockImpl$prim_sync_reqack_data/BPortImpl$src_req_i_to_ArchitectureBlockImpl$prim_sync_reqack_data/InstantiationBlockImpl$u_prim_sync_reqack/BPortImpl$src_req_i" class="sprotty-edge edge" style="fill:none;stroke:rgb(112, 112, 112);stroke-linejoin:round;"><g><path d="M 0 377 L 84.875 377 C 85.875 377 86.875 378 86.875 379 L 86.875 381 C 86.875 382 87.875 383 88.875 383 L 116.875 383 "/><path d="M 0 377 L 84.875 377 C 85.875 377 86.875 378 86.875 379 L 86.875 381 C 86.875 382 87.875 383 88.875 383 L 116.875 383 " class="clickable"/></g></g><g id="sprotty_ArchitectureBlockImpl$prim_sync_reqack_data/BPortImpl$dst_ack_i_to_ArchitectureBlockImpl$prim_sync_reqack_data/InstantiationBlockImpl$u_prim_sync_reqack/BPortImpl$dst_ack_i" class="sprotty-edge edge" style="fill:none;stroke:rgb(112, 112, 112);stroke-linejoin:round;"><g><path d="M 0 411 L 116.875 411 "/><path d="M 0 411 L 116.875 411 " class="clickable"/></g></g><g id="sprotty_ArchitectureBlockImpl$prim_sync_reqack_data/BPortImpl$data_i_to_ArchitectureBlockImpl$prim_sync_reqack_data/GenerateStatementBlockImpl$null11/GPortImpl$data_i" class="sprotty-edge thick edge" style="fill:none;stroke:rgb(112, 112, 112);stroke-linejoin:round;stroke-width:3px;"><g><path d="M 0 61 L 169.89453125 61 "/><path d="M 0 61 L 169.89453125 61 " class="clickable"/></g></g><g id="sprotty_ArchitectureBlockImpl$prim_sync_reqack_data/BPortImpl$clk_dst_i_to_ArchitectureBlockImpl$prim_sync_reqack_data/GenerateStatementBlockImpl$null11/GPortImpl$clk_dst_i" class="sprotty-edge edge" style="fill:none;stroke:rgb(112, 112, 112);stroke-linejoin:round;"><g><path d="M 0 102 L 169.89453125 102 "/><path d="M 0 102 L 169.89453125 102 " class="clickable"/></g></g><g id="sprotty_ArchitectureBlockImpl$prim_sync_reqack_data/BPortImpl$rst_dst_ni_to_ArchitectureBlockImpl$prim_sync_reqack_data/GenerateStatementBlockImpl$null11/GPortImpl$rst_dst_ni" class="sprotty-edge edge" style="fill:none;stroke:rgb(112, 112, 112);stroke-linejoin:round;"><g><path d="M 0 265 L 84.875 265 C 85.875 265 86.875 264 86.875 263 L 86.875 114 C 86.875 113 87.875 112 88.875 112 L 169.89453125 112 "/><path d="M 0 265 L 84.875 265 C 85.875 265 86.875 264 86.875 263 L 86.875 114 C 86.875 113 87.875 112 88.875 112 L 169.89453125 112 " class="clickable"/></g></g><g id="sprotty_ArchitectureBlockImpl$prim_sync_reqack_data/GenerateStatementBlockImpl$null10" transform="translate(15, 455)" class="generate"><g class="sprotty-block sprotty-block-generate" style="fill:rgb(255, 255, 255);stroke:rgb(48, 48, 48);stroke-dasharray:0px;"><rect x="0" y="0" rx="1" ry="1" width="110" height="50" style="stroke-dasharray:3px, 1px;"/><text x="55" y="12" class="sprotty-block-name" style="cursor:pointer;font-weight:700;fill:rgb(48, 48, 48);stroke:rgba(0, 0, 0, 0);dominant-baseline:middle;text-anchor:middle;"/>undefined</g><g id="sprotty_ArchitectureBlockImpl$prim_sync_reqack_data/GenerateStatementBlockImpl$null10/GenerateStatementBlockImpl$null0" transform="translate(15, 15)" class="generate"><g class="sprotty-block sprotty-block-generate" style="fill:rgb(255, 255, 255);stroke:rgb(48, 48, 48);stroke-dasharray:0px;"><rect x="0" y="0" rx="1" ry="1" width="80" height="20" style="stroke-dasharray:3px, 1px;"/><text x="40" y="12" class="sprotty-block-name" style="cursor:pointer;font-weight:700;fill:rgb(48, 48, 48);stroke:rgba(0, 0, 0, 0);dominant-baseline:middle;text-anchor:middle;"/>undefined</g></g></g><g id="sprotty_ArchitectureBlockImpl$prim_sync_reqack_data/GenerateStatementBlockImpl$null11" transform="translate(169.89453125, 35)" class="generate"><g class="sprotty-block sprotty-block-generate" style="fill:rgb(255, 255, 255);stroke:rgb(48, 48, 48);stroke-dasharray:0px;"><rect x="0" y="0" rx="1" ry="1" width="118.890625" height="178" style="stroke-dasharray:3px, 1px;"/><text x="59.4453125" y="12" class="sprotty-block-name" style="cursor:pointer;font-weight:700;fill:rgb(48, 48, 48);stroke:rgba(0, 0, 0, 0);dominant-baseline:middle;text-anchor:middle;"/>undefined</g><g id="sprotty_ArchitectureBlockImpl$prim_sync_reqack_data/GenerateStatementBlockImpl$null11/AssignmentBlockImpl$data_o/GPortImpl$data_oOUT_to_ArchitectureBlockImpl$prim_sync_reqack_data/GenerateStatementBlockImpl$null11/GPortImpl$data_o" class="sprotty-edge thick edge" style="fill:none;stroke:rgb(112, 112, 112);stroke-linejoin:round;stroke-width:3px;"><g><path d="M 34.71875 26 L 118.890625 26 "/><path d="M 34.71875 26 L 118.890625 26 " class="clickable"/></g></g><g id="sprotty_ArchitectureBlockImpl$prim_sync_reqack_data/GenerateStatementBlockImpl$null11/GPortImpl$data_i_to_ArchitectureBlockImpl$prim_sync_reqack_data/GenerateStatementBlockImpl$null11/AssignmentBlockImpl$data_o/GPortImpl$data_iIN" class="sprotty-edge thick edge" style="fill:none;stroke:rgb(112, 112, 112);stroke-linejoin:round;stroke-width:3px;"><g><path d="M 0 26 L 15 26 "/><path d="M 0 26 L 15 26 " class="clickable"/></g></g><g id="sprotty_ArchitectureBlockImpl$prim_sync_reqack_data/GenerateStatementBlockImpl$null11/GPortImpl$clk_dst_i_to_ArchitectureBlockImpl$prim_sync_reqack_data/GenerateStatementBlockImpl$null11/AlwaysBlockImpl$null4/GPortImpl$clk_dst_iIN" class="sprotty-edge edge" style="fill:none;stroke:rgb(112, 112, 112);stroke-linejoin:round;"><g><path d="M 0 67 L 15 67 "/><path d="M 0 67 L 15 67 " class="clickable"/></g></g><g id="sprotty_ArchitectureBlockImpl$prim_sync_reqack_data/GenerateStatementBlockImpl$null11/GPortImpl$rst_dst_ni_to_ArchitectureBlockImpl$prim_sync_reqack_data/GenerateStatementBlockImpl$null11/AlwaysBlockImpl$null4/GPortImpl$rst_dst_niIN" class="sprotty-edge edge" style="fill:none;stroke:rgb(112, 112, 112);stroke-linejoin:round;"><g><path d="M 0 77 L 15 77 "/><path d="M 0 77 L 15 77 " class="clickable"/></g></g><g id="sprotty_ArchitectureBlockImpl$prim_sync_reqack_data/GenerateStatementBlockImpl$null11/AlwaysBlockImpl$null4" transform="translate(15, 57)" class="statement"><rect x="0" y="0" rx="10" ry="5" width="48.890625" height="30" class="sprotty-node" style="fill:rgb(245, 245, 245);stroke:rgb(112, 112, 112);"/><text class="clickable sprotty-label statementtype" id="sprotty_ArchitectureBlockImpl$prim_sync_reqack_data/GenerateStatementBlockImpl$null11/AlwaysBlockImpl$null4/labeltype" transform="translate(5, 9) translate(18.828125, 9)" style="cursor:default;font-size:8px;font-weight:700;perspective-origin:0.609375px 0px;fill:rgb(112, 112, 112);text-anchor:middle;">always_ff</text><g id="sprotty_ArchitectureBlockImpl$prim_sync_reqack_data/GenerateStatementBlockImpl$null11/AlwaysBlockImpl$null4/GPortImpl$rst_dst_niIN" transform="translate(0, 20)" class="sprotty-hidden hidden" style="display:block;height:0px;width:0px;"/><g id="sprotty_ArchitectureBlockImpl$prim_sync_reqack_data/GenerateStatementBlockImpl$null11/AlwaysBlockImpl$null4/GPortImpl$clk_dst_iIN" transform="translate(0, 10)" class="sprotty-hidden hidden" style="display:block;height:0px;width:0px;"/></g><g id="sprotty_ArchitectureBlockImpl$prim_sync_reqack_data/GenerateStatementBlockImpl$null11/AssignmentBlockImpl$data_o" transform="translate(15, 15)" class="statement"><rect x="0" y="0" rx="10" ry="5" width="19.71875" height="22" class="sprotty-node" style="fill:rgb(245, 245, 245);stroke:rgb(112, 112, 112);"/><text class="clickable sprotty-label statementtype" id="sprotty_ArchitectureBlockImpl$prim_sync_reqack_data/GenerateStatementBlockImpl$null11/AssignmentBlockImpl$data_o/labeltype" transform="translate(5, 5) translate(4.71875, 9)" style="cursor:default;font-size:8px;font-weight:700;perspective-origin:0.140625px 0px;fill:rgb(112, 112, 112);text-anchor:middle;">&lt;=</text><g id="sprotty_ArchitectureBlockImpl$prim_sync_reqack_data/GenerateStatementBlockImpl$null11/AssignmentBlockImpl$data_o/GPortImpl$data_iIN" transform="translate(0, 11)" class="sprotty-hidden hidden" style="display:block;height:0px;width:0px;"/><g id="sprotty_ArchitectureBlockImpl$prim_sync_reqack_data/GenerateStatementBlockImpl$null11/AssignmentBlockImpl$data_o/GPortImpl$data_oOUT" transform="translate(19.71875, 11)" class="sprotty-hidden hidden" style="display:block;height:0px;width:0px;"/></g><g id="sprotty_ArchitectureBlockImpl$prim_sync_reqack_data/GenerateStatementBlockImpl$null11/AssignmentBlockImpl$data_o1" transform="translate(83.890625, 57)" class="statement"><rect x="0" y="0" rx="10" ry="5" width="19.71875" height="22" class="sprotty-node" style="fill:rgb(245, 245, 245);stroke:rgb(112, 112, 112);"/><text class="clickable sprotty-label statementtype" id="sprotty_ArchitectureBlockImpl$prim_sync_reqack_data/GenerateStatementBlockImpl$null11/AssignmentBlockImpl$data_o1/labeltype" transform="translate(5, 5) translate(4.71875, 9)" style="cursor:default;font-size:8px;font-weight:700;perspective-origin:0.140625px 0px;fill:rgb(112, 112, 112);text-anchor:middle;">&lt;=</text></g><g id="sprotty_ArchitectureBlockImpl$prim_sync_reqack_data/GenerateStatementBlockImpl$null11/AssignmentBlockImpl$data_d" transform="translate(83.890625, 99)" class="statement"><rect x="0" y="0" rx="10" ry="5" width="19.71875" height="22" class="sprotty-node" style="fill:rgb(245, 245, 245);stroke:rgb(112, 112, 112);"/><text class="clickable sprotty-label statementtype" id="sprotty_ArchitectureBlockImpl$prim_sync_reqack_data/GenerateStatementBlockImpl$null11/AssignmentBlockImpl$data_d/labeltype" transform="translate(5, 5) translate(4.71875, 9)" style="cursor:default;font-size:8px;font-weight:700;perspective-origin:0.140625px 0px;fill:rgb(112, 112, 112);text-anchor:middle;">&lt;=</text></g><g id="sprotty_ArchitectureBlockImpl$prim_sync_reqack_data/GenerateStatementBlockImpl$null11/AssignmentBlockImpl$data_we" transform="translate(83.890625, 141)" class="statement"><rect x="0" y="0" rx="10" ry="5" width="19.71875" height="22" class="sprotty-node" style="fill:rgb(245, 245, 245);stroke:rgb(112, 112, 112);"/><text class="clickable sprotty-label statementtype" id="sprotty_ArchitectureBlockImpl$prim_sync_reqack_data/GenerateStatementBlockImpl$null11/AssignmentBlockImpl$data_we/labeltype" transform="translate(5, 5) translate(4.71875, 9)" style="cursor:default;font-size:8px;font-weight:700;perspective-origin:0.140625px 0px;fill:rgb(112, 112, 112);text-anchor:middle;">&lt;=</text></g><g id="sprotty_ArchitectureBlockImpl$prim_sync_reqack_data/GenerateStatementBlockImpl$null11/GPortImpl$rst_dst_ni" transform="translate(0, 77)" class="triangle"><path d="M 0,0 L 5,2.5 L 0,5 Z" transform="translate(-1.67, -2.5)" class="sprotty-port" style="fill:rgb(48, 48, 48);stroke:rgb(48, 48, 48);"/></g><g id="sprotty_ArchitectureBlockImpl$prim_sync_reqack_data/GenerateStatementBlockImpl$null11/GPortImpl$clk_dst_i" transform="translate(0, 67)" class="triangle"><path d="M 0,0 L 5,2.5 L 0,5 Z" transform="translate(-1.67, -2.5)" class="sprotty-port" style="fill:rgb(48, 48, 48);stroke:rgb(48, 48, 48);"/></g><g id="sprotty_ArchitectureBlockImpl$prim_sync_reqack_data/GenerateStatementBlockImpl$null11/GPortImpl$data_i" transform="translate(0, 26)" class="triangle"><path d="M 0,0 L 5,2.5 L 0,5 Z" transform="translate(-1.67, -2.5)" class="sprotty-port" style="fill:rgb(48, 48, 48);stroke:rgb(48, 48, 48);"/></g><g id="sprotty_ArchitectureBlockImpl$prim_sync_reqack_data/GenerateStatementBlockImpl$null11/GPortImpl$data_o" transform="translate(118.890625, 26)" class="triangle"><path d="M 0,0 L 5,2.5 L 0,5 Z" transform="translate(-1.67, -2.5)" class="sprotty-port" style="fill:rgb(48, 48, 48);stroke:rgb(48, 48, 48);"/></g></g><g id="sprotty_ArchitectureBlockImpl$prim_sync_reqack_data/InstantiationBlockImpl$u_prim_sync_reqack" transform="translate(116.875, 233)" class="instantiation"><g class="sprotty-block" style="fill:rgb(255, 255, 255);stroke:rgb(48, 48, 48);stroke-dasharray:0px;"><rect x="0" y="0" rx="1" ry="1" width="330.96875" height="196"/><text x="165.484375" y="12" class="sprotty-block-name" style="cursor:pointer;font-weight:700;perspective-origin:165.641px 0px;fill:rgb(48, 48, 48);stroke:rgba(0, 0, 0, 0);dominant-baseline:middle;text-anchor:middle;">u_prim_sync_reqack : prim_sync_reqack</text><line x1="0" y1="20" x2="330.96875" y2="20"/></g><g id="sprotty_ArchitectureBlockImpl$prim_sync_reqack_data/InstantiationBlockImpl$u_prim_sync_reqack/BPortImpl$dst_ack_i" transform="translate(0, 178)" class="triangle"><path d="M 0,0 L 5,2.5 L 0,5 Z" transform="translate(-1.67, -2.5)" class="sprotty-port" style="fill:rgb(48, 48, 48);stroke:rgb(48, 48, 48);"/><text class="clickable sprotty-label port" id="sprotty_ArchitectureBlockImpl$prim_sync_reqack_data/InstantiationBlockImpl$u_prim_sync_reqack/BPortImpl$dst_ack_i/label" transform="translate(6, -9) translate(26.78125, 14)" style="cursor:default;font-size:12px;perspective-origin:0px 0px;fill:rgb(48, 48, 48);text-anchor:middle;">dst_ack_i</text></g><g id="sprotty_ArchitectureBlockImpl$prim_sync_reqack_data/InstantiationBlockImpl$u_prim_sync_reqack/BPortImpl$src_req_i" transform="translate(0, 150)" class="triangle"><path d="M 0,0 L 5,2.5 L 0,5 Z" transform="translate(-1.67, -2.5)" class="sprotty-port" style="fill:rgb(48, 48, 48);stroke:rgb(48, 48, 48);"/><text class="clickable sprotty-label port" id="sprotty_ArchitectureBlockImpl$prim_sync_reqack_data/InstantiationBlockImpl$u_prim_sync_reqack/BPortImpl$src_req_i/label" transform="translate(6, -9) translate(25.796875, 14)" style="cursor:default;font-size:12px;perspective-origin:0px 0px;fill:rgb(48, 48, 48);text-anchor:middle;">src_req_i</text></g><g id="sprotty_ArchitectureBlockImpl$prim_sync_reqack_data/InstantiationBlockImpl$u_prim_sync_reqack/BPortImpl$rst_dst_ni" transform="translate(0, 122)" class="triangle"><path d="M 0,0 L 5,2.5 L 0,5 Z" transform="translate(-1.67, -2.5)" class="sprotty-port" style="fill:rgb(48, 48, 48);stroke:rgb(48, 48, 48);"/><text class="clickable sprotty-label port" id="sprotty_ArchitectureBlockImpl$prim_sync_reqack_data/InstantiationBlockImpl$u_prim_sync_reqack/BPortImpl$rst_dst_ni/label" transform="translate(6, -9) translate(27.9375, 14)" style="cursor:default;font-size:12px;perspective-origin:0px 0px;fill:rgb(48, 48, 48);text-anchor:middle;">rst_dst_ni</text></g><g id="sprotty_ArchitectureBlockImpl$prim_sync_reqack_data/InstantiationBlockImpl$u_prim_sync_reqack/BPortImpl$clk_dst_i" transform="translate(0, 94)" class="triangle"><path d="M 0,0 L 5,2.5 L 0,5 Z" transform="translate(-1.67, -2.5)" class="sprotty-port" style="fill:rgb(48, 48, 48);stroke:rgb(48, 48, 48);"/><text class="clickable sprotty-label port" id="sprotty_ArchitectureBlockImpl$prim_sync_reqack_data/InstantiationBlockImpl$u_prim_sync_reqack/BPortImpl$clk_dst_i/label" transform="translate(6, -9) translate(25.09375, 14)" style="cursor:default;font-size:12px;perspective-origin:0px 0px;fill:rgb(48, 48, 48);text-anchor:middle;">clk_dst_i</text></g><g id="sprotty_ArchitectureBlockImpl$prim_sync_reqack_data/InstantiationBlockImpl$u_prim_sync_reqack/BPortImpl$rst_src_ni" transform="translate(0, 66)" class="triangle"><path d="M 0,0 L 5,2.5 L 0,5 Z" transform="translate(-1.67, -2.5)" class="sprotty-port" style="fill:rgb(48, 48, 48);stroke:rgb(48, 48, 48);"/><text class="clickable sprotty-label port" id="sprotty_ArchitectureBlockImpl$prim_sync_reqack_data/InstantiationBlockImpl$u_prim_sync_reqack/BPortImpl$rst_src_ni/label" transform="translate(6, -9) translate(27.390625, 14)" style="cursor:default;font-size:12px;perspective-origin:0px 0px;fill:rgb(48, 48, 48);text-anchor:middle;">rst_src_ni</text></g><g id="sprotty_ArchitectureBlockImpl$prim_sync_reqack_data/InstantiationBlockImpl$u_prim_sync_reqack/BPortImpl$clk_src_i" transform="translate(0, 38)" class="triangle"><path d="M 0,0 L 5,2.5 L 0,5 Z" transform="translate(-1.67, -2.5)" class="sprotty-port" style="fill:rgb(48, 48, 48);stroke:rgb(48, 48, 48);"/><text class="clickable sprotty-label port" id="sprotty_ArchitectureBlockImpl$prim_sync_reqack_data/InstantiationBlockImpl$u_prim_sync_reqack/BPortImpl$clk_src_i/label" transform="translate(6, -9) translate(24.5625, 14)" style="cursor:default;font-size:12px;perspective-origin:0px 0px;fill:rgb(48, 48, 48);text-anchor:middle;">clk_src_i</text></g><g id="sprotty_ArchitectureBlockImpl$prim_sync_reqack_data/InstantiationBlockImpl$u_prim_sync_reqack/BPortImpl$src_ack_o" transform="translate(330.96875, 38)" class="triangle"><path d="M 0,0 L 5,2.5 L 0,5 Z" transform="translate(-1.67, -2.5)" class="sprotty-port" style="fill:rgb(48, 48, 48);stroke:rgb(48, 48, 48);"/><text class="clickable sprotty-label port" id="sprotty_ArchitectureBlockImpl$prim_sync_reqack_data/InstantiationBlockImpl$u_prim_sync_reqack/BPortImpl$src_ack_o/label" transform="translate(-62.4375, -9) translate(28.21875, 14)" style="cursor:default;font-size:12px;perspective-origin:0px 0px;fill:rgb(48, 48, 48);text-anchor:middle;">src_ack_o</text></g><g id="sprotty_ArchitectureBlockImpl$prim_sync_reqack_data/InstantiationBlockImpl$u_prim_sync_reqack/BPortImpl$dst_req_o" transform="translate(330.96875, 178)" class="triangle"><path d="M 0,0 L 5,2.5 L 0,5 Z" transform="translate(-1.67, -2.5)" class="sprotty-port" style="fill:rgb(48, 48, 48);stroke:rgb(48, 48, 48);"/><text class="clickable sprotty-label port" id="sprotty_ArchitectureBlockImpl$prim_sync_reqack_data/InstantiationBlockImpl$u_prim_sync_reqack/BPortImpl$dst_req_o/label" transform="translate(-62.625, -9) translate(28.3125, 14)" style="cursor:default;font-size:12px;perspective-origin:0px 0px;fill:rgb(48, 48, 48);text-anchor:middle;">dst_req_o</text></g></g><g id="sprotty_ArchitectureBlockImpl$prim_sync_reqack_data/BPortImpl$data_i" transform="translate(0, 61)" class="triangle"><path d="M 0,0 L 5,2.5 L 0,5 Z" transform="translate(-1.67, -2.5)" class="sprotty-port" style="fill:rgb(48, 48, 48);stroke:rgb(48, 48, 48);"/><text class="clickable sprotty-label port" id="sprotty_ArchitectureBlockImpl$prim_sync_reqack_data/BPortImpl$data_i/label" transform="translate(6, 6) translate(17.53125, 14)" style="cursor:default;font-size:12px;perspective-origin:0px 0px;fill:rgb(48, 48, 48);text-anchor:middle;">data_i</text></g><g id="sprotty_ArchitectureBlockImpl$prim_sync_reqack_data/BPortImpl$dst_ack_i" transform="translate(0, 411)" class="triangle"><path d="M 0,0 L 5,2.5 L 0,5 Z" transform="translate(-1.67, -2.5)" class="sprotty-port" style="fill:rgb(48, 48, 48);stroke:rgb(48, 48, 48);"/><text class="clickable sprotty-label port" id="sprotty_ArchitectureBlockImpl$prim_sync_reqack_data/BPortImpl$dst_ack_i/label" transform="translate(6, 6) translate(26.78125, 14)" style="cursor:default;font-size:12px;perspective-origin:0px 0px;fill:rgb(48, 48, 48);text-anchor:middle;">dst_ack_i</text></g><g id="sprotty_ArchitectureBlockImpl$prim_sync_reqack_data/BPortImpl$src_req_i" transform="translate(0, 377)" class="triangle"><path d="M 0,0 L 5,2.5 L 0,5 Z" transform="translate(-1.67, -2.5)" class="sprotty-port" style="fill:rgb(48, 48, 48);stroke:rgb(48, 48, 48);"/><text class="clickable sprotty-label port" id="sprotty_ArchitectureBlockImpl$prim_sync_reqack_data/BPortImpl$src_req_i/label" transform="translate(6, 6) translate(25.796875, 14)" style="cursor:default;font-size:12px;perspective-origin:0px 0px;fill:rgb(48, 48, 48);text-anchor:middle;">src_req_i</text></g><g id="sprotty_ArchitectureBlockImpl$prim_sync_reqack_data/BPortImpl$rst_dst_ni" transform="translate(0, 265)" class="triangle"><path d="M 0,0 L 5,2.5 L 0,5 Z" transform="translate(-1.67, -2.5)" class="sprotty-port" style="fill:rgb(48, 48, 48);stroke:rgb(48, 48, 48);"/><text class="clickable sprotty-label port" id="sprotty_ArchitectureBlockImpl$prim_sync_reqack_data/BPortImpl$rst_dst_ni/label" transform="translate(6, 6) translate(27.9375, 14)" style="cursor:default;font-size:12px;perspective-origin:0px 0px;fill:rgb(48, 48, 48);text-anchor:middle;">rst_dst_ni</text></g><g id="sprotty_ArchitectureBlockImpl$prim_sync_reqack_data/BPortImpl$clk_dst_i" transform="translate(0, 102)" class="triangle"><path d="M 0,0 L 5,2.5 L 0,5 Z" transform="translate(-1.67, -2.5)" class="sprotty-port" style="fill:rgb(48, 48, 48);stroke:rgb(48, 48, 48);"/><text class="clickable sprotty-label port" id="sprotty_ArchitectureBlockImpl$prim_sync_reqack_data/BPortImpl$clk_dst_i/label" transform="translate(6, 6) translate(25.09375, 14)" style="cursor:default;font-size:12px;perspective-origin:0px 0px;fill:rgb(48, 48, 48);text-anchor:middle;">clk_dst_i</text></g><g id="sprotty_ArchitectureBlockImpl$prim_sync_reqack_data/BPortImpl$rst_src_ni" transform="translate(0, 299)" class="triangle"><path d="M 0,0 L 5,2.5 L 0,5 Z" transform="translate(-1.67, -2.5)" class="sprotty-port" style="fill:rgb(48, 48, 48);stroke:rgb(48, 48, 48);"/><text class="clickable sprotty-label port" id="sprotty_ArchitectureBlockImpl$prim_sync_reqack_data/BPortImpl$rst_src_ni/label" transform="translate(6, 6) translate(27.390625, 14)" style="cursor:default;font-size:12px;perspective-origin:0px 0px;fill:rgb(48, 48, 48);text-anchor:middle;">rst_src_ni</text></g><g id="sprotty_ArchitectureBlockImpl$prim_sync_reqack_data/BPortImpl$clk_src_i" transform="translate(0, 231)" class="triangle"><path d="M 0,0 L 5,2.5 L 0,5 Z" transform="translate(-1.67, -2.5)" class="sprotty-port" style="fill:rgb(48, 48, 48);stroke:rgb(48, 48, 48);"/><text class="clickable sprotty-label port" id="sprotty_ArchitectureBlockImpl$prim_sync_reqack_data/BPortImpl$clk_src_i/label" transform="translate(6, 6) translate(24.5625, 14)" style="cursor:default;font-size:12px;perspective-origin:0px 0px;fill:rgb(48, 48, 48);text-anchor:middle;">clk_src_i</text></g><g id="sprotty_ArchitectureBlockImpl$prim_sync_reqack_data/BPortImpl$src_ack_o" transform="translate(525.46875, 271)" class="triangle"><path d="M 0,0 L 5,2.5 L 0,5 Z" transform="translate(-1.67, -2.5)" class="sprotty-port" style="fill:rgb(48, 48, 48);stroke:rgb(48, 48, 48);"/><text class="clickable sprotty-label port" id="sprotty_ArchitectureBlockImpl$prim_sync_reqack_data/BPortImpl$src_ack_o/label" transform="translate(-62.4375, 6) translate(28.21875, 14)" style="cursor:default;font-size:12px;perspective-origin:0px 0px;fill:rgb(48, 48, 48);text-anchor:middle;">src_ack_o</text></g><g id="sprotty_ArchitectureBlockImpl$prim_sync_reqack_data/BPortImpl$dst_req_o" transform="translate(525.46875, 411)" class="triangle"><path d="M 0,0 L 5,2.5 L 0,5 Z" transform="translate(-1.67, -2.5)" class="sprotty-port" style="fill:rgb(48, 48, 48);stroke:rgb(48, 48, 48);"/><text class="clickable sprotty-label port" id="sprotty_ArchitectureBlockImpl$prim_sync_reqack_data/BPortImpl$dst_req_o/label" transform="translate(-62.625, 6) translate(28.3125, 14)" style="cursor:default;font-size:12px;perspective-origin:0px 0px;fill:rgb(48, 48, 48);text-anchor:middle;">dst_req_o</text></g><g id="sprotty_ArchitectureBlockImpl$prim_sync_reqack_data/BPortImpl$data_o" transform="translate(525.46875, 61)" class="triangle"><path d="M 0,0 L 5,2.5 L 0,5 Z" transform="translate(-1.67, -2.5)" class="sprotty-port" style="fill:rgb(48, 48, 48);stroke:rgb(48, 48, 48);"/><text class="clickable sprotty-label port" id="sprotty_ArchitectureBlockImpl$prim_sync_reqack_data/BPortImpl$data_o/label" transform="translate(-45.03125, 6) translate(19.515625, 14)" style="cursor:default;font-size:12px;perspective-origin:0px 0px;fill:rgb(48, 48, 48);text-anchor:middle;">data_o</text></g></g></g></svg>