<svg xmlns="http://www.w3.org/2000/svg" id="sprotty_work.prim_pad_wrapper" class="sprotty-graph sprotty-block-diagram blockdiagram" style="font-family:&quot;Noto Sans&quot;, Helvetica, Arial, sans-serif;perspective-origin:0px 0px;transform-origin:0px 0px;" version="1.1" viewBox="7 7 669.796875 466" width="669.796875" height="466"><g transform="scale(1) translate(0,0)"><g id="sprotty_ArchitectureBlockImpl$prim_pad_wrapper" transform="translate(12, 12)" class="architecture"><g class="sprotty-block" style="fill:rgb(255, 255, 255);stroke:rgb(48, 48, 48);stroke-dasharray:0px;"><rect x="0" y="0" rx="1" ry="1" width="659.796875" height="456"/><text x="329.8984375" y="12" class="sprotty-block-name" style="cursor:pointer;font-weight:700;perspective-origin:329.906px 0px;fill:rgb(48, 48, 48);stroke:rgba(0, 0, 0, 0);dominant-baseline:middle;text-anchor:middle;">prim_pad_wrapper</text><line x1="0" y1="20" x2="659.796875" y2="20"/></g><g id="sprotty_ArchitectureBlockImpl$prim_pad_wrapper/GenerateStatementBlockImpl$null7/GPortImpl$inout_io_to_ArchitectureBlockImpl$prim_pad_wrapper/BPortImpl$inout_io" class="sprotty-edge edge" style="fill:none;stroke:rgb(112, 112, 112);stroke-linejoin:round;"><g><path d="M 580.453125 60 L 588.453125 60 C 589.453125 60 590.453125 59 590.453125 58 L 590.453125 37 C 590.453125 36 589.453125 35 588.453125 35 L 0 35 "/><path d="M 580.453125 60 L 588.453125 60 C 589.453125 60 590.453125 59 590.453125 58 L 590.453125 37 C 590.453125 36 589.453125 35 588.453125 35 L 0 35 " class="clickable"/></g></g><g id="sprotty_ArchitectureBlockImpl$prim_pad_wrapper/GenerateStatementBlockImpl$null7/GPortImpl$in_o_to_ArchitectureBlockImpl$prim_pad_wrapper/BPortImpl$in_o" class="sprotty-edge edge" style="fill:none;stroke:rgb(112, 112, 112);stroke-linejoin:round;"><g><path d="M 580.453125 108 L 659.796875 108 "/><path d="M 580.453125 108 L 659.796875 108 " class="clickable"/></g></g><g id="sprotty_ArchitectureBlockImpl$prim_pad_wrapper/GenerateStatementBlockImpl$null7/GPortImpl$warl_o_to_ArchitectureBlockImpl$prim_pad_wrapper/BPortImpl$warl_o" class="sprotty-edge thick edge" style="fill:none;stroke:rgb(112, 112, 112);stroke-linejoin:round;stroke-width:3px;"><g><path d="M 580.453125 408 L 659.796875 408 "/><path d="M 580.453125 408 L 659.796875 408 " class="clickable"/></g></g><g id="sprotty_ArchitectureBlockImpl$prim_pad_wrapper/BPortImpl$inout_io_to_ArchitectureBlockImpl$prim_pad_wrapper/GenerateStatementBlockImpl$null7/GPortImpl$inout_io" class="sprotty-edge edge" style="fill:none;stroke:rgb(112, 112, 112);stroke-linejoin:round;"><g><path d="M 0 35 L 588.453125 35 C 589.453125 35 590.453125 36 590.453125 37 L 590.453125 58 C 590.453125 59 589.453125 60 588.453125 60 L 580.453125 60 "/><path d="M 0 35 L 588.453125 35 C 589.453125 35 590.453125 36 590.453125 37 L 590.453125 58 C 590.453125 59 589.453125 60 588.453125 60 L 580.453125 60 " class="clickable"/></g></g><g id="sprotty_ArchitectureBlockImpl$prim_pad_wrapper/BPortImpl$ie_i_to_ArchitectureBlockImpl$prim_pad_wrapper/GenerateStatementBlockImpl$null7/GPortImpl$ie_i" class="sprotty-edge edge" style="fill:none;stroke:rgb(112, 112, 112);stroke-linejoin:round;"><g><path d="M 0 130 L 76 130 C 77 130 78 131 78 132 L 78 152 C 78 153 79 154 80 154 L 88 154 "/><path d="M 0 130 L 76 130 C 77 130 78 131 78 132 L 78 152 C 78 153 79 154 80 154 L 88 154 " class="clickable"/></g></g><g id="sprotty_ArchitectureBlockImpl$prim_pad_wrapper/BPortImpl$out_i_to_ArchitectureBlockImpl$prim_pad_wrapper/GenerateStatementBlockImpl$null7/GPortImpl$out_i" class="sprotty-edge edge" style="fill:none;stroke:rgb(112, 112, 112);stroke-linejoin:round;"><g><path d="M 0 164 L 88 164 "/><path d="M 0 164 L 88 164 " class="clickable"/></g></g><g id="sprotty_ArchitectureBlockImpl$prim_pad_wrapper/BPortImpl$oe_i_to_ArchitectureBlockImpl$prim_pad_wrapper/GenerateStatementBlockImpl$null7/GPortImpl$oe_i" class="sprotty-edge edge" style="fill:none;stroke:rgb(112, 112, 112);stroke-linejoin:round;"><g><path d="M 0 380 L 88 380 "/><path d="M 0 380 L 88 380 " class="clickable"/></g></g><g id="sprotty_ArchitectureBlockImpl$prim_pad_wrapper/BPortImpl$attr_i_to_ArchitectureBlockImpl$prim_pad_wrapper/GenerateStatementBlockImpl$null7/GPortImpl$attr_i" class="sprotty-edge thick edge" style="fill:none;stroke:rgb(112, 112, 112);stroke-linejoin:round;stroke-width:3px;"><g><path d="M 0 414 L 76 414 C 77 414 78 413 78 412 L 78 410 C 78 409 79 408 80 408 L 88 408 "/><path d="M 0 414 L 76 414 C 77 414 78 413 78 412 L 78 410 C 78 409 79 408 80 408 L 88 408 " class="clickable"/></g></g><g id="sprotty_ArchitectureBlockImpl$prim_pad_wrapper/GenerateStatementBlockImpl$null7" transform="translate(88, 45)" class="generate"><g class="sprotty-block sprotty-block-generate" style="fill:rgb(255, 255, 255);stroke:rgb(48, 48, 48);stroke-dasharray:0px;"><rect x="0" y="0" rx="1" ry="1" width="492.453125" height="396" style="stroke-dasharray:3px, 1px;"/><text x="246.2265625" y="12" class="sprotty-block-name" style="cursor:pointer;font-weight:700;fill:rgb(48, 48, 48);stroke:rgba(0, 0, 0, 0);dominant-baseline:middle;text-anchor:middle;"/>undefined</g><g id="sprotty_ArchitectureBlockImpl$prim_pad_wrapper/GenerateStatementBlockImpl$null7/InstantiationBlockImpl$u_impl_xilinx/BPortImpl$inout_io_to_ArchitectureBlockImpl$prim_pad_wrapper/GenerateStatementBlockImpl$null7/GPortImpl$inout_io" class="sprotty-edge edge" style="fill:none;stroke:rgb(112, 112, 112);stroke-linejoin:round;"><g><path d="M 88.16517857142857 251 L 67 251 C 66 251 65 250 65 249 L 65 205 C 65 204 66 203 67 203 L 445.453125 203 C 446.453125 203 447.453125 202 447.453125 201 L 447.453125 17 C 447.453125 16 448.453125 15 449.453125 15 L 492.453125 15 "/><path d="M 88.16517857142857 251 L 67 251 C 66 251 65 250 65 249 L 65 205 C 65 204 66 203 67 203 L 445.453125 203 C 446.453125 203 447.453125 202 447.453125 201 L 447.453125 17 C 447.453125 16 448.453125 15 449.453125 15 L 492.453125 15 " class="clickable"/></g></g><g id="sprotty_ArchitectureBlockImpl$prim_pad_wrapper/GenerateStatementBlockImpl$null7/InstantiationBlockImpl$u_impl_generic/BPortImpl$inout_io_to_ArchitectureBlockImpl$prim_pad_wrapper/GenerateStatementBlockImpl$null7/GPortImpl$inout_io" class="sprotty-edge edge" style="fill:none;stroke:rgb(112, 112, 112);stroke-linejoin:round;"><g><path d="M 75 63 L 67 63 C 66 63 65 62 65 61 L 65 17 C 65 16 66 15 67 15 L 492.453125 15 "/><path d="M 75 63 L 67 63 C 66 63 65 62 65 61 L 65 17 C 65 16 66 15 67 15 L 492.453125 15 " class="clickable"/></g></g><g id="sprotty_ArchitectureBlockImpl$prim_pad_wrapper/GenerateStatementBlockImpl$null7/InstantiationBlockImpl$u_impl_xilinx/BPortImpl$in_o_to_ArchitectureBlockImpl$prim_pad_wrapper/GenerateStatementBlockImpl$null7/GPortImpl$in_o" class="sprotty-edge edge" style="fill:none;stroke:rgb(112, 112, 112);stroke-linejoin:round;"><g><path d="M 419.89955357142856 251 L 465.453125 251 C 466.453125 251 467.453125 250 467.453125 249 L 467.453125 65 C 467.453125 64 468.453125 63 469.453125 63 L 492.453125 63 "/><path d="M 419.89955357142856 251 L 465.453125 251 C 466.453125 251 467.453125 250 467.453125 249 L 467.453125 65 C 467.453125 64 468.453125 63 469.453125 63 L 492.453125 63 " class="clickable"/></g><circle r="2" id="sprotty_ArchitectureBlockImpl$prim_pad_wrapper/GenerateStatementBlockImpl$null7/InstantiationBlockImpl$u_impl_xilinx/BPortImpl$in_o_to_ArchitectureBlockImpl$prim_pad_wrapper/GenerateStatementBlockImpl$null7/GPortImpl$in_o/junction0" transform="translate(467.453125, 63)" class="sprotty-junction junction" style="fill:rgb(112, 112, 112);stroke:none;"/></g><g id="sprotty_ArchitectureBlockImpl$prim_pad_wrapper/GenerateStatementBlockImpl$null7/InstantiationBlockImpl$u_impl_generic/BPortImpl$in_o_to_ArchitectureBlockImpl$prim_pad_wrapper/GenerateStatementBlockImpl$null7/GPortImpl$in_o" class="sprotty-edge edge" style="fill:none;stroke:rgb(112, 112, 112);stroke-linejoin:round;"><g><path d="M 437.453125 63 L 492.453125 63 "/><path d="M 437.453125 63 L 492.453125 63 " class="clickable"/></g></g><g id="sprotty_ArchitectureBlockImpl$prim_pad_wrapper/GenerateStatementBlockImpl$null7/InstantiationBlockImpl$u_impl_xilinx/BPortImpl$warl_o_to_ArchitectureBlockImpl$prim_pad_wrapper/GenerateStatementBlockImpl$null7/GPortImpl$warl_o" class="sprotty-edge thick edge" style="fill:none;stroke:rgb(112, 112, 112);stroke-linejoin:round;stroke-width:3px;"><g><path d="M 419.89955357142856 363 L 492.453125 363 "/><path d="M 419.89955357142856 363 L 492.453125 363 " class="clickable"/></g></g><g id="sprotty_ArchitectureBlockImpl$prim_pad_wrapper/GenerateStatementBlockImpl$null7/InstantiationBlockImpl$u_impl_generic/BPortImpl$warl_o_to_ArchitectureBlockImpl$prim_pad_wrapper/GenerateStatementBlockImpl$null7/GPortImpl$warl_o" class="sprotty-edge thick edge" style="fill:none;stroke:rgb(112, 112, 112);stroke-linejoin:round;stroke-width:3px;"><g><path d="M 437.453125 175 L 455.453125 175 C 456.453125 175 457.453125 176 457.453125 177 L 457.453125 361 C 457.453125 362 458.453125 363 459.453125 363 L 492.453125 363 "/><path d="M 437.453125 175 L 455.453125 175 C 456.453125 175 457.453125 176 457.453125 177 L 457.453125 361 C 457.453125 362 458.453125 363 459.453125 363 L 492.453125 363 " class="clickable"/></g><circle r="3" id="sprotty_ArchitectureBlockImpl$prim_pad_wrapper/GenerateStatementBlockImpl$null7/InstantiationBlockImpl$u_impl_generic/BPortImpl$warl_o_to_ArchitectureBlockImpl$prim_pad_wrapper/GenerateStatementBlockImpl$null7/GPortImpl$warl_o/junction0" transform="translate(457.453125, 363)" class="sprotty-junction thick" style="fill:rgb(112, 112, 112);stroke:none;"/></g><g id="sprotty_ArchitectureBlockImpl$prim_pad_wrapper/GenerateStatementBlockImpl$null7/GPortImpl$inout_io_to_ArchitectureBlockImpl$prim_pad_wrapper/GenerateStatementBlockImpl$null7/InstantiationBlockImpl$u_impl_xilinx/BPortImpl$inout_io" class="sprotty-edge edge" style="fill:none;stroke:rgb(112, 112, 112);stroke-linejoin:round;"><g><path d="M 492.453125 15 L 449.453125 15 C 448.453125 15 447.453125 16 447.453125 17 L 447.453125 201 C 447.453125 202 446.453125 203 445.453125 203 L 67 203 C 66 203 65 204 65 205 L 65 249 C 65 250 66 251 67 251 L 88.16517857142857 251 "/><path d="M 492.453125 15 L 449.453125 15 C 448.453125 15 447.453125 16 447.453125 17 L 447.453125 201 C 447.453125 202 446.453125 203 445.453125 203 L 67 203 C 66 203 65 204 65 205 L 65 249 C 65 250 66 251 67 251 L 88.16517857142857 251 " class="clickable"/></g><circle r="2" id="sprotty_ArchitectureBlockImpl$prim_pad_wrapper/GenerateStatementBlockImpl$null7/GPortImpl$inout_io_to_ArchitectureBlockImpl$prim_pad_wrapper/GenerateStatementBlockImpl$null7/InstantiationBlockImpl$u_impl_xilinx/BPortImpl$inout_io/junction0" transform="translate(447.453125, 15)" class="sprotty-junction junction" style="fill:rgb(112, 112, 112);stroke:none;"/></g><g id="sprotty_ArchitectureBlockImpl$prim_pad_wrapper/GenerateStatementBlockImpl$null7/GPortImpl$ie_i_to_ArchitectureBlockImpl$prim_pad_wrapper/GenerateStatementBlockImpl$null7/InstantiationBlockImpl$u_impl_xilinx/BPortImpl$ie_i" class="sprotty-edge edge" style="fill:none;stroke:rgb(112, 112, 112);stroke-linejoin:round;"><g><path d="M 0 109 L 53 109 C 54 109 55 110 55 111 L 55 277 C 55 278 56 279 57 279 L 88.16517857142857 279 "/><path d="M 0 109 L 53 109 C 54 109 55 110 55 111 L 55 277 C 55 278 56 279 57 279 L 88.16517857142857 279 " class="clickable"/></g><circle r="2" id="sprotty_ArchitectureBlockImpl$prim_pad_wrapper/GenerateStatementBlockImpl$null7/GPortImpl$ie_i_to_ArchitectureBlockImpl$prim_pad_wrapper/GenerateStatementBlockImpl$null7/InstantiationBlockImpl$u_impl_xilinx/BPortImpl$ie_i/junction0" transform="translate(55, 109)" class="sprotty-junction junction" style="fill:rgb(112, 112, 112);stroke:none;"/></g><g id="sprotty_ArchitectureBlockImpl$prim_pad_wrapper/GenerateStatementBlockImpl$null7/GPortImpl$out_i_to_ArchitectureBlockImpl$prim_pad_wrapper/GenerateStatementBlockImpl$null7/InstantiationBlockImpl$u_impl_xilinx/BPortImpl$out_i" class="sprotty-edge edge" style="fill:none;stroke:rgb(112, 112, 112);stroke-linejoin:round;"><g><path d="M 0 119 L 23 119 C 24 119 25 120 25 121 L 25 305 C 25 306 26 307 27 307 L 88.16517857142857 307 "/><path d="M 0 119 L 23 119 C 24 119 25 120 25 121 L 25 305 C 25 306 26 307 27 307 L 88.16517857142857 307 " class="clickable"/></g><circle r="2" id="sprotty_ArchitectureBlockImpl$prim_pad_wrapper/GenerateStatementBlockImpl$null7/GPortImpl$out_i_to_ArchitectureBlockImpl$prim_pad_wrapper/GenerateStatementBlockImpl$null7/InstantiationBlockImpl$u_impl_xilinx/BPortImpl$out_i/junction0" transform="translate(25, 119)" class="sprotty-junction junction" style="fill:rgb(112, 112, 112);stroke:none;"/></g><g id="sprotty_ArchitectureBlockImpl$prim_pad_wrapper/GenerateStatementBlockImpl$null7/GPortImpl$oe_i_to_ArchitectureBlockImpl$prim_pad_wrapper/GenerateStatementBlockImpl$null7/InstantiationBlockImpl$u_impl_xilinx/BPortImpl$oe_i" class="sprotty-edge edge" style="fill:none;stroke:rgb(112, 112, 112);stroke-linejoin:round;"><g><path d="M 0 335 L 88.16517857142857 335 "/><path d="M 0 335 L 88.16517857142857 335 " class="clickable"/></g></g><g id="sprotty_ArchitectureBlockImpl$prim_pad_wrapper/GenerateStatementBlockImpl$null7/GPortImpl$attr_i_to_ArchitectureBlockImpl$prim_pad_wrapper/GenerateStatementBlockImpl$null7/InstantiationBlockImpl$u_impl_xilinx/BPortImpl$attr_i" class="sprotty-edge thick edge" style="fill:none;stroke:rgb(112, 112, 112);stroke-linejoin:round;stroke-width:3px;"><g><path d="M 0 363 L 88.16517857142857 363 "/><path d="M 0 363 L 88.16517857142857 363 " class="clickable"/></g></g><g id="sprotty_ArchitectureBlockImpl$prim_pad_wrapper/GenerateStatementBlockImpl$null7/GPortImpl$inout_io_to_ArchitectureBlockImpl$prim_pad_wrapper/GenerateStatementBlockImpl$null7/InstantiationBlockImpl$u_impl_generic/BPortImpl$inout_io" class="sprotty-edge edge" style="fill:none;stroke:rgb(112, 112, 112);stroke-linejoin:round;"><g><path d="M 492.453125 15 L 67 15 C 66 15 65 16 65 17 L 65 61 C 65 62 66 63 67 63 L 75 63 "/><path d="M 492.453125 15 L 67 15 C 66 15 65 16 65 17 L 65 61 C 65 62 66 63 67 63 L 75 63 " class="clickable"/></g></g><g id="sprotty_ArchitectureBlockImpl$prim_pad_wrapper/GenerateStatementBlockImpl$null7/GPortImpl$ie_i_to_ArchitectureBlockImpl$prim_pad_wrapper/GenerateStatementBlockImpl$null7/InstantiationBlockImpl$u_impl_generic/BPortImpl$ie_i" class="sprotty-edge edge" style="fill:none;stroke:rgb(112, 112, 112);stroke-linejoin:round;"><g><path d="M 0 109 L 53 109 C 54 109 55 108 55 107 L 55 93 C 55 92 56 91 57 91 L 75 91 "/><path d="M 0 109 L 53 109 C 54 109 55 108 55 107 L 55 93 C 55 92 56 91 57 91 L 75 91 " class="clickable"/></g></g><g id="sprotty_ArchitectureBlockImpl$prim_pad_wrapper/GenerateStatementBlockImpl$null7/GPortImpl$out_i_to_ArchitectureBlockImpl$prim_pad_wrapper/GenerateStatementBlockImpl$null7/InstantiationBlockImpl$u_impl_generic/BPortImpl$out_i" class="sprotty-edge edge" style="fill:none;stroke:rgb(112, 112, 112);stroke-linejoin:round;"><g><path d="M 0 119 L 75 119 "/><path d="M 0 119 L 75 119 " class="clickable"/></g></g><g id="sprotty_ArchitectureBlockImpl$prim_pad_wrapper/GenerateStatementBlockImpl$null7/GPortImpl$oe_i_to_ArchitectureBlockImpl$prim_pad_wrapper/GenerateStatementBlockImpl$null7/InstantiationBlockImpl$u_impl_generic/BPortImpl$oe_i" class="sprotty-edge edge" style="fill:none;stroke:rgb(112, 112, 112);stroke-linejoin:round;"><g><path d="M 0 335 L 33 335 C 34 335 35 334 35 333 L 35 149 C 35 148 36 147 37 147 L 75 147 "/><path d="M 0 335 L 33 335 C 34 335 35 334 35 333 L 35 149 C 35 148 36 147 37 147 L 75 147 " class="clickable"/></g><circle r="2" id="sprotty_ArchitectureBlockImpl$prim_pad_wrapper/GenerateStatementBlockImpl$null7/GPortImpl$oe_i_to_ArchitectureBlockImpl$prim_pad_wrapper/GenerateStatementBlockImpl$null7/InstantiationBlockImpl$u_impl_generic/BPortImpl$oe_i/junction0" transform="translate(35, 335)" class="sprotty-junction junction" style="fill:rgb(112, 112, 112);stroke:none;"/></g><g id="sprotty_ArchitectureBlockImpl$prim_pad_wrapper/GenerateStatementBlockImpl$null7/GPortImpl$attr_i_to_ArchitectureBlockImpl$prim_pad_wrapper/GenerateStatementBlockImpl$null7/InstantiationBlockImpl$u_impl_generic/BPortImpl$attr_i" class="sprotty-edge thick edge" style="fill:none;stroke:rgb(112, 112, 112);stroke-linejoin:round;stroke-width:3px;"><g><path d="M 0 363 L 43 363 C 44 363 45 362 45 361 L 45 177 C 45 176 46 175 47 175 L 75 175 "/><path d="M 0 363 L 43 363 C 44 363 45 362 45 361 L 45 177 C 45 176 46 175 47 175 L 75 175 " class="clickable"/></g><circle r="3" id="sprotty_ArchitectureBlockImpl$prim_pad_wrapper/GenerateStatementBlockImpl$null7/GPortImpl$attr_i_to_ArchitectureBlockImpl$prim_pad_wrapper/GenerateStatementBlockImpl$null7/InstantiationBlockImpl$u_impl_generic/BPortImpl$attr_i/junction0" transform="translate(45, 363)" class="sprotty-junction thick" style="fill:rgb(112, 112, 112);stroke:none;"/></g><g id="sprotty_ArchitectureBlockImpl$prim_pad_wrapper/GenerateStatementBlockImpl$null7/InstantiationBlockImpl$u_impl_generic" transform="translate(75, 25)" class="instantiation"><g class="sprotty-block" style="fill:rgb(255, 255, 255);stroke:rgb(48, 48, 48);stroke-dasharray:0px;"><rect x="0" y="0" rx="1" ry="1" width="362.453125" height="168"/><text x="181.2265625" y="12" class="sprotty-block-name" style="cursor:pointer;font-weight:700;perspective-origin:181.234px 0px;fill:rgb(48, 48, 48);stroke:rgba(0, 0, 0, 0);dominant-baseline:middle;text-anchor:middle;">u_impl_generic : prim_generic_pad_wrapper</text><line x1="0" y1="20" x2="362.453125" y2="20"/></g><g id="sprotty_ArchitectureBlockImpl$prim_pad_wrapper/GenerateStatementBlockImpl$null7/InstantiationBlockImpl$u_impl_generic/BPortImpl$attr_i" transform="translate(0, 150)" class="triangle"><path d="M 0,0 L 5,2.5 L 0,5 Z" transform="translate(-1.67, -2.5)" class="sprotty-port" style="fill:rgb(48, 48, 48);stroke:rgb(48, 48, 48);"/><text class="clickable sprotty-label port" id="sprotty_ArchitectureBlockImpl$prim_pad_wrapper/GenerateStatementBlockImpl$null7/InstantiationBlockImpl$u_impl_generic/BPortImpl$attr_i/label" transform="translate(6, -9) translate(15.03125, 14)" style="cursor:default;font-size:12px;perspective-origin:0px 0px;fill:rgb(48, 48, 48);text-anchor:middle;">attr_i</text></g><g id="sprotty_ArchitectureBlockImpl$prim_pad_wrapper/GenerateStatementBlockImpl$null7/InstantiationBlockImpl$u_impl_generic/BPortImpl$oe_i" transform="translate(0, 122)" class="triangle"><path d="M 0,0 L 5,2.5 L 0,5 Z" transform="translate(-1.67, -2.5)" class="sprotty-port" style="fill:rgb(48, 48, 48);stroke:rgb(48, 48, 48);"/><text class="clickable sprotty-label port" id="sprotty_ArchitectureBlockImpl$prim_pad_wrapper/GenerateStatementBlockImpl$null7/InstantiationBlockImpl$u_impl_generic/BPortImpl$oe_i/label" transform="translate(6, -9) translate(11.96875, 14)" style="cursor:default;font-size:12px;perspective-origin:0px 0px;fill:rgb(48, 48, 48);text-anchor:middle;">oe_i</text></g><g id="sprotty_ArchitectureBlockImpl$prim_pad_wrapper/GenerateStatementBlockImpl$null7/InstantiationBlockImpl$u_impl_generic/BPortImpl$out_i" transform="translate(0, 94)" class="triangle"><path d="M 0,0 L 5,2.5 L 0,5 Z" transform="translate(-1.67, -2.5)" class="sprotty-port" style="fill:rgb(48, 48, 48);stroke:rgb(48, 48, 48);"/><text class="clickable sprotty-label port" id="sprotty_ArchitectureBlockImpl$prim_pad_wrapper/GenerateStatementBlockImpl$null7/InstantiationBlockImpl$u_impl_generic/BPortImpl$out_i/label" transform="translate(6, -9) translate(14.546875, 14)" style="cursor:default;font-size:12px;perspective-origin:0px 0px;fill:rgb(48, 48, 48);text-anchor:middle;">out_i</text></g><g id="sprotty_ArchitectureBlockImpl$prim_pad_wrapper/GenerateStatementBlockImpl$null7/InstantiationBlockImpl$u_impl_generic/BPortImpl$ie_i" transform="translate(0, 66)" class="triangle"><path d="M 0,0 L 5,2.5 L 0,5 Z" transform="translate(-1.67, -2.5)" class="sprotty-port" style="fill:rgb(48, 48, 48);stroke:rgb(48, 48, 48);"/><text class="clickable sprotty-label port" id="sprotty_ArchitectureBlockImpl$prim_pad_wrapper/GenerateStatementBlockImpl$null7/InstantiationBlockImpl$u_impl_generic/BPortImpl$ie_i/label" transform="translate(6, -9) translate(9.984375, 14)" style="cursor:default;font-size:12px;perspective-origin:0px 0px;fill:rgb(48, 48, 48);text-anchor:middle;">ie_i</text></g><g id="sprotty_ArchitectureBlockImpl$prim_pad_wrapper/GenerateStatementBlockImpl$null7/InstantiationBlockImpl$u_impl_generic/BPortImpl$inout_io" transform="translate(0, 38)" class="square"><path d="M 0,0 L 5,0 L 5,5 L 0,5 Z" transform="translate(-2.5, -2.5)" class="sprotty-port" style="fill:rgb(48, 48, 48);stroke:rgb(48, 48, 48);"/><text class="clickable sprotty-label port" id="sprotty_ArchitectureBlockImpl$prim_pad_wrapper/GenerateStatementBlockImpl$null7/InstantiationBlockImpl$u_impl_generic/BPortImpl$inout_io/label" transform="translate(6, -9) translate(23.5, 14)" style="cursor:default;font-size:12px;perspective-origin:0px 0px;fill:rgb(48, 48, 48);text-anchor:middle;">inout_io</text></g><g id="sprotty_ArchitectureBlockImpl$prim_pad_wrapper/GenerateStatementBlockImpl$null7/InstantiationBlockImpl$u_impl_generic/BPortImpl$in_o" transform="translate(362.453125, 38)" class="triangle"><path d="M 0,0 L 5,2.5 L 0,5 Z" transform="translate(-1.67, -2.5)" class="sprotty-port" style="fill:rgb(48, 48, 48);stroke:rgb(48, 48, 48);"/><text class="clickable sprotty-label port" id="sprotty_ArchitectureBlockImpl$prim_pad_wrapper/GenerateStatementBlockImpl$null7/InstantiationBlockImpl$u_impl_generic/BPortImpl$in_o/label" transform="translate(-30.625, -9) translate(12.3125, 14)" style="cursor:default;font-size:12px;perspective-origin:0px 0px;fill:rgb(48, 48, 48);text-anchor:middle;">in_o</text></g><g id="sprotty_ArchitectureBlockImpl$prim_pad_wrapper/GenerateStatementBlockImpl$null7/InstantiationBlockImpl$u_impl_generic/BPortImpl$warl_o" transform="translate(362.453125, 150)" class="triangle"><path d="M 0,0 L 5,2.5 L 0,5 Z" transform="translate(-1.67, -2.5)" class="sprotty-port" style="fill:rgb(48, 48, 48);stroke:rgb(48, 48, 48);"/><text class="clickable sprotty-label port" id="sprotty_ArchitectureBlockImpl$prim_pad_wrapper/GenerateStatementBlockImpl$null7/InstantiationBlockImpl$u_impl_generic/BPortImpl$warl_o/label" transform="translate(-44.34375, -9) translate(19.171875, 14)" style="cursor:default;font-size:12px;perspective-origin:0px 0px;fill:rgb(48, 48, 48);text-anchor:middle;">warl_o</text></g></g><g id="sprotty_ArchitectureBlockImpl$prim_pad_wrapper/GenerateStatementBlockImpl$null7/InstantiationBlockImpl$u_impl_xilinx" transform="translate(88.16517857142857, 213)" class="instantiation"><g class="sprotty-block" style="fill:rgb(255, 255, 255);stroke:rgb(48, 48, 48);stroke-dasharray:0px;"><rect x="0" y="0" rx="1" ry="1" width="331.734375" height="168"/><text x="165.8671875" y="12" class="sprotty-block-name" style="cursor:pointer;font-weight:700;perspective-origin:165.875px 0px;fill:rgb(48, 48, 48);stroke:rgba(0, 0, 0, 0);dominant-baseline:middle;text-anchor:middle;">u_impl_xilinx : prim_xilinx_pad_wrapper</text><line x1="0" y1="20" x2="331.734375" y2="20"/></g><g id="sprotty_ArchitectureBlockImpl$prim_pad_wrapper/GenerateStatementBlockImpl$null7/InstantiationBlockImpl$u_impl_xilinx/BPortImpl$attr_i" transform="translate(0, 150)" class="triangle"><path d="M 0,0 L 5,2.5 L 0,5 Z" transform="translate(-1.67, -2.5)" class="sprotty-port" style="fill:rgb(48, 48, 48);stroke:rgb(48, 48, 48);"/><text class="clickable sprotty-label port" id="sprotty_ArchitectureBlockImpl$prim_pad_wrapper/GenerateStatementBlockImpl$null7/InstantiationBlockImpl$u_impl_xilinx/BPortImpl$attr_i/label" transform="translate(6, -9) translate(15.03125, 14)" style="cursor:default;font-size:12px;perspective-origin:0px 0px;fill:rgb(48, 48, 48);text-anchor:middle;">attr_i</text></g><g id="sprotty_ArchitectureBlockImpl$prim_pad_wrapper/GenerateStatementBlockImpl$null7/InstantiationBlockImpl$u_impl_xilinx/BPortImpl$oe_i" transform="translate(0, 122)" class="triangle"><path d="M 0,0 L 5,2.5 L 0,5 Z" transform="translate(-1.67, -2.5)" class="sprotty-port" style="fill:rgb(48, 48, 48);stroke:rgb(48, 48, 48);"/><text class="clickable sprotty-label port" id="sprotty_ArchitectureBlockImpl$prim_pad_wrapper/GenerateStatementBlockImpl$null7/InstantiationBlockImpl$u_impl_xilinx/BPortImpl$oe_i/label" transform="translate(6, -9) translate(11.96875, 14)" style="cursor:default;font-size:12px;perspective-origin:0px 0px;fill:rgb(48, 48, 48);text-anchor:middle;">oe_i</text></g><g id="sprotty_ArchitectureBlockImpl$prim_pad_wrapper/GenerateStatementBlockImpl$null7/InstantiationBlockImpl$u_impl_xilinx/BPortImpl$out_i" transform="translate(0, 94)" class="triangle"><path d="M 0,0 L 5,2.5 L 0,5 Z" transform="translate(-1.67, -2.5)" class="sprotty-port" style="fill:rgb(48, 48, 48);stroke:rgb(48, 48, 48);"/><text class="clickable sprotty-label port" id="sprotty_ArchitectureBlockImpl$prim_pad_wrapper/GenerateStatementBlockImpl$null7/InstantiationBlockImpl$u_impl_xilinx/BPortImpl$out_i/label" transform="translate(6, -9) translate(14.546875, 14)" style="cursor:default;font-size:12px;perspective-origin:0px 0px;fill:rgb(48, 48, 48);text-anchor:middle;">out_i</text></g><g id="sprotty_ArchitectureBlockImpl$prim_pad_wrapper/GenerateStatementBlockImpl$null7/InstantiationBlockImpl$u_impl_xilinx/BPortImpl$ie_i" transform="translate(0, 66)" class="triangle"><path d="M 0,0 L 5,2.5 L 0,5 Z" transform="translate(-1.67, -2.5)" class="sprotty-port" style="fill:rgb(48, 48, 48);stroke:rgb(48, 48, 48);"/><text class="clickable sprotty-label port" id="sprotty_ArchitectureBlockImpl$prim_pad_wrapper/GenerateStatementBlockImpl$null7/InstantiationBlockImpl$u_impl_xilinx/BPortImpl$ie_i/label" transform="translate(6, -9) translate(9.984375, 14)" style="cursor:default;font-size:12px;perspective-origin:0px 0px;fill:rgb(48, 48, 48);text-anchor:middle;">ie_i</text></g><g id="sprotty_ArchitectureBlockImpl$prim_pad_wrapper/GenerateStatementBlockImpl$null7/InstantiationBlockImpl$u_impl_xilinx/BPortImpl$inout_io" transform="translate(0, 38)" class="square"><path d="M 0,0 L 5,0 L 5,5 L 0,5 Z" transform="translate(-2.5, -2.5)" class="sprotty-port" style="fill:rgb(48, 48, 48);stroke:rgb(48, 48, 48);"/><text class="clickable sprotty-label port" id="sprotty_ArchitectureBlockImpl$prim_pad_wrapper/GenerateStatementBlockImpl$null7/InstantiationBlockImpl$u_impl_xilinx/BPortImpl$inout_io/label" transform="translate(6, -9) translate(23.5, 14)" style="cursor:default;font-size:12px;perspective-origin:0px 0px;fill:rgb(48, 48, 48);text-anchor:middle;">inout_io</text></g><g id="sprotty_ArchitectureBlockImpl$prim_pad_wrapper/GenerateStatementBlockImpl$null7/InstantiationBlockImpl$u_impl_xilinx/BPortImpl$in_o" transform="translate(331.734375, 38)" class="triangle"><path d="M 0,0 L 5,2.5 L 0,5 Z" transform="translate(-1.67, -2.5)" class="sprotty-port" style="fill:rgb(48, 48, 48);stroke:rgb(48, 48, 48);"/><text class="clickable sprotty-label port" id="sprotty_ArchitectureBlockImpl$prim_pad_wrapper/GenerateStatementBlockImpl$null7/InstantiationBlockImpl$u_impl_xilinx/BPortImpl$in_o/label" transform="translate(-30.625, -9) translate(12.3125, 14)" style="cursor:default;font-size:12px;perspective-origin:0px 0px;fill:rgb(48, 48, 48);text-anchor:middle;">in_o</text></g><g id="sprotty_ArchitectureBlockImpl$prim_pad_wrapper/GenerateStatementBlockImpl$null7/InstantiationBlockImpl$u_impl_xilinx/BPortImpl$warl_o" transform="translate(331.734375, 150)" class="triangle"><path d="M 0,0 L 5,2.5 L 0,5 Z" transform="translate(-1.67, -2.5)" class="sprotty-port" style="fill:rgb(48, 48, 48);stroke:rgb(48, 48, 48);"/><text class="clickable sprotty-label port" id="sprotty_ArchitectureBlockImpl$prim_pad_wrapper/GenerateStatementBlockImpl$null7/InstantiationBlockImpl$u_impl_xilinx/BPortImpl$warl_o/label" transform="translate(-44.34375, -9) translate(19.171875, 14)" style="cursor:default;font-size:12px;perspective-origin:0px 0px;fill:rgb(48, 48, 48);text-anchor:middle;">warl_o</text></g></g><g id="sprotty_ArchitectureBlockImpl$prim_pad_wrapper/GenerateStatementBlockImpl$null7/GPortImpl$attr_i" transform="translate(0, 363)" class="triangle"><path d="M 0,0 L 5,2.5 L 0,5 Z" transform="translate(-1.67, -2.5)" class="sprotty-port" style="fill:rgb(48, 48, 48);stroke:rgb(48, 48, 48);"/></g><g id="sprotty_ArchitectureBlockImpl$prim_pad_wrapper/GenerateStatementBlockImpl$null7/GPortImpl$oe_i" transform="translate(0, 335)" class="triangle"><path d="M 0,0 L 5,2.5 L 0,5 Z" transform="translate(-1.67, -2.5)" class="sprotty-port" style="fill:rgb(48, 48, 48);stroke:rgb(48, 48, 48);"/></g><g id="sprotty_ArchitectureBlockImpl$prim_pad_wrapper/GenerateStatementBlockImpl$null7/GPortImpl$out_i" transform="translate(0, 119)" class="triangle"><path d="M 0,0 L 5,2.5 L 0,5 Z" transform="translate(-1.67, -2.5)" class="sprotty-port" style="fill:rgb(48, 48, 48);stroke:rgb(48, 48, 48);"/></g><g id="sprotty_ArchitectureBlockImpl$prim_pad_wrapper/GenerateStatementBlockImpl$null7/GPortImpl$ie_i" transform="translate(0, 109)" class="triangle"><path d="M 0,0 L 5,2.5 L 0,5 Z" transform="translate(-1.67, -2.5)" class="sprotty-port" style="fill:rgb(48, 48, 48);stroke:rgb(48, 48, 48);"/></g><g id="sprotty_ArchitectureBlockImpl$prim_pad_wrapper/GenerateStatementBlockImpl$null7/GPortImpl$inout_io" transform="translate(492.453125, 15)" class="triangle"><path d="M 0,0 L 5,2.5 L 0,5 Z" transform="translate(-1.67, -2.5)" class="sprotty-port" style="fill:rgb(48, 48, 48);stroke:rgb(48, 48, 48);"/></g><g id="sprotty_ArchitectureBlockImpl$prim_pad_wrapper/GenerateStatementBlockImpl$null7/GPortImpl$in_o" transform="translate(492.453125, 63)" class="triangle"><path d="M 0,0 L 5,2.5 L 0,5 Z" transform="translate(-1.67, -2.5)" class="sprotty-port" style="fill:rgb(48, 48, 48);stroke:rgb(48, 48, 48);"/></g><g id="sprotty_ArchitectureBlockImpl$prim_pad_wrapper/GenerateStatementBlockImpl$null7/GPortImpl$warl_o" transform="translate(492.453125, 363)" class="triangle"><path d="M 0,0 L 5,2.5 L 0,5 Z" transform="translate(-1.67, -2.5)" class="sprotty-port" style="fill:rgb(48, 48, 48);stroke:rgb(48, 48, 48);"/></g></g><g id="sprotty_ArchitectureBlockImpl$prim_pad_wrapper/BPortImpl$attr_i" transform="translate(0, 414)" class="triangle"><path d="M 0,0 L 5,2.5 L 0,5 Z" transform="translate(-1.67, -2.5)" class="sprotty-port" style="fill:rgb(48, 48, 48);stroke:rgb(48, 48, 48);"/><text class="clickable sprotty-label port" id="sprotty_ArchitectureBlockImpl$prim_pad_wrapper/BPortImpl$attr_i/label" transform="translate(6, 6) translate(15.03125, 14)" style="cursor:default;font-size:12px;perspective-origin:0px 0px;fill:rgb(48, 48, 48);text-anchor:middle;">attr_i</text></g><g id="sprotty_ArchitectureBlockImpl$prim_pad_wrapper/BPortImpl$oe_i" transform="translate(0, 380)" class="triangle"><path d="M 0,0 L 5,2.5 L 0,5 Z" transform="translate(-1.67, -2.5)" class="sprotty-port" style="fill:rgb(48, 48, 48);stroke:rgb(48, 48, 48);"/><text class="clickable sprotty-label port" id="sprotty_ArchitectureBlockImpl$prim_pad_wrapper/BPortImpl$oe_i/label" transform="translate(6, 6) translate(11.96875, 14)" style="cursor:default;font-size:12px;perspective-origin:0px 0px;fill:rgb(48, 48, 48);text-anchor:middle;">oe_i</text></g><g id="sprotty_ArchitectureBlockImpl$prim_pad_wrapper/BPortImpl$out_i" transform="translate(0, 164)" class="triangle"><path d="M 0,0 L 5,2.5 L 0,5 Z" transform="translate(-1.67, -2.5)" class="sprotty-port" style="fill:rgb(48, 48, 48);stroke:rgb(48, 48, 48);"/><text class="clickable sprotty-label port" id="sprotty_ArchitectureBlockImpl$prim_pad_wrapper/BPortImpl$out_i/label" transform="translate(6, 6) translate(14.546875, 14)" style="cursor:default;font-size:12px;perspective-origin:0px 0px;fill:rgb(48, 48, 48);text-anchor:middle;">out_i</text></g><g id="sprotty_ArchitectureBlockImpl$prim_pad_wrapper/BPortImpl$ie_i" transform="translate(0, 130)" class="triangle"><path d="M 0,0 L 5,2.5 L 0,5 Z" transform="translate(-1.67, -2.5)" class="sprotty-port" style="fill:rgb(48, 48, 48);stroke:rgb(48, 48, 48);"/><text class="clickable sprotty-label port" id="sprotty_ArchitectureBlockImpl$prim_pad_wrapper/BPortImpl$ie_i/label" transform="translate(6, 6) translate(9.984375, 14)" style="cursor:default;font-size:12px;perspective-origin:0px 0px;fill:rgb(48, 48, 48);text-anchor:middle;">ie_i</text></g><g id="sprotty_ArchitectureBlockImpl$prim_pad_wrapper/BPortImpl$inout_io" transform="translate(0, 35)" class="square"><path d="M 0,0 L 5,0 L 5,5 L 0,5 Z" transform="translate(-2.5, -2.5)" class="sprotty-port" style="fill:rgb(48, 48, 48);stroke:rgb(48, 48, 48);"/><text class="clickable sprotty-label port" id="sprotty_ArchitectureBlockImpl$prim_pad_wrapper/BPortImpl$inout_io/label" transform="translate(6, 6) translate(23.5, 14)" style="cursor:default;font-size:12px;perspective-origin:0px 0px;fill:rgb(48, 48, 48);text-anchor:middle;">inout_io</text></g><g id="sprotty_ArchitectureBlockImpl$prim_pad_wrapper/BPortImpl$in_o" transform="translate(659.796875, 108)" class="triangle"><path d="M 0,0 L 5,2.5 L 0,5 Z" transform="translate(-1.67, -2.5)" class="sprotty-port" style="fill:rgb(48, 48, 48);stroke:rgb(48, 48, 48);"/><text class="clickable sprotty-label port" id="sprotty_ArchitectureBlockImpl$prim_pad_wrapper/BPortImpl$in_o/label" transform="translate(-30.625, 6) translate(12.3125, 14)" style="cursor:default;font-size:12px;perspective-origin:0px 0px;fill:rgb(48, 48, 48);text-anchor:middle;">in_o</text></g><g id="sprotty_ArchitectureBlockImpl$prim_pad_wrapper/BPortImpl$warl_o" transform="translate(659.796875, 408)" class="triangle"><path d="M 0,0 L 5,2.5 L 0,5 Z" transform="translate(-1.67, -2.5)" class="sprotty-port" style="fill:rgb(48, 48, 48);stroke:rgb(48, 48, 48);"/><text class="clickable sprotty-label port" id="sprotty_ArchitectureBlockImpl$prim_pad_wrapper/BPortImpl$warl_o/label" transform="translate(-44.34375, 6) translate(19.171875, 14)" style="cursor:default;font-size:12px;perspective-origin:0px 0px;fill:rgb(48, 48, 48);text-anchor:middle;">warl_o</text></g></g></g></svg>