<svg xmlns="http://www.w3.org/2000/svg" id="sprotty_work.edn" class="sprotty-graph sprotty-block-diagram blockdiagram" style="font-family:&quot;Noto Sans&quot;, Helvetica, Arial, sans-serif;perspective-origin:0px 0px;transform-origin:0px 0px;" version="1.1" viewBox="7 7 1247.609375 580" width="1247.609375" height="580"><g transform="scale(1) translate(0,0)"><g id="sprotty_ArchitectureBlockImpl$edn" transform="translate(12, 12)" class="architecture"><g class="sprotty-block" style="fill:rgb(255, 255, 255);stroke:rgb(48, 48, 48);stroke-dasharray:0px;"><rect x="0" y="0" rx="1" ry="1" width="1237.609375" height="570"/><text x="618.8046875" y="12" class="sprotty-block-name" style="cursor:pointer;font-weight:700;perspective-origin:618.797px 0px;fill:rgb(48, 48, 48);stroke:rgba(0, 0, 0, 0);dominant-baseline:middle;text-anchor:middle;">edn</text><line x1="0" y1="20" x2="1237.609375" y2="20"/></g><g id="sprotty_ArchitectureBlockImpl$edn/InstantiationBlockImpl$u_reg/BPortImpl$tl_o_to_ArchitectureBlockImpl$edn/BPortImpl$tl_o" class="sprotty-edge thick edge" style="fill:none;stroke:rgb(112, 112, 112);stroke-linejoin:round;stroke-width:3px;"><g><path d="M 308.25 106 L 316.25 106 C 317.25 106 318.25 105 318.25 104 L 318.25 38 C 318.25 37 319.25 36 320.25 36 L 1237.609375 36 "/><path d="M 308.25 106 L 316.25 106 C 317.25 106 318.25 105 318.25 104 L 318.25 38 C 318.25 37 319.25 36 320.25 36 L 1237.609375 36 " class="clickable"/></g></g><g id="sprotty_ArchitectureBlockImpl$edn/InstantiationBlockImpl$u_edn_core/BPortImpl$edn_o_to_ArchitectureBlockImpl$edn/BPortImpl$edn_o" class="sprotty-edge thick edge" style="fill:none;stroke:rgb(112, 112, 112);stroke-linejoin:round;stroke-width:3px;"><g><path d="M 648.3125 322 L 666.3125 322 C 667.3125 322 668.3125 321 668.3125 320 L 668.3125 200 C 668.3125 199 669.3125 198 670.3125 198 L 1237.609375 198 "/><path d="M 648.3125 322 L 666.3125 322 C 667.3125 322 668.3125 321 668.3125 320 L 668.3125 200 C 668.3125 199 669.3125 198 670.3125 198 L 1237.609375 198 " class="clickable"/></g></g><g id="sprotty_ArchitectureBlockImpl$edn/InstantiationBlockImpl$u_edn_core/BPortImpl$csrng_cmd_o_to_ArchitectureBlockImpl$edn/BPortImpl$csrng_cmd_o" class="sprotty-edge thick edge" style="fill:none;stroke:rgb(112, 112, 112);stroke-linejoin:round;stroke-width:3px;"><g><path d="M 648.3125 350 L 676.3125 350 C 677.3125 350 678.3125 349 678.3125 348 L 678.3125 234 C 678.3125 233 679.3125 232 680.3125 232 L 1237.609375 232 "/><path d="M 648.3125 350 L 676.3125 350 C 677.3125 350 678.3125 349 678.3125 348 L 678.3125 234 C 678.3125 233 679.3125 232 680.3125 232 L 1237.609375 232 " class="clickable"/></g></g><g id="sprotty_ArchitectureBlockImpl$edn/InstantiationBlockImpl$u_prim_alert_sender/BPortImpl$alert_tx_o_to_ArchitectureBlockImpl$edn/BPortImpl$alert_tx_o" class="sprotty-edge thick edge" style="fill:none;stroke:rgb(112, 112, 112);stroke-linejoin:round;stroke-width:3px;"><g><path d="M 1062.578125 394 L 1237.609375 394 "/><path d="M 1062.578125 394 L 1237.609375 394 " class="clickable"/></g></g><g id="sprotty_ArchitectureBlockImpl$edn/InstantiationBlockImpl$u_edn_core/BPortImpl$intr_edn_cmd_req_done_o_to_ArchitectureBlockImpl$edn/BPortImpl$intr_edn_cmd_req_done_o" class="sprotty-edge edge" style="fill:none;stroke:rgb(112, 112, 112);stroke-linejoin:round;"><g><path d="M 648.3125 434 L 716.3125 434 C 717.3125 434 718.3125 433 718.3125 432 L 718.3125 430 C 718.3125 429 719.3125 428 720.3125 428 L 1237.609375 428 "/><path d="M 648.3125 434 L 716.3125 434 C 717.3125 434 718.3125 433 718.3125 432 L 718.3125 430 C 718.3125 429 719.3125 428 720.3125 428 L 1237.609375 428 " class="clickable"/></g></g><g id="sprotty_ArchitectureBlockImpl$edn/InstantiationBlockImpl$u_edn_core/BPortImpl$intr_edn_fatal_err_o_to_ArchitectureBlockImpl$edn/BPortImpl$intr_edn_fatal_err_o" class="sprotty-edge edge" style="fill:none;stroke:rgb(112, 112, 112);stroke-linejoin:round;"><g><path d="M 648.3125 462 L 1237.609375 462 "/><path d="M 648.3125 462 L 1237.609375 462 " class="clickable"/></g></g><g id="sprotty_ArchitectureBlockImpl$edn/BPortImpl$clk_i_to_ArchitectureBlockImpl$edn/InstantiationBlockImpl$u_reg/BPortImpl$clk_i" class="sprotty-edge edge" style="fill:none;stroke:rgb(112, 112, 112);stroke-linejoin:round;"><g><path d="M 0 294 L 100.875 294 C 101.875 294 102.875 293 102.875 292 L 102.875 108 C 102.875 107 103.875 106 104.875 106 L 142.875 106 "/><path d="M 0 294 L 100.875 294 C 101.875 294 102.875 293 102.875 292 L 102.875 108 C 102.875 107 103.875 106 104.875 106 L 142.875 106 " class="clickable"/></g><circle r="2" id="sprotty_ArchitectureBlockImpl$edn/BPortImpl$clk_i_to_ArchitectureBlockImpl$edn/InstantiationBlockImpl$u_reg/BPortImpl$clk_i/junction0" transform="translate(102.875, 294)" class="sprotty-junction junction" style="fill:rgb(112, 112, 112);stroke:none;"/><circle r="2" id="sprotty_ArchitectureBlockImpl$edn/BPortImpl$clk_i_to_ArchitectureBlockImpl$edn/InstantiationBlockImpl$u_reg/BPortImpl$clk_i/junction1" transform="translate(102.875, 106)" class="sprotty-junction junction" style="fill:rgb(112, 112, 112);stroke:none;"/></g><g id="sprotty_ArchitectureBlockImpl$edn/BPortImpl$rst_ni_to_ArchitectureBlockImpl$edn/InstantiationBlockImpl$u_reg/BPortImpl$rst_ni" class="sprotty-edge edge" style="fill:none;stroke:rgb(112, 112, 112);stroke-linejoin:round;"><g><path d="M 0 336 L 110.875 336 C 111.875 336 112.875 335 112.875 334 L 112.875 136 C 112.875 135 113.875 134 114.875 134 L 142.875 134 "/><path d="M 0 336 L 110.875 336 C 111.875 336 112.875 335 112.875 334 L 112.875 136 C 112.875 135 113.875 134 114.875 134 L 142.875 134 " class="clickable"/></g><circle r="2" id="sprotty_ArchitectureBlockImpl$edn/BPortImpl$rst_ni_to_ArchitectureBlockImpl$edn/InstantiationBlockImpl$u_reg/BPortImpl$rst_ni/junction0" transform="translate(112.875, 336)" class="sprotty-junction junction" style="fill:rgb(112, 112, 112);stroke:none;"/><circle r="2" id="sprotty_ArchitectureBlockImpl$edn/BPortImpl$rst_ni_to_ArchitectureBlockImpl$edn/InstantiationBlockImpl$u_reg/BPortImpl$rst_ni/junction1" transform="translate(112.875, 134)" class="sprotty-junction junction" style="fill:rgb(112, 112, 112);stroke:none;"/></g><g id="sprotty_ArchitectureBlockImpl$edn/BPortImpl$tl_i_to_ArchitectureBlockImpl$edn/InstantiationBlockImpl$u_reg/BPortImpl$tl_i" class="sprotty-edge thick edge" style="fill:none;stroke:rgb(112, 112, 112);stroke-linejoin:round;stroke-width:3px;"><g><path d="M 0 389 L 120.875 389 C 121.875 389 122.875 388 122.875 387 L 122.875 164 C 122.875 163 123.875 162 124.875 162 L 142.875 162 "/><path d="M 0 389 L 120.875 389 C 121.875 389 122.875 388 122.875 387 L 122.875 164 C 122.875 163 123.875 162 124.875 162 L 142.875 162 " class="clickable"/></g></g><g id="sprotty_ArchitectureBlockImpl$edn/BPortImpl$clk_i_to_ArchitectureBlockImpl$edn/InstantiationBlockImpl$u_edn_core/BPortImpl$clk_i" class="sprotty-edge edge" style="fill:none;stroke:rgb(112, 112, 112);stroke-linejoin:round;"><g><path d="M 0 294 L 328.25 294 "/><path d="M 0 294 L 328.25 294 " class="clickable"/></g></g><g id="sprotty_ArchitectureBlockImpl$edn/BPortImpl$rst_ni_to_ArchitectureBlockImpl$edn/InstantiationBlockImpl$u_edn_core/BPortImpl$rst_ni" class="sprotty-edge edge" style="fill:none;stroke:rgb(112, 112, 112);stroke-linejoin:round;"><g><path d="M 0 336 L 328.25 336 "/><path d="M 0 336 L 328.25 336 " class="clickable"/></g></g><g id="sprotty_ArchitectureBlockImpl$edn/BPortImpl$edn_i_to_ArchitectureBlockImpl$edn/InstantiationBlockImpl$u_edn_core/BPortImpl$edn_i" class="sprotty-edge thick edge" style="fill:none;stroke:rgb(112, 112, 112);stroke-linejoin:round;stroke-width:3px;"><g><path d="M 0 423 L 316.25 423 C 317.25 423 318.25 422 318.25 421 L 318.25 421 C 318.25 420.5 319.25 420 320.25 420 L 328.25 420 "/><path d="M 0 423 L 316.25 423 C 317.25 423 318.25 422 318.25 421 L 318.25 421 C 318.25 420.5 319.25 420 320.25 420 L 328.25 420 " class="clickable"/></g></g><g id="sprotty_ArchitectureBlockImpl$edn/BPortImpl$csrng_cmd_i_to_ArchitectureBlockImpl$edn/InstantiationBlockImpl$u_edn_core/BPortImpl$csrng_cmd_i" class="sprotty-edge thick edge" style="fill:none;stroke:rgb(112, 112, 112);stroke-linejoin:round;stroke-width:3px;"><g><path d="M 0 457 L 316.25 457 C 317.25 457 318.25 458 318.25 459 L 318.25 460 C 318.25 461 319.25 462 320.25 462 L 328.25 462 "/><path d="M 0 457 L 316.25 457 C 317.25 457 318.25 458 318.25 459 L 318.25 460 C 318.25 461 319.25 462 320.25 462 L 328.25 462 " class="clickable"/></g></g><g id="sprotty_ArchitectureBlockImpl$edn/BPortImpl$clk_i_to_ArchitectureBlockImpl$edn/InstantiationBlockImpl$u_prim_alert_sender/BPortImpl$clk_i" class="sprotty-edge edge" style="fill:none;stroke:rgb(112, 112, 112);stroke-linejoin:round;"><g><path d="M 0 294 L 100.875 294 C 101.875 294 102.875 293 102.875 292 L 102.875 48 C 102.875 47 103.875 46 104.875 46 L 696.3125 46 C 697.3125 46 698.3125 47 698.3125 48 L 698.3125 280 C 698.3125 281 699.3125 282 700.3125 282 L 728.3125 282 "/><path d="M 0 294 L 100.875 294 C 101.875 294 102.875 293 102.875 292 L 102.875 48 C 102.875 47 103.875 46 104.875 46 L 696.3125 46 C 697.3125 46 698.3125 47 698.3125 48 L 698.3125 280 C 698.3125 281 699.3125 282 700.3125 282 L 728.3125 282 " class="clickable"/></g></g><g id="sprotty_ArchitectureBlockImpl$edn/BPortImpl$rst_ni_to_ArchitectureBlockImpl$edn/InstantiationBlockImpl$u_prim_alert_sender/BPortImpl$rst_ni" class="sprotty-edge edge" style="fill:none;stroke:rgb(112, 112, 112);stroke-linejoin:round;"><g><path d="M 0 336 L 110.875 336 C 111.875 336 112.875 335 112.875 334 L 112.875 58 C 112.875 57 113.875 56 114.875 56 L 686.3125 56 C 687.3125 56 688.3125 57 688.3125 58 L 688.3125 308 C 688.3125 309 689.3125 310 690.3125 310 L 728.3125 310 "/><path d="M 0 336 L 110.875 336 C 111.875 336 112.875 335 112.875 334 L 112.875 58 C 112.875 57 113.875 56 114.875 56 L 686.3125 56 C 687.3125 56 688.3125 57 688.3125 58 L 688.3125 308 C 688.3125 309 689.3125 310 690.3125 310 L 728.3125 310 " class="clickable"/></g></g><g id="sprotty_ArchitectureBlockImpl$edn/BPortImpl$alert_rx_i_to_ArchitectureBlockImpl$edn/InstantiationBlockImpl$u_prim_alert_sender/BPortImpl$alert_rx_i" class="sprotty-edge thick edge" style="fill:none;stroke:rgb(112, 112, 112);stroke-linejoin:round;stroke-width:3px;"><g><path d="M 0 491 L 706.3125 491 C 707.3125 491 708.3125 490 708.3125 489 L 708.3125 396 C 708.3125 395 709.3125 394 710.3125 394 L 728.3125 394 "/><path d="M 0 491 L 706.3125 491 C 707.3125 491 708.3125 490 708.3125 489 L 708.3125 396 C 708.3125 395 709.3125 394 710.3125 394 L 728.3125 394 " class="clickable"/></g></g><g id="sprotty_ArchitectureBlockImpl$edn/InstantiationBlockImpl$u_reg/BPortImpl$reg2hw_to_ArchitectureBlockImpl$edn/InstantiationBlockImpl$u_edn_core/BPortImpl$reg2hw" class="sprotty-edge thick edge" style="fill:none;stroke:rgb(112, 112, 112);stroke-linejoin:round;stroke-width:3px;"><g><path d="M 308.25 218 L 316.25 218 C 317.25 218 318.25 219 318.25 220 L 318.25 376 C 318.25 377 319.25 378 320.25 378 L 328.25 378 "/><path d="M 308.25 218 L 316.25 218 C 317.25 218 318.25 219 318.25 220 L 318.25 376 C 318.25 377 319.25 378 320.25 378 L 328.25 378 " class="clickable"/></g></g><g id="sprotty_ArchitectureBlockImpl$edn/InstantiationBlockImpl$u_edn_core/BPortImpl$hw2reg_to_ArchitectureBlockImpl$edn/InstantiationBlockImpl$u_reg/BPortImpl$hw2reg" class="sprotty-edge thick edge" style="fill:none;stroke:rgb(112, 112, 112);stroke-linejoin:round;stroke-width:3px;"><g><path d="M 648.3125 294 L 656.3125 294 C 657.3125 294 658.3125 293 658.3125 292 L 658.3125 248 C 658.3125 247 657.3125 246 656.3125 246 L 134.875 246 C 133.875 246 132.875 245 132.875 244 L 132.875 192 C 132.875 191 133.875 190 134.875 190 L 142.875 190 "/><path d="M 648.3125 294 L 656.3125 294 C 657.3125 294 658.3125 293 658.3125 292 L 658.3125 248 C 658.3125 247 657.3125 246 656.3125 246 L 134.875 246 C 133.875 246 132.875 245 132.875 244 L 132.875 192 C 132.875 191 133.875 190 134.875 190 L 142.875 190 " class="clickable"/></g></g><g id="sprotty_ArchitectureBlockImpl$edn/InstantiationBlockImpl$u_edn_core/BPortImpl$fatal_alert_o_to_ArchitectureBlockImpl$edn/InstantiationBlockImpl$u_prim_alert_sender/BPortImpl$alert_req_i" class="sprotty-edge edge" style="fill:none;stroke:rgb(112, 112, 112);stroke-linejoin:round;"><g><path d="M 648.3125 406 L 696.3125 406 C 697.3125 406 698.3125 405 698.3125 404 L 698.3125 368 C 698.3125 367 699.3125 366 700.3125 366 L 728.3125 366 "/><path d="M 648.3125 406 L 696.3125 406 C 697.3125 406 698.3125 405 698.3125 404 L 698.3125 368 C 698.3125 367 699.3125 366 700.3125 366 L 728.3125 366 " class="clickable"/></g></g><g id="sprotty_ArchitectureBlockImpl$edn/InstantiationBlockImpl$u_edn_core/BPortImpl$alert_test_o_to_ArchitectureBlockImpl$edn/InstantiationBlockImpl$u_prim_alert_sender/BPortImpl$alert_test_i" class="sprotty-edge edge" style="fill:none;stroke:rgb(112, 112, 112);stroke-linejoin:round;"><g><path d="M 648.3125 378 L 686.3125 378 C 687.3125 378 688.3125 377 688.3125 376 L 688.3125 340 C 688.3125 339 689.3125 338 690.3125 338 L 728.3125 338 "/><path d="M 648.3125 378 L 686.3125 378 C 687.3125 378 688.3125 377 688.3125 376 L 688.3125 340 C 688.3125 339 689.3125 338 690.3125 338 L 728.3125 338 " class="clickable"/></g></g><g id="sprotty_ArchitectureBlockImpl$edn/GenerateStatementBlockImpl$gen_edn_if_asserts" transform="translate(15, 535)" class="generate"><g class="sprotty-block sprotty-block-generate" style="fill:rgb(255, 255, 255);stroke:rgb(48, 48, 48);stroke-dasharray:0px;"><rect x="0" y="0" rx="1" ry="1" width="160.796875" height="20" style="stroke-dasharray:3px, 1px;"/><text x="80.3984375" y="12" class="sprotty-block-name" style="cursor:pointer;font-weight:700;perspective-origin:80.4375px 0px;fill:rgb(48, 48, 48);stroke:rgba(0, 0, 0, 0);dominant-baseline:middle;text-anchor:middle;">gen_edn_if_asserts</text>undefined</g></g><g id="sprotty_ArchitectureBlockImpl$edn/InstantiationBlockImpl$u_prim_alert_sender" transform="translate(728.3125, 244)" class="instantiation"><g class="sprotty-block" style="fill:rgb(255, 255, 255);stroke:rgb(48, 48, 48);stroke-dasharray:0px;"><rect x="0" y="0" rx="1" ry="1" width="334.265625" height="168"/><text x="167.1328125" y="12" class="sprotty-block-name" style="cursor:pointer;font-weight:700;perspective-origin:167.141px 0px;fill:rgb(48, 48, 48);stroke:rgba(0, 0, 0, 0);dominant-baseline:middle;text-anchor:middle;">u_prim_alert_sender : prim_alert_sender</text><line x1="0" y1="20" x2="334.265625" y2="20"/></g><g id="sprotty_ArchitectureBlockImpl$edn/InstantiationBlockImpl$u_prim_alert_sender/BPortImpl$alert_rx_i" transform="translate(0, 150)" class="triangle"><path d="M 0,0 L 5,2.5 L 0,5 Z" transform="translate(-1.67, -2.5)" class="sprotty-port" style="fill:rgb(48, 48, 48);stroke:rgb(48, 48, 48);"/><text class="clickable sprotty-label port" id="sprotty_ArchitectureBlockImpl$edn/InstantiationBlockImpl$u_prim_alert_sender/BPortImpl$alert_rx_i/label" transform="translate(6, -9) translate(26.6875, 14)" style="cursor:default;font-size:12px;perspective-origin:0px 0px;fill:rgb(48, 48, 48);text-anchor:middle;">alert_rx_i</text></g><g id="sprotty_ArchitectureBlockImpl$edn/InstantiationBlockImpl$u_prim_alert_sender/BPortImpl$alert_req_i" transform="translate(0, 122)" class="triangle"><path d="M 0,0 L 5,2.5 L 0,5 Z" transform="translate(-1.67, -2.5)" class="sprotty-port" style="fill:rgb(48, 48, 48);stroke:rgb(48, 48, 48);"/><text class="clickable sprotty-label port" id="sprotty_ArchitectureBlockImpl$edn/InstantiationBlockImpl$u_prim_alert_sender/BPortImpl$alert_req_i/label" transform="translate(6, -9) translate(30.6875, 14)" style="cursor:default;font-size:12px;perspective-origin:0px 0px;fill:rgb(48, 48, 48);text-anchor:middle;">alert_req_i</text></g><g id="sprotty_ArchitectureBlockImpl$edn/InstantiationBlockImpl$u_prim_alert_sender/BPortImpl$alert_test_i" transform="translate(0, 94)" class="triangle"><path d="M 0,0 L 5,2.5 L 0,5 Z" transform="translate(-1.67, -2.5)" class="sprotty-port" style="fill:rgb(48, 48, 48);stroke:rgb(48, 48, 48);"/><text class="clickable sprotty-label port" id="sprotty_ArchitectureBlockImpl$edn/InstantiationBlockImpl$u_prim_alert_sender/BPortImpl$alert_test_i/label" transform="translate(6, -9) translate(31.8125, 14)" style="cursor:default;font-size:12px;perspective-origin:0px 0px;fill:rgb(48, 48, 48);text-anchor:middle;">alert_test_i</text></g><g id="sprotty_ArchitectureBlockImpl$edn/InstantiationBlockImpl$u_prim_alert_sender/BPortImpl$rst_ni" transform="translate(0, 66)" class="triangle"><path d="M 0,0 L 5,2.5 L 0,5 Z" transform="translate(-1.67, -2.5)" class="sprotty-port" style="fill:rgb(48, 48, 48);stroke:rgb(48, 48, 48);"/><text class="clickable sprotty-label port" id="sprotty_ArchitectureBlockImpl$edn/InstantiationBlockImpl$u_prim_alert_sender/BPortImpl$rst_ni/label" transform="translate(6, -9) translate(15.921875, 14)" style="cursor:default;font-size:12px;perspective-origin:0px 0px;fill:rgb(48, 48, 48);text-anchor:middle;">rst_ni</text></g><g id="sprotty_ArchitectureBlockImpl$edn/InstantiationBlockImpl$u_prim_alert_sender/BPortImpl$clk_i" transform="translate(0, 38)" class="triangle"><path d="M 0,0 L 5,2.5 L 0,5 Z" transform="translate(-1.67, -2.5)" class="sprotty-port" style="fill:rgb(48, 48, 48);stroke:rgb(48, 48, 48);"/><text class="clickable sprotty-label port" id="sprotty_ArchitectureBlockImpl$edn/InstantiationBlockImpl$u_prim_alert_sender/BPortImpl$clk_i/label" transform="translate(6, -9) translate(13.09375, 14)" style="cursor:default;font-size:12px;perspective-origin:0px 0px;fill:rgb(48, 48, 48);text-anchor:middle;">clk_i</text></g><g id="sprotty_ArchitectureBlockImpl$edn/InstantiationBlockImpl$u_prim_alert_sender/BPortImpl$alert_ack_o" transform="translate(334.265625, 38)" class="triangle"><path d="M 0,0 L 5,2.5 L 0,5 Z" transform="translate(-1.67, -2.5)" class="sprotty-port" style="fill:rgb(48, 48, 48);stroke:rgb(48, 48, 48);"/><text class="clickable sprotty-label port" id="sprotty_ArchitectureBlockImpl$edn/InstantiationBlockImpl$u_prim_alert_sender/BPortImpl$alert_ack_o/label" transform="translate(-72.21875, -9) translate(33.109375, 14)" style="cursor:default;font-size:12px;perspective-origin:0px 0px;fill:rgb(48, 48, 48);text-anchor:middle;">alert_ack_o</text></g><g id="sprotty_ArchitectureBlockImpl$edn/InstantiationBlockImpl$u_prim_alert_sender/BPortImpl$alert_state_o" transform="translate(334.265625, 94)" class="triangle"><path d="M 0,0 L 5,2.5 L 0,5 Z" transform="translate(-1.67, -2.5)" class="sprotty-port" style="fill:rgb(48, 48, 48);stroke:rgb(48, 48, 48);"/><text class="clickable sprotty-label port" id="sprotty_ArchitectureBlockImpl$edn/InstantiationBlockImpl$u_prim_alert_sender/BPortImpl$alert_state_o/label" transform="translate(-79.875, -9) translate(36.9375, 14)" style="cursor:default;font-size:12px;perspective-origin:0px 0px;fill:rgb(48, 48, 48);text-anchor:middle;">alert_state_o</text></g><g id="sprotty_ArchitectureBlockImpl$edn/InstantiationBlockImpl$u_prim_alert_sender/BPortImpl$alert_tx_o" transform="translate(334.265625, 150)" class="triangle"><path d="M 0,0 L 5,2.5 L 0,5 Z" transform="translate(-1.67, -2.5)" class="sprotty-port" style="fill:rgb(48, 48, 48);stroke:rgb(48, 48, 48);"/><text class="clickable sprotty-label port" id="sprotty_ArchitectureBlockImpl$edn/InstantiationBlockImpl$u_prim_alert_sender/BPortImpl$alert_tx_o/label" transform="translate(-63, -9) translate(28.5, 14)" style="cursor:default;font-size:12px;perspective-origin:0px 0px;fill:rgb(48, 48, 48);text-anchor:middle;">alert_tx_o</text></g></g><g id="sprotty_ArchitectureBlockImpl$edn/InstantiationBlockImpl$u_edn_core" transform="translate(328.25, 256)" class="instantiation"><g class="sprotty-block" style="fill:rgb(255, 255, 255);stroke:rgb(48, 48, 48);stroke-dasharray:0px;"><rect x="0" y="0" rx="1" ry="1" width="320.0625" height="224"/><text x="160.03125" y="12" class="sprotty-block-name" style="cursor:pointer;font-weight:700;perspective-origin:160.031px 0px;fill:rgb(48, 48, 48);stroke:rgba(0, 0, 0, 0);dominant-baseline:middle;text-anchor:middle;">u_edn_core : edn_core</text><line x1="0" y1="20" x2="320.0625" y2="20"/></g><g id="sprotty_ArchitectureBlockImpl$edn/InstantiationBlockImpl$u_edn_core/BPortImpl$csrng_cmd_i" transform="translate(0, 206)" class="triangle"><path d="M 0,0 L 5,2.5 L 0,5 Z" transform="translate(-1.67, -2.5)" class="sprotty-port" style="fill:rgb(48, 48, 48);stroke:rgb(48, 48, 48);"/><text class="clickable sprotty-label port" id="sprotty_ArchitectureBlockImpl$edn/InstantiationBlockImpl$u_edn_core/BPortImpl$csrng_cmd_i/label" transform="translate(6, -9) translate(35.9375, 14)" style="cursor:default;font-size:12px;perspective-origin:0px 0px;fill:rgb(48, 48, 48);text-anchor:middle;">csrng_cmd_i</text></g><g id="sprotty_ArchitectureBlockImpl$edn/InstantiationBlockImpl$u_edn_core/BPortImpl$edn_i" transform="translate(0, 164)" class="triangle"><path d="M 0,0 L 5,2.5 L 0,5 Z" transform="translate(-1.67, -2.5)" class="sprotty-port" style="fill:rgb(48, 48, 48);stroke:rgb(48, 48, 48);"/><text class="clickable sprotty-label port" id="sprotty_ArchitectureBlockImpl$edn/InstantiationBlockImpl$u_edn_core/BPortImpl$edn_i/label" transform="translate(6, -9) translate(15.71875, 14)" style="cursor:default;font-size:12px;perspective-origin:0px 0px;fill:rgb(48, 48, 48);text-anchor:middle;">edn_i</text></g><g id="sprotty_ArchitectureBlockImpl$edn/InstantiationBlockImpl$u_edn_core/BPortImpl$reg2hw" transform="translate(0, 122)" class="triangle"><path d="M 0,0 L 5,2.5 L 0,5 Z" transform="translate(-1.67, -2.5)" class="sprotty-port" style="fill:rgb(48, 48, 48);stroke:rgb(48, 48, 48);"/><text class="clickable sprotty-label port" id="sprotty_ArchitectureBlockImpl$edn/InstantiationBlockImpl$u_edn_core/BPortImpl$reg2hw/label" transform="translate(6, -9) translate(20.6875, 14)" style="cursor:default;font-size:12px;perspective-origin:0.1875px 0px;fill:rgb(48, 48, 48);text-anchor:middle;">reg2hw</text></g><g id="sprotty_ArchitectureBlockImpl$edn/InstantiationBlockImpl$u_edn_core/BPortImpl$rst_ni" transform="translate(0, 80)" class="triangle"><path d="M 0,0 L 5,2.5 L 0,5 Z" transform="translate(-1.67, -2.5)" class="sprotty-port" style="fill:rgb(48, 48, 48);stroke:rgb(48, 48, 48);"/><text class="clickable sprotty-label port" id="sprotty_ArchitectureBlockImpl$edn/InstantiationBlockImpl$u_edn_core/BPortImpl$rst_ni/label" transform="translate(6, -9) translate(15.921875, 14)" style="cursor:default;font-size:12px;perspective-origin:0px 0px;fill:rgb(48, 48, 48);text-anchor:middle;">rst_ni</text></g><g id="sprotty_ArchitectureBlockImpl$edn/InstantiationBlockImpl$u_edn_core/BPortImpl$clk_i" transform="translate(0, 38)" class="triangle"><path d="M 0,0 L 5,2.5 L 0,5 Z" transform="translate(-1.67, -2.5)" class="sprotty-port" style="fill:rgb(48, 48, 48);stroke:rgb(48, 48, 48);"/><text class="clickable sprotty-label port" id="sprotty_ArchitectureBlockImpl$edn/InstantiationBlockImpl$u_edn_core/BPortImpl$clk_i/label" transform="translate(6, -9) translate(13.09375, 14)" style="cursor:default;font-size:12px;perspective-origin:0px 0px;fill:rgb(48, 48, 48);text-anchor:middle;">clk_i</text></g><g id="sprotty_ArchitectureBlockImpl$edn/InstantiationBlockImpl$u_edn_core/BPortImpl$hw2reg" transform="translate(320.0625, 38)" class="triangle"><path d="M 0,0 L 5,2.5 L 0,5 Z" transform="translate(-1.67, -2.5)" class="sprotty-port" style="fill:rgb(48, 48, 48);stroke:rgb(48, 48, 48);"/><text class="clickable sprotty-label port" id="sprotty_ArchitectureBlockImpl$edn/InstantiationBlockImpl$u_edn_core/BPortImpl$hw2reg/label" transform="translate(-47.625, -9) translate(20.6875, 14)" style="cursor:default;font-size:12px;perspective-origin:0.125px 0px;fill:rgb(48, 48, 48);text-anchor:middle;">hw2reg</text></g><g id="sprotty_ArchitectureBlockImpl$edn/InstantiationBlockImpl$u_edn_core/BPortImpl$edn_o" transform="translate(320.0625, 66)" class="triangle"><path d="M 0,0 L 5,2.5 L 0,5 Z" transform="translate(-1.67, -2.5)" class="sprotty-port" style="fill:rgb(48, 48, 48);stroke:rgb(48, 48, 48);"/><text class="clickable sprotty-label port" id="sprotty_ArchitectureBlockImpl$edn/InstantiationBlockImpl$u_edn_core/BPortImpl$edn_o/label" transform="translate(-41.40625, -9) translate(17.703125, 14)" style="cursor:default;font-size:12px;perspective-origin:0px 0px;fill:rgb(48, 48, 48);text-anchor:middle;">edn_o</text></g><g id="sprotty_ArchitectureBlockImpl$edn/InstantiationBlockImpl$u_edn_core/BPortImpl$csrng_cmd_o" transform="translate(320.0625, 94)" class="triangle"><path d="M 0,0 L 5,2.5 L 0,5 Z" transform="translate(-1.67, -2.5)" class="sprotty-port" style="fill:rgb(48, 48, 48);stroke:rgb(48, 48, 48);"/><text class="clickable sprotty-label port" id="sprotty_ArchitectureBlockImpl$edn/InstantiationBlockImpl$u_edn_core/BPortImpl$csrng_cmd_o/label" transform="translate(-81.84375, -9) translate(37.921875, 14)" style="cursor:default;font-size:12px;perspective-origin:0px 0px;fill:rgb(48, 48, 48);text-anchor:middle;">csrng_cmd_o</text></g><g id="sprotty_ArchitectureBlockImpl$edn/InstantiationBlockImpl$u_edn_core/BPortImpl$alert_test_o" transform="translate(320.0625, 122)" class="triangle"><path d="M 0,0 L 5,2.5 L 0,5 Z" transform="translate(-1.67, -2.5)" class="sprotty-port" style="fill:rgb(48, 48, 48);stroke:rgb(48, 48, 48);"/><text class="clickable sprotty-label port" id="sprotty_ArchitectureBlockImpl$edn/InstantiationBlockImpl$u_edn_core/BPortImpl$alert_test_o/label" transform="translate(-73.59375, -9) translate(33.796875, 14)" style="cursor:default;font-size:12px;perspective-origin:0px 0px;fill:rgb(48, 48, 48);text-anchor:middle;">alert_test_o</text></g><g id="sprotty_ArchitectureBlockImpl$edn/InstantiationBlockImpl$u_edn_core/BPortImpl$fatal_alert_o" transform="translate(320.0625, 150)" class="triangle"><path d="M 0,0 L 5,2.5 L 0,5 Z" transform="translate(-1.67, -2.5)" class="sprotty-port" style="fill:rgb(48, 48, 48);stroke:rgb(48, 48, 48);"/><text class="clickable sprotty-label port" id="sprotty_ArchitectureBlockImpl$edn/InstantiationBlockImpl$u_edn_core/BPortImpl$fatal_alert_o/label" transform="translate(-77.375, -9) translate(35.6875, 14)" style="cursor:default;font-size:12px;perspective-origin:0px 0px;fill:rgb(48, 48, 48);text-anchor:middle;">fatal_alert_o</text></g><g id="sprotty_ArchitectureBlockImpl$edn/InstantiationBlockImpl$u_edn_core/BPortImpl$intr_edn_cmd_req_done_o" transform="translate(320.0625, 178)" class="triangle"><path d="M 0,0 L 5,2.5 L 0,5 Z" transform="translate(-1.67, -2.5)" class="sprotty-port" style="fill:rgb(48, 48, 48);stroke:rgb(48, 48, 48);"/><text class="clickable sprotty-label port" id="sprotty_ArchitectureBlockImpl$edn/InstantiationBlockImpl$u_edn_core/BPortImpl$intr_edn_cmd_req_done_o/label" transform="translate(-160.03125, -9) translate(77.015625, 14)" style="cursor:default;font-size:12px;perspective-origin:0px 0px;fill:rgb(48, 48, 48);text-anchor:middle;">intr_edn_cmd_req_done_o</text></g><g id="sprotty_ArchitectureBlockImpl$edn/InstantiationBlockImpl$u_edn_core/BPortImpl$intr_edn_fatal_err_o" transform="translate(320.0625, 206)" class="triangle"><path d="M 0,0 L 5,2.5 L 0,5 Z" transform="translate(-1.67, -2.5)" class="sprotty-port" style="fill:rgb(48, 48, 48);stroke:rgb(48, 48, 48);"/><text class="clickable sprotty-label port" id="sprotty_ArchitectureBlockImpl$edn/InstantiationBlockImpl$u_edn_core/BPortImpl$intr_edn_fatal_err_o/label" transform="translate(-121.96875, -9) translate(57.984375, 14)" style="cursor:default;font-size:12px;perspective-origin:0px 0px;fill:rgb(48, 48, 48);text-anchor:middle;">intr_edn_fatal_err_o</text></g></g><g id="sprotty_ArchitectureBlockImpl$edn/InstantiationBlockImpl$u_reg" transform="translate(142.875, 68)" class="instantiation"><g class="sprotty-block" style="fill:rgb(255, 255, 255);stroke:rgb(48, 48, 48);stroke-dasharray:0px;"><rect x="0" y="0" rx="1" ry="1" width="165.375" height="168"/><text x="82.6875" y="12" class="sprotty-block-name" style="cursor:pointer;font-weight:700;perspective-origin:82.6875px 0px;fill:rgb(48, 48, 48);stroke:rgba(0, 0, 0, 0);dominant-baseline:middle;text-anchor:middle;">u_reg : edn_reg_top</text><line x1="0" y1="20" x2="165.375" y2="20"/></g><g id="sprotty_ArchitectureBlockImpl$edn/InstantiationBlockImpl$u_reg/BPortImpl$devmode_i" transform="translate(0, 150)" class="triangle"><path d="M 0,0 L 5,2.5 L 0,5 Z" transform="translate(-1.67, -2.5)" class="sprotty-port" style="fill:rgb(48, 48, 48);stroke:rgb(48, 48, 48);"/><text class="clickable sprotty-label port" id="sprotty_ArchitectureBlockImpl$edn/InstantiationBlockImpl$u_reg/BPortImpl$devmode_i/label" transform="translate(6, -9) translate(31.453125, 14)" style="cursor:default;font-size:12px;perspective-origin:0px 0px;fill:rgb(48, 48, 48);text-anchor:middle;">devmode_i</text></g><g id="sprotty_ArchitectureBlockImpl$edn/InstantiationBlockImpl$u_reg/BPortImpl$hw2reg" transform="translate(0, 122)" class="triangle"><path d="M 0,0 L 5,2.5 L 0,5 Z" transform="translate(-1.67, -2.5)" class="sprotty-port" style="fill:rgb(48, 48, 48);stroke:rgb(48, 48, 48);"/><text class="clickable sprotty-label port" id="sprotty_ArchitectureBlockImpl$edn/InstantiationBlockImpl$u_reg/BPortImpl$hw2reg/label" transform="translate(6, -9) translate(20.6875, 14)" style="cursor:default;font-size:12px;perspective-origin:0.125px 0px;fill:rgb(48, 48, 48);text-anchor:middle;">hw2reg</text></g><g id="sprotty_ArchitectureBlockImpl$edn/InstantiationBlockImpl$u_reg/BPortImpl$tl_i" transform="translate(0, 94)" class="triangle"><path d="M 0,0 L 5,2.5 L 0,5 Z" transform="translate(-1.67, -2.5)" class="sprotty-port" style="fill:rgb(48, 48, 48);stroke:rgb(48, 48, 48);"/><text class="clickable sprotty-label port" id="sprotty_ArchitectureBlockImpl$edn/InstantiationBlockImpl$u_reg/BPortImpl$tl_i/label" transform="translate(6, -9) translate(8.984375, 14)" style="cursor:default;font-size:12px;perspective-origin:0px 0px;fill:rgb(48, 48, 48);text-anchor:middle;">tl_i</text></g><g id="sprotty_ArchitectureBlockImpl$edn/InstantiationBlockImpl$u_reg/BPortImpl$rst_ni" transform="translate(0, 66)" class="triangle"><path d="M 0,0 L 5,2.5 L 0,5 Z" transform="translate(-1.67, -2.5)" class="sprotty-port" style="fill:rgb(48, 48, 48);stroke:rgb(48, 48, 48);"/><text class="clickable sprotty-label port" id="sprotty_ArchitectureBlockImpl$edn/InstantiationBlockImpl$u_reg/BPortImpl$rst_ni/label" transform="translate(6, -9) translate(15.921875, 14)" style="cursor:default;font-size:12px;perspective-origin:0px 0px;fill:rgb(48, 48, 48);text-anchor:middle;">rst_ni</text></g><g id="sprotty_ArchitectureBlockImpl$edn/InstantiationBlockImpl$u_reg/BPortImpl$clk_i" transform="translate(0, 38)" class="triangle"><path d="M 0,0 L 5,2.5 L 0,5 Z" transform="translate(-1.67, -2.5)" class="sprotty-port" style="fill:rgb(48, 48, 48);stroke:rgb(48, 48, 48);"/><text class="clickable sprotty-label port" id="sprotty_ArchitectureBlockImpl$edn/InstantiationBlockImpl$u_reg/BPortImpl$clk_i/label" transform="translate(6, -9) translate(13.09375, 14)" style="cursor:default;font-size:12px;perspective-origin:0px 0px;fill:rgb(48, 48, 48);text-anchor:middle;">clk_i</text></g><g id="sprotty_ArchitectureBlockImpl$edn/InstantiationBlockImpl$u_reg/BPortImpl$tl_o" transform="translate(165.375, 38)" class="triangle"><path d="M 0,0 L 5,2.5 L 0,5 Z" transform="translate(-1.67, -2.5)" class="sprotty-port" style="fill:rgb(48, 48, 48);stroke:rgb(48, 48, 48);"/><text class="clickable sprotty-label port" id="sprotty_ArchitectureBlockImpl$edn/InstantiationBlockImpl$u_reg/BPortImpl$tl_o/label" transform="translate(-27.9375, -9) translate(10.96875, 14)" style="cursor:default;font-size:12px;perspective-origin:0px 0px;fill:rgb(48, 48, 48);text-anchor:middle;">tl_o</text></g><g id="sprotty_ArchitectureBlockImpl$edn/InstantiationBlockImpl$u_reg/BPortImpl$reg2hw" transform="translate(165.375, 150)" class="triangle"><path d="M 0,0 L 5,2.5 L 0,5 Z" transform="translate(-1.67, -2.5)" class="sprotty-port" style="fill:rgb(48, 48, 48);stroke:rgb(48, 48, 48);"/><text class="clickable sprotty-label port" id="sprotty_ArchitectureBlockImpl$edn/InstantiationBlockImpl$u_reg/BPortImpl$reg2hw/label" transform="translate(-47.75, -9) translate(20.6875, 14)" style="cursor:default;font-size:12px;perspective-origin:0.1875px 0px;fill:rgb(48, 48, 48);text-anchor:middle;">reg2hw</text></g></g><g id="sprotty_ArchitectureBlockImpl$edn/BPortImpl$alert_rx_i" transform="translate(0, 491)" class="triangle"><path d="M 0,0 L 5,2.5 L 0,5 Z" transform="translate(-1.67, -2.5)" class="sprotty-port" style="fill:rgb(48, 48, 48);stroke:rgb(48, 48, 48);"/><text class="clickable sprotty-label port" id="sprotty_ArchitectureBlockImpl$edn/BPortImpl$alert_rx_i/label" transform="translate(6, 6) translate(26.6875, 14)" style="cursor:default;font-size:12px;perspective-origin:0px 0px;fill:rgb(48, 48, 48);text-anchor:middle;">alert_rx_i</text></g><g id="sprotty_ArchitectureBlockImpl$edn/BPortImpl$csrng_cmd_i" transform="translate(0, 457)" class="triangle"><path d="M 0,0 L 5,2.5 L 0,5 Z" transform="translate(-1.67, -2.5)" class="sprotty-port" style="fill:rgb(48, 48, 48);stroke:rgb(48, 48, 48);"/><text class="clickable sprotty-label port" id="sprotty_ArchitectureBlockImpl$edn/BPortImpl$csrng_cmd_i/label" transform="translate(6, 6) translate(35.9375, 14)" style="cursor:default;font-size:12px;perspective-origin:0px 0px;fill:rgb(48, 48, 48);text-anchor:middle;">csrng_cmd_i</text></g><g id="sprotty_ArchitectureBlockImpl$edn/BPortImpl$edn_i" transform="translate(0, 423)" class="triangle"><path d="M 0,0 L 5,2.5 L 0,5 Z" transform="translate(-1.67, -2.5)" class="sprotty-port" style="fill:rgb(48, 48, 48);stroke:rgb(48, 48, 48);"/><text class="clickable sprotty-label port" id="sprotty_ArchitectureBlockImpl$edn/BPortImpl$edn_i/label" transform="translate(6, 6) translate(15.71875, 14)" style="cursor:default;font-size:12px;perspective-origin:0px 0px;fill:rgb(48, 48, 48);text-anchor:middle;">edn_i</text></g><g id="sprotty_ArchitectureBlockImpl$edn/BPortImpl$tl_i" transform="translate(0, 389)" class="triangle"><path d="M 0,0 L 5,2.5 L 0,5 Z" transform="translate(-1.67, -2.5)" class="sprotty-port" style="fill:rgb(48, 48, 48);stroke:rgb(48, 48, 48);"/><text class="clickable sprotty-label port" id="sprotty_ArchitectureBlockImpl$edn/BPortImpl$tl_i/label" transform="translate(6, 6) translate(8.984375, 14)" style="cursor:default;font-size:12px;perspective-origin:0px 0px;fill:rgb(48, 48, 48);text-anchor:middle;">tl_i</text></g><g id="sprotty_ArchitectureBlockImpl$edn/BPortImpl$rst_ni" transform="translate(0, 336)" class="triangle"><path d="M 0,0 L 5,2.5 L 0,5 Z" transform="translate(-1.67, -2.5)" class="sprotty-port" style="fill:rgb(48, 48, 48);stroke:rgb(48, 48, 48);"/><text class="clickable sprotty-label port" id="sprotty_ArchitectureBlockImpl$edn/BPortImpl$rst_ni/label" transform="translate(6, 6) translate(15.921875, 14)" style="cursor:default;font-size:12px;perspective-origin:0px 0px;fill:rgb(48, 48, 48);text-anchor:middle;">rst_ni</text></g><g id="sprotty_ArchitectureBlockImpl$edn/BPortImpl$clk_i" transform="translate(0, 294)" class="triangle"><path d="M 0,0 L 5,2.5 L 0,5 Z" transform="translate(-1.67, -2.5)" class="sprotty-port" style="fill:rgb(48, 48, 48);stroke:rgb(48, 48, 48);"/><text class="clickable sprotty-label port" id="sprotty_ArchitectureBlockImpl$edn/BPortImpl$clk_i/label" transform="translate(6, 6) translate(13.09375, 14)" style="cursor:default;font-size:12px;perspective-origin:0px 0px;fill:rgb(48, 48, 48);text-anchor:middle;">clk_i</text></g><g id="sprotty_ArchitectureBlockImpl$edn/BPortImpl$tl_o" transform="translate(1237.609375, 36)" class="triangle"><path d="M 0,0 L 5,2.5 L 0,5 Z" transform="translate(-1.67, -2.5)" class="sprotty-port" style="fill:rgb(48, 48, 48);stroke:rgb(48, 48, 48);"/><text class="clickable sprotty-label port" id="sprotty_ArchitectureBlockImpl$edn/BPortImpl$tl_o/label" transform="translate(-27.9375, 6) translate(10.96875, 14)" style="cursor:default;font-size:12px;perspective-origin:0px 0px;fill:rgb(48, 48, 48);text-anchor:middle;">tl_o</text></g><g id="sprotty_ArchitectureBlockImpl$edn/BPortImpl$edn_o" transform="translate(1237.609375, 198)" class="triangle"><path d="M 0,0 L 5,2.5 L 0,5 Z" transform="translate(-1.67, -2.5)" class="sprotty-port" style="fill:rgb(48, 48, 48);stroke:rgb(48, 48, 48);"/><text class="clickable sprotty-label port" id="sprotty_ArchitectureBlockImpl$edn/BPortImpl$edn_o/label" transform="translate(-41.40625, 6) translate(17.703125, 14)" style="cursor:default;font-size:12px;perspective-origin:0px 0px;fill:rgb(48, 48, 48);text-anchor:middle;">edn_o</text></g><g id="sprotty_ArchitectureBlockImpl$edn/BPortImpl$csrng_cmd_o" transform="translate(1237.609375, 232)" class="triangle"><path d="M 0,0 L 5,2.5 L 0,5 Z" transform="translate(-1.67, -2.5)" class="sprotty-port" style="fill:rgb(48, 48, 48);stroke:rgb(48, 48, 48);"/><text class="clickable sprotty-label port" id="sprotty_ArchitectureBlockImpl$edn/BPortImpl$csrng_cmd_o/label" transform="translate(-81.84375, 6) translate(37.921875, 14)" style="cursor:default;font-size:12px;perspective-origin:0px 0px;fill:rgb(48, 48, 48);text-anchor:middle;">csrng_cmd_o</text></g><g id="sprotty_ArchitectureBlockImpl$edn/BPortImpl$alert_tx_o" transform="translate(1237.609375, 394)" class="triangle"><path d="M 0,0 L 5,2.5 L 0,5 Z" transform="translate(-1.67, -2.5)" class="sprotty-port" style="fill:rgb(48, 48, 48);stroke:rgb(48, 48, 48);"/><text class="clickable sprotty-label port" id="sprotty_ArchitectureBlockImpl$edn/BPortImpl$alert_tx_o/label" transform="translate(-63, 6) translate(28.5, 14)" style="cursor:default;font-size:12px;perspective-origin:0px 0px;fill:rgb(48, 48, 48);text-anchor:middle;">alert_tx_o</text></g><g id="sprotty_ArchitectureBlockImpl$edn/BPortImpl$intr_edn_cmd_req_done_o" transform="translate(1237.609375, 428)" class="triangle"><path d="M 0,0 L 5,2.5 L 0,5 Z" transform="translate(-1.67, -2.5)" class="sprotty-port" style="fill:rgb(48, 48, 48);stroke:rgb(48, 48, 48);"/><text class="clickable sprotty-label port" id="sprotty_ArchitectureBlockImpl$edn/BPortImpl$intr_edn_cmd_req_done_o/label" transform="translate(-160.03125, 6) translate(77.015625, 14)" style="cursor:default;font-size:12px;perspective-origin:0px 0px;fill:rgb(48, 48, 48);text-anchor:middle;">intr_edn_cmd_req_done_o</text></g><g id="sprotty_ArchitectureBlockImpl$edn/BPortImpl$intr_edn_fatal_err_o" transform="translate(1237.609375, 462)" class="triangle"><path d="M 0,0 L 5,2.5 L 0,5 Z" transform="translate(-1.67, -2.5)" class="sprotty-port" style="fill:rgb(48, 48, 48);stroke:rgb(48, 48, 48);"/><text class="clickable sprotty-label port" id="sprotty_ArchitectureBlockImpl$edn/BPortImpl$intr_edn_fatal_err_o/label" transform="translate(-121.96875, 6) translate(57.984375, 14)" style="cursor:default;font-size:12px;perspective-origin:0px 0px;fill:rgb(48, 48, 48);text-anchor:middle;">intr_edn_fatal_err_o</text></g></g></g></svg>