<svg xmlns="http://www.w3.org/2000/svg" id="sprotty_work.aes" class="sprotty-graph sprotty-block-diagram blockdiagram" style="font-family:&quot;Noto Sans&quot;, Helvetica, Arial, sans-serif;perspective-origin:0px 0px;transform-origin:0px 0px;" version="1.1" viewBox="7 7 1145.484375 489" width="1145.484375" height="489"><g transform="scale(1) translate(0,0)"><g id="sprotty_ArchitectureBlockImpl$aes" transform="translate(12, 12)" class="architecture"><g class="sprotty-block" style="fill:rgb(255, 255, 255);stroke:rgb(48, 48, 48);stroke-dasharray:0px;"><rect x="0" y="0" rx="1" ry="1" width="1135.484375" height="479"/><text x="567.7421875" y="12" class="sprotty-block-name" style="cursor:pointer;font-weight:700;perspective-origin:567.781px 0px;fill:rgb(48, 48, 48);stroke:rgba(0, 0, 0, 0);dominant-baseline:middle;text-anchor:middle;">aes</text><line x1="0" y1="20" x2="1135.484375" y2="20"/></g><g id="sprotty_ArchitectureBlockImpl$aes/AssignmentBlockImpl$idle_o/GPortImpl$idle_oOUT_to_ArchitectureBlockImpl$aes/BPortImpl$idle_o" class="sprotty-edge edge" style="fill:none;stroke:rgb(112, 112, 112);stroke-linejoin:round;"><g><path d="M 542.265625 370 L 1135.484375 370 "/><path d="M 542.265625 370 L 1135.484375 370 " class="clickable"/></g></g><g id="sprotty_ArchitectureBlockImpl$aes/InstantiationBlockImpl$u_reg/BPortImpl$tl_o_to_ArchitectureBlockImpl$aes/BPortImpl$tl_o" class="sprotty-edge thick edge" style="fill:none;stroke:rgb(112, 112, 112);stroke-linejoin:round;stroke-width:3px;"><g><path d="M 613.5 96 L 621.5 96 C 622.5 96 623.5 95 623.5 94 L 623.5 69 C 623.5 68 624.5 67 625.5 67 L 1135.484375 67 "/><path d="M 613.5 96 L 621.5 96 C 622.5 96 623.5 95 623.5 94 L 623.5 69 C 623.5 68 624.5 67 625.5 67 L 1135.484375 67 " class="clickable"/></g></g><g id="sprotty_ArchitectureBlockImpl$aes/GenerateStatementBlockImpl$gen_alert_tx/GPortImpl$alert_tx_o_to_ArchitectureBlockImpl$aes/BPortImpl$alert_tx_o" class="sprotty-edge thick edge" style="fill:none;stroke:rgb(112, 112, 112);stroke-linejoin:round;stroke-width:3px;"><g><path d="M 1057.484375 264 L 1135.484375 264 "/><path d="M 1057.484375 264 L 1135.484375 264 " class="clickable"/></g></g><g id="sprotty_ArchitectureBlockImpl$aes/BPortImpl$clk_i_to_ArchitectureBlockImpl$aes/InstantiationBlockImpl$u_reg/BPortImpl$clk_i" class="sprotty-edge edge" style="fill:none;stroke:rgb(112, 112, 112);stroke-linejoin:round;"><g><path d="M 0 202 L 82.375 202 C 83.375 202 84.375 201 84.375 200 L 84.375 38 C 84.375 37 85.375 36 86.375 36 L 429.3125 36 C 430.3125 36 431.3125 37 431.3125 38 L 431.3125 94 C 431.3125 95 432.3125 96 433.3125 96 L 451.3125 96 "/><path d="M 0 202 L 82.375 202 C 83.375 202 84.375 201 84.375 200 L 84.375 38 C 84.375 37 85.375 36 86.375 36 L 429.3125 36 C 430.3125 36 431.3125 37 431.3125 38 L 431.3125 94 C 431.3125 95 432.3125 96 433.3125 96 L 451.3125 96 " class="clickable"/></g><circle r="2" id="sprotty_ArchitectureBlockImpl$aes/BPortImpl$clk_i_to_ArchitectureBlockImpl$aes/InstantiationBlockImpl$u_reg/BPortImpl$clk_i/junction0" transform="translate(84.375, 202)" class="sprotty-junction junction" style="fill:rgb(112, 112, 112);stroke:none;"/><circle r="2" id="sprotty_ArchitectureBlockImpl$aes/BPortImpl$clk_i_to_ArchitectureBlockImpl$aes/InstantiationBlockImpl$u_reg/BPortImpl$clk_i/junction1" transform="translate(431.3125, 36)" class="sprotty-junction junction" style="fill:rgb(112, 112, 112);stroke:none;"/></g><g id="sprotty_ArchitectureBlockImpl$aes/BPortImpl$rst_ni_to_ArchitectureBlockImpl$aes/InstantiationBlockImpl$u_reg/BPortImpl$rst_ni" class="sprotty-edge edge" style="fill:none;stroke:rgb(112, 112, 112);stroke-linejoin:round;"><g><path d="M 0 406 L 429.3125 406 C 430.3125 406 431.3125 405 431.3125 404 L 431.3125 126 C 431.3125 125 432.3125 124 433.3125 124 L 451.3125 124 "/><path d="M 0 406 L 429.3125 406 C 430.3125 406 431.3125 405 431.3125 404 L 431.3125 126 C 431.3125 125 432.3125 124 433.3125 124 L 451.3125 124 " class="clickable"/></g><circle r="2" id="sprotty_ArchitectureBlockImpl$aes/BPortImpl$rst_ni_to_ArchitectureBlockImpl$aes/InstantiationBlockImpl$u_reg/BPortImpl$rst_ni/junction0" transform="translate(431.3125, 406)" class="sprotty-junction junction" style="fill:rgb(112, 112, 112);stroke:none;"/></g><g id="sprotty_ArchitectureBlockImpl$aes/BPortImpl$tl_i_to_ArchitectureBlockImpl$aes/InstantiationBlockImpl$u_reg/BPortImpl$tl_i" class="sprotty-edge thick edge" style="fill:none;stroke:rgb(112, 112, 112);stroke-linejoin:round;stroke-width:3px;"><g><path d="M 0 372 L 92.375 372 C 93.375 372 94.375 371 94.375 370 L 94.375 154 C 94.375 153 95.375 152 96.375 152 L 451.3125 152 "/><path d="M 0 372 L 92.375 372 C 93.375 372 94.375 371 94.375 370 L 94.375 154 C 94.375 153 95.375 152 96.375 152 L 451.3125 152 " class="clickable"/></g></g><g id="sprotty_ArchitectureBlockImpl$aes/BPortImpl$clk_i_to_ArchitectureBlockImpl$aes/InstantiationBlockImpl$u_aes_core/BPortImpl$clk_i" class="sprotty-edge edge" style="fill:none;stroke:rgb(112, 112, 112);stroke-linejoin:round;"><g><path d="M 0 202 L 124.375 202 "/><path d="M 0 202 L 124.375 202 " class="clickable"/></g></g><g id="sprotty_ArchitectureBlockImpl$aes/BPortImpl$rst_ni_to_ArchitectureBlockImpl$aes/InstantiationBlockImpl$u_aes_core/BPortImpl$rst_ni" class="sprotty-edge edge" style="fill:none;stroke:rgb(112, 112, 112);stroke-linejoin:round;"><g><path d="M 0 406 L 102.375 406 C 103.375 406 104.375 405 104.375 404 L 104.375 232 C 104.375 231 105.375 230 106.375 230 L 124.375 230 "/><path d="M 0 406 L 102.375 406 C 103.375 406 104.375 405 104.375 404 L 104.375 232 C 104.375 231 105.375 230 106.375 230 L 124.375 230 " class="clickable"/></g><circle r="2" id="sprotty_ArchitectureBlockImpl$aes/BPortImpl$rst_ni_to_ArchitectureBlockImpl$aes/InstantiationBlockImpl$u_aes_core/BPortImpl$rst_ni/junction0" transform="translate(104.375, 406)" class="sprotty-junction junction" style="fill:rgb(112, 112, 112);stroke:none;"/></g><g id="sprotty_ArchitectureBlockImpl$aes/BPortImpl$clk_i_to_ArchitectureBlockImpl$aes/GenerateStatementBlockImpl$gen_alert_tx/GPortImpl$clk_i" class="sprotty-edge edge" style="fill:none;stroke:rgb(112, 112, 112);stroke-linejoin:round;"><g><path d="M 0 202 L 82.375 202 C 83.375 202 84.375 201 84.375 200 L 84.375 38 C 84.375 37 85.375 36 86.375 36 L 671.21875 36 C 672.21875 36 673.21875 37 673.21875 38 L 673.21875 150 C 673.21875 151 674.21875 152 675.21875 152 L 693.21875 152 "/><path d="M 0 202 L 82.375 202 C 83.375 202 84.375 201 84.375 200 L 84.375 38 C 84.375 37 85.375 36 86.375 36 L 671.21875 36 C 672.21875 36 673.21875 37 673.21875 38 L 673.21875 150 C 673.21875 151 674.21875 152 675.21875 152 L 693.21875 152 " class="clickable"/></g></g><g id="sprotty_ArchitectureBlockImpl$aes/BPortImpl$rst_ni_to_ArchitectureBlockImpl$aes/GenerateStatementBlockImpl$gen_alert_tx/GPortImpl$rst_ni" class="sprotty-edge edge" style="fill:none;stroke:rgb(112, 112, 112);stroke-linejoin:round;"><g><path d="M 0 406 L 671.21875 406 C 672.21875 406 673.21875 405 673.21875 404 L 673.21875 182 C 673.21875 181 674.21875 180 675.21875 180 L 693.21875 180 "/><path d="M 0 406 L 671.21875 406 C 672.21875 406 673.21875 405 673.21875 404 L 673.21875 182 C 673.21875 181 674.21875 180 675.21875 180 L 693.21875 180 " class="clickable"/></g></g><g id="sprotty_ArchitectureBlockImpl$aes/BPortImpl$alert_rx_i_to_ArchitectureBlockImpl$aes/GenerateStatementBlockImpl$gen_alert_tx/GPortImpl$alert_rx_i" class="sprotty-edge thick edge" style="fill:none;stroke:rgb(112, 112, 112);stroke-linejoin:round;stroke-width:3px;"><g><path d="M 0 440 L 681.21875 440 C 682.21875 440 683.21875 439 683.21875 438 L 683.21875 266 C 683.21875 265 684.21875 264 685.21875 264 L 693.21875 264 "/><path d="M 0 440 L 681.21875 440 C 682.21875 440 683.21875 439 683.21875 438 L 683.21875 266 C 683.21875 265 684.21875 264 685.21875 264 L 693.21875 264 " class="clickable"/></g></g><g id="sprotty_ArchitectureBlockImpl$aes/InstantiationBlockImpl$u_reg/BPortImpl$reg2hw_to_ArchitectureBlockImpl$aes/InstantiationBlockImpl$u_aes_core/BPortImpl$reg2hw" class="sprotty-edge thick edge" style="fill:none;stroke:rgb(112, 112, 112);stroke-linejoin:round;stroke-width:3px;"><g><path d="M 613.5 208 L 621.5 208 C 622.5 208 623.5 209 623.5 210 L 623.5 396 C 623.5 397 622.5 398 621.5 398 L 116.375 398 C 115.375 398 114.375 397 114.375 396 L 114.375 372 C 114.375 371 115.375 370 116.375 370 L 124.375 370 "/><path d="M 613.5 208 L 621.5 208 C 622.5 208 623.5 209 623.5 210 L 623.5 396 C 623.5 397 622.5 398 621.5 398 L 116.375 398 C 115.375 398 114.375 397 114.375 396 L 114.375 372 C 114.375 371 115.375 370 116.375 370 L 124.375 370 " class="clickable"/></g><circle r="3" id="sprotty_ArchitectureBlockImpl$aes/InstantiationBlockImpl$u_reg/BPortImpl$reg2hw_to_ArchitectureBlockImpl$aes/InstantiationBlockImpl$u_aes_core/BPortImpl$reg2hw/junction0" transform="translate(623.5, 208)" class="sprotty-junction thick" style="fill:rgb(112, 112, 112);stroke:none;"/></g><g id="sprotty_ArchitectureBlockImpl$aes/InstantiationBlockImpl$u_reg/BPortImpl$reg2hw_to_ArchitectureBlockImpl$aes/AssignmentBlockImpl$alert_test/GPortImpl$reg2hwIN" class="sprotty-edge thick edge" style="fill:none;stroke:rgb(112, 112, 112);stroke-linejoin:round;stroke-width:3px;"><g><path d="M 613.5 208 L 633.5 208 "/><path d="M 613.5 208 L 633.5 208 " class="clickable"/></g></g><g id="sprotty_ArchitectureBlockImpl$aes/InstantiationBlockImpl$u_aes_core/BPortImpl$hw2reg_to_ArchitectureBlockImpl$aes/InstantiationBlockImpl$u_reg/BPortImpl$hw2reg" class="sprotty-edge thick edge" style="fill:none;stroke:rgb(112, 112, 112);stroke-linejoin:round;stroke-width:3px;"><g><path d="M 411.3125 370 L 439.3125 370 C 440.3125 370 441.3125 369 441.3125 368 L 441.3125 182 C 441.3125 181 442.3125 180 443.3125 180 L 451.3125 180 "/><path d="M 411.3125 370 L 439.3125 370 C 440.3125 370 441.3125 369 441.3125 368 L 441.3125 182 C 441.3125 181 442.3125 180 443.3125 180 L 451.3125 180 " class="clickable"/></g><circle r="3" id="sprotty_ArchitectureBlockImpl$aes/InstantiationBlockImpl$u_aes_core/BPortImpl$hw2reg_to_ArchitectureBlockImpl$aes/InstantiationBlockImpl$u_reg/BPortImpl$hw2reg/junction0" transform="translate(441.3125, 370)" class="sprotty-junction thick" style="fill:rgb(112, 112, 112);stroke:none;"/></g><g id="sprotty_ArchitectureBlockImpl$aes/InstantiationBlockImpl$u_aes_core/BPortImpl$hw2reg_to_ArchitectureBlockImpl$aes/AssignmentBlockImpl$idle_o/GPortImpl$hw2regIN" class="sprotty-edge thick edge" style="fill:none;stroke:rgb(112, 112, 112);stroke-linejoin:round;stroke-width:3px;"><g><path d="M 411.3125 370 L 522.546875 370 "/><path d="M 411.3125 370 L 522.546875 370 " class="clickable"/></g></g><g id="sprotty_ArchitectureBlockImpl$aes/InstantiationBlockImpl$u_aes_core/BPortImpl$alert_recov_o_to_ArchitectureBlockImpl$aes/GenerateStatementBlockImpl$gen_alert_tx/GPortImpl$alert" class="sprotty-edge thick edge" style="fill:none;stroke:rgb(112, 112, 112);stroke-linejoin:round;stroke-width:3px;"><g><path d="M 411.3125 286 L 419.3125 286 C 420.3125 286 421.3125 285 421.3125 284 L 421.3125 48 C 421.3125 47 422.3125 46 423.3125 46 L 661.21875 46 C 662.21875 46 663.21875 47 663.21875 48 L 663.21875 234 C 663.21875 235 664.21875 236 665.21875 236 L 693.21875 236 "/><path d="M 411.3125 286 L 419.3125 286 C 420.3125 286 421.3125 285 421.3125 284 L 421.3125 48 C 421.3125 47 422.3125 46 423.3125 46 L 661.21875 46 C 662.21875 46 663.21875 47 663.21875 48 L 663.21875 234 C 663.21875 235 664.21875 236 665.21875 236 L 693.21875 236 " class="clickable"/></g><circle r="3" id="sprotty_ArchitectureBlockImpl$aes/InstantiationBlockImpl$u_aes_core/BPortImpl$alert_recov_o_to_ArchitectureBlockImpl$aes/GenerateStatementBlockImpl$gen_alert_tx/GPortImpl$alert/junction0" transform="translate(421.3125, 286)" class="sprotty-junction thick" style="fill:rgb(112, 112, 112);stroke:none;"/></g><g id="sprotty_ArchitectureBlockImpl$aes/InstantiationBlockImpl$u_aes_core/BPortImpl$alert_fatal_o_to_ArchitectureBlockImpl$aes/GenerateStatementBlockImpl$gen_alert_tx/GPortImpl$alert" class="sprotty-edge thick edge" style="fill:none;stroke:rgb(112, 112, 112);stroke-linejoin:round;stroke-width:3px;"><g><path d="M 411.3125 328 L 419.3125 328 C 420.3125 328 421.3125 327 421.3125 326 L 421.3125 48 C 421.3125 47 422.3125 46 423.3125 46 L 661.21875 46 C 662.21875 46 663.21875 47 663.21875 48 L 663.21875 234 C 663.21875 235 664.21875 236 665.21875 236 L 693.21875 236 "/><path d="M 411.3125 328 L 419.3125 328 C 420.3125 328 421.3125 327 421.3125 326 L 421.3125 48 C 421.3125 47 422.3125 46 423.3125 46 L 661.21875 46 C 662.21875 46 663.21875 47 663.21875 48 L 663.21875 234 C 663.21875 235 664.21875 236 665.21875 236 L 693.21875 236 " class="clickable"/></g></g><g id="sprotty_ArchitectureBlockImpl$aes/AssignmentBlockImpl$alert_test/GPortImpl$reg2hwOUT_to_ArchitectureBlockImpl$aes/GenerateStatementBlockImpl$gen_alert_tx/GPortImpl$alert_test" class="sprotty-edge thick edge" style="fill:none;stroke:rgb(112, 112, 112);stroke-linejoin:round;stroke-width:3px;"><g><path d="M 653.21875 208 L 693.21875 208 "/><path d="M 653.21875 208 L 693.21875 208 " class="clickable"/></g></g><g id="sprotty_ArchitectureBlockImpl$aes/GenerateStatementBlockImpl$gen_alert_tx" transform="translate(693.21875, 79)" class="generate"><g class="sprotty-block sprotty-block-generate" style="fill:rgb(255, 255, 255);stroke:rgb(48, 48, 48);stroke-dasharray:0px;"><rect x="0" y="0" rx="1" ry="1" width="364.265625" height="218" style="stroke-dasharray:3px, 1px;"/><text x="182.1328125" y="12" class="sprotty-block-name" style="cursor:pointer;font-weight:700;perspective-origin:182.125px 0px;fill:rgb(48, 48, 48);stroke:rgba(0, 0, 0, 0);dominant-baseline:middle;text-anchor:middle;">gen_alert_tx</text><line x1="0" y1="20" x2="364.265625" y2="20" style="stroke-dasharray:3px, 1px;"/></g><g id="sprotty_ArchitectureBlockImpl$aes/GenerateStatementBlockImpl$gen_alert_tx/InstantiationBlockImpl$u_prim_alert_sender/BPortImpl$alert_tx_o_to_ArchitectureBlockImpl$aes/GenerateStatementBlockImpl$gen_alert_tx/GPortImpl$alert_tx_o" class="sprotty-edge thick edge" style="fill:none;stroke:rgb(112, 112, 112);stroke-linejoin:round;stroke-width:3px;"><g><path d="M 349.265625 185 L 364.265625 185 "/><path d="M 349.265625 185 L 364.265625 185 " class="clickable"/></g></g><g id="sprotty_ArchitectureBlockImpl$aes/GenerateStatementBlockImpl$gen_alert_tx/GPortImpl$clk_i_to_ArchitectureBlockImpl$aes/GenerateStatementBlockImpl$gen_alert_tx/InstantiationBlockImpl$u_prim_alert_sender/BPortImpl$clk_i" class="sprotty-edge edge" style="fill:none;stroke:rgb(112, 112, 112);stroke-linejoin:round;"><g><path d="M 0 73 L 15 73 "/><path d="M 0 73 L 15 73 " class="clickable"/></g></g><g id="sprotty_ArchitectureBlockImpl$aes/GenerateStatementBlockImpl$gen_alert_tx/GPortImpl$rst_ni_to_ArchitectureBlockImpl$aes/GenerateStatementBlockImpl$gen_alert_tx/InstantiationBlockImpl$u_prim_alert_sender/BPortImpl$rst_ni" class="sprotty-edge edge" style="fill:none;stroke:rgb(112, 112, 112);stroke-linejoin:round;"><g><path d="M 0 101 L 15 101 "/><path d="M 0 101 L 15 101 " class="clickable"/></g></g><g id="sprotty_ArchitectureBlockImpl$aes/GenerateStatementBlockImpl$gen_alert_tx/GPortImpl$alert_rx_i_to_ArchitectureBlockImpl$aes/GenerateStatementBlockImpl$gen_alert_tx/InstantiationBlockImpl$u_prim_alert_sender/BPortImpl$alert_rx_i" class="sprotty-edge thick edge" style="fill:none;stroke:rgb(112, 112, 112);stroke-linejoin:round;stroke-width:3px;"><g><path d="M 0 185 L 15 185 "/><path d="M 0 185 L 15 185 " class="clickable"/></g></g><g id="sprotty_ArchitectureBlockImpl$aes/GenerateStatementBlockImpl$gen_alert_tx/GPortImpl$alert_to_ArchitectureBlockImpl$aes/GenerateStatementBlockImpl$gen_alert_tx/InstantiationBlockImpl$u_prim_alert_sender/BPortImpl$alert_req_i" class="sprotty-edge thick edge" style="fill:none;stroke:rgb(112, 112, 112);stroke-linejoin:round;stroke-width:3px;"><g><path d="M 0 157 L 15 157 "/><path d="M 0 157 L 15 157 " class="clickable"/></g></g><g id="sprotty_ArchitectureBlockImpl$aes/GenerateStatementBlockImpl$gen_alert_tx/GPortImpl$alert_test_to_ArchitectureBlockImpl$aes/GenerateStatementBlockImpl$gen_alert_tx/InstantiationBlockImpl$u_prim_alert_sender/BPortImpl$alert_test_i" class="sprotty-edge thick edge" style="fill:none;stroke:rgb(112, 112, 112);stroke-linejoin:round;stroke-width:3px;"><g><path d="M 0 129 L 15 129 "/><path d="M 0 129 L 15 129 " class="clickable"/></g></g><g id="sprotty_ArchitectureBlockImpl$aes/GenerateStatementBlockImpl$gen_alert_tx/InstantiationBlockImpl$u_prim_alert_sender" transform="translate(15, 35)" class="instantiation"><g class="sprotty-block" style="fill:rgb(255, 255, 255);stroke:rgb(48, 48, 48);stroke-dasharray:0px;"><rect x="0" y="0" rx="1" ry="1" width="334.265625" height="168"/><text x="167.1328125" y="12" class="sprotty-block-name" style="cursor:pointer;font-weight:700;perspective-origin:167.141px 0px;fill:rgb(48, 48, 48);stroke:rgba(0, 0, 0, 0);dominant-baseline:middle;text-anchor:middle;">u_prim_alert_sender : prim_alert_sender</text><line x1="0" y1="20" x2="334.265625" y2="20"/></g><g id="sprotty_ArchitectureBlockImpl$aes/GenerateStatementBlockImpl$gen_alert_tx/InstantiationBlockImpl$u_prim_alert_sender/BPortImpl$alert_rx_i" transform="translate(0, 150)" class="triangle"><path d="M 0,0 L 5,2.5 L 0,5 Z" transform="translate(-1.67, -2.5)" class="sprotty-port" style="fill:rgb(48, 48, 48);stroke:rgb(48, 48, 48);"/><text class="clickable sprotty-label port" id="sprotty_ArchitectureBlockImpl$aes/GenerateStatementBlockImpl$gen_alert_tx/InstantiationBlockImpl$u_prim_alert_sender/BPortImpl$alert_rx_i/label" transform="translate(6, -9) translate(26.6875, 14)" style="cursor:default;font-size:12px;perspective-origin:0px 0px;fill:rgb(48, 48, 48);text-anchor:middle;">alert_rx_i</text></g><g id="sprotty_ArchitectureBlockImpl$aes/GenerateStatementBlockImpl$gen_alert_tx/InstantiationBlockImpl$u_prim_alert_sender/BPortImpl$alert_req_i" transform="translate(0, 122)" class="triangle"><path d="M 0,0 L 5,2.5 L 0,5 Z" transform="translate(-1.67, -2.5)" class="sprotty-port" style="fill:rgb(48, 48, 48);stroke:rgb(48, 48, 48);"/><text class="clickable sprotty-label port" id="sprotty_ArchitectureBlockImpl$aes/GenerateStatementBlockImpl$gen_alert_tx/InstantiationBlockImpl$u_prim_alert_sender/BPortImpl$alert_req_i/label" transform="translate(6, -9) translate(30.6875, 14)" style="cursor:default;font-size:12px;perspective-origin:0px 0px;fill:rgb(48, 48, 48);text-anchor:middle;">alert_req_i</text></g><g id="sprotty_ArchitectureBlockImpl$aes/GenerateStatementBlockImpl$gen_alert_tx/InstantiationBlockImpl$u_prim_alert_sender/BPortImpl$alert_test_i" transform="translate(0, 94)" class="triangle"><path d="M 0,0 L 5,2.5 L 0,5 Z" transform="translate(-1.67, -2.5)" class="sprotty-port" style="fill:rgb(48, 48, 48);stroke:rgb(48, 48, 48);"/><text class="clickable sprotty-label port" id="sprotty_ArchitectureBlockImpl$aes/GenerateStatementBlockImpl$gen_alert_tx/InstantiationBlockImpl$u_prim_alert_sender/BPortImpl$alert_test_i/label" transform="translate(6, -9) translate(31.8125, 14)" style="cursor:default;font-size:12px;perspective-origin:0px 0px;fill:rgb(48, 48, 48);text-anchor:middle;">alert_test_i</text></g><g id="sprotty_ArchitectureBlockImpl$aes/GenerateStatementBlockImpl$gen_alert_tx/InstantiationBlockImpl$u_prim_alert_sender/BPortImpl$rst_ni" transform="translate(0, 66)" class="triangle"><path d="M 0,0 L 5,2.5 L 0,5 Z" transform="translate(-1.67, -2.5)" class="sprotty-port" style="fill:rgb(48, 48, 48);stroke:rgb(48, 48, 48);"/><text class="clickable sprotty-label port" id="sprotty_ArchitectureBlockImpl$aes/GenerateStatementBlockImpl$gen_alert_tx/InstantiationBlockImpl$u_prim_alert_sender/BPortImpl$rst_ni/label" transform="translate(6, -9) translate(15.921875, 14)" style="cursor:default;font-size:12px;perspective-origin:0px 0px;fill:rgb(48, 48, 48);text-anchor:middle;">rst_ni</text></g><g id="sprotty_ArchitectureBlockImpl$aes/GenerateStatementBlockImpl$gen_alert_tx/InstantiationBlockImpl$u_prim_alert_sender/BPortImpl$clk_i" transform="translate(0, 38)" class="triangle"><path d="M 0,0 L 5,2.5 L 0,5 Z" transform="translate(-1.67, -2.5)" class="sprotty-port" style="fill:rgb(48, 48, 48);stroke:rgb(48, 48, 48);"/><text class="clickable sprotty-label port" id="sprotty_ArchitectureBlockImpl$aes/GenerateStatementBlockImpl$gen_alert_tx/InstantiationBlockImpl$u_prim_alert_sender/BPortImpl$clk_i/label" transform="translate(6, -9) translate(13.09375, 14)" style="cursor:default;font-size:12px;perspective-origin:0px 0px;fill:rgb(48, 48, 48);text-anchor:middle;">clk_i</text></g><g id="sprotty_ArchitectureBlockImpl$aes/GenerateStatementBlockImpl$gen_alert_tx/InstantiationBlockImpl$u_prim_alert_sender/BPortImpl$alert_ack_o" transform="translate(334.265625, 38)" class="triangle"><path d="M 0,0 L 5,2.5 L 0,5 Z" transform="translate(-1.67, -2.5)" class="sprotty-port" style="fill:rgb(48, 48, 48);stroke:rgb(48, 48, 48);"/><text class="clickable sprotty-label port" id="sprotty_ArchitectureBlockImpl$aes/GenerateStatementBlockImpl$gen_alert_tx/InstantiationBlockImpl$u_prim_alert_sender/BPortImpl$alert_ack_o/label" transform="translate(-72.21875, -9) translate(33.109375, 14)" style="cursor:default;font-size:12px;perspective-origin:0px 0px;fill:rgb(48, 48, 48);text-anchor:middle;">alert_ack_o</text></g><g id="sprotty_ArchitectureBlockImpl$aes/GenerateStatementBlockImpl$gen_alert_tx/InstantiationBlockImpl$u_prim_alert_sender/BPortImpl$alert_state_o" transform="translate(334.265625, 94)" class="triangle"><path d="M 0,0 L 5,2.5 L 0,5 Z" transform="translate(-1.67, -2.5)" class="sprotty-port" style="fill:rgb(48, 48, 48);stroke:rgb(48, 48, 48);"/><text class="clickable sprotty-label port" id="sprotty_ArchitectureBlockImpl$aes/GenerateStatementBlockImpl$gen_alert_tx/InstantiationBlockImpl$u_prim_alert_sender/BPortImpl$alert_state_o/label" transform="translate(-79.875, -9) translate(36.9375, 14)" style="cursor:default;font-size:12px;perspective-origin:0px 0px;fill:rgb(48, 48, 48);text-anchor:middle;">alert_state_o</text></g><g id="sprotty_ArchitectureBlockImpl$aes/GenerateStatementBlockImpl$gen_alert_tx/InstantiationBlockImpl$u_prim_alert_sender/BPortImpl$alert_tx_o" transform="translate(334.265625, 150)" class="triangle"><path d="M 0,0 L 5,2.5 L 0,5 Z" transform="translate(-1.67, -2.5)" class="sprotty-port" style="fill:rgb(48, 48, 48);stroke:rgb(48, 48, 48);"/><text class="clickable sprotty-label port" id="sprotty_ArchitectureBlockImpl$aes/GenerateStatementBlockImpl$gen_alert_tx/InstantiationBlockImpl$u_prim_alert_sender/BPortImpl$alert_tx_o/label" transform="translate(-63, -9) translate(28.5, 14)" style="cursor:default;font-size:12px;perspective-origin:0px 0px;fill:rgb(48, 48, 48);text-anchor:middle;">alert_tx_o</text></g></g><g id="sprotty_ArchitectureBlockImpl$aes/GenerateStatementBlockImpl$gen_alert_tx/GPortImpl$alert_test" transform="translate(0, 129)" class="triangle"><path d="M 0,0 L 5,2.5 L 0,5 Z" transform="translate(-1.67, -2.5)" class="sprotty-port" style="fill:rgb(48, 48, 48);stroke:rgb(48, 48, 48);"/></g><g id="sprotty_ArchitectureBlockImpl$aes/GenerateStatementBlockImpl$gen_alert_tx/GPortImpl$alert" transform="translate(0, 157)" class="triangle"><path d="M 0,0 L 5,2.5 L 0,5 Z" transform="translate(-1.67, -2.5)" class="sprotty-port" style="fill:rgb(48, 48, 48);stroke:rgb(48, 48, 48);"/></g><g id="sprotty_ArchitectureBlockImpl$aes/GenerateStatementBlockImpl$gen_alert_tx/GPortImpl$alert_rx_i" transform="translate(0, 185)" class="triangle"><path d="M 0,0 L 5,2.5 L 0,5 Z" transform="translate(-1.67, -2.5)" class="sprotty-port" style="fill:rgb(48, 48, 48);stroke:rgb(48, 48, 48);"/></g><g id="sprotty_ArchitectureBlockImpl$aes/GenerateStatementBlockImpl$gen_alert_tx/GPortImpl$rst_ni" transform="translate(0, 101)" class="triangle"><path d="M 0,0 L 5,2.5 L 0,5 Z" transform="translate(-1.67, -2.5)" class="sprotty-port" style="fill:rgb(48, 48, 48);stroke:rgb(48, 48, 48);"/></g><g id="sprotty_ArchitectureBlockImpl$aes/GenerateStatementBlockImpl$gen_alert_tx/GPortImpl$clk_i" transform="translate(0, 73)" class="triangle"><path d="M 0,0 L 5,2.5 L 0,5 Z" transform="translate(-1.67, -2.5)" class="sprotty-port" style="fill:rgb(48, 48, 48);stroke:rgb(48, 48, 48);"/></g><g id="sprotty_ArchitectureBlockImpl$aes/GenerateStatementBlockImpl$gen_alert_tx/GPortImpl$alert_tx_o" transform="translate(364.265625, 185)" class="triangle"><path d="M 0,0 L 5,2.5 L 0,5 Z" transform="translate(-1.67, -2.5)" class="sprotty-port" style="fill:rgb(48, 48, 48);stroke:rgb(48, 48, 48);"/></g></g><g id="sprotty_ArchitectureBlockImpl$aes/AssignmentBlockImpl$alert_test" transform="translate(633.5, 197)" class="statement"><rect x="0" y="0" rx="10" ry="5" width="19.71875" height="22" class="sprotty-node" style="fill:rgb(245, 245, 245);stroke:rgb(112, 112, 112);"/><text class="clickable sprotty-label statementtype" id="sprotty_ArchitectureBlockImpl$aes/AssignmentBlockImpl$alert_test/labeltype" transform="translate(5, 5) translate(4.71875, 9)" style="cursor:default;font-size:8px;font-weight:700;perspective-origin:0.140625px 0px;fill:rgb(112, 112, 112);text-anchor:middle;">&lt;=</text><g id="sprotty_ArchitectureBlockImpl$aes/AssignmentBlockImpl$alert_test/GPortImpl$reg2hwIN" transform="translate(0, 11)" class="sprotty-hidden hidden" style="display:block;height:0px;width:0px;"/><g id="sprotty_ArchitectureBlockImpl$aes/AssignmentBlockImpl$alert_test/GPortImpl$reg2hwOUT" transform="translate(19.71875, 11)" class="sprotty-hidden hidden" style="display:block;height:0px;width:0px;"/></g><g id="sprotty_ArchitectureBlockImpl$aes/AssignmentBlockImpl$idle_o" transform="translate(522.546875, 359)" class="statement"><rect x="0" y="0" rx="10" ry="5" width="19.71875" height="22" class="sprotty-node" style="fill:rgb(245, 245, 245);stroke:rgb(112, 112, 112);"/><text class="clickable sprotty-label statementtype" id="sprotty_ArchitectureBlockImpl$aes/AssignmentBlockImpl$idle_o/labeltype" transform="translate(5, 5) translate(4.71875, 9)" style="cursor:default;font-size:8px;font-weight:700;perspective-origin:0.140625px 0px;fill:rgb(112, 112, 112);text-anchor:middle;">&lt;=</text><g id="sprotty_ArchitectureBlockImpl$aes/AssignmentBlockImpl$idle_o/GPortImpl$hw2regIN" transform="translate(0, 11)" class="sprotty-hidden hidden" style="display:block;height:0px;width:0px;"/><g id="sprotty_ArchitectureBlockImpl$aes/AssignmentBlockImpl$idle_o/GPortImpl$idle_oOUT" transform="translate(19.71875, 11)" class="sprotty-hidden hidden" style="display:block;height:0px;width:0px;"/></g><g id="sprotty_ArchitectureBlockImpl$aes/InstantiationBlockImpl$u_aes_core" transform="translate(124.375, 164)" class="instantiation"><g class="sprotty-block" style="fill:rgb(255, 255, 255);stroke:rgb(48, 48, 48);stroke-dasharray:0px;"><rect x="0" y="0" rx="1" ry="1" width="286.9375" height="224"/><text x="143.46875" y="12" class="sprotty-block-name" style="cursor:pointer;font-weight:700;perspective-origin:143.469px 0px;fill:rgb(48, 48, 48);stroke:rgba(0, 0, 0, 0);dominant-baseline:middle;text-anchor:middle;">u_aes_core : aes_core</text><line x1="0" y1="20" x2="286.9375" y2="20"/></g><g id="sprotty_ArchitectureBlockImpl$aes/InstantiationBlockImpl$u_aes_core/BPortImpl$reg2hw" transform="translate(0, 206)" class="triangle"><path d="M 0,0 L 5,2.5 L 0,5 Z" transform="translate(-1.67, -2.5)" class="sprotty-port" style="fill:rgb(48, 48, 48);stroke:rgb(48, 48, 48);"/><text class="clickable sprotty-label port" id="sprotty_ArchitectureBlockImpl$aes/InstantiationBlockImpl$u_aes_core/BPortImpl$reg2hw/label" transform="translate(6, -9) translate(20.6875, 14)" style="cursor:default;font-size:12px;perspective-origin:0.1875px 0px;fill:rgb(48, 48, 48);text-anchor:middle;">reg2hw</text></g><g id="sprotty_ArchitectureBlockImpl$aes/InstantiationBlockImpl$u_aes_core/BPortImpl$entropy_masking_i" transform="translate(0, 178)" class="triangle"><path d="M 0,0 L 5,2.5 L 0,5 Z" transform="translate(-1.67, -2.5)" class="sprotty-port" style="fill:rgb(48, 48, 48);stroke:rgb(48, 48, 48);"/><text class="clickable sprotty-label port" id="sprotty_ArchitectureBlockImpl$aes/InstantiationBlockImpl$u_aes_core/BPortImpl$entropy_masking_i/label" transform="translate(6, -9) translate(54.09375, 14)" style="cursor:default;font-size:12px;perspective-origin:0px 0px;fill:rgb(48, 48, 48);text-anchor:middle;">entropy_masking_i</text></g><g id="sprotty_ArchitectureBlockImpl$aes/InstantiationBlockImpl$u_aes_core/BPortImpl$entropy_masking_ack_i" transform="translate(0, 150)" class="triangle"><path d="M 0,0 L 5,2.5 L 0,5 Z" transform="translate(-1.67, -2.5)" class="sprotty-port" style="fill:rgb(48, 48, 48);stroke:rgb(48, 48, 48);"/><text class="clickable sprotty-label port" id="sprotty_ArchitectureBlockImpl$aes/InstantiationBlockImpl$u_aes_core/BPortImpl$entropy_masking_ack_i/label" transform="translate(6, -9) translate(67.203125, 14)" style="cursor:default;font-size:12px;perspective-origin:0px 0px;fill:rgb(48, 48, 48);text-anchor:middle;">entropy_masking_ack_i</text></g><g id="sprotty_ArchitectureBlockImpl$aes/InstantiationBlockImpl$u_aes_core/BPortImpl$entropy_clearing_i" transform="translate(0, 122)" class="triangle"><path d="M 0,0 L 5,2.5 L 0,5 Z" transform="translate(-1.67, -2.5)" class="sprotty-port" style="fill:rgb(48, 48, 48);stroke:rgb(48, 48, 48);"/><text class="clickable sprotty-label port" id="sprotty_ArchitectureBlockImpl$aes/InstantiationBlockImpl$u_aes_core/BPortImpl$entropy_clearing_i/label" transform="translate(6, -9) translate(52.734375, 14)" style="cursor:default;font-size:12px;perspective-origin:0px 0px;fill:rgb(48, 48, 48);text-anchor:middle;">entropy_clearing_i</text></g><g id="sprotty_ArchitectureBlockImpl$aes/InstantiationBlockImpl$u_aes_core/BPortImpl$entropy_clearing_ack_i" transform="translate(0, 94)" class="triangle"><path d="M 0,0 L 5,2.5 L 0,5 Z" transform="translate(-1.67, -2.5)" class="sprotty-port" style="fill:rgb(48, 48, 48);stroke:rgb(48, 48, 48);"/><text class="clickable sprotty-label port" id="sprotty_ArchitectureBlockImpl$aes/InstantiationBlockImpl$u_aes_core/BPortImpl$entropy_clearing_ack_i/label" transform="translate(6, -9) translate(65.84375, 14)" style="cursor:default;font-size:12px;perspective-origin:0px 0px;fill:rgb(48, 48, 48);text-anchor:middle;">entropy_clearing_ack_i</text></g><g id="sprotty_ArchitectureBlockImpl$aes/InstantiationBlockImpl$u_aes_core/BPortImpl$rst_ni" transform="translate(0, 66)" class="triangle"><path d="M 0,0 L 5,2.5 L 0,5 Z" transform="translate(-1.67, -2.5)" class="sprotty-port" style="fill:rgb(48, 48, 48);stroke:rgb(48, 48, 48);"/><text class="clickable sprotty-label port" id="sprotty_ArchitectureBlockImpl$aes/InstantiationBlockImpl$u_aes_core/BPortImpl$rst_ni/label" transform="translate(6, -9) translate(15.921875, 14)" style="cursor:default;font-size:12px;perspective-origin:0px 0px;fill:rgb(48, 48, 48);text-anchor:middle;">rst_ni</text></g><g id="sprotty_ArchitectureBlockImpl$aes/InstantiationBlockImpl$u_aes_core/BPortImpl$clk_i" transform="translate(0, 38)" class="triangle"><path d="M 0,0 L 5,2.5 L 0,5 Z" transform="translate(-1.67, -2.5)" class="sprotty-port" style="fill:rgb(48, 48, 48);stroke:rgb(48, 48, 48);"/><text class="clickable sprotty-label port" id="sprotty_ArchitectureBlockImpl$aes/InstantiationBlockImpl$u_aes_core/BPortImpl$clk_i/label" transform="translate(6, -9) translate(13.09375, 14)" style="cursor:default;font-size:12px;perspective-origin:0px 0px;fill:rgb(48, 48, 48);text-anchor:middle;">clk_i</text></g><g id="sprotty_ArchitectureBlockImpl$aes/InstantiationBlockImpl$u_aes_core/BPortImpl$entropy_clearing_req_o" transform="translate(286.9375, 38)" class="triangle"><path d="M 0,0 L 5,2.5 L 0,5 Z" transform="translate(-1.67, -2.5)" class="sprotty-port" style="fill:rgb(48, 48, 48);stroke:rgb(48, 48, 48);"/><text class="clickable sprotty-label port" id="sprotty_ArchitectureBlockImpl$aes/InstantiationBlockImpl$u_aes_core/BPortImpl$entropy_clearing_req_o/label" transform="translate(-140.75, -9) translate(67.375, 14)" style="cursor:default;font-size:12px;perspective-origin:0px 0px;fill:rgb(48, 48, 48);text-anchor:middle;">entropy_clearing_req_o</text></g><g id="sprotty_ArchitectureBlockImpl$aes/InstantiationBlockImpl$u_aes_core/BPortImpl$entropy_masking_req_o" transform="translate(286.9375, 80)" class="triangle"><path d="M 0,0 L 5,2.5 L 0,5 Z" transform="translate(-1.67, -2.5)" class="sprotty-port" style="fill:rgb(48, 48, 48);stroke:rgb(48, 48, 48);"/><text class="clickable sprotty-label port" id="sprotty_ArchitectureBlockImpl$aes/InstantiationBlockImpl$u_aes_core/BPortImpl$entropy_masking_req_o/label" transform="translate(-143.46875, -9) translate(68.734375, 14)" style="cursor:default;font-size:12px;perspective-origin:0px 0px;fill:rgb(48, 48, 48);text-anchor:middle;">entropy_masking_req_o</text></g><g id="sprotty_ArchitectureBlockImpl$aes/InstantiationBlockImpl$u_aes_core/BPortImpl$alert_recov_o" transform="translate(286.9375, 122)" class="triangle"><path d="M 0,0 L 5,2.5 L 0,5 Z" transform="translate(-1.67, -2.5)" class="sprotty-port" style="fill:rgb(48, 48, 48);stroke:rgb(48, 48, 48);"/><text class="clickable sprotty-label port" id="sprotty_ArchitectureBlockImpl$aes/InstantiationBlockImpl$u_aes_core/BPortImpl$alert_recov_o/label" transform="translate(-83.1875, -9) translate(38.59375, 14)" style="cursor:default;font-size:12px;perspective-origin:0px 0px;fill:rgb(48, 48, 48);text-anchor:middle;">alert_recov_o</text></g><g id="sprotty_ArchitectureBlockImpl$aes/InstantiationBlockImpl$u_aes_core/BPortImpl$alert_fatal_o" transform="translate(286.9375, 164)" class="triangle"><path d="M 0,0 L 5,2.5 L 0,5 Z" transform="translate(-1.67, -2.5)" class="sprotty-port" style="fill:rgb(48, 48, 48);stroke:rgb(48, 48, 48);"/><text class="clickable sprotty-label port" id="sprotty_ArchitectureBlockImpl$aes/InstantiationBlockImpl$u_aes_core/BPortImpl$alert_fatal_o/label" transform="translate(-77.375, -9) translate(35.6875, 14)" style="cursor:default;font-size:12px;perspective-origin:0px 0px;fill:rgb(48, 48, 48);text-anchor:middle;">alert_fatal_o</text></g><g id="sprotty_ArchitectureBlockImpl$aes/InstantiationBlockImpl$u_aes_core/BPortImpl$hw2reg" transform="translate(286.9375, 206)" class="triangle"><path d="M 0,0 L 5,2.5 L 0,5 Z" transform="translate(-1.67, -2.5)" class="sprotty-port" style="fill:rgb(48, 48, 48);stroke:rgb(48, 48, 48);"/><text class="clickable sprotty-label port" id="sprotty_ArchitectureBlockImpl$aes/InstantiationBlockImpl$u_aes_core/BPortImpl$hw2reg/label" transform="translate(-47.625, -9) translate(20.6875, 14)" style="cursor:default;font-size:12px;perspective-origin:0.125px 0px;fill:rgb(48, 48, 48);text-anchor:middle;">hw2reg</text></g></g><g id="sprotty_ArchitectureBlockImpl$aes/InstantiationBlockImpl$u_reg" transform="translate(451.3125, 58)" class="instantiation"><g class="sprotty-block" style="fill:rgb(255, 255, 255);stroke:rgb(48, 48, 48);stroke-dasharray:0px;"><rect x="0" y="0" rx="1" ry="1" width="162.1875" height="168"/><text x="81.09375" y="12" class="sprotty-block-name" style="cursor:pointer;font-weight:700;perspective-origin:81.0938px 0px;fill:rgb(48, 48, 48);stroke:rgba(0, 0, 0, 0);dominant-baseline:middle;text-anchor:middle;">u_reg : aes_reg_top</text><line x1="0" y1="20" x2="162.1875" y2="20"/></g><g id="sprotty_ArchitectureBlockImpl$aes/InstantiationBlockImpl$u_reg/BPortImpl$devmode_i" transform="translate(0, 150)" class="triangle"><path d="M 0,0 L 5,2.5 L 0,5 Z" transform="translate(-1.67, -2.5)" class="sprotty-port" style="fill:rgb(48, 48, 48);stroke:rgb(48, 48, 48);"/><text class="clickable sprotty-label port" id="sprotty_ArchitectureBlockImpl$aes/InstantiationBlockImpl$u_reg/BPortImpl$devmode_i/label" transform="translate(6, -9) translate(31.453125, 14)" style="cursor:default;font-size:12px;perspective-origin:0px 0px;fill:rgb(48, 48, 48);text-anchor:middle;">devmode_i</text></g><g id="sprotty_ArchitectureBlockImpl$aes/InstantiationBlockImpl$u_reg/BPortImpl$hw2reg" transform="translate(0, 122)" class="triangle"><path d="M 0,0 L 5,2.5 L 0,5 Z" transform="translate(-1.67, -2.5)" class="sprotty-port" style="fill:rgb(48, 48, 48);stroke:rgb(48, 48, 48);"/><text class="clickable sprotty-label port" id="sprotty_ArchitectureBlockImpl$aes/InstantiationBlockImpl$u_reg/BPortImpl$hw2reg/label" transform="translate(6, -9) translate(20.6875, 14)" style="cursor:default;font-size:12px;perspective-origin:0.125px 0px;fill:rgb(48, 48, 48);text-anchor:middle;">hw2reg</text></g><g id="sprotty_ArchitectureBlockImpl$aes/InstantiationBlockImpl$u_reg/BPortImpl$tl_i" transform="translate(0, 94)" class="triangle"><path d="M 0,0 L 5,2.5 L 0,5 Z" transform="translate(-1.67, -2.5)" class="sprotty-port" style="fill:rgb(48, 48, 48);stroke:rgb(48, 48, 48);"/><text class="clickable sprotty-label port" id="sprotty_ArchitectureBlockImpl$aes/InstantiationBlockImpl$u_reg/BPortImpl$tl_i/label" transform="translate(6, -9) translate(8.984375, 14)" style="cursor:default;font-size:12px;perspective-origin:0px 0px;fill:rgb(48, 48, 48);text-anchor:middle;">tl_i</text></g><g id="sprotty_ArchitectureBlockImpl$aes/InstantiationBlockImpl$u_reg/BPortImpl$rst_ni" transform="translate(0, 66)" class="triangle"><path d="M 0,0 L 5,2.5 L 0,5 Z" transform="translate(-1.67, -2.5)" class="sprotty-port" style="fill:rgb(48, 48, 48);stroke:rgb(48, 48, 48);"/><text class="clickable sprotty-label port" id="sprotty_ArchitectureBlockImpl$aes/InstantiationBlockImpl$u_reg/BPortImpl$rst_ni/label" transform="translate(6, -9) translate(15.921875, 14)" style="cursor:default;font-size:12px;perspective-origin:0px 0px;fill:rgb(48, 48, 48);text-anchor:middle;">rst_ni</text></g><g id="sprotty_ArchitectureBlockImpl$aes/InstantiationBlockImpl$u_reg/BPortImpl$clk_i" transform="translate(0, 38)" class="triangle"><path d="M 0,0 L 5,2.5 L 0,5 Z" transform="translate(-1.67, -2.5)" class="sprotty-port" style="fill:rgb(48, 48, 48);stroke:rgb(48, 48, 48);"/><text class="clickable sprotty-label port" id="sprotty_ArchitectureBlockImpl$aes/InstantiationBlockImpl$u_reg/BPortImpl$clk_i/label" transform="translate(6, -9) translate(13.09375, 14)" style="cursor:default;font-size:12px;perspective-origin:0px 0px;fill:rgb(48, 48, 48);text-anchor:middle;">clk_i</text></g><g id="sprotty_ArchitectureBlockImpl$aes/InstantiationBlockImpl$u_reg/BPortImpl$tl_o" transform="translate(162.1875, 38)" class="triangle"><path d="M 0,0 L 5,2.5 L 0,5 Z" transform="translate(-1.67, -2.5)" class="sprotty-port" style="fill:rgb(48, 48, 48);stroke:rgb(48, 48, 48);"/><text class="clickable sprotty-label port" id="sprotty_ArchitectureBlockImpl$aes/InstantiationBlockImpl$u_reg/BPortImpl$tl_o/label" transform="translate(-27.9375, -9) translate(10.96875, 14)" style="cursor:default;font-size:12px;perspective-origin:0px 0px;fill:rgb(48, 48, 48);text-anchor:middle;">tl_o</text></g><g id="sprotty_ArchitectureBlockImpl$aes/InstantiationBlockImpl$u_reg/BPortImpl$reg2hw" transform="translate(162.1875, 150)" class="triangle"><path d="M 0,0 L 5,2.5 L 0,5 Z" transform="translate(-1.67, -2.5)" class="sprotty-port" style="fill:rgb(48, 48, 48);stroke:rgb(48, 48, 48);"/><text class="clickable sprotty-label port" id="sprotty_ArchitectureBlockImpl$aes/InstantiationBlockImpl$u_reg/BPortImpl$reg2hw/label" transform="translate(-47.75, -9) translate(20.6875, 14)" style="cursor:default;font-size:12px;perspective-origin:0.1875px 0px;fill:rgb(48, 48, 48);text-anchor:middle;">reg2hw</text></g></g><g id="sprotty_ArchitectureBlockImpl$aes/BPortImpl$alert_rx_i" transform="translate(0, 440)" class="triangle"><path d="M 0,0 L 5,2.5 L 0,5 Z" transform="translate(-1.67, -2.5)" class="sprotty-port" style="fill:rgb(48, 48, 48);stroke:rgb(48, 48, 48);"/><text class="clickable sprotty-label port" id="sprotty_ArchitectureBlockImpl$aes/BPortImpl$alert_rx_i/label" transform="translate(6, 6) translate(26.6875, 14)" style="cursor:default;font-size:12px;perspective-origin:0px 0px;fill:rgb(48, 48, 48);text-anchor:middle;">alert_rx_i</text></g><g id="sprotty_ArchitectureBlockImpl$aes/BPortImpl$tl_i" transform="translate(0, 372)" class="triangle"><path d="M 0,0 L 5,2.5 L 0,5 Z" transform="translate(-1.67, -2.5)" class="sprotty-port" style="fill:rgb(48, 48, 48);stroke:rgb(48, 48, 48);"/><text class="clickable sprotty-label port" id="sprotty_ArchitectureBlockImpl$aes/BPortImpl$tl_i/label" transform="translate(6, 6) translate(8.984375, 14)" style="cursor:default;font-size:12px;perspective-origin:0px 0px;fill:rgb(48, 48, 48);text-anchor:middle;">tl_i</text></g><g id="sprotty_ArchitectureBlockImpl$aes/BPortImpl$rst_ni" transform="translate(0, 406)" class="triangle"><path d="M 0,0 L 5,2.5 L 0,5 Z" transform="translate(-1.67, -2.5)" class="sprotty-port" style="fill:rgb(48, 48, 48);stroke:rgb(48, 48, 48);"/><text class="clickable sprotty-label port" id="sprotty_ArchitectureBlockImpl$aes/BPortImpl$rst_ni/label" transform="translate(6, 6) translate(15.921875, 14)" style="cursor:default;font-size:12px;perspective-origin:0px 0px;fill:rgb(48, 48, 48);text-anchor:middle;">rst_ni</text></g><g id="sprotty_ArchitectureBlockImpl$aes/BPortImpl$clk_i" transform="translate(0, 202)" class="triangle"><path d="M 0,0 L 5,2.5 L 0,5 Z" transform="translate(-1.67, -2.5)" class="sprotty-port" style="fill:rgb(48, 48, 48);stroke:rgb(48, 48, 48);"/><text class="clickable sprotty-label port" id="sprotty_ArchitectureBlockImpl$aes/BPortImpl$clk_i/label" transform="translate(6, 6) translate(13.09375, 14)" style="cursor:default;font-size:12px;perspective-origin:0px 0px;fill:rgb(48, 48, 48);text-anchor:middle;">clk_i</text></g><g id="sprotty_ArchitectureBlockImpl$aes/BPortImpl$idle_o" transform="translate(1135.484375, 370)" class="triangle"><path d="M 0,0 L 5,2.5 L 0,5 Z" transform="translate(-1.67, -2.5)" class="sprotty-port" style="fill:rgb(48, 48, 48);stroke:rgb(48, 48, 48);"/><text class="clickable sprotty-label port" id="sprotty_ArchitectureBlockImpl$aes/BPortImpl$idle_o/label" transform="translate(-40.8125, 6) translate(17.40625, 14)" style="cursor:default;font-size:12px;perspective-origin:0px 0px;fill:rgb(48, 48, 48);text-anchor:middle;">idle_o</text></g><g id="sprotty_ArchitectureBlockImpl$aes/BPortImpl$tl_o" transform="translate(1135.484375, 67)" class="triangle"><path d="M 0,0 L 5,2.5 L 0,5 Z" transform="translate(-1.67, -2.5)" class="sprotty-port" style="fill:rgb(48, 48, 48);stroke:rgb(48, 48, 48);"/><text class="clickable sprotty-label port" id="sprotty_ArchitectureBlockImpl$aes/BPortImpl$tl_o/label" transform="translate(-27.9375, 6) translate(10.96875, 14)" style="cursor:default;font-size:12px;perspective-origin:0px 0px;fill:rgb(48, 48, 48);text-anchor:middle;">tl_o</text></g><g id="sprotty_ArchitectureBlockImpl$aes/BPortImpl$alert_tx_o" transform="translate(1135.484375, 264)" class="triangle"><path d="M 0,0 L 5,2.5 L 0,5 Z" transform="translate(-1.67, -2.5)" class="sprotty-port" style="fill:rgb(48, 48, 48);stroke:rgb(48, 48, 48);"/><text class="clickable sprotty-label port" id="sprotty_ArchitectureBlockImpl$aes/BPortImpl$alert_tx_o/label" transform="translate(-63, 6) translate(28.5, 14)" style="cursor:default;font-size:12px;perspective-origin:0px 0px;fill:rgb(48, 48, 48);text-anchor:middle;">alert_tx_o</text></g></g></g></svg>