<svg xmlns="http://www.w3.org/2000/svg" id="sprotty_work.prim_ram_2p" class="sprotty-graph sprotty-block-diagram blockdiagram" style="font-family:&quot;Noto Sans&quot;, Helvetica, Arial, sans-serif;perspective-origin:0px 0px;transform-origin:0px 0px;" version="1.1" viewBox="7 7 610.65625 467" width="610.65625" height="467"><g transform="scale(1) translate(0,0)"><g id="sprotty_ArchitectureBlockImpl$prim_ram_2p" transform="translate(12, 12)" class="architecture"><g class="sprotty-block" style="fill:rgb(255, 255, 255);stroke:rgb(48, 48, 48);stroke-dasharray:0px;"><rect x="0" y="0" rx="1" ry="1" width="600.65625" height="457"/><text x="300.328125" y="12" class="sprotty-block-name" style="cursor:pointer;font-weight:700;perspective-origin:300.328px 0px;fill:rgb(48, 48, 48);stroke:rgba(0, 0, 0, 0);dominant-baseline:middle;text-anchor:middle;">prim_ram_2p</text><line x1="0" y1="20" x2="600.65625" y2="20"/></g><g id="sprotty_ArchitectureBlockImpl$prim_ram_2p/GenerateStatementBlockImpl$null14/GPortImpl$a_rdata_o_to_ArchitectureBlockImpl$prim_ram_2p/BPortImpl$a_rdata_o" class="sprotty-edge thick edge" style="fill:none;stroke:rgb(112, 112, 112);stroke-linejoin:round;stroke-width:3px;"><g><path d="M 521.96875 101 L 600.65625 101 "/><path d="M 521.96875 101 L 600.65625 101 " class="clickable"/></g></g><g id="sprotty_ArchitectureBlockImpl$prim_ram_2p/GenerateStatementBlockImpl$null14/GPortImpl$b_rdata_o_to_ArchitectureBlockImpl$prim_ram_2p/BPortImpl$b_rdata_o" class="sprotty-edge thick edge" style="fill:none;stroke:rgb(112, 112, 112);stroke-linejoin:round;stroke-width:3px;"><g><path d="M 521.96875 409 L 600.65625 409 "/><path d="M 521.96875 409 L 600.65625 409 " class="clickable"/></g></g><g id="sprotty_ArchitectureBlockImpl$prim_ram_2p/BPortImpl$clk_a_i_to_ArchitectureBlockImpl$prim_ram_2p/GenerateStatementBlockImpl$null14/GPortImpl$clk_a_i" class="sprotty-edge edge" style="fill:none;stroke:rgb(112, 112, 112);stroke-linejoin:round;"><g><path d="M 0 35 L 162.90625 35 C 163.90625 35 164.90625 36 164.90625 37 L 164.90625 99 C 164.90625 100 165.90625 101 166.90625 101 L 174.90625 101 "/><path d="M 0 35 L 162.90625 35 C 163.90625 35 164.90625 36 164.90625 37 L 164.90625 99 C 164.90625 100 165.90625 101 166.90625 101 L 174.90625 101 " class="clickable"/></g></g><g id="sprotty_ArchitectureBlockImpl$prim_ram_2p/BPortImpl$clk_b_i_to_ArchitectureBlockImpl$prim_ram_2p/GenerateStatementBlockImpl$null14/GPortImpl$clk_b_i" class="sprotty-edge edge" style="fill:none;stroke:rgb(112, 112, 112);stroke-linejoin:round;"><g><path d="M 0 69 L 152.90625 69 C 153.90625 69 154.90625 70 154.90625 71 L 154.90625 127 C 154.90625 128 155.90625 129 156.90625 129 L 174.90625 129 "/><path d="M 0 69 L 152.90625 69 C 153.90625 69 154.90625 70 154.90625 71 L 154.90625 127 C 154.90625 128 155.90625 129 156.90625 129 L 174.90625 129 " class="clickable"/></g></g><g id="sprotty_ArchitectureBlockImpl$prim_ram_2p/BPortImpl$a_req_i_to_ArchitectureBlockImpl$prim_ram_2p/GenerateStatementBlockImpl$null14/GPortImpl$a_req_i" class="sprotty-edge edge" style="fill:none;stroke:rgb(112, 112, 112);stroke-linejoin:round;"><g><path d="M 0 103 L 142.90625 103 C 143.90625 103 144.90625 104 144.90625 105 L 144.90625 155 C 144.90625 156 145.90625 157 146.90625 157 L 174.90625 157 "/><path d="M 0 103 L 142.90625 103 C 143.90625 103 144.90625 104 144.90625 105 L 144.90625 155 C 144.90625 156 145.90625 157 146.90625 157 L 174.90625 157 " class="clickable"/></g></g><g id="sprotty_ArchitectureBlockImpl$prim_ram_2p/BPortImpl$a_write_i_to_ArchitectureBlockImpl$prim_ram_2p/GenerateStatementBlockImpl$null14/GPortImpl$a_write_i" class="sprotty-edge edge" style="fill:none;stroke:rgb(112, 112, 112);stroke-linejoin:round;"><g><path d="M 0 137 L 132.90625 137 C 133.90625 137 134.90625 138 134.90625 139 L 134.90625 183 C 134.90625 184 135.90625 185 136.90625 185 L 174.90625 185 "/><path d="M 0 137 L 132.90625 137 C 133.90625 137 134.90625 138 134.90625 139 L 134.90625 183 C 134.90625 184 135.90625 185 136.90625 185 L 174.90625 185 " class="clickable"/></g></g><g id="sprotty_ArchitectureBlockImpl$prim_ram_2p/BPortImpl$a_addr_i_to_ArchitectureBlockImpl$prim_ram_2p/GenerateStatementBlockImpl$null14/GPortImpl$a_addr_i" class="sprotty-edge thick edge" style="fill:none;stroke:rgb(112, 112, 112);stroke-linejoin:round;stroke-width:3px;"><g><path d="M 0 171 L 122.90625 171 C 123.90625 171 124.90625 172 124.90625 173 L 124.90625 211 C 124.90625 212 125.90625 213 126.90625 213 L 174.90625 213 "/><path d="M 0 171 L 122.90625 171 C 123.90625 171 124.90625 172 124.90625 173 L 124.90625 211 C 124.90625 212 125.90625 213 126.90625 213 L 174.90625 213 " class="clickable"/></g></g><g id="sprotty_ArchitectureBlockImpl$prim_ram_2p/BPortImpl$a_wdata_i_to_ArchitectureBlockImpl$prim_ram_2p/GenerateStatementBlockImpl$null14/GPortImpl$a_wdata_i" class="sprotty-edge thick edge" style="fill:none;stroke:rgb(112, 112, 112);stroke-linejoin:round;stroke-width:3px;"><g><path d="M 0 205 L 112.90625 205 C 113.90625 205 114.90625 206 114.90625 207 L 114.90625 239 C 114.90625 240 115.90625 241 116.90625 241 L 174.90625 241 "/><path d="M 0 205 L 112.90625 205 C 113.90625 205 114.90625 206 114.90625 207 L 114.90625 239 C 114.90625 240 115.90625 241 116.90625 241 L 174.90625 241 " class="clickable"/></g></g><g id="sprotty_ArchitectureBlockImpl$prim_ram_2p/BPortImpl$a_wmask_i_to_ArchitectureBlockImpl$prim_ram_2p/GenerateStatementBlockImpl$null14/GPortImpl$a_wmask_i" class="sprotty-edge thick edge" style="fill:none;stroke:rgb(112, 112, 112);stroke-linejoin:round;stroke-width:3px;"><g><path d="M 0 239 L 102.90625 239 C 103.90625 239 104.90625 240 104.90625 241 L 104.90625 267 C 104.90625 268 105.90625 269 106.90625 269 L 174.90625 269 "/><path d="M 0 239 L 102.90625 239 C 103.90625 239 104.90625 240 104.90625 241 L 104.90625 267 C 104.90625 268 105.90625 269 106.90625 269 L 174.90625 269 " class="clickable"/></g></g><g id="sprotty_ArchitectureBlockImpl$prim_ram_2p/BPortImpl$b_req_i_to_ArchitectureBlockImpl$prim_ram_2p/GenerateStatementBlockImpl$null14/GPortImpl$b_req_i" class="sprotty-edge edge" style="fill:none;stroke:rgb(112, 112, 112);stroke-linejoin:round;"><g><path d="M 0 273 L 92.90625 273 C 93.90625 273 94.90625 274 94.90625 275 L 94.90625 295 C 94.90625 296 95.90625 297 96.90625 297 L 174.90625 297 "/><path d="M 0 273 L 92.90625 273 C 93.90625 273 94.90625 274 94.90625 275 L 94.90625 295 C 94.90625 296 95.90625 297 96.90625 297 L 174.90625 297 " class="clickable"/></g></g><g id="sprotty_ArchitectureBlockImpl$prim_ram_2p/BPortImpl$b_write_i_to_ArchitectureBlockImpl$prim_ram_2p/GenerateStatementBlockImpl$null14/GPortImpl$b_write_i" class="sprotty-edge edge" style="fill:none;stroke:rgb(112, 112, 112);stroke-linejoin:round;"><g><path d="M 0 307 L 92.90625 307 C 93.90625 307 94.90625 308 94.90625 309 L 94.90625 323 C 94.90625 324 95.90625 325 96.90625 325 L 174.90625 325 "/><path d="M 0 307 L 92.90625 307 C 93.90625 307 94.90625 308 94.90625 309 L 94.90625 323 C 94.90625 324 95.90625 325 96.90625 325 L 174.90625 325 " class="clickable"/></g></g><g id="sprotty_ArchitectureBlockImpl$prim_ram_2p/BPortImpl$b_addr_i_to_ArchitectureBlockImpl$prim_ram_2p/GenerateStatementBlockImpl$null14/GPortImpl$b_addr_i" class="sprotty-edge thick edge" style="fill:none;stroke:rgb(112, 112, 112);stroke-linejoin:round;stroke-width:3px;"><g><path d="M 0 341 L 92.90625 341 C 93.90625 341 94.90625 342 94.90625 343 L 94.90625 351 C 94.90625 352 95.90625 353 96.90625 353 L 174.90625 353 "/><path d="M 0 341 L 92.90625 341 C 93.90625 341 94.90625 342 94.90625 343 L 94.90625 351 C 94.90625 352 95.90625 353 96.90625 353 L 174.90625 353 " class="clickable"/></g></g><g id="sprotty_ArchitectureBlockImpl$prim_ram_2p/BPortImpl$b_wdata_i_to_ArchitectureBlockImpl$prim_ram_2p/GenerateStatementBlockImpl$null14/GPortImpl$b_wdata_i" class="sprotty-edge thick edge" style="fill:none;stroke:rgb(112, 112, 112);stroke-linejoin:round;stroke-width:3px;"><g><path d="M 0 375 L 92.90625 375 C 93.90625 375 94.90625 376 94.90625 377 L 94.90625 379 C 94.90625 380 95.90625 381 96.90625 381 L 174.90625 381 "/><path d="M 0 375 L 92.90625 375 C 93.90625 375 94.90625 376 94.90625 377 L 94.90625 379 C 94.90625 380 95.90625 381 96.90625 381 L 174.90625 381 " class="clickable"/></g></g><g id="sprotty_ArchitectureBlockImpl$prim_ram_2p/BPortImpl$b_wmask_i_to_ArchitectureBlockImpl$prim_ram_2p/GenerateStatementBlockImpl$null14/GPortImpl$b_wmask_i" class="sprotty-edge thick edge" style="fill:none;stroke:rgb(112, 112, 112);stroke-linejoin:round;stroke-width:3px;"><g><path d="M 0 409 L 174.90625 409 "/><path d="M 0 409 L 174.90625 409 " class="clickable"/></g></g><g id="sprotty_ArchitectureBlockImpl$prim_ram_2p/GenerateStatementBlockImpl$null14" transform="translate(174.90625, 48)" class="generate"><g class="sprotty-block sprotty-block-generate" style="fill:rgb(255, 255, 255);stroke:rgb(48, 48, 48);stroke-dasharray:0px;"><rect x="0" y="0" rx="1" ry="1" width="347.0625" height="394" style="stroke-dasharray:3px, 1px;"/><text x="173.53125" y="12" class="sprotty-block-name" style="cursor:pointer;font-weight:700;fill:rgb(48, 48, 48);stroke:rgba(0, 0, 0, 0);dominant-baseline:middle;text-anchor:middle;"/>undefined</g><g id="sprotty_ArchitectureBlockImpl$prim_ram_2p/GenerateStatementBlockImpl$null14/InstantiationBlockImpl$u_impl_generic/BPortImpl$a_rdata_o_to_ArchitectureBlockImpl$prim_ram_2p/GenerateStatementBlockImpl$null14/GPortImpl$a_rdata_o" class="sprotty-edge thick edge" style="fill:none;stroke:rgb(112, 112, 112);stroke-linejoin:round;stroke-width:3px;"><g><path d="M 332.0625 53 L 347.0625 53 "/><path d="M 332.0625 53 L 347.0625 53 " class="clickable"/></g></g><g id="sprotty_ArchitectureBlockImpl$prim_ram_2p/GenerateStatementBlockImpl$null14/InstantiationBlockImpl$u_impl_generic/BPortImpl$b_rdata_o_to_ArchitectureBlockImpl$prim_ram_2p/GenerateStatementBlockImpl$null14/GPortImpl$b_rdata_o" class="sprotty-edge thick edge" style="fill:none;stroke:rgb(112, 112, 112);stroke-linejoin:round;stroke-width:3px;"><g><path d="M 332.0625 361 L 347.0625 361 "/><path d="M 332.0625 361 L 347.0625 361 " class="clickable"/></g></g><g id="sprotty_ArchitectureBlockImpl$prim_ram_2p/GenerateStatementBlockImpl$null14/GPortImpl$clk_a_i_to_ArchitectureBlockImpl$prim_ram_2p/GenerateStatementBlockImpl$null14/InstantiationBlockImpl$u_impl_generic/BPortImpl$clk_a_i" class="sprotty-edge edge" style="fill:none;stroke:rgb(112, 112, 112);stroke-linejoin:round;"><g><path d="M 0 53 L 15 53 "/><path d="M 0 53 L 15 53 " class="clickable"/></g></g><g id="sprotty_ArchitectureBlockImpl$prim_ram_2p/GenerateStatementBlockImpl$null14/GPortImpl$clk_b_i_to_ArchitectureBlockImpl$prim_ram_2p/GenerateStatementBlockImpl$null14/InstantiationBlockImpl$u_impl_generic/BPortImpl$clk_b_i" class="sprotty-edge edge" style="fill:none;stroke:rgb(112, 112, 112);stroke-linejoin:round;"><g><path d="M 0 81 L 15 81 "/><path d="M 0 81 L 15 81 " class="clickable"/></g></g><g id="sprotty_ArchitectureBlockImpl$prim_ram_2p/GenerateStatementBlockImpl$null14/GPortImpl$a_req_i_to_ArchitectureBlockImpl$prim_ram_2p/GenerateStatementBlockImpl$null14/InstantiationBlockImpl$u_impl_generic/BPortImpl$a_req_i" class="sprotty-edge edge" style="fill:none;stroke:rgb(112, 112, 112);stroke-linejoin:round;"><g><path d="M 0 109 L 15 109 "/><path d="M 0 109 L 15 109 " class="clickable"/></g></g><g id="sprotty_ArchitectureBlockImpl$prim_ram_2p/GenerateStatementBlockImpl$null14/GPortImpl$a_write_i_to_ArchitectureBlockImpl$prim_ram_2p/GenerateStatementBlockImpl$null14/InstantiationBlockImpl$u_impl_generic/BPortImpl$a_write_i" class="sprotty-edge edge" style="fill:none;stroke:rgb(112, 112, 112);stroke-linejoin:round;"><g><path d="M 0 137 L 15 137 "/><path d="M 0 137 L 15 137 " class="clickable"/></g></g><g id="sprotty_ArchitectureBlockImpl$prim_ram_2p/GenerateStatementBlockImpl$null14/GPortImpl$a_addr_i_to_ArchitectureBlockImpl$prim_ram_2p/GenerateStatementBlockImpl$null14/InstantiationBlockImpl$u_impl_generic/BPortImpl$a_addr_i" class="sprotty-edge thick edge" style="fill:none;stroke:rgb(112, 112, 112);stroke-linejoin:round;stroke-width:3px;"><g><path d="M 0 165 L 15 165 "/><path d="M 0 165 L 15 165 " class="clickable"/></g></g><g id="sprotty_ArchitectureBlockImpl$prim_ram_2p/GenerateStatementBlockImpl$null14/GPortImpl$a_wdata_i_to_ArchitectureBlockImpl$prim_ram_2p/GenerateStatementBlockImpl$null14/InstantiationBlockImpl$u_impl_generic/BPortImpl$a_wdata_i" class="sprotty-edge thick edge" style="fill:none;stroke:rgb(112, 112, 112);stroke-linejoin:round;stroke-width:3px;"><g><path d="M 0 193 L 15 193 "/><path d="M 0 193 L 15 193 " class="clickable"/></g></g><g id="sprotty_ArchitectureBlockImpl$prim_ram_2p/GenerateStatementBlockImpl$null14/GPortImpl$a_wmask_i_to_ArchitectureBlockImpl$prim_ram_2p/GenerateStatementBlockImpl$null14/InstantiationBlockImpl$u_impl_generic/BPortImpl$a_wmask_i" class="sprotty-edge thick edge" style="fill:none;stroke:rgb(112, 112, 112);stroke-linejoin:round;stroke-width:3px;"><g><path d="M 0 221 L 15 221 "/><path d="M 0 221 L 15 221 " class="clickable"/></g></g><g id="sprotty_ArchitectureBlockImpl$prim_ram_2p/GenerateStatementBlockImpl$null14/GPortImpl$b_req_i_to_ArchitectureBlockImpl$prim_ram_2p/GenerateStatementBlockImpl$null14/InstantiationBlockImpl$u_impl_generic/BPortImpl$b_req_i" class="sprotty-edge edge" style="fill:none;stroke:rgb(112, 112, 112);stroke-linejoin:round;"><g><path d="M 0 249 L 15 249 "/><path d="M 0 249 L 15 249 " class="clickable"/></g></g><g id="sprotty_ArchitectureBlockImpl$prim_ram_2p/GenerateStatementBlockImpl$null14/GPortImpl$b_write_i_to_ArchitectureBlockImpl$prim_ram_2p/GenerateStatementBlockImpl$null14/InstantiationBlockImpl$u_impl_generic/BPortImpl$b_write_i" class="sprotty-edge edge" style="fill:none;stroke:rgb(112, 112, 112);stroke-linejoin:round;"><g><path d="M 0 277 L 15 277 "/><path d="M 0 277 L 15 277 " class="clickable"/></g></g><g id="sprotty_ArchitectureBlockImpl$prim_ram_2p/GenerateStatementBlockImpl$null14/GPortImpl$b_addr_i_to_ArchitectureBlockImpl$prim_ram_2p/GenerateStatementBlockImpl$null14/InstantiationBlockImpl$u_impl_generic/BPortImpl$b_addr_i" class="sprotty-edge thick edge" style="fill:none;stroke:rgb(112, 112, 112);stroke-linejoin:round;stroke-width:3px;"><g><path d="M 0 305 L 15 305 "/><path d="M 0 305 L 15 305 " class="clickable"/></g></g><g id="sprotty_ArchitectureBlockImpl$prim_ram_2p/GenerateStatementBlockImpl$null14/GPortImpl$b_wdata_i_to_ArchitectureBlockImpl$prim_ram_2p/GenerateStatementBlockImpl$null14/InstantiationBlockImpl$u_impl_generic/BPortImpl$b_wdata_i" class="sprotty-edge thick edge" style="fill:none;stroke:rgb(112, 112, 112);stroke-linejoin:round;stroke-width:3px;"><g><path d="M 0 333 L 15 333 "/><path d="M 0 333 L 15 333 " class="clickable"/></g></g><g id="sprotty_ArchitectureBlockImpl$prim_ram_2p/GenerateStatementBlockImpl$null14/GPortImpl$b_wmask_i_to_ArchitectureBlockImpl$prim_ram_2p/GenerateStatementBlockImpl$null14/InstantiationBlockImpl$u_impl_generic/BPortImpl$b_wmask_i" class="sprotty-edge thick edge" style="fill:none;stroke:rgb(112, 112, 112);stroke-linejoin:round;stroke-width:3px;"><g><path d="M 0 361 L 15 361 "/><path d="M 0 361 L 15 361 " class="clickable"/></g></g><g id="sprotty_ArchitectureBlockImpl$prim_ram_2p/GenerateStatementBlockImpl$null14/InstantiationBlockImpl$u_impl_generic" transform="translate(15, 15)" class="instantiation"><g class="sprotty-block" style="fill:rgb(255, 255, 255);stroke:rgb(48, 48, 48);stroke-dasharray:0px;"><rect x="0" y="0" rx="1" ry="1" width="317.0625" height="364"/><text x="158.53125" y="12" class="sprotty-block-name" style="cursor:pointer;font-weight:700;perspective-origin:158.531px 0px;fill:rgb(48, 48, 48);stroke:rgba(0, 0, 0, 0);dominant-baseline:middle;text-anchor:middle;">u_impl_generic : prim_generic_ram_2p</text><line x1="0" y1="20" x2="317.0625" y2="20"/></g><g id="sprotty_ArchitectureBlockImpl$prim_ram_2p/GenerateStatementBlockImpl$null14/InstantiationBlockImpl$u_impl_generic/BPortImpl$b_wmask_i" transform="translate(0, 346)" class="triangle"><path d="M 0,0 L 5,2.5 L 0,5 Z" transform="translate(-1.67, -2.5)" class="sprotty-port" style="fill:rgb(48, 48, 48);stroke:rgb(48, 48, 48);"/><text class="clickable sprotty-label port" id="sprotty_ArchitectureBlockImpl$prim_ram_2p/GenerateStatementBlockImpl$null14/InstantiationBlockImpl$u_impl_generic/BPortImpl$b_wmask_i/label" transform="translate(6, -9) translate(31.953125, 14)" style="cursor:default;font-size:12px;perspective-origin:0px 0px;fill:rgb(48, 48, 48);text-anchor:middle;">b_wmask_i</text></g><g id="sprotty_ArchitectureBlockImpl$prim_ram_2p/GenerateStatementBlockImpl$null14/InstantiationBlockImpl$u_impl_generic/BPortImpl$b_wdata_i" transform="translate(0, 318)" class="triangle"><path d="M 0,0 L 5,2.5 L 0,5 Z" transform="translate(-1.67, -2.5)" class="sprotty-port" style="fill:rgb(48, 48, 48);stroke:rgb(48, 48, 48);"/><text class="clickable sprotty-label port" id="sprotty_ArchitectureBlockImpl$prim_ram_2p/GenerateStatementBlockImpl$null14/InstantiationBlockImpl$u_impl_generic/BPortImpl$b_wdata_i/label" transform="translate(6, -9) translate(29.375, 14)" style="cursor:default;font-size:12px;perspective-origin:0px 0px;fill:rgb(48, 48, 48);text-anchor:middle;">b_wdata_i</text></g><g id="sprotty_ArchitectureBlockImpl$prim_ram_2p/GenerateStatementBlockImpl$null14/InstantiationBlockImpl$u_impl_generic/BPortImpl$b_addr_i" transform="translate(0, 290)" class="triangle"><path d="M 0,0 L 5,2.5 L 0,5 Z" transform="translate(-1.67, -2.5)" class="sprotty-port" style="fill:rgb(48, 48, 48);stroke:rgb(48, 48, 48);"/><text class="clickable sprotty-label port" id="sprotty_ArchitectureBlockImpl$prim_ram_2p/GenerateStatementBlockImpl$null14/InstantiationBlockImpl$u_impl_generic/BPortImpl$b_addr_i/label" transform="translate(6, -9) translate(25.21875, 14)" style="cursor:default;font-size:12px;perspective-origin:0px 0px;fill:rgb(48, 48, 48);text-anchor:middle;">b_addr_i</text></g><g id="sprotty_ArchitectureBlockImpl$prim_ram_2p/GenerateStatementBlockImpl$null14/InstantiationBlockImpl$u_impl_generic/BPortImpl$b_write_i" transform="translate(0, 262)" class="triangle"><path d="M 0,0 L 5,2.5 L 0,5 Z" transform="translate(-1.67, -2.5)" class="sprotty-port" style="fill:rgb(48, 48, 48);stroke:rgb(48, 48, 48);"/><text class="clickable sprotty-label port" id="sprotty_ArchitectureBlockImpl$prim_ram_2p/GenerateStatementBlockImpl$null14/InstantiationBlockImpl$u_impl_generic/BPortImpl$b_write_i/label" transform="translate(6, -9) translate(26.359375, 14)" style="cursor:default;font-size:12px;perspective-origin:0px 0px;fill:rgb(48, 48, 48);text-anchor:middle;">b_write_i</text></g><g id="sprotty_ArchitectureBlockImpl$prim_ram_2p/GenerateStatementBlockImpl$null14/InstantiationBlockImpl$u_impl_generic/BPortImpl$b_req_i" transform="translate(0, 234)" class="triangle"><path d="M 0,0 L 5,2.5 L 0,5 Z" transform="translate(-1.67, -2.5)" class="sprotty-port" style="fill:rgb(48, 48, 48);stroke:rgb(48, 48, 48);"/><text class="clickable sprotty-label port" id="sprotty_ArchitectureBlockImpl$prim_ram_2p/GenerateStatementBlockImpl$null14/InstantiationBlockImpl$u_impl_generic/BPortImpl$b_req_i/label" transform="translate(6, -9) translate(21.375, 14)" style="cursor:default;font-size:12px;perspective-origin:0px 0px;fill:rgb(48, 48, 48);text-anchor:middle;">b_req_i</text></g><g id="sprotty_ArchitectureBlockImpl$prim_ram_2p/GenerateStatementBlockImpl$null14/InstantiationBlockImpl$u_impl_generic/BPortImpl$a_wmask_i" transform="translate(0, 206)" class="triangle"><path d="M 0,0 L 5,2.5 L 0,5 Z" transform="translate(-1.67, -2.5)" class="sprotty-port" style="fill:rgb(48, 48, 48);stroke:rgb(48, 48, 48);"/><text class="clickable sprotty-label port" id="sprotty_ArchitectureBlockImpl$prim_ram_2p/GenerateStatementBlockImpl$null14/InstantiationBlockImpl$u_impl_generic/BPortImpl$a_wmask_i/label" transform="translate(6, -9) translate(31.625, 14)" style="cursor:default;font-size:12px;perspective-origin:0px 0px;fill:rgb(48, 48, 48);text-anchor:middle;">a_wmask_i</text></g><g id="sprotty_ArchitectureBlockImpl$prim_ram_2p/GenerateStatementBlockImpl$null14/InstantiationBlockImpl$u_impl_generic/BPortImpl$a_wdata_i" transform="translate(0, 178)" class="triangle"><path d="M 0,0 L 5,2.5 L 0,5 Z" transform="translate(-1.67, -2.5)" class="sprotty-port" style="fill:rgb(48, 48, 48);stroke:rgb(48, 48, 48);"/><text class="clickable sprotty-label port" id="sprotty_ArchitectureBlockImpl$prim_ram_2p/GenerateStatementBlockImpl$null14/InstantiationBlockImpl$u_impl_generic/BPortImpl$a_wdata_i/label" transform="translate(6, -9) translate(29.046875, 14)" style="cursor:default;font-size:12px;perspective-origin:0px 0px;fill:rgb(48, 48, 48);text-anchor:middle;">a_wdata_i</text></g><g id="sprotty_ArchitectureBlockImpl$prim_ram_2p/GenerateStatementBlockImpl$null14/InstantiationBlockImpl$u_impl_generic/BPortImpl$a_addr_i" transform="translate(0, 150)" class="triangle"><path d="M 0,0 L 5,2.5 L 0,5 Z" transform="translate(-1.67, -2.5)" class="sprotty-port" style="fill:rgb(48, 48, 48);stroke:rgb(48, 48, 48);"/><text class="clickable sprotty-label port" id="sprotty_ArchitectureBlockImpl$prim_ram_2p/GenerateStatementBlockImpl$null14/InstantiationBlockImpl$u_impl_generic/BPortImpl$a_addr_i/label" transform="translate(6, -9) translate(24.90625, 14)" style="cursor:default;font-size:12px;perspective-origin:0px 0px;fill:rgb(48, 48, 48);text-anchor:middle;">a_addr_i</text></g><g id="sprotty_ArchitectureBlockImpl$prim_ram_2p/GenerateStatementBlockImpl$null14/InstantiationBlockImpl$u_impl_generic/BPortImpl$a_write_i" transform="translate(0, 122)" class="triangle"><path d="M 0,0 L 5,2.5 L 0,5 Z" transform="translate(-1.67, -2.5)" class="sprotty-port" style="fill:rgb(48, 48, 48);stroke:rgb(48, 48, 48);"/><text class="clickable sprotty-label port" id="sprotty_ArchitectureBlockImpl$prim_ram_2p/GenerateStatementBlockImpl$null14/InstantiationBlockImpl$u_impl_generic/BPortImpl$a_write_i/label" transform="translate(6, -9) translate(26.03125, 14)" style="cursor:default;font-size:12px;perspective-origin:0px 0px;fill:rgb(48, 48, 48);text-anchor:middle;">a_write_i</text></g><g id="sprotty_ArchitectureBlockImpl$prim_ram_2p/GenerateStatementBlockImpl$null14/InstantiationBlockImpl$u_impl_generic/BPortImpl$a_req_i" transform="translate(0, 94)" class="triangle"><path d="M 0,0 L 5,2.5 L 0,5 Z" transform="translate(-1.67, -2.5)" class="sprotty-port" style="fill:rgb(48, 48, 48);stroke:rgb(48, 48, 48);"/><text class="clickable sprotty-label port" id="sprotty_ArchitectureBlockImpl$prim_ram_2p/GenerateStatementBlockImpl$null14/InstantiationBlockImpl$u_impl_generic/BPortImpl$a_req_i/label" transform="translate(6, -9) translate(21.0625, 14)" style="cursor:default;font-size:12px;perspective-origin:0px 0px;fill:rgb(48, 48, 48);text-anchor:middle;">a_req_i</text></g><g id="sprotty_ArchitectureBlockImpl$prim_ram_2p/GenerateStatementBlockImpl$null14/InstantiationBlockImpl$u_impl_generic/BPortImpl$clk_b_i" transform="translate(0, 66)" class="triangle"><path d="M 0,0 L 5,2.5 L 0,5 Z" transform="translate(-1.67, -2.5)" class="sprotty-port" style="fill:rgb(48, 48, 48);stroke:rgb(48, 48, 48);"/><text class="clickable sprotty-label port" id="sprotty_ArchitectureBlockImpl$prim_ram_2p/GenerateStatementBlockImpl$null14/InstantiationBlockImpl$u_impl_generic/BPortImpl$clk_b_i/label" transform="translate(6, -9) translate(20.15625, 14)" style="cursor:default;font-size:12px;perspective-origin:0px 0px;fill:rgb(48, 48, 48);text-anchor:middle;">clk_b_i</text></g><g id="sprotty_ArchitectureBlockImpl$prim_ram_2p/GenerateStatementBlockImpl$null14/InstantiationBlockImpl$u_impl_generic/BPortImpl$clk_a_i" transform="translate(0, 38)" class="triangle"><path d="M 0,0 L 5,2.5 L 0,5 Z" transform="translate(-1.67, -2.5)" class="sprotty-port" style="fill:rgb(48, 48, 48);stroke:rgb(48, 48, 48);"/><text class="clickable sprotty-label port" id="sprotty_ArchitectureBlockImpl$prim_ram_2p/GenerateStatementBlockImpl$null14/InstantiationBlockImpl$u_impl_generic/BPortImpl$clk_a_i/label" transform="translate(6, -9) translate(19.828125, 14)" style="cursor:default;font-size:12px;perspective-origin:0px 0px;fill:rgb(48, 48, 48);text-anchor:middle;">clk_a_i</text></g><g id="sprotty_ArchitectureBlockImpl$prim_ram_2p/GenerateStatementBlockImpl$null14/InstantiationBlockImpl$u_impl_generic/BPortImpl$a_rdata_o" transform="translate(317.0625, 38)" class="triangle"><path d="M 0,0 L 5,2.5 L 0,5 Z" transform="translate(-1.67, -2.5)" class="sprotty-port" style="fill:rgb(48, 48, 48);stroke:rgb(48, 48, 48);"/><text class="clickable sprotty-label port" id="sprotty_ArchitectureBlockImpl$prim_ram_2p/GenerateStatementBlockImpl$null14/InstantiationBlockImpl$u_impl_generic/BPortImpl$a_rdata_o/label" transform="translate(-63.03125, -9) translate(28.515625, 14)" style="cursor:default;font-size:12px;perspective-origin:0px 0px;fill:rgb(48, 48, 48);text-anchor:middle;">a_rdata_o</text></g><g id="sprotty_ArchitectureBlockImpl$prim_ram_2p/GenerateStatementBlockImpl$null14/InstantiationBlockImpl$u_impl_generic/BPortImpl$b_rdata_o" transform="translate(317.0625, 346)" class="triangle"><path d="M 0,0 L 5,2.5 L 0,5 Z" transform="translate(-1.67, -2.5)" class="sprotty-port" style="fill:rgb(48, 48, 48);stroke:rgb(48, 48, 48);"/><text class="clickable sprotty-label port" id="sprotty_ArchitectureBlockImpl$prim_ram_2p/GenerateStatementBlockImpl$null14/InstantiationBlockImpl$u_impl_generic/BPortImpl$b_rdata_o/label" transform="translate(-63.6875, -9) translate(28.84375, 14)" style="cursor:default;font-size:12px;perspective-origin:0px 0px;fill:rgb(48, 48, 48);text-anchor:middle;">b_rdata_o</text></g></g><g id="sprotty_ArchitectureBlockImpl$prim_ram_2p/GenerateStatementBlockImpl$null14/GPortImpl$b_wmask_i" transform="translate(0, 361)" class="triangle"><path d="M 0,0 L 5,2.5 L 0,5 Z" transform="translate(-1.67, -2.5)" class="sprotty-port" style="fill:rgb(48, 48, 48);stroke:rgb(48, 48, 48);"/></g><g id="sprotty_ArchitectureBlockImpl$prim_ram_2p/GenerateStatementBlockImpl$null14/GPortImpl$b_wdata_i" transform="translate(0, 333)" class="triangle"><path d="M 0,0 L 5,2.5 L 0,5 Z" transform="translate(-1.67, -2.5)" class="sprotty-port" style="fill:rgb(48, 48, 48);stroke:rgb(48, 48, 48);"/></g><g id="sprotty_ArchitectureBlockImpl$prim_ram_2p/GenerateStatementBlockImpl$null14/GPortImpl$b_addr_i" transform="translate(0, 305)" class="triangle"><path d="M 0,0 L 5,2.5 L 0,5 Z" transform="translate(-1.67, -2.5)" class="sprotty-port" style="fill:rgb(48, 48, 48);stroke:rgb(48, 48, 48);"/></g><g id="sprotty_ArchitectureBlockImpl$prim_ram_2p/GenerateStatementBlockImpl$null14/GPortImpl$b_write_i" transform="translate(0, 277)" class="triangle"><path d="M 0,0 L 5,2.5 L 0,5 Z" transform="translate(-1.67, -2.5)" class="sprotty-port" style="fill:rgb(48, 48, 48);stroke:rgb(48, 48, 48);"/></g><g id="sprotty_ArchitectureBlockImpl$prim_ram_2p/GenerateStatementBlockImpl$null14/GPortImpl$b_req_i" transform="translate(0, 249)" class="triangle"><path d="M 0,0 L 5,2.5 L 0,5 Z" transform="translate(-1.67, -2.5)" class="sprotty-port" style="fill:rgb(48, 48, 48);stroke:rgb(48, 48, 48);"/></g><g id="sprotty_ArchitectureBlockImpl$prim_ram_2p/GenerateStatementBlockImpl$null14/GPortImpl$a_wmask_i" transform="translate(0, 221)" class="triangle"><path d="M 0,0 L 5,2.5 L 0,5 Z" transform="translate(-1.67, -2.5)" class="sprotty-port" style="fill:rgb(48, 48, 48);stroke:rgb(48, 48, 48);"/></g><g id="sprotty_ArchitectureBlockImpl$prim_ram_2p/GenerateStatementBlockImpl$null14/GPortImpl$a_wdata_i" transform="translate(0, 193)" class="triangle"><path d="M 0,0 L 5,2.5 L 0,5 Z" transform="translate(-1.67, -2.5)" class="sprotty-port" style="fill:rgb(48, 48, 48);stroke:rgb(48, 48, 48);"/></g><g id="sprotty_ArchitectureBlockImpl$prim_ram_2p/GenerateStatementBlockImpl$null14/GPortImpl$a_addr_i" transform="translate(0, 165)" class="triangle"><path d="M 0,0 L 5,2.5 L 0,5 Z" transform="translate(-1.67, -2.5)" class="sprotty-port" style="fill:rgb(48, 48, 48);stroke:rgb(48, 48, 48);"/></g><g id="sprotty_ArchitectureBlockImpl$prim_ram_2p/GenerateStatementBlockImpl$null14/GPortImpl$a_write_i" transform="translate(0, 137)" class="triangle"><path d="M 0,0 L 5,2.5 L 0,5 Z" transform="translate(-1.67, -2.5)" class="sprotty-port" style="fill:rgb(48, 48, 48);stroke:rgb(48, 48, 48);"/></g><g id="sprotty_ArchitectureBlockImpl$prim_ram_2p/GenerateStatementBlockImpl$null14/GPortImpl$a_req_i" transform="translate(0, 109)" class="triangle"><path d="M 0,0 L 5,2.5 L 0,5 Z" transform="translate(-1.67, -2.5)" class="sprotty-port" style="fill:rgb(48, 48, 48);stroke:rgb(48, 48, 48);"/></g><g id="sprotty_ArchitectureBlockImpl$prim_ram_2p/GenerateStatementBlockImpl$null14/GPortImpl$clk_b_i" transform="translate(0, 81)" class="triangle"><path d="M 0,0 L 5,2.5 L 0,5 Z" transform="translate(-1.67, -2.5)" class="sprotty-port" style="fill:rgb(48, 48, 48);stroke:rgb(48, 48, 48);"/></g><g id="sprotty_ArchitectureBlockImpl$prim_ram_2p/GenerateStatementBlockImpl$null14/GPortImpl$clk_a_i" transform="translate(0, 53)" class="triangle"><path d="M 0,0 L 5,2.5 L 0,5 Z" transform="translate(-1.67, -2.5)" class="sprotty-port" style="fill:rgb(48, 48, 48);stroke:rgb(48, 48, 48);"/></g><g id="sprotty_ArchitectureBlockImpl$prim_ram_2p/GenerateStatementBlockImpl$null14/GPortImpl$a_rdata_o" transform="translate(347.0625, 53)" class="triangle"><path d="M 0,0 L 5,2.5 L 0,5 Z" transform="translate(-1.67, -2.5)" class="sprotty-port" style="fill:rgb(48, 48, 48);stroke:rgb(48, 48, 48);"/></g><g id="sprotty_ArchitectureBlockImpl$prim_ram_2p/GenerateStatementBlockImpl$null14/GPortImpl$b_rdata_o" transform="translate(347.0625, 361)" class="triangle"><path d="M 0,0 L 5,2.5 L 0,5 Z" transform="translate(-1.67, -2.5)" class="sprotty-port" style="fill:rgb(48, 48, 48);stroke:rgb(48, 48, 48);"/></g></g><g id="sprotty_ArchitectureBlockImpl$prim_ram_2p/BPortImpl$b_wmask_i" transform="translate(0, 409)" class="triangle"><path d="M 0,0 L 5,2.5 L 0,5 Z" transform="translate(-1.67, -2.5)" class="sprotty-port" style="fill:rgb(48, 48, 48);stroke:rgb(48, 48, 48);"/><text class="clickable sprotty-label port" id="sprotty_ArchitectureBlockImpl$prim_ram_2p/BPortImpl$b_wmask_i/label" transform="translate(6, 6) translate(31.953125, 14)" style="cursor:default;font-size:12px;perspective-origin:0px 0px;fill:rgb(48, 48, 48);text-anchor:middle;">b_wmask_i</text></g><g id="sprotty_ArchitectureBlockImpl$prim_ram_2p/BPortImpl$b_wdata_i" transform="translate(0, 375)" class="triangle"><path d="M 0,0 L 5,2.5 L 0,5 Z" transform="translate(-1.67, -2.5)" class="sprotty-port" style="fill:rgb(48, 48, 48);stroke:rgb(48, 48, 48);"/><text class="clickable sprotty-label port" id="sprotty_ArchitectureBlockImpl$prim_ram_2p/BPortImpl$b_wdata_i/label" transform="translate(6, 6) translate(29.375, 14)" style="cursor:default;font-size:12px;perspective-origin:0px 0px;fill:rgb(48, 48, 48);text-anchor:middle;">b_wdata_i</text></g><g id="sprotty_ArchitectureBlockImpl$prim_ram_2p/BPortImpl$b_addr_i" transform="translate(0, 341)" class="triangle"><path d="M 0,0 L 5,2.5 L 0,5 Z" transform="translate(-1.67, -2.5)" class="sprotty-port" style="fill:rgb(48, 48, 48);stroke:rgb(48, 48, 48);"/><text class="clickable sprotty-label port" id="sprotty_ArchitectureBlockImpl$prim_ram_2p/BPortImpl$b_addr_i/label" transform="translate(6, 6) translate(25.21875, 14)" style="cursor:default;font-size:12px;perspective-origin:0px 0px;fill:rgb(48, 48, 48);text-anchor:middle;">b_addr_i</text></g><g id="sprotty_ArchitectureBlockImpl$prim_ram_2p/BPortImpl$b_write_i" transform="translate(0, 307)" class="triangle"><path d="M 0,0 L 5,2.5 L 0,5 Z" transform="translate(-1.67, -2.5)" class="sprotty-port" style="fill:rgb(48, 48, 48);stroke:rgb(48, 48, 48);"/><text class="clickable sprotty-label port" id="sprotty_ArchitectureBlockImpl$prim_ram_2p/BPortImpl$b_write_i/label" transform="translate(6, 6) translate(26.359375, 14)" style="cursor:default;font-size:12px;perspective-origin:0px 0px;fill:rgb(48, 48, 48);text-anchor:middle;">b_write_i</text></g><g id="sprotty_ArchitectureBlockImpl$prim_ram_2p/BPortImpl$b_req_i" transform="translate(0, 273)" class="triangle"><path d="M 0,0 L 5,2.5 L 0,5 Z" transform="translate(-1.67, -2.5)" class="sprotty-port" style="fill:rgb(48, 48, 48);stroke:rgb(48, 48, 48);"/><text class="clickable sprotty-label port" id="sprotty_ArchitectureBlockImpl$prim_ram_2p/BPortImpl$b_req_i/label" transform="translate(6, 6) translate(21.375, 14)" style="cursor:default;font-size:12px;perspective-origin:0px 0px;fill:rgb(48, 48, 48);text-anchor:middle;">b_req_i</text></g><g id="sprotty_ArchitectureBlockImpl$prim_ram_2p/BPortImpl$a_wmask_i" transform="translate(0, 239)" class="triangle"><path d="M 0,0 L 5,2.5 L 0,5 Z" transform="translate(-1.67, -2.5)" class="sprotty-port" style="fill:rgb(48, 48, 48);stroke:rgb(48, 48, 48);"/><text class="clickable sprotty-label port" id="sprotty_ArchitectureBlockImpl$prim_ram_2p/BPortImpl$a_wmask_i/label" transform="translate(6, 6) translate(31.625, 14)" style="cursor:default;font-size:12px;perspective-origin:0px 0px;fill:rgb(48, 48, 48);text-anchor:middle;">a_wmask_i</text></g><g id="sprotty_ArchitectureBlockImpl$prim_ram_2p/BPortImpl$a_wdata_i" transform="translate(0, 205)" class="triangle"><path d="M 0,0 L 5,2.5 L 0,5 Z" transform="translate(-1.67, -2.5)" class="sprotty-port" style="fill:rgb(48, 48, 48);stroke:rgb(48, 48, 48);"/><text class="clickable sprotty-label port" id="sprotty_ArchitectureBlockImpl$prim_ram_2p/BPortImpl$a_wdata_i/label" transform="translate(6, 6) translate(29.046875, 14)" style="cursor:default;font-size:12px;perspective-origin:0px 0px;fill:rgb(48, 48, 48);text-anchor:middle;">a_wdata_i</text></g><g id="sprotty_ArchitectureBlockImpl$prim_ram_2p/BPortImpl$a_addr_i" transform="translate(0, 171)" class="triangle"><path d="M 0,0 L 5,2.5 L 0,5 Z" transform="translate(-1.67, -2.5)" class="sprotty-port" style="fill:rgb(48, 48, 48);stroke:rgb(48, 48, 48);"/><text class="clickable sprotty-label port" id="sprotty_ArchitectureBlockImpl$prim_ram_2p/BPortImpl$a_addr_i/label" transform="translate(6, 6) translate(24.90625, 14)" style="cursor:default;font-size:12px;perspective-origin:0px 0px;fill:rgb(48, 48, 48);text-anchor:middle;">a_addr_i</text></g><g id="sprotty_ArchitectureBlockImpl$prim_ram_2p/BPortImpl$a_write_i" transform="translate(0, 137)" class="triangle"><path d="M 0,0 L 5,2.5 L 0,5 Z" transform="translate(-1.67, -2.5)" class="sprotty-port" style="fill:rgb(48, 48, 48);stroke:rgb(48, 48, 48);"/><text class="clickable sprotty-label port" id="sprotty_ArchitectureBlockImpl$prim_ram_2p/BPortImpl$a_write_i/label" transform="translate(6, 6) translate(26.03125, 14)" style="cursor:default;font-size:12px;perspective-origin:0px 0px;fill:rgb(48, 48, 48);text-anchor:middle;">a_write_i</text></g><g id="sprotty_ArchitectureBlockImpl$prim_ram_2p/BPortImpl$a_req_i" transform="translate(0, 103)" class="triangle"><path d="M 0,0 L 5,2.5 L 0,5 Z" transform="translate(-1.67, -2.5)" class="sprotty-port" style="fill:rgb(48, 48, 48);stroke:rgb(48, 48, 48);"/><text class="clickable sprotty-label port" id="sprotty_ArchitectureBlockImpl$prim_ram_2p/BPortImpl$a_req_i/label" transform="translate(6, 6) translate(21.0625, 14)" style="cursor:default;font-size:12px;perspective-origin:0px 0px;fill:rgb(48, 48, 48);text-anchor:middle;">a_req_i</text></g><g id="sprotty_ArchitectureBlockImpl$prim_ram_2p/BPortImpl$clk_b_i" transform="translate(0, 69)" class="triangle"><path d="M 0,0 L 5,2.5 L 0,5 Z" transform="translate(-1.67, -2.5)" class="sprotty-port" style="fill:rgb(48, 48, 48);stroke:rgb(48, 48, 48);"/><text class="clickable sprotty-label port" id="sprotty_ArchitectureBlockImpl$prim_ram_2p/BPortImpl$clk_b_i/label" transform="translate(6, 6) translate(20.15625, 14)" style="cursor:default;font-size:12px;perspective-origin:0px 0px;fill:rgb(48, 48, 48);text-anchor:middle;">clk_b_i</text></g><g id="sprotty_ArchitectureBlockImpl$prim_ram_2p/BPortImpl$clk_a_i" transform="translate(0, 35)" class="triangle"><path d="M 0,0 L 5,2.5 L 0,5 Z" transform="translate(-1.67, -2.5)" class="sprotty-port" style="fill:rgb(48, 48, 48);stroke:rgb(48, 48, 48);"/><text class="clickable sprotty-label port" id="sprotty_ArchitectureBlockImpl$prim_ram_2p/BPortImpl$clk_a_i/label" transform="translate(6, 6) translate(19.828125, 14)" style="cursor:default;font-size:12px;perspective-origin:0px 0px;fill:rgb(48, 48, 48);text-anchor:middle;">clk_a_i</text></g><g id="sprotty_ArchitectureBlockImpl$prim_ram_2p/BPortImpl$a_rdata_o" transform="translate(600.65625, 101)" class="triangle"><path d="M 0,0 L 5,2.5 L 0,5 Z" transform="translate(-1.67, -2.5)" class="sprotty-port" style="fill:rgb(48, 48, 48);stroke:rgb(48, 48, 48);"/><text class="clickable sprotty-label port" id="sprotty_ArchitectureBlockImpl$prim_ram_2p/BPortImpl$a_rdata_o/label" transform="translate(-63.03125, 6) translate(28.515625, 14)" style="cursor:default;font-size:12px;perspective-origin:0px 0px;fill:rgb(48, 48, 48);text-anchor:middle;">a_rdata_o</text></g><g id="sprotty_ArchitectureBlockImpl$prim_ram_2p/BPortImpl$b_rdata_o" transform="translate(600.65625, 409)" class="triangle"><path d="M 0,0 L 5,2.5 L 0,5 Z" transform="translate(-1.67, -2.5)" class="sprotty-port" style="fill:rgb(48, 48, 48);stroke:rgb(48, 48, 48);"/><text class="clickable sprotty-label port" id="sprotty_ArchitectureBlockImpl$prim_ram_2p/BPortImpl$b_rdata_o/label" transform="translate(-63.6875, 6) translate(28.84375, 14)" style="cursor:default;font-size:12px;perspective-origin:0px 0px;fill:rgb(48, 48, 48);text-anchor:middle;">b_rdata_o</text></g></g></g></svg>