<svg xmlns="http://www.w3.org/2000/svg" id="sprotty_work.alert_handler_accu" class="sprotty-graph sprotty-block-diagram blockdiagram" style="font-family:&quot;Noto Sans&quot;, Helvetica, Arial, sans-serif;perspective-origin:0px 0px;transform-origin:0px 0px;" version="1.1" viewBox="7 7 343.953125 288.5" width="343.953125" height="288.5"><g transform="scale(1) translate(0,0)"><g id="sprotty_ArchitectureBlockImpl$alert_handler_accu" transform="translate(12, 12)" class="architecture"><g class="sprotty-block" style="fill:rgb(255, 255, 255);stroke:rgb(48, 48, 48);stroke-dasharray:0px;"><rect x="0" y="0" rx="1" ry="1" width="333.953125" height="278.5"/><text x="166.9765625" y="12" class="sprotty-block-name" style="cursor:pointer;font-weight:700;perspective-origin:166.969px 0px;fill:rgb(48, 48, 48);stroke:rgba(0, 0, 0, 0);dominant-baseline:middle;text-anchor:middle;">alert_handler_accu</text><line x1="0" y1="20" x2="333.953125" y2="20"/></g><g id="sprotty_ArchitectureBlockImpl$alert_handler_accu/AssignmentBlockImpl$accu_cnt_o/GPortImpl$accu_cnt_oOUT_to_ArchitectureBlockImpl$alert_handler_accu/BPortImpl$accu_cnt_o" class="sprotty-edge thick edge" style="fill:none;stroke:rgb(112, 112, 112);stroke-linejoin:round;stroke-width:3px;"><g><path d="M 227.046875 126 L 333.953125 126 "/><path d="M 227.046875 126 L 333.953125 126 " class="clickable"/></g></g><g id="sprotty_ArchitectureBlockImpl$alert_handler_accu/AssignmentBlockImpl$accu_trig_o/GPortImpl$accu_trig_oOUT_to_ArchitectureBlockImpl$alert_handler_accu/BPortImpl$accu_trig_o" class="sprotty-edge edge" style="fill:none;stroke:rgb(112, 112, 112);stroke-linejoin:round;"><g><path d="M 227.046875 200.5 L 333.953125 200.5 "/><path d="M 227.046875 200.5 L 333.953125 200.5 " class="clickable"/></g></g><g id="sprotty_ArchitectureBlockImpl$alert_handler_accu/BPortImpl$class_trig_i_to_ArchitectureBlockImpl$alert_handler_accu/AssignmentBlockImpl$trig_gated/GPortImpl$class_trig_iIN" class="sprotty-edge edge" style="fill:none;stroke:rgb(112, 112, 112);stroke-linejoin:round;"><g><path d="M 0 171.5 L 92.5 171.5 C 93.5 171.5 94.5 172.5 94.5 173.5 L 94.5 193.5 C 94.5 194.5 95.5 195.5 96.5 195.5 L 128.86979166666669 195.5 "/><path d="M 0 171.5 L 92.5 171.5 C 93.5 171.5 94.5 172.5 94.5 173.5 L 94.5 193.5 C 94.5 194.5 95.5 195.5 96.5 195.5 L 128.86979166666669 195.5 " class="clickable"/></g></g><g id="sprotty_ArchitectureBlockImpl$alert_handler_accu/BPortImpl$class_en_i_to_ArchitectureBlockImpl$alert_handler_accu/AssignmentBlockImpl$trig_gated/GPortImpl$class_en_iIN" class="sprotty-edge edge" style="fill:none;stroke:rgb(112, 112, 112);stroke-linejoin:round;"><g><path d="M 0 205.5 L 128.86979166666669 205.5 "/><path d="M 0 205.5 L 128.86979166666669 205.5 " class="clickable"/></g></g><g id="sprotty_ArchitectureBlockImpl$alert_handler_accu/BPortImpl$clr_i_to_ArchitectureBlockImpl$alert_handler_accu/AssignmentBlockImpl$accu_d/GPortImpl$clr_iIN" class="sprotty-edge edge" style="fill:none;stroke:rgb(112, 112, 112);stroke-linejoin:round;"><g><path d="M 0 36 L 185.328125 36 C 186.328125 36 187.328125 37 187.328125 38 L 187.328125 63 C 187.328125 64 188.328125 65 189.328125 65 L 207.328125 65 "/><path d="M 0 36 L 185.328125 36 C 186.328125 36 187.328125 37 187.328125 38 L 187.328125 63 C 187.328125 64 188.328125 65 189.328125 65 L 207.328125 65 " class="clickable"/></g></g><g id="sprotty_ArchitectureBlockImpl$alert_handler_accu/BPortImpl$thresh_i_to_ArchitectureBlockImpl$alert_handler_accu/AssignmentBlockImpl$accu_trig_o/GPortImpl$thresh_iIN" class="sprotty-edge thick edge" style="fill:none;stroke:rgb(112, 112, 112);stroke-linejoin:round;stroke-width:3px;"><g><path d="M 0 239.5 L 185.328125 239.5 C 186.328125 239.5 187.328125 238.5 187.328125 237.5 L 187.328125 212.5 C 187.328125 211.5 188.328125 210.5 189.328125 210.5 L 207.328125 210.5 "/><path d="M 0 239.5 L 185.328125 239.5 C 186.328125 239.5 187.328125 238.5 187.328125 237.5 L 187.328125 212.5 C 187.328125 211.5 188.328125 210.5 189.328125 210.5 L 207.328125 210.5 " class="clickable"/></g></g><g id="sprotty_ArchitectureBlockImpl$alert_handler_accu/BPortImpl$clk_i_to_ArchitectureBlockImpl$alert_handler_accu/AlwaysBlockImpl$p_regs/GPortImpl$clk_iIN" class="sprotty-edge edge" style="fill:none;stroke:rgb(112, 112, 112);stroke-linejoin:round;"><g><path d="M 0 103.5 L 92.5 103.5 C 93.5 103.5 94.5 104.5 94.5 105.5 L 94.5 124 C 94.5 125 95.5 126 96.5 126 L 114.5 126 "/><path d="M 0 103.5 L 92.5 103.5 C 93.5 103.5 94.5 104.5 94.5 105.5 L 94.5 124 C 94.5 125 95.5 126 96.5 126 L 114.5 126 " class="clickable"/></g></g><g id="sprotty_ArchitectureBlockImpl$alert_handler_accu/BPortImpl$rst_ni_to_ArchitectureBlockImpl$alert_handler_accu/AlwaysBlockImpl$p_regs/GPortImpl$rst_niIN" class="sprotty-edge edge" style="fill:none;stroke:rgb(112, 112, 112);stroke-linejoin:round;"><g><path d="M 0 137.5 L 114.5 137.5 "/><path d="M 0 137.5 L 114.5 137.5 " class="clickable"/></g></g><g id="sprotty_ArchitectureBlockImpl$alert_handler_accu/AssignmentBlockImpl$trig_gated/GPortImpl$trig_gatedOUT_to_ArchitectureBlockImpl$alert_handler_accu/AssignmentBlockImpl$accu_d/GPortImpl$trig_gatedIN" class="sprotty-edge edge" style="fill:none;stroke:rgb(112, 112, 112);stroke-linejoin:round;"><g><path d="M 148.58854166666669 200.5 L 185.328125 200.5 C 186.328125 200.5 187.328125 199.5 187.328125 198.5 L 187.328125 87 C 187.328125 86 188.328125 85 189.328125 85 L 207.328125 85 "/><path d="M 148.58854166666669 200.5 L 185.328125 200.5 C 186.328125 200.5 187.328125 199.5 187.328125 198.5 L 187.328125 87 C 187.328125 86 188.328125 85 189.328125 85 L 207.328125 85 " class="clickable"/></g><circle r="2" id="sprotty_ArchitectureBlockImpl$alert_handler_accu/AssignmentBlockImpl$trig_gated/GPortImpl$trig_gatedOUT_to_ArchitectureBlockImpl$alert_handler_accu/AssignmentBlockImpl$accu_d/GPortImpl$trig_gatedIN/junction0" transform="translate(187.328125, 200.5)" class="sprotty-junction junction" style="fill:rgb(112, 112, 112);stroke:none;"/></g><g id="sprotty_ArchitectureBlockImpl$alert_handler_accu/AssignmentBlockImpl$trig_gated/GPortImpl$trig_gatedOUT_to_ArchitectureBlockImpl$alert_handler_accu/AssignmentBlockImpl$accu_trig_o/GPortImpl$trig_gatedIN" class="sprotty-edge edge" style="fill:none;stroke:rgb(112, 112, 112);stroke-linejoin:round;"><g><path d="M 148.58854166666669 200.5 L 207.328125 200.5 "/><path d="M 148.58854166666669 200.5 L 207.328125 200.5 " class="clickable"/></g></g><g id="sprotty_ArchitectureBlockImpl$alert_handler_accu/AssignmentBlockImpl$accu_d/GPortImpl$accu_qOUT_to_ArchitectureBlockImpl$alert_handler_accu/AlwaysBlockImpl$p_regs/GPortImpl$accu_dIN" class="sprotty-edge thick edge" style="fill:none;stroke:rgb(112, 112, 112);stroke-linejoin:round;stroke-width:3px;"><g><path d="M 227.046875 75 L 235.046875 75 C 236.046875 75 237.046875 74 237.046875 73 L 237.046875 47 C 237.046875 46 236.046875 45 235.046875 45 L 106.5 45 C 105.5 45 104.5 46 104.5 47 L 104.5 112.5 C 104.5 113.5 105.5 114.5 106.5 114.5 L 114.5 114.5 "/><path d="M 227.046875 75 L 235.046875 75 C 236.046875 75 237.046875 74 237.046875 73 L 237.046875 47 C 237.046875 46 236.046875 45 235.046875 45 L 106.5 45 C 105.5 45 104.5 46 104.5 47 L 104.5 112.5 C 104.5 113.5 105.5 114.5 106.5 114.5 L 114.5 114.5 " class="clickable"/></g></g><g id="sprotty_ArchitectureBlockImpl$alert_handler_accu/AlwaysBlockImpl$p_regs/GPortImpl$accu_qOUT_to_ArchitectureBlockImpl$alert_handler_accu/AssignmentBlockImpl$accu_d/GPortImpl$accu_qIN" class="sprotty-edge thick edge" style="fill:none;stroke:rgb(112, 112, 112);stroke-linejoin:round;stroke-width:3px;"><g><path d="M 177.328125 126 L 195.328125 126 C 196.328125 126 197.328125 125 197.328125 124 L 197.328125 77 C 197.328125 76 198.328125 75 199.328125 75 L 207.328125 75 "/><path d="M 177.328125 126 L 195.328125 126 C 196.328125 126 197.328125 125 197.328125 124 L 197.328125 77 C 197.328125 76 198.328125 75 199.328125 75 L 207.328125 75 " class="clickable"/></g><circle r="3" id="sprotty_ArchitectureBlockImpl$alert_handler_accu/AlwaysBlockImpl$p_regs/GPortImpl$accu_qOUT_to_ArchitectureBlockImpl$alert_handler_accu/AssignmentBlockImpl$accu_d/GPortImpl$accu_qIN/junction0" transform="translate(197.328125, 126)" class="sprotty-junction thick" style="fill:rgb(112, 112, 112);stroke:none;"/></g><g id="sprotty_ArchitectureBlockImpl$alert_handler_accu/AlwaysBlockImpl$p_regs/GPortImpl$accu_qOUT_to_ArchitectureBlockImpl$alert_handler_accu/AssignmentBlockImpl$accu_trig_o/GPortImpl$accu_qIN" class="sprotty-edge thick edge" style="fill:none;stroke:rgb(112, 112, 112);stroke-linejoin:round;stroke-width:3px;"><g><path d="M 177.328125 126 L 195.328125 126 C 196.328125 126 197.328125 127 197.328125 128 L 197.328125 188.5 C 197.328125 189.5 198.328125 190.5 199.328125 190.5 L 207.328125 190.5 "/><path d="M 177.328125 126 L 195.328125 126 C 196.328125 126 197.328125 127 197.328125 128 L 197.328125 188.5 C 197.328125 189.5 198.328125 190.5 199.328125 190.5 L 207.328125 190.5 " class="clickable"/></g></g><g id="sprotty_ArchitectureBlockImpl$alert_handler_accu/AlwaysBlockImpl$p_regs/GPortImpl$accu_qOUT_to_ArchitectureBlockImpl$alert_handler_accu/AssignmentBlockImpl$accu_cnt_o/GPortImpl$accu_qIN" class="sprotty-edge thick edge" style="fill:none;stroke:rgb(112, 112, 112);stroke-linejoin:round;stroke-width:3px;"><g><path d="M 177.328125 126 L 207.328125 126 "/><path d="M 177.328125 126 L 207.328125 126 " class="clickable"/></g></g><g id="sprotty_ArchitectureBlockImpl$alert_handler_accu/AlwaysBlockImpl$p_regs" transform="translate(114.5, 103)" class="statement"><rect x="0" y="0" rx="10" ry="5" width="62.828125" height="46" class="sprotty-node" style="fill:rgb(245, 245, 245);stroke:rgb(112, 112, 112);"/><text class="clickable sprotty-label statementtext" id="sprotty_ArchitectureBlockImpl$alert_handler_accu/AlwaysBlockImpl$p_regs/labeltext" transform="translate(5, 5) translate(26.375, 19)" style="cursor:default;font-weight:700;perspective-origin:0.03125px 0px;fill:rgb(112, 112, 112);text-anchor:middle;">p_regs</text><text class="clickable sprotty-label statementtype" id="sprotty_ArchitectureBlockImpl$alert_handler_accu/AlwaysBlockImpl$p_regs/labeltype" transform="translate(11.96875, 29) translate(18.828125, 9)" style="cursor:default;font-size:8px;font-weight:700;perspective-origin:0.609375px 0px;fill:rgb(112, 112, 112);text-anchor:middle;">always_ff</text><g id="sprotty_ArchitectureBlockImpl$alert_handler_accu/AlwaysBlockImpl$p_regs/GPortImpl$accu_dIN" transform="translate(0, 11.5)" class="sprotty-hidden hidden" style="display:block;height:0px;width:0px;"/><g id="sprotty_ArchitectureBlockImpl$alert_handler_accu/AlwaysBlockImpl$p_regs/GPortImpl$rst_niIN" transform="translate(0, 34.5)" class="sprotty-hidden hidden" style="display:block;height:0px;width:0px;"/><g id="sprotty_ArchitectureBlockImpl$alert_handler_accu/AlwaysBlockImpl$p_regs/GPortImpl$clk_iIN" transform="translate(0, 23)" class="sprotty-hidden hidden" style="display:block;height:0px;width:0px;"/><g id="sprotty_ArchitectureBlockImpl$alert_handler_accu/AlwaysBlockImpl$p_regs/GPortImpl$accu_qOUT" transform="translate(62.828125, 23)" class="sprotty-hidden hidden" style="display:block;height:0px;width:0px;"/></g><g id="sprotty_ArchitectureBlockImpl$alert_handler_accu/AssignmentBlockImpl$accu_cnt_o" transform="translate(207.328125, 115)" class="statement"><rect x="0" y="0" rx="10" ry="5" width="19.71875" height="22" class="sprotty-node" style="fill:rgb(245, 245, 245);stroke:rgb(112, 112, 112);"/><text class="clickable sprotty-label statementtype" id="sprotty_ArchitectureBlockImpl$alert_handler_accu/AssignmentBlockImpl$accu_cnt_o/labeltype" transform="translate(5, 5) translate(4.71875, 9)" style="cursor:default;font-size:8px;font-weight:700;perspective-origin:0.140625px 0px;fill:rgb(112, 112, 112);text-anchor:middle;">&lt;=</text><g id="sprotty_ArchitectureBlockImpl$alert_handler_accu/AssignmentBlockImpl$accu_cnt_o/GPortImpl$accu_qIN" transform="translate(0, 11)" class="sprotty-hidden hidden" style="display:block;height:0px;width:0px;"/><g id="sprotty_ArchitectureBlockImpl$alert_handler_accu/AssignmentBlockImpl$accu_cnt_o/GPortImpl$accu_cnt_oOUT" transform="translate(19.71875, 11)" class="sprotty-hidden hidden" style="display:block;height:0px;width:0px;"/></g><g id="sprotty_ArchitectureBlockImpl$alert_handler_accu/AssignmentBlockImpl$accu_trig_o" transform="translate(207.328125, 180.5)" class="statement"><rect x="0" y="0" rx="10" ry="5" width="19.71875" height="40" class="sprotty-node" style="fill:rgb(245, 245, 245);stroke:rgb(112, 112, 112);"/><text class="clickable sprotty-label statementtype" id="sprotty_ArchitectureBlockImpl$alert_handler_accu/AssignmentBlockImpl$accu_trig_o/labeltype" transform="translate(5, 14) translate(4.71875, 9)" style="cursor:default;font-size:8px;font-weight:700;perspective-origin:0.140625px 0px;fill:rgb(112, 112, 112);text-anchor:middle;">&lt;=</text><g id="sprotty_ArchitectureBlockImpl$alert_handler_accu/AssignmentBlockImpl$accu_trig_o/GPortImpl$trig_gatedIN" transform="translate(0, 20)" class="sprotty-hidden hidden" style="display:block;height:0px;width:0px;"/><g id="sprotty_ArchitectureBlockImpl$alert_handler_accu/AssignmentBlockImpl$accu_trig_o/GPortImpl$thresh_iIN" transform="translate(0, 30)" class="sprotty-hidden hidden" style="display:block;height:0px;width:0px;"/><g id="sprotty_ArchitectureBlockImpl$alert_handler_accu/AssignmentBlockImpl$accu_trig_o/GPortImpl$accu_qIN" transform="translate(0, 10)" class="sprotty-hidden hidden" style="display:block;height:0px;width:0px;"/><g id="sprotty_ArchitectureBlockImpl$alert_handler_accu/AssignmentBlockImpl$accu_trig_o/GPortImpl$accu_trig_oOUT" transform="translate(19.71875, 20)" class="sprotty-hidden hidden" style="display:block;height:0px;width:0px;"/></g><g id="sprotty_ArchitectureBlockImpl$alert_handler_accu/AssignmentBlockImpl$accu_d" transform="translate(207.328125, 55)" class="statement"><rect x="0" y="0" rx="10" ry="5" width="19.71875" height="40" class="sprotty-node" style="fill:rgb(245, 245, 245);stroke:rgb(112, 112, 112);"/><text class="clickable sprotty-label statementtype" id="sprotty_ArchitectureBlockImpl$alert_handler_accu/AssignmentBlockImpl$accu_d/labeltype" transform="translate(5, 14) translate(4.71875, 9)" style="cursor:default;font-size:8px;font-weight:700;perspective-origin:0.140625px 0px;fill:rgb(112, 112, 112);text-anchor:middle;">&lt;=</text><g id="sprotty_ArchitectureBlockImpl$alert_handler_accu/AssignmentBlockImpl$accu_d/GPortImpl$accu_qIN" transform="translate(0, 20)" class="sprotty-hidden hidden" style="display:block;height:0px;width:0px;"/><g id="sprotty_ArchitectureBlockImpl$alert_handler_accu/AssignmentBlockImpl$accu_d/GPortImpl$trig_gatedIN" transform="translate(0, 30)" class="sprotty-hidden hidden" style="display:block;height:0px;width:0px;"/><g id="sprotty_ArchitectureBlockImpl$alert_handler_accu/AssignmentBlockImpl$accu_d/GPortImpl$clr_iIN" transform="translate(0, 10)" class="sprotty-hidden hidden" style="display:block;height:0px;width:0px;"/><g id="sprotty_ArchitectureBlockImpl$alert_handler_accu/AssignmentBlockImpl$accu_d/GPortImpl$accu_qOUT" transform="translate(19.71875, 20)" class="sprotty-hidden hidden" style="display:block;height:0px;width:0px;"/></g><g id="sprotty_ArchitectureBlockImpl$alert_handler_accu/AssignmentBlockImpl$trig_gated" transform="translate(128.86979166666669, 185.5)" class="statement"><rect x="0" y="0" rx="10" ry="5" width="19.71875" height="30" class="sprotty-node" style="fill:rgb(245, 245, 245);stroke:rgb(112, 112, 112);"/><text class="clickable sprotty-label statementtype" id="sprotty_ArchitectureBlockImpl$alert_handler_accu/AssignmentBlockImpl$trig_gated/labeltype" transform="translate(5, 9) translate(4.71875, 9)" style="cursor:default;font-size:8px;font-weight:700;perspective-origin:0.140625px 0px;fill:rgb(112, 112, 112);text-anchor:middle;">&lt;=</text><g id="sprotty_ArchitectureBlockImpl$alert_handler_accu/AssignmentBlockImpl$trig_gated/GPortImpl$class_en_iIN" transform="translate(0, 20)" class="sprotty-hidden hidden" style="display:block;height:0px;width:0px;"/><g id="sprotty_ArchitectureBlockImpl$alert_handler_accu/AssignmentBlockImpl$trig_gated/GPortImpl$class_trig_iIN" transform="translate(0, 10)" class="sprotty-hidden hidden" style="display:block;height:0px;width:0px;"/><g id="sprotty_ArchitectureBlockImpl$alert_handler_accu/AssignmentBlockImpl$trig_gated/GPortImpl$trig_gatedOUT" transform="translate(19.71875, 15)" class="sprotty-hidden hidden" style="display:block;height:0px;width:0px;"/></g><g id="sprotty_ArchitectureBlockImpl$alert_handler_accu/BPortImpl$thresh_i" transform="translate(0, 239.5)" class="triangle"><path d="M 0,0 L 5,2.5 L 0,5 Z" transform="translate(-1.67, -2.5)" class="sprotty-port" style="fill:rgb(48, 48, 48);stroke:rgb(48, 48, 48);"/><text class="clickable sprotty-label port" id="sprotty_ArchitectureBlockImpl$alert_handler_accu/BPortImpl$thresh_i/label" transform="translate(6, 6) translate(22.953125, 14)" style="cursor:default;font-size:12px;perspective-origin:0px 0px;fill:rgb(48, 48, 48);text-anchor:middle;">thresh_i</text></g><g id="sprotty_ArchitectureBlockImpl$alert_handler_accu/BPortImpl$class_trig_i" transform="translate(0, 171.5)" class="triangle"><path d="M 0,0 L 5,2.5 L 0,5 Z" transform="translate(-1.67, -2.5)" class="sprotty-port" style="fill:rgb(48, 48, 48);stroke:rgb(48, 48, 48);"/><text class="clickable sprotty-label port" id="sprotty_ArchitectureBlockImpl$alert_handler_accu/BPortImpl$class_trig_i/label" transform="translate(6, 6) translate(31.75, 14)" style="cursor:default;font-size:12px;perspective-origin:0px 0px;fill:rgb(48, 48, 48);text-anchor:middle;">class_trig_i</text></g><g id="sprotty_ArchitectureBlockImpl$alert_handler_accu/BPortImpl$clr_i" transform="translate(0, 36)" class="triangle"><path d="M 0,0 L 5,2.5 L 0,5 Z" transform="translate(-1.67, -2.5)" class="sprotty-port" style="fill:rgb(48, 48, 48);stroke:rgb(48, 48, 48);"/><text class="clickable sprotty-label port" id="sprotty_ArchitectureBlockImpl$alert_handler_accu/BPortImpl$clr_i/label" transform="translate(6, 6) translate(12.109375, 14)" style="cursor:default;font-size:12px;perspective-origin:0px 0px;fill:rgb(48, 48, 48);text-anchor:middle;">clr_i</text></g><g id="sprotty_ArchitectureBlockImpl$alert_handler_accu/BPortImpl$class_en_i" transform="translate(0, 205.5)" class="triangle"><path d="M 0,0 L 5,2.5 L 0,5 Z" transform="translate(-1.67, -2.5)" class="sprotty-port" style="fill:rgb(48, 48, 48);stroke:rgb(48, 48, 48);"/><text class="clickable sprotty-label port" id="sprotty_ArchitectureBlockImpl$alert_handler_accu/BPortImpl$class_en_i/label" transform="translate(6, 6) translate(29.125, 14)" style="cursor:default;font-size:12px;perspective-origin:0px 0px;fill:rgb(48, 48, 48);text-anchor:middle;">class_en_i</text></g><g id="sprotty_ArchitectureBlockImpl$alert_handler_accu/BPortImpl$rst_ni" transform="translate(0, 137.5)" class="triangle"><path d="M 0,0 L 5,2.5 L 0,5 Z" transform="translate(-1.67, -2.5)" class="sprotty-port" style="fill:rgb(48, 48, 48);stroke:rgb(48, 48, 48);"/><text class="clickable sprotty-label port" id="sprotty_ArchitectureBlockImpl$alert_handler_accu/BPortImpl$rst_ni/label" transform="translate(6, 6) translate(15.921875, 14)" style="cursor:default;font-size:12px;perspective-origin:0px 0px;fill:rgb(48, 48, 48);text-anchor:middle;">rst_ni</text></g><g id="sprotty_ArchitectureBlockImpl$alert_handler_accu/BPortImpl$clk_i" transform="translate(0, 103.5)" class="triangle"><path d="M 0,0 L 5,2.5 L 0,5 Z" transform="translate(-1.67, -2.5)" class="sprotty-port" style="fill:rgb(48, 48, 48);stroke:rgb(48, 48, 48);"/><text class="clickable sprotty-label port" id="sprotty_ArchitectureBlockImpl$alert_handler_accu/BPortImpl$clk_i/label" transform="translate(6, 6) translate(13.09375, 14)" style="cursor:default;font-size:12px;perspective-origin:0px 0px;fill:rgb(48, 48, 48);text-anchor:middle;">clk_i</text></g><g id="sprotty_ArchitectureBlockImpl$alert_handler_accu/BPortImpl$accu_cnt_o" transform="translate(333.953125, 126)" class="triangle"><path d="M 0,0 L 5,2.5 L 0,5 Z" transform="translate(-1.67, -2.5)" class="sprotty-port" style="fill:rgb(48, 48, 48);stroke:rgb(48, 48, 48);"/><text class="clickable sprotty-label port" id="sprotty_ArchitectureBlockImpl$alert_handler_accu/BPortImpl$accu_cnt_o/label" transform="translate(-70.65625, 6) translate(32.328125, 14)" style="cursor:default;font-size:12px;perspective-origin:0px 0px;fill:rgb(48, 48, 48);text-anchor:middle;">accu_cnt_o</text></g><g id="sprotty_ArchitectureBlockImpl$alert_handler_accu/BPortImpl$accu_trig_o" transform="translate(333.953125, 200.5)" class="triangle"><path d="M 0,0 L 5,2.5 L 0,5 Z" transform="translate(-1.67, -2.5)" class="sprotty-port" style="fill:rgb(48, 48, 48);stroke:rgb(48, 48, 48);"/><text class="clickable sprotty-label port" id="sprotty_ArchitectureBlockImpl$alert_handler_accu/BPortImpl$accu_trig_o/label" transform="translate(-71.90625, 6) translate(32.953125, 14)" style="cursor:default;font-size:12px;perspective-origin:0px 0px;fill:rgb(48, 48, 48);text-anchor:middle;">accu_trig_o</text></g></g></g></svg>