<svg xmlns="http://www.w3.org/2000/svg" id="sprotty_work.BUFGMUX" class="sprotty-graph sprotty-block-diagram blockdiagram" style="font-family:&quot;Noto Sans&quot;, Helvetica, Arial, sans-serif;perspective-origin:0px 0px;transform-origin:0px 0px;" version="1.1" viewBox="7 7 97 122" width="97" height="122"><g transform="scale(1) translate(0,0)"><g id="sprotty_ArchitectureBlockImpl$BUFGMUX" transform="translate(12, 12)" class="architecture"><g class="sprotty-block" style="fill:rgb(255, 255, 255);stroke:rgb(48, 48, 48);stroke-dasharray:0px;"><rect x="0" y="0" rx="1" ry="1" width="87" height="112"/><text x="43.5" y="12" class="sprotty-block-name" style="cursor:pointer;font-weight:700;perspective-origin:43.5px 0px;fill:rgb(48, 48, 48);stroke:rgba(0, 0, 0, 0);dominant-baseline:middle;text-anchor:middle;">BUFGMUX</text><line x1="0" y1="20" x2="87" y2="20"/></g><g id="sprotty_ArchitectureBlockImpl$BUFGMUX/BPortImpl$S" transform="translate(0, 94)" class="triangle"><path d="M 0,0 L 5,2.5 L 0,5 Z" transform="translate(-1.67, -2.5)" class="sprotty-port" style="fill:rgb(48, 48, 48);stroke:rgb(48, 48, 48);"/><text class="clickable sprotty-label port" id="sprotty_ArchitectureBlockImpl$BUFGMUX/BPortImpl$S/label" transform="translate(6, -9) translate(3.59375, 14)" style="cursor:default;font-size:12px;perspective-origin:0px 0px;fill:rgb(48, 48, 48);text-anchor:middle;">S</text></g><g id="sprotty_ArchitectureBlockImpl$BUFGMUX/BPortImpl$I1" transform="translate(0, 66)" class="triangle"><path d="M 0,0 L 5,2.5 L 0,5 Z" transform="translate(-1.67, -2.5)" class="sprotty-port" style="fill:rgb(48, 48, 48);stroke:rgb(48, 48, 48);"/><text class="clickable sprotty-label port" id="sprotty_ArchitectureBlockImpl$BUFGMUX/BPortImpl$I1/label" transform="translate(6, -9) translate(5.09375, 14)" style="cursor:default;font-size:12px;perspective-origin:0px 0px;fill:rgb(48, 48, 48);text-anchor:middle;">I1</text></g><g id="sprotty_ArchitectureBlockImpl$BUFGMUX/BPortImpl$I0" transform="translate(0, 38)" class="triangle"><path d="M 0,0 L 5,2.5 L 0,5 Z" transform="translate(-1.67, -2.5)" class="sprotty-port" style="fill:rgb(48, 48, 48);stroke:rgb(48, 48, 48);"/><text class="clickable sprotty-label port" id="sprotty_ArchitectureBlockImpl$BUFGMUX/BPortImpl$I0/label" transform="translate(6, -9) translate(5.09375, 14)" style="cursor:default;font-size:12px;perspective-origin:0.171875px 0px;fill:rgb(48, 48, 48);text-anchor:middle;">I0</text></g><g id="sprotty_ArchitectureBlockImpl$BUFGMUX/BPortImpl$O" transform="translate(87, 66)" class="triangle"><path d="M 0,0 L 5,2.5 L 0,5 Z" transform="translate(-1.67, -2.5)" class="sprotty-port" style="fill:rgb(48, 48, 48);stroke:rgb(48, 48, 48);"/><text class="clickable sprotty-label port" id="sprotty_ArchitectureBlockImpl$BUFGMUX/BPortImpl$O/label" transform="translate(-15.015625, -9) translate(4.453125, 14)" style="cursor:default;font-size:12px;perspective-origin:0.046875px 0px;fill:rgb(48, 48, 48);text-anchor:middle;">O</text></g></g></g></svg>