<svg xmlns="http://www.w3.org/2000/svg" id="sprotty_work.io_clk" class="sprotty-graph sprotty-block-diagram blockdiagram" style="font-family:&quot;Noto Sans&quot;, Helvetica, Arial, sans-serif;perspective-origin:0px 0px;transform-origin:0px 0px;" version="1.1" viewBox="7 7 538.046875 211" width="538.046875" height="211"><g transform="scale(1) translate(0,0)"><g id="sprotty_ArchitectureBlockImpl$io_clk" transform="translate(12, 12)" class="architecture"><g class="sprotty-block" style="fill:rgb(255, 255, 255);stroke:rgb(48, 48, 48);stroke-dasharray:0px;"><rect x="0" y="0" rx="1" ry="1" width="528.046875" height="201"/><text x="264.0234375" y="12" class="sprotty-block-name" style="cursor:pointer;font-weight:700;perspective-origin:264.188px 0px;fill:rgb(48, 48, 48);stroke:rgba(0, 0, 0, 0);dominant-baseline:middle;text-anchor:middle;">io_clk</text><line x1="0" y1="20" x2="528.046875" y2="20"/></g><g id="sprotty_ArchitectureBlockImpl$io_clk/AssignmentBlockImpl$clk_src_io_o/GPortImpl$clk_src_io_oOUT_to_ArchitectureBlockImpl$io_clk/BPortImpl$clk_src_io_o" class="sprotty-edge edge" style="fill:none;stroke:rgb(112, 112, 112);stroke-linejoin:round;"><g><path d="M 399.1796875 46 L 528.046875 46 "/><path d="M 399.1796875 46 L 528.046875 46 " class="clickable"/></g></g><g id="sprotty_ArchitectureBlockImpl$io_clk/AlwaysBlockImpl$null6/GPortImpl$clk_src_io_val_oOUT_to_ArchitectureBlockImpl$io_clk/BPortImpl$clk_src_io_val_o" class="sprotty-edge edge" style="fill:none;stroke:rgb(112, 112, 112);stroke-linejoin:round;"><g><path d="M 413.765625 88 L 528.046875 88 "/><path d="M 413.765625 88 L 528.046875 88 " class="clickable"/></g></g><g id="sprotty_ArchitectureBlockImpl$io_clk/BPortImpl$vcore_pok_h_i_to_ArchitectureBlockImpl$io_clk/InstantiationBlockImpl$u_io_osc/BPortImpl$vcore_pok_h_i" class="sprotty-edge edge" style="fill:none;stroke:rgb(112, 112, 112);stroke-linejoin:round;"><g><path d="M 0 39 L 155.8125 39 C 156.8125 39 157.8125 40 157.8125 41 L 157.8125 72 C 157.8125 73 158.8125 74 159.8125 74 L 167.8125 74 "/><path d="M 0 39 L 155.8125 39 C 156.8125 39 157.8125 40 157.8125 41 L 157.8125 72 C 157.8125 73 158.8125 74 159.8125 74 L 167.8125 74 " class="clickable"/></g></g><g id="sprotty_ArchitectureBlockImpl$io_clk/BPortImpl$rst_io_clk_ni_to_ArchitectureBlockImpl$io_clk/AssignmentBlockImpl$rst_n/GPortImpl$rst_io_clk_niIN" class="sprotty-edge edge" style="fill:none;stroke:rgb(112, 112, 112);stroke-linejoin:round;"><g><path d="M 0 162 L 92.96875 162 "/><path d="M 0 162 L 92.96875 162 " class="clickable"/></g></g><g id="sprotty_ArchitectureBlockImpl$io_clk/BPortImpl$clk_src_io_en_i_to_ArchitectureBlockImpl$io_clk/AssignmentBlockImpl$io_clk_en/GPortImpl$clk_src_io_en_iIN" class="sprotty-edge edge" style="fill:none;stroke:rgb(112, 112, 112);stroke-linejoin:round;"><g><path d="M 0 73 L 116.09375 73 C 117.09375 73 118.09375 74 118.09375 75 L 118.09375 95 C 118.09375 96 119.09375 97 120.09375 97 L 128.09375 97 "/><path d="M 0 73 L 116.09375 73 C 117.09375 73 118.09375 74 118.09375 75 L 118.09375 95 C 118.09375 96 119.09375 97 120.09375 97 L 128.09375 97 " class="clickable"/></g></g><g id="sprotty_ArchitectureBlockImpl$io_clk/BPortImpl$clk_io_pd_ni_to_ArchitectureBlockImpl$io_clk/AssignmentBlockImpl$io_clk_en/GPortImpl$clk_io_pd_niIN" class="sprotty-edge edge" style="fill:none;stroke:rgb(112, 112, 112);stroke-linejoin:round;"><g><path d="M 0 107 L 128.09375 107 "/><path d="M 0 107 L 128.09375 107 " class="clickable"/></g></g><g id="sprotty_ArchitectureBlockImpl$io_clk/InstantiationBlockImpl$u_io_osc/BPortImpl$io_clk_o_to_ArchitectureBlockImpl$io_clk/AssignmentBlockImpl$clk_src_io_o/GPortImpl$clkIN" class="sprotty-edge edge" style="fill:none;stroke:rgb(112, 112, 112);stroke-linejoin:round;"><g><path d="M 344.875 88 L 352.875 88 C 353.875 88 354.875 87 354.875 86 L 354.875 48 C 354.875 47 355.875 46 356.875 46 L 379.4609375 46 "/><path d="M 344.875 88 L 352.875 88 C 353.875 88 354.875 87 354.875 86 L 354.875 48 C 354.875 47 355.875 46 356.875 46 L 379.4609375 46 " class="clickable"/></g><circle r="2" id="sprotty_ArchitectureBlockImpl$io_clk/InstantiationBlockImpl$u_io_osc/BPortImpl$io_clk_o_to_ArchitectureBlockImpl$io_clk/AssignmentBlockImpl$clk_src_io_o/GPortImpl$clkIN/junction0" transform="translate(354.875, 88)" class="sprotty-junction junction" style="fill:rgb(112, 112, 112);stroke:none;"/></g><g id="sprotty_ArchitectureBlockImpl$io_clk/InstantiationBlockImpl$u_io_osc/BPortImpl$io_clk_o_to_ArchitectureBlockImpl$io_clk/AlwaysBlockImpl$null6/GPortImpl$clkIN" class="sprotty-edge edge" style="fill:none;stroke:rgb(112, 112, 112);stroke-linejoin:round;"><g><path d="M 344.875 88 L 364.875 88 "/><path d="M 344.875 88 L 364.875 88 " class="clickable"/></g></g><g id="sprotty_ArchitectureBlockImpl$io_clk/AssignmentBlockImpl$io_clk_en/GPortImpl$io_clk_enOUT_to_ArchitectureBlockImpl$io_clk/InstantiationBlockImpl$u_io_osc/BPortImpl$io_en_i" class="sprotty-edge edge" style="fill:none;stroke:rgb(112, 112, 112);stroke-linejoin:round;"><g><path d="M 147.8125 102 L 167.8125 102 "/><path d="M 147.8125 102 L 167.8125 102 " class="clickable"/></g></g><g id="sprotty_ArchitectureBlockImpl$io_clk/AlwaysBlockImpl$null6" transform="translate(364.875, 77)" class="statement"><rect x="0" y="0" rx="10" ry="5" width="48.890625" height="22" class="sprotty-node" style="fill:rgb(245, 245, 245);stroke:rgb(112, 112, 112);"/><text class="clickable sprotty-label statementtype" id="sprotty_ArchitectureBlockImpl$io_clk/AlwaysBlockImpl$null6/labeltype" transform="translate(5, 5) translate(18.828125, 9)" style="cursor:default;font-size:8px;font-weight:700;perspective-origin:0.609375px 0px;fill:rgb(112, 112, 112);text-anchor:middle;">always_ff</text><g id="sprotty_ArchitectureBlockImpl$io_clk/AlwaysBlockImpl$null6/GPortImpl$clkIN" transform="translate(0, 11)" class="sprotty-hidden hidden" style="display:block;height:0px;width:0px;"/><g id="sprotty_ArchitectureBlockImpl$io_clk/AlwaysBlockImpl$null6/GPortImpl$clk_src_io_val_oOUT" transform="translate(48.890625, 11)" class="sprotty-hidden hidden" style="display:block;height:0px;width:0px;"/></g><g id="sprotty_ArchitectureBlockImpl$io_clk/AssignmentBlockImpl$clk_src_io_o" transform="translate(379.4609375, 35)" class="statement"><rect x="0" y="0" rx="10" ry="5" width="19.71875" height="22" class="sprotty-node" style="fill:rgb(245, 245, 245);stroke:rgb(112, 112, 112);"/><text class="clickable sprotty-label statementtype" id="sprotty_ArchitectureBlockImpl$io_clk/AssignmentBlockImpl$clk_src_io_o/labeltype" transform="translate(5, 5) translate(4.71875, 9)" style="cursor:default;font-size:8px;font-weight:700;perspective-origin:0.140625px 0px;fill:rgb(112, 112, 112);text-anchor:middle;">&lt;=</text><g id="sprotty_ArchitectureBlockImpl$io_clk/AssignmentBlockImpl$clk_src_io_o/GPortImpl$clkIN" transform="translate(0, 11)" class="sprotty-hidden hidden" style="display:block;height:0px;width:0px;"/><g id="sprotty_ArchitectureBlockImpl$io_clk/AssignmentBlockImpl$clk_src_io_o/GPortImpl$clk_src_io_oOUT" transform="translate(19.71875, 11)" class="sprotty-hidden hidden" style="display:block;height:0px;width:0px;"/></g><g id="sprotty_ArchitectureBlockImpl$io_clk/AssignmentBlockImpl$io_clk_en" transform="translate(128.09375, 87)" class="statement"><rect x="0" y="0" rx="10" ry="5" width="19.71875" height="30" class="sprotty-node" style="fill:rgb(245, 245, 245);stroke:rgb(112, 112, 112);"/><text class="clickable sprotty-label statementtype" id="sprotty_ArchitectureBlockImpl$io_clk/AssignmentBlockImpl$io_clk_en/labeltype" transform="translate(5, 9) translate(4.71875, 9)" style="cursor:default;font-size:8px;font-weight:700;perspective-origin:0.140625px 0px;fill:rgb(112, 112, 112);text-anchor:middle;">&lt;=</text><g id="sprotty_ArchitectureBlockImpl$io_clk/AssignmentBlockImpl$io_clk_en/GPortImpl$clk_io_pd_niIN" transform="translate(0, 20)" class="sprotty-hidden hidden" style="display:block;height:0px;width:0px;"/><g id="sprotty_ArchitectureBlockImpl$io_clk/AssignmentBlockImpl$io_clk_en/GPortImpl$clk_src_io_en_iIN" transform="translate(0, 10)" class="sprotty-hidden hidden" style="display:block;height:0px;width:0px;"/><g id="sprotty_ArchitectureBlockImpl$io_clk/AssignmentBlockImpl$io_clk_en/GPortImpl$io_clk_enOUT" transform="translate(19.71875, 15)" class="sprotty-hidden hidden" style="display:block;height:0px;width:0px;"/></g><g id="sprotty_ArchitectureBlockImpl$io_clk/AssignmentBlockImpl$rst_n" transform="translate(92.96875, 151)" class="statement"><rect x="0" y="0" rx="10" ry="5" width="19.71875" height="22" class="sprotty-node" style="fill:rgb(245, 245, 245);stroke:rgb(112, 112, 112);"/><text class="clickable sprotty-label statementtype" id="sprotty_ArchitectureBlockImpl$io_clk/AssignmentBlockImpl$rst_n/labeltype" transform="translate(5, 5) translate(4.71875, 9)" style="cursor:default;font-size:8px;font-weight:700;perspective-origin:0.140625px 0px;fill:rgb(112, 112, 112);text-anchor:middle;">&lt;=</text><g id="sprotty_ArchitectureBlockImpl$io_clk/AssignmentBlockImpl$rst_n/GPortImpl$rst_io_clk_niIN" transform="translate(0, 11)" class="sprotty-hidden hidden" style="display:block;height:0px;width:0px;"/></g><g id="sprotty_ArchitectureBlockImpl$io_clk/InstantiationBlockImpl$u_io_osc" transform="translate(167.8125, 36)" class="instantiation"><g class="sprotty-block" style="fill:rgb(255, 255, 255);stroke:rgb(48, 48, 48);stroke-dasharray:0px;"><rect x="0" y="0" rx="1" ry="1" width="177.0625" height="84"/><text x="88.53125" y="12" class="sprotty-block-name" style="cursor:pointer;font-weight:700;perspective-origin:88.5312px 0px;fill:rgb(48, 48, 48);stroke:rgba(0, 0, 0, 0);dominant-baseline:middle;text-anchor:middle;">u_io_osc : io_osc</text><line x1="0" y1="20" x2="177.0625" y2="20"/></g><g id="sprotty_ArchitectureBlockImpl$io_clk/InstantiationBlockImpl$u_io_osc/BPortImpl$io_en_i" transform="translate(0, 66)" class="triangle"><path d="M 0,0 L 5,2.5 L 0,5 Z" transform="translate(-1.67, -2.5)" class="sprotty-port" style="fill:rgb(48, 48, 48);stroke:rgb(48, 48, 48);"/><text class="clickable sprotty-label port" id="sprotty_ArchitectureBlockImpl$io_clk/InstantiationBlockImpl$u_io_osc/BPortImpl$io_en_i/label" transform="translate(6, -9) translate(20.640625, 14)" style="cursor:default;font-size:12px;perspective-origin:0px 0px;fill:rgb(48, 48, 48);text-anchor:middle;">io_en_i</text></g><g id="sprotty_ArchitectureBlockImpl$io_clk/InstantiationBlockImpl$u_io_osc/BPortImpl$vcore_pok_h_i" transform="translate(0, 38)" class="triangle"><path d="M 0,0 L 5,2.5 L 0,5 Z" transform="translate(-1.67, -2.5)" class="sprotty-port" style="fill:rgb(48, 48, 48);stroke:rgb(48, 48, 48);"/><text class="clickable sprotty-label port" id="sprotty_ArchitectureBlockImpl$io_clk/InstantiationBlockImpl$u_io_osc/BPortImpl$vcore_pok_h_i/label" transform="translate(6, -9) translate(41.265625, 14)" style="cursor:default;font-size:12px;perspective-origin:0px 0px;fill:rgb(48, 48, 48);text-anchor:middle;">vcore_pok_h_i</text></g><g id="sprotty_ArchitectureBlockImpl$io_clk/InstantiationBlockImpl$u_io_osc/BPortImpl$io_clk_o" transform="translate(177.0625, 52)" class="triangle"><path d="M 0,0 L 5,2.5 L 0,5 Z" transform="translate(-1.67, -2.5)" class="sprotty-port" style="fill:rgb(48, 48, 48);stroke:rgb(48, 48, 48);"/><text class="clickable sprotty-label port" id="sprotty_ArchitectureBlockImpl$io_clk/InstantiationBlockImpl$u_io_osc/BPortImpl$io_clk_o/label" transform="translate(-53.4375, -9) translate(23.71875, 14)" style="cursor:default;font-size:12px;perspective-origin:0px 0px;fill:rgb(48, 48, 48);text-anchor:middle;">io_clk_o</text></g></g><g id="sprotty_ArchitectureBlockImpl$io_clk/BPortImpl$vcore_pok_h_i" transform="translate(0, 39)" class="triangle"><path d="M 0,0 L 5,2.5 L 0,5 Z" transform="translate(-1.67, -2.5)" class="sprotty-port" style="fill:rgb(48, 48, 48);stroke:rgb(48, 48, 48);"/><text class="clickable sprotty-label port" id="sprotty_ArchitectureBlockImpl$io_clk/BPortImpl$vcore_pok_h_i/label" transform="translate(6, 6) translate(41.265625, 14)" style="cursor:default;font-size:12px;perspective-origin:0px 0px;fill:rgb(48, 48, 48);text-anchor:middle;">vcore_pok_h_i</text></g><g id="sprotty_ArchitectureBlockImpl$io_clk/BPortImpl$rst_io_clk_ni" transform="translate(0, 162)" class="triangle"><path d="M 0,0 L 5,2.5 L 0,5 Z" transform="translate(-1.67, -2.5)" class="sprotty-port" style="fill:rgb(48, 48, 48);stroke:rgb(48, 48, 48);"/><text class="clickable sprotty-label port" id="sprotty_ArchitectureBlockImpl$io_clk/BPortImpl$rst_io_clk_ni/label" transform="translate(6, 6) translate(35.984375, 14)" style="cursor:default;font-size:12px;perspective-origin:0px 0px;fill:rgb(48, 48, 48);text-anchor:middle;">rst_io_clk_ni</text></g><g id="sprotty_ArchitectureBlockImpl$io_clk/BPortImpl$clk_io_pd_ni" transform="translate(0, 107)" class="triangle"><path d="M 0,0 L 5,2.5 L 0,5 Z" transform="translate(-1.67, -2.5)" class="sprotty-port" style="fill:rgb(48, 48, 48);stroke:rgb(48, 48, 48);"/><text class="clickable sprotty-label port" id="sprotty_ArchitectureBlockImpl$io_clk/BPortImpl$clk_io_pd_ni/label" transform="translate(6, 6) translate(36.1875, 14)" style="cursor:default;font-size:12px;perspective-origin:0px 0px;fill:rgb(48, 48, 48);text-anchor:middle;">clk_io_pd_ni</text></g><g id="sprotty_ArchitectureBlockImpl$io_clk/BPortImpl$clk_src_io_en_i" transform="translate(0, 73)" class="triangle"><path d="M 0,0 L 5,2.5 L 0,5 Z" transform="translate(-1.67, -2.5)" class="sprotty-port" style="fill:rgb(48, 48, 48);stroke:rgb(48, 48, 48);"/><text class="clickable sprotty-label port" id="sprotty_ArchitectureBlockImpl$io_clk/BPortImpl$clk_src_io_en_i/label" transform="translate(6, 6) translate(43.546875, 14)" style="cursor:default;font-size:12px;perspective-origin:0px 0px;fill:rgb(48, 48, 48);text-anchor:middle;">clk_src_io_en_i</text></g><g id="sprotty_ArchitectureBlockImpl$io_clk/BPortImpl$clk_src_io_o" transform="translate(528.046875, 46)" class="triangle"><path d="M 0,0 L 5,2.5 L 0,5 Z" transform="translate(-1.67, -2.5)" class="sprotty-port" style="fill:rgb(48, 48, 48);stroke:rgb(48, 48, 48);"/><text class="clickable sprotty-label port" id="sprotty_ArchitectureBlockImpl$io_clk/BPortImpl$clk_src_io_o/label" transform="translate(-76.375, 6) translate(35.1875, 14)" style="cursor:default;font-size:12px;perspective-origin:0px 0px;fill:rgb(48, 48, 48);text-anchor:middle;">clk_src_io_o</text></g><g id="sprotty_ArchitectureBlockImpl$io_clk/BPortImpl$clk_src_io_val_o" transform="translate(528.046875, 88)" class="triangle"><path d="M 0,0 L 5,2.5 L 0,5 Z" transform="translate(-1.67, -2.5)" class="sprotty-port" style="fill:rgb(48, 48, 48);stroke:rgb(48, 48, 48);"/><text class="clickable sprotty-label port" id="sprotty_ArchitectureBlockImpl$io_clk/BPortImpl$clk_src_io_val_o/label" transform="translate(-99.28125, 6) translate(46.640625, 14)" style="cursor:default;font-size:12px;perspective-origin:0px 0px;fill:rgb(48, 48, 48);text-anchor:middle;">clk_src_io_val_o</text></g></g></g></svg>