<svg xmlns="http://www.w3.org/2000/svg" id="sprotty_work.prim_xilinx_pad_wrapper" class="sprotty-graph sprotty-block-diagram blockdiagram" style="font-family:&quot;Noto Sans&quot;, Helvetica, Arial, sans-serif;perspective-origin:0px 0px;transform-origin:0px 0px;" version="1.1" viewBox="7 7 488.0625 504" width="488.0625" height="504"><g transform="scale(1) translate(0,0)"><g id="sprotty_ArchitectureBlockImpl$prim_xilinx_pad_wrapper" transform="translate(12, 12)" class="architecture"><g class="sprotty-block" style="fill:rgb(255, 255, 255);stroke:rgb(48, 48, 48);stroke-dasharray:0px;"><rect x="0" y="0" rx="1" ry="1" width="478.0625" height="494"/><text x="239.03125" y="12" class="sprotty-block-name" style="cursor:pointer;font-weight:700;perspective-origin:239.031px 0px;fill:rgb(48, 48, 48);stroke:rgba(0, 0, 0, 0);dominant-baseline:middle;text-anchor:middle;">prim_xilinx_pad_wrapper</text><line x1="0" y1="20" x2="478.0625" y2="20"/></g><g id="sprotty_ArchitectureBlockImpl$prim_xilinx_pad_wrapper/GenerateStatementBlockImpl$null7/GPortImpl$inout_io_to_ArchitectureBlockImpl$prim_xilinx_pad_wrapper/BPortImpl$inout_io" class="sprotty-edge edge" style="fill:none;stroke:rgb(112, 112, 112);stroke-linejoin:round;"><g><path d="M 412.4375 134 L 420.4375 134 C 421.4375 134 422.4375 135 422.4375 136 L 422.4375 321 C 422.4375 322 421.4375 323 420.4375 323 L 0 323 "/><path d="M 412.4375 134 L 420.4375 134 C 421.4375 134 422.4375 135 422.4375 136 L 422.4375 321 C 422.4375 322 421.4375 323 420.4375 323 L 0 323 " class="clickable"/></g></g><g id="sprotty_ArchitectureBlockImpl$prim_xilinx_pad_wrapper/GenerateStatementBlockImpl$null7/GPortImpl$in_o_to_ArchitectureBlockImpl$prim_xilinx_pad_wrapper/BPortImpl$in_o" class="sprotty-edge edge" style="fill:none;stroke:rgb(112, 112, 112);stroke-linejoin:round;"><g><path d="M 412.4375 61 L 478.0625 61 "/><path d="M 412.4375 61 L 478.0625 61 " class="clickable"/></g></g><g id="sprotty_ArchitectureBlockImpl$prim_xilinx_pad_wrapper/BPortImpl$inout_io_to_ArchitectureBlockImpl$prim_xilinx_pad_wrapper/GenerateStatementBlockImpl$null7/GPortImpl$inout_io" class="sprotty-edge edge" style="fill:none;stroke:rgb(112, 112, 112);stroke-linejoin:round;"><g><path d="M 0 323 L 420.4375 323 C 421.4375 323 422.4375 322 422.4375 321 L 422.4375 136 C 422.4375 135 421.4375 134 420.4375 134 L 412.4375 134 "/><path d="M 0 323 L 420.4375 323 C 421.4375 323 422.4375 322 422.4375 321 L 422.4375 136 C 422.4375 135 421.4375 134 420.4375 134 L 412.4375 134 " class="clickable"/></g></g><g id="sprotty_ArchitectureBlockImpl$prim_xilinx_pad_wrapper/BPortImpl$ie_i_to_ArchitectureBlockImpl$prim_xilinx_pad_wrapper/GenerateStatementBlockImpl$null7/GPortImpl$ie_i" class="sprotty-edge edge" style="fill:none;stroke:rgb(112, 112, 112);stroke-linejoin:round;"><g><path d="M 0 103 L 68 103 "/><path d="M 0 103 L 68 103 " class="clickable"/></g></g><g id="sprotty_ArchitectureBlockImpl$prim_xilinx_pad_wrapper/GenerateStatementBlockImpl$null7" transform="translate(68, 35)" class="generate"><g class="sprotty-block sprotty-block-generate" style="fill:rgb(255, 255, 255);stroke:rgb(48, 48, 48);stroke-dasharray:0px;"><rect x="0" y="0" rx="1" ry="1" width="344.4375" height="278" style="stroke-dasharray:3px, 1px;"/><text x="172.21875" y="12" class="sprotty-block-name" style="cursor:pointer;font-weight:700;fill:rgb(48, 48, 48);stroke:rgba(0, 0, 0, 0);dominant-baseline:middle;text-anchor:middle;"/>undefined</g><g id="sprotty_ArchitectureBlockImpl$prim_xilinx_pad_wrapper/GenerateStatementBlockImpl$null7/AssignmentBlockImpl$inout_io/GPortImpl$inout_ioOUT_to_ArchitectureBlockImpl$prim_xilinx_pad_wrapper/GenerateStatementBlockImpl$null7/GPortImpl$inout_io" class="sprotty-edge edge" style="fill:none;stroke:rgb(112, 112, 112);stroke-linejoin:round;"><g><path d="M 309.4375 252 L 317.4375 252 C 318.4375 252 319.4375 251 319.4375 250 L 319.4375 101 C 319.4375 100 320.4375 99 321.4375 99 L 344.4375 99 "/><path d="M 309.4375 252 L 317.4375 252 C 318.4375 252 319.4375 251 319.4375 250 L 319.4375 101 C 319.4375 100 320.4375 99 321.4375 99 L 344.4375 99 " class="clickable"/></g><circle r="2" id="sprotty_ArchitectureBlockImpl$prim_xilinx_pad_wrapper/GenerateStatementBlockImpl$null7/AssignmentBlockImpl$inout_io/GPortImpl$inout_ioOUT_to_ArchitectureBlockImpl$prim_xilinx_pad_wrapper/GenerateStatementBlockImpl$null7/GPortImpl$inout_io/junction0" transform="translate(319.4375, 99)" class="sprotty-junction junction" style="fill:rgb(112, 112, 112);stroke:none;"/></g><g id="sprotty_ArchitectureBlockImpl$prim_xilinx_pad_wrapper/GenerateStatementBlockImpl$null7/InstantiationBlockImpl$i_iobuf/BPortImpl$IO_to_ArchitectureBlockImpl$prim_xilinx_pad_wrapper/GenerateStatementBlockImpl$null7/GPortImpl$inout_io" class="sprotty-edge edge" style="fill:none;stroke:rgb(112, 112, 112);stroke-linejoin:round;"><g><path d="M 183.875 147 L 175.875 147 C 174.875 147 173.875 146 173.875 145 L 173.875 101 C 173.875 100 174.875 99 175.875 99 L 344.4375 99 "/><path d="M 183.875 147 L 175.875 147 C 174.875 147 173.875 146 173.875 145 L 173.875 101 C 173.875 100 174.875 99 175.875 99 L 344.4375 99 " class="clickable"/></g></g><g id="sprotty_ArchitectureBlockImpl$prim_xilinx_pad_wrapper/GenerateStatementBlockImpl$null7/AssignmentBlockImpl$in_o1/GPortImpl$in_oOUT_to_ArchitectureBlockImpl$prim_xilinx_pad_wrapper/GenerateStatementBlockImpl$null7/GPortImpl$in_o" class="sprotty-edge edge" style="fill:none;stroke:rgb(112, 112, 112);stroke-linejoin:round;"><g><path d="M 34.71875 26 L 344.4375 26 "/><path d="M 34.71875 26 L 344.4375 26 " class="clickable"/></g></g><g id="sprotty_ArchitectureBlockImpl$prim_xilinx_pad_wrapper/GenerateStatementBlockImpl$null7/AssignmentBlockImpl$in_o/GPortImpl$in_oOUT_to_ArchitectureBlockImpl$prim_xilinx_pad_wrapper/GenerateStatementBlockImpl$null7/GPortImpl$in_o" class="sprotty-edge edge" style="fill:none;stroke:rgb(112, 112, 112);stroke-linejoin:round;"><g><path d="M 34.71875 68 L 42.71875 68 C 43.71875 68 44.71875 67 44.71875 66 L 44.71875 28 C 44.71875 27 45.71875 26 46.71875 26 L 344.4375 26 "/><path d="M 34.71875 68 L 42.71875 68 C 43.71875 68 44.71875 67 44.71875 66 L 44.71875 28 C 44.71875 27 45.71875 26 46.71875 26 L 344.4375 26 " class="clickable"/></g><circle r="2" id="sprotty_ArchitectureBlockImpl$prim_xilinx_pad_wrapper/GenerateStatementBlockImpl$null7/AssignmentBlockImpl$in_o/GPortImpl$in_oOUT_to_ArchitectureBlockImpl$prim_xilinx_pad_wrapper/GenerateStatementBlockImpl$null7/GPortImpl$in_o/junction0" transform="translate(44.71875, 26)" class="sprotty-junction junction" style="fill:rgb(112, 112, 112);stroke:none;"/></g><g id="sprotty_ArchitectureBlockImpl$prim_xilinx_pad_wrapper/GenerateStatementBlockImpl$null7/GPortImpl$inout_io_to_ArchitectureBlockImpl$prim_xilinx_pad_wrapper/GenerateStatementBlockImpl$null7/InstantiationBlockImpl$i_iobuf/BPortImpl$IO" class="sprotty-edge edge" style="fill:none;stroke:rgb(112, 112, 112);stroke-linejoin:round;"><g><path d="M 344.4375 99 L 175.875 99 C 174.875 99 173.875 100 173.875 101 L 173.875 145 C 173.875 146 174.875 147 175.875 147 L 183.875 147 "/><path d="M 344.4375 99 L 175.875 99 C 174.875 99 173.875 100 173.875 101 L 173.875 145 C 173.875 146 174.875 147 175.875 147 L 183.875 147 " class="clickable"/></g></g><g id="sprotty_ArchitectureBlockImpl$prim_xilinx_pad_wrapper/GenerateStatementBlockImpl$null7/GPortImpl$ie_i_to_ArchitectureBlockImpl$prim_xilinx_pad_wrapper/GenerateStatementBlockImpl$null7/AssignmentBlockImpl$in_o/GPortImpl$ie_iIN" class="sprotty-edge edge" style="fill:none;stroke:rgb(112, 112, 112);stroke-linejoin:round;"><g><path d="M 0 68 L 15 68 "/><path d="M 0 68 L 15 68 " class="clickable"/></g></g><g id="sprotty_ArchitectureBlockImpl$prim_xilinx_pad_wrapper/GenerateStatementBlockImpl$null7/GenerateStatementBlockImpl$null3" transform="translate(15, 99)" class="generate"><g class="sprotty-block sprotty-block-generate" style="fill:rgb(255, 255, 255);stroke:rgb(48, 48, 48);stroke-dasharray:0px;"><rect x="0" y="0" rx="1" ry="1" width="80" height="52" style="stroke-dasharray:3px, 1px;"/><text x="40" y="12" class="sprotty-block-name" style="cursor:pointer;font-weight:700;fill:rgb(48, 48, 48);stroke:rgba(0, 0, 0, 0);dominant-baseline:middle;text-anchor:middle;"/>undefined</g><g id="sprotty_ArchitectureBlockImpl$prim_xilinx_pad_wrapper/GenerateStatementBlockImpl$null7/GenerateStatementBlockImpl$null3/AssignmentBlockImpl$unused_attr" transform="translate(15, 15)" class="statement"><rect x="0" y="0" rx="10" ry="5" width="19.71875" height="22" class="sprotty-node" style="fill:rgb(245, 245, 245);stroke:rgb(112, 112, 112);"/><text class="clickable sprotty-label statementtype" id="sprotty_ArchitectureBlockImpl$prim_xilinx_pad_wrapper/GenerateStatementBlockImpl$null7/GenerateStatementBlockImpl$null3/AssignmentBlockImpl$unused_attr/labeltype" transform="translate(5, 5) translate(4.71875, 9)" style="cursor:default;font-size:8px;font-weight:700;perspective-origin:0.140625px 0px;fill:rgb(112, 112, 112);text-anchor:middle;">&lt;=</text></g></g><g id="sprotty_ArchitectureBlockImpl$prim_xilinx_pad_wrapper/GenerateStatementBlockImpl$null7/AssignmentBlockImpl$oe_n" transform="translate(115, 99)" class="statement"><rect x="0" y="0" rx="10" ry="5" width="19.71875" height="22" class="sprotty-node" style="fill:rgb(245, 245, 245);stroke:rgb(112, 112, 112);"/><text class="clickable sprotty-label statementtype" id="sprotty_ArchitectureBlockImpl$prim_xilinx_pad_wrapper/GenerateStatementBlockImpl$null7/AssignmentBlockImpl$oe_n/labeltype" transform="translate(5, 5) translate(4.71875, 9)" style="cursor:default;font-size:8px;font-weight:700;perspective-origin:0.140625px 0px;fill:rgb(112, 112, 112);text-anchor:middle;">&lt;=</text></g><g id="sprotty_ArchitectureBlockImpl$prim_xilinx_pad_wrapper/GenerateStatementBlockImpl$null7/AssignmentBlockImpl$out" transform="translate(15, 171)" class="statement"><rect x="0" y="0" rx="10" ry="5" width="19.71875" height="22" class="sprotty-node" style="fill:rgb(245, 245, 245);stroke:rgb(112, 112, 112);"/><text class="clickable sprotty-label statementtype" id="sprotty_ArchitectureBlockImpl$prim_xilinx_pad_wrapper/GenerateStatementBlockImpl$null7/AssignmentBlockImpl$out/labeltype" transform="translate(5, 5) translate(4.71875, 9)" style="cursor:default;font-size:8px;font-weight:700;perspective-origin:0.140625px 0px;fill:rgb(112, 112, 112);text-anchor:middle;">&lt;=</text></g><g id="sprotty_ArchitectureBlockImpl$prim_xilinx_pad_wrapper/GenerateStatementBlockImpl$null7/AssignmentBlockImpl$in_o" transform="translate(15, 57)" class="statement"><rect x="0" y="0" rx="10" ry="5" width="19.71875" height="22" class="sprotty-node" style="fill:rgb(245, 245, 245);stroke:rgb(112, 112, 112);"/><text class="clickable sprotty-label statementtype" id="sprotty_ArchitectureBlockImpl$prim_xilinx_pad_wrapper/GenerateStatementBlockImpl$null7/AssignmentBlockImpl$in_o/labeltype" transform="translate(5, 5) translate(4.71875, 9)" style="cursor:default;font-size:8px;font-weight:700;perspective-origin:0.140625px 0px;fill:rgb(112, 112, 112);text-anchor:middle;">&lt;=</text><g id="sprotty_ArchitectureBlockImpl$prim_xilinx_pad_wrapper/GenerateStatementBlockImpl$null7/AssignmentBlockImpl$in_o/GPortImpl$ie_iIN" transform="translate(0, 11)" class="sprotty-hidden hidden" style="display:block;height:0px;width:0px;"/><g id="sprotty_ArchitectureBlockImpl$prim_xilinx_pad_wrapper/GenerateStatementBlockImpl$null7/AssignmentBlockImpl$in_o/GPortImpl$in_oOUT" transform="translate(19.71875, 11)" class="sprotty-hidden hidden" style="display:block;height:0px;width:0px;"/></g><g id="sprotty_ArchitectureBlockImpl$prim_xilinx_pad_wrapper/GenerateStatementBlockImpl$null7/AssignmentBlockImpl${od, inv}" transform="translate(54.71875, 171)" class="statement"><rect x="0" y="0" rx="10" ry="5" width="19.71875" height="22" class="sprotty-node" style="fill:rgb(245, 245, 245);stroke:rgb(112, 112, 112);"/><text class="clickable sprotty-label statementtype" id="sprotty_ArchitectureBlockImpl$prim_xilinx_pad_wrapper/GenerateStatementBlockImpl$null7/AssignmentBlockImpl${od, inv}/labeltype" transform="translate(5, 5) translate(4.71875, 9)" style="cursor:default;font-size:8px;font-weight:700;perspective-origin:0.140625px 0px;fill:rgb(112, 112, 112);text-anchor:middle;">&lt;=</text></g><g id="sprotty_ArchitectureBlockImpl$prim_xilinx_pad_wrapper/GenerateStatementBlockImpl$null7/AssignmentBlockImpl$unused_inout" transform="translate(94.4375, 171)" class="statement"><rect x="0" y="0" rx="10" ry="5" width="19.71875" height="22" class="sprotty-node" style="fill:rgb(245, 245, 245);stroke:rgb(112, 112, 112);"/><text class="clickable sprotty-label statementtype" id="sprotty_ArchitectureBlockImpl$prim_xilinx_pad_wrapper/GenerateStatementBlockImpl$null7/AssignmentBlockImpl$unused_inout/labeltype" transform="translate(5, 5) translate(4.71875, 9)" style="cursor:default;font-size:8px;font-weight:700;perspective-origin:0.140625px 0px;fill:rgb(112, 112, 112);text-anchor:middle;">&lt;=</text></g><g id="sprotty_ArchitectureBlockImpl$prim_xilinx_pad_wrapper/GenerateStatementBlockImpl$null7/AssignmentBlockImpl$unused_attr" transform="translate(134.15625, 171)" class="statement"><rect x="0" y="0" rx="10" ry="5" width="19.71875" height="22" class="sprotty-node" style="fill:rgb(245, 245, 245);stroke:rgb(112, 112, 112);"/><text class="clickable sprotty-label statementtype" id="sprotty_ArchitectureBlockImpl$prim_xilinx_pad_wrapper/GenerateStatementBlockImpl$null7/AssignmentBlockImpl$unused_attr/labeltype" transform="translate(5, 5) translate(4.71875, 9)" style="cursor:default;font-size:8px;font-weight:700;perspective-origin:0.140625px 0px;fill:rgb(112, 112, 112);text-anchor:middle;">&lt;=</text></g><g id="sprotty_ArchitectureBlockImpl$prim_xilinx_pad_wrapper/GenerateStatementBlockImpl$null7/AssignmentBlockImpl$unused_out" transform="translate(15, 213)" class="statement"><rect x="0" y="0" rx="10" ry="5" width="19.71875" height="22" class="sprotty-node" style="fill:rgb(245, 245, 245);stroke:rgb(112, 112, 112);"/><text class="clickable sprotty-label statementtype" id="sprotty_ArchitectureBlockImpl$prim_xilinx_pad_wrapper/GenerateStatementBlockImpl$null7/AssignmentBlockImpl$unused_out/labeltype" transform="translate(5, 5) translate(4.71875, 9)" style="cursor:default;font-size:8px;font-weight:700;perspective-origin:0.140625px 0px;fill:rgb(112, 112, 112);text-anchor:middle;">&lt;=</text></g><g id="sprotty_ArchitectureBlockImpl$prim_xilinx_pad_wrapper/GenerateStatementBlockImpl$null7/AssignmentBlockImpl$unused_oe" transform="translate(54.71875, 213)" class="statement"><rect x="0" y="0" rx="10" ry="5" width="19.71875" height="22" class="sprotty-node" style="fill:rgb(245, 245, 245);stroke:rgb(112, 112, 112);"/><text class="clickable sprotty-label statementtype" id="sprotty_ArchitectureBlockImpl$prim_xilinx_pad_wrapper/GenerateStatementBlockImpl$null7/AssignmentBlockImpl$unused_oe/labeltype" transform="translate(5, 5) translate(4.71875, 9)" style="cursor:default;font-size:8px;font-weight:700;perspective-origin:0.140625px 0px;fill:rgb(112, 112, 112);text-anchor:middle;">&lt;=</text></g><g id="sprotty_ArchitectureBlockImpl$prim_xilinx_pad_wrapper/GenerateStatementBlockImpl$null7/AssignmentBlockImpl$unused_ie" transform="translate(94.4375, 213)" class="statement"><rect x="0" y="0" rx="10" ry="5" width="19.71875" height="22" class="sprotty-node" style="fill:rgb(245, 245, 245);stroke:rgb(112, 112, 112);"/><text class="clickable sprotty-label statementtype" id="sprotty_ArchitectureBlockImpl$prim_xilinx_pad_wrapper/GenerateStatementBlockImpl$null7/AssignmentBlockImpl$unused_ie/labeltype" transform="translate(5, 5) translate(4.71875, 9)" style="cursor:default;font-size:8px;font-weight:700;perspective-origin:0.140625px 0px;fill:rgb(112, 112, 112);text-anchor:middle;">&lt;=</text></g><g id="sprotty_ArchitectureBlockImpl$prim_xilinx_pad_wrapper/GenerateStatementBlockImpl$null7/AssignmentBlockImpl$in_o1" transform="translate(15, 15)" class="statement"><rect x="0" y="0" rx="10" ry="5" width="19.71875" height="22" class="sprotty-node" style="fill:rgb(245, 245, 245);stroke:rgb(112, 112, 112);"/><text class="clickable sprotty-label statementtype" id="sprotty_ArchitectureBlockImpl$prim_xilinx_pad_wrapper/GenerateStatementBlockImpl$null7/AssignmentBlockImpl$in_o1/labeltype" transform="translate(5, 5) translate(4.71875, 9)" style="cursor:default;font-size:8px;font-weight:700;perspective-origin:0.140625px 0px;fill:rgb(112, 112, 112);text-anchor:middle;">&lt;=</text><g id="sprotty_ArchitectureBlockImpl$prim_xilinx_pad_wrapper/GenerateStatementBlockImpl$null7/AssignmentBlockImpl$in_o1/GPortImpl$in_oOUT" transform="translate(19.71875, 11)" class="sprotty-hidden hidden" style="display:block;height:0px;width:0px;"/></g><g id="sprotty_ArchitectureBlockImpl$prim_xilinx_pad_wrapper/GenerateStatementBlockImpl$null7/AssignmentBlockImpl$inout_io" transform="translate(289.71875, 241)" class="statement"><rect x="0" y="0" rx="10" ry="5" width="19.71875" height="22" class="sprotty-node" style="fill:rgb(245, 245, 245);stroke:rgb(112, 112, 112);"/><text class="clickable sprotty-label statementtype" id="sprotty_ArchitectureBlockImpl$prim_xilinx_pad_wrapper/GenerateStatementBlockImpl$null7/AssignmentBlockImpl$inout_io/labeltype" transform="translate(5, 5) translate(4.71875, 9)" style="cursor:default;font-size:8px;font-weight:700;perspective-origin:0.140625px 0px;fill:rgb(112, 112, 112);text-anchor:middle;">&lt;=</text><g id="sprotty_ArchitectureBlockImpl$prim_xilinx_pad_wrapper/GenerateStatementBlockImpl$null7/AssignmentBlockImpl$inout_io/GPortImpl$inout_ioOUT" transform="translate(19.71875, 11)" class="sprotty-hidden hidden" style="display:block;height:0px;width:0px;"/></g><g id="sprotty_ArchitectureBlockImpl$prim_xilinx_pad_wrapper/GenerateStatementBlockImpl$null7/InstantiationBlockImpl$i_iobuf" transform="translate(183.875, 109)" class="instantiation"><g class="sprotty-block" style="fill:rgb(255, 255, 255);stroke:rgb(48, 48, 48);stroke-dasharray:0px;"><rect x="0" y="0" rx="1" ry="1" width="125.5625" height="112"/><text x="62.78125" y="12" class="sprotty-block-name" style="cursor:pointer;font-weight:700;perspective-origin:62.7812px 0px;fill:rgb(48, 48, 48);stroke:rgba(0, 0, 0, 0);dominant-baseline:middle;text-anchor:middle;">i_iobuf : IOBUF</text><line x1="0" y1="20" x2="125.5625" y2="20"/></g><g id="sprotty_ArchitectureBlockImpl$prim_xilinx_pad_wrapper/GenerateStatementBlockImpl$null7/InstantiationBlockImpl$i_iobuf/BPortImpl$T" transform="translate(0, 94)" class="triangle"><path d="M 0,0 L 5,2.5 L 0,5 Z" transform="translate(-1.67, -2.5)" class="sprotty-port" style="fill:rgb(48, 48, 48);stroke:rgb(48, 48, 48);"/><text class="clickable sprotty-label port" id="sprotty_ArchitectureBlockImpl$prim_xilinx_pad_wrapper/GenerateStatementBlockImpl$null7/InstantiationBlockImpl$i_iobuf/BPortImpl$T/label" transform="translate(6, -9) translate(3.609375, 14)" style="cursor:default;font-size:12px;perspective-origin:0px 0px;fill:rgb(48, 48, 48);text-anchor:middle;">T</text></g><g id="sprotty_ArchitectureBlockImpl$prim_xilinx_pad_wrapper/GenerateStatementBlockImpl$null7/InstantiationBlockImpl$i_iobuf/BPortImpl$I" transform="translate(0, 66)" class="triangle"><path d="M 0,0 L 5,2.5 L 0,5 Z" transform="translate(-1.67, -2.5)" class="sprotty-port" style="fill:rgb(48, 48, 48);stroke:rgb(48, 48, 48);"/><text class="clickable sprotty-label port" id="sprotty_ArchitectureBlockImpl$prim_xilinx_pad_wrapper/GenerateStatementBlockImpl$null7/InstantiationBlockImpl$i_iobuf/BPortImpl$I/label" transform="translate(6, -9) translate(1.765625, 14)" style="cursor:default;font-size:12px;perspective-origin:0px 0px;fill:rgb(48, 48, 48);text-anchor:middle;">I</text></g><g id="sprotty_ArchitectureBlockImpl$prim_xilinx_pad_wrapper/GenerateStatementBlockImpl$null7/InstantiationBlockImpl$i_iobuf/BPortImpl$IO" transform="translate(0, 38)" class="square"><path d="M 0,0 L 5,0 L 5,5 L 0,5 Z" transform="translate(-2.5, -2.5)" class="sprotty-port" style="fill:rgb(48, 48, 48);stroke:rgb(48, 48, 48);"/><text class="clickable sprotty-label port" id="sprotty_ArchitectureBlockImpl$prim_xilinx_pad_wrapper/GenerateStatementBlockImpl$null7/InstantiationBlockImpl$i_iobuf/BPortImpl$IO/label" transform="translate(6, -9) translate(6.21875, 14)" style="cursor:default;font-size:12px;perspective-origin:0.046875px 0px;fill:rgb(48, 48, 48);text-anchor:middle;">IO</text></g><g id="sprotty_ArchitectureBlockImpl$prim_xilinx_pad_wrapper/GenerateStatementBlockImpl$null7/InstantiationBlockImpl$i_iobuf/BPortImpl$O" transform="translate(125.5625, 66)" class="triangle"><path d="M 0,0 L 5,2.5 L 0,5 Z" transform="translate(-1.67, -2.5)" class="sprotty-port" style="fill:rgb(48, 48, 48);stroke:rgb(48, 48, 48);"/><text class="clickable sprotty-label port" id="sprotty_ArchitectureBlockImpl$prim_xilinx_pad_wrapper/GenerateStatementBlockImpl$null7/InstantiationBlockImpl$i_iobuf/BPortImpl$O/label" transform="translate(-15.015625, -9) translate(4.453125, 14)" style="cursor:default;font-size:12px;perspective-origin:0.046875px 0px;fill:rgb(48, 48, 48);text-anchor:middle;">O</text></g></g><g id="sprotty_ArchitectureBlockImpl$prim_xilinx_pad_wrapper/GenerateStatementBlockImpl$null7/GPortImpl$ie_i" transform="translate(0, 68)" class="triangle"><path d="M 0,0 L 5,2.5 L 0,5 Z" transform="translate(-1.67, -2.5)" class="sprotty-port" style="fill:rgb(48, 48, 48);stroke:rgb(48, 48, 48);"/></g><g id="sprotty_ArchitectureBlockImpl$prim_xilinx_pad_wrapper/GenerateStatementBlockImpl$null7/GPortImpl$inout_io" transform="translate(344.4375, 99)" class="triangle"><path d="M 0,0 L 5,2.5 L 0,5 Z" transform="translate(-1.67, -2.5)" class="sprotty-port" style="fill:rgb(48, 48, 48);stroke:rgb(48, 48, 48);"/></g><g id="sprotty_ArchitectureBlockImpl$prim_xilinx_pad_wrapper/GenerateStatementBlockImpl$null7/GPortImpl$in_o" transform="translate(344.4375, 26)" class="triangle"><path d="M 0,0 L 5,2.5 L 0,5 Z" transform="translate(-1.67, -2.5)" class="sprotty-port" style="fill:rgb(48, 48, 48);stroke:rgb(48, 48, 48);"/></g></g><g id="sprotty_ArchitectureBlockImpl$prim_xilinx_pad_wrapper/AssignmentBlockImpl$warl_o" transform="translate(71.0625, 367)" class="statement"><rect x="0" y="0" rx="10" ry="5" width="19.71875" height="22" class="sprotty-node" style="fill:rgb(245, 245, 245);stroke:rgb(112, 112, 112);"/><text class="clickable sprotty-label statementtype" id="sprotty_ArchitectureBlockImpl$prim_xilinx_pad_wrapper/AssignmentBlockImpl$warl_o/labeltype" transform="translate(5, 5) translate(4.71875, 9)" style="cursor:default;font-size:8px;font-weight:700;perspective-origin:0.140625px 0px;fill:rgb(112, 112, 112);text-anchor:middle;">&lt;=</text></g><g id="sprotty_ArchitectureBlockImpl$prim_xilinx_pad_wrapper/BPortImpl$attr_i" transform="translate(0, 367)" class="triangle"><path d="M 0,0 L 5,2.5 L 0,5 Z" transform="translate(-1.67, -2.5)" class="sprotty-port" style="fill:rgb(48, 48, 48);stroke:rgb(48, 48, 48);"/><text class="clickable sprotty-label port" id="sprotty_ArchitectureBlockImpl$prim_xilinx_pad_wrapper/BPortImpl$attr_i/label" transform="translate(6, 6) translate(15.03125, 14)" style="cursor:default;font-size:12px;perspective-origin:0px 0px;fill:rgb(48, 48, 48);text-anchor:middle;">attr_i</text></g><g id="sprotty_ArchitectureBlockImpl$prim_xilinx_pad_wrapper/BPortImpl$oe_i" transform="translate(0, 411)" class="triangle"><path d="M 0,0 L 5,2.5 L 0,5 Z" transform="translate(-1.67, -2.5)" class="sprotty-port" style="fill:rgb(48, 48, 48);stroke:rgb(48, 48, 48);"/><text class="clickable sprotty-label port" id="sprotty_ArchitectureBlockImpl$prim_xilinx_pad_wrapper/BPortImpl$oe_i/label" transform="translate(6, 6) translate(11.96875, 14)" style="cursor:default;font-size:12px;perspective-origin:0px 0px;fill:rgb(48, 48, 48);text-anchor:middle;">oe_i</text></g><g id="sprotty_ArchitectureBlockImpl$prim_xilinx_pad_wrapper/BPortImpl$out_i" transform="translate(0, 455)" class="triangle"><path d="M 0,0 L 5,2.5 L 0,5 Z" transform="translate(-1.67, -2.5)" class="sprotty-port" style="fill:rgb(48, 48, 48);stroke:rgb(48, 48, 48);"/><text class="clickable sprotty-label port" id="sprotty_ArchitectureBlockImpl$prim_xilinx_pad_wrapper/BPortImpl$out_i/label" transform="translate(6, 6) translate(14.546875, 14)" style="cursor:default;font-size:12px;perspective-origin:0px 0px;fill:rgb(48, 48, 48);text-anchor:middle;">out_i</text></g><g id="sprotty_ArchitectureBlockImpl$prim_xilinx_pad_wrapper/BPortImpl$ie_i" transform="translate(0, 103)" class="triangle"><path d="M 0,0 L 5,2.5 L 0,5 Z" transform="translate(-1.67, -2.5)" class="sprotty-port" style="fill:rgb(48, 48, 48);stroke:rgb(48, 48, 48);"/><text class="clickable sprotty-label port" id="sprotty_ArchitectureBlockImpl$prim_xilinx_pad_wrapper/BPortImpl$ie_i/label" transform="translate(6, 6) translate(9.984375, 14)" style="cursor:default;font-size:12px;perspective-origin:0px 0px;fill:rgb(48, 48, 48);text-anchor:middle;">ie_i</text></g><g id="sprotty_ArchitectureBlockImpl$prim_xilinx_pad_wrapper/BPortImpl$inout_io" transform="translate(0, 323)" class="square"><path d="M 0,0 L 5,0 L 5,5 L 0,5 Z" transform="translate(-2.5, -2.5)" class="sprotty-port" style="fill:rgb(48, 48, 48);stroke:rgb(48, 48, 48);"/><text class="clickable sprotty-label port" id="sprotty_ArchitectureBlockImpl$prim_xilinx_pad_wrapper/BPortImpl$inout_io/label" transform="translate(6, 6) translate(23.5, 14)" style="cursor:default;font-size:12px;perspective-origin:0px 0px;fill:rgb(48, 48, 48);text-anchor:middle;">inout_io</text></g><g id="sprotty_ArchitectureBlockImpl$prim_xilinx_pad_wrapper/BPortImpl$in_o" transform="translate(478.0625, 61)" class="triangle"><path d="M 0,0 L 5,2.5 L 0,5 Z" transform="translate(-1.67, -2.5)" class="sprotty-port" style="fill:rgb(48, 48, 48);stroke:rgb(48, 48, 48);"/><text class="clickable sprotty-label port" id="sprotty_ArchitectureBlockImpl$prim_xilinx_pad_wrapper/BPortImpl$in_o/label" transform="translate(-30.625, 6) translate(12.3125, 14)" style="cursor:default;font-size:12px;perspective-origin:0px 0px;fill:rgb(48, 48, 48);text-anchor:middle;">in_o</text></g><g id="sprotty_ArchitectureBlockImpl$prim_xilinx_pad_wrapper/BPortImpl$warl_o" transform="translate(478.0625, 367)" class="triangle"><path d="M 0,0 L 5,2.5 L 0,5 Z" transform="translate(-1.67, -2.5)" class="sprotty-port" style="fill:rgb(48, 48, 48);stroke:rgb(48, 48, 48);"/><text class="clickable sprotty-label port" id="sprotty_ArchitectureBlockImpl$prim_xilinx_pad_wrapper/BPortImpl$warl_o/label" transform="translate(-44.34375, 6) translate(19.171875, 14)" style="cursor:default;font-size:12px;perspective-origin:0px 0px;fill:rgb(48, 48, 48);text-anchor:middle;">warl_o</text></g></g></g></svg>