<svg xmlns="http://www.w3.org/2000/svg" id="sprotty_work.pinmux_jtag_buf" class="sprotty-graph sprotty-block-diagram blockdiagram" style="font-family:&quot;Noto Sans&quot;, Helvetica, Arial, sans-serif;perspective-origin:0px 0px;transform-origin:0px 0px;" version="1.1" viewBox="7 7 478.515625 496" width="478.515625" height="496"><g transform="scale(1) translate(0,0)"><g id="sprotty_ArchitectureBlockImpl$pinmux_jtag_buf" transform="translate(12, 12)" class="architecture"><g class="sprotty-block" style="fill:rgb(255, 255, 255);stroke:rgb(48, 48, 48);stroke-dasharray:0px;"><rect x="0" y="0" rx="1" ry="1" width="468.515625" height="486"/><text x="234.2578125" y="12" class="sprotty-block-name" style="cursor:pointer;font-weight:700;perspective-origin:234.781px 0px;fill:rgb(48, 48, 48);stroke:rgba(0, 0, 0, 0);dominant-baseline:middle;text-anchor:middle;">pinmux_jtag_buf</text><line x1="0" y1="20" x2="468.515625" y2="20"/></g><g id="sprotty_ArchitectureBlockImpl$pinmux_jtag_buf/InstantiationBlockImpl$prim_clock_buf_tck/BPortImpl$clk_o_to_ArchitectureBlockImpl$pinmux_jtag_buf/BPortImpl$req_o" class="sprotty-edge thick edge" style="fill:none;stroke:rgb(112, 112, 112);stroke-linejoin:round;stroke-width:3px;"><g><path d="M 383.59375 377 L 402.921875 377 C 403.921875 377 404.921875 376 404.921875 375 L 404.921875 303 C 404.921875 302 405.921875 301 406.921875 301 L 468.515625 301 "/><path d="M 383.59375 377 L 402.921875 377 C 403.921875 377 404.921875 376 404.921875 375 L 404.921875 303 C 404.921875 302 405.921875 301 406.921875 301 L 468.515625 301 " class="clickable"/></g><circle r="3" id="sprotty_ArchitectureBlockImpl$pinmux_jtag_buf/InstantiationBlockImpl$prim_clock_buf_tck/BPortImpl$clk_o_to_ArchitectureBlockImpl$pinmux_jtag_buf/BPortImpl$req_o/junction0" transform="translate(404.921875, 377)" class="sprotty-junction thick" style="fill:rgb(112, 112, 112);stroke:none;"/></g><g id="sprotty_ArchitectureBlockImpl$pinmux_jtag_buf/InstantiationBlockImpl$prim_clock_buf_trst_n/BPortImpl$clk_o_to_ArchitectureBlockImpl$pinmux_jtag_buf/BPortImpl$req_o" class="sprotty-edge thick edge" style="fill:none;stroke:rgb(112, 112, 112);stroke-linejoin:round;stroke-width:3px;"><g><path d="M 394.921875 453 L 402.921875 453 C 403.921875 453 404.921875 452 404.921875 451 L 404.921875 303 C 404.921875 302 405.921875 301 406.921875 301 L 468.515625 301 "/><path d="M 394.921875 453 L 402.921875 453 C 403.921875 453 404.921875 452 404.921875 451 L 404.921875 303 C 404.921875 302 405.921875 301 406.921875 301 L 468.515625 301 " class="clickable"/></g></g><g id="sprotty_ArchitectureBlockImpl$pinmux_jtag_buf/InstantiationBlockImpl$prim_buf_tms/BPortImpl$out_o_to_ArchitectureBlockImpl$pinmux_jtag_buf/BPortImpl$req_o" class="sprotty-edge thick edge" style="fill:none;stroke:rgb(112, 112, 112);stroke-linejoin:round;stroke-width:3px;"><g><path d="M 335.6875 301 L 468.515625 301 "/><path d="M 335.6875 301 L 468.515625 301 " class="clickable"/></g></g><g id="sprotty_ArchitectureBlockImpl$pinmux_jtag_buf/InstantiationBlockImpl$prim_buf_tdi/BPortImpl$out_o_to_ArchitectureBlockImpl$pinmux_jtag_buf/BPortImpl$req_o" class="sprotty-edge thick edge" style="fill:none;stroke:rgb(112, 112, 112);stroke-linejoin:round;stroke-width:3px;"><g><path d="M 331.453125 225 L 402.921875 225 C 403.921875 225 404.921875 226 404.921875 227 L 404.921875 299 C 404.921875 300 405.921875 301 406.921875 301 L 468.515625 301 "/><path d="M 331.453125 225 L 402.921875 225 C 403.921875 225 404.921875 226 404.921875 227 L 404.921875 299 C 404.921875 300 405.921875 301 406.921875 301 L 468.515625 301 " class="clickable"/></g><circle r="3" id="sprotty_ArchitectureBlockImpl$pinmux_jtag_buf/InstantiationBlockImpl$prim_buf_tdi/BPortImpl$out_o_to_ArchitectureBlockImpl$pinmux_jtag_buf/BPortImpl$req_o/junction0" transform="translate(404.921875, 301)" class="sprotty-junction thick" style="fill:rgb(112, 112, 112);stroke:none;"/></g><g id="sprotty_ArchitectureBlockImpl$pinmux_jtag_buf/InstantiationBlockImpl$prim_buf_tdo/BPortImpl$out_o_to_ArchitectureBlockImpl$pinmux_jtag_buf/BPortImpl$rsp_o" class="sprotty-edge thick edge" style="fill:none;stroke:rgb(112, 112, 112);stroke-linejoin:round;stroke-width:3px;"><g><path d="M 286.390625 149 L 308.578125 149 C 309.578125 149 310.578125 148 310.578125 147 L 310.578125 75 C 310.578125 74 311.578125 73 312.578125 73 L 468.515625 73 "/><path d="M 286.390625 149 L 308.578125 149 C 309.578125 149 310.578125 148 310.578125 147 L 310.578125 75 C 310.578125 74 311.578125 73 312.578125 73 L 468.515625 73 " class="clickable"/></g><circle r="3" id="sprotty_ArchitectureBlockImpl$pinmux_jtag_buf/InstantiationBlockImpl$prim_buf_tdo/BPortImpl$out_o_to_ArchitectureBlockImpl$pinmux_jtag_buf/BPortImpl$rsp_o/junction0" transform="translate(310.578125, 73)" class="sprotty-junction thick" style="fill:rgb(112, 112, 112);stroke:none;"/></g><g id="sprotty_ArchitectureBlockImpl$pinmux_jtag_buf/InstantiationBlockImpl$prim_buf_tdo_oe/BPortImpl$out_o_to_ArchitectureBlockImpl$pinmux_jtag_buf/BPortImpl$rsp_o" class="sprotty-edge thick edge" style="fill:none;stroke:rgb(112, 112, 112);stroke-linejoin:round;stroke-width:3px;"><g><path d="M 300.578125 73 L 468.515625 73 "/><path d="M 300.578125 73 L 468.515625 73 " class="clickable"/></g></g><g id="sprotty_ArchitectureBlockImpl$pinmux_jtag_buf/BPortImpl$req_i_to_ArchitectureBlockImpl$pinmux_jtag_buf/InstantiationBlockImpl$prim_clock_buf_tck/BPortImpl$clk_i" class="sprotty-edge thick edge" style="fill:none;stroke:rgb(112, 112, 112);stroke-linejoin:round;stroke-width:3px;"><g><path d="M 0 225 L 57.625 225 C 58.625 225 59.625 226 59.625 227 L 59.625 375 C 59.625 376 60.625 377 61.625 377 L 80.953125 377 "/><path d="M 0 225 L 57.625 225 C 58.625 225 59.625 226 59.625 227 L 59.625 375 C 59.625 376 60.625 377 61.625 377 L 80.953125 377 " class="clickable"/></g><circle r="3" id="sprotty_ArchitectureBlockImpl$pinmux_jtag_buf/BPortImpl$req_i_to_ArchitectureBlockImpl$pinmux_jtag_buf/InstantiationBlockImpl$prim_clock_buf_tck/BPortImpl$clk_i/junction0" transform="translate(59.625, 225)" class="sprotty-junction thick" style="fill:rgb(112, 112, 112);stroke:none;"/><circle r="3" id="sprotty_ArchitectureBlockImpl$pinmux_jtag_buf/BPortImpl$req_i_to_ArchitectureBlockImpl$pinmux_jtag_buf/InstantiationBlockImpl$prim_clock_buf_tck/BPortImpl$clk_i/junction1" transform="translate(59.625, 377)" class="sprotty-junction thick" style="fill:rgb(112, 112, 112);stroke:none;"/></g><g id="sprotty_ArchitectureBlockImpl$pinmux_jtag_buf/BPortImpl$req_i_to_ArchitectureBlockImpl$pinmux_jtag_buf/InstantiationBlockImpl$prim_clock_buf_trst_n/BPortImpl$clk_i" class="sprotty-edge thick edge" style="fill:none;stroke:rgb(112, 112, 112);stroke-linejoin:round;stroke-width:3px;"><g><path d="M 0 225 L 57.625 225 C 58.625 225 59.625 226 59.625 227 L 59.625 451 C 59.625 452 60.625 453 61.625 453 L 69.625 453 "/><path d="M 0 225 L 57.625 225 C 58.625 225 59.625 226 59.625 227 L 59.625 451 C 59.625 452 60.625 453 61.625 453 L 69.625 453 " class="clickable"/></g></g><g id="sprotty_ArchitectureBlockImpl$pinmux_jtag_buf/BPortImpl$req_i_to_ArchitectureBlockImpl$pinmux_jtag_buf/InstantiationBlockImpl$prim_buf_tms/BPortImpl$in_i" class="sprotty-edge thick edge" style="fill:none;stroke:rgb(112, 112, 112);stroke-linejoin:round;stroke-width:3px;"><g><path d="M 0 225 L 57.625 225 C 58.625 225 59.625 226 59.625 227 L 59.625 299 C 59.625 300 60.625 301 61.625 301 L 128.859375 301 "/><path d="M 0 225 L 57.625 225 C 58.625 225 59.625 226 59.625 227 L 59.625 299 C 59.625 300 60.625 301 61.625 301 L 128.859375 301 " class="clickable"/></g><circle r="3" id="sprotty_ArchitectureBlockImpl$pinmux_jtag_buf/BPortImpl$req_i_to_ArchitectureBlockImpl$pinmux_jtag_buf/InstantiationBlockImpl$prim_buf_tms/BPortImpl$in_i/junction0" transform="translate(59.625, 301)" class="sprotty-junction thick" style="fill:rgb(112, 112, 112);stroke:none;"/></g><g id="sprotty_ArchitectureBlockImpl$pinmux_jtag_buf/BPortImpl$req_i_to_ArchitectureBlockImpl$pinmux_jtag_buf/InstantiationBlockImpl$prim_buf_tdi/BPortImpl$in_i" class="sprotty-edge thick edge" style="fill:none;stroke:rgb(112, 112, 112);stroke-linejoin:round;stroke-width:3px;"><g><path d="M 0 225 L 133.09375 225 "/><path d="M 0 225 L 133.09375 225 " class="clickable"/></g></g><g id="sprotty_ArchitectureBlockImpl$pinmux_jtag_buf/BPortImpl$rsp_i_to_ArchitectureBlockImpl$pinmux_jtag_buf/InstantiationBlockImpl$prim_buf_tdo/BPortImpl$in_i" class="sprotty-edge thick edge" style="fill:none;stroke:rgb(112, 112, 112);stroke-linejoin:round;stroke-width:3px;"><g><path d="M 0 73 L 56.6875 73 C 57.6875 73 58.6875 74 58.6875 75 L 58.6875 147 C 58.6875 148 59.6875 149 60.6875 149 L 82.875 149 "/><path d="M 0 73 L 56.6875 73 C 57.6875 73 58.6875 74 58.6875 75 L 58.6875 147 C 58.6875 148 59.6875 149 60.6875 149 L 82.875 149 " class="clickable"/></g><circle r="3" id="sprotty_ArchitectureBlockImpl$pinmux_jtag_buf/BPortImpl$rsp_i_to_ArchitectureBlockImpl$pinmux_jtag_buf/InstantiationBlockImpl$prim_buf_tdo/BPortImpl$in_i/junction0" transform="translate(58.6875, 73)" class="sprotty-junction thick" style="fill:rgb(112, 112, 112);stroke:none;"/></g><g id="sprotty_ArchitectureBlockImpl$pinmux_jtag_buf/BPortImpl$rsp_i_to_ArchitectureBlockImpl$pinmux_jtag_buf/InstantiationBlockImpl$prim_buf_tdo_oe/BPortImpl$in_i" class="sprotty-edge thick edge" style="fill:none;stroke:rgb(112, 112, 112);stroke-linejoin:round;stroke-width:3px;"><g><path d="M 0 73 L 68.6875 73 "/><path d="M 0 73 L 68.6875 73 " class="clickable"/></g></g><g id="sprotty_ArchitectureBlockImpl$pinmux_jtag_buf/InstantiationBlockImpl$prim_buf_tdo_oe" transform="translate(68.6875, 35)" class="instantiation"><g class="sprotty-block" style="fill:rgb(255, 255, 255);stroke:rgb(48, 48, 48);stroke-dasharray:0px;"><rect x="0" y="0" rx="1" ry="1" width="231.890625" height="56"/><text x="115.9453125" y="12" class="sprotty-block-name" style="cursor:pointer;font-weight:700;perspective-origin:116.469px 0px;fill:rgb(48, 48, 48);stroke:rgba(0, 0, 0, 0);dominant-baseline:middle;text-anchor:middle;">prim_buf_tdo_oe : prim_buf</text><line x1="0" y1="20" x2="231.890625" y2="20"/></g><g id="sprotty_ArchitectureBlockImpl$pinmux_jtag_buf/InstantiationBlockImpl$prim_buf_tdo_oe/BPortImpl$in_i" transform="translate(0, 38)" class="triangle"><path d="M 0,0 L 5,2.5 L 0,5 Z" transform="translate(-1.67, -2.5)" class="sprotty-port" style="fill:rgb(48, 48, 48);stroke:rgb(48, 48, 48);"/><text class="clickable sprotty-label port" id="sprotty_ArchitectureBlockImpl$pinmux_jtag_buf/InstantiationBlockImpl$prim_buf_tdo_oe/BPortImpl$in_i/label" transform="translate(6, -9) translate(10.328125, 14)" style="cursor:default;font-size:12px;perspective-origin:0px 0px;fill:rgb(48, 48, 48);text-anchor:middle;">in_i</text></g><g id="sprotty_ArchitectureBlockImpl$pinmux_jtag_buf/InstantiationBlockImpl$prim_buf_tdo_oe/BPortImpl$out_o" transform="translate(231.890625, 38)" class="triangle"><path d="M 0,0 L 5,2.5 L 0,5 Z" transform="translate(-1.67, -2.5)" class="sprotty-port" style="fill:rgb(48, 48, 48);stroke:rgb(48, 48, 48);"/><text class="clickable sprotty-label port" id="sprotty_ArchitectureBlockImpl$pinmux_jtag_buf/InstantiationBlockImpl$prim_buf_tdo_oe/BPortImpl$out_o/label" transform="translate(-39.0625, -9) translate(16.53125, 14)" style="cursor:default;font-size:12px;perspective-origin:0px 0px;fill:rgb(48, 48, 48);text-anchor:middle;">out_o</text></g></g><g id="sprotty_ArchitectureBlockImpl$pinmux_jtag_buf/InstantiationBlockImpl$prim_buf_tdo" transform="translate(82.875, 111)" class="instantiation"><g class="sprotty-block" style="fill:rgb(255, 255, 255);stroke:rgb(48, 48, 48);stroke-dasharray:0px;"><rect x="0" y="0" rx="1" ry="1" width="203.515625" height="56"/><text x="101.7578125" y="12" class="sprotty-block-name" style="cursor:pointer;font-weight:700;perspective-origin:102.281px 0px;fill:rgb(48, 48, 48);stroke:rgba(0, 0, 0, 0);dominant-baseline:middle;text-anchor:middle;">prim_buf_tdo : prim_buf</text><line x1="0" y1="20" x2="203.515625" y2="20"/></g><g id="sprotty_ArchitectureBlockImpl$pinmux_jtag_buf/InstantiationBlockImpl$prim_buf_tdo/BPortImpl$in_i" transform="translate(0, 38)" class="triangle"><path d="M 0,0 L 5,2.5 L 0,5 Z" transform="translate(-1.67, -2.5)" class="sprotty-port" style="fill:rgb(48, 48, 48);stroke:rgb(48, 48, 48);"/><text class="clickable sprotty-label port" id="sprotty_ArchitectureBlockImpl$pinmux_jtag_buf/InstantiationBlockImpl$prim_buf_tdo/BPortImpl$in_i/label" transform="translate(6, -9) translate(10.328125, 14)" style="cursor:default;font-size:12px;perspective-origin:0px 0px;fill:rgb(48, 48, 48);text-anchor:middle;">in_i</text></g><g id="sprotty_ArchitectureBlockImpl$pinmux_jtag_buf/InstantiationBlockImpl$prim_buf_tdo/BPortImpl$out_o" transform="translate(203.515625, 38)" class="triangle"><path d="M 0,0 L 5,2.5 L 0,5 Z" transform="translate(-1.67, -2.5)" class="sprotty-port" style="fill:rgb(48, 48, 48);stroke:rgb(48, 48, 48);"/><text class="clickable sprotty-label port" id="sprotty_ArchitectureBlockImpl$pinmux_jtag_buf/InstantiationBlockImpl$prim_buf_tdo/BPortImpl$out_o/label" transform="translate(-39.0625, -9) translate(16.53125, 14)" style="cursor:default;font-size:12px;perspective-origin:0px 0px;fill:rgb(48, 48, 48);text-anchor:middle;">out_o</text></g></g><g id="sprotty_ArchitectureBlockImpl$pinmux_jtag_buf/InstantiationBlockImpl$prim_buf_tdi" transform="translate(133.09375, 187)" class="instantiation"><g class="sprotty-block" style="fill:rgb(255, 255, 255);stroke:rgb(48, 48, 48);stroke-dasharray:0px;"><rect x="0" y="0" rx="1" ry="1" width="198.359375" height="56"/><text x="99.1796875" y="12" class="sprotty-block-name" style="cursor:pointer;font-weight:700;perspective-origin:99.7031px 0px;fill:rgb(48, 48, 48);stroke:rgba(0, 0, 0, 0);dominant-baseline:middle;text-anchor:middle;">prim_buf_tdi : prim_buf</text><line x1="0" y1="20" x2="198.359375" y2="20"/></g><g id="sprotty_ArchitectureBlockImpl$pinmux_jtag_buf/InstantiationBlockImpl$prim_buf_tdi/BPortImpl$in_i" transform="translate(0, 38)" class="triangle"><path d="M 0,0 L 5,2.5 L 0,5 Z" transform="translate(-1.67, -2.5)" class="sprotty-port" style="fill:rgb(48, 48, 48);stroke:rgb(48, 48, 48);"/><text class="clickable sprotty-label port" id="sprotty_ArchitectureBlockImpl$pinmux_jtag_buf/InstantiationBlockImpl$prim_buf_tdi/BPortImpl$in_i/label" transform="translate(6, -9) translate(10.328125, 14)" style="cursor:default;font-size:12px;perspective-origin:0px 0px;fill:rgb(48, 48, 48);text-anchor:middle;">in_i</text></g><g id="sprotty_ArchitectureBlockImpl$pinmux_jtag_buf/InstantiationBlockImpl$prim_buf_tdi/BPortImpl$out_o" transform="translate(198.359375, 38)" class="triangle"><path d="M 0,0 L 5,2.5 L 0,5 Z" transform="translate(-1.67, -2.5)" class="sprotty-port" style="fill:rgb(48, 48, 48);stroke:rgb(48, 48, 48);"/><text class="clickable sprotty-label port" id="sprotty_ArchitectureBlockImpl$pinmux_jtag_buf/InstantiationBlockImpl$prim_buf_tdi/BPortImpl$out_o/label" transform="translate(-39.0625, -9) translate(16.53125, 14)" style="cursor:default;font-size:12px;perspective-origin:0px 0px;fill:rgb(48, 48, 48);text-anchor:middle;">out_o</text></g></g><g id="sprotty_ArchitectureBlockImpl$pinmux_jtag_buf/InstantiationBlockImpl$prim_buf_tms" transform="translate(128.859375, 263)" class="instantiation"><g class="sprotty-block" style="fill:rgb(255, 255, 255);stroke:rgb(48, 48, 48);stroke-dasharray:0px;"><rect x="0" y="0" rx="1" ry="1" width="206.828125" height="56"/><text x="103.4140625" y="12" class="sprotty-block-name" style="cursor:pointer;font-weight:700;perspective-origin:103.938px 0px;fill:rgb(48, 48, 48);stroke:rgba(0, 0, 0, 0);dominant-baseline:middle;text-anchor:middle;">prim_buf_tms : prim_buf</text><line x1="0" y1="20" x2="206.828125" y2="20"/></g><g id="sprotty_ArchitectureBlockImpl$pinmux_jtag_buf/InstantiationBlockImpl$prim_buf_tms/BPortImpl$in_i" transform="translate(0, 38)" class="triangle"><path d="M 0,0 L 5,2.5 L 0,5 Z" transform="translate(-1.67, -2.5)" class="sprotty-port" style="fill:rgb(48, 48, 48);stroke:rgb(48, 48, 48);"/><text class="clickable sprotty-label port" id="sprotty_ArchitectureBlockImpl$pinmux_jtag_buf/InstantiationBlockImpl$prim_buf_tms/BPortImpl$in_i/label" transform="translate(6, -9) translate(10.328125, 14)" style="cursor:default;font-size:12px;perspective-origin:0px 0px;fill:rgb(48, 48, 48);text-anchor:middle;">in_i</text></g><g id="sprotty_ArchitectureBlockImpl$pinmux_jtag_buf/InstantiationBlockImpl$prim_buf_tms/BPortImpl$out_o" transform="translate(206.828125, 38)" class="triangle"><path d="M 0,0 L 5,2.5 L 0,5 Z" transform="translate(-1.67, -2.5)" class="sprotty-port" style="fill:rgb(48, 48, 48);stroke:rgb(48, 48, 48);"/><text class="clickable sprotty-label port" id="sprotty_ArchitectureBlockImpl$pinmux_jtag_buf/InstantiationBlockImpl$prim_buf_tms/BPortImpl$out_o/label" transform="translate(-39.0625, -9) translate(16.53125, 14)" style="cursor:default;font-size:12px;perspective-origin:0px 0px;fill:rgb(48, 48, 48);text-anchor:middle;">out_o</text></g></g><g id="sprotty_ArchitectureBlockImpl$pinmux_jtag_buf/InstantiationBlockImpl$prim_clock_buf_trst_n" transform="translate(69.625, 415)" class="instantiation"><g class="sprotty-block" style="fill:rgb(255, 255, 255);stroke:rgb(48, 48, 48);stroke-dasharray:0px;"><rect x="0" y="0" rx="1" ry="1" width="325.296875" height="56"/><text x="162.6484375" y="12" class="sprotty-block-name" style="cursor:pointer;font-weight:700;perspective-origin:163.172px 0px;fill:rgb(48, 48, 48);stroke:rgba(0, 0, 0, 0);dominant-baseline:middle;text-anchor:middle;">prim_clock_buf_trst_n : prim_clock_buf</text><line x1="0" y1="20" x2="325.296875" y2="20"/></g><g id="sprotty_ArchitectureBlockImpl$pinmux_jtag_buf/InstantiationBlockImpl$prim_clock_buf_trst_n/BPortImpl$clk_i" transform="translate(0, 38)" class="triangle"><path d="M 0,0 L 5,2.5 L 0,5 Z" transform="translate(-1.67, -2.5)" class="sprotty-port" style="fill:rgb(48, 48, 48);stroke:rgb(48, 48, 48);"/><text class="clickable sprotty-label port" id="sprotty_ArchitectureBlockImpl$pinmux_jtag_buf/InstantiationBlockImpl$prim_clock_buf_trst_n/BPortImpl$clk_i/label" transform="translate(6, -9) translate(13.09375, 14)" style="cursor:default;font-size:12px;perspective-origin:0px 0px;fill:rgb(48, 48, 48);text-anchor:middle;">clk_i</text></g><g id="sprotty_ArchitectureBlockImpl$pinmux_jtag_buf/InstantiationBlockImpl$prim_clock_buf_trst_n/BPortImpl$clk_o" transform="translate(325.296875, 38)" class="triangle"><path d="M 0,0 L 5,2.5 L 0,5 Z" transform="translate(-1.67, -2.5)" class="sprotty-port" style="fill:rgb(48, 48, 48);stroke:rgb(48, 48, 48);"/><text class="clickable sprotty-label port" id="sprotty_ArchitectureBlockImpl$pinmux_jtag_buf/InstantiationBlockImpl$prim_clock_buf_trst_n/BPortImpl$clk_o/label" transform="translate(-36.15625, -9) translate(15.078125, 14)" style="cursor:default;font-size:12px;perspective-origin:0px 0px;fill:rgb(48, 48, 48);text-anchor:middle;">clk_o</text></g></g><g id="sprotty_ArchitectureBlockImpl$pinmux_jtag_buf/InstantiationBlockImpl$prim_clock_buf_tck" transform="translate(80.953125, 339)" class="instantiation"><g class="sprotty-block" style="fill:rgb(255, 255, 255);stroke:rgb(48, 48, 48);stroke-dasharray:0px;"><rect x="0" y="0" rx="1" ry="1" width="302.640625" height="56"/><text x="151.3203125" y="12" class="sprotty-block-name" style="cursor:pointer;font-weight:700;perspective-origin:151.844px 0px;fill:rgb(48, 48, 48);stroke:rgba(0, 0, 0, 0);dominant-baseline:middle;text-anchor:middle;">prim_clock_buf_tck : prim_clock_buf</text><line x1="0" y1="20" x2="302.640625" y2="20"/></g><g id="sprotty_ArchitectureBlockImpl$pinmux_jtag_buf/InstantiationBlockImpl$prim_clock_buf_tck/BPortImpl$clk_i" transform="translate(0, 38)" class="triangle"><path d="M 0,0 L 5,2.5 L 0,5 Z" transform="translate(-1.67, -2.5)" class="sprotty-port" style="fill:rgb(48, 48, 48);stroke:rgb(48, 48, 48);"/><text class="clickable sprotty-label port" id="sprotty_ArchitectureBlockImpl$pinmux_jtag_buf/InstantiationBlockImpl$prim_clock_buf_tck/BPortImpl$clk_i/label" transform="translate(6, -9) translate(13.09375, 14)" style="cursor:default;font-size:12px;perspective-origin:0px 0px;fill:rgb(48, 48, 48);text-anchor:middle;">clk_i</text></g><g id="sprotty_ArchitectureBlockImpl$pinmux_jtag_buf/InstantiationBlockImpl$prim_clock_buf_tck/BPortImpl$clk_o" transform="translate(302.640625, 38)" class="triangle"><path d="M 0,0 L 5,2.5 L 0,5 Z" transform="translate(-1.67, -2.5)" class="sprotty-port" style="fill:rgb(48, 48, 48);stroke:rgb(48, 48, 48);"/><text class="clickable sprotty-label port" id="sprotty_ArchitectureBlockImpl$pinmux_jtag_buf/InstantiationBlockImpl$prim_clock_buf_tck/BPortImpl$clk_o/label" transform="translate(-36.15625, -9) translate(15.078125, 14)" style="cursor:default;font-size:12px;perspective-origin:0px 0px;fill:rgb(48, 48, 48);text-anchor:middle;">clk_o</text></g></g><g id="sprotty_ArchitectureBlockImpl$pinmux_jtag_buf/BPortImpl$rsp_i" transform="translate(0, 73)" class="triangle"><path d="M 0,0 L 5,2.5 L 0,5 Z" transform="translate(-1.67, -2.5)" class="sprotty-port" style="fill:rgb(48, 48, 48);stroke:rgb(48, 48, 48);"/><text class="clickable sprotty-label port" id="sprotty_ArchitectureBlockImpl$pinmux_jtag_buf/BPortImpl$rsp_i/label" transform="translate(6, 6) translate(13.84375, 14)" style="cursor:default;font-size:12px;perspective-origin:0px 0px;fill:rgb(48, 48, 48);text-anchor:middle;">rsp_i</text></g><g id="sprotty_ArchitectureBlockImpl$pinmux_jtag_buf/BPortImpl$req_i" transform="translate(0, 225)" class="triangle"><path d="M 0,0 L 5,2.5 L 0,5 Z" transform="translate(-1.67, -2.5)" class="sprotty-port" style="fill:rgb(48, 48, 48);stroke:rgb(48, 48, 48);"/><text class="clickable sprotty-label port" id="sprotty_ArchitectureBlockImpl$pinmux_jtag_buf/BPortImpl$req_i/label" transform="translate(6, 6) translate(14.3125, 14)" style="cursor:default;font-size:12px;perspective-origin:0px 0px;fill:rgb(48, 48, 48);text-anchor:middle;">req_i</text></g><g id="sprotty_ArchitectureBlockImpl$pinmux_jtag_buf/BPortImpl$req_o" transform="translate(468.515625, 301)" class="triangle"><path d="M 0,0 L 5,2.5 L 0,5 Z" transform="translate(-1.67, -2.5)" class="sprotty-port" style="fill:rgb(48, 48, 48);stroke:rgb(48, 48, 48);"/><text class="clickable sprotty-label port" id="sprotty_ArchitectureBlockImpl$pinmux_jtag_buf/BPortImpl$req_o/label" transform="translate(-38.59375, 6) translate(16.296875, 14)" style="cursor:default;font-size:12px;perspective-origin:0px 0px;fill:rgb(48, 48, 48);text-anchor:middle;">req_o</text></g><g id="sprotty_ArchitectureBlockImpl$pinmux_jtag_buf/BPortImpl$rsp_o" transform="translate(468.515625, 73)" class="triangle"><path d="M 0,0 L 5,2.5 L 0,5 Z" transform="translate(-1.67, -2.5)" class="sprotty-port" style="fill:rgb(48, 48, 48);stroke:rgb(48, 48, 48);"/><text class="clickable sprotty-label port" id="sprotty_ArchitectureBlockImpl$pinmux_jtag_buf/BPortImpl$rsp_o/label" transform="translate(-37.65625, 6) translate(15.828125, 14)" style="cursor:default;font-size:12px;perspective-origin:0px 0px;fill:rgb(48, 48, 48);text-anchor:middle;">rsp_o</text></g></g></g></svg>