<svg xmlns="http://www.w3.org/2000/svg" id="sprotty_work.prim_generic_ram_2p" class="sprotty-graph sprotty-block-diagram blockdiagram" style="font-family:&quot;Noto Sans&quot;, Helvetica, Arial, sans-serif;perspective-origin:0px 0px;transform-origin:0px 0px;" version="1.1" viewBox="7 7 480.875 507" width="480.875" height="507"><g transform="scale(1) translate(0,0)"><g id="sprotty_ArchitectureBlockImpl$prim_generic_ram_2p" transform="translate(12, 12)" class="architecture"><g class="sprotty-block" style="fill:rgb(255, 255, 255);stroke:rgb(48, 48, 48);stroke-dasharray:0px;"><rect x="0" y="0" rx="1" ry="1" width="470.875" height="497"/><text x="235.4375" y="12" class="sprotty-block-name" style="cursor:pointer;font-weight:700;perspective-origin:235.438px 0px;fill:rgb(48, 48, 48);stroke:rgba(0, 0, 0, 0);dominant-baseline:middle;text-anchor:middle;">prim_generic_ram_2p</text><line x1="0" y1="20" x2="470.875" y2="20"/></g><g id="sprotty_ArchitectureBlockImpl$prim_generic_ram_2p/AlwaysBlockImpl$null16/GPortImpl$a_addr_iOUT_to_ArchitectureBlockImpl$prim_generic_ram_2p/BPortImpl$a_addr_i" class="sprotty-edge thick edge" style="fill:none;stroke:rgb(112, 112, 112);stroke-linejoin:round;stroke-width:3px;"><g><path d="M 372.1875 266 L 380.1875 266 C 381.1875 266 382.1875 265 382.1875 264 L 382.1875 106 C 382.1875 105 381.1875 104 380.1875 104 L 0 104 "/><path d="M 372.1875 266 L 380.1875 266 C 381.1875 266 382.1875 265 382.1875 264 L 382.1875 106 C 382.1875 105 381.1875 104 380.1875 104 L 0 104 " class="clickable"/></g></g><g id="sprotty_ArchitectureBlockImpl$prim_generic_ram_2p/AlwaysBlockImpl$null16/GPortImpl$a_rdata_oOUT_to_ArchitectureBlockImpl$prim_generic_ram_2p/BPortImpl$a_rdata_o" class="sprotty-edge thick edge" style="fill:none;stroke:rgb(112, 112, 112);stroke-linejoin:round;stroke-width:3px;"><g><path d="M 372.1875 286 L 470.875 286 "/><path d="M 372.1875 286 L 470.875 286 " class="clickable"/></g></g><g id="sprotty_ArchitectureBlockImpl$prim_generic_ram_2p/AlwaysBlockImpl$null15/GPortImpl$b_addr_iOUT_to_ArchitectureBlockImpl$prim_generic_ram_2p/BPortImpl$b_addr_i" class="sprotty-edge thick edge" style="fill:none;stroke:rgb(112, 112, 112);stroke-linejoin:round;stroke-width:3px;"><g><path d="M 274.796875 421 L 282.796875 421 C 283.796875 421 284.796875 422 284.796875 423 L 284.796875 456 C 284.796875 457 283.796875 458 282.796875 458 L 0 458 "/><path d="M 274.796875 421 L 282.796875 421 C 283.796875 421 284.796875 422 284.796875 423 L 284.796875 456 C 284.796875 457 283.796875 458 282.796875 458 L 0 458 " class="clickable"/></g></g><g id="sprotty_ArchitectureBlockImpl$prim_generic_ram_2p/AlwaysBlockImpl$null15/GPortImpl$b_rdata_oOUT_to_ArchitectureBlockImpl$prim_generic_ram_2p/BPortImpl$b_rdata_o" class="sprotty-edge thick edge" style="fill:none;stroke:rgb(112, 112, 112);stroke-linejoin:round;stroke-width:3px;"><g><path d="M 274.796875 401 L 470.875 401 "/><path d="M 274.796875 401 L 470.875 401 " class="clickable"/></g></g><g id="sprotty_ArchitectureBlockImpl$prim_generic_ram_2p/BPortImpl$clk_a_i_to_ArchitectureBlockImpl$prim_generic_ram_2p/AlwaysBlockImpl$null16/GPortImpl$clk_a_iIN" class="sprotty-edge edge" style="fill:none;stroke:rgb(112, 112, 112);stroke-linejoin:round;"><g><path d="M 0 36 L 322.796875 36 C 323.796875 36 324.796875 37 324.796875 38 L 324.796875 254 C 324.796875 255 325.796875 256 326.796875 256 L 334.796875 256 "/><path d="M 0 36 L 322.796875 36 C 323.796875 36 324.796875 37 324.796875 38 L 324.796875 254 C 324.796875 255 325.796875 256 326.796875 256 L 334.796875 256 " class="clickable"/></g></g><g id="sprotty_ArchitectureBlockImpl$prim_generic_ram_2p/BPortImpl$a_req_i_to_ArchitectureBlockImpl$prim_generic_ram_2p/AlwaysBlockImpl$null16/GPortImpl$a_req_iIN" class="sprotty-edge edge" style="fill:none;stroke:rgb(112, 112, 112);stroke-linejoin:round;"><g><path d="M 0 172 L 282.796875 172 C 283.796875 172 284.796875 173 284.796875 174 L 284.796875 294 C 284.796875 295 285.796875 296 286.796875 296 L 334.796875 296 "/><path d="M 0 172 L 282.796875 172 C 283.796875 172 284.796875 173 284.796875 174 L 284.796875 294 C 284.796875 295 285.796875 296 286.796875 296 L 334.796875 296 " class="clickable"/></g></g><g id="sprotty_ArchitectureBlockImpl$prim_generic_ram_2p/BPortImpl$a_write_i_to_ArchitectureBlockImpl$prim_generic_ram_2p/AlwaysBlockImpl$null16/GPortImpl$a_write_iIN" class="sprotty-edge edge" style="fill:none;stroke:rgb(112, 112, 112);stroke-linejoin:round;"><g><path d="M 0 138 L 292.796875 138 C 293.796875 138 294.796875 139 294.796875 140 L 294.796875 284 C 294.796875 285 295.796875 286 296.796875 286 L 334.796875 286 "/><path d="M 0 138 L 292.796875 138 C 293.796875 138 294.796875 139 294.796875 140 L 294.796875 284 C 294.796875 285 295.796875 286 296.796875 286 L 334.796875 286 " class="clickable"/></g></g><g id="sprotty_ArchitectureBlockImpl$prim_generic_ram_2p/BPortImpl$a_wdata_i_to_ArchitectureBlockImpl$prim_generic_ram_2p/AlwaysBlockImpl$null16/GPortImpl$a_wdata_iIN" class="sprotty-edge thick edge" style="fill:none;stroke:rgb(112, 112, 112);stroke-linejoin:round;stroke-width:3px;"><g><path d="M 0 70 L 312.796875 70 C 313.796875 70 314.796875 71 314.796875 72 L 314.796875 264 C 314.796875 265 315.796875 266 316.796875 266 L 334.796875 266 "/><path d="M 0 70 L 312.796875 70 C 313.796875 70 314.796875 71 314.796875 72 L 314.796875 264 C 314.796875 265 315.796875 266 316.796875 266 L 334.796875 266 " class="clickable"/></g></g><g id="sprotty_ArchitectureBlockImpl$prim_generic_ram_2p/BPortImpl$a_addr_i_to_ArchitectureBlockImpl$prim_generic_ram_2p/AlwaysBlockImpl$null16/GPortImpl$a_addr_iIN" class="sprotty-edge thick edge" style="fill:none;stroke:rgb(112, 112, 112);stroke-linejoin:round;stroke-width:3px;"><g><path d="M 0 104 L 302.796875 104 C 303.796875 104 304.796875 105 304.796875 106 L 304.796875 274 C 304.796875 275 305.796875 276 306.796875 276 L 334.796875 276 "/><path d="M 0 104 L 302.796875 104 C 303.796875 104 304.796875 105 304.796875 106 L 304.796875 274 C 304.796875 275 305.796875 276 306.796875 276 L 334.796875 276 " class="clickable"/></g><circle r="3" id="sprotty_ArchitectureBlockImpl$prim_generic_ram_2p/BPortImpl$a_addr_i_to_ArchitectureBlockImpl$prim_generic_ram_2p/AlwaysBlockImpl$null16/GPortImpl$a_addr_iIN/junction0" transform="translate(304.796875, 104)" class="sprotty-junction thick" style="fill:rgb(112, 112, 112);stroke:none;"/></g><g id="sprotty_ArchitectureBlockImpl$prim_generic_ram_2p/BPortImpl$clk_b_i_to_ArchitectureBlockImpl$prim_generic_ram_2p/AlwaysBlockImpl$null15/GPortImpl$clk_b_iIN" class="sprotty-edge edge" style="fill:none;stroke:rgb(112, 112, 112);stroke-linejoin:round;"><g><path d="M 0 206 L 225.40625 206 C 226.40625 206 227.40625 207 227.40625 208 L 227.40625 369 C 227.40625 370 228.40625 371 229.40625 371 L 237.40625 371 "/><path d="M 0 206 L 225.40625 206 C 226.40625 206 227.40625 207 227.40625 208 L 227.40625 369 C 227.40625 370 228.40625 371 229.40625 371 L 237.40625 371 " class="clickable"/></g></g><g id="sprotty_ArchitectureBlockImpl$prim_generic_ram_2p/BPortImpl$b_req_i_to_ArchitectureBlockImpl$prim_generic_ram_2p/AlwaysBlockImpl$null15/GPortImpl$b_req_iIN" class="sprotty-edge edge" style="fill:none;stroke:rgb(112, 112, 112);stroke-linejoin:round;"><g><path d="M 0 411 L 237.40625 411 "/><path d="M 0 411 L 237.40625 411 " class="clickable"/></g></g><g id="sprotty_ArchitectureBlockImpl$prim_generic_ram_2p/BPortImpl$b_write_i_to_ArchitectureBlockImpl$prim_generic_ram_2p/AlwaysBlockImpl$null15/GPortImpl$b_write_iIN" class="sprotty-edge edge" style="fill:none;stroke:rgb(112, 112, 112);stroke-linejoin:round;"><g><path d="M 0 377 L 195.40625 377 C 196.40625 377 197.40625 378 197.40625 379 L 197.40625 399 C 197.40625 400 198.40625 401 199.40625 401 L 237.40625 401 "/><path d="M 0 377 L 195.40625 377 C 196.40625 377 197.40625 378 197.40625 379 L 197.40625 399 C 197.40625 400 198.40625 401 199.40625 401 L 237.40625 401 " class="clickable"/></g></g><g id="sprotty_ArchitectureBlockImpl$prim_generic_ram_2p/BPortImpl$b_wdata_i_to_ArchitectureBlockImpl$prim_generic_ram_2p/AlwaysBlockImpl$null15/GPortImpl$b_wdata_iIN" class="sprotty-edge thick edge" style="fill:none;stroke:rgb(112, 112, 112);stroke-linejoin:round;stroke-width:3px;"><g><path d="M 0 343 L 205.40625 343 C 206.40625 343 207.40625 344 207.40625 345 L 207.40625 389 C 207.40625 390 208.40625 391 209.40625 391 L 237.40625 391 "/><path d="M 0 343 L 205.40625 343 C 206.40625 343 207.40625 344 207.40625 345 L 207.40625 389 C 207.40625 390 208.40625 391 209.40625 391 L 237.40625 391 " class="clickable"/></g></g><g id="sprotty_ArchitectureBlockImpl$prim_generic_ram_2p/BPortImpl$b_addr_i_to_ArchitectureBlockImpl$prim_generic_ram_2p/AlwaysBlockImpl$null15/GPortImpl$b_addr_iIN" class="sprotty-edge thick edge" style="fill:none;stroke:rgb(112, 112, 112);stroke-linejoin:round;stroke-width:3px;"><g><path d="M 0 458 L 195.40625 458 C 196.40625 458 197.40625 457 197.40625 456 L 197.40625 423 C 197.40625 422 198.40625 421 199.40625 421 L 237.40625 421 "/><path d="M 0 458 L 195.40625 458 C 196.40625 458 197.40625 457 197.40625 456 L 197.40625 423 C 197.40625 422 198.40625 421 199.40625 421 L 237.40625 421 " class="clickable"/></g><circle r="3" id="sprotty_ArchitectureBlockImpl$prim_generic_ram_2p/BPortImpl$b_addr_i_to_ArchitectureBlockImpl$prim_generic_ram_2p/AlwaysBlockImpl$null15/GPortImpl$b_addr_iIN/junction0" transform="translate(197.40625, 458)" class="sprotty-junction thick" style="fill:rgb(112, 112, 112);stroke:none;"/></g><g id="sprotty_ArchitectureBlockImpl$prim_generic_ram_2p/BPortImpl$a_wmask_i_to_ArchitectureBlockImpl$prim_generic_ram_2p/GenerateStatementBlockImpl$gen_wmask/GPortImpl$a_wmask_i" class="sprotty-edge thick edge" style="fill:none;stroke:rgb(112, 112, 112);stroke-linejoin:round;stroke-width:3px;"><g><path d="M 0 306 L 84.90625 306 "/><path d="M 0 306 L 84.90625 306 " class="clickable"/></g></g><g id="sprotty_ArchitectureBlockImpl$prim_generic_ram_2p/BPortImpl$b_wmask_i_to_ArchitectureBlockImpl$prim_generic_ram_2p/GenerateStatementBlockImpl$gen_wmask/GPortImpl$b_wmask_i" class="sprotty-edge thick edge" style="fill:none;stroke:rgb(112, 112, 112);stroke-linejoin:round;stroke-width:3px;"><g><path d="M 0 264 L 84.90625 264 "/><path d="M 0 264 L 84.90625 264 " class="clickable"/></g></g><g id="sprotty_ArchitectureBlockImpl$prim_generic_ram_2p/AlwaysBlockImpl$null16/GPortImpl$memOUT_to_ArchitectureBlockImpl$prim_generic_ram_2p/AlwaysBlockImpl$null15/GPortImpl$memIN" class="sprotty-edge thick edge" style="fill:none;stroke:rgb(112, 112, 112);stroke-linejoin:round;stroke-width:3px;"><g><path d="M 372.1875 306 L 380.1875 306 C 381.1875 306 382.1875 307 382.1875 308 L 382.1875 449 C 382.1875 450 381.1875 451 380.1875 451 L 229.40625 451 C 228.40625 451 227.40625 450 227.40625 449 L 227.40625 433 C 227.40625 432 228.40625 431 229.40625 431 L 237.40625 431 "/><path d="M 372.1875 306 L 380.1875 306 C 381.1875 306 382.1875 307 382.1875 308 L 382.1875 449 C 382.1875 450 381.1875 451 380.1875 451 L 229.40625 451 C 228.40625 451 227.40625 450 227.40625 449 L 227.40625 433 C 227.40625 432 228.40625 431 229.40625 431 L 237.40625 431 " class="clickable"/></g></g><g id="sprotty_ArchitectureBlockImpl$prim_generic_ram_2p/AlwaysBlockImpl$null15/GPortImpl$memOUT_to_ArchitectureBlockImpl$prim_generic_ram_2p/AlwaysBlockImpl$null16/GPortImpl$memIN" class="sprotty-edge thick edge" style="fill:none;stroke:rgb(112, 112, 112);stroke-linejoin:round;stroke-width:3px;"><g><path d="M 274.796875 381 L 282.796875 381 C 283.796875 381 284.796875 380 284.796875 379 L 284.796875 318 C 284.796875 317 285.796875 316 286.796875 316 L 334.796875 316 "/><path d="M 274.796875 381 L 282.796875 381 C 283.796875 381 284.796875 380 284.796875 379 L 284.796875 318 C 284.796875 317 285.796875 316 286.796875 316 L 334.796875 316 " class="clickable"/></g></g><g id="sprotty_ArchitectureBlockImpl$prim_generic_ram_2p/GenerateStatementBlockImpl$gen_wmask/GPortImpl$a_wmask_to_ArchitectureBlockImpl$prim_generic_ram_2p/AlwaysBlockImpl$null16/GPortImpl$a_wmaskIN" class="sprotty-edge thick edge" style="fill:none;stroke:rgb(112, 112, 112);stroke-linejoin:round;stroke-width:3px;"><g><path d="M 187.40625 306 L 334.796875 306 "/><path d="M 187.40625 306 L 334.796875 306 " class="clickable"/></g></g><g id="sprotty_ArchitectureBlockImpl$prim_generic_ram_2p/GenerateStatementBlockImpl$gen_wmask/GPortImpl$b_wmask_to_ArchitectureBlockImpl$prim_generic_ram_2p/AlwaysBlockImpl$null15/GPortImpl$b_wmaskIN" class="sprotty-edge thick edge" style="fill:none;stroke:rgb(112, 112, 112);stroke-linejoin:round;stroke-width:3px;"><g><path d="M 187.40625 264 L 215.40625 264 C 216.40625 264 217.40625 265 217.40625 266 L 217.40625 379 C 217.40625 380 218.40625 381 219.40625 381 L 237.40625 381 "/><path d="M 187.40625 264 L 215.40625 264 C 216.40625 264 217.40625 265 217.40625 266 L 217.40625 379 C 217.40625 380 218.40625 381 219.40625 381 L 237.40625 381 " class="clickable"/></g></g><g id="sprotty_ArchitectureBlockImpl$prim_generic_ram_2p/GenerateStatementBlockImpl$gen_wmask" transform="translate(84.90625, 218)" class="generate"><g class="sprotty-block sprotty-block-generate" style="fill:rgb(255, 255, 255);stroke:rgb(48, 48, 48);stroke-dasharray:0px;"><rect x="0" y="0" rx="1" ry="1" width="102.5" height="114" style="stroke-dasharray:3px, 1px;"/><text x="51.25" y="12" class="sprotty-block-name" style="cursor:pointer;font-weight:700;perspective-origin:51.4062px 0px;fill:rgb(48, 48, 48);stroke:rgba(0, 0, 0, 0);dominant-baseline:middle;text-anchor:middle;">gen_wmask</text><line x1="0" y1="20" x2="102.5" y2="20" style="stroke-dasharray:3px, 1px;"/></g><g id="sprotty_ArchitectureBlockImpl$prim_generic_ram_2p/GenerateStatementBlockImpl$gen_wmask/GPortImpl$a_wmask_i_to_ArchitectureBlockImpl$prim_generic_ram_2p/GenerateStatementBlockImpl$gen_wmask/AssignmentBlockImpl$a_wmask/GPortImpl$a_wmask_iIN" class="sprotty-edge thick edge" style="fill:none;stroke:rgb(112, 112, 112);stroke-linejoin:round;stroke-width:3px;"><g><path d="M 0 88 L 15 88 "/><path d="M 0 88 L 15 88 " class="clickable"/></g></g><g id="sprotty_ArchitectureBlockImpl$prim_generic_ram_2p/GenerateStatementBlockImpl$gen_wmask/GPortImpl$b_wmask_i_to_ArchitectureBlockImpl$prim_generic_ram_2p/GenerateStatementBlockImpl$gen_wmask/AssignmentBlockImpl$b_wmask/GPortImpl$b_wmask_iIN" class="sprotty-edge thick edge" style="fill:none;stroke:rgb(112, 112, 112);stroke-linejoin:round;stroke-width:3px;"><g><path d="M 0 46 L 15 46 "/><path d="M 0 46 L 15 46 " class="clickable"/></g></g><g id="sprotty_ArchitectureBlockImpl$prim_generic_ram_2p/GenerateStatementBlockImpl$gen_wmask/AssignmentBlockImpl$a_wmask/GPortImpl$a_wmaskOUT_to_ArchitectureBlockImpl$prim_generic_ram_2p/GenerateStatementBlockImpl$gen_wmask/GPortImpl$a_wmask" class="sprotty-edge thick edge" style="fill:none;stroke:rgb(112, 112, 112);stroke-linejoin:round;stroke-width:3px;"><g><path d="M 34.71875 88 L 102.5 88 "/><path d="M 34.71875 88 L 102.5 88 " class="clickable"/></g></g><g id="sprotty_ArchitectureBlockImpl$prim_generic_ram_2p/GenerateStatementBlockImpl$gen_wmask/AssignmentBlockImpl$b_wmask/GPortImpl$b_wmaskOUT_to_ArchitectureBlockImpl$prim_generic_ram_2p/GenerateStatementBlockImpl$gen_wmask/GPortImpl$b_wmask" class="sprotty-edge thick edge" style="fill:none;stroke:rgb(112, 112, 112);stroke-linejoin:round;stroke-width:3px;"><g><path d="M 34.71875 46 L 102.5 46 "/><path d="M 34.71875 46 L 102.5 46 " class="clickable"/></g></g><g id="sprotty_ArchitectureBlockImpl$prim_generic_ram_2p/GenerateStatementBlockImpl$gen_wmask/AssignmentBlockImpl$b_wmask" transform="translate(15, 35)" class="statement"><rect x="0" y="0" rx="10" ry="5" width="19.71875" height="22" class="sprotty-node" style="fill:rgb(245, 245, 245);stroke:rgb(112, 112, 112);"/><text class="clickable sprotty-label statementtype" id="sprotty_ArchitectureBlockImpl$prim_generic_ram_2p/GenerateStatementBlockImpl$gen_wmask/AssignmentBlockImpl$b_wmask/labeltype" transform="translate(5, 5) translate(4.71875, 9)" style="cursor:default;font-size:8px;font-weight:700;perspective-origin:0.140625px 0px;fill:rgb(112, 112, 112);text-anchor:middle;">&lt;=</text><g id="sprotty_ArchitectureBlockImpl$prim_generic_ram_2p/GenerateStatementBlockImpl$gen_wmask/AssignmentBlockImpl$b_wmask/GPortImpl$b_wmask_iIN" transform="translate(0, 11)" class="sprotty-hidden hidden" style="display:block;height:0px;width:0px;"/><g id="sprotty_ArchitectureBlockImpl$prim_generic_ram_2p/GenerateStatementBlockImpl$gen_wmask/AssignmentBlockImpl$b_wmask/GPortImpl$b_wmaskOUT" transform="translate(19.71875, 11)" class="sprotty-hidden hidden" style="display:block;height:0px;width:0px;"/></g><g id="sprotty_ArchitectureBlockImpl$prim_generic_ram_2p/GenerateStatementBlockImpl$gen_wmask/AssignmentBlockImpl$a_wmask" transform="translate(15, 77)" class="statement"><rect x="0" y="0" rx="10" ry="5" width="19.71875" height="22" class="sprotty-node" style="fill:rgb(245, 245, 245);stroke:rgb(112, 112, 112);"/><text class="clickable sprotty-label statementtype" id="sprotty_ArchitectureBlockImpl$prim_generic_ram_2p/GenerateStatementBlockImpl$gen_wmask/AssignmentBlockImpl$a_wmask/labeltype" transform="translate(5, 5) translate(4.71875, 9)" style="cursor:default;font-size:8px;font-weight:700;perspective-origin:0.140625px 0px;fill:rgb(112, 112, 112);text-anchor:middle;">&lt;=</text><g id="sprotty_ArchitectureBlockImpl$prim_generic_ram_2p/GenerateStatementBlockImpl$gen_wmask/AssignmentBlockImpl$a_wmask/GPortImpl$a_wmask_iIN" transform="translate(0, 11)" class="sprotty-hidden hidden" style="display:block;height:0px;width:0px;"/><g id="sprotty_ArchitectureBlockImpl$prim_generic_ram_2p/GenerateStatementBlockImpl$gen_wmask/AssignmentBlockImpl$a_wmask/GPortImpl$a_wmaskOUT" transform="translate(19.71875, 11)" class="sprotty-hidden hidden" style="display:block;height:0px;width:0px;"/></g><g id="sprotty_ArchitectureBlockImpl$prim_generic_ram_2p/GenerateStatementBlockImpl$gen_wmask/GPortImpl$b_wmask_i" transform="translate(0, 46)" class="triangle"><path d="M 0,0 L 5,2.5 L 0,5 Z" transform="translate(-1.67, -2.5)" class="sprotty-port" style="fill:rgb(48, 48, 48);stroke:rgb(48, 48, 48);"/></g><g id="sprotty_ArchitectureBlockImpl$prim_generic_ram_2p/GenerateStatementBlockImpl$gen_wmask/GPortImpl$a_wmask_i" transform="translate(0, 88)" class="triangle"><path d="M 0,0 L 5,2.5 L 0,5 Z" transform="translate(-1.67, -2.5)" class="sprotty-port" style="fill:rgb(48, 48, 48);stroke:rgb(48, 48, 48);"/></g><g id="sprotty_ArchitectureBlockImpl$prim_generic_ram_2p/GenerateStatementBlockImpl$gen_wmask/GPortImpl$a_wmask" transform="translate(102.5, 88)" class="triangle"><path d="M 0,0 L 5,2.5 L 0,5 Z" transform="translate(-1.67, -2.5)" class="sprotty-port" style="fill:rgb(48, 48, 48);stroke:rgb(48, 48, 48);"/></g><g id="sprotty_ArchitectureBlockImpl$prim_generic_ram_2p/GenerateStatementBlockImpl$gen_wmask/GPortImpl$b_wmask" transform="translate(102.5, 46)" class="triangle"><path d="M 0,0 L 5,2.5 L 0,5 Z" transform="translate(-1.67, -2.5)" class="sprotty-port" style="fill:rgb(48, 48, 48);stroke:rgb(48, 48, 48);"/></g></g><g id="sprotty_ArchitectureBlockImpl$prim_generic_ram_2p/AlwaysBlockImpl$null15" transform="translate(237.40625, 361)" class="statement"><rect x="0" y="0" rx="10" ry="5" width="37.390625" height="80" class="sprotty-node" style="fill:rgb(245, 245, 245);stroke:rgb(112, 112, 112);"/><text class="clickable sprotty-label statementtype" id="sprotty_ArchitectureBlockImpl$prim_generic_ram_2p/AlwaysBlockImpl$null15/labeltype" transform="translate(5, 34) translate(13.671875, 9)" style="cursor:default;font-size:8px;font-weight:700;perspective-origin:0.015625px 0px;fill:rgb(112, 112, 112);text-anchor:middle;">always</text><g id="sprotty_ArchitectureBlockImpl$prim_generic_ram_2p/AlwaysBlockImpl$null15/GPortImpl$memIN" transform="translate(0, 70)" class="sprotty-hidden hidden" style="display:block;height:0px;width:0px;"/><g id="sprotty_ArchitectureBlockImpl$prim_generic_ram_2p/AlwaysBlockImpl$null15/GPortImpl$b_addr_iIN" transform="translate(0, 60)" class="sprotty-hidden hidden" style="display:block;height:0px;width:0px;"/><g id="sprotty_ArchitectureBlockImpl$prim_generic_ram_2p/AlwaysBlockImpl$null15/GPortImpl$b_wdata_iIN" transform="translate(0, 30)" class="sprotty-hidden hidden" style="display:block;height:0px;width:0px;"/><g id="sprotty_ArchitectureBlockImpl$prim_generic_ram_2p/AlwaysBlockImpl$null15/GPortImpl$b_wmaskIN" transform="translate(0, 20)" class="sprotty-hidden hidden" style="display:block;height:0px;width:0px;"/><g id="sprotty_ArchitectureBlockImpl$prim_generic_ram_2p/AlwaysBlockImpl$null15/GPortImpl$b_write_iIN" transform="translate(0, 40)" class="sprotty-hidden hidden" style="display:block;height:0px;width:0px;"/><g id="sprotty_ArchitectureBlockImpl$prim_generic_ram_2p/AlwaysBlockImpl$null15/GPortImpl$b_req_iIN" transform="translate(0, 50)" class="sprotty-hidden hidden" style="display:block;height:0px;width:0px;"/><g id="sprotty_ArchitectureBlockImpl$prim_generic_ram_2p/AlwaysBlockImpl$null15/GPortImpl$clk_b_iIN" transform="translate(0, 10)" class="sprotty-hidden hidden" style="display:block;height:0px;width:0px;"/><g id="sprotty_ArchitectureBlockImpl$prim_generic_ram_2p/AlwaysBlockImpl$null15/GPortImpl$b_addr_iOUT" transform="translate(37.390625, 60)" class="sprotty-hidden hidden" style="display:block;height:0px;width:0px;"/><g id="sprotty_ArchitectureBlockImpl$prim_generic_ram_2p/AlwaysBlockImpl$null15/GPortImpl$memOUT" transform="translate(37.390625, 20)" class="sprotty-hidden hidden" style="display:block;height:0px;width:0px;"/><g id="sprotty_ArchitectureBlockImpl$prim_generic_ram_2p/AlwaysBlockImpl$null15/GPortImpl$b_rdata_oOUT" transform="translate(37.390625, 40)" class="sprotty-hidden hidden" style="display:block;height:0px;width:0px;"/></g><g id="sprotty_ArchitectureBlockImpl$prim_generic_ram_2p/AlwaysBlockImpl$null16" transform="translate(334.796875, 246)" class="statement"><rect x="0" y="0" rx="10" ry="5" width="37.390625" height="80" class="sprotty-node" style="fill:rgb(245, 245, 245);stroke:rgb(112, 112, 112);"/><text class="clickable sprotty-label statementtype" id="sprotty_ArchitectureBlockImpl$prim_generic_ram_2p/AlwaysBlockImpl$null16/labeltype" transform="translate(5, 34) translate(13.671875, 9)" style="cursor:default;font-size:8px;font-weight:700;perspective-origin:0.015625px 0px;fill:rgb(112, 112, 112);text-anchor:middle;">always</text><g id="sprotty_ArchitectureBlockImpl$prim_generic_ram_2p/AlwaysBlockImpl$null16/GPortImpl$memIN" transform="translate(0, 70)" class="sprotty-hidden hidden" style="display:block;height:0px;width:0px;"/><g id="sprotty_ArchitectureBlockImpl$prim_generic_ram_2p/AlwaysBlockImpl$null16/GPortImpl$a_addr_iIN" transform="translate(0, 30)" class="sprotty-hidden hidden" style="display:block;height:0px;width:0px;"/><g id="sprotty_ArchitectureBlockImpl$prim_generic_ram_2p/AlwaysBlockImpl$null16/GPortImpl$a_wdata_iIN" transform="translate(0, 20)" class="sprotty-hidden hidden" style="display:block;height:0px;width:0px;"/><g id="sprotty_ArchitectureBlockImpl$prim_generic_ram_2p/AlwaysBlockImpl$null16/GPortImpl$a_wmaskIN" transform="translate(0, 60)" class="sprotty-hidden hidden" style="display:block;height:0px;width:0px;"/><g id="sprotty_ArchitectureBlockImpl$prim_generic_ram_2p/AlwaysBlockImpl$null16/GPortImpl$a_write_iIN" transform="translate(0, 40)" class="sprotty-hidden hidden" style="display:block;height:0px;width:0px;"/><g id="sprotty_ArchitectureBlockImpl$prim_generic_ram_2p/AlwaysBlockImpl$null16/GPortImpl$a_req_iIN" transform="translate(0, 50)" class="sprotty-hidden hidden" style="display:block;height:0px;width:0px;"/><g id="sprotty_ArchitectureBlockImpl$prim_generic_ram_2p/AlwaysBlockImpl$null16/GPortImpl$clk_a_iIN" transform="translate(0, 10)" class="sprotty-hidden hidden" style="display:block;height:0px;width:0px;"/><g id="sprotty_ArchitectureBlockImpl$prim_generic_ram_2p/AlwaysBlockImpl$null16/GPortImpl$a_addr_iOUT" transform="translate(37.390625, 20)" class="sprotty-hidden hidden" style="display:block;height:0px;width:0px;"/><g id="sprotty_ArchitectureBlockImpl$prim_generic_ram_2p/AlwaysBlockImpl$null16/GPortImpl$memOUT" transform="translate(37.390625, 60)" class="sprotty-hidden hidden" style="display:block;height:0px;width:0px;"/><g id="sprotty_ArchitectureBlockImpl$prim_generic_ram_2p/AlwaysBlockImpl$null16/GPortImpl$a_rdata_oOUT" transform="translate(37.390625, 40)" class="sprotty-hidden hidden" style="display:block;height:0px;width:0px;"/></g><g id="sprotty_ArchitectureBlockImpl$prim_generic_ram_2p/BPortImpl$b_wmask_i" transform="translate(0, 264)" class="triangle"><path d="M 0,0 L 5,2.5 L 0,5 Z" transform="translate(-1.67, -2.5)" class="sprotty-port" style="fill:rgb(48, 48, 48);stroke:rgb(48, 48, 48);"/><text class="clickable sprotty-label port" id="sprotty_ArchitectureBlockImpl$prim_generic_ram_2p/BPortImpl$b_wmask_i/label" transform="translate(6, 6) translate(31.953125, 14)" style="cursor:default;font-size:12px;perspective-origin:0px 0px;fill:rgb(48, 48, 48);text-anchor:middle;">b_wmask_i</text></g><g id="sprotty_ArchitectureBlockImpl$prim_generic_ram_2p/BPortImpl$b_wdata_i" transform="translate(0, 343)" class="triangle"><path d="M 0,0 L 5,2.5 L 0,5 Z" transform="translate(-1.67, -2.5)" class="sprotty-port" style="fill:rgb(48, 48, 48);stroke:rgb(48, 48, 48);"/><text class="clickable sprotty-label port" id="sprotty_ArchitectureBlockImpl$prim_generic_ram_2p/BPortImpl$b_wdata_i/label" transform="translate(6, 6) translate(29.375, 14)" style="cursor:default;font-size:12px;perspective-origin:0px 0px;fill:rgb(48, 48, 48);text-anchor:middle;">b_wdata_i</text></g><g id="sprotty_ArchitectureBlockImpl$prim_generic_ram_2p/BPortImpl$b_addr_i" transform="translate(0, 458)" class="triangle"><path d="M 0,0 L 5,2.5 L 0,5 Z" transform="translate(-1.67, -2.5)" class="sprotty-port" style="fill:rgb(48, 48, 48);stroke:rgb(48, 48, 48);"/><text class="clickable sprotty-label port" id="sprotty_ArchitectureBlockImpl$prim_generic_ram_2p/BPortImpl$b_addr_i/label" transform="translate(6, 6) translate(25.21875, 14)" style="cursor:default;font-size:12px;perspective-origin:0px 0px;fill:rgb(48, 48, 48);text-anchor:middle;">b_addr_i</text></g><g id="sprotty_ArchitectureBlockImpl$prim_generic_ram_2p/BPortImpl$b_write_i" transform="translate(0, 377)" class="triangle"><path d="M 0,0 L 5,2.5 L 0,5 Z" transform="translate(-1.67, -2.5)" class="sprotty-port" style="fill:rgb(48, 48, 48);stroke:rgb(48, 48, 48);"/><text class="clickable sprotty-label port" id="sprotty_ArchitectureBlockImpl$prim_generic_ram_2p/BPortImpl$b_write_i/label" transform="translate(6, 6) translate(26.359375, 14)" style="cursor:default;font-size:12px;perspective-origin:0px 0px;fill:rgb(48, 48, 48);text-anchor:middle;">b_write_i</text></g><g id="sprotty_ArchitectureBlockImpl$prim_generic_ram_2p/BPortImpl$b_req_i" transform="translate(0, 411)" class="triangle"><path d="M 0,0 L 5,2.5 L 0,5 Z" transform="translate(-1.67, -2.5)" class="sprotty-port" style="fill:rgb(48, 48, 48);stroke:rgb(48, 48, 48);"/><text class="clickable sprotty-label port" id="sprotty_ArchitectureBlockImpl$prim_generic_ram_2p/BPortImpl$b_req_i/label" transform="translate(6, 6) translate(21.375, 14)" style="cursor:default;font-size:12px;perspective-origin:0px 0px;fill:rgb(48, 48, 48);text-anchor:middle;">b_req_i</text></g><g id="sprotty_ArchitectureBlockImpl$prim_generic_ram_2p/BPortImpl$a_wmask_i" transform="translate(0, 306)" class="triangle"><path d="M 0,0 L 5,2.5 L 0,5 Z" transform="translate(-1.67, -2.5)" class="sprotty-port" style="fill:rgb(48, 48, 48);stroke:rgb(48, 48, 48);"/><text class="clickable sprotty-label port" id="sprotty_ArchitectureBlockImpl$prim_generic_ram_2p/BPortImpl$a_wmask_i/label" transform="translate(6, 6) translate(31.625, 14)" style="cursor:default;font-size:12px;perspective-origin:0px 0px;fill:rgb(48, 48, 48);text-anchor:middle;">a_wmask_i</text></g><g id="sprotty_ArchitectureBlockImpl$prim_generic_ram_2p/BPortImpl$a_wdata_i" transform="translate(0, 70)" class="triangle"><path d="M 0,0 L 5,2.5 L 0,5 Z" transform="translate(-1.67, -2.5)" class="sprotty-port" style="fill:rgb(48, 48, 48);stroke:rgb(48, 48, 48);"/><text class="clickable sprotty-label port" id="sprotty_ArchitectureBlockImpl$prim_generic_ram_2p/BPortImpl$a_wdata_i/label" transform="translate(6, 6) translate(29.046875, 14)" style="cursor:default;font-size:12px;perspective-origin:0px 0px;fill:rgb(48, 48, 48);text-anchor:middle;">a_wdata_i</text></g><g id="sprotty_ArchitectureBlockImpl$prim_generic_ram_2p/BPortImpl$a_addr_i" transform="translate(0, 104)" class="triangle"><path d="M 0,0 L 5,2.5 L 0,5 Z" transform="translate(-1.67, -2.5)" class="sprotty-port" style="fill:rgb(48, 48, 48);stroke:rgb(48, 48, 48);"/><text class="clickable sprotty-label port" id="sprotty_ArchitectureBlockImpl$prim_generic_ram_2p/BPortImpl$a_addr_i/label" transform="translate(6, 6) translate(24.90625, 14)" style="cursor:default;font-size:12px;perspective-origin:0px 0px;fill:rgb(48, 48, 48);text-anchor:middle;">a_addr_i</text></g><g id="sprotty_ArchitectureBlockImpl$prim_generic_ram_2p/BPortImpl$a_write_i" transform="translate(0, 138)" class="triangle"><path d="M 0,0 L 5,2.5 L 0,5 Z" transform="translate(-1.67, -2.5)" class="sprotty-port" style="fill:rgb(48, 48, 48);stroke:rgb(48, 48, 48);"/><text class="clickable sprotty-label port" id="sprotty_ArchitectureBlockImpl$prim_generic_ram_2p/BPortImpl$a_write_i/label" transform="translate(6, 6) translate(26.03125, 14)" style="cursor:default;font-size:12px;perspective-origin:0px 0px;fill:rgb(48, 48, 48);text-anchor:middle;">a_write_i</text></g><g id="sprotty_ArchitectureBlockImpl$prim_generic_ram_2p/BPortImpl$a_req_i" transform="translate(0, 172)" class="triangle"><path d="M 0,0 L 5,2.5 L 0,5 Z" transform="translate(-1.67, -2.5)" class="sprotty-port" style="fill:rgb(48, 48, 48);stroke:rgb(48, 48, 48);"/><text class="clickable sprotty-label port" id="sprotty_ArchitectureBlockImpl$prim_generic_ram_2p/BPortImpl$a_req_i/label" transform="translate(6, 6) translate(21.0625, 14)" style="cursor:default;font-size:12px;perspective-origin:0px 0px;fill:rgb(48, 48, 48);text-anchor:middle;">a_req_i</text></g><g id="sprotty_ArchitectureBlockImpl$prim_generic_ram_2p/BPortImpl$clk_b_i" transform="translate(0, 206)" class="triangle"><path d="M 0,0 L 5,2.5 L 0,5 Z" transform="translate(-1.67, -2.5)" class="sprotty-port" style="fill:rgb(48, 48, 48);stroke:rgb(48, 48, 48);"/><text class="clickable sprotty-label port" id="sprotty_ArchitectureBlockImpl$prim_generic_ram_2p/BPortImpl$clk_b_i/label" transform="translate(6, 6) translate(20.15625, 14)" style="cursor:default;font-size:12px;perspective-origin:0px 0px;fill:rgb(48, 48, 48);text-anchor:middle;">clk_b_i</text></g><g id="sprotty_ArchitectureBlockImpl$prim_generic_ram_2p/BPortImpl$clk_a_i" transform="translate(0, 36)" class="triangle"><path d="M 0,0 L 5,2.5 L 0,5 Z" transform="translate(-1.67, -2.5)" class="sprotty-port" style="fill:rgb(48, 48, 48);stroke:rgb(48, 48, 48);"/><text class="clickable sprotty-label port" id="sprotty_ArchitectureBlockImpl$prim_generic_ram_2p/BPortImpl$clk_a_i/label" transform="translate(6, 6) translate(19.828125, 14)" style="cursor:default;font-size:12px;perspective-origin:0px 0px;fill:rgb(48, 48, 48);text-anchor:middle;">clk_a_i</text></g><g id="sprotty_ArchitectureBlockImpl$prim_generic_ram_2p/BPortImpl$a_rdata_o" transform="translate(470.875, 286)" class="triangle"><path d="M 0,0 L 5,2.5 L 0,5 Z" transform="translate(-1.67, -2.5)" class="sprotty-port" style="fill:rgb(48, 48, 48);stroke:rgb(48, 48, 48);"/><text class="clickable sprotty-label port" id="sprotty_ArchitectureBlockImpl$prim_generic_ram_2p/BPortImpl$a_rdata_o/label" transform="translate(-63.03125, 6) translate(28.515625, 14)" style="cursor:default;font-size:12px;perspective-origin:0px 0px;fill:rgb(48, 48, 48);text-anchor:middle;">a_rdata_o</text></g><g id="sprotty_ArchitectureBlockImpl$prim_generic_ram_2p/BPortImpl$b_rdata_o" transform="translate(470.875, 401)" class="triangle"><path d="M 0,0 L 5,2.5 L 0,5 Z" transform="translate(-1.67, -2.5)" class="sprotty-port" style="fill:rgb(48, 48, 48);stroke:rgb(48, 48, 48);"/><text class="clickable sprotty-label port" id="sprotty_ArchitectureBlockImpl$prim_generic_ram_2p/BPortImpl$b_rdata_o/label" transform="translate(-63.6875, 6) translate(28.84375, 14)" style="cursor:default;font-size:12px;perspective-origin:0px 0px;fill:rgb(48, 48, 48);text-anchor:middle;">b_rdata_o</text></g></g></g></svg>