<svg xmlns="http://www.w3.org/2000/svg" id="sprotty_work.ibex_branch_predict" class="sprotty-graph sprotty-block-diagram blockdiagram" style="font-family:&quot;Noto Sans&quot;, Helvetica, Arial, sans-serif;perspective-origin:0px 0px;transform-origin:0px 0px;" version="1.1" viewBox="7 7 527.09375 559" width="527.09375" height="559"><g transform="scale(1) translate(0,0)"><g id="sprotty_ArchitectureBlockImpl$ibex_branch_predict" transform="translate(12, 12)" class="architecture"><g class="sprotty-block" style="fill:rgb(255, 255, 255);stroke:rgb(48, 48, 48);stroke-dasharray:0px;"><rect x="0" y="0" rx="1" ry="1" width="517.09375" height="549"/><text x="258.546875" y="12" class="sprotty-block-name" style="cursor:pointer;font-weight:700;perspective-origin:258.688px 0px;fill:rgb(48, 48, 48);stroke:rgba(0, 0, 0, 0);dominant-baseline:middle;text-anchor:middle;">ibex_branch_predict</text><line x1="0" y1="20" x2="517.09375" y2="20"/></g><g id="sprotty_ArchitectureBlockImpl$ibex_branch_predict/AssignmentBlockImpl$predict_branch_taken_o/GPortImpl$predict_branch_taken_oOUT_to_ArchitectureBlockImpl$ibex_branch_predict/BPortImpl$predict_branch_taken_o" class="sprotty-edge edge" style="fill:none;stroke:rgb(112, 112, 112);stroke-linejoin:round;"><g><path d="M 358.21875 407 L 517.09375 407 "/><path d="M 358.21875 407 L 517.09375 407 " class="clickable"/></g></g><g id="sprotty_ArchitectureBlockImpl$ibex_branch_predict/AssignmentBlockImpl$predict_branch_pc_o/GPortImpl$predict_branch_pc_oOUT_to_ArchitectureBlockImpl$ibex_branch_predict/BPortImpl$predict_branch_pc_o" class="sprotty-edge thick edge" style="fill:none;stroke:rgb(112, 112, 112);stroke-linejoin:round;stroke-width:3px;"><g><path d="M 358.21875 281 L 517.09375 281 "/><path d="M 358.21875 281 L 517.09375 281 " class="clickable"/></g></g><g id="sprotty_ArchitectureBlockImpl$ibex_branch_predict/BPortImpl$fetch_rdata_i_to_ArchitectureBlockImpl$ibex_branch_predict/AssignmentBlockImpl$instr/GPortImpl$fetch_rdata_iIN" class="sprotty-edge thick edge" style="fill:none;stroke:rgb(112, 112, 112);stroke-linejoin:round;stroke-width:3px;"><g><path d="M 0 227 L 95.3125 227 "/><path d="M 0 227 L 95.3125 227 " class="clickable"/></g></g><g id="sprotty_ArchitectureBlockImpl$ibex_branch_predict/BPortImpl$fetch_valid_i_to_ArchitectureBlockImpl$ibex_branch_predict/AssignmentBlockImpl$predict_branch_taken_o/GPortImpl$fetch_valid_iIN" class="sprotty-edge edge" style="fill:none;stroke:rgb(112, 112, 112);stroke-linejoin:round;"><g><path d="M 0 422 L 338.5 422 "/><path d="M 0 422 L 338.5 422 " class="clickable"/></g></g><g id="sprotty_ArchitectureBlockImpl$ibex_branch_predict/BPortImpl$fetch_pc_i_to_ArchitectureBlockImpl$ibex_branch_predict/AssignmentBlockImpl$predict_branch_pc_o/GPortImpl$fetch_pc_iIN" class="sprotty-edge thick edge" style="fill:none;stroke:rgb(112, 112, 112);stroke-linejoin:round;stroke-width:3px;"><g><path d="M 0 36 L 326.5 36 C 327.5 36 328.5 37 328.5 38 L 328.5 274 C 328.5 275 329.5 276 330.5 276 L 338.5 276 "/><path d="M 0 36 L 326.5 36 C 327.5 36 328.5 37 328.5 38 L 328.5 274 C 328.5 275 329.5 276 330.5 276 L 338.5 276 " class="clickable"/></g></g><g id="sprotty_ArchitectureBlockImpl$ibex_branch_predict/AssignmentBlockImpl$imm_j_type/GPortImpl$instrOUT_to_ArchitectureBlockImpl$ibex_branch_predict/AlwaysBlockImpl$null7/GPortImpl$imm_j_typeIN" class="sprotty-edge thick edge" style="fill:none;stroke:rgb(112, 112, 112);stroke-linejoin:round;stroke-width:3px;"><g><path d="M 154.75 101 L 212.75 101 C 213.75 101 214.75 102 214.75 103 L 214.75 259 C 214.75 260 215.75 261 216.75 261 L 234.75 261 "/><path d="M 154.75 101 L 212.75 101 C 213.75 101 214.75 102 214.75 103 L 214.75 259 C 214.75 260 215.75 261 216.75 261 L 234.75 261 " class="clickable"/></g></g><g id="sprotty_ArchitectureBlockImpl$ibex_branch_predict/AssignmentBlockImpl$imm_b_type/GPortImpl$instrOUT_to_ArchitectureBlockImpl$ibex_branch_predict/AssignmentBlockImpl$instr_b_taken/GPortImpl$imm_b_typeIN" class="sprotty-edge thick edge" style="fill:none;stroke:rgb(112, 112, 112);stroke-linejoin:round;stroke-width:3px;"><g><path d="M 154.75 227 L 182.75 227 C 183.75 227 184.75 228 184.75 229 L 184.75 369 C 184.75 370 185.75 371 186.75 371 L 243.55625 371 "/><path d="M 154.75 227 L 182.75 227 C 183.75 227 184.75 228 184.75 229 L 184.75 369 C 184.75 370 185.75 371 186.75 371 L 243.55625 371 " class="clickable"/></g></g><g id="sprotty_ArchitectureBlockImpl$ibex_branch_predict/AssignmentBlockImpl$imm_b_type/GPortImpl$instrOUT_to_ArchitectureBlockImpl$ibex_branch_predict/AlwaysBlockImpl$null7/GPortImpl$imm_b_typeIN" class="sprotty-edge thick edge" style="fill:none;stroke:rgb(112, 112, 112);stroke-linejoin:round;stroke-width:3px;"><g><path d="M 154.75 227 L 182.75 227 C 183.75 227 184.75 228 184.75 229 L 184.75 289 C 184.75 290 185.75 291 186.75 291 L 234.75 291 "/><path d="M 154.75 227 L 182.75 227 C 183.75 227 184.75 228 184.75 229 L 184.75 289 C 184.75 290 185.75 291 186.75 291 L 234.75 291 " class="clickable"/></g><circle r="3" id="sprotty_ArchitectureBlockImpl$ibex_branch_predict/AssignmentBlockImpl$imm_b_type/GPortImpl$instrOUT_to_ArchitectureBlockImpl$ibex_branch_predict/AlwaysBlockImpl$null7/GPortImpl$imm_b_typeIN/junction0" transform="translate(184.75, 291)" class="sprotty-junction thick" style="fill:rgb(112, 112, 112);stroke:none;"/></g><g id="sprotty_ArchitectureBlockImpl$ibex_branch_predict/AssignmentBlockImpl$imm_cj_type/GPortImpl$instrOUT_to_ArchitectureBlockImpl$ibex_branch_predict/AlwaysBlockImpl$null7/GPortImpl$imm_cj_typeIN" class="sprotty-edge thick edge" style="fill:none;stroke:rgb(112, 112, 112);stroke-linejoin:round;stroke-width:3px;"><g><path d="M 154.75 143 L 202.75 143 C 203.75 143 204.75 144 204.75 145 L 204.75 269 C 204.75 270 205.75 271 206.75 271 L 234.75 271 "/><path d="M 154.75 143 L 202.75 143 C 203.75 143 204.75 144 204.75 145 L 204.75 269 C 204.75 270 205.75 271 206.75 271 L 234.75 271 " class="clickable"/></g></g><g id="sprotty_ArchitectureBlockImpl$ibex_branch_predict/AssignmentBlockImpl$imm_cb_type/GPortImpl$instrOUT_to_ArchitectureBlockImpl$ibex_branch_predict/AssignmentBlockImpl$instr_b_taken/GPortImpl$imm_cb_typeIN" class="sprotty-edge thick edge" style="fill:none;stroke:rgb(112, 112, 112);stroke-linejoin:round;stroke-width:3px;"><g><path d="M 154.75 185 L 192.75 185 C 193.75 185 194.75 186 194.75 187 L 194.75 359 C 194.75 360 195.75 361 196.75 361 L 243.55625 361 "/><path d="M 154.75 185 L 192.75 185 C 193.75 185 194.75 186 194.75 187 L 194.75 359 C 194.75 360 195.75 361 196.75 361 L 243.55625 361 " class="clickable"/></g></g><g id="sprotty_ArchitectureBlockImpl$ibex_branch_predict/AssignmentBlockImpl$imm_cb_type/GPortImpl$instrOUT_to_ArchitectureBlockImpl$ibex_branch_predict/AlwaysBlockImpl$null7/GPortImpl$imm_cb_typeIN" class="sprotty-edge thick edge" style="fill:none;stroke:rgb(112, 112, 112);stroke-linejoin:round;stroke-width:3px;"><g><path d="M 154.75 185 L 192.75 185 C 193.75 185 194.75 186 194.75 187 L 194.75 279 C 194.75 280 195.75 281 196.75 281 L 234.75 281 "/><path d="M 154.75 185 L 192.75 185 C 193.75 185 194.75 186 194.75 187 L 194.75 279 C 194.75 280 195.75 281 196.75 281 L 234.75 281 " class="clickable"/></g><circle r="3" id="sprotty_ArchitectureBlockImpl$ibex_branch_predict/AssignmentBlockImpl$imm_cb_type/GPortImpl$instrOUT_to_ArchitectureBlockImpl$ibex_branch_predict/AlwaysBlockImpl$null7/GPortImpl$imm_cb_typeIN/junction0" transform="translate(194.75, 281)" class="sprotty-junction thick" style="fill:rgb(112, 112, 112);stroke:none;"/></g><g id="sprotty_ArchitectureBlockImpl$ibex_branch_predict/AlwaysBlockImpl$null7/GPortImpl$branch_immOUT_to_ArchitectureBlockImpl$ibex_branch_predict/AssignmentBlockImpl$predict_branch_pc_o/GPortImpl$branch_immIN" class="sprotty-edge thick edge" style="fill:none;stroke:rgb(112, 112, 112);stroke-linejoin:round;stroke-width:3px;"><g><path d="M 298.5 286 L 338.5 286 "/><path d="M 298.5 286 L 338.5 286 " class="clickable"/></g></g><g id="sprotty_ArchitectureBlockImpl$ibex_branch_predict/AssignmentBlockImpl$instr/GPortImpl$instrOUT_to_ArchitectureBlockImpl$ibex_branch_predict/AssignmentBlockImpl$imm_j_type/GPortImpl$instrIN" class="sprotty-edge thick edge" style="fill:none;stroke:rgb(112, 112, 112);stroke-linejoin:round;stroke-width:3px;"><g><path d="M 115.03125 227 L 123.03125 227 C 124.03125 227 125.03125 226 125.03125 225 L 125.03125 103 C 125.03125 102 126.03125 101 127.03125 101 L 135.03125 101 "/><path d="M 115.03125 227 L 123.03125 227 C 124.03125 227 125.03125 226 125.03125 225 L 125.03125 103 C 125.03125 102 126.03125 101 127.03125 101 L 135.03125 101 " class="clickable"/></g><circle r="3" id="sprotty_ArchitectureBlockImpl$ibex_branch_predict/AssignmentBlockImpl$instr/GPortImpl$instrOUT_to_ArchitectureBlockImpl$ibex_branch_predict/AssignmentBlockImpl$imm_j_type/GPortImpl$instrIN/junction0" transform="translate(125.03125, 227)" class="sprotty-junction thick" style="fill:rgb(112, 112, 112);stroke:none;"/><circle r="3" id="sprotty_ArchitectureBlockImpl$ibex_branch_predict/AssignmentBlockImpl$instr/GPortImpl$instrOUT_to_ArchitectureBlockImpl$ibex_branch_predict/AssignmentBlockImpl$imm_j_type/GPortImpl$instrIN/junction1" transform="translate(125.03125, 101)" class="sprotty-junction thick" style="fill:rgb(112, 112, 112);stroke:none;"/></g><g id="sprotty_ArchitectureBlockImpl$ibex_branch_predict/AssignmentBlockImpl$instr/GPortImpl$instrOUT_to_ArchitectureBlockImpl$ibex_branch_predict/AssignmentBlockImpl$imm_b_type/GPortImpl$instrIN" class="sprotty-edge thick edge" style="fill:none;stroke:rgb(112, 112, 112);stroke-linejoin:round;stroke-width:3px;"><g><path d="M 115.03125 227 L 135.03125 227 "/><path d="M 115.03125 227 L 135.03125 227 " class="clickable"/></g></g><g id="sprotty_ArchitectureBlockImpl$ibex_branch_predict/AssignmentBlockImpl$instr/GPortImpl$instrOUT_to_ArchitectureBlockImpl$ibex_branch_predict/AssignmentBlockImpl$imm_cj_type/GPortImpl$instrIN" class="sprotty-edge thick edge" style="fill:none;stroke:rgb(112, 112, 112);stroke-linejoin:round;stroke-width:3px;"><g><path d="M 115.03125 227 L 123.03125 227 C 124.03125 227 125.03125 226 125.03125 225 L 125.03125 145 C 125.03125 144 126.03125 143 127.03125 143 L 135.03125 143 "/><path d="M 115.03125 227 L 123.03125 227 C 124.03125 227 125.03125 226 125.03125 225 L 125.03125 145 C 125.03125 144 126.03125 143 127.03125 143 L 135.03125 143 " class="clickable"/></g><circle r="3" id="sprotty_ArchitectureBlockImpl$ibex_branch_predict/AssignmentBlockImpl$instr/GPortImpl$instrOUT_to_ArchitectureBlockImpl$ibex_branch_predict/AssignmentBlockImpl$imm_cj_type/GPortImpl$instrIN/junction0" transform="translate(125.03125, 143)" class="sprotty-junction thick" style="fill:rgb(112, 112, 112);stroke:none;"/></g><g id="sprotty_ArchitectureBlockImpl$ibex_branch_predict/AssignmentBlockImpl$instr/GPortImpl$instrOUT_to_ArchitectureBlockImpl$ibex_branch_predict/AssignmentBlockImpl$imm_cb_type/GPortImpl$instrIN" class="sprotty-edge thick edge" style="fill:none;stroke:rgb(112, 112, 112);stroke-linejoin:round;stroke-width:3px;"><g><path d="M 115.03125 227 L 123.03125 227 C 124.03125 227 125.03125 226 125.03125 225 L 125.03125 187 C 125.03125 186 126.03125 185 127.03125 185 L 135.03125 185 "/><path d="M 115.03125 227 L 123.03125 227 C 124.03125 227 125.03125 226 125.03125 225 L 125.03125 187 C 125.03125 186 126.03125 185 127.03125 185 L 135.03125 185 " class="clickable"/></g><circle r="3" id="sprotty_ArchitectureBlockImpl$ibex_branch_predict/AssignmentBlockImpl$instr/GPortImpl$instrOUT_to_ArchitectureBlockImpl$ibex_branch_predict/AssignmentBlockImpl$imm_cb_type/GPortImpl$instrIN/junction0" transform="translate(125.03125, 185)" class="sprotty-junction thick" style="fill:rgb(112, 112, 112);stroke:none;"/></g><g id="sprotty_ArchitectureBlockImpl$ibex_branch_predict/AssignmentBlockImpl$instr/GPortImpl$instrOUT_to_ArchitectureBlockImpl$ibex_branch_predict/AssignmentBlockImpl$instr_b/GPortImpl$instrIN" class="sprotty-edge thick edge" style="fill:none;stroke:rgb(112, 112, 112);stroke-linejoin:round;stroke-width:3px;"><g><path d="M 115.03125 227 L 123.03125 227 C 124.03125 227 125.03125 228 125.03125 229 L 125.03125 389 C 125.03125 390 126.03125 391 127.03125 391 L 135.03125 391 "/><path d="M 115.03125 227 L 123.03125 227 C 124.03125 227 125.03125 228 125.03125 229 L 125.03125 389 C 125.03125 390 126.03125 391 127.03125 391 L 135.03125 391 " class="clickable"/></g></g><g id="sprotty_ArchitectureBlockImpl$ibex_branch_predict/AssignmentBlockImpl$instr/GPortImpl$instrOUT_to_ArchitectureBlockImpl$ibex_branch_predict/AssignmentBlockImpl$instr_j/GPortImpl$instrIN" class="sprotty-edge thick edge" style="fill:none;stroke:rgb(112, 112, 112);stroke-linejoin:round;stroke-width:3px;"><g><path d="M 115.03125 227 L 123.03125 227 C 124.03125 227 125.03125 226 125.03125 225 L 125.03125 61 C 125.03125 60 126.03125 59 127.03125 59 L 135.03125 59 "/><path d="M 115.03125 227 L 123.03125 227 C 124.03125 227 125.03125 226 125.03125 225 L 125.03125 61 C 125.03125 60 126.03125 59 127.03125 59 L 135.03125 59 " class="clickable"/></g></g><g id="sprotty_ArchitectureBlockImpl$ibex_branch_predict/AssignmentBlockImpl$instr/GPortImpl$instrOUT_to_ArchitectureBlockImpl$ibex_branch_predict/AssignmentBlockImpl$instr_cb/GPortImpl$instrIN" class="sprotty-edge thick edge" style="fill:none;stroke:rgb(112, 112, 112);stroke-linejoin:round;stroke-width:3px;"><g><path d="M 115.03125 227 L 123.03125 227 C 124.03125 227 125.03125 228 125.03125 229 L 125.03125 267 C 125.03125 268 126.03125 269 127.03125 269 L 135.03125 269 "/><path d="M 115.03125 227 L 123.03125 227 C 124.03125 227 125.03125 228 125.03125 229 L 125.03125 267 C 125.03125 268 126.03125 269 127.03125 269 L 135.03125 269 " class="clickable"/></g><circle r="3" id="sprotty_ArchitectureBlockImpl$ibex_branch_predict/AssignmentBlockImpl$instr/GPortImpl$instrOUT_to_ArchitectureBlockImpl$ibex_branch_predict/AssignmentBlockImpl$instr_cb/GPortImpl$instrIN/junction0" transform="translate(125.03125, 269)" class="sprotty-junction thick" style="fill:rgb(112, 112, 112);stroke:none;"/></g><g id="sprotty_ArchitectureBlockImpl$ibex_branch_predict/AssignmentBlockImpl$instr/GPortImpl$instrOUT_to_ArchitectureBlockImpl$ibex_branch_predict/AssignmentBlockImpl$instr_cj/GPortImpl$instrIN" class="sprotty-edge thick edge" style="fill:none;stroke:rgb(112, 112, 112);stroke-linejoin:round;stroke-width:3px;"><g><path d="M 115.03125 227 L 123.03125 227 C 124.03125 227 125.03125 228 125.03125 229 L 125.03125 309 C 125.03125 310 126.03125 311 127.03125 311 L 135.03125 311 "/><path d="M 115.03125 227 L 123.03125 227 C 124.03125 227 125.03125 228 125.03125 229 L 125.03125 309 C 125.03125 310 126.03125 311 127.03125 311 L 135.03125 311 " class="clickable"/></g><circle r="3" id="sprotty_ArchitectureBlockImpl$ibex_branch_predict/AssignmentBlockImpl$instr/GPortImpl$instrOUT_to_ArchitectureBlockImpl$ibex_branch_predict/AssignmentBlockImpl$instr_cj/GPortImpl$instrIN/junction0" transform="translate(125.03125, 311)" class="sprotty-junction thick" style="fill:rgb(112, 112, 112);stroke:none;"/></g><g id="sprotty_ArchitectureBlockImpl$ibex_branch_predict/AssignmentBlockImpl$instr_j/GPortImpl$instrOUT_to_ArchitectureBlockImpl$ibex_branch_predict/AssignmentBlockImpl$predict_branch_taken_o/GPortImpl$instr_jIN" class="sprotty-edge thick edge" style="fill:none;stroke:rgb(112, 112, 112);stroke-linejoin:round;stroke-width:3px;"><g><path d="M 154.75 59 L 316.5 59 C 317.5 59 318.5 60 318.5 61 L 318.5 390 C 318.5 391 319.5 392 320.5 392 L 338.5 392 "/><path d="M 154.75 59 L 316.5 59 C 317.5 59 318.5 60 318.5 61 L 318.5 390 C 318.5 391 319.5 392 320.5 392 L 338.5 392 " class="clickable"/></g></g><g id="sprotty_ArchitectureBlockImpl$ibex_branch_predict/AssignmentBlockImpl$instr_j/GPortImpl$instrOUT_to_ArchitectureBlockImpl$ibex_branch_predict/AlwaysBlockImpl$null7/GPortImpl$instr_jIN" class="sprotty-edge thick edge" style="fill:none;stroke:rgb(112, 112, 112);stroke-linejoin:round;stroke-width:3px;"><g><path d="M 154.75 59 L 222.75 59 C 223.75 59 224.75 60 224.75 61 L 224.75 249 C 224.75 250 225.75 251 226.75 251 L 234.75 251 "/><path d="M 154.75 59 L 222.75 59 C 223.75 59 224.75 60 224.75 61 L 224.75 249 C 224.75 250 225.75 251 226.75 251 L 234.75 251 " class="clickable"/></g><circle r="3" id="sprotty_ArchitectureBlockImpl$ibex_branch_predict/AssignmentBlockImpl$instr_j/GPortImpl$instrOUT_to_ArchitectureBlockImpl$ibex_branch_predict/AlwaysBlockImpl$null7/GPortImpl$instr_jIN/junction0" transform="translate(224.75, 59)" class="sprotty-junction thick" style="fill:rgb(112, 112, 112);stroke:none;"/></g><g id="sprotty_ArchitectureBlockImpl$ibex_branch_predict/AssignmentBlockImpl$instr_b/GPortImpl$instrOUT_to_ArchitectureBlockImpl$ibex_branch_predict/AssignmentBlockImpl$instr_b_taken/GPortImpl$instr_bIN" class="sprotty-edge thick edge" style="fill:none;stroke:rgb(112, 112, 112);stroke-linejoin:round;stroke-width:3px;"><g><path d="M 154.75 391 L 243.55625 391 "/><path d="M 154.75 391 L 243.55625 391 " class="clickable"/></g></g><g id="sprotty_ArchitectureBlockImpl$ibex_branch_predict/AssignmentBlockImpl$instr_b/GPortImpl$instrOUT_to_ArchitectureBlockImpl$ibex_branch_predict/AlwaysBlockImpl$null7/GPortImpl$instr_bIN" class="sprotty-edge thick edge" style="fill:none;stroke:rgb(112, 112, 112);stroke-linejoin:round;stroke-width:3px;"><g><path d="M 154.75 391 L 202.75 391 C 203.75 391 204.75 390 204.75 389 L 204.75 323 C 204.75 322 205.75 321 206.75 321 L 234.75 321 "/><path d="M 154.75 391 L 202.75 391 C 203.75 391 204.75 390 204.75 389 L 204.75 323 C 204.75 322 205.75 321 206.75 321 L 234.75 321 " class="clickable"/></g><circle r="3" id="sprotty_ArchitectureBlockImpl$ibex_branch_predict/AssignmentBlockImpl$instr_b/GPortImpl$instrOUT_to_ArchitectureBlockImpl$ibex_branch_predict/AlwaysBlockImpl$null7/GPortImpl$instr_bIN/junction0" transform="translate(204.75, 391)" class="sprotty-junction thick" style="fill:rgb(112, 112, 112);stroke:none;"/></g><g id="sprotty_ArchitectureBlockImpl$ibex_branch_predict/AssignmentBlockImpl$instr_cj/GPortImpl$instrOUT_to_ArchitectureBlockImpl$ibex_branch_predict/AssignmentBlockImpl$predict_branch_taken_o/GPortImpl$instr_cjIN" class="sprotty-edge thick edge" style="fill:none;stroke:rgb(112, 112, 112);stroke-linejoin:round;stroke-width:3px;"><g><path d="M 154.75 311 L 162.75 311 C 163.75 311 164.75 312 164.75 313 L 164.75 410 C 164.75 411 165.75 412 166.75 412 L 338.5 412 "/><path d="M 154.75 311 L 162.75 311 C 163.75 311 164.75 312 164.75 313 L 164.75 410 C 164.75 411 165.75 412 166.75 412 L 338.5 412 " class="clickable"/></g><circle r="3" id="sprotty_ArchitectureBlockImpl$ibex_branch_predict/AssignmentBlockImpl$instr_cj/GPortImpl$instrOUT_to_ArchitectureBlockImpl$ibex_branch_predict/AssignmentBlockImpl$predict_branch_taken_o/GPortImpl$instr_cjIN/junction0" transform="translate(164.75, 311)" class="sprotty-junction thick" style="fill:rgb(112, 112, 112);stroke:none;"/></g><g id="sprotty_ArchitectureBlockImpl$ibex_branch_predict/AssignmentBlockImpl$instr_cj/GPortImpl$instrOUT_to_ArchitectureBlockImpl$ibex_branch_predict/AlwaysBlockImpl$null7/GPortImpl$instr_cjIN" class="sprotty-edge thick edge" style="fill:none;stroke:rgb(112, 112, 112);stroke-linejoin:round;stroke-width:3px;"><g><path d="M 154.75 311 L 234.75 311 "/><path d="M 154.75 311 L 234.75 311 " class="clickable"/></g></g><g id="sprotty_ArchitectureBlockImpl$ibex_branch_predict/AssignmentBlockImpl$instr_cb/GPortImpl$instrOUT_to_ArchitectureBlockImpl$ibex_branch_predict/AssignmentBlockImpl$instr_b_taken/GPortImpl$instr_cbIN" class="sprotty-edge thick edge" style="fill:none;stroke:rgb(112, 112, 112);stroke-linejoin:round;stroke-width:3px;"><g><path d="M 154.75 269 L 172.75 269 C 173.75 269 174.75 270 174.75 271 L 174.75 379 C 174.75 380 175.75 381 176.75 381 L 243.55625 381 "/><path d="M 154.75 269 L 172.75 269 C 173.75 269 174.75 270 174.75 271 L 174.75 379 C 174.75 380 175.75 381 176.75 381 L 243.55625 381 " class="clickable"/></g></g><g id="sprotty_ArchitectureBlockImpl$ibex_branch_predict/AssignmentBlockImpl$instr_cb/GPortImpl$instrOUT_to_ArchitectureBlockImpl$ibex_branch_predict/AlwaysBlockImpl$null7/GPortImpl$instr_cbIN" class="sprotty-edge thick edge" style="fill:none;stroke:rgb(112, 112, 112);stroke-linejoin:round;stroke-width:3px;"><g><path d="M 154.75 269 L 172.75 269 C 173.75 269 174.75 270 174.75 271 L 174.75 299 C 174.75 300 175.75 301 176.75 301 L 234.75 301 "/><path d="M 154.75 269 L 172.75 269 C 173.75 269 174.75 270 174.75 271 L 174.75 299 C 174.75 300 175.75 301 176.75 301 L 234.75 301 " class="clickable"/></g><circle r="3" id="sprotty_ArchitectureBlockImpl$ibex_branch_predict/AssignmentBlockImpl$instr_cb/GPortImpl$instrOUT_to_ArchitectureBlockImpl$ibex_branch_predict/AlwaysBlockImpl$null7/GPortImpl$instr_cbIN/junction0" transform="translate(174.75, 301)" class="sprotty-junction thick" style="fill:rgb(112, 112, 112);stroke:none;"/></g><g id="sprotty_ArchitectureBlockImpl$ibex_branch_predict/AssignmentBlockImpl$instr_b_taken/GPortImpl$imm_cb_typeOUT_to_ArchitectureBlockImpl$ibex_branch_predict/AssignmentBlockImpl$predict_branch_taken_o/GPortImpl$instr_b_takenIN" class="sprotty-edge thick edge" style="fill:none;stroke:rgb(112, 112, 112);stroke-linejoin:round;stroke-width:3px;"><g><path d="M 263.275 376 L 306.5 376 C 307.5 376 308.5 377 308.5 378 L 308.5 400 C 308.5 401 309.5 402 310.5 402 L 338.5 402 "/><path d="M 263.275 376 L 306.5 376 C 307.5 376 308.5 377 308.5 378 L 308.5 400 C 308.5 401 309.5 402 310.5 402 L 338.5 402 " class="clickable"/></g></g><g id="sprotty_ArchitectureBlockImpl$ibex_branch_predict/AlwaysBlockImpl$null7" transform="translate(234.75, 241)" class="statement"><rect x="0" y="0" rx="10" ry="5" width="63.75" height="90" class="sprotty-node" style="fill:rgb(245, 245, 245);stroke:rgb(112, 112, 112);"/><text class="clickable sprotty-label statementtype" id="sprotty_ArchitectureBlockImpl$ibex_branch_predict/AlwaysBlockImpl$null7/labeltype" transform="translate(5, 39) translate(26.875, 9)" style="cursor:default;font-size:8px;font-weight:700;perspective-origin:0px 0px;fill:rgb(112, 112, 112);text-anchor:middle;">always_comb</text><g id="sprotty_ArchitectureBlockImpl$ibex_branch_predict/AlwaysBlockImpl$null7/GPortImpl$instr_cbIN" transform="translate(0, 60)" class="sprotty-hidden hidden" style="display:block;height:0px;width:0px;"/><g id="sprotty_ArchitectureBlockImpl$ibex_branch_predict/AlwaysBlockImpl$null7/GPortImpl$imm_cb_typeIN" transform="translate(0, 40)" class="sprotty-hidden hidden" style="display:block;height:0px;width:0px;"/><g id="sprotty_ArchitectureBlockImpl$ibex_branch_predict/AlwaysBlockImpl$null7/GPortImpl$instr_cjIN" transform="translate(0, 70)" class="sprotty-hidden hidden" style="display:block;height:0px;width:0px;"/><g id="sprotty_ArchitectureBlockImpl$ibex_branch_predict/AlwaysBlockImpl$null7/GPortImpl$imm_cj_typeIN" transform="translate(0, 30)" class="sprotty-hidden hidden" style="display:block;height:0px;width:0px;"/><g id="sprotty_ArchitectureBlockImpl$ibex_branch_predict/AlwaysBlockImpl$null7/GPortImpl$instr_bIN" transform="translate(0, 80)" class="sprotty-hidden hidden" style="display:block;height:0px;width:0px;"/><g id="sprotty_ArchitectureBlockImpl$ibex_branch_predict/AlwaysBlockImpl$null7/GPortImpl$instr_jIN" transform="translate(0, 10)" class="sprotty-hidden hidden" style="display:block;height:0px;width:0px;"/><g id="sprotty_ArchitectureBlockImpl$ibex_branch_predict/AlwaysBlockImpl$null7/GPortImpl$imm_j_typeIN" transform="translate(0, 20)" class="sprotty-hidden hidden" style="display:block;height:0px;width:0px;"/><g id="sprotty_ArchitectureBlockImpl$ibex_branch_predict/AlwaysBlockImpl$null7/GPortImpl$imm_b_typeIN" transform="translate(0, 50)" class="sprotty-hidden hidden" style="display:block;height:0px;width:0px;"/><g id="sprotty_ArchitectureBlockImpl$ibex_branch_predict/AlwaysBlockImpl$null7/GPortImpl$branch_immOUT" transform="translate(63.75, 45)" class="sprotty-hidden hidden" style="display:block;height:0px;width:0px;"/></g><g id="sprotty_ArchitectureBlockImpl$ibex_branch_predict/AssignmentBlockImpl$predict_branch_pc_o" transform="translate(338.5, 266)" class="statement"><rect x="0" y="0" rx="10" ry="5" width="19.71875" height="30" class="sprotty-node" style="fill:rgb(245, 245, 245);stroke:rgb(112, 112, 112);"/><text class="clickable sprotty-label statementtype" id="sprotty_ArchitectureBlockImpl$ibex_branch_predict/AssignmentBlockImpl$predict_branch_pc_o/labeltype" transform="translate(5, 9) translate(4.71875, 9)" style="cursor:default;font-size:8px;font-weight:700;perspective-origin:0.140625px 0px;fill:rgb(112, 112, 112);text-anchor:middle;">&lt;=</text><g id="sprotty_ArchitectureBlockImpl$ibex_branch_predict/AssignmentBlockImpl$predict_branch_pc_o/GPortImpl$branch_immIN" transform="translate(0, 20)" class="sprotty-hidden hidden" style="display:block;height:0px;width:0px;"/><g id="sprotty_ArchitectureBlockImpl$ibex_branch_predict/AssignmentBlockImpl$predict_branch_pc_o/GPortImpl$fetch_pc_iIN" transform="translate(0, 10)" class="sprotty-hidden hidden" style="display:block;height:0px;width:0px;"/><g id="sprotty_ArchitectureBlockImpl$ibex_branch_predict/AssignmentBlockImpl$predict_branch_pc_o/GPortImpl$predict_branch_pc_oOUT" transform="translate(19.71875, 15)" class="sprotty-hidden hidden" style="display:block;height:0px;width:0px;"/></g><g id="sprotty_ArchitectureBlockImpl$ibex_branch_predict/AssignmentBlockImpl$predict_branch_taken_o" transform="translate(338.5, 382)" class="statement"><rect x="0" y="0" rx="10" ry="5" width="19.71875" height="50" class="sprotty-node" style="fill:rgb(245, 245, 245);stroke:rgb(112, 112, 112);"/><text class="clickable sprotty-label statementtype" id="sprotty_ArchitectureBlockImpl$ibex_branch_predict/AssignmentBlockImpl$predict_branch_taken_o/labeltype" transform="translate(5, 19) translate(4.71875, 9)" style="cursor:default;font-size:8px;font-weight:700;perspective-origin:0.140625px 0px;fill:rgb(112, 112, 112);text-anchor:middle;">&lt;=</text><g id="sprotty_ArchitectureBlockImpl$ibex_branch_predict/AssignmentBlockImpl$predict_branch_taken_o/GPortImpl$instr_b_takenIN" transform="translate(0, 20)" class="sprotty-hidden hidden" style="display:block;height:0px;width:0px;"/><g id="sprotty_ArchitectureBlockImpl$ibex_branch_predict/AssignmentBlockImpl$predict_branch_taken_o/GPortImpl$instr_cjIN" transform="translate(0, 30)" class="sprotty-hidden hidden" style="display:block;height:0px;width:0px;"/><g id="sprotty_ArchitectureBlockImpl$ibex_branch_predict/AssignmentBlockImpl$predict_branch_taken_o/GPortImpl$instr_jIN" transform="translate(0, 10)" class="sprotty-hidden hidden" style="display:block;height:0px;width:0px;"/><g id="sprotty_ArchitectureBlockImpl$ibex_branch_predict/AssignmentBlockImpl$predict_branch_taken_o/GPortImpl$fetch_valid_iIN" transform="translate(0, 40)" class="sprotty-hidden hidden" style="display:block;height:0px;width:0px;"/><g id="sprotty_ArchitectureBlockImpl$ibex_branch_predict/AssignmentBlockImpl$predict_branch_taken_o/GPortImpl$predict_branch_taken_oOUT" transform="translate(19.71875, 25)" class="sprotty-hidden hidden" style="display:block;height:0px;width:0px;"/></g><g id="sprotty_ArchitectureBlockImpl$ibex_branch_predict/AssignmentBlockImpl$instr_b_taken" transform="translate(243.55625, 351)" class="statement"><rect x="0" y="0" rx="10" ry="5" width="19.71875" height="50" class="sprotty-node" style="fill:rgb(245, 245, 245);stroke:rgb(112, 112, 112);"/><text class="clickable sprotty-label statementtype" id="sprotty_ArchitectureBlockImpl$ibex_branch_predict/AssignmentBlockImpl$instr_b_taken/labeltype" transform="translate(5, 19) translate(4.71875, 9)" style="cursor:default;font-size:8px;font-weight:700;perspective-origin:0.140625px 0px;fill:rgb(112, 112, 112);text-anchor:middle;">&lt;=</text><g id="sprotty_ArchitectureBlockImpl$ibex_branch_predict/AssignmentBlockImpl$instr_b_taken/GPortImpl$imm_cb_typeIN" transform="translate(0, 10)" class="sprotty-hidden hidden" style="display:block;height:0px;width:0px;"/><g id="sprotty_ArchitectureBlockImpl$ibex_branch_predict/AssignmentBlockImpl$instr_b_taken/GPortImpl$instr_cbIN" transform="translate(0, 30)" class="sprotty-hidden hidden" style="display:block;height:0px;width:0px;"/><g id="sprotty_ArchitectureBlockImpl$ibex_branch_predict/AssignmentBlockImpl$instr_b_taken/GPortImpl$imm_b_typeIN" transform="translate(0, 20)" class="sprotty-hidden hidden" style="display:block;height:0px;width:0px;"/><g id="sprotty_ArchitectureBlockImpl$ibex_branch_predict/AssignmentBlockImpl$instr_b_taken/GPortImpl$instr_bIN" transform="translate(0, 40)" class="sprotty-hidden hidden" style="display:block;height:0px;width:0px;"/><g id="sprotty_ArchitectureBlockImpl$ibex_branch_predict/AssignmentBlockImpl$instr_b_taken/GPortImpl$imm_cb_typeOUT" transform="translate(19.71875, 25)" class="sprotty-hidden hidden" style="display:block;height:0px;width:0px;"/></g><g id="sprotty_ArchitectureBlockImpl$ibex_branch_predict/AssignmentBlockImpl$instr_cj" transform="translate(135.03125, 300)" class="statement"><rect x="0" y="0" rx="10" ry="5" width="19.71875" height="22" class="sprotty-node" style="fill:rgb(245, 245, 245);stroke:rgb(112, 112, 112);"/><text class="clickable sprotty-label statementtype" id="sprotty_ArchitectureBlockImpl$ibex_branch_predict/AssignmentBlockImpl$instr_cj/labeltype" transform="translate(5, 5) translate(4.71875, 9)" style="cursor:default;font-size:8px;font-weight:700;perspective-origin:0.140625px 0px;fill:rgb(112, 112, 112);text-anchor:middle;">&lt;=</text><g id="sprotty_ArchitectureBlockImpl$ibex_branch_predict/AssignmentBlockImpl$instr_cj/GPortImpl$instrIN" transform="translate(0, 11)" class="sprotty-hidden hidden" style="display:block;height:0px;width:0px;"/><g id="sprotty_ArchitectureBlockImpl$ibex_branch_predict/AssignmentBlockImpl$instr_cj/GPortImpl$instrOUT" transform="translate(19.71875, 11)" class="sprotty-hidden hidden" style="display:block;height:0px;width:0px;"/></g><g id="sprotty_ArchitectureBlockImpl$ibex_branch_predict/AssignmentBlockImpl$instr_cb" transform="translate(135.03125, 258)" class="statement"><rect x="0" y="0" rx="10" ry="5" width="19.71875" height="22" class="sprotty-node" style="fill:rgb(245, 245, 245);stroke:rgb(112, 112, 112);"/><text class="clickable sprotty-label statementtype" id="sprotty_ArchitectureBlockImpl$ibex_branch_predict/AssignmentBlockImpl$instr_cb/labeltype" transform="translate(5, 5) translate(4.71875, 9)" style="cursor:default;font-size:8px;font-weight:700;perspective-origin:0.140625px 0px;fill:rgb(112, 112, 112);text-anchor:middle;">&lt;=</text><g id="sprotty_ArchitectureBlockImpl$ibex_branch_predict/AssignmentBlockImpl$instr_cb/GPortImpl$instrIN" transform="translate(0, 11)" class="sprotty-hidden hidden" style="display:block;height:0px;width:0px;"/><g id="sprotty_ArchitectureBlockImpl$ibex_branch_predict/AssignmentBlockImpl$instr_cb/GPortImpl$instrOUT" transform="translate(19.71875, 11)" class="sprotty-hidden hidden" style="display:block;height:0px;width:0px;"/></g><g id="sprotty_ArchitectureBlockImpl$ibex_branch_predict/AssignmentBlockImpl$instr_j" transform="translate(135.03125, 48)" class="statement"><rect x="0" y="0" rx="10" ry="5" width="19.71875" height="22" class="sprotty-node" style="fill:rgb(245, 245, 245);stroke:rgb(112, 112, 112);"/><text class="clickable sprotty-label statementtype" id="sprotty_ArchitectureBlockImpl$ibex_branch_predict/AssignmentBlockImpl$instr_j/labeltype" transform="translate(5, 5) translate(4.71875, 9)" style="cursor:default;font-size:8px;font-weight:700;perspective-origin:0.140625px 0px;fill:rgb(112, 112, 112);text-anchor:middle;">&lt;=</text><g id="sprotty_ArchitectureBlockImpl$ibex_branch_predict/AssignmentBlockImpl$instr_j/GPortImpl$instrIN" transform="translate(0, 11)" class="sprotty-hidden hidden" style="display:block;height:0px;width:0px;"/><g id="sprotty_ArchitectureBlockImpl$ibex_branch_predict/AssignmentBlockImpl$instr_j/GPortImpl$instrOUT" transform="translate(19.71875, 11)" class="sprotty-hidden hidden" style="display:block;height:0px;width:0px;"/></g><g id="sprotty_ArchitectureBlockImpl$ibex_branch_predict/AssignmentBlockImpl$instr_b" transform="translate(135.03125, 380)" class="statement"><rect x="0" y="0" rx="10" ry="5" width="19.71875" height="22" class="sprotty-node" style="fill:rgb(245, 245, 245);stroke:rgb(112, 112, 112);"/><text class="clickable sprotty-label statementtype" id="sprotty_ArchitectureBlockImpl$ibex_branch_predict/AssignmentBlockImpl$instr_b/labeltype" transform="translate(5, 5) translate(4.71875, 9)" style="cursor:default;font-size:8px;font-weight:700;perspective-origin:0.140625px 0px;fill:rgb(112, 112, 112);text-anchor:middle;">&lt;=</text><g id="sprotty_ArchitectureBlockImpl$ibex_branch_predict/AssignmentBlockImpl$instr_b/GPortImpl$instrIN" transform="translate(0, 11)" class="sprotty-hidden hidden" style="display:block;height:0px;width:0px;"/><g id="sprotty_ArchitectureBlockImpl$ibex_branch_predict/AssignmentBlockImpl$instr_b/GPortImpl$instrOUT" transform="translate(19.71875, 11)" class="sprotty-hidden hidden" style="display:block;height:0px;width:0px;"/></g><g id="sprotty_ArchitectureBlockImpl$ibex_branch_predict/AssignmentBlockImpl$imm_cb_type" transform="translate(135.03125, 174)" class="statement"><rect x="0" y="0" rx="10" ry="5" width="19.71875" height="22" class="sprotty-node" style="fill:rgb(245, 245, 245);stroke:rgb(112, 112, 112);"/><text class="clickable sprotty-label statementtype" id="sprotty_ArchitectureBlockImpl$ibex_branch_predict/AssignmentBlockImpl$imm_cb_type/labeltype" transform="translate(5, 5) translate(4.71875, 9)" style="cursor:default;font-size:8px;font-weight:700;perspective-origin:0.140625px 0px;fill:rgb(112, 112, 112);text-anchor:middle;">&lt;=</text><g id="sprotty_ArchitectureBlockImpl$ibex_branch_predict/AssignmentBlockImpl$imm_cb_type/GPortImpl$instrIN" transform="translate(0, 11)" class="sprotty-hidden hidden" style="display:block;height:0px;width:0px;"/><g id="sprotty_ArchitectureBlockImpl$ibex_branch_predict/AssignmentBlockImpl$imm_cb_type/GPortImpl$instrOUT" transform="translate(19.71875, 11)" class="sprotty-hidden hidden" style="display:block;height:0px;width:0px;"/></g><g id="sprotty_ArchitectureBlockImpl$ibex_branch_predict/AssignmentBlockImpl$imm_cj_type" transform="translate(135.03125, 132)" class="statement"><rect x="0" y="0" rx="10" ry="5" width="19.71875" height="22" class="sprotty-node" style="fill:rgb(245, 245, 245);stroke:rgb(112, 112, 112);"/><text class="clickable sprotty-label statementtype" id="sprotty_ArchitectureBlockImpl$ibex_branch_predict/AssignmentBlockImpl$imm_cj_type/labeltype" transform="translate(5, 5) translate(4.71875, 9)" style="cursor:default;font-size:8px;font-weight:700;perspective-origin:0.140625px 0px;fill:rgb(112, 112, 112);text-anchor:middle;">&lt;=</text><g id="sprotty_ArchitectureBlockImpl$ibex_branch_predict/AssignmentBlockImpl$imm_cj_type/GPortImpl$instrIN" transform="translate(0, 11)" class="sprotty-hidden hidden" style="display:block;height:0px;width:0px;"/><g id="sprotty_ArchitectureBlockImpl$ibex_branch_predict/AssignmentBlockImpl$imm_cj_type/GPortImpl$instrOUT" transform="translate(19.71875, 11)" class="sprotty-hidden hidden" style="display:block;height:0px;width:0px;"/></g><g id="sprotty_ArchitectureBlockImpl$ibex_branch_predict/AssignmentBlockImpl$imm_b_type" transform="translate(135.03125, 216)" class="statement"><rect x="0" y="0" rx="10" ry="5" width="19.71875" height="22" class="sprotty-node" style="fill:rgb(245, 245, 245);stroke:rgb(112, 112, 112);"/><text class="clickable sprotty-label statementtype" id="sprotty_ArchitectureBlockImpl$ibex_branch_predict/AssignmentBlockImpl$imm_b_type/labeltype" transform="translate(5, 5) translate(4.71875, 9)" style="cursor:default;font-size:8px;font-weight:700;perspective-origin:0.140625px 0px;fill:rgb(112, 112, 112);text-anchor:middle;">&lt;=</text><g id="sprotty_ArchitectureBlockImpl$ibex_branch_predict/AssignmentBlockImpl$imm_b_type/GPortImpl$instrIN" transform="translate(0, 11)" class="sprotty-hidden hidden" style="display:block;height:0px;width:0px;"/><g id="sprotty_ArchitectureBlockImpl$ibex_branch_predict/AssignmentBlockImpl$imm_b_type/GPortImpl$instrOUT" transform="translate(19.71875, 11)" class="sprotty-hidden hidden" style="display:block;height:0px;width:0px;"/></g><g id="sprotty_ArchitectureBlockImpl$ibex_branch_predict/AssignmentBlockImpl$imm_j_type" transform="translate(135.03125, 90)" class="statement"><rect x="0" y="0" rx="10" ry="5" width="19.71875" height="22" class="sprotty-node" style="fill:rgb(245, 245, 245);stroke:rgb(112, 112, 112);"/><text class="clickable sprotty-label statementtype" id="sprotty_ArchitectureBlockImpl$ibex_branch_predict/AssignmentBlockImpl$imm_j_type/labeltype" transform="translate(5, 5) translate(4.71875, 9)" style="cursor:default;font-size:8px;font-weight:700;perspective-origin:0.140625px 0px;fill:rgb(112, 112, 112);text-anchor:middle;">&lt;=</text><g id="sprotty_ArchitectureBlockImpl$ibex_branch_predict/AssignmentBlockImpl$imm_j_type/GPortImpl$instrIN" transform="translate(0, 11)" class="sprotty-hidden hidden" style="display:block;height:0px;width:0px;"/><g id="sprotty_ArchitectureBlockImpl$ibex_branch_predict/AssignmentBlockImpl$imm_j_type/GPortImpl$instrOUT" transform="translate(19.71875, 11)" class="sprotty-hidden hidden" style="display:block;height:0px;width:0px;"/></g><g id="sprotty_ArchitectureBlockImpl$ibex_branch_predict/AssignmentBlockImpl$instr" transform="translate(95.3125, 216)" class="statement"><rect x="0" y="0" rx="10" ry="5" width="19.71875" height="22" class="sprotty-node" style="fill:rgb(245, 245, 245);stroke:rgb(112, 112, 112);"/><text class="clickable sprotty-label statementtype" id="sprotty_ArchitectureBlockImpl$ibex_branch_predict/AssignmentBlockImpl$instr/labeltype" transform="translate(5, 5) translate(4.71875, 9)" style="cursor:default;font-size:8px;font-weight:700;perspective-origin:0.140625px 0px;fill:rgb(112, 112, 112);text-anchor:middle;">&lt;=</text><g id="sprotty_ArchitectureBlockImpl$ibex_branch_predict/AssignmentBlockImpl$instr/GPortImpl$fetch_rdata_iIN" transform="translate(0, 11)" class="sprotty-hidden hidden" style="display:block;height:0px;width:0px;"/><g id="sprotty_ArchitectureBlockImpl$ibex_branch_predict/AssignmentBlockImpl$instr/GPortImpl$instrOUT" transform="translate(19.71875, 11)" class="sprotty-hidden hidden" style="display:block;height:0px;width:0px;"/></g><g id="sprotty_ArchitectureBlockImpl$ibex_branch_predict/BPortImpl$fetch_valid_i" transform="translate(0, 422)" class="triangle"><path d="M 0,0 L 5,2.5 L 0,5 Z" transform="translate(-1.67, -2.5)" class="sprotty-port" style="fill:rgb(48, 48, 48);stroke:rgb(48, 48, 48);"/><text class="clickable sprotty-label port" id="sprotty_ArchitectureBlockImpl$ibex_branch_predict/BPortImpl$fetch_valid_i/label" transform="translate(6, 6) translate(35.828125, 14)" style="cursor:default;font-size:12px;perspective-origin:0px 0px;fill:rgb(48, 48, 48);text-anchor:middle;">fetch_valid_i</text></g><g id="sprotty_ArchitectureBlockImpl$ibex_branch_predict/BPortImpl$fetch_pc_i" transform="translate(0, 36)" class="triangle"><path d="M 0,0 L 5,2.5 L 0,5 Z" transform="translate(-1.67, -2.5)" class="sprotty-port" style="fill:rgb(48, 48, 48);stroke:rgb(48, 48, 48);"/><text class="clickable sprotty-label port" id="sprotty_ArchitectureBlockImpl$ibex_branch_predict/BPortImpl$fetch_pc_i/label" transform="translate(6, 6) translate(29.15625, 14)" style="cursor:default;font-size:12px;perspective-origin:0px 0px;fill:rgb(48, 48, 48);text-anchor:middle;">fetch_pc_i</text></g><g id="sprotty_ArchitectureBlockImpl$ibex_branch_predict/BPortImpl$fetch_rdata_i" transform="translate(0, 227)" class="triangle"><path d="M 0,0 L 5,2.5 L 0,5 Z" transform="translate(-1.67, -2.5)" class="sprotty-port" style="fill:rgb(48, 48, 48);stroke:rgb(48, 48, 48);"/><text class="clickable sprotty-label port" id="sprotty_ArchitectureBlockImpl$ibex_branch_predict/BPortImpl$fetch_rdata_i/label" transform="translate(6, 6) translate(37.15625, 14)" style="cursor:default;font-size:12px;perspective-origin:0px 0px;fill:rgb(48, 48, 48);text-anchor:middle;">fetch_rdata_i</text></g><g id="sprotty_ArchitectureBlockImpl$ibex_branch_predict/BPortImpl$rst_ni" transform="translate(0, 466)" class="triangle"><path d="M 0,0 L 5,2.5 L 0,5 Z" transform="translate(-1.67, -2.5)" class="sprotty-port" style="fill:rgb(48, 48, 48);stroke:rgb(48, 48, 48);"/><text class="clickable sprotty-label port" id="sprotty_ArchitectureBlockImpl$ibex_branch_predict/BPortImpl$rst_ni/label" transform="translate(6, 6) translate(15.921875, 14)" style="cursor:default;font-size:12px;perspective-origin:0px 0px;fill:rgb(48, 48, 48);text-anchor:middle;">rst_ni</text></g><g id="sprotty_ArchitectureBlockImpl$ibex_branch_predict/BPortImpl$clk_i" transform="translate(0, 510)" class="triangle"><path d="M 0,0 L 5,2.5 L 0,5 Z" transform="translate(-1.67, -2.5)" class="sprotty-port" style="fill:rgb(48, 48, 48);stroke:rgb(48, 48, 48);"/><text class="clickable sprotty-label port" id="sprotty_ArchitectureBlockImpl$ibex_branch_predict/BPortImpl$clk_i/label" transform="translate(6, 6) translate(13.09375, 14)" style="cursor:default;font-size:12px;perspective-origin:0px 0px;fill:rgb(48, 48, 48);text-anchor:middle;">clk_i</text></g><g id="sprotty_ArchitectureBlockImpl$ibex_branch_predict/BPortImpl$predict_branch_taken_o" transform="translate(517.09375, 407)" class="triangle"><path d="M 0,0 L 5,2.5 L 0,5 Z" transform="translate(-1.67, -2.5)" class="sprotty-port" style="fill:rgb(48, 48, 48);stroke:rgb(48, 48, 48);"/><text class="clickable sprotty-label port" id="sprotty_ArchitectureBlockImpl$ibex_branch_predict/BPortImpl$predict_branch_taken_o/label" transform="translate(-143.875, 6) translate(68.9375, 14)" style="cursor:default;font-size:12px;perspective-origin:0px 0px;fill:rgb(48, 48, 48);text-anchor:middle;">predict_branch_taken_o</text></g><g id="sprotty_ArchitectureBlockImpl$ibex_branch_predict/BPortImpl$predict_branch_pc_o" transform="translate(517.09375, 281)" class="triangle"><path d="M 0,0 L 5,2.5 L 0,5 Z" transform="translate(-1.67, -2.5)" class="sprotty-port" style="fill:rgb(48, 48, 48);stroke:rgb(48, 48, 48);"/><text class="clickable sprotty-label port" id="sprotty_ArchitectureBlockImpl$ibex_branch_predict/BPortImpl$predict_branch_pc_o/label" transform="translate(-126.0625, 6) translate(60.03125, 14)" style="cursor:default;font-size:12px;perspective-origin:0px 0px;fill:rgb(48, 48, 48);text-anchor:middle;">predict_branch_pc_o</text></g></g></g></svg>