<svg xmlns="http://www.w3.org/2000/svg" id="sprotty_work.aes_sbox_lut" class="sprotty-graph sprotty-block-diagram blockdiagram" style="font-family:&quot;Noto Sans&quot;, Helvetica, Arial, sans-serif;perspective-origin:0px 0px;transform-origin:0px 0px;" version="1.1" viewBox="7 7 165.8125 118" width="165.8125" height="118"><g transform="scale(1) translate(0,0)"><g id="sprotty_ArchitectureBlockImpl$aes_sbox_lut" transform="translate(12, 12)" class="architecture"><g class="sprotty-block" style="fill:rgb(255, 255, 255);stroke:rgb(48, 48, 48);stroke-dasharray:0px;"><rect x="0" y="0" rx="1" ry="1" width="155.8125" height="108"/><text x="77.90625" y="12" class="sprotty-block-name" style="cursor:pointer;font-weight:700;perspective-origin:78.0469px 0px;fill:rgb(48, 48, 48);stroke:rgba(0, 0, 0, 0);dominant-baseline:middle;text-anchor:middle;">aes_sbox_lut</text><line x1="0" y1="20" x2="155.8125" y2="20"/></g><g id="sprotty_ArchitectureBlockImpl$aes_sbox_lut/AssignmentBlockImpl$data_o/GPortImpl$data_oOUT_to_ArchitectureBlockImpl$aes_sbox_lut/BPortImpl$data_o" class="sprotty-edge thick edge" style="fill:none;stroke:rgb(112, 112, 112);stroke-linejoin:round;stroke-width:3px;"><g><path d="M 95.78125 64 L 155.8125 64 "/><path d="M 95.78125 64 L 155.8125 64 " class="clickable"/></g></g><g id="sprotty_ArchitectureBlockImpl$aes_sbox_lut/BPortImpl$op_i_to_ArchitectureBlockImpl$aes_sbox_lut/AssignmentBlockImpl$data_o/GPortImpl$op_iIN" class="sprotty-edge thick edge" style="fill:none;stroke:rgb(112, 112, 112);stroke-linejoin:round;stroke-width:3px;"><g><path d="M 0 35 L 64.0625 35 C 65.0625 35 66.0625 36 66.0625 37 L 66.0625 57 C 66.0625 58 67.0625 59 68.0625 59 L 76.0625 59 "/><path d="M 0 35 L 64.0625 35 C 65.0625 35 66.0625 36 66.0625 37 L 66.0625 57 C 66.0625 58 67.0625 59 68.0625 59 L 76.0625 59 " class="clickable"/></g></g><g id="sprotty_ArchitectureBlockImpl$aes_sbox_lut/BPortImpl$data_i_to_ArchitectureBlockImpl$aes_sbox_lut/AssignmentBlockImpl$data_o/GPortImpl$data_iIN" class="sprotty-edge thick edge" style="fill:none;stroke:rgb(112, 112, 112);stroke-linejoin:round;stroke-width:3px;"><g><path d="M 0 69 L 76.0625 69 "/><path d="M 0 69 L 76.0625 69 " class="clickable"/></g></g><g id="sprotty_ArchitectureBlockImpl$aes_sbox_lut/AssignmentBlockImpl$data_o" transform="translate(76.0625, 49)" class="statement"><rect x="0" y="0" rx="10" ry="5" width="19.71875" height="30" class="sprotty-node" style="fill:rgb(245, 245, 245);stroke:rgb(112, 112, 112);"/><text class="clickable sprotty-label statementtype" id="sprotty_ArchitectureBlockImpl$aes_sbox_lut/AssignmentBlockImpl$data_o/labeltype" transform="translate(5, 9) translate(4.71875, 9)" style="cursor:default;font-size:8px;font-weight:700;perspective-origin:0.140625px 0px;fill:rgb(112, 112, 112);text-anchor:middle;">&lt;=</text><g id="sprotty_ArchitectureBlockImpl$aes_sbox_lut/AssignmentBlockImpl$data_o/GPortImpl$data_iIN" transform="translate(0, 20)" class="sprotty-hidden hidden" style="display:block;height:0px;width:0px;"/><g id="sprotty_ArchitectureBlockImpl$aes_sbox_lut/AssignmentBlockImpl$data_o/GPortImpl$op_iIN" transform="translate(0, 10)" class="sprotty-hidden hidden" style="display:block;height:0px;width:0px;"/><g id="sprotty_ArchitectureBlockImpl$aes_sbox_lut/AssignmentBlockImpl$data_o/GPortImpl$data_oOUT" transform="translate(19.71875, 15)" class="sprotty-hidden hidden" style="display:block;height:0px;width:0px;"/></g><g id="sprotty_ArchitectureBlockImpl$aes_sbox_lut/BPortImpl$data_i" transform="translate(0, 69)" class="triangle"><path d="M 0,0 L 5,2.5 L 0,5 Z" transform="translate(-1.67, -2.5)" class="sprotty-port" style="fill:rgb(48, 48, 48);stroke:rgb(48, 48, 48);"/><text class="clickable sprotty-label port" id="sprotty_ArchitectureBlockImpl$aes_sbox_lut/BPortImpl$data_i/label" transform="translate(6, 6) translate(17.53125, 14)" style="cursor:default;font-size:12px;perspective-origin:0px 0px;fill:rgb(48, 48, 48);text-anchor:middle;">data_i</text></g><g id="sprotty_ArchitectureBlockImpl$aes_sbox_lut/BPortImpl$op_i" transform="translate(0, 35)" class="triangle"><path d="M 0,0 L 5,2.5 L 0,5 Z" transform="translate(-1.67, -2.5)" class="sprotty-port" style="fill:rgb(48, 48, 48);stroke:rgb(48, 48, 48);"/><text class="clickable sprotty-label port" id="sprotty_ArchitectureBlockImpl$aes_sbox_lut/BPortImpl$op_i/label" transform="translate(6, 6) translate(12.375, 14)" style="cursor:default;font-size:12px;perspective-origin:0px 0px;fill:rgb(48, 48, 48);text-anchor:middle;">op_i</text></g><g id="sprotty_ArchitectureBlockImpl$aes_sbox_lut/BPortImpl$data_o" transform="translate(155.8125, 64)" class="triangle"><path d="M 0,0 L 5,2.5 L 0,5 Z" transform="translate(-1.67, -2.5)" class="sprotty-port" style="fill:rgb(48, 48, 48);stroke:rgb(48, 48, 48);"/><text class="clickable sprotty-label port" id="sprotty_ArchitectureBlockImpl$aes_sbox_lut/BPortImpl$data_o/label" transform="translate(-45.03125, 6) translate(19.515625, 14)" style="cursor:default;font-size:12px;perspective-origin:0px 0px;fill:rgb(48, 48, 48);text-anchor:middle;">data_o</text></g></g></g></svg>