<svg xmlns="http://www.w3.org/2000/svg" id="sprotty_work.prim_xilinx_clock_mux2" class="sprotty-graph sprotty-block-diagram blockdiagram" style="font-family:&quot;Noto Sans&quot;, Helvetica, Arial, sans-serif;perspective-origin:0px 0px;transform-origin:0px 0px;" version="1.1" viewBox="7 7 408.78125 262" width="408.78125" height="262"><g transform="scale(1) translate(0,0)"><g id="sprotty_ArchitectureBlockImpl$prim_xilinx_clock_mux2" transform="translate(12, 12)" class="architecture"><g class="sprotty-block" style="fill:rgb(255, 255, 255);stroke:rgb(48, 48, 48);stroke-dasharray:0px;"><rect x="0" y="0" rx="1" ry="1" width="398.78125" height="252"/><text x="199.390625" y="12" class="sprotty-block-name" style="cursor:pointer;font-weight:700;perspective-origin:199.391px 0px;fill:rgb(48, 48, 48);stroke:rgba(0, 0, 0, 0);dominant-baseline:middle;text-anchor:middle;">prim_xilinx_clock_mux2</text><line x1="0" y1="20" x2="398.78125" y2="20"/></g><g id="sprotty_ArchitectureBlockImpl$prim_xilinx_clock_mux2/GenerateStatementBlockImpl$null4/GPortImpl$clk_o_to_ArchitectureBlockImpl$prim_xilinx_clock_mux2/BPortImpl$clk_o" class="sprotty-edge edge" style="fill:none;stroke:rgb(112, 112, 112);stroke-linejoin:round;"><g><path d="M 347.625 70 L 398.78125 70 "/><path d="M 347.625 70 L 398.78125 70 " class="clickable"/></g></g><g id="sprotty_ArchitectureBlockImpl$prim_xilinx_clock_mux2/BPortImpl$clk0_i_to_ArchitectureBlockImpl$prim_xilinx_clock_mux2/GenerateStatementBlockImpl$null4/GPortImpl$clk0_i" class="sprotty-edge edge" style="fill:none;stroke:rgb(112, 112, 112);stroke-linejoin:round;"><g><path d="M 0 70 L 73.84375 70 "/><path d="M 0 70 L 73.84375 70 " class="clickable"/></g></g><g id="sprotty_ArchitectureBlockImpl$prim_xilinx_clock_mux2/BPortImpl$clk1_i_to_ArchitectureBlockImpl$prim_xilinx_clock_mux2/GenerateStatementBlockImpl$null4/GPortImpl$clk1_i" class="sprotty-edge edge" style="fill:none;stroke:rgb(112, 112, 112);stroke-linejoin:round;"><g><path d="M 0 104 L 61.84375 104 C 62.84375 104 63.84375 103 63.84375 102 L 63.84375 82 C 63.84375 81 64.84375 80 65.84375 80 L 73.84375 80 "/><path d="M 0 104 L 61.84375 104 C 62.84375 104 63.84375 103 63.84375 102 L 63.84375 82 C 63.84375 81 64.84375 80 65.84375 80 L 73.84375 80 " class="clickable"/></g></g><g id="sprotty_ArchitectureBlockImpl$prim_xilinx_clock_mux2/BPortImpl$sel_i_to_ArchitectureBlockImpl$prim_xilinx_clock_mux2/GenerateStatementBlockImpl$null4/GPortImpl$sel_i" class="sprotty-edge edge" style="fill:none;stroke:rgb(112, 112, 112);stroke-linejoin:round;"><g><path d="M 0 36 L 61.84375 36 C 62.84375 36 63.84375 37 63.84375 38 L 63.84375 58 C 63.84375 59 64.84375 60 65.84375 60 L 73.84375 60 "/><path d="M 0 36 L 61.84375 36 C 62.84375 36 63.84375 37 63.84375 38 L 63.84375 58 C 63.84375 59 64.84375 60 65.84375 60 L 73.84375 60 " class="clickable"/></g></g><g id="sprotty_ArchitectureBlockImpl$prim_xilinx_clock_mux2/GenerateStatementBlockImpl$null4" transform="translate(73.84375, 35)" class="generate"><g class="sprotty-block sprotty-block-generate" style="fill:rgb(255, 255, 255);stroke:rgb(48, 48, 48);stroke-dasharray:0px;"><rect x="0" y="0" rx="1" ry="1" width="273.78125" height="202" style="stroke-dasharray:3px, 1px;"/><text x="136.890625" y="12" class="sprotty-block-name" style="cursor:pointer;font-weight:700;fill:rgb(48, 48, 48);stroke:rgba(0, 0, 0, 0);dominant-baseline:middle;text-anchor:middle;"/>undefined</g><g id="sprotty_ArchitectureBlockImpl$prim_xilinx_clock_mux2/GenerateStatementBlockImpl$null4/AssignmentBlockImpl$clk_o/GPortImpl$clk_oOUT_to_ArchitectureBlockImpl$prim_xilinx_clock_mux2/GenerateStatementBlockImpl$null4/GPortImpl$clk_o" class="sprotty-edge edge" style="fill:none;stroke:rgb(112, 112, 112);stroke-linejoin:round;"><g><path d="M 115.734375 35 L 273.78125 35 "/><path d="M 115.734375 35 L 273.78125 35 " class="clickable"/></g></g><g id="sprotty_ArchitectureBlockImpl$prim_xilinx_clock_mux2/GenerateStatementBlockImpl$null4/InstantiationBlockImpl$bufgmux_i/BPortImpl$O_to_ArchitectureBlockImpl$prim_xilinx_clock_mux2/GenerateStatementBlockImpl$null4/GPortImpl$clk_o" class="sprotty-edge edge" style="fill:none;stroke:rgb(112, 112, 112);stroke-linejoin:round;"><g><path d="M 238.78125 141 L 246.78125 141 C 247.78125 141 248.78125 140 248.78125 139 L 248.78125 37 C 248.78125 36 249.78125 35 250.78125 35 L 273.78125 35 "/><path d="M 238.78125 141 L 246.78125 141 C 247.78125 141 248.78125 140 248.78125 139 L 248.78125 37 C 248.78125 36 249.78125 35 250.78125 35 L 273.78125 35 " class="clickable"/></g><circle r="2" id="sprotty_ArchitectureBlockImpl$prim_xilinx_clock_mux2/GenerateStatementBlockImpl$null4/InstantiationBlockImpl$bufgmux_i/BPortImpl$O_to_ArchitectureBlockImpl$prim_xilinx_clock_mux2/GenerateStatementBlockImpl$null4/GPortImpl$clk_o/junction0" transform="translate(248.78125, 35)" class="sprotty-junction junction" style="fill:rgb(112, 112, 112);stroke:none;"/></g><g id="sprotty_ArchitectureBlockImpl$prim_xilinx_clock_mux2/GenerateStatementBlockImpl$null4/GPortImpl$clk0_i_to_ArchitectureBlockImpl$prim_xilinx_clock_mux2/GenerateStatementBlockImpl$null4/InstantiationBlockImpl$bufgmux_i/BPortImpl$I0" class="sprotty-edge edge" style="fill:none;stroke:rgb(112, 112, 112);stroke-linejoin:round;"><g><path d="M 0 35 L 43 35 C 44 35 45 36 45 37 L 45 111 C 45 112 46 113 47 113 L 55 113 "/><path d="M 0 35 L 43 35 C 44 35 45 36 45 37 L 45 111 C 45 112 46 113 47 113 L 55 113 " class="clickable"/></g><circle r="2" id="sprotty_ArchitectureBlockImpl$prim_xilinx_clock_mux2/GenerateStatementBlockImpl$null4/GPortImpl$clk0_i_to_ArchitectureBlockImpl$prim_xilinx_clock_mux2/GenerateStatementBlockImpl$null4/InstantiationBlockImpl$bufgmux_i/BPortImpl$I0/junction0" transform="translate(45, 35)" class="sprotty-junction junction" style="fill:rgb(112, 112, 112);stroke:none;"/></g><g id="sprotty_ArchitectureBlockImpl$prim_xilinx_clock_mux2/GenerateStatementBlockImpl$null4/GPortImpl$clk1_i_to_ArchitectureBlockImpl$prim_xilinx_clock_mux2/GenerateStatementBlockImpl$null4/InstantiationBlockImpl$bufgmux_i/BPortImpl$I1" class="sprotty-edge edge" style="fill:none;stroke:rgb(112, 112, 112);stroke-linejoin:round;"><g><path d="M 0 45 L 33 45 C 34 45 35 46 35 47 L 35 139 C 35 140 36 141 37 141 L 55 141 "/><path d="M 0 45 L 33 45 C 34 45 35 46 35 47 L 35 139 C 35 140 36 141 37 141 L 55 141 " class="clickable"/></g><circle r="2" id="sprotty_ArchitectureBlockImpl$prim_xilinx_clock_mux2/GenerateStatementBlockImpl$null4/GPortImpl$clk1_i_to_ArchitectureBlockImpl$prim_xilinx_clock_mux2/GenerateStatementBlockImpl$null4/InstantiationBlockImpl$bufgmux_i/BPortImpl$I1/junction0" transform="translate(35, 45)" class="sprotty-junction junction" style="fill:rgb(112, 112, 112);stroke:none;"/></g><g id="sprotty_ArchitectureBlockImpl$prim_xilinx_clock_mux2/GenerateStatementBlockImpl$null4/GPortImpl$sel_i_to_ArchitectureBlockImpl$prim_xilinx_clock_mux2/GenerateStatementBlockImpl$null4/InstantiationBlockImpl$bufgmux_i/BPortImpl$S" class="sprotty-edge edge" style="fill:none;stroke:rgb(112, 112, 112);stroke-linejoin:round;"><g><path d="M 0 25 L 23 25 C 24 25 25 26 25 27 L 25 167 C 25 168 26 169 27 169 L 55 169 "/><path d="M 0 25 L 23 25 C 24 25 25 26 25 27 L 25 167 C 25 168 26 169 27 169 L 55 169 " class="clickable"/></g><circle r="2" id="sprotty_ArchitectureBlockImpl$prim_xilinx_clock_mux2/GenerateStatementBlockImpl$null4/GPortImpl$sel_i_to_ArchitectureBlockImpl$prim_xilinx_clock_mux2/GenerateStatementBlockImpl$null4/InstantiationBlockImpl$bufgmux_i/BPortImpl$S/junction0" transform="translate(25, 25)" class="sprotty-junction junction" style="fill:rgb(112, 112, 112);stroke:none;"/></g><g id="sprotty_ArchitectureBlockImpl$prim_xilinx_clock_mux2/GenerateStatementBlockImpl$null4/GPortImpl$sel_i_to_ArchitectureBlockImpl$prim_xilinx_clock_mux2/GenerateStatementBlockImpl$null4/AssignmentBlockImpl$clk_o/GPortImpl$sel_iIN" class="sprotty-edge edge" style="fill:none;stroke:rgb(112, 112, 112);stroke-linejoin:round;"><g><path d="M 0 25 L 96.015625 25 "/><path d="M 0 25 L 96.015625 25 " class="clickable"/></g></g><g id="sprotty_ArchitectureBlockImpl$prim_xilinx_clock_mux2/GenerateStatementBlockImpl$null4/GPortImpl$clk1_i_to_ArchitectureBlockImpl$prim_xilinx_clock_mux2/GenerateStatementBlockImpl$null4/AssignmentBlockImpl$clk_o/GPortImpl$clk1_iIN" class="sprotty-edge edge" style="fill:none;stroke:rgb(112, 112, 112);stroke-linejoin:round;"><g><path d="M 0 45 L 96.015625 45 "/><path d="M 0 45 L 96.015625 45 " class="clickable"/></g></g><g id="sprotty_ArchitectureBlockImpl$prim_xilinx_clock_mux2/GenerateStatementBlockImpl$null4/GPortImpl$clk0_i_to_ArchitectureBlockImpl$prim_xilinx_clock_mux2/GenerateStatementBlockImpl$null4/AssignmentBlockImpl$clk_o/GPortImpl$clk0_iIN" class="sprotty-edge edge" style="fill:none;stroke:rgb(112, 112, 112);stroke-linejoin:round;"><g><path d="M 0 35 L 96.015625 35 "/><path d="M 0 35 L 96.015625 35 " class="clickable"/></g></g><g id="sprotty_ArchitectureBlockImpl$prim_xilinx_clock_mux2/GenerateStatementBlockImpl$null4/AssignmentBlockImpl$clk_o" transform="translate(96.015625, 15)" class="statement"><rect x="0" y="0" rx="10" ry="5" width="19.71875" height="40" class="sprotty-node" style="fill:rgb(245, 245, 245);stroke:rgb(112, 112, 112);"/><text class="clickable sprotty-label statementtype" id="sprotty_ArchitectureBlockImpl$prim_xilinx_clock_mux2/GenerateStatementBlockImpl$null4/AssignmentBlockImpl$clk_o/labeltype" transform="translate(5, 14) translate(4.71875, 9)" style="cursor:default;font-size:8px;font-weight:700;perspective-origin:0.140625px 0px;fill:rgb(112, 112, 112);text-anchor:middle;">&lt;=</text><g id="sprotty_ArchitectureBlockImpl$prim_xilinx_clock_mux2/GenerateStatementBlockImpl$null4/AssignmentBlockImpl$clk_o/GPortImpl$clk0_iIN" transform="translate(0, 20)" class="sprotty-hidden hidden" style="display:block;height:0px;width:0px;"/><g id="sprotty_ArchitectureBlockImpl$prim_xilinx_clock_mux2/GenerateStatementBlockImpl$null4/AssignmentBlockImpl$clk_o/GPortImpl$clk1_iIN" transform="translate(0, 30)" class="sprotty-hidden hidden" style="display:block;height:0px;width:0px;"/><g id="sprotty_ArchitectureBlockImpl$prim_xilinx_clock_mux2/GenerateStatementBlockImpl$null4/AssignmentBlockImpl$clk_o/GPortImpl$sel_iIN" transform="translate(0, 10)" class="sprotty-hidden hidden" style="display:block;height:0px;width:0px;"/><g id="sprotty_ArchitectureBlockImpl$prim_xilinx_clock_mux2/GenerateStatementBlockImpl$null4/AssignmentBlockImpl$clk_o/GPortImpl$clk_oOUT" transform="translate(19.71875, 20)" class="sprotty-hidden hidden" style="display:block;height:0px;width:0px;"/></g><g id="sprotty_ArchitectureBlockImpl$prim_xilinx_clock_mux2/GenerateStatementBlockImpl$null4/InstantiationBlockImpl$bufgmux_i" transform="translate(55, 75)" class="instantiation"><g class="sprotty-block" style="fill:rgb(255, 255, 255);stroke:rgb(48, 48, 48);stroke-dasharray:0px;"><rect x="0" y="0" rx="1" ry="1" width="183.78125" height="112"/><text x="91.890625" y="12" class="sprotty-block-name" style="cursor:pointer;font-weight:700;perspective-origin:91.8906px 0px;fill:rgb(48, 48, 48);stroke:rgba(0, 0, 0, 0);dominant-baseline:middle;text-anchor:middle;">bufgmux_i : BUFGMUX</text><line x1="0" y1="20" x2="183.78125" y2="20"/></g><g id="sprotty_ArchitectureBlockImpl$prim_xilinx_clock_mux2/GenerateStatementBlockImpl$null4/InstantiationBlockImpl$bufgmux_i/BPortImpl$S" transform="translate(0, 94)" class="triangle"><path d="M 0,0 L 5,2.5 L 0,5 Z" transform="translate(-1.67, -2.5)" class="sprotty-port" style="fill:rgb(48, 48, 48);stroke:rgb(48, 48, 48);"/><text class="clickable sprotty-label port" id="sprotty_ArchitectureBlockImpl$prim_xilinx_clock_mux2/GenerateStatementBlockImpl$null4/InstantiationBlockImpl$bufgmux_i/BPortImpl$S/label" transform="translate(6, -9) translate(3.59375, 14)" style="cursor:default;font-size:12px;perspective-origin:0px 0px;fill:rgb(48, 48, 48);text-anchor:middle;">S</text></g><g id="sprotty_ArchitectureBlockImpl$prim_xilinx_clock_mux2/GenerateStatementBlockImpl$null4/InstantiationBlockImpl$bufgmux_i/BPortImpl$I1" transform="translate(0, 66)" class="triangle"><path d="M 0,0 L 5,2.5 L 0,5 Z" transform="translate(-1.67, -2.5)" class="sprotty-port" style="fill:rgb(48, 48, 48);stroke:rgb(48, 48, 48);"/><text class="clickable sprotty-label port" id="sprotty_ArchitectureBlockImpl$prim_xilinx_clock_mux2/GenerateStatementBlockImpl$null4/InstantiationBlockImpl$bufgmux_i/BPortImpl$I1/label" transform="translate(6, -9) translate(5.09375, 14)" style="cursor:default;font-size:12px;perspective-origin:0px 0px;fill:rgb(48, 48, 48);text-anchor:middle;">I1</text></g><g id="sprotty_ArchitectureBlockImpl$prim_xilinx_clock_mux2/GenerateStatementBlockImpl$null4/InstantiationBlockImpl$bufgmux_i/BPortImpl$I0" transform="translate(0, 38)" class="triangle"><path d="M 0,0 L 5,2.5 L 0,5 Z" transform="translate(-1.67, -2.5)" class="sprotty-port" style="fill:rgb(48, 48, 48);stroke:rgb(48, 48, 48);"/><text class="clickable sprotty-label port" id="sprotty_ArchitectureBlockImpl$prim_xilinx_clock_mux2/GenerateStatementBlockImpl$null4/InstantiationBlockImpl$bufgmux_i/BPortImpl$I0/label" transform="translate(6, -9) translate(5.09375, 14)" style="cursor:default;font-size:12px;perspective-origin:0.171875px 0px;fill:rgb(48, 48, 48);text-anchor:middle;">I0</text></g><g id="sprotty_ArchitectureBlockImpl$prim_xilinx_clock_mux2/GenerateStatementBlockImpl$null4/InstantiationBlockImpl$bufgmux_i/BPortImpl$O" transform="translate(183.78125, 66)" class="triangle"><path d="M 0,0 L 5,2.5 L 0,5 Z" transform="translate(-1.67, -2.5)" class="sprotty-port" style="fill:rgb(48, 48, 48);stroke:rgb(48, 48, 48);"/><text class="clickable sprotty-label port" id="sprotty_ArchitectureBlockImpl$prim_xilinx_clock_mux2/GenerateStatementBlockImpl$null4/InstantiationBlockImpl$bufgmux_i/BPortImpl$O/label" transform="translate(-15.015625, -9) translate(4.453125, 14)" style="cursor:default;font-size:12px;perspective-origin:0.046875px 0px;fill:rgb(48, 48, 48);text-anchor:middle;">O</text></g></g><g id="sprotty_ArchitectureBlockImpl$prim_xilinx_clock_mux2/GenerateStatementBlockImpl$null4/GPortImpl$sel_i" transform="translate(0, 25)" class="triangle"><path d="M 0,0 L 5,2.5 L 0,5 Z" transform="translate(-1.67, -2.5)" class="sprotty-port" style="fill:rgb(48, 48, 48);stroke:rgb(48, 48, 48);"/></g><g id="sprotty_ArchitectureBlockImpl$prim_xilinx_clock_mux2/GenerateStatementBlockImpl$null4/GPortImpl$clk1_i" transform="translate(0, 45)" class="triangle"><path d="M 0,0 L 5,2.5 L 0,5 Z" transform="translate(-1.67, -2.5)" class="sprotty-port" style="fill:rgb(48, 48, 48);stroke:rgb(48, 48, 48);"/></g><g id="sprotty_ArchitectureBlockImpl$prim_xilinx_clock_mux2/GenerateStatementBlockImpl$null4/GPortImpl$clk0_i" transform="translate(0, 35)" class="triangle"><path d="M 0,0 L 5,2.5 L 0,5 Z" transform="translate(-1.67, -2.5)" class="sprotty-port" style="fill:rgb(48, 48, 48);stroke:rgb(48, 48, 48);"/></g><g id="sprotty_ArchitectureBlockImpl$prim_xilinx_clock_mux2/GenerateStatementBlockImpl$null4/GPortImpl$clk_o" transform="translate(273.78125, 35)" class="triangle"><path d="M 0,0 L 5,2.5 L 0,5 Z" transform="translate(-1.67, -2.5)" class="sprotty-port" style="fill:rgb(48, 48, 48);stroke:rgb(48, 48, 48);"/></g></g><g id="sprotty_ArchitectureBlockImpl$prim_xilinx_clock_mux2/BPortImpl$sel_i" transform="translate(0, 36)" class="triangle"><path d="M 0,0 L 5,2.5 L 0,5 Z" transform="translate(-1.67, -2.5)" class="sprotty-port" style="fill:rgb(48, 48, 48);stroke:rgb(48, 48, 48);"/><text class="clickable sprotty-label port" id="sprotty_ArchitectureBlockImpl$prim_xilinx_clock_mux2/BPortImpl$sel_i/label" transform="translate(6, 6) translate(12.859375, 14)" style="cursor:default;font-size:12px;perspective-origin:0px 0px;fill:rgb(48, 48, 48);text-anchor:middle;">sel_i</text></g><g id="sprotty_ArchitectureBlockImpl$prim_xilinx_clock_mux2/BPortImpl$clk1_i" transform="translate(0, 104)" class="triangle"><path d="M 0,0 L 5,2.5 L 0,5 Z" transform="translate(-1.67, -2.5)" class="sprotty-port" style="fill:rgb(48, 48, 48);stroke:rgb(48, 48, 48);"/><text class="clickable sprotty-label port" id="sprotty_ArchitectureBlockImpl$prim_xilinx_clock_mux2/BPortImpl$clk1_i/label" transform="translate(6, 6) translate(16.421875, 14)" style="cursor:default;font-size:12px;perspective-origin:0px 0px;fill:rgb(48, 48, 48);text-anchor:middle;">clk1_i</text></g><g id="sprotty_ArchitectureBlockImpl$prim_xilinx_clock_mux2/BPortImpl$clk0_i" transform="translate(0, 70)" class="triangle"><path d="M 0,0 L 5,2.5 L 0,5 Z" transform="translate(-1.67, -2.5)" class="sprotty-port" style="fill:rgb(48, 48, 48);stroke:rgb(48, 48, 48);"/><text class="clickable sprotty-label port" id="sprotty_ArchitectureBlockImpl$prim_xilinx_clock_mux2/BPortImpl$clk0_i/label" transform="translate(6, 6) translate(16.421875, 14)" style="cursor:default;font-size:12px;perspective-origin:0px 0px;fill:rgb(48, 48, 48);text-anchor:middle;">clk0_i</text></g><g id="sprotty_ArchitectureBlockImpl$prim_xilinx_clock_mux2/BPortImpl$clk_o" transform="translate(398.78125, 70)" class="triangle"><path d="M 0,0 L 5,2.5 L 0,5 Z" transform="translate(-1.67, -2.5)" class="sprotty-port" style="fill:rgb(48, 48, 48);stroke:rgb(48, 48, 48);"/><text class="clickable sprotty-label port" id="sprotty_ArchitectureBlockImpl$prim_xilinx_clock_mux2/BPortImpl$clk_o/label" transform="translate(-36.15625, 6) translate(15.078125, 14)" style="cursor:default;font-size:12px;perspective-origin:0px 0px;fill:rgb(48, 48, 48);text-anchor:middle;">clk_o</text></g></g></g></svg>