<svg xmlns="http://www.w3.org/2000/svg" id="sprotty_work.alert_handler_esc_timer" class="sprotty-graph sprotty-block-diagram blockdiagram" style="font-family:&quot;Noto Sans&quot;, Helvetica, Arial, sans-serif;perspective-origin:0px 0px;transform-origin:0px 0px;" version="1.1" viewBox="7 7 592.8125 455.4761904761905" width="592.8125" height="455.4761904761905"><g transform="scale(1) translate(0,0)"><g id="sprotty_ArchitectureBlockImpl$alert_handler_esc_timer" transform="translate(12, 12)" class="architecture"><g class="sprotty-block" style="fill:rgb(255, 255, 255);stroke:rgb(48, 48, 48);stroke-dasharray:0px;"><rect x="0" y="0" rx="1" ry="1" width="582.8125" height="445.4761904761905"/><text x="291.40625" y="12" class="sprotty-block-name" style="cursor:pointer;font-weight:700;perspective-origin:291.406px 0px;fill:rgb(48, 48, 48);stroke:rgba(0, 0, 0, 0);dominant-baseline:middle;text-anchor:middle;">alert_handler_esc_timer</text><line x1="0" y1="20" x2="582.8125" y2="20"/></g><g id="sprotty_ArchitectureBlockImpl$alert_handler_esc_timer/AlwaysBlockImpl$p_fsm/GPortImpl$esc_trig_oOUT_to_ArchitectureBlockImpl$alert_handler_esc_timer/BPortImpl$esc_trig_o" class="sprotty-edge edge" style="fill:none;stroke:rgb(112, 112, 112);stroke-linejoin:round;"><g><path d="M 234.65625 262.57142857142856 L 262.65625 262.57142857142856 C 263.65625 262.57142857142856 264.65625 261.57142857142856 264.65625 260.57142857142856 L 264.65625 220.47619047619048 C 264.65625 219.47619047619048 265.65625 218.47619047619048 266.65625 218.47619047619048 L 582.8125 218.47619047619048 "/><path d="M 234.65625 262.57142857142856 L 262.65625 262.57142857142856 C 263.65625 262.57142857142856 264.65625 261.57142857142856 264.65625 260.57142857142856 L 264.65625 220.47619047619048 C 264.65625 219.47619047619048 265.65625 218.47619047619048 266.65625 218.47619047619048 L 582.8125 218.47619047619048 " class="clickable"/></g></g><g id="sprotty_ArchitectureBlockImpl$alert_handler_esc_timer/AssignmentBlockImpl$esc_cnt_o/GPortImpl$esc_cnt_oOUT_to_ArchitectureBlockImpl$alert_handler_esc_timer/BPortImpl$esc_cnt_o" class="sprotty-edge thick edge" style="fill:none;stroke:rgb(112, 112, 112);stroke-linejoin:round;stroke-width:3px;"><g><path d="M 461.75 294.4761904761905 L 582.8125 294.4761904761905 "/><path d="M 461.75 294.4761904761905 L 582.8125 294.4761904761905 " class="clickable"/></g></g><g id="sprotty_ArchitectureBlockImpl$alert_handler_esc_timer/GenerateStatementBlockImpl$gen_phase_map/GPortImpl$esc_sig_req_o_to_ArchitectureBlockImpl$alert_handler_esc_timer/BPortImpl$esc_sig_req_o" class="sprotty-edge thick edge" style="fill:none;stroke:rgb(112, 112, 112);stroke-linejoin:round;stroke-width:3px;"><g><path d="M 412.03125 90 L 582.8125 90 "/><path d="M 412.03125 90 L 582.8125 90 " class="clickable"/></g></g><g id="sprotty_ArchitectureBlockImpl$alert_handler_esc_timer/AssignmentBlockImpl$esc_state_o/GPortImpl$esc_state_oOUT_to_ArchitectureBlockImpl$alert_handler_esc_timer/BPortImpl$esc_state_o" class="sprotty-edge thick edge" style="fill:none;stroke:rgb(112, 112, 112);stroke-linejoin:round;stroke-width:3px;"><g><path d="M 461.75 252.47619047619048 L 582.8125 252.47619047619048 "/><path d="M 461.75 252.47619047619048 L 582.8125 252.47619047619048 " class="clickable"/></g></g><g id="sprotty_ArchitectureBlockImpl$alert_handler_esc_timer/BPortImpl$timeout_cyc_i_to_ArchitectureBlockImpl$alert_handler_esc_timer/AlwaysBlockImpl$p_fsm/GPortImpl$timeout_cyc_iIN" class="sprotty-edge thick edge" style="fill:none;stroke:rgb(112, 112, 112);stroke-linejoin:round;stroke-width:3px;"><g><path d="M 0 260 L 108.90625 260 C 109.90625 260 110.90625 261 110.90625 262 L 110.90625 282 C 110.90625 283 111.90625 284 112.90625 284 L 170.90625 284 "/><path d="M 0 260 L 108.90625 260 C 109.90625 260 110.90625 261 110.90625 262 L 110.90625 282 C 110.90625 283 111.90625 284 112.90625 284 L 170.90625 284 " class="clickable"/></g></g><g id="sprotty_ArchitectureBlockImpl$alert_handler_esc_timer/BPortImpl$accum_trig_i_to_ArchitectureBlockImpl$alert_handler_esc_timer/AlwaysBlockImpl$p_fsm/GPortImpl$accum_trig_iIN" class="sprotty-edge edge" style="fill:none;stroke:rgb(112, 112, 112);stroke-linejoin:round;"><g><path d="M 0 192 L 128.90625 192 C 129.90625 192 130.90625 193 130.90625 194 L 130.90625 262 C 130.90625 263 131.90625 264 132.90625 264 L 170.90625 264 "/><path d="M 0 192 L 128.90625 192 C 129.90625 192 130.90625 193 130.90625 194 L 130.90625 262 C 130.90625 263 131.90625 264 132.90625 264 L 170.90625 264 " class="clickable"/></g></g><g id="sprotty_ArchitectureBlockImpl$alert_handler_esc_timer/BPortImpl$en_i_to_ArchitectureBlockImpl$alert_handler_esc_timer/AlwaysBlockImpl$p_fsm/GPortImpl$en_iIN" class="sprotty-edge edge" style="fill:none;stroke:rgb(112, 112, 112);stroke-linejoin:round;"><g><path d="M 0 226 L 118.90625 226 C 119.90625 226 120.90625 227 120.90625 228 L 120.90625 272 C 120.90625 273 121.90625 274 122.90625 274 L 170.90625 274 "/><path d="M 0 226 L 118.90625 226 C 119.90625 226 120.90625 227 120.90625 228 L 120.90625 272 C 120.90625 273 121.90625 274 122.90625 274 L 170.90625 274 " class="clickable"/></g></g><g id="sprotty_ArchitectureBlockImpl$alert_handler_esc_timer/BPortImpl$clr_i_to_ArchitectureBlockImpl$alert_handler_esc_timer/AlwaysBlockImpl$p_fsm/GPortImpl$clr_iIN" class="sprotty-edge edge" style="fill:none;stroke:rgb(112, 112, 112);stroke-linejoin:round;"><g><path d="M 0 294 L 170.90625 294 "/><path d="M 0 294 L 170.90625 294 " class="clickable"/></g></g><g id="sprotty_ArchitectureBlockImpl$alert_handler_esc_timer/BPortImpl$timeout_en_i_to_ArchitectureBlockImpl$alert_handler_esc_timer/AlwaysBlockImpl$p_fsm/GPortImpl$timeout_en_iIN" class="sprotty-edge edge" style="fill:none;stroke:rgb(112, 112, 112);stroke-linejoin:round;"><g><path d="M 0 124 L 148.90625 124 C 149.90625 124 150.90625 125 150.90625 126 L 150.90625 242 C 150.90625 243 151.90625 244 152.90625 244 L 170.90625 244 "/><path d="M 0 124 L 148.90625 124 C 149.90625 124 150.90625 125 150.90625 126 L 150.90625 242 C 150.90625 243 151.90625 244 152.90625 244 L 170.90625 244 " class="clickable"/></g></g><g id="sprotty_ArchitectureBlockImpl$alert_handler_esc_timer/BPortImpl$phase_cyc_i_to_ArchitectureBlockImpl$alert_handler_esc_timer/AlwaysBlockImpl$p_fsm/GPortImpl$phase_cyc_iIN" class="sprotty-edge thick edge" style="fill:none;stroke:rgb(112, 112, 112);stroke-linejoin:round;stroke-width:3px;"><g><path d="M 0 158 L 138.90625 158 C 139.90625 158 140.90625 159 140.90625 160 L 140.90625 252 C 140.90625 253 141.90625 254 142.90625 254 L 170.90625 254 "/><path d="M 0 158 L 138.90625 158 C 139.90625 158 140.90625 159 140.90625 160 L 140.90625 252 C 140.90625 253 141.90625 254 142.90625 254 L 170.90625 254 " class="clickable"/></g></g><g id="sprotty_ArchitectureBlockImpl$alert_handler_esc_timer/BPortImpl$clk_i_to_ArchitectureBlockImpl$alert_handler_esc_timer/AlwaysBlockImpl$p_regs/GPortImpl$clk_iIN" class="sprotty-edge edge" style="fill:none;stroke:rgb(112, 112, 112);stroke-linejoin:round;"><g><path d="M 0 372.4761904761905 L 242.65625 372.4761904761905 C 243.65625 372.4761904761905 244.65625 371.4761904761905 244.65625 370.4761904761905 L 244.65625 313.1428571428571 C 244.65625 312.1428571428571 245.65625 311.1428571428571 246.65625 311.1428571428571 L 299.5052083333333 311.1428571428571 "/><path d="M 0 372.4761904761905 L 242.65625 372.4761904761905 C 243.65625 372.4761904761905 244.65625 371.4761904761905 244.65625 370.4761904761905 L 244.65625 313.1428571428571 C 244.65625 312.1428571428571 245.65625 311.1428571428571 246.65625 311.1428571428571 L 299.5052083333333 311.1428571428571 " class="clickable"/></g></g><g id="sprotty_ArchitectureBlockImpl$alert_handler_esc_timer/BPortImpl$rst_ni_to_ArchitectureBlockImpl$alert_handler_esc_timer/AlwaysBlockImpl$p_regs/GPortImpl$rst_niIN" class="sprotty-edge edge" style="fill:none;stroke:rgb(112, 112, 112);stroke-linejoin:round;"><g><path d="M 0 406.4761904761905 L 252.65625 406.4761904761905 C 253.65625 406.4761904761905 254.65625 405.4761904761905 254.65625 404.4761904761905 L 254.65625 323.1428571428571 C 254.65625 322.1428571428571 255.65625 321.1428571428571 256.65625 321.1428571428571 L 299.5052083333333 321.1428571428571 "/><path d="M 0 406.4761904761905 L 252.65625 406.4761904761905 C 253.65625 406.4761904761905 254.65625 405.4761904761905 254.65625 404.4761904761905 L 254.65625 323.1428571428571 C 254.65625 322.1428571428571 255.65625 321.1428571428571 256.65625 321.1428571428571 L 299.5052083333333 321.1428571428571 " class="clickable"/></g></g><g id="sprotty_ArchitectureBlockImpl$alert_handler_esc_timer/BPortImpl$esc_en_i_to_ArchitectureBlockImpl$alert_handler_esc_timer/GenerateStatementBlockImpl$gen_phase_map/GPortImpl$esc_en_i" class="sprotty-edge thick edge" style="fill:none;stroke:rgb(112, 112, 112);stroke-linejoin:round;stroke-width:3px;"><g><path d="M 0 56 L 242.65625 56 C 243.65625 56 244.65625 57 244.65625 58 L 244.65625 78 C 244.65625 79 245.65625 80 246.65625 80 L 274.65625 80 "/><path d="M 0 56 L 242.65625 56 C 243.65625 56 244.65625 57 244.65625 58 L 244.65625 78 C 244.65625 79 245.65625 80 246.65625 80 L 274.65625 80 " class="clickable"/></g></g><g id="sprotty_ArchitectureBlockImpl$alert_handler_esc_timer/BPortImpl$esc_map_i_to_ArchitectureBlockImpl$alert_handler_esc_timer/GenerateStatementBlockImpl$gen_phase_map/GPortImpl$esc_map_i" class="sprotty-edge thick edge" style="fill:none;stroke:rgb(112, 112, 112);stroke-linejoin:round;stroke-width:3px;"><g><path d="M 0 90 L 274.65625 90 "/><path d="M 0 90 L 274.65625 90 " class="clickable"/></g></g><g id="sprotty_ArchitectureBlockImpl$alert_handler_esc_timer/AlwaysBlockImpl$p_fsm/GPortImpl$state_dOUT_to_ArchitectureBlockImpl$alert_handler_esc_timer/AlwaysBlockImpl$p_regs/GPortImpl$state_dIN" class="sprotty-edge thick edge" style="fill:none;stroke:rgb(112, 112, 112);stroke-linejoin:round;stroke-width:3px;"><g><path d="M 234.65625 275.42857142857144 L 242.65625 275.42857142857144 C 243.65625 275.42857142857144 244.65625 276.42857142857144 244.65625 277.42857142857144 L 244.65625 279.1428571428571 C 244.65625 280.1428571428571 245.65625 281.1428571428571 246.65625 281.1428571428571 L 299.5052083333333 281.1428571428571 "/><path d="M 234.65625 275.42857142857144 L 242.65625 275.42857142857144 C 243.65625 275.42857142857144 244.65625 276.42857142857144 244.65625 277.42857142857144 L 244.65625 279.1428571428571 C 244.65625 280.1428571428571 245.65625 281.1428571428571 246.65625 281.1428571428571 L 299.5052083333333 281.1428571428571 " class="clickable"/></g></g><g id="sprotty_ArchitectureBlockImpl$alert_handler_esc_timer/AlwaysBlockImpl$p_regs/GPortImpl$state_qOUT_to_ArchitectureBlockImpl$alert_handler_esc_timer/AssignmentBlockImpl$esc_state_o/GPortImpl$state_qIN" class="sprotty-edge thick edge" style="fill:none;stroke:rgb(112, 112, 112);stroke-linejoin:round;stroke-width:3px;"><g><path d="M 362.3333333333333 317.8095238095238 L 420.03125 317.8095238095238 C 421.03125 317.8095238095238 422.03125 316.8095238095238 422.03125 315.8095238095238 L 422.03125 254.47619047619048 C 422.03125 253.47619047619048 423.03125 252.47619047619048 424.03125 252.47619047619048 L 442.03125 252.47619047619048 "/><path d="M 362.3333333333333 317.8095238095238 L 420.03125 317.8095238095238 C 421.03125 317.8095238095238 422.03125 316.8095238095238 422.03125 315.8095238095238 L 422.03125 254.47619047619048 C 422.03125 253.47619047619048 423.03125 252.47619047619048 424.03125 252.47619047619048 L 442.03125 252.47619047619048 " class="clickable"/></g><circle r="3" id="sprotty_ArchitectureBlockImpl$alert_handler_esc_timer/AlwaysBlockImpl$p_regs/GPortImpl$state_qOUT_to_ArchitectureBlockImpl$alert_handler_esc_timer/AssignmentBlockImpl$esc_state_o/GPortImpl$state_qIN/junction0" transform="translate(422.03125, 317.8095238095238)" class="sprotty-junction thick" style="fill:rgb(112, 112, 112);stroke:none;"/></g><g id="sprotty_ArchitectureBlockImpl$alert_handler_esc_timer/AlwaysBlockImpl$p_regs/GPortImpl$state_qOUT_to_ArchitectureBlockImpl$alert_handler_esc_timer/AlwaysBlockImpl$p_fsm/GPortImpl$state_qIN" class="sprotty-edge thick edge" style="fill:none;stroke:rgb(112, 112, 112);stroke-linejoin:round;stroke-width:3px;"><g><path d="M 362.3333333333333 317.8095238095238 L 420.03125 317.8095238095238 C 421.03125 317.8095238095238 422.03125 318.8095238095238 422.03125 319.8095238095238 L 422.03125 362.4761904761905 C 422.03125 363.4761904761905 421.03125 364.4761904761905 420.03125 364.4761904761905 L 162.90625 364.4761904761905 C 161.90625 364.4761904761905 160.90625 363.4761904761905 160.90625 362.4761904761905 L 160.90625 306 C 160.90625 305 161.90625 304 162.90625 304 L 170.90625 304 "/><path d="M 362.3333333333333 317.8095238095238 L 420.03125 317.8095238095238 C 421.03125 317.8095238095238 422.03125 318.8095238095238 422.03125 319.8095238095238 L 422.03125 362.4761904761905 C 422.03125 363.4761904761905 421.03125 364.4761904761905 420.03125 364.4761904761905 L 162.90625 364.4761904761905 C 161.90625 364.4761904761905 160.90625 363.4761904761905 160.90625 362.4761904761905 L 160.90625 306 C 160.90625 305 161.90625 304 162.90625 304 L 170.90625 304 " class="clickable"/></g></g><g id="sprotty_ArchitectureBlockImpl$alert_handler_esc_timer/AlwaysBlockImpl$p_fsm/GPortImpl$cnt_enOUT_to_ArchitectureBlockImpl$alert_handler_esc_timer/AlwaysBlockImpl$p_regs/GPortImpl$cnt_enIN" class="sprotty-edge edge" style="fill:none;stroke:rgb(112, 112, 112);stroke-linejoin:round;"><g><path d="M 234.65625 288.2857142857143 L 242.65625 288.2857142857143 C 243.65625 288.2857142857143 244.65625 289.2857142857143 244.65625 290.2857142857143 L 244.65625 290.2857142857143 C 244.65625 290.71428571428567 245.65625 291.1428571428571 246.65625 291.1428571428571 L 299.5052083333333 291.1428571428571 "/><path d="M 234.65625 288.2857142857143 L 242.65625 288.2857142857143 C 243.65625 288.2857142857143 244.65625 289.2857142857143 244.65625 290.2857142857143 L 244.65625 290.2857142857143 C 244.65625 290.71428571428567 245.65625 291.1428571428571 246.65625 291.1428571428571 L 299.5052083333333 291.1428571428571 " class="clickable"/></g></g><g id="sprotty_ArchitectureBlockImpl$alert_handler_esc_timer/AlwaysBlockImpl$p_fsm/GPortImpl$cnt_clrOUT_to_ArchitectureBlockImpl$alert_handler_esc_timer/AlwaysBlockImpl$p_regs/GPortImpl$cnt_clrIN" class="sprotty-edge edge" style="fill:none;stroke:rgb(112, 112, 112);stroke-linejoin:round;"><g><path d="M 234.65625 301.14285714285717 L 299.5052083333333 301.1428571428571 "/><path d="M 234.65625 301.14285714285717 L 299.5052083333333 301.1428571428571 " class="clickable"/></g></g><g id="sprotty_ArchitectureBlockImpl$alert_handler_esc_timer/AssignmentBlockImpl$cnt_ge/GPortImpl$threshOUT_to_ArchitectureBlockImpl$alert_handler_esc_timer/AlwaysBlockImpl$p_fsm/GPortImpl$cnt_geIN" class="sprotty-edge thick edge" style="fill:none;stroke:rgb(112, 112, 112);stroke-linejoin:round;stroke-width:3px;"><g><path d="M 461.75 192.47619047619048 L 469.75 192.47619047619048 C 470.75 192.47619047619048 471.75 191.47619047619048 471.75 190.47619047619048 L 471.75 169.47619047619048 C 471.75 168.47619047619048 470.75 167.47619047619048 469.75 167.47619047619048 L 162.90625 167.47619047619048 C 161.90625 167.47619047619048 160.90625 168.47619047619048 160.90625 169.47619047619048 L 160.90625 232 C 160.90625 233 161.90625 234 162.90625 234 L 170.90625 234 "/><path d="M 461.75 192.47619047619048 L 469.75 192.47619047619048 C 470.75 192.47619047619048 471.75 191.47619047619048 471.75 190.47619047619048 L 471.75 169.47619047619048 C 471.75 168.47619047619048 470.75 167.47619047619048 469.75 167.47619047619048 L 162.90625 167.47619047619048 C 161.90625 167.47619047619048 160.90625 168.47619047619048 160.90625 169.47619047619048 L 160.90625 232 C 160.90625 233 161.90625 234 162.90625 234 L 170.90625 234 " class="clickable"/></g></g><g id="sprotty_ArchitectureBlockImpl$alert_handler_esc_timer/AssignmentBlockImpl$cnt_d/GPortImpl$cnt_qOUT_to_ArchitectureBlockImpl$alert_handler_esc_timer/AlwaysBlockImpl$p_regs/GPortImpl$cnt_dIN" class="sprotty-edge thick edge" style="fill:none;stroke:rgb(112, 112, 112);stroke-linejoin:round;stroke-width:3px;"><g><path d="M 461.75 336.4761904761905 L 469.75 336.4761904761905 C 470.75 336.4761904761905 471.75 337.4761904761905 471.75 338.4761904761905 L 471.75 355.4761904761905 C 471.75 356.4761904761905 470.75 357.4761904761905 469.75 357.4761904761905 L 266.65625 357.4761904761905 C 265.65625 357.4761904761905 264.65625 356.4761904761905 264.65625 355.4761904761905 L 264.65625 333.1428571428571 C 264.65625 332.1428571428571 265.65625 331.1428571428571 266.65625 331.1428571428571 L 299.5052083333333 331.1428571428571 "/><path d="M 461.75 336.4761904761905 L 469.75 336.4761904761905 C 470.75 336.4761904761905 471.75 337.4761904761905 471.75 338.4761904761905 L 471.75 355.4761904761905 C 471.75 356.4761904761905 470.75 357.4761904761905 469.75 357.4761904761905 L 266.65625 357.4761904761905 C 265.65625 357.4761904761905 264.65625 356.4761904761905 264.65625 355.4761904761905 L 264.65625 333.1428571428571 C 264.65625 332.1428571428571 265.65625 331.1428571428571 266.65625 331.1428571428571 L 299.5052083333333 331.1428571428571 " class="clickable"/></g></g><g id="sprotty_ArchitectureBlockImpl$alert_handler_esc_timer/AlwaysBlockImpl$p_regs/GPortImpl$cnt_qOUT_to_ArchitectureBlockImpl$alert_handler_esc_timer/AssignmentBlockImpl$cnt_d/GPortImpl$cnt_qIN" class="sprotty-edge thick edge" style="fill:none;stroke:rgb(112, 112, 112);stroke-linejoin:round;stroke-width:3px;"><g><path d="M 362.3333333333333 294.4761904761904 L 430.03125 294.4761904761905 C 431.03125 294.4761904761905 432.03125 295.4761904761905 432.03125 296.4761904761905 L 432.03125 334.4761904761905 C 432.03125 335.4761904761905 433.03125 336.4761904761905 434.03125 336.4761904761905 L 442.03125 336.4761904761905 "/><path d="M 362.3333333333333 294.4761904761904 L 430.03125 294.4761904761905 C 431.03125 294.4761904761905 432.03125 295.4761904761905 432.03125 296.4761904761905 L 432.03125 334.4761904761905 C 432.03125 335.4761904761905 433.03125 336.4761904761905 434.03125 336.4761904761905 L 442.03125 336.4761904761905 " class="clickable"/></g><circle r="3" id="sprotty_ArchitectureBlockImpl$alert_handler_esc_timer/AlwaysBlockImpl$p_regs/GPortImpl$cnt_qOUT_to_ArchitectureBlockImpl$alert_handler_esc_timer/AssignmentBlockImpl$cnt_d/GPortImpl$cnt_qIN/junction0" transform="translate(432.03125, 294.4761904761905)" class="sprotty-junction thick" style="fill:rgb(112, 112, 112);stroke:none;"/></g><g id="sprotty_ArchitectureBlockImpl$alert_handler_esc_timer/AlwaysBlockImpl$p_regs/GPortImpl$cnt_qOUT_to_ArchitectureBlockImpl$alert_handler_esc_timer/AssignmentBlockImpl$esc_cnt_o/GPortImpl$cnt_qIN" class="sprotty-edge thick edge" style="fill:none;stroke:rgb(112, 112, 112);stroke-linejoin:round;stroke-width:3px;"><g><path d="M 362.3333333333333 294.4761904761904 L 442.03125 294.4761904761905 "/><path d="M 362.3333333333333 294.4761904761904 L 442.03125 294.4761904761905 " class="clickable"/></g></g><g id="sprotty_ArchitectureBlockImpl$alert_handler_esc_timer/AlwaysBlockImpl$p_regs/GPortImpl$cnt_qOUT_to_ArchitectureBlockImpl$alert_handler_esc_timer/AssignmentBlockImpl$cnt_ge/GPortImpl$cnt_qIN" class="sprotty-edge thick edge" style="fill:none;stroke:rgb(112, 112, 112);stroke-linejoin:round;stroke-width:3px;"><g><path d="M 362.3333333333333 294.4761904761904 L 430.03125 294.4761904761905 C 431.03125 294.4761904761905 432.03125 293.4761904761905 432.03125 292.4761904761905 L 432.03125 199.47619047619048 C 432.03125 198.47619047619048 433.03125 197.47619047619048 434.03125 197.47619047619048 L 442.03125 197.47619047619048 "/><path d="M 362.3333333333333 294.4761904761904 L 430.03125 294.4761904761905 C 431.03125 294.4761904761905 432.03125 293.4761904761905 432.03125 292.4761904761905 L 432.03125 199.47619047619048 C 432.03125 198.47619047619048 433.03125 197.47619047619048 434.03125 197.47619047619048 L 442.03125 197.47619047619048 " class="clickable"/></g></g><g id="sprotty_ArchitectureBlockImpl$alert_handler_esc_timer/AlwaysBlockImpl$p_fsm/GPortImpl$threshOUT_to_ArchitectureBlockImpl$alert_handler_esc_timer/AssignmentBlockImpl$cnt_ge/GPortImpl$threshIN" class="sprotty-edge thick edge" style="fill:none;stroke:rgb(112, 112, 112);stroke-linejoin:round;stroke-width:3px;"><g><path d="M 234.65625 249.71428571428572 L 252.65625 249.71428571428572 C 253.65625 249.71428571428572 254.65625 248.71428571428572 254.65625 247.71428571428572 L 254.65625 189.47619047619048 C 254.65625 188.47619047619048 255.65625 187.47619047619048 256.65625 187.47619047619048 L 442.03125 187.47619047619048 "/><path d="M 234.65625 249.71428571428572 L 252.65625 249.71428571428572 C 253.65625 249.71428571428572 254.65625 248.71428571428572 254.65625 247.71428571428572 L 254.65625 189.47619047619048 C 254.65625 188.47619047619048 255.65625 187.47619047619048 256.65625 187.47619047619048 L 442.03125 187.47619047619048 " class="clickable"/></g></g><g id="sprotty_ArchitectureBlockImpl$alert_handler_esc_timer/AlwaysBlockImpl$p_fsm/GPortImpl$phase_ohOUT_to_ArchitectureBlockImpl$alert_handler_esc_timer/GenerateStatementBlockImpl$gen_phase_map/GPortImpl$phase_oh" class="sprotty-edge thick edge" style="fill:none;stroke:rgb(112, 112, 112);stroke-linejoin:round;stroke-width:3px;"><g><path d="M 234.65625 236.85714285714286 L 242.65625 236.85714285714286 C 243.65625 236.85714285714286 244.65625 235.85714285714286 244.65625 234.85714285714286 L 244.65625 113 C 244.65625 112 245.65625 111 246.65625 111 L 274.65625 111 "/><path d="M 234.65625 236.85714285714286 L 242.65625 236.85714285714286 C 243.65625 236.85714285714286 244.65625 235.85714285714286 244.65625 234.85714285714286 L 244.65625 113 C 244.65625 112 245.65625 111 246.65625 111 L 274.65625 111 " class="clickable"/></g></g><g id="sprotty_ArchitectureBlockImpl$alert_handler_esc_timer/GenerateStatementBlockImpl$gen_phase_map" transform="translate(274.65625, 35)" class="generate"><g class="sprotty-block sprotty-block-generate" style="fill:rgb(255, 255, 255);stroke:rgb(48, 48, 48);stroke-dasharray:0px;"><rect x="0" y="0" rx="1" ry="1" width="137.375" height="93" style="stroke-dasharray:3px, 1px;"/><text x="68.6875" y="12" class="sprotty-block-name" style="cursor:pointer;font-weight:700;perspective-origin:68.6875px 0px;fill:rgb(48, 48, 48);stroke:rgba(0, 0, 0, 0);dominant-baseline:middle;text-anchor:middle;">gen_phase_map</text><line x1="0" y1="20" x2="137.375" y2="20" style="stroke-dasharray:3px, 1px;"/></g><g id="sprotty_ArchitectureBlockImpl$alert_handler_esc_timer/GenerateStatementBlockImpl$gen_phase_map/AssignmentBlockImpl$esc_sig_req_o/GPortImpl$esc_sig_req_oOUT_to_ArchitectureBlockImpl$alert_handler_esc_timer/GenerateStatementBlockImpl$gen_phase_map/GPortImpl$esc_sig_req_o" class="sprotty-edge thick edge" style="fill:none;stroke:rgb(112, 112, 112);stroke-linejoin:round;stroke-width:3px;"><g><path d="M 74.4375 55 L 137.375 55 "/><path d="M 74.4375 55 L 137.375 55 " class="clickable"/></g></g><g id="sprotty_ArchitectureBlockImpl$alert_handler_esc_timer/GenerateStatementBlockImpl$gen_phase_map/GPortImpl$esc_en_i_to_ArchitectureBlockImpl$alert_handler_esc_timer/GenerateStatementBlockImpl$gen_phase_map/AssignmentBlockImpl$esc_map_oh/GPortImpl$esc_en_iIN" class="sprotty-edge thick edge" style="fill:none;stroke:rgb(112, 112, 112);stroke-linejoin:round;stroke-width:3px;"><g><path d="M 0 45 L 15 45 "/><path d="M 0 45 L 15 45 " class="clickable"/></g></g><g id="sprotty_ArchitectureBlockImpl$alert_handler_esc_timer/GenerateStatementBlockImpl$gen_phase_map/GPortImpl$esc_map_i_to_ArchitectureBlockImpl$alert_handler_esc_timer/GenerateStatementBlockImpl$gen_phase_map/AssignmentBlockImpl$esc_map_oh/GPortImpl$esc_map_iIN" class="sprotty-edge thick edge" style="fill:none;stroke:rgb(112, 112, 112);stroke-linejoin:round;stroke-width:3px;"><g><path d="M 0 55 L 15 55 "/><path d="M 0 55 L 15 55 " class="clickable"/></g></g><g id="sprotty_ArchitectureBlockImpl$alert_handler_esc_timer/GenerateStatementBlockImpl$gen_phase_map/GPortImpl$phase_oh_to_ArchitectureBlockImpl$alert_handler_esc_timer/GenerateStatementBlockImpl$gen_phase_map/AssignmentBlockImpl$esc_sig_req_o/GPortImpl$phase_ohIN" class="sprotty-edge thick edge" style="fill:none;stroke:rgb(112, 112, 112);stroke-linejoin:round;stroke-width:3px;"><g><path d="M 0 76 L 42.71875 76 C 43.71875 76 44.71875 75 44.71875 74 L 44.71875 62 C 44.71875 61 45.71875 60 46.71875 60 L 54.71875 60 "/><path d="M 0 76 L 42.71875 76 C 43.71875 76 44.71875 75 44.71875 74 L 44.71875 62 C 44.71875 61 45.71875 60 46.71875 60 L 54.71875 60 " class="clickable"/></g></g><g id="sprotty_ArchitectureBlockImpl$alert_handler_esc_timer/GenerateStatementBlockImpl$gen_phase_map/AssignmentBlockImpl$esc_map_oh/GPortImpl$esc_map_ohOUT_to_ArchitectureBlockImpl$alert_handler_esc_timer/GenerateStatementBlockImpl$gen_phase_map/AssignmentBlockImpl$esc_sig_req_o/GPortImpl$esc_map_ohIN" class="sprotty-edge thick edge" style="fill:none;stroke:rgb(112, 112, 112);stroke-linejoin:round;stroke-width:3px;"><g><path d="M 34.71875 50 L 54.71875 50 "/><path d="M 34.71875 50 L 54.71875 50 " class="clickable"/></g></g><g id="sprotty_ArchitectureBlockImpl$alert_handler_esc_timer/GenerateStatementBlockImpl$gen_phase_map/AssignmentBlockImpl$esc_sig_req_o" transform="translate(54.71875, 40)" class="statement"><rect x="0" y="0" rx="10" ry="5" width="19.71875" height="30" class="sprotty-node" style="fill:rgb(245, 245, 245);stroke:rgb(112, 112, 112);"/><text class="clickable sprotty-label statementtype" id="sprotty_ArchitectureBlockImpl$alert_handler_esc_timer/GenerateStatementBlockImpl$gen_phase_map/AssignmentBlockImpl$esc_sig_req_o/labeltype" transform="translate(5, 9) translate(4.71875, 9)" style="cursor:default;font-size:8px;font-weight:700;perspective-origin:0.140625px 0px;fill:rgb(112, 112, 112);text-anchor:middle;">&lt;=</text><g id="sprotty_ArchitectureBlockImpl$alert_handler_esc_timer/GenerateStatementBlockImpl$gen_phase_map/AssignmentBlockImpl$esc_sig_req_o/GPortImpl$phase_ohIN" transform="translate(0, 20)" class="sprotty-hidden hidden" style="display:block;height:0px;width:0px;"/><g id="sprotty_ArchitectureBlockImpl$alert_handler_esc_timer/GenerateStatementBlockImpl$gen_phase_map/AssignmentBlockImpl$esc_sig_req_o/GPortImpl$esc_map_ohIN" transform="translate(0, 10)" class="sprotty-hidden hidden" style="display:block;height:0px;width:0px;"/><g id="sprotty_ArchitectureBlockImpl$alert_handler_esc_timer/GenerateStatementBlockImpl$gen_phase_map/AssignmentBlockImpl$esc_sig_req_o/GPortImpl$esc_sig_req_oOUT" transform="translate(19.71875, 15)" class="sprotty-hidden hidden" style="display:block;height:0px;width:0px;"/></g><g id="sprotty_ArchitectureBlockImpl$alert_handler_esc_timer/GenerateStatementBlockImpl$gen_phase_map/AssignmentBlockImpl$esc_map_oh" transform="translate(15, 35)" class="statement"><rect x="0" y="0" rx="10" ry="5" width="19.71875" height="30" class="sprotty-node" style="fill:rgb(245, 245, 245);stroke:rgb(112, 112, 112);"/><text class="clickable sprotty-label statementtype" id="sprotty_ArchitectureBlockImpl$alert_handler_esc_timer/GenerateStatementBlockImpl$gen_phase_map/AssignmentBlockImpl$esc_map_oh/labeltype" transform="translate(5, 9) translate(4.71875, 9)" style="cursor:default;font-size:8px;font-weight:700;perspective-origin:0.140625px 0px;fill:rgb(112, 112, 112);text-anchor:middle;">&lt;=</text><g id="sprotty_ArchitectureBlockImpl$alert_handler_esc_timer/GenerateStatementBlockImpl$gen_phase_map/AssignmentBlockImpl$esc_map_oh/GPortImpl$esc_map_iIN" transform="translate(0, 20)" class="sprotty-hidden hidden" style="display:block;height:0px;width:0px;"/><g id="sprotty_ArchitectureBlockImpl$alert_handler_esc_timer/GenerateStatementBlockImpl$gen_phase_map/AssignmentBlockImpl$esc_map_oh/GPortImpl$esc_en_iIN" transform="translate(0, 10)" class="sprotty-hidden hidden" style="display:block;height:0px;width:0px;"/><g id="sprotty_ArchitectureBlockImpl$alert_handler_esc_timer/GenerateStatementBlockImpl$gen_phase_map/AssignmentBlockImpl$esc_map_oh/GPortImpl$esc_map_ohOUT" transform="translate(19.71875, 15)" class="sprotty-hidden hidden" style="display:block;height:0px;width:0px;"/></g><g id="sprotty_ArchitectureBlockImpl$alert_handler_esc_timer/GenerateStatementBlockImpl$gen_phase_map/GPortImpl$phase_oh" transform="translate(0, 76)" class="triangle"><path d="M 0,0 L 5,2.5 L 0,5 Z" transform="translate(-1.67, -2.5)" class="sprotty-port" style="fill:rgb(48, 48, 48);stroke:rgb(48, 48, 48);"/></g><g id="sprotty_ArchitectureBlockImpl$alert_handler_esc_timer/GenerateStatementBlockImpl$gen_phase_map/GPortImpl$esc_map_i" transform="translate(0, 55)" class="triangle"><path d="M 0,0 L 5,2.5 L 0,5 Z" transform="translate(-1.67, -2.5)" class="sprotty-port" style="fill:rgb(48, 48, 48);stroke:rgb(48, 48, 48);"/></g><g id="sprotty_ArchitectureBlockImpl$alert_handler_esc_timer/GenerateStatementBlockImpl$gen_phase_map/GPortImpl$esc_en_i" transform="translate(0, 45)" class="triangle"><path d="M 0,0 L 5,2.5 L 0,5 Z" transform="translate(-1.67, -2.5)" class="sprotty-port" style="fill:rgb(48, 48, 48);stroke:rgb(48, 48, 48);"/></g><g id="sprotty_ArchitectureBlockImpl$alert_handler_esc_timer/GenerateStatementBlockImpl$gen_phase_map/GPortImpl$esc_sig_req_o" transform="translate(137.375, 55)" class="triangle"><path d="M 0,0 L 5,2.5 L 0,5 Z" transform="translate(-1.67, -2.5)" class="sprotty-port" style="fill:rgb(48, 48, 48);stroke:rgb(48, 48, 48);"/></g></g><g id="sprotty_ArchitectureBlockImpl$alert_handler_esc_timer/AlwaysBlockImpl$p_regs" transform="translate(299.5052083333333, 271.1428571428571)" class="statement"><rect x="0" y="0" rx="10" ry="5" width="62.828125" height="70" class="sprotty-node" style="fill:rgb(245, 245, 245);stroke:rgb(112, 112, 112);"/><text class="clickable sprotty-label statementtext" id="sprotty_ArchitectureBlockImpl$alert_handler_esc_timer/AlwaysBlockImpl$p_regs/labeltext" transform="translate(5, 17) translate(26.375, 19)" style="cursor:default;font-weight:700;perspective-origin:0.03125px 0px;fill:rgb(112, 112, 112);text-anchor:middle;">p_regs</text><text class="clickable sprotty-label statementtype" id="sprotty_ArchitectureBlockImpl$alert_handler_esc_timer/AlwaysBlockImpl$p_regs/labeltype" transform="translate(11.96875, 41) translate(18.828125, 9)" style="cursor:default;font-size:8px;font-weight:700;perspective-origin:0.609375px 0px;fill:rgb(112, 112, 112);text-anchor:middle;">always_ff</text><g id="sprotty_ArchitectureBlockImpl$alert_handler_esc_timer/AlwaysBlockImpl$p_regs/GPortImpl$cnt_dIN" transform="translate(0, 60)" class="sprotty-hidden hidden" style="display:block;height:0px;width:0px;"/><g id="sprotty_ArchitectureBlockImpl$alert_handler_esc_timer/AlwaysBlockImpl$p_regs/GPortImpl$cnt_clrIN" transform="translate(0, 30)" class="sprotty-hidden hidden" style="display:block;height:0px;width:0px;"/><g id="sprotty_ArchitectureBlockImpl$alert_handler_esc_timer/AlwaysBlockImpl$p_regs/GPortImpl$cnt_enIN" transform="translate(0, 20)" class="sprotty-hidden hidden" style="display:block;height:0px;width:0px;"/><g id="sprotty_ArchitectureBlockImpl$alert_handler_esc_timer/AlwaysBlockImpl$p_regs/GPortImpl$state_dIN" transform="translate(0, 10)" class="sprotty-hidden hidden" style="display:block;height:0px;width:0px;"/><g id="sprotty_ArchitectureBlockImpl$alert_handler_esc_timer/AlwaysBlockImpl$p_regs/GPortImpl$rst_niIN" transform="translate(0, 50)" class="sprotty-hidden hidden" style="display:block;height:0px;width:0px;"/><g id="sprotty_ArchitectureBlockImpl$alert_handler_esc_timer/AlwaysBlockImpl$p_regs/GPortImpl$clk_iIN" transform="translate(0, 40)" class="sprotty-hidden hidden" style="display:block;height:0px;width:0px;"/><g id="sprotty_ArchitectureBlockImpl$alert_handler_esc_timer/AlwaysBlockImpl$p_regs/GPortImpl$state_qOUT" transform="translate(62.828125, 46.66666666666667)" class="sprotty-hidden hidden" style="display:block;height:0px;width:0px;"/><g id="sprotty_ArchitectureBlockImpl$alert_handler_esc_timer/AlwaysBlockImpl$p_regs/GPortImpl$cnt_qOUT" transform="translate(62.828125, 23.333333333333336)" class="sprotty-hidden hidden" style="display:block;height:0px;width:0px;"/></g><g id="sprotty_ArchitectureBlockImpl$alert_handler_esc_timer/AlwaysBlockImpl$p_fsm" transform="translate(170.90625, 224)" class="statement"><rect x="0" y="0" rx="10" ry="5" width="63.75" height="90" class="sprotty-node" style="fill:rgb(245, 245, 245);stroke:rgb(112, 112, 112);"/><text class="clickable sprotty-label statementtext" id="sprotty_ArchitectureBlockImpl$alert_handler_esc_timer/AlwaysBlockImpl$p_fsm/labeltext" transform="translate(7.59375, 27) translate(24.28125, 19)" style="cursor:default;font-weight:700;perspective-origin:0px 0px;fill:rgb(112, 112, 112);text-anchor:middle;">p_fsm</text><text class="clickable sprotty-label statementtype" id="sprotty_ArchitectureBlockImpl$alert_handler_esc_timer/AlwaysBlockImpl$p_fsm/labeltype" transform="translate(5, 51) translate(26.875, 9)" style="cursor:default;font-size:8px;font-weight:700;perspective-origin:0px 0px;fill:rgb(112, 112, 112);text-anchor:middle;">always_comb</text><g id="sprotty_ArchitectureBlockImpl$alert_handler_esc_timer/AlwaysBlockImpl$p_fsm/GPortImpl$phase_cyc_iIN" transform="translate(0, 30)" class="sprotty-hidden hidden" style="display:block;height:0px;width:0px;"/><g id="sprotty_ArchitectureBlockImpl$alert_handler_esc_timer/AlwaysBlockImpl$p_fsm/GPortImpl$cnt_geIN" transform="translate(0, 10)" class="sprotty-hidden hidden" style="display:block;height:0px;width:0px;"/><g id="sprotty_ArchitectureBlockImpl$alert_handler_esc_timer/AlwaysBlockImpl$p_fsm/GPortImpl$timeout_en_iIN" transform="translate(0, 20)" class="sprotty-hidden hidden" style="display:block;height:0px;width:0px;"/><g id="sprotty_ArchitectureBlockImpl$alert_handler_esc_timer/AlwaysBlockImpl$p_fsm/GPortImpl$clr_iIN" transform="translate(0, 70)" class="sprotty-hidden hidden" style="display:block;height:0px;width:0px;"/><g id="sprotty_ArchitectureBlockImpl$alert_handler_esc_timer/AlwaysBlockImpl$p_fsm/GPortImpl$en_iIN" transform="translate(0, 50)" class="sprotty-hidden hidden" style="display:block;height:0px;width:0px;"/><g id="sprotty_ArchitectureBlockImpl$alert_handler_esc_timer/AlwaysBlockImpl$p_fsm/GPortImpl$accum_trig_iIN" transform="translate(0, 40)" class="sprotty-hidden hidden" style="display:block;height:0px;width:0px;"/><g id="sprotty_ArchitectureBlockImpl$alert_handler_esc_timer/AlwaysBlockImpl$p_fsm/GPortImpl$timeout_cyc_iIN" transform="translate(0, 60)" class="sprotty-hidden hidden" style="display:block;height:0px;width:0px;"/><g id="sprotty_ArchitectureBlockImpl$alert_handler_esc_timer/AlwaysBlockImpl$p_fsm/GPortImpl$state_qIN" transform="translate(0, 80)" class="sprotty-hidden hidden" style="display:block;height:0px;width:0px;"/><g id="sprotty_ArchitectureBlockImpl$alert_handler_esc_timer/AlwaysBlockImpl$p_fsm/GPortImpl$state_dOUT" transform="translate(63.75, 51.42857142857143)" class="sprotty-hidden hidden" style="display:block;height:0px;width:0px;"/><g id="sprotty_ArchitectureBlockImpl$alert_handler_esc_timer/AlwaysBlockImpl$p_fsm/GPortImpl$cnt_enOUT" transform="translate(63.75, 64.28571428571429)" class="sprotty-hidden hidden" style="display:block;height:0px;width:0px;"/><g id="sprotty_ArchitectureBlockImpl$alert_handler_esc_timer/AlwaysBlockImpl$p_fsm/GPortImpl$cnt_clrOUT" transform="translate(63.75, 77.14285714285715)" class="sprotty-hidden hidden" style="display:block;height:0px;width:0px;"/><g id="sprotty_ArchitectureBlockImpl$alert_handler_esc_timer/AlwaysBlockImpl$p_fsm/GPortImpl$esc_trig_oOUT" transform="translate(63.75, 38.57142857142857)" class="sprotty-hidden hidden" style="display:block;height:0px;width:0px;"/><g id="sprotty_ArchitectureBlockImpl$alert_handler_esc_timer/AlwaysBlockImpl$p_fsm/GPortImpl$phase_ohOUT" transform="translate(63.75, 12.857142857142858)" class="sprotty-hidden hidden" style="display:block;height:0px;width:0px;"/><g id="sprotty_ArchitectureBlockImpl$alert_handler_esc_timer/AlwaysBlockImpl$p_fsm/GPortImpl$threshOUT" transform="translate(63.75, 25.714285714285715)" class="sprotty-hidden hidden" style="display:block;height:0px;width:0px;"/></g><g id="sprotty_ArchitectureBlockImpl$alert_handler_esc_timer/AssignmentBlockImpl$cnt_ge" transform="translate(442.03125, 177.47619047619048)" class="statement"><rect x="0" y="0" rx="10" ry="5" width="19.71875" height="30" class="sprotty-node" style="fill:rgb(245, 245, 245);stroke:rgb(112, 112, 112);"/><text class="clickable sprotty-label statementtype" id="sprotty_ArchitectureBlockImpl$alert_handler_esc_timer/AssignmentBlockImpl$cnt_ge/labeltype" transform="translate(5, 9) translate(4.71875, 9)" style="cursor:default;font-size:8px;font-weight:700;perspective-origin:0.140625px 0px;fill:rgb(112, 112, 112);text-anchor:middle;">&lt;=</text><g id="sprotty_ArchitectureBlockImpl$alert_handler_esc_timer/AssignmentBlockImpl$cnt_ge/GPortImpl$threshIN" transform="translate(0, 10)" class="sprotty-hidden hidden" style="display:block;height:0px;width:0px;"/><g id="sprotty_ArchitectureBlockImpl$alert_handler_esc_timer/AssignmentBlockImpl$cnt_ge/GPortImpl$cnt_qIN" transform="translate(0, 20)" class="sprotty-hidden hidden" style="display:block;height:0px;width:0px;"/><g id="sprotty_ArchitectureBlockImpl$alert_handler_esc_timer/AssignmentBlockImpl$cnt_ge/GPortImpl$threshOUT" transform="translate(19.71875, 15)" class="sprotty-hidden hidden" style="display:block;height:0px;width:0px;"/></g><g id="sprotty_ArchitectureBlockImpl$alert_handler_esc_timer/AssignmentBlockImpl$esc_cnt_o" transform="translate(442.03125, 283.4761904761905)" class="statement"><rect x="0" y="0" rx="10" ry="5" width="19.71875" height="22" class="sprotty-node" style="fill:rgb(245, 245, 245);stroke:rgb(112, 112, 112);"/><text class="clickable sprotty-label statementtype" id="sprotty_ArchitectureBlockImpl$alert_handler_esc_timer/AssignmentBlockImpl$esc_cnt_o/labeltype" transform="translate(5, 5) translate(4.71875, 9)" style="cursor:default;font-size:8px;font-weight:700;perspective-origin:0.140625px 0px;fill:rgb(112, 112, 112);text-anchor:middle;">&lt;=</text><g id="sprotty_ArchitectureBlockImpl$alert_handler_esc_timer/AssignmentBlockImpl$esc_cnt_o/GPortImpl$cnt_qIN" transform="translate(0, 11)" class="sprotty-hidden hidden" style="display:block;height:0px;width:0px;"/><g id="sprotty_ArchitectureBlockImpl$alert_handler_esc_timer/AssignmentBlockImpl$esc_cnt_o/GPortImpl$esc_cnt_oOUT" transform="translate(19.71875, 11)" class="sprotty-hidden hidden" style="display:block;height:0px;width:0px;"/></g><g id="sprotty_ArchitectureBlockImpl$alert_handler_esc_timer/AssignmentBlockImpl$esc_state_o" transform="translate(442.03125, 241.47619047619048)" class="statement"><rect x="0" y="0" rx="10" ry="5" width="19.71875" height="22" class="sprotty-node" style="fill:rgb(245, 245, 245);stroke:rgb(112, 112, 112);"/><text class="clickable sprotty-label statementtype" id="sprotty_ArchitectureBlockImpl$alert_handler_esc_timer/AssignmentBlockImpl$esc_state_o/labeltype" transform="translate(5, 5) translate(4.71875, 9)" style="cursor:default;font-size:8px;font-weight:700;perspective-origin:0.140625px 0px;fill:rgb(112, 112, 112);text-anchor:middle;">&lt;=</text><g id="sprotty_ArchitectureBlockImpl$alert_handler_esc_timer/AssignmentBlockImpl$esc_state_o/GPortImpl$state_qIN" transform="translate(0, 11)" class="sprotty-hidden hidden" style="display:block;height:0px;width:0px;"/><g id="sprotty_ArchitectureBlockImpl$alert_handler_esc_timer/AssignmentBlockImpl$esc_state_o/GPortImpl$esc_state_oOUT" transform="translate(19.71875, 11)" class="sprotty-hidden hidden" style="display:block;height:0px;width:0px;"/></g><g id="sprotty_ArchitectureBlockImpl$alert_handler_esc_timer/AssignmentBlockImpl$cnt_d" transform="translate(442.03125, 325.4761904761905)" class="statement"><rect x="0" y="0" rx="10" ry="5" width="19.71875" height="22" class="sprotty-node" style="fill:rgb(245, 245, 245);stroke:rgb(112, 112, 112);"/><text class="clickable sprotty-label statementtype" id="sprotty_ArchitectureBlockImpl$alert_handler_esc_timer/AssignmentBlockImpl$cnt_d/labeltype" transform="translate(5, 5) translate(4.71875, 9)" style="cursor:default;font-size:8px;font-weight:700;perspective-origin:0.140625px 0px;fill:rgb(112, 112, 112);text-anchor:middle;">&lt;=</text><g id="sprotty_ArchitectureBlockImpl$alert_handler_esc_timer/AssignmentBlockImpl$cnt_d/GPortImpl$cnt_qIN" transform="translate(0, 11)" class="sprotty-hidden hidden" style="display:block;height:0px;width:0px;"/><g id="sprotty_ArchitectureBlockImpl$alert_handler_esc_timer/AssignmentBlockImpl$cnt_d/GPortImpl$cnt_qOUT" transform="translate(19.71875, 11)" class="sprotty-hidden hidden" style="display:block;height:0px;width:0px;"/></g><g id="sprotty_ArchitectureBlockImpl$alert_handler_esc_timer/BPortImpl$phase_cyc_i" transform="translate(0, 158)" class="triangle"><path d="M 0,0 L 5,2.5 L 0,5 Z" transform="translate(-1.67, -2.5)" class="sprotty-port" style="fill:rgb(48, 48, 48);stroke:rgb(48, 48, 48);"/><text class="clickable sprotty-label port" id="sprotty_ArchitectureBlockImpl$alert_handler_esc_timer/BPortImpl$phase_cyc_i/label" transform="translate(6, 6) translate(34.5, 14)" style="cursor:default;font-size:12px;perspective-origin:0px 0px;fill:rgb(48, 48, 48);text-anchor:middle;">phase_cyc_i</text></g><g id="sprotty_ArchitectureBlockImpl$alert_handler_esc_timer/BPortImpl$esc_map_i" transform="translate(0, 90)" class="triangle"><path d="M 0,0 L 5,2.5 L 0,5 Z" transform="translate(-1.67, -2.5)" class="sprotty-port" style="fill:rgb(48, 48, 48);stroke:rgb(48, 48, 48);"/><text class="clickable sprotty-label port" id="sprotty_ArchitectureBlockImpl$alert_handler_esc_timer/BPortImpl$esc_map_i/label" transform="translate(6, 6) translate(30.21875, 14)" style="cursor:default;font-size:12px;perspective-origin:0px 0px;fill:rgb(48, 48, 48);text-anchor:middle;">esc_map_i</text></g><g id="sprotty_ArchitectureBlockImpl$alert_handler_esc_timer/BPortImpl$esc_en_i" transform="translate(0, 56)" class="triangle"><path d="M 0,0 L 5,2.5 L 0,5 Z" transform="translate(-1.67, -2.5)" class="sprotty-port" style="fill:rgb(48, 48, 48);stroke:rgb(48, 48, 48);"/><text class="clickable sprotty-label port" id="sprotty_ArchitectureBlockImpl$alert_handler_esc_timer/BPortImpl$esc_en_i/label" transform="translate(6, 6) translate(24.546875, 14)" style="cursor:default;font-size:12px;perspective-origin:0px 0px;fill:rgb(48, 48, 48);text-anchor:middle;">esc_en_i</text></g><g id="sprotty_ArchitectureBlockImpl$alert_handler_esc_timer/BPortImpl$timeout_cyc_i" transform="translate(0, 260)" class="triangle"><path d="M 0,0 L 5,2.5 L 0,5 Z" transform="translate(-1.67, -2.5)" class="sprotty-port" style="fill:rgb(48, 48, 48);stroke:rgb(48, 48, 48);"/><text class="clickable sprotty-label port" id="sprotty_ArchitectureBlockImpl$alert_handler_esc_timer/BPortImpl$timeout_cyc_i/label" transform="translate(6, 6) translate(39.953125, 14)" style="cursor:default;font-size:12px;perspective-origin:0px 0px;fill:rgb(48, 48, 48);text-anchor:middle;">timeout_cyc_i</text></g><g id="sprotty_ArchitectureBlockImpl$alert_handler_esc_timer/BPortImpl$timeout_en_i" transform="translate(0, 124)" class="triangle"><path d="M 0,0 L 5,2.5 L 0,5 Z" transform="translate(-1.67, -2.5)" class="sprotty-port" style="fill:rgb(48, 48, 48);stroke:rgb(48, 48, 48);"/><text class="clickable sprotty-label port" id="sprotty_ArchitectureBlockImpl$alert_handler_esc_timer/BPortImpl$timeout_en_i/label" transform="translate(6, 6) translate(37.6875, 14)" style="cursor:default;font-size:12px;perspective-origin:0px 0px;fill:rgb(48, 48, 48);text-anchor:middle;">timeout_en_i</text></g><g id="sprotty_ArchitectureBlockImpl$alert_handler_esc_timer/BPortImpl$accum_trig_i" transform="translate(0, 192)" class="triangle"><path d="M 0,0 L 5,2.5 L 0,5 Z" transform="translate(-1.67, -2.5)" class="sprotty-port" style="fill:rgb(48, 48, 48);stroke:rgb(48, 48, 48);"/><text class="clickable sprotty-label port" id="sprotty_ArchitectureBlockImpl$alert_handler_esc_timer/BPortImpl$accum_trig_i/label" transform="translate(6, 6) translate(36.53125, 14)" style="cursor:default;font-size:12px;perspective-origin:0px 0px;fill:rgb(48, 48, 48);text-anchor:middle;">accum_trig_i</text></g><g id="sprotty_ArchitectureBlockImpl$alert_handler_esc_timer/BPortImpl$clr_i" transform="translate(0, 294)" class="triangle"><path d="M 0,0 L 5,2.5 L 0,5 Z" transform="translate(-1.67, -2.5)" class="sprotty-port" style="fill:rgb(48, 48, 48);stroke:rgb(48, 48, 48);"/><text class="clickable sprotty-label port" id="sprotty_ArchitectureBlockImpl$alert_handler_esc_timer/BPortImpl$clr_i/label" transform="translate(6, 6) translate(12.109375, 14)" style="cursor:default;font-size:12px;perspective-origin:0px 0px;fill:rgb(48, 48, 48);text-anchor:middle;">clr_i</text></g><g id="sprotty_ArchitectureBlockImpl$alert_handler_esc_timer/BPortImpl$en_i" transform="translate(0, 226)" class="triangle"><path d="M 0,0 L 5,2.5 L 0,5 Z" transform="translate(-1.67, -2.5)" class="sprotty-port" style="fill:rgb(48, 48, 48);stroke:rgb(48, 48, 48);"/><text class="clickable sprotty-label port" id="sprotty_ArchitectureBlockImpl$alert_handler_esc_timer/BPortImpl$en_i/label" transform="translate(6, 6) translate(12, 14)" style="cursor:default;font-size:12px;perspective-origin:0px 0px;fill:rgb(48, 48, 48);text-anchor:middle;">en_i</text></g><g id="sprotty_ArchitectureBlockImpl$alert_handler_esc_timer/BPortImpl$rst_ni" transform="translate(0, 406.4761904761905)" class="triangle"><path d="M 0,0 L 5,2.5 L 0,5 Z" transform="translate(-1.67, -2.5)" class="sprotty-port" style="fill:rgb(48, 48, 48);stroke:rgb(48, 48, 48);"/><text class="clickable sprotty-label port" id="sprotty_ArchitectureBlockImpl$alert_handler_esc_timer/BPortImpl$rst_ni/label" transform="translate(6, 6) translate(15.921875, 14)" style="cursor:default;font-size:12px;perspective-origin:0px 0px;fill:rgb(48, 48, 48);text-anchor:middle;">rst_ni</text></g><g id="sprotty_ArchitectureBlockImpl$alert_handler_esc_timer/BPortImpl$clk_i" transform="translate(0, 372.4761904761905)" class="triangle"><path d="M 0,0 L 5,2.5 L 0,5 Z" transform="translate(-1.67, -2.5)" class="sprotty-port" style="fill:rgb(48, 48, 48);stroke:rgb(48, 48, 48);"/><text class="clickable sprotty-label port" id="sprotty_ArchitectureBlockImpl$alert_handler_esc_timer/BPortImpl$clk_i/label" transform="translate(6, 6) translate(13.09375, 14)" style="cursor:default;font-size:12px;perspective-origin:0px 0px;fill:rgb(48, 48, 48);text-anchor:middle;">clk_i</text></g><g id="sprotty_ArchitectureBlockImpl$alert_handler_esc_timer/BPortImpl$esc_trig_o" transform="translate(582.8125, 218.47619047619048)" class="triangle"><path d="M 0,0 L 5,2.5 L 0,5 Z" transform="translate(-1.67, -2.5)" class="sprotty-port" style="fill:rgb(48, 48, 48);stroke:rgb(48, 48, 48);"/><text class="clickable sprotty-label port" id="sprotty_ArchitectureBlockImpl$alert_handler_esc_timer/BPortImpl$esc_trig_o/label" transform="translate(-64.3125, 6) translate(29.15625, 14)" style="cursor:default;font-size:12px;perspective-origin:0px 0px;fill:rgb(48, 48, 48);text-anchor:middle;">esc_trig_o</text></g><g id="sprotty_ArchitectureBlockImpl$alert_handler_esc_timer/BPortImpl$esc_cnt_o" transform="translate(582.8125, 294.4761904761905)" class="triangle"><path d="M 0,0 L 5,2.5 L 0,5 Z" transform="translate(-1.67, -2.5)" class="sprotty-port" style="fill:rgb(48, 48, 48);stroke:rgb(48, 48, 48);"/><text class="clickable sprotty-label port" id="sprotty_ArchitectureBlockImpl$alert_handler_esc_timer/BPortImpl$esc_cnt_o/label" transform="translate(-63.03125, 6) translate(28.515625, 14)" style="cursor:default;font-size:12px;perspective-origin:0px 0px;fill:rgb(48, 48, 48);text-anchor:middle;">esc_cnt_o</text></g><g id="sprotty_ArchitectureBlockImpl$alert_handler_esc_timer/BPortImpl$esc_sig_req_o" transform="translate(582.8125, 90)" class="triangle"><path d="M 0,0 L 5,2.5 L 0,5 Z" transform="translate(-1.67, -2.5)" class="sprotty-port" style="fill:rgb(48, 48, 48);stroke:rgb(48, 48, 48);"/><text class="clickable sprotty-label port" id="sprotty_ArchitectureBlockImpl$alert_handler_esc_timer/BPortImpl$esc_sig_req_o/label" transform="translate(-86.0625, 6) translate(40.03125, 14)" style="cursor:default;font-size:12px;perspective-origin:0px 0px;fill:rgb(48, 48, 48);text-anchor:middle;">esc_sig_req_o</text></g><g id="sprotty_ArchitectureBlockImpl$alert_handler_esc_timer/BPortImpl$esc_state_o" transform="translate(582.8125, 252.47619047619048)" class="triangle"><path d="M 0,0 L 5,2.5 L 0,5 Z" transform="translate(-1.67, -2.5)" class="sprotty-port" style="fill:rgb(48, 48, 48);stroke:rgb(48, 48, 48);"/><text class="clickable sprotty-label port" id="sprotty_ArchitectureBlockImpl$alert_handler_esc_timer/BPortImpl$esc_state_o/label" transform="translate(-72.25, 6) translate(33.125, 14)" style="cursor:default;font-size:12px;perspective-origin:0px 0px;fill:rgb(48, 48, 48);text-anchor:middle;">esc_state_o</text></g></g></g></svg>