<svg xmlns="http://www.w3.org/2000/svg" id="sprotty_work.prim_otp" class="sprotty-graph sprotty-block-diagram blockdiagram" style="font-family:&quot;Noto Sans&quot;, Helvetica, Arial, sans-serif;perspective-origin:0px 0px;transform-origin:0px 0px;" version="1.1" viewBox="7 7 559.6875 370" width="559.6875" height="370"><g transform="scale(1) translate(0,0)"><g id="sprotty_ArchitectureBlockImpl$prim_otp" transform="translate(12, 12)" class="architecture"><g class="sprotty-block" style="fill:rgb(255, 255, 255);stroke:rgb(48, 48, 48);stroke-dasharray:0px;"><rect x="0" y="0" rx="1" ry="1" width="549.6875" height="360"/><text x="274.84375" y="12" class="sprotty-block-name" style="cursor:pointer;font-weight:700;perspective-origin:274.844px 0px;fill:rgb(48, 48, 48);stroke:rgba(0, 0, 0, 0);dominant-baseline:middle;text-anchor:middle;">prim_otp</text><line x1="0" y1="20" x2="549.6875" y2="20"/></g><g id="sprotty_ArchitectureBlockImpl$prim_otp/GenerateStatementBlockImpl$null15/GPortImpl$pwr_seq_o_to_ArchitectureBlockImpl$prim_otp/BPortImpl$pwr_seq_o" class="sprotty-edge thick edge" style="fill:none;stroke:rgb(112, 112, 112);stroke-linejoin:round;stroke-width:3px;"><g><path d="M 466.59375 88 L 549.6875 88 "/><path d="M 466.59375 88 L 549.6875 88 " class="clickable"/></g></g><g id="sprotty_ArchitectureBlockImpl$prim_otp/GenerateStatementBlockImpl$null15/GPortImpl$test_tl_o_to_ArchitectureBlockImpl$prim_otp/BPortImpl$test_tl_o" class="sprotty-edge thick edge" style="fill:none;stroke:rgb(112, 112, 112);stroke-linejoin:round;stroke-width:3px;"><g><path d="M 466.59375 132.8 L 549.6875 132.8 "/><path d="M 466.59375 132.8 L 549.6875 132.8 " class="clickable"/></g></g><g id="sprotty_ArchitectureBlockImpl$prim_otp/GenerateStatementBlockImpl$null15/GPortImpl$ready_o_to_ArchitectureBlockImpl$prim_otp/BPortImpl$ready_o" class="sprotty-edge edge" style="fill:none;stroke:rgb(112, 112, 112);stroke-linejoin:round;"><g><path d="M 466.59375 177.6 L 549.6875 177.6 "/><path d="M 466.59375 177.6 L 549.6875 177.6 " class="clickable"/></g></g><g id="sprotty_ArchitectureBlockImpl$prim_otp/GenerateStatementBlockImpl$null15/GPortImpl$valid_o_to_ArchitectureBlockImpl$prim_otp/BPortImpl$valid_o" class="sprotty-edge edge" style="fill:none;stroke:rgb(112, 112, 112);stroke-linejoin:round;"><g><path d="M 466.59375 222.39999999999998 L 549.6875 222.39999999999998 "/><path d="M 466.59375 222.39999999999998 L 549.6875 222.39999999999998 " class="clickable"/></g></g><g id="sprotty_ArchitectureBlockImpl$prim_otp/GenerateStatementBlockImpl$null15/GPortImpl$rdata_o_to_ArchitectureBlockImpl$prim_otp/BPortImpl$rdata_o" class="sprotty-edge thick edge" style="fill:none;stroke:rgb(112, 112, 112);stroke-linejoin:round;stroke-width:3px;"><g><path d="M 466.59375 267.2 L 549.6875 267.2 "/><path d="M 466.59375 267.2 L 549.6875 267.2 " class="clickable"/></g></g><g id="sprotty_ArchitectureBlockImpl$prim_otp/GenerateStatementBlockImpl$null15/GPortImpl$err_o_to_ArchitectureBlockImpl$prim_otp/BPortImpl$err_o" class="sprotty-edge thick edge" style="fill:none;stroke:rgb(112, 112, 112);stroke-linejoin:round;stroke-width:3px;"><g><path d="M 466.59375 312 L 549.6875 312 "/><path d="M 466.59375 312 L 549.6875 312 " class="clickable"/></g></g><g id="sprotty_ArchitectureBlockImpl$prim_otp/BPortImpl$clk_i_to_ArchitectureBlockImpl$prim_otp/GenerateStatementBlockImpl$null15/GPortImpl$clk_i" class="sprotty-edge edge" style="fill:none;stroke:rgb(112, 112, 112);stroke-linejoin:round;"><g><path d="M 0 40 L 141.09375 40 C 142.09375 40 143.09375 41 143.09375 42 L 143.09375 86 C 143.09375 87 144.09375 88 145.09375 88 L 153.09375 88 "/><path d="M 0 40 L 141.09375 40 C 142.09375 40 143.09375 41 143.09375 42 L 143.09375 86 C 143.09375 87 144.09375 88 145.09375 88 L 153.09375 88 " class="clickable"/></g></g><g id="sprotty_ArchitectureBlockImpl$prim_otp/BPortImpl$rst_ni_to_ArchitectureBlockImpl$prim_otp/GenerateStatementBlockImpl$null15/GPortImpl$rst_ni" class="sprotty-edge edge" style="fill:none;stroke:rgb(112, 112, 112);stroke-linejoin:round;"><g><path d="M 0 74 L 131.09375 74 C 132.09375 74 133.09375 75 133.09375 76 L 133.09375 114 C 133.09375 115 134.09375 116 135.09375 116 L 153.09375 116 "/><path d="M 0 74 L 131.09375 74 C 132.09375 74 133.09375 75 133.09375 76 L 133.09375 114 C 133.09375 115 134.09375 116 135.09375 116 L 153.09375 116 " class="clickable"/></g></g><g id="sprotty_ArchitectureBlockImpl$prim_otp/BPortImpl$pwr_seq_h_i_to_ArchitectureBlockImpl$prim_otp/GenerateStatementBlockImpl$null15/GPortImpl$pwr_seq_h_i" class="sprotty-edge thick edge" style="fill:none;stroke:rgb(112, 112, 112);stroke-linejoin:round;stroke-width:3px;"><g><path d="M 0 108 L 121.09375 108 C 122.09375 108 123.09375 109 123.09375 110 L 123.09375 142 C 123.09375 143 124.09375 144 125.09375 144 L 153.09375 144 "/><path d="M 0 108 L 121.09375 108 C 122.09375 108 123.09375 109 123.09375 110 L 123.09375 142 C 123.09375 143 124.09375 144 125.09375 144 L 153.09375 144 " class="clickable"/></g></g><g id="sprotty_ArchitectureBlockImpl$prim_otp/BPortImpl$test_tl_i_to_ArchitectureBlockImpl$prim_otp/GenerateStatementBlockImpl$null15/GPortImpl$test_tl_i" class="sprotty-edge thick edge" style="fill:none;stroke:rgb(112, 112, 112);stroke-linejoin:round;stroke-width:3px;"><g><path d="M 0 142 L 111.09375 142 C 112.09375 142 113.09375 143 113.09375 144 L 113.09375 170 C 113.09375 171 114.09375 172 115.09375 172 L 153.09375 172 "/><path d="M 0 142 L 111.09375 142 C 112.09375 142 113.09375 143 113.09375 144 L 113.09375 170 C 113.09375 171 114.09375 172 115.09375 172 L 153.09375 172 " class="clickable"/></g></g><g id="sprotty_ArchitectureBlockImpl$prim_otp/BPortImpl$valid_i_to_ArchitectureBlockImpl$prim_otp/GenerateStatementBlockImpl$null15/GPortImpl$valid_i" class="sprotty-edge edge" style="fill:none;stroke:rgb(112, 112, 112);stroke-linejoin:round;"><g><path d="M 0 176 L 101.09375 176 C 102.09375 176 103.09375 177 103.09375 178 L 103.09375 198 C 103.09375 199 104.09375 200 105.09375 200 L 153.09375 200 "/><path d="M 0 176 L 101.09375 176 C 102.09375 176 103.09375 177 103.09375 178 L 103.09375 198 C 103.09375 199 104.09375 200 105.09375 200 L 153.09375 200 " class="clickable"/></g></g><g id="sprotty_ArchitectureBlockImpl$prim_otp/BPortImpl$size_i_to_ArchitectureBlockImpl$prim_otp/GenerateStatementBlockImpl$null15/GPortImpl$size_i" class="sprotty-edge thick edge" style="fill:none;stroke:rgb(112, 112, 112);stroke-linejoin:round;stroke-width:3px;"><g><path d="M 0 210 L 101.09375 210 C 102.09375 210 103.09375 211 103.09375 212 L 103.09375 226 C 103.09375 227 104.09375 228 105.09375 228 L 153.09375 228 "/><path d="M 0 210 L 101.09375 210 C 102.09375 210 103.09375 211 103.09375 212 L 103.09375 226 C 103.09375 227 104.09375 228 105.09375 228 L 153.09375 228 " class="clickable"/></g></g><g id="sprotty_ArchitectureBlockImpl$prim_otp/BPortImpl$cmd_i_to_ArchitectureBlockImpl$prim_otp/GenerateStatementBlockImpl$null15/GPortImpl$cmd_i" class="sprotty-edge thick edge" style="fill:none;stroke:rgb(112, 112, 112);stroke-linejoin:round;stroke-width:3px;"><g><path d="M 0 244 L 101.09375 244 C 102.09375 244 103.09375 245 103.09375 246 L 103.09375 254 C 103.09375 255 104.09375 256 105.09375 256 L 153.09375 256 "/><path d="M 0 244 L 101.09375 244 C 102.09375 244 103.09375 245 103.09375 246 L 103.09375 254 C 103.09375 255 104.09375 256 105.09375 256 L 153.09375 256 " class="clickable"/></g></g><g id="sprotty_ArchitectureBlockImpl$prim_otp/BPortImpl$addr_i_to_ArchitectureBlockImpl$prim_otp/GenerateStatementBlockImpl$null15/GPortImpl$addr_i" class="sprotty-edge thick edge" style="fill:none;stroke:rgb(112, 112, 112);stroke-linejoin:round;stroke-width:3px;"><g><path d="M 0 278 L 101.09375 278 C 102.09375 278 103.09375 279 103.09375 280 L 103.09375 282 C 103.09375 283 104.09375 284 105.09375 284 L 153.09375 284 "/><path d="M 0 278 L 101.09375 278 C 102.09375 278 103.09375 279 103.09375 280 L 103.09375 282 C 103.09375 283 104.09375 284 105.09375 284 L 153.09375 284 " class="clickable"/></g></g><g id="sprotty_ArchitectureBlockImpl$prim_otp/BPortImpl$wdata_i_to_ArchitectureBlockImpl$prim_otp/GenerateStatementBlockImpl$null15/GPortImpl$wdata_i" class="sprotty-edge thick edge" style="fill:none;stroke:rgb(112, 112, 112);stroke-linejoin:round;stroke-width:3px;"><g><path d="M 0 312 L 153.09375 312 "/><path d="M 0 312 L 153.09375 312 " class="clickable"/></g></g><g id="sprotty_ArchitectureBlockImpl$prim_otp/GenerateStatementBlockImpl$null15" transform="translate(153.09375, 35)" class="generate"><g class="sprotty-block sprotty-block-generate" style="fill:rgb(255, 255, 255);stroke:rgb(48, 48, 48);stroke-dasharray:0px;"><rect x="0" y="0" rx="1" ry="1" width="313.5" height="310" style="stroke-dasharray:3px, 1px;"/><text x="156.75" y="12" class="sprotty-block-name" style="cursor:pointer;font-weight:700;fill:rgb(48, 48, 48);stroke:rgba(0, 0, 0, 0);dominant-baseline:middle;text-anchor:middle;"/>undefined</g><g id="sprotty_ArchitectureBlockImpl$prim_otp/GenerateStatementBlockImpl$null15/InstantiationBlockImpl$u_impl_generic/BPortImpl$pwr_seq_o_to_ArchitectureBlockImpl$prim_otp/GenerateStatementBlockImpl$null15/GPortImpl$pwr_seq_o" class="sprotty-edge thick edge" style="fill:none;stroke:rgb(112, 112, 112);stroke-linejoin:round;stroke-width:3px;"><g><path d="M 298.5 53 L 313.5 53 "/><path d="M 298.5 53 L 313.5 53 " class="clickable"/></g></g><g id="sprotty_ArchitectureBlockImpl$prim_otp/GenerateStatementBlockImpl$null15/InstantiationBlockImpl$u_impl_generic/BPortImpl$test_tl_o_to_ArchitectureBlockImpl$prim_otp/GenerateStatementBlockImpl$null15/GPortImpl$test_tl_o" class="sprotty-edge thick edge" style="fill:none;stroke:rgb(112, 112, 112);stroke-linejoin:round;stroke-width:3px;"><g><path d="M 298.5 97.8 L 313.5 97.8 "/><path d="M 298.5 97.8 L 313.5 97.8 " class="clickable"/></g></g><g id="sprotty_ArchitectureBlockImpl$prim_otp/GenerateStatementBlockImpl$null15/InstantiationBlockImpl$u_impl_generic/BPortImpl$ready_o_to_ArchitectureBlockImpl$prim_otp/GenerateStatementBlockImpl$null15/GPortImpl$ready_o" class="sprotty-edge edge" style="fill:none;stroke:rgb(112, 112, 112);stroke-linejoin:round;"><g><path d="M 298.5 142.6 L 313.5 142.6 "/><path d="M 298.5 142.6 L 313.5 142.6 " class="clickable"/></g></g><g id="sprotty_ArchitectureBlockImpl$prim_otp/GenerateStatementBlockImpl$null15/InstantiationBlockImpl$u_impl_generic/BPortImpl$valid_o_to_ArchitectureBlockImpl$prim_otp/GenerateStatementBlockImpl$null15/GPortImpl$valid_o" class="sprotty-edge edge" style="fill:none;stroke:rgb(112, 112, 112);stroke-linejoin:round;"><g><path d="M 298.5 187.39999999999998 L 313.5 187.39999999999998 "/><path d="M 298.5 187.39999999999998 L 313.5 187.39999999999998 " class="clickable"/></g></g><g id="sprotty_ArchitectureBlockImpl$prim_otp/GenerateStatementBlockImpl$null15/InstantiationBlockImpl$u_impl_generic/BPortImpl$rdata_o_to_ArchitectureBlockImpl$prim_otp/GenerateStatementBlockImpl$null15/GPortImpl$rdata_o" class="sprotty-edge thick edge" style="fill:none;stroke:rgb(112, 112, 112);stroke-linejoin:round;stroke-width:3px;"><g><path d="M 298.5 232.2 L 313.5 232.2 "/><path d="M 298.5 232.2 L 313.5 232.2 " class="clickable"/></g></g><g id="sprotty_ArchitectureBlockImpl$prim_otp/GenerateStatementBlockImpl$null15/InstantiationBlockImpl$u_impl_generic/BPortImpl$err_o_to_ArchitectureBlockImpl$prim_otp/GenerateStatementBlockImpl$null15/GPortImpl$err_o" class="sprotty-edge thick edge" style="fill:none;stroke:rgb(112, 112, 112);stroke-linejoin:round;stroke-width:3px;"><g><path d="M 298.5 277 L 313.5 277 "/><path d="M 298.5 277 L 313.5 277 " class="clickable"/></g></g><g id="sprotty_ArchitectureBlockImpl$prim_otp/GenerateStatementBlockImpl$null15/GPortImpl$clk_i_to_ArchitectureBlockImpl$prim_otp/GenerateStatementBlockImpl$null15/InstantiationBlockImpl$u_impl_generic/BPortImpl$clk_i" class="sprotty-edge edge" style="fill:none;stroke:rgb(112, 112, 112);stroke-linejoin:round;"><g><path d="M 0 53 L 15 53 "/><path d="M 0 53 L 15 53 " class="clickable"/></g></g><g id="sprotty_ArchitectureBlockImpl$prim_otp/GenerateStatementBlockImpl$null15/GPortImpl$rst_ni_to_ArchitectureBlockImpl$prim_otp/GenerateStatementBlockImpl$null15/InstantiationBlockImpl$u_impl_generic/BPortImpl$rst_ni" class="sprotty-edge edge" style="fill:none;stroke:rgb(112, 112, 112);stroke-linejoin:round;"><g><path d="M 0 81 L 15 81 "/><path d="M 0 81 L 15 81 " class="clickable"/></g></g><g id="sprotty_ArchitectureBlockImpl$prim_otp/GenerateStatementBlockImpl$null15/GPortImpl$pwr_seq_h_i_to_ArchitectureBlockImpl$prim_otp/GenerateStatementBlockImpl$null15/InstantiationBlockImpl$u_impl_generic/BPortImpl$pwr_seq_h_i" class="sprotty-edge thick edge" style="fill:none;stroke:rgb(112, 112, 112);stroke-linejoin:round;stroke-width:3px;"><g><path d="M 0 109 L 15 109 "/><path d="M 0 109 L 15 109 " class="clickable"/></g></g><g id="sprotty_ArchitectureBlockImpl$prim_otp/GenerateStatementBlockImpl$null15/GPortImpl$test_tl_i_to_ArchitectureBlockImpl$prim_otp/GenerateStatementBlockImpl$null15/InstantiationBlockImpl$u_impl_generic/BPortImpl$test_tl_i" class="sprotty-edge thick edge" style="fill:none;stroke:rgb(112, 112, 112);stroke-linejoin:round;stroke-width:3px;"><g><path d="M 0 137 L 15 137 "/><path d="M 0 137 L 15 137 " class="clickable"/></g></g><g id="sprotty_ArchitectureBlockImpl$prim_otp/GenerateStatementBlockImpl$null15/GPortImpl$valid_i_to_ArchitectureBlockImpl$prim_otp/GenerateStatementBlockImpl$null15/InstantiationBlockImpl$u_impl_generic/BPortImpl$valid_i" class="sprotty-edge edge" style="fill:none;stroke:rgb(112, 112, 112);stroke-linejoin:round;"><g><path d="M 0 165 L 15 165 "/><path d="M 0 165 L 15 165 " class="clickable"/></g></g><g id="sprotty_ArchitectureBlockImpl$prim_otp/GenerateStatementBlockImpl$null15/GPortImpl$size_i_to_ArchitectureBlockImpl$prim_otp/GenerateStatementBlockImpl$null15/InstantiationBlockImpl$u_impl_generic/BPortImpl$size_i" class="sprotty-edge thick edge" style="fill:none;stroke:rgb(112, 112, 112);stroke-linejoin:round;stroke-width:3px;"><g><path d="M 0 193 L 15 193 "/><path d="M 0 193 L 15 193 " class="clickable"/></g></g><g id="sprotty_ArchitectureBlockImpl$prim_otp/GenerateStatementBlockImpl$null15/GPortImpl$cmd_i_to_ArchitectureBlockImpl$prim_otp/GenerateStatementBlockImpl$null15/InstantiationBlockImpl$u_impl_generic/BPortImpl$cmd_i" class="sprotty-edge thick edge" style="fill:none;stroke:rgb(112, 112, 112);stroke-linejoin:round;stroke-width:3px;"><g><path d="M 0 221 L 15 221 "/><path d="M 0 221 L 15 221 " class="clickable"/></g></g><g id="sprotty_ArchitectureBlockImpl$prim_otp/GenerateStatementBlockImpl$null15/GPortImpl$addr_i_to_ArchitectureBlockImpl$prim_otp/GenerateStatementBlockImpl$null15/InstantiationBlockImpl$u_impl_generic/BPortImpl$addr_i" class="sprotty-edge thick edge" style="fill:none;stroke:rgb(112, 112, 112);stroke-linejoin:round;stroke-width:3px;"><g><path d="M 0 249 L 15 249 "/><path d="M 0 249 L 15 249 " class="clickable"/></g></g><g id="sprotty_ArchitectureBlockImpl$prim_otp/GenerateStatementBlockImpl$null15/GPortImpl$wdata_i_to_ArchitectureBlockImpl$prim_otp/GenerateStatementBlockImpl$null15/InstantiationBlockImpl$u_impl_generic/BPortImpl$wdata_i" class="sprotty-edge thick edge" style="fill:none;stroke:rgb(112, 112, 112);stroke-linejoin:round;stroke-width:3px;"><g><path d="M 0 277 L 15 277 "/><path d="M 0 277 L 15 277 " class="clickable"/></g></g><g id="sprotty_ArchitectureBlockImpl$prim_otp/GenerateStatementBlockImpl$null15/InstantiationBlockImpl$u_impl_generic" transform="translate(15, 15)" class="instantiation"><g class="sprotty-block" style="fill:rgb(255, 255, 255);stroke:rgb(48, 48, 48);stroke-dasharray:0px;"><rect x="0" y="0" rx="1" ry="1" width="283.5" height="280"/><text x="141.75" y="12" class="sprotty-block-name" style="cursor:pointer;font-weight:700;perspective-origin:141.75px 0px;fill:rgb(48, 48, 48);stroke:rgba(0, 0, 0, 0);dominant-baseline:middle;text-anchor:middle;">u_impl_generic : prim_generic_otp</text><line x1="0" y1="20" x2="283.5" y2="20"/></g><g id="sprotty_ArchitectureBlockImpl$prim_otp/GenerateStatementBlockImpl$null15/InstantiationBlockImpl$u_impl_generic/BPortImpl$wdata_i" transform="translate(0, 262)" class="triangle"><path d="M 0,0 L 5,2.5 L 0,5 Z" transform="translate(-1.67, -2.5)" class="sprotty-port" style="fill:rgb(48, 48, 48);stroke:rgb(48, 48, 48);"/><text class="clickable sprotty-label port" id="sprotty_ArchitectureBlockImpl$prim_otp/GenerateStatementBlockImpl$null15/InstantiationBlockImpl$u_impl_generic/BPortImpl$wdata_i/label" transform="translate(6, -9) translate(22.3125, 14)" style="cursor:default;font-size:12px;perspective-origin:0px 0px;fill:rgb(48, 48, 48);text-anchor:middle;">wdata_i</text></g><g id="sprotty_ArchitectureBlockImpl$prim_otp/GenerateStatementBlockImpl$null15/InstantiationBlockImpl$u_impl_generic/BPortImpl$addr_i" transform="translate(0, 234)" class="triangle"><path d="M 0,0 L 5,2.5 L 0,5 Z" transform="translate(-1.67, -2.5)" class="sprotty-port" style="fill:rgb(48, 48, 48);stroke:rgb(48, 48, 48);"/><text class="clickable sprotty-label port" id="sprotty_ArchitectureBlockImpl$prim_otp/GenerateStatementBlockImpl$null15/InstantiationBlockImpl$u_impl_generic/BPortImpl$addr_i/label" transform="translate(6, -9) translate(18.15625, 14)" style="cursor:default;font-size:12px;perspective-origin:0px 0px;fill:rgb(48, 48, 48);text-anchor:middle;">addr_i</text></g><g id="sprotty_ArchitectureBlockImpl$prim_otp/GenerateStatementBlockImpl$null15/InstantiationBlockImpl$u_impl_generic/BPortImpl$cmd_i" transform="translate(0, 206)" class="triangle"><path d="M 0,0 L 5,2.5 L 0,5 Z" transform="translate(-1.67, -2.5)" class="sprotty-port" style="fill:rgb(48, 48, 48);stroke:rgb(48, 48, 48);"/><text class="clickable sprotty-label port" id="sprotty_ArchitectureBlockImpl$prim_otp/GenerateStatementBlockImpl$null15/InstantiationBlockImpl$u_impl_generic/BPortImpl$cmd_i/label" transform="translate(6, -9) translate(17.34375, 14)" style="cursor:default;font-size:12px;perspective-origin:0px 0px;fill:rgb(48, 48, 48);text-anchor:middle;">cmd_i</text></g><g id="sprotty_ArchitectureBlockImpl$prim_otp/GenerateStatementBlockImpl$null15/InstantiationBlockImpl$u_impl_generic/BPortImpl$size_i" transform="translate(0, 178)" class="triangle"><path d="M 0,0 L 5,2.5 L 0,5 Z" transform="translate(-1.67, -2.5)" class="sprotty-port" style="fill:rgb(48, 48, 48);stroke:rgb(48, 48, 48);"/><text class="clickable sprotty-label port" id="sprotty_ArchitectureBlockImpl$prim_otp/GenerateStatementBlockImpl$null15/InstantiationBlockImpl$u_impl_generic/BPortImpl$size_i/label" transform="translate(6, -9) translate(15.578125, 14)" style="cursor:default;font-size:12px;perspective-origin:0px 0px;fill:rgb(48, 48, 48);text-anchor:middle;">size_i</text></g><g id="sprotty_ArchitectureBlockImpl$prim_otp/GenerateStatementBlockImpl$null15/InstantiationBlockImpl$u_impl_generic/BPortImpl$valid_i" transform="translate(0, 150)" class="triangle"><path d="M 0,0 L 5,2.5 L 0,5 Z" transform="translate(-1.67, -2.5)" class="sprotty-port" style="fill:rgb(48, 48, 48);stroke:rgb(48, 48, 48);"/><text class="clickable sprotty-label port" id="sprotty_ArchitectureBlockImpl$prim_otp/GenerateStatementBlockImpl$null15/InstantiationBlockImpl$u_impl_generic/BPortImpl$valid_i/label" transform="translate(6, -9) translate(18.46875, 14)" style="cursor:default;font-size:12px;perspective-origin:0px 0px;fill:rgb(48, 48, 48);text-anchor:middle;">valid_i</text></g><g id="sprotty_ArchitectureBlockImpl$prim_otp/GenerateStatementBlockImpl$null15/InstantiationBlockImpl$u_impl_generic/BPortImpl$test_tl_i" transform="translate(0, 122)" class="triangle"><path d="M 0,0 L 5,2.5 L 0,5 Z" transform="translate(-1.67, -2.5)" class="sprotty-port" style="fill:rgb(48, 48, 48);stroke:rgb(48, 48, 48);"/><text class="clickable sprotty-label port" id="sprotty_ArchitectureBlockImpl$prim_otp/GenerateStatementBlockImpl$null15/InstantiationBlockImpl$u_impl_generic/BPortImpl$test_tl_i/label" transform="translate(6, -9) translate(22.765625, 14)" style="cursor:default;font-size:12px;perspective-origin:0px 0px;fill:rgb(48, 48, 48);text-anchor:middle;">test_tl_i</text></g><g id="sprotty_ArchitectureBlockImpl$prim_otp/GenerateStatementBlockImpl$null15/InstantiationBlockImpl$u_impl_generic/BPortImpl$pwr_seq_h_i" transform="translate(0, 94)" class="triangle"><path d="M 0,0 L 5,2.5 L 0,5 Z" transform="translate(-1.67, -2.5)" class="sprotty-port" style="fill:rgb(48, 48, 48);stroke:rgb(48, 48, 48);"/><text class="clickable sprotty-label port" id="sprotty_ArchitectureBlockImpl$prim_otp/GenerateStatementBlockImpl$null15/InstantiationBlockImpl$u_impl_generic/BPortImpl$pwr_seq_h_i/label" transform="translate(6, -9) translate(36.046875, 14)" style="cursor:default;font-size:12px;perspective-origin:0px 0px;fill:rgb(48, 48, 48);text-anchor:middle;">pwr_seq_h_i</text></g><g id="sprotty_ArchitectureBlockImpl$prim_otp/GenerateStatementBlockImpl$null15/InstantiationBlockImpl$u_impl_generic/BPortImpl$rst_ni" transform="translate(0, 66)" class="triangle"><path d="M 0,0 L 5,2.5 L 0,5 Z" transform="translate(-1.67, -2.5)" class="sprotty-port" style="fill:rgb(48, 48, 48);stroke:rgb(48, 48, 48);"/><text class="clickable sprotty-label port" id="sprotty_ArchitectureBlockImpl$prim_otp/GenerateStatementBlockImpl$null15/InstantiationBlockImpl$u_impl_generic/BPortImpl$rst_ni/label" transform="translate(6, -9) translate(15.921875, 14)" style="cursor:default;font-size:12px;perspective-origin:0px 0px;fill:rgb(48, 48, 48);text-anchor:middle;">rst_ni</text></g><g id="sprotty_ArchitectureBlockImpl$prim_otp/GenerateStatementBlockImpl$null15/InstantiationBlockImpl$u_impl_generic/BPortImpl$clk_i" transform="translate(0, 38)" class="triangle"><path d="M 0,0 L 5,2.5 L 0,5 Z" transform="translate(-1.67, -2.5)" class="sprotty-port" style="fill:rgb(48, 48, 48);stroke:rgb(48, 48, 48);"/><text class="clickable sprotty-label port" id="sprotty_ArchitectureBlockImpl$prim_otp/GenerateStatementBlockImpl$null15/InstantiationBlockImpl$u_impl_generic/BPortImpl$clk_i/label" transform="translate(6, -9) translate(13.09375, 14)" style="cursor:default;font-size:12px;perspective-origin:0px 0px;fill:rgb(48, 48, 48);text-anchor:middle;">clk_i</text></g><g id="sprotty_ArchitectureBlockImpl$prim_otp/GenerateStatementBlockImpl$null15/InstantiationBlockImpl$u_impl_generic/BPortImpl$pwr_seq_o" transform="translate(283.5, 38)" class="triangle"><path d="M 0,0 L 5,2.5 L 0,5 Z" transform="translate(-1.67, -2.5)" class="sprotty-port" style="fill:rgb(48, 48, 48);stroke:rgb(48, 48, 48);"/><text class="clickable sprotty-label port" id="sprotty_ArchitectureBlockImpl$prim_otp/GenerateStatementBlockImpl$null15/InstantiationBlockImpl$u_impl_generic/BPortImpl$pwr_seq_o/label" transform="translate(-68.09375, -9) translate(31.046875, 14)" style="cursor:default;font-size:12px;perspective-origin:0px 0px;fill:rgb(48, 48, 48);text-anchor:middle;">pwr_seq_o</text></g><g id="sprotty_ArchitectureBlockImpl$prim_otp/GenerateStatementBlockImpl$null15/InstantiationBlockImpl$u_impl_generic/BPortImpl$test_tl_o" transform="translate(283.5, 82.8)" class="triangle"><path d="M 0,0 L 5,2.5 L 0,5 Z" transform="translate(-1.67, -2.5)" class="sprotty-port" style="fill:rgb(48, 48, 48);stroke:rgb(48, 48, 48);"/><text class="clickable sprotty-label port" id="sprotty_ArchitectureBlockImpl$prim_otp/GenerateStatementBlockImpl$null15/InstantiationBlockImpl$u_impl_generic/BPortImpl$test_tl_o/label" transform="translate(-55.53125, -9) translate(24.765625, 14)" style="cursor:default;font-size:12px;perspective-origin:0px 0px;fill:rgb(48, 48, 48);text-anchor:middle;">test_tl_o</text></g><g id="sprotty_ArchitectureBlockImpl$prim_otp/GenerateStatementBlockImpl$null15/InstantiationBlockImpl$u_impl_generic/BPortImpl$ready_o" transform="translate(283.5, 127.6)" class="triangle"><path d="M 0,0 L 5,2.5 L 0,5 Z" transform="translate(-1.67, -2.5)" class="sprotty-port" style="fill:rgb(48, 48, 48);stroke:rgb(48, 48, 48);"/><text class="clickable sprotty-label port" id="sprotty_ArchitectureBlockImpl$prim_otp/GenerateStatementBlockImpl$null15/InstantiationBlockImpl$u_impl_generic/BPortImpl$ready_o/label" transform="translate(-51.4375, -9) translate(22.71875, 14)" style="cursor:default;font-size:12px;perspective-origin:0px 0px;fill:rgb(48, 48, 48);text-anchor:middle;">ready_o</text></g><g id="sprotty_ArchitectureBlockImpl$prim_otp/GenerateStatementBlockImpl$null15/InstantiationBlockImpl$u_impl_generic/BPortImpl$valid_o" transform="translate(283.5, 172.39999999999998)" class="triangle"><path d="M 0,0 L 5,2.5 L 0,5 Z" transform="translate(-1.67, -2.5)" class="sprotty-port" style="fill:rgb(48, 48, 48);stroke:rgb(48, 48, 48);"/><text class="clickable sprotty-label port" id="sprotty_ArchitectureBlockImpl$prim_otp/GenerateStatementBlockImpl$null15/InstantiationBlockImpl$u_impl_generic/BPortImpl$valid_o/label" transform="translate(-46.90625, -9) translate(20.453125, 14)" style="cursor:default;font-size:12px;perspective-origin:0px 0px;fill:rgb(48, 48, 48);text-anchor:middle;">valid_o</text></g><g id="sprotty_ArchitectureBlockImpl$prim_otp/GenerateStatementBlockImpl$null15/InstantiationBlockImpl$u_impl_generic/BPortImpl$rdata_o" transform="translate(283.5, 217.2)" class="triangle"><path d="M 0,0 L 5,2.5 L 0,5 Z" transform="translate(-1.67, -2.5)" class="sprotty-port" style="fill:rgb(48, 48, 48);stroke:rgb(48, 48, 48);"/><text class="clickable sprotty-label port" id="sprotty_ArchitectureBlockImpl$prim_otp/GenerateStatementBlockImpl$null15/InstantiationBlockImpl$u_impl_generic/BPortImpl$rdata_o/label" transform="translate(-49.5625, -9) translate(21.78125, 14)" style="cursor:default;font-size:12px;perspective-origin:0px 0px;fill:rgb(48, 48, 48);text-anchor:middle;">rdata_o</text></g><g id="sprotty_ArchitectureBlockImpl$prim_otp/GenerateStatementBlockImpl$null15/InstantiationBlockImpl$u_impl_generic/BPortImpl$err_o" transform="translate(283.5, 262)" class="triangle"><path d="M 0,0 L 5,2.5 L 0,5 Z" transform="translate(-1.67, -2.5)" class="sprotty-port" style="fill:rgb(48, 48, 48);stroke:rgb(48, 48, 48);"/><text class="clickable sprotty-label port" id="sprotty_ArchitectureBlockImpl$prim_otp/GenerateStatementBlockImpl$null15/InstantiationBlockImpl$u_impl_generic/BPortImpl$err_o/label" transform="translate(-35.96875, -9) translate(14.984375, 14)" style="cursor:default;font-size:12px;perspective-origin:0px 0px;fill:rgb(48, 48, 48);text-anchor:middle;">err_o</text></g></g><g id="sprotty_ArchitectureBlockImpl$prim_otp/GenerateStatementBlockImpl$null15/GPortImpl$wdata_i" transform="translate(0, 277)" class="triangle"><path d="M 0,0 L 5,2.5 L 0,5 Z" transform="translate(-1.67, -2.5)" class="sprotty-port" style="fill:rgb(48, 48, 48);stroke:rgb(48, 48, 48);"/></g><g id="sprotty_ArchitectureBlockImpl$prim_otp/GenerateStatementBlockImpl$null15/GPortImpl$addr_i" transform="translate(0, 249)" class="triangle"><path d="M 0,0 L 5,2.5 L 0,5 Z" transform="translate(-1.67, -2.5)" class="sprotty-port" style="fill:rgb(48, 48, 48);stroke:rgb(48, 48, 48);"/></g><g id="sprotty_ArchitectureBlockImpl$prim_otp/GenerateStatementBlockImpl$null15/GPortImpl$cmd_i" transform="translate(0, 221)" class="triangle"><path d="M 0,0 L 5,2.5 L 0,5 Z" transform="translate(-1.67, -2.5)" class="sprotty-port" style="fill:rgb(48, 48, 48);stroke:rgb(48, 48, 48);"/></g><g id="sprotty_ArchitectureBlockImpl$prim_otp/GenerateStatementBlockImpl$null15/GPortImpl$size_i" transform="translate(0, 193)" class="triangle"><path d="M 0,0 L 5,2.5 L 0,5 Z" transform="translate(-1.67, -2.5)" class="sprotty-port" style="fill:rgb(48, 48, 48);stroke:rgb(48, 48, 48);"/></g><g id="sprotty_ArchitectureBlockImpl$prim_otp/GenerateStatementBlockImpl$null15/GPortImpl$valid_i" transform="translate(0, 165)" class="triangle"><path d="M 0,0 L 5,2.5 L 0,5 Z" transform="translate(-1.67, -2.5)" class="sprotty-port" style="fill:rgb(48, 48, 48);stroke:rgb(48, 48, 48);"/></g><g id="sprotty_ArchitectureBlockImpl$prim_otp/GenerateStatementBlockImpl$null15/GPortImpl$test_tl_i" transform="translate(0, 137)" class="triangle"><path d="M 0,0 L 5,2.5 L 0,5 Z" transform="translate(-1.67, -2.5)" class="sprotty-port" style="fill:rgb(48, 48, 48);stroke:rgb(48, 48, 48);"/></g><g id="sprotty_ArchitectureBlockImpl$prim_otp/GenerateStatementBlockImpl$null15/GPortImpl$pwr_seq_h_i" transform="translate(0, 109)" class="triangle"><path d="M 0,0 L 5,2.5 L 0,5 Z" transform="translate(-1.67, -2.5)" class="sprotty-port" style="fill:rgb(48, 48, 48);stroke:rgb(48, 48, 48);"/></g><g id="sprotty_ArchitectureBlockImpl$prim_otp/GenerateStatementBlockImpl$null15/GPortImpl$rst_ni" transform="translate(0, 81)" class="triangle"><path d="M 0,0 L 5,2.5 L 0,5 Z" transform="translate(-1.67, -2.5)" class="sprotty-port" style="fill:rgb(48, 48, 48);stroke:rgb(48, 48, 48);"/></g><g id="sprotty_ArchitectureBlockImpl$prim_otp/GenerateStatementBlockImpl$null15/GPortImpl$clk_i" transform="translate(0, 53)" class="triangle"><path d="M 0,0 L 5,2.5 L 0,5 Z" transform="translate(-1.67, -2.5)" class="sprotty-port" style="fill:rgb(48, 48, 48);stroke:rgb(48, 48, 48);"/></g><g id="sprotty_ArchitectureBlockImpl$prim_otp/GenerateStatementBlockImpl$null15/GPortImpl$pwr_seq_o" transform="translate(313.5, 53)" class="triangle"><path d="M 0,0 L 5,2.5 L 0,5 Z" transform="translate(-1.67, -2.5)" class="sprotty-port" style="fill:rgb(48, 48, 48);stroke:rgb(48, 48, 48);"/></g><g id="sprotty_ArchitectureBlockImpl$prim_otp/GenerateStatementBlockImpl$null15/GPortImpl$test_tl_o" transform="translate(313.5, 97.8)" class="triangle"><path d="M 0,0 L 5,2.5 L 0,5 Z" transform="translate(-1.67, -2.5)" class="sprotty-port" style="fill:rgb(48, 48, 48);stroke:rgb(48, 48, 48);"/></g><g id="sprotty_ArchitectureBlockImpl$prim_otp/GenerateStatementBlockImpl$null15/GPortImpl$ready_o" transform="translate(313.5, 142.6)" class="triangle"><path d="M 0,0 L 5,2.5 L 0,5 Z" transform="translate(-1.67, -2.5)" class="sprotty-port" style="fill:rgb(48, 48, 48);stroke:rgb(48, 48, 48);"/></g><g id="sprotty_ArchitectureBlockImpl$prim_otp/GenerateStatementBlockImpl$null15/GPortImpl$valid_o" transform="translate(313.5, 187.39999999999998)" class="triangle"><path d="M 0,0 L 5,2.5 L 0,5 Z" transform="translate(-1.67, -2.5)" class="sprotty-port" style="fill:rgb(48, 48, 48);stroke:rgb(48, 48, 48);"/></g><g id="sprotty_ArchitectureBlockImpl$prim_otp/GenerateStatementBlockImpl$null15/GPortImpl$rdata_o" transform="translate(313.5, 232.2)" class="triangle"><path d="M 0,0 L 5,2.5 L 0,5 Z" transform="translate(-1.67, -2.5)" class="sprotty-port" style="fill:rgb(48, 48, 48);stroke:rgb(48, 48, 48);"/></g><g id="sprotty_ArchitectureBlockImpl$prim_otp/GenerateStatementBlockImpl$null15/GPortImpl$err_o" transform="translate(313.5, 277)" class="triangle"><path d="M 0,0 L 5,2.5 L 0,5 Z" transform="translate(-1.67, -2.5)" class="sprotty-port" style="fill:rgb(48, 48, 48);stroke:rgb(48, 48, 48);"/></g></g><g id="sprotty_ArchitectureBlockImpl$prim_otp/BPortImpl$wdata_i" transform="translate(0, 312)" class="triangle"><path d="M 0,0 L 5,2.5 L 0,5 Z" transform="translate(-1.67, -2.5)" class="sprotty-port" style="fill:rgb(48, 48, 48);stroke:rgb(48, 48, 48);"/><text class="clickable sprotty-label port" id="sprotty_ArchitectureBlockImpl$prim_otp/BPortImpl$wdata_i/label" transform="translate(6, 6) translate(22.3125, 14)" style="cursor:default;font-size:12px;perspective-origin:0px 0px;fill:rgb(48, 48, 48);text-anchor:middle;">wdata_i</text></g><g id="sprotty_ArchitectureBlockImpl$prim_otp/BPortImpl$addr_i" transform="translate(0, 278)" class="triangle"><path d="M 0,0 L 5,2.5 L 0,5 Z" transform="translate(-1.67, -2.5)" class="sprotty-port" style="fill:rgb(48, 48, 48);stroke:rgb(48, 48, 48);"/><text class="clickable sprotty-label port" id="sprotty_ArchitectureBlockImpl$prim_otp/BPortImpl$addr_i/label" transform="translate(6, 6) translate(18.15625, 14)" style="cursor:default;font-size:12px;perspective-origin:0px 0px;fill:rgb(48, 48, 48);text-anchor:middle;">addr_i</text></g><g id="sprotty_ArchitectureBlockImpl$prim_otp/BPortImpl$cmd_i" transform="translate(0, 244)" class="triangle"><path d="M 0,0 L 5,2.5 L 0,5 Z" transform="translate(-1.67, -2.5)" class="sprotty-port" style="fill:rgb(48, 48, 48);stroke:rgb(48, 48, 48);"/><text class="clickable sprotty-label port" id="sprotty_ArchitectureBlockImpl$prim_otp/BPortImpl$cmd_i/label" transform="translate(6, 6) translate(17.34375, 14)" style="cursor:default;font-size:12px;perspective-origin:0px 0px;fill:rgb(48, 48, 48);text-anchor:middle;">cmd_i</text></g><g id="sprotty_ArchitectureBlockImpl$prim_otp/BPortImpl$size_i" transform="translate(0, 210)" class="triangle"><path d="M 0,0 L 5,2.5 L 0,5 Z" transform="translate(-1.67, -2.5)" class="sprotty-port" style="fill:rgb(48, 48, 48);stroke:rgb(48, 48, 48);"/><text class="clickable sprotty-label port" id="sprotty_ArchitectureBlockImpl$prim_otp/BPortImpl$size_i/label" transform="translate(6, 6) translate(15.578125, 14)" style="cursor:default;font-size:12px;perspective-origin:0px 0px;fill:rgb(48, 48, 48);text-anchor:middle;">size_i</text></g><g id="sprotty_ArchitectureBlockImpl$prim_otp/BPortImpl$valid_i" transform="translate(0, 176)" class="triangle"><path d="M 0,0 L 5,2.5 L 0,5 Z" transform="translate(-1.67, -2.5)" class="sprotty-port" style="fill:rgb(48, 48, 48);stroke:rgb(48, 48, 48);"/><text class="clickable sprotty-label port" id="sprotty_ArchitectureBlockImpl$prim_otp/BPortImpl$valid_i/label" transform="translate(6, 6) translate(18.46875, 14)" style="cursor:default;font-size:12px;perspective-origin:0px 0px;fill:rgb(48, 48, 48);text-anchor:middle;">valid_i</text></g><g id="sprotty_ArchitectureBlockImpl$prim_otp/BPortImpl$test_tl_i" transform="translate(0, 142)" class="triangle"><path d="M 0,0 L 5,2.5 L 0,5 Z" transform="translate(-1.67, -2.5)" class="sprotty-port" style="fill:rgb(48, 48, 48);stroke:rgb(48, 48, 48);"/><text class="clickable sprotty-label port" id="sprotty_ArchitectureBlockImpl$prim_otp/BPortImpl$test_tl_i/label" transform="translate(6, 6) translate(22.765625, 14)" style="cursor:default;font-size:12px;perspective-origin:0px 0px;fill:rgb(48, 48, 48);text-anchor:middle;">test_tl_i</text></g><g id="sprotty_ArchitectureBlockImpl$prim_otp/BPortImpl$pwr_seq_h_i" transform="translate(0, 108)" class="triangle"><path d="M 0,0 L 5,2.5 L 0,5 Z" transform="translate(-1.67, -2.5)" class="sprotty-port" style="fill:rgb(48, 48, 48);stroke:rgb(48, 48, 48);"/><text class="clickable sprotty-label port" id="sprotty_ArchitectureBlockImpl$prim_otp/BPortImpl$pwr_seq_h_i/label" transform="translate(6, 6) translate(36.046875, 14)" style="cursor:default;font-size:12px;perspective-origin:0px 0px;fill:rgb(48, 48, 48);text-anchor:middle;">pwr_seq_h_i</text></g><g id="sprotty_ArchitectureBlockImpl$prim_otp/BPortImpl$rst_ni" transform="translate(0, 74)" class="triangle"><path d="M 0,0 L 5,2.5 L 0,5 Z" transform="translate(-1.67, -2.5)" class="sprotty-port" style="fill:rgb(48, 48, 48);stroke:rgb(48, 48, 48);"/><text class="clickable sprotty-label port" id="sprotty_ArchitectureBlockImpl$prim_otp/BPortImpl$rst_ni/label" transform="translate(6, 6) translate(15.921875, 14)" style="cursor:default;font-size:12px;perspective-origin:0px 0px;fill:rgb(48, 48, 48);text-anchor:middle;">rst_ni</text></g><g id="sprotty_ArchitectureBlockImpl$prim_otp/BPortImpl$clk_i" transform="translate(0, 40)" class="triangle"><path d="M 0,0 L 5,2.5 L 0,5 Z" transform="translate(-1.67, -2.5)" class="sprotty-port" style="fill:rgb(48, 48, 48);stroke:rgb(48, 48, 48);"/><text class="clickable sprotty-label port" id="sprotty_ArchitectureBlockImpl$prim_otp/BPortImpl$clk_i/label" transform="translate(6, 6) translate(13.09375, 14)" style="cursor:default;font-size:12px;perspective-origin:0px 0px;fill:rgb(48, 48, 48);text-anchor:middle;">clk_i</text></g><g id="sprotty_ArchitectureBlockImpl$prim_otp/BPortImpl$pwr_seq_o" transform="translate(549.6875, 88)" class="triangle"><path d="M 0,0 L 5,2.5 L 0,5 Z" transform="translate(-1.67, -2.5)" class="sprotty-port" style="fill:rgb(48, 48, 48);stroke:rgb(48, 48, 48);"/><text class="clickable sprotty-label port" id="sprotty_ArchitectureBlockImpl$prim_otp/BPortImpl$pwr_seq_o/label" transform="translate(-68.09375, 6) translate(31.046875, 14)" style="cursor:default;font-size:12px;perspective-origin:0px 0px;fill:rgb(48, 48, 48);text-anchor:middle;">pwr_seq_o</text></g><g id="sprotty_ArchitectureBlockImpl$prim_otp/BPortImpl$test_tl_o" transform="translate(549.6875, 132.8)" class="triangle"><path d="M 0,0 L 5,2.5 L 0,5 Z" transform="translate(-1.67, -2.5)" class="sprotty-port" style="fill:rgb(48, 48, 48);stroke:rgb(48, 48, 48);"/><text class="clickable sprotty-label port" id="sprotty_ArchitectureBlockImpl$prim_otp/BPortImpl$test_tl_o/label" transform="translate(-55.53125, 6) translate(24.765625, 14)" style="cursor:default;font-size:12px;perspective-origin:0px 0px;fill:rgb(48, 48, 48);text-anchor:middle;">test_tl_o</text></g><g id="sprotty_ArchitectureBlockImpl$prim_otp/BPortImpl$ready_o" transform="translate(549.6875, 177.6)" class="triangle"><path d="M 0,0 L 5,2.5 L 0,5 Z" transform="translate(-1.67, -2.5)" class="sprotty-port" style="fill:rgb(48, 48, 48);stroke:rgb(48, 48, 48);"/><text class="clickable sprotty-label port" id="sprotty_ArchitectureBlockImpl$prim_otp/BPortImpl$ready_o/label" transform="translate(-51.4375, 6) translate(22.71875, 14)" style="cursor:default;font-size:12px;perspective-origin:0px 0px;fill:rgb(48, 48, 48);text-anchor:middle;">ready_o</text></g><g id="sprotty_ArchitectureBlockImpl$prim_otp/BPortImpl$valid_o" transform="translate(549.6875, 222.39999999999998)" class="triangle"><path d="M 0,0 L 5,2.5 L 0,5 Z" transform="translate(-1.67, -2.5)" class="sprotty-port" style="fill:rgb(48, 48, 48);stroke:rgb(48, 48, 48);"/><text class="clickable sprotty-label port" id="sprotty_ArchitectureBlockImpl$prim_otp/BPortImpl$valid_o/label" transform="translate(-46.90625, 6) translate(20.453125, 14)" style="cursor:default;font-size:12px;perspective-origin:0px 0px;fill:rgb(48, 48, 48);text-anchor:middle;">valid_o</text></g><g id="sprotty_ArchitectureBlockImpl$prim_otp/BPortImpl$rdata_o" transform="translate(549.6875, 267.2)" class="triangle"><path d="M 0,0 L 5,2.5 L 0,5 Z" transform="translate(-1.67, -2.5)" class="sprotty-port" style="fill:rgb(48, 48, 48);stroke:rgb(48, 48, 48);"/><text class="clickable sprotty-label port" id="sprotty_ArchitectureBlockImpl$prim_otp/BPortImpl$rdata_o/label" transform="translate(-49.5625, 6) translate(21.78125, 14)" style="cursor:default;font-size:12px;perspective-origin:0px 0px;fill:rgb(48, 48, 48);text-anchor:middle;">rdata_o</text></g><g id="sprotty_ArchitectureBlockImpl$prim_otp/BPortImpl$err_o" transform="translate(549.6875, 312)" class="triangle"><path d="M 0,0 L 5,2.5 L 0,5 Z" transform="translate(-1.67, -2.5)" class="sprotty-port" style="fill:rgb(48, 48, 48);stroke:rgb(48, 48, 48);"/><text class="clickable sprotty-label port" id="sprotty_ArchitectureBlockImpl$prim_otp/BPortImpl$err_o/label" transform="translate(-35.96875, 6) translate(14.984375, 14)" style="cursor:default;font-size:12px;perspective-origin:0px 0px;fill:rgb(48, 48, 48);text-anchor:middle;">err_o</text></g></g></g></svg>