<svg xmlns="http://www.w3.org/2000/svg" id="sprotty_work.prim_ram_1p" class="sprotty-graph sprotty-block-diagram blockdiagram" style="font-family:&quot;Noto Sans&quot;, Helvetica, Arial, sans-serif;perspective-origin:0px 0px;transform-origin:0px 0px;" version="1.1" viewBox="7 7 522.40625 286" width="522.40625" height="286"><g transform="scale(1) translate(0,0)"><g id="sprotty_ArchitectureBlockImpl$prim_ram_1p" transform="translate(12, 12)" class="architecture"><g class="sprotty-block" style="fill:rgb(255, 255, 255);stroke:rgb(48, 48, 48);stroke-dasharray:0px;"><rect x="0" y="0" rx="1" ry="1" width="512.40625" height="276"/><text x="256.203125" y="12" class="sprotty-block-name" style="cursor:pointer;font-weight:700;perspective-origin:256.203px 0px;fill:rgb(48, 48, 48);stroke:rgba(0, 0, 0, 0);dominant-baseline:middle;text-anchor:middle;">prim_ram_1p</text><line x1="0" y1="20" x2="512.40625" y2="20"/></g><g id="sprotty_ArchitectureBlockImpl$prim_ram_1p/GenerateStatementBlockImpl$null7/GPortImpl$rdata_o_to_ArchitectureBlockImpl$prim_ram_1p/BPortImpl$rdata_o" class="sprotty-edge thick edge" style="fill:none;stroke:rgb(112, 112, 112);stroke-linejoin:round;stroke-width:3px;"><g><path d="M 447.84375 158 L 512.40625 158 "/><path d="M 447.84375 158 L 512.40625 158 " class="clickable"/></g></g><g id="sprotty_ArchitectureBlockImpl$prim_ram_1p/BPortImpl$clk_i_to_ArchitectureBlockImpl$prim_ram_1p/GenerateStatementBlockImpl$null7/GPortImpl$clk_i" class="sprotty-edge edge" style="fill:none;stroke:rgb(112, 112, 112);stroke-linejoin:round;"><g><path d="M 0 58 L 88.78125 58 C 89.78125 58 90.78125 59 90.78125 60 L 90.78125 86 C 90.78125 87 91.78125 88 92.78125 88 L 100.78125 88 "/><path d="M 0 58 L 88.78125 58 C 89.78125 58 90.78125 59 90.78125 60 L 90.78125 86 C 90.78125 87 91.78125 88 92.78125 88 L 100.78125 88 " class="clickable"/></g></g><g id="sprotty_ArchitectureBlockImpl$prim_ram_1p/BPortImpl$req_i_to_ArchitectureBlockImpl$prim_ram_1p/GenerateStatementBlockImpl$null7/GPortImpl$req_i" class="sprotty-edge edge" style="fill:none;stroke:rgb(112, 112, 112);stroke-linejoin:round;"><g><path d="M 0 92 L 78.78125 92 C 79.78125 92 80.78125 93 80.78125 94 L 80.78125 114 C 80.78125 115 81.78125 116 82.78125 116 L 100.78125 116 "/><path d="M 0 92 L 78.78125 92 C 79.78125 92 80.78125 93 80.78125 94 L 80.78125 114 C 80.78125 115 81.78125 116 82.78125 116 L 100.78125 116 " class="clickable"/></g></g><g id="sprotty_ArchitectureBlockImpl$prim_ram_1p/BPortImpl$write_i_to_ArchitectureBlockImpl$prim_ram_1p/GenerateStatementBlockImpl$null7/GPortImpl$write_i" class="sprotty-edge edge" style="fill:none;stroke:rgb(112, 112, 112);stroke-linejoin:round;"><g><path d="M 0 126 L 78.78125 126 C 79.78125 126 80.78125 127 80.78125 128 L 80.78125 142 C 80.78125 143 81.78125 144 82.78125 144 L 100.78125 144 "/><path d="M 0 126 L 78.78125 126 C 79.78125 126 80.78125 127 80.78125 128 L 80.78125 142 C 80.78125 143 81.78125 144 82.78125 144 L 100.78125 144 " class="clickable"/></g></g><g id="sprotty_ArchitectureBlockImpl$prim_ram_1p/BPortImpl$addr_i_to_ArchitectureBlockImpl$prim_ram_1p/GenerateStatementBlockImpl$null7/GPortImpl$addr_i" class="sprotty-edge thick edge" style="fill:none;stroke:rgb(112, 112, 112);stroke-linejoin:round;stroke-width:3px;"><g><path d="M 0 160 L 78.78125 160 C 79.78125 160 80.78125 161 80.78125 162 L 80.78125 170 C 80.78125 171 81.78125 172 82.78125 172 L 100.78125 172 "/><path d="M 0 160 L 78.78125 160 C 79.78125 160 80.78125 161 80.78125 162 L 80.78125 170 C 80.78125 171 81.78125 172 82.78125 172 L 100.78125 172 " class="clickable"/></g></g><g id="sprotty_ArchitectureBlockImpl$prim_ram_1p/BPortImpl$wdata_i_to_ArchitectureBlockImpl$prim_ram_1p/GenerateStatementBlockImpl$null7/GPortImpl$wdata_i" class="sprotty-edge thick edge" style="fill:none;stroke:rgb(112, 112, 112);stroke-linejoin:round;stroke-width:3px;"><g><path d="M 0 194 L 78.78125 194 C 79.78125 194 80.78125 195 80.78125 196 L 80.78125 198 C 80.78125 199 81.78125 200 82.78125 200 L 100.78125 200 "/><path d="M 0 194 L 78.78125 194 C 79.78125 194 80.78125 195 80.78125 196 L 80.78125 198 C 80.78125 199 81.78125 200 82.78125 200 L 100.78125 200 " class="clickable"/></g></g><g id="sprotty_ArchitectureBlockImpl$prim_ram_1p/BPortImpl$wmask_i_to_ArchitectureBlockImpl$prim_ram_1p/GenerateStatementBlockImpl$null7/GPortImpl$wmask_i" class="sprotty-edge thick edge" style="fill:none;stroke:rgb(112, 112, 112);stroke-linejoin:round;stroke-width:3px;"><g><path d="M 0 228 L 100.78125 228 "/><path d="M 0 228 L 100.78125 228 " class="clickable"/></g></g><g id="sprotty_ArchitectureBlockImpl$prim_ram_1p/GenerateStatementBlockImpl$null7" transform="translate(100.78125, 35)" class="generate"><g class="sprotty-block sprotty-block-generate" style="fill:rgb(255, 255, 255);stroke:rgb(48, 48, 48);stroke-dasharray:0px;"><rect x="0" y="0" rx="1" ry="1" width="347.0625" height="226" style="stroke-dasharray:3px, 1px;"/><text x="173.53125" y="12" class="sprotty-block-name" style="cursor:pointer;font-weight:700;fill:rgb(48, 48, 48);stroke:rgba(0, 0, 0, 0);dominant-baseline:middle;text-anchor:middle;"/>undefined</g><g id="sprotty_ArchitectureBlockImpl$prim_ram_1p/GenerateStatementBlockImpl$null7/InstantiationBlockImpl$u_impl_generic/BPortImpl$rdata_o_to_ArchitectureBlockImpl$prim_ram_1p/GenerateStatementBlockImpl$null7/GPortImpl$rdata_o" class="sprotty-edge thick edge" style="fill:none;stroke:rgb(112, 112, 112);stroke-linejoin:round;stroke-width:3px;"><g><path d="M 332.0625 123 L 347.0625 123 "/><path d="M 332.0625 123 L 347.0625 123 " class="clickable"/></g></g><g id="sprotty_ArchitectureBlockImpl$prim_ram_1p/GenerateStatementBlockImpl$null7/GPortImpl$clk_i_to_ArchitectureBlockImpl$prim_ram_1p/GenerateStatementBlockImpl$null7/InstantiationBlockImpl$u_impl_generic/BPortImpl$clk_i" class="sprotty-edge edge" style="fill:none;stroke:rgb(112, 112, 112);stroke-linejoin:round;"><g><path d="M 0 53 L 15 53 "/><path d="M 0 53 L 15 53 " class="clickable"/></g></g><g id="sprotty_ArchitectureBlockImpl$prim_ram_1p/GenerateStatementBlockImpl$null7/GPortImpl$req_i_to_ArchitectureBlockImpl$prim_ram_1p/GenerateStatementBlockImpl$null7/InstantiationBlockImpl$u_impl_generic/BPortImpl$req_i" class="sprotty-edge edge" style="fill:none;stroke:rgb(112, 112, 112);stroke-linejoin:round;"><g><path d="M 0 81 L 15 81 "/><path d="M 0 81 L 15 81 " class="clickable"/></g></g><g id="sprotty_ArchitectureBlockImpl$prim_ram_1p/GenerateStatementBlockImpl$null7/GPortImpl$write_i_to_ArchitectureBlockImpl$prim_ram_1p/GenerateStatementBlockImpl$null7/InstantiationBlockImpl$u_impl_generic/BPortImpl$write_i" class="sprotty-edge edge" style="fill:none;stroke:rgb(112, 112, 112);stroke-linejoin:round;"><g><path d="M 0 109 L 15 109 "/><path d="M 0 109 L 15 109 " class="clickable"/></g></g><g id="sprotty_ArchitectureBlockImpl$prim_ram_1p/GenerateStatementBlockImpl$null7/GPortImpl$addr_i_to_ArchitectureBlockImpl$prim_ram_1p/GenerateStatementBlockImpl$null7/InstantiationBlockImpl$u_impl_generic/BPortImpl$addr_i" class="sprotty-edge thick edge" style="fill:none;stroke:rgb(112, 112, 112);stroke-linejoin:round;stroke-width:3px;"><g><path d="M 0 137 L 15 137 "/><path d="M 0 137 L 15 137 " class="clickable"/></g></g><g id="sprotty_ArchitectureBlockImpl$prim_ram_1p/GenerateStatementBlockImpl$null7/GPortImpl$wdata_i_to_ArchitectureBlockImpl$prim_ram_1p/GenerateStatementBlockImpl$null7/InstantiationBlockImpl$u_impl_generic/BPortImpl$wdata_i" class="sprotty-edge thick edge" style="fill:none;stroke:rgb(112, 112, 112);stroke-linejoin:round;stroke-width:3px;"><g><path d="M 0 165 L 15 165 "/><path d="M 0 165 L 15 165 " class="clickable"/></g></g><g id="sprotty_ArchitectureBlockImpl$prim_ram_1p/GenerateStatementBlockImpl$null7/GPortImpl$wmask_i_to_ArchitectureBlockImpl$prim_ram_1p/GenerateStatementBlockImpl$null7/InstantiationBlockImpl$u_impl_generic/BPortImpl$wmask_i" class="sprotty-edge thick edge" style="fill:none;stroke:rgb(112, 112, 112);stroke-linejoin:round;stroke-width:3px;"><g><path d="M 0 193 L 15 193 "/><path d="M 0 193 L 15 193 " class="clickable"/></g></g><g id="sprotty_ArchitectureBlockImpl$prim_ram_1p/GenerateStatementBlockImpl$null7/InstantiationBlockImpl$u_impl_generic" transform="translate(15, 15)" class="instantiation"><g class="sprotty-block" style="fill:rgb(255, 255, 255);stroke:rgb(48, 48, 48);stroke-dasharray:0px;"><rect x="0" y="0" rx="1" ry="1" width="317.0625" height="196"/><text x="158.53125" y="12" class="sprotty-block-name" style="cursor:pointer;font-weight:700;perspective-origin:158.531px 0px;fill:rgb(48, 48, 48);stroke:rgba(0, 0, 0, 0);dominant-baseline:middle;text-anchor:middle;">u_impl_generic : prim_generic_ram_1p</text><line x1="0" y1="20" x2="317.0625" y2="20"/></g><g id="sprotty_ArchitectureBlockImpl$prim_ram_1p/GenerateStatementBlockImpl$null7/InstantiationBlockImpl$u_impl_generic/BPortImpl$wmask_i" transform="translate(0, 178)" class="triangle"><path d="M 0,0 L 5,2.5 L 0,5 Z" transform="translate(-1.67, -2.5)" class="sprotty-port" style="fill:rgb(48, 48, 48);stroke:rgb(48, 48, 48);"/><text class="clickable sprotty-label port" id="sprotty_ArchitectureBlockImpl$prim_ram_1p/GenerateStatementBlockImpl$null7/InstantiationBlockImpl$u_impl_generic/BPortImpl$wmask_i/label" transform="translate(6, -9) translate(24.890625, 14)" style="cursor:default;font-size:12px;perspective-origin:0px 0px;fill:rgb(48, 48, 48);text-anchor:middle;">wmask_i</text></g><g id="sprotty_ArchitectureBlockImpl$prim_ram_1p/GenerateStatementBlockImpl$null7/InstantiationBlockImpl$u_impl_generic/BPortImpl$wdata_i" transform="translate(0, 150)" class="triangle"><path d="M 0,0 L 5,2.5 L 0,5 Z" transform="translate(-1.67, -2.5)" class="sprotty-port" style="fill:rgb(48, 48, 48);stroke:rgb(48, 48, 48);"/><text class="clickable sprotty-label port" id="sprotty_ArchitectureBlockImpl$prim_ram_1p/GenerateStatementBlockImpl$null7/InstantiationBlockImpl$u_impl_generic/BPortImpl$wdata_i/label" transform="translate(6, -9) translate(22.3125, 14)" style="cursor:default;font-size:12px;perspective-origin:0px 0px;fill:rgb(48, 48, 48);text-anchor:middle;">wdata_i</text></g><g id="sprotty_ArchitectureBlockImpl$prim_ram_1p/GenerateStatementBlockImpl$null7/InstantiationBlockImpl$u_impl_generic/BPortImpl$addr_i" transform="translate(0, 122)" class="triangle"><path d="M 0,0 L 5,2.5 L 0,5 Z" transform="translate(-1.67, -2.5)" class="sprotty-port" style="fill:rgb(48, 48, 48);stroke:rgb(48, 48, 48);"/><text class="clickable sprotty-label port" id="sprotty_ArchitectureBlockImpl$prim_ram_1p/GenerateStatementBlockImpl$null7/InstantiationBlockImpl$u_impl_generic/BPortImpl$addr_i/label" transform="translate(6, -9) translate(18.15625, 14)" style="cursor:default;font-size:12px;perspective-origin:0px 0px;fill:rgb(48, 48, 48);text-anchor:middle;">addr_i</text></g><g id="sprotty_ArchitectureBlockImpl$prim_ram_1p/GenerateStatementBlockImpl$null7/InstantiationBlockImpl$u_impl_generic/BPortImpl$write_i" transform="translate(0, 94)" class="triangle"><path d="M 0,0 L 5,2.5 L 0,5 Z" transform="translate(-1.67, -2.5)" class="sprotty-port" style="fill:rgb(48, 48, 48);stroke:rgb(48, 48, 48);"/><text class="clickable sprotty-label port" id="sprotty_ArchitectureBlockImpl$prim_ram_1p/GenerateStatementBlockImpl$null7/InstantiationBlockImpl$u_impl_generic/BPortImpl$write_i/label" transform="translate(6, -9) translate(19.296875, 14)" style="cursor:default;font-size:12px;perspective-origin:0px 0px;fill:rgb(48, 48, 48);text-anchor:middle;">write_i</text></g><g id="sprotty_ArchitectureBlockImpl$prim_ram_1p/GenerateStatementBlockImpl$null7/InstantiationBlockImpl$u_impl_generic/BPortImpl$req_i" transform="translate(0, 66)" class="triangle"><path d="M 0,0 L 5,2.5 L 0,5 Z" transform="translate(-1.67, -2.5)" class="sprotty-port" style="fill:rgb(48, 48, 48);stroke:rgb(48, 48, 48);"/><text class="clickable sprotty-label port" id="sprotty_ArchitectureBlockImpl$prim_ram_1p/GenerateStatementBlockImpl$null7/InstantiationBlockImpl$u_impl_generic/BPortImpl$req_i/label" transform="translate(6, -9) translate(14.3125, 14)" style="cursor:default;font-size:12px;perspective-origin:0px 0px;fill:rgb(48, 48, 48);text-anchor:middle;">req_i</text></g><g id="sprotty_ArchitectureBlockImpl$prim_ram_1p/GenerateStatementBlockImpl$null7/InstantiationBlockImpl$u_impl_generic/BPortImpl$clk_i" transform="translate(0, 38)" class="triangle"><path d="M 0,0 L 5,2.5 L 0,5 Z" transform="translate(-1.67, -2.5)" class="sprotty-port" style="fill:rgb(48, 48, 48);stroke:rgb(48, 48, 48);"/><text class="clickable sprotty-label port" id="sprotty_ArchitectureBlockImpl$prim_ram_1p/GenerateStatementBlockImpl$null7/InstantiationBlockImpl$u_impl_generic/BPortImpl$clk_i/label" transform="translate(6, -9) translate(13.09375, 14)" style="cursor:default;font-size:12px;perspective-origin:0px 0px;fill:rgb(48, 48, 48);text-anchor:middle;">clk_i</text></g><g id="sprotty_ArchitectureBlockImpl$prim_ram_1p/GenerateStatementBlockImpl$null7/InstantiationBlockImpl$u_impl_generic/BPortImpl$rdata_o" transform="translate(317.0625, 108)" class="triangle"><path d="M 0,0 L 5,2.5 L 0,5 Z" transform="translate(-1.67, -2.5)" class="sprotty-port" style="fill:rgb(48, 48, 48);stroke:rgb(48, 48, 48);"/><text class="clickable sprotty-label port" id="sprotty_ArchitectureBlockImpl$prim_ram_1p/GenerateStatementBlockImpl$null7/InstantiationBlockImpl$u_impl_generic/BPortImpl$rdata_o/label" transform="translate(-49.5625, -9) translate(21.78125, 14)" style="cursor:default;font-size:12px;perspective-origin:0px 0px;fill:rgb(48, 48, 48);text-anchor:middle;">rdata_o</text></g></g><g id="sprotty_ArchitectureBlockImpl$prim_ram_1p/GenerateStatementBlockImpl$null7/GPortImpl$wmask_i" transform="translate(0, 193)" class="triangle"><path d="M 0,0 L 5,2.5 L 0,5 Z" transform="translate(-1.67, -2.5)" class="sprotty-port" style="fill:rgb(48, 48, 48);stroke:rgb(48, 48, 48);"/></g><g id="sprotty_ArchitectureBlockImpl$prim_ram_1p/GenerateStatementBlockImpl$null7/GPortImpl$wdata_i" transform="translate(0, 165)" class="triangle"><path d="M 0,0 L 5,2.5 L 0,5 Z" transform="translate(-1.67, -2.5)" class="sprotty-port" style="fill:rgb(48, 48, 48);stroke:rgb(48, 48, 48);"/></g><g id="sprotty_ArchitectureBlockImpl$prim_ram_1p/GenerateStatementBlockImpl$null7/GPortImpl$addr_i" transform="translate(0, 137)" class="triangle"><path d="M 0,0 L 5,2.5 L 0,5 Z" transform="translate(-1.67, -2.5)" class="sprotty-port" style="fill:rgb(48, 48, 48);stroke:rgb(48, 48, 48);"/></g><g id="sprotty_ArchitectureBlockImpl$prim_ram_1p/GenerateStatementBlockImpl$null7/GPortImpl$write_i" transform="translate(0, 109)" class="triangle"><path d="M 0,0 L 5,2.5 L 0,5 Z" transform="translate(-1.67, -2.5)" class="sprotty-port" style="fill:rgb(48, 48, 48);stroke:rgb(48, 48, 48);"/></g><g id="sprotty_ArchitectureBlockImpl$prim_ram_1p/GenerateStatementBlockImpl$null7/GPortImpl$req_i" transform="translate(0, 81)" class="triangle"><path d="M 0,0 L 5,2.5 L 0,5 Z" transform="translate(-1.67, -2.5)" class="sprotty-port" style="fill:rgb(48, 48, 48);stroke:rgb(48, 48, 48);"/></g><g id="sprotty_ArchitectureBlockImpl$prim_ram_1p/GenerateStatementBlockImpl$null7/GPortImpl$clk_i" transform="translate(0, 53)" class="triangle"><path d="M 0,0 L 5,2.5 L 0,5 Z" transform="translate(-1.67, -2.5)" class="sprotty-port" style="fill:rgb(48, 48, 48);stroke:rgb(48, 48, 48);"/></g><g id="sprotty_ArchitectureBlockImpl$prim_ram_1p/GenerateStatementBlockImpl$null7/GPortImpl$rdata_o" transform="translate(347.0625, 123)" class="triangle"><path d="M 0,0 L 5,2.5 L 0,5 Z" transform="translate(-1.67, -2.5)" class="sprotty-port" style="fill:rgb(48, 48, 48);stroke:rgb(48, 48, 48);"/></g></g><g id="sprotty_ArchitectureBlockImpl$prim_ram_1p/BPortImpl$wmask_i" transform="translate(0, 228)" class="triangle"><path d="M 0,0 L 5,2.5 L 0,5 Z" transform="translate(-1.67, -2.5)" class="sprotty-port" style="fill:rgb(48, 48, 48);stroke:rgb(48, 48, 48);"/><text class="clickable sprotty-label port" id="sprotty_ArchitectureBlockImpl$prim_ram_1p/BPortImpl$wmask_i/label" transform="translate(6, 6) translate(24.890625, 14)" style="cursor:default;font-size:12px;perspective-origin:0px 0px;fill:rgb(48, 48, 48);text-anchor:middle;">wmask_i</text></g><g id="sprotty_ArchitectureBlockImpl$prim_ram_1p/BPortImpl$wdata_i" transform="translate(0, 194)" class="triangle"><path d="M 0,0 L 5,2.5 L 0,5 Z" transform="translate(-1.67, -2.5)" class="sprotty-port" style="fill:rgb(48, 48, 48);stroke:rgb(48, 48, 48);"/><text class="clickable sprotty-label port" id="sprotty_ArchitectureBlockImpl$prim_ram_1p/BPortImpl$wdata_i/label" transform="translate(6, 6) translate(22.3125, 14)" style="cursor:default;font-size:12px;perspective-origin:0px 0px;fill:rgb(48, 48, 48);text-anchor:middle;">wdata_i</text></g><g id="sprotty_ArchitectureBlockImpl$prim_ram_1p/BPortImpl$addr_i" transform="translate(0, 160)" class="triangle"><path d="M 0,0 L 5,2.5 L 0,5 Z" transform="translate(-1.67, -2.5)" class="sprotty-port" style="fill:rgb(48, 48, 48);stroke:rgb(48, 48, 48);"/><text class="clickable sprotty-label port" id="sprotty_ArchitectureBlockImpl$prim_ram_1p/BPortImpl$addr_i/label" transform="translate(6, 6) translate(18.15625, 14)" style="cursor:default;font-size:12px;perspective-origin:0px 0px;fill:rgb(48, 48, 48);text-anchor:middle;">addr_i</text></g><g id="sprotty_ArchitectureBlockImpl$prim_ram_1p/BPortImpl$write_i" transform="translate(0, 126)" class="triangle"><path d="M 0,0 L 5,2.5 L 0,5 Z" transform="translate(-1.67, -2.5)" class="sprotty-port" style="fill:rgb(48, 48, 48);stroke:rgb(48, 48, 48);"/><text class="clickable sprotty-label port" id="sprotty_ArchitectureBlockImpl$prim_ram_1p/BPortImpl$write_i/label" transform="translate(6, 6) translate(19.296875, 14)" style="cursor:default;font-size:12px;perspective-origin:0px 0px;fill:rgb(48, 48, 48);text-anchor:middle;">write_i</text></g><g id="sprotty_ArchitectureBlockImpl$prim_ram_1p/BPortImpl$req_i" transform="translate(0, 92)" class="triangle"><path d="M 0,0 L 5,2.5 L 0,5 Z" transform="translate(-1.67, -2.5)" class="sprotty-port" style="fill:rgb(48, 48, 48);stroke:rgb(48, 48, 48);"/><text class="clickable sprotty-label port" id="sprotty_ArchitectureBlockImpl$prim_ram_1p/BPortImpl$req_i/label" transform="translate(6, 6) translate(14.3125, 14)" style="cursor:default;font-size:12px;perspective-origin:0px 0px;fill:rgb(48, 48, 48);text-anchor:middle;">req_i</text></g><g id="sprotty_ArchitectureBlockImpl$prim_ram_1p/BPortImpl$clk_i" transform="translate(0, 58)" class="triangle"><path d="M 0,0 L 5,2.5 L 0,5 Z" transform="translate(-1.67, -2.5)" class="sprotty-port" style="fill:rgb(48, 48, 48);stroke:rgb(48, 48, 48);"/><text class="clickable sprotty-label port" id="sprotty_ArchitectureBlockImpl$prim_ram_1p/BPortImpl$clk_i/label" transform="translate(6, 6) translate(13.09375, 14)" style="cursor:default;font-size:12px;perspective-origin:0px 0px;fill:rgb(48, 48, 48);text-anchor:middle;">clk_i</text></g><g id="sprotty_ArchitectureBlockImpl$prim_ram_1p/BPortImpl$rdata_o" transform="translate(512.40625, 158)" class="triangle"><path d="M 0,0 L 5,2.5 L 0,5 Z" transform="translate(-1.67, -2.5)" class="sprotty-port" style="fill:rgb(48, 48, 48);stroke:rgb(48, 48, 48);"/><text class="clickable sprotty-label port" id="sprotty_ArchitectureBlockImpl$prim_ram_1p/BPortImpl$rdata_o/label" transform="translate(-49.5625, 6) translate(21.78125, 14)" style="cursor:default;font-size:12px;perspective-origin:0px 0px;fill:rgb(48, 48, 48);text-anchor:middle;">rdata_o</text></g></g></g></svg>