<svg xmlns="http://www.w3.org/2000/svg" id="sprotty_work.prim_clock_mux2" class="sprotty-graph sprotty-block-diagram blockdiagram" style="font-family:&quot;Noto Sans&quot;, Helvetica, Arial, sans-serif;perspective-origin:0px 0px;transform-origin:0px 0px;" version="1.1" viewBox="7 7 576.59375 334" width="576.59375" height="334"><g transform="scale(1) translate(0,0)"><g id="sprotty_ArchitectureBlockImpl$prim_clock_mux2" transform="translate(12, 12)" class="architecture"><g class="sprotty-block" style="fill:rgb(255, 255, 255);stroke:rgb(48, 48, 48);stroke-dasharray:0px;"><rect x="0" y="0" rx="1" ry="1" width="566.59375" height="324"/><text x="283.296875" y="12" class="sprotty-block-name" style="cursor:pointer;font-weight:700;perspective-origin:283.297px 0px;fill:rgb(48, 48, 48);stroke:rgba(0, 0, 0, 0);dominant-baseline:middle;text-anchor:middle;">prim_clock_mux2</text><line x1="0" y1="20" x2="566.59375" y2="20"/></g><g id="sprotty_ArchitectureBlockImpl$prim_clock_mux2/GenerateStatementBlockImpl$null4/GPortImpl$clk_o_to_ArchitectureBlockImpl$prim_clock_mux2/BPortImpl$clk_o" class="sprotty-edge edge" style="fill:none;stroke:rgb(112, 112, 112);stroke-linejoin:round;"><g><path d="M 515.4375 116 L 566.59375 116 "/><path d="M 515.4375 116 L 566.59375 116 " class="clickable"/></g></g><g id="sprotty_ArchitectureBlockImpl$prim_clock_mux2/BPortImpl$clk0_i_to_ArchitectureBlockImpl$prim_clock_mux2/GenerateStatementBlockImpl$null4/GPortImpl$clk0_i" class="sprotty-edge edge" style="fill:none;stroke:rgb(112, 112, 112);stroke-linejoin:round;"><g><path d="M 0 82 L 61.84375 82 C 62.84375 82 63.84375 83 63.84375 84 L 63.84375 104 C 63.84375 105 64.84375 106 65.84375 106 L 73.84375 106 "/><path d="M 0 82 L 61.84375 82 C 62.84375 82 63.84375 83 63.84375 84 L 63.84375 104 C 63.84375 105 64.84375 106 65.84375 106 L 73.84375 106 " class="clickable"/></g></g><g id="sprotty_ArchitectureBlockImpl$prim_clock_mux2/BPortImpl$clk1_i_to_ArchitectureBlockImpl$prim_clock_mux2/GenerateStatementBlockImpl$null4/GPortImpl$clk1_i" class="sprotty-edge edge" style="fill:none;stroke:rgb(112, 112, 112);stroke-linejoin:round;"><g><path d="M 0 116 L 73.84375 116 "/><path d="M 0 116 L 73.84375 116 " class="clickable"/></g></g><g id="sprotty_ArchitectureBlockImpl$prim_clock_mux2/BPortImpl$sel_i_to_ArchitectureBlockImpl$prim_clock_mux2/GenerateStatementBlockImpl$null4/GPortImpl$sel_i" class="sprotty-edge edge" style="fill:none;stroke:rgb(112, 112, 112);stroke-linejoin:round;"><g><path d="M 0 150 L 61.84375 150 C 62.84375 150 63.84375 149 63.84375 148 L 63.84375 146 C 63.84375 145 64.84375 144 65.84375 144 L 73.84375 144 "/><path d="M 0 150 L 61.84375 150 C 62.84375 150 63.84375 149 63.84375 148 L 63.84375 146 C 63.84375 145 64.84375 144 65.84375 144 L 73.84375 144 " class="clickable"/></g></g><g id="sprotty_ArchitectureBlockImpl$prim_clock_mux2/GenerateStatementBlockImpl$null4" transform="translate(73.84375, 35)" class="generate"><g class="sprotty-block sprotty-block-generate" style="fill:rgb(255, 255, 255);stroke:rgb(48, 48, 48);stroke-dasharray:0px;"><rect x="0" y="0" rx="1" ry="1" width="441.59375" height="274" style="stroke-dasharray:3px, 1px;"/><text x="220.796875" y="12" class="sprotty-block-name" style="cursor:pointer;font-weight:700;fill:rgb(48, 48, 48);stroke:rgba(0, 0, 0, 0);dominant-baseline:middle;text-anchor:middle;"/>undefined</g><g id="sprotty_ArchitectureBlockImpl$prim_clock_mux2/GenerateStatementBlockImpl$null4/InstantiationBlockImpl$u_impl_xilinx/BPortImpl$clk_o_to_ArchitectureBlockImpl$prim_clock_mux2/GenerateStatementBlockImpl$null4/GPortImpl$clk_o" class="sprotty-edge edge" style="fill:none;stroke:rgb(112, 112, 112);stroke-linejoin:round;"><g><path d="M 383.5546875 213 L 414.59375 213 C 415.59375 213 416.59375 212 416.59375 211 L 416.59375 83 C 416.59375 82 417.59375 81 418.59375 81 L 441.59375 81 "/><path d="M 383.5546875 213 L 414.59375 213 C 415.59375 213 416.59375 212 416.59375 211 L 416.59375 83 C 416.59375 82 417.59375 81 418.59375 81 L 441.59375 81 " class="clickable"/></g><circle r="2" id="sprotty_ArchitectureBlockImpl$prim_clock_mux2/GenerateStatementBlockImpl$null4/InstantiationBlockImpl$u_impl_xilinx/BPortImpl$clk_o_to_ArchitectureBlockImpl$prim_clock_mux2/GenerateStatementBlockImpl$null4/GPortImpl$clk_o/junction0" transform="translate(416.59375, 81)" class="sprotty-junction junction" style="fill:rgb(112, 112, 112);stroke:none;"/></g><g id="sprotty_ArchitectureBlockImpl$prim_clock_mux2/GenerateStatementBlockImpl$null4/InstantiationBlockImpl$u_impl_generic/BPortImpl$clk_o_to_ArchitectureBlockImpl$prim_clock_mux2/GenerateStatementBlockImpl$null4/GPortImpl$clk_o" class="sprotty-edge edge" style="fill:none;stroke:rgb(112, 112, 112);stroke-linejoin:round;"><g><path d="M 406.59375 81 L 441.59375 81 "/><path d="M 406.59375 81 L 441.59375 81 " class="clickable"/></g></g><g id="sprotty_ArchitectureBlockImpl$prim_clock_mux2/GenerateStatementBlockImpl$null4/GPortImpl$clk0_i_to_ArchitectureBlockImpl$prim_clock_mux2/GenerateStatementBlockImpl$null4/InstantiationBlockImpl$u_impl_xilinx/BPortImpl$clk0_i" class="sprotty-edge edge" style="fill:none;stroke:rgb(112, 112, 112);stroke-linejoin:round;"><g><path d="M 0 71 L 43 71 C 44 71 45 72 45 73 L 45 183 C 45 184 46 185 47 185 L 62.6796875 185 "/><path d="M 0 71 L 43 71 C 44 71 45 72 45 73 L 45 183 C 45 184 46 185 47 185 L 62.6796875 185 " class="clickable"/></g><circle r="2" id="sprotty_ArchitectureBlockImpl$prim_clock_mux2/GenerateStatementBlockImpl$null4/GPortImpl$clk0_i_to_ArchitectureBlockImpl$prim_clock_mux2/GenerateStatementBlockImpl$null4/InstantiationBlockImpl$u_impl_xilinx/BPortImpl$clk0_i/junction0" transform="translate(45, 71)" class="sprotty-junction junction" style="fill:rgb(112, 112, 112);stroke:none;"/></g><g id="sprotty_ArchitectureBlockImpl$prim_clock_mux2/GenerateStatementBlockImpl$null4/GPortImpl$clk1_i_to_ArchitectureBlockImpl$prim_clock_mux2/GenerateStatementBlockImpl$null4/InstantiationBlockImpl$u_impl_xilinx/BPortImpl$clk1_i" class="sprotty-edge edge" style="fill:none;stroke:rgb(112, 112, 112);stroke-linejoin:round;"><g><path d="M 0 81 L 33 81 C 34 81 35 82 35 83 L 35 211 C 35 212 36 213 37 213 L 62.6796875 213 "/><path d="M 0 81 L 33 81 C 34 81 35 82 35 83 L 35 211 C 35 212 36 213 37 213 L 62.6796875 213 " class="clickable"/></g><circle r="2" id="sprotty_ArchitectureBlockImpl$prim_clock_mux2/GenerateStatementBlockImpl$null4/GPortImpl$clk1_i_to_ArchitectureBlockImpl$prim_clock_mux2/GenerateStatementBlockImpl$null4/InstantiationBlockImpl$u_impl_xilinx/BPortImpl$clk1_i/junction0" transform="translate(35, 81)" class="sprotty-junction junction" style="fill:rgb(112, 112, 112);stroke:none;"/></g><g id="sprotty_ArchitectureBlockImpl$prim_clock_mux2/GenerateStatementBlockImpl$null4/GPortImpl$sel_i_to_ArchitectureBlockImpl$prim_clock_mux2/GenerateStatementBlockImpl$null4/InstantiationBlockImpl$u_impl_xilinx/BPortImpl$sel_i" class="sprotty-edge edge" style="fill:none;stroke:rgb(112, 112, 112);stroke-linejoin:round;"><g><path d="M 0 109 L 23 109 C 24 109 25 110 25 111 L 25 239 C 25 240 26 241 27 241 L 62.6796875 241 "/><path d="M 0 109 L 23 109 C 24 109 25 110 25 111 L 25 239 C 25 240 26 241 27 241 L 62.6796875 241 " class="clickable"/></g><circle r="2" id="sprotty_ArchitectureBlockImpl$prim_clock_mux2/GenerateStatementBlockImpl$null4/GPortImpl$sel_i_to_ArchitectureBlockImpl$prim_clock_mux2/GenerateStatementBlockImpl$null4/InstantiationBlockImpl$u_impl_xilinx/BPortImpl$sel_i/junction0" transform="translate(25, 109)" class="sprotty-junction junction" style="fill:rgb(112, 112, 112);stroke:none;"/></g><g id="sprotty_ArchitectureBlockImpl$prim_clock_mux2/GenerateStatementBlockImpl$null4/GPortImpl$clk0_i_to_ArchitectureBlockImpl$prim_clock_mux2/GenerateStatementBlockImpl$null4/InstantiationBlockImpl$u_impl_generic/BPortImpl$clk0_i" class="sprotty-edge edge" style="fill:none;stroke:rgb(112, 112, 112);stroke-linejoin:round;"><g><path d="M 0 71 L 43 71 C 44 71 45 70 45 69 L 45 55 C 45 54 46 53 47 53 L 55 53 "/><path d="M 0 71 L 43 71 C 44 71 45 70 45 69 L 45 55 C 45 54 46 53 47 53 L 55 53 " class="clickable"/></g></g><g id="sprotty_ArchitectureBlockImpl$prim_clock_mux2/GenerateStatementBlockImpl$null4/GPortImpl$clk1_i_to_ArchitectureBlockImpl$prim_clock_mux2/GenerateStatementBlockImpl$null4/InstantiationBlockImpl$u_impl_generic/BPortImpl$clk1_i" class="sprotty-edge edge" style="fill:none;stroke:rgb(112, 112, 112);stroke-linejoin:round;"><g><path d="M 0 81 L 55 81 "/><path d="M 0 81 L 55 81 " class="clickable"/></g></g><g id="sprotty_ArchitectureBlockImpl$prim_clock_mux2/GenerateStatementBlockImpl$null4/GPortImpl$sel_i_to_ArchitectureBlockImpl$prim_clock_mux2/GenerateStatementBlockImpl$null4/InstantiationBlockImpl$u_impl_generic/BPortImpl$sel_i" class="sprotty-edge edge" style="fill:none;stroke:rgb(112, 112, 112);stroke-linejoin:round;"><g><path d="M 0 109 L 55 109 "/><path d="M 0 109 L 55 109 " class="clickable"/></g></g><g id="sprotty_ArchitectureBlockImpl$prim_clock_mux2/GenerateStatementBlockImpl$null4/InstantiationBlockImpl$u_impl_generic" transform="translate(55, 15)" class="instantiation"><g class="sprotty-block" style="fill:rgb(255, 255, 255);stroke:rgb(48, 48, 48);stroke-dasharray:0px;"><rect x="0" y="0" rx="1" ry="1" width="351.59375" height="112"/><text x="175.796875" y="12" class="sprotty-block-name" style="cursor:pointer;font-weight:700;perspective-origin:175.797px 0px;fill:rgb(48, 48, 48);stroke:rgba(0, 0, 0, 0);dominant-baseline:middle;text-anchor:middle;">u_impl_generic : prim_generic_clock_mux2</text><line x1="0" y1="20" x2="351.59375" y2="20"/></g><g id="sprotty_ArchitectureBlockImpl$prim_clock_mux2/GenerateStatementBlockImpl$null4/InstantiationBlockImpl$u_impl_generic/BPortImpl$sel_i" transform="translate(0, 94)" class="triangle"><path d="M 0,0 L 5,2.5 L 0,5 Z" transform="translate(-1.67, -2.5)" class="sprotty-port" style="fill:rgb(48, 48, 48);stroke:rgb(48, 48, 48);"/><text class="clickable sprotty-label port" id="sprotty_ArchitectureBlockImpl$prim_clock_mux2/GenerateStatementBlockImpl$null4/InstantiationBlockImpl$u_impl_generic/BPortImpl$sel_i/label" transform="translate(6, -9) translate(12.859375, 14)" style="cursor:default;font-size:12px;perspective-origin:0px 0px;fill:rgb(48, 48, 48);text-anchor:middle;">sel_i</text></g><g id="sprotty_ArchitectureBlockImpl$prim_clock_mux2/GenerateStatementBlockImpl$null4/InstantiationBlockImpl$u_impl_generic/BPortImpl$clk1_i" transform="translate(0, 66)" class="triangle"><path d="M 0,0 L 5,2.5 L 0,5 Z" transform="translate(-1.67, -2.5)" class="sprotty-port" style="fill:rgb(48, 48, 48);stroke:rgb(48, 48, 48);"/><text class="clickable sprotty-label port" id="sprotty_ArchitectureBlockImpl$prim_clock_mux2/GenerateStatementBlockImpl$null4/InstantiationBlockImpl$u_impl_generic/BPortImpl$clk1_i/label" transform="translate(6, -9) translate(16.421875, 14)" style="cursor:default;font-size:12px;perspective-origin:0px 0px;fill:rgb(48, 48, 48);text-anchor:middle;">clk1_i</text></g><g id="sprotty_ArchitectureBlockImpl$prim_clock_mux2/GenerateStatementBlockImpl$null4/InstantiationBlockImpl$u_impl_generic/BPortImpl$clk0_i" transform="translate(0, 38)" class="triangle"><path d="M 0,0 L 5,2.5 L 0,5 Z" transform="translate(-1.67, -2.5)" class="sprotty-port" style="fill:rgb(48, 48, 48);stroke:rgb(48, 48, 48);"/><text class="clickable sprotty-label port" id="sprotty_ArchitectureBlockImpl$prim_clock_mux2/GenerateStatementBlockImpl$null4/InstantiationBlockImpl$u_impl_generic/BPortImpl$clk0_i/label" transform="translate(6, -9) translate(16.421875, 14)" style="cursor:default;font-size:12px;perspective-origin:0px 0px;fill:rgb(48, 48, 48);text-anchor:middle;">clk0_i</text></g><g id="sprotty_ArchitectureBlockImpl$prim_clock_mux2/GenerateStatementBlockImpl$null4/InstantiationBlockImpl$u_impl_generic/BPortImpl$clk_o" transform="translate(351.59375, 66)" class="triangle"><path d="M 0,0 L 5,2.5 L 0,5 Z" transform="translate(-1.67, -2.5)" class="sprotty-port" style="fill:rgb(48, 48, 48);stroke:rgb(48, 48, 48);"/><text class="clickable sprotty-label port" id="sprotty_ArchitectureBlockImpl$prim_clock_mux2/GenerateStatementBlockImpl$null4/InstantiationBlockImpl$u_impl_generic/BPortImpl$clk_o/label" transform="translate(-36.15625, -9) translate(15.078125, 14)" style="cursor:default;font-size:12px;perspective-origin:0px 0px;fill:rgb(48, 48, 48);text-anchor:middle;">clk_o</text></g></g><g id="sprotty_ArchitectureBlockImpl$prim_clock_mux2/GenerateStatementBlockImpl$null4/InstantiationBlockImpl$u_impl_xilinx" transform="translate(62.6796875, 147)" class="instantiation"><g class="sprotty-block" style="fill:rgb(255, 255, 255);stroke:rgb(48, 48, 48);stroke-dasharray:0px;"><rect x="0" y="0" rx="1" ry="1" width="320.875" height="112"/><text x="160.4375" y="12" class="sprotty-block-name" style="cursor:pointer;font-weight:700;perspective-origin:160.438px 0px;fill:rgb(48, 48, 48);stroke:rgba(0, 0, 0, 0);dominant-baseline:middle;text-anchor:middle;">u_impl_xilinx : prim_xilinx_clock_mux2</text><line x1="0" y1="20" x2="320.875" y2="20"/></g><g id="sprotty_ArchitectureBlockImpl$prim_clock_mux2/GenerateStatementBlockImpl$null4/InstantiationBlockImpl$u_impl_xilinx/BPortImpl$sel_i" transform="translate(0, 94)" class="triangle"><path d="M 0,0 L 5,2.5 L 0,5 Z" transform="translate(-1.67, -2.5)" class="sprotty-port" style="fill:rgb(48, 48, 48);stroke:rgb(48, 48, 48);"/><text class="clickable sprotty-label port" id="sprotty_ArchitectureBlockImpl$prim_clock_mux2/GenerateStatementBlockImpl$null4/InstantiationBlockImpl$u_impl_xilinx/BPortImpl$sel_i/label" transform="translate(6, -9) translate(12.859375, 14)" style="cursor:default;font-size:12px;perspective-origin:0px 0px;fill:rgb(48, 48, 48);text-anchor:middle;">sel_i</text></g><g id="sprotty_ArchitectureBlockImpl$prim_clock_mux2/GenerateStatementBlockImpl$null4/InstantiationBlockImpl$u_impl_xilinx/BPortImpl$clk1_i" transform="translate(0, 66)" class="triangle"><path d="M 0,0 L 5,2.5 L 0,5 Z" transform="translate(-1.67, -2.5)" class="sprotty-port" style="fill:rgb(48, 48, 48);stroke:rgb(48, 48, 48);"/><text class="clickable sprotty-label port" id="sprotty_ArchitectureBlockImpl$prim_clock_mux2/GenerateStatementBlockImpl$null4/InstantiationBlockImpl$u_impl_xilinx/BPortImpl$clk1_i/label" transform="translate(6, -9) translate(16.421875, 14)" style="cursor:default;font-size:12px;perspective-origin:0px 0px;fill:rgb(48, 48, 48);text-anchor:middle;">clk1_i</text></g><g id="sprotty_ArchitectureBlockImpl$prim_clock_mux2/GenerateStatementBlockImpl$null4/InstantiationBlockImpl$u_impl_xilinx/BPortImpl$clk0_i" transform="translate(0, 38)" class="triangle"><path d="M 0,0 L 5,2.5 L 0,5 Z" transform="translate(-1.67, -2.5)" class="sprotty-port" style="fill:rgb(48, 48, 48);stroke:rgb(48, 48, 48);"/><text class="clickable sprotty-label port" id="sprotty_ArchitectureBlockImpl$prim_clock_mux2/GenerateStatementBlockImpl$null4/InstantiationBlockImpl$u_impl_xilinx/BPortImpl$clk0_i/label" transform="translate(6, -9) translate(16.421875, 14)" style="cursor:default;font-size:12px;perspective-origin:0px 0px;fill:rgb(48, 48, 48);text-anchor:middle;">clk0_i</text></g><g id="sprotty_ArchitectureBlockImpl$prim_clock_mux2/GenerateStatementBlockImpl$null4/InstantiationBlockImpl$u_impl_xilinx/BPortImpl$clk_o" transform="translate(320.875, 66)" class="triangle"><path d="M 0,0 L 5,2.5 L 0,5 Z" transform="translate(-1.67, -2.5)" class="sprotty-port" style="fill:rgb(48, 48, 48);stroke:rgb(48, 48, 48);"/><text class="clickable sprotty-label port" id="sprotty_ArchitectureBlockImpl$prim_clock_mux2/GenerateStatementBlockImpl$null4/InstantiationBlockImpl$u_impl_xilinx/BPortImpl$clk_o/label" transform="translate(-36.15625, -9) translate(15.078125, 14)" style="cursor:default;font-size:12px;perspective-origin:0px 0px;fill:rgb(48, 48, 48);text-anchor:middle;">clk_o</text></g></g><g id="sprotty_ArchitectureBlockImpl$prim_clock_mux2/GenerateStatementBlockImpl$null4/GPortImpl$sel_i" transform="translate(0, 109)" class="triangle"><path d="M 0,0 L 5,2.5 L 0,5 Z" transform="translate(-1.67, -2.5)" class="sprotty-port" style="fill:rgb(48, 48, 48);stroke:rgb(48, 48, 48);"/></g><g id="sprotty_ArchitectureBlockImpl$prim_clock_mux2/GenerateStatementBlockImpl$null4/GPortImpl$clk1_i" transform="translate(0, 81)" class="triangle"><path d="M 0,0 L 5,2.5 L 0,5 Z" transform="translate(-1.67, -2.5)" class="sprotty-port" style="fill:rgb(48, 48, 48);stroke:rgb(48, 48, 48);"/></g><g id="sprotty_ArchitectureBlockImpl$prim_clock_mux2/GenerateStatementBlockImpl$null4/GPortImpl$clk0_i" transform="translate(0, 71)" class="triangle"><path d="M 0,0 L 5,2.5 L 0,5 Z" transform="translate(-1.67, -2.5)" class="sprotty-port" style="fill:rgb(48, 48, 48);stroke:rgb(48, 48, 48);"/></g><g id="sprotty_ArchitectureBlockImpl$prim_clock_mux2/GenerateStatementBlockImpl$null4/GPortImpl$clk_o" transform="translate(441.59375, 81)" class="triangle"><path d="M 0,0 L 5,2.5 L 0,5 Z" transform="translate(-1.67, -2.5)" class="sprotty-port" style="fill:rgb(48, 48, 48);stroke:rgb(48, 48, 48);"/></g></g><g id="sprotty_ArchitectureBlockImpl$prim_clock_mux2/BPortImpl$sel_i" transform="translate(0, 150)" class="triangle"><path d="M 0,0 L 5,2.5 L 0,5 Z" transform="translate(-1.67, -2.5)" class="sprotty-port" style="fill:rgb(48, 48, 48);stroke:rgb(48, 48, 48);"/><text class="clickable sprotty-label port" id="sprotty_ArchitectureBlockImpl$prim_clock_mux2/BPortImpl$sel_i/label" transform="translate(6, 6) translate(12.859375, 14)" style="cursor:default;font-size:12px;perspective-origin:0px 0px;fill:rgb(48, 48, 48);text-anchor:middle;">sel_i</text></g><g id="sprotty_ArchitectureBlockImpl$prim_clock_mux2/BPortImpl$clk1_i" transform="translate(0, 116)" class="triangle"><path d="M 0,0 L 5,2.5 L 0,5 Z" transform="translate(-1.67, -2.5)" class="sprotty-port" style="fill:rgb(48, 48, 48);stroke:rgb(48, 48, 48);"/><text class="clickable sprotty-label port" id="sprotty_ArchitectureBlockImpl$prim_clock_mux2/BPortImpl$clk1_i/label" transform="translate(6, 6) translate(16.421875, 14)" style="cursor:default;font-size:12px;perspective-origin:0px 0px;fill:rgb(48, 48, 48);text-anchor:middle;">clk1_i</text></g><g id="sprotty_ArchitectureBlockImpl$prim_clock_mux2/BPortImpl$clk0_i" transform="translate(0, 82)" class="triangle"><path d="M 0,0 L 5,2.5 L 0,5 Z" transform="translate(-1.67, -2.5)" class="sprotty-port" style="fill:rgb(48, 48, 48);stroke:rgb(48, 48, 48);"/><text class="clickable sprotty-label port" id="sprotty_ArchitectureBlockImpl$prim_clock_mux2/BPortImpl$clk0_i/label" transform="translate(6, 6) translate(16.421875, 14)" style="cursor:default;font-size:12px;perspective-origin:0px 0px;fill:rgb(48, 48, 48);text-anchor:middle;">clk0_i</text></g><g id="sprotty_ArchitectureBlockImpl$prim_clock_mux2/BPortImpl$clk_o" transform="translate(566.59375, 116)" class="triangle"><path d="M 0,0 L 5,2.5 L 0,5 Z" transform="translate(-1.67, -2.5)" class="sprotty-port" style="fill:rgb(48, 48, 48);stroke:rgb(48, 48, 48);"/><text class="clickable sprotty-label port" id="sprotty_ArchitectureBlockImpl$prim_clock_mux2/BPortImpl$clk_o/label" transform="translate(-36.15625, 6) translate(15.078125, 14)" style="cursor:default;font-size:12px;perspective-origin:0px 0px;fill:rgb(48, 48, 48);text-anchor:middle;">clk_o</text></g></g></g></svg>