<svg xmlns="http://www.w3.org/2000/svg" id="sprotty_work.tlul_gen_payload_chk" class="sprotty-graph sprotty-block-diagram blockdiagram" style="font-family:&quot;Noto Sans&quot;, Helvetica, Arial, sans-serif;perspective-origin:0px 0px;transform-origin:0px 0px;" version="1.1" viewBox="7 7 458.8125 172" width="458.8125" height="172"><g transform="scale(1) translate(0,0)"><g id="sprotty_ArchitectureBlockImpl$tlul_gen_payload_chk" transform="translate(12, 12)" class="architecture"><g class="sprotty-block" style="fill:rgb(255, 255, 255);stroke:rgb(48, 48, 48);stroke-dasharray:0px;"><rect x="0" y="0" rx="1" ry="1" width="448.8125" height="162"/><text x="224.40625" y="12" class="sprotty-block-name" style="cursor:pointer;font-weight:700;perspective-origin:224.562px 0px;fill:rgb(48, 48, 48);stroke:rgba(0, 0, 0, 0);dominant-baseline:middle;text-anchor:middle;">tlul_gen_payload_chk</text><line x1="0" y1="20" x2="448.8125" y2="20"/></g><g id="sprotty_ArchitectureBlockImpl$tlul_gen_payload_chk/AlwaysBlockImpl$null2/GPortImpl$tl_oOUT_to_ArchitectureBlockImpl$tlul_gen_payload_chk/BPortImpl$tl_o" class="sprotty-edge thick edge" style="fill:none;stroke:rgb(112, 112, 112);stroke-linejoin:round;stroke-width:3px;"><g><path d="M 405.875 123 L 448.8125 123 "/><path d="M 405.875 123 L 448.8125 123 " class="clickable"/></g></g><g id="sprotty_ArchitectureBlockImpl$tlul_gen_payload_chk/BPortImpl$tl_i_to_ArchitectureBlockImpl$tlul_gen_payload_chk/AssignmentBlockImpl$rsp/GPortImpl$tl_iIN" class="sprotty-edge thick edge" style="fill:none;stroke:rgb(112, 112, 112);stroke-linejoin:round;stroke-width:3px;"><g><path d="M 0 59 L 58.96875 59 "/><path d="M 0 59 L 58.96875 59 " class="clickable"/></g></g><g id="sprotty_ArchitectureBlockImpl$tlul_gen_payload_chk/BPortImpl$tl_i_to_ArchitectureBlockImpl$tlul_gen_payload_chk/AlwaysBlockImpl$null2/GPortImpl$tl_iIN" class="sprotty-edge thick edge" style="fill:none;stroke:rgb(112, 112, 112);stroke-linejoin:round;stroke-width:3px;"><g><path d="M 0 59 L 46.96875 59 C 47.96875 59 48.96875 58 48.96875 57 L 48.96875 38 C 48.96875 37 49.96875 36 50.96875 36 L 330.125 36 C 331.125 36 332.125 37 332.125 38 L 332.125 116 C 332.125 117 333.125 118 334.125 118 L 342.125 118 "/><path d="M 0 59 L 46.96875 59 C 47.96875 59 48.96875 58 48.96875 57 L 48.96875 38 C 48.96875 37 49.96875 36 50.96875 36 L 330.125 36 C 331.125 36 332.125 37 332.125 38 L 332.125 116 C 332.125 117 333.125 118 334.125 118 L 342.125 118 " class="clickable"/></g><circle r="3" id="sprotty_ArchitectureBlockImpl$tlul_gen_payload_chk/BPortImpl$tl_i_to_ArchitectureBlockImpl$tlul_gen_payload_chk/AlwaysBlockImpl$null2/GPortImpl$tl_iIN/junction0" transform="translate(48.96875, 59)" class="sprotty-junction thick" style="fill:rgb(112, 112, 112);stroke:none;"/></g><g id="sprotty_ArchitectureBlockImpl$tlul_gen_payload_chk/InstantiationBlockImpl$u_gen/BPortImpl$out_to_ArchitectureBlockImpl$tlul_gen_payload_chk/AlwaysBlockImpl$null2/GPortImpl$chkIN" class="sprotty-edge thick edge" style="fill:none;stroke:rgb(112, 112, 112);stroke-linejoin:round;stroke-width:3px;"><g><path d="M 322.125 128 L 342.125 128 "/><path d="M 322.125 128 L 342.125 128 " class="clickable"/></g></g><g id="sprotty_ArchitectureBlockImpl$tlul_gen_payload_chk/AlwaysBlockImpl$null2" transform="translate(342.125, 108)" class="statement"><rect x="0" y="0" rx="10" ry="5" width="63.75" height="30" class="sprotty-node" style="fill:rgb(245, 245, 245);stroke:rgb(112, 112, 112);"/><text class="clickable sprotty-label statementtype" id="sprotty_ArchitectureBlockImpl$tlul_gen_payload_chk/AlwaysBlockImpl$null2/labeltype" transform="translate(5, 9) translate(26.875, 9)" style="cursor:default;font-size:8px;font-weight:700;perspective-origin:0px 0px;fill:rgb(112, 112, 112);text-anchor:middle;">always_comb</text><g id="sprotty_ArchitectureBlockImpl$tlul_gen_payload_chk/AlwaysBlockImpl$null2/GPortImpl$chkIN" transform="translate(0, 20)" class="sprotty-hidden hidden" style="display:block;height:0px;width:0px;"/><g id="sprotty_ArchitectureBlockImpl$tlul_gen_payload_chk/AlwaysBlockImpl$null2/GPortImpl$tl_iIN" transform="translate(0, 10)" class="sprotty-hidden hidden" style="display:block;height:0px;width:0px;"/><g id="sprotty_ArchitectureBlockImpl$tlul_gen_payload_chk/AlwaysBlockImpl$null2/GPortImpl$tl_oOUT" transform="translate(63.75, 15)" class="sprotty-hidden hidden" style="display:block;height:0px;width:0px;"/></g><g id="sprotty_ArchitectureBlockImpl$tlul_gen_payload_chk/AssignmentBlockImpl$rsp" transform="translate(58.96875, 48)" class="statement"><rect x="0" y="0" rx="10" ry="5" width="19.71875" height="22" class="sprotty-node" style="fill:rgb(245, 245, 245);stroke:rgb(112, 112, 112);"/><text class="clickable sprotty-label statementtype" id="sprotty_ArchitectureBlockImpl$tlul_gen_payload_chk/AssignmentBlockImpl$rsp/labeltype" transform="translate(5, 5) translate(4.71875, 9)" style="cursor:default;font-size:8px;font-weight:700;perspective-origin:0.140625px 0px;fill:rgb(112, 112, 112);text-anchor:middle;">&lt;=</text><g id="sprotty_ArchitectureBlockImpl$tlul_gen_payload_chk/AssignmentBlockImpl$rsp/GPortImpl$tl_iIN" transform="translate(0, 11)" class="sprotty-hidden hidden" style="display:block;height:0px;width:0px;"/></g><g id="sprotty_ArchitectureBlockImpl$tlul_gen_payload_chk/InstantiationBlockImpl$u_gen" transform="translate(58.96875, 90)" class="instantiation"><g class="sprotty-block" style="fill:rgb(255, 255, 255);stroke:rgb(48, 48, 48);stroke-dasharray:0px;"><rect x="0" y="0" rx="1" ry="1" width="263.15625" height="56"/><text x="131.578125" y="12" class="sprotty-block-name" style="cursor:pointer;font-weight:700;perspective-origin:131.578px 0px;fill:rgb(48, 48, 48);stroke:rgba(0, 0, 0, 0);dominant-baseline:middle;text-anchor:middle;">u_gen : prim_secded_64_57_enc</text><line x1="0" y1="20" x2="263.15625" y2="20"/></g><g id="sprotty_ArchitectureBlockImpl$tlul_gen_payload_chk/InstantiationBlockImpl$u_gen/BPortImpl$in" transform="translate(0, 38)" class="triangle"><path d="M 0,0 L 5,2.5 L 0,5 Z" transform="translate(-1.67, -2.5)" class="sprotty-port" style="fill:rgb(48, 48, 48);stroke:rgb(48, 48, 48);"/><text class="clickable sprotty-label port" id="sprotty_ArchitectureBlockImpl$tlul_gen_payload_chk/InstantiationBlockImpl$u_gen/BPortImpl$in/label" transform="translate(6, -9) translate(5.328125, 14)" style="cursor:default;font-size:12px;perspective-origin:0px 0px;fill:rgb(48, 48, 48);text-anchor:middle;">in</text></g><g id="sprotty_ArchitectureBlockImpl$tlul_gen_payload_chk/InstantiationBlockImpl$u_gen/BPortImpl$out" transform="translate(263.15625, 38)" class="triangle"><path d="M 0,0 L 5,2.5 L 0,5 Z" transform="translate(-1.67, -2.5)" class="sprotty-port" style="fill:rgb(48, 48, 48);stroke:rgb(48, 48, 48);"/><text class="clickable sprotty-label port" id="sprotty_ArchitectureBlockImpl$tlul_gen_payload_chk/InstantiationBlockImpl$u_gen/BPortImpl$out/label" transform="translate(-25.578125, -9) translate(9.546875, 14)" style="cursor:default;font-size:12px;perspective-origin:0.234375px 0px;fill:rgb(48, 48, 48);text-anchor:middle;">out</text></g></g><g id="sprotty_ArchitectureBlockImpl$tlul_gen_payload_chk/BPortImpl$tl_i" transform="translate(0, 59)" class="triangle"><path d="M 0,0 L 5,2.5 L 0,5 Z" transform="translate(-1.67, -2.5)" class="sprotty-port" style="fill:rgb(48, 48, 48);stroke:rgb(48, 48, 48);"/><text class="clickable sprotty-label port" id="sprotty_ArchitectureBlockImpl$tlul_gen_payload_chk/BPortImpl$tl_i/label" transform="translate(6, 6) translate(8.984375, 14)" style="cursor:default;font-size:12px;perspective-origin:0px 0px;fill:rgb(48, 48, 48);text-anchor:middle;">tl_i</text></g><g id="sprotty_ArchitectureBlockImpl$tlul_gen_payload_chk/BPortImpl$tl_o" transform="translate(448.8125, 123)" class="triangle"><path d="M 0,0 L 5,2.5 L 0,5 Z" transform="translate(-1.67, -2.5)" class="sprotty-port" style="fill:rgb(48, 48, 48);stroke:rgb(48, 48, 48);"/><text class="clickable sprotty-label port" id="sprotty_ArchitectureBlockImpl$tlul_gen_payload_chk/BPortImpl$tl_o/label" transform="translate(-27.9375, 6) translate(10.96875, 14)" style="cursor:default;font-size:12px;perspective-origin:0px 0px;fill:rgb(48, 48, 48);text-anchor:middle;">tl_o</text></g></g></g></svg>