<svg xmlns="http://www.w3.org/2000/svg" id="sprotty_work.flash_phy_erase" class="sprotty-graph sprotty-block-diagram blockdiagram" style="font-family:&quot;Noto Sans&quot;, Helvetica, Arial, sans-serif;perspective-origin:0px 0px;transform-origin:0px 0px;" version="1.1" viewBox="7 7 470.828125 255" width="470.828125" height="255"><g transform="scale(1) translate(0,0)"><g id="sprotty_ArchitectureBlockImpl$flash_phy_erase" transform="translate(12, 12)" class="architecture"><g class="sprotty-block" style="fill:rgb(255, 255, 255);stroke:rgb(48, 48, 48);stroke-dasharray:0px;"><rect x="0" y="0" rx="1" ry="1" width="460.828125" height="245"/><text x="230.4140625" y="12" class="sprotty-block-name" style="cursor:pointer;font-weight:700;perspective-origin:230.406px 0px;fill:rgb(48, 48, 48);stroke:rgba(0, 0, 0, 0);dominant-baseline:middle;text-anchor:middle;">flash_phy_erase</text><line x1="0" y1="20" x2="460.828125" y2="20"/></g><g id="sprotty_ArchitectureBlockImpl$flash_phy_erase/AlwaysBlockImpl$null9/GPortImpl$ack_oOUT_to_ArchitectureBlockImpl$flash_phy_erase/BPortImpl$ack_o" class="sprotty-edge edge" style="fill:none;stroke:rgb(112, 112, 112);stroke-linejoin:round;"><g><path d="M 279.890625 114 L 460.828125 114 "/><path d="M 279.890625 114 L 460.828125 114 " class="clickable"/></g></g><g id="sprotty_ArchitectureBlockImpl$flash_phy_erase/AssignmentBlockImpl$pg_erase_req_o/GPortImpl$pg_erase_req_oOUT_to_ArchitectureBlockImpl$flash_phy_erase/BPortImpl$pg_erase_req_o" class="sprotty-edge edge" style="fill:none;stroke:rgb(112, 112, 112);stroke-linejoin:round;"><g><path d="M 329.609375 201 L 460.828125 201 "/><path d="M 329.609375 201 L 460.828125 201 " class="clickable"/></g></g><g id="sprotty_ArchitectureBlockImpl$flash_phy_erase/AssignmentBlockImpl$bk_erase_req_o/GPortImpl$bk_erase_req_oOUT_to_ArchitectureBlockImpl$flash_phy_erase/BPortImpl$bk_erase_req_o" class="sprotty-edge edge" style="fill:none;stroke:rgb(112, 112, 112);stroke-linejoin:round;"><g><path d="M 329.609375 148 L 460.828125 148 "/><path d="M 329.609375 148 L 460.828125 148 " class="clickable"/></g></g><g id="sprotty_ArchitectureBlockImpl$flash_phy_erase/BPortImpl$pg_erase_req_i_to_ArchitectureBlockImpl$flash_phy_erase/AssignmentBlockImpl$pg_erase_req_o/GPortImpl$pg_erase_req_iIN" class="sprotty-edge edge" style="fill:none;stroke:rgb(112, 112, 112);stroke-linejoin:round;"><g><path d="M 0 206 L 309.890625 206 "/><path d="M 0 206 L 309.890625 206 " class="clickable"/></g></g><g id="sprotty_ArchitectureBlockImpl$flash_phy_erase/BPortImpl$bk_erase_req_i_to_ArchitectureBlockImpl$flash_phy_erase/AssignmentBlockImpl$bk_erase_req_o/GPortImpl$bk_erase_req_iIN" class="sprotty-edge edge" style="fill:none;stroke:rgb(112, 112, 112);stroke-linejoin:round;"><g><path d="M 0 36 L 297.890625 36 C 298.890625 36 299.890625 37 299.890625 38 L 299.890625 141 C 299.890625 142 300.890625 143 301.890625 143 L 309.890625 143 "/><path d="M 0 36 L 297.890625 36 C 298.890625 36 299.890625 37 299.890625 38 L 299.890625 141 C 299.890625 142 300.890625 143 301.890625 143 L 309.890625 143 " class="clickable"/></g></g><g id="sprotty_ArchitectureBlockImpl$flash_phy_erase/BPortImpl$clk_i_to_ArchitectureBlockImpl$flash_phy_erase/AlwaysBlockImpl$null10/GPortImpl$clk_iIN" class="sprotty-edge edge" style="fill:none;stroke:rgb(112, 112, 112);stroke-linejoin:round;"><g><path d="M 0 104 L 127.25 104 "/><path d="M 0 104 L 127.25 104 " class="clickable"/></g></g><g id="sprotty_ArchitectureBlockImpl$flash_phy_erase/BPortImpl$rst_ni_to_ArchitectureBlockImpl$flash_phy_erase/AlwaysBlockImpl$null10/GPortImpl$rst_niIN" class="sprotty-edge edge" style="fill:none;stroke:rgb(112, 112, 112);stroke-linejoin:round;"><g><path d="M 0 138 L 115.25 138 C 116.25 138 117.25 137 117.25 136 L 117.25 116 C 117.25 115 118.25 114 119.25 114 L 127.25 114 "/><path d="M 0 138 L 115.25 138 C 116.25 138 117.25 137 117.25 136 L 117.25 116 C 117.25 115 118.25 114 119.25 114 L 127.25 114 " class="clickable"/></g></g><g id="sprotty_ArchitectureBlockImpl$flash_phy_erase/BPortImpl$pg_erase_req_o_to_ArchitectureBlockImpl$flash_phy_erase/AlwaysBlockImpl$null9/GPortImpl$pg_erase_req_oIN" class="sprotty-edge edge" style="fill:none;stroke:rgb(112, 112, 112);stroke-linejoin:round;"><g><path d="M 460.828125 201 L 341.609375 201 C 340.609375 201 339.609375 202 339.609375 203 L 339.609375 225 C 339.609375 226 338.609375 227 337.609375 227 L 198.140625 227 C 197.140625 227 196.140625 226 196.140625 225 L 196.140625 126 C 196.140625 125 197.140625 124 198.140625 124 L 216.140625 124 "/><path d="M 460.828125 201 L 341.609375 201 C 340.609375 201 339.609375 202 339.609375 203 L 339.609375 225 C 339.609375 226 338.609375 227 337.609375 227 L 198.140625 227 C 197.140625 227 196.140625 226 196.140625 225 L 196.140625 126 C 196.140625 125 197.140625 124 198.140625 124 L 216.140625 124 " class="clickable"/></g><circle r="2" id="sprotty_ArchitectureBlockImpl$flash_phy_erase/BPortImpl$pg_erase_req_o_to_ArchitectureBlockImpl$flash_phy_erase/AlwaysBlockImpl$null9/GPortImpl$pg_erase_req_oIN/junction0" transform="translate(339.609375, 201)" class="sprotty-junction junction" style="fill:rgb(112, 112, 112);stroke:none;"/></g><g id="sprotty_ArchitectureBlockImpl$flash_phy_erase/BPortImpl$bk_erase_req_o_to_ArchitectureBlockImpl$flash_phy_erase/AlwaysBlockImpl$null9/GPortImpl$bk_erase_req_oIN" class="sprotty-edge edge" style="fill:none;stroke:rgb(112, 112, 112);stroke-linejoin:round;"><g><path d="M 460.828125 148 L 341.609375 148 C 340.609375 148 339.609375 149 339.609375 150 L 339.609375 172 C 339.609375 173 338.609375 174 337.609375 174 L 208.140625 174 C 207.140625 174 206.140625 173 206.140625 172 L 206.140625 136 C 206.140625 135 207.140625 134 208.140625 134 L 216.140625 134 "/><path d="M 460.828125 148 L 341.609375 148 C 340.609375 148 339.609375 149 339.609375 150 L 339.609375 172 C 339.609375 173 338.609375 174 337.609375 174 L 208.140625 174 C 207.140625 174 206.140625 173 206.140625 172 L 206.140625 136 C 206.140625 135 207.140625 134 208.140625 134 L 216.140625 134 " class="clickable"/></g><circle r="2" id="sprotty_ArchitectureBlockImpl$flash_phy_erase/BPortImpl$bk_erase_req_o_to_ArchitectureBlockImpl$flash_phy_erase/AlwaysBlockImpl$null9/GPortImpl$bk_erase_req_oIN/junction0" transform="translate(339.609375, 148)" class="sprotty-junction junction" style="fill:rgb(112, 112, 112);stroke:none;"/></g><g id="sprotty_ArchitectureBlockImpl$flash_phy_erase/BPortImpl$ack_i_to_ArchitectureBlockImpl$flash_phy_erase/AlwaysBlockImpl$null9/GPortImpl$ack_iIN" class="sprotty-edge edge" style="fill:none;stroke:rgb(112, 112, 112);stroke-linejoin:round;"><g><path d="M 0 172 L 184.140625 172 C 185.140625 172 186.140625 171 186.140625 170 L 186.140625 116 C 186.140625 115 187.140625 114 188.140625 114 L 216.140625 114 "/><path d="M 0 172 L 184.140625 172 C 185.140625 172 186.140625 171 186.140625 170 L 186.140625 116 C 186.140625 115 187.140625 114 188.140625 114 L 216.140625 114 " class="clickable"/></g></g><g id="sprotty_ArchitectureBlockImpl$flash_phy_erase/BPortImpl$done_i_to_ArchitectureBlockImpl$flash_phy_erase/AlwaysBlockImpl$null9/GPortImpl$done_iIN" class="sprotty-edge edge" style="fill:none;stroke:rgb(112, 112, 112);stroke-linejoin:round;"><g><path d="M 0 70 L 184.140625 70 C 185.140625 70 186.140625 71 186.140625 72 L 186.140625 92 C 186.140625 93 187.140625 94 188.140625 94 L 216.140625 94 "/><path d="M 0 70 L 184.140625 70 C 185.140625 70 186.140625 71 186.140625 72 L 186.140625 92 C 186.140625 93 187.140625 94 188.140625 94 L 216.140625 94 " class="clickable"/></g></g><g id="sprotty_ArchitectureBlockImpl$flash_phy_erase/AlwaysBlockImpl$null9/GPortImpl$state_dOUT_to_ArchitectureBlockImpl$flash_phy_erase/AlwaysBlockImpl$null10/GPortImpl$state_dIN" class="sprotty-edge thick edge" style="fill:none;stroke:rgb(112, 112, 112);stroke-linejoin:round;stroke-width:3px;"><g><path d="M 279.890625 99 L 287.890625 99 C 288.890625 99 289.890625 98 289.890625 97 L 289.890625 64 C 289.890625 63 288.890625 62 287.890625 62 L 119.25 62 C 118.25 62 117.25 63 117.25 64 L 117.25 92 C 117.25 93 118.25 94 119.25 94 L 127.25 94 "/><path d="M 279.890625 99 L 287.890625 99 C 288.890625 99 289.890625 98 289.890625 97 L 289.890625 64 C 289.890625 63 288.890625 62 287.890625 62 L 119.25 62 C 118.25 62 117.25 63 117.25 64 L 117.25 92 C 117.25 93 118.25 94 119.25 94 L 127.25 94 " class="clickable"/></g></g><g id="sprotty_ArchitectureBlockImpl$flash_phy_erase/AlwaysBlockImpl$null10/GPortImpl$state_qOUT_to_ArchitectureBlockImpl$flash_phy_erase/AlwaysBlockImpl$null9/GPortImpl$state_qIN" class="sprotty-edge thick edge" style="fill:none;stroke:rgb(112, 112, 112);stroke-linejoin:round;stroke-width:3px;"><g><path d="M 176.140625 104 L 216.140625 104 "/><path d="M 176.140625 104 L 216.140625 104 " class="clickable"/></g></g><g id="sprotty_ArchitectureBlockImpl$flash_phy_erase/AlwaysBlockImpl$null9/GPortImpl$req_validOUT_to_ArchitectureBlockImpl$flash_phy_erase/AssignmentBlockImpl$pg_erase_req_o/GPortImpl$req_validIN" class="sprotty-edge edge" style="fill:none;stroke:rgb(112, 112, 112);stroke-linejoin:round;"><g><path d="M 279.890625 129 L 287.890625 129 C 288.890625 129 289.890625 130 289.890625 131 L 289.890625 194 C 289.890625 195 290.890625 196 291.890625 196 L 309.890625 196 "/><path d="M 279.890625 129 L 287.890625 129 C 288.890625 129 289.890625 130 289.890625 131 L 289.890625 194 C 289.890625 195 290.890625 196 291.890625 196 L 309.890625 196 " class="clickable"/></g></g><g id="sprotty_ArchitectureBlockImpl$flash_phy_erase/AlwaysBlockImpl$null9/GPortImpl$req_validOUT_to_ArchitectureBlockImpl$flash_phy_erase/AssignmentBlockImpl$bk_erase_req_o/GPortImpl$req_validIN" class="sprotty-edge edge" style="fill:none;stroke:rgb(112, 112, 112);stroke-linejoin:round;"><g><path d="M 279.890625 129 L 287.890625 129 C 288.890625 129 289.890625 130 289.890625 131 L 289.890625 151 C 289.890625 152 290.890625 153 291.890625 153 L 309.890625 153 "/><path d="M 279.890625 129 L 287.890625 129 C 288.890625 129 289.890625 130 289.890625 131 L 289.890625 151 C 289.890625 152 290.890625 153 291.890625 153 L 309.890625 153 " class="clickable"/></g><circle r="2" id="sprotty_ArchitectureBlockImpl$flash_phy_erase/AlwaysBlockImpl$null9/GPortImpl$req_validOUT_to_ArchitectureBlockImpl$flash_phy_erase/AssignmentBlockImpl$bk_erase_req_o/GPortImpl$req_validIN/junction0" transform="translate(289.890625, 153)" class="sprotty-junction junction" style="fill:rgb(112, 112, 112);stroke:none;"/></g><g id="sprotty_ArchitectureBlockImpl$flash_phy_erase/AlwaysBlockImpl$null9" transform="translate(216.140625, 84)" class="statement"><rect x="0" y="0" rx="10" ry="5" width="63.75" height="60" class="sprotty-node" style="fill:rgb(245, 245, 245);stroke:rgb(112, 112, 112);"/><text class="clickable sprotty-label statementtype" id="sprotty_ArchitectureBlockImpl$flash_phy_erase/AlwaysBlockImpl$null9/labeltype" transform="translate(5, 24) translate(26.875, 9)" style="cursor:default;font-size:8px;font-weight:700;perspective-origin:0px 0px;fill:rgb(112, 112, 112);text-anchor:middle;">always_comb</text><g id="sprotty_ArchitectureBlockImpl$flash_phy_erase/AlwaysBlockImpl$null9/GPortImpl$done_iIN" transform="translate(0, 10)" class="sprotty-hidden hidden" style="display:block;height:0px;width:0px;"/><g id="sprotty_ArchitectureBlockImpl$flash_phy_erase/AlwaysBlockImpl$null9/GPortImpl$ack_iIN" transform="translate(0, 30)" class="sprotty-hidden hidden" style="display:block;height:0px;width:0px;"/><g id="sprotty_ArchitectureBlockImpl$flash_phy_erase/AlwaysBlockImpl$null9/GPortImpl$bk_erase_req_oIN" transform="translate(0, 50)" class="sprotty-hidden hidden" style="display:block;height:0px;width:0px;"/><g id="sprotty_ArchitectureBlockImpl$flash_phy_erase/AlwaysBlockImpl$null9/GPortImpl$pg_erase_req_oIN" transform="translate(0, 40)" class="sprotty-hidden hidden" style="display:block;height:0px;width:0px;"/><g id="sprotty_ArchitectureBlockImpl$flash_phy_erase/AlwaysBlockImpl$null9/GPortImpl$state_qIN" transform="translate(0, 20)" class="sprotty-hidden hidden" style="display:block;height:0px;width:0px;"/><g id="sprotty_ArchitectureBlockImpl$flash_phy_erase/AlwaysBlockImpl$null9/GPortImpl$req_validOUT" transform="translate(63.75, 45)" class="sprotty-hidden hidden" style="display:block;height:0px;width:0px;"/><g id="sprotty_ArchitectureBlockImpl$flash_phy_erase/AlwaysBlockImpl$null9/GPortImpl$ack_oOUT" transform="translate(63.75, 30)" class="sprotty-hidden hidden" style="display:block;height:0px;width:0px;"/><g id="sprotty_ArchitectureBlockImpl$flash_phy_erase/AlwaysBlockImpl$null9/GPortImpl$state_dOUT" transform="translate(63.75, 15)" class="sprotty-hidden hidden" style="display:block;height:0px;width:0px;"/></g><g id="sprotty_ArchitectureBlockImpl$flash_phy_erase/AlwaysBlockImpl$null10" transform="translate(127.25, 84)" class="statement"><rect x="0" y="0" rx="10" ry="5" width="48.890625" height="40" class="sprotty-node" style="fill:rgb(245, 245, 245);stroke:rgb(112, 112, 112);"/><text class="clickable sprotty-label statementtype" id="sprotty_ArchitectureBlockImpl$flash_phy_erase/AlwaysBlockImpl$null10/labeltype" transform="translate(5, 14) translate(18.828125, 9)" style="cursor:default;font-size:8px;font-weight:700;perspective-origin:0.609375px 0px;fill:rgb(112, 112, 112);text-anchor:middle;">always_ff</text><g id="sprotty_ArchitectureBlockImpl$flash_phy_erase/AlwaysBlockImpl$null10/GPortImpl$state_dIN" transform="translate(0, 10)" class="sprotty-hidden hidden" style="display:block;height:0px;width:0px;"/><g id="sprotty_ArchitectureBlockImpl$flash_phy_erase/AlwaysBlockImpl$null10/GPortImpl$rst_niIN" transform="translate(0, 30)" class="sprotty-hidden hidden" style="display:block;height:0px;width:0px;"/><g id="sprotty_ArchitectureBlockImpl$flash_phy_erase/AlwaysBlockImpl$null10/GPortImpl$clk_iIN" transform="translate(0, 20)" class="sprotty-hidden hidden" style="display:block;height:0px;width:0px;"/><g id="sprotty_ArchitectureBlockImpl$flash_phy_erase/AlwaysBlockImpl$null10/GPortImpl$state_qOUT" transform="translate(48.890625, 20)" class="sprotty-hidden hidden" style="display:block;height:0px;width:0px;"/></g><g id="sprotty_ArchitectureBlockImpl$flash_phy_erase/AssignmentBlockImpl$bk_erase_req_o" transform="translate(309.890625, 133)" class="statement"><rect x="0" y="0" rx="10" ry="5" width="19.71875" height="30" class="sprotty-node" style="fill:rgb(245, 245, 245);stroke:rgb(112, 112, 112);"/><text class="clickable sprotty-label statementtype" id="sprotty_ArchitectureBlockImpl$flash_phy_erase/AssignmentBlockImpl$bk_erase_req_o/labeltype" transform="translate(5, 9) translate(4.71875, 9)" style="cursor:default;font-size:8px;font-weight:700;perspective-origin:0.140625px 0px;fill:rgb(112, 112, 112);text-anchor:middle;">&lt;=</text><g id="sprotty_ArchitectureBlockImpl$flash_phy_erase/AssignmentBlockImpl$bk_erase_req_o/GPortImpl$req_validIN" transform="translate(0, 20)" class="sprotty-hidden hidden" style="display:block;height:0px;width:0px;"/><g id="sprotty_ArchitectureBlockImpl$flash_phy_erase/AssignmentBlockImpl$bk_erase_req_o/GPortImpl$bk_erase_req_iIN" transform="translate(0, 10)" class="sprotty-hidden hidden" style="display:block;height:0px;width:0px;"/><g id="sprotty_ArchitectureBlockImpl$flash_phy_erase/AssignmentBlockImpl$bk_erase_req_o/GPortImpl$bk_erase_req_oOUT" transform="translate(19.71875, 15)" class="sprotty-hidden hidden" style="display:block;height:0px;width:0px;"/></g><g id="sprotty_ArchitectureBlockImpl$flash_phy_erase/AssignmentBlockImpl$pg_erase_req_o" transform="translate(309.890625, 186)" class="statement"><rect x="0" y="0" rx="10" ry="5" width="19.71875" height="30" class="sprotty-node" style="fill:rgb(245, 245, 245);stroke:rgb(112, 112, 112);"/><text class="clickable sprotty-label statementtype" id="sprotty_ArchitectureBlockImpl$flash_phy_erase/AssignmentBlockImpl$pg_erase_req_o/labeltype" transform="translate(5, 9) translate(4.71875, 9)" style="cursor:default;font-size:8px;font-weight:700;perspective-origin:0.140625px 0px;fill:rgb(112, 112, 112);text-anchor:middle;">&lt;=</text><g id="sprotty_ArchitectureBlockImpl$flash_phy_erase/AssignmentBlockImpl$pg_erase_req_o/GPortImpl$req_validIN" transform="translate(0, 10)" class="sprotty-hidden hidden" style="display:block;height:0px;width:0px;"/><g id="sprotty_ArchitectureBlockImpl$flash_phy_erase/AssignmentBlockImpl$pg_erase_req_o/GPortImpl$pg_erase_req_iIN" transform="translate(0, 20)" class="sprotty-hidden hidden" style="display:block;height:0px;width:0px;"/><g id="sprotty_ArchitectureBlockImpl$flash_phy_erase/AssignmentBlockImpl$pg_erase_req_o/GPortImpl$pg_erase_req_oOUT" transform="translate(19.71875, 15)" class="sprotty-hidden hidden" style="display:block;height:0px;width:0px;"/></g><g id="sprotty_ArchitectureBlockImpl$flash_phy_erase/BPortImpl$done_i" transform="translate(0, 70)" class="triangle"><path d="M 0,0 L 5,2.5 L 0,5 Z" transform="translate(-1.67, -2.5)" class="sprotty-port" style="fill:rgb(48, 48, 48);stroke:rgb(48, 48, 48);"/><text class="clickable sprotty-label port" id="sprotty_ArchitectureBlockImpl$flash_phy_erase/BPortImpl$done_i/label" transform="translate(6, 6) translate(19.359375, 14)" style="cursor:default;font-size:12px;perspective-origin:0px 0px;fill:rgb(48, 48, 48);text-anchor:middle;">done_i</text></g><g id="sprotty_ArchitectureBlockImpl$flash_phy_erase/BPortImpl$ack_i" transform="translate(0, 172)" class="triangle"><path d="M 0,0 L 5,2.5 L 0,5 Z" transform="translate(-1.67, -2.5)" class="sprotty-port" style="fill:rgb(48, 48, 48);stroke:rgb(48, 48, 48);"/><text class="clickable sprotty-label port" id="sprotty_ArchitectureBlockImpl$flash_phy_erase/BPortImpl$ack_i/label" transform="translate(6, 6) translate(14.765625, 14)" style="cursor:default;font-size:12px;perspective-origin:0px 0px;fill:rgb(48, 48, 48);text-anchor:middle;">ack_i</text></g><g id="sprotty_ArchitectureBlockImpl$flash_phy_erase/BPortImpl$bk_erase_req_i" transform="translate(0, 36)" class="triangle"><path d="M 0,0 L 5,2.5 L 0,5 Z" transform="translate(-1.67, -2.5)" class="sprotty-port" style="fill:rgb(48, 48, 48);stroke:rgb(48, 48, 48);"/><text class="clickable sprotty-label port" id="sprotty_ArchitectureBlockImpl$flash_phy_erase/BPortImpl$bk_erase_req_i/label" transform="translate(6, 6) translate(43.046875, 14)" style="cursor:default;font-size:12px;perspective-origin:0px 0px;fill:rgb(48, 48, 48);text-anchor:middle;">bk_erase_req_i</text></g><g id="sprotty_ArchitectureBlockImpl$flash_phy_erase/BPortImpl$pg_erase_req_i" transform="translate(0, 206)" class="triangle"><path d="M 0,0 L 5,2.5 L 0,5 Z" transform="translate(-1.67, -2.5)" class="sprotty-port" style="fill:rgb(48, 48, 48);stroke:rgb(48, 48, 48);"/><text class="clickable sprotty-label port" id="sprotty_ArchitectureBlockImpl$flash_phy_erase/BPortImpl$pg_erase_req_i/label" transform="translate(6, 6) translate(43.125, 14)" style="cursor:default;font-size:12px;perspective-origin:0px 0px;fill:rgb(48, 48, 48);text-anchor:middle;">pg_erase_req_i</text></g><g id="sprotty_ArchitectureBlockImpl$flash_phy_erase/BPortImpl$rst_ni" transform="translate(0, 138)" class="triangle"><path d="M 0,0 L 5,2.5 L 0,5 Z" transform="translate(-1.67, -2.5)" class="sprotty-port" style="fill:rgb(48, 48, 48);stroke:rgb(48, 48, 48);"/><text class="clickable sprotty-label port" id="sprotty_ArchitectureBlockImpl$flash_phy_erase/BPortImpl$rst_ni/label" transform="translate(6, 6) translate(15.921875, 14)" style="cursor:default;font-size:12px;perspective-origin:0px 0px;fill:rgb(48, 48, 48);text-anchor:middle;">rst_ni</text></g><g id="sprotty_ArchitectureBlockImpl$flash_phy_erase/BPortImpl$clk_i" transform="translate(0, 104)" class="triangle"><path d="M 0,0 L 5,2.5 L 0,5 Z" transform="translate(-1.67, -2.5)" class="sprotty-port" style="fill:rgb(48, 48, 48);stroke:rgb(48, 48, 48);"/><text class="clickable sprotty-label port" id="sprotty_ArchitectureBlockImpl$flash_phy_erase/BPortImpl$clk_i/label" transform="translate(6, 6) translate(13.09375, 14)" style="cursor:default;font-size:12px;perspective-origin:0px 0px;fill:rgb(48, 48, 48);text-anchor:middle;">clk_i</text></g><g id="sprotty_ArchitectureBlockImpl$flash_phy_erase/BPortImpl$ack_o" transform="translate(460.828125, 114)" class="triangle"><path d="M 0,0 L 5,2.5 L 0,5 Z" transform="translate(-1.67, -2.5)" class="sprotty-port" style="fill:rgb(48, 48, 48);stroke:rgb(48, 48, 48);"/><text class="clickable sprotty-label port" id="sprotty_ArchitectureBlockImpl$flash_phy_erase/BPortImpl$ack_o/label" transform="translate(-39.5, 6) translate(16.75, 14)" style="cursor:default;font-size:12px;perspective-origin:0px 0px;fill:rgb(48, 48, 48);text-anchor:middle;">ack_o</text></g><g id="sprotty_ArchitectureBlockImpl$flash_phy_erase/BPortImpl$pg_erase_req_o" transform="translate(460.828125, 201)" class="triangle"><path d="M 0,0 L 5,2.5 L 0,5 Z" transform="translate(-1.67, -2.5)" class="sprotty-port" style="fill:rgb(48, 48, 48);stroke:rgb(48, 48, 48);"/><text class="clickable sprotty-label port" id="sprotty_ArchitectureBlockImpl$flash_phy_erase/BPortImpl$pg_erase_req_o/label" transform="translate(-96.21875, 6) translate(45.109375, 14)" style="cursor:default;font-size:12px;perspective-origin:0px 0px;fill:rgb(48, 48, 48);text-anchor:middle;">pg_erase_req_o</text></g><g id="sprotty_ArchitectureBlockImpl$flash_phy_erase/BPortImpl$bk_erase_req_o" transform="translate(460.828125, 148)" class="triangle"><path d="M 0,0 L 5,2.5 L 0,5 Z" transform="translate(-1.67, -2.5)" class="sprotty-port" style="fill:rgb(48, 48, 48);stroke:rgb(48, 48, 48);"/><text class="clickable sprotty-label port" id="sprotty_ArchitectureBlockImpl$flash_phy_erase/BPortImpl$bk_erase_req_o/label" transform="translate(-96.0625, 6) translate(45.03125, 14)" style="cursor:default;font-size:12px;perspective-origin:0px 0px;fill:rgb(48, 48, 48);text-anchor:middle;">bk_erase_req_o</text></g></g></g></svg>