<svg xmlns="http://www.w3.org/2000/svg" id="sprotty_work.usbdev_flop_2syncpulse" class="sprotty-graph sprotty-block-diagram blockdiagram" style="font-family:&quot;Noto Sans&quot;, Helvetica, Arial, sans-serif;perspective-origin:0px 0px;transform-origin:0px 0px;" version="1.1" viewBox="7 7 528.859375 216" width="528.859375" height="216"><g transform="scale(1) translate(0,0)"><g id="sprotty_ArchitectureBlockImpl$usbdev_flop_2syncpulse" transform="translate(12, 12)" class="architecture"><g class="sprotty-block" style="fill:rgb(255, 255, 255);stroke:rgb(48, 48, 48);stroke-dasharray:0px;"><rect x="0" y="0" rx="1" ry="1" width="518.859375" height="206"/><text x="259.4296875" y="12" class="sprotty-block-name" style="cursor:pointer;font-weight:700;perspective-origin:259.422px 0px;fill:rgb(48, 48, 48);stroke:rgba(0, 0, 0, 0);dominant-baseline:middle;text-anchor:middle;">usbdev_flop_2syncpulse</text><line x1="0" y1="20" x2="518.859375" y2="20"/></g><g id="sprotty_ArchitectureBlockImpl$usbdev_flop_2syncpulse/AssignmentBlockImpl$q_o/GPortImpl$q_oOUT_to_ArchitectureBlockImpl$usbdev_flop_2syncpulse/BPortImpl$q_o" class="sprotty-edge thick edge" style="fill:none;stroke:rgb(112, 112, 112);stroke-linejoin:round;stroke-width:3px;"><g><path d="M 476.421875 128 L 518.859375 128 "/><path d="M 476.421875 128 L 518.859375 128 " class="clickable"/></g></g><g id="sprotty_ArchitectureBlockImpl$usbdev_flop_2syncpulse/BPortImpl$clk_i_to_ArchitectureBlockImpl$usbdev_flop_2syncpulse/InstantiationBlockImpl$prim_flop_2sync/BPortImpl$clk_i" class="sprotty-edge edge" style="fill:none;stroke:rgb(112, 112, 112);stroke-linejoin:round;"><g><path d="M 0 45 L 70.84375 45 C 71.84375 45 72.84375 46 72.84375 47 L 72.84375 103 C 72.84375 104 73.84375 105 74.84375 105 L 82.84375 105 "/><path d="M 0 45 L 70.84375 45 C 71.84375 45 72.84375 46 72.84375 47 L 72.84375 103 C 72.84375 104 73.84375 105 74.84375 105 L 82.84375 105 " class="clickable"/></g><circle r="2" id="sprotty_ArchitectureBlockImpl$usbdev_flop_2syncpulse/BPortImpl$clk_i_to_ArchitectureBlockImpl$usbdev_flop_2syncpulse/InstantiationBlockImpl$prim_flop_2sync/BPortImpl$clk_i/junction0" transform="translate(72.84375, 45)" class="sprotty-junction junction" style="fill:rgb(112, 112, 112);stroke:none;"/></g><g id="sprotty_ArchitectureBlockImpl$usbdev_flop_2syncpulse/BPortImpl$rst_ni_to_ArchitectureBlockImpl$usbdev_flop_2syncpulse/InstantiationBlockImpl$prim_flop_2sync/BPortImpl$rst_ni" class="sprotty-edge edge" style="fill:none;stroke:rgb(112, 112, 112);stroke-linejoin:round;"><g><path d="M 0 133 L 82.84375 133 "/><path d="M 0 133 L 82.84375 133 " class="clickable"/></g></g><g id="sprotty_ArchitectureBlockImpl$usbdev_flop_2syncpulse/BPortImpl$d_i_to_ArchitectureBlockImpl$usbdev_flop_2syncpulse/InstantiationBlockImpl$prim_flop_2sync/BPortImpl$d_i" class="sprotty-edge thick edge" style="fill:none;stroke:rgb(112, 112, 112);stroke-linejoin:round;stroke-width:3px;"><g><path d="M 0 167 L 60.84375 167 C 61.84375 167 62.84375 166 62.84375 165 L 62.84375 163 C 62.84375 162 63.84375 161 64.84375 161 L 82.84375 161 "/><path d="M 0 167 L 60.84375 167 C 61.84375 167 62.84375 166 62.84375 165 L 62.84375 163 C 62.84375 162 63.84375 161 64.84375 161 L 82.84375 161 " class="clickable"/></g></g><g id="sprotty_ArchitectureBlockImpl$usbdev_flop_2syncpulse/BPortImpl$clk_i_to_ArchitectureBlockImpl$usbdev_flop_2syncpulse/AlwaysBlockImpl$null4/GPortImpl$clk_iIN" class="sprotty-edge edge" style="fill:none;stroke:rgb(112, 112, 112);stroke-linejoin:round;"><g><path d="M 0 45 L 387.8125 45 "/><path d="M 0 45 L 387.8125 45 " class="clickable"/></g></g><g id="sprotty_ArchitectureBlockImpl$usbdev_flop_2syncpulse/BPortImpl$rst_ni_to_ArchitectureBlockImpl$usbdev_flop_2syncpulse/AlwaysBlockImpl$null4/GPortImpl$rst_niIN" class="sprotty-edge edge" style="fill:none;stroke:rgb(112, 112, 112);stroke-linejoin:round;"><g><path d="M 0 133 L 60.84375 133 C 61.84375 133 62.84375 132 62.84375 131 L 62.84375 57 C 62.84375 56 63.84375 55 64.84375 55 L 387.8125 55 "/><path d="M 0 133 L 60.84375 133 C 61.84375 133 62.84375 132 62.84375 131 L 62.84375 57 C 62.84375 56 63.84375 55 64.84375 55 L 387.8125 55 " class="clickable"/></g><circle r="2" id="sprotty_ArchitectureBlockImpl$usbdev_flop_2syncpulse/BPortImpl$rst_ni_to_ArchitectureBlockImpl$usbdev_flop_2syncpulse/AlwaysBlockImpl$null4/GPortImpl$rst_niIN/junction0" transform="translate(62.84375, 133)" class="sprotty-junction junction" style="fill:rgb(112, 112, 112);stroke:none;"/></g><g id="sprotty_ArchitectureBlockImpl$usbdev_flop_2syncpulse/InstantiationBlockImpl$prim_flop_2sync/BPortImpl$q_o_to_ArchitectureBlockImpl$usbdev_flop_2syncpulse/AssignmentBlockImpl$q_o/GPortImpl$d_syncIN" class="sprotty-edge thick edge" style="fill:none;stroke:rgb(112, 112, 112);stroke-linejoin:round;stroke-width:3px;"><g><path d="M 367.8125 133 L 456.703125 133 "/><path d="M 367.8125 133 L 456.703125 133 " class="clickable"/></g></g><g id="sprotty_ArchitectureBlockImpl$usbdev_flop_2syncpulse/InstantiationBlockImpl$prim_flop_2sync/BPortImpl$q_o_to_ArchitectureBlockImpl$usbdev_flop_2syncpulse/AlwaysBlockImpl$null4/GPortImpl$d_syncIN" class="sprotty-edge thick edge" style="fill:none;stroke:rgb(112, 112, 112);stroke-linejoin:round;stroke-width:3px;"><g><path d="M 367.8125 133 L 375.8125 133 C 376.8125 133 377.8125 132 377.8125 131 L 377.8125 67 C 377.8125 66 378.8125 65 379.8125 65 L 387.8125 65 "/><path d="M 367.8125 133 L 375.8125 133 C 376.8125 133 377.8125 132 377.8125 131 L 377.8125 67 C 377.8125 66 378.8125 65 379.8125 65 L 387.8125 65 " class="clickable"/></g><circle r="3" id="sprotty_ArchitectureBlockImpl$usbdev_flop_2syncpulse/InstantiationBlockImpl$prim_flop_2sync/BPortImpl$q_o_to_ArchitectureBlockImpl$usbdev_flop_2syncpulse/AlwaysBlockImpl$null4/GPortImpl$d_syncIN/junction0" transform="translate(377.8125, 133)" class="sprotty-junction thick" style="fill:rgb(112, 112, 112);stroke:none;"/></g><g id="sprotty_ArchitectureBlockImpl$usbdev_flop_2syncpulse/AlwaysBlockImpl$null4/GPortImpl$d_sync_qOUT_to_ArchitectureBlockImpl$usbdev_flop_2syncpulse/AssignmentBlockImpl$q_o/GPortImpl$d_sync_qIN" class="sprotty-edge thick edge" style="fill:none;stroke:rgb(112, 112, 112);stroke-linejoin:round;stroke-width:3px;"><g><path d="M 436.703125 55 L 444.703125 55 C 445.703125 55 446.703125 56 446.703125 57 L 446.703125 121 C 446.703125 122 447.703125 123 448.703125 123 L 456.703125 123 "/><path d="M 436.703125 55 L 444.703125 55 C 445.703125 55 446.703125 56 446.703125 57 L 446.703125 121 C 446.703125 122 447.703125 123 448.703125 123 L 456.703125 123 " class="clickable"/></g></g><g id="sprotty_ArchitectureBlockImpl$usbdev_flop_2syncpulse/AlwaysBlockImpl$null4" transform="translate(387.8125, 35)" class="statement"><rect x="0" y="0" rx="10" ry="5" width="48.890625" height="40" class="sprotty-node" style="fill:rgb(245, 245, 245);stroke:rgb(112, 112, 112);"/><text class="clickable sprotty-label statementtype" id="sprotty_ArchitectureBlockImpl$usbdev_flop_2syncpulse/AlwaysBlockImpl$null4/labeltype" transform="translate(5, 14) translate(18.828125, 9)" style="cursor:default;font-size:8px;font-weight:700;perspective-origin:0.609375px 0px;fill:rgb(112, 112, 112);text-anchor:middle;">always_ff</text><g id="sprotty_ArchitectureBlockImpl$usbdev_flop_2syncpulse/AlwaysBlockImpl$null4/GPortImpl$d_syncIN" transform="translate(0, 30)" class="sprotty-hidden hidden" style="display:block;height:0px;width:0px;"/><g id="sprotty_ArchitectureBlockImpl$usbdev_flop_2syncpulse/AlwaysBlockImpl$null4/GPortImpl$rst_niIN" transform="translate(0, 20)" class="sprotty-hidden hidden" style="display:block;height:0px;width:0px;"/><g id="sprotty_ArchitectureBlockImpl$usbdev_flop_2syncpulse/AlwaysBlockImpl$null4/GPortImpl$clk_iIN" transform="translate(0, 10)" class="sprotty-hidden hidden" style="display:block;height:0px;width:0px;"/><g id="sprotty_ArchitectureBlockImpl$usbdev_flop_2syncpulse/AlwaysBlockImpl$null4/GPortImpl$d_sync_qOUT" transform="translate(48.890625, 20)" class="sprotty-hidden hidden" style="display:block;height:0px;width:0px;"/></g><g id="sprotty_ArchitectureBlockImpl$usbdev_flop_2syncpulse/AssignmentBlockImpl$q_o" transform="translate(456.703125, 113)" class="statement"><rect x="0" y="0" rx="10" ry="5" width="19.71875" height="30" class="sprotty-node" style="fill:rgb(245, 245, 245);stroke:rgb(112, 112, 112);"/><text class="clickable sprotty-label statementtype" id="sprotty_ArchitectureBlockImpl$usbdev_flop_2syncpulse/AssignmentBlockImpl$q_o/labeltype" transform="translate(5, 9) translate(4.71875, 9)" style="cursor:default;font-size:8px;font-weight:700;perspective-origin:0.140625px 0px;fill:rgb(112, 112, 112);text-anchor:middle;">&lt;=</text><g id="sprotty_ArchitectureBlockImpl$usbdev_flop_2syncpulse/AssignmentBlockImpl$q_o/GPortImpl$d_sync_qIN" transform="translate(0, 10)" class="sprotty-hidden hidden" style="display:block;height:0px;width:0px;"/><g id="sprotty_ArchitectureBlockImpl$usbdev_flop_2syncpulse/AssignmentBlockImpl$q_o/GPortImpl$d_syncIN" transform="translate(0, 20)" class="sprotty-hidden hidden" style="display:block;height:0px;width:0px;"/><g id="sprotty_ArchitectureBlockImpl$usbdev_flop_2syncpulse/AssignmentBlockImpl$q_o/GPortImpl$q_oOUT" transform="translate(19.71875, 15)" class="sprotty-hidden hidden" style="display:block;height:0px;width:0px;"/></g><g id="sprotty_ArchitectureBlockImpl$usbdev_flop_2syncpulse/InstantiationBlockImpl$prim_flop_2sync" transform="translate(82.84375, 67)" class="instantiation"><g class="sprotty-block" style="fill:rgb(255, 255, 255);stroke:rgb(48, 48, 48);stroke-dasharray:0px;"><rect x="0" y="0" rx="1" ry="1" width="284.96875" height="112"/><text x="142.484375" y="12" class="sprotty-block-name" style="cursor:pointer;font-weight:700;perspective-origin:142.484px 0px;fill:rgb(48, 48, 48);stroke:rgba(0, 0, 0, 0);dominant-baseline:middle;text-anchor:middle;">prim_flop_2sync : prim_flop_2sync</text><line x1="0" y1="20" x2="284.96875" y2="20"/></g><g id="sprotty_ArchitectureBlockImpl$usbdev_flop_2syncpulse/InstantiationBlockImpl$prim_flop_2sync/BPortImpl$d_i" transform="translate(0, 94)" class="triangle"><path d="M 0,0 L 5,2.5 L 0,5 Z" transform="translate(-1.67, -2.5)" class="sprotty-port" style="fill:rgb(48, 48, 48);stroke:rgb(48, 48, 48);"/><text class="clickable sprotty-label port" id="sprotty_ArchitectureBlockImpl$usbdev_flop_2syncpulse/InstantiationBlockImpl$prim_flop_2sync/BPortImpl$d_i/label" transform="translate(6, -9) translate(8.734375, 14)" style="cursor:default;font-size:12px;perspective-origin:0px 0px;fill:rgb(48, 48, 48);text-anchor:middle;">d_i</text></g><g id="sprotty_ArchitectureBlockImpl$usbdev_flop_2syncpulse/InstantiationBlockImpl$prim_flop_2sync/BPortImpl$rst_ni" transform="translate(0, 66)" class="triangle"><path d="M 0,0 L 5,2.5 L 0,5 Z" transform="translate(-1.67, -2.5)" class="sprotty-port" style="fill:rgb(48, 48, 48);stroke:rgb(48, 48, 48);"/><text class="clickable sprotty-label port" id="sprotty_ArchitectureBlockImpl$usbdev_flop_2syncpulse/InstantiationBlockImpl$prim_flop_2sync/BPortImpl$rst_ni/label" transform="translate(6, -9) translate(15.921875, 14)" style="cursor:default;font-size:12px;perspective-origin:0px 0px;fill:rgb(48, 48, 48);text-anchor:middle;">rst_ni</text></g><g id="sprotty_ArchitectureBlockImpl$usbdev_flop_2syncpulse/InstantiationBlockImpl$prim_flop_2sync/BPortImpl$clk_i" transform="translate(0, 38)" class="triangle"><path d="M 0,0 L 5,2.5 L 0,5 Z" transform="translate(-1.67, -2.5)" class="sprotty-port" style="fill:rgb(48, 48, 48);stroke:rgb(48, 48, 48);"/><text class="clickable sprotty-label port" id="sprotty_ArchitectureBlockImpl$usbdev_flop_2syncpulse/InstantiationBlockImpl$prim_flop_2sync/BPortImpl$clk_i/label" transform="translate(6, -9) translate(13.09375, 14)" style="cursor:default;font-size:12px;perspective-origin:0px 0px;fill:rgb(48, 48, 48);text-anchor:middle;">clk_i</text></g><g id="sprotty_ArchitectureBlockImpl$usbdev_flop_2syncpulse/InstantiationBlockImpl$prim_flop_2sync/BPortImpl$q_o" transform="translate(284.96875, 66)" class="triangle"><path d="M 0,0 L 5,2.5 L 0,5 Z" transform="translate(-1.67, -2.5)" class="sprotty-port" style="fill:rgb(48, 48, 48);stroke:rgb(48, 48, 48);"/><text class="clickable sprotty-label port" id="sprotty_ArchitectureBlockImpl$usbdev_flop_2syncpulse/InstantiationBlockImpl$prim_flop_2sync/BPortImpl$q_o/label" transform="translate(-27.4375, -9) translate(10.71875, 14)" style="cursor:default;font-size:12px;perspective-origin:0px 0px;fill:rgb(48, 48, 48);text-anchor:middle;">q_o</text></g></g><g id="sprotty_ArchitectureBlockImpl$usbdev_flop_2syncpulse/BPortImpl$d_i" transform="translate(0, 167)" class="triangle"><path d="M 0,0 L 5,2.5 L 0,5 Z" transform="translate(-1.67, -2.5)" class="sprotty-port" style="fill:rgb(48, 48, 48);stroke:rgb(48, 48, 48);"/><text class="clickable sprotty-label port" id="sprotty_ArchitectureBlockImpl$usbdev_flop_2syncpulse/BPortImpl$d_i/label" transform="translate(6, 6) translate(8.734375, 14)" style="cursor:default;font-size:12px;perspective-origin:0px 0px;fill:rgb(48, 48, 48);text-anchor:middle;">d_i</text></g><g id="sprotty_ArchitectureBlockImpl$usbdev_flop_2syncpulse/BPortImpl$rst_ni" transform="translate(0, 133)" class="triangle"><path d="M 0,0 L 5,2.5 L 0,5 Z" transform="translate(-1.67, -2.5)" class="sprotty-port" style="fill:rgb(48, 48, 48);stroke:rgb(48, 48, 48);"/><text class="clickable sprotty-label port" id="sprotty_ArchitectureBlockImpl$usbdev_flop_2syncpulse/BPortImpl$rst_ni/label" transform="translate(6, 6) translate(15.921875, 14)" style="cursor:default;font-size:12px;perspective-origin:0px 0px;fill:rgb(48, 48, 48);text-anchor:middle;">rst_ni</text></g><g id="sprotty_ArchitectureBlockImpl$usbdev_flop_2syncpulse/BPortImpl$clk_i" transform="translate(0, 45)" class="triangle"><path d="M 0,0 L 5,2.5 L 0,5 Z" transform="translate(-1.67, -2.5)" class="sprotty-port" style="fill:rgb(48, 48, 48);stroke:rgb(48, 48, 48);"/><text class="clickable sprotty-label port" id="sprotty_ArchitectureBlockImpl$usbdev_flop_2syncpulse/BPortImpl$clk_i/label" transform="translate(6, 6) translate(13.09375, 14)" style="cursor:default;font-size:12px;perspective-origin:0px 0px;fill:rgb(48, 48, 48);text-anchor:middle;">clk_i</text></g><g id="sprotty_ArchitectureBlockImpl$usbdev_flop_2syncpulse/BPortImpl$q_o" transform="translate(518.859375, 128)" class="triangle"><path d="M 0,0 L 5,2.5 L 0,5 Z" transform="translate(-1.67, -2.5)" class="sprotty-port" style="fill:rgb(48, 48, 48);stroke:rgb(48, 48, 48);"/><text class="clickable sprotty-label port" id="sprotty_ArchitectureBlockImpl$usbdev_flop_2syncpulse/BPortImpl$q_o/label" transform="translate(-27.4375, 6) translate(10.71875, 14)" style="cursor:default;font-size:12px;perspective-origin:0px 0px;fill:rgb(48, 48, 48);text-anchor:middle;">q_o</text></g></g></g></svg>