<svg xmlns="http://www.w3.org/2000/svg" id="sprotty_work.uart" class="sprotty-graph sprotty-block-diagram blockdiagram" style="font-family:&quot;Noto Sans&quot;, Helvetica, Arial, sans-serif;perspective-origin:0px 0px;transform-origin:0px 0px;" version="1.1" viewBox="7 7 773.125 630" width="773.125" height="630"><g transform="scale(1) translate(0,0)"><g id="sprotty_ArchitectureBlockImpl$uart" transform="translate(12, 12)" class="architecture"><g class="sprotty-block" style="fill:rgb(255, 255, 255);stroke:rgb(48, 48, 48);stroke-dasharray:0px;"><rect x="0" y="0" rx="1" ry="1" width="763.125" height="620"/><text x="381.5625" y="12" class="sprotty-block-name" style="cursor:pointer;font-weight:700;perspective-origin:381.688px 0px;fill:rgb(48, 48, 48);stroke:rgba(0, 0, 0, 0);dominant-baseline:middle;text-anchor:middle;">uart</text><line x1="0" y1="20" x2="763.125" y2="20"/></g><g id="sprotty_ArchitectureBlockImpl$uart/InstantiationBlockImpl$u_reg/BPortImpl$tl_o_to_ArchitectureBlockImpl$uart/BPortImpl$tl_o" class="sprotty-edge thick edge" style="fill:none;stroke:rgb(112, 112, 112);stroke-linejoin:round;stroke-width:3px;"><g><path d="M 273.875 86 L 763.125 86 "/><path d="M 273.875 86 L 763.125 86 " class="clickable"/></g></g><g id="sprotty_ArchitectureBlockImpl$uart/InstantiationBlockImpl$uart_core/BPortImpl$tx_to_ArchitectureBlockImpl$uart/BPortImpl$cio_tx_o" class="sprotty-edge edge" style="fill:none;stroke:rgb(112, 112, 112);stroke-linejoin:round;"><g><path d="M 553.375 302 L 571.375 302 C 572.375 302 573.375 301 573.375 300 L 573.375 256 C 573.375 255 574.375 254 575.375 254 L 763.125 254 "/><path d="M 553.375 302 L 571.375 302 C 572.375 302 573.375 301 573.375 300 L 573.375 256 C 573.375 255 574.375 254 575.375 254 L 763.125 254 " class="clickable"/></g></g><g id="sprotty_ArchitectureBlockImpl$uart/AssignmentBlockImpl$cio_tx_en_o/GPortImpl$cio_tx_en_oOUT_to_ArchitectureBlockImpl$uart/BPortImpl$cio_tx_en_o" class="sprotty-edge edge" style="fill:none;stroke:rgb(112, 112, 112);stroke-linejoin:round;"><g><path d="M 34.71875 581 L 763.125 581 "/><path d="M 34.71875 581 L 763.125 581 " class="clickable"/></g></g><g id="sprotty_ArchitectureBlockImpl$uart/InstantiationBlockImpl$uart_core/BPortImpl$intr_tx_watermark_o_to_ArchitectureBlockImpl$uart/BPortImpl$intr_tx_watermark_o" class="sprotty-edge edge" style="fill:none;stroke:rgb(112, 112, 112);stroke-linejoin:round;"><g><path d="M 553.375 330 L 581.375 330 C 582.375 330 583.375 329 583.375 328 L 583.375 290 C 583.375 289 584.375 288 585.375 288 L 763.125 288 "/><path d="M 553.375 330 L 581.375 330 C 582.375 330 583.375 329 583.375 328 L 583.375 290 C 583.375 289 584.375 288 585.375 288 L 763.125 288 " class="clickable"/></g></g><g id="sprotty_ArchitectureBlockImpl$uart/InstantiationBlockImpl$uart_core/BPortImpl$intr_rx_watermark_o_to_ArchitectureBlockImpl$uart/BPortImpl$intr_rx_watermark_o" class="sprotty-edge edge" style="fill:none;stroke:rgb(112, 112, 112);stroke-linejoin:round;"><g><path d="M 553.375 358 L 591.375 358 C 592.375 358 593.375 357 593.375 356 L 593.375 324 C 593.375 323 594.375 322 595.375 322 L 763.125 322 "/><path d="M 553.375 358 L 591.375 358 C 592.375 358 593.375 357 593.375 356 L 593.375 324 C 593.375 323 594.375 322 595.375 322 L 763.125 322 " class="clickable"/></g></g><g id="sprotty_ArchitectureBlockImpl$uart/InstantiationBlockImpl$uart_core/BPortImpl$intr_tx_empty_o_to_ArchitectureBlockImpl$uart/BPortImpl$intr_tx_empty_o" class="sprotty-edge edge" style="fill:none;stroke:rgb(112, 112, 112);stroke-linejoin:round;"><g><path d="M 553.375 386 L 601.375 386 C 602.375 386 603.375 385 603.375 384 L 603.375 358 C 603.375 357 604.375 356 605.375 356 L 763.125 356 "/><path d="M 553.375 386 L 601.375 386 C 602.375 386 603.375 385 603.375 384 L 603.375 358 C 603.375 357 604.375 356 605.375 356 L 763.125 356 " class="clickable"/></g></g><g id="sprotty_ArchitectureBlockImpl$uart/InstantiationBlockImpl$uart_core/BPortImpl$intr_rx_overflow_o_to_ArchitectureBlockImpl$uart/BPortImpl$intr_rx_overflow_o" class="sprotty-edge edge" style="fill:none;stroke:rgb(112, 112, 112);stroke-linejoin:round;"><g><path d="M 553.375 414 L 611.375 414 C 612.375 414 613.375 413 613.375 412 L 613.375 392 C 613.375 391 614.375 390 615.375 390 L 763.125 390 "/><path d="M 553.375 414 L 611.375 414 C 612.375 414 613.375 413 613.375 412 L 613.375 392 C 613.375 391 614.375 390 615.375 390 L 763.125 390 " class="clickable"/></g></g><g id="sprotty_ArchitectureBlockImpl$uart/InstantiationBlockImpl$uart_core/BPortImpl$intr_rx_frame_err_o_to_ArchitectureBlockImpl$uart/BPortImpl$intr_rx_frame_err_o" class="sprotty-edge edge" style="fill:none;stroke:rgb(112, 112, 112);stroke-linejoin:round;"><g><path d="M 553.375 442 L 561.375 442 C 562.375 442 563.375 441 563.375 440 L 563.375 426 C 563.375 425 564.375 424 565.375 424 L 763.125 424 "/><path d="M 553.375 442 L 561.375 442 C 562.375 442 563.375 441 563.375 440 L 563.375 426 C 563.375 425 564.375 424 565.375 424 L 763.125 424 " class="clickable"/></g></g><g id="sprotty_ArchitectureBlockImpl$uart/InstantiationBlockImpl$uart_core/BPortImpl$intr_rx_break_err_o_to_ArchitectureBlockImpl$uart/BPortImpl$intr_rx_break_err_o" class="sprotty-edge edge" style="fill:none;stroke:rgb(112, 112, 112);stroke-linejoin:round;"><g><path d="M 553.375 470 L 561.375 470 C 562.375 470 563.375 469 563.375 468 L 563.375 460 C 563.375 459 564.375 458 565.375 458 L 763.125 458 "/><path d="M 553.375 470 L 561.375 470 C 562.375 470 563.375 469 563.375 468 L 563.375 460 C 563.375 459 564.375 458 565.375 458 L 763.125 458 " class="clickable"/></g></g><g id="sprotty_ArchitectureBlockImpl$uart/InstantiationBlockImpl$uart_core/BPortImpl$intr_rx_timeout_o_to_ArchitectureBlockImpl$uart/BPortImpl$intr_rx_timeout_o" class="sprotty-edge edge" style="fill:none;stroke:rgb(112, 112, 112);stroke-linejoin:round;"><g><path d="M 553.375 498 L 561.375 498 C 562.375 498 563.375 497 563.375 496 L 563.375 494 C 563.375 493 564.375 492 565.375 492 L 763.125 492 "/><path d="M 553.375 498 L 561.375 498 C 562.375 498 563.375 497 563.375 496 L 563.375 494 C 563.375 493 564.375 492 565.375 492 L 763.125 492 " class="clickable"/></g></g><g id="sprotty_ArchitectureBlockImpl$uart/InstantiationBlockImpl$uart_core/BPortImpl$intr_rx_parity_err_o_to_ArchitectureBlockImpl$uart/BPortImpl$intr_rx_parity_err_o" class="sprotty-edge edge" style="fill:none;stroke:rgb(112, 112, 112);stroke-linejoin:round;"><g><path d="M 553.375 526 L 763.125 526 "/><path d="M 553.375 526 L 763.125 526 " class="clickable"/></g></g><g id="sprotty_ArchitectureBlockImpl$uart/BPortImpl$clk_i_to_ArchitectureBlockImpl$uart/InstantiationBlockImpl$u_reg/BPortImpl$clk_i" class="sprotty-edge edge" style="fill:none;stroke:rgb(112, 112, 112);stroke-linejoin:round;"><g><path d="M 0 36 L 73.03125 36 C 74.03125 36 75.03125 37 75.03125 38 L 75.03125 84 C 75.03125 85 76.03125 86 77.03125 86 L 105.03125 86 "/><path d="M 0 36 L 73.03125 36 C 74.03125 36 75.03125 37 75.03125 38 L 75.03125 84 C 75.03125 85 76.03125 86 77.03125 86 L 105.03125 86 " class="clickable"/></g><circle r="2" id="sprotty_ArchitectureBlockImpl$uart/BPortImpl$clk_i_to_ArchitectureBlockImpl$uart/InstantiationBlockImpl$u_reg/BPortImpl$clk_i/junction0" transform="translate(75.03125, 36)" class="sprotty-junction junction" style="fill:rgb(112, 112, 112);stroke:none;"/></g><g id="sprotty_ArchitectureBlockImpl$uart/BPortImpl$rst_ni_to_ArchitectureBlockImpl$uart/InstantiationBlockImpl$u_reg/BPortImpl$rst_ni" class="sprotty-edge edge" style="fill:none;stroke:rgb(112, 112, 112);stroke-linejoin:round;"><g><path d="M 0 358 L 73.03125 358 C 74.03125 358 75.03125 357 75.03125 356 L 75.03125 116 C 75.03125 115 76.03125 114 77.03125 114 L 105.03125 114 "/><path d="M 0 358 L 73.03125 358 C 74.03125 358 75.03125 357 75.03125 356 L 75.03125 116 C 75.03125 115 76.03125 114 77.03125 114 L 105.03125 114 " class="clickable"/></g><circle r="2" id="sprotty_ArchitectureBlockImpl$uart/BPortImpl$rst_ni_to_ArchitectureBlockImpl$uart/InstantiationBlockImpl$u_reg/BPortImpl$rst_ni/junction0" transform="translate(75.03125, 358)" class="sprotty-junction junction" style="fill:rgb(112, 112, 112);stroke:none;"/></g><g id="sprotty_ArchitectureBlockImpl$uart/BPortImpl$tl_i_to_ArchitectureBlockImpl$uart/InstantiationBlockImpl$u_reg/BPortImpl$tl_i" class="sprotty-edge thick edge" style="fill:none;stroke:rgb(112, 112, 112);stroke-linejoin:round;stroke-width:3px;"><g><path d="M 0 392 L 83.03125 392 C 84.03125 392 85.03125 391 85.03125 390 L 85.03125 144 C 85.03125 143 86.03125 142 87.03125 142 L 105.03125 142 "/><path d="M 0 392 L 83.03125 392 C 84.03125 392 85.03125 391 85.03125 390 L 85.03125 144 C 85.03125 143 86.03125 142 87.03125 142 L 105.03125 142 " class="clickable"/></g></g><g id="sprotty_ArchitectureBlockImpl$uart/BPortImpl$clk_i_to_ArchitectureBlockImpl$uart/InstantiationBlockImpl$uart_core/BPortImpl$clk_i" class="sprotty-edge edge" style="fill:none;stroke:rgb(112, 112, 112);stroke-linejoin:round;"><g><path d="M 0 36 L 291.875 36 C 292.875 36 293.875 37 293.875 38 L 293.875 272 C 293.875 273 294.875 274 295.875 274 L 303.875 274 "/><path d="M 0 36 L 291.875 36 C 292.875 36 293.875 37 293.875 38 L 293.875 272 C 293.875 273 294.875 274 295.875 274 L 303.875 274 " class="clickable"/></g></g><g id="sprotty_ArchitectureBlockImpl$uart/BPortImpl$rst_ni_to_ArchitectureBlockImpl$uart/InstantiationBlockImpl$uart_core/BPortImpl$rst_ni" class="sprotty-edge edge" style="fill:none;stroke:rgb(112, 112, 112);stroke-linejoin:round;"><g><path d="M 0 358 L 303.875 358 "/><path d="M 0 358 L 303.875 358 " class="clickable"/></g></g><g id="sprotty_ArchitectureBlockImpl$uart/BPortImpl$cio_rx_i_to_ArchitectureBlockImpl$uart/InstantiationBlockImpl$uart_core/BPortImpl$rx" class="sprotty-edge edge" style="fill:none;stroke:rgb(112, 112, 112);stroke-linejoin:round;"><g><path d="M 0 526 L 303.875 526 "/><path d="M 0 526 L 303.875 526 " class="clickable"/></g></g><g id="sprotty_ArchitectureBlockImpl$uart/InstantiationBlockImpl$u_reg/BPortImpl$reg2hw_to_ArchitectureBlockImpl$uart/InstantiationBlockImpl$uart_core/BPortImpl$reg2hw" class="sprotty-edge thick edge" style="fill:none;stroke:rgb(112, 112, 112);stroke-linejoin:round;stroke-width:3px;"><g><path d="M 273.875 198 L 281.875 198 C 282.875 198 283.875 199 283.875 200 L 283.875 440 C 283.875 441 284.875 442 285.875 442 L 303.875 442 "/><path d="M 273.875 198 L 281.875 198 C 282.875 198 283.875 199 283.875 200 L 283.875 440 C 283.875 441 284.875 442 285.875 442 L 303.875 442 " class="clickable"/></g></g><g id="sprotty_ArchitectureBlockImpl$uart/InstantiationBlockImpl$uart_core/BPortImpl$hw2reg_to_ArchitectureBlockImpl$uart/InstantiationBlockImpl$u_reg/BPortImpl$hw2reg" class="sprotty-edge thick edge" style="fill:none;stroke:rgb(112, 112, 112);stroke-linejoin:round;stroke-width:3px;"><g><path d="M 553.375 274 L 561.375 274 C 562.375 274 563.375 273 563.375 272 L 563.375 228 C 563.375 227 562.375 226 561.375 226 L 97.03125 226 C 96.03125 226 95.03125 225 95.03125 224 L 95.03125 172 C 95.03125 171 96.03125 170 97.03125 170 L 105.03125 170 "/><path d="M 553.375 274 L 561.375 274 C 562.375 274 563.375 273 563.375 272 L 563.375 228 C 563.375 227 562.375 226 561.375 226 L 97.03125 226 C 96.03125 226 95.03125 225 95.03125 224 L 95.03125 172 C 95.03125 171 96.03125 170 97.03125 170 L 105.03125 170 " class="clickable"/></g></g><g id="sprotty_ArchitectureBlockImpl$uart/AssignmentBlockImpl$cio_tx_en_o" transform="translate(15, 570)" class="statement"><rect x="0" y="0" rx="10" ry="5" width="19.71875" height="22" class="sprotty-node" style="fill:rgb(245, 245, 245);stroke:rgb(112, 112, 112);"/><text class="clickable sprotty-label statementtype" id="sprotty_ArchitectureBlockImpl$uart/AssignmentBlockImpl$cio_tx_en_o/labeltype" transform="translate(5, 5) translate(4.71875, 9)" style="cursor:default;font-size:8px;font-weight:700;perspective-origin:0.140625px 0px;fill:rgb(112, 112, 112);text-anchor:middle;">&lt;=</text><g id="sprotty_ArchitectureBlockImpl$uart/AssignmentBlockImpl$cio_tx_en_o/GPortImpl$cio_tx_en_oOUT" transform="translate(19.71875, 11)" class="sprotty-hidden hidden" style="display:block;height:0px;width:0px;"/></g><g id="sprotty_ArchitectureBlockImpl$uart/InstantiationBlockImpl$uart_core" transform="translate(303.875, 236)" class="instantiation"><g class="sprotty-block" style="fill:rgb(255, 255, 255);stroke:rgb(48, 48, 48);stroke-dasharray:0px;"><rect x="0" y="0" rx="1" ry="1" width="249.5" height="308"/><text x="124.75" y="12" class="sprotty-block-name" style="cursor:pointer;font-weight:700;perspective-origin:124.75px 0px;fill:rgb(48, 48, 48);stroke:rgba(0, 0, 0, 0);dominant-baseline:middle;text-anchor:middle;">uart_core : uart_core</text><line x1="0" y1="20" x2="249.5" y2="20"/></g><g id="sprotty_ArchitectureBlockImpl$uart/InstantiationBlockImpl$uart_core/BPortImpl$rx" transform="translate(0, 290)" class="triangle"><path d="M 0,0 L 5,2.5 L 0,5 Z" transform="translate(-1.67, -2.5)" class="sprotty-port" style="fill:rgb(48, 48, 48);stroke:rgb(48, 48, 48);"/><text class="clickable sprotty-label port" id="sprotty_ArchitectureBlockImpl$uart/InstantiationBlockImpl$uart_core/BPortImpl$rx/label" transform="translate(6, -9) translate(5.328125, 14)" style="cursor:default;font-size:12px;perspective-origin:0px 0px;fill:rgb(48, 48, 48);text-anchor:middle;">rx</text></g><g id="sprotty_ArchitectureBlockImpl$uart/InstantiationBlockImpl$uart_core/BPortImpl$reg2hw" transform="translate(0, 206)" class="triangle"><path d="M 0,0 L 5,2.5 L 0,5 Z" transform="translate(-1.67, -2.5)" class="sprotty-port" style="fill:rgb(48, 48, 48);stroke:rgb(48, 48, 48);"/><text class="clickable sprotty-label port" id="sprotty_ArchitectureBlockImpl$uart/InstantiationBlockImpl$uart_core/BPortImpl$reg2hw/label" transform="translate(6, -9) translate(20.6875, 14)" style="cursor:default;font-size:12px;perspective-origin:0.1875px 0px;fill:rgb(48, 48, 48);text-anchor:middle;">reg2hw</text></g><g id="sprotty_ArchitectureBlockImpl$uart/InstantiationBlockImpl$uart_core/BPortImpl$rst_ni" transform="translate(0, 122)" class="triangle"><path d="M 0,0 L 5,2.5 L 0,5 Z" transform="translate(-1.67, -2.5)" class="sprotty-port" style="fill:rgb(48, 48, 48);stroke:rgb(48, 48, 48);"/><text class="clickable sprotty-label port" id="sprotty_ArchitectureBlockImpl$uart/InstantiationBlockImpl$uart_core/BPortImpl$rst_ni/label" transform="translate(6, -9) translate(15.921875, 14)" style="cursor:default;font-size:12px;perspective-origin:0px 0px;fill:rgb(48, 48, 48);text-anchor:middle;">rst_ni</text></g><g id="sprotty_ArchitectureBlockImpl$uart/InstantiationBlockImpl$uart_core/BPortImpl$clk_i" transform="translate(0, 38)" class="triangle"><path d="M 0,0 L 5,2.5 L 0,5 Z" transform="translate(-1.67, -2.5)" class="sprotty-port" style="fill:rgb(48, 48, 48);stroke:rgb(48, 48, 48);"/><text class="clickable sprotty-label port" id="sprotty_ArchitectureBlockImpl$uart/InstantiationBlockImpl$uart_core/BPortImpl$clk_i/label" transform="translate(6, -9) translate(13.09375, 14)" style="cursor:default;font-size:12px;perspective-origin:0px 0px;fill:rgb(48, 48, 48);text-anchor:middle;">clk_i</text></g><g id="sprotty_ArchitectureBlockImpl$uart/InstantiationBlockImpl$uart_core/BPortImpl$hw2reg" transform="translate(249.5, 38)" class="triangle"><path d="M 0,0 L 5,2.5 L 0,5 Z" transform="translate(-1.67, -2.5)" class="sprotty-port" style="fill:rgb(48, 48, 48);stroke:rgb(48, 48, 48);"/><text class="clickable sprotty-label port" id="sprotty_ArchitectureBlockImpl$uart/InstantiationBlockImpl$uart_core/BPortImpl$hw2reg/label" transform="translate(-47.625, -9) translate(20.6875, 14)" style="cursor:default;font-size:12px;perspective-origin:0.125px 0px;fill:rgb(48, 48, 48);text-anchor:middle;">hw2reg</text></g><g id="sprotty_ArchitectureBlockImpl$uart/InstantiationBlockImpl$uart_core/BPortImpl$tx" transform="translate(249.5, 66)" class="triangle"><path d="M 0,0 L 5,2.5 L 0,5 Z" transform="translate(-1.67, -2.5)" class="sprotty-port" style="fill:rgb(48, 48, 48);stroke:rgb(48, 48, 48);"/><text class="clickable sprotty-label port" id="sprotty_ArchitectureBlockImpl$uart/InstantiationBlockImpl$uart_core/BPortImpl$tx/label" transform="translate(-16.328125, -9) translate(5.15625, 14)" style="cursor:default;font-size:12px;perspective-origin:0px 0px;fill:rgb(48, 48, 48);text-anchor:middle;">tx</text></g><g id="sprotty_ArchitectureBlockImpl$uart/InstantiationBlockImpl$uart_core/BPortImpl$intr_tx_watermark_o" transform="translate(249.5, 94)" class="triangle"><path d="M 0,0 L 5,2.5 L 0,5 Z" transform="translate(-1.67, -2.5)" class="sprotty-port" style="fill:rgb(48, 48, 48);stroke:rgb(48, 48, 48);"/><text class="clickable sprotty-label port" id="sprotty_ArchitectureBlockImpl$uart/InstantiationBlockImpl$uart_core/BPortImpl$intr_tx_watermark_o/label" transform="translate(-124.40625, -9) translate(59.203125, 14)" style="cursor:default;font-size:12px;perspective-origin:0px 0px;fill:rgb(48, 48, 48);text-anchor:middle;">intr_tx_watermark_o</text></g><g id="sprotty_ArchitectureBlockImpl$uart/InstantiationBlockImpl$uart_core/BPortImpl$intr_rx_watermark_o" transform="translate(249.5, 122)" class="triangle"><path d="M 0,0 L 5,2.5 L 0,5 Z" transform="translate(-1.67, -2.5)" class="sprotty-port" style="fill:rgb(48, 48, 48);stroke:rgb(48, 48, 48);"/><text class="clickable sprotty-label port" id="sprotty_ArchitectureBlockImpl$uart/InstantiationBlockImpl$uart_core/BPortImpl$intr_rx_watermark_o/label" transform="translate(-124.75, -9) translate(59.375, 14)" style="cursor:default;font-size:12px;perspective-origin:0px 0px;fill:rgb(48, 48, 48);text-anchor:middle;">intr_rx_watermark_o</text></g><g id="sprotty_ArchitectureBlockImpl$uart/InstantiationBlockImpl$uart_core/BPortImpl$intr_tx_empty_o" transform="translate(249.5, 150)" class="triangle"><path d="M 0,0 L 5,2.5 L 0,5 Z" transform="translate(-1.67, -2.5)" class="sprotty-port" style="fill:rgb(48, 48, 48);stroke:rgb(48, 48, 48);"/><text class="clickable sprotty-label port" id="sprotty_ArchitectureBlockImpl$uart/InstantiationBlockImpl$uart_core/BPortImpl$intr_tx_empty_o/label" transform="translate(-99.25, -9) translate(46.625, 14)" style="cursor:default;font-size:12px;perspective-origin:0px 0px;fill:rgb(48, 48, 48);text-anchor:middle;">intr_tx_empty_o</text></g><g id="sprotty_ArchitectureBlockImpl$uart/InstantiationBlockImpl$uart_core/BPortImpl$intr_rx_overflow_o" transform="translate(249.5, 178)" class="triangle"><path d="M 0,0 L 5,2.5 L 0,5 Z" transform="translate(-1.67, -2.5)" class="sprotty-port" style="fill:rgb(48, 48, 48);stroke:rgb(48, 48, 48);"/><text class="clickable sprotty-label port" id="sprotty_ArchitectureBlockImpl$uart/InstantiationBlockImpl$uart_core/BPortImpl$intr_rx_overflow_o/label" transform="translate(-112.75, -9) translate(53.375, 14)" style="cursor:default;font-size:12px;perspective-origin:0px 0px;fill:rgb(48, 48, 48);text-anchor:middle;">intr_rx_overflow_o</text></g><g id="sprotty_ArchitectureBlockImpl$uart/InstantiationBlockImpl$uart_core/BPortImpl$intr_rx_frame_err_o" transform="translate(249.5, 206)" class="triangle"><path d="M 0,0 L 5,2.5 L 0,5 Z" transform="translate(-1.67, -2.5)" class="sprotty-port" style="fill:rgb(48, 48, 48);stroke:rgb(48, 48, 48);"/><text class="clickable sprotty-label port" id="sprotty_ArchitectureBlockImpl$uart/InstantiationBlockImpl$uart_core/BPortImpl$intr_rx_frame_err_o/label" transform="translate(-119.28125, -9) translate(56.640625, 14)" style="cursor:default;font-size:12px;perspective-origin:0px 0px;fill:rgb(48, 48, 48);text-anchor:middle;">intr_rx_frame_err_o</text></g><g id="sprotty_ArchitectureBlockImpl$uart/InstantiationBlockImpl$uart_core/BPortImpl$intr_rx_break_err_o" transform="translate(249.5, 234)" class="triangle"><path d="M 0,0 L 5,2.5 L 0,5 Z" transform="translate(-1.67, -2.5)" class="sprotty-port" style="fill:rgb(48, 48, 48);stroke:rgb(48, 48, 48);"/><text class="clickable sprotty-label port" id="sprotty_ArchitectureBlockImpl$uart/InstantiationBlockImpl$uart_core/BPortImpl$intr_rx_break_err_o/label" transform="translate(-118.3125, -9) translate(56.15625, 14)" style="cursor:default;font-size:12px;perspective-origin:0px 0px;fill:rgb(48, 48, 48);text-anchor:middle;">intr_rx_break_err_o</text></g><g id="sprotty_ArchitectureBlockImpl$uart/InstantiationBlockImpl$uart_core/BPortImpl$intr_rx_timeout_o" transform="translate(249.5, 262)" class="triangle"><path d="M 0,0 L 5,2.5 L 0,5 Z" transform="translate(-1.67, -2.5)" class="sprotty-port" style="fill:rgb(48, 48, 48);stroke:rgb(48, 48, 48);"/><text class="clickable sprotty-label port" id="sprotty_ArchitectureBlockImpl$uart/InstantiationBlockImpl$uart_core/BPortImpl$intr_rx_timeout_o/label" transform="translate(-108.53125, -9) translate(51.265625, 14)" style="cursor:default;font-size:12px;perspective-origin:0px 0px;fill:rgb(48, 48, 48);text-anchor:middle;">intr_rx_timeout_o</text></g><g id="sprotty_ArchitectureBlockImpl$uart/InstantiationBlockImpl$uart_core/BPortImpl$intr_rx_parity_err_o" transform="translate(249.5, 290)" class="triangle"><path d="M 0,0 L 5,2.5 L 0,5 Z" transform="translate(-1.67, -2.5)" class="sprotty-port" style="fill:rgb(48, 48, 48);stroke:rgb(48, 48, 48);"/><text class="clickable sprotty-label port" id="sprotty_ArchitectureBlockImpl$uart/InstantiationBlockImpl$uart_core/BPortImpl$intr_rx_parity_err_o/label" transform="translate(-119.28125, -9) translate(56.640625, 14)" style="cursor:default;font-size:12px;perspective-origin:0px 0px;fill:rgb(48, 48, 48);text-anchor:middle;">intr_rx_parity_err_o</text></g></g><g id="sprotty_ArchitectureBlockImpl$uart/InstantiationBlockImpl$u_reg" transform="translate(105.03125, 48)" class="instantiation"><g class="sprotty-block" style="fill:rgb(255, 255, 255);stroke:rgb(48, 48, 48);stroke-dasharray:0px;"><rect x="0" y="0" rx="1" ry="1" width="168.84375" height="168"/><text x="84.421875" y="12" class="sprotty-block-name" style="cursor:pointer;font-weight:700;perspective-origin:84.4219px 0px;fill:rgb(48, 48, 48);stroke:rgba(0, 0, 0, 0);dominant-baseline:middle;text-anchor:middle;">u_reg : uart_reg_top</text><line x1="0" y1="20" x2="168.84375" y2="20"/></g><g id="sprotty_ArchitectureBlockImpl$uart/InstantiationBlockImpl$u_reg/BPortImpl$devmode_i" transform="translate(0, 150)" class="triangle"><path d="M 0,0 L 5,2.5 L 0,5 Z" transform="translate(-1.67, -2.5)" class="sprotty-port" style="fill:rgb(48, 48, 48);stroke:rgb(48, 48, 48);"/><text class="clickable sprotty-label port" id="sprotty_ArchitectureBlockImpl$uart/InstantiationBlockImpl$u_reg/BPortImpl$devmode_i/label" transform="translate(6, -9) translate(31.453125, 14)" style="cursor:default;font-size:12px;perspective-origin:0px 0px;fill:rgb(48, 48, 48);text-anchor:middle;">devmode_i</text></g><g id="sprotty_ArchitectureBlockImpl$uart/InstantiationBlockImpl$u_reg/BPortImpl$hw2reg" transform="translate(0, 122)" class="triangle"><path d="M 0,0 L 5,2.5 L 0,5 Z" transform="translate(-1.67, -2.5)" class="sprotty-port" style="fill:rgb(48, 48, 48);stroke:rgb(48, 48, 48);"/><text class="clickable sprotty-label port" id="sprotty_ArchitectureBlockImpl$uart/InstantiationBlockImpl$u_reg/BPortImpl$hw2reg/label" transform="translate(6, -9) translate(20.6875, 14)" style="cursor:default;font-size:12px;perspective-origin:0.125px 0px;fill:rgb(48, 48, 48);text-anchor:middle;">hw2reg</text></g><g id="sprotty_ArchitectureBlockImpl$uart/InstantiationBlockImpl$u_reg/BPortImpl$tl_i" transform="translate(0, 94)" class="triangle"><path d="M 0,0 L 5,2.5 L 0,5 Z" transform="translate(-1.67, -2.5)" class="sprotty-port" style="fill:rgb(48, 48, 48);stroke:rgb(48, 48, 48);"/><text class="clickable sprotty-label port" id="sprotty_ArchitectureBlockImpl$uart/InstantiationBlockImpl$u_reg/BPortImpl$tl_i/label" transform="translate(6, -9) translate(8.984375, 14)" style="cursor:default;font-size:12px;perspective-origin:0px 0px;fill:rgb(48, 48, 48);text-anchor:middle;">tl_i</text></g><g id="sprotty_ArchitectureBlockImpl$uart/InstantiationBlockImpl$u_reg/BPortImpl$rst_ni" transform="translate(0, 66)" class="triangle"><path d="M 0,0 L 5,2.5 L 0,5 Z" transform="translate(-1.67, -2.5)" class="sprotty-port" style="fill:rgb(48, 48, 48);stroke:rgb(48, 48, 48);"/><text class="clickable sprotty-label port" id="sprotty_ArchitectureBlockImpl$uart/InstantiationBlockImpl$u_reg/BPortImpl$rst_ni/label" transform="translate(6, -9) translate(15.921875, 14)" style="cursor:default;font-size:12px;perspective-origin:0px 0px;fill:rgb(48, 48, 48);text-anchor:middle;">rst_ni</text></g><g id="sprotty_ArchitectureBlockImpl$uart/InstantiationBlockImpl$u_reg/BPortImpl$clk_i" transform="translate(0, 38)" class="triangle"><path d="M 0,0 L 5,2.5 L 0,5 Z" transform="translate(-1.67, -2.5)" class="sprotty-port" style="fill:rgb(48, 48, 48);stroke:rgb(48, 48, 48);"/><text class="clickable sprotty-label port" id="sprotty_ArchitectureBlockImpl$uart/InstantiationBlockImpl$u_reg/BPortImpl$clk_i/label" transform="translate(6, -9) translate(13.09375, 14)" style="cursor:default;font-size:12px;perspective-origin:0px 0px;fill:rgb(48, 48, 48);text-anchor:middle;">clk_i</text></g><g id="sprotty_ArchitectureBlockImpl$uart/InstantiationBlockImpl$u_reg/BPortImpl$tl_o" transform="translate(168.84375, 38)" class="triangle"><path d="M 0,0 L 5,2.5 L 0,5 Z" transform="translate(-1.67, -2.5)" class="sprotty-port" style="fill:rgb(48, 48, 48);stroke:rgb(48, 48, 48);"/><text class="clickable sprotty-label port" id="sprotty_ArchitectureBlockImpl$uart/InstantiationBlockImpl$u_reg/BPortImpl$tl_o/label" transform="translate(-27.9375, -9) translate(10.96875, 14)" style="cursor:default;font-size:12px;perspective-origin:0px 0px;fill:rgb(48, 48, 48);text-anchor:middle;">tl_o</text></g><g id="sprotty_ArchitectureBlockImpl$uart/InstantiationBlockImpl$u_reg/BPortImpl$reg2hw" transform="translate(168.84375, 150)" class="triangle"><path d="M 0,0 L 5,2.5 L 0,5 Z" transform="translate(-1.67, -2.5)" class="sprotty-port" style="fill:rgb(48, 48, 48);stroke:rgb(48, 48, 48);"/><text class="clickable sprotty-label port" id="sprotty_ArchitectureBlockImpl$uart/InstantiationBlockImpl$u_reg/BPortImpl$reg2hw/label" transform="translate(-47.75, -9) translate(20.6875, 14)" style="cursor:default;font-size:12px;perspective-origin:0.1875px 0px;fill:rgb(48, 48, 48);text-anchor:middle;">reg2hw</text></g></g><g id="sprotty_ArchitectureBlockImpl$uart/BPortImpl$cio_rx_i" transform="translate(0, 526)" class="triangle"><path d="M 0,0 L 5,2.5 L 0,5 Z" transform="translate(-1.67, -2.5)" class="sprotty-port" style="fill:rgb(48, 48, 48);stroke:rgb(48, 48, 48);"/><text class="clickable sprotty-label port" id="sprotty_ArchitectureBlockImpl$uart/BPortImpl$cio_rx_i/label" transform="translate(6, 6) translate(22.015625, 14)" style="cursor:default;font-size:12px;perspective-origin:0px 0px;fill:rgb(48, 48, 48);text-anchor:middle;">cio_rx_i</text></g><g id="sprotty_ArchitectureBlockImpl$uart/BPortImpl$tl_i" transform="translate(0, 392)" class="triangle"><path d="M 0,0 L 5,2.5 L 0,5 Z" transform="translate(-1.67, -2.5)" class="sprotty-port" style="fill:rgb(48, 48, 48);stroke:rgb(48, 48, 48);"/><text class="clickable sprotty-label port" id="sprotty_ArchitectureBlockImpl$uart/BPortImpl$tl_i/label" transform="translate(6, 6) translate(8.984375, 14)" style="cursor:default;font-size:12px;perspective-origin:0px 0px;fill:rgb(48, 48, 48);text-anchor:middle;">tl_i</text></g><g id="sprotty_ArchitectureBlockImpl$uart/BPortImpl$rst_ni" transform="translate(0, 358)" class="triangle"><path d="M 0,0 L 5,2.5 L 0,5 Z" transform="translate(-1.67, -2.5)" class="sprotty-port" style="fill:rgb(48, 48, 48);stroke:rgb(48, 48, 48);"/><text class="clickable sprotty-label port" id="sprotty_ArchitectureBlockImpl$uart/BPortImpl$rst_ni/label" transform="translate(6, 6) translate(15.921875, 14)" style="cursor:default;font-size:12px;perspective-origin:0px 0px;fill:rgb(48, 48, 48);text-anchor:middle;">rst_ni</text></g><g id="sprotty_ArchitectureBlockImpl$uart/BPortImpl$clk_i" transform="translate(0, 36)" class="triangle"><path d="M 0,0 L 5,2.5 L 0,5 Z" transform="translate(-1.67, -2.5)" class="sprotty-port" style="fill:rgb(48, 48, 48);stroke:rgb(48, 48, 48);"/><text class="clickable sprotty-label port" id="sprotty_ArchitectureBlockImpl$uart/BPortImpl$clk_i/label" transform="translate(6, 6) translate(13.09375, 14)" style="cursor:default;font-size:12px;perspective-origin:0px 0px;fill:rgb(48, 48, 48);text-anchor:middle;">clk_i</text></g><g id="sprotty_ArchitectureBlockImpl$uart/BPortImpl$tl_o" transform="translate(763.125, 86)" class="triangle"><path d="M 0,0 L 5,2.5 L 0,5 Z" transform="translate(-1.67, -2.5)" class="sprotty-port" style="fill:rgb(48, 48, 48);stroke:rgb(48, 48, 48);"/><text class="clickable sprotty-label port" id="sprotty_ArchitectureBlockImpl$uart/BPortImpl$tl_o/label" transform="translate(-27.9375, 6) translate(10.96875, 14)" style="cursor:default;font-size:12px;perspective-origin:0px 0px;fill:rgb(48, 48, 48);text-anchor:middle;">tl_o</text></g><g id="sprotty_ArchitectureBlockImpl$uart/BPortImpl$cio_tx_o" transform="translate(763.125, 254)" class="triangle"><path d="M 0,0 L 5,2.5 L 0,5 Z" transform="translate(-1.67, -2.5)" class="sprotty-port" style="fill:rgb(48, 48, 48);stroke:rgb(48, 48, 48);"/><text class="clickable sprotty-label port" id="sprotty_ArchitectureBlockImpl$uart/BPortImpl$cio_tx_o/label" transform="translate(-53.65625, 6) translate(23.828125, 14)" style="cursor:default;font-size:12px;perspective-origin:0px 0px;fill:rgb(48, 48, 48);text-anchor:middle;">cio_tx_o</text></g><g id="sprotty_ArchitectureBlockImpl$uart/BPortImpl$cio_tx_en_o" transform="translate(763.125, 581)" class="triangle"><path d="M 0,0 L 5,2.5 L 0,5 Z" transform="translate(-1.67, -2.5)" class="sprotty-port" style="fill:rgb(48, 48, 48);stroke:rgb(48, 48, 48);"/><text class="clickable sprotty-label port" id="sprotty_ArchitectureBlockImpl$uart/BPortImpl$cio_tx_en_o/label" transform="translate(-74.34375, 6) translate(34.171875, 14)" style="cursor:default;font-size:12px;perspective-origin:0px 0px;fill:rgb(48, 48, 48);text-anchor:middle;">cio_tx_en_o</text></g><g id="sprotty_ArchitectureBlockImpl$uart/BPortImpl$intr_tx_watermark_o" transform="translate(763.125, 288)" class="triangle"><path d="M 0,0 L 5,2.5 L 0,5 Z" transform="translate(-1.67, -2.5)" class="sprotty-port" style="fill:rgb(48, 48, 48);stroke:rgb(48, 48, 48);"/><text class="clickable sprotty-label port" id="sprotty_ArchitectureBlockImpl$uart/BPortImpl$intr_tx_watermark_o/label" transform="translate(-124.40625, 6) translate(59.203125, 14)" style="cursor:default;font-size:12px;perspective-origin:0px 0px;fill:rgb(48, 48, 48);text-anchor:middle;">intr_tx_watermark_o</text></g><g id="sprotty_ArchitectureBlockImpl$uart/BPortImpl$intr_rx_watermark_o" transform="translate(763.125, 322)" class="triangle"><path d="M 0,0 L 5,2.5 L 0,5 Z" transform="translate(-1.67, -2.5)" class="sprotty-port" style="fill:rgb(48, 48, 48);stroke:rgb(48, 48, 48);"/><text class="clickable sprotty-label port" id="sprotty_ArchitectureBlockImpl$uart/BPortImpl$intr_rx_watermark_o/label" transform="translate(-124.75, 6) translate(59.375, 14)" style="cursor:default;font-size:12px;perspective-origin:0px 0px;fill:rgb(48, 48, 48);text-anchor:middle;">intr_rx_watermark_o</text></g><g id="sprotty_ArchitectureBlockImpl$uart/BPortImpl$intr_tx_empty_o" transform="translate(763.125, 356)" class="triangle"><path d="M 0,0 L 5,2.5 L 0,5 Z" transform="translate(-1.67, -2.5)" class="sprotty-port" style="fill:rgb(48, 48, 48);stroke:rgb(48, 48, 48);"/><text class="clickable sprotty-label port" id="sprotty_ArchitectureBlockImpl$uart/BPortImpl$intr_tx_empty_o/label" transform="translate(-99.25, 6) translate(46.625, 14)" style="cursor:default;font-size:12px;perspective-origin:0px 0px;fill:rgb(48, 48, 48);text-anchor:middle;">intr_tx_empty_o</text></g><g id="sprotty_ArchitectureBlockImpl$uart/BPortImpl$intr_rx_overflow_o" transform="translate(763.125, 390)" class="triangle"><path d="M 0,0 L 5,2.5 L 0,5 Z" transform="translate(-1.67, -2.5)" class="sprotty-port" style="fill:rgb(48, 48, 48);stroke:rgb(48, 48, 48);"/><text class="clickable sprotty-label port" id="sprotty_ArchitectureBlockImpl$uart/BPortImpl$intr_rx_overflow_o/label" transform="translate(-112.75, 6) translate(53.375, 14)" style="cursor:default;font-size:12px;perspective-origin:0px 0px;fill:rgb(48, 48, 48);text-anchor:middle;">intr_rx_overflow_o</text></g><g id="sprotty_ArchitectureBlockImpl$uart/BPortImpl$intr_rx_frame_err_o" transform="translate(763.125, 424)" class="triangle"><path d="M 0,0 L 5,2.5 L 0,5 Z" transform="translate(-1.67, -2.5)" class="sprotty-port" style="fill:rgb(48, 48, 48);stroke:rgb(48, 48, 48);"/><text class="clickable sprotty-label port" id="sprotty_ArchitectureBlockImpl$uart/BPortImpl$intr_rx_frame_err_o/label" transform="translate(-119.28125, 6) translate(56.640625, 14)" style="cursor:default;font-size:12px;perspective-origin:0px 0px;fill:rgb(48, 48, 48);text-anchor:middle;">intr_rx_frame_err_o</text></g><g id="sprotty_ArchitectureBlockImpl$uart/BPortImpl$intr_rx_break_err_o" transform="translate(763.125, 458)" class="triangle"><path d="M 0,0 L 5,2.5 L 0,5 Z" transform="translate(-1.67, -2.5)" class="sprotty-port" style="fill:rgb(48, 48, 48);stroke:rgb(48, 48, 48);"/><text class="clickable sprotty-label port" id="sprotty_ArchitectureBlockImpl$uart/BPortImpl$intr_rx_break_err_o/label" transform="translate(-118.3125, 6) translate(56.15625, 14)" style="cursor:default;font-size:12px;perspective-origin:0px 0px;fill:rgb(48, 48, 48);text-anchor:middle;">intr_rx_break_err_o</text></g><g id="sprotty_ArchitectureBlockImpl$uart/BPortImpl$intr_rx_timeout_o" transform="translate(763.125, 492)" class="triangle"><path d="M 0,0 L 5,2.5 L 0,5 Z" transform="translate(-1.67, -2.5)" class="sprotty-port" style="fill:rgb(48, 48, 48);stroke:rgb(48, 48, 48);"/><text class="clickable sprotty-label port" id="sprotty_ArchitectureBlockImpl$uart/BPortImpl$intr_rx_timeout_o/label" transform="translate(-108.53125, 6) translate(51.265625, 14)" style="cursor:default;font-size:12px;perspective-origin:0px 0px;fill:rgb(48, 48, 48);text-anchor:middle;">intr_rx_timeout_o</text></g><g id="sprotty_ArchitectureBlockImpl$uart/BPortImpl$intr_rx_parity_err_o" transform="translate(763.125, 526)" class="triangle"><path d="M 0,0 L 5,2.5 L 0,5 Z" transform="translate(-1.67, -2.5)" class="sprotty-port" style="fill:rgb(48, 48, 48);stroke:rgb(48, 48, 48);"/><text class="clickable sprotty-label port" id="sprotty_ArchitectureBlockImpl$uart/BPortImpl$intr_rx_parity_err_o/label" transform="translate(-119.28125, 6) translate(56.640625, 14)" style="cursor:default;font-size:12px;perspective-origin:0px 0px;fill:rgb(48, 48, 48);text-anchor:middle;">intr_rx_parity_err_o</text></g></g></g></svg>