<svg xmlns="http://www.w3.org/2000/svg" id="sprotty_work.aes_sbox_canright_masked_noreuse" class="sprotty-graph sprotty-block-diagram blockdiagram" style="font-family:&quot;Noto Sans&quot;, Helvetica, Arial, sans-serif;perspective-origin:0px 0px;transform-origin:0px 0px;" version="1.1" viewBox="7 7 784.5 286" width="784.5" height="286"><g transform="scale(1) translate(0,0)"><g id="sprotty_ArchitectureBlockImpl$aes_sbox_canright_masked_noreuse" transform="translate(12, 12)" class="architecture"><g class="sprotty-block" style="fill:rgb(255, 255, 255);stroke:rgb(48, 48, 48);stroke-dasharray:0px;"><rect x="0" y="0" rx="1" ry="1" width="774.5" height="276"/><text x="387.25" y="12" class="sprotty-block-name" style="cursor:pointer;font-weight:700;perspective-origin:387.25px 0px;fill:rgb(48, 48, 48);stroke:rgba(0, 0, 0, 0);dominant-baseline:middle;text-anchor:middle;">aes_sbox_canright_masked_noreuse</text><line x1="0" y1="20" x2="774.5" y2="20"/></g><g id="sprotty_ArchitectureBlockImpl$aes_sbox_canright_masked_noreuse/AssignmentBlockImpl$data_o/GPortImpl$data_oOUT_to_ArchitectureBlockImpl$aes_sbox_canright_masked_noreuse/BPortImpl$data_o" class="sprotty-edge thick edge" style="fill:none;stroke:rgb(112, 112, 112);stroke-linejoin:round;stroke-width:3px;"><g><path d="M 709.375 120 L 774.5 120 "/><path d="M 709.375 120 L 774.5 120 " class="clickable"/></g></g><g id="sprotty_ArchitectureBlockImpl$aes_sbox_canright_masked_noreuse/AssignmentBlockImpl$mask_o/GPortImpl$mask_oOUT_to_ArchitectureBlockImpl$aes_sbox_canright_masked_noreuse/BPortImpl$mask_o" class="sprotty-edge thick edge" style="fill:none;stroke:rgb(112, 112, 112);stroke-linejoin:round;stroke-width:3px;"><g><path d="M 120.875 250 L 128.875 250 C 129.875 250 130.875 249 130.875 248 L 130.875 231 C 130.875 230 131.875 229 132.875 229 L 774.5 229 "/><path d="M 120.875 250 L 128.875 250 C 129.875 250 130.875 249 130.875 248 L 130.875 231 C 130.875 230 131.875 229 132.875 229 L 774.5 229 " class="clickable"/></g><circle r="3" id="sprotty_ArchitectureBlockImpl$aes_sbox_canright_masked_noreuse/AssignmentBlockImpl$mask_o/GPortImpl$mask_oOUT_to_ArchitectureBlockImpl$aes_sbox_canright_masked_noreuse/BPortImpl$mask_o/junction0" transform="translate(130.875, 229)" class="sprotty-junction thick" style="fill:rgb(112, 112, 112);stroke:none;"/></g><g id="sprotty_ArchitectureBlockImpl$aes_sbox_canright_masked_noreuse/BPortImpl$op_i_to_ArchitectureBlockImpl$aes_sbox_canright_masked_noreuse/AssignmentBlockImpl$in_data_basis_x/GPortImpl$op_iIN" class="sprotty-edge thick edge" style="fill:none;stroke:rgb(112, 112, 112);stroke-linejoin:round;stroke-width:3px;"><g><path d="M 0 146 L 89.15625 146 C 90.15625 146 91.15625 145 91.15625 144 L 91.15625 58 C 91.15625 57 92.15625 56 93.15625 56 L 101.15625 56 "/><path d="M 0 146 L 89.15625 146 C 90.15625 146 91.15625 145 91.15625 144 L 91.15625 58 C 91.15625 57 92.15625 56 93.15625 56 L 101.15625 56 " class="clickable"/></g><circle r="3" id="sprotty_ArchitectureBlockImpl$aes_sbox_canright_masked_noreuse/BPortImpl$op_i_to_ArchitectureBlockImpl$aes_sbox_canright_masked_noreuse/AssignmentBlockImpl$in_data_basis_x/GPortImpl$op_iIN/junction0" transform="translate(91.15625, 146)" class="sprotty-junction thick" style="fill:rgb(112, 112, 112);stroke:none;"/></g><g id="sprotty_ArchitectureBlockImpl$aes_sbox_canright_masked_noreuse/BPortImpl$data_i_to_ArchitectureBlockImpl$aes_sbox_canright_masked_noreuse/AssignmentBlockImpl$in_data_basis_x/GPortImpl$data_iIN" class="sprotty-edge thick edge" style="fill:none;stroke:rgb(112, 112, 112);stroke-linejoin:round;stroke-width:3px;"><g><path d="M 0 46 L 101.15625 46 "/><path d="M 0 46 L 101.15625 46 " class="clickable"/></g></g><g id="sprotty_ArchitectureBlockImpl$aes_sbox_canright_masked_noreuse/BPortImpl$prd_i_to_ArchitectureBlockImpl$aes_sbox_canright_masked_noreuse/AssignmentBlockImpl$mask_o/GPortImpl$prd_iIN" class="sprotty-edge thick edge" style="fill:none;stroke:rgb(112, 112, 112);stroke-linejoin:round;stroke-width:3px;"><g><path d="M 0 197 L 69.15625 197 C 70.15625 197 71.15625 198 71.15625 199 L 71.15625 248 C 71.15625 249 72.15625 250 73.15625 250 L 101.15625 250 "/><path d="M 0 197 L 69.15625 197 C 70.15625 197 71.15625 198 71.15625 199 L 71.15625 248 C 71.15625 249 72.15625 250 73.15625 250 L 101.15625 250 " class="clickable"/></g><circle r="3" id="sprotty_ArchitectureBlockImpl$aes_sbox_canright_masked_noreuse/BPortImpl$prd_i_to_ArchitectureBlockImpl$aes_sbox_canright_masked_noreuse/AssignmentBlockImpl$mask_o/GPortImpl$prd_iIN/junction0" transform="translate(71.15625, 197)" class="sprotty-junction thick" style="fill:rgb(112, 112, 112);stroke:none;"/></g><g id="sprotty_ArchitectureBlockImpl$aes_sbox_canright_masked_noreuse/BPortImpl$prd_i_to_ArchitectureBlockImpl$aes_sbox_canright_masked_noreuse/AssignmentBlockImpl$prd_masking/GPortImpl$prd_iIN" class="sprotty-edge thick edge" style="fill:none;stroke:rgb(112, 112, 112);stroke-linejoin:round;stroke-width:3px;"><g><path d="M 0 197 L 101.15625 197 "/><path d="M 0 197 L 101.15625 197 " class="clickable"/></g></g><g id="sprotty_ArchitectureBlockImpl$aes_sbox_canright_masked_noreuse/BPortImpl$op_i_to_ArchitectureBlockImpl$aes_sbox_canright_masked_noreuse/AssignmentBlockImpl$in_mask_basis_x/GPortImpl$op_iIN" class="sprotty-edge thick edge" style="fill:none;stroke:rgb(112, 112, 112);stroke-linejoin:round;stroke-width:3px;"><g><path d="M 0 146 L 89.15625 146 C 90.15625 146 91.15625 145 91.15625 144 L 91.15625 108 C 91.15625 107 92.15625 106 93.15625 106 L 101.15625 106 "/><path d="M 0 146 L 89.15625 146 C 90.15625 146 91.15625 145 91.15625 144 L 91.15625 108 C 91.15625 107 92.15625 106 93.15625 106 L 101.15625 106 " class="clickable"/></g><circle r="3" id="sprotty_ArchitectureBlockImpl$aes_sbox_canright_masked_noreuse/BPortImpl$op_i_to_ArchitectureBlockImpl$aes_sbox_canright_masked_noreuse/AssignmentBlockImpl$in_mask_basis_x/GPortImpl$op_iIN/junction0" transform="translate(91.15625, 106)" class="sprotty-junction thick" style="fill:rgb(112, 112, 112);stroke:none;"/></g><g id="sprotty_ArchitectureBlockImpl$aes_sbox_canright_masked_noreuse/BPortImpl$mask_i_to_ArchitectureBlockImpl$aes_sbox_canright_masked_noreuse/AssignmentBlockImpl$in_mask_basis_x/GPortImpl$mask_iIN" class="sprotty-edge thick edge" style="fill:none;stroke:rgb(112, 112, 112);stroke-linejoin:round;stroke-width:3px;"><g><path d="M 0 96 L 101.15625 96 "/><path d="M 0 96 L 101.15625 96 " class="clickable"/></g></g><g id="sprotty_ArchitectureBlockImpl$aes_sbox_canright_masked_noreuse/BPortImpl$op_i_to_ArchitectureBlockImpl$aes_sbox_canright_masked_noreuse/AssignmentBlockImpl$out_mask_basis_x/GPortImpl$op_iIN" class="sprotty-edge thick edge" style="fill:none;stroke:rgb(112, 112, 112);stroke-linejoin:round;stroke-width:3px;"><g><path d="M 0 146 L 101.15625 146 "/><path d="M 0 146 L 101.15625 146 " class="clickable"/></g></g><g id="sprotty_ArchitectureBlockImpl$aes_sbox_canright_masked_noreuse/BPortImpl$mask_o_to_ArchitectureBlockImpl$aes_sbox_canright_masked_noreuse/AssignmentBlockImpl$out_mask_basis_x/GPortImpl$mask_oIN" class="sprotty-edge thick edge" style="fill:none;stroke:rgb(112, 112, 112);stroke-linejoin:round;stroke-width:3px;"><g><path d="M 774.5 229 L 83.15625 229 C 82.15625 229 81.15625 228 81.15625 227 L 81.15625 158 C 81.15625 157 82.15625 156 83.15625 156 L 101.15625 156 "/><path d="M 774.5 229 L 83.15625 229 C 82.15625 229 81.15625 228 81.15625 227 L 81.15625 158 C 81.15625 157 82.15625 156 83.15625 156 L 101.15625 156 " class="clickable"/></g></g><g id="sprotty_ArchitectureBlockImpl$aes_sbox_canright_masked_noreuse/BPortImpl$op_i_to_ArchitectureBlockImpl$aes_sbox_canright_masked_noreuse/AssignmentBlockImpl$data_o/GPortImpl$op_iIN" class="sprotty-edge thick edge" style="fill:none;stroke:rgb(112, 112, 112);stroke-linejoin:round;stroke-width:3px;"><g><path d="M 0 146 L 89.15625 146 C 90.15625 146 91.15625 147 91.15625 148 L 91.15625 217 C 91.15625 218 92.15625 219 93.15625 219 L 677.65625 219 C 678.65625 219 679.65625 218 679.65625 217 L 679.65625 127 C 679.65625 126 680.65625 125 681.65625 125 L 689.65625 125 "/><path d="M 0 146 L 89.15625 146 C 90.15625 146 91.15625 147 91.15625 148 L 91.15625 217 C 91.15625 218 92.15625 219 93.15625 219 L 677.65625 219 C 678.65625 219 679.65625 218 679.65625 217 L 679.65625 127 C 679.65625 126 680.65625 125 681.65625 125 L 689.65625 125 " class="clickable"/></g></g><g id="sprotty_ArchitectureBlockImpl$aes_sbox_canright_masked_noreuse/AssignmentBlockImpl$in_data_basis_x/GPortImpl$in_data_basis_xOUT_to_ArchitectureBlockImpl$aes_sbox_canright_masked_noreuse/InstantiationBlockImpl$aes_masked_inverse_gf2p8/BPortImpl$a" class="sprotty-edge thick edge" style="fill:none;stroke:rgb(112, 112, 112);stroke-linejoin:round;stroke-width:3px;"><g><path d="M 120.875 51 L 128.875 51 C 129.875 51 130.875 52 130.875 53 L 130.875 71 C 130.875 72 131.875 73 132.875 73 L 140.875 73 "/><path d="M 120.875 51 L 128.875 51 C 129.875 51 130.875 52 130.875 53 L 130.875 71 C 130.875 72 131.875 73 132.875 73 L 140.875 73 " class="clickable"/></g></g><g id="sprotty_ArchitectureBlockImpl$aes_sbox_canright_masked_noreuse/InstantiationBlockImpl$aes_masked_inverse_gf2p8/BPortImpl$a_inv_to_ArchitectureBlockImpl$aes_sbox_canright_masked_noreuse/AssignmentBlockImpl$data_o/GPortImpl$out_data_basis_xIN" class="sprotty-edge thick edge" style="fill:none;stroke:rgb(112, 112, 112);stroke-linejoin:round;stroke-width:3px;"><g><path d="M 669.65625 115 L 689.65625 115 "/><path d="M 669.65625 115 L 689.65625 115 " class="clickable"/></g></g><g id="sprotty_ArchitectureBlockImpl$aes_sbox_canright_masked_noreuse/AssignmentBlockImpl$in_mask_basis_x/GPortImpl$in_mask_basis_xOUT_to_ArchitectureBlockImpl$aes_sbox_canright_masked_noreuse/InstantiationBlockImpl$aes_masked_inverse_gf2p8/BPortImpl$m" class="sprotty-edge thick edge" style="fill:none;stroke:rgb(112, 112, 112);stroke-linejoin:round;stroke-width:3px;"><g><path d="M 120.875 101 L 140.875 101 "/><path d="M 120.875 101 L 140.875 101 " class="clickable"/></g></g><g id="sprotty_ArchitectureBlockImpl$aes_sbox_canright_masked_noreuse/AssignmentBlockImpl$out_mask_basis_x/GPortImpl$mask_oOUT_to_ArchitectureBlockImpl$aes_sbox_canright_masked_noreuse/InstantiationBlockImpl$aes_masked_inverse_gf2p8/BPortImpl$n" class="sprotty-edge thick edge" style="fill:none;stroke:rgb(112, 112, 112);stroke-linejoin:round;stroke-width:3px;"><g><path d="M 120.875 151 L 128.875 151 C 129.875 151 130.875 150 130.875 149 L 130.875 131 C 130.875 130 131.875 129 132.875 129 L 140.875 129 "/><path d="M 120.875 151 L 128.875 151 C 129.875 151 130.875 150 130.875 149 L 130.875 131 C 130.875 130 131.875 129 132.875 129 L 140.875 129 " class="clickable"/></g></g><g id="sprotty_ArchitectureBlockImpl$aes_sbox_canright_masked_noreuse/AssignmentBlockImpl$prd_masking/GPortImpl$prd_maskingOUT_to_ArchitectureBlockImpl$aes_sbox_canright_masked_noreuse/InstantiationBlockImpl$aes_masked_inverse_gf2p8/BPortImpl$prd" class="sprotty-edge thick edge" style="fill:none;stroke:rgb(112, 112, 112);stroke-linejoin:round;stroke-width:3px;"><g><path d="M 120.875 197 L 128.875 197 C 129.875 197 130.875 196 130.875 195 L 130.875 159 C 130.875 158 131.875 157 132.875 157 L 140.875 157 "/><path d="M 120.875 197 L 128.875 197 C 129.875 197 130.875 196 130.875 195 L 130.875 159 C 130.875 158 131.875 157 132.875 157 L 140.875 157 " class="clickable"/></g></g><g id="sprotty_ArchitectureBlockImpl$aes_sbox_canright_masked_noreuse/AssignmentBlockImpl$data_o" transform="translate(689.65625, 105)" class="statement"><rect x="0" y="0" rx="10" ry="5" width="19.71875" height="30" class="sprotty-node" style="fill:rgb(245, 245, 245);stroke:rgb(112, 112, 112);"/><text class="clickable sprotty-label statementtype" id="sprotty_ArchitectureBlockImpl$aes_sbox_canright_masked_noreuse/AssignmentBlockImpl$data_o/labeltype" transform="translate(5, 9) translate(4.71875, 9)" style="cursor:default;font-size:8px;font-weight:700;perspective-origin:0.140625px 0px;fill:rgb(112, 112, 112);text-anchor:middle;">&lt;=</text><g id="sprotty_ArchitectureBlockImpl$aes_sbox_canright_masked_noreuse/AssignmentBlockImpl$data_o/GPortImpl$out_data_basis_xIN" transform="translate(0, 10)" class="sprotty-hidden hidden" style="display:block;height:0px;width:0px;"/><g id="sprotty_ArchitectureBlockImpl$aes_sbox_canright_masked_noreuse/AssignmentBlockImpl$data_o/GPortImpl$op_iIN" transform="translate(0, 20)" class="sprotty-hidden hidden" style="display:block;height:0px;width:0px;"/><g id="sprotty_ArchitectureBlockImpl$aes_sbox_canright_masked_noreuse/AssignmentBlockImpl$data_o/GPortImpl$data_oOUT" transform="translate(19.71875, 15)" class="sprotty-hidden hidden" style="display:block;height:0px;width:0px;"/></g><g id="sprotty_ArchitectureBlockImpl$aes_sbox_canright_masked_noreuse/AssignmentBlockImpl$out_mask_basis_x" transform="translate(101.15625, 136)" class="statement"><rect x="0" y="0" rx="10" ry="5" width="19.71875" height="30" class="sprotty-node" style="fill:rgb(245, 245, 245);stroke:rgb(112, 112, 112);"/><text class="clickable sprotty-label statementtype" id="sprotty_ArchitectureBlockImpl$aes_sbox_canright_masked_noreuse/AssignmentBlockImpl$out_mask_basis_x/labeltype" transform="translate(5, 9) translate(4.71875, 9)" style="cursor:default;font-size:8px;font-weight:700;perspective-origin:0.140625px 0px;fill:rgb(112, 112, 112);text-anchor:middle;">&lt;=</text><g id="sprotty_ArchitectureBlockImpl$aes_sbox_canright_masked_noreuse/AssignmentBlockImpl$out_mask_basis_x/GPortImpl$mask_oIN" transform="translate(0, 20)" class="sprotty-hidden hidden" style="display:block;height:0px;width:0px;"/><g id="sprotty_ArchitectureBlockImpl$aes_sbox_canright_masked_noreuse/AssignmentBlockImpl$out_mask_basis_x/GPortImpl$op_iIN" transform="translate(0, 10)" class="sprotty-hidden hidden" style="display:block;height:0px;width:0px;"/><g id="sprotty_ArchitectureBlockImpl$aes_sbox_canright_masked_noreuse/AssignmentBlockImpl$out_mask_basis_x/GPortImpl$mask_oOUT" transform="translate(19.71875, 15)" class="sprotty-hidden hidden" style="display:block;height:0px;width:0px;"/></g><g id="sprotty_ArchitectureBlockImpl$aes_sbox_canright_masked_noreuse/AssignmentBlockImpl$in_mask_basis_x" transform="translate(101.15625, 86)" class="statement"><rect x="0" y="0" rx="10" ry="5" width="19.71875" height="30" class="sprotty-node" style="fill:rgb(245, 245, 245);stroke:rgb(112, 112, 112);"/><text class="clickable sprotty-label statementtype" id="sprotty_ArchitectureBlockImpl$aes_sbox_canright_masked_noreuse/AssignmentBlockImpl$in_mask_basis_x/labeltype" transform="translate(5, 9) translate(4.71875, 9)" style="cursor:default;font-size:8px;font-weight:700;perspective-origin:0.140625px 0px;fill:rgb(112, 112, 112);text-anchor:middle;">&lt;=</text><g id="sprotty_ArchitectureBlockImpl$aes_sbox_canright_masked_noreuse/AssignmentBlockImpl$in_mask_basis_x/GPortImpl$mask_iIN" transform="translate(0, 10)" class="sprotty-hidden hidden" style="display:block;height:0px;width:0px;"/><g id="sprotty_ArchitectureBlockImpl$aes_sbox_canright_masked_noreuse/AssignmentBlockImpl$in_mask_basis_x/GPortImpl$op_iIN" transform="translate(0, 20)" class="sprotty-hidden hidden" style="display:block;height:0px;width:0px;"/><g id="sprotty_ArchitectureBlockImpl$aes_sbox_canright_masked_noreuse/AssignmentBlockImpl$in_mask_basis_x/GPortImpl$in_mask_basis_xOUT" transform="translate(19.71875, 15)" class="sprotty-hidden hidden" style="display:block;height:0px;width:0px;"/></g><g id="sprotty_ArchitectureBlockImpl$aes_sbox_canright_masked_noreuse/AssignmentBlockImpl$prd_masking" transform="translate(101.15625, 186)" class="statement"><rect x="0" y="0" rx="10" ry="5" width="19.71875" height="22" class="sprotty-node" style="fill:rgb(245, 245, 245);stroke:rgb(112, 112, 112);"/><text class="clickable sprotty-label statementtype" id="sprotty_ArchitectureBlockImpl$aes_sbox_canright_masked_noreuse/AssignmentBlockImpl$prd_masking/labeltype" transform="translate(5, 5) translate(4.71875, 9)" style="cursor:default;font-size:8px;font-weight:700;perspective-origin:0.140625px 0px;fill:rgb(112, 112, 112);text-anchor:middle;">&lt;=</text><g id="sprotty_ArchitectureBlockImpl$aes_sbox_canright_masked_noreuse/AssignmentBlockImpl$prd_masking/GPortImpl$prd_iIN" transform="translate(0, 11)" class="sprotty-hidden hidden" style="display:block;height:0px;width:0px;"/><g id="sprotty_ArchitectureBlockImpl$aes_sbox_canright_masked_noreuse/AssignmentBlockImpl$prd_masking/GPortImpl$prd_maskingOUT" transform="translate(19.71875, 11)" class="sprotty-hidden hidden" style="display:block;height:0px;width:0px;"/></g><g id="sprotty_ArchitectureBlockImpl$aes_sbox_canright_masked_noreuse/AssignmentBlockImpl$mask_o" transform="translate(101.15625, 239)" class="statement"><rect x="0" y="0" rx="10" ry="5" width="19.71875" height="22" class="sprotty-node" style="fill:rgb(245, 245, 245);stroke:rgb(112, 112, 112);"/><text class="clickable sprotty-label statementtype" id="sprotty_ArchitectureBlockImpl$aes_sbox_canright_masked_noreuse/AssignmentBlockImpl$mask_o/labeltype" transform="translate(5, 5) translate(4.71875, 9)" style="cursor:default;font-size:8px;font-weight:700;perspective-origin:0.140625px 0px;fill:rgb(112, 112, 112);text-anchor:middle;">&lt;=</text><g id="sprotty_ArchitectureBlockImpl$aes_sbox_canright_masked_noreuse/AssignmentBlockImpl$mask_o/GPortImpl$prd_iIN" transform="translate(0, 11)" class="sprotty-hidden hidden" style="display:block;height:0px;width:0px;"/><g id="sprotty_ArchitectureBlockImpl$aes_sbox_canright_masked_noreuse/AssignmentBlockImpl$mask_o/GPortImpl$mask_oOUT" transform="translate(19.71875, 11)" class="sprotty-hidden hidden" style="display:block;height:0px;width:0px;"/></g><g id="sprotty_ArchitectureBlockImpl$aes_sbox_canright_masked_noreuse/AssignmentBlockImpl$in_data_basis_x" transform="translate(101.15625, 36)" class="statement"><rect x="0" y="0" rx="10" ry="5" width="19.71875" height="30" class="sprotty-node" style="fill:rgb(245, 245, 245);stroke:rgb(112, 112, 112);"/><text class="clickable sprotty-label statementtype" id="sprotty_ArchitectureBlockImpl$aes_sbox_canright_masked_noreuse/AssignmentBlockImpl$in_data_basis_x/labeltype" transform="translate(5, 9) translate(4.71875, 9)" style="cursor:default;font-size:8px;font-weight:700;perspective-origin:0.140625px 0px;fill:rgb(112, 112, 112);text-anchor:middle;">&lt;=</text><g id="sprotty_ArchitectureBlockImpl$aes_sbox_canright_masked_noreuse/AssignmentBlockImpl$in_data_basis_x/GPortImpl$data_iIN" transform="translate(0, 10)" class="sprotty-hidden hidden" style="display:block;height:0px;width:0px;"/><g id="sprotty_ArchitectureBlockImpl$aes_sbox_canright_masked_noreuse/AssignmentBlockImpl$in_data_basis_x/GPortImpl$op_iIN" transform="translate(0, 20)" class="sprotty-hidden hidden" style="display:block;height:0px;width:0px;"/><g id="sprotty_ArchitectureBlockImpl$aes_sbox_canright_masked_noreuse/AssignmentBlockImpl$in_data_basis_x/GPortImpl$in_data_basis_xOUT" transform="translate(19.71875, 15)" class="sprotty-hidden hidden" style="display:block;height:0px;width:0px;"/></g><g id="sprotty_ArchitectureBlockImpl$aes_sbox_canright_masked_noreuse/InstantiationBlockImpl$aes_masked_inverse_gf2p8" transform="translate(140.875, 35)" class="instantiation"><g class="sprotty-block" style="fill:rgb(255, 255, 255);stroke:rgb(48, 48, 48);stroke-dasharray:0px;"><rect x="0" y="0" rx="1" ry="1" width="528.78125" height="140"/><text x="264.390625" y="12" class="sprotty-block-name" style="cursor:pointer;font-weight:700;perspective-origin:264.391px 0px;fill:rgb(48, 48, 48);stroke:rgba(0, 0, 0, 0);dominant-baseline:middle;text-anchor:middle;">aes_masked_inverse_gf2p8 : aes_masked_inverse_gf2p8_noreuse</text><line x1="0" y1="20" x2="528.78125" y2="20"/></g><g id="sprotty_ArchitectureBlockImpl$aes_sbox_canright_masked_noreuse/InstantiationBlockImpl$aes_masked_inverse_gf2p8/BPortImpl$prd" transform="translate(0, 122)" class="triangle"><path d="M 0,0 L 5,2.5 L 0,5 Z" transform="translate(-1.67, -2.5)" class="sprotty-port" style="fill:rgb(48, 48, 48);stroke:rgb(48, 48, 48);"/><text class="clickable sprotty-label port" id="sprotty_ArchitectureBlockImpl$aes_sbox_canright_masked_noreuse/InstantiationBlockImpl$aes_masked_inverse_gf2p8/BPortImpl$prd/label" transform="translate(6, -9) translate(9.703125, 14)" style="cursor:default;font-size:12px;perspective-origin:0px 0px;fill:rgb(48, 48, 48);text-anchor:middle;">prd</text></g><g id="sprotty_ArchitectureBlockImpl$aes_sbox_canright_masked_noreuse/InstantiationBlockImpl$aes_masked_inverse_gf2p8/BPortImpl$n" transform="translate(0, 94)" class="triangle"><path d="M 0,0 L 5,2.5 L 0,5 Z" transform="translate(-1.67, -2.5)" class="sprotty-port" style="fill:rgb(48, 48, 48);stroke:rgb(48, 48, 48);"/><text class="clickable sprotty-label port" id="sprotty_ArchitectureBlockImpl$aes_sbox_canright_masked_noreuse/InstantiationBlockImpl$aes_masked_inverse_gf2p8/BPortImpl$n/label" transform="translate(6, -9) translate(3.671875, 14)" style="cursor:default;font-size:12px;perspective-origin:0px 0px;fill:rgb(48, 48, 48);text-anchor:middle;">n</text></g><g id="sprotty_ArchitectureBlockImpl$aes_sbox_canright_masked_noreuse/InstantiationBlockImpl$aes_masked_inverse_gf2p8/BPortImpl$m" transform="translate(0, 66)" class="triangle"><path d="M 0,0 L 5,2.5 L 0,5 Z" transform="translate(-1.67, -2.5)" class="sprotty-port" style="fill:rgb(48, 48, 48);stroke:rgb(48, 48, 48);"/><text class="clickable sprotty-label port" id="sprotty_ArchitectureBlockImpl$aes_sbox_canright_masked_noreuse/InstantiationBlockImpl$aes_masked_inverse_gf2p8/BPortImpl$m/label" transform="translate(6, -9) translate(5.5625, 14)" style="cursor:default;font-size:12px;perspective-origin:0px 0px;fill:rgb(48, 48, 48);text-anchor:middle;">m</text></g><g id="sprotty_ArchitectureBlockImpl$aes_sbox_canright_masked_noreuse/InstantiationBlockImpl$aes_masked_inverse_gf2p8/BPortImpl$a" transform="translate(0, 38)" class="triangle"><path d="M 0,0 L 5,2.5 L 0,5 Z" transform="translate(-1.67, -2.5)" class="sprotty-port" style="fill:rgb(48, 48, 48);stroke:rgb(48, 48, 48);"/><text class="clickable sprotty-label port" id="sprotty_ArchitectureBlockImpl$aes_sbox_canright_masked_noreuse/InstantiationBlockImpl$aes_masked_inverse_gf2p8/BPortImpl$a/label" transform="translate(6, -9) translate(3.390625, 14)" style="cursor:default;font-size:12px;perspective-origin:0px 0px;fill:rgb(48, 48, 48);text-anchor:middle;">a</text></g><g id="sprotty_ArchitectureBlockImpl$aes_sbox_canright_masked_noreuse/InstantiationBlockImpl$aes_masked_inverse_gf2p8/BPortImpl$a_inv" transform="translate(528.78125, 80)" class="triangle"><path d="M 0,0 L 5,2.5 L 0,5 Z" transform="translate(-1.67, -2.5)" class="sprotty-port" style="fill:rgb(48, 48, 48);stroke:rgb(48, 48, 48);"/><text class="clickable sprotty-label port" id="sprotty_ArchitectureBlockImpl$aes_sbox_canright_masked_noreuse/InstantiationBlockImpl$aes_masked_inverse_gf2p8/BPortImpl$a_inv/label" transform="translate(-37.125, -9) translate(15.1875, 14)" style="cursor:default;font-size:12px;perspective-origin:0.375px 0px;fill:rgb(48, 48, 48);text-anchor:middle;">a_inv</text></g></g><g id="sprotty_ArchitectureBlockImpl$aes_sbox_canright_masked_noreuse/BPortImpl$prd_i" transform="translate(0, 197)" class="triangle"><path d="M 0,0 L 5,2.5 L 0,5 Z" transform="translate(-1.67, -2.5)" class="sprotty-port" style="fill:rgb(48, 48, 48);stroke:rgb(48, 48, 48);"/><text class="clickable sprotty-label port" id="sprotty_ArchitectureBlockImpl$aes_sbox_canright_masked_noreuse/BPortImpl$prd_i/label" transform="translate(6, 6) translate(14.71875, 14)" style="cursor:default;font-size:12px;perspective-origin:0px 0px;fill:rgb(48, 48, 48);text-anchor:middle;">prd_i</text></g><g id="sprotty_ArchitectureBlockImpl$aes_sbox_canright_masked_noreuse/BPortImpl$mask_i" transform="translate(0, 96)" class="triangle"><path d="M 0,0 L 5,2.5 L 0,5 Z" transform="translate(-1.67, -2.5)" class="sprotty-port" style="fill:rgb(48, 48, 48);stroke:rgb(48, 48, 48);"/><text class="clickable sprotty-label port" id="sprotty_ArchitectureBlockImpl$aes_sbox_canright_masked_noreuse/BPortImpl$mask_i/label" transform="translate(6, 6) translate(20.078125, 14)" style="cursor:default;font-size:12px;perspective-origin:0px 0px;fill:rgb(48, 48, 48);text-anchor:middle;">mask_i</text></g><g id="sprotty_ArchitectureBlockImpl$aes_sbox_canright_masked_noreuse/BPortImpl$data_i" transform="translate(0, 46)" class="triangle"><path d="M 0,0 L 5,2.5 L 0,5 Z" transform="translate(-1.67, -2.5)" class="sprotty-port" style="fill:rgb(48, 48, 48);stroke:rgb(48, 48, 48);"/><text class="clickable sprotty-label port" id="sprotty_ArchitectureBlockImpl$aes_sbox_canright_masked_noreuse/BPortImpl$data_i/label" transform="translate(6, 6) translate(17.53125, 14)" style="cursor:default;font-size:12px;perspective-origin:0px 0px;fill:rgb(48, 48, 48);text-anchor:middle;">data_i</text></g><g id="sprotty_ArchitectureBlockImpl$aes_sbox_canright_masked_noreuse/BPortImpl$op_i" transform="translate(0, 146)" class="triangle"><path d="M 0,0 L 5,2.5 L 0,5 Z" transform="translate(-1.67, -2.5)" class="sprotty-port" style="fill:rgb(48, 48, 48);stroke:rgb(48, 48, 48);"/><text class="clickable sprotty-label port" id="sprotty_ArchitectureBlockImpl$aes_sbox_canright_masked_noreuse/BPortImpl$op_i/label" transform="translate(6, 6) translate(12.375, 14)" style="cursor:default;font-size:12px;perspective-origin:0px 0px;fill:rgb(48, 48, 48);text-anchor:middle;">op_i</text></g><g id="sprotty_ArchitectureBlockImpl$aes_sbox_canright_masked_noreuse/BPortImpl$data_o" transform="translate(774.5, 120)" class="triangle"><path d="M 0,0 L 5,2.5 L 0,5 Z" transform="translate(-1.67, -2.5)" class="sprotty-port" style="fill:rgb(48, 48, 48);stroke:rgb(48, 48, 48);"/><text class="clickable sprotty-label port" id="sprotty_ArchitectureBlockImpl$aes_sbox_canright_masked_noreuse/BPortImpl$data_o/label" transform="translate(-45.03125, 6) translate(19.515625, 14)" style="cursor:default;font-size:12px;perspective-origin:0px 0px;fill:rgb(48, 48, 48);text-anchor:middle;">data_o</text></g><g id="sprotty_ArchitectureBlockImpl$aes_sbox_canright_masked_noreuse/BPortImpl$mask_o" transform="translate(774.5, 229)" class="triangle"><path d="M 0,0 L 5,2.5 L 0,5 Z" transform="translate(-1.67, -2.5)" class="sprotty-port" style="fill:rgb(48, 48, 48);stroke:rgb(48, 48, 48);"/><text class="clickable sprotty-label port" id="sprotty_ArchitectureBlockImpl$aes_sbox_canright_masked_noreuse/BPortImpl$mask_o/label" transform="translate(-50.125, 6) translate(22.0625, 14)" style="cursor:default;font-size:12px;perspective-origin:0px 0px;fill:rgb(48, 48, 48);text-anchor:middle;">mask_o</text></g></g></g></svg>