<svg xmlns="http://www.w3.org/2000/svg" id="sprotty_work.prim_edn_req" class="sprotty-graph sprotty-block-diagram blockdiagram" style="font-family:&quot;Noto Sans&quot;, Helvetica, Arial, sans-serif;perspective-origin:0px 0px;transform-origin:0px 0px;" version="1.1" viewBox="7 7 1140.578125 483" width="1140.578125" height="483"><g transform="scale(1) translate(0,0)"><g id="sprotty_ArchitectureBlockImpl$prim_edn_req" transform="translate(12, 12)" class="architecture"><g class="sprotty-block" style="fill:rgb(255, 255, 255);stroke:rgb(48, 48, 48);stroke-dasharray:0px;"><rect x="0" y="0" rx="1" ry="1" width="1130.578125" height="473"/><text x="565.2890625" y="12" class="sprotty-block-name" style="cursor:pointer;font-weight:700;perspective-origin:565.281px 0px;fill:rgb(48, 48, 48);stroke:rgba(0, 0, 0, 0);dominant-baseline:middle;text-anchor:middle;">prim_edn_req</text><line x1="0" y1="20" x2="1130.578125" y2="20"/></g><g id="sprotty_ArchitectureBlockImpl$prim_edn_req/InstantiationBlockImpl$u_prim_packer_fifo/BPortImpl$rvalid_o_to_ArchitectureBlockImpl$prim_edn_req/BPortImpl$ack_o" class="sprotty-edge edge" style="fill:none;stroke:rgb(112, 112, 112);stroke-linejoin:round;"><g><path d="M 941.9375 171.66666666666669 L 1130.578125 171.66666666666669 "/><path d="M 941.9375 171.66666666666669 L 1130.578125 171.66666666666669 " class="clickable"/></g></g><g id="sprotty_ArchitectureBlockImpl$prim_edn_req/InstantiationBlockImpl$u_prim_packer_fifo/BPortImpl$rdata_o_to_ArchitectureBlockImpl$prim_edn_req/BPortImpl$data_o" class="sprotty-edge thick edge" style="fill:none;stroke:rgb(112, 112, 112);stroke-linejoin:round;stroke-width:3px;"><g><path d="M 941.9375 218.33333333333334 L 949.9375 218.33333333333334 C 950.9375 218.33333333333334 951.9375 217.33333333333334 951.9375 216.33333333333334 L 951.9375 38 C 951.9375 37 952.9375 36 953.9375 36 L 1130.578125 36 "/><path d="M 941.9375 218.33333333333334 L 949.9375 218.33333333333334 C 950.9375 218.33333333333334 951.9375 217.33333333333334 951.9375 216.33333333333334 L 951.9375 38 C 951.9375 37 952.9375 36 953.9375 36 L 1130.578125 36 " class="clickable"/></g></g><g id="sprotty_ArchitectureBlockImpl$prim_edn_req/AssignmentBlockImpl$fips_o/GPortImpl$fips_oOUT_to_ArchitectureBlockImpl$prim_edn_req/BPortImpl$fips_o" class="sprotty-edge edge" style="fill:none;stroke:rgb(112, 112, 112);stroke-linejoin:round;"><g><path d="M 1070.546875 75 L 1130.578125 75 "/><path d="M 1070.546875 75 L 1130.578125 75 " class="clickable"/></g></g><g id="sprotty_ArchitectureBlockImpl$prim_edn_req/InstantiationBlockImpl$u_prim_sync_reqack_data/BPortImpl$dst_req_o_to_ArchitectureBlockImpl$prim_edn_req/BPortImpl$edn_o" class="sprotty-edge thick edge" style="fill:none;stroke:rgb(112, 112, 112);stroke-linejoin:round;stroke-width:3px;"><g><path d="M 580.03125 293 L 588.03125 293 C 589.03125 293 590.03125 294 590.03125 295 L 590.03125 432 C 590.03125 433 591.03125 434 592.03125 434 L 1130.578125 434 "/><path d="M 580.03125 293 L 588.03125 293 C 589.03125 293 590.03125 294 590.03125 295 L 590.03125 432 C 590.03125 433 591.03125 434 592.03125 434 L 1130.578125 434 " class="clickable"/></g></g><g id="sprotty_ArchitectureBlockImpl$prim_edn_req/BPortImpl$clk_i_to_ArchitectureBlockImpl$prim_edn_req/InstantiationBlockImpl$u_prim_sync_reqack_data/BPortImpl$clk_src_i" class="sprotty-edge edge" style="fill:none;stroke:rgb(112, 112, 112);stroke-linejoin:round;"><g><path d="M 0 125 L 98.96875 125 C 99.96875 125 100.96875 126 100.96875 127 L 100.96875 207 C 100.96875 208 101.96875 209 102.96875 209 L 160.6875 209 "/><path d="M 0 125 L 98.96875 125 C 99.96875 125 100.96875 126 100.96875 127 L 100.96875 207 C 100.96875 208 101.96875 209 102.96875 209 L 160.6875 209 " class="clickable"/></g><circle r="2" id="sprotty_ArchitectureBlockImpl$prim_edn_req/BPortImpl$clk_i_to_ArchitectureBlockImpl$prim_edn_req/InstantiationBlockImpl$u_prim_sync_reqack_data/BPortImpl$clk_src_i/junction0" transform="translate(100.96875, 125)" class="sprotty-junction junction" style="fill:rgb(112, 112, 112);stroke:none;"/></g><g id="sprotty_ArchitectureBlockImpl$prim_edn_req/BPortImpl$rst_ni_to_ArchitectureBlockImpl$prim_edn_req/InstantiationBlockImpl$u_prim_sync_reqack_data/BPortImpl$rst_src_ni" class="sprotty-edge edge" style="fill:none;stroke:rgb(112, 112, 112);stroke-linejoin:round;"><g><path d="M 0 159 L 88.96875 159 C 89.96875 159 90.96875 160 90.96875 161 L 90.96875 235 C 90.96875 236 91.96875 237 92.96875 237 L 160.6875 237 "/><path d="M 0 159 L 88.96875 159 C 89.96875 159 90.96875 160 90.96875 161 L 90.96875 235 C 90.96875 236 91.96875 237 92.96875 237 L 160.6875 237 " class="clickable"/></g><circle r="2" id="sprotty_ArchitectureBlockImpl$prim_edn_req/BPortImpl$rst_ni_to_ArchitectureBlockImpl$prim_edn_req/InstantiationBlockImpl$u_prim_sync_reqack_data/BPortImpl$rst_src_ni/junction0" transform="translate(90.96875, 159)" class="sprotty-junction junction" style="fill:rgb(112, 112, 112);stroke:none;"/></g><g id="sprotty_ArchitectureBlockImpl$prim_edn_req/BPortImpl$clk_edn_i_to_ArchitectureBlockImpl$prim_edn_req/InstantiationBlockImpl$u_prim_sync_reqack_data/BPortImpl$clk_dst_i" class="sprotty-edge edge" style="fill:none;stroke:rgb(112, 112, 112);stroke-linejoin:round;"><g><path d="M 0 265 L 160.6875 265 "/><path d="M 0 265 L 160.6875 265 " class="clickable"/></g></g><g id="sprotty_ArchitectureBlockImpl$prim_edn_req/BPortImpl$rst_edn_ni_to_ArchitectureBlockImpl$prim_edn_req/InstantiationBlockImpl$u_prim_sync_reqack_data/BPortImpl$rst_dst_ni" class="sprotty-edge edge" style="fill:none;stroke:rgb(112, 112, 112);stroke-linejoin:round;"><g><path d="M 0 299 L 138.6875 299 C 139.6875 299 140.6875 298 140.6875 297 L 140.6875 295 C 140.6875 294 141.6875 293 142.6875 293 L 160.6875 293 "/><path d="M 0 299 L 138.6875 299 C 139.6875 299 140.6875 298 140.6875 297 L 140.6875 295 C 140.6875 294 141.6875 293 142.6875 293 L 160.6875 293 " class="clickable"/></g></g><g id="sprotty_ArchitectureBlockImpl$prim_edn_req/BPortImpl$edn_i_to_ArchitectureBlockImpl$prim_edn_req/InstantiationBlockImpl$u_prim_sync_reqack_data/BPortImpl$dst_ack_i" class="sprotty-edge thick edge" style="fill:none;stroke:rgb(112, 112, 112);stroke-linejoin:round;stroke-width:3px;"><g><path d="M 0 349 L 160.6875 349 "/><path d="M 0 349 L 160.6875 349 " class="clickable"/></g></g><g id="sprotty_ArchitectureBlockImpl$prim_edn_req/BPortImpl$edn_i_to_ArchitectureBlockImpl$prim_edn_req/InstantiationBlockImpl$u_prim_sync_reqack_data/BPortImpl$data_i" class="sprotty-edge thick edge" style="fill:none;stroke:rgb(112, 112, 112);stroke-linejoin:round;stroke-width:3px;"><g><path d="M 0 349 L 148.6875 349 C 149.6875 349 150.6875 350 150.6875 351 L 150.6875 375 C 150.6875 376 151.6875 377 152.6875 377 L 160.6875 377 "/><path d="M 0 349 L 148.6875 349 C 149.6875 349 150.6875 350 150.6875 351 L 150.6875 375 C 150.6875 376 151.6875 377 152.6875 377 L 160.6875 377 " class="clickable"/></g><circle r="3" id="sprotty_ArchitectureBlockImpl$prim_edn_req/BPortImpl$edn_i_to_ArchitectureBlockImpl$prim_edn_req/InstantiationBlockImpl$u_prim_sync_reqack_data/BPortImpl$data_i/junction0" transform="translate(150.6875, 349)" class="sprotty-junction thick" style="fill:rgb(112, 112, 112);stroke:none;"/></g><g id="sprotty_ArchitectureBlockImpl$prim_edn_req/BPortImpl$clk_i_to_ArchitectureBlockImpl$prim_edn_req/InstantiationBlockImpl$u_prim_packer_fifo/BPortImpl$clk_i" class="sprotty-edge edge" style="fill:none;stroke:rgb(112, 112, 112);stroke-linejoin:round;"><g><path d="M 0 125 L 630.03125 125 "/><path d="M 0 125 L 630.03125 125 " class="clickable"/></g></g><g id="sprotty_ArchitectureBlockImpl$prim_edn_req/BPortImpl$rst_ni_to_ArchitectureBlockImpl$prim_edn_req/InstantiationBlockImpl$u_prim_packer_fifo/BPortImpl$rst_ni" class="sprotty-edge edge" style="fill:none;stroke:rgb(112, 112, 112);stroke-linejoin:round;"><g><path d="M 0 159 L 618.03125 159 C 619.03125 159 620.03125 158 620.03125 157 L 620.03125 155 C 620.03125 154 621.03125 153 622.03125 153 L 630.03125 153 "/><path d="M 0 159 L 618.03125 159 C 619.03125 159 620.03125 158 620.03125 157 L 620.03125 155 C 620.03125 154 621.03125 153 622.03125 153 L 630.03125 153 " class="clickable"/></g></g><g id="sprotty_ArchitectureBlockImpl$prim_edn_req/BPortImpl$req_i_to_ArchitectureBlockImpl$prim_edn_req/AssignmentBlockImpl$word_req/GPortImpl$req_iIN" class="sprotty-edge edge" style="fill:none;stroke:rgb(112, 112, 112);stroke-linejoin:round;"><g><path d="M 0 383 L 110.96875 383 "/><path d="M 0 383 L 110.96875 383 " class="clickable"/></g></g><g id="sprotty_ArchitectureBlockImpl$prim_edn_req/BPortImpl$ack_o_to_ArchitectureBlockImpl$prim_edn_req/AssignmentBlockImpl$word_req/GPortImpl$ack_oIN" class="sprotty-edge edge" style="fill:none;stroke:rgb(112, 112, 112);stroke-linejoin:round;"><g><path d="M 1130.578125 171.66666666666669 L 973.9375 171.66666666666669 C 972.9375 171.66666666666669 971.9375 172.66666666666669 971.9375 173.66666666666669 L 971.9375 422 C 971.9375 423 970.9375 424 969.9375 424 L 92.96875 424 C 91.96875 424 90.96875 423 90.96875 422 L 90.96875 395 C 90.96875 394 91.96875 393 92.96875 393 L 110.96875 393 "/><path d="M 1130.578125 171.66666666666669 L 973.9375 171.66666666666669 C 972.9375 171.66666666666669 971.9375 172.66666666666669 971.9375 173.66666666666669 L 971.9375 422 C 971.9375 423 970.9375 424 969.9375 424 L 92.96875 424 C 91.96875 424 90.96875 423 90.96875 422 L 90.96875 395 C 90.96875 394 91.96875 393 92.96875 393 L 110.96875 393 " class="clickable"/></g><circle r="2" id="sprotty_ArchitectureBlockImpl$prim_edn_req/BPortImpl$ack_o_to_ArchitectureBlockImpl$prim_edn_req/AssignmentBlockImpl$word_req/GPortImpl$ack_oIN/junction0" transform="translate(971.9375, 171.66666666666669)" class="sprotty-junction junction" style="fill:rgb(112, 112, 112);stroke:none;"/></g><g id="sprotty_ArchitectureBlockImpl$prim_edn_req/BPortImpl$req_i_to_ArchitectureBlockImpl$prim_edn_req/AssignmentBlockImpl$fips_d/GPortImpl$req_iIN" class="sprotty-edge edge" style="fill:none;stroke:rgb(112, 112, 112);stroke-linejoin:round;"><g><path d="M 0 383 L 98.96875 383 C 99.96875 383 100.96875 384 100.96875 385 L 100.96875 412 C 100.96875 413 101.96875 414 102.96875 414 L 598.03125 414 C 599.03125 414 600.03125 413 600.03125 412 L 600.03125 389 C 600.03125 388 601.03125 387 602.03125 387 L 776.125 387 "/><path d="M 0 383 L 98.96875 383 C 99.96875 383 100.96875 384 100.96875 385 L 100.96875 412 C 100.96875 413 101.96875 414 102.96875 414 L 598.03125 414 C 599.03125 414 600.03125 413 600.03125 412 L 600.03125 389 C 600.03125 388 601.03125 387 602.03125 387 L 776.125 387 " class="clickable"/></g><circle r="2" id="sprotty_ArchitectureBlockImpl$prim_edn_req/BPortImpl$req_i_to_ArchitectureBlockImpl$prim_edn_req/AssignmentBlockImpl$fips_d/GPortImpl$req_iIN/junction0" transform="translate(100.96875, 383)" class="sprotty-junction junction" style="fill:rgb(112, 112, 112);stroke:none;"/></g><g id="sprotty_ArchitectureBlockImpl$prim_edn_req/BPortImpl$ack_o_to_ArchitectureBlockImpl$prim_edn_req/AssignmentBlockImpl$fips_d/GPortImpl$ack_oIN" class="sprotty-edge edge" style="fill:none;stroke:rgb(112, 112, 112);stroke-linejoin:round;"><g><path d="M 1130.578125 171.66666666666669 L 973.9375 171.66666666666669 C 972.9375 171.66666666666669 971.9375 172.66666666666669 971.9375 173.66666666666669 L 971.9375 422 C 971.9375 423 970.9375 424 969.9375 424 L 612.03125 424 C 611.03125 424 610.03125 423 610.03125 422 L 610.03125 399 C 610.03125 398 611.03125 397 612.03125 397 L 776.125 397 "/><path d="M 1130.578125 171.66666666666669 L 973.9375 171.66666666666669 C 972.9375 171.66666666666669 971.9375 172.66666666666669 971.9375 173.66666666666669 L 971.9375 422 C 971.9375 423 970.9375 424 969.9375 424 L 612.03125 424 C 611.03125 424 610.03125 423 610.03125 422 L 610.03125 399 C 610.03125 398 611.03125 397 612.03125 397 L 776.125 397 " class="clickable"/></g><circle r="2" id="sprotty_ArchitectureBlockImpl$prim_edn_req/BPortImpl$ack_o_to_ArchitectureBlockImpl$prim_edn_req/AssignmentBlockImpl$fips_d/GPortImpl$ack_oIN/junction0" transform="translate(610.03125, 424)" class="sprotty-junction junction" style="fill:rgb(112, 112, 112);stroke:none;"/></g><g id="sprotty_ArchitectureBlockImpl$prim_edn_req/BPortImpl$clk_i_to_ArchitectureBlockImpl$prim_edn_req/AlwaysBlockImpl$null10/GPortImpl$clk_iIN" class="sprotty-edge edge" style="fill:none;stroke:rgb(112, 112, 112);stroke-linejoin:round;"><g><path d="M 0 125 L 98.96875 125 C 99.96875 125 100.96875 124 100.96875 123 L 100.96875 67 C 100.96875 66 101.96875 65 102.96875 65 L 981.9375 65 "/><path d="M 0 125 L 98.96875 125 C 99.96875 125 100.96875 124 100.96875 123 L 100.96875 67 C 100.96875 66 101.96875 65 102.96875 65 L 981.9375 65 " class="clickable"/></g></g><g id="sprotty_ArchitectureBlockImpl$prim_edn_req/BPortImpl$rst_ni_to_ArchitectureBlockImpl$prim_edn_req/AlwaysBlockImpl$null10/GPortImpl$rst_niIN" class="sprotty-edge edge" style="fill:none;stroke:rgb(112, 112, 112);stroke-linejoin:round;"><g><path d="M 0 159 L 88.96875 159 C 89.96875 159 90.96875 158 90.96875 157 L 90.96875 77 C 90.96875 76 91.96875 75 92.96875 75 L 981.9375 75 "/><path d="M 0 159 L 88.96875 159 C 89.96875 159 90.96875 158 90.96875 157 L 90.96875 77 C 90.96875 76 91.96875 75 92.96875 75 L 981.9375 75 " class="clickable"/></g></g><g id="sprotty_ArchitectureBlockImpl$prim_edn_req/AssignmentBlockImpl$word_req/GPortImpl$ack_oOUT_to_ArchitectureBlockImpl$prim_edn_req/InstantiationBlockImpl$u_prim_sync_reqack_data/BPortImpl$src_req_i" class="sprotty-edge edge" style="fill:none;stroke:rgb(112, 112, 112);stroke-linejoin:round;"><g><path d="M 130.6875 388 L 138.6875 388 C 139.6875 388 140.6875 387 140.6875 386 L 140.6875 323 C 140.6875 322 141.6875 321 142.6875 321 L 160.6875 321 "/><path d="M 130.6875 388 L 138.6875 388 C 139.6875 388 140.6875 387 140.6875 386 L 140.6875 323 C 140.6875 322 141.6875 321 142.6875 321 L 160.6875 321 " class="clickable"/></g></g><g id="sprotty_ArchitectureBlockImpl$prim_edn_req/InstantiationBlockImpl$u_prim_sync_reqack_data/BPortImpl$src_ack_o_to_ArchitectureBlockImpl$prim_edn_req/InstantiationBlockImpl$u_prim_packer_fifo/BPortImpl$wvalid_i" class="sprotty-edge edge" style="fill:none;stroke:rgb(112, 112, 112);stroke-linejoin:round;"><g><path d="M 580.03125 209 L 630.03125 209 "/><path d="M 580.03125 209 L 630.03125 209 " class="clickable"/></g></g><g id="sprotty_ArchitectureBlockImpl$prim_edn_req/InstantiationBlockImpl$u_prim_sync_reqack_data/BPortImpl$src_ack_o_to_ArchitectureBlockImpl$prim_edn_req/AssignmentBlockImpl$fips_d/GPortImpl$word_ackIN" class="sprotty-edge edge" style="fill:none;stroke:rgb(112, 112, 112);stroke-linejoin:round;"><g><path d="M 580.03125 209 L 598.03125 209 C 599.03125 209 600.03125 210 600.03125 211 L 600.03125 365 C 600.03125 366 601.03125 367 602.03125 367 L 776.125 367 "/><path d="M 580.03125 209 L 598.03125 209 C 599.03125 209 600.03125 210 600.03125 211 L 600.03125 365 C 600.03125 366 601.03125 367 602.03125 367 L 776.125 367 " class="clickable"/></g><circle r="2" id="sprotty_ArchitectureBlockImpl$prim_edn_req/InstantiationBlockImpl$u_prim_sync_reqack_data/BPortImpl$src_ack_o_to_ArchitectureBlockImpl$prim_edn_req/AssignmentBlockImpl$fips_d/GPortImpl$word_ackIN/junction0" transform="translate(600.03125, 209)" class="sprotty-junction junction" style="fill:rgb(112, 112, 112);stroke:none;"/></g><g id="sprotty_ArchitectureBlockImpl$prim_edn_req/InstantiationBlockImpl$u_prim_sync_reqack_data/BPortImpl$data_o_to_ArchitectureBlockImpl$prim_edn_req/InstantiationBlockImpl$u_prim_packer_fifo/BPortImpl$wdata_i" class="sprotty-edge thick edge" style="fill:none;stroke:rgb(112, 112, 112);stroke-linejoin:round;stroke-width:3px;"><g><path d="M 580.03125 377 L 618.03125 377 C 619.03125 377 620.03125 376 620.03125 375 L 620.03125 239 C 620.03125 238 621.03125 237 622.03125 237 L 630.03125 237 "/><path d="M 580.03125 377 L 618.03125 377 C 619.03125 377 620.03125 376 620.03125 375 L 620.03125 239 C 620.03125 238 621.03125 237 622.03125 237 L 630.03125 237 " class="clickable"/></g><circle r="3" id="sprotty_ArchitectureBlockImpl$prim_edn_req/InstantiationBlockImpl$u_prim_sync_reqack_data/BPortImpl$data_o_to_ArchitectureBlockImpl$prim_edn_req/InstantiationBlockImpl$u_prim_packer_fifo/BPortImpl$wdata_i/junction0" transform="translate(620.03125, 377)" class="sprotty-junction thick" style="fill:rgb(112, 112, 112);stroke:none;"/></g><g id="sprotty_ArchitectureBlockImpl$prim_edn_req/InstantiationBlockImpl$u_prim_sync_reqack_data/BPortImpl$data_o_to_ArchitectureBlockImpl$prim_edn_req/AssignmentBlockImpl$fips_d/GPortImpl$word_fipsIN" class="sprotty-edge edge" style="fill:none;stroke:rgb(112, 112, 112);stroke-linejoin:round;"><g><path d="M 580.03125 377 L 776.125 377 "/><path d="M 580.03125 377 L 776.125 377 " class="clickable"/></g></g><g id="sprotty_ArchitectureBlockImpl$prim_edn_req/AssignmentBlockImpl$fips_d/GPortImpl$fips_qOUT_to_ArchitectureBlockImpl$prim_edn_req/AlwaysBlockImpl$null10/GPortImpl$fips_dIN" class="sprotty-edge edge" style="fill:none;stroke:rgb(112, 112, 112);stroke-linejoin:round;"><g><path d="M 795.84375 377 L 959.9375 377 C 960.9375 377 961.9375 376 961.9375 375 L 961.9375 87 C 961.9375 86 962.9375 85 963.9375 85 L 981.9375 85 "/><path d="M 795.84375 377 L 959.9375 377 C 960.9375 377 961.9375 376 961.9375 375 L 961.9375 87 C 961.9375 86 962.9375 85 963.9375 85 L 981.9375 85 " class="clickable"/></g></g><g id="sprotty_ArchitectureBlockImpl$prim_edn_req/AlwaysBlockImpl$null10/GPortImpl$fips_qOUT_to_ArchitectureBlockImpl$prim_edn_req/AssignmentBlockImpl$fips_d/GPortImpl$fips_qIN" class="sprotty-edge edge" style="fill:none;stroke:rgb(112, 112, 112);stroke-linejoin:round;"><g><path d="M 1030.828125 75 L 1038.828125 75 C 1039.828125 75 1040.828125 74 1040.828125 73 L 1040.828125 47 C 1040.828125 46 1039.828125 45 1038.828125 45 L 612.03125 45 C 611.03125 45 610.03125 46 610.03125 47 L 610.03125 355 C 610.03125 356 611.03125 357 612.03125 357 L 776.125 357 "/><path d="M 1030.828125 75 L 1038.828125 75 C 1039.828125 75 1040.828125 74 1040.828125 73 L 1040.828125 47 C 1040.828125 46 1039.828125 45 1038.828125 45 L 612.03125 45 C 611.03125 45 610.03125 46 610.03125 47 L 610.03125 355 C 610.03125 356 611.03125 357 612.03125 357 L 776.125 357 " class="clickable"/></g><circle r="2" id="sprotty_ArchitectureBlockImpl$prim_edn_req/AlwaysBlockImpl$null10/GPortImpl$fips_qOUT_to_ArchitectureBlockImpl$prim_edn_req/AssignmentBlockImpl$fips_d/GPortImpl$fips_qIN/junction0" transform="translate(1040.828125, 75)" class="sprotty-junction junction" style="fill:rgb(112, 112, 112);stroke:none;"/></g><g id="sprotty_ArchitectureBlockImpl$prim_edn_req/AlwaysBlockImpl$null10/GPortImpl$fips_qOUT_to_ArchitectureBlockImpl$prim_edn_req/AssignmentBlockImpl$fips_o/GPortImpl$fips_qIN" class="sprotty-edge edge" style="fill:none;stroke:rgb(112, 112, 112);stroke-linejoin:round;"><g><path d="M 1030.828125 75 L 1050.828125 75 "/><path d="M 1030.828125 75 L 1050.828125 75 " class="clickable"/></g></g><g id="sprotty_ArchitectureBlockImpl$prim_edn_req/AlwaysBlockImpl$null10" transform="translate(981.9375, 55)" class="statement"><rect x="0" y="0" rx="10" ry="5" width="48.890625" height="40" class="sprotty-node" style="fill:rgb(245, 245, 245);stroke:rgb(112, 112, 112);"/><text class="clickable sprotty-label statementtype" id="sprotty_ArchitectureBlockImpl$prim_edn_req/AlwaysBlockImpl$null10/labeltype" transform="translate(5, 14) translate(18.828125, 9)" style="cursor:default;font-size:8px;font-weight:700;perspective-origin:0.609375px 0px;fill:rgb(112, 112, 112);text-anchor:middle;">always_ff</text><g id="sprotty_ArchitectureBlockImpl$prim_edn_req/AlwaysBlockImpl$null10/GPortImpl$fips_dIN" transform="translate(0, 30)" class="sprotty-hidden hidden" style="display:block;height:0px;width:0px;"/><g id="sprotty_ArchitectureBlockImpl$prim_edn_req/AlwaysBlockImpl$null10/GPortImpl$rst_niIN" transform="translate(0, 20)" class="sprotty-hidden hidden" style="display:block;height:0px;width:0px;"/><g id="sprotty_ArchitectureBlockImpl$prim_edn_req/AlwaysBlockImpl$null10/GPortImpl$clk_iIN" transform="translate(0, 10)" class="sprotty-hidden hidden" style="display:block;height:0px;width:0px;"/><g id="sprotty_ArchitectureBlockImpl$prim_edn_req/AlwaysBlockImpl$null10/GPortImpl$fips_qOUT" transform="translate(48.890625, 20)" class="sprotty-hidden hidden" style="display:block;height:0px;width:0px;"/></g><g id="sprotty_ArchitectureBlockImpl$prim_edn_req/AssignmentBlockImpl$fips_o" transform="translate(1050.828125, 64)" class="statement"><rect x="0" y="0" rx="10" ry="5" width="19.71875" height="22" class="sprotty-node" style="fill:rgb(245, 245, 245);stroke:rgb(112, 112, 112);"/><text class="clickable sprotty-label statementtype" id="sprotty_ArchitectureBlockImpl$prim_edn_req/AssignmentBlockImpl$fips_o/labeltype" transform="translate(5, 5) translate(4.71875, 9)" style="cursor:default;font-size:8px;font-weight:700;perspective-origin:0.140625px 0px;fill:rgb(112, 112, 112);text-anchor:middle;">&lt;=</text><g id="sprotty_ArchitectureBlockImpl$prim_edn_req/AssignmentBlockImpl$fips_o/GPortImpl$fips_qIN" transform="translate(0, 11)" class="sprotty-hidden hidden" style="display:block;height:0px;width:0px;"/><g id="sprotty_ArchitectureBlockImpl$prim_edn_req/AssignmentBlockImpl$fips_o/GPortImpl$fips_oOUT" transform="translate(19.71875, 11)" class="sprotty-hidden hidden" style="display:block;height:0px;width:0px;"/></g><g id="sprotty_ArchitectureBlockImpl$prim_edn_req/AssignmentBlockImpl$fips_d" transform="translate(776.125, 347)" class="statement"><rect x="0" y="0" rx="10" ry="5" width="19.71875" height="60" class="sprotty-node" style="fill:rgb(245, 245, 245);stroke:rgb(112, 112, 112);"/><text class="clickable sprotty-label statementtype" id="sprotty_ArchitectureBlockImpl$prim_edn_req/AssignmentBlockImpl$fips_d/labeltype" transform="translate(5, 24) translate(4.71875, 9)" style="cursor:default;font-size:8px;font-weight:700;perspective-origin:0.140625px 0px;fill:rgb(112, 112, 112);text-anchor:middle;">&lt;=</text><g id="sprotty_ArchitectureBlockImpl$prim_edn_req/AssignmentBlockImpl$fips_d/GPortImpl$word_fipsIN" transform="translate(0, 30)" class="sprotty-hidden hidden" style="display:block;height:0px;width:0px;"/><g id="sprotty_ArchitectureBlockImpl$prim_edn_req/AssignmentBlockImpl$fips_d/GPortImpl$fips_qIN" transform="translate(0, 10)" class="sprotty-hidden hidden" style="display:block;height:0px;width:0px;"/><g id="sprotty_ArchitectureBlockImpl$prim_edn_req/AssignmentBlockImpl$fips_d/GPortImpl$word_ackIN" transform="translate(0, 20)" class="sprotty-hidden hidden" style="display:block;height:0px;width:0px;"/><g id="sprotty_ArchitectureBlockImpl$prim_edn_req/AssignmentBlockImpl$fips_d/GPortImpl$ack_oIN" transform="translate(0, 50)" class="sprotty-hidden hidden" style="display:block;height:0px;width:0px;"/><g id="sprotty_ArchitectureBlockImpl$prim_edn_req/AssignmentBlockImpl$fips_d/GPortImpl$req_iIN" transform="translate(0, 40)" class="sprotty-hidden hidden" style="display:block;height:0px;width:0px;"/><g id="sprotty_ArchitectureBlockImpl$prim_edn_req/AssignmentBlockImpl$fips_d/GPortImpl$fips_qOUT" transform="translate(19.71875, 30)" class="sprotty-hidden hidden" style="display:block;height:0px;width:0px;"/></g><g id="sprotty_ArchitectureBlockImpl$prim_edn_req/AssignmentBlockImpl$word_req" transform="translate(110.96875, 373)" class="statement"><rect x="0" y="0" rx="10" ry="5" width="19.71875" height="30" class="sprotty-node" style="fill:rgb(245, 245, 245);stroke:rgb(112, 112, 112);"/><text class="clickable sprotty-label statementtype" id="sprotty_ArchitectureBlockImpl$prim_edn_req/AssignmentBlockImpl$word_req/labeltype" transform="translate(5, 9) translate(4.71875, 9)" style="cursor:default;font-size:8px;font-weight:700;perspective-origin:0.140625px 0px;fill:rgb(112, 112, 112);text-anchor:middle;">&lt;=</text><g id="sprotty_ArchitectureBlockImpl$prim_edn_req/AssignmentBlockImpl$word_req/GPortImpl$ack_oIN" transform="translate(0, 20)" class="sprotty-hidden hidden" style="display:block;height:0px;width:0px;"/><g id="sprotty_ArchitectureBlockImpl$prim_edn_req/AssignmentBlockImpl$word_req/GPortImpl$req_iIN" transform="translate(0, 10)" class="sprotty-hidden hidden" style="display:block;height:0px;width:0px;"/><g id="sprotty_ArchitectureBlockImpl$prim_edn_req/AssignmentBlockImpl$word_req/GPortImpl$ack_oOUT" transform="translate(19.71875, 15)" class="sprotty-hidden hidden" style="display:block;height:0px;width:0px;"/></g><g id="sprotty_ArchitectureBlockImpl$prim_edn_req/InstantiationBlockImpl$u_prim_packer_fifo" transform="translate(630.03125, 87)" class="instantiation"><g class="sprotty-block" style="fill:rgb(255, 255, 255);stroke:rgb(48, 48, 48);stroke-dasharray:0px;"><rect x="0" y="0" rx="1" ry="1" width="311.90625" height="196"/><text x="155.953125" y="12" class="sprotty-block-name" style="cursor:pointer;font-weight:700;perspective-origin:155.953px 0px;fill:rgb(48, 48, 48);stroke:rgba(0, 0, 0, 0);dominant-baseline:middle;text-anchor:middle;">u_prim_packer_fifo : prim_packer_fifo</text><line x1="0" y1="20" x2="311.90625" y2="20"/></g><g id="sprotty_ArchitectureBlockImpl$prim_edn_req/InstantiationBlockImpl$u_prim_packer_fifo/BPortImpl$rready_i" transform="translate(0, 178)" class="triangle"><path d="M 0,0 L 5,2.5 L 0,5 Z" transform="translate(-1.67, -2.5)" class="sprotty-port" style="fill:rgb(48, 48, 48);stroke:rgb(48, 48, 48);"/><text class="clickable sprotty-label port" id="sprotty_ArchitectureBlockImpl$prim_edn_req/InstantiationBlockImpl$u_prim_packer_fifo/BPortImpl$rready_i/label" transform="translate(6, -9) translate(23.0625, 14)" style="cursor:default;font-size:12px;perspective-origin:0px 0px;fill:rgb(48, 48, 48);text-anchor:middle;">rready_i</text></g><g id="sprotty_ArchitectureBlockImpl$prim_edn_req/InstantiationBlockImpl$u_prim_packer_fifo/BPortImpl$wdata_i" transform="translate(0, 150)" class="triangle"><path d="M 0,0 L 5,2.5 L 0,5 Z" transform="translate(-1.67, -2.5)" class="sprotty-port" style="fill:rgb(48, 48, 48);stroke:rgb(48, 48, 48);"/><text class="clickable sprotty-label port" id="sprotty_ArchitectureBlockImpl$prim_edn_req/InstantiationBlockImpl$u_prim_packer_fifo/BPortImpl$wdata_i/label" transform="translate(6, -9) translate(22.3125, 14)" style="cursor:default;font-size:12px;perspective-origin:0px 0px;fill:rgb(48, 48, 48);text-anchor:middle;">wdata_i</text></g><g id="sprotty_ArchitectureBlockImpl$prim_edn_req/InstantiationBlockImpl$u_prim_packer_fifo/BPortImpl$wvalid_i" transform="translate(0, 122)" class="triangle"><path d="M 0,0 L 5,2.5 L 0,5 Z" transform="translate(-1.67, -2.5)" class="sprotty-port" style="fill:rgb(48, 48, 48);stroke:rgb(48, 48, 48);"/><text class="clickable sprotty-label port" id="sprotty_ArchitectureBlockImpl$prim_edn_req/InstantiationBlockImpl$u_prim_packer_fifo/BPortImpl$wvalid_i/label" transform="translate(6, -9) translate(23.28125, 14)" style="cursor:default;font-size:12px;perspective-origin:0px 0px;fill:rgb(48, 48, 48);text-anchor:middle;">wvalid_i</text></g><g id="sprotty_ArchitectureBlockImpl$prim_edn_req/InstantiationBlockImpl$u_prim_packer_fifo/BPortImpl$clr_i" transform="translate(0, 94)" class="triangle"><path d="M 0,0 L 5,2.5 L 0,5 Z" transform="translate(-1.67, -2.5)" class="sprotty-port" style="fill:rgb(48, 48, 48);stroke:rgb(48, 48, 48);"/><text class="clickable sprotty-label port" id="sprotty_ArchitectureBlockImpl$prim_edn_req/InstantiationBlockImpl$u_prim_packer_fifo/BPortImpl$clr_i/label" transform="translate(6, -9) translate(12.109375, 14)" style="cursor:default;font-size:12px;perspective-origin:0px 0px;fill:rgb(48, 48, 48);text-anchor:middle;">clr_i</text></g><g id="sprotty_ArchitectureBlockImpl$prim_edn_req/InstantiationBlockImpl$u_prim_packer_fifo/BPortImpl$rst_ni" transform="translate(0, 66)" class="triangle"><path d="M 0,0 L 5,2.5 L 0,5 Z" transform="translate(-1.67, -2.5)" class="sprotty-port" style="fill:rgb(48, 48, 48);stroke:rgb(48, 48, 48);"/><text class="clickable sprotty-label port" id="sprotty_ArchitectureBlockImpl$prim_edn_req/InstantiationBlockImpl$u_prim_packer_fifo/BPortImpl$rst_ni/label" transform="translate(6, -9) translate(15.921875, 14)" style="cursor:default;font-size:12px;perspective-origin:0px 0px;fill:rgb(48, 48, 48);text-anchor:middle;">rst_ni</text></g><g id="sprotty_ArchitectureBlockImpl$prim_edn_req/InstantiationBlockImpl$u_prim_packer_fifo/BPortImpl$clk_i" transform="translate(0, 38)" class="triangle"><path d="M 0,0 L 5,2.5 L 0,5 Z" transform="translate(-1.67, -2.5)" class="sprotty-port" style="fill:rgb(48, 48, 48);stroke:rgb(48, 48, 48);"/><text class="clickable sprotty-label port" id="sprotty_ArchitectureBlockImpl$prim_edn_req/InstantiationBlockImpl$u_prim_packer_fifo/BPortImpl$clk_i/label" transform="translate(6, -9) translate(13.09375, 14)" style="cursor:default;font-size:12px;perspective-origin:0px 0px;fill:rgb(48, 48, 48);text-anchor:middle;">clk_i</text></g><g id="sprotty_ArchitectureBlockImpl$prim_edn_req/InstantiationBlockImpl$u_prim_packer_fifo/BPortImpl$wready_o" transform="translate(311.90625, 38)" class="triangle"><path d="M 0,0 L 5,2.5 L 0,5 Z" transform="translate(-1.67, -2.5)" class="sprotty-port" style="fill:rgb(48, 48, 48);stroke:rgb(48, 48, 48);"/><text class="clickable sprotty-label port" id="sprotty_ArchitectureBlockImpl$prim_edn_req/InstantiationBlockImpl$u_prim_packer_fifo/BPortImpl$wready_o/label" transform="translate(-61.0625, -9) translate(27.53125, 14)" style="cursor:default;font-size:12px;perspective-origin:0px 0px;fill:rgb(48, 48, 48);text-anchor:middle;">wready_o</text></g><g id="sprotty_ArchitectureBlockImpl$prim_edn_req/InstantiationBlockImpl$u_prim_packer_fifo/BPortImpl$rvalid_o" transform="translate(311.90625, 84.66666666666667)" class="triangle"><path d="M 0,0 L 5,2.5 L 0,5 Z" transform="translate(-1.67, -2.5)" class="sprotty-port" style="fill:rgb(48, 48, 48);stroke:rgb(48, 48, 48);"/><text class="clickable sprotty-label port" id="sprotty_ArchitectureBlockImpl$prim_edn_req/InstantiationBlockImpl$u_prim_packer_fifo/BPortImpl$rvalid_o/label" transform="translate(-51.90625, -9) translate(22.953125, 14)" style="cursor:default;font-size:12px;perspective-origin:0px 0px;fill:rgb(48, 48, 48);text-anchor:middle;">rvalid_o</text></g><g id="sprotty_ArchitectureBlockImpl$prim_edn_req/InstantiationBlockImpl$u_prim_packer_fifo/BPortImpl$rdata_o" transform="translate(311.90625, 131.33333333333334)" class="triangle"><path d="M 0,0 L 5,2.5 L 0,5 Z" transform="translate(-1.67, -2.5)" class="sprotty-port" style="fill:rgb(48, 48, 48);stroke:rgb(48, 48, 48);"/><text class="clickable sprotty-label port" id="sprotty_ArchitectureBlockImpl$prim_edn_req/InstantiationBlockImpl$u_prim_packer_fifo/BPortImpl$rdata_o/label" transform="translate(-49.5625, -9) translate(21.78125, 14)" style="cursor:default;font-size:12px;perspective-origin:0px 0px;fill:rgb(48, 48, 48);text-anchor:middle;">rdata_o</text></g><g id="sprotty_ArchitectureBlockImpl$prim_edn_req/InstantiationBlockImpl$u_prim_packer_fifo/BPortImpl$depth_o" transform="translate(311.90625, 178)" class="triangle"><path d="M 0,0 L 5,2.5 L 0,5 Z" transform="translate(-1.67, -2.5)" class="sprotty-port" style="fill:rgb(48, 48, 48);stroke:rgb(48, 48, 48);"/><text class="clickable sprotty-label port" id="sprotty_ArchitectureBlockImpl$prim_edn_req/InstantiationBlockImpl$u_prim_packer_fifo/BPortImpl$depth_o/label" transform="translate(-53.09375, -9) translate(23.546875, 14)" style="cursor:default;font-size:12px;perspective-origin:0px 0px;fill:rgb(48, 48, 48);text-anchor:middle;">depth_o</text></g></g><g id="sprotty_ArchitectureBlockImpl$prim_edn_req/InstantiationBlockImpl$u_prim_sync_reqack_data" transform="translate(160.6875, 171)" class="instantiation"><g class="sprotty-block" style="fill:rgb(255, 255, 255);stroke:rgb(48, 48, 48);stroke-dasharray:0px;"><rect x="0" y="0" rx="1" ry="1" width="419.34375" height="224"/><text x="209.671875" y="12" class="sprotty-block-name" style="cursor:pointer;font-weight:700;perspective-origin:209.672px 0px;fill:rgb(48, 48, 48);stroke:rgba(0, 0, 0, 0);dominant-baseline:middle;text-anchor:middle;">u_prim_sync_reqack_data : prim_sync_reqack_data</text><line x1="0" y1="20" x2="419.34375" y2="20"/></g><g id="sprotty_ArchitectureBlockImpl$prim_edn_req/InstantiationBlockImpl$u_prim_sync_reqack_data/BPortImpl$data_i" transform="translate(0, 206)" class="triangle"><path d="M 0,0 L 5,2.5 L 0,5 Z" transform="translate(-1.67, -2.5)" class="sprotty-port" style="fill:rgb(48, 48, 48);stroke:rgb(48, 48, 48);"/><text class="clickable sprotty-label port" id="sprotty_ArchitectureBlockImpl$prim_edn_req/InstantiationBlockImpl$u_prim_sync_reqack_data/BPortImpl$data_i/label" transform="translate(6, -9) translate(17.53125, 14)" style="cursor:default;font-size:12px;perspective-origin:0px 0px;fill:rgb(48, 48, 48);text-anchor:middle;">data_i</text></g><g id="sprotty_ArchitectureBlockImpl$prim_edn_req/InstantiationBlockImpl$u_prim_sync_reqack_data/BPortImpl$dst_ack_i" transform="translate(0, 178)" class="triangle"><path d="M 0,0 L 5,2.5 L 0,5 Z" transform="translate(-1.67, -2.5)" class="sprotty-port" style="fill:rgb(48, 48, 48);stroke:rgb(48, 48, 48);"/><text class="clickable sprotty-label port" id="sprotty_ArchitectureBlockImpl$prim_edn_req/InstantiationBlockImpl$u_prim_sync_reqack_data/BPortImpl$dst_ack_i/label" transform="translate(6, -9) translate(26.78125, 14)" style="cursor:default;font-size:12px;perspective-origin:0px 0px;fill:rgb(48, 48, 48);text-anchor:middle;">dst_ack_i</text></g><g id="sprotty_ArchitectureBlockImpl$prim_edn_req/InstantiationBlockImpl$u_prim_sync_reqack_data/BPortImpl$src_req_i" transform="translate(0, 150)" class="triangle"><path d="M 0,0 L 5,2.5 L 0,5 Z" transform="translate(-1.67, -2.5)" class="sprotty-port" style="fill:rgb(48, 48, 48);stroke:rgb(48, 48, 48);"/><text class="clickable sprotty-label port" id="sprotty_ArchitectureBlockImpl$prim_edn_req/InstantiationBlockImpl$u_prim_sync_reqack_data/BPortImpl$src_req_i/label" transform="translate(6, -9) translate(25.796875, 14)" style="cursor:default;font-size:12px;perspective-origin:0px 0px;fill:rgb(48, 48, 48);text-anchor:middle;">src_req_i</text></g><g id="sprotty_ArchitectureBlockImpl$prim_edn_req/InstantiationBlockImpl$u_prim_sync_reqack_data/BPortImpl$rst_dst_ni" transform="translate(0, 122)" class="triangle"><path d="M 0,0 L 5,2.5 L 0,5 Z" transform="translate(-1.67, -2.5)" class="sprotty-port" style="fill:rgb(48, 48, 48);stroke:rgb(48, 48, 48);"/><text class="clickable sprotty-label port" id="sprotty_ArchitectureBlockImpl$prim_edn_req/InstantiationBlockImpl$u_prim_sync_reqack_data/BPortImpl$rst_dst_ni/label" transform="translate(6, -9) translate(27.9375, 14)" style="cursor:default;font-size:12px;perspective-origin:0px 0px;fill:rgb(48, 48, 48);text-anchor:middle;">rst_dst_ni</text></g><g id="sprotty_ArchitectureBlockImpl$prim_edn_req/InstantiationBlockImpl$u_prim_sync_reqack_data/BPortImpl$clk_dst_i" transform="translate(0, 94)" class="triangle"><path d="M 0,0 L 5,2.5 L 0,5 Z" transform="translate(-1.67, -2.5)" class="sprotty-port" style="fill:rgb(48, 48, 48);stroke:rgb(48, 48, 48);"/><text class="clickable sprotty-label port" id="sprotty_ArchitectureBlockImpl$prim_edn_req/InstantiationBlockImpl$u_prim_sync_reqack_data/BPortImpl$clk_dst_i/label" transform="translate(6, -9) translate(25.09375, 14)" style="cursor:default;font-size:12px;perspective-origin:0px 0px;fill:rgb(48, 48, 48);text-anchor:middle;">clk_dst_i</text></g><g id="sprotty_ArchitectureBlockImpl$prim_edn_req/InstantiationBlockImpl$u_prim_sync_reqack_data/BPortImpl$rst_src_ni" transform="translate(0, 66)" class="triangle"><path d="M 0,0 L 5,2.5 L 0,5 Z" transform="translate(-1.67, -2.5)" class="sprotty-port" style="fill:rgb(48, 48, 48);stroke:rgb(48, 48, 48);"/><text class="clickable sprotty-label port" id="sprotty_ArchitectureBlockImpl$prim_edn_req/InstantiationBlockImpl$u_prim_sync_reqack_data/BPortImpl$rst_src_ni/label" transform="translate(6, -9) translate(27.390625, 14)" style="cursor:default;font-size:12px;perspective-origin:0px 0px;fill:rgb(48, 48, 48);text-anchor:middle;">rst_src_ni</text></g><g id="sprotty_ArchitectureBlockImpl$prim_edn_req/InstantiationBlockImpl$u_prim_sync_reqack_data/BPortImpl$clk_src_i" transform="translate(0, 38)" class="triangle"><path d="M 0,0 L 5,2.5 L 0,5 Z" transform="translate(-1.67, -2.5)" class="sprotty-port" style="fill:rgb(48, 48, 48);stroke:rgb(48, 48, 48);"/><text class="clickable sprotty-label port" id="sprotty_ArchitectureBlockImpl$prim_edn_req/InstantiationBlockImpl$u_prim_sync_reqack_data/BPortImpl$clk_src_i/label" transform="translate(6, -9) translate(24.5625, 14)" style="cursor:default;font-size:12px;perspective-origin:0px 0px;fill:rgb(48, 48, 48);text-anchor:middle;">clk_src_i</text></g><g id="sprotty_ArchitectureBlockImpl$prim_edn_req/InstantiationBlockImpl$u_prim_sync_reqack_data/BPortImpl$src_ack_o" transform="translate(419.34375, 38)" class="triangle"><path d="M 0,0 L 5,2.5 L 0,5 Z" transform="translate(-1.67, -2.5)" class="sprotty-port" style="fill:rgb(48, 48, 48);stroke:rgb(48, 48, 48);"/><text class="clickable sprotty-label port" id="sprotty_ArchitectureBlockImpl$prim_edn_req/InstantiationBlockImpl$u_prim_sync_reqack_data/BPortImpl$src_ack_o/label" transform="translate(-62.4375, -9) translate(28.21875, 14)" style="cursor:default;font-size:12px;perspective-origin:0px 0px;fill:rgb(48, 48, 48);text-anchor:middle;">src_ack_o</text></g><g id="sprotty_ArchitectureBlockImpl$prim_edn_req/InstantiationBlockImpl$u_prim_sync_reqack_data/BPortImpl$dst_req_o" transform="translate(419.34375, 122)" class="triangle"><path d="M 0,0 L 5,2.5 L 0,5 Z" transform="translate(-1.67, -2.5)" class="sprotty-port" style="fill:rgb(48, 48, 48);stroke:rgb(48, 48, 48);"/><text class="clickable sprotty-label port" id="sprotty_ArchitectureBlockImpl$prim_edn_req/InstantiationBlockImpl$u_prim_sync_reqack_data/BPortImpl$dst_req_o/label" transform="translate(-62.625, -9) translate(28.3125, 14)" style="cursor:default;font-size:12px;perspective-origin:0px 0px;fill:rgb(48, 48, 48);text-anchor:middle;">dst_req_o</text></g><g id="sprotty_ArchitectureBlockImpl$prim_edn_req/InstantiationBlockImpl$u_prim_sync_reqack_data/BPortImpl$data_o" transform="translate(419.34375, 206)" class="triangle"><path d="M 0,0 L 5,2.5 L 0,5 Z" transform="translate(-1.67, -2.5)" class="sprotty-port" style="fill:rgb(48, 48, 48);stroke:rgb(48, 48, 48);"/><text class="clickable sprotty-label port" id="sprotty_ArchitectureBlockImpl$prim_edn_req/InstantiationBlockImpl$u_prim_sync_reqack_data/BPortImpl$data_o/label" transform="translate(-45.03125, -9) translate(19.515625, 14)" style="cursor:default;font-size:12px;perspective-origin:0px 0px;fill:rgb(48, 48, 48);text-anchor:middle;">data_o</text></g></g><g id="sprotty_ArchitectureBlockImpl$prim_edn_req/BPortImpl$edn_i" transform="translate(0, 349)" class="triangle"><path d="M 0,0 L 5,2.5 L 0,5 Z" transform="translate(-1.67, -2.5)" class="sprotty-port" style="fill:rgb(48, 48, 48);stroke:rgb(48, 48, 48);"/><text class="clickable sprotty-label port" id="sprotty_ArchitectureBlockImpl$prim_edn_req/BPortImpl$edn_i/label" transform="translate(6, 6) translate(15.71875, 14)" style="cursor:default;font-size:12px;perspective-origin:0px 0px;fill:rgb(48, 48, 48);text-anchor:middle;">edn_i</text></g><g id="sprotty_ArchitectureBlockImpl$prim_edn_req/BPortImpl$rst_edn_ni" transform="translate(0, 299)" class="triangle"><path d="M 0,0 L 5,2.5 L 0,5 Z" transform="translate(-1.67, -2.5)" class="sprotty-port" style="fill:rgb(48, 48, 48);stroke:rgb(48, 48, 48);"/><text class="clickable sprotty-label port" id="sprotty_ArchitectureBlockImpl$prim_edn_req/BPortImpl$rst_edn_ni/label" transform="translate(6, 6) translate(29.984375, 14)" style="cursor:default;font-size:12px;perspective-origin:0px 0px;fill:rgb(48, 48, 48);text-anchor:middle;">rst_edn_ni</text></g><g id="sprotty_ArchitectureBlockImpl$prim_edn_req/BPortImpl$clk_edn_i" transform="translate(0, 265)" class="triangle"><path d="M 0,0 L 5,2.5 L 0,5 Z" transform="translate(-1.67, -2.5)" class="sprotty-port" style="fill:rgb(48, 48, 48);stroke:rgb(48, 48, 48);"/><text class="clickable sprotty-label port" id="sprotty_ArchitectureBlockImpl$prim_edn_req/BPortImpl$clk_edn_i/label" transform="translate(6, 6) translate(27.15625, 14)" style="cursor:default;font-size:12px;perspective-origin:0px 0px;fill:rgb(48, 48, 48);text-anchor:middle;">clk_edn_i</text></g><g id="sprotty_ArchitectureBlockImpl$prim_edn_req/BPortImpl$req_i" transform="translate(0, 383)" class="triangle"><path d="M 0,0 L 5,2.5 L 0,5 Z" transform="translate(-1.67, -2.5)" class="sprotty-port" style="fill:rgb(48, 48, 48);stroke:rgb(48, 48, 48);"/><text class="clickable sprotty-label port" id="sprotty_ArchitectureBlockImpl$prim_edn_req/BPortImpl$req_i/label" transform="translate(6, 6) translate(14.3125, 14)" style="cursor:default;font-size:12px;perspective-origin:0px 0px;fill:rgb(48, 48, 48);text-anchor:middle;">req_i</text></g><g id="sprotty_ArchitectureBlockImpl$prim_edn_req/BPortImpl$rst_ni" transform="translate(0, 159)" class="triangle"><path d="M 0,0 L 5,2.5 L 0,5 Z" transform="translate(-1.67, -2.5)" class="sprotty-port" style="fill:rgb(48, 48, 48);stroke:rgb(48, 48, 48);"/><text class="clickable sprotty-label port" id="sprotty_ArchitectureBlockImpl$prim_edn_req/BPortImpl$rst_ni/label" transform="translate(6, 6) translate(15.921875, 14)" style="cursor:default;font-size:12px;perspective-origin:0px 0px;fill:rgb(48, 48, 48);text-anchor:middle;">rst_ni</text></g><g id="sprotty_ArchitectureBlockImpl$prim_edn_req/BPortImpl$clk_i" transform="translate(0, 125)" class="triangle"><path d="M 0,0 L 5,2.5 L 0,5 Z" transform="translate(-1.67, -2.5)" class="sprotty-port" style="fill:rgb(48, 48, 48);stroke:rgb(48, 48, 48);"/><text class="clickable sprotty-label port" id="sprotty_ArchitectureBlockImpl$prim_edn_req/BPortImpl$clk_i/label" transform="translate(6, 6) translate(13.09375, 14)" style="cursor:default;font-size:12px;perspective-origin:0px 0px;fill:rgb(48, 48, 48);text-anchor:middle;">clk_i</text></g><g id="sprotty_ArchitectureBlockImpl$prim_edn_req/BPortImpl$ack_o" transform="translate(1130.578125, 171.66666666666669)" class="triangle"><path d="M 0,0 L 5,2.5 L 0,5 Z" transform="translate(-1.67, -2.5)" class="sprotty-port" style="fill:rgb(48, 48, 48);stroke:rgb(48, 48, 48);"/><text class="clickable sprotty-label port" id="sprotty_ArchitectureBlockImpl$prim_edn_req/BPortImpl$ack_o/label" transform="translate(-39.5, 6) translate(16.75, 14)" style="cursor:default;font-size:12px;perspective-origin:0px 0px;fill:rgb(48, 48, 48);text-anchor:middle;">ack_o</text></g><g id="sprotty_ArchitectureBlockImpl$prim_edn_req/BPortImpl$data_o" transform="translate(1130.578125, 36)" class="triangle"><path d="M 0,0 L 5,2.5 L 0,5 Z" transform="translate(-1.67, -2.5)" class="sprotty-port" style="fill:rgb(48, 48, 48);stroke:rgb(48, 48, 48);"/><text class="clickable sprotty-label port" id="sprotty_ArchitectureBlockImpl$prim_edn_req/BPortImpl$data_o/label" transform="translate(-45.03125, 6) translate(19.515625, 14)" style="cursor:default;font-size:12px;perspective-origin:0px 0px;fill:rgb(48, 48, 48);text-anchor:middle;">data_o</text></g><g id="sprotty_ArchitectureBlockImpl$prim_edn_req/BPortImpl$fips_o" transform="translate(1130.578125, 75)" class="triangle"><path d="M 0,0 L 5,2.5 L 0,5 Z" transform="translate(-1.67, -2.5)" class="sprotty-port" style="fill:rgb(48, 48, 48);stroke:rgb(48, 48, 48);"/><text class="clickable sprotty-label port" id="sprotty_ArchitectureBlockImpl$prim_edn_req/BPortImpl$fips_o/label" transform="translate(-40.5, 6) translate(17.25, 14)" style="cursor:default;font-size:12px;perspective-origin:0px 0px;fill:rgb(48, 48, 48);text-anchor:middle;">fips_o</text></g><g id="sprotty_ArchitectureBlockImpl$prim_edn_req/BPortImpl$edn_o" transform="translate(1130.578125, 434)" class="triangle"><path d="M 0,0 L 5,2.5 L 0,5 Z" transform="translate(-1.67, -2.5)" class="sprotty-port" style="fill:rgb(48, 48, 48);stroke:rgb(48, 48, 48);"/><text class="clickable sprotty-label port" id="sprotty_ArchitectureBlockImpl$prim_edn_req/BPortImpl$edn_o/label" transform="translate(-41.40625, 6) translate(17.703125, 14)" style="cursor:default;font-size:12px;perspective-origin:0px 0px;fill:rgb(48, 48, 48);text-anchor:middle;">edn_o</text></g></g></g></svg>