<svg xmlns="http://www.w3.org/2000/svg" id="sprotty_work.prim_ram_2p_adv" class="sprotty-graph sprotty-block-diagram blockdiagram" style="font-family:&quot;Noto Sans&quot;, Helvetica, Arial, sans-serif;perspective-origin:0px 0px;transform-origin:0px 0px;" version="1.1" viewBox="7 7 709.0625 514" width="709.0625" height="514"><g transform="scale(1) translate(0,0)"><g id="sprotty_ArchitectureBlockImpl$prim_ram_2p_adv" transform="translate(12, 12)" class="architecture"><g class="sprotty-block" style="fill:rgb(255, 255, 255);stroke:rgb(48, 48, 48);stroke-dasharray:0px;"><rect x="0" y="0" rx="1" ry="1" width="699.0625" height="504"/><text x="349.53125" y="12" class="sprotty-block-name" style="cursor:pointer;font-weight:700;perspective-origin:349.531px 0px;fill:rgb(48, 48, 48);stroke:rgba(0, 0, 0, 0);dominant-baseline:middle;text-anchor:middle;">prim_ram_2p_adv</text><line x1="0" y1="20" x2="699.0625" y2="20"/></g><g id="sprotty_ArchitectureBlockImpl$prim_ram_2p_adv/InstantiationBlockImpl$i_prim_ram_2p_async_adv/BPortImpl$a_rdata_o_to_ArchitectureBlockImpl$prim_ram_2p_adv/BPortImpl$a_rdata_o" class="sprotty-edge thick edge" style="fill:none;stroke:rgb(112, 112, 112);stroke-linejoin:round;stroke-width:3px;"><g><path d="M 617.65625 73 L 699.0625 73 "/><path d="M 617.65625 73 L 699.0625 73 " class="clickable"/></g></g><g id="sprotty_ArchitectureBlockImpl$prim_ram_2p_adv/InstantiationBlockImpl$i_prim_ram_2p_async_adv/BPortImpl$a_rvalid_o_to_ArchitectureBlockImpl$prim_ram_2p_adv/BPortImpl$a_rvalid_o" class="sprotty-edge edge" style="fill:none;stroke:rgb(112, 112, 112);stroke-linejoin:round;"><g><path d="M 617.65625 151.4 L 699.0625 151.4 "/><path d="M 617.65625 151.4 L 699.0625 151.4 " class="clickable"/></g></g><g id="sprotty_ArchitectureBlockImpl$prim_ram_2p_adv/InstantiationBlockImpl$i_prim_ram_2p_async_adv/BPortImpl$a_rerror_o_to_ArchitectureBlockImpl$prim_ram_2p_adv/BPortImpl$a_rerror_o" class="sprotty-edge thick edge" style="fill:none;stroke:rgb(112, 112, 112);stroke-linejoin:round;stroke-width:3px;"><g><path d="M 617.65625 229.8 L 699.0625 229.8 "/><path d="M 617.65625 229.8 L 699.0625 229.8 " class="clickable"/></g></g><g id="sprotty_ArchitectureBlockImpl$prim_ram_2p_adv/InstantiationBlockImpl$i_prim_ram_2p_async_adv/BPortImpl$b_rdata_o_to_ArchitectureBlockImpl$prim_ram_2p_adv/BPortImpl$b_rdata_o" class="sprotty-edge thick edge" style="fill:none;stroke:rgb(112, 112, 112);stroke-linejoin:round;stroke-width:3px;"><g><path d="M 617.65625 308.20000000000005 L 699.0625 308.20000000000005 "/><path d="M 617.65625 308.20000000000005 L 699.0625 308.20000000000005 " class="clickable"/></g></g><g id="sprotty_ArchitectureBlockImpl$prim_ram_2p_adv/InstantiationBlockImpl$i_prim_ram_2p_async_adv/BPortImpl$b_rvalid_o_to_ArchitectureBlockImpl$prim_ram_2p_adv/BPortImpl$b_rvalid_o" class="sprotty-edge edge" style="fill:none;stroke:rgb(112, 112, 112);stroke-linejoin:round;"><g><path d="M 617.65625 386.6 L 699.0625 386.6 "/><path d="M 617.65625 386.6 L 699.0625 386.6 " class="clickable"/></g></g><g id="sprotty_ArchitectureBlockImpl$prim_ram_2p_adv/InstantiationBlockImpl$i_prim_ram_2p_async_adv/BPortImpl$b_rerror_o_to_ArchitectureBlockImpl$prim_ram_2p_adv/BPortImpl$b_rerror_o" class="sprotty-edge thick edge" style="fill:none;stroke:rgb(112, 112, 112);stroke-linejoin:round;stroke-width:3px;"><g><path d="M 617.65625 465 L 699.0625 465 "/><path d="M 617.65625 465 L 699.0625 465 " class="clickable"/></g></g><g id="sprotty_ArchitectureBlockImpl$prim_ram_2p_adv/BPortImpl$clk_i_to_ArchitectureBlockImpl$prim_ram_2p_adv/InstantiationBlockImpl$i_prim_ram_2p_async_adv/BPortImpl$clk_a_i" class="sprotty-edge edge" style="fill:none;stroke:rgb(112, 112, 112);stroke-linejoin:round;"><g><path d="M 0 57 L 172.90625 57 C 173.90625 57 174.90625 58 174.90625 59 L 174.90625 71 C 174.90625 72 175.90625 73 176.90625 73 L 184.90625 73 "/><path d="M 0 57 L 172.90625 57 C 173.90625 57 174.90625 58 174.90625 59 L 174.90625 71 C 174.90625 72 175.90625 73 176.90625 73 L 184.90625 73 " class="clickable"/></g><circle r="2" id="sprotty_ArchitectureBlockImpl$prim_ram_2p_adv/BPortImpl$clk_i_to_ArchitectureBlockImpl$prim_ram_2p_adv/InstantiationBlockImpl$i_prim_ram_2p_async_adv/BPortImpl$clk_a_i/junction0" transform="translate(174.90625, 73)" class="sprotty-junction junction" style="fill:rgb(112, 112, 112);stroke:none;"/></g><g id="sprotty_ArchitectureBlockImpl$prim_ram_2p_adv/BPortImpl$clk_i_to_ArchitectureBlockImpl$prim_ram_2p_adv/InstantiationBlockImpl$i_prim_ram_2p_async_adv/BPortImpl$clk_b_i" class="sprotty-edge edge" style="fill:none;stroke:rgb(112, 112, 112);stroke-linejoin:round;"><g><path d="M 0 57 L 172.90625 57 C 173.90625 57 174.90625 58 174.90625 59 L 174.90625 99 C 174.90625 100 175.90625 101 176.90625 101 L 184.90625 101 "/><path d="M 0 57 L 172.90625 57 C 173.90625 57 174.90625 58 174.90625 59 L 174.90625 99 C 174.90625 100 175.90625 101 176.90625 101 L 184.90625 101 " class="clickable"/></g></g><g id="sprotty_ArchitectureBlockImpl$prim_ram_2p_adv/BPortImpl$rst_ni_to_ArchitectureBlockImpl$prim_ram_2p_adv/InstantiationBlockImpl$i_prim_ram_2p_async_adv/BPortImpl$rst_a_ni" class="sprotty-edge edge" style="fill:none;stroke:rgb(112, 112, 112);stroke-linejoin:round;"><g><path d="M 0 91 L 162.90625 91 C 163.90625 91 164.90625 92 164.90625 93 L 164.90625 127 C 164.90625 128 165.90625 129 166.90625 129 L 184.90625 129 "/><path d="M 0 91 L 162.90625 91 C 163.90625 91 164.90625 92 164.90625 93 L 164.90625 127 C 164.90625 128 165.90625 129 166.90625 129 L 184.90625 129 " class="clickable"/></g><circle r="2" id="sprotty_ArchitectureBlockImpl$prim_ram_2p_adv/BPortImpl$rst_ni_to_ArchitectureBlockImpl$prim_ram_2p_adv/InstantiationBlockImpl$i_prim_ram_2p_async_adv/BPortImpl$rst_a_ni/junction0" transform="translate(164.90625, 129)" class="sprotty-junction junction" style="fill:rgb(112, 112, 112);stroke:none;"/></g><g id="sprotty_ArchitectureBlockImpl$prim_ram_2p_adv/BPortImpl$rst_ni_to_ArchitectureBlockImpl$prim_ram_2p_adv/InstantiationBlockImpl$i_prim_ram_2p_async_adv/BPortImpl$rst_b_ni" class="sprotty-edge edge" style="fill:none;stroke:rgb(112, 112, 112);stroke-linejoin:round;"><g><path d="M 0 91 L 162.90625 91 C 163.90625 91 164.90625 92 164.90625 93 L 164.90625 155 C 164.90625 156 165.90625 157 166.90625 157 L 184.90625 157 "/><path d="M 0 91 L 162.90625 91 C 163.90625 91 164.90625 92 164.90625 93 L 164.90625 155 C 164.90625 156 165.90625 157 166.90625 157 L 184.90625 157 " class="clickable"/></g></g><g id="sprotty_ArchitectureBlockImpl$prim_ram_2p_adv/BPortImpl$a_req_i_to_ArchitectureBlockImpl$prim_ram_2p_adv/InstantiationBlockImpl$i_prim_ram_2p_async_adv/BPortImpl$a_req_i" class="sprotty-edge edge" style="fill:none;stroke:rgb(112, 112, 112);stroke-linejoin:round;"><g><path d="M 0 125 L 152.90625 125 C 153.90625 125 154.90625 126 154.90625 127 L 154.90625 183 C 154.90625 184 155.90625 185 156.90625 185 L 184.90625 185 "/><path d="M 0 125 L 152.90625 125 C 153.90625 125 154.90625 126 154.90625 127 L 154.90625 183 C 154.90625 184 155.90625 185 156.90625 185 L 184.90625 185 " class="clickable"/></g></g><g id="sprotty_ArchitectureBlockImpl$prim_ram_2p_adv/BPortImpl$a_write_i_to_ArchitectureBlockImpl$prim_ram_2p_adv/InstantiationBlockImpl$i_prim_ram_2p_async_adv/BPortImpl$a_write_i" class="sprotty-edge edge" style="fill:none;stroke:rgb(112, 112, 112);stroke-linejoin:round;"><g><path d="M 0 159 L 142.90625 159 C 143.90625 159 144.90625 160 144.90625 161 L 144.90625 211 C 144.90625 212 145.90625 213 146.90625 213 L 184.90625 213 "/><path d="M 0 159 L 142.90625 159 C 143.90625 159 144.90625 160 144.90625 161 L 144.90625 211 C 144.90625 212 145.90625 213 146.90625 213 L 184.90625 213 " class="clickable"/></g></g><g id="sprotty_ArchitectureBlockImpl$prim_ram_2p_adv/BPortImpl$a_addr_i_to_ArchitectureBlockImpl$prim_ram_2p_adv/InstantiationBlockImpl$i_prim_ram_2p_async_adv/BPortImpl$a_addr_i" class="sprotty-edge thick edge" style="fill:none;stroke:rgb(112, 112, 112);stroke-linejoin:round;stroke-width:3px;"><g><path d="M 0 193 L 132.90625 193 C 133.90625 193 134.90625 194 134.90625 195 L 134.90625 239 C 134.90625 240 135.90625 241 136.90625 241 L 184.90625 241 "/><path d="M 0 193 L 132.90625 193 C 133.90625 193 134.90625 194 134.90625 195 L 134.90625 239 C 134.90625 240 135.90625 241 136.90625 241 L 184.90625 241 " class="clickable"/></g></g><g id="sprotty_ArchitectureBlockImpl$prim_ram_2p_adv/BPortImpl$a_wdata_i_to_ArchitectureBlockImpl$prim_ram_2p_adv/InstantiationBlockImpl$i_prim_ram_2p_async_adv/BPortImpl$a_wdata_i" class="sprotty-edge thick edge" style="fill:none;stroke:rgb(112, 112, 112);stroke-linejoin:round;stroke-width:3px;"><g><path d="M 0 227 L 122.90625 227 C 123.90625 227 124.90625 228 124.90625 229 L 124.90625 267 C 124.90625 268 125.90625 269 126.90625 269 L 184.90625 269 "/><path d="M 0 227 L 122.90625 227 C 123.90625 227 124.90625 228 124.90625 229 L 124.90625 267 C 124.90625 268 125.90625 269 126.90625 269 L 184.90625 269 " class="clickable"/></g></g><g id="sprotty_ArchitectureBlockImpl$prim_ram_2p_adv/BPortImpl$a_wmask_i_to_ArchitectureBlockImpl$prim_ram_2p_adv/InstantiationBlockImpl$i_prim_ram_2p_async_adv/BPortImpl$a_wmask_i" class="sprotty-edge thick edge" style="fill:none;stroke:rgb(112, 112, 112);stroke-linejoin:round;stroke-width:3px;"><g><path d="M 0 261 L 112.90625 261 C 113.90625 261 114.90625 262 114.90625 263 L 114.90625 295 C 114.90625 296 115.90625 297 116.90625 297 L 184.90625 297 "/><path d="M 0 261 L 112.90625 261 C 113.90625 261 114.90625 262 114.90625 263 L 114.90625 295 C 114.90625 296 115.90625 297 116.90625 297 L 184.90625 297 " class="clickable"/></g></g><g id="sprotty_ArchitectureBlockImpl$prim_ram_2p_adv/BPortImpl$b_req_i_to_ArchitectureBlockImpl$prim_ram_2p_adv/InstantiationBlockImpl$i_prim_ram_2p_async_adv/BPortImpl$b_req_i" class="sprotty-edge edge" style="fill:none;stroke:rgb(112, 112, 112);stroke-linejoin:round;"><g><path d="M 0 295 L 102.90625 295 C 103.90625 295 104.90625 296 104.90625 297 L 104.90625 323 C 104.90625 324 105.90625 325 106.90625 325 L 184.90625 325 "/><path d="M 0 295 L 102.90625 295 C 103.90625 295 104.90625 296 104.90625 297 L 104.90625 323 C 104.90625 324 105.90625 325 106.90625 325 L 184.90625 325 " class="clickable"/></g></g><g id="sprotty_ArchitectureBlockImpl$prim_ram_2p_adv/BPortImpl$b_write_i_to_ArchitectureBlockImpl$prim_ram_2p_adv/InstantiationBlockImpl$i_prim_ram_2p_async_adv/BPortImpl$b_write_i" class="sprotty-edge edge" style="fill:none;stroke:rgb(112, 112, 112);stroke-linejoin:round;"><g><path d="M 0 329 L 92.90625 329 C 93.90625 329 94.90625 330 94.90625 331 L 94.90625 351 C 94.90625 352 95.90625 353 96.90625 353 L 184.90625 353 "/><path d="M 0 329 L 92.90625 329 C 93.90625 329 94.90625 330 94.90625 331 L 94.90625 351 C 94.90625 352 95.90625 353 96.90625 353 L 184.90625 353 " class="clickable"/></g></g><g id="sprotty_ArchitectureBlockImpl$prim_ram_2p_adv/BPortImpl$b_addr_i_to_ArchitectureBlockImpl$prim_ram_2p_adv/InstantiationBlockImpl$i_prim_ram_2p_async_adv/BPortImpl$b_addr_i" class="sprotty-edge thick edge" style="fill:none;stroke:rgb(112, 112, 112);stroke-linejoin:round;stroke-width:3px;"><g><path d="M 0 363 L 92.90625 363 C 93.90625 363 94.90625 364 94.90625 365 L 94.90625 379 C 94.90625 380 95.90625 381 96.90625 381 L 184.90625 381 "/><path d="M 0 363 L 92.90625 363 C 93.90625 363 94.90625 364 94.90625 365 L 94.90625 379 C 94.90625 380 95.90625 381 96.90625 381 L 184.90625 381 " class="clickable"/></g></g><g id="sprotty_ArchitectureBlockImpl$prim_ram_2p_adv/BPortImpl$b_wdata_i_to_ArchitectureBlockImpl$prim_ram_2p_adv/InstantiationBlockImpl$i_prim_ram_2p_async_adv/BPortImpl$b_wdata_i" class="sprotty-edge thick edge" style="fill:none;stroke:rgb(112, 112, 112);stroke-linejoin:round;stroke-width:3px;"><g><path d="M 0 397 L 92.90625 397 C 93.90625 397 94.90625 398 94.90625 399 L 94.90625 407 C 94.90625 408 95.90625 409 96.90625 409 L 184.90625 409 "/><path d="M 0 397 L 92.90625 397 C 93.90625 397 94.90625 398 94.90625 399 L 94.90625 407 C 94.90625 408 95.90625 409 96.90625 409 L 184.90625 409 " class="clickable"/></g></g><g id="sprotty_ArchitectureBlockImpl$prim_ram_2p_adv/BPortImpl$b_wmask_i_to_ArchitectureBlockImpl$prim_ram_2p_adv/InstantiationBlockImpl$i_prim_ram_2p_async_adv/BPortImpl$b_wmask_i" class="sprotty-edge thick edge" style="fill:none;stroke:rgb(112, 112, 112);stroke-linejoin:round;stroke-width:3px;"><g><path d="M 0 431 L 92.90625 431 C 93.90625 431 94.90625 432 94.90625 433 L 94.90625 435 C 94.90625 436 95.90625 437 96.90625 437 L 184.90625 437 "/><path d="M 0 431 L 92.90625 431 C 93.90625 431 94.90625 432 94.90625 433 L 94.90625 435 C 94.90625 436 95.90625 437 96.90625 437 L 184.90625 437 " class="clickable"/></g></g><g id="sprotty_ArchitectureBlockImpl$prim_ram_2p_adv/BPortImpl$cfg_i_to_ArchitectureBlockImpl$prim_ram_2p_adv/InstantiationBlockImpl$i_prim_ram_2p_async_adv/BPortImpl$cfg_i" class="sprotty-edge thick edge" style="fill:none;stroke:rgb(112, 112, 112);stroke-linejoin:round;stroke-width:3px;"><g><path d="M 0 465 L 184.90625 465 "/><path d="M 0 465 L 184.90625 465 " class="clickable"/></g></g><g id="sprotty_ArchitectureBlockImpl$prim_ram_2p_adv/InstantiationBlockImpl$i_prim_ram_2p_async_adv" transform="translate(184.90625, 35)" class="instantiation"><g class="sprotty-block" style="fill:rgb(255, 255, 255);stroke:rgb(48, 48, 48);stroke-dasharray:0px;"><rect x="0" y="0" rx="1" ry="1" width="432.75" height="448"/><text x="216.375" y="12" class="sprotty-block-name" style="cursor:pointer;font-weight:700;perspective-origin:216.375px 0px;fill:rgb(48, 48, 48);stroke:rgba(0, 0, 0, 0);dominant-baseline:middle;text-anchor:middle;">i_prim_ram_2p_async_adv : prim_ram_2p_async_adv</text><line x1="0" y1="20" x2="432.75" y2="20"/></g><g id="sprotty_ArchitectureBlockImpl$prim_ram_2p_adv/InstantiationBlockImpl$i_prim_ram_2p_async_adv/BPortImpl$cfg_i" transform="translate(0, 430)" class="triangle"><path d="M 0,0 L 5,2.5 L 0,5 Z" transform="translate(-1.67, -2.5)" class="sprotty-port" style="fill:rgb(48, 48, 48);stroke:rgb(48, 48, 48);"/><text class="clickable sprotty-label port" id="sprotty_ArchitectureBlockImpl$prim_ram_2p_adv/InstantiationBlockImpl$i_prim_ram_2p_async_adv/BPortImpl$cfg_i/label" transform="translate(6, -9) translate(13.296875, 14)" style="cursor:default;font-size:12px;perspective-origin:0px 0px;fill:rgb(48, 48, 48);text-anchor:middle;">cfg_i</text></g><g id="sprotty_ArchitectureBlockImpl$prim_ram_2p_adv/InstantiationBlockImpl$i_prim_ram_2p_async_adv/BPortImpl$b_wmask_i" transform="translate(0, 402)" class="triangle"><path d="M 0,0 L 5,2.5 L 0,5 Z" transform="translate(-1.67, -2.5)" class="sprotty-port" style="fill:rgb(48, 48, 48);stroke:rgb(48, 48, 48);"/><text class="clickable sprotty-label port" id="sprotty_ArchitectureBlockImpl$prim_ram_2p_adv/InstantiationBlockImpl$i_prim_ram_2p_async_adv/BPortImpl$b_wmask_i/label" transform="translate(6, -9) translate(31.953125, 14)" style="cursor:default;font-size:12px;perspective-origin:0px 0px;fill:rgb(48, 48, 48);text-anchor:middle;">b_wmask_i</text></g><g id="sprotty_ArchitectureBlockImpl$prim_ram_2p_adv/InstantiationBlockImpl$i_prim_ram_2p_async_adv/BPortImpl$b_wdata_i" transform="translate(0, 374)" class="triangle"><path d="M 0,0 L 5,2.5 L 0,5 Z" transform="translate(-1.67, -2.5)" class="sprotty-port" style="fill:rgb(48, 48, 48);stroke:rgb(48, 48, 48);"/><text class="clickable sprotty-label port" id="sprotty_ArchitectureBlockImpl$prim_ram_2p_adv/InstantiationBlockImpl$i_prim_ram_2p_async_adv/BPortImpl$b_wdata_i/label" transform="translate(6, -9) translate(29.375, 14)" style="cursor:default;font-size:12px;perspective-origin:0px 0px;fill:rgb(48, 48, 48);text-anchor:middle;">b_wdata_i</text></g><g id="sprotty_ArchitectureBlockImpl$prim_ram_2p_adv/InstantiationBlockImpl$i_prim_ram_2p_async_adv/BPortImpl$b_addr_i" transform="translate(0, 346)" class="triangle"><path d="M 0,0 L 5,2.5 L 0,5 Z" transform="translate(-1.67, -2.5)" class="sprotty-port" style="fill:rgb(48, 48, 48);stroke:rgb(48, 48, 48);"/><text class="clickable sprotty-label port" id="sprotty_ArchitectureBlockImpl$prim_ram_2p_adv/InstantiationBlockImpl$i_prim_ram_2p_async_adv/BPortImpl$b_addr_i/label" transform="translate(6, -9) translate(25.21875, 14)" style="cursor:default;font-size:12px;perspective-origin:0px 0px;fill:rgb(48, 48, 48);text-anchor:middle;">b_addr_i</text></g><g id="sprotty_ArchitectureBlockImpl$prim_ram_2p_adv/InstantiationBlockImpl$i_prim_ram_2p_async_adv/BPortImpl$b_write_i" transform="translate(0, 318)" class="triangle"><path d="M 0,0 L 5,2.5 L 0,5 Z" transform="translate(-1.67, -2.5)" class="sprotty-port" style="fill:rgb(48, 48, 48);stroke:rgb(48, 48, 48);"/><text class="clickable sprotty-label port" id="sprotty_ArchitectureBlockImpl$prim_ram_2p_adv/InstantiationBlockImpl$i_prim_ram_2p_async_adv/BPortImpl$b_write_i/label" transform="translate(6, -9) translate(26.359375, 14)" style="cursor:default;font-size:12px;perspective-origin:0px 0px;fill:rgb(48, 48, 48);text-anchor:middle;">b_write_i</text></g><g id="sprotty_ArchitectureBlockImpl$prim_ram_2p_adv/InstantiationBlockImpl$i_prim_ram_2p_async_adv/BPortImpl$b_req_i" transform="translate(0, 290)" class="triangle"><path d="M 0,0 L 5,2.5 L 0,5 Z" transform="translate(-1.67, -2.5)" class="sprotty-port" style="fill:rgb(48, 48, 48);stroke:rgb(48, 48, 48);"/><text class="clickable sprotty-label port" id="sprotty_ArchitectureBlockImpl$prim_ram_2p_adv/InstantiationBlockImpl$i_prim_ram_2p_async_adv/BPortImpl$b_req_i/label" transform="translate(6, -9) translate(21.375, 14)" style="cursor:default;font-size:12px;perspective-origin:0px 0px;fill:rgb(48, 48, 48);text-anchor:middle;">b_req_i</text></g><g id="sprotty_ArchitectureBlockImpl$prim_ram_2p_adv/InstantiationBlockImpl$i_prim_ram_2p_async_adv/BPortImpl$a_wmask_i" transform="translate(0, 262)" class="triangle"><path d="M 0,0 L 5,2.5 L 0,5 Z" transform="translate(-1.67, -2.5)" class="sprotty-port" style="fill:rgb(48, 48, 48);stroke:rgb(48, 48, 48);"/><text class="clickable sprotty-label port" id="sprotty_ArchitectureBlockImpl$prim_ram_2p_adv/InstantiationBlockImpl$i_prim_ram_2p_async_adv/BPortImpl$a_wmask_i/label" transform="translate(6, -9) translate(31.625, 14)" style="cursor:default;font-size:12px;perspective-origin:0px 0px;fill:rgb(48, 48, 48);text-anchor:middle;">a_wmask_i</text></g><g id="sprotty_ArchitectureBlockImpl$prim_ram_2p_adv/InstantiationBlockImpl$i_prim_ram_2p_async_adv/BPortImpl$a_wdata_i" transform="translate(0, 234)" class="triangle"><path d="M 0,0 L 5,2.5 L 0,5 Z" transform="translate(-1.67, -2.5)" class="sprotty-port" style="fill:rgb(48, 48, 48);stroke:rgb(48, 48, 48);"/><text class="clickable sprotty-label port" id="sprotty_ArchitectureBlockImpl$prim_ram_2p_adv/InstantiationBlockImpl$i_prim_ram_2p_async_adv/BPortImpl$a_wdata_i/label" transform="translate(6, -9) translate(29.046875, 14)" style="cursor:default;font-size:12px;perspective-origin:0px 0px;fill:rgb(48, 48, 48);text-anchor:middle;">a_wdata_i</text></g><g id="sprotty_ArchitectureBlockImpl$prim_ram_2p_adv/InstantiationBlockImpl$i_prim_ram_2p_async_adv/BPortImpl$a_addr_i" transform="translate(0, 206)" class="triangle"><path d="M 0,0 L 5,2.5 L 0,5 Z" transform="translate(-1.67, -2.5)" class="sprotty-port" style="fill:rgb(48, 48, 48);stroke:rgb(48, 48, 48);"/><text class="clickable sprotty-label port" id="sprotty_ArchitectureBlockImpl$prim_ram_2p_adv/InstantiationBlockImpl$i_prim_ram_2p_async_adv/BPortImpl$a_addr_i/label" transform="translate(6, -9) translate(24.90625, 14)" style="cursor:default;font-size:12px;perspective-origin:0px 0px;fill:rgb(48, 48, 48);text-anchor:middle;">a_addr_i</text></g><g id="sprotty_ArchitectureBlockImpl$prim_ram_2p_adv/InstantiationBlockImpl$i_prim_ram_2p_async_adv/BPortImpl$a_write_i" transform="translate(0, 178)" class="triangle"><path d="M 0,0 L 5,2.5 L 0,5 Z" transform="translate(-1.67, -2.5)" class="sprotty-port" style="fill:rgb(48, 48, 48);stroke:rgb(48, 48, 48);"/><text class="clickable sprotty-label port" id="sprotty_ArchitectureBlockImpl$prim_ram_2p_adv/InstantiationBlockImpl$i_prim_ram_2p_async_adv/BPortImpl$a_write_i/label" transform="translate(6, -9) translate(26.03125, 14)" style="cursor:default;font-size:12px;perspective-origin:0px 0px;fill:rgb(48, 48, 48);text-anchor:middle;">a_write_i</text></g><g id="sprotty_ArchitectureBlockImpl$prim_ram_2p_adv/InstantiationBlockImpl$i_prim_ram_2p_async_adv/BPortImpl$a_req_i" transform="translate(0, 150)" class="triangle"><path d="M 0,0 L 5,2.5 L 0,5 Z" transform="translate(-1.67, -2.5)" class="sprotty-port" style="fill:rgb(48, 48, 48);stroke:rgb(48, 48, 48);"/><text class="clickable sprotty-label port" id="sprotty_ArchitectureBlockImpl$prim_ram_2p_adv/InstantiationBlockImpl$i_prim_ram_2p_async_adv/BPortImpl$a_req_i/label" transform="translate(6, -9) translate(21.0625, 14)" style="cursor:default;font-size:12px;perspective-origin:0px 0px;fill:rgb(48, 48, 48);text-anchor:middle;">a_req_i</text></g><g id="sprotty_ArchitectureBlockImpl$prim_ram_2p_adv/InstantiationBlockImpl$i_prim_ram_2p_async_adv/BPortImpl$rst_b_ni" transform="translate(0, 122)" class="triangle"><path d="M 0,0 L 5,2.5 L 0,5 Z" transform="translate(-1.67, -2.5)" class="sprotty-port" style="fill:rgb(48, 48, 48);stroke:rgb(48, 48, 48);"/><text class="clickable sprotty-label port" id="sprotty_ArchitectureBlockImpl$prim_ram_2p_adv/InstantiationBlockImpl$i_prim_ram_2p_async_adv/BPortImpl$rst_b_ni/label" transform="translate(6, -9) translate(22.984375, 14)" style="cursor:default;font-size:12px;perspective-origin:0px 0px;fill:rgb(48, 48, 48);text-anchor:middle;">rst_b_ni</text></g><g id="sprotty_ArchitectureBlockImpl$prim_ram_2p_adv/InstantiationBlockImpl$i_prim_ram_2p_async_adv/BPortImpl$rst_a_ni" transform="translate(0, 94)" class="triangle"><path d="M 0,0 L 5,2.5 L 0,5 Z" transform="translate(-1.67, -2.5)" class="sprotty-port" style="fill:rgb(48, 48, 48);stroke:rgb(48, 48, 48);"/><text class="clickable sprotty-label port" id="sprotty_ArchitectureBlockImpl$prim_ram_2p_adv/InstantiationBlockImpl$i_prim_ram_2p_async_adv/BPortImpl$rst_a_ni/label" transform="translate(6, -9) translate(22.65625, 14)" style="cursor:default;font-size:12px;perspective-origin:0px 0px;fill:rgb(48, 48, 48);text-anchor:middle;">rst_a_ni</text></g><g id="sprotty_ArchitectureBlockImpl$prim_ram_2p_adv/InstantiationBlockImpl$i_prim_ram_2p_async_adv/BPortImpl$clk_b_i" transform="translate(0, 66)" class="triangle"><path d="M 0,0 L 5,2.5 L 0,5 Z" transform="translate(-1.67, -2.5)" class="sprotty-port" style="fill:rgb(48, 48, 48);stroke:rgb(48, 48, 48);"/><text class="clickable sprotty-label port" id="sprotty_ArchitectureBlockImpl$prim_ram_2p_adv/InstantiationBlockImpl$i_prim_ram_2p_async_adv/BPortImpl$clk_b_i/label" transform="translate(6, -9) translate(20.15625, 14)" style="cursor:default;font-size:12px;perspective-origin:0px 0px;fill:rgb(48, 48, 48);text-anchor:middle;">clk_b_i</text></g><g id="sprotty_ArchitectureBlockImpl$prim_ram_2p_adv/InstantiationBlockImpl$i_prim_ram_2p_async_adv/BPortImpl$clk_a_i" transform="translate(0, 38)" class="triangle"><path d="M 0,0 L 5,2.5 L 0,5 Z" transform="translate(-1.67, -2.5)" class="sprotty-port" style="fill:rgb(48, 48, 48);stroke:rgb(48, 48, 48);"/><text class="clickable sprotty-label port" id="sprotty_ArchitectureBlockImpl$prim_ram_2p_adv/InstantiationBlockImpl$i_prim_ram_2p_async_adv/BPortImpl$clk_a_i/label" transform="translate(6, -9) translate(19.828125, 14)" style="cursor:default;font-size:12px;perspective-origin:0px 0px;fill:rgb(48, 48, 48);text-anchor:middle;">clk_a_i</text></g><g id="sprotty_ArchitectureBlockImpl$prim_ram_2p_adv/InstantiationBlockImpl$i_prim_ram_2p_async_adv/BPortImpl$a_rdata_o" transform="translate(432.75, 38)" class="triangle"><path d="M 0,0 L 5,2.5 L 0,5 Z" transform="translate(-1.67, -2.5)" class="sprotty-port" style="fill:rgb(48, 48, 48);stroke:rgb(48, 48, 48);"/><text class="clickable sprotty-label port" id="sprotty_ArchitectureBlockImpl$prim_ram_2p_adv/InstantiationBlockImpl$i_prim_ram_2p_async_adv/BPortImpl$a_rdata_o/label" transform="translate(-63.03125, -9) translate(28.515625, 14)" style="cursor:default;font-size:12px;perspective-origin:0px 0px;fill:rgb(48, 48, 48);text-anchor:middle;">a_rdata_o</text></g><g id="sprotty_ArchitectureBlockImpl$prim_ram_2p_adv/InstantiationBlockImpl$i_prim_ram_2p_async_adv/BPortImpl$a_rvalid_o" transform="translate(432.75, 116.4)" class="triangle"><path d="M 0,0 L 5,2.5 L 0,5 Z" transform="translate(-1.67, -2.5)" class="sprotty-port" style="fill:rgb(48, 48, 48);stroke:rgb(48, 48, 48);"/><text class="clickable sprotty-label port" id="sprotty_ArchitectureBlockImpl$prim_ram_2p_adv/InstantiationBlockImpl$i_prim_ram_2p_async_adv/BPortImpl$a_rvalid_o/label" transform="translate(-65.40625, -9) translate(29.703125, 14)" style="cursor:default;font-size:12px;perspective-origin:0px 0px;fill:rgb(48, 48, 48);text-anchor:middle;">a_rvalid_o</text></g><g id="sprotty_ArchitectureBlockImpl$prim_ram_2p_adv/InstantiationBlockImpl$i_prim_ram_2p_async_adv/BPortImpl$a_rerror_o" transform="translate(432.75, 194.8)" class="triangle"><path d="M 0,0 L 5,2.5 L 0,5 Z" transform="translate(-1.67, -2.5)" class="sprotty-port" style="fill:rgb(48, 48, 48);stroke:rgb(48, 48, 48);"/><text class="clickable sprotty-label port" id="sprotty_ArchitectureBlockImpl$prim_ram_2p_adv/InstantiationBlockImpl$i_prim_ram_2p_async_adv/BPortImpl$a_rerror_o/label" transform="translate(-65.75, -9) translate(29.875, 14)" style="cursor:default;font-size:12px;perspective-origin:0px 0px;fill:rgb(48, 48, 48);text-anchor:middle;">a_rerror_o</text></g><g id="sprotty_ArchitectureBlockImpl$prim_ram_2p_adv/InstantiationBlockImpl$i_prim_ram_2p_async_adv/BPortImpl$b_rdata_o" transform="translate(432.75, 273.20000000000005)" class="triangle"><path d="M 0,0 L 5,2.5 L 0,5 Z" transform="translate(-1.67, -2.5)" class="sprotty-port" style="fill:rgb(48, 48, 48);stroke:rgb(48, 48, 48);"/><text class="clickable sprotty-label port" id="sprotty_ArchitectureBlockImpl$prim_ram_2p_adv/InstantiationBlockImpl$i_prim_ram_2p_async_adv/BPortImpl$b_rdata_o/label" transform="translate(-63.6875, -9) translate(28.84375, 14)" style="cursor:default;font-size:12px;perspective-origin:0px 0px;fill:rgb(48, 48, 48);text-anchor:middle;">b_rdata_o</text></g><g id="sprotty_ArchitectureBlockImpl$prim_ram_2p_adv/InstantiationBlockImpl$i_prim_ram_2p_async_adv/BPortImpl$b_rvalid_o" transform="translate(432.75, 351.6)" class="triangle"><path d="M 0,0 L 5,2.5 L 0,5 Z" transform="translate(-1.67, -2.5)" class="sprotty-port" style="fill:rgb(48, 48, 48);stroke:rgb(48, 48, 48);"/><text class="clickable sprotty-label port" id="sprotty_ArchitectureBlockImpl$prim_ram_2p_adv/InstantiationBlockImpl$i_prim_ram_2p_async_adv/BPortImpl$b_rvalid_o/label" transform="translate(-66.03125, -9) translate(30.015625, 14)" style="cursor:default;font-size:12px;perspective-origin:0px 0px;fill:rgb(48, 48, 48);text-anchor:middle;">b_rvalid_o</text></g><g id="sprotty_ArchitectureBlockImpl$prim_ram_2p_adv/InstantiationBlockImpl$i_prim_ram_2p_async_adv/BPortImpl$b_rerror_o" transform="translate(432.75, 430)" class="triangle"><path d="M 0,0 L 5,2.5 L 0,5 Z" transform="translate(-1.67, -2.5)" class="sprotty-port" style="fill:rgb(48, 48, 48);stroke:rgb(48, 48, 48);"/><text class="clickable sprotty-label port" id="sprotty_ArchitectureBlockImpl$prim_ram_2p_adv/InstantiationBlockImpl$i_prim_ram_2p_async_adv/BPortImpl$b_rerror_o/label" transform="translate(-66.40625, -9) translate(30.203125, 14)" style="cursor:default;font-size:12px;perspective-origin:0px 0px;fill:rgb(48, 48, 48);text-anchor:middle;">b_rerror_o</text></g></g><g id="sprotty_ArchitectureBlockImpl$prim_ram_2p_adv/BPortImpl$cfg_i" transform="translate(0, 465)" class="triangle"><path d="M 0,0 L 5,2.5 L 0,5 Z" transform="translate(-1.67, -2.5)" class="sprotty-port" style="fill:rgb(48, 48, 48);stroke:rgb(48, 48, 48);"/><text class="clickable sprotty-label port" id="sprotty_ArchitectureBlockImpl$prim_ram_2p_adv/BPortImpl$cfg_i/label" transform="translate(6, 6) translate(13.296875, 14)" style="cursor:default;font-size:12px;perspective-origin:0px 0px;fill:rgb(48, 48, 48);text-anchor:middle;">cfg_i</text></g><g id="sprotty_ArchitectureBlockImpl$prim_ram_2p_adv/BPortImpl$b_wmask_i" transform="translate(0, 431)" class="triangle"><path d="M 0,0 L 5,2.5 L 0,5 Z" transform="translate(-1.67, -2.5)" class="sprotty-port" style="fill:rgb(48, 48, 48);stroke:rgb(48, 48, 48);"/><text class="clickable sprotty-label port" id="sprotty_ArchitectureBlockImpl$prim_ram_2p_adv/BPortImpl$b_wmask_i/label" transform="translate(6, 6) translate(31.953125, 14)" style="cursor:default;font-size:12px;perspective-origin:0px 0px;fill:rgb(48, 48, 48);text-anchor:middle;">b_wmask_i</text></g><g id="sprotty_ArchitectureBlockImpl$prim_ram_2p_adv/BPortImpl$b_wdata_i" transform="translate(0, 397)" class="triangle"><path d="M 0,0 L 5,2.5 L 0,5 Z" transform="translate(-1.67, -2.5)" class="sprotty-port" style="fill:rgb(48, 48, 48);stroke:rgb(48, 48, 48);"/><text class="clickable sprotty-label port" id="sprotty_ArchitectureBlockImpl$prim_ram_2p_adv/BPortImpl$b_wdata_i/label" transform="translate(6, 6) translate(29.375, 14)" style="cursor:default;font-size:12px;perspective-origin:0px 0px;fill:rgb(48, 48, 48);text-anchor:middle;">b_wdata_i</text></g><g id="sprotty_ArchitectureBlockImpl$prim_ram_2p_adv/BPortImpl$b_addr_i" transform="translate(0, 363)" class="triangle"><path d="M 0,0 L 5,2.5 L 0,5 Z" transform="translate(-1.67, -2.5)" class="sprotty-port" style="fill:rgb(48, 48, 48);stroke:rgb(48, 48, 48);"/><text class="clickable sprotty-label port" id="sprotty_ArchitectureBlockImpl$prim_ram_2p_adv/BPortImpl$b_addr_i/label" transform="translate(6, 6) translate(25.21875, 14)" style="cursor:default;font-size:12px;perspective-origin:0px 0px;fill:rgb(48, 48, 48);text-anchor:middle;">b_addr_i</text></g><g id="sprotty_ArchitectureBlockImpl$prim_ram_2p_adv/BPortImpl$b_write_i" transform="translate(0, 329)" class="triangle"><path d="M 0,0 L 5,2.5 L 0,5 Z" transform="translate(-1.67, -2.5)" class="sprotty-port" style="fill:rgb(48, 48, 48);stroke:rgb(48, 48, 48);"/><text class="clickable sprotty-label port" id="sprotty_ArchitectureBlockImpl$prim_ram_2p_adv/BPortImpl$b_write_i/label" transform="translate(6, 6) translate(26.359375, 14)" style="cursor:default;font-size:12px;perspective-origin:0px 0px;fill:rgb(48, 48, 48);text-anchor:middle;">b_write_i</text></g><g id="sprotty_ArchitectureBlockImpl$prim_ram_2p_adv/BPortImpl$b_req_i" transform="translate(0, 295)" class="triangle"><path d="M 0,0 L 5,2.5 L 0,5 Z" transform="translate(-1.67, -2.5)" class="sprotty-port" style="fill:rgb(48, 48, 48);stroke:rgb(48, 48, 48);"/><text class="clickable sprotty-label port" id="sprotty_ArchitectureBlockImpl$prim_ram_2p_adv/BPortImpl$b_req_i/label" transform="translate(6, 6) translate(21.375, 14)" style="cursor:default;font-size:12px;perspective-origin:0px 0px;fill:rgb(48, 48, 48);text-anchor:middle;">b_req_i</text></g><g id="sprotty_ArchitectureBlockImpl$prim_ram_2p_adv/BPortImpl$a_wmask_i" transform="translate(0, 261)" class="triangle"><path d="M 0,0 L 5,2.5 L 0,5 Z" transform="translate(-1.67, -2.5)" class="sprotty-port" style="fill:rgb(48, 48, 48);stroke:rgb(48, 48, 48);"/><text class="clickable sprotty-label port" id="sprotty_ArchitectureBlockImpl$prim_ram_2p_adv/BPortImpl$a_wmask_i/label" transform="translate(6, 6) translate(31.625, 14)" style="cursor:default;font-size:12px;perspective-origin:0px 0px;fill:rgb(48, 48, 48);text-anchor:middle;">a_wmask_i</text></g><g id="sprotty_ArchitectureBlockImpl$prim_ram_2p_adv/BPortImpl$a_wdata_i" transform="translate(0, 227)" class="triangle"><path d="M 0,0 L 5,2.5 L 0,5 Z" transform="translate(-1.67, -2.5)" class="sprotty-port" style="fill:rgb(48, 48, 48);stroke:rgb(48, 48, 48);"/><text class="clickable sprotty-label port" id="sprotty_ArchitectureBlockImpl$prim_ram_2p_adv/BPortImpl$a_wdata_i/label" transform="translate(6, 6) translate(29.046875, 14)" style="cursor:default;font-size:12px;perspective-origin:0px 0px;fill:rgb(48, 48, 48);text-anchor:middle;">a_wdata_i</text></g><g id="sprotty_ArchitectureBlockImpl$prim_ram_2p_adv/BPortImpl$a_addr_i" transform="translate(0, 193)" class="triangle"><path d="M 0,0 L 5,2.5 L 0,5 Z" transform="translate(-1.67, -2.5)" class="sprotty-port" style="fill:rgb(48, 48, 48);stroke:rgb(48, 48, 48);"/><text class="clickable sprotty-label port" id="sprotty_ArchitectureBlockImpl$prim_ram_2p_adv/BPortImpl$a_addr_i/label" transform="translate(6, 6) translate(24.90625, 14)" style="cursor:default;font-size:12px;perspective-origin:0px 0px;fill:rgb(48, 48, 48);text-anchor:middle;">a_addr_i</text></g><g id="sprotty_ArchitectureBlockImpl$prim_ram_2p_adv/BPortImpl$a_write_i" transform="translate(0, 159)" class="triangle"><path d="M 0,0 L 5,2.5 L 0,5 Z" transform="translate(-1.67, -2.5)" class="sprotty-port" style="fill:rgb(48, 48, 48);stroke:rgb(48, 48, 48);"/><text class="clickable sprotty-label port" id="sprotty_ArchitectureBlockImpl$prim_ram_2p_adv/BPortImpl$a_write_i/label" transform="translate(6, 6) translate(26.03125, 14)" style="cursor:default;font-size:12px;perspective-origin:0px 0px;fill:rgb(48, 48, 48);text-anchor:middle;">a_write_i</text></g><g id="sprotty_ArchitectureBlockImpl$prim_ram_2p_adv/BPortImpl$a_req_i" transform="translate(0, 125)" class="triangle"><path d="M 0,0 L 5,2.5 L 0,5 Z" transform="translate(-1.67, -2.5)" class="sprotty-port" style="fill:rgb(48, 48, 48);stroke:rgb(48, 48, 48);"/><text class="clickable sprotty-label port" id="sprotty_ArchitectureBlockImpl$prim_ram_2p_adv/BPortImpl$a_req_i/label" transform="translate(6, 6) translate(21.0625, 14)" style="cursor:default;font-size:12px;perspective-origin:0px 0px;fill:rgb(48, 48, 48);text-anchor:middle;">a_req_i</text></g><g id="sprotty_ArchitectureBlockImpl$prim_ram_2p_adv/BPortImpl$rst_ni" transform="translate(0, 91)" class="triangle"><path d="M 0,0 L 5,2.5 L 0,5 Z" transform="translate(-1.67, -2.5)" class="sprotty-port" style="fill:rgb(48, 48, 48);stroke:rgb(48, 48, 48);"/><text class="clickable sprotty-label port" id="sprotty_ArchitectureBlockImpl$prim_ram_2p_adv/BPortImpl$rst_ni/label" transform="translate(6, 6) translate(15.921875, 14)" style="cursor:default;font-size:12px;perspective-origin:0px 0px;fill:rgb(48, 48, 48);text-anchor:middle;">rst_ni</text></g><g id="sprotty_ArchitectureBlockImpl$prim_ram_2p_adv/BPortImpl$clk_i" transform="translate(0, 57)" class="triangle"><path d="M 0,0 L 5,2.5 L 0,5 Z" transform="translate(-1.67, -2.5)" class="sprotty-port" style="fill:rgb(48, 48, 48);stroke:rgb(48, 48, 48);"/><text class="clickable sprotty-label port" id="sprotty_ArchitectureBlockImpl$prim_ram_2p_adv/BPortImpl$clk_i/label" transform="translate(6, 6) translate(13.09375, 14)" style="cursor:default;font-size:12px;perspective-origin:0px 0px;fill:rgb(48, 48, 48);text-anchor:middle;">clk_i</text></g><g id="sprotty_ArchitectureBlockImpl$prim_ram_2p_adv/BPortImpl$a_rdata_o" transform="translate(699.0625, 73)" class="triangle"><path d="M 0,0 L 5,2.5 L 0,5 Z" transform="translate(-1.67, -2.5)" class="sprotty-port" style="fill:rgb(48, 48, 48);stroke:rgb(48, 48, 48);"/><text class="clickable sprotty-label port" id="sprotty_ArchitectureBlockImpl$prim_ram_2p_adv/BPortImpl$a_rdata_o/label" transform="translate(-63.03125, 6) translate(28.515625, 14)" style="cursor:default;font-size:12px;perspective-origin:0px 0px;fill:rgb(48, 48, 48);text-anchor:middle;">a_rdata_o</text></g><g id="sprotty_ArchitectureBlockImpl$prim_ram_2p_adv/BPortImpl$a_rvalid_o" transform="translate(699.0625, 151.4)" class="triangle"><path d="M 0,0 L 5,2.5 L 0,5 Z" transform="translate(-1.67, -2.5)" class="sprotty-port" style="fill:rgb(48, 48, 48);stroke:rgb(48, 48, 48);"/><text class="clickable sprotty-label port" id="sprotty_ArchitectureBlockImpl$prim_ram_2p_adv/BPortImpl$a_rvalid_o/label" transform="translate(-65.40625, 6) translate(29.703125, 14)" style="cursor:default;font-size:12px;perspective-origin:0px 0px;fill:rgb(48, 48, 48);text-anchor:middle;">a_rvalid_o</text></g><g id="sprotty_ArchitectureBlockImpl$prim_ram_2p_adv/BPortImpl$a_rerror_o" transform="translate(699.0625, 229.8)" class="triangle"><path d="M 0,0 L 5,2.5 L 0,5 Z" transform="translate(-1.67, -2.5)" class="sprotty-port" style="fill:rgb(48, 48, 48);stroke:rgb(48, 48, 48);"/><text class="clickable sprotty-label port" id="sprotty_ArchitectureBlockImpl$prim_ram_2p_adv/BPortImpl$a_rerror_o/label" transform="translate(-65.75, 6) translate(29.875, 14)" style="cursor:default;font-size:12px;perspective-origin:0px 0px;fill:rgb(48, 48, 48);text-anchor:middle;">a_rerror_o</text></g><g id="sprotty_ArchitectureBlockImpl$prim_ram_2p_adv/BPortImpl$b_rdata_o" transform="translate(699.0625, 308.20000000000005)" class="triangle"><path d="M 0,0 L 5,2.5 L 0,5 Z" transform="translate(-1.67, -2.5)" class="sprotty-port" style="fill:rgb(48, 48, 48);stroke:rgb(48, 48, 48);"/><text class="clickable sprotty-label port" id="sprotty_ArchitectureBlockImpl$prim_ram_2p_adv/BPortImpl$b_rdata_o/label" transform="translate(-63.6875, 6) translate(28.84375, 14)" style="cursor:default;font-size:12px;perspective-origin:0px 0px;fill:rgb(48, 48, 48);text-anchor:middle;">b_rdata_o</text></g><g id="sprotty_ArchitectureBlockImpl$prim_ram_2p_adv/BPortImpl$b_rvalid_o" transform="translate(699.0625, 386.6)" class="triangle"><path d="M 0,0 L 5,2.5 L 0,5 Z" transform="translate(-1.67, -2.5)" class="sprotty-port" style="fill:rgb(48, 48, 48);stroke:rgb(48, 48, 48);"/><text class="clickable sprotty-label port" id="sprotty_ArchitectureBlockImpl$prim_ram_2p_adv/BPortImpl$b_rvalid_o/label" transform="translate(-66.03125, 6) translate(30.015625, 14)" style="cursor:default;font-size:12px;perspective-origin:0px 0px;fill:rgb(48, 48, 48);text-anchor:middle;">b_rvalid_o</text></g><g id="sprotty_ArchitectureBlockImpl$prim_ram_2p_adv/BPortImpl$b_rerror_o" transform="translate(699.0625, 465)" class="triangle"><path d="M 0,0 L 5,2.5 L 0,5 Z" transform="translate(-1.67, -2.5)" class="sprotty-port" style="fill:rgb(48, 48, 48);stroke:rgb(48, 48, 48);"/><text class="clickable sprotty-label port" id="sprotty_ArchitectureBlockImpl$prim_ram_2p_adv/BPortImpl$b_rerror_o/label" transform="translate(-66.40625, 6) translate(30.203125, 14)" style="cursor:default;font-size:12px;perspective-origin:0px 0px;fill:rgb(48, 48, 48);text-anchor:middle;">b_rerror_o</text></g></g></g></svg>