<svg xmlns="http://www.w3.org/2000/svg" id="sprotty_work.keymgr_cfg_en" class="sprotty-graph sprotty-block-diagram blockdiagram" style="font-family:&quot;Noto Sans&quot;, Helvetica, Arial, sans-serif;perspective-origin:0px 0px;transform-origin:0px 0px;" version="1.1" viewBox="7 7 354.125 309" width="354.125" height="309"><g transform="scale(1) translate(0,0)"><g id="sprotty_ArchitectureBlockImpl$keymgr_cfg_en" transform="translate(12, 12)" class="architecture"><g class="sprotty-block" style="fill:rgb(255, 255, 255);stroke:rgb(48, 48, 48);stroke-dasharray:0px;"><rect x="0" y="0" rx="1" ry="1" width="344.125" height="299"/><text x="172.0625" y="12" class="sprotty-block-name" style="cursor:pointer;font-weight:700;perspective-origin:172.062px 0px;fill:rgb(48, 48, 48);stroke:rgba(0, 0, 0, 0);dominant-baseline:middle;text-anchor:middle;">keymgr_cfg_en</text><line x1="0" y1="20" x2="344.125" y2="20"/></g><g id="sprotty_ArchitectureBlockImpl$keymgr_cfg_en/AssignmentBlockImpl$out_o/GPortImpl$out_oOUT_to_ArchitectureBlockImpl$keymgr_cfg_en/BPortImpl$out_o" class="sprotty-edge edge" style="fill:none;stroke:rgb(112, 112, 112);stroke-linejoin:round;"><g><path d="M 290.0625 151 L 344.125 151 "/><path d="M 290.0625 151 L 344.125 151 " class="clickable"/></g></g><g id="sprotty_ArchitectureBlockImpl$keymgr_cfg_en/BPortImpl$clr_i_to_ArchitectureBlockImpl$keymgr_cfg_en/AssignmentBlockImpl$vld_clr/GPortImpl$clr_iIN" class="sprotty-edge edge" style="fill:none;stroke:rgb(112, 112, 112);stroke-linejoin:round;"><g><path d="M 0 45 L 139.734375 45 C 140.734375 45 141.734375 46 141.734375 47 L 141.734375 65 C 141.734375 66 142.734375 67 143.734375 67 L 151.734375 67 "/><path d="M 0 45 L 139.734375 45 C 140.734375 45 141.734375 46 141.734375 47 L 141.734375 65 C 141.734375 66 142.734375 67 143.734375 67 L 151.734375 67 " class="clickable"/></g><circle r="2" id="sprotty_ArchitectureBlockImpl$keymgr_cfg_en/BPortImpl$clr_i_to_ArchitectureBlockImpl$keymgr_cfg_en/AssignmentBlockImpl$vld_clr/GPortImpl$clr_iIN/junction0" transform="translate(141.734375, 45)" class="sprotty-junction junction" style="fill:rgb(112, 112, 112);stroke:none;"/></g><g id="sprotty_ArchitectureBlockImpl$keymgr_cfg_en/BPortImpl$set_i_to_ArchitectureBlockImpl$keymgr_cfg_en/AssignmentBlockImpl$vld_set/GPortImpl$set_iIN" class="sprotty-edge edge" style="fill:none;stroke:rgb(112, 112, 112);stroke-linejoin:round;"><g><path d="M 0 117 L 151.734375 117 "/><path d="M 0 117 L 151.734375 117 " class="clickable"/></g></g><g id="sprotty_ArchitectureBlockImpl$keymgr_cfg_en/BPortImpl$en_i_to_ArchitectureBlockImpl$keymgr_cfg_en/AssignmentBlockImpl$vld_dis/GPortImpl$en_iIN" class="sprotty-edge edge" style="fill:none;stroke:rgb(112, 112, 112);stroke-linejoin:round;"><g><path d="M 0 260 L 151.734375 260 "/><path d="M 0 260 L 151.734375 260 " class="clickable"/></g></g><g id="sprotty_ArchitectureBlockImpl$keymgr_cfg_en/BPortImpl$clr_i_to_ArchitectureBlockImpl$keymgr_cfg_en/AssignmentBlockImpl$out_clr/GPortImpl$clr_iIN" class="sprotty-edge edge" style="fill:none;stroke:rgb(112, 112, 112);stroke-linejoin:round;"><g><path d="M 0 45 L 211.17708333333334 45 "/><path d="M 0 45 L 211.17708333333334 45 " class="clickable"/></g></g><g id="sprotty_ArchitectureBlockImpl$keymgr_cfg_en/BPortImpl$en_i_to_ArchitectureBlockImpl$keymgr_cfg_en/AssignmentBlockImpl$out_o/GPortImpl$en_iIN" class="sprotty-edge edge" style="fill:none;stroke:rgb(112, 112, 112);stroke-linejoin:round;"><g><path d="M 0 260 L 139.734375 260 C 140.734375 260 141.734375 261 141.734375 262 L 141.734375 279 C 141.734375 280 142.734375 281 143.734375 281 L 258.34375 281 C 259.34375 281 260.34375 280 260.34375 279 L 260.34375 163 C 260.34375 162 261.34375 161 262.34375 161 L 270.34375 161 "/><path d="M 0 260 L 139.734375 260 C 140.734375 260 141.734375 261 141.734375 262 L 141.734375 279 C 141.734375 280 142.734375 281 143.734375 281 L 258.34375 281 C 259.34375 281 260.34375 280 260.34375 279 L 260.34375 163 C 260.34375 162 261.34375 161 262.34375 161 L 270.34375 161 " class="clickable"/></g><circle r="2" id="sprotty_ArchitectureBlockImpl$keymgr_cfg_en/BPortImpl$en_i_to_ArchitectureBlockImpl$keymgr_cfg_en/AssignmentBlockImpl$out_o/GPortImpl$en_iIN/junction0" transform="translate(141.734375, 260)" class="sprotty-junction junction" style="fill:rgb(112, 112, 112);stroke:none;"/></g><g id="sprotty_ArchitectureBlockImpl$keymgr_cfg_en/BPortImpl$clk_i_to_ArchitectureBlockImpl$keymgr_cfg_en/AlwaysBlockImpl$null8/GPortImpl$clk_iIN" class="sprotty-edge edge" style="fill:none;stroke:rgb(112, 112, 112);stroke-linejoin:round;"><g><path d="M 0 226 L 60.84375 226 C 61.84375 226 62.84375 225 62.84375 224 L 62.84375 197 C 62.84375 196 63.84375 195 64.84375 195 L 82.84375 195 "/><path d="M 0 226 L 60.84375 226 C 61.84375 226 62.84375 225 62.84375 224 L 62.84375 197 C 62.84375 196 63.84375 195 64.84375 195 L 82.84375 195 " class="clickable"/></g><circle r="2" id="sprotty_ArchitectureBlockImpl$keymgr_cfg_en/BPortImpl$clk_i_to_ArchitectureBlockImpl$keymgr_cfg_en/AlwaysBlockImpl$null8/GPortImpl$clk_iIN/junction0" transform="translate(62.84375, 226)" class="sprotty-junction junction" style="fill:rgb(112, 112, 112);stroke:none;"/></g><g id="sprotty_ArchitectureBlockImpl$keymgr_cfg_en/BPortImpl$rst_ni_to_ArchitectureBlockImpl$keymgr_cfg_en/AlwaysBlockImpl$null8/GPortImpl$rst_niIN" class="sprotty-edge edge" style="fill:none;stroke:rgb(112, 112, 112);stroke-linejoin:round;"><g><path d="M 0 151 L 60.84375 151 C 61.84375 151 62.84375 152 62.84375 153 L 62.84375 173 C 62.84375 174 63.84375 175 64.84375 175 L 82.84375 175 "/><path d="M 0 151 L 60.84375 151 C 61.84375 151 62.84375 152 62.84375 153 L 62.84375 173 C 62.84375 174 63.84375 175 64.84375 175 L 82.84375 175 " class="clickable"/></g><circle r="2" id="sprotty_ArchitectureBlockImpl$keymgr_cfg_en/BPortImpl$rst_ni_to_ArchitectureBlockImpl$keymgr_cfg_en/AlwaysBlockImpl$null8/GPortImpl$rst_niIN/junction0" transform="translate(62.84375, 151)" class="sprotty-junction junction" style="fill:rgb(112, 112, 112);stroke:none;"/></g><g id="sprotty_ArchitectureBlockImpl$keymgr_cfg_en/BPortImpl$en_i_to_ArchitectureBlockImpl$keymgr_cfg_en/AlwaysBlockImpl$null8/GPortImpl$en_iIN" class="sprotty-edge edge" style="fill:none;stroke:rgb(112, 112, 112);stroke-linejoin:round;"><g><path d="M 0 260 L 70.84375 260 C 71.84375 260 72.84375 259 72.84375 258 L 72.84375 207 C 72.84375 206 73.84375 205 74.84375 205 L 82.84375 205 "/><path d="M 0 260 L 70.84375 260 C 71.84375 260 72.84375 259 72.84375 258 L 72.84375 207 C 72.84375 206 73.84375 205 74.84375 205 L 82.84375 205 " class="clickable"/></g><circle r="2" id="sprotty_ArchitectureBlockImpl$keymgr_cfg_en/BPortImpl$en_i_to_ArchitectureBlockImpl$keymgr_cfg_en/AlwaysBlockImpl$null8/GPortImpl$en_iIN/junction0" transform="translate(72.84375, 260)" class="sprotty-junction junction" style="fill:rgb(112, 112, 112);stroke:none;"/></g><g id="sprotty_ArchitectureBlockImpl$keymgr_cfg_en/BPortImpl$init_i_to_ArchitectureBlockImpl$keymgr_cfg_en/AlwaysBlockImpl$null8/GPortImpl$init_iIN" class="sprotty-edge edge" style="fill:none;stroke:rgb(112, 112, 112);stroke-linejoin:round;"><g><path d="M 0 185 L 82.84375 185 "/><path d="M 0 185 L 82.84375 185 " class="clickable"/></g></g><g id="sprotty_ArchitectureBlockImpl$keymgr_cfg_en/BPortImpl$clk_i_to_ArchitectureBlockImpl$keymgr_cfg_en/AlwaysBlockImpl$null7/GPortImpl$clk_iIN" class="sprotty-edge edge" style="fill:none;stroke:rgb(112, 112, 112);stroke-linejoin:round;"><g><path d="M 0 226 L 179.453125 226 C 180.453125 226 181.453125 225 181.453125 224 L 181.453125 163 C 181.453125 162 182.453125 161 183.453125 161 L 201.453125 161 "/><path d="M 0 226 L 179.453125 226 C 180.453125 226 181.453125 225 181.453125 224 L 181.453125 163 C 181.453125 162 182.453125 161 183.453125 161 L 201.453125 161 " class="clickable"/></g></g><g id="sprotty_ArchitectureBlockImpl$keymgr_cfg_en/BPortImpl$rst_ni_to_ArchitectureBlockImpl$keymgr_cfg_en/AlwaysBlockImpl$null7/GPortImpl$rst_niIN" class="sprotty-edge edge" style="fill:none;stroke:rgb(112, 112, 112);stroke-linejoin:round;"><g><path d="M 0 151 L 201.453125 151 "/><path d="M 0 151 L 201.453125 151 " class="clickable"/></g></g><g id="sprotty_ArchitectureBlockImpl$keymgr_cfg_en/AlwaysBlockImpl$null7/GPortImpl$out_qOUT_to_ArchitectureBlockImpl$keymgr_cfg_en/AssignmentBlockImpl$out_o/GPortImpl$out_qIN" class="sprotty-edge edge" style="fill:none;stroke:rgb(112, 112, 112);stroke-linejoin:round;"><g><path d="M 250.34375 151 L 270.34375 151 "/><path d="M 250.34375 151 L 270.34375 151 " class="clickable"/></g></g><g id="sprotty_ArchitectureBlockImpl$keymgr_cfg_en/AlwaysBlockImpl$null8/GPortImpl$init_qOUT_to_ArchitectureBlockImpl$keymgr_cfg_en/AssignmentBlockImpl$vld_clr/GPortImpl$init_qIN" class="sprotty-edge edge" style="fill:none;stroke:rgb(112, 112, 112);stroke-linejoin:round;"><g><path d="M 131.734375 190 L 139.734375 190 C 140.734375 190 141.734375 189 141.734375 188 L 141.734375 79 C 141.734375 78 142.734375 77 143.734375 77 L 151.734375 77 "/><path d="M 131.734375 190 L 139.734375 190 C 140.734375 190 141.734375 189 141.734375 188 L 141.734375 79 C 141.734375 78 142.734375 77 143.734375 77 L 151.734375 77 " class="clickable"/></g><circle r="2" id="sprotty_ArchitectureBlockImpl$keymgr_cfg_en/AlwaysBlockImpl$null8/GPortImpl$init_qOUT_to_ArchitectureBlockImpl$keymgr_cfg_en/AssignmentBlockImpl$vld_clr/GPortImpl$init_qIN/junction0" transform="translate(141.734375, 190)" class="sprotty-junction junction" style="fill:rgb(112, 112, 112);stroke:none;"/></g><g id="sprotty_ArchitectureBlockImpl$keymgr_cfg_en/AlwaysBlockImpl$null8/GPortImpl$init_qOUT_to_ArchitectureBlockImpl$keymgr_cfg_en/AssignmentBlockImpl$vld_set/GPortImpl$init_qIN" class="sprotty-edge edge" style="fill:none;stroke:rgb(112, 112, 112);stroke-linejoin:round;"><g><path d="M 131.734375 190 L 139.734375 190 C 140.734375 190 141.734375 189 141.734375 188 L 141.734375 129 C 141.734375 128 142.734375 127 143.734375 127 L 151.734375 127 "/><path d="M 131.734375 190 L 139.734375 190 C 140.734375 190 141.734375 189 141.734375 188 L 141.734375 129 C 141.734375 128 142.734375 127 143.734375 127 L 151.734375 127 " class="clickable"/></g><circle r="2" id="sprotty_ArchitectureBlockImpl$keymgr_cfg_en/AlwaysBlockImpl$null8/GPortImpl$init_qOUT_to_ArchitectureBlockImpl$keymgr_cfg_en/AssignmentBlockImpl$vld_set/GPortImpl$init_qIN/junction0" transform="translate(141.734375, 127)" class="sprotty-junction junction" style="fill:rgb(112, 112, 112);stroke:none;"/></g><g id="sprotty_ArchitectureBlockImpl$keymgr_cfg_en/AlwaysBlockImpl$null8/GPortImpl$init_qOUT_to_ArchitectureBlockImpl$keymgr_cfg_en/AssignmentBlockImpl$vld_dis/GPortImpl$init_qIN" class="sprotty-edge edge" style="fill:none;stroke:rgb(112, 112, 112);stroke-linejoin:round;"><g><path d="M 131.734375 190 L 139.734375 190 C 140.734375 190 141.734375 191 141.734375 192 L 141.734375 248 C 141.734375 249 142.734375 250 143.734375 250 L 151.734375 250 "/><path d="M 131.734375 190 L 139.734375 190 C 140.734375 190 141.734375 191 141.734375 192 L 141.734375 248 C 141.734375 249 142.734375 250 143.734375 250 L 151.734375 250 " class="clickable"/></g></g><g id="sprotty_ArchitectureBlockImpl$keymgr_cfg_en/AssignmentBlockImpl$vld_clr/GPortImpl$vld_clrOUT_to_ArchitectureBlockImpl$keymgr_cfg_en/AssignmentBlockImpl$out_clr/GPortImpl$vld_clrIN" class="sprotty-edge edge" style="fill:none;stroke:rgb(112, 112, 112);stroke-linejoin:round;"><g><path d="M 171.453125 72 L 189.453125 72 C 190.453125 72 191.453125 71 191.453125 70 L 191.453125 57 C 191.453125 56 192.453125 55 193.453125 55 L 211.17708333333334 55 "/><path d="M 171.453125 72 L 189.453125 72 C 190.453125 72 191.453125 71 191.453125 70 L 191.453125 57 C 191.453125 56 192.453125 55 193.453125 55 L 211.17708333333334 55 " class="clickable"/></g><circle r="2" id="sprotty_ArchitectureBlockImpl$keymgr_cfg_en/AssignmentBlockImpl$vld_clr/GPortImpl$vld_clrOUT_to_ArchitectureBlockImpl$keymgr_cfg_en/AssignmentBlockImpl$out_clr/GPortImpl$vld_clrIN/junction0" transform="translate(191.453125, 72)" class="sprotty-junction junction" style="fill:rgb(112, 112, 112);stroke:none;"/></g><g id="sprotty_ArchitectureBlockImpl$keymgr_cfg_en/AssignmentBlockImpl$vld_clr/GPortImpl$vld_clrOUT_to_ArchitectureBlockImpl$keymgr_cfg_en/AlwaysBlockImpl$null7/GPortImpl$vld_clrIN" class="sprotty-edge edge" style="fill:none;stroke:rgb(112, 112, 112);stroke-linejoin:round;"><g><path d="M 171.453125 72 L 189.453125 72 C 190.453125 72 191.453125 73 191.453125 74 L 191.453125 129 C 191.453125 130 192.453125 131 193.453125 131 L 201.453125 131 "/><path d="M 171.453125 72 L 189.453125 72 C 190.453125 72 191.453125 73 191.453125 74 L 191.453125 129 C 191.453125 130 192.453125 131 193.453125 131 L 201.453125 131 " class="clickable"/></g></g><g id="sprotty_ArchitectureBlockImpl$keymgr_cfg_en/AssignmentBlockImpl$vld_set/GPortImpl$vld_setOUT_to_ArchitectureBlockImpl$keymgr_cfg_en/AlwaysBlockImpl$null7/GPortImpl$vld_setIN" class="sprotty-edge edge" style="fill:none;stroke:rgb(112, 112, 112);stroke-linejoin:round;"><g><path d="M 171.453125 122 L 179.453125 122 C 180.453125 122 181.453125 123 181.453125 124 L 181.453125 139 C 181.453125 140 182.453125 141 183.453125 141 L 201.453125 141 "/><path d="M 171.453125 122 L 179.453125 122 C 180.453125 122 181.453125 123 181.453125 124 L 181.453125 139 C 181.453125 140 182.453125 141 183.453125 141 L 201.453125 141 " class="clickable"/></g></g><g id="sprotty_ArchitectureBlockImpl$keymgr_cfg_en/AssignmentBlockImpl$vld_dis/GPortImpl$vld_disOUT_to_ArchitectureBlockImpl$keymgr_cfg_en/AlwaysBlockImpl$null7/GPortImpl$vld_disIN" class="sprotty-edge edge" style="fill:none;stroke:rgb(112, 112, 112);stroke-linejoin:round;"><g><path d="M 171.453125 255 L 189.453125 255 C 190.453125 255 191.453125 254 191.453125 253 L 191.453125 173 C 191.453125 172 192.453125 171 193.453125 171 L 201.453125 171 "/><path d="M 171.453125 255 L 189.453125 255 C 190.453125 255 191.453125 254 191.453125 253 L 191.453125 173 C 191.453125 172 192.453125 171 193.453125 171 L 201.453125 171 " class="clickable"/></g></g><g id="sprotty_ArchitectureBlockImpl$keymgr_cfg_en/AssignmentBlockImpl$out_clr/GPortImpl$vld_clrOUT_to_ArchitectureBlockImpl$keymgr_cfg_en/AssignmentBlockImpl$out_o/GPortImpl$out_clrIN" class="sprotty-edge edge" style="fill:none;stroke:rgb(112, 112, 112);stroke-linejoin:round;"><g><path d="M 230.89583333333334 50 L 258.34375 50 C 259.34375 50 260.34375 51 260.34375 52 L 260.34375 139 C 260.34375 140 261.34375 141 262.34375 141 L 270.34375 141 "/><path d="M 230.89583333333334 50 L 258.34375 50 C 259.34375 50 260.34375 51 260.34375 52 L 260.34375 139 C 260.34375 140 261.34375 141 262.34375 141 L 270.34375 141 " class="clickable"/></g></g><g id="sprotty_ArchitectureBlockImpl$keymgr_cfg_en/AlwaysBlockImpl$null7" transform="translate(201.453125, 121)" class="statement"><rect x="0" y="0" rx="10" ry="5" width="48.890625" height="60" class="sprotty-node" style="fill:rgb(245, 245, 245);stroke:rgb(112, 112, 112);"/><text class="clickable sprotty-label statementtype" id="sprotty_ArchitectureBlockImpl$keymgr_cfg_en/AlwaysBlockImpl$null7/labeltype" transform="translate(5, 24) translate(18.828125, 9)" style="cursor:default;font-size:8px;font-weight:700;perspective-origin:0.609375px 0px;fill:rgb(112, 112, 112);text-anchor:middle;">always_ff</text><g id="sprotty_ArchitectureBlockImpl$keymgr_cfg_en/AlwaysBlockImpl$null7/GPortImpl$vld_clrIN" transform="translate(0, 10)" class="sprotty-hidden hidden" style="display:block;height:0px;width:0px;"/><g id="sprotty_ArchitectureBlockImpl$keymgr_cfg_en/AlwaysBlockImpl$null7/GPortImpl$vld_setIN" transform="translate(0, 20)" class="sprotty-hidden hidden" style="display:block;height:0px;width:0px;"/><g id="sprotty_ArchitectureBlockImpl$keymgr_cfg_en/AlwaysBlockImpl$null7/GPortImpl$vld_disIN" transform="translate(0, 50)" class="sprotty-hidden hidden" style="display:block;height:0px;width:0px;"/><g id="sprotty_ArchitectureBlockImpl$keymgr_cfg_en/AlwaysBlockImpl$null7/GPortImpl$rst_niIN" transform="translate(0, 30)" class="sprotty-hidden hidden" style="display:block;height:0px;width:0px;"/><g id="sprotty_ArchitectureBlockImpl$keymgr_cfg_en/AlwaysBlockImpl$null7/GPortImpl$clk_iIN" transform="translate(0, 40)" class="sprotty-hidden hidden" style="display:block;height:0px;width:0px;"/><g id="sprotty_ArchitectureBlockImpl$keymgr_cfg_en/AlwaysBlockImpl$null7/GPortImpl$out_qOUT" transform="translate(48.890625, 30)" class="sprotty-hidden hidden" style="display:block;height:0px;width:0px;"/></g><g id="sprotty_ArchitectureBlockImpl$keymgr_cfg_en/AlwaysBlockImpl$null8" transform="translate(82.84375, 165)" class="statement"><rect x="0" y="0" rx="10" ry="5" width="48.890625" height="50" class="sprotty-node" style="fill:rgb(245, 245, 245);stroke:rgb(112, 112, 112);"/><text class="clickable sprotty-label statementtype" id="sprotty_ArchitectureBlockImpl$keymgr_cfg_en/AlwaysBlockImpl$null8/labeltype" transform="translate(5, 19) translate(18.828125, 9)" style="cursor:default;font-size:8px;font-weight:700;perspective-origin:0.609375px 0px;fill:rgb(112, 112, 112);text-anchor:middle;">always_ff</text><g id="sprotty_ArchitectureBlockImpl$keymgr_cfg_en/AlwaysBlockImpl$null8/GPortImpl$init_iIN" transform="translate(0, 20)" class="sprotty-hidden hidden" style="display:block;height:0px;width:0px;"/><g id="sprotty_ArchitectureBlockImpl$keymgr_cfg_en/AlwaysBlockImpl$null8/GPortImpl$en_iIN" transform="translate(0, 40)" class="sprotty-hidden hidden" style="display:block;height:0px;width:0px;"/><g id="sprotty_ArchitectureBlockImpl$keymgr_cfg_en/AlwaysBlockImpl$null8/GPortImpl$rst_niIN" transform="translate(0, 10)" class="sprotty-hidden hidden" style="display:block;height:0px;width:0px;"/><g id="sprotty_ArchitectureBlockImpl$keymgr_cfg_en/AlwaysBlockImpl$null8/GPortImpl$clk_iIN" transform="translate(0, 30)" class="sprotty-hidden hidden" style="display:block;height:0px;width:0px;"/><g id="sprotty_ArchitectureBlockImpl$keymgr_cfg_en/AlwaysBlockImpl$null8/GPortImpl$init_qOUT" transform="translate(48.890625, 25)" class="sprotty-hidden hidden" style="display:block;height:0px;width:0px;"/></g><g id="sprotty_ArchitectureBlockImpl$keymgr_cfg_en/AssignmentBlockImpl$out_o" transform="translate(270.34375, 131)" class="statement"><rect x="0" y="0" rx="10" ry="5" width="19.71875" height="40" class="sprotty-node" style="fill:rgb(245, 245, 245);stroke:rgb(112, 112, 112);"/><text class="clickable sprotty-label statementtype" id="sprotty_ArchitectureBlockImpl$keymgr_cfg_en/AssignmentBlockImpl$out_o/labeltype" transform="translate(5, 14) translate(4.71875, 9)" style="cursor:default;font-size:8px;font-weight:700;perspective-origin:0.140625px 0px;fill:rgb(112, 112, 112);text-anchor:middle;">&lt;=</text><g id="sprotty_ArchitectureBlockImpl$keymgr_cfg_en/AssignmentBlockImpl$out_o/GPortImpl$en_iIN" transform="translate(0, 30)" class="sprotty-hidden hidden" style="display:block;height:0px;width:0px;"/><g id="sprotty_ArchitectureBlockImpl$keymgr_cfg_en/AssignmentBlockImpl$out_o/GPortImpl$out_qIN" transform="translate(0, 20)" class="sprotty-hidden hidden" style="display:block;height:0px;width:0px;"/><g id="sprotty_ArchitectureBlockImpl$keymgr_cfg_en/AssignmentBlockImpl$out_o/GPortImpl$out_clrIN" transform="translate(0, 10)" class="sprotty-hidden hidden" style="display:block;height:0px;width:0px;"/><g id="sprotty_ArchitectureBlockImpl$keymgr_cfg_en/AssignmentBlockImpl$out_o/GPortImpl$out_oOUT" transform="translate(19.71875, 20)" class="sprotty-hidden hidden" style="display:block;height:0px;width:0px;"/></g><g id="sprotty_ArchitectureBlockImpl$keymgr_cfg_en/AssignmentBlockImpl$out_clr" transform="translate(211.17708333333334, 35)" class="statement"><rect x="0" y="0" rx="10" ry="5" width="19.71875" height="30" class="sprotty-node" style="fill:rgb(245, 245, 245);stroke:rgb(112, 112, 112);"/><text class="clickable sprotty-label statementtype" id="sprotty_ArchitectureBlockImpl$keymgr_cfg_en/AssignmentBlockImpl$out_clr/labeltype" transform="translate(5, 9) translate(4.71875, 9)" style="cursor:default;font-size:8px;font-weight:700;perspective-origin:0.140625px 0px;fill:rgb(112, 112, 112);text-anchor:middle;">&lt;=</text><g id="sprotty_ArchitectureBlockImpl$keymgr_cfg_en/AssignmentBlockImpl$out_clr/GPortImpl$vld_clrIN" transform="translate(0, 20)" class="sprotty-hidden hidden" style="display:block;height:0px;width:0px;"/><g id="sprotty_ArchitectureBlockImpl$keymgr_cfg_en/AssignmentBlockImpl$out_clr/GPortImpl$clr_iIN" transform="translate(0, 10)" class="sprotty-hidden hidden" style="display:block;height:0px;width:0px;"/><g id="sprotty_ArchitectureBlockImpl$keymgr_cfg_en/AssignmentBlockImpl$out_clr/GPortImpl$vld_clrOUT" transform="translate(19.71875, 15)" class="sprotty-hidden hidden" style="display:block;height:0px;width:0px;"/></g><g id="sprotty_ArchitectureBlockImpl$keymgr_cfg_en/AssignmentBlockImpl$vld_dis" transform="translate(151.734375, 240)" class="statement"><rect x="0" y="0" rx="10" ry="5" width="19.71875" height="30" class="sprotty-node" style="fill:rgb(245, 245, 245);stroke:rgb(112, 112, 112);"/><text class="clickable sprotty-label statementtype" id="sprotty_ArchitectureBlockImpl$keymgr_cfg_en/AssignmentBlockImpl$vld_dis/labeltype" transform="translate(5, 9) translate(4.71875, 9)" style="cursor:default;font-size:8px;font-weight:700;perspective-origin:0.140625px 0px;fill:rgb(112, 112, 112);text-anchor:middle;">&lt;=</text><g id="sprotty_ArchitectureBlockImpl$keymgr_cfg_en/AssignmentBlockImpl$vld_dis/GPortImpl$en_iIN" transform="translate(0, 20)" class="sprotty-hidden hidden" style="display:block;height:0px;width:0px;"/><g id="sprotty_ArchitectureBlockImpl$keymgr_cfg_en/AssignmentBlockImpl$vld_dis/GPortImpl$init_qIN" transform="translate(0, 10)" class="sprotty-hidden hidden" style="display:block;height:0px;width:0px;"/><g id="sprotty_ArchitectureBlockImpl$keymgr_cfg_en/AssignmentBlockImpl$vld_dis/GPortImpl$vld_disOUT" transform="translate(19.71875, 15)" class="sprotty-hidden hidden" style="display:block;height:0px;width:0px;"/></g><g id="sprotty_ArchitectureBlockImpl$keymgr_cfg_en/AssignmentBlockImpl$vld_set" transform="translate(151.734375, 107)" class="statement"><rect x="0" y="0" rx="10" ry="5" width="19.71875" height="30" class="sprotty-node" style="fill:rgb(245, 245, 245);stroke:rgb(112, 112, 112);"/><text class="clickable sprotty-label statementtype" id="sprotty_ArchitectureBlockImpl$keymgr_cfg_en/AssignmentBlockImpl$vld_set/labeltype" transform="translate(5, 9) translate(4.71875, 9)" style="cursor:default;font-size:8px;font-weight:700;perspective-origin:0.140625px 0px;fill:rgb(112, 112, 112);text-anchor:middle;">&lt;=</text><g id="sprotty_ArchitectureBlockImpl$keymgr_cfg_en/AssignmentBlockImpl$vld_set/GPortImpl$set_iIN" transform="translate(0, 10)" class="sprotty-hidden hidden" style="display:block;height:0px;width:0px;"/><g id="sprotty_ArchitectureBlockImpl$keymgr_cfg_en/AssignmentBlockImpl$vld_set/GPortImpl$init_qIN" transform="translate(0, 20)" class="sprotty-hidden hidden" style="display:block;height:0px;width:0px;"/><g id="sprotty_ArchitectureBlockImpl$keymgr_cfg_en/AssignmentBlockImpl$vld_set/GPortImpl$vld_setOUT" transform="translate(19.71875, 15)" class="sprotty-hidden hidden" style="display:block;height:0px;width:0px;"/></g><g id="sprotty_ArchitectureBlockImpl$keymgr_cfg_en/AssignmentBlockImpl$vld_clr" transform="translate(151.734375, 57)" class="statement"><rect x="0" y="0" rx="10" ry="5" width="19.71875" height="30" class="sprotty-node" style="fill:rgb(245, 245, 245);stroke:rgb(112, 112, 112);"/><text class="clickable sprotty-label statementtype" id="sprotty_ArchitectureBlockImpl$keymgr_cfg_en/AssignmentBlockImpl$vld_clr/labeltype" transform="translate(5, 9) translate(4.71875, 9)" style="cursor:default;font-size:8px;font-weight:700;perspective-origin:0.140625px 0px;fill:rgb(112, 112, 112);text-anchor:middle;">&lt;=</text><g id="sprotty_ArchitectureBlockImpl$keymgr_cfg_en/AssignmentBlockImpl$vld_clr/GPortImpl$clr_iIN" transform="translate(0, 10)" class="sprotty-hidden hidden" style="display:block;height:0px;width:0px;"/><g id="sprotty_ArchitectureBlockImpl$keymgr_cfg_en/AssignmentBlockImpl$vld_clr/GPortImpl$init_qIN" transform="translate(0, 20)" class="sprotty-hidden hidden" style="display:block;height:0px;width:0px;"/><g id="sprotty_ArchitectureBlockImpl$keymgr_cfg_en/AssignmentBlockImpl$vld_clr/GPortImpl$vld_clrOUT" transform="translate(19.71875, 15)" class="sprotty-hidden hidden" style="display:block;height:0px;width:0px;"/></g><g id="sprotty_ArchitectureBlockImpl$keymgr_cfg_en/BPortImpl$clr_i" transform="translate(0, 45)" class="triangle"><path d="M 0,0 L 5,2.5 L 0,5 Z" transform="translate(-1.67, -2.5)" class="sprotty-port" style="fill:rgb(48, 48, 48);stroke:rgb(48, 48, 48);"/><text class="clickable sprotty-label port" id="sprotty_ArchitectureBlockImpl$keymgr_cfg_en/BPortImpl$clr_i/label" transform="translate(6, 6) translate(12.109375, 14)" style="cursor:default;font-size:12px;perspective-origin:0px 0px;fill:rgb(48, 48, 48);text-anchor:middle;">clr_i</text></g><g id="sprotty_ArchitectureBlockImpl$keymgr_cfg_en/BPortImpl$set_i" transform="translate(0, 117)" class="triangle"><path d="M 0,0 L 5,2.5 L 0,5 Z" transform="translate(-1.67, -2.5)" class="sprotty-port" style="fill:rgb(48, 48, 48);stroke:rgb(48, 48, 48);"/><text class="clickable sprotty-label port" id="sprotty_ArchitectureBlockImpl$keymgr_cfg_en/BPortImpl$set_i/label" transform="translate(6, 6) translate(13.34375, 14)" style="cursor:default;font-size:12px;perspective-origin:0px 0px;fill:rgb(48, 48, 48);text-anchor:middle;">set_i</text></g><g id="sprotty_ArchitectureBlockImpl$keymgr_cfg_en/BPortImpl$en_i" transform="translate(0, 260)" class="triangle"><path d="M 0,0 L 5,2.5 L 0,5 Z" transform="translate(-1.67, -2.5)" class="sprotty-port" style="fill:rgb(48, 48, 48);stroke:rgb(48, 48, 48);"/><text class="clickable sprotty-label port" id="sprotty_ArchitectureBlockImpl$keymgr_cfg_en/BPortImpl$en_i/label" transform="translate(6, 6) translate(12, 14)" style="cursor:default;font-size:12px;perspective-origin:0px 0px;fill:rgb(48, 48, 48);text-anchor:middle;">en_i</text></g><g id="sprotty_ArchitectureBlockImpl$keymgr_cfg_en/BPortImpl$init_i" transform="translate(0, 185)" class="triangle"><path d="M 0,0 L 5,2.5 L 0,5 Z" transform="translate(-1.67, -2.5)" class="sprotty-port" style="fill:rgb(48, 48, 48);stroke:rgb(48, 48, 48);"/><text class="clickable sprotty-label port" id="sprotty_ArchitectureBlockImpl$keymgr_cfg_en/BPortImpl$init_i/label" transform="translate(6, 6) translate(14.234375, 14)" style="cursor:default;font-size:12px;perspective-origin:0px 0px;fill:rgb(48, 48, 48);text-anchor:middle;">init_i</text></g><g id="sprotty_ArchitectureBlockImpl$keymgr_cfg_en/BPortImpl$rst_ni" transform="translate(0, 151)" class="triangle"><path d="M 0,0 L 5,2.5 L 0,5 Z" transform="translate(-1.67, -2.5)" class="sprotty-port" style="fill:rgb(48, 48, 48);stroke:rgb(48, 48, 48);"/><text class="clickable sprotty-label port" id="sprotty_ArchitectureBlockImpl$keymgr_cfg_en/BPortImpl$rst_ni/label" transform="translate(6, 6) translate(15.921875, 14)" style="cursor:default;font-size:12px;perspective-origin:0px 0px;fill:rgb(48, 48, 48);text-anchor:middle;">rst_ni</text></g><g id="sprotty_ArchitectureBlockImpl$keymgr_cfg_en/BPortImpl$clk_i" transform="translate(0, 226)" class="triangle"><path d="M 0,0 L 5,2.5 L 0,5 Z" transform="translate(-1.67, -2.5)" class="sprotty-port" style="fill:rgb(48, 48, 48);stroke:rgb(48, 48, 48);"/><text class="clickable sprotty-label port" id="sprotty_ArchitectureBlockImpl$keymgr_cfg_en/BPortImpl$clk_i/label" transform="translate(6, 6) translate(13.09375, 14)" style="cursor:default;font-size:12px;perspective-origin:0px 0px;fill:rgb(48, 48, 48);text-anchor:middle;">clk_i</text></g><g id="sprotty_ArchitectureBlockImpl$keymgr_cfg_en/BPortImpl$out_o" transform="translate(344.125, 151)" class="triangle"><path d="M 0,0 L 5,2.5 L 0,5 Z" transform="translate(-1.67, -2.5)" class="sprotty-port" style="fill:rgb(48, 48, 48);stroke:rgb(48, 48, 48);"/><text class="clickable sprotty-label port" id="sprotty_ArchitectureBlockImpl$keymgr_cfg_en/BPortImpl$out_o/label" transform="translate(-39.0625, 6) translate(16.53125, 14)" style="cursor:default;font-size:12px;perspective-origin:0px 0px;fill:rgb(48, 48, 48);text-anchor:middle;">out_o</text></g></g></g></svg>