<svg xmlns="http://www.w3.org/2000/svg" id="sprotty_work.rng_osc" class="sprotty-graph sprotty-block-diagram blockdiagram" style="font-family:&quot;Noto Sans&quot;, Helvetica, Arial, sans-serif;perspective-origin:0px 0px;transform-origin:0px 0px;" version="1.1" viewBox="7 7 442.328125 151" width="442.328125" height="151"><g transform="scale(1) translate(0,0)"><g id="sprotty_ArchitectureBlockImpl$rng_osc" transform="translate(12, 12)" class="architecture"><g class="sprotty-block" style="fill:rgb(255, 255, 255);stroke:rgb(48, 48, 48);stroke-dasharray:0px;"><rect x="0" y="0" rx="1" ry="1" width="432.328125" height="141"/><text x="216.1640625" y="12" class="sprotty-block-name" style="cursor:pointer;font-weight:700;perspective-origin:216.156px 0px;fill:rgb(48, 48, 48);stroke:rgba(0, 0, 0, 0);dominant-baseline:middle;text-anchor:middle;">rng_osc</text><line x1="0" y1="20" x2="432.328125" y2="20"/></g><g id="sprotty_ArchitectureBlockImpl$rng_osc/AssignmentBlockImpl$rng_clk_o/GPortImpl$rng_clk_oOUT_to_ArchitectureBlockImpl$rng_osc/BPortImpl$rng_clk_o" class="sprotty-edge edge" style="fill:none;stroke:rgb(112, 112, 112);stroke-linejoin:round;"><g><path d="M 355.734375 71 L 432.328125 71 "/><path d="M 355.734375 71 L 432.328125 71 " class="clickable"/></g></g><g id="sprotty_ArchitectureBlockImpl$rng_osc/BPortImpl$vcaon_pok_i_to_ArchitectureBlockImpl$rng_osc/AlwaysBlockImpl$null5/GPortImpl$vcaon_pok_iIN" class="sprotty-edge edge" style="fill:none;stroke:rgb(112, 112, 112);stroke-linejoin:round;"><g><path d="M 0 66 L 100.625 66 C 101.625 66 102.625 67 102.625 68 L 102.625 90 C 102.625 91 103.625 92 104.625 92 L 112.625 92 "/><path d="M 0 66 L 100.625 66 C 101.625 66 102.625 67 102.625 68 L 102.625 90 C 102.625 91 103.625 92 104.625 92 L 112.625 92 " class="clickable"/></g><circle r="2" id="sprotty_ArchitectureBlockImpl$rng_osc/BPortImpl$vcaon_pok_i_to_ArchitectureBlockImpl$rng_osc/AlwaysBlockImpl$null5/GPortImpl$vcaon_pok_iIN/junction0" transform="translate(102.625, 66)" class="sprotty-junction junction" style="fill:rgb(112, 112, 112);stroke:none;"/></g><g id="sprotty_ArchitectureBlockImpl$rng_osc/BPortImpl$rng_en_i_to_ArchitectureBlockImpl$rng_osc/AlwaysBlockImpl$null5/GPortImpl$rng_en_iIN" class="sprotty-edge edge" style="fill:none;stroke:rgb(112, 112, 112);stroke-linejoin:round;"><g><path d="M 0 102 L 112.625 102 "/><path d="M 0 102 L 112.625 102 " class="clickable"/></g></g><g id="sprotty_ArchitectureBlockImpl$rng_osc/BPortImpl$vcaon_pok_i_to_ArchitectureBlockImpl$rng_osc/AlwaysBlockImpl$null4/GPortImpl$vcaon_pok_iIN" class="sprotty-edge edge" style="fill:none;stroke:rgb(112, 112, 112);stroke-linejoin:round;"><g><path d="M 0 66 L 170.015625 66 "/><path d="M 0 66 L 170.015625 66 " class="clickable"/></g></g><g id="sprotty_ArchitectureBlockImpl$rng_osc/AlwaysBlockImpl$null3/GPortImpl$clkOUT_to_ArchitectureBlockImpl$rng_osc/AssignmentBlockImpl$rng_clk_o/GPortImpl$clkIN" class="sprotty-edge edge" style="fill:none;stroke:rgb(112, 112, 112);stroke-linejoin:round;"><g><path d="M 316.015625 71 L 336.015625 71 "/><path d="M 316.015625 71 L 336.015625 71 " class="clickable"/></g></g><g id="sprotty_ArchitectureBlockImpl$rng_osc/AlwaysBlockImpl$null3/GPortImpl$clkOUT_to_ArchitectureBlockImpl$rng_osc/AlwaysBlockImpl$null4/GPortImpl$clkIN" class="sprotty-edge edge" style="fill:none;stroke:rgb(112, 112, 112);stroke-linejoin:round;"><g><path d="M 316.015625 71 L 324.015625 71 C 325.015625 71 326.015625 70 326.015625 69 L 326.015625 38 C 326.015625 37 325.015625 36 324.015625 36 L 162.015625 36 C 161.015625 36 160.015625 37 160.015625 38 L 160.015625 54 C 160.015625 55 161.015625 56 162.015625 56 L 170.015625 56 "/><path d="M 316.015625 71 L 324.015625 71 C 325.015625 71 326.015625 70 326.015625 69 L 326.015625 38 C 326.015625 37 325.015625 36 324.015625 36 L 162.015625 36 C 161.015625 36 160.015625 37 160.015625 38 L 160.015625 54 C 160.015625 55 161.015625 56 162.015625 56 L 170.015625 56 " class="clickable"/></g><circle r="2" id="sprotty_ArchitectureBlockImpl$rng_osc/AlwaysBlockImpl$null3/GPortImpl$clkOUT_to_ArchitectureBlockImpl$rng_osc/AlwaysBlockImpl$null4/GPortImpl$clkIN/junction0" transform="translate(326.015625, 71)" class="sprotty-junction junction" style="fill:rgb(112, 112, 112);stroke:none;"/></g><g id="sprotty_ArchitectureBlockImpl$rng_osc/AssignmentBlockImpl$en_osc/GPortImpl$en_osc_feOUT_to_ArchitectureBlockImpl$rng_osc/AlwaysBlockImpl$null3/GPortImpl$en_oscIN" class="sprotty-edge edge" style="fill:none;stroke:rgb(112, 112, 112);stroke-linejoin:round;"><g><path d="M 258.625 71 L 278.625 71 "/><path d="M 258.625 71 L 278.625 71 " class="clickable"/></g></g><g id="sprotty_ArchitectureBlockImpl$rng_osc/AlwaysBlockImpl$null5/GPortImpl$en_osc_reOUT_to_ArchitectureBlockImpl$rng_osc/AssignmentBlockImpl$en_osc/GPortImpl$en_osc_reIN" class="sprotty-edge edge" style="fill:none;stroke:rgb(112, 112, 112);stroke-linejoin:round;"><g><path d="M 150.015625 97 L 226.90625 97 C 227.90625 97 228.90625 96 228.90625 95 L 228.90625 78 C 228.90625 77 229.90625 76 230.90625 76 L 238.90625 76 "/><path d="M 150.015625 97 L 226.90625 97 C 227.90625 97 228.90625 96 228.90625 95 L 228.90625 78 C 228.90625 77 229.90625 76 230.90625 76 L 238.90625 76 " class="clickable"/></g></g><g id="sprotty_ArchitectureBlockImpl$rng_osc/AlwaysBlockImpl$null5/GPortImpl$en_osc_reOUT_to_ArchitectureBlockImpl$rng_osc/AlwaysBlockImpl$null4/GPortImpl$en_osc_reIN" class="sprotty-edge edge" style="fill:none;stroke:rgb(112, 112, 112);stroke-linejoin:round;"><g><path d="M 150.015625 97 L 158.015625 97 C 159.015625 97 160.015625 96 160.015625 95 L 160.015625 78 C 160.015625 77 161.015625 76 162.015625 76 L 170.015625 76 "/><path d="M 150.015625 97 L 158.015625 97 C 159.015625 97 160.015625 96 160.015625 95 L 160.015625 78 C 160.015625 77 161.015625 76 162.015625 76 L 170.015625 76 " class="clickable"/></g><circle r="2" id="sprotty_ArchitectureBlockImpl$rng_osc/AlwaysBlockImpl$null5/GPortImpl$en_osc_reOUT_to_ArchitectureBlockImpl$rng_osc/AlwaysBlockImpl$null4/GPortImpl$en_osc_reIN/junction0" transform="translate(160.015625, 97)" class="sprotty-junction junction" style="fill:rgb(112, 112, 112);stroke:none;"/></g><g id="sprotty_ArchitectureBlockImpl$rng_osc/AlwaysBlockImpl$null4/GPortImpl$en_osc_feOUT_to_ArchitectureBlockImpl$rng_osc/AssignmentBlockImpl$en_osc/GPortImpl$en_osc_feIN" class="sprotty-edge edge" style="fill:none;stroke:rgb(112, 112, 112);stroke-linejoin:round;"><g><path d="M 218.90625 66 L 238.90625 66 "/><path d="M 218.90625 66 L 238.90625 66 " class="clickable"/></g></g><g id="sprotty_ArchitectureBlockImpl$rng_osc/AlwaysBlockImpl$null3" transform="translate(278.625, 60)" class="statement"><rect x="0" y="0" rx="10" ry="5" width="37.390625" height="22" class="sprotty-node" style="fill:rgb(245, 245, 245);stroke:rgb(112, 112, 112);"/><text class="clickable sprotty-label statementtype" id="sprotty_ArchitectureBlockImpl$rng_osc/AlwaysBlockImpl$null3/labeltype" transform="translate(5, 5) translate(13.671875, 9)" style="cursor:default;font-size:8px;font-weight:700;perspective-origin:0.015625px 0px;fill:rgb(112, 112, 112);text-anchor:middle;">always</text><g id="sprotty_ArchitectureBlockImpl$rng_osc/AlwaysBlockImpl$null3/GPortImpl$en_oscIN" transform="translate(0, 11)" class="sprotty-hidden hidden" style="display:block;height:0px;width:0px;"/><g id="sprotty_ArchitectureBlockImpl$rng_osc/AlwaysBlockImpl$null3/GPortImpl$clkOUT" transform="translate(37.390625, 11)" class="sprotty-hidden hidden" style="display:block;height:0px;width:0px;"/></g><g id="sprotty_ArchitectureBlockImpl$rng_osc/AlwaysBlockImpl$null4" transform="translate(170.015625, 46)" class="statement"><rect x="0" y="0" rx="10" ry="5" width="48.890625" height="40" class="sprotty-node" style="fill:rgb(245, 245, 245);stroke:rgb(112, 112, 112);"/><text class="clickable sprotty-label statementtype" id="sprotty_ArchitectureBlockImpl$rng_osc/AlwaysBlockImpl$null4/labeltype" transform="translate(5, 14) translate(18.828125, 9)" style="cursor:default;font-size:8px;font-weight:700;perspective-origin:0.609375px 0px;fill:rgb(112, 112, 112);text-anchor:middle;">always_ff</text><g id="sprotty_ArchitectureBlockImpl$rng_osc/AlwaysBlockImpl$null4/GPortImpl$en_osc_reIN" transform="translate(0, 30)" class="sprotty-hidden hidden" style="display:block;height:0px;width:0px;"/><g id="sprotty_ArchitectureBlockImpl$rng_osc/AlwaysBlockImpl$null4/GPortImpl$vcaon_pok_iIN" transform="translate(0, 20)" class="sprotty-hidden hidden" style="display:block;height:0px;width:0px;"/><g id="sprotty_ArchitectureBlockImpl$rng_osc/AlwaysBlockImpl$null4/GPortImpl$clkIN" transform="translate(0, 10)" class="sprotty-hidden hidden" style="display:block;height:0px;width:0px;"/><g id="sprotty_ArchitectureBlockImpl$rng_osc/AlwaysBlockImpl$null4/GPortImpl$en_osc_feOUT" transform="translate(48.890625, 20)" class="sprotty-hidden hidden" style="display:block;height:0px;width:0px;"/></g><g id="sprotty_ArchitectureBlockImpl$rng_osc/AlwaysBlockImpl$null5" transform="translate(112.625, 82)" class="statement"><rect x="0" y="0" rx="10" ry="5" width="37.390625" height="30" class="sprotty-node" style="fill:rgb(245, 245, 245);stroke:rgb(112, 112, 112);"/><text class="clickable sprotty-label statementtype" id="sprotty_ArchitectureBlockImpl$rng_osc/AlwaysBlockImpl$null5/labeltype" transform="translate(5, 9) translate(13.671875, 9)" style="cursor:default;font-size:8px;font-weight:700;perspective-origin:0.015625px 0px;fill:rgb(112, 112, 112);text-anchor:middle;">always</text><g id="sprotty_ArchitectureBlockImpl$rng_osc/AlwaysBlockImpl$null5/GPortImpl$rng_en_iIN" transform="translate(0, 20)" class="sprotty-hidden hidden" style="display:block;height:0px;width:0px;"/><g id="sprotty_ArchitectureBlockImpl$rng_osc/AlwaysBlockImpl$null5/GPortImpl$vcaon_pok_iIN" transform="translate(0, 10)" class="sprotty-hidden hidden" style="display:block;height:0px;width:0px;"/><g id="sprotty_ArchitectureBlockImpl$rng_osc/AlwaysBlockImpl$null5/GPortImpl$en_osc_reOUT" transform="translate(37.390625, 15)" class="sprotty-hidden hidden" style="display:block;height:0px;width:0px;"/></g><g id="sprotty_ArchitectureBlockImpl$rng_osc/AssignmentBlockImpl$rng_clk_o" transform="translate(336.015625, 60)" class="statement"><rect x="0" y="0" rx="10" ry="5" width="19.71875" height="22" class="sprotty-node" style="fill:rgb(245, 245, 245);stroke:rgb(112, 112, 112);"/><text class="clickable sprotty-label statementtype" id="sprotty_ArchitectureBlockImpl$rng_osc/AssignmentBlockImpl$rng_clk_o/labeltype" transform="translate(5, 5) translate(4.71875, 9)" style="cursor:default;font-size:8px;font-weight:700;perspective-origin:0.140625px 0px;fill:rgb(112, 112, 112);text-anchor:middle;">&lt;=</text><g id="sprotty_ArchitectureBlockImpl$rng_osc/AssignmentBlockImpl$rng_clk_o/GPortImpl$clkIN" transform="translate(0, 11)" class="sprotty-hidden hidden" style="display:block;height:0px;width:0px;"/><g id="sprotty_ArchitectureBlockImpl$rng_osc/AssignmentBlockImpl$rng_clk_o/GPortImpl$rng_clk_oOUT" transform="translate(19.71875, 11)" class="sprotty-hidden hidden" style="display:block;height:0px;width:0px;"/></g><g id="sprotty_ArchitectureBlockImpl$rng_osc/AssignmentBlockImpl$en_osc" transform="translate(238.90625, 56)" class="statement"><rect x="0" y="0" rx="10" ry="5" width="19.71875" height="30" class="sprotty-node" style="fill:rgb(245, 245, 245);stroke:rgb(112, 112, 112);"/><text class="clickable sprotty-label statementtype" id="sprotty_ArchitectureBlockImpl$rng_osc/AssignmentBlockImpl$en_osc/labeltype" transform="translate(5, 9) translate(4.71875, 9)" style="cursor:default;font-size:8px;font-weight:700;perspective-origin:0.140625px 0px;fill:rgb(112, 112, 112);text-anchor:middle;">&lt;=</text><g id="sprotty_ArchitectureBlockImpl$rng_osc/AssignmentBlockImpl$en_osc/GPortImpl$en_osc_feIN" transform="translate(0, 10)" class="sprotty-hidden hidden" style="display:block;height:0px;width:0px;"/><g id="sprotty_ArchitectureBlockImpl$rng_osc/AssignmentBlockImpl$en_osc/GPortImpl$en_osc_reIN" transform="translate(0, 20)" class="sprotty-hidden hidden" style="display:block;height:0px;width:0px;"/><g id="sprotty_ArchitectureBlockImpl$rng_osc/AssignmentBlockImpl$en_osc/GPortImpl$en_osc_feOUT" transform="translate(19.71875, 15)" class="sprotty-hidden hidden" style="display:block;height:0px;width:0px;"/></g><g id="sprotty_ArchitectureBlockImpl$rng_osc/BPortImpl$rng_en_i" transform="translate(0, 102)" class="triangle"><path d="M 0,0 L 5,2.5 L 0,5 Z" transform="translate(-1.67, -2.5)" class="sprotty-port" style="fill:rgb(48, 48, 48);stroke:rgb(48, 48, 48);"/><text class="clickable sprotty-label port" id="sprotty_ArchitectureBlockImpl$rng_osc/BPortImpl$rng_en_i/label" transform="translate(6, 6) translate(24.734375, 14)" style="cursor:default;font-size:12px;perspective-origin:0px 0px;fill:rgb(48, 48, 48);text-anchor:middle;">rng_en_i</text></g><g id="sprotty_ArchitectureBlockImpl$rng_osc/BPortImpl$vcaon_pok_i" transform="translate(0, 66)" class="triangle"><path d="M 0,0 L 5,2.5 L 0,5 Z" transform="translate(-1.67, -2.5)" class="sprotty-port" style="fill:rgb(48, 48, 48);stroke:rgb(48, 48, 48);"/><text class="clickable sprotty-label port" id="sprotty_ArchitectureBlockImpl$rng_osc/BPortImpl$vcaon_pok_i/label" transform="translate(6, 6) translate(35.8125, 14)" style="cursor:default;font-size:12px;perspective-origin:0px 0px;fill:rgb(48, 48, 48);text-anchor:middle;">vcaon_pok_i</text></g><g id="sprotty_ArchitectureBlockImpl$rng_osc/BPortImpl$rng_clk_o" transform="translate(432.328125, 71)" class="triangle"><path d="M 0,0 L 5,2.5 L 0,5 Z" transform="translate(-1.67, -2.5)" class="sprotty-port" style="fill:rgb(48, 48, 48);stroke:rgb(48, 48, 48);"/><text class="clickable sprotty-label port" id="sprotty_ArchitectureBlockImpl$rng_osc/BPortImpl$rng_clk_o/label" transform="translate(-61.59375, 6) translate(27.796875, 14)" style="cursor:default;font-size:12px;perspective-origin:0px 0px;fill:rgb(48, 48, 48);text-anchor:middle;">rng_clk_o</text></g></g></g></svg>