<svg xmlns="http://www.w3.org/2000/svg" id="sprotty_work.adc" class="sprotty-graph sprotty-block-diagram blockdiagram" style="font-family:&quot;Noto Sans&quot;, Helvetica, Arial, sans-serif;perspective-origin:0px 0px;transform-origin:0px 0px;" version="1.1" viewBox="7 7 424.3125 354" width="424.3125" height="354"><g transform="scale(1) translate(0,0)"><g id="sprotty_ArchitectureBlockImpl$adc" transform="translate(12, 12)" class="architecture"><g class="sprotty-block" style="fill:rgb(255, 255, 255);stroke:rgb(48, 48, 48);stroke-dasharray:0px;"><rect x="0" y="0" rx="1" ry="1" width="414.3125" height="344"/><text x="207.15625" y="12" class="sprotty-block-name" style="cursor:pointer;font-weight:700;perspective-origin:207.156px 0px;fill:rgb(48, 48, 48);stroke:rgba(0, 0, 0, 0);dominant-baseline:middle;text-anchor:middle;">adc</text><line x1="0" y1="20" x2="414.3125" y2="20"/></g><g id="sprotty_ArchitectureBlockImpl$adc/AlwaysBlockImpl$null8/GPortImpl$adc_d_oOUT_to_ArchitectureBlockImpl$adc/BPortImpl$adc_d_o" class="sprotty-edge thick edge" style="fill:none;stroke:rgb(112, 112, 112);stroke-linejoin:round;stroke-width:3px;"><g><path d="M 262.25 160 L 270.25 160 C 271.25 160 272.25 161 272.25 162 L 272.25 177 C 272.25 178 273.25 179 274.25 179 L 414.3125 179 "/><path d="M 262.25 160 L 270.25 160 C 271.25 160 272.25 161 272.25 162 L 272.25 177 C 272.25 178 273.25 179 274.25 179 L 414.3125 179 " class="clickable"/></g></g><g id="sprotty_ArchitectureBlockImpl$adc/AlwaysBlockImpl$null8/GPortImpl$adc_d_val_oOUT_to_ArchitectureBlockImpl$adc/BPortImpl$adc_d_val_o" class="sprotty-edge edge" style="fill:none;stroke:rgb(112, 112, 112);stroke-linejoin:round;"><g><path d="M 262.25 145 L 414.3125 145 "/><path d="M 262.25 145 L 414.3125 145 " class="clickable"/></g></g><g id="sprotty_ArchitectureBlockImpl$adc/BPortImpl$adc_chnsel_i_to_ArchitectureBlockImpl$adc/AssignmentBlockImpl$chn_selected/GPortImpl$adc_chnsel_iIN" class="sprotty-edge thick edge" style="fill:none;stroke:rgb(112, 112, 112);stroke-linejoin:round;stroke-width:3px;"><g><path d="M 0 46 L 129.0546875 46 "/><path d="M 0 46 L 129.0546875 46 " class="clickable"/></g></g><g id="sprotty_ArchitectureBlockImpl$adc/BPortImpl$clk_adc_i_to_ArchitectureBlockImpl$adc/AlwaysBlockImpl$null10/GPortImpl$clk_adc_iIN" class="sprotty-edge edge" style="fill:none;stroke:rgb(112, 112, 112);stroke-linejoin:round;"><g><path d="M 0 80 L 102.46875 80 C 103.46875 80 104.46875 81 104.46875 82 L 104.46875 119 C 104.46875 120 105.46875 121 106.46875 121 L 114.46875 121 "/><path d="M 0 80 L 102.46875 80 C 103.46875 80 104.46875 81 104.46875 82 L 104.46875 119 C 104.46875 120 105.46875 121 106.46875 121 L 114.46875 121 " class="clickable"/></g><circle r="2" id="sprotty_ArchitectureBlockImpl$adc/BPortImpl$clk_adc_i_to_ArchitectureBlockImpl$adc/AlwaysBlockImpl$null10/GPortImpl$clk_adc_iIN/junction0" transform="translate(104.46875, 80)" class="sprotty-junction junction" style="fill:rgb(112, 112, 112);stroke:none;"/></g><g id="sprotty_ArchitectureBlockImpl$adc/BPortImpl$rst_adc_ni_to_ArchitectureBlockImpl$adc/AlwaysBlockImpl$null10/GPortImpl$rst_adc_niIN" class="sprotty-edge edge" style="fill:none;stroke:rgb(112, 112, 112);stroke-linejoin:round;"><g><path d="M 0 165 L 102.46875 165 C 103.46875 165 104.46875 164 104.46875 163 L 104.46875 143 C 104.46875 142 105.46875 141 106.46875 141 L 114.46875 141 "/><path d="M 0 165 L 102.46875 165 C 103.46875 165 104.46875 164 104.46875 163 L 104.46875 143 C 104.46875 142 105.46875 141 106.46875 141 L 114.46875 141 " class="clickable"/></g><circle r="2" id="sprotty_ArchitectureBlockImpl$adc/BPortImpl$rst_adc_ni_to_ArchitectureBlockImpl$adc/AlwaysBlockImpl$null10/GPortImpl$rst_adc_niIN/junction0" transform="translate(104.46875, 165)" class="sprotty-junction junction" style="fill:rgb(112, 112, 112);stroke:none;"/></g><g id="sprotty_ArchitectureBlockImpl$adc/BPortImpl$adc_pd_i_to_ArchitectureBlockImpl$adc/AlwaysBlockImpl$null10/GPortImpl$adc_pd_iIN" class="sprotty-edge edge" style="fill:none;stroke:rgb(112, 112, 112);stroke-linejoin:round;"><g><path d="M 0 131 L 114.46875 131 "/><path d="M 0 131 L 114.46875 131 " class="clickable"/></g></g><g id="sprotty_ArchitectureBlockImpl$adc/BPortImpl$clk_adc_i_to_ArchitectureBlockImpl$adc/AlwaysBlockImpl$null9/GPortImpl$clk_adc_iIN" class="sprotty-edge edge" style="fill:none;stroke:rgb(112, 112, 112);stroke-linejoin:round;"><g><path d="M 0 80 L 213.359375 80 "/><path d="M 0 80 L 213.359375 80 " class="clickable"/></g></g><g id="sprotty_ArchitectureBlockImpl$adc/BPortImpl$clk_adc_i_to_ArchitectureBlockImpl$adc/AlwaysBlockImpl$null8/GPortImpl$clk_adc_iIN" class="sprotty-edge edge" style="fill:none;stroke:rgb(112, 112, 112);stroke-linejoin:round;"><g><path d="M 0 80 L 181.359375 80 C 182.359375 80 183.359375 81 183.359375 82 L 183.359375 143 C 183.359375 144 184.359375 145 185.359375 145 L 213.359375 145 "/><path d="M 0 80 L 181.359375 80 C 182.359375 80 183.359375 81 183.359375 82 L 183.359375 143 C 183.359375 144 184.359375 145 185.359375 145 L 213.359375 145 " class="clickable"/></g><circle r="2" id="sprotty_ArchitectureBlockImpl$adc/BPortImpl$clk_adc_i_to_ArchitectureBlockImpl$adc/AlwaysBlockImpl$null8/GPortImpl$clk_adc_iIN/junction0" transform="translate(183.359375, 80)" class="sprotty-junction junction" style="fill:rgb(112, 112, 112);stroke:none;"/></g><g id="sprotty_ArchitectureBlockImpl$adc/BPortImpl$rst_adc_ni_to_ArchitectureBlockImpl$adc/AlwaysBlockImpl$null8/GPortImpl$rst_adc_niIN" class="sprotty-edge edge" style="fill:none;stroke:rgb(112, 112, 112);stroke-linejoin:round;"><g><path d="M 0 165 L 213.359375 165 "/><path d="M 0 165 L 213.359375 165 " class="clickable"/></g></g><g id="sprotty_ArchitectureBlockImpl$adc/AlwaysBlockImpl$null10/GPortImpl$adc_enOUT_to_ArchitectureBlockImpl$adc/AlwaysBlockImpl$null8/GPortImpl$adc_enIN" class="sprotty-edge edge" style="fill:none;stroke:rgb(112, 112, 112);stroke-linejoin:round;"><g><path d="M 163.359375 131 L 171.359375 131 C 172.359375 131 173.359375 132 173.359375 133 L 173.359375 153 C 173.359375 154 174.359375 155 175.359375 155 L 213.359375 155 "/><path d="M 163.359375 131 L 171.359375 131 C 172.359375 131 173.359375 132 173.359375 133 L 173.359375 153 C 173.359375 154 174.359375 155 175.359375 155 L 213.359375 155 " class="clickable"/></g></g><g id="sprotty_ArchitectureBlockImpl$adc/AssignmentBlockImpl$chn_selected/GPortImpl$chn_selectedOUT_to_ArchitectureBlockImpl$adc/AssignmentBlockImpl$new_convert/GPortImpl$chn_selectedIN" class="sprotty-edge edge" style="fill:none;stroke:rgb(112, 112, 112);stroke-linejoin:round;"><g><path d="M 148.7734375 46 L 193.359375 46 L 193.359375 48 L 270.25 48 C 271.25 48 272.25 49 272.25 50 L 272.25 63 C 272.25 64 273.25 65 274.25 65 L 282.25 65 "/><path d="M 148.7734375 46 L 193.359375 46 L 193.359375 48 L 270.25 48 C 271.25 48 272.25 49 272.25 50 L 272.25 63 C 272.25 64 273.25 65 274.25 65 L 282.25 65 " class="clickable"/></g><circle r="2" id="sprotty_ArchitectureBlockImpl$adc/AssignmentBlockImpl$chn_selected/GPortImpl$chn_selectedOUT_to_ArchitectureBlockImpl$adc/AssignmentBlockImpl$new_convert/GPortImpl$chn_selectedIN/junction0" transform="translate(193.359375, 48)" class="sprotty-junction junction" style="fill:rgb(112, 112, 112);stroke:none;"/></g><g id="sprotty_ArchitectureBlockImpl$adc/AssignmentBlockImpl$chn_selected/GPortImpl$chn_selectedOUT_to_ArchitectureBlockImpl$adc/AlwaysBlockImpl$null9/GPortImpl$chn_selectedIN" class="sprotty-edge edge" style="fill:none;stroke:rgb(112, 112, 112);stroke-linejoin:round;"><g><path d="M 148.7734375 46 L 191.359375 46 C 192.359375 46 193.359375 47 193.359375 48 L 193.359375 68 C 193.359375 69 194.359375 70 195.359375 70 L 213.359375 70 "/><path d="M 148.7734375 46 L 191.359375 46 C 192.359375 46 193.359375 47 193.359375 48 L 193.359375 68 C 193.359375 69 194.359375 70 195.359375 70 L 213.359375 70 " class="clickable"/></g><circle r="2" id="sprotty_ArchitectureBlockImpl$adc/AssignmentBlockImpl$chn_selected/GPortImpl$chn_selectedOUT_to_ArchitectureBlockImpl$adc/AlwaysBlockImpl$null9/GPortImpl$chn_selectedIN/junction0" transform="translate(193.359375, 70)" class="sprotty-junction junction" style="fill:rgb(112, 112, 112);stroke:none;"/></g><g id="sprotty_ArchitectureBlockImpl$adc/AssignmentBlockImpl$chn_selected/GPortImpl$chn_selectedOUT_to_ArchitectureBlockImpl$adc/AlwaysBlockImpl$null8/GPortImpl$chn_selectedIN" class="sprotty-edge edge" style="fill:none;stroke:rgb(112, 112, 112);stroke-linejoin:round;"><g><path d="M 148.7734375 46 L 191.359375 46 C 192.359375 46 193.359375 47 193.359375 48 L 193.359375 133 C 193.359375 134 194.359375 135 195.359375 135 L 213.359375 135 "/><path d="M 148.7734375 46 L 191.359375 46 C 192.359375 46 193.359375 47 193.359375 48 L 193.359375 133 C 193.359375 134 194.359375 135 195.359375 135 L 213.359375 135 " class="clickable"/></g></g><g id="sprotty_ArchitectureBlockImpl$adc/AlwaysBlockImpl$null9/GPortImpl$chn_selected_dOUT_to_ArchitectureBlockImpl$adc/AssignmentBlockImpl$new_convert/GPortImpl$chn_selected_dIN" class="sprotty-edge edge" style="fill:none;stroke:rgb(112, 112, 112);stroke-linejoin:round;"><g><path d="M 262.25 75 L 282.25 75 "/><path d="M 262.25 75 L 282.25 75 " class="clickable"/></g></g><g id="sprotty_ArchitectureBlockImpl$adc/AssignmentBlockImpl$new_convert/GPortImpl$adc_busyOUT_to_ArchitectureBlockImpl$adc/AlwaysBlockImpl$null8/GPortImpl$new_convertIN" class="sprotty-edge edge" style="fill:none;stroke:rgb(112, 112, 112);stroke-linejoin:round;"><g><path d="M 301.96875 75 L 309.96875 75 C 310.96875 75 311.96875 76 311.96875 77 L 311.96875 103 C 311.96875 104 310.96875 105 309.96875 105 L 205.359375 105 C 204.359375 105 203.359375 106 203.359375 107 L 203.359375 123 C 203.359375 124 204.359375 125 205.359375 125 L 213.359375 125 "/><path d="M 301.96875 75 L 309.96875 75 C 310.96875 75 311.96875 76 311.96875 77 L 311.96875 103 C 311.96875 104 310.96875 105 309.96875 105 L 205.359375 105 C 204.359375 105 203.359375 106 203.359375 107 L 203.359375 123 C 203.359375 124 204.359375 125 205.359375 125 L 213.359375 125 " class="clickable"/></g></g><g id="sprotty_ArchitectureBlockImpl$adc/AlwaysBlockImpl$null8/GPortImpl$adc_busyOUT_to_ArchitectureBlockImpl$adc/AssignmentBlockImpl$new_convert/GPortImpl$adc_busyIN" class="sprotty-edge edge" style="fill:none;stroke:rgb(112, 112, 112);stroke-linejoin:round;"><g><path d="M 262.25 130 L 270.25 130 C 271.25 130 272.25 129 272.25 128 L 272.25 87 C 272.25 86 273.25 85 274.25 85 L 282.25 85 "/><path d="M 262.25 130 L 270.25 130 C 271.25 130 272.25 129 272.25 128 L 272.25 87 C 272.25 86 273.25 85 274.25 85 L 282.25 85 " class="clickable"/></g></g><g id="sprotty_ArchitectureBlockImpl$adc/AssignmentBlockImpl$adc_vi0/GPortImpl$adc_a0_dv_nodeOUT_to_ArchitectureBlockImpl$adc/AssignmentBlockImpl$adc_d_ch0/GPortImpl$adc_vi0IN" class="sprotty-edge thick edge" style="fill:none;stroke:rgb(112, 112, 112);stroke-linejoin:round;stroke-width:3px;"><g><path d="M 117.96875 318 L 137.96875 318 "/><path d="M 117.96875 318 L 137.96875 318 " class="clickable"/></g></g><g id="sprotty_ArchitectureBlockImpl$adc/AssignmentBlockImpl$adc_vi1/GPortImpl$adc_a1_dv_nodeOUT_to_ArchitectureBlockImpl$adc/AssignmentBlockImpl$adc_d_ch1/GPortImpl$adc_vi1IN" class="sprotty-edge thick edge" style="fill:none;stroke:rgb(112, 112, 112);stroke-linejoin:round;stroke-width:3px;"><g><path d="M 117.96875 276 L 137.96875 276 "/><path d="M 117.96875 276 L 137.96875 276 " class="clickable"/></g></g><g id="sprotty_ArchitectureBlockImpl$adc/AlwaysBlockImpl$null8" transform="translate(213.359375, 115)" class="statement"><rect x="0" y="0" rx="10" ry="5" width="48.890625" height="60" class="sprotty-node" style="fill:rgb(245, 245, 245);stroke:rgb(112, 112, 112);"/><text class="clickable sprotty-label statementtype" id="sprotty_ArchitectureBlockImpl$adc/AlwaysBlockImpl$null8/labeltype" transform="translate(5, 24) translate(18.828125, 9)" style="cursor:default;font-size:8px;font-weight:700;perspective-origin:0.609375px 0px;fill:rgb(112, 112, 112);text-anchor:middle;">always_ff</text><g id="sprotty_ArchitectureBlockImpl$adc/AlwaysBlockImpl$null8/GPortImpl$new_convertIN" transform="translate(0, 10)" class="sprotty-hidden hidden" style="display:block;height:0px;width:0px;"/><g id="sprotty_ArchitectureBlockImpl$adc/AlwaysBlockImpl$null8/GPortImpl$chn_selectedIN" transform="translate(0, 20)" class="sprotty-hidden hidden" style="display:block;height:0px;width:0px;"/><g id="sprotty_ArchitectureBlockImpl$adc/AlwaysBlockImpl$null8/GPortImpl$adc_enIN" transform="translate(0, 40)" class="sprotty-hidden hidden" style="display:block;height:0px;width:0px;"/><g id="sprotty_ArchitectureBlockImpl$adc/AlwaysBlockImpl$null8/GPortImpl$rst_adc_niIN" transform="translate(0, 50)" class="sprotty-hidden hidden" style="display:block;height:0px;width:0px;"/><g id="sprotty_ArchitectureBlockImpl$adc/AlwaysBlockImpl$null8/GPortImpl$clk_adc_iIN" transform="translate(0, 30)" class="sprotty-hidden hidden" style="display:block;height:0px;width:0px;"/><g id="sprotty_ArchitectureBlockImpl$adc/AlwaysBlockImpl$null8/GPortImpl$adc_busyOUT" transform="translate(48.890625, 15)" class="sprotty-hidden hidden" style="display:block;height:0px;width:0px;"/><g id="sprotty_ArchitectureBlockImpl$adc/AlwaysBlockImpl$null8/GPortImpl$adc_d_val_oOUT" transform="translate(48.890625, 30)" class="sprotty-hidden hidden" style="display:block;height:0px;width:0px;"/><g id="sprotty_ArchitectureBlockImpl$adc/AlwaysBlockImpl$null8/GPortImpl$adc_d_oOUT" transform="translate(48.890625, 45)" class="sprotty-hidden hidden" style="display:block;height:0px;width:0px;"/></g><g id="sprotty_ArchitectureBlockImpl$adc/AlwaysBlockImpl$null9" transform="translate(213.359375, 60)" class="statement"><rect x="0" y="0" rx="10" ry="5" width="48.890625" height="30" class="sprotty-node" style="fill:rgb(245, 245, 245);stroke:rgb(112, 112, 112);"/><text class="clickable sprotty-label statementtype" id="sprotty_ArchitectureBlockImpl$adc/AlwaysBlockImpl$null9/labeltype" transform="translate(5, 9) translate(18.828125, 9)" style="cursor:default;font-size:8px;font-weight:700;perspective-origin:0.609375px 0px;fill:rgb(112, 112, 112);text-anchor:middle;">always_ff</text><g id="sprotty_ArchitectureBlockImpl$adc/AlwaysBlockImpl$null9/GPortImpl$chn_selectedIN" transform="translate(0, 10)" class="sprotty-hidden hidden" style="display:block;height:0px;width:0px;"/><g id="sprotty_ArchitectureBlockImpl$adc/AlwaysBlockImpl$null9/GPortImpl$clk_adc_iIN" transform="translate(0, 20)" class="sprotty-hidden hidden" style="display:block;height:0px;width:0px;"/><g id="sprotty_ArchitectureBlockImpl$adc/AlwaysBlockImpl$null9/GPortImpl$chn_selected_dOUT" transform="translate(48.890625, 15)" class="sprotty-hidden hidden" style="display:block;height:0px;width:0px;"/></g><g id="sprotty_ArchitectureBlockImpl$adc/AlwaysBlockImpl$null10" transform="translate(114.46875, 111)" class="statement"><rect x="0" y="0" rx="10" ry="5" width="48.890625" height="40" class="sprotty-node" style="fill:rgb(245, 245, 245);stroke:rgb(112, 112, 112);"/><text class="clickable sprotty-label statementtype" id="sprotty_ArchitectureBlockImpl$adc/AlwaysBlockImpl$null10/labeltype" transform="translate(5, 14) translate(18.828125, 9)" style="cursor:default;font-size:8px;font-weight:700;perspective-origin:0.609375px 0px;fill:rgb(112, 112, 112);text-anchor:middle;">always_ff</text><g id="sprotty_ArchitectureBlockImpl$adc/AlwaysBlockImpl$null10/GPortImpl$adc_pd_iIN" transform="translate(0, 20)" class="sprotty-hidden hidden" style="display:block;height:0px;width:0px;"/><g id="sprotty_ArchitectureBlockImpl$adc/AlwaysBlockImpl$null10/GPortImpl$rst_adc_niIN" transform="translate(0, 30)" class="sprotty-hidden hidden" style="display:block;height:0px;width:0px;"/><g id="sprotty_ArchitectureBlockImpl$adc/AlwaysBlockImpl$null10/GPortImpl$clk_adc_iIN" transform="translate(0, 10)" class="sprotty-hidden hidden" style="display:block;height:0px;width:0px;"/><g id="sprotty_ArchitectureBlockImpl$adc/AlwaysBlockImpl$null10/GPortImpl$adc_enOUT" transform="translate(48.890625, 20)" class="sprotty-hidden hidden" style="display:block;height:0px;width:0px;"/></g><g id="sprotty_ArchitectureBlockImpl$adc/AssignmentBlockImpl$ConvertCount" transform="translate(98.25, 223)" class="statement"><rect x="0" y="0" rx="10" ry="5" width="19.71875" height="22" class="sprotty-node" style="fill:rgb(245, 245, 245);stroke:rgb(112, 112, 112);"/><text class="clickable sprotty-label statementtype" id="sprotty_ArchitectureBlockImpl$adc/AssignmentBlockImpl$ConvertCount/labeltype" transform="translate(5, 5) translate(4.71875, 9)" style="cursor:default;font-size:8px;font-weight:700;perspective-origin:0.140625px 0px;fill:rgb(112, 112, 112);text-anchor:middle;">&lt;=</text></g><g id="sprotty_ArchitectureBlockImpl$adc/AssignmentBlockImpl$adc_d_ch1" transform="translate(137.96875, 265)" class="statement"><rect x="0" y="0" rx="10" ry="5" width="19.71875" height="22" class="sprotty-node" style="fill:rgb(245, 245, 245);stroke:rgb(112, 112, 112);"/><text class="clickable sprotty-label statementtype" id="sprotty_ArchitectureBlockImpl$adc/AssignmentBlockImpl$adc_d_ch1/labeltype" transform="translate(5, 5) translate(4.71875, 9)" style="cursor:default;font-size:8px;font-weight:700;perspective-origin:0.140625px 0px;fill:rgb(112, 112, 112);text-anchor:middle;">&lt;=</text><g id="sprotty_ArchitectureBlockImpl$adc/AssignmentBlockImpl$adc_d_ch1/GPortImpl$adc_vi1IN" transform="translate(0, 11)" class="sprotty-hidden hidden" style="display:block;height:0px;width:0px;"/></g><g id="sprotty_ArchitectureBlockImpl$adc/AssignmentBlockImpl$adc_d_ch0" transform="translate(137.96875, 307)" class="statement"><rect x="0" y="0" rx="10" ry="5" width="19.71875" height="22" class="sprotty-node" style="fill:rgb(245, 245, 245);stroke:rgb(112, 112, 112);"/><text class="clickable sprotty-label statementtype" id="sprotty_ArchitectureBlockImpl$adc/AssignmentBlockImpl$adc_d_ch0/labeltype" transform="translate(5, 5) translate(4.71875, 9)" style="cursor:default;font-size:8px;font-weight:700;perspective-origin:0.140625px 0px;fill:rgb(112, 112, 112);text-anchor:middle;">&lt;=</text><g id="sprotty_ArchitectureBlockImpl$adc/AssignmentBlockImpl$adc_d_ch0/GPortImpl$adc_vi0IN" transform="translate(0, 11)" class="sprotty-hidden hidden" style="display:block;height:0px;width:0px;"/></g><g id="sprotty_ArchitectureBlockImpl$adc/AssignmentBlockImpl$adc_vi1" transform="translate(98.25, 265)" class="statement"><rect x="0" y="0" rx="10" ry="5" width="19.71875" height="22" class="sprotty-node" style="fill:rgb(245, 245, 245);stroke:rgb(112, 112, 112);"/><text class="clickable sprotty-label statementtype" id="sprotty_ArchitectureBlockImpl$adc/AssignmentBlockImpl$adc_vi1/labeltype" transform="translate(5, 5) translate(4.71875, 9)" style="cursor:default;font-size:8px;font-weight:700;perspective-origin:0.140625px 0px;fill:rgb(112, 112, 112);text-anchor:middle;">&lt;=</text><g id="sprotty_ArchitectureBlockImpl$adc/AssignmentBlockImpl$adc_vi1/GPortImpl$adc_a1_dv_nodeOUT" transform="translate(19.71875, 11)" class="sprotty-hidden hidden" style="display:block;height:0px;width:0px;"/></g><g id="sprotty_ArchitectureBlockImpl$adc/AssignmentBlockImpl$adc_vi0" transform="translate(98.25, 307)" class="statement"><rect x="0" y="0" rx="10" ry="5" width="19.71875" height="22" class="sprotty-node" style="fill:rgb(245, 245, 245);stroke:rgb(112, 112, 112);"/><text class="clickable sprotty-label statementtype" id="sprotty_ArchitectureBlockImpl$adc/AssignmentBlockImpl$adc_vi0/labeltype" transform="translate(5, 5) translate(4.71875, 9)" style="cursor:default;font-size:8px;font-weight:700;perspective-origin:0.140625px 0px;fill:rgb(112, 112, 112);text-anchor:middle;">&lt;=</text><g id="sprotty_ArchitectureBlockImpl$adc/AssignmentBlockImpl$adc_vi0/GPortImpl$adc_a0_dv_nodeOUT" transform="translate(19.71875, 11)" class="sprotty-hidden hidden" style="display:block;height:0px;width:0px;"/></g><g id="sprotty_ArchitectureBlockImpl$adc/AssignmentBlockImpl$new_convert" transform="translate(282.25, 55)" class="statement"><rect x="0" y="0" rx="10" ry="5" width="19.71875" height="40" class="sprotty-node" style="fill:rgb(245, 245, 245);stroke:rgb(112, 112, 112);"/><text class="clickable sprotty-label statementtype" id="sprotty_ArchitectureBlockImpl$adc/AssignmentBlockImpl$new_convert/labeltype" transform="translate(5, 14) translate(4.71875, 9)" style="cursor:default;font-size:8px;font-weight:700;perspective-origin:0.140625px 0px;fill:rgb(112, 112, 112);text-anchor:middle;">&lt;=</text><g id="sprotty_ArchitectureBlockImpl$adc/AssignmentBlockImpl$new_convert/GPortImpl$adc_busyIN" transform="translate(0, 30)" class="sprotty-hidden hidden" style="display:block;height:0px;width:0px;"/><g id="sprotty_ArchitectureBlockImpl$adc/AssignmentBlockImpl$new_convert/GPortImpl$chn_selected_dIN" transform="translate(0, 20)" class="sprotty-hidden hidden" style="display:block;height:0px;width:0px;"/><g id="sprotty_ArchitectureBlockImpl$adc/AssignmentBlockImpl$new_convert/GPortImpl$chn_selectedIN" transform="translate(0, 10)" class="sprotty-hidden hidden" style="display:block;height:0px;width:0px;"/><g id="sprotty_ArchitectureBlockImpl$adc/AssignmentBlockImpl$new_convert/GPortImpl$adc_busyOUT" transform="translate(19.71875, 20)" class="sprotty-hidden hidden" style="display:block;height:0px;width:0px;"/></g><g id="sprotty_ArchitectureBlockImpl$adc/AssignmentBlockImpl$chn_selected" transform="translate(129.0546875, 35)" class="statement"><rect x="0" y="0" rx="10" ry="5" width="19.71875" height="22" class="sprotty-node" style="fill:rgb(245, 245, 245);stroke:rgb(112, 112, 112);"/><text class="clickable sprotty-label statementtype" id="sprotty_ArchitectureBlockImpl$adc/AssignmentBlockImpl$chn_selected/labeltype" transform="translate(5, 5) translate(4.71875, 9)" style="cursor:default;font-size:8px;font-weight:700;perspective-origin:0.140625px 0px;fill:rgb(112, 112, 112);text-anchor:middle;">&lt;=</text><g id="sprotty_ArchitectureBlockImpl$adc/AssignmentBlockImpl$chn_selected/GPortImpl$adc_chnsel_iIN" transform="translate(0, 11)" class="sprotty-hidden hidden" style="display:block;height:0px;width:0px;"/><g id="sprotty_ArchitectureBlockImpl$adc/AssignmentBlockImpl$chn_selected/GPortImpl$chn_selectedOUT" transform="translate(19.71875, 11)" class="sprotty-hidden hidden" style="display:block;height:0px;width:0px;"/></g><g id="sprotty_ArchitectureBlockImpl$adc/BPortImpl$rst_adc_ni" transform="translate(0, 165)" class="triangle"><path d="M 0,0 L 5,2.5 L 0,5 Z" transform="translate(-1.67, -2.5)" class="sprotty-port" style="fill:rgb(48, 48, 48);stroke:rgb(48, 48, 48);"/><text class="clickable sprotty-label port" id="sprotty_ArchitectureBlockImpl$adc/BPortImpl$rst_adc_ni/label" transform="translate(6, 6) translate(29.4375, 14)" style="cursor:default;font-size:12px;perspective-origin:0px 0px;fill:rgb(48, 48, 48);text-anchor:middle;">rst_adc_ni</text></g><g id="sprotty_ArchitectureBlockImpl$adc/BPortImpl$clk_adc_i" transform="translate(0, 80)" class="triangle"><path d="M 0,0 L 5,2.5 L 0,5 Z" transform="translate(-1.67, -2.5)" class="sprotty-port" style="fill:rgb(48, 48, 48);stroke:rgb(48, 48, 48);"/><text class="clickable sprotty-label port" id="sprotty_ArchitectureBlockImpl$adc/BPortImpl$clk_adc_i/label" transform="translate(6, 6) translate(26.59375, 14)" style="cursor:default;font-size:12px;perspective-origin:0px 0px;fill:rgb(48, 48, 48);text-anchor:middle;">clk_adc_i</text></g><g id="sprotty_ArchitectureBlockImpl$adc/BPortImpl$adc_pd_i" transform="translate(0, 131)" class="triangle"><path d="M 0,0 L 5,2.5 L 0,5 Z" transform="translate(-1.67, -2.5)" class="sprotty-port" style="fill:rgb(48, 48, 48);stroke:rgb(48, 48, 48);"/><text class="clickable sprotty-label port" id="sprotty_ArchitectureBlockImpl$adc/BPortImpl$adc_pd_i/label" transform="translate(6, 6) translate(25.96875, 14)" style="cursor:default;font-size:12px;perspective-origin:0px 0px;fill:rgb(48, 48, 48);text-anchor:middle;">adc_pd_i</text></g><g id="sprotty_ArchitectureBlockImpl$adc/BPortImpl$adc_chnsel_i" transform="translate(0, 46)" class="triangle"><path d="M 0,0 L 5,2.5 L 0,5 Z" transform="translate(-1.67, -2.5)" class="sprotty-port" style="fill:rgb(48, 48, 48);stroke:rgb(48, 48, 48);"/><text class="clickable sprotty-label port" id="sprotty_ArchitectureBlockImpl$adc/BPortImpl$adc_chnsel_i/label" transform="translate(6, 6) translate(36.734375, 14)" style="cursor:default;font-size:12px;perspective-origin:0px 0px;fill:rgb(48, 48, 48);text-anchor:middle;">adc_chnsel_i</text></g><g id="sprotty_ArchitectureBlockImpl$adc/BPortImpl$adc_a1_ai" transform="translate(0, 223)" class="triangle"><path d="M 0,0 L 5,2.5 L 0,5 Z" transform="translate(-1.67, -2.5)" class="sprotty-port" style="fill:rgb(48, 48, 48);stroke:rgb(48, 48, 48);"/><text class="clickable sprotty-label port" id="sprotty_ArchitectureBlockImpl$adc/BPortImpl$adc_a1_ai/label" transform="translate(6, 6) translate(28.625, 14)" style="cursor:default;font-size:12px;perspective-origin:0px 0px;fill:rgb(48, 48, 48);text-anchor:middle;">adc_a1_ai</text></g><g id="sprotty_ArchitectureBlockImpl$adc/BPortImpl$adc_a0_ai" transform="translate(0, 267)" class="triangle"><path d="M 0,0 L 5,2.5 L 0,5 Z" transform="translate(-1.67, -2.5)" class="sprotty-port" style="fill:rgb(48, 48, 48);stroke:rgb(48, 48, 48);"/><text class="clickable sprotty-label port" id="sprotty_ArchitectureBlockImpl$adc/BPortImpl$adc_a0_ai/label" transform="translate(6, 6) translate(28.625, 14)" style="cursor:default;font-size:12px;perspective-origin:0px 0px;fill:rgb(48, 48, 48);text-anchor:middle;">adc_a0_ai</text></g><g id="sprotty_ArchitectureBlockImpl$adc/BPortImpl$adc_d_o" transform="translate(414.3125, 179)" class="triangle"><path d="M 0,0 L 5,2.5 L 0,5 Z" transform="translate(-1.67, -2.5)" class="sprotty-port" style="fill:rgb(48, 48, 48);stroke:rgb(48, 48, 48);"/><text class="clickable sprotty-label port" id="sprotty_ArchitectureBlockImpl$adc/BPortImpl$adc_d_o/label" transform="translate(-54.46875, 6) translate(24.234375, 14)" style="cursor:default;font-size:12px;perspective-origin:0px 0px;fill:rgb(48, 48, 48);text-anchor:middle;">adc_d_o</text></g><g id="sprotty_ArchitectureBlockImpl$adc/BPortImpl$adc_d_val_o" transform="translate(414.3125, 145)" class="triangle"><path d="M 0,0 L 5,2.5 L 0,5 Z" transform="translate(-1.67, -2.5)" class="sprotty-port" style="fill:rgb(48, 48, 48);stroke:rgb(48, 48, 48);"/><text class="clickable sprotty-label port" id="sprotty_ArchitectureBlockImpl$adc/BPortImpl$adc_d_val_o/label" transform="translate(-77.34375, 6) translate(35.671875, 14)" style="cursor:default;font-size:12px;perspective-origin:0px 0px;fill:rgb(48, 48, 48);text-anchor:middle;">adc_d_val_o</text></g></g></g></svg>