<svg xmlns="http://www.w3.org/2000/svg" id="sprotty_work.edn_main_sm" class="sprotty-graph sprotty-block-diagram blockdiagram" style="font-family:&quot;Noto Sans&quot;, Helvetica, Arial, sans-serif;perspective-origin:0px 0px;transform-origin:0px 0px;" version="1.1" viewBox="7 7 734.8125 467" width="734.8125" height="467"><g transform="scale(1) translate(0,0)"><g id="sprotty_ArchitectureBlockImpl$edn_main_sm" transform="translate(12, 12)" class="architecture"><g class="sprotty-block" style="fill:rgb(255, 255, 255);stroke:rgb(48, 48, 48);stroke-dasharray:0px;"><rect x="0" y="0" rx="1" ry="1" width="724.8125" height="457"/><text x="362.40625" y="12" class="sprotty-block-name" style="cursor:pointer;font-weight:700;perspective-origin:362.406px 0px;fill:rgb(48, 48, 48);stroke:rgba(0, 0, 0, 0);dominant-baseline:middle;text-anchor:middle;">edn_main_sm</text><line x1="0" y1="20" x2="724.8125" y2="20"/></g><g id="sprotty_ArchitectureBlockImpl$edn_main_sm/AlwaysBlockImpl$null13/GPortImpl$seq_auto_req_mode_oOUT_to_ArchitectureBlockImpl$edn_main_sm/BPortImpl$seq_auto_req_mode_o" class="sprotty-edge edge" style="fill:none;stroke:rgb(112, 112, 112);stroke-linejoin:round;"><g><path d="M 234.9375 214 L 724.8125 214 "/><path d="M 234.9375 214 L 724.8125 214 " class="clickable"/></g></g><g id="sprotty_ArchitectureBlockImpl$edn_main_sm/AlwaysBlockImpl$null13/GPortImpl$auto_req_mode_end_oOUT_to_ArchitectureBlockImpl$edn_main_sm/BPortImpl$auto_req_mode_end_o" class="sprotty-edge edge" style="fill:none;stroke:rgb(112, 112, 112);stroke-linejoin:round;"><g><path d="M 234.9375 234 L 282.9375 234 C 283.9375 234 284.9375 235 284.9375 236 L 284.9375 280 C 284.9375 281 285.9375 282 286.9375 282 L 724.8125 282 "/><path d="M 234.9375 234 L 282.9375 234 C 283.9375 234 284.9375 235 284.9375 236 L 284.9375 280 C 284.9375 281 285.9375 282 286.9375 282 L 724.8125 282 " class="clickable"/></g></g><g id="sprotty_ArchitectureBlockImpl$edn_main_sm/AlwaysBlockImpl$null13/GPortImpl$capt_gencmd_fifo_cnt_oOUT_to_ArchitectureBlockImpl$edn_main_sm/BPortImpl$capt_gencmd_fifo_cnt_o" class="sprotty-edge edge" style="fill:none;stroke:rgb(112, 112, 112);stroke-linejoin:round;"><g><path d="M 234.9375 224 L 292.9375 224 C 293.9375 224 294.9375 225 294.9375 226 L 294.9375 246 C 294.9375 247 295.9375 248 296.9375 248 L 724.8125 248 "/><path d="M 234.9375 224 L 292.9375 224 C 293.9375 224 294.9375 225 294.9375 226 L 294.9375 246 C 294.9375 247 295.9375 248 296.9375 248 L 724.8125 248 " class="clickable"/></g></g><g id="sprotty_ArchitectureBlockImpl$edn_main_sm/AlwaysBlockImpl$null13/GPortImpl$send_gencmd_oOUT_to_ArchitectureBlockImpl$edn_main_sm/BPortImpl$send_gencmd_o" class="sprotty-edge edge" style="fill:none;stroke:rgb(112, 112, 112);stroke-linejoin:round;"><g><path d="M 234.9375 244 L 272.9375 244 C 273.9375 244 274.9375 245 274.9375 246 L 274.9375 314 C 274.9375 315 275.9375 316 276.9375 316 L 724.8125 316 "/><path d="M 234.9375 244 L 272.9375 244 C 273.9375 244 274.9375 245 274.9375 246 L 274.9375 314 C 274.9375 315 275.9375 316 276.9375 316 L 724.8125 316 " class="clickable"/></g></g><g id="sprotty_ArchitectureBlockImpl$edn_main_sm/AlwaysBlockImpl$null13/GPortImpl$capt_rescmd_fifo_cnt_oOUT_to_ArchitectureBlockImpl$edn_main_sm/BPortImpl$capt_rescmd_fifo_cnt_o" class="sprotty-edge edge" style="fill:none;stroke:rgb(112, 112, 112);stroke-linejoin:round;"><g><path d="M 234.9375 264 L 252.9375 264 C 253.9375 264 254.9375 265 254.9375 266 L 254.9375 382 C 254.9375 383 255.9375 384 256.9375 384 L 724.8125 384 "/><path d="M 234.9375 264 L 252.9375 264 C 253.9375 264 254.9375 265 254.9375 266 L 254.9375 382 C 254.9375 383 255.9375 384 256.9375 384 L 724.8125 384 " class="clickable"/></g></g><g id="sprotty_ArchitectureBlockImpl$edn_main_sm/AlwaysBlockImpl$null13/GPortImpl$send_rescmd_oOUT_to_ArchitectureBlockImpl$edn_main_sm/BPortImpl$send_rescmd_o" class="sprotty-edge edge" style="fill:none;stroke:rgb(112, 112, 112);stroke-linejoin:round;"><g><path d="M 234.9375 254 L 262.9375 254 C 263.9375 254 264.9375 255 264.9375 256 L 264.9375 348 C 264.9375 349 265.9375 350 266.9375 350 L 724.8125 350 "/><path d="M 234.9375 254 L 262.9375 254 C 263.9375 254 264.9375 255 264.9375 256 L 264.9375 348 C 264.9375 349 265.9375 350 266.9375 350 L 724.8125 350 " class="clickable"/></g></g><g id="sprotty_ArchitectureBlockImpl$edn_main_sm/AlwaysBlockImpl$null13/GPortImpl$main_sm_err_oOUT_to_ArchitectureBlockImpl$edn_main_sm/BPortImpl$main_sm_err_o" class="sprotty-edge edge" style="fill:none;stroke:rgb(112, 112, 112);stroke-linejoin:round;"><g><path d="M 234.9375 274 L 242.9375 274 C 243.9375 274 244.9375 275 244.9375 276 L 244.9375 416 C 244.9375 417 245.9375 418 246.9375 418 L 724.8125 418 "/><path d="M 234.9375 274 L 242.9375 274 C 243.9375 274 244.9375 275 244.9375 276 L 244.9375 416 C 244.9375 417 245.9375 418 246.9375 418 L 724.8125 418 " class="clickable"/></g></g><g id="sprotty_ArchitectureBlockImpl$edn_main_sm/BPortImpl$clk_i_to_ArchitectureBlockImpl$edn_main_sm/InstantiationBlockImpl$u_state_regs/BPortImpl$clk_i" class="sprotty-edge edge" style="fill:none;stroke:rgb(112, 112, 112);stroke-linejoin:round;"><g><path d="M 0 36 L 252.9375 36 C 253.9375 36 254.9375 37 254.9375 38 L 254.9375 127 C 254.9375 128 255.9375 129 256.9375 129 L 304.9375 129 "/><path d="M 0 36 L 252.9375 36 C 253.9375 36 254.9375 37 254.9375 38 L 254.9375 127 C 254.9375 128 255.9375 129 256.9375 129 L 304.9375 129 " class="clickable"/></g></g><g id="sprotty_ArchitectureBlockImpl$edn_main_sm/BPortImpl$rst_ni_to_ArchitectureBlockImpl$edn_main_sm/InstantiationBlockImpl$u_state_regs/BPortImpl$rst_ni" class="sprotty-edge edge" style="fill:none;stroke:rgb(112, 112, 112);stroke-linejoin:round;"><g><path d="M 0 70 L 242.9375 70 C 243.9375 70 244.9375 71 244.9375 72 L 244.9375 155 C 244.9375 156 245.9375 157 246.9375 157 L 304.9375 157 "/><path d="M 0 70 L 242.9375 70 C 243.9375 70 244.9375 71 244.9375 72 L 244.9375 155 C 244.9375 156 245.9375 157 246.9375 157 L 304.9375 157 " class="clickable"/></g></g><g id="sprotty_ArchitectureBlockImpl$edn_main_sm/BPortImpl$auto_req_mode_i_to_ArchitectureBlockImpl$edn_main_sm/AlwaysBlockImpl$null13/GPortImpl$auto_req_mode_iIN" class="sprotty-edge edge" style="fill:none;stroke:rgb(112, 112, 112);stroke-linejoin:round;"><g><path d="M 0 307 L 159.1875 307 C 160.1875 307 161.1875 306 161.1875 305 L 161.1875 271 C 161.1875 270 162.1875 269 163.1875 269 L 171.1875 269 "/><path d="M 0 307 L 159.1875 307 C 160.1875 307 161.1875 306 161.1875 305 L 161.1875 271 C 161.1875 270 162.1875 269 163.1875 269 L 171.1875 269 " class="clickable"/></g></g><g id="sprotty_ArchitectureBlockImpl$edn_main_sm/BPortImpl$csrng_cmd_ack_i_to_ArchitectureBlockImpl$edn_main_sm/AlwaysBlockImpl$null13/GPortImpl$csrng_cmd_ack_iIN" class="sprotty-edge edge" style="fill:none;stroke:rgb(112, 112, 112);stroke-linejoin:round;"><g><path d="M 0 273 L 149.1875 273 C 150.1875 273 151.1875 272 151.1875 271 L 151.1875 256 C 151.1875 255 152.1875 254 153.1875 254 L 171.1875 254 "/><path d="M 0 273 L 149.1875 273 C 150.1875 273 151.1875 272 151.1875 271 L 151.1875 256 C 151.1875 255 152.1875 254 153.1875 254 L 171.1875 254 " class="clickable"/></g></g><g id="sprotty_ArchitectureBlockImpl$edn_main_sm/BPortImpl$max_reqs_cnt_zero_i_to_ArchitectureBlockImpl$edn_main_sm/AlwaysBlockImpl$null13/GPortImpl$max_reqs_cnt_zero_iIN" class="sprotty-edge edge" style="fill:none;stroke:rgb(112, 112, 112);stroke-linejoin:round;"><g><path d="M 0 239 L 171.1875 239 "/><path d="M 0 239 L 171.1875 239 " class="clickable"/></g></g><g id="sprotty_ArchitectureBlockImpl$edn_main_sm/BPortImpl$cmd_sent_i_to_ArchitectureBlockImpl$edn_main_sm/AlwaysBlockImpl$null13/GPortImpl$cmd_sent_iIN" class="sprotty-edge edge" style="fill:none;stroke:rgb(112, 112, 112);stroke-linejoin:round;"><g><path d="M 0 205 L 149.1875 205 C 150.1875 205 151.1875 206 151.1875 207 L 151.1875 222 C 151.1875 223 152.1875 224 153.1875 224 L 171.1875 224 "/><path d="M 0 205 L 149.1875 205 C 150.1875 205 151.1875 206 151.1875 207 L 151.1875 222 C 151.1875 223 152.1875 224 153.1875 224 L 171.1875 224 " class="clickable"/></g></g><g id="sprotty_ArchitectureBlockImpl$edn_main_sm/AlwaysBlockImpl$null13/GPortImpl$state_dOUT_to_ArchitectureBlockImpl$edn_main_sm/InstantiationBlockImpl$u_state_regs/BPortImpl$d_i" class="sprotty-edge thick edge" style="fill:none;stroke:rgb(112, 112, 112);stroke-linejoin:round;stroke-width:3px;"><g><path d="M 234.9375 204 L 242.9375 204 C 243.9375 204 244.9375 203 244.9375 202 L 244.9375 187 C 244.9375 186 245.9375 185 246.9375 185 L 304.9375 185 "/><path d="M 234.9375 204 L 242.9375 204 C 243.9375 204 244.9375 203 244.9375 202 L 244.9375 187 C 244.9375 186 245.9375 185 246.9375 185 L 304.9375 185 " class="clickable"/></g></g><g id="sprotty_ArchitectureBlockImpl$edn_main_sm/AssignmentBlockImpl$state_q/GPortImpl$state_raw_qOUT_to_ArchitectureBlockImpl$edn_main_sm/AlwaysBlockImpl$null13/GPortImpl$state_qIN" class="sprotty-edge thick edge" style="fill:none;stroke:rgb(112, 112, 112);stroke-linejoin:round;stroke-width:3px;"><g><path d="M 543.5625 157 L 551.5625 157 C 552.5625 157 553.5625 156 553.5625 155 L 553.5625 81 C 553.5625 80 552.5625 79 551.5625 79 L 163.1875 79 C 162.1875 79 161.1875 80 161.1875 81 L 161.1875 207 C 161.1875 208 162.1875 209 163.1875 209 L 171.1875 209 "/><path d="M 543.5625 157 L 551.5625 157 C 552.5625 157 553.5625 156 553.5625 155 L 553.5625 81 C 553.5625 80 552.5625 79 551.5625 79 L 163.1875 79 C 162.1875 79 161.1875 80 161.1875 81 L 161.1875 207 C 161.1875 208 162.1875 209 163.1875 209 L 171.1875 209 " class="clickable"/></g></g><g id="sprotty_ArchitectureBlockImpl$edn_main_sm/InstantiationBlockImpl$u_state_regs/BPortImpl$q_o_to_ArchitectureBlockImpl$edn_main_sm/AssignmentBlockImpl$state_q/GPortImpl$state_raw_qIN" class="sprotty-edge thick edge" style="fill:none;stroke:rgb(112, 112, 112);stroke-linejoin:round;stroke-width:3px;"><g><path d="M 503.84375 157 L 523.84375 157 "/><path d="M 503.84375 157 L 523.84375 157 " class="clickable"/></g></g><g id="sprotty_ArchitectureBlockImpl$edn_main_sm/AlwaysBlockImpl$null13" transform="translate(171.1875, 194)" class="statement"><rect x="0" y="0" rx="10" ry="5" width="63.75" height="90" class="sprotty-node" style="fill:rgb(245, 245, 245);stroke:rgb(112, 112, 112);"/><text class="clickable sprotty-label statementtype" id="sprotty_ArchitectureBlockImpl$edn_main_sm/AlwaysBlockImpl$null13/labeltype" transform="translate(5, 39) translate(26.875, 9)" style="cursor:default;font-size:8px;font-weight:700;perspective-origin:0px 0px;fill:rgb(112, 112, 112);text-anchor:middle;">always_comb</text><g id="sprotty_ArchitectureBlockImpl$edn_main_sm/AlwaysBlockImpl$null13/GPortImpl$cmd_sent_iIN" transform="translate(0, 30)" class="sprotty-hidden hidden" style="display:block;height:0px;width:0px;"/><g id="sprotty_ArchitectureBlockImpl$edn_main_sm/AlwaysBlockImpl$null13/GPortImpl$max_reqs_cnt_zero_iIN" transform="translate(0, 45)" class="sprotty-hidden hidden" style="display:block;height:0px;width:0px;"/><g id="sprotty_ArchitectureBlockImpl$edn_main_sm/AlwaysBlockImpl$null13/GPortImpl$csrng_cmd_ack_iIN" transform="translate(0, 60)" class="sprotty-hidden hidden" style="display:block;height:0px;width:0px;"/><g id="sprotty_ArchitectureBlockImpl$edn_main_sm/AlwaysBlockImpl$null13/GPortImpl$auto_req_mode_iIN" transform="translate(0, 75)" class="sprotty-hidden hidden" style="display:block;height:0px;width:0px;"/><g id="sprotty_ArchitectureBlockImpl$edn_main_sm/AlwaysBlockImpl$null13/GPortImpl$state_qIN" transform="translate(0, 15)" class="sprotty-hidden hidden" style="display:block;height:0px;width:0px;"/><g id="sprotty_ArchitectureBlockImpl$edn_main_sm/AlwaysBlockImpl$null13/GPortImpl$state_dOUT" transform="translate(63.75, 10)" class="sprotty-hidden hidden" style="display:block;height:0px;width:0px;"/><g id="sprotty_ArchitectureBlockImpl$edn_main_sm/AlwaysBlockImpl$null13/GPortImpl$capt_gencmd_fifo_cnt_oOUT" transform="translate(63.75, 30)" class="sprotty-hidden hidden" style="display:block;height:0px;width:0px;"/><g id="sprotty_ArchitectureBlockImpl$edn_main_sm/AlwaysBlockImpl$null13/GPortImpl$send_gencmd_oOUT" transform="translate(63.75, 50)" class="sprotty-hidden hidden" style="display:block;height:0px;width:0px;"/><g id="sprotty_ArchitectureBlockImpl$edn_main_sm/AlwaysBlockImpl$null13/GPortImpl$capt_rescmd_fifo_cnt_oOUT" transform="translate(63.75, 70)" class="sprotty-hidden hidden" style="display:block;height:0px;width:0px;"/><g id="sprotty_ArchitectureBlockImpl$edn_main_sm/AlwaysBlockImpl$null13/GPortImpl$send_rescmd_oOUT" transform="translate(63.75, 60)" class="sprotty-hidden hidden" style="display:block;height:0px;width:0px;"/><g id="sprotty_ArchitectureBlockImpl$edn_main_sm/AlwaysBlockImpl$null13/GPortImpl$seq_auto_req_mode_oOUT" transform="translate(63.75, 20)" class="sprotty-hidden hidden" style="display:block;height:0px;width:0px;"/><g id="sprotty_ArchitectureBlockImpl$edn_main_sm/AlwaysBlockImpl$null13/GPortImpl$auto_req_mode_end_oOUT" transform="translate(63.75, 40)" class="sprotty-hidden hidden" style="display:block;height:0px;width:0px;"/><g id="sprotty_ArchitectureBlockImpl$edn_main_sm/AlwaysBlockImpl$null13/GPortImpl$main_sm_err_oOUT" transform="translate(63.75, 80)" class="sprotty-hidden hidden" style="display:block;height:0px;width:0px;"/></g><g id="sprotty_ArchitectureBlockImpl$edn_main_sm/AssignmentBlockImpl$state_q" transform="translate(523.84375, 146)" class="statement"><rect x="0" y="0" rx="10" ry="5" width="19.71875" height="22" class="sprotty-node" style="fill:rgb(245, 245, 245);stroke:rgb(112, 112, 112);"/><text class="clickable sprotty-label statementtype" id="sprotty_ArchitectureBlockImpl$edn_main_sm/AssignmentBlockImpl$state_q/labeltype" transform="translate(5, 5) translate(4.71875, 9)" style="cursor:default;font-size:8px;font-weight:700;perspective-origin:0.140625px 0px;fill:rgb(112, 112, 112);text-anchor:middle;">&lt;=</text><g id="sprotty_ArchitectureBlockImpl$edn_main_sm/AssignmentBlockImpl$state_q/GPortImpl$state_raw_qIN" transform="translate(0, 11)" class="sprotty-hidden hidden" style="display:block;height:0px;width:0px;"/><g id="sprotty_ArchitectureBlockImpl$edn_main_sm/AssignmentBlockImpl$state_q/GPortImpl$state_raw_qOUT" transform="translate(19.71875, 11)" class="sprotty-hidden hidden" style="display:block;height:0px;width:0px;"/></g><g id="sprotty_ArchitectureBlockImpl$edn_main_sm/InstantiationBlockImpl$u_state_regs" transform="translate(304.9375, 91)" class="instantiation"><g class="sprotty-block" style="fill:rgb(255, 255, 255);stroke:rgb(48, 48, 48);stroke-dasharray:0px;"><rect x="0" y="0" rx="1" ry="1" width="198.90625" height="112"/><text x="99.453125" y="12" class="sprotty-block-name" style="cursor:pointer;font-weight:700;perspective-origin:99.4531px 0px;fill:rgb(48, 48, 48);stroke:rgba(0, 0, 0, 0);dominant-baseline:middle;text-anchor:middle;">u_state_regs : prim_flop</text><line x1="0" y1="20" x2="198.90625" y2="20"/></g><g id="sprotty_ArchitectureBlockImpl$edn_main_sm/InstantiationBlockImpl$u_state_regs/BPortImpl$d_i" transform="translate(0, 94)" class="triangle"><path d="M 0,0 L 5,2.5 L 0,5 Z" transform="translate(-1.67, -2.5)" class="sprotty-port" style="fill:rgb(48, 48, 48);stroke:rgb(48, 48, 48);"/><text class="clickable sprotty-label port" id="sprotty_ArchitectureBlockImpl$edn_main_sm/InstantiationBlockImpl$u_state_regs/BPortImpl$d_i/label" transform="translate(6, -9) translate(8.734375, 14)" style="cursor:default;font-size:12px;perspective-origin:0px 0px;fill:rgb(48, 48, 48);text-anchor:middle;">d_i</text></g><g id="sprotty_ArchitectureBlockImpl$edn_main_sm/InstantiationBlockImpl$u_state_regs/BPortImpl$rst_ni" transform="translate(0, 66)" class="triangle"><path d="M 0,0 L 5,2.5 L 0,5 Z" transform="translate(-1.67, -2.5)" class="sprotty-port" style="fill:rgb(48, 48, 48);stroke:rgb(48, 48, 48);"/><text class="clickable sprotty-label port" id="sprotty_ArchitectureBlockImpl$edn_main_sm/InstantiationBlockImpl$u_state_regs/BPortImpl$rst_ni/label" transform="translate(6, -9) translate(15.921875, 14)" style="cursor:default;font-size:12px;perspective-origin:0px 0px;fill:rgb(48, 48, 48);text-anchor:middle;">rst_ni</text></g><g id="sprotty_ArchitectureBlockImpl$edn_main_sm/InstantiationBlockImpl$u_state_regs/BPortImpl$clk_i" transform="translate(0, 38)" class="triangle"><path d="M 0,0 L 5,2.5 L 0,5 Z" transform="translate(-1.67, -2.5)" class="sprotty-port" style="fill:rgb(48, 48, 48);stroke:rgb(48, 48, 48);"/><text class="clickable sprotty-label port" id="sprotty_ArchitectureBlockImpl$edn_main_sm/InstantiationBlockImpl$u_state_regs/BPortImpl$clk_i/label" transform="translate(6, -9) translate(13.09375, 14)" style="cursor:default;font-size:12px;perspective-origin:0px 0px;fill:rgb(48, 48, 48);text-anchor:middle;">clk_i</text></g><g id="sprotty_ArchitectureBlockImpl$edn_main_sm/InstantiationBlockImpl$u_state_regs/BPortImpl$q_o" transform="translate(198.90625, 66)" class="triangle"><path d="M 0,0 L 5,2.5 L 0,5 Z" transform="translate(-1.67, -2.5)" class="sprotty-port" style="fill:rgb(48, 48, 48);stroke:rgb(48, 48, 48);"/><text class="clickable sprotty-label port" id="sprotty_ArchitectureBlockImpl$edn_main_sm/InstantiationBlockImpl$u_state_regs/BPortImpl$q_o/label" transform="translate(-27.4375, -9) translate(10.71875, 14)" style="cursor:default;font-size:12px;perspective-origin:0px 0px;fill:rgb(48, 48, 48);text-anchor:middle;">q_o</text></g></g><g id="sprotty_ArchitectureBlockImpl$edn_main_sm/BPortImpl$cmd_sent_i" transform="translate(0, 205)" class="triangle"><path d="M 0,0 L 5,2.5 L 0,5 Z" transform="translate(-1.67, -2.5)" class="sprotty-port" style="fill:rgb(48, 48, 48);stroke:rgb(48, 48, 48);"/><text class="clickable sprotty-label port" id="sprotty_ArchitectureBlockImpl$edn_main_sm/BPortImpl$cmd_sent_i/label" transform="translate(6, 6) translate(32.75, 14)" style="cursor:default;font-size:12px;perspective-origin:0px 0px;fill:rgb(48, 48, 48);text-anchor:middle;">cmd_sent_i</text></g><g id="sprotty_ArchitectureBlockImpl$edn_main_sm/BPortImpl$max_reqs_cnt_zero_i" transform="translate(0, 239)" class="triangle"><path d="M 0,0 L 5,2.5 L 0,5 Z" transform="translate(-1.67, -2.5)" class="sprotty-port" style="fill:rgb(48, 48, 48);stroke:rgb(48, 48, 48);"/><text class="clickable sprotty-label port" id="sprotty_ArchitectureBlockImpl$edn_main_sm/BPortImpl$max_reqs_cnt_zero_i/label" transform="translate(6, 6) translate(60.09375, 14)" style="cursor:default;font-size:12px;perspective-origin:0px 0px;fill:rgb(48, 48, 48);text-anchor:middle;">max_reqs_cnt_zero_i</text></g><g id="sprotty_ArchitectureBlockImpl$edn_main_sm/BPortImpl$csrng_cmd_ack_i" transform="translate(0, 273)" class="triangle"><path d="M 0,0 L 5,2.5 L 0,5 Z" transform="translate(-1.67, -2.5)" class="sprotty-port" style="fill:rgb(48, 48, 48);stroke:rgb(48, 48, 48);"/><text class="clickable sprotty-label port" id="sprotty_ArchitectureBlockImpl$edn_main_sm/BPortImpl$csrng_cmd_ack_i/label" transform="translate(6, 6) translate(49.03125, 14)" style="cursor:default;font-size:12px;perspective-origin:0px 0px;fill:rgb(48, 48, 48);text-anchor:middle;">csrng_cmd_ack_i</text></g><g id="sprotty_ArchitectureBlockImpl$edn_main_sm/BPortImpl$auto_req_mode_i" transform="translate(0, 307)" class="triangle"><path d="M 0,0 L 5,2.5 L 0,5 Z" transform="translate(-1.67, -2.5)" class="sprotty-port" style="fill:rgb(48, 48, 48);stroke:rgb(48, 48, 48);"/><text class="clickable sprotty-label port" id="sprotty_ArchitectureBlockImpl$edn_main_sm/BPortImpl$auto_req_mode_i/label" transform="translate(6, 6) translate(50.09375, 14)" style="cursor:default;font-size:12px;perspective-origin:0px 0px;fill:rgb(48, 48, 48);text-anchor:middle;">auto_req_mode_i</text></g><g id="sprotty_ArchitectureBlockImpl$edn_main_sm/BPortImpl$rst_ni" transform="translate(0, 70)" class="triangle"><path d="M 0,0 L 5,2.5 L 0,5 Z" transform="translate(-1.67, -2.5)" class="sprotty-port" style="fill:rgb(48, 48, 48);stroke:rgb(48, 48, 48);"/><text class="clickable sprotty-label port" id="sprotty_ArchitectureBlockImpl$edn_main_sm/BPortImpl$rst_ni/label" transform="translate(6, 6) translate(15.921875, 14)" style="cursor:default;font-size:12px;perspective-origin:0px 0px;fill:rgb(48, 48, 48);text-anchor:middle;">rst_ni</text></g><g id="sprotty_ArchitectureBlockImpl$edn_main_sm/BPortImpl$clk_i" transform="translate(0, 36)" class="triangle"><path d="M 0,0 L 5,2.5 L 0,5 Z" transform="translate(-1.67, -2.5)" class="sprotty-port" style="fill:rgb(48, 48, 48);stroke:rgb(48, 48, 48);"/><text class="clickable sprotty-label port" id="sprotty_ArchitectureBlockImpl$edn_main_sm/BPortImpl$clk_i/label" transform="translate(6, 6) translate(13.09375, 14)" style="cursor:default;font-size:12px;perspective-origin:0px 0px;fill:rgb(48, 48, 48);text-anchor:middle;">clk_i</text></g><g id="sprotty_ArchitectureBlockImpl$edn_main_sm/BPortImpl$seq_auto_req_mode_o" transform="translate(724.8125, 214)" class="triangle"><path d="M 0,0 L 5,2.5 L 0,5 Z" transform="translate(-1.67, -2.5)" class="sprotty-port" style="fill:rgb(48, 48, 48);stroke:rgb(48, 48, 48);"/><text class="clickable sprotty-label port" id="sprotty_ArchitectureBlockImpl$edn_main_sm/BPortImpl$seq_auto_req_mode_o/label" transform="translate(-136.5625, 6) translate(65.28125, 14)" style="cursor:default;font-size:12px;perspective-origin:0px 0px;fill:rgb(48, 48, 48);text-anchor:middle;">seq_auto_req_mode_o</text></g><g id="sprotty_ArchitectureBlockImpl$edn_main_sm/BPortImpl$auto_req_mode_end_o" transform="translate(724.8125, 282)" class="triangle"><path d="M 0,0 L 5,2.5 L 0,5 Z" transform="translate(-1.67, -2.5)" class="sprotty-port" style="fill:rgb(48, 48, 48);stroke:rgb(48, 48, 48);"/><text class="clickable sprotty-label port" id="sprotty_ArchitectureBlockImpl$edn_main_sm/BPortImpl$auto_req_mode_end_o/label" transform="translate(-138.28125, 6) translate(66.140625, 14)" style="cursor:default;font-size:12px;perspective-origin:0px 0px;fill:rgb(48, 48, 48);text-anchor:middle;">auto_req_mode_end_o</text></g><g id="sprotty_ArchitectureBlockImpl$edn_main_sm/BPortImpl$capt_gencmd_fifo_cnt_o" transform="translate(724.8125, 248)" class="triangle"><path d="M 0,0 L 5,2.5 L 0,5 Z" transform="translate(-1.67, -2.5)" class="sprotty-port" style="fill:rgb(48, 48, 48);stroke:rgb(48, 48, 48);"/><text class="clickable sprotty-label port" id="sprotty_ArchitectureBlockImpl$edn_main_sm/BPortImpl$capt_gencmd_fifo_cnt_o/label" transform="translate(-146.25, 6) translate(70.125, 14)" style="cursor:default;font-size:12px;perspective-origin:0px 0px;fill:rgb(48, 48, 48);text-anchor:middle;">capt_gencmd_fifo_cnt_o</text></g><g id="sprotty_ArchitectureBlockImpl$edn_main_sm/BPortImpl$send_gencmd_o" transform="translate(724.8125, 316)" class="triangle"><path d="M 0,0 L 5,2.5 L 0,5 Z" transform="translate(-1.67, -2.5)" class="sprotty-port" style="fill:rgb(48, 48, 48);stroke:rgb(48, 48, 48);"/><text class="clickable sprotty-label port" id="sprotty_ArchitectureBlockImpl$edn_main_sm/BPortImpl$send_gencmd_o/label" transform="translate(-98.96875, 6) translate(46.484375, 14)" style="cursor:default;font-size:12px;perspective-origin:0px 0px;fill:rgb(48, 48, 48);text-anchor:middle;">send_gencmd_o</text></g><g id="sprotty_ArchitectureBlockImpl$edn_main_sm/BPortImpl$capt_rescmd_fifo_cnt_o" transform="translate(724.8125, 384)" class="triangle"><path d="M 0,0 L 5,2.5 L 0,5 Z" transform="translate(-1.67, -2.5)" class="sprotty-port" style="fill:rgb(48, 48, 48);stroke:rgb(48, 48, 48);"/><text class="clickable sprotty-label port" id="sprotty_ArchitectureBlockImpl$edn_main_sm/BPortImpl$capt_rescmd_fifo_cnt_o/label" transform="translate(-142.5, 6) translate(68.25, 14)" style="cursor:default;font-size:12px;perspective-origin:0px 0px;fill:rgb(48, 48, 48);text-anchor:middle;">capt_rescmd_fifo_cnt_o</text></g><g id="sprotty_ArchitectureBlockImpl$edn_main_sm/BPortImpl$send_rescmd_o" transform="translate(724.8125, 350)" class="triangle"><path d="M 0,0 L 5,2.5 L 0,5 Z" transform="translate(-1.67, -2.5)" class="sprotty-port" style="fill:rgb(48, 48, 48);stroke:rgb(48, 48, 48);"/><text class="clickable sprotty-label port" id="sprotty_ArchitectureBlockImpl$edn_main_sm/BPortImpl$send_rescmd_o/label" transform="translate(-95.1875, 6) translate(44.59375, 14)" style="cursor:default;font-size:12px;perspective-origin:0px 0px;fill:rgb(48, 48, 48);text-anchor:middle;">send_rescmd_o</text></g><g id="sprotty_ArchitectureBlockImpl$edn_main_sm/BPortImpl$main_sm_err_o" transform="translate(724.8125, 418)" class="triangle"><path d="M 0,0 L 5,2.5 L 0,5 Z" transform="translate(-1.67, -2.5)" class="sprotty-port" style="fill:rgb(48, 48, 48);stroke:rgb(48, 48, 48);"/><text class="clickable sprotty-label port" id="sprotty_ArchitectureBlockImpl$edn_main_sm/BPortImpl$main_sm_err_o/label" transform="translate(-94.625, 6) translate(44.3125, 14)" style="cursor:default;font-size:12px;perspective-origin:0px 0px;fill:rgb(48, 48, 48);text-anchor:middle;">main_sm_err_o</text></g></g></g></svg>