<svg xmlns="http://www.w3.org/2000/svg" id="sprotty_work.rng" class="sprotty-graph sprotty-block-diagram blockdiagram" style="font-family:&quot;Noto Sans&quot;, Helvetica, Arial, sans-serif;perspective-origin:0px 0px;transform-origin:0px 0px;" version="1.1" viewBox="7 7 619.953125 363" width="619.953125" height="363"><g transform="scale(1) translate(0,0)"><g id="sprotty_ArchitectureBlockImpl$rng" transform="translate(12, 12)" class="architecture"><g class="sprotty-block" style="fill:rgb(255, 255, 255);stroke:rgb(48, 48, 48);stroke-dasharray:0px;"><rect x="0" y="0" rx="1" ry="1" width="609.953125" height="353"/><text x="304.9765625" y="12" class="sprotty-block-name" style="cursor:pointer;font-weight:700;perspective-origin:305.203px 0px;fill:rgb(48, 48, 48);stroke:rgba(0, 0, 0, 0);dominant-baseline:middle;text-anchor:middle;">rng</text><line x1="0" y1="20" x2="609.953125" y2="20"/></g><g id="sprotty_ArchitectureBlockImpl$rng/AlwaysBlockImpl$null6/GPortImpl$rng_b_oOUT_to_ArchitectureBlockImpl$rng/BPortImpl$rng_b_o" class="sprotty-edge thick edge" style="fill:none;stroke:rgb(112, 112, 112);stroke-linejoin:round;stroke-width:3px;"><g><path d="M 533.328125 127 L 609.953125 127 "/><path d="M 533.328125 127 L 609.953125 127 " class="clickable"/></g></g><g id="sprotty_ArchitectureBlockImpl$rng/AlwaysBlockImpl$null7/GPortImpl$rng_val_oOUT_to_ArchitectureBlockImpl$rng/BPortImpl$rng_val_o" class="sprotty-edge edge" style="fill:none;stroke:rgb(112, 112, 112);stroke-linejoin:round;"><g><path d="M 533.328125 305 L 609.953125 305 "/><path d="M 533.328125 305 L 609.953125 305 " class="clickable"/></g></g><g id="sprotty_ArchitectureBlockImpl$rng/BPortImpl$vcaon_pok_i_to_ArchitectureBlockImpl$rng/InstantiationBlockImpl$u_rng_osc/BPortImpl$vcaon_pok_i" class="sprotty-edge edge" style="fill:none;stroke:rgb(112, 112, 112);stroke-linejoin:round;"><g><path d="M 0 46 L 100.625 46 C 101.625 46 102.625 47 102.625 48 L 102.625 113 C 102.625 114 103.625 115 104.625 115 L 122.625 115 "/><path d="M 0 46 L 100.625 46 C 101.625 46 102.625 47 102.625 48 L 102.625 113 C 102.625 114 103.625 115 104.625 115 L 122.625 115 " class="clickable"/></g><circle r="2" id="sprotty_ArchitectureBlockImpl$rng/BPortImpl$vcaon_pok_i_to_ArchitectureBlockImpl$rng/InstantiationBlockImpl$u_rng_osc/BPortImpl$vcaon_pok_i/junction0" transform="translate(102.625, 46)" class="sprotty-junction junction" style="fill:rgb(112, 112, 112);stroke:none;"/></g><g id="sprotty_ArchitectureBlockImpl$rng/BPortImpl$rng_en_i_to_ArchitectureBlockImpl$rng/InstantiationBlockImpl$u_rng_osc/BPortImpl$rng_en_i" class="sprotty-edge edge" style="fill:none;stroke:rgb(112, 112, 112);stroke-linejoin:round;"><g><path d="M 0 143 L 122.625 143 "/><path d="M 0 143 L 122.625 143 " class="clickable"/></g></g><g id="sprotty_ArchitectureBlockImpl$rng/BPortImpl$vcaon_pok_i_to_ArchitectureBlockImpl$rng/AssignmentBlockImpl$rst_n/GPortImpl$vcaon_pok_iIN" class="sprotty-edge edge" style="fill:none;stroke:rgb(112, 112, 112);stroke-linejoin:round;"><g><path d="M 0 46 L 122.625 46 "/><path d="M 0 46 L 122.625 46 " class="clickable"/></g></g><g id="sprotty_ArchitectureBlockImpl$rng/BPortImpl$rst_ni_to_ArchitectureBlockImpl$rng/AssignmentBlockImpl$rng_rst_n/GPortImpl$rst_niIN" class="sprotty-edge edge" style="fill:none;stroke:rgb(112, 112, 112);stroke-linejoin:round;"><g><path d="M 0 256 L 100.625 256 C 101.625 256 102.625 255 102.625 254 L 102.625 203 C 102.625 202 103.625 201 104.625 201 L 170.72916666666666 201 "/><path d="M 0 256 L 100.625 256 C 101.625 256 102.625 255 102.625 254 L 102.625 203 C 102.625 202 103.625 201 104.625 201 L 170.72916666666666 201 " class="clickable"/></g><circle r="2" id="sprotty_ArchitectureBlockImpl$rng/BPortImpl$rst_ni_to_ArchitectureBlockImpl$rng/AssignmentBlockImpl$rng_rst_n/GPortImpl$rst_niIN/junction0" transform="translate(102.625, 256)" class="sprotty-junction junction" style="fill:rgb(112, 112, 112);stroke:none;"/></g><g id="sprotty_ArchitectureBlockImpl$rng/BPortImpl$rng_en_i_to_ArchitectureBlockImpl$rng/AssignmentBlockImpl$rng_rst_n/GPortImpl$rng_en_iIN" class="sprotty-edge edge" style="fill:none;stroke:rgb(112, 112, 112);stroke-linejoin:round;"><g><path d="M 0 143 L 100.625 143 C 101.625 143 102.625 144 102.625 145 L 102.625 189 C 102.625 190 103.625 191 104.625 191 L 170.72916666666666 191 "/><path d="M 0 143 L 100.625 143 C 101.625 143 102.625 144 102.625 145 L 102.625 189 C 102.625 190 103.625 191 104.625 191 L 170.72916666666666 191 " class="clickable"/></g><circle r="2" id="sprotty_ArchitectureBlockImpl$rng/BPortImpl$rng_en_i_to_ArchitectureBlockImpl$rng/AssignmentBlockImpl$rng_rst_n/GPortImpl$rng_en_iIN/junction0" transform="translate(102.625, 143)" class="sprotty-junction junction" style="fill:rgb(112, 112, 112);stroke:none;"/></g><g id="sprotty_ArchitectureBlockImpl$rng/BPortImpl$clk_i_to_ArchitectureBlockImpl$rng/AlwaysBlockImpl$null7/GPortImpl$clk_iIN" class="sprotty-edge edge" style="fill:none;stroke:rgb(112, 112, 112);stroke-linejoin:round;"><g><path d="M 0 222 L 110.625 222 C 111.625 222 112.625 223 112.625 224 L 112.625 324 C 112.625 325 113.625 326 114.625 326 L 462.4375 326 C 463.4375 326 464.4375 325 464.4375 324 L 464.4375 307 C 464.4375 306 465.4375 305 466.4375 305 L 484.4375 305 "/><path d="M 0 222 L 110.625 222 C 111.625 222 112.625 223 112.625 224 L 112.625 324 C 112.625 325 113.625 326 114.625 326 L 462.4375 326 C 463.4375 326 464.4375 325 464.4375 324 L 464.4375 307 C 464.4375 306 465.4375 305 466.4375 305 L 484.4375 305 " class="clickable"/></g><circle r="2" id="sprotty_ArchitectureBlockImpl$rng/BPortImpl$clk_i_to_ArchitectureBlockImpl$rng/AlwaysBlockImpl$null7/GPortImpl$clk_iIN/junction0" transform="translate(112.625, 222)" class="sprotty-junction junction" style="fill:rgb(112, 112, 112);stroke:none;"/></g><g id="sprotty_ArchitectureBlockImpl$rng/BPortImpl$rst_ni_to_ArchitectureBlockImpl$rng/AlwaysBlockImpl$null7/GPortImpl$rst_niIN" class="sprotty-edge edge" style="fill:none;stroke:rgb(112, 112, 112);stroke-linejoin:round;"><g><path d="M 0 256 L 100.625 256 C 101.625 256 102.625 257 102.625 258 L 102.625 334 C 102.625 335 103.625 336 104.625 336 L 472.4375 336 C 473.4375 336 474.4375 335 474.4375 334 L 474.4375 317 C 474.4375 316 475.4375 315 476.4375 315 L 484.4375 315 "/><path d="M 0 256 L 100.625 256 C 101.625 256 102.625 257 102.625 258 L 102.625 334 C 102.625 335 103.625 336 104.625 336 L 472.4375 336 C 473.4375 336 474.4375 335 474.4375 334 L 474.4375 317 C 474.4375 316 475.4375 315 476.4375 315 L 484.4375 315 " class="clickable"/></g></g><g id="sprotty_ArchitectureBlockImpl$rng/BPortImpl$clk_i_to_ArchitectureBlockImpl$rng/AlwaysBlockImpl$null6/GPortImpl$clk_iIN" class="sprotty-edge edge" style="fill:none;stroke:rgb(112, 112, 112);stroke-linejoin:round;"><g><path d="M 0 222 L 462.4375 222 C 463.4375 222 464.4375 221 464.4375 220 L 464.4375 129 C 464.4375 128 465.4375 127 466.4375 127 L 484.4375 127 "/><path d="M 0 222 L 462.4375 222 C 463.4375 222 464.4375 221 464.4375 220 L 464.4375 129 C 464.4375 128 465.4375 127 466.4375 127 L 484.4375 127 " class="clickable"/></g></g><g id="sprotty_ArchitectureBlockImpl$rng/BPortImpl$rst_ni_to_ArchitectureBlockImpl$rng/AlwaysBlockImpl$null6/GPortImpl$rst_niIN" class="sprotty-edge edge" style="fill:none;stroke:rgb(112, 112, 112);stroke-linejoin:round;"><g><path d="M 0 256 L 472.4375 256 C 473.4375 256 474.4375 255 474.4375 254 L 474.4375 139 C 474.4375 138 475.4375 137 476.4375 137 L 484.4375 137 "/><path d="M 0 256 L 472.4375 256 C 473.4375 256 474.4375 255 474.4375 254 L 474.4375 139 C 474.4375 138 475.4375 137 476.4375 137 L 484.4375 137 " class="clickable"/></g></g><g id="sprotty_ArchitectureBlockImpl$rng/InstantiationBlockImpl$u_rng_osc/BPortImpl$rng_clk_o_to_ArchitectureBlockImpl$rng/AlwaysBlockImpl$null10/GPortImpl$rng_clk_oIN" class="sprotty-edge thick edge" style="fill:none;stroke:rgb(112, 112, 112);stroke-linejoin:round;stroke-width:3px;"><g><path d="M 286.65625 129 L 326.65625 129 "/><path d="M 286.65625 129 L 326.65625 129 " class="clickable"/></g></g><g id="sprotty_ArchitectureBlockImpl$rng/InstantiationBlockImpl$u_rng_osc/BPortImpl$rng_clk_o_to_ArchitectureBlockImpl$rng/AlwaysBlockImpl$null9/GPortImpl$rng_clk_oIN" class="sprotty-edge thick edge" style="fill:none;stroke:rgb(112, 112, 112);stroke-linejoin:round;stroke-width:3px;"><g><path d="M 286.65625 129 L 294.65625 129 C 295.65625 129 296.65625 130 296.65625 131 L 296.65625 293 C 296.65625 294 297.65625 295 298.65625 295 L 326.65625 295 "/><path d="M 286.65625 129 L 294.65625 129 C 295.65625 129 296.65625 130 296.65625 131 L 296.65625 293 C 296.65625 294 297.65625 295 298.65625 295 L 326.65625 295 " class="clickable"/></g><circle r="3" id="sprotty_ArchitectureBlockImpl$rng/InstantiationBlockImpl$u_rng_osc/BPortImpl$rng_clk_o_to_ArchitectureBlockImpl$rng/AlwaysBlockImpl$null9/GPortImpl$rng_clk_oIN/junction0" transform="translate(296.65625, 129)" class="sprotty-junction thick" style="fill:rgb(112, 112, 112);stroke:none;"/></g><g id="sprotty_ArchitectureBlockImpl$rng/InstantiationBlockImpl$u_rng_osc/BPortImpl$rng_clk_o_to_ArchitectureBlockImpl$rng/AlwaysBlockImpl$null8/GPortImpl$rng_clk_oIN" class="sprotty-edge thick edge" style="fill:none;stroke:rgb(112, 112, 112);stroke-linejoin:round;stroke-width:3px;"><g><path d="M 286.65625 129 L 294.65625 129 C 295.65625 129 296.65625 128 296.65625 127 L 296.65625 109 C 296.65625 108 297.65625 107 298.65625 107 L 405.546875 107 "/><path d="M 286.65625 129 L 294.65625 129 C 295.65625 129 296.65625 128 296.65625 127 L 296.65625 109 C 296.65625 108 297.65625 107 298.65625 107 L 405.546875 107 " class="clickable"/></g></g><g id="sprotty_ArchitectureBlockImpl$rng/AssignmentBlockImpl$rng_rst_n/GPortImpl$rng_rst_nOUT_to_ArchitectureBlockImpl$rng/AlwaysBlockImpl$null10/GPortImpl$rng_rst_nIN" class="sprotty-edge edge" style="fill:none;stroke:rgb(112, 112, 112);stroke-linejoin:round;"><g><path d="M 190.44791666666666 196 L 304.65625 196 C 305.65625 196 306.65625 195 306.65625 194 L 306.65625 141 C 306.65625 140 307.65625 139 308.65625 139 L 326.65625 139 "/><path d="M 190.44791666666666 196 L 304.65625 196 C 305.65625 196 306.65625 195 306.65625 194 L 306.65625 141 C 306.65625 140 307.65625 139 308.65625 139 L 326.65625 139 " class="clickable"/></g><circle r="2" id="sprotty_ArchitectureBlockImpl$rng/AssignmentBlockImpl$rng_rst_n/GPortImpl$rng_rst_nOUT_to_ArchitectureBlockImpl$rng/AlwaysBlockImpl$null10/GPortImpl$rng_rst_nIN/junction0" transform="translate(306.65625, 196)" class="sprotty-junction junction" style="fill:rgb(112, 112, 112);stroke:none;"/></g><g id="sprotty_ArchitectureBlockImpl$rng/AssignmentBlockImpl$rng_rst_n/GPortImpl$rng_rst_nOUT_to_ArchitectureBlockImpl$rng/AlwaysBlockImpl$null9/GPortImpl$rng_rst_nIN" class="sprotty-edge edge" style="fill:none;stroke:rgb(112, 112, 112);stroke-linejoin:round;"><g><path d="M 190.44791666666666 196 L 304.65625 196 C 305.65625 196 306.65625 197 306.65625 198 L 306.65625 303 C 306.65625 304 307.65625 305 308.65625 305 L 326.65625 305 "/><path d="M 190.44791666666666 196 L 304.65625 196 C 305.65625 196 306.65625 197 306.65625 198 L 306.65625 303 C 306.65625 304 307.65625 305 308.65625 305 L 326.65625 305 " class="clickable"/></g></g><g id="sprotty_ArchitectureBlockImpl$rng/AssignmentBlockImpl$rng_rst_n/GPortImpl$rng_rst_nOUT_to_ArchitectureBlockImpl$rng/AlwaysBlockImpl$null8/GPortImpl$rng_rst_nIN" class="sprotty-edge edge" style="fill:none;stroke:rgb(112, 112, 112);stroke-linejoin:round;"><g><path d="M 190.44791666666666 196 L 393.546875 196 C 394.546875 196 395.546875 195 395.546875 194 L 395.546875 129 C 395.546875 128 396.546875 127 397.546875 127 L 405.546875 127 "/><path d="M 190.44791666666666 196 L 393.546875 196 C 394.546875 196 395.546875 195 395.546875 194 L 395.546875 129 C 395.546875 128 396.546875 127 397.546875 127 L 405.546875 127 " class="clickable"/></g></g><g id="sprotty_ArchitectureBlockImpl$rng/AlwaysBlockImpl$null10/GPortImpl$lfsr_valOUT_to_ArchitectureBlockImpl$rng/AlwaysBlockImpl$null8/GPortImpl$lfsr_valIN" class="sprotty-edge thick edge" style="fill:none;stroke:rgb(112, 112, 112);stroke-linejoin:round;stroke-width:3px;"><g><path d="M 375.546875 134 L 383.546875 134 C 384.546875 134 385.546875 133 385.546875 132 L 385.546875 119 C 385.546875 118 386.546875 117 387.546875 117 L 405.546875 117 "/><path d="M 375.546875 134 L 383.546875 134 C 384.546875 134 385.546875 133 385.546875 132 L 385.546875 119 C 385.546875 118 386.546875 117 387.546875 117 L 405.546875 117 " class="clickable"/></g></g><g id="sprotty_ArchitectureBlockImpl$rng/AssignmentBlockImpl$rng_rdy/GPortImpl$rng_rdy_cntOUT_to_ArchitectureBlockImpl$rng/AlwaysBlockImpl$null9/GPortImpl$rng_rdyIN" class="sprotty-edge thick edge" style="fill:none;stroke:rgb(112, 112, 112);stroke-linejoin:round;stroke-width:3px;"><g><path d="M 434.9895833333333 295 L 462.4375 295 C 463.4375 295 464.4375 294 464.4375 293 L 464.4375 267 C 464.4375 266 463.4375 265 462.4375 265 L 318.65625 265 C 317.65625 265 316.65625 266 316.65625 267 L 316.65625 283 C 316.65625 284 317.65625 285 318.65625 285 L 326.65625 285 "/><path d="M 434.9895833333333 295 L 462.4375 295 C 463.4375 295 464.4375 294 464.4375 293 L 464.4375 267 C 464.4375 266 463.4375 265 462.4375 265 L 318.65625 265 C 317.65625 265 316.65625 266 316.65625 267 L 316.65625 283 C 316.65625 284 317.65625 285 318.65625 285 L 326.65625 285 " class="clickable"/></g><circle r="3" id="sprotty_ArchitectureBlockImpl$rng/AssignmentBlockImpl$rng_rdy/GPortImpl$rng_rdy_cntOUT_to_ArchitectureBlockImpl$rng/AlwaysBlockImpl$null9/GPortImpl$rng_rdyIN/junction0" transform="translate(464.4375, 295)" class="sprotty-junction thick" style="fill:rgb(112, 112, 112);stroke:none;"/></g><g id="sprotty_ArchitectureBlockImpl$rng/AssignmentBlockImpl$rng_rdy/GPortImpl$rng_rdy_cntOUT_to_ArchitectureBlockImpl$rng/AlwaysBlockImpl$null7/GPortImpl$rng_rdyIN" class="sprotty-edge thick edge" style="fill:none;stroke:rgb(112, 112, 112);stroke-linejoin:round;stroke-width:3px;"><g><path d="M 434.9895833333333 295 L 484.4375 295 "/><path d="M 434.9895833333333 295 L 484.4375 295 " class="clickable"/></g></g><g id="sprotty_ArchitectureBlockImpl$rng/AlwaysBlockImpl$null9/GPortImpl$rng_rdy_cntOUT_to_ArchitectureBlockImpl$rng/AssignmentBlockImpl$rng_rdy/GPortImpl$rng_rdy_cntIN" class="sprotty-edge thick edge" style="fill:none;stroke:rgb(112, 112, 112);stroke-linejoin:round;stroke-width:3px;"><g><path d="M 375.546875 295 L 415.2708333333333 295 "/><path d="M 375.546875 295 L 415.2708333333333 295 " class="clickable"/></g></g><g id="sprotty_ArchitectureBlockImpl$rng/AlwaysBlockImpl$null8/GPortImpl$rng_bOUT_to_ArchitectureBlockImpl$rng/AlwaysBlockImpl$null6/GPortImpl$rng_bIN" class="sprotty-edge thick edge" style="fill:none;stroke:rgb(112, 112, 112);stroke-linejoin:round;stroke-width:3px;"><g><path d="M 454.4375 117 L 484.4375 117 "/><path d="M 454.4375 117 L 484.4375 117 " class="clickable"/></g></g><g id="sprotty_ArchitectureBlockImpl$rng/AlwaysBlockImpl$null6" transform="translate(484.4375, 107)" class="statement"><rect x="0" y="0" rx="10" ry="5" width="48.890625" height="40" class="sprotty-node" style="fill:rgb(245, 245, 245);stroke:rgb(112, 112, 112);"/><text class="clickable sprotty-label statementtype" id="sprotty_ArchitectureBlockImpl$rng/AlwaysBlockImpl$null6/labeltype" transform="translate(5, 14) translate(18.828125, 9)" style="cursor:default;font-size:8px;font-weight:700;perspective-origin:0.609375px 0px;fill:rgb(112, 112, 112);text-anchor:middle;">always_ff</text><g id="sprotty_ArchitectureBlockImpl$rng/AlwaysBlockImpl$null6/GPortImpl$rng_bIN" transform="translate(0, 10)" class="sprotty-hidden hidden" style="display:block;height:0px;width:0px;"/><g id="sprotty_ArchitectureBlockImpl$rng/AlwaysBlockImpl$null6/GPortImpl$rst_niIN" transform="translate(0, 30)" class="sprotty-hidden hidden" style="display:block;height:0px;width:0px;"/><g id="sprotty_ArchitectureBlockImpl$rng/AlwaysBlockImpl$null6/GPortImpl$clk_iIN" transform="translate(0, 20)" class="sprotty-hidden hidden" style="display:block;height:0px;width:0px;"/><g id="sprotty_ArchitectureBlockImpl$rng/AlwaysBlockImpl$null6/GPortImpl$rng_b_oOUT" transform="translate(48.890625, 20)" class="sprotty-hidden hidden" style="display:block;height:0px;width:0px;"/></g><g id="sprotty_ArchitectureBlockImpl$rng/AlwaysBlockImpl$null7" transform="translate(484.4375, 285)" class="statement"><rect x="0" y="0" rx="10" ry="5" width="48.890625" height="40" class="sprotty-node" style="fill:rgb(245, 245, 245);stroke:rgb(112, 112, 112);"/><text class="clickable sprotty-label statementtype" id="sprotty_ArchitectureBlockImpl$rng/AlwaysBlockImpl$null7/labeltype" transform="translate(5, 14) translate(18.828125, 9)" style="cursor:default;font-size:8px;font-weight:700;perspective-origin:0.609375px 0px;fill:rgb(112, 112, 112);text-anchor:middle;">always_ff</text><g id="sprotty_ArchitectureBlockImpl$rng/AlwaysBlockImpl$null7/GPortImpl$rng_rdyIN" transform="translate(0, 10)" class="sprotty-hidden hidden" style="display:block;height:0px;width:0px;"/><g id="sprotty_ArchitectureBlockImpl$rng/AlwaysBlockImpl$null7/GPortImpl$rst_niIN" transform="translate(0, 30)" class="sprotty-hidden hidden" style="display:block;height:0px;width:0px;"/><g id="sprotty_ArchitectureBlockImpl$rng/AlwaysBlockImpl$null7/GPortImpl$clk_iIN" transform="translate(0, 20)" class="sprotty-hidden hidden" style="display:block;height:0px;width:0px;"/><g id="sprotty_ArchitectureBlockImpl$rng/AlwaysBlockImpl$null7/GPortImpl$rng_val_oOUT" transform="translate(48.890625, 20)" class="sprotty-hidden hidden" style="display:block;height:0px;width:0px;"/></g><g id="sprotty_ArchitectureBlockImpl$rng/AlwaysBlockImpl$null8" transform="translate(405.546875, 97)" class="statement"><rect x="0" y="0" rx="10" ry="5" width="48.890625" height="40" class="sprotty-node" style="fill:rgb(245, 245, 245);stroke:rgb(112, 112, 112);"/><text class="clickable sprotty-label statementtype" id="sprotty_ArchitectureBlockImpl$rng/AlwaysBlockImpl$null8/labeltype" transform="translate(5, 14) translate(18.828125, 9)" style="cursor:default;font-size:8px;font-weight:700;perspective-origin:0.609375px 0px;fill:rgb(112, 112, 112);text-anchor:middle;">always_ff</text><g id="sprotty_ArchitectureBlockImpl$rng/AlwaysBlockImpl$null8/GPortImpl$lfsr_valIN" transform="translate(0, 20)" class="sprotty-hidden hidden" style="display:block;height:0px;width:0px;"/><g id="sprotty_ArchitectureBlockImpl$rng/AlwaysBlockImpl$null8/GPortImpl$rng_rst_nIN" transform="translate(0, 30)" class="sprotty-hidden hidden" style="display:block;height:0px;width:0px;"/><g id="sprotty_ArchitectureBlockImpl$rng/AlwaysBlockImpl$null8/GPortImpl$rng_clk_oIN" transform="translate(0, 10)" class="sprotty-hidden hidden" style="display:block;height:0px;width:0px;"/><g id="sprotty_ArchitectureBlockImpl$rng/AlwaysBlockImpl$null8/GPortImpl$rng_bOUT" transform="translate(48.890625, 20)" class="sprotty-hidden hidden" style="display:block;height:0px;width:0px;"/></g><g id="sprotty_ArchitectureBlockImpl$rng/AlwaysBlockImpl$null9" transform="translate(326.65625, 275)" class="statement"><rect x="0" y="0" rx="10" ry="5" width="48.890625" height="40" class="sprotty-node" style="fill:rgb(245, 245, 245);stroke:rgb(112, 112, 112);"/><text class="clickable sprotty-label statementtype" id="sprotty_ArchitectureBlockImpl$rng/AlwaysBlockImpl$null9/labeltype" transform="translate(5, 14) translate(18.828125, 9)" style="cursor:default;font-size:8px;font-weight:700;perspective-origin:0.609375px 0px;fill:rgb(112, 112, 112);text-anchor:middle;">always_ff</text><g id="sprotty_ArchitectureBlockImpl$rng/AlwaysBlockImpl$null9/GPortImpl$rng_rdyIN" transform="translate(0, 10)" class="sprotty-hidden hidden" style="display:block;height:0px;width:0px;"/><g id="sprotty_ArchitectureBlockImpl$rng/AlwaysBlockImpl$null9/GPortImpl$rng_rst_nIN" transform="translate(0, 30)" class="sprotty-hidden hidden" style="display:block;height:0px;width:0px;"/><g id="sprotty_ArchitectureBlockImpl$rng/AlwaysBlockImpl$null9/GPortImpl$rng_clk_oIN" transform="translate(0, 20)" class="sprotty-hidden hidden" style="display:block;height:0px;width:0px;"/><g id="sprotty_ArchitectureBlockImpl$rng/AlwaysBlockImpl$null9/GPortImpl$rng_rdy_cntOUT" transform="translate(48.890625, 20)" class="sprotty-hidden hidden" style="display:block;height:0px;width:0px;"/></g><g id="sprotty_ArchitectureBlockImpl$rng/AlwaysBlockImpl$null10" transform="translate(326.65625, 119)" class="statement"><rect x="0" y="0" rx="10" ry="5" width="48.890625" height="30" class="sprotty-node" style="fill:rgb(245, 245, 245);stroke:rgb(112, 112, 112);"/><text class="clickable sprotty-label statementtype" id="sprotty_ArchitectureBlockImpl$rng/AlwaysBlockImpl$null10/labeltype" transform="translate(5, 9) translate(18.828125, 9)" style="cursor:default;font-size:8px;font-weight:700;perspective-origin:0.609375px 0px;fill:rgb(112, 112, 112);text-anchor:middle;">always_ff</text><g id="sprotty_ArchitectureBlockImpl$rng/AlwaysBlockImpl$null10/GPortImpl$rng_rst_nIN" transform="translate(0, 20)" class="sprotty-hidden hidden" style="display:block;height:0px;width:0px;"/><g id="sprotty_ArchitectureBlockImpl$rng/AlwaysBlockImpl$null10/GPortImpl$rng_clk_oIN" transform="translate(0, 10)" class="sprotty-hidden hidden" style="display:block;height:0px;width:0px;"/><g id="sprotty_ArchitectureBlockImpl$rng/AlwaysBlockImpl$null10/GPortImpl$lfsr_valOUT" transform="translate(48.890625, 15)" class="sprotty-hidden hidden" style="display:block;height:0px;width:0px;"/></g><g id="sprotty_ArchitectureBlockImpl$rng/AssignmentBlockImpl$rng_rdy" transform="translate(415.2708333333333, 284)" class="statement"><rect x="0" y="0" rx="10" ry="5" width="19.71875" height="22" class="sprotty-node" style="fill:rgb(245, 245, 245);stroke:rgb(112, 112, 112);"/><text class="clickable sprotty-label statementtype" id="sprotty_ArchitectureBlockImpl$rng/AssignmentBlockImpl$rng_rdy/labeltype" transform="translate(5, 5) translate(4.71875, 9)" style="cursor:default;font-size:8px;font-weight:700;perspective-origin:0.140625px 0px;fill:rgb(112, 112, 112);text-anchor:middle;">&lt;=</text><g id="sprotty_ArchitectureBlockImpl$rng/AssignmentBlockImpl$rng_rdy/GPortImpl$rng_rdy_cntIN" transform="translate(0, 11)" class="sprotty-hidden hidden" style="display:block;height:0px;width:0px;"/><g id="sprotty_ArchitectureBlockImpl$rng/AssignmentBlockImpl$rng_rdy/GPortImpl$rng_rdy_cntOUT" transform="translate(19.71875, 11)" class="sprotty-hidden hidden" style="display:block;height:0px;width:0px;"/></g><g id="sprotty_ArchitectureBlockImpl$rng/AssignmentBlockImpl$rng_rst_n" transform="translate(170.72916666666666, 181)" class="statement"><rect x="0" y="0" rx="10" ry="5" width="19.71875" height="30" class="sprotty-node" style="fill:rgb(245, 245, 245);stroke:rgb(112, 112, 112);"/><text class="clickable sprotty-label statementtype" id="sprotty_ArchitectureBlockImpl$rng/AssignmentBlockImpl$rng_rst_n/labeltype" transform="translate(5, 9) translate(4.71875, 9)" style="cursor:default;font-size:8px;font-weight:700;perspective-origin:0.140625px 0px;fill:rgb(112, 112, 112);text-anchor:middle;">&lt;=</text><g id="sprotty_ArchitectureBlockImpl$rng/AssignmentBlockImpl$rng_rst_n/GPortImpl$rng_en_iIN" transform="translate(0, 10)" class="sprotty-hidden hidden" style="display:block;height:0px;width:0px;"/><g id="sprotty_ArchitectureBlockImpl$rng/AssignmentBlockImpl$rng_rst_n/GPortImpl$rst_niIN" transform="translate(0, 20)" class="sprotty-hidden hidden" style="display:block;height:0px;width:0px;"/><g id="sprotty_ArchitectureBlockImpl$rng/AssignmentBlockImpl$rng_rst_n/GPortImpl$rng_rst_nOUT" transform="translate(19.71875, 15)" class="sprotty-hidden hidden" style="display:block;height:0px;width:0px;"/></g><g id="sprotty_ArchitectureBlockImpl$rng/AssignmentBlockImpl$rst_n" transform="translate(122.625, 35)" class="statement"><rect x="0" y="0" rx="10" ry="5" width="19.71875" height="22" class="sprotty-node" style="fill:rgb(245, 245, 245);stroke:rgb(112, 112, 112);"/><text class="clickable sprotty-label statementtype" id="sprotty_ArchitectureBlockImpl$rng/AssignmentBlockImpl$rst_n/labeltype" transform="translate(5, 5) translate(4.71875, 9)" style="cursor:default;font-size:8px;font-weight:700;perspective-origin:0.140625px 0px;fill:rgb(112, 112, 112);text-anchor:middle;">&lt;=</text><g id="sprotty_ArchitectureBlockImpl$rng/AssignmentBlockImpl$rst_n/GPortImpl$vcaon_pok_iIN" transform="translate(0, 11)" class="sprotty-hidden hidden" style="display:block;height:0px;width:0px;"/></g><g id="sprotty_ArchitectureBlockImpl$rng/InstantiationBlockImpl$u_rng_osc" transform="translate(122.625, 77)" class="instantiation"><g class="sprotty-block" style="fill:rgb(255, 255, 255);stroke:rgb(48, 48, 48);stroke-dasharray:0px;"><rect x="0" y="0" rx="1" ry="1" width="164.03125" height="84"/><text x="82.015625" y="12" class="sprotty-block-name" style="cursor:pointer;font-weight:700;perspective-origin:82.0156px 0px;fill:rgb(48, 48, 48);stroke:rgba(0, 0, 0, 0);dominant-baseline:middle;text-anchor:middle;">u_rng_osc : rng_osc</text><line x1="0" y1="20" x2="164.03125" y2="20"/></g><g id="sprotty_ArchitectureBlockImpl$rng/InstantiationBlockImpl$u_rng_osc/BPortImpl$rng_en_i" transform="translate(0, 66)" class="triangle"><path d="M 0,0 L 5,2.5 L 0,5 Z" transform="translate(-1.67, -2.5)" class="sprotty-port" style="fill:rgb(48, 48, 48);stroke:rgb(48, 48, 48);"/><text class="clickable sprotty-label port" id="sprotty_ArchitectureBlockImpl$rng/InstantiationBlockImpl$u_rng_osc/BPortImpl$rng_en_i/label" transform="translate(6, -9) translate(24.734375, 14)" style="cursor:default;font-size:12px;perspective-origin:0px 0px;fill:rgb(48, 48, 48);text-anchor:middle;">rng_en_i</text></g><g id="sprotty_ArchitectureBlockImpl$rng/InstantiationBlockImpl$u_rng_osc/BPortImpl$vcaon_pok_i" transform="translate(0, 38)" class="triangle"><path d="M 0,0 L 5,2.5 L 0,5 Z" transform="translate(-1.67, -2.5)" class="sprotty-port" style="fill:rgb(48, 48, 48);stroke:rgb(48, 48, 48);"/><text class="clickable sprotty-label port" id="sprotty_ArchitectureBlockImpl$rng/InstantiationBlockImpl$u_rng_osc/BPortImpl$vcaon_pok_i/label" transform="translate(6, -9) translate(35.8125, 14)" style="cursor:default;font-size:12px;perspective-origin:0px 0px;fill:rgb(48, 48, 48);text-anchor:middle;">vcaon_pok_i</text></g><g id="sprotty_ArchitectureBlockImpl$rng/InstantiationBlockImpl$u_rng_osc/BPortImpl$rng_clk_o" transform="translate(164.03125, 52)" class="triangle"><path d="M 0,0 L 5,2.5 L 0,5 Z" transform="translate(-1.67, -2.5)" class="sprotty-port" style="fill:rgb(48, 48, 48);stroke:rgb(48, 48, 48);"/><text class="clickable sprotty-label port" id="sprotty_ArchitectureBlockImpl$rng/InstantiationBlockImpl$u_rng_osc/BPortImpl$rng_clk_o/label" transform="translate(-61.59375, -9) translate(27.796875, 14)" style="cursor:default;font-size:12px;perspective-origin:0px 0px;fill:rgb(48, 48, 48);text-anchor:middle;">rng_clk_o</text></g></g><g id="sprotty_ArchitectureBlockImpl$rng/BPortImpl$rng_en_i" transform="translate(0, 143)" class="triangle"><path d="M 0,0 L 5,2.5 L 0,5 Z" transform="translate(-1.67, -2.5)" class="sprotty-port" style="fill:rgb(48, 48, 48);stroke:rgb(48, 48, 48);"/><text class="clickable sprotty-label port" id="sprotty_ArchitectureBlockImpl$rng/BPortImpl$rng_en_i/label" transform="translate(6, 6) translate(24.734375, 14)" style="cursor:default;font-size:12px;perspective-origin:0px 0px;fill:rgb(48, 48, 48);text-anchor:middle;">rng_en_i</text></g><g id="sprotty_ArchitectureBlockImpl$rng/BPortImpl$vcaon_pok_i" transform="translate(0, 46)" class="triangle"><path d="M 0,0 L 5,2.5 L 0,5 Z" transform="translate(-1.67, -2.5)" class="sprotty-port" style="fill:rgb(48, 48, 48);stroke:rgb(48, 48, 48);"/><text class="clickable sprotty-label port" id="sprotty_ArchitectureBlockImpl$rng/BPortImpl$vcaon_pok_i/label" transform="translate(6, 6) translate(35.8125, 14)" style="cursor:default;font-size:12px;perspective-origin:0px 0px;fill:rgb(48, 48, 48);text-anchor:middle;">vcaon_pok_i</text></g><g id="sprotty_ArchitectureBlockImpl$rng/BPortImpl$rst_ni" transform="translate(0, 256)" class="triangle"><path d="M 0,0 L 5,2.5 L 0,5 Z" transform="translate(-1.67, -2.5)" class="sprotty-port" style="fill:rgb(48, 48, 48);stroke:rgb(48, 48, 48);"/><text class="clickable sprotty-label port" id="sprotty_ArchitectureBlockImpl$rng/BPortImpl$rst_ni/label" transform="translate(6, 6) translate(15.921875, 14)" style="cursor:default;font-size:12px;perspective-origin:0px 0px;fill:rgb(48, 48, 48);text-anchor:middle;">rst_ni</text></g><g id="sprotty_ArchitectureBlockImpl$rng/BPortImpl$clk_i" transform="translate(0, 222)" class="triangle"><path d="M 0,0 L 5,2.5 L 0,5 Z" transform="translate(-1.67, -2.5)" class="sprotty-port" style="fill:rgb(48, 48, 48);stroke:rgb(48, 48, 48);"/><text class="clickable sprotty-label port" id="sprotty_ArchitectureBlockImpl$rng/BPortImpl$clk_i/label" transform="translate(6, 6) translate(13.09375, 14)" style="cursor:default;font-size:12px;perspective-origin:0px 0px;fill:rgb(48, 48, 48);text-anchor:middle;">clk_i</text></g><g id="sprotty_ArchitectureBlockImpl$rng/BPortImpl$rng_b_o" transform="translate(609.953125, 127)" class="triangle"><path d="M 0,0 L 5,2.5 L 0,5 Z" transform="translate(-1.67, -2.5)" class="sprotty-port" style="fill:rgb(48, 48, 48);stroke:rgb(48, 48, 48);"/><text class="clickable sprotty-label port" id="sprotty_ArchitectureBlockImpl$rng/BPortImpl$rng_b_o/label" transform="translate(-52.875, 6) translate(23.4375, 14)" style="cursor:default;font-size:12px;perspective-origin:0px 0px;fill:rgb(48, 48, 48);text-anchor:middle;">rng_b_o</text></g><g id="sprotty_ArchitectureBlockImpl$rng/BPortImpl$rng_val_o" transform="translate(609.953125, 305)" class="triangle"><path d="M 0,0 L 5,2.5 L 0,5 Z" transform="translate(-1.67, -2.5)" class="sprotty-port" style="fill:rgb(48, 48, 48);stroke:rgb(48, 48, 48);"/><text class="clickable sprotty-label port" id="sprotty_ArchitectureBlockImpl$rng/BPortImpl$rng_val_o/label" transform="translate(-61.625, 6) translate(27.8125, 14)" style="cursor:default;font-size:12px;perspective-origin:0px 0px;fill:rgb(48, 48, 48);text-anchor:middle;">rng_val_o</text></g></g></g></svg>