<svg xmlns="http://www.w3.org/2000/svg" id="sprotty_work.kmac_staterd" class="sprotty-graph sprotty-block-diagram blockdiagram" style="font-family:&quot;Noto Sans&quot;, Helvetica, Arial, sans-serif;perspective-origin:0px 0px;transform-origin:0px 0px;" version="1.1" viewBox="7 7 879.71875 600" width="879.71875" height="600"><g transform="scale(1) translate(0,0)"><g id="sprotty_ArchitectureBlockImpl$kmac_staterd" transform="translate(12, 12)" class="architecture"><g class="sprotty-block" style="fill:rgb(255, 255, 255);stroke:rgb(48, 48, 48);stroke-dasharray:0px;"><rect x="0" y="0" rx="1" ry="1" width="869.71875" height="590"/><text x="434.859375" y="12" class="sprotty-block-name" style="cursor:pointer;font-weight:700;perspective-origin:434.859px 0px;fill:rgb(48, 48, 48);stroke:rgba(0, 0, 0, 0);dominant-baseline:middle;text-anchor:middle;">kmac_staterd</text><line x1="0" y1="20" x2="869.71875" y2="20"/></g><g id="sprotty_ArchitectureBlockImpl$kmac_staterd/InstantiationBlockImpl$u_tlul_adapter/BPortImpl$tl_o_to_ArchitectureBlockImpl$kmac_staterd/BPortImpl$tl_o" class="sprotty-edge thick edge" style="fill:none;stroke:rgb(112, 112, 112);stroke-linejoin:round;stroke-width:3px;"><g><path d="M 441.65625 115 L 869.71875 115 "/><path d="M 441.65625 115 L 869.71875 115 " class="clickable"/></g></g><g id="sprotty_ArchitectureBlockImpl$kmac_staterd/BPortImpl$clk_i_to_ArchitectureBlockImpl$kmac_staterd/InstantiationBlockImpl$u_tlul_adapter/BPortImpl$clk_i" class="sprotty-edge edge" style="fill:none;stroke:rgb(112, 112, 112);stroke-linejoin:round;"><g><path d="M 0 340 L 66.1875 340 C 67.1875 340 68.1875 339 68.1875 338 L 68.1875 153 C 68.1875 152 69.1875 151 70.1875 151 L 125.90625 151 C 126.90625 151 127.90625 150 127.90625 149 L 127.90625 117 C 127.90625 116 128.90625 115 129.90625 115 L 157.90625 115 "/><path d="M 0 340 L 66.1875 340 C 67.1875 340 68.1875 339 68.1875 338 L 68.1875 153 C 68.1875 152 69.1875 151 70.1875 151 L 125.90625 151 C 126.90625 151 127.90625 150 127.90625 149 L 127.90625 117 C 127.90625 116 128.90625 115 129.90625 115 L 157.90625 115 " class="clickable"/></g><circle r="2" id="sprotty_ArchitectureBlockImpl$kmac_staterd/BPortImpl$clk_i_to_ArchitectureBlockImpl$kmac_staterd/InstantiationBlockImpl$u_tlul_adapter/BPortImpl$clk_i/junction0" transform="translate(68.1875, 340)" class="sprotty-junction junction" style="fill:rgb(112, 112, 112);stroke:none;"/><circle r="2" id="sprotty_ArchitectureBlockImpl$kmac_staterd/BPortImpl$clk_i_to_ArchitectureBlockImpl$kmac_staterd/InstantiationBlockImpl$u_tlul_adapter/BPortImpl$clk_i/junction1" transform="translate(68.1875, 151)" class="sprotty-junction junction" style="fill:rgb(112, 112, 112);stroke:none;"/></g><g id="sprotty_ArchitectureBlockImpl$kmac_staterd/BPortImpl$rst_ni_to_ArchitectureBlockImpl$kmac_staterd/InstantiationBlockImpl$u_tlul_adapter/BPortImpl$rst_ni" class="sprotty-edge edge" style="fill:none;stroke:rgb(112, 112, 112);stroke-linejoin:round;"><g><path d="M 0 413 L 76.1875 413 C 77.1875 413 78.1875 412 78.1875 411 L 78.1875 163 C 78.1875 162 79.1875 161 80.1875 161 L 145.90625 161 C 146.90625 161 147.90625 160 147.90625 159 L 147.90625 145 C 147.90625 144 148.90625 143 149.90625 143 L 157.90625 143 "/><path d="M 0 413 L 76.1875 413 C 77.1875 413 78.1875 412 78.1875 411 L 78.1875 163 C 78.1875 162 79.1875 161 80.1875 161 L 145.90625 161 C 146.90625 161 147.90625 160 147.90625 159 L 147.90625 145 C 147.90625 144 148.90625 143 149.90625 143 L 157.90625 143 " class="clickable"/></g><circle r="2" id="sprotty_ArchitectureBlockImpl$kmac_staterd/BPortImpl$rst_ni_to_ArchitectureBlockImpl$kmac_staterd/InstantiationBlockImpl$u_tlul_adapter/BPortImpl$rst_ni/junction0" transform="translate(78.1875, 413)" class="sprotty-junction junction" style="fill:rgb(112, 112, 112);stroke:none;"/><circle r="2" id="sprotty_ArchitectureBlockImpl$kmac_staterd/BPortImpl$rst_ni_to_ArchitectureBlockImpl$kmac_staterd/InstantiationBlockImpl$u_tlul_adapter/BPortImpl$rst_ni/junction1" transform="translate(78.1875, 161)" class="sprotty-junction junction" style="fill:rgb(112, 112, 112);stroke:none;"/></g><g id="sprotty_ArchitectureBlockImpl$kmac_staterd/BPortImpl$tl_i_to_ArchitectureBlockImpl$kmac_staterd/InstantiationBlockImpl$u_tlul_adapter/BPortImpl$tl_i" class="sprotty-edge thick edge" style="fill:none;stroke:rgb(112, 112, 112);stroke-linejoin:round;stroke-width:3px;"><g><path d="M 0 447 L 86.1875 447 C 87.1875 447 88.1875 446 88.1875 445 L 88.1875 173 C 88.1875 172 89.1875 171 90.1875 171 L 157.90625 171 "/><path d="M 0 447 L 86.1875 447 C 87.1875 447 88.1875 446 88.1875 445 L 88.1875 173 C 88.1875 172 89.1875 171 90.1875 171 L 157.90625 171 " class="clickable"/></g></g><g id="sprotty_ArchitectureBlockImpl$kmac_staterd/BPortImpl$clk_i_to_ArchitectureBlockImpl$kmac_staterd/AlwaysBlockImpl$null9/GPortImpl$clk_iIN" class="sprotty-edge edge" style="fill:none;stroke:rgb(112, 112, 112);stroke-linejoin:round;"><g><path d="M 0 340 L 66.1875 340 C 67.1875 340 68.1875 339 68.1875 338 L 68.1875 57 C 68.1875 56 69.1875 55 70.1875 55 L 481.65625 55 "/><path d="M 0 340 L 66.1875 340 C 67.1875 340 68.1875 339 68.1875 338 L 68.1875 57 C 68.1875 56 69.1875 55 70.1875 55 L 481.65625 55 " class="clickable"/></g></g><g id="sprotty_ArchitectureBlockImpl$kmac_staterd/BPortImpl$rst_ni_to_ArchitectureBlockImpl$kmac_staterd/AlwaysBlockImpl$null9/GPortImpl$rst_niIN" class="sprotty-edge edge" style="fill:none;stroke:rgb(112, 112, 112);stroke-linejoin:round;"><g><path d="M 0 413 L 76.1875 413 C 77.1875 413 78.1875 412 78.1875 411 L 78.1875 67 C 78.1875 66 79.1875 65 80.1875 65 L 481.65625 65 "/><path d="M 0 413 L 76.1875 413 C 77.1875 413 78.1875 412 78.1875 411 L 78.1875 67 C 78.1875 66 79.1875 65 80.1875 65 L 481.65625 65 " class="clickable"/></g></g><g id="sprotty_ArchitectureBlockImpl$kmac_staterd/BPortImpl$clk_i_to_ArchitectureBlockImpl$kmac_staterd/AlwaysBlockImpl$null8/GPortImpl$clk_iIN" class="sprotty-edge edge" style="fill:none;stroke:rgb(112, 112, 112);stroke-linejoin:round;"><g><path d="M 0 340 L 481.65625 340 "/><path d="M 0 340 L 481.65625 340 " class="clickable"/></g></g><g id="sprotty_ArchitectureBlockImpl$kmac_staterd/BPortImpl$rst_ni_to_ArchitectureBlockImpl$kmac_staterd/AlwaysBlockImpl$null8/GPortImpl$rst_niIN" class="sprotty-edge edge" style="fill:none;stroke:rgb(112, 112, 112);stroke-linejoin:round;"><g><path d="M 0 413 L 459.65625 413 C 460.65625 413 461.65625 412 461.65625 411 L 461.65625 352 C 461.65625 351 462.65625 350 463.65625 350 L 481.65625 350 "/><path d="M 0 413 L 459.65625 413 C 460.65625 413 461.65625 412 461.65625 411 L 461.65625 352 C 461.65625 351 462.65625 350 463.65625 350 L 481.65625 350 " class="clickable"/></g></g><g id="sprotty_ArchitectureBlockImpl$kmac_staterd/BPortImpl$state_i_to_ArchitectureBlockImpl$kmac_staterd/GenerateStatementBlockImpl$gen_slicer/GPortImpl$state_i" class="sprotty-edge thick edge" style="fill:none;stroke:rgb(112, 112, 112);stroke-linejoin:round;stroke-width:3px;"><g><path d="M 0 481 L 481.65625 481 "/><path d="M 0 481 L 481.65625 481 " class="clickable"/></g></g><g id="sprotty_ArchitectureBlockImpl$kmac_staterd/InstantiationBlockImpl$u_tlul_adapter/BPortImpl$req_o_to_ArchitectureBlockImpl$kmac_staterd/AssignmentBlockImpl$tlram_gnt/GPortImpl$tlram_reqIN" class="sprotty-edge edge" style="fill:none;stroke:rgb(112, 112, 112);stroke-linejoin:round;"><g><path d="M 441.65625 154.2 L 469.65625 154.2 C 470.65625 154.2 471.65625 155.2 471.65625 156.2 L 471.65625 179.60000000000002 C 471.65625 180.60000000000002 472.65625 181.60000000000002 473.65625 181.60000000000002 L 481.65625 181.60000000000002 "/><path d="M 441.65625 154.2 L 469.65625 154.2 C 470.65625 154.2 471.65625 155.2 471.65625 156.2 L 471.65625 179.60000000000002 C 471.65625 180.60000000000002 472.65625 181.60000000000002 473.65625 181.60000000000002 L 481.65625 181.60000000000002 " class="clickable"/></g><circle r="2" id="sprotty_ArchitectureBlockImpl$kmac_staterd/InstantiationBlockImpl$u_tlul_adapter/BPortImpl$req_o_to_ArchitectureBlockImpl$kmac_staterd/AssignmentBlockImpl$tlram_gnt/GPortImpl$tlram_reqIN/junction0" transform="translate(471.65625, 154.2)" class="sprotty-junction junction" style="fill:rgb(112, 112, 112);stroke:none;"/><circle r="2" id="sprotty_ArchitectureBlockImpl$kmac_staterd/InstantiationBlockImpl$u_tlul_adapter/BPortImpl$req_o_to_ArchitectureBlockImpl$kmac_staterd/AssignmentBlockImpl$tlram_gnt/GPortImpl$tlram_reqIN/junction1" transform="translate(471.65625, 181.60000000000002)" class="sprotty-junction junction" style="fill:rgb(112, 112, 112);stroke:none;"/></g><g id="sprotty_ArchitectureBlockImpl$kmac_staterd/InstantiationBlockImpl$u_tlul_adapter/BPortImpl$req_o_to_ArchitectureBlockImpl$kmac_staterd/AlwaysBlockImpl$null9/GPortImpl$tlram_reqIN" class="sprotty-edge edge" style="fill:none;stroke:rgb(112, 112, 112);stroke-linejoin:round;"><g><path d="M 441.65625 154.2 L 469.65625 154.2 C 470.65625 154.2 471.65625 153.2 471.65625 152.2 L 471.65625 77 C 471.65625 76 472.65625 75 473.65625 75 L 481.65625 75 "/><path d="M 441.65625 154.2 L 469.65625 154.2 C 470.65625 154.2 471.65625 153.2 471.65625 152.2 L 471.65625 77 C 471.65625 76 472.65625 75 473.65625 75 L 481.65625 75 " class="clickable"/></g></g><g id="sprotty_ArchitectureBlockImpl$kmac_staterd/InstantiationBlockImpl$u_tlul_adapter/BPortImpl$req_o_to_ArchitectureBlockImpl$kmac_staterd/AlwaysBlockImpl$null8/GPortImpl$tlram_reqIN" class="sprotty-edge edge" style="fill:none;stroke:rgb(112, 112, 112);stroke-linejoin:round;"><g><path d="M 441.65625 154.2 L 469.65625 154.2 C 470.65625 154.2 471.65625 155.2 471.65625 156.2 L 471.65625 318 C 471.65625 319 472.65625 320 473.65625 320 L 481.65625 320 "/><path d="M 441.65625 154.2 L 469.65625 154.2 C 470.65625 154.2 471.65625 155.2 471.65625 156.2 L 471.65625 318 C 471.65625 319 472.65625 320 473.65625 320 L 481.65625 320 " class="clickable"/></g></g><g id="sprotty_ArchitectureBlockImpl$kmac_staterd/AssignmentBlockImpl$tlram_gnt/GPortImpl$tlram_weOUT_to_ArchitectureBlockImpl$kmac_staterd/InstantiationBlockImpl$u_tlul_adapter/BPortImpl$gnt_i" class="sprotty-edge edge" style="fill:none;stroke:rgb(112, 112, 112);stroke-linejoin:round;"><g><path d="M 501.375 186.60000000000002 L 741.03125 186.60000000000002 C 742.03125 186.60000000000002 743.03125 187.60000000000002 743.03125 188.60000000000002 L 743.03125 522 C 743.03125 523 742.03125 524 741.03125 524 L 129.90625 524 C 128.90625 524 127.90625 523 127.90625 522 L 127.90625 229 C 127.90625 228 128.90625 227 129.90625 227 L 157.90625 227 "/><path d="M 501.375 186.60000000000002 L 741.03125 186.60000000000002 C 742.03125 186.60000000000002 743.03125 187.60000000000002 743.03125 188.60000000000002 L 743.03125 522 C 743.03125 523 742.03125 524 741.03125 524 L 129.90625 524 C 128.90625 524 127.90625 523 127.90625 522 L 127.90625 229 C 127.90625 228 128.90625 227 129.90625 227 L 157.90625 227 " class="clickable"/></g></g><g id="sprotty_ArchitectureBlockImpl$kmac_staterd/InstantiationBlockImpl$u_tlul_adapter/BPortImpl$we_o_to_ArchitectureBlockImpl$kmac_staterd/AssignmentBlockImpl$tlram_gnt/GPortImpl$tlram_weIN" class="sprotty-edge edge" style="fill:none;stroke:rgb(112, 112, 112);stroke-linejoin:round;"><g><path d="M 441.65625 193.4 L 461.65625 193.39999999999998 L 461.65625 191.60000000000002 L 481.65625 191.60000000000002 "/><path d="M 441.65625 193.4 L 461.65625 193.39999999999998 L 461.65625 191.60000000000002 L 481.65625 191.60000000000002 " class="clickable"/></g><circle r="2" id="sprotty_ArchitectureBlockImpl$kmac_staterd/InstantiationBlockImpl$u_tlul_adapter/BPortImpl$we_o_to_ArchitectureBlockImpl$kmac_staterd/AssignmentBlockImpl$tlram_gnt/GPortImpl$tlram_weIN/junction0" transform="translate(461.65625, 193.39999999999998)" class="sprotty-junction junction" style="fill:rgb(112, 112, 112);stroke:none;"/><circle r="2" id="sprotty_ArchitectureBlockImpl$kmac_staterd/InstantiationBlockImpl$u_tlul_adapter/BPortImpl$we_o_to_ArchitectureBlockImpl$kmac_staterd/AssignmentBlockImpl$tlram_gnt/GPortImpl$tlram_weIN/junction1" transform="translate(461.65625, 191.60000000000002)" class="sprotty-junction junction" style="fill:rgb(112, 112, 112);stroke:none;"/></g><g id="sprotty_ArchitectureBlockImpl$kmac_staterd/InstantiationBlockImpl$u_tlul_adapter/BPortImpl$we_o_to_ArchitectureBlockImpl$kmac_staterd/AlwaysBlockImpl$null9/GPortImpl$tlram_weIN" class="sprotty-edge edge" style="fill:none;stroke:rgb(112, 112, 112);stroke-linejoin:round;"><g><path d="M 441.65625 193.4 L 459.65625 193.39999999999998 C 460.65625 193.39999999999998 461.65625 192.39999999999998 461.65625 191.39999999999998 L 461.65625 87 C 461.65625 86 462.65625 85 463.65625 85 L 481.65625 85 "/><path d="M 441.65625 193.4 L 459.65625 193.39999999999998 C 460.65625 193.39999999999998 461.65625 192.39999999999998 461.65625 191.39999999999998 L 461.65625 87 C 461.65625 86 462.65625 85 463.65625 85 L 481.65625 85 " class="clickable"/></g></g><g id="sprotty_ArchitectureBlockImpl$kmac_staterd/InstantiationBlockImpl$u_tlul_adapter/BPortImpl$we_o_to_ArchitectureBlockImpl$kmac_staterd/AlwaysBlockImpl$null8/GPortImpl$tlram_weIN" class="sprotty-edge edge" style="fill:none;stroke:rgb(112, 112, 112);stroke-linejoin:round;"><g><path d="M 441.65625 193.4 L 459.65625 193.39999999999998 C 460.65625 193.39999999999998 461.65625 194.39999999999998 461.65625 195.39999999999998 L 461.65625 328 C 461.65625 329 462.65625 330 463.65625 330 L 481.65625 330 "/><path d="M 441.65625 193.4 L 459.65625 193.39999999999998 C 460.65625 193.39999999999998 461.65625 194.39999999999998 461.65625 195.39999999999998 L 461.65625 328 C 461.65625 329 462.65625 330 463.65625 330 L 481.65625 330 " class="clickable"/></g></g><g id="sprotty_ArchitectureBlockImpl$kmac_staterd/InstantiationBlockImpl$u_tlul_adapter/BPortImpl$addr_o_to_ArchitectureBlockImpl$kmac_staterd/AssignmentBlockImpl$addr_sel/GPortImpl$tlram_addrIN" class="sprotty-edge thick edge" style="fill:none;stroke:rgb(112, 112, 112);stroke-linejoin:round;stroke-width:3px;"><g><path d="M 441.65625 232.60000000000002 L 592.484375 232.60000000000002 "/><path d="M 441.65625 232.60000000000002 L 592.484375 232.60000000000002 " class="clickable"/></g></g><g id="sprotty_ArchitectureBlockImpl$kmac_staterd/InstantiationBlockImpl$u_tlul_adapter/BPortImpl$addr_o_to_ArchitectureBlockImpl$kmac_staterd/GenerateStatementBlockImpl$gen_slicer/GPortImpl$tlram_addr" class="sprotty-edge thick edge" style="fill:none;stroke:rgb(112, 112, 112);stroke-linejoin:round;stroke-width:3px;"><g><path d="M 441.65625 232.60000000000002 L 449.65625 232.60000000000002 C 450.65625 232.60000000000002 451.65625 233.60000000000002 451.65625 234.60000000000002 L 451.65625 451 C 451.65625 452 452.65625 453 453.65625 453 L 481.65625 453 "/><path d="M 441.65625 232.60000000000002 L 449.65625 232.60000000000002 C 450.65625 232.60000000000002 451.65625 233.60000000000002 451.65625 234.60000000000002 L 451.65625 451 C 451.65625 452 452.65625 453 453.65625 453 L 481.65625 453 " class="clickable"/></g><circle r="3" id="sprotty_ArchitectureBlockImpl$kmac_staterd/InstantiationBlockImpl$u_tlul_adapter/BPortImpl$addr_o_to_ArchitectureBlockImpl$kmac_staterd/GenerateStatementBlockImpl$gen_slicer/GPortImpl$tlram_addr/junction0" transform="translate(451.65625, 232.60000000000002)" class="sprotty-junction thick" style="fill:rgb(112, 112, 112);stroke:none;"/></g><g id="sprotty_ArchitectureBlockImpl$kmac_staterd/AlwaysBlockImpl$null9/GPortImpl$tlram_rdataOUT_to_ArchitectureBlockImpl$kmac_staterd/InstantiationBlockImpl$u_tlul_adapter/BPortImpl$rdata_i" class="sprotty-edge thick edge" style="fill:none;stroke:rgb(112, 112, 112);stroke-linejoin:round;stroke-width:3px;"><g><path d="M 530.546875 70 L 731.03125 70 C 732.03125 70 733.03125 69 733.03125 68 L 733.03125 37 C 733.03125 36 732.03125 35 731.03125 35 L 139.90625 35 C 138.90625 35 137.90625 36 137.90625 37 L 137.90625 253 C 137.90625 254 138.90625 255 139.90625 255 L 157.90625 255 "/><path d="M 530.546875 70 L 731.03125 70 C 732.03125 70 733.03125 69 733.03125 68 L 733.03125 37 C 733.03125 36 732.03125 35 731.03125 35 L 139.90625 35 C 138.90625 35 137.90625 36 137.90625 37 L 137.90625 253 C 137.90625 254 138.90625 255 139.90625 255 L 157.90625 255 " class="clickable"/></g></g><g id="sprotty_ArchitectureBlockImpl$kmac_staterd/AlwaysBlockImpl$null8/GPortImpl$tlram_rvalidOUT_to_ArchitectureBlockImpl$kmac_staterd/InstantiationBlockImpl$u_tlul_adapter/BPortImpl$rvalid_i" class="sprotty-edge edge" style="fill:none;stroke:rgb(112, 112, 112);stroke-linejoin:round;"><g><path d="M 530.546875 335 L 731.03125 335 C 732.03125 335 733.03125 336 733.03125 337 L 733.03125 529 C 733.03125 530 732.03125 531 731.03125 531 L 149.90625 531 C 148.90625 531 147.90625 530 147.90625 529 L 147.90625 285 C 147.90625 284 148.90625 283 149.90625 283 L 157.90625 283 "/><path d="M 530.546875 335 L 731.03125 335 C 732.03125 335 733.03125 336 733.03125 337 L 733.03125 529 C 733.03125 530 732.03125 531 731.03125 531 L 149.90625 531 C 148.90625 531 147.90625 530 147.90625 529 L 147.90625 285 C 147.90625 284 148.90625 283 149.90625 283 L 157.90625 283 " class="clickable"/></g></g><g id="sprotty_ArchitectureBlockImpl$kmac_staterd/AssignmentBlockImpl$tlram_rerror/GPortImpl$tlram_rerrorOUT_to_ArchitectureBlockImpl$kmac_staterd/InstantiationBlockImpl$u_tlul_adapter/BPortImpl$rerror_i" class="sprotty-edge thick edge" style="fill:none;stroke:rgb(112, 112, 112);stroke-linejoin:round;stroke-width:3px;"><g><path d="M 117.90625 311 L 157.90625 311 "/><path d="M 117.90625 311 L 157.90625 311 " class="clickable"/></g></g><g id="sprotty_ArchitectureBlockImpl$kmac_staterd/GenerateStatementBlockImpl$gen_slicer/GPortImpl$muxed_state_to_ArchitectureBlockImpl$kmac_staterd/AlwaysBlockImpl$null7/GPortImpl$muxed_stateIN" class="sprotty-edge thick edge" style="fill:none;stroke:rgb(112, 112, 112);stroke-linejoin:round;stroke-width:3px;"><g><path d="M 723.03125 467 L 763.03125 467 "/><path d="M 723.03125 467 L 763.03125 467 " class="clickable"/></g></g><g id="sprotty_ArchitectureBlockImpl$kmac_staterd/AssignmentBlockImpl$addr_sel/GPortImpl$tlram_addrOUT_to_ArchitectureBlockImpl$kmac_staterd/AlwaysBlockImpl$null7/GPortImpl$addr_selIN" class="sprotty-edge thick edge" style="fill:none;stroke:rgb(112, 112, 112);stroke-linejoin:round;stroke-width:3px;"><g><path d="M 612.203125 232.60000000000002 L 751.03125 232.60000000000002 C 752.03125 232.60000000000002 753.03125 233.60000000000002 753.03125 234.60000000000002 L 753.03125 455 C 753.03125 456 754.03125 457 755.03125 457 L 763.03125 457 "/><path d="M 612.203125 232.60000000000002 L 751.03125 232.60000000000002 C 752.03125 232.60000000000002 753.03125 233.60000000000002 753.03125 234.60000000000002 L 753.03125 455 C 753.03125 456 754.03125 457 755.03125 457 L 763.03125 457 " class="clickable"/></g></g><g id="sprotty_ArchitectureBlockImpl$kmac_staterd/GenerateStatementBlockImpl$gen_slicer" transform="translate(481.65625, 380)" class="generate"><g class="sprotty-block sprotty-block-generate" style="fill:rgb(255, 255, 255);stroke:rgb(48, 48, 48);stroke-dasharray:0px;"><rect x="0" y="0" rx="1" ry="1" width="241.375" height="134" style="stroke-dasharray:3px, 1px;"/><text x="120.6875" y="12" class="sprotty-block-name" style="cursor:pointer;font-weight:700;perspective-origin:120.688px 0px;fill:rgb(48, 48, 48);stroke:rgba(0, 0, 0, 0);dominant-baseline:middle;text-anchor:middle;">gen_slicer</text><line x1="0" y1="20" x2="241.375" y2="20" style="stroke-dasharray:3px, 1px;"/></g><g id="sprotty_ArchitectureBlockImpl$kmac_staterd/GenerateStatementBlockImpl$gen_slicer/GPortImpl$state_i_to_ArchitectureBlockImpl$kmac_staterd/GenerateStatementBlockImpl$gen_slicer/InstantiationBlockImpl$u_state_slice/BPortImpl$data_i" class="sprotty-edge thick edge" style="fill:none;stroke:rgb(112, 112, 112);stroke-linejoin:round;stroke-width:3px;"><g><path d="M 0 101 L 15 101 "/><path d="M 0 101 L 15 101 " class="clickable"/></g></g><g id="sprotty_ArchitectureBlockImpl$kmac_staterd/GenerateStatementBlockImpl$gen_slicer/GPortImpl$tlram_addr_to_ArchitectureBlockImpl$kmac_staterd/GenerateStatementBlockImpl$gen_slicer/InstantiationBlockImpl$u_state_slice/BPortImpl$sel_i" class="sprotty-edge thick edge" style="fill:none;stroke:rgb(112, 112, 112);stroke-linejoin:round;stroke-width:3px;"><g><path d="M 0 73 L 15 73 "/><path d="M 0 73 L 15 73 " class="clickable"/></g></g><g id="sprotty_ArchitectureBlockImpl$kmac_staterd/GenerateStatementBlockImpl$gen_slicer/InstantiationBlockImpl$u_state_slice/BPortImpl$data_o_to_ArchitectureBlockImpl$kmac_staterd/GenerateStatementBlockImpl$gen_slicer/GPortImpl$muxed_state" class="sprotty-edge thick edge" style="fill:none;stroke:rgb(112, 112, 112);stroke-linejoin:round;stroke-width:3px;"><g><path d="M 226.375 87 L 241.375 87 "/><path d="M 226.375 87 L 241.375 87 " class="clickable"/></g></g><g id="sprotty_ArchitectureBlockImpl$kmac_staterd/GenerateStatementBlockImpl$gen_slicer/InstantiationBlockImpl$u_state_slice" transform="translate(15, 35)" class="instantiation"><g class="sprotty-block" style="fill:rgb(255, 255, 255);stroke:rgb(48, 48, 48);stroke-dasharray:0px;"><rect x="0" y="0" rx="1" ry="1" width="211.375" height="84"/><text x="105.6875" y="12" class="sprotty-block-name" style="cursor:pointer;font-weight:700;perspective-origin:105.703px 0px;fill:rgb(48, 48, 48);stroke:rgba(0, 0, 0, 0);dominant-baseline:middle;text-anchor:middle;">u_state_slice : prim_slicer</text><line x1="0" y1="20" x2="211.375" y2="20"/></g><g id="sprotty_ArchitectureBlockImpl$kmac_staterd/GenerateStatementBlockImpl$gen_slicer/InstantiationBlockImpl$u_state_slice/BPortImpl$data_i" transform="translate(0, 66)" class="triangle"><path d="M 0,0 L 5,2.5 L 0,5 Z" transform="translate(-1.67, -2.5)" class="sprotty-port" style="fill:rgb(48, 48, 48);stroke:rgb(48, 48, 48);"/><text class="clickable sprotty-label port" id="sprotty_ArchitectureBlockImpl$kmac_staterd/GenerateStatementBlockImpl$gen_slicer/InstantiationBlockImpl$u_state_slice/BPortImpl$data_i/label" transform="translate(6, -9) translate(17.53125, 14)" style="cursor:default;font-size:12px;perspective-origin:0px 0px;fill:rgb(48, 48, 48);text-anchor:middle;">data_i</text></g><g id="sprotty_ArchitectureBlockImpl$kmac_staterd/GenerateStatementBlockImpl$gen_slicer/InstantiationBlockImpl$u_state_slice/BPortImpl$sel_i" transform="translate(0, 38)" class="triangle"><path d="M 0,0 L 5,2.5 L 0,5 Z" transform="translate(-1.67, -2.5)" class="sprotty-port" style="fill:rgb(48, 48, 48);stroke:rgb(48, 48, 48);"/><text class="clickable sprotty-label port" id="sprotty_ArchitectureBlockImpl$kmac_staterd/GenerateStatementBlockImpl$gen_slicer/InstantiationBlockImpl$u_state_slice/BPortImpl$sel_i/label" transform="translate(6, -9) translate(12.859375, 14)" style="cursor:default;font-size:12px;perspective-origin:0px 0px;fill:rgb(48, 48, 48);text-anchor:middle;">sel_i</text></g><g id="sprotty_ArchitectureBlockImpl$kmac_staterd/GenerateStatementBlockImpl$gen_slicer/InstantiationBlockImpl$u_state_slice/BPortImpl$data_o" transform="translate(211.375, 52)" class="triangle"><path d="M 0,0 L 5,2.5 L 0,5 Z" transform="translate(-1.67, -2.5)" class="sprotty-port" style="fill:rgb(48, 48, 48);stroke:rgb(48, 48, 48);"/><text class="clickable sprotty-label port" id="sprotty_ArchitectureBlockImpl$kmac_staterd/GenerateStatementBlockImpl$gen_slicer/InstantiationBlockImpl$u_state_slice/BPortImpl$data_o/label" transform="translate(-45.03125, -9) translate(19.515625, 14)" style="cursor:default;font-size:12px;perspective-origin:0px 0px;fill:rgb(48, 48, 48);text-anchor:middle;">data_o</text></g></g><g id="sprotty_ArchitectureBlockImpl$kmac_staterd/GenerateStatementBlockImpl$gen_slicer/GPortImpl$tlram_addr" transform="translate(0, 73)" class="triangle"><path d="M 0,0 L 5,2.5 L 0,5 Z" transform="translate(-1.67, -2.5)" class="sprotty-port" style="fill:rgb(48, 48, 48);stroke:rgb(48, 48, 48);"/></g><g id="sprotty_ArchitectureBlockImpl$kmac_staterd/GenerateStatementBlockImpl$gen_slicer/GPortImpl$state_i" transform="translate(0, 101)" class="triangle"><path d="M 0,0 L 5,2.5 L 0,5 Z" transform="translate(-1.67, -2.5)" class="sprotty-port" style="fill:rgb(48, 48, 48);stroke:rgb(48, 48, 48);"/></g><g id="sprotty_ArchitectureBlockImpl$kmac_staterd/GenerateStatementBlockImpl$gen_slicer/GPortImpl$muxed_state" transform="translate(241.375, 87)" class="triangle"><path d="M 0,0 L 5,2.5 L 0,5 Z" transform="translate(-1.67, -2.5)" class="sprotty-port" style="fill:rgb(48, 48, 48);stroke:rgb(48, 48, 48);"/></g></g><g id="sprotty_ArchitectureBlockImpl$kmac_staterd/AlwaysBlockImpl$null7" transform="translate(763.03125, 447)" class="statement"><rect x="0" y="0" rx="10" ry="5" width="63.75" height="30" class="sprotty-node" style="fill:rgb(245, 245, 245);stroke:rgb(112, 112, 112);"/><text class="clickable sprotty-label statementtype" id="sprotty_ArchitectureBlockImpl$kmac_staterd/AlwaysBlockImpl$null7/labeltype" transform="translate(5, 9) translate(26.875, 9)" style="cursor:default;font-size:8px;font-weight:700;perspective-origin:0px 0px;fill:rgb(112, 112, 112);text-anchor:middle;">always_comb</text><g id="sprotty_ArchitectureBlockImpl$kmac_staterd/AlwaysBlockImpl$null7/GPortImpl$muxed_stateIN" transform="translate(0, 20)" class="sprotty-hidden hidden" style="display:block;height:0px;width:0px;"/><g id="sprotty_ArchitectureBlockImpl$kmac_staterd/AlwaysBlockImpl$null7/GPortImpl$addr_selIN" transform="translate(0, 10)" class="sprotty-hidden hidden" style="display:block;height:0px;width:0px;"/></g><g id="sprotty_ArchitectureBlockImpl$kmac_staterd/AlwaysBlockImpl$null8" transform="translate(481.65625, 310)" class="statement"><rect x="0" y="0" rx="10" ry="5" width="48.890625" height="50" class="sprotty-node" style="fill:rgb(245, 245, 245);stroke:rgb(112, 112, 112);"/><text class="clickable sprotty-label statementtype" id="sprotty_ArchitectureBlockImpl$kmac_staterd/AlwaysBlockImpl$null8/labeltype" transform="translate(5, 19) translate(18.828125, 9)" style="cursor:default;font-size:8px;font-weight:700;perspective-origin:0.609375px 0px;fill:rgb(112, 112, 112);text-anchor:middle;">always_ff</text><g id="sprotty_ArchitectureBlockImpl$kmac_staterd/AlwaysBlockImpl$null8/GPortImpl$tlram_weIN" transform="translate(0, 20)" class="sprotty-hidden hidden" style="display:block;height:0px;width:0px;"/><g id="sprotty_ArchitectureBlockImpl$kmac_staterd/AlwaysBlockImpl$null8/GPortImpl$tlram_reqIN" transform="translate(0, 10)" class="sprotty-hidden hidden" style="display:block;height:0px;width:0px;"/><g id="sprotty_ArchitectureBlockImpl$kmac_staterd/AlwaysBlockImpl$null8/GPortImpl$rst_niIN" transform="translate(0, 40)" class="sprotty-hidden hidden" style="display:block;height:0px;width:0px;"/><g id="sprotty_ArchitectureBlockImpl$kmac_staterd/AlwaysBlockImpl$null8/GPortImpl$clk_iIN" transform="translate(0, 30)" class="sprotty-hidden hidden" style="display:block;height:0px;width:0px;"/><g id="sprotty_ArchitectureBlockImpl$kmac_staterd/AlwaysBlockImpl$null8/GPortImpl$tlram_rvalidOUT" transform="translate(48.890625, 25)" class="sprotty-hidden hidden" style="display:block;height:0px;width:0px;"/></g><g id="sprotty_ArchitectureBlockImpl$kmac_staterd/AlwaysBlockImpl$null9" transform="translate(481.65625, 45)" class="statement"><rect x="0" y="0" rx="10" ry="5" width="48.890625" height="50" class="sprotty-node" style="fill:rgb(245, 245, 245);stroke:rgb(112, 112, 112);"/><text class="clickable sprotty-label statementtype" id="sprotty_ArchitectureBlockImpl$kmac_staterd/AlwaysBlockImpl$null9/labeltype" transform="translate(5, 19) translate(18.828125, 9)" style="cursor:default;font-size:8px;font-weight:700;perspective-origin:0.609375px 0px;fill:rgb(112, 112, 112);text-anchor:middle;">always_ff</text><g id="sprotty_ArchitectureBlockImpl$kmac_staterd/AlwaysBlockImpl$null9/GPortImpl$tlram_weIN" transform="translate(0, 40)" class="sprotty-hidden hidden" style="display:block;height:0px;width:0px;"/><g id="sprotty_ArchitectureBlockImpl$kmac_staterd/AlwaysBlockImpl$null9/GPortImpl$tlram_reqIN" transform="translate(0, 30)" class="sprotty-hidden hidden" style="display:block;height:0px;width:0px;"/><g id="sprotty_ArchitectureBlockImpl$kmac_staterd/AlwaysBlockImpl$null9/GPortImpl$rst_niIN" transform="translate(0, 20)" class="sprotty-hidden hidden" style="display:block;height:0px;width:0px;"/><g id="sprotty_ArchitectureBlockImpl$kmac_staterd/AlwaysBlockImpl$null9/GPortImpl$clk_iIN" transform="translate(0, 10)" class="sprotty-hidden hidden" style="display:block;height:0px;width:0px;"/><g id="sprotty_ArchitectureBlockImpl$kmac_staterd/AlwaysBlockImpl$null9/GPortImpl$tlram_rdataOUT" transform="translate(48.890625, 25)" class="sprotty-hidden hidden" style="display:block;height:0px;width:0px;"/></g><g id="sprotty_ArchitectureBlockImpl$kmac_staterd/AssignmentBlockImpl$addr_sel" transform="translate(592.484375, 221.60000000000002)" class="statement"><rect x="0" y="0" rx="10" ry="5" width="19.71875" height="22" class="sprotty-node" style="fill:rgb(245, 245, 245);stroke:rgb(112, 112, 112);"/><text class="clickable sprotty-label statementtype" id="sprotty_ArchitectureBlockImpl$kmac_staterd/AssignmentBlockImpl$addr_sel/labeltype" transform="translate(5, 5) translate(4.71875, 9)" style="cursor:default;font-size:8px;font-weight:700;perspective-origin:0.140625px 0px;fill:rgb(112, 112, 112);text-anchor:middle;">&lt;=</text><g id="sprotty_ArchitectureBlockImpl$kmac_staterd/AssignmentBlockImpl$addr_sel/GPortImpl$tlram_addrIN" transform="translate(0, 11)" class="sprotty-hidden hidden" style="display:block;height:0px;width:0px;"/><g id="sprotty_ArchitectureBlockImpl$kmac_staterd/AssignmentBlockImpl$addr_sel/GPortImpl$tlram_addrOUT" transform="translate(19.71875, 11)" class="sprotty-hidden hidden" style="display:block;height:0px;width:0px;"/></g><g id="sprotty_ArchitectureBlockImpl$kmac_staterd/AssignmentBlockImpl$tlram_rerror" transform="translate(98.1875, 300)" class="statement"><rect x="0" y="0" rx="10" ry="5" width="19.71875" height="22" class="sprotty-node" style="fill:rgb(245, 245, 245);stroke:rgb(112, 112, 112);"/><text class="clickable sprotty-label statementtype" id="sprotty_ArchitectureBlockImpl$kmac_staterd/AssignmentBlockImpl$tlram_rerror/labeltype" transform="translate(5, 5) translate(4.71875, 9)" style="cursor:default;font-size:8px;font-weight:700;perspective-origin:0.140625px 0px;fill:rgb(112, 112, 112);text-anchor:middle;">&lt;=</text><g id="sprotty_ArchitectureBlockImpl$kmac_staterd/AssignmentBlockImpl$tlram_rerror/GPortImpl$tlram_rerrorOUT" transform="translate(19.71875, 11)" class="sprotty-hidden hidden" style="display:block;height:0px;width:0px;"/></g><g id="sprotty_ArchitectureBlockImpl$kmac_staterd/AssignmentBlockImpl$tlram_gnt" transform="translate(481.65625, 171.60000000000002)" class="statement"><rect x="0" y="0" rx="10" ry="5" width="19.71875" height="30" class="sprotty-node" style="fill:rgb(245, 245, 245);stroke:rgb(112, 112, 112);"/><text class="clickable sprotty-label statementtype" id="sprotty_ArchitectureBlockImpl$kmac_staterd/AssignmentBlockImpl$tlram_gnt/labeltype" transform="translate(5, 9) translate(4.71875, 9)" style="cursor:default;font-size:8px;font-weight:700;perspective-origin:0.140625px 0px;fill:rgb(112, 112, 112);text-anchor:middle;">&lt;=</text><g id="sprotty_ArchitectureBlockImpl$kmac_staterd/AssignmentBlockImpl$tlram_gnt/GPortImpl$tlram_weIN" transform="translate(0, 20)" class="sprotty-hidden hidden" style="display:block;height:0px;width:0px;"/><g id="sprotty_ArchitectureBlockImpl$kmac_staterd/AssignmentBlockImpl$tlram_gnt/GPortImpl$tlram_reqIN" transform="translate(0, 10)" class="sprotty-hidden hidden" style="display:block;height:0px;width:0px;"/><g id="sprotty_ArchitectureBlockImpl$kmac_staterd/AssignmentBlockImpl$tlram_gnt/GPortImpl$tlram_weOUT" transform="translate(19.71875, 15)" class="sprotty-hidden hidden" style="display:block;height:0px;width:0px;"/></g><g id="sprotty_ArchitectureBlockImpl$kmac_staterd/InstantiationBlockImpl$u_tlul_adapter" transform="translate(157.90625, 77)" class="instantiation"><g class="sprotty-block" style="fill:rgb(255, 255, 255);stroke:rgb(48, 48, 48);stroke-dasharray:0px;"><rect x="0" y="0" rx="1" ry="1" width="283.75" height="252"/><text x="141.875" y="12" class="sprotty-block-name" style="cursor:pointer;font-weight:700;perspective-origin:141.875px 0px;fill:rgb(48, 48, 48);stroke:rgba(0, 0, 0, 0);dominant-baseline:middle;text-anchor:middle;">u_tlul_adapter : tlul_adapter_sram</text><line x1="0" y1="20" x2="283.75" y2="20"/></g><g id="sprotty_ArchitectureBlockImpl$kmac_staterd/InstantiationBlockImpl$u_tlul_adapter/BPortImpl$rerror_i" transform="translate(0, 234)" class="triangle"><path d="M 0,0 L 5,2.5 L 0,5 Z" transform="translate(-1.67, -2.5)" class="sprotty-port" style="fill:rgb(48, 48, 48);stroke:rgb(48, 48, 48);"/><text class="clickable sprotty-label port" id="sprotty_ArchitectureBlockImpl$kmac_staterd/InstantiationBlockImpl$u_tlul_adapter/BPortImpl$rerror_i/label" transform="translate(6, -9) translate(21.15625, 14)" style="cursor:default;font-size:12px;perspective-origin:0px 0px;fill:rgb(48, 48, 48);text-anchor:middle;">rerror_i</text></g><g id="sprotty_ArchitectureBlockImpl$kmac_staterd/InstantiationBlockImpl$u_tlul_adapter/BPortImpl$rvalid_i" transform="translate(0, 206)" class="triangle"><path d="M 0,0 L 5,2.5 L 0,5 Z" transform="translate(-1.67, -2.5)" class="sprotty-port" style="fill:rgb(48, 48, 48);stroke:rgb(48, 48, 48);"/><text class="clickable sprotty-label port" id="sprotty_ArchitectureBlockImpl$kmac_staterd/InstantiationBlockImpl$u_tlul_adapter/BPortImpl$rvalid_i/label" transform="translate(6, -9) translate(20.96875, 14)" style="cursor:default;font-size:12px;perspective-origin:0px 0px;fill:rgb(48, 48, 48);text-anchor:middle;">rvalid_i</text></g><g id="sprotty_ArchitectureBlockImpl$kmac_staterd/InstantiationBlockImpl$u_tlul_adapter/BPortImpl$rdata_i" transform="translate(0, 178)" class="triangle"><path d="M 0,0 L 5,2.5 L 0,5 Z" transform="translate(-1.67, -2.5)" class="sprotty-port" style="fill:rgb(48, 48, 48);stroke:rgb(48, 48, 48);"/><text class="clickable sprotty-label port" id="sprotty_ArchitectureBlockImpl$kmac_staterd/InstantiationBlockImpl$u_tlul_adapter/BPortImpl$rdata_i/label" transform="translate(6, -9) translate(19.796875, 14)" style="cursor:default;font-size:12px;perspective-origin:0px 0px;fill:rgb(48, 48, 48);text-anchor:middle;">rdata_i</text></g><g id="sprotty_ArchitectureBlockImpl$kmac_staterd/InstantiationBlockImpl$u_tlul_adapter/BPortImpl$gnt_i" transform="translate(0, 150)" class="triangle"><path d="M 0,0 L 5,2.5 L 0,5 Z" transform="translate(-1.67, -2.5)" class="sprotty-port" style="fill:rgb(48, 48, 48);stroke:rgb(48, 48, 48);"/><text class="clickable sprotty-label port" id="sprotty_ArchitectureBlockImpl$kmac_staterd/InstantiationBlockImpl$u_tlul_adapter/BPortImpl$gnt_i/label" transform="translate(6, -9) translate(14.3125, 14)" style="cursor:default;font-size:12px;perspective-origin:0px 0px;fill:rgb(48, 48, 48);text-anchor:middle;">gnt_i</text></g><g id="sprotty_ArchitectureBlockImpl$kmac_staterd/InstantiationBlockImpl$u_tlul_adapter/BPortImpl$en_ifetch_i" transform="translate(0, 122)" class="triangle"><path d="M 0,0 L 5,2.5 L 0,5 Z" transform="translate(-1.67, -2.5)" class="sprotty-port" style="fill:rgb(48, 48, 48);stroke:rgb(48, 48, 48);"/><text class="clickable sprotty-label port" id="sprotty_ArchitectureBlockImpl$kmac_staterd/InstantiationBlockImpl$u_tlul_adapter/BPortImpl$en_ifetch_i/label" transform="translate(6, -9) translate(31.015625, 14)" style="cursor:default;font-size:12px;perspective-origin:0px 0px;fill:rgb(48, 48, 48);text-anchor:middle;">en_ifetch_i</text></g><g id="sprotty_ArchitectureBlockImpl$kmac_staterd/InstantiationBlockImpl$u_tlul_adapter/BPortImpl$tl_i" transform="translate(0, 94)" class="triangle"><path d="M 0,0 L 5,2.5 L 0,5 Z" transform="translate(-1.67, -2.5)" class="sprotty-port" style="fill:rgb(48, 48, 48);stroke:rgb(48, 48, 48);"/><text class="clickable sprotty-label port" id="sprotty_ArchitectureBlockImpl$kmac_staterd/InstantiationBlockImpl$u_tlul_adapter/BPortImpl$tl_i/label" transform="translate(6, -9) translate(8.984375, 14)" style="cursor:default;font-size:12px;perspective-origin:0px 0px;fill:rgb(48, 48, 48);text-anchor:middle;">tl_i</text></g><g id="sprotty_ArchitectureBlockImpl$kmac_staterd/InstantiationBlockImpl$u_tlul_adapter/BPortImpl$rst_ni" transform="translate(0, 66)" class="triangle"><path d="M 0,0 L 5,2.5 L 0,5 Z" transform="translate(-1.67, -2.5)" class="sprotty-port" style="fill:rgb(48, 48, 48);stroke:rgb(48, 48, 48);"/><text class="clickable sprotty-label port" id="sprotty_ArchitectureBlockImpl$kmac_staterd/InstantiationBlockImpl$u_tlul_adapter/BPortImpl$rst_ni/label" transform="translate(6, -9) translate(15.921875, 14)" style="cursor:default;font-size:12px;perspective-origin:0px 0px;fill:rgb(48, 48, 48);text-anchor:middle;">rst_ni</text></g><g id="sprotty_ArchitectureBlockImpl$kmac_staterd/InstantiationBlockImpl$u_tlul_adapter/BPortImpl$clk_i" transform="translate(0, 38)" class="triangle"><path d="M 0,0 L 5,2.5 L 0,5 Z" transform="translate(-1.67, -2.5)" class="sprotty-port" style="fill:rgb(48, 48, 48);stroke:rgb(48, 48, 48);"/><text class="clickable sprotty-label port" id="sprotty_ArchitectureBlockImpl$kmac_staterd/InstantiationBlockImpl$u_tlul_adapter/BPortImpl$clk_i/label" transform="translate(6, -9) translate(13.09375, 14)" style="cursor:default;font-size:12px;perspective-origin:0px 0px;fill:rgb(48, 48, 48);text-anchor:middle;">clk_i</text></g><g id="sprotty_ArchitectureBlockImpl$kmac_staterd/InstantiationBlockImpl$u_tlul_adapter/BPortImpl$tl_o" transform="translate(283.75, 38)" class="triangle"><path d="M 0,0 L 5,2.5 L 0,5 Z" transform="translate(-1.67, -2.5)" class="sprotty-port" style="fill:rgb(48, 48, 48);stroke:rgb(48, 48, 48);"/><text class="clickable sprotty-label port" id="sprotty_ArchitectureBlockImpl$kmac_staterd/InstantiationBlockImpl$u_tlul_adapter/BPortImpl$tl_o/label" transform="translate(-27.9375, -9) translate(10.96875, 14)" style="cursor:default;font-size:12px;perspective-origin:0px 0px;fill:rgb(48, 48, 48);text-anchor:middle;">tl_o</text></g><g id="sprotty_ArchitectureBlockImpl$kmac_staterd/InstantiationBlockImpl$u_tlul_adapter/BPortImpl$req_o" transform="translate(283.75, 77.2)" class="triangle"><path d="M 0,0 L 5,2.5 L 0,5 Z" transform="translate(-1.67, -2.5)" class="sprotty-port" style="fill:rgb(48, 48, 48);stroke:rgb(48, 48, 48);"/><text class="clickable sprotty-label port" id="sprotty_ArchitectureBlockImpl$kmac_staterd/InstantiationBlockImpl$u_tlul_adapter/BPortImpl$req_o/label" transform="translate(-38.59375, -9) translate(16.296875, 14)" style="cursor:default;font-size:12px;perspective-origin:0px 0px;fill:rgb(48, 48, 48);text-anchor:middle;">req_o</text></g><g id="sprotty_ArchitectureBlockImpl$kmac_staterd/InstantiationBlockImpl$u_tlul_adapter/BPortImpl$we_o" transform="translate(283.75, 116.4)" class="triangle"><path d="M 0,0 L 5,2.5 L 0,5 Z" transform="translate(-1.67, -2.5)" class="sprotty-port" style="fill:rgb(48, 48, 48);stroke:rgb(48, 48, 48);"/><text class="clickable sprotty-label port" id="sprotty_ArchitectureBlockImpl$kmac_staterd/InstantiationBlockImpl$u_tlul_adapter/BPortImpl$we_o/label" transform="translate(-36.21875, -9) translate(15.109375, 14)" style="cursor:default;font-size:12px;perspective-origin:0px 0px;fill:rgb(48, 48, 48);text-anchor:middle;">we_o</text></g><g id="sprotty_ArchitectureBlockImpl$kmac_staterd/InstantiationBlockImpl$u_tlul_adapter/BPortImpl$addr_o" transform="translate(283.75, 155.60000000000002)" class="triangle"><path d="M 0,0 L 5,2.5 L 0,5 Z" transform="translate(-1.67, -2.5)" class="sprotty-port" style="fill:rgb(48, 48, 48);stroke:rgb(48, 48, 48);"/><text class="clickable sprotty-label port" id="sprotty_ArchitectureBlockImpl$kmac_staterd/InstantiationBlockImpl$u_tlul_adapter/BPortImpl$addr_o/label" transform="translate(-46.3125, -9) translate(20.15625, 14)" style="cursor:default;font-size:12px;perspective-origin:0px 0px;fill:rgb(48, 48, 48);text-anchor:middle;">addr_o</text></g><g id="sprotty_ArchitectureBlockImpl$kmac_staterd/InstantiationBlockImpl$u_tlul_adapter/BPortImpl$wdata_o" transform="translate(283.75, 194.8)" class="triangle"><path d="M 0,0 L 5,2.5 L 0,5 Z" transform="translate(-1.67, -2.5)" class="sprotty-port" style="fill:rgb(48, 48, 48);stroke:rgb(48, 48, 48);"/><text class="clickable sprotty-label port" id="sprotty_ArchitectureBlockImpl$kmac_staterd/InstantiationBlockImpl$u_tlul_adapter/BPortImpl$wdata_o/label" transform="translate(-54.59375, -9) translate(24.296875, 14)" style="cursor:default;font-size:12px;perspective-origin:0px 0px;fill:rgb(48, 48, 48);text-anchor:middle;">wdata_o</text></g><g id="sprotty_ArchitectureBlockImpl$kmac_staterd/InstantiationBlockImpl$u_tlul_adapter/BPortImpl$wmask_o" transform="translate(283.75, 234)" class="triangle"><path d="M 0,0 L 5,2.5 L 0,5 Z" transform="translate(-1.67, -2.5)" class="sprotty-port" style="fill:rgb(48, 48, 48);stroke:rgb(48, 48, 48);"/><text class="clickable sprotty-label port" id="sprotty_ArchitectureBlockImpl$kmac_staterd/InstantiationBlockImpl$u_tlul_adapter/BPortImpl$wmask_o/label" transform="translate(-59.75, -9) translate(26.875, 14)" style="cursor:default;font-size:12px;perspective-origin:0px 0px;fill:rgb(48, 48, 48);text-anchor:middle;">wmask_o</text></g></g><g id="sprotty_ArchitectureBlockImpl$kmac_staterd/BPortImpl$endian_swap_i" transform="translate(0, 551)" class="triangle"><path d="M 0,0 L 5,2.5 L 0,5 Z" transform="translate(-1.67, -2.5)" class="sprotty-port" style="fill:rgb(48, 48, 48);stroke:rgb(48, 48, 48);"/><text class="clickable sprotty-label port" id="sprotty_ArchitectureBlockImpl$kmac_staterd/BPortImpl$endian_swap_i/label" transform="translate(6, 6) translate(42.4375, 14)" style="cursor:default;font-size:12px;perspective-origin:0px 0px;fill:rgb(48, 48, 48);text-anchor:middle;">endian_swap_i</text></g><g id="sprotty_ArchitectureBlockImpl$kmac_staterd/BPortImpl$state_i" transform="translate(0, 481)" class="triangle"><path d="M 0,0 L 5,2.5 L 0,5 Z" transform="translate(-1.67, -2.5)" class="sprotty-port" style="fill:rgb(48, 48, 48);stroke:rgb(48, 48, 48);"/><text class="clickable sprotty-label port" id="sprotty_ArchitectureBlockImpl$kmac_staterd/BPortImpl$state_i/label" transform="translate(6, 6) translate(18.59375, 14)" style="cursor:default;font-size:12px;perspective-origin:0px 0px;fill:rgb(48, 48, 48);text-anchor:middle;">state_i</text></g><g id="sprotty_ArchitectureBlockImpl$kmac_staterd/BPortImpl$tl_i" transform="translate(0, 447)" class="triangle"><path d="M 0,0 L 5,2.5 L 0,5 Z" transform="translate(-1.67, -2.5)" class="sprotty-port" style="fill:rgb(48, 48, 48);stroke:rgb(48, 48, 48);"/><text class="clickable sprotty-label port" id="sprotty_ArchitectureBlockImpl$kmac_staterd/BPortImpl$tl_i/label" transform="translate(6, 6) translate(8.984375, 14)" style="cursor:default;font-size:12px;perspective-origin:0px 0px;fill:rgb(48, 48, 48);text-anchor:middle;">tl_i</text></g><g id="sprotty_ArchitectureBlockImpl$kmac_staterd/BPortImpl$rst_ni" transform="translate(0, 413)" class="triangle"><path d="M 0,0 L 5,2.5 L 0,5 Z" transform="translate(-1.67, -2.5)" class="sprotty-port" style="fill:rgb(48, 48, 48);stroke:rgb(48, 48, 48);"/><text class="clickable sprotty-label port" id="sprotty_ArchitectureBlockImpl$kmac_staterd/BPortImpl$rst_ni/label" transform="translate(6, 6) translate(15.921875, 14)" style="cursor:default;font-size:12px;perspective-origin:0px 0px;fill:rgb(48, 48, 48);text-anchor:middle;">rst_ni</text></g><g id="sprotty_ArchitectureBlockImpl$kmac_staterd/BPortImpl$clk_i" transform="translate(0, 340)" class="triangle"><path d="M 0,0 L 5,2.5 L 0,5 Z" transform="translate(-1.67, -2.5)" class="sprotty-port" style="fill:rgb(48, 48, 48);stroke:rgb(48, 48, 48);"/><text class="clickable sprotty-label port" id="sprotty_ArchitectureBlockImpl$kmac_staterd/BPortImpl$clk_i/label" transform="translate(6, 6) translate(13.09375, 14)" style="cursor:default;font-size:12px;perspective-origin:0px 0px;fill:rgb(48, 48, 48);text-anchor:middle;">clk_i</text></g><g id="sprotty_ArchitectureBlockImpl$kmac_staterd/BPortImpl$tl_o" transform="translate(869.71875, 115)" class="triangle"><path d="M 0,0 L 5,2.5 L 0,5 Z" transform="translate(-1.67, -2.5)" class="sprotty-port" style="fill:rgb(48, 48, 48);stroke:rgb(48, 48, 48);"/><text class="clickable sprotty-label port" id="sprotty_ArchitectureBlockImpl$kmac_staterd/BPortImpl$tl_o/label" transform="translate(-27.9375, 6) translate(10.96875, 14)" style="cursor:default;font-size:12px;perspective-origin:0px 0px;fill:rgb(48, 48, 48);text-anchor:middle;">tl_o</text></g></g></g></svg>