<svg xmlns="http://www.w3.org/2000/svg" id="sprotty_work.csrng" class="sprotty-graph sprotty-block-diagram blockdiagram" style="font-family:&quot;Noto Sans&quot;, Helvetica, Arial, sans-serif;perspective-origin:0px 0px;transform-origin:0px 0px;" version="1.1" viewBox="7 7 1295.296875 636" width="1295.296875" height="636"><g transform="scale(1) translate(0,0)"><g id="sprotty_ArchitectureBlockImpl$csrng" transform="translate(12, 12)" class="architecture"><g class="sprotty-block" style="fill:rgb(255, 255, 255);stroke:rgb(48, 48, 48);stroke-dasharray:0px;"><rect x="0" y="0" rx="1" ry="1" width="1285.296875" height="626"/><text x="642.6484375" y="12" class="sprotty-block-name" style="cursor:pointer;font-weight:700;perspective-origin:642.875px 0px;fill:rgb(48, 48, 48);stroke:rgba(0, 0, 0, 0);dominant-baseline:middle;text-anchor:middle;">csrng</text><line x1="0" y1="20" x2="1285.296875" y2="20"/></g><g id="sprotty_ArchitectureBlockImpl$csrng/InstantiationBlockImpl$u_reg/BPortImpl$tl_o_to_ArchitectureBlockImpl$csrng/BPortImpl$tl_o" class="sprotty-edge thick edge" style="fill:none;stroke:rgb(112, 112, 112);stroke-linejoin:round;stroke-width:3px;"><g><path d="M 385 106 L 393 106 C 394 106 395 105 395 104 L 395 38 C 395 37 396 36 397 36 L 1285.296875 36 "/><path d="M 385 106 L 393 106 C 394 106 395 105 395 104 L 395 38 C 395 37 396 36 397 36 L 1285.296875 36 " class="clickable"/></g></g><g id="sprotty_ArchitectureBlockImpl$csrng/InstantiationBlockImpl$u_csrng_core/BPortImpl$entropy_src_hw_if_o_to_ArchitectureBlockImpl$csrng/BPortImpl$entropy_src_hw_if_o" class="sprotty-edge thick edge" style="fill:none;stroke:rgb(112, 112, 112);stroke-linejoin:round;stroke-width:3px;"><g><path d="M 705.6875 322 L 723.6875 322 C 724.6875 322 725.6875 321 725.6875 320 L 725.6875 188 C 725.6875 187 726.6875 186 727.6875 186 L 1285.296875 186 "/><path d="M 705.6875 322 L 723.6875 322 C 724.6875 322 725.6875 321 725.6875 320 L 725.6875 188 C 725.6875 187 726.6875 186 727.6875 186 L 1285.296875 186 " class="clickable"/></g></g><g id="sprotty_ArchitectureBlockImpl$csrng/InstantiationBlockImpl$u_csrng_core/BPortImpl$csrng_cmd_o_to_ArchitectureBlockImpl$csrng/BPortImpl$csrng_cmd_o" class="sprotty-edge thick edge" style="fill:none;stroke:rgb(112, 112, 112);stroke-linejoin:round;stroke-width:3px;"><g><path d="M 705.6875 350 L 733.6875 350 C 734.6875 350 735.6875 349 735.6875 348 L 735.6875 222 C 735.6875 221 736.6875 220 737.6875 220 L 1285.296875 220 "/><path d="M 705.6875 350 L 733.6875 350 C 734.6875 350 735.6875 349 735.6875 348 L 735.6875 222 C 735.6875 221 736.6875 220 737.6875 220 L 1285.296875 220 " class="clickable"/></g></g><g id="sprotty_ArchitectureBlockImpl$csrng/InstantiationBlockImpl$u_prim_alert_sender/BPortImpl$alert_tx_o_to_ArchitectureBlockImpl$csrng/BPortImpl$alert_tx_o" class="sprotty-edge thick edge" style="fill:none;stroke:rgb(112, 112, 112);stroke-linejoin:round;stroke-width:3px;"><g><path d="M 1119.953125 382 L 1285.296875 382 "/><path d="M 1119.953125 382 L 1285.296875 382 " class="clickable"/></g></g><g id="sprotty_ArchitectureBlockImpl$csrng/InstantiationBlockImpl$u_csrng_core/BPortImpl$intr_cs_cmd_req_done_o_to_ArchitectureBlockImpl$csrng/BPortImpl$intr_cs_cmd_req_done_o" class="sprotty-edge edge" style="fill:none;stroke:rgb(112, 112, 112);stroke-linejoin:round;"><g><path d="M 705.6875 434 L 773.6875 434 C 774.6875 434 775.6875 433 775.6875 432 L 775.6875 418 C 775.6875 417 776.6875 416 777.6875 416 L 1285.296875 416 "/><path d="M 705.6875 434 L 773.6875 434 C 774.6875 434 775.6875 433 775.6875 432 L 775.6875 418 C 775.6875 417 776.6875 416 777.6875 416 L 1285.296875 416 " class="clickable"/></g></g><g id="sprotty_ArchitectureBlockImpl$csrng/InstantiationBlockImpl$u_csrng_core/BPortImpl$intr_cs_entropy_req_o_to_ArchitectureBlockImpl$csrng/BPortImpl$intr_cs_entropy_req_o" class="sprotty-edge edge" style="fill:none;stroke:rgb(112, 112, 112);stroke-linejoin:round;"><g><path d="M 705.6875 462 L 773.6875 462 C 774.6875 462 775.6875 461 775.6875 460 L 775.6875 452 C 775.6875 451 776.6875 450 777.6875 450 L 1285.296875 450 "/><path d="M 705.6875 462 L 773.6875 462 C 774.6875 462 775.6875 461 775.6875 460 L 775.6875 452 C 775.6875 451 776.6875 450 777.6875 450 L 1285.296875 450 " class="clickable"/></g></g><g id="sprotty_ArchitectureBlockImpl$csrng/InstantiationBlockImpl$u_csrng_core/BPortImpl$intr_cs_hw_inst_exc_o_to_ArchitectureBlockImpl$csrng/BPortImpl$intr_cs_hw_inst_exc_o" class="sprotty-edge edge" style="fill:none;stroke:rgb(112, 112, 112);stroke-linejoin:round;"><g><path d="M 705.6875 490 L 773.6875 490 C 774.6875 490 775.6875 489 775.6875 488 L 775.6875 486 C 775.6875 485 776.6875 484 777.6875 484 L 1285.296875 484 "/><path d="M 705.6875 490 L 773.6875 490 C 774.6875 490 775.6875 489 775.6875 488 L 775.6875 486 C 775.6875 485 776.6875 484 777.6875 484 L 1285.296875 484 " class="clickable"/></g></g><g id="sprotty_ArchitectureBlockImpl$csrng/InstantiationBlockImpl$u_csrng_core/BPortImpl$intr_cs_fatal_err_o_to_ArchitectureBlockImpl$csrng/BPortImpl$intr_cs_fatal_err_o" class="sprotty-edge edge" style="fill:none;stroke:rgb(112, 112, 112);stroke-linejoin:round;"><g><path d="M 705.6875 518 L 1285.296875 518 "/><path d="M 705.6875 518 L 1285.296875 518 " class="clickable"/></g></g><g id="sprotty_ArchitectureBlockImpl$csrng/BPortImpl$clk_i_to_ArchitectureBlockImpl$csrng/InstantiationBlockImpl$u_reg/BPortImpl$clk_i" class="sprotty-edge edge" style="fill:none;stroke:rgb(112, 112, 112);stroke-linejoin:round;"><g><path d="M 0 294 L 164.375 294 C 165.375 294 166.375 293 166.375 292 L 166.375 108 C 166.375 107 167.375 106 168.375 106 L 206.375 106 "/><path d="M 0 294 L 164.375 294 C 165.375 294 166.375 293 166.375 292 L 166.375 108 C 166.375 107 167.375 106 168.375 106 L 206.375 106 " class="clickable"/></g><circle r="2" id="sprotty_ArchitectureBlockImpl$csrng/BPortImpl$clk_i_to_ArchitectureBlockImpl$csrng/InstantiationBlockImpl$u_reg/BPortImpl$clk_i/junction0" transform="translate(166.375, 294)" class="sprotty-junction junction" style="fill:rgb(112, 112, 112);stroke:none;"/><circle r="2" id="sprotty_ArchitectureBlockImpl$csrng/BPortImpl$clk_i_to_ArchitectureBlockImpl$csrng/InstantiationBlockImpl$u_reg/BPortImpl$clk_i/junction1" transform="translate(166.375, 106)" class="sprotty-junction junction" style="fill:rgb(112, 112, 112);stroke:none;"/></g><g id="sprotty_ArchitectureBlockImpl$csrng/BPortImpl$rst_ni_to_ArchitectureBlockImpl$csrng/InstantiationBlockImpl$u_reg/BPortImpl$rst_ni" class="sprotty-edge edge" style="fill:none;stroke:rgb(112, 112, 112);stroke-linejoin:round;"><g><path d="M 0 331.33333333333337 L 174.375 331.33333333333337 C 175.375 331.33333333333337 176.375 330.33333333333337 176.375 329.33333333333337 L 176.375 136 C 176.375 135 177.375 134 178.375 134 L 206.375 134 "/><path d="M 0 331.33333333333337 L 174.375 331.33333333333337 C 175.375 331.33333333333337 176.375 330.33333333333337 176.375 329.33333333333337 L 176.375 136 C 176.375 135 177.375 134 178.375 134 L 206.375 134 " class="clickable"/></g><circle r="2" id="sprotty_ArchitectureBlockImpl$csrng/BPortImpl$rst_ni_to_ArchitectureBlockImpl$csrng/InstantiationBlockImpl$u_reg/BPortImpl$rst_ni/junction0" transform="translate(176.375, 331.33333333333337)" class="sprotty-junction junction" style="fill:rgb(112, 112, 112);stroke:none;"/><circle r="2" id="sprotty_ArchitectureBlockImpl$csrng/BPortImpl$rst_ni_to_ArchitectureBlockImpl$csrng/InstantiationBlockImpl$u_reg/BPortImpl$rst_ni/junction1" transform="translate(176.375, 134)" class="sprotty-junction junction" style="fill:rgb(112, 112, 112);stroke:none;"/></g><g id="sprotty_ArchitectureBlockImpl$csrng/BPortImpl$tl_i_to_ArchitectureBlockImpl$csrng/InstantiationBlockImpl$u_reg/BPortImpl$tl_i" class="sprotty-edge thick edge" style="fill:none;stroke:rgb(112, 112, 112);stroke-linejoin:round;stroke-width:3px;"><g><path d="M 0 372 L 184.375 372 C 185.375 372 186.375 371 186.375 370 L 186.375 164 C 186.375 163 187.375 162 188.375 162 L 206.375 162 "/><path d="M 0 372 L 184.375 372 C 185.375 372 186.375 371 186.375 370 L 186.375 164 C 186.375 163 187.375 162 188.375 162 L 206.375 162 " class="clickable"/></g></g><g id="sprotty_ArchitectureBlockImpl$csrng/BPortImpl$clk_i_to_ArchitectureBlockImpl$csrng/InstantiationBlockImpl$u_csrng_core/BPortImpl$clk_i" class="sprotty-edge edge" style="fill:none;stroke:rgb(112, 112, 112);stroke-linejoin:round;"><g><path d="M 0 294 L 405 294 "/><path d="M 0 294 L 405 294 " class="clickable"/></g></g><g id="sprotty_ArchitectureBlockImpl$csrng/BPortImpl$rst_ni_to_ArchitectureBlockImpl$csrng/InstantiationBlockImpl$u_csrng_core/BPortImpl$rst_ni" class="sprotty-edge edge" style="fill:none;stroke:rgb(112, 112, 112);stroke-linejoin:round;"><g><path d="M 0 331.33333333333337 L 405 331.33333333333337 "/><path d="M 0 331.33333333333337 L 405 331.33333333333337 " class="clickable"/></g></g><g id="sprotty_ArchitectureBlockImpl$csrng/BPortImpl$efuse_sw_app_enable_i_to_ArchitectureBlockImpl$csrng/InstantiationBlockImpl$u_csrng_core/BPortImpl$efuse_sw_app_enable_i" class="sprotty-edge edge" style="fill:none;stroke:rgb(112, 112, 112);stroke-linejoin:round;"><g><path d="M 0 406 L 405 406 "/><path d="M 0 406 L 405 406 " class="clickable"/></g></g><g id="sprotty_ArchitectureBlockImpl$csrng/BPortImpl$lc_hw_debug_en_i_to_ArchitectureBlockImpl$csrng/InstantiationBlockImpl$u_csrng_core/BPortImpl$lc_hw_debug_en_i" class="sprotty-edge thick edge" style="fill:none;stroke:rgb(112, 112, 112);stroke-linejoin:round;stroke-width:3px;"><g><path d="M 0 443.33333333333337 L 405 443.33333333333337 "/><path d="M 0 443.33333333333337 L 405 443.33333333333337 " class="clickable"/></g></g><g id="sprotty_ArchitectureBlockImpl$csrng/BPortImpl$entropy_src_hw_if_i_to_ArchitectureBlockImpl$csrng/InstantiationBlockImpl$u_csrng_core/BPortImpl$entropy_src_hw_if_i" class="sprotty-edge thick edge" style="fill:none;stroke:rgb(112, 112, 112);stroke-linejoin:round;stroke-width:3px;"><g><path d="M 0 479 L 395 479 L 395 480.66666666666674 L 405 480.66666666666674 "/><path d="M 0 479 L 395 479 L 395 480.66666666666674 L 405 480.66666666666674 " class="clickable"/></g></g><g id="sprotty_ArchitectureBlockImpl$csrng/BPortImpl$csrng_cmd_i_to_ArchitectureBlockImpl$csrng/InstantiationBlockImpl$u_csrng_core/BPortImpl$csrng_cmd_i" class="sprotty-edge thick edge" style="fill:none;stroke:rgb(112, 112, 112);stroke-linejoin:round;stroke-width:3px;"><g><path d="M 0 513 L 393 513 C 394 513 395 514 395 515 L 395 516 C 395 517 396 518 397 518 L 405 518 "/><path d="M 0 513 L 393 513 C 394 513 395 514 395 515 L 395 516 C 395 517 396 518 397 518 L 405 518 " class="clickable"/></g></g><g id="sprotty_ArchitectureBlockImpl$csrng/BPortImpl$clk_i_to_ArchitectureBlockImpl$csrng/InstantiationBlockImpl$u_prim_alert_sender/BPortImpl$clk_i" class="sprotty-edge edge" style="fill:none;stroke:rgb(112, 112, 112);stroke-linejoin:round;"><g><path d="M 0 294 L 164.375 294 C 165.375 294 166.375 293 166.375 292 L 166.375 48 C 166.375 47 167.375 46 168.375 46 L 753.6875 46 C 754.6875 46 755.6875 47 755.6875 48 L 755.6875 268 C 755.6875 269 756.6875 270 757.6875 270 L 785.6875 270 "/><path d="M 0 294 L 164.375 294 C 165.375 294 166.375 293 166.375 292 L 166.375 48 C 166.375 47 167.375 46 168.375 46 L 753.6875 46 C 754.6875 46 755.6875 47 755.6875 48 L 755.6875 268 C 755.6875 269 756.6875 270 757.6875 270 L 785.6875 270 " class="clickable"/></g></g><g id="sprotty_ArchitectureBlockImpl$csrng/BPortImpl$rst_ni_to_ArchitectureBlockImpl$csrng/InstantiationBlockImpl$u_prim_alert_sender/BPortImpl$rst_ni" class="sprotty-edge edge" style="fill:none;stroke:rgb(112, 112, 112);stroke-linejoin:round;"><g><path d="M 0 331.33333333333337 L 174.375 331.33333333333337 C 175.375 331.33333333333337 176.375 330.33333333333337 176.375 329.33333333333337 L 176.375 58 C 176.375 57 177.375 56 178.375 56 L 743.6875 56 C 744.6875 56 745.6875 57 745.6875 58 L 745.6875 296 C 745.6875 297 746.6875 298 747.6875 298 L 785.6875 298 "/><path d="M 0 331.33333333333337 L 174.375 331.33333333333337 C 175.375 331.33333333333337 176.375 330.33333333333337 176.375 329.33333333333337 L 176.375 58 C 176.375 57 177.375 56 178.375 56 L 743.6875 56 C 744.6875 56 745.6875 57 745.6875 58 L 745.6875 296 C 745.6875 297 746.6875 298 747.6875 298 L 785.6875 298 " class="clickable"/></g></g><g id="sprotty_ArchitectureBlockImpl$csrng/BPortImpl$alert_rx_i_to_ArchitectureBlockImpl$csrng/InstantiationBlockImpl$u_prim_alert_sender/BPortImpl$alert_rx_i" class="sprotty-edge thick edge" style="fill:none;stroke:rgb(112, 112, 112);stroke-linejoin:round;stroke-width:3px;"><g><path d="M 0 547 L 763.6875 547 C 764.6875 547 765.6875 546 765.6875 545 L 765.6875 384 C 765.6875 383 766.6875 382 767.6875 382 L 785.6875 382 "/><path d="M 0 547 L 763.6875 547 C 764.6875 547 765.6875 546 765.6875 545 L 765.6875 384 C 765.6875 383 766.6875 382 767.6875 382 L 785.6875 382 " class="clickable"/></g></g><g id="sprotty_ArchitectureBlockImpl$csrng/InstantiationBlockImpl$u_reg/BPortImpl$reg2hw_to_ArchitectureBlockImpl$csrng/InstantiationBlockImpl$u_csrng_core/BPortImpl$reg2hw" class="sprotty-edge thick edge" style="fill:none;stroke:rgb(112, 112, 112);stroke-linejoin:round;stroke-width:3px;"><g><path d="M 385 218 L 393 218 C 394 218 395 219 395 220 L 395 366.6666666666667 C 395 367.6666666666667 396 368.6666666666667 397 368.6666666666667 L 405 368.6666666666667 "/><path d="M 385 218 L 393 218 C 394 218 395 219 395 220 L 395 366.6666666666667 C 395 367.6666666666667 396 368.6666666666667 397 368.6666666666667 L 405 368.6666666666667 " class="clickable"/></g></g><g id="sprotty_ArchitectureBlockImpl$csrng/InstantiationBlockImpl$u_csrng_core/BPortImpl$hw2reg_to_ArchitectureBlockImpl$csrng/InstantiationBlockImpl$u_reg/BPortImpl$hw2reg" class="sprotty-edge thick edge" style="fill:none;stroke:rgb(112, 112, 112);stroke-linejoin:round;stroke-width:3px;"><g><path d="M 705.6875 294 L 713.6875 294 C 714.6875 294 715.6875 293 715.6875 292 L 715.6875 248 C 715.6875 247 714.6875 246 713.6875 246 L 198.375 246 C 197.375 246 196.375 245 196.375 244 L 196.375 192 C 196.375 191 197.375 190 198.375 190 L 206.375 190 "/><path d="M 705.6875 294 L 713.6875 294 C 714.6875 294 715.6875 293 715.6875 292 L 715.6875 248 C 715.6875 247 714.6875 246 713.6875 246 L 198.375 246 C 197.375 246 196.375 245 196.375 244 L 196.375 192 C 196.375 191 197.375 190 198.375 190 L 206.375 190 " class="clickable"/></g></g><g id="sprotty_ArchitectureBlockImpl$csrng/InstantiationBlockImpl$u_csrng_core/BPortImpl$fatal_alert_o_to_ArchitectureBlockImpl$csrng/InstantiationBlockImpl$u_prim_alert_sender/BPortImpl$alert_req_i" class="sprotty-edge edge" style="fill:none;stroke:rgb(112, 112, 112);stroke-linejoin:round;"><g><path d="M 705.6875 406 L 753.6875 406 C 754.6875 406 755.6875 405 755.6875 404 L 755.6875 356 C 755.6875 355 756.6875 354 757.6875 354 L 785.6875 354 "/><path d="M 705.6875 406 L 753.6875 406 C 754.6875 406 755.6875 405 755.6875 404 L 755.6875 356 C 755.6875 355 756.6875 354 757.6875 354 L 785.6875 354 " class="clickable"/></g></g><g id="sprotty_ArchitectureBlockImpl$csrng/InstantiationBlockImpl$u_csrng_core/BPortImpl$alert_test_o_to_ArchitectureBlockImpl$csrng/InstantiationBlockImpl$u_prim_alert_sender/BPortImpl$alert_test_i" class="sprotty-edge edge" style="fill:none;stroke:rgb(112, 112, 112);stroke-linejoin:round;"><g><path d="M 705.6875 378 L 743.6875 378 C 744.6875 378 745.6875 377 745.6875 376 L 745.6875 328 C 745.6875 327 746.6875 326 747.6875 326 L 785.6875 326 "/><path d="M 705.6875 378 L 743.6875 378 C 744.6875 378 745.6875 377 745.6875 376 L 745.6875 328 C 745.6875 327 746.6875 326 747.6875 326 L 785.6875 326 " class="clickable"/></g></g><g id="sprotty_ArchitectureBlockImpl$csrng/GenerateStatementBlockImpl$gen_app_if_asserts" transform="translate(15, 591)" class="generate"><g class="sprotty-block sprotty-block-generate" style="fill:rgb(255, 255, 255);stroke:rgb(48, 48, 48);stroke-dasharray:0px;"><rect x="0" y="0" rx="1" ry="1" width="161.015625" height="20" style="stroke-dasharray:3px, 1px;"/><text x="80.5078125" y="12" class="sprotty-block-name" style="cursor:pointer;font-weight:700;perspective-origin:80.5469px 0px;fill:rgb(48, 48, 48);stroke:rgba(0, 0, 0, 0);dominant-baseline:middle;text-anchor:middle;">gen_app_if_asserts</text>undefined</g></g><g id="sprotty_ArchitectureBlockImpl$csrng/InstantiationBlockImpl$u_prim_alert_sender" transform="translate(785.6875, 232)" class="instantiation"><g class="sprotty-block" style="fill:rgb(255, 255, 255);stroke:rgb(48, 48, 48);stroke-dasharray:0px;"><rect x="0" y="0" rx="1" ry="1" width="334.265625" height="168"/><text x="167.1328125" y="12" class="sprotty-block-name" style="cursor:pointer;font-weight:700;perspective-origin:167.141px 0px;fill:rgb(48, 48, 48);stroke:rgba(0, 0, 0, 0);dominant-baseline:middle;text-anchor:middle;">u_prim_alert_sender : prim_alert_sender</text><line x1="0" y1="20" x2="334.265625" y2="20"/></g><g id="sprotty_ArchitectureBlockImpl$csrng/InstantiationBlockImpl$u_prim_alert_sender/BPortImpl$alert_rx_i" transform="translate(0, 150)" class="triangle"><path d="M 0,0 L 5,2.5 L 0,5 Z" transform="translate(-1.67, -2.5)" class="sprotty-port" style="fill:rgb(48, 48, 48);stroke:rgb(48, 48, 48);"/><text class="clickable sprotty-label port" id="sprotty_ArchitectureBlockImpl$csrng/InstantiationBlockImpl$u_prim_alert_sender/BPortImpl$alert_rx_i/label" transform="translate(6, -9) translate(26.6875, 14)" style="cursor:default;font-size:12px;perspective-origin:0px 0px;fill:rgb(48, 48, 48);text-anchor:middle;">alert_rx_i</text></g><g id="sprotty_ArchitectureBlockImpl$csrng/InstantiationBlockImpl$u_prim_alert_sender/BPortImpl$alert_req_i" transform="translate(0, 122)" class="triangle"><path d="M 0,0 L 5,2.5 L 0,5 Z" transform="translate(-1.67, -2.5)" class="sprotty-port" style="fill:rgb(48, 48, 48);stroke:rgb(48, 48, 48);"/><text class="clickable sprotty-label port" id="sprotty_ArchitectureBlockImpl$csrng/InstantiationBlockImpl$u_prim_alert_sender/BPortImpl$alert_req_i/label" transform="translate(6, -9) translate(30.6875, 14)" style="cursor:default;font-size:12px;perspective-origin:0px 0px;fill:rgb(48, 48, 48);text-anchor:middle;">alert_req_i</text></g><g id="sprotty_ArchitectureBlockImpl$csrng/InstantiationBlockImpl$u_prim_alert_sender/BPortImpl$alert_test_i" transform="translate(0, 94)" class="triangle"><path d="M 0,0 L 5,2.5 L 0,5 Z" transform="translate(-1.67, -2.5)" class="sprotty-port" style="fill:rgb(48, 48, 48);stroke:rgb(48, 48, 48);"/><text class="clickable sprotty-label port" id="sprotty_ArchitectureBlockImpl$csrng/InstantiationBlockImpl$u_prim_alert_sender/BPortImpl$alert_test_i/label" transform="translate(6, -9) translate(31.8125, 14)" style="cursor:default;font-size:12px;perspective-origin:0px 0px;fill:rgb(48, 48, 48);text-anchor:middle;">alert_test_i</text></g><g id="sprotty_ArchitectureBlockImpl$csrng/InstantiationBlockImpl$u_prim_alert_sender/BPortImpl$rst_ni" transform="translate(0, 66)" class="triangle"><path d="M 0,0 L 5,2.5 L 0,5 Z" transform="translate(-1.67, -2.5)" class="sprotty-port" style="fill:rgb(48, 48, 48);stroke:rgb(48, 48, 48);"/><text class="clickable sprotty-label port" id="sprotty_ArchitectureBlockImpl$csrng/InstantiationBlockImpl$u_prim_alert_sender/BPortImpl$rst_ni/label" transform="translate(6, -9) translate(15.921875, 14)" style="cursor:default;font-size:12px;perspective-origin:0px 0px;fill:rgb(48, 48, 48);text-anchor:middle;">rst_ni</text></g><g id="sprotty_ArchitectureBlockImpl$csrng/InstantiationBlockImpl$u_prim_alert_sender/BPortImpl$clk_i" transform="translate(0, 38)" class="triangle"><path d="M 0,0 L 5,2.5 L 0,5 Z" transform="translate(-1.67, -2.5)" class="sprotty-port" style="fill:rgb(48, 48, 48);stroke:rgb(48, 48, 48);"/><text class="clickable sprotty-label port" id="sprotty_ArchitectureBlockImpl$csrng/InstantiationBlockImpl$u_prim_alert_sender/BPortImpl$clk_i/label" transform="translate(6, -9) translate(13.09375, 14)" style="cursor:default;font-size:12px;perspective-origin:0px 0px;fill:rgb(48, 48, 48);text-anchor:middle;">clk_i</text></g><g id="sprotty_ArchitectureBlockImpl$csrng/InstantiationBlockImpl$u_prim_alert_sender/BPortImpl$alert_ack_o" transform="translate(334.265625, 38)" class="triangle"><path d="M 0,0 L 5,2.5 L 0,5 Z" transform="translate(-1.67, -2.5)" class="sprotty-port" style="fill:rgb(48, 48, 48);stroke:rgb(48, 48, 48);"/><text class="clickable sprotty-label port" id="sprotty_ArchitectureBlockImpl$csrng/InstantiationBlockImpl$u_prim_alert_sender/BPortImpl$alert_ack_o/label" transform="translate(-72.21875, -9) translate(33.109375, 14)" style="cursor:default;font-size:12px;perspective-origin:0px 0px;fill:rgb(48, 48, 48);text-anchor:middle;">alert_ack_o</text></g><g id="sprotty_ArchitectureBlockImpl$csrng/InstantiationBlockImpl$u_prim_alert_sender/BPortImpl$alert_state_o" transform="translate(334.265625, 94)" class="triangle"><path d="M 0,0 L 5,2.5 L 0,5 Z" transform="translate(-1.67, -2.5)" class="sprotty-port" style="fill:rgb(48, 48, 48);stroke:rgb(48, 48, 48);"/><text class="clickable sprotty-label port" id="sprotty_ArchitectureBlockImpl$csrng/InstantiationBlockImpl$u_prim_alert_sender/BPortImpl$alert_state_o/label" transform="translate(-79.875, -9) translate(36.9375, 14)" style="cursor:default;font-size:12px;perspective-origin:0px 0px;fill:rgb(48, 48, 48);text-anchor:middle;">alert_state_o</text></g><g id="sprotty_ArchitectureBlockImpl$csrng/InstantiationBlockImpl$u_prim_alert_sender/BPortImpl$alert_tx_o" transform="translate(334.265625, 150)" class="triangle"><path d="M 0,0 L 5,2.5 L 0,5 Z" transform="translate(-1.67, -2.5)" class="sprotty-port" style="fill:rgb(48, 48, 48);stroke:rgb(48, 48, 48);"/><text class="clickable sprotty-label port" id="sprotty_ArchitectureBlockImpl$csrng/InstantiationBlockImpl$u_prim_alert_sender/BPortImpl$alert_tx_o/label" transform="translate(-63, -9) translate(28.5, 14)" style="cursor:default;font-size:12px;perspective-origin:0px 0px;fill:rgb(48, 48, 48);text-anchor:middle;">alert_tx_o</text></g></g><g id="sprotty_ArchitectureBlockImpl$csrng/InstantiationBlockImpl$u_csrng_core" transform="translate(405, 256)" class="instantiation"><g class="sprotty-block" style="fill:rgb(255, 255, 255);stroke:rgb(48, 48, 48);stroke-dasharray:0px;"><rect x="0" y="0" rx="1" ry="1" width="300.6875" height="280"/><text x="150.34375" y="12" class="sprotty-block-name" style="cursor:pointer;font-weight:700;perspective-origin:150.344px 0px;fill:rgb(48, 48, 48);stroke:rgba(0, 0, 0, 0);dominant-baseline:middle;text-anchor:middle;">u_csrng_core : csrng_core</text><line x1="0" y1="20" x2="300.6875" y2="20"/></g><g id="sprotty_ArchitectureBlockImpl$csrng/InstantiationBlockImpl$u_csrng_core/BPortImpl$csrng_cmd_i" transform="translate(0, 262.00000000000006)" class="triangle"><path d="M 0,0 L 5,2.5 L 0,5 Z" transform="translate(-1.67, -2.5)" class="sprotty-port" style="fill:rgb(48, 48, 48);stroke:rgb(48, 48, 48);"/><text class="clickable sprotty-label port" id="sprotty_ArchitectureBlockImpl$csrng/InstantiationBlockImpl$u_csrng_core/BPortImpl$csrng_cmd_i/label" transform="translate(6, -9) translate(35.9375, 14)" style="cursor:default;font-size:12px;perspective-origin:0px 0px;fill:rgb(48, 48, 48);text-anchor:middle;">csrng_cmd_i</text></g><g id="sprotty_ArchitectureBlockImpl$csrng/InstantiationBlockImpl$u_csrng_core/BPortImpl$entropy_src_hw_if_i" transform="translate(0, 224.6666666666667)" class="triangle"><path d="M 0,0 L 5,2.5 L 0,5 Z" transform="translate(-1.67, -2.5)" class="sprotty-port" style="fill:rgb(48, 48, 48);stroke:rgb(48, 48, 48);"/><text class="clickable sprotty-label port" id="sprotty_ArchitectureBlockImpl$csrng/InstantiationBlockImpl$u_csrng_core/BPortImpl$entropy_src_hw_if_i/label" transform="translate(6, -9) translate(57.21875, 14)" style="cursor:default;font-size:12px;perspective-origin:0px 0px;fill:rgb(48, 48, 48);text-anchor:middle;">entropy_src_hw_if_i</text></g><g id="sprotty_ArchitectureBlockImpl$csrng/InstantiationBlockImpl$u_csrng_core/BPortImpl$lc_hw_debug_en_i" transform="translate(0, 187.33333333333337)" class="triangle"><path d="M 0,0 L 5,2.5 L 0,5 Z" transform="translate(-1.67, -2.5)" class="sprotty-port" style="fill:rgb(48, 48, 48);stroke:rgb(48, 48, 48);"/><text class="clickable sprotty-label port" id="sprotty_ArchitectureBlockImpl$csrng/InstantiationBlockImpl$u_csrng_core/BPortImpl$lc_hw_debug_en_i/label" transform="translate(6, -9) translate(53.046875, 14)" style="cursor:default;font-size:12px;perspective-origin:0px 0px;fill:rgb(48, 48, 48);text-anchor:middle;">lc_hw_debug_en_i</text></g><g id="sprotty_ArchitectureBlockImpl$csrng/InstantiationBlockImpl$u_csrng_core/BPortImpl$efuse_sw_app_enable_i" transform="translate(0, 150.00000000000003)" class="triangle"><path d="M 0,0 L 5,2.5 L 0,5 Z" transform="translate(-1.67, -2.5)" class="sprotty-port" style="fill:rgb(48, 48, 48);stroke:rgb(48, 48, 48);"/><text class="clickable sprotty-label port" id="sprotty_ArchitectureBlockImpl$csrng/InstantiationBlockImpl$u_csrng_core/BPortImpl$efuse_sw_app_enable_i/label" transform="translate(6, -9) translate(67.6875, 14)" style="cursor:default;font-size:12px;perspective-origin:0px 0px;fill:rgb(48, 48, 48);text-anchor:middle;">efuse_sw_app_enable_i</text></g><g id="sprotty_ArchitectureBlockImpl$csrng/InstantiationBlockImpl$u_csrng_core/BPortImpl$reg2hw" transform="translate(0, 112.66666666666669)" class="triangle"><path d="M 0,0 L 5,2.5 L 0,5 Z" transform="translate(-1.67, -2.5)" class="sprotty-port" style="fill:rgb(48, 48, 48);stroke:rgb(48, 48, 48);"/><text class="clickable sprotty-label port" id="sprotty_ArchitectureBlockImpl$csrng/InstantiationBlockImpl$u_csrng_core/BPortImpl$reg2hw/label" transform="translate(6, -9) translate(20.6875, 14)" style="cursor:default;font-size:12px;perspective-origin:0.1875px 0px;fill:rgb(48, 48, 48);text-anchor:middle;">reg2hw</text></g><g id="sprotty_ArchitectureBlockImpl$csrng/InstantiationBlockImpl$u_csrng_core/BPortImpl$rst_ni" transform="translate(0, 75.33333333333334)" class="triangle"><path d="M 0,0 L 5,2.5 L 0,5 Z" transform="translate(-1.67, -2.5)" class="sprotty-port" style="fill:rgb(48, 48, 48);stroke:rgb(48, 48, 48);"/><text class="clickable sprotty-label port" id="sprotty_ArchitectureBlockImpl$csrng/InstantiationBlockImpl$u_csrng_core/BPortImpl$rst_ni/label" transform="translate(6, -9) translate(15.921875, 14)" style="cursor:default;font-size:12px;perspective-origin:0px 0px;fill:rgb(48, 48, 48);text-anchor:middle;">rst_ni</text></g><g id="sprotty_ArchitectureBlockImpl$csrng/InstantiationBlockImpl$u_csrng_core/BPortImpl$clk_i" transform="translate(0, 38)" class="triangle"><path d="M 0,0 L 5,2.5 L 0,5 Z" transform="translate(-1.67, -2.5)" class="sprotty-port" style="fill:rgb(48, 48, 48);stroke:rgb(48, 48, 48);"/><text class="clickable sprotty-label port" id="sprotty_ArchitectureBlockImpl$csrng/InstantiationBlockImpl$u_csrng_core/BPortImpl$clk_i/label" transform="translate(6, -9) translate(13.09375, 14)" style="cursor:default;font-size:12px;perspective-origin:0px 0px;fill:rgb(48, 48, 48);text-anchor:middle;">clk_i</text></g><g id="sprotty_ArchitectureBlockImpl$csrng/InstantiationBlockImpl$u_csrng_core/BPortImpl$hw2reg" transform="translate(300.6875, 38)" class="triangle"><path d="M 0,0 L 5,2.5 L 0,5 Z" transform="translate(-1.67, -2.5)" class="sprotty-port" style="fill:rgb(48, 48, 48);stroke:rgb(48, 48, 48);"/><text class="clickable sprotty-label port" id="sprotty_ArchitectureBlockImpl$csrng/InstantiationBlockImpl$u_csrng_core/BPortImpl$hw2reg/label" transform="translate(-47.625, -9) translate(20.6875, 14)" style="cursor:default;font-size:12px;perspective-origin:0.125px 0px;fill:rgb(48, 48, 48);text-anchor:middle;">hw2reg</text></g><g id="sprotty_ArchitectureBlockImpl$csrng/InstantiationBlockImpl$u_csrng_core/BPortImpl$entropy_src_hw_if_o" transform="translate(300.6875, 66)" class="triangle"><path d="M 0,0 L 5,2.5 L 0,5 Z" transform="translate(-1.67, -2.5)" class="sprotty-port" style="fill:rgb(48, 48, 48);stroke:rgb(48, 48, 48);"/><text class="clickable sprotty-label port" id="sprotty_ArchitectureBlockImpl$csrng/InstantiationBlockImpl$u_csrng_core/BPortImpl$entropy_src_hw_if_o/label" transform="translate(-124.40625, -9) translate(59.203125, 14)" style="cursor:default;font-size:12px;perspective-origin:0px 0px;fill:rgb(48, 48, 48);text-anchor:middle;">entropy_src_hw_if_o</text></g><g id="sprotty_ArchitectureBlockImpl$csrng/InstantiationBlockImpl$u_csrng_core/BPortImpl$csrng_cmd_o" transform="translate(300.6875, 94)" class="triangle"><path d="M 0,0 L 5,2.5 L 0,5 Z" transform="translate(-1.67, -2.5)" class="sprotty-port" style="fill:rgb(48, 48, 48);stroke:rgb(48, 48, 48);"/><text class="clickable sprotty-label port" id="sprotty_ArchitectureBlockImpl$csrng/InstantiationBlockImpl$u_csrng_core/BPortImpl$csrng_cmd_o/label" transform="translate(-81.84375, -9) translate(37.921875, 14)" style="cursor:default;font-size:12px;perspective-origin:0px 0px;fill:rgb(48, 48, 48);text-anchor:middle;">csrng_cmd_o</text></g><g id="sprotty_ArchitectureBlockImpl$csrng/InstantiationBlockImpl$u_csrng_core/BPortImpl$alert_test_o" transform="translate(300.6875, 122)" class="triangle"><path d="M 0,0 L 5,2.5 L 0,5 Z" transform="translate(-1.67, -2.5)" class="sprotty-port" style="fill:rgb(48, 48, 48);stroke:rgb(48, 48, 48);"/><text class="clickable sprotty-label port" id="sprotty_ArchitectureBlockImpl$csrng/InstantiationBlockImpl$u_csrng_core/BPortImpl$alert_test_o/label" transform="translate(-73.59375, -9) translate(33.796875, 14)" style="cursor:default;font-size:12px;perspective-origin:0px 0px;fill:rgb(48, 48, 48);text-anchor:middle;">alert_test_o</text></g><g id="sprotty_ArchitectureBlockImpl$csrng/InstantiationBlockImpl$u_csrng_core/BPortImpl$fatal_alert_o" transform="translate(300.6875, 150)" class="triangle"><path d="M 0,0 L 5,2.5 L 0,5 Z" transform="translate(-1.67, -2.5)" class="sprotty-port" style="fill:rgb(48, 48, 48);stroke:rgb(48, 48, 48);"/><text class="clickable sprotty-label port" id="sprotty_ArchitectureBlockImpl$csrng/InstantiationBlockImpl$u_csrng_core/BPortImpl$fatal_alert_o/label" transform="translate(-77.375, -9) translate(35.6875, 14)" style="cursor:default;font-size:12px;perspective-origin:0px 0px;fill:rgb(48, 48, 48);text-anchor:middle;">fatal_alert_o</text></g><g id="sprotty_ArchitectureBlockImpl$csrng/InstantiationBlockImpl$u_csrng_core/BPortImpl$intr_cs_cmd_req_done_o" transform="translate(300.6875, 178)" class="triangle"><path d="M 0,0 L 5,2.5 L 0,5 Z" transform="translate(-1.67, -2.5)" class="sprotty-port" style="fill:rgb(48, 48, 48);stroke:rgb(48, 48, 48);"/><text class="clickable sprotty-label port" id="sprotty_ArchitectureBlockImpl$csrng/InstantiationBlockImpl$u_csrng_core/BPortImpl$intr_cs_cmd_req_done_o/label" transform="translate(-150.34375, -9) translate(72.171875, 14)" style="cursor:default;font-size:12px;perspective-origin:0px 0px;fill:rgb(48, 48, 48);text-anchor:middle;">intr_cs_cmd_req_done_o</text></g><g id="sprotty_ArchitectureBlockImpl$csrng/InstantiationBlockImpl$u_csrng_core/BPortImpl$intr_cs_entropy_req_o" transform="translate(300.6875, 206)" class="triangle"><path d="M 0,0 L 5,2.5 L 0,5 Z" transform="translate(-1.67, -2.5)" class="sprotty-port" style="fill:rgb(48, 48, 48);stroke:rgb(48, 48, 48);"/><text class="clickable sprotty-label port" id="sprotty_ArchitectureBlockImpl$csrng/InstantiationBlockImpl$u_csrng_core/BPortImpl$intr_cs_entropy_req_o/label" transform="translate(-134.21875, -9) translate(64.109375, 14)" style="cursor:default;font-size:12px;perspective-origin:0px 0px;fill:rgb(48, 48, 48);text-anchor:middle;">intr_cs_entropy_req_o</text></g><g id="sprotty_ArchitectureBlockImpl$csrng/InstantiationBlockImpl$u_csrng_core/BPortImpl$intr_cs_hw_inst_exc_o" transform="translate(300.6875, 234)" class="triangle"><path d="M 0,0 L 5,2.5 L 0,5 Z" transform="translate(-1.67, -2.5)" class="sprotty-port" style="fill:rgb(48, 48, 48);stroke:rgb(48, 48, 48);"/><text class="clickable sprotty-label port" id="sprotty_ArchitectureBlockImpl$csrng/InstantiationBlockImpl$u_csrng_core/BPortImpl$intr_cs_hw_inst_exc_o/label" transform="translate(-134.1875, -9) translate(64.09375, 14)" style="cursor:default;font-size:12px;perspective-origin:0px 0px;fill:rgb(48, 48, 48);text-anchor:middle;">intr_cs_hw_inst_exc_o</text></g><g id="sprotty_ArchitectureBlockImpl$csrng/InstantiationBlockImpl$u_csrng_core/BPortImpl$intr_cs_fatal_err_o" transform="translate(300.6875, 262)" class="triangle"><path d="M 0,0 L 5,2.5 L 0,5 Z" transform="translate(-1.67, -2.5)" class="sprotty-port" style="fill:rgb(48, 48, 48);stroke:rgb(48, 48, 48);"/><text class="clickable sprotty-label port" id="sprotty_ArchitectureBlockImpl$csrng/InstantiationBlockImpl$u_csrng_core/BPortImpl$intr_cs_fatal_err_o/label" transform="translate(-112.25, -9) translate(53.125, 14)" style="cursor:default;font-size:12px;perspective-origin:0px 0px;fill:rgb(48, 48, 48);text-anchor:middle;">intr_cs_fatal_err_o</text></g></g><g id="sprotty_ArchitectureBlockImpl$csrng/InstantiationBlockImpl$u_reg" transform="translate(206.375, 68)" class="instantiation"><g class="sprotty-block" style="fill:rgb(255, 255, 255);stroke:rgb(48, 48, 48);stroke-dasharray:0px;"><rect x="0" y="0" rx="1" ry="1" width="178.625" height="168"/><text x="89.3125" y="12" class="sprotty-block-name" style="cursor:pointer;font-weight:700;perspective-origin:89.3125px 0px;fill:rgb(48, 48, 48);stroke:rgba(0, 0, 0, 0);dominant-baseline:middle;text-anchor:middle;">u_reg : csrng_reg_top</text><line x1="0" y1="20" x2="178.625" y2="20"/></g><g id="sprotty_ArchitectureBlockImpl$csrng/InstantiationBlockImpl$u_reg/BPortImpl$devmode_i" transform="translate(0, 150)" class="triangle"><path d="M 0,0 L 5,2.5 L 0,5 Z" transform="translate(-1.67, -2.5)" class="sprotty-port" style="fill:rgb(48, 48, 48);stroke:rgb(48, 48, 48);"/><text class="clickable sprotty-label port" id="sprotty_ArchitectureBlockImpl$csrng/InstantiationBlockImpl$u_reg/BPortImpl$devmode_i/label" transform="translate(6, -9) translate(31.453125, 14)" style="cursor:default;font-size:12px;perspective-origin:0px 0px;fill:rgb(48, 48, 48);text-anchor:middle;">devmode_i</text></g><g id="sprotty_ArchitectureBlockImpl$csrng/InstantiationBlockImpl$u_reg/BPortImpl$hw2reg" transform="translate(0, 122)" class="triangle"><path d="M 0,0 L 5,2.5 L 0,5 Z" transform="translate(-1.67, -2.5)" class="sprotty-port" style="fill:rgb(48, 48, 48);stroke:rgb(48, 48, 48);"/><text class="clickable sprotty-label port" id="sprotty_ArchitectureBlockImpl$csrng/InstantiationBlockImpl$u_reg/BPortImpl$hw2reg/label" transform="translate(6, -9) translate(20.6875, 14)" style="cursor:default;font-size:12px;perspective-origin:0.125px 0px;fill:rgb(48, 48, 48);text-anchor:middle;">hw2reg</text></g><g id="sprotty_ArchitectureBlockImpl$csrng/InstantiationBlockImpl$u_reg/BPortImpl$tl_i" transform="translate(0, 94)" class="triangle"><path d="M 0,0 L 5,2.5 L 0,5 Z" transform="translate(-1.67, -2.5)" class="sprotty-port" style="fill:rgb(48, 48, 48);stroke:rgb(48, 48, 48);"/><text class="clickable sprotty-label port" id="sprotty_ArchitectureBlockImpl$csrng/InstantiationBlockImpl$u_reg/BPortImpl$tl_i/label" transform="translate(6, -9) translate(8.984375, 14)" style="cursor:default;font-size:12px;perspective-origin:0px 0px;fill:rgb(48, 48, 48);text-anchor:middle;">tl_i</text></g><g id="sprotty_ArchitectureBlockImpl$csrng/InstantiationBlockImpl$u_reg/BPortImpl$rst_ni" transform="translate(0, 66)" class="triangle"><path d="M 0,0 L 5,2.5 L 0,5 Z" transform="translate(-1.67, -2.5)" class="sprotty-port" style="fill:rgb(48, 48, 48);stroke:rgb(48, 48, 48);"/><text class="clickable sprotty-label port" id="sprotty_ArchitectureBlockImpl$csrng/InstantiationBlockImpl$u_reg/BPortImpl$rst_ni/label" transform="translate(6, -9) translate(15.921875, 14)" style="cursor:default;font-size:12px;perspective-origin:0px 0px;fill:rgb(48, 48, 48);text-anchor:middle;">rst_ni</text></g><g id="sprotty_ArchitectureBlockImpl$csrng/InstantiationBlockImpl$u_reg/BPortImpl$clk_i" transform="translate(0, 38)" class="triangle"><path d="M 0,0 L 5,2.5 L 0,5 Z" transform="translate(-1.67, -2.5)" class="sprotty-port" style="fill:rgb(48, 48, 48);stroke:rgb(48, 48, 48);"/><text class="clickable sprotty-label port" id="sprotty_ArchitectureBlockImpl$csrng/InstantiationBlockImpl$u_reg/BPortImpl$clk_i/label" transform="translate(6, -9) translate(13.09375, 14)" style="cursor:default;font-size:12px;perspective-origin:0px 0px;fill:rgb(48, 48, 48);text-anchor:middle;">clk_i</text></g><g id="sprotty_ArchitectureBlockImpl$csrng/InstantiationBlockImpl$u_reg/BPortImpl$tl_o" transform="translate(178.625, 38)" class="triangle"><path d="M 0,0 L 5,2.5 L 0,5 Z" transform="translate(-1.67, -2.5)" class="sprotty-port" style="fill:rgb(48, 48, 48);stroke:rgb(48, 48, 48);"/><text class="clickable sprotty-label port" id="sprotty_ArchitectureBlockImpl$csrng/InstantiationBlockImpl$u_reg/BPortImpl$tl_o/label" transform="translate(-27.9375, -9) translate(10.96875, 14)" style="cursor:default;font-size:12px;perspective-origin:0px 0px;fill:rgb(48, 48, 48);text-anchor:middle;">tl_o</text></g><g id="sprotty_ArchitectureBlockImpl$csrng/InstantiationBlockImpl$u_reg/BPortImpl$reg2hw" transform="translate(178.625, 150)" class="triangle"><path d="M 0,0 L 5,2.5 L 0,5 Z" transform="translate(-1.67, -2.5)" class="sprotty-port" style="fill:rgb(48, 48, 48);stroke:rgb(48, 48, 48);"/><text class="clickable sprotty-label port" id="sprotty_ArchitectureBlockImpl$csrng/InstantiationBlockImpl$u_reg/BPortImpl$reg2hw/label" transform="translate(-47.75, -9) translate(20.6875, 14)" style="cursor:default;font-size:12px;perspective-origin:0.1875px 0px;fill:rgb(48, 48, 48);text-anchor:middle;">reg2hw</text></g></g><g id="sprotty_ArchitectureBlockImpl$csrng/BPortImpl$alert_rx_i" transform="translate(0, 547)" class="triangle"><path d="M 0,0 L 5,2.5 L 0,5 Z" transform="translate(-1.67, -2.5)" class="sprotty-port" style="fill:rgb(48, 48, 48);stroke:rgb(48, 48, 48);"/><text class="clickable sprotty-label port" id="sprotty_ArchitectureBlockImpl$csrng/BPortImpl$alert_rx_i/label" transform="translate(6, 6) translate(26.6875, 14)" style="cursor:default;font-size:12px;perspective-origin:0px 0px;fill:rgb(48, 48, 48);text-anchor:middle;">alert_rx_i</text></g><g id="sprotty_ArchitectureBlockImpl$csrng/BPortImpl$csrng_cmd_i" transform="translate(0, 513)" class="triangle"><path d="M 0,0 L 5,2.5 L 0,5 Z" transform="translate(-1.67, -2.5)" class="sprotty-port" style="fill:rgb(48, 48, 48);stroke:rgb(48, 48, 48);"/><text class="clickable sprotty-label port" id="sprotty_ArchitectureBlockImpl$csrng/BPortImpl$csrng_cmd_i/label" transform="translate(6, 6) translate(35.9375, 14)" style="cursor:default;font-size:12px;perspective-origin:0px 0px;fill:rgb(48, 48, 48);text-anchor:middle;">csrng_cmd_i</text></g><g id="sprotty_ArchitectureBlockImpl$csrng/BPortImpl$entropy_src_hw_if_i" transform="translate(0, 479)" class="triangle"><path d="M 0,0 L 5,2.5 L 0,5 Z" transform="translate(-1.67, -2.5)" class="sprotty-port" style="fill:rgb(48, 48, 48);stroke:rgb(48, 48, 48);"/><text class="clickable sprotty-label port" id="sprotty_ArchitectureBlockImpl$csrng/BPortImpl$entropy_src_hw_if_i/label" transform="translate(6, 6) translate(57.21875, 14)" style="cursor:default;font-size:12px;perspective-origin:0px 0px;fill:rgb(48, 48, 48);text-anchor:middle;">entropy_src_hw_if_i</text></g><g id="sprotty_ArchitectureBlockImpl$csrng/BPortImpl$lc_hw_debug_en_i" transform="translate(0, 443.33333333333337)" class="triangle"><path d="M 0,0 L 5,2.5 L 0,5 Z" transform="translate(-1.67, -2.5)" class="sprotty-port" style="fill:rgb(48, 48, 48);stroke:rgb(48, 48, 48);"/><text class="clickable sprotty-label port" id="sprotty_ArchitectureBlockImpl$csrng/BPortImpl$lc_hw_debug_en_i/label" transform="translate(6, 6) translate(53.046875, 14)" style="cursor:default;font-size:12px;perspective-origin:0px 0px;fill:rgb(48, 48, 48);text-anchor:middle;">lc_hw_debug_en_i</text></g><g id="sprotty_ArchitectureBlockImpl$csrng/BPortImpl$efuse_sw_app_enable_i" transform="translate(0, 406)" class="triangle"><path d="M 0,0 L 5,2.5 L 0,5 Z" transform="translate(-1.67, -2.5)" class="sprotty-port" style="fill:rgb(48, 48, 48);stroke:rgb(48, 48, 48);"/><text class="clickable sprotty-label port" id="sprotty_ArchitectureBlockImpl$csrng/BPortImpl$efuse_sw_app_enable_i/label" transform="translate(6, 6) translate(67.6875, 14)" style="cursor:default;font-size:12px;perspective-origin:0px 0px;fill:rgb(48, 48, 48);text-anchor:middle;">efuse_sw_app_enable_i</text></g><g id="sprotty_ArchitectureBlockImpl$csrng/BPortImpl$tl_i" transform="translate(0, 372)" class="triangle"><path d="M 0,0 L 5,2.5 L 0,5 Z" transform="translate(-1.67, -2.5)" class="sprotty-port" style="fill:rgb(48, 48, 48);stroke:rgb(48, 48, 48);"/><text class="clickable sprotty-label port" id="sprotty_ArchitectureBlockImpl$csrng/BPortImpl$tl_i/label" transform="translate(6, 6) translate(8.984375, 14)" style="cursor:default;font-size:12px;perspective-origin:0px 0px;fill:rgb(48, 48, 48);text-anchor:middle;">tl_i</text></g><g id="sprotty_ArchitectureBlockImpl$csrng/BPortImpl$rst_ni" transform="translate(0, 331.33333333333337)" class="triangle"><path d="M 0,0 L 5,2.5 L 0,5 Z" transform="translate(-1.67, -2.5)" class="sprotty-port" style="fill:rgb(48, 48, 48);stroke:rgb(48, 48, 48);"/><text class="clickable sprotty-label port" id="sprotty_ArchitectureBlockImpl$csrng/BPortImpl$rst_ni/label" transform="translate(6, 6) translate(15.921875, 14)" style="cursor:default;font-size:12px;perspective-origin:0px 0px;fill:rgb(48, 48, 48);text-anchor:middle;">rst_ni</text></g><g id="sprotty_ArchitectureBlockImpl$csrng/BPortImpl$clk_i" transform="translate(0, 294)" class="triangle"><path d="M 0,0 L 5,2.5 L 0,5 Z" transform="translate(-1.67, -2.5)" class="sprotty-port" style="fill:rgb(48, 48, 48);stroke:rgb(48, 48, 48);"/><text class="clickable sprotty-label port" id="sprotty_ArchitectureBlockImpl$csrng/BPortImpl$clk_i/label" transform="translate(6, 6) translate(13.09375, 14)" style="cursor:default;font-size:12px;perspective-origin:0px 0px;fill:rgb(48, 48, 48);text-anchor:middle;">clk_i</text></g><g id="sprotty_ArchitectureBlockImpl$csrng/BPortImpl$tl_o" transform="translate(1285.296875, 36)" class="triangle"><path d="M 0,0 L 5,2.5 L 0,5 Z" transform="translate(-1.67, -2.5)" class="sprotty-port" style="fill:rgb(48, 48, 48);stroke:rgb(48, 48, 48);"/><text class="clickable sprotty-label port" id="sprotty_ArchitectureBlockImpl$csrng/BPortImpl$tl_o/label" transform="translate(-27.9375, 6) translate(10.96875, 14)" style="cursor:default;font-size:12px;perspective-origin:0px 0px;fill:rgb(48, 48, 48);text-anchor:middle;">tl_o</text></g><g id="sprotty_ArchitectureBlockImpl$csrng/BPortImpl$entropy_src_hw_if_o" transform="translate(1285.296875, 186)" class="triangle"><path d="M 0,0 L 5,2.5 L 0,5 Z" transform="translate(-1.67, -2.5)" class="sprotty-port" style="fill:rgb(48, 48, 48);stroke:rgb(48, 48, 48);"/><text class="clickable sprotty-label port" id="sprotty_ArchitectureBlockImpl$csrng/BPortImpl$entropy_src_hw_if_o/label" transform="translate(-124.40625, 6) translate(59.203125, 14)" style="cursor:default;font-size:12px;perspective-origin:0px 0px;fill:rgb(48, 48, 48);text-anchor:middle;">entropy_src_hw_if_o</text></g><g id="sprotty_ArchitectureBlockImpl$csrng/BPortImpl$csrng_cmd_o" transform="translate(1285.296875, 220)" class="triangle"><path d="M 0,0 L 5,2.5 L 0,5 Z" transform="translate(-1.67, -2.5)" class="sprotty-port" style="fill:rgb(48, 48, 48);stroke:rgb(48, 48, 48);"/><text class="clickable sprotty-label port" id="sprotty_ArchitectureBlockImpl$csrng/BPortImpl$csrng_cmd_o/label" transform="translate(-81.84375, 6) translate(37.921875, 14)" style="cursor:default;font-size:12px;perspective-origin:0px 0px;fill:rgb(48, 48, 48);text-anchor:middle;">csrng_cmd_o</text></g><g id="sprotty_ArchitectureBlockImpl$csrng/BPortImpl$alert_tx_o" transform="translate(1285.296875, 382)" class="triangle"><path d="M 0,0 L 5,2.5 L 0,5 Z" transform="translate(-1.67, -2.5)" class="sprotty-port" style="fill:rgb(48, 48, 48);stroke:rgb(48, 48, 48);"/><text class="clickable sprotty-label port" id="sprotty_ArchitectureBlockImpl$csrng/BPortImpl$alert_tx_o/label" transform="translate(-63, 6) translate(28.5, 14)" style="cursor:default;font-size:12px;perspective-origin:0px 0px;fill:rgb(48, 48, 48);text-anchor:middle;">alert_tx_o</text></g><g id="sprotty_ArchitectureBlockImpl$csrng/BPortImpl$intr_cs_cmd_req_done_o" transform="translate(1285.296875, 416)" class="triangle"><path d="M 0,0 L 5,2.5 L 0,5 Z" transform="translate(-1.67, -2.5)" class="sprotty-port" style="fill:rgb(48, 48, 48);stroke:rgb(48, 48, 48);"/><text class="clickable sprotty-label port" id="sprotty_ArchitectureBlockImpl$csrng/BPortImpl$intr_cs_cmd_req_done_o/label" transform="translate(-150.34375, 6) translate(72.171875, 14)" style="cursor:default;font-size:12px;perspective-origin:0px 0px;fill:rgb(48, 48, 48);text-anchor:middle;">intr_cs_cmd_req_done_o</text></g><g id="sprotty_ArchitectureBlockImpl$csrng/BPortImpl$intr_cs_entropy_req_o" transform="translate(1285.296875, 450)" class="triangle"><path d="M 0,0 L 5,2.5 L 0,5 Z" transform="translate(-1.67, -2.5)" class="sprotty-port" style="fill:rgb(48, 48, 48);stroke:rgb(48, 48, 48);"/><text class="clickable sprotty-label port" id="sprotty_ArchitectureBlockImpl$csrng/BPortImpl$intr_cs_entropy_req_o/label" transform="translate(-134.21875, 6) translate(64.109375, 14)" style="cursor:default;font-size:12px;perspective-origin:0px 0px;fill:rgb(48, 48, 48);text-anchor:middle;">intr_cs_entropy_req_o</text></g><g id="sprotty_ArchitectureBlockImpl$csrng/BPortImpl$intr_cs_hw_inst_exc_o" transform="translate(1285.296875, 484)" class="triangle"><path d="M 0,0 L 5,2.5 L 0,5 Z" transform="translate(-1.67, -2.5)" class="sprotty-port" style="fill:rgb(48, 48, 48);stroke:rgb(48, 48, 48);"/><text class="clickable sprotty-label port" id="sprotty_ArchitectureBlockImpl$csrng/BPortImpl$intr_cs_hw_inst_exc_o/label" transform="translate(-134.1875, 6) translate(64.09375, 14)" style="cursor:default;font-size:12px;perspective-origin:0px 0px;fill:rgb(48, 48, 48);text-anchor:middle;">intr_cs_hw_inst_exc_o</text></g><g id="sprotty_ArchitectureBlockImpl$csrng/BPortImpl$intr_cs_fatal_err_o" transform="translate(1285.296875, 518)" class="triangle"><path d="M 0,0 L 5,2.5 L 0,5 Z" transform="translate(-1.67, -2.5)" class="sprotty-port" style="fill:rgb(48, 48, 48);stroke:rgb(48, 48, 48);"/><text class="clickable sprotty-label port" id="sprotty_ArchitectureBlockImpl$csrng/BPortImpl$intr_cs_fatal_err_o/label" transform="translate(-112.25, 6) translate(53.125, 14)" style="cursor:default;font-size:12px;perspective-origin:0px 0px;fill:rgb(48, 48, 48);text-anchor:middle;">intr_cs_fatal_err_o</text></g></g></g></svg>