<svg xmlns="http://www.w3.org/2000/svg" id="sprotty_work.csrng_main_sm" class="sprotty-graph sprotty-block-diagram blockdiagram" style="font-family:&quot;Noto Sans&quot;, Helvetica, Arial, sans-serif;perspective-origin:0px 0px;transform-origin:0px 0px;" version="1.1" viewBox="7 7 748.78125 501" width="748.78125" height="501"><g transform="scale(1) translate(0,0)"><g id="sprotty_ArchitectureBlockImpl$csrng_main_sm" transform="translate(12, 12)" class="architecture"><g class="sprotty-block" style="fill:rgb(255, 255, 255);stroke:rgb(48, 48, 48);stroke-dasharray:0px;"><rect x="0" y="0" rx="1" ry="1" width="738.78125" height="491"/><text x="369.390625" y="12" class="sprotty-block-name" style="cursor:pointer;font-weight:700;perspective-origin:369.391px 0px;fill:rgb(48, 48, 48);stroke:rgba(0, 0, 0, 0);dominant-baseline:middle;text-anchor:middle;">csrng_main_sm</text><line x1="0" y1="20" x2="738.78125" y2="20"/></g><g id="sprotty_ArchitectureBlockImpl$csrng_main_sm/AlwaysBlockImpl$null16/GPortImpl$acmd_accept_oOUT_to_ArchitectureBlockImpl$csrng_main_sm/BPortImpl$acmd_accept_o" class="sprotty-edge edge" style="fill:none;stroke:rgb(112, 112, 112);stroke-linejoin:round;"><g><path d="M 264.53125 224 L 332.53125 224 C 333.53125 224 334.53125 225 334.53125 226 L 334.53125 246 C 334.53125 247 335.53125 248 336.53125 248 L 738.78125 248 "/><path d="M 264.53125 224 L 332.53125 224 C 333.53125 224 334.53125 225 334.53125 226 L 334.53125 246 C 334.53125 247 335.53125 248 336.53125 248 L 738.78125 248 " class="clickable"/></g></g><g id="sprotty_ArchitectureBlockImpl$csrng_main_sm/AlwaysBlockImpl$null16/GPortImpl$cmd_entropy_req_oOUT_to_ArchitectureBlockImpl$csrng_main_sm/BPortImpl$cmd_entropy_req_o" class="sprotty-edge edge" style="fill:none;stroke:rgb(112, 112, 112);stroke-linejoin:round;"><g><path d="M 264.53125 244 L 312.53125 244 C 313.53125 244 314.53125 245 314.53125 246 L 314.53125 314 C 314.53125 315 315.53125 316 316.53125 316 L 738.78125 316 "/><path d="M 264.53125 244 L 312.53125 244 C 313.53125 244 314.53125 245 314.53125 246 L 314.53125 314 C 314.53125 315 315.53125 316 316.53125 316 L 738.78125 316 " class="clickable"/></g></g><g id="sprotty_ArchitectureBlockImpl$csrng_main_sm/AlwaysBlockImpl$null16/GPortImpl$instant_req_oOUT_to_ArchitectureBlockImpl$csrng_main_sm/BPortImpl$instant_req_o" class="sprotty-edge edge" style="fill:none;stroke:rgb(112, 112, 112);stroke-linejoin:round;"><g><path d="M 264.53125 264 L 292.53125 264 C 293.53125 264 294.53125 265 294.53125 266 L 294.53125 382 C 294.53125 383 295.53125 384 296.53125 384 L 738.78125 384 "/><path d="M 264.53125 264 L 292.53125 264 C 293.53125 264 294.53125 265 294.53125 266 L 294.53125 382 C 294.53125 383 295.53125 384 296.53125 384 L 738.78125 384 " class="clickable"/></g></g><g id="sprotty_ArchitectureBlockImpl$csrng_main_sm/AlwaysBlockImpl$null16/GPortImpl$reseed_req_oOUT_to_ArchitectureBlockImpl$csrng_main_sm/BPortImpl$reseed_req_o" class="sprotty-edge edge" style="fill:none;stroke:rgb(112, 112, 112);stroke-linejoin:round;"><g><path d="M 264.53125 254 L 302.53125 254 C 303.53125 254 304.53125 255 304.53125 256 L 304.53125 348 C 304.53125 349 305.53125 350 306.53125 350 L 738.78125 350 "/><path d="M 264.53125 254 L 302.53125 254 C 303.53125 254 304.53125 255 304.53125 256 L 304.53125 348 C 304.53125 349 305.53125 350 306.53125 350 L 738.78125 350 " class="clickable"/></g></g><g id="sprotty_ArchitectureBlockImpl$csrng_main_sm/AlwaysBlockImpl$null16/GPortImpl$generate_req_oOUT_to_ArchitectureBlockImpl$csrng_main_sm/BPortImpl$generate_req_o" class="sprotty-edge edge" style="fill:none;stroke:rgb(112, 112, 112);stroke-linejoin:round;"><g><path d="M 264.53125 214 L 738.78125 214 "/><path d="M 264.53125 214 L 738.78125 214 " class="clickable"/></g></g><g id="sprotty_ArchitectureBlockImpl$csrng_main_sm/AlwaysBlockImpl$null16/GPortImpl$update_req_oOUT_to_ArchitectureBlockImpl$csrng_main_sm/BPortImpl$update_req_o" class="sprotty-edge edge" style="fill:none;stroke:rgb(112, 112, 112);stroke-linejoin:round;"><g><path d="M 264.53125 234 L 322.53125 234 C 323.53125 234 324.53125 235 324.53125 236 L 324.53125 280 C 324.53125 281 325.53125 282 326.53125 282 L 738.78125 282 "/><path d="M 264.53125 234 L 322.53125 234 C 323.53125 234 324.53125 235 324.53125 236 L 324.53125 280 C 324.53125 281 325.53125 282 326.53125 282 L 738.78125 282 " class="clickable"/></g></g><g id="sprotty_ArchitectureBlockImpl$csrng_main_sm/AlwaysBlockImpl$null16/GPortImpl$uninstant_req_oOUT_to_ArchitectureBlockImpl$csrng_main_sm/BPortImpl$uninstant_req_o" class="sprotty-edge edge" style="fill:none;stroke:rgb(112, 112, 112);stroke-linejoin:round;"><g><path d="M 264.53125 284 L 272.53125 284 C 273.53125 284 274.53125 285 274.53125 286 L 274.53125 450 C 274.53125 451 275.53125 452 276.53125 452 L 738.78125 452 "/><path d="M 264.53125 284 L 272.53125 284 C 273.53125 284 274.53125 285 274.53125 286 L 274.53125 450 C 274.53125 451 275.53125 452 276.53125 452 L 738.78125 452 " class="clickable"/></g></g><g id="sprotty_ArchitectureBlockImpl$csrng_main_sm/AlwaysBlockImpl$null16/GPortImpl$main_sm_err_oOUT_to_ArchitectureBlockImpl$csrng_main_sm/BPortImpl$main_sm_err_o" class="sprotty-edge edge" style="fill:none;stroke:rgb(112, 112, 112);stroke-linejoin:round;"><g><path d="M 264.53125 274 L 282.53125 274 C 283.53125 274 284.53125 275 284.53125 276 L 284.53125 416 C 284.53125 417 285.53125 418 286.53125 418 L 738.78125 418 "/><path d="M 264.53125 274 L 282.53125 274 C 283.53125 274 284.53125 275 284.53125 276 L 284.53125 416 C 284.53125 417 285.53125 418 286.53125 418 L 738.78125 418 " class="clickable"/></g></g><g id="sprotty_ArchitectureBlockImpl$csrng_main_sm/BPortImpl$clk_i_to_ArchitectureBlockImpl$csrng_main_sm/InstantiationBlockImpl$u_state_regs/BPortImpl$clk_i" class="sprotty-edge edge" style="fill:none;stroke:rgb(112, 112, 112);stroke-linejoin:round;"><g><path d="M 0 36 L 282.53125 36 C 283.53125 36 284.53125 37 284.53125 38 L 284.53125 127 C 284.53125 128 285.53125 129 286.53125 129 L 344.53125 129 "/><path d="M 0 36 L 282.53125 36 C 283.53125 36 284.53125 37 284.53125 38 L 284.53125 127 C 284.53125 128 285.53125 129 286.53125 129 L 344.53125 129 " class="clickable"/></g></g><g id="sprotty_ArchitectureBlockImpl$csrng_main_sm/BPortImpl$rst_ni_to_ArchitectureBlockImpl$csrng_main_sm/InstantiationBlockImpl$u_state_regs/BPortImpl$rst_ni" class="sprotty-edge edge" style="fill:none;stroke:rgb(112, 112, 112);stroke-linejoin:round;"><g><path d="M 0 70 L 272.53125 70 C 273.53125 70 274.53125 71 274.53125 72 L 274.53125 155 C 274.53125 156 275.53125 157 276.53125 157 L 344.53125 157 "/><path d="M 0 70 L 272.53125 70 C 273.53125 70 274.53125 71 274.53125 72 L 274.53125 155 C 274.53125 156 275.53125 157 276.53125 157 L 344.53125 157 " class="clickable"/></g></g><g id="sprotty_ArchitectureBlockImpl$csrng_main_sm/BPortImpl$ctr_drbg_cmd_req_rdy_i_to_ArchitectureBlockImpl$csrng_main_sm/AlwaysBlockImpl$null16/GPortImpl$ctr_drbg_cmd_req_rdy_iIN" class="sprotty-edge edge" style="fill:none;stroke:rgb(112, 112, 112);stroke-linejoin:round;"><g><path d="M 0 346 L 188.78125 346 C 189.78125 346 190.78125 345 190.78125 344 L 190.78125 283.5 C 190.78125 282.5 191.78125 281.5 192.78125 281.5 L 200.78125 281.5 "/><path d="M 0 346 L 188.78125 346 C 189.78125 346 190.78125 345 190.78125 344 L 190.78125 283.5 C 190.78125 282.5 191.78125 281.5 192.78125 281.5 L 200.78125 281.5 " class="clickable"/></g></g><g id="sprotty_ArchitectureBlockImpl$csrng_main_sm/BPortImpl$acmd_avail_i_to_ArchitectureBlockImpl$csrng_main_sm/AlwaysBlockImpl$null16/GPortImpl$acmd_avail_iIN" class="sprotty-edge edge" style="fill:none;stroke:rgb(112, 112, 112);stroke-linejoin:round;"><g><path d="M 0 312 L 178.78125 312 C 179.78125 312 180.78125 311 180.78125 310 L 180.78125 271 C 180.78125 270 181.78125 269 182.78125 269 L 200.78125 269 "/><path d="M 0 312 L 178.78125 312 C 179.78125 312 180.78125 311 180.78125 310 L 180.78125 271 C 180.78125 270 181.78125 269 182.78125 269 L 200.78125 269 " class="clickable"/></g></g><g id="sprotty_ArchitectureBlockImpl$csrng_main_sm/BPortImpl$acmd_i_to_ArchitectureBlockImpl$csrng_main_sm/AlwaysBlockImpl$null16/GPortImpl$acmd_iIN" class="sprotty-edge thick edge" style="fill:none;stroke:rgb(112, 112, 112);stroke-linejoin:round;stroke-width:3px;"><g><path d="M 0 278 L 168.78125 278 C 169.78125 278 170.78125 277 170.78125 276 L 170.78125 258.5 C 170.78125 257.5 171.78125 256.5 172.78125 256.5 L 200.78125 256.5 "/><path d="M 0 278 L 168.78125 278 C 169.78125 278 170.78125 277 170.78125 276 L 170.78125 258.5 C 170.78125 257.5 171.78125 256.5 172.78125 256.5 L 200.78125 256.5 " class="clickable"/></g></g><g id="sprotty_ArchitectureBlockImpl$csrng_main_sm/BPortImpl$acmd_eop_i_to_ArchitectureBlockImpl$csrng_main_sm/AlwaysBlockImpl$null16/GPortImpl$acmd_eop_iIN" class="sprotty-edge edge" style="fill:none;stroke:rgb(112, 112, 112);stroke-linejoin:round;"><g><path d="M 0 244 L 200.78125 244 "/><path d="M 0 244 L 200.78125 244 " class="clickable"/></g></g><g id="sprotty_ArchitectureBlockImpl$csrng_main_sm/BPortImpl$flag0_i_to_ArchitectureBlockImpl$csrng_main_sm/AlwaysBlockImpl$null16/GPortImpl$flag0_iIN" class="sprotty-edge edge" style="fill:none;stroke:rgb(112, 112, 112);stroke-linejoin:round;"><g><path d="M 0 210 L 168.78125 210 C 169.78125 210 170.78125 211 170.78125 212 L 170.78125 229.5 C 170.78125 230.5 171.78125 231.5 172.78125 231.5 L 200.78125 231.5 "/><path d="M 0 210 L 168.78125 210 C 169.78125 210 170.78125 211 170.78125 212 L 170.78125 229.5 C 170.78125 230.5 171.78125 231.5 172.78125 231.5 L 200.78125 231.5 " class="clickable"/></g></g><g id="sprotty_ArchitectureBlockImpl$csrng_main_sm/BPortImpl$cmd_entropy_avail_i_to_ArchitectureBlockImpl$csrng_main_sm/AlwaysBlockImpl$null16/GPortImpl$cmd_entropy_avail_iIN" class="sprotty-edge edge" style="fill:none;stroke:rgb(112, 112, 112);stroke-linejoin:round;"><g><path d="M 0 176 L 178.78125 176 C 179.78125 176 180.78125 177 180.78125 178 L 180.78125 217 C 180.78125 218 181.78125 219 182.78125 219 L 200.78125 219 "/><path d="M 0 176 L 178.78125 176 C 179.78125 176 180.78125 177 180.78125 178 L 180.78125 217 C 180.78125 218 181.78125 219 182.78125 219 L 200.78125 219 " class="clickable"/></g></g><g id="sprotty_ArchitectureBlockImpl$csrng_main_sm/AlwaysBlockImpl$null16/GPortImpl$state_dOUT_to_ArchitectureBlockImpl$csrng_main_sm/InstantiationBlockImpl$u_state_regs/BPortImpl$d_i" class="sprotty-edge thick edge" style="fill:none;stroke:rgb(112, 112, 112);stroke-linejoin:round;stroke-width:3px;"><g><path d="M 264.53125 204 L 272.53125 204 C 273.53125 204 274.53125 203 274.53125 202 L 274.53125 187 C 274.53125 186 275.53125 185 276.53125 185 L 344.53125 185 "/><path d="M 264.53125 204 L 272.53125 204 C 273.53125 204 274.53125 203 274.53125 202 L 274.53125 187 C 274.53125 186 275.53125 185 276.53125 185 L 344.53125 185 " class="clickable"/></g></g><g id="sprotty_ArchitectureBlockImpl$csrng_main_sm/AssignmentBlockImpl$state_q/GPortImpl$state_raw_qOUT_to_ArchitectureBlockImpl$csrng_main_sm/AlwaysBlockImpl$null16/GPortImpl$state_qIN" class="sprotty-edge thick edge" style="fill:none;stroke:rgb(112, 112, 112);stroke-linejoin:round;stroke-width:3px;"><g><path d="M 583.15625 157 L 591.15625 157 C 592.15625 157 593.15625 156 593.15625 155 L 593.15625 81 C 593.15625 80 592.15625 79 591.15625 79 L 192.78125 79 C 191.78125 79 190.78125 80 190.78125 81 L 190.78125 204.5 C 190.78125 205.5 191.78125 206.5 192.78125 206.5 L 200.78125 206.5 "/><path d="M 583.15625 157 L 591.15625 157 C 592.15625 157 593.15625 156 593.15625 155 L 593.15625 81 C 593.15625 80 592.15625 79 591.15625 79 L 192.78125 79 C 191.78125 79 190.78125 80 190.78125 81 L 190.78125 204.5 C 190.78125 205.5 191.78125 206.5 192.78125 206.5 L 200.78125 206.5 " class="clickable"/></g></g><g id="sprotty_ArchitectureBlockImpl$csrng_main_sm/InstantiationBlockImpl$u_state_regs/BPortImpl$q_o_to_ArchitectureBlockImpl$csrng_main_sm/AssignmentBlockImpl$state_q/GPortImpl$state_raw_qIN" class="sprotty-edge thick edge" style="fill:none;stroke:rgb(112, 112, 112);stroke-linejoin:round;stroke-width:3px;"><g><path d="M 543.4375 157 L 563.4375 157 "/><path d="M 543.4375 157 L 563.4375 157 " class="clickable"/></g></g><g id="sprotty_ArchitectureBlockImpl$csrng_main_sm/AlwaysBlockImpl$null16" transform="translate(200.78125, 194)" class="statement"><rect x="0" y="0" rx="10" ry="5" width="63.75" height="100" class="sprotty-node" style="fill:rgb(245, 245, 245);stroke:rgb(112, 112, 112);"/><text class="clickable sprotty-label statementtype" id="sprotty_ArchitectureBlockImpl$csrng_main_sm/AlwaysBlockImpl$null16/labeltype" transform="translate(5, 44) translate(26.875, 9)" style="cursor:default;font-size:8px;font-weight:700;perspective-origin:0px 0px;fill:rgb(112, 112, 112);text-anchor:middle;">always_comb</text><g id="sprotty_ArchitectureBlockImpl$csrng_main_sm/AlwaysBlockImpl$null16/GPortImpl$cmd_entropy_avail_iIN" transform="translate(0, 25)" class="sprotty-hidden hidden" style="display:block;height:0px;width:0px;"/><g id="sprotty_ArchitectureBlockImpl$csrng_main_sm/AlwaysBlockImpl$null16/GPortImpl$flag0_iIN" transform="translate(0, 37.5)" class="sprotty-hidden hidden" style="display:block;height:0px;width:0px;"/><g id="sprotty_ArchitectureBlockImpl$csrng_main_sm/AlwaysBlockImpl$null16/GPortImpl$acmd_eop_iIN" transform="translate(0, 50)" class="sprotty-hidden hidden" style="display:block;height:0px;width:0px;"/><g id="sprotty_ArchitectureBlockImpl$csrng_main_sm/AlwaysBlockImpl$null16/GPortImpl$acmd_iIN" transform="translate(0, 62.5)" class="sprotty-hidden hidden" style="display:block;height:0px;width:0px;"/><g id="sprotty_ArchitectureBlockImpl$csrng_main_sm/AlwaysBlockImpl$null16/GPortImpl$acmd_avail_iIN" transform="translate(0, 75)" class="sprotty-hidden hidden" style="display:block;height:0px;width:0px;"/><g id="sprotty_ArchitectureBlockImpl$csrng_main_sm/AlwaysBlockImpl$null16/GPortImpl$ctr_drbg_cmd_req_rdy_iIN" transform="translate(0, 87.5)" class="sprotty-hidden hidden" style="display:block;height:0px;width:0px;"/><g id="sprotty_ArchitectureBlockImpl$csrng_main_sm/AlwaysBlockImpl$null16/GPortImpl$state_qIN" transform="translate(0, 12.5)" class="sprotty-hidden hidden" style="display:block;height:0px;width:0px;"/><g id="sprotty_ArchitectureBlockImpl$csrng_main_sm/AlwaysBlockImpl$null16/GPortImpl$state_dOUT" transform="translate(63.75, 10)" class="sprotty-hidden hidden" style="display:block;height:0px;width:0px;"/><g id="sprotty_ArchitectureBlockImpl$csrng_main_sm/AlwaysBlockImpl$null16/GPortImpl$acmd_accept_oOUT" transform="translate(63.75, 30)" class="sprotty-hidden hidden" style="display:block;height:0px;width:0px;"/><g id="sprotty_ArchitectureBlockImpl$csrng_main_sm/AlwaysBlockImpl$null16/GPortImpl$cmd_entropy_req_oOUT" transform="translate(63.75, 50)" class="sprotty-hidden hidden" style="display:block;height:0px;width:0px;"/><g id="sprotty_ArchitectureBlockImpl$csrng_main_sm/AlwaysBlockImpl$null16/GPortImpl$instant_req_oOUT" transform="translate(63.75, 70)" class="sprotty-hidden hidden" style="display:block;height:0px;width:0px;"/><g id="sprotty_ArchitectureBlockImpl$csrng_main_sm/AlwaysBlockImpl$null16/GPortImpl$reseed_req_oOUT" transform="translate(63.75, 60)" class="sprotty-hidden hidden" style="display:block;height:0px;width:0px;"/><g id="sprotty_ArchitectureBlockImpl$csrng_main_sm/AlwaysBlockImpl$null16/GPortImpl$generate_req_oOUT" transform="translate(63.75, 20)" class="sprotty-hidden hidden" style="display:block;height:0px;width:0px;"/><g id="sprotty_ArchitectureBlockImpl$csrng_main_sm/AlwaysBlockImpl$null16/GPortImpl$update_req_oOUT" transform="translate(63.75, 40)" class="sprotty-hidden hidden" style="display:block;height:0px;width:0px;"/><g id="sprotty_ArchitectureBlockImpl$csrng_main_sm/AlwaysBlockImpl$null16/GPortImpl$uninstant_req_oOUT" transform="translate(63.75, 90)" class="sprotty-hidden hidden" style="display:block;height:0px;width:0px;"/><g id="sprotty_ArchitectureBlockImpl$csrng_main_sm/AlwaysBlockImpl$null16/GPortImpl$main_sm_err_oOUT" transform="translate(63.75, 80)" class="sprotty-hidden hidden" style="display:block;height:0px;width:0px;"/></g><g id="sprotty_ArchitectureBlockImpl$csrng_main_sm/AssignmentBlockImpl$state_q" transform="translate(563.4375, 146)" class="statement"><rect x="0" y="0" rx="10" ry="5" width="19.71875" height="22" class="sprotty-node" style="fill:rgb(245, 245, 245);stroke:rgb(112, 112, 112);"/><text class="clickable sprotty-label statementtype" id="sprotty_ArchitectureBlockImpl$csrng_main_sm/AssignmentBlockImpl$state_q/labeltype" transform="translate(5, 5) translate(4.71875, 9)" style="cursor:default;font-size:8px;font-weight:700;perspective-origin:0.140625px 0px;fill:rgb(112, 112, 112);text-anchor:middle;">&lt;=</text><g id="sprotty_ArchitectureBlockImpl$csrng_main_sm/AssignmentBlockImpl$state_q/GPortImpl$state_raw_qIN" transform="translate(0, 11)" class="sprotty-hidden hidden" style="display:block;height:0px;width:0px;"/><g id="sprotty_ArchitectureBlockImpl$csrng_main_sm/AssignmentBlockImpl$state_q/GPortImpl$state_raw_qOUT" transform="translate(19.71875, 11)" class="sprotty-hidden hidden" style="display:block;height:0px;width:0px;"/></g><g id="sprotty_ArchitectureBlockImpl$csrng_main_sm/InstantiationBlockImpl$u_state_regs" transform="translate(344.53125, 91)" class="instantiation"><g class="sprotty-block" style="fill:rgb(255, 255, 255);stroke:rgb(48, 48, 48);stroke-dasharray:0px;"><rect x="0" y="0" rx="1" ry="1" width="198.90625" height="112"/><text x="99.453125" y="12" class="sprotty-block-name" style="cursor:pointer;font-weight:700;perspective-origin:99.4531px 0px;fill:rgb(48, 48, 48);stroke:rgba(0, 0, 0, 0);dominant-baseline:middle;text-anchor:middle;">u_state_regs : prim_flop</text><line x1="0" y1="20" x2="198.90625" y2="20"/></g><g id="sprotty_ArchitectureBlockImpl$csrng_main_sm/InstantiationBlockImpl$u_state_regs/BPortImpl$d_i" transform="translate(0, 94)" class="triangle"><path d="M 0,0 L 5,2.5 L 0,5 Z" transform="translate(-1.67, -2.5)" class="sprotty-port" style="fill:rgb(48, 48, 48);stroke:rgb(48, 48, 48);"/><text class="clickable sprotty-label port" id="sprotty_ArchitectureBlockImpl$csrng_main_sm/InstantiationBlockImpl$u_state_regs/BPortImpl$d_i/label" transform="translate(6, -9) translate(8.734375, 14)" style="cursor:default;font-size:12px;perspective-origin:0px 0px;fill:rgb(48, 48, 48);text-anchor:middle;">d_i</text></g><g id="sprotty_ArchitectureBlockImpl$csrng_main_sm/InstantiationBlockImpl$u_state_regs/BPortImpl$rst_ni" transform="translate(0, 66)" class="triangle"><path d="M 0,0 L 5,2.5 L 0,5 Z" transform="translate(-1.67, -2.5)" class="sprotty-port" style="fill:rgb(48, 48, 48);stroke:rgb(48, 48, 48);"/><text class="clickable sprotty-label port" id="sprotty_ArchitectureBlockImpl$csrng_main_sm/InstantiationBlockImpl$u_state_regs/BPortImpl$rst_ni/label" transform="translate(6, -9) translate(15.921875, 14)" style="cursor:default;font-size:12px;perspective-origin:0px 0px;fill:rgb(48, 48, 48);text-anchor:middle;">rst_ni</text></g><g id="sprotty_ArchitectureBlockImpl$csrng_main_sm/InstantiationBlockImpl$u_state_regs/BPortImpl$clk_i" transform="translate(0, 38)" class="triangle"><path d="M 0,0 L 5,2.5 L 0,5 Z" transform="translate(-1.67, -2.5)" class="sprotty-port" style="fill:rgb(48, 48, 48);stroke:rgb(48, 48, 48);"/><text class="clickable sprotty-label port" id="sprotty_ArchitectureBlockImpl$csrng_main_sm/InstantiationBlockImpl$u_state_regs/BPortImpl$clk_i/label" transform="translate(6, -9) translate(13.09375, 14)" style="cursor:default;font-size:12px;perspective-origin:0px 0px;fill:rgb(48, 48, 48);text-anchor:middle;">clk_i</text></g><g id="sprotty_ArchitectureBlockImpl$csrng_main_sm/InstantiationBlockImpl$u_state_regs/BPortImpl$q_o" transform="translate(198.90625, 66)" class="triangle"><path d="M 0,0 L 5,2.5 L 0,5 Z" transform="translate(-1.67, -2.5)" class="sprotty-port" style="fill:rgb(48, 48, 48);stroke:rgb(48, 48, 48);"/><text class="clickable sprotty-label port" id="sprotty_ArchitectureBlockImpl$csrng_main_sm/InstantiationBlockImpl$u_state_regs/BPortImpl$q_o/label" transform="translate(-27.4375, -9) translate(10.71875, 14)" style="cursor:default;font-size:12px;perspective-origin:0px 0px;fill:rgb(48, 48, 48);text-anchor:middle;">q_o</text></g></g><g id="sprotty_ArchitectureBlockImpl$csrng_main_sm/BPortImpl$cmd_entropy_avail_i" transform="translate(0, 176)" class="triangle"><path d="M 0,0 L 5,2.5 L 0,5 Z" transform="translate(-1.67, -2.5)" class="sprotty-port" style="fill:rgb(48, 48, 48);stroke:rgb(48, 48, 48);"/><text class="clickable sprotty-label port" id="sprotty_ArchitectureBlockImpl$csrng_main_sm/BPortImpl$cmd_entropy_avail_i/label" transform="translate(6, 6) translate(59.140625, 14)" style="cursor:default;font-size:12px;perspective-origin:0px 0px;fill:rgb(48, 48, 48);text-anchor:middle;">cmd_entropy_avail_i</text></g><g id="sprotty_ArchitectureBlockImpl$csrng_main_sm/BPortImpl$flag0_i" transform="translate(0, 210)" class="triangle"><path d="M 0,0 L 5,2.5 L 0,5 Z" transform="translate(-1.67, -2.5)" class="sprotty-port" style="fill:rgb(48, 48, 48);stroke:rgb(48, 48, 48);"/><text class="clickable sprotty-label port" id="sprotty_ArchitectureBlockImpl$csrng_main_sm/BPortImpl$flag0_i/label" transform="translate(6, 6) translate(18.765625, 14)" style="cursor:default;font-size:12px;perspective-origin:0px 0px;fill:rgb(48, 48, 48);text-anchor:middle;">flag0_i</text></g><g id="sprotty_ArchitectureBlockImpl$csrng_main_sm/BPortImpl$ctr_drbg_cmd_req_rdy_i" transform="translate(0, 346)" class="triangle"><path d="M 0,0 L 5,2.5 L 0,5 Z" transform="translate(-1.67, -2.5)" class="sprotty-port" style="fill:rgb(48, 48, 48);stroke:rgb(48, 48, 48);"/><text class="clickable sprotty-label port" id="sprotty_ArchitectureBlockImpl$csrng_main_sm/BPortImpl$ctr_drbg_cmd_req_rdy_i/label" transform="translate(6, 6) translate(69.890625, 14)" style="cursor:default;font-size:12px;perspective-origin:0px 0px;fill:rgb(48, 48, 48);text-anchor:middle;">ctr_drbg_cmd_req_rdy_i</text></g><g id="sprotty_ArchitectureBlockImpl$csrng_main_sm/BPortImpl$acmd_eop_i" transform="translate(0, 244)" class="triangle"><path d="M 0,0 L 5,2.5 L 0,5 Z" transform="translate(-1.67, -2.5)" class="sprotty-port" style="fill:rgb(48, 48, 48);stroke:rgb(48, 48, 48);"/><text class="clickable sprotty-label port" id="sprotty_ArchitectureBlockImpl$csrng_main_sm/BPortImpl$acmd_eop_i/label" transform="translate(6, 6) translate(34.765625, 14)" style="cursor:default;font-size:12px;perspective-origin:0px 0px;fill:rgb(48, 48, 48);text-anchor:middle;">acmd_eop_i</text></g><g id="sprotty_ArchitectureBlockImpl$csrng_main_sm/BPortImpl$acmd_i" transform="translate(0, 278)" class="triangle"><path d="M 0,0 L 5,2.5 L 0,5 Z" transform="translate(-1.67, -2.5)" class="sprotty-port" style="fill:rgb(48, 48, 48);stroke:rgb(48, 48, 48);"/><text class="clickable sprotty-label port" id="sprotty_ArchitectureBlockImpl$csrng_main_sm/BPortImpl$acmd_i/label" transform="translate(6, 6) translate(20.71875, 14)" style="cursor:default;font-size:12px;perspective-origin:0px 0px;fill:rgb(48, 48, 48);text-anchor:middle;">acmd_i</text></g><g id="sprotty_ArchitectureBlockImpl$csrng_main_sm/BPortImpl$acmd_avail_i" transform="translate(0, 312)" class="triangle"><path d="M 0,0 L 5,2.5 L 0,5 Z" transform="translate(-1.67, -2.5)" class="sprotty-port" style="fill:rgb(48, 48, 48);stroke:rgb(48, 48, 48);"/><text class="clickable sprotty-label port" id="sprotty_ArchitectureBlockImpl$csrng_main_sm/BPortImpl$acmd_avail_i/label" transform="translate(6, 6) translate(37.203125, 14)" style="cursor:default;font-size:12px;perspective-origin:0px 0px;fill:rgb(48, 48, 48);text-anchor:middle;">acmd_avail_i</text></g><g id="sprotty_ArchitectureBlockImpl$csrng_main_sm/BPortImpl$rst_ni" transform="translate(0, 70)" class="triangle"><path d="M 0,0 L 5,2.5 L 0,5 Z" transform="translate(-1.67, -2.5)" class="sprotty-port" style="fill:rgb(48, 48, 48);stroke:rgb(48, 48, 48);"/><text class="clickable sprotty-label port" id="sprotty_ArchitectureBlockImpl$csrng_main_sm/BPortImpl$rst_ni/label" transform="translate(6, 6) translate(15.921875, 14)" style="cursor:default;font-size:12px;perspective-origin:0px 0px;fill:rgb(48, 48, 48);text-anchor:middle;">rst_ni</text></g><g id="sprotty_ArchitectureBlockImpl$csrng_main_sm/BPortImpl$clk_i" transform="translate(0, 36)" class="triangle"><path d="M 0,0 L 5,2.5 L 0,5 Z" transform="translate(-1.67, -2.5)" class="sprotty-port" style="fill:rgb(48, 48, 48);stroke:rgb(48, 48, 48);"/><text class="clickable sprotty-label port" id="sprotty_ArchitectureBlockImpl$csrng_main_sm/BPortImpl$clk_i/label" transform="translate(6, 6) translate(13.09375, 14)" style="cursor:default;font-size:12px;perspective-origin:0px 0px;fill:rgb(48, 48, 48);text-anchor:middle;">clk_i</text></g><g id="sprotty_ArchitectureBlockImpl$csrng_main_sm/BPortImpl$acmd_accept_o" transform="translate(738.78125, 248)" class="triangle"><path d="M 0,0 L 5,2.5 L 0,5 Z" transform="translate(-1.67, -2.5)" class="sprotty-port" style="fill:rgb(48, 48, 48);stroke:rgb(48, 48, 48);"/><text class="clickable sprotty-label port" id="sprotty_ArchitectureBlockImpl$csrng_main_sm/BPortImpl$acmd_accept_o/label" transform="translate(-94.9375, 6) translate(44.46875, 14)" style="cursor:default;font-size:12px;perspective-origin:0px 0px;fill:rgb(48, 48, 48);text-anchor:middle;">acmd_accept_o</text></g><g id="sprotty_ArchitectureBlockImpl$csrng_main_sm/BPortImpl$cmd_entropy_req_o" transform="translate(738.78125, 316)" class="triangle"><path d="M 0,0 L 5,2.5 L 0,5 Z" transform="translate(-1.67, -2.5)" class="sprotty-port" style="fill:rgb(48, 48, 48);stroke:rgb(48, 48, 48);"/><text class="clickable sprotty-label port" id="sprotty_ArchitectureBlockImpl$csrng_main_sm/BPortImpl$cmd_entropy_req_o/label" transform="translate(-120.625, 6) translate(57.3125, 14)" style="cursor:default;font-size:12px;perspective-origin:0px 0px;fill:rgb(48, 48, 48);text-anchor:middle;">cmd_entropy_req_o</text></g><g id="sprotty_ArchitectureBlockImpl$csrng_main_sm/BPortImpl$instant_req_o" transform="translate(738.78125, 384)" class="triangle"><path d="M 0,0 L 5,2.5 L 0,5 Z" transform="translate(-1.67, -2.5)" class="sprotty-port" style="fill:rgb(48, 48, 48);stroke:rgb(48, 48, 48);"/><text class="clickable sprotty-label port" id="sprotty_ArchitectureBlockImpl$csrng_main_sm/BPortImpl$instant_req_o/label" transform="translate(-84.15625, 6) translate(39.078125, 14)" style="cursor:default;font-size:12px;perspective-origin:0px 0px;fill:rgb(48, 48, 48);text-anchor:middle;">instant_req_o</text></g><g id="sprotty_ArchitectureBlockImpl$csrng_main_sm/BPortImpl$reseed_req_o" transform="translate(738.78125, 350)" class="triangle"><path d="M 0,0 L 5,2.5 L 0,5 Z" transform="translate(-1.67, -2.5)" class="sprotty-port" style="fill:rgb(48, 48, 48);stroke:rgb(48, 48, 48);"/><text class="clickable sprotty-label port" id="sprotty_ArchitectureBlockImpl$csrng_main_sm/BPortImpl$reseed_req_o/label" transform="translate(-82.84375, 6) translate(38.421875, 14)" style="cursor:default;font-size:12px;perspective-origin:0px 0px;fill:rgb(48, 48, 48);text-anchor:middle;">reseed_req_o</text></g><g id="sprotty_ArchitectureBlockImpl$csrng_main_sm/BPortImpl$generate_req_o" transform="translate(738.78125, 214)" class="triangle"><path d="M 0,0 L 5,2.5 L 0,5 Z" transform="translate(-1.67, -2.5)" class="sprotty-port" style="fill:rgb(48, 48, 48);stroke:rgb(48, 48, 48);"/><text class="clickable sprotty-label port" id="sprotty_ArchitectureBlockImpl$csrng_main_sm/BPortImpl$generate_req_o/label" transform="translate(-94.4375, 6) translate(44.21875, 14)" style="cursor:default;font-size:12px;perspective-origin:0px 0px;fill:rgb(48, 48, 48);text-anchor:middle;">generate_req_o</text></g><g id="sprotty_ArchitectureBlockImpl$csrng_main_sm/BPortImpl$update_req_o" transform="translate(738.78125, 282)" class="triangle"><path d="M 0,0 L 5,2.5 L 0,5 Z" transform="translate(-1.67, -2.5)" class="sprotty-port" style="fill:rgb(48, 48, 48);stroke:rgb(48, 48, 48);"/><text class="clickable sprotty-label port" id="sprotty_ArchitectureBlockImpl$csrng_main_sm/BPortImpl$update_req_o/label" transform="translate(-85.0625, 6) translate(39.53125, 14)" style="cursor:default;font-size:12px;perspective-origin:0px 0px;fill:rgb(48, 48, 48);text-anchor:middle;">update_req_o</text></g><g id="sprotty_ArchitectureBlockImpl$csrng_main_sm/BPortImpl$uninstant_req_o" transform="translate(738.78125, 452)" class="triangle"><path d="M 0,0 L 5,2.5 L 0,5 Z" transform="translate(-1.67, -2.5)" class="sprotty-port" style="fill:rgb(48, 48, 48);stroke:rgb(48, 48, 48);"/><text class="clickable sprotty-label port" id="sprotty_ArchitectureBlockImpl$csrng_main_sm/BPortImpl$uninstant_req_o/label" transform="translate(-98.78125, 6) translate(46.390625, 14)" style="cursor:default;font-size:12px;perspective-origin:0px 0px;fill:rgb(48, 48, 48);text-anchor:middle;">uninstant_req_o</text></g><g id="sprotty_ArchitectureBlockImpl$csrng_main_sm/BPortImpl$main_sm_err_o" transform="translate(738.78125, 418)" class="triangle"><path d="M 0,0 L 5,2.5 L 0,5 Z" transform="translate(-1.67, -2.5)" class="sprotty-port" style="fill:rgb(48, 48, 48);stroke:rgb(48, 48, 48);"/><text class="clickable sprotty-label port" id="sprotty_ArchitectureBlockImpl$csrng_main_sm/BPortImpl$main_sm_err_o/label" transform="translate(-94.625, 6) translate(44.3125, 14)" style="cursor:default;font-size:12px;perspective-origin:0px 0px;fill:rgb(48, 48, 48);text-anchor:middle;">main_sm_err_o</text></g></g></g></svg>