<svg xmlns="http://www.w3.org/2000/svg" id="sprotty_work.prim_rom_adv" class="sprotty-graph sprotty-block-diagram blockdiagram" style="font-family:&quot;Noto Sans&quot;, Helvetica, Arial, sans-serif;perspective-origin:0px 0px;transform-origin:0px 0px;" version="1.1" viewBox="7 7 361.6875 305" width="361.6875" height="305"><g transform="scale(1) translate(0,0)"><g id="sprotty_ArchitectureBlockImpl$prim_rom_adv" transform="translate(12, 12)" class="architecture"><g class="sprotty-block" style="fill:rgb(255, 255, 255);stroke:rgb(48, 48, 48);stroke-dasharray:0px;"><rect x="0" y="0" rx="1" ry="1" width="351.6875" height="295"/><text x="175.84375" y="12" class="sprotty-block-name" style="cursor:pointer;font-weight:700;perspective-origin:175.844px 0px;fill:rgb(48, 48, 48);stroke:rgba(0, 0, 0, 0);dominant-baseline:middle;text-anchor:middle;">prim_rom_adv</text><line x1="0" y1="20" x2="351.6875" y2="20"/></g><g id="sprotty_ArchitectureBlockImpl$prim_rom_adv/AlwaysBlockImpl$null7/GPortImpl$rvalid_oOUT_to_ArchitectureBlockImpl$prim_rom_adv/BPortImpl$rvalid_o" class="sprotty-edge edge" style="fill:none;stroke:rgb(112, 112, 112);stroke-linejoin:round;"><g><path d="M 173.34765625 55 L 351.6875 55 "/><path d="M 173.34765625 55 L 351.6875 55 " class="clickable"/></g></g><g id="sprotty_ArchitectureBlockImpl$prim_rom_adv/InstantiationBlockImpl$u_prim_rom/BPortImpl$rdata_o_to_ArchitectureBlockImpl$prim_rom_adv/BPortImpl$rdata_o" class="sprotty-edge thick edge" style="fill:none;stroke:rgb(112, 112, 112);stroke-linejoin:round;stroke-width:3px;"><g><path d="M 284.78125 161 L 351.6875 161 "/><path d="M 284.78125 161 L 351.6875 161 " class="clickable"/></g></g><g id="sprotty_ArchitectureBlockImpl$prim_rom_adv/BPortImpl$clk_i_to_ArchitectureBlockImpl$prim_rom_adv/InstantiationBlockImpl$u_prim_rom/BPortImpl$clk_i" class="sprotty-edge edge" style="fill:none;stroke:rgb(112, 112, 112);stroke-linejoin:round;"><g><path d="M 0 133 L 87.3125 133 "/><path d="M 0 133 L 87.3125 133 " class="clickable"/></g></g><g id="sprotty_ArchitectureBlockImpl$prim_rom_adv/BPortImpl$req_i_to_ArchitectureBlockImpl$prim_rom_adv/InstantiationBlockImpl$u_prim_rom/BPortImpl$req_i" class="sprotty-edge edge" style="fill:none;stroke:rgb(112, 112, 112);stroke-linejoin:round;"><g><path d="M 0 167 L 75.3125 167 C 76.3125 167 77.3125 166 77.3125 165 L 77.3125 163 C 77.3125 162 78.3125 161 79.3125 161 L 87.3125 161 "/><path d="M 0 167 L 75.3125 167 C 76.3125 167 77.3125 166 77.3125 165 L 77.3125 163 C 77.3125 162 78.3125 161 79.3125 161 L 87.3125 161 " class="clickable"/></g><circle r="2" id="sprotty_ArchitectureBlockImpl$prim_rom_adv/BPortImpl$req_i_to_ArchitectureBlockImpl$prim_rom_adv/InstantiationBlockImpl$u_prim_rom/BPortImpl$req_i/junction0" transform="translate(77.3125, 161)" class="sprotty-junction junction" style="fill:rgb(112, 112, 112);stroke:none;"/></g><g id="sprotty_ArchitectureBlockImpl$prim_rom_adv/BPortImpl$addr_i_to_ArchitectureBlockImpl$prim_rom_adv/InstantiationBlockImpl$u_prim_rom/BPortImpl$addr_i" class="sprotty-edge thick edge" style="fill:none;stroke:rgb(112, 112, 112);stroke-linejoin:round;stroke-width:3px;"><g><path d="M 0 201 L 65.3125 201 C 66.3125 201 67.3125 200 67.3125 199 L 67.3125 191 C 67.3125 190 68.3125 189 69.3125 189 L 87.3125 189 "/><path d="M 0 201 L 65.3125 201 C 66.3125 201 67.3125 200 67.3125 199 L 67.3125 191 C 67.3125 190 68.3125 189 69.3125 189 L 87.3125 189 " class="clickable"/></g></g><g id="sprotty_ArchitectureBlockImpl$prim_rom_adv/BPortImpl$cfg_i_to_ArchitectureBlockImpl$prim_rom_adv/AssignmentBlockImpl$unused_cfg/GPortImpl$cfg_iIN" class="sprotty-edge thick edge" style="fill:none;stroke:rgb(112, 112, 112);stroke-linejoin:round;stroke-width:3px;"><g><path d="M 0 256 L 47.59375 256 "/><path d="M 0 256 L 47.59375 256 " class="clickable"/></g></g><g id="sprotty_ArchitectureBlockImpl$prim_rom_adv/BPortImpl$clk_i_to_ArchitectureBlockImpl$prim_rom_adv/AlwaysBlockImpl$null7/GPortImpl$clk_iIN" class="sprotty-edge edge" style="fill:none;stroke:rgb(112, 112, 112);stroke-linejoin:round;"><g><path d="M 0 133 L 65.3125 133 C 66.3125 133 67.3125 132 67.3125 131 L 67.3125 57 C 67.3125 56 68.3125 55 69.3125 55 L 124.45703125 55 "/><path d="M 0 133 L 65.3125 133 C 66.3125 133 67.3125 132 67.3125 131 L 67.3125 57 C 67.3125 56 68.3125 55 69.3125 55 L 124.45703125 55 " class="clickable"/></g><circle r="2" id="sprotty_ArchitectureBlockImpl$prim_rom_adv/BPortImpl$clk_i_to_ArchitectureBlockImpl$prim_rom_adv/AlwaysBlockImpl$null7/GPortImpl$clk_iIN/junction0" transform="translate(67.3125, 133)" class="sprotty-junction junction" style="fill:rgb(112, 112, 112);stroke:none;"/></g><g id="sprotty_ArchitectureBlockImpl$prim_rom_adv/BPortImpl$rst_ni_to_ArchitectureBlockImpl$prim_rom_adv/AlwaysBlockImpl$null7/GPortImpl$rst_niIN" class="sprotty-edge edge" style="fill:none;stroke:rgb(112, 112, 112);stroke-linejoin:round;"><g><path d="M 0 45 L 124.45703125 45 "/><path d="M 0 45 L 124.45703125 45 " class="clickable"/></g></g><g id="sprotty_ArchitectureBlockImpl$prim_rom_adv/BPortImpl$req_i_to_ArchitectureBlockImpl$prim_rom_adv/AlwaysBlockImpl$null7/GPortImpl$req_iIN" class="sprotty-edge edge" style="fill:none;stroke:rgb(112, 112, 112);stroke-linejoin:round;"><g><path d="M 0 167 L 75.3125 167 C 76.3125 167 77.3125 166 77.3125 165 L 77.3125 67 C 77.3125 66 78.3125 65 79.3125 65 L 124.45703125 65 "/><path d="M 0 167 L 75.3125 167 C 76.3125 167 77.3125 166 77.3125 165 L 77.3125 67 C 77.3125 66 78.3125 65 79.3125 65 L 124.45703125 65 " class="clickable"/></g></g><g id="sprotty_ArchitectureBlockImpl$prim_rom_adv/AlwaysBlockImpl$null7" transform="translate(124.45703125, 35)" class="statement"><rect x="0" y="0" rx="10" ry="5" width="48.890625" height="40" class="sprotty-node" style="fill:rgb(245, 245, 245);stroke:rgb(112, 112, 112);"/><text class="clickable sprotty-label statementtype" id="sprotty_ArchitectureBlockImpl$prim_rom_adv/AlwaysBlockImpl$null7/labeltype" transform="translate(5, 14) translate(18.828125, 9)" style="cursor:default;font-size:8px;font-weight:700;perspective-origin:0.609375px 0px;fill:rgb(112, 112, 112);text-anchor:middle;">always_ff</text><g id="sprotty_ArchitectureBlockImpl$prim_rom_adv/AlwaysBlockImpl$null7/GPortImpl$req_iIN" transform="translate(0, 30)" class="sprotty-hidden hidden" style="display:block;height:0px;width:0px;"/><g id="sprotty_ArchitectureBlockImpl$prim_rom_adv/AlwaysBlockImpl$null7/GPortImpl$rst_niIN" transform="translate(0, 10)" class="sprotty-hidden hidden" style="display:block;height:0px;width:0px;"/><g id="sprotty_ArchitectureBlockImpl$prim_rom_adv/AlwaysBlockImpl$null7/GPortImpl$clk_iIN" transform="translate(0, 20)" class="sprotty-hidden hidden" style="display:block;height:0px;width:0px;"/><g id="sprotty_ArchitectureBlockImpl$prim_rom_adv/AlwaysBlockImpl$null7/GPortImpl$rvalid_oOUT" transform="translate(48.890625, 20)" class="sprotty-hidden hidden" style="display:block;height:0px;width:0px;"/></g><g id="sprotty_ArchitectureBlockImpl$prim_rom_adv/AssignmentBlockImpl$unused_cfg" transform="translate(47.59375, 245)" class="statement"><rect x="0" y="0" rx="10" ry="5" width="19.71875" height="22" class="sprotty-node" style="fill:rgb(245, 245, 245);stroke:rgb(112, 112, 112);"/><text class="clickable sprotty-label statementtype" id="sprotty_ArchitectureBlockImpl$prim_rom_adv/AssignmentBlockImpl$unused_cfg/labeltype" transform="translate(5, 5) translate(4.71875, 9)" style="cursor:default;font-size:8px;font-weight:700;perspective-origin:0.140625px 0px;fill:rgb(112, 112, 112);text-anchor:middle;">&lt;=</text><g id="sprotty_ArchitectureBlockImpl$prim_rom_adv/AssignmentBlockImpl$unused_cfg/GPortImpl$cfg_iIN" transform="translate(0, 11)" class="sprotty-hidden hidden" style="display:block;height:0px;width:0px;"/></g><g id="sprotty_ArchitectureBlockImpl$prim_rom_adv/InstantiationBlockImpl$u_prim_rom" transform="translate(87.3125, 95)" class="instantiation"><g class="sprotty-block" style="fill:rgb(255, 255, 255);stroke:rgb(48, 48, 48);stroke-dasharray:0px;"><rect x="0" y="0" rx="1" ry="1" width="197.46875" height="112"/><text x="98.734375" y="12" class="sprotty-block-name" style="cursor:pointer;font-weight:700;perspective-origin:98.7344px 0px;fill:rgb(48, 48, 48);stroke:rgba(0, 0, 0, 0);dominant-baseline:middle;text-anchor:middle;">u_prim_rom : prim_rom</text><line x1="0" y1="20" x2="197.46875" y2="20"/></g><g id="sprotty_ArchitectureBlockImpl$prim_rom_adv/InstantiationBlockImpl$u_prim_rom/BPortImpl$addr_i" transform="translate(0, 94)" class="triangle"><path d="M 0,0 L 5,2.5 L 0,5 Z" transform="translate(-1.67, -2.5)" class="sprotty-port" style="fill:rgb(48, 48, 48);stroke:rgb(48, 48, 48);"/><text class="clickable sprotty-label port" id="sprotty_ArchitectureBlockImpl$prim_rom_adv/InstantiationBlockImpl$u_prim_rom/BPortImpl$addr_i/label" transform="translate(6, -9) translate(18.15625, 14)" style="cursor:default;font-size:12px;perspective-origin:0px 0px;fill:rgb(48, 48, 48);text-anchor:middle;">addr_i</text></g><g id="sprotty_ArchitectureBlockImpl$prim_rom_adv/InstantiationBlockImpl$u_prim_rom/BPortImpl$req_i" transform="translate(0, 66)" class="triangle"><path d="M 0,0 L 5,2.5 L 0,5 Z" transform="translate(-1.67, -2.5)" class="sprotty-port" style="fill:rgb(48, 48, 48);stroke:rgb(48, 48, 48);"/><text class="clickable sprotty-label port" id="sprotty_ArchitectureBlockImpl$prim_rom_adv/InstantiationBlockImpl$u_prim_rom/BPortImpl$req_i/label" transform="translate(6, -9) translate(14.3125, 14)" style="cursor:default;font-size:12px;perspective-origin:0px 0px;fill:rgb(48, 48, 48);text-anchor:middle;">req_i</text></g><g id="sprotty_ArchitectureBlockImpl$prim_rom_adv/InstantiationBlockImpl$u_prim_rom/BPortImpl$clk_i" transform="translate(0, 38)" class="triangle"><path d="M 0,0 L 5,2.5 L 0,5 Z" transform="translate(-1.67, -2.5)" class="sprotty-port" style="fill:rgb(48, 48, 48);stroke:rgb(48, 48, 48);"/><text class="clickable sprotty-label port" id="sprotty_ArchitectureBlockImpl$prim_rom_adv/InstantiationBlockImpl$u_prim_rom/BPortImpl$clk_i/label" transform="translate(6, -9) translate(13.09375, 14)" style="cursor:default;font-size:12px;perspective-origin:0px 0px;fill:rgb(48, 48, 48);text-anchor:middle;">clk_i</text></g><g id="sprotty_ArchitectureBlockImpl$prim_rom_adv/InstantiationBlockImpl$u_prim_rom/BPortImpl$rdata_o" transform="translate(197.46875, 66)" class="triangle"><path d="M 0,0 L 5,2.5 L 0,5 Z" transform="translate(-1.67, -2.5)" class="sprotty-port" style="fill:rgb(48, 48, 48);stroke:rgb(48, 48, 48);"/><text class="clickable sprotty-label port" id="sprotty_ArchitectureBlockImpl$prim_rom_adv/InstantiationBlockImpl$u_prim_rom/BPortImpl$rdata_o/label" transform="translate(-49.5625, -9) translate(21.78125, 14)" style="cursor:default;font-size:12px;perspective-origin:0px 0px;fill:rgb(48, 48, 48);text-anchor:middle;">rdata_o</text></g></g><g id="sprotty_ArchitectureBlockImpl$prim_rom_adv/BPortImpl$cfg_i" transform="translate(0, 256)" class="triangle"><path d="M 0,0 L 5,2.5 L 0,5 Z" transform="translate(-1.67, -2.5)" class="sprotty-port" style="fill:rgb(48, 48, 48);stroke:rgb(48, 48, 48);"/><text class="clickable sprotty-label port" id="sprotty_ArchitectureBlockImpl$prim_rom_adv/BPortImpl$cfg_i/label" transform="translate(6, 6) translate(13.296875, 14)" style="cursor:default;font-size:12px;perspective-origin:0px 0px;fill:rgb(48, 48, 48);text-anchor:middle;">cfg_i</text></g><g id="sprotty_ArchitectureBlockImpl$prim_rom_adv/BPortImpl$addr_i" transform="translate(0, 201)" class="triangle"><path d="M 0,0 L 5,2.5 L 0,5 Z" transform="translate(-1.67, -2.5)" class="sprotty-port" style="fill:rgb(48, 48, 48);stroke:rgb(48, 48, 48);"/><text class="clickable sprotty-label port" id="sprotty_ArchitectureBlockImpl$prim_rom_adv/BPortImpl$addr_i/label" transform="translate(6, 6) translate(18.15625, 14)" style="cursor:default;font-size:12px;perspective-origin:0px 0px;fill:rgb(48, 48, 48);text-anchor:middle;">addr_i</text></g><g id="sprotty_ArchitectureBlockImpl$prim_rom_adv/BPortImpl$req_i" transform="translate(0, 167)" class="triangle"><path d="M 0,0 L 5,2.5 L 0,5 Z" transform="translate(-1.67, -2.5)" class="sprotty-port" style="fill:rgb(48, 48, 48);stroke:rgb(48, 48, 48);"/><text class="clickable sprotty-label port" id="sprotty_ArchitectureBlockImpl$prim_rom_adv/BPortImpl$req_i/label" transform="translate(6, 6) translate(14.3125, 14)" style="cursor:default;font-size:12px;perspective-origin:0px 0px;fill:rgb(48, 48, 48);text-anchor:middle;">req_i</text></g><g id="sprotty_ArchitectureBlockImpl$prim_rom_adv/BPortImpl$rst_ni" transform="translate(0, 45)" class="triangle"><path d="M 0,0 L 5,2.5 L 0,5 Z" transform="translate(-1.67, -2.5)" class="sprotty-port" style="fill:rgb(48, 48, 48);stroke:rgb(48, 48, 48);"/><text class="clickable sprotty-label port" id="sprotty_ArchitectureBlockImpl$prim_rom_adv/BPortImpl$rst_ni/label" transform="translate(6, 6) translate(15.921875, 14)" style="cursor:default;font-size:12px;perspective-origin:0px 0px;fill:rgb(48, 48, 48);text-anchor:middle;">rst_ni</text></g><g id="sprotty_ArchitectureBlockImpl$prim_rom_adv/BPortImpl$clk_i" transform="translate(0, 133)" class="triangle"><path d="M 0,0 L 5,2.5 L 0,5 Z" transform="translate(-1.67, -2.5)" class="sprotty-port" style="fill:rgb(48, 48, 48);stroke:rgb(48, 48, 48);"/><text class="clickable sprotty-label port" id="sprotty_ArchitectureBlockImpl$prim_rom_adv/BPortImpl$clk_i/label" transform="translate(6, 6) translate(13.09375, 14)" style="cursor:default;font-size:12px;perspective-origin:0px 0px;fill:rgb(48, 48, 48);text-anchor:middle;">clk_i</text></g><g id="sprotty_ArchitectureBlockImpl$prim_rom_adv/BPortImpl$rvalid_o" transform="translate(351.6875, 55)" class="triangle"><path d="M 0,0 L 5,2.5 L 0,5 Z" transform="translate(-1.67, -2.5)" class="sprotty-port" style="fill:rgb(48, 48, 48);stroke:rgb(48, 48, 48);"/><text class="clickable sprotty-label port" id="sprotty_ArchitectureBlockImpl$prim_rom_adv/BPortImpl$rvalid_o/label" transform="translate(-51.90625, 6) translate(22.953125, 14)" style="cursor:default;font-size:12px;perspective-origin:0px 0px;fill:rgb(48, 48, 48);text-anchor:middle;">rvalid_o</text></g><g id="sprotty_ArchitectureBlockImpl$prim_rom_adv/BPortImpl$rdata_o" transform="translate(351.6875, 161)" class="triangle"><path d="M 0,0 L 5,2.5 L 0,5 Z" transform="translate(-1.67, -2.5)" class="sprotty-port" style="fill:rgb(48, 48, 48);stroke:rgb(48, 48, 48);"/><text class="clickable sprotty-label port" id="sprotty_ArchitectureBlockImpl$prim_rom_adv/BPortImpl$rdata_o/label" transform="translate(-49.5625, 6) translate(21.78125, 14)" style="cursor:default;font-size:12px;perspective-origin:0px 0px;fill:rgb(48, 48, 48);text-anchor:middle;">rdata_o</text></g></g></g></svg>