<svg xmlns="http://www.w3.org/2000/svg" id="sprotty_work.pattgen" class="sprotty-graph sprotty-block-diagram blockdiagram" style="font-family:&quot;Noto Sans&quot;, Helvetica, Arial, sans-serif;perspective-origin:0px 0px;transform-origin:0px 0px;" version="1.1" viewBox="7 7 724.03125 698" width="724.03125" height="698"><g transform="scale(1) translate(0,0)"><g id="sprotty_ArchitectureBlockImpl$pattgen" transform="translate(12, 12)" class="architecture"><g class="sprotty-block" style="fill:rgb(255, 255, 255);stroke:rgb(48, 48, 48);stroke-dasharray:0px;"><rect x="0" y="0" rx="1" ry="1" width="714.03125" height="688"/><text x="357.015625" y="12" class="sprotty-block-name" style="cursor:pointer;font-weight:700;perspective-origin:357.016px 0px;fill:rgb(48, 48, 48);stroke:rgba(0, 0, 0, 0);dominant-baseline:middle;text-anchor:middle;">pattgen</text><line x1="0" y1="20" x2="714.03125" y2="20"/></g><g id="sprotty_ArchitectureBlockImpl$pattgen/InstantiationBlockImpl$u_reg/BPortImpl$tl_o_to_ArchitectureBlockImpl$pattgen/BPortImpl$tl_o" class="sprotty-edge thick edge" style="fill:none;stroke:rgb(112, 112, 112);stroke-linejoin:round;stroke-width:3px;"><g><path d="M 577.0625 73 L 714.03125 73 "/><path d="M 577.0625 73 L 714.03125 73 " class="clickable"/></g></g><g id="sprotty_ArchitectureBlockImpl$pattgen/InstantiationBlockImpl$u_pattgen_core/BPortImpl$pda0_tx_o_to_ArchitectureBlockImpl$pattgen/BPortImpl$cio_pda0_tx_o" class="sprotty-edge edge" style="fill:none;stroke:rgb(112, 112, 112);stroke-linejoin:round;"><g><path d="M 340.65625 289 L 358.65625 289 C 359.65625 289 360.65625 288 360.65625 287 L 360.65625 261 C 360.65625 260 361.65625 259 362.65625 259 L 714.03125 259 "/><path d="M 340.65625 289 L 358.65625 289 C 359.65625 289 360.65625 288 360.65625 287 L 360.65625 261 C 360.65625 260 361.65625 259 362.65625 259 L 714.03125 259 " class="clickable"/></g></g><g id="sprotty_ArchitectureBlockImpl$pattgen/InstantiationBlockImpl$u_pattgen_core/BPortImpl$pcl0_tx_o_to_ArchitectureBlockImpl$pattgen/BPortImpl$cio_pcl0_tx_o" class="sprotty-edge edge" style="fill:none;stroke:rgb(112, 112, 112);stroke-linejoin:round;"><g><path d="M 340.65625 317 L 368.65625 317 C 369.65625 317 370.65625 316 370.65625 315 L 370.65625 295 C 370.65625 294 371.65625 293 372.65625 293 L 714.03125 293 "/><path d="M 340.65625 317 L 368.65625 317 C 369.65625 317 370.65625 316 370.65625 315 L 370.65625 295 C 370.65625 294 371.65625 293 372.65625 293 L 714.03125 293 " class="clickable"/></g></g><g id="sprotty_ArchitectureBlockImpl$pattgen/InstantiationBlockImpl$u_pattgen_core/BPortImpl$pda1_tx_o_to_ArchitectureBlockImpl$pattgen/BPortImpl$cio_pda1_tx_o" class="sprotty-edge edge" style="fill:none;stroke:rgb(112, 112, 112);stroke-linejoin:round;"><g><path d="M 340.65625 345 L 348.65625 345 C 349.65625 345 350.65625 344 350.65625 343 L 350.65625 329 C 350.65625 328 351.65625 327 352.65625 327 L 714.03125 327 "/><path d="M 340.65625 345 L 348.65625 345 C 349.65625 345 350.65625 344 350.65625 343 L 350.65625 329 C 350.65625 328 351.65625 327 352.65625 327 L 714.03125 327 " class="clickable"/></g></g><g id="sprotty_ArchitectureBlockImpl$pattgen/InstantiationBlockImpl$u_pattgen_core/BPortImpl$pcl1_tx_o_to_ArchitectureBlockImpl$pattgen/BPortImpl$cio_pcl1_tx_o" class="sprotty-edge edge" style="fill:none;stroke:rgb(112, 112, 112);stroke-linejoin:round;"><g><path d="M 340.65625 373 L 348.65625 373 C 349.65625 373 350.65625 372 350.65625 371 L 350.65625 363 C 350.65625 362 351.65625 361 352.65625 361 L 714.03125 361 "/><path d="M 340.65625 373 L 348.65625 373 C 349.65625 373 350.65625 372 350.65625 371 L 350.65625 363 C 350.65625 362 351.65625 361 352.65625 361 L 714.03125 361 " class="clickable"/></g></g><g id="sprotty_ArchitectureBlockImpl$pattgen/AssignmentBlockImpl$cio_pda0_tx_en_o/GPortImpl$cio_pda0_tx_en_oOUT_to_ArchitectureBlockImpl$pattgen/BPortImpl$cio_pda0_tx_en_o" class="sprotty-edge edge" style="fill:none;stroke:rgb(112, 112, 112);stroke-linejoin:round;"><g><path d="M 34.71875 484 L 714.03125 484 "/><path d="M 34.71875 484 L 714.03125 484 " class="clickable"/></g></g><g id="sprotty_ArchitectureBlockImpl$pattgen/AssignmentBlockImpl$cio_pcl0_tx_en_o/GPortImpl$cio_pcl0_tx_en_oOUT_to_ArchitectureBlockImpl$pattgen/BPortImpl$cio_pcl0_tx_en_o" class="sprotty-edge edge" style="fill:none;stroke:rgb(112, 112, 112);stroke-linejoin:round;"><g><path d="M 34.71875 539 L 714.03125 539 "/><path d="M 34.71875 539 L 714.03125 539 " class="clickable"/></g></g><g id="sprotty_ArchitectureBlockImpl$pattgen/AssignmentBlockImpl$cio_pda1_tx_en_o/GPortImpl$cio_pda1_tx_en_oOUT_to_ArchitectureBlockImpl$pattgen/BPortImpl$cio_pda1_tx_en_o" class="sprotty-edge edge" style="fill:none;stroke:rgb(112, 112, 112);stroke-linejoin:round;"><g><path d="M 34.71875 594 L 714.03125 594 "/><path d="M 34.71875 594 L 714.03125 594 " class="clickable"/></g></g><g id="sprotty_ArchitectureBlockImpl$pattgen/AssignmentBlockImpl$cio_pcl1_tx_en_o/GPortImpl$cio_pcl1_tx_en_oOUT_to_ArchitectureBlockImpl$pattgen/BPortImpl$cio_pcl1_tx_en_o" class="sprotty-edge edge" style="fill:none;stroke:rgb(112, 112, 112);stroke-linejoin:round;"><g><path d="M 34.71875 649 L 714.03125 649 "/><path d="M 34.71875 649 L 714.03125 649 " class="clickable"/></g></g><g id="sprotty_ArchitectureBlockImpl$pattgen/InstantiationBlockImpl$u_pattgen_core/BPortImpl$intr_done_ch0_o_to_ArchitectureBlockImpl$pattgen/BPortImpl$intr_done_ch0_o" class="sprotty-edge edge" style="fill:none;stroke:rgb(112, 112, 112);stroke-linejoin:round;"><g><path d="M 340.65625 401 L 348.65625 401 C 349.65625 401 350.65625 400 350.65625 399 L 350.65625 397 C 350.65625 396 351.65625 395 352.65625 395 L 714.03125 395 "/><path d="M 340.65625 401 L 348.65625 401 C 349.65625 401 350.65625 400 350.65625 399 L 350.65625 397 C 350.65625 396 351.65625 395 352.65625 395 L 714.03125 395 " class="clickable"/></g></g><g id="sprotty_ArchitectureBlockImpl$pattgen/InstantiationBlockImpl$u_pattgen_core/BPortImpl$intr_done_ch1_o_to_ArchitectureBlockImpl$pattgen/BPortImpl$intr_done_ch1_o" class="sprotty-edge edge" style="fill:none;stroke:rgb(112, 112, 112);stroke-linejoin:round;"><g><path d="M 340.65625 429 L 714.03125 429 "/><path d="M 340.65625 429 L 714.03125 429 " class="clickable"/></g></g><g id="sprotty_ArchitectureBlockImpl$pattgen/BPortImpl$clk_i_to_ArchitectureBlockImpl$pattgen/InstantiationBlockImpl$u_reg/BPortImpl$clk_i" class="sprotty-edge edge" style="fill:none;stroke:rgb(112, 112, 112);stroke-linejoin:round;"><g><path d="M 0 73 L 380.65625 73 "/><path d="M 0 73 L 380.65625 73 " class="clickable"/></g></g><g id="sprotty_ArchitectureBlockImpl$pattgen/BPortImpl$rst_ni_to_ArchitectureBlockImpl$pattgen/InstantiationBlockImpl$u_reg/BPortImpl$rst_ni" class="sprotty-edge edge" style="fill:none;stroke:rgb(112, 112, 112);stroke-linejoin:round;"><g><path d="M 0 345 L 60.84375 345 C 61.84375 345 62.84375 344 62.84375 343 L 62.84375 121 C 62.84375 120 63.84375 119 64.84375 119 L 348.65625 119 C 349.65625 119 350.65625 118 350.65625 117 L 350.65625 103 C 350.65625 102 351.65625 101 352.65625 101 L 380.65625 101 "/><path d="M 0 345 L 60.84375 345 C 61.84375 345 62.84375 344 62.84375 343 L 62.84375 121 C 62.84375 120 63.84375 119 64.84375 119 L 348.65625 119 C 349.65625 119 350.65625 118 350.65625 117 L 350.65625 103 C 350.65625 102 351.65625 101 352.65625 101 L 380.65625 101 " class="clickable"/></g><circle r="2" id="sprotty_ArchitectureBlockImpl$pattgen/BPortImpl$rst_ni_to_ArchitectureBlockImpl$pattgen/InstantiationBlockImpl$u_reg/BPortImpl$rst_ni/junction0" transform="translate(62.84375, 345)" class="sprotty-junction junction" style="fill:rgb(112, 112, 112);stroke:none;"/></g><g id="sprotty_ArchitectureBlockImpl$pattgen/BPortImpl$tl_i_to_ArchitectureBlockImpl$pattgen/InstantiationBlockImpl$u_reg/BPortImpl$tl_i" class="sprotty-edge thick edge" style="fill:none;stroke:rgb(112, 112, 112);stroke-linejoin:round;stroke-width:3px;"><g><path d="M 0 129 L 380.65625 129 "/><path d="M 0 129 L 380.65625 129 " class="clickable"/></g></g><g id="sprotty_ArchitectureBlockImpl$pattgen/BPortImpl$clk_i_to_ArchitectureBlockImpl$pattgen/InstantiationBlockImpl$u_pattgen_core/BPortImpl$clk_i" class="sprotty-edge edge" style="fill:none;stroke:rgb(112, 112, 112);stroke-linejoin:round;"><g><path d="M 0 73 L 80.84375 73 C 81.84375 73 82.84375 74 82.84375 75 L 82.84375 259 C 82.84375 260 83.84375 261 84.84375 261 L 92.84375 261 "/><path d="M 0 73 L 80.84375 73 C 81.84375 73 82.84375 74 82.84375 75 L 82.84375 259 C 82.84375 260 83.84375 261 84.84375 261 L 92.84375 261 " class="clickable"/></g><circle r="2" id="sprotty_ArchitectureBlockImpl$pattgen/BPortImpl$clk_i_to_ArchitectureBlockImpl$pattgen/InstantiationBlockImpl$u_pattgen_core/BPortImpl$clk_i/junction0" transform="translate(82.84375, 73)" class="sprotty-junction junction" style="fill:rgb(112, 112, 112);stroke:none;"/></g><g id="sprotty_ArchitectureBlockImpl$pattgen/BPortImpl$rst_ni_to_ArchitectureBlockImpl$pattgen/InstantiationBlockImpl$u_pattgen_core/BPortImpl$rst_ni" class="sprotty-edge edge" style="fill:none;stroke:rgb(112, 112, 112);stroke-linejoin:round;"><g><path d="M 0 345 L 92.84375 345 "/><path d="M 0 345 L 92.84375 345 " class="clickable"/></g></g><g id="sprotty_ArchitectureBlockImpl$pattgen/InstantiationBlockImpl$u_reg/BPortImpl$reg2hw_to_ArchitectureBlockImpl$pattgen/InstantiationBlockImpl$u_pattgen_core/BPortImpl$reg2hw" class="sprotty-edge thick edge" style="fill:none;stroke:rgb(112, 112, 112);stroke-linejoin:round;stroke-width:3px;"><g><path d="M 577.0625 185 L 585.0625 185 C 586.0625 185 587.0625 186 587.0625 187 L 587.0625 211 C 587.0625 212 586.0625 213 585.0625 213 L 74.84375 213 C 73.84375 213 72.84375 214 72.84375 215 L 72.84375 427 C 72.84375 428 73.84375 429 74.84375 429 L 92.84375 429 "/><path d="M 577.0625 185 L 585.0625 185 C 586.0625 185 587.0625 186 587.0625 187 L 587.0625 211 C 587.0625 212 586.0625 213 585.0625 213 L 74.84375 213 C 73.84375 213 72.84375 214 72.84375 215 L 72.84375 427 C 72.84375 428 73.84375 429 74.84375 429 L 92.84375 429 " class="clickable"/></g></g><g id="sprotty_ArchitectureBlockImpl$pattgen/InstantiationBlockImpl$u_pattgen_core/BPortImpl$hw2reg_to_ArchitectureBlockImpl$pattgen/InstantiationBlockImpl$u_reg/BPortImpl$hw2reg" class="sprotty-edge thick edge" style="fill:none;stroke:rgb(112, 112, 112);stroke-linejoin:round;stroke-width:3px;"><g><path d="M 340.65625 261 L 348.65625 261 C 349.65625 261 350.65625 260 350.65625 259 L 350.65625 159 C 350.65625 158 351.65625 157 352.65625 157 L 380.65625 157 "/><path d="M 340.65625 261 L 348.65625 261 C 349.65625 261 350.65625 260 350.65625 259 L 350.65625 159 C 350.65625 158 351.65625 157 352.65625 157 L 380.65625 157 " class="clickable"/></g></g><g id="sprotty_ArchitectureBlockImpl$pattgen/AssignmentBlockImpl$cio_pcl1_tx_en_o" transform="translate(15, 638)" class="statement"><rect x="0" y="0" rx="10" ry="5" width="19.71875" height="22" class="sprotty-node" style="fill:rgb(245, 245, 245);stroke:rgb(112, 112, 112);"/><text class="clickable sprotty-label statementtype" id="sprotty_ArchitectureBlockImpl$pattgen/AssignmentBlockImpl$cio_pcl1_tx_en_o/labeltype" transform="translate(5, 5) translate(4.71875, 9)" style="cursor:default;font-size:8px;font-weight:700;perspective-origin:0.140625px 0px;fill:rgb(112, 112, 112);text-anchor:middle;">&lt;=</text><g id="sprotty_ArchitectureBlockImpl$pattgen/AssignmentBlockImpl$cio_pcl1_tx_en_o/GPortImpl$cio_pcl1_tx_en_oOUT" transform="translate(19.71875, 11)" class="sprotty-hidden hidden" style="display:block;height:0px;width:0px;"/></g><g id="sprotty_ArchitectureBlockImpl$pattgen/AssignmentBlockImpl$cio_pda1_tx_en_o" transform="translate(15, 583)" class="statement"><rect x="0" y="0" rx="10" ry="5" width="19.71875" height="22" class="sprotty-node" style="fill:rgb(245, 245, 245);stroke:rgb(112, 112, 112);"/><text class="clickable sprotty-label statementtype" id="sprotty_ArchitectureBlockImpl$pattgen/AssignmentBlockImpl$cio_pda1_tx_en_o/labeltype" transform="translate(5, 5) translate(4.71875, 9)" style="cursor:default;font-size:8px;font-weight:700;perspective-origin:0.140625px 0px;fill:rgb(112, 112, 112);text-anchor:middle;">&lt;=</text><g id="sprotty_ArchitectureBlockImpl$pattgen/AssignmentBlockImpl$cio_pda1_tx_en_o/GPortImpl$cio_pda1_tx_en_oOUT" transform="translate(19.71875, 11)" class="sprotty-hidden hidden" style="display:block;height:0px;width:0px;"/></g><g id="sprotty_ArchitectureBlockImpl$pattgen/AssignmentBlockImpl$cio_pcl0_tx_en_o" transform="translate(15, 528)" class="statement"><rect x="0" y="0" rx="10" ry="5" width="19.71875" height="22" class="sprotty-node" style="fill:rgb(245, 245, 245);stroke:rgb(112, 112, 112);"/><text class="clickable sprotty-label statementtype" id="sprotty_ArchitectureBlockImpl$pattgen/AssignmentBlockImpl$cio_pcl0_tx_en_o/labeltype" transform="translate(5, 5) translate(4.71875, 9)" style="cursor:default;font-size:8px;font-weight:700;perspective-origin:0.140625px 0px;fill:rgb(112, 112, 112);text-anchor:middle;">&lt;=</text><g id="sprotty_ArchitectureBlockImpl$pattgen/AssignmentBlockImpl$cio_pcl0_tx_en_o/GPortImpl$cio_pcl0_tx_en_oOUT" transform="translate(19.71875, 11)" class="sprotty-hidden hidden" style="display:block;height:0px;width:0px;"/></g><g id="sprotty_ArchitectureBlockImpl$pattgen/AssignmentBlockImpl$cio_pda0_tx_en_o" transform="translate(15, 473)" class="statement"><rect x="0" y="0" rx="10" ry="5" width="19.71875" height="22" class="sprotty-node" style="fill:rgb(245, 245, 245);stroke:rgb(112, 112, 112);"/><text class="clickable sprotty-label statementtype" id="sprotty_ArchitectureBlockImpl$pattgen/AssignmentBlockImpl$cio_pda0_tx_en_o/labeltype" transform="translate(5, 5) translate(4.71875, 9)" style="cursor:default;font-size:8px;font-weight:700;perspective-origin:0.140625px 0px;fill:rgb(112, 112, 112);text-anchor:middle;">&lt;=</text><g id="sprotty_ArchitectureBlockImpl$pattgen/AssignmentBlockImpl$cio_pda0_tx_en_o/GPortImpl$cio_pda0_tx_en_oOUT" transform="translate(19.71875, 11)" class="sprotty-hidden hidden" style="display:block;height:0px;width:0px;"/></g><g id="sprotty_ArchitectureBlockImpl$pattgen/InstantiationBlockImpl$u_pattgen_core" transform="translate(92.84375, 223)" class="instantiation"><g class="sprotty-block" style="fill:rgb(255, 255, 255);stroke:rgb(48, 48, 48);stroke-dasharray:0px;"><rect x="0" y="0" rx="1" ry="1" width="247.8125" height="224"/><text x="123.90625" y="12" class="sprotty-block-name" style="cursor:pointer;font-weight:700;perspective-origin:123.906px 0px;fill:rgb(48, 48, 48);stroke:rgba(0, 0, 0, 0);dominant-baseline:middle;text-anchor:middle;">u_pattgen_core : pattgen_core</text><line x1="0" y1="20" x2="247.8125" y2="20"/></g><g id="sprotty_ArchitectureBlockImpl$pattgen/InstantiationBlockImpl$u_pattgen_core/BPortImpl$reg2hw" transform="translate(0, 206)" class="triangle"><path d="M 0,0 L 5,2.5 L 0,5 Z" transform="translate(-1.67, -2.5)" class="sprotty-port" style="fill:rgb(48, 48, 48);stroke:rgb(48, 48, 48);"/><text class="clickable sprotty-label port" id="sprotty_ArchitectureBlockImpl$pattgen/InstantiationBlockImpl$u_pattgen_core/BPortImpl$reg2hw/label" transform="translate(6, -9) translate(20.6875, 14)" style="cursor:default;font-size:12px;perspective-origin:0.1875px 0px;fill:rgb(48, 48, 48);text-anchor:middle;">reg2hw</text></g><g id="sprotty_ArchitectureBlockImpl$pattgen/InstantiationBlockImpl$u_pattgen_core/BPortImpl$rst_ni" transform="translate(0, 122)" class="triangle"><path d="M 0,0 L 5,2.5 L 0,5 Z" transform="translate(-1.67, -2.5)" class="sprotty-port" style="fill:rgb(48, 48, 48);stroke:rgb(48, 48, 48);"/><text class="clickable sprotty-label port" id="sprotty_ArchitectureBlockImpl$pattgen/InstantiationBlockImpl$u_pattgen_core/BPortImpl$rst_ni/label" transform="translate(6, -9) translate(15.921875, 14)" style="cursor:default;font-size:12px;perspective-origin:0px 0px;fill:rgb(48, 48, 48);text-anchor:middle;">rst_ni</text></g><g id="sprotty_ArchitectureBlockImpl$pattgen/InstantiationBlockImpl$u_pattgen_core/BPortImpl$clk_i" transform="translate(0, 38)" class="triangle"><path d="M 0,0 L 5,2.5 L 0,5 Z" transform="translate(-1.67, -2.5)" class="sprotty-port" style="fill:rgb(48, 48, 48);stroke:rgb(48, 48, 48);"/><text class="clickable sprotty-label port" id="sprotty_ArchitectureBlockImpl$pattgen/InstantiationBlockImpl$u_pattgen_core/BPortImpl$clk_i/label" transform="translate(6, -9) translate(13.09375, 14)" style="cursor:default;font-size:12px;perspective-origin:0px 0px;fill:rgb(48, 48, 48);text-anchor:middle;">clk_i</text></g><g id="sprotty_ArchitectureBlockImpl$pattgen/InstantiationBlockImpl$u_pattgen_core/BPortImpl$hw2reg" transform="translate(247.8125, 38)" class="triangle"><path d="M 0,0 L 5,2.5 L 0,5 Z" transform="translate(-1.67, -2.5)" class="sprotty-port" style="fill:rgb(48, 48, 48);stroke:rgb(48, 48, 48);"/><text class="clickable sprotty-label port" id="sprotty_ArchitectureBlockImpl$pattgen/InstantiationBlockImpl$u_pattgen_core/BPortImpl$hw2reg/label" transform="translate(-47.625, -9) translate(20.6875, 14)" style="cursor:default;font-size:12px;perspective-origin:0.125px 0px;fill:rgb(48, 48, 48);text-anchor:middle;">hw2reg</text></g><g id="sprotty_ArchitectureBlockImpl$pattgen/InstantiationBlockImpl$u_pattgen_core/BPortImpl$pda0_tx_o" transform="translate(247.8125, 66)" class="triangle"><path d="M 0,0 L 5,2.5 L 0,5 Z" transform="translate(-1.67, -2.5)" class="sprotty-port" style="fill:rgb(48, 48, 48);stroke:rgb(48, 48, 48);"/><text class="clickable sprotty-label port" id="sprotty_ArchitectureBlockImpl$pattgen/InstantiationBlockImpl$u_pattgen_core/BPortImpl$pda0_tx_o/label" transform="translate(-65.28125, -9) translate(29.640625, 14)" style="cursor:default;font-size:12px;perspective-origin:0px 0px;fill:rgb(48, 48, 48);text-anchor:middle;">pda0_tx_o</text></g><g id="sprotty_ArchitectureBlockImpl$pattgen/InstantiationBlockImpl$u_pattgen_core/BPortImpl$pcl0_tx_o" transform="translate(247.8125, 94)" class="triangle"><path d="M 0,0 L 5,2.5 L 0,5 Z" transform="translate(-1.67, -2.5)" class="sprotty-port" style="fill:rgb(48, 48, 48);stroke:rgb(48, 48, 48);"/><text class="clickable sprotty-label port" id="sprotty_ArchitectureBlockImpl$pattgen/InstantiationBlockImpl$u_pattgen_core/BPortImpl$pcl0_tx_o/label" transform="translate(-60.625, -9) translate(27.3125, 14)" style="cursor:default;font-size:12px;perspective-origin:0px 0px;fill:rgb(48, 48, 48);text-anchor:middle;">pcl0_tx_o</text></g><g id="sprotty_ArchitectureBlockImpl$pattgen/InstantiationBlockImpl$u_pattgen_core/BPortImpl$pda1_tx_o" transform="translate(247.8125, 122)" class="triangle"><path d="M 0,0 L 5,2.5 L 0,5 Z" transform="translate(-1.67, -2.5)" class="sprotty-port" style="fill:rgb(48, 48, 48);stroke:rgb(48, 48, 48);"/><text class="clickable sprotty-label port" id="sprotty_ArchitectureBlockImpl$pattgen/InstantiationBlockImpl$u_pattgen_core/BPortImpl$pda1_tx_o/label" transform="translate(-65.28125, -9) translate(29.640625, 14)" style="cursor:default;font-size:12px;perspective-origin:0px 0px;fill:rgb(48, 48, 48);text-anchor:middle;">pda1_tx_o</text></g><g id="sprotty_ArchitectureBlockImpl$pattgen/InstantiationBlockImpl$u_pattgen_core/BPortImpl$pcl1_tx_o" transform="translate(247.8125, 150)" class="triangle"><path d="M 0,0 L 5,2.5 L 0,5 Z" transform="translate(-1.67, -2.5)" class="sprotty-port" style="fill:rgb(48, 48, 48);stroke:rgb(48, 48, 48);"/><text class="clickable sprotty-label port" id="sprotty_ArchitectureBlockImpl$pattgen/InstantiationBlockImpl$u_pattgen_core/BPortImpl$pcl1_tx_o/label" transform="translate(-60.625, -9) translate(27.3125, 14)" style="cursor:default;font-size:12px;perspective-origin:0px 0px;fill:rgb(48, 48, 48);text-anchor:middle;">pcl1_tx_o</text></g><g id="sprotty_ArchitectureBlockImpl$pattgen/InstantiationBlockImpl$u_pattgen_core/BPortImpl$intr_done_ch0_o" transform="translate(247.8125, 178)" class="triangle"><path d="M 0,0 L 5,2.5 L 0,5 Z" transform="translate(-1.67, -2.5)" class="sprotty-port" style="fill:rgb(48, 48, 48);stroke:rgb(48, 48, 48);"/><text class="clickable sprotty-label port" id="sprotty_ArchitectureBlockImpl$pattgen/InstantiationBlockImpl$u_pattgen_core/BPortImpl$intr_done_ch0_o/label" transform="translate(-101.96875, -9) translate(47.984375, 14)" style="cursor:default;font-size:12px;perspective-origin:0px 0px;fill:rgb(48, 48, 48);text-anchor:middle;">intr_done_ch0_o</text></g><g id="sprotty_ArchitectureBlockImpl$pattgen/InstantiationBlockImpl$u_pattgen_core/BPortImpl$intr_done_ch1_o" transform="translate(247.8125, 206)" class="triangle"><path d="M 0,0 L 5,2.5 L 0,5 Z" transform="translate(-1.67, -2.5)" class="sprotty-port" style="fill:rgb(48, 48, 48);stroke:rgb(48, 48, 48);"/><text class="clickable sprotty-label port" id="sprotty_ArchitectureBlockImpl$pattgen/InstantiationBlockImpl$u_pattgen_core/BPortImpl$intr_done_ch1_o/label" transform="translate(-101.96875, -9) translate(47.984375, 14)" style="cursor:default;font-size:12px;perspective-origin:0px 0px;fill:rgb(48, 48, 48);text-anchor:middle;">intr_done_ch1_o</text></g></g><g id="sprotty_ArchitectureBlockImpl$pattgen/InstantiationBlockImpl$u_reg" transform="translate(380.65625, 35)" class="instantiation"><g class="sprotty-block" style="fill:rgb(255, 255, 255);stroke:rgb(48, 48, 48);stroke-dasharray:0px;"><rect x="0" y="0" rx="1" ry="1" width="196.40625" height="168"/><text x="98.203125" y="12" class="sprotty-block-name" style="cursor:pointer;font-weight:700;perspective-origin:98.2031px 0px;fill:rgb(48, 48, 48);stroke:rgba(0, 0, 0, 0);dominant-baseline:middle;text-anchor:middle;">u_reg : pattgen_reg_top</text><line x1="0" y1="20" x2="196.40625" y2="20"/></g><g id="sprotty_ArchitectureBlockImpl$pattgen/InstantiationBlockImpl$u_reg/BPortImpl$devmode_i" transform="translate(0, 150)" class="triangle"><path d="M 0,0 L 5,2.5 L 0,5 Z" transform="translate(-1.67, -2.5)" class="sprotty-port" style="fill:rgb(48, 48, 48);stroke:rgb(48, 48, 48);"/><text class="clickable sprotty-label port" id="sprotty_ArchitectureBlockImpl$pattgen/InstantiationBlockImpl$u_reg/BPortImpl$devmode_i/label" transform="translate(6, -9) translate(31.453125, 14)" style="cursor:default;font-size:12px;perspective-origin:0px 0px;fill:rgb(48, 48, 48);text-anchor:middle;">devmode_i</text></g><g id="sprotty_ArchitectureBlockImpl$pattgen/InstantiationBlockImpl$u_reg/BPortImpl$hw2reg" transform="translate(0, 122)" class="triangle"><path d="M 0,0 L 5,2.5 L 0,5 Z" transform="translate(-1.67, -2.5)" class="sprotty-port" style="fill:rgb(48, 48, 48);stroke:rgb(48, 48, 48);"/><text class="clickable sprotty-label port" id="sprotty_ArchitectureBlockImpl$pattgen/InstantiationBlockImpl$u_reg/BPortImpl$hw2reg/label" transform="translate(6, -9) translate(20.6875, 14)" style="cursor:default;font-size:12px;perspective-origin:0.125px 0px;fill:rgb(48, 48, 48);text-anchor:middle;">hw2reg</text></g><g id="sprotty_ArchitectureBlockImpl$pattgen/InstantiationBlockImpl$u_reg/BPortImpl$tl_i" transform="translate(0, 94)" class="triangle"><path d="M 0,0 L 5,2.5 L 0,5 Z" transform="translate(-1.67, -2.5)" class="sprotty-port" style="fill:rgb(48, 48, 48);stroke:rgb(48, 48, 48);"/><text class="clickable sprotty-label port" id="sprotty_ArchitectureBlockImpl$pattgen/InstantiationBlockImpl$u_reg/BPortImpl$tl_i/label" transform="translate(6, -9) translate(8.984375, 14)" style="cursor:default;font-size:12px;perspective-origin:0px 0px;fill:rgb(48, 48, 48);text-anchor:middle;">tl_i</text></g><g id="sprotty_ArchitectureBlockImpl$pattgen/InstantiationBlockImpl$u_reg/BPortImpl$rst_ni" transform="translate(0, 66)" class="triangle"><path d="M 0,0 L 5,2.5 L 0,5 Z" transform="translate(-1.67, -2.5)" class="sprotty-port" style="fill:rgb(48, 48, 48);stroke:rgb(48, 48, 48);"/><text class="clickable sprotty-label port" id="sprotty_ArchitectureBlockImpl$pattgen/InstantiationBlockImpl$u_reg/BPortImpl$rst_ni/label" transform="translate(6, -9) translate(15.921875, 14)" style="cursor:default;font-size:12px;perspective-origin:0px 0px;fill:rgb(48, 48, 48);text-anchor:middle;">rst_ni</text></g><g id="sprotty_ArchitectureBlockImpl$pattgen/InstantiationBlockImpl$u_reg/BPortImpl$clk_i" transform="translate(0, 38)" class="triangle"><path d="M 0,0 L 5,2.5 L 0,5 Z" transform="translate(-1.67, -2.5)" class="sprotty-port" style="fill:rgb(48, 48, 48);stroke:rgb(48, 48, 48);"/><text class="clickable sprotty-label port" id="sprotty_ArchitectureBlockImpl$pattgen/InstantiationBlockImpl$u_reg/BPortImpl$clk_i/label" transform="translate(6, -9) translate(13.09375, 14)" style="cursor:default;font-size:12px;perspective-origin:0px 0px;fill:rgb(48, 48, 48);text-anchor:middle;">clk_i</text></g><g id="sprotty_ArchitectureBlockImpl$pattgen/InstantiationBlockImpl$u_reg/BPortImpl$tl_o" transform="translate(196.40625, 38)" class="triangle"><path d="M 0,0 L 5,2.5 L 0,5 Z" transform="translate(-1.67, -2.5)" class="sprotty-port" style="fill:rgb(48, 48, 48);stroke:rgb(48, 48, 48);"/><text class="clickable sprotty-label port" id="sprotty_ArchitectureBlockImpl$pattgen/InstantiationBlockImpl$u_reg/BPortImpl$tl_o/label" transform="translate(-27.9375, -9) translate(10.96875, 14)" style="cursor:default;font-size:12px;perspective-origin:0px 0px;fill:rgb(48, 48, 48);text-anchor:middle;">tl_o</text></g><g id="sprotty_ArchitectureBlockImpl$pattgen/InstantiationBlockImpl$u_reg/BPortImpl$reg2hw" transform="translate(196.40625, 150)" class="triangle"><path d="M 0,0 L 5,2.5 L 0,5 Z" transform="translate(-1.67, -2.5)" class="sprotty-port" style="fill:rgb(48, 48, 48);stroke:rgb(48, 48, 48);"/><text class="clickable sprotty-label port" id="sprotty_ArchitectureBlockImpl$pattgen/InstantiationBlockImpl$u_reg/BPortImpl$reg2hw/label" transform="translate(-47.75, -9) translate(20.6875, 14)" style="cursor:default;font-size:12px;perspective-origin:0.1875px 0px;fill:rgb(48, 48, 48);text-anchor:middle;">reg2hw</text></g></g><g id="sprotty_ArchitectureBlockImpl$pattgen/BPortImpl$tl_i" transform="translate(0, 129)" class="triangle"><path d="M 0,0 L 5,2.5 L 0,5 Z" transform="translate(-1.67, -2.5)" class="sprotty-port" style="fill:rgb(48, 48, 48);stroke:rgb(48, 48, 48);"/><text class="clickable sprotty-label port" id="sprotty_ArchitectureBlockImpl$pattgen/BPortImpl$tl_i/label" transform="translate(6, 6) translate(8.984375, 14)" style="cursor:default;font-size:12px;perspective-origin:0px 0px;fill:rgb(48, 48, 48);text-anchor:middle;">tl_i</text></g><g id="sprotty_ArchitectureBlockImpl$pattgen/BPortImpl$rst_ni" transform="translate(0, 345)" class="triangle"><path d="M 0,0 L 5,2.5 L 0,5 Z" transform="translate(-1.67, -2.5)" class="sprotty-port" style="fill:rgb(48, 48, 48);stroke:rgb(48, 48, 48);"/><text class="clickable sprotty-label port" id="sprotty_ArchitectureBlockImpl$pattgen/BPortImpl$rst_ni/label" transform="translate(6, 6) translate(15.921875, 14)" style="cursor:default;font-size:12px;perspective-origin:0px 0px;fill:rgb(48, 48, 48);text-anchor:middle;">rst_ni</text></g><g id="sprotty_ArchitectureBlockImpl$pattgen/BPortImpl$clk_i" transform="translate(0, 73)" class="triangle"><path d="M 0,0 L 5,2.5 L 0,5 Z" transform="translate(-1.67, -2.5)" class="sprotty-port" style="fill:rgb(48, 48, 48);stroke:rgb(48, 48, 48);"/><text class="clickable sprotty-label port" id="sprotty_ArchitectureBlockImpl$pattgen/BPortImpl$clk_i/label" transform="translate(6, 6) translate(13.09375, 14)" style="cursor:default;font-size:12px;perspective-origin:0px 0px;fill:rgb(48, 48, 48);text-anchor:middle;">clk_i</text></g><g id="sprotty_ArchitectureBlockImpl$pattgen/BPortImpl$tl_o" transform="translate(714.03125, 73)" class="triangle"><path d="M 0,0 L 5,2.5 L 0,5 Z" transform="translate(-1.67, -2.5)" class="sprotty-port" style="fill:rgb(48, 48, 48);stroke:rgb(48, 48, 48);"/><text class="clickable sprotty-label port" id="sprotty_ArchitectureBlockImpl$pattgen/BPortImpl$tl_o/label" transform="translate(-27.9375, 6) translate(10.96875, 14)" style="cursor:default;font-size:12px;perspective-origin:0px 0px;fill:rgb(48, 48, 48);text-anchor:middle;">tl_o</text></g><g id="sprotty_ArchitectureBlockImpl$pattgen/BPortImpl$cio_pda0_tx_o" transform="translate(714.03125, 259)" class="triangle"><path d="M 0,0 L 5,2.5 L 0,5 Z" transform="translate(-1.67, -2.5)" class="sprotty-port" style="fill:rgb(48, 48, 48);stroke:rgb(48, 48, 48);"/><text class="clickable sprotty-label port" id="sprotty_ArchitectureBlockImpl$pattgen/BPortImpl$cio_pda0_tx_o/label" transform="translate(-88.6875, 6) translate(41.34375, 14)" style="cursor:default;font-size:12px;perspective-origin:0px 0px;fill:rgb(48, 48, 48);text-anchor:middle;">cio_pda0_tx_o</text></g><g id="sprotty_ArchitectureBlockImpl$pattgen/BPortImpl$cio_pcl0_tx_o" transform="translate(714.03125, 293)" class="triangle"><path d="M 0,0 L 5,2.5 L 0,5 Z" transform="translate(-1.67, -2.5)" class="sprotty-port" style="fill:rgb(48, 48, 48);stroke:rgb(48, 48, 48);"/><text class="clickable sprotty-label port" id="sprotty_ArchitectureBlockImpl$pattgen/BPortImpl$cio_pcl0_tx_o/label" transform="translate(-84, 6) translate(39, 14)" style="cursor:default;font-size:12px;perspective-origin:0px 0px;fill:rgb(48, 48, 48);text-anchor:middle;">cio_pcl0_tx_o</text></g><g id="sprotty_ArchitectureBlockImpl$pattgen/BPortImpl$cio_pda1_tx_o" transform="translate(714.03125, 327)" class="triangle"><path d="M 0,0 L 5,2.5 L 0,5 Z" transform="translate(-1.67, -2.5)" class="sprotty-port" style="fill:rgb(48, 48, 48);stroke:rgb(48, 48, 48);"/><text class="clickable sprotty-label port" id="sprotty_ArchitectureBlockImpl$pattgen/BPortImpl$cio_pda1_tx_o/label" transform="translate(-88.6875, 6) translate(41.34375, 14)" style="cursor:default;font-size:12px;perspective-origin:0px 0px;fill:rgb(48, 48, 48);text-anchor:middle;">cio_pda1_tx_o</text></g><g id="sprotty_ArchitectureBlockImpl$pattgen/BPortImpl$cio_pcl1_tx_o" transform="translate(714.03125, 361)" class="triangle"><path d="M 0,0 L 5,2.5 L 0,5 Z" transform="translate(-1.67, -2.5)" class="sprotty-port" style="fill:rgb(48, 48, 48);stroke:rgb(48, 48, 48);"/><text class="clickable sprotty-label port" id="sprotty_ArchitectureBlockImpl$pattgen/BPortImpl$cio_pcl1_tx_o/label" transform="translate(-84, 6) translate(39, 14)" style="cursor:default;font-size:12px;perspective-origin:0px 0px;fill:rgb(48, 48, 48);text-anchor:middle;">cio_pcl1_tx_o</text></g><g id="sprotty_ArchitectureBlockImpl$pattgen/BPortImpl$cio_pda0_tx_en_o" transform="translate(714.03125, 484)" class="triangle"><path d="M 0,0 L 5,2.5 L 0,5 Z" transform="translate(-1.67, -2.5)" class="sprotty-port" style="fill:rgb(48, 48, 48);stroke:rgb(48, 48, 48);"/><text class="clickable sprotty-label port" id="sprotty_ArchitectureBlockImpl$pattgen/BPortImpl$cio_pda0_tx_en_o/label" transform="translate(-109.375, 6) translate(51.6875, 14)" style="cursor:default;font-size:12px;perspective-origin:0px 0px;fill:rgb(48, 48, 48);text-anchor:middle;">cio_pda0_tx_en_o</text></g><g id="sprotty_ArchitectureBlockImpl$pattgen/BPortImpl$cio_pcl0_tx_en_o" transform="translate(714.03125, 539)" class="triangle"><path d="M 0,0 L 5,2.5 L 0,5 Z" transform="translate(-1.67, -2.5)" class="sprotty-port" style="fill:rgb(48, 48, 48);stroke:rgb(48, 48, 48);"/><text class="clickable sprotty-label port" id="sprotty_ArchitectureBlockImpl$pattgen/BPortImpl$cio_pcl0_tx_en_o/label" transform="translate(-104.6875, 6) translate(49.34375, 14)" style="cursor:default;font-size:12px;perspective-origin:0px 0px;fill:rgb(48, 48, 48);text-anchor:middle;">cio_pcl0_tx_en_o</text></g><g id="sprotty_ArchitectureBlockImpl$pattgen/BPortImpl$cio_pda1_tx_en_o" transform="translate(714.03125, 594)" class="triangle"><path d="M 0,0 L 5,2.5 L 0,5 Z" transform="translate(-1.67, -2.5)" class="sprotty-port" style="fill:rgb(48, 48, 48);stroke:rgb(48, 48, 48);"/><text class="clickable sprotty-label port" id="sprotty_ArchitectureBlockImpl$pattgen/BPortImpl$cio_pda1_tx_en_o/label" transform="translate(-109.375, 6) translate(51.6875, 14)" style="cursor:default;font-size:12px;perspective-origin:0px 0px;fill:rgb(48, 48, 48);text-anchor:middle;">cio_pda1_tx_en_o</text></g><g id="sprotty_ArchitectureBlockImpl$pattgen/BPortImpl$cio_pcl1_tx_en_o" transform="translate(714.03125, 649)" class="triangle"><path d="M 0,0 L 5,2.5 L 0,5 Z" transform="translate(-1.67, -2.5)" class="sprotty-port" style="fill:rgb(48, 48, 48);stroke:rgb(48, 48, 48);"/><text class="clickable sprotty-label port" id="sprotty_ArchitectureBlockImpl$pattgen/BPortImpl$cio_pcl1_tx_en_o/label" transform="translate(-104.6875, 6) translate(49.34375, 14)" style="cursor:default;font-size:12px;perspective-origin:0px 0px;fill:rgb(48, 48, 48);text-anchor:middle;">cio_pcl1_tx_en_o</text></g><g id="sprotty_ArchitectureBlockImpl$pattgen/BPortImpl$intr_done_ch0_o" transform="translate(714.03125, 395)" class="triangle"><path d="M 0,0 L 5,2.5 L 0,5 Z" transform="translate(-1.67, -2.5)" class="sprotty-port" style="fill:rgb(48, 48, 48);stroke:rgb(48, 48, 48);"/><text class="clickable sprotty-label port" id="sprotty_ArchitectureBlockImpl$pattgen/BPortImpl$intr_done_ch0_o/label" transform="translate(-101.96875, 6) translate(47.984375, 14)" style="cursor:default;font-size:12px;perspective-origin:0px 0px;fill:rgb(48, 48, 48);text-anchor:middle;">intr_done_ch0_o</text></g><g id="sprotty_ArchitectureBlockImpl$pattgen/BPortImpl$intr_done_ch1_o" transform="translate(714.03125, 429)" class="triangle"><path d="M 0,0 L 5,2.5 L 0,5 Z" transform="translate(-1.67, -2.5)" class="sprotty-port" style="fill:rgb(48, 48, 48);stroke:rgb(48, 48, 48);"/><text class="clickable sprotty-label port" id="sprotty_ArchitectureBlockImpl$pattgen/BPortImpl$intr_done_ch1_o/label" transform="translate(-101.96875, 6) translate(47.984375, 14)" style="cursor:default;font-size:12px;perspective-origin:0px 0px;fill:rgb(48, 48, 48);text-anchor:middle;">intr_done_ch1_o</text></g></g></g></svg>