<svg xmlns="http://www.w3.org/2000/svg" id="sprotty_work.prim_generic_ram_1p" class="sprotty-graph sprotty-block-diagram blockdiagram" style="font-family:&quot;Noto Sans&quot;, Helvetica, Arial, sans-serif;perspective-origin:0px 0px;transform-origin:0px 0px;" version="1.1" viewBox="7 7 345.234375 282" width="345.234375" height="282"><g transform="scale(1) translate(0,0)"><g id="sprotty_ArchitectureBlockImpl$prim_generic_ram_1p" transform="translate(12, 12)" class="architecture"><g class="sprotty-block" style="fill:rgb(255, 255, 255);stroke:rgb(48, 48, 48);stroke-dasharray:0px;"><rect x="0" y="0" rx="1" ry="1" width="335.234375" height="272"/><text x="167.6171875" y="12" class="sprotty-block-name" style="cursor:pointer;font-weight:700;perspective-origin:167.609px 0px;fill:rgb(48, 48, 48);stroke:rgba(0, 0, 0, 0);dominant-baseline:middle;text-anchor:middle;">prim_generic_ram_1p</text><line x1="0" y1="20" x2="335.234375" y2="20"/></g><g id="sprotty_ArchitectureBlockImpl$prim_generic_ram_1p/AlwaysBlockImpl$null8/GPortImpl$addr_iOUT_to_ArchitectureBlockImpl$prim_generic_ram_1p/BPortImpl$addr_i" class="sprotty-edge thick edge" style="fill:none;stroke:rgb(112, 112, 112);stroke-linejoin:round;stroke-width:3px;"><g><path d="M 250.671875 121.33333333333334 L 258.671875 121.33333333333334 C 259.671875 121.33333333333334 260.671875 120.33333333333334 260.671875 119.33333333333334 L 260.671875 38 C 260.671875 37 259.671875 36 258.671875 36 L 0 36 "/><path d="M 250.671875 121.33333333333334 L 258.671875 121.33333333333334 C 259.671875 121.33333333333334 260.671875 120.33333333333334 260.671875 119.33333333333334 L 260.671875 38 C 260.671875 37 259.671875 36 258.671875 36 L 0 36 " class="clickable"/></g></g><g id="sprotty_ArchitectureBlockImpl$prim_generic_ram_1p/AlwaysBlockImpl$null8/GPortImpl$rdata_oOUT_to_ArchitectureBlockImpl$prim_generic_ram_1p/BPortImpl$rdata_o" class="sprotty-edge thick edge" style="fill:none;stroke:rgb(112, 112, 112);stroke-linejoin:round;stroke-width:3px;"><g><path d="M 250.671875 144.66666666666669 L 335.234375 144.66666666666669 "/><path d="M 250.671875 144.66666666666669 L 335.234375 144.66666666666669 " class="clickable"/></g></g><g id="sprotty_ArchitectureBlockImpl$prim_generic_ram_1p/BPortImpl$clk_i_to_ArchitectureBlockImpl$prim_generic_ram_1p/AlwaysBlockImpl$null8/GPortImpl$clk_iIN" class="sprotty-edge edge" style="fill:none;stroke:rgb(112, 112, 112);stroke-linejoin:round;"><g><path d="M 0 199 L 191.28125 199 C 192.28125 199 193.28125 198 193.28125 197 L 193.28125 150 C 193.28125 149 194.28125 148 195.28125 148 L 213.28125 148 "/><path d="M 0 199 L 191.28125 199 C 192.28125 199 193.28125 198 193.28125 197 L 193.28125 150 C 193.28125 149 194.28125 148 195.28125 148 L 213.28125 148 " class="clickable"/></g></g><g id="sprotty_ArchitectureBlockImpl$prim_generic_ram_1p/BPortImpl$req_i_to_ArchitectureBlockImpl$prim_generic_ram_1p/AlwaysBlockImpl$null8/GPortImpl$req_iIN" class="sprotty-edge edge" style="fill:none;stroke:rgb(112, 112, 112);stroke-linejoin:round;"><g><path d="M 0 165 L 181.28125 165 C 182.28125 165 183.28125 164 183.28125 163 L 183.28125 140 C 183.28125 139 184.28125 138 185.28125 138 L 213.28125 138 "/><path d="M 0 165 L 181.28125 165 C 182.28125 165 183.28125 164 183.28125 163 L 183.28125 140 C 183.28125 139 184.28125 138 185.28125 138 L 213.28125 138 " class="clickable"/></g></g><g id="sprotty_ArchitectureBlockImpl$prim_generic_ram_1p/BPortImpl$write_i_to_ArchitectureBlockImpl$prim_generic_ram_1p/AlwaysBlockImpl$null8/GPortImpl$write_iIN" class="sprotty-edge edge" style="fill:none;stroke:rgb(112, 112, 112);stroke-linejoin:round;"><g><path d="M 0 233 L 201.28125 233 C 202.28125 233 203.28125 232 203.28125 231 L 203.28125 160 C 203.28125 159 204.28125 158 205.28125 158 L 213.28125 158 "/><path d="M 0 233 L 201.28125 233 C 202.28125 233 203.28125 232 203.28125 231 L 203.28125 160 C 203.28125 159 204.28125 158 205.28125 158 L 213.28125 158 " class="clickable"/></g></g><g id="sprotty_ArchitectureBlockImpl$prim_generic_ram_1p/BPortImpl$wdata_i_to_ArchitectureBlockImpl$prim_generic_ram_1p/AlwaysBlockImpl$null8/GPortImpl$wdata_iIN" class="sprotty-edge thick edge" style="fill:none;stroke:rgb(112, 112, 112);stroke-linejoin:round;stroke-width:3px;"><g><path d="M 0 70 L 181.28125 70 C 182.28125 70 183.28125 71 183.28125 72 L 183.28125 116 C 183.28125 117 184.28125 118 185.28125 118 L 213.28125 118 "/><path d="M 0 70 L 181.28125 70 C 182.28125 70 183.28125 71 183.28125 72 L 183.28125 116 C 183.28125 117 184.28125 118 185.28125 118 L 213.28125 118 " class="clickable"/></g></g><g id="sprotty_ArchitectureBlockImpl$prim_generic_ram_1p/BPortImpl$addr_i_to_ArchitectureBlockImpl$prim_generic_ram_1p/AlwaysBlockImpl$null8/GPortImpl$addr_iIN" class="sprotty-edge thick edge" style="fill:none;stroke:rgb(112, 112, 112);stroke-linejoin:round;stroke-width:3px;"><g><path d="M 0 36 L 191.28125 36 C 192.28125 36 193.28125 37 193.28125 38 L 193.28125 106 C 193.28125 107 194.28125 108 195.28125 108 L 213.28125 108 "/><path d="M 0 36 L 191.28125 36 C 192.28125 36 193.28125 37 193.28125 38 L 193.28125 106 C 193.28125 107 194.28125 108 195.28125 108 L 213.28125 108 " class="clickable"/></g><circle r="3" id="sprotty_ArchitectureBlockImpl$prim_generic_ram_1p/BPortImpl$addr_i_to_ArchitectureBlockImpl$prim_generic_ram_1p/AlwaysBlockImpl$null8/GPortImpl$addr_iIN/junction0" transform="translate(193.28125, 36)" class="sprotty-junction thick" style="fill:rgb(112, 112, 112);stroke:none;"/></g><g id="sprotty_ArchitectureBlockImpl$prim_generic_ram_1p/BPortImpl$wmask_i_to_ArchitectureBlockImpl$prim_generic_ram_1p/GenerateStatementBlockImpl$gen_wmask/GPortImpl$wmask_i" class="sprotty-edge thick edge" style="fill:none;stroke:rgb(112, 112, 112);stroke-linejoin:round;stroke-width:3px;"><g><path d="M 0 128 L 70.78125 128 "/><path d="M 0 128 L 70.78125 128 " class="clickable"/></g></g><g id="sprotty_ArchitectureBlockImpl$prim_generic_ram_1p/GenerateStatementBlockImpl$gen_wmask/GPortImpl$wmask_to_ArchitectureBlockImpl$prim_generic_ram_1p/AlwaysBlockImpl$null8/GPortImpl$wmaskIN" class="sprotty-edge thick edge" style="fill:none;stroke:rgb(112, 112, 112);stroke-linejoin:round;stroke-width:3px;"><g><path d="M 173.28125 128 L 213.28125 128 "/><path d="M 173.28125 128 L 213.28125 128 " class="clickable"/></g></g><g id="sprotty_ArchitectureBlockImpl$prim_generic_ram_1p/GenerateStatementBlockImpl$gen_wmask" transform="translate(70.78125, 82)" class="generate"><g class="sprotty-block sprotty-block-generate" style="fill:rgb(255, 255, 255);stroke:rgb(48, 48, 48);stroke-dasharray:0px;"><rect x="0" y="0" rx="1" ry="1" width="102.5" height="72" style="stroke-dasharray:3px, 1px;"/><text x="51.25" y="12" class="sprotty-block-name" style="cursor:pointer;font-weight:700;perspective-origin:51.4062px 0px;fill:rgb(48, 48, 48);stroke:rgba(0, 0, 0, 0);dominant-baseline:middle;text-anchor:middle;">gen_wmask</text><line x1="0" y1="20" x2="102.5" y2="20" style="stroke-dasharray:3px, 1px;"/></g><g id="sprotty_ArchitectureBlockImpl$prim_generic_ram_1p/GenerateStatementBlockImpl$gen_wmask/GPortImpl$wmask_i_to_ArchitectureBlockImpl$prim_generic_ram_1p/GenerateStatementBlockImpl$gen_wmask/AssignmentBlockImpl$wmask/GPortImpl$wmask_iIN" class="sprotty-edge thick edge" style="fill:none;stroke:rgb(112, 112, 112);stroke-linejoin:round;stroke-width:3px;"><g><path d="M 0 46 L 15 46 "/><path d="M 0 46 L 15 46 " class="clickable"/></g></g><g id="sprotty_ArchitectureBlockImpl$prim_generic_ram_1p/GenerateStatementBlockImpl$gen_wmask/AssignmentBlockImpl$wmask/GPortImpl$wmaskOUT_to_ArchitectureBlockImpl$prim_generic_ram_1p/GenerateStatementBlockImpl$gen_wmask/GPortImpl$wmask" class="sprotty-edge thick edge" style="fill:none;stroke:rgb(112, 112, 112);stroke-linejoin:round;stroke-width:3px;"><g><path d="M 34.71875 46 L 102.5 46 "/><path d="M 34.71875 46 L 102.5 46 " class="clickable"/></g></g><g id="sprotty_ArchitectureBlockImpl$prim_generic_ram_1p/GenerateStatementBlockImpl$gen_wmask/AssignmentBlockImpl$wmask" transform="translate(15, 35)" class="statement"><rect x="0" y="0" rx="10" ry="5" width="19.71875" height="22" class="sprotty-node" style="fill:rgb(245, 245, 245);stroke:rgb(112, 112, 112);"/><text class="clickable sprotty-label statementtype" id="sprotty_ArchitectureBlockImpl$prim_generic_ram_1p/GenerateStatementBlockImpl$gen_wmask/AssignmentBlockImpl$wmask/labeltype" transform="translate(5, 5) translate(4.71875, 9)" style="cursor:default;font-size:8px;font-weight:700;perspective-origin:0.140625px 0px;fill:rgb(112, 112, 112);text-anchor:middle;">&lt;=</text><g id="sprotty_ArchitectureBlockImpl$prim_generic_ram_1p/GenerateStatementBlockImpl$gen_wmask/AssignmentBlockImpl$wmask/GPortImpl$wmask_iIN" transform="translate(0, 11)" class="sprotty-hidden hidden" style="display:block;height:0px;width:0px;"/><g id="sprotty_ArchitectureBlockImpl$prim_generic_ram_1p/GenerateStatementBlockImpl$gen_wmask/AssignmentBlockImpl$wmask/GPortImpl$wmaskOUT" transform="translate(19.71875, 11)" class="sprotty-hidden hidden" style="display:block;height:0px;width:0px;"/></g><g id="sprotty_ArchitectureBlockImpl$prim_generic_ram_1p/GenerateStatementBlockImpl$gen_wmask/GPortImpl$wmask_i" transform="translate(0, 46)" class="triangle"><path d="M 0,0 L 5,2.5 L 0,5 Z" transform="translate(-1.67, -2.5)" class="sprotty-port" style="fill:rgb(48, 48, 48);stroke:rgb(48, 48, 48);"/></g><g id="sprotty_ArchitectureBlockImpl$prim_generic_ram_1p/GenerateStatementBlockImpl$gen_wmask/GPortImpl$wmask" transform="translate(102.5, 46)" class="triangle"><path d="M 0,0 L 5,2.5 L 0,5 Z" transform="translate(-1.67, -2.5)" class="sprotty-port" style="fill:rgb(48, 48, 48);stroke:rgb(48, 48, 48);"/></g></g><g id="sprotty_ArchitectureBlockImpl$prim_generic_ram_1p/AlwaysBlockImpl$null8" transform="translate(213.28125, 98)" class="statement"><rect x="0" y="0" rx="10" ry="5" width="37.390625" height="70" class="sprotty-node" style="fill:rgb(245, 245, 245);stroke:rgb(112, 112, 112);"/><text class="clickable sprotty-label statementtype" id="sprotty_ArchitectureBlockImpl$prim_generic_ram_1p/AlwaysBlockImpl$null8/labeltype" transform="translate(5, 29) translate(13.671875, 9)" style="cursor:default;font-size:8px;font-weight:700;perspective-origin:0.015625px 0px;fill:rgb(112, 112, 112);text-anchor:middle;">always</text><g id="sprotty_ArchitectureBlockImpl$prim_generic_ram_1p/AlwaysBlockImpl$null8/GPortImpl$addr_iIN" transform="translate(0, 10)" class="sprotty-hidden hidden" style="display:block;height:0px;width:0px;"/><g id="sprotty_ArchitectureBlockImpl$prim_generic_ram_1p/AlwaysBlockImpl$null8/GPortImpl$wdata_iIN" transform="translate(0, 20)" class="sprotty-hidden hidden" style="display:block;height:0px;width:0px;"/><g id="sprotty_ArchitectureBlockImpl$prim_generic_ram_1p/AlwaysBlockImpl$null8/GPortImpl$wmaskIN" transform="translate(0, 30)" class="sprotty-hidden hidden" style="display:block;height:0px;width:0px;"/><g id="sprotty_ArchitectureBlockImpl$prim_generic_ram_1p/AlwaysBlockImpl$null8/GPortImpl$write_iIN" transform="translate(0, 60)" class="sprotty-hidden hidden" style="display:block;height:0px;width:0px;"/><g id="sprotty_ArchitectureBlockImpl$prim_generic_ram_1p/AlwaysBlockImpl$null8/GPortImpl$req_iIN" transform="translate(0, 40)" class="sprotty-hidden hidden" style="display:block;height:0px;width:0px;"/><g id="sprotty_ArchitectureBlockImpl$prim_generic_ram_1p/AlwaysBlockImpl$null8/GPortImpl$clk_iIN" transform="translate(0, 50)" class="sprotty-hidden hidden" style="display:block;height:0px;width:0px;"/><g id="sprotty_ArchitectureBlockImpl$prim_generic_ram_1p/AlwaysBlockImpl$null8/GPortImpl$addr_iOUT" transform="translate(37.390625, 23.333333333333336)" class="sprotty-hidden hidden" style="display:block;height:0px;width:0px;"/><g id="sprotty_ArchitectureBlockImpl$prim_generic_ram_1p/AlwaysBlockImpl$null8/GPortImpl$rdata_oOUT" transform="translate(37.390625, 46.66666666666667)" class="sprotty-hidden hidden" style="display:block;height:0px;width:0px;"/></g><g id="sprotty_ArchitectureBlockImpl$prim_generic_ram_1p/BPortImpl$wmask_i" transform="translate(0, 128)" class="triangle"><path d="M 0,0 L 5,2.5 L 0,5 Z" transform="translate(-1.67, -2.5)" class="sprotty-port" style="fill:rgb(48, 48, 48);stroke:rgb(48, 48, 48);"/><text class="clickable sprotty-label port" id="sprotty_ArchitectureBlockImpl$prim_generic_ram_1p/BPortImpl$wmask_i/label" transform="translate(6, 6) translate(24.890625, 14)" style="cursor:default;font-size:12px;perspective-origin:0px 0px;fill:rgb(48, 48, 48);text-anchor:middle;">wmask_i</text></g><g id="sprotty_ArchitectureBlockImpl$prim_generic_ram_1p/BPortImpl$wdata_i" transform="translate(0, 70)" class="triangle"><path d="M 0,0 L 5,2.5 L 0,5 Z" transform="translate(-1.67, -2.5)" class="sprotty-port" style="fill:rgb(48, 48, 48);stroke:rgb(48, 48, 48);"/><text class="clickable sprotty-label port" id="sprotty_ArchitectureBlockImpl$prim_generic_ram_1p/BPortImpl$wdata_i/label" transform="translate(6, 6) translate(22.3125, 14)" style="cursor:default;font-size:12px;perspective-origin:0px 0px;fill:rgb(48, 48, 48);text-anchor:middle;">wdata_i</text></g><g id="sprotty_ArchitectureBlockImpl$prim_generic_ram_1p/BPortImpl$addr_i" transform="translate(0, 36)" class="triangle"><path d="M 0,0 L 5,2.5 L 0,5 Z" transform="translate(-1.67, -2.5)" class="sprotty-port" style="fill:rgb(48, 48, 48);stroke:rgb(48, 48, 48);"/><text class="clickable sprotty-label port" id="sprotty_ArchitectureBlockImpl$prim_generic_ram_1p/BPortImpl$addr_i/label" transform="translate(6, 6) translate(18.15625, 14)" style="cursor:default;font-size:12px;perspective-origin:0px 0px;fill:rgb(48, 48, 48);text-anchor:middle;">addr_i</text></g><g id="sprotty_ArchitectureBlockImpl$prim_generic_ram_1p/BPortImpl$write_i" transform="translate(0, 233)" class="triangle"><path d="M 0,0 L 5,2.5 L 0,5 Z" transform="translate(-1.67, -2.5)" class="sprotty-port" style="fill:rgb(48, 48, 48);stroke:rgb(48, 48, 48);"/><text class="clickable sprotty-label port" id="sprotty_ArchitectureBlockImpl$prim_generic_ram_1p/BPortImpl$write_i/label" transform="translate(6, 6) translate(19.296875, 14)" style="cursor:default;font-size:12px;perspective-origin:0px 0px;fill:rgb(48, 48, 48);text-anchor:middle;">write_i</text></g><g id="sprotty_ArchitectureBlockImpl$prim_generic_ram_1p/BPortImpl$req_i" transform="translate(0, 165)" class="triangle"><path d="M 0,0 L 5,2.5 L 0,5 Z" transform="translate(-1.67, -2.5)" class="sprotty-port" style="fill:rgb(48, 48, 48);stroke:rgb(48, 48, 48);"/><text class="clickable sprotty-label port" id="sprotty_ArchitectureBlockImpl$prim_generic_ram_1p/BPortImpl$req_i/label" transform="translate(6, 6) translate(14.3125, 14)" style="cursor:default;font-size:12px;perspective-origin:0px 0px;fill:rgb(48, 48, 48);text-anchor:middle;">req_i</text></g><g id="sprotty_ArchitectureBlockImpl$prim_generic_ram_1p/BPortImpl$clk_i" transform="translate(0, 199)" class="triangle"><path d="M 0,0 L 5,2.5 L 0,5 Z" transform="translate(-1.67, -2.5)" class="sprotty-port" style="fill:rgb(48, 48, 48);stroke:rgb(48, 48, 48);"/><text class="clickable sprotty-label port" id="sprotty_ArchitectureBlockImpl$prim_generic_ram_1p/BPortImpl$clk_i/label" transform="translate(6, 6) translate(13.09375, 14)" style="cursor:default;font-size:12px;perspective-origin:0px 0px;fill:rgb(48, 48, 48);text-anchor:middle;">clk_i</text></g><g id="sprotty_ArchitectureBlockImpl$prim_generic_ram_1p/BPortImpl$rdata_o" transform="translate(335.234375, 144.66666666666669)" class="triangle"><path d="M 0,0 L 5,2.5 L 0,5 Z" transform="translate(-1.67, -2.5)" class="sprotty-port" style="fill:rgb(48, 48, 48);stroke:rgb(48, 48, 48);"/><text class="clickable sprotty-label port" id="sprotty_ArchitectureBlockImpl$prim_generic_ram_1p/BPortImpl$rdata_o/label" transform="translate(-49.5625, 6) translate(21.78125, 14)" style="cursor:default;font-size:12px;perspective-origin:0px 0px;fill:rgb(48, 48, 48);text-anchor:middle;">rdata_o</text></g></g></g></svg>