<svg xmlns="http://www.w3.org/2000/svg" id="sprotty_work.flash_ctrl_rd" class="sprotty-graph sprotty-block-diagram blockdiagram" style="font-family:&quot;Noto Sans&quot;, Helvetica, Arial, sans-serif;perspective-origin:0px 0px;transform-origin:0px 0px;" version="1.1" viewBox="7 7 546.390625 479" width="546.390625" height="479"><g transform="scale(1) translate(0,0)"><g id="sprotty_ArchitectureBlockImpl$flash_ctrl_rd" transform="translate(12, 12)" class="architecture"><g class="sprotty-block" style="fill:rgb(255, 255, 255);stroke:rgb(48, 48, 48);stroke-dasharray:0px;"><rect x="0" y="0" rx="1" ry="1" width="536.390625" height="469"/><text x="268.1953125" y="12" class="sprotty-block-name" style="cursor:pointer;font-weight:700;perspective-origin:268.188px 0px;fill:rgb(48, 48, 48);stroke:rgba(0, 0, 0, 0);dominant-baseline:middle;text-anchor:middle;">flash_ctrl_rd</text><line x1="0" y1="20" x2="536.390625" y2="20"/></g><g id="sprotty_ArchitectureBlockImpl$flash_ctrl_rd/AlwaysBlockImpl$null16/GPortImpl$op_done_oOUT_to_ArchitectureBlockImpl$flash_ctrl_rd/BPortImpl$op_done_o" class="sprotty-edge edge" style="fill:none;stroke:rgb(112, 112, 112);stroke-linejoin:round;"><g><path d="M 361.671875 313 L 536.390625 313 "/><path d="M 361.671875 313 L 536.390625 313 " class="clickable"/></g></g><g id="sprotty_ArchitectureBlockImpl$flash_ctrl_rd/AlwaysBlockImpl$null16/GPortImpl$op_err_oOUT_to_ArchitectureBlockImpl$flash_ctrl_rd/BPortImpl$op_err_o" class="sprotty-edge edge" style="fill:none;stroke:rgb(112, 112, 112);stroke-linejoin:round;"><g><path d="M 361.671875 303 L 409.671875 303 C 410.671875 303 411.671875 302 411.671875 301 L 411.671875 281 C 411.671875 280 412.671875 279 413.671875 279 L 536.390625 279 "/><path d="M 361.671875 303 L 409.671875 303 C 410.671875 303 411.671875 302 411.671875 301 L 411.671875 281 C 411.671875 280 412.671875 279 413.671875 279 L 536.390625 279 " class="clickable"/></g></g><g id="sprotty_ArchitectureBlockImpl$flash_ctrl_rd/AssignmentBlockImpl$data_o/GPortImpl$data_oOUT_to_ArchitectureBlockImpl$flash_ctrl_rd/BPortImpl$data_o" class="sprotty-edge thick edge" style="fill:none;stroke:rgb(112, 112, 112);stroke-linejoin:round;stroke-width:3px;"><g><path d="M 441.390625 50 L 536.390625 50 "/><path d="M 441.390625 50 L 536.390625 50 " class="clickable"/></g></g><g id="sprotty_ArchitectureBlockImpl$flash_ctrl_rd/AlwaysBlockImpl$null16/GPortImpl$data_wr_oOUT_to_ArchitectureBlockImpl$flash_ctrl_rd/BPortImpl$data_wr_o" class="sprotty-edge edge" style="fill:none;stroke:rgb(112, 112, 112);stroke-linejoin:round;"><g><path d="M 361.671875 293 L 399.671875 293 C 400.671875 293 401.671875 292 401.671875 291 L 401.671875 247 C 401.671875 246 402.671875 245 403.671875 245 L 536.390625 245 "/><path d="M 361.671875 293 L 399.671875 293 C 400.671875 293 401.671875 292 401.671875 291 L 401.671875 247 C 401.671875 246 402.671875 245 403.671875 245 L 536.390625 245 " class="clickable"/></g></g><g id="sprotty_ArchitectureBlockImpl$flash_ctrl_rd/AlwaysBlockImpl$null16/GPortImpl$flash_req_oOUT_to_ArchitectureBlockImpl$flash_ctrl_rd/BPortImpl$flash_req_o" class="sprotty-edge edge" style="fill:none;stroke:rgb(112, 112, 112);stroke-linejoin:round;"><g><path d="M 361.671875 323 L 369.671875 323 C 370.671875 323 371.671875 324 371.671875 325 L 371.671875 428 C 371.671875 429 372.671875 430 373.671875 430 L 536.390625 430 "/><path d="M 361.671875 323 L 369.671875 323 C 370.671875 323 371.671875 324 371.671875 325 L 371.671875 428 C 371.671875 429 372.671875 430 373.671875 430 L 536.390625 430 " class="clickable"/></g><circle r="2" id="sprotty_ArchitectureBlockImpl$flash_ctrl_rd/AlwaysBlockImpl$null16/GPortImpl$flash_req_oOUT_to_ArchitectureBlockImpl$flash_ctrl_rd/BPortImpl$flash_req_o/junction0" transform="translate(371.671875, 430)" class="sprotty-junction junction" style="fill:rgb(112, 112, 112);stroke:none;"/></g><g id="sprotty_ArchitectureBlockImpl$flash_ctrl_rd/AssignmentBlockImpl$flash_addr_o/GPortImpl$flash_addr_oOUT_to_ArchitectureBlockImpl$flash_ctrl_rd/BPortImpl$flash_addr_o" class="sprotty-edge thick edge" style="fill:none;stroke:rgb(112, 112, 112);stroke-linejoin:round;stroke-width:3px;"><g><path d="M 339.65625 126 L 536.390625 126 "/><path d="M 339.65625 126 L 536.390625 126 " class="clickable"/></g></g><g id="sprotty_ArchitectureBlockImpl$flash_ctrl_rd/AssignmentBlockImpl$flash_ovfl_o/GPortImpl$flash_ovfl_oOUT_to_ArchitectureBlockImpl$flash_ctrl_rd/BPortImpl$flash_ovfl_o" class="sprotty-edge edge" style="fill:none;stroke:rgb(112, 112, 112);stroke-linejoin:round;"><g><path d="M 339.65625 84 L 536.390625 84 "/><path d="M 339.65625 84 L 536.390625 84 " class="clickable"/></g></g><g id="sprotty_ArchitectureBlockImpl$flash_ctrl_rd/BPortImpl$flash_req_o_to_ArchitectureBlockImpl$flash_ctrl_rd/AssignmentBlockImpl$txn_done/GPortImpl$flash_req_oIN" class="sprotty-edge edge" style="fill:none;stroke:rgb(112, 112, 112);stroke-linejoin:round;"><g><path d="M 536.390625 430 L 230.203125 430 C 229.203125 430 228.203125 429 228.203125 428 L 228.203125 412 C 228.203125 411 229.203125 410 230.203125 410 L 238.203125 410 "/><path d="M 536.390625 430 L 230.203125 430 C 229.203125 430 228.203125 429 228.203125 428 L 228.203125 412 C 228.203125 411 229.203125 410 230.203125 410 L 238.203125 410 " class="clickable"/></g></g><g id="sprotty_ArchitectureBlockImpl$flash_ctrl_rd/BPortImpl$flash_done_i_to_ArchitectureBlockImpl$flash_ctrl_rd/AssignmentBlockImpl$txn_done/GPortImpl$flash_done_iIN" class="sprotty-edge edge" style="fill:none;stroke:rgb(112, 112, 112);stroke-linejoin:round;"><g><path d="M 0 400 L 238.203125 400 "/><path d="M 0 400 L 238.203125 400 " class="clickable"/></g></g><g id="sprotty_ArchitectureBlockImpl$flash_ctrl_rd/BPortImpl$op_num_words_i_to_ArchitectureBlockImpl$flash_ctrl_rd/AssignmentBlockImpl$cnt_hit/GPortImpl$op_num_words_iIN" class="sprotty-edge thick edge" style="fill:none;stroke:rgb(112, 112, 112);stroke-linejoin:round;stroke-width:3px;"><g><path d="M 0 298 L 238.203125 298 "/><path d="M 0 298 L 238.203125 298 " class="clickable"/></g></g><g id="sprotty_ArchitectureBlockImpl$flash_ctrl_rd/BPortImpl$op_addr_i_to_ArchitectureBlockImpl$flash_ctrl_rd/AssignmentBlockImpl$int_addr/GPortImpl$op_addr_iIN" class="sprotty-edge thick edge" style="fill:none;stroke:rgb(112, 112, 112);stroke-linejoin:round;stroke-width:3px;"><g><path d="M 0 121 L 238.203125 121 "/><path d="M 0 121 L 238.203125 121 " class="clickable"/></g></g><g id="sprotty_ArchitectureBlockImpl$flash_ctrl_rd/BPortImpl$flash_data_i_to_ArchitectureBlockImpl$flash_ctrl_rd/AssignmentBlockImpl$data_o/GPortImpl$flash_data_iIN" class="sprotty-edge thick edge" style="fill:none;stroke:rgb(112, 112, 112);stroke-linejoin:round;stroke-width:3px;"><g><path d="M 0 45 L 421.671875 45 "/><path d="M 0 45 L 421.671875 45 " class="clickable"/></g></g><g id="sprotty_ArchitectureBlockImpl$flash_ctrl_rd/BPortImpl$clk_i_to_ArchitectureBlockImpl$flash_ctrl_rd/AlwaysBlockImpl$null17/GPortImpl$clk_iIN" class="sprotty-edge edge" style="fill:none;stroke:rgb(112, 112, 112);stroke-linejoin:round;"><g><path d="M 0 178 L 127.3125 178 C 128.3125 178 129.3125 179 129.3125 180 L 129.3125 200 C 129.3125 201 130.3125 202 131.3125 202 L 159.3125 202 "/><path d="M 0 178 L 127.3125 178 C 128.3125 178 129.3125 179 129.3125 180 L 129.3125 200 C 129.3125 201 130.3125 202 131.3125 202 L 159.3125 202 " class="clickable"/></g></g><g id="sprotty_ArchitectureBlockImpl$flash_ctrl_rd/BPortImpl$rst_ni_to_ArchitectureBlockImpl$flash_ctrl_rd/AlwaysBlockImpl$null17/GPortImpl$rst_niIN" class="sprotty-edge edge" style="fill:none;stroke:rgb(112, 112, 112);stroke-linejoin:round;"><g><path d="M 0 212 L 159.3125 212 "/><path d="M 0 212 L 159.3125 212 " class="clickable"/></g></g><g id="sprotty_ArchitectureBlockImpl$flash_ctrl_rd/BPortImpl$op_start_i_to_ArchitectureBlockImpl$flash_ctrl_rd/AlwaysBlockImpl$null16/GPortImpl$op_start_iIN" class="sprotty-edge edge" style="fill:none;stroke:rgb(112, 112, 112);stroke-linejoin:round;"><g><path d="M 0 366 L 275.921875 366 C 276.921875 366 277.921875 365 277.921875 364 L 277.921875 315 C 277.921875 314 278.921875 313 279.921875 313 L 297.921875 313 "/><path d="M 0 366 L 275.921875 366 C 276.921875 366 277.921875 365 277.921875 364 L 277.921875 315 C 277.921875 314 278.921875 313 279.921875 313 L 297.921875 313 " class="clickable"/></g></g><g id="sprotty_ArchitectureBlockImpl$flash_ctrl_rd/BPortImpl$data_rdy_i_to_ArchitectureBlockImpl$flash_ctrl_rd/AlwaysBlockImpl$null16/GPortImpl$data_rdy_iIN" class="sprotty-edge edge" style="fill:none;stroke:rgb(112, 112, 112);stroke-linejoin:round;"><g><path d="M 0 332 L 265.921875 332 C 266.921875 332 267.921875 331 267.921875 330 L 267.921875 305 C 267.921875 304 268.921875 303 269.921875 303 L 297.921875 303 "/><path d="M 0 332 L 265.921875 332 C 266.921875 332 267.921875 331 267.921875 330 L 267.921875 305 C 267.921875 304 268.921875 303 269.921875 303 L 297.921875 303 " class="clickable"/></g></g><g id="sprotty_ArchitectureBlockImpl$flash_ctrl_rd/BPortImpl$flash_error_i_to_ArchitectureBlockImpl$flash_ctrl_rd/AlwaysBlockImpl$null16/GPortImpl$flash_error_iIN" class="sprotty-edge edge" style="fill:none;stroke:rgb(112, 112, 112);stroke-linejoin:round;"><g><path d="M 0 246 L 285.921875 246 C 286.921875 246 287.921875 247 287.921875 248 L 287.921875 261 C 287.921875 262 288.921875 263 289.921875 263 L 297.921875 263 "/><path d="M 0 246 L 285.921875 246 C 286.921875 246 287.921875 247 287.921875 248 L 287.921875 261 C 287.921875 262 288.921875 263 289.921875 263 L 297.921875 263 " class="clickable"/></g></g><g id="sprotty_ArchitectureBlockImpl$flash_ctrl_rd/AlwaysBlockImpl$null17/GPortImpl$stOUT_to_ArchitectureBlockImpl$flash_ctrl_rd/AlwaysBlockImpl$null16/GPortImpl$stIN" class="sprotty-edge thick edge" style="fill:none;stroke:rgb(112, 112, 112);stroke-linejoin:round;stroke-width:3px;"><g><path d="M 208.203125 205.33333333333334 L 216.203125 205.33333333333334 C 217.203125 205.33333333333334 218.203125 206.33333333333334 218.203125 207.33333333333334 L 218.203125 254 C 218.203125 255 219.203125 256 220.203125 256 L 275.921875 256 C 276.921875 256 277.921875 257 277.921875 258 L 277.921875 271 C 277.921875 272 278.921875 273 279.921875 273 L 297.921875 273 "/><path d="M 208.203125 205.33333333333334 L 216.203125 205.33333333333334 C 217.203125 205.33333333333334 218.203125 206.33333333333334 218.203125 207.33333333333334 L 218.203125 254 C 218.203125 255 219.203125 256 220.203125 256 L 275.921875 256 C 276.921875 256 277.921875 257 277.921875 258 L 277.921875 271 C 277.921875 272 278.921875 273 279.921875 273 L 297.921875 273 " class="clickable"/></g></g><g id="sprotty_ArchitectureBlockImpl$flash_ctrl_rd/AlwaysBlockImpl$null16/GPortImpl$st_nxtOUT_to_ArchitectureBlockImpl$flash_ctrl_rd/AlwaysBlockImpl$null17/GPortImpl$st_nxtIN" class="sprotty-edge thick edge" style="fill:none;stroke:rgb(112, 112, 112);stroke-linejoin:round;stroke-width:3px;"><g><path d="M 361.671875 263 L 369.671875 263 C 370.671875 263 371.671875 262 371.671875 261 L 371.671875 164 C 371.671875 163 370.671875 162 369.671875 162 L 151.3125 162 C 150.3125 162 149.3125 163 149.3125 164 L 149.3125 180 C 149.3125 181 150.3125 182 151.3125 182 L 159.3125 182 "/><path d="M 361.671875 263 L 369.671875 263 C 370.671875 263 371.671875 262 371.671875 261 L 371.671875 164 C 371.671875 163 370.671875 162 369.671875 162 L 151.3125 162 C 150.3125 162 149.3125 163 149.3125 164 L 149.3125 180 C 149.3125 181 150.3125 182 151.3125 182 L 159.3125 182 " class="clickable"/></g></g><g id="sprotty_ArchitectureBlockImpl$flash_ctrl_rd/AlwaysBlockImpl$null17/GPortImpl$cntOUT_to_ArchitectureBlockImpl$flash_ctrl_rd/AssignmentBlockImpl$cnt_hit/GPortImpl$cntIN" class="sprotty-edge thick edge" style="fill:none;stroke:rgb(112, 112, 112);stroke-linejoin:round;stroke-width:3px;"><g><path d="M 208.203125 188.66666666666666 L 226.203125 188.66666666666666 C 227.203125 188.66666666666666 228.203125 189.66666666666666 228.203125 190.66666666666666 L 228.203125 286 C 228.203125 287 229.203125 288 230.203125 288 L 238.203125 288 "/><path d="M 208.203125 188.66666666666666 L 226.203125 188.66666666666666 C 227.203125 188.66666666666666 228.203125 189.66666666666666 228.203125 190.66666666666666 L 228.203125 286 C 228.203125 287 229.203125 288 230.203125 288 L 238.203125 288 " class="clickable"/></g><circle r="3" id="sprotty_ArchitectureBlockImpl$flash_ctrl_rd/AlwaysBlockImpl$null17/GPortImpl$cntOUT_to_ArchitectureBlockImpl$flash_ctrl_rd/AssignmentBlockImpl$cnt_hit/GPortImpl$cntIN/junction0" transform="translate(228.203125, 188.66666666666666)" class="sprotty-junction thick" style="fill:rgb(112, 112, 112);stroke:none;"/></g><g id="sprotty_ArchitectureBlockImpl$flash_ctrl_rd/AlwaysBlockImpl$null17/GPortImpl$cntOUT_to_ArchitectureBlockImpl$flash_ctrl_rd/AssignmentBlockImpl$int_addr/GPortImpl$cntIN" class="sprotty-edge thick edge" style="fill:none;stroke:rgb(112, 112, 112);stroke-linejoin:round;stroke-width:3px;"><g><path d="M 208.203125 188.66666666666666 L 226.203125 188.66666666666666 C 227.203125 188.66666666666666 228.203125 187.66666666666666 228.203125 186.66666666666666 L 228.203125 133 C 228.203125 132 229.203125 131 230.203125 131 L 238.203125 131 "/><path d="M 208.203125 188.66666666666666 L 226.203125 188.66666666666666 C 227.203125 188.66666666666666 228.203125 187.66666666666666 228.203125 186.66666666666666 L 228.203125 133 C 228.203125 132 229.203125 131 230.203125 131 L 238.203125 131 " class="clickable"/></g></g><g id="sprotty_ArchitectureBlockImpl$flash_ctrl_rd/AlwaysBlockImpl$null17/GPortImpl$cntOUT_to_ArchitectureBlockImpl$flash_ctrl_rd/AlwaysBlockImpl$null16/GPortImpl$cntIN" class="sprotty-edge thick edge" style="fill:none;stroke:rgb(112, 112, 112);stroke-linejoin:round;stroke-width:3px;"><g><path d="M 208.203125 188.66666666666666 L 226.203125 188.66666666666666 C 227.203125 188.66666666666666 228.203125 189.66666666666666 228.203125 190.66666666666666 L 228.203125 264 C 228.203125 265 229.203125 266 230.203125 266 L 265.921875 266 C 266.921875 266 267.921875 267 267.921875 268 L 267.921875 281 C 267.921875 282 268.921875 283 269.921875 283 L 297.921875 283 "/><path d="M 208.203125 188.66666666666666 L 226.203125 188.66666666666666 C 227.203125 188.66666666666666 228.203125 189.66666666666666 228.203125 190.66666666666666 L 228.203125 264 C 228.203125 265 229.203125 266 230.203125 266 L 265.921875 266 C 266.921875 266 267.921875 267 267.921875 268 L 267.921875 281 C 267.921875 282 268.921875 283 269.921875 283 L 297.921875 283 " class="clickable"/></g><circle r="3" id="sprotty_ArchitectureBlockImpl$flash_ctrl_rd/AlwaysBlockImpl$null17/GPortImpl$cntOUT_to_ArchitectureBlockImpl$flash_ctrl_rd/AlwaysBlockImpl$null16/GPortImpl$cntIN/junction0" transform="translate(228.203125, 266)" class="sprotty-junction thick" style="fill:rgb(112, 112, 112);stroke:none;"/></g><g id="sprotty_ArchitectureBlockImpl$flash_ctrl_rd/AlwaysBlockImpl$null16/GPortImpl$cnt_nxtOUT_to_ArchitectureBlockImpl$flash_ctrl_rd/AlwaysBlockImpl$null17/GPortImpl$cnt_nxtIN" class="sprotty-edge thick edge" style="fill:none;stroke:rgb(112, 112, 112);stroke-linejoin:round;stroke-width:3px;"><g><path d="M 361.671875 273 L 379.671875 273 C 380.671875 273 381.671875 272 381.671875 271 L 381.671875 154 C 381.671875 153 380.671875 152 379.671875 152 L 141.3125 152 C 140.3125 152 139.3125 153 139.3125 154 L 139.3125 190 C 139.3125 191 140.3125 192 141.3125 192 L 159.3125 192 "/><path d="M 361.671875 273 L 379.671875 273 C 380.671875 273 381.671875 272 381.671875 271 L 381.671875 154 C 381.671875 153 380.671875 152 379.671875 152 L 141.3125 152 C 140.3125 152 139.3125 153 139.3125 154 L 139.3125 190 C 139.3125 191 140.3125 192 141.3125 192 L 159.3125 192 " class="clickable"/></g></g><g id="sprotty_ArchitectureBlockImpl$flash_ctrl_rd/AssignmentBlockImpl$cnt_hit/GPortImpl$cnt_hitOUT_to_ArchitectureBlockImpl$flash_ctrl_rd/AlwaysBlockImpl$null16/GPortImpl$cnt_hitIN" class="sprotty-edge edge" style="fill:none;stroke:rgb(112, 112, 112);stroke-linejoin:round;"><g><path d="M 257.921875 293 L 297.921875 293 "/><path d="M 257.921875 293 L 297.921875 293 " class="clickable"/></g></g><g id="sprotty_ArchitectureBlockImpl$flash_ctrl_rd/AssignmentBlockImpl$int_addr/GPortImpl$cntOUT_to_ArchitectureBlockImpl$flash_ctrl_rd/AssignmentBlockImpl$flash_addr_o/GPortImpl$int_addrIN" class="sprotty-edge thick edge" style="fill:none;stroke:rgb(112, 112, 112);stroke-linejoin:round;stroke-width:3px;"><g><path d="M 257.921875 126 L 319.9375 126 "/><path d="M 257.921875 126 L 319.9375 126 " class="clickable"/></g></g><g id="sprotty_ArchitectureBlockImpl$flash_ctrl_rd/AssignmentBlockImpl$int_addr/GPortImpl$cntOUT_to_ArchitectureBlockImpl$flash_ctrl_rd/AssignmentBlockImpl$flash_ovfl_o/GPortImpl$int_addrIN" class="sprotty-edge thick edge" style="fill:none;stroke:rgb(112, 112, 112);stroke-linejoin:round;stroke-width:3px;"><g><path d="M 257.921875 126 L 265.921875 126 C 266.921875 126 267.921875 125 267.921875 124 L 267.921875 86 C 267.921875 85 268.921875 84 269.921875 84 L 319.9375 84 "/><path d="M 257.921875 126 L 265.921875 126 C 266.921875 126 267.921875 125 267.921875 124 L 267.921875 86 C 267.921875 85 268.921875 84 269.921875 84 L 319.9375 84 " class="clickable"/></g><circle r="3" id="sprotty_ArchitectureBlockImpl$flash_ctrl_rd/AssignmentBlockImpl$int_addr/GPortImpl$cntOUT_to_ArchitectureBlockImpl$flash_ctrl_rd/AssignmentBlockImpl$flash_ovfl_o/GPortImpl$int_addrIN/junction0" transform="translate(267.921875, 126)" class="sprotty-junction thick" style="fill:rgb(112, 112, 112);stroke:none;"/></g><g id="sprotty_ArchitectureBlockImpl$flash_ctrl_rd/AssignmentBlockImpl$txn_done/GPortImpl$txn_doneOUT_to_ArchitectureBlockImpl$flash_ctrl_rd/AlwaysBlockImpl$null16/GPortImpl$txn_doneIN" class="sprotty-edge edge" style="fill:none;stroke:rgb(112, 112, 112);stroke-linejoin:round;"><g><path d="M 257.921875 405 L 285.921875 405 C 286.921875 405 287.921875 404 287.921875 403 L 287.921875 325 C 287.921875 324 288.921875 323 289.921875 323 L 297.921875 323 "/><path d="M 257.921875 405 L 285.921875 405 C 286.921875 405 287.921875 404 287.921875 403 L 287.921875 325 C 287.921875 324 288.921875 323 289.921875 323 L 297.921875 323 " class="clickable"/></g></g><g id="sprotty_ArchitectureBlockImpl$flash_ctrl_rd/AlwaysBlockImpl$null16/GPortImpl$err_selOUT_to_ArchitectureBlockImpl$flash_ctrl_rd/AssignmentBlockImpl$data_o/GPortImpl$err_selIN" class="sprotty-edge edge" style="fill:none;stroke:rgb(112, 112, 112);stroke-linejoin:round;"><g><path d="M 361.671875 283 L 389.671875 283 C 390.671875 283 391.671875 282 391.671875 281 L 391.671875 57 C 391.671875 56 392.671875 55 393.671875 55 L 421.671875 55 "/><path d="M 361.671875 283 L 389.671875 283 C 390.671875 283 391.671875 282 391.671875 281 L 391.671875 57 C 391.671875 56 392.671875 55 393.671875 55 L 421.671875 55 " class="clickable"/></g></g><g id="sprotty_ArchitectureBlockImpl$flash_ctrl_rd/AlwaysBlockImpl$null16" transform="translate(297.921875, 253)" class="statement"><rect x="0" y="0" rx="10" ry="5" width="63.75" height="80" class="sprotty-node" style="fill:rgb(245, 245, 245);stroke:rgb(112, 112, 112);"/><text class="clickable sprotty-label statementtype" id="sprotty_ArchitectureBlockImpl$flash_ctrl_rd/AlwaysBlockImpl$null16/labeltype" transform="translate(5, 34) translate(26.875, 9)" style="cursor:default;font-size:8px;font-weight:700;perspective-origin:0px 0px;fill:rgb(112, 112, 112);text-anchor:middle;">always_comb</text><g id="sprotty_ArchitectureBlockImpl$flash_ctrl_rd/AlwaysBlockImpl$null16/GPortImpl$flash_error_iIN" transform="translate(0, 10)" class="sprotty-hidden hidden" style="display:block;height:0px;width:0px;"/><g id="sprotty_ArchitectureBlockImpl$flash_ctrl_rd/AlwaysBlockImpl$null16/GPortImpl$cnt_hitIN" transform="translate(0, 40)" class="sprotty-hidden hidden" style="display:block;height:0px;width:0px;"/><g id="sprotty_ArchitectureBlockImpl$flash_ctrl_rd/AlwaysBlockImpl$null16/GPortImpl$txn_doneIN" transform="translate(0, 70)" class="sprotty-hidden hidden" style="display:block;height:0px;width:0px;"/><g id="sprotty_ArchitectureBlockImpl$flash_ctrl_rd/AlwaysBlockImpl$null16/GPortImpl$data_rdy_iIN" transform="translate(0, 50)" class="sprotty-hidden hidden" style="display:block;height:0px;width:0px;"/><g id="sprotty_ArchitectureBlockImpl$flash_ctrl_rd/AlwaysBlockImpl$null16/GPortImpl$op_start_iIN" transform="translate(0, 60)" class="sprotty-hidden hidden" style="display:block;height:0px;width:0px;"/><g id="sprotty_ArchitectureBlockImpl$flash_ctrl_rd/AlwaysBlockImpl$null16/GPortImpl$cntIN" transform="translate(0, 30)" class="sprotty-hidden hidden" style="display:block;height:0px;width:0px;"/><g id="sprotty_ArchitectureBlockImpl$flash_ctrl_rd/AlwaysBlockImpl$null16/GPortImpl$stIN" transform="translate(0, 20)" class="sprotty-hidden hidden" style="display:block;height:0px;width:0px;"/><g id="sprotty_ArchitectureBlockImpl$flash_ctrl_rd/AlwaysBlockImpl$null16/GPortImpl$st_nxtOUT" transform="translate(63.75, 10)" class="sprotty-hidden hidden" style="display:block;height:0px;width:0px;"/><g id="sprotty_ArchitectureBlockImpl$flash_ctrl_rd/AlwaysBlockImpl$null16/GPortImpl$cnt_nxtOUT" transform="translate(63.75, 20)" class="sprotty-hidden hidden" style="display:block;height:0px;width:0px;"/><g id="sprotty_ArchitectureBlockImpl$flash_ctrl_rd/AlwaysBlockImpl$null16/GPortImpl$flash_req_oOUT" transform="translate(63.75, 70)" class="sprotty-hidden hidden" style="display:block;height:0px;width:0px;"/><g id="sprotty_ArchitectureBlockImpl$flash_ctrl_rd/AlwaysBlockImpl$null16/GPortImpl$data_wr_oOUT" transform="translate(63.75, 40)" class="sprotty-hidden hidden" style="display:block;height:0px;width:0px;"/><g id="sprotty_ArchitectureBlockImpl$flash_ctrl_rd/AlwaysBlockImpl$null16/GPortImpl$op_done_oOUT" transform="translate(63.75, 60)" class="sprotty-hidden hidden" style="display:block;height:0px;width:0px;"/><g id="sprotty_ArchitectureBlockImpl$flash_ctrl_rd/AlwaysBlockImpl$null16/GPortImpl$op_err_oOUT" transform="translate(63.75, 50)" class="sprotty-hidden hidden" style="display:block;height:0px;width:0px;"/><g id="sprotty_ArchitectureBlockImpl$flash_ctrl_rd/AlwaysBlockImpl$null16/GPortImpl$err_selOUT" transform="translate(63.75, 30)" class="sprotty-hidden hidden" style="display:block;height:0px;width:0px;"/></g><g id="sprotty_ArchitectureBlockImpl$flash_ctrl_rd/AlwaysBlockImpl$null17" transform="translate(159.3125, 172)" class="statement"><rect x="0" y="0" rx="10" ry="5" width="48.890625" height="50" class="sprotty-node" style="fill:rgb(245, 245, 245);stroke:rgb(112, 112, 112);"/><text class="clickable sprotty-label statementtype" id="sprotty_ArchitectureBlockImpl$flash_ctrl_rd/AlwaysBlockImpl$null17/labeltype" transform="translate(5, 19) translate(18.828125, 9)" style="cursor:default;font-size:8px;font-weight:700;perspective-origin:0.609375px 0px;fill:rgb(112, 112, 112);text-anchor:middle;">always_ff</text><g id="sprotty_ArchitectureBlockImpl$flash_ctrl_rd/AlwaysBlockImpl$null17/GPortImpl$st_nxtIN" transform="translate(0, 10)" class="sprotty-hidden hidden" style="display:block;height:0px;width:0px;"/><g id="sprotty_ArchitectureBlockImpl$flash_ctrl_rd/AlwaysBlockImpl$null17/GPortImpl$cnt_nxtIN" transform="translate(0, 20)" class="sprotty-hidden hidden" style="display:block;height:0px;width:0px;"/><g id="sprotty_ArchitectureBlockImpl$flash_ctrl_rd/AlwaysBlockImpl$null17/GPortImpl$rst_niIN" transform="translate(0, 40)" class="sprotty-hidden hidden" style="display:block;height:0px;width:0px;"/><g id="sprotty_ArchitectureBlockImpl$flash_ctrl_rd/AlwaysBlockImpl$null17/GPortImpl$clk_iIN" transform="translate(0, 30)" class="sprotty-hidden hidden" style="display:block;height:0px;width:0px;"/><g id="sprotty_ArchitectureBlockImpl$flash_ctrl_rd/AlwaysBlockImpl$null17/GPortImpl$cntOUT" transform="translate(48.890625, 16.666666666666668)" class="sprotty-hidden hidden" style="display:block;height:0px;width:0px;"/><g id="sprotty_ArchitectureBlockImpl$flash_ctrl_rd/AlwaysBlockImpl$null17/GPortImpl$stOUT" transform="translate(48.890625, 33.333333333333336)" class="sprotty-hidden hidden" style="display:block;height:0px;width:0px;"/></g><g id="sprotty_ArchitectureBlockImpl$flash_ctrl_rd/AssignmentBlockImpl$data_o" transform="translate(421.671875, 35)" class="statement"><rect x="0" y="0" rx="10" ry="5" width="19.71875" height="30" class="sprotty-node" style="fill:rgb(245, 245, 245);stroke:rgb(112, 112, 112);"/><text class="clickable sprotty-label statementtype" id="sprotty_ArchitectureBlockImpl$flash_ctrl_rd/AssignmentBlockImpl$data_o/labeltype" transform="translate(5, 9) translate(4.71875, 9)" style="cursor:default;font-size:8px;font-weight:700;perspective-origin:0.140625px 0px;fill:rgb(112, 112, 112);text-anchor:middle;">&lt;=</text><g id="sprotty_ArchitectureBlockImpl$flash_ctrl_rd/AssignmentBlockImpl$data_o/GPortImpl$flash_data_iIN" transform="translate(0, 10)" class="sprotty-hidden hidden" style="display:block;height:0px;width:0px;"/><g id="sprotty_ArchitectureBlockImpl$flash_ctrl_rd/AssignmentBlockImpl$data_o/GPortImpl$err_selIN" transform="translate(0, 20)" class="sprotty-hidden hidden" style="display:block;height:0px;width:0px;"/><g id="sprotty_ArchitectureBlockImpl$flash_ctrl_rd/AssignmentBlockImpl$data_o/GPortImpl$data_oOUT" transform="translate(19.71875, 15)" class="sprotty-hidden hidden" style="display:block;height:0px;width:0px;"/></g><g id="sprotty_ArchitectureBlockImpl$flash_ctrl_rd/AssignmentBlockImpl$flash_ovfl_o" transform="translate(319.9375, 73)" class="statement"><rect x="0" y="0" rx="10" ry="5" width="19.71875" height="22" class="sprotty-node" style="fill:rgb(245, 245, 245);stroke:rgb(112, 112, 112);"/><text class="clickable sprotty-label statementtype" id="sprotty_ArchitectureBlockImpl$flash_ctrl_rd/AssignmentBlockImpl$flash_ovfl_o/labeltype" transform="translate(5, 5) translate(4.71875, 9)" style="cursor:default;font-size:8px;font-weight:700;perspective-origin:0.140625px 0px;fill:rgb(112, 112, 112);text-anchor:middle;">&lt;=</text><g id="sprotty_ArchitectureBlockImpl$flash_ctrl_rd/AssignmentBlockImpl$flash_ovfl_o/GPortImpl$int_addrIN" transform="translate(0, 11)" class="sprotty-hidden hidden" style="display:block;height:0px;width:0px;"/><g id="sprotty_ArchitectureBlockImpl$flash_ctrl_rd/AssignmentBlockImpl$flash_ovfl_o/GPortImpl$flash_ovfl_oOUT" transform="translate(19.71875, 11)" class="sprotty-hidden hidden" style="display:block;height:0px;width:0px;"/></g><g id="sprotty_ArchitectureBlockImpl$flash_ctrl_rd/AssignmentBlockImpl$flash_addr_o" transform="translate(319.9375, 115)" class="statement"><rect x="0" y="0" rx="10" ry="5" width="19.71875" height="22" class="sprotty-node" style="fill:rgb(245, 245, 245);stroke:rgb(112, 112, 112);"/><text class="clickable sprotty-label statementtype" id="sprotty_ArchitectureBlockImpl$flash_ctrl_rd/AssignmentBlockImpl$flash_addr_o/labeltype" transform="translate(5, 5) translate(4.71875, 9)" style="cursor:default;font-size:8px;font-weight:700;perspective-origin:0.140625px 0px;fill:rgb(112, 112, 112);text-anchor:middle;">&lt;=</text><g id="sprotty_ArchitectureBlockImpl$flash_ctrl_rd/AssignmentBlockImpl$flash_addr_o/GPortImpl$int_addrIN" transform="translate(0, 11)" class="sprotty-hidden hidden" style="display:block;height:0px;width:0px;"/><g id="sprotty_ArchitectureBlockImpl$flash_ctrl_rd/AssignmentBlockImpl$flash_addr_o/GPortImpl$flash_addr_oOUT" transform="translate(19.71875, 11)" class="sprotty-hidden hidden" style="display:block;height:0px;width:0px;"/></g><g id="sprotty_ArchitectureBlockImpl$flash_ctrl_rd/AssignmentBlockImpl$int_addr" transform="translate(238.203125, 111)" class="statement"><rect x="0" y="0" rx="10" ry="5" width="19.71875" height="30" class="sprotty-node" style="fill:rgb(245, 245, 245);stroke:rgb(112, 112, 112);"/><text class="clickable sprotty-label statementtype" id="sprotty_ArchitectureBlockImpl$flash_ctrl_rd/AssignmentBlockImpl$int_addr/labeltype" transform="translate(5, 9) translate(4.71875, 9)" style="cursor:default;font-size:8px;font-weight:700;perspective-origin:0.140625px 0px;fill:rgb(112, 112, 112);text-anchor:middle;">&lt;=</text><g id="sprotty_ArchitectureBlockImpl$flash_ctrl_rd/AssignmentBlockImpl$int_addr/GPortImpl$cntIN" transform="translate(0, 20)" class="sprotty-hidden hidden" style="display:block;height:0px;width:0px;"/><g id="sprotty_ArchitectureBlockImpl$flash_ctrl_rd/AssignmentBlockImpl$int_addr/GPortImpl$op_addr_iIN" transform="translate(0, 10)" class="sprotty-hidden hidden" style="display:block;height:0px;width:0px;"/><g id="sprotty_ArchitectureBlockImpl$flash_ctrl_rd/AssignmentBlockImpl$int_addr/GPortImpl$cntOUT" transform="translate(19.71875, 15)" class="sprotty-hidden hidden" style="display:block;height:0px;width:0px;"/></g><g id="sprotty_ArchitectureBlockImpl$flash_ctrl_rd/AssignmentBlockImpl$cnt_hit" transform="translate(238.203125, 278)" class="statement"><rect x="0" y="0" rx="10" ry="5" width="19.71875" height="30" class="sprotty-node" style="fill:rgb(245, 245, 245);stroke:rgb(112, 112, 112);"/><text class="clickable sprotty-label statementtype" id="sprotty_ArchitectureBlockImpl$flash_ctrl_rd/AssignmentBlockImpl$cnt_hit/labeltype" transform="translate(5, 9) translate(4.71875, 9)" style="cursor:default;font-size:8px;font-weight:700;perspective-origin:0.140625px 0px;fill:rgb(112, 112, 112);text-anchor:middle;">&lt;=</text><g id="sprotty_ArchitectureBlockImpl$flash_ctrl_rd/AssignmentBlockImpl$cnt_hit/GPortImpl$op_num_words_iIN" transform="translate(0, 20)" class="sprotty-hidden hidden" style="display:block;height:0px;width:0px;"/><g id="sprotty_ArchitectureBlockImpl$flash_ctrl_rd/AssignmentBlockImpl$cnt_hit/GPortImpl$cntIN" transform="translate(0, 10)" class="sprotty-hidden hidden" style="display:block;height:0px;width:0px;"/><g id="sprotty_ArchitectureBlockImpl$flash_ctrl_rd/AssignmentBlockImpl$cnt_hit/GPortImpl$cnt_hitOUT" transform="translate(19.71875, 15)" class="sprotty-hidden hidden" style="display:block;height:0px;width:0px;"/></g><g id="sprotty_ArchitectureBlockImpl$flash_ctrl_rd/AssignmentBlockImpl$txn_done" transform="translate(238.203125, 390)" class="statement"><rect x="0" y="0" rx="10" ry="5" width="19.71875" height="30" class="sprotty-node" style="fill:rgb(245, 245, 245);stroke:rgb(112, 112, 112);"/><text class="clickable sprotty-label statementtype" id="sprotty_ArchitectureBlockImpl$flash_ctrl_rd/AssignmentBlockImpl$txn_done/labeltype" transform="translate(5, 9) translate(4.71875, 9)" style="cursor:default;font-size:8px;font-weight:700;perspective-origin:0.140625px 0px;fill:rgb(112, 112, 112);text-anchor:middle;">&lt;=</text><g id="sprotty_ArchitectureBlockImpl$flash_ctrl_rd/AssignmentBlockImpl$txn_done/GPortImpl$flash_done_iIN" transform="translate(0, 10)" class="sprotty-hidden hidden" style="display:block;height:0px;width:0px;"/><g id="sprotty_ArchitectureBlockImpl$flash_ctrl_rd/AssignmentBlockImpl$txn_done/GPortImpl$flash_req_oIN" transform="translate(0, 20)" class="sprotty-hidden hidden" style="display:block;height:0px;width:0px;"/><g id="sprotty_ArchitectureBlockImpl$flash_ctrl_rd/AssignmentBlockImpl$txn_done/GPortImpl$txn_doneOUT" transform="translate(19.71875, 15)" class="sprotty-hidden hidden" style="display:block;height:0px;width:0px;"/></g><g id="sprotty_ArchitectureBlockImpl$flash_ctrl_rd/BPortImpl$flash_error_i" transform="translate(0, 246)" class="triangle"><path d="M 0,0 L 5,2.5 L 0,5 Z" transform="translate(-1.67, -2.5)" class="sprotty-port" style="fill:rgb(48, 48, 48);stroke:rgb(48, 48, 48);"/><text class="clickable sprotty-label port" id="sprotty_ArchitectureBlockImpl$flash_ctrl_rd/BPortImpl$flash_error_i/label" transform="translate(6, 6) translate(35.734375, 14)" style="cursor:default;font-size:12px;perspective-origin:0px 0px;fill:rgb(48, 48, 48);text-anchor:middle;">flash_error_i</text></g><g id="sprotty_ArchitectureBlockImpl$flash_ctrl_rd/BPortImpl$flash_done_i" transform="translate(0, 400)" class="triangle"><path d="M 0,0 L 5,2.5 L 0,5 Z" transform="translate(-1.67, -2.5)" class="sprotty-port" style="fill:rgb(48, 48, 48);stroke:rgb(48, 48, 48);"/><text class="clickable sprotty-label port" id="sprotty_ArchitectureBlockImpl$flash_ctrl_rd/BPortImpl$flash_done_i/label" transform="translate(6, 6) translate(36.203125, 14)" style="cursor:default;font-size:12px;perspective-origin:0px 0px;fill:rgb(48, 48, 48);text-anchor:middle;">flash_done_i</text></g><g id="sprotty_ArchitectureBlockImpl$flash_ctrl_rd/BPortImpl$flash_data_i" transform="translate(0, 45)" class="triangle"><path d="M 0,0 L 5,2.5 L 0,5 Z" transform="translate(-1.67, -2.5)" class="sprotty-port" style="fill:rgb(48, 48, 48);stroke:rgb(48, 48, 48);"/><text class="clickable sprotty-label port" id="sprotty_ArchitectureBlockImpl$flash_ctrl_rd/BPortImpl$flash_data_i/label" transform="translate(6, 6) translate(34.375, 14)" style="cursor:default;font-size:12px;perspective-origin:0px 0px;fill:rgb(48, 48, 48);text-anchor:middle;">flash_data_i</text></g><g id="sprotty_ArchitectureBlockImpl$flash_ctrl_rd/BPortImpl$data_rdy_i" transform="translate(0, 332)" class="triangle"><path d="M 0,0 L 5,2.5 L 0,5 Z" transform="translate(-1.67, -2.5)" class="sprotty-port" style="fill:rgb(48, 48, 48);stroke:rgb(48, 48, 48);"/><text class="clickable sprotty-label port" id="sprotty_ArchitectureBlockImpl$flash_ctrl_rd/BPortImpl$data_rdy_i/label" transform="translate(6, 6) translate(29.984375, 14)" style="cursor:default;font-size:12px;perspective-origin:0px 0px;fill:rgb(48, 48, 48);text-anchor:middle;">data_rdy_i</text></g><g id="sprotty_ArchitectureBlockImpl$flash_ctrl_rd/BPortImpl$op_addr_i" transform="translate(0, 121)" class="triangle"><path d="M 0,0 L 5,2.5 L 0,5 Z" transform="translate(-1.67, -2.5)" class="sprotty-port" style="fill:rgb(48, 48, 48);stroke:rgb(48, 48, 48);"/><text class="clickable sprotty-label port" id="sprotty_ArchitectureBlockImpl$flash_ctrl_rd/BPortImpl$op_addr_i/label" transform="translate(6, 6) translate(28.875, 14)" style="cursor:default;font-size:12px;perspective-origin:0px 0px;fill:rgb(48, 48, 48);text-anchor:middle;">op_addr_i</text></g><g id="sprotty_ArchitectureBlockImpl$flash_ctrl_rd/BPortImpl$op_num_words_i" transform="translate(0, 298)" class="triangle"><path d="M 0,0 L 5,2.5 L 0,5 Z" transform="translate(-1.67, -2.5)" class="sprotty-port" style="fill:rgb(48, 48, 48);stroke:rgb(48, 48, 48);"/><text class="clickable sprotty-label port" id="sprotty_ArchitectureBlockImpl$flash_ctrl_rd/BPortImpl$op_num_words_i/label" transform="translate(6, 6) translate(49.15625, 14)" style="cursor:default;font-size:12px;perspective-origin:0px 0px;fill:rgb(48, 48, 48);text-anchor:middle;">op_num_words_i</text></g><g id="sprotty_ArchitectureBlockImpl$flash_ctrl_rd/BPortImpl$op_start_i" transform="translate(0, 366)" class="triangle"><path d="M 0,0 L 5,2.5 L 0,5 Z" transform="translate(-1.67, -2.5)" class="sprotty-port" style="fill:rgb(48, 48, 48);stroke:rgb(48, 48, 48);"/><text class="clickable sprotty-label port" id="sprotty_ArchitectureBlockImpl$flash_ctrl_rd/BPortImpl$op_start_i/label" transform="translate(6, 6) translate(28.484375, 14)" style="cursor:default;font-size:12px;perspective-origin:0px 0px;fill:rgb(48, 48, 48);text-anchor:middle;">op_start_i</text></g><g id="sprotty_ArchitectureBlockImpl$flash_ctrl_rd/BPortImpl$rst_ni" transform="translate(0, 212)" class="triangle"><path d="M 0,0 L 5,2.5 L 0,5 Z" transform="translate(-1.67, -2.5)" class="sprotty-port" style="fill:rgb(48, 48, 48);stroke:rgb(48, 48, 48);"/><text class="clickable sprotty-label port" id="sprotty_ArchitectureBlockImpl$flash_ctrl_rd/BPortImpl$rst_ni/label" transform="translate(6, 6) translate(15.921875, 14)" style="cursor:default;font-size:12px;perspective-origin:0px 0px;fill:rgb(48, 48, 48);text-anchor:middle;">rst_ni</text></g><g id="sprotty_ArchitectureBlockImpl$flash_ctrl_rd/BPortImpl$clk_i" transform="translate(0, 178)" class="triangle"><path d="M 0,0 L 5,2.5 L 0,5 Z" transform="translate(-1.67, -2.5)" class="sprotty-port" style="fill:rgb(48, 48, 48);stroke:rgb(48, 48, 48);"/><text class="clickable sprotty-label port" id="sprotty_ArchitectureBlockImpl$flash_ctrl_rd/BPortImpl$clk_i/label" transform="translate(6, 6) translate(13.09375, 14)" style="cursor:default;font-size:12px;perspective-origin:0px 0px;fill:rgb(48, 48, 48);text-anchor:middle;">clk_i</text></g><g id="sprotty_ArchitectureBlockImpl$flash_ctrl_rd/BPortImpl$op_done_o" transform="translate(536.390625, 313)" class="triangle"><path d="M 0,0 L 5,2.5 L 0,5 Z" transform="translate(-1.67, -2.5)" class="sprotty-port" style="fill:rgb(48, 48, 48);stroke:rgb(48, 48, 48);"/><text class="clickable sprotty-label port" id="sprotty_ArchitectureBlockImpl$flash_ctrl_rd/BPortImpl$op_done_o/label" transform="translate(-70.09375, 6) translate(32.046875, 14)" style="cursor:default;font-size:12px;perspective-origin:0px 0px;fill:rgb(48, 48, 48);text-anchor:middle;">op_done_o</text></g><g id="sprotty_ArchitectureBlockImpl$flash_ctrl_rd/BPortImpl$op_err_o" transform="translate(536.390625, 279)" class="triangle"><path d="M 0,0 L 5,2.5 L 0,5 Z" transform="translate(-1.67, -2.5)" class="sprotty-port" style="fill:rgb(48, 48, 48);stroke:rgb(48, 48, 48);"/><text class="clickable sprotty-label port" id="sprotty_ArchitectureBlockImpl$flash_ctrl_rd/BPortImpl$op_err_o/label" transform="translate(-57.375, 6) translate(25.6875, 14)" style="cursor:default;font-size:12px;perspective-origin:0px 0px;fill:rgb(48, 48, 48);text-anchor:middle;">op_err_o</text></g><g id="sprotty_ArchitectureBlockImpl$flash_ctrl_rd/BPortImpl$data_o" transform="translate(536.390625, 50)" class="triangle"><path d="M 0,0 L 5,2.5 L 0,5 Z" transform="translate(-1.67, -2.5)" class="sprotty-port" style="fill:rgb(48, 48, 48);stroke:rgb(48, 48, 48);"/><text class="clickable sprotty-label port" id="sprotty_ArchitectureBlockImpl$flash_ctrl_rd/BPortImpl$data_o/label" transform="translate(-45.03125, 6) translate(19.515625, 14)" style="cursor:default;font-size:12px;perspective-origin:0px 0px;fill:rgb(48, 48, 48);text-anchor:middle;">data_o</text></g><g id="sprotty_ArchitectureBlockImpl$flash_ctrl_rd/BPortImpl$data_wr_o" transform="translate(536.390625, 245)" class="triangle"><path d="M 0,0 L 5,2.5 L 0,5 Z" transform="translate(-1.67, -2.5)" class="sprotty-port" style="fill:rgb(48, 48, 48);stroke:rgb(48, 48, 48);"/><text class="clickable sprotty-label port" id="sprotty_ArchitectureBlockImpl$flash_ctrl_rd/BPortImpl$data_wr_o/label" transform="translate(-66.03125, 6) translate(30.015625, 14)" style="cursor:default;font-size:12px;perspective-origin:0px 0px;fill:rgb(48, 48, 48);text-anchor:middle;">data_wr_o</text></g><g id="sprotty_ArchitectureBlockImpl$flash_ctrl_rd/BPortImpl$flash_req_o" transform="translate(536.390625, 430)" class="triangle"><path d="M 0,0 L 5,2.5 L 0,5 Z" transform="translate(-1.67, -2.5)" class="sprotty-port" style="fill:rgb(48, 48, 48);stroke:rgb(48, 48, 48);"/><text class="clickable sprotty-label port" id="sprotty_ArchitectureBlockImpl$flash_ctrl_rd/BPortImpl$flash_req_o/label" transform="translate(-72.3125, 6) translate(33.15625, 14)" style="cursor:default;font-size:12px;perspective-origin:0px 0px;fill:rgb(48, 48, 48);text-anchor:middle;">flash_req_o</text></g><g id="sprotty_ArchitectureBlockImpl$flash_ctrl_rd/BPortImpl$flash_addr_o" transform="translate(536.390625, 126)" class="triangle"><path d="M 0,0 L 5,2.5 L 0,5 Z" transform="translate(-1.67, -2.5)" class="sprotty-port" style="fill:rgb(48, 48, 48);stroke:rgb(48, 48, 48);"/><text class="clickable sprotty-label port" id="sprotty_ArchitectureBlockImpl$flash_ctrl_rd/BPortImpl$flash_addr_o/label" transform="translate(-80, 6) translate(37, 14)" style="cursor:default;font-size:12px;perspective-origin:0px 0px;fill:rgb(48, 48, 48);text-anchor:middle;">flash_addr_o</text></g><g id="sprotty_ArchitectureBlockImpl$flash_ctrl_rd/BPortImpl$flash_ovfl_o" transform="translate(536.390625, 84)" class="triangle"><path d="M 0,0 L 5,2.5 L 0,5 Z" transform="translate(-1.67, -2.5)" class="sprotty-port" style="fill:rgb(48, 48, 48);stroke:rgb(48, 48, 48);"/><text class="clickable sprotty-label port" id="sprotty_ArchitectureBlockImpl$flash_ctrl_rd/BPortImpl$flash_ovfl_o/label" transform="translate(-74.5, 6) translate(34.25, 14)" style="cursor:default;font-size:12px;perspective-origin:0px 0px;fill:rgb(48, 48, 48);text-anchor:middle;">flash_ovfl_o</text></g></g></g></svg>