<svg xmlns="http://www.w3.org/2000/svg" id="sprotty_work.usb_clk" class="sprotty-graph sprotty-block-diagram blockdiagram" style="font-family:&quot;Noto Sans&quot;, Helvetica, Arial, sans-serif;perspective-origin:0px 0px;transform-origin:0px 0px;" version="1.1" viewBox="7 7 557.515625 304" width="557.515625" height="304"><g transform="scale(1) translate(0,0)"><g id="sprotty_ArchitectureBlockImpl$usb_clk" transform="translate(12, 12)" class="architecture"><g class="sprotty-block" style="fill:rgb(255, 255, 255);stroke:rgb(48, 48, 48);stroke-dasharray:0px;"><rect x="0" y="0" rx="1" ry="1" width="547.515625" height="294"/><text x="273.7578125" y="12" class="sprotty-block-name" style="cursor:pointer;font-weight:700;perspective-origin:273.922px 0px;fill:rgb(48, 48, 48);stroke:rgba(0, 0, 0, 0);dominant-baseline:middle;text-anchor:middle;">usb_clk</text><line x1="0" y1="20" x2="547.515625" y2="20"/></g><g id="sprotty_ArchitectureBlockImpl$usb_clk/AssignmentBlockImpl$clk_src_usb_o/GPortImpl$clk_src_usb_oOUT_to_ArchitectureBlockImpl$usb_clk/BPortImpl$clk_src_usb_o" class="sprotty-edge edge" style="fill:none;stroke:rgb(112, 112, 112);stroke-linejoin:round;"><g><path d="M 408.9296875 183 L 547.515625 183 "/><path d="M 408.9296875 183 L 547.515625 183 " class="clickable"/></g></g><g id="sprotty_ArchitectureBlockImpl$usb_clk/AlwaysBlockImpl$null8/GPortImpl$clk_src_usb_val_oOUT_to_ArchitectureBlockImpl$usb_clk/BPortImpl$clk_src_usb_val_o" class="sprotty-edge edge" style="fill:none;stroke:rgb(112, 112, 112);stroke-linejoin:round;"><g><path d="M 423.515625 56 L 547.515625 56 "/><path d="M 423.515625 56 L 547.515625 56 " class="clickable"/></g></g><g id="sprotty_ArchitectureBlockImpl$usb_clk/BPortImpl$vcore_pok_h_i_to_ArchitectureBlockImpl$usb_clk/InstantiationBlockImpl$u_usb_osc/BPortImpl$vcore_pok_h_i" class="sprotty-edge edge" style="fill:none;stroke:rgb(112, 112, 112);stroke-linejoin:round;"><g><path d="M 0 155 L 177.5625 155 "/><path d="M 0 155 L 177.5625 155 " class="clickable"/></g></g><g id="sprotty_ArchitectureBlockImpl$usb_clk/BPortImpl$usb_ref_val_i_to_ArchitectureBlockImpl$usb_clk/InstantiationBlockImpl$u_usb_osc/BPortImpl$usb_ref_val_i" class="sprotty-edge edge" style="fill:none;stroke:rgb(112, 112, 112);stroke-linejoin:round;"><g><path d="M 0 211 L 177.5625 211 "/><path d="M 0 211 L 177.5625 211 " class="clickable"/></g></g><g id="sprotty_ArchitectureBlockImpl$usb_clk/BPortImpl$rst_usb_clk_ni_to_ArchitectureBlockImpl$usb_clk/AssignmentBlockImpl$rst_n/GPortImpl$rst_usb_clk_niIN" class="sprotty-edge edge" style="fill:none;stroke:rgb(112, 112, 112);stroke-linejoin:round;"><g><path d="M 0 46 L 137.84375 46 "/><path d="M 0 46 L 137.84375 46 " class="clickable"/></g></g><g id="sprotty_ArchitectureBlockImpl$usb_clk/BPortImpl$clk_src_usb_en_i_to_ArchitectureBlockImpl$usb_clk/AssignmentBlockImpl$usb_clk_en/GPortImpl$clk_src_usb_en_iIN" class="sprotty-edge edge" style="fill:none;stroke:rgb(112, 112, 112);stroke-linejoin:round;"><g><path d="M 0 87 L 137.84375 87 "/><path d="M 0 87 L 137.84375 87 " class="clickable"/></g></g><g id="sprotty_ArchitectureBlockImpl$usb_clk/BPortImpl$clk_usb_pd_ni_to_ArchitectureBlockImpl$usb_clk/AssignmentBlockImpl$usb_clk_en/GPortImpl$clk_usb_pd_niIN" class="sprotty-edge edge" style="fill:none;stroke:rgb(112, 112, 112);stroke-linejoin:round;"><g><path d="M 0 121 L 125.84375 121 C 126.84375 121 127.84375 120 127.84375 119 L 127.84375 99 C 127.84375 98 128.84375 97 129.84375 97 L 137.84375 97 "/><path d="M 0 121 L 125.84375 121 C 126.84375 121 127.84375 120 127.84375 119 L 127.84375 99 C 127.84375 98 128.84375 97 129.84375 97 L 137.84375 97 " class="clickable"/></g></g><g id="sprotty_ArchitectureBlockImpl$usb_clk/InstantiationBlockImpl$u_usb_osc/BPortImpl$usb_clk_o_to_ArchitectureBlockImpl$usb_clk/AssignmentBlockImpl$clk_src_usb_o/GPortImpl$clkIN" class="sprotty-edge edge" style="fill:none;stroke:rgb(112, 112, 112);stroke-linejoin:round;"><g><path d="M 354.625 183 L 389.2109375 183 "/><path d="M 354.625 183 L 389.2109375 183 " class="clickable"/></g></g><g id="sprotty_ArchitectureBlockImpl$usb_clk/InstantiationBlockImpl$u_usb_osc/BPortImpl$usb_clk_o_to_ArchitectureBlockImpl$usb_clk/AlwaysBlockImpl$null8/GPortImpl$clkIN" class="sprotty-edge edge" style="fill:none;stroke:rgb(112, 112, 112);stroke-linejoin:round;"><g><path d="M 354.625 183 L 362.625 183 C 363.625 183 364.625 182 364.625 181 L 364.625 63 C 364.625 62 365.625 61 366.625 61 L 374.625 61 "/><path d="M 354.625 183 L 362.625 183 C 363.625 183 364.625 182 364.625 181 L 364.625 63 C 364.625 62 365.625 61 366.625 61 L 374.625 61 " class="clickable"/></g><circle r="2" id="sprotty_ArchitectureBlockImpl$usb_clk/InstantiationBlockImpl$u_usb_osc/BPortImpl$usb_clk_o_to_ArchitectureBlockImpl$usb_clk/AlwaysBlockImpl$null8/GPortImpl$clkIN/junction0" transform="translate(364.625, 183)" class="sprotty-junction junction" style="fill:rgb(112, 112, 112);stroke:none;"/></g><g id="sprotty_ArchitectureBlockImpl$usb_clk/AssignmentBlockImpl$usb_clk_en/GPortImpl$usb_clk_enOUT_to_ArchitectureBlockImpl$usb_clk/InstantiationBlockImpl$u_usb_osc/BPortImpl$usb_en_i" class="sprotty-edge edge" style="fill:none;stroke:rgb(112, 112, 112);stroke-linejoin:round;"><g><path d="M 157.5625 92 L 165.5625 92 C 166.5625 92 167.5625 93 167.5625 94 L 167.5625 181 C 167.5625 182 168.5625 183 169.5625 183 L 177.5625 183 "/><path d="M 157.5625 92 L 165.5625 92 C 166.5625 92 167.5625 93 167.5625 94 L 167.5625 181 C 167.5625 182 168.5625 183 169.5625 183 L 177.5625 183 " class="clickable"/></g><circle r="2" id="sprotty_ArchitectureBlockImpl$usb_clk/AssignmentBlockImpl$usb_clk_en/GPortImpl$usb_clk_enOUT_to_ArchitectureBlockImpl$usb_clk/InstantiationBlockImpl$u_usb_osc/BPortImpl$usb_en_i/junction0" transform="translate(167.5625, 92)" class="sprotty-junction junction" style="fill:rgb(112, 112, 112);stroke:none;"/></g><g id="sprotty_ArchitectureBlockImpl$usb_clk/AssignmentBlockImpl$usb_clk_en/GPortImpl$usb_clk_enOUT_to_ArchitectureBlockImpl$usb_clk/AssignmentBlockImpl$rst_val_n/GPortImpl$usb_clk_enIN" class="sprotty-edge edge" style="fill:none;stroke:rgb(112, 112, 112);stroke-linejoin:round;"><g><path d="M 157.5625 92 L 165.5625 92 C 166.5625 92 167.5625 91 167.5625 90 L 167.5625 58 C 167.5625 57 168.5625 56 169.5625 56 L 230.01041666666666 56 "/><path d="M 157.5625 92 L 165.5625 92 C 166.5625 92 167.5625 91 167.5625 90 L 167.5625 58 C 167.5625 57 168.5625 56 169.5625 56 L 230.01041666666666 56 " class="clickable"/></g></g><g id="sprotty_ArchitectureBlockImpl$usb_clk/AssignmentBlockImpl$rst_n/GPortImpl$rst_nOUT_to_ArchitectureBlockImpl$usb_clk/AssignmentBlockImpl$rst_val_n/GPortImpl$rst_nIN" class="sprotty-edge edge" style="fill:none;stroke:rgb(112, 112, 112);stroke-linejoin:round;"><g><path d="M 157.5625 46 L 230.01041666666666 46 "/><path d="M 157.5625 46 L 230.01041666666666 46 " class="clickable"/></g></g><g id="sprotty_ArchitectureBlockImpl$usb_clk/AssignmentBlockImpl$rst_val_n/GPortImpl$usb_clk_enOUT_to_ArchitectureBlockImpl$usb_clk/AlwaysBlockImpl$null8/GPortImpl$rst_val_nIN" class="sprotty-edge edge" style="fill:none;stroke:rgb(112, 112, 112);stroke-linejoin:round;"><g><path d="M 249.72916666666666 51 L 374.625 51 "/><path d="M 249.72916666666666 51 L 374.625 51 " class="clickable"/></g></g><g id="sprotty_ArchitectureBlockImpl$usb_clk/AlwaysBlockImpl$null8" transform="translate(374.625, 41)" class="statement"><rect x="0" y="0" rx="10" ry="5" width="48.890625" height="30" class="sprotty-node" style="fill:rgb(245, 245, 245);stroke:rgb(112, 112, 112);"/><text class="clickable sprotty-label statementtype" id="sprotty_ArchitectureBlockImpl$usb_clk/AlwaysBlockImpl$null8/labeltype" transform="translate(5, 9) translate(18.828125, 9)" style="cursor:default;font-size:8px;font-weight:700;perspective-origin:0.609375px 0px;fill:rgb(112, 112, 112);text-anchor:middle;">always_ff</text><g id="sprotty_ArchitectureBlockImpl$usb_clk/AlwaysBlockImpl$null8/GPortImpl$rst_val_nIN" transform="translate(0, 10)" class="sprotty-hidden hidden" style="display:block;height:0px;width:0px;"/><g id="sprotty_ArchitectureBlockImpl$usb_clk/AlwaysBlockImpl$null8/GPortImpl$clkIN" transform="translate(0, 20)" class="sprotty-hidden hidden" style="display:block;height:0px;width:0px;"/><g id="sprotty_ArchitectureBlockImpl$usb_clk/AlwaysBlockImpl$null8/GPortImpl$clk_src_usb_val_oOUT" transform="translate(48.890625, 15)" class="sprotty-hidden hidden" style="display:block;height:0px;width:0px;"/></g><g id="sprotty_ArchitectureBlockImpl$usb_clk/AssignmentBlockImpl$rst_val_n" transform="translate(230.01041666666666, 36)" class="statement"><rect x="0" y="0" rx="10" ry="5" width="19.71875" height="30" class="sprotty-node" style="fill:rgb(245, 245, 245);stroke:rgb(112, 112, 112);"/><text class="clickable sprotty-label statementtype" id="sprotty_ArchitectureBlockImpl$usb_clk/AssignmentBlockImpl$rst_val_n/labeltype" transform="translate(5, 9) translate(4.71875, 9)" style="cursor:default;font-size:8px;font-weight:700;perspective-origin:0.140625px 0px;fill:rgb(112, 112, 112);text-anchor:middle;">&lt;=</text><g id="sprotty_ArchitectureBlockImpl$usb_clk/AssignmentBlockImpl$rst_val_n/GPortImpl$usb_clk_enIN" transform="translate(0, 20)" class="sprotty-hidden hidden" style="display:block;height:0px;width:0px;"/><g id="sprotty_ArchitectureBlockImpl$usb_clk/AssignmentBlockImpl$rst_val_n/GPortImpl$rst_nIN" transform="translate(0, 10)" class="sprotty-hidden hidden" style="display:block;height:0px;width:0px;"/><g id="sprotty_ArchitectureBlockImpl$usb_clk/AssignmentBlockImpl$rst_val_n/GPortImpl$usb_clk_enOUT" transform="translate(19.71875, 15)" class="sprotty-hidden hidden" style="display:block;height:0px;width:0px;"/></g><g id="sprotty_ArchitectureBlockImpl$usb_clk/AssignmentBlockImpl$clk_src_usb_o" transform="translate(389.2109375, 172)" class="statement"><rect x="0" y="0" rx="10" ry="5" width="19.71875" height="22" class="sprotty-node" style="fill:rgb(245, 245, 245);stroke:rgb(112, 112, 112);"/><text class="clickable sprotty-label statementtype" id="sprotty_ArchitectureBlockImpl$usb_clk/AssignmentBlockImpl$clk_src_usb_o/labeltype" transform="translate(5, 5) translate(4.71875, 9)" style="cursor:default;font-size:8px;font-weight:700;perspective-origin:0.140625px 0px;fill:rgb(112, 112, 112);text-anchor:middle;">&lt;=</text><g id="sprotty_ArchitectureBlockImpl$usb_clk/AssignmentBlockImpl$clk_src_usb_o/GPortImpl$clkIN" transform="translate(0, 11)" class="sprotty-hidden hidden" style="display:block;height:0px;width:0px;"/><g id="sprotty_ArchitectureBlockImpl$usb_clk/AssignmentBlockImpl$clk_src_usb_o/GPortImpl$clk_src_usb_oOUT" transform="translate(19.71875, 11)" class="sprotty-hidden hidden" style="display:block;height:0px;width:0px;"/></g><g id="sprotty_ArchitectureBlockImpl$usb_clk/AssignmentBlockImpl$usb_clk_en" transform="translate(137.84375, 77)" class="statement"><rect x="0" y="0" rx="10" ry="5" width="19.71875" height="30" class="sprotty-node" style="fill:rgb(245, 245, 245);stroke:rgb(112, 112, 112);"/><text class="clickable sprotty-label statementtype" id="sprotty_ArchitectureBlockImpl$usb_clk/AssignmentBlockImpl$usb_clk_en/labeltype" transform="translate(5, 9) translate(4.71875, 9)" style="cursor:default;font-size:8px;font-weight:700;perspective-origin:0.140625px 0px;fill:rgb(112, 112, 112);text-anchor:middle;">&lt;=</text><g id="sprotty_ArchitectureBlockImpl$usb_clk/AssignmentBlockImpl$usb_clk_en/GPortImpl$clk_usb_pd_niIN" transform="translate(0, 20)" class="sprotty-hidden hidden" style="display:block;height:0px;width:0px;"/><g id="sprotty_ArchitectureBlockImpl$usb_clk/AssignmentBlockImpl$usb_clk_en/GPortImpl$clk_src_usb_en_iIN" transform="translate(0, 10)" class="sprotty-hidden hidden" style="display:block;height:0px;width:0px;"/><g id="sprotty_ArchitectureBlockImpl$usb_clk/AssignmentBlockImpl$usb_clk_en/GPortImpl$usb_clk_enOUT" transform="translate(19.71875, 15)" class="sprotty-hidden hidden" style="display:block;height:0px;width:0px;"/></g><g id="sprotty_ArchitectureBlockImpl$usb_clk/AssignmentBlockImpl$rst_n" transform="translate(137.84375, 35)" class="statement"><rect x="0" y="0" rx="10" ry="5" width="19.71875" height="22" class="sprotty-node" style="fill:rgb(245, 245, 245);stroke:rgb(112, 112, 112);"/><text class="clickable sprotty-label statementtype" id="sprotty_ArchitectureBlockImpl$usb_clk/AssignmentBlockImpl$rst_n/labeltype" transform="translate(5, 5) translate(4.71875, 9)" style="cursor:default;font-size:8px;font-weight:700;perspective-origin:0.140625px 0px;fill:rgb(112, 112, 112);text-anchor:middle;">&lt;=</text><g id="sprotty_ArchitectureBlockImpl$usb_clk/AssignmentBlockImpl$rst_n/GPortImpl$rst_usb_clk_niIN" transform="translate(0, 11)" class="sprotty-hidden hidden" style="display:block;height:0px;width:0px;"/><g id="sprotty_ArchitectureBlockImpl$usb_clk/AssignmentBlockImpl$rst_n/GPortImpl$rst_nOUT" transform="translate(19.71875, 11)" class="sprotty-hidden hidden" style="display:block;height:0px;width:0px;"/></g><g id="sprotty_ArchitectureBlockImpl$usb_clk/InstantiationBlockImpl$u_usb_osc" transform="translate(177.5625, 117)" class="instantiation"><g class="sprotty-block" style="fill:rgb(255, 255, 255);stroke:rgb(48, 48, 48);stroke-dasharray:0px;"><rect x="0" y="0" rx="1" ry="1" width="177.0625" height="112"/><text x="88.53125" y="12" class="sprotty-block-name" style="cursor:pointer;font-weight:700;perspective-origin:88.5312px 0px;fill:rgb(48, 48, 48);stroke:rgba(0, 0, 0, 0);dominant-baseline:middle;text-anchor:middle;">u_usb_osc : usb_osc</text><line x1="0" y1="20" x2="177.0625" y2="20"/></g><g id="sprotty_ArchitectureBlockImpl$usb_clk/InstantiationBlockImpl$u_usb_osc/BPortImpl$usb_ref_val_i" transform="translate(0, 94)" class="triangle"><path d="M 0,0 L 5,2.5 L 0,5 Z" transform="translate(-1.67, -2.5)" class="sprotty-port" style="fill:rgb(48, 48, 48);stroke:rgb(48, 48, 48);"/><text class="clickable sprotty-label port" id="sprotty_ArchitectureBlockImpl$usb_clk/InstantiationBlockImpl$u_usb_osc/BPortImpl$usb_ref_val_i/label" transform="translate(6, -9) translate(37.5, 14)" style="cursor:default;font-size:12px;perspective-origin:0px 0px;fill:rgb(48, 48, 48);text-anchor:middle;">usb_ref_val_i</text></g><g id="sprotty_ArchitectureBlockImpl$usb_clk/InstantiationBlockImpl$u_usb_osc/BPortImpl$usb_en_i" transform="translate(0, 66)" class="triangle"><path d="M 0,0 L 5,2.5 L 0,5 Z" transform="translate(-1.67, -2.5)" class="sprotty-port" style="fill:rgb(48, 48, 48);stroke:rgb(48, 48, 48);"/><text class="clickable sprotty-label port" id="sprotty_ArchitectureBlockImpl$usb_clk/InstantiationBlockImpl$u_usb_osc/BPortImpl$usb_en_i/label" transform="translate(6, -9) translate(25.515625, 14)" style="cursor:default;font-size:12px;perspective-origin:0px 0px;fill:rgb(48, 48, 48);text-anchor:middle;">usb_en_i</text></g><g id="sprotty_ArchitectureBlockImpl$usb_clk/InstantiationBlockImpl$u_usb_osc/BPortImpl$vcore_pok_h_i" transform="translate(0, 38)" class="triangle"><path d="M 0,0 L 5,2.5 L 0,5 Z" transform="translate(-1.67, -2.5)" class="sprotty-port" style="fill:rgb(48, 48, 48);stroke:rgb(48, 48, 48);"/><text class="clickable sprotty-label port" id="sprotty_ArchitectureBlockImpl$usb_clk/InstantiationBlockImpl$u_usb_osc/BPortImpl$vcore_pok_h_i/label" transform="translate(6, -9) translate(41.265625, 14)" style="cursor:default;font-size:12px;perspective-origin:0px 0px;fill:rgb(48, 48, 48);text-anchor:middle;">vcore_pok_h_i</text></g><g id="sprotty_ArchitectureBlockImpl$usb_clk/InstantiationBlockImpl$u_usb_osc/BPortImpl$usb_clk_o" transform="translate(177.0625, 66)" class="triangle"><path d="M 0,0 L 5,2.5 L 0,5 Z" transform="translate(-1.67, -2.5)" class="sprotty-port" style="fill:rgb(48, 48, 48);stroke:rgb(48, 48, 48);"/><text class="clickable sprotty-label port" id="sprotty_ArchitectureBlockImpl$usb_clk/InstantiationBlockImpl$u_usb_osc/BPortImpl$usb_clk_o/label" transform="translate(-63.1875, -9) translate(28.59375, 14)" style="cursor:default;font-size:12px;perspective-origin:0px 0px;fill:rgb(48, 48, 48);text-anchor:middle;">usb_clk_o</text></g></g><g id="sprotty_ArchitectureBlockImpl$usb_clk/BPortImpl$vcore_pok_h_i" transform="translate(0, 155)" class="triangle"><path d="M 0,0 L 5,2.5 L 0,5 Z" transform="translate(-1.67, -2.5)" class="sprotty-port" style="fill:rgb(48, 48, 48);stroke:rgb(48, 48, 48);"/><text class="clickable sprotty-label port" id="sprotty_ArchitectureBlockImpl$usb_clk/BPortImpl$vcore_pok_h_i/label" transform="translate(6, 6) translate(41.265625, 14)" style="cursor:default;font-size:12px;perspective-origin:0px 0px;fill:rgb(48, 48, 48);text-anchor:middle;">vcore_pok_h_i</text></g><g id="sprotty_ArchitectureBlockImpl$usb_clk/BPortImpl$rst_usb_clk_ni" transform="translate(0, 46)" class="triangle"><path d="M 0,0 L 5,2.5 L 0,5 Z" transform="translate(-1.67, -2.5)" class="sprotty-port" style="fill:rgb(48, 48, 48);stroke:rgb(48, 48, 48);"/><text class="clickable sprotty-label port" id="sprotty_ArchitectureBlockImpl$usb_clk/BPortImpl$rst_usb_clk_ni/label" transform="translate(6, 6) translate(40.859375, 14)" style="cursor:default;font-size:12px;perspective-origin:0px 0px;fill:rgb(48, 48, 48);text-anchor:middle;">rst_usb_clk_ni</text></g><g id="sprotty_ArchitectureBlockImpl$usb_clk/BPortImpl$clk_usb_pd_ni" transform="translate(0, 121)" class="triangle"><path d="M 0,0 L 5,2.5 L 0,5 Z" transform="translate(-1.67, -2.5)" class="sprotty-port" style="fill:rgb(48, 48, 48);stroke:rgb(48, 48, 48);"/><text class="clickable sprotty-label port" id="sprotty_ArchitectureBlockImpl$usb_clk/BPortImpl$clk_usb_pd_ni/label" transform="translate(6, 6) translate(41.0625, 14)" style="cursor:default;font-size:12px;perspective-origin:0px 0px;fill:rgb(48, 48, 48);text-anchor:middle;">clk_usb_pd_ni</text></g><g id="sprotty_ArchitectureBlockImpl$usb_clk/BPortImpl$usb_ref_val_i" transform="translate(0, 211)" class="triangle"><path d="M 0,0 L 5,2.5 L 0,5 Z" transform="translate(-1.67, -2.5)" class="sprotty-port" style="fill:rgb(48, 48, 48);stroke:rgb(48, 48, 48);"/><text class="clickable sprotty-label port" id="sprotty_ArchitectureBlockImpl$usb_clk/BPortImpl$usb_ref_val_i/label" transform="translate(6, 6) translate(37.5, 14)" style="cursor:default;font-size:12px;perspective-origin:0px 0px;fill:rgb(48, 48, 48);text-anchor:middle;">usb_ref_val_i</text></g><g id="sprotty_ArchitectureBlockImpl$usb_clk/BPortImpl$usb_ref_pulse_i" transform="translate(0, 255)" class="triangle"><path d="M 0,0 L 5,2.5 L 0,5 Z" transform="translate(-1.67, -2.5)" class="sprotty-port" style="fill:rgb(48, 48, 48);stroke:rgb(48, 48, 48);"/><text class="clickable sprotty-label port" id="sprotty_ArchitectureBlockImpl$usb_clk/BPortImpl$usb_ref_pulse_i/label" transform="translate(6, 6) translate(44.625, 14)" style="cursor:default;font-size:12px;perspective-origin:0px 0px;fill:rgb(48, 48, 48);text-anchor:middle;">usb_ref_pulse_i</text></g><g id="sprotty_ArchitectureBlockImpl$usb_clk/BPortImpl$clk_src_usb_en_i" transform="translate(0, 87)" class="triangle"><path d="M 0,0 L 5,2.5 L 0,5 Z" transform="translate(-1.67, -2.5)" class="sprotty-port" style="fill:rgb(48, 48, 48);stroke:rgb(48, 48, 48);"/><text class="clickable sprotty-label port" id="sprotty_ArchitectureBlockImpl$usb_clk/BPortImpl$clk_src_usb_en_i/label" transform="translate(6, 6) translate(48.421875, 14)" style="cursor:default;font-size:12px;perspective-origin:0px 0px;fill:rgb(48, 48, 48);text-anchor:middle;">clk_src_usb_en_i</text></g><g id="sprotty_ArchitectureBlockImpl$usb_clk/BPortImpl$clk_src_usb_o" transform="translate(547.515625, 183)" class="triangle"><path d="M 0,0 L 5,2.5 L 0,5 Z" transform="translate(-1.67, -2.5)" class="sprotty-port" style="fill:rgb(48, 48, 48);stroke:rgb(48, 48, 48);"/><text class="clickable sprotty-label port" id="sprotty_ArchitectureBlockImpl$usb_clk/BPortImpl$clk_src_usb_o/label" transform="translate(-86.125, 6) translate(40.0625, 14)" style="cursor:default;font-size:12px;perspective-origin:0px 0px;fill:rgb(48, 48, 48);text-anchor:middle;">clk_src_usb_o</text></g><g id="sprotty_ArchitectureBlockImpl$usb_clk/BPortImpl$clk_src_usb_val_o" transform="translate(547.515625, 56)" class="triangle"><path d="M 0,0 L 5,2.5 L 0,5 Z" transform="translate(-1.67, -2.5)" class="sprotty-port" style="fill:rgb(48, 48, 48);stroke:rgb(48, 48, 48);"/><text class="clickable sprotty-label port" id="sprotty_ArchitectureBlockImpl$usb_clk/BPortImpl$clk_src_usb_val_o/label" transform="translate(-109, 6) translate(51.5, 14)" style="cursor:default;font-size:12px;perspective-origin:0px 0px;fill:rgb(48, 48, 48);text-anchor:middle;">clk_src_usb_val_o</text></g></g></g></svg>