<svg xmlns="http://www.w3.org/2000/svg" id="sprotty_work.prim_generic_clock_mux2" class="sprotty-graph sprotty-block-diagram blockdiagram" style="font-family:&quot;Noto Sans&quot;, Helvetica, Arial, sans-serif;perspective-origin:0px 0px;transform-origin:0px 0px;" version="1.1" viewBox="7 7 226.8125 152" width="226.8125" height="152"><g transform="scale(1) translate(0,0)"><g id="sprotty_ArchitectureBlockImpl$prim_generic_clock_mux2" transform="translate(12, 12)" class="architecture"><g class="sprotty-block" style="fill:rgb(255, 255, 255);stroke:rgb(48, 48, 48);stroke-dasharray:0px;"><rect x="0" y="0" rx="1" ry="1" width="216.8125" height="142"/><text x="108.40625" y="12" class="sprotty-block-name" style="cursor:pointer;font-weight:700;perspective-origin:108.406px 0px;fill:rgb(48, 48, 48);stroke:rgba(0, 0, 0, 0);dominant-baseline:middle;text-anchor:middle;">prim_generic_clock_mux2</text><line x1="0" y1="20" x2="216.8125" y2="20"/></g><g id="sprotty_ArchitectureBlockImpl$prim_generic_clock_mux2/AssignmentBlockImpl$clk_o/GPortImpl$clk_oOUT_to_ArchitectureBlockImpl$prim_generic_clock_mux2/BPortImpl$clk_o" class="sprotty-edge edge" style="fill:none;stroke:rgb(112, 112, 112);stroke-linejoin:round;"><g><path d="M 93.5625 69 L 216.8125 69 "/><path d="M 93.5625 69 L 216.8125 69 " class="clickable"/></g></g><g id="sprotty_ArchitectureBlockImpl$prim_generic_clock_mux2/BPortImpl$sel_i_to_ArchitectureBlockImpl$prim_generic_clock_mux2/AssignmentBlockImpl$clk_o/GPortImpl$sel_iIN" class="sprotty-edge edge" style="fill:none;stroke:rgb(112, 112, 112);stroke-linejoin:round;"><g><path d="M 0 35 L 61.84375 35 C 62.84375 35 63.84375 36 63.84375 37 L 63.84375 57 C 63.84375 58 64.84375 59 65.84375 59 L 73.84375 59 "/><path d="M 0 35 L 61.84375 35 C 62.84375 35 63.84375 36 63.84375 37 L 63.84375 57 C 63.84375 58 64.84375 59 65.84375 59 L 73.84375 59 " class="clickable"/></g></g><g id="sprotty_ArchitectureBlockImpl$prim_generic_clock_mux2/BPortImpl$clk1_i_to_ArchitectureBlockImpl$prim_generic_clock_mux2/AssignmentBlockImpl$clk_o/GPortImpl$clk1_iIN" class="sprotty-edge edge" style="fill:none;stroke:rgb(112, 112, 112);stroke-linejoin:round;"><g><path d="M 0 69 L 73.84375 69 "/><path d="M 0 69 L 73.84375 69 " class="clickable"/></g></g><g id="sprotty_ArchitectureBlockImpl$prim_generic_clock_mux2/BPortImpl$clk0_i_to_ArchitectureBlockImpl$prim_generic_clock_mux2/AssignmentBlockImpl$clk_o/GPortImpl$clk0_iIN" class="sprotty-edge edge" style="fill:none;stroke:rgb(112, 112, 112);stroke-linejoin:round;"><g><path d="M 0 103 L 61.84375 103 C 62.84375 103 63.84375 102 63.84375 101 L 63.84375 81 C 63.84375 80 64.84375 79 65.84375 79 L 73.84375 79 "/><path d="M 0 103 L 61.84375 103 C 62.84375 103 63.84375 102 63.84375 101 L 63.84375 81 C 63.84375 80 64.84375 79 65.84375 79 L 73.84375 79 " class="clickable"/></g></g><g id="sprotty_ArchitectureBlockImpl$prim_generic_clock_mux2/AssignmentBlockImpl$clk_o" transform="translate(73.84375, 49)" class="statement"><rect x="0" y="0" rx="10" ry="5" width="19.71875" height="40" class="sprotty-node" style="fill:rgb(245, 245, 245);stroke:rgb(112, 112, 112);"/><text class="clickable sprotty-label statementtype" id="sprotty_ArchitectureBlockImpl$prim_generic_clock_mux2/AssignmentBlockImpl$clk_o/labeltype" transform="translate(5, 14) translate(4.71875, 9)" style="cursor:default;font-size:8px;font-weight:700;perspective-origin:0.140625px 0px;fill:rgb(112, 112, 112);text-anchor:middle;">&lt;=</text><g id="sprotty_ArchitectureBlockImpl$prim_generic_clock_mux2/AssignmentBlockImpl$clk_o/GPortImpl$clk0_iIN" transform="translate(0, 30)" class="sprotty-hidden hidden" style="display:block;height:0px;width:0px;"/><g id="sprotty_ArchitectureBlockImpl$prim_generic_clock_mux2/AssignmentBlockImpl$clk_o/GPortImpl$clk1_iIN" transform="translate(0, 20)" class="sprotty-hidden hidden" style="display:block;height:0px;width:0px;"/><g id="sprotty_ArchitectureBlockImpl$prim_generic_clock_mux2/AssignmentBlockImpl$clk_o/GPortImpl$sel_iIN" transform="translate(0, 10)" class="sprotty-hidden hidden" style="display:block;height:0px;width:0px;"/><g id="sprotty_ArchitectureBlockImpl$prim_generic_clock_mux2/AssignmentBlockImpl$clk_o/GPortImpl$clk_oOUT" transform="translate(19.71875, 20)" class="sprotty-hidden hidden" style="display:block;height:0px;width:0px;"/></g><g id="sprotty_ArchitectureBlockImpl$prim_generic_clock_mux2/BPortImpl$sel_i" transform="translate(0, 35)" class="triangle"><path d="M 0,0 L 5,2.5 L 0,5 Z" transform="translate(-1.67, -2.5)" class="sprotty-port" style="fill:rgb(48, 48, 48);stroke:rgb(48, 48, 48);"/><text class="clickable sprotty-label port" id="sprotty_ArchitectureBlockImpl$prim_generic_clock_mux2/BPortImpl$sel_i/label" transform="translate(6, 6) translate(12.859375, 14)" style="cursor:default;font-size:12px;perspective-origin:0px 0px;fill:rgb(48, 48, 48);text-anchor:middle;">sel_i</text></g><g id="sprotty_ArchitectureBlockImpl$prim_generic_clock_mux2/BPortImpl$clk1_i" transform="translate(0, 69)" class="triangle"><path d="M 0,0 L 5,2.5 L 0,5 Z" transform="translate(-1.67, -2.5)" class="sprotty-port" style="fill:rgb(48, 48, 48);stroke:rgb(48, 48, 48);"/><text class="clickable sprotty-label port" id="sprotty_ArchitectureBlockImpl$prim_generic_clock_mux2/BPortImpl$clk1_i/label" transform="translate(6, 6) translate(16.421875, 14)" style="cursor:default;font-size:12px;perspective-origin:0px 0px;fill:rgb(48, 48, 48);text-anchor:middle;">clk1_i</text></g><g id="sprotty_ArchitectureBlockImpl$prim_generic_clock_mux2/BPortImpl$clk0_i" transform="translate(0, 103)" class="triangle"><path d="M 0,0 L 5,2.5 L 0,5 Z" transform="translate(-1.67, -2.5)" class="sprotty-port" style="fill:rgb(48, 48, 48);stroke:rgb(48, 48, 48);"/><text class="clickable sprotty-label port" id="sprotty_ArchitectureBlockImpl$prim_generic_clock_mux2/BPortImpl$clk0_i/label" transform="translate(6, 6) translate(16.421875, 14)" style="cursor:default;font-size:12px;perspective-origin:0px 0px;fill:rgb(48, 48, 48);text-anchor:middle;">clk0_i</text></g><g id="sprotty_ArchitectureBlockImpl$prim_generic_clock_mux2/BPortImpl$clk_o" transform="translate(216.8125, 69)" class="triangle"><path d="M 0,0 L 5,2.5 L 0,5 Z" transform="translate(-1.67, -2.5)" class="sprotty-port" style="fill:rgb(48, 48, 48);stroke:rgb(48, 48, 48);"/><text class="clickable sprotty-label port" id="sprotty_ArchitectureBlockImpl$prim_generic_clock_mux2/BPortImpl$clk_o/label" transform="translate(-36.15625, 6) translate(15.078125, 14)" style="cursor:default;font-size:12px;perspective-origin:0px 0px;fill:rgb(48, 48, 48);text-anchor:middle;">clk_o</text></g></g></g></svg>