<svg xmlns="http://www.w3.org/2000/svg" id="sprotty_work.aon_clk" class="sprotty-graph sprotty-block-diagram blockdiagram" style="font-family:&quot;Noto Sans&quot;, Helvetica, Arial, sans-serif;perspective-origin:0px 0px;transform-origin:0px 0px;" version="1.1" viewBox="7 7 559.640625 211" width="559.640625" height="211"><g transform="scale(1) translate(0,0)"><g id="sprotty_ArchitectureBlockImpl$aon_clk" transform="translate(12, 12)" class="architecture"><g class="sprotty-block" style="fill:rgb(255, 255, 255);stroke:rgb(48, 48, 48);stroke-dasharray:0px;"><rect x="0" y="0" rx="1" ry="1" width="549.640625" height="201"/><text x="274.8203125" y="12" class="sprotty-block-name" style="cursor:pointer;font-weight:700;perspective-origin:274.984px 0px;fill:rgb(48, 48, 48);stroke:rgba(0, 0, 0, 0);dominant-baseline:middle;text-anchor:middle;">aon_clk</text><line x1="0" y1="20" x2="549.640625" y2="20"/></g><g id="sprotty_ArchitectureBlockImpl$aon_clk/AssignmentBlockImpl$clk_src_aon_o/GPortImpl$clk_src_aon_oOUT_to_ArchitectureBlockImpl$aon_clk/BPortImpl$clk_src_aon_o" class="sprotty-edge edge" style="fill:none;stroke:rgb(112, 112, 112);stroke-linejoin:round;"><g><path d="M 409.9921875 46 L 549.640625 46 "/><path d="M 409.9921875 46 L 549.640625 46 " class="clickable"/></g></g><g id="sprotty_ArchitectureBlockImpl$aon_clk/AlwaysBlockImpl$null6/GPortImpl$clk_src_aon_val_oOUT_to_ArchitectureBlockImpl$aon_clk/BPortImpl$clk_src_aon_val_o" class="sprotty-edge edge" style="fill:none;stroke:rgb(112, 112, 112);stroke-linejoin:round;"><g><path d="M 424.578125 88 L 549.640625 88 "/><path d="M 424.578125 88 L 549.640625 88 " class="clickable"/></g></g><g id="sprotty_ArchitectureBlockImpl$aon_clk/BPortImpl$vcore_pok_h_i_to_ArchitectureBlockImpl$aon_clk/InstantiationBlockImpl$u_aon_osc/BPortImpl$vcore_pok_h_i" class="sprotty-edge edge" style="fill:none;stroke:rgb(112, 112, 112);stroke-linejoin:round;"><g><path d="M 0 39 L 166.625 39 C 167.625 39 168.625 40 168.625 41 L 168.625 72 C 168.625 73 169.625 74 170.625 74 L 178.625 74 "/><path d="M 0 39 L 166.625 39 C 167.625 39 168.625 40 168.625 41 L 168.625 72 C 168.625 73 169.625 74 170.625 74 L 178.625 74 " class="clickable"/></g></g><g id="sprotty_ArchitectureBlockImpl$aon_clk/BPortImpl$rst_aon_clk_ni_to_ArchitectureBlockImpl$aon_clk/AssignmentBlockImpl$rst_n/GPortImpl$rst_aon_clk_niIN" class="sprotty-edge edge" style="fill:none;stroke:rgb(112, 112, 112);stroke-linejoin:round;"><g><path d="M 0 162 L 103.78125 162 "/><path d="M 0 162 L 103.78125 162 " class="clickable"/></g></g><g id="sprotty_ArchitectureBlockImpl$aon_clk/BPortImpl$clk_src_aon_en_i_to_ArchitectureBlockImpl$aon_clk/AssignmentBlockImpl$aon_clk_en/GPortImpl$clk_src_aon_en_iIN" class="sprotty-edge edge" style="fill:none;stroke:rgb(112, 112, 112);stroke-linejoin:round;"><g><path d="M 0 73 L 126.90625 73 C 127.90625 73 128.90625 74 128.90625 75 L 128.90625 95 C 128.90625 96 129.90625 97 130.90625 97 L 138.90625 97 "/><path d="M 0 73 L 126.90625 73 C 127.90625 73 128.90625 74 128.90625 75 L 128.90625 95 C 128.90625 96 129.90625 97 130.90625 97 L 138.90625 97 " class="clickable"/></g></g><g id="sprotty_ArchitectureBlockImpl$aon_clk/BPortImpl$clk_aon_pd_ni_to_ArchitectureBlockImpl$aon_clk/AssignmentBlockImpl$aon_clk_en/GPortImpl$clk_aon_pd_niIN" class="sprotty-edge edge" style="fill:none;stroke:rgb(112, 112, 112);stroke-linejoin:round;"><g><path d="M 0 107 L 138.90625 107 "/><path d="M 0 107 L 138.90625 107 " class="clickable"/></g></g><g id="sprotty_ArchitectureBlockImpl$aon_clk/InstantiationBlockImpl$u_aon_osc/BPortImpl$aon_clk_o_to_ArchitectureBlockImpl$aon_clk/AssignmentBlockImpl$clk_src_aon_o/GPortImpl$clkIN" class="sprotty-edge edge" style="fill:none;stroke:rgb(112, 112, 112);stroke-linejoin:round;"><g><path d="M 355.6875 88 L 363.6875 88 C 364.6875 88 365.6875 87 365.6875 86 L 365.6875 48 C 365.6875 47 366.6875 46 367.6875 46 L 390.2734375 46 "/><path d="M 355.6875 88 L 363.6875 88 C 364.6875 88 365.6875 87 365.6875 86 L 365.6875 48 C 365.6875 47 366.6875 46 367.6875 46 L 390.2734375 46 " class="clickable"/></g><circle r="2" id="sprotty_ArchitectureBlockImpl$aon_clk/InstantiationBlockImpl$u_aon_osc/BPortImpl$aon_clk_o_to_ArchitectureBlockImpl$aon_clk/AssignmentBlockImpl$clk_src_aon_o/GPortImpl$clkIN/junction0" transform="translate(365.6875, 88)" class="sprotty-junction junction" style="fill:rgb(112, 112, 112);stroke:none;"/></g><g id="sprotty_ArchitectureBlockImpl$aon_clk/InstantiationBlockImpl$u_aon_osc/BPortImpl$aon_clk_o_to_ArchitectureBlockImpl$aon_clk/AlwaysBlockImpl$null6/GPortImpl$clkIN" class="sprotty-edge edge" style="fill:none;stroke:rgb(112, 112, 112);stroke-linejoin:round;"><g><path d="M 355.6875 88 L 375.6875 88 "/><path d="M 355.6875 88 L 375.6875 88 " class="clickable"/></g></g><g id="sprotty_ArchitectureBlockImpl$aon_clk/AssignmentBlockImpl$aon_clk_en/GPortImpl$aon_clk_enOUT_to_ArchitectureBlockImpl$aon_clk/InstantiationBlockImpl$u_aon_osc/BPortImpl$aon_en_i" class="sprotty-edge edge" style="fill:none;stroke:rgb(112, 112, 112);stroke-linejoin:round;"><g><path d="M 158.625 102 L 178.625 102 "/><path d="M 158.625 102 L 178.625 102 " class="clickable"/></g></g><g id="sprotty_ArchitectureBlockImpl$aon_clk/AlwaysBlockImpl$null6" transform="translate(375.6875, 77)" class="statement"><rect x="0" y="0" rx="10" ry="5" width="48.890625" height="22" class="sprotty-node" style="fill:rgb(245, 245, 245);stroke:rgb(112, 112, 112);"/><text class="clickable sprotty-label statementtype" id="sprotty_ArchitectureBlockImpl$aon_clk/AlwaysBlockImpl$null6/labeltype" transform="translate(5, 5) translate(18.828125, 9)" style="cursor:default;font-size:8px;font-weight:700;perspective-origin:0.609375px 0px;fill:rgb(112, 112, 112);text-anchor:middle;">always_ff</text><g id="sprotty_ArchitectureBlockImpl$aon_clk/AlwaysBlockImpl$null6/GPortImpl$clkIN" transform="translate(0, 11)" class="sprotty-hidden hidden" style="display:block;height:0px;width:0px;"/><g id="sprotty_ArchitectureBlockImpl$aon_clk/AlwaysBlockImpl$null6/GPortImpl$clk_src_aon_val_oOUT" transform="translate(48.890625, 11)" class="sprotty-hidden hidden" style="display:block;height:0px;width:0px;"/></g><g id="sprotty_ArchitectureBlockImpl$aon_clk/AssignmentBlockImpl$clk_src_aon_o" transform="translate(390.2734375, 35)" class="statement"><rect x="0" y="0" rx="10" ry="5" width="19.71875" height="22" class="sprotty-node" style="fill:rgb(245, 245, 245);stroke:rgb(112, 112, 112);"/><text class="clickable sprotty-label statementtype" id="sprotty_ArchitectureBlockImpl$aon_clk/AssignmentBlockImpl$clk_src_aon_o/labeltype" transform="translate(5, 5) translate(4.71875, 9)" style="cursor:default;font-size:8px;font-weight:700;perspective-origin:0.140625px 0px;fill:rgb(112, 112, 112);text-anchor:middle;">&lt;=</text><g id="sprotty_ArchitectureBlockImpl$aon_clk/AssignmentBlockImpl$clk_src_aon_o/GPortImpl$clkIN" transform="translate(0, 11)" class="sprotty-hidden hidden" style="display:block;height:0px;width:0px;"/><g id="sprotty_ArchitectureBlockImpl$aon_clk/AssignmentBlockImpl$clk_src_aon_o/GPortImpl$clk_src_aon_oOUT" transform="translate(19.71875, 11)" class="sprotty-hidden hidden" style="display:block;height:0px;width:0px;"/></g><g id="sprotty_ArchitectureBlockImpl$aon_clk/AssignmentBlockImpl$aon_clk_en" transform="translate(138.90625, 87)" class="statement"><rect x="0" y="0" rx="10" ry="5" width="19.71875" height="30" class="sprotty-node" style="fill:rgb(245, 245, 245);stroke:rgb(112, 112, 112);"/><text class="clickable sprotty-label statementtype" id="sprotty_ArchitectureBlockImpl$aon_clk/AssignmentBlockImpl$aon_clk_en/labeltype" transform="translate(5, 9) translate(4.71875, 9)" style="cursor:default;font-size:8px;font-weight:700;perspective-origin:0.140625px 0px;fill:rgb(112, 112, 112);text-anchor:middle;">&lt;=</text><g id="sprotty_ArchitectureBlockImpl$aon_clk/AssignmentBlockImpl$aon_clk_en/GPortImpl$clk_aon_pd_niIN" transform="translate(0, 20)" class="sprotty-hidden hidden" style="display:block;height:0px;width:0px;"/><g id="sprotty_ArchitectureBlockImpl$aon_clk/AssignmentBlockImpl$aon_clk_en/GPortImpl$clk_src_aon_en_iIN" transform="translate(0, 10)" class="sprotty-hidden hidden" style="display:block;height:0px;width:0px;"/><g id="sprotty_ArchitectureBlockImpl$aon_clk/AssignmentBlockImpl$aon_clk_en/GPortImpl$aon_clk_enOUT" transform="translate(19.71875, 15)" class="sprotty-hidden hidden" style="display:block;height:0px;width:0px;"/></g><g id="sprotty_ArchitectureBlockImpl$aon_clk/AssignmentBlockImpl$rst_n" transform="translate(103.78125, 151)" class="statement"><rect x="0" y="0" rx="10" ry="5" width="19.71875" height="22" class="sprotty-node" style="fill:rgb(245, 245, 245);stroke:rgb(112, 112, 112);"/><text class="clickable sprotty-label statementtype" id="sprotty_ArchitectureBlockImpl$aon_clk/AssignmentBlockImpl$rst_n/labeltype" transform="translate(5, 5) translate(4.71875, 9)" style="cursor:default;font-size:8px;font-weight:700;perspective-origin:0.140625px 0px;fill:rgb(112, 112, 112);text-anchor:middle;">&lt;=</text><g id="sprotty_ArchitectureBlockImpl$aon_clk/AssignmentBlockImpl$rst_n/GPortImpl$rst_aon_clk_niIN" transform="translate(0, 11)" class="sprotty-hidden hidden" style="display:block;height:0px;width:0px;"/></g><g id="sprotty_ArchitectureBlockImpl$aon_clk/InstantiationBlockImpl$u_aon_osc" transform="translate(178.625, 36)" class="instantiation"><g class="sprotty-block" style="fill:rgb(255, 255, 255);stroke:rgb(48, 48, 48);stroke-dasharray:0px;"><rect x="0" y="0" rx="1" ry="1" width="177.0625" height="84"/><text x="88.53125" y="12" class="sprotty-block-name" style="cursor:pointer;font-weight:700;perspective-origin:88.5312px 0px;fill:rgb(48, 48, 48);stroke:rgba(0, 0, 0, 0);dominant-baseline:middle;text-anchor:middle;">u_aon_osc : aon_osc</text><line x1="0" y1="20" x2="177.0625" y2="20"/></g><g id="sprotty_ArchitectureBlockImpl$aon_clk/InstantiationBlockImpl$u_aon_osc/BPortImpl$aon_en_i" transform="translate(0, 66)" class="triangle"><path d="M 0,0 L 5,2.5 L 0,5 Z" transform="translate(-1.67, -2.5)" class="sprotty-port" style="fill:rgb(48, 48, 48);stroke:rgb(48, 48, 48);"/><text class="clickable sprotty-label port" id="sprotty_ArchitectureBlockImpl$aon_clk/InstantiationBlockImpl$u_aon_osc/BPortImpl$aon_en_i/label" transform="translate(6, -9) translate(26.046875, 14)" style="cursor:default;font-size:12px;perspective-origin:0px 0px;fill:rgb(48, 48, 48);text-anchor:middle;">aon_en_i</text></g><g id="sprotty_ArchitectureBlockImpl$aon_clk/InstantiationBlockImpl$u_aon_osc/BPortImpl$vcore_pok_h_i" transform="translate(0, 38)" class="triangle"><path d="M 0,0 L 5,2.5 L 0,5 Z" transform="translate(-1.67, -2.5)" class="sprotty-port" style="fill:rgb(48, 48, 48);stroke:rgb(48, 48, 48);"/><text class="clickable sprotty-label port" id="sprotty_ArchitectureBlockImpl$aon_clk/InstantiationBlockImpl$u_aon_osc/BPortImpl$vcore_pok_h_i/label" transform="translate(6, -9) translate(41.265625, 14)" style="cursor:default;font-size:12px;perspective-origin:0px 0px;fill:rgb(48, 48, 48);text-anchor:middle;">vcore_pok_h_i</text></g><g id="sprotty_ArchitectureBlockImpl$aon_clk/InstantiationBlockImpl$u_aon_osc/BPortImpl$aon_clk_o" transform="translate(177.0625, 52)" class="triangle"><path d="M 0,0 L 5,2.5 L 0,5 Z" transform="translate(-1.67, -2.5)" class="sprotty-port" style="fill:rgb(48, 48, 48);stroke:rgb(48, 48, 48);"/><text class="clickable sprotty-label port" id="sprotty_ArchitectureBlockImpl$aon_clk/InstantiationBlockImpl$u_aon_osc/BPortImpl$aon_clk_o/label" transform="translate(-64.21875, -9) translate(29.109375, 14)" style="cursor:default;font-size:12px;perspective-origin:0px 0px;fill:rgb(48, 48, 48);text-anchor:middle;">aon_clk_o</text></g></g><g id="sprotty_ArchitectureBlockImpl$aon_clk/BPortImpl$vcore_pok_h_i" transform="translate(0, 39)" class="triangle"><path d="M 0,0 L 5,2.5 L 0,5 Z" transform="translate(-1.67, -2.5)" class="sprotty-port" style="fill:rgb(48, 48, 48);stroke:rgb(48, 48, 48);"/><text class="clickable sprotty-label port" id="sprotty_ArchitectureBlockImpl$aon_clk/BPortImpl$vcore_pok_h_i/label" transform="translate(6, 6) translate(41.265625, 14)" style="cursor:default;font-size:12px;perspective-origin:0px 0px;fill:rgb(48, 48, 48);text-anchor:middle;">vcore_pok_h_i</text></g><g id="sprotty_ArchitectureBlockImpl$aon_clk/BPortImpl$rst_aon_clk_ni" transform="translate(0, 162)" class="triangle"><path d="M 0,0 L 5,2.5 L 0,5 Z" transform="translate(-1.67, -2.5)" class="sprotty-port" style="fill:rgb(48, 48, 48);stroke:rgb(48, 48, 48);"/><text class="clickable sprotty-label port" id="sprotty_ArchitectureBlockImpl$aon_clk/BPortImpl$rst_aon_clk_ni/label" transform="translate(6, 6) translate(41.390625, 14)" style="cursor:default;font-size:12px;perspective-origin:0px 0px;fill:rgb(48, 48, 48);text-anchor:middle;">rst_aon_clk_ni</text></g><g id="sprotty_ArchitectureBlockImpl$aon_clk/BPortImpl$clk_aon_pd_ni" transform="translate(0, 107)" class="triangle"><path d="M 0,0 L 5,2.5 L 0,5 Z" transform="translate(-1.67, -2.5)" class="sprotty-port" style="fill:rgb(48, 48, 48);stroke:rgb(48, 48, 48);"/><text class="clickable sprotty-label port" id="sprotty_ArchitectureBlockImpl$aon_clk/BPortImpl$clk_aon_pd_ni/label" transform="translate(6, 6) translate(41.59375, 14)" style="cursor:default;font-size:12px;perspective-origin:0px 0px;fill:rgb(48, 48, 48);text-anchor:middle;">clk_aon_pd_ni</text></g><g id="sprotty_ArchitectureBlockImpl$aon_clk/BPortImpl$clk_src_aon_en_i" transform="translate(0, 73)" class="triangle"><path d="M 0,0 L 5,2.5 L 0,5 Z" transform="translate(-1.67, -2.5)" class="sprotty-port" style="fill:rgb(48, 48, 48);stroke:rgb(48, 48, 48);"/><text class="clickable sprotty-label port" id="sprotty_ArchitectureBlockImpl$aon_clk/BPortImpl$clk_src_aon_en_i/label" transform="translate(6, 6) translate(48.953125, 14)" style="cursor:default;font-size:12px;perspective-origin:0px 0px;fill:rgb(48, 48, 48);text-anchor:middle;">clk_src_aon_en_i</text></g><g id="sprotty_ArchitectureBlockImpl$aon_clk/BPortImpl$clk_src_aon_o" transform="translate(549.640625, 46)" class="triangle"><path d="M 0,0 L 5,2.5 L 0,5 Z" transform="translate(-1.67, -2.5)" class="sprotty-port" style="fill:rgb(48, 48, 48);stroke:rgb(48, 48, 48);"/><text class="clickable sprotty-label port" id="sprotty_ArchitectureBlockImpl$aon_clk/BPortImpl$clk_src_aon_o/label" transform="translate(-87.1875, 6) translate(40.59375, 14)" style="cursor:default;font-size:12px;perspective-origin:0px 0px;fill:rgb(48, 48, 48);text-anchor:middle;">clk_src_aon_o</text></g><g id="sprotty_ArchitectureBlockImpl$aon_clk/BPortImpl$clk_src_aon_val_o" transform="translate(549.640625, 88)" class="triangle"><path d="M 0,0 L 5,2.5 L 0,5 Z" transform="translate(-1.67, -2.5)" class="sprotty-port" style="fill:rgb(48, 48, 48);stroke:rgb(48, 48, 48);"/><text class="clickable sprotty-label port" id="sprotty_ArchitectureBlockImpl$aon_clk/BPortImpl$clk_src_aon_val_o/label" transform="translate(-110.0625, 6) translate(52.03125, 14)" style="cursor:default;font-size:12px;perspective-origin:0px 0px;fill:rgb(48, 48, 48);text-anchor:middle;">clk_src_aon_val_o</text></g></g></g></svg>