<svg xmlns="http://www.w3.org/2000/svg" id="sprotty_work.ibex_tracer" class="sprotty-graph sprotty-block-diagram blockdiagram" style="font-family:&quot;Noto Sans&quot;, Helvetica, Arial, sans-serif;perspective-origin:0px 0px;transform-origin:0px 0px;" version="1.1" viewBox="7 7 167.234375 1191" width="167.234375" height="1191"><g transform="scale(1) translate(0,0)"><g id="sprotty_ArchitectureBlockImpl$ibex_tracer" transform="translate(12, 12)" class="architecture"><g class="sprotty-block" style="fill:rgb(255, 255, 255);stroke:rgb(48, 48, 48);stroke-dasharray:0px;"><rect x="0" y="0" rx="1" ry="1" width="157.234375" height="1181"/><text x="78.6171875" y="12" class="sprotty-block-name" style="cursor:pointer;font-weight:700;perspective-origin:78.625px 0px;fill:rgb(48, 48, 48);stroke:rgba(0, 0, 0, 0);dominant-baseline:middle;text-anchor:middle;">ibex_tracer</text><line x1="0" y1="20" x2="157.234375" y2="20"/></g><g id="sprotty_ArchitectureBlockImpl$ibex_tracer/BPortImpl$clk_i_to_ArchitectureBlockImpl$ibex_tracer/AlwaysBlockImpl$null28/GPortImpl$clk_iIN" class="sprotty-edge edge" style="fill:none;stroke:rgb(112, 112, 112);stroke-linejoin:round;"><g><path d="M 0 1048 L 93.34375 1048 "/><path d="M 0 1048 L 93.34375 1048 " class="clickable"/></g></g><g id="sprotty_ArchitectureBlockImpl$ibex_tracer/BPortImpl$rst_ni_to_ArchitectureBlockImpl$ibex_tracer/AlwaysBlockImpl$null28/GPortImpl$rst_niIN" class="sprotty-edge edge" style="fill:none;stroke:rgb(112, 112, 112);stroke-linejoin:round;"><g><path d="M 0 1014 L 81.34375 1014 C 82.34375 1014 83.34375 1015 83.34375 1016 L 83.34375 1036 C 83.34375 1037 84.34375 1038 85.34375 1038 L 93.34375 1038 "/><path d="M 0 1014 L 81.34375 1014 C 82.34375 1014 83.34375 1015 83.34375 1016 L 83.34375 1036 C 83.34375 1037 84.34375 1038 85.34375 1038 L 93.34375 1038 " class="clickable"/></g></g><g id="sprotty_ArchitectureBlockImpl$ibex_tracer/BPortImpl$clk_i_to_ArchitectureBlockImpl$ibex_tracer/AlwaysBlockImpl$null27/GPortImpl$clk_iIN" class="sprotty-edge edge" style="fill:none;stroke:rgb(112, 112, 112);stroke-linejoin:round;"><g><path d="M 0 1048 L 81.34375 1048 C 82.34375 1048 83.34375 1049 83.34375 1050 L 83.34375 1086 C 83.34375 1087 84.34375 1088 85.34375 1088 L 93.34375 1088 "/><path d="M 0 1048 L 81.34375 1048 C 82.34375 1048 83.34375 1049 83.34375 1050 L 83.34375 1086 C 83.34375 1087 84.34375 1088 85.34375 1088 L 93.34375 1088 " class="clickable"/></g><circle r="2" id="sprotty_ArchitectureBlockImpl$ibex_tracer/BPortImpl$clk_i_to_ArchitectureBlockImpl$ibex_tracer/AlwaysBlockImpl$null27/GPortImpl$clk_iIN/junction0" transform="translate(83.34375, 1048)" class="sprotty-junction junction" style="fill:rgb(112, 112, 112);stroke:none;"/></g><g id="sprotty_ArchitectureBlockImpl$ibex_tracer/BPortImpl$rvfi_valid_to_ArchitectureBlockImpl$ibex_tracer/AlwaysBlockImpl$null27/GPortImpl$rvfi_validIN" class="sprotty-edge edge" style="fill:none;stroke:rgb(112, 112, 112);stroke-linejoin:round;"><g><path d="M 0 1098 L 93.34375 1098 "/><path d="M 0 1098 L 93.34375 1098 " class="clickable"/></g></g><g id="sprotty_ArchitectureBlockImpl$ibex_tracer/BPortImpl$rvfi_insn_to_ArchitectureBlockImpl$ibex_tracer/AlwaysBlockImpl$null26/GPortImpl$rvfi_insnIN" class="sprotty-edge thick edge" style="fill:none;stroke:rgb(112, 112, 112);stroke-linejoin:round;stroke-width:3px;"><g><path d="M 0 926 L 70 926 "/><path d="M 0 926 L 70 926 " class="clickable"/></g></g><g id="sprotty_ArchitectureBlockImpl$ibex_tracer/AlwaysBlockImpl$null26" transform="translate(70, 915)" class="statement"><rect x="0" y="0" rx="10" ry="5" width="63.75" height="22" class="sprotty-node" style="fill:rgb(245, 245, 245);stroke:rgb(112, 112, 112);"/><text class="clickable sprotty-label statementtype" id="sprotty_ArchitectureBlockImpl$ibex_tracer/AlwaysBlockImpl$null26/labeltype" transform="translate(5, 5) translate(26.875, 9)" style="cursor:default;font-size:8px;font-weight:700;perspective-origin:0px 0px;fill:rgb(112, 112, 112);text-anchor:middle;">always_comb</text><g id="sprotty_ArchitectureBlockImpl$ibex_tracer/AlwaysBlockImpl$null26/GPortImpl$rvfi_insnIN" transform="translate(0, 11)" class="sprotty-hidden hidden" style="display:block;height:0px;width:0px;"/></g><g id="sprotty_ArchitectureBlockImpl$ibex_tracer/AlwaysBlockImpl$null27" transform="translate(93.34375, 1078)" class="statement"><rect x="0" y="0" rx="10" ry="5" width="48.890625" height="30" class="sprotty-node" style="fill:rgb(245, 245, 245);stroke:rgb(112, 112, 112);"/><text class="clickable sprotty-label statementtype" id="sprotty_ArchitectureBlockImpl$ibex_tracer/AlwaysBlockImpl$null27/labeltype" transform="translate(5, 9) translate(18.828125, 9)" style="cursor:default;font-size:8px;font-weight:700;perspective-origin:0.609375px 0px;fill:rgb(112, 112, 112);text-anchor:middle;">always_ff</text><g id="sprotty_ArchitectureBlockImpl$ibex_tracer/AlwaysBlockImpl$null27/GPortImpl$rvfi_validIN" transform="translate(0, 20)" class="sprotty-hidden hidden" style="display:block;height:0px;width:0px;"/><g id="sprotty_ArchitectureBlockImpl$ibex_tracer/AlwaysBlockImpl$null27/GPortImpl$clk_iIN" transform="translate(0, 10)" class="sprotty-hidden hidden" style="display:block;height:0px;width:0px;"/></g><g id="sprotty_ArchitectureBlockImpl$ibex_tracer/AlwaysBlockImpl$null28" transform="translate(93.34375, 1028)" class="statement"><rect x="0" y="0" rx="10" ry="5" width="48.890625" height="30" class="sprotty-node" style="fill:rgb(245, 245, 245);stroke:rgb(112, 112, 112);"/><text class="clickable sprotty-label statementtype" id="sprotty_ArchitectureBlockImpl$ibex_tracer/AlwaysBlockImpl$null28/labeltype" transform="translate(5, 9) translate(18.828125, 9)" style="cursor:default;font-size:8px;font-weight:700;perspective-origin:0.609375px 0px;fill:rgb(112, 112, 112);text-anchor:middle;">always_ff</text><g id="sprotty_ArchitectureBlockImpl$ibex_tracer/AlwaysBlockImpl$null28/GPortImpl$rst_niIN" transform="translate(0, 10)" class="sprotty-hidden hidden" style="display:block;height:0px;width:0px;"/><g id="sprotty_ArchitectureBlockImpl$ibex_tracer/AlwaysBlockImpl$null28/GPortImpl$clk_iIN" transform="translate(0, 20)" class="sprotty-hidden hidden" style="display:block;height:0px;width:0px;"/></g><g id="sprotty_ArchitectureBlockImpl$ibex_tracer/BPortImpl$rvfi_mem_wdata" transform="translate(0, 35)" class="triangle"><path d="M 0,0 L 5,2.5 L 0,5 Z" transform="translate(-1.67, -2.5)" class="sprotty-port" style="fill:rgb(48, 48, 48);stroke:rgb(48, 48, 48);"/><text class="clickable sprotty-label port" id="sprotty_ArchitectureBlockImpl$ibex_tracer/BPortImpl$rvfi_mem_wdata/label" transform="translate(6, 6) translate(47.796875, 14)" style="cursor:default;font-size:12px;perspective-origin:0px 0px;fill:rgb(48, 48, 48);text-anchor:middle;">rvfi_mem_wdata</text></g><g id="sprotty_ArchitectureBlockImpl$ibex_tracer/BPortImpl$rvfi_mem_rdata" transform="translate(0, 79)" class="triangle"><path d="M 0,0 L 5,2.5 L 0,5 Z" transform="translate(-1.67, -2.5)" class="sprotty-port" style="fill:rgb(48, 48, 48);stroke:rgb(48, 48, 48);"/><text class="clickable sprotty-label port" id="sprotty_ArchitectureBlockImpl$ibex_tracer/BPortImpl$rvfi_mem_rdata/label" transform="translate(6, 6) translate(45.28125, 14)" style="cursor:default;font-size:12px;perspective-origin:0px 0px;fill:rgb(48, 48, 48);text-anchor:middle;">rvfi_mem_rdata</text></g><g id="sprotty_ArchitectureBlockImpl$ibex_tracer/BPortImpl$rvfi_mem_wmask" transform="translate(0, 123)" class="triangle"><path d="M 0,0 L 5,2.5 L 0,5 Z" transform="translate(-1.67, -2.5)" class="sprotty-port" style="fill:rgb(48, 48, 48);stroke:rgb(48, 48, 48);"/><text class="clickable sprotty-label port" id="sprotty_ArchitectureBlockImpl$ibex_tracer/BPortImpl$rvfi_mem_wmask/label" transform="translate(6, 6) translate(50.375, 14)" style="cursor:default;font-size:12px;perspective-origin:0.1875px 0px;fill:rgb(48, 48, 48);text-anchor:middle;">rvfi_mem_wmask</text></g><g id="sprotty_ArchitectureBlockImpl$ibex_tracer/BPortImpl$rvfi_mem_rmask" transform="translate(0, 167)" class="triangle"><path d="M 0,0 L 5,2.5 L 0,5 Z" transform="translate(-1.67, -2.5)" class="sprotty-port" style="fill:rgb(48, 48, 48);stroke:rgb(48, 48, 48);"/><text class="clickable sprotty-label port" id="sprotty_ArchitectureBlockImpl$ibex_tracer/BPortImpl$rvfi_mem_rmask/label" transform="translate(6, 6) translate(47.890625, 14)" style="cursor:default;font-size:12px;perspective-origin:0.1875px 0px;fill:rgb(48, 48, 48);text-anchor:middle;">rvfi_mem_rmask</text></g><g id="sprotty_ArchitectureBlockImpl$ibex_tracer/BPortImpl$rvfi_mem_addr" transform="translate(0, 211)" class="triangle"><path d="M 0,0 L 5,2.5 L 0,5 Z" transform="translate(-1.67, -2.5)" class="sprotty-port" style="fill:rgb(48, 48, 48);stroke:rgb(48, 48, 48);"/><text class="clickable sprotty-label port" id="sprotty_ArchitectureBlockImpl$ibex_tracer/BPortImpl$rvfi_mem_addr/label" transform="translate(6, 6) translate(43.65625, 14)" style="cursor:default;font-size:12px;perspective-origin:0.171875px 0px;fill:rgb(48, 48, 48);text-anchor:middle;">rvfi_mem_addr</text></g><g id="sprotty_ArchitectureBlockImpl$ibex_tracer/BPortImpl$rvfi_pc_wdata" transform="translate(0, 255)" class="triangle"><path d="M 0,0 L 5,2.5 L 0,5 Z" transform="translate(-1.67, -2.5)" class="sprotty-port" style="fill:rgb(48, 48, 48);stroke:rgb(48, 48, 48);"/><text class="clickable sprotty-label port" id="sprotty_ArchitectureBlockImpl$ibex_tracer/BPortImpl$rvfi_pc_wdata/label" transform="translate(6, 6) translate(40.140625, 14)" style="cursor:default;font-size:12px;perspective-origin:0px 0px;fill:rgb(48, 48, 48);text-anchor:middle;">rvfi_pc_wdata</text></g><g id="sprotty_ArchitectureBlockImpl$ibex_tracer/BPortImpl$rvfi_pc_rdata" transform="translate(0, 299)" class="triangle"><path d="M 0,0 L 5,2.5 L 0,5 Z" transform="translate(-1.67, -2.5)" class="sprotty-port" style="fill:rgb(48, 48, 48);stroke:rgb(48, 48, 48);"/><text class="clickable sprotty-label port" id="sprotty_ArchitectureBlockImpl$ibex_tracer/BPortImpl$rvfi_pc_rdata/label" transform="translate(6, 6) translate(37.609375, 14)" style="cursor:default;font-size:12px;perspective-origin:0px 0px;fill:rgb(48, 48, 48);text-anchor:middle;">rvfi_pc_rdata</text></g><g id="sprotty_ArchitectureBlockImpl$ibex_tracer/BPortImpl$rvfi_rd_wdata" transform="translate(0, 343)" class="triangle"><path d="M 0,0 L 5,2.5 L 0,5 Z" transform="translate(-1.67, -2.5)" class="sprotty-port" style="fill:rgb(48, 48, 48);stroke:rgb(48, 48, 48);"/><text class="clickable sprotty-label port" id="sprotty_ArchitectureBlockImpl$ibex_tracer/BPortImpl$rvfi_rd_wdata/label" transform="translate(6, 6) translate(39.34375, 14)" style="cursor:default;font-size:12px;perspective-origin:0px 0px;fill:rgb(48, 48, 48);text-anchor:middle;">rvfi_rd_wdata</text></g><g id="sprotty_ArchitectureBlockImpl$ibex_tracer/BPortImpl$rvfi_rd_addr" transform="translate(0, 387)" class="triangle"><path d="M 0,0 L 5,2.5 L 0,5 Z" transform="translate(-1.67, -2.5)" class="sprotty-port" style="fill:rgb(48, 48, 48);stroke:rgb(48, 48, 48);"/><text class="clickable sprotty-label port" id="sprotty_ArchitectureBlockImpl$ibex_tracer/BPortImpl$rvfi_rd_addr/label" transform="translate(6, 6) translate(35.203125, 14)" style="cursor:default;font-size:12px;perspective-origin:0.171875px 0px;fill:rgb(48, 48, 48);text-anchor:middle;">rvfi_rd_addr</text></g><g id="sprotty_ArchitectureBlockImpl$ibex_tracer/BPortImpl$rvfi_rs3_rdata" transform="translate(0, 431)" class="triangle"><path d="M 0,0 L 5,2.5 L 0,5 Z" transform="translate(-1.67, -2.5)" class="sprotty-port" style="fill:rgb(48, 48, 48);stroke:rgb(48, 48, 48);"/><text class="clickable sprotty-label port" id="sprotty_ArchitectureBlockImpl$ibex_tracer/BPortImpl$rvfi_rs3_rdata/label" transform="translate(6, 6) translate(39.28125, 14)" style="cursor:default;font-size:12px;perspective-origin:0px 0px;fill:rgb(48, 48, 48);text-anchor:middle;">rvfi_rs3_rdata</text></g><g id="sprotty_ArchitectureBlockImpl$ibex_tracer/BPortImpl$rvfi_rs2_rdata" transform="translate(0, 475)" class="triangle"><path d="M 0,0 L 5,2.5 L 0,5 Z" transform="translate(-1.67, -2.5)" class="sprotty-port" style="fill:rgb(48, 48, 48);stroke:rgb(48, 48, 48);"/><text class="clickable sprotty-label port" id="sprotty_ArchitectureBlockImpl$ibex_tracer/BPortImpl$rvfi_rs2_rdata/label" transform="translate(6, 6) translate(39.28125, 14)" style="cursor:default;font-size:12px;perspective-origin:0px 0px;fill:rgb(48, 48, 48);text-anchor:middle;">rvfi_rs2_rdata</text></g><g id="sprotty_ArchitectureBlockImpl$ibex_tracer/BPortImpl$rvfi_rs1_rdata" transform="translate(0, 519)" class="triangle"><path d="M 0,0 L 5,2.5 L 0,5 Z" transform="translate(-1.67, -2.5)" class="sprotty-port" style="fill:rgb(48, 48, 48);stroke:rgb(48, 48, 48);"/><text class="clickable sprotty-label port" id="sprotty_ArchitectureBlockImpl$ibex_tracer/BPortImpl$rvfi_rs1_rdata/label" transform="translate(6, 6) translate(39.28125, 14)" style="cursor:default;font-size:12px;perspective-origin:0px 0px;fill:rgb(48, 48, 48);text-anchor:middle;">rvfi_rs1_rdata</text></g><g id="sprotty_ArchitectureBlockImpl$ibex_tracer/BPortImpl$rvfi_rs3_addr" transform="translate(0, 563)" class="triangle"><path d="M 0,0 L 5,2.5 L 0,5 Z" transform="translate(-1.67, -2.5)" class="sprotty-port" style="fill:rgb(48, 48, 48);stroke:rgb(48, 48, 48);"/><text class="clickable sprotty-label port" id="sprotty_ArchitectureBlockImpl$ibex_tracer/BPortImpl$rvfi_rs3_addr/label" transform="translate(6, 6) translate(37.65625, 14)" style="cursor:default;font-size:12px;perspective-origin:0.171875px 0px;fill:rgb(48, 48, 48);text-anchor:middle;">rvfi_rs3_addr</text></g><g id="sprotty_ArchitectureBlockImpl$ibex_tracer/BPortImpl$rvfi_rs2_addr" transform="translate(0, 607)" class="triangle"><path d="M 0,0 L 5,2.5 L 0,5 Z" transform="translate(-1.67, -2.5)" class="sprotty-port" style="fill:rgb(48, 48, 48);stroke:rgb(48, 48, 48);"/><text class="clickable sprotty-label port" id="sprotty_ArchitectureBlockImpl$ibex_tracer/BPortImpl$rvfi_rs2_addr/label" transform="translate(6, 6) translate(37.65625, 14)" style="cursor:default;font-size:12px;perspective-origin:0.171875px 0px;fill:rgb(48, 48, 48);text-anchor:middle;">rvfi_rs2_addr</text></g><g id="sprotty_ArchitectureBlockImpl$ibex_tracer/BPortImpl$rvfi_rs1_addr" transform="translate(0, 651)" class="triangle"><path d="M 0,0 L 5,2.5 L 0,5 Z" transform="translate(-1.67, -2.5)" class="sprotty-port" style="fill:rgb(48, 48, 48);stroke:rgb(48, 48, 48);"/><text class="clickable sprotty-label port" id="sprotty_ArchitectureBlockImpl$ibex_tracer/BPortImpl$rvfi_rs1_addr/label" transform="translate(6, 6) translate(37.65625, 14)" style="cursor:default;font-size:12px;perspective-origin:0.171875px 0px;fill:rgb(48, 48, 48);text-anchor:middle;">rvfi_rs1_addr</text></g><g id="sprotty_ArchitectureBlockImpl$ibex_tracer/BPortImpl$rvfi_ixl" transform="translate(0, 695)" class="triangle"><path d="M 0,0 L 5,2.5 L 0,5 Z" transform="translate(-1.67, -2.5)" class="sprotty-port" style="fill:rgb(48, 48, 48);stroke:rgb(48, 48, 48);"/><text class="clickable sprotty-label port" id="sprotty_ArchitectureBlockImpl$ibex_tracer/BPortImpl$rvfi_ixl/label" transform="translate(6, 6) translate(19.0625, 14)" style="cursor:default;font-size:12px;perspective-origin:0px 0px;fill:rgb(48, 48, 48);text-anchor:middle;">rvfi_ixl</text></g><g id="sprotty_ArchitectureBlockImpl$ibex_tracer/BPortImpl$rvfi_mode" transform="translate(0, 739)" class="triangle"><path d="M 0,0 L 5,2.5 L 0,5 Z" transform="translate(-1.67, -2.5)" class="sprotty-port" style="fill:rgb(48, 48, 48);stroke:rgb(48, 48, 48);"/><text class="clickable sprotty-label port" id="sprotty_ArchitectureBlockImpl$ibex_tracer/BPortImpl$rvfi_mode/label" transform="translate(6, 6) translate(28.953125, 14)" style="cursor:default;font-size:12px;perspective-origin:0.171875px 0px;fill:rgb(48, 48, 48);text-anchor:middle;">rvfi_mode</text></g><g id="sprotty_ArchitectureBlockImpl$ibex_tracer/BPortImpl$rvfi_intr" transform="translate(0, 783)" class="triangle"><path d="M 0,0 L 5,2.5 L 0,5 Z" transform="translate(-1.67, -2.5)" class="sprotty-port" style="fill:rgb(48, 48, 48);stroke:rgb(48, 48, 48);"/><text class="clickable sprotty-label port" id="sprotty_ArchitectureBlockImpl$ibex_tracer/BPortImpl$rvfi_intr/label" transform="translate(6, 6) translate(22.609375, 14)" style="cursor:default;font-size:12px;perspective-origin:0.171875px 0px;fill:rgb(48, 48, 48);text-anchor:middle;">rvfi_intr</text></g><g id="sprotty_ArchitectureBlockImpl$ibex_tracer/BPortImpl$rvfi_halt" transform="translate(0, 827)" class="triangle"><path d="M 0,0 L 5,2.5 L 0,5 Z" transform="translate(-1.67, -2.5)" class="sprotty-port" style="fill:rgb(48, 48, 48);stroke:rgb(48, 48, 48);"/><text class="clickable sprotty-label port" id="sprotty_ArchitectureBlockImpl$ibex_tracer/BPortImpl$rvfi_halt/label" transform="translate(6, 6) translate(23.703125, 14)" style="cursor:default;font-size:12px;perspective-origin:0.234375px 0px;fill:rgb(48, 48, 48);text-anchor:middle;">rvfi_halt</text></g><g id="sprotty_ArchitectureBlockImpl$ibex_tracer/BPortImpl$rvfi_trap" transform="translate(0, 871)" class="triangle"><path d="M 0,0 L 5,2.5 L 0,5 Z" transform="translate(-1.67, -2.5)" class="sprotty-port" style="fill:rgb(48, 48, 48);stroke:rgb(48, 48, 48);"/><text class="clickable sprotty-label port" id="sprotty_ArchitectureBlockImpl$ibex_tracer/BPortImpl$rvfi_trap/label" transform="translate(6, 6) translate(24.234375, 14)" style="cursor:default;font-size:12px;perspective-origin:0px 0px;fill:rgb(48, 48, 48);text-anchor:middle;">rvfi_trap</text></g><g id="sprotty_ArchitectureBlockImpl$ibex_tracer/BPortImpl$rvfi_insn" transform="translate(0, 926)" class="triangle"><path d="M 0,0 L 5,2.5 L 0,5 Z" transform="translate(-1.67, -2.5)" class="sprotty-port" style="fill:rgb(48, 48, 48);stroke:rgb(48, 48, 48);"/><text class="clickable sprotty-label port" id="sprotty_ArchitectureBlockImpl$ibex_tracer/BPortImpl$rvfi_insn/label" transform="translate(6, 6) translate(24.5, 14)" style="cursor:default;font-size:12px;perspective-origin:0px 0px;fill:rgb(48, 48, 48);text-anchor:middle;">rvfi_insn</text></g><g id="sprotty_ArchitectureBlockImpl$ibex_tracer/BPortImpl$rvfi_order" transform="translate(0, 970)" class="triangle"><path d="M 0,0 L 5,2.5 L 0,5 Z" transform="translate(-1.67, -2.5)" class="sprotty-port" style="fill:rgb(48, 48, 48);stroke:rgb(48, 48, 48);"/><text class="clickable sprotty-label port" id="sprotty_ArchitectureBlockImpl$ibex_tracer/BPortImpl$rvfi_order/label" transform="translate(6, 6) translate(27.984375, 14)" style="cursor:default;font-size:12px;perspective-origin:0.171875px 0px;fill:rgb(48, 48, 48);text-anchor:middle;">rvfi_order</text></g><g id="sprotty_ArchitectureBlockImpl$ibex_tracer/BPortImpl$rvfi_valid" transform="translate(0, 1098)" class="triangle"><path d="M 0,0 L 5,2.5 L 0,5 Z" transform="translate(-1.67, -2.5)" class="sprotty-port" style="fill:rgb(48, 48, 48);stroke:rgb(48, 48, 48);"/><text class="clickable sprotty-label port" id="sprotty_ArchitectureBlockImpl$ibex_tracer/BPortImpl$rvfi_valid/label" transform="translate(6, 6) translate(26.171875, 14)" style="cursor:default;font-size:12px;perspective-origin:0px 0px;fill:rgb(48, 48, 48);text-anchor:middle;">rvfi_valid</text></g><g id="sprotty_ArchitectureBlockImpl$ibex_tracer/BPortImpl$hart_id_i" transform="translate(0, 1142)" class="triangle"><path d="M 0,0 L 5,2.5 L 0,5 Z" transform="translate(-1.67, -2.5)" class="sprotty-port" style="fill:rgb(48, 48, 48);stroke:rgb(48, 48, 48);"/><text class="clickable sprotty-label port" id="sprotty_ArchitectureBlockImpl$ibex_tracer/BPortImpl$hart_id_i/label" transform="translate(6, 6) translate(25.359375, 14)" style="cursor:default;font-size:12px;perspective-origin:0px 0px;fill:rgb(48, 48, 48);text-anchor:middle;">hart_id_i</text></g><g id="sprotty_ArchitectureBlockImpl$ibex_tracer/BPortImpl$rst_ni" transform="translate(0, 1014)" class="triangle"><path d="M 0,0 L 5,2.5 L 0,5 Z" transform="translate(-1.67, -2.5)" class="sprotty-port" style="fill:rgb(48, 48, 48);stroke:rgb(48, 48, 48);"/><text class="clickable sprotty-label port" id="sprotty_ArchitectureBlockImpl$ibex_tracer/BPortImpl$rst_ni/label" transform="translate(6, 6) translate(15.921875, 14)" style="cursor:default;font-size:12px;perspective-origin:0px 0px;fill:rgb(48, 48, 48);text-anchor:middle;">rst_ni</text></g><g id="sprotty_ArchitectureBlockImpl$ibex_tracer/BPortImpl$clk_i" transform="translate(0, 1048)" class="triangle"><path d="M 0,0 L 5,2.5 L 0,5 Z" transform="translate(-1.67, -2.5)" class="sprotty-port" style="fill:rgb(48, 48, 48);stroke:rgb(48, 48, 48);"/><text class="clickable sprotty-label port" id="sprotty_ArchitectureBlockImpl$ibex_tracer/BPortImpl$clk_i/label" transform="translate(6, 6) translate(13.09375, 14)" style="cursor:default;font-size:12px;perspective-origin:0px 0px;fill:rgb(48, 48, 48);text-anchor:middle;">clk_i</text></g></g></g></svg>