<svg xmlns="http://www.w3.org/2000/svg" id="sprotty_work.entropy_src_ack_sm" class="sprotty-graph sprotty-block-diagram blockdiagram" style="font-family:&quot;Noto Sans&quot;, Helvetica, Arial, sans-serif;perspective-origin:0px 0px;transform-origin:0px 0px;" version="1.1" viewBox="7 7 620.53125 285" width="620.53125" height="285"><g transform="scale(1) translate(0,0)"><g id="sprotty_ArchitectureBlockImpl$entropy_src_ack_sm" transform="translate(12, 12)" class="architecture"><g class="sprotty-block" style="fill:rgb(255, 255, 255);stroke:rgb(48, 48, 48);stroke-dasharray:0px;"><rect x="0" y="0" rx="1" ry="1" width="610.53125" height="275"/><text x="305.265625" y="12" class="sprotty-block-name" style="cursor:pointer;font-weight:700;perspective-origin:305.266px 0px;fill:rgb(48, 48, 48);stroke:rgba(0, 0, 0, 0);dominant-baseline:middle;text-anchor:middle;">entropy_src_ack_sm</text><line x1="0" y1="20" x2="610.53125" y2="20"/></g><g id="sprotty_ArchitectureBlockImpl$entropy_src_ack_sm/AlwaysBlockImpl$null7/GPortImpl$ack_oOUT_to_ArchitectureBlockImpl$entropy_src_ack_sm/BPortImpl$ack_o" class="sprotty-edge edge" style="fill:none;stroke:rgb(112, 112, 112);stroke-linejoin:round;"><g><path d="M 211.3125 216 L 229.3125 216 C 230.3125 216 231.3125 215 231.3125 214 L 231.3125 170 C 231.3125 169 232.3125 168 233.3125 168 L 610.53125 168 "/><path d="M 211.3125 216 L 229.3125 216 C 230.3125 216 231.3125 215 231.3125 214 L 231.3125 170 C 231.3125 169 232.3125 168 233.3125 168 L 610.53125 168 " class="clickable"/></g></g><g id="sprotty_ArchitectureBlockImpl$entropy_src_ack_sm/AlwaysBlockImpl$null7/GPortImpl$fifo_pop_oOUT_to_ArchitectureBlockImpl$entropy_src_ack_sm/BPortImpl$fifo_pop_o" class="sprotty-edge edge" style="fill:none;stroke:rgb(112, 112, 112);stroke-linejoin:round;"><g><path d="M 211.3125 226 L 239.3125 226 C 240.3125 226 241.3125 225 241.3125 224 L 241.3125 204 C 241.3125 203 242.3125 202 243.3125 202 L 610.53125 202 "/><path d="M 211.3125 226 L 239.3125 226 C 240.3125 226 241.3125 225 241.3125 224 L 241.3125 204 C 241.3125 203 242.3125 202 243.3125 202 L 610.53125 202 " class="clickable"/></g></g><g id="sprotty_ArchitectureBlockImpl$entropy_src_ack_sm/AlwaysBlockImpl$null7/GPortImpl$ack_sm_err_oOUT_to_ArchitectureBlockImpl$entropy_src_ack_sm/BPortImpl$ack_sm_err_o" class="sprotty-edge edge" style="fill:none;stroke:rgb(112, 112, 112);stroke-linejoin:round;"><g><path d="M 211.3125 236 L 610.53125 236 "/><path d="M 211.3125 236 L 610.53125 236 " class="clickable"/></g></g><g id="sprotty_ArchitectureBlockImpl$entropy_src_ack_sm/BPortImpl$clk_i_to_ArchitectureBlockImpl$entropy_src_ack_sm/InstantiationBlockImpl$u_state_regs/BPortImpl$clk_i" class="sprotty-edge edge" style="fill:none;stroke:rgb(112, 112, 112);stroke-linejoin:round;"><g><path d="M 0 67 L 219.3125 67 C 220.3125 67 221.3125 68 221.3125 69 L 221.3125 71 C 221.3125 72 222.3125 73 223.3125 73 L 251.3125 73 "/><path d="M 0 67 L 219.3125 67 C 220.3125 67 221.3125 68 221.3125 69 L 221.3125 71 C 221.3125 72 222.3125 73 223.3125 73 L 251.3125 73 " class="clickable"/></g></g><g id="sprotty_ArchitectureBlockImpl$entropy_src_ack_sm/BPortImpl$rst_ni_to_ArchitectureBlockImpl$entropy_src_ack_sm/InstantiationBlockImpl$u_state_regs/BPortImpl$rst_ni" class="sprotty-edge edge" style="fill:none;stroke:rgb(112, 112, 112);stroke-linejoin:round;"><g><path d="M 0 101 L 251.3125 101 "/><path d="M 0 101 L 251.3125 101 " class="clickable"/></g></g><g id="sprotty_ArchitectureBlockImpl$entropy_src_ack_sm/BPortImpl$req_i_to_ArchitectureBlockImpl$entropy_src_ack_sm/AlwaysBlockImpl$null7/GPortImpl$req_iIN" class="sprotty-edge edge" style="fill:none;stroke:rgb(112, 112, 112);stroke-linejoin:round;"><g><path d="M 0 199.5 L 125.5625 199.5 C 126.5625 199.5 127.5625 200.5 127.5625 201.5 L 127.5625 219 C 127.5625 220 128.5625 221 129.5625 221 L 147.5625 221 "/><path d="M 0 199.5 L 125.5625 199.5 C 126.5625 199.5 127.5625 200.5 127.5625 201.5 L 127.5625 219 C 127.5625 220 128.5625 221 129.5625 221 L 147.5625 221 " class="clickable"/></g></g><g id="sprotty_ArchitectureBlockImpl$entropy_src_ack_sm/BPortImpl$fifo_not_empty_i_to_ArchitectureBlockImpl$entropy_src_ack_sm/AlwaysBlockImpl$null7/GPortImpl$fifo_not_empty_iIN" class="sprotty-edge edge" style="fill:none;stroke:rgb(112, 112, 112);stroke-linejoin:round;"><g><path d="M 0 233.5 L 147.5625 233.5 "/><path d="M 0 233.5 L 147.5625 233.5 " class="clickable"/></g></g><g id="sprotty_ArchitectureBlockImpl$entropy_src_ack_sm/AlwaysBlockImpl$null7/GPortImpl$state_dOUT_to_ArchitectureBlockImpl$entropy_src_ack_sm/InstantiationBlockImpl$u_state_regs/BPortImpl$d_i" class="sprotty-edge thick edge" style="fill:none;stroke:rgb(112, 112, 112);stroke-linejoin:round;stroke-width:3px;"><g><path d="M 211.3125 206 L 219.3125 206 C 220.3125 206 221.3125 205 221.3125 204 L 221.3125 131 C 221.3125 130 222.3125 129 223.3125 129 L 251.3125 129 "/><path d="M 211.3125 206 L 219.3125 206 C 220.3125 206 221.3125 205 221.3125 204 L 221.3125 131 C 221.3125 130 222.3125 129 223.3125 129 L 251.3125 129 " class="clickable"/></g></g><g id="sprotty_ArchitectureBlockImpl$entropy_src_ack_sm/AssignmentBlockImpl$state_q/GPortImpl$state_raw_qOUT_to_ArchitectureBlockImpl$entropy_src_ack_sm/AlwaysBlockImpl$null7/GPortImpl$state_qIN" class="sprotty-edge thick edge" style="fill:none;stroke:rgb(112, 112, 112);stroke-linejoin:round;stroke-width:3px;"><g><path d="M 489.9375 101 L 497.9375 101 C 498.9375 101 499.9375 102 499.9375 103 L 499.9375 156 C 499.9375 157 498.9375 158 497.9375 158 L 139.5625 158 C 138.5625 158 137.5625 159 137.5625 160 L 137.5625 206.5 C 137.5625 207.5 138.5625 208.5 139.5625 208.5 L 147.5625 208.5 "/><path d="M 489.9375 101 L 497.9375 101 C 498.9375 101 499.9375 102 499.9375 103 L 499.9375 156 C 499.9375 157 498.9375 158 497.9375 158 L 139.5625 158 C 138.5625 158 137.5625 159 137.5625 160 L 137.5625 206.5 C 137.5625 207.5 138.5625 208.5 139.5625 208.5 L 147.5625 208.5 " class="clickable"/></g></g><g id="sprotty_ArchitectureBlockImpl$entropy_src_ack_sm/InstantiationBlockImpl$u_state_regs/BPortImpl$q_o_to_ArchitectureBlockImpl$entropy_src_ack_sm/AssignmentBlockImpl$state_q/GPortImpl$state_raw_qIN" class="sprotty-edge thick edge" style="fill:none;stroke:rgb(112, 112, 112);stroke-linejoin:round;stroke-width:3px;"><g><path d="M 450.21875 101 L 470.21875 101 "/><path d="M 450.21875 101 L 470.21875 101 " class="clickable"/></g></g><g id="sprotty_ArchitectureBlockImpl$entropy_src_ack_sm/AlwaysBlockImpl$null7" transform="translate(147.5625, 196)" class="statement"><rect x="0" y="0" rx="10" ry="5" width="63.75" height="50" class="sprotty-node" style="fill:rgb(245, 245, 245);stroke:rgb(112, 112, 112);"/><text class="clickable sprotty-label statementtype" id="sprotty_ArchitectureBlockImpl$entropy_src_ack_sm/AlwaysBlockImpl$null7/labeltype" transform="translate(5, 19) translate(26.875, 9)" style="cursor:default;font-size:8px;font-weight:700;perspective-origin:0px 0px;fill:rgb(112, 112, 112);text-anchor:middle;">always_comb</text><g id="sprotty_ArchitectureBlockImpl$entropy_src_ack_sm/AlwaysBlockImpl$null7/GPortImpl$fifo_not_empty_iIN" transform="translate(0, 37.5)" class="sprotty-hidden hidden" style="display:block;height:0px;width:0px;"/><g id="sprotty_ArchitectureBlockImpl$entropy_src_ack_sm/AlwaysBlockImpl$null7/GPortImpl$req_iIN" transform="translate(0, 25)" class="sprotty-hidden hidden" style="display:block;height:0px;width:0px;"/><g id="sprotty_ArchitectureBlockImpl$entropy_src_ack_sm/AlwaysBlockImpl$null7/GPortImpl$state_qIN" transform="translate(0, 12.5)" class="sprotty-hidden hidden" style="display:block;height:0px;width:0px;"/><g id="sprotty_ArchitectureBlockImpl$entropy_src_ack_sm/AlwaysBlockImpl$null7/GPortImpl$state_dOUT" transform="translate(63.75, 10)" class="sprotty-hidden hidden" style="display:block;height:0px;width:0px;"/><g id="sprotty_ArchitectureBlockImpl$entropy_src_ack_sm/AlwaysBlockImpl$null7/GPortImpl$ack_oOUT" transform="translate(63.75, 20)" class="sprotty-hidden hidden" style="display:block;height:0px;width:0px;"/><g id="sprotty_ArchitectureBlockImpl$entropy_src_ack_sm/AlwaysBlockImpl$null7/GPortImpl$fifo_pop_oOUT" transform="translate(63.75, 30)" class="sprotty-hidden hidden" style="display:block;height:0px;width:0px;"/><g id="sprotty_ArchitectureBlockImpl$entropy_src_ack_sm/AlwaysBlockImpl$null7/GPortImpl$ack_sm_err_oOUT" transform="translate(63.75, 40)" class="sprotty-hidden hidden" style="display:block;height:0px;width:0px;"/></g><g id="sprotty_ArchitectureBlockImpl$entropy_src_ack_sm/AssignmentBlockImpl$state_q" transform="translate(470.21875, 90)" class="statement"><rect x="0" y="0" rx="10" ry="5" width="19.71875" height="22" class="sprotty-node" style="fill:rgb(245, 245, 245);stroke:rgb(112, 112, 112);"/><text class="clickable sprotty-label statementtype" id="sprotty_ArchitectureBlockImpl$entropy_src_ack_sm/AssignmentBlockImpl$state_q/labeltype" transform="translate(5, 5) translate(4.71875, 9)" style="cursor:default;font-size:8px;font-weight:700;perspective-origin:0.140625px 0px;fill:rgb(112, 112, 112);text-anchor:middle;">&lt;=</text><g id="sprotty_ArchitectureBlockImpl$entropy_src_ack_sm/AssignmentBlockImpl$state_q/GPortImpl$state_raw_qIN" transform="translate(0, 11)" class="sprotty-hidden hidden" style="display:block;height:0px;width:0px;"/><g id="sprotty_ArchitectureBlockImpl$entropy_src_ack_sm/AssignmentBlockImpl$state_q/GPortImpl$state_raw_qOUT" transform="translate(19.71875, 11)" class="sprotty-hidden hidden" style="display:block;height:0px;width:0px;"/></g><g id="sprotty_ArchitectureBlockImpl$entropy_src_ack_sm/InstantiationBlockImpl$u_state_regs" transform="translate(251.3125, 35)" class="instantiation"><g class="sprotty-block" style="fill:rgb(255, 255, 255);stroke:rgb(48, 48, 48);stroke-dasharray:0px;"><rect x="0" y="0" rx="1" ry="1" width="198.90625" height="112"/><text x="99.453125" y="12" class="sprotty-block-name" style="cursor:pointer;font-weight:700;perspective-origin:99.4531px 0px;fill:rgb(48, 48, 48);stroke:rgba(0, 0, 0, 0);dominant-baseline:middle;text-anchor:middle;">u_state_regs : prim_flop</text><line x1="0" y1="20" x2="198.90625" y2="20"/></g><g id="sprotty_ArchitectureBlockImpl$entropy_src_ack_sm/InstantiationBlockImpl$u_state_regs/BPortImpl$d_i" transform="translate(0, 94)" class="triangle"><path d="M 0,0 L 5,2.5 L 0,5 Z" transform="translate(-1.67, -2.5)" class="sprotty-port" style="fill:rgb(48, 48, 48);stroke:rgb(48, 48, 48);"/><text class="clickable sprotty-label port" id="sprotty_ArchitectureBlockImpl$entropy_src_ack_sm/InstantiationBlockImpl$u_state_regs/BPortImpl$d_i/label" transform="translate(6, -9) translate(8.734375, 14)" style="cursor:default;font-size:12px;perspective-origin:0px 0px;fill:rgb(48, 48, 48);text-anchor:middle;">d_i</text></g><g id="sprotty_ArchitectureBlockImpl$entropy_src_ack_sm/InstantiationBlockImpl$u_state_regs/BPortImpl$rst_ni" transform="translate(0, 66)" class="triangle"><path d="M 0,0 L 5,2.5 L 0,5 Z" transform="translate(-1.67, -2.5)" class="sprotty-port" style="fill:rgb(48, 48, 48);stroke:rgb(48, 48, 48);"/><text class="clickable sprotty-label port" id="sprotty_ArchitectureBlockImpl$entropy_src_ack_sm/InstantiationBlockImpl$u_state_regs/BPortImpl$rst_ni/label" transform="translate(6, -9) translate(15.921875, 14)" style="cursor:default;font-size:12px;perspective-origin:0px 0px;fill:rgb(48, 48, 48);text-anchor:middle;">rst_ni</text></g><g id="sprotty_ArchitectureBlockImpl$entropy_src_ack_sm/InstantiationBlockImpl$u_state_regs/BPortImpl$clk_i" transform="translate(0, 38)" class="triangle"><path d="M 0,0 L 5,2.5 L 0,5 Z" transform="translate(-1.67, -2.5)" class="sprotty-port" style="fill:rgb(48, 48, 48);stroke:rgb(48, 48, 48);"/><text class="clickable sprotty-label port" id="sprotty_ArchitectureBlockImpl$entropy_src_ack_sm/InstantiationBlockImpl$u_state_regs/BPortImpl$clk_i/label" transform="translate(6, -9) translate(13.09375, 14)" style="cursor:default;font-size:12px;perspective-origin:0px 0px;fill:rgb(48, 48, 48);text-anchor:middle;">clk_i</text></g><g id="sprotty_ArchitectureBlockImpl$entropy_src_ack_sm/InstantiationBlockImpl$u_state_regs/BPortImpl$q_o" transform="translate(198.90625, 66)" class="triangle"><path d="M 0,0 L 5,2.5 L 0,5 Z" transform="translate(-1.67, -2.5)" class="sprotty-port" style="fill:rgb(48, 48, 48);stroke:rgb(48, 48, 48);"/><text class="clickable sprotty-label port" id="sprotty_ArchitectureBlockImpl$entropy_src_ack_sm/InstantiationBlockImpl$u_state_regs/BPortImpl$q_o/label" transform="translate(-27.4375, -9) translate(10.71875, 14)" style="cursor:default;font-size:12px;perspective-origin:0px 0px;fill:rgb(48, 48, 48);text-anchor:middle;">q_o</text></g></g><g id="sprotty_ArchitectureBlockImpl$entropy_src_ack_sm/BPortImpl$fifo_not_empty_i" transform="translate(0, 233.5)" class="triangle"><path d="M 0,0 L 5,2.5 L 0,5 Z" transform="translate(-1.67, -2.5)" class="sprotty-port" style="fill:rgb(48, 48, 48);stroke:rgb(48, 48, 48);"/><text class="clickable sprotty-label port" id="sprotty_ArchitectureBlockImpl$entropy_src_ack_sm/BPortImpl$fifo_not_empty_i/label" transform="translate(6, 6) translate(48.28125, 14)" style="cursor:default;font-size:12px;perspective-origin:0px 0px;fill:rgb(48, 48, 48);text-anchor:middle;">fifo_not_empty_i</text></g><g id="sprotty_ArchitectureBlockImpl$entropy_src_ack_sm/BPortImpl$req_i" transform="translate(0, 199.5)" class="triangle"><path d="M 0,0 L 5,2.5 L 0,5 Z" transform="translate(-1.67, -2.5)" class="sprotty-port" style="fill:rgb(48, 48, 48);stroke:rgb(48, 48, 48);"/><text class="clickable sprotty-label port" id="sprotty_ArchitectureBlockImpl$entropy_src_ack_sm/BPortImpl$req_i/label" transform="translate(6, 6) translate(14.3125, 14)" style="cursor:default;font-size:12px;perspective-origin:0px 0px;fill:rgb(48, 48, 48);text-anchor:middle;">req_i</text></g><g id="sprotty_ArchitectureBlockImpl$entropy_src_ack_sm/BPortImpl$rst_ni" transform="translate(0, 101)" class="triangle"><path d="M 0,0 L 5,2.5 L 0,5 Z" transform="translate(-1.67, -2.5)" class="sprotty-port" style="fill:rgb(48, 48, 48);stroke:rgb(48, 48, 48);"/><text class="clickable sprotty-label port" id="sprotty_ArchitectureBlockImpl$entropy_src_ack_sm/BPortImpl$rst_ni/label" transform="translate(6, 6) translate(15.921875, 14)" style="cursor:default;font-size:12px;perspective-origin:0px 0px;fill:rgb(48, 48, 48);text-anchor:middle;">rst_ni</text></g><g id="sprotty_ArchitectureBlockImpl$entropy_src_ack_sm/BPortImpl$clk_i" transform="translate(0, 67)" class="triangle"><path d="M 0,0 L 5,2.5 L 0,5 Z" transform="translate(-1.67, -2.5)" class="sprotty-port" style="fill:rgb(48, 48, 48);stroke:rgb(48, 48, 48);"/><text class="clickable sprotty-label port" id="sprotty_ArchitectureBlockImpl$entropy_src_ack_sm/BPortImpl$clk_i/label" transform="translate(6, 6) translate(13.09375, 14)" style="cursor:default;font-size:12px;perspective-origin:0px 0px;fill:rgb(48, 48, 48);text-anchor:middle;">clk_i</text></g><g id="sprotty_ArchitectureBlockImpl$entropy_src_ack_sm/BPortImpl$ack_o" transform="translate(610.53125, 168)" class="triangle"><path d="M 0,0 L 5,2.5 L 0,5 Z" transform="translate(-1.67, -2.5)" class="sprotty-port" style="fill:rgb(48, 48, 48);stroke:rgb(48, 48, 48);"/><text class="clickable sprotty-label port" id="sprotty_ArchitectureBlockImpl$entropy_src_ack_sm/BPortImpl$ack_o/label" transform="translate(-39.5, 6) translate(16.75, 14)" style="cursor:default;font-size:12px;perspective-origin:0px 0px;fill:rgb(48, 48, 48);text-anchor:middle;">ack_o</text></g><g id="sprotty_ArchitectureBlockImpl$entropy_src_ack_sm/BPortImpl$fifo_pop_o" transform="translate(610.53125, 202)" class="triangle"><path d="M 0,0 L 5,2.5 L 0,5 Z" transform="translate(-1.67, -2.5)" class="sprotty-port" style="fill:rgb(48, 48, 48);stroke:rgb(48, 48, 48);"/><text class="clickable sprotty-label port" id="sprotty_ArchitectureBlockImpl$entropy_src_ack_sm/BPortImpl$fifo_pop_o/label" transform="translate(-67.34375, 6) translate(30.671875, 14)" style="cursor:default;font-size:12px;perspective-origin:0px 0px;fill:rgb(48, 48, 48);text-anchor:middle;">fifo_pop_o</text></g><g id="sprotty_ArchitectureBlockImpl$entropy_src_ack_sm/BPortImpl$ack_sm_err_o" transform="translate(610.53125, 236)" class="triangle"><path d="M 0,0 L 5,2.5 L 0,5 Z" transform="translate(-1.67, -2.5)" class="sprotty-port" style="fill:rgb(48, 48, 48);stroke:rgb(48, 48, 48);"/><text class="clickable sprotty-label port" id="sprotty_ArchitectureBlockImpl$entropy_src_ack_sm/BPortImpl$ack_sm_err_o/label" transform="translate(-85.59375, 6) translate(39.796875, 14)" style="cursor:default;font-size:12px;perspective-origin:0px 0px;fill:rgb(48, 48, 48);text-anchor:middle;">ack_sm_err_o</text></g></g></g></svg>