<svg xmlns="http://www.w3.org/2000/svg" id="sprotty_work.rstmgr_por" class="sprotty-graph sprotty-block-diagram blockdiagram" style="font-family:&quot;Noto Sans&quot;, Helvetica, Arial, sans-serif;perspective-origin:0px 0px;transform-origin:0px 0px;" version="1.1" viewBox="7 7 1238.0625 350" width="1238.0625" height="350"><g transform="scale(1) translate(0,0)"><g id="sprotty_ArchitectureBlockImpl$rstmgr_por" transform="translate(12, 12)" class="architecture"><g class="sprotty-block" style="fill:rgb(255, 255, 255);stroke:rgb(48, 48, 48);stroke-dasharray:0px;"><rect x="0" y="0" rx="1" ry="1" width="1228.0625" height="340"/><text x="614.03125" y="12" class="sprotty-block-name" style="cursor:pointer;font-weight:700;perspective-origin:614.031px 0px;fill:rgb(48, 48, 48);stroke:rgba(0, 0, 0, 0);dominant-baseline:middle;text-anchor:middle;">rstmgr_por</text><line x1="0" y1="20" x2="1228.0625" y2="20"/></g><g id="sprotty_ArchitectureBlockImpl$rstmgr_por/AssignmentBlockImpl$rst_no/GPortImpl$rst_noOUT_to_ArchitectureBlockImpl$rstmgr_por/BPortImpl$rst_no" class="sprotty-edge edge" style="fill:none;stroke:rgb(112, 112, 112);stroke-linejoin:round;"><g><path d="M 1151.25 273 L 1228.0625 273 "/><path d="M 1151.25 273 L 1228.0625 273 " class="clickable"/></g></g><g id="sprotty_ArchitectureBlockImpl$rstmgr_por/BPortImpl$clk_i_to_ArchitectureBlockImpl$rstmgr_por/InstantiationBlockImpl$rst_sync/BPortImpl$clk_i" class="sprotty-edge edge" style="fill:none;stroke:rgb(112, 112, 112);stroke-linejoin:round;"><g><path d="M 0 132 L 97.1875 132 C 98.1875 132 99.1875 133 99.1875 134 L 99.1875 180 C 99.1875 181 100.1875 182 101.1875 182 L 109.1875 182 "/><path d="M 0 132 L 97.1875 132 C 98.1875 132 99.1875 133 99.1875 134 L 99.1875 180 C 99.1875 181 100.1875 182 101.1875 182 L 109.1875 182 " class="clickable"/></g><circle r="2" id="sprotty_ArchitectureBlockImpl$rstmgr_por/BPortImpl$clk_i_to_ArchitectureBlockImpl$rstmgr_por/InstantiationBlockImpl$rst_sync/BPortImpl$clk_i/junction0" transform="translate(99.1875, 132)" class="sprotty-junction junction" style="fill:rgb(112, 112, 112);stroke:none;"/></g><g id="sprotty_ArchitectureBlockImpl$rstmgr_por/BPortImpl$rst_ni_to_ArchitectureBlockImpl$rstmgr_por/InstantiationBlockImpl$rst_sync/BPortImpl$rst_ni" class="sprotty-edge edge" style="fill:none;stroke:rgb(112, 112, 112);stroke-linejoin:round;"><g><path d="M 0 210 L 109.1875 210 "/><path d="M 0 210 L 109.1875 210 " class="clickable"/></g></g><g id="sprotty_ArchitectureBlockImpl$rstmgr_por/BPortImpl$scan_rst_ni_to_ArchitectureBlockImpl$rstmgr_por/InstantiationBlockImpl$u_rst_clean_mux/BPortImpl$clk1_i" class="sprotty-edge edge" style="fill:none;stroke:rgb(112, 112, 112);stroke-linejoin:round;"><g><path d="M 0 267 L 454.515625 267 C 455.515625 267 456.515625 268 456.515625 269 L 456.515625 271 C 456.515625 272 457.515625 273 458.515625 273 L 476.515625 273 "/><path d="M 0 267 L 454.515625 267 C 455.515625 267 456.515625 268 456.515625 269 L 456.515625 271 C 456.515625 272 457.515625 273 458.515625 273 L 476.515625 273 " class="clickable"/></g></g><g id="sprotty_ArchitectureBlockImpl$rstmgr_por/BPortImpl$scanmode_i_to_ArchitectureBlockImpl$rstmgr_por/InstantiationBlockImpl$u_rst_clean_mux/BPortImpl$sel_i" class="sprotty-edge edge" style="fill:none;stroke:rgb(112, 112, 112);stroke-linejoin:round;"><g><path d="M 0 301 L 476.515625 301 "/><path d="M 0 301 L 476.515625 301 " class="clickable"/></g></g><g id="sprotty_ArchitectureBlockImpl$rstmgr_por/BPortImpl$clk_i_to_ArchitectureBlockImpl$rstmgr_por/InstantiationBlockImpl$u_rst_flop/BPortImpl$clk_i" class="sprotty-edge edge" style="fill:none;stroke:rgb(112, 112, 112);stroke-linejoin:round;"><g><path d="M 0 132 L 404.796875 132 C 405.796875 132 406.796875 131 406.796875 130 L 406.796875 55 C 406.796875 54 407.796875 53 408.796875 53 L 920.34375 53 C 921.34375 53 922.34375 54 922.34375 55 L 922.34375 243 C 922.34375 244 923.34375 245 924.34375 245 L 932.34375 245 "/><path d="M 0 132 L 404.796875 132 C 405.796875 132 406.796875 131 406.796875 130 L 406.796875 55 C 406.796875 54 407.796875 53 408.796875 53 L 920.34375 53 C 921.34375 53 922.34375 54 922.34375 55 L 922.34375 243 C 922.34375 244 923.34375 245 924.34375 245 L 932.34375 245 " class="clickable"/></g><circle r="2" id="sprotty_ArchitectureBlockImpl$rstmgr_por/BPortImpl$clk_i_to_ArchitectureBlockImpl$rstmgr_por/InstantiationBlockImpl$u_rst_flop/BPortImpl$clk_i/junction0" transform="translate(406.796875, 132)" class="sprotty-junction junction" style="fill:rgb(112, 112, 112);stroke:none;"/></g><g id="sprotty_ArchitectureBlockImpl$rstmgr_por/BPortImpl$rst_no_to_ArchitectureBlockImpl$rstmgr_por/AssignmentBlockImpl$cnt_en/GPortImpl$rst_noIN" class="sprotty-edge edge" style="fill:none;stroke:rgb(112, 112, 112);stroke-linejoin:round;"><g><path d="M 1228.0625 273 L 1163.25 273 C 1162.25 273 1161.25 272 1161.25 271 L 1161.25 38 C 1161.25 37 1160.25 36 1159.25 36 L 458.515625 36 C 457.515625 36 456.515625 37 456.515625 38 L 456.515625 83 C 456.515625 84 457.515625 85 458.515625 85 L 661.515625 85 "/><path d="M 1228.0625 273 L 1163.25 273 C 1162.25 273 1161.25 272 1161.25 271 L 1161.25 38 C 1161.25 37 1160.25 36 1159.25 36 L 458.515625 36 C 457.515625 36 456.515625 37 456.515625 38 L 456.515625 83 C 456.515625 84 457.515625 85 458.515625 85 L 661.515625 85 " class="clickable"/></g><circle r="2" id="sprotty_ArchitectureBlockImpl$rstmgr_por/BPortImpl$rst_no_to_ArchitectureBlockImpl$rstmgr_por/AssignmentBlockImpl$cnt_en/GPortImpl$rst_noIN/junction0" transform="translate(1161.25, 273)" class="sprotty-junction junction" style="fill:rgb(112, 112, 112);stroke:none;"/></g><g id="sprotty_ArchitectureBlockImpl$rstmgr_por/BPortImpl$clk_i_to_ArchitectureBlockImpl$rstmgr_por/AlwaysBlockImpl$null6/GPortImpl$clk_iIN" class="sprotty-edge edge" style="fill:none;stroke:rgb(112, 112, 112);stroke-linejoin:round;"><g><path d="M 0 132 L 335.90625 132 C 336.90625 132 337.90625 133 337.90625 134 L 337.90625 198 C 337.90625 199 338.90625 200 339.90625 200 L 347.90625 200 "/><path d="M 0 132 L 335.90625 132 C 336.90625 132 337.90625 133 337.90625 134 L 337.90625 198 C 337.90625 199 338.90625 200 339.90625 200 L 347.90625 200 " class="clickable"/></g><circle r="2" id="sprotty_ArchitectureBlockImpl$rstmgr_por/BPortImpl$clk_i_to_ArchitectureBlockImpl$rstmgr_por/AlwaysBlockImpl$null6/GPortImpl$clk_iIN/junction0" transform="translate(337.90625, 132)" class="sprotty-junction junction" style="fill:rgb(112, 112, 112);stroke:none;"/></g><g id="sprotty_ArchitectureBlockImpl$rstmgr_por/BPortImpl$clk_i_to_ArchitectureBlockImpl$rstmgr_por/AlwaysBlockImpl$null5/GPortImpl$clk_iIN" class="sprotty-edge edge" style="fill:none;stroke:rgb(112, 112, 112);stroke-linejoin:round;"><g><path d="M 0 132 L 793.734375 132 "/><path d="M 0 132 L 793.734375 132 " class="clickable"/></g></g><g id="sprotty_ArchitectureBlockImpl$rstmgr_por/InstantiationBlockImpl$rst_sync/BPortImpl$q_o_to_ArchitectureBlockImpl$rstmgr_por/AlwaysBlockImpl$null6/GPortImpl$rst_root_nIN" class="sprotty-edge edge" style="fill:none;stroke:rgb(112, 112, 112);stroke-linejoin:round;"><g><path d="M 327.90625 210 L 347.90625 210 "/><path d="M 327.90625 210 L 347.90625 210 " class="clickable"/></g></g><g id="sprotty_ArchitectureBlockImpl$rstmgr_por/AlwaysBlockImpl$null6/GPortImpl$rst_filter_nOUT_to_ArchitectureBlockImpl$rstmgr_por/InstantiationBlockImpl$u_rst_clean_mux/BPortImpl$clk0_i" class="sprotty-edge thick edge" style="fill:none;stroke:rgb(112, 112, 112);stroke-linejoin:round;stroke-width:3px;"><g><path d="M 396.796875 205 L 454.515625 205 C 455.515625 205 456.515625 206 456.515625 207 L 456.515625 243 C 456.515625 244 457.515625 245 458.515625 245 L 476.515625 245 "/><path d="M 396.796875 205 L 454.515625 205 C 455.515625 205 456.515625 206 456.515625 207 L 456.515625 243 C 456.515625 244 457.515625 245 458.515625 245 L 476.515625 245 " class="clickable"/></g></g><g id="sprotty_ArchitectureBlockImpl$rstmgr_por/AlwaysBlockImpl$null6/GPortImpl$rst_filter_nOUT_to_ArchitectureBlockImpl$rstmgr_por/AssignmentBlockImpl$rst_stable/GPortImpl$rst_filter_nIN" class="sprotty-edge thick edge" style="fill:none;stroke:rgb(112, 112, 112);stroke-linejoin:round;stroke-width:3px;"><g><path d="M 396.796875 205 L 414.796875 205 C 415.796875 205 416.796875 204 416.796875 203 L 416.796875 97 C 416.796875 96 417.796875 95 418.796875 95 L 426.796875 95 "/><path d="M 396.796875 205 L 414.796875 205 C 415.796875 205 416.796875 204 416.796875 203 L 416.796875 97 C 416.796875 96 417.796875 95 418.796875 95 L 426.796875 95 " class="clickable"/></g><circle r="3" id="sprotty_ArchitectureBlockImpl$rstmgr_por/AlwaysBlockImpl$null6/GPortImpl$rst_filter_nOUT_to_ArchitectureBlockImpl$rstmgr_por/AssignmentBlockImpl$rst_stable/GPortImpl$rst_filter_nIN/junction0" transform="translate(416.796875, 205)" class="sprotty-junction thick" style="fill:rgb(112, 112, 112);stroke:none;"/></g><g id="sprotty_ArchitectureBlockImpl$rstmgr_por/AssignmentBlockImpl$rst_stable/GPortImpl$rst_filter_nOUT_to_ArchitectureBlockImpl$rstmgr_por/AssignmentBlockImpl$cnt_en/GPortImpl$rst_stableIN" class="sprotty-edge thick edge" style="fill:none;stroke:rgb(112, 112, 112);stroke-linejoin:round;stroke-width:3px;"><g><path d="M 446.515625 95 L 661.515625 95 "/><path d="M 446.515625 95 L 661.515625 95 " class="clickable"/></g></g><g id="sprotty_ArchitectureBlockImpl$rstmgr_por/AssignmentBlockImpl$rst_stable/GPortImpl$rst_filter_nOUT_to_ArchitectureBlockImpl$rstmgr_por/AssignmentBlockImpl$rst_nd/GPortImpl$rst_stableIN" class="sprotty-edge thick edge" style="fill:none;stroke:rgb(112, 112, 112);stroke-linejoin:round;stroke-width:3px;"><g><path d="M 446.515625 95 L 464.515625 95 C 465.515625 95 466.515625 94 466.515625 93 L 466.515625 65 C 466.515625 64 467.515625 63 468.515625 63 L 860.625 63 C 861.625 63 862.625 64 862.625 65 L 862.625 105 C 862.625 106 863.625 107 864.625 107 L 882.625 107 "/><path d="M 446.515625 95 L 464.515625 95 C 465.515625 95 466.515625 94 466.515625 93 L 466.515625 65 C 466.515625 64 467.515625 63 468.515625 63 L 860.625 63 C 861.625 63 862.625 64 862.625 65 L 862.625 105 C 862.625 106 863.625 107 864.625 107 L 882.625 107 " class="clickable"/></g><circle r="3" id="sprotty_ArchitectureBlockImpl$rstmgr_por/AssignmentBlockImpl$rst_stable/GPortImpl$rst_filter_nOUT_to_ArchitectureBlockImpl$rstmgr_por/AssignmentBlockImpl$rst_nd/GPortImpl$rst_stableIN/junction0" transform="translate(466.515625, 95)" class="sprotty-junction thick" style="fill:rgb(112, 112, 112);stroke:none;"/></g><g id="sprotty_ArchitectureBlockImpl$rstmgr_por/AssignmentBlockImpl$rst_stable/GPortImpl$rst_filter_nOUT_to_ArchitectureBlockImpl$rstmgr_por/AlwaysBlockImpl$null5/GPortImpl$rst_stableIN" class="sprotty-edge thick edge" style="fill:none;stroke:rgb(112, 112, 112);stroke-linejoin:round;stroke-width:3px;"><g><path d="M 446.515625 95 L 464.515625 95 C 465.515625 95 466.515625 96 466.515625 97 L 466.515625 120 C 466.515625 121 467.515625 122 468.515625 122 L 793.734375 122 "/><path d="M 446.515625 95 L 464.515625 95 C 465.515625 95 466.515625 96 466.515625 97 L 466.515625 120 C 466.515625 121 467.515625 122 468.515625 122 L 793.734375 122 " class="clickable"/></g></g><g id="sprotty_ArchitectureBlockImpl$rstmgr_por/InstantiationBlockImpl$u_rst_clean_mux/BPortImpl$clk_o_to_ArchitectureBlockImpl$rstmgr_por/InstantiationBlockImpl$u_rst_flop/BPortImpl$rst_ni" class="sprotty-edge edge" style="fill:none;stroke:rgb(112, 112, 112);stroke-linejoin:round;"><g><path d="M 773.734375 273 L 932.34375 273 "/><path d="M 773.734375 273 L 932.34375 273 " class="clickable"/></g></g><g id="sprotty_ArchitectureBlockImpl$rstmgr_por/InstantiationBlockImpl$u_rst_clean_mux/BPortImpl$clk_o_to_ArchitectureBlockImpl$rstmgr_por/AlwaysBlockImpl$null5/GPortImpl$rst_clean_nIN" class="sprotty-edge edge" style="fill:none;stroke:rgb(112, 112, 112);stroke-linejoin:round;"><g><path d="M 773.734375 273 L 781.734375 273 C 782.734375 273 783.734375 272 783.734375 271 L 783.734375 144 C 783.734375 143 784.734375 142 785.734375 142 L 793.734375 142 "/><path d="M 773.734375 273 L 781.734375 273 C 782.734375 273 783.734375 272 783.734375 271 L 783.734375 144 C 783.734375 143 784.734375 142 785.734375 142 L 793.734375 142 " class="clickable"/></g><circle r="2" id="sprotty_ArchitectureBlockImpl$rstmgr_por/InstantiationBlockImpl$u_rst_clean_mux/BPortImpl$clk_o_to_ArchitectureBlockImpl$rstmgr_por/AlwaysBlockImpl$null5/GPortImpl$rst_clean_nIN/junction0" transform="translate(783.734375, 273)" class="sprotty-junction junction" style="fill:rgb(112, 112, 112);stroke:none;"/></g><g id="sprotty_ArchitectureBlockImpl$rstmgr_por/AlwaysBlockImpl$null5/GPortImpl$cntOUT_to_ArchitectureBlockImpl$rstmgr_por/AssignmentBlockImpl$rst_nd/GPortImpl$cntIN" class="sprotty-edge thick edge" style="fill:none;stroke:rgb(112, 112, 112);stroke-linejoin:round;stroke-width:3px;"><g><path d="M 842.625 127 L 882.625 127 "/><path d="M 842.625 127 L 882.625 127 " class="clickable"/></g></g><g id="sprotty_ArchitectureBlockImpl$rstmgr_por/AssignmentBlockImpl$cnt_en/GPortImpl$rst_noOUT_to_ArchitectureBlockImpl$rstmgr_por/AssignmentBlockImpl$rst_nd/GPortImpl$cnt_enIN" class="sprotty-edge edge" style="fill:none;stroke:rgb(112, 112, 112);stroke-linejoin:round;"><g><path d="M 681.234375 90 L 850.625 90 C 851.625 90 852.625 91 852.625 92 L 852.625 115 C 852.625 116 853.625 117 854.625 117 L 882.625 117 "/><path d="M 681.234375 90 L 850.625 90 C 851.625 90 852.625 91 852.625 92 L 852.625 115 C 852.625 116 853.625 117 854.625 117 L 882.625 117 " class="clickable"/></g></g><g id="sprotty_ArchitectureBlockImpl$rstmgr_por/AssignmentBlockImpl$cnt_en/GPortImpl$rst_noOUT_to_ArchitectureBlockImpl$rstmgr_por/AlwaysBlockImpl$null5/GPortImpl$cnt_enIN" class="sprotty-edge edge" style="fill:none;stroke:rgb(112, 112, 112);stroke-linejoin:round;"><g><path d="M 681.234375 90 L 781.734375 90 C 782.734375 90 783.734375 91 783.734375 92 L 783.734375 110 C 783.734375 111 784.734375 112 785.734375 112 L 793.734375 112 "/><path d="M 681.234375 90 L 781.734375 90 C 782.734375 90 783.734375 91 783.734375 92 L 783.734375 110 C 783.734375 111 784.734375 112 785.734375 112 L 793.734375 112 " class="clickable"/></g><circle r="2" id="sprotty_ArchitectureBlockImpl$rstmgr_por/AssignmentBlockImpl$cnt_en/GPortImpl$rst_noOUT_to_ArchitectureBlockImpl$rstmgr_por/AlwaysBlockImpl$null5/GPortImpl$cnt_enIN/junction0" transform="translate(783.734375, 90)" class="sprotty-junction junction" style="fill:rgb(112, 112, 112);stroke:none;"/></g><g id="sprotty_ArchitectureBlockImpl$rstmgr_por/AssignmentBlockImpl$rst_nd/GPortImpl$rst_nqOUT_to_ArchitectureBlockImpl$rstmgr_por/InstantiationBlockImpl$u_rst_flop/BPortImpl$d_i" class="sprotty-edge edge" style="fill:none;stroke:rgb(112, 112, 112);stroke-linejoin:round;"><g><path d="M 902.34375 112 L 910.34375 112 C 911.34375 112 912.34375 113 912.34375 114 L 912.34375 299 C 912.34375 300 913.34375 301 914.34375 301 L 932.34375 301 "/><path d="M 902.34375 112 L 910.34375 112 C 911.34375 112 912.34375 113 912.34375 114 L 912.34375 299 C 912.34375 300 913.34375 301 914.34375 301 L 932.34375 301 " class="clickable"/></g></g><g id="sprotty_ArchitectureBlockImpl$rstmgr_por/InstantiationBlockImpl$u_rst_flop/BPortImpl$q_o_to_ArchitectureBlockImpl$rstmgr_por/AssignmentBlockImpl$rst_nd/GPortImpl$rst_nqIN" class="sprotty-edge edge" style="fill:none;stroke:rgb(112, 112, 112);stroke-linejoin:round;"><g><path d="M 1111.53125 273 L 1119.53125 273 C 1120.53125 273 1121.53125 272 1121.53125 271 L 1121.53125 47 C 1121.53125 46 1120.53125 45 1119.53125 45 L 874.625 45 C 873.625 45 872.625 46 872.625 47 L 872.625 95 C 872.625 96 873.625 97 874.625 97 L 882.625 97 "/><path d="M 1111.53125 273 L 1119.53125 273 C 1120.53125 273 1121.53125 272 1121.53125 271 L 1121.53125 47 C 1121.53125 46 1120.53125 45 1119.53125 45 L 874.625 45 C 873.625 45 872.625 46 872.625 47 L 872.625 95 C 872.625 96 873.625 97 874.625 97 L 882.625 97 " class="clickable"/></g><circle r="2" id="sprotty_ArchitectureBlockImpl$rstmgr_por/InstantiationBlockImpl$u_rst_flop/BPortImpl$q_o_to_ArchitectureBlockImpl$rstmgr_por/AssignmentBlockImpl$rst_nd/GPortImpl$rst_nqIN/junction0" transform="translate(1121.53125, 273)" class="sprotty-junction junction" style="fill:rgb(112, 112, 112);stroke:none;"/></g><g id="sprotty_ArchitectureBlockImpl$rstmgr_por/InstantiationBlockImpl$u_rst_flop/BPortImpl$q_o_to_ArchitectureBlockImpl$rstmgr_por/AssignmentBlockImpl$rst_no/GPortImpl$rst_nqIN" class="sprotty-edge edge" style="fill:none;stroke:rgb(112, 112, 112);stroke-linejoin:round;"><g><path d="M 1111.53125 273 L 1131.53125 273 "/><path d="M 1111.53125 273 L 1131.53125 273 " class="clickable"/></g></g><g id="sprotty_ArchitectureBlockImpl$rstmgr_por/AlwaysBlockImpl$null5" transform="translate(793.734375, 102)" class="statement"><rect x="0" y="0" rx="10" ry="5" width="48.890625" height="50" class="sprotty-node" style="fill:rgb(245, 245, 245);stroke:rgb(112, 112, 112);"/><text class="clickable sprotty-label statementtype" id="sprotty_ArchitectureBlockImpl$rstmgr_por/AlwaysBlockImpl$null5/labeltype" transform="translate(5, 19) translate(18.828125, 9)" style="cursor:default;font-size:8px;font-weight:700;perspective-origin:0.609375px 0px;fill:rgb(112, 112, 112);text-anchor:middle;">always_ff</text><g id="sprotty_ArchitectureBlockImpl$rstmgr_por/AlwaysBlockImpl$null5/GPortImpl$cnt_enIN" transform="translate(0, 10)" class="sprotty-hidden hidden" style="display:block;height:0px;width:0px;"/><g id="sprotty_ArchitectureBlockImpl$rstmgr_por/AlwaysBlockImpl$null5/GPortImpl$rst_stableIN" transform="translate(0, 20)" class="sprotty-hidden hidden" style="display:block;height:0px;width:0px;"/><g id="sprotty_ArchitectureBlockImpl$rstmgr_por/AlwaysBlockImpl$null5/GPortImpl$rst_clean_nIN" transform="translate(0, 40)" class="sprotty-hidden hidden" style="display:block;height:0px;width:0px;"/><g id="sprotty_ArchitectureBlockImpl$rstmgr_por/AlwaysBlockImpl$null5/GPortImpl$clk_iIN" transform="translate(0, 30)" class="sprotty-hidden hidden" style="display:block;height:0px;width:0px;"/><g id="sprotty_ArchitectureBlockImpl$rstmgr_por/AlwaysBlockImpl$null5/GPortImpl$cntOUT" transform="translate(48.890625, 25)" class="sprotty-hidden hidden" style="display:block;height:0px;width:0px;"/></g><g id="sprotty_ArchitectureBlockImpl$rstmgr_por/AlwaysBlockImpl$null6" transform="translate(347.90625, 190)" class="statement"><rect x="0" y="0" rx="10" ry="5" width="48.890625" height="30" class="sprotty-node" style="fill:rgb(245, 245, 245);stroke:rgb(112, 112, 112);"/><text class="clickable sprotty-label statementtype" id="sprotty_ArchitectureBlockImpl$rstmgr_por/AlwaysBlockImpl$null6/labeltype" transform="translate(5, 9) translate(18.828125, 9)" style="cursor:default;font-size:8px;font-weight:700;perspective-origin:0.609375px 0px;fill:rgb(112, 112, 112);text-anchor:middle;">always_ff</text><g id="sprotty_ArchitectureBlockImpl$rstmgr_por/AlwaysBlockImpl$null6/GPortImpl$rst_root_nIN" transform="translate(0, 20)" class="sprotty-hidden hidden" style="display:block;height:0px;width:0px;"/><g id="sprotty_ArchitectureBlockImpl$rstmgr_por/AlwaysBlockImpl$null6/GPortImpl$clk_iIN" transform="translate(0, 10)" class="sprotty-hidden hidden" style="display:block;height:0px;width:0px;"/><g id="sprotty_ArchitectureBlockImpl$rstmgr_por/AlwaysBlockImpl$null6/GPortImpl$rst_filter_nOUT" transform="translate(48.890625, 15)" class="sprotty-hidden hidden" style="display:block;height:0px;width:0px;"/></g><g id="sprotty_ArchitectureBlockImpl$rstmgr_por/AssignmentBlockImpl$rst_no" transform="translate(1131.53125, 262)" class="statement"><rect x="0" y="0" rx="10" ry="5" width="19.71875" height="22" class="sprotty-node" style="fill:rgb(245, 245, 245);stroke:rgb(112, 112, 112);"/><text class="clickable sprotty-label statementtype" id="sprotty_ArchitectureBlockImpl$rstmgr_por/AssignmentBlockImpl$rst_no/labeltype" transform="translate(5, 5) translate(4.71875, 9)" style="cursor:default;font-size:8px;font-weight:700;perspective-origin:0.140625px 0px;fill:rgb(112, 112, 112);text-anchor:middle;">&lt;=</text><g id="sprotty_ArchitectureBlockImpl$rstmgr_por/AssignmentBlockImpl$rst_no/GPortImpl$rst_nqIN" transform="translate(0, 11)" class="sprotty-hidden hidden" style="display:block;height:0px;width:0px;"/><g id="sprotty_ArchitectureBlockImpl$rstmgr_por/AssignmentBlockImpl$rst_no/GPortImpl$rst_noOUT" transform="translate(19.71875, 11)" class="sprotty-hidden hidden" style="display:block;height:0px;width:0px;"/></g><g id="sprotty_ArchitectureBlockImpl$rstmgr_por/AssignmentBlockImpl$rst_nd" transform="translate(882.625, 87)" class="statement"><rect x="0" y="0" rx="10" ry="5" width="19.71875" height="50" class="sprotty-node" style="fill:rgb(245, 245, 245);stroke:rgb(112, 112, 112);"/><text class="clickable sprotty-label statementtype" id="sprotty_ArchitectureBlockImpl$rstmgr_por/AssignmentBlockImpl$rst_nd/labeltype" transform="translate(5, 19) translate(4.71875, 9)" style="cursor:default;font-size:8px;font-weight:700;perspective-origin:0.140625px 0px;fill:rgb(112, 112, 112);text-anchor:middle;">&lt;=</text><g id="sprotty_ArchitectureBlockImpl$rstmgr_por/AssignmentBlockImpl$rst_nd/GPortImpl$rst_nqIN" transform="translate(0, 10)" class="sprotty-hidden hidden" style="display:block;height:0px;width:0px;"/><g id="sprotty_ArchitectureBlockImpl$rstmgr_por/AssignmentBlockImpl$rst_nd/GPortImpl$cntIN" transform="translate(0, 40)" class="sprotty-hidden hidden" style="display:block;height:0px;width:0px;"/><g id="sprotty_ArchitectureBlockImpl$rstmgr_por/AssignmentBlockImpl$rst_nd/GPortImpl$cnt_enIN" transform="translate(0, 30)" class="sprotty-hidden hidden" style="display:block;height:0px;width:0px;"/><g id="sprotty_ArchitectureBlockImpl$rstmgr_por/AssignmentBlockImpl$rst_nd/GPortImpl$rst_stableIN" transform="translate(0, 20)" class="sprotty-hidden hidden" style="display:block;height:0px;width:0px;"/><g id="sprotty_ArchitectureBlockImpl$rstmgr_por/AssignmentBlockImpl$rst_nd/GPortImpl$rst_nqOUT" transform="translate(19.71875, 25)" class="sprotty-hidden hidden" style="display:block;height:0px;width:0px;"/></g><g id="sprotty_ArchitectureBlockImpl$rstmgr_por/AssignmentBlockImpl$cnt_en" transform="translate(661.515625, 75)" class="statement"><rect x="0" y="0" rx="10" ry="5" width="19.71875" height="30" class="sprotty-node" style="fill:rgb(245, 245, 245);stroke:rgb(112, 112, 112);"/><text class="clickable sprotty-label statementtype" id="sprotty_ArchitectureBlockImpl$rstmgr_por/AssignmentBlockImpl$cnt_en/labeltype" transform="translate(5, 9) translate(4.71875, 9)" style="cursor:default;font-size:8px;font-weight:700;perspective-origin:0.140625px 0px;fill:rgb(112, 112, 112);text-anchor:middle;">&lt;=</text><g id="sprotty_ArchitectureBlockImpl$rstmgr_por/AssignmentBlockImpl$cnt_en/GPortImpl$rst_noIN" transform="translate(0, 10)" class="sprotty-hidden hidden" style="display:block;height:0px;width:0px;"/><g id="sprotty_ArchitectureBlockImpl$rstmgr_por/AssignmentBlockImpl$cnt_en/GPortImpl$rst_stableIN" transform="translate(0, 20)" class="sprotty-hidden hidden" style="display:block;height:0px;width:0px;"/><g id="sprotty_ArchitectureBlockImpl$rstmgr_por/AssignmentBlockImpl$cnt_en/GPortImpl$rst_noOUT" transform="translate(19.71875, 15)" class="sprotty-hidden hidden" style="display:block;height:0px;width:0px;"/></g><g id="sprotty_ArchitectureBlockImpl$rstmgr_por/AssignmentBlockImpl$rst_stable" transform="translate(426.796875, 84)" class="statement"><rect x="0" y="0" rx="10" ry="5" width="19.71875" height="22" class="sprotty-node" style="fill:rgb(245, 245, 245);stroke:rgb(112, 112, 112);"/><text class="clickable sprotty-label statementtype" id="sprotty_ArchitectureBlockImpl$rstmgr_por/AssignmentBlockImpl$rst_stable/labeltype" transform="translate(5, 5) translate(4.71875, 9)" style="cursor:default;font-size:8px;font-weight:700;perspective-origin:0.140625px 0px;fill:rgb(112, 112, 112);text-anchor:middle;">&lt;=</text><g id="sprotty_ArchitectureBlockImpl$rstmgr_por/AssignmentBlockImpl$rst_stable/GPortImpl$rst_filter_nIN" transform="translate(0, 11)" class="sprotty-hidden hidden" style="display:block;height:0px;width:0px;"/><g id="sprotty_ArchitectureBlockImpl$rstmgr_por/AssignmentBlockImpl$rst_stable/GPortImpl$rst_filter_nOUT" transform="translate(19.71875, 11)" class="sprotty-hidden hidden" style="display:block;height:0px;width:0px;"/></g><g id="sprotty_ArchitectureBlockImpl$rstmgr_por/InstantiationBlockImpl$u_rst_flop" transform="translate(932.34375, 207)" class="instantiation"><g class="sprotty-block" style="fill:rgb(255, 255, 255);stroke:rgb(48, 48, 48);stroke-dasharray:0px;"><rect x="0" y="0" rx="1" ry="1" width="179.1875" height="112"/><text x="89.59375" y="12" class="sprotty-block-name" style="cursor:pointer;font-weight:700;perspective-origin:89.5938px 0px;fill:rgb(48, 48, 48);stroke:rgba(0, 0, 0, 0);dominant-baseline:middle;text-anchor:middle;">u_rst_flop : prim_flop</text><line x1="0" y1="20" x2="179.1875" y2="20"/></g><g id="sprotty_ArchitectureBlockImpl$rstmgr_por/InstantiationBlockImpl$u_rst_flop/BPortImpl$d_i" transform="translate(0, 94)" class="triangle"><path d="M 0,0 L 5,2.5 L 0,5 Z" transform="translate(-1.67, -2.5)" class="sprotty-port" style="fill:rgb(48, 48, 48);stroke:rgb(48, 48, 48);"/><text class="clickable sprotty-label port" id="sprotty_ArchitectureBlockImpl$rstmgr_por/InstantiationBlockImpl$u_rst_flop/BPortImpl$d_i/label" transform="translate(6, -9) translate(8.734375, 14)" style="cursor:default;font-size:12px;perspective-origin:0px 0px;fill:rgb(48, 48, 48);text-anchor:middle;">d_i</text></g><g id="sprotty_ArchitectureBlockImpl$rstmgr_por/InstantiationBlockImpl$u_rst_flop/BPortImpl$rst_ni" transform="translate(0, 66)" class="triangle"><path d="M 0,0 L 5,2.5 L 0,5 Z" transform="translate(-1.67, -2.5)" class="sprotty-port" style="fill:rgb(48, 48, 48);stroke:rgb(48, 48, 48);"/><text class="clickable sprotty-label port" id="sprotty_ArchitectureBlockImpl$rstmgr_por/InstantiationBlockImpl$u_rst_flop/BPortImpl$rst_ni/label" transform="translate(6, -9) translate(15.921875, 14)" style="cursor:default;font-size:12px;perspective-origin:0px 0px;fill:rgb(48, 48, 48);text-anchor:middle;">rst_ni</text></g><g id="sprotty_ArchitectureBlockImpl$rstmgr_por/InstantiationBlockImpl$u_rst_flop/BPortImpl$clk_i" transform="translate(0, 38)" class="triangle"><path d="M 0,0 L 5,2.5 L 0,5 Z" transform="translate(-1.67, -2.5)" class="sprotty-port" style="fill:rgb(48, 48, 48);stroke:rgb(48, 48, 48);"/><text class="clickable sprotty-label port" id="sprotty_ArchitectureBlockImpl$rstmgr_por/InstantiationBlockImpl$u_rst_flop/BPortImpl$clk_i/label" transform="translate(6, -9) translate(13.09375, 14)" style="cursor:default;font-size:12px;perspective-origin:0px 0px;fill:rgb(48, 48, 48);text-anchor:middle;">clk_i</text></g><g id="sprotty_ArchitectureBlockImpl$rstmgr_por/InstantiationBlockImpl$u_rst_flop/BPortImpl$q_o" transform="translate(179.1875, 66)" class="triangle"><path d="M 0,0 L 5,2.5 L 0,5 Z" transform="translate(-1.67, -2.5)" class="sprotty-port" style="fill:rgb(48, 48, 48);stroke:rgb(48, 48, 48);"/><text class="clickable sprotty-label port" id="sprotty_ArchitectureBlockImpl$rstmgr_por/InstantiationBlockImpl$u_rst_flop/BPortImpl$q_o/label" transform="translate(-27.4375, -9) translate(10.71875, 14)" style="cursor:default;font-size:12px;perspective-origin:0px 0px;fill:rgb(48, 48, 48);text-anchor:middle;">q_o</text></g></g><g id="sprotty_ArchitectureBlockImpl$rstmgr_por/InstantiationBlockImpl$u_rst_clean_mux" transform="translate(476.515625, 207)" class="instantiation"><g class="sprotty-block" style="fill:rgb(255, 255, 255);stroke:rgb(48, 48, 48);stroke-dasharray:0px;"><rect x="0" y="0" rx="1" ry="1" width="297.21875" height="112"/><text x="148.609375" y="12" class="sprotty-block-name" style="cursor:pointer;font-weight:700;perspective-origin:148.609px 0px;fill:rgb(48, 48, 48);stroke:rgba(0, 0, 0, 0);dominant-baseline:middle;text-anchor:middle;">u_rst_clean_mux : prim_clock_mux2</text><line x1="0" y1="20" x2="297.21875" y2="20"/></g><g id="sprotty_ArchitectureBlockImpl$rstmgr_por/InstantiationBlockImpl$u_rst_clean_mux/BPortImpl$sel_i" transform="translate(0, 94)" class="triangle"><path d="M 0,0 L 5,2.5 L 0,5 Z" transform="translate(-1.67, -2.5)" class="sprotty-port" style="fill:rgb(48, 48, 48);stroke:rgb(48, 48, 48);"/><text class="clickable sprotty-label port" id="sprotty_ArchitectureBlockImpl$rstmgr_por/InstantiationBlockImpl$u_rst_clean_mux/BPortImpl$sel_i/label" transform="translate(6, -9) translate(12.859375, 14)" style="cursor:default;font-size:12px;perspective-origin:0px 0px;fill:rgb(48, 48, 48);text-anchor:middle;">sel_i</text></g><g id="sprotty_ArchitectureBlockImpl$rstmgr_por/InstantiationBlockImpl$u_rst_clean_mux/BPortImpl$clk1_i" transform="translate(0, 66)" class="triangle"><path d="M 0,0 L 5,2.5 L 0,5 Z" transform="translate(-1.67, -2.5)" class="sprotty-port" style="fill:rgb(48, 48, 48);stroke:rgb(48, 48, 48);"/><text class="clickable sprotty-label port" id="sprotty_ArchitectureBlockImpl$rstmgr_por/InstantiationBlockImpl$u_rst_clean_mux/BPortImpl$clk1_i/label" transform="translate(6, -9) translate(16.421875, 14)" style="cursor:default;font-size:12px;perspective-origin:0px 0px;fill:rgb(48, 48, 48);text-anchor:middle;">clk1_i</text></g><g id="sprotty_ArchitectureBlockImpl$rstmgr_por/InstantiationBlockImpl$u_rst_clean_mux/BPortImpl$clk0_i" transform="translate(0, 38)" class="triangle"><path d="M 0,0 L 5,2.5 L 0,5 Z" transform="translate(-1.67, -2.5)" class="sprotty-port" style="fill:rgb(48, 48, 48);stroke:rgb(48, 48, 48);"/><text class="clickable sprotty-label port" id="sprotty_ArchitectureBlockImpl$rstmgr_por/InstantiationBlockImpl$u_rst_clean_mux/BPortImpl$clk0_i/label" transform="translate(6, -9) translate(16.421875, 14)" style="cursor:default;font-size:12px;perspective-origin:0px 0px;fill:rgb(48, 48, 48);text-anchor:middle;">clk0_i</text></g><g id="sprotty_ArchitectureBlockImpl$rstmgr_por/InstantiationBlockImpl$u_rst_clean_mux/BPortImpl$clk_o" transform="translate(297.21875, 66)" class="triangle"><path d="M 0,0 L 5,2.5 L 0,5 Z" transform="translate(-1.67, -2.5)" class="sprotty-port" style="fill:rgb(48, 48, 48);stroke:rgb(48, 48, 48);"/><text class="clickable sprotty-label port" id="sprotty_ArchitectureBlockImpl$rstmgr_por/InstantiationBlockImpl$u_rst_clean_mux/BPortImpl$clk_o/label" transform="translate(-36.15625, -9) translate(15.078125, 14)" style="cursor:default;font-size:12px;perspective-origin:0px 0px;fill:rgb(48, 48, 48);text-anchor:middle;">clk_o</text></g></g><g id="sprotty_ArchitectureBlockImpl$rstmgr_por/InstantiationBlockImpl$rst_sync" transform="translate(109.1875, 144)" class="instantiation"><g class="sprotty-block" style="fill:rgb(255, 255, 255);stroke:rgb(48, 48, 48);stroke-dasharray:0px;"><rect x="0" y="0" rx="1" ry="1" width="218.71875" height="112"/><text x="109.359375" y="12" class="sprotty-block-name" style="cursor:pointer;font-weight:700;perspective-origin:109.359px 0px;fill:rgb(48, 48, 48);stroke:rgba(0, 0, 0, 0);dominant-baseline:middle;text-anchor:middle;">rst_sync : prim_flop_2sync</text><line x1="0" y1="20" x2="218.71875" y2="20"/></g><g id="sprotty_ArchitectureBlockImpl$rstmgr_por/InstantiationBlockImpl$rst_sync/BPortImpl$d_i" transform="translate(0, 94)" class="triangle"><path d="M 0,0 L 5,2.5 L 0,5 Z" transform="translate(-1.67, -2.5)" class="sprotty-port" style="fill:rgb(48, 48, 48);stroke:rgb(48, 48, 48);"/><text class="clickable sprotty-label port" id="sprotty_ArchitectureBlockImpl$rstmgr_por/InstantiationBlockImpl$rst_sync/BPortImpl$d_i/label" transform="translate(6, -9) translate(8.734375, 14)" style="cursor:default;font-size:12px;perspective-origin:0px 0px;fill:rgb(48, 48, 48);text-anchor:middle;">d_i</text></g><g id="sprotty_ArchitectureBlockImpl$rstmgr_por/InstantiationBlockImpl$rst_sync/BPortImpl$rst_ni" transform="translate(0, 66)" class="triangle"><path d="M 0,0 L 5,2.5 L 0,5 Z" transform="translate(-1.67, -2.5)" class="sprotty-port" style="fill:rgb(48, 48, 48);stroke:rgb(48, 48, 48);"/><text class="clickable sprotty-label port" id="sprotty_ArchitectureBlockImpl$rstmgr_por/InstantiationBlockImpl$rst_sync/BPortImpl$rst_ni/label" transform="translate(6, -9) translate(15.921875, 14)" style="cursor:default;font-size:12px;perspective-origin:0px 0px;fill:rgb(48, 48, 48);text-anchor:middle;">rst_ni</text></g><g id="sprotty_ArchitectureBlockImpl$rstmgr_por/InstantiationBlockImpl$rst_sync/BPortImpl$clk_i" transform="translate(0, 38)" class="triangle"><path d="M 0,0 L 5,2.5 L 0,5 Z" transform="translate(-1.67, -2.5)" class="sprotty-port" style="fill:rgb(48, 48, 48);stroke:rgb(48, 48, 48);"/><text class="clickable sprotty-label port" id="sprotty_ArchitectureBlockImpl$rstmgr_por/InstantiationBlockImpl$rst_sync/BPortImpl$clk_i/label" transform="translate(6, -9) translate(13.09375, 14)" style="cursor:default;font-size:12px;perspective-origin:0px 0px;fill:rgb(48, 48, 48);text-anchor:middle;">clk_i</text></g><g id="sprotty_ArchitectureBlockImpl$rstmgr_por/InstantiationBlockImpl$rst_sync/BPortImpl$q_o" transform="translate(218.71875, 66)" class="triangle"><path d="M 0,0 L 5,2.5 L 0,5 Z" transform="translate(-1.67, -2.5)" class="sprotty-port" style="fill:rgb(48, 48, 48);stroke:rgb(48, 48, 48);"/><text class="clickable sprotty-label port" id="sprotty_ArchitectureBlockImpl$rstmgr_por/InstantiationBlockImpl$rst_sync/BPortImpl$q_o/label" transform="translate(-27.4375, -9) translate(10.71875, 14)" style="cursor:default;font-size:12px;perspective-origin:0px 0px;fill:rgb(48, 48, 48);text-anchor:middle;">q_o</text></g></g><g id="sprotty_ArchitectureBlockImpl$rstmgr_por/BPortImpl$scanmode_i" transform="translate(0, 301)" class="triangle"><path d="M 0,0 L 5,2.5 L 0,5 Z" transform="translate(-1.67, -2.5)" class="sprotty-port" style="fill:rgb(48, 48, 48);stroke:rgb(48, 48, 48);"/><text class="clickable sprotty-label port" id="sprotty_ArchitectureBlockImpl$rstmgr_por/BPortImpl$scanmode_i/label" transform="translate(6, 6) translate(34.09375, 14)" style="cursor:default;font-size:12px;perspective-origin:0px 0px;fill:rgb(48, 48, 48);text-anchor:middle;">scanmode_i</text></g><g id="sprotty_ArchitectureBlockImpl$rstmgr_por/BPortImpl$scan_rst_ni" transform="translate(0, 267)" class="triangle"><path d="M 0,0 L 5,2.5 L 0,5 Z" transform="translate(-1.67, -2.5)" class="sprotty-port" style="fill:rgb(48, 48, 48);stroke:rgb(48, 48, 48);"/><text class="clickable sprotty-label port" id="sprotty_ArchitectureBlockImpl$rstmgr_por/BPortImpl$scan_rst_ni/label" transform="translate(6, 6) translate(32.125, 14)" style="cursor:default;font-size:12px;perspective-origin:0px 0px;fill:rgb(48, 48, 48);text-anchor:middle;">scan_rst_ni</text></g><g id="sprotty_ArchitectureBlockImpl$rstmgr_por/BPortImpl$rst_ni" transform="translate(0, 210)" class="triangle"><path d="M 0,0 L 5,2.5 L 0,5 Z" transform="translate(-1.67, -2.5)" class="sprotty-port" style="fill:rgb(48, 48, 48);stroke:rgb(48, 48, 48);"/><text class="clickable sprotty-label port" id="sprotty_ArchitectureBlockImpl$rstmgr_por/BPortImpl$rst_ni/label" transform="translate(6, 6) translate(15.921875, 14)" style="cursor:default;font-size:12px;perspective-origin:0px 0px;fill:rgb(48, 48, 48);text-anchor:middle;">rst_ni</text></g><g id="sprotty_ArchitectureBlockImpl$rstmgr_por/BPortImpl$clk_i" transform="translate(0, 132)" class="triangle"><path d="M 0,0 L 5,2.5 L 0,5 Z" transform="translate(-1.67, -2.5)" class="sprotty-port" style="fill:rgb(48, 48, 48);stroke:rgb(48, 48, 48);"/><text class="clickable sprotty-label port" id="sprotty_ArchitectureBlockImpl$rstmgr_por/BPortImpl$clk_i/label" transform="translate(6, 6) translate(13.09375, 14)" style="cursor:default;font-size:12px;perspective-origin:0px 0px;fill:rgb(48, 48, 48);text-anchor:middle;">clk_i</text></g><g id="sprotty_ArchitectureBlockImpl$rstmgr_por/BPortImpl$rst_no" transform="translate(1228.0625, 273)" class="triangle"><path d="M 0,0 L 5,2.5 L 0,5 Z" transform="translate(-1.67, -2.5)" class="sprotty-port" style="fill:rgb(48, 48, 48);stroke:rgb(48, 48, 48);"/><text class="clickable sprotty-label port" id="sprotty_ArchitectureBlockImpl$rstmgr_por/BPortImpl$rst_no/label" transform="translate(-41.8125, 6) translate(17.90625, 14)" style="cursor:default;font-size:12px;perspective-origin:0px 0px;fill:rgb(48, 48, 48);text-anchor:middle;">rst_no</text></g></g></g></svg>