<svg xmlns="http://www.w3.org/2000/svg" id="sprotty_work.rglts_pdm_3p3v" class="sprotty-graph sprotty-block-diagram blockdiagram" style="font-family:&quot;Noto Sans&quot;, Helvetica, Arial, sans-serif;perspective-origin:0px 0px;transform-origin:0px 0px;" version="1.1" viewBox="7 7 446.875 404" width="446.875" height="404"><g transform="scale(1) translate(0,0)"><g id="sprotty_ArchitectureBlockImpl$rglts_pdm_3p3v" transform="translate(12, 12)" class="architecture"><g class="sprotty-block" style="fill:rgb(255, 255, 255);stroke:rgb(48, 48, 48);stroke-dasharray:0px;"><rect x="0" y="0" rx="1" ry="1" width="436.875" height="394"/><text x="218.4375" y="12" class="sprotty-block-name" style="cursor:pointer;font-weight:700;perspective-origin:218.438px 0px;fill:rgb(48, 48, 48);stroke:rgba(0, 0, 0, 0);dominant-baseline:middle;text-anchor:middle;">rglts_pdm_3p3v</text><line x1="0" y1="20" x2="436.875" y2="20"/></g><g id="sprotty_ArchitectureBlockImpl$rglts_pdm_3p3v/InstantiationBlockImpl$u_vcaon_pok/BPortImpl$gen_pok_o_to_ArchitectureBlockImpl$rglts_pdm_3p3v/BPortImpl$vcaon_pok_h_o" class="sprotty-edge edge" style="fill:none;stroke:rgb(112, 112, 112);stroke-linejoin:round;"><g><path d="M 326.28125 355 L 436.875 355 "/><path d="M 326.28125 355 L 436.875 355 " class="clickable"/></g></g><g id="sprotty_ArchitectureBlockImpl$rglts_pdm_3p3v/AssignmentBlockImpl$main_pwr_dly_o/GPortImpl$main_pwr_dly_oOUT_to_ArchitectureBlockImpl$rglts_pdm_3p3v/BPortImpl$main_pwr_dly_o" class="sprotty-edge edge" style="fill:none;stroke:rgb(112, 112, 112);stroke-linejoin:round;"><g><path d="M 222.484375 177 L 436.875 177 "/><path d="M 222.484375 177 L 436.875 177 " class="clickable"/></g></g><g id="sprotty_ArchitectureBlockImpl$rglts_pdm_3p3v/AssignmentBlockImpl$flash_power_down_h_o/GPortImpl$flash_power_down_h_oOUT_to_ArchitectureBlockImpl$rglts_pdm_3p3v/BPortImpl$flash_power_down_h_o" class="sprotty-edge edge" style="fill:none;stroke:rgb(112, 112, 112);stroke-linejoin:round;"><g><path d="M 163.31770833333334 268 L 436.875 268 "/><path d="M 163.31770833333334 268 L 436.875 268 " class="clickable"/></g></g><g id="sprotty_ArchitectureBlockImpl$rglts_pdm_3p3v/AssignmentBlockImpl$flash_power_ready_h_o/GPortImpl$flash_power_ready_h_oOUT_to_ArchitectureBlockImpl$rglts_pdm_3p3v/BPortImpl$flash_power_ready_h_o" class="sprotty-edge edge" style="fill:none;stroke:rgb(112, 112, 112);stroke-linejoin:round;"><g><path d="M 168.1796875 130 L 436.875 130 "/><path d="M 168.1796875 130 L 436.875 130 " class="clickable"/></g></g><g id="sprotty_ArchitectureBlockImpl$rglts_pdm_3p3v/AssignmentBlockImpl$otp_power_seq_h_o1/GPortImpl$otp_power_seq_h_oOUT_to_ArchitectureBlockImpl$rglts_pdm_3p3v/BPortImpl$otp_power_seq_h_o" class="sprotty-edge thick edge" style="fill:none;stroke:rgb(112, 112, 112);stroke-linejoin:round;stroke-width:3px;"><g><path d="M 172.40625 88 L 180.40625 88 C 181.40625 88 182.40625 87 182.40625 86 L 182.40625 48 C 182.40625 47 183.40625 46 184.40625 46 L 436.875 46 "/><path d="M 172.40625 88 L 180.40625 88 C 181.40625 88 182.40625 87 182.40625 86 L 182.40625 48 C 182.40625 47 183.40625 46 184.40625 46 L 436.875 46 " class="clickable"/></g><circle r="3" id="sprotty_ArchitectureBlockImpl$rglts_pdm_3p3v/AssignmentBlockImpl$otp_power_seq_h_o1/GPortImpl$otp_power_seq_h_oOUT_to_ArchitectureBlockImpl$rglts_pdm_3p3v/BPortImpl$otp_power_seq_h_o/junction0" transform="translate(182.40625, 46)" class="sprotty-junction thick" style="fill:rgb(112, 112, 112);stroke:none;"/></g><g id="sprotty_ArchitectureBlockImpl$rglts_pdm_3p3v/AssignmentBlockImpl$otp_power_seq_h_o/GPortImpl$otp_power_seq_h_oOUT_to_ArchitectureBlockImpl$rglts_pdm_3p3v/BPortImpl$otp_power_seq_h_o" class="sprotty-edge thick edge" style="fill:none;stroke:rgb(112, 112, 112);stroke-linejoin:round;stroke-width:3px;"><g><path d="M 172.40625 46 L 436.875 46 "/><path d="M 172.40625 46 L 436.875 46 " class="clickable"/></g></g><g id="sprotty_ArchitectureBlockImpl$rglts_pdm_3p3v/BPortImpl$main_pd_h_ni_to_ArchitectureBlockImpl$rglts_pdm_3p3v/AssignmentBlockImpl$flash_power_down_h_o/GPortImpl$main_pd_h_niIN" class="sprotty-edge edge" style="fill:none;stroke:rgb(112, 112, 112);stroke-linejoin:round;"><g><path d="M 0 223 L 121.875 223 C 122.875 223 123.875 224 123.875 225 L 123.875 261 C 123.875 262 124.875 263 125.875 263 L 143.59895833333334 263 "/><path d="M 0 223 L 121.875 223 C 122.875 223 123.875 224 123.875 225 L 123.875 261 C 123.875 262 124.875 263 125.875 263 L 143.59895833333334 263 " class="clickable"/></g><circle r="2" id="sprotty_ArchitectureBlockImpl$rglts_pdm_3p3v/BPortImpl$main_pd_h_ni_to_ArchitectureBlockImpl$rglts_pdm_3p3v/AssignmentBlockImpl$flash_power_down_h_o/GPortImpl$main_pd_h_niIN/junction0" transform="translate(123.875, 223)" class="sprotty-junction junction" style="fill:rgb(112, 112, 112);stroke:none;"/></g><g id="sprotty_ArchitectureBlockImpl$rglts_pdm_3p3v/BPortImpl$vcmain_pok_h_i_to_ArchitectureBlockImpl$rglts_pdm_3p3v/AssignmentBlockImpl$flash_power_down_h_o/GPortImpl$vcmain_pok_h_iIN" class="sprotty-edge edge" style="fill:none;stroke:rgb(112, 112, 112);stroke-linejoin:round;"><g><path d="M 0 273 L 143.59895833333334 273 "/><path d="M 0 273 L 143.59895833333334 273 " class="clickable"/></g></g><g id="sprotty_ArchitectureBlockImpl$rglts_pdm_3p3v/BPortImpl$vcc_pok_h_i_to_ArchitectureBlockImpl$rglts_pdm_3p3v/AssignmentBlockImpl$flash_power_ready_h_o/GPortImpl$vcc_pok_h_iIN" class="sprotty-edge edge" style="fill:none;stroke:rgb(112, 112, 112);stroke-linejoin:round;"><g><path d="M 0 130 L 148.4609375 130 "/><path d="M 0 130 L 148.4609375 130 " class="clickable"/></g></g><g id="sprotty_ArchitectureBlockImpl$rglts_pdm_3p3v/BPortImpl$otp_power_seq_h_i_to_ArchitectureBlockImpl$rglts_pdm_3p3v/AssignmentBlockImpl$otp_power_seq_h_o1/GPortImpl$otp_power_seq_h_iIN" class="sprotty-edge thick edge" style="fill:none;stroke:rgb(112, 112, 112);stroke-linejoin:round;stroke-width:3px;"><g><path d="M 0 46 L 140.6875 46 C 141.6875 46 142.6875 47 142.6875 48 L 142.6875 86 C 142.6875 87 143.6875 88 144.6875 88 L 152.6875 88 "/><path d="M 0 46 L 140.6875 46 C 141.6875 46 142.6875 47 142.6875 48 L 142.6875 86 C 142.6875 87 143.6875 88 144.6875 88 L 152.6875 88 " class="clickable"/></g><circle r="3" id="sprotty_ArchitectureBlockImpl$rglts_pdm_3p3v/BPortImpl$otp_power_seq_h_i_to_ArchitectureBlockImpl$rglts_pdm_3p3v/AssignmentBlockImpl$otp_power_seq_h_o1/GPortImpl$otp_power_seq_h_iIN/junction0" transform="translate(142.6875, 46)" class="sprotty-junction thick" style="fill:rgb(112, 112, 112);stroke:none;"/></g><g id="sprotty_ArchitectureBlockImpl$rglts_pdm_3p3v/BPortImpl$otp_power_seq_h_i_to_ArchitectureBlockImpl$rglts_pdm_3p3v/AssignmentBlockImpl$otp_power_seq_h_o/GPortImpl$otp_power_seq_h_iIN" class="sprotty-edge thick edge" style="fill:none;stroke:rgb(112, 112, 112);stroke-linejoin:round;stroke-width:3px;"><g><path d="M 0 46 L 152.6875 46 "/><path d="M 0 46 L 152.6875 46 " class="clickable"/></g></g><g id="sprotty_ArchitectureBlockImpl$rglts_pdm_3p3v/BPortImpl$vcc_pok_h_i_to_ArchitectureBlockImpl$rglts_pdm_3p3v/AlwaysBlockImpl$null11/GPortImpl$vcc_pok_h_iIN" class="sprotty-edge edge" style="fill:none;stroke:rgb(112, 112, 112);stroke-linejoin:round;"><g><path d="M 0 130 L 121.875 130 C 122.875 130 123.875 131 123.875 132 L 123.875 170 C 123.875 171 124.875 172 125.875 172 L 133.875 172 "/><path d="M 0 130 L 121.875 130 C 122.875 130 123.875 131 123.875 132 L 123.875 170 C 123.875 171 124.875 172 125.875 172 L 133.875 172 " class="clickable"/></g><circle r="2" id="sprotty_ArchitectureBlockImpl$rglts_pdm_3p3v/BPortImpl$vcc_pok_h_i_to_ArchitectureBlockImpl$rglts_pdm_3p3v/AlwaysBlockImpl$null11/GPortImpl$vcc_pok_h_iIN/junction0" transform="translate(123.875, 130)" class="sprotty-junction junction" style="fill:rgb(112, 112, 112);stroke:none;"/><circle r="2" id="sprotty_ArchitectureBlockImpl$rglts_pdm_3p3v/BPortImpl$vcc_pok_h_i_to_ArchitectureBlockImpl$rglts_pdm_3p3v/AlwaysBlockImpl$null11/GPortImpl$vcc_pok_h_iIN/junction1" transform="translate(123.875, 172)" class="sprotty-junction junction" style="fill:rgb(112, 112, 112);stroke:none;"/></g><g id="sprotty_ArchitectureBlockImpl$rglts_pdm_3p3v/BPortImpl$main_pd_h_ni_to_ArchitectureBlockImpl$rglts_pdm_3p3v/AlwaysBlockImpl$null10/GPortImpl$main_pd_h_niIN" class="sprotty-edge edge" style="fill:none;stroke:rgb(112, 112, 112);stroke-linejoin:round;"><g><path d="M 0 223 L 133.875 223 "/><path d="M 0 223 L 133.875 223 " class="clickable"/></g></g><g id="sprotty_ArchitectureBlockImpl$rglts_pdm_3p3v/BPortImpl$vcc_pok_h_i_to_ArchitectureBlockImpl$rglts_pdm_3p3v/AlwaysBlockImpl$null10/GPortImpl$vcc_pok_h_iIN" class="sprotty-edge edge" style="fill:none;stroke:rgb(112, 112, 112);stroke-linejoin:round;"><g><path d="M 0 130 L 121.875 130 C 122.875 130 123.875 131 123.875 132 L 123.875 211 C 123.875 212 124.875 213 125.875 213 L 133.875 213 "/><path d="M 0 130 L 121.875 130 C 122.875 130 123.875 131 123.875 132 L 123.875 211 C 123.875 212 124.875 213 125.875 213 L 133.875 213 " class="clickable"/></g></g><g id="sprotty_ArchitectureBlockImpl$rglts_pdm_3p3v/AlwaysBlockImpl$null11/GPortImpl$mr_vcc_dlyOUT_to_ArchitectureBlockImpl$rglts_pdm_3p3v/AssignmentBlockImpl$main_pwr_dly_o/GPortImpl$mr_vcc_dlyIN" class="sprotty-edge edge" style="fill:none;stroke:rgb(112, 112, 112);stroke-linejoin:round;"><g><path d="M 182.765625 172 L 202.765625 172 "/><path d="M 182.765625 172 L 202.765625 172 " class="clickable"/></g></g><g id="sprotty_ArchitectureBlockImpl$rglts_pdm_3p3v/AlwaysBlockImpl$null10/GPortImpl$mr_pd_dlyOUT_to_ArchitectureBlockImpl$rglts_pdm_3p3v/AssignmentBlockImpl$main_pwr_dly_o/GPortImpl$mr_pd_dlyIN" class="sprotty-edge edge" style="fill:none;stroke:rgb(112, 112, 112);stroke-linejoin:round;"><g><path d="M 182.765625 218 L 190.765625 218 C 191.765625 218 192.765625 217 192.765625 216 L 192.765625 184 C 192.765625 183 193.765625 182 194.765625 182 L 202.765625 182 "/><path d="M 182.765625 218 L 190.765625 218 C 191.765625 218 192.765625 217 192.765625 216 L 192.765625 184 C 192.765625 183 193.765625 182 194.765625 182 L 202.765625 182 " class="clickable"/></g></g><g id="sprotty_ArchitectureBlockImpl$rglts_pdm_3p3v/AlwaysBlockImpl$null10" transform="translate(133.875, 203)" class="statement"><rect x="0" y="0" rx="10" ry="5" width="48.890625" height="30" class="sprotty-node" style="fill:rgb(245, 245, 245);stroke:rgb(112, 112, 112);"/><text class="clickable sprotty-label statementtype" id="sprotty_ArchitectureBlockImpl$rglts_pdm_3p3v/AlwaysBlockImpl$null10/labeltype" transform="translate(5, 9) translate(18.828125, 9)" style="cursor:default;font-size:8px;font-weight:700;perspective-origin:0.609375px 0px;fill:rgb(112, 112, 112);text-anchor:middle;">always_ff</text><g id="sprotty_ArchitectureBlockImpl$rglts_pdm_3p3v/AlwaysBlockImpl$null10/GPortImpl$vcc_pok_h_iIN" transform="translate(0, 10)" class="sprotty-hidden hidden" style="display:block;height:0px;width:0px;"/><g id="sprotty_ArchitectureBlockImpl$rglts_pdm_3p3v/AlwaysBlockImpl$null10/GPortImpl$main_pd_h_niIN" transform="translate(0, 20)" class="sprotty-hidden hidden" style="display:block;height:0px;width:0px;"/><g id="sprotty_ArchitectureBlockImpl$rglts_pdm_3p3v/AlwaysBlockImpl$null10/GPortImpl$mr_pd_dlyOUT" transform="translate(48.890625, 15)" class="sprotty-hidden hidden" style="display:block;height:0px;width:0px;"/></g><g id="sprotty_ArchitectureBlockImpl$rglts_pdm_3p3v/AlwaysBlockImpl$null11" transform="translate(133.875, 161)" class="statement"><rect x="0" y="0" rx="10" ry="5" width="48.890625" height="22" class="sprotty-node" style="fill:rgb(245, 245, 245);stroke:rgb(112, 112, 112);"/><text class="clickable sprotty-label statementtype" id="sprotty_ArchitectureBlockImpl$rglts_pdm_3p3v/AlwaysBlockImpl$null11/labeltype" transform="translate(5, 5) translate(18.828125, 9)" style="cursor:default;font-size:8px;font-weight:700;perspective-origin:0.609375px 0px;fill:rgb(112, 112, 112);text-anchor:middle;">always_ff</text><g id="sprotty_ArchitectureBlockImpl$rglts_pdm_3p3v/AlwaysBlockImpl$null11/GPortImpl$vcc_pok_h_iIN" transform="translate(0, 11)" class="sprotty-hidden hidden" style="display:block;height:0px;width:0px;"/><g id="sprotty_ArchitectureBlockImpl$rglts_pdm_3p3v/AlwaysBlockImpl$null11/GPortImpl$mr_vcc_dlyOUT" transform="translate(48.890625, 11)" class="sprotty-hidden hidden" style="display:block;height:0px;width:0px;"/></g><g id="sprotty_ArchitectureBlockImpl$rglts_pdm_3p3v/AssignmentBlockImpl$otp_power_seq_h_o" transform="translate(152.6875, 35)" class="statement"><rect x="0" y="0" rx="10" ry="5" width="19.71875" height="22" class="sprotty-node" style="fill:rgb(245, 245, 245);stroke:rgb(112, 112, 112);"/><text class="clickable sprotty-label statementtype" id="sprotty_ArchitectureBlockImpl$rglts_pdm_3p3v/AssignmentBlockImpl$otp_power_seq_h_o/labeltype" transform="translate(5, 5) translate(4.71875, 9)" style="cursor:default;font-size:8px;font-weight:700;perspective-origin:0.140625px 0px;fill:rgb(112, 112, 112);text-anchor:middle;">&lt;=</text><g id="sprotty_ArchitectureBlockImpl$rglts_pdm_3p3v/AssignmentBlockImpl$otp_power_seq_h_o/GPortImpl$otp_power_seq_h_iIN" transform="translate(0, 11)" class="sprotty-hidden hidden" style="display:block;height:0px;width:0px;"/><g id="sprotty_ArchitectureBlockImpl$rglts_pdm_3p3v/AssignmentBlockImpl$otp_power_seq_h_o/GPortImpl$otp_power_seq_h_oOUT" transform="translate(19.71875, 11)" class="sprotty-hidden hidden" style="display:block;height:0px;width:0px;"/></g><g id="sprotty_ArchitectureBlockImpl$rglts_pdm_3p3v/AssignmentBlockImpl$otp_power_seq_h_o1" transform="translate(152.6875, 77)" class="statement"><rect x="0" y="0" rx="10" ry="5" width="19.71875" height="22" class="sprotty-node" style="fill:rgb(245, 245, 245);stroke:rgb(112, 112, 112);"/><text class="clickable sprotty-label statementtype" id="sprotty_ArchitectureBlockImpl$rglts_pdm_3p3v/AssignmentBlockImpl$otp_power_seq_h_o1/labeltype" transform="translate(5, 5) translate(4.71875, 9)" style="cursor:default;font-size:8px;font-weight:700;perspective-origin:0.140625px 0px;fill:rgb(112, 112, 112);text-anchor:middle;">&lt;=</text><g id="sprotty_ArchitectureBlockImpl$rglts_pdm_3p3v/AssignmentBlockImpl$otp_power_seq_h_o1/GPortImpl$otp_power_seq_h_iIN" transform="translate(0, 11)" class="sprotty-hidden hidden" style="display:block;height:0px;width:0px;"/><g id="sprotty_ArchitectureBlockImpl$rglts_pdm_3p3v/AssignmentBlockImpl$otp_power_seq_h_o1/GPortImpl$otp_power_seq_h_oOUT" transform="translate(19.71875, 11)" class="sprotty-hidden hidden" style="display:block;height:0px;width:0px;"/></g><g id="sprotty_ArchitectureBlockImpl$rglts_pdm_3p3v/AssignmentBlockImpl$flash_power_ready_h_o" transform="translate(148.4609375, 119)" class="statement"><rect x="0" y="0" rx="10" ry="5" width="19.71875" height="22" class="sprotty-node" style="fill:rgb(245, 245, 245);stroke:rgb(112, 112, 112);"/><text class="clickable sprotty-label statementtype" id="sprotty_ArchitectureBlockImpl$rglts_pdm_3p3v/AssignmentBlockImpl$flash_power_ready_h_o/labeltype" transform="translate(5, 5) translate(4.71875, 9)" style="cursor:default;font-size:8px;font-weight:700;perspective-origin:0.140625px 0px;fill:rgb(112, 112, 112);text-anchor:middle;">&lt;=</text><g id="sprotty_ArchitectureBlockImpl$rglts_pdm_3p3v/AssignmentBlockImpl$flash_power_ready_h_o/GPortImpl$vcc_pok_h_iIN" transform="translate(0, 11)" class="sprotty-hidden hidden" style="display:block;height:0px;width:0px;"/><g id="sprotty_ArchitectureBlockImpl$rglts_pdm_3p3v/AssignmentBlockImpl$flash_power_ready_h_o/GPortImpl$flash_power_ready_h_oOUT" transform="translate(19.71875, 11)" class="sprotty-hidden hidden" style="display:block;height:0px;width:0px;"/></g><g id="sprotty_ArchitectureBlockImpl$rglts_pdm_3p3v/AssignmentBlockImpl$flash_power_down_h_o" transform="translate(143.59895833333334, 253)" class="statement"><rect x="0" y="0" rx="10" ry="5" width="19.71875" height="30" class="sprotty-node" style="fill:rgb(245, 245, 245);stroke:rgb(112, 112, 112);"/><text class="clickable sprotty-label statementtype" id="sprotty_ArchitectureBlockImpl$rglts_pdm_3p3v/AssignmentBlockImpl$flash_power_down_h_o/labeltype" transform="translate(5, 9) translate(4.71875, 9)" style="cursor:default;font-size:8px;font-weight:700;perspective-origin:0.140625px 0px;fill:rgb(112, 112, 112);text-anchor:middle;">&lt;=</text><g id="sprotty_ArchitectureBlockImpl$rglts_pdm_3p3v/AssignmentBlockImpl$flash_power_down_h_o/GPortImpl$vcmain_pok_h_iIN" transform="translate(0, 20)" class="sprotty-hidden hidden" style="display:block;height:0px;width:0px;"/><g id="sprotty_ArchitectureBlockImpl$rglts_pdm_3p3v/AssignmentBlockImpl$flash_power_down_h_o/GPortImpl$main_pd_h_niIN" transform="translate(0, 10)" class="sprotty-hidden hidden" style="display:block;height:0px;width:0px;"/><g id="sprotty_ArchitectureBlockImpl$rglts_pdm_3p3v/AssignmentBlockImpl$flash_power_down_h_o/GPortImpl$flash_power_down_h_oOUT" transform="translate(19.71875, 15)" class="sprotty-hidden hidden" style="display:block;height:0px;width:0px;"/></g><g id="sprotty_ArchitectureBlockImpl$rglts_pdm_3p3v/AssignmentBlockImpl$main_pwr_dly_o" transform="translate(202.765625, 162)" class="statement"><rect x="0" y="0" rx="10" ry="5" width="19.71875" height="30" class="sprotty-node" style="fill:rgb(245, 245, 245);stroke:rgb(112, 112, 112);"/><text class="clickable sprotty-label statementtype" id="sprotty_ArchitectureBlockImpl$rglts_pdm_3p3v/AssignmentBlockImpl$main_pwr_dly_o/labeltype" transform="translate(5, 9) translate(4.71875, 9)" style="cursor:default;font-size:8px;font-weight:700;perspective-origin:0.140625px 0px;fill:rgb(112, 112, 112);text-anchor:middle;">&lt;=</text><g id="sprotty_ArchitectureBlockImpl$rglts_pdm_3p3v/AssignmentBlockImpl$main_pwr_dly_o/GPortImpl$mr_pd_dlyIN" transform="translate(0, 20)" class="sprotty-hidden hidden" style="display:block;height:0px;width:0px;"/><g id="sprotty_ArchitectureBlockImpl$rglts_pdm_3p3v/AssignmentBlockImpl$main_pwr_dly_o/GPortImpl$mr_vcc_dlyIN" transform="translate(0, 10)" class="sprotty-hidden hidden" style="display:block;height:0px;width:0px;"/><g id="sprotty_ArchitectureBlockImpl$rglts_pdm_3p3v/AssignmentBlockImpl$main_pwr_dly_o/GPortImpl$main_pwr_dly_oOUT" transform="translate(19.71875, 15)" class="sprotty-hidden hidden" style="display:block;height:0px;width:0px;"/></g><g id="sprotty_ArchitectureBlockImpl$rglts_pdm_3p3v/InstantiationBlockImpl$u_vcaon_pok" transform="translate(132.21875, 317)" class="instantiation"><g class="sprotty-block" style="fill:rgb(255, 255, 255);stroke:rgb(48, 48, 48);stroke-dasharray:0px;"><rect x="0" y="0" rx="1" ry="1" width="194.0625" height="56"/><text x="97.03125" y="12" class="sprotty-block-name" style="cursor:pointer;font-weight:700;perspective-origin:97.1875px 0px;fill:rgb(48, 48, 48);stroke:rgba(0, 0, 0, 0);dominant-baseline:middle;text-anchor:middle;">u_vcaon_pok : gen_pok</text><line x1="0" y1="20" x2="194.0625" y2="20"/></g><g id="sprotty_ArchitectureBlockImpl$rglts_pdm_3p3v/InstantiationBlockImpl$u_vcaon_pok/BPortImpl$gen_pok_o" transform="translate(194.0625, 38)" class="triangle"><path d="M 0,0 L 5,2.5 L 0,5 Z" transform="translate(-1.67, -2.5)" class="sprotty-port" style="fill:rgb(48, 48, 48);stroke:rgb(48, 48, 48);"/><text class="clickable sprotty-label port" id="sprotty_ArchitectureBlockImpl$rglts_pdm_3p3v/InstantiationBlockImpl$u_vcaon_pok/BPortImpl$gen_pok_o/label" transform="translate(-68.59375, -9) translate(31.296875, 14)" style="cursor:default;font-size:12px;perspective-origin:0px 0px;fill:rgb(48, 48, 48);text-anchor:middle;">gen_pok_o</text></g></g><g id="sprotty_ArchitectureBlockImpl$rglts_pdm_3p3v/BPortImpl$otp_power_seq_h_i" transform="translate(0, 46)" class="triangle"><path d="M 0,0 L 5,2.5 L 0,5 Z" transform="translate(-1.67, -2.5)" class="sprotty-port" style="fill:rgb(48, 48, 48);stroke:rgb(48, 48, 48);"/><text class="clickable sprotty-label port" id="sprotty_ArchitectureBlockImpl$rglts_pdm_3p3v/BPortImpl$otp_power_seq_h_i/label" transform="translate(6, 6) translate(55.84375, 14)" style="cursor:default;font-size:12px;perspective-origin:0px 0px;fill:rgb(48, 48, 48);text-anchor:middle;">otp_power_seq_h_i</text></g><g id="sprotty_ArchitectureBlockImpl$rglts_pdm_3p3v/BPortImpl$main_pd_h_ni" transform="translate(0, 223)" class="triangle"><path d="M 0,0 L 5,2.5 L 0,5 Z" transform="translate(-1.67, -2.5)" class="sprotty-port" style="fill:rgb(48, 48, 48);stroke:rgb(48, 48, 48);"/><text class="clickable sprotty-label port" id="sprotty_ArchitectureBlockImpl$rglts_pdm_3p3v/BPortImpl$main_pd_h_ni/label" transform="translate(6, 6) translate(40.71875, 14)" style="cursor:default;font-size:12px;perspective-origin:0px 0px;fill:rgb(48, 48, 48);text-anchor:middle;">main_pd_h_ni</text></g><g id="sprotty_ArchitectureBlockImpl$rglts_pdm_3p3v/BPortImpl$clk_src_aon_h_i" transform="translate(0, 317)" class="triangle"><path d="M 0,0 L 5,2.5 L 0,5 Z" transform="translate(-1.67, -2.5)" class="sprotty-port" style="fill:rgb(48, 48, 48);stroke:rgb(48, 48, 48);"/><text class="clickable sprotty-label port" id="sprotty_ArchitectureBlockImpl$rglts_pdm_3p3v/BPortImpl$clk_src_aon_h_i/label" transform="translate(6, 6) translate(45.609375, 14)" style="cursor:default;font-size:12px;perspective-origin:0px 0px;fill:rgb(48, 48, 48);text-anchor:middle;">clk_src_aon_h_i</text></g><g id="sprotty_ArchitectureBlockImpl$rglts_pdm_3p3v/BPortImpl$vcmain_pok_h_i" transform="translate(0, 273)" class="triangle"><path d="M 0,0 L 5,2.5 L 0,5 Z" transform="translate(-1.67, -2.5)" class="sprotty-port" style="fill:rgb(48, 48, 48);stroke:rgb(48, 48, 48);"/><text class="clickable sprotty-label port" id="sprotty_ArchitectureBlockImpl$rglts_pdm_3p3v/BPortImpl$vcmain_pok_h_i/label" transform="translate(6, 6) translate(46.4375, 14)" style="cursor:default;font-size:12px;perspective-origin:0px 0px;fill:rgb(48, 48, 48);text-anchor:middle;">vcmain_pok_h_i</text></g><g id="sprotty_ArchitectureBlockImpl$rglts_pdm_3p3v/BPortImpl$vcc_pok_h_i" transform="translate(0, 130)" class="triangle"><path d="M 0,0 L 5,2.5 L 0,5 Z" transform="translate(-1.67, -2.5)" class="sprotty-port" style="fill:rgb(48, 48, 48);stroke:rgb(48, 48, 48);"/><text class="clickable sprotty-label port" id="sprotty_ArchitectureBlockImpl$rglts_pdm_3p3v/BPortImpl$vcc_pok_h_i/label" transform="translate(6, 6) translate(35.09375, 14)" style="cursor:default;font-size:12px;perspective-origin:0px 0px;fill:rgb(48, 48, 48);text-anchor:middle;">vcc_pok_h_i</text></g><g id="sprotty_ArchitectureBlockImpl$rglts_pdm_3p3v/BPortImpl$vcaon_pok_h_o" transform="translate(436.875, 355)" class="triangle"><path d="M 0,0 L 5,2.5 L 0,5 Z" transform="translate(-1.67, -2.5)" class="sprotty-port" style="fill:rgb(48, 48, 48);stroke:rgb(48, 48, 48);"/><text class="clickable sprotty-label port" id="sprotty_ArchitectureBlockImpl$rglts_pdm_3p3v/BPortImpl$vcaon_pok_h_o/label" transform="translate(-95.59375, 6) translate(44.796875, 14)" style="cursor:default;font-size:12px;perspective-origin:0px 0px;fill:rgb(48, 48, 48);text-anchor:middle;">vcaon_pok_h_o</text></g><g id="sprotty_ArchitectureBlockImpl$rglts_pdm_3p3v/BPortImpl$main_pwr_dly_o" transform="translate(436.875, 177)" class="triangle"><path d="M 0,0 L 5,2.5 L 0,5 Z" transform="translate(-1.67, -2.5)" class="sprotty-port" style="fill:rgb(48, 48, 48);stroke:rgb(48, 48, 48);"/><text class="clickable sprotty-label port" id="sprotty_ArchitectureBlockImpl$rglts_pdm_3p3v/BPortImpl$main_pwr_dly_o/label" transform="translate(-100.71875, 6) translate(47.359375, 14)" style="cursor:default;font-size:12px;perspective-origin:0px 0px;fill:rgb(48, 48, 48);text-anchor:middle;">main_pwr_dly_o</text></g><g id="sprotty_ArchitectureBlockImpl$rglts_pdm_3p3v/BPortImpl$flash_power_down_h_o" transform="translate(436.875, 268)" class="triangle"><path d="M 0,0 L 5,2.5 L 0,5 Z" transform="translate(-1.67, -2.5)" class="sprotty-port" style="fill:rgb(48, 48, 48);stroke:rgb(48, 48, 48);"/><text class="clickable sprotty-label port" id="sprotty_ArchitectureBlockImpl$rglts_pdm_3p3v/BPortImpl$flash_power_down_h_o/label" transform="translate(-141.5625, 6) translate(67.78125, 14)" style="cursor:default;font-size:12px;perspective-origin:0px 0px;fill:rgb(48, 48, 48);text-anchor:middle;">flash_power_down_h_o</text></g><g id="sprotty_ArchitectureBlockImpl$rglts_pdm_3p3v/BPortImpl$flash_power_ready_h_o" transform="translate(436.875, 130)" class="triangle"><path d="M 0,0 L 5,2.5 L 0,5 Z" transform="translate(-1.67, -2.5)" class="sprotty-port" style="fill:rgb(48, 48, 48);stroke:rgb(48, 48, 48);"/><text class="clickable sprotty-label port" id="sprotty_ArchitectureBlockImpl$rglts_pdm_3p3v/BPortImpl$flash_power_ready_h_o/label" transform="translate(-141.375, 6) translate(67.6875, 14)" style="cursor:default;font-size:12px;perspective-origin:0px 0px;fill:rgb(48, 48, 48);text-anchor:middle;">flash_power_ready_h_o</text></g><g id="sprotty_ArchitectureBlockImpl$rglts_pdm_3p3v/BPortImpl$otp_power_seq_h_o" transform="translate(436.875, 46)" class="triangle"><path d="M 0,0 L 5,2.5 L 0,5 Z" transform="translate(-1.67, -2.5)" class="sprotty-port" style="fill:rgb(48, 48, 48);stroke:rgb(48, 48, 48);"/><text class="clickable sprotty-label port" id="sprotty_ArchitectureBlockImpl$rglts_pdm_3p3v/BPortImpl$otp_power_seq_h_o/label" transform="translate(-121.65625, 6) translate(57.828125, 14)" style="cursor:default;font-size:12px;perspective-origin:0px 0px;fill:rgb(48, 48, 48);text-anchor:middle;">otp_power_seq_h_o</text></g></g></g></svg>