<svg xmlns="http://www.w3.org/2000/svg" id="sprotty_work.prim_esc_receiver" class="sprotty-graph sprotty-block-diagram blockdiagram" style="font-family:&quot;Noto Sans&quot;, Helvetica, Arial, sans-serif;perspective-origin:0px 0px;transform-origin:0px 0px;" version="1.1" viewBox="7 7 948.953125 292" width="948.953125" height="292"><g transform="scale(1) translate(0,0)"><g id="sprotty_ArchitectureBlockImpl$prim_esc_receiver" transform="translate(12, 12)" class="architecture"><g class="sprotty-block" style="fill:rgb(255, 255, 255);stroke:rgb(48, 48, 48);stroke-dasharray:0px;"><rect x="0" y="0" rx="1" ry="1" width="938.953125" height="282"/><text x="469.4765625" y="12" class="sprotty-block-name" style="cursor:pointer;font-weight:700;perspective-origin:469.484px 0px;fill:rgb(48, 48, 48);stroke:rgba(0, 0, 0, 0);dominant-baseline:middle;text-anchor:middle;">prim_esc_receiver</text><line x1="0" y1="20" x2="938.953125" y2="20"/></g><g id="sprotty_ArchitectureBlockImpl$prim_esc_receiver/AlwaysBlockImpl$p_fsm/GPortImpl$esc_en_oOUT_to_ArchitectureBlockImpl$prim_esc_receiver/BPortImpl$esc_en_o" class="sprotty-edge edge" style="fill:none;stroke:rgb(112, 112, 112);stroke-linejoin:round;"><g><path d="M 466 130 L 474 130 C 475 130 476 129 476 128 L 476 38 C 476 37 477 36 478 36 L 938.953125 36 "/><path d="M 466 130 L 474 130 C 475 130 476 129 476 128 L 476 38 C 476 37 477 36 478 36 L 938.953125 36 " class="clickable"/></g></g><g id="sprotty_ArchitectureBlockImpl$prim_esc_receiver/AssignmentBlockImpl$esc_rx_o.resp_p/GPortImpl$esc_rx_oOUT_to_ArchitectureBlockImpl$prim_esc_receiver/BPortImpl$esc_rx_o" class="sprotty-edge thick edge" style="fill:none;stroke:rgb(112, 112, 112);stroke-linejoin:round;stroke-width:3px;"><g><path d="M 844.890625 167 L 852.890625 167 C 853.890625 167 854.890625 166 854.890625 165 L 854.890625 127 C 854.890625 126 855.890625 125 856.890625 125 L 938.953125 125 "/><path d="M 844.890625 167 L 852.890625 167 C 853.890625 167 854.890625 166 854.890625 165 L 854.890625 127 C 854.890625 126 855.890625 125 856.890625 125 L 938.953125 125 " class="clickable"/></g><circle r="3" id="sprotty_ArchitectureBlockImpl$prim_esc_receiver/AssignmentBlockImpl$esc_rx_o.resp_p/GPortImpl$esc_rx_oOUT_to_ArchitectureBlockImpl$prim_esc_receiver/BPortImpl$esc_rx_o/junction0" transform="translate(854.890625, 125)" class="sprotty-junction thick" style="fill:rgb(112, 112, 112);stroke:none;"/></g><g id="sprotty_ArchitectureBlockImpl$prim_esc_receiver/AssignmentBlockImpl$esc_rx_o.resp_n/GPortImpl$esc_rx_oOUT_to_ArchitectureBlockImpl$prim_esc_receiver/BPortImpl$esc_rx_o" class="sprotty-edge thick edge" style="fill:none;stroke:rgb(112, 112, 112);stroke-linejoin:round;stroke-width:3px;"><g><path d="M 844.890625 125 L 938.953125 125 "/><path d="M 844.890625 125 L 938.953125 125 " class="clickable"/></g></g><g id="sprotty_ArchitectureBlockImpl$prim_esc_receiver/BPortImpl$clk_i_to_ArchitectureBlockImpl$prim_esc_receiver/InstantiationBlockImpl$i_decode_esc/BPortImpl$clk_i" class="sprotty-edge edge" style="fill:none;stroke:rgb(112, 112, 112);stroke-linejoin:round;"><g><path d="M 0 46 L 84.375 46 C 85.375 46 86.375 47 86.375 48 L 86.375 128 C 86.375 129 87.375 130 88.375 130 L 96.375 130 "/><path d="M 0 46 L 84.375 46 C 85.375 46 86.375 47 86.375 48 L 86.375 128 C 86.375 129 87.375 130 88.375 130 L 96.375 130 " class="clickable"/></g><circle r="2" id="sprotty_ArchitectureBlockImpl$prim_esc_receiver/BPortImpl$clk_i_to_ArchitectureBlockImpl$prim_esc_receiver/InstantiationBlockImpl$i_decode_esc/BPortImpl$clk_i/junction0" transform="translate(86.375, 46)" class="sprotty-junction junction" style="fill:rgb(112, 112, 112);stroke:none;"/></g><g id="sprotty_ArchitectureBlockImpl$prim_esc_receiver/BPortImpl$rst_ni_to_ArchitectureBlockImpl$prim_esc_receiver/InstantiationBlockImpl$i_decode_esc/BPortImpl$rst_ni" class="sprotty-edge edge" style="fill:none;stroke:rgb(112, 112, 112);stroke-linejoin:round;"><g><path d="M 0 80 L 74.375 80 C 75.375 80 76.375 81 76.375 82 L 76.375 165.33333333333334 C 76.375 166.33333333333334 77.375 167.33333333333334 78.375 167.33333333333334 L 96.375 167.33333333333334 "/><path d="M 0 80 L 74.375 80 C 75.375 80 76.375 81 76.375 82 L 76.375 165.33333333333334 C 76.375 166.33333333333334 77.375 167.33333333333334 78.375 167.33333333333334 L 96.375 167.33333333333334 " class="clickable"/></g><circle r="2" id="sprotty_ArchitectureBlockImpl$prim_esc_receiver/BPortImpl$rst_ni_to_ArchitectureBlockImpl$prim_esc_receiver/InstantiationBlockImpl$i_decode_esc/BPortImpl$rst_ni/junction0" transform="translate(76.375, 80)" class="sprotty-junction junction" style="fill:rgb(112, 112, 112);stroke:none;"/></g><g id="sprotty_ArchitectureBlockImpl$prim_esc_receiver/BPortImpl$esc_tx_i_to_ArchitectureBlockImpl$prim_esc_receiver/InstantiationBlockImpl$i_decode_esc/BPortImpl$diff_pi" class="sprotty-edge thick edge" style="fill:none;stroke:rgb(112, 112, 112);stroke-linejoin:round;stroke-width:3px;"><g><path d="M 0 204.66666666666669 L 96.375 204.66666666666669 "/><path d="M 0 204.66666666666669 L 96.375 204.66666666666669 " class="clickable"/></g></g><g id="sprotty_ArchitectureBlockImpl$prim_esc_receiver/BPortImpl$esc_tx_i_to_ArchitectureBlockImpl$prim_esc_receiver/InstantiationBlockImpl$i_decode_esc/BPortImpl$diff_ni" class="sprotty-edge thick edge" style="fill:none;stroke:rgb(112, 112, 112);stroke-linejoin:round;stroke-width:3px;"><g><path d="M 0 204.66666666666669 L 74.375 204.66666666666669 C 75.375 204.66666666666669 76.375 205.66666666666669 76.375 206.66666666666669 L 76.375 240.00000000000003 C 76.375 241.00000000000003 77.375 242.00000000000003 78.375 242.00000000000003 L 96.375 242.00000000000003 "/><path d="M 0 204.66666666666669 L 74.375 204.66666666666669 C 75.375 204.66666666666669 76.375 205.66666666666669 76.375 206.66666666666669 L 76.375 240.00000000000003 C 76.375 241.00000000000003 77.375 242.00000000000003 78.375 242.00000000000003 L 96.375 242.00000000000003 " class="clickable"/></g><circle r="3" id="sprotty_ArchitectureBlockImpl$prim_esc_receiver/BPortImpl$esc_tx_i_to_ArchitectureBlockImpl$prim_esc_receiver/InstantiationBlockImpl$i_decode_esc/BPortImpl$diff_ni/junction0" transform="translate(76.375, 204.66666666666669)" class="sprotty-junction thick" style="fill:rgb(112, 112, 112);stroke:none;"/></g><g id="sprotty_ArchitectureBlockImpl$prim_esc_receiver/BPortImpl$clk_i_to_ArchitectureBlockImpl$prim_esc_receiver/AlwaysBlockImpl$p_regs/GPortImpl$clk_iIN" class="sprotty-edge edge" style="fill:none;stroke:rgb(112, 112, 112);stroke-linejoin:round;"><g><path d="M 0 46 L 720.34375 46 C 721.34375 46 722.34375 47 722.34375 48 L 722.34375 118 C 722.34375 119 723.34375 120 724.34375 120 L 732.34375 120 "/><path d="M 0 46 L 720.34375 46 C 721.34375 46 722.34375 47 722.34375 48 L 722.34375 118 C 722.34375 119 723.34375 120 724.34375 120 L 732.34375 120 " class="clickable"/></g></g><g id="sprotty_ArchitectureBlockImpl$prim_esc_receiver/BPortImpl$rst_ni_to_ArchitectureBlockImpl$prim_esc_receiver/AlwaysBlockImpl$p_regs/GPortImpl$rst_niIN" class="sprotty-edge edge" style="fill:none;stroke:rgb(112, 112, 112);stroke-linejoin:round;"><g><path d="M 0 80 L 710.34375 80 C 711.34375 80 712.34375 81 712.34375 82 L 712.34375 128 C 712.34375 129 713.34375 130 714.34375 130 L 732.34375 130 "/><path d="M 0 80 L 710.34375 80 C 711.34375 80 712.34375 81 712.34375 82 L 712.34375 128 C 712.34375 129 713.34375 130 714.34375 130 L 732.34375 130 " class="clickable"/></g></g><g id="sprotty_ArchitectureBlockImpl$prim_esc_receiver/InstantiationBlockImpl$i_decode_esc/BPortImpl$level_o_to_ArchitectureBlockImpl$prim_esc_receiver/AlwaysBlockImpl$p_fsm/GPortImpl$esc_levelIN" class="sprotty-edge edge" style="fill:none;stroke:rgb(112, 112, 112);stroke-linejoin:round;"><g><path d="M 362.25 130 L 402.25 130 "/><path d="M 362.25 130 L 402.25 130 " class="clickable"/></g></g><g id="sprotty_ArchitectureBlockImpl$prim_esc_receiver/InstantiationBlockImpl$i_decode_esc/BPortImpl$sigint_o_to_ArchitectureBlockImpl$prim_esc_receiver/AlwaysBlockImpl$p_fsm/GPortImpl$sigint_detectedIN" class="sprotty-edge edge" style="fill:none;stroke:rgb(112, 112, 112);stroke-linejoin:round;"><g><path d="M 362.25 242 L 370.25 242 C 371.25 242 372.25 241 372.25 240 L 372.25 142 C 372.25 141 373.25 140 374.25 140 L 402.25 140 "/><path d="M 362.25 242 L 370.25 242 C 371.25 242 372.25 241 372.25 240 L 372.25 142 C 372.25 141 373.25 140 374.25 140 L 402.25 140 " class="clickable"/></g></g><g id="sprotty_ArchitectureBlockImpl$prim_esc_receiver/AlwaysBlockImpl$p_fsm/GPortImpl$state_dOUT_to_ArchitectureBlockImpl$prim_esc_receiver/AlwaysBlockImpl$p_regs/GPortImpl$state_dIN" class="sprotty-edge thick edge" style="fill:none;stroke:rgb(112, 112, 112);stroke-linejoin:round;stroke-width:3px;"><g><path d="M 466 160 L 474 160 C 475 160 476 161 476 162 L 476 243 C 476 244 477 245 478 245 L 720.34375 245 C 721.34375 245 722.34375 244 722.34375 243 L 722.34375 162 C 722.34375 161 723.34375 160 724.34375 160 L 732.34375 160 "/><path d="M 466 160 L 474 160 C 475 160 476 161 476 162 L 476 243 C 476 244 477 245 478 245 L 720.34375 245 C 721.34375 245 722.34375 244 722.34375 243 L 722.34375 162 C 722.34375 161 723.34375 160 724.34375 160 L 732.34375 160 " class="clickable"/></g></g><g id="sprotty_ArchitectureBlockImpl$prim_esc_receiver/AlwaysBlockImpl$p_regs/GPortImpl$state_qOUT_to_ArchitectureBlockImpl$prim_esc_receiver/AlwaysBlockImpl$p_fsm/GPortImpl$state_qIN" class="sprotty-edge thick edge" style="fill:none;stroke:rgb(112, 112, 112);stroke-linejoin:round;stroke-width:3px;"><g><path d="M 795.171875 155 L 803.171875 155 C 804.171875 155 805.171875 156 805.171875 157 L 805.171875 253 C 805.171875 254 804.171875 255 803.171875 255 L 394.25 255 C 393.25 255 392.25 254 392.25 253 L 392.25 162 C 392.25 161 393.25 160 394.25 160 L 402.25 160 "/><path d="M 795.171875 155 L 803.171875 155 C 804.171875 155 805.171875 156 805.171875 157 L 805.171875 253 C 805.171875 254 804.171875 255 803.171875 255 L 394.25 255 C 393.25 255 392.25 254 392.25 253 L 392.25 162 C 392.25 161 393.25 160 394.25 160 L 402.25 160 " class="clickable"/></g></g><g id="sprotty_ArchitectureBlockImpl$prim_esc_receiver/AlwaysBlockImpl$p_fsm/GPortImpl$resp_pOUT_to_ArchitectureBlockImpl$prim_esc_receiver/InstantiationBlockImpl$u_prim_buf_p/BPortImpl$in_i" class="sprotty-edge edge" style="fill:none;stroke:rgb(112, 112, 112);stroke-linejoin:round;"><g><path d="M 466 150 L 484 150 C 485 150 486 151 486 152 L 486 214 C 486 215 487 216 488 216 L 496 216 "/><path d="M 466 150 L 484 150 C 485 150 486 151 486 152 L 486 214 C 486 215 487 216 488 216 L 496 216 " class="clickable"/></g></g><g id="sprotty_ArchitectureBlockImpl$prim_esc_receiver/InstantiationBlockImpl$u_prim_buf_p/BPortImpl$out_o_to_ArchitectureBlockImpl$prim_esc_receiver/AlwaysBlockImpl$p_regs/GPortImpl$resp_pdIN" class="sprotty-edge edge" style="fill:none;stroke:rgb(112, 112, 112);stroke-linejoin:round;"><g><path d="M 702.34375 216 L 710.34375 216 C 711.34375 216 712.34375 215 712.34375 214 L 712.34375 152 C 712.34375 151 713.34375 150 714.34375 150 L 732.34375 150 "/><path d="M 702.34375 216 L 710.34375 216 C 711.34375 216 712.34375 215 712.34375 214 L 712.34375 152 C 712.34375 151 713.34375 150 714.34375 150 L 732.34375 150 " class="clickable"/></g></g><g id="sprotty_ArchitectureBlockImpl$prim_esc_receiver/AlwaysBlockImpl$p_regs/GPortImpl$resp_pqOUT_to_ArchitectureBlockImpl$prim_esc_receiver/AssignmentBlockImpl$esc_rx_o.resp_p/GPortImpl$resp_pqIN" class="sprotty-edge edge" style="fill:none;stroke:rgb(112, 112, 112);stroke-linejoin:round;"><g><path d="M 795.171875 140 L 813.171875 140 C 814.171875 140 815.171875 141 815.171875 142 L 815.171875 165 C 815.171875 166 816.171875 167 817.171875 167 L 825.171875 167 "/><path d="M 795.171875 140 L 813.171875 140 C 814.171875 140 815.171875 141 815.171875 142 L 815.171875 165 C 815.171875 166 816.171875 167 817.171875 167 L 825.171875 167 " class="clickable"/></g><circle r="2" id="sprotty_ArchitectureBlockImpl$prim_esc_receiver/AlwaysBlockImpl$p_regs/GPortImpl$resp_pqOUT_to_ArchitectureBlockImpl$prim_esc_receiver/AssignmentBlockImpl$esc_rx_o.resp_p/GPortImpl$resp_pqIN/junction0" transform="translate(815.171875, 167)" class="sprotty-junction junction" style="fill:rgb(112, 112, 112);stroke:none;"/></g><g id="sprotty_ArchitectureBlockImpl$prim_esc_receiver/AlwaysBlockImpl$p_regs/GPortImpl$resp_pqOUT_to_ArchitectureBlockImpl$prim_esc_receiver/AlwaysBlockImpl$p_fsm/GPortImpl$resp_pqIN" class="sprotty-edge edge" style="fill:none;stroke:rgb(112, 112, 112);stroke-linejoin:round;"><g><path d="M 795.171875 140 L 813.171875 140 C 814.171875 140 815.171875 141 815.171875 142 L 815.171875 263 C 815.171875 264 814.171875 265 813.171875 265 L 384.25 265 C 383.25 265 382.25 264 382.25 263 L 382.25 152 C 382.25 151 383.25 150 384.25 150 L 402.25 150 "/><path d="M 795.171875 140 L 813.171875 140 C 814.171875 140 815.171875 141 815.171875 142 L 815.171875 263 C 815.171875 264 814.171875 265 813.171875 265 L 384.25 265 C 383.25 265 382.25 264 382.25 263 L 382.25 152 C 382.25 151 383.25 150 384.25 150 L 402.25 150 " class="clickable"/></g></g><g id="sprotty_ArchitectureBlockImpl$prim_esc_receiver/AlwaysBlockImpl$p_fsm/GPortImpl$resp_nOUT_to_ArchitectureBlockImpl$prim_esc_receiver/InstantiationBlockImpl$u_prim_buf_n/BPortImpl$in_i" class="sprotty-edge edge" style="fill:none;stroke:rgb(112, 112, 112);stroke-linejoin:round;"><g><path d="M 466 140 L 496.0234375 140 "/><path d="M 466 140 L 496.0234375 140 " class="clickable"/></g></g><g id="sprotty_ArchitectureBlockImpl$prim_esc_receiver/InstantiationBlockImpl$u_prim_buf_n/BPortImpl$out_o_to_ArchitectureBlockImpl$prim_esc_receiver/AlwaysBlockImpl$p_regs/GPortImpl$resp_ndIN" class="sprotty-edge edge" style="fill:none;stroke:rgb(112, 112, 112);stroke-linejoin:round;"><g><path d="M 702.3203125 140 L 732.34375 140 "/><path d="M 702.3203125 140 L 732.34375 140 " class="clickable"/></g></g><g id="sprotty_ArchitectureBlockImpl$prim_esc_receiver/AlwaysBlockImpl$p_regs/GPortImpl$resp_nqOUT_to_ArchitectureBlockImpl$prim_esc_receiver/AssignmentBlockImpl$esc_rx_o.resp_n/GPortImpl$resp_nqIN" class="sprotty-edge edge" style="fill:none;stroke:rgb(112, 112, 112);stroke-linejoin:round;"><g><path d="M 795.171875 125 L 825.171875 125 "/><path d="M 795.171875 125 L 825.171875 125 " class="clickable"/></g></g><g id="sprotty_ArchitectureBlockImpl$prim_esc_receiver/AlwaysBlockImpl$p_regs" transform="translate(732.34375, 110)" class="statement"><rect x="0" y="0" rx="10" ry="5" width="62.828125" height="60" class="sprotty-node" style="fill:rgb(245, 245, 245);stroke:rgb(112, 112, 112);"/><text class="clickable sprotty-label statementtext" id="sprotty_ArchitectureBlockImpl$prim_esc_receiver/AlwaysBlockImpl$p_regs/labeltext" transform="translate(5, 12) translate(26.375, 19)" style="cursor:default;font-weight:700;perspective-origin:0.03125px 0px;fill:rgb(112, 112, 112);text-anchor:middle;">p_regs</text><text class="clickable sprotty-label statementtype" id="sprotty_ArchitectureBlockImpl$prim_esc_receiver/AlwaysBlockImpl$p_regs/labeltype" transform="translate(11.96875, 36) translate(18.828125, 9)" style="cursor:default;font-size:8px;font-weight:700;perspective-origin:0.609375px 0px;fill:rgb(112, 112, 112);text-anchor:middle;">always_ff</text><g id="sprotty_ArchitectureBlockImpl$prim_esc_receiver/AlwaysBlockImpl$p_regs/GPortImpl$resp_ndIN" transform="translate(0, 30)" class="sprotty-hidden hidden" style="display:block;height:0px;width:0px;"/><g id="sprotty_ArchitectureBlockImpl$prim_esc_receiver/AlwaysBlockImpl$p_regs/GPortImpl$resp_pdIN" transform="translate(0, 40)" class="sprotty-hidden hidden" style="display:block;height:0px;width:0px;"/><g id="sprotty_ArchitectureBlockImpl$prim_esc_receiver/AlwaysBlockImpl$p_regs/GPortImpl$state_dIN" transform="translate(0, 50)" class="sprotty-hidden hidden" style="display:block;height:0px;width:0px;"/><g id="sprotty_ArchitectureBlockImpl$prim_esc_receiver/AlwaysBlockImpl$p_regs/GPortImpl$rst_niIN" transform="translate(0, 20)" class="sprotty-hidden hidden" style="display:block;height:0px;width:0px;"/><g id="sprotty_ArchitectureBlockImpl$prim_esc_receiver/AlwaysBlockImpl$p_regs/GPortImpl$clk_iIN" transform="translate(0, 10)" class="sprotty-hidden hidden" style="display:block;height:0px;width:0px;"/><g id="sprotty_ArchitectureBlockImpl$prim_esc_receiver/AlwaysBlockImpl$p_regs/GPortImpl$state_qOUT" transform="translate(62.828125, 45)" class="sprotty-hidden hidden" style="display:block;height:0px;width:0px;"/><g id="sprotty_ArchitectureBlockImpl$prim_esc_receiver/AlwaysBlockImpl$p_regs/GPortImpl$resp_pqOUT" transform="translate(62.828125, 30)" class="sprotty-hidden hidden" style="display:block;height:0px;width:0px;"/><g id="sprotty_ArchitectureBlockImpl$prim_esc_receiver/AlwaysBlockImpl$p_regs/GPortImpl$resp_nqOUT" transform="translate(62.828125, 15)" class="sprotty-hidden hidden" style="display:block;height:0px;width:0px;"/></g><g id="sprotty_ArchitectureBlockImpl$prim_esc_receiver/AlwaysBlockImpl$p_fsm" transform="translate(402.25, 120)" class="statement"><rect x="0" y="0" rx="10" ry="5" width="63.75" height="50" class="sprotty-node" style="fill:rgb(245, 245, 245);stroke:rgb(112, 112, 112);"/><text class="clickable sprotty-label statementtext" id="sprotty_ArchitectureBlockImpl$prim_esc_receiver/AlwaysBlockImpl$p_fsm/labeltext" transform="translate(7.59375, 7) translate(24.28125, 19)" style="cursor:default;font-weight:700;perspective-origin:0px 0px;fill:rgb(112, 112, 112);text-anchor:middle;">p_fsm</text><text class="clickable sprotty-label statementtype" id="sprotty_ArchitectureBlockImpl$prim_esc_receiver/AlwaysBlockImpl$p_fsm/labeltype" transform="translate(5, 31) translate(26.875, 9)" style="cursor:default;font-size:8px;font-weight:700;perspective-origin:0px 0px;fill:rgb(112, 112, 112);text-anchor:middle;">always_comb</text><g id="sprotty_ArchitectureBlockImpl$prim_esc_receiver/AlwaysBlockImpl$p_fsm/GPortImpl$sigint_detectedIN" transform="translate(0, 20)" class="sprotty-hidden hidden" style="display:block;height:0px;width:0px;"/><g id="sprotty_ArchitectureBlockImpl$prim_esc_receiver/AlwaysBlockImpl$p_fsm/GPortImpl$resp_pqIN" transform="translate(0, 30)" class="sprotty-hidden hidden" style="display:block;height:0px;width:0px;"/><g id="sprotty_ArchitectureBlockImpl$prim_esc_receiver/AlwaysBlockImpl$p_fsm/GPortImpl$esc_levelIN" transform="translate(0, 10)" class="sprotty-hidden hidden" style="display:block;height:0px;width:0px;"/><g id="sprotty_ArchitectureBlockImpl$prim_esc_receiver/AlwaysBlockImpl$p_fsm/GPortImpl$state_qIN" transform="translate(0, 40)" class="sprotty-hidden hidden" style="display:block;height:0px;width:0px;"/><g id="sprotty_ArchitectureBlockImpl$prim_esc_receiver/AlwaysBlockImpl$p_fsm/GPortImpl$state_dOUT" transform="translate(63.75, 40)" class="sprotty-hidden hidden" style="display:block;height:0px;width:0px;"/><g id="sprotty_ArchitectureBlockImpl$prim_esc_receiver/AlwaysBlockImpl$p_fsm/GPortImpl$resp_pOUT" transform="translate(63.75, 30)" class="sprotty-hidden hidden" style="display:block;height:0px;width:0px;"/><g id="sprotty_ArchitectureBlockImpl$prim_esc_receiver/AlwaysBlockImpl$p_fsm/GPortImpl$resp_nOUT" transform="translate(63.75, 20)" class="sprotty-hidden hidden" style="display:block;height:0px;width:0px;"/><g id="sprotty_ArchitectureBlockImpl$prim_esc_receiver/AlwaysBlockImpl$p_fsm/GPortImpl$esc_en_oOUT" transform="translate(63.75, 10)" class="sprotty-hidden hidden" style="display:block;height:0px;width:0px;"/></g><g id="sprotty_ArchitectureBlockImpl$prim_esc_receiver/AssignmentBlockImpl$esc_rx_o.resp_n" transform="translate(825.171875, 114)" class="statement"><rect x="0" y="0" rx="10" ry="5" width="19.71875" height="22" class="sprotty-node" style="fill:rgb(245, 245, 245);stroke:rgb(112, 112, 112);"/><text class="clickable sprotty-label statementtype" id="sprotty_ArchitectureBlockImpl$prim_esc_receiver/AssignmentBlockImpl$esc_rx_o.resp_n/labeltype" transform="translate(5, 5) translate(4.71875, 9)" style="cursor:default;font-size:8px;font-weight:700;perspective-origin:0.140625px 0px;fill:rgb(112, 112, 112);text-anchor:middle;">&lt;=</text><g id="sprotty_ArchitectureBlockImpl$prim_esc_receiver/AssignmentBlockImpl$esc_rx_o.resp_n/GPortImpl$resp_nqIN" transform="translate(0, 11)" class="sprotty-hidden hidden" style="display:block;height:0px;width:0px;"/><g id="sprotty_ArchitectureBlockImpl$prim_esc_receiver/AssignmentBlockImpl$esc_rx_o.resp_n/GPortImpl$esc_rx_oOUT" transform="translate(19.71875, 11)" class="sprotty-hidden hidden" style="display:block;height:0px;width:0px;"/></g><g id="sprotty_ArchitectureBlockImpl$prim_esc_receiver/AssignmentBlockImpl$esc_rx_o.resp_p" transform="translate(825.171875, 156)" class="statement"><rect x="0" y="0" rx="10" ry="5" width="19.71875" height="22" class="sprotty-node" style="fill:rgb(245, 245, 245);stroke:rgb(112, 112, 112);"/><text class="clickable sprotty-label statementtype" id="sprotty_ArchitectureBlockImpl$prim_esc_receiver/AssignmentBlockImpl$esc_rx_o.resp_p/labeltype" transform="translate(5, 5) translate(4.71875, 9)" style="cursor:default;font-size:8px;font-weight:700;perspective-origin:0.140625px 0px;fill:rgb(112, 112, 112);text-anchor:middle;">&lt;=</text><g id="sprotty_ArchitectureBlockImpl$prim_esc_receiver/AssignmentBlockImpl$esc_rx_o.resp_p/GPortImpl$resp_pqIN" transform="translate(0, 11)" class="sprotty-hidden hidden" style="display:block;height:0px;width:0px;"/><g id="sprotty_ArchitectureBlockImpl$prim_esc_receiver/AssignmentBlockImpl$esc_rx_o.resp_p/GPortImpl$esc_rx_oOUT" transform="translate(19.71875, 11)" class="sprotty-hidden hidden" style="display:block;height:0px;width:0px;"/></g><g id="sprotty_ArchitectureBlockImpl$prim_esc_receiver/InstantiationBlockImpl$u_prim_buf_n" transform="translate(496.0234375, 102)" class="instantiation"><g class="sprotty-block" style="fill:rgb(255, 255, 255);stroke:rgb(48, 48, 48);stroke-dasharray:0px;"><rect x="0" y="0" rx="1" ry="1" width="206.296875" height="56"/><text x="103.1484375" y="12" class="sprotty-block-name" style="cursor:pointer;font-weight:700;perspective-origin:103.672px 0px;fill:rgb(48, 48, 48);stroke:rgba(0, 0, 0, 0);dominant-baseline:middle;text-anchor:middle;">u_prim_buf_n : prim_buf</text><line x1="0" y1="20" x2="206.296875" y2="20"/></g><g id="sprotty_ArchitectureBlockImpl$prim_esc_receiver/InstantiationBlockImpl$u_prim_buf_n/BPortImpl$in_i" transform="translate(0, 38)" class="triangle"><path d="M 0,0 L 5,2.5 L 0,5 Z" transform="translate(-1.67, -2.5)" class="sprotty-port" style="fill:rgb(48, 48, 48);stroke:rgb(48, 48, 48);"/><text class="clickable sprotty-label port" id="sprotty_ArchitectureBlockImpl$prim_esc_receiver/InstantiationBlockImpl$u_prim_buf_n/BPortImpl$in_i/label" transform="translate(6, -9) translate(10.328125, 14)" style="cursor:default;font-size:12px;perspective-origin:0px 0px;fill:rgb(48, 48, 48);text-anchor:middle;">in_i</text></g><g id="sprotty_ArchitectureBlockImpl$prim_esc_receiver/InstantiationBlockImpl$u_prim_buf_n/BPortImpl$out_o" transform="translate(206.296875, 38)" class="triangle"><path d="M 0,0 L 5,2.5 L 0,5 Z" transform="translate(-1.67, -2.5)" class="sprotty-port" style="fill:rgb(48, 48, 48);stroke:rgb(48, 48, 48);"/><text class="clickable sprotty-label port" id="sprotty_ArchitectureBlockImpl$prim_esc_receiver/InstantiationBlockImpl$u_prim_buf_n/BPortImpl$out_o/label" transform="translate(-39.0625, -9) translate(16.53125, 14)" style="cursor:default;font-size:12px;perspective-origin:0px 0px;fill:rgb(48, 48, 48);text-anchor:middle;">out_o</text></g></g><g id="sprotty_ArchitectureBlockImpl$prim_esc_receiver/InstantiationBlockImpl$u_prim_buf_p" transform="translate(496, 178)" class="instantiation"><g class="sprotty-block" style="fill:rgb(255, 255, 255);stroke:rgb(48, 48, 48);stroke-dasharray:0px;"><rect x="0" y="0" rx="1" ry="1" width="206.34375" height="56"/><text x="103.171875" y="12" class="sprotty-block-name" style="cursor:pointer;font-weight:700;perspective-origin:103.703px 0px;fill:rgb(48, 48, 48);stroke:rgba(0, 0, 0, 0);dominant-baseline:middle;text-anchor:middle;">u_prim_buf_p : prim_buf</text><line x1="0" y1="20" x2="206.34375" y2="20"/></g><g id="sprotty_ArchitectureBlockImpl$prim_esc_receiver/InstantiationBlockImpl$u_prim_buf_p/BPortImpl$in_i" transform="translate(0, 38)" class="triangle"><path d="M 0,0 L 5,2.5 L 0,5 Z" transform="translate(-1.67, -2.5)" class="sprotty-port" style="fill:rgb(48, 48, 48);stroke:rgb(48, 48, 48);"/><text class="clickable sprotty-label port" id="sprotty_ArchitectureBlockImpl$prim_esc_receiver/InstantiationBlockImpl$u_prim_buf_p/BPortImpl$in_i/label" transform="translate(6, -9) translate(10.328125, 14)" style="cursor:default;font-size:12px;perspective-origin:0px 0px;fill:rgb(48, 48, 48);text-anchor:middle;">in_i</text></g><g id="sprotty_ArchitectureBlockImpl$prim_esc_receiver/InstantiationBlockImpl$u_prim_buf_p/BPortImpl$out_o" transform="translate(206.34375, 38)" class="triangle"><path d="M 0,0 L 5,2.5 L 0,5 Z" transform="translate(-1.67, -2.5)" class="sprotty-port" style="fill:rgb(48, 48, 48);stroke:rgb(48, 48, 48);"/><text class="clickable sprotty-label port" id="sprotty_ArchitectureBlockImpl$prim_esc_receiver/InstantiationBlockImpl$u_prim_buf_p/BPortImpl$out_o/label" transform="translate(-39.0625, -9) translate(16.53125, 14)" style="cursor:default;font-size:12px;perspective-origin:0px 0px;fill:rgb(48, 48, 48);text-anchor:middle;">out_o</text></g></g><g id="sprotty_ArchitectureBlockImpl$prim_esc_receiver/InstantiationBlockImpl$i_decode_esc" transform="translate(96.375, 92)" class="instantiation"><g class="sprotty-block" style="fill:rgb(255, 255, 255);stroke:rgb(48, 48, 48);stroke-dasharray:0px;"><rect x="0" y="0" rx="1" ry="1" width="265.875" height="168"/><text x="132.9375" y="12" class="sprotty-block-name" style="cursor:pointer;font-weight:700;perspective-origin:132.938px 0px;fill:rgb(48, 48, 48);stroke:rgba(0, 0, 0, 0);dominant-baseline:middle;text-anchor:middle;">i_decode_esc : prim_diff_decode</text><line x1="0" y1="20" x2="265.875" y2="20"/></g><g id="sprotty_ArchitectureBlockImpl$prim_esc_receiver/InstantiationBlockImpl$i_decode_esc/BPortImpl$diff_ni" transform="translate(0, 150.00000000000003)" class="triangle"><path d="M 0,0 L 5,2.5 L 0,5 Z" transform="translate(-1.67, -2.5)" class="sprotty-port" style="fill:rgb(48, 48, 48);stroke:rgb(48, 48, 48);"/><text class="clickable sprotty-label port" id="sprotty_ArchitectureBlockImpl$prim_esc_receiver/InstantiationBlockImpl$i_decode_esc/BPortImpl$diff_ni/label" transform="translate(6, -9) translate(17.90625, 14)" style="cursor:default;font-size:12px;perspective-origin:0px 0px;fill:rgb(48, 48, 48);text-anchor:middle;">diff_ni</text></g><g id="sprotty_ArchitectureBlockImpl$prim_esc_receiver/InstantiationBlockImpl$i_decode_esc/BPortImpl$diff_pi" transform="translate(0, 112.66666666666669)" class="triangle"><path d="M 0,0 L 5,2.5 L 0,5 Z" transform="translate(-1.67, -2.5)" class="sprotty-port" style="fill:rgb(48, 48, 48);stroke:rgb(48, 48, 48);"/><text class="clickable sprotty-label port" id="sprotty_ArchitectureBlockImpl$prim_esc_receiver/InstantiationBlockImpl$i_decode_esc/BPortImpl$diff_pi/label" transform="translate(6, -9) translate(17.953125, 14)" style="cursor:default;font-size:12px;perspective-origin:0px 0px;fill:rgb(48, 48, 48);text-anchor:middle;">diff_pi</text></g><g id="sprotty_ArchitectureBlockImpl$prim_esc_receiver/InstantiationBlockImpl$i_decode_esc/BPortImpl$rst_ni" transform="translate(0, 75.33333333333334)" class="triangle"><path d="M 0,0 L 5,2.5 L 0,5 Z" transform="translate(-1.67, -2.5)" class="sprotty-port" style="fill:rgb(48, 48, 48);stroke:rgb(48, 48, 48);"/><text class="clickable sprotty-label port" id="sprotty_ArchitectureBlockImpl$prim_esc_receiver/InstantiationBlockImpl$i_decode_esc/BPortImpl$rst_ni/label" transform="translate(6, -9) translate(15.921875, 14)" style="cursor:default;font-size:12px;perspective-origin:0px 0px;fill:rgb(48, 48, 48);text-anchor:middle;">rst_ni</text></g><g id="sprotty_ArchitectureBlockImpl$prim_esc_receiver/InstantiationBlockImpl$i_decode_esc/BPortImpl$clk_i" transform="translate(0, 38)" class="triangle"><path d="M 0,0 L 5,2.5 L 0,5 Z" transform="translate(-1.67, -2.5)" class="sprotty-port" style="fill:rgb(48, 48, 48);stroke:rgb(48, 48, 48);"/><text class="clickable sprotty-label port" id="sprotty_ArchitectureBlockImpl$prim_esc_receiver/InstantiationBlockImpl$i_decode_esc/BPortImpl$clk_i/label" transform="translate(6, -9) translate(13.09375, 14)" style="cursor:default;font-size:12px;perspective-origin:0px 0px;fill:rgb(48, 48, 48);text-anchor:middle;">clk_i</text></g><g id="sprotty_ArchitectureBlockImpl$prim_esc_receiver/InstantiationBlockImpl$i_decode_esc/BPortImpl$level_o" transform="translate(265.875, 38)" class="triangle"><path d="M 0,0 L 5,2.5 L 0,5 Z" transform="translate(-1.67, -2.5)" class="sprotty-port" style="fill:rgb(48, 48, 48);stroke:rgb(48, 48, 48);"/><text class="clickable sprotty-label port" id="sprotty_ArchitectureBlockImpl$prim_esc_receiver/InstantiationBlockImpl$i_decode_esc/BPortImpl$level_o/label" transform="translate(-46.40625, -9) translate(20.203125, 14)" style="cursor:default;font-size:12px;perspective-origin:0px 0px;fill:rgb(48, 48, 48);text-anchor:middle;">level_o</text></g><g id="sprotty_ArchitectureBlockImpl$prim_esc_receiver/InstantiationBlockImpl$i_decode_esc/BPortImpl$rise_o" transform="translate(265.875, 66)" class="triangle"><path d="M 0,0 L 5,2.5 L 0,5 Z" transform="translate(-1.67, -2.5)" class="sprotty-port" style="fill:rgb(48, 48, 48);stroke:rgb(48, 48, 48);"/><text class="clickable sprotty-label port" id="sprotty_ArchitectureBlockImpl$prim_esc_receiver/InstantiationBlockImpl$i_decode_esc/BPortImpl$rise_o/label" transform="translate(-40.21875, -9) translate(17.109375, 14)" style="cursor:default;font-size:12px;perspective-origin:0px 0px;fill:rgb(48, 48, 48);text-anchor:middle;">rise_o</text></g><g id="sprotty_ArchitectureBlockImpl$prim_esc_receiver/InstantiationBlockImpl$i_decode_esc/BPortImpl$fall_o" transform="translate(265.875, 94)" class="triangle"><path d="M 0,0 L 5,2.5 L 0,5 Z" transform="translate(-1.67, -2.5)" class="sprotty-port" style="fill:rgb(48, 48, 48);stroke:rgb(48, 48, 48);"/><text class="clickable sprotty-label port" id="sprotty_ArchitectureBlockImpl$prim_esc_receiver/InstantiationBlockImpl$i_decode_esc/BPortImpl$fall_o/label" transform="translate(-37.25, -9) translate(15.625, 14)" style="cursor:default;font-size:12px;perspective-origin:0px 0px;fill:rgb(48, 48, 48);text-anchor:middle;">fall_o</text></g><g id="sprotty_ArchitectureBlockImpl$prim_esc_receiver/InstantiationBlockImpl$i_decode_esc/BPortImpl$event_o" transform="translate(265.875, 122)" class="triangle"><path d="M 0,0 L 5,2.5 L 0,5 Z" transform="translate(-1.67, -2.5)" class="sprotty-port" style="fill:rgb(48, 48, 48);stroke:rgb(48, 48, 48);"/><text class="clickable sprotty-label port" id="sprotty_ArchitectureBlockImpl$prim_esc_receiver/InstantiationBlockImpl$i_decode_esc/BPortImpl$event_o/label" transform="translate(-51.40625, -9) translate(22.703125, 14)" style="cursor:default;font-size:12px;perspective-origin:0px 0px;fill:rgb(48, 48, 48);text-anchor:middle;">event_o</text></g><g id="sprotty_ArchitectureBlockImpl$prim_esc_receiver/InstantiationBlockImpl$i_decode_esc/BPortImpl$sigint_o" transform="translate(265.875, 150)" class="triangle"><path d="M 0,0 L 5,2.5 L 0,5 Z" transform="translate(-1.67, -2.5)" class="sprotty-port" style="fill:rgb(48, 48, 48);stroke:rgb(48, 48, 48);"/><text class="clickable sprotty-label port" id="sprotty_ArchitectureBlockImpl$prim_esc_receiver/InstantiationBlockImpl$i_decode_esc/BPortImpl$sigint_o/label" transform="translate(-50.8125, -9) translate(22.40625, 14)" style="cursor:default;font-size:12px;perspective-origin:0px 0px;fill:rgb(48, 48, 48);text-anchor:middle;">sigint_o</text></g></g><g id="sprotty_ArchitectureBlockImpl$prim_esc_receiver/BPortImpl$esc_tx_i" transform="translate(0, 204.66666666666669)" class="triangle"><path d="M 0,0 L 5,2.5 L 0,5 Z" transform="translate(-1.67, -2.5)" class="sprotty-port" style="fill:rgb(48, 48, 48);stroke:rgb(48, 48, 48);"/><text class="clickable sprotty-label port" id="sprotty_ArchitectureBlockImpl$prim_esc_receiver/BPortImpl$esc_tx_i/label" transform="translate(6, 6) translate(22.6875, 14)" style="cursor:default;font-size:12px;perspective-origin:0px 0px;fill:rgb(48, 48, 48);text-anchor:middle;">esc_tx_i</text></g><g id="sprotty_ArchitectureBlockImpl$prim_esc_receiver/BPortImpl$rst_ni" transform="translate(0, 80)" class="triangle"><path d="M 0,0 L 5,2.5 L 0,5 Z" transform="translate(-1.67, -2.5)" class="sprotty-port" style="fill:rgb(48, 48, 48);stroke:rgb(48, 48, 48);"/><text class="clickable sprotty-label port" id="sprotty_ArchitectureBlockImpl$prim_esc_receiver/BPortImpl$rst_ni/label" transform="translate(6, 6) translate(15.921875, 14)" style="cursor:default;font-size:12px;perspective-origin:0px 0px;fill:rgb(48, 48, 48);text-anchor:middle;">rst_ni</text></g><g id="sprotty_ArchitectureBlockImpl$prim_esc_receiver/BPortImpl$clk_i" transform="translate(0, 46)" class="triangle"><path d="M 0,0 L 5,2.5 L 0,5 Z" transform="translate(-1.67, -2.5)" class="sprotty-port" style="fill:rgb(48, 48, 48);stroke:rgb(48, 48, 48);"/><text class="clickable sprotty-label port" id="sprotty_ArchitectureBlockImpl$prim_esc_receiver/BPortImpl$clk_i/label" transform="translate(6, 6) translate(13.09375, 14)" style="cursor:default;font-size:12px;perspective-origin:0px 0px;fill:rgb(48, 48, 48);text-anchor:middle;">clk_i</text></g><g id="sprotty_ArchitectureBlockImpl$prim_esc_receiver/BPortImpl$esc_en_o" transform="translate(938.953125, 36)" class="triangle"><path d="M 0,0 L 5,2.5 L 0,5 Z" transform="translate(-1.67, -2.5)" class="sprotty-port" style="fill:rgb(48, 48, 48);stroke:rgb(48, 48, 48);"/><text class="clickable sprotty-label port" id="sprotty_ArchitectureBlockImpl$prim_esc_receiver/BPortImpl$esc_en_o/label" transform="translate(-59.0625, 6) translate(26.53125, 14)" style="cursor:default;font-size:12px;perspective-origin:0px 0px;fill:rgb(48, 48, 48);text-anchor:middle;">esc_en_o</text></g><g id="sprotty_ArchitectureBlockImpl$prim_esc_receiver/BPortImpl$esc_rx_o" transform="translate(938.953125, 125)" class="triangle"><path d="M 0,0 L 5,2.5 L 0,5 Z" transform="translate(-1.67, -2.5)" class="sprotty-port" style="fill:rgb(48, 48, 48);stroke:rgb(48, 48, 48);"/><text class="clickable sprotty-label port" id="sprotty_ArchitectureBlockImpl$prim_esc_receiver/BPortImpl$esc_rx_o/label" transform="translate(-55.71875, 6) translate(24.859375, 14)" style="cursor:default;font-size:12px;perspective-origin:0px 0px;fill:rgb(48, 48, 48);text-anchor:middle;">esc_rx_o</text></g></g></g></svg>