<svg xmlns="http://www.w3.org/2000/svg" id="sprotty_work.prim_clock_div" class="sprotty-graph sprotty-block-diagram blockdiagram" style="font-family:&quot;Noto Sans&quot;, Helvetica, Arial, sans-serif;perspective-origin:0px 0px;transform-origin:0px 0px;" version="1.1" viewBox="7 7 1258.015625 793" width="1258.015625" height="793"><g transform="scale(1) translate(0,0)"><g id="sprotty_ArchitectureBlockImpl$prim_clock_div" transform="translate(12, 12)" class="architecture"><g class="sprotty-block" style="fill:rgb(255, 255, 255);stroke:rgb(48, 48, 48);stroke-dasharray:0px;"><rect x="0" y="0" rx="1" ry="1" width="1248.015625" height="783"/><text x="624.0078125" y="12" class="sprotty-block-name" style="cursor:pointer;font-weight:700;perspective-origin:624px 0px;fill:rgb(48, 48, 48);stroke:rgba(0, 0, 0, 0);dominant-baseline:middle;text-anchor:middle;">prim_clock_div</text><line x1="0" y1="20" x2="1248.015625" y2="20"/></g><g id="sprotty_ArchitectureBlockImpl$prim_clock_div/GenerateStatementBlockImpl$null6/GPortImpl$step_down_ack_o_to_ArchitectureBlockImpl$prim_clock_div/BPortImpl$step_down_ack_o" class="sprotty-edge edge" style="fill:none;stroke:rgb(112, 112, 112);stroke-linejoin:round;"><g><path d="M 550.125 527 L 1248.015625 527 "/><path d="M 550.125 527 L 1248.015625 527 " class="clickable"/></g></g><g id="sprotty_ArchitectureBlockImpl$prim_clock_div/InstantiationBlockImpl$u_clk_div_buf/BPortImpl$clk_o_to_ArchitectureBlockImpl$prim_clock_div/BPortImpl$clk_o" class="sprotty-edge edge" style="fill:none;stroke:rgb(112, 112, 112);stroke-linejoin:round;"><g><path d="M 1104.703125 101 L 1248.015625 101 "/><path d="M 1104.703125 101 L 1248.015625 101 " class="clickable"/></g></g><g id="sprotty_ArchitectureBlockImpl$prim_clock_div/BPortImpl$clk_i_to_ArchitectureBlockImpl$prim_clock_div/InstantiationBlockImpl$u_clk_mux/BPortImpl$clk1_i" class="sprotty-edge edge" style="fill:none;stroke:rgb(112, 112, 112);stroke-linejoin:round;"><g><path d="M 0 101 L 580.125 101 "/><path d="M 0 101 L 580.125 101 " class="clickable"/></g></g><g id="sprotty_ArchitectureBlockImpl$prim_clock_div/BPortImpl$test_en_i_to_ArchitectureBlockImpl$prim_clock_div/InstantiationBlockImpl$u_clk_mux/BPortImpl$sel_i" class="sprotty-edge edge" style="fill:none;stroke:rgb(112, 112, 112);stroke-linejoin:round;"><g><path d="M 0 67 L 568.125 67 C 569.125 67 570.125 68 570.125 69 L 570.125 127 C 570.125 128 571.125 129 572.125 129 L 580.125 129 "/><path d="M 0 67 L 568.125 67 C 569.125 67 570.125 68 570.125 69 L 570.125 127 C 570.125 128 571.125 129 572.125 129 L 580.125 129 " class="clickable"/></g></g><g id="sprotty_ArchitectureBlockImpl$prim_clock_div/BPortImpl$clk_i_to_ArchitectureBlockImpl$prim_clock_div/GenerateStatementBlockImpl$null6/GPortImpl$clk_i" class="sprotty-edge edge" style="fill:none;stroke:rgb(112, 112, 112);stroke-linejoin:round;"><g><path d="M 0 101 L 126.46875 101 C 127.46875 101 128.46875 102 128.46875 103 L 128.46875 201 C 128.46875 202 129.46875 203 130.46875 203 L 148.46875 203 "/><path d="M 0 101 L 126.46875 101 C 127.46875 101 128.46875 102 128.46875 103 L 128.46875 201 C 128.46875 202 129.46875 203 130.46875 203 L 148.46875 203 " class="clickable"/></g><circle r="2" id="sprotty_ArchitectureBlockImpl$prim_clock_div/BPortImpl$clk_i_to_ArchitectureBlockImpl$prim_clock_div/GenerateStatementBlockImpl$null6/GPortImpl$clk_i/junction0" transform="translate(128.46875, 101)" class="sprotty-junction junction" style="fill:rgb(112, 112, 112);stroke:none;"/></g><g id="sprotty_ArchitectureBlockImpl$prim_clock_div/BPortImpl$rst_ni_to_ArchitectureBlockImpl$prim_clock_div/GenerateStatementBlockImpl$null6/GPortImpl$rst_ni" class="sprotty-edge edge" style="fill:none;stroke:rgb(112, 112, 112);stroke-linejoin:round;"><g><path d="M 0 441 L 148.46875 441 "/><path d="M 0 441 L 148.46875 441 " class="clickable"/></g></g><g id="sprotty_ArchitectureBlockImpl$prim_clock_div/BPortImpl$step_down_req_i_to_ArchitectureBlockImpl$prim_clock_div/GenerateStatementBlockImpl$null6/GPortImpl$step_down_req_i" class="sprotty-edge edge" style="fill:none;stroke:rgb(112, 112, 112);stroke-linejoin:round;"><g><path d="M 0 475 L 126.46875 475 C 127.46875 475 128.46875 474 128.46875 473 L 128.46875 453 C 128.46875 452 129.46875 451 130.46875 451 L 148.46875 451 "/><path d="M 0 475 L 126.46875 475 C 127.46875 475 128.46875 474 128.46875 473 L 128.46875 453 C 128.46875 452 129.46875 451 130.46875 451 L 148.46875 451 " class="clickable"/></g></g><g id="sprotty_ArchitectureBlockImpl$prim_clock_div/BPortImpl$clk_o_to_ArchitectureBlockImpl$prim_clock_div/GenerateStatementBlockImpl$null6/GPortImpl$clk_o" class="sprotty-edge edge" style="fill:none;stroke:rgb(112, 112, 112);stroke-linejoin:round;"><g><path d="M 1248.015625 101 L 1116.703125 101 C 1115.703125 101 1114.703125 102 1114.703125 103 L 1114.703125 156 C 1114.703125 157 1113.703125 158 1112.703125 158 L 140.46875 158 C 139.46875 158 138.46875 159 138.46875 160 L 138.46875 191 C 138.46875 192 139.46875 193 140.46875 193 L 148.46875 193 "/><path d="M 1248.015625 101 L 1116.703125 101 C 1115.703125 101 1114.703125 102 1114.703125 103 L 1114.703125 156 C 1114.703125 157 1113.703125 158 1112.703125 158 L 140.46875 158 C 139.46875 158 138.46875 159 138.46875 160 L 138.46875 191 C 138.46875 192 139.46875 193 140.46875 193 L 148.46875 193 " class="clickable"/></g><circle r="2" id="sprotty_ArchitectureBlockImpl$prim_clock_div/BPortImpl$clk_o_to_ArchitectureBlockImpl$prim_clock_div/GenerateStatementBlockImpl$null6/GPortImpl$clk_o/junction0" transform="translate(1114.703125, 101)" class="sprotty-junction junction" style="fill:rgb(112, 112, 112);stroke:none;"/></g><g id="sprotty_ArchitectureBlockImpl$prim_clock_div/GenerateStatementBlockImpl$null6/GPortImpl$clk_int_to_ArchitectureBlockImpl$prim_clock_div/InstantiationBlockImpl$u_clk_mux/BPortImpl$clk0_i" class="sprotty-edge edge" style="fill:none;stroke:rgb(112, 112, 112);stroke-linejoin:round;"><g><path d="M 550.125 203 L 558.125 203 C 559.125 203 560.125 202 560.125 201 L 560.125 75 C 560.125 74 561.125 73 562.125 73 L 580.125 73 "/><path d="M 550.125 203 L 558.125 203 C 559.125 203 560.125 202 560.125 201 L 560.125 75 C 560.125 74 561.125 73 562.125 73 L 580.125 73 " class="clickable"/></g></g><g id="sprotty_ArchitectureBlockImpl$prim_clock_div/InstantiationBlockImpl$u_clk_mux/BPortImpl$clk_o_to_ArchitectureBlockImpl$prim_clock_div/InstantiationBlockImpl$u_clk_div_buf/BPortImpl$clk_i" class="sprotty-edge edge" style="fill:none;stroke:rgb(112, 112, 112);stroke-linejoin:round;"><g><path d="M 828.03125 101 L 848.03125 101 "/><path d="M 828.03125 101 L 848.03125 101 " class="clickable"/></g></g><g id="sprotty_ArchitectureBlockImpl$prim_clock_div/GenerateStatementBlockImpl$null6" transform="translate(148.46875, 168)" class="generate"><g class="sprotty-block sprotty-block-generate" style="fill:rgb(255, 255, 255);stroke:rgb(48, 48, 48);stroke-dasharray:0px;"><rect x="0" y="0" rx="1" ry="1" width="401.65625" height="600" style="stroke-dasharray:3px, 1px;"/><text x="200.828125" y="12" class="sprotty-block-name" style="cursor:pointer;font-weight:700;fill:rgb(48, 48, 48);stroke:rgba(0, 0, 0, 0);dominant-baseline:middle;text-anchor:middle;"/>undefined</g><g id="sprotty_ArchitectureBlockImpl$prim_clock_div/GenerateStatementBlockImpl$null6/AlwaysBlockImpl$null6/GPortImpl$step_down_ack_oOUT_to_ArchitectureBlockImpl$prim_clock_div/GenerateStatementBlockImpl$null6/GPortImpl$step_down_ack_o" class="sprotty-edge edge" style="fill:none;stroke:rgb(112, 112, 112);stroke-linejoin:round;"><g><path d="M 169.58203125 359 L 401.65625 359 "/><path d="M 169.58203125 359 L 401.65625 359 " class="clickable"/></g></g><g id="sprotty_ArchitectureBlockImpl$prim_clock_div/GenerateStatementBlockImpl$null6/GPortImpl$clk_i_to_ArchitectureBlockImpl$prim_clock_div/GenerateStatementBlockImpl$null6/InstantiationBlockImpl$u_div2/BPortImpl$clk_i" class="sprotty-edge edge" style="fill:none;stroke:rgb(112, 112, 112);stroke-linejoin:round;"><g><path d="M 0 35 L 43 35 C 44 35 45 36 45 37 L 45 243 C 45 244 46 245 47 245 L 55 245 "/><path d="M 0 35 L 43 35 C 44 35 45 36 45 37 L 45 243 C 45 244 46 245 47 245 L 55 245 " class="clickable"/></g><circle r="2" id="sprotty_ArchitectureBlockImpl$prim_clock_div/GenerateStatementBlockImpl$null6/GPortImpl$clk_i_to_ArchitectureBlockImpl$prim_clock_div/GenerateStatementBlockImpl$null6/InstantiationBlockImpl$u_div2/BPortImpl$clk_i/junction0" transform="translate(45, 35)" class="sprotty-junction junction" style="fill:rgb(112, 112, 112);stroke:none;"/><circle r="2" id="sprotty_ArchitectureBlockImpl$prim_clock_div/GenerateStatementBlockImpl$null6/GPortImpl$clk_i_to_ArchitectureBlockImpl$prim_clock_div/GenerateStatementBlockImpl$null6/InstantiationBlockImpl$u_div2/BPortImpl$clk_i/junction1" transform="translate(45, 245)" class="sprotty-junction junction" style="fill:rgb(112, 112, 112);stroke:none;"/></g><g id="sprotty_ArchitectureBlockImpl$prim_clock_div/GenerateStatementBlockImpl$null6/GPortImpl$rst_ni_to_ArchitectureBlockImpl$prim_clock_div/GenerateStatementBlockImpl$null6/InstantiationBlockImpl$u_div2/BPortImpl$rst_ni" class="sprotty-edge edge" style="fill:none;stroke:rgb(112, 112, 112);stroke-linejoin:round;"><g><path d="M 0 273 L 55 273 "/><path d="M 0 273 L 55 273 " class="clickable"/></g></g><g id="sprotty_ArchitectureBlockImpl$prim_clock_div/GenerateStatementBlockImpl$null6/GPortImpl$clk_i_to_ArchitectureBlockImpl$prim_clock_div/GenerateStatementBlockImpl$null6/InstantiationBlockImpl$u_step_down_mux/BPortImpl$clk1_i" class="sprotty-edge edge" style="fill:none;stroke:rgb(112, 112, 112);stroke-linejoin:round;"><g><path d="M 0 35 L 43 35 C 44 35 45 36 45 37 L 45 139 C 45 140 46 141 47 141 L 55 141 "/><path d="M 0 35 L 43 35 C 44 35 45 36 45 37 L 45 139 C 45 140 46 141 47 141 L 55 141 " class="clickable"/></g><circle r="2" id="sprotty_ArchitectureBlockImpl$prim_clock_div/GenerateStatementBlockImpl$null6/GPortImpl$clk_i_to_ArchitectureBlockImpl$prim_clock_div/GenerateStatementBlockImpl$null6/InstantiationBlockImpl$u_step_down_mux/BPortImpl$clk1_i/junction0" transform="translate(45, 141)" class="sprotty-junction junction" style="fill:rgb(112, 112, 112);stroke:none;"/></g><g id="sprotty_ArchitectureBlockImpl$prim_clock_div/GenerateStatementBlockImpl$null6/GPortImpl$clk_i_to_ArchitectureBlockImpl$prim_clock_div/GenerateStatementBlockImpl$null6/AlwaysBlockImpl$null8/GPortImpl$clk_iIN" class="sprotty-edge edge" style="fill:none;stroke:rgb(112, 112, 112);stroke-linejoin:round;"><g><path d="M 0 35 L 43 35 C 44 35 45 36 45 37 L 45 407 C 45 408 46 409 47 409 L 55 409 "/><path d="M 0 35 L 43 35 C 44 35 45 36 45 37 L 45 407 C 45 408 46 409 47 409 L 55 409 " class="clickable"/></g></g><g id="sprotty_ArchitectureBlockImpl$prim_clock_div/GenerateStatementBlockImpl$null6/GPortImpl$rst_ni_to_ArchitectureBlockImpl$prim_clock_div/GenerateStatementBlockImpl$null6/AlwaysBlockImpl$null8/GPortImpl$rst_niIN" class="sprotty-edge edge" style="fill:none;stroke:rgb(112, 112, 112);stroke-linejoin:round;"><g><path d="M 0 273 L 33 273 C 34 273 35 274 35 275 L 35 417 C 35 418 36 419 37 419 L 55 419 "/><path d="M 0 273 L 33 273 C 34 273 35 274 35 275 L 35 417 C 35 418 36 419 37 419 L 55 419 " class="clickable"/></g><circle r="2" id="sprotty_ArchitectureBlockImpl$prim_clock_div/GenerateStatementBlockImpl$null6/GPortImpl$rst_ni_to_ArchitectureBlockImpl$prim_clock_div/GenerateStatementBlockImpl$null6/AlwaysBlockImpl$null8/GPortImpl$rst_niIN/junction0" transform="translate(35, 273)" class="sprotty-junction junction" style="fill:rgb(112, 112, 112);stroke:none;"/></g><g id="sprotty_ArchitectureBlockImpl$prim_clock_div/GenerateStatementBlockImpl$null6/GPortImpl$step_down_req_i_to_ArchitectureBlockImpl$prim_clock_div/GenerateStatementBlockImpl$null6/AlwaysBlockImpl$null8/GPortImpl$step_down_req_iIN" class="sprotty-edge edge" style="fill:none;stroke:rgb(112, 112, 112);stroke-linejoin:round;"><g><path d="M 0 283 L 23 283 C 24 283 25 284 25 285 L 25 427 C 25 428 26 429 27 429 L 55 429 "/><path d="M 0 283 L 23 283 C 24 283 25 284 25 285 L 25 427 C 25 428 26 429 27 429 L 55 429 " class="clickable"/></g></g><g id="sprotty_ArchitectureBlockImpl$prim_clock_div/GenerateStatementBlockImpl$null6/GPortImpl$clk_i_to_ArchitectureBlockImpl$prim_clock_div/GenerateStatementBlockImpl$null6/AlwaysBlockImpl$null7/GPortImpl$clk_iIN" class="sprotty-edge edge" style="fill:none;stroke:rgb(112, 112, 112);stroke-linejoin:round;"><g><path d="M 0 35 L 120.69140625 35 "/><path d="M 0 35 L 120.69140625 35 " class="clickable"/></g></g><g id="sprotty_ArchitectureBlockImpl$prim_clock_div/GenerateStatementBlockImpl$null6/GPortImpl$rst_ni_to_ArchitectureBlockImpl$prim_clock_div/GenerateStatementBlockImpl$null6/AlwaysBlockImpl$null7/GPortImpl$rst_niIN" class="sprotty-edge edge" style="fill:none;stroke:rgb(112, 112, 112);stroke-linejoin:round;"><g><path d="M 0 273 L 33 273 C 34 273 35 272 35 271 L 35 47 C 35 46 36 45 37 45 L 120.69140625 45 "/><path d="M 0 273 L 33 273 C 34 273 35 272 35 271 L 35 47 C 35 46 36 45 37 45 L 120.69140625 45 " class="clickable"/></g></g><g id="sprotty_ArchitectureBlockImpl$prim_clock_div/GenerateStatementBlockImpl$null6/GPortImpl$clk_o_to_ArchitectureBlockImpl$prim_clock_div/GenerateStatementBlockImpl$null6/AlwaysBlockImpl$null7/GPortImpl$clk_oIN" class="sprotty-edge edge" style="fill:none;stroke:rgb(112, 112, 112);stroke-linejoin:round;"><g><path d="M 0 25 L 120.69140625 25 "/><path d="M 0 25 L 120.69140625 25 " class="clickable"/></g></g><g id="sprotty_ArchitectureBlockImpl$prim_clock_div/GenerateStatementBlockImpl$null6/GPortImpl$clk_i_to_ArchitectureBlockImpl$prim_clock_div/GenerateStatementBlockImpl$null6/AlwaysBlockImpl$null6/GPortImpl$clk_iIN" class="sprotty-edge edge" style="fill:none;stroke:rgb(112, 112, 112);stroke-linejoin:round;"><g><path d="M 0 35 L 43 35 C 44 35 45 36 45 37 L 45 347 C 45 348 46 349 47 349 L 120.69140625 349 "/><path d="M 0 35 L 43 35 C 44 35 45 36 45 37 L 45 347 C 45 348 46 349 47 349 L 120.69140625 349 " class="clickable"/></g><circle r="2" id="sprotty_ArchitectureBlockImpl$prim_clock_div/GenerateStatementBlockImpl$null6/GPortImpl$clk_i_to_ArchitectureBlockImpl$prim_clock_div/GenerateStatementBlockImpl$null6/AlwaysBlockImpl$null6/GPortImpl$clk_iIN/junction0" transform="translate(45, 349)" class="sprotty-junction junction" style="fill:rgb(112, 112, 112);stroke:none;"/></g><g id="sprotty_ArchitectureBlockImpl$prim_clock_div/GenerateStatementBlockImpl$null6/GPortImpl$rst_ni_to_ArchitectureBlockImpl$prim_clock_div/GenerateStatementBlockImpl$null6/AlwaysBlockImpl$null6/GPortImpl$rst_niIN" class="sprotty-edge edge" style="fill:none;stroke:rgb(112, 112, 112);stroke-linejoin:round;"><g><path d="M 0 273 L 33 273 C 34 273 35 274 35 275 L 35 357 C 35 358 36 359 37 359 L 120.69140625 359 "/><path d="M 0 273 L 33 273 C 34 273 35 274 35 275 L 35 357 C 35 358 36 359 37 359 L 120.69140625 359 " class="clickable"/></g><circle r="2" id="sprotty_ArchitectureBlockImpl$prim_clock_div/GenerateStatementBlockImpl$null6/GPortImpl$rst_ni_to_ArchitectureBlockImpl$prim_clock_div/GenerateStatementBlockImpl$null6/AlwaysBlockImpl$null6/GPortImpl$rst_niIN/junction0" transform="translate(35, 359)" class="sprotty-junction junction" style="fill:rgb(112, 112, 112);stroke:none;"/></g><g id="sprotty_ArchitectureBlockImpl$prim_clock_div/GenerateStatementBlockImpl$null6/GPortImpl$step_down_req_i_to_ArchitectureBlockImpl$prim_clock_div/GenerateStatementBlockImpl$null6/AlwaysBlockImpl$null6/GPortImpl$step_down_req_iIN" class="sprotty-edge edge" style="fill:none;stroke:rgb(112, 112, 112);stroke-linejoin:round;"><g><path d="M 0 283 L 23 283 C 24 283 25 284 25 285 L 25 367 C 25 368 26 369 27 369 L 120.69140625 369 "/><path d="M 0 283 L 23 283 C 24 283 25 284 25 285 L 25 367 C 25 368 26 369 27 369 L 120.69140625 369 " class="clickable"/></g><circle r="2" id="sprotty_ArchitectureBlockImpl$prim_clock_div/GenerateStatementBlockImpl$null6/GPortImpl$step_down_req_i_to_ArchitectureBlockImpl$prim_clock_div/GenerateStatementBlockImpl$null6/AlwaysBlockImpl$null6/GPortImpl$step_down_req_iIN/junction0" transform="translate(25, 369)" class="sprotty-junction junction" style="fill:rgb(112, 112, 112);stroke:none;"/></g><g id="sprotty_ArchitectureBlockImpl$prim_clock_div/GenerateStatementBlockImpl$null6/InstantiationBlockImpl$u_step_down_mux/BPortImpl$clk_o_to_ArchitectureBlockImpl$prim_clock_div/GenerateStatementBlockImpl$null6/GPortImpl$clk_int" class="sprotty-edge edge" style="fill:none;stroke:rgb(112, 112, 112);stroke-linejoin:round;"><g><path d="M 366.65625 141 L 374.65625 141 C 375.65625 141 376.65625 140 376.65625 139 L 376.65625 37 C 376.65625 36 377.65625 35 378.65625 35 L 401.65625 35 "/><path d="M 366.65625 141 L 374.65625 141 C 375.65625 141 376.65625 140 376.65625 139 L 376.65625 37 C 376.65625 36 377.65625 35 378.65625 35 L 401.65625 35 " class="clickable"/></g><circle r="2" id="sprotty_ArchitectureBlockImpl$prim_clock_div/GenerateStatementBlockImpl$null6/InstantiationBlockImpl$u_step_down_mux/BPortImpl$clk_o_to_ArchitectureBlockImpl$prim_clock_div/GenerateStatementBlockImpl$null6/GPortImpl$clk_int/junction0" transform="translate(376.65625, 35)" class="sprotty-junction junction" style="fill:rgb(112, 112, 112);stroke:none;"/></g><g id="sprotty_ArchitectureBlockImpl$prim_clock_div/GenerateStatementBlockImpl$null6/AlwaysBlockImpl$null7/GPortImpl$clk_intOUT_to_ArchitectureBlockImpl$prim_clock_div/GenerateStatementBlockImpl$null6/GPortImpl$clk_int" class="sprotty-edge edge" style="fill:none;stroke:rgb(112, 112, 112);stroke-linejoin:round;"><g><path d="M 169.58203125 35 L 401.65625 35 "/><path d="M 169.58203125 35 L 401.65625 35 " class="clickable"/></g></g><g id="sprotty_ArchitectureBlockImpl$prim_clock_div/GenerateStatementBlockImpl$null6/AlwaysBlockImpl$null6" transform="translate(120.69140625, 339)" class="statement"><rect x="0" y="0" rx="10" ry="5" width="48.890625" height="40" class="sprotty-node" style="fill:rgb(245, 245, 245);stroke:rgb(112, 112, 112);"/><text class="clickable sprotty-label statementtype" id="sprotty_ArchitectureBlockImpl$prim_clock_div/GenerateStatementBlockImpl$null6/AlwaysBlockImpl$null6/labeltype" transform="translate(5, 14) translate(18.828125, 9)" style="cursor:default;font-size:8px;font-weight:700;perspective-origin:0.609375px 0px;fill:rgb(112, 112, 112);text-anchor:middle;">always_ff</text><g id="sprotty_ArchitectureBlockImpl$prim_clock_div/GenerateStatementBlockImpl$null6/AlwaysBlockImpl$null6/GPortImpl$step_down_req_iIN" transform="translate(0, 30)" class="sprotty-hidden hidden" style="display:block;height:0px;width:0px;"/><g id="sprotty_ArchitectureBlockImpl$prim_clock_div/GenerateStatementBlockImpl$null6/AlwaysBlockImpl$null6/GPortImpl$rst_niIN" transform="translate(0, 20)" class="sprotty-hidden hidden" style="display:block;height:0px;width:0px;"/><g id="sprotty_ArchitectureBlockImpl$prim_clock_div/GenerateStatementBlockImpl$null6/AlwaysBlockImpl$null6/GPortImpl$clk_iIN" transform="translate(0, 10)" class="sprotty-hidden hidden" style="display:block;height:0px;width:0px;"/><g id="sprotty_ArchitectureBlockImpl$prim_clock_div/GenerateStatementBlockImpl$null6/AlwaysBlockImpl$null6/GPortImpl$step_down_ack_oOUT" transform="translate(48.890625, 20)" class="sprotty-hidden hidden" style="display:block;height:0px;width:0px;"/></g><g id="sprotty_ArchitectureBlockImpl$prim_clock_div/GenerateStatementBlockImpl$null6/AlwaysBlockImpl$null7" transform="translate(120.69140625, 15)" class="statement"><rect x="0" y="0" rx="10" ry="5" width="48.890625" height="40" class="sprotty-node" style="fill:rgb(245, 245, 245);stroke:rgb(112, 112, 112);"/><text class="clickable sprotty-label statementtype" id="sprotty_ArchitectureBlockImpl$prim_clock_div/GenerateStatementBlockImpl$null6/AlwaysBlockImpl$null7/labeltype" transform="translate(5, 14) translate(18.828125, 9)" style="cursor:default;font-size:8px;font-weight:700;perspective-origin:0.609375px 0px;fill:rgb(112, 112, 112);text-anchor:middle;">always_ff</text><g id="sprotty_ArchitectureBlockImpl$prim_clock_div/GenerateStatementBlockImpl$null6/AlwaysBlockImpl$null7/GPortImpl$clk_oIN" transform="translate(0, 10)" class="sprotty-hidden hidden" style="display:block;height:0px;width:0px;"/><g id="sprotty_ArchitectureBlockImpl$prim_clock_div/GenerateStatementBlockImpl$null6/AlwaysBlockImpl$null7/GPortImpl$rst_niIN" transform="translate(0, 30)" class="sprotty-hidden hidden" style="display:block;height:0px;width:0px;"/><g id="sprotty_ArchitectureBlockImpl$prim_clock_div/GenerateStatementBlockImpl$null6/AlwaysBlockImpl$null7/GPortImpl$clk_iIN" transform="translate(0, 20)" class="sprotty-hidden hidden" style="display:block;height:0px;width:0px;"/><g id="sprotty_ArchitectureBlockImpl$prim_clock_div/GenerateStatementBlockImpl$null6/AlwaysBlockImpl$null7/GPortImpl$clk_intOUT" transform="translate(48.890625, 20)" class="sprotty-hidden hidden" style="display:block;height:0px;width:0px;"/></g><g id="sprotty_ArchitectureBlockImpl$prim_clock_div/GenerateStatementBlockImpl$null6/AlwaysBlockImpl$null8" transform="translate(55, 399)" class="statement"><rect x="0" y="0" rx="10" ry="5" width="48.890625" height="40" class="sprotty-node" style="fill:rgb(245, 245, 245);stroke:rgb(112, 112, 112);"/><text class="clickable sprotty-label statementtype" id="sprotty_ArchitectureBlockImpl$prim_clock_div/GenerateStatementBlockImpl$null6/AlwaysBlockImpl$null8/labeltype" transform="translate(5, 14) translate(18.828125, 9)" style="cursor:default;font-size:8px;font-weight:700;perspective-origin:0.609375px 0px;fill:rgb(112, 112, 112);text-anchor:middle;">always_ff</text><g id="sprotty_ArchitectureBlockImpl$prim_clock_div/GenerateStatementBlockImpl$null6/AlwaysBlockImpl$null8/GPortImpl$step_down_req_iIN" transform="translate(0, 30)" class="sprotty-hidden hidden" style="display:block;height:0px;width:0px;"/><g id="sprotty_ArchitectureBlockImpl$prim_clock_div/GenerateStatementBlockImpl$null6/AlwaysBlockImpl$null8/GPortImpl$rst_niIN" transform="translate(0, 20)" class="sprotty-hidden hidden" style="display:block;height:0px;width:0px;"/><g id="sprotty_ArchitectureBlockImpl$prim_clock_div/GenerateStatementBlockImpl$null6/AlwaysBlockImpl$null8/GPortImpl$clk_iIN" transform="translate(0, 10)" class="sprotty-hidden hidden" style="display:block;height:0px;width:0px;"/></g><g id="sprotty_ArchitectureBlockImpl$prim_clock_div/GenerateStatementBlockImpl$null6/AssignmentBlockImpl$limit" transform="translate(15, 459)" class="statement"><rect x="0" y="0" rx="10" ry="5" width="19.71875" height="22" class="sprotty-node" style="fill:rgb(245, 245, 245);stroke:rgb(112, 112, 112);"/><text class="clickable sprotty-label statementtype" id="sprotty_ArchitectureBlockImpl$prim_clock_div/GenerateStatementBlockImpl$null6/AssignmentBlockImpl$limit/labeltype" transform="translate(5, 5) translate(4.71875, 9)" style="cursor:default;font-size:8px;font-weight:700;perspective-origin:0.140625px 0px;fill:rgb(112, 112, 112);text-anchor:middle;">&lt;=</text></g><g id="sprotty_ArchitectureBlockImpl$prim_clock_div/GenerateStatementBlockImpl$null6/AssignmentBlockImpl$step_down_ack_o" transform="translate(54.71875, 459)" class="statement"><rect x="0" y="0" rx="10" ry="5" width="19.71875" height="22" class="sprotty-node" style="fill:rgb(245, 245, 245);stroke:rgb(112, 112, 112);"/><text class="clickable sprotty-label statementtype" id="sprotty_ArchitectureBlockImpl$prim_clock_div/GenerateStatementBlockImpl$null6/AssignmentBlockImpl$step_down_ack_o/labeltype" transform="translate(5, 5) translate(4.71875, 9)" style="cursor:default;font-size:8px;font-weight:700;perspective-origin:0.140625px 0px;fill:rgb(112, 112, 112);text-anchor:middle;">&lt;=</text></g><g id="sprotty_ArchitectureBlockImpl$prim_clock_div/GenerateStatementBlockImpl$null6/InstantiationBlockImpl$u_step_down_mux" transform="translate(55, 75)" class="instantiation"><g class="sprotty-block" style="fill:rgb(255, 255, 255);stroke:rgb(48, 48, 48);stroke-dasharray:0px;"><rect x="0" y="0" rx="1" ry="1" width="311.65625" height="112"/><text x="155.828125" y="12" class="sprotty-block-name" style="cursor:pointer;font-weight:700;perspective-origin:155.828px 0px;fill:rgb(48, 48, 48);stroke:rgba(0, 0, 0, 0);dominant-baseline:middle;text-anchor:middle;">u_step_down_mux : prim_clock_mux2</text><line x1="0" y1="20" x2="311.65625" y2="20"/></g><g id="sprotty_ArchitectureBlockImpl$prim_clock_div/GenerateStatementBlockImpl$null6/InstantiationBlockImpl$u_step_down_mux/BPortImpl$sel_i" transform="translate(0, 94)" class="triangle"><path d="M 0,0 L 5,2.5 L 0,5 Z" transform="translate(-1.67, -2.5)" class="sprotty-port" style="fill:rgb(48, 48, 48);stroke:rgb(48, 48, 48);"/><text class="clickable sprotty-label port" id="sprotty_ArchitectureBlockImpl$prim_clock_div/GenerateStatementBlockImpl$null6/InstantiationBlockImpl$u_step_down_mux/BPortImpl$sel_i/label" transform="translate(6, -9) translate(12.859375, 14)" style="cursor:default;font-size:12px;perspective-origin:0px 0px;fill:rgb(48, 48, 48);text-anchor:middle;">sel_i</text></g><g id="sprotty_ArchitectureBlockImpl$prim_clock_div/GenerateStatementBlockImpl$null6/InstantiationBlockImpl$u_step_down_mux/BPortImpl$clk1_i" transform="translate(0, 66)" class="triangle"><path d="M 0,0 L 5,2.5 L 0,5 Z" transform="translate(-1.67, -2.5)" class="sprotty-port" style="fill:rgb(48, 48, 48);stroke:rgb(48, 48, 48);"/><text class="clickable sprotty-label port" id="sprotty_ArchitectureBlockImpl$prim_clock_div/GenerateStatementBlockImpl$null6/InstantiationBlockImpl$u_step_down_mux/BPortImpl$clk1_i/label" transform="translate(6, -9) translate(16.421875, 14)" style="cursor:default;font-size:12px;perspective-origin:0px 0px;fill:rgb(48, 48, 48);text-anchor:middle;">clk1_i</text></g><g id="sprotty_ArchitectureBlockImpl$prim_clock_div/GenerateStatementBlockImpl$null6/InstantiationBlockImpl$u_step_down_mux/BPortImpl$clk0_i" transform="translate(0, 38)" class="triangle"><path d="M 0,0 L 5,2.5 L 0,5 Z" transform="translate(-1.67, -2.5)" class="sprotty-port" style="fill:rgb(48, 48, 48);stroke:rgb(48, 48, 48);"/><text class="clickable sprotty-label port" id="sprotty_ArchitectureBlockImpl$prim_clock_div/GenerateStatementBlockImpl$null6/InstantiationBlockImpl$u_step_down_mux/BPortImpl$clk0_i/label" transform="translate(6, -9) translate(16.421875, 14)" style="cursor:default;font-size:12px;perspective-origin:0px 0px;fill:rgb(48, 48, 48);text-anchor:middle;">clk0_i</text></g><g id="sprotty_ArchitectureBlockImpl$prim_clock_div/GenerateStatementBlockImpl$null6/InstantiationBlockImpl$u_step_down_mux/BPortImpl$clk_o" transform="translate(311.65625, 66)" class="triangle"><path d="M 0,0 L 5,2.5 L 0,5 Z" transform="translate(-1.67, -2.5)" class="sprotty-port" style="fill:rgb(48, 48, 48);stroke:rgb(48, 48, 48);"/><text class="clickable sprotty-label port" id="sprotty_ArchitectureBlockImpl$prim_clock_div/GenerateStatementBlockImpl$null6/InstantiationBlockImpl$u_step_down_mux/BPortImpl$clk_o/label" transform="translate(-36.15625, -9) translate(15.078125, 14)" style="cursor:default;font-size:12px;perspective-origin:0px 0px;fill:rgb(48, 48, 48);text-anchor:middle;">clk_o</text></g></g><g id="sprotty_ArchitectureBlockImpl$prim_clock_div/GenerateStatementBlockImpl$null6/InstantiationBlockImpl$u_inv" transform="translate(15, 501)" class="instantiation"><g class="sprotty-block" style="fill:rgb(255, 255, 255);stroke:rgb(48, 48, 48);stroke-dasharray:0px;"><rect x="0" y="0" rx="1" ry="1" width="185.71875" height="84"/><text x="92.859375" y="12" class="sprotty-block-name" style="cursor:pointer;font-weight:700;perspective-origin:92.8594px 0px;fill:rgb(48, 48, 48);stroke:rgba(0, 0, 0, 0);dominant-baseline:middle;text-anchor:middle;">u_inv : prim_clock_inv</text><line x1="0" y1="20" x2="185.71875" y2="20"/></g><g id="sprotty_ArchitectureBlockImpl$prim_clock_div/GenerateStatementBlockImpl$null6/InstantiationBlockImpl$u_inv/BPortImpl$scanmode_i" transform="translate(0, 66)" class="triangle"><path d="M 0,0 L 5,2.5 L 0,5 Z" transform="translate(-1.67, -2.5)" class="sprotty-port" style="fill:rgb(48, 48, 48);stroke:rgb(48, 48, 48);"/><text class="clickable sprotty-label port" id="sprotty_ArchitectureBlockImpl$prim_clock_div/GenerateStatementBlockImpl$null6/InstantiationBlockImpl$u_inv/BPortImpl$scanmode_i/label" transform="translate(6, -9) translate(34.09375, 14)" style="cursor:default;font-size:12px;perspective-origin:0px 0px;fill:rgb(48, 48, 48);text-anchor:middle;">scanmode_i</text></g><g id="sprotty_ArchitectureBlockImpl$prim_clock_div/GenerateStatementBlockImpl$null6/InstantiationBlockImpl$u_inv/BPortImpl$clk_i" transform="translate(0, 38)" class="triangle"><path d="M 0,0 L 5,2.5 L 0,5 Z" transform="translate(-1.67, -2.5)" class="sprotty-port" style="fill:rgb(48, 48, 48);stroke:rgb(48, 48, 48);"/><text class="clickable sprotty-label port" id="sprotty_ArchitectureBlockImpl$prim_clock_div/GenerateStatementBlockImpl$null6/InstantiationBlockImpl$u_inv/BPortImpl$clk_i/label" transform="translate(6, -9) translate(13.09375, 14)" style="cursor:default;font-size:12px;perspective-origin:0px 0px;fill:rgb(48, 48, 48);text-anchor:middle;">clk_i</text></g><g id="sprotty_ArchitectureBlockImpl$prim_clock_div/GenerateStatementBlockImpl$null6/InstantiationBlockImpl$u_inv/BPortImpl$clk_no" transform="translate(185.71875, 52)" class="triangle"><path d="M 0,0 L 5,2.5 L 0,5 Z" transform="translate(-1.67, -2.5)" class="sprotty-port" style="fill:rgb(48, 48, 48);stroke:rgb(48, 48, 48);"/><text class="clickable sprotty-label port" id="sprotty_ArchitectureBlockImpl$prim_clock_div/GenerateStatementBlockImpl$null6/InstantiationBlockImpl$u_inv/BPortImpl$clk_no/label" transform="translate(-43.46875, -9) translate(18.734375, 14)" style="cursor:default;font-size:12px;perspective-origin:0px 0px;fill:rgb(48, 48, 48);text-anchor:middle;">clk_no</text></g></g><g id="sprotty_ArchitectureBlockImpl$prim_clock_div/GenerateStatementBlockImpl$null6/InstantiationBlockImpl$u_div2" transform="translate(55, 207)" class="instantiation"><g class="sprotty-block" style="fill:rgb(255, 255, 255);stroke:rgb(48, 48, 48);stroke-dasharray:0px;"><rect x="0" y="0" rx="1" ry="1" width="151.5" height="112"/><text x="75.75" y="12" class="sprotty-block-name" style="cursor:pointer;font-weight:700;perspective-origin:75.75px 0px;fill:rgb(48, 48, 48);stroke:rgba(0, 0, 0, 0);dominant-baseline:middle;text-anchor:middle;">u_div2 : prim_flop</text><line x1="0" y1="20" x2="151.5" y2="20"/></g><g id="sprotty_ArchitectureBlockImpl$prim_clock_div/GenerateStatementBlockImpl$null6/InstantiationBlockImpl$u_div2/BPortImpl$d_i" transform="translate(0, 94)" class="triangle"><path d="M 0,0 L 5,2.5 L 0,5 Z" transform="translate(-1.67, -2.5)" class="sprotty-port" style="fill:rgb(48, 48, 48);stroke:rgb(48, 48, 48);"/><text class="clickable sprotty-label port" id="sprotty_ArchitectureBlockImpl$prim_clock_div/GenerateStatementBlockImpl$null6/InstantiationBlockImpl$u_div2/BPortImpl$d_i/label" transform="translate(6, -9) translate(8.734375, 14)" style="cursor:default;font-size:12px;perspective-origin:0px 0px;fill:rgb(48, 48, 48);text-anchor:middle;">d_i</text></g><g id="sprotty_ArchitectureBlockImpl$prim_clock_div/GenerateStatementBlockImpl$null6/InstantiationBlockImpl$u_div2/BPortImpl$rst_ni" transform="translate(0, 66)" class="triangle"><path d="M 0,0 L 5,2.5 L 0,5 Z" transform="translate(-1.67, -2.5)" class="sprotty-port" style="fill:rgb(48, 48, 48);stroke:rgb(48, 48, 48);"/><text class="clickable sprotty-label port" id="sprotty_ArchitectureBlockImpl$prim_clock_div/GenerateStatementBlockImpl$null6/InstantiationBlockImpl$u_div2/BPortImpl$rst_ni/label" transform="translate(6, -9) translate(15.921875, 14)" style="cursor:default;font-size:12px;perspective-origin:0px 0px;fill:rgb(48, 48, 48);text-anchor:middle;">rst_ni</text></g><g id="sprotty_ArchitectureBlockImpl$prim_clock_div/GenerateStatementBlockImpl$null6/InstantiationBlockImpl$u_div2/BPortImpl$clk_i" transform="translate(0, 38)" class="triangle"><path d="M 0,0 L 5,2.5 L 0,5 Z" transform="translate(-1.67, -2.5)" class="sprotty-port" style="fill:rgb(48, 48, 48);stroke:rgb(48, 48, 48);"/><text class="clickable sprotty-label port" id="sprotty_ArchitectureBlockImpl$prim_clock_div/GenerateStatementBlockImpl$null6/InstantiationBlockImpl$u_div2/BPortImpl$clk_i/label" transform="translate(6, -9) translate(13.09375, 14)" style="cursor:default;font-size:12px;perspective-origin:0px 0px;fill:rgb(48, 48, 48);text-anchor:middle;">clk_i</text></g><g id="sprotty_ArchitectureBlockImpl$prim_clock_div/GenerateStatementBlockImpl$null6/InstantiationBlockImpl$u_div2/BPortImpl$q_o" transform="translate(151.5, 66)" class="triangle"><path d="M 0,0 L 5,2.5 L 0,5 Z" transform="translate(-1.67, -2.5)" class="sprotty-port" style="fill:rgb(48, 48, 48);stroke:rgb(48, 48, 48);"/><text class="clickable sprotty-label port" id="sprotty_ArchitectureBlockImpl$prim_clock_div/GenerateStatementBlockImpl$null6/InstantiationBlockImpl$u_div2/BPortImpl$q_o/label" transform="translate(-27.4375, -9) translate(10.71875, 14)" style="cursor:default;font-size:12px;perspective-origin:0px 0px;fill:rgb(48, 48, 48);text-anchor:middle;">q_o</text></g></g><g id="sprotty_ArchitectureBlockImpl$prim_clock_div/GenerateStatementBlockImpl$null6/GPortImpl$clk_o" transform="translate(0, 25)" class="triangle"><path d="M 0,0 L 5,2.5 L 0,5 Z" transform="translate(-1.67, -2.5)" class="sprotty-port" style="fill:rgb(48, 48, 48);stroke:rgb(48, 48, 48);"/></g><g id="sprotty_ArchitectureBlockImpl$prim_clock_div/GenerateStatementBlockImpl$null6/GPortImpl$step_down_req_i" transform="translate(0, 283)" class="triangle"><path d="M 0,0 L 5,2.5 L 0,5 Z" transform="translate(-1.67, -2.5)" class="sprotty-port" style="fill:rgb(48, 48, 48);stroke:rgb(48, 48, 48);"/></g><g id="sprotty_ArchitectureBlockImpl$prim_clock_div/GenerateStatementBlockImpl$null6/GPortImpl$rst_ni" transform="translate(0, 273)" class="triangle"><path d="M 0,0 L 5,2.5 L 0,5 Z" transform="translate(-1.67, -2.5)" class="sprotty-port" style="fill:rgb(48, 48, 48);stroke:rgb(48, 48, 48);"/></g><g id="sprotty_ArchitectureBlockImpl$prim_clock_div/GenerateStatementBlockImpl$null6/GPortImpl$clk_i" transform="translate(0, 35)" class="triangle"><path d="M 0,0 L 5,2.5 L 0,5 Z" transform="translate(-1.67, -2.5)" class="sprotty-port" style="fill:rgb(48, 48, 48);stroke:rgb(48, 48, 48);"/></g><g id="sprotty_ArchitectureBlockImpl$prim_clock_div/GenerateStatementBlockImpl$null6/GPortImpl$step_down_ack_o" transform="translate(401.65625, 359)" class="triangle"><path d="M 0,0 L 5,2.5 L 0,5 Z" transform="translate(-1.67, -2.5)" class="sprotty-port" style="fill:rgb(48, 48, 48);stroke:rgb(48, 48, 48);"/></g><g id="sprotty_ArchitectureBlockImpl$prim_clock_div/GenerateStatementBlockImpl$null6/GPortImpl$clk_int" transform="translate(401.65625, 35)" class="triangle"><path d="M 0,0 L 5,2.5 L 0,5 Z" transform="translate(-1.67, -2.5)" class="sprotty-port" style="fill:rgb(48, 48, 48);stroke:rgb(48, 48, 48);"/></g></g><g id="sprotty_ArchitectureBlockImpl$prim_clock_div/InstantiationBlockImpl$u_clk_div_buf" transform="translate(848.03125, 63)" class="instantiation"><g class="sprotty-block" style="fill:rgb(255, 255, 255);stroke:rgb(48, 48, 48);stroke-dasharray:0px;"><rect x="0" y="0" rx="1" ry="1" width="256.671875" height="56"/><text x="128.3359375" y="12" class="sprotty-block-name" style="cursor:pointer;font-weight:700;perspective-origin:128.859px 0px;fill:rgb(48, 48, 48);stroke:rgba(0, 0, 0, 0);dominant-baseline:middle;text-anchor:middle;">u_clk_div_buf : prim_clock_buf</text><line x1="0" y1="20" x2="256.671875" y2="20"/></g><g id="sprotty_ArchitectureBlockImpl$prim_clock_div/InstantiationBlockImpl$u_clk_div_buf/BPortImpl$clk_i" transform="translate(0, 38)" class="triangle"><path d="M 0,0 L 5,2.5 L 0,5 Z" transform="translate(-1.67, -2.5)" class="sprotty-port" style="fill:rgb(48, 48, 48);stroke:rgb(48, 48, 48);"/><text class="clickable sprotty-label port" id="sprotty_ArchitectureBlockImpl$prim_clock_div/InstantiationBlockImpl$u_clk_div_buf/BPortImpl$clk_i/label" transform="translate(6, -9) translate(13.09375, 14)" style="cursor:default;font-size:12px;perspective-origin:0px 0px;fill:rgb(48, 48, 48);text-anchor:middle;">clk_i</text></g><g id="sprotty_ArchitectureBlockImpl$prim_clock_div/InstantiationBlockImpl$u_clk_div_buf/BPortImpl$clk_o" transform="translate(256.671875, 38)" class="triangle"><path d="M 0,0 L 5,2.5 L 0,5 Z" transform="translate(-1.67, -2.5)" class="sprotty-port" style="fill:rgb(48, 48, 48);stroke:rgb(48, 48, 48);"/><text class="clickable sprotty-label port" id="sprotty_ArchitectureBlockImpl$prim_clock_div/InstantiationBlockImpl$u_clk_div_buf/BPortImpl$clk_o/label" transform="translate(-36.15625, -9) translate(15.078125, 14)" style="cursor:default;font-size:12px;perspective-origin:0px 0px;fill:rgb(48, 48, 48);text-anchor:middle;">clk_o</text></g></g><g id="sprotty_ArchitectureBlockImpl$prim_clock_div/InstantiationBlockImpl$u_clk_mux" transform="translate(580.125, 35)" class="instantiation"><g class="sprotty-block" style="fill:rgb(255, 255, 255);stroke:rgb(48, 48, 48);stroke-dasharray:0px;"><rect x="0" y="0" rx="1" ry="1" width="247.90625" height="112"/><text x="123.953125" y="12" class="sprotty-block-name" style="cursor:pointer;font-weight:700;perspective-origin:123.953px 0px;fill:rgb(48, 48, 48);stroke:rgba(0, 0, 0, 0);dominant-baseline:middle;text-anchor:middle;">u_clk_mux : prim_clock_mux2</text><line x1="0" y1="20" x2="247.90625" y2="20"/></g><g id="sprotty_ArchitectureBlockImpl$prim_clock_div/InstantiationBlockImpl$u_clk_mux/BPortImpl$sel_i" transform="translate(0, 94)" class="triangle"><path d="M 0,0 L 5,2.5 L 0,5 Z" transform="translate(-1.67, -2.5)" class="sprotty-port" style="fill:rgb(48, 48, 48);stroke:rgb(48, 48, 48);"/><text class="clickable sprotty-label port" id="sprotty_ArchitectureBlockImpl$prim_clock_div/InstantiationBlockImpl$u_clk_mux/BPortImpl$sel_i/label" transform="translate(6, -9) translate(12.859375, 14)" style="cursor:default;font-size:12px;perspective-origin:0px 0px;fill:rgb(48, 48, 48);text-anchor:middle;">sel_i</text></g><g id="sprotty_ArchitectureBlockImpl$prim_clock_div/InstantiationBlockImpl$u_clk_mux/BPortImpl$clk1_i" transform="translate(0, 66)" class="triangle"><path d="M 0,0 L 5,2.5 L 0,5 Z" transform="translate(-1.67, -2.5)" class="sprotty-port" style="fill:rgb(48, 48, 48);stroke:rgb(48, 48, 48);"/><text class="clickable sprotty-label port" id="sprotty_ArchitectureBlockImpl$prim_clock_div/InstantiationBlockImpl$u_clk_mux/BPortImpl$clk1_i/label" transform="translate(6, -9) translate(16.421875, 14)" style="cursor:default;font-size:12px;perspective-origin:0px 0px;fill:rgb(48, 48, 48);text-anchor:middle;">clk1_i</text></g><g id="sprotty_ArchitectureBlockImpl$prim_clock_div/InstantiationBlockImpl$u_clk_mux/BPortImpl$clk0_i" transform="translate(0, 38)" class="triangle"><path d="M 0,0 L 5,2.5 L 0,5 Z" transform="translate(-1.67, -2.5)" class="sprotty-port" style="fill:rgb(48, 48, 48);stroke:rgb(48, 48, 48);"/><text class="clickable sprotty-label port" id="sprotty_ArchitectureBlockImpl$prim_clock_div/InstantiationBlockImpl$u_clk_mux/BPortImpl$clk0_i/label" transform="translate(6, -9) translate(16.421875, 14)" style="cursor:default;font-size:12px;perspective-origin:0px 0px;fill:rgb(48, 48, 48);text-anchor:middle;">clk0_i</text></g><g id="sprotty_ArchitectureBlockImpl$prim_clock_div/InstantiationBlockImpl$u_clk_mux/BPortImpl$clk_o" transform="translate(247.90625, 66)" class="triangle"><path d="M 0,0 L 5,2.5 L 0,5 Z" transform="translate(-1.67, -2.5)" class="sprotty-port" style="fill:rgb(48, 48, 48);stroke:rgb(48, 48, 48);"/><text class="clickable sprotty-label port" id="sprotty_ArchitectureBlockImpl$prim_clock_div/InstantiationBlockImpl$u_clk_mux/BPortImpl$clk_o/label" transform="translate(-36.15625, -9) translate(15.078125, 14)" style="cursor:default;font-size:12px;perspective-origin:0px 0px;fill:rgb(48, 48, 48);text-anchor:middle;">clk_o</text></g></g><g id="sprotty_ArchitectureBlockImpl$prim_clock_div/BPortImpl$test_en_i" transform="translate(0, 67)" class="triangle"><path d="M 0,0 L 5,2.5 L 0,5 Z" transform="translate(-1.67, -2.5)" class="sprotty-port" style="fill:rgb(48, 48, 48);stroke:rgb(48, 48, 48);"/><text class="clickable sprotty-label port" id="sprotty_ArchitectureBlockImpl$prim_clock_div/BPortImpl$test_en_i/label" transform="translate(6, 6) translate(25.796875, 14)" style="cursor:default;font-size:12px;perspective-origin:0px 0px;fill:rgb(48, 48, 48);text-anchor:middle;">test_en_i</text></g><g id="sprotty_ArchitectureBlockImpl$prim_clock_div/BPortImpl$step_down_req_i" transform="translate(0, 475)" class="triangle"><path d="M 0,0 L 5,2.5 L 0,5 Z" transform="translate(-1.67, -2.5)" class="sprotty-port" style="fill:rgb(48, 48, 48);stroke:rgb(48, 48, 48);"/><text class="clickable sprotty-label port" id="sprotty_ArchitectureBlockImpl$prim_clock_div/BPortImpl$step_down_req_i/label" transform="translate(6, 6) translate(48.734375, 14)" style="cursor:default;font-size:12px;perspective-origin:0px 0px;fill:rgb(48, 48, 48);text-anchor:middle;">step_down_req_i</text></g><g id="sprotty_ArchitectureBlockImpl$prim_clock_div/BPortImpl$rst_ni" transform="translate(0, 441)" class="triangle"><path d="M 0,0 L 5,2.5 L 0,5 Z" transform="translate(-1.67, -2.5)" class="sprotty-port" style="fill:rgb(48, 48, 48);stroke:rgb(48, 48, 48);"/><text class="clickable sprotty-label port" id="sprotty_ArchitectureBlockImpl$prim_clock_div/BPortImpl$rst_ni/label" transform="translate(6, 6) translate(15.921875, 14)" style="cursor:default;font-size:12px;perspective-origin:0px 0px;fill:rgb(48, 48, 48);text-anchor:middle;">rst_ni</text></g><g id="sprotty_ArchitectureBlockImpl$prim_clock_div/BPortImpl$clk_i" transform="translate(0, 101)" class="triangle"><path d="M 0,0 L 5,2.5 L 0,5 Z" transform="translate(-1.67, -2.5)" class="sprotty-port" style="fill:rgb(48, 48, 48);stroke:rgb(48, 48, 48);"/><text class="clickable sprotty-label port" id="sprotty_ArchitectureBlockImpl$prim_clock_div/BPortImpl$clk_i/label" transform="translate(6, 6) translate(13.09375, 14)" style="cursor:default;font-size:12px;perspective-origin:0px 0px;fill:rgb(48, 48, 48);text-anchor:middle;">clk_i</text></g><g id="sprotty_ArchitectureBlockImpl$prim_clock_div/BPortImpl$step_down_ack_o" transform="translate(1248.015625, 527)" class="triangle"><path d="M 0,0 L 5,2.5 L 0,5 Z" transform="translate(-1.67, -2.5)" class="sprotty-port" style="fill:rgb(48, 48, 48);stroke:rgb(48, 48, 48);"/><text class="clickable sprotty-label port" id="sprotty_ArchitectureBlockImpl$prim_clock_div/BPortImpl$step_down_ack_o/label" transform="translate(-108.3125, 6) translate(51.15625, 14)" style="cursor:default;font-size:12px;perspective-origin:0px 0px;fill:rgb(48, 48, 48);text-anchor:middle;">step_down_ack_o</text></g><g id="sprotty_ArchitectureBlockImpl$prim_clock_div/BPortImpl$clk_o" transform="translate(1248.015625, 101)" class="triangle"><path d="M 0,0 L 5,2.5 L 0,5 Z" transform="translate(-1.67, -2.5)" class="sprotty-port" style="fill:rgb(48, 48, 48);stroke:rgb(48, 48, 48);"/><text class="clickable sprotty-label port" id="sprotty_ArchitectureBlockImpl$prim_clock_div/BPortImpl$clk_o/label" transform="translate(-36.15625, 6) translate(15.078125, 14)" style="cursor:default;font-size:12px;perspective-origin:0px 0px;fill:rgb(48, 48, 48);text-anchor:middle;">clk_o</text></g></g></g></svg>