<svg xmlns="http://www.w3.org/2000/svg" id="sprotty_work.prim_lc_sender" class="sprotty-graph sprotty-block-diagram blockdiagram" style="font-family:&quot;Noto Sans&quot;, Helvetica, Arial, sans-serif;perspective-origin:0px 0px;transform-origin:0px 0px;" version="1.1" viewBox="7 7 546.4375 178" width="546.4375" height="178"><g transform="scale(1) translate(0,0)"><g id="sprotty_ArchitectureBlockImpl$prim_lc_sender" transform="translate(12, 12)" class="architecture"><g class="sprotty-block" style="fill:rgb(255, 255, 255);stroke:rgb(48, 48, 48);stroke-dasharray:0px;"><rect x="0" y="0" rx="1" ry="1" width="536.4375" height="168"/><text x="268.21875" y="12" class="sprotty-block-name" style="cursor:pointer;font-weight:700;perspective-origin:268.219px 0px;fill:rgb(48, 48, 48);stroke:rgba(0, 0, 0, 0);dominant-baseline:middle;text-anchor:middle;">prim_lc_sender</text><line x1="0" y1="20" x2="536.4375" y2="20"/></g><g id="sprotty_ArchitectureBlockImpl$prim_lc_sender/AssignmentBlockImpl$lc_en_o/GPortImpl$lc_en_oOUT_to_ArchitectureBlockImpl$prim_lc_sender/BPortImpl$lc_en_o" class="sprotty-edge thick edge" style="fill:none;stroke:rgb(112, 112, 112);stroke-linejoin:round;stroke-width:3px;"><g><path d="M 471.21875 101 L 536.4375 101 "/><path d="M 471.21875 101 L 536.4375 101 " class="clickable"/></g></g><g id="sprotty_ArchitectureBlockImpl$prim_lc_sender/BPortImpl$clk_i_to_ArchitectureBlockImpl$prim_lc_sender/InstantiationBlockImpl$u_prim_generic_flop/BPortImpl$clk_i" class="sprotty-edge edge" style="fill:none;stroke:rgb(112, 112, 112);stroke-linejoin:round;"><g><path d="M 0 61 L 88.96875 61 C 89.96875 61 90.96875 62 90.96875 63 L 90.96875 71 C 90.96875 72 91.96875 73 92.96875 73 L 100.96875 73 "/><path d="M 0 61 L 88.96875 61 C 89.96875 61 90.96875 62 90.96875 63 L 90.96875 71 C 90.96875 72 91.96875 73 92.96875 73 L 100.96875 73 " class="clickable"/></g></g><g id="sprotty_ArchitectureBlockImpl$prim_lc_sender/BPortImpl$rst_ni_to_ArchitectureBlockImpl$prim_lc_sender/InstantiationBlockImpl$u_prim_generic_flop/BPortImpl$rst_ni" class="sprotty-edge edge" style="fill:none;stroke:rgb(112, 112, 112);stroke-linejoin:round;"><g><path d="M 0 95 L 88.96875 95 C 89.96875 95 90.96875 96 90.96875 97 L 90.96875 99 C 90.96875 100 91.96875 101 92.96875 101 L 100.96875 101 "/><path d="M 0 95 L 88.96875 95 C 89.96875 95 90.96875 96 90.96875 97 L 90.96875 99 C 90.96875 100 91.96875 101 92.96875 101 L 100.96875 101 " class="clickable"/></g></g><g id="sprotty_ArchitectureBlockImpl$prim_lc_sender/BPortImpl$lc_en_i_to_ArchitectureBlockImpl$prim_lc_sender/AssignmentBlockImpl$lc_en/GPortImpl$lc_en_iIN" class="sprotty-edge thick edge" style="fill:none;stroke:rgb(112, 112, 112);stroke-linejoin:round;stroke-width:3px;"><g><path d="M 0 129 L 61.25 129 "/><path d="M 0 129 L 61.25 129 " class="clickable"/></g></g><g id="sprotty_ArchitectureBlockImpl$prim_lc_sender/AssignmentBlockImpl$lc_en/GPortImpl$lc_enOUT_to_ArchitectureBlockImpl$prim_lc_sender/InstantiationBlockImpl$u_prim_generic_flop/BPortImpl$d_i" class="sprotty-edge thick edge" style="fill:none;stroke:rgb(112, 112, 112);stroke-linejoin:round;stroke-width:3px;"><g><path d="M 80.96875 129 L 100.96875 129 "/><path d="M 80.96875 129 L 100.96875 129 " class="clickable"/></g></g><g id="sprotty_ArchitectureBlockImpl$prim_lc_sender/InstantiationBlockImpl$u_prim_generic_flop/BPortImpl$q_o_to_ArchitectureBlockImpl$prim_lc_sender/AssignmentBlockImpl$lc_en_o/GPortImpl$lc_en_outIN" class="sprotty-edge thick edge" style="fill:none;stroke:rgb(112, 112, 112);stroke-linejoin:round;stroke-width:3px;"><g><path d="M 431.5 101 L 451.5 101 "/><path d="M 431.5 101 L 451.5 101 " class="clickable"/></g></g><g id="sprotty_ArchitectureBlockImpl$prim_lc_sender/AssignmentBlockImpl$lc_en_o" transform="translate(451.5, 90)" class="statement"><rect x="0" y="0" rx="10" ry="5" width="19.71875" height="22" class="sprotty-node" style="fill:rgb(245, 245, 245);stroke:rgb(112, 112, 112);"/><text class="clickable sprotty-label statementtype" id="sprotty_ArchitectureBlockImpl$prim_lc_sender/AssignmentBlockImpl$lc_en_o/labeltype" transform="translate(5, 5) translate(4.71875, 9)" style="cursor:default;font-size:8px;font-weight:700;perspective-origin:0.140625px 0px;fill:rgb(112, 112, 112);text-anchor:middle;">&lt;=</text><g id="sprotty_ArchitectureBlockImpl$prim_lc_sender/AssignmentBlockImpl$lc_en_o/GPortImpl$lc_en_outIN" transform="translate(0, 11)" class="sprotty-hidden hidden" style="display:block;height:0px;width:0px;"/><g id="sprotty_ArchitectureBlockImpl$prim_lc_sender/AssignmentBlockImpl$lc_en_o/GPortImpl$lc_en_oOUT" transform="translate(19.71875, 11)" class="sprotty-hidden hidden" style="display:block;height:0px;width:0px;"/></g><g id="sprotty_ArchitectureBlockImpl$prim_lc_sender/AssignmentBlockImpl$lc_en" transform="translate(61.25, 118)" class="statement"><rect x="0" y="0" rx="10" ry="5" width="19.71875" height="22" class="sprotty-node" style="fill:rgb(245, 245, 245);stroke:rgb(112, 112, 112);"/><text class="clickable sprotty-label statementtype" id="sprotty_ArchitectureBlockImpl$prim_lc_sender/AssignmentBlockImpl$lc_en/labeltype" transform="translate(5, 5) translate(4.71875, 9)" style="cursor:default;font-size:8px;font-weight:700;perspective-origin:0.140625px 0px;fill:rgb(112, 112, 112);text-anchor:middle;">&lt;=</text><g id="sprotty_ArchitectureBlockImpl$prim_lc_sender/AssignmentBlockImpl$lc_en/GPortImpl$lc_en_iIN" transform="translate(0, 11)" class="sprotty-hidden hidden" style="display:block;height:0px;width:0px;"/><g id="sprotty_ArchitectureBlockImpl$prim_lc_sender/AssignmentBlockImpl$lc_en/GPortImpl$lc_enOUT" transform="translate(19.71875, 11)" class="sprotty-hidden hidden" style="display:block;height:0px;width:0px;"/></g><g id="sprotty_ArchitectureBlockImpl$prim_lc_sender/InstantiationBlockImpl$u_prim_generic_flop" transform="translate(100.96875, 35)" class="instantiation"><g class="sprotty-block" style="fill:rgb(255, 255, 255);stroke:rgb(48, 48, 48);stroke-dasharray:0px;"><rect x="0" y="0" rx="1" ry="1" width="330.53125" height="112"/><text x="165.265625" y="12" class="sprotty-block-name" style="cursor:pointer;font-weight:700;perspective-origin:165.266px 0px;fill:rgb(48, 48, 48);stroke:rgba(0, 0, 0, 0);dominant-baseline:middle;text-anchor:middle;">u_prim_generic_flop : prim_generic_flop</text><line x1="0" y1="20" x2="330.53125" y2="20"/></g><g id="sprotty_ArchitectureBlockImpl$prim_lc_sender/InstantiationBlockImpl$u_prim_generic_flop/BPortImpl$d_i" transform="translate(0, 94)" class="triangle"><path d="M 0,0 L 5,2.5 L 0,5 Z" transform="translate(-1.67, -2.5)" class="sprotty-port" style="fill:rgb(48, 48, 48);stroke:rgb(48, 48, 48);"/><text class="clickable sprotty-label port" id="sprotty_ArchitectureBlockImpl$prim_lc_sender/InstantiationBlockImpl$u_prim_generic_flop/BPortImpl$d_i/label" transform="translate(6, -9) translate(8.734375, 14)" style="cursor:default;font-size:12px;perspective-origin:0px 0px;fill:rgb(48, 48, 48);text-anchor:middle;">d_i</text></g><g id="sprotty_ArchitectureBlockImpl$prim_lc_sender/InstantiationBlockImpl$u_prim_generic_flop/BPortImpl$rst_ni" transform="translate(0, 66)" class="triangle"><path d="M 0,0 L 5,2.5 L 0,5 Z" transform="translate(-1.67, -2.5)" class="sprotty-port" style="fill:rgb(48, 48, 48);stroke:rgb(48, 48, 48);"/><text class="clickable sprotty-label port" id="sprotty_ArchitectureBlockImpl$prim_lc_sender/InstantiationBlockImpl$u_prim_generic_flop/BPortImpl$rst_ni/label" transform="translate(6, -9) translate(15.921875, 14)" style="cursor:default;font-size:12px;perspective-origin:0px 0px;fill:rgb(48, 48, 48);text-anchor:middle;">rst_ni</text></g><g id="sprotty_ArchitectureBlockImpl$prim_lc_sender/InstantiationBlockImpl$u_prim_generic_flop/BPortImpl$clk_i" transform="translate(0, 38)" class="triangle"><path d="M 0,0 L 5,2.5 L 0,5 Z" transform="translate(-1.67, -2.5)" class="sprotty-port" style="fill:rgb(48, 48, 48);stroke:rgb(48, 48, 48);"/><text class="clickable sprotty-label port" id="sprotty_ArchitectureBlockImpl$prim_lc_sender/InstantiationBlockImpl$u_prim_generic_flop/BPortImpl$clk_i/label" transform="translate(6, -9) translate(13.09375, 14)" style="cursor:default;font-size:12px;perspective-origin:0px 0px;fill:rgb(48, 48, 48);text-anchor:middle;">clk_i</text></g><g id="sprotty_ArchitectureBlockImpl$prim_lc_sender/InstantiationBlockImpl$u_prim_generic_flop/BPortImpl$q_o" transform="translate(330.53125, 66)" class="triangle"><path d="M 0,0 L 5,2.5 L 0,5 Z" transform="translate(-1.67, -2.5)" class="sprotty-port" style="fill:rgb(48, 48, 48);stroke:rgb(48, 48, 48);"/><text class="clickable sprotty-label port" id="sprotty_ArchitectureBlockImpl$prim_lc_sender/InstantiationBlockImpl$u_prim_generic_flop/BPortImpl$q_o/label" transform="translate(-27.4375, -9) translate(10.71875, 14)" style="cursor:default;font-size:12px;perspective-origin:0px 0px;fill:rgb(48, 48, 48);text-anchor:middle;">q_o</text></g></g><g id="sprotty_ArchitectureBlockImpl$prim_lc_sender/BPortImpl$lc_en_i" transform="translate(0, 129)" class="triangle"><path d="M 0,0 L 5,2.5 L 0,5 Z" transform="translate(-1.67, -2.5)" class="sprotty-port" style="fill:rgb(48, 48, 48);stroke:rgb(48, 48, 48);"/><text class="clickable sprotty-label port" id="sprotty_ArchitectureBlockImpl$prim_lc_sender/BPortImpl$lc_en_i/label" transform="translate(6, 6) translate(20.125, 14)" style="cursor:default;font-size:12px;perspective-origin:0px 0px;fill:rgb(48, 48, 48);text-anchor:middle;">lc_en_i</text></g><g id="sprotty_ArchitectureBlockImpl$prim_lc_sender/BPortImpl$rst_ni" transform="translate(0, 95)" class="triangle"><path d="M 0,0 L 5,2.5 L 0,5 Z" transform="translate(-1.67, -2.5)" class="sprotty-port" style="fill:rgb(48, 48, 48);stroke:rgb(48, 48, 48);"/><text class="clickable sprotty-label port" id="sprotty_ArchitectureBlockImpl$prim_lc_sender/BPortImpl$rst_ni/label" transform="translate(6, 6) translate(15.921875, 14)" style="cursor:default;font-size:12px;perspective-origin:0px 0px;fill:rgb(48, 48, 48);text-anchor:middle;">rst_ni</text></g><g id="sprotty_ArchitectureBlockImpl$prim_lc_sender/BPortImpl$clk_i" transform="translate(0, 61)" class="triangle"><path d="M 0,0 L 5,2.5 L 0,5 Z" transform="translate(-1.67, -2.5)" class="sprotty-port" style="fill:rgb(48, 48, 48);stroke:rgb(48, 48, 48);"/><text class="clickable sprotty-label port" id="sprotty_ArchitectureBlockImpl$prim_lc_sender/BPortImpl$clk_i/label" transform="translate(6, 6) translate(13.09375, 14)" style="cursor:default;font-size:12px;perspective-origin:0px 0px;fill:rgb(48, 48, 48);text-anchor:middle;">clk_i</text></g><g id="sprotty_ArchitectureBlockImpl$prim_lc_sender/BPortImpl$lc_en_o" transform="translate(536.4375, 101)" class="triangle"><path d="M 0,0 L 5,2.5 L 0,5 Z" transform="translate(-1.67, -2.5)" class="sprotty-port" style="fill:rgb(48, 48, 48);stroke:rgb(48, 48, 48);"/><text class="clickable sprotty-label port" id="sprotty_ArchitectureBlockImpl$prim_lc_sender/BPortImpl$lc_en_o/label" transform="translate(-50.21875, 6) translate(22.109375, 14)" style="cursor:default;font-size:12px;perspective-origin:0px 0px;fill:rgb(48, 48, 48);text-anchor:middle;">lc_en_o</text></g></g></g></svg>