<svg xmlns="http://www.w3.org/2000/svg" id="sprotty_work.prim_pulse_sync" class="sprotty-graph sprotty-block-diagram blockdiagram" style="font-family:&quot;Noto Sans&quot;, Helvetica, Arial, sans-serif;perspective-origin:0px 0px;transform-origin:0px 0px;" version="1.1" viewBox="7 7 686.28125 250" width="686.28125" height="250"><g transform="scale(1) translate(0,0)"><g id="sprotty_ArchitectureBlockImpl$prim_pulse_sync" transform="translate(12, 12)" class="architecture"><g class="sprotty-block" style="fill:rgb(255, 255, 255);stroke:rgb(48, 48, 48);stroke-dasharray:0px;"><rect x="0" y="0" rx="1" ry="1" width="676.28125" height="240"/><text x="338.140625" y="12" class="sprotty-block-name" style="cursor:pointer;font-weight:700;perspective-origin:338.141px 0px;fill:rgb(48, 48, 48);stroke:rgba(0, 0, 0, 0);dominant-baseline:middle;text-anchor:middle;">prim_pulse_sync</text><line x1="0" y1="20" x2="676.28125" y2="20"/></g><g id="sprotty_ArchitectureBlockImpl$prim_pulse_sync/AssignmentBlockImpl$dst_pulse_o/GPortImpl$dst_pulse_oOUT_to_ArchitectureBlockImpl$prim_pulse_sync/BPortImpl$dst_pulse_o" class="sprotty-edge edge" style="fill:none;stroke:rgb(112, 112, 112);stroke-linejoin:round;"><g><path d="M 586.84375 158 L 676.28125 158 "/><path d="M 586.84375 158 L 676.28125 158 " class="clickable"/></g></g><g id="sprotty_ArchitectureBlockImpl$prim_pulse_sync/BPortImpl$clk_dst_i_to_ArchitectureBlockImpl$prim_pulse_sync/InstantiationBlockImpl$prim_flop_2sync/BPortImpl$clk_i" class="sprotty-edge edge" style="fill:none;stroke:rgb(112, 112, 112);stroke-linejoin:round;"><g><path d="M 0 65 L 181.265625 65 C 182.265625 65 183.265625 66 183.265625 67 L 183.265625 133 C 183.265625 134 184.265625 135 185.265625 135 L 193.265625 135 "/><path d="M 0 65 L 181.265625 65 C 182.265625 65 183.265625 66 183.265625 67 L 183.265625 133 C 183.265625 134 184.265625 135 185.265625 135 L 193.265625 135 " class="clickable"/></g></g><g id="sprotty_ArchitectureBlockImpl$prim_pulse_sync/BPortImpl$rst_dst_ni_to_ArchitectureBlockImpl$prim_pulse_sync/InstantiationBlockImpl$prim_flop_2sync/BPortImpl$rst_ni" class="sprotty-edge edge" style="fill:none;stroke:rgb(112, 112, 112);stroke-linejoin:round;"><g><path d="M 0 99 L 171.265625 99 C 172.265625 99 173.265625 100 173.265625 101 L 173.265625 161 C 173.265625 162 174.265625 163 175.265625 163 L 193.265625 163 "/><path d="M 0 99 L 171.265625 99 C 172.265625 99 173.265625 100 173.265625 101 L 173.265625 161 C 173.265625 162 174.265625 163 175.265625 163 L 193.265625 163 " class="clickable"/></g></g><g id="sprotty_ArchitectureBlockImpl$prim_pulse_sync/BPortImpl$clk_src_i_to_ArchitectureBlockImpl$prim_pulse_sync/AlwaysBlockImpl$null7/GPortImpl$clk_src_iIN" class="sprotty-edge edge" style="fill:none;stroke:rgb(112, 112, 112);stroke-linejoin:round;"><g><path d="M 0 133 L 102.375 133 C 103.375 133 104.375 134 104.375 135 L 104.375 179 C 104.375 180 105.375 181 106.375 181 L 114.375 181 "/><path d="M 0 133 L 102.375 133 C 103.375 133 104.375 134 104.375 135 L 104.375 179 C 104.375 180 105.375 181 106.375 181 L 114.375 181 " class="clickable"/></g></g><g id="sprotty_ArchitectureBlockImpl$prim_pulse_sync/BPortImpl$rst_src_ni_to_ArchitectureBlockImpl$prim_pulse_sync/AlwaysBlockImpl$null7/GPortImpl$rst_src_niIN" class="sprotty-edge edge" style="fill:none;stroke:rgb(112, 112, 112);stroke-linejoin:round;"><g><path d="M 0 167 L 92.375 167 C 93.375 167 94.375 168 94.375 169 L 94.375 189 C 94.375 190 95.375 191 96.375 191 L 114.375 191 "/><path d="M 0 167 L 92.375 167 C 93.375 167 94.375 168 94.375 169 L 94.375 189 C 94.375 190 95.375 191 96.375 191 L 114.375 191 " class="clickable"/></g></g><g id="sprotty_ArchitectureBlockImpl$prim_pulse_sync/BPortImpl$src_pulse_i_to_ArchitectureBlockImpl$prim_pulse_sync/AlwaysBlockImpl$null7/GPortImpl$src_pulse_iIN" class="sprotty-edge edge" style="fill:none;stroke:rgb(112, 112, 112);stroke-linejoin:round;"><g><path d="M 0 201 L 114.375 201 "/><path d="M 0 201 L 114.375 201 " class="clickable"/></g></g><g id="sprotty_ArchitectureBlockImpl$prim_pulse_sync/BPortImpl$clk_dst_i_to_ArchitectureBlockImpl$prim_pulse_sync/AlwaysBlockImpl$null6/GPortImpl$clk_dst_iIN" class="sprotty-edge edge" style="fill:none;stroke:rgb(112, 112, 112);stroke-linejoin:round;"><g><path d="M 0 65 L 92.375 65 C 93.375 65 94.375 64 94.375 63 L 94.375 47 C 94.375 46 95.375 45 96.375 45 L 498.234375 45 "/><path d="M 0 65 L 92.375 65 C 93.375 65 94.375 64 94.375 63 L 94.375 47 C 94.375 46 95.375 45 96.375 45 L 498.234375 45 " class="clickable"/></g><circle r="2" id="sprotty_ArchitectureBlockImpl$prim_pulse_sync/BPortImpl$clk_dst_i_to_ArchitectureBlockImpl$prim_pulse_sync/AlwaysBlockImpl$null6/GPortImpl$clk_dst_iIN/junction0" transform="translate(94.375, 65)" class="sprotty-junction junction" style="fill:rgb(112, 112, 112);stroke:none;"/></g><g id="sprotty_ArchitectureBlockImpl$prim_pulse_sync/BPortImpl$rst_dst_ni_to_ArchitectureBlockImpl$prim_pulse_sync/AlwaysBlockImpl$null6/GPortImpl$rst_dst_niIN" class="sprotty-edge edge" style="fill:none;stroke:rgb(112, 112, 112);stroke-linejoin:round;"><g><path d="M 0 99 L 102.375 99 C 103.375 99 104.375 98 104.375 97 L 104.375 57 C 104.375 56 105.375 55 106.375 55 L 498.234375 55 "/><path d="M 0 99 L 102.375 99 C 103.375 99 104.375 98 104.375 97 L 104.375 57 C 104.375 56 105.375 55 106.375 55 L 498.234375 55 " class="clickable"/></g><circle r="2" id="sprotty_ArchitectureBlockImpl$prim_pulse_sync/BPortImpl$rst_dst_ni_to_ArchitectureBlockImpl$prim_pulse_sync/AlwaysBlockImpl$null6/GPortImpl$rst_dst_niIN/junction0" transform="translate(104.375, 99)" class="sprotty-junction junction" style="fill:rgb(112, 112, 112);stroke:none;"/></g><g id="sprotty_ArchitectureBlockImpl$prim_pulse_sync/AlwaysBlockImpl$null7/GPortImpl$src_levelOUT_to_ArchitectureBlockImpl$prim_pulse_sync/InstantiationBlockImpl$prim_flop_2sync/BPortImpl$d_i" class="sprotty-edge edge" style="fill:none;stroke:rgb(112, 112, 112);stroke-linejoin:round;"><g><path d="M 163.265625 191 L 193.265625 191 "/><path d="M 163.265625 191 L 193.265625 191 " class="clickable"/></g></g><g id="sprotty_ArchitectureBlockImpl$prim_pulse_sync/InstantiationBlockImpl$prim_flop_2sync/BPortImpl$q_o_to_ArchitectureBlockImpl$prim_pulse_sync/AssignmentBlockImpl$dst_pulse_o/GPortImpl$dst_levelIN" class="sprotty-edge edge" style="fill:none;stroke:rgb(112, 112, 112);stroke-linejoin:round;"><g><path d="M 478.234375 163 L 567.125 163 "/><path d="M 478.234375 163 L 567.125 163 " class="clickable"/></g></g><g id="sprotty_ArchitectureBlockImpl$prim_pulse_sync/InstantiationBlockImpl$prim_flop_2sync/BPortImpl$q_o_to_ArchitectureBlockImpl$prim_pulse_sync/AlwaysBlockImpl$null6/GPortImpl$dst_levelIN" class="sprotty-edge edge" style="fill:none;stroke:rgb(112, 112, 112);stroke-linejoin:round;"><g><path d="M 478.234375 163 L 486.234375 163 C 487.234375 163 488.234375 162 488.234375 161 L 488.234375 67 C 488.234375 66 489.234375 65 490.234375 65 L 498.234375 65 "/><path d="M 478.234375 163 L 486.234375 163 C 487.234375 163 488.234375 162 488.234375 161 L 488.234375 67 C 488.234375 66 489.234375 65 490.234375 65 L 498.234375 65 " class="clickable"/></g><circle r="2" id="sprotty_ArchitectureBlockImpl$prim_pulse_sync/InstantiationBlockImpl$prim_flop_2sync/BPortImpl$q_o_to_ArchitectureBlockImpl$prim_pulse_sync/AlwaysBlockImpl$null6/GPortImpl$dst_levelIN/junction0" transform="translate(488.234375, 163)" class="sprotty-junction junction" style="fill:rgb(112, 112, 112);stroke:none;"/></g><g id="sprotty_ArchitectureBlockImpl$prim_pulse_sync/AlwaysBlockImpl$null6/GPortImpl$dst_level_qOUT_to_ArchitectureBlockImpl$prim_pulse_sync/AssignmentBlockImpl$dst_pulse_o/GPortImpl$dst_level_qIN" class="sprotty-edge edge" style="fill:none;stroke:rgb(112, 112, 112);stroke-linejoin:round;"><g><path d="M 547.125 55 L 555.125 55 C 556.125 55 557.125 56 557.125 57 L 557.125 151 C 557.125 152 558.125 153 559.125 153 L 567.125 153 "/><path d="M 547.125 55 L 555.125 55 C 556.125 55 557.125 56 557.125 57 L 557.125 151 C 557.125 152 558.125 153 559.125 153 L 567.125 153 " class="clickable"/></g></g><g id="sprotty_ArchitectureBlockImpl$prim_pulse_sync/AlwaysBlockImpl$null6" transform="translate(498.234375, 35)" class="statement"><rect x="0" y="0" rx="10" ry="5" width="48.890625" height="40" class="sprotty-node" style="fill:rgb(245, 245, 245);stroke:rgb(112, 112, 112);"/><text class="clickable sprotty-label statementtype" id="sprotty_ArchitectureBlockImpl$prim_pulse_sync/AlwaysBlockImpl$null6/labeltype" transform="translate(5, 14) translate(18.828125, 9)" style="cursor:default;font-size:8px;font-weight:700;perspective-origin:0.609375px 0px;fill:rgb(112, 112, 112);text-anchor:middle;">always_ff</text><g id="sprotty_ArchitectureBlockImpl$prim_pulse_sync/AlwaysBlockImpl$null6/GPortImpl$dst_levelIN" transform="translate(0, 30)" class="sprotty-hidden hidden" style="display:block;height:0px;width:0px;"/><g id="sprotty_ArchitectureBlockImpl$prim_pulse_sync/AlwaysBlockImpl$null6/GPortImpl$rst_dst_niIN" transform="translate(0, 20)" class="sprotty-hidden hidden" style="display:block;height:0px;width:0px;"/><g id="sprotty_ArchitectureBlockImpl$prim_pulse_sync/AlwaysBlockImpl$null6/GPortImpl$clk_dst_iIN" transform="translate(0, 10)" class="sprotty-hidden hidden" style="display:block;height:0px;width:0px;"/><g id="sprotty_ArchitectureBlockImpl$prim_pulse_sync/AlwaysBlockImpl$null6/GPortImpl$dst_level_qOUT" transform="translate(48.890625, 20)" class="sprotty-hidden hidden" style="display:block;height:0px;width:0px;"/></g><g id="sprotty_ArchitectureBlockImpl$prim_pulse_sync/AlwaysBlockImpl$null7" transform="translate(114.375, 171)" class="statement"><rect x="0" y="0" rx="10" ry="5" width="48.890625" height="40" class="sprotty-node" style="fill:rgb(245, 245, 245);stroke:rgb(112, 112, 112);"/><text class="clickable sprotty-label statementtype" id="sprotty_ArchitectureBlockImpl$prim_pulse_sync/AlwaysBlockImpl$null7/labeltype" transform="translate(5, 14) translate(18.828125, 9)" style="cursor:default;font-size:8px;font-weight:700;perspective-origin:0.609375px 0px;fill:rgb(112, 112, 112);text-anchor:middle;">always_ff</text><g id="sprotty_ArchitectureBlockImpl$prim_pulse_sync/AlwaysBlockImpl$null7/GPortImpl$src_pulse_iIN" transform="translate(0, 30)" class="sprotty-hidden hidden" style="display:block;height:0px;width:0px;"/><g id="sprotty_ArchitectureBlockImpl$prim_pulse_sync/AlwaysBlockImpl$null7/GPortImpl$rst_src_niIN" transform="translate(0, 20)" class="sprotty-hidden hidden" style="display:block;height:0px;width:0px;"/><g id="sprotty_ArchitectureBlockImpl$prim_pulse_sync/AlwaysBlockImpl$null7/GPortImpl$clk_src_iIN" transform="translate(0, 10)" class="sprotty-hidden hidden" style="display:block;height:0px;width:0px;"/><g id="sprotty_ArchitectureBlockImpl$prim_pulse_sync/AlwaysBlockImpl$null7/GPortImpl$src_levelOUT" transform="translate(48.890625, 20)" class="sprotty-hidden hidden" style="display:block;height:0px;width:0px;"/></g><g id="sprotty_ArchitectureBlockImpl$prim_pulse_sync/AssignmentBlockImpl$dst_pulse_o" transform="translate(567.125, 143)" class="statement"><rect x="0" y="0" rx="10" ry="5" width="19.71875" height="30" class="sprotty-node" style="fill:rgb(245, 245, 245);stroke:rgb(112, 112, 112);"/><text class="clickable sprotty-label statementtype" id="sprotty_ArchitectureBlockImpl$prim_pulse_sync/AssignmentBlockImpl$dst_pulse_o/labeltype" transform="translate(5, 9) translate(4.71875, 9)" style="cursor:default;font-size:8px;font-weight:700;perspective-origin:0.140625px 0px;fill:rgb(112, 112, 112);text-anchor:middle;">&lt;=</text><g id="sprotty_ArchitectureBlockImpl$prim_pulse_sync/AssignmentBlockImpl$dst_pulse_o/GPortImpl$dst_levelIN" transform="translate(0, 20)" class="sprotty-hidden hidden" style="display:block;height:0px;width:0px;"/><g id="sprotty_ArchitectureBlockImpl$prim_pulse_sync/AssignmentBlockImpl$dst_pulse_o/GPortImpl$dst_level_qIN" transform="translate(0, 10)" class="sprotty-hidden hidden" style="display:block;height:0px;width:0px;"/><g id="sprotty_ArchitectureBlockImpl$prim_pulse_sync/AssignmentBlockImpl$dst_pulse_o/GPortImpl$dst_pulse_oOUT" transform="translate(19.71875, 15)" class="sprotty-hidden hidden" style="display:block;height:0px;width:0px;"/></g><g id="sprotty_ArchitectureBlockImpl$prim_pulse_sync/InstantiationBlockImpl$prim_flop_2sync" transform="translate(193.265625, 97)" class="instantiation"><g class="sprotty-block" style="fill:rgb(255, 255, 255);stroke:rgb(48, 48, 48);stroke-dasharray:0px;"><rect x="0" y="0" rx="1" ry="1" width="284.96875" height="112"/><text x="142.484375" y="12" class="sprotty-block-name" style="cursor:pointer;font-weight:700;perspective-origin:142.484px 0px;fill:rgb(48, 48, 48);stroke:rgba(0, 0, 0, 0);dominant-baseline:middle;text-anchor:middle;">prim_flop_2sync : prim_flop_2sync</text><line x1="0" y1="20" x2="284.96875" y2="20"/></g><g id="sprotty_ArchitectureBlockImpl$prim_pulse_sync/InstantiationBlockImpl$prim_flop_2sync/BPortImpl$d_i" transform="translate(0, 94)" class="triangle"><path d="M 0,0 L 5,2.5 L 0,5 Z" transform="translate(-1.67, -2.5)" class="sprotty-port" style="fill:rgb(48, 48, 48);stroke:rgb(48, 48, 48);"/><text class="clickable sprotty-label port" id="sprotty_ArchitectureBlockImpl$prim_pulse_sync/InstantiationBlockImpl$prim_flop_2sync/BPortImpl$d_i/label" transform="translate(6, -9) translate(8.734375, 14)" style="cursor:default;font-size:12px;perspective-origin:0px 0px;fill:rgb(48, 48, 48);text-anchor:middle;">d_i</text></g><g id="sprotty_ArchitectureBlockImpl$prim_pulse_sync/InstantiationBlockImpl$prim_flop_2sync/BPortImpl$rst_ni" transform="translate(0, 66)" class="triangle"><path d="M 0,0 L 5,2.5 L 0,5 Z" transform="translate(-1.67, -2.5)" class="sprotty-port" style="fill:rgb(48, 48, 48);stroke:rgb(48, 48, 48);"/><text class="clickable sprotty-label port" id="sprotty_ArchitectureBlockImpl$prim_pulse_sync/InstantiationBlockImpl$prim_flop_2sync/BPortImpl$rst_ni/label" transform="translate(6, -9) translate(15.921875, 14)" style="cursor:default;font-size:12px;perspective-origin:0px 0px;fill:rgb(48, 48, 48);text-anchor:middle;">rst_ni</text></g><g id="sprotty_ArchitectureBlockImpl$prim_pulse_sync/InstantiationBlockImpl$prim_flop_2sync/BPortImpl$clk_i" transform="translate(0, 38)" class="triangle"><path d="M 0,0 L 5,2.5 L 0,5 Z" transform="translate(-1.67, -2.5)" class="sprotty-port" style="fill:rgb(48, 48, 48);stroke:rgb(48, 48, 48);"/><text class="clickable sprotty-label port" id="sprotty_ArchitectureBlockImpl$prim_pulse_sync/InstantiationBlockImpl$prim_flop_2sync/BPortImpl$clk_i/label" transform="translate(6, -9) translate(13.09375, 14)" style="cursor:default;font-size:12px;perspective-origin:0px 0px;fill:rgb(48, 48, 48);text-anchor:middle;">clk_i</text></g><g id="sprotty_ArchitectureBlockImpl$prim_pulse_sync/InstantiationBlockImpl$prim_flop_2sync/BPortImpl$q_o" transform="translate(284.96875, 66)" class="triangle"><path d="M 0,0 L 5,2.5 L 0,5 Z" transform="translate(-1.67, -2.5)" class="sprotty-port" style="fill:rgb(48, 48, 48);stroke:rgb(48, 48, 48);"/><text class="clickable sprotty-label port" id="sprotty_ArchitectureBlockImpl$prim_pulse_sync/InstantiationBlockImpl$prim_flop_2sync/BPortImpl$q_o/label" transform="translate(-27.4375, -9) translate(10.71875, 14)" style="cursor:default;font-size:12px;perspective-origin:0px 0px;fill:rgb(48, 48, 48);text-anchor:middle;">q_o</text></g></g><g id="sprotty_ArchitectureBlockImpl$prim_pulse_sync/BPortImpl$rst_dst_ni" transform="translate(0, 99)" class="triangle"><path d="M 0,0 L 5,2.5 L 0,5 Z" transform="translate(-1.67, -2.5)" class="sprotty-port" style="fill:rgb(48, 48, 48);stroke:rgb(48, 48, 48);"/><text class="clickable sprotty-label port" id="sprotty_ArchitectureBlockImpl$prim_pulse_sync/BPortImpl$rst_dst_ni/label" transform="translate(6, 6) translate(27.9375, 14)" style="cursor:default;font-size:12px;perspective-origin:0px 0px;fill:rgb(48, 48, 48);text-anchor:middle;">rst_dst_ni</text></g><g id="sprotty_ArchitectureBlockImpl$prim_pulse_sync/BPortImpl$clk_dst_i" transform="translate(0, 65)" class="triangle"><path d="M 0,0 L 5,2.5 L 0,5 Z" transform="translate(-1.67, -2.5)" class="sprotty-port" style="fill:rgb(48, 48, 48);stroke:rgb(48, 48, 48);"/><text class="clickable sprotty-label port" id="sprotty_ArchitectureBlockImpl$prim_pulse_sync/BPortImpl$clk_dst_i/label" transform="translate(6, 6) translate(25.09375, 14)" style="cursor:default;font-size:12px;perspective-origin:0px 0px;fill:rgb(48, 48, 48);text-anchor:middle;">clk_dst_i</text></g><g id="sprotty_ArchitectureBlockImpl$prim_pulse_sync/BPortImpl$src_pulse_i" transform="translate(0, 201)" class="triangle"><path d="M 0,0 L 5,2.5 L 0,5 Z" transform="translate(-1.67, -2.5)" class="sprotty-port" style="fill:rgb(48, 48, 48);stroke:rgb(48, 48, 48);"/><text class="clickable sprotty-label port" id="sprotty_ArchitectureBlockImpl$prim_pulse_sync/BPortImpl$src_pulse_i/label" transform="translate(6, 6) translate(31.6875, 14)" style="cursor:default;font-size:12px;perspective-origin:0px 0px;fill:rgb(48, 48, 48);text-anchor:middle;">src_pulse_i</text></g><g id="sprotty_ArchitectureBlockImpl$prim_pulse_sync/BPortImpl$rst_src_ni" transform="translate(0, 167)" class="triangle"><path d="M 0,0 L 5,2.5 L 0,5 Z" transform="translate(-1.67, -2.5)" class="sprotty-port" style="fill:rgb(48, 48, 48);stroke:rgb(48, 48, 48);"/><text class="clickable sprotty-label port" id="sprotty_ArchitectureBlockImpl$prim_pulse_sync/BPortImpl$rst_src_ni/label" transform="translate(6, 6) translate(27.390625, 14)" style="cursor:default;font-size:12px;perspective-origin:0px 0px;fill:rgb(48, 48, 48);text-anchor:middle;">rst_src_ni</text></g><g id="sprotty_ArchitectureBlockImpl$prim_pulse_sync/BPortImpl$clk_src_i" transform="translate(0, 133)" class="triangle"><path d="M 0,0 L 5,2.5 L 0,5 Z" transform="translate(-1.67, -2.5)" class="sprotty-port" style="fill:rgb(48, 48, 48);stroke:rgb(48, 48, 48);"/><text class="clickable sprotty-label port" id="sprotty_ArchitectureBlockImpl$prim_pulse_sync/BPortImpl$clk_src_i/label" transform="translate(6, 6) translate(24.5625, 14)" style="cursor:default;font-size:12px;perspective-origin:0px 0px;fill:rgb(48, 48, 48);text-anchor:middle;">clk_src_i</text></g><g id="sprotty_ArchitectureBlockImpl$prim_pulse_sync/BPortImpl$dst_pulse_o" transform="translate(676.28125, 158)" class="triangle"><path d="M 0,0 L 5,2.5 L 0,5 Z" transform="translate(-1.67, -2.5)" class="sprotty-port" style="fill:rgb(48, 48, 48);stroke:rgb(48, 48, 48);"/><text class="clickable sprotty-label port" id="sprotty_ArchitectureBlockImpl$prim_pulse_sync/BPortImpl$dst_pulse_o/label" transform="translate(-74.4375, 6) translate(34.21875, 14)" style="cursor:default;font-size:12px;perspective-origin:0px 0px;fill:rgb(48, 48, 48);text-anchor:middle;">dst_pulse_o</text></g></g></g></svg>