<svg xmlns="http://www.w3.org/2000/svg" id="sprotty_work.flash_phy_rd_buffers" class="sprotty-graph sprotty-block-diagram blockdiagram" style="font-family:&quot;Noto Sans&quot;, Helvetica, Arial, sans-serif;perspective-origin:0px 0px;transform-origin:0px 0px;" version="1.1" viewBox="7 7 268.046875 390" width="268.046875" height="390"><g transform="scale(1) translate(0,0)"><g id="sprotty_ArchitectureBlockImpl$flash_phy_rd_buffers" transform="translate(12, 12)" class="architecture"><g class="sprotty-block" style="fill:rgb(255, 255, 255);stroke:rgb(48, 48, 48);stroke-dasharray:0px;"><rect x="0" y="0" rx="1" ry="1" width="258.046875" height="380"/><text x="129.0234375" y="12" class="sprotty-block-name" style="cursor:pointer;font-weight:700;perspective-origin:129.062px 0px;fill:rgb(48, 48, 48);stroke:rgba(0, 0, 0, 0);dominant-baseline:middle;text-anchor:middle;">flash_phy_rd_buffers</text><line x1="0" y1="20" x2="258.046875" y2="20"/></g><g id="sprotty_ArchitectureBlockImpl$flash_phy_rd_buffers/BPortImpl$clk_i_to_ArchitectureBlockImpl$flash_phy_rd_buffers/AlwaysBlockImpl$null11/GPortImpl$clk_iIN" class="sprotty-edge edge" style="fill:none;stroke:rgb(112, 112, 112);stroke-linejoin:round;"><g><path d="M 0 35 L 113.09375 35 C 114.09375 35 115.09375 36 115.09375 37 L 115.09375 129 C 115.09375 130 116.09375 131 117.09375 131 L 135.09375 131 "/><path d="M 0 35 L 113.09375 35 C 114.09375 35 115.09375 36 115.09375 37 L 115.09375 129 C 115.09375 130 116.09375 131 117.09375 131 L 135.09375 131 " class="clickable"/></g></g><g id="sprotty_ArchitectureBlockImpl$flash_phy_rd_buffers/BPortImpl$rst_ni_to_ArchitectureBlockImpl$flash_phy_rd_buffers/AlwaysBlockImpl$null11/GPortImpl$rst_niIN" class="sprotty-edge edge" style="fill:none;stroke:rgb(112, 112, 112);stroke-linejoin:round;"><g><path d="M 0 341 L 123.09375 341 C 124.09375 341 125.09375 340 125.09375 339 L 125.09375 223 C 125.09375 222 126.09375 221 127.09375 221 L 135.09375 221 "/><path d="M 0 341 L 123.09375 341 C 124.09375 341 125.09375 340 125.09375 339 L 125.09375 223 C 125.09375 222 126.09375 221 127.09375 221 L 135.09375 221 " class="clickable"/></g></g><g id="sprotty_ArchitectureBlockImpl$flash_phy_rd_buffers/BPortImpl$en_i_to_ArchitectureBlockImpl$flash_phy_rd_buffers/AlwaysBlockImpl$null11/GPortImpl$en_iIN" class="sprotty-edge edge" style="fill:none;stroke:rgb(112, 112, 112);stroke-linejoin:round;"><g><path d="M 0 307 L 113.09375 307 C 114.09375 307 115.09375 306 115.09375 305 L 115.09375 213 C 115.09375 212 116.09375 211 117.09375 211 L 135.09375 211 "/><path d="M 0 307 L 113.09375 307 C 114.09375 307 115.09375 306 115.09375 305 L 115.09375 213 C 115.09375 212 116.09375 211 117.09375 211 L 135.09375 211 " class="clickable"/></g></g><g id="sprotty_ArchitectureBlockImpl$flash_phy_rd_buffers/BPortImpl$wipe_i_to_ArchitectureBlockImpl$flash_phy_rd_buffers/AlwaysBlockImpl$null11/GPortImpl$wipe_iIN" class="sprotty-edge edge" style="fill:none;stroke:rgb(112, 112, 112);stroke-linejoin:round;"><g><path d="M 0 273 L 103.09375 273 C 104.09375 273 105.09375 272 105.09375 271 L 105.09375 203 C 105.09375 202 106.09375 201 107.09375 201 L 135.09375 201 "/><path d="M 0 273 L 103.09375 273 C 104.09375 273 105.09375 272 105.09375 271 L 105.09375 203 C 105.09375 202 106.09375 201 107.09375 201 L 135.09375 201 " class="clickable"/></g></g><g id="sprotty_ArchitectureBlockImpl$flash_phy_rd_buffers/BPortImpl$alloc_i_to_ArchitectureBlockImpl$flash_phy_rd_buffers/AlwaysBlockImpl$null11/GPortImpl$alloc_iIN" class="sprotty-edge edge" style="fill:none;stroke:rgb(112, 112, 112);stroke-linejoin:round;"><g><path d="M 0 239 L 93.09375 239 C 94.09375 239 95.09375 238 95.09375 237 L 95.09375 193 C 95.09375 192 96.09375 191 97.09375 191 L 135.09375 191 "/><path d="M 0 239 L 93.09375 239 C 94.09375 239 95.09375 238 95.09375 237 L 95.09375 193 C 95.09375 192 96.09375 191 97.09375 191 L 135.09375 191 " class="clickable"/></g></g><g id="sprotty_ArchitectureBlockImpl$flash_phy_rd_buffers/BPortImpl$addr_i_to_ArchitectureBlockImpl$flash_phy_rd_buffers/AlwaysBlockImpl$null11/GPortImpl$addr_iIN" class="sprotty-edge thick edge" style="fill:none;stroke:rgb(112, 112, 112);stroke-linejoin:round;stroke-width:3px;"><g><path d="M 0 205 L 83.09375 205 C 84.09375 205 85.09375 204 85.09375 203 L 85.09375 183 C 85.09375 182 86.09375 181 87.09375 181 L 135.09375 181 "/><path d="M 0 205 L 83.09375 205 C 84.09375 205 85.09375 204 85.09375 203 L 85.09375 183 C 85.09375 182 86.09375 181 87.09375 181 L 135.09375 181 " class="clickable"/></g></g><g id="sprotty_ArchitectureBlockImpl$flash_phy_rd_buffers/BPortImpl$part_i_to_ArchitectureBlockImpl$flash_phy_rd_buffers/AlwaysBlockImpl$null11/GPortImpl$part_iIN" class="sprotty-edge edge" style="fill:none;stroke:rgb(112, 112, 112);stroke-linejoin:round;"><g><path d="M 0 171 L 135.09375 171 "/><path d="M 0 171 L 135.09375 171 " class="clickable"/></g></g><g id="sprotty_ArchitectureBlockImpl$flash_phy_rd_buffers/BPortImpl$info_sel_i_to_ArchitectureBlockImpl$flash_phy_rd_buffers/AlwaysBlockImpl$null11/GPortImpl$info_sel_iIN" class="sprotty-edge thick edge" style="fill:none;stroke:rgb(112, 112, 112);stroke-linejoin:round;stroke-width:3px;"><g><path d="M 0 137 L 83.09375 137 C 84.09375 137 85.09375 138 85.09375 139 L 85.09375 159 C 85.09375 160 86.09375 161 87.09375 161 L 135.09375 161 "/><path d="M 0 137 L 83.09375 137 C 84.09375 137 85.09375 138 85.09375 139 L 85.09375 159 C 85.09375 160 86.09375 161 87.09375 161 L 135.09375 161 " class="clickable"/></g></g><g id="sprotty_ArchitectureBlockImpl$flash_phy_rd_buffers/BPortImpl$update_i_to_ArchitectureBlockImpl$flash_phy_rd_buffers/AlwaysBlockImpl$null11/GPortImpl$update_iIN" class="sprotty-edge edge" style="fill:none;stroke:rgb(112, 112, 112);stroke-linejoin:round;"><g><path d="M 0 103 L 93.09375 103 C 94.09375 103 95.09375 104 95.09375 105 L 95.09375 149 C 95.09375 150 96.09375 151 97.09375 151 L 135.09375 151 "/><path d="M 0 103 L 93.09375 103 C 94.09375 103 95.09375 104 95.09375 105 L 95.09375 149 C 95.09375 150 96.09375 151 97.09375 151 L 135.09375 151 " class="clickable"/></g></g><g id="sprotty_ArchitectureBlockImpl$flash_phy_rd_buffers/BPortImpl$data_i_to_ArchitectureBlockImpl$flash_phy_rd_buffers/AlwaysBlockImpl$null11/GPortImpl$data_iIN" class="sprotty-edge thick edge" style="fill:none;stroke:rgb(112, 112, 112);stroke-linejoin:round;stroke-width:3px;"><g><path d="M 0 69 L 103.09375 69 C 104.09375 69 105.09375 70 105.09375 71 L 105.09375 139 C 105.09375 140 106.09375 141 107.09375 141 L 135.09375 141 "/><path d="M 0 69 L 103.09375 69 C 104.09375 69 105.09375 70 105.09375 71 L 105.09375 139 C 105.09375 140 106.09375 141 107.09375 141 L 135.09375 141 " class="clickable"/></g></g><g id="sprotty_ArchitectureBlockImpl$flash_phy_rd_buffers/AlwaysBlockImpl$null11" transform="translate(135.09375, 121)" class="statement"><rect x="0" y="0" rx="10" ry="5" width="48.890625" height="110" class="sprotty-node" style="fill:rgb(245, 245, 245);stroke:rgb(112, 112, 112);"/><text class="clickable sprotty-label statementtype" id="sprotty_ArchitectureBlockImpl$flash_phy_rd_buffers/AlwaysBlockImpl$null11/labeltype" transform="translate(5, 49) translate(18.828125, 9)" style="cursor:default;font-size:8px;font-weight:700;perspective-origin:0.609375px 0px;fill:rgb(112, 112, 112);text-anchor:middle;">always_ff</text><g id="sprotty_ArchitectureBlockImpl$flash_phy_rd_buffers/AlwaysBlockImpl$null11/GPortImpl$data_iIN" transform="translate(0, 20)" class="sprotty-hidden hidden" style="display:block;height:0px;width:0px;"/><g id="sprotty_ArchitectureBlockImpl$flash_phy_rd_buffers/AlwaysBlockImpl$null11/GPortImpl$update_iIN" transform="translate(0, 30)" class="sprotty-hidden hidden" style="display:block;height:0px;width:0px;"/><g id="sprotty_ArchitectureBlockImpl$flash_phy_rd_buffers/AlwaysBlockImpl$null11/GPortImpl$info_sel_iIN" transform="translate(0, 40)" class="sprotty-hidden hidden" style="display:block;height:0px;width:0px;"/><g id="sprotty_ArchitectureBlockImpl$flash_phy_rd_buffers/AlwaysBlockImpl$null11/GPortImpl$part_iIN" transform="translate(0, 50)" class="sprotty-hidden hidden" style="display:block;height:0px;width:0px;"/><g id="sprotty_ArchitectureBlockImpl$flash_phy_rd_buffers/AlwaysBlockImpl$null11/GPortImpl$addr_iIN" transform="translate(0, 60)" class="sprotty-hidden hidden" style="display:block;height:0px;width:0px;"/><g id="sprotty_ArchitectureBlockImpl$flash_phy_rd_buffers/AlwaysBlockImpl$null11/GPortImpl$alloc_iIN" transform="translate(0, 70)" class="sprotty-hidden hidden" style="display:block;height:0px;width:0px;"/><g id="sprotty_ArchitectureBlockImpl$flash_phy_rd_buffers/AlwaysBlockImpl$null11/GPortImpl$wipe_iIN" transform="translate(0, 80)" class="sprotty-hidden hidden" style="display:block;height:0px;width:0px;"/><g id="sprotty_ArchitectureBlockImpl$flash_phy_rd_buffers/AlwaysBlockImpl$null11/GPortImpl$en_iIN" transform="translate(0, 90)" class="sprotty-hidden hidden" style="display:block;height:0px;width:0px;"/><g id="sprotty_ArchitectureBlockImpl$flash_phy_rd_buffers/AlwaysBlockImpl$null11/GPortImpl$rst_niIN" transform="translate(0, 100)" class="sprotty-hidden hidden" style="display:block;height:0px;width:0px;"/><g id="sprotty_ArchitectureBlockImpl$flash_phy_rd_buffers/AlwaysBlockImpl$null11/GPortImpl$clk_iIN" transform="translate(0, 10)" class="sprotty-hidden hidden" style="display:block;height:0px;width:0px;"/></g><g id="sprotty_ArchitectureBlockImpl$flash_phy_rd_buffers/BPortImpl$data_i" transform="translate(0, 69)" class="triangle"><path d="M 0,0 L 5,2.5 L 0,5 Z" transform="translate(-1.67, -2.5)" class="sprotty-port" style="fill:rgb(48, 48, 48);stroke:rgb(48, 48, 48);"/><text class="clickable sprotty-label port" id="sprotty_ArchitectureBlockImpl$flash_phy_rd_buffers/BPortImpl$data_i/label" transform="translate(6, 6) translate(17.53125, 14)" style="cursor:default;font-size:12px;perspective-origin:0px 0px;fill:rgb(48, 48, 48);text-anchor:middle;">data_i</text></g><g id="sprotty_ArchitectureBlockImpl$flash_phy_rd_buffers/BPortImpl$info_sel_i" transform="translate(0, 137)" class="triangle"><path d="M 0,0 L 5,2.5 L 0,5 Z" transform="translate(-1.67, -2.5)" class="sprotty-port" style="fill:rgb(48, 48, 48);stroke:rgb(48, 48, 48);"/><text class="clickable sprotty-label port" id="sprotty_ArchitectureBlockImpl$flash_phy_rd_buffers/BPortImpl$info_sel_i/label" transform="translate(6, 6) translate(27.046875, 14)" style="cursor:default;font-size:12px;perspective-origin:0px 0px;fill:rgb(48, 48, 48);text-anchor:middle;">info_sel_i</text></g><g id="sprotty_ArchitectureBlockImpl$flash_phy_rd_buffers/BPortImpl$part_i" transform="translate(0, 171)" class="triangle"><path d="M 0,0 L 5,2.5 L 0,5 Z" transform="translate(-1.67, -2.5)" class="sprotty-port" style="fill:rgb(48, 48, 48);stroke:rgb(48, 48, 48);"/><text class="clickable sprotty-label port" id="sprotty_ArchitectureBlockImpl$flash_phy_rd_buffers/BPortImpl$part_i/label" transform="translate(6, 6) translate(16.609375, 14)" style="cursor:default;font-size:12px;perspective-origin:0px 0px;fill:rgb(48, 48, 48);text-anchor:middle;">part_i</text></g><g id="sprotty_ArchitectureBlockImpl$flash_phy_rd_buffers/BPortImpl$addr_i" transform="translate(0, 205)" class="triangle"><path d="M 0,0 L 5,2.5 L 0,5 Z" transform="translate(-1.67, -2.5)" class="sprotty-port" style="fill:rgb(48, 48, 48);stroke:rgb(48, 48, 48);"/><text class="clickable sprotty-label port" id="sprotty_ArchitectureBlockImpl$flash_phy_rd_buffers/BPortImpl$addr_i/label" transform="translate(6, 6) translate(18.15625, 14)" style="cursor:default;font-size:12px;perspective-origin:0px 0px;fill:rgb(48, 48, 48);text-anchor:middle;">addr_i</text></g><g id="sprotty_ArchitectureBlockImpl$flash_phy_rd_buffers/BPortImpl$wipe_i" transform="translate(0, 273)" class="triangle"><path d="M 0,0 L 5,2.5 L 0,5 Z" transform="translate(-1.67, -2.5)" class="sprotty-port" style="fill:rgb(48, 48, 48);stroke:rgb(48, 48, 48);"/><text class="clickable sprotty-label port" id="sprotty_ArchitectureBlockImpl$flash_phy_rd_buffers/BPortImpl$wipe_i/label" transform="translate(6, 6) translate(18.515625, 14)" style="cursor:default;font-size:12px;perspective-origin:0px 0px;fill:rgb(48, 48, 48);text-anchor:middle;">wipe_i</text></g><g id="sprotty_ArchitectureBlockImpl$flash_phy_rd_buffers/BPortImpl$update_i" transform="translate(0, 103)" class="triangle"><path d="M 0,0 L 5,2.5 L 0,5 Z" transform="translate(-1.67, -2.5)" class="sprotty-port" style="fill:rgb(48, 48, 48);stroke:rgb(48, 48, 48);"/><text class="clickable sprotty-label port" id="sprotty_ArchitectureBlockImpl$flash_phy_rd_buffers/BPortImpl$update_i/label" transform="translate(6, 6) translate(24.890625, 14)" style="cursor:default;font-size:12px;perspective-origin:0px 0px;fill:rgb(48, 48, 48);text-anchor:middle;">update_i</text></g><g id="sprotty_ArchitectureBlockImpl$flash_phy_rd_buffers/BPortImpl$alloc_i" transform="translate(0, 239)" class="triangle"><path d="M 0,0 L 5,2.5 L 0,5 Z" transform="translate(-1.67, -2.5)" class="sprotty-port" style="fill:rgb(48, 48, 48);stroke:rgb(48, 48, 48);"/><text class="clickable sprotty-label port" id="sprotty_ArchitectureBlockImpl$flash_phy_rd_buffers/BPortImpl$alloc_i/label" transform="translate(6, 6) translate(18.5, 14)" style="cursor:default;font-size:12px;perspective-origin:0px 0px;fill:rgb(48, 48, 48);text-anchor:middle;">alloc_i</text></g><g id="sprotty_ArchitectureBlockImpl$flash_phy_rd_buffers/BPortImpl$en_i" transform="translate(0, 307)" class="triangle"><path d="M 0,0 L 5,2.5 L 0,5 Z" transform="translate(-1.67, -2.5)" class="sprotty-port" style="fill:rgb(48, 48, 48);stroke:rgb(48, 48, 48);"/><text class="clickable sprotty-label port" id="sprotty_ArchitectureBlockImpl$flash_phy_rd_buffers/BPortImpl$en_i/label" transform="translate(6, 6) translate(12, 14)" style="cursor:default;font-size:12px;perspective-origin:0px 0px;fill:rgb(48, 48, 48);text-anchor:middle;">en_i</text></g><g id="sprotty_ArchitectureBlockImpl$flash_phy_rd_buffers/BPortImpl$rst_ni" transform="translate(0, 341)" class="triangle"><path d="M 0,0 L 5,2.5 L 0,5 Z" transform="translate(-1.67, -2.5)" class="sprotty-port" style="fill:rgb(48, 48, 48);stroke:rgb(48, 48, 48);"/><text class="clickable sprotty-label port" id="sprotty_ArchitectureBlockImpl$flash_phy_rd_buffers/BPortImpl$rst_ni/label" transform="translate(6, 6) translate(15.921875, 14)" style="cursor:default;font-size:12px;perspective-origin:0px 0px;fill:rgb(48, 48, 48);text-anchor:middle;">rst_ni</text></g><g id="sprotty_ArchitectureBlockImpl$flash_phy_rd_buffers/BPortImpl$clk_i" transform="translate(0, 35)" class="triangle"><path d="M 0,0 L 5,2.5 L 0,5 Z" transform="translate(-1.67, -2.5)" class="sprotty-port" style="fill:rgb(48, 48, 48);stroke:rgb(48, 48, 48);"/><text class="clickable sprotty-label port" id="sprotty_ArchitectureBlockImpl$flash_phy_rd_buffers/BPortImpl$clk_i/label" transform="translate(6, 6) translate(13.09375, 14)" style="cursor:default;font-size:12px;perspective-origin:0px 0px;fill:rgb(48, 48, 48);text-anchor:middle;">clk_i</text></g><g id="sprotty_ArchitectureBlockImpl$flash_phy_rd_buffers/BPortImpl$out_o" transform="translate(258.046875, 35)" class="triangle"><path d="M 0,0 L 5,2.5 L 0,5 Z" transform="translate(-1.67, -2.5)" class="sprotty-port" style="fill:rgb(48, 48, 48);stroke:rgb(48, 48, 48);"/><text class="clickable sprotty-label port" id="sprotty_ArchitectureBlockImpl$flash_phy_rd_buffers/BPortImpl$out_o/label" transform="translate(-39.0625, 6) translate(16.53125, 14)" style="cursor:default;font-size:12px;perspective-origin:0px 0px;fill:rgb(48, 48, 48);text-anchor:middle;">out_o</text></g></g></g></svg>