<svg xmlns="http://www.w3.org/2000/svg" id="sprotty_work.aes_ctr" class="sprotty-graph sprotty-block-diagram blockdiagram" style="font-family:&quot;Noto Sans&quot;, Helvetica, Arial, sans-serif;perspective-origin:0px 0px;transform-origin:0px 0px;" version="1.1" viewBox="7 7 892.296875 391.66666666666663" width="892.296875" height="391.66666666666663"><g transform="scale(1) translate(0,0)"><g id="sprotty_ArchitectureBlockImpl$aes_ctr" transform="translate(12, 12)" class="architecture"><g class="sprotty-block" style="fill:rgb(255, 255, 255);stroke:rgb(48, 48, 48);stroke-dasharray:0px;"><rect x="0" y="0" rx="1" ry="1" width="882.296875" height="381.66666666666663"/><text x="441.1484375" y="12" class="sprotty-block-name" style="cursor:pointer;font-weight:700;perspective-origin:441.156px 0px;fill:rgb(48, 48, 48);stroke:rgba(0, 0, 0, 0);dominant-baseline:middle;text-anchor:middle;">aes_ctr</text><line x1="0" y1="20" x2="882.296875" y2="20"/></g><g id="sprotty_ArchitectureBlockImpl$aes_ctr/AlwaysBlockImpl$aes_ctr_fsm/GPortImpl$ready_oOUT_to_ArchitectureBlockImpl$aes_ctr/BPortImpl$ready_o" class="sprotty-edge edge" style="fill:none;stroke:rgb(112, 112, 112);stroke-linejoin:round;"><g><path d="M 490.578125 286 L 538.578125 286 C 539.578125 286 540.578125 285 540.578125 284 L 540.578125 264 C 540.578125 263 541.578125 262 542.578125 262 L 882.296875 262 "/><path d="M 490.578125 286 L 538.578125 286 C 539.578125 286 540.578125 285 540.578125 284 L 540.578125 264 C 540.578125 263 541.578125 262 542.578125 262 L 882.296875 262 " class="clickable"/></g></g><g id="sprotty_ArchitectureBlockImpl$aes_ctr/AlwaysBlockImpl$aes_ctr_fsm/GPortImpl$alert_oOUT_to_ArchitectureBlockImpl$aes_ctr/BPortImpl$alert_o" class="sprotty-edge edge" style="fill:none;stroke:rgb(112, 112, 112);stroke-linejoin:round;"><g><path d="M 490.578125 296 L 882.296875 296 "/><path d="M 490.578125 296 L 882.296875 296 " class="clickable"/></g></g><g id="sprotty_ArchitectureBlockImpl$aes_ctr/AssignmentBlockImpl$ctr_o/GPortImpl$ctr_oOUT_to_ArchitectureBlockImpl$aes_ctr/BPortImpl$ctr_o" class="sprotty-edge thick edge" style="fill:none;stroke:rgb(112, 112, 112);stroke-linejoin:round;stroke-width:3px;"><g><path d="M 447.46875 342.66666666666663 L 882.296875 342.66666666666663 "/><path d="M 447.46875 342.66666666666663 L 882.296875 342.66666666666663 " class="clickable"/></g></g><g id="sprotty_ArchitectureBlockImpl$aes_ctr/AssignmentBlockImpl$ctr_we_o/GPortImpl$ctr_we_oOUT_to_ArchitectureBlockImpl$aes_ctr/BPortImpl$ctr_we_o" class="sprotty-edge thick edge" style="fill:none;stroke:rgb(112, 112, 112);stroke-linejoin:round;stroke-width:3px;"><g><path d="M 789.203125 227.99999999999997 L 882.296875 227.99999999999997 "/><path d="M 789.203125 227.99999999999997 L 882.296875 227.99999999999997 " class="clickable"/></g></g><g id="sprotty_ArchitectureBlockImpl$aes_ctr/BPortImpl$clk_i_to_ArchitectureBlockImpl$aes_ctr/InstantiationBlockImpl$u_state_regs/BPortImpl$clk_i" class="sprotty-edge edge" style="fill:none;stroke:rgb(112, 112, 112);stroke-linejoin:round;"><g><path d="M 0 202.99999999999997 L 60.84375 202.99999999999997 C 61.84375 202.99999999999997 62.84375 201.99999999999997 62.84375 200.99999999999997 L 62.84375 106 C 62.84375 105 63.84375 104 64.84375 104 L 498.578125 104 C 499.578125 104 500.578125 103 500.578125 102 L 500.578125 88 C 500.578125 87 501.578125 86 502.578125 86 L 550.578125 86 "/><path d="M 0 202.99999999999997 L 60.84375 202.99999999999997 C 61.84375 202.99999999999997 62.84375 201.99999999999997 62.84375 200.99999999999997 L 62.84375 106 C 62.84375 105 63.84375 104 64.84375 104 L 498.578125 104 C 499.578125 104 500.578125 103 500.578125 102 L 500.578125 88 C 500.578125 87 501.578125 86 502.578125 86 L 550.578125 86 " class="clickable"/></g><circle r="2" id="sprotty_ArchitectureBlockImpl$aes_ctr/BPortImpl$clk_i_to_ArchitectureBlockImpl$aes_ctr/InstantiationBlockImpl$u_state_regs/BPortImpl$clk_i/junction0" transform="translate(62.84375, 202.99999999999997)" class="sprotty-junction junction" style="fill:rgb(112, 112, 112);stroke:none;"/></g><g id="sprotty_ArchitectureBlockImpl$aes_ctr/BPortImpl$rst_ni_to_ArchitectureBlockImpl$aes_ctr/InstantiationBlockImpl$u_state_regs/BPortImpl$rst_ni" class="sprotty-edge edge" style="fill:none;stroke:rgb(112, 112, 112);stroke-linejoin:round;"><g><path d="M 0 236.99999999999997 L 70.84375 236.99999999999997 C 71.84375 236.99999999999997 72.84375 235.99999999999997 72.84375 234.99999999999997 L 72.84375 116 C 72.84375 115 73.84375 114 74.84375 114 L 550.578125 114 "/><path d="M 0 236.99999999999997 L 70.84375 236.99999999999997 C 71.84375 236.99999999999997 72.84375 235.99999999999997 72.84375 234.99999999999997 L 72.84375 116 C 72.84375 115 73.84375 114 74.84375 114 L 550.578125 114 " class="clickable"/></g><circle r="2" id="sprotty_ArchitectureBlockImpl$aes_ctr/BPortImpl$rst_ni_to_ArchitectureBlockImpl$aes_ctr/InstantiationBlockImpl$u_state_regs/BPortImpl$rst_ni/junction0" transform="translate(72.84375, 236.99999999999997)" class="sprotty-junction junction" style="fill:rgb(112, 112, 112);stroke:none;"/></g><g id="sprotty_ArchitectureBlockImpl$aes_ctr/BPortImpl$ctr_i_to_ArchitectureBlockImpl$aes_ctr/AssignmentBlockImpl$ctr_i_rev/GPortImpl$ctr_iIN" class="sprotty-edge thick edge" style="fill:none;stroke:rgb(112, 112, 112);stroke-linejoin:round;stroke-width:3px;"><g><path d="M 0 342.66666666666663 L 82.84375 342.66666666666663 "/><path d="M 0 342.66666666666663 L 82.84375 342.66666666666663 " class="clickable"/></g></g><g id="sprotty_ArchitectureBlockImpl$aes_ctr/BPortImpl$incr_i_to_ArchitectureBlockImpl$aes_ctr/AlwaysBlockImpl$aes_ctr_fsm/GPortImpl$incr_iIN" class="sprotty-edge edge" style="fill:none;stroke:rgb(112, 112, 112);stroke-linejoin:round;"><g><path d="M 0 271 L 384.640625 271 "/><path d="M 0 271 L 384.640625 271 " class="clickable"/></g></g><g id="sprotty_ArchitectureBlockImpl$aes_ctr/BPortImpl$clk_i_to_ArchitectureBlockImpl$aes_ctr/AlwaysBlockImpl$null10/GPortImpl$clk_iIN" class="sprotty-edge edge" style="fill:none;stroke:rgb(112, 112, 112);stroke-linejoin:round;"><g><path d="M 0 202.99999999999997 L 110.5625 202.99999999999997 C 111.5625 202.99999999999997 112.5625 203.99999999999997 112.5625 204.99999999999997 L 112.5625 224.99999999999997 C 112.5625 225.99999999999997 113.5625 226.99999999999997 114.5625 226.99999999999997 L 142.5625 226.99999999999997 "/><path d="M 0 202.99999999999997 L 110.5625 202.99999999999997 C 111.5625 202.99999999999997 112.5625 203.99999999999997 112.5625 204.99999999999997 L 112.5625 224.99999999999997 C 112.5625 225.99999999999997 113.5625 226.99999999999997 114.5625 226.99999999999997 L 142.5625 226.99999999999997 " class="clickable"/></g></g><g id="sprotty_ArchitectureBlockImpl$aes_ctr/BPortImpl$rst_ni_to_ArchitectureBlockImpl$aes_ctr/AlwaysBlockImpl$null10/GPortImpl$rst_niIN" class="sprotty-edge edge" style="fill:none;stroke:rgb(112, 112, 112);stroke-linejoin:round;"><g><path d="M 0 236.99999999999997 L 142.5625 236.99999999999997 "/><path d="M 0 236.99999999999997 L 142.5625 236.99999999999997 " class="clickable"/></g></g><g id="sprotty_ArchitectureBlockImpl$aes_ctr/AlwaysBlockImpl$aes_ctr_fsm/GPortImpl$aes_ctr_nsOUT_to_ArchitectureBlockImpl$aes_ctr/InstantiationBlockImpl$u_state_regs/BPortImpl$d_i" class="sprotty-edge thick edge" style="fill:none;stroke:rgb(112, 112, 112);stroke-linejoin:round;stroke-width:3px;"><g><path d="M 490.578125 266 L 518.578125 266 C 519.578125 266 520.578125 265 520.578125 264 L 520.578125 144 C 520.578125 143 521.578125 142 522.578125 142 L 550.578125 142 "/><path d="M 490.578125 266 L 518.578125 266 C 519.578125 266 520.578125 265 520.578125 264 L 520.578125 144 C 520.578125 143 521.578125 142 522.578125 142 L 550.578125 142 " class="clickable"/></g></g><g id="sprotty_ArchitectureBlockImpl$aes_ctr/AssignmentBlockImpl$aes_ctr_cs/GPortImpl$aes_ctr_cs_rawOUT_to_ArchitectureBlockImpl$aes_ctr/AlwaysBlockImpl$aes_ctr_fsm/GPortImpl$aes_ctr_csIN" class="sprotty-edge thick edge" style="fill:none;stroke:rgb(112, 112, 112);stroke-linejoin:round;stroke-width:3px;"><g><path d="M 789.203125 114 L 797.203125 114 C 798.203125 114 799.203125 113 799.203125 112 L 799.203125 38 C 799.203125 37 798.203125 36 797.203125 36 L 366.640625 36 C 365.640625 36 364.640625 37 364.640625 38 L 364.640625 257.3333333333333 C 364.640625 258.3333333333333 365.640625 259.3333333333333 366.640625 259.3333333333333 L 384.640625 259.3333333333333 "/><path d="M 789.203125 114 L 797.203125 114 C 798.203125 114 799.203125 113 799.203125 112 L 799.203125 38 C 799.203125 37 798.203125 36 797.203125 36 L 366.640625 36 C 365.640625 36 364.640625 37 364.640625 38 L 364.640625 257.3333333333333 C 364.640625 258.3333333333333 365.640625 259.3333333333333 366.640625 259.3333333333333 L 384.640625 259.3333333333333 " class="clickable"/></g></g><g id="sprotty_ArchitectureBlockImpl$aes_ctr/AlwaysBlockImpl$aes_ctr_fsm/GPortImpl$ctr_slice_idx_dOUT_to_ArchitectureBlockImpl$aes_ctr/AlwaysBlockImpl$null10/GPortImpl$ctr_slice_idx_dIN" class="sprotty-edge thick edge" style="fill:none;stroke:rgb(112, 112, 112);stroke-linejoin:round;stroke-width:3px;"><g><path d="M 490.578125 255.99999999999997 L 508.578125 255.99999999999997 C 509.578125 255.99999999999997 510.578125 254.99999999999997 510.578125 253.99999999999997 L 510.578125 178.99999999999997 C 510.578125 177.99999999999997 509.578125 176.99999999999997 508.578125 176.99999999999997 L 124.5625 176.99999999999997 C 123.5625 176.99999999999997 122.5625 177.99999999999997 122.5625 178.99999999999997 L 122.5625 214.99999999999997 C 122.5625 215.99999999999997 123.5625 216.99999999999997 124.5625 216.99999999999997 L 142.5625 216.99999999999997 "/><path d="M 490.578125 255.99999999999997 L 508.578125 255.99999999999997 C 509.578125 255.99999999999997 510.578125 254.99999999999997 510.578125 253.99999999999997 L 510.578125 178.99999999999997 C 510.578125 177.99999999999997 509.578125 176.99999999999997 508.578125 176.99999999999997 L 124.5625 176.99999999999997 C 123.5625 176.99999999999997 122.5625 177.99999999999997 122.5625 178.99999999999997 L 122.5625 214.99999999999997 C 122.5625 215.99999999999997 123.5625 216.99999999999997 124.5625 216.99999999999997 L 142.5625 216.99999999999997 " class="clickable"/></g></g><g id="sprotty_ArchitectureBlockImpl$aes_ctr/AlwaysBlockImpl$null10/GPortImpl$ctr_slice_idx_qOUT_to_ArchitectureBlockImpl$aes_ctr/AlwaysBlockImpl$aes_ctr_fsm/GPortImpl$ctr_slice_idx_qIN" class="sprotty-edge thick edge" style="fill:none;stroke:rgb(112, 112, 112);stroke-linejoin:round;stroke-width:3px;"><g><path d="M 191.453125 213.66666666666663 L 372.640625 213.66666666666663 C 373.640625 213.66666666666663 374.640625 214.66666666666663 374.640625 215.66666666666663 L 374.640625 245.66666666666663 C 374.640625 246.66666666666663 375.640625 247.66666666666663 376.640625 247.66666666666663 L 384.640625 247.66666666666663 "/><path d="M 191.453125 213.66666666666663 L 372.640625 213.66666666666663 C 373.640625 213.66666666666663 374.640625 214.66666666666663 374.640625 215.66666666666663 L 374.640625 245.66666666666663 C 374.640625 246.66666666666663 375.640625 247.66666666666663 376.640625 247.66666666666663 L 384.640625 247.66666666666663 " class="clickable"/></g><circle r="3" id="sprotty_ArchitectureBlockImpl$aes_ctr/AlwaysBlockImpl$null10/GPortImpl$ctr_slice_idx_qOUT_to_ArchitectureBlockImpl$aes_ctr/AlwaysBlockImpl$aes_ctr_fsm/GPortImpl$ctr_slice_idx_qIN/junction0" transform="translate(374.640625, 213.66666666666663)" class="sprotty-junction thick" style="fill:rgb(112, 112, 112);stroke:none;"/><circle r="3" id="sprotty_ArchitectureBlockImpl$aes_ctr/AlwaysBlockImpl$null10/GPortImpl$ctr_slice_idx_qOUT_to_ArchitectureBlockImpl$aes_ctr/AlwaysBlockImpl$aes_ctr_fsm/GPortImpl$ctr_slice_idx_qIN/junction1" transform="translate(374.640625, 247.66666666666663)" class="sprotty-junction thick" style="fill:rgb(112, 112, 112);stroke:none;"/></g><g id="sprotty_ArchitectureBlockImpl$aes_ctr/AlwaysBlockImpl$null9/GPortImpl$ctr_slice_idx_qOUT_to_ArchitectureBlockImpl$aes_ctr/AlwaysBlockImpl$aes_ctr_fsm/GPortImpl$ctr_slice_idx_qIN" class="sprotty-edge thick edge" style="fill:none;stroke:rgb(112, 112, 112);stroke-linejoin:round;stroke-width:3px;"><g><path d="M 354.640625 332.66666666666663 L 372.640625 332.66666666666663 C 373.640625 332.66666666666663 374.640625 331.66666666666663 374.640625 330.66666666666663 L 374.640625 249.66666666666663 C 374.640625 248.66666666666663 375.640625 247.66666666666663 376.640625 247.66666666666663 L 384.640625 247.66666666666663 "/><path d="M 354.640625 332.66666666666663 L 372.640625 332.66666666666663 C 373.640625 332.66666666666663 374.640625 331.66666666666663 374.640625 330.66666666666663 L 374.640625 249.66666666666663 C 374.640625 248.66666666666663 375.640625 247.66666666666663 376.640625 247.66666666666663 L 384.640625 247.66666666666663 " class="clickable"/></g></g><g id="sprotty_ArchitectureBlockImpl$aes_ctr/AlwaysBlockImpl$null8/GPortImpl$ctr_slice_idx_qOUT_to_ArchitectureBlockImpl$aes_ctr/AlwaysBlockImpl$aes_ctr_fsm/GPortImpl$ctr_slice_idx_qIN" class="sprotty-edge thick edge" style="fill:none;stroke:rgb(112, 112, 112);stroke-linejoin:round;stroke-width:3px;"><g><path d="M 659.3802083333334 217.99999999999997 L 757.484375 217.99999999999997 C 758.484375 217.99999999999997 759.484375 216.99999999999997 759.484375 215.99999999999997 L 759.484375 171.99999999999997 C 759.484375 170.99999999999997 758.484375 169.99999999999997 757.484375 169.99999999999997 L 376.640625 169.99999999999997 C 375.640625 169.99999999999997 374.640625 170.99999999999997 374.640625 171.99999999999997 L 374.640625 245.66666666666663 C 374.640625 246.66666666666663 375.640625 247.66666666666663 376.640625 247.66666666666663 L 384.640625 247.66666666666663 "/><path d="M 659.3802083333334 217.99999999999997 L 757.484375 217.99999999999997 C 758.484375 217.99999999999997 759.484375 216.99999999999997 759.484375 215.99999999999997 L 759.484375 171.99999999999997 C 759.484375 170.99999999999997 758.484375 169.99999999999997 757.484375 169.99999999999997 L 376.640625 169.99999999999997 C 375.640625 169.99999999999997 374.640625 170.99999999999997 374.640625 171.99999999999997 L 374.640625 245.66666666666663 C 374.640625 246.66666666666663 375.640625 247.66666666666663 376.640625 247.66666666666663 L 384.640625 247.66666666666663 " class="clickable"/></g></g><g id="sprotty_ArchitectureBlockImpl$aes_ctr/AlwaysBlockImpl$aes_ctr_fsm/GPortImpl$ctr_carry_dOUT_to_ArchitectureBlockImpl$aes_ctr/AlwaysBlockImpl$null10/GPortImpl$ctr_carry_dIN" class="sprotty-edge edge" style="fill:none;stroke:rgb(112, 112, 112);stroke-linejoin:round;"><g><path d="M 490.578125 245.99999999999997 L 498.578125 245.99999999999997 C 499.578125 245.99999999999997 500.578125 244.99999999999997 500.578125 243.99999999999997 L 500.578125 188.99999999999997 C 500.578125 187.99999999999997 499.578125 186.99999999999997 498.578125 186.99999999999997 L 134.5625 186.99999999999997 C 133.5625 186.99999999999997 132.5625 187.99999999999997 132.5625 188.99999999999997 L 132.5625 204.99999999999997 C 132.5625 205.99999999999997 133.5625 206.99999999999997 134.5625 206.99999999999997 L 142.5625 206.99999999999997 "/><path d="M 490.578125 245.99999999999997 L 498.578125 245.99999999999997 C 499.578125 245.99999999999997 500.578125 244.99999999999997 500.578125 243.99999999999997 L 500.578125 188.99999999999997 C 500.578125 187.99999999999997 499.578125 186.99999999999997 498.578125 186.99999999999997 L 134.5625 186.99999999999997 C 133.5625 186.99999999999997 132.5625 187.99999999999997 132.5625 188.99999999999997 L 132.5625 204.99999999999997 C 132.5625 205.99999999999997 133.5625 206.99999999999997 134.5625 206.99999999999997 L 142.5625 206.99999999999997 " class="clickable"/></g></g><g id="sprotty_ArchitectureBlockImpl$aes_ctr/AlwaysBlockImpl$null10/GPortImpl$ctr_carry_qOUT_to_ArchitectureBlockImpl$aes_ctr/AssignmentBlockImpl$ctr_value/GPortImpl$ctr_carry_qIN" class="sprotty-edge edge" style="fill:none;stroke:rgb(112, 112, 112);stroke-linejoin:round;"><g><path d="M 191.453125 230.33333333333331 L 199.453125 230.33333333333331 C 200.453125 230.33333333333331 201.453125 231.33333333333331 201.453125 232.33333333333331 L 201.453125 308.66666666666663 C 201.453125 309.66666666666663 202.453125 310.66666666666663 203.453125 310.66666666666663 L 211.453125 310.66666666666663 "/><path d="M 191.453125 230.33333333333331 L 199.453125 230.33333333333331 C 200.453125 230.33333333333331 201.453125 231.33333333333331 201.453125 232.33333333333331 L 201.453125 308.66666666666663 C 201.453125 309.66666666666663 202.453125 310.66666666666663 203.453125 310.66666666666663 L 211.453125 310.66666666666663 " class="clickable"/></g></g><g id="sprotty_ArchitectureBlockImpl$aes_ctr/AlwaysBlockImpl$null10/GPortImpl$ctr_carry_qOUT_to_ArchitectureBlockImpl$aes_ctr/AlwaysBlockImpl$aes_ctr_fsm/GPortImpl$ctr_carry_qIN" class="sprotty-edge edge" style="fill:none;stroke:rgb(112, 112, 112);stroke-linejoin:round;"><g><path d="M 191.453125 230.33333333333331 L 199.453125 230.33333333333331 C 200.453125 230.33333333333331 201.453125 231.33333333333331 201.453125 232.33333333333331 L 201.453125 280.66666666666663 C 201.453125 281.66666666666663 202.453125 282.66666666666663 203.453125 282.66666666666663 L 384.640625 282.66666666666663 "/><path d="M 191.453125 230.33333333333331 L 199.453125 230.33333333333331 C 200.453125 230.33333333333331 201.453125 231.33333333333331 201.453125 232.33333333333331 L 201.453125 280.66666666666663 C 201.453125 281.66666666666663 202.453125 282.66666666666663 203.453125 282.66666666666663 L 384.640625 282.66666666666663 " class="clickable"/></g><circle r="2" id="sprotty_ArchitectureBlockImpl$aes_ctr/AlwaysBlockImpl$null10/GPortImpl$ctr_carry_qOUT_to_ArchitectureBlockImpl$aes_ctr/AlwaysBlockImpl$aes_ctr_fsm/GPortImpl$ctr_carry_qIN/junction0" transform="translate(201.453125, 282.66666666666663)" class="sprotty-junction junction" style="fill:rgb(112, 112, 112);stroke:none;"/></g><g id="sprotty_ArchitectureBlockImpl$aes_ctr/AssignmentBlockImpl$ctr_i_rev/GPortImpl$ctr_i_revOUT_to_ArchitectureBlockImpl$aes_ctr/AssignmentBlockImpl$ctr_i_slice/GPortImpl$ctr_i_revIN" class="sprotty-edge thick edge" style="fill:none;stroke:rgb(112, 112, 112);stroke-linejoin:round;stroke-width:3px;"><g><path d="M 102.5625 342.66666666666663 L 110.5625 342.66666666666663 C 111.5625 342.66666666666663 112.5625 341.66666666666663 112.5625 340.66666666666663 L 112.5625 322.66666666666663 C 112.5625 321.66666666666663 113.5625 320.66666666666663 114.5625 320.66666666666663 L 157.1484375 320.66666666666663 "/><path d="M 102.5625 342.66666666666663 L 110.5625 342.66666666666663 C 111.5625 342.66666666666663 112.5625 341.66666666666663 112.5625 340.66666666666663 L 112.5625 322.66666666666663 C 112.5625 321.66666666666663 113.5625 320.66666666666663 114.5625 320.66666666666663 L 157.1484375 320.66666666666663 " class="clickable"/></g><circle r="3" id="sprotty_ArchitectureBlockImpl$aes_ctr/AssignmentBlockImpl$ctr_i_rev/GPortImpl$ctr_i_revOUT_to_ArchitectureBlockImpl$aes_ctr/AssignmentBlockImpl$ctr_i_slice/GPortImpl$ctr_i_revIN/junction0" transform="translate(112.5625, 342.66666666666663)" class="sprotty-junction thick" style="fill:rgb(112, 112, 112);stroke:none;"/></g><g id="sprotty_ArchitectureBlockImpl$aes_ctr/AssignmentBlockImpl$ctr_i_rev/GPortImpl$ctr_i_revOUT_to_ArchitectureBlockImpl$aes_ctr/AlwaysBlockImpl$null9/GPortImpl$ctr_i_revIN" class="sprotty-edge thick edge" style="fill:none;stroke:rgb(112, 112, 112);stroke-linejoin:round;stroke-width:3px;"><g><path d="M 102.5625 342.66666666666663 L 290.890625 342.66666666666663 "/><path d="M 102.5625 342.66666666666663 L 290.890625 342.66666666666663 " class="clickable"/></g></g><g id="sprotty_ArchitectureBlockImpl$aes_ctr/AlwaysBlockImpl$null9/GPortImpl$ctr_o_revOUT_to_ArchitectureBlockImpl$aes_ctr/AssignmentBlockImpl$ctr_o/GPortImpl$ctr_o_revIN" class="sprotty-edge thick edge" style="fill:none;stroke:rgb(112, 112, 112);stroke-linejoin:round;stroke-width:3px;"><g><path d="M 354.640625 342.66666666666663 L 427.75 342.66666666666663 "/><path d="M 354.640625 342.66666666666663 L 427.75 342.66666666666663 " class="clickable"/></g></g><g id="sprotty_ArchitectureBlockImpl$aes_ctr/AlwaysBlockImpl$null8/GPortImpl$ctr_we_o_revOUT_to_ArchitectureBlockImpl$aes_ctr/AssignmentBlockImpl$ctr_we_o/GPortImpl$ctr_we_o_revIN" class="sprotty-edge thick edge" style="fill:none;stroke:rgb(112, 112, 112);stroke-linejoin:round;stroke-width:3px;"><g><path d="M 659.3802083333334 227.99999999999997 L 769.484375 227.99999999999997 "/><path d="M 659.3802083333334 227.99999999999997 L 769.484375 227.99999999999997 " class="clickable"/></g></g><g id="sprotty_ArchitectureBlockImpl$aes_ctr/AlwaysBlockImpl$aes_ctr_fsm/GPortImpl$ctr_weOUT_to_ArchitectureBlockImpl$aes_ctr/AlwaysBlockImpl$null8/GPortImpl$ctr_weIN" class="sprotty-edge edge" style="fill:none;stroke:rgb(112, 112, 112);stroke-linejoin:round;"><g><path d="M 490.578125 276 L 528.578125 276 C 529.578125 276 530.578125 275 530.578125 274 L 530.578125 224.99999999999997 C 530.578125 223.99999999999997 531.578125 222.99999999999997 532.578125 222.99999999999997 L 595.6302083333334 222.99999999999997 "/><path d="M 490.578125 276 L 528.578125 276 C 529.578125 276 530.578125 275 530.578125 274 L 530.578125 224.99999999999997 C 530.578125 223.99999999999997 531.578125 222.99999999999997 532.578125 222.99999999999997 L 595.6302083333334 222.99999999999997 " class="clickable"/></g></g><g id="sprotty_ArchitectureBlockImpl$aes_ctr/AssignmentBlockImpl$ctr_i_slice/GPortImpl$ctr_i_revOUT_to_ArchitectureBlockImpl$aes_ctr/AssignmentBlockImpl$ctr_value/GPortImpl$ctr_i_sliceIN" class="sprotty-edge thick edge" style="fill:none;stroke:rgb(112, 112, 112);stroke-linejoin:round;stroke-width:3px;"><g><path d="M 176.8671875 320.66666666666663 L 211.453125 320.66666666666663 "/><path d="M 176.8671875 320.66666666666663 L 211.453125 320.66666666666663 " class="clickable"/></g></g><g id="sprotty_ArchitectureBlockImpl$aes_ctr/AssignmentBlockImpl$ctr_o_slice/GPortImpl$ctr_valueOUT_to_ArchitectureBlockImpl$aes_ctr/AlwaysBlockImpl$null9/GPortImpl$ctr_o_sliceIN" class="sprotty-edge thick edge" style="fill:none;stroke:rgb(112, 112, 112);stroke-linejoin:round;stroke-width:3px;"><g><path d="M 270.890625 315.66666666666663 L 278.890625 315.66666666666663 C 279.890625 315.66666666666663 280.890625 316.66666666666663 280.890625 317.66666666666663 L 280.890625 330.66666666666663 C 280.890625 331.66666666666663 281.890625 332.66666666666663 282.890625 332.66666666666663 L 290.890625 332.66666666666663 "/><path d="M 270.890625 315.66666666666663 L 278.890625 315.66666666666663 C 279.890625 315.66666666666663 280.890625 316.66666666666663 280.890625 317.66666666666663 L 280.890625 330.66666666666663 C 280.890625 331.66666666666663 281.890625 332.66666666666663 282.890625 332.66666666666663 L 290.890625 332.66666666666663 " class="clickable"/></g></g><g id="sprotty_ArchitectureBlockImpl$aes_ctr/AssignmentBlockImpl$ctr_value/GPortImpl$ctr_carry_qOUT_to_ArchitectureBlockImpl$aes_ctr/AssignmentBlockImpl$ctr_o_slice/GPortImpl$ctr_valueIN" class="sprotty-edge thick edge" style="fill:none;stroke:rgb(112, 112, 112);stroke-linejoin:round;stroke-width:3px;"><g><path d="M 231.171875 315.66666666666663 L 251.171875 315.66666666666663 "/><path d="M 231.171875 315.66666666666663 L 251.171875 315.66666666666663 " class="clickable"/></g></g><g id="sprotty_ArchitectureBlockImpl$aes_ctr/AssignmentBlockImpl$ctr_value/GPortImpl$ctr_carry_qOUT_to_ArchitectureBlockImpl$aes_ctr/AlwaysBlockImpl$aes_ctr_fsm/GPortImpl$ctr_valueIN" class="sprotty-edge thick edge" style="fill:none;stroke:rgb(112, 112, 112);stroke-linejoin:round;stroke-width:3px;"><g><path d="M 231.171875 315.66666666666663 L 239.171875 315.66666666666663 C 240.171875 315.66666666666663 241.171875 314.66666666666663 241.171875 313.66666666666663 L 241.171875 294.66666666666663 C 241.171875 293.66666666666663 242.171875 292.66666666666663 243.171875 292.66666666666663 L 364.640625 292.66666666666663 L 364.640625 294.3333333333333 L 384.640625 294.3333333333333 "/><path d="M 231.171875 315.66666666666663 L 239.171875 315.66666666666663 C 240.171875 315.66666666666663 241.171875 314.66666666666663 241.171875 313.66666666666663 L 241.171875 294.66666666666663 C 241.171875 293.66666666666663 242.171875 292.66666666666663 243.171875 292.66666666666663 L 364.640625 292.66666666666663 L 364.640625 294.3333333333333 L 384.640625 294.3333333333333 " class="clickable"/></g><circle r="3" id="sprotty_ArchitectureBlockImpl$aes_ctr/AssignmentBlockImpl$ctr_value/GPortImpl$ctr_carry_qOUT_to_ArchitectureBlockImpl$aes_ctr/AlwaysBlockImpl$aes_ctr_fsm/GPortImpl$ctr_valueIN/junction0" transform="translate(241.171875, 315.66666666666663)" class="sprotty-junction thick" style="fill:rgb(112, 112, 112);stroke:none;"/></g><g id="sprotty_ArchitectureBlockImpl$aes_ctr/InstantiationBlockImpl$u_state_regs/BPortImpl$q_o_to_ArchitectureBlockImpl$aes_ctr/AssignmentBlockImpl$aes_ctr_cs/GPortImpl$aes_ctr_cs_rawIN" class="sprotty-edge thick edge" style="fill:none;stroke:rgb(112, 112, 112);stroke-linejoin:round;stroke-width:3px;"><g><path d="M 749.484375 114 L 769.484375 114 "/><path d="M 749.484375 114 L 769.484375 114 " class="clickable"/></g></g><g id="sprotty_ArchitectureBlockImpl$aes_ctr/AlwaysBlockImpl$null8" transform="translate(595.6302083333334, 207.99999999999997)" class="statement"><rect x="0" y="0" rx="10" ry="5" width="63.75" height="30" class="sprotty-node" style="fill:rgb(245, 245, 245);stroke:rgb(112, 112, 112);"/><text class="clickable sprotty-label statementtype" id="sprotty_ArchitectureBlockImpl$aes_ctr/AlwaysBlockImpl$null8/labeltype" transform="translate(5, 9) translate(26.875, 9)" style="cursor:default;font-size:8px;font-weight:700;perspective-origin:0px 0px;fill:rgb(112, 112, 112);text-anchor:middle;">always_comb</text><g id="sprotty_ArchitectureBlockImpl$aes_ctr/AlwaysBlockImpl$null8/GPortImpl$ctr_weIN" transform="translate(0, 15)" class="sprotty-hidden hidden" style="display:block;height:0px;width:0px;"/><g id="sprotty_ArchitectureBlockImpl$aes_ctr/AlwaysBlockImpl$null8/GPortImpl$ctr_we_o_revOUT" transform="translate(63.75, 20)" class="sprotty-hidden hidden" style="display:block;height:0px;width:0px;"/><g id="sprotty_ArchitectureBlockImpl$aes_ctr/AlwaysBlockImpl$null8/GPortImpl$ctr_slice_idx_qOUT" transform="translate(63.75, 10)" class="sprotty-hidden hidden" style="display:block;height:0px;width:0px;"/></g><g id="sprotty_ArchitectureBlockImpl$aes_ctr/AlwaysBlockImpl$null9" transform="translate(290.890625, 322.66666666666663)" class="statement"><rect x="0" y="0" rx="10" ry="5" width="63.75" height="30" class="sprotty-node" style="fill:rgb(245, 245, 245);stroke:rgb(112, 112, 112);"/><text class="clickable sprotty-label statementtype" id="sprotty_ArchitectureBlockImpl$aes_ctr/AlwaysBlockImpl$null9/labeltype" transform="translate(5, 9) translate(26.875, 9)" style="cursor:default;font-size:8px;font-weight:700;perspective-origin:0px 0px;fill:rgb(112, 112, 112);text-anchor:middle;">always_comb</text><g id="sprotty_ArchitectureBlockImpl$aes_ctr/AlwaysBlockImpl$null9/GPortImpl$ctr_o_sliceIN" transform="translate(0, 10)" class="sprotty-hidden hidden" style="display:block;height:0px;width:0px;"/><g id="sprotty_ArchitectureBlockImpl$aes_ctr/AlwaysBlockImpl$null9/GPortImpl$ctr_i_revIN" transform="translate(0, 20)" class="sprotty-hidden hidden" style="display:block;height:0px;width:0px;"/><g id="sprotty_ArchitectureBlockImpl$aes_ctr/AlwaysBlockImpl$null9/GPortImpl$ctr_o_revOUT" transform="translate(63.75, 20)" class="sprotty-hidden hidden" style="display:block;height:0px;width:0px;"/><g id="sprotty_ArchitectureBlockImpl$aes_ctr/AlwaysBlockImpl$null9/GPortImpl$ctr_slice_idx_qOUT" transform="translate(63.75, 10)" class="sprotty-hidden hidden" style="display:block;height:0px;width:0px;"/></g><g id="sprotty_ArchitectureBlockImpl$aes_ctr/AlwaysBlockImpl$null10" transform="translate(142.5625, 196.99999999999997)" class="statement"><rect x="0" y="0" rx="10" ry="5" width="48.890625" height="50" class="sprotty-node" style="fill:rgb(245, 245, 245);stroke:rgb(112, 112, 112);"/><text class="clickable sprotty-label statementtype" id="sprotty_ArchitectureBlockImpl$aes_ctr/AlwaysBlockImpl$null10/labeltype" transform="translate(5, 19) translate(18.828125, 9)" style="cursor:default;font-size:8px;font-weight:700;perspective-origin:0.609375px 0px;fill:rgb(112, 112, 112);text-anchor:middle;">always_ff</text><g id="sprotty_ArchitectureBlockImpl$aes_ctr/AlwaysBlockImpl$null10/GPortImpl$ctr_carry_dIN" transform="translate(0, 10)" class="sprotty-hidden hidden" style="display:block;height:0px;width:0px;"/><g id="sprotty_ArchitectureBlockImpl$aes_ctr/AlwaysBlockImpl$null10/GPortImpl$ctr_slice_idx_dIN" transform="translate(0, 20)" class="sprotty-hidden hidden" style="display:block;height:0px;width:0px;"/><g id="sprotty_ArchitectureBlockImpl$aes_ctr/AlwaysBlockImpl$null10/GPortImpl$rst_niIN" transform="translate(0, 40)" class="sprotty-hidden hidden" style="display:block;height:0px;width:0px;"/><g id="sprotty_ArchitectureBlockImpl$aes_ctr/AlwaysBlockImpl$null10/GPortImpl$clk_iIN" transform="translate(0, 30)" class="sprotty-hidden hidden" style="display:block;height:0px;width:0px;"/><g id="sprotty_ArchitectureBlockImpl$aes_ctr/AlwaysBlockImpl$null10/GPortImpl$ctr_slice_idx_qOUT" transform="translate(48.890625, 16.666666666666668)" class="sprotty-hidden hidden" style="display:block;height:0px;width:0px;"/><g id="sprotty_ArchitectureBlockImpl$aes_ctr/AlwaysBlockImpl$null10/GPortImpl$ctr_carry_qOUT" transform="translate(48.890625, 33.333333333333336)" class="sprotty-hidden hidden" style="display:block;height:0px;width:0px;"/></g><g id="sprotty_ArchitectureBlockImpl$aes_ctr/AlwaysBlockImpl$aes_ctr_fsm" transform="translate(384.640625, 235.99999999999997)" class="statement"><rect x="0" y="0" rx="10" ry="5" width="105.9375" height="70" class="sprotty-node" style="fill:rgb(245, 245, 245);stroke:rgb(112, 112, 112);"/><text class="clickable sprotty-label statementtext" id="sprotty_ArchitectureBlockImpl$aes_ctr/AlwaysBlockImpl$aes_ctr_fsm/labeltext" transform="translate(5, 17) translate(47.96875, 19)" style="cursor:default;font-weight:700;perspective-origin:0px 0px;fill:rgb(112, 112, 112);text-anchor:middle;">aes_ctr_fsm</text><text class="clickable sprotty-label statementtype" id="sprotty_ArchitectureBlockImpl$aes_ctr/AlwaysBlockImpl$aes_ctr_fsm/labeltype" transform="translate(26.09375, 41) translate(26.875, 9)" style="cursor:default;font-size:8px;font-weight:700;perspective-origin:0px 0px;fill:rgb(112, 112, 112);text-anchor:middle;">always_comb</text><g id="sprotty_ArchitectureBlockImpl$aes_ctr/AlwaysBlockImpl$aes_ctr_fsm/GPortImpl$ctr_valueIN" transform="translate(0, 58.33333333333333)" class="sprotty-hidden hidden" style="display:block;height:0px;width:0px;"/><g id="sprotty_ArchitectureBlockImpl$aes_ctr/AlwaysBlockImpl$aes_ctr_fsm/GPortImpl$incr_iIN" transform="translate(0, 35)" class="sprotty-hidden hidden" style="display:block;height:0px;width:0px;"/><g id="sprotty_ArchitectureBlockImpl$aes_ctr/AlwaysBlockImpl$aes_ctr_fsm/GPortImpl$ctr_carry_qIN" transform="translate(0, 46.666666666666664)" class="sprotty-hidden hidden" style="display:block;height:0px;width:0px;"/><g id="sprotty_ArchitectureBlockImpl$aes_ctr/AlwaysBlockImpl$aes_ctr_fsm/GPortImpl$ctr_slice_idx_qIN" transform="translate(0, 11.666666666666666)" class="sprotty-hidden hidden" style="display:block;height:0px;width:0px;"/><g id="sprotty_ArchitectureBlockImpl$aes_ctr/AlwaysBlockImpl$aes_ctr_fsm/GPortImpl$aes_ctr_csIN" transform="translate(0, 23.333333333333332)" class="sprotty-hidden hidden" style="display:block;height:0px;width:0px;"/><g id="sprotty_ArchitectureBlockImpl$aes_ctr/AlwaysBlockImpl$aes_ctr_fsm/GPortImpl$ready_oOUT" transform="translate(105.9375, 50)" class="sprotty-hidden hidden" style="display:block;height:0px;width:0px;"/><g id="sprotty_ArchitectureBlockImpl$aes_ctr/AlwaysBlockImpl$aes_ctr_fsm/GPortImpl$ctr_weOUT" transform="translate(105.9375, 40)" class="sprotty-hidden hidden" style="display:block;height:0px;width:0px;"/><g id="sprotty_ArchitectureBlockImpl$aes_ctr/AlwaysBlockImpl$aes_ctr_fsm/GPortImpl$alert_oOUT" transform="translate(105.9375, 60)" class="sprotty-hidden hidden" style="display:block;height:0px;width:0px;"/><g id="sprotty_ArchitectureBlockImpl$aes_ctr/AlwaysBlockImpl$aes_ctr_fsm/GPortImpl$aes_ctr_nsOUT" transform="translate(105.9375, 30)" class="sprotty-hidden hidden" style="display:block;height:0px;width:0px;"/><g id="sprotty_ArchitectureBlockImpl$aes_ctr/AlwaysBlockImpl$aes_ctr_fsm/GPortImpl$ctr_slice_idx_dOUT" transform="translate(105.9375, 20)" class="sprotty-hidden hidden" style="display:block;height:0px;width:0px;"/><g id="sprotty_ArchitectureBlockImpl$aes_ctr/AlwaysBlockImpl$aes_ctr_fsm/GPortImpl$ctr_carry_dOUT" transform="translate(105.9375, 10)" class="sprotty-hidden hidden" style="display:block;height:0px;width:0px;"/></g><g id="sprotty_ArchitectureBlockImpl$aes_ctr/AssignmentBlockImpl$ctr_we_o" transform="translate(769.484375, 216.99999999999997)" class="statement"><rect x="0" y="0" rx="10" ry="5" width="19.71875" height="22" class="sprotty-node" style="fill:rgb(245, 245, 245);stroke:rgb(112, 112, 112);"/><text class="clickable sprotty-label statementtype" id="sprotty_ArchitectureBlockImpl$aes_ctr/AssignmentBlockImpl$ctr_we_o/labeltype" transform="translate(5, 5) translate(4.71875, 9)" style="cursor:default;font-size:8px;font-weight:700;perspective-origin:0.140625px 0px;fill:rgb(112, 112, 112);text-anchor:middle;">&lt;=</text><g id="sprotty_ArchitectureBlockImpl$aes_ctr/AssignmentBlockImpl$ctr_we_o/GPortImpl$ctr_we_o_revIN" transform="translate(0, 11)" class="sprotty-hidden hidden" style="display:block;height:0px;width:0px;"/><g id="sprotty_ArchitectureBlockImpl$aes_ctr/AssignmentBlockImpl$ctr_we_o/GPortImpl$ctr_we_oOUT" transform="translate(19.71875, 11)" class="sprotty-hidden hidden" style="display:block;height:0px;width:0px;"/></g><g id="sprotty_ArchitectureBlockImpl$aes_ctr/AssignmentBlockImpl$ctr_o" transform="translate(427.75, 331.66666666666663)" class="statement"><rect x="0" y="0" rx="10" ry="5" width="19.71875" height="22" class="sprotty-node" style="fill:rgb(245, 245, 245);stroke:rgb(112, 112, 112);"/><text class="clickable sprotty-label statementtype" id="sprotty_ArchitectureBlockImpl$aes_ctr/AssignmentBlockImpl$ctr_o/labeltype" transform="translate(5, 5) translate(4.71875, 9)" style="cursor:default;font-size:8px;font-weight:700;perspective-origin:0.140625px 0px;fill:rgb(112, 112, 112);text-anchor:middle;">&lt;=</text><g id="sprotty_ArchitectureBlockImpl$aes_ctr/AssignmentBlockImpl$ctr_o/GPortImpl$ctr_o_revIN" transform="translate(0, 11)" class="sprotty-hidden hidden" style="display:block;height:0px;width:0px;"/><g id="sprotty_ArchitectureBlockImpl$aes_ctr/AssignmentBlockImpl$ctr_o/GPortImpl$ctr_oOUT" transform="translate(19.71875, 11)" class="sprotty-hidden hidden" style="display:block;height:0px;width:0px;"/></g><g id="sprotty_ArchitectureBlockImpl$aes_ctr/AssignmentBlockImpl$aes_ctr_cs" transform="translate(769.484375, 103)" class="statement"><rect x="0" y="0" rx="10" ry="5" width="19.71875" height="22" class="sprotty-node" style="fill:rgb(245, 245, 245);stroke:rgb(112, 112, 112);"/><text class="clickable sprotty-label statementtype" id="sprotty_ArchitectureBlockImpl$aes_ctr/AssignmentBlockImpl$aes_ctr_cs/labeltype" transform="translate(5, 5) translate(4.71875, 9)" style="cursor:default;font-size:8px;font-weight:700;perspective-origin:0.140625px 0px;fill:rgb(112, 112, 112);text-anchor:middle;">&lt;=</text><g id="sprotty_ArchitectureBlockImpl$aes_ctr/AssignmentBlockImpl$aes_ctr_cs/GPortImpl$aes_ctr_cs_rawIN" transform="translate(0, 11)" class="sprotty-hidden hidden" style="display:block;height:0px;width:0px;"/><g id="sprotty_ArchitectureBlockImpl$aes_ctr/AssignmentBlockImpl$aes_ctr_cs/GPortImpl$aes_ctr_cs_rawOUT" transform="translate(19.71875, 11)" class="sprotty-hidden hidden" style="display:block;height:0px;width:0px;"/></g><g id="sprotty_ArchitectureBlockImpl$aes_ctr/AssignmentBlockImpl$ctr_o_slice" transform="translate(251.171875, 304.66666666666663)" class="statement"><rect x="0" y="0" rx="10" ry="5" width="19.71875" height="22" class="sprotty-node" style="fill:rgb(245, 245, 245);stroke:rgb(112, 112, 112);"/><text class="clickable sprotty-label statementtype" id="sprotty_ArchitectureBlockImpl$aes_ctr/AssignmentBlockImpl$ctr_o_slice/labeltype" transform="translate(5, 5) translate(4.71875, 9)" style="cursor:default;font-size:8px;font-weight:700;perspective-origin:0.140625px 0px;fill:rgb(112, 112, 112);text-anchor:middle;">&lt;=</text><g id="sprotty_ArchitectureBlockImpl$aes_ctr/AssignmentBlockImpl$ctr_o_slice/GPortImpl$ctr_valueIN" transform="translate(0, 11)" class="sprotty-hidden hidden" style="display:block;height:0px;width:0px;"/><g id="sprotty_ArchitectureBlockImpl$aes_ctr/AssignmentBlockImpl$ctr_o_slice/GPortImpl$ctr_valueOUT" transform="translate(19.71875, 11)" class="sprotty-hidden hidden" style="display:block;height:0px;width:0px;"/></g><g id="sprotty_ArchitectureBlockImpl$aes_ctr/AssignmentBlockImpl$ctr_value" transform="translate(211.453125, 300.66666666666663)" class="statement"><rect x="0" y="0" rx="10" ry="5" width="19.71875" height="30" class="sprotty-node" style="fill:rgb(245, 245, 245);stroke:rgb(112, 112, 112);"/><text class="clickable sprotty-label statementtype" id="sprotty_ArchitectureBlockImpl$aes_ctr/AssignmentBlockImpl$ctr_value/labeltype" transform="translate(5, 9) translate(4.71875, 9)" style="cursor:default;font-size:8px;font-weight:700;perspective-origin:0.140625px 0px;fill:rgb(112, 112, 112);text-anchor:middle;">&lt;=</text><g id="sprotty_ArchitectureBlockImpl$aes_ctr/AssignmentBlockImpl$ctr_value/GPortImpl$ctr_carry_qIN" transform="translate(0, 10)" class="sprotty-hidden hidden" style="display:block;height:0px;width:0px;"/><g id="sprotty_ArchitectureBlockImpl$aes_ctr/AssignmentBlockImpl$ctr_value/GPortImpl$ctr_i_sliceIN" transform="translate(0, 20)" class="sprotty-hidden hidden" style="display:block;height:0px;width:0px;"/><g id="sprotty_ArchitectureBlockImpl$aes_ctr/AssignmentBlockImpl$ctr_value/GPortImpl$ctr_carry_qOUT" transform="translate(19.71875, 15)" class="sprotty-hidden hidden" style="display:block;height:0px;width:0px;"/></g><g id="sprotty_ArchitectureBlockImpl$aes_ctr/AssignmentBlockImpl$ctr_i_slice" transform="translate(157.1484375, 309.66666666666663)" class="statement"><rect x="0" y="0" rx="10" ry="5" width="19.71875" height="22" class="sprotty-node" style="fill:rgb(245, 245, 245);stroke:rgb(112, 112, 112);"/><text class="clickable sprotty-label statementtype" id="sprotty_ArchitectureBlockImpl$aes_ctr/AssignmentBlockImpl$ctr_i_slice/labeltype" transform="translate(5, 5) translate(4.71875, 9)" style="cursor:default;font-size:8px;font-weight:700;perspective-origin:0.140625px 0px;fill:rgb(112, 112, 112);text-anchor:middle;">&lt;=</text><g id="sprotty_ArchitectureBlockImpl$aes_ctr/AssignmentBlockImpl$ctr_i_slice/GPortImpl$ctr_i_revIN" transform="translate(0, 11)" class="sprotty-hidden hidden" style="display:block;height:0px;width:0px;"/><g id="sprotty_ArchitectureBlockImpl$aes_ctr/AssignmentBlockImpl$ctr_i_slice/GPortImpl$ctr_i_revOUT" transform="translate(19.71875, 11)" class="sprotty-hidden hidden" style="display:block;height:0px;width:0px;"/></g><g id="sprotty_ArchitectureBlockImpl$aes_ctr/AssignmentBlockImpl$ctr_i_rev" transform="translate(82.84375, 331.66666666666663)" class="statement"><rect x="0" y="0" rx="10" ry="5" width="19.71875" height="22" class="sprotty-node" style="fill:rgb(245, 245, 245);stroke:rgb(112, 112, 112);"/><text class="clickable sprotty-label statementtype" id="sprotty_ArchitectureBlockImpl$aes_ctr/AssignmentBlockImpl$ctr_i_rev/labeltype" transform="translate(5, 5) translate(4.71875, 9)" style="cursor:default;font-size:8px;font-weight:700;perspective-origin:0.140625px 0px;fill:rgb(112, 112, 112);text-anchor:middle;">&lt;=</text><g id="sprotty_ArchitectureBlockImpl$aes_ctr/AssignmentBlockImpl$ctr_i_rev/GPortImpl$ctr_iIN" transform="translate(0, 11)" class="sprotty-hidden hidden" style="display:block;height:0px;width:0px;"/><g id="sprotty_ArchitectureBlockImpl$aes_ctr/AssignmentBlockImpl$ctr_i_rev/GPortImpl$ctr_i_revOUT" transform="translate(19.71875, 11)" class="sprotty-hidden hidden" style="display:block;height:0px;width:0px;"/></g><g id="sprotty_ArchitectureBlockImpl$aes_ctr/InstantiationBlockImpl$u_state_regs" transform="translate(550.578125, 48)" class="instantiation"><g class="sprotty-block" style="fill:rgb(255, 255, 255);stroke:rgb(48, 48, 48);stroke-dasharray:0px;"><rect x="0" y="0" rx="1" ry="1" width="198.90625" height="112"/><text x="99.453125" y="12" class="sprotty-block-name" style="cursor:pointer;font-weight:700;perspective-origin:99.4531px 0px;fill:rgb(48, 48, 48);stroke:rgba(0, 0, 0, 0);dominant-baseline:middle;text-anchor:middle;">u_state_regs : prim_flop</text><line x1="0" y1="20" x2="198.90625" y2="20"/></g><g id="sprotty_ArchitectureBlockImpl$aes_ctr/InstantiationBlockImpl$u_state_regs/BPortImpl$d_i" transform="translate(0, 94)" class="triangle"><path d="M 0,0 L 5,2.5 L 0,5 Z" transform="translate(-1.67, -2.5)" class="sprotty-port" style="fill:rgb(48, 48, 48);stroke:rgb(48, 48, 48);"/><text class="clickable sprotty-label port" id="sprotty_ArchitectureBlockImpl$aes_ctr/InstantiationBlockImpl$u_state_regs/BPortImpl$d_i/label" transform="translate(6, -9) translate(8.734375, 14)" style="cursor:default;font-size:12px;perspective-origin:0px 0px;fill:rgb(48, 48, 48);text-anchor:middle;">d_i</text></g><g id="sprotty_ArchitectureBlockImpl$aes_ctr/InstantiationBlockImpl$u_state_regs/BPortImpl$rst_ni" transform="translate(0, 66)" class="triangle"><path d="M 0,0 L 5,2.5 L 0,5 Z" transform="translate(-1.67, -2.5)" class="sprotty-port" style="fill:rgb(48, 48, 48);stroke:rgb(48, 48, 48);"/><text class="clickable sprotty-label port" id="sprotty_ArchitectureBlockImpl$aes_ctr/InstantiationBlockImpl$u_state_regs/BPortImpl$rst_ni/label" transform="translate(6, -9) translate(15.921875, 14)" style="cursor:default;font-size:12px;perspective-origin:0px 0px;fill:rgb(48, 48, 48);text-anchor:middle;">rst_ni</text></g><g id="sprotty_ArchitectureBlockImpl$aes_ctr/InstantiationBlockImpl$u_state_regs/BPortImpl$clk_i" transform="translate(0, 38)" class="triangle"><path d="M 0,0 L 5,2.5 L 0,5 Z" transform="translate(-1.67, -2.5)" class="sprotty-port" style="fill:rgb(48, 48, 48);stroke:rgb(48, 48, 48);"/><text class="clickable sprotty-label port" id="sprotty_ArchitectureBlockImpl$aes_ctr/InstantiationBlockImpl$u_state_regs/BPortImpl$clk_i/label" transform="translate(6, -9) translate(13.09375, 14)" style="cursor:default;font-size:12px;perspective-origin:0px 0px;fill:rgb(48, 48, 48);text-anchor:middle;">clk_i</text></g><g id="sprotty_ArchitectureBlockImpl$aes_ctr/InstantiationBlockImpl$u_state_regs/BPortImpl$q_o" transform="translate(198.90625, 66)" class="triangle"><path d="M 0,0 L 5,2.5 L 0,5 Z" transform="translate(-1.67, -2.5)" class="sprotty-port" style="fill:rgb(48, 48, 48);stroke:rgb(48, 48, 48);"/><text class="clickable sprotty-label port" id="sprotty_ArchitectureBlockImpl$aes_ctr/InstantiationBlockImpl$u_state_regs/BPortImpl$q_o/label" transform="translate(-27.4375, -9) translate(10.71875, 14)" style="cursor:default;font-size:12px;perspective-origin:0px 0px;fill:rgb(48, 48, 48);text-anchor:middle;">q_o</text></g></g><g id="sprotty_ArchitectureBlockImpl$aes_ctr/BPortImpl$ctr_i" transform="translate(0, 342.66666666666663)" class="triangle"><path d="M 0,0 L 5,2.5 L 0,5 Z" transform="translate(-1.67, -2.5)" class="sprotty-port" style="fill:rgb(48, 48, 48);stroke:rgb(48, 48, 48);"/><text class="clickable sprotty-label port" id="sprotty_ArchitectureBlockImpl$aes_ctr/BPortImpl$ctr_i/label" transform="translate(6, 6) translate(12.59375, 14)" style="cursor:default;font-size:12px;perspective-origin:0px 0px;fill:rgb(48, 48, 48);text-anchor:middle;">ctr_i</text></g><g id="sprotty_ArchitectureBlockImpl$aes_ctr/BPortImpl$incr_i" transform="translate(0, 271)" class="triangle"><path d="M 0,0 L 5,2.5 L 0,5 Z" transform="translate(-1.67, -2.5)" class="sprotty-port" style="fill:rgb(48, 48, 48);stroke:rgb(48, 48, 48);"/><text class="clickable sprotty-label port" id="sprotty_ArchitectureBlockImpl$aes_ctr/BPortImpl$incr_i/label" transform="translate(6, 6) translate(15.703125, 14)" style="cursor:default;font-size:12px;perspective-origin:0px 0px;fill:rgb(48, 48, 48);text-anchor:middle;">incr_i</text></g><g id="sprotty_ArchitectureBlockImpl$aes_ctr/BPortImpl$rst_ni" transform="translate(0, 236.99999999999997)" class="triangle"><path d="M 0,0 L 5,2.5 L 0,5 Z" transform="translate(-1.67, -2.5)" class="sprotty-port" style="fill:rgb(48, 48, 48);stroke:rgb(48, 48, 48);"/><text class="clickable sprotty-label port" id="sprotty_ArchitectureBlockImpl$aes_ctr/BPortImpl$rst_ni/label" transform="translate(6, 6) translate(15.921875, 14)" style="cursor:default;font-size:12px;perspective-origin:0px 0px;fill:rgb(48, 48, 48);text-anchor:middle;">rst_ni</text></g><g id="sprotty_ArchitectureBlockImpl$aes_ctr/BPortImpl$clk_i" transform="translate(0, 202.99999999999997)" class="triangle"><path d="M 0,0 L 5,2.5 L 0,5 Z" transform="translate(-1.67, -2.5)" class="sprotty-port" style="fill:rgb(48, 48, 48);stroke:rgb(48, 48, 48);"/><text class="clickable sprotty-label port" id="sprotty_ArchitectureBlockImpl$aes_ctr/BPortImpl$clk_i/label" transform="translate(6, 6) translate(13.09375, 14)" style="cursor:default;font-size:12px;perspective-origin:0px 0px;fill:rgb(48, 48, 48);text-anchor:middle;">clk_i</text></g><g id="sprotty_ArchitectureBlockImpl$aes_ctr/BPortImpl$ready_o" transform="translate(882.296875, 262)" class="triangle"><path d="M 0,0 L 5,2.5 L 0,5 Z" transform="translate(-1.67, -2.5)" class="sprotty-port" style="fill:rgb(48, 48, 48);stroke:rgb(48, 48, 48);"/><text class="clickable sprotty-label port" id="sprotty_ArchitectureBlockImpl$aes_ctr/BPortImpl$ready_o/label" transform="translate(-51.4375, 6) translate(22.71875, 14)" style="cursor:default;font-size:12px;perspective-origin:0px 0px;fill:rgb(48, 48, 48);text-anchor:middle;">ready_o</text></g><g id="sprotty_ArchitectureBlockImpl$aes_ctr/BPortImpl$alert_o" transform="translate(882.296875, 296)" class="triangle"><path d="M 0,0 L 5,2.5 L 0,5 Z" transform="translate(-1.67, -2.5)" class="sprotty-port" style="fill:rgb(48, 48, 48);stroke:rgb(48, 48, 48);"/><text class="clickable sprotty-label port" id="sprotty_ArchitectureBlockImpl$aes_ctr/BPortImpl$alert_o/label" transform="translate(-46, 6) translate(20, 14)" style="cursor:default;font-size:12px;perspective-origin:0px 0px;fill:rgb(48, 48, 48);text-anchor:middle;">alert_o</text></g><g id="sprotty_ArchitectureBlockImpl$aes_ctr/BPortImpl$ctr_o" transform="translate(882.296875, 342.66666666666663)" class="triangle"><path d="M 0,0 L 5,2.5 L 0,5 Z" transform="translate(-1.67, -2.5)" class="sprotty-port" style="fill:rgb(48, 48, 48);stroke:rgb(48, 48, 48);"/><text class="clickable sprotty-label port" id="sprotty_ArchitectureBlockImpl$aes_ctr/BPortImpl$ctr_o/label" transform="translate(-35.15625, 6) translate(14.578125, 14)" style="cursor:default;font-size:12px;perspective-origin:0px 0px;fill:rgb(48, 48, 48);text-anchor:middle;">ctr_o</text></g><g id="sprotty_ArchitectureBlockImpl$aes_ctr/BPortImpl$ctr_we_o" transform="translate(882.296875, 227.99999999999997)" class="triangle"><path d="M 0,0 L 5,2.5 L 0,5 Z" transform="translate(-1.67, -2.5)" class="sprotty-port" style="fill:rgb(48, 48, 48);stroke:rgb(48, 48, 48);"/><text class="clickable sprotty-label port" id="sprotty_ArchitectureBlockImpl$aes_ctr/BPortImpl$ctr_we_o/label" transform="translate(-58.09375, 6) translate(26.046875, 14)" style="cursor:default;font-size:12px;perspective-origin:0px 0px;fill:rgb(48, 48, 48);text-anchor:middle;">ctr_we_o</text></g></g></g></svg>