<svg xmlns="http://www.w3.org/2000/svg" id="sprotty_work.entropy_src_main_sm" class="sprotty-graph sprotty-block-diagram blockdiagram" style="font-family:&quot;Noto Sans&quot;, Helvetica, Arial, sans-serif;perspective-origin:0px 0px;transform-origin:0px 0px;" version="1.1" viewBox="7 7 706.875 397.7142857142857" width="706.875" height="397.7142857142857"><g transform="scale(1) translate(0,0)"><g id="sprotty_ArchitectureBlockImpl$entropy_src_main_sm" transform="translate(12, 12)" class="architecture"><g class="sprotty-block" style="fill:rgb(255, 255, 255);stroke:rgb(48, 48, 48);stroke-dasharray:0px;"><rect x="0" y="0" rx="1" ry="1" width="696.875" height="387.7142857142857"/><text x="348.4375" y="12" class="sprotty-block-name" style="cursor:pointer;font-weight:700;perspective-origin:348.438px 0px;fill:rgb(48, 48, 48);stroke:rgba(0, 0, 0, 0);dominant-baseline:middle;text-anchor:middle;">entropy_src_main_sm</text><line x1="0" y1="20" x2="696.875" y2="20"/></g><g id="sprotty_ArchitectureBlockImpl$entropy_src_main_sm/AlwaysBlockImpl$null14/GPortImpl$rst_alert_cntr_oOUT_to_ArchitectureBlockImpl$entropy_src_main_sm/BPortImpl$rst_alert_cntr_o" class="sprotty-edge edge" style="fill:none;stroke:rgb(112, 112, 112);stroke-linejoin:round;"><g><path d="M 249.25 251.28571428571428 L 267.25 251.28571428571428 C 268.25 251.28571428571428 269.25 252.28571428571428 269.25 253.28571428571428 L 269.25 312.7142857142857 C 269.25 313.7142857142857 270.25 314.7142857142857 271.25 314.7142857142857 L 696.875 314.7142857142857 "/><path d="M 249.25 251.28571428571428 L 267.25 251.28571428571428 C 268.25 251.28571428571428 269.25 252.28571428571428 269.25 253.28571428571428 L 269.25 312.7142857142857 C 269.25 313.7142857142857 270.25 314.7142857142857 271.25 314.7142857142857 L 696.875 314.7142857142857 " class="clickable"/></g></g><g id="sprotty_ArchitectureBlockImpl$entropy_src_main_sm/AlwaysBlockImpl$null14/GPortImpl$rst_bypass_mode_oOUT_to_ArchitectureBlockImpl$entropy_src_main_sm/BPortImpl$rst_bypass_mode_o" class="sprotty-edge edge" style="fill:none;stroke:rgb(112, 112, 112);stroke-linejoin:round;"><g><path d="M 249.25 238.42857142857144 L 277.25 238.42857142857144 C 278.25 238.42857142857144 279.25 239.42857142857144 279.25 240.42857142857144 L 279.25 278.7142857142857 C 279.25 279.7142857142857 280.25 280.7142857142857 281.25 280.7142857142857 L 696.875 280.7142857142857 "/><path d="M 249.25 238.42857142857144 L 277.25 238.42857142857144 C 278.25 238.42857142857144 279.25 239.42857142857144 279.25 240.42857142857144 L 279.25 278.7142857142857 C 279.25 279.7142857142857 280.25 280.7142857142857 281.25 280.7142857142857 L 696.875 280.7142857142857 " class="clickable"/></g></g><g id="sprotty_ArchitectureBlockImpl$entropy_src_main_sm/AlwaysBlockImpl$null14/GPortImpl$main_stage_pop_oOUT_to_ArchitectureBlockImpl$entropy_src_main_sm/BPortImpl$main_stage_pop_o" class="sprotty-edge edge" style="fill:none;stroke:rgb(112, 112, 112);stroke-linejoin:round;"><g><path d="M 249.25 225.57142857142856 L 287.25 225.57142857142856 C 288.25 225.57142857142856 289.25 226.57142857142856 289.25 227.57142857142856 L 289.25 244.71428571428572 C 289.25 245.71428571428572 290.25 246.71428571428572 291.25 246.71428571428572 L 696.875 246.71428571428572 "/><path d="M 249.25 225.57142857142856 L 287.25 225.57142857142856 C 288.25 225.57142857142856 289.25 226.57142857142856 289.25 227.57142857142856 L 289.25 244.71428571428572 C 289.25 245.71428571428572 290.25 246.71428571428572 291.25 246.71428571428572 L 696.875 246.71428571428572 " class="clickable"/></g></g><g id="sprotty_ArchitectureBlockImpl$entropy_src_main_sm/AlwaysBlockImpl$null14/GPortImpl$bypass_stage_pop_oOUT_to_ArchitectureBlockImpl$entropy_src_main_sm/BPortImpl$bypass_stage_pop_o" class="sprotty-edge edge" style="fill:none;stroke:rgb(112, 112, 112);stroke-linejoin:round;"><g><path d="M 249.25 264.14285714285717 L 257.25 264.14285714285717 C 258.25 264.14285714285717 259.25 265.14285714285717 259.25 266.14285714285717 L 259.25 346.7142857142857 C 259.25 347.7142857142857 260.25 348.7142857142857 261.25 348.7142857142857 L 696.875 348.7142857142857 "/><path d="M 249.25 264.14285714285717 L 257.25 264.14285714285717 C 258.25 264.14285714285717 259.25 265.14285714285717 259.25 266.14285714285717 L 259.25 346.7142857142857 C 259.25 347.7142857142857 260.25 348.7142857142857 261.25 348.7142857142857 L 696.875 348.7142857142857 " class="clickable"/></g></g><g id="sprotty_ArchitectureBlockImpl$entropy_src_main_sm/AlwaysBlockImpl$null14/GPortImpl$main_sm_err_oOUT_to_ArchitectureBlockImpl$entropy_src_main_sm/BPortImpl$main_sm_err_o" class="sprotty-edge edge" style="fill:none;stroke:rgb(112, 112, 112);stroke-linejoin:round;"><g><path d="M 249.25 212.71428571428572 L 696.875 212.71428571428572 "/><path d="M 249.25 212.71428571428572 L 696.875 212.71428571428572 " class="clickable"/></g></g><g id="sprotty_ArchitectureBlockImpl$entropy_src_main_sm/BPortImpl$clk_i_to_ArchitectureBlockImpl$entropy_src_main_sm/InstantiationBlockImpl$u_state_regs/BPortImpl$clk_i" class="sprotty-edge edge" style="fill:none;stroke:rgb(112, 112, 112);stroke-linejoin:round;"><g><path d="M 0 67 L 257.25 67 C 258.25 67 259.25 68 259.25 69 L 259.25 71 C 259.25 72 260.25 73 261.25 73 L 299.25 73 "/><path d="M 0 67 L 257.25 67 C 258.25 67 259.25 68 259.25 69 L 259.25 71 C 259.25 72 260.25 73 261.25 73 L 299.25 73 " class="clickable"/></g></g><g id="sprotty_ArchitectureBlockImpl$entropy_src_main_sm/BPortImpl$rst_ni_to_ArchitectureBlockImpl$entropy_src_main_sm/InstantiationBlockImpl$u_state_regs/BPortImpl$rst_ni" class="sprotty-edge edge" style="fill:none;stroke:rgb(112, 112, 112);stroke-linejoin:round;"><g><path d="M 0 101 L 299.25 101 "/><path d="M 0 101 L 299.25 101 " class="clickable"/></g></g><g id="sprotty_ArchitectureBlockImpl$entropy_src_main_sm/BPortImpl$enable_i_to_ArchitectureBlockImpl$entropy_src_main_sm/AlwaysBlockImpl$null14/GPortImpl$enable_iIN" class="sprotty-edge edge" style="fill:none;stroke:rgb(112, 112, 112);stroke-linejoin:round;"><g><path d="M 0 339 L 163.5 339 C 164.5 339 165.5 338 165.5 337 L 165.5 269 C 165.5 268 166.5 267 167.5 267 L 185.5 267 "/><path d="M 0 339 L 163.5 339 C 164.5 339 165.5 338 165.5 337 L 165.5 269 C 165.5 268 166.5 267 167.5 267 L 185.5 267 " class="clickable"/></g></g><g id="sprotty_ArchitectureBlockImpl$entropy_src_main_sm/BPortImpl$ht_done_pulse_i_to_ArchitectureBlockImpl$entropy_src_main_sm/AlwaysBlockImpl$null14/GPortImpl$ht_done_pulse_iIN" class="sprotty-edge edge" style="fill:none;stroke:rgb(112, 112, 112);stroke-linejoin:round;"><g><path d="M 0 305 L 153.5 305 C 154.5 305 155.5 304 155.5 303 L 155.5 259 C 155.5 258 156.5 257 157.5 257 L 185.5 257 "/><path d="M 0 305 L 153.5 305 C 154.5 305 155.5 304 155.5 303 L 155.5 259 C 155.5 258 156.5 257 157.5 257 L 185.5 257 " class="clickable"/></g></g><g id="sprotty_ArchitectureBlockImpl$entropy_src_main_sm/BPortImpl$ht_fail_pulse_i_to_ArchitectureBlockImpl$entropy_src_main_sm/AlwaysBlockImpl$null14/GPortImpl$ht_fail_pulse_iIN" class="sprotty-edge edge" style="fill:none;stroke:rgb(112, 112, 112);stroke-linejoin:round;"><g><path d="M 0 271 L 143.5 271 C 144.5 271 145.5 270 145.5 269 L 145.5 249 C 145.5 248 146.5 247 147.5 247 L 185.5 247 "/><path d="M 0 271 L 143.5 271 C 144.5 271 145.5 270 145.5 269 L 145.5 249 C 145.5 248 146.5 247 147.5 247 L 185.5 247 " class="clickable"/></g></g><g id="sprotty_ArchitectureBlockImpl$entropy_src_main_sm/BPortImpl$postht_not_empty_i_to_ArchitectureBlockImpl$entropy_src_main_sm/AlwaysBlockImpl$null14/GPortImpl$postht_not_empty_iIN" class="sprotty-edge edge" style="fill:none;stroke:rgb(112, 112, 112);stroke-linejoin:round;"><g><path d="M 0 237 L 185.5 237 "/><path d="M 0 237 L 185.5 237 " class="clickable"/></g></g><g id="sprotty_ArchitectureBlockImpl$entropy_src_main_sm/BPortImpl$bypass_mode_i_to_ArchitectureBlockImpl$entropy_src_main_sm/AlwaysBlockImpl$null14/GPortImpl$bypass_mode_iIN" class="sprotty-edge edge" style="fill:none;stroke:rgb(112, 112, 112);stroke-linejoin:round;"><g><path d="M 0 203 L 143.5 203 C 144.5 203 145.5 204 145.5 205 L 145.5 225 C 145.5 226 146.5 227 147.5 227 L 185.5 227 "/><path d="M 0 203 L 143.5 203 C 144.5 203 145.5 204 145.5 205 L 145.5 225 C 145.5 226 146.5 227 147.5 227 L 185.5 227 " class="clickable"/></g></g><g id="sprotty_ArchitectureBlockImpl$entropy_src_main_sm/BPortImpl$bypass_stage_rdy_i_to_ArchitectureBlockImpl$entropy_src_main_sm/AlwaysBlockImpl$null14/GPortImpl$bypass_stage_rdy_iIN" class="sprotty-edge edge" style="fill:none;stroke:rgb(112, 112, 112);stroke-linejoin:round;"><g><path d="M 0 169 L 153.5 169 C 154.5 169 155.5 170 155.5 171 L 155.5 215 C 155.5 216 156.5 217 157.5 217 L 185.5 217 "/><path d="M 0 169 L 153.5 169 C 154.5 169 155.5 170 155.5 171 L 155.5 215 C 155.5 216 156.5 217 157.5 217 L 185.5 217 " class="clickable"/></g></g><g id="sprotty_ArchitectureBlockImpl$entropy_src_main_sm/BPortImpl$main_stage_rdy_i_to_ArchitectureBlockImpl$entropy_src_main_sm/AlwaysBlockImpl$null14/GPortImpl$main_stage_rdy_iIN" class="sprotty-edge edge" style="fill:none;stroke:rgb(112, 112, 112);stroke-linejoin:round;"><g><path d="M 0 135 L 163.5 135 C 164.5 135 165.5 136 165.5 137 L 165.5 205 C 165.5 206 166.5 207 167.5 207 L 185.5 207 "/><path d="M 0 135 L 163.5 135 C 164.5 135 165.5 136 165.5 137 L 165.5 205 C 165.5 206 166.5 207 167.5 207 L 185.5 207 " class="clickable"/></g></g><g id="sprotty_ArchitectureBlockImpl$entropy_src_main_sm/AlwaysBlockImpl$null14/GPortImpl$state_dOUT_to_ArchitectureBlockImpl$entropy_src_main_sm/InstantiationBlockImpl$u_state_regs/BPortImpl$d_i" class="sprotty-edge thick edge" style="fill:none;stroke:rgb(112, 112, 112);stroke-linejoin:round;stroke-width:3px;"><g><path d="M 249.25 199.85714285714286 L 257.25 199.85714285714286 C 258.25 199.85714285714286 259.25 198.85714285714286 259.25 197.85714285714286 L 259.25 131 C 259.25 130 260.25 129 261.25 129 L 299.25 129 "/><path d="M 249.25 199.85714285714286 L 257.25 199.85714285714286 C 258.25 199.85714285714286 259.25 198.85714285714286 259.25 197.85714285714286 L 259.25 131 C 259.25 130 260.25 129 261.25 129 L 299.25 129 " class="clickable"/></g></g><g id="sprotty_ArchitectureBlockImpl$entropy_src_main_sm/AssignmentBlockImpl$state_q/GPortImpl$state_raw_qOUT_to_ArchitectureBlockImpl$entropy_src_main_sm/AlwaysBlockImpl$null14/GPortImpl$state_qIN" class="sprotty-edge thick edge" style="fill:none;stroke:rgb(112, 112, 112);stroke-linejoin:round;stroke-width:3px;"><g><path d="M 537.875 101 L 545.875 101 C 546.875 101 547.875 102 547.875 103 L 547.875 156 C 547.875 157 546.875 158 545.875 158 L 177.5 158 C 176.5 158 175.5 159 175.5 160 L 175.5 195 C 175.5 196 176.5 197 177.5 197 L 185.5 197 "/><path d="M 537.875 101 L 545.875 101 C 546.875 101 547.875 102 547.875 103 L 547.875 156 C 547.875 157 546.875 158 545.875 158 L 177.5 158 C 176.5 158 175.5 159 175.5 160 L 175.5 195 C 175.5 196 176.5 197 177.5 197 L 185.5 197 " class="clickable"/></g></g><g id="sprotty_ArchitectureBlockImpl$entropy_src_main_sm/InstantiationBlockImpl$u_state_regs/BPortImpl$q_o_to_ArchitectureBlockImpl$entropy_src_main_sm/AssignmentBlockImpl$state_q/GPortImpl$state_raw_qIN" class="sprotty-edge thick edge" style="fill:none;stroke:rgb(112, 112, 112);stroke-linejoin:round;stroke-width:3px;"><g><path d="M 498.15625 101 L 518.15625 101 "/><path d="M 498.15625 101 L 518.15625 101 " class="clickable"/></g></g><g id="sprotty_ArchitectureBlockImpl$entropy_src_main_sm/AlwaysBlockImpl$null14" transform="translate(185.5, 187)" class="statement"><rect x="0" y="0" rx="10" ry="5" width="63.75" height="90" class="sprotty-node" style="fill:rgb(245, 245, 245);stroke:rgb(112, 112, 112);"/><text class="clickable sprotty-label statementtype" id="sprotty_ArchitectureBlockImpl$entropy_src_main_sm/AlwaysBlockImpl$null14/labeltype" transform="translate(5, 39) translate(26.875, 9)" style="cursor:default;font-size:8px;font-weight:700;perspective-origin:0px 0px;fill:rgb(112, 112, 112);text-anchor:middle;">always_comb</text><g id="sprotty_ArchitectureBlockImpl$entropy_src_main_sm/AlwaysBlockImpl$null14/GPortImpl$main_stage_rdy_iIN" transform="translate(0, 20)" class="sprotty-hidden hidden" style="display:block;height:0px;width:0px;"/><g id="sprotty_ArchitectureBlockImpl$entropy_src_main_sm/AlwaysBlockImpl$null14/GPortImpl$bypass_stage_rdy_iIN" transform="translate(0, 30)" class="sprotty-hidden hidden" style="display:block;height:0px;width:0px;"/><g id="sprotty_ArchitectureBlockImpl$entropy_src_main_sm/AlwaysBlockImpl$null14/GPortImpl$bypass_mode_iIN" transform="translate(0, 40)" class="sprotty-hidden hidden" style="display:block;height:0px;width:0px;"/><g id="sprotty_ArchitectureBlockImpl$entropy_src_main_sm/AlwaysBlockImpl$null14/GPortImpl$postht_not_empty_iIN" transform="translate(0, 50)" class="sprotty-hidden hidden" style="display:block;height:0px;width:0px;"/><g id="sprotty_ArchitectureBlockImpl$entropy_src_main_sm/AlwaysBlockImpl$null14/GPortImpl$ht_fail_pulse_iIN" transform="translate(0, 60)" class="sprotty-hidden hidden" style="display:block;height:0px;width:0px;"/><g id="sprotty_ArchitectureBlockImpl$entropy_src_main_sm/AlwaysBlockImpl$null14/GPortImpl$ht_done_pulse_iIN" transform="translate(0, 70)" class="sprotty-hidden hidden" style="display:block;height:0px;width:0px;"/><g id="sprotty_ArchitectureBlockImpl$entropy_src_main_sm/AlwaysBlockImpl$null14/GPortImpl$enable_iIN" transform="translate(0, 80)" class="sprotty-hidden hidden" style="display:block;height:0px;width:0px;"/><g id="sprotty_ArchitectureBlockImpl$entropy_src_main_sm/AlwaysBlockImpl$null14/GPortImpl$state_qIN" transform="translate(0, 10)" class="sprotty-hidden hidden" style="display:block;height:0px;width:0px;"/><g id="sprotty_ArchitectureBlockImpl$entropy_src_main_sm/AlwaysBlockImpl$null14/GPortImpl$state_dOUT" transform="translate(63.75, 12.857142857142858)" class="sprotty-hidden hidden" style="display:block;height:0px;width:0px;"/><g id="sprotty_ArchitectureBlockImpl$entropy_src_main_sm/AlwaysBlockImpl$null14/GPortImpl$rst_bypass_mode_oOUT" transform="translate(63.75, 51.42857142857143)" class="sprotty-hidden hidden" style="display:block;height:0px;width:0px;"/><g id="sprotty_ArchitectureBlockImpl$entropy_src_main_sm/AlwaysBlockImpl$null14/GPortImpl$rst_alert_cntr_oOUT" transform="translate(63.75, 64.28571428571429)" class="sprotty-hidden hidden" style="display:block;height:0px;width:0px;"/><g id="sprotty_ArchitectureBlockImpl$entropy_src_main_sm/AlwaysBlockImpl$null14/GPortImpl$main_stage_pop_oOUT" transform="translate(63.75, 38.57142857142857)" class="sprotty-hidden hidden" style="display:block;height:0px;width:0px;"/><g id="sprotty_ArchitectureBlockImpl$entropy_src_main_sm/AlwaysBlockImpl$null14/GPortImpl$bypass_stage_pop_oOUT" transform="translate(63.75, 77.14285714285715)" class="sprotty-hidden hidden" style="display:block;height:0px;width:0px;"/><g id="sprotty_ArchitectureBlockImpl$entropy_src_main_sm/AlwaysBlockImpl$null14/GPortImpl$main_sm_err_oOUT" transform="translate(63.75, 25.714285714285715)" class="sprotty-hidden hidden" style="display:block;height:0px;width:0px;"/></g><g id="sprotty_ArchitectureBlockImpl$entropy_src_main_sm/AssignmentBlockImpl$state_q" transform="translate(518.15625, 90)" class="statement"><rect x="0" y="0" rx="10" ry="5" width="19.71875" height="22" class="sprotty-node" style="fill:rgb(245, 245, 245);stroke:rgb(112, 112, 112);"/><text class="clickable sprotty-label statementtype" id="sprotty_ArchitectureBlockImpl$entropy_src_main_sm/AssignmentBlockImpl$state_q/labeltype" transform="translate(5, 5) translate(4.71875, 9)" style="cursor:default;font-size:8px;font-weight:700;perspective-origin:0.140625px 0px;fill:rgb(112, 112, 112);text-anchor:middle;">&lt;=</text><g id="sprotty_ArchitectureBlockImpl$entropy_src_main_sm/AssignmentBlockImpl$state_q/GPortImpl$state_raw_qIN" transform="translate(0, 11)" class="sprotty-hidden hidden" style="display:block;height:0px;width:0px;"/><g id="sprotty_ArchitectureBlockImpl$entropy_src_main_sm/AssignmentBlockImpl$state_q/GPortImpl$state_raw_qOUT" transform="translate(19.71875, 11)" class="sprotty-hidden hidden" style="display:block;height:0px;width:0px;"/></g><g id="sprotty_ArchitectureBlockImpl$entropy_src_main_sm/InstantiationBlockImpl$u_state_regs" transform="translate(299.25, 35)" class="instantiation"><g class="sprotty-block" style="fill:rgb(255, 255, 255);stroke:rgb(48, 48, 48);stroke-dasharray:0px;"><rect x="0" y="0" rx="1" ry="1" width="198.90625" height="112"/><text x="99.453125" y="12" class="sprotty-block-name" style="cursor:pointer;font-weight:700;perspective-origin:99.4531px 0px;fill:rgb(48, 48, 48);stroke:rgba(0, 0, 0, 0);dominant-baseline:middle;text-anchor:middle;">u_state_regs : prim_flop</text><line x1="0" y1="20" x2="198.90625" y2="20"/></g><g id="sprotty_ArchitectureBlockImpl$entropy_src_main_sm/InstantiationBlockImpl$u_state_regs/BPortImpl$d_i" transform="translate(0, 94)" class="triangle"><path d="M 0,0 L 5,2.5 L 0,5 Z" transform="translate(-1.67, -2.5)" class="sprotty-port" style="fill:rgb(48, 48, 48);stroke:rgb(48, 48, 48);"/><text class="clickable sprotty-label port" id="sprotty_ArchitectureBlockImpl$entropy_src_main_sm/InstantiationBlockImpl$u_state_regs/BPortImpl$d_i/label" transform="translate(6, -9) translate(8.734375, 14)" style="cursor:default;font-size:12px;perspective-origin:0px 0px;fill:rgb(48, 48, 48);text-anchor:middle;">d_i</text></g><g id="sprotty_ArchitectureBlockImpl$entropy_src_main_sm/InstantiationBlockImpl$u_state_regs/BPortImpl$rst_ni" transform="translate(0, 66)" class="triangle"><path d="M 0,0 L 5,2.5 L 0,5 Z" transform="translate(-1.67, -2.5)" class="sprotty-port" style="fill:rgb(48, 48, 48);stroke:rgb(48, 48, 48);"/><text class="clickable sprotty-label port" id="sprotty_ArchitectureBlockImpl$entropy_src_main_sm/InstantiationBlockImpl$u_state_regs/BPortImpl$rst_ni/label" transform="translate(6, -9) translate(15.921875, 14)" style="cursor:default;font-size:12px;perspective-origin:0px 0px;fill:rgb(48, 48, 48);text-anchor:middle;">rst_ni</text></g><g id="sprotty_ArchitectureBlockImpl$entropy_src_main_sm/InstantiationBlockImpl$u_state_regs/BPortImpl$clk_i" transform="translate(0, 38)" class="triangle"><path d="M 0,0 L 5,2.5 L 0,5 Z" transform="translate(-1.67, -2.5)" class="sprotty-port" style="fill:rgb(48, 48, 48);stroke:rgb(48, 48, 48);"/><text class="clickable sprotty-label port" id="sprotty_ArchitectureBlockImpl$entropy_src_main_sm/InstantiationBlockImpl$u_state_regs/BPortImpl$clk_i/label" transform="translate(6, -9) translate(13.09375, 14)" style="cursor:default;font-size:12px;perspective-origin:0px 0px;fill:rgb(48, 48, 48);text-anchor:middle;">clk_i</text></g><g id="sprotty_ArchitectureBlockImpl$entropy_src_main_sm/InstantiationBlockImpl$u_state_regs/BPortImpl$q_o" transform="translate(198.90625, 66)" class="triangle"><path d="M 0,0 L 5,2.5 L 0,5 Z" transform="translate(-1.67, -2.5)" class="sprotty-port" style="fill:rgb(48, 48, 48);stroke:rgb(48, 48, 48);"/><text class="clickable sprotty-label port" id="sprotty_ArchitectureBlockImpl$entropy_src_main_sm/InstantiationBlockImpl$u_state_regs/BPortImpl$q_o/label" transform="translate(-27.4375, -9) translate(10.71875, 14)" style="cursor:default;font-size:12px;perspective-origin:0px 0px;fill:rgb(48, 48, 48);text-anchor:middle;">q_o</text></g></g><g id="sprotty_ArchitectureBlockImpl$entropy_src_main_sm/BPortImpl$bypass_stage_rdy_i" transform="translate(0, 169)" class="triangle"><path d="M 0,0 L 5,2.5 L 0,5 Z" transform="translate(-1.67, -2.5)" class="sprotty-port" style="fill:rgb(48, 48, 48);stroke:rgb(48, 48, 48);"/><text class="clickable sprotty-label port" id="sprotty_ArchitectureBlockImpl$entropy_src_main_sm/BPortImpl$bypass_stage_rdy_i/label" transform="translate(6, 6) translate(55.046875, 14)" style="cursor:default;font-size:12px;perspective-origin:0px 0px;fill:rgb(48, 48, 48);text-anchor:middle;">bypass_stage_rdy_i</text></g><g id="sprotty_ArchitectureBlockImpl$entropy_src_main_sm/BPortImpl$main_stage_rdy_i" transform="translate(0, 135)" class="triangle"><path d="M 0,0 L 5,2.5 L 0,5 Z" transform="translate(-1.67, -2.5)" class="sprotty-port" style="fill:rgb(48, 48, 48);stroke:rgb(48, 48, 48);"/><text class="clickable sprotty-label port" id="sprotty_ArchitectureBlockImpl$entropy_src_main_sm/BPortImpl$main_stage_rdy_i/label" transform="translate(6, 6) translate(49.875, 14)" style="cursor:default;font-size:12px;perspective-origin:0px 0px;fill:rgb(48, 48, 48);text-anchor:middle;">main_stage_rdy_i</text></g><g id="sprotty_ArchitectureBlockImpl$entropy_src_main_sm/BPortImpl$bypass_mode_i" transform="translate(0, 203)" class="triangle"><path d="M 0,0 L 5,2.5 L 0,5 Z" transform="translate(-1.67, -2.5)" class="sprotty-port" style="fill:rgb(48, 48, 48);stroke:rgb(48, 48, 48);"/><text class="clickable sprotty-label port" id="sprotty_ArchitectureBlockImpl$entropy_src_main_sm/BPortImpl$bypass_mode_i/label" transform="translate(6, 6) translate(44.03125, 14)" style="cursor:default;font-size:12px;perspective-origin:0px 0px;fill:rgb(48, 48, 48);text-anchor:middle;">bypass_mode_i</text></g><g id="sprotty_ArchitectureBlockImpl$entropy_src_main_sm/BPortImpl$postht_not_empty_i" transform="translate(0, 237)" class="triangle"><path d="M 0,0 L 5,2.5 L 0,5 Z" transform="translate(-1.67, -2.5)" class="sprotty-port" style="fill:rgb(48, 48, 48);stroke:rgb(48, 48, 48);"/><text class="clickable sprotty-label port" id="sprotty_ArchitectureBlockImpl$entropy_src_main_sm/BPortImpl$postht_not_empty_i/label" transform="translate(6, 6) translate(57.25, 14)" style="cursor:default;font-size:12px;perspective-origin:0px 0px;fill:rgb(48, 48, 48);text-anchor:middle;">postht_not_empty_i</text></g><g id="sprotty_ArchitectureBlockImpl$entropy_src_main_sm/BPortImpl$ht_fail_pulse_i" transform="translate(0, 271)" class="triangle"><path d="M 0,0 L 5,2.5 L 0,5 Z" transform="translate(-1.67, -2.5)" class="sprotty-port" style="fill:rgb(48, 48, 48);stroke:rgb(48, 48, 48);"/><text class="clickable sprotty-label port" id="sprotty_ArchitectureBlockImpl$entropy_src_main_sm/BPortImpl$ht_fail_pulse_i/label" transform="translate(6, 6) translate(41.390625, 14)" style="cursor:default;font-size:12px;perspective-origin:0px 0px;fill:rgb(48, 48, 48);text-anchor:middle;">ht_fail_pulse_i</text></g><g id="sprotty_ArchitectureBlockImpl$entropy_src_main_sm/BPortImpl$ht_done_pulse_i" transform="translate(0, 305)" class="triangle"><path d="M 0,0 L 5,2.5 L 0,5 Z" transform="translate(-1.67, -2.5)" class="sprotty-port" style="fill:rgb(48, 48, 48);stroke:rgb(48, 48, 48);"/><text class="clickable sprotty-label port" id="sprotty_ArchitectureBlockImpl$entropy_src_main_sm/BPortImpl$ht_done_pulse_i/label" transform="translate(6, 6) translate(47.171875, 14)" style="cursor:default;font-size:12px;perspective-origin:0px 0px;fill:rgb(48, 48, 48);text-anchor:middle;">ht_done_pulse_i</text></g><g id="sprotty_ArchitectureBlockImpl$entropy_src_main_sm/BPortImpl$enable_i" transform="translate(0, 339)" class="triangle"><path d="M 0,0 L 5,2.5 L 0,5 Z" transform="translate(-1.67, -2.5)" class="sprotty-port" style="fill:rgb(48, 48, 48);stroke:rgb(48, 48, 48);"/><text class="clickable sprotty-label port" id="sprotty_ArchitectureBlockImpl$entropy_src_main_sm/BPortImpl$enable_i/label" transform="translate(6, 6) translate(24.125, 14)" style="cursor:default;font-size:12px;perspective-origin:0px 0px;fill:rgb(48, 48, 48);text-anchor:middle;">enable_i</text></g><g id="sprotty_ArchitectureBlockImpl$entropy_src_main_sm/BPortImpl$rst_ni" transform="translate(0, 101)" class="triangle"><path d="M 0,0 L 5,2.5 L 0,5 Z" transform="translate(-1.67, -2.5)" class="sprotty-port" style="fill:rgb(48, 48, 48);stroke:rgb(48, 48, 48);"/><text class="clickable sprotty-label port" id="sprotty_ArchitectureBlockImpl$entropy_src_main_sm/BPortImpl$rst_ni/label" transform="translate(6, 6) translate(15.921875, 14)" style="cursor:default;font-size:12px;perspective-origin:0px 0px;fill:rgb(48, 48, 48);text-anchor:middle;">rst_ni</text></g><g id="sprotty_ArchitectureBlockImpl$entropy_src_main_sm/BPortImpl$clk_i" transform="translate(0, 67)" class="triangle"><path d="M 0,0 L 5,2.5 L 0,5 Z" transform="translate(-1.67, -2.5)" class="sprotty-port" style="fill:rgb(48, 48, 48);stroke:rgb(48, 48, 48);"/><text class="clickable sprotty-label port" id="sprotty_ArchitectureBlockImpl$entropy_src_main_sm/BPortImpl$clk_i/label" transform="translate(6, 6) translate(13.09375, 14)" style="cursor:default;font-size:12px;perspective-origin:0px 0px;fill:rgb(48, 48, 48);text-anchor:middle;">clk_i</text></g><g id="sprotty_ArchitectureBlockImpl$entropy_src_main_sm/BPortImpl$rst_alert_cntr_o" transform="translate(696.875, 314.7142857142857)" class="triangle"><path d="M 0,0 L 5,2.5 L 0,5 Z" transform="translate(-1.67, -2.5)" class="sprotty-port" style="fill:rgb(48, 48, 48);stroke:rgb(48, 48, 48);"/><text class="clickable sprotty-label port" id="sprotty_ArchitectureBlockImpl$entropy_src_main_sm/BPortImpl$rst_alert_cntr_o/label" transform="translate(-96.53125, 6) translate(45.265625, 14)" style="cursor:default;font-size:12px;perspective-origin:0px 0px;fill:rgb(48, 48, 48);text-anchor:middle;">rst_alert_cntr_o</text></g><g id="sprotty_ArchitectureBlockImpl$entropy_src_main_sm/BPortImpl$rst_bypass_mode_o" transform="translate(696.875, 280.7142857142857)" class="triangle"><path d="M 0,0 L 5,2.5 L 0,5 Z" transform="translate(-1.67, -2.5)" class="sprotty-port" style="fill:rgb(48, 48, 48);stroke:rgb(48, 48, 48);"/><text class="clickable sprotty-label port" id="sprotty_ArchitectureBlockImpl$entropy_src_main_sm/BPortImpl$rst_bypass_mode_o/label" transform="translate(-119.25, 6) translate(56.625, 14)" style="cursor:default;font-size:12px;perspective-origin:0px 0px;fill:rgb(48, 48, 48);text-anchor:middle;">rst_bypass_mode_o</text></g><g id="sprotty_ArchitectureBlockImpl$entropy_src_main_sm/BPortImpl$main_stage_pop_o" transform="translate(696.875, 246.71428571428572)" class="triangle"><path d="M 0,0 L 5,2.5 L 0,5 Z" transform="translate(-1.67, -2.5)" class="sprotty-port" style="fill:rgb(48, 48, 48);stroke:rgb(48, 48, 48);"/><text class="clickable sprotty-label port" id="sprotty_ArchitectureBlockImpl$entropy_src_main_sm/BPortImpl$main_stage_pop_o/label" transform="translate(-113.65625, 6) translate(53.828125, 14)" style="cursor:default;font-size:12px;perspective-origin:0px 0px;fill:rgb(48, 48, 48);text-anchor:middle;">main_stage_pop_o</text></g><g id="sprotty_ArchitectureBlockImpl$entropy_src_main_sm/BPortImpl$bypass_stage_pop_o" transform="translate(696.875, 348.7142857142857)" class="triangle"><path d="M 0,0 L 5,2.5 L 0,5 Z" transform="translate(-1.67, -2.5)" class="sprotty-port" style="fill:rgb(48, 48, 48);stroke:rgb(48, 48, 48);"/><text class="clickable sprotty-label port" id="sprotty_ArchitectureBlockImpl$entropy_src_main_sm/BPortImpl$bypass_stage_pop_o/label" transform="translate(-124, 6) translate(59, 14)" style="cursor:default;font-size:12px;perspective-origin:0px 0px;fill:rgb(48, 48, 48);text-anchor:middle;">bypass_stage_pop_o</text></g><g id="sprotty_ArchitectureBlockImpl$entropy_src_main_sm/BPortImpl$main_sm_err_o" transform="translate(696.875, 212.71428571428572)" class="triangle"><path d="M 0,0 L 5,2.5 L 0,5 Z" transform="translate(-1.67, -2.5)" class="sprotty-port" style="fill:rgb(48, 48, 48);stroke:rgb(48, 48, 48);"/><text class="clickable sprotty-label port" id="sprotty_ArchitectureBlockImpl$entropy_src_main_sm/BPortImpl$main_sm_err_o/label" transform="translate(-94.625, 6) translate(44.3125, 14)" style="cursor:default;font-size:12px;perspective-origin:0px 0px;fill:rgb(48, 48, 48);text-anchor:middle;">main_sm_err_o</text></g></g></g></svg>