<svg xmlns="http://www.w3.org/2000/svg" id="sprotty_work.tlul_err" class="sprotty-graph sprotty-block-diagram blockdiagram" style="font-family:&quot;Noto Sans&quot;, Helvetica, Arial, sans-serif;perspective-origin:0px 0px;transform-origin:0px 0px;" version="1.1" viewBox="7 7 342.84375 355" width="342.84375" height="355"><g transform="scale(1) translate(0,0)"><g id="sprotty_ArchitectureBlockImpl$tlul_err" transform="translate(12, 12)" class="architecture"><g class="sprotty-block" style="fill:rgb(255, 255, 255);stroke:rgb(48, 48, 48);stroke-dasharray:0px;"><rect x="0" y="0" rx="1" ry="1" width="332.84375" height="345"/><text x="166.421875" y="12" class="sprotty-block-name" style="cursor:pointer;font-weight:700;perspective-origin:166.438px 0px;fill:rgb(48, 48, 48);stroke:rgba(0, 0, 0, 0);dominant-baseline:middle;text-anchor:middle;">tlul_err</text><line x1="0" y1="20" x2="332.84375" y2="20"/></g><g id="sprotty_ArchitectureBlockImpl$tlul_err/AssignmentBlockImpl$err_o/GPortImpl$err_oOUT_to_ArchitectureBlockImpl$tlul_err/BPortImpl$err_o" class="sprotty-edge edge" style="fill:none;stroke:rgb(112, 112, 112);stroke-linejoin:round;"><g><path d="M 281.875 211 L 332.84375 211 "/><path d="M 281.875 211 L 332.84375 211 " class="clickable"/></g></g><g id="sprotty_ArchitectureBlockImpl$tlul_err/BPortImpl$tl_i_to_ArchitectureBlockImpl$tlul_err/AssignmentBlockImpl$op_full/GPortImpl$tl_iIN" class="sprotty-edge thick edge" style="fill:none;stroke:rgb(112, 112, 112);stroke-linejoin:round;stroke-width:3px;"><g><path d="M 0 208 L 86.6875 208 C 87.6875 208 88.6875 209 88.6875 210 L 88.6875 229 C 88.6875 230 89.6875 231 90.6875 231 L 120.703125 231 "/><path d="M 0 208 L 86.6875 208 C 87.6875 208 88.6875 209 88.6875 210 L 88.6875 229 C 88.6875 230 89.6875 231 90.6875 231 L 120.703125 231 " class="clickable"/></g></g><g id="sprotty_ArchitectureBlockImpl$tlul_err/BPortImpl$tl_i_to_ArchitectureBlockImpl$tlul_err/AssignmentBlockImpl$op_partial/GPortImpl$tl_iIN" class="sprotty-edge thick edge" style="fill:none;stroke:rgb(112, 112, 112);stroke-linejoin:round;stroke-width:3px;"><g><path d="M 0 208 L 86.6875 208 C 87.6875 208 88.6875 207 88.6875 206 L 88.6875 173 C 88.6875 172 89.6875 171 90.6875 171 L 120.703125 171 "/><path d="M 0 208 L 86.6875 208 C 87.6875 208 88.6875 207 88.6875 206 L 88.6875 173 C 88.6875 172 89.6875 171 90.6875 171 L 120.703125 171 " class="clickable"/></g><circle r="3" id="sprotty_ArchitectureBlockImpl$tlul_err/BPortImpl$tl_i_to_ArchitectureBlockImpl$tlul_err/AssignmentBlockImpl$op_partial/GPortImpl$tl_iIN/junction0" transform="translate(88.6875, 171)" class="sprotty-junction thick" style="fill:rgb(112, 112, 112);stroke:none;"/></g><g id="sprotty_ArchitectureBlockImpl$tlul_err/BPortImpl$tl_i_to_ArchitectureBlockImpl$tlul_err/AssignmentBlockImpl$op_get/GPortImpl$tl_iIN" class="sprotty-edge thick edge" style="fill:none;stroke:rgb(112, 112, 112);stroke-linejoin:round;stroke-width:3px;"><g><path d="M 0 208 L 86.6875 208 C 87.6875 208 88.6875 207 88.6875 206 L 88.6875 131 C 88.6875 130 89.6875 129 90.6875 129 L 120.703125 129 "/><path d="M 0 208 L 86.6875 208 C 87.6875 208 88.6875 207 88.6875 206 L 88.6875 131 C 88.6875 130 89.6875 129 90.6875 129 L 120.703125 129 " class="clickable"/></g><circle r="3" id="sprotty_ArchitectureBlockImpl$tlul_err/BPortImpl$tl_i_to_ArchitectureBlockImpl$tlul_err/AssignmentBlockImpl$op_get/GPortImpl$tl_iIN/junction0" transform="translate(88.6875, 208)" class="sprotty-junction thick" style="fill:rgb(112, 112, 112);stroke:none;"/></g><g id="sprotty_ArchitectureBlockImpl$tlul_err/BPortImpl$tl_i_to_ArchitectureBlockImpl$tlul_err/AssignmentBlockImpl$instr_wr_err/GPortImpl$tl_iIN" class="sprotty-edge thick edge" style="fill:none;stroke:rgb(112, 112, 112);stroke-linejoin:round;stroke-width:3px;"><g><path d="M 0 208 L 170.4375 208 C 171.4375 208 172.4375 209 172.4375 210 L 172.4375 219 C 172.4375 220 173.4375 221 174.4375 221 L 212.4375 221 "/><path d="M 0 208 L 170.4375 208 C 171.4375 208 172.4375 209 172.4375 210 L 172.4375 219 C 172.4375 220 173.4375 221 174.4375 221 L 212.4375 221 " class="clickable"/></g></g><g id="sprotty_ArchitectureBlockImpl$tlul_err/BPortImpl$tl_i_to_ArchitectureBlockImpl$tlul_err/AssignmentBlockImpl$opcode_allowed/GPortImpl$tl_iIN" class="sprotty-edge thick edge" style="fill:none;stroke:rgb(112, 112, 112);stroke-linejoin:round;stroke-width:3px;"><g><path d="M 0 208 L 46.96875 208 C 47.96875 208 48.96875 207 48.96875 206 L 48.96875 48 C 48.96875 47 49.96875 46 50.96875 46 L 212.4375 46 "/><path d="M 0 208 L 46.96875 208 C 47.96875 208 48.96875 207 48.96875 206 L 48.96875 48 C 48.96875 47 49.96875 46 50.96875 46 L 212.4375 46 " class="clickable"/></g><circle r="3" id="sprotty_ArchitectureBlockImpl$tlul_err/BPortImpl$tl_i_to_ArchitectureBlockImpl$tlul_err/AssignmentBlockImpl$opcode_allowed/GPortImpl$tl_iIN/junction0" transform="translate(48.96875, 208)" class="sprotty-junction thick" style="fill:rgb(112, 112, 112);stroke:none;"/></g><g id="sprotty_ArchitectureBlockImpl$tlul_err/BPortImpl$tl_i_to_ArchitectureBlockImpl$tlul_err/AssignmentBlockImpl$mask/GPortImpl$tl_iIN" class="sprotty-edge thick edge" style="fill:none;stroke:rgb(112, 112, 112);stroke-linejoin:round;stroke-width:3px;"><g><path d="M 0 208 L 46.96875 208 C 47.96875 208 48.96875 207 48.96875 206 L 48.96875 80 C 48.96875 79 49.96875 78 50.96875 78 L 58.96875 78 "/><path d="M 0 208 L 46.96875 208 C 47.96875 208 48.96875 207 48.96875 206 L 48.96875 80 C 48.96875 79 49.96875 78 50.96875 78 L 58.96875 78 " class="clickable"/></g><circle r="3" id="sprotty_ArchitectureBlockImpl$tlul_err/BPortImpl$tl_i_to_ArchitectureBlockImpl$tlul_err/AssignmentBlockImpl$mask/GPortImpl$tl_iIN/junction0" transform="translate(48.96875, 78)" class="sprotty-junction thick" style="fill:rgb(112, 112, 112);stroke:none;"/></g><g id="sprotty_ArchitectureBlockImpl$tlul_err/AssignmentBlockImpl$opcode_allowed/GPortImpl$opcode_allowedOUT_to_ArchitectureBlockImpl$tlul_err/AssignmentBlockImpl$err_o/GPortImpl$opcode_allowedIN" class="sprotty-edge edge" style="fill:none;stroke:rgb(112, 112, 112);stroke-linejoin:round;"><g><path d="M 232.15625 46 L 250.15625 46 C 251.15625 46 252.15625 47 252.15625 48 L 252.15625 199 C 252.15625 200 253.15625 201 254.15625 201 L 262.15625 201 "/><path d="M 232.15625 46 L 250.15625 46 C 251.15625 46 252.15625 47 252.15625 48 L 252.15625 199 C 252.15625 200 253.15625 201 254.15625 201 L 262.15625 201 " class="clickable"/></g></g><g id="sprotty_ArchitectureBlockImpl$tlul_err/AssignmentBlockImpl$a_config_allowed/GPortImpl$fulldata_chkOUT_to_ArchitectureBlockImpl$tlul_err/AssignmentBlockImpl$err_o/GPortImpl$a_config_allowedIN" class="sprotty-edge edge" style="fill:none;stroke:rgb(112, 112, 112);stroke-linejoin:round;"><g><path d="M 232.15625 151 L 240.15625 151 C 241.15625 151 242.15625 152 242.15625 153 L 242.15625 209 C 242.15625 210 243.15625 211 244.15625 211 L 262.15625 211 "/><path d="M 232.15625 151 L 240.15625 151 C 241.15625 151 242.15625 152 242.15625 153 L 242.15625 209 C 242.15625 210 243.15625 211 244.15625 211 L 262.15625 211 " class="clickable"/></g></g><g id="sprotty_ArchitectureBlockImpl$tlul_err/AssignmentBlockImpl$op_full/GPortImpl$op_fullOUT_to_ArchitectureBlockImpl$tlul_err/AssignmentBlockImpl$instr_wr_err/GPortImpl$op_fullIN" class="sprotty-edge edge" style="fill:none;stroke:rgb(112, 112, 112);stroke-linejoin:round;"><g><path d="M 140.421875 231 L 212.4375 231 "/><path d="M 140.421875 231 L 212.4375 231 " class="clickable"/></g></g><g id="sprotty_ArchitectureBlockImpl$tlul_err/AssignmentBlockImpl$op_partial/GPortImpl$op_partialOUT_to_ArchitectureBlockImpl$tlul_err/AssignmentBlockImpl$instr_wr_err/GPortImpl$op_partialIN" class="sprotty-edge edge" style="fill:none;stroke:rgb(112, 112, 112);stroke-linejoin:round;"><g><path d="M 140.421875 171 L 180.4375 171 C 181.4375 171 182.4375 172 182.4375 173 L 182.4375 209 C 182.4375 210 183.4375 211 184.4375 211 L 212.4375 211 "/><path d="M 140.421875 171 L 180.4375 171 C 181.4375 171 182.4375 172 182.4375 173 L 182.4375 209 C 182.4375 210 183.4375 211 184.4375 211 L 212.4375 211 " class="clickable"/></g><circle r="2" id="sprotty_ArchitectureBlockImpl$tlul_err/AssignmentBlockImpl$op_partial/GPortImpl$op_partialOUT_to_ArchitectureBlockImpl$tlul_err/AssignmentBlockImpl$instr_wr_err/GPortImpl$op_partialIN/junction0" transform="translate(182.4375, 171)" class="sprotty-junction junction" style="fill:rgb(112, 112, 112);stroke:none;"/></g><g id="sprotty_ArchitectureBlockImpl$tlul_err/AssignmentBlockImpl$op_partial/GPortImpl$op_partialOUT_to_ArchitectureBlockImpl$tlul_err/AssignmentBlockImpl$a_config_allowed/GPortImpl$op_partialIN" class="sprotty-edge edge" style="fill:none;stroke:rgb(112, 112, 112);stroke-linejoin:round;"><g><path d="M 140.421875 171 L 212.4375 171 "/><path d="M 140.421875 171 L 212.4375 171 " class="clickable"/></g></g><g id="sprotty_ArchitectureBlockImpl$tlul_err/AssignmentBlockImpl$op_get/GPortImpl$op_getOUT_to_ArchitectureBlockImpl$tlul_err/AssignmentBlockImpl$a_config_allowed/GPortImpl$op_getIN" class="sprotty-edge edge" style="fill:none;stroke:rgb(112, 112, 112);stroke-linejoin:round;"><g><path d="M 140.421875 129 L 170.4375 129 C 171.4375 129 172.4375 130 172.4375 131 L 172.4375 159 C 172.4375 160 173.4375 161 174.4375 161 L 212.4375 161 "/><path d="M 140.421875 129 L 170.4375 129 C 171.4375 129 172.4375 130 172.4375 131 L 172.4375 159 C 172.4375 160 173.4375 161 174.4375 161 L 212.4375 161 " class="clickable"/></g></g><g id="sprotty_ArchitectureBlockImpl$tlul_err/AssignmentBlockImpl$instr_wr_err/GPortImpl$op_partialOUT_to_ArchitectureBlockImpl$tlul_err/AssignmentBlockImpl$err_o/GPortImpl$instr_wr_errIN" class="sprotty-edge edge" style="fill:none;stroke:rgb(112, 112, 112);stroke-linejoin:round;"><g><path d="M 232.15625 221 L 262.15625 221 "/><path d="M 232.15625 221 L 262.15625 221 " class="clickable"/></g></g><g id="sprotty_ArchitectureBlockImpl$tlul_err/AlwaysBlockImpl$null4/GPortImpl$addr_sz_chkOUT_to_ArchitectureBlockImpl$tlul_err/AssignmentBlockImpl$a_config_allowed/GPortImpl$addr_sz_chkIN" class="sprotty-edge edge" style="fill:none;stroke:rgb(112, 112, 112);stroke-linejoin:round;"><g><path d="M 162.4375 68 L 200.4375 68 C 201.4375 68 202.4375 69 202.4375 70 L 202.4375 129 C 202.4375 130 203.4375 131 204.4375 131 L 212.4375 131 "/><path d="M 162.4375 68 L 200.4375 68 C 201.4375 68 202.4375 69 202.4375 70 L 202.4375 129 C 202.4375 130 203.4375 131 204.4375 131 L 212.4375 131 " class="clickable"/></g></g><g id="sprotty_ArchitectureBlockImpl$tlul_err/AlwaysBlockImpl$null4/GPortImpl$mask_chkOUT_to_ArchitectureBlockImpl$tlul_err/AssignmentBlockImpl$a_config_allowed/GPortImpl$mask_chkIN" class="sprotty-edge edge" style="fill:none;stroke:rgb(112, 112, 112);stroke-linejoin:round;"><g><path d="M 162.4375 88 L 180.4375 88 C 181.4375 88 182.4375 89 182.4375 90 L 182.4375 149 C 182.4375 150 183.4375 151 184.4375 151 L 212.4375 151 "/><path d="M 162.4375 88 L 180.4375 88 C 181.4375 88 182.4375 89 182.4375 90 L 182.4375 149 C 182.4375 150 183.4375 151 184.4375 151 L 212.4375 151 " class="clickable"/></g></g><g id="sprotty_ArchitectureBlockImpl$tlul_err/AlwaysBlockImpl$null4/GPortImpl$fulldata_chkOUT_to_ArchitectureBlockImpl$tlul_err/AssignmentBlockImpl$a_config_allowed/GPortImpl$fulldata_chkIN" class="sprotty-edge edge" style="fill:none;stroke:rgb(112, 112, 112);stroke-linejoin:round;"><g><path d="M 162.4375 78 L 190.4375 78 C 191.4375 78 192.4375 79 192.4375 80 L 192.4375 139 C 192.4375 140 193.4375 141 194.4375 141 L 212.4375 141 "/><path d="M 162.4375 78 L 190.4375 78 C 191.4375 78 192.4375 79 192.4375 80 L 192.4375 139 C 192.4375 140 193.4375 141 194.4375 141 L 212.4375 141 " class="clickable"/></g></g><g id="sprotty_ArchitectureBlockImpl$tlul_err/AssignmentBlockImpl$mask/GPortImpl$maskOUT_to_ArchitectureBlockImpl$tlul_err/AlwaysBlockImpl$null4/GPortImpl$maskIN" class="sprotty-edge thick edge" style="fill:none;stroke:rgb(112, 112, 112);stroke-linejoin:round;stroke-width:3px;"><g><path d="M 78.6875 78 L 98.6875 78 "/><path d="M 78.6875 78 L 98.6875 78 " class="clickable"/></g></g><g id="sprotty_ArchitectureBlockImpl$tlul_err/AlwaysBlockImpl$null4" transform="translate(98.6875, 58)" class="statement"><rect x="0" y="0" rx="10" ry="5" width="63.75" height="40" class="sprotty-node" style="fill:rgb(245, 245, 245);stroke:rgb(112, 112, 112);"/><text class="clickable sprotty-label statementtype" id="sprotty_ArchitectureBlockImpl$tlul_err/AlwaysBlockImpl$null4/labeltype" transform="translate(5, 14) translate(26.875, 9)" style="cursor:default;font-size:8px;font-weight:700;perspective-origin:0px 0px;fill:rgb(112, 112, 112);text-anchor:middle;">always_comb</text><g id="sprotty_ArchitectureBlockImpl$tlul_err/AlwaysBlockImpl$null4/GPortImpl$maskIN" transform="translate(0, 20)" class="sprotty-hidden hidden" style="display:block;height:0px;width:0px;"/><g id="sprotty_ArchitectureBlockImpl$tlul_err/AlwaysBlockImpl$null4/GPortImpl$addr_sz_chkOUT" transform="translate(63.75, 10)" class="sprotty-hidden hidden" style="display:block;height:0px;width:0px;"/><g id="sprotty_ArchitectureBlockImpl$tlul_err/AlwaysBlockImpl$null4/GPortImpl$mask_chkOUT" transform="translate(63.75, 30)" class="sprotty-hidden hidden" style="display:block;height:0px;width:0px;"/><g id="sprotty_ArchitectureBlockImpl$tlul_err/AlwaysBlockImpl$null4/GPortImpl$fulldata_chkOUT" transform="translate(63.75, 20)" class="sprotty-hidden hidden" style="display:block;height:0px;width:0px;"/></g><g id="sprotty_ArchitectureBlockImpl$tlul_err/AssignmentBlockImpl$a_config_allowed" transform="translate(212.4375, 121)" class="statement"><rect x="0" y="0" rx="10" ry="5" width="19.71875" height="60" class="sprotty-node" style="fill:rgb(245, 245, 245);stroke:rgb(112, 112, 112);"/><text class="clickable sprotty-label statementtype" id="sprotty_ArchitectureBlockImpl$tlul_err/AssignmentBlockImpl$a_config_allowed/labeltype" transform="translate(5, 24) translate(4.71875, 9)" style="cursor:default;font-size:8px;font-weight:700;perspective-origin:0.140625px 0px;fill:rgb(112, 112, 112);text-anchor:middle;">&lt;=</text><g id="sprotty_ArchitectureBlockImpl$tlul_err/AssignmentBlockImpl$a_config_allowed/GPortImpl$fulldata_chkIN" transform="translate(0, 20)" class="sprotty-hidden hidden" style="display:block;height:0px;width:0px;"/><g id="sprotty_ArchitectureBlockImpl$tlul_err/AssignmentBlockImpl$a_config_allowed/GPortImpl$op_partialIN" transform="translate(0, 50)" class="sprotty-hidden hidden" style="display:block;height:0px;width:0px;"/><g id="sprotty_ArchitectureBlockImpl$tlul_err/AssignmentBlockImpl$a_config_allowed/GPortImpl$op_getIN" transform="translate(0, 40)" class="sprotty-hidden hidden" style="display:block;height:0px;width:0px;"/><g id="sprotty_ArchitectureBlockImpl$tlul_err/AssignmentBlockImpl$a_config_allowed/GPortImpl$mask_chkIN" transform="translate(0, 30)" class="sprotty-hidden hidden" style="display:block;height:0px;width:0px;"/><g id="sprotty_ArchitectureBlockImpl$tlul_err/AssignmentBlockImpl$a_config_allowed/GPortImpl$addr_sz_chkIN" transform="translate(0, 10)" class="sprotty-hidden hidden" style="display:block;height:0px;width:0px;"/><g id="sprotty_ArchitectureBlockImpl$tlul_err/AssignmentBlockImpl$a_config_allowed/GPortImpl$fulldata_chkOUT" transform="translate(19.71875, 30)" class="sprotty-hidden hidden" style="display:block;height:0px;width:0px;"/></g><g id="sprotty_ArchitectureBlockImpl$tlul_err/AssignmentBlockImpl$mask" transform="translate(58.96875, 67)" class="statement"><rect x="0" y="0" rx="10" ry="5" width="19.71875" height="22" class="sprotty-node" style="fill:rgb(245, 245, 245);stroke:rgb(112, 112, 112);"/><text class="clickable sprotty-label statementtype" id="sprotty_ArchitectureBlockImpl$tlul_err/AssignmentBlockImpl$mask/labeltype" transform="translate(5, 5) translate(4.71875, 9)" style="cursor:default;font-size:8px;font-weight:700;perspective-origin:0.140625px 0px;fill:rgb(112, 112, 112);text-anchor:middle;">&lt;=</text><g id="sprotty_ArchitectureBlockImpl$tlul_err/AssignmentBlockImpl$mask/GPortImpl$tl_iIN" transform="translate(0, 11)" class="sprotty-hidden hidden" style="display:block;height:0px;width:0px;"/><g id="sprotty_ArchitectureBlockImpl$tlul_err/AssignmentBlockImpl$mask/GPortImpl$maskOUT" transform="translate(19.71875, 11)" class="sprotty-hidden hidden" style="display:block;height:0px;width:0px;"/></g><g id="sprotty_ArchitectureBlockImpl$tlul_err/AssignmentBlockImpl$opcode_allowed" transform="translate(212.4375, 35)" class="statement"><rect x="0" y="0" rx="10" ry="5" width="19.71875" height="22" class="sprotty-node" style="fill:rgb(245, 245, 245);stroke:rgb(112, 112, 112);"/><text class="clickable sprotty-label statementtype" id="sprotty_ArchitectureBlockImpl$tlul_err/AssignmentBlockImpl$opcode_allowed/labeltype" transform="translate(5, 5) translate(4.71875, 9)" style="cursor:default;font-size:8px;font-weight:700;perspective-origin:0.140625px 0px;fill:rgb(112, 112, 112);text-anchor:middle;">&lt;=</text><g id="sprotty_ArchitectureBlockImpl$tlul_err/AssignmentBlockImpl$opcode_allowed/GPortImpl$tl_iIN" transform="translate(0, 11)" class="sprotty-hidden hidden" style="display:block;height:0px;width:0px;"/><g id="sprotty_ArchitectureBlockImpl$tlul_err/AssignmentBlockImpl$opcode_allowed/GPortImpl$opcode_allowedOUT" transform="translate(19.71875, 11)" class="sprotty-hidden hidden" style="display:block;height:0px;width:0px;"/></g><g id="sprotty_ArchitectureBlockImpl$tlul_err/AssignmentBlockImpl$err_o" transform="translate(262.15625, 191)" class="statement"><rect x="0" y="0" rx="10" ry="5" width="19.71875" height="40" class="sprotty-node" style="fill:rgb(245, 245, 245);stroke:rgb(112, 112, 112);"/><text class="clickable sprotty-label statementtype" id="sprotty_ArchitectureBlockImpl$tlul_err/AssignmentBlockImpl$err_o/labeltype" transform="translate(5, 14) translate(4.71875, 9)" style="cursor:default;font-size:8px;font-weight:700;perspective-origin:0.140625px 0px;fill:rgb(112, 112, 112);text-anchor:middle;">&lt;=</text><g id="sprotty_ArchitectureBlockImpl$tlul_err/AssignmentBlockImpl$err_o/GPortImpl$instr_wr_errIN" transform="translate(0, 30)" class="sprotty-hidden hidden" style="display:block;height:0px;width:0px;"/><g id="sprotty_ArchitectureBlockImpl$tlul_err/AssignmentBlockImpl$err_o/GPortImpl$a_config_allowedIN" transform="translate(0, 20)" class="sprotty-hidden hidden" style="display:block;height:0px;width:0px;"/><g id="sprotty_ArchitectureBlockImpl$tlul_err/AssignmentBlockImpl$err_o/GPortImpl$opcode_allowedIN" transform="translate(0, 10)" class="sprotty-hidden hidden" style="display:block;height:0px;width:0px;"/><g id="sprotty_ArchitectureBlockImpl$tlul_err/AssignmentBlockImpl$err_o/GPortImpl$err_oOUT" transform="translate(19.71875, 20)" class="sprotty-hidden hidden" style="display:block;height:0px;width:0px;"/></g><g id="sprotty_ArchitectureBlockImpl$tlul_err/AssignmentBlockImpl$instr_wr_err" transform="translate(212.4375, 201)" class="statement"><rect x="0" y="0" rx="10" ry="5" width="19.71875" height="40" class="sprotty-node" style="fill:rgb(245, 245, 245);stroke:rgb(112, 112, 112);"/><text class="clickable sprotty-label statementtype" id="sprotty_ArchitectureBlockImpl$tlul_err/AssignmentBlockImpl$instr_wr_err/labeltype" transform="translate(5, 14) translate(4.71875, 9)" style="cursor:default;font-size:8px;font-weight:700;perspective-origin:0.140625px 0px;fill:rgb(112, 112, 112);text-anchor:middle;">&lt;=</text><g id="sprotty_ArchitectureBlockImpl$tlul_err/AssignmentBlockImpl$instr_wr_err/GPortImpl$op_partialIN" transform="translate(0, 10)" class="sprotty-hidden hidden" style="display:block;height:0px;width:0px;"/><g id="sprotty_ArchitectureBlockImpl$tlul_err/AssignmentBlockImpl$instr_wr_err/GPortImpl$op_fullIN" transform="translate(0, 30)" class="sprotty-hidden hidden" style="display:block;height:0px;width:0px;"/><g id="sprotty_ArchitectureBlockImpl$tlul_err/AssignmentBlockImpl$instr_wr_err/GPortImpl$tl_iIN" transform="translate(0, 20)" class="sprotty-hidden hidden" style="display:block;height:0px;width:0px;"/><g id="sprotty_ArchitectureBlockImpl$tlul_err/AssignmentBlockImpl$instr_wr_err/GPortImpl$op_partialOUT" transform="translate(19.71875, 20)" class="sprotty-hidden hidden" style="display:block;height:0px;width:0px;"/></g><g id="sprotty_ArchitectureBlockImpl$tlul_err/AssignmentBlockImpl$op_get" transform="translate(120.703125, 118)" class="statement"><rect x="0" y="0" rx="10" ry="5" width="19.71875" height="22" class="sprotty-node" style="fill:rgb(245, 245, 245);stroke:rgb(112, 112, 112);"/><text class="clickable sprotty-label statementtype" id="sprotty_ArchitectureBlockImpl$tlul_err/AssignmentBlockImpl$op_get/labeltype" transform="translate(5, 5) translate(4.71875, 9)" style="cursor:default;font-size:8px;font-weight:700;perspective-origin:0.140625px 0px;fill:rgb(112, 112, 112);text-anchor:middle;">&lt;=</text><g id="sprotty_ArchitectureBlockImpl$tlul_err/AssignmentBlockImpl$op_get/GPortImpl$tl_iIN" transform="translate(0, 11)" class="sprotty-hidden hidden" style="display:block;height:0px;width:0px;"/><g id="sprotty_ArchitectureBlockImpl$tlul_err/AssignmentBlockImpl$op_get/GPortImpl$op_getOUT" transform="translate(19.71875, 11)" class="sprotty-hidden hidden" style="display:block;height:0px;width:0px;"/></g><g id="sprotty_ArchitectureBlockImpl$tlul_err/AssignmentBlockImpl$op_partial" transform="translate(120.703125, 160)" class="statement"><rect x="0" y="0" rx="10" ry="5" width="19.71875" height="22" class="sprotty-node" style="fill:rgb(245, 245, 245);stroke:rgb(112, 112, 112);"/><text class="clickable sprotty-label statementtype" id="sprotty_ArchitectureBlockImpl$tlul_err/AssignmentBlockImpl$op_partial/labeltype" transform="translate(5, 5) translate(4.71875, 9)" style="cursor:default;font-size:8px;font-weight:700;perspective-origin:0.140625px 0px;fill:rgb(112, 112, 112);text-anchor:middle;">&lt;=</text><g id="sprotty_ArchitectureBlockImpl$tlul_err/AssignmentBlockImpl$op_partial/GPortImpl$tl_iIN" transform="translate(0, 11)" class="sprotty-hidden hidden" style="display:block;height:0px;width:0px;"/><g id="sprotty_ArchitectureBlockImpl$tlul_err/AssignmentBlockImpl$op_partial/GPortImpl$op_partialOUT" transform="translate(19.71875, 11)" class="sprotty-hidden hidden" style="display:block;height:0px;width:0px;"/></g><g id="sprotty_ArchitectureBlockImpl$tlul_err/AssignmentBlockImpl$op_full" transform="translate(120.703125, 220)" class="statement"><rect x="0" y="0" rx="10" ry="5" width="19.71875" height="22" class="sprotty-node" style="fill:rgb(245, 245, 245);stroke:rgb(112, 112, 112);"/><text class="clickable sprotty-label statementtype" id="sprotty_ArchitectureBlockImpl$tlul_err/AssignmentBlockImpl$op_full/labeltype" transform="translate(5, 5) translate(4.71875, 9)" style="cursor:default;font-size:8px;font-weight:700;perspective-origin:0.140625px 0px;fill:rgb(112, 112, 112);text-anchor:middle;">&lt;=</text><g id="sprotty_ArchitectureBlockImpl$tlul_err/AssignmentBlockImpl$op_full/GPortImpl$tl_iIN" transform="translate(0, 11)" class="sprotty-hidden hidden" style="display:block;height:0px;width:0px;"/><g id="sprotty_ArchitectureBlockImpl$tlul_err/AssignmentBlockImpl$op_full/GPortImpl$op_fullOUT" transform="translate(19.71875, 11)" class="sprotty-hidden hidden" style="display:block;height:0px;width:0px;"/></g><g id="sprotty_ArchitectureBlockImpl$tlul_err/BPortImpl$tl_i" transform="translate(0, 208)" class="triangle"><path d="M 0,0 L 5,2.5 L 0,5 Z" transform="translate(-1.67, -2.5)" class="sprotty-port" style="fill:rgb(48, 48, 48);stroke:rgb(48, 48, 48);"/><text class="clickable sprotty-label port" id="sprotty_ArchitectureBlockImpl$tlul_err/BPortImpl$tl_i/label" transform="translate(6, 6) translate(8.984375, 14)" style="cursor:default;font-size:12px;perspective-origin:0px 0px;fill:rgb(48, 48, 48);text-anchor:middle;">tl_i</text></g><g id="sprotty_ArchitectureBlockImpl$tlul_err/BPortImpl$rst_ni" transform="translate(0, 262)" class="triangle"><path d="M 0,0 L 5,2.5 L 0,5 Z" transform="translate(-1.67, -2.5)" class="sprotty-port" style="fill:rgb(48, 48, 48);stroke:rgb(48, 48, 48);"/><text class="clickable sprotty-label port" id="sprotty_ArchitectureBlockImpl$tlul_err/BPortImpl$rst_ni/label" transform="translate(6, 6) translate(15.921875, 14)" style="cursor:default;font-size:12px;perspective-origin:0px 0px;fill:rgb(48, 48, 48);text-anchor:middle;">rst_ni</text></g><g id="sprotty_ArchitectureBlockImpl$tlul_err/BPortImpl$clk_i" transform="translate(0, 306)" class="triangle"><path d="M 0,0 L 5,2.5 L 0,5 Z" transform="translate(-1.67, -2.5)" class="sprotty-port" style="fill:rgb(48, 48, 48);stroke:rgb(48, 48, 48);"/><text class="clickable sprotty-label port" id="sprotty_ArchitectureBlockImpl$tlul_err/BPortImpl$clk_i/label" transform="translate(6, 6) translate(13.09375, 14)" style="cursor:default;font-size:12px;perspective-origin:0px 0px;fill:rgb(48, 48, 48);text-anchor:middle;">clk_i</text></g><g id="sprotty_ArchitectureBlockImpl$tlul_err/BPortImpl$err_o" transform="translate(332.84375, 211)" class="triangle"><path d="M 0,0 L 5,2.5 L 0,5 Z" transform="translate(-1.67, -2.5)" class="sprotty-port" style="fill:rgb(48, 48, 48);stroke:rgb(48, 48, 48);"/><text class="clickable sprotty-label port" id="sprotty_ArchitectureBlockImpl$tlul_err/BPortImpl$err_o/label" transform="translate(-35.96875, 6) translate(14.984375, 14)" style="cursor:default;font-size:12px;perspective-origin:0px 0px;fill:rgb(48, 48, 48);text-anchor:middle;">err_o</text></g></g></g></svg>