<svg xmlns="http://www.w3.org/2000/svg" id="sprotty_work.prim_clock_gating" class="sprotty-graph sprotty-block-diagram blockdiagram" style="font-family:&quot;Noto Sans&quot;, Helvetica, Arial, sans-serif;perspective-origin:0px 0px;transform-origin:0px 0px;" version="1.1" viewBox="7 7 601.53125 334" width="601.53125" height="334"><g transform="scale(1) translate(0,0)"><g id="sprotty_ArchitectureBlockImpl$prim_clock_gating" transform="translate(12, 12)" class="architecture"><g class="sprotty-block" style="fill:rgb(255, 255, 255);stroke:rgb(48, 48, 48);stroke-dasharray:0px;"><rect x="0" y="0" rx="1" ry="1" width="591.53125" height="324"/><text x="295.765625" y="12" class="sprotty-block-name" style="cursor:pointer;font-weight:700;perspective-origin:295.984px 0px;fill:rgb(48, 48, 48);stroke:rgba(0, 0, 0, 0);dominant-baseline:middle;text-anchor:middle;">prim_clock_gating</text><line x1="0" y1="20" x2="591.53125" y2="20"/></g><g id="sprotty_ArchitectureBlockImpl$prim_clock_gating/GenerateStatementBlockImpl$null4/GPortImpl$clk_o_to_ArchitectureBlockImpl$prim_clock_gating/BPortImpl$clk_o" class="sprotty-edge edge" style="fill:none;stroke:rgb(112, 112, 112);stroke-linejoin:round;"><g><path d="M 540.375 116 L 591.53125 116 "/><path d="M 540.375 116 L 591.53125 116 " class="clickable"/></g></g><g id="sprotty_ArchitectureBlockImpl$prim_clock_gating/BPortImpl$clk_i_to_ArchitectureBlockImpl$prim_clock_gating/GenerateStatementBlockImpl$null4/GPortImpl$clk_i" class="sprotty-edge edge" style="fill:none;stroke:rgb(112, 112, 112);stroke-linejoin:round;"><g><path d="M 0 82 L 80.59375 82 C 81.59375 82 82.59375 83 82.59375 84 L 82.59375 104 C 82.59375 105 83.59375 106 84.59375 106 L 92.59375 106 "/><path d="M 0 82 L 80.59375 82 C 81.59375 82 82.59375 83 82.59375 84 L 82.59375 104 C 82.59375 105 83.59375 106 84.59375 106 L 92.59375 106 " class="clickable"/></g></g><g id="sprotty_ArchitectureBlockImpl$prim_clock_gating/BPortImpl$en_i_to_ArchitectureBlockImpl$prim_clock_gating/GenerateStatementBlockImpl$null4/GPortImpl$en_i" class="sprotty-edge edge" style="fill:none;stroke:rgb(112, 112, 112);stroke-linejoin:round;"><g><path d="M 0 116 L 92.59375 116 "/><path d="M 0 116 L 92.59375 116 " class="clickable"/></g></g><g id="sprotty_ArchitectureBlockImpl$prim_clock_gating/BPortImpl$test_en_i_to_ArchitectureBlockImpl$prim_clock_gating/GenerateStatementBlockImpl$null4/GPortImpl$test_en_i" class="sprotty-edge edge" style="fill:none;stroke:rgb(112, 112, 112);stroke-linejoin:round;"><g><path d="M 0 150 L 80.59375 150 C 81.59375 150 82.59375 149 82.59375 148 L 82.59375 146 C 82.59375 145 83.59375 144 84.59375 144 L 92.59375 144 "/><path d="M 0 150 L 80.59375 150 C 81.59375 150 82.59375 149 82.59375 148 L 82.59375 146 C 82.59375 145 83.59375 144 84.59375 144 L 92.59375 144 " class="clickable"/></g></g><g id="sprotty_ArchitectureBlockImpl$prim_clock_gating/GenerateStatementBlockImpl$null4" transform="translate(92.59375, 35)" class="generate"><g class="sprotty-block sprotty-block-generate" style="fill:rgb(255, 255, 255);stroke:rgb(48, 48, 48);stroke-dasharray:0px;"><rect x="0" y="0" rx="1" ry="1" width="447.78125" height="274" style="stroke-dasharray:3px, 1px;"/><text x="223.890625" y="12" class="sprotty-block-name" style="cursor:pointer;font-weight:700;fill:rgb(48, 48, 48);stroke:rgba(0, 0, 0, 0);dominant-baseline:middle;text-anchor:middle;"/>undefined</g><g id="sprotty_ArchitectureBlockImpl$prim_clock_gating/GenerateStatementBlockImpl$null4/InstantiationBlockImpl$u_impl_xilinx/BPortImpl$clk_o_to_ArchitectureBlockImpl$prim_clock_gating/GenerateStatementBlockImpl$null4/GPortImpl$clk_o" class="sprotty-edge edge" style="fill:none;stroke:rgb(112, 112, 112);stroke-linejoin:round;"><g><path d="M 389.73046875 213 L 420.78125 213 C 421.78125 213 422.78125 212 422.78125 211 L 422.78125 83 C 422.78125 82 423.78125 81 424.78125 81 L 447.78125 81 "/><path d="M 389.73046875 213 L 420.78125 213 C 421.78125 213 422.78125 212 422.78125 211 L 422.78125 83 C 422.78125 82 423.78125 81 424.78125 81 L 447.78125 81 " class="clickable"/></g><circle r="2" id="sprotty_ArchitectureBlockImpl$prim_clock_gating/GenerateStatementBlockImpl$null4/InstantiationBlockImpl$u_impl_xilinx/BPortImpl$clk_o_to_ArchitectureBlockImpl$prim_clock_gating/GenerateStatementBlockImpl$null4/GPortImpl$clk_o/junction0" transform="translate(422.78125, 81)" class="sprotty-junction junction" style="fill:rgb(112, 112, 112);stroke:none;"/></g><g id="sprotty_ArchitectureBlockImpl$prim_clock_gating/GenerateStatementBlockImpl$null4/InstantiationBlockImpl$u_impl_generic/BPortImpl$clk_o_to_ArchitectureBlockImpl$prim_clock_gating/GenerateStatementBlockImpl$null4/GPortImpl$clk_o" class="sprotty-edge edge" style="fill:none;stroke:rgb(112, 112, 112);stroke-linejoin:round;"><g><path d="M 412.78125 81 L 447.78125 81 "/><path d="M 412.78125 81 L 447.78125 81 " class="clickable"/></g></g><g id="sprotty_ArchitectureBlockImpl$prim_clock_gating/GenerateStatementBlockImpl$null4/GPortImpl$clk_i_to_ArchitectureBlockImpl$prim_clock_gating/GenerateStatementBlockImpl$null4/InstantiationBlockImpl$u_impl_xilinx/BPortImpl$clk_i" class="sprotty-edge edge" style="fill:none;stroke:rgb(112, 112, 112);stroke-linejoin:round;"><g><path d="M 0 71 L 43 71 C 44 71 45 72 45 73 L 45 183 C 45 184 46 185 47 185 L 62.68359375 185 "/><path d="M 0 71 L 43 71 C 44 71 45 72 45 73 L 45 183 C 45 184 46 185 47 185 L 62.68359375 185 " class="clickable"/></g><circle r="2" id="sprotty_ArchitectureBlockImpl$prim_clock_gating/GenerateStatementBlockImpl$null4/GPortImpl$clk_i_to_ArchitectureBlockImpl$prim_clock_gating/GenerateStatementBlockImpl$null4/InstantiationBlockImpl$u_impl_xilinx/BPortImpl$clk_i/junction0" transform="translate(45, 71)" class="sprotty-junction junction" style="fill:rgb(112, 112, 112);stroke:none;"/></g><g id="sprotty_ArchitectureBlockImpl$prim_clock_gating/GenerateStatementBlockImpl$null4/GPortImpl$en_i_to_ArchitectureBlockImpl$prim_clock_gating/GenerateStatementBlockImpl$null4/InstantiationBlockImpl$u_impl_xilinx/BPortImpl$en_i" class="sprotty-edge edge" style="fill:none;stroke:rgb(112, 112, 112);stroke-linejoin:round;"><g><path d="M 0 81 L 33 81 C 34 81 35 82 35 83 L 35 211 C 35 212 36 213 37 213 L 62.68359375 213 "/><path d="M 0 81 L 33 81 C 34 81 35 82 35 83 L 35 211 C 35 212 36 213 37 213 L 62.68359375 213 " class="clickable"/></g><circle r="2" id="sprotty_ArchitectureBlockImpl$prim_clock_gating/GenerateStatementBlockImpl$null4/GPortImpl$en_i_to_ArchitectureBlockImpl$prim_clock_gating/GenerateStatementBlockImpl$null4/InstantiationBlockImpl$u_impl_xilinx/BPortImpl$en_i/junction0" transform="translate(35, 81)" class="sprotty-junction junction" style="fill:rgb(112, 112, 112);stroke:none;"/></g><g id="sprotty_ArchitectureBlockImpl$prim_clock_gating/GenerateStatementBlockImpl$null4/GPortImpl$test_en_i_to_ArchitectureBlockImpl$prim_clock_gating/GenerateStatementBlockImpl$null4/InstantiationBlockImpl$u_impl_xilinx/BPortImpl$test_en_i" class="sprotty-edge edge" style="fill:none;stroke:rgb(112, 112, 112);stroke-linejoin:round;"><g><path d="M 0 109 L 23 109 C 24 109 25 110 25 111 L 25 239 C 25 240 26 241 27 241 L 62.68359375 241 "/><path d="M 0 109 L 23 109 C 24 109 25 110 25 111 L 25 239 C 25 240 26 241 27 241 L 62.68359375 241 " class="clickable"/></g><circle r="2" id="sprotty_ArchitectureBlockImpl$prim_clock_gating/GenerateStatementBlockImpl$null4/GPortImpl$test_en_i_to_ArchitectureBlockImpl$prim_clock_gating/GenerateStatementBlockImpl$null4/InstantiationBlockImpl$u_impl_xilinx/BPortImpl$test_en_i/junction0" transform="translate(25, 109)" class="sprotty-junction junction" style="fill:rgb(112, 112, 112);stroke:none;"/></g><g id="sprotty_ArchitectureBlockImpl$prim_clock_gating/GenerateStatementBlockImpl$null4/GPortImpl$clk_i_to_ArchitectureBlockImpl$prim_clock_gating/GenerateStatementBlockImpl$null4/InstantiationBlockImpl$u_impl_generic/BPortImpl$clk_i" class="sprotty-edge edge" style="fill:none;stroke:rgb(112, 112, 112);stroke-linejoin:round;"><g><path d="M 0 71 L 43 71 C 44 71 45 70 45 69 L 45 55 C 45 54 46 53 47 53 L 55 53 "/><path d="M 0 71 L 43 71 C 44 71 45 70 45 69 L 45 55 C 45 54 46 53 47 53 L 55 53 " class="clickable"/></g></g><g id="sprotty_ArchitectureBlockImpl$prim_clock_gating/GenerateStatementBlockImpl$null4/GPortImpl$en_i_to_ArchitectureBlockImpl$prim_clock_gating/GenerateStatementBlockImpl$null4/InstantiationBlockImpl$u_impl_generic/BPortImpl$en_i" class="sprotty-edge edge" style="fill:none;stroke:rgb(112, 112, 112);stroke-linejoin:round;"><g><path d="M 0 81 L 55 81 "/><path d="M 0 81 L 55 81 " class="clickable"/></g></g><g id="sprotty_ArchitectureBlockImpl$prim_clock_gating/GenerateStatementBlockImpl$null4/GPortImpl$test_en_i_to_ArchitectureBlockImpl$prim_clock_gating/GenerateStatementBlockImpl$null4/InstantiationBlockImpl$u_impl_generic/BPortImpl$test_en_i" class="sprotty-edge edge" style="fill:none;stroke:rgb(112, 112, 112);stroke-linejoin:round;"><g><path d="M 0 109 L 55 109 "/><path d="M 0 109 L 55 109 " class="clickable"/></g></g><g id="sprotty_ArchitectureBlockImpl$prim_clock_gating/GenerateStatementBlockImpl$null4/InstantiationBlockImpl$u_impl_generic" transform="translate(55, 15)" class="instantiation"><g class="sprotty-block" style="fill:rgb(255, 255, 255);stroke:rgb(48, 48, 48);stroke-dasharray:0px;"><rect x="0" y="0" rx="1" ry="1" width="357.78125" height="112"/><text x="178.890625" y="12" class="sprotty-block-name" style="cursor:pointer;font-weight:700;perspective-origin:179.109px 0px;fill:rgb(48, 48, 48);stroke:rgba(0, 0, 0, 0);dominant-baseline:middle;text-anchor:middle;">u_impl_generic : prim_generic_clock_gating</text><line x1="0" y1="20" x2="357.78125" y2="20"/></g><g id="sprotty_ArchitectureBlockImpl$prim_clock_gating/GenerateStatementBlockImpl$null4/InstantiationBlockImpl$u_impl_generic/BPortImpl$test_en_i" transform="translate(0, 94)" class="triangle"><path d="M 0,0 L 5,2.5 L 0,5 Z" transform="translate(-1.67, -2.5)" class="sprotty-port" style="fill:rgb(48, 48, 48);stroke:rgb(48, 48, 48);"/><text class="clickable sprotty-label port" id="sprotty_ArchitectureBlockImpl$prim_clock_gating/GenerateStatementBlockImpl$null4/InstantiationBlockImpl$u_impl_generic/BPortImpl$test_en_i/label" transform="translate(6, -9) translate(25.796875, 14)" style="cursor:default;font-size:12px;perspective-origin:0px 0px;fill:rgb(48, 48, 48);text-anchor:middle;">test_en_i</text></g><g id="sprotty_ArchitectureBlockImpl$prim_clock_gating/GenerateStatementBlockImpl$null4/InstantiationBlockImpl$u_impl_generic/BPortImpl$en_i" transform="translate(0, 66)" class="triangle"><path d="M 0,0 L 5,2.5 L 0,5 Z" transform="translate(-1.67, -2.5)" class="sprotty-port" style="fill:rgb(48, 48, 48);stroke:rgb(48, 48, 48);"/><text class="clickable sprotty-label port" id="sprotty_ArchitectureBlockImpl$prim_clock_gating/GenerateStatementBlockImpl$null4/InstantiationBlockImpl$u_impl_generic/BPortImpl$en_i/label" transform="translate(6, -9) translate(12, 14)" style="cursor:default;font-size:12px;perspective-origin:0px 0px;fill:rgb(48, 48, 48);text-anchor:middle;">en_i</text></g><g id="sprotty_ArchitectureBlockImpl$prim_clock_gating/GenerateStatementBlockImpl$null4/InstantiationBlockImpl$u_impl_generic/BPortImpl$clk_i" transform="translate(0, 38)" class="triangle"><path d="M 0,0 L 5,2.5 L 0,5 Z" transform="translate(-1.67, -2.5)" class="sprotty-port" style="fill:rgb(48, 48, 48);stroke:rgb(48, 48, 48);"/><text class="clickable sprotty-label port" id="sprotty_ArchitectureBlockImpl$prim_clock_gating/GenerateStatementBlockImpl$null4/InstantiationBlockImpl$u_impl_generic/BPortImpl$clk_i/label" transform="translate(6, -9) translate(13.09375, 14)" style="cursor:default;font-size:12px;perspective-origin:0px 0px;fill:rgb(48, 48, 48);text-anchor:middle;">clk_i</text></g><g id="sprotty_ArchitectureBlockImpl$prim_clock_gating/GenerateStatementBlockImpl$null4/InstantiationBlockImpl$u_impl_generic/BPortImpl$clk_o" transform="translate(357.78125, 66)" class="triangle"><path d="M 0,0 L 5,2.5 L 0,5 Z" transform="translate(-1.67, -2.5)" class="sprotty-port" style="fill:rgb(48, 48, 48);stroke:rgb(48, 48, 48);"/><text class="clickable sprotty-label port" id="sprotty_ArchitectureBlockImpl$prim_clock_gating/GenerateStatementBlockImpl$null4/InstantiationBlockImpl$u_impl_generic/BPortImpl$clk_o/label" transform="translate(-36.15625, -9) translate(15.078125, 14)" style="cursor:default;font-size:12px;perspective-origin:0px 0px;fill:rgb(48, 48, 48);text-anchor:middle;">clk_o</text></g></g><g id="sprotty_ArchitectureBlockImpl$prim_clock_gating/GenerateStatementBlockImpl$null4/InstantiationBlockImpl$u_impl_xilinx" transform="translate(62.68359375, 147)" class="instantiation"><g class="sprotty-block" style="fill:rgb(255, 255, 255);stroke:rgb(48, 48, 48);stroke-dasharray:0px;"><rect x="0" y="0" rx="1" ry="1" width="327.046875" height="112"/><text x="163.5234375" y="12" class="sprotty-block-name" style="cursor:pointer;font-weight:700;perspective-origin:163.75px 0px;fill:rgb(48, 48, 48);stroke:rgba(0, 0, 0, 0);dominant-baseline:middle;text-anchor:middle;">u_impl_xilinx : prim_xilinx_clock_gating</text><line x1="0" y1="20" x2="327.046875" y2="20"/></g><g id="sprotty_ArchitectureBlockImpl$prim_clock_gating/GenerateStatementBlockImpl$null4/InstantiationBlockImpl$u_impl_xilinx/BPortImpl$test_en_i" transform="translate(0, 94)" class="triangle"><path d="M 0,0 L 5,2.5 L 0,5 Z" transform="translate(-1.67, -2.5)" class="sprotty-port" style="fill:rgb(48, 48, 48);stroke:rgb(48, 48, 48);"/><text class="clickable sprotty-label port" id="sprotty_ArchitectureBlockImpl$prim_clock_gating/GenerateStatementBlockImpl$null4/InstantiationBlockImpl$u_impl_xilinx/BPortImpl$test_en_i/label" transform="translate(6, -9) translate(25.796875, 14)" style="cursor:default;font-size:12px;perspective-origin:0px 0px;fill:rgb(48, 48, 48);text-anchor:middle;">test_en_i</text></g><g id="sprotty_ArchitectureBlockImpl$prim_clock_gating/GenerateStatementBlockImpl$null4/InstantiationBlockImpl$u_impl_xilinx/BPortImpl$en_i" transform="translate(0, 66)" class="triangle"><path d="M 0,0 L 5,2.5 L 0,5 Z" transform="translate(-1.67, -2.5)" class="sprotty-port" style="fill:rgb(48, 48, 48);stroke:rgb(48, 48, 48);"/><text class="clickable sprotty-label port" id="sprotty_ArchitectureBlockImpl$prim_clock_gating/GenerateStatementBlockImpl$null4/InstantiationBlockImpl$u_impl_xilinx/BPortImpl$en_i/label" transform="translate(6, -9) translate(12, 14)" style="cursor:default;font-size:12px;perspective-origin:0px 0px;fill:rgb(48, 48, 48);text-anchor:middle;">en_i</text></g><g id="sprotty_ArchitectureBlockImpl$prim_clock_gating/GenerateStatementBlockImpl$null4/InstantiationBlockImpl$u_impl_xilinx/BPortImpl$clk_i" transform="translate(0, 38)" class="triangle"><path d="M 0,0 L 5,2.5 L 0,5 Z" transform="translate(-1.67, -2.5)" class="sprotty-port" style="fill:rgb(48, 48, 48);stroke:rgb(48, 48, 48);"/><text class="clickable sprotty-label port" id="sprotty_ArchitectureBlockImpl$prim_clock_gating/GenerateStatementBlockImpl$null4/InstantiationBlockImpl$u_impl_xilinx/BPortImpl$clk_i/label" transform="translate(6, -9) translate(13.09375, 14)" style="cursor:default;font-size:12px;perspective-origin:0px 0px;fill:rgb(48, 48, 48);text-anchor:middle;">clk_i</text></g><g id="sprotty_ArchitectureBlockImpl$prim_clock_gating/GenerateStatementBlockImpl$null4/InstantiationBlockImpl$u_impl_xilinx/BPortImpl$clk_o" transform="translate(327.046875, 66)" class="triangle"><path d="M 0,0 L 5,2.5 L 0,5 Z" transform="translate(-1.67, -2.5)" class="sprotty-port" style="fill:rgb(48, 48, 48);stroke:rgb(48, 48, 48);"/><text class="clickable sprotty-label port" id="sprotty_ArchitectureBlockImpl$prim_clock_gating/GenerateStatementBlockImpl$null4/InstantiationBlockImpl$u_impl_xilinx/BPortImpl$clk_o/label" transform="translate(-36.15625, -9) translate(15.078125, 14)" style="cursor:default;font-size:12px;perspective-origin:0px 0px;fill:rgb(48, 48, 48);text-anchor:middle;">clk_o</text></g></g><g id="sprotty_ArchitectureBlockImpl$prim_clock_gating/GenerateStatementBlockImpl$null4/GPortImpl$test_en_i" transform="translate(0, 109)" class="triangle"><path d="M 0,0 L 5,2.5 L 0,5 Z" transform="translate(-1.67, -2.5)" class="sprotty-port" style="fill:rgb(48, 48, 48);stroke:rgb(48, 48, 48);"/></g><g id="sprotty_ArchitectureBlockImpl$prim_clock_gating/GenerateStatementBlockImpl$null4/GPortImpl$en_i" transform="translate(0, 81)" class="triangle"><path d="M 0,0 L 5,2.5 L 0,5 Z" transform="translate(-1.67, -2.5)" class="sprotty-port" style="fill:rgb(48, 48, 48);stroke:rgb(48, 48, 48);"/></g><g id="sprotty_ArchitectureBlockImpl$prim_clock_gating/GenerateStatementBlockImpl$null4/GPortImpl$clk_i" transform="translate(0, 71)" class="triangle"><path d="M 0,0 L 5,2.5 L 0,5 Z" transform="translate(-1.67, -2.5)" class="sprotty-port" style="fill:rgb(48, 48, 48);stroke:rgb(48, 48, 48);"/></g><g id="sprotty_ArchitectureBlockImpl$prim_clock_gating/GenerateStatementBlockImpl$null4/GPortImpl$clk_o" transform="translate(447.78125, 81)" class="triangle"><path d="M 0,0 L 5,2.5 L 0,5 Z" transform="translate(-1.67, -2.5)" class="sprotty-port" style="fill:rgb(48, 48, 48);stroke:rgb(48, 48, 48);"/></g></g><g id="sprotty_ArchitectureBlockImpl$prim_clock_gating/BPortImpl$test_en_i" transform="translate(0, 150)" class="triangle"><path d="M 0,0 L 5,2.5 L 0,5 Z" transform="translate(-1.67, -2.5)" class="sprotty-port" style="fill:rgb(48, 48, 48);stroke:rgb(48, 48, 48);"/><text class="clickable sprotty-label port" id="sprotty_ArchitectureBlockImpl$prim_clock_gating/BPortImpl$test_en_i/label" transform="translate(6, 6) translate(25.796875, 14)" style="cursor:default;font-size:12px;perspective-origin:0px 0px;fill:rgb(48, 48, 48);text-anchor:middle;">test_en_i</text></g><g id="sprotty_ArchitectureBlockImpl$prim_clock_gating/BPortImpl$en_i" transform="translate(0, 116)" class="triangle"><path d="M 0,0 L 5,2.5 L 0,5 Z" transform="translate(-1.67, -2.5)" class="sprotty-port" style="fill:rgb(48, 48, 48);stroke:rgb(48, 48, 48);"/><text class="clickable sprotty-label port" id="sprotty_ArchitectureBlockImpl$prim_clock_gating/BPortImpl$en_i/label" transform="translate(6, 6) translate(12, 14)" style="cursor:default;font-size:12px;perspective-origin:0px 0px;fill:rgb(48, 48, 48);text-anchor:middle;">en_i</text></g><g id="sprotty_ArchitectureBlockImpl$prim_clock_gating/BPortImpl$clk_i" transform="translate(0, 82)" class="triangle"><path d="M 0,0 L 5,2.5 L 0,5 Z" transform="translate(-1.67, -2.5)" class="sprotty-port" style="fill:rgb(48, 48, 48);stroke:rgb(48, 48, 48);"/><text class="clickable sprotty-label port" id="sprotty_ArchitectureBlockImpl$prim_clock_gating/BPortImpl$clk_i/label" transform="translate(6, 6) translate(13.09375, 14)" style="cursor:default;font-size:12px;perspective-origin:0px 0px;fill:rgb(48, 48, 48);text-anchor:middle;">clk_i</text></g><g id="sprotty_ArchitectureBlockImpl$prim_clock_gating/BPortImpl$clk_o" transform="translate(591.53125, 116)" class="triangle"><path d="M 0,0 L 5,2.5 L 0,5 Z" transform="translate(-1.67, -2.5)" class="sprotty-port" style="fill:rgb(48, 48, 48);stroke:rgb(48, 48, 48);"/><text class="clickable sprotty-label port" id="sprotty_ArchitectureBlockImpl$prim_clock_gating/BPortImpl$clk_o/label" transform="translate(-36.15625, 6) translate(15.078125, 14)" style="cursor:default;font-size:12px;perspective-origin:0px 0px;fill:rgb(48, 48, 48);text-anchor:middle;">clk_o</text></g></g></g></svg>