<svg xmlns="http://www.w3.org/2000/svg" id="sprotty_work.keymgr_sideload_key" class="sprotty-graph sprotty-block-diagram blockdiagram" style="font-family:&quot;Noto Sans&quot;, Helvetica, Arial, sans-serif;perspective-origin:0px 0px;transform-origin:0px 0px;" version="1.1" viewBox="7 7 287.921875 363" width="287.921875" height="363"><g transform="scale(1) translate(0,0)"><g id="sprotty_ArchitectureBlockImpl$keymgr_sideload_key" transform="translate(12, 12)" class="architecture"><g class="sprotty-block" style="fill:rgb(255, 255, 255);stroke:rgb(48, 48, 48);stroke-dasharray:0px;"><rect x="0" y="0" rx="1" ry="1" width="277.921875" height="353"/><text x="138.9609375" y="12" class="sprotty-block-name" style="cursor:pointer;font-weight:700;perspective-origin:138.953px 0px;fill:rgb(48, 48, 48);stroke:rgba(0, 0, 0, 0);dominant-baseline:middle;text-anchor:middle;">keymgr_sideload_key</text><line x1="0" y1="20" x2="277.921875" y2="20"/></g><g id="sprotty_ArchitectureBlockImpl$keymgr_sideload_key/AssignmentBlockImpl$key_o.valid/GPortImpl$key_oOUT_to_ArchitectureBlockImpl$keymgr_sideload_key/BPortImpl$key_o" class="sprotty-edge thick edge" style="fill:none;stroke:rgb(112, 112, 112);stroke-linejoin:round;stroke-width:3px;"><g><path d="M 203.578125 99 L 211.578125 99 C 212.578125 99 213.578125 100 213.578125 101 L 213.578125 143 C 213.578125 144 214.578125 145 215.578125 145 L 277.921875 145 "/><path d="M 203.578125 99 L 211.578125 99 C 212.578125 99 213.578125 100 213.578125 101 L 213.578125 143 C 213.578125 144 214.578125 145 215.578125 145 L 277.921875 145 " class="clickable"/></g><circle r="3" id="sprotty_ArchitectureBlockImpl$keymgr_sideload_key/AssignmentBlockImpl$key_o.valid/GPortImpl$key_oOUT_to_ArchitectureBlockImpl$keymgr_sideload_key/BPortImpl$key_o/junction0" transform="translate(213.578125, 145)" class="sprotty-junction thick" style="fill:rgb(112, 112, 112);stroke:none;"/></g><g id="sprotty_ArchitectureBlockImpl$keymgr_sideload_key/AssignmentBlockImpl$key_o.key_share0/GPortImpl$key_oOUT_to_ArchitectureBlockImpl$keymgr_sideload_key/BPortImpl$key_o" class="sprotty-edge thick edge" style="fill:none;stroke:rgb(112, 112, 112);stroke-linejoin:round;stroke-width:3px;"><g><path d="M 203.578125 187 L 211.578125 187 C 212.578125 187 213.578125 186 213.578125 185 L 213.578125 147 C 213.578125 146 214.578125 145 215.578125 145 L 277.921875 145 "/><path d="M 203.578125 187 L 211.578125 187 C 212.578125 187 213.578125 186 213.578125 185 L 213.578125 147 C 213.578125 146 214.578125 145 215.578125 145 L 277.921875 145 " class="clickable"/></g></g><g id="sprotty_ArchitectureBlockImpl$keymgr_sideload_key/AssignmentBlockImpl$key_o.key_share1/GPortImpl$key_oOUT_to_ArchitectureBlockImpl$keymgr_sideload_key/BPortImpl$key_o" class="sprotty-edge thick edge" style="fill:none;stroke:rgb(112, 112, 112);stroke-linejoin:round;stroke-width:3px;"><g><path d="M 203.578125 145 L 277.921875 145 "/><path d="M 203.578125 145 L 277.921875 145 " class="clickable"/></g></g><g id="sprotty_ArchitectureBlockImpl$keymgr_sideload_key/BPortImpl$en_i_to_ArchitectureBlockImpl$keymgr_sideload_key/AssignmentBlockImpl$key_o.valid/GPortImpl$en_iIN" class="sprotty-edge edge" style="fill:none;stroke:rgb(112, 112, 112);stroke-linejoin:round;"><g><path d="M 0 36 L 171.859375 36 C 172.859375 36 173.859375 37 173.859375 38 L 173.859375 92 C 173.859375 93 174.859375 94 175.859375 94 L 183.859375 94 "/><path d="M 0 36 L 171.859375 36 C 172.859375 36 173.859375 37 173.859375 38 L 173.859375 92 C 173.859375 93 174.859375 94 175.859375 94 L 183.859375 94 " class="clickable"/></g></g><g id="sprotty_ArchitectureBlockImpl$keymgr_sideload_key/BPortImpl$clk_i_to_ArchitectureBlockImpl$keymgr_sideload_key/AlwaysBlockImpl$null10/GPortImpl$clk_iIN" class="sprotty-edge edge" style="fill:none;stroke:rgb(112, 112, 112);stroke-linejoin:round;"><g><path d="M 0 192 L 92.96875 192 C 93.96875 192 94.96875 191 94.96875 190 L 94.96875 126 C 94.96875 125 95.96875 124 96.96875 124 L 114.96875 124 "/><path d="M 0 192 L 92.96875 192 C 93.96875 192 94.96875 191 94.96875 190 L 94.96875 126 C 94.96875 125 95.96875 124 96.96875 124 L 114.96875 124 " class="clickable"/></g><circle r="2" id="sprotty_ArchitectureBlockImpl$keymgr_sideload_key/BPortImpl$clk_i_to_ArchitectureBlockImpl$keymgr_sideload_key/AlwaysBlockImpl$null10/GPortImpl$clk_iIN/junction0" transform="translate(94.96875, 192)" class="sprotty-junction junction" style="fill:rgb(112, 112, 112);stroke:none;"/></g><g id="sprotty_ArchitectureBlockImpl$keymgr_sideload_key/BPortImpl$rst_ni_to_ArchitectureBlockImpl$keymgr_sideload_key/AlwaysBlockImpl$null10/GPortImpl$rst_niIN" class="sprotty-edge edge" style="fill:none;stroke:rgb(112, 112, 112);stroke-linejoin:round;"><g><path d="M 0 70 L 82.96875 70 C 83.96875 70 84.96875 71 84.96875 72 L 84.96875 92 C 84.96875 93 85.96875 94 86.96875 94 L 114.96875 94 "/><path d="M 0 70 L 82.96875 70 C 83.96875 70 84.96875 71 84.96875 72 L 84.96875 92 C 84.96875 93 85.96875 94 86.96875 94 L 114.96875 94 " class="clickable"/></g></g><g id="sprotty_ArchitectureBlockImpl$keymgr_sideload_key/BPortImpl$en_i_to_ArchitectureBlockImpl$keymgr_sideload_key/AlwaysBlockImpl$null10/GPortImpl$en_iIN" class="sprotty-edge edge" style="fill:none;stroke:rgb(112, 112, 112);stroke-linejoin:round;"><g><path d="M 0 36 L 92.96875 36 C 93.96875 36 94.96875 37 94.96875 38 L 94.96875 82 C 94.96875 83 95.96875 84 96.96875 84 L 114.96875 84 "/><path d="M 0 36 L 92.96875 36 C 93.96875 36 94.96875 37 94.96875 38 L 94.96875 82 C 94.96875 83 95.96875 84 96.96875 84 L 114.96875 84 " class="clickable"/></g><circle r="2" id="sprotty_ArchitectureBlockImpl$keymgr_sideload_key/BPortImpl$en_i_to_ArchitectureBlockImpl$keymgr_sideload_key/AlwaysBlockImpl$null10/GPortImpl$en_iIN/junction0" transform="translate(94.96875, 36)" class="sprotty-junction junction" style="fill:rgb(112, 112, 112);stroke:none;"/></g><g id="sprotty_ArchitectureBlockImpl$keymgr_sideload_key/BPortImpl$clr_i_to_ArchitectureBlockImpl$keymgr_sideload_key/AlwaysBlockImpl$null10/GPortImpl$clr_iIN" class="sprotty-edge edge" style="fill:none;stroke:rgb(112, 112, 112);stroke-linejoin:round;"><g><path d="M 0 104 L 114.96875 104 "/><path d="M 0 104 L 114.96875 104 " class="clickable"/></g></g><g id="sprotty_ArchitectureBlockImpl$keymgr_sideload_key/BPortImpl$set_i_to_ArchitectureBlockImpl$keymgr_sideload_key/AlwaysBlockImpl$null10/GPortImpl$set_iIN" class="sprotty-edge edge" style="fill:none;stroke:rgb(112, 112, 112);stroke-linejoin:round;"><g><path d="M 0 158 L 82.96875 158 C 83.96875 158 84.96875 157 84.96875 156 L 84.96875 116 C 84.96875 115 85.96875 114 86.96875 114 L 114.96875 114 "/><path d="M 0 158 L 82.96875 158 C 83.96875 158 84.96875 157 84.96875 156 L 84.96875 116 C 84.96875 115 85.96875 114 86.96875 114 L 114.96875 114 " class="clickable"/></g><circle r="2" id="sprotty_ArchitectureBlockImpl$keymgr_sideload_key/BPortImpl$set_i_to_ArchitectureBlockImpl$keymgr_sideload_key/AlwaysBlockImpl$null10/GPortImpl$set_iIN/junction0" transform="translate(84.96875, 158)" class="sprotty-junction junction" style="fill:rgb(112, 112, 112);stroke:none;"/></g><g id="sprotty_ArchitectureBlockImpl$keymgr_sideload_key/BPortImpl$clk_i_to_ArchitectureBlockImpl$keymgr_sideload_key/AlwaysBlockImpl$null9/GPortImpl$clk_iIN" class="sprotty-edge edge" style="fill:none;stroke:rgb(112, 112, 112);stroke-linejoin:round;"><g><path d="M 0 192 L 114.96875 192 "/><path d="M 0 192 L 114.96875 192 " class="clickable"/></g></g><g id="sprotty_ArchitectureBlockImpl$keymgr_sideload_key/BPortImpl$clr_i_to_ArchitectureBlockImpl$keymgr_sideload_key/AlwaysBlockImpl$null9/GPortImpl$clr_iIN" class="sprotty-edge edge" style="fill:none;stroke:rgb(112, 112, 112);stroke-linejoin:round;"><g><path d="M 0 104 L 102.96875 104 C 103.96875 104 104.96875 105 104.96875 106 L 104.96875 170 C 104.96875 171 105.96875 172 106.96875 172 L 114.96875 172 "/><path d="M 0 104 L 102.96875 104 C 103.96875 104 104.96875 105 104.96875 106 L 104.96875 170 C 104.96875 171 105.96875 172 106.96875 172 L 114.96875 172 " class="clickable"/></g><circle r="2" id="sprotty_ArchitectureBlockImpl$keymgr_sideload_key/BPortImpl$clr_i_to_ArchitectureBlockImpl$keymgr_sideload_key/AlwaysBlockImpl$null9/GPortImpl$clr_iIN/junction0" transform="translate(104.96875, 104)" class="sprotty-junction junction" style="fill:rgb(112, 112, 112);stroke:none;"/></g><g id="sprotty_ArchitectureBlockImpl$keymgr_sideload_key/BPortImpl$entropy_i_to_ArchitectureBlockImpl$keymgr_sideload_key/AlwaysBlockImpl$null9/GPortImpl$entropy_iIN" class="sprotty-edge thick edge" style="fill:none;stroke:rgb(112, 112, 112);stroke-linejoin:round;stroke-width:3px;"><g><path d="M 0 226 L 82.96875 226 C 83.96875 226 84.96875 225 84.96875 224 L 84.96875 204 C 84.96875 203 85.96875 202 86.96875 202 L 114.96875 202 "/><path d="M 0 226 L 82.96875 226 C 83.96875 226 84.96875 225 84.96875 224 L 84.96875 204 C 84.96875 203 85.96875 202 86.96875 202 L 114.96875 202 " class="clickable"/></g></g><g id="sprotty_ArchitectureBlockImpl$keymgr_sideload_key/BPortImpl$set_i_to_ArchitectureBlockImpl$keymgr_sideload_key/AlwaysBlockImpl$null9/GPortImpl$set_iIN" class="sprotty-edge edge" style="fill:none;stroke:rgb(112, 112, 112);stroke-linejoin:round;"><g><path d="M 0 158 L 82.96875 158 C 83.96875 158 84.96875 159 84.96875 160 L 84.96875 180 C 84.96875 181 85.96875 182 86.96875 182 L 114.96875 182 "/><path d="M 0 158 L 82.96875 158 C 83.96875 158 84.96875 159 84.96875 160 L 84.96875 180 C 84.96875 181 85.96875 182 86.96875 182 L 114.96875 182 " class="clickable"/></g></g><g id="sprotty_ArchitectureBlockImpl$keymgr_sideload_key/AlwaysBlockImpl$null10/GPortImpl$valid_qOUT_to_ArchitectureBlockImpl$keymgr_sideload_key/AssignmentBlockImpl$key_o.valid/GPortImpl$valid_qIN" class="sprotty-edge edge" style="fill:none;stroke:rgb(112, 112, 112);stroke-linejoin:round;"><g><path d="M 163.859375 104 L 183.859375 104 "/><path d="M 163.859375 104 L 183.859375 104 " class="clickable"/></g></g><g id="sprotty_ArchitectureBlockImpl$keymgr_sideload_key/AlwaysBlockImpl$null9/GPortImpl$key_qOUT_to_ArchitectureBlockImpl$keymgr_sideload_key/AssignmentBlockImpl$key_o.key_share0/GPortImpl$key_qIN" class="sprotty-edge thick edge" style="fill:none;stroke:rgb(112, 112, 112);stroke-linejoin:round;stroke-width:3px;"><g><path d="M 163.859375 187 L 183.859375 187 "/><path d="M 163.859375 187 L 183.859375 187 " class="clickable"/></g></g><g id="sprotty_ArchitectureBlockImpl$keymgr_sideload_key/AlwaysBlockImpl$null9/GPortImpl$key_qOUT_to_ArchitectureBlockImpl$keymgr_sideload_key/AssignmentBlockImpl$key_o.key_share1/GPortImpl$key_qIN" class="sprotty-edge thick edge" style="fill:none;stroke:rgb(112, 112, 112);stroke-linejoin:round;stroke-width:3px;"><g><path d="M 163.859375 187 L 171.859375 187 C 172.859375 187 173.859375 186 173.859375 185 L 173.859375 147 C 173.859375 146 174.859375 145 175.859375 145 L 183.859375 145 "/><path d="M 163.859375 187 L 171.859375 187 C 172.859375 187 173.859375 186 173.859375 185 L 173.859375 147 C 173.859375 146 174.859375 145 175.859375 145 L 183.859375 145 " class="clickable"/></g><circle r="3" id="sprotty_ArchitectureBlockImpl$keymgr_sideload_key/AlwaysBlockImpl$null9/GPortImpl$key_qOUT_to_ArchitectureBlockImpl$keymgr_sideload_key/AssignmentBlockImpl$key_o.key_share1/GPortImpl$key_qIN/junction0" transform="translate(173.859375, 187)" class="sprotty-junction thick" style="fill:rgb(112, 112, 112);stroke:none;"/></g><g id="sprotty_ArchitectureBlockImpl$keymgr_sideload_key/AlwaysBlockImpl$null9" transform="translate(114.96875, 162)" class="statement"><rect x="0" y="0" rx="10" ry="5" width="48.890625" height="50" class="sprotty-node" style="fill:rgb(245, 245, 245);stroke:rgb(112, 112, 112);"/><text class="clickable sprotty-label statementtype" id="sprotty_ArchitectureBlockImpl$keymgr_sideload_key/AlwaysBlockImpl$null9/labeltype" transform="translate(5, 19) translate(18.828125, 9)" style="cursor:default;font-size:8px;font-weight:700;perspective-origin:0.609375px 0px;fill:rgb(112, 112, 112);text-anchor:middle;">always_ff</text><g id="sprotty_ArchitectureBlockImpl$keymgr_sideload_key/AlwaysBlockImpl$null9/GPortImpl$set_iIN" transform="translate(0, 20)" class="sprotty-hidden hidden" style="display:block;height:0px;width:0px;"/><g id="sprotty_ArchitectureBlockImpl$keymgr_sideload_key/AlwaysBlockImpl$null9/GPortImpl$entropy_iIN" transform="translate(0, 40)" class="sprotty-hidden hidden" style="display:block;height:0px;width:0px;"/><g id="sprotty_ArchitectureBlockImpl$keymgr_sideload_key/AlwaysBlockImpl$null9/GPortImpl$clr_iIN" transform="translate(0, 10)" class="sprotty-hidden hidden" style="display:block;height:0px;width:0px;"/><g id="sprotty_ArchitectureBlockImpl$keymgr_sideload_key/AlwaysBlockImpl$null9/GPortImpl$clk_iIN" transform="translate(0, 30)" class="sprotty-hidden hidden" style="display:block;height:0px;width:0px;"/><g id="sprotty_ArchitectureBlockImpl$keymgr_sideload_key/AlwaysBlockImpl$null9/GPortImpl$key_qOUT" transform="translate(48.890625, 25)" class="sprotty-hidden hidden" style="display:block;height:0px;width:0px;"/></g><g id="sprotty_ArchitectureBlockImpl$keymgr_sideload_key/AlwaysBlockImpl$null10" transform="translate(114.96875, 74)" class="statement"><rect x="0" y="0" rx="10" ry="5" width="48.890625" height="60" class="sprotty-node" style="fill:rgb(245, 245, 245);stroke:rgb(112, 112, 112);"/><text class="clickable sprotty-label statementtype" id="sprotty_ArchitectureBlockImpl$keymgr_sideload_key/AlwaysBlockImpl$null10/labeltype" transform="translate(5, 24) translate(18.828125, 9)" style="cursor:default;font-size:8px;font-weight:700;perspective-origin:0.609375px 0px;fill:rgb(112, 112, 112);text-anchor:middle;">always_ff</text><g id="sprotty_ArchitectureBlockImpl$keymgr_sideload_key/AlwaysBlockImpl$null10/GPortImpl$set_iIN" transform="translate(0, 40)" class="sprotty-hidden hidden" style="display:block;height:0px;width:0px;"/><g id="sprotty_ArchitectureBlockImpl$keymgr_sideload_key/AlwaysBlockImpl$null10/GPortImpl$clr_iIN" transform="translate(0, 30)" class="sprotty-hidden hidden" style="display:block;height:0px;width:0px;"/><g id="sprotty_ArchitectureBlockImpl$keymgr_sideload_key/AlwaysBlockImpl$null10/GPortImpl$en_iIN" transform="translate(0, 10)" class="sprotty-hidden hidden" style="display:block;height:0px;width:0px;"/><g id="sprotty_ArchitectureBlockImpl$keymgr_sideload_key/AlwaysBlockImpl$null10/GPortImpl$rst_niIN" transform="translate(0, 20)" class="sprotty-hidden hidden" style="display:block;height:0px;width:0px;"/><g id="sprotty_ArchitectureBlockImpl$keymgr_sideload_key/AlwaysBlockImpl$null10/GPortImpl$clk_iIN" transform="translate(0, 50)" class="sprotty-hidden hidden" style="display:block;height:0px;width:0px;"/><g id="sprotty_ArchitectureBlockImpl$keymgr_sideload_key/AlwaysBlockImpl$null10/GPortImpl$valid_qOUT" transform="translate(48.890625, 30)" class="sprotty-hidden hidden" style="display:block;height:0px;width:0px;"/></g><g id="sprotty_ArchitectureBlockImpl$keymgr_sideload_key/AssignmentBlockImpl$key_o.key_share1" transform="translate(183.859375, 134)" class="statement"><rect x="0" y="0" rx="10" ry="5" width="19.71875" height="22" class="sprotty-node" style="fill:rgb(245, 245, 245);stroke:rgb(112, 112, 112);"/><text class="clickable sprotty-label statementtype" id="sprotty_ArchitectureBlockImpl$keymgr_sideload_key/AssignmentBlockImpl$key_o.key_share1/labeltype" transform="translate(5, 5) translate(4.71875, 9)" style="cursor:default;font-size:8px;font-weight:700;perspective-origin:0.140625px 0px;fill:rgb(112, 112, 112);text-anchor:middle;">&lt;=</text><g id="sprotty_ArchitectureBlockImpl$keymgr_sideload_key/AssignmentBlockImpl$key_o.key_share1/GPortImpl$key_qIN" transform="translate(0, 11)" class="sprotty-hidden hidden" style="display:block;height:0px;width:0px;"/><g id="sprotty_ArchitectureBlockImpl$keymgr_sideload_key/AssignmentBlockImpl$key_o.key_share1/GPortImpl$key_oOUT" transform="translate(19.71875, 11)" class="sprotty-hidden hidden" style="display:block;height:0px;width:0px;"/></g><g id="sprotty_ArchitectureBlockImpl$keymgr_sideload_key/AssignmentBlockImpl$key_o.key_share0" transform="translate(183.859375, 176)" class="statement"><rect x="0" y="0" rx="10" ry="5" width="19.71875" height="22" class="sprotty-node" style="fill:rgb(245, 245, 245);stroke:rgb(112, 112, 112);"/><text class="clickable sprotty-label statementtype" id="sprotty_ArchitectureBlockImpl$keymgr_sideload_key/AssignmentBlockImpl$key_o.key_share0/labeltype" transform="translate(5, 5) translate(4.71875, 9)" style="cursor:default;font-size:8px;font-weight:700;perspective-origin:0.140625px 0px;fill:rgb(112, 112, 112);text-anchor:middle;">&lt;=</text><g id="sprotty_ArchitectureBlockImpl$keymgr_sideload_key/AssignmentBlockImpl$key_o.key_share0/GPortImpl$key_qIN" transform="translate(0, 11)" class="sprotty-hidden hidden" style="display:block;height:0px;width:0px;"/><g id="sprotty_ArchitectureBlockImpl$keymgr_sideload_key/AssignmentBlockImpl$key_o.key_share0/GPortImpl$key_oOUT" transform="translate(19.71875, 11)" class="sprotty-hidden hidden" style="display:block;height:0px;width:0px;"/></g><g id="sprotty_ArchitectureBlockImpl$keymgr_sideload_key/AssignmentBlockImpl$key_o.valid" transform="translate(183.859375, 84)" class="statement"><rect x="0" y="0" rx="10" ry="5" width="19.71875" height="30" class="sprotty-node" style="fill:rgb(245, 245, 245);stroke:rgb(112, 112, 112);"/><text class="clickable sprotty-label statementtype" id="sprotty_ArchitectureBlockImpl$keymgr_sideload_key/AssignmentBlockImpl$key_o.valid/labeltype" transform="translate(5, 9) translate(4.71875, 9)" style="cursor:default;font-size:8px;font-weight:700;perspective-origin:0.140625px 0px;fill:rgb(112, 112, 112);text-anchor:middle;">&lt;=</text><g id="sprotty_ArchitectureBlockImpl$keymgr_sideload_key/AssignmentBlockImpl$key_o.valid/GPortImpl$en_iIN" transform="translate(0, 10)" class="sprotty-hidden hidden" style="display:block;height:0px;width:0px;"/><g id="sprotty_ArchitectureBlockImpl$keymgr_sideload_key/AssignmentBlockImpl$key_o.valid/GPortImpl$valid_qIN" transform="translate(0, 20)" class="sprotty-hidden hidden" style="display:block;height:0px;width:0px;"/><g id="sprotty_ArchitectureBlockImpl$keymgr_sideload_key/AssignmentBlockImpl$key_o.valid/GPortImpl$key_oOUT" transform="translate(19.71875, 15)" class="sprotty-hidden hidden" style="display:block;height:0px;width:0px;"/></g><g id="sprotty_ArchitectureBlockImpl$keymgr_sideload_key/BPortImpl$key_i" transform="translate(0, 270)" class="triangle"><path d="M 0,0 L 5,2.5 L 0,5 Z" transform="translate(-1.67, -2.5)" class="sprotty-port" style="fill:rgb(48, 48, 48);stroke:rgb(48, 48, 48);"/><text class="clickable sprotty-label port" id="sprotty_ArchitectureBlockImpl$keymgr_sideload_key/BPortImpl$key_i/label" transform="translate(6, 6) translate(14.6875, 14)" style="cursor:default;font-size:12px;perspective-origin:0px 0px;fill:rgb(48, 48, 48);text-anchor:middle;">key_i</text></g><g id="sprotty_ArchitectureBlockImpl$keymgr_sideload_key/BPortImpl$entropy_i" transform="translate(0, 226)" class="triangle"><path d="M 0,0 L 5,2.5 L 0,5 Z" transform="translate(-1.67, -2.5)" class="sprotty-port" style="fill:rgb(48, 48, 48);stroke:rgb(48, 48, 48);"/><text class="clickable sprotty-label port" id="sprotty_ArchitectureBlockImpl$keymgr_sideload_key/BPortImpl$entropy_i/label" transform="translate(6, 6) translate(26.984375, 14)" style="cursor:default;font-size:12px;perspective-origin:0px 0px;fill:rgb(48, 48, 48);text-anchor:middle;">entropy_i</text></g><g id="sprotty_ArchitectureBlockImpl$keymgr_sideload_key/BPortImpl$clr_i" transform="translate(0, 104)" class="triangle"><path d="M 0,0 L 5,2.5 L 0,5 Z" transform="translate(-1.67, -2.5)" class="sprotty-port" style="fill:rgb(48, 48, 48);stroke:rgb(48, 48, 48);"/><text class="clickable sprotty-label port" id="sprotty_ArchitectureBlockImpl$keymgr_sideload_key/BPortImpl$clr_i/label" transform="translate(6, 6) translate(12.109375, 14)" style="cursor:default;font-size:12px;perspective-origin:0px 0px;fill:rgb(48, 48, 48);text-anchor:middle;">clr_i</text></g><g id="sprotty_ArchitectureBlockImpl$keymgr_sideload_key/BPortImpl$set_i" transform="translate(0, 158)" class="triangle"><path d="M 0,0 L 5,2.5 L 0,5 Z" transform="translate(-1.67, -2.5)" class="sprotty-port" style="fill:rgb(48, 48, 48);stroke:rgb(48, 48, 48);"/><text class="clickable sprotty-label port" id="sprotty_ArchitectureBlockImpl$keymgr_sideload_key/BPortImpl$set_i/label" transform="translate(6, 6) translate(13.34375, 14)" style="cursor:default;font-size:12px;perspective-origin:0px 0px;fill:rgb(48, 48, 48);text-anchor:middle;">set_i</text></g><g id="sprotty_ArchitectureBlockImpl$keymgr_sideload_key/BPortImpl$set_en_i" transform="translate(0, 314)" class="triangle"><path d="M 0,0 L 5,2.5 L 0,5 Z" transform="translate(-1.67, -2.5)" class="sprotty-port" style="fill:rgb(48, 48, 48);stroke:rgb(48, 48, 48);"/><text class="clickable sprotty-label port" id="sprotty_ArchitectureBlockImpl$keymgr_sideload_key/BPortImpl$set_en_i/label" transform="translate(6, 6) translate(23.6875, 14)" style="cursor:default;font-size:12px;perspective-origin:0px 0px;fill:rgb(48, 48, 48);text-anchor:middle;">set_en_i</text></g><g id="sprotty_ArchitectureBlockImpl$keymgr_sideload_key/BPortImpl$en_i" transform="translate(0, 36)" class="triangle"><path d="M 0,0 L 5,2.5 L 0,5 Z" transform="translate(-1.67, -2.5)" class="sprotty-port" style="fill:rgb(48, 48, 48);stroke:rgb(48, 48, 48);"/><text class="clickable sprotty-label port" id="sprotty_ArchitectureBlockImpl$keymgr_sideload_key/BPortImpl$en_i/label" transform="translate(6, 6) translate(12, 14)" style="cursor:default;font-size:12px;perspective-origin:0px 0px;fill:rgb(48, 48, 48);text-anchor:middle;">en_i</text></g><g id="sprotty_ArchitectureBlockImpl$keymgr_sideload_key/BPortImpl$rst_ni" transform="translate(0, 70)" class="triangle"><path d="M 0,0 L 5,2.5 L 0,5 Z" transform="translate(-1.67, -2.5)" class="sprotty-port" style="fill:rgb(48, 48, 48);stroke:rgb(48, 48, 48);"/><text class="clickable sprotty-label port" id="sprotty_ArchitectureBlockImpl$keymgr_sideload_key/BPortImpl$rst_ni/label" transform="translate(6, 6) translate(15.921875, 14)" style="cursor:default;font-size:12px;perspective-origin:0px 0px;fill:rgb(48, 48, 48);text-anchor:middle;">rst_ni</text></g><g id="sprotty_ArchitectureBlockImpl$keymgr_sideload_key/BPortImpl$clk_i" transform="translate(0, 192)" class="triangle"><path d="M 0,0 L 5,2.5 L 0,5 Z" transform="translate(-1.67, -2.5)" class="sprotty-port" style="fill:rgb(48, 48, 48);stroke:rgb(48, 48, 48);"/><text class="clickable sprotty-label port" id="sprotty_ArchitectureBlockImpl$keymgr_sideload_key/BPortImpl$clk_i/label" transform="translate(6, 6) translate(13.09375, 14)" style="cursor:default;font-size:12px;perspective-origin:0px 0px;fill:rgb(48, 48, 48);text-anchor:middle;">clk_i</text></g><g id="sprotty_ArchitectureBlockImpl$keymgr_sideload_key/BPortImpl$key_o" transform="translate(277.921875, 145)" class="triangle"><path d="M 0,0 L 5,2.5 L 0,5 Z" transform="translate(-1.67, -2.5)" class="sprotty-port" style="fill:rgb(48, 48, 48);stroke:rgb(48, 48, 48);"/><text class="clickable sprotty-label port" id="sprotty_ArchitectureBlockImpl$keymgr_sideload_key/BPortImpl$key_o/label" transform="translate(-39.34375, 6) translate(16.671875, 14)" style="cursor:default;font-size:12px;perspective-origin:0px 0px;fill:rgb(48, 48, 48);text-anchor:middle;">key_o</text></g></g></g></svg>