<svg xmlns="http://www.w3.org/2000/svg" id="sprotty_work.prim_usb_diff_rx" class="sprotty-graph sprotty-block-diagram blockdiagram" style="font-family:&quot;Noto Sans&quot;, Helvetica, Arial, sans-serif;perspective-origin:0px 0px;transform-origin:0px 0px;" version="1.1" viewBox="7 7 593.15625 314" width="593.15625" height="314"><g transform="scale(1) translate(0,0)"><g id="sprotty_ArchitectureBlockImpl$prim_usb_diff_rx" transform="translate(12, 12)" class="architecture"><g class="sprotty-block" style="fill:rgb(255, 255, 255);stroke:rgb(48, 48, 48);stroke-dasharray:0px;"><rect x="0" y="0" rx="1" ry="1" width="583.15625" height="304"/><text x="291.578125" y="12" class="sprotty-block-name" style="cursor:pointer;font-weight:700;perspective-origin:291.578px 0px;fill:rgb(48, 48, 48);stroke:rgba(0, 0, 0, 0);dominant-baseline:middle;text-anchor:middle;">prim_usb_diff_rx</text><line x1="0" y1="20" x2="583.15625" y2="20"/></g><g id="sprotty_ArchitectureBlockImpl$prim_usb_diff_rx/GenerateStatementBlockImpl$null8/GPortImpl$input_o_to_ArchitectureBlockImpl$prim_usb_diff_rx/BPortImpl$input_o" class="sprotty-edge edge" style="fill:none;stroke:rgb(112, 112, 112);stroke-linejoin:round;"><g><path d="M 518.28125 172 L 583.15625 172 "/><path d="M 518.28125 172 L 583.15625 172 " class="clickable"/></g></g><g id="sprotty_ArchitectureBlockImpl$prim_usb_diff_rx/BPortImpl$input_pi_to_ArchitectureBlockImpl$prim_usb_diff_rx/GenerateStatementBlockImpl$null8/GPortImpl$input_pi" class="sprotty-edge edge" style="fill:none;stroke:rgb(112, 112, 112);stroke-linejoin:round;"><g><path d="M 0 52 L 130.15625 52 C 131.15625 52 132.15625 53 132.15625 54 L 132.15625 86 C 132.15625 87 133.15625 88 134.15625 88 L 142.15625 88 "/><path d="M 0 52 L 130.15625 52 C 131.15625 52 132.15625 53 132.15625 54 L 132.15625 86 C 132.15625 87 133.15625 88 134.15625 88 L 142.15625 88 " class="clickable"/></g></g><g id="sprotty_ArchitectureBlockImpl$prim_usb_diff_rx/BPortImpl$input_ni_to_ArchitectureBlockImpl$prim_usb_diff_rx/GenerateStatementBlockImpl$null8/GPortImpl$input_ni" class="sprotty-edge edge" style="fill:none;stroke:rgb(112, 112, 112);stroke-linejoin:round;"><g><path d="M 0 86 L 120.15625 86 C 121.15625 86 122.15625 87 122.15625 88 L 122.15625 114 C 122.15625 115 123.15625 116 124.15625 116 L 142.15625 116 "/><path d="M 0 86 L 120.15625 86 C 121.15625 86 122.15625 87 122.15625 88 L 122.15625 114 C 122.15625 115 123.15625 116 124.15625 116 L 142.15625 116 " class="clickable"/></g></g><g id="sprotty_ArchitectureBlockImpl$prim_usb_diff_rx/BPortImpl$input_en_i_to_ArchitectureBlockImpl$prim_usb_diff_rx/GenerateStatementBlockImpl$null8/GPortImpl$input_en_i" class="sprotty-edge edge" style="fill:none;stroke:rgb(112, 112, 112);stroke-linejoin:round;"><g><path d="M 0 120 L 110.15625 120 C 111.15625 120 112.15625 121 112.15625 122 L 112.15625 142 C 112.15625 143 113.15625 144 114.15625 144 L 142.15625 144 "/><path d="M 0 120 L 110.15625 120 C 111.15625 120 112.15625 121 112.15625 122 L 112.15625 142 C 112.15625 143 113.15625 144 114.15625 144 L 142.15625 144 " class="clickable"/></g></g><g id="sprotty_ArchitectureBlockImpl$prim_usb_diff_rx/BPortImpl$core_pok_i_to_ArchitectureBlockImpl$prim_usb_diff_rx/GenerateStatementBlockImpl$null8/GPortImpl$core_pok_i" class="sprotty-edge edge" style="fill:none;stroke:rgb(112, 112, 112);stroke-linejoin:round;"><g><path d="M 0 154 L 110.15625 154 C 111.15625 154 112.15625 155 112.15625 156 L 112.15625 170 C 112.15625 171 113.15625 172 114.15625 172 L 142.15625 172 "/><path d="M 0 154 L 110.15625 154 C 111.15625 154 112.15625 155 112.15625 156 L 112.15625 170 C 112.15625 171 113.15625 172 114.15625 172 L 142.15625 172 " class="clickable"/></g></g><g id="sprotty_ArchitectureBlockImpl$prim_usb_diff_rx/BPortImpl$pullup_p_en_i_to_ArchitectureBlockImpl$prim_usb_diff_rx/GenerateStatementBlockImpl$null8/GPortImpl$pullup_p_en_i" class="sprotty-edge edge" style="fill:none;stroke:rgb(112, 112, 112);stroke-linejoin:round;"><g><path d="M 0 188 L 110.15625 188 C 111.15625 188 112.15625 189 112.15625 190 L 112.15625 198 C 112.15625 199 113.15625 200 114.15625 200 L 142.15625 200 "/><path d="M 0 188 L 110.15625 188 C 111.15625 188 112.15625 189 112.15625 190 L 112.15625 198 C 112.15625 199 113.15625 200 114.15625 200 L 142.15625 200 " class="clickable"/></g></g><g id="sprotty_ArchitectureBlockImpl$prim_usb_diff_rx/BPortImpl$pullup_n_en_i_to_ArchitectureBlockImpl$prim_usb_diff_rx/GenerateStatementBlockImpl$null8/GPortImpl$pullup_n_en_i" class="sprotty-edge edge" style="fill:none;stroke:rgb(112, 112, 112);stroke-linejoin:round;"><g><path d="M 0 222 L 110.15625 222 C 111.15625 222 112.15625 223 112.15625 224 L 112.15625 226 C 112.15625 227 113.15625 228 114.15625 228 L 142.15625 228 "/><path d="M 0 222 L 110.15625 222 C 111.15625 222 112.15625 223 112.15625 224 L 112.15625 226 C 112.15625 227 113.15625 228 114.15625 228 L 142.15625 228 " class="clickable"/></g></g><g id="sprotty_ArchitectureBlockImpl$prim_usb_diff_rx/BPortImpl$calibration_i_to_ArchitectureBlockImpl$prim_usb_diff_rx/GenerateStatementBlockImpl$null8/GPortImpl$calibration_i" class="sprotty-edge thick edge" style="fill:none;stroke:rgb(112, 112, 112);stroke-linejoin:round;stroke-width:3px;"><g><path d="M 0 256 L 142.15625 256 "/><path d="M 0 256 L 142.15625 256 " class="clickable"/></g></g><g id="sprotty_ArchitectureBlockImpl$prim_usb_diff_rx/GenerateStatementBlockImpl$null8" transform="translate(142.15625, 35)" class="generate"><g class="sprotty-block sprotty-block-generate" style="fill:rgb(255, 255, 255);stroke:rgb(48, 48, 48);stroke-dasharray:0px;"><rect x="0" y="0" rx="1" ry="1" width="376.125" height="254" style="stroke-dasharray:3px, 1px;"/><text x="188.0625" y="12" class="sprotty-block-name" style="cursor:pointer;font-weight:700;fill:rgb(48, 48, 48);stroke:rgba(0, 0, 0, 0);dominant-baseline:middle;text-anchor:middle;"/>undefined</g><g id="sprotty_ArchitectureBlockImpl$prim_usb_diff_rx/GenerateStatementBlockImpl$null8/InstantiationBlockImpl$u_impl_generic/BPortImpl$input_o_to_ArchitectureBlockImpl$prim_usb_diff_rx/GenerateStatementBlockImpl$null8/GPortImpl$input_o" class="sprotty-edge edge" style="fill:none;stroke:rgb(112, 112, 112);stroke-linejoin:round;"><g><path d="M 361.125 137 L 376.125 137 "/><path d="M 361.125 137 L 376.125 137 " class="clickable"/></g></g><g id="sprotty_ArchitectureBlockImpl$prim_usb_diff_rx/GenerateStatementBlockImpl$null8/GPortImpl$input_pi_to_ArchitectureBlockImpl$prim_usb_diff_rx/GenerateStatementBlockImpl$null8/InstantiationBlockImpl$u_impl_generic/BPortImpl$input_pi" class="sprotty-edge edge" style="fill:none;stroke:rgb(112, 112, 112);stroke-linejoin:round;"><g><path d="M 0 53 L 15 53 "/><path d="M 0 53 L 15 53 " class="clickable"/></g></g><g id="sprotty_ArchitectureBlockImpl$prim_usb_diff_rx/GenerateStatementBlockImpl$null8/GPortImpl$input_ni_to_ArchitectureBlockImpl$prim_usb_diff_rx/GenerateStatementBlockImpl$null8/InstantiationBlockImpl$u_impl_generic/BPortImpl$input_ni" class="sprotty-edge edge" style="fill:none;stroke:rgb(112, 112, 112);stroke-linejoin:round;"><g><path d="M 0 81 L 15 81 "/><path d="M 0 81 L 15 81 " class="clickable"/></g></g><g id="sprotty_ArchitectureBlockImpl$prim_usb_diff_rx/GenerateStatementBlockImpl$null8/GPortImpl$input_en_i_to_ArchitectureBlockImpl$prim_usb_diff_rx/GenerateStatementBlockImpl$null8/InstantiationBlockImpl$u_impl_generic/BPortImpl$input_en_i" class="sprotty-edge edge" style="fill:none;stroke:rgb(112, 112, 112);stroke-linejoin:round;"><g><path d="M 0 109 L 15 109 "/><path d="M 0 109 L 15 109 " class="clickable"/></g></g><g id="sprotty_ArchitectureBlockImpl$prim_usb_diff_rx/GenerateStatementBlockImpl$null8/GPortImpl$core_pok_i_to_ArchitectureBlockImpl$prim_usb_diff_rx/GenerateStatementBlockImpl$null8/InstantiationBlockImpl$u_impl_generic/BPortImpl$core_pok_i" class="sprotty-edge edge" style="fill:none;stroke:rgb(112, 112, 112);stroke-linejoin:round;"><g><path d="M 0 137 L 15 137 "/><path d="M 0 137 L 15 137 " class="clickable"/></g></g><g id="sprotty_ArchitectureBlockImpl$prim_usb_diff_rx/GenerateStatementBlockImpl$null8/GPortImpl$pullup_p_en_i_to_ArchitectureBlockImpl$prim_usb_diff_rx/GenerateStatementBlockImpl$null8/InstantiationBlockImpl$u_impl_generic/BPortImpl$pullup_p_en_i" class="sprotty-edge edge" style="fill:none;stroke:rgb(112, 112, 112);stroke-linejoin:round;"><g><path d="M 0 165 L 15 165 "/><path d="M 0 165 L 15 165 " class="clickable"/></g></g><g id="sprotty_ArchitectureBlockImpl$prim_usb_diff_rx/GenerateStatementBlockImpl$null8/GPortImpl$pullup_n_en_i_to_ArchitectureBlockImpl$prim_usb_diff_rx/GenerateStatementBlockImpl$null8/InstantiationBlockImpl$u_impl_generic/BPortImpl$pullup_n_en_i" class="sprotty-edge edge" style="fill:none;stroke:rgb(112, 112, 112);stroke-linejoin:round;"><g><path d="M 0 193 L 15 193 "/><path d="M 0 193 L 15 193 " class="clickable"/></g></g><g id="sprotty_ArchitectureBlockImpl$prim_usb_diff_rx/GenerateStatementBlockImpl$null8/GPortImpl$calibration_i_to_ArchitectureBlockImpl$prim_usb_diff_rx/GenerateStatementBlockImpl$null8/InstantiationBlockImpl$u_impl_generic/BPortImpl$calibration_i" class="sprotty-edge thick edge" style="fill:none;stroke:rgb(112, 112, 112);stroke-linejoin:round;stroke-width:3px;"><g><path d="M 0 221 L 15 221 "/><path d="M 0 221 L 15 221 " class="clickable"/></g></g><g id="sprotty_ArchitectureBlockImpl$prim_usb_diff_rx/GenerateStatementBlockImpl$null8/InstantiationBlockImpl$u_impl_generic" transform="translate(15, 15)" class="instantiation"><g class="sprotty-block" style="fill:rgb(255, 255, 255);stroke:rgb(48, 48, 48);stroke-dasharray:0px;"><rect x="0" y="0" rx="1" ry="1" width="346.125" height="224"/><text x="173.0625" y="12" class="sprotty-block-name" style="cursor:pointer;font-weight:700;perspective-origin:173.062px 0px;fill:rgb(48, 48, 48);stroke:rgba(0, 0, 0, 0);dominant-baseline:middle;text-anchor:middle;">u_impl_generic : prim_generic_usb_diff_rx</text><line x1="0" y1="20" x2="346.125" y2="20"/></g><g id="sprotty_ArchitectureBlockImpl$prim_usb_diff_rx/GenerateStatementBlockImpl$null8/InstantiationBlockImpl$u_impl_generic/BPortImpl$calibration_i" transform="translate(0, 206)" class="triangle"><path d="M 0,0 L 5,2.5 L 0,5 Z" transform="translate(-1.67, -2.5)" class="sprotty-port" style="fill:rgb(48, 48, 48);stroke:rgb(48, 48, 48);"/><text class="clickable sprotty-label port" id="sprotty_ArchitectureBlockImpl$prim_usb_diff_rx/GenerateStatementBlockImpl$null8/InstantiationBlockImpl$u_impl_generic/BPortImpl$calibration_i/label" transform="translate(6, -9) translate(35.125, 14)" style="cursor:default;font-size:12px;perspective-origin:0px 0px;fill:rgb(48, 48, 48);text-anchor:middle;">calibration_i</text></g><g id="sprotty_ArchitectureBlockImpl$prim_usb_diff_rx/GenerateStatementBlockImpl$null8/InstantiationBlockImpl$u_impl_generic/BPortImpl$pullup_n_en_i" transform="translate(0, 178)" class="triangle"><path d="M 0,0 L 5,2.5 L 0,5 Z" transform="translate(-1.67, -2.5)" class="sprotty-port" style="fill:rgb(48, 48, 48);stroke:rgb(48, 48, 48);"/><text class="clickable sprotty-label port" id="sprotty_ArchitectureBlockImpl$prim_usb_diff_rx/GenerateStatementBlockImpl$null8/InstantiationBlockImpl$u_impl_generic/BPortImpl$pullup_n_en_i/label" transform="translate(6, -9) translate(40.515625, 14)" style="cursor:default;font-size:12px;perspective-origin:0px 0px;fill:rgb(48, 48, 48);text-anchor:middle;">pullup_n_en_i</text></g><g id="sprotty_ArchitectureBlockImpl$prim_usb_diff_rx/GenerateStatementBlockImpl$null8/InstantiationBlockImpl$u_impl_generic/BPortImpl$pullup_p_en_i" transform="translate(0, 150)" class="triangle"><path d="M 0,0 L 5,2.5 L 0,5 Z" transform="translate(-1.67, -2.5)" class="sprotty-port" style="fill:rgb(48, 48, 48);stroke:rgb(48, 48, 48);"/><text class="clickable sprotty-label port" id="sprotty_ArchitectureBlockImpl$prim_usb_diff_rx/GenerateStatementBlockImpl$null8/InstantiationBlockImpl$u_impl_generic/BPortImpl$pullup_p_en_i/label" transform="translate(6, -9) translate(40.578125, 14)" style="cursor:default;font-size:12px;perspective-origin:0px 0px;fill:rgb(48, 48, 48);text-anchor:middle;">pullup_p_en_i</text></g><g id="sprotty_ArchitectureBlockImpl$prim_usb_diff_rx/GenerateStatementBlockImpl$null8/InstantiationBlockImpl$u_impl_generic/BPortImpl$core_pok_i" transform="translate(0, 122)" class="triangle"><path d="M 0,0 L 5,2.5 L 0,5 Z" transform="translate(-1.67, -2.5)" class="sprotty-port" style="fill:rgb(48, 48, 48);stroke:rgb(48, 48, 48);"/><text class="clickable sprotty-label port" id="sprotty_ArchitectureBlockImpl$prim_usb_diff_rx/GenerateStatementBlockImpl$null8/InstantiationBlockImpl$u_impl_generic/BPortImpl$core_pok_i/label" transform="translate(6, -9) translate(31.171875, 14)" style="cursor:default;font-size:12px;perspective-origin:0px 0px;fill:rgb(48, 48, 48);text-anchor:middle;">core_pok_i</text></g><g id="sprotty_ArchitectureBlockImpl$prim_usb_diff_rx/GenerateStatementBlockImpl$null8/InstantiationBlockImpl$u_impl_generic/BPortImpl$input_en_i" transform="translate(0, 94)" class="triangle"><path d="M 0,0 L 5,2.5 L 0,5 Z" transform="translate(-1.67, -2.5)" class="sprotty-port" style="fill:rgb(48, 48, 48);stroke:rgb(48, 48, 48);"/><text class="clickable sprotty-label port" id="sprotty_ArchitectureBlockImpl$prim_usb_diff_rx/GenerateStatementBlockImpl$null8/InstantiationBlockImpl$u_impl_generic/BPortImpl$input_en_i/label" transform="translate(6, -9) translate(30.296875, 14)" style="cursor:default;font-size:12px;perspective-origin:0px 0px;fill:rgb(48, 48, 48);text-anchor:middle;">input_en_i</text></g><g id="sprotty_ArchitectureBlockImpl$prim_usb_diff_rx/GenerateStatementBlockImpl$null8/InstantiationBlockImpl$u_impl_generic/BPortImpl$input_ni" transform="translate(0, 66)" class="triangle"><path d="M 0,0 L 5,2.5 L 0,5 Z" transform="translate(-1.67, -2.5)" class="sprotty-port" style="fill:rgb(48, 48, 48);stroke:rgb(48, 48, 48);"/><text class="clickable sprotty-label port" id="sprotty_ArchitectureBlockImpl$prim_usb_diff_rx/GenerateStatementBlockImpl$null8/InstantiationBlockImpl$u_impl_generic/BPortImpl$input_ni/label" transform="translate(6, -9) translate(23.625, 14)" style="cursor:default;font-size:12px;perspective-origin:0px 0px;fill:rgb(48, 48, 48);text-anchor:middle;">input_ni</text></g><g id="sprotty_ArchitectureBlockImpl$prim_usb_diff_rx/GenerateStatementBlockImpl$null8/InstantiationBlockImpl$u_impl_generic/BPortImpl$input_pi" transform="translate(0, 38)" class="triangle"><path d="M 0,0 L 5,2.5 L 0,5 Z" transform="translate(-1.67, -2.5)" class="sprotty-port" style="fill:rgb(48, 48, 48);stroke:rgb(48, 48, 48);"/><text class="clickable sprotty-label port" id="sprotty_ArchitectureBlockImpl$prim_usb_diff_rx/GenerateStatementBlockImpl$null8/InstantiationBlockImpl$u_impl_generic/BPortImpl$input_pi/label" transform="translate(6, -9) translate(23.671875, 14)" style="cursor:default;font-size:12px;perspective-origin:0px 0px;fill:rgb(48, 48, 48);text-anchor:middle;">input_pi</text></g><g id="sprotty_ArchitectureBlockImpl$prim_usb_diff_rx/GenerateStatementBlockImpl$null8/InstantiationBlockImpl$u_impl_generic/BPortImpl$input_o" transform="translate(346.125, 122)" class="triangle"><path d="M 0,0 L 5,2.5 L 0,5 Z" transform="translate(-1.67, -2.5)" class="sprotty-port" style="fill:rgb(48, 48, 48);stroke:rgb(48, 48, 48);"/><text class="clickable sprotty-label port" id="sprotty_ArchitectureBlockImpl$prim_usb_diff_rx/GenerateStatementBlockImpl$null8/InstantiationBlockImpl$u_impl_generic/BPortImpl$input_o/label" transform="translate(-49.875, -9) translate(21.9375, 14)" style="cursor:default;font-size:12px;perspective-origin:0px 0px;fill:rgb(48, 48, 48);text-anchor:middle;">input_o</text></g></g><g id="sprotty_ArchitectureBlockImpl$prim_usb_diff_rx/GenerateStatementBlockImpl$null8/GPortImpl$calibration_i" transform="translate(0, 221)" class="triangle"><path d="M 0,0 L 5,2.5 L 0,5 Z" transform="translate(-1.67, -2.5)" class="sprotty-port" style="fill:rgb(48, 48, 48);stroke:rgb(48, 48, 48);"/></g><g id="sprotty_ArchitectureBlockImpl$prim_usb_diff_rx/GenerateStatementBlockImpl$null8/GPortImpl$pullup_n_en_i" transform="translate(0, 193)" class="triangle"><path d="M 0,0 L 5,2.5 L 0,5 Z" transform="translate(-1.67, -2.5)" class="sprotty-port" style="fill:rgb(48, 48, 48);stroke:rgb(48, 48, 48);"/></g><g id="sprotty_ArchitectureBlockImpl$prim_usb_diff_rx/GenerateStatementBlockImpl$null8/GPortImpl$pullup_p_en_i" transform="translate(0, 165)" class="triangle"><path d="M 0,0 L 5,2.5 L 0,5 Z" transform="translate(-1.67, -2.5)" class="sprotty-port" style="fill:rgb(48, 48, 48);stroke:rgb(48, 48, 48);"/></g><g id="sprotty_ArchitectureBlockImpl$prim_usb_diff_rx/GenerateStatementBlockImpl$null8/GPortImpl$core_pok_i" transform="translate(0, 137)" class="triangle"><path d="M 0,0 L 5,2.5 L 0,5 Z" transform="translate(-1.67, -2.5)" class="sprotty-port" style="fill:rgb(48, 48, 48);stroke:rgb(48, 48, 48);"/></g><g id="sprotty_ArchitectureBlockImpl$prim_usb_diff_rx/GenerateStatementBlockImpl$null8/GPortImpl$input_en_i" transform="translate(0, 109)" class="triangle"><path d="M 0,0 L 5,2.5 L 0,5 Z" transform="translate(-1.67, -2.5)" class="sprotty-port" style="fill:rgb(48, 48, 48);stroke:rgb(48, 48, 48);"/></g><g id="sprotty_ArchitectureBlockImpl$prim_usb_diff_rx/GenerateStatementBlockImpl$null8/GPortImpl$input_ni" transform="translate(0, 81)" class="triangle"><path d="M 0,0 L 5,2.5 L 0,5 Z" transform="translate(-1.67, -2.5)" class="sprotty-port" style="fill:rgb(48, 48, 48);stroke:rgb(48, 48, 48);"/></g><g id="sprotty_ArchitectureBlockImpl$prim_usb_diff_rx/GenerateStatementBlockImpl$null8/GPortImpl$input_pi" transform="translate(0, 53)" class="triangle"><path d="M 0,0 L 5,2.5 L 0,5 Z" transform="translate(-1.67, -2.5)" class="sprotty-port" style="fill:rgb(48, 48, 48);stroke:rgb(48, 48, 48);"/></g><g id="sprotty_ArchitectureBlockImpl$prim_usb_diff_rx/GenerateStatementBlockImpl$null8/GPortImpl$input_o" transform="translate(376.125, 137)" class="triangle"><path d="M 0,0 L 5,2.5 L 0,5 Z" transform="translate(-1.67, -2.5)" class="sprotty-port" style="fill:rgb(48, 48, 48);stroke:rgb(48, 48, 48);"/></g></g><g id="sprotty_ArchitectureBlockImpl$prim_usb_diff_rx/BPortImpl$calibration_i" transform="translate(0, 256)" class="triangle"><path d="M 0,0 L 5,2.5 L 0,5 Z" transform="translate(-1.67, -2.5)" class="sprotty-port" style="fill:rgb(48, 48, 48);stroke:rgb(48, 48, 48);"/><text class="clickable sprotty-label port" id="sprotty_ArchitectureBlockImpl$prim_usb_diff_rx/BPortImpl$calibration_i/label" transform="translate(6, 6) translate(35.125, 14)" style="cursor:default;font-size:12px;perspective-origin:0px 0px;fill:rgb(48, 48, 48);text-anchor:middle;">calibration_i</text></g><g id="sprotty_ArchitectureBlockImpl$prim_usb_diff_rx/BPortImpl$pullup_n_en_i" transform="translate(0, 222)" class="triangle"><path d="M 0,0 L 5,2.5 L 0,5 Z" transform="translate(-1.67, -2.5)" class="sprotty-port" style="fill:rgb(48, 48, 48);stroke:rgb(48, 48, 48);"/><text class="clickable sprotty-label port" id="sprotty_ArchitectureBlockImpl$prim_usb_diff_rx/BPortImpl$pullup_n_en_i/label" transform="translate(6, 6) translate(40.515625, 14)" style="cursor:default;font-size:12px;perspective-origin:0px 0px;fill:rgb(48, 48, 48);text-anchor:middle;">pullup_n_en_i</text></g><g id="sprotty_ArchitectureBlockImpl$prim_usb_diff_rx/BPortImpl$pullup_p_en_i" transform="translate(0, 188)" class="triangle"><path d="M 0,0 L 5,2.5 L 0,5 Z" transform="translate(-1.67, -2.5)" class="sprotty-port" style="fill:rgb(48, 48, 48);stroke:rgb(48, 48, 48);"/><text class="clickable sprotty-label port" id="sprotty_ArchitectureBlockImpl$prim_usb_diff_rx/BPortImpl$pullup_p_en_i/label" transform="translate(6, 6) translate(40.578125, 14)" style="cursor:default;font-size:12px;perspective-origin:0px 0px;fill:rgb(48, 48, 48);text-anchor:middle;">pullup_p_en_i</text></g><g id="sprotty_ArchitectureBlockImpl$prim_usb_diff_rx/BPortImpl$core_pok_i" transform="translate(0, 154)" class="triangle"><path d="M 0,0 L 5,2.5 L 0,5 Z" transform="translate(-1.67, -2.5)" class="sprotty-port" style="fill:rgb(48, 48, 48);stroke:rgb(48, 48, 48);"/><text class="clickable sprotty-label port" id="sprotty_ArchitectureBlockImpl$prim_usb_diff_rx/BPortImpl$core_pok_i/label" transform="translate(6, 6) translate(31.171875, 14)" style="cursor:default;font-size:12px;perspective-origin:0px 0px;fill:rgb(48, 48, 48);text-anchor:middle;">core_pok_i</text></g><g id="sprotty_ArchitectureBlockImpl$prim_usb_diff_rx/BPortImpl$input_en_i" transform="translate(0, 120)" class="triangle"><path d="M 0,0 L 5,2.5 L 0,5 Z" transform="translate(-1.67, -2.5)" class="sprotty-port" style="fill:rgb(48, 48, 48);stroke:rgb(48, 48, 48);"/><text class="clickable sprotty-label port" id="sprotty_ArchitectureBlockImpl$prim_usb_diff_rx/BPortImpl$input_en_i/label" transform="translate(6, 6) translate(30.296875, 14)" style="cursor:default;font-size:12px;perspective-origin:0px 0px;fill:rgb(48, 48, 48);text-anchor:middle;">input_en_i</text></g><g id="sprotty_ArchitectureBlockImpl$prim_usb_diff_rx/BPortImpl$input_ni" transform="translate(0, 86)" class="triangle"><path d="M 0,0 L 5,2.5 L 0,5 Z" transform="translate(-1.67, -2.5)" class="sprotty-port" style="fill:rgb(48, 48, 48);stroke:rgb(48, 48, 48);"/><text class="clickable sprotty-label port" id="sprotty_ArchitectureBlockImpl$prim_usb_diff_rx/BPortImpl$input_ni/label" transform="translate(6, 6) translate(23.625, 14)" style="cursor:default;font-size:12px;perspective-origin:0px 0px;fill:rgb(48, 48, 48);text-anchor:middle;">input_ni</text></g><g id="sprotty_ArchitectureBlockImpl$prim_usb_diff_rx/BPortImpl$input_pi" transform="translate(0, 52)" class="triangle"><path d="M 0,0 L 5,2.5 L 0,5 Z" transform="translate(-1.67, -2.5)" class="sprotty-port" style="fill:rgb(48, 48, 48);stroke:rgb(48, 48, 48);"/><text class="clickable sprotty-label port" id="sprotty_ArchitectureBlockImpl$prim_usb_diff_rx/BPortImpl$input_pi/label" transform="translate(6, 6) translate(23.671875, 14)" style="cursor:default;font-size:12px;perspective-origin:0px 0px;fill:rgb(48, 48, 48);text-anchor:middle;">input_pi</text></g><g id="sprotty_ArchitectureBlockImpl$prim_usb_diff_rx/BPortImpl$input_o" transform="translate(583.15625, 172)" class="triangle"><path d="M 0,0 L 5,2.5 L 0,5 Z" transform="translate(-1.67, -2.5)" class="sprotty-port" style="fill:rgb(48, 48, 48);stroke:rgb(48, 48, 48);"/><text class="clickable sprotty-label port" id="sprotty_ArchitectureBlockImpl$prim_usb_diff_rx/BPortImpl$input_o/label" transform="translate(-49.875, 6) translate(21.9375, 14)" style="cursor:default;font-size:12px;perspective-origin:0px 0px;fill:rgb(48, 48, 48);text-anchor:middle;">input_o</text></g></g></g></svg>