<svg xmlns="http://www.w3.org/2000/svg" id="sprotty_work.entropy_src_adaptp_ht" class="sprotty-graph sprotty-block-diagram blockdiagram" style="font-family:&quot;Noto Sans&quot;, Helvetica, Arial, sans-serif;perspective-origin:0px 0px;transform-origin:0px 0px;" version="1.1" viewBox="7 7 450.390625 464" width="450.390625" height="464"><g transform="scale(1) translate(0,0)"><g id="sprotty_ArchitectureBlockImpl$entropy_src_adaptp_ht" transform="translate(12, 12)" class="architecture"><g class="sprotty-block" style="fill:rgb(255, 255, 255);stroke:rgb(48, 48, 48);stroke-dasharray:0px;"><rect x="0" y="0" rx="1" ry="1" width="440.390625" height="454"/><text x="220.1953125" y="12" class="sprotty-block-name" style="cursor:pointer;font-weight:700;perspective-origin:220.328px 0px;fill:rgb(48, 48, 48);stroke:rgba(0, 0, 0, 0);dominant-baseline:middle;text-anchor:middle;">entropy_src_adaptp_ht</text><line x1="0" y1="20" x2="440.390625" y2="20"/></g><g id="sprotty_ArchitectureBlockImpl$entropy_src_adaptp_ht/AssignmentBlockImpl$test_cnt_o/GPortImpl$test_cnt_oOUT_to_ArchitectureBlockImpl$entropy_src_adaptp_ht/BPortImpl$test_cnt_o" class="sprotty-edge thick edge" style="fill:none;stroke:rgb(112, 112, 112);stroke-linejoin:round;stroke-width:3px;"><g><path d="M 286.171875 215 L 440.390625 215 "/><path d="M 286.171875 215 L 440.390625 215 " class="clickable"/></g></g><g id="sprotty_ArchitectureBlockImpl$entropy_src_adaptp_ht/AssignmentBlockImpl$test_fail_hi_pulse_o/GPortImpl$test_fail_hi_pulse_oOUT_to_ArchitectureBlockImpl$entropy_src_adaptp_ht/BPortImpl$test_fail_hi_pulse_o" class="sprotty-edge edge" style="fill:none;stroke:rgb(112, 112, 112);stroke-linejoin:round;"><g><path d="M 286.171875 142 L 440.390625 142 "/><path d="M 286.171875 142 L 440.390625 142 " class="clickable"/></g></g><g id="sprotty_ArchitectureBlockImpl$entropy_src_adaptp_ht/AssignmentBlockImpl$test_fail_lo_pulse_o/GPortImpl$test_fail_lo_pulse_oOUT_to_ArchitectureBlockImpl$entropy_src_adaptp_ht/BPortImpl$test_fail_lo_pulse_o" class="sprotty-edge edge" style="fill:none;stroke:rgb(112, 112, 112);stroke-linejoin:round;"><g><path d="M 286.171875 60 L 440.390625 60 "/><path d="M 286.171875 60 L 440.390625 60 " class="clickable"/></g></g><g id="sprotty_ArchitectureBlockImpl$entropy_src_adaptp_ht/BPortImpl$entropy_bit_i_to_ArchitectureBlockImpl$entropy_src_adaptp_ht/AssignmentBlockImpl$column_cnt/GPortImpl$entropy_bit_iIN" class="sprotty-edge thick edge" style="fill:none;stroke:rgb(112, 112, 112);stroke-linejoin:round;stroke-width:3px;"><g><path d="M 0 347 L 182.1484375 347 "/><path d="M 0 347 L 182.1484375 347 " class="clickable"/></g></g><g id="sprotty_ArchitectureBlockImpl$entropy_src_adaptp_ht/BPortImpl$active_i_to_ArchitectureBlockImpl$entropy_src_adaptp_ht/AssignmentBlockImpl$test_cnt_d/GPortImpl$active_iIN" class="sprotty-edge edge" style="fill:none;stroke:rgb(112, 112, 112);stroke-linejoin:round;"><g><path d="M 0 113 L 224.453125 113 C 225.453125 113 226.453125 114 226.453125 115 L 226.453125 254 C 226.453125 255 227.453125 256 228.453125 256 L 266.453125 256 "/><path d="M 0 113 L 224.453125 113 C 225.453125 113 226.453125 114 226.453125 115 L 226.453125 254 C 226.453125 255 227.453125 256 228.453125 256 L 266.453125 256 " class="clickable"/></g></g><g id="sprotty_ArchitectureBlockImpl$entropy_src_adaptp_ht/BPortImpl$clear_i_to_ArchitectureBlockImpl$entropy_src_adaptp_ht/AssignmentBlockImpl$test_cnt_d/GPortImpl$clear_iIN" class="sprotty-edge edge" style="fill:none;stroke:rgb(112, 112, 112);stroke-linejoin:round;"><g><path d="M 0 415 L 244.453125 415 C 245.453125 415 246.453125 414 246.453125 413 L 246.453125 308 C 246.453125 307 247.453125 306 248.453125 306 L 266.453125 306 "/><path d="M 0 415 L 244.453125 415 C 245.453125 415 246.453125 414 246.453125 413 L 246.453125 308 C 246.453125 307 247.453125 306 248.453125 306 L 266.453125 306 " class="clickable"/></g></g><g id="sprotty_ArchitectureBlockImpl$entropy_src_adaptp_ht/BPortImpl$window_wrap_pulse_i_to_ArchitectureBlockImpl$entropy_src_adaptp_ht/AssignmentBlockImpl$test_cnt_d/GPortImpl$window_wrap_pulse_iIN" class="sprotty-edge edge" style="fill:none;stroke:rgb(112, 112, 112);stroke-linejoin:round;"><g><path d="M 0 147 L 234.453125 147 C 235.453125 147 236.453125 148 236.453125 149 L 236.453125 264 C 236.453125 265 237.453125 266 238.453125 266 L 266.453125 266 "/><path d="M 0 147 L 234.453125 147 C 235.453125 147 236.453125 148 236.453125 149 L 236.453125 264 C 236.453125 265 237.453125 266 238.453125 266 L 266.453125 266 " class="clickable"/></g></g><g id="sprotty_ArchitectureBlockImpl$entropy_src_adaptp_ht/BPortImpl$entropy_bit_vld_i_to_ArchitectureBlockImpl$entropy_src_adaptp_ht/AssignmentBlockImpl$test_cnt_d/GPortImpl$entropy_bit_vld_iIN" class="sprotty-edge edge" style="fill:none;stroke:rgb(112, 112, 112);stroke-linejoin:round;"><g><path d="M 0 381 L 234.453125 381 C 235.453125 381 236.453125 380 236.453125 379 L 236.453125 298 C 236.453125 297 237.453125 296 238.453125 296 L 266.453125 296 "/><path d="M 0 381 L 234.453125 381 C 235.453125 381 236.453125 380 236.453125 379 L 236.453125 298 C 236.453125 297 237.453125 296 238.453125 296 L 266.453125 296 " class="clickable"/></g></g><g id="sprotty_ArchitectureBlockImpl$entropy_src_adaptp_ht/BPortImpl$active_i_to_ArchitectureBlockImpl$entropy_src_adaptp_ht/AssignmentBlockImpl$test_fail_hi_pulse_o/GPortImpl$active_iIN" class="sprotty-edge edge" style="fill:none;stroke:rgb(112, 112, 112);stroke-linejoin:round;"><g><path d="M 0 113 L 224.453125 113 C 225.453125 113 226.453125 114 226.453125 115 L 226.453125 135 C 226.453125 136 227.453125 137 228.453125 137 L 266.453125 137 "/><path d="M 0 113 L 224.453125 113 C 225.453125 113 226.453125 114 226.453125 115 L 226.453125 135 C 226.453125 136 227.453125 137 228.453125 137 L 266.453125 137 " class="clickable"/></g><circle r="2" id="sprotty_ArchitectureBlockImpl$entropy_src_adaptp_ht/BPortImpl$active_i_to_ArchitectureBlockImpl$entropy_src_adaptp_ht/AssignmentBlockImpl$test_fail_hi_pulse_o/GPortImpl$active_iIN/junction0" transform="translate(226.453125, 137)" class="sprotty-junction junction" style="fill:rgb(112, 112, 112);stroke:none;"/></g><g id="sprotty_ArchitectureBlockImpl$entropy_src_adaptp_ht/BPortImpl$window_wrap_pulse_i_to_ArchitectureBlockImpl$entropy_src_adaptp_ht/AssignmentBlockImpl$test_fail_hi_pulse_o/GPortImpl$window_wrap_pulse_iIN" class="sprotty-edge edge" style="fill:none;stroke:rgb(112, 112, 112);stroke-linejoin:round;"><g><path d="M 0 147 L 266.453125 147 "/><path d="M 0 147 L 266.453125 147 " class="clickable"/></g></g><g id="sprotty_ArchitectureBlockImpl$entropy_src_adaptp_ht/BPortImpl$thresh_hi_i_to_ArchitectureBlockImpl$entropy_src_adaptp_ht/AssignmentBlockImpl$test_fail_hi_pulse_o/GPortImpl$thresh_hi_iIN" class="sprotty-edge thick edge" style="fill:none;stroke:rgb(112, 112, 112);stroke-linejoin:round;stroke-width:3px;"><g><path d="M 0 79 L 244.453125 79 C 245.453125 79 246.453125 80 246.453125 81 L 246.453125 125 C 246.453125 126 247.453125 127 248.453125 127 L 266.453125 127 "/><path d="M 0 79 L 244.453125 79 C 245.453125 79 246.453125 80 246.453125 81 L 246.453125 125 C 246.453125 126 247.453125 127 248.453125 127 L 266.453125 127 " class="clickable"/></g></g><g id="sprotty_ArchitectureBlockImpl$entropy_src_adaptp_ht/BPortImpl$active_i_to_ArchitectureBlockImpl$entropy_src_adaptp_ht/AssignmentBlockImpl$test_fail_lo_pulse_o/GPortImpl$active_iIN" class="sprotty-edge edge" style="fill:none;stroke:rgb(112, 112, 112);stroke-linejoin:round;"><g><path d="M 0 113 L 224.453125 113 C 225.453125 113 226.453125 112 226.453125 111 L 226.453125 57 C 226.453125 56 227.453125 55 228.453125 55 L 266.453125 55 "/><path d="M 0 113 L 224.453125 113 C 225.453125 113 226.453125 112 226.453125 111 L 226.453125 57 C 226.453125 56 227.453125 55 228.453125 55 L 266.453125 55 " class="clickable"/></g><circle r="2" id="sprotty_ArchitectureBlockImpl$entropy_src_adaptp_ht/BPortImpl$active_i_to_ArchitectureBlockImpl$entropy_src_adaptp_ht/AssignmentBlockImpl$test_fail_lo_pulse_o/GPortImpl$active_iIN/junction0" transform="translate(226.453125, 113)" class="sprotty-junction junction" style="fill:rgb(112, 112, 112);stroke:none;"/></g><g id="sprotty_ArchitectureBlockImpl$entropy_src_adaptp_ht/BPortImpl$window_wrap_pulse_i_to_ArchitectureBlockImpl$entropy_src_adaptp_ht/AssignmentBlockImpl$test_fail_lo_pulse_o/GPortImpl$window_wrap_pulse_iIN" class="sprotty-edge edge" style="fill:none;stroke:rgb(112, 112, 112);stroke-linejoin:round;"><g><path d="M 0 147 L 234.453125 147 C 235.453125 147 236.453125 146 236.453125 145 L 236.453125 67 C 236.453125 66 237.453125 65 238.453125 65 L 266.453125 65 "/><path d="M 0 147 L 234.453125 147 C 235.453125 147 236.453125 146 236.453125 145 L 236.453125 67 C 236.453125 66 237.453125 65 238.453125 65 L 266.453125 65 " class="clickable"/></g><circle r="2" id="sprotty_ArchitectureBlockImpl$entropy_src_adaptp_ht/BPortImpl$window_wrap_pulse_i_to_ArchitectureBlockImpl$entropy_src_adaptp_ht/AssignmentBlockImpl$test_fail_lo_pulse_o/GPortImpl$window_wrap_pulse_iIN/junction0" transform="translate(236.453125, 147)" class="sprotty-junction junction" style="fill:rgb(112, 112, 112);stroke:none;"/></g><g id="sprotty_ArchitectureBlockImpl$entropy_src_adaptp_ht/BPortImpl$thresh_lo_i_to_ArchitectureBlockImpl$entropy_src_adaptp_ht/AssignmentBlockImpl$test_fail_lo_pulse_o/GPortImpl$thresh_lo_iIN" class="sprotty-edge thick edge" style="fill:none;stroke:rgb(112, 112, 112);stroke-linejoin:round;stroke-width:3px;"><g><path d="M 0 45 L 266.453125 45 "/><path d="M 0 45 L 266.453125 45 " class="clickable"/></g></g><g id="sprotty_ArchitectureBlockImpl$entropy_src_adaptp_ht/BPortImpl$clk_i_to_ArchitectureBlockImpl$entropy_src_adaptp_ht/AlwaysBlockImpl$null12/GPortImpl$clk_iIN" class="sprotty-edge edge" style="fill:none;stroke:rgb(112, 112, 112);stroke-linejoin:round;"><g><path d="M 0 215 L 167.5625 215 "/><path d="M 0 215 L 167.5625 215 " class="clickable"/></g></g><g id="sprotty_ArchitectureBlockImpl$entropy_src_adaptp_ht/BPortImpl$rst_ni_to_ArchitectureBlockImpl$entropy_src_adaptp_ht/AlwaysBlockImpl$null12/GPortImpl$rst_niIN" class="sprotty-edge edge" style="fill:none;stroke:rgb(112, 112, 112);stroke-linejoin:round;"><g><path d="M 0 181 L 155.5625 181 C 156.5625 181 157.5625 182 157.5625 183 L 157.5625 203 C 157.5625 204 158.5625 205 159.5625 205 L 167.5625 205 "/><path d="M 0 181 L 155.5625 181 C 156.5625 181 157.5625 182 157.5625 183 L 157.5625 203 C 157.5625 204 158.5625 205 159.5625 205 L 167.5625 205 " class="clickable"/></g></g><g id="sprotty_ArchitectureBlockImpl$entropy_src_adaptp_ht/AssignmentBlockImpl$column_cnt/GPortImpl$column_cntOUT_to_ArchitectureBlockImpl$entropy_src_adaptp_ht/AssignmentBlockImpl$test_cnt_d/GPortImpl$column_cntIN" class="sprotty-edge thick edge" style="fill:none;stroke:rgb(112, 112, 112);stroke-linejoin:round;stroke-width:3px;"><g><path d="M 201.8671875 347 L 224.453125 347 C 225.453125 347 226.453125 346 226.453125 345 L 226.453125 288 C 226.453125 287 227.453125 286 228.453125 286 L 266.453125 286 "/><path d="M 201.8671875 347 L 224.453125 347 C 225.453125 347 226.453125 346 226.453125 345 L 226.453125 288 C 226.453125 287 227.453125 286 228.453125 286 L 266.453125 286 " class="clickable"/></g></g><g id="sprotty_ArchitectureBlockImpl$entropy_src_adaptp_ht/AlwaysBlockImpl$null12/GPortImpl$test_cnt_qOUT_to_ArchitectureBlockImpl$entropy_src_adaptp_ht/AssignmentBlockImpl$test_cnt_d/GPortImpl$test_cnt_qIN" class="sprotty-edge thick edge" style="fill:none;stroke:rgb(112, 112, 112);stroke-linejoin:round;stroke-width:3px;"><g><path d="M 216.453125 215 L 254.453125 215 C 255.453125 215 256.453125 216 256.453125 217 L 256.453125 274 C 256.453125 275 257.453125 276 258.453125 276 L 266.453125 276 "/><path d="M 216.453125 215 L 254.453125 215 C 255.453125 215 256.453125 216 256.453125 217 L 256.453125 274 C 256.453125 275 257.453125 276 258.453125 276 L 266.453125 276 " class="clickable"/></g><circle r="3" id="sprotty_ArchitectureBlockImpl$entropy_src_adaptp_ht/AlwaysBlockImpl$null12/GPortImpl$test_cnt_qOUT_to_ArchitectureBlockImpl$entropy_src_adaptp_ht/AssignmentBlockImpl$test_cnt_d/GPortImpl$test_cnt_qIN/junction0" transform="translate(256.453125, 215)" class="sprotty-junction thick" style="fill:rgb(112, 112, 112);stroke:none;"/></g><g id="sprotty_ArchitectureBlockImpl$entropy_src_adaptp_ht/AlwaysBlockImpl$null12/GPortImpl$test_cnt_qOUT_to_ArchitectureBlockImpl$entropy_src_adaptp_ht/AssignmentBlockImpl$test_fail_hi_pulse_o/GPortImpl$test_cnt_qIN" class="sprotty-edge thick edge" style="fill:none;stroke:rgb(112, 112, 112);stroke-linejoin:round;stroke-width:3px;"><g><path d="M 216.453125 215 L 254.453125 215 C 255.453125 215 256.453125 214 256.453125 213 L 256.453125 159 C 256.453125 158 257.453125 157 258.453125 157 L 266.453125 157 "/><path d="M 216.453125 215 L 254.453125 215 C 255.453125 215 256.453125 214 256.453125 213 L 256.453125 159 C 256.453125 158 257.453125 157 258.453125 157 L 266.453125 157 " class="clickable"/></g><circle r="3" id="sprotty_ArchitectureBlockImpl$entropy_src_adaptp_ht/AlwaysBlockImpl$null12/GPortImpl$test_cnt_qOUT_to_ArchitectureBlockImpl$entropy_src_adaptp_ht/AssignmentBlockImpl$test_fail_hi_pulse_o/GPortImpl$test_cnt_qIN/junction0" transform="translate(256.453125, 157)" class="sprotty-junction thick" style="fill:rgb(112, 112, 112);stroke:none;"/></g><g id="sprotty_ArchitectureBlockImpl$entropy_src_adaptp_ht/AlwaysBlockImpl$null12/GPortImpl$test_cnt_qOUT_to_ArchitectureBlockImpl$entropy_src_adaptp_ht/AssignmentBlockImpl$test_fail_lo_pulse_o/GPortImpl$test_cnt_qIN" class="sprotty-edge thick edge" style="fill:none;stroke:rgb(112, 112, 112);stroke-linejoin:round;stroke-width:3px;"><g><path d="M 216.453125 215 L 254.453125 215 C 255.453125 215 256.453125 214 256.453125 213 L 256.453125 77 C 256.453125 76 257.453125 75 258.453125 75 L 266.453125 75 "/><path d="M 216.453125 215 L 254.453125 215 C 255.453125 215 256.453125 214 256.453125 213 L 256.453125 77 C 256.453125 76 257.453125 75 258.453125 75 L 266.453125 75 " class="clickable"/></g></g><g id="sprotty_ArchitectureBlockImpl$entropy_src_adaptp_ht/AlwaysBlockImpl$null12/GPortImpl$test_cnt_qOUT_to_ArchitectureBlockImpl$entropy_src_adaptp_ht/AssignmentBlockImpl$test_cnt_o/GPortImpl$test_cnt_qIN" class="sprotty-edge thick edge" style="fill:none;stroke:rgb(112, 112, 112);stroke-linejoin:round;stroke-width:3px;"><g><path d="M 216.453125 215 L 266.453125 215 "/><path d="M 216.453125 215 L 266.453125 215 " class="clickable"/></g></g><g id="sprotty_ArchitectureBlockImpl$entropy_src_adaptp_ht/AssignmentBlockImpl$test_cnt_d/GPortImpl$test_cnt_qOUT_to_ArchitectureBlockImpl$entropy_src_adaptp_ht/AlwaysBlockImpl$null12/GPortImpl$test_cnt_dIN" class="sprotty-edge thick edge" style="fill:none;stroke:rgb(112, 112, 112);stroke-linejoin:round;stroke-width:3px;"><g><path d="M 286.171875 281 L 294.171875 281 C 295.171875 281 296.171875 282 296.171875 283 L 296.171875 324 C 296.171875 325 295.171875 326 294.171875 326 L 159.5625 326 C 158.5625 326 157.5625 325 157.5625 324 L 157.5625 227 C 157.5625 226 158.5625 225 159.5625 225 L 167.5625 225 "/><path d="M 286.171875 281 L 294.171875 281 C 295.171875 281 296.171875 282 296.171875 283 L 296.171875 324 C 296.171875 325 295.171875 326 294.171875 326 L 159.5625 326 C 158.5625 326 157.5625 325 157.5625 324 L 157.5625 227 C 157.5625 226 158.5625 225 159.5625 225 L 167.5625 225 " class="clickable"/></g></g><g id="sprotty_ArchitectureBlockImpl$entropy_src_adaptp_ht/AlwaysBlockImpl$null12" transform="translate(167.5625, 195)" class="statement"><rect x="0" y="0" rx="10" ry="5" width="48.890625" height="40" class="sprotty-node" style="fill:rgb(245, 245, 245);stroke:rgb(112, 112, 112);"/><text class="clickable sprotty-label statementtype" id="sprotty_ArchitectureBlockImpl$entropy_src_adaptp_ht/AlwaysBlockImpl$null12/labeltype" transform="translate(5, 14) translate(18.828125, 9)" style="cursor:default;font-size:8px;font-weight:700;perspective-origin:0.609375px 0px;fill:rgb(112, 112, 112);text-anchor:middle;">always_ff</text><g id="sprotty_ArchitectureBlockImpl$entropy_src_adaptp_ht/AlwaysBlockImpl$null12/GPortImpl$test_cnt_dIN" transform="translate(0, 30)" class="sprotty-hidden hidden" style="display:block;height:0px;width:0px;"/><g id="sprotty_ArchitectureBlockImpl$entropy_src_adaptp_ht/AlwaysBlockImpl$null12/GPortImpl$rst_niIN" transform="translate(0, 10)" class="sprotty-hidden hidden" style="display:block;height:0px;width:0px;"/><g id="sprotty_ArchitectureBlockImpl$entropy_src_adaptp_ht/AlwaysBlockImpl$null12/GPortImpl$clk_iIN" transform="translate(0, 20)" class="sprotty-hidden hidden" style="display:block;height:0px;width:0px;"/><g id="sprotty_ArchitectureBlockImpl$entropy_src_adaptp_ht/AlwaysBlockImpl$null12/GPortImpl$test_cnt_qOUT" transform="translate(48.890625, 20)" class="sprotty-hidden hidden" style="display:block;height:0px;width:0px;"/></g><g id="sprotty_ArchitectureBlockImpl$entropy_src_adaptp_ht/AssignmentBlockImpl$test_cnt_o" transform="translate(266.453125, 204)" class="statement"><rect x="0" y="0" rx="10" ry="5" width="19.71875" height="22" class="sprotty-node" style="fill:rgb(245, 245, 245);stroke:rgb(112, 112, 112);"/><text class="clickable sprotty-label statementtype" id="sprotty_ArchitectureBlockImpl$entropy_src_adaptp_ht/AssignmentBlockImpl$test_cnt_o/labeltype" transform="translate(5, 5) translate(4.71875, 9)" style="cursor:default;font-size:8px;font-weight:700;perspective-origin:0.140625px 0px;fill:rgb(112, 112, 112);text-anchor:middle;">&lt;=</text><g id="sprotty_ArchitectureBlockImpl$entropy_src_adaptp_ht/AssignmentBlockImpl$test_cnt_o/GPortImpl$test_cnt_qIN" transform="translate(0, 11)" class="sprotty-hidden hidden" style="display:block;height:0px;width:0px;"/><g id="sprotty_ArchitectureBlockImpl$entropy_src_adaptp_ht/AssignmentBlockImpl$test_cnt_o/GPortImpl$test_cnt_oOUT" transform="translate(19.71875, 11)" class="sprotty-hidden hidden" style="display:block;height:0px;width:0px;"/></g><g id="sprotty_ArchitectureBlockImpl$entropy_src_adaptp_ht/AssignmentBlockImpl$test_fail_lo_pulse_o" transform="translate(266.453125, 35)" class="statement"><rect x="0" y="0" rx="10" ry="5" width="19.71875" height="50" class="sprotty-node" style="fill:rgb(245, 245, 245);stroke:rgb(112, 112, 112);"/><text class="clickable sprotty-label statementtype" id="sprotty_ArchitectureBlockImpl$entropy_src_adaptp_ht/AssignmentBlockImpl$test_fail_lo_pulse_o/labeltype" transform="translate(5, 19) translate(4.71875, 9)" style="cursor:default;font-size:8px;font-weight:700;perspective-origin:0.140625px 0px;fill:rgb(112, 112, 112);text-anchor:middle;">&lt;=</text><g id="sprotty_ArchitectureBlockImpl$entropy_src_adaptp_ht/AssignmentBlockImpl$test_fail_lo_pulse_o/GPortImpl$thresh_lo_iIN" transform="translate(0, 10)" class="sprotty-hidden hidden" style="display:block;height:0px;width:0px;"/><g id="sprotty_ArchitectureBlockImpl$entropy_src_adaptp_ht/AssignmentBlockImpl$test_fail_lo_pulse_o/GPortImpl$test_cnt_qIN" transform="translate(0, 40)" class="sprotty-hidden hidden" style="display:block;height:0px;width:0px;"/><g id="sprotty_ArchitectureBlockImpl$entropy_src_adaptp_ht/AssignmentBlockImpl$test_fail_lo_pulse_o/GPortImpl$window_wrap_pulse_iIN" transform="translate(0, 30)" class="sprotty-hidden hidden" style="display:block;height:0px;width:0px;"/><g id="sprotty_ArchitectureBlockImpl$entropy_src_adaptp_ht/AssignmentBlockImpl$test_fail_lo_pulse_o/GPortImpl$active_iIN" transform="translate(0, 20)" class="sprotty-hidden hidden" style="display:block;height:0px;width:0px;"/><g id="sprotty_ArchitectureBlockImpl$entropy_src_adaptp_ht/AssignmentBlockImpl$test_fail_lo_pulse_o/GPortImpl$test_fail_lo_pulse_oOUT" transform="translate(19.71875, 25)" class="sprotty-hidden hidden" style="display:block;height:0px;width:0px;"/></g><g id="sprotty_ArchitectureBlockImpl$entropy_src_adaptp_ht/AssignmentBlockImpl$test_fail_hi_pulse_o" transform="translate(266.453125, 117)" class="statement"><rect x="0" y="0" rx="10" ry="5" width="19.71875" height="50" class="sprotty-node" style="fill:rgb(245, 245, 245);stroke:rgb(112, 112, 112);"/><text class="clickable sprotty-label statementtype" id="sprotty_ArchitectureBlockImpl$entropy_src_adaptp_ht/AssignmentBlockImpl$test_fail_hi_pulse_o/labeltype" transform="translate(5, 19) translate(4.71875, 9)" style="cursor:default;font-size:8px;font-weight:700;perspective-origin:0.140625px 0px;fill:rgb(112, 112, 112);text-anchor:middle;">&lt;=</text><g id="sprotty_ArchitectureBlockImpl$entropy_src_adaptp_ht/AssignmentBlockImpl$test_fail_hi_pulse_o/GPortImpl$thresh_hi_iIN" transform="translate(0, 10)" class="sprotty-hidden hidden" style="display:block;height:0px;width:0px;"/><g id="sprotty_ArchitectureBlockImpl$entropy_src_adaptp_ht/AssignmentBlockImpl$test_fail_hi_pulse_o/GPortImpl$test_cnt_qIN" transform="translate(0, 40)" class="sprotty-hidden hidden" style="display:block;height:0px;width:0px;"/><g id="sprotty_ArchitectureBlockImpl$entropy_src_adaptp_ht/AssignmentBlockImpl$test_fail_hi_pulse_o/GPortImpl$window_wrap_pulse_iIN" transform="translate(0, 30)" class="sprotty-hidden hidden" style="display:block;height:0px;width:0px;"/><g id="sprotty_ArchitectureBlockImpl$entropy_src_adaptp_ht/AssignmentBlockImpl$test_fail_hi_pulse_o/GPortImpl$active_iIN" transform="translate(0, 20)" class="sprotty-hidden hidden" style="display:block;height:0px;width:0px;"/><g id="sprotty_ArchitectureBlockImpl$entropy_src_adaptp_ht/AssignmentBlockImpl$test_fail_hi_pulse_o/GPortImpl$test_fail_hi_pulse_oOUT" transform="translate(19.71875, 25)" class="sprotty-hidden hidden" style="display:block;height:0px;width:0px;"/></g><g id="sprotty_ArchitectureBlockImpl$entropy_src_adaptp_ht/AssignmentBlockImpl$test_cnt_d" transform="translate(266.453125, 246)" class="statement"><rect x="0" y="0" rx="10" ry="5" width="19.71875" height="70" class="sprotty-node" style="fill:rgb(245, 245, 245);stroke:rgb(112, 112, 112);"/><text class="clickable sprotty-label statementtype" id="sprotty_ArchitectureBlockImpl$entropy_src_adaptp_ht/AssignmentBlockImpl$test_cnt_d/labeltype" transform="translate(5, 29) translate(4.71875, 9)" style="cursor:default;font-size:8px;font-weight:700;perspective-origin:0.140625px 0px;fill:rgb(112, 112, 112);text-anchor:middle;">&lt;=</text><g id="sprotty_ArchitectureBlockImpl$entropy_src_adaptp_ht/AssignmentBlockImpl$test_cnt_d/GPortImpl$column_cntIN" transform="translate(0, 40)" class="sprotty-hidden hidden" style="display:block;height:0px;width:0px;"/><g id="sprotty_ArchitectureBlockImpl$entropy_src_adaptp_ht/AssignmentBlockImpl$test_cnt_d/GPortImpl$test_cnt_qIN" transform="translate(0, 30)" class="sprotty-hidden hidden" style="display:block;height:0px;width:0px;"/><g id="sprotty_ArchitectureBlockImpl$entropy_src_adaptp_ht/AssignmentBlockImpl$test_cnt_d/GPortImpl$entropy_bit_vld_iIN" transform="translate(0, 50)" class="sprotty-hidden hidden" style="display:block;height:0px;width:0px;"/><g id="sprotty_ArchitectureBlockImpl$entropy_src_adaptp_ht/AssignmentBlockImpl$test_cnt_d/GPortImpl$window_wrap_pulse_iIN" transform="translate(0, 20)" class="sprotty-hidden hidden" style="display:block;height:0px;width:0px;"/><g id="sprotty_ArchitectureBlockImpl$entropy_src_adaptp_ht/AssignmentBlockImpl$test_cnt_d/GPortImpl$clear_iIN" transform="translate(0, 60)" class="sprotty-hidden hidden" style="display:block;height:0px;width:0px;"/><g id="sprotty_ArchitectureBlockImpl$entropy_src_adaptp_ht/AssignmentBlockImpl$test_cnt_d/GPortImpl$active_iIN" transform="translate(0, 10)" class="sprotty-hidden hidden" style="display:block;height:0px;width:0px;"/><g id="sprotty_ArchitectureBlockImpl$entropy_src_adaptp_ht/AssignmentBlockImpl$test_cnt_d/GPortImpl$test_cnt_qOUT" transform="translate(19.71875, 35)" class="sprotty-hidden hidden" style="display:block;height:0px;width:0px;"/></g><g id="sprotty_ArchitectureBlockImpl$entropy_src_adaptp_ht/AssignmentBlockImpl$column_cnt" transform="translate(182.1484375, 336)" class="statement"><rect x="0" y="0" rx="10" ry="5" width="19.71875" height="22" class="sprotty-node" style="fill:rgb(245, 245, 245);stroke:rgb(112, 112, 112);"/><text class="clickable sprotty-label statementtype" id="sprotty_ArchitectureBlockImpl$entropy_src_adaptp_ht/AssignmentBlockImpl$column_cnt/labeltype" transform="translate(5, 5) translate(4.71875, 9)" style="cursor:default;font-size:8px;font-weight:700;perspective-origin:0.140625px 0px;fill:rgb(112, 112, 112);text-anchor:middle;">&lt;=</text><g id="sprotty_ArchitectureBlockImpl$entropy_src_adaptp_ht/AssignmentBlockImpl$column_cnt/GPortImpl$entropy_bit_iIN" transform="translate(0, 11)" class="sprotty-hidden hidden" style="display:block;height:0px;width:0px;"/><g id="sprotty_ArchitectureBlockImpl$entropy_src_adaptp_ht/AssignmentBlockImpl$column_cnt/GPortImpl$column_cntOUT" transform="translate(19.71875, 11)" class="sprotty-hidden hidden" style="display:block;height:0px;width:0px;"/></g><g id="sprotty_ArchitectureBlockImpl$entropy_src_adaptp_ht/BPortImpl$window_wrap_pulse_i" transform="translate(0, 147)" class="triangle"><path d="M 0,0 L 5,2.5 L 0,5 Z" transform="translate(-1.67, -2.5)" class="sprotty-port" style="fill:rgb(48, 48, 48);stroke:rgb(48, 48, 48);"/><text class="clickable sprotty-label port" id="sprotty_ArchitectureBlockImpl$entropy_src_adaptp_ht/BPortImpl$window_wrap_pulse_i/label" transform="translate(6, 6) translate(63.28125, 14)" style="cursor:default;font-size:12px;perspective-origin:0px 0px;fill:rgb(48, 48, 48);text-anchor:middle;">window_wrap_pulse_i</text></g><g id="sprotty_ArchitectureBlockImpl$entropy_src_adaptp_ht/BPortImpl$thresh_lo_i" transform="translate(0, 45)" class="triangle"><path d="M 0,0 L 5,2.5 L 0,5 Z" transform="translate(-1.67, -2.5)" class="sprotty-port" style="fill:rgb(48, 48, 48);stroke:rgb(48, 48, 48);"/><text class="clickable sprotty-label port" id="sprotty_ArchitectureBlockImpl$entropy_src_adaptp_ht/BPortImpl$thresh_lo_i/label" transform="translate(6, 6) translate(31.65625, 14)" style="cursor:default;font-size:12px;perspective-origin:0px 0px;fill:rgb(48, 48, 48);text-anchor:middle;">thresh_lo_i</text></g><g id="sprotty_ArchitectureBlockImpl$entropy_src_adaptp_ht/BPortImpl$thresh_hi_i" transform="translate(0, 79)" class="triangle"><path d="M 0,0 L 5,2.5 L 0,5 Z" transform="translate(-1.67, -2.5)" class="sprotty-port" style="fill:rgb(48, 48, 48);stroke:rgb(48, 48, 48);"/><text class="clickable sprotty-label port" id="sprotty_ArchitectureBlockImpl$entropy_src_adaptp_ht/BPortImpl$thresh_hi_i/label" transform="translate(6, 6) translate(31.59375, 14)" style="cursor:default;font-size:12px;perspective-origin:0px 0px;fill:rgb(48, 48, 48);text-anchor:middle;">thresh_hi_i</text></g><g id="sprotty_ArchitectureBlockImpl$entropy_src_adaptp_ht/BPortImpl$active_i" transform="translate(0, 113)" class="triangle"><path d="M 0,0 L 5,2.5 L 0,5 Z" transform="translate(-1.67, -2.5)" class="sprotty-port" style="fill:rgb(48, 48, 48);stroke:rgb(48, 48, 48);"/><text class="clickable sprotty-label port" id="sprotty_ArchitectureBlockImpl$entropy_src_adaptp_ht/BPortImpl$active_i/label" transform="translate(6, 6) translate(21.71875, 14)" style="cursor:default;font-size:12px;perspective-origin:0px 0px;fill:rgb(48, 48, 48);text-anchor:middle;">active_i</text></g><g id="sprotty_ArchitectureBlockImpl$entropy_src_adaptp_ht/BPortImpl$clear_i" transform="translate(0, 415)" class="triangle"><path d="M 0,0 L 5,2.5 L 0,5 Z" transform="translate(-1.67, -2.5)" class="sprotty-port" style="fill:rgb(48, 48, 48);stroke:rgb(48, 48, 48);"/><text class="clickable sprotty-label port" id="sprotty_ArchitectureBlockImpl$entropy_src_adaptp_ht/BPortImpl$clear_i/label" transform="translate(6, 6) translate(18.71875, 14)" style="cursor:default;font-size:12px;perspective-origin:0px 0px;fill:rgb(48, 48, 48);text-anchor:middle;">clear_i</text></g><g id="sprotty_ArchitectureBlockImpl$entropy_src_adaptp_ht/BPortImpl$entropy_bit_vld_i" transform="translate(0, 381)" class="triangle"><path d="M 0,0 L 5,2.5 L 0,5 Z" transform="translate(-1.67, -2.5)" class="sprotty-port" style="fill:rgb(48, 48, 48);stroke:rgb(48, 48, 48);"/><text class="clickable sprotty-label port" id="sprotty_ArchitectureBlockImpl$entropy_src_adaptp_ht/BPortImpl$entropy_bit_vld_i/label" transform="translate(6, 6) translate(49.875, 14)" style="cursor:default;font-size:12px;perspective-origin:0px 0px;fill:rgb(48, 48, 48);text-anchor:middle;">entropy_bit_vld_i</text></g><g id="sprotty_ArchitectureBlockImpl$entropy_src_adaptp_ht/BPortImpl$entropy_bit_i" transform="translate(0, 347)" class="triangle"><path d="M 0,0 L 5,2.5 L 0,5 Z" transform="translate(-1.67, -2.5)" class="sprotty-port" style="fill:rgb(48, 48, 48);stroke:rgb(48, 48, 48);"/><text class="clickable sprotty-label port" id="sprotty_ArchitectureBlockImpl$entropy_src_adaptp_ht/BPortImpl$entropy_bit_i/label" transform="translate(6, 6) translate(37.953125, 14)" style="cursor:default;font-size:12px;perspective-origin:0px 0px;fill:rgb(48, 48, 48);text-anchor:middle;">entropy_bit_i</text></g><g id="sprotty_ArchitectureBlockImpl$entropy_src_adaptp_ht/BPortImpl$rst_ni" transform="translate(0, 181)" class="triangle"><path d="M 0,0 L 5,2.5 L 0,5 Z" transform="translate(-1.67, -2.5)" class="sprotty-port" style="fill:rgb(48, 48, 48);stroke:rgb(48, 48, 48);"/><text class="clickable sprotty-label port" id="sprotty_ArchitectureBlockImpl$entropy_src_adaptp_ht/BPortImpl$rst_ni/label" transform="translate(6, 6) translate(15.921875, 14)" style="cursor:default;font-size:12px;perspective-origin:0px 0px;fill:rgb(48, 48, 48);text-anchor:middle;">rst_ni</text></g><g id="sprotty_ArchitectureBlockImpl$entropy_src_adaptp_ht/BPortImpl$clk_i" transform="translate(0, 215)" class="triangle"><path d="M 0,0 L 5,2.5 L 0,5 Z" transform="translate(-1.67, -2.5)" class="sprotty-port" style="fill:rgb(48, 48, 48);stroke:rgb(48, 48, 48);"/><text class="clickable sprotty-label port" id="sprotty_ArchitectureBlockImpl$entropy_src_adaptp_ht/BPortImpl$clk_i/label" transform="translate(6, 6) translate(13.09375, 14)" style="cursor:default;font-size:12px;perspective-origin:0px 0px;fill:rgb(48, 48, 48);text-anchor:middle;">clk_i</text></g><g id="sprotty_ArchitectureBlockImpl$entropy_src_adaptp_ht/BPortImpl$test_cnt_o" transform="translate(440.390625, 215)" class="triangle"><path d="M 0,0 L 5,2.5 L 0,5 Z" transform="translate(-1.67, -2.5)" class="sprotty-port" style="fill:rgb(48, 48, 48);stroke:rgb(48, 48, 48);"/><text class="clickable sprotty-label port" id="sprotty_ArchitectureBlockImpl$entropy_src_adaptp_ht/BPortImpl$test_cnt_o/label" transform="translate(-65.53125, 6) translate(29.765625, 14)" style="cursor:default;font-size:12px;perspective-origin:0px 0px;fill:rgb(48, 48, 48);text-anchor:middle;">test_cnt_o</text></g><g id="sprotty_ArchitectureBlockImpl$entropy_src_adaptp_ht/BPortImpl$test_fail_hi_pulse_o" transform="translate(440.390625, 142)" class="triangle"><path d="M 0,0 L 5,2.5 L 0,5 Z" transform="translate(-1.67, -2.5)" class="sprotty-port" style="fill:rgb(48, 48, 48);stroke:rgb(48, 48, 48);"/><text class="clickable sprotty-label port" id="sprotty_ArchitectureBlockImpl$entropy_src_adaptp_ht/BPortImpl$test_fail_hi_pulse_o/label" transform="translate(-119.09375, 6) translate(56.546875, 14)" style="cursor:default;font-size:12px;perspective-origin:0px 0px;fill:rgb(48, 48, 48);text-anchor:middle;">test_fail_hi_pulse_o</text></g><g id="sprotty_ArchitectureBlockImpl$entropy_src_adaptp_ht/BPortImpl$test_fail_lo_pulse_o" transform="translate(440.390625, 60)" class="triangle"><path d="M 0,0 L 5,2.5 L 0,5 Z" transform="translate(-1.67, -2.5)" class="sprotty-port" style="fill:rgb(48, 48, 48);stroke:rgb(48, 48, 48);"/><text class="clickable sprotty-label port" id="sprotty_ArchitectureBlockImpl$entropy_src_adaptp_ht/BPortImpl$test_fail_lo_pulse_o/label" transform="translate(-119.21875, 6) translate(56.609375, 14)" style="cursor:default;font-size:12px;perspective-origin:0px 0px;fill:rgb(48, 48, 48);text-anchor:middle;">test_fail_lo_pulse_o</text></g></g></g></svg>