<svg xmlns="http://www.w3.org/2000/svg" id="sprotty_work.usbdev_aon_wake" class="sprotty-graph sprotty-block-diagram blockdiagram" style="font-family:&quot;Noto Sans&quot;, Helvetica, Arial, sans-serif;perspective-origin:0px 0px;transform-origin:0px 0px;" version="1.1" viewBox="7 7 967.6875 526" width="967.6875" height="526"><g transform="scale(1) translate(0,0)"><g id="sprotty_ArchitectureBlockImpl$usbdev_aon_wake" transform="translate(12, 12)" class="architecture"><g class="sprotty-block" style="fill:rgb(255, 255, 255);stroke:rgb(48, 48, 48);stroke-dasharray:0px;"><rect x="0" y="0" rx="1" ry="1" width="957.6875" height="516"/><text x="478.84375" y="12" class="sprotty-block-name" style="cursor:pointer;font-weight:700;perspective-origin:478.844px 0px;fill:rgb(48, 48, 48);stroke:rgba(0, 0, 0, 0);dominant-baseline:middle;text-anchor:middle;">usbdev_aon_wake</text><line x1="0" y1="20" x2="957.6875" y2="20"/></g><g id="sprotty_ArchitectureBlockImpl$usbdev_aon_wake/AssignmentBlockImpl$wake_req_alw_o/GPortImpl$wake_req_alw_oOUT_to_ArchitectureBlockImpl$usbdev_aon_wake/BPortImpl$wake_req_alw_o" class="sprotty-edge edge" style="fill:none;stroke:rgb(112, 112, 112);stroke-linejoin:round;"><g><path d="M 841.5625 58 L 957.6875 58 "/><path d="M 841.5625 58 L 957.6875 58 " class="clickable"/></g></g><g id="sprotty_ArchitectureBlockImpl$usbdev_aon_wake/AssignmentBlockImpl$state_debug_o/GPortImpl$state_debug_oOUT_to_ArchitectureBlockImpl$usbdev_aon_wake/BPortImpl$state_debug_o" class="sprotty-edge thick edge" style="fill:none;stroke:rgb(112, 112, 112);stroke-linejoin:round;stroke-width:3px;"><g><path d="M 841.5625 100 L 957.6875 100 "/><path d="M 841.5625 100 L 957.6875 100 " class="clickable"/></g></g><g id="sprotty_ArchitectureBlockImpl$usbdev_aon_wake/BPortImpl$clk_aon_i_to_ArchitectureBlockImpl$usbdev_aon_wake/InstantiationBlockImpl$cdc_trigger/BPortImpl$clk_i" class="sprotty-edge edge" style="fill:none;stroke:rgb(112, 112, 112);stroke-linejoin:round;"><g><path d="M 0 92 L 249.5 92 C 250.5 92 251.5 93 251.5 94 L 251.5 266 C 251.5 267 252.5 268 253.5 268 L 261.5 268 "/><path d="M 0 92 L 249.5 92 C 250.5 92 251.5 93 251.5 94 L 251.5 266 C 251.5 267 252.5 268 253.5 268 L 261.5 268 " class="clickable"/></g></g><g id="sprotty_ArchitectureBlockImpl$usbdev_aon_wake/BPortImpl$rst_aon_ni_to_ArchitectureBlockImpl$usbdev_aon_wake/InstantiationBlockImpl$cdc_trigger/BPortImpl$rst_ni" class="sprotty-edge edge" style="fill:none;stroke:rgb(112, 112, 112);stroke-linejoin:round;"><g><path d="M 0 136 L 239.5 136 C 240.5 136 241.5 137 241.5 138 L 241.5 294 C 241.5 295 242.5 296 243.5 296 L 261.5 296 "/><path d="M 0 136 L 239.5 136 C 240.5 136 241.5 137 241.5 138 L 241.5 294 C 241.5 295 242.5 296 243.5 296 L 261.5 296 " class="clickable"/></g></g><g id="sprotty_ArchitectureBlockImpl$usbdev_aon_wake/BPortImpl$clk_aon_i_to_ArchitectureBlockImpl$usbdev_aon_wake/InstantiationBlockImpl$filter_activity/BPortImpl$clk_i" class="sprotty-edge edge" style="fill:none;stroke:rgb(112, 112, 112);stroke-linejoin:round;"><g><path d="M 0 92 L 249.5 92 C 250.5 92 251.5 93 251.5 94 L 251.5 106 C 251.5 107 252.5 108 253.5 108 L 268.73046875 108 "/><path d="M 0 92 L 249.5 92 C 250.5 92 251.5 93 251.5 94 L 251.5 106 C 251.5 107 252.5 108 253.5 108 L 268.73046875 108 " class="clickable"/></g><circle r="2" id="sprotty_ArchitectureBlockImpl$usbdev_aon_wake/BPortImpl$clk_aon_i_to_ArchitectureBlockImpl$usbdev_aon_wake/InstantiationBlockImpl$filter_activity/BPortImpl$clk_i/junction0" transform="translate(251.5, 108)" class="sprotty-junction junction" style="fill:rgb(112, 112, 112);stroke:none;"/></g><g id="sprotty_ArchitectureBlockImpl$usbdev_aon_wake/BPortImpl$rst_aon_ni_to_ArchitectureBlockImpl$usbdev_aon_wake/InstantiationBlockImpl$filter_activity/BPortImpl$rst_ni" class="sprotty-edge edge" style="fill:none;stroke:rgb(112, 112, 112);stroke-linejoin:round;"><g><path d="M 0 136 L 268.73046875 136 "/><path d="M 0 136 L 268.73046875 136 " class="clickable"/></g></g><g id="sprotty_ArchitectureBlockImpl$usbdev_aon_wake/BPortImpl$usb_aon_wake_en_upwr_i_to_ArchitectureBlockImpl$usbdev_aon_wake/AssignmentBlockImpl$trigger_async/GPortImpl$usb_aon_wake_en_upwr_iIN" class="sprotty-edge edge" style="fill:none;stroke:rgb(112, 112, 112);stroke-linejoin:round;"><g><path d="M 0 443 L 211.78125 443 "/><path d="M 0 443 L 211.78125 443 " class="clickable"/></g></g><g id="sprotty_ArchitectureBlockImpl$usbdev_aon_wake/BPortImpl$usb_suspended_upwr_i_to_ArchitectureBlockImpl$usbdev_aon_wake/AssignmentBlockImpl$trigger_async/GPortImpl$usb_suspended_upwr_iIN" class="sprotty-edge edge" style="fill:none;stroke:rgb(112, 112, 112);stroke-linejoin:round;"><g><path d="M 0 477 L 179.78125 477 C 180.78125 477 181.78125 476 181.78125 475 L 181.78125 455 C 181.78125 454 182.78125 453 183.78125 453 L 211.78125 453 "/><path d="M 0 477 L 179.78125 477 C 180.78125 477 181.78125 476 181.78125 475 L 181.78125 455 C 181.78125 454 182.78125 453 183.78125 453 L 211.78125 453 " class="clickable"/></g></g><g id="sprotty_ArchitectureBlockImpl$usbdev_aon_wake/BPortImpl$usb_out_of_rst_alw_i_to_ArchitectureBlockImpl$usbdev_aon_wake/AssignmentBlockImpl$trigger_async/GPortImpl$usb_out_of_rst_alw_iIN" class="sprotty-edge edge" style="fill:none;stroke:rgb(112, 112, 112);stroke-linejoin:round;"><g><path d="M 0 375 L 189.78125 375 C 190.78125 375 191.78125 376 191.78125 377 L 191.78125 431 C 191.78125 432 192.78125 433 193.78125 433 L 211.78125 433 "/><path d="M 0 375 L 189.78125 375 C 190.78125 375 191.78125 376 191.78125 377 L 191.78125 431 C 191.78125 432 192.78125 433 193.78125 433 L 211.78125 433 " class="clickable"/></g><circle r="2" id="sprotty_ArchitectureBlockImpl$usbdev_aon_wake/BPortImpl$usb_out_of_rst_alw_i_to_ArchitectureBlockImpl$usbdev_aon_wake/AssignmentBlockImpl$trigger_async/GPortImpl$usb_out_of_rst_alw_iIN/junction0" transform="translate(191.78125, 375)" class="sprotty-junction junction" style="fill:rgb(112, 112, 112);stroke:none;"/></g><g id="sprotty_ArchitectureBlockImpl$usbdev_aon_wake/BPortImpl$usb_aon_woken_upwr_i_to_ArchitectureBlockImpl$usbdev_aon_wake/AssignmentBlockImpl$wake_ack_async/GPortImpl$usb_aon_woken_upwr_iIN" class="sprotty-edge edge" style="fill:none;stroke:rgb(112, 112, 112);stroke-linejoin:round;"><g><path d="M 0 409 L 179.78125 409 C 180.78125 409 181.78125 408 181.78125 407 L 181.78125 387 C 181.78125 386 182.78125 385 183.78125 385 L 211.78125 385 "/><path d="M 0 409 L 179.78125 409 C 180.78125 409 181.78125 408 181.78125 407 L 181.78125 387 C 181.78125 386 182.78125 385 183.78125 385 L 211.78125 385 " class="clickable"/></g></g><g id="sprotty_ArchitectureBlockImpl$usbdev_aon_wake/BPortImpl$usb_out_of_rst_alw_i_to_ArchitectureBlockImpl$usbdev_aon_wake/AssignmentBlockImpl$wake_ack_async/GPortImpl$usb_out_of_rst_alw_iIN" class="sprotty-edge edge" style="fill:none;stroke:rgb(112, 112, 112);stroke-linejoin:round;"><g><path d="M 0 375 L 211.78125 375 "/><path d="M 0 375 L 211.78125 375 " class="clickable"/></g></g><g id="sprotty_ArchitectureBlockImpl$usbdev_aon_wake/BPortImpl$usb_dp_async_alw_i_to_ArchitectureBlockImpl$usbdev_aon_wake/AssignmentBlockImpl$notidle_async/GPortImpl$usb_dp_async_alw_iIN" class="sprotty-edge edge" style="fill:none;stroke:rgb(112, 112, 112);stroke-linejoin:round;"><g><path d="M 0 177 L 211.78125 177 "/><path d="M 0 177 L 211.78125 177 " class="clickable"/></g></g><g id="sprotty_ArchitectureBlockImpl$usbdev_aon_wake/BPortImpl$usb_dppullup_en_alw_i_to_ArchitectureBlockImpl$usbdev_aon_wake/AssignmentBlockImpl$notidle_async/GPortImpl$usb_dppullup_en_alw_iIN" class="sprotty-edge edge" style="fill:none;stroke:rgb(112, 112, 112);stroke-linejoin:round;"><g><path d="M 0 279 L 199.78125 279 C 200.78125 279 201.78125 278 201.78125 277 L 201.78125 209 C 201.78125 208 202.78125 207 203.78125 207 L 211.78125 207 "/><path d="M 0 279 L 199.78125 279 C 200.78125 279 201.78125 278 201.78125 277 L 201.78125 209 C 201.78125 208 202.78125 207 203.78125 207 L 211.78125 207 " class="clickable"/></g></g><g id="sprotty_ArchitectureBlockImpl$usbdev_aon_wake/BPortImpl$usb_dn_async_alw_i_to_ArchitectureBlockImpl$usbdev_aon_wake/AssignmentBlockImpl$notidle_async/GPortImpl$usb_dn_async_alw_iIN" class="sprotty-edge edge" style="fill:none;stroke:rgb(112, 112, 112);stroke-linejoin:round;"><g><path d="M 0 245 L 189.78125 245 C 190.78125 245 191.78125 244 191.78125 243 L 191.78125 199 C 191.78125 198 192.78125 197 193.78125 197 L 211.78125 197 "/><path d="M 0 245 L 189.78125 245 C 190.78125 245 191.78125 244 191.78125 243 L 191.78125 199 C 191.78125 198 192.78125 197 193.78125 197 L 211.78125 197 " class="clickable"/></g></g><g id="sprotty_ArchitectureBlockImpl$usbdev_aon_wake/BPortImpl$usb_dnpullup_en_alw_i_to_ArchitectureBlockImpl$usbdev_aon_wake/AssignmentBlockImpl$notidle_async/GPortImpl$usb_dnpullup_en_alw_iIN" class="sprotty-edge edge" style="fill:none;stroke:rgb(112, 112, 112);stroke-linejoin:round;"><g><path d="M 0 211 L 179.78125 211 C 180.78125 211 181.78125 210 181.78125 209 L 181.78125 189 C 181.78125 188 182.78125 187 183.78125 187 L 211.78125 187 "/><path d="M 0 211 L 179.78125 211 C 180.78125 211 181.78125 210 181.78125 209 L 181.78125 189 C 181.78125 188 182.78125 187 183.78125 187 L 211.78125 187 " class="clickable"/></g></g><g id="sprotty_ArchitectureBlockImpl$usbdev_aon_wake/BPortImpl$usb_out_of_rst_alw_i_to_ArchitectureBlockImpl$usbdev_aon_wake/AlwaysBlockImpl$proc_awk_fsm/GPortImpl$usb_out_of_rst_alw_iIN" class="sprotty-edge edge" style="fill:none;stroke:rgb(112, 112, 112);stroke-linejoin:round;"><g><path d="M 0 375 L 189.78125 375 C 190.78125 375 191.78125 374 191.78125 373 L 191.78125 355 C 191.78125 354 192.78125 353 193.78125 353 L 521.625 353 C 522.625 353 523.625 352 523.625 351 L 523.625 172 C 523.625 171 524.625 170 525.625 170 L 533.625 170 "/><path d="M 0 375 L 189.78125 375 C 190.78125 375 191.78125 374 191.78125 373 L 191.78125 355 C 191.78125 354 192.78125 353 193.78125 353 L 521.625 353 C 522.625 353 523.625 352 523.625 351 L 523.625 172 C 523.625 171 524.625 170 525.625 170 L 533.625 170 " class="clickable"/></g></g><g id="sprotty_ArchitectureBlockImpl$usbdev_aon_wake/BPortImpl$clk_aon_i_to_ArchitectureBlockImpl$usbdev_aon_wake/AlwaysBlockImpl$proc_reg_awk/GPortImpl$clk_aon_iIN" class="sprotty-edge edge" style="fill:none;stroke:rgb(112, 112, 112);stroke-linejoin:round;"><g><path d="M 0 92 L 249.5 92 C 250.5 92 251.5 91 251.5 90 L 251.5 48.5 C 251.5 47.5 252.5 46.5 253.5 46.5 L 679.4375 46.5 "/><path d="M 0 92 L 249.5 92 C 250.5 92 251.5 91 251.5 90 L 251.5 48.5 C 251.5 47.5 252.5 46.5 253.5 46.5 L 679.4375 46.5 " class="clickable"/></g><circle r="2" id="sprotty_ArchitectureBlockImpl$usbdev_aon_wake/BPortImpl$clk_aon_i_to_ArchitectureBlockImpl$usbdev_aon_wake/AlwaysBlockImpl$proc_reg_awk/GPortImpl$clk_aon_iIN/junction0" transform="translate(251.5, 92)" class="sprotty-junction junction" style="fill:rgb(112, 112, 112);stroke:none;"/></g><g id="sprotty_ArchitectureBlockImpl$usbdev_aon_wake/BPortImpl$rst_aon_ni_to_ArchitectureBlockImpl$usbdev_aon_wake/AlwaysBlockImpl$proc_reg_awk/GPortImpl$rst_aon_niIN" class="sprotty-edge edge" style="fill:none;stroke:rgb(112, 112, 112);stroke-linejoin:round;"><g><path d="M 0 136 L 239.5 136 C 240.5 136 241.5 135 241.5 134 L 241.5 60 C 241.5 59 242.5 58 243.5 58 L 679.4375 58 "/><path d="M 0 136 L 239.5 136 C 240.5 136 241.5 135 241.5 134 L 241.5 60 C 241.5 59 242.5 58 243.5 58 L 679.4375 58 " class="clickable"/></g><circle r="2" id="sprotty_ArchitectureBlockImpl$usbdev_aon_wake/BPortImpl$rst_aon_ni_to_ArchitectureBlockImpl$usbdev_aon_wake/AlwaysBlockImpl$proc_reg_awk/GPortImpl$rst_aon_niIN/junction0" transform="translate(241.5, 136)" class="sprotty-junction junction" style="fill:rgb(112, 112, 112);stroke:none;"/></g><g id="sprotty_ArchitectureBlockImpl$usbdev_aon_wake/AlwaysBlockImpl$proc_awk_fsm/GPortImpl$astate_dOUT_to_ArchitectureBlockImpl$usbdev_aon_wake/AlwaysBlockImpl$proc_reg_awk/GPortImpl$astate_dIN" class="sprotty-edge thick edge" style="fill:none;stroke:rgb(112, 112, 112);stroke-linejoin:round;stroke-width:3px;"><g><path d="M 659.4375 155 L 667.4375 155 C 668.4375 155 669.4375 154 669.4375 153 L 669.4375 71.5 C 669.4375 70.5 670.4375 69.5 671.4375 69.5 L 679.4375 69.5 "/><path d="M 659.4375 155 L 667.4375 155 C 668.4375 155 669.4375 154 669.4375 153 L 669.4375 71.5 C 669.4375 70.5 670.4375 69.5 671.4375 69.5 L 679.4375 69.5 " class="clickable"/></g></g><g id="sprotty_ArchitectureBlockImpl$usbdev_aon_wake/AlwaysBlockImpl$proc_reg_awk/GPortImpl$astate_qOUT_to_ArchitectureBlockImpl$usbdev_aon_wake/AssignmentBlockImpl$wake_req_alw_o/GPortImpl$astate_qIN" class="sprotty-edge thick edge" style="fill:none;stroke:rgb(112, 112, 112);stroke-linejoin:round;stroke-width:3px;"><g><path d="M 801.84375 58 L 821.84375 58 "/><path d="M 801.84375 58 L 821.84375 58 " class="clickable"/></g></g><g id="sprotty_ArchitectureBlockImpl$usbdev_aon_wake/AlwaysBlockImpl$proc_reg_awk/GPortImpl$astate_qOUT_to_ArchitectureBlockImpl$usbdev_aon_wake/AssignmentBlockImpl$state_debug_o/GPortImpl$astate_qIN" class="sprotty-edge thick edge" style="fill:none;stroke:rgb(112, 112, 112);stroke-linejoin:round;stroke-width:3px;"><g><path d="M 801.84375 58 L 809.84375 58 C 810.84375 58 811.84375 59 811.84375 60 L 811.84375 98 C 811.84375 99 812.84375 100 813.84375 100 L 821.84375 100 "/><path d="M 801.84375 58 L 809.84375 58 C 810.84375 58 811.84375 59 811.84375 60 L 811.84375 98 C 811.84375 99 812.84375 100 813.84375 100 L 821.84375 100 " class="clickable"/></g><circle r="3" id="sprotty_ArchitectureBlockImpl$usbdev_aon_wake/AlwaysBlockImpl$proc_reg_awk/GPortImpl$astate_qOUT_to_ArchitectureBlockImpl$usbdev_aon_wake/AssignmentBlockImpl$state_debug_o/GPortImpl$astate_qIN/junction0" transform="translate(811.84375, 58)" class="sprotty-junction thick" style="fill:rgb(112, 112, 112);stroke:none;"/></g><g id="sprotty_ArchitectureBlockImpl$usbdev_aon_wake/AlwaysBlockImpl$proc_reg_awk/GPortImpl$astate_qOUT_to_ArchitectureBlockImpl$usbdev_aon_wake/AlwaysBlockImpl$proc_awk_fsm/GPortImpl$astate_qIN" class="sprotty-edge thick edge" style="fill:none;stroke:rgb(112, 112, 112);stroke-linejoin:round;stroke-width:3px;"><g><path d="M 801.84375 58 L 809.84375 58 C 810.84375 58 811.84375 59 811.84375 60 L 811.84375 89 C 811.84375 90 810.84375 91 809.84375 91 L 525.625 91 C 524.625 91 523.625 92 523.625 93 L 523.625 138 C 523.625 139 524.625 140 525.625 140 L 533.625 140 "/><path d="M 801.84375 58 L 809.84375 58 C 810.84375 58 811.84375 59 811.84375 60 L 811.84375 89 C 811.84375 90 810.84375 91 809.84375 91 L 525.625 91 C 524.625 91 523.625 92 523.625 93 L 523.625 138 C 523.625 139 524.625 140 525.625 140 L 533.625 140 " class="clickable"/></g><circle r="3" id="sprotty_ArchitectureBlockImpl$usbdev_aon_wake/AlwaysBlockImpl$proc_reg_awk/GPortImpl$astate_qOUT_to_ArchitectureBlockImpl$usbdev_aon_wake/AlwaysBlockImpl$proc_awk_fsm/GPortImpl$astate_qIN/junction0" transform="translate(811.84375, 91)" class="sprotty-junction thick" style="fill:rgb(112, 112, 112);stroke:none;"/></g><g id="sprotty_ArchitectureBlockImpl$usbdev_aon_wake/AssignmentBlockImpl$trigger_async/GPortImpl$trigger_asyncOUT_to_ArchitectureBlockImpl$usbdev_aon_wake/InstantiationBlockImpl$cdc_trigger/BPortImpl$d_i" class="sprotty-edge edge" style="fill:none;stroke:rgb(112, 112, 112);stroke-linejoin:round;"><g><path d="M 231.5 443 L 239.5 443 C 240.5 443 241.5 442 241.5 441 L 241.5 326 C 241.5 325 242.5 324 243.5 324 L 261.5 324 "/><path d="M 231.5 443 L 239.5 443 C 240.5 443 241.5 442 241.5 441 L 241.5 326 C 241.5 325 242.5 324 243.5 324 L 261.5 324 " class="clickable"/></g></g><g id="sprotty_ArchitectureBlockImpl$usbdev_aon_wake/InstantiationBlockImpl$cdc_trigger/BPortImpl$q_o_to_ArchitectureBlockImpl$usbdev_aon_wake/AlwaysBlockImpl$proc_awk_fsm/GPortImpl$triggerIN" class="sprotty-edge edge" style="fill:none;stroke:rgb(112, 112, 112);stroke-linejoin:round;"><g><path d="M 503.625 296 L 511.625 296 C 512.625 296 513.625 295 513.625 294 L 513.625 162 C 513.625 161 514.625 160 515.625 160 L 533.625 160 "/><path d="M 503.625 296 L 511.625 296 C 512.625 296 513.625 295 513.625 294 L 513.625 162 C 513.625 161 514.625 160 515.625 160 L 533.625 160 " class="clickable"/></g></g><g id="sprotty_ArchitectureBlockImpl$usbdev_aon_wake/AssignmentBlockImpl$wake_ack_async/GPortImpl$wake_ack_asyncOUT_to_ArchitectureBlockImpl$usbdev_aon_wake/InstantiationBlockImpl$cdc_trigger/BPortImpl$d_i" class="sprotty-edge edge" style="fill:none;stroke:rgb(112, 112, 112);stroke-linejoin:round;"><g><path d="M 231.5 380 L 239.5 380 C 240.5 380 241.5 379 241.5 378 L 241.5 326 C 241.5 325 242.5 324 243.5 324 L 261.5 324 "/><path d="M 231.5 380 L 239.5 380 C 240.5 380 241.5 379 241.5 378 L 241.5 326 C 241.5 325 242.5 324 243.5 324 L 261.5 324 " class="clickable"/></g><circle r="2" id="sprotty_ArchitectureBlockImpl$usbdev_aon_wake/AssignmentBlockImpl$wake_ack_async/GPortImpl$wake_ack_asyncOUT_to_ArchitectureBlockImpl$usbdev_aon_wake/InstantiationBlockImpl$cdc_trigger/BPortImpl$d_i/junction0" transform="translate(241.5, 380)" class="sprotty-junction junction" style="fill:rgb(112, 112, 112);stroke:none;"/></g><g id="sprotty_ArchitectureBlockImpl$usbdev_aon_wake/AssignmentBlockImpl$notidle_async/GPortImpl$notidle_asyncOUT_to_ArchitectureBlockImpl$usbdev_aon_wake/InstantiationBlockImpl$filter_activity/BPortImpl$filter_i" class="sprotty-edge edge" style="fill:none;stroke:rgb(112, 112, 112);stroke-linejoin:round;"><g><path d="M 231.5 192 L 268.73046875 192 "/><path d="M 231.5 192 L 268.73046875 192 " class="clickable"/></g></g><g id="sprotty_ArchitectureBlockImpl$usbdev_aon_wake/InstantiationBlockImpl$filter_activity/BPortImpl$filter_o_to_ArchitectureBlockImpl$usbdev_aon_wake/AlwaysBlockImpl$proc_awk_fsm/GPortImpl$notidle_filteredIN" class="sprotty-edge edge" style="fill:none;stroke:rgb(112, 112, 112);stroke-linejoin:round;"><g><path d="M 481.93359375 150 L 533.625 150 "/><path d="M 481.93359375 150 L 533.625 150 " class="clickable"/></g></g><g id="sprotty_ArchitectureBlockImpl$usbdev_aon_wake/AlwaysBlockImpl$proc_reg_awk" transform="translate(679.4375, 35)" class="statement"><rect x="0" y="0" rx="10" ry="5" width="122.40625" height="46" class="sprotty-node" style="fill:rgb(245, 245, 245);stroke:rgb(112, 112, 112);"/><text class="clickable sprotty-label statementtext" id="sprotty_ArchitectureBlockImpl$usbdev_aon_wake/AlwaysBlockImpl$proc_reg_awk/labeltext" transform="translate(5, 5) translate(56.046875, 19)" style="cursor:default;font-weight:700;perspective-origin:0.15625px 0px;fill:rgb(112, 112, 112);text-anchor:middle;">proc_reg_awk</text><text class="clickable sprotty-label statementtype" id="sprotty_ArchitectureBlockImpl$usbdev_aon_wake/AlwaysBlockImpl$proc_reg_awk/labeltype" transform="translate(41.7578125, 29) translate(18.828125, 9)" style="cursor:default;font-size:8px;font-weight:700;perspective-origin:0.609375px 0px;fill:rgb(112, 112, 112);text-anchor:middle;">always_ff</text><g id="sprotty_ArchitectureBlockImpl$usbdev_aon_wake/AlwaysBlockImpl$proc_reg_awk/GPortImpl$astate_dIN" transform="translate(0, 34.5)" class="sprotty-hidden hidden" style="display:block;height:0px;width:0px;"/><g id="sprotty_ArchitectureBlockImpl$usbdev_aon_wake/AlwaysBlockImpl$proc_reg_awk/GPortImpl$rst_aon_niIN" transform="translate(0, 23)" class="sprotty-hidden hidden" style="display:block;height:0px;width:0px;"/><g id="sprotty_ArchitectureBlockImpl$usbdev_aon_wake/AlwaysBlockImpl$proc_reg_awk/GPortImpl$clk_aon_iIN" transform="translate(0, 11.5)" class="sprotty-hidden hidden" style="display:block;height:0px;width:0px;"/><g id="sprotty_ArchitectureBlockImpl$usbdev_aon_wake/AlwaysBlockImpl$proc_reg_awk/GPortImpl$astate_qOUT" transform="translate(122.40625, 23)" class="sprotty-hidden hidden" style="display:block;height:0px;width:0px;"/></g><g id="sprotty_ArchitectureBlockImpl$usbdev_aon_wake/AlwaysBlockImpl$proc_awk_fsm" transform="translate(533.625, 130)" class="statement"><rect x="0" y="0" rx="10" ry="5" width="125.8125" height="50" class="sprotty-node" style="fill:rgb(245, 245, 245);stroke:rgb(112, 112, 112);"/><text class="clickable sprotty-label statementtext" id="sprotty_ArchitectureBlockImpl$usbdev_aon_wake/AlwaysBlockImpl$proc_awk_fsm/labeltext" transform="translate(5, 7) translate(57.90625, 19)" style="cursor:default;font-weight:700;perspective-origin:0px 0px;fill:rgb(112, 112, 112);text-anchor:middle;">proc_awk_fsm</text><text class="clickable sprotty-label statementtype" id="sprotty_ArchitectureBlockImpl$usbdev_aon_wake/AlwaysBlockImpl$proc_awk_fsm/labeltype" transform="translate(36.03125, 31) translate(26.875, 9)" style="cursor:default;font-size:8px;font-weight:700;perspective-origin:0px 0px;fill:rgb(112, 112, 112);text-anchor:middle;">always_comb</text><g id="sprotty_ArchitectureBlockImpl$usbdev_aon_wake/AlwaysBlockImpl$proc_awk_fsm/GPortImpl$usb_out_of_rst_alw_iIN" transform="translate(0, 40)" class="sprotty-hidden hidden" style="display:block;height:0px;width:0px;"/><g id="sprotty_ArchitectureBlockImpl$usbdev_aon_wake/AlwaysBlockImpl$proc_awk_fsm/GPortImpl$notidle_filteredIN" transform="translate(0, 20)" class="sprotty-hidden hidden" style="display:block;height:0px;width:0px;"/><g id="sprotty_ArchitectureBlockImpl$usbdev_aon_wake/AlwaysBlockImpl$proc_awk_fsm/GPortImpl$triggerIN" transform="translate(0, 30)" class="sprotty-hidden hidden" style="display:block;height:0px;width:0px;"/><g id="sprotty_ArchitectureBlockImpl$usbdev_aon_wake/AlwaysBlockImpl$proc_awk_fsm/GPortImpl$astate_qIN" transform="translate(0, 10)" class="sprotty-hidden hidden" style="display:block;height:0px;width:0px;"/><g id="sprotty_ArchitectureBlockImpl$usbdev_aon_wake/AlwaysBlockImpl$proc_awk_fsm/GPortImpl$astate_dOUT" transform="translate(125.8125, 25)" class="sprotty-hidden hidden" style="display:block;height:0px;width:0px;"/></g><g id="sprotty_ArchitectureBlockImpl$usbdev_aon_wake/AssignmentBlockImpl$state_debug_o" transform="translate(821.84375, 89)" class="statement"><rect x="0" y="0" rx="10" ry="5" width="19.71875" height="22" class="sprotty-node" style="fill:rgb(245, 245, 245);stroke:rgb(112, 112, 112);"/><text class="clickable sprotty-label statementtype" id="sprotty_ArchitectureBlockImpl$usbdev_aon_wake/AssignmentBlockImpl$state_debug_o/labeltype" transform="translate(5, 5) translate(4.71875, 9)" style="cursor:default;font-size:8px;font-weight:700;perspective-origin:0.140625px 0px;fill:rgb(112, 112, 112);text-anchor:middle;">&lt;=</text><g id="sprotty_ArchitectureBlockImpl$usbdev_aon_wake/AssignmentBlockImpl$state_debug_o/GPortImpl$astate_qIN" transform="translate(0, 11)" class="sprotty-hidden hidden" style="display:block;height:0px;width:0px;"/><g id="sprotty_ArchitectureBlockImpl$usbdev_aon_wake/AssignmentBlockImpl$state_debug_o/GPortImpl$state_debug_oOUT" transform="translate(19.71875, 11)" class="sprotty-hidden hidden" style="display:block;height:0px;width:0px;"/></g><g id="sprotty_ArchitectureBlockImpl$usbdev_aon_wake/AssignmentBlockImpl$wake_req_alw_o" transform="translate(821.84375, 47)" class="statement"><rect x="0" y="0" rx="10" ry="5" width="19.71875" height="22" class="sprotty-node" style="fill:rgb(245, 245, 245);stroke:rgb(112, 112, 112);"/><text class="clickable sprotty-label statementtype" id="sprotty_ArchitectureBlockImpl$usbdev_aon_wake/AssignmentBlockImpl$wake_req_alw_o/labeltype" transform="translate(5, 5) translate(4.71875, 9)" style="cursor:default;font-size:8px;font-weight:700;perspective-origin:0.140625px 0px;fill:rgb(112, 112, 112);text-anchor:middle;">&lt;=</text><g id="sprotty_ArchitectureBlockImpl$usbdev_aon_wake/AssignmentBlockImpl$wake_req_alw_o/GPortImpl$astate_qIN" transform="translate(0, 11)" class="sprotty-hidden hidden" style="display:block;height:0px;width:0px;"/><g id="sprotty_ArchitectureBlockImpl$usbdev_aon_wake/AssignmentBlockImpl$wake_req_alw_o/GPortImpl$wake_req_alw_oOUT" transform="translate(19.71875, 11)" class="sprotty-hidden hidden" style="display:block;height:0px;width:0px;"/></g><g id="sprotty_ArchitectureBlockImpl$usbdev_aon_wake/AssignmentBlockImpl$notidle_async" transform="translate(211.78125, 167)" class="statement"><rect x="0" y="0" rx="10" ry="5" width="19.71875" height="50" class="sprotty-node" style="fill:rgb(245, 245, 245);stroke:rgb(112, 112, 112);"/><text class="clickable sprotty-label statementtype" id="sprotty_ArchitectureBlockImpl$usbdev_aon_wake/AssignmentBlockImpl$notidle_async/labeltype" transform="translate(5, 19) translate(4.71875, 9)" style="cursor:default;font-size:8px;font-weight:700;perspective-origin:0.140625px 0px;fill:rgb(112, 112, 112);text-anchor:middle;">&lt;=</text><g id="sprotty_ArchitectureBlockImpl$usbdev_aon_wake/AssignmentBlockImpl$notidle_async/GPortImpl$usb_dnpullup_en_alw_iIN" transform="translate(0, 20)" class="sprotty-hidden hidden" style="display:block;height:0px;width:0px;"/><g id="sprotty_ArchitectureBlockImpl$usbdev_aon_wake/AssignmentBlockImpl$notidle_async/GPortImpl$usb_dn_async_alw_iIN" transform="translate(0, 30)" class="sprotty-hidden hidden" style="display:block;height:0px;width:0px;"/><g id="sprotty_ArchitectureBlockImpl$usbdev_aon_wake/AssignmentBlockImpl$notidle_async/GPortImpl$usb_dppullup_en_alw_iIN" transform="translate(0, 40)" class="sprotty-hidden hidden" style="display:block;height:0px;width:0px;"/><g id="sprotty_ArchitectureBlockImpl$usbdev_aon_wake/AssignmentBlockImpl$notidle_async/GPortImpl$usb_dp_async_alw_iIN" transform="translate(0, 10)" class="sprotty-hidden hidden" style="display:block;height:0px;width:0px;"/><g id="sprotty_ArchitectureBlockImpl$usbdev_aon_wake/AssignmentBlockImpl$notidle_async/GPortImpl$notidle_asyncOUT" transform="translate(19.71875, 25)" class="sprotty-hidden hidden" style="display:block;height:0px;width:0px;"/></g><g id="sprotty_ArchitectureBlockImpl$usbdev_aon_wake/AssignmentBlockImpl$wake_ack_async" transform="translate(211.78125, 365)" class="statement"><rect x="0" y="0" rx="10" ry="5" width="19.71875" height="30" class="sprotty-node" style="fill:rgb(245, 245, 245);stroke:rgb(112, 112, 112);"/><text class="clickable sprotty-label statementtype" id="sprotty_ArchitectureBlockImpl$usbdev_aon_wake/AssignmentBlockImpl$wake_ack_async/labeltype" transform="translate(5, 9) translate(4.71875, 9)" style="cursor:default;font-size:8px;font-weight:700;perspective-origin:0.140625px 0px;fill:rgb(112, 112, 112);text-anchor:middle;">&lt;=</text><g id="sprotty_ArchitectureBlockImpl$usbdev_aon_wake/AssignmentBlockImpl$wake_ack_async/GPortImpl$usb_out_of_rst_alw_iIN" transform="translate(0, 10)" class="sprotty-hidden hidden" style="display:block;height:0px;width:0px;"/><g id="sprotty_ArchitectureBlockImpl$usbdev_aon_wake/AssignmentBlockImpl$wake_ack_async/GPortImpl$usb_aon_woken_upwr_iIN" transform="translate(0, 20)" class="sprotty-hidden hidden" style="display:block;height:0px;width:0px;"/><g id="sprotty_ArchitectureBlockImpl$usbdev_aon_wake/AssignmentBlockImpl$wake_ack_async/GPortImpl$wake_ack_asyncOUT" transform="translate(19.71875, 15)" class="sprotty-hidden hidden" style="display:block;height:0px;width:0px;"/></g><g id="sprotty_ArchitectureBlockImpl$usbdev_aon_wake/AssignmentBlockImpl$trigger_async" transform="translate(211.78125, 423)" class="statement"><rect x="0" y="0" rx="10" ry="5" width="19.71875" height="40" class="sprotty-node" style="fill:rgb(245, 245, 245);stroke:rgb(112, 112, 112);"/><text class="clickable sprotty-label statementtype" id="sprotty_ArchitectureBlockImpl$usbdev_aon_wake/AssignmentBlockImpl$trigger_async/labeltype" transform="translate(5, 14) translate(4.71875, 9)" style="cursor:default;font-size:8px;font-weight:700;perspective-origin:0.140625px 0px;fill:rgb(112, 112, 112);text-anchor:middle;">&lt;=</text><g id="sprotty_ArchitectureBlockImpl$usbdev_aon_wake/AssignmentBlockImpl$trigger_async/GPortImpl$usb_out_of_rst_alw_iIN" transform="translate(0, 10)" class="sprotty-hidden hidden" style="display:block;height:0px;width:0px;"/><g id="sprotty_ArchitectureBlockImpl$usbdev_aon_wake/AssignmentBlockImpl$trigger_async/GPortImpl$usb_suspended_upwr_iIN" transform="translate(0, 30)" class="sprotty-hidden hidden" style="display:block;height:0px;width:0px;"/><g id="sprotty_ArchitectureBlockImpl$usbdev_aon_wake/AssignmentBlockImpl$trigger_async/GPortImpl$usb_aon_wake_en_upwr_iIN" transform="translate(0, 20)" class="sprotty-hidden hidden" style="display:block;height:0px;width:0px;"/><g id="sprotty_ArchitectureBlockImpl$usbdev_aon_wake/AssignmentBlockImpl$trigger_async/GPortImpl$trigger_asyncOUT" transform="translate(19.71875, 20)" class="sprotty-hidden hidden" style="display:block;height:0px;width:0px;"/></g><g id="sprotty_ArchitectureBlockImpl$usbdev_aon_wake/InstantiationBlockImpl$filter_activity" transform="translate(268.73046875, 70)" class="instantiation"><g class="sprotty-block" style="fill:rgb(255, 255, 255);stroke:rgb(48, 48, 48);stroke-dasharray:0px;"><rect x="0" y="0" rx="1" ry="1" width="213.203125" height="140"/><text x="106.6015625" y="12" class="sprotty-block-name" style="cursor:pointer;font-weight:700;perspective-origin:106.609px 0px;fill:rgb(48, 48, 48);stroke:rgba(0, 0, 0, 0);dominant-baseline:middle;text-anchor:middle;">filter_activity : prim_filter</text><line x1="0" y1="20" x2="213.203125" y2="20"/></g><g id="sprotty_ArchitectureBlockImpl$usbdev_aon_wake/InstantiationBlockImpl$filter_activity/BPortImpl$filter_i" transform="translate(0, 122)" class="triangle"><path d="M 0,0 L 5,2.5 L 0,5 Z" transform="translate(-1.67, -2.5)" class="sprotty-port" style="fill:rgb(48, 48, 48);stroke:rgb(48, 48, 48);"/><text class="clickable sprotty-label port" id="sprotty_ArchitectureBlockImpl$usbdev_aon_wake/InstantiationBlockImpl$filter_activity/BPortImpl$filter_i/label" transform="translate(6, -9) translate(18.265625, 14)" style="cursor:default;font-size:12px;perspective-origin:0px 0px;fill:rgb(48, 48, 48);text-anchor:middle;">filter_i</text></g><g id="sprotty_ArchitectureBlockImpl$usbdev_aon_wake/InstantiationBlockImpl$filter_activity/BPortImpl$enable_i" transform="translate(0, 94)" class="triangle"><path d="M 0,0 L 5,2.5 L 0,5 Z" transform="translate(-1.67, -2.5)" class="sprotty-port" style="fill:rgb(48, 48, 48);stroke:rgb(48, 48, 48);"/><text class="clickable sprotty-label port" id="sprotty_ArchitectureBlockImpl$usbdev_aon_wake/InstantiationBlockImpl$filter_activity/BPortImpl$enable_i/label" transform="translate(6, -9) translate(24.125, 14)" style="cursor:default;font-size:12px;perspective-origin:0px 0px;fill:rgb(48, 48, 48);text-anchor:middle;">enable_i</text></g><g id="sprotty_ArchitectureBlockImpl$usbdev_aon_wake/InstantiationBlockImpl$filter_activity/BPortImpl$rst_ni" transform="translate(0, 66)" class="triangle"><path d="M 0,0 L 5,2.5 L 0,5 Z" transform="translate(-1.67, -2.5)" class="sprotty-port" style="fill:rgb(48, 48, 48);stroke:rgb(48, 48, 48);"/><text class="clickable sprotty-label port" id="sprotty_ArchitectureBlockImpl$usbdev_aon_wake/InstantiationBlockImpl$filter_activity/BPortImpl$rst_ni/label" transform="translate(6, -9) translate(15.921875, 14)" style="cursor:default;font-size:12px;perspective-origin:0px 0px;fill:rgb(48, 48, 48);text-anchor:middle;">rst_ni</text></g><g id="sprotty_ArchitectureBlockImpl$usbdev_aon_wake/InstantiationBlockImpl$filter_activity/BPortImpl$clk_i" transform="translate(0, 38)" class="triangle"><path d="M 0,0 L 5,2.5 L 0,5 Z" transform="translate(-1.67, -2.5)" class="sprotty-port" style="fill:rgb(48, 48, 48);stroke:rgb(48, 48, 48);"/><text class="clickable sprotty-label port" id="sprotty_ArchitectureBlockImpl$usbdev_aon_wake/InstantiationBlockImpl$filter_activity/BPortImpl$clk_i/label" transform="translate(6, -9) translate(13.09375, 14)" style="cursor:default;font-size:12px;perspective-origin:0px 0px;fill:rgb(48, 48, 48);text-anchor:middle;">clk_i</text></g><g id="sprotty_ArchitectureBlockImpl$usbdev_aon_wake/InstantiationBlockImpl$filter_activity/BPortImpl$filter_o" transform="translate(213.203125, 80)" class="triangle"><path d="M 0,0 L 5,2.5 L 0,5 Z" transform="translate(-1.67, -2.5)" class="sprotty-port" style="fill:rgb(48, 48, 48);stroke:rgb(48, 48, 48);"/><text class="clickable sprotty-label port" id="sprotty_ArchitectureBlockImpl$usbdev_aon_wake/InstantiationBlockImpl$filter_activity/BPortImpl$filter_o/label" transform="translate(-46.5, -9) translate(20.25, 14)" style="cursor:default;font-size:12px;perspective-origin:0px 0px;fill:rgb(48, 48, 48);text-anchor:middle;">filter_o</text></g></g><g id="sprotty_ArchitectureBlockImpl$usbdev_aon_wake/InstantiationBlockImpl$cdc_trigger" transform="translate(261.5, 230)" class="instantiation"><g class="sprotty-block" style="fill:rgb(255, 255, 255);stroke:rgb(48, 48, 48);stroke-dasharray:0px;"><rect x="0" y="0" rx="1" ry="1" width="242.125" height="112"/><text x="121.0625" y="12" class="sprotty-block-name" style="cursor:pointer;font-weight:700;perspective-origin:121.062px 0px;fill:rgb(48, 48, 48);stroke:rgba(0, 0, 0, 0);dominant-baseline:middle;text-anchor:middle;">cdc_trigger : prim_flop_2sync</text><line x1="0" y1="20" x2="242.125" y2="20"/></g><g id="sprotty_ArchitectureBlockImpl$usbdev_aon_wake/InstantiationBlockImpl$cdc_trigger/BPortImpl$d_i" transform="translate(0, 94)" class="triangle"><path d="M 0,0 L 5,2.5 L 0,5 Z" transform="translate(-1.67, -2.5)" class="sprotty-port" style="fill:rgb(48, 48, 48);stroke:rgb(48, 48, 48);"/><text class="clickable sprotty-label port" id="sprotty_ArchitectureBlockImpl$usbdev_aon_wake/InstantiationBlockImpl$cdc_trigger/BPortImpl$d_i/label" transform="translate(6, -9) translate(8.734375, 14)" style="cursor:default;font-size:12px;perspective-origin:0px 0px;fill:rgb(48, 48, 48);text-anchor:middle;">d_i</text></g><g id="sprotty_ArchitectureBlockImpl$usbdev_aon_wake/InstantiationBlockImpl$cdc_trigger/BPortImpl$rst_ni" transform="translate(0, 66)" class="triangle"><path d="M 0,0 L 5,2.5 L 0,5 Z" transform="translate(-1.67, -2.5)" class="sprotty-port" style="fill:rgb(48, 48, 48);stroke:rgb(48, 48, 48);"/><text class="clickable sprotty-label port" id="sprotty_ArchitectureBlockImpl$usbdev_aon_wake/InstantiationBlockImpl$cdc_trigger/BPortImpl$rst_ni/label" transform="translate(6, -9) translate(15.921875, 14)" style="cursor:default;font-size:12px;perspective-origin:0px 0px;fill:rgb(48, 48, 48);text-anchor:middle;">rst_ni</text></g><g id="sprotty_ArchitectureBlockImpl$usbdev_aon_wake/InstantiationBlockImpl$cdc_trigger/BPortImpl$clk_i" transform="translate(0, 38)" class="triangle"><path d="M 0,0 L 5,2.5 L 0,5 Z" transform="translate(-1.67, -2.5)" class="sprotty-port" style="fill:rgb(48, 48, 48);stroke:rgb(48, 48, 48);"/><text class="clickable sprotty-label port" id="sprotty_ArchitectureBlockImpl$usbdev_aon_wake/InstantiationBlockImpl$cdc_trigger/BPortImpl$clk_i/label" transform="translate(6, -9) translate(13.09375, 14)" style="cursor:default;font-size:12px;perspective-origin:0px 0px;fill:rgb(48, 48, 48);text-anchor:middle;">clk_i</text></g><g id="sprotty_ArchitectureBlockImpl$usbdev_aon_wake/InstantiationBlockImpl$cdc_trigger/BPortImpl$q_o" transform="translate(242.125, 66)" class="triangle"><path d="M 0,0 L 5,2.5 L 0,5 Z" transform="translate(-1.67, -2.5)" class="sprotty-port" style="fill:rgb(48, 48, 48);stroke:rgb(48, 48, 48);"/><text class="clickable sprotty-label port" id="sprotty_ArchitectureBlockImpl$usbdev_aon_wake/InstantiationBlockImpl$cdc_trigger/BPortImpl$q_o/label" transform="translate(-27.4375, -9) translate(10.71875, 14)" style="cursor:default;font-size:12px;perspective-origin:0px 0px;fill:rgb(48, 48, 48);text-anchor:middle;">q_o</text></g></g><g id="sprotty_ArchitectureBlockImpl$usbdev_aon_wake/BPortImpl$usb_suspended_upwr_i" transform="translate(0, 477)" class="triangle"><path d="M 0,0 L 5,2.5 L 0,5 Z" transform="translate(-1.67, -2.5)" class="sprotty-port" style="fill:rgb(48, 48, 48);stroke:rgb(48, 48, 48);"/><text class="clickable sprotty-label port" id="sprotty_ArchitectureBlockImpl$usbdev_aon_wake/BPortImpl$usb_suspended_upwr_i/label" transform="translate(6, 6) translate(67.09375, 14)" style="cursor:default;font-size:12px;perspective-origin:0px 0px;fill:rgb(48, 48, 48);text-anchor:middle;">usb_suspended_upwr_i</text></g><g id="sprotty_ArchitectureBlockImpl$usbdev_aon_wake/BPortImpl$usb_aon_woken_upwr_i" transform="translate(0, 409)" class="triangle"><path d="M 0,0 L 5,2.5 L 0,5 Z" transform="translate(-1.67, -2.5)" class="sprotty-port" style="fill:rgb(48, 48, 48);stroke:rgb(48, 48, 48);"/><text class="clickable sprotty-label port" id="sprotty_ArchitectureBlockImpl$usbdev_aon_wake/BPortImpl$usb_aon_woken_upwr_i/label" transform="translate(6, 6) translate(69, 14)" style="cursor:default;font-size:12px;perspective-origin:0px 0px;fill:rgb(48, 48, 48);text-anchor:middle;">usb_aon_woken_upwr_i</text></g><g id="sprotty_ArchitectureBlockImpl$usbdev_aon_wake/BPortImpl$usb_aon_wake_en_upwr_i" transform="translate(0, 443)" class="triangle"><path d="M 0,0 L 5,2.5 L 0,5 Z" transform="translate(-1.67, -2.5)" class="sprotty-port" style="fill:rgb(48, 48, 48);stroke:rgb(48, 48, 48);"/><text class="clickable sprotty-label port" id="sprotty_ArchitectureBlockImpl$usbdev_aon_wake/BPortImpl$usb_aon_wake_en_upwr_i/label" transform="translate(6, 6) translate(75.390625, 14)" style="cursor:default;font-size:12px;perspective-origin:0px 0px;fill:rgb(48, 48, 48);text-anchor:middle;">usb_aon_wake_en_upwr_i</text></g><g id="sprotty_ArchitectureBlockImpl$usbdev_aon_wake/BPortImpl$usb_dnpullup_en_alw_i" transform="translate(0, 211)" class="triangle"><path d="M 0,0 L 5,2.5 L 0,5 Z" transform="translate(-1.67, -2.5)" class="sprotty-port" style="fill:rgb(48, 48, 48);stroke:rgb(48, 48, 48);"/><text class="clickable sprotty-label port" id="sprotty_ArchitectureBlockImpl$usbdev_aon_wake/BPortImpl$usb_dnpullup_en_alw_i/label" transform="translate(6, 6) translate(67.65625, 14)" style="cursor:default;font-size:12px;perspective-origin:0px 0px;fill:rgb(48, 48, 48);text-anchor:middle;">usb_dnpullup_en_alw_i</text></g><g id="sprotty_ArchitectureBlockImpl$usbdev_aon_wake/BPortImpl$usb_dppullup_en_alw_i" transform="translate(0, 279)" class="triangle"><path d="M 0,0 L 5,2.5 L 0,5 Z" transform="translate(-1.67, -2.5)" class="sprotty-port" style="fill:rgb(48, 48, 48);stroke:rgb(48, 48, 48);"/><text class="clickable sprotty-label port" id="sprotty_ArchitectureBlockImpl$usbdev_aon_wake/BPortImpl$usb_dppullup_en_alw_i/label" transform="translate(6, 6) translate(67.71875, 14)" style="cursor:default;font-size:12px;perspective-origin:0px 0px;fill:rgb(48, 48, 48);text-anchor:middle;">usb_dppullup_en_alw_i</text></g><g id="sprotty_ArchitectureBlockImpl$usbdev_aon_wake/BPortImpl$usb_dn_async_alw_i" transform="translate(0, 245)" class="triangle"><path d="M 0,0 L 5,2.5 L 0,5 Z" transform="translate(-1.67, -2.5)" class="sprotty-port" style="fill:rgb(48, 48, 48);stroke:rgb(48, 48, 48);"/><text class="clickable sprotty-label port" id="sprotty_ArchitectureBlockImpl$usbdev_aon_wake/BPortImpl$usb_dn_async_alw_i/label" transform="translate(6, 6) translate(58.5625, 14)" style="cursor:default;font-size:12px;perspective-origin:0px 0px;fill:rgb(48, 48, 48);text-anchor:middle;">usb_dn_async_alw_i</text></g><g id="sprotty_ArchitectureBlockImpl$usbdev_aon_wake/BPortImpl$usb_dp_async_alw_i" transform="translate(0, 177)" class="triangle"><path d="M 0,0 L 5,2.5 L 0,5 Z" transform="translate(-1.67, -2.5)" class="sprotty-port" style="fill:rgb(48, 48, 48);stroke:rgb(48, 48, 48);"/><text class="clickable sprotty-label port" id="sprotty_ArchitectureBlockImpl$usbdev_aon_wake/BPortImpl$usb_dp_async_alw_i/label" transform="translate(6, 6) translate(58.609375, 14)" style="cursor:default;font-size:12px;perspective-origin:0px 0px;fill:rgb(48, 48, 48);text-anchor:middle;">usb_dp_async_alw_i</text></g><g id="sprotty_ArchitectureBlockImpl$usbdev_aon_wake/BPortImpl$usb_out_of_rst_alw_i" transform="translate(0, 375)" class="triangle"><path d="M 0,0 L 5,2.5 L 0,5 Z" transform="translate(-1.67, -2.5)" class="sprotty-port" style="fill:rgb(48, 48, 48);stroke:rgb(48, 48, 48);"/><text class="clickable sprotty-label port" id="sprotty_ArchitectureBlockImpl$usbdev_aon_wake/BPortImpl$usb_out_of_rst_alw_i/label" transform="translate(6, 6) translate(60.859375, 14)" style="cursor:default;font-size:12px;perspective-origin:0px 0px;fill:rgb(48, 48, 48);text-anchor:middle;">usb_out_of_rst_alw_i</text></g><g id="sprotty_ArchitectureBlockImpl$usbdev_aon_wake/BPortImpl$rst_aon_ni" transform="translate(0, 136)" class="triangle"><path d="M 0,0 L 5,2.5 L 0,5 Z" transform="translate(-1.67, -2.5)" class="sprotty-port" style="fill:rgb(48, 48, 48);stroke:rgb(48, 48, 48);"/><text class="clickable sprotty-label port" id="sprotty_ArchitectureBlockImpl$usbdev_aon_wake/BPortImpl$rst_aon_ni/label" transform="translate(6, 6) translate(29.953125, 14)" style="cursor:default;font-size:12px;perspective-origin:0px 0px;fill:rgb(48, 48, 48);text-anchor:middle;">rst_aon_ni</text></g><g id="sprotty_ArchitectureBlockImpl$usbdev_aon_wake/BPortImpl$clk_aon_i" transform="translate(0, 92)" class="triangle"><path d="M 0,0 L 5,2.5 L 0,5 Z" transform="translate(-1.67, -2.5)" class="sprotty-port" style="fill:rgb(48, 48, 48);stroke:rgb(48, 48, 48);"/><text class="clickable sprotty-label port" id="sprotty_ArchitectureBlockImpl$usbdev_aon_wake/BPortImpl$clk_aon_i/label" transform="translate(6, 6) translate(27.125, 14)" style="cursor:default;font-size:12px;perspective-origin:0px 0px;fill:rgb(48, 48, 48);text-anchor:middle;">clk_aon_i</text></g><g id="sprotty_ArchitectureBlockImpl$usbdev_aon_wake/BPortImpl$wake_req_alw_o" transform="translate(957.6875, 58)" class="triangle"><path d="M 0,0 L 5,2.5 L 0,5 Z" transform="translate(-1.67, -2.5)" class="sprotty-port" style="fill:rgb(48, 48, 48);stroke:rgb(48, 48, 48);"/><text class="clickable sprotty-label port" id="sprotty_ArchitectureBlockImpl$usbdev_aon_wake/BPortImpl$wake_req_alw_o/label" transform="translate(-101.125, 6) translate(47.5625, 14)" style="cursor:default;font-size:12px;perspective-origin:0px 0px;fill:rgb(48, 48, 48);text-anchor:middle;">wake_req_alw_o</text></g><g id="sprotty_ArchitectureBlockImpl$usbdev_aon_wake/BPortImpl$state_debug_o" transform="translate(957.6875, 100)" class="triangle"><path d="M 0,0 L 5,2.5 L 0,5 Z" transform="translate(-1.67, -2.5)" class="sprotty-port" style="fill:rgb(48, 48, 48);stroke:rgb(48, 48, 48);"/><text class="clickable sprotty-label port" id="sprotty_ArchitectureBlockImpl$usbdev_aon_wake/BPortImpl$state_debug_o/label" transform="translate(-89.40625, 6) translate(41.703125, 14)" style="cursor:default;font-size:12px;perspective-origin:0px 0px;fill:rgb(48, 48, 48);text-anchor:middle;">state_debug_o</text></g></g></g></svg>