<svg xmlns="http://www.w3.org/2000/svg" id="sprotty_work.entropy_src_watermark_reg" class="sprotty-graph sprotty-block-diagram blockdiagram" style="font-family:&quot;Noto Sans&quot;, Helvetica, Arial, sans-serif;perspective-origin:0px 0px;transform-origin:0px 0px;" version="1.1" viewBox="7 7 397.859375 368" width="397.859375" height="368"><g transform="scale(1) translate(0,0)"><g id="sprotty_ArchitectureBlockImpl$entropy_src_watermark_reg" transform="translate(12, 12)" class="architecture"><g class="sprotty-block" style="fill:rgb(255, 255, 255);stroke:rgb(48, 48, 48);stroke-dasharray:0px;"><rect x="0" y="0" rx="1" ry="1" width="387.859375" height="358"/><text x="193.9296875" y="12" class="sprotty-block-name" style="cursor:pointer;font-weight:700;perspective-origin:194.156px 0px;fill:rgb(48, 48, 48);stroke:rgba(0, 0, 0, 0);dominant-baseline:middle;text-anchor:middle;">entropy_src_watermark_reg</text><line x1="0" y1="20" x2="387.859375" y2="20"/></g><g id="sprotty_ArchitectureBlockImpl$entropy_src_watermark_reg/AssignmentBlockImpl$value_o/GPortImpl$value_oOUT_to_ArchitectureBlockImpl$entropy_src_watermark_reg/BPortImpl$value_o" class="sprotty-edge thick edge" style="fill:none;stroke:rgb(112, 112, 112);stroke-linejoin:round;stroke-width:3px;"><g><path d="M 218.046875 46 L 387.859375 46 "/><path d="M 218.046875 46 L 387.859375 46 " class="clickable"/></g></g><g id="sprotty_ArchitectureBlockImpl$entropy_src_watermark_reg/BPortImpl$active_i_to_ArchitectureBlockImpl$entropy_src_watermark_reg/AssignmentBlockImpl$event_cntr_d/GPortImpl$active_iIN" class="sprotty-edge edge" style="fill:none;stroke:rgb(112, 112, 112);stroke-linejoin:round;"><g><path d="M 0 319 L 271.046875 319 C 272.046875 319 273.046875 318 273.046875 317 L 273.046875 273 C 273.046875 272 274.046875 271 275.046875 271 L 283.046875 271 "/><path d="M 0 319 L 271.046875 319 C 272.046875 319 273.046875 318 273.046875 317 L 273.046875 273 C 273.046875 272 274.046875 271 275.046875 271 L 283.046875 271 " class="clickable"/></g></g><g id="sprotty_ArchitectureBlockImpl$entropy_src_watermark_reg/BPortImpl$clear_i_to_ArchitectureBlockImpl$entropy_src_watermark_reg/AssignmentBlockImpl$event_cntr_d/GPortImpl$clear_iIN" class="sprotty-edge edge" style="fill:none;stroke:rgb(112, 112, 112);stroke-linejoin:round;"><g><path d="M 0 285 L 261.046875 285 C 262.046875 285 263.046875 284 263.046875 283 L 263.046875 263 C 263.046875 262 264.046875 261 265.046875 261 L 283.046875 261 "/><path d="M 0 285 L 261.046875 285 C 262.046875 285 263.046875 284 263.046875 283 L 263.046875 263 C 263.046875 262 264.046875 261 265.046875 261 L 283.046875 261 " class="clickable"/></g></g><g id="sprotty_ArchitectureBlockImpl$entropy_src_watermark_reg/BPortImpl$event_i_to_ArchitectureBlockImpl$entropy_src_watermark_reg/AssignmentBlockImpl$event_cntr_d/GPortImpl$event_iIN" class="sprotty-edge edge" style="fill:none;stroke:rgb(112, 112, 112);stroke-linejoin:round;"><g><path d="M 0 251 L 283.046875 251 "/><path d="M 0 251 L 283.046875 251 " class="clickable"/></g></g><g id="sprotty_ArchitectureBlockImpl$entropy_src_watermark_reg/BPortImpl$clk_i_to_ArchitectureBlockImpl$entropy_src_watermark_reg/AlwaysBlockImpl$null8/GPortImpl$clk_iIN" class="sprotty-edge edge" style="fill:none;stroke:rgb(112, 112, 112);stroke-linejoin:round;"><g><path d="M 0 74 L 72.4375 74 C 73.4375 74 74.4375 75 74.4375 76 L 74.4375 96 C 74.4375 97 75.4375 98 76.4375 98 L 94.4375 98 "/><path d="M 0 74 L 72.4375 74 C 73.4375 74 74.4375 75 74.4375 76 L 74.4375 96 C 74.4375 97 75.4375 98 76.4375 98 L 94.4375 98 " class="clickable"/></g></g><g id="sprotty_ArchitectureBlockImpl$entropy_src_watermark_reg/BPortImpl$rst_ni_to_ArchitectureBlockImpl$entropy_src_watermark_reg/AlwaysBlockImpl$null8/GPortImpl$rst_niIN" class="sprotty-edge edge" style="fill:none;stroke:rgb(112, 112, 112);stroke-linejoin:round;"><g><path d="M 0 108 L 94.4375 108 "/><path d="M 0 108 L 94.4375 108 " class="clickable"/></g></g><g id="sprotty_ArchitectureBlockImpl$entropy_src_watermark_reg/BPortImpl$value_i_to_ArchitectureBlockImpl$entropy_src_watermark_reg/GenerateStatementBlockImpl$null7/GPortImpl$value_i" class="sprotty-edge thick edge" style="fill:none;stroke:rgb(112, 112, 112);stroke-linejoin:round;stroke-width:3px;"><g><path d="M 0 155 L 163.328125 155 "/><path d="M 0 155 L 163.328125 155 " class="clickable"/></g></g><g id="sprotty_ArchitectureBlockImpl$entropy_src_watermark_reg/GenerateStatementBlockImpl$null7/GPortImpl$event_cntr_change_to_ArchitectureBlockImpl$entropy_src_watermark_reg/AssignmentBlockImpl$event_cntr_d/GPortImpl$event_cntr_changeIN" class="sprotty-edge thick edge" style="fill:none;stroke:rgb(112, 112, 112);stroke-linejoin:round;stroke-width:3px;"><g><path d="M 253.046875 150 L 261.046875 150 C 262.046875 150 263.046875 151 263.046875 152 L 263.046875 239 C 263.046875 240 264.046875 241 265.046875 241 L 283.046875 241 "/><path d="M 253.046875 150 L 261.046875 150 C 262.046875 150 263.046875 151 263.046875 152 L 263.046875 239 C 263.046875 240 264.046875 241 265.046875 241 L 283.046875 241 " class="clickable"/></g></g><g id="sprotty_ArchitectureBlockImpl$entropy_src_watermark_reg/AlwaysBlockImpl$null8/GPortImpl$event_cntr_qOUT_to_ArchitectureBlockImpl$entropy_src_watermark_reg/AssignmentBlockImpl$event_cntr_d/GPortImpl$event_cntr_qIN" class="sprotty-edge thick edge" style="fill:none;stroke:rgb(112, 112, 112);stroke-linejoin:round;stroke-width:3px;"><g><path d="M 143.328125 98 L 261.046875 98 C 262.046875 98 263.046875 99 263.046875 100 L 263.046875 229 C 263.046875 230 264.046875 231 265.046875 231 L 283.046875 231 "/><path d="M 143.328125 98 L 261.046875 98 C 262.046875 98 263.046875 99 263.046875 100 L 263.046875 229 C 263.046875 230 264.046875 231 265.046875 231 L 283.046875 231 " class="clickable"/></g><circle r="3" id="sprotty_ArchitectureBlockImpl$entropy_src_watermark_reg/AlwaysBlockImpl$null8/GPortImpl$event_cntr_qOUT_to_ArchitectureBlockImpl$entropy_src_watermark_reg/AssignmentBlockImpl$event_cntr_d/GPortImpl$event_cntr_qIN/junction0" transform="translate(263.046875, 231)" class="sprotty-junction thick" style="fill:rgb(112, 112, 112);stroke:none;"/></g><g id="sprotty_ArchitectureBlockImpl$entropy_src_watermark_reg/AlwaysBlockImpl$null8/GPortImpl$event_cntr_qOUT_to_ArchitectureBlockImpl$entropy_src_watermark_reg/AssignmentBlockImpl$value_o/GPortImpl$event_cntr_qIN" class="sprotty-edge thick edge" style="fill:none;stroke:rgb(112, 112, 112);stroke-linejoin:round;stroke-width:3px;"><g><path d="M 143.328125 98 L 151.328125 98 C 152.328125 98 153.328125 97 153.328125 96 L 153.328125 48 C 153.328125 47 154.328125 46 155.328125 46 L 198.328125 46 "/><path d="M 143.328125 98 L 151.328125 98 C 152.328125 98 153.328125 97 153.328125 96 L 153.328125 48 C 153.328125 47 154.328125 46 155.328125 46 L 198.328125 46 " class="clickable"/></g><circle r="3" id="sprotty_ArchitectureBlockImpl$entropy_src_watermark_reg/AlwaysBlockImpl$null8/GPortImpl$event_cntr_qOUT_to_ArchitectureBlockImpl$entropy_src_watermark_reg/AssignmentBlockImpl$value_o/GPortImpl$event_cntr_qIN/junction0" transform="translate(153.328125, 98)" class="sprotty-junction thick" style="fill:rgb(112, 112, 112);stroke:none;"/></g><g id="sprotty_ArchitectureBlockImpl$entropy_src_watermark_reg/AlwaysBlockImpl$null8/GPortImpl$event_cntr_qOUT_to_ArchitectureBlockImpl$entropy_src_watermark_reg/GenerateStatementBlockImpl$null7/GPortImpl$event_cntr_change" class="sprotty-edge thick edge" style="fill:none;stroke:rgb(112, 112, 112);stroke-linejoin:round;stroke-width:3px;"><g><path d="M 143.328125 98 L 261.046875 98 C 262.046875 98 263.046875 99 263.046875 100 L 263.046875 148 C 263.046875 149 262.046875 150 261.046875 150 L 253.046875 150 "/><path d="M 143.328125 98 L 261.046875 98 C 262.046875 98 263.046875 99 263.046875 100 L 263.046875 148 C 263.046875 149 262.046875 150 261.046875 150 L 253.046875 150 " class="clickable"/></g><circle r="3" id="sprotty_ArchitectureBlockImpl$entropy_src_watermark_reg/AlwaysBlockImpl$null8/GPortImpl$event_cntr_qOUT_to_ArchitectureBlockImpl$entropy_src_watermark_reg/GenerateStatementBlockImpl$null7/GPortImpl$event_cntr_change/junction0" transform="translate(263.046875, 150)" class="sprotty-junction thick" style="fill:rgb(112, 112, 112);stroke:none;"/></g><g id="sprotty_ArchitectureBlockImpl$entropy_src_watermark_reg/AssignmentBlockImpl$event_cntr_d/GPortImpl$event_cntr_qOUT_to_ArchitectureBlockImpl$entropy_src_watermark_reg/AlwaysBlockImpl$null8/GPortImpl$event_cntr_dIN" class="sprotty-edge thick edge" style="fill:none;stroke:rgb(112, 112, 112);stroke-linejoin:round;stroke-width:3px;"><g><path d="M 302.765625 251 L 310.765625 251 C 311.765625 251 312.765625 250 312.765625 249 L 312.765625 70 C 312.765625 69 311.765625 68 310.765625 68 L 86.4375 68 C 85.4375 68 84.4375 69 84.4375 70 L 84.4375 86 C 84.4375 87 85.4375 88 86.4375 88 L 94.4375 88 "/><path d="M 302.765625 251 L 310.765625 251 C 311.765625 251 312.765625 250 312.765625 249 L 312.765625 70 C 312.765625 69 311.765625 68 310.765625 68 L 86.4375 68 C 85.4375 68 84.4375 69 84.4375 70 L 84.4375 86 C 84.4375 87 85.4375 88 86.4375 88 L 94.4375 88 " class="clickable"/></g></g><g id="sprotty_ArchitectureBlockImpl$entropy_src_watermark_reg/GenerateStatementBlockImpl$null7" transform="translate(163.328125, 110)" class="generate"><g class="sprotty-block sprotty-block-generate" style="fill:rgb(255, 255, 255);stroke:rgb(48, 48, 48);stroke-dasharray:0px;"><rect x="0" y="0" rx="1" ry="1" width="89.71875" height="130" style="stroke-dasharray:3px, 1px;"/><text x="44.859375" y="12" class="sprotty-block-name" style="cursor:pointer;font-weight:700;fill:rgb(48, 48, 48);stroke:rgba(0, 0, 0, 0);dominant-baseline:middle;text-anchor:middle;"/>undefined</g><g id="sprotty_ArchitectureBlockImpl$entropy_src_watermark_reg/GenerateStatementBlockImpl$null7/GPortImpl$value_i_to_ArchitectureBlockImpl$entropy_src_watermark_reg/GenerateStatementBlockImpl$null7/AssignmentBlockImpl$event_cntr_change1/GPortImpl$value_iIN" class="sprotty-edge thick edge" style="fill:none;stroke:rgb(112, 112, 112);stroke-linejoin:round;stroke-width:3px;"><g><path d="M 0 45 L 23 45 C 24 45 25 46 25 47 L 25 83 C 25 84 26 85 27 85 L 35 85 "/><path d="M 0 45 L 23 45 C 24 45 25 46 25 47 L 25 83 C 25 84 26 85 27 85 L 35 85 " class="clickable"/></g><circle r="3" id="sprotty_ArchitectureBlockImpl$entropy_src_watermark_reg/GenerateStatementBlockImpl$null7/GPortImpl$value_i_to_ArchitectureBlockImpl$entropy_src_watermark_reg/GenerateStatementBlockImpl$null7/AssignmentBlockImpl$event_cntr_change1/GPortImpl$value_iIN/junction0" transform="translate(25, 45)" class="sprotty-junction thick" style="fill:rgb(112, 112, 112);stroke:none;"/></g><g id="sprotty_ArchitectureBlockImpl$entropy_src_watermark_reg/GenerateStatementBlockImpl$null7/GPortImpl$value_i_to_ArchitectureBlockImpl$entropy_src_watermark_reg/GenerateStatementBlockImpl$null7/AssignmentBlockImpl$event_cntr_change/GPortImpl$value_iIN" class="sprotty-edge thick edge" style="fill:none;stroke:rgb(112, 112, 112);stroke-linejoin:round;stroke-width:3px;"><g><path d="M 0 45 L 35 45 "/><path d="M 0 45 L 35 45 " class="clickable"/></g></g><g id="sprotty_ArchitectureBlockImpl$entropy_src_watermark_reg/GenerateStatementBlockImpl$null7/AssignmentBlockImpl$event_cntr_change1/GPortImpl$event_cntr_qOUT_to_ArchitectureBlockImpl$entropy_src_watermark_reg/GenerateStatementBlockImpl$null7/GPortImpl$event_cntr_change" class="sprotty-edge thick edge" style="fill:none;stroke:rgb(112, 112, 112);stroke-linejoin:round;stroke-width:3px;"><g><path d="M 54.71875 90 L 62.71875 90 C 63.71875 90 64.71875 89 64.71875 88 L 64.71875 42 C 64.71875 41 65.71875 40 66.71875 40 L 89.71875 40 "/><path d="M 54.71875 90 L 62.71875 90 C 63.71875 90 64.71875 89 64.71875 88 L 64.71875 42 C 64.71875 41 65.71875 40 66.71875 40 L 89.71875 40 " class="clickable"/></g><circle r="3" id="sprotty_ArchitectureBlockImpl$entropy_src_watermark_reg/GenerateStatementBlockImpl$null7/AssignmentBlockImpl$event_cntr_change1/GPortImpl$event_cntr_qOUT_to_ArchitectureBlockImpl$entropy_src_watermark_reg/GenerateStatementBlockImpl$null7/GPortImpl$event_cntr_change/junction0" transform="translate(64.71875, 90)" class="sprotty-junction thick" style="fill:rgb(112, 112, 112);stroke:none;"/></g><g id="sprotty_ArchitectureBlockImpl$entropy_src_watermark_reg/GenerateStatementBlockImpl$null7/AssignmentBlockImpl$event_cntr_change/GPortImpl$event_cntr_qOUT_to_ArchitectureBlockImpl$entropy_src_watermark_reg/GenerateStatementBlockImpl$null7/GPortImpl$event_cntr_change" class="sprotty-edge thick edge" style="fill:none;stroke:rgb(112, 112, 112);stroke-linejoin:round;stroke-width:3px;"><g><path d="M 54.71875 40 L 89.71875 40 "/><path d="M 54.71875 40 L 89.71875 40 " class="clickable"/></g></g><g id="sprotty_ArchitectureBlockImpl$entropy_src_watermark_reg/GenerateStatementBlockImpl$null7/GPortImpl$event_cntr_change_to_ArchitectureBlockImpl$entropy_src_watermark_reg/GenerateStatementBlockImpl$null7/AssignmentBlockImpl$event_cntr_change1/GPortImpl$event_cntr_qIN" class="sprotty-edge thick edge" style="fill:none;stroke:rgb(112, 112, 112);stroke-linejoin:round;stroke-width:3px;"><g><path d="M 89.71875 40 L 66.71875 40 C 65.71875 40 64.71875 41 64.71875 42 L 64.71875 113 C 64.71875 114 63.71875 115 62.71875 115 L 27 115 C 26 115 25 114 25 113 L 25 97 C 25 96 26 95 27 95 L 35 95 "/><path d="M 89.71875 40 L 66.71875 40 C 65.71875 40 64.71875 41 64.71875 42 L 64.71875 113 C 64.71875 114 63.71875 115 62.71875 115 L 27 115 C 26 115 25 114 25 113 L 25 97 C 25 96 26 95 27 95 L 35 95 " class="clickable"/></g></g><g id="sprotty_ArchitectureBlockImpl$entropy_src_watermark_reg/GenerateStatementBlockImpl$null7/GPortImpl$event_cntr_change_to_ArchitectureBlockImpl$entropy_src_watermark_reg/GenerateStatementBlockImpl$null7/AssignmentBlockImpl$event_cntr_change/GPortImpl$event_cntr_qIN" class="sprotty-edge thick edge" style="fill:none;stroke:rgb(112, 112, 112);stroke-linejoin:round;stroke-width:3px;"><g><path d="M 89.71875 40 L 66.71875 40 C 65.71875 40 64.71875 39 64.71875 38 L 64.71875 17 C 64.71875 16 63.71875 15 62.71875 15 L 27 15 C 26 15 25 16 25 17 L 25 33 C 25 34 26 35 27 35 L 35 35 "/><path d="M 89.71875 40 L 66.71875 40 C 65.71875 40 64.71875 39 64.71875 38 L 64.71875 17 C 64.71875 16 63.71875 15 62.71875 15 L 27 15 C 26 15 25 16 25 17 L 25 33 C 25 34 26 35 27 35 L 35 35 " class="clickable"/></g><circle r="3" id="sprotty_ArchitectureBlockImpl$entropy_src_watermark_reg/GenerateStatementBlockImpl$null7/GPortImpl$event_cntr_change_to_ArchitectureBlockImpl$entropy_src_watermark_reg/GenerateStatementBlockImpl$null7/AssignmentBlockImpl$event_cntr_change/GPortImpl$event_cntr_qIN/junction0" transform="translate(64.71875, 40)" class="sprotty-junction thick" style="fill:rgb(112, 112, 112);stroke:none;"/></g><g id="sprotty_ArchitectureBlockImpl$entropy_src_watermark_reg/GenerateStatementBlockImpl$null7/AssignmentBlockImpl$event_cntr_change" transform="translate(35, 25)" class="statement"><rect x="0" y="0" rx="10" ry="5" width="19.71875" height="30" class="sprotty-node" style="fill:rgb(245, 245, 245);stroke:rgb(112, 112, 112);"/><text class="clickable sprotty-label statementtype" id="sprotty_ArchitectureBlockImpl$entropy_src_watermark_reg/GenerateStatementBlockImpl$null7/AssignmentBlockImpl$event_cntr_change/labeltype" transform="translate(5, 9) translate(4.71875, 9)" style="cursor:default;font-size:8px;font-weight:700;perspective-origin:0.140625px 0px;fill:rgb(112, 112, 112);text-anchor:middle;">&lt;=</text><g id="sprotty_ArchitectureBlockImpl$entropy_src_watermark_reg/GenerateStatementBlockImpl$null7/AssignmentBlockImpl$event_cntr_change/GPortImpl$event_cntr_qIN" transform="translate(0, 10)" class="sprotty-hidden hidden" style="display:block;height:0px;width:0px;"/><g id="sprotty_ArchitectureBlockImpl$entropy_src_watermark_reg/GenerateStatementBlockImpl$null7/AssignmentBlockImpl$event_cntr_change/GPortImpl$value_iIN" transform="translate(0, 20)" class="sprotty-hidden hidden" style="display:block;height:0px;width:0px;"/><g id="sprotty_ArchitectureBlockImpl$entropy_src_watermark_reg/GenerateStatementBlockImpl$null7/AssignmentBlockImpl$event_cntr_change/GPortImpl$event_cntr_qOUT" transform="translate(19.71875, 15)" class="sprotty-hidden hidden" style="display:block;height:0px;width:0px;"/></g><g id="sprotty_ArchitectureBlockImpl$entropy_src_watermark_reg/GenerateStatementBlockImpl$null7/AssignmentBlockImpl$event_cntr_change1" transform="translate(35, 75)" class="statement"><rect x="0" y="0" rx="10" ry="5" width="19.71875" height="30" class="sprotty-node" style="fill:rgb(245, 245, 245);stroke:rgb(112, 112, 112);"/><text class="clickable sprotty-label statementtype" id="sprotty_ArchitectureBlockImpl$entropy_src_watermark_reg/GenerateStatementBlockImpl$null7/AssignmentBlockImpl$event_cntr_change1/labeltype" transform="translate(5, 9) translate(4.71875, 9)" style="cursor:default;font-size:8px;font-weight:700;perspective-origin:0.140625px 0px;fill:rgb(112, 112, 112);text-anchor:middle;">&lt;=</text><g id="sprotty_ArchitectureBlockImpl$entropy_src_watermark_reg/GenerateStatementBlockImpl$null7/AssignmentBlockImpl$event_cntr_change1/GPortImpl$event_cntr_qIN" transform="translate(0, 20)" class="sprotty-hidden hidden" style="display:block;height:0px;width:0px;"/><g id="sprotty_ArchitectureBlockImpl$entropy_src_watermark_reg/GenerateStatementBlockImpl$null7/AssignmentBlockImpl$event_cntr_change1/GPortImpl$value_iIN" transform="translate(0, 10)" class="sprotty-hidden hidden" style="display:block;height:0px;width:0px;"/><g id="sprotty_ArchitectureBlockImpl$entropy_src_watermark_reg/GenerateStatementBlockImpl$null7/AssignmentBlockImpl$event_cntr_change1/GPortImpl$event_cntr_qOUT" transform="translate(19.71875, 15)" class="sprotty-hidden hidden" style="display:block;height:0px;width:0px;"/></g><g id="sprotty_ArchitectureBlockImpl$entropy_src_watermark_reg/GenerateStatementBlockImpl$null7/GPortImpl$value_i" transform="translate(0, 45)" class="triangle"><path d="M 0,0 L 5,2.5 L 0,5 Z" transform="translate(-1.67, -2.5)" class="sprotty-port" style="fill:rgb(48, 48, 48);stroke:rgb(48, 48, 48);"/></g><g id="sprotty_ArchitectureBlockImpl$entropy_src_watermark_reg/GenerateStatementBlockImpl$null7/GPortImpl$event_cntr_change" transform="translate(89.71875, 40)" class="triangle"><path d="M 0,0 L 5,2.5 L 0,5 Z" transform="translate(-1.67, -2.5)" class="sprotty-port" style="fill:rgb(48, 48, 48);stroke:rgb(48, 48, 48);"/></g></g><g id="sprotty_ArchitectureBlockImpl$entropy_src_watermark_reg/AlwaysBlockImpl$null8" transform="translate(94.4375, 78)" class="statement"><rect x="0" y="0" rx="10" ry="5" width="48.890625" height="40" class="sprotty-node" style="fill:rgb(245, 245, 245);stroke:rgb(112, 112, 112);"/><text class="clickable sprotty-label statementtype" id="sprotty_ArchitectureBlockImpl$entropy_src_watermark_reg/AlwaysBlockImpl$null8/labeltype" transform="translate(5, 14) translate(18.828125, 9)" style="cursor:default;font-size:8px;font-weight:700;perspective-origin:0.609375px 0px;fill:rgb(112, 112, 112);text-anchor:middle;">always_ff</text><g id="sprotty_ArchitectureBlockImpl$entropy_src_watermark_reg/AlwaysBlockImpl$null8/GPortImpl$event_cntr_dIN" transform="translate(0, 10)" class="sprotty-hidden hidden" style="display:block;height:0px;width:0px;"/><g id="sprotty_ArchitectureBlockImpl$entropy_src_watermark_reg/AlwaysBlockImpl$null8/GPortImpl$rst_niIN" transform="translate(0, 30)" class="sprotty-hidden hidden" style="display:block;height:0px;width:0px;"/><g id="sprotty_ArchitectureBlockImpl$entropy_src_watermark_reg/AlwaysBlockImpl$null8/GPortImpl$clk_iIN" transform="translate(0, 20)" class="sprotty-hidden hidden" style="display:block;height:0px;width:0px;"/><g id="sprotty_ArchitectureBlockImpl$entropy_src_watermark_reg/AlwaysBlockImpl$null8/GPortImpl$event_cntr_qOUT" transform="translate(48.890625, 20)" class="sprotty-hidden hidden" style="display:block;height:0px;width:0px;"/></g><g id="sprotty_ArchitectureBlockImpl$entropy_src_watermark_reg/AssignmentBlockImpl$value_o" transform="translate(198.328125, 35)" class="statement"><rect x="0" y="0" rx="10" ry="5" width="19.71875" height="22" class="sprotty-node" style="fill:rgb(245, 245, 245);stroke:rgb(112, 112, 112);"/><text class="clickable sprotty-label statementtype" id="sprotty_ArchitectureBlockImpl$entropy_src_watermark_reg/AssignmentBlockImpl$value_o/labeltype" transform="translate(5, 5) translate(4.71875, 9)" style="cursor:default;font-size:8px;font-weight:700;perspective-origin:0.140625px 0px;fill:rgb(112, 112, 112);text-anchor:middle;">&lt;=</text><g id="sprotty_ArchitectureBlockImpl$entropy_src_watermark_reg/AssignmentBlockImpl$value_o/GPortImpl$event_cntr_qIN" transform="translate(0, 11)" class="sprotty-hidden hidden" style="display:block;height:0px;width:0px;"/><g id="sprotty_ArchitectureBlockImpl$entropy_src_watermark_reg/AssignmentBlockImpl$value_o/GPortImpl$value_oOUT" transform="translate(19.71875, 11)" class="sprotty-hidden hidden" style="display:block;height:0px;width:0px;"/></g><g id="sprotty_ArchitectureBlockImpl$entropy_src_watermark_reg/AssignmentBlockImpl$event_cntr_d" transform="translate(283.046875, 221)" class="statement"><rect x="0" y="0" rx="10" ry="5" width="19.71875" height="60" class="sprotty-node" style="fill:rgb(245, 245, 245);stroke:rgb(112, 112, 112);"/><text class="clickable sprotty-label statementtype" id="sprotty_ArchitectureBlockImpl$entropy_src_watermark_reg/AssignmentBlockImpl$event_cntr_d/labeltype" transform="translate(5, 24) translate(4.71875, 9)" style="cursor:default;font-size:8px;font-weight:700;perspective-origin:0.140625px 0px;fill:rgb(112, 112, 112);text-anchor:middle;">&lt;=</text><g id="sprotty_ArchitectureBlockImpl$entropy_src_watermark_reg/AssignmentBlockImpl$event_cntr_d/GPortImpl$event_cntr_qIN" transform="translate(0, 10)" class="sprotty-hidden hidden" style="display:block;height:0px;width:0px;"/><g id="sprotty_ArchitectureBlockImpl$entropy_src_watermark_reg/AssignmentBlockImpl$event_cntr_d/GPortImpl$event_cntr_changeIN" transform="translate(0, 20)" class="sprotty-hidden hidden" style="display:block;height:0px;width:0px;"/><g id="sprotty_ArchitectureBlockImpl$entropy_src_watermark_reg/AssignmentBlockImpl$event_cntr_d/GPortImpl$event_iIN" transform="translate(0, 30)" class="sprotty-hidden hidden" style="display:block;height:0px;width:0px;"/><g id="sprotty_ArchitectureBlockImpl$entropy_src_watermark_reg/AssignmentBlockImpl$event_cntr_d/GPortImpl$clear_iIN" transform="translate(0, 40)" class="sprotty-hidden hidden" style="display:block;height:0px;width:0px;"/><g id="sprotty_ArchitectureBlockImpl$entropy_src_watermark_reg/AssignmentBlockImpl$event_cntr_d/GPortImpl$active_iIN" transform="translate(0, 50)" class="sprotty-hidden hidden" style="display:block;height:0px;width:0px;"/><g id="sprotty_ArchitectureBlockImpl$entropy_src_watermark_reg/AssignmentBlockImpl$event_cntr_d/GPortImpl$event_cntr_qOUT" transform="translate(19.71875, 30)" class="sprotty-hidden hidden" style="display:block;height:0px;width:0px;"/></g><g id="sprotty_ArchitectureBlockImpl$entropy_src_watermark_reg/BPortImpl$value_i" transform="translate(0, 155)" class="triangle"><path d="M 0,0 L 5,2.5 L 0,5 Z" transform="translate(-1.67, -2.5)" class="sprotty-port" style="fill:rgb(48, 48, 48);stroke:rgb(48, 48, 48);"/><text class="clickable sprotty-label port" id="sprotty_ArchitectureBlockImpl$entropy_src_watermark_reg/BPortImpl$value_i/label" transform="translate(6, 6) translate(20.0625, 14)" style="cursor:default;font-size:12px;perspective-origin:0px 0px;fill:rgb(48, 48, 48);text-anchor:middle;">value_i</text></g><g id="sprotty_ArchitectureBlockImpl$entropy_src_watermark_reg/BPortImpl$event_i" transform="translate(0, 251)" class="triangle"><path d="M 0,0 L 5,2.5 L 0,5 Z" transform="translate(-1.67, -2.5)" class="sprotty-port" style="fill:rgb(48, 48, 48);stroke:rgb(48, 48, 48);"/><text class="clickable sprotty-label port" id="sprotty_ArchitectureBlockImpl$entropy_src_watermark_reg/BPortImpl$event_i/label" transform="translate(6, 6) translate(20.71875, 14)" style="cursor:default;font-size:12px;perspective-origin:0px 0px;fill:rgb(48, 48, 48);text-anchor:middle;">event_i</text></g><g id="sprotty_ArchitectureBlockImpl$entropy_src_watermark_reg/BPortImpl$active_i" transform="translate(0, 319)" class="triangle"><path d="M 0,0 L 5,2.5 L 0,5 Z" transform="translate(-1.67, -2.5)" class="sprotty-port" style="fill:rgb(48, 48, 48);stroke:rgb(48, 48, 48);"/><text class="clickable sprotty-label port" id="sprotty_ArchitectureBlockImpl$entropy_src_watermark_reg/BPortImpl$active_i/label" transform="translate(6, 6) translate(21.71875, 14)" style="cursor:default;font-size:12px;perspective-origin:0px 0px;fill:rgb(48, 48, 48);text-anchor:middle;">active_i</text></g><g id="sprotty_ArchitectureBlockImpl$entropy_src_watermark_reg/BPortImpl$clear_i" transform="translate(0, 285)" class="triangle"><path d="M 0,0 L 5,2.5 L 0,5 Z" transform="translate(-1.67, -2.5)" class="sprotty-port" style="fill:rgb(48, 48, 48);stroke:rgb(48, 48, 48);"/><text class="clickable sprotty-label port" id="sprotty_ArchitectureBlockImpl$entropy_src_watermark_reg/BPortImpl$clear_i/label" transform="translate(6, 6) translate(18.71875, 14)" style="cursor:default;font-size:12px;perspective-origin:0px 0px;fill:rgb(48, 48, 48);text-anchor:middle;">clear_i</text></g><g id="sprotty_ArchitectureBlockImpl$entropy_src_watermark_reg/BPortImpl$rst_ni" transform="translate(0, 108)" class="triangle"><path d="M 0,0 L 5,2.5 L 0,5 Z" transform="translate(-1.67, -2.5)" class="sprotty-port" style="fill:rgb(48, 48, 48);stroke:rgb(48, 48, 48);"/><text class="clickable sprotty-label port" id="sprotty_ArchitectureBlockImpl$entropy_src_watermark_reg/BPortImpl$rst_ni/label" transform="translate(6, 6) translate(15.921875, 14)" style="cursor:default;font-size:12px;perspective-origin:0px 0px;fill:rgb(48, 48, 48);text-anchor:middle;">rst_ni</text></g><g id="sprotty_ArchitectureBlockImpl$entropy_src_watermark_reg/BPortImpl$clk_i" transform="translate(0, 74)" class="triangle"><path d="M 0,0 L 5,2.5 L 0,5 Z" transform="translate(-1.67, -2.5)" class="sprotty-port" style="fill:rgb(48, 48, 48);stroke:rgb(48, 48, 48);"/><text class="clickable sprotty-label port" id="sprotty_ArchitectureBlockImpl$entropy_src_watermark_reg/BPortImpl$clk_i/label" transform="translate(6, 6) translate(13.09375, 14)" style="cursor:default;font-size:12px;perspective-origin:0px 0px;fill:rgb(48, 48, 48);text-anchor:middle;">clk_i</text></g><g id="sprotty_ArchitectureBlockImpl$entropy_src_watermark_reg/BPortImpl$value_o" transform="translate(387.859375, 46)" class="triangle"><path d="M 0,0 L 5,2.5 L 0,5 Z" transform="translate(-1.67, -2.5)" class="sprotty-port" style="fill:rgb(48, 48, 48);stroke:rgb(48, 48, 48);"/><text class="clickable sprotty-label port" id="sprotty_ArchitectureBlockImpl$entropy_src_watermark_reg/BPortImpl$value_o/label" transform="translate(-50.09375, 6) translate(22.046875, 14)" style="cursor:default;font-size:12px;perspective-origin:0px 0px;fill:rgb(48, 48, 48);text-anchor:middle;">value_o</text></g></g></g></svg>