<svg xmlns="http://www.w3.org/2000/svg" id="sprotty_work.prim_xilinx_clock_gating" class="sprotty-graph sprotty-block-diagram blockdiagram" style="font-family:&quot;Noto Sans&quot;, Helvetica, Arial, sans-serif;perspective-origin:0px 0px;transform-origin:0px 0px;" version="1.1" viewBox="7 7 380.0625 216" width="380.0625" height="216"><g transform="scale(1) translate(0,0)"><g id="sprotty_ArchitectureBlockImpl$prim_xilinx_clock_gating" transform="translate(12, 12)" class="architecture"><g class="sprotty-block" style="fill:rgb(255, 255, 255);stroke:rgb(48, 48, 48);stroke-dasharray:0px;"><rect x="0" y="0" rx="1" ry="1" width="370.0625" height="206"/><text x="185.03125" y="12" class="sprotty-block-name" style="cursor:pointer;font-weight:700;perspective-origin:185.25px 0px;fill:rgb(48, 48, 48);stroke:rgba(0, 0, 0, 0);dominant-baseline:middle;text-anchor:middle;">prim_xilinx_clock_gating</text><line x1="0" y1="20" x2="370.0625" y2="20"/></g><g id="sprotty_ArchitectureBlockImpl$prim_xilinx_clock_gating/GenerateStatementBlockImpl$null4/GPortImpl$clk_o_to_ArchitectureBlockImpl$prim_xilinx_clock_gating/BPortImpl$clk_o" class="sprotty-edge edge" style="fill:none;stroke:rgb(112, 112, 112);stroke-linejoin:round;"><g><path d="M 318.90625 102 L 370.0625 102 "/><path d="M 318.90625 102 L 370.0625 102 " class="clickable"/></g></g><g id="sprotty_ArchitectureBlockImpl$prim_xilinx_clock_gating/BPortImpl$en_i_to_ArchitectureBlockImpl$prim_xilinx_clock_gating/GenerateStatementBlockImpl$null4/GPortImpl$en_i" class="sprotty-edge edge" style="fill:none;stroke:rgb(112, 112, 112);stroke-linejoin:round;"><g><path d="M 0 88 L 92.59375 88 "/><path d="M 0 88 L 92.59375 88 " class="clickable"/></g></g><g id="sprotty_ArchitectureBlockImpl$prim_xilinx_clock_gating/BPortImpl$test_en_i_to_ArchitectureBlockImpl$prim_xilinx_clock_gating/GenerateStatementBlockImpl$null4/GPortImpl$test_en_i" class="sprotty-edge edge" style="fill:none;stroke:rgb(112, 112, 112);stroke-linejoin:round;"><g><path d="M 0 54 L 80.59375 54 C 81.59375 54 82.59375 55 82.59375 56 L 82.59375 76 C 82.59375 77 83.59375 78 84.59375 78 L 92.59375 78 "/><path d="M 0 54 L 80.59375 54 C 81.59375 54 82.59375 55 82.59375 56 L 82.59375 76 C 82.59375 77 83.59375 78 84.59375 78 L 92.59375 78 " class="clickable"/></g></g><g id="sprotty_ArchitectureBlockImpl$prim_xilinx_clock_gating/BPortImpl$clk_i_to_ArchitectureBlockImpl$prim_xilinx_clock_gating/GenerateStatementBlockImpl$null4/GPortImpl$clk_i" class="sprotty-edge edge" style="fill:none;stroke:rgb(112, 112, 112);stroke-linejoin:round;"><g><path d="M 0 165 L 92.59375 165 "/><path d="M 0 165 L 92.59375 165 " class="clickable"/></g></g><g id="sprotty_ArchitectureBlockImpl$prim_xilinx_clock_gating/GenerateStatementBlockImpl$null4" transform="translate(92.59375, 35)" class="generate"><g class="sprotty-block sprotty-block-generate" style="fill:rgb(255, 255, 255);stroke:rgb(48, 48, 48);stroke-dasharray:0px;"><rect x="0" y="0" rx="1" ry="1" width="226.3125" height="156" style="stroke-dasharray:3px, 1px;"/><text x="113.15625" y="12" class="sprotty-block-name" style="cursor:pointer;font-weight:700;fill:rgb(48, 48, 48);stroke:rgba(0, 0, 0, 0);dominant-baseline:middle;text-anchor:middle;"/>undefined</g><g id="sprotty_ArchitectureBlockImpl$prim_xilinx_clock_gating/GenerateStatementBlockImpl$null4/AssignmentBlockImpl$clk_o/GPortImpl$clk_oOUT_to_ArchitectureBlockImpl$prim_xilinx_clock_gating/GenerateStatementBlockImpl$null4/GPortImpl$clk_o" class="sprotty-edge edge" style="fill:none;stroke:rgb(112, 112, 112);stroke-linejoin:round;"><g><path d="M 123.015625 130 L 199.3125 130 C 200.3125 130 201.3125 129 201.3125 128 L 201.3125 69 C 201.3125 68 202.3125 67 203.3125 67 L 226.3125 67 "/><path d="M 123.015625 130 L 199.3125 130 C 200.3125 130 201.3125 129 201.3125 128 L 201.3125 69 C 201.3125 68 202.3125 67 203.3125 67 L 226.3125 67 " class="clickable"/></g><circle r="2" id="sprotty_ArchitectureBlockImpl$prim_xilinx_clock_gating/GenerateStatementBlockImpl$null4/AssignmentBlockImpl$clk_o/GPortImpl$clk_oOUT_to_ArchitectureBlockImpl$prim_xilinx_clock_gating/GenerateStatementBlockImpl$null4/GPortImpl$clk_o/junction0" transform="translate(201.3125, 67)" class="sprotty-junction junction" style="fill:rgb(112, 112, 112);stroke:none;"/></g><g id="sprotty_ArchitectureBlockImpl$prim_xilinx_clock_gating/GenerateStatementBlockImpl$null4/InstantiationBlockImpl$u_bufgce/BPortImpl$O_to_ArchitectureBlockImpl$prim_xilinx_clock_gating/GenerateStatementBlockImpl$null4/GPortImpl$clk_o" class="sprotty-edge edge" style="fill:none;stroke:rgb(112, 112, 112);stroke-linejoin:round;"><g><path d="M 191.3125 67 L 226.3125 67 "/><path d="M 191.3125 67 L 226.3125 67 " class="clickable"/></g></g><g id="sprotty_ArchitectureBlockImpl$prim_xilinx_clock_gating/GenerateStatementBlockImpl$null4/GPortImpl$en_i_to_ArchitectureBlockImpl$prim_xilinx_clock_gating/GenerateStatementBlockImpl$null4/InstantiationBlockImpl$u_bufgce/BPortImpl$CE" class="sprotty-edge edge" style="fill:none;stroke:rgb(112, 112, 112);stroke-linejoin:round;"><g><path d="M 0 53 L 35 53 "/><path d="M 0 53 L 35 53 " class="clickable"/></g></g><g id="sprotty_ArchitectureBlockImpl$prim_xilinx_clock_gating/GenerateStatementBlockImpl$null4/GPortImpl$test_en_i_to_ArchitectureBlockImpl$prim_xilinx_clock_gating/GenerateStatementBlockImpl$null4/InstantiationBlockImpl$u_bufgce/BPortImpl$CE" class="sprotty-edge edge" style="fill:none;stroke:rgb(112, 112, 112);stroke-linejoin:round;"><g><path d="M 0 43 L 23 43 C 24 43 25 44 25 45 L 25 51 C 25 52 26 53 27 53 L 35 53 "/><path d="M 0 43 L 23 43 C 24 43 25 44 25 45 L 25 51 C 25 52 26 53 27 53 L 35 53 " class="clickable"/></g><circle r="2" id="sprotty_ArchitectureBlockImpl$prim_xilinx_clock_gating/GenerateStatementBlockImpl$null4/GPortImpl$test_en_i_to_ArchitectureBlockImpl$prim_xilinx_clock_gating/GenerateStatementBlockImpl$null4/InstantiationBlockImpl$u_bufgce/BPortImpl$CE/junction0" transform="translate(25, 53)" class="sprotty-junction junction" style="fill:rgb(112, 112, 112);stroke:none;"/></g><g id="sprotty_ArchitectureBlockImpl$prim_xilinx_clock_gating/GenerateStatementBlockImpl$null4/GPortImpl$clk_i_to_ArchitectureBlockImpl$prim_xilinx_clock_gating/GenerateStatementBlockImpl$null4/InstantiationBlockImpl$u_bufgce/BPortImpl$I" class="sprotty-edge edge" style="fill:none;stroke:rgb(112, 112, 112);stroke-linejoin:round;"><g><path d="M 0 130 L 23 130 C 24 130 25 129 25 128 L 25 83 C 25 82 26 81 27 81 L 35 81 "/><path d="M 0 130 L 23 130 C 24 130 25 129 25 128 L 25 83 C 25 82 26 81 27 81 L 35 81 " class="clickable"/></g><circle r="2" id="sprotty_ArchitectureBlockImpl$prim_xilinx_clock_gating/GenerateStatementBlockImpl$null4/GPortImpl$clk_i_to_ArchitectureBlockImpl$prim_xilinx_clock_gating/GenerateStatementBlockImpl$null4/InstantiationBlockImpl$u_bufgce/BPortImpl$I/junction0" transform="translate(25, 130)" class="sprotty-junction junction" style="fill:rgb(112, 112, 112);stroke:none;"/></g><g id="sprotty_ArchitectureBlockImpl$prim_xilinx_clock_gating/GenerateStatementBlockImpl$null4/GPortImpl$clk_i_to_ArchitectureBlockImpl$prim_xilinx_clock_gating/GenerateStatementBlockImpl$null4/AssignmentBlockImpl$clk_o/GPortImpl$clk_iIN" class="sprotty-edge edge" style="fill:none;stroke:rgb(112, 112, 112);stroke-linejoin:round;"><g><path d="M 0 130 L 103.296875 130 "/><path d="M 0 130 L 103.296875 130 " class="clickable"/></g></g><g id="sprotty_ArchitectureBlockImpl$prim_xilinx_clock_gating/GenerateStatementBlockImpl$null4/AssignmentBlockImpl$clk_o" transform="translate(103.296875, 119)" class="statement"><rect x="0" y="0" rx="10" ry="5" width="19.71875" height="22" class="sprotty-node" style="fill:rgb(245, 245, 245);stroke:rgb(112, 112, 112);"/><text class="clickable sprotty-label statementtype" id="sprotty_ArchitectureBlockImpl$prim_xilinx_clock_gating/GenerateStatementBlockImpl$null4/AssignmentBlockImpl$clk_o/labeltype" transform="translate(5, 5) translate(4.71875, 9)" style="cursor:default;font-size:8px;font-weight:700;perspective-origin:0.140625px 0px;fill:rgb(112, 112, 112);text-anchor:middle;">&lt;=</text><g id="sprotty_ArchitectureBlockImpl$prim_xilinx_clock_gating/GenerateStatementBlockImpl$null4/AssignmentBlockImpl$clk_o/GPortImpl$clk_iIN" transform="translate(0, 11)" class="sprotty-hidden hidden" style="display:block;height:0px;width:0px;"/><g id="sprotty_ArchitectureBlockImpl$prim_xilinx_clock_gating/GenerateStatementBlockImpl$null4/AssignmentBlockImpl$clk_o/GPortImpl$clk_oOUT" transform="translate(19.71875, 11)" class="sprotty-hidden hidden" style="display:block;height:0px;width:0px;"/></g><g id="sprotty_ArchitectureBlockImpl$prim_xilinx_clock_gating/GenerateStatementBlockImpl$null4/InstantiationBlockImpl$u_bufgce" transform="translate(35, 15)" class="instantiation"><g class="sprotty-block" style="fill:rgb(255, 255, 255);stroke:rgb(48, 48, 48);stroke-dasharray:0px;"><rect x="0" y="0" rx="1" ry="1" width="156.3125" height="84"/><text x="78.15625" y="12" class="sprotty-block-name" style="cursor:pointer;font-weight:700;perspective-origin:78.1562px 0px;fill:rgb(48, 48, 48);stroke:rgba(0, 0, 0, 0);dominant-baseline:middle;text-anchor:middle;">u_bufgce : BUFGCE</text><line x1="0" y1="20" x2="156.3125" y2="20"/></g><g id="sprotty_ArchitectureBlockImpl$prim_xilinx_clock_gating/GenerateStatementBlockImpl$null4/InstantiationBlockImpl$u_bufgce/BPortImpl$I" transform="translate(0, 66)" class="triangle"><path d="M 0,0 L 5,2.5 L 0,5 Z" transform="translate(-1.67, -2.5)" class="sprotty-port" style="fill:rgb(48, 48, 48);stroke:rgb(48, 48, 48);"/><text class="clickable sprotty-label port" id="sprotty_ArchitectureBlockImpl$prim_xilinx_clock_gating/GenerateStatementBlockImpl$null4/InstantiationBlockImpl$u_bufgce/BPortImpl$I/label" transform="translate(6, -9) translate(1.765625, 14)" style="cursor:default;font-size:12px;perspective-origin:0px 0px;fill:rgb(48, 48, 48);text-anchor:middle;">I</text></g><g id="sprotty_ArchitectureBlockImpl$prim_xilinx_clock_gating/GenerateStatementBlockImpl$null4/InstantiationBlockImpl$u_bufgce/BPortImpl$CE" transform="translate(0, 38)" class="triangle"><path d="M 0,0 L 5,2.5 L 0,5 Z" transform="translate(-1.67, -2.5)" class="sprotty-port" style="fill:rgb(48, 48, 48);stroke:rgb(48, 48, 48);"/><text class="clickable sprotty-label port" id="sprotty_ArchitectureBlockImpl$prim_xilinx_clock_gating/GenerateStatementBlockImpl$null4/InstantiationBlockImpl$u_bufgce/BPortImpl$CE/label" transform="translate(6, -9) translate(7.359375, 14)" style="cursor:default;font-size:12px;perspective-origin:0px 0px;fill:rgb(48, 48, 48);text-anchor:middle;">CE</text></g><g id="sprotty_ArchitectureBlockImpl$prim_xilinx_clock_gating/GenerateStatementBlockImpl$null4/InstantiationBlockImpl$u_bufgce/BPortImpl$O" transform="translate(156.3125, 52)" class="triangle"><path d="M 0,0 L 5,2.5 L 0,5 Z" transform="translate(-1.67, -2.5)" class="sprotty-port" style="fill:rgb(48, 48, 48);stroke:rgb(48, 48, 48);"/><text class="clickable sprotty-label port" id="sprotty_ArchitectureBlockImpl$prim_xilinx_clock_gating/GenerateStatementBlockImpl$null4/InstantiationBlockImpl$u_bufgce/BPortImpl$O/label" transform="translate(-15.015625, -9) translate(4.453125, 14)" style="cursor:default;font-size:12px;perspective-origin:0.046875px 0px;fill:rgb(48, 48, 48);text-anchor:middle;">O</text></g></g><g id="sprotty_ArchitectureBlockImpl$prim_xilinx_clock_gating/GenerateStatementBlockImpl$null4/GPortImpl$clk_i" transform="translate(0, 130)" class="triangle"><path d="M 0,0 L 5,2.5 L 0,5 Z" transform="translate(-1.67, -2.5)" class="sprotty-port" style="fill:rgb(48, 48, 48);stroke:rgb(48, 48, 48);"/></g><g id="sprotty_ArchitectureBlockImpl$prim_xilinx_clock_gating/GenerateStatementBlockImpl$null4/GPortImpl$test_en_i" transform="translate(0, 43)" class="triangle"><path d="M 0,0 L 5,2.5 L 0,5 Z" transform="translate(-1.67, -2.5)" class="sprotty-port" style="fill:rgb(48, 48, 48);stroke:rgb(48, 48, 48);"/></g><g id="sprotty_ArchitectureBlockImpl$prim_xilinx_clock_gating/GenerateStatementBlockImpl$null4/GPortImpl$en_i" transform="translate(0, 53)" class="triangle"><path d="M 0,0 L 5,2.5 L 0,5 Z" transform="translate(-1.67, -2.5)" class="sprotty-port" style="fill:rgb(48, 48, 48);stroke:rgb(48, 48, 48);"/></g><g id="sprotty_ArchitectureBlockImpl$prim_xilinx_clock_gating/GenerateStatementBlockImpl$null4/GPortImpl$clk_o" transform="translate(226.3125, 67)" class="triangle"><path d="M 0,0 L 5,2.5 L 0,5 Z" transform="translate(-1.67, -2.5)" class="sprotty-port" style="fill:rgb(48, 48, 48);stroke:rgb(48, 48, 48);"/></g></g><g id="sprotty_ArchitectureBlockImpl$prim_xilinx_clock_gating/BPortImpl$test_en_i" transform="translate(0, 54)" class="triangle"><path d="M 0,0 L 5,2.5 L 0,5 Z" transform="translate(-1.67, -2.5)" class="sprotty-port" style="fill:rgb(48, 48, 48);stroke:rgb(48, 48, 48);"/><text class="clickable sprotty-label port" id="sprotty_ArchitectureBlockImpl$prim_xilinx_clock_gating/BPortImpl$test_en_i/label" transform="translate(6, 6) translate(25.796875, 14)" style="cursor:default;font-size:12px;perspective-origin:0px 0px;fill:rgb(48, 48, 48);text-anchor:middle;">test_en_i</text></g><g id="sprotty_ArchitectureBlockImpl$prim_xilinx_clock_gating/BPortImpl$en_i" transform="translate(0, 88)" class="triangle"><path d="M 0,0 L 5,2.5 L 0,5 Z" transform="translate(-1.67, -2.5)" class="sprotty-port" style="fill:rgb(48, 48, 48);stroke:rgb(48, 48, 48);"/><text class="clickable sprotty-label port" id="sprotty_ArchitectureBlockImpl$prim_xilinx_clock_gating/BPortImpl$en_i/label" transform="translate(6, 6) translate(12, 14)" style="cursor:default;font-size:12px;perspective-origin:0px 0px;fill:rgb(48, 48, 48);text-anchor:middle;">en_i</text></g><g id="sprotty_ArchitectureBlockImpl$prim_xilinx_clock_gating/BPortImpl$clk_i" transform="translate(0, 165)" class="triangle"><path d="M 0,0 L 5,2.5 L 0,5 Z" transform="translate(-1.67, -2.5)" class="sprotty-port" style="fill:rgb(48, 48, 48);stroke:rgb(48, 48, 48);"/><text class="clickable sprotty-label port" id="sprotty_ArchitectureBlockImpl$prim_xilinx_clock_gating/BPortImpl$clk_i/label" transform="translate(6, 6) translate(13.09375, 14)" style="cursor:default;font-size:12px;perspective-origin:0px 0px;fill:rgb(48, 48, 48);text-anchor:middle;">clk_i</text></g><g id="sprotty_ArchitectureBlockImpl$prim_xilinx_clock_gating/BPortImpl$clk_o" transform="translate(370.0625, 102)" class="triangle"><path d="M 0,0 L 5,2.5 L 0,5 Z" transform="translate(-1.67, -2.5)" class="sprotty-port" style="fill:rgb(48, 48, 48);stroke:rgb(48, 48, 48);"/><text class="clickable sprotty-label port" id="sprotty_ArchitectureBlockImpl$prim_xilinx_clock_gating/BPortImpl$clk_o/label" transform="translate(-36.15625, 6) translate(15.078125, 14)" style="cursor:default;font-size:12px;perspective-origin:0px 0px;fill:rgb(48, 48, 48);text-anchor:middle;">clk_o</text></g></g></g></svg>