<svg xmlns="http://www.w3.org/2000/svg" id="sprotty_work.aon_osc" class="sprotty-graph sprotty-block-diagram blockdiagram" style="font-family:&quot;Noto Sans&quot;, Helvetica, Arial, sans-serif;perspective-origin:0px 0px;transform-origin:0px 0px;" version="1.1" viewBox="7 7 477.90625 149" width="477.90625" height="149"><g transform="scale(1) translate(0,0)"><g id="sprotty_ArchitectureBlockImpl$aon_osc" transform="translate(12, 12)" class="architecture"><g class="sprotty-block" style="fill:rgb(255, 255, 255);stroke:rgb(48, 48, 48);stroke-dasharray:0px;"><rect x="0" y="0" rx="1" ry="1" width="467.90625" height="139"/><text x="233.953125" y="12" class="sprotty-block-name" style="cursor:pointer;font-weight:700;perspective-origin:233.953px 0px;fill:rgb(48, 48, 48);stroke:rgba(0, 0, 0, 0);dominant-baseline:middle;text-anchor:middle;">aon_osc</text><line x1="0" y1="20" x2="467.90625" y2="20"/></g><g id="sprotty_ArchitectureBlockImpl$aon_osc/AssignmentBlockImpl$aon_clk_o/GPortImpl$aon_clk_oOUT_to_ArchitectureBlockImpl$aon_osc/BPortImpl$aon_clk_o" class="sprotty-edge edge" style="fill:none;stroke:rgb(112, 112, 112);stroke-linejoin:round;"><g><path d="M 388.6875 71 L 467.90625 71 "/><path d="M 388.6875 71 L 467.90625 71 " class="clickable"/></g></g><g id="sprotty_ArchitectureBlockImpl$aon_osc/BPortImpl$aon_en_i_to_ArchitectureBlockImpl$aon_osc/AssignmentBlockImpl$aon_en_dly/GPortImpl$aon_en_iIN" class="sprotty-edge edge" style="fill:none;stroke:rgb(112, 112, 112);stroke-linejoin:round;"><g><path d="M 0 100 L 123.53125 100 "/><path d="M 0 100 L 123.53125 100 " class="clickable"/></g></g><g id="sprotty_ArchitectureBlockImpl$aon_osc/BPortImpl$vcore_pok_h_i_to_ArchitectureBlockImpl$aon_osc/AssignmentBlockImpl$en_osc_re/GPortImpl$vcore_pok_h_iIN" class="sprotty-edge edge" style="fill:none;stroke:rgb(112, 112, 112);stroke-linejoin:round;"><g><path d="M 0 66 L 151.25 66 C 152.25 66 153.25 67 153.25 68 L 153.25 88 C 153.25 89 154.25 90 155.25 90 L 163.25 90 "/><path d="M 0 66 L 151.25 66 C 152.25 66 153.25 67 153.25 68 L 153.25 88 C 153.25 89 154.25 90 155.25 90 L 163.25 90 " class="clickable"/></g><circle r="2" id="sprotty_ArchitectureBlockImpl$aon_osc/BPortImpl$vcore_pok_h_i_to_ArchitectureBlockImpl$aon_osc/AssignmentBlockImpl$en_osc_re/GPortImpl$vcore_pok_h_iIN/junction0" transform="translate(153.25, 66)" class="sprotty-junction junction" style="fill:rgb(112, 112, 112);stroke:none;"/></g><g id="sprotty_ArchitectureBlockImpl$aon_osc/BPortImpl$aon_en_i_to_ArchitectureBlockImpl$aon_osc/AssignmentBlockImpl$en_osc_re/GPortImpl$aon_en_iIN" class="sprotty-edge edge" style="fill:none;stroke:rgb(112, 112, 112);stroke-linejoin:round;"><g><path d="M 0 100 L 111.53125 100 C 112.53125 100 113.53125 101 113.53125 102 L 113.53125 120 C 113.53125 121 114.53125 122 115.53125 122 L 151.25 122 C 152.25 122 153.25 121 153.25 120 L 153.25 112 C 153.25 111 154.25 110 155.25 110 L 163.25 110 "/><path d="M 0 100 L 111.53125 100 C 112.53125 100 113.53125 101 113.53125 102 L 113.53125 120 C 113.53125 121 114.53125 122 115.53125 122 L 151.25 122 C 152.25 122 153.25 121 153.25 120 L 153.25 112 C 153.25 111 154.25 110 155.25 110 L 163.25 110 " class="clickable"/></g><circle r="2" id="sprotty_ArchitectureBlockImpl$aon_osc/BPortImpl$aon_en_i_to_ArchitectureBlockImpl$aon_osc/AssignmentBlockImpl$en_osc_re/GPortImpl$aon_en_iIN/junction0" transform="translate(113.53125, 100)" class="sprotty-junction junction" style="fill:rgb(112, 112, 112);stroke:none;"/></g><g id="sprotty_ArchitectureBlockImpl$aon_osc/BPortImpl$vcore_pok_h_i_to_ArchitectureBlockImpl$aon_osc/AlwaysBlockImpl$null4/GPortImpl$vcore_pok_h_iIN" class="sprotty-edge edge" style="fill:none;stroke:rgb(112, 112, 112);stroke-linejoin:round;"><g><path d="M 0 66 L 202.96875 66 "/><path d="M 0 66 L 202.96875 66 " class="clickable"/></g></g><g id="sprotty_ArchitectureBlockImpl$aon_osc/AlwaysBlockImpl$null3/GPortImpl$clkOUT_to_ArchitectureBlockImpl$aon_osc/AssignmentBlockImpl$aon_clk_o/GPortImpl$clkIN" class="sprotty-edge edge" style="fill:none;stroke:rgb(112, 112, 112);stroke-linejoin:round;"><g><path d="M 348.96875 71 L 368.96875 71 "/><path d="M 348.96875 71 L 368.96875 71 " class="clickable"/></g></g><g id="sprotty_ArchitectureBlockImpl$aon_osc/AlwaysBlockImpl$null3/GPortImpl$clkOUT_to_ArchitectureBlockImpl$aon_osc/AlwaysBlockImpl$null4/GPortImpl$clkIN" class="sprotty-edge edge" style="fill:none;stroke:rgb(112, 112, 112);stroke-linejoin:round;"><g><path d="M 348.96875 71 L 356.96875 71 C 357.96875 71 358.96875 70 358.96875 69 L 358.96875 38 C 358.96875 37 357.96875 36 356.96875 36 L 194.96875 36 C 193.96875 36 192.96875 37 192.96875 38 L 192.96875 54 C 192.96875 55 193.96875 56 194.96875 56 L 202.96875 56 "/><path d="M 348.96875 71 L 356.96875 71 C 357.96875 71 358.96875 70 358.96875 69 L 358.96875 38 C 358.96875 37 357.96875 36 356.96875 36 L 194.96875 36 C 193.96875 36 192.96875 37 192.96875 38 L 192.96875 54 C 192.96875 55 193.96875 56 194.96875 56 L 202.96875 56 " class="clickable"/></g><circle r="2" id="sprotty_ArchitectureBlockImpl$aon_osc/AlwaysBlockImpl$null3/GPortImpl$clkOUT_to_ArchitectureBlockImpl$aon_osc/AlwaysBlockImpl$null4/GPortImpl$clkIN/junction0" transform="translate(358.96875, 71)" class="sprotty-junction junction" style="fill:rgb(112, 112, 112);stroke:none;"/></g><g id="sprotty_ArchitectureBlockImpl$aon_osc/AssignmentBlockImpl$en_osc/GPortImpl$en_osc_feOUT_to_ArchitectureBlockImpl$aon_osc/AlwaysBlockImpl$null3/GPortImpl$en_oscIN" class="sprotty-edge edge" style="fill:none;stroke:rgb(112, 112, 112);stroke-linejoin:round;"><g><path d="M 291.578125 71 L 311.578125 71 "/><path d="M 291.578125 71 L 311.578125 71 " class="clickable"/></g></g><g id="sprotty_ArchitectureBlockImpl$aon_osc/AssignmentBlockImpl$en_osc_re/GPortImpl$en_dlyOUT_to_ArchitectureBlockImpl$aon_osc/AssignmentBlockImpl$en_osc/GPortImpl$en_osc_reIN" class="sprotty-edge edge" style="fill:none;stroke:rgb(112, 112, 112);stroke-linejoin:round;"><g><path d="M 182.96875 100 L 259.859375 100 C 260.859375 100 261.859375 99 261.859375 98 L 261.859375 78 C 261.859375 77 262.859375 76 263.859375 76 L 271.859375 76 "/><path d="M 182.96875 100 L 259.859375 100 C 260.859375 100 261.859375 99 261.859375 98 L 261.859375 78 C 261.859375 77 262.859375 76 263.859375 76 L 271.859375 76 " class="clickable"/></g></g><g id="sprotty_ArchitectureBlockImpl$aon_osc/AssignmentBlockImpl$en_osc_re/GPortImpl$en_dlyOUT_to_ArchitectureBlockImpl$aon_osc/AlwaysBlockImpl$null4/GPortImpl$en_osc_reIN" class="sprotty-edge edge" style="fill:none;stroke:rgb(112, 112, 112);stroke-linejoin:round;"><g><path d="M 182.96875 100 L 190.96875 100 C 191.96875 100 192.96875 99 192.96875 98 L 192.96875 78 C 192.96875 77 193.96875 76 194.96875 76 L 202.96875 76 "/><path d="M 182.96875 100 L 190.96875 100 C 191.96875 100 192.96875 99 192.96875 98 L 192.96875 78 C 192.96875 77 193.96875 76 194.96875 76 L 202.96875 76 " class="clickable"/></g><circle r="2" id="sprotty_ArchitectureBlockImpl$aon_osc/AssignmentBlockImpl$en_osc_re/GPortImpl$en_dlyOUT_to_ArchitectureBlockImpl$aon_osc/AlwaysBlockImpl$null4/GPortImpl$en_osc_reIN/junction0" transform="translate(192.96875, 100)" class="sprotty-junction junction" style="fill:rgb(112, 112, 112);stroke:none;"/></g><g id="sprotty_ArchitectureBlockImpl$aon_osc/AlwaysBlockImpl$null4/GPortImpl$en_osc_feOUT_to_ArchitectureBlockImpl$aon_osc/AssignmentBlockImpl$en_osc/GPortImpl$en_osc_feIN" class="sprotty-edge edge" style="fill:none;stroke:rgb(112, 112, 112);stroke-linejoin:round;"><g><path d="M 251.859375 66 L 271.859375 66 "/><path d="M 251.859375 66 L 271.859375 66 " class="clickable"/></g></g><g id="sprotty_ArchitectureBlockImpl$aon_osc/AssignmentBlockImpl$aon_en_dly/GPortImpl$aon_en_dlyOUT_to_ArchitectureBlockImpl$aon_osc/AssignmentBlockImpl$en_osc_re/GPortImpl$aon_en_dlyIN" class="sprotty-edge edge" style="fill:none;stroke:rgb(112, 112, 112);stroke-linejoin:round;"><g><path d="M 143.25 100 L 163.25 100 "/><path d="M 143.25 100 L 163.25 100 " class="clickable"/></g></g><g id="sprotty_ArchitectureBlockImpl$aon_osc/AlwaysBlockImpl$null3" transform="translate(311.578125, 60)" class="statement"><rect x="0" y="0" rx="10" ry="5" width="37.390625" height="22" class="sprotty-node" style="fill:rgb(245, 245, 245);stroke:rgb(112, 112, 112);"/><text class="clickable sprotty-label statementtype" id="sprotty_ArchitectureBlockImpl$aon_osc/AlwaysBlockImpl$null3/labeltype" transform="translate(5, 5) translate(13.671875, 9)" style="cursor:default;font-size:8px;font-weight:700;perspective-origin:0.015625px 0px;fill:rgb(112, 112, 112);text-anchor:middle;">always</text><g id="sprotty_ArchitectureBlockImpl$aon_osc/AlwaysBlockImpl$null3/GPortImpl$en_oscIN" transform="translate(0, 11)" class="sprotty-hidden hidden" style="display:block;height:0px;width:0px;"/><g id="sprotty_ArchitectureBlockImpl$aon_osc/AlwaysBlockImpl$null3/GPortImpl$clkOUT" transform="translate(37.390625, 11)" class="sprotty-hidden hidden" style="display:block;height:0px;width:0px;"/></g><g id="sprotty_ArchitectureBlockImpl$aon_osc/AlwaysBlockImpl$null4" transform="translate(202.96875, 46)" class="statement"><rect x="0" y="0" rx="10" ry="5" width="48.890625" height="40" class="sprotty-node" style="fill:rgb(245, 245, 245);stroke:rgb(112, 112, 112);"/><text class="clickable sprotty-label statementtype" id="sprotty_ArchitectureBlockImpl$aon_osc/AlwaysBlockImpl$null4/labeltype" transform="translate(5, 14) translate(18.828125, 9)" style="cursor:default;font-size:8px;font-weight:700;perspective-origin:0.609375px 0px;fill:rgb(112, 112, 112);text-anchor:middle;">always_ff</text><g id="sprotty_ArchitectureBlockImpl$aon_osc/AlwaysBlockImpl$null4/GPortImpl$en_osc_reIN" transform="translate(0, 30)" class="sprotty-hidden hidden" style="display:block;height:0px;width:0px;"/><g id="sprotty_ArchitectureBlockImpl$aon_osc/AlwaysBlockImpl$null4/GPortImpl$vcore_pok_h_iIN" transform="translate(0, 20)" class="sprotty-hidden hidden" style="display:block;height:0px;width:0px;"/><g id="sprotty_ArchitectureBlockImpl$aon_osc/AlwaysBlockImpl$null4/GPortImpl$clkIN" transform="translate(0, 10)" class="sprotty-hidden hidden" style="display:block;height:0px;width:0px;"/><g id="sprotty_ArchitectureBlockImpl$aon_osc/AlwaysBlockImpl$null4/GPortImpl$en_osc_feOUT" transform="translate(48.890625, 20)" class="sprotty-hidden hidden" style="display:block;height:0px;width:0px;"/></g><g id="sprotty_ArchitectureBlockImpl$aon_osc/AssignmentBlockImpl$aon_clk_o" transform="translate(368.96875, 60)" class="statement"><rect x="0" y="0" rx="10" ry="5" width="19.71875" height="22" class="sprotty-node" style="fill:rgb(245, 245, 245);stroke:rgb(112, 112, 112);"/><text class="clickable sprotty-label statementtype" id="sprotty_ArchitectureBlockImpl$aon_osc/AssignmentBlockImpl$aon_clk_o/labeltype" transform="translate(5, 5) translate(4.71875, 9)" style="cursor:default;font-size:8px;font-weight:700;perspective-origin:0.140625px 0px;fill:rgb(112, 112, 112);text-anchor:middle;">&lt;=</text><g id="sprotty_ArchitectureBlockImpl$aon_osc/AssignmentBlockImpl$aon_clk_o/GPortImpl$clkIN" transform="translate(0, 11)" class="sprotty-hidden hidden" style="display:block;height:0px;width:0px;"/><g id="sprotty_ArchitectureBlockImpl$aon_osc/AssignmentBlockImpl$aon_clk_o/GPortImpl$aon_clk_oOUT" transform="translate(19.71875, 11)" class="sprotty-hidden hidden" style="display:block;height:0px;width:0px;"/></g><g id="sprotty_ArchitectureBlockImpl$aon_osc/AssignmentBlockImpl$en_osc" transform="translate(271.859375, 56)" class="statement"><rect x="0" y="0" rx="10" ry="5" width="19.71875" height="30" class="sprotty-node" style="fill:rgb(245, 245, 245);stroke:rgb(112, 112, 112);"/><text class="clickable sprotty-label statementtype" id="sprotty_ArchitectureBlockImpl$aon_osc/AssignmentBlockImpl$en_osc/labeltype" transform="translate(5, 9) translate(4.71875, 9)" style="cursor:default;font-size:8px;font-weight:700;perspective-origin:0.140625px 0px;fill:rgb(112, 112, 112);text-anchor:middle;">&lt;=</text><g id="sprotty_ArchitectureBlockImpl$aon_osc/AssignmentBlockImpl$en_osc/GPortImpl$en_osc_feIN" transform="translate(0, 10)" class="sprotty-hidden hidden" style="display:block;height:0px;width:0px;"/><g id="sprotty_ArchitectureBlockImpl$aon_osc/AssignmentBlockImpl$en_osc/GPortImpl$en_osc_reIN" transform="translate(0, 20)" class="sprotty-hidden hidden" style="display:block;height:0px;width:0px;"/><g id="sprotty_ArchitectureBlockImpl$aon_osc/AssignmentBlockImpl$en_osc/GPortImpl$en_osc_feOUT" transform="translate(19.71875, 15)" class="sprotty-hidden hidden" style="display:block;height:0px;width:0px;"/></g><g id="sprotty_ArchitectureBlockImpl$aon_osc/AssignmentBlockImpl$en_osc_re" transform="translate(163.25, 80)" class="statement"><rect x="0" y="0" rx="10" ry="5" width="19.71875" height="40" class="sprotty-node" style="fill:rgb(245, 245, 245);stroke:rgb(112, 112, 112);"/><text class="clickable sprotty-label statementtype" id="sprotty_ArchitectureBlockImpl$aon_osc/AssignmentBlockImpl$en_osc_re/labeltype" transform="translate(5, 14) translate(4.71875, 9)" style="cursor:default;font-size:8px;font-weight:700;perspective-origin:0.140625px 0px;fill:rgb(112, 112, 112);text-anchor:middle;">&lt;=</text><g id="sprotty_ArchitectureBlockImpl$aon_osc/AssignmentBlockImpl$en_osc_re/GPortImpl$aon_en_dlyIN" transform="translate(0, 20)" class="sprotty-hidden hidden" style="display:block;height:0px;width:0px;"/><g id="sprotty_ArchitectureBlockImpl$aon_osc/AssignmentBlockImpl$en_osc_re/GPortImpl$aon_en_iIN" transform="translate(0, 30)" class="sprotty-hidden hidden" style="display:block;height:0px;width:0px;"/><g id="sprotty_ArchitectureBlockImpl$aon_osc/AssignmentBlockImpl$en_osc_re/GPortImpl$vcore_pok_h_iIN" transform="translate(0, 10)" class="sprotty-hidden hidden" style="display:block;height:0px;width:0px;"/><g id="sprotty_ArchitectureBlockImpl$aon_osc/AssignmentBlockImpl$en_osc_re/GPortImpl$en_dlyOUT" transform="translate(19.71875, 20)" class="sprotty-hidden hidden" style="display:block;height:0px;width:0px;"/></g><g id="sprotty_ArchitectureBlockImpl$aon_osc/AssignmentBlockImpl$aon_en_dly" transform="translate(123.53125, 89)" class="statement"><rect x="0" y="0" rx="10" ry="5" width="19.71875" height="22" class="sprotty-node" style="fill:rgb(245, 245, 245);stroke:rgb(112, 112, 112);"/><text class="clickable sprotty-label statementtype" id="sprotty_ArchitectureBlockImpl$aon_osc/AssignmentBlockImpl$aon_en_dly/labeltype" transform="translate(5, 5) translate(4.71875, 9)" style="cursor:default;font-size:8px;font-weight:700;perspective-origin:0.140625px 0px;fill:rgb(112, 112, 112);text-anchor:middle;">&lt;=</text><g id="sprotty_ArchitectureBlockImpl$aon_osc/AssignmentBlockImpl$aon_en_dly/GPortImpl$aon_en_iIN" transform="translate(0, 11)" class="sprotty-hidden hidden" style="display:block;height:0px;width:0px;"/><g id="sprotty_ArchitectureBlockImpl$aon_osc/AssignmentBlockImpl$aon_en_dly/GPortImpl$aon_en_dlyOUT" transform="translate(19.71875, 11)" class="sprotty-hidden hidden" style="display:block;height:0px;width:0px;"/></g><g id="sprotty_ArchitectureBlockImpl$aon_osc/BPortImpl$aon_en_i" transform="translate(0, 100)" class="triangle"><path d="M 0,0 L 5,2.5 L 0,5 Z" transform="translate(-1.67, -2.5)" class="sprotty-port" style="fill:rgb(48, 48, 48);stroke:rgb(48, 48, 48);"/><text class="clickable sprotty-label port" id="sprotty_ArchitectureBlockImpl$aon_osc/BPortImpl$aon_en_i/label" transform="translate(6, 6) translate(26.046875, 14)" style="cursor:default;font-size:12px;perspective-origin:0px 0px;fill:rgb(48, 48, 48);text-anchor:middle;">aon_en_i</text></g><g id="sprotty_ArchitectureBlockImpl$aon_osc/BPortImpl$vcore_pok_h_i" transform="translate(0, 66)" class="triangle"><path d="M 0,0 L 5,2.5 L 0,5 Z" transform="translate(-1.67, -2.5)" class="sprotty-port" style="fill:rgb(48, 48, 48);stroke:rgb(48, 48, 48);"/><text class="clickable sprotty-label port" id="sprotty_ArchitectureBlockImpl$aon_osc/BPortImpl$vcore_pok_h_i/label" transform="translate(6, 6) translate(41.265625, 14)" style="cursor:default;font-size:12px;perspective-origin:0px 0px;fill:rgb(48, 48, 48);text-anchor:middle;">vcore_pok_h_i</text></g><g id="sprotty_ArchitectureBlockImpl$aon_osc/BPortImpl$aon_clk_o" transform="translate(467.90625, 71)" class="triangle"><path d="M 0,0 L 5,2.5 L 0,5 Z" transform="translate(-1.67, -2.5)" class="sprotty-port" style="fill:rgb(48, 48, 48);stroke:rgb(48, 48, 48);"/><text class="clickable sprotty-label port" id="sprotty_ArchitectureBlockImpl$aon_osc/BPortImpl$aon_clk_o/label" transform="translate(-64.21875, 6) translate(29.109375, 14)" style="cursor:default;font-size:12px;perspective-origin:0px 0px;fill:rgb(48, 48, 48);text-anchor:middle;">aon_clk_o</text></g></g></g></svg>