<svg xmlns="http://www.w3.org/2000/svg" id="sprotty_work.lc_ctrl_state_transition" class="sprotty-graph sprotty-block-diagram blockdiagram" style="font-family:&quot;Noto Sans&quot;, Helvetica, Arial, sans-serif;perspective-origin:0px 0px;transform-origin:0px 0px;" version="1.1" viewBox="7 7 512.28125 236" width="512.28125" height="236"><g transform="scale(1) translate(0,0)"><g id="sprotty_ArchitectureBlockImpl$lc_ctrl_state_transition" transform="translate(12, 12)" class="architecture"><g class="sprotty-block" style="fill:rgb(255, 255, 255);stroke:rgb(48, 48, 48);stroke-dasharray:0px;"><rect x="0" y="0" rx="1" ry="1" width="502.28125" height="226"/><text x="251.140625" y="12" class="sprotty-block-name" style="cursor:pointer;font-weight:700;perspective-origin:251.141px 0px;fill:rgb(48, 48, 48);stroke:rgba(0, 0, 0, 0);dominant-baseline:middle;text-anchor:middle;">lc_ctrl_state_transition</text><line x1="0" y1="20" x2="502.28125" y2="20"/></g><g id="sprotty_ArchitectureBlockImpl$lc_ctrl_state_transition/AlwaysBlockImpl$p_lc_state_transition/GPortImpl$next_lc_state_oOUT_to_ArchitectureBlockImpl$lc_ctrl_state_transition/BPortImpl$next_lc_state_o" class="sprotty-edge thick edge" style="fill:none;stroke:rgb(112, 112, 112);stroke-linejoin:round;stroke-width:3px;"><g><path d="M 308.65625 121 L 316.65625 121 C 317.65625 121 318.65625 122 318.65625 123 L 318.65625 185 C 318.65625 186 319.65625 187 320.65625 187 L 502.28125 187 "/><path d="M 308.65625 121 L 316.65625 121 C 317.65625 121 318.65625 122 318.65625 123 L 318.65625 185 C 318.65625 186 319.65625 187 320.65625 187 L 502.28125 187 " class="clickable"/></g></g><g id="sprotty_ArchitectureBlockImpl$lc_ctrl_state_transition/AlwaysBlockImpl$p_lc_state_transition/GPortImpl$next_lc_cnt_oOUT_to_ArchitectureBlockImpl$lc_ctrl_state_transition/BPortImpl$next_lc_cnt_o" class="sprotty-edge thick edge" style="fill:none;stroke:rgb(112, 112, 112);stroke-linejoin:round;stroke-width:3px;"><g><path d="M 308.65625 109 L 326.65625 109 C 327.65625 109 328.65625 110 328.65625 111 L 328.65625 151 C 328.65625 152 329.65625 153 330.65625 153 L 502.28125 153 "/><path d="M 308.65625 109 L 326.65625 109 C 327.65625 109 328.65625 110 328.65625 111 L 328.65625 151 C 328.65625 152 329.65625 153 330.65625 153 L 502.28125 153 " class="clickable"/></g></g><g id="sprotty_ArchitectureBlockImpl$lc_ctrl_state_transition/AlwaysBlockImpl$p_lc_state_transition/GPortImpl$trans_cnt_oflw_error_oOUT_to_ArchitectureBlockImpl$lc_ctrl_state_transition/BPortImpl$trans_cnt_oflw_error_o" class="sprotty-edge edge" style="fill:none;stroke:rgb(112, 112, 112);stroke-linejoin:round;"><g><path d="M 308.65625 85 L 502.28125 85 "/><path d="M 308.65625 85 L 502.28125 85 " class="clickable"/></g></g><g id="sprotty_ArchitectureBlockImpl$lc_ctrl_state_transition/AlwaysBlockImpl$p_lc_state_transition/GPortImpl$trans_invalid_error_oOUT_to_ArchitectureBlockImpl$lc_ctrl_state_transition/BPortImpl$trans_invalid_error_o" class="sprotty-edge edge" style="fill:none;stroke:rgb(112, 112, 112);stroke-linejoin:round;"><g><path d="M 308.65625 97 L 336.65625 97 C 337.65625 97 338.65625 98 338.65625 99 L 338.65625 117 C 338.65625 118 339.65625 119 340.65625 119 L 502.28125 119 "/><path d="M 308.65625 97 L 336.65625 97 C 337.65625 97 338.65625 98 338.65625 99 L 338.65625 117 C 338.65625 118 339.65625 119 340.65625 119 L 502.28125 119 " class="clickable"/></g></g><g id="sprotty_ArchitectureBlockImpl$lc_ctrl_state_transition/BPortImpl$lc_cnt_i_to_ArchitectureBlockImpl$lc_ctrl_state_transition/AlwaysBlockImpl$p_lc_state_transition/GPortImpl$lc_cnt_iIN" class="sprotty-edge thick edge" style="fill:none;stroke:rgb(112, 112, 112);stroke-linejoin:round;stroke-width:3px;"><g><path d="M 0 35 L 119.34375 35 C 120.34375 35 121.34375 36 121.34375 37 L 121.34375 81 C 121.34375 82 122.34375 83 123.34375 83 L 131.34375 83 "/><path d="M 0 35 L 119.34375 35 C 120.34375 35 121.34375 36 121.34375 37 L 121.34375 81 C 121.34375 82 122.34375 83 123.34375 83 L 131.34375 83 " class="clickable"/></g></g><g id="sprotty_ArchitectureBlockImpl$lc_ctrl_state_transition/BPortImpl$lc_state_i_to_ArchitectureBlockImpl$lc_ctrl_state_transition/AlwaysBlockImpl$p_lc_state_transition/GPortImpl$lc_state_iIN" class="sprotty-edge thick edge" style="fill:none;stroke:rgb(112, 112, 112);stroke-linejoin:round;stroke-width:3px;"><g><path d="M 0 171 L 119.34375 171 C 120.34375 171 121.34375 170 121.34375 169 L 121.34375 125 C 121.34375 124 122.34375 123 123.34375 123 L 131.34375 123 "/><path d="M 0 171 L 119.34375 171 C 120.34375 171 121.34375 170 121.34375 169 L 121.34375 125 C 121.34375 124 122.34375 123 123.34375 123 L 131.34375 123 " class="clickable"/></g></g><g id="sprotty_ArchitectureBlockImpl$lc_ctrl_state_transition/BPortImpl$fsm_state_i_to_ArchitectureBlockImpl$lc_ctrl_state_transition/AlwaysBlockImpl$p_lc_state_transition/GPortImpl$fsm_state_iIN" class="sprotty-edge thick edge" style="fill:none;stroke:rgb(112, 112, 112);stroke-linejoin:round;stroke-width:3px;"><g><path d="M 0 137 L 109.34375 137 C 110.34375 137 111.34375 136 111.34375 135 L 111.34375 115 C 111.34375 114 112.34375 113 113.34375 113 L 131.34375 113 "/><path d="M 0 137 L 109.34375 137 C 110.34375 137 111.34375 136 111.34375 135 L 111.34375 115 C 111.34375 114 112.34375 113 113.34375 113 L 131.34375 113 " class="clickable"/></g></g><g id="sprotty_ArchitectureBlockImpl$lc_ctrl_state_transition/BPortImpl$dec_lc_state_i_to_ArchitectureBlockImpl$lc_ctrl_state_transition/AlwaysBlockImpl$p_lc_state_transition/GPortImpl$dec_lc_state_iIN" class="sprotty-edge thick edge" style="fill:none;stroke:rgb(112, 112, 112);stroke-linejoin:round;stroke-width:3px;"><g><path d="M 0 103 L 131.34375 103 "/><path d="M 0 103 L 131.34375 103 " class="clickable"/></g></g><g id="sprotty_ArchitectureBlockImpl$lc_ctrl_state_transition/BPortImpl$trans_target_i_to_ArchitectureBlockImpl$lc_ctrl_state_transition/AlwaysBlockImpl$p_lc_state_transition/GPortImpl$trans_target_iIN" class="sprotty-edge thick edge" style="fill:none;stroke:rgb(112, 112, 112);stroke-linejoin:round;stroke-width:3px;"><g><path d="M 0 69 L 109.34375 69 C 110.34375 69 111.34375 70 111.34375 71 L 111.34375 91 C 111.34375 92 112.34375 93 113.34375 93 L 131.34375 93 "/><path d="M 0 69 L 109.34375 69 C 110.34375 69 111.34375 70 111.34375 71 L 111.34375 91 C 111.34375 92 112.34375 93 113.34375 93 L 131.34375 93 " class="clickable"/></g></g><g id="sprotty_ArchitectureBlockImpl$lc_ctrl_state_transition/AlwaysBlockImpl$p_lc_state_transition" transform="translate(131.34375, 73)" class="statement"><rect x="0" y="0" rx="10" ry="5" width="177.3125" height="60" class="sprotty-node" style="fill:rgb(245, 245, 245);stroke:rgb(112, 112, 112);"/><text class="clickable sprotty-label statementtext" id="sprotty_ArchitectureBlockImpl$lc_ctrl_state_transition/AlwaysBlockImpl$p_lc_state_transition/labeltext" transform="translate(5, 12) translate(83.65625, 19)" style="cursor:default;font-weight:700;perspective-origin:0px 0px;fill:rgb(112, 112, 112);text-anchor:middle;">p_lc_state_transition</text><text class="clickable sprotty-label statementtype" id="sprotty_ArchitectureBlockImpl$lc_ctrl_state_transition/AlwaysBlockImpl$p_lc_state_transition/labeltype" transform="translate(61.78125, 36) translate(26.875, 9)" style="cursor:default;font-size:8px;font-weight:700;perspective-origin:0px 0px;fill:rgb(112, 112, 112);text-anchor:middle;">always_comb</text><g id="sprotty_ArchitectureBlockImpl$lc_ctrl_state_transition/AlwaysBlockImpl$p_lc_state_transition/GPortImpl$trans_target_iIN" transform="translate(0, 20)" class="sprotty-hidden hidden" style="display:block;height:0px;width:0px;"/><g id="sprotty_ArchitectureBlockImpl$lc_ctrl_state_transition/AlwaysBlockImpl$p_lc_state_transition/GPortImpl$dec_lc_state_iIN" transform="translate(0, 30)" class="sprotty-hidden hidden" style="display:block;height:0px;width:0px;"/><g id="sprotty_ArchitectureBlockImpl$lc_ctrl_state_transition/AlwaysBlockImpl$p_lc_state_transition/GPortImpl$fsm_state_iIN" transform="translate(0, 40)" class="sprotty-hidden hidden" style="display:block;height:0px;width:0px;"/><g id="sprotty_ArchitectureBlockImpl$lc_ctrl_state_transition/AlwaysBlockImpl$p_lc_state_transition/GPortImpl$lc_state_iIN" transform="translate(0, 50)" class="sprotty-hidden hidden" style="display:block;height:0px;width:0px;"/><g id="sprotty_ArchitectureBlockImpl$lc_ctrl_state_transition/AlwaysBlockImpl$p_lc_state_transition/GPortImpl$lc_cnt_iIN" transform="translate(0, 10)" class="sprotty-hidden hidden" style="display:block;height:0px;width:0px;"/><g id="sprotty_ArchitectureBlockImpl$lc_ctrl_state_transition/AlwaysBlockImpl$p_lc_state_transition/GPortImpl$next_lc_cnt_oOUT" transform="translate(177.3125, 36)" class="sprotty-hidden hidden" style="display:block;height:0px;width:0px;"/><g id="sprotty_ArchitectureBlockImpl$lc_ctrl_state_transition/AlwaysBlockImpl$p_lc_state_transition/GPortImpl$next_lc_state_oOUT" transform="translate(177.3125, 48)" class="sprotty-hidden hidden" style="display:block;height:0px;width:0px;"/><g id="sprotty_ArchitectureBlockImpl$lc_ctrl_state_transition/AlwaysBlockImpl$p_lc_state_transition/GPortImpl$trans_cnt_oflw_error_oOUT" transform="translate(177.3125, 12)" class="sprotty-hidden hidden" style="display:block;height:0px;width:0px;"/><g id="sprotty_ArchitectureBlockImpl$lc_ctrl_state_transition/AlwaysBlockImpl$p_lc_state_transition/GPortImpl$trans_invalid_error_oOUT" transform="translate(177.3125, 24)" class="sprotty-hidden hidden" style="display:block;height:0px;width:0px;"/></g><g id="sprotty_ArchitectureBlockImpl$lc_ctrl_state_transition/BPortImpl$trans_target_i" transform="translate(0, 69)" class="triangle"><path d="M 0,0 L 5,2.5 L 0,5 Z" transform="translate(-1.67, -2.5)" class="sprotty-port" style="fill:rgb(48, 48, 48);stroke:rgb(48, 48, 48);"/><text class="clickable sprotty-label port" id="sprotty_ArchitectureBlockImpl$lc_ctrl_state_transition/BPortImpl$trans_target_i/label" transform="translate(6, 6) translate(39.21875, 14)" style="cursor:default;font-size:12px;perspective-origin:0px 0px;fill:rgb(48, 48, 48);text-anchor:middle;">trans_target_i</text></g><g id="sprotty_ArchitectureBlockImpl$lc_ctrl_state_transition/BPortImpl$dec_lc_state_i" transform="translate(0, 103)" class="triangle"><path d="M 0,0 L 5,2.5 L 0,5 Z" transform="translate(-1.67, -2.5)" class="sprotty-port" style="fill:rgb(48, 48, 48);stroke:rgb(48, 48, 48);"/><text class="clickable sprotty-label port" id="sprotty_ArchitectureBlockImpl$lc_ctrl_state_transition/BPortImpl$dec_lc_state_i/label" transform="translate(6, 6) translate(40.171875, 14)" style="cursor:default;font-size:12px;perspective-origin:0px 0px;fill:rgb(48, 48, 48);text-anchor:middle;">dec_lc_state_i</text></g><g id="sprotty_ArchitectureBlockImpl$lc_ctrl_state_transition/BPortImpl$fsm_state_i" transform="translate(0, 137)" class="triangle"><path d="M 0,0 L 5,2.5 L 0,5 Z" transform="translate(-1.67, -2.5)" class="sprotty-port" style="fill:rgb(48, 48, 48);stroke:rgb(48, 48, 48);"/><text class="clickable sprotty-label port" id="sprotty_ArchitectureBlockImpl$lc_ctrl_state_transition/BPortImpl$fsm_state_i/label" transform="translate(6, 6) translate(32.234375, 14)" style="cursor:default;font-size:12px;perspective-origin:0px 0px;fill:rgb(48, 48, 48);text-anchor:middle;">fsm_state_i</text></g><g id="sprotty_ArchitectureBlockImpl$lc_ctrl_state_transition/BPortImpl$lc_cnt_i" transform="translate(0, 35)" class="triangle"><path d="M 0,0 L 5,2.5 L 0,5 Z" transform="translate(-1.67, -2.5)" class="sprotty-port" style="fill:rgb(48, 48, 48);stroke:rgb(48, 48, 48);"/><text class="clickable sprotty-label port" id="sprotty_ArchitectureBlockImpl$lc_ctrl_state_transition/BPortImpl$lc_cnt_i/label" transform="translate(6, 6) translate(22.109375, 14)" style="cursor:default;font-size:12px;perspective-origin:0px 0px;fill:rgb(48, 48, 48);text-anchor:middle;">lc_cnt_i</text></g><g id="sprotty_ArchitectureBlockImpl$lc_ctrl_state_transition/BPortImpl$lc_state_i" transform="translate(0, 171)" class="triangle"><path d="M 0,0 L 5,2.5 L 0,5 Z" transform="translate(-1.67, -2.5)" class="sprotty-port" style="fill:rgb(48, 48, 48);stroke:rgb(48, 48, 48);"/><text class="clickable sprotty-label port" id="sprotty_ArchitectureBlockImpl$lc_ctrl_state_transition/BPortImpl$lc_state_i/label" transform="translate(6, 6) translate(26.71875, 14)" style="cursor:default;font-size:12px;perspective-origin:0px 0px;fill:rgb(48, 48, 48);text-anchor:middle;">lc_state_i</text></g><g id="sprotty_ArchitectureBlockImpl$lc_ctrl_state_transition/BPortImpl$next_lc_state_o" transform="translate(502.28125, 187)" class="triangle"><path d="M 0,0 L 5,2.5 L 0,5 Z" transform="translate(-1.67, -2.5)" class="sprotty-port" style="fill:rgb(48, 48, 48);stroke:rgb(48, 48, 48);"/><text class="clickable sprotty-label port" id="sprotty_ArchitectureBlockImpl$lc_ctrl_state_transition/BPortImpl$next_lc_state_o/label" transform="translate(-94.15625, 6) translate(44.078125, 14)" style="cursor:default;font-size:12px;perspective-origin:0px 0px;fill:rgb(48, 48, 48);text-anchor:middle;">next_lc_state_o</text></g><g id="sprotty_ArchitectureBlockImpl$lc_ctrl_state_transition/BPortImpl$next_lc_cnt_o" transform="translate(502.28125, 153)" class="triangle"><path d="M 0,0 L 5,2.5 L 0,5 Z" transform="translate(-1.67, -2.5)" class="sprotty-port" style="fill:rgb(48, 48, 48);stroke:rgb(48, 48, 48);"/><text class="clickable sprotty-label port" id="sprotty_ArchitectureBlockImpl$lc_ctrl_state_transition/BPortImpl$next_lc_cnt_o/label" transform="translate(-84.96875, 6) translate(39.484375, 14)" style="cursor:default;font-size:12px;perspective-origin:0px 0px;fill:rgb(48, 48, 48);text-anchor:middle;">next_lc_cnt_o</text></g><g id="sprotty_ArchitectureBlockImpl$lc_ctrl_state_transition/BPortImpl$trans_cnt_oflw_error_o" transform="translate(502.28125, 85)" class="triangle"><path d="M 0,0 L 5,2.5 L 0,5 Z" transform="translate(-1.67, -2.5)" class="sprotty-port" style="fill:rgb(48, 48, 48);stroke:rgb(48, 48, 48);"/><text class="clickable sprotty-label port" id="sprotty_ArchitectureBlockImpl$lc_ctrl_state_transition/BPortImpl$trans_cnt_oflw_error_o/label" transform="translate(-138.625, 6) translate(66.3125, 14)" style="cursor:default;font-size:12px;perspective-origin:0px 0px;fill:rgb(48, 48, 48);text-anchor:middle;">trans_cnt_oflw_error_o</text></g><g id="sprotty_ArchitectureBlockImpl$lc_ctrl_state_transition/BPortImpl$trans_invalid_error_o" transform="translate(502.28125, 119)" class="triangle"><path d="M 0,0 L 5,2.5 L 0,5 Z" transform="translate(-1.67, -2.5)" class="sprotty-port" style="fill:rgb(48, 48, 48);stroke:rgb(48, 48, 48);"/><text class="clickable sprotty-label port" id="sprotty_ArchitectureBlockImpl$lc_ctrl_state_transition/BPortImpl$trans_invalid_error_o/label" transform="translate(-127.28125, 6) translate(60.640625, 14)" style="cursor:default;font-size:12px;perspective-origin:0px 0px;fill:rgb(48, 48, 48);text-anchor:middle;">trans_invalid_error_o</text></g></g></g></svg>