<svg xmlns="http://www.w3.org/2000/svg" id="sprotty_work.rstmgr_ctrl" class="sprotty-graph sprotty-block-diagram blockdiagram" style="font-family:&quot;Noto Sans&quot;, Helvetica, Arial, sans-serif;perspective-origin:0px 0px;transform-origin:0px 0px;" version="1.1" viewBox="7 7 824.71875 278" width="824.71875" height="278"><g transform="scale(1) translate(0,0)"><g id="sprotty_ArchitectureBlockImpl$rstmgr_ctrl" transform="translate(12, 12)" class="architecture"><g class="sprotty-block" style="fill:rgb(255, 255, 255);stroke:rgb(48, 48, 48);stroke-dasharray:0px;"><rect x="0" y="0" rx="1" ry="1" width="814.71875" height="268"/><text x="407.359375" y="12" class="sprotty-block-name" style="cursor:pointer;font-weight:700;perspective-origin:407.359px 0px;fill:rgb(48, 48, 48);stroke:rgba(0, 0, 0, 0);dominant-baseline:middle;text-anchor:middle;">rstmgr_ctrl</text><line x1="0" y1="20" x2="814.71875" y2="20"/></g><g id="sprotty_ArchitectureBlockImpl$rstmgr_ctrl/AssignmentBlockImpl$rst_no/GPortImpl$rst_noOUT_to_ArchitectureBlockImpl$rstmgr_ctrl/BPortImpl$rst_no" class="sprotty-edge thick edge" style="fill:none;stroke:rgb(112, 112, 112);stroke-linejoin:round;stroke-width:3px;"><g><path d="M 757.90625 229 L 814.71875 229 "/><path d="M 757.90625 229 L 814.71875 229 " class="clickable"/></g></g><g id="sprotty_ArchitectureBlockImpl$rstmgr_ctrl/BPortImpl$clk_i_to_ArchitectureBlockImpl$rstmgr_ctrl/InstantiationBlockImpl$u_lc/BPortImpl$clk_i" class="sprotty-edge edge" style="fill:none;stroke:rgb(112, 112, 112);stroke-linejoin:round;"><g><path d="M 0 36 L 114.59375 36 C 115.59375 36 116.59375 37 116.59375 38 L 116.59375 118 C 116.59375 119 117.59375 120 118.59375 120 L 126.59375 120 "/><path d="M 0 36 L 114.59375 36 C 115.59375 36 116.59375 37 116.59375 38 L 116.59375 118 C 116.59375 119 117.59375 120 118.59375 120 L 126.59375 120 " class="clickable"/></g><circle r="2" id="sprotty_ArchitectureBlockImpl$rstmgr_ctrl/BPortImpl$clk_i_to_ArchitectureBlockImpl$rstmgr_ctrl/InstantiationBlockImpl$u_lc/BPortImpl$clk_i/junction0" transform="translate(116.59375, 36)" class="sprotty-junction junction" style="fill:rgb(112, 112, 112);stroke:none;"/></g><g id="sprotty_ArchitectureBlockImpl$rstmgr_ctrl/BPortImpl$rst_ni_to_ArchitectureBlockImpl$rstmgr_ctrl/InstantiationBlockImpl$u_lc/BPortImpl$rst_ni" class="sprotty-edge edge" style="fill:none;stroke:rgb(112, 112, 112);stroke-linejoin:round;"><g><path d="M 0 70 L 104.59375 70 C 105.59375 70 106.59375 71 106.59375 72 L 106.59375 146 C 106.59375 147 107.59375 148 108.59375 148 L 126.59375 148 "/><path d="M 0 70 L 104.59375 70 C 105.59375 70 106.59375 71 106.59375 72 L 106.59375 146 C 106.59375 147 107.59375 148 108.59375 148 L 126.59375 148 " class="clickable"/></g><circle r="2" id="sprotty_ArchitectureBlockImpl$rstmgr_ctrl/BPortImpl$rst_ni_to_ArchitectureBlockImpl$rstmgr_ctrl/InstantiationBlockImpl$u_lc/BPortImpl$rst_ni/junction0" transform="translate(106.59375, 70)" class="sprotty-junction junction" style="fill:rgb(112, 112, 112);stroke:none;"/></g><g id="sprotty_ArchitectureBlockImpl$rstmgr_ctrl/BPortImpl$rst_parent_ni_to_ArchitectureBlockImpl$rstmgr_ctrl/InstantiationBlockImpl$u_lc/BPortImpl$d_i" class="sprotty-edge thick edge" style="fill:none;stroke:rgb(112, 112, 112);stroke-linejoin:round;stroke-width:3px;"><g><path d="M 0 176 L 126.59375 176 "/><path d="M 0 176 L 126.59375 176 " class="clickable"/></g></g><g id="sprotty_ArchitectureBlockImpl$rstmgr_ctrl/BPortImpl$clk_i_to_ArchitectureBlockImpl$rstmgr_ctrl/InstantiationBlockImpl$u_aon_rst/BPortImpl$clk_i" class="sprotty-edge edge" style="fill:none;stroke:rgb(112, 112, 112);stroke-linejoin:round;"><g><path d="M 0 36 L 330.0625 36 C 331.0625 36 332.0625 37 332.0625 38 L 332.0625 90 C 332.0625 91 333.0625 92 334.0625 92 L 342.0625 92 "/><path d="M 0 36 L 330.0625 36 C 331.0625 36 332.0625 37 332.0625 38 L 332.0625 90 C 332.0625 91 333.0625 92 334.0625 92 L 342.0625 92 " class="clickable"/></g><circle r="2" id="sprotty_ArchitectureBlockImpl$rstmgr_ctrl/BPortImpl$clk_i_to_ArchitectureBlockImpl$rstmgr_ctrl/InstantiationBlockImpl$u_aon_rst/BPortImpl$clk_i/junction0" transform="translate(332.0625, 36)" class="sprotty-junction junction" style="fill:rgb(112, 112, 112);stroke:none;"/></g><g id="sprotty_ArchitectureBlockImpl$rstmgr_ctrl/BPortImpl$rst_ni_to_ArchitectureBlockImpl$rstmgr_ctrl/InstantiationBlockImpl$u_aon_rst/BPortImpl$rst_ni" class="sprotty-edge edge" style="fill:none;stroke:rgb(112, 112, 112);stroke-linejoin:round;"><g><path d="M 0 70 L 320.0625 70 C 321.0625 70 322.0625 71 322.0625 72 L 322.0625 118 C 322.0625 119 323.0625 120 324.0625 120 L 342.0625 120 "/><path d="M 0 70 L 320.0625 70 C 321.0625 70 322.0625 71 322.0625 72 L 322.0625 118 C 322.0625 119 323.0625 120 324.0625 120 L 342.0625 120 " class="clickable"/></g></g><g id="sprotty_ArchitectureBlockImpl$rstmgr_ctrl/BPortImpl$rst_req_i_to_ArchitectureBlockImpl$rstmgr_ctrl/InstantiationBlockImpl$u_aon_rst/BPortImpl$d_i" class="sprotty-edge thick edge" style="fill:none;stroke:rgb(112, 112, 112);stroke-linejoin:round;stroke-width:3px;"><g><path d="M 0 210 L 320.0625 210 C 321.0625 210 322.0625 209 322.0625 208 L 322.0625 150 C 322.0625 149 323.0625 148 324.0625 148 L 342.0625 148 "/><path d="M 0 210 L 320.0625 210 C 321.0625 210 322.0625 209 322.0625 208 L 322.0625 150 C 322.0625 149 323.0625 148 324.0625 148 L 342.0625 148 " class="clickable"/></g><circle r="3" id="sprotty_ArchitectureBlockImpl$rstmgr_ctrl/BPortImpl$rst_req_i_to_ArchitectureBlockImpl$rstmgr_ctrl/InstantiationBlockImpl$u_aon_rst/BPortImpl$d_i/junction0" transform="translate(322.0625, 210)" class="sprotty-junction thick" style="fill:rgb(112, 112, 112);stroke:none;"/></g><g id="sprotty_ArchitectureBlockImpl$rstmgr_ctrl/BPortImpl$clk_i_to_ArchitectureBlockImpl$rstmgr_ctrl/InstantiationBlockImpl$u_pd_rst/BPortImpl$clk_i" class="sprotty-edge edge" style="fill:none;stroke:rgb(112, 112, 112);stroke-linejoin:round;"><g><path d="M 0 36 L 537.6875 36 C 538.6875 36 539.6875 37 539.6875 38 L 539.6875 147 C 539.6875 148 540.6875 149 541.6875 149 L 549.6875 149 "/><path d="M 0 36 L 537.6875 36 C 538.6875 36 539.6875 37 539.6875 38 L 539.6875 147 C 539.6875 148 540.6875 149 541.6875 149 L 549.6875 149 " class="clickable"/></g></g><g id="sprotty_ArchitectureBlockImpl$rstmgr_ctrl/BPortImpl$rst_req_i_to_ArchitectureBlockImpl$rstmgr_ctrl/AssignmentBlockImpl$rst_pd_nd/GPortImpl$rst_req_iIN" class="sprotty-edge thick edge" style="fill:none;stroke:rgb(112, 112, 112);stroke-linejoin:round;stroke-width:3px;"><g><path d="M 0 210 L 394.6979166666667 210 "/><path d="M 0 210 L 394.6979166666667 210 " class="clickable"/></g></g><g id="sprotty_ArchitectureBlockImpl$rstmgr_ctrl/InstantiationBlockImpl$u_aon_rst/BPortImpl$q_o_to_ArchitectureBlockImpl$rstmgr_ctrl/InstantiationBlockImpl$u_pd_rst/BPortImpl$rst_ni" class="sprotty-edge edge" style="fill:none;stroke:rgb(112, 112, 112);stroke-linejoin:round;"><g><path d="M 519.6875 120 L 527.6875 120 C 528.6875 120 529.6875 121 529.6875 122 L 529.6875 175 C 529.6875 176 530.6875 177 531.6875 177 L 549.6875 177 "/><path d="M 519.6875 120 L 527.6875 120 C 528.6875 120 529.6875 121 529.6875 122 L 529.6875 175 C 529.6875 176 530.6875 177 531.6875 177 L 549.6875 177 " class="clickable"/></g><circle r="2" id="sprotty_ArchitectureBlockImpl$rstmgr_ctrl/InstantiationBlockImpl$u_aon_rst/BPortImpl$q_o_to_ArchitectureBlockImpl$rstmgr_ctrl/InstantiationBlockImpl$u_pd_rst/BPortImpl$rst_ni/junction0" transform="translate(529.6875, 177)" class="sprotty-junction junction" style="fill:rgb(112, 112, 112);stroke:none;"/></g><g id="sprotty_ArchitectureBlockImpl$rstmgr_ctrl/InstantiationBlockImpl$u_aon_rst/BPortImpl$q_o_to_ArchitectureBlockImpl$rstmgr_ctrl/AssignmentBlockImpl$rst_no/GPortImpl$rst_aon_nqIN" class="sprotty-edge edge" style="fill:none;stroke:rgb(112, 112, 112);stroke-linejoin:round;"><g><path d="M 519.6875 120 L 527.6875 120 C 528.6875 120 529.6875 121 529.6875 122 L 529.6875 232 C 529.6875 233 530.6875 234 531.6875 234 L 738.1875 234 "/><path d="M 519.6875 120 L 527.6875 120 C 528.6875 120 529.6875 121 529.6875 122 L 529.6875 232 C 529.6875 233 530.6875 234 531.6875 234 L 738.1875 234 " class="clickable"/></g></g><g id="sprotty_ArchitectureBlockImpl$rstmgr_ctrl/AssignmentBlockImpl$rst_pd_nd/GPortImpl$rst_parent_syncedOUT_to_ArchitectureBlockImpl$rstmgr_ctrl/InstantiationBlockImpl$u_pd_rst/BPortImpl$d_i" class="sprotty-edge thick edge" style="fill:none;stroke:rgb(112, 112, 112);stroke-linejoin:round;stroke-width:3px;"><g><path d="M 414.4166666666667 205 L 549.6875 205 "/><path d="M 414.4166666666667 205 L 549.6875 205 " class="clickable"/></g></g><g id="sprotty_ArchitectureBlockImpl$rstmgr_ctrl/InstantiationBlockImpl$u_pd_rst/BPortImpl$q_o_to_ArchitectureBlockImpl$rstmgr_ctrl/AssignmentBlockImpl$rst_no/GPortImpl$rst_pd_nqIN" class="sprotty-edge thick edge" style="fill:none;stroke:rgb(112, 112, 112);stroke-linejoin:round;stroke-width:3px;"><g><path d="M 718.1875 177 L 726.1875 177 C 727.1875 177 728.1875 178 728.1875 179 L 728.1875 222 C 728.1875 223 729.1875 224 730.1875 224 L 738.1875 224 "/><path d="M 718.1875 177 L 726.1875 177 C 727.1875 177 728.1875 178 728.1875 179 L 728.1875 222 C 728.1875 223 729.1875 224 730.1875 224 L 738.1875 224 " class="clickable"/></g></g><g id="sprotty_ArchitectureBlockImpl$rstmgr_ctrl/InstantiationBlockImpl$u_lc/BPortImpl$q_o_to_ArchitectureBlockImpl$rstmgr_ctrl/InstantiationBlockImpl$u_aon_rst/BPortImpl$d_i" class="sprotty-edge thick edge" style="fill:none;stroke:rgb(112, 112, 112);stroke-linejoin:round;stroke-width:3px;"><g><path d="M 312.0625 148 L 342.0625 148 "/><path d="M 312.0625 148 L 342.0625 148 " class="clickable"/></g></g><g id="sprotty_ArchitectureBlockImpl$rstmgr_ctrl/InstantiationBlockImpl$u_lc/BPortImpl$q_o_to_ArchitectureBlockImpl$rstmgr_ctrl/AssignmentBlockImpl$rst_pd_nd/GPortImpl$rst_parent_syncedIN" class="sprotty-edge thick edge" style="fill:none;stroke:rgb(112, 112, 112);stroke-linejoin:round;stroke-width:3px;"><g><path d="M 312.0625 148 L 320.0625 148 C 321.0625 148 322.0625 149 322.0625 150 L 322.0625 198 C 322.0625 199 323.0625 200 324.0625 200 L 394.6979166666667 200 "/><path d="M 312.0625 148 L 320.0625 148 C 321.0625 148 322.0625 149 322.0625 150 L 322.0625 198 C 322.0625 199 323.0625 200 324.0625 200 L 394.6979166666667 200 " class="clickable"/></g><circle r="3" id="sprotty_ArchitectureBlockImpl$rstmgr_ctrl/InstantiationBlockImpl$u_lc/BPortImpl$q_o_to_ArchitectureBlockImpl$rstmgr_ctrl/AssignmentBlockImpl$rst_pd_nd/GPortImpl$rst_parent_syncedIN/junction0" transform="translate(322.0625, 148)" class="sprotty-junction thick" style="fill:rgb(112, 112, 112);stroke:none;"/><circle r="3" id="sprotty_ArchitectureBlockImpl$rstmgr_ctrl/InstantiationBlockImpl$u_lc/BPortImpl$q_o_to_ArchitectureBlockImpl$rstmgr_ctrl/AssignmentBlockImpl$rst_pd_nd/GPortImpl$rst_parent_syncedIN/junction1" transform="translate(322.0625, 200)" class="sprotty-junction thick" style="fill:rgb(112, 112, 112);stroke:none;"/></g><g id="sprotty_ArchitectureBlockImpl$rstmgr_ctrl/AssignmentBlockImpl$rst_no" transform="translate(738.1875, 214)" class="statement"><rect x="0" y="0" rx="10" ry="5" width="19.71875" height="30" class="sprotty-node" style="fill:rgb(245, 245, 245);stroke:rgb(112, 112, 112);"/><text class="clickable sprotty-label statementtype" id="sprotty_ArchitectureBlockImpl$rstmgr_ctrl/AssignmentBlockImpl$rst_no/labeltype" transform="translate(5, 9) translate(4.71875, 9)" style="cursor:default;font-size:8px;font-weight:700;perspective-origin:0.140625px 0px;fill:rgb(112, 112, 112);text-anchor:middle;">&lt;=</text><g id="sprotty_ArchitectureBlockImpl$rstmgr_ctrl/AssignmentBlockImpl$rst_no/GPortImpl$rst_aon_nqIN" transform="translate(0, 20)" class="sprotty-hidden hidden" style="display:block;height:0px;width:0px;"/><g id="sprotty_ArchitectureBlockImpl$rstmgr_ctrl/AssignmentBlockImpl$rst_no/GPortImpl$rst_pd_nqIN" transform="translate(0, 10)" class="sprotty-hidden hidden" style="display:block;height:0px;width:0px;"/><g id="sprotty_ArchitectureBlockImpl$rstmgr_ctrl/AssignmentBlockImpl$rst_no/GPortImpl$rst_noOUT" transform="translate(19.71875, 15)" class="sprotty-hidden hidden" style="display:block;height:0px;width:0px;"/></g><g id="sprotty_ArchitectureBlockImpl$rstmgr_ctrl/AssignmentBlockImpl$rst_pd_nd" transform="translate(394.6979166666667, 190)" class="statement"><rect x="0" y="0" rx="10" ry="5" width="19.71875" height="30" class="sprotty-node" style="fill:rgb(245, 245, 245);stroke:rgb(112, 112, 112);"/><text class="clickable sprotty-label statementtype" id="sprotty_ArchitectureBlockImpl$rstmgr_ctrl/AssignmentBlockImpl$rst_pd_nd/labeltype" transform="translate(5, 9) translate(4.71875, 9)" style="cursor:default;font-size:8px;font-weight:700;perspective-origin:0.140625px 0px;fill:rgb(112, 112, 112);text-anchor:middle;">&lt;=</text><g id="sprotty_ArchitectureBlockImpl$rstmgr_ctrl/AssignmentBlockImpl$rst_pd_nd/GPortImpl$rst_parent_syncedIN" transform="translate(0, 10)" class="sprotty-hidden hidden" style="display:block;height:0px;width:0px;"/><g id="sprotty_ArchitectureBlockImpl$rstmgr_ctrl/AssignmentBlockImpl$rst_pd_nd/GPortImpl$rst_req_iIN" transform="translate(0, 20)" class="sprotty-hidden hidden" style="display:block;height:0px;width:0px;"/><g id="sprotty_ArchitectureBlockImpl$rstmgr_ctrl/AssignmentBlockImpl$rst_pd_nd/GPortImpl$rst_parent_syncedOUT" transform="translate(19.71875, 15)" class="sprotty-hidden hidden" style="display:block;height:0px;width:0px;"/></g><g id="sprotty_ArchitectureBlockImpl$rstmgr_ctrl/InstantiationBlockImpl$u_pd_rst" transform="translate(549.6875, 111)" class="instantiation"><g class="sprotty-block" style="fill:rgb(255, 255, 255);stroke:rgb(48, 48, 48);stroke-dasharray:0px;"><rect x="0" y="0" rx="1" ry="1" width="168.5" height="112"/><text x="84.25" y="12" class="sprotty-block-name" style="cursor:pointer;font-weight:700;perspective-origin:84.25px 0px;fill:rgb(48, 48, 48);stroke:rgba(0, 0, 0, 0);dominant-baseline:middle;text-anchor:middle;">u_pd_rst : prim_flop</text><line x1="0" y1="20" x2="168.5" y2="20"/></g><g id="sprotty_ArchitectureBlockImpl$rstmgr_ctrl/InstantiationBlockImpl$u_pd_rst/BPortImpl$d_i" transform="translate(0, 94)" class="triangle"><path d="M 0,0 L 5,2.5 L 0,5 Z" transform="translate(-1.67, -2.5)" class="sprotty-port" style="fill:rgb(48, 48, 48);stroke:rgb(48, 48, 48);"/><text class="clickable sprotty-label port" id="sprotty_ArchitectureBlockImpl$rstmgr_ctrl/InstantiationBlockImpl$u_pd_rst/BPortImpl$d_i/label" transform="translate(6, -9) translate(8.734375, 14)" style="cursor:default;font-size:12px;perspective-origin:0px 0px;fill:rgb(48, 48, 48);text-anchor:middle;">d_i</text></g><g id="sprotty_ArchitectureBlockImpl$rstmgr_ctrl/InstantiationBlockImpl$u_pd_rst/BPortImpl$rst_ni" transform="translate(0, 66)" class="triangle"><path d="M 0,0 L 5,2.5 L 0,5 Z" transform="translate(-1.67, -2.5)" class="sprotty-port" style="fill:rgb(48, 48, 48);stroke:rgb(48, 48, 48);"/><text class="clickable sprotty-label port" id="sprotty_ArchitectureBlockImpl$rstmgr_ctrl/InstantiationBlockImpl$u_pd_rst/BPortImpl$rst_ni/label" transform="translate(6, -9) translate(15.921875, 14)" style="cursor:default;font-size:12px;perspective-origin:0px 0px;fill:rgb(48, 48, 48);text-anchor:middle;">rst_ni</text></g><g id="sprotty_ArchitectureBlockImpl$rstmgr_ctrl/InstantiationBlockImpl$u_pd_rst/BPortImpl$clk_i" transform="translate(0, 38)" class="triangle"><path d="M 0,0 L 5,2.5 L 0,5 Z" transform="translate(-1.67, -2.5)" class="sprotty-port" style="fill:rgb(48, 48, 48);stroke:rgb(48, 48, 48);"/><text class="clickable sprotty-label port" id="sprotty_ArchitectureBlockImpl$rstmgr_ctrl/InstantiationBlockImpl$u_pd_rst/BPortImpl$clk_i/label" transform="translate(6, -9) translate(13.09375, 14)" style="cursor:default;font-size:12px;perspective-origin:0px 0px;fill:rgb(48, 48, 48);text-anchor:middle;">clk_i</text></g><g id="sprotty_ArchitectureBlockImpl$rstmgr_ctrl/InstantiationBlockImpl$u_pd_rst/BPortImpl$q_o" transform="translate(168.5, 66)" class="triangle"><path d="M 0,0 L 5,2.5 L 0,5 Z" transform="translate(-1.67, -2.5)" class="sprotty-port" style="fill:rgb(48, 48, 48);stroke:rgb(48, 48, 48);"/><text class="clickable sprotty-label port" id="sprotty_ArchitectureBlockImpl$rstmgr_ctrl/InstantiationBlockImpl$u_pd_rst/BPortImpl$q_o/label" transform="translate(-27.4375, -9) translate(10.71875, 14)" style="cursor:default;font-size:12px;perspective-origin:0px 0px;fill:rgb(48, 48, 48);text-anchor:middle;">q_o</text></g></g><g id="sprotty_ArchitectureBlockImpl$rstmgr_ctrl/InstantiationBlockImpl$u_aon_rst" transform="translate(342.0625, 54)" class="instantiation"><g class="sprotty-block" style="fill:rgb(255, 255, 255);stroke:rgb(48, 48, 48);stroke-dasharray:0px;"><rect x="0" y="0" rx="1" ry="1" width="177.625" height="112"/><text x="88.8125" y="12" class="sprotty-block-name" style="cursor:pointer;font-weight:700;perspective-origin:88.8125px 0px;fill:rgb(48, 48, 48);stroke:rgba(0, 0, 0, 0);dominant-baseline:middle;text-anchor:middle;">u_aon_rst : prim_flop</text><line x1="0" y1="20" x2="177.625" y2="20"/></g><g id="sprotty_ArchitectureBlockImpl$rstmgr_ctrl/InstantiationBlockImpl$u_aon_rst/BPortImpl$d_i" transform="translate(0, 94)" class="triangle"><path d="M 0,0 L 5,2.5 L 0,5 Z" transform="translate(-1.67, -2.5)" class="sprotty-port" style="fill:rgb(48, 48, 48);stroke:rgb(48, 48, 48);"/><text class="clickable sprotty-label port" id="sprotty_ArchitectureBlockImpl$rstmgr_ctrl/InstantiationBlockImpl$u_aon_rst/BPortImpl$d_i/label" transform="translate(6, -9) translate(8.734375, 14)" style="cursor:default;font-size:12px;perspective-origin:0px 0px;fill:rgb(48, 48, 48);text-anchor:middle;">d_i</text></g><g id="sprotty_ArchitectureBlockImpl$rstmgr_ctrl/InstantiationBlockImpl$u_aon_rst/BPortImpl$rst_ni" transform="translate(0, 66)" class="triangle"><path d="M 0,0 L 5,2.5 L 0,5 Z" transform="translate(-1.67, -2.5)" class="sprotty-port" style="fill:rgb(48, 48, 48);stroke:rgb(48, 48, 48);"/><text class="clickable sprotty-label port" id="sprotty_ArchitectureBlockImpl$rstmgr_ctrl/InstantiationBlockImpl$u_aon_rst/BPortImpl$rst_ni/label" transform="translate(6, -9) translate(15.921875, 14)" style="cursor:default;font-size:12px;perspective-origin:0px 0px;fill:rgb(48, 48, 48);text-anchor:middle;">rst_ni</text></g><g id="sprotty_ArchitectureBlockImpl$rstmgr_ctrl/InstantiationBlockImpl$u_aon_rst/BPortImpl$clk_i" transform="translate(0, 38)" class="triangle"><path d="M 0,0 L 5,2.5 L 0,5 Z" transform="translate(-1.67, -2.5)" class="sprotty-port" style="fill:rgb(48, 48, 48);stroke:rgb(48, 48, 48);"/><text class="clickable sprotty-label port" id="sprotty_ArchitectureBlockImpl$rstmgr_ctrl/InstantiationBlockImpl$u_aon_rst/BPortImpl$clk_i/label" transform="translate(6, -9) translate(13.09375, 14)" style="cursor:default;font-size:12px;perspective-origin:0px 0px;fill:rgb(48, 48, 48);text-anchor:middle;">clk_i</text></g><g id="sprotty_ArchitectureBlockImpl$rstmgr_ctrl/InstantiationBlockImpl$u_aon_rst/BPortImpl$q_o" transform="translate(177.625, 66)" class="triangle"><path d="M 0,0 L 5,2.5 L 0,5 Z" transform="translate(-1.67, -2.5)" class="sprotty-port" style="fill:rgb(48, 48, 48);stroke:rgb(48, 48, 48);"/><text class="clickable sprotty-label port" id="sprotty_ArchitectureBlockImpl$rstmgr_ctrl/InstantiationBlockImpl$u_aon_rst/BPortImpl$q_o/label" transform="translate(-27.4375, -9) translate(10.71875, 14)" style="cursor:default;font-size:12px;perspective-origin:0px 0px;fill:rgb(48, 48, 48);text-anchor:middle;">q_o</text></g></g><g id="sprotty_ArchitectureBlockImpl$rstmgr_ctrl/InstantiationBlockImpl$u_lc" transform="translate(126.59375, 82)" class="instantiation"><g class="sprotty-block" style="fill:rgb(255, 255, 255);stroke:rgb(48, 48, 48);stroke-dasharray:0px;"><rect x="0" y="0" rx="1" ry="1" width="185.46875" height="112"/><text x="92.734375" y="12" class="sprotty-block-name" style="cursor:pointer;font-weight:700;perspective-origin:92.7344px 0px;fill:rgb(48, 48, 48);stroke:rgba(0, 0, 0, 0);dominant-baseline:middle;text-anchor:middle;">u_lc : prim_flop_2sync</text><line x1="0" y1="20" x2="185.46875" y2="20"/></g><g id="sprotty_ArchitectureBlockImpl$rstmgr_ctrl/InstantiationBlockImpl$u_lc/BPortImpl$d_i" transform="translate(0, 94)" class="triangle"><path d="M 0,0 L 5,2.5 L 0,5 Z" transform="translate(-1.67, -2.5)" class="sprotty-port" style="fill:rgb(48, 48, 48);stroke:rgb(48, 48, 48);"/><text class="clickable sprotty-label port" id="sprotty_ArchitectureBlockImpl$rstmgr_ctrl/InstantiationBlockImpl$u_lc/BPortImpl$d_i/label" transform="translate(6, -9) translate(8.734375, 14)" style="cursor:default;font-size:12px;perspective-origin:0px 0px;fill:rgb(48, 48, 48);text-anchor:middle;">d_i</text></g><g id="sprotty_ArchitectureBlockImpl$rstmgr_ctrl/InstantiationBlockImpl$u_lc/BPortImpl$rst_ni" transform="translate(0, 66)" class="triangle"><path d="M 0,0 L 5,2.5 L 0,5 Z" transform="translate(-1.67, -2.5)" class="sprotty-port" style="fill:rgb(48, 48, 48);stroke:rgb(48, 48, 48);"/><text class="clickable sprotty-label port" id="sprotty_ArchitectureBlockImpl$rstmgr_ctrl/InstantiationBlockImpl$u_lc/BPortImpl$rst_ni/label" transform="translate(6, -9) translate(15.921875, 14)" style="cursor:default;font-size:12px;perspective-origin:0px 0px;fill:rgb(48, 48, 48);text-anchor:middle;">rst_ni</text></g><g id="sprotty_ArchitectureBlockImpl$rstmgr_ctrl/InstantiationBlockImpl$u_lc/BPortImpl$clk_i" transform="translate(0, 38)" class="triangle"><path d="M 0,0 L 5,2.5 L 0,5 Z" transform="translate(-1.67, -2.5)" class="sprotty-port" style="fill:rgb(48, 48, 48);stroke:rgb(48, 48, 48);"/><text class="clickable sprotty-label port" id="sprotty_ArchitectureBlockImpl$rstmgr_ctrl/InstantiationBlockImpl$u_lc/BPortImpl$clk_i/label" transform="translate(6, -9) translate(13.09375, 14)" style="cursor:default;font-size:12px;perspective-origin:0px 0px;fill:rgb(48, 48, 48);text-anchor:middle;">clk_i</text></g><g id="sprotty_ArchitectureBlockImpl$rstmgr_ctrl/InstantiationBlockImpl$u_lc/BPortImpl$q_o" transform="translate(185.46875, 66)" class="triangle"><path d="M 0,0 L 5,2.5 L 0,5 Z" transform="translate(-1.67, -2.5)" class="sprotty-port" style="fill:rgb(48, 48, 48);stroke:rgb(48, 48, 48);"/><text class="clickable sprotty-label port" id="sprotty_ArchitectureBlockImpl$rstmgr_ctrl/InstantiationBlockImpl$u_lc/BPortImpl$q_o/label" transform="translate(-27.4375, -9) translate(10.71875, 14)" style="cursor:default;font-size:12px;perspective-origin:0px 0px;fill:rgb(48, 48, 48);text-anchor:middle;">q_o</text></g></g><g id="sprotty_ArchitectureBlockImpl$rstmgr_ctrl/BPortImpl$rst_parent_ni" transform="translate(0, 176)" class="triangle"><path d="M 0,0 L 5,2.5 L 0,5 Z" transform="translate(-1.67, -2.5)" class="sprotty-port" style="fill:rgb(48, 48, 48);stroke:rgb(48, 48, 48);"/><text class="clickable sprotty-label port" id="sprotty_ArchitectureBlockImpl$rstmgr_ctrl/BPortImpl$rst_parent_ni/label" transform="translate(6, 6) translate(37.796875, 14)" style="cursor:default;font-size:12px;perspective-origin:0px 0px;fill:rgb(48, 48, 48);text-anchor:middle;">rst_parent_ni</text></g><g id="sprotty_ArchitectureBlockImpl$rstmgr_ctrl/BPortImpl$rst_req_i" transform="translate(0, 210)" class="triangle"><path d="M 0,0 L 5,2.5 L 0,5 Z" transform="translate(-1.67, -2.5)" class="sprotty-port" style="fill:rgb(48, 48, 48);stroke:rgb(48, 48, 48);"/><text class="clickable sprotty-label port" id="sprotty_ArchitectureBlockImpl$rstmgr_ctrl/BPortImpl$rst_req_i/label" transform="translate(6, 6) translate(24.90625, 14)" style="cursor:default;font-size:12px;perspective-origin:0px 0px;fill:rgb(48, 48, 48);text-anchor:middle;">rst_req_i</text></g><g id="sprotty_ArchitectureBlockImpl$rstmgr_ctrl/BPortImpl$rst_ni" transform="translate(0, 70)" class="triangle"><path d="M 0,0 L 5,2.5 L 0,5 Z" transform="translate(-1.67, -2.5)" class="sprotty-port" style="fill:rgb(48, 48, 48);stroke:rgb(48, 48, 48);"/><text class="clickable sprotty-label port" id="sprotty_ArchitectureBlockImpl$rstmgr_ctrl/BPortImpl$rst_ni/label" transform="translate(6, 6) translate(15.921875, 14)" style="cursor:default;font-size:12px;perspective-origin:0px 0px;fill:rgb(48, 48, 48);text-anchor:middle;">rst_ni</text></g><g id="sprotty_ArchitectureBlockImpl$rstmgr_ctrl/BPortImpl$clk_i" transform="translate(0, 36)" class="triangle"><path d="M 0,0 L 5,2.5 L 0,5 Z" transform="translate(-1.67, -2.5)" class="sprotty-port" style="fill:rgb(48, 48, 48);stroke:rgb(48, 48, 48);"/><text class="clickable sprotty-label port" id="sprotty_ArchitectureBlockImpl$rstmgr_ctrl/BPortImpl$clk_i/label" transform="translate(6, 6) translate(13.09375, 14)" style="cursor:default;font-size:12px;perspective-origin:0px 0px;fill:rgb(48, 48, 48);text-anchor:middle;">clk_i</text></g><g id="sprotty_ArchitectureBlockImpl$rstmgr_ctrl/BPortImpl$rst_no" transform="translate(814.71875, 229)" class="triangle"><path d="M 0,0 L 5,2.5 L 0,5 Z" transform="translate(-1.67, -2.5)" class="sprotty-port" style="fill:rgb(48, 48, 48);stroke:rgb(48, 48, 48);"/><text class="clickable sprotty-label port" id="sprotty_ArchitectureBlockImpl$rstmgr_ctrl/BPortImpl$rst_no/label" transform="translate(-41.8125, 6) translate(17.90625, 14)" style="cursor:default;font-size:12px;perspective-origin:0px 0px;fill:rgb(48, 48, 48);text-anchor:middle;">rst_no</text></g></g></g></svg>