<svg xmlns="http://www.w3.org/2000/svg" id="sprotty_work.usb_fs_tx_mux" class="sprotty-graph sprotty-block-diagram blockdiagram" style="font-family:&quot;Noto Sans&quot;, Helvetica, Arial, sans-serif;perspective-origin:0px 0px;transform-origin:0px 0px;" version="1.1" viewBox="7 7 286.625 186" width="286.625" height="186"><g transform="scale(1) translate(0,0)"><g id="sprotty_ArchitectureBlockImpl$usb_fs_tx_mux" transform="translate(12, 12)" class="architecture"><g class="sprotty-block" style="fill:rgb(255, 255, 255);stroke:rgb(48, 48, 48);stroke-dasharray:0px;"><rect x="0" y="0" rx="1" ry="1" width="276.625" height="176"/><text x="138.3125" y="12" class="sprotty-block-name" style="cursor:pointer;font-weight:700;perspective-origin:138.312px 0px;fill:rgb(48, 48, 48);stroke:rgba(0, 0, 0, 0);dominant-baseline:middle;text-anchor:middle;">usb_fs_tx_mux</text><line x1="0" y1="20" x2="276.625" y2="20"/></g><g id="sprotty_ArchitectureBlockImpl$usb_fs_tx_mux/AssignmentBlockImpl$tx_pkt_start_o/GPortImpl$tx_pkt_start_oOUT_to_ArchitectureBlockImpl$usb_fs_tx_mux/BPortImpl$tx_pkt_start_o" class="sprotty-edge edge" style="fill:none;stroke:rgb(112, 112, 112);stroke-linejoin:round;"><g><path d="M 174.09375 64 L 276.625 64 "/><path d="M 174.09375 64 L 276.625 64 " class="clickable"/></g></g><g id="sprotty_ArchitectureBlockImpl$usb_fs_tx_mux/AssignmentBlockImpl$tx_pid_o/GPortImpl$tx_pid_oOUT_to_ArchitectureBlockImpl$usb_fs_tx_mux/BPortImpl$tx_pid_o" class="sprotty-edge thick edge" style="fill:none;stroke:rgb(112, 112, 112);stroke-linejoin:round;stroke-width:3px;"><g><path d="M 174.09375 127 L 276.625 127 "/><path d="M 174.09375 127 L 276.625 127 " class="clickable"/></g></g><g id="sprotty_ArchitectureBlockImpl$usb_fs_tx_mux/BPortImpl$in_tx_pkt_start_i_to_ArchitectureBlockImpl$usb_fs_tx_mux/AssignmentBlockImpl$tx_pkt_start_o/GPortImpl$in_tx_pkt_start_iIN" class="sprotty-edge edge" style="fill:none;stroke:rgb(112, 112, 112);stroke-linejoin:round;"><g><path d="M 0 35 L 132.375 35 C 133.375 35 134.375 36 134.375 37 L 134.375 57 C 134.375 58 135.375 59 136.375 59 L 154.375 59 "/><path d="M 0 35 L 132.375 35 C 133.375 35 134.375 36 134.375 37 L 134.375 57 C 134.375 58 135.375 59 136.375 59 L 154.375 59 " class="clickable"/></g></g><g id="sprotty_ArchitectureBlockImpl$usb_fs_tx_mux/BPortImpl$out_tx_pkt_start_i_to_ArchitectureBlockImpl$usb_fs_tx_mux/AssignmentBlockImpl$tx_pkt_start_o/GPortImpl$out_tx_pkt_start_iIN" class="sprotty-edge edge" style="fill:none;stroke:rgb(112, 112, 112);stroke-linejoin:round;"><g><path d="M 0 69 L 154.375 69 "/><path d="M 0 69 L 154.375 69 " class="clickable"/></g></g><g id="sprotty_ArchitectureBlockImpl$usb_fs_tx_mux/BPortImpl$out_tx_pkt_start_i_to_ArchitectureBlockImpl$usb_fs_tx_mux/AssignmentBlockImpl$tx_pid_o/GPortImpl$out_tx_pkt_start_iIN" class="sprotty-edge edge" style="fill:none;stroke:rgb(112, 112, 112);stroke-linejoin:round;"><g><path d="M 0 69 L 142.375 69 C 143.375 69 144.375 70 144.375 71 L 144.375 115 C 144.375 116 145.375 117 146.375 117 L 154.375 117 "/><path d="M 0 69 L 142.375 69 C 143.375 69 144.375 70 144.375 71 L 144.375 115 C 144.375 116 145.375 117 146.375 117 L 154.375 117 " class="clickable"/></g><circle r="2" id="sprotty_ArchitectureBlockImpl$usb_fs_tx_mux/BPortImpl$out_tx_pkt_start_i_to_ArchitectureBlockImpl$usb_fs_tx_mux/AssignmentBlockImpl$tx_pid_o/GPortImpl$out_tx_pkt_start_iIN/junction0" transform="translate(144.375, 69)" class="sprotty-junction junction" style="fill:rgb(112, 112, 112);stroke:none;"/></g><g id="sprotty_ArchitectureBlockImpl$usb_fs_tx_mux/BPortImpl$out_tx_pid_i_to_ArchitectureBlockImpl$usb_fs_tx_mux/AssignmentBlockImpl$tx_pid_o/GPortImpl$out_tx_pid_iIN" class="sprotty-edge thick edge" style="fill:none;stroke:rgb(112, 112, 112);stroke-linejoin:round;stroke-width:3px;"><g><path d="M 0 103 L 132.375 103 C 133.375 103 134.375 104 134.375 105 L 134.375 125 C 134.375 126 135.375 127 136.375 127 L 154.375 127 "/><path d="M 0 103 L 132.375 103 C 133.375 103 134.375 104 134.375 105 L 134.375 125 C 134.375 126 135.375 127 136.375 127 L 154.375 127 " class="clickable"/></g></g><g id="sprotty_ArchitectureBlockImpl$usb_fs_tx_mux/BPortImpl$in_tx_pid_i_to_ArchitectureBlockImpl$usb_fs_tx_mux/AssignmentBlockImpl$tx_pid_o/GPortImpl$in_tx_pid_iIN" class="sprotty-edge thick edge" style="fill:none;stroke:rgb(112, 112, 112);stroke-linejoin:round;stroke-width:3px;"><g><path d="M 0 137 L 154.375 137 "/><path d="M 0 137 L 154.375 137 " class="clickable"/></g></g><g id="sprotty_ArchitectureBlockImpl$usb_fs_tx_mux/AssignmentBlockImpl$tx_pid_o" transform="translate(154.375, 107)" class="statement"><rect x="0" y="0" rx="10" ry="5" width="19.71875" height="40" class="sprotty-node" style="fill:rgb(245, 245, 245);stroke:rgb(112, 112, 112);"/><text class="clickable sprotty-label statementtype" id="sprotty_ArchitectureBlockImpl$usb_fs_tx_mux/AssignmentBlockImpl$tx_pid_o/labeltype" transform="translate(5, 14) translate(4.71875, 9)" style="cursor:default;font-size:8px;font-weight:700;perspective-origin:0.140625px 0px;fill:rgb(112, 112, 112);text-anchor:middle;">&lt;=</text><g id="sprotty_ArchitectureBlockImpl$usb_fs_tx_mux/AssignmentBlockImpl$tx_pid_o/GPortImpl$in_tx_pid_iIN" transform="translate(0, 30)" class="sprotty-hidden hidden" style="display:block;height:0px;width:0px;"/><g id="sprotty_ArchitectureBlockImpl$usb_fs_tx_mux/AssignmentBlockImpl$tx_pid_o/GPortImpl$out_tx_pid_iIN" transform="translate(0, 20)" class="sprotty-hidden hidden" style="display:block;height:0px;width:0px;"/><g id="sprotty_ArchitectureBlockImpl$usb_fs_tx_mux/AssignmentBlockImpl$tx_pid_o/GPortImpl$out_tx_pkt_start_iIN" transform="translate(0, 10)" class="sprotty-hidden hidden" style="display:block;height:0px;width:0px;"/><g id="sprotty_ArchitectureBlockImpl$usb_fs_tx_mux/AssignmentBlockImpl$tx_pid_o/GPortImpl$tx_pid_oOUT" transform="translate(19.71875, 20)" class="sprotty-hidden hidden" style="display:block;height:0px;width:0px;"/></g><g id="sprotty_ArchitectureBlockImpl$usb_fs_tx_mux/AssignmentBlockImpl$tx_pkt_start_o" transform="translate(154.375, 49)" class="statement"><rect x="0" y="0" rx="10" ry="5" width="19.71875" height="30" class="sprotty-node" style="fill:rgb(245, 245, 245);stroke:rgb(112, 112, 112);"/><text class="clickable sprotty-label statementtype" id="sprotty_ArchitectureBlockImpl$usb_fs_tx_mux/AssignmentBlockImpl$tx_pkt_start_o/labeltype" transform="translate(5, 9) translate(4.71875, 9)" style="cursor:default;font-size:8px;font-weight:700;perspective-origin:0.140625px 0px;fill:rgb(112, 112, 112);text-anchor:middle;">&lt;=</text><g id="sprotty_ArchitectureBlockImpl$usb_fs_tx_mux/AssignmentBlockImpl$tx_pkt_start_o/GPortImpl$out_tx_pkt_start_iIN" transform="translate(0, 20)" class="sprotty-hidden hidden" style="display:block;height:0px;width:0px;"/><g id="sprotty_ArchitectureBlockImpl$usb_fs_tx_mux/AssignmentBlockImpl$tx_pkt_start_o/GPortImpl$in_tx_pkt_start_iIN" transform="translate(0, 10)" class="sprotty-hidden hidden" style="display:block;height:0px;width:0px;"/><g id="sprotty_ArchitectureBlockImpl$usb_fs_tx_mux/AssignmentBlockImpl$tx_pkt_start_o/GPortImpl$tx_pkt_start_oOUT" transform="translate(19.71875, 15)" class="sprotty-hidden hidden" style="display:block;height:0px;width:0px;"/></g><g id="sprotty_ArchitectureBlockImpl$usb_fs_tx_mux/BPortImpl$out_tx_pid_i" transform="translate(0, 103)" class="triangle"><path d="M 0,0 L 5,2.5 L 0,5 Z" transform="translate(-1.67, -2.5)" class="sprotty-port" style="fill:rgb(48, 48, 48);stroke:rgb(48, 48, 48);"/><text class="clickable sprotty-label port" id="sprotty_ArchitectureBlockImpl$usb_fs_tx_mux/BPortImpl$out_tx_pid_i/label" transform="translate(6, 6) translate(35.484375, 14)" style="cursor:default;font-size:12px;perspective-origin:0px 0px;fill:rgb(48, 48, 48);text-anchor:middle;">out_tx_pid_i</text></g><g id="sprotty_ArchitectureBlockImpl$usb_fs_tx_mux/BPortImpl$out_tx_pkt_start_i" transform="translate(0, 69)" class="triangle"><path d="M 0,0 L 5,2.5 L 0,5 Z" transform="translate(-1.67, -2.5)" class="sprotty-port" style="fill:rgb(48, 48, 48);stroke:rgb(48, 48, 48);"/><text class="clickable sprotty-label port" id="sprotty_ArchitectureBlockImpl$usb_fs_tx_mux/BPortImpl$out_tx_pkt_start_i/label" transform="translate(6, 6) translate(51.6875, 14)" style="cursor:default;font-size:12px;perspective-origin:0px 0px;fill:rgb(48, 48, 48);text-anchor:middle;">out_tx_pkt_start_i</text></g><g id="sprotty_ArchitectureBlockImpl$usb_fs_tx_mux/BPortImpl$in_tx_pid_i" transform="translate(0, 137)" class="triangle"><path d="M 0,0 L 5,2.5 L 0,5 Z" transform="translate(-1.67, -2.5)" class="sprotty-port" style="fill:rgb(48, 48, 48);stroke:rgb(48, 48, 48);"/><text class="clickable sprotty-label port" id="sprotty_ArchitectureBlockImpl$usb_fs_tx_mux/BPortImpl$in_tx_pid_i/label" transform="translate(6, 6) translate(31.265625, 14)" style="cursor:default;font-size:12px;perspective-origin:0px 0px;fill:rgb(48, 48, 48);text-anchor:middle;">in_tx_pid_i</text></g><g id="sprotty_ArchitectureBlockImpl$usb_fs_tx_mux/BPortImpl$in_tx_pkt_start_i" transform="translate(0, 35)" class="triangle"><path d="M 0,0 L 5,2.5 L 0,5 Z" transform="translate(-1.67, -2.5)" class="sprotty-port" style="fill:rgb(48, 48, 48);stroke:rgb(48, 48, 48);"/><text class="clickable sprotty-label port" id="sprotty_ArchitectureBlockImpl$usb_fs_tx_mux/BPortImpl$in_tx_pkt_start_i/label" transform="translate(6, 6) translate(47.453125, 14)" style="cursor:default;font-size:12px;perspective-origin:0px 0px;fill:rgb(48, 48, 48);text-anchor:middle;">in_tx_pkt_start_i</text></g><g id="sprotty_ArchitectureBlockImpl$usb_fs_tx_mux/BPortImpl$tx_pkt_start_o" transform="translate(276.625, 64)" class="triangle"><path d="M 0,0 L 5,2.5 L 0,5 Z" transform="translate(-1.67, -2.5)" class="sprotty-port" style="fill:rgb(48, 48, 48);stroke:rgb(48, 48, 48);"/><text class="clickable sprotty-label port" id="sprotty_ArchitectureBlockImpl$usb_fs_tx_mux/BPortImpl$tx_pkt_start_o/label" transform="translate(-87.53125, 6) translate(40.765625, 14)" style="cursor:default;font-size:12px;perspective-origin:0px 0px;fill:rgb(48, 48, 48);text-anchor:middle;">tx_pkt_start_o</text></g><g id="sprotty_ArchitectureBlockImpl$usb_fs_tx_mux/BPortImpl$tx_pid_o" transform="translate(276.625, 127)" class="triangle"><path d="M 0,0 L 5,2.5 L 0,5 Z" transform="translate(-1.67, -2.5)" class="sprotty-port" style="fill:rgb(48, 48, 48);stroke:rgb(48, 48, 48);"/><text class="clickable sprotty-label port" id="sprotty_ArchitectureBlockImpl$usb_fs_tx_mux/BPortImpl$tx_pid_o/label" transform="translate(-55.15625, 6) translate(24.578125, 14)" style="cursor:default;font-size:12px;perspective-origin:0px 0px;fill:rgb(48, 48, 48);text-anchor:middle;">tx_pid_o</text></g></g></g></svg>