<svg xmlns="http://www.w3.org/2000/svg" id="sprotty_work.usb_osc" class="sprotty-graph sprotty-block-diagram blockdiagram" style="font-family:&quot;Noto Sans&quot;, Helvetica, Arial, sans-serif;perspective-origin:0px 0px;transform-origin:0px 0px;" version="1.1" viewBox="7 7 427.4375 246" width="427.4375" height="246"><g transform="scale(1) translate(0,0)"><g id="sprotty_ArchitectureBlockImpl$usb_osc" transform="translate(12, 12)" class="architecture"><g class="sprotty-block" style="fill:rgb(255, 255, 255);stroke:rgb(48, 48, 48);stroke-dasharray:0px;"><rect x="0" y="0" rx="1" ry="1" width="417.4375" height="236"/><text x="208.71875" y="12" class="sprotty-block-name" style="cursor:pointer;font-weight:700;perspective-origin:208.719px 0px;fill:rgb(48, 48, 48);stroke:rgba(0, 0, 0, 0);dominant-baseline:middle;text-anchor:middle;">usb_osc</text><line x1="0" y1="20" x2="417.4375" y2="20"/></g><g id="sprotty_ArchitectureBlockImpl$usb_osc/AssignmentBlockImpl$usb_clk_o/GPortImpl$usb_clk_oOUT_to_ArchitectureBlockImpl$usb_osc/BPortImpl$usb_clk_o" class="sprotty-edge edge" style="fill:none;stroke:rgb(112, 112, 112);stroke-linejoin:round;"><g><path d="M 264.9453125 46 L 417.4375 46 "/><path d="M 264.9453125 46 L 417.4375 46 " class="clickable"/></g></g><g id="sprotty_ArchitectureBlockImpl$usb_osc/BPortImpl$usb_en_i_to_ArchitectureBlockImpl$usb_osc/AssignmentBlockImpl$usb_en_dly/GPortImpl$usb_en_iIN" class="sprotty-edge edge" style="fill:none;stroke:rgb(112, 112, 112);stroke-linejoin:round;"><g><path d="M 0 142 L 123.53125 142 "/><path d="M 0 142 L 123.53125 142 " class="clickable"/></g></g><g id="sprotty_ArchitectureBlockImpl$usb_osc/BPortImpl$vcore_pok_h_i_to_ArchitectureBlockImpl$usb_osc/AssignmentBlockImpl$en_osc_re/GPortImpl$vcore_pok_h_iIN" class="sprotty-edge edge" style="fill:none;stroke:rgb(112, 112, 112);stroke-linejoin:round;"><g><path d="M 0 100 L 161.25 100 C 162.25 100 163.25 101 163.25 102 L 163.25 120 C 163.25 121 164.25 122 165.25 122 L 177.66796875 122 "/><path d="M 0 100 L 161.25 100 C 162.25 100 163.25 101 163.25 102 L 163.25 120 C 163.25 121 164.25 122 165.25 122 L 177.66796875 122 " class="clickable"/></g><circle r="2" id="sprotty_ArchitectureBlockImpl$usb_osc/BPortImpl$vcore_pok_h_i_to_ArchitectureBlockImpl$usb_osc/AssignmentBlockImpl$en_osc_re/GPortImpl$vcore_pok_h_iIN/junction0" transform="translate(163.25, 100)" class="sprotty-junction junction" style="fill:rgb(112, 112, 112);stroke:none;"/></g><g id="sprotty_ArchitectureBlockImpl$usb_osc/BPortImpl$usb_en_i_to_ArchitectureBlockImpl$usb_osc/AssignmentBlockImpl$en_osc_re/GPortImpl$usb_en_iIN" class="sprotty-edge edge" style="fill:none;stroke:rgb(112, 112, 112);stroke-linejoin:round;"><g><path d="M 0 142 L 111.53125 142 C 112.53125 142 113.53125 141 113.53125 140 L 113.53125 121 C 113.53125 120 114.53125 119 115.53125 119 L 151.25 119 C 152.25 119 153.25 120 153.25 121 L 153.25 130 C 153.25 131 154.25 132 155.25 132 L 177.66796875 132 "/><path d="M 0 142 L 111.53125 142 C 112.53125 142 113.53125 141 113.53125 140 L 113.53125 121 C 113.53125 120 114.53125 119 115.53125 119 L 151.25 119 C 152.25 119 153.25 120 153.25 121 L 153.25 130 C 153.25 131 154.25 132 155.25 132 L 177.66796875 132 " class="clickable"/></g><circle r="2" id="sprotty_ArchitectureBlockImpl$usb_osc/BPortImpl$usb_en_i_to_ArchitectureBlockImpl$usb_osc/AssignmentBlockImpl$en_osc_re/GPortImpl$usb_en_iIN/junction0" transform="translate(113.53125, 142)" class="sprotty-junction junction" style="fill:rgb(112, 112, 112);stroke:none;"/></g><g id="sprotty_ArchitectureBlockImpl$usb_osc/BPortImpl$usb_ref_val_i_to_ArchitectureBlockImpl$usb_osc/AssignmentBlockImpl$ref_val/GPortImpl$usb_ref_val_iIN" class="sprotty-edge edge" style="fill:none;stroke:rgb(112, 112, 112);stroke-linejoin:round;"><g><path d="M 0 197 L 96 197 "/><path d="M 0 197 L 96 197 " class="clickable"/></g></g><g id="sprotty_ArchitectureBlockImpl$usb_osc/BPortImpl$vcore_pok_h_i_to_ArchitectureBlockImpl$usb_osc/AlwaysBlockImpl$null5/GPortImpl$vcore_pok_h_iIN" class="sprotty-edge edge" style="fill:none;stroke:rgb(112, 112, 112);stroke-linejoin:round;"><g><path d="M 0 100 L 230.640625 100 "/><path d="M 0 100 L 230.640625 100 " class="clickable"/></g></g><g id="sprotty_ArchitectureBlockImpl$usb_osc/AlwaysBlockImpl$null4/GPortImpl$clkOUT_to_ArchitectureBlockImpl$usb_osc/AssignmentBlockImpl$usb_clk_o/GPortImpl$clkIN" class="sprotty-edge edge" style="fill:none;stroke:rgb(112, 112, 112);stroke-linejoin:round;"><g><path d="M 210.640625 46 L 245.2265625 46 "/><path d="M 210.640625 46 L 245.2265625 46 " class="clickable"/></g></g><g id="sprotty_ArchitectureBlockImpl$usb_osc/AlwaysBlockImpl$null4/GPortImpl$clkOUT_to_ArchitectureBlockImpl$usb_osc/AlwaysBlockImpl$null5/GPortImpl$clkIN" class="sprotty-edge edge" style="fill:none;stroke:rgb(112, 112, 112);stroke-linejoin:round;"><g><path d="M 210.640625 46 L 218.640625 46 C 219.640625 46 220.640625 47 220.640625 48 L 220.640625 88 C 220.640625 89 221.640625 90 222.640625 90 L 230.640625 90 "/><path d="M 210.640625 46 L 218.640625 46 C 219.640625 46 220.640625 47 220.640625 48 L 220.640625 88 C 220.640625 89 221.640625 90 222.640625 90 L 230.640625 90 " class="clickable"/></g><circle r="2" id="sprotty_ArchitectureBlockImpl$usb_osc/AlwaysBlockImpl$null4/GPortImpl$clkOUT_to_ArchitectureBlockImpl$usb_osc/AlwaysBlockImpl$null5/GPortImpl$clkIN/junction0" transform="translate(220.640625, 46)" class="sprotty-junction junction" style="fill:rgb(112, 112, 112);stroke:none;"/></g><g id="sprotty_ArchitectureBlockImpl$usb_osc/AssignmentBlockImpl$en_osc/GPortImpl$en_osc_feOUT_to_ArchitectureBlockImpl$usb_osc/AlwaysBlockImpl$null4/GPortImpl$en_oscIN" class="sprotty-edge edge" style="fill:none;stroke:rgb(112, 112, 112);stroke-linejoin:round;"><g><path d="M 319.25 127 L 327.25 127 C 328.25 127 329.25 126 329.25 125 L 329.25 70 C 329.25 69 328.25 68 327.25 68 L 165.25 68 C 164.25 68 163.25 67 163.25 66 L 163.25 48 C 163.25 47 164.25 46 165.25 46 L 173.25 46 "/><path d="M 319.25 127 L 327.25 127 C 328.25 127 329.25 126 329.25 125 L 329.25 70 C 329.25 69 328.25 68 327.25 68 L 165.25 68 C 164.25 68 163.25 67 163.25 66 L 163.25 48 C 163.25 47 164.25 46 165.25 46 L 173.25 46 " class="clickable"/></g></g><g id="sprotty_ArchitectureBlockImpl$usb_osc/AssignmentBlockImpl$en_osc_re/GPortImpl$en_dlyOUT_to_ArchitectureBlockImpl$usb_osc/AssignmentBlockImpl$en_osc/GPortImpl$en_osc_reIN" class="sprotty-edge edge" style="fill:none;stroke:rgb(112, 112, 112);stroke-linejoin:round;"><g><path d="M 197.38671875 132 L 299.53125 132 "/><path d="M 197.38671875 132 L 299.53125 132 " class="clickable"/></g></g><g id="sprotty_ArchitectureBlockImpl$usb_osc/AssignmentBlockImpl$en_osc_re/GPortImpl$en_dlyOUT_to_ArchitectureBlockImpl$usb_osc/AlwaysBlockImpl$null5/GPortImpl$en_osc_reIN" class="sprotty-edge edge" style="fill:none;stroke:rgb(112, 112, 112);stroke-linejoin:round;"><g><path d="M 197.38671875 132 L 218.640625 132 C 219.640625 132 220.640625 131 220.640625 130 L 220.640625 112 C 220.640625 111 221.640625 110 222.640625 110 L 230.640625 110 "/><path d="M 197.38671875 132 L 218.640625 132 C 219.640625 132 220.640625 131 220.640625 130 L 220.640625 112 C 220.640625 111 221.640625 110 222.640625 110 L 230.640625 110 " class="clickable"/></g><circle r="2" id="sprotty_ArchitectureBlockImpl$usb_osc/AssignmentBlockImpl$en_osc_re/GPortImpl$en_dlyOUT_to_ArchitectureBlockImpl$usb_osc/AlwaysBlockImpl$null5/GPortImpl$en_osc_reIN/junction0" transform="translate(220.640625, 132)" class="sprotty-junction junction" style="fill:rgb(112, 112, 112);stroke:none;"/></g><g id="sprotty_ArchitectureBlockImpl$usb_osc/AlwaysBlockImpl$null5/GPortImpl$en_osc_feOUT_to_ArchitectureBlockImpl$usb_osc/AssignmentBlockImpl$en_osc/GPortImpl$en_osc_feIN" class="sprotty-edge edge" style="fill:none;stroke:rgb(112, 112, 112);stroke-linejoin:round;"><g><path d="M 279.53125 100 L 287.53125 100 C 288.53125 100 289.53125 101 289.53125 102 L 289.53125 120 C 289.53125 121 290.53125 122 291.53125 122 L 299.53125 122 "/><path d="M 279.53125 100 L 287.53125 100 C 288.53125 100 289.53125 101 289.53125 102 L 289.53125 120 C 289.53125 121 290.53125 122 291.53125 122 L 299.53125 122 " class="clickable"/></g></g><g id="sprotty_ArchitectureBlockImpl$usb_osc/AssignmentBlockImpl$usb_en_dly/GPortImpl$usb_en_dlyOUT_to_ArchitectureBlockImpl$usb_osc/AssignmentBlockImpl$en_osc_re/GPortImpl$usb_en_dlyIN" class="sprotty-edge edge" style="fill:none;stroke:rgb(112, 112, 112);stroke-linejoin:round;"><g><path d="M 143.25 142 L 177.66796875 142 "/><path d="M 143.25 142 L 177.66796875 142 " class="clickable"/></g></g><g id="sprotty_ArchitectureBlockImpl$usb_osc/AssignmentBlockImpl$ref_val/GPortImpl$ref_valOUT_to_ArchitectureBlockImpl$usb_osc/AssignmentBlockImpl$drift/GPortImpl$ref_valIN" class="sprotty-edge edge" style="fill:none;stroke:rgb(112, 112, 112);stroke-linejoin:round;"><g><path d="M 115.71875 197 L 135.71875 197 "/><path d="M 115.71875 197 L 135.71875 197 " class="clickable"/></g></g><g id="sprotty_ArchitectureBlockImpl$usb_osc/AlwaysBlockImpl$null4" transform="translate(173.25, 35)" class="statement"><rect x="0" y="0" rx="10" ry="5" width="37.390625" height="22" class="sprotty-node" style="fill:rgb(245, 245, 245);stroke:rgb(112, 112, 112);"/><text class="clickable sprotty-label statementtype" id="sprotty_ArchitectureBlockImpl$usb_osc/AlwaysBlockImpl$null4/labeltype" transform="translate(5, 5) translate(13.671875, 9)" style="cursor:default;font-size:8px;font-weight:700;perspective-origin:0.015625px 0px;fill:rgb(112, 112, 112);text-anchor:middle;">always</text><g id="sprotty_ArchitectureBlockImpl$usb_osc/AlwaysBlockImpl$null4/GPortImpl$en_oscIN" transform="translate(0, 11)" class="sprotty-hidden hidden" style="display:block;height:0px;width:0px;"/><g id="sprotty_ArchitectureBlockImpl$usb_osc/AlwaysBlockImpl$null4/GPortImpl$clkOUT" transform="translate(37.390625, 11)" class="sprotty-hidden hidden" style="display:block;height:0px;width:0px;"/></g><g id="sprotty_ArchitectureBlockImpl$usb_osc/AlwaysBlockImpl$null5" transform="translate(230.640625, 80)" class="statement"><rect x="0" y="0" rx="10" ry="5" width="48.890625" height="40" class="sprotty-node" style="fill:rgb(245, 245, 245);stroke:rgb(112, 112, 112);"/><text class="clickable sprotty-label statementtype" id="sprotty_ArchitectureBlockImpl$usb_osc/AlwaysBlockImpl$null5/labeltype" transform="translate(5, 14) translate(18.828125, 9)" style="cursor:default;font-size:8px;font-weight:700;perspective-origin:0.609375px 0px;fill:rgb(112, 112, 112);text-anchor:middle;">always_ff</text><g id="sprotty_ArchitectureBlockImpl$usb_osc/AlwaysBlockImpl$null5/GPortImpl$en_osc_reIN" transform="translate(0, 30)" class="sprotty-hidden hidden" style="display:block;height:0px;width:0px;"/><g id="sprotty_ArchitectureBlockImpl$usb_osc/AlwaysBlockImpl$null5/GPortImpl$vcore_pok_h_iIN" transform="translate(0, 20)" class="sprotty-hidden hidden" style="display:block;height:0px;width:0px;"/><g id="sprotty_ArchitectureBlockImpl$usb_osc/AlwaysBlockImpl$null5/GPortImpl$clkIN" transform="translate(0, 10)" class="sprotty-hidden hidden" style="display:block;height:0px;width:0px;"/><g id="sprotty_ArchitectureBlockImpl$usb_osc/AlwaysBlockImpl$null5/GPortImpl$en_osc_feOUT" transform="translate(48.890625, 20)" class="sprotty-hidden hidden" style="display:block;height:0px;width:0px;"/></g><g id="sprotty_ArchitectureBlockImpl$usb_osc/AssignmentBlockImpl$usb_clk_o" transform="translate(245.2265625, 35)" class="statement"><rect x="0" y="0" rx="10" ry="5" width="19.71875" height="22" class="sprotty-node" style="fill:rgb(245, 245, 245);stroke:rgb(112, 112, 112);"/><text class="clickable sprotty-label statementtype" id="sprotty_ArchitectureBlockImpl$usb_osc/AssignmentBlockImpl$usb_clk_o/labeltype" transform="translate(5, 5) translate(4.71875, 9)" style="cursor:default;font-size:8px;font-weight:700;perspective-origin:0.140625px 0px;fill:rgb(112, 112, 112);text-anchor:middle;">&lt;=</text><g id="sprotty_ArchitectureBlockImpl$usb_osc/AssignmentBlockImpl$usb_clk_o/GPortImpl$clkIN" transform="translate(0, 11)" class="sprotty-hidden hidden" style="display:block;height:0px;width:0px;"/><g id="sprotty_ArchitectureBlockImpl$usb_osc/AssignmentBlockImpl$usb_clk_o/GPortImpl$usb_clk_oOUT" transform="translate(19.71875, 11)" class="sprotty-hidden hidden" style="display:block;height:0px;width:0px;"/></g><g id="sprotty_ArchitectureBlockImpl$usb_osc/AssignmentBlockImpl$drift" transform="translate(135.71875, 186)" class="statement"><rect x="0" y="0" rx="10" ry="5" width="19.71875" height="22" class="sprotty-node" style="fill:rgb(245, 245, 245);stroke:rgb(112, 112, 112);"/><text class="clickable sprotty-label statementtype" id="sprotty_ArchitectureBlockImpl$usb_osc/AssignmentBlockImpl$drift/labeltype" transform="translate(5, 5) translate(4.71875, 9)" style="cursor:default;font-size:8px;font-weight:700;perspective-origin:0.140625px 0px;fill:rgb(112, 112, 112);text-anchor:middle;">&lt;=</text><g id="sprotty_ArchitectureBlockImpl$usb_osc/AssignmentBlockImpl$drift/GPortImpl$ref_valIN" transform="translate(0, 11)" class="sprotty-hidden hidden" style="display:block;height:0px;width:0px;"/></g><g id="sprotty_ArchitectureBlockImpl$usb_osc/AssignmentBlockImpl$ref_val" transform="translate(96, 186)" class="statement"><rect x="0" y="0" rx="10" ry="5" width="19.71875" height="22" class="sprotty-node" style="fill:rgb(245, 245, 245);stroke:rgb(112, 112, 112);"/><text class="clickable sprotty-label statementtype" id="sprotty_ArchitectureBlockImpl$usb_osc/AssignmentBlockImpl$ref_val/labeltype" transform="translate(5, 5) translate(4.71875, 9)" style="cursor:default;font-size:8px;font-weight:700;perspective-origin:0.140625px 0px;fill:rgb(112, 112, 112);text-anchor:middle;">&lt;=</text><g id="sprotty_ArchitectureBlockImpl$usb_osc/AssignmentBlockImpl$ref_val/GPortImpl$usb_ref_val_iIN" transform="translate(0, 11)" class="sprotty-hidden hidden" style="display:block;height:0px;width:0px;"/><g id="sprotty_ArchitectureBlockImpl$usb_osc/AssignmentBlockImpl$ref_val/GPortImpl$ref_valOUT" transform="translate(19.71875, 11)" class="sprotty-hidden hidden" style="display:block;height:0px;width:0px;"/></g><g id="sprotty_ArchitectureBlockImpl$usb_osc/AssignmentBlockImpl$en_osc" transform="translate(299.53125, 112)" class="statement"><rect x="0" y="0" rx="10" ry="5" width="19.71875" height="30" class="sprotty-node" style="fill:rgb(245, 245, 245);stroke:rgb(112, 112, 112);"/><text class="clickable sprotty-label statementtype" id="sprotty_ArchitectureBlockImpl$usb_osc/AssignmentBlockImpl$en_osc/labeltype" transform="translate(5, 9) translate(4.71875, 9)" style="cursor:default;font-size:8px;font-weight:700;perspective-origin:0.140625px 0px;fill:rgb(112, 112, 112);text-anchor:middle;">&lt;=</text><g id="sprotty_ArchitectureBlockImpl$usb_osc/AssignmentBlockImpl$en_osc/GPortImpl$en_osc_feIN" transform="translate(0, 10)" class="sprotty-hidden hidden" style="display:block;height:0px;width:0px;"/><g id="sprotty_ArchitectureBlockImpl$usb_osc/AssignmentBlockImpl$en_osc/GPortImpl$en_osc_reIN" transform="translate(0, 20)" class="sprotty-hidden hidden" style="display:block;height:0px;width:0px;"/><g id="sprotty_ArchitectureBlockImpl$usb_osc/AssignmentBlockImpl$en_osc/GPortImpl$en_osc_feOUT" transform="translate(19.71875, 15)" class="sprotty-hidden hidden" style="display:block;height:0px;width:0px;"/></g><g id="sprotty_ArchitectureBlockImpl$usb_osc/AssignmentBlockImpl$en_osc_re" transform="translate(177.66796875, 112)" class="statement"><rect x="0" y="0" rx="10" ry="5" width="19.71875" height="40" class="sprotty-node" style="fill:rgb(245, 245, 245);stroke:rgb(112, 112, 112);"/><text class="clickable sprotty-label statementtype" id="sprotty_ArchitectureBlockImpl$usb_osc/AssignmentBlockImpl$en_osc_re/labeltype" transform="translate(5, 14) translate(4.71875, 9)" style="cursor:default;font-size:8px;font-weight:700;perspective-origin:0.140625px 0px;fill:rgb(112, 112, 112);text-anchor:middle;">&lt;=</text><g id="sprotty_ArchitectureBlockImpl$usb_osc/AssignmentBlockImpl$en_osc_re/GPortImpl$usb_en_dlyIN" transform="translate(0, 30)" class="sprotty-hidden hidden" style="display:block;height:0px;width:0px;"/><g id="sprotty_ArchitectureBlockImpl$usb_osc/AssignmentBlockImpl$en_osc_re/GPortImpl$usb_en_iIN" transform="translate(0, 20)" class="sprotty-hidden hidden" style="display:block;height:0px;width:0px;"/><g id="sprotty_ArchitectureBlockImpl$usb_osc/AssignmentBlockImpl$en_osc_re/GPortImpl$vcore_pok_h_iIN" transform="translate(0, 10)" class="sprotty-hidden hidden" style="display:block;height:0px;width:0px;"/><g id="sprotty_ArchitectureBlockImpl$usb_osc/AssignmentBlockImpl$en_osc_re/GPortImpl$en_dlyOUT" transform="translate(19.71875, 20)" class="sprotty-hidden hidden" style="display:block;height:0px;width:0px;"/></g><g id="sprotty_ArchitectureBlockImpl$usb_osc/AssignmentBlockImpl$usb_en_dly" transform="translate(123.53125, 131)" class="statement"><rect x="0" y="0" rx="10" ry="5" width="19.71875" height="22" class="sprotty-node" style="fill:rgb(245, 245, 245);stroke:rgb(112, 112, 112);"/><text class="clickable sprotty-label statementtype" id="sprotty_ArchitectureBlockImpl$usb_osc/AssignmentBlockImpl$usb_en_dly/labeltype" transform="translate(5, 5) translate(4.71875, 9)" style="cursor:default;font-size:8px;font-weight:700;perspective-origin:0.140625px 0px;fill:rgb(112, 112, 112);text-anchor:middle;">&lt;=</text><g id="sprotty_ArchitectureBlockImpl$usb_osc/AssignmentBlockImpl$usb_en_dly/GPortImpl$usb_en_iIN" transform="translate(0, 11)" class="sprotty-hidden hidden" style="display:block;height:0px;width:0px;"/><g id="sprotty_ArchitectureBlockImpl$usb_osc/AssignmentBlockImpl$usb_en_dly/GPortImpl$usb_en_dlyOUT" transform="translate(19.71875, 11)" class="sprotty-hidden hidden" style="display:block;height:0px;width:0px;"/></g><g id="sprotty_ArchitectureBlockImpl$usb_osc/BPortImpl$usb_ref_val_i" transform="translate(0, 197)" class="triangle"><path d="M 0,0 L 5,2.5 L 0,5 Z" transform="translate(-1.67, -2.5)" class="sprotty-port" style="fill:rgb(48, 48, 48);stroke:rgb(48, 48, 48);"/><text class="clickable sprotty-label port" id="sprotty_ArchitectureBlockImpl$usb_osc/BPortImpl$usb_ref_val_i/label" transform="translate(6, 6) translate(37.5, 14)" style="cursor:default;font-size:12px;perspective-origin:0px 0px;fill:rgb(48, 48, 48);text-anchor:middle;">usb_ref_val_i</text></g><g id="sprotty_ArchitectureBlockImpl$usb_osc/BPortImpl$usb_en_i" transform="translate(0, 142)" class="triangle"><path d="M 0,0 L 5,2.5 L 0,5 Z" transform="translate(-1.67, -2.5)" class="sprotty-port" style="fill:rgb(48, 48, 48);stroke:rgb(48, 48, 48);"/><text class="clickable sprotty-label port" id="sprotty_ArchitectureBlockImpl$usb_osc/BPortImpl$usb_en_i/label" transform="translate(6, 6) translate(25.515625, 14)" style="cursor:default;font-size:12px;perspective-origin:0px 0px;fill:rgb(48, 48, 48);text-anchor:middle;">usb_en_i</text></g><g id="sprotty_ArchitectureBlockImpl$usb_osc/BPortImpl$vcore_pok_h_i" transform="translate(0, 100)" class="triangle"><path d="M 0,0 L 5,2.5 L 0,5 Z" transform="translate(-1.67, -2.5)" class="sprotty-port" style="fill:rgb(48, 48, 48);stroke:rgb(48, 48, 48);"/><text class="clickable sprotty-label port" id="sprotty_ArchitectureBlockImpl$usb_osc/BPortImpl$vcore_pok_h_i/label" transform="translate(6, 6) translate(41.265625, 14)" style="cursor:default;font-size:12px;perspective-origin:0px 0px;fill:rgb(48, 48, 48);text-anchor:middle;">vcore_pok_h_i</text></g><g id="sprotty_ArchitectureBlockImpl$usb_osc/BPortImpl$usb_clk_o" transform="translate(417.4375, 46)" class="triangle"><path d="M 0,0 L 5,2.5 L 0,5 Z" transform="translate(-1.67, -2.5)" class="sprotty-port" style="fill:rgb(48, 48, 48);stroke:rgb(48, 48, 48);"/><text class="clickable sprotty-label port" id="sprotty_ArchitectureBlockImpl$usb_osc/BPortImpl$usb_clk_o/label" transform="translate(-63.1875, 6) translate(28.59375, 14)" style="cursor:default;font-size:12px;perspective-origin:0px 0px;fill:rgb(48, 48, 48);text-anchor:middle;">usb_clk_o</text></g></g></g></svg>