<svg xmlns="http://www.w3.org/2000/svg" id="sprotty_work.prim_secded_28_22_enc" class="sprotty-graph sprotty-block-diagram blockdiagram" style="font-family:&quot;Noto Sans&quot;, Helvetica, Arial, sans-serif;perspective-origin:0px 0px;transform-origin:0px 0px;" version="1.1" viewBox="7 7 218.734375 116" width="218.734375" height="116"><g transform="scale(1) translate(0,0)"><g id="sprotty_ArchitectureBlockImpl$prim_secded_28_22_enc" transform="translate(12, 12)" class="architecture"><g class="sprotty-block" style="fill:rgb(255, 255, 255);stroke:rgb(48, 48, 48);stroke-dasharray:0px;"><rect x="0" y="0" rx="1" ry="1" width="208.734375" height="106"/><text x="104.3671875" y="12" class="sprotty-block-name" style="cursor:pointer;font-weight:700;perspective-origin:104.359px 0px;fill:rgb(48, 48, 48);stroke:rgba(0, 0, 0, 0);dominant-baseline:middle;text-anchor:middle;">prim_secded_28_22_enc</text><line x1="0" y1="20" x2="208.734375" y2="20"/></g><g id="sprotty_ArchitectureBlockImpl$prim_secded_28_22_enc/AlwaysBlockImpl$p_encode/GPortImpl$outOUT_to_ArchitectureBlockImpl$prim_secded_28_22_enc/BPortImpl$out" class="sprotty-edge thick edge" style="fill:none;stroke:rgb(112, 112, 112);stroke-linejoin:round;stroke-width:3px;"><g><path d="M 148.15625 58 L 208.734375 58 "/><path d="M 148.15625 58 L 208.734375 58 " class="clickable"/></g></g><g id="sprotty_ArchitectureBlockImpl$prim_secded_28_22_enc/BPortImpl$out_to_ArchitectureBlockImpl$prim_secded_28_22_enc/AlwaysBlockImpl$p_encode/GPortImpl$outIN" class="sprotty-edge thick edge" style="fill:none;stroke:rgb(112, 112, 112);stroke-linejoin:round;stroke-width:3px;"><g><path d="M 208.734375 58 L 160.15625 58 C 159.15625 58 158.15625 59 158.15625 60 L 158.15625 89 C 158.15625 90 157.15625 91 156.15625 91 L 53.65625 91 C 52.65625 91 51.65625 90 51.65625 89 L 51.65625 60 C 51.65625 59 52.65625 58 53.65625 58 L 61.65625 58 "/><path d="M 208.734375 58 L 160.15625 58 C 159.15625 58 158.15625 59 158.15625 60 L 158.15625 89 C 158.15625 90 157.15625 91 156.15625 91 L 53.65625 91 C 52.65625 91 51.65625 90 51.65625 89 L 51.65625 60 C 51.65625 59 52.65625 58 53.65625 58 L 61.65625 58 " class="clickable"/></g><circle r="3" id="sprotty_ArchitectureBlockImpl$prim_secded_28_22_enc/BPortImpl$out_to_ArchitectureBlockImpl$prim_secded_28_22_enc/AlwaysBlockImpl$p_encode/GPortImpl$outIN/junction0" transform="translate(158.15625, 58)" class="sprotty-junction thick" style="fill:rgb(112, 112, 112);stroke:none;"/></g><g id="sprotty_ArchitectureBlockImpl$prim_secded_28_22_enc/AlwaysBlockImpl$p_encode" transform="translate(61.65625, 35)" class="statement"><rect x="0" y="0" rx="10" ry="5" width="86.5" height="46" class="sprotty-node" style="fill:rgb(245, 245, 245);stroke:rgb(112, 112, 112);"/><text class="clickable sprotty-label statementtext" id="sprotty_ArchitectureBlockImpl$prim_secded_28_22_enc/AlwaysBlockImpl$p_encode/labeltext" transform="translate(5, 5) translate(38.25, 19)" style="cursor:default;font-weight:700;perspective-origin:0px 0px;fill:rgb(112, 112, 112);text-anchor:middle;">p_encode</text><text class="clickable sprotty-label statementtype" id="sprotty_ArchitectureBlockImpl$prim_secded_28_22_enc/AlwaysBlockImpl$p_encode/labeltype" transform="translate(16.375, 29) translate(26.875, 9)" style="cursor:default;font-size:8px;font-weight:700;perspective-origin:0px 0px;fill:rgb(112, 112, 112);text-anchor:middle;">always_comb</text><g id="sprotty_ArchitectureBlockImpl$prim_secded_28_22_enc/AlwaysBlockImpl$p_encode/GPortImpl$outIN" transform="translate(0, 23)" class="sprotty-hidden hidden" style="display:block;height:0px;width:0px;"/><g id="sprotty_ArchitectureBlockImpl$prim_secded_28_22_enc/AlwaysBlockImpl$p_encode/GPortImpl$outOUT" transform="translate(86.5, 23)" class="sprotty-hidden hidden" style="display:block;height:0px;width:0px;"/></g><g id="sprotty_ArchitectureBlockImpl$prim_secded_28_22_enc/BPortImpl$in" transform="translate(0, 35)" class="triangle"><path d="M 0,0 L 5,2.5 L 0,5 Z" transform="translate(-1.67, -2.5)" class="sprotty-port" style="fill:rgb(48, 48, 48);stroke:rgb(48, 48, 48);"/><text class="clickable sprotty-label port" id="sprotty_ArchitectureBlockImpl$prim_secded_28_22_enc/BPortImpl$in/label" transform="translate(6, 6) translate(5.328125, 14)" style="cursor:default;font-size:12px;perspective-origin:0px 0px;fill:rgb(48, 48, 48);text-anchor:middle;">in</text></g><g id="sprotty_ArchitectureBlockImpl$prim_secded_28_22_enc/BPortImpl$out" transform="translate(208.734375, 58)" class="triangle"><path d="M 0,0 L 5,2.5 L 0,5 Z" transform="translate(-1.67, -2.5)" class="sprotty-port" style="fill:rgb(48, 48, 48);stroke:rgb(48, 48, 48);"/><text class="clickable sprotty-label port" id="sprotty_ArchitectureBlockImpl$prim_secded_28_22_enc/BPortImpl$out/label" transform="translate(-25.578125, 6) translate(9.546875, 14)" style="cursor:default;font-size:12px;perspective-origin:0.234375px 0px;fill:rgb(48, 48, 48);text-anchor:middle;">out</text></g></g></g></svg>