<svg xmlns="http://www.w3.org/2000/svg" id="sprotty_work.aes_sub_bytes" class="sprotty-graph sprotty-block-diagram blockdiagram" style="font-family:&quot;Noto Sans&quot;, Helvetica, Arial, sans-serif;perspective-origin:0px 0px;transform-origin:0px 0px;" version="1.1" viewBox="7 7 489.0625 412" width="489.0625" height="412"><g transform="scale(1) translate(0,0)"><g id="sprotty_ArchitectureBlockImpl$aes_sub_bytes" transform="translate(12, 12)" class="architecture"><g class="sprotty-block" style="fill:rgb(255, 255, 255);stroke:rgb(48, 48, 48);stroke-dasharray:0px;"><rect x="0" y="0" rx="1" ry="1" width="479.0625" height="402"/><text x="239.53125" y="12" class="sprotty-block-name" style="cursor:pointer;font-weight:700;perspective-origin:239.562px 0px;fill:rgb(48, 48, 48);stroke:rgba(0, 0, 0, 0);dominant-baseline:middle;text-anchor:middle;">aes_sub_bytes</text><line x1="0" y1="20" x2="479.0625" y2="20"/></g><g id="sprotty_ArchitectureBlockImpl$aes_sub_bytes/AssignmentBlockImpl$out_req_o/GPortImpl$out_req_oOUT_to_ArchitectureBlockImpl$aes_sub_bytes/BPortImpl$out_req_o" class="sprotty-edge edge" style="fill:none;stroke:rgb(112, 112, 112);stroke-linejoin:round;"><g><path d="M 399.65625 143 L 479.0625 143 "/><path d="M 399.65625 143 L 479.0625 143 " class="clickable"/></g></g><g id="sprotty_ArchitectureBlockImpl$aes_sub_bytes/GenerateStatementBlockImpl$gen_sbox_j/GPortImpl$data_o_to_ArchitectureBlockImpl$aes_sub_bytes/BPortImpl$data_o" class="sprotty-edge thick edge" style="fill:none;stroke:rgb(112, 112, 112);stroke-linejoin:round;stroke-width:3px;"><g><path d="M 359.9375 241 L 479.0625 241 "/><path d="M 359.9375 241 L 479.0625 241 " class="clickable"/></g></g><g id="sprotty_ArchitectureBlockImpl$aes_sub_bytes/GenerateStatementBlockImpl$gen_sbox_j/GPortImpl$mask_o_to_ArchitectureBlockImpl$aes_sub_bytes/BPortImpl$mask_o" class="sprotty-edge thick edge" style="fill:none;stroke:rgb(112, 112, 112);stroke-linejoin:round;stroke-width:3px;"><g><path d="M 359.9375 339 L 479.0625 339 "/><path d="M 359.9375 339 L 479.0625 339 " class="clickable"/></g></g><g id="sprotty_ArchitectureBlockImpl$aes_sub_bytes/BPortImpl$clk_i_to_ArchitectureBlockImpl$aes_sub_bytes/GenerateStatementBlockImpl$gen_sbox_j/GPortImpl$clk_i" class="sprotty-edge edge" style="fill:none;stroke:rgb(112, 112, 112);stroke-linejoin:round;"><g><path d="M 0 125 L 84.3125 125 C 85.3125 125 86.3125 126 86.3125 127 L 86.3125 141 C 86.3125 142 87.3125 143 88.3125 143 L 96.3125 143 "/><path d="M 0 125 L 84.3125 125 C 85.3125 125 86.3125 126 86.3125 127 L 86.3125 141 C 86.3125 142 87.3125 143 88.3125 143 L 96.3125 143 " class="clickable"/></g></g><g id="sprotty_ArchitectureBlockImpl$aes_sub_bytes/BPortImpl$rst_ni_to_ArchitectureBlockImpl$aes_sub_bytes/GenerateStatementBlockImpl$gen_sbox_j/GPortImpl$rst_ni" class="sprotty-edge edge" style="fill:none;stroke:rgb(112, 112, 112);stroke-linejoin:round;"><g><path d="M 0 159 L 84.3125 159 C 85.3125 159 86.3125 160 86.3125 161 L 86.3125 169 C 86.3125 170 87.3125 171 88.3125 171 L 96.3125 171 "/><path d="M 0 159 L 84.3125 159 C 85.3125 159 86.3125 160 86.3125 161 L 86.3125 169 C 86.3125 170 87.3125 171 88.3125 171 L 96.3125 171 " class="clickable"/></g></g><g id="sprotty_ArchitectureBlockImpl$aes_sub_bytes/BPortImpl$en_i_to_ArchitectureBlockImpl$aes_sub_bytes/GenerateStatementBlockImpl$gen_sbox_j/GPortImpl$en_i" class="sprotty-edge edge" style="fill:none;stroke:rgb(112, 112, 112);stroke-linejoin:round;"><g><path d="M 0 193 L 84.3125 193 C 85.3125 193 86.3125 194 86.3125 195 L 86.3125 197 C 86.3125 198 87.3125 199 88.3125 199 L 96.3125 199 "/><path d="M 0 193 L 84.3125 193 C 85.3125 193 86.3125 194 86.3125 195 L 86.3125 197 C 86.3125 198 87.3125 199 88.3125 199 L 96.3125 199 " class="clickable"/></g></g><g id="sprotty_ArchitectureBlockImpl$aes_sub_bytes/BPortImpl$out_ack_i_to_ArchitectureBlockImpl$aes_sub_bytes/GenerateStatementBlockImpl$gen_sbox_j/GPortImpl$out_ack_i" class="sprotty-edge edge" style="fill:none;stroke:rgb(112, 112, 112);stroke-linejoin:round;"><g><path d="M 0 227 L 96.3125 227 "/><path d="M 0 227 L 96.3125 227 " class="clickable"/></g></g><g id="sprotty_ArchitectureBlockImpl$aes_sub_bytes/BPortImpl$op_i_to_ArchitectureBlockImpl$aes_sub_bytes/GenerateStatementBlockImpl$gen_sbox_j/GPortImpl$op_i" class="sprotty-edge thick edge" style="fill:none;stroke:rgb(112, 112, 112);stroke-linejoin:round;stroke-width:3px;"><g><path d="M 0 261 L 84.3125 261 C 85.3125 261 86.3125 260 86.3125 259 L 86.3125 257 C 86.3125 256 87.3125 255 88.3125 255 L 96.3125 255 "/><path d="M 0 261 L 84.3125 261 C 85.3125 261 86.3125 260 86.3125 259 L 86.3125 257 C 86.3125 256 87.3125 255 88.3125 255 L 96.3125 255 " class="clickable"/></g></g><g id="sprotty_ArchitectureBlockImpl$aes_sub_bytes/BPortImpl$data_i_to_ArchitectureBlockImpl$aes_sub_bytes/GenerateStatementBlockImpl$gen_sbox_j/GPortImpl$data_i" class="sprotty-edge thick edge" style="fill:none;stroke:rgb(112, 112, 112);stroke-linejoin:round;stroke-width:3px;"><g><path d="M 0 295 L 84.3125 295 C 85.3125 295 86.3125 294 86.3125 293 L 86.3125 285 C 86.3125 284 87.3125 283 88.3125 283 L 96.3125 283 "/><path d="M 0 295 L 84.3125 295 C 85.3125 295 86.3125 294 86.3125 293 L 86.3125 285 C 86.3125 284 87.3125 283 88.3125 283 L 96.3125 283 " class="clickable"/></g></g><g id="sprotty_ArchitectureBlockImpl$aes_sub_bytes/BPortImpl$mask_i_to_ArchitectureBlockImpl$aes_sub_bytes/GenerateStatementBlockImpl$gen_sbox_j/GPortImpl$mask_i" class="sprotty-edge thick edge" style="fill:none;stroke:rgb(112, 112, 112);stroke-linejoin:round;stroke-width:3px;"><g><path d="M 0 329 L 84.3125 329 C 85.3125 329 86.3125 328 86.3125 327 L 86.3125 313 C 86.3125 312 87.3125 311 88.3125 311 L 96.3125 311 "/><path d="M 0 329 L 84.3125 329 C 85.3125 329 86.3125 328 86.3125 327 L 86.3125 313 C 86.3125 312 87.3125 311 88.3125 311 L 96.3125 311 " class="clickable"/></g></g><g id="sprotty_ArchitectureBlockImpl$aes_sub_bytes/BPortImpl$prd_i_to_ArchitectureBlockImpl$aes_sub_bytes/GenerateStatementBlockImpl$gen_sbox_j/GPortImpl$prd_i" class="sprotty-edge thick edge" style="fill:none;stroke:rgb(112, 112, 112);stroke-linejoin:round;stroke-width:3px;"><g><path d="M 0 363 L 84.3125 363 C 85.3125 363 86.3125 362 86.3125 361 L 86.3125 341 C 86.3125 340 87.3125 339 88.3125 339 L 96.3125 339 "/><path d="M 0 363 L 84.3125 363 C 85.3125 363 86.3125 362 86.3125 361 L 86.3125 341 C 86.3125 340 87.3125 339 88.3125 339 L 96.3125 339 " class="clickable"/></g></g><g id="sprotty_ArchitectureBlockImpl$aes_sub_bytes/GenerateStatementBlockImpl$gen_sbox_j/GPortImpl$out_req_to_ArchitectureBlockImpl$aes_sub_bytes/AssignmentBlockImpl$out_req_o/GPortImpl$out_reqIN" class="sprotty-edge thick edge" style="fill:none;stroke:rgb(112, 112, 112);stroke-linejoin:round;stroke-width:3px;"><g><path d="M 359.9375 143 L 379.9375 143 "/><path d="M 359.9375 143 L 379.9375 143 " class="clickable"/></g></g><g id="sprotty_ArchitectureBlockImpl$aes_sub_bytes/GenerateStatementBlockImpl$gen_sbox_j" transform="translate(96.3125, 35)" class="generate"><g class="sprotty-block sprotty-block-generate" style="fill:rgb(255, 255, 255);stroke:rgb(48, 48, 48);stroke-dasharray:0px;"><rect x="0" y="0" rx="1" ry="1" width="263.625" height="352" style="stroke-dasharray:3px, 1px;"/><text x="131.8125" y="12" class="sprotty-block-name" style="cursor:pointer;font-weight:700;perspective-origin:131.812px 0px;fill:rgb(48, 48, 48);stroke:rgba(0, 0, 0, 0);dominant-baseline:middle;text-anchor:middle;">gen_sbox_j</text><line x1="0" y1="20" x2="263.625" y2="20" style="stroke-dasharray:3px, 1px;"/></g><g id="sprotty_ArchitectureBlockImpl$aes_sub_bytes/GenerateStatementBlockImpl$gen_sbox_j/GenerateStatementBlockImpl$gen_sbox_i" transform="translate(15, 35)" class="generate"><g class="sprotty-block sprotty-block-generate" style="fill:rgb(255, 255, 255);stroke:rgb(48, 48, 48);stroke-dasharray:0px;"><rect x="0" y="0" rx="1" ry="1" width="233.625" height="302" style="stroke-dasharray:3px, 1px;"/><text x="116.8125" y="12" class="sprotty-block-name" style="cursor:pointer;font-weight:700;perspective-origin:116.812px 0px;fill:rgb(48, 48, 48);stroke:rgba(0, 0, 0, 0);dominant-baseline:middle;text-anchor:middle;">gen_sbox_i</text><line x1="0" y1="20" x2="233.625" y2="20" style="stroke-dasharray:3px, 1px;"/></g><g id="sprotty_ArchitectureBlockImpl$aes_sub_bytes/GenerateStatementBlockImpl$gen_sbox_j/GenerateStatementBlockImpl$gen_sbox_i/InstantiationBlockImpl$u_aes_sbox_ij/BPortImpl$data_o_to_ArchitectureBlockImpl$aes_sub_bytes/GenerateStatementBlockImpl$gen_sbox_j/GenerateStatementBlockImpl$gen_sbox_i/GPortImpl$data_o" class="sprotty-edge thick edge" style="fill:none;stroke:rgb(112, 112, 112);stroke-linejoin:round;stroke-width:3px;"><g><path d="M 218.625 171 L 233.625 171 "/><path d="M 218.625 171 L 233.625 171 " class="clickable"/></g></g><g id="sprotty_ArchitectureBlockImpl$aes_sub_bytes/GenerateStatementBlockImpl$gen_sbox_j/GenerateStatementBlockImpl$gen_sbox_i/GPortImpl$data_o_to_ArchitectureBlockImpl$aes_sub_bytes/GenerateStatementBlockImpl$gen_sbox_j/GPortImpl$data_o" class="sprotty-edge thick edge" style="fill:none;stroke:rgb(112, 112, 112);stroke-linejoin:round;stroke-width:3px;"><g><path d="M 233.625 171 L 248.625 171 "/><path d="M 233.625 171 L 248.625 171 " class="clickable"/></g></g><g id="sprotty_ArchitectureBlockImpl$aes_sub_bytes/GenerateStatementBlockImpl$gen_sbox_j/GenerateStatementBlockImpl$gen_sbox_i/InstantiationBlockImpl$u_aes_sbox_ij/BPortImpl$mask_o_to_ArchitectureBlockImpl$aes_sub_bytes/GenerateStatementBlockImpl$gen_sbox_j/GenerateStatementBlockImpl$gen_sbox_i/GPortImpl$mask_o" class="sprotty-edge thick edge" style="fill:none;stroke:rgb(112, 112, 112);stroke-linejoin:round;stroke-width:3px;"><g><path d="M 218.625 269 L 233.625 269 "/><path d="M 218.625 269 L 233.625 269 " class="clickable"/></g></g><g id="sprotty_ArchitectureBlockImpl$aes_sub_bytes/GenerateStatementBlockImpl$gen_sbox_j/GenerateStatementBlockImpl$gen_sbox_i/GPortImpl$mask_o_to_ArchitectureBlockImpl$aes_sub_bytes/GenerateStatementBlockImpl$gen_sbox_j/GPortImpl$mask_o" class="sprotty-edge thick edge" style="fill:none;stroke:rgb(112, 112, 112);stroke-linejoin:round;stroke-width:3px;"><g><path d="M 233.625 269 L 248.625 269 "/><path d="M 233.625 269 L 248.625 269 " class="clickable"/></g></g><g id="sprotty_ArchitectureBlockImpl$aes_sub_bytes/GenerateStatementBlockImpl$gen_sbox_j/GenerateStatementBlockImpl$gen_sbox_i/GPortImpl$clk_i_to_ArchitectureBlockImpl$aes_sub_bytes/GenerateStatementBlockImpl$gen_sbox_j/GenerateStatementBlockImpl$gen_sbox_i/InstantiationBlockImpl$u_aes_sbox_ij/BPortImpl$clk_i" class="sprotty-edge edge" style="fill:none;stroke:rgb(112, 112, 112);stroke-linejoin:round;"><g><path d="M 0 73 L 15 73 "/><path d="M 0 73 L 15 73 " class="clickable"/></g></g><g id="sprotty_ArchitectureBlockImpl$aes_sub_bytes/GenerateStatementBlockImpl$gen_sbox_j/GPortImpl$clk_i_to_ArchitectureBlockImpl$aes_sub_bytes/GenerateStatementBlockImpl$gen_sbox_j/GenerateStatementBlockImpl$gen_sbox_i/GPortImpl$clk_i" class="sprotty-edge edge" style="fill:none;stroke:rgb(112, 112, 112);stroke-linejoin:round;"><g><path d="M -15 73 L 0 73 "/><path d="M -15 73 L 0 73 " class="clickable"/></g></g><g id="sprotty_ArchitectureBlockImpl$aes_sub_bytes/GenerateStatementBlockImpl$gen_sbox_j/GenerateStatementBlockImpl$gen_sbox_i/GPortImpl$rst_ni_to_ArchitectureBlockImpl$aes_sub_bytes/GenerateStatementBlockImpl$gen_sbox_j/GenerateStatementBlockImpl$gen_sbox_i/InstantiationBlockImpl$u_aes_sbox_ij/BPortImpl$rst_ni" class="sprotty-edge edge" style="fill:none;stroke:rgb(112, 112, 112);stroke-linejoin:round;"><g><path d="M 0 101 L 15 101 "/><path d="M 0 101 L 15 101 " class="clickable"/></g></g><g id="sprotty_ArchitectureBlockImpl$aes_sub_bytes/GenerateStatementBlockImpl$gen_sbox_j/GPortImpl$rst_ni_to_ArchitectureBlockImpl$aes_sub_bytes/GenerateStatementBlockImpl$gen_sbox_j/GenerateStatementBlockImpl$gen_sbox_i/GPortImpl$rst_ni" class="sprotty-edge edge" style="fill:none;stroke:rgb(112, 112, 112);stroke-linejoin:round;"><g><path d="M -15 101 L 0 101 "/><path d="M -15 101 L 0 101 " class="clickable"/></g></g><g id="sprotty_ArchitectureBlockImpl$aes_sub_bytes/GenerateStatementBlockImpl$gen_sbox_j/GenerateStatementBlockImpl$gen_sbox_i/GPortImpl$en_i_to_ArchitectureBlockImpl$aes_sub_bytes/GenerateStatementBlockImpl$gen_sbox_j/GenerateStatementBlockImpl$gen_sbox_i/InstantiationBlockImpl$u_aes_sbox_ij/BPortImpl$en_i" class="sprotty-edge edge" style="fill:none;stroke:rgb(112, 112, 112);stroke-linejoin:round;"><g><path d="M 0 129 L 15 129 "/><path d="M 0 129 L 15 129 " class="clickable"/></g></g><g id="sprotty_ArchitectureBlockImpl$aes_sub_bytes/GenerateStatementBlockImpl$gen_sbox_j/GPortImpl$en_i_to_ArchitectureBlockImpl$aes_sub_bytes/GenerateStatementBlockImpl$gen_sbox_j/GenerateStatementBlockImpl$gen_sbox_i/GPortImpl$en_i" class="sprotty-edge edge" style="fill:none;stroke:rgb(112, 112, 112);stroke-linejoin:round;"><g><path d="M -15 129 L 0 129 "/><path d="M -15 129 L 0 129 " class="clickable"/></g></g><g id="sprotty_ArchitectureBlockImpl$aes_sub_bytes/GenerateStatementBlockImpl$gen_sbox_j/GenerateStatementBlockImpl$gen_sbox_i/GPortImpl$out_ack_i_to_ArchitectureBlockImpl$aes_sub_bytes/GenerateStatementBlockImpl$gen_sbox_j/GenerateStatementBlockImpl$gen_sbox_i/InstantiationBlockImpl$u_aes_sbox_ij/BPortImpl$out_ack_i" class="sprotty-edge edge" style="fill:none;stroke:rgb(112, 112, 112);stroke-linejoin:round;"><g><path d="M 0 157 L 15 157 "/><path d="M 0 157 L 15 157 " class="clickable"/></g></g><g id="sprotty_ArchitectureBlockImpl$aes_sub_bytes/GenerateStatementBlockImpl$gen_sbox_j/GPortImpl$out_ack_i_to_ArchitectureBlockImpl$aes_sub_bytes/GenerateStatementBlockImpl$gen_sbox_j/GenerateStatementBlockImpl$gen_sbox_i/GPortImpl$out_ack_i" class="sprotty-edge edge" style="fill:none;stroke:rgb(112, 112, 112);stroke-linejoin:round;"><g><path d="M -15 157 L 0 157 "/><path d="M -15 157 L 0 157 " class="clickable"/></g></g><g id="sprotty_ArchitectureBlockImpl$aes_sub_bytes/GenerateStatementBlockImpl$gen_sbox_j/GenerateStatementBlockImpl$gen_sbox_i/GPortImpl$op_i_to_ArchitectureBlockImpl$aes_sub_bytes/GenerateStatementBlockImpl$gen_sbox_j/GenerateStatementBlockImpl$gen_sbox_i/InstantiationBlockImpl$u_aes_sbox_ij/BPortImpl$op_i" class="sprotty-edge thick edge" style="fill:none;stroke:rgb(112, 112, 112);stroke-linejoin:round;stroke-width:3px;"><g><path d="M 0 185 L 15 185 "/><path d="M 0 185 L 15 185 " class="clickable"/></g></g><g id="sprotty_ArchitectureBlockImpl$aes_sub_bytes/GenerateStatementBlockImpl$gen_sbox_j/GPortImpl$op_i_to_ArchitectureBlockImpl$aes_sub_bytes/GenerateStatementBlockImpl$gen_sbox_j/GenerateStatementBlockImpl$gen_sbox_i/GPortImpl$op_i" class="sprotty-edge thick edge" style="fill:none;stroke:rgb(112, 112, 112);stroke-linejoin:round;stroke-width:3px;"><g><path d="M -15 185 L 0 185 "/><path d="M -15 185 L 0 185 " class="clickable"/></g></g><g id="sprotty_ArchitectureBlockImpl$aes_sub_bytes/GenerateStatementBlockImpl$gen_sbox_j/GenerateStatementBlockImpl$gen_sbox_i/GPortImpl$data_i_to_ArchitectureBlockImpl$aes_sub_bytes/GenerateStatementBlockImpl$gen_sbox_j/GenerateStatementBlockImpl$gen_sbox_i/InstantiationBlockImpl$u_aes_sbox_ij/BPortImpl$data_i" class="sprotty-edge thick edge" style="fill:none;stroke:rgb(112, 112, 112);stroke-linejoin:round;stroke-width:3px;"><g><path d="M 0 213 L 15 213 "/><path d="M 0 213 L 15 213 " class="clickable"/></g></g><g id="sprotty_ArchitectureBlockImpl$aes_sub_bytes/GenerateStatementBlockImpl$gen_sbox_j/GPortImpl$data_i_to_ArchitectureBlockImpl$aes_sub_bytes/GenerateStatementBlockImpl$gen_sbox_j/GenerateStatementBlockImpl$gen_sbox_i/GPortImpl$data_i" class="sprotty-edge thick edge" style="fill:none;stroke:rgb(112, 112, 112);stroke-linejoin:round;stroke-width:3px;"><g><path d="M -15 213 L 0 213 "/><path d="M -15 213 L 0 213 " class="clickable"/></g></g><g id="sprotty_ArchitectureBlockImpl$aes_sub_bytes/GenerateStatementBlockImpl$gen_sbox_j/GenerateStatementBlockImpl$gen_sbox_i/GPortImpl$mask_i_to_ArchitectureBlockImpl$aes_sub_bytes/GenerateStatementBlockImpl$gen_sbox_j/GenerateStatementBlockImpl$gen_sbox_i/InstantiationBlockImpl$u_aes_sbox_ij/BPortImpl$mask_i" class="sprotty-edge thick edge" style="fill:none;stroke:rgb(112, 112, 112);stroke-linejoin:round;stroke-width:3px;"><g><path d="M 0 241 L 15 241 "/><path d="M 0 241 L 15 241 " class="clickable"/></g></g><g id="sprotty_ArchitectureBlockImpl$aes_sub_bytes/GenerateStatementBlockImpl$gen_sbox_j/GPortImpl$mask_i_to_ArchitectureBlockImpl$aes_sub_bytes/GenerateStatementBlockImpl$gen_sbox_j/GenerateStatementBlockImpl$gen_sbox_i/GPortImpl$mask_i" class="sprotty-edge thick edge" style="fill:none;stroke:rgb(112, 112, 112);stroke-linejoin:round;stroke-width:3px;"><g><path d="M -15 241 L 0 241 "/><path d="M -15 241 L 0 241 " class="clickable"/></g></g><g id="sprotty_ArchitectureBlockImpl$aes_sub_bytes/GenerateStatementBlockImpl$gen_sbox_j/GenerateStatementBlockImpl$gen_sbox_i/GPortImpl$prd_i_to_ArchitectureBlockImpl$aes_sub_bytes/GenerateStatementBlockImpl$gen_sbox_j/GenerateStatementBlockImpl$gen_sbox_i/InstantiationBlockImpl$u_aes_sbox_ij/BPortImpl$prd_i" class="sprotty-edge thick edge" style="fill:none;stroke:rgb(112, 112, 112);stroke-linejoin:round;stroke-width:3px;"><g><path d="M 0 269 L 15 269 "/><path d="M 0 269 L 15 269 " class="clickable"/></g></g><g id="sprotty_ArchitectureBlockImpl$aes_sub_bytes/GenerateStatementBlockImpl$gen_sbox_j/GPortImpl$prd_i_to_ArchitectureBlockImpl$aes_sub_bytes/GenerateStatementBlockImpl$gen_sbox_j/GenerateStatementBlockImpl$gen_sbox_i/GPortImpl$prd_i" class="sprotty-edge thick edge" style="fill:none;stroke:rgb(112, 112, 112);stroke-linejoin:round;stroke-width:3px;"><g><path d="M -15 269 L 0 269 "/><path d="M -15 269 L 0 269 " class="clickable"/></g></g><g id="sprotty_ArchitectureBlockImpl$aes_sub_bytes/GenerateStatementBlockImpl$gen_sbox_j/GenerateStatementBlockImpl$gen_sbox_i/InstantiationBlockImpl$u_aes_sbox_ij/BPortImpl$out_req_o_to_ArchitectureBlockImpl$aes_sub_bytes/GenerateStatementBlockImpl$gen_sbox_j/GenerateStatementBlockImpl$gen_sbox_i/GPortImpl$out_req" class="sprotty-edge thick edge" style="fill:none;stroke:rgb(112, 112, 112);stroke-linejoin:round;stroke-width:3px;"><g><path d="M 218.625 73 L 233.625 73 "/><path d="M 218.625 73 L 233.625 73 " class="clickable"/></g></g><g id="sprotty_ArchitectureBlockImpl$aes_sub_bytes/GenerateStatementBlockImpl$gen_sbox_j/GenerateStatementBlockImpl$gen_sbox_i/GPortImpl$out_req_to_ArchitectureBlockImpl$aes_sub_bytes/GenerateStatementBlockImpl$gen_sbox_j/GPortImpl$out_req" class="sprotty-edge thick edge" style="fill:none;stroke:rgb(112, 112, 112);stroke-linejoin:round;stroke-width:3px;"><g><path d="M 233.625 73 L 248.625 73 "/><path d="M 233.625 73 L 248.625 73 " class="clickable"/></g></g><g id="sprotty_ArchitectureBlockImpl$aes_sub_bytes/GenerateStatementBlockImpl$gen_sbox_j/GenerateStatementBlockImpl$gen_sbox_i/InstantiationBlockImpl$u_aes_sbox_ij" transform="translate(15, 35)" class="instantiation"><g class="sprotty-block" style="fill:rgb(255, 255, 255);stroke:rgb(48, 48, 48);stroke-dasharray:0px;"><rect x="0" y="0" rx="1" ry="1" width="203.625" height="252"/><text x="101.8125" y="12" class="sprotty-block-name" style="cursor:pointer;font-weight:700;perspective-origin:101.812px 0px;fill:rgb(48, 48, 48);stroke:rgba(0, 0, 0, 0);dominant-baseline:middle;text-anchor:middle;">u_aes_sbox_ij : aes_sbox</text><line x1="0" y1="20" x2="203.625" y2="20"/></g><g id="sprotty_ArchitectureBlockImpl$aes_sub_bytes/GenerateStatementBlockImpl$gen_sbox_j/GenerateStatementBlockImpl$gen_sbox_i/InstantiationBlockImpl$u_aes_sbox_ij/BPortImpl$prd_i" transform="translate(0, 234)" class="triangle"><path d="M 0,0 L 5,2.5 L 0,5 Z" transform="translate(-1.67, -2.5)" class="sprotty-port" style="fill:rgb(48, 48, 48);stroke:rgb(48, 48, 48);"/><text class="clickable sprotty-label port" id="sprotty_ArchitectureBlockImpl$aes_sub_bytes/GenerateStatementBlockImpl$gen_sbox_j/GenerateStatementBlockImpl$gen_sbox_i/InstantiationBlockImpl$u_aes_sbox_ij/BPortImpl$prd_i/label" transform="translate(6, -9) translate(14.71875, 14)" style="cursor:default;font-size:12px;perspective-origin:0px 0px;fill:rgb(48, 48, 48);text-anchor:middle;">prd_i</text></g><g id="sprotty_ArchitectureBlockImpl$aes_sub_bytes/GenerateStatementBlockImpl$gen_sbox_j/GenerateStatementBlockImpl$gen_sbox_i/InstantiationBlockImpl$u_aes_sbox_ij/BPortImpl$mask_i" transform="translate(0, 206)" class="triangle"><path d="M 0,0 L 5,2.5 L 0,5 Z" transform="translate(-1.67, -2.5)" class="sprotty-port" style="fill:rgb(48, 48, 48);stroke:rgb(48, 48, 48);"/><text class="clickable sprotty-label port" id="sprotty_ArchitectureBlockImpl$aes_sub_bytes/GenerateStatementBlockImpl$gen_sbox_j/GenerateStatementBlockImpl$gen_sbox_i/InstantiationBlockImpl$u_aes_sbox_ij/BPortImpl$mask_i/label" transform="translate(6, -9) translate(20.078125, 14)" style="cursor:default;font-size:12px;perspective-origin:0px 0px;fill:rgb(48, 48, 48);text-anchor:middle;">mask_i</text></g><g id="sprotty_ArchitectureBlockImpl$aes_sub_bytes/GenerateStatementBlockImpl$gen_sbox_j/GenerateStatementBlockImpl$gen_sbox_i/InstantiationBlockImpl$u_aes_sbox_ij/BPortImpl$data_i" transform="translate(0, 178)" class="triangle"><path d="M 0,0 L 5,2.5 L 0,5 Z" transform="translate(-1.67, -2.5)" class="sprotty-port" style="fill:rgb(48, 48, 48);stroke:rgb(48, 48, 48);"/><text class="clickable sprotty-label port" id="sprotty_ArchitectureBlockImpl$aes_sub_bytes/GenerateStatementBlockImpl$gen_sbox_j/GenerateStatementBlockImpl$gen_sbox_i/InstantiationBlockImpl$u_aes_sbox_ij/BPortImpl$data_i/label" transform="translate(6, -9) translate(17.53125, 14)" style="cursor:default;font-size:12px;perspective-origin:0px 0px;fill:rgb(48, 48, 48);text-anchor:middle;">data_i</text></g><g id="sprotty_ArchitectureBlockImpl$aes_sub_bytes/GenerateStatementBlockImpl$gen_sbox_j/GenerateStatementBlockImpl$gen_sbox_i/InstantiationBlockImpl$u_aes_sbox_ij/BPortImpl$op_i" transform="translate(0, 150)" class="triangle"><path d="M 0,0 L 5,2.5 L 0,5 Z" transform="translate(-1.67, -2.5)" class="sprotty-port" style="fill:rgb(48, 48, 48);stroke:rgb(48, 48, 48);"/><text class="clickable sprotty-label port" id="sprotty_ArchitectureBlockImpl$aes_sub_bytes/GenerateStatementBlockImpl$gen_sbox_j/GenerateStatementBlockImpl$gen_sbox_i/InstantiationBlockImpl$u_aes_sbox_ij/BPortImpl$op_i/label" transform="translate(6, -9) translate(12.375, 14)" style="cursor:default;font-size:12px;perspective-origin:0px 0px;fill:rgb(48, 48, 48);text-anchor:middle;">op_i</text></g><g id="sprotty_ArchitectureBlockImpl$aes_sub_bytes/GenerateStatementBlockImpl$gen_sbox_j/GenerateStatementBlockImpl$gen_sbox_i/InstantiationBlockImpl$u_aes_sbox_ij/BPortImpl$out_ack_i" transform="translate(0, 122)" class="triangle"><path d="M 0,0 L 5,2.5 L 0,5 Z" transform="translate(-1.67, -2.5)" class="sprotty-port" style="fill:rgb(48, 48, 48);stroke:rgb(48, 48, 48);"/><text class="clickable sprotty-label port" id="sprotty_ArchitectureBlockImpl$aes_sub_bytes/GenerateStatementBlockImpl$gen_sbox_j/GenerateStatementBlockImpl$gen_sbox_i/InstantiationBlockImpl$u_aes_sbox_ij/BPortImpl$out_ack_i/label" transform="translate(6, -9) translate(27.65625, 14)" style="cursor:default;font-size:12px;perspective-origin:0px 0px;fill:rgb(48, 48, 48);text-anchor:middle;">out_ack_i</text></g><g id="sprotty_ArchitectureBlockImpl$aes_sub_bytes/GenerateStatementBlockImpl$gen_sbox_j/GenerateStatementBlockImpl$gen_sbox_i/InstantiationBlockImpl$u_aes_sbox_ij/BPortImpl$en_i" transform="translate(0, 94)" class="triangle"><path d="M 0,0 L 5,2.5 L 0,5 Z" transform="translate(-1.67, -2.5)" class="sprotty-port" style="fill:rgb(48, 48, 48);stroke:rgb(48, 48, 48);"/><text class="clickable sprotty-label port" id="sprotty_ArchitectureBlockImpl$aes_sub_bytes/GenerateStatementBlockImpl$gen_sbox_j/GenerateStatementBlockImpl$gen_sbox_i/InstantiationBlockImpl$u_aes_sbox_ij/BPortImpl$en_i/label" transform="translate(6, -9) translate(12, 14)" style="cursor:default;font-size:12px;perspective-origin:0px 0px;fill:rgb(48, 48, 48);text-anchor:middle;">en_i</text></g><g id="sprotty_ArchitectureBlockImpl$aes_sub_bytes/GenerateStatementBlockImpl$gen_sbox_j/GenerateStatementBlockImpl$gen_sbox_i/InstantiationBlockImpl$u_aes_sbox_ij/BPortImpl$rst_ni" transform="translate(0, 66)" class="triangle"><path d="M 0,0 L 5,2.5 L 0,5 Z" transform="translate(-1.67, -2.5)" class="sprotty-port" style="fill:rgb(48, 48, 48);stroke:rgb(48, 48, 48);"/><text class="clickable sprotty-label port" id="sprotty_ArchitectureBlockImpl$aes_sub_bytes/GenerateStatementBlockImpl$gen_sbox_j/GenerateStatementBlockImpl$gen_sbox_i/InstantiationBlockImpl$u_aes_sbox_ij/BPortImpl$rst_ni/label" transform="translate(6, -9) translate(15.921875, 14)" style="cursor:default;font-size:12px;perspective-origin:0px 0px;fill:rgb(48, 48, 48);text-anchor:middle;">rst_ni</text></g><g id="sprotty_ArchitectureBlockImpl$aes_sub_bytes/GenerateStatementBlockImpl$gen_sbox_j/GenerateStatementBlockImpl$gen_sbox_i/InstantiationBlockImpl$u_aes_sbox_ij/BPortImpl$clk_i" transform="translate(0, 38)" class="triangle"><path d="M 0,0 L 5,2.5 L 0,5 Z" transform="translate(-1.67, -2.5)" class="sprotty-port" style="fill:rgb(48, 48, 48);stroke:rgb(48, 48, 48);"/><text class="clickable sprotty-label port" id="sprotty_ArchitectureBlockImpl$aes_sub_bytes/GenerateStatementBlockImpl$gen_sbox_j/GenerateStatementBlockImpl$gen_sbox_i/InstantiationBlockImpl$u_aes_sbox_ij/BPortImpl$clk_i/label" transform="translate(6, -9) translate(13.09375, 14)" style="cursor:default;font-size:12px;perspective-origin:0px 0px;fill:rgb(48, 48, 48);text-anchor:middle;">clk_i</text></g><g id="sprotty_ArchitectureBlockImpl$aes_sub_bytes/GenerateStatementBlockImpl$gen_sbox_j/GenerateStatementBlockImpl$gen_sbox_i/InstantiationBlockImpl$u_aes_sbox_ij/BPortImpl$out_req_o" transform="translate(203.625, 38)" class="triangle"><path d="M 0,0 L 5,2.5 L 0,5 Z" transform="translate(-1.67, -2.5)" class="sprotty-port" style="fill:rgb(48, 48, 48);stroke:rgb(48, 48, 48);"/><text class="clickable sprotty-label port" id="sprotty_ArchitectureBlockImpl$aes_sub_bytes/GenerateStatementBlockImpl$gen_sbox_j/GenerateStatementBlockImpl$gen_sbox_i/InstantiationBlockImpl$u_aes_sbox_ij/BPortImpl$out_req_o/label" transform="translate(-64.40625, -9) translate(29.203125, 14)" style="cursor:default;font-size:12px;perspective-origin:0px 0px;fill:rgb(48, 48, 48);text-anchor:middle;">out_req_o</text></g><g id="sprotty_ArchitectureBlockImpl$aes_sub_bytes/GenerateStatementBlockImpl$gen_sbox_j/GenerateStatementBlockImpl$gen_sbox_i/InstantiationBlockImpl$u_aes_sbox_ij/BPortImpl$data_o" transform="translate(203.625, 136)" class="triangle"><path d="M 0,0 L 5,2.5 L 0,5 Z" transform="translate(-1.67, -2.5)" class="sprotty-port" style="fill:rgb(48, 48, 48);stroke:rgb(48, 48, 48);"/><text class="clickable sprotty-label port" id="sprotty_ArchitectureBlockImpl$aes_sub_bytes/GenerateStatementBlockImpl$gen_sbox_j/GenerateStatementBlockImpl$gen_sbox_i/InstantiationBlockImpl$u_aes_sbox_ij/BPortImpl$data_o/label" transform="translate(-45.03125, -9) translate(19.515625, 14)" style="cursor:default;font-size:12px;perspective-origin:0px 0px;fill:rgb(48, 48, 48);text-anchor:middle;">data_o</text></g><g id="sprotty_ArchitectureBlockImpl$aes_sub_bytes/GenerateStatementBlockImpl$gen_sbox_j/GenerateStatementBlockImpl$gen_sbox_i/InstantiationBlockImpl$u_aes_sbox_ij/BPortImpl$mask_o" transform="translate(203.625, 234)" class="triangle"><path d="M 0,0 L 5,2.5 L 0,5 Z" transform="translate(-1.67, -2.5)" class="sprotty-port" style="fill:rgb(48, 48, 48);stroke:rgb(48, 48, 48);"/><text class="clickable sprotty-label port" id="sprotty_ArchitectureBlockImpl$aes_sub_bytes/GenerateStatementBlockImpl$gen_sbox_j/GenerateStatementBlockImpl$gen_sbox_i/InstantiationBlockImpl$u_aes_sbox_ij/BPortImpl$mask_o/label" transform="translate(-50.125, -9) translate(22.0625, 14)" style="cursor:default;font-size:12px;perspective-origin:0px 0px;fill:rgb(48, 48, 48);text-anchor:middle;">mask_o</text></g></g><g id="sprotty_ArchitectureBlockImpl$aes_sub_bytes/GenerateStatementBlockImpl$gen_sbox_j/GenerateStatementBlockImpl$gen_sbox_i/GPortImpl$prd_i" transform="translate(0, 269)" class="triangle"><path d="M 0,0 L 5,2.5 L 0,5 Z" transform="translate(-1.67, -2.5)" class="sprotty-port" style="fill:rgb(48, 48, 48);stroke:rgb(48, 48, 48);"/></g><g id="sprotty_ArchitectureBlockImpl$aes_sub_bytes/GenerateStatementBlockImpl$gen_sbox_j/GenerateStatementBlockImpl$gen_sbox_i/GPortImpl$mask_i" transform="translate(0, 241)" class="triangle"><path d="M 0,0 L 5,2.5 L 0,5 Z" transform="translate(-1.67, -2.5)" class="sprotty-port" style="fill:rgb(48, 48, 48);stroke:rgb(48, 48, 48);"/></g><g id="sprotty_ArchitectureBlockImpl$aes_sub_bytes/GenerateStatementBlockImpl$gen_sbox_j/GenerateStatementBlockImpl$gen_sbox_i/GPortImpl$data_i" transform="translate(0, 213)" class="triangle"><path d="M 0,0 L 5,2.5 L 0,5 Z" transform="translate(-1.67, -2.5)" class="sprotty-port" style="fill:rgb(48, 48, 48);stroke:rgb(48, 48, 48);"/></g><g id="sprotty_ArchitectureBlockImpl$aes_sub_bytes/GenerateStatementBlockImpl$gen_sbox_j/GenerateStatementBlockImpl$gen_sbox_i/GPortImpl$op_i" transform="translate(0, 185)" class="triangle"><path d="M 0,0 L 5,2.5 L 0,5 Z" transform="translate(-1.67, -2.5)" class="sprotty-port" style="fill:rgb(48, 48, 48);stroke:rgb(48, 48, 48);"/></g><g id="sprotty_ArchitectureBlockImpl$aes_sub_bytes/GenerateStatementBlockImpl$gen_sbox_j/GenerateStatementBlockImpl$gen_sbox_i/GPortImpl$out_ack_i" transform="translate(0, 157)" class="triangle"><path d="M 0,0 L 5,2.5 L 0,5 Z" transform="translate(-1.67, -2.5)" class="sprotty-port" style="fill:rgb(48, 48, 48);stroke:rgb(48, 48, 48);"/></g><g id="sprotty_ArchitectureBlockImpl$aes_sub_bytes/GenerateStatementBlockImpl$gen_sbox_j/GenerateStatementBlockImpl$gen_sbox_i/GPortImpl$en_i" transform="translate(0, 129)" class="triangle"><path d="M 0,0 L 5,2.5 L 0,5 Z" transform="translate(-1.67, -2.5)" class="sprotty-port" style="fill:rgb(48, 48, 48);stroke:rgb(48, 48, 48);"/></g><g id="sprotty_ArchitectureBlockImpl$aes_sub_bytes/GenerateStatementBlockImpl$gen_sbox_j/GenerateStatementBlockImpl$gen_sbox_i/GPortImpl$rst_ni" transform="translate(0, 101)" class="triangle"><path d="M 0,0 L 5,2.5 L 0,5 Z" transform="translate(-1.67, -2.5)" class="sprotty-port" style="fill:rgb(48, 48, 48);stroke:rgb(48, 48, 48);"/></g><g id="sprotty_ArchitectureBlockImpl$aes_sub_bytes/GenerateStatementBlockImpl$gen_sbox_j/GenerateStatementBlockImpl$gen_sbox_i/GPortImpl$clk_i" transform="translate(0, 73)" class="triangle"><path d="M 0,0 L 5,2.5 L 0,5 Z" transform="translate(-1.67, -2.5)" class="sprotty-port" style="fill:rgb(48, 48, 48);stroke:rgb(48, 48, 48);"/></g><g id="sprotty_ArchitectureBlockImpl$aes_sub_bytes/GenerateStatementBlockImpl$gen_sbox_j/GenerateStatementBlockImpl$gen_sbox_i/GPortImpl$data_o" transform="translate(233.625, 171)" class="triangle"><path d="M 0,0 L 5,2.5 L 0,5 Z" transform="translate(-1.67, -2.5)" class="sprotty-port" style="fill:rgb(48, 48, 48);stroke:rgb(48, 48, 48);"/></g><g id="sprotty_ArchitectureBlockImpl$aes_sub_bytes/GenerateStatementBlockImpl$gen_sbox_j/GenerateStatementBlockImpl$gen_sbox_i/GPortImpl$mask_o" transform="translate(233.625, 269)" class="triangle"><path d="M 0,0 L 5,2.5 L 0,5 Z" transform="translate(-1.67, -2.5)" class="sprotty-port" style="fill:rgb(48, 48, 48);stroke:rgb(48, 48, 48);"/></g><g id="sprotty_ArchitectureBlockImpl$aes_sub_bytes/GenerateStatementBlockImpl$gen_sbox_j/GenerateStatementBlockImpl$gen_sbox_i/GPortImpl$out_req" transform="translate(233.625, 73)" class="triangle"><path d="M 0,0 L 5,2.5 L 0,5 Z" transform="translate(-1.67, -2.5)" class="sprotty-port" style="fill:rgb(48, 48, 48);stroke:rgb(48, 48, 48);"/></g></g><g id="sprotty_ArchitectureBlockImpl$aes_sub_bytes/GenerateStatementBlockImpl$gen_sbox_j/GPortImpl$prd_i" transform="translate(0, 304)" class="triangle"><path d="M 0,0 L 5,2.5 L 0,5 Z" transform="translate(-1.67, -2.5)" class="sprotty-port" style="fill:rgb(48, 48, 48);stroke:rgb(48, 48, 48);"/></g><g id="sprotty_ArchitectureBlockImpl$aes_sub_bytes/GenerateStatementBlockImpl$gen_sbox_j/GPortImpl$mask_i" transform="translate(0, 276)" class="triangle"><path d="M 0,0 L 5,2.5 L 0,5 Z" transform="translate(-1.67, -2.5)" class="sprotty-port" style="fill:rgb(48, 48, 48);stroke:rgb(48, 48, 48);"/></g><g id="sprotty_ArchitectureBlockImpl$aes_sub_bytes/GenerateStatementBlockImpl$gen_sbox_j/GPortImpl$data_i" transform="translate(0, 248)" class="triangle"><path d="M 0,0 L 5,2.5 L 0,5 Z" transform="translate(-1.67, -2.5)" class="sprotty-port" style="fill:rgb(48, 48, 48);stroke:rgb(48, 48, 48);"/></g><g id="sprotty_ArchitectureBlockImpl$aes_sub_bytes/GenerateStatementBlockImpl$gen_sbox_j/GPortImpl$op_i" transform="translate(0, 220)" class="triangle"><path d="M 0,0 L 5,2.5 L 0,5 Z" transform="translate(-1.67, -2.5)" class="sprotty-port" style="fill:rgb(48, 48, 48);stroke:rgb(48, 48, 48);"/></g><g id="sprotty_ArchitectureBlockImpl$aes_sub_bytes/GenerateStatementBlockImpl$gen_sbox_j/GPortImpl$out_ack_i" transform="translate(0, 192)" class="triangle"><path d="M 0,0 L 5,2.5 L 0,5 Z" transform="translate(-1.67, -2.5)" class="sprotty-port" style="fill:rgb(48, 48, 48);stroke:rgb(48, 48, 48);"/></g><g id="sprotty_ArchitectureBlockImpl$aes_sub_bytes/GenerateStatementBlockImpl$gen_sbox_j/GPortImpl$en_i" transform="translate(0, 164)" class="triangle"><path d="M 0,0 L 5,2.5 L 0,5 Z" transform="translate(-1.67, -2.5)" class="sprotty-port" style="fill:rgb(48, 48, 48);stroke:rgb(48, 48, 48);"/></g><g id="sprotty_ArchitectureBlockImpl$aes_sub_bytes/GenerateStatementBlockImpl$gen_sbox_j/GPortImpl$rst_ni" transform="translate(0, 136)" class="triangle"><path d="M 0,0 L 5,2.5 L 0,5 Z" transform="translate(-1.67, -2.5)" class="sprotty-port" style="fill:rgb(48, 48, 48);stroke:rgb(48, 48, 48);"/></g><g id="sprotty_ArchitectureBlockImpl$aes_sub_bytes/GenerateStatementBlockImpl$gen_sbox_j/GPortImpl$clk_i" transform="translate(0, 108)" class="triangle"><path d="M 0,0 L 5,2.5 L 0,5 Z" transform="translate(-1.67, -2.5)" class="sprotty-port" style="fill:rgb(48, 48, 48);stroke:rgb(48, 48, 48);"/></g><g id="sprotty_ArchitectureBlockImpl$aes_sub_bytes/GenerateStatementBlockImpl$gen_sbox_j/GPortImpl$data_o" transform="translate(263.625, 206)" class="triangle"><path d="M 0,0 L 5,2.5 L 0,5 Z" transform="translate(-1.67, -2.5)" class="sprotty-port" style="fill:rgb(48, 48, 48);stroke:rgb(48, 48, 48);"/></g><g id="sprotty_ArchitectureBlockImpl$aes_sub_bytes/GenerateStatementBlockImpl$gen_sbox_j/GPortImpl$mask_o" transform="translate(263.625, 304)" class="triangle"><path d="M 0,0 L 5,2.5 L 0,5 Z" transform="translate(-1.67, -2.5)" class="sprotty-port" style="fill:rgb(48, 48, 48);stroke:rgb(48, 48, 48);"/></g><g id="sprotty_ArchitectureBlockImpl$aes_sub_bytes/GenerateStatementBlockImpl$gen_sbox_j/GPortImpl$out_req" transform="translate(263.625, 108)" class="triangle"><path d="M 0,0 L 5,2.5 L 0,5 Z" transform="translate(-1.67, -2.5)" class="sprotty-port" style="fill:rgb(48, 48, 48);stroke:rgb(48, 48, 48);"/></g></g><g id="sprotty_ArchitectureBlockImpl$aes_sub_bytes/AssignmentBlockImpl$out_req_o" transform="translate(379.9375, 132)" class="statement"><rect x="0" y="0" rx="10" ry="5" width="19.71875" height="22" class="sprotty-node" style="fill:rgb(245, 245, 245);stroke:rgb(112, 112, 112);"/><text class="clickable sprotty-label statementtype" id="sprotty_ArchitectureBlockImpl$aes_sub_bytes/AssignmentBlockImpl$out_req_o/labeltype" transform="translate(5, 5) translate(4.71875, 9)" style="cursor:default;font-size:8px;font-weight:700;perspective-origin:0.140625px 0px;fill:rgb(112, 112, 112);text-anchor:middle;">&lt;=</text><g id="sprotty_ArchitectureBlockImpl$aes_sub_bytes/AssignmentBlockImpl$out_req_o/GPortImpl$out_reqIN" transform="translate(0, 11)" class="sprotty-hidden hidden" style="display:block;height:0px;width:0px;"/><g id="sprotty_ArchitectureBlockImpl$aes_sub_bytes/AssignmentBlockImpl$out_req_o/GPortImpl$out_req_oOUT" transform="translate(19.71875, 11)" class="sprotty-hidden hidden" style="display:block;height:0px;width:0px;"/></g><g id="sprotty_ArchitectureBlockImpl$aes_sub_bytes/BPortImpl$prd_i" transform="translate(0, 363)" class="triangle"><path d="M 0,0 L 5,2.5 L 0,5 Z" transform="translate(-1.67, -2.5)" class="sprotty-port" style="fill:rgb(48, 48, 48);stroke:rgb(48, 48, 48);"/><text class="clickable sprotty-label port" id="sprotty_ArchitectureBlockImpl$aes_sub_bytes/BPortImpl$prd_i/label" transform="translate(6, 6) translate(14.71875, 14)" style="cursor:default;font-size:12px;perspective-origin:0px 0px;fill:rgb(48, 48, 48);text-anchor:middle;">prd_i</text></g><g id="sprotty_ArchitectureBlockImpl$aes_sub_bytes/BPortImpl$mask_i" transform="translate(0, 329)" class="triangle"><path d="M 0,0 L 5,2.5 L 0,5 Z" transform="translate(-1.67, -2.5)" class="sprotty-port" style="fill:rgb(48, 48, 48);stroke:rgb(48, 48, 48);"/><text class="clickable sprotty-label port" id="sprotty_ArchitectureBlockImpl$aes_sub_bytes/BPortImpl$mask_i/label" transform="translate(6, 6) translate(20.078125, 14)" style="cursor:default;font-size:12px;perspective-origin:0px 0px;fill:rgb(48, 48, 48);text-anchor:middle;">mask_i</text></g><g id="sprotty_ArchitectureBlockImpl$aes_sub_bytes/BPortImpl$data_i" transform="translate(0, 295)" class="triangle"><path d="M 0,0 L 5,2.5 L 0,5 Z" transform="translate(-1.67, -2.5)" class="sprotty-port" style="fill:rgb(48, 48, 48);stroke:rgb(48, 48, 48);"/><text class="clickable sprotty-label port" id="sprotty_ArchitectureBlockImpl$aes_sub_bytes/BPortImpl$data_i/label" transform="translate(6, 6) translate(17.53125, 14)" style="cursor:default;font-size:12px;perspective-origin:0px 0px;fill:rgb(48, 48, 48);text-anchor:middle;">data_i</text></g><g id="sprotty_ArchitectureBlockImpl$aes_sub_bytes/BPortImpl$op_i" transform="translate(0, 261)" class="triangle"><path d="M 0,0 L 5,2.5 L 0,5 Z" transform="translate(-1.67, -2.5)" class="sprotty-port" style="fill:rgb(48, 48, 48);stroke:rgb(48, 48, 48);"/><text class="clickable sprotty-label port" id="sprotty_ArchitectureBlockImpl$aes_sub_bytes/BPortImpl$op_i/label" transform="translate(6, 6) translate(12.375, 14)" style="cursor:default;font-size:12px;perspective-origin:0px 0px;fill:rgb(48, 48, 48);text-anchor:middle;">op_i</text></g><g id="sprotty_ArchitectureBlockImpl$aes_sub_bytes/BPortImpl$out_ack_i" transform="translate(0, 227)" class="triangle"><path d="M 0,0 L 5,2.5 L 0,5 Z" transform="translate(-1.67, -2.5)" class="sprotty-port" style="fill:rgb(48, 48, 48);stroke:rgb(48, 48, 48);"/><text class="clickable sprotty-label port" id="sprotty_ArchitectureBlockImpl$aes_sub_bytes/BPortImpl$out_ack_i/label" transform="translate(6, 6) translate(27.65625, 14)" style="cursor:default;font-size:12px;perspective-origin:0px 0px;fill:rgb(48, 48, 48);text-anchor:middle;">out_ack_i</text></g><g id="sprotty_ArchitectureBlockImpl$aes_sub_bytes/BPortImpl$en_i" transform="translate(0, 193)" class="triangle"><path d="M 0,0 L 5,2.5 L 0,5 Z" transform="translate(-1.67, -2.5)" class="sprotty-port" style="fill:rgb(48, 48, 48);stroke:rgb(48, 48, 48);"/><text class="clickable sprotty-label port" id="sprotty_ArchitectureBlockImpl$aes_sub_bytes/BPortImpl$en_i/label" transform="translate(6, 6) translate(12, 14)" style="cursor:default;font-size:12px;perspective-origin:0px 0px;fill:rgb(48, 48, 48);text-anchor:middle;">en_i</text></g><g id="sprotty_ArchitectureBlockImpl$aes_sub_bytes/BPortImpl$rst_ni" transform="translate(0, 159)" class="triangle"><path d="M 0,0 L 5,2.5 L 0,5 Z" transform="translate(-1.67, -2.5)" class="sprotty-port" style="fill:rgb(48, 48, 48);stroke:rgb(48, 48, 48);"/><text class="clickable sprotty-label port" id="sprotty_ArchitectureBlockImpl$aes_sub_bytes/BPortImpl$rst_ni/label" transform="translate(6, 6) translate(15.921875, 14)" style="cursor:default;font-size:12px;perspective-origin:0px 0px;fill:rgb(48, 48, 48);text-anchor:middle;">rst_ni</text></g><g id="sprotty_ArchitectureBlockImpl$aes_sub_bytes/BPortImpl$clk_i" transform="translate(0, 125)" class="triangle"><path d="M 0,0 L 5,2.5 L 0,5 Z" transform="translate(-1.67, -2.5)" class="sprotty-port" style="fill:rgb(48, 48, 48);stroke:rgb(48, 48, 48);"/><text class="clickable sprotty-label port" id="sprotty_ArchitectureBlockImpl$aes_sub_bytes/BPortImpl$clk_i/label" transform="translate(6, 6) translate(13.09375, 14)" style="cursor:default;font-size:12px;perspective-origin:0px 0px;fill:rgb(48, 48, 48);text-anchor:middle;">clk_i</text></g><g id="sprotty_ArchitectureBlockImpl$aes_sub_bytes/BPortImpl$out_req_o" transform="translate(479.0625, 143)" class="triangle"><path d="M 0,0 L 5,2.5 L 0,5 Z" transform="translate(-1.67, -2.5)" class="sprotty-port" style="fill:rgb(48, 48, 48);stroke:rgb(48, 48, 48);"/><text class="clickable sprotty-label port" id="sprotty_ArchitectureBlockImpl$aes_sub_bytes/BPortImpl$out_req_o/label" transform="translate(-64.40625, 6) translate(29.203125, 14)" style="cursor:default;font-size:12px;perspective-origin:0px 0px;fill:rgb(48, 48, 48);text-anchor:middle;">out_req_o</text></g><g id="sprotty_ArchitectureBlockImpl$aes_sub_bytes/BPortImpl$data_o" transform="translate(479.0625, 241)" class="triangle"><path d="M 0,0 L 5,2.5 L 0,5 Z" transform="translate(-1.67, -2.5)" class="sprotty-port" style="fill:rgb(48, 48, 48);stroke:rgb(48, 48, 48);"/><text class="clickable sprotty-label port" id="sprotty_ArchitectureBlockImpl$aes_sub_bytes/BPortImpl$data_o/label" transform="translate(-45.03125, 6) translate(19.515625, 14)" style="cursor:default;font-size:12px;perspective-origin:0px 0px;fill:rgb(48, 48, 48);text-anchor:middle;">data_o</text></g><g id="sprotty_ArchitectureBlockImpl$aes_sub_bytes/BPortImpl$mask_o" transform="translate(479.0625, 339)" class="triangle"><path d="M 0,0 L 5,2.5 L 0,5 Z" transform="translate(-1.67, -2.5)" class="sprotty-port" style="fill:rgb(48, 48, 48);stroke:rgb(48, 48, 48);"/><text class="clickable sprotty-label port" id="sprotty_ArchitectureBlockImpl$aes_sub_bytes/BPortImpl$mask_o/label" transform="translate(-50.125, 6) translate(22.0625, 14)" style="cursor:default;font-size:12px;perspective-origin:0px 0px;fill:rgb(48, 48, 48);text-anchor:middle;">mask_o</text></g></g></g></svg>