<svg xmlns="http://www.w3.org/2000/svg" id="sprotty_work.spi_host" class="sprotty-graph sprotty-block-diagram blockdiagram" style="font-family:&quot;Noto Sans&quot;, Helvetica, Arial, sans-serif;perspective-origin:0px 0px;transform-origin:0px 0px;" version="1.1" viewBox="7 7 497.25 532" width="497.25" height="532"><g transform="scale(1) translate(0,0)"><g id="sprotty_ArchitectureBlockImpl$spi_host" transform="translate(12, 12)" class="architecture"><g class="sprotty-block" style="fill:rgb(255, 255, 255);stroke:rgb(48, 48, 48);stroke-dasharray:0px;"><rect x="0" y="0" rx="1" ry="1" width="487.25" height="522"/><text x="243.625" y="12" class="sprotty-block-name" style="cursor:pointer;font-weight:700;perspective-origin:243.766px 0px;fill:rgb(48, 48, 48);stroke:rgba(0, 0, 0, 0);dominant-baseline:middle;text-anchor:middle;">spi_host</text><line x1="0" y1="20" x2="487.25" y2="20"/></g><g id="sprotty_ArchitectureBlockImpl$spi_host/InstantiationBlockImpl$u_reg/BPortImpl$tl_o_to_ArchitectureBlockImpl$spi_host/BPortImpl$tl_o" class="sprotty-edge thick edge" style="fill:none;stroke:rgb(112, 112, 112);stroke-linejoin:round;stroke-width:3px;"><g><path d="M 329.3125 73 L 337.3125 73 C 338.3125 73 339.3125 72 339.3125 71 L 339.3125 69 C 339.3125 68 340.3125 67 341.3125 67 L 487.25 67 "/><path d="M 329.3125 73 L 337.3125 73 C 338.3125 73 339.3125 72 339.3125 71 L 339.3125 69 C 339.3125 68 340.3125 67 341.3125 67 L 487.25 67 " class="clickable"/></g></g><g id="sprotty_ArchitectureBlockImpl$spi_host/AssignmentBlockImpl$cio_sck_o/GPortImpl$cio_sck_oOUT_to_ArchitectureBlockImpl$spi_host/BPortImpl$cio_sck_o" class="sprotty-edge edge" style="fill:none;stroke:rgb(112, 112, 112);stroke-linejoin:round;"><g><path d="M 369.03125 143 L 487.25 143 "/><path d="M 369.03125 143 L 487.25 143 " class="clickable"/></g></g><g id="sprotty_ArchitectureBlockImpl$spi_host/AssignmentBlockImpl$cio_sck_en_o/GPortImpl$cio_sck_en_oOUT_to_ArchitectureBlockImpl$spi_host/BPortImpl$cio_sck_en_o" class="sprotty-edge edge" style="fill:none;stroke:rgb(112, 112, 112);stroke-linejoin:round;"><g><path d="M 369.03125 185 L 487.25 185 "/><path d="M 369.03125 185 L 487.25 185 " class="clickable"/></g></g><g id="sprotty_ArchitectureBlockImpl$spi_host/AssignmentBlockImpl$cio_csb_o/GPortImpl$cio_csb_oOUT_to_ArchitectureBlockImpl$spi_host/BPortImpl$cio_csb_o" class="sprotty-edge edge" style="fill:none;stroke:rgb(112, 112, 112);stroke-linejoin:round;"><g><path d="M 369.03125 227 L 487.25 227 "/><path d="M 369.03125 227 L 487.25 227 " class="clickable"/></g></g><g id="sprotty_ArchitectureBlockImpl$spi_host/AssignmentBlockImpl$cio_csb_en_o/GPortImpl$cio_csb_en_oOUT_to_ArchitectureBlockImpl$spi_host/BPortImpl$cio_csb_en_o" class="sprotty-edge edge" style="fill:none;stroke:rgb(112, 112, 112);stroke-linejoin:round;"><g><path d="M 369.03125 269 L 487.25 269 "/><path d="M 369.03125 269 L 487.25 269 " class="clickable"/></g></g><g id="sprotty_ArchitectureBlockImpl$spi_host/AssignmentBlockImpl$cio_sd_o/GPortImpl$cio_sd_oOUT_to_ArchitectureBlockImpl$spi_host/BPortImpl$cio_sd_o" class="sprotty-edge thick edge" style="fill:none;stroke:rgb(112, 112, 112);stroke-linejoin:round;stroke-width:3px;"><g><path d="M 369.03125 311 L 487.25 311 "/><path d="M 369.03125 311 L 487.25 311 " class="clickable"/></g></g><g id="sprotty_ArchitectureBlockImpl$spi_host/AssignmentBlockImpl$cio_sd_en_o/GPortImpl$cio_sd_en_oOUT_to_ArchitectureBlockImpl$spi_host/BPortImpl$cio_sd_en_o" class="sprotty-edge thick edge" style="fill:none;stroke:rgb(112, 112, 112);stroke-linejoin:round;stroke-width:3px;"><g><path d="M 369.03125 101 L 487.25 101 "/><path d="M 369.03125 101 L 487.25 101 " class="clickable"/></g></g><g id="sprotty_ArchitectureBlockImpl$spi_host/BPortImpl$clk_i_to_ArchitectureBlockImpl$spi_host/InstantiationBlockImpl$u_reg/BPortImpl$clk_i" class="sprotty-edge edge" style="fill:none;stroke:rgb(112, 112, 112);stroke-linejoin:round;"><g><path d="M 0 73 L 127.1875 73 "/><path d="M 0 73 L 127.1875 73 " class="clickable"/></g></g><g id="sprotty_ArchitectureBlockImpl$spi_host/BPortImpl$rst_ni_to_ArchitectureBlockImpl$spi_host/InstantiationBlockImpl$u_reg/BPortImpl$rst_ni" class="sprotty-edge edge" style="fill:none;stroke:rgb(112, 112, 112);stroke-linejoin:round;"><g><path d="M 0 107 L 115.1875 107 C 116.1875 107 117.1875 106 117.1875 105 L 117.1875 103 C 117.1875 102 118.1875 101 119.1875 101 L 127.1875 101 "/><path d="M 0 107 L 115.1875 107 C 116.1875 107 117.1875 106 117.1875 105 L 117.1875 103 C 117.1875 102 118.1875 101 119.1875 101 L 127.1875 101 " class="clickable"/></g></g><g id="sprotty_ArchitectureBlockImpl$spi_host/BPortImpl$tl_i_to_ArchitectureBlockImpl$spi_host/InstantiationBlockImpl$u_reg/BPortImpl$tl_i" class="sprotty-edge thick edge" style="fill:none;stroke:rgb(112, 112, 112);stroke-linejoin:round;stroke-width:3px;"><g><path d="M 0 141 L 115.1875 141 C 116.1875 141 117.1875 140 117.1875 139 L 117.1875 131 C 117.1875 130 118.1875 129 119.1875 129 L 127.1875 129 "/><path d="M 0 141 L 115.1875 141 C 116.1875 141 117.1875 140 117.1875 139 L 117.1875 131 C 117.1875 130 118.1875 129 119.1875 129 L 127.1875 129 " class="clickable"/></g></g><g id="sprotty_ArchitectureBlockImpl$spi_host/BPortImpl$cio_sd_i_to_ArchitectureBlockImpl$spi_host/AssignmentBlockImpl$hw2reg.control7/GPortImpl$cio_sd_iIN" class="sprotty-edge thick edge" style="fill:none;stroke:rgb(112, 112, 112);stroke-linejoin:round;stroke-width:3px;"><g><path d="M 0 415 L 87.46875 415 "/><path d="M 0 415 L 87.46875 415 " class="clickable"/></g></g><g id="sprotty_ArchitectureBlockImpl$spi_host/BPortImpl$scanmode_i_to_ArchitectureBlockImpl$spi_host/AssignmentBlockImpl$unused_sigs/GPortImpl$scanmode_iIN" class="sprotty-edge thick edge" style="fill:none;stroke:rgb(112, 112, 112);stroke-linejoin:round;stroke-width:3px;"><g><path d="M 0 483 L 89.1875 483 "/><path d="M 0 483 L 89.1875 483 " class="clickable"/></g></g><g id="sprotty_ArchitectureBlockImpl$spi_host/InstantiationBlockImpl$u_reg/BPortImpl$reg2hw_to_ArchitectureBlockImpl$spi_host/AssignmentBlockImpl$cio_sd_o/GPortImpl$reg2hwIN" class="sprotty-edge thick edge" style="fill:none;stroke:rgb(112, 112, 112);stroke-linejoin:round;stroke-width:3px;"><g><path d="M 329.3125 185 L 337.3125 185 C 338.3125 185 339.3125 186 339.3125 187 L 339.3125 309 C 339.3125 310 340.3125 311 341.3125 311 L 349.3125 311 "/><path d="M 329.3125 185 L 337.3125 185 C 338.3125 185 339.3125 186 339.3125 187 L 339.3125 309 C 339.3125 310 340.3125 311 341.3125 311 L 349.3125 311 " class="clickable"/></g><circle r="3" id="sprotty_ArchitectureBlockImpl$spi_host/InstantiationBlockImpl$u_reg/BPortImpl$reg2hw_to_ArchitectureBlockImpl$spi_host/AssignmentBlockImpl$cio_sd_o/GPortImpl$reg2hwIN/junction0" transform="translate(339.3125, 185)" class="sprotty-junction thick" style="fill:rgb(112, 112, 112);stroke:none;"/><circle r="3" id="sprotty_ArchitectureBlockImpl$spi_host/InstantiationBlockImpl$u_reg/BPortImpl$reg2hw_to_ArchitectureBlockImpl$spi_host/AssignmentBlockImpl$cio_sd_o/GPortImpl$reg2hwIN/junction1" transform="translate(339.3125, 311)" class="sprotty-junction thick" style="fill:rgb(112, 112, 112);stroke:none;"/></g><g id="sprotty_ArchitectureBlockImpl$spi_host/InstantiationBlockImpl$u_reg/BPortImpl$reg2hw_to_ArchitectureBlockImpl$spi_host/AssignmentBlockImpl$cio_sd_en_o/GPortImpl$reg2hwIN" class="sprotty-edge thick edge" style="fill:none;stroke:rgb(112, 112, 112);stroke-linejoin:round;stroke-width:3px;"><g><path d="M 329.3125 185 L 337.3125 185 C 338.3125 185 339.3125 184 339.3125 183 L 339.3125 103 C 339.3125 102 340.3125 101 341.3125 101 L 349.3125 101 "/><path d="M 329.3125 185 L 337.3125 185 C 338.3125 185 339.3125 184 339.3125 183 L 339.3125 103 C 339.3125 102 340.3125 101 341.3125 101 L 349.3125 101 " class="clickable"/></g></g><g id="sprotty_ArchitectureBlockImpl$spi_host/InstantiationBlockImpl$u_reg/BPortImpl$reg2hw_to_ArchitectureBlockImpl$spi_host/AssignmentBlockImpl$hw2reg.control7/GPortImpl$reg2hwIN" class="sprotty-edge thick edge" style="fill:none;stroke:rgb(112, 112, 112);stroke-linejoin:round;stroke-width:3px;"><g><path d="M 329.3125 185 L 337.3125 185 C 338.3125 185 339.3125 186 339.3125 187 L 339.3125 443 C 339.3125 444 338.3125 445 337.3125 445 L 79.46875 445 C 78.46875 445 77.46875 444 77.46875 443 L 77.46875 427 C 77.46875 426 78.46875 425 79.46875 425 L 87.46875 425 "/><path d="M 329.3125 185 L 337.3125 185 C 338.3125 185 339.3125 186 339.3125 187 L 339.3125 443 C 339.3125 444 338.3125 445 337.3125 445 L 79.46875 445 C 78.46875 445 77.46875 444 77.46875 443 L 77.46875 427 C 77.46875 426 78.46875 425 79.46875 425 L 87.46875 425 " class="clickable"/></g></g><g id="sprotty_ArchitectureBlockImpl$spi_host/InstantiationBlockImpl$u_reg/BPortImpl$reg2hw_to_ArchitectureBlockImpl$spi_host/AssignmentBlockImpl$hw2reg.control6/GPortImpl$reg2hwIN" class="sprotty-edge thick edge" style="fill:none;stroke:rgb(112, 112, 112);stroke-linejoin:round;stroke-width:3px;"><g><path d="M 329.3125 185 L 337.3125 185 C 338.3125 185 339.3125 186 339.3125 187 L 339.3125 351 C 339.3125 352 340.3125 353 341.3125 353 L 349.3125 353 "/><path d="M 329.3125 185 L 337.3125 185 C 338.3125 185 339.3125 186 339.3125 187 L 339.3125 351 C 339.3125 352 340.3125 353 341.3125 353 L 349.3125 353 " class="clickable"/></g><circle r="3" id="sprotty_ArchitectureBlockImpl$spi_host/InstantiationBlockImpl$u_reg/BPortImpl$reg2hw_to_ArchitectureBlockImpl$spi_host/AssignmentBlockImpl$hw2reg.control6/GPortImpl$reg2hwIN/junction0" transform="translate(339.3125, 353)" class="sprotty-junction thick" style="fill:rgb(112, 112, 112);stroke:none;"/></g><g id="sprotty_ArchitectureBlockImpl$spi_host/InstantiationBlockImpl$u_reg/BPortImpl$reg2hw_to_ArchitectureBlockImpl$spi_host/AssignmentBlockImpl$cio_sck_o/GPortImpl$reg2hwIN" class="sprotty-edge thick edge" style="fill:none;stroke:rgb(112, 112, 112);stroke-linejoin:round;stroke-width:3px;"><g><path d="M 329.3125 185 L 337.3125 185 C 338.3125 185 339.3125 184 339.3125 183 L 339.3125 145 C 339.3125 144 340.3125 143 341.3125 143 L 349.3125 143 "/><path d="M 329.3125 185 L 337.3125 185 C 338.3125 185 339.3125 184 339.3125 183 L 339.3125 145 C 339.3125 144 340.3125 143 341.3125 143 L 349.3125 143 " class="clickable"/></g><circle r="3" id="sprotty_ArchitectureBlockImpl$spi_host/InstantiationBlockImpl$u_reg/BPortImpl$reg2hw_to_ArchitectureBlockImpl$spi_host/AssignmentBlockImpl$cio_sck_o/GPortImpl$reg2hwIN/junction0" transform="translate(339.3125, 143)" class="sprotty-junction thick" style="fill:rgb(112, 112, 112);stroke:none;"/></g><g id="sprotty_ArchitectureBlockImpl$spi_host/InstantiationBlockImpl$u_reg/BPortImpl$reg2hw_to_ArchitectureBlockImpl$spi_host/AssignmentBlockImpl$cio_sck_en_o/GPortImpl$reg2hwIN" class="sprotty-edge thick edge" style="fill:none;stroke:rgb(112, 112, 112);stroke-linejoin:round;stroke-width:3px;"><g><path d="M 329.3125 185 L 349.3125 185 "/><path d="M 329.3125 185 L 349.3125 185 " class="clickable"/></g></g><g id="sprotty_ArchitectureBlockImpl$spi_host/InstantiationBlockImpl$u_reg/BPortImpl$reg2hw_to_ArchitectureBlockImpl$spi_host/AssignmentBlockImpl$cio_csb_o/GPortImpl$reg2hwIN" class="sprotty-edge thick edge" style="fill:none;stroke:rgb(112, 112, 112);stroke-linejoin:round;stroke-width:3px;"><g><path d="M 329.3125 185 L 337.3125 185 C 338.3125 185 339.3125 186 339.3125 187 L 339.3125 225 C 339.3125 226 340.3125 227 341.3125 227 L 349.3125 227 "/><path d="M 329.3125 185 L 337.3125 185 C 338.3125 185 339.3125 186 339.3125 187 L 339.3125 225 C 339.3125 226 340.3125 227 341.3125 227 L 349.3125 227 " class="clickable"/></g><circle r="3" id="sprotty_ArchitectureBlockImpl$spi_host/InstantiationBlockImpl$u_reg/BPortImpl$reg2hw_to_ArchitectureBlockImpl$spi_host/AssignmentBlockImpl$cio_csb_o/GPortImpl$reg2hwIN/junction0" transform="translate(339.3125, 227)" class="sprotty-junction thick" style="fill:rgb(112, 112, 112);stroke:none;"/></g><g id="sprotty_ArchitectureBlockImpl$spi_host/InstantiationBlockImpl$u_reg/BPortImpl$reg2hw_to_ArchitectureBlockImpl$spi_host/AssignmentBlockImpl$cio_csb_en_o/GPortImpl$reg2hwIN" class="sprotty-edge thick edge" style="fill:none;stroke:rgb(112, 112, 112);stroke-linejoin:round;stroke-width:3px;"><g><path d="M 329.3125 185 L 337.3125 185 C 338.3125 185 339.3125 186 339.3125 187 L 339.3125 267 C 339.3125 268 340.3125 269 341.3125 269 L 349.3125 269 "/><path d="M 329.3125 185 L 337.3125 185 C 338.3125 185 339.3125 186 339.3125 187 L 339.3125 267 C 339.3125 268 340.3125 269 341.3125 269 L 349.3125 269 " class="clickable"/></g><circle r="3" id="sprotty_ArchitectureBlockImpl$spi_host/InstantiationBlockImpl$u_reg/BPortImpl$reg2hw_to_ArchitectureBlockImpl$spi_host/AssignmentBlockImpl$cio_csb_en_o/GPortImpl$reg2hwIN/junction0" transform="translate(339.3125, 269)" class="sprotty-junction thick" style="fill:rgb(112, 112, 112);stroke:none;"/></g><g id="sprotty_ArchitectureBlockImpl$spi_host/AssignmentBlockImpl$hw2reg.control7/GPortImpl$hw2regOUT_to_ArchitectureBlockImpl$spi_host/InstantiationBlockImpl$u_reg/BPortImpl$hw2reg" class="sprotty-edge thick edge" style="fill:none;stroke:rgb(112, 112, 112);stroke-linejoin:round;stroke-width:3px;"><g><path d="M 107.1875 420 L 115.1875 420 C 116.1875 420 117.1875 419 117.1875 418 L 117.1875 159 C 117.1875 158 118.1875 157 119.1875 157 L 127.1875 157 "/><path d="M 107.1875 420 L 115.1875 420 C 116.1875 420 117.1875 419 117.1875 418 L 117.1875 159 C 117.1875 158 118.1875 157 119.1875 157 L 127.1875 157 " class="clickable"/></g><circle r="3" id="sprotty_ArchitectureBlockImpl$spi_host/AssignmentBlockImpl$hw2reg.control7/GPortImpl$hw2regOUT_to_ArchitectureBlockImpl$spi_host/InstantiationBlockImpl$u_reg/BPortImpl$hw2reg/junction0" transform="translate(117.1875, 420)" class="sprotty-junction thick" style="fill:rgb(112, 112, 112);stroke:none;"/></g><g id="sprotty_ArchitectureBlockImpl$spi_host/AssignmentBlockImpl$hw2reg.control6/GPortImpl$reg2hwOUT_to_ArchitectureBlockImpl$spi_host/InstantiationBlockImpl$u_reg/BPortImpl$hw2reg" class="sprotty-edge thick edge" style="fill:none;stroke:rgb(112, 112, 112);stroke-linejoin:round;stroke-width:3px;"><g><path d="M 369.03125 353 L 377.03125 353 C 378.03125 353 379.03125 354 379.03125 355 L 379.03125 450 C 379.03125 451 378.03125 452 377.03125 452 L 119.1875 452 C 118.1875 452 117.1875 451 117.1875 450 L 117.1875 159 C 117.1875 158 118.1875 157 119.1875 157 L 127.1875 157 "/><path d="M 369.03125 353 L 377.03125 353 C 378.03125 353 379.03125 354 379.03125 355 L 379.03125 450 C 379.03125 451 378.03125 452 377.03125 452 L 119.1875 452 C 118.1875 452 117.1875 451 117.1875 450 L 117.1875 159 C 117.1875 158 118.1875 157 119.1875 157 L 127.1875 157 " class="clickable"/></g></g><g id="sprotty_ArchitectureBlockImpl$spi_host/AssignmentBlockImpl$hw2reg.control5/GPortImpl$hw2regOUT_to_ArchitectureBlockImpl$spi_host/InstantiationBlockImpl$u_reg/BPortImpl$hw2reg" class="sprotty-edge thick edge" style="fill:none;stroke:rgb(112, 112, 112);stroke-linejoin:round;stroke-width:3px;"><g><path d="M 107.1875 374 L 115.1875 374 C 116.1875 374 117.1875 373 117.1875 372 L 117.1875 159 C 117.1875 158 118.1875 157 119.1875 157 L 127.1875 157 "/><path d="M 107.1875 374 L 115.1875 374 C 116.1875 374 117.1875 373 117.1875 372 L 117.1875 159 C 117.1875 158 118.1875 157 119.1875 157 L 127.1875 157 " class="clickable"/></g><circle r="3" id="sprotty_ArchitectureBlockImpl$spi_host/AssignmentBlockImpl$hw2reg.control5/GPortImpl$hw2regOUT_to_ArchitectureBlockImpl$spi_host/InstantiationBlockImpl$u_reg/BPortImpl$hw2reg/junction0" transform="translate(117.1875, 374)" class="sprotty-junction thick" style="fill:rgb(112, 112, 112);stroke:none;"/></g><g id="sprotty_ArchitectureBlockImpl$spi_host/AssignmentBlockImpl$hw2reg.control4/GPortImpl$hw2regOUT_to_ArchitectureBlockImpl$spi_host/InstantiationBlockImpl$u_reg/BPortImpl$hw2reg" class="sprotty-edge thick edge" style="fill:none;stroke:rgb(112, 112, 112);stroke-linejoin:round;stroke-width:3px;"><g><path d="M 107.1875 164 L 115.1875 164 C 116.1875 164 117.1875 163 117.1875 162 L 117.1875 159 C 117.1875 158 118.1875 157 119.1875 157 L 127.1875 157 "/><path d="M 107.1875 164 L 115.1875 164 C 116.1875 164 117.1875 163 117.1875 162 L 117.1875 159 C 117.1875 158 118.1875 157 119.1875 157 L 127.1875 157 " class="clickable"/></g><circle r="3" id="sprotty_ArchitectureBlockImpl$spi_host/AssignmentBlockImpl$hw2reg.control4/GPortImpl$hw2regOUT_to_ArchitectureBlockImpl$spi_host/InstantiationBlockImpl$u_reg/BPortImpl$hw2reg/junction0" transform="translate(117.1875, 164)" class="sprotty-junction thick" style="fill:rgb(112, 112, 112);stroke:none;"/></g><g id="sprotty_ArchitectureBlockImpl$spi_host/AssignmentBlockImpl$hw2reg.control3/GPortImpl$hw2regOUT_to_ArchitectureBlockImpl$spi_host/InstantiationBlockImpl$u_reg/BPortImpl$hw2reg" class="sprotty-edge thick edge" style="fill:none;stroke:rgb(112, 112, 112);stroke-linejoin:round;stroke-width:3px;"><g><path d="M 107.1875 332 L 115.1875 332 C 116.1875 332 117.1875 331 117.1875 330 L 117.1875 159 C 117.1875 158 118.1875 157 119.1875 157 L 127.1875 157 "/><path d="M 107.1875 332 L 115.1875 332 C 116.1875 332 117.1875 331 117.1875 330 L 117.1875 159 C 117.1875 158 118.1875 157 119.1875 157 L 127.1875 157 " class="clickable"/></g><circle r="3" id="sprotty_ArchitectureBlockImpl$spi_host/AssignmentBlockImpl$hw2reg.control3/GPortImpl$hw2regOUT_to_ArchitectureBlockImpl$spi_host/InstantiationBlockImpl$u_reg/BPortImpl$hw2reg/junction0" transform="translate(117.1875, 332)" class="sprotty-junction thick" style="fill:rgb(112, 112, 112);stroke:none;"/></g><g id="sprotty_ArchitectureBlockImpl$spi_host/AssignmentBlockImpl$hw2reg.control2/GPortImpl$hw2regOUT_to_ArchitectureBlockImpl$spi_host/InstantiationBlockImpl$u_reg/BPortImpl$hw2reg" class="sprotty-edge thick edge" style="fill:none;stroke:rgb(112, 112, 112);stroke-linejoin:round;stroke-width:3px;"><g><path d="M 107.1875 290 L 115.1875 290 C 116.1875 290 117.1875 289 117.1875 288 L 117.1875 159 C 117.1875 158 118.1875 157 119.1875 157 L 127.1875 157 "/><path d="M 107.1875 290 L 115.1875 290 C 116.1875 290 117.1875 289 117.1875 288 L 117.1875 159 C 117.1875 158 118.1875 157 119.1875 157 L 127.1875 157 " class="clickable"/></g><circle r="3" id="sprotty_ArchitectureBlockImpl$spi_host/AssignmentBlockImpl$hw2reg.control2/GPortImpl$hw2regOUT_to_ArchitectureBlockImpl$spi_host/InstantiationBlockImpl$u_reg/BPortImpl$hw2reg/junction0" transform="translate(117.1875, 290)" class="sprotty-junction thick" style="fill:rgb(112, 112, 112);stroke:none;"/></g><g id="sprotty_ArchitectureBlockImpl$spi_host/AssignmentBlockImpl$hw2reg.control1/GPortImpl$hw2regOUT_to_ArchitectureBlockImpl$spi_host/InstantiationBlockImpl$u_reg/BPortImpl$hw2reg" class="sprotty-edge thick edge" style="fill:none;stroke:rgb(112, 112, 112);stroke-linejoin:round;stroke-width:3px;"><g><path d="M 107.1875 248 L 115.1875 248 C 116.1875 248 117.1875 247 117.1875 246 L 117.1875 159 C 117.1875 158 118.1875 157 119.1875 157 L 127.1875 157 "/><path d="M 107.1875 248 L 115.1875 248 C 116.1875 248 117.1875 247 117.1875 246 L 117.1875 159 C 117.1875 158 118.1875 157 119.1875 157 L 127.1875 157 " class="clickable"/></g><circle r="3" id="sprotty_ArchitectureBlockImpl$spi_host/AssignmentBlockImpl$hw2reg.control1/GPortImpl$hw2regOUT_to_ArchitectureBlockImpl$spi_host/InstantiationBlockImpl$u_reg/BPortImpl$hw2reg/junction0" transform="translate(117.1875, 248)" class="sprotty-junction thick" style="fill:rgb(112, 112, 112);stroke:none;"/></g><g id="sprotty_ArchitectureBlockImpl$spi_host/AssignmentBlockImpl$hw2reg.control/GPortImpl$hw2regOUT_to_ArchitectureBlockImpl$spi_host/InstantiationBlockImpl$u_reg/BPortImpl$hw2reg" class="sprotty-edge thick edge" style="fill:none;stroke:rgb(112, 112, 112);stroke-linejoin:round;stroke-width:3px;"><g><path d="M 107.1875 206 L 115.1875 206 C 116.1875 206 117.1875 205 117.1875 204 L 117.1875 159 C 117.1875 158 118.1875 157 119.1875 157 L 127.1875 157 "/><path d="M 107.1875 206 L 115.1875 206 C 116.1875 206 117.1875 205 117.1875 204 L 117.1875 159 C 117.1875 158 118.1875 157 119.1875 157 L 127.1875 157 " class="clickable"/></g><circle r="3" id="sprotty_ArchitectureBlockImpl$spi_host/AssignmentBlockImpl$hw2reg.control/GPortImpl$hw2regOUT_to_ArchitectureBlockImpl$spi_host/InstantiationBlockImpl$u_reg/BPortImpl$hw2reg/junction0" transform="translate(117.1875, 206)" class="sprotty-junction thick" style="fill:rgb(112, 112, 112);stroke:none;"/></g><g id="sprotty_ArchitectureBlockImpl$spi_host/AssignmentBlockImpl$hw2reg.control" transform="translate(87.46875, 195)" class="statement"><rect x="0" y="0" rx="10" ry="5" width="19.71875" height="22" class="sprotty-node" style="fill:rgb(245, 245, 245);stroke:rgb(112, 112, 112);"/><text class="clickable sprotty-label statementtype" id="sprotty_ArchitectureBlockImpl$spi_host/AssignmentBlockImpl$hw2reg.control/labeltype" transform="translate(5, 5) translate(4.71875, 9)" style="cursor:default;font-size:8px;font-weight:700;perspective-origin:0.140625px 0px;fill:rgb(112, 112, 112);text-anchor:middle;">&lt;=</text><g id="sprotty_ArchitectureBlockImpl$spi_host/AssignmentBlockImpl$hw2reg.control/GPortImpl$hw2regOUT" transform="translate(19.71875, 11)" class="sprotty-hidden hidden" style="display:block;height:0px;width:0px;"/></g><g id="sprotty_ArchitectureBlockImpl$spi_host/AssignmentBlockImpl$hw2reg.control1" transform="translate(87.46875, 237)" class="statement"><rect x="0" y="0" rx="10" ry="5" width="19.71875" height="22" class="sprotty-node" style="fill:rgb(245, 245, 245);stroke:rgb(112, 112, 112);"/><text class="clickable sprotty-label statementtype" id="sprotty_ArchitectureBlockImpl$spi_host/AssignmentBlockImpl$hw2reg.control1/labeltype" transform="translate(5, 5) translate(4.71875, 9)" style="cursor:default;font-size:8px;font-weight:700;perspective-origin:0.140625px 0px;fill:rgb(112, 112, 112);text-anchor:middle;">&lt;=</text><g id="sprotty_ArchitectureBlockImpl$spi_host/AssignmentBlockImpl$hw2reg.control1/GPortImpl$hw2regOUT" transform="translate(19.71875, 11)" class="sprotty-hidden hidden" style="display:block;height:0px;width:0px;"/></g><g id="sprotty_ArchitectureBlockImpl$spi_host/AssignmentBlockImpl$hw2reg.control2" transform="translate(87.46875, 279)" class="statement"><rect x="0" y="0" rx="10" ry="5" width="19.71875" height="22" class="sprotty-node" style="fill:rgb(245, 245, 245);stroke:rgb(112, 112, 112);"/><text class="clickable sprotty-label statementtype" id="sprotty_ArchitectureBlockImpl$spi_host/AssignmentBlockImpl$hw2reg.control2/labeltype" transform="translate(5, 5) translate(4.71875, 9)" style="cursor:default;font-size:8px;font-weight:700;perspective-origin:0.140625px 0px;fill:rgb(112, 112, 112);text-anchor:middle;">&lt;=</text><g id="sprotty_ArchitectureBlockImpl$spi_host/AssignmentBlockImpl$hw2reg.control2/GPortImpl$hw2regOUT" transform="translate(19.71875, 11)" class="sprotty-hidden hidden" style="display:block;height:0px;width:0px;"/></g><g id="sprotty_ArchitectureBlockImpl$spi_host/AssignmentBlockImpl$hw2reg.control3" transform="translate(87.46875, 321)" class="statement"><rect x="0" y="0" rx="10" ry="5" width="19.71875" height="22" class="sprotty-node" style="fill:rgb(245, 245, 245);stroke:rgb(112, 112, 112);"/><text class="clickable sprotty-label statementtype" id="sprotty_ArchitectureBlockImpl$spi_host/AssignmentBlockImpl$hw2reg.control3/labeltype" transform="translate(5, 5) translate(4.71875, 9)" style="cursor:default;font-size:8px;font-weight:700;perspective-origin:0.140625px 0px;fill:rgb(112, 112, 112);text-anchor:middle;">&lt;=</text><g id="sprotty_ArchitectureBlockImpl$spi_host/AssignmentBlockImpl$hw2reg.control3/GPortImpl$hw2regOUT" transform="translate(19.71875, 11)" class="sprotty-hidden hidden" style="display:block;height:0px;width:0px;"/></g><g id="sprotty_ArchitectureBlockImpl$spi_host/AssignmentBlockImpl$hw2reg.control4" transform="translate(87.46875, 153)" class="statement"><rect x="0" y="0" rx="10" ry="5" width="19.71875" height="22" class="sprotty-node" style="fill:rgb(245, 245, 245);stroke:rgb(112, 112, 112);"/><text class="clickable sprotty-label statementtype" id="sprotty_ArchitectureBlockImpl$spi_host/AssignmentBlockImpl$hw2reg.control4/labeltype" transform="translate(5, 5) translate(4.71875, 9)" style="cursor:default;font-size:8px;font-weight:700;perspective-origin:0.140625px 0px;fill:rgb(112, 112, 112);text-anchor:middle;">&lt;=</text><g id="sprotty_ArchitectureBlockImpl$spi_host/AssignmentBlockImpl$hw2reg.control4/GPortImpl$hw2regOUT" transform="translate(19.71875, 11)" class="sprotty-hidden hidden" style="display:block;height:0px;width:0px;"/></g><g id="sprotty_ArchitectureBlockImpl$spi_host/AssignmentBlockImpl$hw2reg.control5" transform="translate(87.46875, 363)" class="statement"><rect x="0" y="0" rx="10" ry="5" width="19.71875" height="22" class="sprotty-node" style="fill:rgb(245, 245, 245);stroke:rgb(112, 112, 112);"/><text class="clickable sprotty-label statementtype" id="sprotty_ArchitectureBlockImpl$spi_host/AssignmentBlockImpl$hw2reg.control5/labeltype" transform="translate(5, 5) translate(4.71875, 9)" style="cursor:default;font-size:8px;font-weight:700;perspective-origin:0.140625px 0px;fill:rgb(112, 112, 112);text-anchor:middle;">&lt;=</text><g id="sprotty_ArchitectureBlockImpl$spi_host/AssignmentBlockImpl$hw2reg.control5/GPortImpl$hw2regOUT" transform="translate(19.71875, 11)" class="sprotty-hidden hidden" style="display:block;height:0px;width:0px;"/></g><g id="sprotty_ArchitectureBlockImpl$spi_host/AssignmentBlockImpl$unused_sigs" transform="translate(89.1875, 472)" class="statement"><rect x="0" y="0" rx="10" ry="5" width="19.71875" height="22" class="sprotty-node" style="fill:rgb(245, 245, 245);stroke:rgb(112, 112, 112);"/><text class="clickable sprotty-label statementtype" id="sprotty_ArchitectureBlockImpl$spi_host/AssignmentBlockImpl$unused_sigs/labeltype" transform="translate(5, 5) translate(4.71875, 9)" style="cursor:default;font-size:8px;font-weight:700;perspective-origin:0.140625px 0px;fill:rgb(112, 112, 112);text-anchor:middle;">&lt;=</text><g id="sprotty_ArchitectureBlockImpl$spi_host/AssignmentBlockImpl$unused_sigs/GPortImpl$scanmode_iIN" transform="translate(0, 11)" class="sprotty-hidden hidden" style="display:block;height:0px;width:0px;"/></g><g id="sprotty_ArchitectureBlockImpl$spi_host/AssignmentBlockImpl$cio_csb_en_o" transform="translate(349.3125, 258)" class="statement"><rect x="0" y="0" rx="10" ry="5" width="19.71875" height="22" class="sprotty-node" style="fill:rgb(245, 245, 245);stroke:rgb(112, 112, 112);"/><text class="clickable sprotty-label statementtype" id="sprotty_ArchitectureBlockImpl$spi_host/AssignmentBlockImpl$cio_csb_en_o/labeltype" transform="translate(5, 5) translate(4.71875, 9)" style="cursor:default;font-size:8px;font-weight:700;perspective-origin:0.140625px 0px;fill:rgb(112, 112, 112);text-anchor:middle;">&lt;=</text><g id="sprotty_ArchitectureBlockImpl$spi_host/AssignmentBlockImpl$cio_csb_en_o/GPortImpl$reg2hwIN" transform="translate(0, 11)" class="sprotty-hidden hidden" style="display:block;height:0px;width:0px;"/><g id="sprotty_ArchitectureBlockImpl$spi_host/AssignmentBlockImpl$cio_csb_en_o/GPortImpl$cio_csb_en_oOUT" transform="translate(19.71875, 11)" class="sprotty-hidden hidden" style="display:block;height:0px;width:0px;"/></g><g id="sprotty_ArchitectureBlockImpl$spi_host/AssignmentBlockImpl$cio_csb_o" transform="translate(349.3125, 216)" class="statement"><rect x="0" y="0" rx="10" ry="5" width="19.71875" height="22" class="sprotty-node" style="fill:rgb(245, 245, 245);stroke:rgb(112, 112, 112);"/><text class="clickable sprotty-label statementtype" id="sprotty_ArchitectureBlockImpl$spi_host/AssignmentBlockImpl$cio_csb_o/labeltype" transform="translate(5, 5) translate(4.71875, 9)" style="cursor:default;font-size:8px;font-weight:700;perspective-origin:0.140625px 0px;fill:rgb(112, 112, 112);text-anchor:middle;">&lt;=</text><g id="sprotty_ArchitectureBlockImpl$spi_host/AssignmentBlockImpl$cio_csb_o/GPortImpl$reg2hwIN" transform="translate(0, 11)" class="sprotty-hidden hidden" style="display:block;height:0px;width:0px;"/><g id="sprotty_ArchitectureBlockImpl$spi_host/AssignmentBlockImpl$cio_csb_o/GPortImpl$cio_csb_oOUT" transform="translate(19.71875, 11)" class="sprotty-hidden hidden" style="display:block;height:0px;width:0px;"/></g><g id="sprotty_ArchitectureBlockImpl$spi_host/AssignmentBlockImpl$cio_sck_en_o" transform="translate(349.3125, 174)" class="statement"><rect x="0" y="0" rx="10" ry="5" width="19.71875" height="22" class="sprotty-node" style="fill:rgb(245, 245, 245);stroke:rgb(112, 112, 112);"/><text class="clickable sprotty-label statementtype" id="sprotty_ArchitectureBlockImpl$spi_host/AssignmentBlockImpl$cio_sck_en_o/labeltype" transform="translate(5, 5) translate(4.71875, 9)" style="cursor:default;font-size:8px;font-weight:700;perspective-origin:0.140625px 0px;fill:rgb(112, 112, 112);text-anchor:middle;">&lt;=</text><g id="sprotty_ArchitectureBlockImpl$spi_host/AssignmentBlockImpl$cio_sck_en_o/GPortImpl$reg2hwIN" transform="translate(0, 11)" class="sprotty-hidden hidden" style="display:block;height:0px;width:0px;"/><g id="sprotty_ArchitectureBlockImpl$spi_host/AssignmentBlockImpl$cio_sck_en_o/GPortImpl$cio_sck_en_oOUT" transform="translate(19.71875, 11)" class="sprotty-hidden hidden" style="display:block;height:0px;width:0px;"/></g><g id="sprotty_ArchitectureBlockImpl$spi_host/AssignmentBlockImpl$cio_sck_o" transform="translate(349.3125, 132)" class="statement"><rect x="0" y="0" rx="10" ry="5" width="19.71875" height="22" class="sprotty-node" style="fill:rgb(245, 245, 245);stroke:rgb(112, 112, 112);"/><text class="clickable sprotty-label statementtype" id="sprotty_ArchitectureBlockImpl$spi_host/AssignmentBlockImpl$cio_sck_o/labeltype" transform="translate(5, 5) translate(4.71875, 9)" style="cursor:default;font-size:8px;font-weight:700;perspective-origin:0.140625px 0px;fill:rgb(112, 112, 112);text-anchor:middle;">&lt;=</text><g id="sprotty_ArchitectureBlockImpl$spi_host/AssignmentBlockImpl$cio_sck_o/GPortImpl$reg2hwIN" transform="translate(0, 11)" class="sprotty-hidden hidden" style="display:block;height:0px;width:0px;"/><g id="sprotty_ArchitectureBlockImpl$spi_host/AssignmentBlockImpl$cio_sck_o/GPortImpl$cio_sck_oOUT" transform="translate(19.71875, 11)" class="sprotty-hidden hidden" style="display:block;height:0px;width:0px;"/></g><g id="sprotty_ArchitectureBlockImpl$spi_host/AssignmentBlockImpl$hw2reg.control6" transform="translate(349.3125, 342)" class="statement"><rect x="0" y="0" rx="10" ry="5" width="19.71875" height="22" class="sprotty-node" style="fill:rgb(245, 245, 245);stroke:rgb(112, 112, 112);"/><text class="clickable sprotty-label statementtype" id="sprotty_ArchitectureBlockImpl$spi_host/AssignmentBlockImpl$hw2reg.control6/labeltype" transform="translate(5, 5) translate(4.71875, 9)" style="cursor:default;font-size:8px;font-weight:700;perspective-origin:0.140625px 0px;fill:rgb(112, 112, 112);text-anchor:middle;">&lt;=</text><g id="sprotty_ArchitectureBlockImpl$spi_host/AssignmentBlockImpl$hw2reg.control6/GPortImpl$reg2hwIN" transform="translate(0, 11)" class="sprotty-hidden hidden" style="display:block;height:0px;width:0px;"/><g id="sprotty_ArchitectureBlockImpl$spi_host/AssignmentBlockImpl$hw2reg.control6/GPortImpl$reg2hwOUT" transform="translate(19.71875, 11)" class="sprotty-hidden hidden" style="display:block;height:0px;width:0px;"/></g><g id="sprotty_ArchitectureBlockImpl$spi_host/AssignmentBlockImpl$hw2reg.control7" transform="translate(87.46875, 405)" class="statement"><rect x="0" y="0" rx="10" ry="5" width="19.71875" height="30" class="sprotty-node" style="fill:rgb(245, 245, 245);stroke:rgb(112, 112, 112);"/><text class="clickable sprotty-label statementtype" id="sprotty_ArchitectureBlockImpl$spi_host/AssignmentBlockImpl$hw2reg.control7/labeltype" transform="translate(5, 9) translate(4.71875, 9)" style="cursor:default;font-size:8px;font-weight:700;perspective-origin:0.140625px 0px;fill:rgb(112, 112, 112);text-anchor:middle;">&lt;=</text><g id="sprotty_ArchitectureBlockImpl$spi_host/AssignmentBlockImpl$hw2reg.control7/GPortImpl$cio_sd_iIN" transform="translate(0, 10)" class="sprotty-hidden hidden" style="display:block;height:0px;width:0px;"/><g id="sprotty_ArchitectureBlockImpl$spi_host/AssignmentBlockImpl$hw2reg.control7/GPortImpl$reg2hwIN" transform="translate(0, 20)" class="sprotty-hidden hidden" style="display:block;height:0px;width:0px;"/><g id="sprotty_ArchitectureBlockImpl$spi_host/AssignmentBlockImpl$hw2reg.control7/GPortImpl$hw2regOUT" transform="translate(19.71875, 15)" class="sprotty-hidden hidden" style="display:block;height:0px;width:0px;"/></g><g id="sprotty_ArchitectureBlockImpl$spi_host/AssignmentBlockImpl$cio_sd_en_o" transform="translate(349.3125, 90)" class="statement"><rect x="0" y="0" rx="10" ry="5" width="19.71875" height="22" class="sprotty-node" style="fill:rgb(245, 245, 245);stroke:rgb(112, 112, 112);"/><text class="clickable sprotty-label statementtype" id="sprotty_ArchitectureBlockImpl$spi_host/AssignmentBlockImpl$cio_sd_en_o/labeltype" transform="translate(5, 5) translate(4.71875, 9)" style="cursor:default;font-size:8px;font-weight:700;perspective-origin:0.140625px 0px;fill:rgb(112, 112, 112);text-anchor:middle;">&lt;=</text><g id="sprotty_ArchitectureBlockImpl$spi_host/AssignmentBlockImpl$cio_sd_en_o/GPortImpl$reg2hwIN" transform="translate(0, 11)" class="sprotty-hidden hidden" style="display:block;height:0px;width:0px;"/><g id="sprotty_ArchitectureBlockImpl$spi_host/AssignmentBlockImpl$cio_sd_en_o/GPortImpl$cio_sd_en_oOUT" transform="translate(19.71875, 11)" class="sprotty-hidden hidden" style="display:block;height:0px;width:0px;"/></g><g id="sprotty_ArchitectureBlockImpl$spi_host/AssignmentBlockImpl$cio_sd_o" transform="translate(349.3125, 300)" class="statement"><rect x="0" y="0" rx="10" ry="5" width="19.71875" height="22" class="sprotty-node" style="fill:rgb(245, 245, 245);stroke:rgb(112, 112, 112);"/><text class="clickable sprotty-label statementtype" id="sprotty_ArchitectureBlockImpl$spi_host/AssignmentBlockImpl$cio_sd_o/labeltype" transform="translate(5, 5) translate(4.71875, 9)" style="cursor:default;font-size:8px;font-weight:700;perspective-origin:0.140625px 0px;fill:rgb(112, 112, 112);text-anchor:middle;">&lt;=</text><g id="sprotty_ArchitectureBlockImpl$spi_host/AssignmentBlockImpl$cio_sd_o/GPortImpl$reg2hwIN" transform="translate(0, 11)" class="sprotty-hidden hidden" style="display:block;height:0px;width:0px;"/><g id="sprotty_ArchitectureBlockImpl$spi_host/AssignmentBlockImpl$cio_sd_o/GPortImpl$cio_sd_oOUT" transform="translate(19.71875, 11)" class="sprotty-hidden hidden" style="display:block;height:0px;width:0px;"/></g><g id="sprotty_ArchitectureBlockImpl$spi_host/InstantiationBlockImpl$u_reg" transform="translate(127.1875, 35)" class="instantiation"><g class="sprotty-block" style="fill:rgb(255, 255, 255);stroke:rgb(48, 48, 48);stroke-dasharray:0px;"><rect x="0" y="0" rx="1" ry="1" width="202.125" height="168"/><text x="101.0625" y="12" class="sprotty-block-name" style="cursor:pointer;font-weight:700;perspective-origin:101.062px 0px;fill:rgb(48, 48, 48);stroke:rgba(0, 0, 0, 0);dominant-baseline:middle;text-anchor:middle;">u_reg : spi_host_reg_top</text><line x1="0" y1="20" x2="202.125" y2="20"/></g><g id="sprotty_ArchitectureBlockImpl$spi_host/InstantiationBlockImpl$u_reg/BPortImpl$devmode_i" transform="translate(0, 150)" class="triangle"><path d="M 0,0 L 5,2.5 L 0,5 Z" transform="translate(-1.67, -2.5)" class="sprotty-port" style="fill:rgb(48, 48, 48);stroke:rgb(48, 48, 48);"/><text class="clickable sprotty-label port" id="sprotty_ArchitectureBlockImpl$spi_host/InstantiationBlockImpl$u_reg/BPortImpl$devmode_i/label" transform="translate(6, -9) translate(31.453125, 14)" style="cursor:default;font-size:12px;perspective-origin:0px 0px;fill:rgb(48, 48, 48);text-anchor:middle;">devmode_i</text></g><g id="sprotty_ArchitectureBlockImpl$spi_host/InstantiationBlockImpl$u_reg/BPortImpl$hw2reg" transform="translate(0, 122)" class="triangle"><path d="M 0,0 L 5,2.5 L 0,5 Z" transform="translate(-1.67, -2.5)" class="sprotty-port" style="fill:rgb(48, 48, 48);stroke:rgb(48, 48, 48);"/><text class="clickable sprotty-label port" id="sprotty_ArchitectureBlockImpl$spi_host/InstantiationBlockImpl$u_reg/BPortImpl$hw2reg/label" transform="translate(6, -9) translate(20.6875, 14)" style="cursor:default;font-size:12px;perspective-origin:0.125px 0px;fill:rgb(48, 48, 48);text-anchor:middle;">hw2reg</text></g><g id="sprotty_ArchitectureBlockImpl$spi_host/InstantiationBlockImpl$u_reg/BPortImpl$tl_i" transform="translate(0, 94)" class="triangle"><path d="M 0,0 L 5,2.5 L 0,5 Z" transform="translate(-1.67, -2.5)" class="sprotty-port" style="fill:rgb(48, 48, 48);stroke:rgb(48, 48, 48);"/><text class="clickable sprotty-label port" id="sprotty_ArchitectureBlockImpl$spi_host/InstantiationBlockImpl$u_reg/BPortImpl$tl_i/label" transform="translate(6, -9) translate(8.984375, 14)" style="cursor:default;font-size:12px;perspective-origin:0px 0px;fill:rgb(48, 48, 48);text-anchor:middle;">tl_i</text></g><g id="sprotty_ArchitectureBlockImpl$spi_host/InstantiationBlockImpl$u_reg/BPortImpl$rst_ni" transform="translate(0, 66)" class="triangle"><path d="M 0,0 L 5,2.5 L 0,5 Z" transform="translate(-1.67, -2.5)" class="sprotty-port" style="fill:rgb(48, 48, 48);stroke:rgb(48, 48, 48);"/><text class="clickable sprotty-label port" id="sprotty_ArchitectureBlockImpl$spi_host/InstantiationBlockImpl$u_reg/BPortImpl$rst_ni/label" transform="translate(6, -9) translate(15.921875, 14)" style="cursor:default;font-size:12px;perspective-origin:0px 0px;fill:rgb(48, 48, 48);text-anchor:middle;">rst_ni</text></g><g id="sprotty_ArchitectureBlockImpl$spi_host/InstantiationBlockImpl$u_reg/BPortImpl$clk_i" transform="translate(0, 38)" class="triangle"><path d="M 0,0 L 5,2.5 L 0,5 Z" transform="translate(-1.67, -2.5)" class="sprotty-port" style="fill:rgb(48, 48, 48);stroke:rgb(48, 48, 48);"/><text class="clickable sprotty-label port" id="sprotty_ArchitectureBlockImpl$spi_host/InstantiationBlockImpl$u_reg/BPortImpl$clk_i/label" transform="translate(6, -9) translate(13.09375, 14)" style="cursor:default;font-size:12px;perspective-origin:0px 0px;fill:rgb(48, 48, 48);text-anchor:middle;">clk_i</text></g><g id="sprotty_ArchitectureBlockImpl$spi_host/InstantiationBlockImpl$u_reg/BPortImpl$tl_o" transform="translate(202.125, 38)" class="triangle"><path d="M 0,0 L 5,2.5 L 0,5 Z" transform="translate(-1.67, -2.5)" class="sprotty-port" style="fill:rgb(48, 48, 48);stroke:rgb(48, 48, 48);"/><text class="clickable sprotty-label port" id="sprotty_ArchitectureBlockImpl$spi_host/InstantiationBlockImpl$u_reg/BPortImpl$tl_o/label" transform="translate(-27.9375, -9) translate(10.96875, 14)" style="cursor:default;font-size:12px;perspective-origin:0px 0px;fill:rgb(48, 48, 48);text-anchor:middle;">tl_o</text></g><g id="sprotty_ArchitectureBlockImpl$spi_host/InstantiationBlockImpl$u_reg/BPortImpl$reg2hw" transform="translate(202.125, 150)" class="triangle"><path d="M 0,0 L 5,2.5 L 0,5 Z" transform="translate(-1.67, -2.5)" class="sprotty-port" style="fill:rgb(48, 48, 48);stroke:rgb(48, 48, 48);"/><text class="clickable sprotty-label port" id="sprotty_ArchitectureBlockImpl$spi_host/InstantiationBlockImpl$u_reg/BPortImpl$reg2hw/label" transform="translate(-47.75, -9) translate(20.6875, 14)" style="cursor:default;font-size:12px;perspective-origin:0.1875px 0px;fill:rgb(48, 48, 48);text-anchor:middle;">reg2hw</text></g></g><g id="sprotty_ArchitectureBlockImpl$spi_host/BPortImpl$cio_sd_i" transform="translate(0, 415)" class="triangle"><path d="M 0,0 L 5,2.5 L 0,5 Z" transform="translate(-1.67, -2.5)" class="sprotty-port" style="fill:rgb(48, 48, 48);stroke:rgb(48, 48, 48);"/><text class="clickable sprotty-label port" id="sprotty_ArchitectureBlockImpl$spi_host/BPortImpl$cio_sd_i/label" transform="translate(6, 6) translate(23.234375, 14)" style="cursor:default;font-size:12px;perspective-origin:0px 0px;fill:rgb(48, 48, 48);text-anchor:middle;">cio_sd_i</text></g><g id="sprotty_ArchitectureBlockImpl$spi_host/BPortImpl$tl_i" transform="translate(0, 141)" class="triangle"><path d="M 0,0 L 5,2.5 L 0,5 Z" transform="translate(-1.67, -2.5)" class="sprotty-port" style="fill:rgb(48, 48, 48);stroke:rgb(48, 48, 48);"/><text class="clickable sprotty-label port" id="sprotty_ArchitectureBlockImpl$spi_host/BPortImpl$tl_i/label" transform="translate(6, 6) translate(8.984375, 14)" style="cursor:default;font-size:12px;perspective-origin:0px 0px;fill:rgb(48, 48, 48);text-anchor:middle;">tl_i</text></g><g id="sprotty_ArchitectureBlockImpl$spi_host/BPortImpl$scanmode_i" transform="translate(0, 483)" class="triangle"><path d="M 0,0 L 5,2.5 L 0,5 Z" transform="translate(-1.67, -2.5)" class="sprotty-port" style="fill:rgb(48, 48, 48);stroke:rgb(48, 48, 48);"/><text class="clickable sprotty-label port" id="sprotty_ArchitectureBlockImpl$spi_host/BPortImpl$scanmode_i/label" transform="translate(6, 6) translate(34.09375, 14)" style="cursor:default;font-size:12px;perspective-origin:0px 0px;fill:rgb(48, 48, 48);text-anchor:middle;">scanmode_i</text></g><g id="sprotty_ArchitectureBlockImpl$spi_host/BPortImpl$rst_ni" transform="translate(0, 107)" class="triangle"><path d="M 0,0 L 5,2.5 L 0,5 Z" transform="translate(-1.67, -2.5)" class="sprotty-port" style="fill:rgb(48, 48, 48);stroke:rgb(48, 48, 48);"/><text class="clickable sprotty-label port" id="sprotty_ArchitectureBlockImpl$spi_host/BPortImpl$rst_ni/label" transform="translate(6, 6) translate(15.921875, 14)" style="cursor:default;font-size:12px;perspective-origin:0px 0px;fill:rgb(48, 48, 48);text-anchor:middle;">rst_ni</text></g><g id="sprotty_ArchitectureBlockImpl$spi_host/BPortImpl$clk_i" transform="translate(0, 73)" class="triangle"><path d="M 0,0 L 5,2.5 L 0,5 Z" transform="translate(-1.67, -2.5)" class="sprotty-port" style="fill:rgb(48, 48, 48);stroke:rgb(48, 48, 48);"/><text class="clickable sprotty-label port" id="sprotty_ArchitectureBlockImpl$spi_host/BPortImpl$clk_i/label" transform="translate(6, 6) translate(13.09375, 14)" style="cursor:default;font-size:12px;perspective-origin:0px 0px;fill:rgb(48, 48, 48);text-anchor:middle;">clk_i</text></g><g id="sprotty_ArchitectureBlockImpl$spi_host/BPortImpl$tl_o" transform="translate(487.25, 67)" class="triangle"><path d="M 0,0 L 5,2.5 L 0,5 Z" transform="translate(-1.67, -2.5)" class="sprotty-port" style="fill:rgb(48, 48, 48);stroke:rgb(48, 48, 48);"/><text class="clickable sprotty-label port" id="sprotty_ArchitectureBlockImpl$spi_host/BPortImpl$tl_o/label" transform="translate(-27.9375, 6) translate(10.96875, 14)" style="cursor:default;font-size:12px;perspective-origin:0px 0px;fill:rgb(48, 48, 48);text-anchor:middle;">tl_o</text></g><g id="sprotty_ArchitectureBlockImpl$spi_host/BPortImpl$cio_sck_o" transform="translate(487.25, 143)" class="triangle"><path d="M 0,0 L 5,2.5 L 0,5 Z" transform="translate(-1.67, -2.5)" class="sprotty-port" style="fill:rgb(48, 48, 48);stroke:rgb(48, 48, 48);"/><text class="clickable sprotty-label port" id="sprotty_ArchitectureBlockImpl$spi_host/BPortImpl$cio_sck_o/label" transform="translate(-61.71875, 6) translate(27.859375, 14)" style="cursor:default;font-size:12px;perspective-origin:0px 0px;fill:rgb(48, 48, 48);text-anchor:middle;">cio_sck_o</text></g><g id="sprotty_ArchitectureBlockImpl$spi_host/BPortImpl$cio_sck_en_o" transform="translate(487.25, 185)" class="triangle"><path d="M 0,0 L 5,2.5 L 0,5 Z" transform="translate(-1.67, -2.5)" class="sprotty-port" style="fill:rgb(48, 48, 48);stroke:rgb(48, 48, 48);"/><text class="clickable sprotty-label port" id="sprotty_ArchitectureBlockImpl$spi_host/BPortImpl$cio_sck_en_o/label" transform="translate(-82.40625, 6) translate(38.203125, 14)" style="cursor:default;font-size:12px;perspective-origin:0px 0px;fill:rgb(48, 48, 48);text-anchor:middle;">cio_sck_en_o</text></g><g id="sprotty_ArchitectureBlockImpl$spi_host/BPortImpl$cio_csb_o" transform="translate(487.25, 227)" class="triangle"><path d="M 0,0 L 5,2.5 L 0,5 Z" transform="translate(-1.67, -2.5)" class="sprotty-port" style="fill:rgb(48, 48, 48);stroke:rgb(48, 48, 48);"/><text class="clickable sprotty-label port" id="sprotty_ArchitectureBlockImpl$spi_host/BPortImpl$cio_csb_o/label" transform="translate(-62.53125, 6) translate(28.265625, 14)" style="cursor:default;font-size:12px;perspective-origin:0px 0px;fill:rgb(48, 48, 48);text-anchor:middle;">cio_csb_o</text></g><g id="sprotty_ArchitectureBlockImpl$spi_host/BPortImpl$cio_csb_en_o" transform="translate(487.25, 269)" class="triangle"><path d="M 0,0 L 5,2.5 L 0,5 Z" transform="translate(-1.67, -2.5)" class="sprotty-port" style="fill:rgb(48, 48, 48);stroke:rgb(48, 48, 48);"/><text class="clickable sprotty-label port" id="sprotty_ArchitectureBlockImpl$spi_host/BPortImpl$cio_csb_en_o/label" transform="translate(-83.21875, 6) translate(38.609375, 14)" style="cursor:default;font-size:12px;perspective-origin:0px 0px;fill:rgb(48, 48, 48);text-anchor:middle;">cio_csb_en_o</text></g><g id="sprotty_ArchitectureBlockImpl$spi_host/BPortImpl$cio_sd_o" transform="translate(487.25, 311)" class="triangle"><path d="M 0,0 L 5,2.5 L 0,5 Z" transform="translate(-1.67, -2.5)" class="sprotty-port" style="fill:rgb(48, 48, 48);stroke:rgb(48, 48, 48);"/><text class="clickable sprotty-label port" id="sprotty_ArchitectureBlockImpl$spi_host/BPortImpl$cio_sd_o/label" transform="translate(-56.4375, 6) translate(25.21875, 14)" style="cursor:default;font-size:12px;perspective-origin:0px 0px;fill:rgb(48, 48, 48);text-anchor:middle;">cio_sd_o</text></g><g id="sprotty_ArchitectureBlockImpl$spi_host/BPortImpl$cio_sd_en_o" transform="translate(487.25, 101)" class="triangle"><path d="M 0,0 L 5,2.5 L 0,5 Z" transform="translate(-1.67, -2.5)" class="sprotty-port" style="fill:rgb(48, 48, 48);stroke:rgb(48, 48, 48);"/><text class="clickable sprotty-label port" id="sprotty_ArchitectureBlockImpl$spi_host/BPortImpl$cio_sd_en_o/label" transform="translate(-77.125, 6) translate(35.5625, 14)" style="cursor:default;font-size:12px;perspective-origin:0px 0px;fill:rgb(48, 48, 48);text-anchor:middle;">cio_sd_en_o</text></g></g></g></svg>