<svg xmlns="http://www.w3.org/2000/svg" id="sprotty_work.sha2_pad" class="sprotty-graph sprotty-block-diagram blockdiagram" style="font-family:&quot;Noto Sans&quot;, Helvetica, Arial, sans-serif;perspective-origin:0px 0px;transform-origin:0px 0px;" version="1.1" viewBox="7 7 743.03125 568" width="743.03125" height="568"><g transform="scale(1) translate(0,0)"><g id="sprotty_ArchitectureBlockImpl$sha2_pad" transform="translate(12, 12)" class="architecture"><g class="sprotty-block" style="fill:rgb(255, 255, 255);stroke:rgb(48, 48, 48);stroke-dasharray:0px;"><rect x="0" y="0" rx="1" ry="1" width="733.03125" height="558"/><text x="366.515625" y="12" class="sprotty-block-name" style="cursor:pointer;font-weight:700;perspective-origin:366.516px 0px;fill:rgb(48, 48, 48);stroke:rgba(0, 0, 0, 0);dominant-baseline:middle;text-anchor:middle;">sha2_pad</text><line x1="0" y1="20" x2="733.03125" y2="20"/></g><g id="sprotty_ArchitectureBlockImpl$sha2_pad/AlwaysBlockImpl$null17/GPortImpl$fifo_rreadyOUT_to_ArchitectureBlockImpl$sha2_pad/BPortImpl$fifo_rready" class="sprotty-edge edge" style="fill:none;stroke:rgb(112, 112, 112);stroke-linejoin:round;"><g><path d="M 454.21875 380.33333333333337 L 733.03125 380.33333333333337 "/><path d="M 454.21875 380.33333333333337 L 733.03125 380.33333333333337 " class="clickable"/></g></g><g id="sprotty_ArchitectureBlockImpl$sha2_pad/AlwaysBlockImpl$null17/GPortImpl$shaf_rvalidOUT_to_ArchitectureBlockImpl$sha2_pad/BPortImpl$shaf_rvalid" class="sprotty-edge edge" style="fill:none;stroke:rgb(112, 112, 112);stroke-linejoin:round;"><g><path d="M 454.21875 362 L 482.21875 362 C 483.21875 362 484.21875 361 484.21875 360 L 484.21875 348.33333333333337 C 484.21875 347.33333333333337 485.21875 346.33333333333337 486.21875 346.33333333333337 L 733.03125 346.33333333333337 "/><path d="M 454.21875 362 L 482.21875 362 C 483.21875 362 484.21875 361 484.21875 360 L 484.21875 348.33333333333337 C 484.21875 347.33333333333337 485.21875 346.33333333333337 486.21875 346.33333333333337 L 733.03125 346.33333333333337 " class="clickable"/></g></g><g id="sprotty_ArchitectureBlockImpl$sha2_pad/AlwaysBlockImpl$null19/GPortImpl$shaf_rdataOUT_to_ArchitectureBlockImpl$sha2_pad/BPortImpl$shaf_rdata" class="sprotty-edge thick edge" style="fill:none;stroke:rgb(112, 112, 112);stroke-linejoin:round;stroke-width:3px;"><g><path d="M 557.96875 426 L 733.03125 426 "/><path d="M 557.96875 426 L 733.03125 426 " class="clickable"/></g></g><g id="sprotty_ArchitectureBlockImpl$sha2_pad/AssignmentBlockImpl$msg_feed_complete/GPortImpl$msg_feed_completeOUT_to_ArchitectureBlockImpl$sha2_pad/BPortImpl$msg_feed_complete" class="sprotty-edge edge" style="fill:none;stroke:rgb(112, 112, 112);stroke-linejoin:round;"><g><path d="M 597.6875 63 L 733.03125 63 "/><path d="M 597.6875 63 L 733.03125 63 " class="clickable"/></g></g><g id="sprotty_ArchitectureBlockImpl$sha2_pad/BPortImpl$fifo_rdata_to_ArchitectureBlockImpl$sha2_pad/AssignmentBlockImpl$fifo_partial/GPortImpl$fifo_rdataIN" class="sprotty-edge thick edge" style="fill:none;stroke:rgb(112, 112, 112);stroke-linejoin:round;stroke-width:3px;"><g><path d="M 0 295 L 266.1640625 295 "/><path d="M 0 295 L 266.1640625 295 " class="clickable"/></g></g><g id="sprotty_ArchitectureBlockImpl$sha2_pad/BPortImpl$clk_i_to_ArchitectureBlockImpl$sha2_pad/AlwaysBlockImpl$null20/GPortImpl$clk_iIN" class="sprotty-edge edge" style="fill:none;stroke:rgb(112, 112, 112);stroke-linejoin:round;"><g><path d="M 0 146 L 219.578125 146 C 220.578125 146 221.578125 147 221.578125 148 L 221.578125 168 C 221.578125 169 222.578125 170 223.578125 170 L 251.578125 170 "/><path d="M 0 146 L 219.578125 146 C 220.578125 146 221.578125 147 221.578125 148 L 221.578125 168 C 221.578125 169 222.578125 170 223.578125 170 L 251.578125 170 " class="clickable"/></g></g><g id="sprotty_ArchitectureBlockImpl$sha2_pad/BPortImpl$rst_ni_to_ArchitectureBlockImpl$sha2_pad/AlwaysBlockImpl$null20/GPortImpl$rst_niIN" class="sprotty-edge edge" style="fill:none;stroke:rgb(112, 112, 112);stroke-linejoin:round;"><g><path d="M 0 78 L 239.578125 78 C 240.578125 78 241.578125 79 241.578125 80 L 241.578125 148 C 241.578125 149 242.578125 150 243.578125 150 L 251.578125 150 "/><path d="M 0 78 L 239.578125 78 C 240.578125 78 241.578125 79 241.578125 80 L 241.578125 148 C 241.578125 149 242.578125 150 243.578125 150 L 251.578125 150 " class="clickable"/></g></g><g id="sprotty_ArchitectureBlockImpl$sha2_pad/BPortImpl$hash_process_to_ArchitectureBlockImpl$sha2_pad/AlwaysBlockImpl$null20/GPortImpl$hash_processIN" class="sprotty-edge edge" style="fill:none;stroke:rgb(112, 112, 112);stroke-linejoin:round;"><g><path d="M 0 180 L 251.578125 180 "/><path d="M 0 180 L 251.578125 180 " class="clickable"/></g></g><g id="sprotty_ArchitectureBlockImpl$sha2_pad/BPortImpl$hash_done_to_ArchitectureBlockImpl$sha2_pad/AlwaysBlockImpl$null20/GPortImpl$hash_doneIN" class="sprotty-edge edge" style="fill:none;stroke:rgb(112, 112, 112);stroke-linejoin:round;"><g><path d="M 0 112 L 229.578125 112 C 230.578125 112 231.578125 113 231.578125 114 L 231.578125 158 C 231.578125 159 232.578125 160 233.578125 160 L 251.578125 160 "/><path d="M 0 112 L 229.578125 112 C 230.578125 112 231.578125 113 231.578125 114 L 231.578125 158 C 231.578125 159 232.578125 160 233.578125 160 L 251.578125 160 " class="clickable"/></g></g><g id="sprotty_ArchitectureBlockImpl$sha2_pad/BPortImpl$hash_start_to_ArchitectureBlockImpl$sha2_pad/AlwaysBlockImpl$null20/GPortImpl$hash_startIN" class="sprotty-edge edge" style="fill:none;stroke:rgb(112, 112, 112);stroke-linejoin:round;"><g><path d="M 0 261 L 140.6875 261 C 141.6875 261 142.6875 260 142.6875 259 L 142.6875 192 C 142.6875 191 143.6875 190 144.6875 190 L 251.578125 190 "/><path d="M 0 261 L 140.6875 261 C 141.6875 261 142.6875 260 142.6875 259 L 142.6875 192 C 142.6875 191 143.6875 190 144.6875 190 L 251.578125 190 " class="clickable"/></g><circle r="2" id="sprotty_ArchitectureBlockImpl$sha2_pad/BPortImpl$hash_start_to_ArchitectureBlockImpl$sha2_pad/AlwaysBlockImpl$null20/GPortImpl$hash_startIN/junction0" transform="translate(142.6875, 261)" class="sprotty-junction junction" style="fill:rgb(112, 112, 112);stroke:none;"/></g><g id="sprotty_ArchitectureBlockImpl$sha2_pad/BPortImpl$message_length_to_ArchitectureBlockImpl$sha2_pad/AlwaysBlockImpl$null19/GPortImpl$message_lengthIN" class="sprotty-edge thick edge" style="fill:none;stroke:rgb(112, 112, 112);stroke-linejoin:round;stroke-width:3px;"><g><path d="M 0 431 L 494.21875 431 "/><path d="M 0 431 L 494.21875 431 " class="clickable"/></g></g><g id="sprotty_ArchitectureBlockImpl$sha2_pad/BPortImpl$clk_i_to_ArchitectureBlockImpl$sha2_pad/AlwaysBlockImpl$null18/GPortImpl$clk_iIN" class="sprotty-edge edge" style="fill:none;stroke:rgb(112, 112, 112);stroke-linejoin:round;"><g><path d="M 0 146 L 130.6875 146 C 131.6875 146 132.6875 145 132.6875 144 L 132.6875 70 C 132.6875 69 133.6875 68 134.6875 68 L 497.190625 68 "/><path d="M 0 146 L 130.6875 146 C 131.6875 146 132.6875 145 132.6875 144 L 132.6875 70 C 132.6875 69 133.6875 68 134.6875 68 L 497.190625 68 " class="clickable"/></g><circle r="2" id="sprotty_ArchitectureBlockImpl$sha2_pad/BPortImpl$clk_i_to_ArchitectureBlockImpl$sha2_pad/AlwaysBlockImpl$null18/GPortImpl$clk_iIN/junction0" transform="translate(132.6875, 146)" class="sprotty-junction junction" style="fill:rgb(112, 112, 112);stroke:none;"/></g><g id="sprotty_ArchitectureBlockImpl$sha2_pad/BPortImpl$rst_ni_to_ArchitectureBlockImpl$sha2_pad/AlwaysBlockImpl$null18/GPortImpl$rst_niIN" class="sprotty-edge edge" style="fill:none;stroke:rgb(112, 112, 112);stroke-linejoin:round;"><g><path d="M 0 78 L 120.6875 78 C 121.6875 78 122.6875 77 122.6875 76 L 122.6875 60 C 122.6875 59 123.6875 58 124.6875 58 L 497.190625 58 "/><path d="M 0 78 L 120.6875 78 C 121.6875 78 122.6875 77 122.6875 76 L 122.6875 60 C 122.6875 59 123.6875 58 124.6875 58 L 497.190625 58 " class="clickable"/></g><circle r="2" id="sprotty_ArchitectureBlockImpl$sha2_pad/BPortImpl$rst_ni_to_ArchitectureBlockImpl$sha2_pad/AlwaysBlockImpl$null18/GPortImpl$rst_niIN/junction0" transform="translate(122.6875, 78)" class="sprotty-junction junction" style="fill:rgb(112, 112, 112);stroke:none;"/></g><g id="sprotty_ArchitectureBlockImpl$sha2_pad/BPortImpl$sha_en_to_ArchitectureBlockImpl$sha2_pad/AlwaysBlockImpl$null17/GPortImpl$sha_enIN" class="sprotty-edge edge" style="fill:none;stroke:rgb(112, 112, 112);stroke-linejoin:round;"><g><path d="M 0 329 L 318.46875 329 C 319.46875 329 320.46875 330 320.46875 331 L 320.46875 375 C 320.46875 376 321.46875 377 322.46875 377 L 390.46875 377 "/><path d="M 0 329 L 318.46875 329 C 319.46875 329 320.46875 330 320.46875 331 L 320.46875 375 C 320.46875 376 321.46875 377 322.46875 377 L 390.46875 377 " class="clickable"/></g></g><g id="sprotty_ArchitectureBlockImpl$sha2_pad/BPortImpl$hash_start_to_ArchitectureBlockImpl$sha2_pad/AlwaysBlockImpl$null17/GPortImpl$hash_startIN" class="sprotty-edge edge" style="fill:none;stroke:rgb(112, 112, 112);stroke-linejoin:round;"><g><path d="M 0 261 L 140.6875 261 C 141.6875 261 142.6875 262 142.6875 263 L 142.6875 317 C 142.6875 318 143.6875 319 144.6875 319 L 328.46875 319 C 329.46875 319 330.46875 320 330.46875 321 L 330.46875 365 C 330.46875 366 331.46875 367 332.46875 367 L 390.46875 367 "/><path d="M 0 261 L 140.6875 261 C 141.6875 261 142.6875 262 142.6875 263 L 142.6875 317 C 142.6875 318 143.6875 319 144.6875 319 L 328.46875 319 C 329.46875 319 330.46875 320 330.46875 321 L 330.46875 365 C 330.46875 366 331.46875 367 332.46875 367 L 390.46875 367 " class="clickable"/></g></g><g id="sprotty_ArchitectureBlockImpl$sha2_pad/BPortImpl$fifo_rvalid_to_ArchitectureBlockImpl$sha2_pad/AlwaysBlockImpl$null17/GPortImpl$fifo_rvalidIN" class="sprotty-edge edge" style="fill:none;stroke:rgb(112, 112, 112);stroke-linejoin:round;"><g><path d="M 0 397 L 390.46875 397 "/><path d="M 0 397 L 390.46875 397 " class="clickable"/></g></g><g id="sprotty_ArchitectureBlockImpl$sha2_pad/BPortImpl$shaf_rready_to_ArchitectureBlockImpl$sha2_pad/AlwaysBlockImpl$null17/GPortImpl$shaf_rreadyIN" class="sprotty-edge edge" style="fill:none;stroke:rgb(112, 112, 112);stroke-linejoin:round;"><g><path d="M 0 363 L 308.46875 363 C 309.46875 363 310.46875 364 310.46875 365 L 310.46875 385 C 310.46875 386 311.46875 387 312.46875 387 L 390.46875 387 "/><path d="M 0 363 L 308.46875 363 C 309.46875 363 310.46875 364 310.46875 365 L 310.46875 385 C 310.46875 386 311.46875 387 312.46875 387 L 390.46875 387 " class="clickable"/></g></g><g id="sprotty_ArchitectureBlockImpl$sha2_pad/BPortImpl$message_length_to_ArchitectureBlockImpl$sha2_pad/AlwaysBlockImpl$null17/GPortImpl$message_lengthIN" class="sprotty-edge thick edge" style="fill:none;stroke:rgb(112, 112, 112);stroke-linejoin:round;stroke-width:3px;"><g><path d="M 0 431 L 308.46875 431 C 309.46875 431 310.46875 430 310.46875 429 L 310.46875 409 C 310.46875 408 311.46875 407 312.46875 407 L 390.46875 407 "/><path d="M 0 431 L 308.46875 431 C 309.46875 431 310.46875 430 310.46875 429 L 310.46875 409 C 310.46875 408 311.46875 407 312.46875 407 L 390.46875 407 " class="clickable"/></g><circle r="3" id="sprotty_ArchitectureBlockImpl$sha2_pad/BPortImpl$message_length_to_ArchitectureBlockImpl$sha2_pad/AlwaysBlockImpl$null17/GPortImpl$message_lengthIN/junction0" transform="translate(310.46875, 431)" class="sprotty-junction thick" style="fill:rgb(112, 112, 112);stroke:none;"/></g><g id="sprotty_ArchitectureBlockImpl$sha2_pad/BPortImpl$clk_i_to_ArchitectureBlockImpl$sha2_pad/AlwaysBlockImpl$null16/GPortImpl$clk_iIN" class="sprotty-edge edge" style="fill:none;stroke:rgb(112, 112, 112);stroke-linejoin:round;"><g><path d="M 0 146 L 130.6875 146 C 131.6875 146 132.6875 147 132.6875 148 L 132.6875 249 C 132.6875 250 133.6875 251 134.6875 251 L 162.6875 251 "/><path d="M 0 146 L 130.6875 146 C 131.6875 146 132.6875 147 132.6875 148 L 132.6875 249 C 132.6875 250 133.6875 251 134.6875 251 L 162.6875 251 " class="clickable"/></g></g><g id="sprotty_ArchitectureBlockImpl$sha2_pad/BPortImpl$rst_ni_to_ArchitectureBlockImpl$sha2_pad/AlwaysBlockImpl$null16/GPortImpl$rst_niIN" class="sprotty-edge edge" style="fill:none;stroke:rgb(112, 112, 112);stroke-linejoin:round;"><g><path d="M 0 78 L 120.6875 78 C 121.6875 78 122.6875 79 122.6875 80 L 122.6875 239 C 122.6875 240 123.6875 241 124.6875 241 L 162.6875 241 "/><path d="M 0 78 L 120.6875 78 C 121.6875 78 122.6875 79 122.6875 80 L 122.6875 239 C 122.6875 240 123.6875 241 124.6875 241 L 162.6875 241 " class="clickable"/></g></g><g id="sprotty_ArchitectureBlockImpl$sha2_pad/BPortImpl$hash_start_to_ArchitectureBlockImpl$sha2_pad/AlwaysBlockImpl$null16/GPortImpl$hash_startIN" class="sprotty-edge edge" style="fill:none;stroke:rgb(112, 112, 112);stroke-linejoin:round;"><g><path d="M 0 261 L 162.6875 261 "/><path d="M 0 261 L 162.6875 261 " class="clickable"/></g></g><g id="sprotty_ArchitectureBlockImpl$sha2_pad/AlwaysBlockImpl$null16/GPortImpl$tx_countOUT_to_ArchitectureBlockImpl$sha2_pad/AssignmentBlockImpl$txcnt_eq_1a0/GPortImpl$tx_countIN" class="sprotty-edge thick edge" style="fill:none;stroke:rgb(112, 112, 112);stroke-linejoin:round;stroke-width:3px;"><g><path d="M 211.578125 246 L 266.1640625 246 "/><path d="M 211.578125 246 L 266.1640625 246 " class="clickable"/></g></g><g id="sprotty_ArchitectureBlockImpl$sha2_pad/AlwaysBlockImpl$null16/GPortImpl$tx_countOUT_to_ArchitectureBlockImpl$sha2_pad/AlwaysBlockImpl$null17/GPortImpl$tx_countIN" class="sprotty-edge thick edge" style="fill:none;stroke:rgb(112, 112, 112);stroke-linejoin:round;stroke-width:3px;"><g><path d="M 211.578125 246 L 219.578125 246 C 220.578125 246 221.578125 245 221.578125 244 L 221.578125 225 C 221.578125 224 222.578125 223 223.578125 223 L 358.46875 223 C 359.46875 223 360.46875 224 360.46875 225 L 360.46875 335 C 360.46875 336 361.46875 337 362.46875 337 L 390.46875 337 "/><path d="M 211.578125 246 L 219.578125 246 C 220.578125 246 221.578125 245 221.578125 244 L 221.578125 225 C 221.578125 224 222.578125 223 223.578125 223 L 358.46875 223 C 359.46875 223 360.46875 224 360.46875 225 L 360.46875 335 C 360.46875 336 361.46875 337 362.46875 337 L 390.46875 337 " class="clickable"/></g><circle r="3" id="sprotty_ArchitectureBlockImpl$sha2_pad/AlwaysBlockImpl$null16/GPortImpl$tx_countOUT_to_ArchitectureBlockImpl$sha2_pad/AlwaysBlockImpl$null17/GPortImpl$tx_countIN/junction0" transform="translate(221.578125, 246)" class="sprotty-junction thick" style="fill:rgb(112, 112, 112);stroke:none;"/></g><g id="sprotty_ArchitectureBlockImpl$sha2_pad/AlwaysBlockImpl$null17/GPortImpl$inc_txcountOUT_to_ArchitectureBlockImpl$sha2_pad/AlwaysBlockImpl$null16/GPortImpl$inc_txcountIN" class="sprotty-edge edge" style="fill:none;stroke:rgb(112, 112, 112);stroke-linejoin:round;"><g><path d="M 454.21875 325.3333333333333 L 462.21875 325.33333333333337 C 463.21875 325.33333333333337 464.21875 324.33333333333337 464.21875 323.33333333333337 L 464.21875 213 C 464.21875 212 463.21875 211 462.21875 211 L 154.6875 211 C 153.6875 211 152.6875 212 152.6875 213 L 152.6875 229 C 152.6875 230 153.6875 231 154.6875 231 L 162.6875 231 "/><path d="M 454.21875 325.3333333333333 L 462.21875 325.33333333333337 C 463.21875 325.33333333333337 464.21875 324.33333333333337 464.21875 323.33333333333337 L 464.21875 213 C 464.21875 212 463.21875 211 462.21875 211 L 154.6875 211 C 153.6875 211 152.6875 212 152.6875 213 L 152.6875 229 C 152.6875 230 153.6875 231 154.6875 231 L 162.6875 231 " class="clickable"/></g></g><g id="sprotty_ArchitectureBlockImpl$sha2_pad/AssignmentBlockImpl$fifo_partial/GPortImpl$fifo_partialOUT_to_ArchitectureBlockImpl$sha2_pad/AlwaysBlockImpl$null17/GPortImpl$fifo_partialIN" class="sprotty-edge edge" style="fill:none;stroke:rgb(112, 112, 112);stroke-linejoin:round;"><g><path d="M 285.8828125 295 L 338.46875 295 C 339.46875 295 340.46875 296 340.46875 297 L 340.46875 355 C 340.46875 356 341.46875 357 342.46875 357 L 390.46875 357 "/><path d="M 285.8828125 295 L 338.46875 295 C 339.46875 295 340.46875 296 340.46875 297 L 340.46875 355 C 340.46875 356 341.46875 357 342.46875 357 L 390.46875 357 " class="clickable"/></g></g><g id="sprotty_ArchitectureBlockImpl$sha2_pad/AssignmentBlockImpl$txcnt_eq_1a0/GPortImpl$tx_countOUT_to_ArchitectureBlockImpl$sha2_pad/AlwaysBlockImpl$null17/GPortImpl$txcnt_eq_1a0IN" class="sprotty-edge thick edge" style="fill:none;stroke:rgb(112, 112, 112);stroke-linejoin:round;stroke-width:3px;"><g><path d="M 285.8828125 246 L 348.46875 246 C 349.46875 246 350.46875 247 350.46875 248 L 350.46875 345 C 350.46875 346 351.46875 347 352.46875 347 L 390.46875 347 "/><path d="M 285.8828125 246 L 348.46875 246 C 349.46875 246 350.46875 247 350.46875 248 L 350.46875 345 C 350.46875 346 351.46875 347 352.46875 347 L 390.46875 347 " class="clickable"/></g></g><g id="sprotty_ArchitectureBlockImpl$sha2_pad/AlwaysBlockImpl$null20/GPortImpl$hash_process_flagOUT_to_ArchitectureBlockImpl$sha2_pad/AssignmentBlockImpl$msg_feed_complete/GPortImpl$hash_process_flagIN" class="sprotty-edge edge" style="fill:none;stroke:rgb(112, 112, 112);stroke-linejoin:round;"><g><path d="M 300.46875 170 L 368.46875 170 C 369.46875 170 370.46875 169 370.46875 168 L 370.46875 38 C 370.46875 37 371.46875 36 372.46875 36 L 565.96875 36 C 566.96875 36 567.96875 37 567.96875 38 L 567.96875 56 C 567.96875 57 568.96875 58 569.96875 58 L 577.96875 58 "/><path d="M 300.46875 170 L 368.46875 170 C 369.46875 170 370.46875 169 370.46875 168 L 370.46875 38 C 370.46875 37 371.46875 36 372.46875 36 L 565.96875 36 C 566.96875 36 567.96875 37 567.96875 38 L 567.96875 56 C 567.96875 57 568.96875 58 569.96875 58 L 577.96875 58 " class="clickable"/></g><circle r="2" id="sprotty_ArchitectureBlockImpl$sha2_pad/AlwaysBlockImpl$null20/GPortImpl$hash_process_flagOUT_to_ArchitectureBlockImpl$sha2_pad/AssignmentBlockImpl$msg_feed_complete/GPortImpl$hash_process_flagIN/junction0" transform="translate(370.46875, 170)" class="sprotty-junction junction" style="fill:rgb(112, 112, 112);stroke:none;"/></g><g id="sprotty_ArchitectureBlockImpl$sha2_pad/AlwaysBlockImpl$null20/GPortImpl$hash_process_flagOUT_to_ArchitectureBlockImpl$sha2_pad/AlwaysBlockImpl$null17/GPortImpl$hash_process_flagIN" class="sprotty-edge edge" style="fill:none;stroke:rgb(112, 112, 112);stroke-linejoin:round;"><g><path d="M 300.46875 170 L 368.46875 170 C 369.46875 170 370.46875 171 370.46875 172 L 370.46875 325 C 370.46875 326 371.46875 327 372.46875 327 L 390.46875 327 "/><path d="M 300.46875 170 L 368.46875 170 C 369.46875 170 370.46875 171 370.46875 172 L 370.46875 325 C 370.46875 326 371.46875 327 372.46875 327 L 390.46875 327 " class="clickable"/></g></g><g id="sprotty_ArchitectureBlockImpl$sha2_pad/AlwaysBlockImpl$null17/GPortImpl$sel_dataOUT_to_ArchitectureBlockImpl$sha2_pad/AlwaysBlockImpl$null19/GPortImpl$sel_dataIN" class="sprotty-edge thick edge" style="fill:none;stroke:rgb(112, 112, 112);stroke-linejoin:round;stroke-width:3px;"><g><path d="M 454.21875 398.6666666666667 L 462.21875 398.6666666666667 C 463.21875 398.6666666666667 464.21875 399.6666666666667 464.21875 400.6666666666667 L 464.21875 419 C 464.21875 420 465.21875 421 466.21875 421 L 494.21875 421 "/><path d="M 454.21875 398.6666666666667 L 462.21875 398.6666666666667 C 463.21875 398.6666666666667 464.21875 399.6666666666667 464.21875 400.6666666666667 L 464.21875 419 C 464.21875 420 465.21875 421 466.21875 421 L 494.21875 421 " class="clickable"/></g></g><g id="sprotty_ArchitectureBlockImpl$sha2_pad/AlwaysBlockImpl$null18/GPortImpl$st_qOUT_to_ArchitectureBlockImpl$sha2_pad/AssignmentBlockImpl$msg_feed_complete/GPortImpl$st_qIN" class="sprotty-edge thick edge" style="fill:none;stroke:rgb(112, 112, 112);stroke-linejoin:round;stroke-width:3px;"><g><path d="M 546.08125 68 L 577.96875 68 "/><path d="M 546.08125 68 L 577.96875 68 " class="clickable"/></g></g><g id="sprotty_ArchitectureBlockImpl$sha2_pad/AlwaysBlockImpl$null18/GPortImpl$st_qOUT_to_ArchitectureBlockImpl$sha2_pad/AlwaysBlockImpl$null17/GPortImpl$st_qIN" class="sprotty-edge thick edge" style="fill:none;stroke:rgb(112, 112, 112);stroke-linejoin:round;stroke-width:3px;"><g><path d="M 546.08125 68 L 565.96875 68 C 566.96875 68 567.96875 69 567.96875 70 L 567.96875 202 C 567.96875 203 566.96875 204 565.96875 204 L 382.46875 204 C 381.46875 204 380.46875 205 380.46875 206 L 380.46875 315 C 380.46875 316 381.46875 317 382.46875 317 L 390.46875 317 "/><path d="M 546.08125 68 L 565.96875 68 C 566.96875 68 567.96875 69 567.96875 70 L 567.96875 202 C 567.96875 203 566.96875 204 565.96875 204 L 382.46875 204 C 381.46875 204 380.46875 205 380.46875 206 L 380.46875 315 C 380.46875 316 381.46875 317 382.46875 317 L 390.46875 317 " class="clickable"/></g><circle r="3" id="sprotty_ArchitectureBlockImpl$sha2_pad/AlwaysBlockImpl$null18/GPortImpl$st_qOUT_to_ArchitectureBlockImpl$sha2_pad/AlwaysBlockImpl$null17/GPortImpl$st_qIN/junction0" transform="translate(567.96875, 68)" class="sprotty-junction thick" style="fill:rgb(112, 112, 112);stroke:none;"/></g><g id="sprotty_ArchitectureBlockImpl$sha2_pad/AlwaysBlockImpl$null17/GPortImpl$st_dOUT_to_ArchitectureBlockImpl$sha2_pad/AlwaysBlockImpl$null18/GPortImpl$st_dIN" class="sprotty-edge thick edge" style="fill:none;stroke:rgb(112, 112, 112);stroke-linejoin:round;stroke-width:3px;"><g><path d="M 454.21875 343.6666666666667 L 472.21875 343.6666666666667 C 473.21875 343.6666666666667 474.21875 342.6666666666667 474.21875 341.6666666666667 L 474.21875 80 C 474.21875 79 475.21875 78 476.21875 78 L 497.190625 78 "/><path d="M 454.21875 343.6666666666667 L 472.21875 343.6666666666667 C 473.21875 343.6666666666667 474.21875 342.6666666666667 474.21875 341.6666666666667 L 474.21875 80 C 474.21875 79 475.21875 78 476.21875 78 L 497.190625 78 " class="clickable"/></g></g><g id="sprotty_ArchitectureBlockImpl$sha2_pad/AlwaysBlockImpl$null16" transform="translate(162.6875, 221)" class="statement"><rect x="0" y="0" rx="10" ry="5" width="48.890625" height="50" class="sprotty-node" style="fill:rgb(245, 245, 245);stroke:rgb(112, 112, 112);"/><text class="clickable sprotty-label statementtype" id="sprotty_ArchitectureBlockImpl$sha2_pad/AlwaysBlockImpl$null16/labeltype" transform="translate(5, 19) translate(18.828125, 9)" style="cursor:default;font-size:8px;font-weight:700;perspective-origin:0.609375px 0px;fill:rgb(112, 112, 112);text-anchor:middle;">always_ff</text><g id="sprotty_ArchitectureBlockImpl$sha2_pad/AlwaysBlockImpl$null16/GPortImpl$inc_txcountIN" transform="translate(0, 10)" class="sprotty-hidden hidden" style="display:block;height:0px;width:0px;"/><g id="sprotty_ArchitectureBlockImpl$sha2_pad/AlwaysBlockImpl$null16/GPortImpl$hash_startIN" transform="translate(0, 40)" class="sprotty-hidden hidden" style="display:block;height:0px;width:0px;"/><g id="sprotty_ArchitectureBlockImpl$sha2_pad/AlwaysBlockImpl$null16/GPortImpl$rst_niIN" transform="translate(0, 20)" class="sprotty-hidden hidden" style="display:block;height:0px;width:0px;"/><g id="sprotty_ArchitectureBlockImpl$sha2_pad/AlwaysBlockImpl$null16/GPortImpl$clk_iIN" transform="translate(0, 30)" class="sprotty-hidden hidden" style="display:block;height:0px;width:0px;"/><g id="sprotty_ArchitectureBlockImpl$sha2_pad/AlwaysBlockImpl$null16/GPortImpl$tx_countOUT" transform="translate(48.890625, 25)" class="sprotty-hidden hidden" style="display:block;height:0px;width:0px;"/></g><g id="sprotty_ArchitectureBlockImpl$sha2_pad/AlwaysBlockImpl$null17" transform="translate(390.46875, 307)" class="statement"><rect x="0" y="0" rx="10" ry="5" width="63.75" height="110" class="sprotty-node" style="fill:rgb(245, 245, 245);stroke:rgb(112, 112, 112);"/><text class="clickable sprotty-label statementtype" id="sprotty_ArchitectureBlockImpl$sha2_pad/AlwaysBlockImpl$null17/labeltype" transform="translate(5, 49) translate(26.875, 9)" style="cursor:default;font-size:8px;font-weight:700;perspective-origin:0px 0px;fill:rgb(112, 112, 112);text-anchor:middle;">always_comb</text><g id="sprotty_ArchitectureBlockImpl$sha2_pad/AlwaysBlockImpl$null17/GPortImpl$txcnt_eq_1a0IN" transform="translate(0, 40)" class="sprotty-hidden hidden" style="display:block;height:0px;width:0px;"/><g id="sprotty_ArchitectureBlockImpl$sha2_pad/AlwaysBlockImpl$null17/GPortImpl$message_lengthIN" transform="translate(0, 100)" class="sprotty-hidden hidden" style="display:block;height:0px;width:0px;"/><g id="sprotty_ArchitectureBlockImpl$sha2_pad/AlwaysBlockImpl$null17/GPortImpl$tx_countIN" transform="translate(0, 30)" class="sprotty-hidden hidden" style="display:block;height:0px;width:0px;"/><g id="sprotty_ArchitectureBlockImpl$sha2_pad/AlwaysBlockImpl$null17/GPortImpl$shaf_rreadyIN" transform="translate(0, 80)" class="sprotty-hidden hidden" style="display:block;height:0px;width:0px;"/><g id="sprotty_ArchitectureBlockImpl$sha2_pad/AlwaysBlockImpl$null17/GPortImpl$hash_process_flagIN" transform="translate(0, 20)" class="sprotty-hidden hidden" style="display:block;height:0px;width:0px;"/><g id="sprotty_ArchitectureBlockImpl$sha2_pad/AlwaysBlockImpl$null17/GPortImpl$fifo_rvalidIN" transform="translate(0, 90)" class="sprotty-hidden hidden" style="display:block;height:0px;width:0px;"/><g id="sprotty_ArchitectureBlockImpl$sha2_pad/AlwaysBlockImpl$null17/GPortImpl$fifo_partialIN" transform="translate(0, 50)" class="sprotty-hidden hidden" style="display:block;height:0px;width:0px;"/><g id="sprotty_ArchitectureBlockImpl$sha2_pad/AlwaysBlockImpl$null17/GPortImpl$hash_startIN" transform="translate(0, 60)" class="sprotty-hidden hidden" style="display:block;height:0px;width:0px;"/><g id="sprotty_ArchitectureBlockImpl$sha2_pad/AlwaysBlockImpl$null17/GPortImpl$sha_enIN" transform="translate(0, 70)" class="sprotty-hidden hidden" style="display:block;height:0px;width:0px;"/><g id="sprotty_ArchitectureBlockImpl$sha2_pad/AlwaysBlockImpl$null17/GPortImpl$st_qIN" transform="translate(0, 10)" class="sprotty-hidden hidden" style="display:block;height:0px;width:0px;"/><g id="sprotty_ArchitectureBlockImpl$sha2_pad/AlwaysBlockImpl$null17/GPortImpl$shaf_rvalidOUT" transform="translate(63.75, 55.00000000000001)" class="sprotty-hidden hidden" style="display:block;height:0px;width:0px;"/><g id="sprotty_ArchitectureBlockImpl$sha2_pad/AlwaysBlockImpl$null17/GPortImpl$inc_txcountOUT" transform="translate(63.75, 18.333333333333336)" class="sprotty-hidden hidden" style="display:block;height:0px;width:0px;"/><g id="sprotty_ArchitectureBlockImpl$sha2_pad/AlwaysBlockImpl$null17/GPortImpl$sel_dataOUT" transform="translate(63.75, 91.66666666666669)" class="sprotty-hidden hidden" style="display:block;height:0px;width:0px;"/><g id="sprotty_ArchitectureBlockImpl$sha2_pad/AlwaysBlockImpl$null17/GPortImpl$fifo_rreadyOUT" transform="translate(63.75, 73.33333333333334)" class="sprotty-hidden hidden" style="display:block;height:0px;width:0px;"/><g id="sprotty_ArchitectureBlockImpl$sha2_pad/AlwaysBlockImpl$null17/GPortImpl$st_dOUT" transform="translate(63.75, 36.66666666666667)" class="sprotty-hidden hidden" style="display:block;height:0px;width:0px;"/></g><g id="sprotty_ArchitectureBlockImpl$sha2_pad/AlwaysBlockImpl$null18" transform="translate(497.190625, 48)" class="statement"><rect x="0" y="0" rx="10" ry="5" width="48.890625" height="40" class="sprotty-node" style="fill:rgb(245, 245, 245);stroke:rgb(112, 112, 112);"/><text class="clickable sprotty-label statementtype" id="sprotty_ArchitectureBlockImpl$sha2_pad/AlwaysBlockImpl$null18/labeltype" transform="translate(5, 14) translate(18.828125, 9)" style="cursor:default;font-size:8px;font-weight:700;perspective-origin:0.609375px 0px;fill:rgb(112, 112, 112);text-anchor:middle;">always_ff</text><g id="sprotty_ArchitectureBlockImpl$sha2_pad/AlwaysBlockImpl$null18/GPortImpl$st_dIN" transform="translate(0, 30)" class="sprotty-hidden hidden" style="display:block;height:0px;width:0px;"/><g id="sprotty_ArchitectureBlockImpl$sha2_pad/AlwaysBlockImpl$null18/GPortImpl$rst_niIN" transform="translate(0, 10)" class="sprotty-hidden hidden" style="display:block;height:0px;width:0px;"/><g id="sprotty_ArchitectureBlockImpl$sha2_pad/AlwaysBlockImpl$null18/GPortImpl$clk_iIN" transform="translate(0, 20)" class="sprotty-hidden hidden" style="display:block;height:0px;width:0px;"/><g id="sprotty_ArchitectureBlockImpl$sha2_pad/AlwaysBlockImpl$null18/GPortImpl$st_qOUT" transform="translate(48.890625, 20)" class="sprotty-hidden hidden" style="display:block;height:0px;width:0px;"/></g><g id="sprotty_ArchitectureBlockImpl$sha2_pad/AlwaysBlockImpl$null19" transform="translate(494.21875, 411)" class="statement"><rect x="0" y="0" rx="10" ry="5" width="63.75" height="30" class="sprotty-node" style="fill:rgb(245, 245, 245);stroke:rgb(112, 112, 112);"/><text class="clickable sprotty-label statementtype" id="sprotty_ArchitectureBlockImpl$sha2_pad/AlwaysBlockImpl$null19/labeltype" transform="translate(5, 9) translate(26.875, 9)" style="cursor:default;font-size:8px;font-weight:700;perspective-origin:0px 0px;fill:rgb(112, 112, 112);text-anchor:middle;">always_comb</text><g id="sprotty_ArchitectureBlockImpl$sha2_pad/AlwaysBlockImpl$null19/GPortImpl$message_lengthIN" transform="translate(0, 20)" class="sprotty-hidden hidden" style="display:block;height:0px;width:0px;"/><g id="sprotty_ArchitectureBlockImpl$sha2_pad/AlwaysBlockImpl$null19/GPortImpl$sel_dataIN" transform="translate(0, 10)" class="sprotty-hidden hidden" style="display:block;height:0px;width:0px;"/><g id="sprotty_ArchitectureBlockImpl$sha2_pad/AlwaysBlockImpl$null19/GPortImpl$shaf_rdataOUT" transform="translate(63.75, 15)" class="sprotty-hidden hidden" style="display:block;height:0px;width:0px;"/></g><g id="sprotty_ArchitectureBlockImpl$sha2_pad/AlwaysBlockImpl$null20" transform="translate(251.578125, 140)" class="statement"><rect x="0" y="0" rx="10" ry="5" width="48.890625" height="60" class="sprotty-node" style="fill:rgb(245, 245, 245);stroke:rgb(112, 112, 112);"/><text class="clickable sprotty-label statementtype" id="sprotty_ArchitectureBlockImpl$sha2_pad/AlwaysBlockImpl$null20/labeltype" transform="translate(5, 24) translate(18.828125, 9)" style="cursor:default;font-size:8px;font-weight:700;perspective-origin:0.609375px 0px;fill:rgb(112, 112, 112);text-anchor:middle;">always_ff</text><g id="sprotty_ArchitectureBlockImpl$sha2_pad/AlwaysBlockImpl$null20/GPortImpl$hash_startIN" transform="translate(0, 50)" class="sprotty-hidden hidden" style="display:block;height:0px;width:0px;"/><g id="sprotty_ArchitectureBlockImpl$sha2_pad/AlwaysBlockImpl$null20/GPortImpl$hash_doneIN" transform="translate(0, 20)" class="sprotty-hidden hidden" style="display:block;height:0px;width:0px;"/><g id="sprotty_ArchitectureBlockImpl$sha2_pad/AlwaysBlockImpl$null20/GPortImpl$hash_processIN" transform="translate(0, 40)" class="sprotty-hidden hidden" style="display:block;height:0px;width:0px;"/><g id="sprotty_ArchitectureBlockImpl$sha2_pad/AlwaysBlockImpl$null20/GPortImpl$rst_niIN" transform="translate(0, 10)" class="sprotty-hidden hidden" style="display:block;height:0px;width:0px;"/><g id="sprotty_ArchitectureBlockImpl$sha2_pad/AlwaysBlockImpl$null20/GPortImpl$clk_iIN" transform="translate(0, 30)" class="sprotty-hidden hidden" style="display:block;height:0px;width:0px;"/><g id="sprotty_ArchitectureBlockImpl$sha2_pad/AlwaysBlockImpl$null20/GPortImpl$hash_process_flagOUT" transform="translate(48.890625, 30)" class="sprotty-hidden hidden" style="display:block;height:0px;width:0px;"/></g><g id="sprotty_ArchitectureBlockImpl$sha2_pad/AssignmentBlockImpl$msg_feed_complete" transform="translate(577.96875, 48)" class="statement"><rect x="0" y="0" rx="10" ry="5" width="19.71875" height="30" class="sprotty-node" style="fill:rgb(245, 245, 245);stroke:rgb(112, 112, 112);"/><text class="clickable sprotty-label statementtype" id="sprotty_ArchitectureBlockImpl$sha2_pad/AssignmentBlockImpl$msg_feed_complete/labeltype" transform="translate(5, 9) translate(4.71875, 9)" style="cursor:default;font-size:8px;font-weight:700;perspective-origin:0.140625px 0px;fill:rgb(112, 112, 112);text-anchor:middle;">&lt;=</text><g id="sprotty_ArchitectureBlockImpl$sha2_pad/AssignmentBlockImpl$msg_feed_complete/GPortImpl$st_qIN" transform="translate(0, 20)" class="sprotty-hidden hidden" style="display:block;height:0px;width:0px;"/><g id="sprotty_ArchitectureBlockImpl$sha2_pad/AssignmentBlockImpl$msg_feed_complete/GPortImpl$hash_process_flagIN" transform="translate(0, 10)" class="sprotty-hidden hidden" style="display:block;height:0px;width:0px;"/><g id="sprotty_ArchitectureBlockImpl$sha2_pad/AssignmentBlockImpl$msg_feed_complete/GPortImpl$msg_feed_completeOUT" transform="translate(19.71875, 15)" class="sprotty-hidden hidden" style="display:block;height:0px;width:0px;"/></g><g id="sprotty_ArchitectureBlockImpl$sha2_pad/AssignmentBlockImpl$txcnt_eq_1a0" transform="translate(266.1640625, 235)" class="statement"><rect x="0" y="0" rx="10" ry="5" width="19.71875" height="22" class="sprotty-node" style="fill:rgb(245, 245, 245);stroke:rgb(112, 112, 112);"/><text class="clickable sprotty-label statementtype" id="sprotty_ArchitectureBlockImpl$sha2_pad/AssignmentBlockImpl$txcnt_eq_1a0/labeltype" transform="translate(5, 5) translate(4.71875, 9)" style="cursor:default;font-size:8px;font-weight:700;perspective-origin:0.140625px 0px;fill:rgb(112, 112, 112);text-anchor:middle;">&lt;=</text><g id="sprotty_ArchitectureBlockImpl$sha2_pad/AssignmentBlockImpl$txcnt_eq_1a0/GPortImpl$tx_countIN" transform="translate(0, 11)" class="sprotty-hidden hidden" style="display:block;height:0px;width:0px;"/><g id="sprotty_ArchitectureBlockImpl$sha2_pad/AssignmentBlockImpl$txcnt_eq_1a0/GPortImpl$tx_countOUT" transform="translate(19.71875, 11)" class="sprotty-hidden hidden" style="display:block;height:0px;width:0px;"/></g><g id="sprotty_ArchitectureBlockImpl$sha2_pad/AssignmentBlockImpl$fifo_partial" transform="translate(266.1640625, 284)" class="statement"><rect x="0" y="0" rx="10" ry="5" width="19.71875" height="22" class="sprotty-node" style="fill:rgb(245, 245, 245);stroke:rgb(112, 112, 112);"/><text class="clickable sprotty-label statementtype" id="sprotty_ArchitectureBlockImpl$sha2_pad/AssignmentBlockImpl$fifo_partial/labeltype" transform="translate(5, 5) translate(4.71875, 9)" style="cursor:default;font-size:8px;font-weight:700;perspective-origin:0.140625px 0px;fill:rgb(112, 112, 112);text-anchor:middle;">&lt;=</text><g id="sprotty_ArchitectureBlockImpl$sha2_pad/AssignmentBlockImpl$fifo_partial/GPortImpl$fifo_rdataIN" transform="translate(0, 11)" class="sprotty-hidden hidden" style="display:block;height:0px;width:0px;"/><g id="sprotty_ArchitectureBlockImpl$sha2_pad/AssignmentBlockImpl$fifo_partial/GPortImpl$fifo_partialOUT" transform="translate(19.71875, 11)" class="sprotty-hidden hidden" style="display:block;height:0px;width:0px;"/></g><g id="sprotty_ArchitectureBlockImpl$sha2_pad/BPortImpl$message_length" transform="translate(0, 431)" class="triangle"><path d="M 0,0 L 5,2.5 L 0,5 Z" transform="translate(-1.67, -2.5)" class="sprotty-port" style="fill:rgb(48, 48, 48);stroke:rgb(48, 48, 48);"/><text class="clickable sprotty-label port" id="sprotty_ArchitectureBlockImpl$sha2_pad/BPortImpl$message_length/label" transform="translate(6, 6) translate(45.84375, 14)" style="cursor:default;font-size:12px;perspective-origin:0px 0px;fill:rgb(48, 48, 48);text-anchor:middle;">message_length</text></g><g id="sprotty_ArchitectureBlockImpl$sha2_pad/BPortImpl$hash_done" transform="translate(0, 112)" class="triangle"><path d="M 0,0 L 5,2.5 L 0,5 Z" transform="translate(-1.67, -2.5)" class="sprotty-port" style="fill:rgb(48, 48, 48);stroke:rgb(48, 48, 48);"/><text class="clickable sprotty-label port" id="sprotty_ArchitectureBlockImpl$sha2_pad/BPortImpl$hash_done/label" transform="translate(6, 6) translate(31.1875, 14)" style="cursor:default;font-size:12px;perspective-origin:0.171875px 0px;fill:rgb(48, 48, 48);text-anchor:middle;">hash_done</text></g><g id="sprotty_ArchitectureBlockImpl$sha2_pad/BPortImpl$hash_process" transform="translate(0, 180)" class="triangle"><path d="M 0,0 L 5,2.5 L 0,5 Z" transform="translate(-1.67, -2.5)" class="sprotty-port" style="fill:rgb(48, 48, 48);stroke:rgb(48, 48, 48);"/><text class="clickable sprotty-label port" id="sprotty_ArchitectureBlockImpl$sha2_pad/BPortImpl$hash_process/label" transform="translate(6, 6) translate(38.3125, 14)" style="cursor:default;font-size:12px;perspective-origin:0.1875px 0px;fill:rgb(48, 48, 48);text-anchor:middle;">hash_process</text></g><g id="sprotty_ArchitectureBlockImpl$sha2_pad/BPortImpl$hash_start" transform="translate(0, 261)" class="triangle"><path d="M 0,0 L 5,2.5 L 0,5 Z" transform="translate(-1.67, -2.5)" class="sprotty-port" style="fill:rgb(48, 48, 48);stroke:rgb(48, 48, 48);"/><text class="clickable sprotty-label port" id="sprotty_ArchitectureBlockImpl$sha2_pad/BPortImpl$hash_start/label" transform="translate(6, 6) translate(29.609375, 14)" style="cursor:default;font-size:12px;perspective-origin:0.234375px 0px;fill:rgb(48, 48, 48);text-anchor:middle;">hash_start</text></g><g id="sprotty_ArchitectureBlockImpl$sha2_pad/BPortImpl$sha_en" transform="translate(0, 329)" class="triangle"><path d="M 0,0 L 5,2.5 L 0,5 Z" transform="translate(-1.67, -2.5)" class="sprotty-port" style="fill:rgb(48, 48, 48);stroke:rgb(48, 48, 48);"/><text class="clickable sprotty-label port" id="sprotty_ArchitectureBlockImpl$sha2_pad/BPortImpl$sha_en/label" transform="translate(6, 6) translate(20.1875, 14)" style="cursor:default;font-size:12px;perspective-origin:0px 0px;fill:rgb(48, 48, 48);text-anchor:middle;">sha_en</text></g><g id="sprotty_ArchitectureBlockImpl$sha2_pad/BPortImpl$shaf_rready" transform="translate(0, 363)" class="triangle"><path d="M 0,0 L 5,2.5 L 0,5 Z" transform="translate(-1.67, -2.5)" class="sprotty-port" style="fill:rgb(48, 48, 48);stroke:rgb(48, 48, 48);"/><text class="clickable sprotty-label port" id="sprotty_ArchitectureBlockImpl$sha2_pad/BPortImpl$shaf_rready/label" transform="translate(6, 6) translate(33.1875, 14)" style="cursor:default;font-size:12px;perspective-origin:0.375px 0px;fill:rgb(48, 48, 48);text-anchor:middle;">shaf_rready</text></g><g id="sprotty_ArchitectureBlockImpl$sha2_pad/BPortImpl$fifo_rdata" transform="translate(0, 295)" class="triangle"><path d="M 0,0 L 5,2.5 L 0,5 Z" transform="translate(-1.67, -2.5)" class="sprotty-port" style="fill:rgb(48, 48, 48);stroke:rgb(48, 48, 48);"/><text class="clickable sprotty-label port" id="sprotty_ArchitectureBlockImpl$sha2_pad/BPortImpl$fifo_rdata/label" transform="translate(6, 6) translate(27.375, 14)" style="cursor:default;font-size:12px;perspective-origin:0px 0px;fill:rgb(48, 48, 48);text-anchor:middle;">fifo_rdata</text></g><g id="sprotty_ArchitectureBlockImpl$sha2_pad/BPortImpl$fifo_rvalid" transform="translate(0, 397)" class="triangle"><path d="M 0,0 L 5,2.5 L 0,5 Z" transform="translate(-1.67, -2.5)" class="sprotty-port" style="fill:rgb(48, 48, 48);stroke:rgb(48, 48, 48);"/><text class="clickable sprotty-label port" id="sprotty_ArchitectureBlockImpl$sha2_pad/BPortImpl$fifo_rvalid/label" transform="translate(6, 6) translate(28.5625, 14)" style="cursor:default;font-size:12px;perspective-origin:0px 0px;fill:rgb(48, 48, 48);text-anchor:middle;">fifo_rvalid</text></g><g id="sprotty_ArchitectureBlockImpl$sha2_pad/BPortImpl$wipe_v" transform="translate(0, 475)" class="triangle"><path d="M 0,0 L 5,2.5 L 0,5 Z" transform="translate(-1.67, -2.5)" class="sprotty-port" style="fill:rgb(48, 48, 48);stroke:rgb(48, 48, 48);"/><text class="clickable sprotty-label port" id="sprotty_ArchitectureBlockImpl$sha2_pad/BPortImpl$wipe_v/label" transform="translate(6, 6) translate(20, 14)" style="cursor:default;font-size:12px;perspective-origin:0.359375px 0px;fill:rgb(48, 48, 48);text-anchor:middle;">wipe_v</text></g><g id="sprotty_ArchitectureBlockImpl$sha2_pad/BPortImpl$wipe_secret" transform="translate(0, 519)" class="triangle"><path d="M 0,0 L 5,2.5 L 0,5 Z" transform="translate(-1.67, -2.5)" class="sprotty-port" style="fill:rgb(48, 48, 48);stroke:rgb(48, 48, 48);"/><text class="clickable sprotty-label port" id="sprotty_ArchitectureBlockImpl$sha2_pad/BPortImpl$wipe_secret/label" transform="translate(6, 6) translate(33.84375, 14)" style="cursor:default;font-size:12px;perspective-origin:0.234375px 0px;fill:rgb(48, 48, 48);text-anchor:middle;">wipe_secret</text></g><g id="sprotty_ArchitectureBlockImpl$sha2_pad/BPortImpl$rst_ni" transform="translate(0, 78)" class="triangle"><path d="M 0,0 L 5,2.5 L 0,5 Z" transform="translate(-1.67, -2.5)" class="sprotty-port" style="fill:rgb(48, 48, 48);stroke:rgb(48, 48, 48);"/><text class="clickable sprotty-label port" id="sprotty_ArchitectureBlockImpl$sha2_pad/BPortImpl$rst_ni/label" transform="translate(6, 6) translate(15.921875, 14)" style="cursor:default;font-size:12px;perspective-origin:0px 0px;fill:rgb(48, 48, 48);text-anchor:middle;">rst_ni</text></g><g id="sprotty_ArchitectureBlockImpl$sha2_pad/BPortImpl$clk_i" transform="translate(0, 146)" class="triangle"><path d="M 0,0 L 5,2.5 L 0,5 Z" transform="translate(-1.67, -2.5)" class="sprotty-port" style="fill:rgb(48, 48, 48);stroke:rgb(48, 48, 48);"/><text class="clickable sprotty-label port" id="sprotty_ArchitectureBlockImpl$sha2_pad/BPortImpl$clk_i/label" transform="translate(6, 6) translate(13.09375, 14)" style="cursor:default;font-size:12px;perspective-origin:0px 0px;fill:rgb(48, 48, 48);text-anchor:middle;">clk_i</text></g><g id="sprotty_ArchitectureBlockImpl$sha2_pad/BPortImpl$fifo_rready" transform="translate(733.03125, 380.33333333333337)" class="triangle"><path d="M 0,0 L 5,2.5 L 0,5 Z" transform="translate(-1.67, -2.5)" class="sprotty-port" style="fill:rgb(48, 48, 48);stroke:rgb(48, 48, 48);"/><text class="clickable sprotty-label port" id="sprotty_ArchitectureBlockImpl$sha2_pad/BPortImpl$fifo_rready/label" transform="translate(-68.046875, 6) translate(30.65625, 14)" style="cursor:default;font-size:12px;perspective-origin:0.359375px 0px;fill:rgb(48, 48, 48);text-anchor:middle;">fifo_rready</text></g><g id="sprotty_ArchitectureBlockImpl$sha2_pad/BPortImpl$shaf_rvalid" transform="translate(733.03125, 346.33333333333337)" class="triangle"><path d="M 0,0 L 5,2.5 L 0,5 Z" transform="translate(-1.67, -2.5)" class="sprotty-port" style="fill:rgb(48, 48, 48);stroke:rgb(48, 48, 48);"/><text class="clickable sprotty-label port" id="sprotty_ArchitectureBlockImpl$sha2_pad/BPortImpl$shaf_rvalid/label" transform="translate(-68.21875, 6) translate(31.109375, 14)" style="cursor:default;font-size:12px;perspective-origin:0px 0px;fill:rgb(48, 48, 48);text-anchor:middle;">shaf_rvalid</text></g><g id="sprotty_ArchitectureBlockImpl$sha2_pad/BPortImpl$shaf_rdata" transform="translate(733.03125, 426)" class="triangle"><path d="M 0,0 L 5,2.5 L 0,5 Z" transform="translate(-1.67, -2.5)" class="sprotty-port" style="fill:rgb(48, 48, 48);stroke:rgb(48, 48, 48);"/><text class="clickable sprotty-label port" id="sprotty_ArchitectureBlockImpl$sha2_pad/BPortImpl$shaf_rdata/label" transform="translate(-65.84375, 6) translate(29.921875, 14)" style="cursor:default;font-size:12px;perspective-origin:0px 0px;fill:rgb(48, 48, 48);text-anchor:middle;">shaf_rdata</text></g><g id="sprotty_ArchitectureBlockImpl$sha2_pad/BPortImpl$msg_feed_complete" transform="translate(733.03125, 63)" class="triangle"><path d="M 0,0 L 5,2.5 L 0,5 Z" transform="translate(-1.67, -2.5)" class="sprotty-port" style="fill:rgb(48, 48, 48);stroke:rgb(48, 48, 48);"/><text class="clickable sprotty-label port" id="sprotty_ArchitectureBlockImpl$sha2_pad/BPortImpl$msg_feed_complete/label" transform="translate(-120.34375, 6) translate(57, 14)" style="cursor:default;font-size:12px;perspective-origin:0.171875px 0px;fill:rgb(48, 48, 48);text-anchor:middle;">msg_feed_complete</text></g></g></g></svg>