<svg xmlns="http://www.w3.org/2000/svg" id="sprotty_work.spi_p2s" class="sprotty-graph sprotty-block-diagram blockdiagram" style="font-family:&quot;Noto Sans&quot;, Helvetica, Arial, sans-serif;perspective-origin:0px 0px;transform-origin:0px 0px;" version="1.1" viewBox="7 7 531.78125 483" width="531.78125" height="483"><g transform="scale(1) translate(0,0)"><g id="sprotty_ArchitectureBlockImpl$spi_p2s" transform="translate(12, 12)" class="architecture"><g class="sprotty-block" style="fill:rgb(255, 255, 255);stroke:rgb(48, 48, 48);stroke-dasharray:0px;"><rect x="0" y="0" rx="1" ry="1" width="521.78125" height="473"/><text x="260.890625" y="12" class="sprotty-block-name" style="cursor:pointer;font-weight:700;perspective-origin:260.922px 0px;fill:rgb(48, 48, 48);stroke:rgba(0, 0, 0, 0);dominant-baseline:middle;text-anchor:middle;">spi_p2s</text><line x1="0" y1="20" x2="521.78125" y2="20"/></g><g id="sprotty_ArchitectureBlockImpl$spi_p2s/AlwaysBlockImpl$null17/GPortImpl$data_sent_oOUT_to_ArchitectureBlockImpl$spi_p2s/BPortImpl$data_sent_o" class="sprotty-edge edge" style="fill:none;stroke:rgb(112, 112, 112);stroke-linejoin:round;"><g><path d="M 361.21875 167 L 521.78125 167 "/><path d="M 361.21875 167 L 521.78125 167 " class="clickable"/></g></g><g id="sprotty_ArchitectureBlockImpl$spi_p2s/AssignmentBlockImpl$s_en_o/GPortImpl$s_en_oOUT_to_ArchitectureBlockImpl$spi_p2s/BPortImpl$s_en_o" class="sprotty-edge thick edge" style="fill:none;stroke:rgb(112, 112, 112);stroke-linejoin:round;stroke-width:3px;"><g><path d="M 410.9375 385 L 521.78125 385 "/><path d="M 410.9375 385 L 521.78125 385 " class="clickable"/></g></g><g id="sprotty_ArchitectureBlockImpl$spi_p2s/AlwaysBlockImpl$null15/GPortImpl$s_oOUT_to_ArchitectureBlockImpl$spi_p2s/BPortImpl$s_o" class="sprotty-edge thick edge" style="fill:none;stroke:rgb(112, 112, 112);stroke-linejoin:round;stroke-width:3px;"><g><path d="M 361.21875 70 L 521.78125 70 "/><path d="M 361.21875 70 L 521.78125 70 " class="clickable"/></g></g><g id="sprotty_ArchitectureBlockImpl$spi_p2s/BPortImpl$csb_i_to_ArchitectureBlockImpl$spi_p2s/AssignmentBlockImpl$s_en_o/GPortImpl$csb_iIN" class="sprotty-edge edge" style="fill:none;stroke:rgb(112, 112, 112);stroke-linejoin:round;"><g><path d="M 0 390 L 391.21875 390 "/><path d="M 0 390 L 391.21875 390 " class="clickable"/></g></g><g id="sprotty_ArchitectureBlockImpl$spi_p2s/BPortImpl$data_i_to_ArchitectureBlockImpl$spi_p2s/AssignmentBlockImpl$out_shift_d/GPortImpl$data_iIN" class="sprotty-edge thick edge" style="fill:none;stroke:rgb(112, 112, 112);stroke-linejoin:round;stroke-width:3px;"><g><path d="M 0 322 L 391.21875 322 "/><path d="M 0 322 L 391.21875 322 " class="clickable"/></g></g><g id="sprotty_ArchitectureBlockImpl$spi_p2s/BPortImpl$data_valid_i_to_ArchitectureBlockImpl$spi_p2s/AlwaysBlockImpl$null18/GPortImpl$data_valid_iIN" class="sprotty-edge edge" style="fill:none;stroke:rgb(112, 112, 112);stroke-linejoin:round;"><g><path d="M 0 356 L 297.46875 356 "/><path d="M 0 356 L 297.46875 356 " class="clickable"/></g></g><g id="sprotty_ArchitectureBlockImpl$spi_p2s/BPortImpl$clk_i_to_ArchitectureBlockImpl$spi_p2s/AlwaysBlockImpl$null16/GPortImpl$clk_iIN" class="sprotty-edge edge" style="fill:none;stroke:rgb(112, 112, 112);stroke-linejoin:round;"><g><path d="M 0 148 L 97.6875 148 C 98.6875 148 99.6875 149 99.6875 150 L 99.6875 257 C 99.6875 258 100.6875 259 101.6875 259 L 304.8984375 259 "/><path d="M 0 148 L 97.6875 148 C 98.6875 148 99.6875 149 99.6875 150 L 99.6875 257 C 99.6875 258 100.6875 259 101.6875 259 L 304.8984375 259 " class="clickable"/></g><circle r="2" id="sprotty_ArchitectureBlockImpl$spi_p2s/BPortImpl$clk_i_to_ArchitectureBlockImpl$spi_p2s/AlwaysBlockImpl$null16/GPortImpl$clk_iIN/junction0" transform="translate(99.6875, 148)" class="sprotty-junction junction" style="fill:rgb(112, 112, 112);stroke:none;"/></g><g id="sprotty_ArchitectureBlockImpl$spi_p2s/BPortImpl$clk_i_to_ArchitectureBlockImpl$spi_p2s/AlwaysBlockImpl$null14/GPortImpl$clk_iIN" class="sprotty-edge edge" style="fill:none;stroke:rgb(112, 112, 112);stroke-linejoin:round;"><g><path d="M 0 148 L 97.6875 148 C 98.6875 148 99.6875 147 99.6875 146 L 99.6875 87 C 99.6875 86 100.6875 85 101.6875 85 L 208.578125 85 "/><path d="M 0 148 L 97.6875 148 C 98.6875 148 99.6875 147 99.6875 146 L 99.6875 87 C 99.6875 86 100.6875 85 101.6875 85 L 208.578125 85 " class="clickable"/></g></g><g id="sprotty_ArchitectureBlockImpl$spi_p2s/BPortImpl$rst_ni_to_ArchitectureBlockImpl$spi_p2s/AlwaysBlockImpl$null14/GPortImpl$rst_niIN" class="sprotty-edge edge" style="fill:none;stroke:rgb(112, 112, 112);stroke-linejoin:round;"><g><path d="M 0 95 L 107.6875 95 C 108.6875 95 109.6875 94 109.6875 93 L 109.6875 77 C 109.6875 76 110.6875 75 111.6875 75 L 208.578125 75 "/><path d="M 0 95 L 107.6875 95 C 108.6875 95 109.6875 94 109.6875 93 L 109.6875 77 C 109.6875 76 110.6875 75 111.6875 75 L 208.578125 75 " class="clickable"/></g><circle r="2" id="sprotty_ArchitectureBlockImpl$spi_p2s/BPortImpl$rst_ni_to_ArchitectureBlockImpl$spi_p2s/AlwaysBlockImpl$null14/GPortImpl$rst_niIN/junction0" transform="translate(109.6875, 95)" class="sprotty-junction junction" style="fill:rgb(112, 112, 112);stroke:none;"/></g><g id="sprotty_ArchitectureBlockImpl$spi_p2s/BPortImpl$io_mode_i_to_ArchitectureBlockImpl$spi_p2s/AlwaysBlockImpl$null14/GPortImpl$io_mode_iIN" class="sprotty-edge thick edge" style="fill:none;stroke:rgb(112, 112, 112);stroke-linejoin:round;stroke-width:3px;"><g><path d="M 0 61 L 176.578125 61 C 177.578125 61 178.578125 62 178.578125 63 L 178.578125 63 C 178.578125 64 179.578125 65 180.578125 65 L 208.578125 65 "/><path d="M 0 61 L 176.578125 61 C 177.578125 61 178.578125 62 178.578125 63 L 178.578125 63 C 178.578125 64 179.578125 65 180.578125 65 L 208.578125 65 " class="clickable"/></g></g><g id="sprotty_ArchitectureBlockImpl$spi_p2s/BPortImpl$clk_i_to_ArchitectureBlockImpl$spi_p2s/AlwaysBlockImpl$null13/GPortImpl$clk_iIN" class="sprotty-edge edge" style="fill:none;stroke:rgb(112, 112, 112);stroke-linejoin:round;"><g><path d="M 0 148 L 176.578125 148 C 177.578125 148 178.578125 149 178.578125 150 L 178.578125 170 C 178.578125 171 179.578125 172 180.578125 172 L 208.578125 172 "/><path d="M 0 148 L 176.578125 148 C 177.578125 148 178.578125 149 178.578125 150 L 178.578125 170 C 178.578125 171 179.578125 172 180.578125 172 L 208.578125 172 " class="clickable"/></g></g><g id="sprotty_ArchitectureBlockImpl$spi_p2s/BPortImpl$rst_ni_to_ArchitectureBlockImpl$spi_p2s/AlwaysBlockImpl$null13/GPortImpl$rst_niIN" class="sprotty-edge edge" style="fill:none;stroke:rgb(112, 112, 112);stroke-linejoin:round;"><g><path d="M 0 95 L 196.578125 95 C 197.578125 95 198.578125 96 198.578125 97 L 198.578125 150 C 198.578125 151 199.578125 152 200.578125 152 L 208.578125 152 "/><path d="M 0 95 L 196.578125 95 C 197.578125 95 198.578125 96 198.578125 97 L 198.578125 150 C 198.578125 151 199.578125 152 200.578125 152 L 208.578125 152 " class="clickable"/></g></g><g id="sprotty_ArchitectureBlockImpl$spi_p2s/BPortImpl$cpha_i_to_ArchitectureBlockImpl$spi_p2s/AlwaysBlockImpl$null13/GPortImpl$cpha_iIN" class="sprotty-edge edge" style="fill:none;stroke:rgb(112, 112, 112);stroke-linejoin:round;"><g><path d="M 0 182 L 208.578125 182 "/><path d="M 0 182 L 208.578125 182 " class="clickable"/></g></g><g id="sprotty_ArchitectureBlockImpl$spi_p2s/BPortImpl$clk_i_to_ArchitectureBlockImpl$spi_p2s/AlwaysBlockImpl$null11/GPortImpl$clk_iIN" class="sprotty-edge edge" style="fill:none;stroke:rgb(112, 112, 112);stroke-linejoin:round;"><g><path d="M 0 148 L 97.6875 148 C 98.6875 148 99.6875 147 99.6875 146 L 99.6875 129 C 99.6875 128 100.6875 127 101.6875 127 L 119.6875 127 "/><path d="M 0 148 L 97.6875 148 C 98.6875 148 99.6875 147 99.6875 146 L 99.6875 129 C 99.6875 128 100.6875 127 101.6875 127 L 119.6875 127 " class="clickable"/></g><circle r="2" id="sprotty_ArchitectureBlockImpl$spi_p2s/BPortImpl$clk_i_to_ArchitectureBlockImpl$spi_p2s/AlwaysBlockImpl$null11/GPortImpl$clk_iIN/junction0" transform="translate(99.6875, 127)" class="sprotty-junction junction" style="fill:rgb(112, 112, 112);stroke:none;"/></g><g id="sprotty_ArchitectureBlockImpl$spi_p2s/BPortImpl$rst_ni_to_ArchitectureBlockImpl$spi_p2s/AlwaysBlockImpl$null11/GPortImpl$rst_niIN" class="sprotty-edge edge" style="fill:none;stroke:rgb(112, 112, 112);stroke-linejoin:round;"><g><path d="M 0 95 L 107.6875 95 C 108.6875 95 109.6875 96 109.6875 97 L 109.6875 115 C 109.6875 116 110.6875 117 111.6875 117 L 119.6875 117 "/><path d="M 0 95 L 107.6875 95 C 108.6875 95 109.6875 96 109.6875 97 L 109.6875 115 C 109.6875 116 110.6875 117 111.6875 117 L 119.6875 117 " class="clickable"/></g></g><g id="sprotty_ArchitectureBlockImpl$spi_p2s/AlwaysBlockImpl$null11/GPortImpl$tx_stateOUT_to_ArchitectureBlockImpl$spi_p2s/AlwaysBlockImpl$null13/GPortImpl$tx_stateIN" class="sprotty-edge thick edge" style="fill:none;stroke:rgb(112, 112, 112);stroke-linejoin:round;stroke-width:3px;"><g><path d="M 168.578125 122 L 186.578125 122 C 187.578125 122 188.578125 123 188.578125 124 L 188.578125 160 C 188.578125 161 189.578125 162 190.578125 162 L 208.578125 162 "/><path d="M 168.578125 122 L 186.578125 122 C 187.578125 122 188.578125 123 188.578125 124 L 188.578125 160 C 188.578125 161 189.578125 162 190.578125 162 L 208.578125 162 " class="clickable"/></g></g><g id="sprotty_ArchitectureBlockImpl$spi_p2s/AlwaysBlockImpl$null14/GPortImpl$io_modeOUT_to_ArchitectureBlockImpl$spi_p2s/AlwaysBlockImpl$null18/GPortImpl$io_modeIN" class="sprotty-edge thick edge" style="fill:none;stroke:rgb(112, 112, 112);stroke-linejoin:round;stroke-width:3px;"><g><path d="M 257.46875 70 L 265.46875 70 C 266.46875 70 267.46875 71 267.46875 72 L 267.46875 344 C 267.46875 345 268.46875 346 269.46875 346 L 297.46875 346 "/><path d="M 257.46875 70 L 265.46875 70 C 266.46875 70 267.46875 71 267.46875 72 L 267.46875 344 C 267.46875 345 268.46875 346 269.46875 346 L 297.46875 346 " class="clickable"/></g><circle r="3" id="sprotty_ArchitectureBlockImpl$spi_p2s/AlwaysBlockImpl$null14/GPortImpl$io_modeOUT_to_ArchitectureBlockImpl$spi_p2s/AlwaysBlockImpl$null18/GPortImpl$io_modeIN/junction0" transform="translate(267.46875, 70)" class="sprotty-junction thick" style="fill:rgb(112, 112, 112);stroke:none;"/></g><g id="sprotty_ArchitectureBlockImpl$spi_p2s/AlwaysBlockImpl$null14/GPortImpl$io_modeOUT_to_ArchitectureBlockImpl$spi_p2s/AlwaysBlockImpl$null17/GPortImpl$io_modeIN" class="sprotty-edge thick edge" style="fill:none;stroke:rgb(112, 112, 112);stroke-linejoin:round;stroke-width:3px;"><g><path d="M 257.46875 70 L 265.46875 70 C 266.46875 70 267.46875 71 267.46875 72 L 267.46875 160 C 267.46875 161 268.46875 162 269.46875 162 L 297.46875 162 "/><path d="M 257.46875 70 L 265.46875 70 C 266.46875 70 267.46875 71 267.46875 72 L 267.46875 160 C 267.46875 161 268.46875 162 269.46875 162 L 297.46875 162 " class="clickable"/></g><circle r="3" id="sprotty_ArchitectureBlockImpl$spi_p2s/AlwaysBlockImpl$null14/GPortImpl$io_modeOUT_to_ArchitectureBlockImpl$spi_p2s/AlwaysBlockImpl$null17/GPortImpl$io_modeIN/junction0" transform="translate(267.46875, 162)" class="sprotty-junction thick" style="fill:rgb(112, 112, 112);stroke:none;"/></g><g id="sprotty_ArchitectureBlockImpl$spi_p2s/AlwaysBlockImpl$null14/GPortImpl$io_modeOUT_to_ArchitectureBlockImpl$spi_p2s/AlwaysBlockImpl$null16/GPortImpl$io_modeIN" class="sprotty-edge thick edge" style="fill:none;stroke:rgb(112, 112, 112);stroke-linejoin:round;stroke-width:3px;"><g><path d="M 257.46875 70 L 265.46875 70 C 266.46875 70 267.46875 71 267.46875 72 L 267.46875 247 C 267.46875 248 268.46875 249 269.46875 249 L 304.8984375 249 "/><path d="M 257.46875 70 L 265.46875 70 C 266.46875 70 267.46875 71 267.46875 72 L 267.46875 247 C 267.46875 248 268.46875 249 269.46875 249 L 304.8984375 249 " class="clickable"/></g><circle r="3" id="sprotty_ArchitectureBlockImpl$spi_p2s/AlwaysBlockImpl$null14/GPortImpl$io_modeOUT_to_ArchitectureBlockImpl$spi_p2s/AlwaysBlockImpl$null16/GPortImpl$io_modeIN/junction0" transform="translate(267.46875, 249)" class="sprotty-junction thick" style="fill:rgb(112, 112, 112);stroke:none;"/></g><g id="sprotty_ArchitectureBlockImpl$spi_p2s/AlwaysBlockImpl$null14/GPortImpl$io_modeOUT_to_ArchitectureBlockImpl$spi_p2s/AlwaysBlockImpl$null15/GPortImpl$io_modeIN" class="sprotty-edge thick edge" style="fill:none;stroke:rgb(112, 112, 112);stroke-linejoin:round;stroke-width:3px;"><g><path d="M 257.46875 70 L 297.46875 70 "/><path d="M 257.46875 70 L 297.46875 70 " class="clickable"/></g></g><g id="sprotty_ArchitectureBlockImpl$spi_p2s/AlwaysBlockImpl$null14/GPortImpl$io_modeOUT_to_ArchitectureBlockImpl$spi_p2s/AlwaysBlockImpl$null12/GPortImpl$io_modeIN" class="sprotty-edge thick edge" style="fill:none;stroke:rgb(112, 112, 112);stroke-linejoin:round;stroke-width:3px;"><g><path d="M 257.46875 70 L 265.46875 70 C 266.46875 70 267.46875 71 267.46875 72 L 267.46875 110 C 267.46875 111 268.46875 112 269.46875 112 L 297.46875 112 "/><path d="M 257.46875 70 L 265.46875 70 C 266.46875 70 267.46875 71 267.46875 72 L 267.46875 110 C 267.46875 111 268.46875 112 269.46875 112 L 297.46875 112 " class="clickable"/></g><circle r="3" id="sprotty_ArchitectureBlockImpl$spi_p2s/AlwaysBlockImpl$null14/GPortImpl$io_modeOUT_to_ArchitectureBlockImpl$spi_p2s/AlwaysBlockImpl$null12/GPortImpl$io_modeIN/junction0" transform="translate(267.46875, 112)" class="sprotty-junction thick" style="fill:rgb(112, 112, 112);stroke:none;"/></g><g id="sprotty_ArchitectureBlockImpl$spi_p2s/AssignmentBlockImpl$first_beat/GPortImpl$cntOUT_to_ArchitectureBlockImpl$spi_p2s/AssignmentBlockImpl$out_shift_d/GPortImpl$first_beatIN" class="sprotty-edge thick edge" style="fill:none;stroke:rgb(112, 112, 112);stroke-linejoin:round;stroke-width:3px;"><g><path d="M 339.203125 300 L 369.21875 300 C 370.21875 300 371.21875 301 371.21875 302 L 371.21875 310 C 371.21875 311 372.21875 312 373.21875 312 L 391.21875 312 "/><path d="M 339.203125 300 L 369.21875 300 C 370.21875 300 371.21875 301 371.21875 302 L 371.21875 310 C 371.21875 311 372.21875 312 373.21875 312 L 391.21875 312 " class="clickable"/></g></g><g id="sprotty_ArchitectureBlockImpl$spi_p2s/AlwaysBlockImpl$null12/GPortImpl$last_beatOUT_to_ArchitectureBlockImpl$spi_p2s/AlwaysBlockImpl$null14/GPortImpl$last_beatIN" class="sprotty-edge edge" style="fill:none;stroke:rgb(112, 112, 112);stroke-linejoin:round;"><g><path d="M 361.21875 117 L 369.21875 117 C 370.21875 117 371.21875 116 371.21875 115 L 371.21875 37 C 371.21875 36 370.21875 35 369.21875 35 L 200.578125 35 C 199.578125 35 198.578125 36 198.578125 37 L 198.578125 53 C 198.578125 54 199.578125 55 200.578125 55 L 208.578125 55 "/><path d="M 361.21875 117 L 369.21875 117 C 370.21875 117 371.21875 116 371.21875 115 L 371.21875 37 C 371.21875 36 370.21875 35 369.21875 35 L 200.578125 35 C 199.578125 35 198.578125 36 198.578125 37 L 198.578125 53 C 198.578125 54 199.578125 55 200.578125 55 L 208.578125 55 " class="clickable"/></g><circle r="2" id="sprotty_ArchitectureBlockImpl$spi_p2s/AlwaysBlockImpl$null12/GPortImpl$last_beatOUT_to_ArchitectureBlockImpl$spi_p2s/AlwaysBlockImpl$null14/GPortImpl$last_beatIN/junction0" transform="translate(371.21875, 117)" class="sprotty-junction junction" style="fill:rgb(112, 112, 112);stroke:none;"/></g><g id="sprotty_ArchitectureBlockImpl$spi_p2s/AlwaysBlockImpl$null12/GPortImpl$last_beatOUT_to_ArchitectureBlockImpl$spi_p2s/AlwaysBlockImpl$null13/GPortImpl$last_beatIN" class="sprotty-edge edge" style="fill:none;stroke:rgb(112, 112, 112);stroke-linejoin:round;"><g><path d="M 361.21875 117 L 369.21875 117 C 370.21875 117 371.21875 118 371.21875 119 L 371.21875 210 C 371.21875 211 370.21875 212 369.21875 212 L 200.578125 212 C 199.578125 212 198.578125 211 198.578125 210 L 198.578125 194 C 198.578125 193 199.578125 192 200.578125 192 L 208.578125 192 "/><path d="M 361.21875 117 L 369.21875 117 C 370.21875 117 371.21875 118 371.21875 119 L 371.21875 210 C 371.21875 211 370.21875 212 369.21875 212 L 200.578125 212 C 199.578125 212 198.578125 211 198.578125 210 L 198.578125 194 C 198.578125 193 199.578125 192 200.578125 192 L 208.578125 192 " class="clickable"/></g></g><g id="sprotty_ArchitectureBlockImpl$spi_p2s/AlwaysBlockImpl$null13/GPortImpl$cntOUT_to_ArchitectureBlockImpl$spi_p2s/AssignmentBlockImpl$first_beat/GPortImpl$cntIN" class="sprotty-edge thick edge" style="fill:none;stroke:rgb(112, 112, 112);stroke-linejoin:round;stroke-width:3px;"><g><path d="M 257.46875 172 L 275.46875 172 C 276.46875 172 277.46875 173 277.46875 174 L 277.46875 298 C 277.46875 299 278.46875 300 279.46875 300 L 319.484375 300 "/><path d="M 257.46875 172 L 275.46875 172 C 276.46875 172 277.46875 173 277.46875 174 L 277.46875 298 C 277.46875 299 278.46875 300 279.46875 300 L 319.484375 300 " class="clickable"/></g><circle r="3" id="sprotty_ArchitectureBlockImpl$spi_p2s/AlwaysBlockImpl$null13/GPortImpl$cntOUT_to_ArchitectureBlockImpl$spi_p2s/AssignmentBlockImpl$first_beat/GPortImpl$cntIN/junction0" transform="translate(277.46875, 172)" class="sprotty-junction thick" style="fill:rgb(112, 112, 112);stroke:none;"/></g><g id="sprotty_ArchitectureBlockImpl$spi_p2s/AlwaysBlockImpl$null13/GPortImpl$cntOUT_to_ArchitectureBlockImpl$spi_p2s/AlwaysBlockImpl$null17/GPortImpl$cntIN" class="sprotty-edge thick edge" style="fill:none;stroke:rgb(112, 112, 112);stroke-linejoin:round;stroke-width:3px;"><g><path d="M 257.46875 172 L 297.46875 172 "/><path d="M 257.46875 172 L 297.46875 172 " class="clickable"/></g></g><g id="sprotty_ArchitectureBlockImpl$spi_p2s/AlwaysBlockImpl$null13/GPortImpl$cntOUT_to_ArchitectureBlockImpl$spi_p2s/AlwaysBlockImpl$null12/GPortImpl$cntIN" class="sprotty-edge thick edge" style="fill:none;stroke:rgb(112, 112, 112);stroke-linejoin:round;stroke-width:3px;"><g><path d="M 257.46875 172 L 275.46875 172 C 276.46875 172 277.46875 171 277.46875 170 L 277.46875 124 C 277.46875 123 278.46875 122 279.46875 122 L 297.46875 122 "/><path d="M 257.46875 172 L 275.46875 172 C 276.46875 172 277.46875 171 277.46875 170 L 277.46875 124 C 277.46875 123 278.46875 122 279.46875 122 L 297.46875 122 " class="clickable"/></g></g><g id="sprotty_ArchitectureBlockImpl$spi_p2s/AlwaysBlockImpl$null18/GPortImpl$out_enableOUT_to_ArchitectureBlockImpl$spi_p2s/AssignmentBlockImpl$s_en_o/GPortImpl$out_enableIN" class="sprotty-edge thick edge" style="fill:none;stroke:rgb(112, 112, 112);stroke-linejoin:round;stroke-width:3px;"><g><path d="M 361.21875 351 L 369.21875 351 C 370.21875 351 371.21875 352 371.21875 353 L 371.21875 378 C 371.21875 379 372.21875 380 373.21875 380 L 391.21875 380 "/><path d="M 361.21875 351 L 369.21875 351 C 370.21875 351 371.21875 352 371.21875 353 L 371.21875 378 C 371.21875 379 372.21875 380 373.21875 380 L 391.21875 380 " class="clickable"/></g></g><g id="sprotty_ArchitectureBlockImpl$spi_p2s/AlwaysBlockImpl$null16/GPortImpl$out_shiftOUT_to_ArchitectureBlockImpl$spi_p2s/AssignmentBlockImpl$out_shift_d/GPortImpl$out_shiftIN" class="sprotty-edge thick edge" style="fill:none;stroke:rgb(112, 112, 112);stroke-linejoin:round;stroke-width:3px;"><g><path d="M 353.7890625 249 L 379.21875 249 C 380.21875 249 381.21875 250 381.21875 251 L 381.21875 300 C 381.21875 301 382.21875 302 383.21875 302 L 391.21875 302 "/><path d="M 353.7890625 249 L 379.21875 249 C 380.21875 249 381.21875 250 381.21875 251 L 381.21875 300 C 381.21875 301 382.21875 302 383.21875 302 L 391.21875 302 " class="clickable"/></g></g><g id="sprotty_ArchitectureBlockImpl$spi_p2s/AssignmentBlockImpl$out_shift_d/GPortImpl$out_shiftOUT_to_ArchitectureBlockImpl$spi_p2s/AlwaysBlockImpl$null16/GPortImpl$out_shift_dIN" class="sprotty-edge thick edge" style="fill:none;stroke:rgb(112, 112, 112);stroke-linejoin:round;stroke-width:3px;"><g><path d="M 410.9375 312 L 418.9375 312 C 419.9375 312 420.9375 311 420.9375 310 L 420.9375 221 C 420.9375 220 419.9375 219 418.9375 219 L 289.46875 219 C 288.46875 219 287.46875 220 287.46875 221 L 287.46875 237 C 287.46875 238 288.46875 239 289.46875 239 L 304.8984375 239 "/><path d="M 410.9375 312 L 418.9375 312 C 419.9375 312 420.9375 311 420.9375 310 L 420.9375 221 C 420.9375 220 419.9375 219 418.9375 219 L 289.46875 219 C 288.46875 219 287.46875 220 287.46875 221 L 287.46875 237 C 287.46875 238 288.46875 239 289.46875 239 L 304.8984375 239 " class="clickable"/></g></g><g id="sprotty_ArchitectureBlockImpl$spi_p2s/AlwaysBlockImpl$null11" transform="translate(119.6875, 107)" class="statement"><rect x="0" y="0" rx="10" ry="5" width="48.890625" height="30" class="sprotty-node" style="fill:rgb(245, 245, 245);stroke:rgb(112, 112, 112);"/><text class="clickable sprotty-label statementtype" id="sprotty_ArchitectureBlockImpl$spi_p2s/AlwaysBlockImpl$null11/labeltype" transform="translate(5, 9) translate(18.828125, 9)" style="cursor:default;font-size:8px;font-weight:700;perspective-origin:0.609375px 0px;fill:rgb(112, 112, 112);text-anchor:middle;">always_ff</text><g id="sprotty_ArchitectureBlockImpl$spi_p2s/AlwaysBlockImpl$null11/GPortImpl$rst_niIN" transform="translate(0, 10)" class="sprotty-hidden hidden" style="display:block;height:0px;width:0px;"/><g id="sprotty_ArchitectureBlockImpl$spi_p2s/AlwaysBlockImpl$null11/GPortImpl$clk_iIN" transform="translate(0, 20)" class="sprotty-hidden hidden" style="display:block;height:0px;width:0px;"/><g id="sprotty_ArchitectureBlockImpl$spi_p2s/AlwaysBlockImpl$null11/GPortImpl$tx_stateOUT" transform="translate(48.890625, 15)" class="sprotty-hidden hidden" style="display:block;height:0px;width:0px;"/></g><g id="sprotty_ArchitectureBlockImpl$spi_p2s/AlwaysBlockImpl$null12" transform="translate(297.46875, 102)" class="statement"><rect x="0" y="0" rx="10" ry="5" width="63.75" height="30" class="sprotty-node" style="fill:rgb(245, 245, 245);stroke:rgb(112, 112, 112);"/><text class="clickable sprotty-label statementtype" id="sprotty_ArchitectureBlockImpl$spi_p2s/AlwaysBlockImpl$null12/labeltype" transform="translate(5, 9) translate(26.875, 9)" style="cursor:default;font-size:8px;font-weight:700;perspective-origin:0px 0px;fill:rgb(112, 112, 112);text-anchor:middle;">always_comb</text><g id="sprotty_ArchitectureBlockImpl$spi_p2s/AlwaysBlockImpl$null12/GPortImpl$cntIN" transform="translate(0, 20)" class="sprotty-hidden hidden" style="display:block;height:0px;width:0px;"/><g id="sprotty_ArchitectureBlockImpl$spi_p2s/AlwaysBlockImpl$null12/GPortImpl$io_modeIN" transform="translate(0, 10)" class="sprotty-hidden hidden" style="display:block;height:0px;width:0px;"/><g id="sprotty_ArchitectureBlockImpl$spi_p2s/AlwaysBlockImpl$null12/GPortImpl$last_beatOUT" transform="translate(63.75, 15)" class="sprotty-hidden hidden" style="display:block;height:0px;width:0px;"/></g><g id="sprotty_ArchitectureBlockImpl$spi_p2s/AlwaysBlockImpl$null13" transform="translate(208.578125, 142)" class="statement"><rect x="0" y="0" rx="10" ry="5" width="48.890625" height="60" class="sprotty-node" style="fill:rgb(245, 245, 245);stroke:rgb(112, 112, 112);"/><text class="clickable sprotty-label statementtype" id="sprotty_ArchitectureBlockImpl$spi_p2s/AlwaysBlockImpl$null13/labeltype" transform="translate(5, 24) translate(18.828125, 9)" style="cursor:default;font-size:8px;font-weight:700;perspective-origin:0.609375px 0px;fill:rgb(112, 112, 112);text-anchor:middle;">always_ff</text><g id="sprotty_ArchitectureBlockImpl$spi_p2s/AlwaysBlockImpl$null13/GPortImpl$cpha_iIN" transform="translate(0, 40)" class="sprotty-hidden hidden" style="display:block;height:0px;width:0px;"/><g id="sprotty_ArchitectureBlockImpl$spi_p2s/AlwaysBlockImpl$null13/GPortImpl$tx_stateIN" transform="translate(0, 20)" class="sprotty-hidden hidden" style="display:block;height:0px;width:0px;"/><g id="sprotty_ArchitectureBlockImpl$spi_p2s/AlwaysBlockImpl$null13/GPortImpl$last_beatIN" transform="translate(0, 50)" class="sprotty-hidden hidden" style="display:block;height:0px;width:0px;"/><g id="sprotty_ArchitectureBlockImpl$spi_p2s/AlwaysBlockImpl$null13/GPortImpl$rst_niIN" transform="translate(0, 10)" class="sprotty-hidden hidden" style="display:block;height:0px;width:0px;"/><g id="sprotty_ArchitectureBlockImpl$spi_p2s/AlwaysBlockImpl$null13/GPortImpl$clk_iIN" transform="translate(0, 30)" class="sprotty-hidden hidden" style="display:block;height:0px;width:0px;"/><g id="sprotty_ArchitectureBlockImpl$spi_p2s/AlwaysBlockImpl$null13/GPortImpl$cntOUT" transform="translate(48.890625, 30)" class="sprotty-hidden hidden" style="display:block;height:0px;width:0px;"/></g><g id="sprotty_ArchitectureBlockImpl$spi_p2s/AlwaysBlockImpl$null14" transform="translate(208.578125, 45)" class="statement"><rect x="0" y="0" rx="10" ry="5" width="48.890625" height="50" class="sprotty-node" style="fill:rgb(245, 245, 245);stroke:rgb(112, 112, 112);"/><text class="clickable sprotty-label statementtype" id="sprotty_ArchitectureBlockImpl$spi_p2s/AlwaysBlockImpl$null14/labeltype" transform="translate(5, 19) translate(18.828125, 9)" style="cursor:default;font-size:8px;font-weight:700;perspective-origin:0.609375px 0px;fill:rgb(112, 112, 112);text-anchor:middle;">always_ff</text><g id="sprotty_ArchitectureBlockImpl$spi_p2s/AlwaysBlockImpl$null14/GPortImpl$io_mode_iIN" transform="translate(0, 20)" class="sprotty-hidden hidden" style="display:block;height:0px;width:0px;"/><g id="sprotty_ArchitectureBlockImpl$spi_p2s/AlwaysBlockImpl$null14/GPortImpl$last_beatIN" transform="translate(0, 10)" class="sprotty-hidden hidden" style="display:block;height:0px;width:0px;"/><g id="sprotty_ArchitectureBlockImpl$spi_p2s/AlwaysBlockImpl$null14/GPortImpl$rst_niIN" transform="translate(0, 30)" class="sprotty-hidden hidden" style="display:block;height:0px;width:0px;"/><g id="sprotty_ArchitectureBlockImpl$spi_p2s/AlwaysBlockImpl$null14/GPortImpl$clk_iIN" transform="translate(0, 40)" class="sprotty-hidden hidden" style="display:block;height:0px;width:0px;"/><g id="sprotty_ArchitectureBlockImpl$spi_p2s/AlwaysBlockImpl$null14/GPortImpl$io_modeOUT" transform="translate(48.890625, 25)" class="sprotty-hidden hidden" style="display:block;height:0px;width:0px;"/></g><g id="sprotty_ArchitectureBlockImpl$spi_p2s/AlwaysBlockImpl$null15" transform="translate(297.46875, 59)" class="statement"><rect x="0" y="0" rx="10" ry="5" width="63.75" height="22" class="sprotty-node" style="fill:rgb(245, 245, 245);stroke:rgb(112, 112, 112);"/><text class="clickable sprotty-label statementtype" id="sprotty_ArchitectureBlockImpl$spi_p2s/AlwaysBlockImpl$null15/labeltype" transform="translate(5, 5) translate(26.875, 9)" style="cursor:default;font-size:8px;font-weight:700;perspective-origin:0px 0px;fill:rgb(112, 112, 112);text-anchor:middle;">always_comb</text><g id="sprotty_ArchitectureBlockImpl$spi_p2s/AlwaysBlockImpl$null15/GPortImpl$io_modeIN" transform="translate(0, 11)" class="sprotty-hidden hidden" style="display:block;height:0px;width:0px;"/><g id="sprotty_ArchitectureBlockImpl$spi_p2s/AlwaysBlockImpl$null15/GPortImpl$s_oOUT" transform="translate(63.75, 11)" class="sprotty-hidden hidden" style="display:block;height:0px;width:0px;"/></g><g id="sprotty_ArchitectureBlockImpl$spi_p2s/AlwaysBlockImpl$null16" transform="translate(304.8984375, 229)" class="statement"><rect x="0" y="0" rx="10" ry="5" width="48.890625" height="40" class="sprotty-node" style="fill:rgb(245, 245, 245);stroke:rgb(112, 112, 112);"/><text class="clickable sprotty-label statementtype" id="sprotty_ArchitectureBlockImpl$spi_p2s/AlwaysBlockImpl$null16/labeltype" transform="translate(5, 14) translate(18.828125, 9)" style="cursor:default;font-size:8px;font-weight:700;perspective-origin:0.609375px 0px;fill:rgb(112, 112, 112);text-anchor:middle;">always_ff</text><g id="sprotty_ArchitectureBlockImpl$spi_p2s/AlwaysBlockImpl$null16/GPortImpl$out_shift_dIN" transform="translate(0, 10)" class="sprotty-hidden hidden" style="display:block;height:0px;width:0px;"/><g id="sprotty_ArchitectureBlockImpl$spi_p2s/AlwaysBlockImpl$null16/GPortImpl$io_modeIN" transform="translate(0, 20)" class="sprotty-hidden hidden" style="display:block;height:0px;width:0px;"/><g id="sprotty_ArchitectureBlockImpl$spi_p2s/AlwaysBlockImpl$null16/GPortImpl$clk_iIN" transform="translate(0, 30)" class="sprotty-hidden hidden" style="display:block;height:0px;width:0px;"/><g id="sprotty_ArchitectureBlockImpl$spi_p2s/AlwaysBlockImpl$null16/GPortImpl$out_shiftOUT" transform="translate(48.890625, 20)" class="sprotty-hidden hidden" style="display:block;height:0px;width:0px;"/></g><g id="sprotty_ArchitectureBlockImpl$spi_p2s/AlwaysBlockImpl$null17" transform="translate(297.46875, 152)" class="statement"><rect x="0" y="0" rx="10" ry="5" width="63.75" height="30" class="sprotty-node" style="fill:rgb(245, 245, 245);stroke:rgb(112, 112, 112);"/><text class="clickable sprotty-label statementtype" id="sprotty_ArchitectureBlockImpl$spi_p2s/AlwaysBlockImpl$null17/labeltype" transform="translate(5, 9) translate(26.875, 9)" style="cursor:default;font-size:8px;font-weight:700;perspective-origin:0px 0px;fill:rgb(112, 112, 112);text-anchor:middle;">always_comb</text><g id="sprotty_ArchitectureBlockImpl$spi_p2s/AlwaysBlockImpl$null17/GPortImpl$cntIN" transform="translate(0, 20)" class="sprotty-hidden hidden" style="display:block;height:0px;width:0px;"/><g id="sprotty_ArchitectureBlockImpl$spi_p2s/AlwaysBlockImpl$null17/GPortImpl$io_modeIN" transform="translate(0, 10)" class="sprotty-hidden hidden" style="display:block;height:0px;width:0px;"/><g id="sprotty_ArchitectureBlockImpl$spi_p2s/AlwaysBlockImpl$null17/GPortImpl$data_sent_oOUT" transform="translate(63.75, 15)" class="sprotty-hidden hidden" style="display:block;height:0px;width:0px;"/></g><g id="sprotty_ArchitectureBlockImpl$spi_p2s/AlwaysBlockImpl$null18" transform="translate(297.46875, 336)" class="statement"><rect x="0" y="0" rx="10" ry="5" width="63.75" height="30" class="sprotty-node" style="fill:rgb(245, 245, 245);stroke:rgb(112, 112, 112);"/><text class="clickable sprotty-label statementtype" id="sprotty_ArchitectureBlockImpl$spi_p2s/AlwaysBlockImpl$null18/labeltype" transform="translate(5, 9) translate(26.875, 9)" style="cursor:default;font-size:8px;font-weight:700;perspective-origin:0px 0px;fill:rgb(112, 112, 112);text-anchor:middle;">always_comb</text><g id="sprotty_ArchitectureBlockImpl$spi_p2s/AlwaysBlockImpl$null18/GPortImpl$data_valid_iIN" transform="translate(0, 20)" class="sprotty-hidden hidden" style="display:block;height:0px;width:0px;"/><g id="sprotty_ArchitectureBlockImpl$spi_p2s/AlwaysBlockImpl$null18/GPortImpl$io_modeIN" transform="translate(0, 10)" class="sprotty-hidden hidden" style="display:block;height:0px;width:0px;"/><g id="sprotty_ArchitectureBlockImpl$spi_p2s/AlwaysBlockImpl$null18/GPortImpl$out_enableOUT" transform="translate(63.75, 15)" class="sprotty-hidden hidden" style="display:block;height:0px;width:0px;"/></g><g id="sprotty_ArchitectureBlockImpl$spi_p2s/AssignmentBlockImpl$first_beat" transform="translate(319.484375, 289)" class="statement"><rect x="0" y="0" rx="10" ry="5" width="19.71875" height="22" class="sprotty-node" style="fill:rgb(245, 245, 245);stroke:rgb(112, 112, 112);"/><text class="clickable sprotty-label statementtype" id="sprotty_ArchitectureBlockImpl$spi_p2s/AssignmentBlockImpl$first_beat/labeltype" transform="translate(5, 5) translate(4.71875, 9)" style="cursor:default;font-size:8px;font-weight:700;perspective-origin:0.140625px 0px;fill:rgb(112, 112, 112);text-anchor:middle;">&lt;=</text><g id="sprotty_ArchitectureBlockImpl$spi_p2s/AssignmentBlockImpl$first_beat/GPortImpl$cntIN" transform="translate(0, 11)" class="sprotty-hidden hidden" style="display:block;height:0px;width:0px;"/><g id="sprotty_ArchitectureBlockImpl$spi_p2s/AssignmentBlockImpl$first_beat/GPortImpl$cntOUT" transform="translate(19.71875, 11)" class="sprotty-hidden hidden" style="display:block;height:0px;width:0px;"/></g><g id="sprotty_ArchitectureBlockImpl$spi_p2s/AssignmentBlockImpl$out_shift_d" transform="translate(391.21875, 292)" class="statement"><rect x="0" y="0" rx="10" ry="5" width="19.71875" height="40" class="sprotty-node" style="fill:rgb(245, 245, 245);stroke:rgb(112, 112, 112);"/><text class="clickable sprotty-label statementtype" id="sprotty_ArchitectureBlockImpl$spi_p2s/AssignmentBlockImpl$out_shift_d/labeltype" transform="translate(5, 14) translate(4.71875, 9)" style="cursor:default;font-size:8px;font-weight:700;perspective-origin:0.140625px 0px;fill:rgb(112, 112, 112);text-anchor:middle;">&lt;=</text><g id="sprotty_ArchitectureBlockImpl$spi_p2s/AssignmentBlockImpl$out_shift_d/GPortImpl$out_shiftIN" transform="translate(0, 10)" class="sprotty-hidden hidden" style="display:block;height:0px;width:0px;"/><g id="sprotty_ArchitectureBlockImpl$spi_p2s/AssignmentBlockImpl$out_shift_d/GPortImpl$data_iIN" transform="translate(0, 30)" class="sprotty-hidden hidden" style="display:block;height:0px;width:0px;"/><g id="sprotty_ArchitectureBlockImpl$spi_p2s/AssignmentBlockImpl$out_shift_d/GPortImpl$first_beatIN" transform="translate(0, 20)" class="sprotty-hidden hidden" style="display:block;height:0px;width:0px;"/><g id="sprotty_ArchitectureBlockImpl$spi_p2s/AssignmentBlockImpl$out_shift_d/GPortImpl$out_shiftOUT" transform="translate(19.71875, 20)" class="sprotty-hidden hidden" style="display:block;height:0px;width:0px;"/></g><g id="sprotty_ArchitectureBlockImpl$spi_p2s/AssignmentBlockImpl$s_en_o" transform="translate(391.21875, 370)" class="statement"><rect x="0" y="0" rx="10" ry="5" width="19.71875" height="30" class="sprotty-node" style="fill:rgb(245, 245, 245);stroke:rgb(112, 112, 112);"/><text class="clickable sprotty-label statementtype" id="sprotty_ArchitectureBlockImpl$spi_p2s/AssignmentBlockImpl$s_en_o/labeltype" transform="translate(5, 9) translate(4.71875, 9)" style="cursor:default;font-size:8px;font-weight:700;perspective-origin:0.140625px 0px;fill:rgb(112, 112, 112);text-anchor:middle;">&lt;=</text><g id="sprotty_ArchitectureBlockImpl$spi_p2s/AssignmentBlockImpl$s_en_o/GPortImpl$out_enableIN" transform="translate(0, 10)" class="sprotty-hidden hidden" style="display:block;height:0px;width:0px;"/><g id="sprotty_ArchitectureBlockImpl$spi_p2s/AssignmentBlockImpl$s_en_o/GPortImpl$csb_iIN" transform="translate(0, 20)" class="sprotty-hidden hidden" style="display:block;height:0px;width:0px;"/><g id="sprotty_ArchitectureBlockImpl$spi_p2s/AssignmentBlockImpl$s_en_o/GPortImpl$s_en_oOUT" transform="translate(19.71875, 15)" class="sprotty-hidden hidden" style="display:block;height:0px;width:0px;"/></g><g id="sprotty_ArchitectureBlockImpl$spi_p2s/BPortImpl$io_mode_i" transform="translate(0, 61)" class="triangle"><path d="M 0,0 L 5,2.5 L 0,5 Z" transform="translate(-1.67, -2.5)" class="sprotty-port" style="fill:rgb(48, 48, 48);stroke:rgb(48, 48, 48);"/><text class="clickable sprotty-label port" id="sprotty_ArchitectureBlockImpl$spi_p2s/BPortImpl$io_mode_i/label" transform="translate(6, 6) translate(29.890625, 14)" style="cursor:default;font-size:12px;perspective-origin:0px 0px;fill:rgb(48, 48, 48);text-anchor:middle;">io_mode_i</text></g><g id="sprotty_ArchitectureBlockImpl$spi_p2s/BPortImpl$order_i" transform="translate(0, 434)" class="triangle"><path d="M 0,0 L 5,2.5 L 0,5 Z" transform="translate(-1.67, -2.5)" class="sprotty-port" style="fill:rgb(48, 48, 48);stroke:rgb(48, 48, 48);"/><text class="clickable sprotty-label port" id="sprotty_ArchitectureBlockImpl$spi_p2s/BPortImpl$order_i/label" transform="translate(6, 6) translate(20.28125, 14)" style="cursor:default;font-size:12px;perspective-origin:0px 0px;fill:rgb(48, 48, 48);text-anchor:middle;">order_i</text></g><g id="sprotty_ArchitectureBlockImpl$spi_p2s/BPortImpl$cpha_i" transform="translate(0, 182)" class="triangle"><path d="M 0,0 L 5,2.5 L 0,5 Z" transform="translate(-1.67, -2.5)" class="sprotty-port" style="fill:rgb(48, 48, 48);stroke:rgb(48, 48, 48);"/><text class="clickable sprotty-label port" id="sprotty_ArchitectureBlockImpl$spi_p2s/BPortImpl$cpha_i/label" transform="translate(6, 6) translate(18.8125, 14)" style="cursor:default;font-size:12px;perspective-origin:0px 0px;fill:rgb(48, 48, 48);text-anchor:middle;">cpha_i</text></g><g id="sprotty_ArchitectureBlockImpl$spi_p2s/BPortImpl$csb_i" transform="translate(0, 390)" class="triangle"><path d="M 0,0 L 5,2.5 L 0,5 Z" transform="translate(-1.67, -2.5)" class="sprotty-port" style="fill:rgb(48, 48, 48);stroke:rgb(48, 48, 48);"/><text class="clickable sprotty-label port" id="sprotty_ArchitectureBlockImpl$spi_p2s/BPortImpl$csb_i/label" transform="translate(6, 6) translate(14.578125, 14)" style="cursor:default;font-size:12px;perspective-origin:0px 0px;fill:rgb(48, 48, 48);text-anchor:middle;">csb_i</text></g><g id="sprotty_ArchitectureBlockImpl$spi_p2s/BPortImpl$data_i" transform="translate(0, 322)" class="triangle"><path d="M 0,0 L 5,2.5 L 0,5 Z" transform="translate(-1.67, -2.5)" class="sprotty-port" style="fill:rgb(48, 48, 48);stroke:rgb(48, 48, 48);"/><text class="clickable sprotty-label port" id="sprotty_ArchitectureBlockImpl$spi_p2s/BPortImpl$data_i/label" transform="translate(6, 6) translate(17.53125, 14)" style="cursor:default;font-size:12px;perspective-origin:0px 0px;fill:rgb(48, 48, 48);text-anchor:middle;">data_i</text></g><g id="sprotty_ArchitectureBlockImpl$spi_p2s/BPortImpl$data_valid_i" transform="translate(0, 356)" class="triangle"><path d="M 0,0 L 5,2.5 L 0,5 Z" transform="translate(-1.67, -2.5)" class="sprotty-port" style="fill:rgb(48, 48, 48);stroke:rgb(48, 48, 48);"/><text class="clickable sprotty-label port" id="sprotty_ArchitectureBlockImpl$spi_p2s/BPortImpl$data_valid_i/label" transform="translate(6, 6) translate(34.34375, 14)" style="cursor:default;font-size:12px;perspective-origin:0px 0px;fill:rgb(48, 48, 48);text-anchor:middle;">data_valid_i</text></g><g id="sprotty_ArchitectureBlockImpl$spi_p2s/BPortImpl$rst_ni" transform="translate(0, 95)" class="triangle"><path d="M 0,0 L 5,2.5 L 0,5 Z" transform="translate(-1.67, -2.5)" class="sprotty-port" style="fill:rgb(48, 48, 48);stroke:rgb(48, 48, 48);"/><text class="clickable sprotty-label port" id="sprotty_ArchitectureBlockImpl$spi_p2s/BPortImpl$rst_ni/label" transform="translate(6, 6) translate(15.921875, 14)" style="cursor:default;font-size:12px;perspective-origin:0px 0px;fill:rgb(48, 48, 48);text-anchor:middle;">rst_ni</text></g><g id="sprotty_ArchitectureBlockImpl$spi_p2s/BPortImpl$clk_i" transform="translate(0, 148)" class="triangle"><path d="M 0,0 L 5,2.5 L 0,5 Z" transform="translate(-1.67, -2.5)" class="sprotty-port" style="fill:rgb(48, 48, 48);stroke:rgb(48, 48, 48);"/><text class="clickable sprotty-label port" id="sprotty_ArchitectureBlockImpl$spi_p2s/BPortImpl$clk_i/label" transform="translate(6, 6) translate(13.09375, 14)" style="cursor:default;font-size:12px;perspective-origin:0px 0px;fill:rgb(48, 48, 48);text-anchor:middle;">clk_i</text></g><g id="sprotty_ArchitectureBlockImpl$spi_p2s/BPortImpl$data_sent_o" transform="translate(521.78125, 167)" class="triangle"><path d="M 0,0 L 5,2.5 L 0,5 Z" transform="translate(-1.67, -2.5)" class="sprotty-port" style="fill:rgb(48, 48, 48);stroke:rgb(48, 48, 48);"/><text class="clickable sprotty-label port" id="sprotty_ArchitectureBlockImpl$spi_p2s/BPortImpl$data_sent_o/label" transform="translate(-75.84375, 6) translate(34.921875, 14)" style="cursor:default;font-size:12px;perspective-origin:0px 0px;fill:rgb(48, 48, 48);text-anchor:middle;">data_sent_o</text></g><g id="sprotty_ArchitectureBlockImpl$spi_p2s/BPortImpl$s_en_o" transform="translate(521.78125, 385)" class="triangle"><path d="M 0,0 L 5,2.5 L 0,5 Z" transform="translate(-1.67, -2.5)" class="sprotty-port" style="fill:rgb(48, 48, 48);stroke:rgb(48, 48, 48);"/><text class="clickable sprotty-label port" id="sprotty_ArchitectureBlockImpl$spi_p2s/BPortImpl$s_en_o/label" transform="translate(-46.3125, 6) translate(20.15625, 14)" style="cursor:default;font-size:12px;perspective-origin:0px 0px;fill:rgb(48, 48, 48);text-anchor:middle;">s_en_o</text></g><g id="sprotty_ArchitectureBlockImpl$spi_p2s/BPortImpl$s_o" transform="translate(521.78125, 70)" class="triangle"><path d="M 0,0 L 5,2.5 L 0,5 Z" transform="translate(-1.67, -2.5)" class="sprotty-port" style="fill:rgb(48, 48, 48);stroke:rgb(48, 48, 48);"/><text class="clickable sprotty-label port" id="sprotty_ArchitectureBlockImpl$spi_p2s/BPortImpl$s_o/label" transform="translate(-25.625, 6) translate(9.8125, 14)" style="cursor:default;font-size:12px;perspective-origin:0px 0px;fill:rgb(48, 48, 48);text-anchor:middle;">s_o</text></g></g></g></svg>