<svg xmlns="http://www.w3.org/2000/svg" id="sprotty_work.prim_generic_flop_2sync" class="sprotty-graph sprotty-block-diagram blockdiagram" style="font-family:&quot;Noto Sans&quot;, Helvetica, Arial, sans-serif;perspective-origin:0px 0px;transform-origin:0px 0px;" version="1.1" viewBox="7 7 509.21875 225" width="509.21875" height="225"><g transform="scale(1) translate(0,0)"><g id="sprotty_ArchitectureBlockImpl$prim_generic_flop_2sync" transform="translate(12, 12)" class="architecture"><g class="sprotty-block" style="fill:rgb(255, 255, 255);stroke:rgb(48, 48, 48);stroke-dasharray:0px;"><rect x="0" y="0" rx="1" ry="1" width="499.21875" height="215"/><text x="249.609375" y="12" class="sprotty-block-name" style="cursor:pointer;font-weight:700;perspective-origin:249.609px 0px;fill:rgb(48, 48, 48);stroke:rgba(0, 0, 0, 0);dominant-baseline:middle;text-anchor:middle;">prim_generic_flop_2sync</text><line x1="0" y1="20" x2="499.21875" y2="20"/></g><g id="sprotty_ArchitectureBlockImpl$prim_generic_flop_2sync/InstantiationBlockImpl$u_sync_2/BPortImpl$q_o_to_ArchitectureBlockImpl$prim_generic_flop_2sync/BPortImpl$q_o" class="sprotty-edge thick edge" style="fill:none;stroke:rgb(112, 112, 112);stroke-linejoin:round;stroke-width:3px;"><g><path d="M 456.78125 120 L 499.21875 120 "/><path d="M 456.78125 120 L 499.21875 120 " class="clickable"/></g></g><g id="sprotty_ArchitectureBlockImpl$prim_generic_flop_2sync/BPortImpl$clk_i_to_ArchitectureBlockImpl$prim_generic_flop_2sync/InstantiationBlockImpl$u_sync_1/BPortImpl$clk_i" class="sprotty-edge edge" style="fill:none;stroke:rgb(112, 112, 112);stroke-linejoin:round;"><g><path d="M 0 36 L 70.84375 36 C 71.84375 36 72.84375 37 72.84375 38 L 72.84375 118 C 72.84375 119 73.84375 120 74.84375 120 L 82.84375 120 "/><path d="M 0 36 L 70.84375 36 C 71.84375 36 72.84375 37 72.84375 38 L 72.84375 118 C 72.84375 119 73.84375 120 74.84375 120 L 82.84375 120 " class="clickable"/></g><circle r="2" id="sprotty_ArchitectureBlockImpl$prim_generic_flop_2sync/BPortImpl$clk_i_to_ArchitectureBlockImpl$prim_generic_flop_2sync/InstantiationBlockImpl$u_sync_1/BPortImpl$clk_i/junction0" transform="translate(72.84375, 36)" class="sprotty-junction junction" style="fill:rgb(112, 112, 112);stroke:none;"/></g><g id="sprotty_ArchitectureBlockImpl$prim_generic_flop_2sync/BPortImpl$rst_ni_to_ArchitectureBlockImpl$prim_generic_flop_2sync/InstantiationBlockImpl$u_sync_1/BPortImpl$rst_ni" class="sprotty-edge edge" style="fill:none;stroke:rgb(112, 112, 112);stroke-linejoin:round;"><g><path d="M 0 70 L 60.84375 70 C 61.84375 70 62.84375 71 62.84375 72 L 62.84375 146 C 62.84375 147 63.84375 148 64.84375 148 L 82.84375 148 "/><path d="M 0 70 L 60.84375 70 C 61.84375 70 62.84375 71 62.84375 72 L 62.84375 146 C 62.84375 147 63.84375 148 64.84375 148 L 82.84375 148 " class="clickable"/></g><circle r="2" id="sprotty_ArchitectureBlockImpl$prim_generic_flop_2sync/BPortImpl$rst_ni_to_ArchitectureBlockImpl$prim_generic_flop_2sync/InstantiationBlockImpl$u_sync_1/BPortImpl$rst_ni/junction0" transform="translate(62.84375, 70)" class="sprotty-junction junction" style="fill:rgb(112, 112, 112);stroke:none;"/></g><g id="sprotty_ArchitectureBlockImpl$prim_generic_flop_2sync/BPortImpl$d_i_to_ArchitectureBlockImpl$prim_generic_flop_2sync/InstantiationBlockImpl$u_sync_1/BPortImpl$d_i" class="sprotty-edge thick edge" style="fill:none;stroke:rgb(112, 112, 112);stroke-linejoin:round;stroke-width:3px;"><g><path d="M 0 176 L 82.84375 176 "/><path d="M 0 176 L 82.84375 176 " class="clickable"/></g></g><g id="sprotty_ArchitectureBlockImpl$prim_generic_flop_2sync/BPortImpl$clk_i_to_ArchitectureBlockImpl$prim_generic_flop_2sync/InstantiationBlockImpl$u_sync_2/BPortImpl$clk_i" class="sprotty-edge edge" style="fill:none;stroke:rgb(112, 112, 112);stroke-linejoin:round;"><g><path d="M 0 36 L 272.8125 36 C 273.8125 36 274.8125 37 274.8125 38 L 274.8125 90 C 274.8125 91 275.8125 92 276.8125 92 L 284.8125 92 "/><path d="M 0 36 L 272.8125 36 C 273.8125 36 274.8125 37 274.8125 38 L 274.8125 90 C 274.8125 91 275.8125 92 276.8125 92 L 284.8125 92 " class="clickable"/></g></g><g id="sprotty_ArchitectureBlockImpl$prim_generic_flop_2sync/BPortImpl$rst_ni_to_ArchitectureBlockImpl$prim_generic_flop_2sync/InstantiationBlockImpl$u_sync_2/BPortImpl$rst_ni" class="sprotty-edge edge" style="fill:none;stroke:rgb(112, 112, 112);stroke-linejoin:round;"><g><path d="M 0 70 L 262.8125 70 C 263.8125 70 264.8125 71 264.8125 72 L 264.8125 118 C 264.8125 119 265.8125 120 266.8125 120 L 284.8125 120 "/><path d="M 0 70 L 262.8125 70 C 263.8125 70 264.8125 71 264.8125 72 L 264.8125 118 C 264.8125 119 265.8125 120 266.8125 120 L 284.8125 120 " class="clickable"/></g></g><g id="sprotty_ArchitectureBlockImpl$prim_generic_flop_2sync/InstantiationBlockImpl$u_sync_1/BPortImpl$q_o_to_ArchitectureBlockImpl$prim_generic_flop_2sync/InstantiationBlockImpl$u_sync_2/BPortImpl$d_i" class="sprotty-edge thick edge" style="fill:none;stroke:rgb(112, 112, 112);stroke-linejoin:round;stroke-width:3px;"><g><path d="M 254.8125 148 L 284.8125 148 "/><path d="M 254.8125 148 L 284.8125 148 " class="clickable"/></g></g><g id="sprotty_ArchitectureBlockImpl$prim_generic_flop_2sync/InstantiationBlockImpl$u_sync_2" transform="translate(284.8125, 54)" class="instantiation"><g class="sprotty-block" style="fill:rgb(255, 255, 255);stroke:rgb(48, 48, 48);stroke-dasharray:0px;"><rect x="0" y="0" rx="1" ry="1" width="171.96875" height="112"/><text x="85.984375" y="12" class="sprotty-block-name" style="cursor:pointer;font-weight:700;perspective-origin:85.9844px 0px;fill:rgb(48, 48, 48);stroke:rgba(0, 0, 0, 0);dominant-baseline:middle;text-anchor:middle;">u_sync_2 : prim_flop</text><line x1="0" y1="20" x2="171.96875" y2="20"/></g><g id="sprotty_ArchitectureBlockImpl$prim_generic_flop_2sync/InstantiationBlockImpl$u_sync_2/BPortImpl$d_i" transform="translate(0, 94)" class="triangle"><path d="M 0,0 L 5,2.5 L 0,5 Z" transform="translate(-1.67, -2.5)" class="sprotty-port" style="fill:rgb(48, 48, 48);stroke:rgb(48, 48, 48);"/><text class="clickable sprotty-label port" id="sprotty_ArchitectureBlockImpl$prim_generic_flop_2sync/InstantiationBlockImpl$u_sync_2/BPortImpl$d_i/label" transform="translate(6, -9) translate(8.734375, 14)" style="cursor:default;font-size:12px;perspective-origin:0px 0px;fill:rgb(48, 48, 48);text-anchor:middle;">d_i</text></g><g id="sprotty_ArchitectureBlockImpl$prim_generic_flop_2sync/InstantiationBlockImpl$u_sync_2/BPortImpl$rst_ni" transform="translate(0, 66)" class="triangle"><path d="M 0,0 L 5,2.5 L 0,5 Z" transform="translate(-1.67, -2.5)" class="sprotty-port" style="fill:rgb(48, 48, 48);stroke:rgb(48, 48, 48);"/><text class="clickable sprotty-label port" id="sprotty_ArchitectureBlockImpl$prim_generic_flop_2sync/InstantiationBlockImpl$u_sync_2/BPortImpl$rst_ni/label" transform="translate(6, -9) translate(15.921875, 14)" style="cursor:default;font-size:12px;perspective-origin:0px 0px;fill:rgb(48, 48, 48);text-anchor:middle;">rst_ni</text></g><g id="sprotty_ArchitectureBlockImpl$prim_generic_flop_2sync/InstantiationBlockImpl$u_sync_2/BPortImpl$clk_i" transform="translate(0, 38)" class="triangle"><path d="M 0,0 L 5,2.5 L 0,5 Z" transform="translate(-1.67, -2.5)" class="sprotty-port" style="fill:rgb(48, 48, 48);stroke:rgb(48, 48, 48);"/><text class="clickable sprotty-label port" id="sprotty_ArchitectureBlockImpl$prim_generic_flop_2sync/InstantiationBlockImpl$u_sync_2/BPortImpl$clk_i/label" transform="translate(6, -9) translate(13.09375, 14)" style="cursor:default;font-size:12px;perspective-origin:0px 0px;fill:rgb(48, 48, 48);text-anchor:middle;">clk_i</text></g><g id="sprotty_ArchitectureBlockImpl$prim_generic_flop_2sync/InstantiationBlockImpl$u_sync_2/BPortImpl$q_o" transform="translate(171.96875, 66)" class="triangle"><path d="M 0,0 L 5,2.5 L 0,5 Z" transform="translate(-1.67, -2.5)" class="sprotty-port" style="fill:rgb(48, 48, 48);stroke:rgb(48, 48, 48);"/><text class="clickable sprotty-label port" id="sprotty_ArchitectureBlockImpl$prim_generic_flop_2sync/InstantiationBlockImpl$u_sync_2/BPortImpl$q_o/label" transform="translate(-27.4375, -9) translate(10.71875, 14)" style="cursor:default;font-size:12px;perspective-origin:0px 0px;fill:rgb(48, 48, 48);text-anchor:middle;">q_o</text></g></g><g id="sprotty_ArchitectureBlockImpl$prim_generic_flop_2sync/InstantiationBlockImpl$u_sync_1" transform="translate(82.84375, 82)" class="instantiation"><g class="sprotty-block" style="fill:rgb(255, 255, 255);stroke:rgb(48, 48, 48);stroke-dasharray:0px;"><rect x="0" y="0" rx="1" ry="1" width="171.96875" height="112"/><text x="85.984375" y="12" class="sprotty-block-name" style="cursor:pointer;font-weight:700;perspective-origin:85.9844px 0px;fill:rgb(48, 48, 48);stroke:rgba(0, 0, 0, 0);dominant-baseline:middle;text-anchor:middle;">u_sync_1 : prim_flop</text><line x1="0" y1="20" x2="171.96875" y2="20"/></g><g id="sprotty_ArchitectureBlockImpl$prim_generic_flop_2sync/InstantiationBlockImpl$u_sync_1/BPortImpl$d_i" transform="translate(0, 94)" class="triangle"><path d="M 0,0 L 5,2.5 L 0,5 Z" transform="translate(-1.67, -2.5)" class="sprotty-port" style="fill:rgb(48, 48, 48);stroke:rgb(48, 48, 48);"/><text class="clickable sprotty-label port" id="sprotty_ArchitectureBlockImpl$prim_generic_flop_2sync/InstantiationBlockImpl$u_sync_1/BPortImpl$d_i/label" transform="translate(6, -9) translate(8.734375, 14)" style="cursor:default;font-size:12px;perspective-origin:0px 0px;fill:rgb(48, 48, 48);text-anchor:middle;">d_i</text></g><g id="sprotty_ArchitectureBlockImpl$prim_generic_flop_2sync/InstantiationBlockImpl$u_sync_1/BPortImpl$rst_ni" transform="translate(0, 66)" class="triangle"><path d="M 0,0 L 5,2.5 L 0,5 Z" transform="translate(-1.67, -2.5)" class="sprotty-port" style="fill:rgb(48, 48, 48);stroke:rgb(48, 48, 48);"/><text class="clickable sprotty-label port" id="sprotty_ArchitectureBlockImpl$prim_generic_flop_2sync/InstantiationBlockImpl$u_sync_1/BPortImpl$rst_ni/label" transform="translate(6, -9) translate(15.921875, 14)" style="cursor:default;font-size:12px;perspective-origin:0px 0px;fill:rgb(48, 48, 48);text-anchor:middle;">rst_ni</text></g><g id="sprotty_ArchitectureBlockImpl$prim_generic_flop_2sync/InstantiationBlockImpl$u_sync_1/BPortImpl$clk_i" transform="translate(0, 38)" class="triangle"><path d="M 0,0 L 5,2.5 L 0,5 Z" transform="translate(-1.67, -2.5)" class="sprotty-port" style="fill:rgb(48, 48, 48);stroke:rgb(48, 48, 48);"/><text class="clickable sprotty-label port" id="sprotty_ArchitectureBlockImpl$prim_generic_flop_2sync/InstantiationBlockImpl$u_sync_1/BPortImpl$clk_i/label" transform="translate(6, -9) translate(13.09375, 14)" style="cursor:default;font-size:12px;perspective-origin:0px 0px;fill:rgb(48, 48, 48);text-anchor:middle;">clk_i</text></g><g id="sprotty_ArchitectureBlockImpl$prim_generic_flop_2sync/InstantiationBlockImpl$u_sync_1/BPortImpl$q_o" transform="translate(171.96875, 66)" class="triangle"><path d="M 0,0 L 5,2.5 L 0,5 Z" transform="translate(-1.67, -2.5)" class="sprotty-port" style="fill:rgb(48, 48, 48);stroke:rgb(48, 48, 48);"/><text class="clickable sprotty-label port" id="sprotty_ArchitectureBlockImpl$prim_generic_flop_2sync/InstantiationBlockImpl$u_sync_1/BPortImpl$q_o/label" transform="translate(-27.4375, -9) translate(10.71875, 14)" style="cursor:default;font-size:12px;perspective-origin:0px 0px;fill:rgb(48, 48, 48);text-anchor:middle;">q_o</text></g></g><g id="sprotty_ArchitectureBlockImpl$prim_generic_flop_2sync/BPortImpl$d_i" transform="translate(0, 176)" class="triangle"><path d="M 0,0 L 5,2.5 L 0,5 Z" transform="translate(-1.67, -2.5)" class="sprotty-port" style="fill:rgb(48, 48, 48);stroke:rgb(48, 48, 48);"/><text class="clickable sprotty-label port" id="sprotty_ArchitectureBlockImpl$prim_generic_flop_2sync/BPortImpl$d_i/label" transform="translate(6, 6) translate(8.734375, 14)" style="cursor:default;font-size:12px;perspective-origin:0px 0px;fill:rgb(48, 48, 48);text-anchor:middle;">d_i</text></g><g id="sprotty_ArchitectureBlockImpl$prim_generic_flop_2sync/BPortImpl$rst_ni" transform="translate(0, 70)" class="triangle"><path d="M 0,0 L 5,2.5 L 0,5 Z" transform="translate(-1.67, -2.5)" class="sprotty-port" style="fill:rgb(48, 48, 48);stroke:rgb(48, 48, 48);"/><text class="clickable sprotty-label port" id="sprotty_ArchitectureBlockImpl$prim_generic_flop_2sync/BPortImpl$rst_ni/label" transform="translate(6, 6) translate(15.921875, 14)" style="cursor:default;font-size:12px;perspective-origin:0px 0px;fill:rgb(48, 48, 48);text-anchor:middle;">rst_ni</text></g><g id="sprotty_ArchitectureBlockImpl$prim_generic_flop_2sync/BPortImpl$clk_i" transform="translate(0, 36)" class="triangle"><path d="M 0,0 L 5,2.5 L 0,5 Z" transform="translate(-1.67, -2.5)" class="sprotty-port" style="fill:rgb(48, 48, 48);stroke:rgb(48, 48, 48);"/><text class="clickable sprotty-label port" id="sprotty_ArchitectureBlockImpl$prim_generic_flop_2sync/BPortImpl$clk_i/label" transform="translate(6, 6) translate(13.09375, 14)" style="cursor:default;font-size:12px;perspective-origin:0px 0px;fill:rgb(48, 48, 48);text-anchor:middle;">clk_i</text></g><g id="sprotty_ArchitectureBlockImpl$prim_generic_flop_2sync/BPortImpl$q_o" transform="translate(499.21875, 120)" class="triangle"><path d="M 0,0 L 5,2.5 L 0,5 Z" transform="translate(-1.67, -2.5)" class="sprotty-port" style="fill:rgb(48, 48, 48);stroke:rgb(48, 48, 48);"/><text class="clickable sprotty-label port" id="sprotty_ArchitectureBlockImpl$prim_generic_flop_2sync/BPortImpl$q_o/label" transform="translate(-27.4375, 6) translate(10.71875, 14)" style="cursor:default;font-size:12px;perspective-origin:0px 0px;fill:rgb(48, 48, 48);text-anchor:middle;">q_o</text></g></g></g></svg>