<svg xmlns="http://www.w3.org/2000/svg" id="sprotty_work.ibex_counter" class="sprotty-graph sprotty-block-diagram blockdiagram" style="font-family:&quot;Noto Sans&quot;, Helvetica, Arial, sans-serif;perspective-origin:0px 0px;transform-origin:0px 0px;" version="1.1" viewBox="7 7 567.921875 261" width="567.921875" height="261"><g transform="scale(1) translate(0,0)"><g id="sprotty_ArchitectureBlockImpl$ibex_counter" transform="translate(12, 12)" class="architecture"><g class="sprotty-block" style="fill:rgb(255, 255, 255);stroke:rgb(48, 48, 48);stroke-dasharray:0px;"><rect x="0" y="0" rx="1" ry="1" width="557.921875" height="251"/><text x="278.9609375" y="12" class="sprotty-block-name" style="cursor:pointer;font-weight:700;perspective-origin:278.969px 0px;fill:rgb(48, 48, 48);stroke:rgba(0, 0, 0, 0);dominant-baseline:middle;text-anchor:middle;">ibex_counter</text><line x1="0" y1="20" x2="557.921875" y2="20"/></g><g id="sprotty_ArchitectureBlockImpl$ibex_counter/AssignmentBlockImpl$counter_val_o/GPortImpl$counter_val_oOUT_to_ArchitectureBlockImpl$ibex_counter/BPortImpl$counter_val_o" class="sprotty-edge thick edge" style="fill:none;stroke:rgb(112, 112, 112);stroke-linejoin:round;stroke-width:3px;"><g><path d="M 456.671875 116 L 557.921875 116 "/><path d="M 456.671875 116 L 557.921875 116 " class="clickable"/></g></g><g id="sprotty_ArchitectureBlockImpl$ibex_counter/BPortImpl$counter_we_i_to_ArchitectureBlockImpl$ibex_counter/AlwaysBlockImpl$null9/GPortImpl$counter_we_iIN" class="sprotty-edge edge" style="fill:none;stroke:rgb(112, 112, 112);stroke-linejoin:round;"><g><path d="M 0 138 L 144.59375 138 "/><path d="M 0 138 L 144.59375 138 " class="clickable"/></g></g><g id="sprotty_ArchitectureBlockImpl$ibex_counter/BPortImpl$counterh_we_i_to_ArchitectureBlockImpl$ibex_counter/AlwaysBlockImpl$null9/GPortImpl$counterh_we_iIN" class="sprotty-edge edge" style="fill:none;stroke:rgb(112, 112, 112);stroke-linejoin:round;"><g><path d="M 0 172 L 112.59375 172 C 113.59375 172 114.59375 171 114.59375 170 L 114.59375 150 C 114.59375 149 115.59375 148 116.59375 148 L 144.59375 148 "/><path d="M 0 172 L 112.59375 172 C 113.59375 172 114.59375 171 114.59375 170 L 114.59375 150 C 114.59375 149 115.59375 148 116.59375 148 L 144.59375 148 " class="clickable"/></g></g><g id="sprotty_ArchitectureBlockImpl$ibex_counter/BPortImpl$counter_val_i_to_ArchitectureBlockImpl$ibex_counter/AlwaysBlockImpl$null9/GPortImpl$counter_val_iIN" class="sprotty-edge thick edge" style="fill:none;stroke:rgb(112, 112, 112);stroke-linejoin:round;stroke-width:3px;"><g><path d="M 0 104 L 112.59375 104 C 113.59375 104 114.59375 105 114.59375 106 L 114.59375 126 C 114.59375 127 115.59375 128 116.59375 128 L 144.59375 128 "/><path d="M 0 104 L 112.59375 104 C 113.59375 104 114.59375 105 114.59375 106 L 114.59375 126 C 114.59375 127 115.59375 128 116.59375 128 L 144.59375 128 " class="clickable"/></g></g><g id="sprotty_ArchitectureBlockImpl$ibex_counter/BPortImpl$counter_inc_i_to_ArchitectureBlockImpl$ibex_counter/AlwaysBlockImpl$null9/GPortImpl$counter_inc_iIN" class="sprotty-edge edge" style="fill:none;stroke:rgb(112, 112, 112);stroke-linejoin:round;"><g><path d="M 0 206 L 122.59375 206 C 123.59375 206 124.59375 205 124.59375 204 L 124.59375 160 C 124.59375 159 125.59375 158 126.59375 158 L 144.59375 158 "/><path d="M 0 206 L 122.59375 206 C 123.59375 206 124.59375 205 124.59375 204 L 124.59375 160 C 124.59375 159 125.59375 158 126.59375 158 L 144.59375 158 " class="clickable"/></g></g><g id="sprotty_ArchitectureBlockImpl$ibex_counter/BPortImpl$clk_i_to_ArchitectureBlockImpl$ibex_counter/AlwaysBlockImpl$null8/GPortImpl$clk_iIN" class="sprotty-edge edge" style="fill:none;stroke:rgb(112, 112, 112);stroke-linejoin:round;"><g><path d="M 0 70 L 228.34375 70 "/><path d="M 0 70 L 228.34375 70 " class="clickable"/></g></g><g id="sprotty_ArchitectureBlockImpl$ibex_counter/BPortImpl$rst_ni_to_ArchitectureBlockImpl$ibex_counter/AlwaysBlockImpl$null8/GPortImpl$rst_niIN" class="sprotty-edge edge" style="fill:none;stroke:rgb(112, 112, 112);stroke-linejoin:round;"><g><path d="M 0 36 L 216.34375 36 C 217.34375 36 218.34375 37 218.34375 38 L 218.34375 58 C 218.34375 59 219.34375 60 220.34375 60 L 228.34375 60 "/><path d="M 0 36 L 216.34375 36 C 217.34375 36 218.34375 37 218.34375 38 L 218.34375 58 C 218.34375 59 219.34375 60 220.34375 60 L 228.34375 60 " class="clickable"/></g></g><g id="sprotty_ArchitectureBlockImpl$ibex_counter/GenerateStatementBlockImpl$null7/GPortImpl$counter_to_ArchitectureBlockImpl$ibex_counter/AssignmentBlockImpl$counter_val_o/GPortImpl$counterIN" class="sprotty-edge thick edge" style="fill:none;stroke:rgb(112, 112, 112);stroke-linejoin:round;stroke-width:3px;"><g><path d="M 416.953125 116 L 436.953125 116 "/><path d="M 416.953125 116 L 436.953125 116 " class="clickable"/></g></g><g id="sprotty_ArchitectureBlockImpl$ibex_counter/GenerateStatementBlockImpl$null7/GPortImpl$counter_to_ArchitectureBlockImpl$ibex_counter/AlwaysBlockImpl$null9/GPortImpl$counterIN" class="sprotty-edge thick edge" style="fill:none;stroke:rgb(112, 112, 112);stroke-linejoin:round;stroke-width:3px;"><g><path d="M 416.953125 116 L 424.953125 116 C 425.953125 116 426.953125 115 426.953125 114 L 426.953125 72 C 426.953125 71 425.953125 70 424.953125 70 L 289.234375 70 C 288.234375 70 287.234375 71 287.234375 72 L 287.234375 186 C 287.234375 187 286.234375 188 285.234375 188 L 136.59375 188 C 135.59375 188 134.59375 187 134.59375 186 L 134.59375 170 C 134.59375 169 135.59375 168 136.59375 168 L 144.59375 168 "/><path d="M 416.953125 116 L 424.953125 116 C 425.953125 116 426.953125 115 426.953125 114 L 426.953125 72 C 426.953125 71 425.953125 70 424.953125 70 L 289.234375 70 C 288.234375 70 287.234375 71 287.234375 72 L 287.234375 186 C 287.234375 187 286.234375 188 285.234375 188 L 136.59375 188 C 135.59375 188 134.59375 187 134.59375 186 L 134.59375 170 C 134.59375 169 135.59375 168 136.59375 168 L 144.59375 168 " class="clickable"/></g><circle r="3" id="sprotty_ArchitectureBlockImpl$ibex_counter/GenerateStatementBlockImpl$null7/GPortImpl$counter_to_ArchitectureBlockImpl$ibex_counter/AlwaysBlockImpl$null9/GPortImpl$counterIN/junction0" transform="translate(287.234375, 70)" class="sprotty-junction thick" style="fill:rgb(112, 112, 112);stroke:none;"/></g><g id="sprotty_ArchitectureBlockImpl$ibex_counter/GenerateStatementBlockImpl$null7/GPortImpl$counter1_to_ArchitectureBlockImpl$ibex_counter/AssignmentBlockImpl$counter_val_o/GPortImpl$counterIN" class="sprotty-edge thick edge" style="fill:none;stroke:rgb(112, 112, 112);stroke-linejoin:round;stroke-width:3px;"><g><path d="M 416.953125 210 L 424.953125 210 C 425.953125 210 426.953125 209 426.953125 208 L 426.953125 118 C 426.953125 117 427.953125 116 428.953125 116 L 436.953125 116 "/><path d="M 416.953125 210 L 424.953125 210 C 425.953125 210 426.953125 209 426.953125 208 L 426.953125 118 C 426.953125 117 427.953125 116 428.953125 116 L 436.953125 116 " class="clickable"/></g></g><g id="sprotty_ArchitectureBlockImpl$ibex_counter/AlwaysBlockImpl$null9/GPortImpl$counter_dOUT_to_ArchitectureBlockImpl$ibex_counter/AlwaysBlockImpl$null8/GPortImpl$counter_dIN" class="sprotty-edge thick edge" style="fill:none;stroke:rgb(112, 112, 112);stroke-linejoin:round;stroke-width:3px;"><g><path d="M 208.34375 148 L 216.34375 148 C 217.34375 148 218.34375 147 218.34375 146 L 218.34375 82 C 218.34375 81 219.34375 80 220.34375 80 L 228.34375 80 "/><path d="M 208.34375 148 L 216.34375 148 C 217.34375 148 218.34375 147 218.34375 146 L 218.34375 82 C 218.34375 81 219.34375 80 220.34375 80 L 228.34375 80 " class="clickable"/></g></g><g id="sprotty_ArchitectureBlockImpl$ibex_counter/AlwaysBlockImpl$null8/GPortImpl$counter_qOUT_to_ArchitectureBlockImpl$ibex_counter/GenerateStatementBlockImpl$null7/GPortImpl$counter" class="sprotty-edge thick edge" style="fill:none;stroke:rgb(112, 112, 112);stroke-linejoin:round;stroke-width:3px;"><g><path d="M 277.234375 70 L 424.953125 70 C 425.953125 70 426.953125 71 426.953125 72 L 426.953125 114 C 426.953125 115 425.953125 116 424.953125 116 L 416.953125 116 "/><path d="M 277.234375 70 L 424.953125 70 C 425.953125 70 426.953125 71 426.953125 72 L 426.953125 114 C 426.953125 115 425.953125 116 424.953125 116 L 416.953125 116 " class="clickable"/></g><circle r="3" id="sprotty_ArchitectureBlockImpl$ibex_counter/AlwaysBlockImpl$null8/GPortImpl$counter_qOUT_to_ArchitectureBlockImpl$ibex_counter/GenerateStatementBlockImpl$null7/GPortImpl$counter/junction0" transform="translate(426.953125, 116)" class="sprotty-junction thick" style="fill:rgb(112, 112, 112);stroke:none;"/></g><g id="sprotty_ArchitectureBlockImpl$ibex_counter/GenerateStatementBlockImpl$null7" transform="translate(297.234375, 80)" class="generate"><g class="sprotty-block sprotty-block-generate" style="fill:rgb(255, 255, 255);stroke:rgb(48, 48, 48);stroke-dasharray:0px;"><rect x="0" y="0" rx="1" ry="1" width="119.71875" height="156" style="stroke-dasharray:3px, 1px;"/><text x="59.859375" y="12" class="sprotty-block-name" style="cursor:pointer;font-weight:700;fill:rgb(48, 48, 48);stroke:rgba(0, 0, 0, 0);dominant-baseline:middle;text-anchor:middle;"/>undefined</g><g id="sprotty_ArchitectureBlockImpl$ibex_counter/GenerateStatementBlockImpl$null7/AssignmentBlockImpl$counter2/GPortImpl$counter_qOUT_to_ArchitectureBlockImpl$ibex_counter/GenerateStatementBlockImpl$null7/GPortImpl$counter" class="sprotty-edge thick edge" style="fill:none;stroke:rgb(112, 112, 112);stroke-linejoin:round;stroke-width:3px;"><g><path d="M 84.71875 78 L 92.71875 78 C 93.71875 78 94.71875 77 94.71875 76 L 94.71875 38 C 94.71875 37 95.71875 36 96.71875 36 L 119.71875 36 "/><path d="M 84.71875 78 L 92.71875 78 C 93.71875 78 94.71875 77 94.71875 76 L 94.71875 38 C 94.71875 37 95.71875 36 96.71875 36 L 119.71875 36 " class="clickable"/></g><circle r="3" id="sprotty_ArchitectureBlockImpl$ibex_counter/GenerateStatementBlockImpl$null7/AssignmentBlockImpl$counter2/GPortImpl$counter_qOUT_to_ArchitectureBlockImpl$ibex_counter/GenerateStatementBlockImpl$null7/GPortImpl$counter/junction0" transform="translate(94.71875, 78)" class="sprotty-junction thick" style="fill:rgb(112, 112, 112);stroke:none;"/></g><g id="sprotty_ArchitectureBlockImpl$ibex_counter/GenerateStatementBlockImpl$null7/AssignmentBlockImpl$counter1/GPortImpl$counterOUT_to_ArchitectureBlockImpl$ibex_counter/GenerateStatementBlockImpl$null7/GPortImpl$counter1" class="sprotty-edge thick edge" style="fill:none;stroke:rgb(112, 112, 112);stroke-linejoin:round;stroke-width:3px;"><g><path d="M 74.71875 130 L 119.71875 130 "/><path d="M 74.71875 130 L 119.71875 130 " class="clickable"/></g></g><g id="sprotty_ArchitectureBlockImpl$ibex_counter/GenerateStatementBlockImpl$null7/AssignmentBlockImpl$counter/GPortImpl$counter_qOUT_to_ArchitectureBlockImpl$ibex_counter/GenerateStatementBlockImpl$null7/GPortImpl$counter" class="sprotty-edge thick edge" style="fill:none;stroke:rgb(112, 112, 112);stroke-linejoin:round;stroke-width:3px;"><g><path d="M 84.71875 36 L 119.71875 36 "/><path d="M 84.71875 36 L 119.71875 36 " class="clickable"/></g></g><g id="sprotty_ArchitectureBlockImpl$ibex_counter/GenerateStatementBlockImpl$null7/GPortImpl$counter_to_ArchitectureBlockImpl$ibex_counter/GenerateStatementBlockImpl$null7/AssignmentBlockImpl$counter2/GPortImpl$counter_qIN" class="sprotty-edge thick edge" style="fill:none;stroke:rgb(112, 112, 112);stroke-linejoin:round;stroke-width:3px;"><g><path d="M 119.71875 36 L 96.71875 36 C 95.71875 36 94.71875 37 94.71875 38 L 94.71875 97 C 94.71875 98 93.71875 99 92.71875 99 L 57 99 C 56 99 55 98 55 97 L 55 80 C 55 79 56 78 57 78 L 65 78 "/><path d="M 119.71875 36 L 96.71875 36 C 95.71875 36 94.71875 37 94.71875 38 L 94.71875 97 C 94.71875 98 93.71875 99 92.71875 99 L 57 99 C 56 99 55 98 55 97 L 55 80 C 55 79 56 78 57 78 L 65 78 " class="clickable"/></g></g><g id="sprotty_ArchitectureBlockImpl$ibex_counter/GenerateStatementBlockImpl$null7/GPortImpl$counter_to_ArchitectureBlockImpl$ibex_counter/GenerateStatementBlockImpl$null7/AssignmentBlockImpl$counter/GPortImpl$counter_qIN" class="sprotty-edge thick edge" style="fill:none;stroke:rgb(112, 112, 112);stroke-linejoin:round;stroke-width:3px;"><g><path d="M 119.71875 36 L 96.71875 36 C 95.71875 36 94.71875 35 94.71875 34 L 94.71875 17 C 94.71875 16 93.71875 15 92.71875 15 L 57 15 C 56 15 55 16 55 17 L 55 34 C 55 35 56 36 57 36 L 65 36 "/><path d="M 119.71875 36 L 96.71875 36 C 95.71875 36 94.71875 35 94.71875 34 L 94.71875 17 C 94.71875 16 93.71875 15 92.71875 15 L 57 15 C 56 15 55 16 55 17 L 55 34 C 55 35 56 36 57 36 L 65 36 " class="clickable"/></g><circle r="3" id="sprotty_ArchitectureBlockImpl$ibex_counter/GenerateStatementBlockImpl$null7/GPortImpl$counter_to_ArchitectureBlockImpl$ibex_counter/GenerateStatementBlockImpl$null7/AssignmentBlockImpl$counter/GPortImpl$counter_qIN/junction0" transform="translate(94.71875, 36)" class="sprotty-junction thick" style="fill:rgb(112, 112, 112);stroke:none;"/></g><g id="sprotty_ArchitectureBlockImpl$ibex_counter/GenerateStatementBlockImpl$null7/AssignmentBlockImpl$counter" transform="translate(65, 25)" class="statement"><rect x="0" y="0" rx="10" ry="5" width="19.71875" height="22" class="sprotty-node" style="fill:rgb(245, 245, 245);stroke:rgb(112, 112, 112);"/><text class="clickable sprotty-label statementtype" id="sprotty_ArchitectureBlockImpl$ibex_counter/GenerateStatementBlockImpl$null7/AssignmentBlockImpl$counter/labeltype" transform="translate(5, 5) translate(4.71875, 9)" style="cursor:default;font-size:8px;font-weight:700;perspective-origin:0.140625px 0px;fill:rgb(112, 112, 112);text-anchor:middle;">&lt;=</text><g id="sprotty_ArchitectureBlockImpl$ibex_counter/GenerateStatementBlockImpl$null7/AssignmentBlockImpl$counter/GPortImpl$counter_qIN" transform="translate(0, 11)" class="sprotty-hidden hidden" style="display:block;height:0px;width:0px;"/><g id="sprotty_ArchitectureBlockImpl$ibex_counter/GenerateStatementBlockImpl$null7/AssignmentBlockImpl$counter/GPortImpl$counter_qOUT" transform="translate(19.71875, 11)" class="sprotty-hidden hidden" style="display:block;height:0px;width:0px;"/></g><g id="sprotty_ArchitectureBlockImpl$ibex_counter/GenerateStatementBlockImpl$null7/AssignmentBlockImpl$unused_counter_load" transform="translate(15, 15)" class="statement"><rect x="0" y="0" rx="10" ry="5" width="19.71875" height="22" class="sprotty-node" style="fill:rgb(245, 245, 245);stroke:rgb(112, 112, 112);"/><text class="clickable sprotty-label statementtype" id="sprotty_ArchitectureBlockImpl$ibex_counter/GenerateStatementBlockImpl$null7/AssignmentBlockImpl$unused_counter_load/labeltype" transform="translate(5, 5) translate(4.71875, 9)" style="cursor:default;font-size:8px;font-weight:700;perspective-origin:0.140625px 0px;fill:rgb(112, 112, 112);text-anchor:middle;">&lt;=</text></g><g id="sprotty_ArchitectureBlockImpl$ibex_counter/GenerateStatementBlockImpl$null7/AssignmentBlockImpl$counter1" transform="translate(55, 119)" class="statement"><rect x="0" y="0" rx="10" ry="5" width="19.71875" height="22" class="sprotty-node" style="fill:rgb(245, 245, 245);stroke:rgb(112, 112, 112);"/><text class="clickable sprotty-label statementtype" id="sprotty_ArchitectureBlockImpl$ibex_counter/GenerateStatementBlockImpl$null7/AssignmentBlockImpl$counter1/labeltype" transform="translate(5, 5) translate(4.71875, 9)" style="cursor:default;font-size:8px;font-weight:700;perspective-origin:0.140625px 0px;fill:rgb(112, 112, 112);text-anchor:middle;">&lt;=</text><g id="sprotty_ArchitectureBlockImpl$ibex_counter/GenerateStatementBlockImpl$null7/AssignmentBlockImpl$counter1/GPortImpl$counterOUT" transform="translate(19.71875, 11)" class="sprotty-hidden hidden" style="display:block;height:0px;width:0px;"/></g><g id="sprotty_ArchitectureBlockImpl$ibex_counter/GenerateStatementBlockImpl$null7/AssignmentBlockImpl$counter2" transform="translate(65, 67)" class="statement"><rect x="0" y="0" rx="10" ry="5" width="19.71875" height="22" class="sprotty-node" style="fill:rgb(245, 245, 245);stroke:rgb(112, 112, 112);"/><text class="clickable sprotty-label statementtype" id="sprotty_ArchitectureBlockImpl$ibex_counter/GenerateStatementBlockImpl$null7/AssignmentBlockImpl$counter2/labeltype" transform="translate(5, 5) translate(4.71875, 9)" style="cursor:default;font-size:8px;font-weight:700;perspective-origin:0.140625px 0px;fill:rgb(112, 112, 112);text-anchor:middle;">&lt;=</text><g id="sprotty_ArchitectureBlockImpl$ibex_counter/GenerateStatementBlockImpl$null7/AssignmentBlockImpl$counter2/GPortImpl$counter_qIN" transform="translate(0, 11)" class="sprotty-hidden hidden" style="display:block;height:0px;width:0px;"/><g id="sprotty_ArchitectureBlockImpl$ibex_counter/GenerateStatementBlockImpl$null7/AssignmentBlockImpl$counter2/GPortImpl$counter_qOUT" transform="translate(19.71875, 11)" class="sprotty-hidden hidden" style="display:block;height:0px;width:0px;"/></g><g id="sprotty_ArchitectureBlockImpl$ibex_counter/GenerateStatementBlockImpl$null7/GPortImpl$counter" transform="translate(119.71875, 36)" class="triangle"><path d="M 0,0 L 5,2.5 L 0,5 Z" transform="translate(-1.67, -2.5)" class="sprotty-port" style="fill:rgb(48, 48, 48);stroke:rgb(48, 48, 48);"/></g><g id="sprotty_ArchitectureBlockImpl$ibex_counter/GenerateStatementBlockImpl$null7/GPortImpl$counter1" transform="translate(119.71875, 130)" class="triangle"><path d="M 0,0 L 5,2.5 L 0,5 Z" transform="translate(-1.67, -2.5)" class="sprotty-port" style="fill:rgb(48, 48, 48);stroke:rgb(48, 48, 48);"/></g></g><g id="sprotty_ArchitectureBlockImpl$ibex_counter/AlwaysBlockImpl$null8" transform="translate(228.34375, 50)" class="statement"><rect x="0" y="0" rx="10" ry="5" width="48.890625" height="40" class="sprotty-node" style="fill:rgb(245, 245, 245);stroke:rgb(112, 112, 112);"/><text class="clickable sprotty-label statementtype" id="sprotty_ArchitectureBlockImpl$ibex_counter/AlwaysBlockImpl$null8/labeltype" transform="translate(5, 14) translate(18.828125, 9)" style="cursor:default;font-size:8px;font-weight:700;perspective-origin:0.609375px 0px;fill:rgb(112, 112, 112);text-anchor:middle;">always_ff</text><g id="sprotty_ArchitectureBlockImpl$ibex_counter/AlwaysBlockImpl$null8/GPortImpl$counter_dIN" transform="translate(0, 30)" class="sprotty-hidden hidden" style="display:block;height:0px;width:0px;"/><g id="sprotty_ArchitectureBlockImpl$ibex_counter/AlwaysBlockImpl$null8/GPortImpl$rst_niIN" transform="translate(0, 10)" class="sprotty-hidden hidden" style="display:block;height:0px;width:0px;"/><g id="sprotty_ArchitectureBlockImpl$ibex_counter/AlwaysBlockImpl$null8/GPortImpl$clk_iIN" transform="translate(0, 20)" class="sprotty-hidden hidden" style="display:block;height:0px;width:0px;"/><g id="sprotty_ArchitectureBlockImpl$ibex_counter/AlwaysBlockImpl$null8/GPortImpl$counter_qOUT" transform="translate(48.890625, 20)" class="sprotty-hidden hidden" style="display:block;height:0px;width:0px;"/></g><g id="sprotty_ArchitectureBlockImpl$ibex_counter/AlwaysBlockImpl$null9" transform="translate(144.59375, 118)" class="statement"><rect x="0" y="0" rx="10" ry="5" width="63.75" height="60" class="sprotty-node" style="fill:rgb(245, 245, 245);stroke:rgb(112, 112, 112);"/><text class="clickable sprotty-label statementtype" id="sprotty_ArchitectureBlockImpl$ibex_counter/AlwaysBlockImpl$null9/labeltype" transform="translate(5, 24) translate(26.875, 9)" style="cursor:default;font-size:8px;font-weight:700;perspective-origin:0px 0px;fill:rgb(112, 112, 112);text-anchor:middle;">always_comb</text><g id="sprotty_ArchitectureBlockImpl$ibex_counter/AlwaysBlockImpl$null9/GPortImpl$counter_inc_iIN" transform="translate(0, 40)" class="sprotty-hidden hidden" style="display:block;height:0px;width:0px;"/><g id="sprotty_ArchitectureBlockImpl$ibex_counter/AlwaysBlockImpl$null9/GPortImpl$counter_val_iIN" transform="translate(0, 10)" class="sprotty-hidden hidden" style="display:block;height:0px;width:0px;"/><g id="sprotty_ArchitectureBlockImpl$ibex_counter/AlwaysBlockImpl$null9/GPortImpl$counterIN" transform="translate(0, 50)" class="sprotty-hidden hidden" style="display:block;height:0px;width:0px;"/><g id="sprotty_ArchitectureBlockImpl$ibex_counter/AlwaysBlockImpl$null9/GPortImpl$counterh_we_iIN" transform="translate(0, 30)" class="sprotty-hidden hidden" style="display:block;height:0px;width:0px;"/><g id="sprotty_ArchitectureBlockImpl$ibex_counter/AlwaysBlockImpl$null9/GPortImpl$counter_we_iIN" transform="translate(0, 20)" class="sprotty-hidden hidden" style="display:block;height:0px;width:0px;"/><g id="sprotty_ArchitectureBlockImpl$ibex_counter/AlwaysBlockImpl$null9/GPortImpl$counter_dOUT" transform="translate(63.75, 30)" class="sprotty-hidden hidden" style="display:block;height:0px;width:0px;"/></g><g id="sprotty_ArchitectureBlockImpl$ibex_counter/AssignmentBlockImpl$counter_val_o" transform="translate(436.953125, 105)" class="statement"><rect x="0" y="0" rx="10" ry="5" width="19.71875" height="22" class="sprotty-node" style="fill:rgb(245, 245, 245);stroke:rgb(112, 112, 112);"/><text class="clickable sprotty-label statementtype" id="sprotty_ArchitectureBlockImpl$ibex_counter/AssignmentBlockImpl$counter_val_o/labeltype" transform="translate(5, 5) translate(4.71875, 9)" style="cursor:default;font-size:8px;font-weight:700;perspective-origin:0.140625px 0px;fill:rgb(112, 112, 112);text-anchor:middle;">&lt;=</text><g id="sprotty_ArchitectureBlockImpl$ibex_counter/AssignmentBlockImpl$counter_val_o/GPortImpl$counterIN" transform="translate(0, 11)" class="sprotty-hidden hidden" style="display:block;height:0px;width:0px;"/><g id="sprotty_ArchitectureBlockImpl$ibex_counter/AssignmentBlockImpl$counter_val_o/GPortImpl$counter_val_oOUT" transform="translate(19.71875, 11)" class="sprotty-hidden hidden" style="display:block;height:0px;width:0px;"/></g><g id="sprotty_ArchitectureBlockImpl$ibex_counter/BPortImpl$counter_val_i" transform="translate(0, 104)" class="triangle"><path d="M 0,0 L 5,2.5 L 0,5 Z" transform="translate(-1.67, -2.5)" class="sprotty-port" style="fill:rgb(48, 48, 48);stroke:rgb(48, 48, 48);"/><text class="clickable sprotty-label port" id="sprotty_ArchitectureBlockImpl$ibex_counter/BPortImpl$counter_val_i/label" transform="translate(6, 6) translate(38.125, 14)" style="cursor:default;font-size:12px;perspective-origin:0px 0px;fill:rgb(48, 48, 48);text-anchor:middle;">counter_val_i</text></g><g id="sprotty_ArchitectureBlockImpl$ibex_counter/BPortImpl$counter_we_i" transform="translate(0, 138)" class="triangle"><path d="M 0,0 L 5,2.5 L 0,5 Z" transform="translate(-1.67, -2.5)" class="sprotty-port" style="fill:rgb(48, 48, 48);stroke:rgb(48, 48, 48);"/><text class="clickable sprotty-label port" id="sprotty_ArchitectureBlockImpl$ibex_counter/BPortImpl$counter_we_i/label" transform="translate(6, 6) translate(38.15625, 14)" style="cursor:default;font-size:12px;perspective-origin:0px 0px;fill:rgb(48, 48, 48);text-anchor:middle;">counter_we_i</text></g><g id="sprotty_ArchitectureBlockImpl$ibex_counter/BPortImpl$counterh_we_i" transform="translate(0, 172)" class="triangle"><path d="M 0,0 L 5,2.5 L 0,5 Z" transform="translate(-1.67, -2.5)" class="sprotty-port" style="fill:rgb(48, 48, 48);stroke:rgb(48, 48, 48);"/><text class="clickable sprotty-label port" id="sprotty_ArchitectureBlockImpl$ibex_counter/BPortImpl$counterh_we_i/label" transform="translate(6, 6) translate(41.796875, 14)" style="cursor:default;font-size:12px;perspective-origin:0px 0px;fill:rgb(48, 48, 48);text-anchor:middle;">counterh_we_i</text></g><g id="sprotty_ArchitectureBlockImpl$ibex_counter/BPortImpl$counter_inc_i" transform="translate(0, 206)" class="triangle"><path d="M 0,0 L 5,2.5 L 0,5 Z" transform="translate(-1.67, -2.5)" class="sprotty-port" style="fill:rgb(48, 48, 48);stroke:rgb(48, 48, 48);"/><text class="clickable sprotty-label port" id="sprotty_ArchitectureBlockImpl$ibex_counter/BPortImpl$counter_inc_i/label" transform="translate(6, 6) translate(38.421875, 14)" style="cursor:default;font-size:12px;perspective-origin:0px 0px;fill:rgb(48, 48, 48);text-anchor:middle;">counter_inc_i</text></g><g id="sprotty_ArchitectureBlockImpl$ibex_counter/BPortImpl$rst_ni" transform="translate(0, 36)" class="triangle"><path d="M 0,0 L 5,2.5 L 0,5 Z" transform="translate(-1.67, -2.5)" class="sprotty-port" style="fill:rgb(48, 48, 48);stroke:rgb(48, 48, 48);"/><text class="clickable sprotty-label port" id="sprotty_ArchitectureBlockImpl$ibex_counter/BPortImpl$rst_ni/label" transform="translate(6, 6) translate(15.921875, 14)" style="cursor:default;font-size:12px;perspective-origin:0px 0px;fill:rgb(48, 48, 48);text-anchor:middle;">rst_ni</text></g><g id="sprotty_ArchitectureBlockImpl$ibex_counter/BPortImpl$clk_i" transform="translate(0, 70)" class="triangle"><path d="M 0,0 L 5,2.5 L 0,5 Z" transform="translate(-1.67, -2.5)" class="sprotty-port" style="fill:rgb(48, 48, 48);stroke:rgb(48, 48, 48);"/><text class="clickable sprotty-label port" id="sprotty_ArchitectureBlockImpl$ibex_counter/BPortImpl$clk_i/label" transform="translate(6, 6) translate(13.09375, 14)" style="cursor:default;font-size:12px;perspective-origin:0px 0px;fill:rgb(48, 48, 48);text-anchor:middle;">clk_i</text></g><g id="sprotty_ArchitectureBlockImpl$ibex_counter/BPortImpl$counter_val_o" transform="translate(557.921875, 116)" class="triangle"><path d="M 0,0 L 5,2.5 L 0,5 Z" transform="translate(-1.67, -2.5)" class="sprotty-port" style="fill:rgb(48, 48, 48);stroke:rgb(48, 48, 48);"/><text class="clickable sprotty-label port" id="sprotty_ArchitectureBlockImpl$ibex_counter/BPortImpl$counter_val_o/label" transform="translate(-86.25, 6) translate(40.125, 14)" style="cursor:default;font-size:12px;perspective-origin:0px 0px;fill:rgb(48, 48, 48);text-anchor:middle;">counter_val_o</text></g></g></g></svg>