<svg xmlns="http://www.w3.org/2000/svg" id="sprotty_work.spi_s2p" class="sprotty-graph sprotty-block-diagram blockdiagram" style="font-family:&quot;Noto Sans&quot;, Helvetica, Arial, sans-serif;perspective-origin:0px 0px;transform-origin:0px 0px;" version="1.1" viewBox="7 7 396.796875 331" width="396.796875" height="331"><g transform="scale(1) translate(0,0)"><g id="sprotty_ArchitectureBlockImpl$spi_s2p" transform="translate(12, 12)" class="architecture"><g class="sprotty-block" style="fill:rgb(255, 255, 255);stroke:rgb(48, 48, 48);stroke-dasharray:0px;"><rect x="0" y="0" rx="1" ry="1" width="386.796875" height="321"/><text x="193.3984375" y="12" class="sprotty-block-name" style="cursor:pointer;font-weight:700;perspective-origin:193.391px 0px;fill:rgb(48, 48, 48);stroke:rgba(0, 0, 0, 0);dominant-baseline:middle;text-anchor:middle;">spi_s2p</text><line x1="0" y1="20" x2="386.796875" y2="20"/></g><g id="sprotty_ArchitectureBlockImpl$spi_s2p/AlwaysBlockImpl$null8/GPortImpl$data_valid_oOUT_to_ArchitectureBlockImpl$spi_s2p/BPortImpl$data_valid_o" class="sprotty-edge edge" style="fill:none;stroke:rgb(112, 112, 112);stroke-linejoin:round;"><g><path d="M 253.421875 63 L 386.796875 63 "/><path d="M 253.421875 63 L 386.796875 63 " class="clickable"/></g></g><g id="sprotty_ArchitectureBlockImpl$spi_s2p/AssignmentBlockImpl$data_o/GPortImpl$data_oOUT_to_ArchitectureBlockImpl$spi_s2p/BPortImpl$data_o" class="sprotty-edge thick edge" style="fill:none;stroke:rgb(112, 112, 112);stroke-linejoin:round;stroke-width:3px;"><g><path d="M 293.140625 183 L 386.796875 183 "/><path d="M 293.140625 183 L 386.796875 183 " class="clickable"/></g></g><g id="sprotty_ArchitectureBlockImpl$spi_s2p/AssignmentBlockImpl$bitcnt_o/GPortImpl$bitcnt_oOUT_to_ArchitectureBlockImpl$spi_s2p/BPortImpl$bitcnt_o" class="sprotty-edge thick edge" style="fill:none;stroke:rgb(112, 112, 112);stroke-linejoin:round;stroke-width:3px;"><g><path d="M 231.40625 128 L 386.796875 128 "/><path d="M 231.40625 128 L 386.796875 128 " class="clickable"/></g></g><g id="sprotty_ArchitectureBlockImpl$spi_s2p/BPortImpl$io_mode_i_to_ArchitectureBlockImpl$spi_s2p/AlwaysBlockImpl$null12/GPortImpl$io_mode_iIN" class="sprotty-edge thick edge" style="fill:none;stroke:rgb(112, 112, 112);stroke-linejoin:round;stroke-width:3px;"><g><path d="M 0 36 L 177.671875 36 C 178.671875 36 179.671875 37 179.671875 38 L 179.671875 176 C 179.671875 177 180.671875 178 181.671875 178 L 189.671875 178 "/><path d="M 0 36 L 177.671875 36 C 178.671875 36 179.671875 37 179.671875 38 L 179.671875 176 C 179.671875 177 180.671875 178 181.671875 178 L 189.671875 178 " class="clickable"/></g></g><g id="sprotty_ArchitectureBlockImpl$spi_s2p/BPortImpl$clk_i_to_ArchitectureBlockImpl$spi_s2p/AlwaysBlockImpl$null11/GPortImpl$clk_iIN" class="sprotty-edge edge" style="fill:none;stroke:rgb(112, 112, 112);stroke-linejoin:round;"><g><path d="M 0 128 L 88.78125 128 C 89.78125 128 90.78125 129 90.78125 130 L 90.78125 176 C 90.78125 177 91.78125 178 92.78125 178 L 120.78125 178 "/><path d="M 0 128 L 88.78125 128 C 89.78125 128 90.78125 129 90.78125 130 L 90.78125 176 C 90.78125 177 91.78125 178 92.78125 178 L 120.78125 178 " class="clickable"/></g><circle r="2" id="sprotty_ArchitectureBlockImpl$spi_s2p/BPortImpl$clk_i_to_ArchitectureBlockImpl$spi_s2p/AlwaysBlockImpl$null11/GPortImpl$clk_iIN/junction0" transform="translate(90.78125, 128)" class="sprotty-junction junction" style="fill:rgb(112, 112, 112);stroke:none;"/></g><g id="sprotty_ArchitectureBlockImpl$spi_s2p/BPortImpl$rst_ni_to_ArchitectureBlockImpl$spi_s2p/AlwaysBlockImpl$null11/GPortImpl$rst_niIN" class="sprotty-edge edge" style="fill:none;stroke:rgb(112, 112, 112);stroke-linejoin:round;"><g><path d="M 0 188 L 120.78125 188 "/><path d="M 0 188 L 120.78125 188 " class="clickable"/></g></g><g id="sprotty_ArchitectureBlockImpl$spi_s2p/BPortImpl$clk_i_to_ArchitectureBlockImpl$spi_s2p/AlwaysBlockImpl$null10/GPortImpl$clk_iIN" class="sprotty-edge edge" style="fill:none;stroke:rgb(112, 112, 112);stroke-linejoin:round;"><g><path d="M 0 128 L 120.78125 128 "/><path d="M 0 128 L 120.78125 128 " class="clickable"/></g></g><g id="sprotty_ArchitectureBlockImpl$spi_s2p/BPortImpl$rst_ni_to_ArchitectureBlockImpl$spi_s2p/AlwaysBlockImpl$null10/GPortImpl$rst_niIN" class="sprotty-edge edge" style="fill:none;stroke:rgb(112, 112, 112);stroke-linejoin:round;"><g><path d="M 0 188 L 98.78125 188 C 99.78125 188 100.78125 187 100.78125 186 L 100.78125 140 C 100.78125 139 101.78125 138 102.78125 138 L 120.78125 138 "/><path d="M 0 188 L 98.78125 188 C 99.78125 188 100.78125 187 100.78125 186 L 100.78125 140 C 100.78125 139 101.78125 138 102.78125 138 L 120.78125 138 " class="clickable"/></g><circle r="2" id="sprotty_ArchitectureBlockImpl$spi_s2p/BPortImpl$rst_ni_to_ArchitectureBlockImpl$spi_s2p/AlwaysBlockImpl$null10/GPortImpl$rst_niIN/junction0" transform="translate(100.78125, 188)" class="sprotty-junction junction" style="fill:rgb(112, 112, 112);stroke:none;"/><circle r="2" id="sprotty_ArchitectureBlockImpl$spi_s2p/BPortImpl$rst_ni_to_ArchitectureBlockImpl$spi_s2p/AlwaysBlockImpl$null10/GPortImpl$rst_niIN/junction1" transform="translate(100.78125, 138)" class="sprotty-junction junction" style="fill:rgb(112, 112, 112);stroke:none;"/></g><g id="sprotty_ArchitectureBlockImpl$spi_s2p/BPortImpl$io_mode_i_to_ArchitectureBlockImpl$spi_s2p/AlwaysBlockImpl$null10/GPortImpl$io_mode_iIN" class="sprotty-edge thick edge" style="fill:none;stroke:rgb(112, 112, 112);stroke-linejoin:round;stroke-width:3px;"><g><path d="M 0 36 L 108.78125 36 C 109.78125 36 110.78125 37 110.78125 38 L 110.78125 116 C 110.78125 117 111.78125 118 112.78125 118 L 120.78125 118 "/><path d="M 0 36 L 108.78125 36 C 109.78125 36 110.78125 37 110.78125 38 L 110.78125 116 C 110.78125 117 111.78125 118 112.78125 118 L 120.78125 118 " class="clickable"/></g><circle r="3" id="sprotty_ArchitectureBlockImpl$spi_s2p/BPortImpl$io_mode_i_to_ArchitectureBlockImpl$spi_s2p/AlwaysBlockImpl$null10/GPortImpl$io_mode_iIN/junction0" transform="translate(110.78125, 36)" class="sprotty-junction thick" style="fill:rgb(112, 112, 112);stroke:none;"/></g><g id="sprotty_ArchitectureBlockImpl$spi_s2p/BPortImpl$clk_i_to_ArchitectureBlockImpl$spi_s2p/AlwaysBlockImpl$null9/GPortImpl$clk_iIN" class="sprotty-edge edge" style="fill:none;stroke:rgb(112, 112, 112);stroke-linejoin:round;"><g><path d="M 0 128 L 88.78125 128 C 89.78125 128 90.78125 127 90.78125 126 L 90.78125 70 C 90.78125 69 91.78125 68 92.78125 68 L 120.78125 68 "/><path d="M 0 128 L 88.78125 128 C 89.78125 128 90.78125 127 90.78125 126 L 90.78125 70 C 90.78125 69 91.78125 68 92.78125 68 L 120.78125 68 " class="clickable"/></g></g><g id="sprotty_ArchitectureBlockImpl$spi_s2p/BPortImpl$rst_ni_to_ArchitectureBlockImpl$spi_s2p/AlwaysBlockImpl$null9/GPortImpl$rst_niIN" class="sprotty-edge edge" style="fill:none;stroke:rgb(112, 112, 112);stroke-linejoin:round;"><g><path d="M 0 188 L 98.78125 188 C 99.78125 188 100.78125 187 100.78125 186 L 100.78125 80 C 100.78125 79 101.78125 78 102.78125 78 L 120.78125 78 "/><path d="M 0 188 L 98.78125 188 C 99.78125 188 100.78125 187 100.78125 186 L 100.78125 80 C 100.78125 79 101.78125 78 102.78125 78 L 120.78125 78 " class="clickable"/></g></g><g id="sprotty_ArchitectureBlockImpl$spi_s2p/BPortImpl$io_mode_i_to_ArchitectureBlockImpl$spi_s2p/AlwaysBlockImpl$null9/GPortImpl$io_mode_iIN" class="sprotty-edge thick edge" style="fill:none;stroke:rgb(112, 112, 112);stroke-linejoin:round;stroke-width:3px;"><g><path d="M 0 36 L 108.78125 36 C 109.78125 36 110.78125 37 110.78125 38 L 110.78125 56 C 110.78125 57 111.78125 58 112.78125 58 L 120.78125 58 "/><path d="M 0 36 L 108.78125 36 C 109.78125 36 110.78125 37 110.78125 38 L 110.78125 56 C 110.78125 57 111.78125 58 112.78125 58 L 120.78125 58 " class="clickable"/></g><circle r="3" id="sprotty_ArchitectureBlockImpl$spi_s2p/BPortImpl$io_mode_i_to_ArchitectureBlockImpl$spi_s2p/AlwaysBlockImpl$null9/GPortImpl$io_mode_iIN/junction0" transform="translate(110.78125, 58)" class="sprotty-junction thick" style="fill:rgb(112, 112, 112);stroke:none;"/></g><g id="sprotty_ArchitectureBlockImpl$spi_s2p/BPortImpl$io_mode_i_to_ArchitectureBlockImpl$spi_s2p/AlwaysBlockImpl$null8/GPortImpl$io_mode_iIN" class="sprotty-edge thick edge" style="fill:none;stroke:rgb(112, 112, 112);stroke-linejoin:round;stroke-width:3px;"><g><path d="M 0 36 L 177.671875 36 C 178.671875 36 179.671875 37 179.671875 38 L 179.671875 56 C 179.671875 57 180.671875 58 181.671875 58 L 189.671875 58 "/><path d="M 0 36 L 177.671875 36 C 178.671875 36 179.671875 37 179.671875 38 L 179.671875 56 C 179.671875 57 180.671875 58 181.671875 58 L 189.671875 58 " class="clickable"/></g><circle r="3" id="sprotty_ArchitectureBlockImpl$spi_s2p/BPortImpl$io_mode_i_to_ArchitectureBlockImpl$spi_s2p/AlwaysBlockImpl$null8/GPortImpl$io_mode_iIN/junction0" transform="translate(179.671875, 58)" class="sprotty-junction thick" style="fill:rgb(112, 112, 112);stroke:none;"/></g><g id="sprotty_ArchitectureBlockImpl$spi_s2p/AlwaysBlockImpl$null9/GPortImpl$cntOUT_to_ArchitectureBlockImpl$spi_s2p/AlwaysBlockImpl$null8/GPortImpl$cntIN" class="sprotty-edge thick edge" style="fill:none;stroke:rgb(112, 112, 112);stroke-linejoin:round;stroke-width:3px;"><g><path d="M 169.671875 68 L 189.671875 68 "/><path d="M 169.671875 68 L 189.671875 68 " class="clickable"/></g></g><g id="sprotty_ArchitectureBlockImpl$spi_s2p/AlwaysBlockImpl$null10/GPortImpl$bitcntOUT_to_ArchitectureBlockImpl$spi_s2p/AssignmentBlockImpl$bitcnt_o/GPortImpl$bitcntIN" class="sprotty-edge thick edge" style="fill:none;stroke:rgb(112, 112, 112);stroke-linejoin:round;stroke-width:3px;"><g><path d="M 169.671875 128 L 211.6875 128 "/><path d="M 169.671875 128 L 211.6875 128 " class="clickable"/></g></g><g id="sprotty_ArchitectureBlockImpl$spi_s2p/AlwaysBlockImpl$null12/GPortImpl$data_dOUT_to_ArchitectureBlockImpl$spi_s2p/AssignmentBlockImpl$data_o/GPortImpl$data_dIN" class="sprotty-edge thick edge" style="fill:none;stroke:rgb(112, 112, 112);stroke-linejoin:round;stroke-width:3px;"><g><path d="M 253.421875 183 L 273.421875 183 "/><path d="M 253.421875 183 L 273.421875 183 " class="clickable"/></g></g><g id="sprotty_ArchitectureBlockImpl$spi_s2p/AlwaysBlockImpl$null12/GPortImpl$data_dOUT_to_ArchitectureBlockImpl$spi_s2p/AlwaysBlockImpl$null11/GPortImpl$data_dIN" class="sprotty-edge thick edge" style="fill:none;stroke:rgb(112, 112, 112);stroke-linejoin:round;stroke-width:3px;"><g><path d="M 253.421875 183 L 261.421875 183 C 262.421875 183 263.421875 184 263.421875 185 L 263.421875 216 C 263.421875 217 262.421875 218 261.421875 218 L 112.78125 218 C 111.78125 218 110.78125 217 110.78125 216 L 110.78125 200 C 110.78125 199 111.78125 198 112.78125 198 L 120.78125 198 "/><path d="M 253.421875 183 L 261.421875 183 C 262.421875 183 263.421875 184 263.421875 185 L 263.421875 216 C 263.421875 217 262.421875 218 261.421875 218 L 112.78125 218 C 111.78125 218 110.78125 217 110.78125 216 L 110.78125 200 C 110.78125 199 111.78125 198 112.78125 198 L 120.78125 198 " class="clickable"/></g><circle r="3" id="sprotty_ArchitectureBlockImpl$spi_s2p/AlwaysBlockImpl$null12/GPortImpl$data_dOUT_to_ArchitectureBlockImpl$spi_s2p/AlwaysBlockImpl$null11/GPortImpl$data_dIN/junction0" transform="translate(263.421875, 183)" class="sprotty-junction thick" style="fill:rgb(112, 112, 112);stroke:none;"/></g><g id="sprotty_ArchitectureBlockImpl$spi_s2p/AlwaysBlockImpl$null11/GPortImpl$data_qOUT_to_ArchitectureBlockImpl$spi_s2p/AlwaysBlockImpl$null12/GPortImpl$data_qIN" class="sprotty-edge thick edge" style="fill:none;stroke:rgb(112, 112, 112);stroke-linejoin:round;stroke-width:3px;"><g><path d="M 169.671875 188 L 189.671875 188 "/><path d="M 169.671875 188 L 189.671875 188 " class="clickable"/></g></g><g id="sprotty_ArchitectureBlockImpl$spi_s2p/AlwaysBlockImpl$null8" transform="translate(189.671875, 48)" class="statement"><rect x="0" y="0" rx="10" ry="5" width="63.75" height="30" class="sprotty-node" style="fill:rgb(245, 245, 245);stroke:rgb(112, 112, 112);"/><text class="clickable sprotty-label statementtype" id="sprotty_ArchitectureBlockImpl$spi_s2p/AlwaysBlockImpl$null8/labeltype" transform="translate(5, 9) translate(26.875, 9)" style="cursor:default;font-size:8px;font-weight:700;perspective-origin:0px 0px;fill:rgb(112, 112, 112);text-anchor:middle;">always_comb</text><g id="sprotty_ArchitectureBlockImpl$spi_s2p/AlwaysBlockImpl$null8/GPortImpl$cntIN" transform="translate(0, 20)" class="sprotty-hidden hidden" style="display:block;height:0px;width:0px;"/><g id="sprotty_ArchitectureBlockImpl$spi_s2p/AlwaysBlockImpl$null8/GPortImpl$io_mode_iIN" transform="translate(0, 10)" class="sprotty-hidden hidden" style="display:block;height:0px;width:0px;"/><g id="sprotty_ArchitectureBlockImpl$spi_s2p/AlwaysBlockImpl$null8/GPortImpl$data_valid_oOUT" transform="translate(63.75, 15)" class="sprotty-hidden hidden" style="display:block;height:0px;width:0px;"/></g><g id="sprotty_ArchitectureBlockImpl$spi_s2p/AlwaysBlockImpl$null9" transform="translate(120.78125, 48)" class="statement"><rect x="0" y="0" rx="10" ry="5" width="48.890625" height="40" class="sprotty-node" style="fill:rgb(245, 245, 245);stroke:rgb(112, 112, 112);"/><text class="clickable sprotty-label statementtype" id="sprotty_ArchitectureBlockImpl$spi_s2p/AlwaysBlockImpl$null9/labeltype" transform="translate(5, 14) translate(18.828125, 9)" style="cursor:default;font-size:8px;font-weight:700;perspective-origin:0.609375px 0px;fill:rgb(112, 112, 112);text-anchor:middle;">always_ff</text><g id="sprotty_ArchitectureBlockImpl$spi_s2p/AlwaysBlockImpl$null9/GPortImpl$io_mode_iIN" transform="translate(0, 10)" class="sprotty-hidden hidden" style="display:block;height:0px;width:0px;"/><g id="sprotty_ArchitectureBlockImpl$spi_s2p/AlwaysBlockImpl$null9/GPortImpl$rst_niIN" transform="translate(0, 30)" class="sprotty-hidden hidden" style="display:block;height:0px;width:0px;"/><g id="sprotty_ArchitectureBlockImpl$spi_s2p/AlwaysBlockImpl$null9/GPortImpl$clk_iIN" transform="translate(0, 20)" class="sprotty-hidden hidden" style="display:block;height:0px;width:0px;"/><g id="sprotty_ArchitectureBlockImpl$spi_s2p/AlwaysBlockImpl$null9/GPortImpl$cntOUT" transform="translate(48.890625, 20)" class="sprotty-hidden hidden" style="display:block;height:0px;width:0px;"/></g><g id="sprotty_ArchitectureBlockImpl$spi_s2p/AlwaysBlockImpl$null10" transform="translate(120.78125, 108)" class="statement"><rect x="0" y="0" rx="10" ry="5" width="48.890625" height="40" class="sprotty-node" style="fill:rgb(245, 245, 245);stroke:rgb(112, 112, 112);"/><text class="clickable sprotty-label statementtype" id="sprotty_ArchitectureBlockImpl$spi_s2p/AlwaysBlockImpl$null10/labeltype" transform="translate(5, 14) translate(18.828125, 9)" style="cursor:default;font-size:8px;font-weight:700;perspective-origin:0.609375px 0px;fill:rgb(112, 112, 112);text-anchor:middle;">always_ff</text><g id="sprotty_ArchitectureBlockImpl$spi_s2p/AlwaysBlockImpl$null10/GPortImpl$io_mode_iIN" transform="translate(0, 10)" class="sprotty-hidden hidden" style="display:block;height:0px;width:0px;"/><g id="sprotty_ArchitectureBlockImpl$spi_s2p/AlwaysBlockImpl$null10/GPortImpl$rst_niIN" transform="translate(0, 30)" class="sprotty-hidden hidden" style="display:block;height:0px;width:0px;"/><g id="sprotty_ArchitectureBlockImpl$spi_s2p/AlwaysBlockImpl$null10/GPortImpl$clk_iIN" transform="translate(0, 20)" class="sprotty-hidden hidden" style="display:block;height:0px;width:0px;"/><g id="sprotty_ArchitectureBlockImpl$spi_s2p/AlwaysBlockImpl$null10/GPortImpl$bitcntOUT" transform="translate(48.890625, 20)" class="sprotty-hidden hidden" style="display:block;height:0px;width:0px;"/></g><g id="sprotty_ArchitectureBlockImpl$spi_s2p/AlwaysBlockImpl$null11" transform="translate(120.78125, 168)" class="statement"><rect x="0" y="0" rx="10" ry="5" width="48.890625" height="40" class="sprotty-node" style="fill:rgb(245, 245, 245);stroke:rgb(112, 112, 112);"/><text class="clickable sprotty-label statementtype" id="sprotty_ArchitectureBlockImpl$spi_s2p/AlwaysBlockImpl$null11/labeltype" transform="translate(5, 14) translate(18.828125, 9)" style="cursor:default;font-size:8px;font-weight:700;perspective-origin:0.609375px 0px;fill:rgb(112, 112, 112);text-anchor:middle;">always_ff</text><g id="sprotty_ArchitectureBlockImpl$spi_s2p/AlwaysBlockImpl$null11/GPortImpl$data_dIN" transform="translate(0, 30)" class="sprotty-hidden hidden" style="display:block;height:0px;width:0px;"/><g id="sprotty_ArchitectureBlockImpl$spi_s2p/AlwaysBlockImpl$null11/GPortImpl$rst_niIN" transform="translate(0, 20)" class="sprotty-hidden hidden" style="display:block;height:0px;width:0px;"/><g id="sprotty_ArchitectureBlockImpl$spi_s2p/AlwaysBlockImpl$null11/GPortImpl$clk_iIN" transform="translate(0, 10)" class="sprotty-hidden hidden" style="display:block;height:0px;width:0px;"/><g id="sprotty_ArchitectureBlockImpl$spi_s2p/AlwaysBlockImpl$null11/GPortImpl$data_qOUT" transform="translate(48.890625, 20)" class="sprotty-hidden hidden" style="display:block;height:0px;width:0px;"/></g><g id="sprotty_ArchitectureBlockImpl$spi_s2p/AlwaysBlockImpl$null12" transform="translate(189.671875, 168)" class="statement"><rect x="0" y="0" rx="10" ry="5" width="63.75" height="30" class="sprotty-node" style="fill:rgb(245, 245, 245);stroke:rgb(112, 112, 112);"/><text class="clickable sprotty-label statementtype" id="sprotty_ArchitectureBlockImpl$spi_s2p/AlwaysBlockImpl$null12/labeltype" transform="translate(5, 9) translate(26.875, 9)" style="cursor:default;font-size:8px;font-weight:700;perspective-origin:0px 0px;fill:rgb(112, 112, 112);text-anchor:middle;">always_comb</text><g id="sprotty_ArchitectureBlockImpl$spi_s2p/AlwaysBlockImpl$null12/GPortImpl$data_qIN" transform="translate(0, 20)" class="sprotty-hidden hidden" style="display:block;height:0px;width:0px;"/><g id="sprotty_ArchitectureBlockImpl$spi_s2p/AlwaysBlockImpl$null12/GPortImpl$io_mode_iIN" transform="translate(0, 10)" class="sprotty-hidden hidden" style="display:block;height:0px;width:0px;"/><g id="sprotty_ArchitectureBlockImpl$spi_s2p/AlwaysBlockImpl$null12/GPortImpl$data_dOUT" transform="translate(63.75, 15)" class="sprotty-hidden hidden" style="display:block;height:0px;width:0px;"/></g><g id="sprotty_ArchitectureBlockImpl$spi_s2p/AssignmentBlockImpl$bitcnt_o" transform="translate(211.6875, 117)" class="statement"><rect x="0" y="0" rx="10" ry="5" width="19.71875" height="22" class="sprotty-node" style="fill:rgb(245, 245, 245);stroke:rgb(112, 112, 112);"/><text class="clickable sprotty-label statementtype" id="sprotty_ArchitectureBlockImpl$spi_s2p/AssignmentBlockImpl$bitcnt_o/labeltype" transform="translate(5, 5) translate(4.71875, 9)" style="cursor:default;font-size:8px;font-weight:700;perspective-origin:0.140625px 0px;fill:rgb(112, 112, 112);text-anchor:middle;">&lt;=</text><g id="sprotty_ArchitectureBlockImpl$spi_s2p/AssignmentBlockImpl$bitcnt_o/GPortImpl$bitcntIN" transform="translate(0, 11)" class="sprotty-hidden hidden" style="display:block;height:0px;width:0px;"/><g id="sprotty_ArchitectureBlockImpl$spi_s2p/AssignmentBlockImpl$bitcnt_o/GPortImpl$bitcnt_oOUT" transform="translate(19.71875, 11)" class="sprotty-hidden hidden" style="display:block;height:0px;width:0px;"/></g><g id="sprotty_ArchitectureBlockImpl$spi_s2p/AssignmentBlockImpl$data_o" transform="translate(273.421875, 172)" class="statement"><rect x="0" y="0" rx="10" ry="5" width="19.71875" height="22" class="sprotty-node" style="fill:rgb(245, 245, 245);stroke:rgb(112, 112, 112);"/><text class="clickable sprotty-label statementtype" id="sprotty_ArchitectureBlockImpl$spi_s2p/AssignmentBlockImpl$data_o/labeltype" transform="translate(5, 5) translate(4.71875, 9)" style="cursor:default;font-size:8px;font-weight:700;perspective-origin:0.140625px 0px;fill:rgb(112, 112, 112);text-anchor:middle;">&lt;=</text><g id="sprotty_ArchitectureBlockImpl$spi_s2p/AssignmentBlockImpl$data_o/GPortImpl$data_dIN" transform="translate(0, 11)" class="sprotty-hidden hidden" style="display:block;height:0px;width:0px;"/><g id="sprotty_ArchitectureBlockImpl$spi_s2p/AssignmentBlockImpl$data_o/GPortImpl$data_oOUT" transform="translate(19.71875, 11)" class="sprotty-hidden hidden" style="display:block;height:0px;width:0px;"/></g><g id="sprotty_ArchitectureBlockImpl$spi_s2p/BPortImpl$io_mode_i" transform="translate(0, 36)" class="triangle"><path d="M 0,0 L 5,2.5 L 0,5 Z" transform="translate(-1.67, -2.5)" class="sprotty-port" style="fill:rgb(48, 48, 48);stroke:rgb(48, 48, 48);"/><text class="clickable sprotty-label port" id="sprotty_ArchitectureBlockImpl$spi_s2p/BPortImpl$io_mode_i/label" transform="translate(6, 6) translate(29.890625, 14)" style="cursor:default;font-size:12px;perspective-origin:0px 0px;fill:rgb(48, 48, 48);text-anchor:middle;">io_mode_i</text></g><g id="sprotty_ArchitectureBlockImpl$spi_s2p/BPortImpl$order_i" transform="translate(0, 238)" class="triangle"><path d="M 0,0 L 5,2.5 L 0,5 Z" transform="translate(-1.67, -2.5)" class="sprotty-port" style="fill:rgb(48, 48, 48);stroke:rgb(48, 48, 48);"/><text class="clickable sprotty-label port" id="sprotty_ArchitectureBlockImpl$spi_s2p/BPortImpl$order_i/label" transform="translate(6, 6) translate(20.28125, 14)" style="cursor:default;font-size:12px;perspective-origin:0px 0px;fill:rgb(48, 48, 48);text-anchor:middle;">order_i</text></g><g id="sprotty_ArchitectureBlockImpl$spi_s2p/BPortImpl$s_i" transform="translate(0, 282)" class="triangle"><path d="M 0,0 L 5,2.5 L 0,5 Z" transform="translate(-1.67, -2.5)" class="sprotty-port" style="fill:rgb(48, 48, 48);stroke:rgb(48, 48, 48);"/><text class="clickable sprotty-label port" id="sprotty_ArchitectureBlockImpl$spi_s2p/BPortImpl$s_i/label" transform="translate(6, 6) translate(7.8125, 14)" style="cursor:default;font-size:12px;perspective-origin:0px 0px;fill:rgb(48, 48, 48);text-anchor:middle;">s_i</text></g><g id="sprotty_ArchitectureBlockImpl$spi_s2p/BPortImpl$rst_ni" transform="translate(0, 188)" class="triangle"><path d="M 0,0 L 5,2.5 L 0,5 Z" transform="translate(-1.67, -2.5)" class="sprotty-port" style="fill:rgb(48, 48, 48);stroke:rgb(48, 48, 48);"/><text class="clickable sprotty-label port" id="sprotty_ArchitectureBlockImpl$spi_s2p/BPortImpl$rst_ni/label" transform="translate(6, 6) translate(15.921875, 14)" style="cursor:default;font-size:12px;perspective-origin:0px 0px;fill:rgb(48, 48, 48);text-anchor:middle;">rst_ni</text></g><g id="sprotty_ArchitectureBlockImpl$spi_s2p/BPortImpl$clk_i" transform="translate(0, 128)" class="triangle"><path d="M 0,0 L 5,2.5 L 0,5 Z" transform="translate(-1.67, -2.5)" class="sprotty-port" style="fill:rgb(48, 48, 48);stroke:rgb(48, 48, 48);"/><text class="clickable sprotty-label port" id="sprotty_ArchitectureBlockImpl$spi_s2p/BPortImpl$clk_i/label" transform="translate(6, 6) translate(13.09375, 14)" style="cursor:default;font-size:12px;perspective-origin:0px 0px;fill:rgb(48, 48, 48);text-anchor:middle;">clk_i</text></g><g id="sprotty_ArchitectureBlockImpl$spi_s2p/BPortImpl$data_valid_o" transform="translate(386.796875, 63)" class="triangle"><path d="M 0,0 L 5,2.5 L 0,5 Z" transform="translate(-1.67, -2.5)" class="sprotty-port" style="fill:rgb(48, 48, 48);stroke:rgb(48, 48, 48);"/><text class="clickable sprotty-label port" id="sprotty_ArchitectureBlockImpl$spi_s2p/BPortImpl$data_valid_o/label" transform="translate(-78.65625, 6) translate(36.328125, 14)" style="cursor:default;font-size:12px;perspective-origin:0px 0px;fill:rgb(48, 48, 48);text-anchor:middle;">data_valid_o</text></g><g id="sprotty_ArchitectureBlockImpl$spi_s2p/BPortImpl$data_o" transform="translate(386.796875, 183)" class="triangle"><path d="M 0,0 L 5,2.5 L 0,5 Z" transform="translate(-1.67, -2.5)" class="sprotty-port" style="fill:rgb(48, 48, 48);stroke:rgb(48, 48, 48);"/><text class="clickable sprotty-label port" id="sprotty_ArchitectureBlockImpl$spi_s2p/BPortImpl$data_o/label" transform="translate(-45.03125, 6) translate(19.515625, 14)" style="cursor:default;font-size:12px;perspective-origin:0px 0px;fill:rgb(48, 48, 48);text-anchor:middle;">data_o</text></g><g id="sprotty_ArchitectureBlockImpl$spi_s2p/BPortImpl$bitcnt_o" transform="translate(386.796875, 128)" class="triangle"><path d="M 0,0 L 5,2.5 L 0,5 Z" transform="translate(-1.67, -2.5)" class="sprotty-port" style="fill:rgb(48, 48, 48);stroke:rgb(48, 48, 48);"/><text class="clickable sprotty-label port" id="sprotty_ArchitectureBlockImpl$spi_s2p/BPortImpl$bitcnt_o/label" transform="translate(-53.03125, 6) translate(23.515625, 14)" style="cursor:default;font-size:12px;perspective-origin:0px 0px;fill:rgb(48, 48, 48);text-anchor:middle;">bitcnt_o</text></g></g></g></svg>