<svg xmlns="http://www.w3.org/2000/svg" id="sprotty_work.lc_ctrl_state_decode" class="sprotty-graph sprotty-block-diagram blockdiagram" style="font-family:&quot;Noto Sans&quot;, Helvetica, Arial, sans-serif;perspective-origin:0px 0px;transform-origin:0px 0px;" version="1.1" viewBox="7 7 485.875 236" width="485.875" height="236"><g transform="scale(1) translate(0,0)"><g id="sprotty_ArchitectureBlockImpl$lc_ctrl_state_decode" transform="translate(12, 12)" class="architecture"><g class="sprotty-block" style="fill:rgb(255, 255, 255);stroke:rgb(48, 48, 48);stroke-dasharray:0px;"><rect x="0" y="0" rx="1" ry="1" width="475.875" height="226"/><text x="237.9375" y="12" class="sprotty-block-name" style="cursor:pointer;font-weight:700;perspective-origin:237.938px 0px;fill:rgb(48, 48, 48);stroke:rgba(0, 0, 0, 0);dominant-baseline:middle;text-anchor:middle;">lc_ctrl_state_decode</text><line x1="0" y1="20" x2="475.875" y2="20"/></g><g id="sprotty_ArchitectureBlockImpl$lc_ctrl_state_decode/AlwaysBlockImpl$p_lc_state_decode/GPortImpl$dec_lc_state_oOUT_to_ArchitectureBlockImpl$lc_ctrl_state_decode/BPortImpl$dec_lc_state_o" class="sprotty-edge thick edge" style="fill:none;stroke:rgb(112, 112, 112);stroke-linejoin:round;stroke-width:3px;"><g><path d="M 295 109 L 313 109 C 314 109 315 110 315 111 L 315 151 C 315 152 316 153 317 153 L 475.875 153 "/><path d="M 295 109 L 313 109 C 314 109 315 110 315 111 L 315 151 C 315 152 316 153 317 153 L 475.875 153 " class="clickable"/></g></g><g id="sprotty_ArchitectureBlockImpl$lc_ctrl_state_decode/AlwaysBlockImpl$p_lc_state_decode/GPortImpl$dec_lc_id_state_oOUT_to_ArchitectureBlockImpl$lc_ctrl_state_decode/BPortImpl$dec_lc_id_state_o" class="sprotty-edge thick edge" style="fill:none;stroke:rgb(112, 112, 112);stroke-linejoin:round;stroke-width:3px;"><g><path d="M 295 85 L 475.875 85 "/><path d="M 295 85 L 475.875 85 " class="clickable"/></g></g><g id="sprotty_ArchitectureBlockImpl$lc_ctrl_state_decode/AlwaysBlockImpl$p_lc_state_decode/GPortImpl$dec_lc_cnt_oOUT_to_ArchitectureBlockImpl$lc_ctrl_state_decode/BPortImpl$dec_lc_cnt_o" class="sprotty-edge thick edge" style="fill:none;stroke:rgb(112, 112, 112);stroke-linejoin:round;stroke-width:3px;"><g><path d="M 295 121 L 303 121 C 304 121 305 122 305 123 L 305 185 C 305 186 306 187 307 187 L 475.875 187 "/><path d="M 295 121 L 303 121 C 304 121 305 122 305 123 L 305 185 C 305 186 306 187 307 187 L 475.875 187 " class="clickable"/></g></g><g id="sprotty_ArchitectureBlockImpl$lc_ctrl_state_decode/AlwaysBlockImpl$p_lc_state_decode/GPortImpl$state_invalid_error_oOUT_to_ArchitectureBlockImpl$lc_ctrl_state_decode/BPortImpl$state_invalid_error_o" class="sprotty-edge edge" style="fill:none;stroke:rgb(112, 112, 112);stroke-linejoin:round;"><g><path d="M 295 97 L 323 97 C 324 97 325 98 325 99 L 325 117 C 325 118 326 119 327 119 L 475.875 119 "/><path d="M 295 97 L 323 97 C 324 97 325 98 325 99 L 325 117 C 325 118 326 119 327 119 L 475.875 119 " class="clickable"/></g></g><g id="sprotty_ArchitectureBlockImpl$lc_ctrl_state_decode/BPortImpl$fsm_state_i_to_ArchitectureBlockImpl$lc_ctrl_state_decode/AlwaysBlockImpl$p_lc_state_decode/GPortImpl$fsm_state_iIN" class="sprotty-edge thick edge" style="fill:none;stroke:rgb(112, 112, 112);stroke-linejoin:round;stroke-width:3px;"><g><path d="M 0 35 L 126.0625 35 C 127.0625 35 128.0625 36 128.0625 37 L 128.0625 81 C 128.0625 82 129.0625 83 130.0625 83 L 138.0625 83 "/><path d="M 0 35 L 126.0625 35 C 127.0625 35 128.0625 36 128.0625 37 L 128.0625 81 C 128.0625 82 129.0625 83 130.0625 83 L 138.0625 83 " class="clickable"/></g></g><g id="sprotty_ArchitectureBlockImpl$lc_ctrl_state_decode/BPortImpl$lc_state_valid_i_to_ArchitectureBlockImpl$lc_ctrl_state_decode/AlwaysBlockImpl$p_lc_state_decode/GPortImpl$lc_state_valid_iIN" class="sprotty-edge edge" style="fill:none;stroke:rgb(112, 112, 112);stroke-linejoin:round;"><g><path d="M 0 171 L 126.0625 171 C 127.0625 171 128.0625 170 128.0625 169 L 128.0625 125 C 128.0625 124 129.0625 123 130.0625 123 L 138.0625 123 "/><path d="M 0 171 L 126.0625 171 C 127.0625 171 128.0625 170 128.0625 169 L 128.0625 125 C 128.0625 124 129.0625 123 130.0625 123 L 138.0625 123 " class="clickable"/></g></g><g id="sprotty_ArchitectureBlockImpl$lc_ctrl_state_decode/BPortImpl$lc_state_i_to_ArchitectureBlockImpl$lc_ctrl_state_decode/AlwaysBlockImpl$p_lc_state_decode/GPortImpl$lc_state_iIN" class="sprotty-edge thick edge" style="fill:none;stroke:rgb(112, 112, 112);stroke-linejoin:round;stroke-width:3px;"><g><path d="M 0 137 L 116.0625 137 C 117.0625 137 118.0625 136 118.0625 135 L 118.0625 115 C 118.0625 114 119.0625 113 120.0625 113 L 138.0625 113 "/><path d="M 0 137 L 116.0625 137 C 117.0625 137 118.0625 136 118.0625 135 L 118.0625 115 C 118.0625 114 119.0625 113 120.0625 113 L 138.0625 113 " class="clickable"/></g></g><g id="sprotty_ArchitectureBlockImpl$lc_ctrl_state_decode/BPortImpl$lc_cnt_i_to_ArchitectureBlockImpl$lc_ctrl_state_decode/AlwaysBlockImpl$p_lc_state_decode/GPortImpl$lc_cnt_iIN" class="sprotty-edge thick edge" style="fill:none;stroke:rgb(112, 112, 112);stroke-linejoin:round;stroke-width:3px;"><g><path d="M 0 103 L 138.0625 103 "/><path d="M 0 103 L 138.0625 103 " class="clickable"/></g></g><g id="sprotty_ArchitectureBlockImpl$lc_ctrl_state_decode/BPortImpl$lc_id_state_i_to_ArchitectureBlockImpl$lc_ctrl_state_decode/AlwaysBlockImpl$p_lc_state_decode/GPortImpl$lc_id_state_iIN" class="sprotty-edge thick edge" style="fill:none;stroke:rgb(112, 112, 112);stroke-linejoin:round;stroke-width:3px;"><g><path d="M 0 69 L 116.0625 69 C 117.0625 69 118.0625 70 118.0625 71 L 118.0625 91 C 118.0625 92 119.0625 93 120.0625 93 L 138.0625 93 "/><path d="M 0 69 L 116.0625 69 C 117.0625 69 118.0625 70 118.0625 71 L 118.0625 91 C 118.0625 92 119.0625 93 120.0625 93 L 138.0625 93 " class="clickable"/></g></g><g id="sprotty_ArchitectureBlockImpl$lc_ctrl_state_decode/AlwaysBlockImpl$p_lc_state_decode" transform="translate(138.0625, 73)" class="statement"><rect x="0" y="0" rx="10" ry="5" width="156.9375" height="60" class="sprotty-node" style="fill:rgb(245, 245, 245);stroke:rgb(112, 112, 112);"/><text class="clickable sprotty-label statementtext" id="sprotty_ArchitectureBlockImpl$lc_ctrl_state_decode/AlwaysBlockImpl$p_lc_state_decode/labeltext" transform="translate(5, 12) translate(73.46875, 19)" style="cursor:default;font-weight:700;perspective-origin:0px 0px;fill:rgb(112, 112, 112);text-anchor:middle;">p_lc_state_decode</text><text class="clickable sprotty-label statementtype" id="sprotty_ArchitectureBlockImpl$lc_ctrl_state_decode/AlwaysBlockImpl$p_lc_state_decode/labeltype" transform="translate(51.59375, 36) translate(26.875, 9)" style="cursor:default;font-size:8px;font-weight:700;perspective-origin:0px 0px;fill:rgb(112, 112, 112);text-anchor:middle;">always_comb</text><g id="sprotty_ArchitectureBlockImpl$lc_ctrl_state_decode/AlwaysBlockImpl$p_lc_state_decode/GPortImpl$lc_id_state_iIN" transform="translate(0, 20)" class="sprotty-hidden hidden" style="display:block;height:0px;width:0px;"/><g id="sprotty_ArchitectureBlockImpl$lc_ctrl_state_decode/AlwaysBlockImpl$p_lc_state_decode/GPortImpl$lc_cnt_iIN" transform="translate(0, 30)" class="sprotty-hidden hidden" style="display:block;height:0px;width:0px;"/><g id="sprotty_ArchitectureBlockImpl$lc_ctrl_state_decode/AlwaysBlockImpl$p_lc_state_decode/GPortImpl$lc_state_iIN" transform="translate(0, 40)" class="sprotty-hidden hidden" style="display:block;height:0px;width:0px;"/><g id="sprotty_ArchitectureBlockImpl$lc_ctrl_state_decode/AlwaysBlockImpl$p_lc_state_decode/GPortImpl$lc_state_valid_iIN" transform="translate(0, 50)" class="sprotty-hidden hidden" style="display:block;height:0px;width:0px;"/><g id="sprotty_ArchitectureBlockImpl$lc_ctrl_state_decode/AlwaysBlockImpl$p_lc_state_decode/GPortImpl$fsm_state_iIN" transform="translate(0, 10)" class="sprotty-hidden hidden" style="display:block;height:0px;width:0px;"/><g id="sprotty_ArchitectureBlockImpl$lc_ctrl_state_decode/AlwaysBlockImpl$p_lc_state_decode/GPortImpl$dec_lc_state_oOUT" transform="translate(156.9375, 36)" class="sprotty-hidden hidden" style="display:block;height:0px;width:0px;"/><g id="sprotty_ArchitectureBlockImpl$lc_ctrl_state_decode/AlwaysBlockImpl$p_lc_state_decode/GPortImpl$dec_lc_cnt_oOUT" transform="translate(156.9375, 48)" class="sprotty-hidden hidden" style="display:block;height:0px;width:0px;"/><g id="sprotty_ArchitectureBlockImpl$lc_ctrl_state_decode/AlwaysBlockImpl$p_lc_state_decode/GPortImpl$dec_lc_id_state_oOUT" transform="translate(156.9375, 12)" class="sprotty-hidden hidden" style="display:block;height:0px;width:0px;"/><g id="sprotty_ArchitectureBlockImpl$lc_ctrl_state_decode/AlwaysBlockImpl$p_lc_state_decode/GPortImpl$state_invalid_error_oOUT" transform="translate(156.9375, 24)" class="sprotty-hidden hidden" style="display:block;height:0px;width:0px;"/></g><g id="sprotty_ArchitectureBlockImpl$lc_ctrl_state_decode/BPortImpl$fsm_state_i" transform="translate(0, 35)" class="triangle"><path d="M 0,0 L 5,2.5 L 0,5 Z" transform="translate(-1.67, -2.5)" class="sprotty-port" style="fill:rgb(48, 48, 48);stroke:rgb(48, 48, 48);"/><text class="clickable sprotty-label port" id="sprotty_ArchitectureBlockImpl$lc_ctrl_state_decode/BPortImpl$fsm_state_i/label" transform="translate(6, 6) translate(32.234375, 14)" style="cursor:default;font-size:12px;perspective-origin:0px 0px;fill:rgb(48, 48, 48);text-anchor:middle;">fsm_state_i</text></g><g id="sprotty_ArchitectureBlockImpl$lc_ctrl_state_decode/BPortImpl$lc_cnt_i" transform="translate(0, 103)" class="triangle"><path d="M 0,0 L 5,2.5 L 0,5 Z" transform="translate(-1.67, -2.5)" class="sprotty-port" style="fill:rgb(48, 48, 48);stroke:rgb(48, 48, 48);"/><text class="clickable sprotty-label port" id="sprotty_ArchitectureBlockImpl$lc_ctrl_state_decode/BPortImpl$lc_cnt_i/label" transform="translate(6, 6) translate(22.109375, 14)" style="cursor:default;font-size:12px;perspective-origin:0px 0px;fill:rgb(48, 48, 48);text-anchor:middle;">lc_cnt_i</text></g><g id="sprotty_ArchitectureBlockImpl$lc_ctrl_state_decode/BPortImpl$lc_id_state_i" transform="translate(0, 69)" class="triangle"><path d="M 0,0 L 5,2.5 L 0,5 Z" transform="translate(-1.67, -2.5)" class="sprotty-port" style="fill:rgb(48, 48, 48);stroke:rgb(48, 48, 48);"/><text class="clickable sprotty-label port" id="sprotty_ArchitectureBlockImpl$lc_ctrl_state_decode/BPortImpl$lc_id_state_i/label" transform="translate(6, 6) translate(35.4375, 14)" style="cursor:default;font-size:12px;perspective-origin:0px 0px;fill:rgb(48, 48, 48);text-anchor:middle;">lc_id_state_i</text></g><g id="sprotty_ArchitectureBlockImpl$lc_ctrl_state_decode/BPortImpl$lc_state_i" transform="translate(0, 137)" class="triangle"><path d="M 0,0 L 5,2.5 L 0,5 Z" transform="translate(-1.67, -2.5)" class="sprotty-port" style="fill:rgb(48, 48, 48);stroke:rgb(48, 48, 48);"/><text class="clickable sprotty-label port" id="sprotty_ArchitectureBlockImpl$lc_ctrl_state_decode/BPortImpl$lc_state_i/label" transform="translate(6, 6) translate(26.71875, 14)" style="cursor:default;font-size:12px;perspective-origin:0px 0px;fill:rgb(48, 48, 48);text-anchor:middle;">lc_state_i</text></g><g id="sprotty_ArchitectureBlockImpl$lc_ctrl_state_decode/BPortImpl$lc_state_valid_i" transform="translate(0, 171)" class="triangle"><path d="M 0,0 L 5,2.5 L 0,5 Z" transform="translate(-1.67, -2.5)" class="sprotty-port" style="fill:rgb(48, 48, 48);stroke:rgb(48, 48, 48);"/><text class="clickable sprotty-label port" id="sprotty_ArchitectureBlockImpl$lc_ctrl_state_decode/BPortImpl$lc_state_valid_i/label" transform="translate(6, 6) translate(43.53125, 14)" style="cursor:default;font-size:12px;perspective-origin:0px 0px;fill:rgb(48, 48, 48);text-anchor:middle;">lc_state_valid_i</text></g><g id="sprotty_ArchitectureBlockImpl$lc_ctrl_state_decode/BPortImpl$dec_lc_state_o" transform="translate(475.875, 153)" class="triangle"><path d="M 0,0 L 5,2.5 L 0,5 Z" transform="translate(-1.67, -2.5)" class="sprotty-port" style="fill:rgb(48, 48, 48);stroke:rgb(48, 48, 48);"/><text class="clickable sprotty-label port" id="sprotty_ArchitectureBlockImpl$lc_ctrl_state_decode/BPortImpl$dec_lc_state_o/label" transform="translate(-90.3125, 6) translate(42.15625, 14)" style="cursor:default;font-size:12px;perspective-origin:0px 0px;fill:rgb(48, 48, 48);text-anchor:middle;">dec_lc_state_o</text></g><g id="sprotty_ArchitectureBlockImpl$lc_ctrl_state_decode/BPortImpl$dec_lc_id_state_o" transform="translate(475.875, 85)" class="triangle"><path d="M 0,0 L 5,2.5 L 0,5 Z" transform="translate(-1.67, -2.5)" class="sprotty-port" style="fill:rgb(48, 48, 48);stroke:rgb(48, 48, 48);"/><text class="clickable sprotty-label port" id="sprotty_ArchitectureBlockImpl$lc_ctrl_state_decode/BPortImpl$dec_lc_id_state_o/label" transform="translate(-107.75, 6) translate(50.875, 14)" style="cursor:default;font-size:12px;perspective-origin:0px 0px;fill:rgb(48, 48, 48);text-anchor:middle;">dec_lc_id_state_o</text></g><g id="sprotty_ArchitectureBlockImpl$lc_ctrl_state_decode/BPortImpl$dec_lc_cnt_o" transform="translate(475.875, 187)" class="triangle"><path d="M 0,0 L 5,2.5 L 0,5 Z" transform="translate(-1.67, -2.5)" class="sprotty-port" style="fill:rgb(48, 48, 48);stroke:rgb(48, 48, 48);"/><text class="clickable sprotty-label port" id="sprotty_ArchitectureBlockImpl$lc_ctrl_state_decode/BPortImpl$dec_lc_cnt_o/label" transform="translate(-81.09375, 6) translate(37.546875, 14)" style="cursor:default;font-size:12px;perspective-origin:0px 0px;fill:rgb(48, 48, 48);text-anchor:middle;">dec_lc_cnt_o</text></g><g id="sprotty_ArchitectureBlockImpl$lc_ctrl_state_decode/BPortImpl$state_invalid_error_o" transform="translate(475.875, 119)" class="triangle"><path d="M 0,0 L 5,2.5 L 0,5 Z" transform="translate(-1.67, -2.5)" class="sprotty-port" style="fill:rgb(48, 48, 48);stroke:rgb(48, 48, 48);"/><text class="clickable sprotty-label port" id="sprotty_ArchitectureBlockImpl$lc_ctrl_state_decode/BPortImpl$state_invalid_error_o/label" transform="translate(-125.875, 6) translate(59.9375, 14)" style="cursor:default;font-size:12px;perspective-origin:0px 0px;fill:rgb(48, 48, 48);text-anchor:middle;">state_invalid_error_o</text></g></g></g></svg>