<svg xmlns="http://www.w3.org/2000/svg" id="sprotty_work.ibex_csr" class="sprotty-graph sprotty-block-diagram blockdiagram" style="font-family:&quot;Noto Sans&quot;, Helvetica, Arial, sans-serif;perspective-origin:0px 0px;transform-origin:0px 0px;" version="1.1" viewBox="7 7 387.359375 293" width="387.359375" height="293"><g transform="scale(1) translate(0,0)"><g id="sprotty_ArchitectureBlockImpl$ibex_csr" transform="translate(12, 12)" class="architecture"><g class="sprotty-block" style="fill:rgb(255, 255, 255);stroke:rgb(48, 48, 48);stroke-dasharray:0px;"><rect x="0" y="0" rx="1" ry="1" width="377.359375" height="283"/><text x="188.6796875" y="12" class="sprotty-block-name" style="cursor:pointer;font-weight:700;perspective-origin:188.688px 0px;fill:rgb(48, 48, 48);stroke:rgba(0, 0, 0, 0);dominant-baseline:middle;text-anchor:middle;">ibex_csr</text><line x1="0" y1="20" x2="377.359375" y2="20"/></g><g id="sprotty_ArchitectureBlockImpl$ibex_csr/AssignmentBlockImpl$rd_data_o/GPortImpl$rd_data_oOUT_to_ArchitectureBlockImpl$ibex_csr/BPortImpl$rd_data_o" class="sprotty-edge thick edge" style="fill:none;stroke:rgb(112, 112, 112);stroke-linejoin:round;stroke-width:3px;"><g><path d="M 265.78125 73 L 377.359375 73 "/><path d="M 265.78125 73 L 377.359375 73 " class="clickable"/></g></g><g id="sprotty_ArchitectureBlockImpl$ibex_csr/GenerateStatementBlockImpl$null6/GPortImpl$rd_error_o_to_ArchitectureBlockImpl$ibex_csr/BPortImpl$rd_error_o" class="sprotty-edge edge" style="fill:none;stroke:rgb(112, 112, 112);stroke-linejoin:round;"><g><path d="M 295.921875 130 L 377.359375 130 "/><path d="M 295.921875 130 L 377.359375 130 " class="clickable"/></g></g><g id="sprotty_ArchitectureBlockImpl$ibex_csr/BPortImpl$clk_i_to_ArchitectureBlockImpl$ibex_csr/AlwaysBlockImpl$null7/GPortImpl$clk_iIN" class="sprotty-edge edge" style="fill:none;stroke:rgb(112, 112, 112);stroke-linejoin:round;"><g><path d="M 0 175 L 85.03125 175 C 86.03125 175 87.03125 174 87.03125 173 L 87.03125 70 C 87.03125 69 88.03125 68 89.03125 68 L 117.03125 68 "/><path d="M 0 175 L 85.03125 175 C 86.03125 175 87.03125 174 87.03125 173 L 87.03125 70 C 87.03125 69 88.03125 68 89.03125 68 L 117.03125 68 " class="clickable"/></g><circle r="2" id="sprotty_ArchitectureBlockImpl$ibex_csr/BPortImpl$clk_i_to_ArchitectureBlockImpl$ibex_csr/AlwaysBlockImpl$null7/GPortImpl$clk_iIN/junction0" transform="translate(87.03125, 175)" class="sprotty-junction junction" style="fill:rgb(112, 112, 112);stroke:none;"/></g><g id="sprotty_ArchitectureBlockImpl$ibex_csr/BPortImpl$rst_ni_to_ArchitectureBlockImpl$ibex_csr/AlwaysBlockImpl$null7/GPortImpl$rst_niIN" class="sprotty-edge edge" style="fill:none;stroke:rgb(112, 112, 112);stroke-linejoin:round;"><g><path d="M 0 58 L 117.03125 58 "/><path d="M 0 58 L 117.03125 58 " class="clickable"/></g></g><g id="sprotty_ArchitectureBlockImpl$ibex_csr/BPortImpl$wr_en_i_to_ArchitectureBlockImpl$ibex_csr/AlwaysBlockImpl$null7/GPortImpl$wr_en_iIN" class="sprotty-edge edge" style="fill:none;stroke:rgb(112, 112, 112);stroke-linejoin:round;"><g><path d="M 0 209 L 95.03125 209 C 96.03125 209 97.03125 208 97.03125 207 L 97.03125 80 C 97.03125 79 98.03125 78 99.03125 78 L 117.03125 78 "/><path d="M 0 209 L 95.03125 209 C 96.03125 209 97.03125 208 97.03125 207 L 97.03125 80 C 97.03125 79 98.03125 78 99.03125 78 L 117.03125 78 " class="clickable"/></g><circle r="2" id="sprotty_ArchitectureBlockImpl$ibex_csr/BPortImpl$wr_en_i_to_ArchitectureBlockImpl$ibex_csr/AlwaysBlockImpl$null7/GPortImpl$wr_en_iIN/junction0" transform="translate(97.03125, 209)" class="sprotty-junction junction" style="fill:rgb(112, 112, 112);stroke:none;"/></g><g id="sprotty_ArchitectureBlockImpl$ibex_csr/BPortImpl$wr_data_i_to_ArchitectureBlockImpl$ibex_csr/AlwaysBlockImpl$null7/GPortImpl$wr_data_iIN" class="sprotty-edge thick edge" style="fill:none;stroke:rgb(112, 112, 112);stroke-linejoin:round;stroke-width:3px;"><g><path d="M 0 243 L 105.03125 243 C 106.03125 243 107.03125 242 107.03125 241 L 107.03125 90 C 107.03125 89 108.03125 88 109.03125 88 L 117.03125 88 "/><path d="M 0 243 L 105.03125 243 C 106.03125 243 107.03125 242 107.03125 241 L 107.03125 90 C 107.03125 89 108.03125 88 109.03125 88 L 117.03125 88 " class="clickable"/></g><circle r="3" id="sprotty_ArchitectureBlockImpl$ibex_csr/BPortImpl$wr_data_i_to_ArchitectureBlockImpl$ibex_csr/AlwaysBlockImpl$null7/GPortImpl$wr_data_iIN/junction0" transform="translate(107.03125, 243)" class="sprotty-junction thick" style="fill:rgb(112, 112, 112);stroke:none;"/></g><g id="sprotty_ArchitectureBlockImpl$ibex_csr/BPortImpl$clk_i_to_ArchitectureBlockImpl$ibex_csr/GenerateStatementBlockImpl$null6/GPortImpl$clk_i" class="sprotty-edge edge" style="fill:none;stroke:rgb(112, 112, 112);stroke-linejoin:round;"><g><path d="M 0 175 L 183.921875 175 C 184.921875 175 185.921875 176 185.921875 177 L 185.921875 211 C 185.921875 212 186.921875 213 187.921875 213 L 215.921875 213 "/><path d="M 0 175 L 183.921875 175 C 184.921875 175 185.921875 176 185.921875 177 L 185.921875 211 C 185.921875 212 186.921875 213 187.921875 213 L 215.921875 213 " class="clickable"/></g></g><g id="sprotty_ArchitectureBlockImpl$ibex_csr/BPortImpl$rst_ni_to_ArchitectureBlockImpl$ibex_csr/GenerateStatementBlockImpl$null6/GPortImpl$rst_ni" class="sprotty-edge edge" style="fill:none;stroke:rgb(112, 112, 112);stroke-linejoin:round;"><g><path d="M 0 58 L 85.03125 58 C 86.03125 58 87.03125 57 87.03125 56 L 87.03125 38 C 87.03125 37 88.03125 36 89.03125 36 L 193.921875 36 C 194.921875 36 195.921875 37 195.921875 38 L 195.921875 221 C 195.921875 222 196.921875 223 197.921875 223 L 215.921875 223 "/><path d="M 0 58 L 85.03125 58 C 86.03125 58 87.03125 57 87.03125 56 L 87.03125 38 C 87.03125 37 88.03125 36 89.03125 36 L 193.921875 36 C 194.921875 36 195.921875 37 195.921875 38 L 195.921875 221 C 195.921875 222 196.921875 223 197.921875 223 L 215.921875 223 " class="clickable"/></g><circle r="2" id="sprotty_ArchitectureBlockImpl$ibex_csr/BPortImpl$rst_ni_to_ArchitectureBlockImpl$ibex_csr/GenerateStatementBlockImpl$null6/GPortImpl$rst_ni/junction0" transform="translate(87.03125, 58)" class="sprotty-junction junction" style="fill:rgb(112, 112, 112);stroke:none;"/></g><g id="sprotty_ArchitectureBlockImpl$ibex_csr/BPortImpl$wr_en_i_to_ArchitectureBlockImpl$ibex_csr/GenerateStatementBlockImpl$null6/GPortImpl$wr_en_i" class="sprotty-edge edge" style="fill:none;stroke:rgb(112, 112, 112);stroke-linejoin:round;"><g><path d="M 0 209 L 173.921875 209 C 174.921875 209 175.921875 210 175.921875 211 L 175.921875 231 C 175.921875 232 176.921875 233 177.921875 233 L 215.921875 233 "/><path d="M 0 209 L 173.921875 209 C 174.921875 209 175.921875 210 175.921875 211 L 175.921875 231 C 175.921875 232 176.921875 233 177.921875 233 L 215.921875 233 " class="clickable"/></g></g><g id="sprotty_ArchitectureBlockImpl$ibex_csr/BPortImpl$wr_data_i_to_ArchitectureBlockImpl$ibex_csr/GenerateStatementBlockImpl$null6/GPortImpl$wr_data_i" class="sprotty-edge thick edge" style="fill:none;stroke:rgb(112, 112, 112);stroke-linejoin:round;stroke-width:3px;"><g><path d="M 0 243 L 215.921875 243 "/><path d="M 0 243 L 215.921875 243 " class="clickable"/></g></g><g id="sprotty_ArchitectureBlockImpl$ibex_csr/AlwaysBlockImpl$null7/GPortImpl$rdata_qOUT_to_ArchitectureBlockImpl$ibex_csr/AssignmentBlockImpl$rd_data_o/GPortImpl$rdata_qIN" class="sprotty-edge thick edge" style="fill:none;stroke:rgb(112, 112, 112);stroke-linejoin:round;stroke-width:3px;"><g><path d="M 165.921875 73 L 246.0625 73 "/><path d="M 165.921875 73 L 246.0625 73 " class="clickable"/></g></g><g id="sprotty_ArchitectureBlockImpl$ibex_csr/AlwaysBlockImpl$null7/GPortImpl$rdata_qOUT_to_ArchitectureBlockImpl$ibex_csr/GenerateStatementBlockImpl$null6/GPortImpl$rdata_q" class="sprotty-edge thick edge" style="fill:none;stroke:rgb(112, 112, 112);stroke-linejoin:round;stroke-width:3px;"><g><path d="M 165.921875 73 L 203.921875 73 C 204.921875 73 205.921875 74 205.921875 75 L 205.921875 170 C 205.921875 171 206.921875 172 207.921875 172 L 215.921875 172 "/><path d="M 165.921875 73 L 203.921875 73 C 204.921875 73 205.921875 74 205.921875 75 L 205.921875 170 C 205.921875 171 206.921875 172 207.921875 172 L 215.921875 172 " class="clickable"/></g><circle r="3" id="sprotty_ArchitectureBlockImpl$ibex_csr/AlwaysBlockImpl$null7/GPortImpl$rdata_qOUT_to_ArchitectureBlockImpl$ibex_csr/GenerateStatementBlockImpl$null6/GPortImpl$rdata_q/junction0" transform="translate(205.921875, 73)" class="sprotty-junction thick" style="fill:rgb(112, 112, 112);stroke:none;"/></g><g id="sprotty_ArchitectureBlockImpl$ibex_csr/GenerateStatementBlockImpl$null6" transform="translate(215.921875, 104)" class="generate"><g class="sprotty-block sprotty-block-generate" style="fill:rgb(255, 255, 255);stroke:rgb(48, 48, 48);stroke-dasharray:0px;"><rect x="0" y="0" rx="1" ry="1" width="80" height="164" style="stroke-dasharray:3px, 1px;"/><text x="40" y="12" class="sprotty-block-name" style="cursor:pointer;font-weight:700;fill:rgb(48, 48, 48);stroke:rgba(0, 0, 0, 0);dominant-baseline:middle;text-anchor:middle;"/>undefined</g><g id="sprotty_ArchitectureBlockImpl$ibex_csr/GenerateStatementBlockImpl$null6/AssignmentBlockImpl$rd_error_o1/GPortImpl$rd_error_oOUT_to_ArchitectureBlockImpl$ibex_csr/GenerateStatementBlockImpl$null6/GPortImpl$rd_error_o" class="sprotty-edge edge" style="fill:none;stroke:rgb(112, 112, 112);stroke-linejoin:round;"><g><path d="M 34.71875 68 L 42.71875 68 C 43.71875 68 44.71875 67 44.71875 66 L 44.71875 28 C 44.71875 27 45.71875 26 46.71875 26 L 80 26 "/><path d="M 34.71875 68 L 42.71875 68 C 43.71875 68 44.71875 67 44.71875 66 L 44.71875 28 C 44.71875 27 45.71875 26 46.71875 26 L 80 26 " class="clickable"/></g><circle r="2" id="sprotty_ArchitectureBlockImpl$ibex_csr/GenerateStatementBlockImpl$null6/AssignmentBlockImpl$rd_error_o1/GPortImpl$rd_error_oOUT_to_ArchitectureBlockImpl$ibex_csr/GenerateStatementBlockImpl$null6/GPortImpl$rd_error_o/junction0" transform="translate(44.71875, 26)" class="sprotty-junction junction" style="fill:rgb(112, 112, 112);stroke:none;"/></g><g id="sprotty_ArchitectureBlockImpl$ibex_csr/GenerateStatementBlockImpl$null6/AssignmentBlockImpl$rd_error_o/GPortImpl$rd_error_oOUT_to_ArchitectureBlockImpl$ibex_csr/GenerateStatementBlockImpl$null6/GPortImpl$rd_error_o" class="sprotty-edge edge" style="fill:none;stroke:rgb(112, 112, 112);stroke-linejoin:round;"><g><path d="M 34.71875 26 L 80 26 "/><path d="M 34.71875 26 L 80 26 " class="clickable"/></g></g><g id="sprotty_ArchitectureBlockImpl$ibex_csr/GenerateStatementBlockImpl$null6/GPortImpl$clk_i_to_ArchitectureBlockImpl$ibex_csr/GenerateStatementBlockImpl$null6/AlwaysBlockImpl$null6/GPortImpl$clk_iIN" class="sprotty-edge edge" style="fill:none;stroke:rgb(112, 112, 112);stroke-linejoin:round;"><g><path d="M 0 109 L 15 109 "/><path d="M 0 109 L 15 109 " class="clickable"/></g></g><g id="sprotty_ArchitectureBlockImpl$ibex_csr/GenerateStatementBlockImpl$null6/GPortImpl$rst_ni_to_ArchitectureBlockImpl$ibex_csr/GenerateStatementBlockImpl$null6/AlwaysBlockImpl$null6/GPortImpl$rst_niIN" class="sprotty-edge edge" style="fill:none;stroke:rgb(112, 112, 112);stroke-linejoin:round;"><g><path d="M 0 119 L 15 119 "/><path d="M 0 119 L 15 119 " class="clickable"/></g></g><g id="sprotty_ArchitectureBlockImpl$ibex_csr/GenerateStatementBlockImpl$null6/GPortImpl$wr_en_i_to_ArchitectureBlockImpl$ibex_csr/GenerateStatementBlockImpl$null6/AlwaysBlockImpl$null6/GPortImpl$wr_en_iIN" class="sprotty-edge edge" style="fill:none;stroke:rgb(112, 112, 112);stroke-linejoin:round;"><g><path d="M 0 129 L 15 129 "/><path d="M 0 129 L 15 129 " class="clickable"/></g></g><g id="sprotty_ArchitectureBlockImpl$ibex_csr/GenerateStatementBlockImpl$null6/GPortImpl$wr_data_i_to_ArchitectureBlockImpl$ibex_csr/GenerateStatementBlockImpl$null6/AlwaysBlockImpl$null6/GPortImpl$wr_data_iIN" class="sprotty-edge thick edge" style="fill:none;stroke:rgb(112, 112, 112);stroke-linejoin:round;stroke-width:3px;"><g><path d="M 0 139 L 15 139 "/><path d="M 0 139 L 15 139 " class="clickable"/></g></g><g id="sprotty_ArchitectureBlockImpl$ibex_csr/GenerateStatementBlockImpl$null6/GPortImpl$rdata_q_to_ArchitectureBlockImpl$ibex_csr/GenerateStatementBlockImpl$null6/AssignmentBlockImpl$rd_error_o1/GPortImpl$rdata_qIN" class="sprotty-edge thick edge" style="fill:none;stroke:rgb(112, 112, 112);stroke-linejoin:round;stroke-width:3px;"><g><path d="M 0 68 L 15 68 "/><path d="M 0 68 L 15 68 " class="clickable"/></g></g><g id="sprotty_ArchitectureBlockImpl$ibex_csr/GenerateStatementBlockImpl$null6/AlwaysBlockImpl$null6" transform="translate(15, 99)" class="statement"><rect x="0" y="0" rx="10" ry="5" width="48.890625" height="50" class="sprotty-node" style="fill:rgb(245, 245, 245);stroke:rgb(112, 112, 112);"/><text class="clickable sprotty-label statementtype" id="sprotty_ArchitectureBlockImpl$ibex_csr/GenerateStatementBlockImpl$null6/AlwaysBlockImpl$null6/labeltype" transform="translate(5, 19) translate(18.828125, 9)" style="cursor:default;font-size:8px;font-weight:700;perspective-origin:0.609375px 0px;fill:rgb(112, 112, 112);text-anchor:middle;">always_ff</text><g id="sprotty_ArchitectureBlockImpl$ibex_csr/GenerateStatementBlockImpl$null6/AlwaysBlockImpl$null6/GPortImpl$wr_data_iIN" transform="translate(0, 40)" class="sprotty-hidden hidden" style="display:block;height:0px;width:0px;"/><g id="sprotty_ArchitectureBlockImpl$ibex_csr/GenerateStatementBlockImpl$null6/AlwaysBlockImpl$null6/GPortImpl$wr_en_iIN" transform="translate(0, 30)" class="sprotty-hidden hidden" style="display:block;height:0px;width:0px;"/><g id="sprotty_ArchitectureBlockImpl$ibex_csr/GenerateStatementBlockImpl$null6/AlwaysBlockImpl$null6/GPortImpl$rst_niIN" transform="translate(0, 20)" class="sprotty-hidden hidden" style="display:block;height:0px;width:0px;"/><g id="sprotty_ArchitectureBlockImpl$ibex_csr/GenerateStatementBlockImpl$null6/AlwaysBlockImpl$null6/GPortImpl$clk_iIN" transform="translate(0, 10)" class="sprotty-hidden hidden" style="display:block;height:0px;width:0px;"/></g><g id="sprotty_ArchitectureBlockImpl$ibex_csr/GenerateStatementBlockImpl$null6/AssignmentBlockImpl$rd_error_o" transform="translate(15, 15)" class="statement"><rect x="0" y="0" rx="10" ry="5" width="19.71875" height="22" class="sprotty-node" style="fill:rgb(245, 245, 245);stroke:rgb(112, 112, 112);"/><text class="clickable sprotty-label statementtype" id="sprotty_ArchitectureBlockImpl$ibex_csr/GenerateStatementBlockImpl$null6/AssignmentBlockImpl$rd_error_o/labeltype" transform="translate(5, 5) translate(4.71875, 9)" style="cursor:default;font-size:8px;font-weight:700;perspective-origin:0.140625px 0px;fill:rgb(112, 112, 112);text-anchor:middle;">&lt;=</text><g id="sprotty_ArchitectureBlockImpl$ibex_csr/GenerateStatementBlockImpl$null6/AssignmentBlockImpl$rd_error_o/GPortImpl$rd_error_oOUT" transform="translate(19.71875, 11)" class="sprotty-hidden hidden" style="display:block;height:0px;width:0px;"/></g><g id="sprotty_ArchitectureBlockImpl$ibex_csr/GenerateStatementBlockImpl$null6/AssignmentBlockImpl$rd_error_o1" transform="translate(15, 57)" class="statement"><rect x="0" y="0" rx="10" ry="5" width="19.71875" height="22" class="sprotty-node" style="fill:rgb(245, 245, 245);stroke:rgb(112, 112, 112);"/><text class="clickable sprotty-label statementtype" id="sprotty_ArchitectureBlockImpl$ibex_csr/GenerateStatementBlockImpl$null6/AssignmentBlockImpl$rd_error_o1/labeltype" transform="translate(5, 5) translate(4.71875, 9)" style="cursor:default;font-size:8px;font-weight:700;perspective-origin:0.140625px 0px;fill:rgb(112, 112, 112);text-anchor:middle;">&lt;=</text><g id="sprotty_ArchitectureBlockImpl$ibex_csr/GenerateStatementBlockImpl$null6/AssignmentBlockImpl$rd_error_o1/GPortImpl$rdata_qIN" transform="translate(0, 11)" class="sprotty-hidden hidden" style="display:block;height:0px;width:0px;"/><g id="sprotty_ArchitectureBlockImpl$ibex_csr/GenerateStatementBlockImpl$null6/AssignmentBlockImpl$rd_error_o1/GPortImpl$rd_error_oOUT" transform="translate(19.71875, 11)" class="sprotty-hidden hidden" style="display:block;height:0px;width:0px;"/></g><g id="sprotty_ArchitectureBlockImpl$ibex_csr/GenerateStatementBlockImpl$null6/GPortImpl$rdata_q" transform="translate(0, 68)" class="triangle"><path d="M 0,0 L 5,2.5 L 0,5 Z" transform="translate(-1.67, -2.5)" class="sprotty-port" style="fill:rgb(48, 48, 48);stroke:rgb(48, 48, 48);"/></g><g id="sprotty_ArchitectureBlockImpl$ibex_csr/GenerateStatementBlockImpl$null6/GPortImpl$wr_data_i" transform="translate(0, 139)" class="triangle"><path d="M 0,0 L 5,2.5 L 0,5 Z" transform="translate(-1.67, -2.5)" class="sprotty-port" style="fill:rgb(48, 48, 48);stroke:rgb(48, 48, 48);"/></g><g id="sprotty_ArchitectureBlockImpl$ibex_csr/GenerateStatementBlockImpl$null6/GPortImpl$wr_en_i" transform="translate(0, 129)" class="triangle"><path d="M 0,0 L 5,2.5 L 0,5 Z" transform="translate(-1.67, -2.5)" class="sprotty-port" style="fill:rgb(48, 48, 48);stroke:rgb(48, 48, 48);"/></g><g id="sprotty_ArchitectureBlockImpl$ibex_csr/GenerateStatementBlockImpl$null6/GPortImpl$rst_ni" transform="translate(0, 119)" class="triangle"><path d="M 0,0 L 5,2.5 L 0,5 Z" transform="translate(-1.67, -2.5)" class="sprotty-port" style="fill:rgb(48, 48, 48);stroke:rgb(48, 48, 48);"/></g><g id="sprotty_ArchitectureBlockImpl$ibex_csr/GenerateStatementBlockImpl$null6/GPortImpl$clk_i" transform="translate(0, 109)" class="triangle"><path d="M 0,0 L 5,2.5 L 0,5 Z" transform="translate(-1.67, -2.5)" class="sprotty-port" style="fill:rgb(48, 48, 48);stroke:rgb(48, 48, 48);"/></g><g id="sprotty_ArchitectureBlockImpl$ibex_csr/GenerateStatementBlockImpl$null6/GPortImpl$rd_error_o" transform="translate(80, 26)" class="triangle"><path d="M 0,0 L 5,2.5 L 0,5 Z" transform="translate(-1.67, -2.5)" class="sprotty-port" style="fill:rgb(48, 48, 48);stroke:rgb(48, 48, 48);"/></g></g><g id="sprotty_ArchitectureBlockImpl$ibex_csr/AlwaysBlockImpl$null7" transform="translate(117.03125, 48)" class="statement"><rect x="0" y="0" rx="10" ry="5" width="48.890625" height="50" class="sprotty-node" style="fill:rgb(245, 245, 245);stroke:rgb(112, 112, 112);"/><text class="clickable sprotty-label statementtype" id="sprotty_ArchitectureBlockImpl$ibex_csr/AlwaysBlockImpl$null7/labeltype" transform="translate(5, 19) translate(18.828125, 9)" style="cursor:default;font-size:8px;font-weight:700;perspective-origin:0.609375px 0px;fill:rgb(112, 112, 112);text-anchor:middle;">always_ff</text><g id="sprotty_ArchitectureBlockImpl$ibex_csr/AlwaysBlockImpl$null7/GPortImpl$wr_data_iIN" transform="translate(0, 40)" class="sprotty-hidden hidden" style="display:block;height:0px;width:0px;"/><g id="sprotty_ArchitectureBlockImpl$ibex_csr/AlwaysBlockImpl$null7/GPortImpl$wr_en_iIN" transform="translate(0, 30)" class="sprotty-hidden hidden" style="display:block;height:0px;width:0px;"/><g id="sprotty_ArchitectureBlockImpl$ibex_csr/AlwaysBlockImpl$null7/GPortImpl$rst_niIN" transform="translate(0, 10)" class="sprotty-hidden hidden" style="display:block;height:0px;width:0px;"/><g id="sprotty_ArchitectureBlockImpl$ibex_csr/AlwaysBlockImpl$null7/GPortImpl$clk_iIN" transform="translate(0, 20)" class="sprotty-hidden hidden" style="display:block;height:0px;width:0px;"/><g id="sprotty_ArchitectureBlockImpl$ibex_csr/AlwaysBlockImpl$null7/GPortImpl$rdata_qOUT" transform="translate(48.890625, 25)" class="sprotty-hidden hidden" style="display:block;height:0px;width:0px;"/></g><g id="sprotty_ArchitectureBlockImpl$ibex_csr/AssignmentBlockImpl$rd_data_o" transform="translate(246.0625, 62)" class="statement"><rect x="0" y="0" rx="10" ry="5" width="19.71875" height="22" class="sprotty-node" style="fill:rgb(245, 245, 245);stroke:rgb(112, 112, 112);"/><text class="clickable sprotty-label statementtype" id="sprotty_ArchitectureBlockImpl$ibex_csr/AssignmentBlockImpl$rd_data_o/labeltype" transform="translate(5, 5) translate(4.71875, 9)" style="cursor:default;font-size:8px;font-weight:700;perspective-origin:0.140625px 0px;fill:rgb(112, 112, 112);text-anchor:middle;">&lt;=</text><g id="sprotty_ArchitectureBlockImpl$ibex_csr/AssignmentBlockImpl$rd_data_o/GPortImpl$rdata_qIN" transform="translate(0, 11)" class="sprotty-hidden hidden" style="display:block;height:0px;width:0px;"/><g id="sprotty_ArchitectureBlockImpl$ibex_csr/AssignmentBlockImpl$rd_data_o/GPortImpl$rd_data_oOUT" transform="translate(19.71875, 11)" class="sprotty-hidden hidden" style="display:block;height:0px;width:0px;"/></g><g id="sprotty_ArchitectureBlockImpl$ibex_csr/BPortImpl$wr_en_i" transform="translate(0, 209)" class="triangle"><path d="M 0,0 L 5,2.5 L 0,5 Z" transform="translate(-1.67, -2.5)" class="sprotty-port" style="fill:rgb(48, 48, 48);stroke:rgb(48, 48, 48);"/><text class="clickable sprotty-label port" id="sprotty_ArchitectureBlockImpl$ibex_csr/BPortImpl$wr_en_i/label" transform="translate(6, 6) translate(22.5, 14)" style="cursor:default;font-size:12px;perspective-origin:0px 0px;fill:rgb(48, 48, 48);text-anchor:middle;">wr_en_i</text></g><g id="sprotty_ArchitectureBlockImpl$ibex_csr/BPortImpl$wr_data_i" transform="translate(0, 243)" class="triangle"><path d="M 0,0 L 5,2.5 L 0,5 Z" transform="translate(-1.67, -2.5)" class="sprotty-port" style="fill:rgb(48, 48, 48);stroke:rgb(48, 48, 48);"/><text class="clickable sprotty-label port" id="sprotty_ArchitectureBlockImpl$ibex_csr/BPortImpl$wr_data_i/label" transform="translate(6, 6) translate(28.015625, 14)" style="cursor:default;font-size:12px;perspective-origin:0px 0px;fill:rgb(48, 48, 48);text-anchor:middle;">wr_data_i</text></g><g id="sprotty_ArchitectureBlockImpl$ibex_csr/BPortImpl$rst_ni" transform="translate(0, 58)" class="triangle"><path d="M 0,0 L 5,2.5 L 0,5 Z" transform="translate(-1.67, -2.5)" class="sprotty-port" style="fill:rgb(48, 48, 48);stroke:rgb(48, 48, 48);"/><text class="clickable sprotty-label port" id="sprotty_ArchitectureBlockImpl$ibex_csr/BPortImpl$rst_ni/label" transform="translate(6, 6) translate(15.921875, 14)" style="cursor:default;font-size:12px;perspective-origin:0px 0px;fill:rgb(48, 48, 48);text-anchor:middle;">rst_ni</text></g><g id="sprotty_ArchitectureBlockImpl$ibex_csr/BPortImpl$clk_i" transform="translate(0, 175)" class="triangle"><path d="M 0,0 L 5,2.5 L 0,5 Z" transform="translate(-1.67, -2.5)" class="sprotty-port" style="fill:rgb(48, 48, 48);stroke:rgb(48, 48, 48);"/><text class="clickable sprotty-label port" id="sprotty_ArchitectureBlockImpl$ibex_csr/BPortImpl$clk_i/label" transform="translate(6, 6) translate(13.09375, 14)" style="cursor:default;font-size:12px;perspective-origin:0px 0px;fill:rgb(48, 48, 48);text-anchor:middle;">clk_i</text></g><g id="sprotty_ArchitectureBlockImpl$ibex_csr/BPortImpl$rd_data_o" transform="translate(377.359375, 73)" class="triangle"><path d="M 0,0 L 5,2.5 L 0,5 Z" transform="translate(-1.67, -2.5)" class="sprotty-port" style="fill:rgb(48, 48, 48);stroke:rgb(48, 48, 48);"/><text class="clickable sprotty-label port" id="sprotty_ArchitectureBlockImpl$ibex_csr/BPortImpl$rd_data_o/label" transform="translate(-63.6875, 6) translate(28.84375, 14)" style="cursor:default;font-size:12px;perspective-origin:0px 0px;fill:rgb(48, 48, 48);text-anchor:middle;">rd_data_o</text></g><g id="sprotty_ArchitectureBlockImpl$ibex_csr/BPortImpl$rd_error_o" transform="translate(377.359375, 130)" class="triangle"><path d="M 0,0 L 5,2.5 L 0,5 Z" transform="translate(-1.67, -2.5)" class="sprotty-port" style="fill:rgb(48, 48, 48);stroke:rgb(48, 48, 48);"/><text class="clickable sprotty-label port" id="sprotty_ArchitectureBlockImpl$ibex_csr/BPortImpl$rd_error_o/label" transform="translate(-66.4375, 6) translate(30.21875, 14)" style="cursor:default;font-size:12px;perspective-origin:0px 0px;fill:rgb(48, 48, 48);text-anchor:middle;">rd_error_o</text></g></g></g></svg>