<svg xmlns="http://www.w3.org/2000/svg" id="sprotty_work.tlul_fifo_sync" class="sprotty-graph sprotty-block-diagram blockdiagram" style="font-family:&quot;Noto Sans&quot;, Helvetica, Arial, sans-serif;perspective-origin:0px 0px;transform-origin:0px 0px;" version="1.1" viewBox="7 7 460.46875 472" width="460.46875" height="472"><g transform="scale(1) translate(0,0)"><g id="sprotty_ArchitectureBlockImpl$tlul_fifo_sync" transform="translate(12, 12)" class="architecture"><g class="sprotty-block" style="fill:rgb(255, 255, 255);stroke:rgb(48, 48, 48);stroke-dasharray:0px;"><rect x="0" y="0" rx="1" ry="1" width="450.46875" height="462"/><text x="225.234375" y="12" class="sprotty-block-name" style="cursor:pointer;font-weight:700;perspective-origin:225.234px 0px;fill:rgb(48, 48, 48);stroke:rgba(0, 0, 0, 0);dominant-baseline:middle;text-anchor:middle;">tlul_fifo_sync</text><line x1="0" y1="20" x2="450.46875" y2="20"/></g><g id="sprotty_ArchitectureBlockImpl$tlul_fifo_sync/InstantiationBlockImpl$reqfifo/BPortImpl$wready_o_to_ArchitectureBlockImpl$tlul_fifo_sync/BPortImpl$tl_h_o" class="sprotty-edge thick edge" style="fill:none;stroke:rgb(112, 112, 112);stroke-linejoin:round;stroke-width:3px;"><g><path d="M 329.34375 73 L 337.34375 73 C 338.34375 73 339.34375 74 339.34375 75 L 339.34375 322 C 339.34375 323 340.34375 324 341.34375 324 L 450.46875 324 "/><path d="M 329.34375 73 L 337.34375 73 C 338.34375 73 339.34375 74 339.34375 75 L 339.34375 322 C 339.34375 323 340.34375 324 341.34375 324 L 450.46875 324 " class="clickable"/></g><circle r="3" id="sprotty_ArchitectureBlockImpl$tlul_fifo_sync/InstantiationBlockImpl$reqfifo/BPortImpl$wready_o_to_ArchitectureBlockImpl$tlul_fifo_sync/BPortImpl$tl_h_o/junction0" transform="translate(339.34375, 324)" class="sprotty-junction thick" style="fill:rgb(112, 112, 112);stroke:none;"/></g><g id="sprotty_ArchitectureBlockImpl$tlul_fifo_sync/InstantiationBlockImpl$rspfifo/BPortImpl$rvalid_o_to_ArchitectureBlockImpl$tlul_fifo_sync/BPortImpl$tl_h_o" class="sprotty-edge thick edge" style="fill:none;stroke:rgb(112, 112, 112);stroke-linejoin:round;stroke-width:3px;"><g><path d="M 328.484375 324 L 450.46875 324 "/><path d="M 328.484375 324 L 450.46875 324 " class="clickable"/></g></g><g id="sprotty_ArchitectureBlockImpl$tlul_fifo_sync/InstantiationBlockImpl$rspfifo/BPortImpl$rdata_o_to_ArchitectureBlockImpl$tlul_fifo_sync/BPortImpl$tl_h_o" class="sprotty-edge thick edge" style="fill:none;stroke:rgb(112, 112, 112);stroke-linejoin:round;stroke-width:3px;"><g><path d="M 328.484375 359 L 337.34375 359 C 338.34375 359 339.34375 358 339.34375 357 L 339.34375 326 C 339.34375 325 340.34375 324 341.34375 324 L 450.46875 324 "/><path d="M 328.484375 359 L 337.34375 359 C 338.34375 359 339.34375 358 339.34375 357 L 339.34375 326 C 339.34375 325 340.34375 324 341.34375 324 L 450.46875 324 " class="clickable"/></g><circle r="3" id="sprotty_ArchitectureBlockImpl$tlul_fifo_sync/InstantiationBlockImpl$rspfifo/BPortImpl$rdata_o_to_ArchitectureBlockImpl$tlul_fifo_sync/BPortImpl$tl_h_o/junction0" transform="translate(339.34375, 359)" class="sprotty-junction thick" style="fill:rgb(112, 112, 112);stroke:none;"/></g><g id="sprotty_ArchitectureBlockImpl$tlul_fifo_sync/InstantiationBlockImpl$reqfifo/BPortImpl$rvalid_o_to_ArchitectureBlockImpl$tlul_fifo_sync/BPortImpl$tl_d_o" class="sprotty-edge thick edge" style="fill:none;stroke:rgb(112, 112, 112);stroke-linejoin:round;stroke-width:3px;"><g><path d="M 329.34375 108 L 450.46875 108 "/><path d="M 329.34375 108 L 450.46875 108 " class="clickable"/></g></g><g id="sprotty_ArchitectureBlockImpl$tlul_fifo_sync/InstantiationBlockImpl$reqfifo/BPortImpl$rdata_o_to_ArchitectureBlockImpl$tlul_fifo_sync/BPortImpl$tl_d_o" class="sprotty-edge thick edge" style="fill:none;stroke:rgb(112, 112, 112);stroke-linejoin:round;stroke-width:3px;"><g><path d="M 329.34375 143 L 347.34375 143 C 348.34375 143 349.34375 142 349.34375 141 L 349.34375 110 C 349.34375 109 350.34375 108 351.34375 108 L 450.46875 108 "/><path d="M 329.34375 143 L 347.34375 143 C 348.34375 143 349.34375 142 349.34375 141 L 349.34375 110 C 349.34375 109 350.34375 108 351.34375 108 L 450.46875 108 " class="clickable"/></g><circle r="3" id="sprotty_ArchitectureBlockImpl$tlul_fifo_sync/InstantiationBlockImpl$reqfifo/BPortImpl$rdata_o_to_ArchitectureBlockImpl$tlul_fifo_sync/BPortImpl$tl_d_o/junction0" transform="translate(349.34375, 143)" class="sprotty-junction thick" style="fill:rgb(112, 112, 112);stroke:none;"/><circle r="3" id="sprotty_ArchitectureBlockImpl$tlul_fifo_sync/InstantiationBlockImpl$reqfifo/BPortImpl$rdata_o_to_ArchitectureBlockImpl$tlul_fifo_sync/BPortImpl$tl_d_o/junction1" transform="translate(349.34375, 108)" class="sprotty-junction thick" style="fill:rgb(112, 112, 112);stroke:none;"/></g><g id="sprotty_ArchitectureBlockImpl$tlul_fifo_sync/InstantiationBlockImpl$rspfifo/BPortImpl$wready_o_to_ArchitectureBlockImpl$tlul_fifo_sync/BPortImpl$tl_d_o" class="sprotty-edge thick edge" style="fill:none;stroke:rgb(112, 112, 112);stroke-linejoin:round;stroke-width:3px;"><g><path d="M 328.484375 289 L 347.34375 289 C 348.34375 289 349.34375 288 349.34375 287 L 349.34375 110 C 349.34375 109 350.34375 108 351.34375 108 L 450.46875 108 "/><path d="M 328.484375 289 L 347.34375 289 C 348.34375 289 349.34375 288 349.34375 287 L 349.34375 110 C 349.34375 109 350.34375 108 351.34375 108 L 450.46875 108 " class="clickable"/></g></g><g id="sprotty_ArchitectureBlockImpl$tlul_fifo_sync/InstantiationBlockImpl$reqfifo/BPortImpl$rdata_o_to_ArchitectureBlockImpl$tlul_fifo_sync/BPortImpl$spare_req_o" class="sprotty-edge thick edge" style="fill:none;stroke:rgb(112, 112, 112);stroke-linejoin:round;stroke-width:3px;"><g><path d="M 329.34375 143 L 347.34375 143 C 348.34375 143 349.34375 142 349.34375 141 L 349.34375 76 C 349.34375 75 350.34375 74 351.34375 74 L 450.46875 74 "/><path d="M 329.34375 143 L 347.34375 143 C 348.34375 143 349.34375 142 349.34375 141 L 349.34375 76 C 349.34375 75 350.34375 74 351.34375 74 L 450.46875 74 " class="clickable"/></g></g><g id="sprotty_ArchitectureBlockImpl$tlul_fifo_sync/InstantiationBlockImpl$rspfifo/BPortImpl$rdata_o_to_ArchitectureBlockImpl$tlul_fifo_sync/BPortImpl$spare_rsp_o" class="sprotty-edge thick edge" style="fill:none;stroke:rgb(112, 112, 112);stroke-linejoin:round;stroke-width:3px;"><g><path d="M 328.484375 359 L 450.46875 359 "/><path d="M 328.484375 359 L 450.46875 359 " class="clickable"/></g></g><g id="sprotty_ArchitectureBlockImpl$tlul_fifo_sync/BPortImpl$clk_i_to_ArchitectureBlockImpl$tlul_fifo_sync/InstantiationBlockImpl$reqfifo/BPortImpl$clk_i" class="sprotty-edge edge" style="fill:none;stroke:rgb(112, 112, 112);stroke-linejoin:round;"><g><path d="M 0 73 L 137.15625 73 "/><path d="M 0 73 L 137.15625 73 " class="clickable"/></g></g><g id="sprotty_ArchitectureBlockImpl$tlul_fifo_sync/BPortImpl$rst_ni_to_ArchitectureBlockImpl$tlul_fifo_sync/InstantiationBlockImpl$reqfifo/BPortImpl$rst_ni" class="sprotty-edge edge" style="fill:none;stroke:rgb(112, 112, 112);stroke-linejoin:round;"><g><path d="M 0 317 L 95.15625 317 C 96.15625 317 97.15625 316 97.15625 315 L 97.15625 103 C 97.15625 102 98.15625 101 99.15625 101 L 137.15625 101 "/><path d="M 0 317 L 95.15625 317 C 96.15625 317 97.15625 316 97.15625 315 L 97.15625 103 C 97.15625 102 98.15625 101 99.15625 101 L 137.15625 101 " class="clickable"/></g><circle r="2" id="sprotty_ArchitectureBlockImpl$tlul_fifo_sync/BPortImpl$rst_ni_to_ArchitectureBlockImpl$tlul_fifo_sync/InstantiationBlockImpl$reqfifo/BPortImpl$rst_ni/junction0" transform="translate(97.15625, 317)" class="sprotty-junction junction" style="fill:rgb(112, 112, 112);stroke:none;"/></g><g id="sprotty_ArchitectureBlockImpl$tlul_fifo_sync/BPortImpl$tl_h_i_to_ArchitectureBlockImpl$tlul_fifo_sync/InstantiationBlockImpl$reqfifo/BPortImpl$wvalid_i" class="sprotty-edge thick edge" style="fill:none;stroke:rgb(112, 112, 112);stroke-linejoin:round;stroke-width:3px;"><g><path d="M 0 351 L 105.15625 351 C 106.15625 351 107.15625 350 107.15625 349 L 107.15625 159 C 107.15625 158 108.15625 157 109.15625 157 L 137.15625 157 "/><path d="M 0 351 L 105.15625 351 C 106.15625 351 107.15625 350 107.15625 349 L 107.15625 159 C 107.15625 158 108.15625 157 109.15625 157 L 137.15625 157 " class="clickable"/></g><circle r="3" id="sprotty_ArchitectureBlockImpl$tlul_fifo_sync/BPortImpl$tl_h_i_to_ArchitectureBlockImpl$tlul_fifo_sync/InstantiationBlockImpl$reqfifo/BPortImpl$wvalid_i/junction0" transform="translate(107.15625, 351)" class="sprotty-junction thick" style="fill:rgb(112, 112, 112);stroke:none;"/></g><g id="sprotty_ArchitectureBlockImpl$tlul_fifo_sync/BPortImpl$tl_h_i_to_ArchitectureBlockImpl$tlul_fifo_sync/InstantiationBlockImpl$reqfifo/BPortImpl$wdata_i" class="sprotty-edge thick edge" style="fill:none;stroke:rgb(112, 112, 112);stroke-linejoin:round;stroke-width:3px;"><g><path d="M 0 351 L 105.15625 351 C 106.15625 351 107.15625 350 107.15625 349 L 107.15625 187 C 107.15625 186 108.15625 185 109.15625 185 L 137.15625 185 "/><path d="M 0 351 L 105.15625 351 C 106.15625 351 107.15625 350 107.15625 349 L 107.15625 187 C 107.15625 186 108.15625 185 109.15625 185 L 137.15625 185 " class="clickable"/></g><circle r="3" id="sprotty_ArchitectureBlockImpl$tlul_fifo_sync/BPortImpl$tl_h_i_to_ArchitectureBlockImpl$tlul_fifo_sync/InstantiationBlockImpl$reqfifo/BPortImpl$wdata_i/junction0" transform="translate(107.15625, 185)" class="sprotty-junction thick" style="fill:rgb(112, 112, 112);stroke:none;"/></g><g id="sprotty_ArchitectureBlockImpl$tlul_fifo_sync/BPortImpl$spare_req_i_to_ArchitectureBlockImpl$tlul_fifo_sync/InstantiationBlockImpl$reqfifo/BPortImpl$wdata_i" class="sprotty-edge thick edge" style="fill:none;stroke:rgb(112, 112, 112);stroke-linejoin:round;stroke-width:3px;"><g><path d="M 0 185 L 137.15625 185 "/><path d="M 0 185 L 137.15625 185 " class="clickable"/></g></g><g id="sprotty_ArchitectureBlockImpl$tlul_fifo_sync/BPortImpl$tl_d_i_to_ArchitectureBlockImpl$tlul_fifo_sync/InstantiationBlockImpl$reqfifo/BPortImpl$rready_i" class="sprotty-edge thick edge" style="fill:none;stroke:rgb(112, 112, 112);stroke-linejoin:round;stroke-width:3px;"><g><path d="M 0 385 L 115.15625 385 C 116.15625 385 117.15625 384 117.15625 383 L 117.15625 215 C 117.15625 214 118.15625 213 119.15625 213 L 137.15625 213 "/><path d="M 0 385 L 115.15625 385 C 116.15625 385 117.15625 384 117.15625 383 L 117.15625 215 C 117.15625 214 118.15625 213 119.15625 213 L 137.15625 213 " class="clickable"/></g><circle r="3" id="sprotty_ArchitectureBlockImpl$tlul_fifo_sync/BPortImpl$tl_d_i_to_ArchitectureBlockImpl$tlul_fifo_sync/InstantiationBlockImpl$reqfifo/BPortImpl$rready_i/junction0" transform="translate(117.15625, 385)" class="sprotty-junction thick" style="fill:rgb(112, 112, 112);stroke:none;"/></g><g id="sprotty_ArchitectureBlockImpl$tlul_fifo_sync/BPortImpl$clk_i_to_ArchitectureBlockImpl$tlul_fifo_sync/InstantiationBlockImpl$rspfifo/BPortImpl$clk_i" class="sprotty-edge edge" style="fill:none;stroke:rgb(112, 112, 112);stroke-linejoin:round;"><g><path d="M 0 73 L 125.15625 73 C 126.15625 73 127.15625 74 127.15625 75 L 127.15625 287 C 127.15625 288 128.15625 289 129.15625 289 L 137.671875 289 "/><path d="M 0 73 L 125.15625 73 C 126.15625 73 127.15625 74 127.15625 75 L 127.15625 287 C 127.15625 288 128.15625 289 129.15625 289 L 137.671875 289 " class="clickable"/></g><circle r="2" id="sprotty_ArchitectureBlockImpl$tlul_fifo_sync/BPortImpl$clk_i_to_ArchitectureBlockImpl$tlul_fifo_sync/InstantiationBlockImpl$rspfifo/BPortImpl$clk_i/junction0" transform="translate(127.15625, 73)" class="sprotty-junction junction" style="fill:rgb(112, 112, 112);stroke:none;"/></g><g id="sprotty_ArchitectureBlockImpl$tlul_fifo_sync/BPortImpl$rst_ni_to_ArchitectureBlockImpl$tlul_fifo_sync/InstantiationBlockImpl$rspfifo/BPortImpl$rst_ni" class="sprotty-edge edge" style="fill:none;stroke:rgb(112, 112, 112);stroke-linejoin:round;"><g><path d="M 0 317 L 137.671875 317 "/><path d="M 0 317 L 137.671875 317 " class="clickable"/></g></g><g id="sprotty_ArchitectureBlockImpl$tlul_fifo_sync/BPortImpl$tl_d_i_to_ArchitectureBlockImpl$tlul_fifo_sync/InstantiationBlockImpl$rspfifo/BPortImpl$wvalid_i" class="sprotty-edge thick edge" style="fill:none;stroke:rgb(112, 112, 112);stroke-linejoin:round;stroke-width:3px;"><g><path d="M 0 385 L 115.15625 385 C 116.15625 385 117.15625 384 117.15625 383 L 117.15625 375 C 117.15625 374 118.15625 373 119.15625 373 L 137.671875 373 "/><path d="M 0 385 L 115.15625 385 C 116.15625 385 117.15625 384 117.15625 383 L 117.15625 375 C 117.15625 374 118.15625 373 119.15625 373 L 137.671875 373 " class="clickable"/></g><circle r="3" id="sprotty_ArchitectureBlockImpl$tlul_fifo_sync/BPortImpl$tl_d_i_to_ArchitectureBlockImpl$tlul_fifo_sync/InstantiationBlockImpl$rspfifo/BPortImpl$wvalid_i/junction0" transform="translate(117.15625, 373)" class="sprotty-junction thick" style="fill:rgb(112, 112, 112);stroke:none;"/></g><g id="sprotty_ArchitectureBlockImpl$tlul_fifo_sync/BPortImpl$tl_d_i_to_ArchitectureBlockImpl$tlul_fifo_sync/InstantiationBlockImpl$rspfifo/BPortImpl$wdata_i" class="sprotty-edge thick edge" style="fill:none;stroke:rgb(112, 112, 112);stroke-linejoin:round;stroke-width:3px;"><g><path d="M 0 385 L 115.15625 385 C 116.15625 385 117.15625 386 117.15625 387 L 117.15625 399 C 117.15625 400 118.15625 401 119.15625 401 L 137.671875 401 "/><path d="M 0 385 L 115.15625 385 C 116.15625 385 117.15625 386 117.15625 387 L 117.15625 399 C 117.15625 400 118.15625 401 119.15625 401 L 137.671875 401 " class="clickable"/></g><circle r="3" id="sprotty_ArchitectureBlockImpl$tlul_fifo_sync/BPortImpl$tl_d_i_to_ArchitectureBlockImpl$tlul_fifo_sync/InstantiationBlockImpl$rspfifo/BPortImpl$wdata_i/junction0" transform="translate(117.15625, 401)" class="sprotty-junction thick" style="fill:rgb(112, 112, 112);stroke:none;"/></g><g id="sprotty_ArchitectureBlockImpl$tlul_fifo_sync/BPortImpl$spare_rsp_i_to_ArchitectureBlockImpl$tlul_fifo_sync/InstantiationBlockImpl$rspfifo/BPortImpl$wdata_i" class="sprotty-edge thick edge" style="fill:none;stroke:rgb(112, 112, 112);stroke-linejoin:round;stroke-width:3px;"><g><path d="M 0 419 L 115.15625 419 C 116.15625 419 117.15625 418 117.15625 417 L 117.15625 403 C 117.15625 402 118.15625 401 119.15625 401 L 137.671875 401 "/><path d="M 0 419 L 115.15625 419 C 116.15625 419 117.15625 418 117.15625 417 L 117.15625 403 C 117.15625 402 118.15625 401 119.15625 401 L 137.671875 401 " class="clickable"/></g></g><g id="sprotty_ArchitectureBlockImpl$tlul_fifo_sync/BPortImpl$tl_h_i_to_ArchitectureBlockImpl$tlul_fifo_sync/InstantiationBlockImpl$rspfifo/BPortImpl$rready_i" class="sprotty-edge thick edge" style="fill:none;stroke:rgb(112, 112, 112);stroke-linejoin:round;stroke-width:3px;"><g><path d="M 0 351 L 105.15625 351 C 106.15625 351 107.15625 352 107.15625 353 L 107.15625 427 C 107.15625 428 108.15625 429 109.15625 429 L 137.671875 429 "/><path d="M 0 351 L 105.15625 351 C 106.15625 351 107.15625 352 107.15625 353 L 107.15625 427 C 107.15625 428 108.15625 429 109.15625 429 L 137.671875 429 " class="clickable"/></g></g><g id="sprotty_ArchitectureBlockImpl$tlul_fifo_sync/InstantiationBlockImpl$rspfifo" transform="translate(137.671875, 251)" class="instantiation"><g class="sprotty-block" style="fill:rgb(255, 255, 255);stroke:rgb(48, 48, 48);stroke-dasharray:0px;"><rect x="0" y="0" rx="1" ry="1" width="190.8125" height="196"/><text x="95.40625" y="12" class="sprotty-block-name" style="cursor:pointer;font-weight:700;perspective-origin:95.4062px 0px;fill:rgb(48, 48, 48);stroke:rgba(0, 0, 0, 0);dominant-baseline:middle;text-anchor:middle;">rspfifo : prim_fifo_sync</text><line x1="0" y1="20" x2="190.8125" y2="20"/></g><g id="sprotty_ArchitectureBlockImpl$tlul_fifo_sync/InstantiationBlockImpl$rspfifo/BPortImpl$rready_i" transform="translate(0, 178)" class="triangle"><path d="M 0,0 L 5,2.5 L 0,5 Z" transform="translate(-1.67, -2.5)" class="sprotty-port" style="fill:rgb(48, 48, 48);stroke:rgb(48, 48, 48);"/><text class="clickable sprotty-label port" id="sprotty_ArchitectureBlockImpl$tlul_fifo_sync/InstantiationBlockImpl$rspfifo/BPortImpl$rready_i/label" transform="translate(6, -9) translate(23.0625, 14)" style="cursor:default;font-size:12px;perspective-origin:0px 0px;fill:rgb(48, 48, 48);text-anchor:middle;">rready_i</text></g><g id="sprotty_ArchitectureBlockImpl$tlul_fifo_sync/InstantiationBlockImpl$rspfifo/BPortImpl$wdata_i" transform="translate(0, 150)" class="triangle"><path d="M 0,0 L 5,2.5 L 0,5 Z" transform="translate(-1.67, -2.5)" class="sprotty-port" style="fill:rgb(48, 48, 48);stroke:rgb(48, 48, 48);"/><text class="clickable sprotty-label port" id="sprotty_ArchitectureBlockImpl$tlul_fifo_sync/InstantiationBlockImpl$rspfifo/BPortImpl$wdata_i/label" transform="translate(6, -9) translate(22.3125, 14)" style="cursor:default;font-size:12px;perspective-origin:0px 0px;fill:rgb(48, 48, 48);text-anchor:middle;">wdata_i</text></g><g id="sprotty_ArchitectureBlockImpl$tlul_fifo_sync/InstantiationBlockImpl$rspfifo/BPortImpl$wvalid_i" transform="translate(0, 122)" class="triangle"><path d="M 0,0 L 5,2.5 L 0,5 Z" transform="translate(-1.67, -2.5)" class="sprotty-port" style="fill:rgb(48, 48, 48);stroke:rgb(48, 48, 48);"/><text class="clickable sprotty-label port" id="sprotty_ArchitectureBlockImpl$tlul_fifo_sync/InstantiationBlockImpl$rspfifo/BPortImpl$wvalid_i/label" transform="translate(6, -9) translate(23.28125, 14)" style="cursor:default;font-size:12px;perspective-origin:0px 0px;fill:rgb(48, 48, 48);text-anchor:middle;">wvalid_i</text></g><g id="sprotty_ArchitectureBlockImpl$tlul_fifo_sync/InstantiationBlockImpl$rspfifo/BPortImpl$clr_i" transform="translate(0, 94)" class="triangle"><path d="M 0,0 L 5,2.5 L 0,5 Z" transform="translate(-1.67, -2.5)" class="sprotty-port" style="fill:rgb(48, 48, 48);stroke:rgb(48, 48, 48);"/><text class="clickable sprotty-label port" id="sprotty_ArchitectureBlockImpl$tlul_fifo_sync/InstantiationBlockImpl$rspfifo/BPortImpl$clr_i/label" transform="translate(6, -9) translate(12.109375, 14)" style="cursor:default;font-size:12px;perspective-origin:0px 0px;fill:rgb(48, 48, 48);text-anchor:middle;">clr_i</text></g><g id="sprotty_ArchitectureBlockImpl$tlul_fifo_sync/InstantiationBlockImpl$rspfifo/BPortImpl$rst_ni" transform="translate(0, 66)" class="triangle"><path d="M 0,0 L 5,2.5 L 0,5 Z" transform="translate(-1.67, -2.5)" class="sprotty-port" style="fill:rgb(48, 48, 48);stroke:rgb(48, 48, 48);"/><text class="clickable sprotty-label port" id="sprotty_ArchitectureBlockImpl$tlul_fifo_sync/InstantiationBlockImpl$rspfifo/BPortImpl$rst_ni/label" transform="translate(6, -9) translate(15.921875, 14)" style="cursor:default;font-size:12px;perspective-origin:0px 0px;fill:rgb(48, 48, 48);text-anchor:middle;">rst_ni</text></g><g id="sprotty_ArchitectureBlockImpl$tlul_fifo_sync/InstantiationBlockImpl$rspfifo/BPortImpl$clk_i" transform="translate(0, 38)" class="triangle"><path d="M 0,0 L 5,2.5 L 0,5 Z" transform="translate(-1.67, -2.5)" class="sprotty-port" style="fill:rgb(48, 48, 48);stroke:rgb(48, 48, 48);"/><text class="clickable sprotty-label port" id="sprotty_ArchitectureBlockImpl$tlul_fifo_sync/InstantiationBlockImpl$rspfifo/BPortImpl$clk_i/label" transform="translate(6, -9) translate(13.09375, 14)" style="cursor:default;font-size:12px;perspective-origin:0px 0px;fill:rgb(48, 48, 48);text-anchor:middle;">clk_i</text></g><g id="sprotty_ArchitectureBlockImpl$tlul_fifo_sync/InstantiationBlockImpl$rspfifo/BPortImpl$wready_o" transform="translate(190.8125, 38)" class="triangle"><path d="M 0,0 L 5,2.5 L 0,5 Z" transform="translate(-1.67, -2.5)" class="sprotty-port" style="fill:rgb(48, 48, 48);stroke:rgb(48, 48, 48);"/><text class="clickable sprotty-label port" id="sprotty_ArchitectureBlockImpl$tlul_fifo_sync/InstantiationBlockImpl$rspfifo/BPortImpl$wready_o/label" transform="translate(-61.0625, -9) translate(27.53125, 14)" style="cursor:default;font-size:12px;perspective-origin:0px 0px;fill:rgb(48, 48, 48);text-anchor:middle;">wready_o</text></g><g id="sprotty_ArchitectureBlockImpl$tlul_fifo_sync/InstantiationBlockImpl$rspfifo/BPortImpl$rvalid_o" transform="translate(190.8125, 73)" class="triangle"><path d="M 0,0 L 5,2.5 L 0,5 Z" transform="translate(-1.67, -2.5)" class="sprotty-port" style="fill:rgb(48, 48, 48);stroke:rgb(48, 48, 48);"/><text class="clickable sprotty-label port" id="sprotty_ArchitectureBlockImpl$tlul_fifo_sync/InstantiationBlockImpl$rspfifo/BPortImpl$rvalid_o/label" transform="translate(-51.90625, -9) translate(22.953125, 14)" style="cursor:default;font-size:12px;perspective-origin:0px 0px;fill:rgb(48, 48, 48);text-anchor:middle;">rvalid_o</text></g><g id="sprotty_ArchitectureBlockImpl$tlul_fifo_sync/InstantiationBlockImpl$rspfifo/BPortImpl$rdata_o" transform="translate(190.8125, 108)" class="triangle"><path d="M 0,0 L 5,2.5 L 0,5 Z" transform="translate(-1.67, -2.5)" class="sprotty-port" style="fill:rgb(48, 48, 48);stroke:rgb(48, 48, 48);"/><text class="clickable sprotty-label port" id="sprotty_ArchitectureBlockImpl$tlul_fifo_sync/InstantiationBlockImpl$rspfifo/BPortImpl$rdata_o/label" transform="translate(-49.5625, -9) translate(21.78125, 14)" style="cursor:default;font-size:12px;perspective-origin:0px 0px;fill:rgb(48, 48, 48);text-anchor:middle;">rdata_o</text></g><g id="sprotty_ArchitectureBlockImpl$tlul_fifo_sync/InstantiationBlockImpl$rspfifo/BPortImpl$full_o" transform="translate(190.8125, 143)" class="triangle"><path d="M 0,0 L 5,2.5 L 0,5 Z" transform="translate(-1.67, -2.5)" class="sprotty-port" style="fill:rgb(48, 48, 48);stroke:rgb(48, 48, 48);"/><text class="clickable sprotty-label port" id="sprotty_ArchitectureBlockImpl$tlul_fifo_sync/InstantiationBlockImpl$rspfifo/BPortImpl$full_o/label" transform="translate(-38.03125, -9) translate(16.015625, 14)" style="cursor:default;font-size:12px;perspective-origin:0px 0px;fill:rgb(48, 48, 48);text-anchor:middle;">full_o</text></g><g id="sprotty_ArchitectureBlockImpl$tlul_fifo_sync/InstantiationBlockImpl$rspfifo/BPortImpl$depth_o" transform="translate(190.8125, 178)" class="triangle"><path d="M 0,0 L 5,2.5 L 0,5 Z" transform="translate(-1.67, -2.5)" class="sprotty-port" style="fill:rgb(48, 48, 48);stroke:rgb(48, 48, 48);"/><text class="clickable sprotty-label port" id="sprotty_ArchitectureBlockImpl$tlul_fifo_sync/InstantiationBlockImpl$rspfifo/BPortImpl$depth_o/label" transform="translate(-53.09375, -9) translate(23.546875, 14)" style="cursor:default;font-size:12px;perspective-origin:0px 0px;fill:rgb(48, 48, 48);text-anchor:middle;">depth_o</text></g></g><g id="sprotty_ArchitectureBlockImpl$tlul_fifo_sync/InstantiationBlockImpl$reqfifo" transform="translate(137.15625, 35)" class="instantiation"><g class="sprotty-block" style="fill:rgb(255, 255, 255);stroke:rgb(48, 48, 48);stroke-dasharray:0px;"><rect x="0" y="0" rx="1" ry="1" width="192.1875" height="196"/><text x="96.09375" y="12" class="sprotty-block-name" style="cursor:pointer;font-weight:700;perspective-origin:96.0938px 0px;fill:rgb(48, 48, 48);stroke:rgba(0, 0, 0, 0);dominant-baseline:middle;text-anchor:middle;">reqfifo : prim_fifo_sync</text><line x1="0" y1="20" x2="192.1875" y2="20"/></g><g id="sprotty_ArchitectureBlockImpl$tlul_fifo_sync/InstantiationBlockImpl$reqfifo/BPortImpl$rready_i" transform="translate(0, 178)" class="triangle"><path d="M 0,0 L 5,2.5 L 0,5 Z" transform="translate(-1.67, -2.5)" class="sprotty-port" style="fill:rgb(48, 48, 48);stroke:rgb(48, 48, 48);"/><text class="clickable sprotty-label port" id="sprotty_ArchitectureBlockImpl$tlul_fifo_sync/InstantiationBlockImpl$reqfifo/BPortImpl$rready_i/label" transform="translate(6, -9) translate(23.0625, 14)" style="cursor:default;font-size:12px;perspective-origin:0px 0px;fill:rgb(48, 48, 48);text-anchor:middle;">rready_i</text></g><g id="sprotty_ArchitectureBlockImpl$tlul_fifo_sync/InstantiationBlockImpl$reqfifo/BPortImpl$wdata_i" transform="translate(0, 150)" class="triangle"><path d="M 0,0 L 5,2.5 L 0,5 Z" transform="translate(-1.67, -2.5)" class="sprotty-port" style="fill:rgb(48, 48, 48);stroke:rgb(48, 48, 48);"/><text class="clickable sprotty-label port" id="sprotty_ArchitectureBlockImpl$tlul_fifo_sync/InstantiationBlockImpl$reqfifo/BPortImpl$wdata_i/label" transform="translate(6, -9) translate(22.3125, 14)" style="cursor:default;font-size:12px;perspective-origin:0px 0px;fill:rgb(48, 48, 48);text-anchor:middle;">wdata_i</text></g><g id="sprotty_ArchitectureBlockImpl$tlul_fifo_sync/InstantiationBlockImpl$reqfifo/BPortImpl$wvalid_i" transform="translate(0, 122)" class="triangle"><path d="M 0,0 L 5,2.5 L 0,5 Z" transform="translate(-1.67, -2.5)" class="sprotty-port" style="fill:rgb(48, 48, 48);stroke:rgb(48, 48, 48);"/><text class="clickable sprotty-label port" id="sprotty_ArchitectureBlockImpl$tlul_fifo_sync/InstantiationBlockImpl$reqfifo/BPortImpl$wvalid_i/label" transform="translate(6, -9) translate(23.28125, 14)" style="cursor:default;font-size:12px;perspective-origin:0px 0px;fill:rgb(48, 48, 48);text-anchor:middle;">wvalid_i</text></g><g id="sprotty_ArchitectureBlockImpl$tlul_fifo_sync/InstantiationBlockImpl$reqfifo/BPortImpl$clr_i" transform="translate(0, 94)" class="triangle"><path d="M 0,0 L 5,2.5 L 0,5 Z" transform="translate(-1.67, -2.5)" class="sprotty-port" style="fill:rgb(48, 48, 48);stroke:rgb(48, 48, 48);"/><text class="clickable sprotty-label port" id="sprotty_ArchitectureBlockImpl$tlul_fifo_sync/InstantiationBlockImpl$reqfifo/BPortImpl$clr_i/label" transform="translate(6, -9) translate(12.109375, 14)" style="cursor:default;font-size:12px;perspective-origin:0px 0px;fill:rgb(48, 48, 48);text-anchor:middle;">clr_i</text></g><g id="sprotty_ArchitectureBlockImpl$tlul_fifo_sync/InstantiationBlockImpl$reqfifo/BPortImpl$rst_ni" transform="translate(0, 66)" class="triangle"><path d="M 0,0 L 5,2.5 L 0,5 Z" transform="translate(-1.67, -2.5)" class="sprotty-port" style="fill:rgb(48, 48, 48);stroke:rgb(48, 48, 48);"/><text class="clickable sprotty-label port" id="sprotty_ArchitectureBlockImpl$tlul_fifo_sync/InstantiationBlockImpl$reqfifo/BPortImpl$rst_ni/label" transform="translate(6, -9) translate(15.921875, 14)" style="cursor:default;font-size:12px;perspective-origin:0px 0px;fill:rgb(48, 48, 48);text-anchor:middle;">rst_ni</text></g><g id="sprotty_ArchitectureBlockImpl$tlul_fifo_sync/InstantiationBlockImpl$reqfifo/BPortImpl$clk_i" transform="translate(0, 38)" class="triangle"><path d="M 0,0 L 5,2.5 L 0,5 Z" transform="translate(-1.67, -2.5)" class="sprotty-port" style="fill:rgb(48, 48, 48);stroke:rgb(48, 48, 48);"/><text class="clickable sprotty-label port" id="sprotty_ArchitectureBlockImpl$tlul_fifo_sync/InstantiationBlockImpl$reqfifo/BPortImpl$clk_i/label" transform="translate(6, -9) translate(13.09375, 14)" style="cursor:default;font-size:12px;perspective-origin:0px 0px;fill:rgb(48, 48, 48);text-anchor:middle;">clk_i</text></g><g id="sprotty_ArchitectureBlockImpl$tlul_fifo_sync/InstantiationBlockImpl$reqfifo/BPortImpl$wready_o" transform="translate(192.1875, 38)" class="triangle"><path d="M 0,0 L 5,2.5 L 0,5 Z" transform="translate(-1.67, -2.5)" class="sprotty-port" style="fill:rgb(48, 48, 48);stroke:rgb(48, 48, 48);"/><text class="clickable sprotty-label port" id="sprotty_ArchitectureBlockImpl$tlul_fifo_sync/InstantiationBlockImpl$reqfifo/BPortImpl$wready_o/label" transform="translate(-61.0625, -9) translate(27.53125, 14)" style="cursor:default;font-size:12px;perspective-origin:0px 0px;fill:rgb(48, 48, 48);text-anchor:middle;">wready_o</text></g><g id="sprotty_ArchitectureBlockImpl$tlul_fifo_sync/InstantiationBlockImpl$reqfifo/BPortImpl$rvalid_o" transform="translate(192.1875, 73)" class="triangle"><path d="M 0,0 L 5,2.5 L 0,5 Z" transform="translate(-1.67, -2.5)" class="sprotty-port" style="fill:rgb(48, 48, 48);stroke:rgb(48, 48, 48);"/><text class="clickable sprotty-label port" id="sprotty_ArchitectureBlockImpl$tlul_fifo_sync/InstantiationBlockImpl$reqfifo/BPortImpl$rvalid_o/label" transform="translate(-51.90625, -9) translate(22.953125, 14)" style="cursor:default;font-size:12px;perspective-origin:0px 0px;fill:rgb(48, 48, 48);text-anchor:middle;">rvalid_o</text></g><g id="sprotty_ArchitectureBlockImpl$tlul_fifo_sync/InstantiationBlockImpl$reqfifo/BPortImpl$rdata_o" transform="translate(192.1875, 108)" class="triangle"><path d="M 0,0 L 5,2.5 L 0,5 Z" transform="translate(-1.67, -2.5)" class="sprotty-port" style="fill:rgb(48, 48, 48);stroke:rgb(48, 48, 48);"/><text class="clickable sprotty-label port" id="sprotty_ArchitectureBlockImpl$tlul_fifo_sync/InstantiationBlockImpl$reqfifo/BPortImpl$rdata_o/label" transform="translate(-49.5625, -9) translate(21.78125, 14)" style="cursor:default;font-size:12px;perspective-origin:0px 0px;fill:rgb(48, 48, 48);text-anchor:middle;">rdata_o</text></g><g id="sprotty_ArchitectureBlockImpl$tlul_fifo_sync/InstantiationBlockImpl$reqfifo/BPortImpl$full_o" transform="translate(192.1875, 143)" class="triangle"><path d="M 0,0 L 5,2.5 L 0,5 Z" transform="translate(-1.67, -2.5)" class="sprotty-port" style="fill:rgb(48, 48, 48);stroke:rgb(48, 48, 48);"/><text class="clickable sprotty-label port" id="sprotty_ArchitectureBlockImpl$tlul_fifo_sync/InstantiationBlockImpl$reqfifo/BPortImpl$full_o/label" transform="translate(-38.03125, -9) translate(16.015625, 14)" style="cursor:default;font-size:12px;perspective-origin:0px 0px;fill:rgb(48, 48, 48);text-anchor:middle;">full_o</text></g><g id="sprotty_ArchitectureBlockImpl$tlul_fifo_sync/InstantiationBlockImpl$reqfifo/BPortImpl$depth_o" transform="translate(192.1875, 178)" class="triangle"><path d="M 0,0 L 5,2.5 L 0,5 Z" transform="translate(-1.67, -2.5)" class="sprotty-port" style="fill:rgb(48, 48, 48);stroke:rgb(48, 48, 48);"/><text class="clickable sprotty-label port" id="sprotty_ArchitectureBlockImpl$tlul_fifo_sync/InstantiationBlockImpl$reqfifo/BPortImpl$depth_o/label" transform="translate(-53.09375, -9) translate(23.546875, 14)" style="cursor:default;font-size:12px;perspective-origin:0px 0px;fill:rgb(48, 48, 48);text-anchor:middle;">depth_o</text></g></g><g id="sprotty_ArchitectureBlockImpl$tlul_fifo_sync/BPortImpl$spare_rsp_i" transform="translate(0, 419)" class="triangle"><path d="M 0,0 L 5,2.5 L 0,5 Z" transform="translate(-1.67, -2.5)" class="sprotty-port" style="fill:rgb(48, 48, 48);stroke:rgb(48, 48, 48);"/><text class="clickable sprotty-label port" id="sprotty_ArchitectureBlockImpl$tlul_fifo_sync/BPortImpl$spare_rsp_i/label" transform="translate(6, 6) translate(32.59375, 14)" style="cursor:default;font-size:12px;perspective-origin:0px 0px;fill:rgb(48, 48, 48);text-anchor:middle;">spare_rsp_i</text></g><g id="sprotty_ArchitectureBlockImpl$tlul_fifo_sync/BPortImpl$spare_req_i" transform="translate(0, 185)" class="triangle"><path d="M 0,0 L 5,2.5 L 0,5 Z" transform="translate(-1.67, -2.5)" class="sprotty-port" style="fill:rgb(48, 48, 48);stroke:rgb(48, 48, 48);"/><text class="clickable sprotty-label port" id="sprotty_ArchitectureBlockImpl$tlul_fifo_sync/BPortImpl$spare_req_i/label" transform="translate(6, 6) translate(33.078125, 14)" style="cursor:default;font-size:12px;perspective-origin:0px 0px;fill:rgb(48, 48, 48);text-anchor:middle;">spare_req_i</text></g><g id="sprotty_ArchitectureBlockImpl$tlul_fifo_sync/BPortImpl$tl_d_i" transform="translate(0, 385)" class="triangle"><path d="M 0,0 L 5,2.5 L 0,5 Z" transform="translate(-1.67, -2.5)" class="sprotty-port" style="fill:rgb(48, 48, 48);stroke:rgb(48, 48, 48);"/><text class="clickable sprotty-label port" id="sprotty_ArchitectureBlockImpl$tlul_fifo_sync/BPortImpl$tl_d_i/label" transform="translate(6, 6) translate(16.0625, 14)" style="cursor:default;font-size:12px;perspective-origin:0px 0px;fill:rgb(48, 48, 48);text-anchor:middle;">tl_d_i</text></g><g id="sprotty_ArchitectureBlockImpl$tlul_fifo_sync/BPortImpl$tl_h_i" transform="translate(0, 351)" class="triangle"><path d="M 0,0 L 5,2.5 L 0,5 Z" transform="translate(-1.67, -2.5)" class="sprotty-port" style="fill:rgb(48, 48, 48);stroke:rgb(48, 48, 48);"/><text class="clickable sprotty-label port" id="sprotty_ArchitectureBlockImpl$tlul_fifo_sync/BPortImpl$tl_h_i/label" transform="translate(6, 6) translate(15.984375, 14)" style="cursor:default;font-size:12px;perspective-origin:0px 0px;fill:rgb(48, 48, 48);text-anchor:middle;">tl_h_i</text></g><g id="sprotty_ArchitectureBlockImpl$tlul_fifo_sync/BPortImpl$rst_ni" transform="translate(0, 317)" class="triangle"><path d="M 0,0 L 5,2.5 L 0,5 Z" transform="translate(-1.67, -2.5)" class="sprotty-port" style="fill:rgb(48, 48, 48);stroke:rgb(48, 48, 48);"/><text class="clickable sprotty-label port" id="sprotty_ArchitectureBlockImpl$tlul_fifo_sync/BPortImpl$rst_ni/label" transform="translate(6, 6) translate(15.921875, 14)" style="cursor:default;font-size:12px;perspective-origin:0px 0px;fill:rgb(48, 48, 48);text-anchor:middle;">rst_ni</text></g><g id="sprotty_ArchitectureBlockImpl$tlul_fifo_sync/BPortImpl$clk_i" transform="translate(0, 73)" class="triangle"><path d="M 0,0 L 5,2.5 L 0,5 Z" transform="translate(-1.67, -2.5)" class="sprotty-port" style="fill:rgb(48, 48, 48);stroke:rgb(48, 48, 48);"/><text class="clickable sprotty-label port" id="sprotty_ArchitectureBlockImpl$tlul_fifo_sync/BPortImpl$clk_i/label" transform="translate(6, 6) translate(13.09375, 14)" style="cursor:default;font-size:12px;perspective-origin:0px 0px;fill:rgb(48, 48, 48);text-anchor:middle;">clk_i</text></g><g id="sprotty_ArchitectureBlockImpl$tlul_fifo_sync/BPortImpl$tl_h_o" transform="translate(450.46875, 324)" class="triangle"><path d="M 0,0 L 5,2.5 L 0,5 Z" transform="translate(-1.67, -2.5)" class="sprotty-port" style="fill:rgb(48, 48, 48);stroke:rgb(48, 48, 48);"/><text class="clickable sprotty-label port" id="sprotty_ArchitectureBlockImpl$tlul_fifo_sync/BPortImpl$tl_h_o/label" transform="translate(-41.9375, 6) translate(17.96875, 14)" style="cursor:default;font-size:12px;perspective-origin:0px 0px;fill:rgb(48, 48, 48);text-anchor:middle;">tl_h_o</text></g><g id="sprotty_ArchitectureBlockImpl$tlul_fifo_sync/BPortImpl$tl_d_o" transform="translate(450.46875, 108)" class="triangle"><path d="M 0,0 L 5,2.5 L 0,5 Z" transform="translate(-1.67, -2.5)" class="sprotty-port" style="fill:rgb(48, 48, 48);stroke:rgb(48, 48, 48);"/><text class="clickable sprotty-label port" id="sprotty_ArchitectureBlockImpl$tlul_fifo_sync/BPortImpl$tl_d_o/label" transform="translate(-42.09375, 6) translate(18.046875, 14)" style="cursor:default;font-size:12px;perspective-origin:0px 0px;fill:rgb(48, 48, 48);text-anchor:middle;">tl_d_o</text></g><g id="sprotty_ArchitectureBlockImpl$tlul_fifo_sync/BPortImpl$spare_req_o" transform="translate(450.46875, 74)" class="triangle"><path d="M 0,0 L 5,2.5 L 0,5 Z" transform="translate(-1.67, -2.5)" class="sprotty-port" style="fill:rgb(48, 48, 48);stroke:rgb(48, 48, 48);"/><text class="clickable sprotty-label port" id="sprotty_ArchitectureBlockImpl$tlul_fifo_sync/BPortImpl$spare_req_o/label" transform="translate(-76.125, 6) translate(35.0625, 14)" style="cursor:default;font-size:12px;perspective-origin:0px 0px;fill:rgb(48, 48, 48);text-anchor:middle;">spare_req_o</text></g><g id="sprotty_ArchitectureBlockImpl$tlul_fifo_sync/BPortImpl$spare_rsp_o" transform="translate(450.46875, 359)" class="triangle"><path d="M 0,0 L 5,2.5 L 0,5 Z" transform="translate(-1.67, -2.5)" class="sprotty-port" style="fill:rgb(48, 48, 48);stroke:rgb(48, 48, 48);"/><text class="clickable sprotty-label port" id="sprotty_ArchitectureBlockImpl$tlul_fifo_sync/BPortImpl$spare_rsp_o/label" transform="translate(-75.1875, 6) translate(34.59375, 14)" style="cursor:default;font-size:12px;perspective-origin:0px 0px;fill:rgb(48, 48, 48);text-anchor:middle;">spare_rsp_o</text></g></g></g></svg>