<svg xmlns="http://www.w3.org/2000/svg" id="sprotty_work.aes_sbox_canright_masked" class="sprotty-graph sprotty-block-diagram blockdiagram" style="font-family:&quot;Noto Sans&quot;, Helvetica, Arial, sans-serif;perspective-origin:0px 0px;transform-origin:0px 0px;" version="1.1" viewBox="7 7 701.65625 257" width="701.65625" height="257"><g transform="scale(1) translate(0,0)"><g id="sprotty_ArchitectureBlockImpl$aes_sbox_canright_masked" transform="translate(12, 12)" class="architecture"><g class="sprotty-block" style="fill:rgb(255, 255, 255);stroke:rgb(48, 48, 48);stroke-dasharray:0px;"><rect x="0" y="0" rx="1" ry="1" width="691.65625" height="247"/><text x="345.828125" y="12" class="sprotty-block-name" style="cursor:pointer;font-weight:700;perspective-origin:345.828px 0px;fill:rgb(48, 48, 48);stroke:rgba(0, 0, 0, 0);dominant-baseline:middle;text-anchor:middle;">aes_sbox_canright_masked</text><line x1="0" y1="20" x2="691.65625" y2="20"/></g><g id="sprotty_ArchitectureBlockImpl$aes_sbox_canright_masked/AssignmentBlockImpl$data_o/GPortImpl$data_oOUT_to_ArchitectureBlockImpl$aes_sbox_canright_masked/BPortImpl$data_o" class="sprotty-edge thick edge" style="fill:none;stroke:rgb(112, 112, 112);stroke-linejoin:round;stroke-width:3px;"><g><path d="M 626.53125 106 L 691.65625 106 "/><path d="M 626.53125 106 L 691.65625 106 " class="clickable"/></g></g><g id="sprotty_ArchitectureBlockImpl$aes_sbox_canright_masked/AssignmentBlockImpl$mask_o/GPortImpl$mask_oOUT_to_ArchitectureBlockImpl$aes_sbox_canright_masked/BPortImpl$mask_o" class="sprotty-edge thick edge" style="fill:none;stroke:rgb(112, 112, 112);stroke-linejoin:round;stroke-width:3px;"><g><path d="M 110.875 208 L 118.875 208 C 119.875 208 120.875 207 120.875 206 L 120.875 189 C 120.875 188 121.875 187 122.875 187 L 691.65625 187 "/><path d="M 110.875 208 L 118.875 208 C 119.875 208 120.875 207 120.875 206 L 120.875 189 C 120.875 188 121.875 187 122.875 187 L 691.65625 187 " class="clickable"/></g><circle r="3" id="sprotty_ArchitectureBlockImpl$aes_sbox_canright_masked/AssignmentBlockImpl$mask_o/GPortImpl$mask_oOUT_to_ArchitectureBlockImpl$aes_sbox_canright_masked/BPortImpl$mask_o/junction0" transform="translate(120.875, 187)" class="sprotty-junction thick" style="fill:rgb(112, 112, 112);stroke:none;"/></g><g id="sprotty_ArchitectureBlockImpl$aes_sbox_canright_masked/BPortImpl$op_i_to_ArchitectureBlockImpl$aes_sbox_canright_masked/AssignmentBlockImpl$in_data_basis_x/GPortImpl$op_iIN" class="sprotty-edge thick edge" style="fill:none;stroke:rgb(112, 112, 112);stroke-linejoin:round;stroke-width:3px;"><g><path d="M 0 146 L 79.15625 146 C 80.15625 146 81.15625 145 81.15625 144 L 81.15625 58 C 81.15625 57 82.15625 56 83.15625 56 L 91.15625 56 "/><path d="M 0 146 L 79.15625 146 C 80.15625 146 81.15625 145 81.15625 144 L 81.15625 58 C 81.15625 57 82.15625 56 83.15625 56 L 91.15625 56 " class="clickable"/></g><circle r="3" id="sprotty_ArchitectureBlockImpl$aes_sbox_canright_masked/BPortImpl$op_i_to_ArchitectureBlockImpl$aes_sbox_canright_masked/AssignmentBlockImpl$in_data_basis_x/GPortImpl$op_iIN/junction0" transform="translate(81.15625, 146)" class="sprotty-junction thick" style="fill:rgb(112, 112, 112);stroke:none;"/></g><g id="sprotty_ArchitectureBlockImpl$aes_sbox_canright_masked/BPortImpl$data_i_to_ArchitectureBlockImpl$aes_sbox_canright_masked/AssignmentBlockImpl$in_data_basis_x/GPortImpl$data_iIN" class="sprotty-edge thick edge" style="fill:none;stroke:rgb(112, 112, 112);stroke-linejoin:round;stroke-width:3px;"><g><path d="M 0 46 L 91.15625 46 "/><path d="M 0 46 L 91.15625 46 " class="clickable"/></g></g><g id="sprotty_ArchitectureBlockImpl$aes_sbox_canright_masked/BPortImpl$prd_i_to_ArchitectureBlockImpl$aes_sbox_canright_masked/AssignmentBlockImpl$mask_o/GPortImpl$prd_iIN" class="sprotty-edge thick edge" style="fill:none;stroke:rgb(112, 112, 112);stroke-linejoin:round;stroke-width:3px;"><g><path d="M 0 208 L 91.15625 208 "/><path d="M 0 208 L 91.15625 208 " class="clickable"/></g></g><g id="sprotty_ArchitectureBlockImpl$aes_sbox_canright_masked/BPortImpl$op_i_to_ArchitectureBlockImpl$aes_sbox_canright_masked/AssignmentBlockImpl$in_mask_basis_x/GPortImpl$op_iIN" class="sprotty-edge thick edge" style="fill:none;stroke:rgb(112, 112, 112);stroke-linejoin:round;stroke-width:3px;"><g><path d="M 0 146 L 79.15625 146 C 80.15625 146 81.15625 145 81.15625 144 L 81.15625 108 C 81.15625 107 82.15625 106 83.15625 106 L 91.15625 106 "/><path d="M 0 146 L 79.15625 146 C 80.15625 146 81.15625 145 81.15625 144 L 81.15625 108 C 81.15625 107 82.15625 106 83.15625 106 L 91.15625 106 " class="clickable"/></g><circle r="3" id="sprotty_ArchitectureBlockImpl$aes_sbox_canright_masked/BPortImpl$op_i_to_ArchitectureBlockImpl$aes_sbox_canright_masked/AssignmentBlockImpl$in_mask_basis_x/GPortImpl$op_iIN/junction0" transform="translate(81.15625, 106)" class="sprotty-junction thick" style="fill:rgb(112, 112, 112);stroke:none;"/></g><g id="sprotty_ArchitectureBlockImpl$aes_sbox_canright_masked/BPortImpl$mask_i_to_ArchitectureBlockImpl$aes_sbox_canright_masked/AssignmentBlockImpl$in_mask_basis_x/GPortImpl$mask_iIN" class="sprotty-edge thick edge" style="fill:none;stroke:rgb(112, 112, 112);stroke-linejoin:round;stroke-width:3px;"><g><path d="M 0 96 L 91.15625 96 "/><path d="M 0 96 L 91.15625 96 " class="clickable"/></g></g><g id="sprotty_ArchitectureBlockImpl$aes_sbox_canright_masked/BPortImpl$op_i_to_ArchitectureBlockImpl$aes_sbox_canright_masked/AssignmentBlockImpl$out_mask_basis_x/GPortImpl$op_iIN" class="sprotty-edge thick edge" style="fill:none;stroke:rgb(112, 112, 112);stroke-linejoin:round;stroke-width:3px;"><g><path d="M 0 146 L 91.15625 146 "/><path d="M 0 146 L 91.15625 146 " class="clickable"/></g></g><g id="sprotty_ArchitectureBlockImpl$aes_sbox_canright_masked/BPortImpl$mask_o_to_ArchitectureBlockImpl$aes_sbox_canright_masked/AssignmentBlockImpl$out_mask_basis_x/GPortImpl$mask_oIN" class="sprotty-edge thick edge" style="fill:none;stroke:rgb(112, 112, 112);stroke-linejoin:round;stroke-width:3px;"><g><path d="M 691.65625 187 L 73.15625 187 C 72.15625 187 71.15625 186 71.15625 185 L 71.15625 158 C 71.15625 157 72.15625 156 73.15625 156 L 91.15625 156 "/><path d="M 691.65625 187 L 73.15625 187 C 72.15625 187 71.15625 186 71.15625 185 L 71.15625 158 C 71.15625 157 72.15625 156 73.15625 156 L 91.15625 156 " class="clickable"/></g></g><g id="sprotty_ArchitectureBlockImpl$aes_sbox_canright_masked/BPortImpl$op_i_to_ArchitectureBlockImpl$aes_sbox_canright_masked/AssignmentBlockImpl$data_o/GPortImpl$op_iIN" class="sprotty-edge thick edge" style="fill:none;stroke:rgb(112, 112, 112);stroke-linejoin:round;stroke-width:3px;"><g><path d="M 0 146 L 79.15625 146 C 80.15625 146 81.15625 147 81.15625 148 L 81.15625 175 C 81.15625 176 82.15625 177 83.15625 177 L 594.8125 177 C 595.8125 177 596.8125 176 596.8125 175 L 596.8125 113 C 596.8125 112 597.8125 111 598.8125 111 L 606.8125 111 "/><path d="M 0 146 L 79.15625 146 C 80.15625 146 81.15625 147 81.15625 148 L 81.15625 175 C 81.15625 176 82.15625 177 83.15625 177 L 594.8125 177 C 595.8125 177 596.8125 176 596.8125 175 L 596.8125 113 C 596.8125 112 597.8125 111 598.8125 111 L 606.8125 111 " class="clickable"/></g></g><g id="sprotty_ArchitectureBlockImpl$aes_sbox_canright_masked/AssignmentBlockImpl$in_data_basis_x/GPortImpl$in_data_basis_xOUT_to_ArchitectureBlockImpl$aes_sbox_canright_masked/InstantiationBlockImpl$aes_masked_inverse_gf2p8/BPortImpl$a" class="sprotty-edge thick edge" style="fill:none;stroke:rgb(112, 112, 112);stroke-linejoin:round;stroke-width:3px;"><g><path d="M 110.875 51 L 118.875 51 C 119.875 51 120.875 52 120.875 53 L 120.875 71 C 120.875 72 121.875 73 122.875 73 L 130.875 73 "/><path d="M 110.875 51 L 118.875 51 C 119.875 51 120.875 52 120.875 53 L 120.875 71 C 120.875 72 121.875 73 122.875 73 L 130.875 73 " class="clickable"/></g></g><g id="sprotty_ArchitectureBlockImpl$aes_sbox_canright_masked/InstantiationBlockImpl$aes_masked_inverse_gf2p8/BPortImpl$a_inv_to_ArchitectureBlockImpl$aes_sbox_canright_masked/AssignmentBlockImpl$data_o/GPortImpl$out_data_basis_xIN" class="sprotty-edge thick edge" style="fill:none;stroke:rgb(112, 112, 112);stroke-linejoin:round;stroke-width:3px;"><g><path d="M 586.8125 101 L 606.8125 101 "/><path d="M 586.8125 101 L 606.8125 101 " class="clickable"/></g></g><g id="sprotty_ArchitectureBlockImpl$aes_sbox_canright_masked/AssignmentBlockImpl$in_mask_basis_x/GPortImpl$in_mask_basis_xOUT_to_ArchitectureBlockImpl$aes_sbox_canright_masked/InstantiationBlockImpl$aes_masked_inverse_gf2p8/BPortImpl$m" class="sprotty-edge thick edge" style="fill:none;stroke:rgb(112, 112, 112);stroke-linejoin:round;stroke-width:3px;"><g><path d="M 110.875 101 L 130.875 101 "/><path d="M 110.875 101 L 130.875 101 " class="clickable"/></g></g><g id="sprotty_ArchitectureBlockImpl$aes_sbox_canright_masked/AssignmentBlockImpl$out_mask_basis_x/GPortImpl$mask_oOUT_to_ArchitectureBlockImpl$aes_sbox_canright_masked/InstantiationBlockImpl$aes_masked_inverse_gf2p8/BPortImpl$n" class="sprotty-edge thick edge" style="fill:none;stroke:rgb(112, 112, 112);stroke-linejoin:round;stroke-width:3px;"><g><path d="M 110.875 151 L 118.875 151 C 119.875 151 120.875 150 120.875 149 L 120.875 131 C 120.875 130 121.875 129 122.875 129 L 130.875 129 "/><path d="M 110.875 151 L 118.875 151 C 119.875 151 120.875 150 120.875 149 L 120.875 131 C 120.875 130 121.875 129 122.875 129 L 130.875 129 " class="clickable"/></g></g><g id="sprotty_ArchitectureBlockImpl$aes_sbox_canright_masked/AssignmentBlockImpl$data_o" transform="translate(606.8125, 91)" class="statement"><rect x="0" y="0" rx="10" ry="5" width="19.71875" height="30" class="sprotty-node" style="fill:rgb(245, 245, 245);stroke:rgb(112, 112, 112);"/><text class="clickable sprotty-label statementtype" id="sprotty_ArchitectureBlockImpl$aes_sbox_canright_masked/AssignmentBlockImpl$data_o/labeltype" transform="translate(5, 9) translate(4.71875, 9)" style="cursor:default;font-size:8px;font-weight:700;perspective-origin:0.140625px 0px;fill:rgb(112, 112, 112);text-anchor:middle;">&lt;=</text><g id="sprotty_ArchitectureBlockImpl$aes_sbox_canright_masked/AssignmentBlockImpl$data_o/GPortImpl$out_data_basis_xIN" transform="translate(0, 10)" class="sprotty-hidden hidden" style="display:block;height:0px;width:0px;"/><g id="sprotty_ArchitectureBlockImpl$aes_sbox_canright_masked/AssignmentBlockImpl$data_o/GPortImpl$op_iIN" transform="translate(0, 20)" class="sprotty-hidden hidden" style="display:block;height:0px;width:0px;"/><g id="sprotty_ArchitectureBlockImpl$aes_sbox_canright_masked/AssignmentBlockImpl$data_o/GPortImpl$data_oOUT" transform="translate(19.71875, 15)" class="sprotty-hidden hidden" style="display:block;height:0px;width:0px;"/></g><g id="sprotty_ArchitectureBlockImpl$aes_sbox_canright_masked/AssignmentBlockImpl$out_mask_basis_x" transform="translate(91.15625, 136)" class="statement"><rect x="0" y="0" rx="10" ry="5" width="19.71875" height="30" class="sprotty-node" style="fill:rgb(245, 245, 245);stroke:rgb(112, 112, 112);"/><text class="clickable sprotty-label statementtype" id="sprotty_ArchitectureBlockImpl$aes_sbox_canright_masked/AssignmentBlockImpl$out_mask_basis_x/labeltype" transform="translate(5, 9) translate(4.71875, 9)" style="cursor:default;font-size:8px;font-weight:700;perspective-origin:0.140625px 0px;fill:rgb(112, 112, 112);text-anchor:middle;">&lt;=</text><g id="sprotty_ArchitectureBlockImpl$aes_sbox_canright_masked/AssignmentBlockImpl$out_mask_basis_x/GPortImpl$mask_oIN" transform="translate(0, 20)" class="sprotty-hidden hidden" style="display:block;height:0px;width:0px;"/><g id="sprotty_ArchitectureBlockImpl$aes_sbox_canright_masked/AssignmentBlockImpl$out_mask_basis_x/GPortImpl$op_iIN" transform="translate(0, 10)" class="sprotty-hidden hidden" style="display:block;height:0px;width:0px;"/><g id="sprotty_ArchitectureBlockImpl$aes_sbox_canright_masked/AssignmentBlockImpl$out_mask_basis_x/GPortImpl$mask_oOUT" transform="translate(19.71875, 15)" class="sprotty-hidden hidden" style="display:block;height:0px;width:0px;"/></g><g id="sprotty_ArchitectureBlockImpl$aes_sbox_canright_masked/AssignmentBlockImpl$in_mask_basis_x" transform="translate(91.15625, 86)" class="statement"><rect x="0" y="0" rx="10" ry="5" width="19.71875" height="30" class="sprotty-node" style="fill:rgb(245, 245, 245);stroke:rgb(112, 112, 112);"/><text class="clickable sprotty-label statementtype" id="sprotty_ArchitectureBlockImpl$aes_sbox_canright_masked/AssignmentBlockImpl$in_mask_basis_x/labeltype" transform="translate(5, 9) translate(4.71875, 9)" style="cursor:default;font-size:8px;font-weight:700;perspective-origin:0.140625px 0px;fill:rgb(112, 112, 112);text-anchor:middle;">&lt;=</text><g id="sprotty_ArchitectureBlockImpl$aes_sbox_canright_masked/AssignmentBlockImpl$in_mask_basis_x/GPortImpl$mask_iIN" transform="translate(0, 10)" class="sprotty-hidden hidden" style="display:block;height:0px;width:0px;"/><g id="sprotty_ArchitectureBlockImpl$aes_sbox_canright_masked/AssignmentBlockImpl$in_mask_basis_x/GPortImpl$op_iIN" transform="translate(0, 20)" class="sprotty-hidden hidden" style="display:block;height:0px;width:0px;"/><g id="sprotty_ArchitectureBlockImpl$aes_sbox_canright_masked/AssignmentBlockImpl$in_mask_basis_x/GPortImpl$in_mask_basis_xOUT" transform="translate(19.71875, 15)" class="sprotty-hidden hidden" style="display:block;height:0px;width:0px;"/></g><g id="sprotty_ArchitectureBlockImpl$aes_sbox_canright_masked/AssignmentBlockImpl$mask_o" transform="translate(91.15625, 197)" class="statement"><rect x="0" y="0" rx="10" ry="5" width="19.71875" height="22" class="sprotty-node" style="fill:rgb(245, 245, 245);stroke:rgb(112, 112, 112);"/><text class="clickable sprotty-label statementtype" id="sprotty_ArchitectureBlockImpl$aes_sbox_canright_masked/AssignmentBlockImpl$mask_o/labeltype" transform="translate(5, 5) translate(4.71875, 9)" style="cursor:default;font-size:8px;font-weight:700;perspective-origin:0.140625px 0px;fill:rgb(112, 112, 112);text-anchor:middle;">&lt;=</text><g id="sprotty_ArchitectureBlockImpl$aes_sbox_canright_masked/AssignmentBlockImpl$mask_o/GPortImpl$prd_iIN" transform="translate(0, 11)" class="sprotty-hidden hidden" style="display:block;height:0px;width:0px;"/><g id="sprotty_ArchitectureBlockImpl$aes_sbox_canright_masked/AssignmentBlockImpl$mask_o/GPortImpl$mask_oOUT" transform="translate(19.71875, 11)" class="sprotty-hidden hidden" style="display:block;height:0px;width:0px;"/></g><g id="sprotty_ArchitectureBlockImpl$aes_sbox_canright_masked/AssignmentBlockImpl$in_data_basis_x" transform="translate(91.15625, 36)" class="statement"><rect x="0" y="0" rx="10" ry="5" width="19.71875" height="30" class="sprotty-node" style="fill:rgb(245, 245, 245);stroke:rgb(112, 112, 112);"/><text class="clickable sprotty-label statementtype" id="sprotty_ArchitectureBlockImpl$aes_sbox_canright_masked/AssignmentBlockImpl$in_data_basis_x/labeltype" transform="translate(5, 9) translate(4.71875, 9)" style="cursor:default;font-size:8px;font-weight:700;perspective-origin:0.140625px 0px;fill:rgb(112, 112, 112);text-anchor:middle;">&lt;=</text><g id="sprotty_ArchitectureBlockImpl$aes_sbox_canright_masked/AssignmentBlockImpl$in_data_basis_x/GPortImpl$data_iIN" transform="translate(0, 10)" class="sprotty-hidden hidden" style="display:block;height:0px;width:0px;"/><g id="sprotty_ArchitectureBlockImpl$aes_sbox_canright_masked/AssignmentBlockImpl$in_data_basis_x/GPortImpl$op_iIN" transform="translate(0, 20)" class="sprotty-hidden hidden" style="display:block;height:0px;width:0px;"/><g id="sprotty_ArchitectureBlockImpl$aes_sbox_canright_masked/AssignmentBlockImpl$in_data_basis_x/GPortImpl$in_data_basis_xOUT" transform="translate(19.71875, 15)" class="sprotty-hidden hidden" style="display:block;height:0px;width:0px;"/></g><g id="sprotty_ArchitectureBlockImpl$aes_sbox_canright_masked/InstantiationBlockImpl$aes_masked_inverse_gf2p8" transform="translate(130.875, 35)" class="instantiation"><g class="sprotty-block" style="fill:rgb(255, 255, 255);stroke:rgb(48, 48, 48);stroke-dasharray:0px;"><rect x="0" y="0" rx="1" ry="1" width="455.9375" height="112"/><text x="227.96875" y="12" class="sprotty-block-name" style="cursor:pointer;font-weight:700;perspective-origin:227.969px 0px;fill:rgb(48, 48, 48);stroke:rgba(0, 0, 0, 0);dominant-baseline:middle;text-anchor:middle;">aes_masked_inverse_gf2p8 : aes_masked_inverse_gf2p8</text><line x1="0" y1="20" x2="455.9375" y2="20"/></g><g id="sprotty_ArchitectureBlockImpl$aes_sbox_canright_masked/InstantiationBlockImpl$aes_masked_inverse_gf2p8/BPortImpl$n" transform="translate(0, 94)" class="triangle"><path d="M 0,0 L 5,2.5 L 0,5 Z" transform="translate(-1.67, -2.5)" class="sprotty-port" style="fill:rgb(48, 48, 48);stroke:rgb(48, 48, 48);"/><text class="clickable sprotty-label port" id="sprotty_ArchitectureBlockImpl$aes_sbox_canright_masked/InstantiationBlockImpl$aes_masked_inverse_gf2p8/BPortImpl$n/label" transform="translate(6, -9) translate(3.671875, 14)" style="cursor:default;font-size:12px;perspective-origin:0px 0px;fill:rgb(48, 48, 48);text-anchor:middle;">n</text></g><g id="sprotty_ArchitectureBlockImpl$aes_sbox_canright_masked/InstantiationBlockImpl$aes_masked_inverse_gf2p8/BPortImpl$m" transform="translate(0, 66)" class="triangle"><path d="M 0,0 L 5,2.5 L 0,5 Z" transform="translate(-1.67, -2.5)" class="sprotty-port" style="fill:rgb(48, 48, 48);stroke:rgb(48, 48, 48);"/><text class="clickable sprotty-label port" id="sprotty_ArchitectureBlockImpl$aes_sbox_canright_masked/InstantiationBlockImpl$aes_masked_inverse_gf2p8/BPortImpl$m/label" transform="translate(6, -9) translate(5.5625, 14)" style="cursor:default;font-size:12px;perspective-origin:0px 0px;fill:rgb(48, 48, 48);text-anchor:middle;">m</text></g><g id="sprotty_ArchitectureBlockImpl$aes_sbox_canright_masked/InstantiationBlockImpl$aes_masked_inverse_gf2p8/BPortImpl$a" transform="translate(0, 38)" class="triangle"><path d="M 0,0 L 5,2.5 L 0,5 Z" transform="translate(-1.67, -2.5)" class="sprotty-port" style="fill:rgb(48, 48, 48);stroke:rgb(48, 48, 48);"/><text class="clickable sprotty-label port" id="sprotty_ArchitectureBlockImpl$aes_sbox_canright_masked/InstantiationBlockImpl$aes_masked_inverse_gf2p8/BPortImpl$a/label" transform="translate(6, -9) translate(3.390625, 14)" style="cursor:default;font-size:12px;perspective-origin:0px 0px;fill:rgb(48, 48, 48);text-anchor:middle;">a</text></g><g id="sprotty_ArchitectureBlockImpl$aes_sbox_canright_masked/InstantiationBlockImpl$aes_masked_inverse_gf2p8/BPortImpl$a_inv" transform="translate(455.9375, 66)" class="triangle"><path d="M 0,0 L 5,2.5 L 0,5 Z" transform="translate(-1.67, -2.5)" class="sprotty-port" style="fill:rgb(48, 48, 48);stroke:rgb(48, 48, 48);"/><text class="clickable sprotty-label port" id="sprotty_ArchitectureBlockImpl$aes_sbox_canright_masked/InstantiationBlockImpl$aes_masked_inverse_gf2p8/BPortImpl$a_inv/label" transform="translate(-37.125, -9) translate(15.1875, 14)" style="cursor:default;font-size:12px;perspective-origin:0.375px 0px;fill:rgb(48, 48, 48);text-anchor:middle;">a_inv</text></g></g><g id="sprotty_ArchitectureBlockImpl$aes_sbox_canright_masked/BPortImpl$prd_i" transform="translate(0, 208)" class="triangle"><path d="M 0,0 L 5,2.5 L 0,5 Z" transform="translate(-1.67, -2.5)" class="sprotty-port" style="fill:rgb(48, 48, 48);stroke:rgb(48, 48, 48);"/><text class="clickable sprotty-label port" id="sprotty_ArchitectureBlockImpl$aes_sbox_canright_masked/BPortImpl$prd_i/label" transform="translate(6, 6) translate(14.71875, 14)" style="cursor:default;font-size:12px;perspective-origin:0px 0px;fill:rgb(48, 48, 48);text-anchor:middle;">prd_i</text></g><g id="sprotty_ArchitectureBlockImpl$aes_sbox_canright_masked/BPortImpl$mask_i" transform="translate(0, 96)" class="triangle"><path d="M 0,0 L 5,2.5 L 0,5 Z" transform="translate(-1.67, -2.5)" class="sprotty-port" style="fill:rgb(48, 48, 48);stroke:rgb(48, 48, 48);"/><text class="clickable sprotty-label port" id="sprotty_ArchitectureBlockImpl$aes_sbox_canright_masked/BPortImpl$mask_i/label" transform="translate(6, 6) translate(20.078125, 14)" style="cursor:default;font-size:12px;perspective-origin:0px 0px;fill:rgb(48, 48, 48);text-anchor:middle;">mask_i</text></g><g id="sprotty_ArchitectureBlockImpl$aes_sbox_canright_masked/BPortImpl$data_i" transform="translate(0, 46)" class="triangle"><path d="M 0,0 L 5,2.5 L 0,5 Z" transform="translate(-1.67, -2.5)" class="sprotty-port" style="fill:rgb(48, 48, 48);stroke:rgb(48, 48, 48);"/><text class="clickable sprotty-label port" id="sprotty_ArchitectureBlockImpl$aes_sbox_canright_masked/BPortImpl$data_i/label" transform="translate(6, 6) translate(17.53125, 14)" style="cursor:default;font-size:12px;perspective-origin:0px 0px;fill:rgb(48, 48, 48);text-anchor:middle;">data_i</text></g><g id="sprotty_ArchitectureBlockImpl$aes_sbox_canright_masked/BPortImpl$op_i" transform="translate(0, 146)" class="triangle"><path d="M 0,0 L 5,2.5 L 0,5 Z" transform="translate(-1.67, -2.5)" class="sprotty-port" style="fill:rgb(48, 48, 48);stroke:rgb(48, 48, 48);"/><text class="clickable sprotty-label port" id="sprotty_ArchitectureBlockImpl$aes_sbox_canright_masked/BPortImpl$op_i/label" transform="translate(6, 6) translate(12.375, 14)" style="cursor:default;font-size:12px;perspective-origin:0px 0px;fill:rgb(48, 48, 48);text-anchor:middle;">op_i</text></g><g id="sprotty_ArchitectureBlockImpl$aes_sbox_canright_masked/BPortImpl$data_o" transform="translate(691.65625, 106)" class="triangle"><path d="M 0,0 L 5,2.5 L 0,5 Z" transform="translate(-1.67, -2.5)" class="sprotty-port" style="fill:rgb(48, 48, 48);stroke:rgb(48, 48, 48);"/><text class="clickable sprotty-label port" id="sprotty_ArchitectureBlockImpl$aes_sbox_canright_masked/BPortImpl$data_o/label" transform="translate(-45.03125, 6) translate(19.515625, 14)" style="cursor:default;font-size:12px;perspective-origin:0px 0px;fill:rgb(48, 48, 48);text-anchor:middle;">data_o</text></g><g id="sprotty_ArchitectureBlockImpl$aes_sbox_canright_masked/BPortImpl$mask_o" transform="translate(691.65625, 187)" class="triangle"><path d="M 0,0 L 5,2.5 L 0,5 Z" transform="translate(-1.67, -2.5)" class="sprotty-port" style="fill:rgb(48, 48, 48);stroke:rgb(48, 48, 48);"/><text class="clickable sprotty-label port" id="sprotty_ArchitectureBlockImpl$aes_sbox_canright_masked/BPortImpl$mask_o/label" transform="translate(-50.125, 6) translate(22.0625, 14)" style="cursor:default;font-size:12px;perspective-origin:0px 0px;fill:rgb(48, 48, 48);text-anchor:middle;">mask_o</text></g></g></g></svg>