<svg xmlns="http://www.w3.org/2000/svg" id="sprotty_work.dmi_cdc" class="sprotty-graph sprotty-block-diagram blockdiagram" style="font-family:&quot;Noto Sans&quot;, Helvetica, Arial, sans-serif;perspective-origin:0px 0px;transform-origin:0px 0px;" version="1.1" viewBox="7 7 540.3125 534" width="540.3125" height="534"><g transform="scale(1) translate(0,0)"><g id="sprotty_ArchitectureBlockImpl$dmi_cdc" transform="translate(12, 12)" class="architecture"><g class="sprotty-block" style="fill:rgb(255, 255, 255);stroke:rgb(48, 48, 48);stroke-dasharray:0px;"><rect x="0" y="0" rx="1" ry="1" width="530.3125" height="524"/><text x="265.15625" y="12" class="sprotty-block-name" style="cursor:pointer;font-weight:700;perspective-origin:265.156px 0px;fill:rgb(48, 48, 48);stroke:rgba(0, 0, 0, 0);dominant-baseline:middle;text-anchor:middle;">dmi_cdc</text><line x1="0" y1="20" x2="530.3125" y2="20"/></g><g id="sprotty_ArchitectureBlockImpl$dmi_cdc/InstantiationBlockImpl$i_cdc_req/BPortImpl$wready_o_to_ArchitectureBlockImpl$dmi_cdc/BPortImpl$jtag_dmi_ready_o" class="sprotty-edge edge" style="fill:none;stroke:rgb(112, 112, 112);stroke-linejoin:round;"><g><path d="M 398.809375 317 L 530.3125 317 "/><path d="M 398.809375 317 L 530.3125 317 " class="clickable"/></g></g><g id="sprotty_ArchitectureBlockImpl$dmi_cdc/InstantiationBlockImpl$i_cdc_resp/BPortImpl$rdata_o_to_ArchitectureBlockImpl$dmi_cdc/BPortImpl$jtag_dmi_resp_o" class="sprotty-edge thick edge" style="fill:none;stroke:rgb(112, 112, 112);stroke-linejoin:round;stroke-width:3px;"><g><path d="M 404.34375 199 L 530.3125 199 "/><path d="M 404.34375 199 L 530.3125 199 " class="clickable"/></g></g><g id="sprotty_ArchitectureBlockImpl$dmi_cdc/InstantiationBlockImpl$i_cdc_resp/BPortImpl$rvalid_o_to_ArchitectureBlockImpl$dmi_cdc/BPortImpl$jtag_dmi_valid_o" class="sprotty-edge edge" style="fill:none;stroke:rgb(112, 112, 112);stroke-linejoin:round;"><g><path d="M 404.34375 157 L 530.3125 157 "/><path d="M 404.34375 157 L 530.3125 157 " class="clickable"/></g></g><g id="sprotty_ArchitectureBlockImpl$dmi_cdc/InstantiationBlockImpl$i_cdc_req/BPortImpl$rdata_o_to_ArchitectureBlockImpl$dmi_cdc/BPortImpl$core_dmi_req_o" class="sprotty-edge thick edge" style="fill:none;stroke:rgb(112, 112, 112);stroke-linejoin:round;stroke-width:3px;"><g><path d="M 398.809375 443 L 530.3125 443 "/><path d="M 398.809375 443 L 530.3125 443 " class="clickable"/></g></g><g id="sprotty_ArchitectureBlockImpl$dmi_cdc/InstantiationBlockImpl$i_cdc_req/BPortImpl$rvalid_o_to_ArchitectureBlockImpl$dmi_cdc/BPortImpl$core_dmi_valid_o" class="sprotty-edge edge" style="fill:none;stroke:rgb(112, 112, 112);stroke-linejoin:round;"><g><path d="M 398.809375 401 L 530.3125 401 "/><path d="M 398.809375 401 L 530.3125 401 " class="clickable"/></g></g><g id="sprotty_ArchitectureBlockImpl$dmi_cdc/InstantiationBlockImpl$i_cdc_resp/BPortImpl$wready_o_to_ArchitectureBlockImpl$dmi_cdc/BPortImpl$core_dmi_ready_o" class="sprotty-edge edge" style="fill:none;stroke:rgb(112, 112, 112);stroke-linejoin:round;"><g><path d="M 404.34375 73 L 530.3125 73 "/><path d="M 404.34375 73 L 530.3125 73 " class="clickable"/></g></g><g id="sprotty_ArchitectureBlockImpl$dmi_cdc/BPortImpl$tck_i_to_ArchitectureBlockImpl$dmi_cdc/InstantiationBlockImpl$i_cdc_req/BPortImpl$clk_wr_i" class="sprotty-edge edge" style="fill:none;stroke:rgb(112, 112, 112);stroke-linejoin:round;"><g><path d="M 0 185 L 160 185 C 161 185 162 186 162 187 L 162 315 C 162 316 163 317 164 317 L 174.371875 317 "/><path d="M 0 185 L 160 185 C 161 185 162 186 162 187 L 162 315 C 162 316 163 317 164 317 L 174.371875 317 " class="clickable"/></g><circle r="2" id="sprotty_ArchitectureBlockImpl$dmi_cdc/BPortImpl$tck_i_to_ArchitectureBlockImpl$dmi_cdc/InstantiationBlockImpl$i_cdc_req/BPortImpl$clk_wr_i/junction0" transform="translate(162, 185)" class="sprotty-junction junction" style="fill:rgb(112, 112, 112);stroke:none;"/></g><g id="sprotty_ArchitectureBlockImpl$dmi_cdc/BPortImpl$trst_ni_to_ArchitectureBlockImpl$dmi_cdc/InstantiationBlockImpl$i_cdc_req/BPortImpl$rst_wr_ni" class="sprotty-edge edge" style="fill:none;stroke:rgb(112, 112, 112);stroke-linejoin:round;"><g><path d="M 0 345 L 174.371875 345 "/><path d="M 0 345 L 174.371875 345 " class="clickable"/></g></g><g id="sprotty_ArchitectureBlockImpl$dmi_cdc/BPortImpl$jtag_dmi_valid_i_to_ArchitectureBlockImpl$dmi_cdc/InstantiationBlockImpl$i_cdc_req/BPortImpl$wvalid_i" class="sprotty-edge edge" style="fill:none;stroke:rgb(112, 112, 112);stroke-linejoin:round;"><g><path d="M 0 379 L 150 379 C 151 379 152 378 152 377 L 152 375 C 152 374 153 373 154 373 L 174.371875 373 "/><path d="M 0 379 L 150 379 C 151 379 152 378 152 377 L 152 375 C 152 374 153 373 154 373 L 174.371875 373 " class="clickable"/></g></g><g id="sprotty_ArchitectureBlockImpl$dmi_cdc/BPortImpl$jtag_dmi_req_i_to_ArchitectureBlockImpl$dmi_cdc/InstantiationBlockImpl$i_cdc_req/BPortImpl$wdata_i" class="sprotty-edge thick edge" style="fill:none;stroke:rgb(112, 112, 112);stroke-linejoin:round;stroke-width:3px;"><g><path d="M 0 413 L 150 413 C 151 413 152 412 152 411 L 152 403 C 152 402 153 401 154 401 L 174.371875 401 "/><path d="M 0 413 L 150 413 C 151 413 152 412 152 411 L 152 403 C 152 402 153 401 154 401 L 174.371875 401 " class="clickable"/></g></g><g id="sprotty_ArchitectureBlockImpl$dmi_cdc/BPortImpl$clk_i_to_ArchitectureBlockImpl$dmi_cdc/InstantiationBlockImpl$i_cdc_req/BPortImpl$clk_rd_i" class="sprotty-edge edge" style="fill:none;stroke:rgb(112, 112, 112);stroke-linejoin:round;"><g><path d="M 0 151 L 130 151 C 131 151 132 152 132 153 L 132 427 C 132 428 133 429 134 429 L 174.371875 429 "/><path d="M 0 151 L 130 151 C 131 151 132 152 132 153 L 132 427 C 132 428 133 429 134 429 L 174.371875 429 " class="clickable"/></g><circle r="2" id="sprotty_ArchitectureBlockImpl$dmi_cdc/BPortImpl$clk_i_to_ArchitectureBlockImpl$dmi_cdc/InstantiationBlockImpl$i_cdc_req/BPortImpl$clk_rd_i/junction0" transform="translate(132, 151)" class="sprotty-junction junction" style="fill:rgb(112, 112, 112);stroke:none;"/></g><g id="sprotty_ArchitectureBlockImpl$dmi_cdc/BPortImpl$rst_ni_to_ArchitectureBlockImpl$dmi_cdc/InstantiationBlockImpl$i_cdc_req/BPortImpl$rst_rd_ni" class="sprotty-edge edge" style="fill:none;stroke:rgb(112, 112, 112);stroke-linejoin:round;"><g><path d="M 0 275 L 140 275 C 141 275 142 276 142 277 L 142 455 C 142 456 143 457 144 457 L 174.371875 457 "/><path d="M 0 275 L 140 275 C 141 275 142 276 142 277 L 142 455 C 142 456 143 457 144 457 L 174.371875 457 " class="clickable"/></g><circle r="2" id="sprotty_ArchitectureBlockImpl$dmi_cdc/BPortImpl$rst_ni_to_ArchitectureBlockImpl$dmi_cdc/InstantiationBlockImpl$i_cdc_req/BPortImpl$rst_rd_ni/junction0" transform="translate(142, 275)" class="sprotty-junction junction" style="fill:rgb(112, 112, 112);stroke:none;"/></g><g id="sprotty_ArchitectureBlockImpl$dmi_cdc/BPortImpl$core_dmi_ready_i_to_ArchitectureBlockImpl$dmi_cdc/InstantiationBlockImpl$i_cdc_req/BPortImpl$rready_i" class="sprotty-edge edge" style="fill:none;stroke:rgb(112, 112, 112);stroke-linejoin:round;"><g><path d="M 0 485 L 174.371875 485 "/><path d="M 0 485 L 174.371875 485 " class="clickable"/></g></g><g id="sprotty_ArchitectureBlockImpl$dmi_cdc/BPortImpl$clk_i_to_ArchitectureBlockImpl$dmi_cdc/InstantiationBlockImpl$i_cdc_resp/BPortImpl$clk_wr_i" class="sprotty-edge edge" style="fill:none;stroke:rgb(112, 112, 112);stroke-linejoin:round;"><g><path d="M 0 151 L 130 151 C 131 151 132 150 132 149 L 132 75 C 132 74 133 73 134 73 L 172 73 "/><path d="M 0 151 L 130 151 C 131 151 132 150 132 149 L 132 75 C 132 74 133 73 134 73 L 172 73 " class="clickable"/></g></g><g id="sprotty_ArchitectureBlockImpl$dmi_cdc/BPortImpl$rst_ni_to_ArchitectureBlockImpl$dmi_cdc/InstantiationBlockImpl$i_cdc_resp/BPortImpl$rst_wr_ni" class="sprotty-edge edge" style="fill:none;stroke:rgb(112, 112, 112);stroke-linejoin:round;"><g><path d="M 0 275 L 140 275 C 141 275 142 274 142 273 L 142 103 C 142 102 143 101 144 101 L 172 101 "/><path d="M 0 275 L 140 275 C 141 275 142 274 142 273 L 142 103 C 142 102 143 101 144 101 L 172 101 " class="clickable"/></g></g><g id="sprotty_ArchitectureBlockImpl$dmi_cdc/BPortImpl$core_dmi_valid_i_to_ArchitectureBlockImpl$dmi_cdc/InstantiationBlockImpl$i_cdc_resp/BPortImpl$wvalid_i" class="sprotty-edge edge" style="fill:none;stroke:rgb(112, 112, 112);stroke-linejoin:round;"><g><path d="M 0 83 L 160 83 C 161 83 162 84 162 85 L 162 127 C 162 128 163 129 164 129 L 172 129 "/><path d="M 0 83 L 160 83 C 161 83 162 84 162 85 L 162 127 C 162 128 163 129 164 129 L 172 129 " class="clickable"/></g></g><g id="sprotty_ArchitectureBlockImpl$dmi_cdc/BPortImpl$core_dmi_resp_i_to_ArchitectureBlockImpl$dmi_cdc/InstantiationBlockImpl$i_cdc_resp/BPortImpl$wdata_i" class="sprotty-edge thick edge" style="fill:none;stroke:rgb(112, 112, 112);stroke-linejoin:round;stroke-width:3px;"><g><path d="M 0 117 L 150 117 C 151 117 152 118 152 119 L 152 155 C 152 156 153 157 154 157 L 172 157 "/><path d="M 0 117 L 150 117 C 151 117 152 118 152 119 L 152 155 C 152 156 153 157 154 157 L 172 157 " class="clickable"/></g></g><g id="sprotty_ArchitectureBlockImpl$dmi_cdc/BPortImpl$tck_i_to_ArchitectureBlockImpl$dmi_cdc/InstantiationBlockImpl$i_cdc_resp/BPortImpl$clk_rd_i" class="sprotty-edge edge" style="fill:none;stroke:rgb(112, 112, 112);stroke-linejoin:round;"><g><path d="M 0 185 L 172 185 "/><path d="M 0 185 L 172 185 " class="clickable"/></g></g><g id="sprotty_ArchitectureBlockImpl$dmi_cdc/BPortImpl$trst_ni_to_ArchitectureBlockImpl$dmi_cdc/InstantiationBlockImpl$i_cdc_resp/BPortImpl$rst_rd_ni" class="sprotty-edge edge" style="fill:none;stroke:rgb(112, 112, 112);stroke-linejoin:round;"><g><path d="M 0 345 L 150 345 C 151 345 152 344 152 343 L 152 215 C 152 214 153 213 154 213 L 172 213 "/><path d="M 0 345 L 150 345 C 151 345 152 344 152 343 L 152 215 C 152 214 153 213 154 213 L 172 213 " class="clickable"/></g><circle r="2" id="sprotty_ArchitectureBlockImpl$dmi_cdc/BPortImpl$trst_ni_to_ArchitectureBlockImpl$dmi_cdc/InstantiationBlockImpl$i_cdc_resp/BPortImpl$rst_rd_ni/junction0" transform="translate(152, 345)" class="sprotty-junction junction" style="fill:rgb(112, 112, 112);stroke:none;"/></g><g id="sprotty_ArchitectureBlockImpl$dmi_cdc/BPortImpl$jtag_dmi_ready_i_to_ArchitectureBlockImpl$dmi_cdc/InstantiationBlockImpl$i_cdc_resp/BPortImpl$rready_i" class="sprotty-edge edge" style="fill:none;stroke:rgb(112, 112, 112);stroke-linejoin:round;"><g><path d="M 0 241 L 172 241 "/><path d="M 0 241 L 172 241 " class="clickable"/></g></g><g id="sprotty_ArchitectureBlockImpl$dmi_cdc/InstantiationBlockImpl$i_cdc_resp" transform="translate(172, 35)" class="instantiation"><g class="sprotty-block" style="fill:rgb(255, 255, 255);stroke:rgb(48, 48, 48);stroke-dasharray:0px;"><rect x="0" y="0" rx="1" ry="1" width="232.34375" height="224"/><text x="116.171875" y="12" class="sprotty-block-name" style="cursor:pointer;font-weight:700;perspective-origin:116.172px 0px;fill:rgb(48, 48, 48);stroke:rgba(0, 0, 0, 0);dominant-baseline:middle;text-anchor:middle;">i_cdc_resp : prim_fifo_async</text><line x1="0" y1="20" x2="232.34375" y2="20"/></g><g id="sprotty_ArchitectureBlockImpl$dmi_cdc/InstantiationBlockImpl$i_cdc_resp/BPortImpl$rready_i" transform="translate(0, 206)" class="triangle"><path d="M 0,0 L 5,2.5 L 0,5 Z" transform="translate(-1.67, -2.5)" class="sprotty-port" style="fill:rgb(48, 48, 48);stroke:rgb(48, 48, 48);"/><text class="clickable sprotty-label port" id="sprotty_ArchitectureBlockImpl$dmi_cdc/InstantiationBlockImpl$i_cdc_resp/BPortImpl$rready_i/label" transform="translate(6, -9) translate(23.0625, 14)" style="cursor:default;font-size:12px;perspective-origin:0px 0px;fill:rgb(48, 48, 48);text-anchor:middle;">rready_i</text></g><g id="sprotty_ArchitectureBlockImpl$dmi_cdc/InstantiationBlockImpl$i_cdc_resp/BPortImpl$rst_rd_ni" transform="translate(0, 178)" class="triangle"><path d="M 0,0 L 5,2.5 L 0,5 Z" transform="translate(-1.67, -2.5)" class="sprotty-port" style="fill:rgb(48, 48, 48);stroke:rgb(48, 48, 48);"/><text class="clickable sprotty-label port" id="sprotty_ArchitectureBlockImpl$dmi_cdc/InstantiationBlockImpl$i_cdc_resp/BPortImpl$rst_rd_ni/label" transform="translate(6, -9) translate(25.25, 14)" style="cursor:default;font-size:12px;perspective-origin:0px 0px;fill:rgb(48, 48, 48);text-anchor:middle;">rst_rd_ni</text></g><g id="sprotty_ArchitectureBlockImpl$dmi_cdc/InstantiationBlockImpl$i_cdc_resp/BPortImpl$clk_rd_i" transform="translate(0, 150)" class="triangle"><path d="M 0,0 L 5,2.5 L 0,5 Z" transform="translate(-1.67, -2.5)" class="sprotty-port" style="fill:rgb(48, 48, 48);stroke:rgb(48, 48, 48);"/><text class="clickable sprotty-label port" id="sprotty_ArchitectureBlockImpl$dmi_cdc/InstantiationBlockImpl$i_cdc_resp/BPortImpl$clk_rd_i/label" transform="translate(6, -9) translate(22.421875, 14)" style="cursor:default;font-size:12px;perspective-origin:0px 0px;fill:rgb(48, 48, 48);text-anchor:middle;">clk_rd_i</text></g><g id="sprotty_ArchitectureBlockImpl$dmi_cdc/InstantiationBlockImpl$i_cdc_resp/BPortImpl$wdata_i" transform="translate(0, 122)" class="triangle"><path d="M 0,0 L 5,2.5 L 0,5 Z" transform="translate(-1.67, -2.5)" class="sprotty-port" style="fill:rgb(48, 48, 48);stroke:rgb(48, 48, 48);"/><text class="clickable sprotty-label port" id="sprotty_ArchitectureBlockImpl$dmi_cdc/InstantiationBlockImpl$i_cdc_resp/BPortImpl$wdata_i/label" transform="translate(6, -9) translate(22.3125, 14)" style="cursor:default;font-size:12px;perspective-origin:0px 0px;fill:rgb(48, 48, 48);text-anchor:middle;">wdata_i</text></g><g id="sprotty_ArchitectureBlockImpl$dmi_cdc/InstantiationBlockImpl$i_cdc_resp/BPortImpl$wvalid_i" transform="translate(0, 94)" class="triangle"><path d="M 0,0 L 5,2.5 L 0,5 Z" transform="translate(-1.67, -2.5)" class="sprotty-port" style="fill:rgb(48, 48, 48);stroke:rgb(48, 48, 48);"/><text class="clickable sprotty-label port" id="sprotty_ArchitectureBlockImpl$dmi_cdc/InstantiationBlockImpl$i_cdc_resp/BPortImpl$wvalid_i/label" transform="translate(6, -9) translate(23.28125, 14)" style="cursor:default;font-size:12px;perspective-origin:0px 0px;fill:rgb(48, 48, 48);text-anchor:middle;">wvalid_i</text></g><g id="sprotty_ArchitectureBlockImpl$dmi_cdc/InstantiationBlockImpl$i_cdc_resp/BPortImpl$rst_wr_ni" transform="translate(0, 66)" class="triangle"><path d="M 0,0 L 5,2.5 L 0,5 Z" transform="translate(-1.67, -2.5)" class="sprotty-port" style="fill:rgb(48, 48, 48);stroke:rgb(48, 48, 48);"/><text class="clickable sprotty-label port" id="sprotty_ArchitectureBlockImpl$dmi_cdc/InstantiationBlockImpl$i_cdc_resp/BPortImpl$rst_wr_ni/label" transform="translate(6, -9) translate(26.40625, 14)" style="cursor:default;font-size:12px;perspective-origin:0px 0px;fill:rgb(48, 48, 48);text-anchor:middle;">rst_wr_ni</text></g><g id="sprotty_ArchitectureBlockImpl$dmi_cdc/InstantiationBlockImpl$i_cdc_resp/BPortImpl$clk_wr_i" transform="translate(0, 38)" class="triangle"><path d="M 0,0 L 5,2.5 L 0,5 Z" transform="translate(-1.67, -2.5)" class="sprotty-port" style="fill:rgb(48, 48, 48);stroke:rgb(48, 48, 48);"/><text class="clickable sprotty-label port" id="sprotty_ArchitectureBlockImpl$dmi_cdc/InstantiationBlockImpl$i_cdc_resp/BPortImpl$clk_wr_i/label" transform="translate(6, -9) translate(23.578125, 14)" style="cursor:default;font-size:12px;perspective-origin:0px 0px;fill:rgb(48, 48, 48);text-anchor:middle;">clk_wr_i</text></g><g id="sprotty_ArchitectureBlockImpl$dmi_cdc/InstantiationBlockImpl$i_cdc_resp/BPortImpl$wready_o" transform="translate(232.34375, 38)" class="triangle"><path d="M 0,0 L 5,2.5 L 0,5 Z" transform="translate(-1.67, -2.5)" class="sprotty-port" style="fill:rgb(48, 48, 48);stroke:rgb(48, 48, 48);"/><text class="clickable sprotty-label port" id="sprotty_ArchitectureBlockImpl$dmi_cdc/InstantiationBlockImpl$i_cdc_resp/BPortImpl$wready_o/label" transform="translate(-61.0625, -9) translate(27.53125, 14)" style="cursor:default;font-size:12px;perspective-origin:0px 0px;fill:rgb(48, 48, 48);text-anchor:middle;">wready_o</text></g><g id="sprotty_ArchitectureBlockImpl$dmi_cdc/InstantiationBlockImpl$i_cdc_resp/BPortImpl$wdepth_o" transform="translate(232.34375, 80)" class="triangle"><path d="M 0,0 L 5,2.5 L 0,5 Z" transform="translate(-1.67, -2.5)" class="sprotty-port" style="fill:rgb(48, 48, 48);stroke:rgb(48, 48, 48);"/><text class="clickable sprotty-label port" id="sprotty_ArchitectureBlockImpl$dmi_cdc/InstantiationBlockImpl$i_cdc_resp/BPortImpl$wdepth_o/label" transform="translate(-62.6875, -9) translate(28.34375, 14)" style="cursor:default;font-size:12px;perspective-origin:0px 0px;fill:rgb(48, 48, 48);text-anchor:middle;">wdepth_o</text></g><g id="sprotty_ArchitectureBlockImpl$dmi_cdc/InstantiationBlockImpl$i_cdc_resp/BPortImpl$rvalid_o" transform="translate(232.34375, 122)" class="triangle"><path d="M 0,0 L 5,2.5 L 0,5 Z" transform="translate(-1.67, -2.5)" class="sprotty-port" style="fill:rgb(48, 48, 48);stroke:rgb(48, 48, 48);"/><text class="clickable sprotty-label port" id="sprotty_ArchitectureBlockImpl$dmi_cdc/InstantiationBlockImpl$i_cdc_resp/BPortImpl$rvalid_o/label" transform="translate(-51.90625, -9) translate(22.953125, 14)" style="cursor:default;font-size:12px;perspective-origin:0px 0px;fill:rgb(48, 48, 48);text-anchor:middle;">rvalid_o</text></g><g id="sprotty_ArchitectureBlockImpl$dmi_cdc/InstantiationBlockImpl$i_cdc_resp/BPortImpl$rdata_o" transform="translate(232.34375, 164)" class="triangle"><path d="M 0,0 L 5,2.5 L 0,5 Z" transform="translate(-1.67, -2.5)" class="sprotty-port" style="fill:rgb(48, 48, 48);stroke:rgb(48, 48, 48);"/><text class="clickable sprotty-label port" id="sprotty_ArchitectureBlockImpl$dmi_cdc/InstantiationBlockImpl$i_cdc_resp/BPortImpl$rdata_o/label" transform="translate(-49.5625, -9) translate(21.78125, 14)" style="cursor:default;font-size:12px;perspective-origin:0px 0px;fill:rgb(48, 48, 48);text-anchor:middle;">rdata_o</text></g><g id="sprotty_ArchitectureBlockImpl$dmi_cdc/InstantiationBlockImpl$i_cdc_resp/BPortImpl$rdepth_o" transform="translate(232.34375, 206)" class="triangle"><path d="M 0,0 L 5,2.5 L 0,5 Z" transform="translate(-1.67, -2.5)" class="sprotty-port" style="fill:rgb(48, 48, 48);stroke:rgb(48, 48, 48);"/><text class="clickable sprotty-label port" id="sprotty_ArchitectureBlockImpl$dmi_cdc/InstantiationBlockImpl$i_cdc_resp/BPortImpl$rdepth_o/label" transform="translate(-57.625, -9) translate(25.8125, 14)" style="cursor:default;font-size:12px;perspective-origin:0px 0px;fill:rgb(48, 48, 48);text-anchor:middle;">rdepth_o</text></g></g><g id="sprotty_ArchitectureBlockImpl$dmi_cdc/InstantiationBlockImpl$i_cdc_req" transform="translate(174.371875, 279)" class="instantiation"><g class="sprotty-block" style="fill:rgb(255, 255, 255);stroke:rgb(48, 48, 48);stroke-dasharray:0px;"><rect x="0" y="0" rx="1" ry="1" width="224.4375" height="224"/><text x="112.21875" y="12" class="sprotty-block-name" style="cursor:pointer;font-weight:700;perspective-origin:112.219px 0px;fill:rgb(48, 48, 48);stroke:rgba(0, 0, 0, 0);dominant-baseline:middle;text-anchor:middle;">i_cdc_req : prim_fifo_async</text><line x1="0" y1="20" x2="224.4375" y2="20"/></g><g id="sprotty_ArchitectureBlockImpl$dmi_cdc/InstantiationBlockImpl$i_cdc_req/BPortImpl$rready_i" transform="translate(0, 206)" class="triangle"><path d="M 0,0 L 5,2.5 L 0,5 Z" transform="translate(-1.67, -2.5)" class="sprotty-port" style="fill:rgb(48, 48, 48);stroke:rgb(48, 48, 48);"/><text class="clickable sprotty-label port" id="sprotty_ArchitectureBlockImpl$dmi_cdc/InstantiationBlockImpl$i_cdc_req/BPortImpl$rready_i/label" transform="translate(6, -9) translate(23.0625, 14)" style="cursor:default;font-size:12px;perspective-origin:0px 0px;fill:rgb(48, 48, 48);text-anchor:middle;">rready_i</text></g><g id="sprotty_ArchitectureBlockImpl$dmi_cdc/InstantiationBlockImpl$i_cdc_req/BPortImpl$rst_rd_ni" transform="translate(0, 178)" class="triangle"><path d="M 0,0 L 5,2.5 L 0,5 Z" transform="translate(-1.67, -2.5)" class="sprotty-port" style="fill:rgb(48, 48, 48);stroke:rgb(48, 48, 48);"/><text class="clickable sprotty-label port" id="sprotty_ArchitectureBlockImpl$dmi_cdc/InstantiationBlockImpl$i_cdc_req/BPortImpl$rst_rd_ni/label" transform="translate(6, -9) translate(25.25, 14)" style="cursor:default;font-size:12px;perspective-origin:0px 0px;fill:rgb(48, 48, 48);text-anchor:middle;">rst_rd_ni</text></g><g id="sprotty_ArchitectureBlockImpl$dmi_cdc/InstantiationBlockImpl$i_cdc_req/BPortImpl$clk_rd_i" transform="translate(0, 150)" class="triangle"><path d="M 0,0 L 5,2.5 L 0,5 Z" transform="translate(-1.67, -2.5)" class="sprotty-port" style="fill:rgb(48, 48, 48);stroke:rgb(48, 48, 48);"/><text class="clickable sprotty-label port" id="sprotty_ArchitectureBlockImpl$dmi_cdc/InstantiationBlockImpl$i_cdc_req/BPortImpl$clk_rd_i/label" transform="translate(6, -9) translate(22.421875, 14)" style="cursor:default;font-size:12px;perspective-origin:0px 0px;fill:rgb(48, 48, 48);text-anchor:middle;">clk_rd_i</text></g><g id="sprotty_ArchitectureBlockImpl$dmi_cdc/InstantiationBlockImpl$i_cdc_req/BPortImpl$wdata_i" transform="translate(0, 122)" class="triangle"><path d="M 0,0 L 5,2.5 L 0,5 Z" transform="translate(-1.67, -2.5)" class="sprotty-port" style="fill:rgb(48, 48, 48);stroke:rgb(48, 48, 48);"/><text class="clickable sprotty-label port" id="sprotty_ArchitectureBlockImpl$dmi_cdc/InstantiationBlockImpl$i_cdc_req/BPortImpl$wdata_i/label" transform="translate(6, -9) translate(22.3125, 14)" style="cursor:default;font-size:12px;perspective-origin:0px 0px;fill:rgb(48, 48, 48);text-anchor:middle;">wdata_i</text></g><g id="sprotty_ArchitectureBlockImpl$dmi_cdc/InstantiationBlockImpl$i_cdc_req/BPortImpl$wvalid_i" transform="translate(0, 94)" class="triangle"><path d="M 0,0 L 5,2.5 L 0,5 Z" transform="translate(-1.67, -2.5)" class="sprotty-port" style="fill:rgb(48, 48, 48);stroke:rgb(48, 48, 48);"/><text class="clickable sprotty-label port" id="sprotty_ArchitectureBlockImpl$dmi_cdc/InstantiationBlockImpl$i_cdc_req/BPortImpl$wvalid_i/label" transform="translate(6, -9) translate(23.28125, 14)" style="cursor:default;font-size:12px;perspective-origin:0px 0px;fill:rgb(48, 48, 48);text-anchor:middle;">wvalid_i</text></g><g id="sprotty_ArchitectureBlockImpl$dmi_cdc/InstantiationBlockImpl$i_cdc_req/BPortImpl$rst_wr_ni" transform="translate(0, 66)" class="triangle"><path d="M 0,0 L 5,2.5 L 0,5 Z" transform="translate(-1.67, -2.5)" class="sprotty-port" style="fill:rgb(48, 48, 48);stroke:rgb(48, 48, 48);"/><text class="clickable sprotty-label port" id="sprotty_ArchitectureBlockImpl$dmi_cdc/InstantiationBlockImpl$i_cdc_req/BPortImpl$rst_wr_ni/label" transform="translate(6, -9) translate(26.40625, 14)" style="cursor:default;font-size:12px;perspective-origin:0px 0px;fill:rgb(48, 48, 48);text-anchor:middle;">rst_wr_ni</text></g><g id="sprotty_ArchitectureBlockImpl$dmi_cdc/InstantiationBlockImpl$i_cdc_req/BPortImpl$clk_wr_i" transform="translate(0, 38)" class="triangle"><path d="M 0,0 L 5,2.5 L 0,5 Z" transform="translate(-1.67, -2.5)" class="sprotty-port" style="fill:rgb(48, 48, 48);stroke:rgb(48, 48, 48);"/><text class="clickable sprotty-label port" id="sprotty_ArchitectureBlockImpl$dmi_cdc/InstantiationBlockImpl$i_cdc_req/BPortImpl$clk_wr_i/label" transform="translate(6, -9) translate(23.578125, 14)" style="cursor:default;font-size:12px;perspective-origin:0px 0px;fill:rgb(48, 48, 48);text-anchor:middle;">clk_wr_i</text></g><g id="sprotty_ArchitectureBlockImpl$dmi_cdc/InstantiationBlockImpl$i_cdc_req/BPortImpl$wready_o" transform="translate(224.4375, 38)" class="triangle"><path d="M 0,0 L 5,2.5 L 0,5 Z" transform="translate(-1.67, -2.5)" class="sprotty-port" style="fill:rgb(48, 48, 48);stroke:rgb(48, 48, 48);"/><text class="clickable sprotty-label port" id="sprotty_ArchitectureBlockImpl$dmi_cdc/InstantiationBlockImpl$i_cdc_req/BPortImpl$wready_o/label" transform="translate(-61.0625, -9) translate(27.53125, 14)" style="cursor:default;font-size:12px;perspective-origin:0px 0px;fill:rgb(48, 48, 48);text-anchor:middle;">wready_o</text></g><g id="sprotty_ArchitectureBlockImpl$dmi_cdc/InstantiationBlockImpl$i_cdc_req/BPortImpl$wdepth_o" transform="translate(224.4375, 80)" class="triangle"><path d="M 0,0 L 5,2.5 L 0,5 Z" transform="translate(-1.67, -2.5)" class="sprotty-port" style="fill:rgb(48, 48, 48);stroke:rgb(48, 48, 48);"/><text class="clickable sprotty-label port" id="sprotty_ArchitectureBlockImpl$dmi_cdc/InstantiationBlockImpl$i_cdc_req/BPortImpl$wdepth_o/label" transform="translate(-62.6875, -9) translate(28.34375, 14)" style="cursor:default;font-size:12px;perspective-origin:0px 0px;fill:rgb(48, 48, 48);text-anchor:middle;">wdepth_o</text></g><g id="sprotty_ArchitectureBlockImpl$dmi_cdc/InstantiationBlockImpl$i_cdc_req/BPortImpl$rvalid_o" transform="translate(224.4375, 122)" class="triangle"><path d="M 0,0 L 5,2.5 L 0,5 Z" transform="translate(-1.67, -2.5)" class="sprotty-port" style="fill:rgb(48, 48, 48);stroke:rgb(48, 48, 48);"/><text class="clickable sprotty-label port" id="sprotty_ArchitectureBlockImpl$dmi_cdc/InstantiationBlockImpl$i_cdc_req/BPortImpl$rvalid_o/label" transform="translate(-51.90625, -9) translate(22.953125, 14)" style="cursor:default;font-size:12px;perspective-origin:0px 0px;fill:rgb(48, 48, 48);text-anchor:middle;">rvalid_o</text></g><g id="sprotty_ArchitectureBlockImpl$dmi_cdc/InstantiationBlockImpl$i_cdc_req/BPortImpl$rdata_o" transform="translate(224.4375, 164)" class="triangle"><path d="M 0,0 L 5,2.5 L 0,5 Z" transform="translate(-1.67, -2.5)" class="sprotty-port" style="fill:rgb(48, 48, 48);stroke:rgb(48, 48, 48);"/><text class="clickable sprotty-label port" id="sprotty_ArchitectureBlockImpl$dmi_cdc/InstantiationBlockImpl$i_cdc_req/BPortImpl$rdata_o/label" transform="translate(-49.5625, -9) translate(21.78125, 14)" style="cursor:default;font-size:12px;perspective-origin:0px 0px;fill:rgb(48, 48, 48);text-anchor:middle;">rdata_o</text></g><g id="sprotty_ArchitectureBlockImpl$dmi_cdc/InstantiationBlockImpl$i_cdc_req/BPortImpl$rdepth_o" transform="translate(224.4375, 206)" class="triangle"><path d="M 0,0 L 5,2.5 L 0,5 Z" transform="translate(-1.67, -2.5)" class="sprotty-port" style="fill:rgb(48, 48, 48);stroke:rgb(48, 48, 48);"/><text class="clickable sprotty-label port" id="sprotty_ArchitectureBlockImpl$dmi_cdc/InstantiationBlockImpl$i_cdc_req/BPortImpl$rdepth_o/label" transform="translate(-57.625, -9) translate(25.8125, 14)" style="cursor:default;font-size:12px;perspective-origin:0px 0px;fill:rgb(48, 48, 48);text-anchor:middle;">rdepth_o</text></g></g><g id="sprotty_ArchitectureBlockImpl$dmi_cdc/BPortImpl$core_dmi_valid_i" transform="translate(0, 83)" class="triangle"><path d="M 0,0 L 5,2.5 L 0,5 Z" transform="translate(-1.67, -2.5)" class="sprotty-port" style="fill:rgb(48, 48, 48);stroke:rgb(48, 48, 48);"/><text class="clickable sprotty-label port" id="sprotty_ArchitectureBlockImpl$dmi_cdc/BPortImpl$core_dmi_valid_i/label" transform="translate(6, 6) translate(48.234375, 14)" style="cursor:default;font-size:12px;perspective-origin:0px 0px;fill:rgb(48, 48, 48);text-anchor:middle;">core_dmi_valid_i</text></g><g id="sprotty_ArchitectureBlockImpl$dmi_cdc/BPortImpl$core_dmi_resp_i" transform="translate(0, 117)" class="triangle"><path d="M 0,0 L 5,2.5 L 0,5 Z" transform="translate(-1.67, -2.5)" class="sprotty-port" style="fill:rgb(48, 48, 48);stroke:rgb(48, 48, 48);"/><text class="clickable sprotty-label port" id="sprotty_ArchitectureBlockImpl$dmi_cdc/BPortImpl$core_dmi_resp_i/label" transform="translate(6, 6) translate(46.890625, 14)" style="cursor:default;font-size:12px;perspective-origin:0px 0px;fill:rgb(48, 48, 48);text-anchor:middle;">core_dmi_resp_i</text></g><g id="sprotty_ArchitectureBlockImpl$dmi_cdc/BPortImpl$core_dmi_ready_i" transform="translate(0, 485)" class="triangle"><path d="M 0,0 L 5,2.5 L 0,5 Z" transform="translate(-1.67, -2.5)" class="sprotty-port" style="fill:rgb(48, 48, 48);stroke:rgb(48, 48, 48);"/><text class="clickable sprotty-label port" id="sprotty_ArchitectureBlockImpl$dmi_cdc/BPortImpl$core_dmi_ready_i/label" transform="translate(6, 6) translate(50.5, 14)" style="cursor:default;font-size:12px;perspective-origin:0px 0px;fill:rgb(48, 48, 48);text-anchor:middle;">core_dmi_ready_i</text></g><g id="sprotty_ArchitectureBlockImpl$dmi_cdc/BPortImpl$rst_ni" transform="translate(0, 275)" class="triangle"><path d="M 0,0 L 5,2.5 L 0,5 Z" transform="translate(-1.67, -2.5)" class="sprotty-port" style="fill:rgb(48, 48, 48);stroke:rgb(48, 48, 48);"/><text class="clickable sprotty-label port" id="sprotty_ArchitectureBlockImpl$dmi_cdc/BPortImpl$rst_ni/label" transform="translate(6, 6) translate(15.921875, 14)" style="cursor:default;font-size:12px;perspective-origin:0px 0px;fill:rgb(48, 48, 48);text-anchor:middle;">rst_ni</text></g><g id="sprotty_ArchitectureBlockImpl$dmi_cdc/BPortImpl$clk_i" transform="translate(0, 151)" class="triangle"><path d="M 0,0 L 5,2.5 L 0,5 Z" transform="translate(-1.67, -2.5)" class="sprotty-port" style="fill:rgb(48, 48, 48);stroke:rgb(48, 48, 48);"/><text class="clickable sprotty-label port" id="sprotty_ArchitectureBlockImpl$dmi_cdc/BPortImpl$clk_i/label" transform="translate(6, 6) translate(13.09375, 14)" style="cursor:default;font-size:12px;perspective-origin:0px 0px;fill:rgb(48, 48, 48);text-anchor:middle;">clk_i</text></g><g id="sprotty_ArchitectureBlockImpl$dmi_cdc/BPortImpl$jtag_dmi_ready_i" transform="translate(0, 241)" class="triangle"><path d="M 0,0 L 5,2.5 L 0,5 Z" transform="translate(-1.67, -2.5)" class="sprotty-port" style="fill:rgb(48, 48, 48);stroke:rgb(48, 48, 48);"/><text class="clickable sprotty-label port" id="sprotty_ArchitectureBlockImpl$dmi_cdc/BPortImpl$jtag_dmi_ready_i/label" transform="translate(6, 6) translate(49.890625, 14)" style="cursor:default;font-size:12px;perspective-origin:-0.5px 0px;fill:rgb(48, 48, 48);text-anchor:middle;">jtag_dmi_ready_i</text></g><g id="sprotty_ArchitectureBlockImpl$dmi_cdc/BPortImpl$jtag_dmi_valid_i" transform="translate(0, 379)" class="triangle"><path d="M 0,0 L 5,2.5 L 0,5 Z" transform="translate(-1.67, -2.5)" class="sprotty-port" style="fill:rgb(48, 48, 48);stroke:rgb(48, 48, 48);"/><text class="clickable sprotty-label port" id="sprotty_ArchitectureBlockImpl$dmi_cdc/BPortImpl$jtag_dmi_valid_i/label" transform="translate(6, 6) translate(47.640625, 14)" style="cursor:default;font-size:12px;perspective-origin:-0.5px 0px;fill:rgb(48, 48, 48);text-anchor:middle;">jtag_dmi_valid_i</text></g><g id="sprotty_ArchitectureBlockImpl$dmi_cdc/BPortImpl$jtag_dmi_req_i" transform="translate(0, 413)" class="triangle"><path d="M 0,0 L 5,2.5 L 0,5 Z" transform="translate(-1.67, -2.5)" class="sprotty-port" style="fill:rgb(48, 48, 48);stroke:rgb(48, 48, 48);"/><text class="clickable sprotty-label port" id="sprotty_ArchitectureBlockImpl$dmi_cdc/BPortImpl$jtag_dmi_req_i/label" transform="translate(6, 6) translate(43.484375, 14)" style="cursor:default;font-size:12px;perspective-origin:-0.5px 0px;fill:rgb(48, 48, 48);text-anchor:middle;">jtag_dmi_req_i</text></g><g id="sprotty_ArchitectureBlockImpl$dmi_cdc/BPortImpl$trst_ni" transform="translate(0, 345)" class="triangle"><path d="M 0,0 L 5,2.5 L 0,5 Z" transform="translate(-1.67, -2.5)" class="sprotty-port" style="fill:rgb(48, 48, 48);stroke:rgb(48, 48, 48);"/><text class="clickable sprotty-label port" id="sprotty_ArchitectureBlockImpl$dmi_cdc/BPortImpl$trst_ni/label" transform="translate(6, 6) translate(18.1875, 14)" style="cursor:default;font-size:12px;perspective-origin:0px 0px;fill:rgb(48, 48, 48);text-anchor:middle;">trst_ni</text></g><g id="sprotty_ArchitectureBlockImpl$dmi_cdc/BPortImpl$tck_i" transform="translate(0, 185)" class="triangle"><path d="M 0,0 L 5,2.5 L 0,5 Z" transform="translate(-1.67, -2.5)" class="sprotty-port" style="fill:rgb(48, 48, 48);stroke:rgb(48, 48, 48);"/><text class="clickable sprotty-label port" id="sprotty_ArchitectureBlockImpl$dmi_cdc/BPortImpl$tck_i/label" transform="translate(6, 6) translate(13.546875, 14)" style="cursor:default;font-size:12px;perspective-origin:0px 0px;fill:rgb(48, 48, 48);text-anchor:middle;">tck_i</text></g><g id="sprotty_ArchitectureBlockImpl$dmi_cdc/BPortImpl$jtag_dmi_ready_o" transform="translate(530.3125, 317)" class="triangle"><path d="M 0,0 L 5,2.5 L 0,5 Z" transform="translate(-1.67, -2.5)" class="sprotty-port" style="fill:rgb(48, 48, 48);stroke:rgb(48, 48, 48);"/><text class="clickable sprotty-label port" id="sprotty_ArchitectureBlockImpl$dmi_cdc/BPortImpl$jtag_dmi_ready_o/label" transform="translate(-108.75, 6) translate(51.875, 14)" style="cursor:default;font-size:12px;perspective-origin:-0.5px 0px;fill:rgb(48, 48, 48);text-anchor:middle;">jtag_dmi_ready_o</text></g><g id="sprotty_ArchitectureBlockImpl$dmi_cdc/BPortImpl$jtag_dmi_resp_o" transform="translate(530.3125, 199)" class="triangle"><path d="M 0,0 L 5,2.5 L 0,5 Z" transform="translate(-1.67, -2.5)" class="sprotty-port" style="fill:rgb(48, 48, 48);stroke:rgb(48, 48, 48);"/><text class="clickable sprotty-label port" id="sprotty_ArchitectureBlockImpl$dmi_cdc/BPortImpl$jtag_dmi_resp_o/label" transform="translate(-101.5625, 6) translate(48.28125, 14)" style="cursor:default;font-size:12px;perspective-origin:-0.5px 0px;fill:rgb(48, 48, 48);text-anchor:middle;">jtag_dmi_resp_o</text></g><g id="sprotty_ArchitectureBlockImpl$dmi_cdc/BPortImpl$jtag_dmi_valid_o" transform="translate(530.3125, 157)" class="triangle"><path d="M 0,0 L 5,2.5 L 0,5 Z" transform="translate(-1.67, -2.5)" class="sprotty-port" style="fill:rgb(48, 48, 48);stroke:rgb(48, 48, 48);"/><text class="clickable sprotty-label port" id="sprotty_ArchitectureBlockImpl$dmi_cdc/BPortImpl$jtag_dmi_valid_o/label" transform="translate(-104.25, 6) translate(49.625, 14)" style="cursor:default;font-size:12px;perspective-origin:-0.5px 0px;fill:rgb(48, 48, 48);text-anchor:middle;">jtag_dmi_valid_o</text></g><g id="sprotty_ArchitectureBlockImpl$dmi_cdc/BPortImpl$core_dmi_req_o" transform="translate(530.3125, 443)" class="triangle"><path d="M 0,0 L 5,2.5 L 0,5 Z" transform="translate(-1.67, -2.5)" class="sprotty-port" style="fill:rgb(48, 48, 48);stroke:rgb(48, 48, 48);"/><text class="clickable sprotty-label port" id="sprotty_ArchitectureBlockImpl$dmi_cdc/BPortImpl$core_dmi_req_o/label" transform="translate(-98.125, 6) translate(46.0625, 14)" style="cursor:default;font-size:12px;perspective-origin:0px 0px;fill:rgb(48, 48, 48);text-anchor:middle;">core_dmi_req_o</text></g><g id="sprotty_ArchitectureBlockImpl$dmi_cdc/BPortImpl$core_dmi_valid_o" transform="translate(530.3125, 401)" class="triangle"><path d="M 0,0 L 5,2.5 L 0,5 Z" transform="translate(-1.67, -2.5)" class="sprotty-port" style="fill:rgb(48, 48, 48);stroke:rgb(48, 48, 48);"/><text class="clickable sprotty-label port" id="sprotty_ArchitectureBlockImpl$dmi_cdc/BPortImpl$core_dmi_valid_o/label" transform="translate(-106.4375, 6) translate(50.21875, 14)" style="cursor:default;font-size:12px;perspective-origin:0px 0px;fill:rgb(48, 48, 48);text-anchor:middle;">core_dmi_valid_o</text></g><g id="sprotty_ArchitectureBlockImpl$dmi_cdc/BPortImpl$core_dmi_ready_o" transform="translate(530.3125, 73)" class="triangle"><path d="M 0,0 L 5,2.5 L 0,5 Z" transform="translate(-1.67, -2.5)" class="sprotty-port" style="fill:rgb(48, 48, 48);stroke:rgb(48, 48, 48);"/><text class="clickable sprotty-label port" id="sprotty_ArchitectureBlockImpl$dmi_cdc/BPortImpl$core_dmi_ready_o/label" transform="translate(-110.96875, 6) translate(52.484375, 14)" style="cursor:default;font-size:12px;perspective-origin:0px 0px;fill:rgb(48, 48, 48);text-anchor:middle;">core_dmi_ready_o</text></g></g></g></svg>