<svg xmlns="http://www.w3.org/2000/svg" id="sprotty_work.aes_prng_clearing" class="sprotty-graph sprotty-block-diagram blockdiagram" style="font-family:&quot;Noto Sans&quot;, Helvetica, Arial, sans-serif;perspective-origin:0px 0px;transform-origin:0px 0px;" version="1.1" viewBox="7 7 512.796875 446" width="512.796875" height="446"><g transform="scale(1) translate(0,0)"><g id="sprotty_ArchitectureBlockImpl$aes_prng_clearing" transform="translate(12, 12)" class="architecture"><g class="sprotty-block" style="fill:rgb(255, 255, 255);stroke:rgb(48, 48, 48);stroke-dasharray:0px;"><rect x="0" y="0" rx="1" ry="1" width="502.796875" height="436"/><text x="251.3984375" y="12" class="sprotty-block-name" style="cursor:pointer;font-weight:700;perspective-origin:251.609px 0px;fill:rgb(48, 48, 48);stroke:rgba(0, 0, 0, 0);dominant-baseline:middle;text-anchor:middle;">aes_prng_clearing</text><line x1="0" y1="20" x2="502.796875" y2="20"/></g><g id="sprotty_ArchitectureBlockImpl$aes_prng_clearing/AssignmentBlockImpl$data_ack_o/GPortImpl$data_ack_oOUT_to_ArchitectureBlockImpl$aes_prng_clearing/BPortImpl$data_ack_o" class="sprotty-edge edge" style="fill:none;stroke:rgb(112, 112, 112);stroke-linejoin:round;"><g><path d="M 140.90625 364 L 188.90625 364 C 189.90625 364 190.90625 363 190.90625 362 L 190.90625 291 C 190.90625 290 191.90625 289 192.90625 289 L 502.796875 289 "/><path d="M 140.90625 364 L 188.90625 364 C 189.90625 364 190.90625 363 190.90625 362 L 190.90625 291 C 190.90625 290 191.90625 289 192.90625 289 L 502.796875 289 " class="clickable"/></g><circle r="2" id="sprotty_ArchitectureBlockImpl$aes_prng_clearing/AssignmentBlockImpl$data_ack_o/GPortImpl$data_ack_oOUT_to_ArchitectureBlockImpl$aes_prng_clearing/BPortImpl$data_ack_o/junction0" transform="translate(190.90625, 289)" class="sprotty-junction junction" style="fill:rgb(112, 112, 112);stroke:none;"/></g><g id="sprotty_ArchitectureBlockImpl$aes_prng_clearing/AssignmentBlockImpl$data_o/GPortImpl$data_oOUT_to_ArchitectureBlockImpl$aes_prng_clearing/BPortImpl$data_o" class="sprotty-edge thick edge" style="fill:none;stroke:rgb(112, 112, 112);stroke-linejoin:round;stroke-width:3px;"><g><path d="M 378.546875 156 L 502.796875 156 "/><path d="M 378.546875 156 L 502.796875 156 " class="clickable"/></g></g><g id="sprotty_ArchitectureBlockImpl$aes_prng_clearing/AssignmentBlockImpl$reseed_ack_o/GPortImpl$reseed_ack_oOUT_to_ArchitectureBlockImpl$aes_prng_clearing/BPortImpl$reseed_ack_o" class="sprotty-edge edge" style="fill:none;stroke:rgb(112, 112, 112);stroke-linejoin:round;"><g><path d="M 140.90625 154 L 148.90625 154 C 149.90625 154 150.90625 153 150.90625 152 L 150.90625 38 C 150.90625 37 151.90625 36 152.90625 36 L 502.796875 36 "/><path d="M 140.90625 154 L 148.90625 154 C 149.90625 154 150.90625 153 150.90625 152 L 150.90625 38 C 150.90625 37 151.90625 36 152.90625 36 L 502.796875 36 " class="clickable"/></g></g><g id="sprotty_ArchitectureBlockImpl$aes_prng_clearing/AssignmentBlockImpl$entropy_req_o/GPortImpl$entropy_req_oOUT_to_ArchitectureBlockImpl$aes_prng_clearing/BPortImpl$entropy_req_o" class="sprotty-edge edge" style="fill:none;stroke:rgb(112, 112, 112);stroke-linejoin:round;"><g><path d="M 140.90625 410 L 386.546875 410 C 387.546875 410 388.546875 409 388.546875 408 L 388.546875 257 C 388.546875 256 389.546875 255 390.546875 255 L 502.796875 255 "/><path d="M 140.90625 410 L 386.546875 410 C 387.546875 410 388.546875 409 388.546875 408 L 388.546875 257 C 388.546875 256 389.546875 255 390.546875 255 L 502.796875 255 " class="clickable"/></g><circle r="2" id="sprotty_ArchitectureBlockImpl$aes_prng_clearing/AssignmentBlockImpl$entropy_req_o/GPortImpl$entropy_req_oOUT_to_ArchitectureBlockImpl$aes_prng_clearing/BPortImpl$entropy_req_o/junction0" transform="translate(388.546875, 255)" class="sprotty-junction junction" style="fill:rgb(112, 112, 112);stroke:none;"/></g><g id="sprotty_ArchitectureBlockImpl$aes_prng_clearing/BPortImpl$clk_i_to_ArchitectureBlockImpl$aes_prng_clearing/InstantiationBlockImpl$u_lfsr/BPortImpl$clk_i" class="sprotty-edge edge" style="fill:none;stroke:rgb(112, 112, 112);stroke-linejoin:round;"><g><path d="M 0 86 L 200.90625 86 "/><path d="M 0 86 L 200.90625 86 " class="clickable"/></g></g><g id="sprotty_ArchitectureBlockImpl$aes_prng_clearing/BPortImpl$rst_ni_to_ArchitectureBlockImpl$aes_prng_clearing/InstantiationBlockImpl$u_lfsr/BPortImpl$rst_ni" class="sprotty-edge edge" style="fill:none;stroke:rgb(112, 112, 112);stroke-linejoin:round;"><g><path d="M 0 120 L 158.90625 120 C 159.90625 120 160.90625 119 160.90625 118 L 160.90625 116 C 160.90625 115 161.90625 114 162.90625 114 L 200.90625 114 "/><path d="M 0 120 L 158.90625 120 C 159.90625 120 160.90625 119 160.90625 118 L 160.90625 116 C 160.90625 115 161.90625 114 162.90625 114 L 200.90625 114 " class="clickable"/></g></g><g id="sprotty_ArchitectureBlockImpl$aes_prng_clearing/BPortImpl$entropy_i_to_ArchitectureBlockImpl$aes_prng_clearing/InstantiationBlockImpl$u_lfsr/BPortImpl$seed_i" class="sprotty-edge thick edge" style="fill:none;stroke:rgb(112, 112, 112);stroke-linejoin:round;stroke-width:3px;"><g><path d="M 0 263 L 168.90625 263 C 169.90625 263 170.90625 262 170.90625 261 L 170.90625 172 C 170.90625 171 171.90625 170 172.90625 170 L 200.90625 170 "/><path d="M 0 263 L 168.90625 263 C 169.90625 263 170.90625 262 170.90625 261 L 170.90625 172 C 170.90625 171 171.90625 170 172.90625 170 L 200.90625 170 " class="clickable"/></g></g><g id="sprotty_ArchitectureBlockImpl$aes_prng_clearing/BPortImpl$reseed_req_i_to_ArchitectureBlockImpl$aes_prng_clearing/AssignmentBlockImpl$data_ack_o/GPortImpl$reseed_req_iIN" class="sprotty-edge edge" style="fill:none;stroke:rgb(112, 112, 112);stroke-linejoin:round;"><g><path d="M 0 369 L 121.1875 369 "/><path d="M 0 369 L 121.1875 369 " class="clickable"/></g></g><g id="sprotty_ArchitectureBlockImpl$aes_prng_clearing/BPortImpl$data_req_i_to_ArchitectureBlockImpl$aes_prng_clearing/AssignmentBlockImpl$data_ack_o/GPortImpl$data_req_iIN" class="sprotty-edge edge" style="fill:none;stroke:rgb(112, 112, 112);stroke-linejoin:round;"><g><path d="M 0 319 L 109.1875 319 C 110.1875 319 111.1875 320 111.1875 321 L 111.1875 357 C 111.1875 358 112.1875 359 113.1875 359 L 121.1875 359 "/><path d="M 0 319 L 109.1875 319 C 110.1875 319 111.1875 320 111.1875 321 L 111.1875 357 C 111.1875 358 112.1875 359 113.1875 359 L 121.1875 359 " class="clickable"/></g><circle r="2" id="sprotty_ArchitectureBlockImpl$aes_prng_clearing/BPortImpl$data_req_i_to_ArchitectureBlockImpl$aes_prng_clearing/AssignmentBlockImpl$data_ack_o/GPortImpl$data_req_iIN/junction0" transform="translate(111.1875, 319)" class="sprotty-junction junction" style="fill:rgb(112, 112, 112);stroke:none;"/></g><g id="sprotty_ArchitectureBlockImpl$aes_prng_clearing/BPortImpl$entropy_ack_i_to_ArchitectureBlockImpl$aes_prng_clearing/AssignmentBlockImpl$reseed_ack_o/GPortImpl$entropy_ack_iIN" class="sprotty-edge edge" style="fill:none;stroke:rgb(112, 112, 112);stroke-linejoin:round;"><g><path d="M 0 154 L 121.1875 154 "/><path d="M 0 154 L 121.1875 154 " class="clickable"/></g></g><g id="sprotty_ArchitectureBlockImpl$aes_prng_clearing/BPortImpl$reseed_req_i_to_ArchitectureBlockImpl$aes_prng_clearing/AssignmentBlockImpl$entropy_req_o/GPortImpl$reseed_req_iIN" class="sprotty-edge edge" style="fill:none;stroke:rgb(112, 112, 112);stroke-linejoin:round;"><g><path d="M 0 369 L 109.1875 369 C 110.1875 369 111.1875 370 111.1875 371 L 111.1875 408 C 111.1875 409 112.1875 410 113.1875 410 L 121.1875 410 "/><path d="M 0 369 L 109.1875 369 C 110.1875 369 111.1875 370 111.1875 371 L 111.1875 408 C 111.1875 409 112.1875 410 113.1875 410 L 121.1875 410 " class="clickable"/></g><circle r="2" id="sprotty_ArchitectureBlockImpl$aes_prng_clearing/BPortImpl$reseed_req_i_to_ArchitectureBlockImpl$aes_prng_clearing/AssignmentBlockImpl$entropy_req_o/GPortImpl$reseed_req_iIN/junction0" transform="translate(111.1875, 369)" class="sprotty-junction junction" style="fill:rgb(112, 112, 112);stroke:none;"/></g><g id="sprotty_ArchitectureBlockImpl$aes_prng_clearing/BPortImpl$data_req_i_to_ArchitectureBlockImpl$aes_prng_clearing/AssignmentBlockImpl$lfsr_en/GPortImpl$data_req_iIN" class="sprotty-edge edge" style="fill:none;stroke:rgb(112, 112, 112);stroke-linejoin:round;"><g><path d="M 0 319 L 121.1875 319 "/><path d="M 0 319 L 121.1875 319 " class="clickable"/></g></g><g id="sprotty_ArchitectureBlockImpl$aes_prng_clearing/BPortImpl$data_ack_o_to_ArchitectureBlockImpl$aes_prng_clearing/AssignmentBlockImpl$lfsr_en/GPortImpl$data_ack_oIN" class="sprotty-edge edge" style="fill:none;stroke:rgb(112, 112, 112);stroke-linejoin:round;"><g><path d="M 502.796875 289 L 113.1875 289 C 112.1875 289 111.1875 290 111.1875 291 L 111.1875 307 C 111.1875 308 112.1875 309 113.1875 309 L 121.1875 309 "/><path d="M 502.796875 289 L 113.1875 289 C 112.1875 289 111.1875 290 111.1875 291 L 111.1875 307 C 111.1875 308 112.1875 309 113.1875 309 L 121.1875 309 " class="clickable"/></g></g><g id="sprotty_ArchitectureBlockImpl$aes_prng_clearing/BPortImpl$entropy_req_o_to_ArchitectureBlockImpl$aes_prng_clearing/AssignmentBlockImpl$seed_en/GPortImpl$entropy_req_oIN" class="sprotty-edge edge" style="fill:none;stroke:rgb(112, 112, 112);stroke-linejoin:round;"><g><path d="M 502.796875 255 L 113.1875 255 C 112.1875 255 111.1875 254 111.1875 253 L 111.1875 207 C 111.1875 206 112.1875 205 113.1875 205 L 121.1875 205 "/><path d="M 502.796875 255 L 113.1875 255 C 112.1875 255 111.1875 254 111.1875 253 L 111.1875 207 C 111.1875 206 112.1875 205 113.1875 205 L 121.1875 205 " class="clickable"/></g></g><g id="sprotty_ArchitectureBlockImpl$aes_prng_clearing/BPortImpl$entropy_ack_i_to_ArchitectureBlockImpl$aes_prng_clearing/AssignmentBlockImpl$seed_en/GPortImpl$entropy_ack_iIN" class="sprotty-edge edge" style="fill:none;stroke:rgb(112, 112, 112);stroke-linejoin:round;"><g><path d="M 0 154 L 109.1875 154 C 110.1875 154 111.1875 155 111.1875 156 L 111.1875 193 C 111.1875 194 112.1875 195 113.1875 195 L 121.1875 195 "/><path d="M 0 154 L 109.1875 154 C 110.1875 154 111.1875 155 111.1875 156 L 111.1875 193 C 111.1875 194 112.1875 195 113.1875 195 L 121.1875 195 " class="clickable"/></g><circle r="2" id="sprotty_ArchitectureBlockImpl$aes_prng_clearing/BPortImpl$entropy_ack_i_to_ArchitectureBlockImpl$aes_prng_clearing/AssignmentBlockImpl$seed_en/GPortImpl$entropy_ack_iIN/junction0" transform="translate(111.1875, 154)" class="sprotty-junction junction" style="fill:rgb(112, 112, 112);stroke:none;"/></g><g id="sprotty_ArchitectureBlockImpl$aes_prng_clearing/AssignmentBlockImpl$seed_en/GPortImpl$seed_enOUT_to_ArchitectureBlockImpl$aes_prng_clearing/InstantiationBlockImpl$u_lfsr/BPortImpl$seed_en_i" class="sprotty-edge edge" style="fill:none;stroke:rgb(112, 112, 112);stroke-linejoin:round;"><g><path d="M 140.90625 200 L 158.90625 200 C 159.90625 200 160.90625 199 160.90625 198 L 160.90625 144 C 160.90625 143 161.90625 142 162.90625 142 L 200.90625 142 "/><path d="M 140.90625 200 L 158.90625 200 C 159.90625 200 160.90625 199 160.90625 198 L 160.90625 144 C 160.90625 143 161.90625 142 162.90625 142 L 200.90625 142 " class="clickable"/></g></g><g id="sprotty_ArchitectureBlockImpl$aes_prng_clearing/AssignmentBlockImpl$lfsr_en/GPortImpl$data_ack_oOUT_to_ArchitectureBlockImpl$aes_prng_clearing/InstantiationBlockImpl$u_lfsr/BPortImpl$lfsr_en_i" class="sprotty-edge edge" style="fill:none;stroke:rgb(112, 112, 112);stroke-linejoin:round;"><g><path d="M 140.90625 314 L 178.90625 314 C 179.90625 314 180.90625 313 180.90625 312 L 180.90625 200 C 180.90625 199 181.90625 198 182.90625 198 L 200.90625 198 "/><path d="M 140.90625 314 L 178.90625 314 C 179.90625 314 180.90625 313 180.90625 312 L 180.90625 200 C 180.90625 199 181.90625 198 182.90625 198 L 200.90625 198 " class="clickable"/></g></g><g id="sprotty_ArchitectureBlockImpl$aes_prng_clearing/InstantiationBlockImpl$u_lfsr/BPortImpl$state_o_to_ArchitectureBlockImpl$aes_prng_clearing/AssignmentBlockImpl$data_o/GPortImpl$lfsr_stateIN" class="sprotty-edge thick edge" style="fill:none;stroke:rgb(112, 112, 112);stroke-linejoin:round;stroke-width:3px;"><g><path d="M 338.828125 156 L 358.828125 156 "/><path d="M 338.828125 156 L 358.828125 156 " class="clickable"/></g></g><g id="sprotty_ArchitectureBlockImpl$aes_prng_clearing/AssignmentBlockImpl$data_o" transform="translate(358.828125, 145)" class="statement"><rect x="0" y="0" rx="10" ry="5" width="19.71875" height="22" class="sprotty-node" style="fill:rgb(245, 245, 245);stroke:rgb(112, 112, 112);"/><text class="clickable sprotty-label statementtype" id="sprotty_ArchitectureBlockImpl$aes_prng_clearing/AssignmentBlockImpl$data_o/labeltype" transform="translate(5, 5) translate(4.71875, 9)" style="cursor:default;font-size:8px;font-weight:700;perspective-origin:0.140625px 0px;fill:rgb(112, 112, 112);text-anchor:middle;">&lt;=</text><g id="sprotty_ArchitectureBlockImpl$aes_prng_clearing/AssignmentBlockImpl$data_o/GPortImpl$lfsr_stateIN" transform="translate(0, 11)" class="sprotty-hidden hidden" style="display:block;height:0px;width:0px;"/><g id="sprotty_ArchitectureBlockImpl$aes_prng_clearing/AssignmentBlockImpl$data_o/GPortImpl$data_oOUT" transform="translate(19.71875, 11)" class="sprotty-hidden hidden" style="display:block;height:0px;width:0px;"/></g><g id="sprotty_ArchitectureBlockImpl$aes_prng_clearing/AssignmentBlockImpl$seed_en" transform="translate(121.1875, 185)" class="statement"><rect x="0" y="0" rx="10" ry="5" width="19.71875" height="30" class="sprotty-node" style="fill:rgb(245, 245, 245);stroke:rgb(112, 112, 112);"/><text class="clickable sprotty-label statementtype" id="sprotty_ArchitectureBlockImpl$aes_prng_clearing/AssignmentBlockImpl$seed_en/labeltype" transform="translate(5, 9) translate(4.71875, 9)" style="cursor:default;font-size:8px;font-weight:700;perspective-origin:0.140625px 0px;fill:rgb(112, 112, 112);text-anchor:middle;">&lt;=</text><g id="sprotty_ArchitectureBlockImpl$aes_prng_clearing/AssignmentBlockImpl$seed_en/GPortImpl$entropy_ack_iIN" transform="translate(0, 10)" class="sprotty-hidden hidden" style="display:block;height:0px;width:0px;"/><g id="sprotty_ArchitectureBlockImpl$aes_prng_clearing/AssignmentBlockImpl$seed_en/GPortImpl$entropy_req_oIN" transform="translate(0, 20)" class="sprotty-hidden hidden" style="display:block;height:0px;width:0px;"/><g id="sprotty_ArchitectureBlockImpl$aes_prng_clearing/AssignmentBlockImpl$seed_en/GPortImpl$seed_enOUT" transform="translate(19.71875, 15)" class="sprotty-hidden hidden" style="display:block;height:0px;width:0px;"/></g><g id="sprotty_ArchitectureBlockImpl$aes_prng_clearing/AssignmentBlockImpl$lfsr_en" transform="translate(121.1875, 299)" class="statement"><rect x="0" y="0" rx="10" ry="5" width="19.71875" height="30" class="sprotty-node" style="fill:rgb(245, 245, 245);stroke:rgb(112, 112, 112);"/><text class="clickable sprotty-label statementtype" id="sprotty_ArchitectureBlockImpl$aes_prng_clearing/AssignmentBlockImpl$lfsr_en/labeltype" transform="translate(5, 9) translate(4.71875, 9)" style="cursor:default;font-size:8px;font-weight:700;perspective-origin:0.140625px 0px;fill:rgb(112, 112, 112);text-anchor:middle;">&lt;=</text><g id="sprotty_ArchitectureBlockImpl$aes_prng_clearing/AssignmentBlockImpl$lfsr_en/GPortImpl$data_ack_oIN" transform="translate(0, 10)" class="sprotty-hidden hidden" style="display:block;height:0px;width:0px;"/><g id="sprotty_ArchitectureBlockImpl$aes_prng_clearing/AssignmentBlockImpl$lfsr_en/GPortImpl$data_req_iIN" transform="translate(0, 20)" class="sprotty-hidden hidden" style="display:block;height:0px;width:0px;"/><g id="sprotty_ArchitectureBlockImpl$aes_prng_clearing/AssignmentBlockImpl$lfsr_en/GPortImpl$data_ack_oOUT" transform="translate(19.71875, 15)" class="sprotty-hidden hidden" style="display:block;height:0px;width:0px;"/></g><g id="sprotty_ArchitectureBlockImpl$aes_prng_clearing/AssignmentBlockImpl$entropy_req_o" transform="translate(121.1875, 399)" class="statement"><rect x="0" y="0" rx="10" ry="5" width="19.71875" height="22" class="sprotty-node" style="fill:rgb(245, 245, 245);stroke:rgb(112, 112, 112);"/><text class="clickable sprotty-label statementtype" id="sprotty_ArchitectureBlockImpl$aes_prng_clearing/AssignmentBlockImpl$entropy_req_o/labeltype" transform="translate(5, 5) translate(4.71875, 9)" style="cursor:default;font-size:8px;font-weight:700;perspective-origin:0.140625px 0px;fill:rgb(112, 112, 112);text-anchor:middle;">&lt;=</text><g id="sprotty_ArchitectureBlockImpl$aes_prng_clearing/AssignmentBlockImpl$entropy_req_o/GPortImpl$reseed_req_iIN" transform="translate(0, 11)" class="sprotty-hidden hidden" style="display:block;height:0px;width:0px;"/><g id="sprotty_ArchitectureBlockImpl$aes_prng_clearing/AssignmentBlockImpl$entropy_req_o/GPortImpl$entropy_req_oOUT" transform="translate(19.71875, 11)" class="sprotty-hidden hidden" style="display:block;height:0px;width:0px;"/></g><g id="sprotty_ArchitectureBlockImpl$aes_prng_clearing/AssignmentBlockImpl$reseed_ack_o" transform="translate(121.1875, 143)" class="statement"><rect x="0" y="0" rx="10" ry="5" width="19.71875" height="22" class="sprotty-node" style="fill:rgb(245, 245, 245);stroke:rgb(112, 112, 112);"/><text class="clickable sprotty-label statementtype" id="sprotty_ArchitectureBlockImpl$aes_prng_clearing/AssignmentBlockImpl$reseed_ack_o/labeltype" transform="translate(5, 5) translate(4.71875, 9)" style="cursor:default;font-size:8px;font-weight:700;perspective-origin:0.140625px 0px;fill:rgb(112, 112, 112);text-anchor:middle;">&lt;=</text><g id="sprotty_ArchitectureBlockImpl$aes_prng_clearing/AssignmentBlockImpl$reseed_ack_o/GPortImpl$entropy_ack_iIN" transform="translate(0, 11)" class="sprotty-hidden hidden" style="display:block;height:0px;width:0px;"/><g id="sprotty_ArchitectureBlockImpl$aes_prng_clearing/AssignmentBlockImpl$reseed_ack_o/GPortImpl$reseed_ack_oOUT" transform="translate(19.71875, 11)" class="sprotty-hidden hidden" style="display:block;height:0px;width:0px;"/></g><g id="sprotty_ArchitectureBlockImpl$aes_prng_clearing/AssignmentBlockImpl$data_ack_o" transform="translate(121.1875, 349)" class="statement"><rect x="0" y="0" rx="10" ry="5" width="19.71875" height="30" class="sprotty-node" style="fill:rgb(245, 245, 245);stroke:rgb(112, 112, 112);"/><text class="clickable sprotty-label statementtype" id="sprotty_ArchitectureBlockImpl$aes_prng_clearing/AssignmentBlockImpl$data_ack_o/labeltype" transform="translate(5, 9) translate(4.71875, 9)" style="cursor:default;font-size:8px;font-weight:700;perspective-origin:0.140625px 0px;fill:rgb(112, 112, 112);text-anchor:middle;">&lt;=</text><g id="sprotty_ArchitectureBlockImpl$aes_prng_clearing/AssignmentBlockImpl$data_ack_o/GPortImpl$data_req_iIN" transform="translate(0, 10)" class="sprotty-hidden hidden" style="display:block;height:0px;width:0px;"/><g id="sprotty_ArchitectureBlockImpl$aes_prng_clearing/AssignmentBlockImpl$data_ack_o/GPortImpl$reseed_req_iIN" transform="translate(0, 20)" class="sprotty-hidden hidden" style="display:block;height:0px;width:0px;"/><g id="sprotty_ArchitectureBlockImpl$aes_prng_clearing/AssignmentBlockImpl$data_ack_o/GPortImpl$data_ack_oOUT" transform="translate(19.71875, 15)" class="sprotty-hidden hidden" style="display:block;height:0px;width:0px;"/></g><g id="sprotty_ArchitectureBlockImpl$aes_prng_clearing/InstantiationBlockImpl$u_lfsr" transform="translate(200.90625, 48)" class="instantiation"><g class="sprotty-block" style="fill:rgb(255, 255, 255);stroke:rgb(48, 48, 48);stroke-dasharray:0px;"><rect x="0" y="0" rx="1" ry="1" width="137.921875" height="196"/><text x="68.9609375" y="12" class="sprotty-block-name" style="cursor:pointer;font-weight:700;perspective-origin:68.9688px 0px;fill:rgb(48, 48, 48);stroke:rgba(0, 0, 0, 0);dominant-baseline:middle;text-anchor:middle;">u_lfsr : prim_lfsr</text><line x1="0" y1="20" x2="137.921875" y2="20"/></g><g id="sprotty_ArchitectureBlockImpl$aes_prng_clearing/InstantiationBlockImpl$u_lfsr/BPortImpl$entropy_i" transform="translate(0, 178)" class="triangle"><path d="M 0,0 L 5,2.5 L 0,5 Z" transform="translate(-1.67, -2.5)" class="sprotty-port" style="fill:rgb(48, 48, 48);stroke:rgb(48, 48, 48);"/><text class="clickable sprotty-label port" id="sprotty_ArchitectureBlockImpl$aes_prng_clearing/InstantiationBlockImpl$u_lfsr/BPortImpl$entropy_i/label" transform="translate(6, -9) translate(26.984375, 14)" style="cursor:default;font-size:12px;perspective-origin:0px 0px;fill:rgb(48, 48, 48);text-anchor:middle;">entropy_i</text></g><g id="sprotty_ArchitectureBlockImpl$aes_prng_clearing/InstantiationBlockImpl$u_lfsr/BPortImpl$lfsr_en_i" transform="translate(0, 150)" class="triangle"><path d="M 0,0 L 5,2.5 L 0,5 Z" transform="translate(-1.67, -2.5)" class="sprotty-port" style="fill:rgb(48, 48, 48);stroke:rgb(48, 48, 48);"/><text class="clickable sprotty-label port" id="sprotty_ArchitectureBlockImpl$aes_prng_clearing/InstantiationBlockImpl$u_lfsr/BPortImpl$lfsr_en_i/label" transform="translate(6, -9) translate(24.125, 14)" style="cursor:default;font-size:12px;perspective-origin:0px 0px;fill:rgb(48, 48, 48);text-anchor:middle;">lfsr_en_i</text></g><g id="sprotty_ArchitectureBlockImpl$aes_prng_clearing/InstantiationBlockImpl$u_lfsr/BPortImpl$seed_i" transform="translate(0, 122)" class="triangle"><path d="M 0,0 L 5,2.5 L 0,5 Z" transform="translate(-1.67, -2.5)" class="sprotty-port" style="fill:rgb(48, 48, 48);stroke:rgb(48, 48, 48);"/><text class="clickable sprotty-label port" id="sprotty_ArchitectureBlockImpl$aes_prng_clearing/InstantiationBlockImpl$u_lfsr/BPortImpl$seed_i/label" transform="translate(6, -9) translate(18.1875, 14)" style="cursor:default;font-size:12px;perspective-origin:0px 0px;fill:rgb(48, 48, 48);text-anchor:middle;">seed_i</text></g><g id="sprotty_ArchitectureBlockImpl$aes_prng_clearing/InstantiationBlockImpl$u_lfsr/BPortImpl$seed_en_i" transform="translate(0, 94)" class="triangle"><path d="M 0,0 L 5,2.5 L 0,5 Z" transform="translate(-1.67, -2.5)" class="sprotty-port" style="fill:rgb(48, 48, 48);stroke:rgb(48, 48, 48);"/><text class="clickable sprotty-label port" id="sprotty_ArchitectureBlockImpl$aes_prng_clearing/InstantiationBlockImpl$u_lfsr/BPortImpl$seed_en_i/label" transform="translate(6, -9) translate(28.53125, 14)" style="cursor:default;font-size:12px;perspective-origin:0px 0px;fill:rgb(48, 48, 48);text-anchor:middle;">seed_en_i</text></g><g id="sprotty_ArchitectureBlockImpl$aes_prng_clearing/InstantiationBlockImpl$u_lfsr/BPortImpl$rst_ni" transform="translate(0, 66)" class="triangle"><path d="M 0,0 L 5,2.5 L 0,5 Z" transform="translate(-1.67, -2.5)" class="sprotty-port" style="fill:rgb(48, 48, 48);stroke:rgb(48, 48, 48);"/><text class="clickable sprotty-label port" id="sprotty_ArchitectureBlockImpl$aes_prng_clearing/InstantiationBlockImpl$u_lfsr/BPortImpl$rst_ni/label" transform="translate(6, -9) translate(15.921875, 14)" style="cursor:default;font-size:12px;perspective-origin:0px 0px;fill:rgb(48, 48, 48);text-anchor:middle;">rst_ni</text></g><g id="sprotty_ArchitectureBlockImpl$aes_prng_clearing/InstantiationBlockImpl$u_lfsr/BPortImpl$clk_i" transform="translate(0, 38)" class="triangle"><path d="M 0,0 L 5,2.5 L 0,5 Z" transform="translate(-1.67, -2.5)" class="sprotty-port" style="fill:rgb(48, 48, 48);stroke:rgb(48, 48, 48);"/><text class="clickable sprotty-label port" id="sprotty_ArchitectureBlockImpl$aes_prng_clearing/InstantiationBlockImpl$u_lfsr/BPortImpl$clk_i/label" transform="translate(6, -9) translate(13.09375, 14)" style="cursor:default;font-size:12px;perspective-origin:0px 0px;fill:rgb(48, 48, 48);text-anchor:middle;">clk_i</text></g><g id="sprotty_ArchitectureBlockImpl$aes_prng_clearing/InstantiationBlockImpl$u_lfsr/BPortImpl$state_o" transform="translate(137.921875, 108)" class="triangle"><path d="M 0,0 L 5,2.5 L 0,5 Z" transform="translate(-1.67, -2.5)" class="sprotty-port" style="fill:rgb(48, 48, 48);stroke:rgb(48, 48, 48);"/><text class="clickable sprotty-label port" id="sprotty_ArchitectureBlockImpl$aes_prng_clearing/InstantiationBlockImpl$u_lfsr/BPortImpl$state_o/label" transform="translate(-47.15625, -9) translate(20.578125, 14)" style="cursor:default;font-size:12px;perspective-origin:0px 0px;fill:rgb(48, 48, 48);text-anchor:middle;">state_o</text></g></g><g id="sprotty_ArchitectureBlockImpl$aes_prng_clearing/BPortImpl$entropy_i" transform="translate(0, 263)" class="triangle"><path d="M 0,0 L 5,2.5 L 0,5 Z" transform="translate(-1.67, -2.5)" class="sprotty-port" style="fill:rgb(48, 48, 48);stroke:rgb(48, 48, 48);"/><text class="clickable sprotty-label port" id="sprotty_ArchitectureBlockImpl$aes_prng_clearing/BPortImpl$entropy_i/label" transform="translate(6, 6) translate(26.984375, 14)" style="cursor:default;font-size:12px;perspective-origin:0px 0px;fill:rgb(48, 48, 48);text-anchor:middle;">entropy_i</text></g><g id="sprotty_ArchitectureBlockImpl$aes_prng_clearing/BPortImpl$entropy_ack_i" transform="translate(0, 154)" class="triangle"><path d="M 0,0 L 5,2.5 L 0,5 Z" transform="translate(-1.67, -2.5)" class="sprotty-port" style="fill:rgb(48, 48, 48);stroke:rgb(48, 48, 48);"/><text class="clickable sprotty-label port" id="sprotty_ArchitectureBlockImpl$aes_prng_clearing/BPortImpl$entropy_ack_i/label" transform="translate(6, 6) translate(40.09375, 14)" style="cursor:default;font-size:12px;perspective-origin:0px 0px;fill:rgb(48, 48, 48);text-anchor:middle;">entropy_ack_i</text></g><g id="sprotty_ArchitectureBlockImpl$aes_prng_clearing/BPortImpl$reseed_req_i" transform="translate(0, 369)" class="triangle"><path d="M 0,0 L 5,2.5 L 0,5 Z" transform="translate(-1.67, -2.5)" class="sprotty-port" style="fill:rgb(48, 48, 48);stroke:rgb(48, 48, 48);"/><text class="clickable sprotty-label port" id="sprotty_ArchitectureBlockImpl$aes_prng_clearing/BPortImpl$reseed_req_i/label" transform="translate(6, 6) translate(36.4375, 14)" style="cursor:default;font-size:12px;perspective-origin:0px 0px;fill:rgb(48, 48, 48);text-anchor:middle;">reseed_req_i</text></g><g id="sprotty_ArchitectureBlockImpl$aes_prng_clearing/BPortImpl$data_req_i" transform="translate(0, 319)" class="triangle"><path d="M 0,0 L 5,2.5 L 0,5 Z" transform="translate(-1.67, -2.5)" class="sprotty-port" style="fill:rgb(48, 48, 48);stroke:rgb(48, 48, 48);"/><text class="clickable sprotty-label port" id="sprotty_ArchitectureBlockImpl$aes_prng_clearing/BPortImpl$data_req_i/label" transform="translate(6, 6) translate(30.1875, 14)" style="cursor:default;font-size:12px;perspective-origin:0px 0px;fill:rgb(48, 48, 48);text-anchor:middle;">data_req_i</text></g><g id="sprotty_ArchitectureBlockImpl$aes_prng_clearing/BPortImpl$rst_ni" transform="translate(0, 120)" class="triangle"><path d="M 0,0 L 5,2.5 L 0,5 Z" transform="translate(-1.67, -2.5)" class="sprotty-port" style="fill:rgb(48, 48, 48);stroke:rgb(48, 48, 48);"/><text class="clickable sprotty-label port" id="sprotty_ArchitectureBlockImpl$aes_prng_clearing/BPortImpl$rst_ni/label" transform="translate(6, 6) translate(15.921875, 14)" style="cursor:default;font-size:12px;perspective-origin:0px 0px;fill:rgb(48, 48, 48);text-anchor:middle;">rst_ni</text></g><g id="sprotty_ArchitectureBlockImpl$aes_prng_clearing/BPortImpl$clk_i" transform="translate(0, 86)" class="triangle"><path d="M 0,0 L 5,2.5 L 0,5 Z" transform="translate(-1.67, -2.5)" class="sprotty-port" style="fill:rgb(48, 48, 48);stroke:rgb(48, 48, 48);"/><text class="clickable sprotty-label port" id="sprotty_ArchitectureBlockImpl$aes_prng_clearing/BPortImpl$clk_i/label" transform="translate(6, 6) translate(13.09375, 14)" style="cursor:default;font-size:12px;perspective-origin:0px 0px;fill:rgb(48, 48, 48);text-anchor:middle;">clk_i</text></g><g id="sprotty_ArchitectureBlockImpl$aes_prng_clearing/BPortImpl$data_ack_o" transform="translate(502.796875, 289)" class="triangle"><path d="M 0,0 L 5,2.5 L 0,5 Z" transform="translate(-1.67, -2.5)" class="sprotty-port" style="fill:rgb(48, 48, 48);stroke:rgb(48, 48, 48);"/><text class="clickable sprotty-label port" id="sprotty_ArchitectureBlockImpl$aes_prng_clearing/BPortImpl$data_ack_o/label" transform="translate(-71.25, 6) translate(32.625, 14)" style="cursor:default;font-size:12px;perspective-origin:0px 0px;fill:rgb(48, 48, 48);text-anchor:middle;">data_ack_o</text></g><g id="sprotty_ArchitectureBlockImpl$aes_prng_clearing/BPortImpl$data_o" transform="translate(502.796875, 156)" class="triangle"><path d="M 0,0 L 5,2.5 L 0,5 Z" transform="translate(-1.67, -2.5)" class="sprotty-port" style="fill:rgb(48, 48, 48);stroke:rgb(48, 48, 48);"/><text class="clickable sprotty-label port" id="sprotty_ArchitectureBlockImpl$aes_prng_clearing/BPortImpl$data_o/label" transform="translate(-45.03125, 6) translate(19.515625, 14)" style="cursor:default;font-size:12px;perspective-origin:0px 0px;fill:rgb(48, 48, 48);text-anchor:middle;">data_o</text></g><g id="sprotty_ArchitectureBlockImpl$aes_prng_clearing/BPortImpl$reseed_ack_o" transform="translate(502.796875, 36)" class="triangle"><path d="M 0,0 L 5,2.5 L 0,5 Z" transform="translate(-1.67, -2.5)" class="sprotty-port" style="fill:rgb(48, 48, 48);stroke:rgb(48, 48, 48);"/><text class="clickable sprotty-label port" id="sprotty_ArchitectureBlockImpl$aes_prng_clearing/BPortImpl$reseed_ack_o/label" transform="translate(-83.71875, 6) translate(38.859375, 14)" style="cursor:default;font-size:12px;perspective-origin:0px 0px;fill:rgb(48, 48, 48);text-anchor:middle;">reseed_ack_o</text></g><g id="sprotty_ArchitectureBlockImpl$aes_prng_clearing/BPortImpl$entropy_req_o" transform="translate(502.796875, 255)" class="triangle"><path d="M 0,0 L 5,2.5 L 0,5 Z" transform="translate(-1.67, -2.5)" class="sprotty-port" style="fill:rgb(48, 48, 48);stroke:rgb(48, 48, 48);"/><text class="clickable sprotty-label port" id="sprotty_ArchitectureBlockImpl$aes_prng_clearing/BPortImpl$entropy_req_o/label" transform="translate(-89.25, 6) translate(41.625, 14)" style="cursor:default;font-size:12px;perspective-origin:0px 0px;fill:rgb(48, 48, 48);text-anchor:middle;">entropy_req_o</text></g></g></g></svg>