<svg xmlns="http://www.w3.org/2000/svg" id="sprotty_work.flash_phy_scramble" class="sprotty-graph sprotty-block-diagram blockdiagram" style="font-family:&quot;Noto Sans&quot;, Helvetica, Arial, sans-serif;perspective-origin:0px 0px;transform-origin:0px 0px;" version="1.1" viewBox="7 7 749.09375 534" width="749.09375" height="534"><g transform="scale(1) translate(0,0)"><g id="sprotty_ArchitectureBlockImpl$flash_phy_scramble" transform="translate(12, 12)" class="architecture"><g class="sprotty-block" style="fill:rgb(255, 255, 255);stroke:rgb(48, 48, 48);stroke-dasharray:0px;"><rect x="0" y="0" rx="1" ry="1" width="739.09375" height="524"/><text x="369.546875" y="12" class="sprotty-block-name" style="cursor:pointer;font-weight:700;perspective-origin:369.547px 0px;fill:rgb(48, 48, 48);stroke:rgba(0, 0, 0, 0);dominant-baseline:middle;text-anchor:middle;">flash_phy_scramble</text><line x1="0" y1="20" x2="739.09375" y2="20"/></g><g id="sprotty_ArchitectureBlockImpl$flash_phy_scramble/InstantiationBlockImpl$u_mult/BPortImpl$ack_o_to_ArchitectureBlockImpl$flash_phy_scramble/BPortImpl$calc_ack_o" class="sprotty-edge edge" style="fill:none;stroke:rgb(112, 112, 112);stroke-linejoin:round;"><g><path d="M 337.625 86 L 739.09375 86 "/><path d="M 337.625 86 L 739.09375 86 " class="clickable"/></g></g><g id="sprotty_ArchitectureBlockImpl$flash_phy_scramble/InstantiationBlockImpl$u_cipher/BPortImpl$valid_o_to_ArchitectureBlockImpl$flash_phy_scramble/BPortImpl$op_ack_o" class="sprotty-edge edge" style="fill:none;stroke:rgb(112, 112, 112);stroke-linejoin:round;"><g><path d="M 553.78125 248 L 739.09375 248 "/><path d="M 553.78125 248 L 739.09375 248 " class="clickable"/></g></g><g id="sprotty_ArchitectureBlockImpl$flash_phy_scramble/InstantiationBlockImpl$u_mult/BPortImpl$prod_o_to_ArchitectureBlockImpl$flash_phy_scramble/BPortImpl$mask_o" class="sprotty-edge thick edge" style="fill:none;stroke:rgb(112, 112, 112);stroke-linejoin:round;stroke-width:3px;"><g><path d="M 337.625 198 L 739.09375 198 "/><path d="M 337.625 198 L 739.09375 198 " class="clickable"/></g></g><g id="sprotty_ArchitectureBlockImpl$flash_phy_scramble/AssignmentBlockImpl$plain_data_o/GPortImpl$plain_data_oOUT_to_ArchitectureBlockImpl$flash_phy_scramble/BPortImpl$plain_data_o" class="sprotty-edge thick edge" style="fill:none;stroke:rgb(112, 112, 112);stroke-linejoin:round;stroke-width:3px;"><g><path d="M 613.5 417 L 739.09375 417 "/><path d="M 613.5 417 L 739.09375 417 " class="clickable"/></g></g><g id="sprotty_ArchitectureBlockImpl$flash_phy_scramble/AssignmentBlockImpl$scrambled_data_o/GPortImpl$scrambled_data_oOUT_to_ArchitectureBlockImpl$flash_phy_scramble/BPortImpl$scrambled_data_o" class="sprotty-edge thick edge" style="fill:none;stroke:rgb(112, 112, 112);stroke-linejoin:round;stroke-width:3px;"><g><path d="M 613.5 477 L 739.09375 477 "/><path d="M 613.5 477 L 739.09375 477 " class="clickable"/></g></g><g id="sprotty_ArchitectureBlockImpl$flash_phy_scramble/BPortImpl$clk_i_to_ArchitectureBlockImpl$flash_phy_scramble/InstantiationBlockImpl$u_mult/BPortImpl$clk_i" class="sprotty-edge edge" style="fill:none;stroke:rgb(112, 112, 112);stroke-linejoin:round;"><g><path d="M 0 36 L 129.625 36 C 130.625 36 131.625 37 131.625 38 L 131.625 84 C 131.625 85 132.625 86 133.625 86 L 151.625 86 "/><path d="M 0 36 L 129.625 36 C 130.625 36 131.625 37 131.625 38 L 131.625 84 C 131.625 85 132.625 86 133.625 86 L 151.625 86 " class="clickable"/></g><circle r="2" id="sprotty_ArchitectureBlockImpl$flash_phy_scramble/BPortImpl$clk_i_to_ArchitectureBlockImpl$flash_phy_scramble/InstantiationBlockImpl$u_mult/BPortImpl$clk_i/junction0" transform="translate(131.625, 36)" class="sprotty-junction junction" style="fill:rgb(112, 112, 112);stroke:none;"/></g><g id="sprotty_ArchitectureBlockImpl$flash_phy_scramble/BPortImpl$rst_ni_to_ArchitectureBlockImpl$flash_phy_scramble/InstantiationBlockImpl$u_mult/BPortImpl$rst_ni" class="sprotty-edge edge" style="fill:none;stroke:rgb(112, 112, 112);stroke-linejoin:round;"><g><path d="M 0 227 L 129.625 227 C 130.625 227 131.625 226 131.625 225 L 131.625 116 C 131.625 115 132.625 114 133.625 114 L 151.625 114 "/><path d="M 0 227 L 129.625 227 C 130.625 227 131.625 226 131.625 225 L 131.625 116 C 131.625 115 132.625 114 133.625 114 L 151.625 114 " class="clickable"/></g><circle r="2" id="sprotty_ArchitectureBlockImpl$flash_phy_scramble/BPortImpl$rst_ni_to_ArchitectureBlockImpl$flash_phy_scramble/InstantiationBlockImpl$u_mult/BPortImpl$rst_ni/junction0" transform="translate(131.625, 227)" class="sprotty-junction junction" style="fill:rgb(112, 112, 112);stroke:none;"/></g><g id="sprotty_ArchitectureBlockImpl$flash_phy_scramble/BPortImpl$calc_req_i_to_ArchitectureBlockImpl$flash_phy_scramble/InstantiationBlockImpl$u_mult/BPortImpl$req_i" class="sprotty-edge edge" style="fill:none;stroke:rgb(112, 112, 112);stroke-linejoin:round;"><g><path d="M 0 136 L 139.625 136 C 140.625 136 141.625 137 141.625 138 L 141.625 140 C 141.625 141 142.625 142 143.625 142 L 151.625 142 "/><path d="M 0 136 L 139.625 136 C 140.625 136 141.625 137 141.625 138 L 141.625 140 C 141.625 141 142.625 142 143.625 142 L 151.625 142 " class="clickable"/></g></g><g id="sprotty_ArchitectureBlockImpl$flash_phy_scramble/BPortImpl$addr_key_i_to_ArchitectureBlockImpl$flash_phy_scramble/InstantiationBlockImpl$u_mult/BPortImpl$operand_a_i" class="sprotty-edge thick edge" style="fill:none;stroke:rgb(112, 112, 112);stroke-linejoin:round;stroke-width:3px;"><g><path d="M 0 261 L 139.625 261 C 140.625 261 141.625 260 141.625 259 L 141.625 172 C 141.625 171 142.625 170 143.625 170 L 151.625 170 "/><path d="M 0 261 L 139.625 261 C 140.625 261 141.625 260 141.625 259 L 141.625 172 C 141.625 171 142.625 170 143.625 170 L 151.625 170 " class="clickable"/></g><circle r="3" id="sprotty_ArchitectureBlockImpl$flash_phy_scramble/BPortImpl$addr_key_i_to_ArchitectureBlockImpl$flash_phy_scramble/InstantiationBlockImpl$u_mult/BPortImpl$operand_a_i/junction0" transform="translate(141.625, 261)" class="sprotty-junction thick" style="fill:rgb(112, 112, 112);stroke:none;"/><circle r="3" id="sprotty_ArchitectureBlockImpl$flash_phy_scramble/BPortImpl$addr_key_i_to_ArchitectureBlockImpl$flash_phy_scramble/InstantiationBlockImpl$u_mult/BPortImpl$operand_a_i/junction1" transform="translate(141.625, 170)" class="sprotty-junction thick" style="fill:rgb(112, 112, 112);stroke:none;"/></g><g id="sprotty_ArchitectureBlockImpl$flash_phy_scramble/BPortImpl$addr_i_to_ArchitectureBlockImpl$flash_phy_scramble/InstantiationBlockImpl$u_mult/BPortImpl$operand_a_i" class="sprotty-edge thick edge" style="fill:none;stroke:rgb(112, 112, 112);stroke-linejoin:round;stroke-width:3px;"><g><path d="M 0 170 L 151.625 170 "/><path d="M 0 170 L 151.625 170 " class="clickable"/></g></g><g id="sprotty_ArchitectureBlockImpl$flash_phy_scramble/BPortImpl$addr_key_i_to_ArchitectureBlockImpl$flash_phy_scramble/InstantiationBlockImpl$u_mult/BPortImpl$operand_b_i" class="sprotty-edge thick edge" style="fill:none;stroke:rgb(112, 112, 112);stroke-linejoin:round;stroke-width:3px;"><g><path d="M 0 261 L 139.625 261 C 140.625 261 141.625 260 141.625 259 L 141.625 200 C 141.625 199 142.625 198 143.625 198 L 151.625 198 "/><path d="M 0 261 L 139.625 261 C 140.625 261 141.625 260 141.625 259 L 141.625 200 C 141.625 199 142.625 198 143.625 198 L 151.625 198 " class="clickable"/></g><circle r="3" id="sprotty_ArchitectureBlockImpl$flash_phy_scramble/BPortImpl$addr_key_i_to_ArchitectureBlockImpl$flash_phy_scramble/InstantiationBlockImpl$u_mult/BPortImpl$operand_b_i/junction0" transform="translate(141.625, 198)" class="sprotty-junction thick" style="fill:rgb(112, 112, 112);stroke:none;"/></g><g id="sprotty_ArchitectureBlockImpl$flash_phy_scramble/BPortImpl$clk_i_to_ArchitectureBlockImpl$flash_phy_scramble/InstantiationBlockImpl$u_cipher/BPortImpl$clk_i" class="sprotty-edge edge" style="fill:none;stroke:rgb(112, 112, 112);stroke-linejoin:round;"><g><path d="M 0 36 L 355.625 36 C 356.625 36 357.625 37 357.625 38 L 357.625 246 C 357.625 247 358.625 248 359.625 248 L 367.625 248 "/><path d="M 0 36 L 355.625 36 C 356.625 36 357.625 37 357.625 38 L 357.625 246 C 357.625 247 358.625 248 359.625 248 L 367.625 248 " class="clickable"/></g></g><g id="sprotty_ArchitectureBlockImpl$flash_phy_scramble/BPortImpl$rst_ni_to_ArchitectureBlockImpl$flash_phy_scramble/InstantiationBlockImpl$u_cipher/BPortImpl$rst_ni" class="sprotty-edge edge" style="fill:none;stroke:rgb(112, 112, 112);stroke-linejoin:round;"><g><path d="M 0 227 L 345.625 227 C 346.625 227 347.625 228 347.625 229 L 347.625 274 C 347.625 275 348.625 276 349.625 276 L 367.625 276 "/><path d="M 0 227 L 345.625 227 C 346.625 227 347.625 228 347.625 229 L 347.625 274 C 347.625 275 348.625 276 349.625 276 L 367.625 276 " class="clickable"/></g></g><g id="sprotty_ArchitectureBlockImpl$flash_phy_scramble/BPortImpl$op_req_i_to_ArchitectureBlockImpl$flash_phy_scramble/InstantiationBlockImpl$u_cipher/BPortImpl$valid_i" class="sprotty-edge edge" style="fill:none;stroke:rgb(112, 112, 112);stroke-linejoin:round;"><g><path d="M 0 304 L 367.625 304 "/><path d="M 0 304 L 367.625 304 " class="clickable"/></g></g><g id="sprotty_ArchitectureBlockImpl$flash_phy_scramble/BPortImpl$data_key_i_to_ArchitectureBlockImpl$flash_phy_scramble/InstantiationBlockImpl$u_cipher/BPortImpl$key_i" class="sprotty-edge thick edge" style="fill:none;stroke:rgb(112, 112, 112);stroke-linejoin:round;stroke-width:3px;"><g><path d="M 0 360 L 367.625 360 "/><path d="M 0 360 L 367.625 360 " class="clickable"/></g></g><g id="sprotty_ArchitectureBlockImpl$flash_phy_scramble/BPortImpl$addr_key_i_to_ArchitectureBlockImpl$flash_phy_scramble/AssignmentBlockImpl$unused_key/GPortImpl$addr_key_iIN" class="sprotty-edge thick edge" style="fill:none;stroke:rgb(112, 112, 112);stroke-linejoin:round;stroke-width:3px;"><g><path d="M 0 261 L 151.625 261 "/><path d="M 0 261 L 151.625 261 " class="clickable"/></g></g><g id="sprotty_ArchitectureBlockImpl$flash_phy_scramble/BPortImpl$op_type_i_to_ArchitectureBlockImpl$flash_phy_scramble/AssignmentBlockImpl$dec/GPortImpl$op_type_iIN" class="sprotty-edge thick edge" style="fill:none;stroke:rgb(112, 112, 112);stroke-linejoin:round;stroke-width:3px;"><g><path d="M 0 417 L 234.765625 417 "/><path d="M 0 417 L 234.765625 417 " class="clickable"/></g></g><g id="sprotty_ArchitectureBlockImpl$flash_phy_scramble/BPortImpl$scrambled_data_i_to_ArchitectureBlockImpl$flash_phy_scramble/AssignmentBlockImpl$plain_data_o/GPortImpl$scrambled_data_iIN" class="sprotty-edge thick edge" style="fill:none;stroke:rgb(112, 112, 112);stroke-linejoin:round;stroke-width:3px;"><g><path d="M 0 451 L 571.78125 451 C 572.78125 451 573.78125 450 573.78125 449 L 573.78125 429 C 573.78125 428 574.78125 427 575.78125 427 L 593.78125 427 "/><path d="M 0 451 L 571.78125 451 C 572.78125 451 573.78125 450 573.78125 449 L 573.78125 429 C 573.78125 428 574.78125 427 575.78125 427 L 593.78125 427 " class="clickable"/></g></g><g id="sprotty_ArchitectureBlockImpl$flash_phy_scramble/BPortImpl$plain_data_i_to_ArchitectureBlockImpl$flash_phy_scramble/AssignmentBlockImpl$scrambled_data_o/GPortImpl$plain_data_iIN" class="sprotty-edge thick edge" style="fill:none;stroke:rgb(112, 112, 112);stroke-linejoin:round;stroke-width:3px;"><g><path d="M 0 485 L 563.78125 485 L 563.78125 487 L 593.78125 487 "/><path d="M 0 485 L 563.78125 485 L 563.78125 487 L 593.78125 487 " class="clickable"/></g></g><g id="sprotty_ArchitectureBlockImpl$flash_phy_scramble/AssignmentBlockImpl$dec/GPortImpl$decOUT_to_ArchitectureBlockImpl$flash_phy_scramble/InstantiationBlockImpl$u_cipher/BPortImpl$dec_i" class="sprotty-edge edge" style="fill:none;stroke:rgb(112, 112, 112);stroke-linejoin:round;"><g><path d="M 254.484375 417 L 345.625 417 C 346.625 417 347.625 416 347.625 415 L 347.625 390 C 347.625 389 348.625 388 349.625 388 L 367.625 388 "/><path d="M 254.484375 417 L 345.625 417 C 346.625 417 347.625 416 347.625 415 L 347.625 390 C 347.625 389 348.625 388 349.625 388 L 367.625 388 " class="clickable"/></g><circle r="2" id="sprotty_ArchitectureBlockImpl$flash_phy_scramble/AssignmentBlockImpl$dec/GPortImpl$decOUT_to_ArchitectureBlockImpl$flash_phy_scramble/InstantiationBlockImpl$u_cipher/BPortImpl$dec_i/junction0" transform="translate(347.625, 417)" class="sprotty-junction junction" style="fill:rgb(112, 112, 112);stroke:none;"/></g><g id="sprotty_ArchitectureBlockImpl$flash_phy_scramble/AssignmentBlockImpl$dec/GPortImpl$decOUT_to_ArchitectureBlockImpl$flash_phy_scramble/AssignmentBlockImpl$plain_data_o/GPortImpl$decIN" class="sprotty-edge edge" style="fill:none;stroke:rgb(112, 112, 112);stroke-linejoin:round;"><g><path d="M 254.484375 417 L 593.78125 417 "/><path d="M 254.484375 417 L 593.78125 417 " class="clickable"/></g></g><g id="sprotty_ArchitectureBlockImpl$flash_phy_scramble/AssignmentBlockImpl$dec/GPortImpl$decOUT_to_ArchitectureBlockImpl$flash_phy_scramble/AssignmentBlockImpl$scrambled_data_o/GPortImpl$decIN" class="sprotty-edge edge" style="fill:none;stroke:rgb(112, 112, 112);stroke-linejoin:round;"><g><path d="M 254.484375 417 L 561.78125 417 C 562.78125 417 563.78125 418 563.78125 419 L 563.78125 475 C 563.78125 476 564.78125 477 565.78125 477 L 593.78125 477 "/><path d="M 254.484375 417 L 561.78125 417 C 562.78125 417 563.78125 418 563.78125 419 L 563.78125 475 C 563.78125 476 564.78125 477 565.78125 477 L 593.78125 477 " class="clickable"/></g><circle r="2" id="sprotty_ArchitectureBlockImpl$flash_phy_scramble/AssignmentBlockImpl$dec/GPortImpl$decOUT_to_ArchitectureBlockImpl$flash_phy_scramble/AssignmentBlockImpl$scrambled_data_o/GPortImpl$decIN/junction0" transform="translate(563.78125, 417)" class="sprotty-junction junction" style="fill:rgb(112, 112, 112);stroke:none;"/></g><g id="sprotty_ArchitectureBlockImpl$flash_phy_scramble/InstantiationBlockImpl$u_cipher/BPortImpl$data_o_to_ArchitectureBlockImpl$flash_phy_scramble/AssignmentBlockImpl$plain_data_o/GPortImpl$dataIN" class="sprotty-edge thick edge" style="fill:none;stroke:rgb(112, 112, 112);stroke-linejoin:round;stroke-width:3px;"><g><path d="M 553.78125 388 L 581.78125 388 C 582.78125 388 583.78125 389 583.78125 390 L 583.78125 405 C 583.78125 406 584.78125 407 585.78125 407 L 593.78125 407 "/><path d="M 553.78125 388 L 581.78125 388 C 582.78125 388 583.78125 389 583.78125 390 L 583.78125 405 C 583.78125 406 584.78125 407 585.78125 407 L 593.78125 407 " class="clickable"/></g><circle r="3" id="sprotty_ArchitectureBlockImpl$flash_phy_scramble/InstantiationBlockImpl$u_cipher/BPortImpl$data_o_to_ArchitectureBlockImpl$flash_phy_scramble/AssignmentBlockImpl$plain_data_o/GPortImpl$dataIN/junction0" transform="translate(583.78125, 407)" class="sprotty-junction thick" style="fill:rgb(112, 112, 112);stroke:none;"/></g><g id="sprotty_ArchitectureBlockImpl$flash_phy_scramble/InstantiationBlockImpl$u_cipher/BPortImpl$data_o_to_ArchitectureBlockImpl$flash_phy_scramble/AssignmentBlockImpl$scrambled_data_o/GPortImpl$dataIN" class="sprotty-edge thick edge" style="fill:none;stroke:rgb(112, 112, 112);stroke-linejoin:round;stroke-width:3px;"><g><path d="M 553.78125 388 L 581.78125 388 C 582.78125 388 583.78125 389 583.78125 390 L 583.78125 465 C 583.78125 466 584.78125 467 585.78125 467 L 593.78125 467 "/><path d="M 553.78125 388 L 581.78125 388 C 582.78125 388 583.78125 389 583.78125 390 L 583.78125 465 C 583.78125 466 584.78125 467 585.78125 467 L 593.78125 467 " class="clickable"/></g></g><g id="sprotty_ArchitectureBlockImpl$flash_phy_scramble/AssignmentBlockImpl$scrambled_data_o" transform="translate(593.78125, 457)" class="statement"><rect x="0" y="0" rx="10" ry="5" width="19.71875" height="40" class="sprotty-node" style="fill:rgb(245, 245, 245);stroke:rgb(112, 112, 112);"/><text class="clickable sprotty-label statementtype" id="sprotty_ArchitectureBlockImpl$flash_phy_scramble/AssignmentBlockImpl$scrambled_data_o/labeltype" transform="translate(5, 14) translate(4.71875, 9)" style="cursor:default;font-size:8px;font-weight:700;perspective-origin:0.140625px 0px;fill:rgb(112, 112, 112);text-anchor:middle;">&lt;=</text><g id="sprotty_ArchitectureBlockImpl$flash_phy_scramble/AssignmentBlockImpl$scrambled_data_o/GPortImpl$dataIN" transform="translate(0, 10)" class="sprotty-hidden hidden" style="display:block;height:0px;width:0px;"/><g id="sprotty_ArchitectureBlockImpl$flash_phy_scramble/AssignmentBlockImpl$scrambled_data_o/GPortImpl$plain_data_iIN" transform="translate(0, 30)" class="sprotty-hidden hidden" style="display:block;height:0px;width:0px;"/><g id="sprotty_ArchitectureBlockImpl$flash_phy_scramble/AssignmentBlockImpl$scrambled_data_o/GPortImpl$decIN" transform="translate(0, 20)" class="sprotty-hidden hidden" style="display:block;height:0px;width:0px;"/><g id="sprotty_ArchitectureBlockImpl$flash_phy_scramble/AssignmentBlockImpl$scrambled_data_o/GPortImpl$scrambled_data_oOUT" transform="translate(19.71875, 20)" class="sprotty-hidden hidden" style="display:block;height:0px;width:0px;"/></g><g id="sprotty_ArchitectureBlockImpl$flash_phy_scramble/AssignmentBlockImpl$plain_data_o" transform="translate(593.78125, 397)" class="statement"><rect x="0" y="0" rx="10" ry="5" width="19.71875" height="40" class="sprotty-node" style="fill:rgb(245, 245, 245);stroke:rgb(112, 112, 112);"/><text class="clickable sprotty-label statementtype" id="sprotty_ArchitectureBlockImpl$flash_phy_scramble/AssignmentBlockImpl$plain_data_o/labeltype" transform="translate(5, 14) translate(4.71875, 9)" style="cursor:default;font-size:8px;font-weight:700;perspective-origin:0.140625px 0px;fill:rgb(112, 112, 112);text-anchor:middle;">&lt;=</text><g id="sprotty_ArchitectureBlockImpl$flash_phy_scramble/AssignmentBlockImpl$plain_data_o/GPortImpl$scrambled_data_iIN" transform="translate(0, 30)" class="sprotty-hidden hidden" style="display:block;height:0px;width:0px;"/><g id="sprotty_ArchitectureBlockImpl$flash_phy_scramble/AssignmentBlockImpl$plain_data_o/GPortImpl$dataIN" transform="translate(0, 10)" class="sprotty-hidden hidden" style="display:block;height:0px;width:0px;"/><g id="sprotty_ArchitectureBlockImpl$flash_phy_scramble/AssignmentBlockImpl$plain_data_o/GPortImpl$decIN" transform="translate(0, 20)" class="sprotty-hidden hidden" style="display:block;height:0px;width:0px;"/><g id="sprotty_ArchitectureBlockImpl$flash_phy_scramble/AssignmentBlockImpl$plain_data_o/GPortImpl$plain_data_oOUT" transform="translate(19.71875, 20)" class="sprotty-hidden hidden" style="display:block;height:0px;width:0px;"/></g><g id="sprotty_ArchitectureBlockImpl$flash_phy_scramble/AssignmentBlockImpl$dec" transform="translate(234.765625, 406)" class="statement"><rect x="0" y="0" rx="10" ry="5" width="19.71875" height="22" class="sprotty-node" style="fill:rgb(245, 245, 245);stroke:rgb(112, 112, 112);"/><text class="clickable sprotty-label statementtype" id="sprotty_ArchitectureBlockImpl$flash_phy_scramble/AssignmentBlockImpl$dec/labeltype" transform="translate(5, 5) translate(4.71875, 9)" style="cursor:default;font-size:8px;font-weight:700;perspective-origin:0.140625px 0px;fill:rgb(112, 112, 112);text-anchor:middle;">&lt;=</text><g id="sprotty_ArchitectureBlockImpl$flash_phy_scramble/AssignmentBlockImpl$dec/GPortImpl$op_type_iIN" transform="translate(0, 11)" class="sprotty-hidden hidden" style="display:block;height:0px;width:0px;"/><g id="sprotty_ArchitectureBlockImpl$flash_phy_scramble/AssignmentBlockImpl$dec/GPortImpl$decOUT" transform="translate(19.71875, 11)" class="sprotty-hidden hidden" style="display:block;height:0px;width:0px;"/></g><g id="sprotty_ArchitectureBlockImpl$flash_phy_scramble/AssignmentBlockImpl$unused_key" transform="translate(151.625, 250)" class="statement"><rect x="0" y="0" rx="10" ry="5" width="19.71875" height="22" class="sprotty-node" style="fill:rgb(245, 245, 245);stroke:rgb(112, 112, 112);"/><text class="clickable sprotty-label statementtype" id="sprotty_ArchitectureBlockImpl$flash_phy_scramble/AssignmentBlockImpl$unused_key/labeltype" transform="translate(5, 5) translate(4.71875, 9)" style="cursor:default;font-size:8px;font-weight:700;perspective-origin:0.140625px 0px;fill:rgb(112, 112, 112);text-anchor:middle;">&lt;=</text><g id="sprotty_ArchitectureBlockImpl$flash_phy_scramble/AssignmentBlockImpl$unused_key/GPortImpl$addr_key_iIN" transform="translate(0, 11)" class="sprotty-hidden hidden" style="display:block;height:0px;width:0px;"/></g><g id="sprotty_ArchitectureBlockImpl$flash_phy_scramble/InstantiationBlockImpl$u_cipher" transform="translate(367.625, 210)" class="instantiation"><g class="sprotty-block" style="fill:rgb(255, 255, 255);stroke:rgb(48, 48, 48);stroke-dasharray:0px;"><rect x="0" y="0" rx="1" ry="1" width="186.15625" height="196"/><text x="93.078125" y="12" class="sprotty-block-name" style="cursor:pointer;font-weight:700;perspective-origin:93.0781px 0px;fill:rgb(48, 48, 48);stroke:rgba(0, 0, 0, 0);dominant-baseline:middle;text-anchor:middle;">u_cipher : prim_prince</text><line x1="0" y1="20" x2="186.15625" y2="20"/></g><g id="sprotty_ArchitectureBlockImpl$flash_phy_scramble/InstantiationBlockImpl$u_cipher/BPortImpl$dec_i" transform="translate(0, 178)" class="triangle"><path d="M 0,0 L 5,2.5 L 0,5 Z" transform="translate(-1.67, -2.5)" class="sprotty-port" style="fill:rgb(48, 48, 48);stroke:rgb(48, 48, 48);"/><text class="clickable sprotty-label port" id="sprotty_ArchitectureBlockImpl$flash_phy_scramble/InstantiationBlockImpl$u_cipher/BPortImpl$dec_i/label" transform="translate(6, -9) translate(15.109375, 14)" style="cursor:default;font-size:12px;perspective-origin:0px 0px;fill:rgb(48, 48, 48);text-anchor:middle;">dec_i</text></g><g id="sprotty_ArchitectureBlockImpl$flash_phy_scramble/InstantiationBlockImpl$u_cipher/BPortImpl$key_i" transform="translate(0, 150)" class="triangle"><path d="M 0,0 L 5,2.5 L 0,5 Z" transform="translate(-1.67, -2.5)" class="sprotty-port" style="fill:rgb(48, 48, 48);stroke:rgb(48, 48, 48);"/><text class="clickable sprotty-label port" id="sprotty_ArchitectureBlockImpl$flash_phy_scramble/InstantiationBlockImpl$u_cipher/BPortImpl$key_i/label" transform="translate(6, -9) translate(14.6875, 14)" style="cursor:default;font-size:12px;perspective-origin:0px 0px;fill:rgb(48, 48, 48);text-anchor:middle;">key_i</text></g><g id="sprotty_ArchitectureBlockImpl$flash_phy_scramble/InstantiationBlockImpl$u_cipher/BPortImpl$data_i" transform="translate(0, 122)" class="triangle"><path d="M 0,0 L 5,2.5 L 0,5 Z" transform="translate(-1.67, -2.5)" class="sprotty-port" style="fill:rgb(48, 48, 48);stroke:rgb(48, 48, 48);"/><text class="clickable sprotty-label port" id="sprotty_ArchitectureBlockImpl$flash_phy_scramble/InstantiationBlockImpl$u_cipher/BPortImpl$data_i/label" transform="translate(6, -9) translate(17.53125, 14)" style="cursor:default;font-size:12px;perspective-origin:0px 0px;fill:rgb(48, 48, 48);text-anchor:middle;">data_i</text></g><g id="sprotty_ArchitectureBlockImpl$flash_phy_scramble/InstantiationBlockImpl$u_cipher/BPortImpl$valid_i" transform="translate(0, 94)" class="triangle"><path d="M 0,0 L 5,2.5 L 0,5 Z" transform="translate(-1.67, -2.5)" class="sprotty-port" style="fill:rgb(48, 48, 48);stroke:rgb(48, 48, 48);"/><text class="clickable sprotty-label port" id="sprotty_ArchitectureBlockImpl$flash_phy_scramble/InstantiationBlockImpl$u_cipher/BPortImpl$valid_i/label" transform="translate(6, -9) translate(18.46875, 14)" style="cursor:default;font-size:12px;perspective-origin:0px 0px;fill:rgb(48, 48, 48);text-anchor:middle;">valid_i</text></g><g id="sprotty_ArchitectureBlockImpl$flash_phy_scramble/InstantiationBlockImpl$u_cipher/BPortImpl$rst_ni" transform="translate(0, 66)" class="triangle"><path d="M 0,0 L 5,2.5 L 0,5 Z" transform="translate(-1.67, -2.5)" class="sprotty-port" style="fill:rgb(48, 48, 48);stroke:rgb(48, 48, 48);"/><text class="clickable sprotty-label port" id="sprotty_ArchitectureBlockImpl$flash_phy_scramble/InstantiationBlockImpl$u_cipher/BPortImpl$rst_ni/label" transform="translate(6, -9) translate(15.921875, 14)" style="cursor:default;font-size:12px;perspective-origin:0px 0px;fill:rgb(48, 48, 48);text-anchor:middle;">rst_ni</text></g><g id="sprotty_ArchitectureBlockImpl$flash_phy_scramble/InstantiationBlockImpl$u_cipher/BPortImpl$clk_i" transform="translate(0, 38)" class="triangle"><path d="M 0,0 L 5,2.5 L 0,5 Z" transform="translate(-1.67, -2.5)" class="sprotty-port" style="fill:rgb(48, 48, 48);stroke:rgb(48, 48, 48);"/><text class="clickable sprotty-label port" id="sprotty_ArchitectureBlockImpl$flash_phy_scramble/InstantiationBlockImpl$u_cipher/BPortImpl$clk_i/label" transform="translate(6, -9) translate(13.09375, 14)" style="cursor:default;font-size:12px;perspective-origin:0px 0px;fill:rgb(48, 48, 48);text-anchor:middle;">clk_i</text></g><g id="sprotty_ArchitectureBlockImpl$flash_phy_scramble/InstantiationBlockImpl$u_cipher/BPortImpl$valid_o" transform="translate(186.15625, 38)" class="triangle"><path d="M 0,0 L 5,2.5 L 0,5 Z" transform="translate(-1.67, -2.5)" class="sprotty-port" style="fill:rgb(48, 48, 48);stroke:rgb(48, 48, 48);"/><text class="clickable sprotty-label port" id="sprotty_ArchitectureBlockImpl$flash_phy_scramble/InstantiationBlockImpl$u_cipher/BPortImpl$valid_o/label" transform="translate(-46.90625, -9) translate(20.453125, 14)" style="cursor:default;font-size:12px;perspective-origin:0px 0px;fill:rgb(48, 48, 48);text-anchor:middle;">valid_o</text></g><g id="sprotty_ArchitectureBlockImpl$flash_phy_scramble/InstantiationBlockImpl$u_cipher/BPortImpl$data_o" transform="translate(186.15625, 178)" class="triangle"><path d="M 0,0 L 5,2.5 L 0,5 Z" transform="translate(-1.67, -2.5)" class="sprotty-port" style="fill:rgb(48, 48, 48);stroke:rgb(48, 48, 48);"/><text class="clickable sprotty-label port" id="sprotty_ArchitectureBlockImpl$flash_phy_scramble/InstantiationBlockImpl$u_cipher/BPortImpl$data_o/label" transform="translate(-45.03125, -9) translate(19.515625, 14)" style="cursor:default;font-size:12px;perspective-origin:0px 0px;fill:rgb(48, 48, 48);text-anchor:middle;">data_o</text></g></g><g id="sprotty_ArchitectureBlockImpl$flash_phy_scramble/InstantiationBlockImpl$u_mult" transform="translate(151.625, 48)" class="instantiation"><g class="sprotty-block" style="fill:rgb(255, 255, 255);stroke:rgb(48, 48, 48);stroke-dasharray:0px;"><rect x="0" y="0" rx="1" ry="1" width="186" height="168"/><text x="93" y="12" class="sprotty-block-name" style="cursor:pointer;font-weight:700;perspective-origin:93.1406px 0px;fill:rgb(48, 48, 48);stroke:rgba(0, 0, 0, 0);dominant-baseline:middle;text-anchor:middle;">u_mult : prim_gf_mult</text><line x1="0" y1="20" x2="186" y2="20"/></g><g id="sprotty_ArchitectureBlockImpl$flash_phy_scramble/InstantiationBlockImpl$u_mult/BPortImpl$operand_b_i" transform="translate(0, 150)" class="triangle"><path d="M 0,0 L 5,2.5 L 0,5 Z" transform="translate(-1.67, -2.5)" class="sprotty-port" style="fill:rgb(48, 48, 48);stroke:rgb(48, 48, 48);"/><text class="clickable sprotty-label port" id="sprotty_ArchitectureBlockImpl$flash_phy_scramble/InstantiationBlockImpl$u_mult/BPortImpl$operand_b_i/label" transform="translate(6, -9) translate(35.6875, 14)" style="cursor:default;font-size:12px;perspective-origin:0px 0px;fill:rgb(48, 48, 48);text-anchor:middle;">operand_b_i</text></g><g id="sprotty_ArchitectureBlockImpl$flash_phy_scramble/InstantiationBlockImpl$u_mult/BPortImpl$operand_a_i" transform="translate(0, 122)" class="triangle"><path d="M 0,0 L 5,2.5 L 0,5 Z" transform="translate(-1.67, -2.5)" class="sprotty-port" style="fill:rgb(48, 48, 48);stroke:rgb(48, 48, 48);"/><text class="clickable sprotty-label port" id="sprotty_ArchitectureBlockImpl$flash_phy_scramble/InstantiationBlockImpl$u_mult/BPortImpl$operand_a_i/label" transform="translate(6, -9) translate(35.359375, 14)" style="cursor:default;font-size:12px;perspective-origin:0px 0px;fill:rgb(48, 48, 48);text-anchor:middle;">operand_a_i</text></g><g id="sprotty_ArchitectureBlockImpl$flash_phy_scramble/InstantiationBlockImpl$u_mult/BPortImpl$req_i" transform="translate(0, 94)" class="triangle"><path d="M 0,0 L 5,2.5 L 0,5 Z" transform="translate(-1.67, -2.5)" class="sprotty-port" style="fill:rgb(48, 48, 48);stroke:rgb(48, 48, 48);"/><text class="clickable sprotty-label port" id="sprotty_ArchitectureBlockImpl$flash_phy_scramble/InstantiationBlockImpl$u_mult/BPortImpl$req_i/label" transform="translate(6, -9) translate(14.3125, 14)" style="cursor:default;font-size:12px;perspective-origin:0px 0px;fill:rgb(48, 48, 48);text-anchor:middle;">req_i</text></g><g id="sprotty_ArchitectureBlockImpl$flash_phy_scramble/InstantiationBlockImpl$u_mult/BPortImpl$rst_ni" transform="translate(0, 66)" class="triangle"><path d="M 0,0 L 5,2.5 L 0,5 Z" transform="translate(-1.67, -2.5)" class="sprotty-port" style="fill:rgb(48, 48, 48);stroke:rgb(48, 48, 48);"/><text class="clickable sprotty-label port" id="sprotty_ArchitectureBlockImpl$flash_phy_scramble/InstantiationBlockImpl$u_mult/BPortImpl$rst_ni/label" transform="translate(6, -9) translate(15.921875, 14)" style="cursor:default;font-size:12px;perspective-origin:0px 0px;fill:rgb(48, 48, 48);text-anchor:middle;">rst_ni</text></g><g id="sprotty_ArchitectureBlockImpl$flash_phy_scramble/InstantiationBlockImpl$u_mult/BPortImpl$clk_i" transform="translate(0, 38)" class="triangle"><path d="M 0,0 L 5,2.5 L 0,5 Z" transform="translate(-1.67, -2.5)" class="sprotty-port" style="fill:rgb(48, 48, 48);stroke:rgb(48, 48, 48);"/><text class="clickable sprotty-label port" id="sprotty_ArchitectureBlockImpl$flash_phy_scramble/InstantiationBlockImpl$u_mult/BPortImpl$clk_i/label" transform="translate(6, -9) translate(13.09375, 14)" style="cursor:default;font-size:12px;perspective-origin:0px 0px;fill:rgb(48, 48, 48);text-anchor:middle;">clk_i</text></g><g id="sprotty_ArchitectureBlockImpl$flash_phy_scramble/InstantiationBlockImpl$u_mult/BPortImpl$ack_o" transform="translate(186, 38)" class="triangle"><path d="M 0,0 L 5,2.5 L 0,5 Z" transform="translate(-1.67, -2.5)" class="sprotty-port" style="fill:rgb(48, 48, 48);stroke:rgb(48, 48, 48);"/><text class="clickable sprotty-label port" id="sprotty_ArchitectureBlockImpl$flash_phy_scramble/InstantiationBlockImpl$u_mult/BPortImpl$ack_o/label" transform="translate(-39.5, -9) translate(16.75, 14)" style="cursor:default;font-size:12px;perspective-origin:0px 0px;fill:rgb(48, 48, 48);text-anchor:middle;">ack_o</text></g><g id="sprotty_ArchitectureBlockImpl$flash_phy_scramble/InstantiationBlockImpl$u_mult/BPortImpl$prod_o" transform="translate(186, 150)" class="triangle"><path d="M 0,0 L 5,2.5 L 0,5 Z" transform="translate(-1.67, -2.5)" class="sprotty-port" style="fill:rgb(48, 48, 48);stroke:rgb(48, 48, 48);"/><text class="clickable sprotty-label port" id="sprotty_ArchitectureBlockImpl$flash_phy_scramble/InstantiationBlockImpl$u_mult/BPortImpl$prod_o/label" transform="translate(-46.6875, -9) translate(20.34375, 14)" style="cursor:default;font-size:12px;perspective-origin:0px 0px;fill:rgb(48, 48, 48);text-anchor:middle;">prod_o</text></g></g><g id="sprotty_ArchitectureBlockImpl$flash_phy_scramble/BPortImpl$data_key_i" transform="translate(0, 360)" class="triangle"><path d="M 0,0 L 5,2.5 L 0,5 Z" transform="translate(-1.67, -2.5)" class="sprotty-port" style="fill:rgb(48, 48, 48);stroke:rgb(48, 48, 48);"/><text class="clickable sprotty-label port" id="sprotty_ArchitectureBlockImpl$flash_phy_scramble/BPortImpl$data_key_i/label" transform="translate(6, 6) translate(30.546875, 14)" style="cursor:default;font-size:12px;perspective-origin:0px 0px;fill:rgb(48, 48, 48);text-anchor:middle;">data_key_i</text></g><g id="sprotty_ArchitectureBlockImpl$flash_phy_scramble/BPortImpl$addr_key_i" transform="translate(0, 261)" class="triangle"><path d="M 0,0 L 5,2.5 L 0,5 Z" transform="translate(-1.67, -2.5)" class="sprotty-port" style="fill:rgb(48, 48, 48);stroke:rgb(48, 48, 48);"/><text class="clickable sprotty-label port" id="sprotty_ArchitectureBlockImpl$flash_phy_scramble/BPortImpl$addr_key_i/label" transform="translate(6, 6) translate(31.1875, 14)" style="cursor:default;font-size:12px;perspective-origin:0px 0px;fill:rgb(48, 48, 48);text-anchor:middle;">addr_key_i</text></g><g id="sprotty_ArchitectureBlockImpl$flash_phy_scramble/BPortImpl$scrambled_data_i" transform="translate(0, 451)" class="triangle"><path d="M 0,0 L 5,2.5 L 0,5 Z" transform="translate(-1.67, -2.5)" class="sprotty-port" style="fill:rgb(48, 48, 48);stroke:rgb(48, 48, 48);"/><text class="clickable sprotty-label port" id="sprotty_ArchitectureBlockImpl$flash_phy_scramble/BPortImpl$scrambled_data_i/label" transform="translate(6, 6) translate(50.3125, 14)" style="cursor:default;font-size:12px;perspective-origin:0px 0px;fill:rgb(48, 48, 48);text-anchor:middle;">scrambled_data_i</text></g><g id="sprotty_ArchitectureBlockImpl$flash_phy_scramble/BPortImpl$plain_data_i" transform="translate(0, 485)" class="triangle"><path d="M 0,0 L 5,2.5 L 0,5 Z" transform="translate(-1.67, -2.5)" class="sprotty-port" style="fill:rgb(48, 48, 48);stroke:rgb(48, 48, 48);"/><text class="clickable sprotty-label port" id="sprotty_ArchitectureBlockImpl$flash_phy_scramble/BPortImpl$plain_data_i/label" transform="translate(6, 6) translate(35.015625, 14)" style="cursor:default;font-size:12px;perspective-origin:0px 0px;fill:rgb(48, 48, 48);text-anchor:middle;">plain_data_i</text></g><g id="sprotty_ArchitectureBlockImpl$flash_phy_scramble/BPortImpl$addr_i" transform="translate(0, 170)" class="triangle"><path d="M 0,0 L 5,2.5 L 0,5 Z" transform="translate(-1.67, -2.5)" class="sprotty-port" style="fill:rgb(48, 48, 48);stroke:rgb(48, 48, 48);"/><text class="clickable sprotty-label port" id="sprotty_ArchitectureBlockImpl$flash_phy_scramble/BPortImpl$addr_i/label" transform="translate(6, 6) translate(18.15625, 14)" style="cursor:default;font-size:12px;perspective-origin:0px 0px;fill:rgb(48, 48, 48);text-anchor:middle;">addr_i</text></g><g id="sprotty_ArchitectureBlockImpl$flash_phy_scramble/BPortImpl$op_type_i" transform="translate(0, 417)" class="triangle"><path d="M 0,0 L 5,2.5 L 0,5 Z" transform="translate(-1.67, -2.5)" class="sprotty-port" style="fill:rgb(48, 48, 48);stroke:rgb(48, 48, 48);"/><text class="clickable sprotty-label port" id="sprotty_ArchitectureBlockImpl$flash_phy_scramble/BPortImpl$op_type_i/label" transform="translate(6, 6) translate(28.15625, 14)" style="cursor:default;font-size:12px;perspective-origin:0px 0px;fill:rgb(48, 48, 48);text-anchor:middle;">op_type_i</text></g><g id="sprotty_ArchitectureBlockImpl$flash_phy_scramble/BPortImpl$op_req_i" transform="translate(0, 304)" class="triangle"><path d="M 0,0 L 5,2.5 L 0,5 Z" transform="translate(-1.67, -2.5)" class="sprotty-port" style="fill:rgb(48, 48, 48);stroke:rgb(48, 48, 48);"/><text class="clickable sprotty-label port" id="sprotty_ArchitectureBlockImpl$flash_phy_scramble/BPortImpl$op_req_i/label" transform="translate(6, 6) translate(25.03125, 14)" style="cursor:default;font-size:12px;perspective-origin:0px 0px;fill:rgb(48, 48, 48);text-anchor:middle;">op_req_i</text></g><g id="sprotty_ArchitectureBlockImpl$flash_phy_scramble/BPortImpl$calc_req_i" transform="translate(0, 136)" class="triangle"><path d="M 0,0 L 5,2.5 L 0,5 Z" transform="translate(-1.67, -2.5)" class="sprotty-port" style="fill:rgb(48, 48, 48);stroke:rgb(48, 48, 48);"/><text class="clickable sprotty-label port" id="sprotty_ArchitectureBlockImpl$flash_phy_scramble/BPortImpl$calc_req_i/label" transform="translate(6, 6) translate(28.8125, 14)" style="cursor:default;font-size:12px;perspective-origin:0px 0px;fill:rgb(48, 48, 48);text-anchor:middle;">calc_req_i</text></g><g id="sprotty_ArchitectureBlockImpl$flash_phy_scramble/BPortImpl$rst_ni" transform="translate(0, 227)" class="triangle"><path d="M 0,0 L 5,2.5 L 0,5 Z" transform="translate(-1.67, -2.5)" class="sprotty-port" style="fill:rgb(48, 48, 48);stroke:rgb(48, 48, 48);"/><text class="clickable sprotty-label port" id="sprotty_ArchitectureBlockImpl$flash_phy_scramble/BPortImpl$rst_ni/label" transform="translate(6, 6) translate(15.921875, 14)" style="cursor:default;font-size:12px;perspective-origin:0px 0px;fill:rgb(48, 48, 48);text-anchor:middle;">rst_ni</text></g><g id="sprotty_ArchitectureBlockImpl$flash_phy_scramble/BPortImpl$clk_i" transform="translate(0, 36)" class="triangle"><path d="M 0,0 L 5,2.5 L 0,5 Z" transform="translate(-1.67, -2.5)" class="sprotty-port" style="fill:rgb(48, 48, 48);stroke:rgb(48, 48, 48);"/><text class="clickable sprotty-label port" id="sprotty_ArchitectureBlockImpl$flash_phy_scramble/BPortImpl$clk_i/label" transform="translate(6, 6) translate(13.09375, 14)" style="cursor:default;font-size:12px;perspective-origin:0px 0px;fill:rgb(48, 48, 48);text-anchor:middle;">clk_i</text></g><g id="sprotty_ArchitectureBlockImpl$flash_phy_scramble/BPortImpl$calc_ack_o" transform="translate(739.09375, 86)" class="triangle"><path d="M 0,0 L 5,2.5 L 0,5 Z" transform="translate(-1.67, -2.5)" class="sprotty-port" style="fill:rgb(48, 48, 48);stroke:rgb(48, 48, 48);"/><text class="clickable sprotty-label port" id="sprotty_ArchitectureBlockImpl$flash_phy_scramble/BPortImpl$calc_ack_o/label" transform="translate(-68.46875, 6) translate(31.234375, 14)" style="cursor:default;font-size:12px;perspective-origin:0px 0px;fill:rgb(48, 48, 48);text-anchor:middle;">calc_ack_o</text></g><g id="sprotty_ArchitectureBlockImpl$flash_phy_scramble/BPortImpl$op_ack_o" transform="translate(739.09375, 248)" class="triangle"><path d="M 0,0 L 5,2.5 L 0,5 Z" transform="translate(-1.67, -2.5)" class="sprotty-port" style="fill:rgb(48, 48, 48);stroke:rgb(48, 48, 48);"/><text class="clickable sprotty-label port" id="sprotty_ArchitectureBlockImpl$flash_phy_scramble/BPortImpl$op_ack_o/label" transform="translate(-60.90625, 6) translate(27.453125, 14)" style="cursor:default;font-size:12px;perspective-origin:0px 0px;fill:rgb(48, 48, 48);text-anchor:middle;">op_ack_o</text></g><g id="sprotty_ArchitectureBlockImpl$flash_phy_scramble/BPortImpl$mask_o" transform="translate(739.09375, 198)" class="triangle"><path d="M 0,0 L 5,2.5 L 0,5 Z" transform="translate(-1.67, -2.5)" class="sprotty-port" style="fill:rgb(48, 48, 48);stroke:rgb(48, 48, 48);"/><text class="clickable sprotty-label port" id="sprotty_ArchitectureBlockImpl$flash_phy_scramble/BPortImpl$mask_o/label" transform="translate(-50.125, 6) translate(22.0625, 14)" style="cursor:default;font-size:12px;perspective-origin:0px 0px;fill:rgb(48, 48, 48);text-anchor:middle;">mask_o</text></g><g id="sprotty_ArchitectureBlockImpl$flash_phy_scramble/BPortImpl$plain_data_o" transform="translate(739.09375, 417)" class="triangle"><path d="M 0,0 L 5,2.5 L 0,5 Z" transform="translate(-1.67, -2.5)" class="sprotty-port" style="fill:rgb(48, 48, 48);stroke:rgb(48, 48, 48);"/><text class="clickable sprotty-label port" id="sprotty_ArchitectureBlockImpl$flash_phy_scramble/BPortImpl$plain_data_o/label" transform="translate(-80, 6) translate(37, 14)" style="cursor:default;font-size:12px;perspective-origin:0px 0px;fill:rgb(48, 48, 48);text-anchor:middle;">plain_data_o</text></g><g id="sprotty_ArchitectureBlockImpl$flash_phy_scramble/BPortImpl$scrambled_data_o" transform="translate(739.09375, 477)" class="triangle"><path d="M 0,0 L 5,2.5 L 0,5 Z" transform="translate(-1.67, -2.5)" class="sprotty-port" style="fill:rgb(48, 48, 48);stroke:rgb(48, 48, 48);"/><text class="clickable sprotty-label port" id="sprotty_ArchitectureBlockImpl$flash_phy_scramble/BPortImpl$scrambled_data_o/label" transform="translate(-110.59375, 6) translate(52.296875, 14)" style="cursor:default;font-size:12px;perspective-origin:0px 0px;fill:rgb(48, 48, 48);text-anchor:middle;">scrambled_data_o</text></g></g></g></svg>