<svg xmlns="http://www.w3.org/2000/svg" id="sprotty_work.prim_esc_sender" class="sprotty-graph sprotty-block-diagram blockdiagram" style="font-family:&quot;Noto Sans&quot;, Helvetica, Arial, sans-serif;perspective-origin:0px 0px;transform-origin:0px 0px;" version="1.1" viewBox="7 7 912.59375 442" width="912.59375" height="442"><g transform="scale(1) translate(0,0)"><g id="sprotty_ArchitectureBlockImpl$prim_esc_sender" transform="translate(12, 12)" class="architecture"><g class="sprotty-block" style="fill:rgb(255, 255, 255);stroke:rgb(48, 48, 48);stroke-dasharray:0px;"><rect x="0" y="0" rx="1" ry="1" width="902.59375" height="432"/><text x="451.296875" y="12" class="sprotty-block-name" style="cursor:pointer;font-weight:700;perspective-origin:451.297px 0px;fill:rgb(48, 48, 48);stroke:rgba(0, 0, 0, 0);dominant-baseline:middle;text-anchor:middle;">prim_esc_sender</text><line x1="0" y1="20" x2="902.59375" y2="20"/></g><g id="sprotty_ArchitectureBlockImpl$prim_esc_sender/AlwaysBlockImpl$p_fsm/GPortImpl$ping_ok_oOUT_to_ArchitectureBlockImpl$prim_esc_sender/BPortImpl$ping_ok_o" class="sprotty-edge edge" style="fill:none;stroke:rgb(112, 112, 112);stroke-linejoin:round;"><g><path d="M 559.1875 204 L 567.1875 204 C 568.1875 204 569.1875 203 569.1875 202 L 569.1875 192 C 569.1875 191 570.1875 190 571.1875 190 L 902.59375 190 "/><path d="M 559.1875 204 L 567.1875 204 C 568.1875 204 569.1875 203 569.1875 202 L 569.1875 192 C 569.1875 191 570.1875 190 571.1875 190 L 902.59375 190 " class="clickable"/></g></g><g id="sprotty_ArchitectureBlockImpl$prim_esc_sender/AlwaysBlockImpl$p_fsm/GPortImpl$integ_fail_oOUT_to_ArchitectureBlockImpl$prim_esc_sender/BPortImpl$integ_fail_o" class="sprotty-edge edge" style="fill:none;stroke:rgb(112, 112, 112);stroke-linejoin:round;"><g><path d="M 559.1875 224 L 902.59375 224 "/><path d="M 559.1875 224 L 902.59375 224 " class="clickable"/></g></g><g id="sprotty_ArchitectureBlockImpl$prim_esc_sender/InstantiationBlockImpl$u_prim_buf_p/BPortImpl$out_o_to_ArchitectureBlockImpl$prim_esc_sender/BPortImpl$esc_tx_o" class="sprotty-edge thick edge" style="fill:none;stroke:rgb(112, 112, 112);stroke-linejoin:round;stroke-width:3px;"><g><path d="M 795.53125 278 L 803.53125 278 C 804.53125 278 805.53125 279 805.53125 280 L 805.53125 352 C 805.53125 353 806.53125 354 807.53125 354 L 902.59375 354 "/><path d="M 795.53125 278 L 803.53125 278 C 804.53125 278 805.53125 279 805.53125 280 L 805.53125 352 C 805.53125 353 806.53125 354 807.53125 354 L 902.59375 354 " class="clickable"/></g><circle r="3" id="sprotty_ArchitectureBlockImpl$prim_esc_sender/InstantiationBlockImpl$u_prim_buf_p/BPortImpl$out_o_to_ArchitectureBlockImpl$prim_esc_sender/BPortImpl$esc_tx_o/junction0" transform="translate(805.53125, 354)" class="sprotty-junction thick" style="fill:rgb(112, 112, 112);stroke:none;"/></g><g id="sprotty_ArchitectureBlockImpl$prim_esc_sender/InstantiationBlockImpl$u_prim_buf_n/BPortImpl$out_o_to_ArchitectureBlockImpl$prim_esc_sender/BPortImpl$esc_tx_o" class="sprotty-edge thick edge" style="fill:none;stroke:rgb(112, 112, 112);stroke-linejoin:round;stroke-width:3px;"><g><path d="M 795.5078125 354 L 902.59375 354 "/><path d="M 795.5078125 354 L 902.59375 354 " class="clickable"/></g></g><g id="sprotty_ArchitectureBlockImpl$prim_esc_sender/BPortImpl$clk_i_to_ArchitectureBlockImpl$prim_esc_sender/InstantiationBlockImpl$i_decode_resp/BPortImpl$clk_i" class="sprotty-edge edge" style="fill:none;stroke:rgb(112, 112, 112);stroke-linejoin:round;"><g><path d="M 0 279 L 89.1875 279 C 90.1875 279 91.1875 278 91.1875 277 L 91.1875 129.66666666666669 C 91.1875 128.66666666666669 92.1875 127.66666666666669 93.1875 127.66666666666669 L 158.90625 127.66666666666669 C 159.90625 127.66666666666669 160.90625 126.66666666666669 160.90625 125.66666666666669 L 160.90625 75 C 160.90625 74 161.90625 73 162.90625 73 L 180.90625 73 "/><path d="M 0 279 L 89.1875 279 C 90.1875 279 91.1875 278 91.1875 277 L 91.1875 129.66666666666669 C 91.1875 128.66666666666669 92.1875 127.66666666666669 93.1875 127.66666666666669 L 158.90625 127.66666666666669 C 159.90625 127.66666666666669 160.90625 126.66666666666669 160.90625 125.66666666666669 L 160.90625 75 C 160.90625 74 161.90625 73 162.90625 73 L 180.90625 73 " class="clickable"/></g><circle r="2" id="sprotty_ArchitectureBlockImpl$prim_esc_sender/BPortImpl$clk_i_to_ArchitectureBlockImpl$prim_esc_sender/InstantiationBlockImpl$i_decode_resp/BPortImpl$clk_i/junction0" transform="translate(91.1875, 279)" class="sprotty-junction junction" style="fill:rgb(112, 112, 112);stroke:none;"/></g><g id="sprotty_ArchitectureBlockImpl$prim_esc_sender/BPortImpl$rst_ni_to_ArchitectureBlockImpl$prim_esc_sender/InstantiationBlockImpl$i_decode_resp/BPortImpl$rst_ni" class="sprotty-edge edge" style="fill:none;stroke:rgb(112, 112, 112);stroke-linejoin:round;"><g><path d="M 0 234 L 99.1875 234 C 100.1875 234 101.1875 233 101.1875 232 L 101.1875 139.66666666666669 C 101.1875 138.66666666666669 102.1875 137.66666666666669 103.1875 137.66666666666669 L 168.90625 137.66666666666669 C 169.90625 137.66666666666669 170.90625 136.66666666666669 170.90625 135.66666666666669 L 170.90625 112.33333333333337 C 170.90625 111.33333333333337 171.90625 110.33333333333337 172.90625 110.33333333333337 L 180.90625 110.33333333333334 "/><path d="M 0 234 L 99.1875 234 C 100.1875 234 101.1875 233 101.1875 232 L 101.1875 139.66666666666669 C 101.1875 138.66666666666669 102.1875 137.66666666666669 103.1875 137.66666666666669 L 168.90625 137.66666666666669 C 169.90625 137.66666666666669 170.90625 136.66666666666669 170.90625 135.66666666666669 L 170.90625 112.33333333333337 C 170.90625 111.33333333333337 171.90625 110.33333333333337 172.90625 110.33333333333337 L 180.90625 110.33333333333334 " class="clickable"/></g><circle r="2" id="sprotty_ArchitectureBlockImpl$prim_esc_sender/BPortImpl$rst_ni_to_ArchitectureBlockImpl$prim_esc_sender/InstantiationBlockImpl$i_decode_resp/BPortImpl$rst_ni/junction0" transform="translate(101.1875, 234)" class="sprotty-junction junction" style="fill:rgb(112, 112, 112);stroke:none;"/></g><g id="sprotty_ArchitectureBlockImpl$prim_esc_sender/BPortImpl$esc_rx_i_to_ArchitectureBlockImpl$prim_esc_sender/InstantiationBlockImpl$i_decode_resp/BPortImpl$diff_pi" class="sprotty-edge thick edge" style="fill:none;stroke:rgb(112, 112, 112);stroke-linejoin:round;stroke-width:3px;"><g><path d="M 0 147.66666666666669 L 180.90625 147.66666666666669 "/><path d="M 0 147.66666666666669 L 180.90625 147.66666666666669 " class="clickable"/></g></g><g id="sprotty_ArchitectureBlockImpl$prim_esc_sender/BPortImpl$esc_rx_i_to_ArchitectureBlockImpl$prim_esc_sender/InstantiationBlockImpl$i_decode_resp/BPortImpl$diff_ni" class="sprotty-edge thick edge" style="fill:none;stroke:rgb(112, 112, 112);stroke-linejoin:round;stroke-width:3px;"><g><path d="M 0 147.66666666666669 L 158.90625 147.66666666666669 C 159.90625 147.66666666666669 160.90625 148.66666666666669 160.90625 149.66666666666669 L 160.90625 183.00000000000003 C 160.90625 184.00000000000003 161.90625 185.00000000000003 162.90625 185.00000000000003 L 180.90625 185.00000000000003 "/><path d="M 0 147.66666666666669 L 158.90625 147.66666666666669 C 159.90625 147.66666666666669 160.90625 148.66666666666669 160.90625 149.66666666666669 L 160.90625 183.00000000000003 C 160.90625 184.00000000000003 161.90625 185.00000000000003 162.90625 185.00000000000003 L 180.90625 185.00000000000003 " class="clickable"/></g><circle r="3" id="sprotty_ArchitectureBlockImpl$prim_esc_sender/BPortImpl$esc_rx_i_to_ArchitectureBlockImpl$prim_esc_sender/InstantiationBlockImpl$i_decode_resp/BPortImpl$diff_ni/junction0" transform="translate(160.90625, 147.66666666666669)" class="sprotty-junction thick" style="fill:rgb(112, 112, 112);stroke:none;"/></g><g id="sprotty_ArchitectureBlockImpl$prim_esc_sender/BPortImpl$ping_req_i_to_ArchitectureBlockImpl$prim_esc_sender/AssignmentBlockImpl$ping_req_d/GPortImpl$ping_req_iIN" class="sprotty-edge edge" style="fill:none;stroke:rgb(112, 112, 112);stroke-linejoin:round;"><g><path d="M 0 359 L 131.1875 359 "/><path d="M 0 359 L 131.1875 359 " class="clickable"/></g></g><g id="sprotty_ArchitectureBlockImpl$prim_esc_sender/BPortImpl$esc_req_i_to_ArchitectureBlockImpl$prim_esc_sender/AssignmentBlockImpl$esc_req_d/GPortImpl$esc_req_iIN" class="sprotty-edge edge" style="fill:none;stroke:rgb(112, 112, 112);stroke-linejoin:round;"><g><path d="M 0 393 L 119.1875 393 C 120.1875 393 121.1875 392 121.1875 391 L 121.1875 259 C 121.1875 258 122.1875 257 123.1875 257 L 131.1875 257 "/><path d="M 0 393 L 119.1875 393 C 120.1875 393 121.1875 392 121.1875 391 L 121.1875 259 C 121.1875 258 122.1875 257 123.1875 257 L 131.1875 257 " class="clickable"/></g><circle r="2" id="sprotty_ArchitectureBlockImpl$prim_esc_sender/BPortImpl$esc_req_i_to_ArchitectureBlockImpl$prim_esc_sender/AssignmentBlockImpl$esc_req_d/GPortImpl$esc_req_iIN/junction0" transform="translate(121.1875, 393)" class="sprotty-junction junction" style="fill:rgb(112, 112, 112);stroke:none;"/><circle r="2" id="sprotty_ArchitectureBlockImpl$prim_esc_sender/BPortImpl$esc_req_i_to_ArchitectureBlockImpl$prim_esc_sender/AssignmentBlockImpl$esc_req_d/GPortImpl$esc_req_iIN/junction1" transform="translate(121.1875, 257)" class="sprotty-junction junction" style="fill:rgb(112, 112, 112);stroke:none;"/></g><g id="sprotty_ArchitectureBlockImpl$prim_esc_sender/BPortImpl$esc_req_i_to_ArchitectureBlockImpl$prim_esc_sender/AssignmentBlockImpl$esc_p/GPortImpl$esc_req_iIN" class="sprotty-edge edge" style="fill:none;stroke:rgb(112, 112, 112);stroke-linejoin:round;"><g><path d="M 0 393 L 463.4375 393 C 464.4375 393 465.4375 392 465.4375 391 L 465.4375 371 C 465.4375 370 466.4375 369 467.4375 369 L 504.24375 369 "/><path d="M 0 393 L 463.4375 393 C 464.4375 393 465.4375 392 465.4375 391 L 465.4375 371 C 465.4375 370 466.4375 369 467.4375 369 L 504.24375 369 " class="clickable"/></g></g><g id="sprotty_ArchitectureBlockImpl$prim_esc_sender/BPortImpl$esc_req_i_to_ArchitectureBlockImpl$prim_esc_sender/AlwaysBlockImpl$p_fsm/GPortImpl$esc_req_iIN" class="sprotty-edge edge" style="fill:none;stroke:rgb(112, 112, 112);stroke-linejoin:round;"><g><path d="M 0 393 L 119.1875 393 C 120.1875 393 121.1875 392 121.1875 391 L 121.1875 226 C 121.1875 225 122.1875 224 123.1875 224 L 495.4375 224 "/><path d="M 0 393 L 119.1875 393 C 120.1875 393 121.1875 392 121.1875 391 L 121.1875 226 C 121.1875 225 122.1875 224 123.1875 224 L 495.4375 224 " class="clickable"/></g></g><g id="sprotty_ArchitectureBlockImpl$prim_esc_sender/BPortImpl$ping_req_i_to_ArchitectureBlockImpl$prim_esc_sender/AlwaysBlockImpl$p_fsm/GPortImpl$ping_req_iIN" class="sprotty-edge edge" style="fill:none;stroke:rgb(112, 112, 112);stroke-linejoin:round;"><g><path d="M 0 359 L 109.1875 359 C 110.1875 359 111.1875 358 111.1875 357 L 111.1875 216 C 111.1875 215 112.1875 214 113.1875 214 L 495.4375 214 "/><path d="M 0 359 L 109.1875 359 C 110.1875 359 111.1875 358 111.1875 357 L 111.1875 216 C 111.1875 215 112.1875 214 113.1875 214 L 495.4375 214 " class="clickable"/></g><circle r="2" id="sprotty_ArchitectureBlockImpl$prim_esc_sender/BPortImpl$ping_req_i_to_ArchitectureBlockImpl$prim_esc_sender/AlwaysBlockImpl$p_fsm/GPortImpl$ping_req_iIN/junction0" transform="translate(111.1875, 359)" class="sprotty-junction junction" style="fill:rgb(112, 112, 112);stroke:none;"/></g><g id="sprotty_ArchitectureBlockImpl$prim_esc_sender/BPortImpl$clk_i_to_ArchitectureBlockImpl$prim_esc_sender/AlwaysBlockImpl$p_regs/GPortImpl$clk_iIN" class="sprotty-edge edge" style="fill:none;stroke:rgb(112, 112, 112);stroke-linejoin:round;"><g><path d="M 0 279 L 298.51909722222223 279 "/><path d="M 0 279 L 298.51909722222223 279 " class="clickable"/></g></g><g id="sprotty_ArchitectureBlockImpl$prim_esc_sender/BPortImpl$rst_ni_to_ArchitectureBlockImpl$prim_esc_sender/AlwaysBlockImpl$p_regs/GPortImpl$rst_niIN" class="sprotty-edge edge" style="fill:none;stroke:rgb(112, 112, 112);stroke-linejoin:round;"><g><path d="M 0 234 L 168.90625 234 C 169.90625 234 170.90625 235 170.90625 236 L 170.90625 257 C 170.90625 258 171.90625 259 172.90625 259 L 298.51909722222223 259 "/><path d="M 0 234 L 168.90625 234 C 169.90625 234 170.90625 235 170.90625 236 L 170.90625 257 C 170.90625 258 171.90625 259 172.90625 259 L 298.51909722222223 259 " class="clickable"/></g></g><g id="sprotty_ArchitectureBlockImpl$prim_esc_sender/InstantiationBlockImpl$i_decode_resp/BPortImpl$level_o_to_ArchitectureBlockImpl$prim_esc_sender/AlwaysBlockImpl$p_fsm/GPortImpl$respIN" class="sprotty-edge edge" style="fill:none;stroke:rgb(112, 112, 112);stroke-linejoin:round;"><g><path d="M 455.4375 73 L 473.4375 73 C 474.4375 73 475.4375 74 475.4375 75 L 475.4375 192 C 475.4375 193 476.4375 194 477.4375 194 L 495.4375 194 "/><path d="M 455.4375 73 L 473.4375 73 C 474.4375 73 475.4375 74 475.4375 75 L 475.4375 192 C 475.4375 193 476.4375 194 477.4375 194 L 495.4375 194 " class="clickable"/></g></g><g id="sprotty_ArchitectureBlockImpl$prim_esc_sender/InstantiationBlockImpl$i_decode_resp/BPortImpl$sigint_o_to_ArchitectureBlockImpl$prim_esc_sender/AlwaysBlockImpl$p_fsm/GPortImpl$sigint_detectedIN" class="sprotty-edge edge" style="fill:none;stroke:rgb(112, 112, 112);stroke-linejoin:round;"><g><path d="M 455.4375 185 L 463.4375 185 C 464.4375 185 465.4375 186 465.4375 187 L 465.4375 202 C 465.4375 203 466.4375 204 467.4375 204 L 495.4375 204 "/><path d="M 455.4375 185 L 463.4375 185 C 464.4375 185 465.4375 186 465.4375 187 L 465.4375 202 C 465.4375 203 466.4375 204 467.4375 204 L 495.4375 204 " class="clickable"/></g></g><g id="sprotty_ArchitectureBlockImpl$prim_esc_sender/AssignmentBlockImpl$ping_req_d/GPortImpl$ping_req_dOUT_to_ArchitectureBlockImpl$prim_esc_sender/AssignmentBlockImpl$esc_p/GPortImpl$ping_req_dIN" class="sprotty-edge edge" style="fill:none;stroke:rgb(112, 112, 112);stroke-linejoin:round;"><g><path d="M 150.90625 359 L 504.24375 359 "/><path d="M 150.90625 359 L 504.24375 359 " class="clickable"/></g></g><g id="sprotty_ArchitectureBlockImpl$prim_esc_sender/AssignmentBlockImpl$ping_req_d/GPortImpl$ping_req_dOUT_to_ArchitectureBlockImpl$prim_esc_sender/AlwaysBlockImpl$p_regs/GPortImpl$ping_req_dIN" class="sprotty-edge edge" style="fill:none;stroke:rgb(112, 112, 112);stroke-linejoin:round;"><g><path d="M 150.90625 359 L 158.90625 359 C 159.90625 359 160.90625 358 160.90625 357 L 160.90625 291 C 160.90625 290 161.90625 289 162.90625 289 L 298.51909722222223 289 "/><path d="M 150.90625 359 L 158.90625 359 C 159.90625 359 160.90625 358 160.90625 357 L 160.90625 291 C 160.90625 290 161.90625 289 162.90625 289 L 298.51909722222223 289 " class="clickable"/></g><circle r="2" id="sprotty_ArchitectureBlockImpl$prim_esc_sender/AssignmentBlockImpl$ping_req_d/GPortImpl$ping_req_dOUT_to_ArchitectureBlockImpl$prim_esc_sender/AlwaysBlockImpl$p_regs/GPortImpl$ping_req_dIN/junction0" transform="translate(160.90625, 359)" class="sprotty-junction junction" style="fill:rgb(112, 112, 112);stroke:none;"/></g><g id="sprotty_ArchitectureBlockImpl$prim_esc_sender/AlwaysBlockImpl$p_regs/GPortImpl$ping_req_qOUT_to_ArchitectureBlockImpl$prim_esc_sender/AssignmentBlockImpl$esc_p/GPortImpl$ping_req_qIN" class="sprotty-edge edge" style="fill:none;stroke:rgb(112, 112, 112);stroke-linejoin:round;"><g><path d="M 361.34722222222223 297 L 463.4375 297 C 464.4375 297 465.4375 298 465.4375 299 L 465.4375 347 C 465.4375 348 466.4375 349 467.4375 349 L 504.24375 349 "/><path d="M 361.34722222222223 297 L 463.4375 297 C 464.4375 297 465.4375 298 465.4375 299 L 465.4375 347 C 465.4375 348 466.4375 349 467.4375 349 L 504.24375 349 " class="clickable"/></g></g><g id="sprotty_ArchitectureBlockImpl$prim_esc_sender/AssignmentBlockImpl$esc_req_d/GPortImpl$esc_req_dOUT_to_ArchitectureBlockImpl$prim_esc_sender/AlwaysBlockImpl$p_regs/GPortImpl$esc_req_dIN" class="sprotty-edge edge" style="fill:none;stroke:rgb(112, 112, 112);stroke-linejoin:round;"><g><path d="M 150.90625 257 L 158.90625 257 C 159.90625 257 160.90625 258 160.90625 259 L 160.90625 267 C 160.90625 268 161.90625 269 162.90625 269 L 298.51909722222223 269 "/><path d="M 150.90625 257 L 158.90625 257 C 159.90625 257 160.90625 258 160.90625 259 L 160.90625 267 C 160.90625 268 161.90625 269 162.90625 269 L 298.51909722222223 269 " class="clickable"/></g></g><g id="sprotty_ArchitectureBlockImpl$prim_esc_sender/AlwaysBlockImpl$p_regs/GPortImpl$esc_req_qOUT_to_ArchitectureBlockImpl$prim_esc_sender/AssignmentBlockImpl$esc_p/GPortImpl$esc_req_qIN" class="sprotty-edge edge" style="fill:none;stroke:rgb(112, 112, 112);stroke-linejoin:round;"><g><path d="M 361.34722222222223 285 L 483.4375 285 C 484.4375 285 485.4375 286 485.4375 287 L 485.4375 337 C 485.4375 338 486.4375 339 487.4375 339 L 504.24375 339 "/><path d="M 361.34722222222223 285 L 483.4375 285 C 484.4375 285 485.4375 286 485.4375 287 L 485.4375 337 C 485.4375 338 486.4375 339 487.4375 339 L 504.24375 339 " class="clickable"/></g><circle r="2" id="sprotty_ArchitectureBlockImpl$prim_esc_sender/AlwaysBlockImpl$p_regs/GPortImpl$esc_req_qOUT_to_ArchitectureBlockImpl$prim_esc_sender/AssignmentBlockImpl$esc_p/GPortImpl$esc_req_qIN/junction0" transform="translate(485.4375, 285)" class="sprotty-junction junction" style="fill:rgb(112, 112, 112);stroke:none;"/></g><g id="sprotty_ArchitectureBlockImpl$prim_esc_sender/AlwaysBlockImpl$p_regs/GPortImpl$esc_req_qOUT_to_ArchitectureBlockImpl$prim_esc_sender/AlwaysBlockImpl$p_fsm/GPortImpl$esc_req_qIN" class="sprotty-edge edge" style="fill:none;stroke:rgb(112, 112, 112);stroke-linejoin:round;"><g><path d="M 361.34722222222223 285 L 483.4375 285 C 484.4375 285 485.4375 284 485.4375 283 L 485.4375 256 C 485.4375 255 486.4375 254 487.4375 254 L 495.4375 254 "/><path d="M 361.34722222222223 285 L 483.4375 285 C 484.4375 285 485.4375 284 485.4375 283 L 485.4375 256 C 485.4375 255 486.4375 254 487.4375 254 L 495.4375 254 " class="clickable"/></g></g><g id="sprotty_ArchitectureBlockImpl$prim_esc_sender/AlwaysBlockImpl$p_regs/GPortImpl$esc_req_q1OUT_to_ArchitectureBlockImpl$prim_esc_sender/AlwaysBlockImpl$p_fsm/GPortImpl$esc_req_q1IN" class="sprotty-edge edge" style="fill:none;stroke:rgb(112, 112, 112);stroke-linejoin:round;"><g><path d="M 361.34722222222223 273 L 473.4375 273 C 474.4375 273 475.4375 272 475.4375 271 L 475.4375 246 C 475.4375 245 476.4375 244 477.4375 244 L 495.4375 244 "/><path d="M 361.34722222222223 273 L 473.4375 273 C 474.4375 273 475.4375 272 475.4375 271 L 475.4375 246 C 475.4375 245 476.4375 244 477.4375 244 L 495.4375 244 " class="clickable"/></g></g><g id="sprotty_ArchitectureBlockImpl$prim_esc_sender/AssignmentBlockImpl$esc_p/GPortImpl$ping_req_qOUT_to_ArchitectureBlockImpl$prim_esc_sender/InstantiationBlockImpl$u_prim_buf_p/BPortImpl$in_i" class="sprotty-edge edge" style="fill:none;stroke:rgb(112, 112, 112);stroke-linejoin:round;"><g><path d="M 523.9625 354 L 577.1875 354 C 578.1875 354 579.1875 353 579.1875 352 L 579.1875 280 C 579.1875 279 580.1875 278 581.1875 278 L 589.1875 278 "/><path d="M 523.9625 354 L 577.1875 354 C 578.1875 354 579.1875 353 579.1875 352 L 579.1875 280 C 579.1875 279 580.1875 278 581.1875 278 L 589.1875 278 " class="clickable"/></g><circle r="2" id="sprotty_ArchitectureBlockImpl$prim_esc_sender/AssignmentBlockImpl$esc_p/GPortImpl$ping_req_qOUT_to_ArchitectureBlockImpl$prim_esc_sender/InstantiationBlockImpl$u_prim_buf_p/BPortImpl$in_i/junction0" transform="translate(579.1875, 354)" class="sprotty-junction junction" style="fill:rgb(112, 112, 112);stroke:none;"/></g><g id="sprotty_ArchitectureBlockImpl$prim_esc_sender/AssignmentBlockImpl$esc_p/GPortImpl$ping_req_qOUT_to_ArchitectureBlockImpl$prim_esc_sender/InstantiationBlockImpl$u_prim_buf_n/BPortImpl$in_i" class="sprotty-edge edge" style="fill:none;stroke:rgb(112, 112, 112);stroke-linejoin:round;"><g><path d="M 523.9625 354 L 589.2109375 354 "/><path d="M 523.9625 354 L 589.2109375 354 " class="clickable"/></g></g><g id="sprotty_ArchitectureBlockImpl$prim_esc_sender/AlwaysBlockImpl$p_fsm/GPortImpl$state_dOUT_to_ArchitectureBlockImpl$prim_esc_sender/AlwaysBlockImpl$p_regs/GPortImpl$state_dIN" class="sprotty-edge thick edge" style="fill:none;stroke:rgb(112, 112, 112);stroke-linejoin:round;stroke-width:3px;"><g><path d="M 559.1875 244 L 567.1875 244 C 568.1875 244 569.1875 245 569.1875 246 L 569.1875 317 C 569.1875 318 568.1875 319 567.1875 319 L 172.90625 319 C 171.90625 319 170.90625 318 170.90625 317 L 170.90625 301 C 170.90625 300 171.90625 299 172.90625 299 L 298.51909722222223 299 "/><path d="M 559.1875 244 L 567.1875 244 C 568.1875 244 569.1875 245 569.1875 246 L 569.1875 317 C 569.1875 318 568.1875 319 567.1875 319 L 172.90625 319 C 171.90625 319 170.90625 318 170.90625 317 L 170.90625 301 C 170.90625 300 171.90625 299 172.90625 299 L 298.51909722222223 299 " class="clickable"/></g></g><g id="sprotty_ArchitectureBlockImpl$prim_esc_sender/AlwaysBlockImpl$p_regs/GPortImpl$state_qOUT_to_ArchitectureBlockImpl$prim_esc_sender/AlwaysBlockImpl$p_fsm/GPortImpl$state_qIN" class="sprotty-edge thick edge" style="fill:none;stroke:rgb(112, 112, 112);stroke-linejoin:round;stroke-width:3px;"><g><path d="M 361.34722222222223 261 L 463.4375 261 C 464.4375 261 465.4375 260 465.4375 259 L 465.4375 236 C 465.4375 235 466.4375 234 467.4375 234 L 495.4375 234 "/><path d="M 361.34722222222223 261 L 463.4375 261 C 464.4375 261 465.4375 260 465.4375 259 L 465.4375 236 C 465.4375 235 466.4375 234 467.4375 234 L 495.4375 234 " class="clickable"/></g></g><g id="sprotty_ArchitectureBlockImpl$prim_esc_sender/AlwaysBlockImpl$p_regs" transform="translate(298.51909722222223, 249)" class="statement"><rect x="0" y="0" rx="10" ry="5" width="62.828125" height="60" class="sprotty-node" style="fill:rgb(245, 245, 245);stroke:rgb(112, 112, 112);"/><text class="clickable sprotty-label statementtext" id="sprotty_ArchitectureBlockImpl$prim_esc_sender/AlwaysBlockImpl$p_regs/labeltext" transform="translate(5, 12) translate(26.375, 19)" style="cursor:default;font-weight:700;perspective-origin:0.03125px 0px;fill:rgb(112, 112, 112);text-anchor:middle;">p_regs</text><text class="clickable sprotty-label statementtype" id="sprotty_ArchitectureBlockImpl$prim_esc_sender/AlwaysBlockImpl$p_regs/labeltype" transform="translate(11.96875, 36) translate(18.828125, 9)" style="cursor:default;font-size:8px;font-weight:700;perspective-origin:0.609375px 0px;fill:rgb(112, 112, 112);text-anchor:middle;">always_ff</text><g id="sprotty_ArchitectureBlockImpl$prim_esc_sender/AlwaysBlockImpl$p_regs/GPortImpl$ping_req_dIN" transform="translate(0, 40)" class="sprotty-hidden hidden" style="display:block;height:0px;width:0px;"/><g id="sprotty_ArchitectureBlockImpl$prim_esc_sender/AlwaysBlockImpl$p_regs/GPortImpl$esc_req_dIN" transform="translate(0, 20)" class="sprotty-hidden hidden" style="display:block;height:0px;width:0px;"/><g id="sprotty_ArchitectureBlockImpl$prim_esc_sender/AlwaysBlockImpl$p_regs/GPortImpl$state_dIN" transform="translate(0, 50)" class="sprotty-hidden hidden" style="display:block;height:0px;width:0px;"/><g id="sprotty_ArchitectureBlockImpl$prim_esc_sender/AlwaysBlockImpl$p_regs/GPortImpl$rst_niIN" transform="translate(0, 10)" class="sprotty-hidden hidden" style="display:block;height:0px;width:0px;"/><g id="sprotty_ArchitectureBlockImpl$prim_esc_sender/AlwaysBlockImpl$p_regs/GPortImpl$clk_iIN" transform="translate(0, 30)" class="sprotty-hidden hidden" style="display:block;height:0px;width:0px;"/><g id="sprotty_ArchitectureBlockImpl$prim_esc_sender/AlwaysBlockImpl$p_regs/GPortImpl$state_qOUT" transform="translate(62.828125, 12)" class="sprotty-hidden hidden" style="display:block;height:0px;width:0px;"/><g id="sprotty_ArchitectureBlockImpl$prim_esc_sender/AlwaysBlockImpl$p_regs/GPortImpl$esc_req_qOUT" transform="translate(62.828125, 36)" class="sprotty-hidden hidden" style="display:block;height:0px;width:0px;"/><g id="sprotty_ArchitectureBlockImpl$prim_esc_sender/AlwaysBlockImpl$p_regs/GPortImpl$esc_req_q1OUT" transform="translate(62.828125, 24)" class="sprotty-hidden hidden" style="display:block;height:0px;width:0px;"/><g id="sprotty_ArchitectureBlockImpl$prim_esc_sender/AlwaysBlockImpl$p_regs/GPortImpl$ping_req_qOUT" transform="translate(62.828125, 48)" class="sprotty-hidden hidden" style="display:block;height:0px;width:0px;"/></g><g id="sprotty_ArchitectureBlockImpl$prim_esc_sender/AlwaysBlockImpl$p_fsm" transform="translate(495.4375, 184)" class="statement"><rect x="0" y="0" rx="10" ry="5" width="63.75" height="80" class="sprotty-node" style="fill:rgb(245, 245, 245);stroke:rgb(112, 112, 112);"/><text class="clickable sprotty-label statementtext" id="sprotty_ArchitectureBlockImpl$prim_esc_sender/AlwaysBlockImpl$p_fsm/labeltext" transform="translate(7.59375, 22) translate(24.28125, 19)" style="cursor:default;font-weight:700;perspective-origin:0px 0px;fill:rgb(112, 112, 112);text-anchor:middle;">p_fsm</text><text class="clickable sprotty-label statementtype" id="sprotty_ArchitectureBlockImpl$prim_esc_sender/AlwaysBlockImpl$p_fsm/labeltype" transform="translate(5, 46) translate(26.875, 9)" style="cursor:default;font-size:8px;font-weight:700;perspective-origin:0px 0px;fill:rgb(112, 112, 112);text-anchor:middle;">always_comb</text><g id="sprotty_ArchitectureBlockImpl$prim_esc_sender/AlwaysBlockImpl$p_fsm/GPortImpl$esc_req_q1IN" transform="translate(0, 60)" class="sprotty-hidden hidden" style="display:block;height:0px;width:0px;"/><g id="sprotty_ArchitectureBlockImpl$prim_esc_sender/AlwaysBlockImpl$p_fsm/GPortImpl$esc_req_qIN" transform="translate(0, 70)" class="sprotty-hidden hidden" style="display:block;height:0px;width:0px;"/><g id="sprotty_ArchitectureBlockImpl$prim_esc_sender/AlwaysBlockImpl$p_fsm/GPortImpl$respIN" transform="translate(0, 10)" class="sprotty-hidden hidden" style="display:block;height:0px;width:0px;"/><g id="sprotty_ArchitectureBlockImpl$prim_esc_sender/AlwaysBlockImpl$p_fsm/GPortImpl$ping_req_iIN" transform="translate(0, 30)" class="sprotty-hidden hidden" style="display:block;height:0px;width:0px;"/><g id="sprotty_ArchitectureBlockImpl$prim_esc_sender/AlwaysBlockImpl$p_fsm/GPortImpl$esc_req_iIN" transform="translate(0, 40)" class="sprotty-hidden hidden" style="display:block;height:0px;width:0px;"/><g id="sprotty_ArchitectureBlockImpl$prim_esc_sender/AlwaysBlockImpl$p_fsm/GPortImpl$sigint_detectedIN" transform="translate(0, 20)" class="sprotty-hidden hidden" style="display:block;height:0px;width:0px;"/><g id="sprotty_ArchitectureBlockImpl$prim_esc_sender/AlwaysBlockImpl$p_fsm/GPortImpl$state_qIN" transform="translate(0, 50)" class="sprotty-hidden hidden" style="display:block;height:0px;width:0px;"/><g id="sprotty_ArchitectureBlockImpl$prim_esc_sender/AlwaysBlockImpl$p_fsm/GPortImpl$state_dOUT" transform="translate(63.75, 60)" class="sprotty-hidden hidden" style="display:block;height:0px;width:0px;"/><g id="sprotty_ArchitectureBlockImpl$prim_esc_sender/AlwaysBlockImpl$p_fsm/GPortImpl$ping_ok_oOUT" transform="translate(63.75, 20)" class="sprotty-hidden hidden" style="display:block;height:0px;width:0px;"/><g id="sprotty_ArchitectureBlockImpl$prim_esc_sender/AlwaysBlockImpl$p_fsm/GPortImpl$integ_fail_oOUT" transform="translate(63.75, 40)" class="sprotty-hidden hidden" style="display:block;height:0px;width:0px;"/></g><g id="sprotty_ArchitectureBlockImpl$prim_esc_sender/AssignmentBlockImpl$esc_p" transform="translate(504.24375, 329)" class="statement"><rect x="0" y="0" rx="10" ry="5" width="19.71875" height="50" class="sprotty-node" style="fill:rgb(245, 245, 245);stroke:rgb(112, 112, 112);"/><text class="clickable sprotty-label statementtype" id="sprotty_ArchitectureBlockImpl$prim_esc_sender/AssignmentBlockImpl$esc_p/labeltype" transform="translate(5, 19) translate(4.71875, 9)" style="cursor:default;font-size:8px;font-weight:700;perspective-origin:0.140625px 0px;fill:rgb(112, 112, 112);text-anchor:middle;">&lt;=</text><g id="sprotty_ArchitectureBlockImpl$prim_esc_sender/AssignmentBlockImpl$esc_p/GPortImpl$ping_req_qIN" transform="translate(0, 20)" class="sprotty-hidden hidden" style="display:block;height:0px;width:0px;"/><g id="sprotty_ArchitectureBlockImpl$prim_esc_sender/AssignmentBlockImpl$esc_p/GPortImpl$ping_req_dIN" transform="translate(0, 30)" class="sprotty-hidden hidden" style="display:block;height:0px;width:0px;"/><g id="sprotty_ArchitectureBlockImpl$prim_esc_sender/AssignmentBlockImpl$esc_p/GPortImpl$esc_req_qIN" transform="translate(0, 10)" class="sprotty-hidden hidden" style="display:block;height:0px;width:0px;"/><g id="sprotty_ArchitectureBlockImpl$prim_esc_sender/AssignmentBlockImpl$esc_p/GPortImpl$esc_req_iIN" transform="translate(0, 40)" class="sprotty-hidden hidden" style="display:block;height:0px;width:0px;"/><g id="sprotty_ArchitectureBlockImpl$prim_esc_sender/AssignmentBlockImpl$esc_p/GPortImpl$ping_req_qOUT" transform="translate(19.71875, 25)" class="sprotty-hidden hidden" style="display:block;height:0px;width:0px;"/></g><g id="sprotty_ArchitectureBlockImpl$prim_esc_sender/AssignmentBlockImpl$esc_req_d" transform="translate(131.1875, 246)" class="statement"><rect x="0" y="0" rx="10" ry="5" width="19.71875" height="22" class="sprotty-node" style="fill:rgb(245, 245, 245);stroke:rgb(112, 112, 112);"/><text class="clickable sprotty-label statementtype" id="sprotty_ArchitectureBlockImpl$prim_esc_sender/AssignmentBlockImpl$esc_req_d/labeltype" transform="translate(5, 5) translate(4.71875, 9)" style="cursor:default;font-size:8px;font-weight:700;perspective-origin:0.140625px 0px;fill:rgb(112, 112, 112);text-anchor:middle;">&lt;=</text><g id="sprotty_ArchitectureBlockImpl$prim_esc_sender/AssignmentBlockImpl$esc_req_d/GPortImpl$esc_req_iIN" transform="translate(0, 11)" class="sprotty-hidden hidden" style="display:block;height:0px;width:0px;"/><g id="sprotty_ArchitectureBlockImpl$prim_esc_sender/AssignmentBlockImpl$esc_req_d/GPortImpl$esc_req_dOUT" transform="translate(19.71875, 11)" class="sprotty-hidden hidden" style="display:block;height:0px;width:0px;"/></g><g id="sprotty_ArchitectureBlockImpl$prim_esc_sender/AssignmentBlockImpl$ping_req_d" transform="translate(131.1875, 348)" class="statement"><rect x="0" y="0" rx="10" ry="5" width="19.71875" height="22" class="sprotty-node" style="fill:rgb(245, 245, 245);stroke:rgb(112, 112, 112);"/><text class="clickable sprotty-label statementtype" id="sprotty_ArchitectureBlockImpl$prim_esc_sender/AssignmentBlockImpl$ping_req_d/labeltype" transform="translate(5, 5) translate(4.71875, 9)" style="cursor:default;font-size:8px;font-weight:700;perspective-origin:0.140625px 0px;fill:rgb(112, 112, 112);text-anchor:middle;">&lt;=</text><g id="sprotty_ArchitectureBlockImpl$prim_esc_sender/AssignmentBlockImpl$ping_req_d/GPortImpl$ping_req_iIN" transform="translate(0, 11)" class="sprotty-hidden hidden" style="display:block;height:0px;width:0px;"/><g id="sprotty_ArchitectureBlockImpl$prim_esc_sender/AssignmentBlockImpl$ping_req_d/GPortImpl$ping_req_dOUT" transform="translate(19.71875, 11)" class="sprotty-hidden hidden" style="display:block;height:0px;width:0px;"/></g><g id="sprotty_ArchitectureBlockImpl$prim_esc_sender/InstantiationBlockImpl$u_prim_buf_n" transform="translate(589.2109375, 316)" class="instantiation"><g class="sprotty-block" style="fill:rgb(255, 255, 255);stroke:rgb(48, 48, 48);stroke-dasharray:0px;"><rect x="0" y="0" rx="1" ry="1" width="206.296875" height="56"/><text x="103.1484375" y="12" class="sprotty-block-name" style="cursor:pointer;font-weight:700;perspective-origin:103.672px 0px;fill:rgb(48, 48, 48);stroke:rgba(0, 0, 0, 0);dominant-baseline:middle;text-anchor:middle;">u_prim_buf_n : prim_buf</text><line x1="0" y1="20" x2="206.296875" y2="20"/></g><g id="sprotty_ArchitectureBlockImpl$prim_esc_sender/InstantiationBlockImpl$u_prim_buf_n/BPortImpl$in_i" transform="translate(0, 38)" class="triangle"><path d="M 0,0 L 5,2.5 L 0,5 Z" transform="translate(-1.67, -2.5)" class="sprotty-port" style="fill:rgb(48, 48, 48);stroke:rgb(48, 48, 48);"/><text class="clickable sprotty-label port" id="sprotty_ArchitectureBlockImpl$prim_esc_sender/InstantiationBlockImpl$u_prim_buf_n/BPortImpl$in_i/label" transform="translate(6, -9) translate(10.328125, 14)" style="cursor:default;font-size:12px;perspective-origin:0px 0px;fill:rgb(48, 48, 48);text-anchor:middle;">in_i</text></g><g id="sprotty_ArchitectureBlockImpl$prim_esc_sender/InstantiationBlockImpl$u_prim_buf_n/BPortImpl$out_o" transform="translate(206.296875, 38)" class="triangle"><path d="M 0,0 L 5,2.5 L 0,5 Z" transform="translate(-1.67, -2.5)" class="sprotty-port" style="fill:rgb(48, 48, 48);stroke:rgb(48, 48, 48);"/><text class="clickable sprotty-label port" id="sprotty_ArchitectureBlockImpl$prim_esc_sender/InstantiationBlockImpl$u_prim_buf_n/BPortImpl$out_o/label" transform="translate(-39.0625, -9) translate(16.53125, 14)" style="cursor:default;font-size:12px;perspective-origin:0px 0px;fill:rgb(48, 48, 48);text-anchor:middle;">out_o</text></g></g><g id="sprotty_ArchitectureBlockImpl$prim_esc_sender/InstantiationBlockImpl$u_prim_buf_p" transform="translate(589.1875, 240)" class="instantiation"><g class="sprotty-block" style="fill:rgb(255, 255, 255);stroke:rgb(48, 48, 48);stroke-dasharray:0px;"><rect x="0" y="0" rx="1" ry="1" width="206.34375" height="56"/><text x="103.171875" y="12" class="sprotty-block-name" style="cursor:pointer;font-weight:700;perspective-origin:103.703px 0px;fill:rgb(48, 48, 48);stroke:rgba(0, 0, 0, 0);dominant-baseline:middle;text-anchor:middle;">u_prim_buf_p : prim_buf</text><line x1="0" y1="20" x2="206.34375" y2="20"/></g><g id="sprotty_ArchitectureBlockImpl$prim_esc_sender/InstantiationBlockImpl$u_prim_buf_p/BPortImpl$in_i" transform="translate(0, 38)" class="triangle"><path d="M 0,0 L 5,2.5 L 0,5 Z" transform="translate(-1.67, -2.5)" class="sprotty-port" style="fill:rgb(48, 48, 48);stroke:rgb(48, 48, 48);"/><text class="clickable sprotty-label port" id="sprotty_ArchitectureBlockImpl$prim_esc_sender/InstantiationBlockImpl$u_prim_buf_p/BPortImpl$in_i/label" transform="translate(6, -9) translate(10.328125, 14)" style="cursor:default;font-size:12px;perspective-origin:0px 0px;fill:rgb(48, 48, 48);text-anchor:middle;">in_i</text></g><g id="sprotty_ArchitectureBlockImpl$prim_esc_sender/InstantiationBlockImpl$u_prim_buf_p/BPortImpl$out_o" transform="translate(206.34375, 38)" class="triangle"><path d="M 0,0 L 5,2.5 L 0,5 Z" transform="translate(-1.67, -2.5)" class="sprotty-port" style="fill:rgb(48, 48, 48);stroke:rgb(48, 48, 48);"/><text class="clickable sprotty-label port" id="sprotty_ArchitectureBlockImpl$prim_esc_sender/InstantiationBlockImpl$u_prim_buf_p/BPortImpl$out_o/label" transform="translate(-39.0625, -9) translate(16.53125, 14)" style="cursor:default;font-size:12px;perspective-origin:0px 0px;fill:rgb(48, 48, 48);text-anchor:middle;">out_o</text></g></g><g id="sprotty_ArchitectureBlockImpl$prim_esc_sender/InstantiationBlockImpl$i_decode_resp" transform="translate(180.90625, 35)" class="instantiation"><g class="sprotty-block" style="fill:rgb(255, 255, 255);stroke:rgb(48, 48, 48);stroke-dasharray:0px;"><rect x="0" y="0" rx="1" ry="1" width="274.53125" height="168"/><text x="137.265625" y="12" class="sprotty-block-name" style="cursor:pointer;font-weight:700;perspective-origin:137.266px 0px;fill:rgb(48, 48, 48);stroke:rgba(0, 0, 0, 0);dominant-baseline:middle;text-anchor:middle;">i_decode_resp : prim_diff_decode</text><line x1="0" y1="20" x2="274.53125" y2="20"/></g><g id="sprotty_ArchitectureBlockImpl$prim_esc_sender/InstantiationBlockImpl$i_decode_resp/BPortImpl$diff_ni" transform="translate(0, 150.00000000000003)" class="triangle"><path d="M 0,0 L 5,2.5 L 0,5 Z" transform="translate(-1.67, -2.5)" class="sprotty-port" style="fill:rgb(48, 48, 48);stroke:rgb(48, 48, 48);"/><text class="clickable sprotty-label port" id="sprotty_ArchitectureBlockImpl$prim_esc_sender/InstantiationBlockImpl$i_decode_resp/BPortImpl$diff_ni/label" transform="translate(6, -9) translate(17.90625, 14)" style="cursor:default;font-size:12px;perspective-origin:0px 0px;fill:rgb(48, 48, 48);text-anchor:middle;">diff_ni</text></g><g id="sprotty_ArchitectureBlockImpl$prim_esc_sender/InstantiationBlockImpl$i_decode_resp/BPortImpl$diff_pi" transform="translate(0, 112.66666666666669)" class="triangle"><path d="M 0,0 L 5,2.5 L 0,5 Z" transform="translate(-1.67, -2.5)" class="sprotty-port" style="fill:rgb(48, 48, 48);stroke:rgb(48, 48, 48);"/><text class="clickable sprotty-label port" id="sprotty_ArchitectureBlockImpl$prim_esc_sender/InstantiationBlockImpl$i_decode_resp/BPortImpl$diff_pi/label" transform="translate(6, -9) translate(17.953125, 14)" style="cursor:default;font-size:12px;perspective-origin:0px 0px;fill:rgb(48, 48, 48);text-anchor:middle;">diff_pi</text></g><g id="sprotty_ArchitectureBlockImpl$prim_esc_sender/InstantiationBlockImpl$i_decode_resp/BPortImpl$rst_ni" transform="translate(0, 75.33333333333334)" class="triangle"><path d="M 0,0 L 5,2.5 L 0,5 Z" transform="translate(-1.67, -2.5)" class="sprotty-port" style="fill:rgb(48, 48, 48);stroke:rgb(48, 48, 48);"/><text class="clickable sprotty-label port" id="sprotty_ArchitectureBlockImpl$prim_esc_sender/InstantiationBlockImpl$i_decode_resp/BPortImpl$rst_ni/label" transform="translate(6, -9) translate(15.921875, 14)" style="cursor:default;font-size:12px;perspective-origin:0px 0px;fill:rgb(48, 48, 48);text-anchor:middle;">rst_ni</text></g><g id="sprotty_ArchitectureBlockImpl$prim_esc_sender/InstantiationBlockImpl$i_decode_resp/BPortImpl$clk_i" transform="translate(0, 38)" class="triangle"><path d="M 0,0 L 5,2.5 L 0,5 Z" transform="translate(-1.67, -2.5)" class="sprotty-port" style="fill:rgb(48, 48, 48);stroke:rgb(48, 48, 48);"/><text class="clickable sprotty-label port" id="sprotty_ArchitectureBlockImpl$prim_esc_sender/InstantiationBlockImpl$i_decode_resp/BPortImpl$clk_i/label" transform="translate(6, -9) translate(13.09375, 14)" style="cursor:default;font-size:12px;perspective-origin:0px 0px;fill:rgb(48, 48, 48);text-anchor:middle;">clk_i</text></g><g id="sprotty_ArchitectureBlockImpl$prim_esc_sender/InstantiationBlockImpl$i_decode_resp/BPortImpl$level_o" transform="translate(274.53125, 38)" class="triangle"><path d="M 0,0 L 5,2.5 L 0,5 Z" transform="translate(-1.67, -2.5)" class="sprotty-port" style="fill:rgb(48, 48, 48);stroke:rgb(48, 48, 48);"/><text class="clickable sprotty-label port" id="sprotty_ArchitectureBlockImpl$prim_esc_sender/InstantiationBlockImpl$i_decode_resp/BPortImpl$level_o/label" transform="translate(-46.40625, -9) translate(20.203125, 14)" style="cursor:default;font-size:12px;perspective-origin:0px 0px;fill:rgb(48, 48, 48);text-anchor:middle;">level_o</text></g><g id="sprotty_ArchitectureBlockImpl$prim_esc_sender/InstantiationBlockImpl$i_decode_resp/BPortImpl$rise_o" transform="translate(274.53125, 66)" class="triangle"><path d="M 0,0 L 5,2.5 L 0,5 Z" transform="translate(-1.67, -2.5)" class="sprotty-port" style="fill:rgb(48, 48, 48);stroke:rgb(48, 48, 48);"/><text class="clickable sprotty-label port" id="sprotty_ArchitectureBlockImpl$prim_esc_sender/InstantiationBlockImpl$i_decode_resp/BPortImpl$rise_o/label" transform="translate(-40.21875, -9) translate(17.109375, 14)" style="cursor:default;font-size:12px;perspective-origin:0px 0px;fill:rgb(48, 48, 48);text-anchor:middle;">rise_o</text></g><g id="sprotty_ArchitectureBlockImpl$prim_esc_sender/InstantiationBlockImpl$i_decode_resp/BPortImpl$fall_o" transform="translate(274.53125, 94)" class="triangle"><path d="M 0,0 L 5,2.5 L 0,5 Z" transform="translate(-1.67, -2.5)" class="sprotty-port" style="fill:rgb(48, 48, 48);stroke:rgb(48, 48, 48);"/><text class="clickable sprotty-label port" id="sprotty_ArchitectureBlockImpl$prim_esc_sender/InstantiationBlockImpl$i_decode_resp/BPortImpl$fall_o/label" transform="translate(-37.25, -9) translate(15.625, 14)" style="cursor:default;font-size:12px;perspective-origin:0px 0px;fill:rgb(48, 48, 48);text-anchor:middle;">fall_o</text></g><g id="sprotty_ArchitectureBlockImpl$prim_esc_sender/InstantiationBlockImpl$i_decode_resp/BPortImpl$event_o" transform="translate(274.53125, 122)" class="triangle"><path d="M 0,0 L 5,2.5 L 0,5 Z" transform="translate(-1.67, -2.5)" class="sprotty-port" style="fill:rgb(48, 48, 48);stroke:rgb(48, 48, 48);"/><text class="clickable sprotty-label port" id="sprotty_ArchitectureBlockImpl$prim_esc_sender/InstantiationBlockImpl$i_decode_resp/BPortImpl$event_o/label" transform="translate(-51.40625, -9) translate(22.703125, 14)" style="cursor:default;font-size:12px;perspective-origin:0px 0px;fill:rgb(48, 48, 48);text-anchor:middle;">event_o</text></g><g id="sprotty_ArchitectureBlockImpl$prim_esc_sender/InstantiationBlockImpl$i_decode_resp/BPortImpl$sigint_o" transform="translate(274.53125, 150)" class="triangle"><path d="M 0,0 L 5,2.5 L 0,5 Z" transform="translate(-1.67, -2.5)" class="sprotty-port" style="fill:rgb(48, 48, 48);stroke:rgb(48, 48, 48);"/><text class="clickable sprotty-label port" id="sprotty_ArchitectureBlockImpl$prim_esc_sender/InstantiationBlockImpl$i_decode_resp/BPortImpl$sigint_o/label" transform="translate(-50.8125, -9) translate(22.40625, 14)" style="cursor:default;font-size:12px;perspective-origin:0px 0px;fill:rgb(48, 48, 48);text-anchor:middle;">sigint_o</text></g></g><g id="sprotty_ArchitectureBlockImpl$prim_esc_sender/BPortImpl$esc_rx_i" transform="translate(0, 147.66666666666669)" class="triangle"><path d="M 0,0 L 5,2.5 L 0,5 Z" transform="translate(-1.67, -2.5)" class="sprotty-port" style="fill:rgb(48, 48, 48);stroke:rgb(48, 48, 48);"/><text class="clickable sprotty-label port" id="sprotty_ArchitectureBlockImpl$prim_esc_sender/BPortImpl$esc_rx_i/label" transform="translate(6, 6) translate(22.875, 14)" style="cursor:default;font-size:12px;perspective-origin:0px 0px;fill:rgb(48, 48, 48);text-anchor:middle;">esc_rx_i</text></g><g id="sprotty_ArchitectureBlockImpl$prim_esc_sender/BPortImpl$esc_req_i" transform="translate(0, 393)" class="triangle"><path d="M 0,0 L 5,2.5 L 0,5 Z" transform="translate(-1.67, -2.5)" class="sprotty-port" style="fill:rgb(48, 48, 48);stroke:rgb(48, 48, 48);"/><text class="clickable sprotty-label port" id="sprotty_ArchitectureBlockImpl$prim_esc_sender/BPortImpl$esc_req_i/label" transform="translate(6, 6) translate(26.859375, 14)" style="cursor:default;font-size:12px;perspective-origin:0px 0px;fill:rgb(48, 48, 48);text-anchor:middle;">esc_req_i</text></g><g id="sprotty_ArchitectureBlockImpl$prim_esc_sender/BPortImpl$ping_req_i" transform="translate(0, 359)" class="triangle"><path d="M 0,0 L 5,2.5 L 0,5 Z" transform="translate(-1.67, -2.5)" class="sprotty-port" style="fill:rgb(48, 48, 48);stroke:rgb(48, 48, 48);"/><text class="clickable sprotty-label port" id="sprotty_ArchitectureBlockImpl$prim_esc_sender/BPortImpl$ping_req_i/label" transform="translate(6, 6) translate(30.09375, 14)" style="cursor:default;font-size:12px;perspective-origin:0px 0px;fill:rgb(48, 48, 48);text-anchor:middle;">ping_req_i</text></g><g id="sprotty_ArchitectureBlockImpl$prim_esc_sender/BPortImpl$rst_ni" transform="translate(0, 234)" class="triangle"><path d="M 0,0 L 5,2.5 L 0,5 Z" transform="translate(-1.67, -2.5)" class="sprotty-port" style="fill:rgb(48, 48, 48);stroke:rgb(48, 48, 48);"/><text class="clickable sprotty-label port" id="sprotty_ArchitectureBlockImpl$prim_esc_sender/BPortImpl$rst_ni/label" transform="translate(6, 6) translate(15.921875, 14)" style="cursor:default;font-size:12px;perspective-origin:0px 0px;fill:rgb(48, 48, 48);text-anchor:middle;">rst_ni</text></g><g id="sprotty_ArchitectureBlockImpl$prim_esc_sender/BPortImpl$clk_i" transform="translate(0, 279)" class="triangle"><path d="M 0,0 L 5,2.5 L 0,5 Z" transform="translate(-1.67, -2.5)" class="sprotty-port" style="fill:rgb(48, 48, 48);stroke:rgb(48, 48, 48);"/><text class="clickable sprotty-label port" id="sprotty_ArchitectureBlockImpl$prim_esc_sender/BPortImpl$clk_i/label" transform="translate(6, 6) translate(13.09375, 14)" style="cursor:default;font-size:12px;perspective-origin:0px 0px;fill:rgb(48, 48, 48);text-anchor:middle;">clk_i</text></g><g id="sprotty_ArchitectureBlockImpl$prim_esc_sender/BPortImpl$ping_ok_o" transform="translate(902.59375, 190)" class="triangle"><path d="M 0,0 L 5,2.5 L 0,5 Z" transform="translate(-1.67, -2.5)" class="sprotty-port" style="fill:rgb(48, 48, 48);stroke:rgb(48, 48, 48);"/><text class="clickable sprotty-label port" id="sprotty_ArchitectureBlockImpl$prim_esc_sender/BPortImpl$ping_ok_o/label" transform="translate(-65.4375, 6) translate(29.71875, 14)" style="cursor:default;font-size:12px;perspective-origin:0px 0px;fill:rgb(48, 48, 48);text-anchor:middle;">ping_ok_o</text></g><g id="sprotty_ArchitectureBlockImpl$prim_esc_sender/BPortImpl$integ_fail_o" transform="translate(902.59375, 224)" class="triangle"><path d="M 0,0 L 5,2.5 L 0,5 Z" transform="translate(-1.67, -2.5)" class="sprotty-port" style="fill:rgb(48, 48, 48);stroke:rgb(48, 48, 48);"/><text class="clickable sprotty-label port" id="sprotty_ArchitectureBlockImpl$prim_esc_sender/BPortImpl$integ_fail_o/label" transform="translate(-72.0625, 6) translate(33.03125, 14)" style="cursor:default;font-size:12px;perspective-origin:0px 0px;fill:rgb(48, 48, 48);text-anchor:middle;">integ_fail_o</text></g><g id="sprotty_ArchitectureBlockImpl$prim_esc_sender/BPortImpl$esc_tx_o" transform="translate(902.59375, 354)" class="triangle"><path d="M 0,0 L 5,2.5 L 0,5 Z" transform="translate(-1.67, -2.5)" class="sprotty-port" style="fill:rgb(48, 48, 48);stroke:rgb(48, 48, 48);"/><text class="clickable sprotty-label port" id="sprotty_ArchitectureBlockImpl$prim_esc_sender/BPortImpl$esc_tx_o/label" transform="translate(-55.375, 6) translate(24.6875, 14)" style="cursor:default;font-size:12px;perspective-origin:0px 0px;fill:rgb(48, 48, 48);text-anchor:middle;">esc_tx_o</text></g></g></g></svg>