<svg xmlns="http://www.w3.org/2000/svg" id="sprotty_work.tlul_err_resp" class="sprotty-graph sprotty-block-diagram blockdiagram" style="font-family:&quot;Noto Sans&quot;, Helvetica, Arial, sans-serif;perspective-origin:0px 0px;transform-origin:0px 0px;" version="1.1" viewBox="7 7 357.40625 495" width="357.40625" height="495"><g transform="scale(1) translate(0,0)"><g id="sprotty_ArchitectureBlockImpl$tlul_err_resp" transform="translate(12, 12)" class="architecture"><g class="sprotty-block" style="fill:rgb(255, 255, 255);stroke:rgb(48, 48, 48);stroke-dasharray:0px;"><rect x="0" y="0" rx="1" ry="1" width="347.40625" height="485"/><text x="173.703125" y="12" class="sprotty-block-name" style="cursor:pointer;font-weight:700;perspective-origin:173.703px 0px;fill:rgb(48, 48, 48);stroke:rgba(0, 0, 0, 0);dominant-baseline:middle;text-anchor:middle;">tlul_err_resp</text><line x1="0" y1="20" x2="347.40625" y2="20"/></g><g id="sprotty_ArchitectureBlockImpl$tlul_err_resp/AssignmentBlockImpl$tl_h_o.a_ready/GPortImpl$tl_h_oOUT_to_ArchitectureBlockImpl$tlul_err_resp/BPortImpl$tl_h_o" class="sprotty-edge thick edge" style="fill:none;stroke:rgb(112, 112, 112);stroke-linejoin:round;stroke-width:3px;"><g><path d="M 270.46875 190 L 278.46875 190 C 279.46875 190 280.46875 191 280.46875 192 L 280.46875 239 C 280.46875 240 281.46875 241 282.46875 241 L 347.40625 241 "/><path d="M 270.46875 190 L 278.46875 190 C 279.46875 190 280.46875 191 280.46875 192 L 280.46875 239 C 280.46875 240 281.46875 241 282.46875 241 L 347.40625 241 " class="clickable"/></g><circle r="3" id="sprotty_ArchitectureBlockImpl$tlul_err_resp/AssignmentBlockImpl$tl_h_o.a_ready/GPortImpl$tl_h_oOUT_to_ArchitectureBlockImpl$tlul_err_resp/BPortImpl$tl_h_o/junction0" transform="translate(280.46875, 190)" class="sprotty-junction thick" style="fill:rgb(112, 112, 112);stroke:none;"/></g><g id="sprotty_ArchitectureBlockImpl$tlul_err_resp/AssignmentBlockImpl$tl_h_o.d_valid/GPortImpl$tl_h_oOUT_to_ArchitectureBlockImpl$tlul_err_resp/BPortImpl$tl_h_o" class="sprotty-edge thick edge" style="fill:none;stroke:rgb(112, 112, 112);stroke-linejoin:round;stroke-width:3px;"><g><path d="M 270.46875 455 L 278.46875 455 C 279.46875 455 280.46875 454 280.46875 453 L 280.46875 243 C 280.46875 242 281.46875 241 282.46875 241 L 347.40625 241 "/><path d="M 270.46875 455 L 278.46875 455 C 279.46875 455 280.46875 454 280.46875 453 L 280.46875 243 C 280.46875 242 281.46875 241 282.46875 241 L 347.40625 241 " class="clickable"/></g></g><g id="sprotty_ArchitectureBlockImpl$tlul_err_resp/AssignmentBlockImpl$tl_h_o.d_data/GPortImpl$tl_h_oOUT_to_ArchitectureBlockImpl$tlul_err_resp/BPortImpl$tl_h_o" class="sprotty-edge thick edge" style="fill:none;stroke:rgb(112, 112, 112);stroke-linejoin:round;stroke-width:3px;"><g><path d="M 270.46875 409 L 278.46875 409 C 279.46875 409 280.46875 408 280.46875 407 L 280.46875 243 C 280.46875 242 281.46875 241 282.46875 241 L 347.40625 241 "/><path d="M 270.46875 409 L 278.46875 409 C 279.46875 409 280.46875 408 280.46875 407 L 280.46875 243 C 280.46875 242 281.46875 241 282.46875 241 L 347.40625 241 " class="clickable"/></g><circle r="3" id="sprotty_ArchitectureBlockImpl$tlul_err_resp/AssignmentBlockImpl$tl_h_o.d_data/GPortImpl$tl_h_oOUT_to_ArchitectureBlockImpl$tlul_err_resp/BPortImpl$tl_h_o/junction0" transform="translate(280.46875, 409)" class="sprotty-junction thick" style="fill:rgb(112, 112, 112);stroke:none;"/></g><g id="sprotty_ArchitectureBlockImpl$tlul_err_resp/AssignmentBlockImpl$tl_h_o.d_source/GPortImpl$tl_h_oOUT_to_ArchitectureBlockImpl$tlul_err_resp/BPortImpl$tl_h_o" class="sprotty-edge thick edge" style="fill:none;stroke:rgb(112, 112, 112);stroke-linejoin:round;stroke-width:3px;"><g><path d="M 270.46875 139 L 278.46875 139 C 279.46875 139 280.46875 140 280.46875 141 L 280.46875 239 C 280.46875 240 281.46875 241 282.46875 241 L 347.40625 241 "/><path d="M 270.46875 139 L 278.46875 139 C 279.46875 139 280.46875 140 280.46875 141 L 280.46875 239 C 280.46875 240 281.46875 241 282.46875 241 L 347.40625 241 " class="clickable"/></g><circle r="3" id="sprotty_ArchitectureBlockImpl$tlul_err_resp/AssignmentBlockImpl$tl_h_o.d_source/GPortImpl$tl_h_oOUT_to_ArchitectureBlockImpl$tlul_err_resp/BPortImpl$tl_h_o/junction0" transform="translate(280.46875, 139)" class="sprotty-junction thick" style="fill:rgb(112, 112, 112);stroke:none;"/></g><g id="sprotty_ArchitectureBlockImpl$tlul_err_resp/AssignmentBlockImpl$tl_h_o.d_sink/GPortImpl$tl_h_oOUT_to_ArchitectureBlockImpl$tlul_err_resp/BPortImpl$tl_h_o" class="sprotty-edge thick edge" style="fill:none;stroke:rgb(112, 112, 112);stroke-linejoin:round;stroke-width:3px;"><g><path d="M 270.46875 283 L 278.46875 283 C 279.46875 283 280.46875 282 280.46875 281 L 280.46875 243 C 280.46875 242 281.46875 241 282.46875 241 L 347.40625 241 "/><path d="M 270.46875 283 L 278.46875 283 C 279.46875 283 280.46875 282 280.46875 281 L 280.46875 243 C 280.46875 242 281.46875 241 282.46875 241 L 347.40625 241 " class="clickable"/></g><circle r="3" id="sprotty_ArchitectureBlockImpl$tlul_err_resp/AssignmentBlockImpl$tl_h_o.d_sink/GPortImpl$tl_h_oOUT_to_ArchitectureBlockImpl$tlul_err_resp/BPortImpl$tl_h_o/junction0" transform="translate(280.46875, 283)" class="sprotty-junction thick" style="fill:rgb(112, 112, 112);stroke:none;"/></g><g id="sprotty_ArchitectureBlockImpl$tlul_err_resp/AssignmentBlockImpl$tl_h_o.d_param/GPortImpl$tl_h_oOUT_to_ArchitectureBlockImpl$tlul_err_resp/BPortImpl$tl_h_o" class="sprotty-edge thick edge" style="fill:none;stroke:rgb(112, 112, 112);stroke-linejoin:round;stroke-width:3px;"><g><path d="M 270.46875 325 L 278.46875 325 C 279.46875 325 280.46875 324 280.46875 323 L 280.46875 243 C 280.46875 242 281.46875 241 282.46875 241 L 347.40625 241 "/><path d="M 270.46875 325 L 278.46875 325 C 279.46875 325 280.46875 324 280.46875 323 L 280.46875 243 C 280.46875 242 281.46875 241 282.46875 241 L 347.40625 241 " class="clickable"/></g><circle r="3" id="sprotty_ArchitectureBlockImpl$tlul_err_resp/AssignmentBlockImpl$tl_h_o.d_param/GPortImpl$tl_h_oOUT_to_ArchitectureBlockImpl$tlul_err_resp/BPortImpl$tl_h_o/junction0" transform="translate(280.46875, 325)" class="sprotty-junction thick" style="fill:rgb(112, 112, 112);stroke:none;"/></g><g id="sprotty_ArchitectureBlockImpl$tlul_err_resp/AssignmentBlockImpl$tl_h_o.d_size/GPortImpl$tl_h_oOUT_to_ArchitectureBlockImpl$tlul_err_resp/BPortImpl$tl_h_o" class="sprotty-edge thick edge" style="fill:none;stroke:rgb(112, 112, 112);stroke-linejoin:round;stroke-width:3px;"><g><path d="M 270.46875 97 L 278.46875 97 C 279.46875 97 280.46875 98 280.46875 99 L 280.46875 239 C 280.46875 240 281.46875 241 282.46875 241 L 347.40625 241 "/><path d="M 270.46875 97 L 278.46875 97 C 279.46875 97 280.46875 98 280.46875 99 L 280.46875 239 C 280.46875 240 281.46875 241 282.46875 241 L 347.40625 241 " class="clickable"/></g><circle r="3" id="sprotty_ArchitectureBlockImpl$tlul_err_resp/AssignmentBlockImpl$tl_h_o.d_size/GPortImpl$tl_h_oOUT_to_ArchitectureBlockImpl$tlul_err_resp/BPortImpl$tl_h_o/junction0" transform="translate(280.46875, 97)" class="sprotty-junction thick" style="fill:rgb(112, 112, 112);stroke:none;"/></g><g id="sprotty_ArchitectureBlockImpl$tlul_err_resp/AssignmentBlockImpl$tl_h_o.d_opcode/GPortImpl$tl_h_oOUT_to_ArchitectureBlockImpl$tlul_err_resp/BPortImpl$tl_h_o" class="sprotty-edge thick edge" style="fill:none;stroke:rgb(112, 112, 112);stroke-linejoin:round;stroke-width:3px;"><g><path d="M 270.46875 55 L 278.46875 55 C 279.46875 55 280.46875 56 280.46875 57 L 280.46875 239 C 280.46875 240 281.46875 241 282.46875 241 L 347.40625 241 "/><path d="M 270.46875 55 L 278.46875 55 C 279.46875 55 280.46875 56 280.46875 57 L 280.46875 239 C 280.46875 240 281.46875 241 282.46875 241 L 347.40625 241 " class="clickable"/></g><circle r="3" id="sprotty_ArchitectureBlockImpl$tlul_err_resp/AssignmentBlockImpl$tl_h_o.d_opcode/GPortImpl$tl_h_oOUT_to_ArchitectureBlockImpl$tlul_err_resp/BPortImpl$tl_h_o/junction0" transform="translate(280.46875, 241)" class="sprotty-junction thick" style="fill:rgb(112, 112, 112);stroke:none;"/></g><g id="sprotty_ArchitectureBlockImpl$tlul_err_resp/AssignmentBlockImpl$tl_h_o.d_user/GPortImpl$tl_h_oOUT_to_ArchitectureBlockImpl$tlul_err_resp/BPortImpl$tl_h_o" class="sprotty-edge thick edge" style="fill:none;stroke:rgb(112, 112, 112);stroke-linejoin:round;stroke-width:3px;"><g><path d="M 270.46875 367 L 278.46875 367 C 279.46875 367 280.46875 366 280.46875 365 L 280.46875 243 C 280.46875 242 281.46875 241 282.46875 241 L 347.40625 241 "/><path d="M 270.46875 367 L 278.46875 367 C 279.46875 367 280.46875 366 280.46875 365 L 280.46875 243 C 280.46875 242 281.46875 241 282.46875 241 L 347.40625 241 " class="clickable"/></g><circle r="3" id="sprotty_ArchitectureBlockImpl$tlul_err_resp/AssignmentBlockImpl$tl_h_o.d_user/GPortImpl$tl_h_oOUT_to_ArchitectureBlockImpl$tlul_err_resp/BPortImpl$tl_h_o/junction0" transform="translate(280.46875, 367)" class="sprotty-junction thick" style="fill:rgb(112, 112, 112);stroke:none;"/></g><g id="sprotty_ArchitectureBlockImpl$tlul_err_resp/AssignmentBlockImpl$tl_h_o.d_error/GPortImpl$tl_h_oOUT_to_ArchitectureBlockImpl$tlul_err_resp/BPortImpl$tl_h_o" class="sprotty-edge thick edge" style="fill:none;stroke:rgb(112, 112, 112);stroke-linejoin:round;stroke-width:3px;"><g><path d="M 270.46875 241 L 347.40625 241 "/><path d="M 270.46875 241 L 347.40625 241 " class="clickable"/></g></g><g id="sprotty_ArchitectureBlockImpl$tlul_err_resp/BPortImpl$tl_h_i_to_ArchitectureBlockImpl$tlul_err_resp/AssignmentBlockImpl$tl_h_o.a_ready/GPortImpl$tl_h_iIN" class="sprotty-edge thick edge" style="fill:none;stroke:rgb(112, 112, 112);stroke-linejoin:round;stroke-width:3px;"><g><path d="M 0 221 L 228.75 221 C 229.75 221 230.75 220 230.75 219 L 230.75 202 C 230.75 201 231.75 200 232.75 200 L 250.75 200 "/><path d="M 0 221 L 228.75 221 C 229.75 221 230.75 220 230.75 219 L 230.75 202 C 230.75 201 231.75 200 232.75 200 L 250.75 200 " class="clickable"/></g></g><g id="sprotty_ArchitectureBlockImpl$tlul_err_resp/BPortImpl$clk_i_to_ArchitectureBlockImpl$tlul_err_resp/AlwaysBlockImpl$null5/GPortImpl$clk_iIN" class="sprotty-edge edge" style="fill:none;stroke:rgb(112, 112, 112);stroke-linejoin:round;"><g><path d="M 0 36 L 149.859375 36 C 150.859375 36 151.859375 37 151.859375 38 L 151.859375 55.5 C 151.859375 56.5 152.859375 57.5 153.859375 57.5 L 161.859375 57.5 "/><path d="M 0 36 L 149.859375 36 C 150.859375 36 151.859375 37 151.859375 38 L 151.859375 55.5 C 151.859375 56.5 152.859375 57.5 153.859375 57.5 L 161.859375 57.5 " class="clickable"/></g></g><g id="sprotty_ArchitectureBlockImpl$tlul_err_resp/BPortImpl$rst_ni_to_ArchitectureBlockImpl$tlul_err_resp/AlwaysBlockImpl$null5/GPortImpl$rst_niIN" class="sprotty-edge edge" style="fill:none;stroke:rgb(112, 112, 112);stroke-linejoin:round;"><g><path d="M 0 70 L 161.859375 70 "/><path d="M 0 70 L 161.859375 70 " class="clickable"/></g></g><g id="sprotty_ArchitectureBlockImpl$tlul_err_resp/BPortImpl$clk_i_to_ArchitectureBlockImpl$tlul_err_resp/AlwaysBlockImpl$null4/GPortImpl$clk_iIN" class="sprotty-edge edge" style="fill:none;stroke:rgb(112, 112, 112);stroke-linejoin:round;"><g><path d="M 0 36 L 70.96875 36 C 71.96875 36 72.96875 37 72.96875 38 L 72.96875 188 C 72.96875 189 73.96875 190 74.96875 190 L 92.96875 190 "/><path d="M 0 36 L 70.96875 36 C 71.96875 36 72.96875 37 72.96875 38 L 72.96875 188 C 72.96875 189 73.96875 190 74.96875 190 L 92.96875 190 " class="clickable"/></g><circle r="2" id="sprotty_ArchitectureBlockImpl$tlul_err_resp/BPortImpl$clk_i_to_ArchitectureBlockImpl$tlul_err_resp/AlwaysBlockImpl$null4/GPortImpl$clk_iIN/junction0" transform="translate(72.96875, 36)" class="sprotty-junction junction" style="fill:rgb(112, 112, 112);stroke:none;"/></g><g id="sprotty_ArchitectureBlockImpl$tlul_err_resp/BPortImpl$rst_ni_to_ArchitectureBlockImpl$tlul_err_resp/AlwaysBlockImpl$null4/GPortImpl$rst_niIN" class="sprotty-edge edge" style="fill:none;stroke:rgb(112, 112, 112);stroke-linejoin:round;"><g><path d="M 0 70 L 60.96875 70 C 61.96875 70 62.96875 71 62.96875 72 L 62.96875 198 C 62.96875 199 63.96875 200 64.96875 200 L 92.96875 200 "/><path d="M 0 70 L 60.96875 70 C 61.96875 70 62.96875 71 62.96875 72 L 62.96875 198 C 62.96875 199 63.96875 200 64.96875 200 L 92.96875 200 " class="clickable"/></g><circle r="2" id="sprotty_ArchitectureBlockImpl$tlul_err_resp/BPortImpl$rst_ni_to_ArchitectureBlockImpl$tlul_err_resp/AlwaysBlockImpl$null4/GPortImpl$rst_niIN/junction0" transform="translate(62.96875, 70)" class="sprotty-junction junction" style="fill:rgb(112, 112, 112);stroke:none;"/></g><g id="sprotty_ArchitectureBlockImpl$tlul_err_resp/AlwaysBlockImpl$null5/GPortImpl$err_opcodeOUT_to_ArchitectureBlockImpl$tlul_err_resp/AssignmentBlockImpl$tl_h_o.d_opcode/GPortImpl$err_opcodeIN" class="sprotty-edge thick edge" style="fill:none;stroke:rgb(112, 112, 112);stroke-linejoin:round;stroke-width:3px;"><g><path d="M 210.75 55 L 250.75 55 "/><path d="M 210.75 55 L 250.75 55 " class="clickable"/></g></g><g id="sprotty_ArchitectureBlockImpl$tlul_err_resp/AlwaysBlockImpl$null5/GPortImpl$err_sourceOUT_to_ArchitectureBlockImpl$tlul_err_resp/AssignmentBlockImpl$tl_h_o.d_source/GPortImpl$err_sourceIN" class="sprotty-edge thick edge" style="fill:none;stroke:rgb(112, 112, 112);stroke-linejoin:round;stroke-width:3px;"><g><path d="M 210.75 75 L 228.75 75 C 229.75 75 230.75 76 230.75 77 L 230.75 137 C 230.75 138 231.75 139 232.75 139 L 250.75 139 "/><path d="M 210.75 75 L 228.75 75 C 229.75 75 230.75 76 230.75 77 L 230.75 137 C 230.75 138 231.75 139 232.75 139 L 250.75 139 " class="clickable"/></g></g><g id="sprotty_ArchitectureBlockImpl$tlul_err_resp/AlwaysBlockImpl$null5/GPortImpl$err_sizeOUT_to_ArchitectureBlockImpl$tlul_err_resp/AssignmentBlockImpl$tl_h_o.d_size/GPortImpl$err_sizeIN" class="sprotty-edge thick edge" style="fill:none;stroke:rgb(112, 112, 112);stroke-linejoin:round;stroke-width:3px;"><g><path d="M 210.75 65 L 238.75 65 C 239.75 65 240.75 66 240.75 67 L 240.75 95 C 240.75 96 241.75 97 242.75 97 L 250.75 97 "/><path d="M 210.75 65 L 238.75 65 C 239.75 65 240.75 66 240.75 67 L 240.75 95 C 240.75 96 241.75 97 242.75 97 L 250.75 97 " class="clickable"/></g></g><g id="sprotty_ArchitectureBlockImpl$tlul_err_resp/AlwaysBlockImpl$null5/GPortImpl$err_req_pendingOUT_to_ArchitectureBlockImpl$tlul_err_resp/AssignmentBlockImpl$tl_h_o.a_ready/GPortImpl$err_req_pendingIN" class="sprotty-edge edge" style="fill:none;stroke:rgb(112, 112, 112);stroke-linejoin:round;"><g><path d="M 210.75 85 L 218.75 85 C 219.75 85 220.75 86 220.75 87 L 220.75 178 C 220.75 179 221.75 180 222.75 180 L 250.75 180 "/><path d="M 210.75 85 L 218.75 85 C 219.75 85 220.75 86 220.75 87 L 220.75 178 C 220.75 179 221.75 180 222.75 180 L 250.75 180 " class="clickable"/></g><circle r="2" id="sprotty_ArchitectureBlockImpl$tlul_err_resp/AlwaysBlockImpl$null5/GPortImpl$err_req_pendingOUT_to_ArchitectureBlockImpl$tlul_err_resp/AssignmentBlockImpl$tl_h_o.a_ready/GPortImpl$err_req_pendingIN/junction0" transform="translate(220.75, 180)" class="sprotty-junction junction" style="fill:rgb(112, 112, 112);stroke:none;"/></g><g id="sprotty_ArchitectureBlockImpl$tlul_err_resp/AlwaysBlockImpl$null5/GPortImpl$err_req_pendingOUT_to_ArchitectureBlockImpl$tlul_err_resp/AssignmentBlockImpl$tl_h_o.d_valid/GPortImpl$err_req_pendingIN" class="sprotty-edge edge" style="fill:none;stroke:rgb(112, 112, 112);stroke-linejoin:round;"><g><path d="M 210.75 85 L 218.75 85 C 219.75 85 220.75 86 220.75 87 L 220.75 448 C 220.75 449 221.75 450 222.75 450 L 250.75 450 "/><path d="M 210.75 85 L 218.75 85 C 219.75 85 220.75 86 220.75 87 L 220.75 448 C 220.75 449 221.75 450 222.75 450 L 250.75 450 " class="clickable"/></g></g><g id="sprotty_ArchitectureBlockImpl$tlul_err_resp/AlwaysBlockImpl$null5/GPortImpl$err_req_pendingOUT_to_ArchitectureBlockImpl$tlul_err_resp/AlwaysBlockImpl$null4/GPortImpl$err_req_pendingIN" class="sprotty-edge edge" style="fill:none;stroke:rgb(112, 112, 112);stroke-linejoin:round;"><g><path d="M 210.75 85 L 218.75 85 C 219.75 85 220.75 86 220.75 87 L 220.75 103 C 220.75 104 219.75 105 218.75 105 L 84.96875 105 C 83.96875 105 82.96875 106 82.96875 107 L 82.96875 178 C 82.96875 179 83.96875 180 84.96875 180 L 92.96875 180 "/><path d="M 210.75 85 L 218.75 85 C 219.75 85 220.75 86 220.75 87 L 220.75 103 C 220.75 104 219.75 105 218.75 105 L 84.96875 105 C 83.96875 105 82.96875 106 82.96875 107 L 82.96875 178 C 82.96875 179 83.96875 180 84.96875 180 L 92.96875 180 " class="clickable"/></g><circle r="2" id="sprotty_ArchitectureBlockImpl$tlul_err_resp/AlwaysBlockImpl$null5/GPortImpl$err_req_pendingOUT_to_ArchitectureBlockImpl$tlul_err_resp/AlwaysBlockImpl$null4/GPortImpl$err_req_pendingIN/junction0" transform="translate(220.75, 105)" class="sprotty-junction junction" style="fill:rgb(112, 112, 112);stroke:none;"/></g><g id="sprotty_ArchitectureBlockImpl$tlul_err_resp/AlwaysBlockImpl$null4/GPortImpl$err_rsp_pendingOUT_to_ArchitectureBlockImpl$tlul_err_resp/AssignmentBlockImpl$tl_h_o.a_ready/GPortImpl$err_rsp_pendingIN" class="sprotty-edge edge" style="fill:none;stroke:rgb(112, 112, 112);stroke-linejoin:round;"><g><path d="M 141.859375 190 L 250.75 190 "/><path d="M 141.859375 190 L 250.75 190 " class="clickable"/></g></g><g id="sprotty_ArchitectureBlockImpl$tlul_err_resp/AlwaysBlockImpl$null4/GPortImpl$err_rsp_pendingOUT_to_ArchitectureBlockImpl$tlul_err_resp/AssignmentBlockImpl$tl_h_o.d_valid/GPortImpl$err_rsp_pendingIN" class="sprotty-edge edge" style="fill:none;stroke:rgb(112, 112, 112);stroke-linejoin:round;"><g><path d="M 141.859375 190 L 149.859375 190 C 150.859375 190 151.859375 191 151.859375 192 L 151.859375 458 C 151.859375 459 152.859375 460 153.859375 460 L 250.75 460 "/><path d="M 141.859375 190 L 149.859375 190 C 150.859375 190 151.859375 191 151.859375 192 L 151.859375 458 C 151.859375 459 152.859375 460 153.859375 460 L 250.75 460 " class="clickable"/></g><circle r="2" id="sprotty_ArchitectureBlockImpl$tlul_err_resp/AlwaysBlockImpl$null4/GPortImpl$err_rsp_pendingOUT_to_ArchitectureBlockImpl$tlul_err_resp/AssignmentBlockImpl$tl_h_o.d_valid/GPortImpl$err_rsp_pendingIN/junction0" transform="translate(151.859375, 190)" class="sprotty-junction junction" style="fill:rgb(112, 112, 112);stroke:none;"/></g><g id="sprotty_ArchitectureBlockImpl$tlul_err_resp/AlwaysBlockImpl$null4/GPortImpl$err_rsp_pendingOUT_to_ArchitectureBlockImpl$tlul_err_resp/AlwaysBlockImpl$null5/GPortImpl$err_rsp_pendingIN" class="sprotty-edge edge" style="fill:none;stroke:rgb(112, 112, 112);stroke-linejoin:round;"><g><path d="M 141.859375 190 L 149.859375 190 C 150.859375 190 151.859375 189 151.859375 188 L 151.859375 84.5 C 151.859375 83.5 152.859375 82.5 153.859375 82.5 L 161.859375 82.5 "/><path d="M 141.859375 190 L 149.859375 190 C 150.859375 190 151.859375 189 151.859375 188 L 151.859375 84.5 C 151.859375 83.5 152.859375 82.5 153.859375 82.5 L 161.859375 82.5 " class="clickable"/></g></g><g id="sprotty_ArchitectureBlockImpl$tlul_err_resp/AlwaysBlockImpl$null4" transform="translate(92.96875, 170)" class="statement"><rect x="0" y="0" rx="10" ry="5" width="48.890625" height="40" class="sprotty-node" style="fill:rgb(245, 245, 245);stroke:rgb(112, 112, 112);"/><text class="clickable sprotty-label statementtype" id="sprotty_ArchitectureBlockImpl$tlul_err_resp/AlwaysBlockImpl$null4/labeltype" transform="translate(5, 14) translate(18.828125, 9)" style="cursor:default;font-size:8px;font-weight:700;perspective-origin:0.609375px 0px;fill:rgb(112, 112, 112);text-anchor:middle;">always_ff</text><g id="sprotty_ArchitectureBlockImpl$tlul_err_resp/AlwaysBlockImpl$null4/GPortImpl$err_req_pendingIN" transform="translate(0, 10)" class="sprotty-hidden hidden" style="display:block;height:0px;width:0px;"/><g id="sprotty_ArchitectureBlockImpl$tlul_err_resp/AlwaysBlockImpl$null4/GPortImpl$rst_niIN" transform="translate(0, 30)" class="sprotty-hidden hidden" style="display:block;height:0px;width:0px;"/><g id="sprotty_ArchitectureBlockImpl$tlul_err_resp/AlwaysBlockImpl$null4/GPortImpl$clk_iIN" transform="translate(0, 20)" class="sprotty-hidden hidden" style="display:block;height:0px;width:0px;"/><g id="sprotty_ArchitectureBlockImpl$tlul_err_resp/AlwaysBlockImpl$null4/GPortImpl$err_rsp_pendingOUT" transform="translate(48.890625, 20)" class="sprotty-hidden hidden" style="display:block;height:0px;width:0px;"/></g><g id="sprotty_ArchitectureBlockImpl$tlul_err_resp/AlwaysBlockImpl$null5" transform="translate(161.859375, 45)" class="statement"><rect x="0" y="0" rx="10" ry="5" width="48.890625" height="50" class="sprotty-node" style="fill:rgb(245, 245, 245);stroke:rgb(112, 112, 112);"/><text class="clickable sprotty-label statementtype" id="sprotty_ArchitectureBlockImpl$tlul_err_resp/AlwaysBlockImpl$null5/labeltype" transform="translate(5, 19) translate(18.828125, 9)" style="cursor:default;font-size:8px;font-weight:700;perspective-origin:0.609375px 0px;fill:rgb(112, 112, 112);text-anchor:middle;">always_ff</text><g id="sprotty_ArchitectureBlockImpl$tlul_err_resp/AlwaysBlockImpl$null5/GPortImpl$err_rsp_pendingIN" transform="translate(0, 37.5)" class="sprotty-hidden hidden" style="display:block;height:0px;width:0px;"/><g id="sprotty_ArchitectureBlockImpl$tlul_err_resp/AlwaysBlockImpl$null5/GPortImpl$rst_niIN" transform="translate(0, 25)" class="sprotty-hidden hidden" style="display:block;height:0px;width:0px;"/><g id="sprotty_ArchitectureBlockImpl$tlul_err_resp/AlwaysBlockImpl$null5/GPortImpl$clk_iIN" transform="translate(0, 12.5)" class="sprotty-hidden hidden" style="display:block;height:0px;width:0px;"/><g id="sprotty_ArchitectureBlockImpl$tlul_err_resp/AlwaysBlockImpl$null5/GPortImpl$err_req_pendingOUT" transform="translate(48.890625, 40)" class="sprotty-hidden hidden" style="display:block;height:0px;width:0px;"/><g id="sprotty_ArchitectureBlockImpl$tlul_err_resp/AlwaysBlockImpl$null5/GPortImpl$err_sourceOUT" transform="translate(48.890625, 30)" class="sprotty-hidden hidden" style="display:block;height:0px;width:0px;"/><g id="sprotty_ArchitectureBlockImpl$tlul_err_resp/AlwaysBlockImpl$null5/GPortImpl$err_opcodeOUT" transform="translate(48.890625, 10)" class="sprotty-hidden hidden" style="display:block;height:0px;width:0px;"/><g id="sprotty_ArchitectureBlockImpl$tlul_err_resp/AlwaysBlockImpl$null5/GPortImpl$err_sizeOUT" transform="translate(48.890625, 20)" class="sprotty-hidden hidden" style="display:block;height:0px;width:0px;"/></g><g id="sprotty_ArchitectureBlockImpl$tlul_err_resp/AssignmentBlockImpl$tl_h_o.d_error" transform="translate(250.75, 230)" class="statement"><rect x="0" y="0" rx="10" ry="5" width="19.71875" height="22" class="sprotty-node" style="fill:rgb(245, 245, 245);stroke:rgb(112, 112, 112);"/><text class="clickable sprotty-label statementtype" id="sprotty_ArchitectureBlockImpl$tlul_err_resp/AssignmentBlockImpl$tl_h_o.d_error/labeltype" transform="translate(5, 5) translate(4.71875, 9)" style="cursor:default;font-size:8px;font-weight:700;perspective-origin:0.140625px 0px;fill:rgb(112, 112, 112);text-anchor:middle;">&lt;=</text><g id="sprotty_ArchitectureBlockImpl$tlul_err_resp/AssignmentBlockImpl$tl_h_o.d_error/GPortImpl$tl_h_oOUT" transform="translate(19.71875, 11)" class="sprotty-hidden hidden" style="display:block;height:0px;width:0px;"/></g><g id="sprotty_ArchitectureBlockImpl$tlul_err_resp/AssignmentBlockImpl$tl_h_o.d_user" transform="translate(250.75, 356)" class="statement"><rect x="0" y="0" rx="10" ry="5" width="19.71875" height="22" class="sprotty-node" style="fill:rgb(245, 245, 245);stroke:rgb(112, 112, 112);"/><text class="clickable sprotty-label statementtype" id="sprotty_ArchitectureBlockImpl$tlul_err_resp/AssignmentBlockImpl$tl_h_o.d_user/labeltype" transform="translate(5, 5) translate(4.71875, 9)" style="cursor:default;font-size:8px;font-weight:700;perspective-origin:0.140625px 0px;fill:rgb(112, 112, 112);text-anchor:middle;">&lt;=</text><g id="sprotty_ArchitectureBlockImpl$tlul_err_resp/AssignmentBlockImpl$tl_h_o.d_user/GPortImpl$tl_h_oOUT" transform="translate(19.71875, 11)" class="sprotty-hidden hidden" style="display:block;height:0px;width:0px;"/></g><g id="sprotty_ArchitectureBlockImpl$tlul_err_resp/AssignmentBlockImpl$tl_h_o.d_opcode" transform="translate(250.75, 44)" class="statement"><rect x="0" y="0" rx="10" ry="5" width="19.71875" height="22" class="sprotty-node" style="fill:rgb(245, 245, 245);stroke:rgb(112, 112, 112);"/><text class="clickable sprotty-label statementtype" id="sprotty_ArchitectureBlockImpl$tlul_err_resp/AssignmentBlockImpl$tl_h_o.d_opcode/labeltype" transform="translate(5, 5) translate(4.71875, 9)" style="cursor:default;font-size:8px;font-weight:700;perspective-origin:0.140625px 0px;fill:rgb(112, 112, 112);text-anchor:middle;">&lt;=</text><g id="sprotty_ArchitectureBlockImpl$tlul_err_resp/AssignmentBlockImpl$tl_h_o.d_opcode/GPortImpl$err_opcodeIN" transform="translate(0, 11)" class="sprotty-hidden hidden" style="display:block;height:0px;width:0px;"/><g id="sprotty_ArchitectureBlockImpl$tlul_err_resp/AssignmentBlockImpl$tl_h_o.d_opcode/GPortImpl$tl_h_oOUT" transform="translate(19.71875, 11)" class="sprotty-hidden hidden" style="display:block;height:0px;width:0px;"/></g><g id="sprotty_ArchitectureBlockImpl$tlul_err_resp/AssignmentBlockImpl$tl_h_o.d_size" transform="translate(250.75, 86)" class="statement"><rect x="0" y="0" rx="10" ry="5" width="19.71875" height="22" class="sprotty-node" style="fill:rgb(245, 245, 245);stroke:rgb(112, 112, 112);"/><text class="clickable sprotty-label statementtype" id="sprotty_ArchitectureBlockImpl$tlul_err_resp/AssignmentBlockImpl$tl_h_o.d_size/labeltype" transform="translate(5, 5) translate(4.71875, 9)" style="cursor:default;font-size:8px;font-weight:700;perspective-origin:0.140625px 0px;fill:rgb(112, 112, 112);text-anchor:middle;">&lt;=</text><g id="sprotty_ArchitectureBlockImpl$tlul_err_resp/AssignmentBlockImpl$tl_h_o.d_size/GPortImpl$err_sizeIN" transform="translate(0, 11)" class="sprotty-hidden hidden" style="display:block;height:0px;width:0px;"/><g id="sprotty_ArchitectureBlockImpl$tlul_err_resp/AssignmentBlockImpl$tl_h_o.d_size/GPortImpl$tl_h_oOUT" transform="translate(19.71875, 11)" class="sprotty-hidden hidden" style="display:block;height:0px;width:0px;"/></g><g id="sprotty_ArchitectureBlockImpl$tlul_err_resp/AssignmentBlockImpl$tl_h_o.d_param" transform="translate(250.75, 314)" class="statement"><rect x="0" y="0" rx="10" ry="5" width="19.71875" height="22" class="sprotty-node" style="fill:rgb(245, 245, 245);stroke:rgb(112, 112, 112);"/><text class="clickable sprotty-label statementtype" id="sprotty_ArchitectureBlockImpl$tlul_err_resp/AssignmentBlockImpl$tl_h_o.d_param/labeltype" transform="translate(5, 5) translate(4.71875, 9)" style="cursor:default;font-size:8px;font-weight:700;perspective-origin:0.140625px 0px;fill:rgb(112, 112, 112);text-anchor:middle;">&lt;=</text><g id="sprotty_ArchitectureBlockImpl$tlul_err_resp/AssignmentBlockImpl$tl_h_o.d_param/GPortImpl$tl_h_oOUT" transform="translate(19.71875, 11)" class="sprotty-hidden hidden" style="display:block;height:0px;width:0px;"/></g><g id="sprotty_ArchitectureBlockImpl$tlul_err_resp/AssignmentBlockImpl$tl_h_o.d_sink" transform="translate(250.75, 272)" class="statement"><rect x="0" y="0" rx="10" ry="5" width="19.71875" height="22" class="sprotty-node" style="fill:rgb(245, 245, 245);stroke:rgb(112, 112, 112);"/><text class="clickable sprotty-label statementtype" id="sprotty_ArchitectureBlockImpl$tlul_err_resp/AssignmentBlockImpl$tl_h_o.d_sink/labeltype" transform="translate(5, 5) translate(4.71875, 9)" style="cursor:default;font-size:8px;font-weight:700;perspective-origin:0.140625px 0px;fill:rgb(112, 112, 112);text-anchor:middle;">&lt;=</text><g id="sprotty_ArchitectureBlockImpl$tlul_err_resp/AssignmentBlockImpl$tl_h_o.d_sink/GPortImpl$tl_h_oOUT" transform="translate(19.71875, 11)" class="sprotty-hidden hidden" style="display:block;height:0px;width:0px;"/></g><g id="sprotty_ArchitectureBlockImpl$tlul_err_resp/AssignmentBlockImpl$tl_h_o.d_source" transform="translate(250.75, 128)" class="statement"><rect x="0" y="0" rx="10" ry="5" width="19.71875" height="22" class="sprotty-node" style="fill:rgb(245, 245, 245);stroke:rgb(112, 112, 112);"/><text class="clickable sprotty-label statementtype" id="sprotty_ArchitectureBlockImpl$tlul_err_resp/AssignmentBlockImpl$tl_h_o.d_source/labeltype" transform="translate(5, 5) translate(4.71875, 9)" style="cursor:default;font-size:8px;font-weight:700;perspective-origin:0.140625px 0px;fill:rgb(112, 112, 112);text-anchor:middle;">&lt;=</text><g id="sprotty_ArchitectureBlockImpl$tlul_err_resp/AssignmentBlockImpl$tl_h_o.d_source/GPortImpl$err_sourceIN" transform="translate(0, 11)" class="sprotty-hidden hidden" style="display:block;height:0px;width:0px;"/><g id="sprotty_ArchitectureBlockImpl$tlul_err_resp/AssignmentBlockImpl$tl_h_o.d_source/GPortImpl$tl_h_oOUT" transform="translate(19.71875, 11)" class="sprotty-hidden hidden" style="display:block;height:0px;width:0px;"/></g><g id="sprotty_ArchitectureBlockImpl$tlul_err_resp/AssignmentBlockImpl$tl_h_o.d_data" transform="translate(250.75, 398)" class="statement"><rect x="0" y="0" rx="10" ry="5" width="19.71875" height="22" class="sprotty-node" style="fill:rgb(245, 245, 245);stroke:rgb(112, 112, 112);"/><text class="clickable sprotty-label statementtype" id="sprotty_ArchitectureBlockImpl$tlul_err_resp/AssignmentBlockImpl$tl_h_o.d_data/labeltype" transform="translate(5, 5) translate(4.71875, 9)" style="cursor:default;font-size:8px;font-weight:700;perspective-origin:0.140625px 0px;fill:rgb(112, 112, 112);text-anchor:middle;">&lt;=</text><g id="sprotty_ArchitectureBlockImpl$tlul_err_resp/AssignmentBlockImpl$tl_h_o.d_data/GPortImpl$tl_h_oOUT" transform="translate(19.71875, 11)" class="sprotty-hidden hidden" style="display:block;height:0px;width:0px;"/></g><g id="sprotty_ArchitectureBlockImpl$tlul_err_resp/AssignmentBlockImpl$tl_h_o.d_valid" transform="translate(250.75, 440)" class="statement"><rect x="0" y="0" rx="10" ry="5" width="19.71875" height="30" class="sprotty-node" style="fill:rgb(245, 245, 245);stroke:rgb(112, 112, 112);"/><text class="clickable sprotty-label statementtype" id="sprotty_ArchitectureBlockImpl$tlul_err_resp/AssignmentBlockImpl$tl_h_o.d_valid/labeltype" transform="translate(5, 9) translate(4.71875, 9)" style="cursor:default;font-size:8px;font-weight:700;perspective-origin:0.140625px 0px;fill:rgb(112, 112, 112);text-anchor:middle;">&lt;=</text><g id="sprotty_ArchitectureBlockImpl$tlul_err_resp/AssignmentBlockImpl$tl_h_o.d_valid/GPortImpl$err_rsp_pendingIN" transform="translate(0, 20)" class="sprotty-hidden hidden" style="display:block;height:0px;width:0px;"/><g id="sprotty_ArchitectureBlockImpl$tlul_err_resp/AssignmentBlockImpl$tl_h_o.d_valid/GPortImpl$err_req_pendingIN" transform="translate(0, 10)" class="sprotty-hidden hidden" style="display:block;height:0px;width:0px;"/><g id="sprotty_ArchitectureBlockImpl$tlul_err_resp/AssignmentBlockImpl$tl_h_o.d_valid/GPortImpl$tl_h_oOUT" transform="translate(19.71875, 15)" class="sprotty-hidden hidden" style="display:block;height:0px;width:0px;"/></g><g id="sprotty_ArchitectureBlockImpl$tlul_err_resp/AssignmentBlockImpl$tl_h_o.a_ready" transform="translate(250.75, 170)" class="statement"><rect x="0" y="0" rx="10" ry="5" width="19.71875" height="40" class="sprotty-node" style="fill:rgb(245, 245, 245);stroke:rgb(112, 112, 112);"/><text class="clickable sprotty-label statementtype" id="sprotty_ArchitectureBlockImpl$tlul_err_resp/AssignmentBlockImpl$tl_h_o.a_ready/labeltype" transform="translate(5, 14) translate(4.71875, 9)" style="cursor:default;font-size:8px;font-weight:700;perspective-origin:0.140625px 0px;fill:rgb(112, 112, 112);text-anchor:middle;">&lt;=</text><g id="sprotty_ArchitectureBlockImpl$tlul_err_resp/AssignmentBlockImpl$tl_h_o.a_ready/GPortImpl$tl_h_iIN" transform="translate(0, 30)" class="sprotty-hidden hidden" style="display:block;height:0px;width:0px;"/><g id="sprotty_ArchitectureBlockImpl$tlul_err_resp/AssignmentBlockImpl$tl_h_o.a_ready/GPortImpl$err_req_pendingIN" transform="translate(0, 10)" class="sprotty-hidden hidden" style="display:block;height:0px;width:0px;"/><g id="sprotty_ArchitectureBlockImpl$tlul_err_resp/AssignmentBlockImpl$tl_h_o.a_ready/GPortImpl$err_rsp_pendingIN" transform="translate(0, 20)" class="sprotty-hidden hidden" style="display:block;height:0px;width:0px;"/><g id="sprotty_ArchitectureBlockImpl$tlul_err_resp/AssignmentBlockImpl$tl_h_o.a_ready/GPortImpl$tl_h_oOUT" transform="translate(19.71875, 20)" class="sprotty-hidden hidden" style="display:block;height:0px;width:0px;"/></g><g id="sprotty_ArchitectureBlockImpl$tlul_err_resp/BPortImpl$tl_h_i" transform="translate(0, 221)" class="triangle"><path d="M 0,0 L 5,2.5 L 0,5 Z" transform="translate(-1.67, -2.5)" class="sprotty-port" style="fill:rgb(48, 48, 48);stroke:rgb(48, 48, 48);"/><text class="clickable sprotty-label port" id="sprotty_ArchitectureBlockImpl$tlul_err_resp/BPortImpl$tl_h_i/label" transform="translate(6, 6) translate(15.984375, 14)" style="cursor:default;font-size:12px;perspective-origin:0px 0px;fill:rgb(48, 48, 48);text-anchor:middle;">tl_h_i</text></g><g id="sprotty_ArchitectureBlockImpl$tlul_err_resp/BPortImpl$rst_ni" transform="translate(0, 70)" class="triangle"><path d="M 0,0 L 5,2.5 L 0,5 Z" transform="translate(-1.67, -2.5)" class="sprotty-port" style="fill:rgb(48, 48, 48);stroke:rgb(48, 48, 48);"/><text class="clickable sprotty-label port" id="sprotty_ArchitectureBlockImpl$tlul_err_resp/BPortImpl$rst_ni/label" transform="translate(6, 6) translate(15.921875, 14)" style="cursor:default;font-size:12px;perspective-origin:0px 0px;fill:rgb(48, 48, 48);text-anchor:middle;">rst_ni</text></g><g id="sprotty_ArchitectureBlockImpl$tlul_err_resp/BPortImpl$clk_i" transform="translate(0, 36)" class="triangle"><path d="M 0,0 L 5,2.5 L 0,5 Z" transform="translate(-1.67, -2.5)" class="sprotty-port" style="fill:rgb(48, 48, 48);stroke:rgb(48, 48, 48);"/><text class="clickable sprotty-label port" id="sprotty_ArchitectureBlockImpl$tlul_err_resp/BPortImpl$clk_i/label" transform="translate(6, 6) translate(13.09375, 14)" style="cursor:default;font-size:12px;perspective-origin:0px 0px;fill:rgb(48, 48, 48);text-anchor:middle;">clk_i</text></g><g id="sprotty_ArchitectureBlockImpl$tlul_err_resp/BPortImpl$tl_h_o" transform="translate(347.40625, 241)" class="triangle"><path d="M 0,0 L 5,2.5 L 0,5 Z" transform="translate(-1.67, -2.5)" class="sprotty-port" style="fill:rgb(48, 48, 48);stroke:rgb(48, 48, 48);"/><text class="clickable sprotty-label port" id="sprotty_ArchitectureBlockImpl$tlul_err_resp/BPortImpl$tl_h_o/label" transform="translate(-41.9375, 6) translate(17.96875, 14)" style="cursor:default;font-size:12px;perspective-origin:0px 0px;fill:rgb(48, 48, 48);text-anchor:middle;">tl_h_o</text></g></g></g></svg>