<svg xmlns="http://www.w3.org/2000/svg" id="sprotty_work.prim_subst_perm" class="sprotty-graph sprotty-block-diagram blockdiagram" style="font-family:&quot;Noto Sans&quot;, Helvetica, Arial, sans-serif;perspective-origin:0px 0px;transform-origin:0px 0px;" version="1.1" viewBox="7 7 369.28125 294" width="369.28125" height="294"><g transform="scale(1) translate(0,0)"><g id="sprotty_ArchitectureBlockImpl$prim_subst_perm" transform="translate(12, 12)" class="architecture"><g class="sprotty-block" style="fill:rgb(255, 255, 255);stroke:rgb(48, 48, 48);stroke-dasharray:0px;"><rect x="0" y="0" rx="1" ry="1" width="359.28125" height="284"/><text x="179.640625" y="12" class="sprotty-block-name" style="cursor:pointer;font-weight:700;perspective-origin:179.641px 0px;fill:rgb(48, 48, 48);stroke:rgba(0, 0, 0, 0);dominant-baseline:middle;text-anchor:middle;">prim_subst_perm</text><line x1="0" y1="20" x2="359.28125" y2="20"/></g><g id="sprotty_ArchitectureBlockImpl$prim_subst_perm/AssignmentBlockImpl$data_o/GPortImpl$data_oOUT_to_ArchitectureBlockImpl$prim_subst_perm/BPortImpl$data_o" class="sprotty-edge thick edge" style="fill:none;stroke:rgb(112, 112, 112);stroke-linejoin:round;stroke-width:3px;"><g><path d="M 299.25 50 L 359.28125 50 "/><path d="M 299.25 50 L 359.28125 50 " class="clickable"/></g></g><g id="sprotty_ArchitectureBlockImpl$prim_subst_perm/BPortImpl$data_i_to_ArchitectureBlockImpl$prim_subst_perm/AssignmentBlockImpl$data_state/GPortImpl$data_iIN" class="sprotty-edge thick edge" style="fill:none;stroke:rgb(112, 112, 112);stroke-linejoin:round;stroke-width:3px;"><g><path d="M 0 203.66666666666666 L 56.0625 203.66666666666666 "/><path d="M 0 203.66666666666666 L 56.0625 203.66666666666666 " class="clickable"/></g></g><g id="sprotty_ArchitectureBlockImpl$prim_subst_perm/BPortImpl$key_i_to_ArchitectureBlockImpl$prim_subst_perm/AssignmentBlockImpl$data_o/GPortImpl$key_iIN" class="sprotty-edge thick edge" style="fill:none;stroke:rgb(112, 112, 112);stroke-linejoin:round;stroke-width:3px;"><g><path d="M 0 45 L 279.53125 45 "/><path d="M 0 45 L 279.53125 45 " class="clickable"/></g></g><g id="sprotty_ArchitectureBlockImpl$prim_subst_perm/BPortImpl$key_i_to_ArchitectureBlockImpl$prim_subst_perm/GenerateStatementBlockImpl$gen_round/GPortImpl$key_i" class="sprotty-edge thick edge" style="fill:none;stroke:rgb(112, 112, 112);stroke-linejoin:round;stroke-width:3px;"><g><path d="M 0 45 L 83.78125 45 C 84.78125 45 85.78125 46 85.78125 47 L 85.78125 120.33333333333333 C 85.78125 121.33333333333333 86.78125 122.33333333333333 87.78125 122.33333333333333 L 95.78125 122.33333333333333 "/><path d="M 0 45 L 83.78125 45 C 84.78125 45 85.78125 46 85.78125 47 L 85.78125 120.33333333333333 C 85.78125 121.33333333333333 86.78125 122.33333333333333 87.78125 122.33333333333333 L 95.78125 122.33333333333333 " class="clickable"/></g><circle r="3" id="sprotty_ArchitectureBlockImpl$prim_subst_perm/BPortImpl$key_i_to_ArchitectureBlockImpl$prim_subst_perm/GenerateStatementBlockImpl$gen_round/GPortImpl$key_i/junction0" transform="translate(85.78125, 45)" class="sprotty-junction thick" style="fill:rgb(112, 112, 112);stroke:none;"/></g><g id="sprotty_ArchitectureBlockImpl$prim_subst_perm/AssignmentBlockImpl$data_state/GPortImpl$data_stateOUT_to_ArchitectureBlockImpl$prim_subst_perm/AssignmentBlockImpl$data_o/GPortImpl$data_stateIN" class="sprotty-edge thick edge" style="fill:none;stroke:rgb(112, 112, 112);stroke-linejoin:round;stroke-width:3px;"><g><path d="M 75.78125 203.66666666666666 L 83.78125 203.66666666666666 C 84.78125 203.66666666666666 85.78125 204.66666666666666 85.78125 205.66666666666666 L 85.78125 267 C 85.78125 268 86.78125 269 87.78125 269 L 267.53125 269 C 268.53125 269 269.53125 268 269.53125 267 L 269.53125 57 C 269.53125 56 270.53125 55 271.53125 55 L 279.53125 55 "/><path d="M 75.78125 203.66666666666666 L 83.78125 203.66666666666666 C 84.78125 203.66666666666666 85.78125 204.66666666666666 85.78125 205.66666666666666 L 85.78125 267 C 85.78125 268 86.78125 269 87.78125 269 L 267.53125 269 C 268.53125 269 269.53125 268 269.53125 267 L 269.53125 57 C 269.53125 56 270.53125 55 271.53125 55 L 279.53125 55 " class="clickable"/></g><circle r="3" id="sprotty_ArchitectureBlockImpl$prim_subst_perm/AssignmentBlockImpl$data_state/GPortImpl$data_stateOUT_to_ArchitectureBlockImpl$prim_subst_perm/AssignmentBlockImpl$data_o/GPortImpl$data_stateIN/junction0" transform="translate(85.78125, 203.66666666666666)" class="sprotty-junction thick" style="fill:rgb(112, 112, 112);stroke:none;"/></g><g id="sprotty_ArchitectureBlockImpl$prim_subst_perm/AssignmentBlockImpl$data_state/GPortImpl$data_stateOUT_to_ArchitectureBlockImpl$prim_subst_perm/GenerateStatementBlockImpl$gen_round/GPortImpl$data_state" class="sprotty-edge thick edge" style="fill:none;stroke:rgb(112, 112, 112);stroke-linejoin:round;stroke-width:3px;"><g><path d="M 75.78125 203.66666666666666 L 95.78125 203.66666666666666 "/><path d="M 75.78125 203.66666666666666 L 95.78125 203.66666666666666 " class="clickable"/></g></g><g id="sprotty_ArchitectureBlockImpl$prim_subst_perm/GenerateStatementBlockImpl$gen_round/GPortImpl$data_state_to_ArchitectureBlockImpl$prim_subst_perm/AssignmentBlockImpl$data_o/GPortImpl$data_stateIN" class="sprotty-edge thick edge" style="fill:none;stroke:rgb(112, 112, 112);stroke-linejoin:round;stroke-width:3px;"><g><path d="M 95.78125 203.66666666666666 L 87.78125 203.66666666666666 C 86.78125 203.66666666666666 85.78125 204.66666666666666 85.78125 205.66666666666666 L 85.78125 267 C 85.78125 268 86.78125 269 87.78125 269 L 267.53125 269 C 268.53125 269 269.53125 268 269.53125 267 L 269.53125 57 C 269.53125 56 270.53125 55 271.53125 55 L 279.53125 55 "/><path d="M 95.78125 203.66666666666666 L 87.78125 203.66666666666666 C 86.78125 203.66666666666666 85.78125 204.66666666666666 85.78125 205.66666666666666 L 85.78125 267 C 85.78125 268 86.78125 269 87.78125 269 L 267.53125 269 C 268.53125 269 269.53125 268 269.53125 267 L 269.53125 57 C 269.53125 56 270.53125 55 271.53125 55 L 279.53125 55 " class="clickable"/></g></g><g id="sprotty_ArchitectureBlockImpl$prim_subst_perm/GenerateStatementBlockImpl$gen_round" transform="translate(95.78125, 57)" class="generate"><g class="sprotty-block sprotty-block-generate" style="fill:rgb(255, 255, 255);stroke:rgb(48, 48, 48);stroke-dasharray:0px;"><rect x="0" y="0" rx="1" ry="1" width="163.75" height="202" style="stroke-dasharray:3px, 1px;"/><text x="81.875" y="12" class="sprotty-block-name" style="cursor:pointer;font-weight:700;perspective-origin:81.875px 0px;fill:rgb(48, 48, 48);stroke:rgba(0, 0, 0, 0);dominant-baseline:middle;text-anchor:middle;">gen_round</text><line x1="0" y1="20" x2="163.75" y2="20" style="stroke-dasharray:3px, 1px;"/></g><g id="sprotty_ArchitectureBlockImpl$prim_subst_perm/GenerateStatementBlockImpl$gen_round/GenerateStatementBlockImpl$null2" transform="translate(15, 35)" class="generate"><g class="sprotty-block sprotty-block-generate" style="fill:rgb(255, 255, 255);stroke:rgb(48, 48, 48);stroke-dasharray:0px;"><rect x="0" y="0" rx="1" ry="1" width="133.75" height="152" style="stroke-dasharray:3px, 1px;"/><text x="66.875" y="12" class="sprotty-block-name" style="cursor:pointer;font-weight:700;fill:rgb(48, 48, 48);stroke:rgba(0, 0, 0, 0);dominant-baseline:middle;text-anchor:middle;"/>undefined</g><g id="sprotty_ArchitectureBlockImpl$prim_subst_perm/GenerateStatementBlockImpl$gen_round/GenerateStatementBlockImpl$null2/GPortImpl$key_i_to_ArchitectureBlockImpl$prim_subst_perm/GenerateStatementBlockImpl$gen_round/GenerateStatementBlockImpl$null2/AlwaysBlockImpl$p_dec/GPortImpl$key_iIN" class="sprotty-edge thick edge" style="fill:none;stroke:rgb(112, 112, 112);stroke-linejoin:round;stroke-width:3px;"><g><path d="M 0 30.333333333333332 L 33 30.333333333333332 C 34 30.333333333333332 35 31.33333333333333 35 32.33333333333333 L 35 94.33333333333333 C 35 95.33333333333333 36 96.33333333333333 37 96.33333333333333 L 45 96.33333333333333 "/><path d="M 0 30.333333333333332 L 33 30.333333333333332 C 34 30.333333333333332 35 31.33333333333333 35 32.33333333333333 L 35 94.33333333333333 C 35 95.33333333333333 36 96.33333333333333 37 96.33333333333333 L 45 96.33333333333333 " class="clickable"/></g><circle r="3" id="sprotty_ArchitectureBlockImpl$prim_subst_perm/GenerateStatementBlockImpl$gen_round/GenerateStatementBlockImpl$null2/GPortImpl$key_i_to_ArchitectureBlockImpl$prim_subst_perm/GenerateStatementBlockImpl$gen_round/GenerateStatementBlockImpl$null2/AlwaysBlockImpl$p_dec/GPortImpl$key_iIN/junction0" transform="translate(35, 30.333333333333332)" class="sprotty-junction thick" style="fill:rgb(112, 112, 112);stroke:none;"/></g><g id="sprotty_ArchitectureBlockImpl$prim_subst_perm/GenerateStatementBlockImpl$gen_round/GPortImpl$key_i_to_ArchitectureBlockImpl$prim_subst_perm/GenerateStatementBlockImpl$gen_round/GenerateStatementBlockImpl$null2/GPortImpl$key_i" class="sprotty-edge thick edge" style="fill:none;stroke:rgb(112, 112, 112);stroke-linejoin:round;stroke-width:3px;"><g><path d="M -15 30.333333333333314 L 0 30.333333333333332 "/><path d="M -15 30.333333333333314 L 0 30.333333333333332 " class="clickable"/></g></g><g id="sprotty_ArchitectureBlockImpl$prim_subst_perm/GenerateStatementBlockImpl$gen_round/GenerateStatementBlockImpl$null2/GPortImpl$key_i_to_ArchitectureBlockImpl$prim_subst_perm/GenerateStatementBlockImpl$gen_round/GenerateStatementBlockImpl$null2/AlwaysBlockImpl$p_enc/GPortImpl$key_iIN" class="sprotty-edge thick edge" style="fill:none;stroke:rgb(112, 112, 112);stroke-linejoin:round;stroke-width:3px;"><g><path d="M 0 30.333333333333332 L 45 30.333333333333332 "/><path d="M 0 30.333333333333332 L 45 30.333333333333332 " class="clickable"/></g></g><g id="sprotty_ArchitectureBlockImpl$prim_subst_perm/GenerateStatementBlockImpl$gen_round/GenerateStatementBlockImpl$null2/GPortImpl$data_state_to_ArchitectureBlockImpl$prim_subst_perm/GenerateStatementBlockImpl$gen_round/GenerateStatementBlockImpl$null2/AlwaysBlockImpl$p_dec/GPortImpl$data_stateIN" class="sprotty-edge thick edge" style="fill:none;stroke:rgb(112, 112, 112);stroke-linejoin:round;stroke-width:3px;"><g><path d="M 0 111.66666666666666 L 45 111.66666666666666 "/><path d="M 0 111.66666666666666 L 45 111.66666666666666 " class="clickable"/></g></g><g id="sprotty_ArchitectureBlockImpl$prim_subst_perm/GenerateStatementBlockImpl$gen_round/GPortImpl$data_state_to_ArchitectureBlockImpl$prim_subst_perm/GenerateStatementBlockImpl$gen_round/GenerateStatementBlockImpl$null2/GPortImpl$data_state" class="sprotty-edge thick edge" style="fill:none;stroke:rgb(112, 112, 112);stroke-linejoin:round;stroke-width:3px;"><g><path d="M -15 111.66666666666666 L 0 111.66666666666666 "/><path d="M -15 111.66666666666666 L 0 111.66666666666666 " class="clickable"/></g></g><g id="sprotty_ArchitectureBlockImpl$prim_subst_perm/GenerateStatementBlockImpl$gen_round/GenerateStatementBlockImpl$null2/GPortImpl$data_state_to_ArchitectureBlockImpl$prim_subst_perm/GenerateStatementBlockImpl$gen_round/GenerateStatementBlockImpl$null2/AlwaysBlockImpl$p_enc/GPortImpl$data_stateIN" class="sprotty-edge thick edge" style="fill:none;stroke:rgb(112, 112, 112);stroke-linejoin:round;stroke-width:3px;"><g><path d="M 0 111.66666666666666 L 23 111.66666666666666 C 24 111.66666666666666 25 110.66666666666666 25 109.66666666666666 L 25 47.666666666666664 C 25 46.666666666666664 26 45.666666666666664 27 45.666666666666664 L 45 45.666666666666664 "/><path d="M 0 111.66666666666666 L 23 111.66666666666666 C 24 111.66666666666666 25 110.66666666666666 25 109.66666666666666 L 25 47.666666666666664 C 25 46.666666666666664 26 45.666666666666664 27 45.666666666666664 L 45 45.666666666666664 " class="clickable"/></g><circle r="3" id="sprotty_ArchitectureBlockImpl$prim_subst_perm/GenerateStatementBlockImpl$gen_round/GenerateStatementBlockImpl$null2/GPortImpl$data_state_to_ArchitectureBlockImpl$prim_subst_perm/GenerateStatementBlockImpl$gen_round/GenerateStatementBlockImpl$null2/AlwaysBlockImpl$p_enc/GPortImpl$data_stateIN/junction0" transform="translate(25, 111.66666666666666)" class="sprotty-junction thick" style="fill:rgb(112, 112, 112);stroke:none;"/></g><g id="sprotty_ArchitectureBlockImpl$prim_subst_perm/GenerateStatementBlockImpl$gen_round/GenerateStatementBlockImpl$null2/AlwaysBlockImpl$p_dec/GPortImpl$data_stateOUT_to_ArchitectureBlockImpl$prim_subst_perm/GenerateStatementBlockImpl$gen_round/GenerateStatementBlockImpl$null2/GPortImpl$data_state" class="sprotty-edge thick edge" style="fill:none;stroke:rgb(112, 112, 112);stroke-linejoin:round;stroke-width:3px;"><g><path d="M 108.75 104 L 116.75 104 C 117.75 104 118.75 105 118.75 106 L 118.75 135 C 118.75 136 117.75 137 116.75 137 L 27 137 C 26 137 25 136 25 135 L 25 113.66666666666666 C 25 112.66666666666666 24 111.66666666666666 23 111.66666666666666 L 0 111.66666666666666 "/><path d="M 108.75 104 L 116.75 104 C 117.75 104 118.75 105 118.75 106 L 118.75 135 C 118.75 136 117.75 137 116.75 137 L 27 137 C 26 137 25 136 25 135 L 25 113.66666666666666 C 25 112.66666666666666 24 111.66666666666666 23 111.66666666666666 L 0 111.66666666666666 " class="clickable"/></g><circle r="3" id="sprotty_ArchitectureBlockImpl$prim_subst_perm/GenerateStatementBlockImpl$gen_round/GenerateStatementBlockImpl$null2/AlwaysBlockImpl$p_dec/GPortImpl$data_stateOUT_to_ArchitectureBlockImpl$prim_subst_perm/GenerateStatementBlockImpl$gen_round/GenerateStatementBlockImpl$null2/GPortImpl$data_state/junction0" transform="translate(118.75, 104)" class="sprotty-junction thick" style="fill:rgb(112, 112, 112);stroke:none;"/></g><g id="sprotty_ArchitectureBlockImpl$prim_subst_perm/GenerateStatementBlockImpl$gen_round/GenerateStatementBlockImpl$null2/GPortImpl$data_state_to_ArchitectureBlockImpl$prim_subst_perm/GenerateStatementBlockImpl$gen_round/GPortImpl$data_state" class="sprotty-edge thick edge" style="fill:none;stroke:rgb(112, 112, 112);stroke-linejoin:round;stroke-width:3px;"><g><path d="M 0 111.66666666666666 L -15 111.66666666666666 "/><path d="M 0 111.66666666666666 L -15 111.66666666666666 " class="clickable"/></g></g><g id="sprotty_ArchitectureBlockImpl$prim_subst_perm/GenerateStatementBlockImpl$gen_round/GenerateStatementBlockImpl$null2/AlwaysBlockImpl$p_enc/GPortImpl$data_stateOUT_to_ArchitectureBlockImpl$prim_subst_perm/GenerateStatementBlockImpl$gen_round/GenerateStatementBlockImpl$null2/GPortImpl$data_state" class="sprotty-edge thick edge" style="fill:none;stroke:rgb(112, 112, 112);stroke-linejoin:round;stroke-width:3px;"><g><path d="M 108.75 38 L 116.75 38 C 117.75 38 118.75 39 118.75 40 L 118.75 135 C 118.75 136 117.75 137 116.75 137 L 27 137 C 26 137 25 136 25 135 L 25 113.66666666666666 C 25 112.66666666666666 24 111.66666666666666 23 111.66666666666666 L 0 111.66666666666666 "/><path d="M 108.75 38 L 116.75 38 C 117.75 38 118.75 39 118.75 40 L 118.75 135 C 118.75 136 117.75 137 116.75 137 L 27 137 C 26 137 25 136 25 135 L 25 113.66666666666666 C 25 112.66666666666666 24 111.66666666666666 23 111.66666666666666 L 0 111.66666666666666 " class="clickable"/></g></g><g id="sprotty_ArchitectureBlockImpl$prim_subst_perm/GenerateStatementBlockImpl$gen_round/GenerateStatementBlockImpl$null2/AlwaysBlockImpl$p_enc" transform="translate(45, 15)" class="statement"><rect x="0" y="0" rx="10" ry="5" width="63.75" height="46" class="sprotty-node" style="fill:rgb(245, 245, 245);stroke:rgb(112, 112, 112);"/><text class="clickable sprotty-label statementtext" id="sprotty_ArchitectureBlockImpl$prim_subst_perm/GenerateStatementBlockImpl$gen_round/GenerateStatementBlockImpl$null2/AlwaysBlockImpl$p_enc/labeltext" transform="translate(8.1875, 5) translate(23.6875, 19)" style="cursor:default;font-weight:700;perspective-origin:0px 0px;fill:rgb(112, 112, 112);text-anchor:middle;">p_enc</text><text class="clickable sprotty-label statementtype" id="sprotty_ArchitectureBlockImpl$prim_subst_perm/GenerateStatementBlockImpl$gen_round/GenerateStatementBlockImpl$null2/AlwaysBlockImpl$p_enc/labeltype" transform="translate(5, 29) translate(26.875, 9)" style="cursor:default;font-size:8px;font-weight:700;perspective-origin:0px 0px;fill:rgb(112, 112, 112);text-anchor:middle;">always_comb</text><g id="sprotty_ArchitectureBlockImpl$prim_subst_perm/GenerateStatementBlockImpl$gen_round/GenerateStatementBlockImpl$null2/AlwaysBlockImpl$p_enc/GPortImpl$key_iIN" transform="translate(0, 15.333333333333332)" class="sprotty-hidden hidden" style="display:block;height:0px;width:0px;"/><g id="sprotty_ArchitectureBlockImpl$prim_subst_perm/GenerateStatementBlockImpl$gen_round/GenerateStatementBlockImpl$null2/AlwaysBlockImpl$p_enc/GPortImpl$data_stateIN" transform="translate(0, 30.666666666666664)" class="sprotty-hidden hidden" style="display:block;height:0px;width:0px;"/><g id="sprotty_ArchitectureBlockImpl$prim_subst_perm/GenerateStatementBlockImpl$gen_round/GenerateStatementBlockImpl$null2/AlwaysBlockImpl$p_enc/GPortImpl$data_stateOUT" transform="translate(63.75, 23)" class="sprotty-hidden hidden" style="display:block;height:0px;width:0px;"/></g><g id="sprotty_ArchitectureBlockImpl$prim_subst_perm/GenerateStatementBlockImpl$gen_round/GenerateStatementBlockImpl$null2/AlwaysBlockImpl$p_dec" transform="translate(45, 81)" class="statement"><rect x="0" y="0" rx="10" ry="5" width="63.75" height="46" class="sprotty-node" style="fill:rgb(245, 245, 245);stroke:rgb(112, 112, 112);"/><text class="clickable sprotty-label statementtext" id="sprotty_ArchitectureBlockImpl$prim_subst_perm/GenerateStatementBlockImpl$gen_round/GenerateStatementBlockImpl$null2/AlwaysBlockImpl$p_dec/labeltext" transform="translate(8.15625, 5) translate(23.71875, 19)" style="cursor:default;font-weight:700;perspective-origin:0px 0px;fill:rgb(112, 112, 112);text-anchor:middle;">p_dec</text><text class="clickable sprotty-label statementtype" id="sprotty_ArchitectureBlockImpl$prim_subst_perm/GenerateStatementBlockImpl$gen_round/GenerateStatementBlockImpl$null2/AlwaysBlockImpl$p_dec/labeltype" transform="translate(5, 29) translate(26.875, 9)" style="cursor:default;font-size:8px;font-weight:700;perspective-origin:0px 0px;fill:rgb(112, 112, 112);text-anchor:middle;">always_comb</text><g id="sprotty_ArchitectureBlockImpl$prim_subst_perm/GenerateStatementBlockImpl$gen_round/GenerateStatementBlockImpl$null2/AlwaysBlockImpl$p_dec/GPortImpl$key_iIN" transform="translate(0, 15.333333333333332)" class="sprotty-hidden hidden" style="display:block;height:0px;width:0px;"/><g id="sprotty_ArchitectureBlockImpl$prim_subst_perm/GenerateStatementBlockImpl$gen_round/GenerateStatementBlockImpl$null2/AlwaysBlockImpl$p_dec/GPortImpl$data_stateIN" transform="translate(0, 30.666666666666664)" class="sprotty-hidden hidden" style="display:block;height:0px;width:0px;"/><g id="sprotty_ArchitectureBlockImpl$prim_subst_perm/GenerateStatementBlockImpl$gen_round/GenerateStatementBlockImpl$null2/AlwaysBlockImpl$p_dec/GPortImpl$data_stateOUT" transform="translate(63.75, 23)" class="sprotty-hidden hidden" style="display:block;height:0px;width:0px;"/></g><g id="sprotty_ArchitectureBlockImpl$prim_subst_perm/GenerateStatementBlockImpl$gen_round/GenerateStatementBlockImpl$null2/GPortImpl$data_state" transform="translate(0, 111.66666666666666)" class="triangle"><path d="M 0,0 L 5,2.5 L 0,5 Z" transform="translate(-1.67, -2.5)" class="sprotty-port" style="fill:rgb(48, 48, 48);stroke:rgb(48, 48, 48);"/></g><g id="sprotty_ArchitectureBlockImpl$prim_subst_perm/GenerateStatementBlockImpl$gen_round/GenerateStatementBlockImpl$null2/GPortImpl$key_i" transform="translate(0, 30.333333333333332)" class="triangle"><path d="M 0,0 L 5,2.5 L 0,5 Z" transform="translate(-1.67, -2.5)" class="sprotty-port" style="fill:rgb(48, 48, 48);stroke:rgb(48, 48, 48);"/></g></g><g id="sprotty_ArchitectureBlockImpl$prim_subst_perm/GenerateStatementBlockImpl$gen_round/GPortImpl$data_state" transform="translate(0, 146.66666666666666)" class="triangle"><path d="M 0,0 L 5,2.5 L 0,5 Z" transform="translate(-1.67, -2.5)" class="sprotty-port" style="fill:rgb(48, 48, 48);stroke:rgb(48, 48, 48);"/></g><g id="sprotty_ArchitectureBlockImpl$prim_subst_perm/GenerateStatementBlockImpl$gen_round/GPortImpl$key_i" transform="translate(0, 65.33333333333333)" class="triangle"><path d="M 0,0 L 5,2.5 L 0,5 Z" transform="translate(-1.67, -2.5)" class="sprotty-port" style="fill:rgb(48, 48, 48);stroke:rgb(48, 48, 48);"/></g></g><g id="sprotty_ArchitectureBlockImpl$prim_subst_perm/AssignmentBlockImpl$data_o" transform="translate(279.53125, 35)" class="statement"><rect x="0" y="0" rx="10" ry="5" width="19.71875" height="30" class="sprotty-node" style="fill:rgb(245, 245, 245);stroke:rgb(112, 112, 112);"/><text class="clickable sprotty-label statementtype" id="sprotty_ArchitectureBlockImpl$prim_subst_perm/AssignmentBlockImpl$data_o/labeltype" transform="translate(5, 9) translate(4.71875, 9)" style="cursor:default;font-size:8px;font-weight:700;perspective-origin:0.140625px 0px;fill:rgb(112, 112, 112);text-anchor:middle;">&lt;=</text><g id="sprotty_ArchitectureBlockImpl$prim_subst_perm/AssignmentBlockImpl$data_o/GPortImpl$key_iIN" transform="translate(0, 10)" class="sprotty-hidden hidden" style="display:block;height:0px;width:0px;"/><g id="sprotty_ArchitectureBlockImpl$prim_subst_perm/AssignmentBlockImpl$data_o/GPortImpl$data_stateIN" transform="translate(0, 20)" class="sprotty-hidden hidden" style="display:block;height:0px;width:0px;"/><g id="sprotty_ArchitectureBlockImpl$prim_subst_perm/AssignmentBlockImpl$data_o/GPortImpl$data_oOUT" transform="translate(19.71875, 15)" class="sprotty-hidden hidden" style="display:block;height:0px;width:0px;"/></g><g id="sprotty_ArchitectureBlockImpl$prim_subst_perm/AssignmentBlockImpl$data_state" transform="translate(56.0625, 192.66666666666666)" class="statement"><rect x="0" y="0" rx="10" ry="5" width="19.71875" height="22" class="sprotty-node" style="fill:rgb(245, 245, 245);stroke:rgb(112, 112, 112);"/><text class="clickable sprotty-label statementtype" id="sprotty_ArchitectureBlockImpl$prim_subst_perm/AssignmentBlockImpl$data_state/labeltype" transform="translate(5, 5) translate(4.71875, 9)" style="cursor:default;font-size:8px;font-weight:700;perspective-origin:0.140625px 0px;fill:rgb(112, 112, 112);text-anchor:middle;">&lt;=</text><g id="sprotty_ArchitectureBlockImpl$prim_subst_perm/AssignmentBlockImpl$data_state/GPortImpl$data_iIN" transform="translate(0, 11)" class="sprotty-hidden hidden" style="display:block;height:0px;width:0px;"/><g id="sprotty_ArchitectureBlockImpl$prim_subst_perm/AssignmentBlockImpl$data_state/GPortImpl$data_stateOUT" transform="translate(19.71875, 11)" class="sprotty-hidden hidden" style="display:block;height:0px;width:0px;"/></g><g id="sprotty_ArchitectureBlockImpl$prim_subst_perm/BPortImpl$key_i" transform="translate(0, 45)" class="triangle"><path d="M 0,0 L 5,2.5 L 0,5 Z" transform="translate(-1.67, -2.5)" class="sprotty-port" style="fill:rgb(48, 48, 48);stroke:rgb(48, 48, 48);"/><text class="clickable sprotty-label port" id="sprotty_ArchitectureBlockImpl$prim_subst_perm/BPortImpl$key_i/label" transform="translate(6, 6) translate(14.6875, 14)" style="cursor:default;font-size:12px;perspective-origin:0px 0px;fill:rgb(48, 48, 48);text-anchor:middle;">key_i</text></g><g id="sprotty_ArchitectureBlockImpl$prim_subst_perm/BPortImpl$data_i" transform="translate(0, 203.66666666666666)" class="triangle"><path d="M 0,0 L 5,2.5 L 0,5 Z" transform="translate(-1.67, -2.5)" class="sprotty-port" style="fill:rgb(48, 48, 48);stroke:rgb(48, 48, 48);"/><text class="clickable sprotty-label port" id="sprotty_ArchitectureBlockImpl$prim_subst_perm/BPortImpl$data_i/label" transform="translate(6, 6) translate(17.53125, 14)" style="cursor:default;font-size:12px;perspective-origin:0px 0px;fill:rgb(48, 48, 48);text-anchor:middle;">data_i</text></g><g id="sprotty_ArchitectureBlockImpl$prim_subst_perm/BPortImpl$data_o" transform="translate(359.28125, 50)" class="triangle"><path d="M 0,0 L 5,2.5 L 0,5 Z" transform="translate(-1.67, -2.5)" class="sprotty-port" style="fill:rgb(48, 48, 48);stroke:rgb(48, 48, 48);"/><text class="clickable sprotty-label port" id="sprotty_ArchitectureBlockImpl$prim_subst_perm/BPortImpl$data_o/label" transform="translate(-45.03125, 6) translate(19.515625, 14)" style="cursor:default;font-size:12px;perspective-origin:0px 0px;fill:rgb(48, 48, 48);text-anchor:middle;">data_o</text></g></g></g></svg>